<?xml version="1.0" encoding="utf-8" standalone="no"?>
<!DOCTYPE svg PUBLIC "-//W3C//DTD SVG 1.1//EN"
  "http://www.w3.org/Graphics/SVG/1.1/DTD/svg11.dtd">
<!-- Created with matplotlib (https://matplotlib.org/) -->
<svg height="710.64pt" version="1.1" viewBox="0 0 720 710.64" width="720pt" xmlns="http://www.w3.org/2000/svg" xmlns:xlink="http://www.w3.org/1999/xlink">
 <defs>
  <style type="text/css">
*{stroke-linecap:butt;stroke-linejoin:round;}
  </style>
 </defs>
 <g id="figure_1">
  <g id="patch_1">
   <path d="M 0 710.64 
L 720 710.64 
L 720 0 
L 0 0 
z
" style="fill:#ffffff;"/>
  </g>
  <g id="axes_1">
   <g id="patch_2">
    <path d="M 90 334.0008 
L 648 334.0008 
L 648 85.2768 
L 90 85.2768 
z
" style="fill:#ffffff;"/>
   </g>
   <g id="matplotlib.axis_1">
    <g id="xtick_1">
     <g id="line2d_1">
      <defs>
       <path d="M 0 0 
L 0 3.5 
" id="mf20d9223eb" style="stroke:#000000;stroke-width:0.8;"/>
      </defs>
      <g>
       <use style="stroke:#000000;stroke-width:0.8;" x="90" xlink:href="#mf20d9223eb" y="334.0008"/>
      </g>
     </g>
    </g>
    <g id="xtick_2">
     <g id="line2d_2">
      <g>
       <use style="stroke:#000000;stroke-width:0.8;" x="169.714286" xlink:href="#mf20d9223eb" y="334.0008"/>
      </g>
     </g>
    </g>
    <g id="xtick_3">
     <g id="line2d_3">
      <g>
       <use style="stroke:#000000;stroke-width:0.8;" x="249.428571" xlink:href="#mf20d9223eb" y="334.0008"/>
      </g>
     </g>
    </g>
    <g id="xtick_4">
     <g id="line2d_4">
      <g>
       <use style="stroke:#000000;stroke-width:0.8;" x="329.142857" xlink:href="#mf20d9223eb" y="334.0008"/>
      </g>
     </g>
    </g>
    <g id="xtick_5">
     <g id="line2d_5">
      <g>
       <use style="stroke:#000000;stroke-width:0.8;" x="408.857143" xlink:href="#mf20d9223eb" y="334.0008"/>
      </g>
     </g>
    </g>
    <g id="xtick_6">
     <g id="line2d_6">
      <g>
       <use style="stroke:#000000;stroke-width:0.8;" x="488.571429" xlink:href="#mf20d9223eb" y="334.0008"/>
      </g>
     </g>
    </g>
    <g id="xtick_7">
     <g id="line2d_7">
      <g>
       <use style="stroke:#000000;stroke-width:0.8;" x="568.285714" xlink:href="#mf20d9223eb" y="334.0008"/>
      </g>
     </g>
    </g>
    <g id="xtick_8">
     <g id="line2d_8">
      <g>
       <use style="stroke:#000000;stroke-width:0.8;" x="648" xlink:href="#mf20d9223eb" y="334.0008"/>
      </g>
     </g>
    </g>
    <g id="text_1">
     <!-- nHitsW -->
     <defs>
      <path d="M 54.890625 33.015625 
L 54.890625 0 
L 45.90625 0 
L 45.90625 32.71875 
Q 45.90625 40.484375 42.875 44.328125 
Q 39.84375 48.1875 33.796875 48.1875 
Q 26.515625 48.1875 22.3125 43.546875 
Q 18.109375 38.921875 18.109375 30.90625 
L 18.109375 0 
L 9.078125 0 
L 9.078125 54.6875 
L 18.109375 54.6875 
L 18.109375 46.1875 
Q 21.34375 51.125 25.703125 53.5625 
Q 30.078125 56 35.796875 56 
Q 45.21875 56 50.046875 50.171875 
Q 54.890625 44.34375 54.890625 33.015625 
z
" id="DejaVuSans-110"/>
      <path d="M 9.8125 72.90625 
L 19.671875 72.90625 
L 19.671875 43.015625 
L 55.515625 43.015625 
L 55.515625 72.90625 
L 65.375 72.90625 
L 65.375 0 
L 55.515625 0 
L 55.515625 34.71875 
L 19.671875 34.71875 
L 19.671875 0 
L 9.8125 0 
z
" id="DejaVuSans-72"/>
      <path d="M 9.421875 54.6875 
L 18.40625 54.6875 
L 18.40625 0 
L 9.421875 0 
z
M 9.421875 75.984375 
L 18.40625 75.984375 
L 18.40625 64.59375 
L 9.421875 64.59375 
z
" id="DejaVuSans-105"/>
      <path d="M 18.3125 70.21875 
L 18.3125 54.6875 
L 36.8125 54.6875 
L 36.8125 47.703125 
L 18.3125 47.703125 
L 18.3125 18.015625 
Q 18.3125 11.328125 20.140625 9.421875 
Q 21.96875 7.515625 27.59375 7.515625 
L 36.8125 7.515625 
L 36.8125 0 
L 27.59375 0 
Q 17.1875 0 13.234375 3.875 
Q 9.28125 7.765625 9.28125 18.015625 
L 9.28125 47.703125 
L 2.6875 47.703125 
L 2.6875 54.6875 
L 9.28125 54.6875 
L 9.28125 70.21875 
z
" id="DejaVuSans-116"/>
      <path d="M 44.28125 53.078125 
L 44.28125 44.578125 
Q 40.484375 46.53125 36.375 47.5 
Q 32.28125 48.484375 27.875 48.484375 
Q 21.1875 48.484375 17.84375 46.4375 
Q 14.5 44.390625 14.5 40.28125 
Q 14.5 37.15625 16.890625 35.375 
Q 19.28125 33.59375 26.515625 31.984375 
L 29.59375 31.296875 
Q 39.15625 29.25 43.1875 25.515625 
Q 47.21875 21.78125 47.21875 15.09375 
Q 47.21875 7.46875 41.1875 3.015625 
Q 35.15625 -1.421875 24.609375 -1.421875 
Q 20.21875 -1.421875 15.453125 -0.5625 
Q 10.6875 0.296875 5.421875 2 
L 5.421875 11.28125 
Q 10.40625 8.6875 15.234375 7.390625 
Q 20.0625 6.109375 24.8125 6.109375 
Q 31.15625 6.109375 34.5625 8.28125 
Q 37.984375 10.453125 37.984375 14.40625 
Q 37.984375 18.0625 35.515625 20.015625 
Q 33.0625 21.96875 24.703125 23.78125 
L 21.578125 24.515625 
Q 13.234375 26.265625 9.515625 29.90625 
Q 5.8125 33.546875 5.8125 39.890625 
Q 5.8125 47.609375 11.28125 51.796875 
Q 16.75 56 26.8125 56 
Q 31.78125 56 36.171875 55.265625 
Q 40.578125 54.546875 44.28125 53.078125 
z
" id="DejaVuSans-115"/>
      <path d="M 3.328125 72.90625 
L 13.28125 72.90625 
L 28.609375 11.28125 
L 43.890625 72.90625 
L 54.984375 72.90625 
L 70.3125 11.28125 
L 85.59375 72.90625 
L 95.609375 72.90625 
L 77.296875 0 
L 64.890625 0 
L 49.515625 63.28125 
L 33.984375 0 
L 21.578125 0 
z
" id="DejaVuSans-87"/>
     </defs>
     <g transform="translate(322.79355 357.69595)scale(0.2592 -0.2592)">
      <use xlink:href="#DejaVuSans-110"/>
      <use x="63.378906" xlink:href="#DejaVuSans-72"/>
      <use x="138.574219" xlink:href="#DejaVuSans-105"/>
      <use x="166.357422" xlink:href="#DejaVuSans-116"/>
      <use x="205.566406" xlink:href="#DejaVuSans-115"/>
      <use x="257.666016" xlink:href="#DejaVuSans-87"/>
     </g>
    </g>
   </g>
   <g id="matplotlib.axis_2">
    <g id="ytick_1">
     <g id="line2d_9">
      <defs>
       <path d="M 0 0 
L -3.5 0 
" id="mbbaf95cd42" style="stroke:#000000;stroke-width:0.8;"/>
      </defs>
      <g>
       <use style="stroke:#000000;stroke-width:0.8;" x="90" xlink:href="#mbbaf95cd42" y="334.0008"/>
      </g>
     </g>
     <g id="text_2">
      <!-- 0.0 -->
      <defs>
       <path d="M 31.78125 66.40625 
Q 24.171875 66.40625 20.328125 58.90625 
Q 16.5 51.421875 16.5 36.375 
Q 16.5 21.390625 20.328125 13.890625 
Q 24.171875 6.390625 31.78125 6.390625 
Q 39.453125 6.390625 43.28125 13.890625 
Q 47.125 21.390625 47.125 36.375 
Q 47.125 51.421875 43.28125 58.90625 
Q 39.453125 66.40625 31.78125 66.40625 
z
M 31.78125 74.21875 
Q 44.046875 74.21875 50.515625 64.515625 
Q 56.984375 54.828125 56.984375 36.375 
Q 56.984375 17.96875 50.515625 8.265625 
Q 44.046875 -1.421875 31.78125 -1.421875 
Q 19.53125 -1.421875 13.0625 8.265625 
Q 6.59375 17.96875 6.59375 36.375 
Q 6.59375 54.828125 13.0625 64.515625 
Q 19.53125 74.21875 31.78125 74.21875 
z
" id="DejaVuSans-48"/>
       <path d="M 10.6875 12.40625 
L 21 12.40625 
L 21 0 
L 10.6875 0 
z
" id="DejaVuSans-46"/>
      </defs>
      <g transform="translate(41.7791 343.848375)scale(0.2592 -0.2592)">
       <use xlink:href="#DejaVuSans-48"/>
       <use x="63.623047" xlink:href="#DejaVuSans-46"/>
       <use x="95.410156" xlink:href="#DejaVuSans-48"/>
      </g>
     </g>
    </g>
    <g id="ytick_2">
     <g id="line2d_10">
      <g>
       <use style="stroke:#000000;stroke-width:0.8;" x="90" xlink:href="#mbbaf95cd42" y="210.870107"/>
      </g>
     </g>
     <g id="text_3">
      <!-- 0.5 -->
      <defs>
       <path d="M 10.796875 72.90625 
L 49.515625 72.90625 
L 49.515625 64.59375 
L 19.828125 64.59375 
L 19.828125 46.734375 
Q 21.96875 47.46875 24.109375 47.828125 
Q 26.265625 48.1875 28.421875 48.1875 
Q 40.625 48.1875 47.75 41.5 
Q 54.890625 34.8125 54.890625 23.390625 
Q 54.890625 11.625 47.5625 5.09375 
Q 40.234375 -1.421875 26.90625 -1.421875 
Q 22.3125 -1.421875 17.546875 -0.640625 
Q 12.796875 0.140625 7.71875 1.703125 
L 7.71875 11.625 
Q 12.109375 9.234375 16.796875 8.0625 
Q 21.484375 6.890625 26.703125 6.890625 
Q 35.15625 6.890625 40.078125 11.328125 
Q 45.015625 15.765625 45.015625 23.390625 
Q 45.015625 31 40.078125 35.4375 
Q 35.15625 39.890625 26.703125 39.890625 
Q 22.75 39.890625 18.8125 39.015625 
Q 14.890625 38.140625 10.796875 36.28125 
z
" id="DejaVuSans-53"/>
      </defs>
      <g transform="translate(41.7791 220.717682)scale(0.2592 -0.2592)">
       <use xlink:href="#DejaVuSans-48"/>
       <use x="63.623047" xlink:href="#DejaVuSans-46"/>
       <use x="95.410156" xlink:href="#DejaVuSans-53"/>
      </g>
     </g>
    </g>
    <g id="ytick_3">
     <g id="line2d_11">
      <g>
       <use style="stroke:#000000;stroke-width:0.8;" x="90" xlink:href="#mbbaf95cd42" y="87.739414"/>
      </g>
     </g>
     <g id="text_4">
      <!-- 1.0 -->
      <defs>
       <path d="M 12.40625 8.296875 
L 28.515625 8.296875 
L 28.515625 63.921875 
L 10.984375 60.40625 
L 10.984375 69.390625 
L 28.421875 72.90625 
L 38.28125 72.90625 
L 38.28125 8.296875 
L 54.390625 8.296875 
L 54.390625 0 
L 12.40625 0 
z
" id="DejaVuSans-49"/>
      </defs>
      <g transform="translate(41.7791 97.586989)scale(0.2592 -0.2592)">
       <use xlink:href="#DejaVuSans-49"/>
       <use x="63.623047" xlink:href="#DejaVuSans-46"/>
       <use x="95.410156" xlink:href="#DejaVuSans-48"/>
      </g>
     </g>
    </g>
    <g id="text_5">
     <!-- Fraction -->
     <defs>
      <path d="M 9.8125 72.90625 
L 51.703125 72.90625 
L 51.703125 64.59375 
L 19.671875 64.59375 
L 19.671875 43.109375 
L 48.578125 43.109375 
L 48.578125 34.8125 
L 19.671875 34.8125 
L 19.671875 0 
L 9.8125 0 
z
" id="DejaVuSans-70"/>
      <path d="M 41.109375 46.296875 
Q 39.59375 47.171875 37.8125 47.578125 
Q 36.03125 48 33.890625 48 
Q 26.265625 48 22.1875 43.046875 
Q 18.109375 38.09375 18.109375 28.8125 
L 18.109375 0 
L 9.078125 0 
L 9.078125 54.6875 
L 18.109375 54.6875 
L 18.109375 46.1875 
Q 20.953125 51.171875 25.484375 53.578125 
Q 30.03125 56 36.53125 56 
Q 37.453125 56 38.578125 55.875 
Q 39.703125 55.765625 41.0625 55.515625 
z
" id="DejaVuSans-114"/>
      <path d="M 34.28125 27.484375 
Q 23.390625 27.484375 19.1875 25 
Q 14.984375 22.515625 14.984375 16.5 
Q 14.984375 11.71875 18.140625 8.90625 
Q 21.296875 6.109375 26.703125 6.109375 
Q 34.1875 6.109375 38.703125 11.40625 
Q 43.21875 16.703125 43.21875 25.484375 
L 43.21875 27.484375 
z
M 52.203125 31.203125 
L 52.203125 0 
L 43.21875 0 
L 43.21875 8.296875 
Q 40.140625 3.328125 35.546875 0.953125 
Q 30.953125 -1.421875 24.3125 -1.421875 
Q 15.921875 -1.421875 10.953125 3.296875 
Q 6 8.015625 6 15.921875 
Q 6 25.140625 12.171875 29.828125 
Q 18.359375 34.515625 30.609375 34.515625 
L 43.21875 34.515625 
L 43.21875 35.40625 
Q 43.21875 41.609375 39.140625 45 
Q 35.0625 48.390625 27.6875 48.390625 
Q 23 48.390625 18.546875 47.265625 
Q 14.109375 46.140625 10.015625 43.890625 
L 10.015625 52.203125 
Q 14.9375 54.109375 19.578125 55.046875 
Q 24.21875 56 28.609375 56 
Q 40.484375 56 46.34375 49.84375 
Q 52.203125 43.703125 52.203125 31.203125 
z
" id="DejaVuSans-97"/>
      <path d="M 48.78125 52.59375 
L 48.78125 44.1875 
Q 44.96875 46.296875 41.140625 47.34375 
Q 37.3125 48.390625 33.40625 48.390625 
Q 24.65625 48.390625 19.8125 42.84375 
Q 14.984375 37.3125 14.984375 27.296875 
Q 14.984375 17.28125 19.8125 11.734375 
Q 24.65625 6.203125 33.40625 6.203125 
Q 37.3125 6.203125 41.140625 7.25 
Q 44.96875 8.296875 48.78125 10.40625 
L 48.78125 2.09375 
Q 45.015625 0.34375 40.984375 -0.53125 
Q 36.96875 -1.421875 32.421875 -1.421875 
Q 20.0625 -1.421875 12.78125 6.34375 
Q 5.515625 14.109375 5.515625 27.296875 
Q 5.515625 40.671875 12.859375 48.328125 
Q 20.21875 56 33.015625 56 
Q 37.15625 56 41.109375 55.140625 
Q 45.0625 54.296875 48.78125 52.59375 
z
" id="DejaVuSans-99"/>
      <path d="M 30.609375 48.390625 
Q 23.390625 48.390625 19.1875 42.75 
Q 14.984375 37.109375 14.984375 27.296875 
Q 14.984375 17.484375 19.15625 11.84375 
Q 23.34375 6.203125 30.609375 6.203125 
Q 37.796875 6.203125 41.984375 11.859375 
Q 46.1875 17.53125 46.1875 27.296875 
Q 46.1875 37.015625 41.984375 42.703125 
Q 37.796875 48.390625 30.609375 48.390625 
z
M 30.609375 56 
Q 42.328125 56 49.015625 48.375 
Q 55.71875 40.765625 55.71875 27.296875 
Q 55.71875 13.875 49.015625 6.21875 
Q 42.328125 -1.421875 30.609375 -1.421875 
Q 18.84375 -1.421875 12.171875 6.21875 
Q 5.515625 13.875 5.515625 27.296875 
Q 5.515625 40.765625 12.171875 48.375 
Q 18.84375 56 30.609375 56 
z
" id="DejaVuSans-111"/>
     </defs>
     <g transform="translate(32.38855 262.298925)rotate(-90)scale(0.2592 -0.2592)">
      <use xlink:href="#DejaVuSans-70"/>
      <use x="57.410156" xlink:href="#DejaVuSans-114"/>
      <use x="98.523438" xlink:href="#DejaVuSans-97"/>
      <use x="159.802734" xlink:href="#DejaVuSans-99"/>
      <use x="214.783203" xlink:href="#DejaVuSans-116"/>
      <use x="253.992188" xlink:href="#DejaVuSans-105"/>
      <use x="281.775391" xlink:href="#DejaVuSans-111"/>
      <use x="342.957031" xlink:href="#DejaVuSans-110"/>
     </g>
    </g>
   </g>
   <g id="LineCollection_1">
    <path clip-path="url(#p3e51de47ea)" d="M 111.461538 133.289022 
L 111.461538 123.293855 
" style="fill:none;stroke:#008000;stroke-width:1.5;"/>
    <path clip-path="url(#p3e51de47ea)" d="M 125.769231 130.284069 
L 125.769231 122.578188 
" style="fill:none;stroke:#008000;stroke-width:1.5;"/>
    <path clip-path="url(#p3e51de47ea)" d="M 140.076923 134.667642 
L 140.076923 126.663779 
" style="fill:none;stroke:#008000;stroke-width:1.5;"/>
    <path clip-path="url(#p3e51de47ea)" d="M 154.384615 130.755727 
L 154.384615 122.886371 
" style="fill:none;stroke:#008000;stroke-width:1.5;"/>
    <path clip-path="url(#p3e51de47ea)" d="M 168.692308 136.664563 
L 168.692308 127.772123 
" style="fill:none;stroke:#008000;stroke-width:1.5;"/>
    <path clip-path="url(#p3e51de47ea)" d="M 183 136.631501 
L 183 128.028405 
" style="fill:none;stroke:#008000;stroke-width:1.5;"/>
    <path clip-path="url(#p3e51de47ea)" d="M 197.307692 139.361191 
L 197.307692 129.757768 
" style="fill:none;stroke:#008000;stroke-width:1.5;"/>
    <path clip-path="url(#p3e51de47ea)" d="M 211.615385 146.704531 
L 211.615385 135.904956 
" style="fill:none;stroke:#008000;stroke-width:1.5;"/>
    <path clip-path="url(#p3e51de47ea)" d="M 225.923077 151.533454 
L 225.923077 140.174937 
" style="fill:none;stroke:#008000;stroke-width:1.5;"/>
    <path clip-path="url(#p3e51de47ea)" d="M 240.230769 172.534846 
L 240.230769 158.573854 
" style="fill:none;stroke:#008000;stroke-width:1.5;"/>
    <path clip-path="url(#p3e51de47ea)" d="M 254.538462 181.129388 
L 254.538462 165.661708 
" style="fill:none;stroke:#008000;stroke-width:1.5;"/>
    <path clip-path="url(#p3e51de47ea)" d="M 268.846154 185.496804 
L 268.846154 169.859905 
" style="fill:none;stroke:#008000;stroke-width:1.5;"/>
    <path clip-path="url(#p3e51de47ea)" d="M 283.153846 178.741009 
L 283.153846 161.785344 
" style="fill:none;stroke:#008000;stroke-width:1.5;"/>
    <path clip-path="url(#p3e51de47ea)" d="M 297.461538 199.027419 
L 297.461538 180.736423 
" style="fill:none;stroke:#008000;stroke-width:1.5;"/>
    <path clip-path="url(#p3e51de47ea)" d="M 311.769231 204.259264 
L 311.769231 184.202384 
" style="fill:none;stroke:#008000;stroke-width:1.5;"/>
    <path clip-path="url(#p3e51de47ea)" d="M 326.076923 227.66748 
L 326.076923 206.655432 
" style="fill:none;stroke:#008000;stroke-width:1.5;"/>
    <path clip-path="url(#p3e51de47ea)" d="M 340.384615 225.313569 
L 340.384615 203.889111 
" style="fill:none;stroke:#008000;stroke-width:1.5;"/>
    <path clip-path="url(#p3e51de47ea)" d="M 354.692308 223.849222 
L 354.692308 197.890992 
" style="fill:none;stroke:#008000;stroke-width:1.5;"/>
    <path clip-path="url(#p3e51de47ea)" d="M 369 242.342041 
L 369 213.601143 
" style="fill:none;stroke:#008000;stroke-width:1.5;"/>
    <path clip-path="url(#p3e51de47ea)" d="M 383.307692 244.745473 
L 383.307692 212.174939 
" style="fill:none;stroke:#008000;stroke-width:1.5;"/>
    <path clip-path="url(#p3e51de47ea)" d="M 397.615385 245.495403 
L 397.615385 213.810107 
" style="fill:none;stroke:#008000;stroke-width:1.5;"/>
    <path clip-path="url(#p3e51de47ea)" d="M 411.923077 260.521117 
L 411.923077 224.216195 
" style="fill:none;stroke:#008000;stroke-width:1.5;"/>
    <path clip-path="url(#p3e51de47ea)" d="M 426.230769 286.505357 
L 426.230769 245.627892 
" style="fill:none;stroke:#008000;stroke-width:1.5;"/>
    <path clip-path="url(#p3e51de47ea)" d="M 440.538462 298.97921 
L 440.538462 259.572885 
" style="fill:none;stroke:#008000;stroke-width:1.5;"/>
    <path clip-path="url(#p3e51de47ea)" d="M 454.846154 262.472829 
L 454.846154 208.519662 
" style="fill:none;stroke:#008000;stroke-width:1.5;"/>
    <path clip-path="url(#p3e51de47ea)" d="M 469.153846 319.84267 
L 469.153846 286.593583 
" style="fill:none;stroke:#008000;stroke-width:1.5;"/>
    <path clip-path="url(#p3e51de47ea)" d="M 483.461538 311.856507 
L 483.461538 263.797073 
" style="fill:none;stroke:#008000;stroke-width:1.5;"/>
    <path clip-path="url(#p3e51de47ea)" d="M 497.769231 315.898398 
L 497.769231 253.598648 
" style="fill:none;stroke:#008000;stroke-width:1.5;"/>
    <path clip-path="url(#p3e51de47ea)" d="M 512.076923 319.450743 
L 512.076923 266.463729 
" style="fill:none;stroke:#008000;stroke-width:1.5;"/>
    <path clip-path="url(#p3e51de47ea)" d="M 526.384615 334.0008 
L 526.384615 334.0008 
" style="fill:none;stroke:#008000;stroke-width:1.5;"/>
    <path clip-path="url(#p3e51de47ea)" d="M 540.692308 272.435453 
L 540.692308 149.30476 
" style="fill:none;stroke:#008000;stroke-width:1.5;"/>
    <path clip-path="url(#p3e51de47ea)" d="M 555 334.0008 
L 555 334.0008 
" style="fill:none;stroke:#008000;stroke-width:1.5;"/>
    <path clip-path="url(#p3e51de47ea)" d="M 569.307692 334.0008 
L 569.307692 334.0008 
" style="fill:none;stroke:#008000;stroke-width:1.5;"/>
    <path clip-path="url(#p3e51de47ea)" d="M 583.615385 334.0008 
L 583.615385 334.0008 
" style="fill:none;stroke:#008000;stroke-width:1.5;"/>
    <path clip-path="url(#p3e51de47ea)" d="M 597.923077 334.0008 
L 597.923077 334.0008 
" style="fill:none;stroke:#008000;stroke-width:1.5;"/>
    <path clip-path="url(#p3e51de47ea)" d="M 612.230769 334.0008 
L 612.230769 334.0008 
" style="fill:none;stroke:#008000;stroke-width:1.5;"/>
   </g>
   <g id="LineCollection_2">
    <path clip-path="url(#p3e51de47ea)" d="M 111.461538 138.170778 
L 111.461538 130.371946 
" style="fill:none;stroke:#ff0000;stroke-width:1.5;"/>
    <path clip-path="url(#p3e51de47ea)" d="M 125.769231 130.166813 
L 125.769231 124.224503 
" style="fill:none;stroke:#ff0000;stroke-width:1.5;"/>
    <path clip-path="url(#p3e51de47ea)" d="M 140.076923 131.081978 
L 140.076923 124.958196 
" style="fill:none;stroke:#ff0000;stroke-width:1.5;"/>
    <path clip-path="url(#p3e51de47ea)" d="M 154.384615 124.129107 
L 154.384615 118.116069 
" style="fill:none;stroke:#ff0000;stroke-width:1.5;"/>
    <path clip-path="url(#p3e51de47ea)" d="M 168.692308 130.189158 
L 168.692308 123.291013 
" style="fill:none;stroke:#ff0000;stroke-width:1.5;"/>
    <path clip-path="url(#p3e51de47ea)" d="M 183 129.208072 
L 183 122.606557 
" style="fill:none;stroke:#ff0000;stroke-width:1.5;"/>
    <path clip-path="url(#p3e51de47ea)" d="M 197.307692 131.169548 
L 197.307692 123.667169 
" style="fill:none;stroke:#ff0000;stroke-width:1.5;"/>
    <path clip-path="url(#p3e51de47ea)" d="M 211.615385 133.32955 
L 211.615385 124.97593 
" style="fill:none;stroke:#ff0000;stroke-width:1.5;"/>
    <path clip-path="url(#p3e51de47ea)" d="M 225.923077 136.603216 
L 225.923077 127.716745 
" style="fill:none;stroke:#ff0000;stroke-width:1.5;"/>
    <path clip-path="url(#p3e51de47ea)" d="M 240.230769 138.127693 
L 240.230769 127.099729 
" style="fill:none;stroke:#ff0000;stroke-width:1.5;"/>
    <path clip-path="url(#p3e51de47ea)" d="M 254.538462 139.478383 
L 254.538462 127.010088 
" style="fill:none;stroke:#ff0000;stroke-width:1.5;"/>
    <path clip-path="url(#p3e51de47ea)" d="M 268.846154 136.000344 
L 268.846154 123.431229 
" style="fill:none;stroke:#ff0000;stroke-width:1.5;"/>
    <path clip-path="url(#p3e51de47ea)" d="M 283.153846 135.597636 
L 283.153846 121.96832 
" style="fill:none;stroke:#ff0000;stroke-width:1.5;"/>
    <path clip-path="url(#p3e51de47ea)" d="M 297.461538 137.146565 
L 297.461538 121.743378 
" style="fill:none;stroke:#ff0000;stroke-width:1.5;"/>
    <path clip-path="url(#p3e51de47ea)" d="M 311.769231 135.643672 
L 311.769231 118.6388 
" style="fill:none;stroke:#ff0000;stroke-width:1.5;"/>
    <path clip-path="url(#p3e51de47ea)" d="M 326.076923 138.770928 
L 326.076923 118.795028 
" style="fill:none;stroke:#ff0000;stroke-width:1.5;"/>
    <path clip-path="url(#p3e51de47ea)" d="M 340.384615 120.635099 
L 340.384615 103.402312 
" style="fill:none;stroke:#ff0000;stroke-width:1.5;"/>
    <path clip-path="url(#p3e51de47ea)" d="M 354.692308 155.787082 
L 354.692308 130.084781 
" style="fill:none;stroke:#ff0000;stroke-width:1.5;"/>
    <path clip-path="url(#p3e51de47ea)" d="M 369 129.265255 
L 369 102.50189 
" style="fill:none;stroke:#ff0000;stroke-width:1.5;"/>
    <path clip-path="url(#p3e51de47ea)" d="M 383.307692 154.962258 
L 383.307692 119.021124 
" style="fill:none;stroke:#ff0000;stroke-width:1.5;"/>
    <path clip-path="url(#p3e51de47ea)" d="M 397.615385 152.817735 
L 397.615385 117.98808 
" style="fill:none;stroke:#ff0000;stroke-width:1.5;"/>
    <path clip-path="url(#p3e51de47ea)" d="M 411.923077 134.062809 
L 411.923077 96.140771 
" style="fill:none;stroke:#ff0000;stroke-width:1.5;"/>
    <path clip-path="url(#p3e51de47ea)" d="M 426.230769 170.482983 
L 426.230769 103.500399 
" style="fill:none;stroke:#ff0000;stroke-width:1.5;"/>
    <path clip-path="url(#p3e51de47ea)" d="M 440.538462 190.606974 
L 440.538462 108.002547 
" style="fill:none;stroke:#ff0000;stroke-width:1.5;"/>
    <path clip-path="url(#p3e51de47ea)" d="M 454.846154 189.620794 
L 454.846154 120.182426 
" style="fill:none;stroke:#ff0000;stroke-width:1.5;"/>
    <path clip-path="url(#p3e51de47ea)" d="M 469.153846 248.54183 
L 469.153846 123.946106 
" style="fill:none;stroke:#ff0000;stroke-width:1.5;"/>
    <path clip-path="url(#p3e51de47ea)" d="M 483.461538 212.75587 
L 483.461538 85.853651 
" style="fill:none;stroke:#ff0000;stroke-width:1.5;"/>
    <path clip-path="url(#p3e51de47ea)" d="M 497.769231 87.739414 
L 497.769231 87.739414 
" style="fill:none;stroke:#ff0000;stroke-width:1.5;"/>
    <path clip-path="url(#p3e51de47ea)" d="M 512.076923 87.739414 
L 512.076923 87.739414 
" style="fill:none;stroke:#ff0000;stroke-width:1.5;"/>
    <path clip-path="url(#p3e51de47ea)" d="M 540.692308 87.739414 
L 540.692308 87.739414 
" style="fill:none;stroke:#ff0000;stroke-width:1.5;"/>
   </g>
   <g id="LineCollection_3">
    <path clip-path="url(#p3e51de47ea)" d="M 111.461538 172.360844 
L 111.461538 161.961036 
" style="fill:none;stroke:#0000ff;stroke-width:1.5;"/>
    <path clip-path="url(#p3e51de47ea)" d="M 125.769231 163.779717 
L 125.769231 155.596579 
" style="fill:none;stroke:#0000ff;stroke-width:1.5;"/>
    <path clip-path="url(#p3e51de47ea)" d="M 140.076923 168.119778 
L 140.076923 159.730186 
" style="fill:none;stroke:#0000ff;stroke-width:1.5;"/>
    <path clip-path="url(#p3e51de47ea)" d="M 154.384615 159.14502 
L 154.384615 150.667619 
" style="fill:none;stroke:#0000ff;stroke-width:1.5;"/>
    <path clip-path="url(#p3e51de47ea)" d="M 168.692308 168.864188 
L 168.692308 159.485493 
" style="fill:none;stroke:#0000ff;stroke-width:1.5;"/>
    <path clip-path="url(#p3e51de47ea)" d="M 183 168.116568 
L 183 159.057019 
" style="fill:none;stroke:#0000ff;stroke-width:1.5;"/>
    <path clip-path="url(#p3e51de47ea)" d="M 197.307692 171.739772 
L 197.307692 161.649281 
" style="fill:none;stroke:#0000ff;stroke-width:1.5;"/>
    <path clip-path="url(#p3e51de47ea)" d="M 211.615385 179.265017 
L 211.615385 168.155156 
" style="fill:none;stroke:#0000ff;stroke-width:1.5;"/>
    <path clip-path="url(#p3e51de47ea)" d="M 225.923077 185.553228 
L 225.923077 174.030837 
" style="fill:none;stroke:#0000ff;stroke-width:1.5;"/>
    <path clip-path="url(#p3e51de47ea)" d="M 240.230769 203.090982 
L 240.230769 189.407091 
" style="fill:none;stroke:#0000ff;stroke-width:1.5;"/>
    <path clip-path="url(#p3e51de47ea)" d="M 254.538462 210.574627 
L 254.538462 195.570584 
" style="fill:none;stroke:#0000ff;stroke-width:1.5;"/>
    <path clip-path="url(#p3e51de47ea)" d="M 268.846154 211.938674 
L 268.846154 196.709779 
" style="fill:none;stroke:#0000ff;stroke-width:1.5;"/>
    <path clip-path="url(#p3e51de47ea)" d="M 283.153846 205.945778 
L 283.153846 189.159782 
" style="fill:none;stroke:#0000ff;stroke-width:1.5;"/>
    <path clip-path="url(#p3e51de47ea)" d="M 297.461538 223.122269 
L 297.461538 205.456031 
" style="fill:none;stroke:#0000ff;stroke-width:1.5;"/>
    <path clip-path="url(#p3e51de47ea)" d="M 311.769231 226.302231 
L 311.769231 206.885809 
" style="fill:none;stroke:#0000ff;stroke-width:1.5;"/>
    <path clip-path="url(#p3e51de47ea)" d="M 326.076923 246.589914 
L 326.076923 226.679446 
" style="fill:none;stroke:#0000ff;stroke-width:1.5;"/>
    <path clip-path="url(#p3e51de47ea)" d="M 340.384615 236.894186 
L 340.384615 215.85205 
" style="fill:none;stroke:#0000ff;stroke-width:1.5;"/>
    <path clip-path="url(#p3e51de47ea)" d="M 354.692308 250.413782 
L 354.692308 226.522949 
" style="fill:none;stroke:#0000ff;stroke-width:1.5;"/>
    <path clip-path="url(#p3e51de47ea)" d="M 369 254.060629 
L 369 226.117803 
" style="fill:none;stroke:#0000ff;stroke-width:1.5;"/>
    <path clip-path="url(#p3e51de47ea)" d="M 383.307692 264.702726 
L 383.307692 234.433924 
" style="fill:none;stroke:#0000ff;stroke-width:1.5;"/>
    <path clip-path="url(#p3e51de47ea)" d="M 397.615385 264.603358 
L 397.615385 235.094943 
" style="fill:none;stroke:#0000ff;stroke-width:1.5;"/>
    <path clip-path="url(#p3e51de47ea)" d="M 411.923077 270.160564 
L 411.923077 234.939447 
" style="fill:none;stroke:#0000ff;stroke-width:1.5;"/>
    <path clip-path="url(#p3e51de47ea)" d="M 426.230769 298.434126 
L 426.230769 260.872793 
" style="fill:none;stroke:#0000ff;stroke-width:1.5;"/>
    <path clip-path="url(#p3e51de47ea)" d="M 440.538462 310.352964 
L 440.538462 275.561507 
" style="fill:none;stroke:#0000ff;stroke-width:1.5;"/>
    <path clip-path="url(#p3e51de47ea)" d="M 454.846154 286.398298 
L 454.846154 238.32395 
" style="fill:none;stroke:#0000ff;stroke-width:1.5;"/>
    <path clip-path="url(#p3e51de47ea)" d="M 469.153846 328.185688 
L 469.153846 302.876704 
" style="fill:none;stroke:#0000ff;stroke-width:1.5;"/>
    <path clip-path="url(#p3e51de47ea)" d="M 483.461538 320.965279 
L 483.461538 277.775306 
" style="fill:none;stroke:#0000ff;stroke-width:1.5;"/>
    <path clip-path="url(#p3e51de47ea)" d="M 497.769231 315.898398 
L 497.769231 253.598648 
" style="fill:none;stroke:#0000ff;stroke-width:1.5;"/>
    <path clip-path="url(#p3e51de47ea)" d="M 512.076923 319.450743 
L 512.076923 266.463729 
" style="fill:none;stroke:#0000ff;stroke-width:1.5;"/>
    <path clip-path="url(#p3e51de47ea)" d="M 540.692308 272.435453 
L 540.692308 149.30476 
" style="fill:none;stroke:#0000ff;stroke-width:1.5;"/>
   </g>
   <g id="line2d_12">
    <path clip-path="url(#p3e51de47ea)" d="M 104.307692 128.291439 
L 118.615385 128.291439 
L 118.615385 126.431129 
L 132.923077 126.431129 
L 132.923077 130.665711 
L 147.230769 130.665711 
L 147.230769 126.821049 
L 161.538462 126.821049 
L 161.538462 132.218343 
L 175.846154 132.218343 
L 175.846154 132.329953 
L 190.153846 132.329953 
L 190.153846 134.55948 
L 204.461538 134.55948 
L 204.461538 141.304744 
L 218.769231 141.304744 
L 218.769231 145.854195 
L 233.076923 145.854195 
L 233.076923 165.55435 
L 247.384615 165.55435 
L 247.384615 173.395548 
L 261.692308 173.395548 
L 261.692308 177.678355 
L 276 177.678355 
L 276 170.263176 
L 290.307692 170.263176 
L 290.307692 189.881921 
L 304.615385 189.881921 
L 304.615385 194.230824 
L 318.923077 194.230824 
L 318.923077 217.161456 
L 333.230769 217.161456 
L 333.230769 214.60134 
L 347.538462 214.60134 
L 347.538462 210.870107 
L 361.846154 210.870107 
L 361.846154 227.971592 
L 376.153846 227.971592 
L 376.153846 228.460206 
L 390.461538 228.460206 
L 390.461538 229.652755 
L 404.769231 229.652755 
L 404.769231 242.368656 
L 419.076923 242.368656 
L 419.076923 266.066625 
L 433.384615 266.066625 
L 433.384615 279.276048 
L 447.692308 279.276048 
L 447.692308 235.496246 
L 462 235.496246 
L 462 303.218127 
L 476.307692 303.218127 
L 476.307692 287.82679 
L 490.615385 287.82679 
L 490.615385 284.748523 
L 504.923077 284.748523 
L 504.923077 292.957236 
L 519.230769 292.957236 
L 519.230769 334.0008 
L 533.538462 334.0008 
L 533.538462 210.870107 
L 547.846154 210.870107 
L 547.846154 334.0008 
L 562.153846 334.0008 
L 562.153846 334.0008 
L 576.461538 334.0008 
L 576.461538 334.0008 
L 590.769231 334.0008 
L 590.769231 334.0008 
L 605.076923 334.0008 
L 605.076923 334.0008 
L 619.384615 334.0008 
" style="fill:none;stroke:#008000;stroke-linecap:square;stroke-width:1.5;"/>
   </g>
   <g id="line2d_13">
    <defs>
     <path d="M 2 0 
L -2 -0 
" id="m57a31eb27a" style="stroke:#008000;"/>
    </defs>
    <g clip-path="url(#p3e51de47ea)">
     <use style="fill:#008000;stroke:#008000;" x="111.461538" xlink:href="#m57a31eb27a" y="133.289022"/>
     <use style="fill:#008000;stroke:#008000;" x="125.769231" xlink:href="#m57a31eb27a" y="130.284069"/>
     <use style="fill:#008000;stroke:#008000;" x="140.076923" xlink:href="#m57a31eb27a" y="134.667642"/>
     <use style="fill:#008000;stroke:#008000;" x="154.384615" xlink:href="#m57a31eb27a" y="130.755727"/>
     <use style="fill:#008000;stroke:#008000;" x="168.692308" xlink:href="#m57a31eb27a" y="136.664563"/>
     <use style="fill:#008000;stroke:#008000;" x="183" xlink:href="#m57a31eb27a" y="136.631501"/>
     <use style="fill:#008000;stroke:#008000;" x="197.307692" xlink:href="#m57a31eb27a" y="139.361191"/>
     <use style="fill:#008000;stroke:#008000;" x="211.615385" xlink:href="#m57a31eb27a" y="146.704531"/>
     <use style="fill:#008000;stroke:#008000;" x="225.923077" xlink:href="#m57a31eb27a" y="151.533454"/>
     <use style="fill:#008000;stroke:#008000;" x="240.230769" xlink:href="#m57a31eb27a" y="172.534846"/>
     <use style="fill:#008000;stroke:#008000;" x="254.538462" xlink:href="#m57a31eb27a" y="181.129388"/>
     <use style="fill:#008000;stroke:#008000;" x="268.846154" xlink:href="#m57a31eb27a" y="185.496804"/>
     <use style="fill:#008000;stroke:#008000;" x="283.153846" xlink:href="#m57a31eb27a" y="178.741009"/>
     <use style="fill:#008000;stroke:#008000;" x="297.461538" xlink:href="#m57a31eb27a" y="199.027419"/>
     <use style="fill:#008000;stroke:#008000;" x="311.769231" xlink:href="#m57a31eb27a" y="204.259264"/>
     <use style="fill:#008000;stroke:#008000;" x="326.076923" xlink:href="#m57a31eb27a" y="227.66748"/>
     <use style="fill:#008000;stroke:#008000;" x="340.384615" xlink:href="#m57a31eb27a" y="225.313569"/>
     <use style="fill:#008000;stroke:#008000;" x="354.692308" xlink:href="#m57a31eb27a" y="223.849222"/>
     <use style="fill:#008000;stroke:#008000;" x="369" xlink:href="#m57a31eb27a" y="242.342041"/>
     <use style="fill:#008000;stroke:#008000;" x="383.307692" xlink:href="#m57a31eb27a" y="244.745473"/>
     <use style="fill:#008000;stroke:#008000;" x="397.615385" xlink:href="#m57a31eb27a" y="245.495403"/>
     <use style="fill:#008000;stroke:#008000;" x="411.923077" xlink:href="#m57a31eb27a" y="260.521117"/>
     <use style="fill:#008000;stroke:#008000;" x="426.230769" xlink:href="#m57a31eb27a" y="286.505357"/>
     <use style="fill:#008000;stroke:#008000;" x="440.538462" xlink:href="#m57a31eb27a" y="298.97921"/>
     <use style="fill:#008000;stroke:#008000;" x="454.846154" xlink:href="#m57a31eb27a" y="262.472829"/>
     <use style="fill:#008000;stroke:#008000;" x="469.153846" xlink:href="#m57a31eb27a" y="319.84267"/>
     <use style="fill:#008000;stroke:#008000;" x="483.461538" xlink:href="#m57a31eb27a" y="311.856507"/>
     <use style="fill:#008000;stroke:#008000;" x="497.769231" xlink:href="#m57a31eb27a" y="315.898398"/>
     <use style="fill:#008000;stroke:#008000;" x="512.076923" xlink:href="#m57a31eb27a" y="319.450743"/>
     <use style="fill:#008000;stroke:#008000;" x="526.384615" xlink:href="#m57a31eb27a" y="334.0008"/>
     <use style="fill:#008000;stroke:#008000;" x="540.692308" xlink:href="#m57a31eb27a" y="272.435453"/>
     <use style="fill:#008000;stroke:#008000;" x="555" xlink:href="#m57a31eb27a" y="334.0008"/>
     <use style="fill:#008000;stroke:#008000;" x="569.307692" xlink:href="#m57a31eb27a" y="334.0008"/>
     <use style="fill:#008000;stroke:#008000;" x="583.615385" xlink:href="#m57a31eb27a" y="334.0008"/>
     <use style="fill:#008000;stroke:#008000;" x="597.923077" xlink:href="#m57a31eb27a" y="334.0008"/>
     <use style="fill:#008000;stroke:#008000;" x="612.230769" xlink:href="#m57a31eb27a" y="334.0008"/>
    </g>
   </g>
   <g id="line2d_14">
    <g clip-path="url(#p3e51de47ea)">
     <use style="fill:#008000;stroke:#008000;" x="111.461538" xlink:href="#m57a31eb27a" y="123.293855"/>
     <use style="fill:#008000;stroke:#008000;" x="125.769231" xlink:href="#m57a31eb27a" y="122.578188"/>
     <use style="fill:#008000;stroke:#008000;" x="140.076923" xlink:href="#m57a31eb27a" y="126.663779"/>
     <use style="fill:#008000;stroke:#008000;" x="154.384615" xlink:href="#m57a31eb27a" y="122.886371"/>
     <use style="fill:#008000;stroke:#008000;" x="168.692308" xlink:href="#m57a31eb27a" y="127.772123"/>
     <use style="fill:#008000;stroke:#008000;" x="183" xlink:href="#m57a31eb27a" y="128.028405"/>
     <use style="fill:#008000;stroke:#008000;" x="197.307692" xlink:href="#m57a31eb27a" y="129.757768"/>
     <use style="fill:#008000;stroke:#008000;" x="211.615385" xlink:href="#m57a31eb27a" y="135.904956"/>
     <use style="fill:#008000;stroke:#008000;" x="225.923077" xlink:href="#m57a31eb27a" y="140.174937"/>
     <use style="fill:#008000;stroke:#008000;" x="240.230769" xlink:href="#m57a31eb27a" y="158.573854"/>
     <use style="fill:#008000;stroke:#008000;" x="254.538462" xlink:href="#m57a31eb27a" y="165.661708"/>
     <use style="fill:#008000;stroke:#008000;" x="268.846154" xlink:href="#m57a31eb27a" y="169.859905"/>
     <use style="fill:#008000;stroke:#008000;" x="283.153846" xlink:href="#m57a31eb27a" y="161.785344"/>
     <use style="fill:#008000;stroke:#008000;" x="297.461538" xlink:href="#m57a31eb27a" y="180.736423"/>
     <use style="fill:#008000;stroke:#008000;" x="311.769231" xlink:href="#m57a31eb27a" y="184.202384"/>
     <use style="fill:#008000;stroke:#008000;" x="326.076923" xlink:href="#m57a31eb27a" y="206.655432"/>
     <use style="fill:#008000;stroke:#008000;" x="340.384615" xlink:href="#m57a31eb27a" y="203.889111"/>
     <use style="fill:#008000;stroke:#008000;" x="354.692308" xlink:href="#m57a31eb27a" y="197.890992"/>
     <use style="fill:#008000;stroke:#008000;" x="369" xlink:href="#m57a31eb27a" y="213.601143"/>
     <use style="fill:#008000;stroke:#008000;" x="383.307692" xlink:href="#m57a31eb27a" y="212.174939"/>
     <use style="fill:#008000;stroke:#008000;" x="397.615385" xlink:href="#m57a31eb27a" y="213.810107"/>
     <use style="fill:#008000;stroke:#008000;" x="411.923077" xlink:href="#m57a31eb27a" y="224.216195"/>
     <use style="fill:#008000;stroke:#008000;" x="426.230769" xlink:href="#m57a31eb27a" y="245.627892"/>
     <use style="fill:#008000;stroke:#008000;" x="440.538462" xlink:href="#m57a31eb27a" y="259.572885"/>
     <use style="fill:#008000;stroke:#008000;" x="454.846154" xlink:href="#m57a31eb27a" y="208.519662"/>
     <use style="fill:#008000;stroke:#008000;" x="469.153846" xlink:href="#m57a31eb27a" y="286.593583"/>
     <use style="fill:#008000;stroke:#008000;" x="483.461538" xlink:href="#m57a31eb27a" y="263.797073"/>
     <use style="fill:#008000;stroke:#008000;" x="497.769231" xlink:href="#m57a31eb27a" y="253.598648"/>
     <use style="fill:#008000;stroke:#008000;" x="512.076923" xlink:href="#m57a31eb27a" y="266.463729"/>
     <use style="fill:#008000;stroke:#008000;" x="526.384615" xlink:href="#m57a31eb27a" y="334.0008"/>
     <use style="fill:#008000;stroke:#008000;" x="540.692308" xlink:href="#m57a31eb27a" y="149.30476"/>
     <use style="fill:#008000;stroke:#008000;" x="555" xlink:href="#m57a31eb27a" y="334.0008"/>
     <use style="fill:#008000;stroke:#008000;" x="569.307692" xlink:href="#m57a31eb27a" y="334.0008"/>
     <use style="fill:#008000;stroke:#008000;" x="583.615385" xlink:href="#m57a31eb27a" y="334.0008"/>
     <use style="fill:#008000;stroke:#008000;" x="597.923077" xlink:href="#m57a31eb27a" y="334.0008"/>
     <use style="fill:#008000;stroke:#008000;" x="612.230769" xlink:href="#m57a31eb27a" y="334.0008"/>
    </g>
   </g>
   <g id="line2d_15">
    <path clip-path="url(#p3e51de47ea)" d="M 104.307692 134.271362 
L 118.615385 134.271362 
L 118.615385 127.195658 
L 132.923077 127.195658 
L 132.923077 128.020087 
L 147.230769 128.020087 
L 147.230769 121.122588 
L 161.538462 121.122588 
L 161.538462 126.740086 
L 175.846154 126.740086 
L 175.846154 125.907314 
L 190.153846 125.907314 
L 190.153846 127.418358 
L 204.461538 127.418358 
L 204.461538 129.15274 
L 218.769231 129.15274 
L 218.769231 132.15998 
L 233.076923 132.15998 
L 233.076923 132.613711 
L 247.384615 132.613711 
L 247.384615 133.244235 
L 261.692308 133.244235 
L 261.692308 129.715786 
L 276 129.715786 
L 276 128.782978 
L 290.307692 128.782978 
L 290.307692 129.444971 
L 304.615385 129.444971 
L 304.615385 127.141236 
L 318.923077 127.141236 
L 318.923077 128.782978 
L 333.230769 128.782978 
L 333.230769 112.018705 
L 347.538462 112.018705 
L 347.538462 142.935931 
L 361.846154 142.935931 
L 361.846154 115.883572 
L 376.153846 115.883572 
L 376.153846 136.991691 
L 390.461538 136.991691 
L 390.461538 135.402908 
L 404.769231 135.402908 
L 404.769231 115.10179 
L 419.076923 115.10179 
L 419.076923 136.991691 
L 433.384615 136.991691 
L 433.384615 149.30476 
L 447.692308 149.30476 
L 447.692308 154.90161 
L 462 154.90161 
L 462 186.243968 
L 476.307692 186.243968 
L 476.307692 149.30476 
L 490.615385 149.30476 
L 490.615385 87.739414 
L 504.923077 87.739414 
L 504.923077 87.739414 
L 519.230769 87.739414 
M 533.538462 87.739414 
L 547.846154 87.739414 
" style="fill:none;stroke:#ff0000;stroke-linecap:square;stroke-width:1.5;"/>
   </g>
   <g id="line2d_16">
    <defs>
     <path d="M 2 0 
L -2 -0 
" id="m86d719daf7" style="stroke:#ff0000;"/>
    </defs>
    <g clip-path="url(#p3e51de47ea)">
     <use style="fill:#ff0000;stroke:#ff0000;" x="111.461538" xlink:href="#m86d719daf7" y="138.170778"/>
     <use style="fill:#ff0000;stroke:#ff0000;" x="125.769231" xlink:href="#m86d719daf7" y="130.166813"/>
     <use style="fill:#ff0000;stroke:#ff0000;" x="140.076923" xlink:href="#m86d719daf7" y="131.081978"/>
     <use style="fill:#ff0000;stroke:#ff0000;" x="154.384615" xlink:href="#m86d719daf7" y="124.129107"/>
     <use style="fill:#ff0000;stroke:#ff0000;" x="168.692308" xlink:href="#m86d719daf7" y="130.189158"/>
     <use style="fill:#ff0000;stroke:#ff0000;" x="183" xlink:href="#m86d719daf7" y="129.208072"/>
     <use style="fill:#ff0000;stroke:#ff0000;" x="197.307692" xlink:href="#m86d719daf7" y="131.169548"/>
     <use style="fill:#ff0000;stroke:#ff0000;" x="211.615385" xlink:href="#m86d719daf7" y="133.32955"/>
     <use style="fill:#ff0000;stroke:#ff0000;" x="225.923077" xlink:href="#m86d719daf7" y="136.603216"/>
     <use style="fill:#ff0000;stroke:#ff0000;" x="240.230769" xlink:href="#m86d719daf7" y="138.127693"/>
     <use style="fill:#ff0000;stroke:#ff0000;" x="254.538462" xlink:href="#m86d719daf7" y="139.478383"/>
     <use style="fill:#ff0000;stroke:#ff0000;" x="268.846154" xlink:href="#m86d719daf7" y="136.000344"/>
     <use style="fill:#ff0000;stroke:#ff0000;" x="283.153846" xlink:href="#m86d719daf7" y="135.597636"/>
     <use style="fill:#ff0000;stroke:#ff0000;" x="297.461538" xlink:href="#m86d719daf7" y="137.146565"/>
     <use style="fill:#ff0000;stroke:#ff0000;" x="311.769231" xlink:href="#m86d719daf7" y="135.643672"/>
     <use style="fill:#ff0000;stroke:#ff0000;" x="326.076923" xlink:href="#m86d719daf7" y="138.770928"/>
     <use style="fill:#ff0000;stroke:#ff0000;" x="340.384615" xlink:href="#m86d719daf7" y="120.635099"/>
     <use style="fill:#ff0000;stroke:#ff0000;" x="354.692308" xlink:href="#m86d719daf7" y="155.787082"/>
     <use style="fill:#ff0000;stroke:#ff0000;" x="369" xlink:href="#m86d719daf7" y="129.265255"/>
     <use style="fill:#ff0000;stroke:#ff0000;" x="383.307692" xlink:href="#m86d719daf7" y="154.962258"/>
     <use style="fill:#ff0000;stroke:#ff0000;" x="397.615385" xlink:href="#m86d719daf7" y="152.817735"/>
     <use style="fill:#ff0000;stroke:#ff0000;" x="411.923077" xlink:href="#m86d719daf7" y="134.062809"/>
     <use style="fill:#ff0000;stroke:#ff0000;" x="426.230769" xlink:href="#m86d719daf7" y="170.482983"/>
     <use style="fill:#ff0000;stroke:#ff0000;" x="440.538462" xlink:href="#m86d719daf7" y="190.606974"/>
     <use style="fill:#ff0000;stroke:#ff0000;" x="454.846154" xlink:href="#m86d719daf7" y="189.620794"/>
     <use style="fill:#ff0000;stroke:#ff0000;" x="469.153846" xlink:href="#m86d719daf7" y="248.54183"/>
     <use style="fill:#ff0000;stroke:#ff0000;" x="483.461538" xlink:href="#m86d719daf7" y="212.75587"/>
     <use style="fill:#ff0000;stroke:#ff0000;" x="497.769231" xlink:href="#m86d719daf7" y="87.739414"/>
     <use style="fill:#ff0000;stroke:#ff0000;" x="512.076923" xlink:href="#m86d719daf7" y="87.739414"/>
     <use style="fill:#ff0000;stroke:#ff0000;" x="540.692308" xlink:href="#m86d719daf7" y="87.739414"/>
    </g>
   </g>
   <g id="line2d_17">
    <g clip-path="url(#p3e51de47ea)">
     <use style="fill:#ff0000;stroke:#ff0000;" x="111.461538" xlink:href="#m86d719daf7" y="130.371946"/>
     <use style="fill:#ff0000;stroke:#ff0000;" x="125.769231" xlink:href="#m86d719daf7" y="124.224503"/>
     <use style="fill:#ff0000;stroke:#ff0000;" x="140.076923" xlink:href="#m86d719daf7" y="124.958196"/>
     <use style="fill:#ff0000;stroke:#ff0000;" x="154.384615" xlink:href="#m86d719daf7" y="118.116069"/>
     <use style="fill:#ff0000;stroke:#ff0000;" x="168.692308" xlink:href="#m86d719daf7" y="123.291013"/>
     <use style="fill:#ff0000;stroke:#ff0000;" x="183" xlink:href="#m86d719daf7" y="122.606557"/>
     <use style="fill:#ff0000;stroke:#ff0000;" x="197.307692" xlink:href="#m86d719daf7" y="123.667169"/>
     <use style="fill:#ff0000;stroke:#ff0000;" x="211.615385" xlink:href="#m86d719daf7" y="124.97593"/>
     <use style="fill:#ff0000;stroke:#ff0000;" x="225.923077" xlink:href="#m86d719daf7" y="127.716745"/>
     <use style="fill:#ff0000;stroke:#ff0000;" x="240.230769" xlink:href="#m86d719daf7" y="127.099729"/>
     <use style="fill:#ff0000;stroke:#ff0000;" x="254.538462" xlink:href="#m86d719daf7" y="127.010088"/>
     <use style="fill:#ff0000;stroke:#ff0000;" x="268.846154" xlink:href="#m86d719daf7" y="123.431229"/>
     <use style="fill:#ff0000;stroke:#ff0000;" x="283.153846" xlink:href="#m86d719daf7" y="121.96832"/>
     <use style="fill:#ff0000;stroke:#ff0000;" x="297.461538" xlink:href="#m86d719daf7" y="121.743378"/>
     <use style="fill:#ff0000;stroke:#ff0000;" x="311.769231" xlink:href="#m86d719daf7" y="118.6388"/>
     <use style="fill:#ff0000;stroke:#ff0000;" x="326.076923" xlink:href="#m86d719daf7" y="118.795028"/>
     <use style="fill:#ff0000;stroke:#ff0000;" x="340.384615" xlink:href="#m86d719daf7" y="103.402312"/>
     <use style="fill:#ff0000;stroke:#ff0000;" x="354.692308" xlink:href="#m86d719daf7" y="130.084781"/>
     <use style="fill:#ff0000;stroke:#ff0000;" x="369" xlink:href="#m86d719daf7" y="102.50189"/>
     <use style="fill:#ff0000;stroke:#ff0000;" x="383.307692" xlink:href="#m86d719daf7" y="119.021124"/>
     <use style="fill:#ff0000;stroke:#ff0000;" x="397.615385" xlink:href="#m86d719daf7" y="117.98808"/>
     <use style="fill:#ff0000;stroke:#ff0000;" x="411.923077" xlink:href="#m86d719daf7" y="96.140771"/>
     <use style="fill:#ff0000;stroke:#ff0000;" x="426.230769" xlink:href="#m86d719daf7" y="103.500399"/>
     <use style="fill:#ff0000;stroke:#ff0000;" x="440.538462" xlink:href="#m86d719daf7" y="108.002547"/>
     <use style="fill:#ff0000;stroke:#ff0000;" x="454.846154" xlink:href="#m86d719daf7" y="120.182426"/>
     <use style="fill:#ff0000;stroke:#ff0000;" x="469.153846" xlink:href="#m86d719daf7" y="123.946106"/>
     <use style="fill:#ff0000;stroke:#ff0000;" x="483.461538" xlink:href="#m86d719daf7" y="85.853651"/>
     <use style="fill:#ff0000;stroke:#ff0000;" x="497.769231" xlink:href="#m86d719daf7" y="87.739414"/>
     <use style="fill:#ff0000;stroke:#ff0000;" x="512.076923" xlink:href="#m86d719daf7" y="87.739414"/>
     <use style="fill:#ff0000;stroke:#ff0000;" x="540.692308" xlink:href="#m86d719daf7" y="87.739414"/>
    </g>
   </g>
   <g id="line2d_18">
    <path clip-path="url(#p3e51de47ea)" d="M 104.307692 167.16094 
L 118.615385 167.16094 
L 118.615385 159.688148 
L 132.923077 159.688148 
L 132.923077 163.924982 
L 147.230769 163.924982 
L 147.230769 154.90632 
L 161.538462 154.90632 
L 161.538462 164.17484 
L 175.846154 164.17484 
L 175.846154 163.586793 
L 190.153846 163.586793 
L 190.153846 166.694526 
L 204.461538 166.694526 
L 204.461538 173.710086 
L 218.769231 173.710086 
L 218.769231 179.792032 
L 233.076923 179.792032 
L 233.076923 196.249036 
L 247.384615 196.249036 
L 247.384615 203.072606 
L 261.692308 203.072606 
L 261.692308 204.324226 
L 276 204.324226 
L 276 197.55278 
L 290.307692 197.55278 
L 290.307692 214.28915 
L 304.615385 214.28915 
L 304.615385 216.59402 
L 318.923077 216.59402 
L 318.923077 236.63468 
L 333.230769 236.63468 
L 333.230769 226.373118 
L 347.538462 226.373118 
L 347.538462 238.468366 
L 361.846154 238.468366 
L 361.846154 240.089216 
L 376.153846 240.089216 
L 376.153846 249.568325 
L 390.461538 249.568325 
L 390.461538 249.849151 
L 404.769231 249.849151 
L 404.769231 252.550006 
L 419.076923 252.550006 
L 419.076923 279.65346 
L 433.384615 279.65346 
L 433.384615 292.957236 
L 447.692308 292.957236 
L 447.692308 262.361124 
L 462 262.361124 
L 462 315.531196 
L 476.307692 315.531196 
L 476.307692 299.370293 
L 490.615385 299.370293 
L 490.615385 284.748523 
L 504.923077 284.748523 
L 504.923077 292.957236 
L 519.230769 292.957236 
M 533.538462 210.870107 
L 547.846154 210.870107 
" style="fill:none;stroke:#0000ff;stroke-linecap:square;stroke-width:1.5;"/>
   </g>
   <g id="line2d_19">
    <defs>
     <path d="M 2 0 
L -2 -0 
" id="m3cd0ae10e6" style="stroke:#0000ff;"/>
    </defs>
    <g clip-path="url(#p3e51de47ea)">
     <use style="fill:#0000ff;stroke:#0000ff;" x="111.461538" xlink:href="#m3cd0ae10e6" y="172.360844"/>
     <use style="fill:#0000ff;stroke:#0000ff;" x="125.769231" xlink:href="#m3cd0ae10e6" y="163.779717"/>
     <use style="fill:#0000ff;stroke:#0000ff;" x="140.076923" xlink:href="#m3cd0ae10e6" y="168.119778"/>
     <use style="fill:#0000ff;stroke:#0000ff;" x="154.384615" xlink:href="#m3cd0ae10e6" y="159.14502"/>
     <use style="fill:#0000ff;stroke:#0000ff;" x="168.692308" xlink:href="#m3cd0ae10e6" y="168.864188"/>
     <use style="fill:#0000ff;stroke:#0000ff;" x="183" xlink:href="#m3cd0ae10e6" y="168.116568"/>
     <use style="fill:#0000ff;stroke:#0000ff;" x="197.307692" xlink:href="#m3cd0ae10e6" y="171.739772"/>
     <use style="fill:#0000ff;stroke:#0000ff;" x="211.615385" xlink:href="#m3cd0ae10e6" y="179.265017"/>
     <use style="fill:#0000ff;stroke:#0000ff;" x="225.923077" xlink:href="#m3cd0ae10e6" y="185.553228"/>
     <use style="fill:#0000ff;stroke:#0000ff;" x="240.230769" xlink:href="#m3cd0ae10e6" y="203.090982"/>
     <use style="fill:#0000ff;stroke:#0000ff;" x="254.538462" xlink:href="#m3cd0ae10e6" y="210.574627"/>
     <use style="fill:#0000ff;stroke:#0000ff;" x="268.846154" xlink:href="#m3cd0ae10e6" y="211.938674"/>
     <use style="fill:#0000ff;stroke:#0000ff;" x="283.153846" xlink:href="#m3cd0ae10e6" y="205.945778"/>
     <use style="fill:#0000ff;stroke:#0000ff;" x="297.461538" xlink:href="#m3cd0ae10e6" y="223.122269"/>
     <use style="fill:#0000ff;stroke:#0000ff;" x="311.769231" xlink:href="#m3cd0ae10e6" y="226.302231"/>
     <use style="fill:#0000ff;stroke:#0000ff;" x="326.076923" xlink:href="#m3cd0ae10e6" y="246.589914"/>
     <use style="fill:#0000ff;stroke:#0000ff;" x="340.384615" xlink:href="#m3cd0ae10e6" y="236.894186"/>
     <use style="fill:#0000ff;stroke:#0000ff;" x="354.692308" xlink:href="#m3cd0ae10e6" y="250.413782"/>
     <use style="fill:#0000ff;stroke:#0000ff;" x="369" xlink:href="#m3cd0ae10e6" y="254.060629"/>
     <use style="fill:#0000ff;stroke:#0000ff;" x="383.307692" xlink:href="#m3cd0ae10e6" y="264.702726"/>
     <use style="fill:#0000ff;stroke:#0000ff;" x="397.615385" xlink:href="#m3cd0ae10e6" y="264.603358"/>
     <use style="fill:#0000ff;stroke:#0000ff;" x="411.923077" xlink:href="#m3cd0ae10e6" y="270.160564"/>
     <use style="fill:#0000ff;stroke:#0000ff;" x="426.230769" xlink:href="#m3cd0ae10e6" y="298.434126"/>
     <use style="fill:#0000ff;stroke:#0000ff;" x="440.538462" xlink:href="#m3cd0ae10e6" y="310.352964"/>
     <use style="fill:#0000ff;stroke:#0000ff;" x="454.846154" xlink:href="#m3cd0ae10e6" y="286.398298"/>
     <use style="fill:#0000ff;stroke:#0000ff;" x="469.153846" xlink:href="#m3cd0ae10e6" y="328.185688"/>
     <use style="fill:#0000ff;stroke:#0000ff;" x="483.461538" xlink:href="#m3cd0ae10e6" y="320.965279"/>
     <use style="fill:#0000ff;stroke:#0000ff;" x="497.769231" xlink:href="#m3cd0ae10e6" y="315.898398"/>
     <use style="fill:#0000ff;stroke:#0000ff;" x="512.076923" xlink:href="#m3cd0ae10e6" y="319.450743"/>
     <use style="fill:#0000ff;stroke:#0000ff;" x="540.692308" xlink:href="#m3cd0ae10e6" y="272.435453"/>
    </g>
   </g>
   <g id="line2d_20">
    <g clip-path="url(#p3e51de47ea)">
     <use style="fill:#0000ff;stroke:#0000ff;" x="111.461538" xlink:href="#m3cd0ae10e6" y="161.961036"/>
     <use style="fill:#0000ff;stroke:#0000ff;" x="125.769231" xlink:href="#m3cd0ae10e6" y="155.596579"/>
     <use style="fill:#0000ff;stroke:#0000ff;" x="140.076923" xlink:href="#m3cd0ae10e6" y="159.730186"/>
     <use style="fill:#0000ff;stroke:#0000ff;" x="154.384615" xlink:href="#m3cd0ae10e6" y="150.667619"/>
     <use style="fill:#0000ff;stroke:#0000ff;" x="168.692308" xlink:href="#m3cd0ae10e6" y="159.485493"/>
     <use style="fill:#0000ff;stroke:#0000ff;" x="183" xlink:href="#m3cd0ae10e6" y="159.057019"/>
     <use style="fill:#0000ff;stroke:#0000ff;" x="197.307692" xlink:href="#m3cd0ae10e6" y="161.649281"/>
     <use style="fill:#0000ff;stroke:#0000ff;" x="211.615385" xlink:href="#m3cd0ae10e6" y="168.155156"/>
     <use style="fill:#0000ff;stroke:#0000ff;" x="225.923077" xlink:href="#m3cd0ae10e6" y="174.030837"/>
     <use style="fill:#0000ff;stroke:#0000ff;" x="240.230769" xlink:href="#m3cd0ae10e6" y="189.407091"/>
     <use style="fill:#0000ff;stroke:#0000ff;" x="254.538462" xlink:href="#m3cd0ae10e6" y="195.570584"/>
     <use style="fill:#0000ff;stroke:#0000ff;" x="268.846154" xlink:href="#m3cd0ae10e6" y="196.709779"/>
     <use style="fill:#0000ff;stroke:#0000ff;" x="283.153846" xlink:href="#m3cd0ae10e6" y="189.159782"/>
     <use style="fill:#0000ff;stroke:#0000ff;" x="297.461538" xlink:href="#m3cd0ae10e6" y="205.456031"/>
     <use style="fill:#0000ff;stroke:#0000ff;" x="311.769231" xlink:href="#m3cd0ae10e6" y="206.885809"/>
     <use style="fill:#0000ff;stroke:#0000ff;" x="326.076923" xlink:href="#m3cd0ae10e6" y="226.679446"/>
     <use style="fill:#0000ff;stroke:#0000ff;" x="340.384615" xlink:href="#m3cd0ae10e6" y="215.85205"/>
     <use style="fill:#0000ff;stroke:#0000ff;" x="354.692308" xlink:href="#m3cd0ae10e6" y="226.522949"/>
     <use style="fill:#0000ff;stroke:#0000ff;" x="369" xlink:href="#m3cd0ae10e6" y="226.117803"/>
     <use style="fill:#0000ff;stroke:#0000ff;" x="383.307692" xlink:href="#m3cd0ae10e6" y="234.433924"/>
     <use style="fill:#0000ff;stroke:#0000ff;" x="397.615385" xlink:href="#m3cd0ae10e6" y="235.094943"/>
     <use style="fill:#0000ff;stroke:#0000ff;" x="411.923077" xlink:href="#m3cd0ae10e6" y="234.939447"/>
     <use style="fill:#0000ff;stroke:#0000ff;" x="426.230769" xlink:href="#m3cd0ae10e6" y="260.872793"/>
     <use style="fill:#0000ff;stroke:#0000ff;" x="440.538462" xlink:href="#m3cd0ae10e6" y="275.561507"/>
     <use style="fill:#0000ff;stroke:#0000ff;" x="454.846154" xlink:href="#m3cd0ae10e6" y="238.32395"/>
     <use style="fill:#0000ff;stroke:#0000ff;" x="469.153846" xlink:href="#m3cd0ae10e6" y="302.876704"/>
     <use style="fill:#0000ff;stroke:#0000ff;" x="483.461538" xlink:href="#m3cd0ae10e6" y="277.775306"/>
     <use style="fill:#0000ff;stroke:#0000ff;" x="497.769231" xlink:href="#m3cd0ae10e6" y="253.598648"/>
     <use style="fill:#0000ff;stroke:#0000ff;" x="512.076923" xlink:href="#m3cd0ae10e6" y="266.463729"/>
     <use style="fill:#0000ff;stroke:#0000ff;" x="540.692308" xlink:href="#m3cd0ae10e6" y="149.30476"/>
    </g>
   </g>
   <g id="patch_3">
    <path d="M 90 334.0008 
L 90 85.2768 
" style="fill:none;stroke:#000000;stroke-linecap:square;stroke-linejoin:miter;stroke-width:0.8;"/>
   </g>
   <g id="patch_4">
    <path d="M 648 334.0008 
L 648 85.2768 
" style="fill:none;stroke:#000000;stroke-linecap:square;stroke-linejoin:miter;stroke-width:0.8;"/>
   </g>
   <g id="patch_5">
    <path d="M 90 334.0008 
L 648 334.0008 
" style="fill:none;stroke:#000000;stroke-linecap:square;stroke-linejoin:miter;stroke-width:0.8;"/>
   </g>
   <g id="patch_6">
    <path d="M 90 85.2768 
L 648 85.2768 
" style="fill:none;stroke:#000000;stroke-linecap:square;stroke-linejoin:miter;stroke-width:0.8;"/>
   </g>
   <g id="legend_1">
    <g id="patch_7">
     <path d="M 266.025938 325.0008 
L 471.974063 325.0008 
Q 475.574063 325.0008 475.574063 321.4008 
L 475.574063 243.938925 
Q 475.574063 240.338925 471.974063 240.338925 
L 266.025938 240.338925 
Q 262.425938 240.338925 262.425938 243.938925 
L 262.425938 321.4008 
Q 262.425938 325.0008 266.025938 325.0008 
z
" style="fill:#ffffff;opacity:0.5;stroke:#cccccc;stroke-linejoin:miter;"/>
    </g>
    <g id="line2d_21">
     <path d="M 269.625938 254.916112 
L 305.625938 254.916112 
" style="fill:none;stroke:#008000;stroke-linecap:square;stroke-width:1.5;"/>
    </g>
    <g id="line2d_22"/>
    <g id="text_6">
     <!-- Efficiency -->
     <defs>
      <path d="M 9.8125 72.90625 
L 55.90625 72.90625 
L 55.90625 64.59375 
L 19.671875 64.59375 
L 19.671875 43.015625 
L 54.390625 43.015625 
L 54.390625 34.71875 
L 19.671875 34.71875 
L 19.671875 8.296875 
L 56.78125 8.296875 
L 56.78125 0 
L 9.8125 0 
z
" id="DejaVuSans-69"/>
      <path d="M 37.109375 75.984375 
L 37.109375 68.5 
L 28.515625 68.5 
Q 23.6875 68.5 21.796875 66.546875 
Q 19.921875 64.59375 19.921875 59.515625 
L 19.921875 54.6875 
L 34.71875 54.6875 
L 34.71875 47.703125 
L 19.921875 47.703125 
L 19.921875 0 
L 10.890625 0 
L 10.890625 47.703125 
L 2.296875 47.703125 
L 2.296875 54.6875 
L 10.890625 54.6875 
L 10.890625 58.5 
Q 10.890625 67.625 15.140625 71.796875 
Q 19.390625 75.984375 28.609375 75.984375 
z
" id="DejaVuSans-102"/>
      <path d="M 56.203125 29.59375 
L 56.203125 25.203125 
L 14.890625 25.203125 
Q 15.484375 15.921875 20.484375 11.0625 
Q 25.484375 6.203125 34.421875 6.203125 
Q 39.59375 6.203125 44.453125 7.46875 
Q 49.3125 8.734375 54.109375 11.28125 
L 54.109375 2.78125 
Q 49.265625 0.734375 44.1875 -0.34375 
Q 39.109375 -1.421875 33.890625 -1.421875 
Q 20.796875 -1.421875 13.15625 6.1875 
Q 5.515625 13.8125 5.515625 26.8125 
Q 5.515625 40.234375 12.765625 48.109375 
Q 20.015625 56 32.328125 56 
Q 43.359375 56 49.78125 48.890625 
Q 56.203125 41.796875 56.203125 29.59375 
z
M 47.21875 32.234375 
Q 47.125 39.59375 43.09375 43.984375 
Q 39.0625 48.390625 32.421875 48.390625 
Q 24.90625 48.390625 20.390625 44.140625 
Q 15.875 39.890625 15.1875 32.171875 
z
" id="DejaVuSans-101"/>
      <path d="M 32.171875 -5.078125 
Q 28.375 -14.84375 24.75 -17.8125 
Q 21.140625 -20.796875 15.09375 -20.796875 
L 7.90625 -20.796875 
L 7.90625 -13.28125 
L 13.1875 -13.28125 
Q 16.890625 -13.28125 18.9375 -11.515625 
Q 21 -9.765625 23.484375 -3.21875 
L 25.09375 0.875 
L 2.984375 54.6875 
L 12.5 54.6875 
L 29.59375 11.921875 
L 46.6875 54.6875 
L 56.203125 54.6875 
z
" id="DejaVuSans-121"/>
     </defs>
     <g transform="translate(320.025937 261.216113)scale(0.18 -0.18)">
      <use xlink:href="#DejaVuSans-69"/>
      <use x="63.183594" xlink:href="#DejaVuSans-102"/>
      <use x="98.388672" xlink:href="#DejaVuSans-102"/>
      <use x="133.59375" xlink:href="#DejaVuSans-105"/>
      <use x="161.376953" xlink:href="#DejaVuSans-99"/>
      <use x="216.357422" xlink:href="#DejaVuSans-105"/>
      <use x="244.140625" xlink:href="#DejaVuSans-101"/>
      <use x="305.664062" xlink:href="#DejaVuSans-110"/>
      <use x="369.042969" xlink:href="#DejaVuSans-99"/>
      <use x="424.023438" xlink:href="#DejaVuSans-121"/>
     </g>
    </g>
    <g id="line2d_23">
     <path d="M 269.625938 281.336737 
L 305.625938 281.336737 
" style="fill:none;stroke:#ff0000;stroke-linecap:square;stroke-width:1.5;"/>
    </g>
    <g id="line2d_24"/>
    <g id="text_7">
     <!-- Purity -->
     <defs>
      <path d="M 19.671875 64.796875 
L 19.671875 37.40625 
L 32.078125 37.40625 
Q 38.96875 37.40625 42.71875 40.96875 
Q 46.484375 44.53125 46.484375 51.125 
Q 46.484375 57.671875 42.71875 61.234375 
Q 38.96875 64.796875 32.078125 64.796875 
z
M 9.8125 72.90625 
L 32.078125 72.90625 
Q 44.34375 72.90625 50.609375 67.359375 
Q 56.890625 61.8125 56.890625 51.125 
Q 56.890625 40.328125 50.609375 34.8125 
Q 44.34375 29.296875 32.078125 29.296875 
L 19.671875 29.296875 
L 19.671875 0 
L 9.8125 0 
z
" id="DejaVuSans-80"/>
      <path d="M 8.5 21.578125 
L 8.5 54.6875 
L 17.484375 54.6875 
L 17.484375 21.921875 
Q 17.484375 14.15625 20.5 10.265625 
Q 23.53125 6.390625 29.59375 6.390625 
Q 36.859375 6.390625 41.078125 11.03125 
Q 45.3125 15.671875 45.3125 23.6875 
L 45.3125 54.6875 
L 54.296875 54.6875 
L 54.296875 0 
L 45.3125 0 
L 45.3125 8.40625 
Q 42.046875 3.421875 37.71875 1 
Q 33.40625 -1.421875 27.6875 -1.421875 
Q 18.265625 -1.421875 13.375 4.4375 
Q 8.5 10.296875 8.5 21.578125 
z
M 31.109375 56 
z
" id="DejaVuSans-117"/>
     </defs>
     <g transform="translate(320.025937 287.636737)scale(0.18 -0.18)">
      <use xlink:href="#DejaVuSans-80"/>
      <use x="60.287109" xlink:href="#DejaVuSans-117"/>
      <use x="123.666016" xlink:href="#DejaVuSans-114"/>
      <use x="164.779297" xlink:href="#DejaVuSans-105"/>
      <use x="192.5625" xlink:href="#DejaVuSans-116"/>
      <use x="231.771484" xlink:href="#DejaVuSans-121"/>
     </g>
    </g>
    <g id="line2d_25">
     <path d="M 269.625938 307.757362 
L 305.625938 307.757362 
" style="fill:none;stroke:#0000ff;stroke-linecap:square;stroke-width:1.5;"/>
    </g>
    <g id="line2d_26"/>
    <g id="text_8">
     <!-- Purity*Efficiency -->
     <defs>
      <path d="M 47.015625 60.890625 
L 29.5 51.421875 
L 47.015625 41.890625 
L 44.1875 37.109375 
L 27.78125 47.015625 
L 27.78125 28.609375 
L 22.21875 28.609375 
L 22.21875 47.015625 
L 5.8125 37.109375 
L 2.984375 41.890625 
L 20.515625 51.421875 
L 2.984375 60.890625 
L 5.8125 65.71875 
L 22.21875 55.8125 
L 22.21875 74.21875 
L 27.78125 74.21875 
L 27.78125 55.8125 
L 44.1875 65.71875 
z
" id="DejaVuSans-42"/>
     </defs>
     <g transform="translate(320.025937 314.057363)scale(0.18 -0.18)">
      <use xlink:href="#DejaVuSans-80"/>
      <use x="60.287109" xlink:href="#DejaVuSans-117"/>
      <use x="123.666016" xlink:href="#DejaVuSans-114"/>
      <use x="164.779297" xlink:href="#DejaVuSans-105"/>
      <use x="192.5625" xlink:href="#DejaVuSans-116"/>
      <use x="231.771484" xlink:href="#DejaVuSans-121"/>
      <use x="290.951172" xlink:href="#DejaVuSans-42"/>
      <use x="340.951172" xlink:href="#DejaVuSans-69"/>
      <use x="404.134766" xlink:href="#DejaVuSans-102"/>
      <use x="439.339844" xlink:href="#DejaVuSans-102"/>
      <use x="474.544922" xlink:href="#DejaVuSans-105"/>
      <use x="502.328125" xlink:href="#DejaVuSans-99"/>
      <use x="557.308594" xlink:href="#DejaVuSans-105"/>
      <use x="585.091797" xlink:href="#DejaVuSans-101"/>
      <use x="646.615234" xlink:href="#DejaVuSans-110"/>
      <use x="709.994141" xlink:href="#DejaVuSans-99"/>
      <use x="764.974609" xlink:href="#DejaVuSans-121"/>
     </g>
    </g>
   </g>
  </g>
  <g id="axes_2">
   <g id="patch_8">
    <path d="M 90 632.4696 
L 648 632.4696 
L 648 383.7456 
L 90 383.7456 
z
" style="fill:#ffffff;"/>
   </g>
   <g id="patch_9">
    <path clip-path="url(#p5b49b336a5)" d="M 90 83252.729632 
L 90 83252.729632 
L 104.307692 83252.729632 
L 104.307692 412.622842 
L 118.615385 412.622842 
L 118.615385 395.315594 
L 132.923077 395.315594 
L 132.923077 395.051236 
L 147.230769 395.051236 
L 147.230769 396.529913 
L 161.538462 396.529913 
L 161.538462 401.607278 
L 175.846154 401.607278 
L 175.846154 399.163002 
L 190.153846 399.163002 
L 190.153846 405.705873 
L 204.461538 405.705873 
L 204.461538 410.535833 
L 218.769231 410.535833 
L 218.769231 412.089601 
L 233.076923 412.089601 
L 233.076923 420.389729 
L 247.384615 420.389729 
L 247.384615 426.010695 
L 261.692308 426.010695 
L 261.692308 426.010695 
L 276 426.010695 
L 276 433.24674 
L 290.307692 433.24674 
L 290.307692 435.613736 
L 304.615385 435.613736 
L 304.615385 441.83184 
L 318.923077 441.83184 
L 318.923077 444.603398 
L 333.230769 444.603398 
L 333.230769 445.93762 
L 347.538462 445.93762 
L 347.538462 459.681845 
L 361.846154 459.681845 
L 361.846154 467.689671 
L 376.153846 467.689671 
L 376.153846 476.70845 
L 390.461538 476.70845 
L 390.461538 474.835689 
L 404.769231 474.835689 
L 404.769231 486.187908 
L 419.076923 486.187908 
L 419.076923 500.323727 
L 433.384615 500.323727 
L 433.384615 502.888135 
L 447.692308 502.888135 
L 447.692308 513.657818 
L 462 513.657818 
L 462 507.114948 
L 476.307692 507.114948 
L 476.307692 521.665644 
L 490.615385 521.665644 
L 490.615385 538.532398 
L 504.923077 538.532398 
L 504.923077 531.989528 
L 519.230769 531.989528 
L 519.230769 556.864107 
L 533.538462 556.864107 
L 533.538462 571.414804 
L 547.846154 571.414804 
L 547.846154 571.414804 
L 562.153846 571.414804 
L 562.153846 581.738687 
L 576.461538 581.738687 
L 576.461538 571.414804 
L 590.769231 571.414804 
L 590.769231 596.289384 
L 605.076923 596.289384 
L 605.076923 621.163964 
L 619.384615 621.163964 
L 619.384615 83252.729632 
L 633.692308 83252.729632 
L 633.692308 83252.729632 
L 648 83252.729632 
L 648 83252.729632 
z
" style="fill:#1f77b4;opacity:0.2;"/>
   </g>
   <g id="matplotlib.axis_3">
    <g id="xtick_9">
     <g id="line2d_27">
      <g>
       <use style="stroke:#000000;stroke-width:0.8;" x="90" xlink:href="#mf20d9223eb" y="632.4696"/>
      </g>
     </g>
     <g id="text_9">
      <!-- 0 -->
      <g transform="translate(81.7542 659.16475)scale(0.2592 -0.2592)">
       <use xlink:href="#DejaVuSans-48"/>
      </g>
     </g>
    </g>
    <g id="xtick_10">
     <g id="line2d_28">
      <g>
       <use style="stroke:#000000;stroke-width:0.8;" x="169.714286" xlink:href="#mf20d9223eb" y="632.4696"/>
      </g>
     </g>
     <g id="text_10">
      <!-- 100 -->
      <g transform="translate(144.976886 659.16475)scale(0.2592 -0.2592)">
       <use xlink:href="#DejaVuSans-49"/>
       <use x="63.623047" xlink:href="#DejaVuSans-48"/>
       <use x="127.246094" xlink:href="#DejaVuSans-48"/>
      </g>
     </g>
    </g>
    <g id="xtick_11">
     <g id="line2d_29">
      <g>
       <use style="stroke:#000000;stroke-width:0.8;" x="249.428571" xlink:href="#mf20d9223eb" y="632.4696"/>
      </g>
     </g>
     <g id="text_11">
      <!-- 200 -->
      <defs>
       <path d="M 19.1875 8.296875 
L 53.609375 8.296875 
L 53.609375 0 
L 7.328125 0 
L 7.328125 8.296875 
Q 12.9375 14.109375 22.625 23.890625 
Q 32.328125 33.6875 34.8125 36.53125 
Q 39.546875 41.84375 41.421875 45.53125 
Q 43.3125 49.21875 43.3125 52.78125 
Q 43.3125 58.59375 39.234375 62.25 
Q 35.15625 65.921875 28.609375 65.921875 
Q 23.96875 65.921875 18.8125 64.3125 
Q 13.671875 62.703125 7.8125 59.421875 
L 7.8125 69.390625 
Q 13.765625 71.78125 18.9375 73 
Q 24.125 74.21875 28.421875 74.21875 
Q 39.75 74.21875 46.484375 68.546875 
Q 53.21875 62.890625 53.21875 53.421875 
Q 53.21875 48.921875 51.53125 44.890625 
Q 49.859375 40.875 45.40625 35.40625 
Q 44.1875 33.984375 37.640625 27.21875 
Q 31.109375 20.453125 19.1875 8.296875 
z
" id="DejaVuSans-50"/>
      </defs>
      <g transform="translate(224.691171 659.16475)scale(0.2592 -0.2592)">
       <use xlink:href="#DejaVuSans-50"/>
       <use x="63.623047" xlink:href="#DejaVuSans-48"/>
       <use x="127.246094" xlink:href="#DejaVuSans-48"/>
      </g>
     </g>
    </g>
    <g id="xtick_12">
     <g id="line2d_30">
      <g>
       <use style="stroke:#000000;stroke-width:0.8;" x="329.142857" xlink:href="#mf20d9223eb" y="632.4696"/>
      </g>
     </g>
     <g id="text_12">
      <!-- 300 -->
      <defs>
       <path d="M 40.578125 39.3125 
Q 47.65625 37.796875 51.625 33 
Q 55.609375 28.21875 55.609375 21.1875 
Q 55.609375 10.40625 48.1875 4.484375 
Q 40.765625 -1.421875 27.09375 -1.421875 
Q 22.515625 -1.421875 17.65625 -0.515625 
Q 12.796875 0.390625 7.625 2.203125 
L 7.625 11.71875 
Q 11.71875 9.328125 16.59375 8.109375 
Q 21.484375 6.890625 26.8125 6.890625 
Q 36.078125 6.890625 40.9375 10.546875 
Q 45.796875 14.203125 45.796875 21.1875 
Q 45.796875 27.640625 41.28125 31.265625 
Q 36.765625 34.90625 28.71875 34.90625 
L 20.21875 34.90625 
L 20.21875 43.015625 
L 29.109375 43.015625 
Q 36.375 43.015625 40.234375 45.921875 
Q 44.09375 48.828125 44.09375 54.296875 
Q 44.09375 59.90625 40.109375 62.90625 
Q 36.140625 65.921875 28.71875 65.921875 
Q 24.65625 65.921875 20.015625 65.03125 
Q 15.375 64.15625 9.8125 62.3125 
L 9.8125 71.09375 
Q 15.4375 72.65625 20.34375 73.4375 
Q 25.25 74.21875 29.59375 74.21875 
Q 40.828125 74.21875 47.359375 69.109375 
Q 53.90625 64.015625 53.90625 55.328125 
Q 53.90625 49.265625 50.4375 45.09375 
Q 46.96875 40.921875 40.578125 39.3125 
z
" id="DejaVuSans-51"/>
      </defs>
      <g transform="translate(304.405457 659.16475)scale(0.2592 -0.2592)">
       <use xlink:href="#DejaVuSans-51"/>
       <use x="63.623047" xlink:href="#DejaVuSans-48"/>
       <use x="127.246094" xlink:href="#DejaVuSans-48"/>
      </g>
     </g>
    </g>
    <g id="xtick_13">
     <g id="line2d_31">
      <g>
       <use style="stroke:#000000;stroke-width:0.8;" x="408.857143" xlink:href="#mf20d9223eb" y="632.4696"/>
      </g>
     </g>
     <g id="text_13">
      <!-- 400 -->
      <defs>
       <path d="M 37.796875 64.3125 
L 12.890625 25.390625 
L 37.796875 25.390625 
z
M 35.203125 72.90625 
L 47.609375 72.90625 
L 47.609375 25.390625 
L 58.015625 25.390625 
L 58.015625 17.1875 
L 47.609375 17.1875 
L 47.609375 0 
L 37.796875 0 
L 37.796875 17.1875 
L 4.890625 17.1875 
L 4.890625 26.703125 
z
" id="DejaVuSans-52"/>
      </defs>
      <g transform="translate(384.119743 659.16475)scale(0.2592 -0.2592)">
       <use xlink:href="#DejaVuSans-52"/>
       <use x="63.623047" xlink:href="#DejaVuSans-48"/>
       <use x="127.246094" xlink:href="#DejaVuSans-48"/>
      </g>
     </g>
    </g>
    <g id="xtick_14">
     <g id="line2d_32">
      <g>
       <use style="stroke:#000000;stroke-width:0.8;" x="488.571429" xlink:href="#mf20d9223eb" y="632.4696"/>
      </g>
     </g>
     <g id="text_14">
      <!-- 500 -->
      <g transform="translate(463.834029 659.16475)scale(0.2592 -0.2592)">
       <use xlink:href="#DejaVuSans-53"/>
       <use x="63.623047" xlink:href="#DejaVuSans-48"/>
       <use x="127.246094" xlink:href="#DejaVuSans-48"/>
      </g>
     </g>
    </g>
    <g id="xtick_15">
     <g id="line2d_33">
      <g>
       <use style="stroke:#000000;stroke-width:0.8;" x="568.285714" xlink:href="#mf20d9223eb" y="632.4696"/>
      </g>
     </g>
     <g id="text_15">
      <!-- 600 -->
      <defs>
       <path d="M 33.015625 40.375 
Q 26.375 40.375 22.484375 35.828125 
Q 18.609375 31.296875 18.609375 23.390625 
Q 18.609375 15.53125 22.484375 10.953125 
Q 26.375 6.390625 33.015625 6.390625 
Q 39.65625 6.390625 43.53125 10.953125 
Q 47.40625 15.53125 47.40625 23.390625 
Q 47.40625 31.296875 43.53125 35.828125 
Q 39.65625 40.375 33.015625 40.375 
z
M 52.59375 71.296875 
L 52.59375 62.3125 
Q 48.875 64.0625 45.09375 64.984375 
Q 41.3125 65.921875 37.59375 65.921875 
Q 27.828125 65.921875 22.671875 59.328125 
Q 17.53125 52.734375 16.796875 39.40625 
Q 19.671875 43.65625 24.015625 45.921875 
Q 28.375 48.1875 33.59375 48.1875 
Q 44.578125 48.1875 50.953125 41.515625 
Q 57.328125 34.859375 57.328125 23.390625 
Q 57.328125 12.15625 50.6875 5.359375 
Q 44.046875 -1.421875 33.015625 -1.421875 
Q 20.359375 -1.421875 13.671875 8.265625 
Q 6.984375 17.96875 6.984375 36.375 
Q 6.984375 53.65625 15.1875 63.9375 
Q 23.390625 74.21875 37.203125 74.21875 
Q 40.921875 74.21875 44.703125 73.484375 
Q 48.484375 72.75 52.59375 71.296875 
z
" id="DejaVuSans-54"/>
      </defs>
      <g transform="translate(543.548314 659.16475)scale(0.2592 -0.2592)">
       <use xlink:href="#DejaVuSans-54"/>
       <use x="63.623047" xlink:href="#DejaVuSans-48"/>
       <use x="127.246094" xlink:href="#DejaVuSans-48"/>
      </g>
     </g>
    </g>
    <g id="xtick_16">
     <g id="line2d_34">
      <g>
       <use style="stroke:#000000;stroke-width:0.8;" x="648" xlink:href="#mf20d9223eb" y="632.4696"/>
      </g>
     </g>
     <g id="text_16">
      <!-- 700 -->
      <defs>
       <path d="M 8.203125 72.90625 
L 55.078125 72.90625 
L 55.078125 68.703125 
L 28.609375 0 
L 18.3125 0 
L 43.21875 64.59375 
L 8.203125 64.59375 
z
" id="DejaVuSans-55"/>
      </defs>
      <g transform="translate(623.2626 659.16475)scale(0.2592 -0.2592)">
       <use xlink:href="#DejaVuSans-55"/>
       <use x="63.623047" xlink:href="#DejaVuSans-48"/>
       <use x="127.246094" xlink:href="#DejaVuSans-48"/>
      </g>
     </g>
    </g>
    <g id="text_17">
     <!-- nHitsW -->
     <g transform="translate(322.79355 688.25045)scale(0.2592 -0.2592)">
      <use xlink:href="#DejaVuSans-110"/>
      <use x="63.378906" xlink:href="#DejaVuSans-72"/>
      <use x="138.574219" xlink:href="#DejaVuSans-105"/>
      <use x="166.357422" xlink:href="#DejaVuSans-116"/>
      <use x="205.566406" xlink:href="#DejaVuSans-115"/>
      <use x="257.666016" xlink:href="#DejaVuSans-87"/>
     </g>
    </g>
   </g>
   <g id="matplotlib.axis_4">
    <g id="ytick_4">
     <g id="line2d_35">
      <g>
       <use style="stroke:#000000;stroke-width:0.8;" x="90" xlink:href="#mbbaf95cd42" y="621.163964"/>
      </g>
     </g>
     <g id="text_18">
      <!-- $\mathdefault{10^{0}}$ -->
      <g transform="translate(37.3808 631.011539)scale(0.2592 -0.2592)">
       <use transform="translate(0 0.765625)" xlink:href="#DejaVuSans-49"/>
       <use transform="translate(63.623047 0.765625)" xlink:href="#DejaVuSans-48"/>
       <use transform="translate(128.203125 39.046875)scale(0.7)" xlink:href="#DejaVuSans-48"/>
      </g>
     </g>
    </g>
    <g id="ytick_5">
     <g id="line2d_36">
      <g>
       <use style="stroke:#000000;stroke-width:0.8;" x="90" xlink:href="#mbbaf95cd42" y="538.532398"/>
      </g>
     </g>
     <g id="text_19">
      <!-- $\mathdefault{10^{1}}$ -->
      <g transform="translate(37.3808 548.379973)scale(0.2592 -0.2592)">
       <use transform="translate(0 0.684375)" xlink:href="#DejaVuSans-49"/>
       <use transform="translate(63.623047 0.684375)" xlink:href="#DejaVuSans-48"/>
       <use transform="translate(128.203125 38.965625)scale(0.7)" xlink:href="#DejaVuSans-49"/>
      </g>
     </g>
    </g>
    <g id="ytick_6">
     <g id="line2d_37">
      <g>
       <use style="stroke:#000000;stroke-width:0.8;" x="90" xlink:href="#mbbaf95cd42" y="455.900832"/>
      </g>
     </g>
     <g id="text_20">
      <!-- $\mathdefault{10^{2}}$ -->
      <g transform="translate(37.3808 465.748407)scale(0.2592 -0.2592)">
       <use transform="translate(0 0.765625)" xlink:href="#DejaVuSans-49"/>
       <use transform="translate(63.623047 0.765625)" xlink:href="#DejaVuSans-48"/>
       <use transform="translate(128.203125 39.046875)scale(0.7)" xlink:href="#DejaVuSans-50"/>
      </g>
     </g>
    </g>
    <g id="ytick_7">
     <g id="line2d_38">
      <defs>
       <path d="M 0 0 
L -2 0 
" id="mfe5fe958e3" style="stroke:#000000;stroke-width:0.6;"/>
      </defs>
      <g>
       <use style="stroke:#000000;stroke-width:0.6;" x="90" xlink:href="#mfe5fe958e3" y="629.17179"/>
      </g>
     </g>
    </g>
    <g id="ytick_8">
     <g id="line2d_39">
      <g>
       <use style="stroke:#000000;stroke-width:0.6;" x="90" xlink:href="#mfe5fe958e3" y="624.944977"/>
      </g>
     </g>
    </g>
    <g id="ytick_9">
     <g id="line2d_40">
      <g>
       <use style="stroke:#000000;stroke-width:0.6;" x="90" xlink:href="#mfe5fe958e3" y="596.289384"/>
      </g>
     </g>
    </g>
    <g id="ytick_10">
     <g id="line2d_41">
      <g>
       <use style="stroke:#000000;stroke-width:0.6;" x="90" xlink:href="#mfe5fe958e3" y="581.738687"/>
      </g>
     </g>
    </g>
    <g id="ytick_11">
     <g id="line2d_42">
      <g>
       <use style="stroke:#000000;stroke-width:0.6;" x="90" xlink:href="#mfe5fe958e3" y="571.414804"/>
      </g>
     </g>
    </g>
    <g id="ytick_12">
     <g id="line2d_43">
      <g>
       <use style="stroke:#000000;stroke-width:0.6;" x="90" xlink:href="#mfe5fe958e3" y="563.406978"/>
      </g>
     </g>
    </g>
    <g id="ytick_13">
     <g id="line2d_44">
      <g>
       <use style="stroke:#000000;stroke-width:0.6;" x="90" xlink:href="#mfe5fe958e3" y="556.864107"/>
      </g>
     </g>
    </g>
    <g id="ytick_14">
     <g id="line2d_45">
      <g>
       <use style="stroke:#000000;stroke-width:0.6;" x="90" xlink:href="#mfe5fe958e3" y="551.332189"/>
      </g>
     </g>
    </g>
    <g id="ytick_15">
     <g id="line2d_46">
      <g>
       <use style="stroke:#000000;stroke-width:0.6;" x="90" xlink:href="#mfe5fe958e3" y="546.540224"/>
      </g>
     </g>
    </g>
    <g id="ytick_16">
     <g id="line2d_47">
      <g>
       <use style="stroke:#000000;stroke-width:0.6;" x="90" xlink:href="#mfe5fe958e3" y="542.313411"/>
      </g>
     </g>
    </g>
    <g id="ytick_17">
     <g id="line2d_48">
      <g>
       <use style="stroke:#000000;stroke-width:0.6;" x="90" xlink:href="#mfe5fe958e3" y="513.657818"/>
      </g>
     </g>
    </g>
    <g id="ytick_18">
     <g id="line2d_49">
      <g>
       <use style="stroke:#000000;stroke-width:0.6;" x="90" xlink:href="#mfe5fe958e3" y="499.107122"/>
      </g>
     </g>
    </g>
    <g id="ytick_19">
     <g id="line2d_50">
      <g>
       <use style="stroke:#000000;stroke-width:0.6;" x="90" xlink:href="#mfe5fe958e3" y="488.783238"/>
      </g>
     </g>
    </g>
    <g id="ytick_20">
     <g id="line2d_51">
      <g>
       <use style="stroke:#000000;stroke-width:0.6;" x="90" xlink:href="#mfe5fe958e3" y="480.775412"/>
      </g>
     </g>
    </g>
    <g id="ytick_21">
     <g id="line2d_52">
      <g>
       <use style="stroke:#000000;stroke-width:0.6;" x="90" xlink:href="#mfe5fe958e3" y="474.232542"/>
      </g>
     </g>
    </g>
    <g id="ytick_22">
     <g id="line2d_53">
      <g>
       <use style="stroke:#000000;stroke-width:0.6;" x="90" xlink:href="#mfe5fe958e3" y="468.700624"/>
      </g>
     </g>
    </g>
    <g id="ytick_23">
     <g id="line2d_54">
      <g>
       <use style="stroke:#000000;stroke-width:0.6;" x="90" xlink:href="#mfe5fe958e3" y="463.908658"/>
      </g>
     </g>
    </g>
    <g id="ytick_24">
     <g id="line2d_55">
      <g>
       <use style="stroke:#000000;stroke-width:0.6;" x="90" xlink:href="#mfe5fe958e3" y="459.681845"/>
      </g>
     </g>
    </g>
    <g id="ytick_25">
     <g id="line2d_56">
      <g>
       <use style="stroke:#000000;stroke-width:0.6;" x="90" xlink:href="#mfe5fe958e3" y="431.026252"/>
      </g>
     </g>
    </g>
    <g id="ytick_26">
     <g id="line2d_57">
      <g>
       <use style="stroke:#000000;stroke-width:0.6;" x="90" xlink:href="#mfe5fe958e3" y="416.475556"/>
      </g>
     </g>
    </g>
    <g id="ytick_27">
     <g id="line2d_58">
      <g>
       <use style="stroke:#000000;stroke-width:0.6;" x="90" xlink:href="#mfe5fe958e3" y="406.151673"/>
      </g>
     </g>
    </g>
    <g id="ytick_28">
     <g id="line2d_59">
      <g>
       <use style="stroke:#000000;stroke-width:0.6;" x="90" xlink:href="#mfe5fe958e3" y="398.143846"/>
      </g>
     </g>
    </g>
    <g id="ytick_29">
     <g id="line2d_60">
      <g>
       <use style="stroke:#000000;stroke-width:0.6;" x="90" xlink:href="#mfe5fe958e3" y="391.600976"/>
      </g>
     </g>
    </g>
    <g id="ytick_30">
     <g id="line2d_61">
      <g>
       <use style="stroke:#000000;stroke-width:0.6;" x="90" xlink:href="#mfe5fe958e3" y="386.069058"/>
      </g>
     </g>
    </g>
    <g id="text_21">
     <!-- Count -->
     <defs>
      <path d="M 64.40625 67.28125 
L 64.40625 56.890625 
Q 59.421875 61.53125 53.78125 63.8125 
Q 48.140625 66.109375 41.796875 66.109375 
Q 29.296875 66.109375 22.65625 58.46875 
Q 16.015625 50.828125 16.015625 36.375 
Q 16.015625 21.96875 22.65625 14.328125 
Q 29.296875 6.6875 41.796875 6.6875 
Q 48.140625 6.6875 53.78125 8.984375 
Q 59.421875 11.28125 64.40625 15.921875 
L 64.40625 5.609375 
Q 59.234375 2.09375 53.4375 0.328125 
Q 47.65625 -1.421875 41.21875 -1.421875 
Q 24.65625 -1.421875 15.125 8.703125 
Q 5.609375 18.84375 5.609375 36.375 
Q 5.609375 53.953125 15.125 64.078125 
Q 24.65625 74.21875 41.21875 74.21875 
Q 47.75 74.21875 53.53125 72.484375 
Q 59.328125 70.75 64.40625 67.28125 
z
" id="DejaVuSans-67"/>
     </defs>
     <g transform="translate(27.99025 546.59475)rotate(-90)scale(0.2592 -0.2592)">
      <use xlink:href="#DejaVuSans-67"/>
      <use x="69.824219" xlink:href="#DejaVuSans-111"/>
      <use x="131.005859" xlink:href="#DejaVuSans-117"/>
      <use x="194.384766" xlink:href="#DejaVuSans-110"/>
      <use x="257.763672" xlink:href="#DejaVuSans-116"/>
     </g>
    </g>
   </g>
   <g id="line2d_62">
    <path clip-path="url(#p5b49b336a5)" d="M 104.307692 711.64 
L 104.307692 412.622842 
L 118.615385 412.622842 
L 118.615385 395.315594 
L 132.923077 395.315594 
L 132.923077 395.051236 
L 147.230769 395.051236 
L 147.230769 396.529913 
L 161.538462 396.529913 
L 161.538462 401.607278 
L 175.846154 401.607278 
L 175.846154 399.163002 
L 190.153846 399.163002 
L 190.153846 405.705873 
L 204.461538 405.705873 
L 204.461538 410.535833 
L 218.769231 410.535833 
L 218.769231 412.089601 
L 233.076923 412.089601 
L 233.076923 420.389729 
L 247.384615 420.389729 
L 247.384615 426.010695 
L 261.692308 426.010695 
L 261.692308 426.010695 
L 276 426.010695 
L 276 433.24674 
L 290.307692 433.24674 
L 290.307692 435.613736 
L 304.615385 435.613736 
L 304.615385 441.83184 
L 318.923077 441.83184 
L 318.923077 444.603398 
L 333.230769 444.603398 
L 333.230769 445.93762 
L 347.538462 445.93762 
L 347.538462 459.681845 
L 361.846154 459.681845 
L 361.846154 467.689671 
L 376.153846 467.689671 
L 376.153846 476.70845 
L 390.461538 476.70845 
L 390.461538 474.835689 
L 404.769231 474.835689 
L 404.769231 486.187908 
L 419.076923 486.187908 
L 419.076923 500.323727 
L 433.384615 500.323727 
L 433.384615 502.888135 
L 447.692308 502.888135 
L 447.692308 513.657818 
L 462 513.657818 
L 462 507.114948 
L 476.307692 507.114948 
L 476.307692 521.665644 
L 490.615385 521.665644 
L 490.615385 538.532398 
L 504.923077 538.532398 
L 504.923077 531.989528 
L 519.230769 531.989528 
L 519.230769 556.864107 
L 533.538462 556.864107 
L 533.538462 571.414804 
L 547.846154 571.414804 
L 547.846154 571.414804 
L 562.153846 571.414804 
L 562.153846 581.738687 
L 576.461538 581.738687 
L 576.461538 571.414804 
L 590.769231 571.414804 
L 590.769231 596.289384 
L 605.076923 596.289384 
L 605.076923 621.163964 
L 619.384615 621.163964 
L 619.384615 711.64 
" style="fill:none;stroke:#1f77b4;stroke-linecap:square;stroke-width:1.5;"/>
   </g>
   <g id="line2d_63">
    <path clip-path="url(#p5b49b336a5)" d="M 104.307692 711.64 
L 104.307692 419.079859 
L 118.615385 419.079859 
L 118.615385 401.449536 
L 132.923077 401.449536 
L 132.923077 401.92486 
L 147.230769 401.92486 
L 147.230769 402.73133 
L 161.538462 402.73133 
L 161.538462 408.755976 
L 175.846154 408.755976 
L 175.846154 406.331555 
L 190.153846 406.331555 
L 190.153846 413.273369 
L 204.461538 413.273369 
L 204.461538 419.338036 
L 218.769231 419.338036 
L 218.769231 421.749226 
L 233.076923 421.749226 
L 233.076923 434.018521 
L 247.384615 434.018521 
L 247.384615 441.350136 
L 261.692308 441.350136 
L 261.692308 442.320099 
L 276 442.320099 
L 276 447.893006 
L 290.307692 447.893006 
L 290.307692 454.840072 
L 304.615385 454.840072 
L 304.615385 462.157753 
L 318.923077 462.157753 
L 318.923077 471.360095 
L 333.230769 471.360095 
L 333.230769 471.916485 
L 347.538462 471.916485 
L 347.538462 484.556425 
L 361.846154 484.556425 
L 361.846154 497.930412 
L 376.153846 497.930412 
L 376.153846 507.114948 
L 390.461538 507.114948 
L 390.461538 505.649992 
L 404.769231 505.649992 
L 404.769231 521.665644 
L 419.076923 521.665644 
L 419.076923 546.540224 
L 433.384615 546.540224 
L 433.384615 556.864107 
L 447.692308 556.864107 
L 447.692308 546.540224 
L 462 546.540224 
L 462 581.738687 
L 476.307692 581.738687 
L 476.307692 581.738687 
L 490.615385 581.738687 
L 490.615385 596.289384 
L 504.923077 596.289384 
L 504.923077 596.289384 
L 519.230769 596.289384 
L 519.230769 711.64 
M 533.538462 711.64 
L 533.538462 596.289384 
L 547.846154 596.289384 
L 547.846154 711.64 
" style="fill:none;stroke:#ff7f0e;stroke-linecap:square;stroke-width:1.5;"/>
   </g>
   <g id="line2d_64">
    <path clip-path="url(#p5b49b336a5)" d="M 104.307692 711.64 
L 104.307692 471.360095 
L 118.615385 471.360095 
L 118.615385 460.898451 
L 132.923077 460.898451 
L 132.923077 460.488316 
L 147.230769 460.488316 
L 147.230769 469.216984 
L 161.538462 469.216984 
L 161.538462 468.700624 
L 175.846154 468.700624 
L 175.846154 467.194678 
L 190.153846 467.194678 
L 190.153846 472.481637 
L 204.461538 472.481637 
L 204.461538 476.70845 
L 218.769231 476.70845 
L 218.769231 476.073275 
L 233.076923 476.073275 
L 233.076923 487.897108 
L 247.384615 487.897108 
L 247.384615 494.615463 
L 261.692308 494.615463 
L 261.692308 499.107122 
L 276 499.107122 
L 276 505.649992 
L 290.307692 505.649992 
L 290.307692 511.906913 
L 304.615385 511.906913 
L 304.615385 521.665644 
L 318.923077 521.665644 
L 318.923077 529.11708 
L 333.230769 529.11708 
L 333.230769 551.332189 
L 347.538462 551.332189 
L 347.538462 529.11708 
L 361.846154 529.11708 
L 361.846154 571.414804 
L 376.153846 571.414804 
L 376.153846 556.864107 
L 390.461538 556.864107 
L 390.461538 556.864107 
L 404.769231 556.864107 
L 404.769231 596.289384 
L 419.076923 596.289384 
L 419.076923 596.289384 
L 433.384615 596.289384 
L 433.384615 596.289384 
L 447.692308 596.289384 
L 447.692308 581.738687 
L 462 581.738687 
L 462 596.289384 
L 476.307692 596.289384 
L 476.307692 621.163964 
L 490.615385 621.163964 
L 490.615385 711.64 
" style="fill:none;stroke:#2ca02c;stroke-linecap:square;stroke-width:1.5;"/>
   </g>
   <g id="patch_10">
    <path d="M 90 632.4696 
L 90 383.7456 
" style="fill:none;stroke:#000000;stroke-linecap:square;stroke-linejoin:miter;stroke-width:0.8;"/>
   </g>
   <g id="patch_11">
    <path d="M 648 632.4696 
L 648 383.7456 
" style="fill:none;stroke:#000000;stroke-linecap:square;stroke-linejoin:miter;stroke-width:0.8;"/>
   </g>
   <g id="patch_12">
    <path d="M 90 632.4696 
L 648 632.4696 
" style="fill:none;stroke:#000000;stroke-linecap:square;stroke-linejoin:miter;stroke-width:0.8;"/>
   </g>
   <g id="patch_13">
    <path d="M 90 383.7456 
L 648 383.7456 
" style="fill:none;stroke:#000000;stroke-linecap:square;stroke-linejoin:miter;stroke-width:0.8;"/>
   </g>
   <g id="legend_2">
    <g id="patch_14">
     <path d="M 412.000313 477.407475 
L 635.4 477.407475 
Q 639 477.407475 639 473.807475 
L 639 396.3456 
Q 639 392.7456 635.4 392.7456 
L 412.000313 392.7456 
Q 408.400312 392.7456 408.400312 396.3456 
L 408.400312 473.807475 
Q 408.400312 477.407475 412.000313 477.407475 
z
" style="fill:#ffffff;opacity:0.5;stroke:#cccccc;stroke-linejoin:miter;"/>
    </g>
    <g id="line2d_65">
     <path d="M 415.600312 407.322787 
L 451.600312 407.322787 
" style="fill:none;stroke:#1f77b4;stroke-linecap:square;stroke-width:1.5;"/>
    </g>
    <g id="line2d_66"/>
    <g id="text_22">
     <!--  Photon -->
     <defs>
      <path id="DejaVuSans-32"/>
      <path d="M 54.890625 33.015625 
L 54.890625 0 
L 45.90625 0 
L 45.90625 32.71875 
Q 45.90625 40.484375 42.875 44.328125 
Q 39.84375 48.1875 33.796875 48.1875 
Q 26.515625 48.1875 22.3125 43.546875 
Q 18.109375 38.921875 18.109375 30.90625 
L 18.109375 0 
L 9.078125 0 
L 9.078125 75.984375 
L 18.109375 75.984375 
L 18.109375 46.1875 
Q 21.34375 51.125 25.703125 53.5625 
Q 30.078125 56 35.796875 56 
Q 45.21875 56 50.046875 50.171875 
Q 54.890625 44.34375 54.890625 33.015625 
z
" id="DejaVuSans-104"/>
     </defs>
     <g transform="translate(466.000312 413.622787)scale(0.18 -0.18)">
      <use xlink:href="#DejaVuSans-32"/>
      <use x="31.787109" xlink:href="#DejaVuSans-80"/>
      <use x="92.089844" xlink:href="#DejaVuSans-104"/>
      <use x="155.46875" xlink:href="#DejaVuSans-111"/>
      <use x="216.650391" xlink:href="#DejaVuSans-116"/>
      <use x="255.859375" xlink:href="#DejaVuSans-111"/>
      <use x="317.041016" xlink:href="#DejaVuSans-110"/>
     </g>
    </g>
    <g id="line2d_67">
     <path d="M 415.600312 433.743412 
L 451.600312 433.743412 
" style="fill:none;stroke:#ff7f0e;stroke-linecap:square;stroke-width:1.5;"/>
    </g>
    <g id="line2d_68"/>
    <g id="text_23">
     <!-- correct  Photon -->
     <g transform="translate(466.000312 440.043412)scale(0.18 -0.18)">
      <use xlink:href="#DejaVuSans-99"/>
      <use x="54.980469" xlink:href="#DejaVuSans-111"/>
      <use x="116.162109" xlink:href="#DejaVuSans-114"/>
      <use x="157.259766" xlink:href="#DejaVuSans-114"/>
      <use x="198.341797" xlink:href="#DejaVuSans-101"/>
      <use x="259.865234" xlink:href="#DejaVuSans-99"/>
      <use x="314.845703" xlink:href="#DejaVuSans-116"/>
      <use x="354.054688" xlink:href="#DejaVuSans-32"/>
      <use x="385.841797" xlink:href="#DejaVuSans-32"/>
      <use x="417.628906" xlink:href="#DejaVuSans-80"/>
      <use x="477.931641" xlink:href="#DejaVuSans-104"/>
      <use x="541.310547" xlink:href="#DejaVuSans-111"/>
      <use x="602.492188" xlink:href="#DejaVuSans-116"/>
      <use x="641.701172" xlink:href="#DejaVuSans-111"/>
      <use x="702.882812" xlink:href="#DejaVuSans-110"/>
     </g>
    </g>
    <g id="line2d_69">
     <path d="M 415.600312 460.164037 
L 451.600312 460.164037 
" style="fill:none;stroke:#2ca02c;stroke-linecap:square;stroke-width:1.5;"/>
    </g>
    <g id="line2d_70"/>
    <g id="text_24">
     <!-- incorrect  Electron -->
     <defs>
      <path d="M 9.421875 75.984375 
L 18.40625 75.984375 
L 18.40625 0 
L 9.421875 0 
z
" id="DejaVuSans-108"/>
     </defs>
     <g transform="translate(466.000312 466.464037)scale(0.18 -0.18)">
      <use xlink:href="#DejaVuSans-105"/>
      <use x="27.783203" xlink:href="#DejaVuSans-110"/>
      <use x="91.162109" xlink:href="#DejaVuSans-99"/>
      <use x="146.142578" xlink:href="#DejaVuSans-111"/>
      <use x="207.324219" xlink:href="#DejaVuSans-114"/>
      <use x="248.421875" xlink:href="#DejaVuSans-114"/>
      <use x="289.503906" xlink:href="#DejaVuSans-101"/>
      <use x="351.027344" xlink:href="#DejaVuSans-99"/>
      <use x="406.007812" xlink:href="#DejaVuSans-116"/>
      <use x="445.216797" xlink:href="#DejaVuSans-32"/>
      <use x="477.003906" xlink:href="#DejaVuSans-32"/>
      <use x="508.791016" xlink:href="#DejaVuSans-69"/>
      <use x="571.974609" xlink:href="#DejaVuSans-108"/>
      <use x="599.757812" xlink:href="#DejaVuSans-101"/>
      <use x="661.28125" xlink:href="#DejaVuSans-99"/>
      <use x="716.261719" xlink:href="#DejaVuSans-116"/>
      <use x="755.470703" xlink:href="#DejaVuSans-114"/>
      <use x="796.552734" xlink:href="#DejaVuSans-111"/>
      <use x="857.734375" xlink:href="#DejaVuSans-110"/>
     </g>
    </g>
   </g>
  </g>
 </g>
 <defs>
  <clipPath id="p3e51de47ea">
   <rect height="248.724" width="558" x="90" y="85.2768"/>
  </clipPath>
  <clipPath id="p5b49b336a5">
   <rect height="248.724" width="558" x="90" y="383.7456"/>
  </clipPath>
 </defs>
</svg>
