<?xml version="1.0" encoding="utf-8" standalone="no"?>
<!DOCTYPE svg PUBLIC "-//W3C//DTD SVG 1.1//EN"
  "http://www.w3.org/Graphics/SVG/1.1/DTD/svg11.dtd">
<!-- Created with matplotlib (https://matplotlib.org/) -->
<svg height="710.64pt" version="1.1" viewBox="0 0 720 710.64" width="720pt" xmlns="http://www.w3.org/2000/svg" xmlns:xlink="http://www.w3.org/1999/xlink">
 <defs>
  <style type="text/css">
*{stroke-linecap:butt;stroke-linejoin:round;}
  </style>
 </defs>
 <g id="figure_1">
  <g id="patch_1">
   <path d="M 0 710.64 
L 720 710.64 
L 720 0 
L 0 0 
z
" style="fill:#ffffff;"/>
  </g>
  <g id="axes_1">
   <g id="patch_2">
    <path d="M 90 334.0008 
L 648 334.0008 
L 648 85.2768 
L 90 85.2768 
z
" style="fill:#ffffff;"/>
   </g>
   <g id="matplotlib.axis_1">
    <g id="xtick_1">
     <g id="line2d_1">
      <defs>
       <path d="M 0 0 
L 0 3.5 
" id="m11e74b9b21" style="stroke:#000000;stroke-width:0.8;"/>
      </defs>
      <g>
       <use style="stroke:#000000;stroke-width:0.8;" x="90" xlink:href="#m11e74b9b21" y="334.0008"/>
      </g>
     </g>
    </g>
    <g id="xtick_2">
     <g id="line2d_2">
      <g>
       <use style="stroke:#000000;stroke-width:0.8;" x="201.6" xlink:href="#m11e74b9b21" y="334.0008"/>
      </g>
     </g>
    </g>
    <g id="xtick_3">
     <g id="line2d_3">
      <g>
       <use style="stroke:#000000;stroke-width:0.8;" x="313.2" xlink:href="#m11e74b9b21" y="334.0008"/>
      </g>
     </g>
    </g>
    <g id="xtick_4">
     <g id="line2d_4">
      <g>
       <use style="stroke:#000000;stroke-width:0.8;" x="424.8" xlink:href="#m11e74b9b21" y="334.0008"/>
      </g>
     </g>
    </g>
    <g id="xtick_5">
     <g id="line2d_5">
      <g>
       <use style="stroke:#000000;stroke-width:0.8;" x="536.4" xlink:href="#m11e74b9b21" y="334.0008"/>
      </g>
     </g>
    </g>
    <g id="xtick_6">
     <g id="line2d_6">
      <g>
       <use style="stroke:#000000;stroke-width:0.8;" x="648" xlink:href="#m11e74b9b21" y="334.0008"/>
      </g>
     </g>
    </g>
    <g id="text_1">
     <!-- mcpMomentum -->
     <defs>
      <path d="M 52 44.1875 
Q 55.375 50.25 60.0625 53.125 
Q 64.75 56 71.09375 56 
Q 79.640625 56 84.28125 50.015625 
Q 88.921875 44.046875 88.921875 33.015625 
L 88.921875 0 
L 79.890625 0 
L 79.890625 32.71875 
Q 79.890625 40.578125 77.09375 44.375 
Q 74.3125 48.1875 68.609375 48.1875 
Q 61.625 48.1875 57.5625 43.546875 
Q 53.515625 38.921875 53.515625 30.90625 
L 53.515625 0 
L 44.484375 0 
L 44.484375 32.71875 
Q 44.484375 40.625 41.703125 44.40625 
Q 38.921875 48.1875 33.109375 48.1875 
Q 26.21875 48.1875 22.15625 43.53125 
Q 18.109375 38.875 18.109375 30.90625 
L 18.109375 0 
L 9.078125 0 
L 9.078125 54.6875 
L 18.109375 54.6875 
L 18.109375 46.1875 
Q 21.1875 51.21875 25.484375 53.609375 
Q 29.78125 56 35.6875 56 
Q 41.65625 56 45.828125 52.96875 
Q 50 49.953125 52 44.1875 
z
" id="DejaVuSans-109"/>
      <path d="M 48.78125 52.59375 
L 48.78125 44.1875 
Q 44.96875 46.296875 41.140625 47.34375 
Q 37.3125 48.390625 33.40625 48.390625 
Q 24.65625 48.390625 19.8125 42.84375 
Q 14.984375 37.3125 14.984375 27.296875 
Q 14.984375 17.28125 19.8125 11.734375 
Q 24.65625 6.203125 33.40625 6.203125 
Q 37.3125 6.203125 41.140625 7.25 
Q 44.96875 8.296875 48.78125 10.40625 
L 48.78125 2.09375 
Q 45.015625 0.34375 40.984375 -0.53125 
Q 36.96875 -1.421875 32.421875 -1.421875 
Q 20.0625 -1.421875 12.78125 6.34375 
Q 5.515625 14.109375 5.515625 27.296875 
Q 5.515625 40.671875 12.859375 48.328125 
Q 20.21875 56 33.015625 56 
Q 37.15625 56 41.109375 55.140625 
Q 45.0625 54.296875 48.78125 52.59375 
z
" id="DejaVuSans-99"/>
      <path d="M 18.109375 8.203125 
L 18.109375 -20.796875 
L 9.078125 -20.796875 
L 9.078125 54.6875 
L 18.109375 54.6875 
L 18.109375 46.390625 
Q 20.953125 51.265625 25.265625 53.625 
Q 29.59375 56 35.59375 56 
Q 45.5625 56 51.78125 48.09375 
Q 58.015625 40.1875 58.015625 27.296875 
Q 58.015625 14.40625 51.78125 6.484375 
Q 45.5625 -1.421875 35.59375 -1.421875 
Q 29.59375 -1.421875 25.265625 0.953125 
Q 20.953125 3.328125 18.109375 8.203125 
z
M 48.6875 27.296875 
Q 48.6875 37.203125 44.609375 42.84375 
Q 40.53125 48.484375 33.40625 48.484375 
Q 26.265625 48.484375 22.1875 42.84375 
Q 18.109375 37.203125 18.109375 27.296875 
Q 18.109375 17.390625 22.1875 11.75 
Q 26.265625 6.109375 33.40625 6.109375 
Q 40.53125 6.109375 44.609375 11.75 
Q 48.6875 17.390625 48.6875 27.296875 
z
" id="DejaVuSans-112"/>
      <path d="M 9.8125 72.90625 
L 24.515625 72.90625 
L 43.109375 23.296875 
L 61.8125 72.90625 
L 76.515625 72.90625 
L 76.515625 0 
L 66.890625 0 
L 66.890625 64.015625 
L 48.09375 14.015625 
L 38.1875 14.015625 
L 19.390625 64.015625 
L 19.390625 0 
L 9.8125 0 
z
" id="DejaVuSans-77"/>
      <path d="M 30.609375 48.390625 
Q 23.390625 48.390625 19.1875 42.75 
Q 14.984375 37.109375 14.984375 27.296875 
Q 14.984375 17.484375 19.15625 11.84375 
Q 23.34375 6.203125 30.609375 6.203125 
Q 37.796875 6.203125 41.984375 11.859375 
Q 46.1875 17.53125 46.1875 27.296875 
Q 46.1875 37.015625 41.984375 42.703125 
Q 37.796875 48.390625 30.609375 48.390625 
z
M 30.609375 56 
Q 42.328125 56 49.015625 48.375 
Q 55.71875 40.765625 55.71875 27.296875 
Q 55.71875 13.875 49.015625 6.21875 
Q 42.328125 -1.421875 30.609375 -1.421875 
Q 18.84375 -1.421875 12.171875 6.21875 
Q 5.515625 13.875 5.515625 27.296875 
Q 5.515625 40.765625 12.171875 48.375 
Q 18.84375 56 30.609375 56 
z
" id="DejaVuSans-111"/>
      <path d="M 56.203125 29.59375 
L 56.203125 25.203125 
L 14.890625 25.203125 
Q 15.484375 15.921875 20.484375 11.0625 
Q 25.484375 6.203125 34.421875 6.203125 
Q 39.59375 6.203125 44.453125 7.46875 
Q 49.3125 8.734375 54.109375 11.28125 
L 54.109375 2.78125 
Q 49.265625 0.734375 44.1875 -0.34375 
Q 39.109375 -1.421875 33.890625 -1.421875 
Q 20.796875 -1.421875 13.15625 6.1875 
Q 5.515625 13.8125 5.515625 26.8125 
Q 5.515625 40.234375 12.765625 48.109375 
Q 20.015625 56 32.328125 56 
Q 43.359375 56 49.78125 48.890625 
Q 56.203125 41.796875 56.203125 29.59375 
z
M 47.21875 32.234375 
Q 47.125 39.59375 43.09375 43.984375 
Q 39.0625 48.390625 32.421875 48.390625 
Q 24.90625 48.390625 20.390625 44.140625 
Q 15.875 39.890625 15.1875 32.171875 
z
" id="DejaVuSans-101"/>
      <path d="M 54.890625 33.015625 
L 54.890625 0 
L 45.90625 0 
L 45.90625 32.71875 
Q 45.90625 40.484375 42.875 44.328125 
Q 39.84375 48.1875 33.796875 48.1875 
Q 26.515625 48.1875 22.3125 43.546875 
Q 18.109375 38.921875 18.109375 30.90625 
L 18.109375 0 
L 9.078125 0 
L 9.078125 54.6875 
L 18.109375 54.6875 
L 18.109375 46.1875 
Q 21.34375 51.125 25.703125 53.5625 
Q 30.078125 56 35.796875 56 
Q 45.21875 56 50.046875 50.171875 
Q 54.890625 44.34375 54.890625 33.015625 
z
" id="DejaVuSans-110"/>
      <path d="M 18.3125 70.21875 
L 18.3125 54.6875 
L 36.8125 54.6875 
L 36.8125 47.703125 
L 18.3125 47.703125 
L 18.3125 18.015625 
Q 18.3125 11.328125 20.140625 9.421875 
Q 21.96875 7.515625 27.59375 7.515625 
L 36.8125 7.515625 
L 36.8125 0 
L 27.59375 0 
Q 17.1875 0 13.234375 3.875 
Q 9.28125 7.765625 9.28125 18.015625 
L 9.28125 47.703125 
L 2.6875 47.703125 
L 2.6875 54.6875 
L 9.28125 54.6875 
L 9.28125 70.21875 
z
" id="DejaVuSans-116"/>
      <path d="M 8.5 21.578125 
L 8.5 54.6875 
L 17.484375 54.6875 
L 17.484375 21.921875 
Q 17.484375 14.15625 20.5 10.265625 
Q 23.53125 6.390625 29.59375 6.390625 
Q 36.859375 6.390625 41.078125 11.03125 
Q 45.3125 15.671875 45.3125 23.6875 
L 45.3125 54.6875 
L 54.296875 54.6875 
L 54.296875 0 
L 45.3125 0 
L 45.3125 8.40625 
Q 42.046875 3.421875 37.71875 1 
Q 33.40625 -1.421875 27.6875 -1.421875 
Q 18.265625 -1.421875 13.375 4.4375 
Q 8.5 10.296875 8.5 21.578125 
z
M 31.109375 56 
z
" id="DejaVuSans-117"/>
     </defs>
     <g transform="translate(267.180975 357.69595)scale(0.2592 -0.2592)">
      <use xlink:href="#DejaVuSans-109"/>
      <use x="97.412109" xlink:href="#DejaVuSans-99"/>
      <use x="152.392578" xlink:href="#DejaVuSans-112"/>
      <use x="215.869141" xlink:href="#DejaVuSans-77"/>
      <use x="302.148438" xlink:href="#DejaVuSans-111"/>
      <use x="363.330078" xlink:href="#DejaVuSans-109"/>
      <use x="460.742188" xlink:href="#DejaVuSans-101"/>
      <use x="522.265625" xlink:href="#DejaVuSans-110"/>
      <use x="585.644531" xlink:href="#DejaVuSans-116"/>
      <use x="624.853516" xlink:href="#DejaVuSans-117"/>
      <use x="688.232422" xlink:href="#DejaVuSans-109"/>
     </g>
    </g>
   </g>
   <g id="matplotlib.axis_2">
    <g id="ytick_1">
     <g id="line2d_7">
      <defs>
       <path d="M 0 0 
L -3.5 0 
" id="mc2d6bbad9c" style="stroke:#000000;stroke-width:0.8;"/>
      </defs>
      <g>
       <use style="stroke:#000000;stroke-width:0.8;" x="90" xlink:href="#mc2d6bbad9c" y="334.0008"/>
      </g>
     </g>
     <g id="text_2">
      <!-- 0.0 -->
      <defs>
       <path d="M 31.78125 66.40625 
Q 24.171875 66.40625 20.328125 58.90625 
Q 16.5 51.421875 16.5 36.375 
Q 16.5 21.390625 20.328125 13.890625 
Q 24.171875 6.390625 31.78125 6.390625 
Q 39.453125 6.390625 43.28125 13.890625 
Q 47.125 21.390625 47.125 36.375 
Q 47.125 51.421875 43.28125 58.90625 
Q 39.453125 66.40625 31.78125 66.40625 
z
M 31.78125 74.21875 
Q 44.046875 74.21875 50.515625 64.515625 
Q 56.984375 54.828125 56.984375 36.375 
Q 56.984375 17.96875 50.515625 8.265625 
Q 44.046875 -1.421875 31.78125 -1.421875 
Q 19.53125 -1.421875 13.0625 8.265625 
Q 6.59375 17.96875 6.59375 36.375 
Q 6.59375 54.828125 13.0625 64.515625 
Q 19.53125 74.21875 31.78125 74.21875 
z
" id="DejaVuSans-48"/>
       <path d="M 10.6875 12.40625 
L 21 12.40625 
L 21 0 
L 10.6875 0 
z
" id="DejaVuSans-46"/>
      </defs>
      <g transform="translate(41.7791 343.848375)scale(0.2592 -0.2592)">
       <use xlink:href="#DejaVuSans-48"/>
       <use x="63.623047" xlink:href="#DejaVuSans-46"/>
       <use x="95.410156" xlink:href="#DejaVuSans-48"/>
      </g>
     </g>
    </g>
    <g id="ytick_2">
     <g id="line2d_8">
      <g>
       <use style="stroke:#000000;stroke-width:0.8;" x="90" xlink:href="#mc2d6bbad9c" y="210.870107"/>
      </g>
     </g>
     <g id="text_3">
      <!-- 0.5 -->
      <defs>
       <path d="M 10.796875 72.90625 
L 49.515625 72.90625 
L 49.515625 64.59375 
L 19.828125 64.59375 
L 19.828125 46.734375 
Q 21.96875 47.46875 24.109375 47.828125 
Q 26.265625 48.1875 28.421875 48.1875 
Q 40.625 48.1875 47.75 41.5 
Q 54.890625 34.8125 54.890625 23.390625 
Q 54.890625 11.625 47.5625 5.09375 
Q 40.234375 -1.421875 26.90625 -1.421875 
Q 22.3125 -1.421875 17.546875 -0.640625 
Q 12.796875 0.140625 7.71875 1.703125 
L 7.71875 11.625 
Q 12.109375 9.234375 16.796875 8.0625 
Q 21.484375 6.890625 26.703125 6.890625 
Q 35.15625 6.890625 40.078125 11.328125 
Q 45.015625 15.765625 45.015625 23.390625 
Q 45.015625 31 40.078125 35.4375 
Q 35.15625 39.890625 26.703125 39.890625 
Q 22.75 39.890625 18.8125 39.015625 
Q 14.890625 38.140625 10.796875 36.28125 
z
" id="DejaVuSans-53"/>
      </defs>
      <g transform="translate(41.7791 220.717682)scale(0.2592 -0.2592)">
       <use xlink:href="#DejaVuSans-48"/>
       <use x="63.623047" xlink:href="#DejaVuSans-46"/>
       <use x="95.410156" xlink:href="#DejaVuSans-53"/>
      </g>
     </g>
    </g>
    <g id="ytick_3">
     <g id="line2d_9">
      <g>
       <use style="stroke:#000000;stroke-width:0.8;" x="90" xlink:href="#mc2d6bbad9c" y="87.739414"/>
      </g>
     </g>
     <g id="text_4">
      <!-- 1.0 -->
      <defs>
       <path d="M 12.40625 8.296875 
L 28.515625 8.296875 
L 28.515625 63.921875 
L 10.984375 60.40625 
L 10.984375 69.390625 
L 28.421875 72.90625 
L 38.28125 72.90625 
L 38.28125 8.296875 
L 54.390625 8.296875 
L 54.390625 0 
L 12.40625 0 
z
" id="DejaVuSans-49"/>
      </defs>
      <g transform="translate(41.7791 97.586989)scale(0.2592 -0.2592)">
       <use xlink:href="#DejaVuSans-49"/>
       <use x="63.623047" xlink:href="#DejaVuSans-46"/>
       <use x="95.410156" xlink:href="#DejaVuSans-48"/>
      </g>
     </g>
    </g>
    <g id="text_5">
     <!-- Fraction -->
     <defs>
      <path d="M 9.8125 72.90625 
L 51.703125 72.90625 
L 51.703125 64.59375 
L 19.671875 64.59375 
L 19.671875 43.109375 
L 48.578125 43.109375 
L 48.578125 34.8125 
L 19.671875 34.8125 
L 19.671875 0 
L 9.8125 0 
z
" id="DejaVuSans-70"/>
      <path d="M 41.109375 46.296875 
Q 39.59375 47.171875 37.8125 47.578125 
Q 36.03125 48 33.890625 48 
Q 26.265625 48 22.1875 43.046875 
Q 18.109375 38.09375 18.109375 28.8125 
L 18.109375 0 
L 9.078125 0 
L 9.078125 54.6875 
L 18.109375 54.6875 
L 18.109375 46.1875 
Q 20.953125 51.171875 25.484375 53.578125 
Q 30.03125 56 36.53125 56 
Q 37.453125 56 38.578125 55.875 
Q 39.703125 55.765625 41.0625 55.515625 
z
" id="DejaVuSans-114"/>
      <path d="M 34.28125 27.484375 
Q 23.390625 27.484375 19.1875 25 
Q 14.984375 22.515625 14.984375 16.5 
Q 14.984375 11.71875 18.140625 8.90625 
Q 21.296875 6.109375 26.703125 6.109375 
Q 34.1875 6.109375 38.703125 11.40625 
Q 43.21875 16.703125 43.21875 25.484375 
L 43.21875 27.484375 
z
M 52.203125 31.203125 
L 52.203125 0 
L 43.21875 0 
L 43.21875 8.296875 
Q 40.140625 3.328125 35.546875 0.953125 
Q 30.953125 -1.421875 24.3125 -1.421875 
Q 15.921875 -1.421875 10.953125 3.296875 
Q 6 8.015625 6 15.921875 
Q 6 25.140625 12.171875 29.828125 
Q 18.359375 34.515625 30.609375 34.515625 
L 43.21875 34.515625 
L 43.21875 35.40625 
Q 43.21875 41.609375 39.140625 45 
Q 35.0625 48.390625 27.6875 48.390625 
Q 23 48.390625 18.546875 47.265625 
Q 14.109375 46.140625 10.015625 43.890625 
L 10.015625 52.203125 
Q 14.9375 54.109375 19.578125 55.046875 
Q 24.21875 56 28.609375 56 
Q 40.484375 56 46.34375 49.84375 
Q 52.203125 43.703125 52.203125 31.203125 
z
" id="DejaVuSans-97"/>
      <path d="M 9.421875 54.6875 
L 18.40625 54.6875 
L 18.40625 0 
L 9.421875 0 
z
M 9.421875 75.984375 
L 18.40625 75.984375 
L 18.40625 64.59375 
L 9.421875 64.59375 
z
" id="DejaVuSans-105"/>
     </defs>
     <g transform="translate(32.38855 262.298925)rotate(-90)scale(0.2592 -0.2592)">
      <use xlink:href="#DejaVuSans-70"/>
      <use x="57.410156" xlink:href="#DejaVuSans-114"/>
      <use x="98.523438" xlink:href="#DejaVuSans-97"/>
      <use x="159.802734" xlink:href="#DejaVuSans-99"/>
      <use x="214.783203" xlink:href="#DejaVuSans-116"/>
      <use x="253.992188" xlink:href="#DejaVuSans-105"/>
      <use x="281.775391" xlink:href="#DejaVuSans-111"/>
      <use x="342.957031" xlink:href="#DejaVuSans-110"/>
     </g>
    </g>
   </g>
   <g id="LineCollection_1">
    <path clip-path="url(#pff27418173)" d="M 111.461538 170.72942 
L 111.461538 139.951737 
" style="fill:none;stroke:#008000;stroke-width:1.5;"/>
    <path clip-path="url(#pff27418173)" d="M 125.769231 199.740126 
L 125.769231 175.673688 
" style="fill:none;stroke:#008000;stroke-width:1.5;"/>
    <path clip-path="url(#pff27418173)" d="M 140.076923 195.369024 
L 140.076923 174.016407 
" style="fill:none;stroke:#008000;stroke-width:1.5;"/>
    <path clip-path="url(#pff27418173)" d="M 154.384615 171.670378 
L 154.384615 152.289579 
" style="fill:none;stroke:#008000;stroke-width:1.5;"/>
    <path clip-path="url(#pff27418173)" d="M 168.692308 171.306936 
L 168.692308 152.603412 
" style="fill:none;stroke:#008000;stroke-width:1.5;"/>
    <path clip-path="url(#pff27418173)" d="M 183 161.08682 
L 183 142.222346 
" style="fill:none;stroke:#008000;stroke-width:1.5;"/>
    <path clip-path="url(#pff27418173)" d="M 197.307692 179.708672 
L 197.307692 159.944414 
" style="fill:none;stroke:#008000;stroke-width:1.5;"/>
    <path clip-path="url(#pff27418173)" d="M 211.615385 166.188855 
L 211.615385 146.738189 
" style="fill:none;stroke:#008000;stroke-width:1.5;"/>
    <path clip-path="url(#pff27418173)" d="M 225.923077 161.186626 
L 225.923077 142.776404 
" style="fill:none;stroke:#008000;stroke-width:1.5;"/>
    <path clip-path="url(#pff27418173)" d="M 240.230769 164.51253 
L 240.230769 146.492698 
" style="fill:none;stroke:#008000;stroke-width:1.5;"/>
    <path clip-path="url(#pff27418173)" d="M 254.538462 144.903767 
L 254.538462 129.079615 
" style="fill:none;stroke:#008000;stroke-width:1.5;"/>
    <path clip-path="url(#pff27418173)" d="M 268.846154 158.463131 
L 268.846154 139.128781 
" style="fill:none;stroke:#008000;stroke-width:1.5;"/>
    <path clip-path="url(#pff27418173)" d="M 283.153846 159.648636 
L 283.153846 142.201166 
" style="fill:none;stroke:#008000;stroke-width:1.5;"/>
    <path clip-path="url(#pff27418173)" d="M 297.461538 146.771459 
L 297.461538 130.006378 
" style="fill:none;stroke:#008000;stroke-width:1.5;"/>
    <path clip-path="url(#pff27418173)" d="M 311.769231 148.900291 
L 311.769231 131.601775 
" style="fill:none;stroke:#008000;stroke-width:1.5;"/>
    <path clip-path="url(#pff27418173)" d="M 326.076923 157.445547 
L 326.076923 139.379471 
" style="fill:none;stroke:#008000;stroke-width:1.5;"/>
    <path clip-path="url(#pff27418173)" d="M 340.384615 138.460802 
L 340.384615 123.369421 
" style="fill:none;stroke:#008000;stroke-width:1.5;"/>
    <path clip-path="url(#pff27418173)" d="M 354.692308 124.886704 
L 354.692308 111.755082 
" style="fill:none;stroke:#008000;stroke-width:1.5;"/>
    <path clip-path="url(#pff27418173)" d="M 369 127.619534 
L 369 114.160436 
" style="fill:none;stroke:#008000;stroke-width:1.5;"/>
    <path clip-path="url(#pff27418173)" d="M 383.307692 113.577781 
L 383.307692 102.38237 
" style="fill:none;stroke:#008000;stroke-width:1.5;"/>
    <path clip-path="url(#pff27418173)" d="M 397.615385 116.288741 
L 397.615385 103.964884 
" style="fill:none;stroke:#008000;stroke-width:1.5;"/>
    <path clip-path="url(#pff27418173)" d="M 411.923077 127.449502 
L 411.923077 113.469414 
" style="fill:none;stroke:#008000;stroke-width:1.5;"/>
    <path clip-path="url(#pff27418173)" d="M 426.230769 129.324223 
L 426.230769 115.038908 
" style="fill:none;stroke:#008000;stroke-width:1.5;"/>
    <path clip-path="url(#pff27418173)" d="M 440.538462 120.4296 
L 440.538462 107.937579 
" style="fill:none;stroke:#008000;stroke-width:1.5;"/>
    <path clip-path="url(#pff27418173)" d="M 454.846154 122.950803 
L 454.846154 109.876566 
" style="fill:none;stroke:#008000;stroke-width:1.5;"/>
    <path clip-path="url(#pff27418173)" d="M 469.153846 122.261798 
L 469.153846 109.106138 
" style="fill:none;stroke:#008000;stroke-width:1.5;"/>
    <path clip-path="url(#pff27418173)" d="M 483.461538 116.265801 
L 483.461538 105.297029 
" style="fill:none;stroke:#008000;stroke-width:1.5;"/>
    <path clip-path="url(#pff27418173)" d="M 497.769231 107.821631 
L 497.769231 98.018189 
" style="fill:none;stroke:#008000;stroke-width:1.5;"/>
    <path clip-path="url(#pff27418173)" d="M 512.076923 106.543959 
L 512.076923 97.349644 
" style="fill:none;stroke:#008000;stroke-width:1.5;"/>
    <path clip-path="url(#pff27418173)" d="M 526.384615 102.721472 
L 526.384615 94.17139 
" style="fill:none;stroke:#008000;stroke-width:1.5;"/>
    <path clip-path="url(#pff27418173)" d="M 540.692308 100.918677 
L 540.692308 93.382677 
" style="fill:none;stroke:#008000;stroke-width:1.5;"/>
    <path clip-path="url(#pff27418173)" d="M 555 107.537082 
L 555 96.913673 
" style="fill:none;stroke:#008000;stroke-width:1.5;"/>
    <path clip-path="url(#pff27418173)" d="M 569.307692 115.661003 
L 569.307692 103.597627 
" style="fill:none;stroke:#008000;stroke-width:1.5;"/>
    <path clip-path="url(#pff27418173)" d="M 583.615385 102.614381 
L 583.615385 94.124423 
" style="fill:none;stroke:#008000;stroke-width:1.5;"/>
    <path clip-path="url(#pff27418173)" d="M 597.923077 102.137704 
L 597.923077 94.363438 
" style="fill:none;stroke:#008000;stroke-width:1.5;"/>
    <path clip-path="url(#pff27418173)" d="M 612.230769 115.83165 
L 612.230769 104.421975 
" style="fill:none;stroke:#008000;stroke-width:1.5;"/>
    <path clip-path="url(#pff27418173)" d="M 626.538462 99.133772 
L 626.538462 91.61708 
" style="fill:none;stroke:#008000;stroke-width:1.5;"/>
    <path clip-path="url(#pff27418173)" d="M 640.846154 102.200901 
L 640.846154 93.943218 
" style="fill:none;stroke:#008000;stroke-width:1.5;"/>
   </g>
   <g id="LineCollection_2">
    <path clip-path="url(#pff27418173)" d="M 111.461538 184.256092 
L 111.461538 158.328676 
" style="fill:none;stroke:#ff0000;stroke-width:1.5;"/>
    <path clip-path="url(#pff27418173)" d="M 125.769231 223.7131 
L 125.769231 205.97103 
" style="fill:none;stroke:#ff0000;stroke-width:1.5;"/>
    <path clip-path="url(#pff27418173)" d="M 140.076923 183.970357 
L 140.076923 165.340037 
" style="fill:none;stroke:#ff0000;stroke-width:1.5;"/>
    <path clip-path="url(#pff27418173)" d="M 154.384615 178.549725 
L 154.384615 162.251432 
" style="fill:none;stroke:#ff0000;stroke-width:1.5;"/>
    <path clip-path="url(#pff27418173)" d="M 168.692308 168.709447 
L 168.692308 152.827858 
" style="fill:none;stroke:#ff0000;stroke-width:1.5;"/>
    <path clip-path="url(#pff27418173)" d="M 183 190.546901 
L 183 175.083123 
" style="fill:none;stroke:#ff0000;stroke-width:1.5;"/>
    <path clip-path="url(#pff27418173)" d="M 197.307692 193.969995 
L 197.307692 177.874121 
" style="fill:none;stroke:#ff0000;stroke-width:1.5;"/>
    <path clip-path="url(#pff27418173)" d="M 211.615385 189.329527 
L 211.615385 173.307955 
" style="fill:none;stroke:#ff0000;stroke-width:1.5;"/>
    <path clip-path="url(#pff27418173)" d="M 225.923077 186.607801 
L 225.923077 171.286868 
" style="fill:none;stroke:#ff0000;stroke-width:1.5;"/>
    <path clip-path="url(#pff27418173)" d="M 240.230769 190.045506 
L 240.230769 175.726211 
" style="fill:none;stroke:#ff0000;stroke-width:1.5;"/>
    <path clip-path="url(#pff27418173)" d="M 254.538462 198.104847 
L 254.538462 185.837108 
" style="fill:none;stroke:#ff0000;stroke-width:1.5;"/>
    <path clip-path="url(#pff27418173)" d="M 268.846154 210.612175 
L 268.846154 196.810516 
" style="fill:none;stroke:#ff0000;stroke-width:1.5;"/>
    <path clip-path="url(#pff27418173)" d="M 283.153846 188.738557 
L 283.153846 175.13696 
" style="fill:none;stroke:#ff0000;stroke-width:1.5;"/>
    <path clip-path="url(#pff27418173)" d="M 297.461538 190.490332 
L 297.461538 177.714798 
" style="fill:none;stroke:#ff0000;stroke-width:1.5;"/>
    <path clip-path="url(#pff27418173)" d="M 311.769231 197.106124 
L 311.769231 184.482777 
" style="fill:none;stroke:#ff0000;stroke-width:1.5;"/>
    <path clip-path="url(#pff27418173)" d="M 326.076923 189.148387 
L 326.076923 175.762276 
" style="fill:none;stroke:#ff0000;stroke-width:1.5;"/>
    <path clip-path="url(#pff27418173)" d="M 340.384615 174.382091 
L 340.384615 162.665054 
" style="fill:none;stroke:#ff0000;stroke-width:1.5;"/>
    <path clip-path="url(#pff27418173)" d="M 354.692308 167.81896 
L 354.692308 156.442789 
" style="fill:none;stroke:#ff0000;stroke-width:1.5;"/>
    <path clip-path="url(#pff27418173)" d="M 369 162.891401 
L 369 151.436932 
" style="fill:none;stroke:#ff0000;stroke-width:1.5;"/>
    <path clip-path="url(#pff27418173)" d="M 383.307692 164.53664 
L 383.307692 154.268921 
" style="fill:none;stroke:#ff0000;stroke-width:1.5;"/>
    <path clip-path="url(#pff27418173)" d="M 397.615385 164.448067 
L 397.615385 153.833222 
" style="fill:none;stroke:#ff0000;stroke-width:1.5;"/>
    <path clip-path="url(#pff27418173)" d="M 411.923077 155.15807 
L 411.923077 144.934953 
" style="fill:none;stroke:#ff0000;stroke-width:1.5;"/>
    <path clip-path="url(#pff27418173)" d="M 426.230769 140.357631 
L 426.230769 129.089357 
" style="fill:none;stroke:#ff0000;stroke-width:1.5;"/>
    <path clip-path="url(#pff27418173)" d="M 440.538462 143.99572 
L 440.538462 134.092019 
" style="fill:none;stroke:#ff0000;stroke-width:1.5;"/>
    <path clip-path="url(#pff27418173)" d="M 454.846154 143.318231 
L 454.846154 132.48931 
" style="fill:none;stroke:#ff0000;stroke-width:1.5;"/>
    <path clip-path="url(#pff27418173)" d="M 469.153846 146.235266 
L 469.153846 136.982919 
" style="fill:none;stroke:#ff0000;stroke-width:1.5;"/>
    <path clip-path="url(#pff27418173)" d="M 483.461538 125.887441 
L 483.461538 117.997327 
" style="fill:none;stroke:#ff0000;stroke-width:1.5;"/>
    <path clip-path="url(#pff27418173)" d="M 497.769231 131.229833 
L 497.769231 122.81091 
" style="fill:none;stroke:#ff0000;stroke-width:1.5;"/>
    <path clip-path="url(#pff27418173)" d="M 512.076923 124.77195 
L 512.076923 117.342311 
" style="fill:none;stroke:#ff0000;stroke-width:1.5;"/>
    <path clip-path="url(#pff27418173)" d="M 526.384615 127.326318 
L 526.384615 121.236534 
" style="fill:none;stroke:#ff0000;stroke-width:1.5;"/>
    <path clip-path="url(#pff27418173)" d="M 540.692308 121.989207 
L 540.692308 116.122574 
" style="fill:none;stroke:#ff0000;stroke-width:1.5;"/>
    <path clip-path="url(#pff27418173)" d="M 555 120.869621 
L 555 116.174553 
" style="fill:none;stroke:#ff0000;stroke-width:1.5;"/>
    <path clip-path="url(#pff27418173)" d="M 569.307692 116.730441 
L 569.307692 112.28347 
" style="fill:none;stroke:#ff0000;stroke-width:1.5;"/>
    <path clip-path="url(#pff27418173)" d="M 583.615385 115.417061 
L 583.615385 109.979615 
" style="fill:none;stroke:#ff0000;stroke-width:1.5;"/>
    <path clip-path="url(#pff27418173)" d="M 597.923077 100.064558 
L 597.923077 96.436583 
" style="fill:none;stroke:#ff0000;stroke-width:1.5;"/>
    <path clip-path="url(#pff27418173)" d="M 612.230769 108.69123 
L 612.230769 105.670975 
" style="fill:none;stroke:#ff0000;stroke-width:1.5;"/>
    <path clip-path="url(#pff27418173)" d="M 626.538462 89.723938 
L 626.538462 89.663801 
" style="fill:none;stroke:#ff0000;stroke-width:1.5;"/>
    <path clip-path="url(#pff27418173)" d="M 640.846154 94.519056 
L 640.846154 91.513832 
" style="fill:none;stroke:#ff0000;stroke-width:1.5;"/>
   </g>
   <g id="LineCollection_3">
    <path clip-path="url(#pff27418173)" d="M 111.461538 229.807908 
L 111.461538 202.106971 
" style="fill:none;stroke:#0000ff;stroke-width:1.5;"/>
    <path clip-path="url(#pff27418173)" d="M 125.769231 271.066704 
L 125.769231 255.360161 
" style="fill:none;stroke:#0000ff;stroke-width:1.5;"/>
    <path clip-path="url(#pff27418173)" d="M 140.076923 246.312723 
L 140.076923 228.46665 
" style="fill:none;stroke:#0000ff;stroke-width:1.5;"/>
    <path clip-path="url(#pff27418173)" d="M 154.384615 228.31468 
L 154.384615 211.127787 
" style="fill:none;stroke:#0000ff;stroke-width:1.5;"/>
    <path clip-path="url(#pff27418173)" d="M 168.692308 221.581015 
L 168.692308 204.370187 
" style="fill:none;stroke:#0000ff;stroke-width:1.5;"/>
    <path clip-path="url(#pff27418173)" d="M 183 230.197115 
L 183 213.911028 
" style="fill:none;stroke:#0000ff;stroke-width:1.5;"/>
    <path clip-path="url(#pff27418173)" d="M 197.307692 243.287639 
L 197.307692 227.275639 
" style="fill:none;stroke:#0000ff;stroke-width:1.5;"/>
    <path clip-path="url(#pff27418173)" d="M 211.615385 232.276969 
L 211.615385 215.578406 
" style="fill:none;stroke:#0000ff;stroke-width:1.5;"/>
    <path clip-path="url(#pff27418173)" d="M 225.923077 227.498572 
L 225.923077 211.293558 
" style="fill:none;stroke:#0000ff;stroke-width:1.5;"/>
    <path clip-path="url(#pff27418173)" d="M 240.230769 232.05064 
L 240.230769 216.885005 
" style="fill:none;stroke:#0000ff;stroke-width:1.5;"/>
    <path clip-path="url(#pff27418173)" d="M 254.538462 227.077896 
L 254.538462 213.675988 
" style="fill:none;stroke:#0000ff;stroke-width:1.5;"/>
    <path clip-path="url(#pff27418173)" d="M 268.846154 243.301086 
L 268.846154 228.727947 
" style="fill:none;stroke:#0000ff;stroke-width:1.5;"/>
    <path clip-path="url(#pff27418173)" d="M 283.153846 228.341705 
L 283.153846 213.566162 
" style="fill:none;stroke:#0000ff;stroke-width:1.5;"/>
    <path clip-path="url(#pff27418173)" d="M 297.461538 222.128519 
L 297.461538 207.736878 
" style="fill:none;stroke:#0000ff;stroke-width:1.5;"/>
    <path clip-path="url(#pff27418173)" d="M 311.769231 228.399153 
L 311.769231 214.263044 
" style="fill:none;stroke:#0000ff;stroke-width:1.5;"/>
    <path clip-path="url(#pff27418173)" d="M 326.076923 227.298787 
L 326.076923 212.286455 
" style="fill:none;stroke:#0000ff;stroke-width:1.5;"/>
    <path clip-path="url(#pff27418173)" d="M 340.384615 204.539455 
L 340.384615 190.532172 
" style="fill:none;stroke:#0000ff;stroke-width:1.5;"/>
    <path clip-path="url(#pff27418173)" d="M 354.692308 190.242938 
L 354.692308 176.705458 
" style="fill:none;stroke:#0000ff;stroke-width:1.5;"/>
    <path clip-path="url(#pff27418173)" d="M 369 187.891273 
L 369 174.046923 
" style="fill:none;stroke:#0000ff;stroke-width:1.5;"/>
    <path clip-path="url(#pff27418173)" d="M 383.307692 179.913896 
L 383.307692 167.592709 
" style="fill:none;stroke:#0000ff;stroke-width:1.5;"/>
    <path clip-path="url(#pff27418173)" d="M 397.615385 181.550354 
L 397.615385 168.52369 
" style="fill:none;stroke:#0000ff;stroke-width:1.5;"/>
    <path clip-path="url(#pff27418173)" d="M 411.923077 181.337079 
L 411.923077 167.638902 
" style="fill:none;stroke:#0000ff;stroke-width:1.5;"/>
    <path clip-path="url(#pff27418173)" d="M 426.230769 170.13716 
L 426.230769 155.051732 
" style="fill:none;stroke:#0000ff;stroke-width:1.5;"/>
    <path clip-path="url(#pff27418173)" d="M 440.538462 166.611186 
L 440.538462 153.346497 
" style="fill:none;stroke:#0000ff;stroke-width:1.5;"/>
    <path clip-path="url(#pff27418173)" d="M 454.846154 167.806908 
L 454.846154 153.667064 
" style="fill:none;stroke:#0000ff;stroke-width:1.5;"/>
    <path clip-path="url(#pff27418173)" d="M 469.153846 170.01562 
L 469.153846 156.86593 
" style="fill:none;stroke:#0000ff;stroke-width:1.5;"/>
    <path clip-path="url(#pff27418173)" d="M 483.461538 147.707859 
L 483.461538 135.860356 
" style="fill:none;stroke:#0000ff;stroke-width:1.5;"/>
    <path clip-path="url(#pff27418173)" d="M 497.769231 145.486931 
L 497.769231 134.071946 
" style="fill:none;stroke:#0000ff;stroke-width:1.5;"/>
    <path clip-path="url(#pff27418173)" d="M 512.076923 138.639101 
L 512.076923 128.045584 
" style="fill:none;stroke:#0000ff;stroke-width:1.5;"/>
    <path clip-path="url(#pff27418173)" d="M 526.384615 138.061981 
L 526.384615 128.737339 
" style="fill:none;stroke:#0000ff;stroke-width:1.5;"/>
    <path clip-path="url(#pff27418173)" d="M 540.692308 131.603437 
L 540.692308 122.937255 
" style="fill:none;stroke:#0000ff;stroke-width:1.5;"/>
    <path clip-path="url(#pff27418173)" d="M 555 136.343483 
L 555 126.051128 
" style="fill:none;stroke:#0000ff;stroke-width:1.5;"/>
    <path clip-path="url(#pff27418173)" d="M 569.307692 139.762619 
L 569.307692 128.272421 
" style="fill:none;stroke:#0000ff;stroke-width:1.5;"/>
    <path clip-path="url(#pff27418173)" d="M 583.615385 126.868255 
L 583.615385 117.633669 
" style="fill:none;stroke:#0000ff;stroke-width:1.5;"/>
    <path clip-path="url(#pff27418173)" d="M 597.923077 112.419552 
L 597.923077 104.206608 
" style="fill:none;stroke:#0000ff;stroke-width:1.5;"/>
    <path clip-path="url(#pff27418173)" d="M 612.230769 133.231913 
L 612.230769 122.370237 
" style="fill:none;stroke:#0000ff;stroke-width:1.5;"/>
    <path clip-path="url(#pff27418173)" d="M 626.538462 100.99791 
L 626.538462 93.540646 
" style="fill:none;stroke:#0000ff;stroke-width:1.5;"/>
    <path clip-path="url(#pff27418173)" d="M 640.846154 107.416837 
L 640.846154 98.838514 
" style="fill:none;stroke:#0000ff;stroke-width:1.5;"/>
   </g>
   <g id="line2d_10">
    <path clip-path="url(#pff27418173)" d="M 104.307692 155.340579 
L 118.615385 155.340579 
L 118.615385 187.706907 
L 132.923077 187.706907 
L 132.923077 184.692715 
L 147.230769 184.692715 
L 147.230769 161.979979 
L 161.538462 161.979979 
L 161.538462 161.955174 
L 175.846154 161.955174 
L 175.846154 151.654583 
L 190.153846 151.654583 
L 190.153846 169.826543 
L 204.461538 169.826543 
L 204.461538 156.463522 
L 218.769231 156.463522 
L 218.769231 151.981515 
L 233.076923 151.981515 
L 233.076923 155.502614 
L 247.384615 155.502614 
L 247.384615 136.991691 
L 261.692308 136.991691 
L 261.692308 148.795956 
L 276 148.795956 
L 276 150.924901 
L 290.307692 150.924901 
L 290.307692 138.388919 
L 304.615385 138.388919 
L 304.615385 140.251033 
L 318.923077 140.251033 
L 318.923077 148.412509 
L 333.230769 148.412509 
L 333.230769 130.915111 
L 347.538462 130.915111 
L 347.538462 118.320893 
L 361.846154 118.320893 
L 361.846154 120.889985 
L 376.153846 120.889985 
L 376.153846 107.980076 
L 390.461538 107.980076 
L 390.461538 110.126813 
L 404.769231 110.126813 
L 404.769231 120.459458 
L 419.076923 120.459458 
L 419.076923 122.181566 
L 433.384615 122.181566 
L 433.384615 114.18359 
L 447.692308 114.18359 
L 447.692308 116.413685 
L 462 116.413685 
L 462 115.683968 
L 476.307692 115.683968 
L 476.307692 110.781415 
L 490.615385 110.781415 
L 490.615385 102.91991 
L 504.923077 102.91991 
L 504.923077 101.946802 
L 519.230769 101.946802 
L 519.230769 98.446431 
L 533.538462 98.446431 
L 533.538462 97.150677 
L 547.846154 97.150677 
L 547.846154 102.225378 
L 562.153846 102.225378 
L 562.153846 109.629315 
L 576.461538 109.629315 
L 576.461538 98.369402 
L 590.769231 98.369402 
L 590.769231 98.250571 
L 605.076923 98.250571 
L 605.076923 110.126813 
L 619.384615 110.126813 
L 619.384615 95.375426 
L 633.692308 95.375426 
L 633.692308 98.072059 
L 648 98.072059 
" style="fill:none;stroke:#008000;stroke-linecap:square;stroke-width:1.5;"/>
   </g>
   <g id="line2d_11">
    <defs>
     <path d="M 2 0 
L -2 -0 
" id="m34ce9709a8" style="stroke:#008000;"/>
    </defs>
    <g clip-path="url(#pff27418173)">
     <use style="fill:#008000;stroke:#008000;" x="111.461538" xlink:href="#m34ce9709a8" y="170.72942"/>
     <use style="fill:#008000;stroke:#008000;" x="125.769231" xlink:href="#m34ce9709a8" y="199.740126"/>
     <use style="fill:#008000;stroke:#008000;" x="140.076923" xlink:href="#m34ce9709a8" y="195.369024"/>
     <use style="fill:#008000;stroke:#008000;" x="154.384615" xlink:href="#m34ce9709a8" y="171.670378"/>
     <use style="fill:#008000;stroke:#008000;" x="168.692308" xlink:href="#m34ce9709a8" y="171.306936"/>
     <use style="fill:#008000;stroke:#008000;" x="183" xlink:href="#m34ce9709a8" y="161.08682"/>
     <use style="fill:#008000;stroke:#008000;" x="197.307692" xlink:href="#m34ce9709a8" y="179.708672"/>
     <use style="fill:#008000;stroke:#008000;" x="211.615385" xlink:href="#m34ce9709a8" y="166.188855"/>
     <use style="fill:#008000;stroke:#008000;" x="225.923077" xlink:href="#m34ce9709a8" y="161.186626"/>
     <use style="fill:#008000;stroke:#008000;" x="240.230769" xlink:href="#m34ce9709a8" y="164.51253"/>
     <use style="fill:#008000;stroke:#008000;" x="254.538462" xlink:href="#m34ce9709a8" y="144.903767"/>
     <use style="fill:#008000;stroke:#008000;" x="268.846154" xlink:href="#m34ce9709a8" y="158.463131"/>
     <use style="fill:#008000;stroke:#008000;" x="283.153846" xlink:href="#m34ce9709a8" y="159.648636"/>
     <use style="fill:#008000;stroke:#008000;" x="297.461538" xlink:href="#m34ce9709a8" y="146.771459"/>
     <use style="fill:#008000;stroke:#008000;" x="311.769231" xlink:href="#m34ce9709a8" y="148.900291"/>
     <use style="fill:#008000;stroke:#008000;" x="326.076923" xlink:href="#m34ce9709a8" y="157.445547"/>
     <use style="fill:#008000;stroke:#008000;" x="340.384615" xlink:href="#m34ce9709a8" y="138.460802"/>
     <use style="fill:#008000;stroke:#008000;" x="354.692308" xlink:href="#m34ce9709a8" y="124.886704"/>
     <use style="fill:#008000;stroke:#008000;" x="369" xlink:href="#m34ce9709a8" y="127.619534"/>
     <use style="fill:#008000;stroke:#008000;" x="383.307692" xlink:href="#m34ce9709a8" y="113.577781"/>
     <use style="fill:#008000;stroke:#008000;" x="397.615385" xlink:href="#m34ce9709a8" y="116.288741"/>
     <use style="fill:#008000;stroke:#008000;" x="411.923077" xlink:href="#m34ce9709a8" y="127.449502"/>
     <use style="fill:#008000;stroke:#008000;" x="426.230769" xlink:href="#m34ce9709a8" y="129.324223"/>
     <use style="fill:#008000;stroke:#008000;" x="440.538462" xlink:href="#m34ce9709a8" y="120.4296"/>
     <use style="fill:#008000;stroke:#008000;" x="454.846154" xlink:href="#m34ce9709a8" y="122.950803"/>
     <use style="fill:#008000;stroke:#008000;" x="469.153846" xlink:href="#m34ce9709a8" y="122.261798"/>
     <use style="fill:#008000;stroke:#008000;" x="483.461538" xlink:href="#m34ce9709a8" y="116.265801"/>
     <use style="fill:#008000;stroke:#008000;" x="497.769231" xlink:href="#m34ce9709a8" y="107.821631"/>
     <use style="fill:#008000;stroke:#008000;" x="512.076923" xlink:href="#m34ce9709a8" y="106.543959"/>
     <use style="fill:#008000;stroke:#008000;" x="526.384615" xlink:href="#m34ce9709a8" y="102.721472"/>
     <use style="fill:#008000;stroke:#008000;" x="540.692308" xlink:href="#m34ce9709a8" y="100.918677"/>
     <use style="fill:#008000;stroke:#008000;" x="555" xlink:href="#m34ce9709a8" y="107.537082"/>
     <use style="fill:#008000;stroke:#008000;" x="569.307692" xlink:href="#m34ce9709a8" y="115.661003"/>
     <use style="fill:#008000;stroke:#008000;" x="583.615385" xlink:href="#m34ce9709a8" y="102.614381"/>
     <use style="fill:#008000;stroke:#008000;" x="597.923077" xlink:href="#m34ce9709a8" y="102.137704"/>
     <use style="fill:#008000;stroke:#008000;" x="612.230769" xlink:href="#m34ce9709a8" y="115.83165"/>
     <use style="fill:#008000;stroke:#008000;" x="626.538462" xlink:href="#m34ce9709a8" y="99.133772"/>
     <use style="fill:#008000;stroke:#008000;" x="640.846154" xlink:href="#m34ce9709a8" y="102.200901"/>
    </g>
   </g>
   <g id="line2d_12">
    <g clip-path="url(#pff27418173)">
     <use style="fill:#008000;stroke:#008000;" x="111.461538" xlink:href="#m34ce9709a8" y="139.951737"/>
     <use style="fill:#008000;stroke:#008000;" x="125.769231" xlink:href="#m34ce9709a8" y="175.673688"/>
     <use style="fill:#008000;stroke:#008000;" x="140.076923" xlink:href="#m34ce9709a8" y="174.016407"/>
     <use style="fill:#008000;stroke:#008000;" x="154.384615" xlink:href="#m34ce9709a8" y="152.289579"/>
     <use style="fill:#008000;stroke:#008000;" x="168.692308" xlink:href="#m34ce9709a8" y="152.603412"/>
     <use style="fill:#008000;stroke:#008000;" x="183" xlink:href="#m34ce9709a8" y="142.222346"/>
     <use style="fill:#008000;stroke:#008000;" x="197.307692" xlink:href="#m34ce9709a8" y="159.944414"/>
     <use style="fill:#008000;stroke:#008000;" x="211.615385" xlink:href="#m34ce9709a8" y="146.738189"/>
     <use style="fill:#008000;stroke:#008000;" x="225.923077" xlink:href="#m34ce9709a8" y="142.776404"/>
     <use style="fill:#008000;stroke:#008000;" x="240.230769" xlink:href="#m34ce9709a8" y="146.492698"/>
     <use style="fill:#008000;stroke:#008000;" x="254.538462" xlink:href="#m34ce9709a8" y="129.079615"/>
     <use style="fill:#008000;stroke:#008000;" x="268.846154" xlink:href="#m34ce9709a8" y="139.128781"/>
     <use style="fill:#008000;stroke:#008000;" x="283.153846" xlink:href="#m34ce9709a8" y="142.201166"/>
     <use style="fill:#008000;stroke:#008000;" x="297.461538" xlink:href="#m34ce9709a8" y="130.006378"/>
     <use style="fill:#008000;stroke:#008000;" x="311.769231" xlink:href="#m34ce9709a8" y="131.601775"/>
     <use style="fill:#008000;stroke:#008000;" x="326.076923" xlink:href="#m34ce9709a8" y="139.379471"/>
     <use style="fill:#008000;stroke:#008000;" x="340.384615" xlink:href="#m34ce9709a8" y="123.369421"/>
     <use style="fill:#008000;stroke:#008000;" x="354.692308" xlink:href="#m34ce9709a8" y="111.755082"/>
     <use style="fill:#008000;stroke:#008000;" x="369" xlink:href="#m34ce9709a8" y="114.160436"/>
     <use style="fill:#008000;stroke:#008000;" x="383.307692" xlink:href="#m34ce9709a8" y="102.38237"/>
     <use style="fill:#008000;stroke:#008000;" x="397.615385" xlink:href="#m34ce9709a8" y="103.964884"/>
     <use style="fill:#008000;stroke:#008000;" x="411.923077" xlink:href="#m34ce9709a8" y="113.469414"/>
     <use style="fill:#008000;stroke:#008000;" x="426.230769" xlink:href="#m34ce9709a8" y="115.038908"/>
     <use style="fill:#008000;stroke:#008000;" x="440.538462" xlink:href="#m34ce9709a8" y="107.937579"/>
     <use style="fill:#008000;stroke:#008000;" x="454.846154" xlink:href="#m34ce9709a8" y="109.876566"/>
     <use style="fill:#008000;stroke:#008000;" x="469.153846" xlink:href="#m34ce9709a8" y="109.106138"/>
     <use style="fill:#008000;stroke:#008000;" x="483.461538" xlink:href="#m34ce9709a8" y="105.297029"/>
     <use style="fill:#008000;stroke:#008000;" x="497.769231" xlink:href="#m34ce9709a8" y="98.018189"/>
     <use style="fill:#008000;stroke:#008000;" x="512.076923" xlink:href="#m34ce9709a8" y="97.349644"/>
     <use style="fill:#008000;stroke:#008000;" x="526.384615" xlink:href="#m34ce9709a8" y="94.17139"/>
     <use style="fill:#008000;stroke:#008000;" x="540.692308" xlink:href="#m34ce9709a8" y="93.382677"/>
     <use style="fill:#008000;stroke:#008000;" x="555" xlink:href="#m34ce9709a8" y="96.913673"/>
     <use style="fill:#008000;stroke:#008000;" x="569.307692" xlink:href="#m34ce9709a8" y="103.597627"/>
     <use style="fill:#008000;stroke:#008000;" x="583.615385" xlink:href="#m34ce9709a8" y="94.124423"/>
     <use style="fill:#008000;stroke:#008000;" x="597.923077" xlink:href="#m34ce9709a8" y="94.363438"/>
     <use style="fill:#008000;stroke:#008000;" x="612.230769" xlink:href="#m34ce9709a8" y="104.421975"/>
     <use style="fill:#008000;stroke:#008000;" x="626.538462" xlink:href="#m34ce9709a8" y="91.61708"/>
     <use style="fill:#008000;stroke:#008000;" x="640.846154" xlink:href="#m34ce9709a8" y="93.943218"/>
    </g>
   </g>
   <g id="line2d_13">
    <path clip-path="url(#pff27418173)" d="M 104.307692 171.292384 
L 118.615385 171.292384 
L 118.615385 214.842065 
L 132.923077 214.842065 
L 132.923077 174.655197 
L 147.230769 174.655197 
L 147.230769 170.400578 
L 161.538462 170.400578 
L 161.538462 160.768653 
L 175.846154 160.768653 
L 175.846154 182.815012 
L 190.153846 182.815012 
L 190.153846 185.922058 
L 204.461538 185.922058 
L 204.461538 181.318741 
L 218.769231 181.318741 
L 218.769231 178.947335 
L 233.076923 178.947335 
L 233.076923 182.885859 
L 247.384615 182.885859 
L 247.384615 191.970977 
L 261.692308 191.970977 
L 261.692308 203.711346 
L 276 203.711346 
L 276 181.937758 
L 290.307692 181.937758 
L 290.307692 184.102565 
L 304.615385 184.102565 
L 304.615385 190.79445 
L 318.923077 190.79445 
L 318.923077 182.455332 
L 333.230769 182.455332 
L 333.230769 168.523572 
L 347.538462 168.523572 
L 347.538462 162.130874 
L 361.846154 162.130874 
L 361.846154 157.164166 
L 376.153846 157.164166 
L 376.153846 159.40278 
L 390.461538 159.40278 
L 390.461538 159.140644 
L 404.769231 159.140644 
L 404.769231 150.046512 
L 419.076923 150.046512 
L 419.076923 134.723494 
L 433.384615 134.723494 
L 433.384615 139.043869 
L 447.692308 139.043869 
L 447.692308 137.90377 
L 462 137.90377 
L 462 141.609092 
L 476.307692 141.609092 
L 476.307692 121.942384 
L 490.615385 121.942384 
L 490.615385 127.020371 
L 504.923077 127.020371 
L 504.923077 121.057131 
L 519.230769 121.057131 
L 519.230769 124.281426 
L 533.538462 124.281426 
L 533.538462 119.055891 
L 547.846154 119.055891 
L 547.846154 118.522087 
L 562.153846 118.522087 
L 562.153846 114.506956 
L 576.461538 114.506956 
L 576.461538 112.698338 
L 590.769231 112.698338 
L 590.769231 98.250571 
L 605.076923 98.250571 
L 605.076923 107.181102 
L 619.384615 107.181102 
L 619.384615 89.693869 
L 633.692308 89.693869 
L 633.692308 93.016444 
L 648 93.016444 
" style="fill:none;stroke:#ff0000;stroke-linecap:square;stroke-width:1.5;"/>
   </g>
   <g id="line2d_14">
    <defs>
     <path d="M 2 0 
L -2 -0 
" id="mf14a4d6a61" style="stroke:#ff0000;"/>
    </defs>
    <g clip-path="url(#pff27418173)">
     <use style="fill:#ff0000;stroke:#ff0000;" x="111.461538" xlink:href="#mf14a4d6a61" y="184.256092"/>
     <use style="fill:#ff0000;stroke:#ff0000;" x="125.769231" xlink:href="#mf14a4d6a61" y="223.7131"/>
     <use style="fill:#ff0000;stroke:#ff0000;" x="140.076923" xlink:href="#mf14a4d6a61" y="183.970357"/>
     <use style="fill:#ff0000;stroke:#ff0000;" x="154.384615" xlink:href="#mf14a4d6a61" y="178.549725"/>
     <use style="fill:#ff0000;stroke:#ff0000;" x="168.692308" xlink:href="#mf14a4d6a61" y="168.709447"/>
     <use style="fill:#ff0000;stroke:#ff0000;" x="183" xlink:href="#mf14a4d6a61" y="190.546901"/>
     <use style="fill:#ff0000;stroke:#ff0000;" x="197.307692" xlink:href="#mf14a4d6a61" y="193.969995"/>
     <use style="fill:#ff0000;stroke:#ff0000;" x="211.615385" xlink:href="#mf14a4d6a61" y="189.329527"/>
     <use style="fill:#ff0000;stroke:#ff0000;" x="225.923077" xlink:href="#mf14a4d6a61" y="186.607801"/>
     <use style="fill:#ff0000;stroke:#ff0000;" x="240.230769" xlink:href="#mf14a4d6a61" y="190.045506"/>
     <use style="fill:#ff0000;stroke:#ff0000;" x="254.538462" xlink:href="#mf14a4d6a61" y="198.104847"/>
     <use style="fill:#ff0000;stroke:#ff0000;" x="268.846154" xlink:href="#mf14a4d6a61" y="210.612175"/>
     <use style="fill:#ff0000;stroke:#ff0000;" x="283.153846" xlink:href="#mf14a4d6a61" y="188.738557"/>
     <use style="fill:#ff0000;stroke:#ff0000;" x="297.461538" xlink:href="#mf14a4d6a61" y="190.490332"/>
     <use style="fill:#ff0000;stroke:#ff0000;" x="311.769231" xlink:href="#mf14a4d6a61" y="197.106124"/>
     <use style="fill:#ff0000;stroke:#ff0000;" x="326.076923" xlink:href="#mf14a4d6a61" y="189.148387"/>
     <use style="fill:#ff0000;stroke:#ff0000;" x="340.384615" xlink:href="#mf14a4d6a61" y="174.382091"/>
     <use style="fill:#ff0000;stroke:#ff0000;" x="354.692308" xlink:href="#mf14a4d6a61" y="167.81896"/>
     <use style="fill:#ff0000;stroke:#ff0000;" x="369" xlink:href="#mf14a4d6a61" y="162.891401"/>
     <use style="fill:#ff0000;stroke:#ff0000;" x="383.307692" xlink:href="#mf14a4d6a61" y="164.53664"/>
     <use style="fill:#ff0000;stroke:#ff0000;" x="397.615385" xlink:href="#mf14a4d6a61" y="164.448067"/>
     <use style="fill:#ff0000;stroke:#ff0000;" x="411.923077" xlink:href="#mf14a4d6a61" y="155.15807"/>
     <use style="fill:#ff0000;stroke:#ff0000;" x="426.230769" xlink:href="#mf14a4d6a61" y="140.357631"/>
     <use style="fill:#ff0000;stroke:#ff0000;" x="440.538462" xlink:href="#mf14a4d6a61" y="143.99572"/>
     <use style="fill:#ff0000;stroke:#ff0000;" x="454.846154" xlink:href="#mf14a4d6a61" y="143.318231"/>
     <use style="fill:#ff0000;stroke:#ff0000;" x="469.153846" xlink:href="#mf14a4d6a61" y="146.235266"/>
     <use style="fill:#ff0000;stroke:#ff0000;" x="483.461538" xlink:href="#mf14a4d6a61" y="125.887441"/>
     <use style="fill:#ff0000;stroke:#ff0000;" x="497.769231" xlink:href="#mf14a4d6a61" y="131.229833"/>
     <use style="fill:#ff0000;stroke:#ff0000;" x="512.076923" xlink:href="#mf14a4d6a61" y="124.77195"/>
     <use style="fill:#ff0000;stroke:#ff0000;" x="526.384615" xlink:href="#mf14a4d6a61" y="127.326318"/>
     <use style="fill:#ff0000;stroke:#ff0000;" x="540.692308" xlink:href="#mf14a4d6a61" y="121.989207"/>
     <use style="fill:#ff0000;stroke:#ff0000;" x="555" xlink:href="#mf14a4d6a61" y="120.869621"/>
     <use style="fill:#ff0000;stroke:#ff0000;" x="569.307692" xlink:href="#mf14a4d6a61" y="116.730441"/>
     <use style="fill:#ff0000;stroke:#ff0000;" x="583.615385" xlink:href="#mf14a4d6a61" y="115.417061"/>
     <use style="fill:#ff0000;stroke:#ff0000;" x="597.923077" xlink:href="#mf14a4d6a61" y="100.064558"/>
     <use style="fill:#ff0000;stroke:#ff0000;" x="612.230769" xlink:href="#mf14a4d6a61" y="108.69123"/>
     <use style="fill:#ff0000;stroke:#ff0000;" x="626.538462" xlink:href="#mf14a4d6a61" y="89.723938"/>
     <use style="fill:#ff0000;stroke:#ff0000;" x="640.846154" xlink:href="#mf14a4d6a61" y="94.519056"/>
    </g>
   </g>
   <g id="line2d_15">
    <g clip-path="url(#pff27418173)">
     <use style="fill:#ff0000;stroke:#ff0000;" x="111.461538" xlink:href="#mf14a4d6a61" y="158.328676"/>
     <use style="fill:#ff0000;stroke:#ff0000;" x="125.769231" xlink:href="#mf14a4d6a61" y="205.97103"/>
     <use style="fill:#ff0000;stroke:#ff0000;" x="140.076923" xlink:href="#mf14a4d6a61" y="165.340037"/>
     <use style="fill:#ff0000;stroke:#ff0000;" x="154.384615" xlink:href="#mf14a4d6a61" y="162.251432"/>
     <use style="fill:#ff0000;stroke:#ff0000;" x="168.692308" xlink:href="#mf14a4d6a61" y="152.827858"/>
     <use style="fill:#ff0000;stroke:#ff0000;" x="183" xlink:href="#mf14a4d6a61" y="175.083123"/>
     <use style="fill:#ff0000;stroke:#ff0000;" x="197.307692" xlink:href="#mf14a4d6a61" y="177.874121"/>
     <use style="fill:#ff0000;stroke:#ff0000;" x="211.615385" xlink:href="#mf14a4d6a61" y="173.307955"/>
     <use style="fill:#ff0000;stroke:#ff0000;" x="225.923077" xlink:href="#mf14a4d6a61" y="171.286868"/>
     <use style="fill:#ff0000;stroke:#ff0000;" x="240.230769" xlink:href="#mf14a4d6a61" y="175.726211"/>
     <use style="fill:#ff0000;stroke:#ff0000;" x="254.538462" xlink:href="#mf14a4d6a61" y="185.837108"/>
     <use style="fill:#ff0000;stroke:#ff0000;" x="268.846154" xlink:href="#mf14a4d6a61" y="196.810516"/>
     <use style="fill:#ff0000;stroke:#ff0000;" x="283.153846" xlink:href="#mf14a4d6a61" y="175.13696"/>
     <use style="fill:#ff0000;stroke:#ff0000;" x="297.461538" xlink:href="#mf14a4d6a61" y="177.714798"/>
     <use style="fill:#ff0000;stroke:#ff0000;" x="311.769231" xlink:href="#mf14a4d6a61" y="184.482777"/>
     <use style="fill:#ff0000;stroke:#ff0000;" x="326.076923" xlink:href="#mf14a4d6a61" y="175.762276"/>
     <use style="fill:#ff0000;stroke:#ff0000;" x="340.384615" xlink:href="#mf14a4d6a61" y="162.665054"/>
     <use style="fill:#ff0000;stroke:#ff0000;" x="354.692308" xlink:href="#mf14a4d6a61" y="156.442789"/>
     <use style="fill:#ff0000;stroke:#ff0000;" x="369" xlink:href="#mf14a4d6a61" y="151.436932"/>
     <use style="fill:#ff0000;stroke:#ff0000;" x="383.307692" xlink:href="#mf14a4d6a61" y="154.268921"/>
     <use style="fill:#ff0000;stroke:#ff0000;" x="397.615385" xlink:href="#mf14a4d6a61" y="153.833222"/>
     <use style="fill:#ff0000;stroke:#ff0000;" x="411.923077" xlink:href="#mf14a4d6a61" y="144.934953"/>
     <use style="fill:#ff0000;stroke:#ff0000;" x="426.230769" xlink:href="#mf14a4d6a61" y="129.089357"/>
     <use style="fill:#ff0000;stroke:#ff0000;" x="440.538462" xlink:href="#mf14a4d6a61" y="134.092019"/>
     <use style="fill:#ff0000;stroke:#ff0000;" x="454.846154" xlink:href="#mf14a4d6a61" y="132.48931"/>
     <use style="fill:#ff0000;stroke:#ff0000;" x="469.153846" xlink:href="#mf14a4d6a61" y="136.982919"/>
     <use style="fill:#ff0000;stroke:#ff0000;" x="483.461538" xlink:href="#mf14a4d6a61" y="117.997327"/>
     <use style="fill:#ff0000;stroke:#ff0000;" x="497.769231" xlink:href="#mf14a4d6a61" y="122.81091"/>
     <use style="fill:#ff0000;stroke:#ff0000;" x="512.076923" xlink:href="#mf14a4d6a61" y="117.342311"/>
     <use style="fill:#ff0000;stroke:#ff0000;" x="526.384615" xlink:href="#mf14a4d6a61" y="121.236534"/>
     <use style="fill:#ff0000;stroke:#ff0000;" x="540.692308" xlink:href="#mf14a4d6a61" y="116.122574"/>
     <use style="fill:#ff0000;stroke:#ff0000;" x="555" xlink:href="#mf14a4d6a61" y="116.174553"/>
     <use style="fill:#ff0000;stroke:#ff0000;" x="569.307692" xlink:href="#mf14a4d6a61" y="112.28347"/>
     <use style="fill:#ff0000;stroke:#ff0000;" x="583.615385" xlink:href="#mf14a4d6a61" y="109.979615"/>
     <use style="fill:#ff0000;stroke:#ff0000;" x="597.923077" xlink:href="#mf14a4d6a61" y="96.436583"/>
     <use style="fill:#ff0000;stroke:#ff0000;" x="612.230769" xlink:href="#mf14a4d6a61" y="105.670975"/>
     <use style="fill:#ff0000;stroke:#ff0000;" x="626.538462" xlink:href="#mf14a4d6a61" y="89.663801"/>
     <use style="fill:#ff0000;stroke:#ff0000;" x="640.846154" xlink:href="#mf14a4d6a61" y="91.513832"/>
    </g>
   </g>
   <g id="line2d_16">
    <path clip-path="url(#pff27418173)" d="M 104.307692 215.957439 
L 118.615385 215.957439 
L 118.615385 263.213433 
L 132.923077 263.213433 
L 132.923077 237.389686 
L 147.230769 237.389686 
L 147.230769 219.721233 
L 161.538462 219.721233 
L 161.538462 212.975601 
L 175.846154 212.975601 
L 175.846154 222.054072 
L 190.153846 222.054072 
L 190.153846 235.281639 
L 204.461538 235.281639 
L 204.461538 223.927687 
L 218.769231 223.927687 
L 218.769231 219.396065 
L 233.076923 219.396065 
L 233.076923 224.467822 
L 247.384615 224.467822 
L 247.384615 220.376942 
L 261.692308 220.376942 
L 261.692308 236.014516 
L 276 236.014516 
L 276 220.953933 
L 290.307692 220.953933 
L 290.307692 214.932698 
L 304.615385 214.932698 
L 304.615385 221.331099 
L 318.923077 221.331099 
L 318.923077 219.792621 
L 333.230769 219.792621 
L 333.230769 197.535814 
L 347.538462 197.535814 
L 347.538462 183.474198 
L 361.846154 183.474198 
L 361.846154 180.969098 
L 376.153846 180.969098 
L 376.153846 173.753302 
L 390.461538 173.753302 
L 390.461538 175.037022 
L 404.769231 175.037022 
L 404.769231 174.48799 
L 419.076923 174.48799 
L 419.076923 162.594446 
L 433.384615 162.594446 
L 433.384615 159.978842 
L 447.692308 159.978842 
L 447.692308 160.736986 
L 462 160.736986 
L 462 163.440775 
L 476.307692 163.440775 
L 476.307692 141.784107 
L 490.615385 141.784107 
L 490.615385 139.779439 
L 504.923077 139.779439 
L 504.923077 133.342342 
L 519.230769 133.342342 
L 519.230769 133.39966 
L 533.538462 133.39966 
L 533.538462 127.270346 
L 547.846154 127.270346 
L 547.846154 131.197306 
L 562.153846 131.197306 
L 562.153846 134.01752 
L 576.461538 134.01752 
L 576.461538 122.250962 
L 590.769231 122.250962 
L 590.769231 108.31308 
L 605.076923 108.31308 
L 605.076923 127.801075 
L 619.384615 127.801075 
L 619.384615 97.269278 
L 633.692308 97.269278 
L 633.692308 103.127675 
L 648 103.127675 
" style="fill:none;stroke:#0000ff;stroke-linecap:square;stroke-width:1.5;"/>
   </g>
   <g id="line2d_17">
    <defs>
     <path d="M 2 0 
L -2 -0 
" id="m23696c7ad9" style="stroke:#0000ff;"/>
    </defs>
    <g clip-path="url(#pff27418173)">
     <use style="fill:#0000ff;stroke:#0000ff;" x="111.461538" xlink:href="#m23696c7ad9" y="229.807908"/>
     <use style="fill:#0000ff;stroke:#0000ff;" x="125.769231" xlink:href="#m23696c7ad9" y="271.066704"/>
     <use style="fill:#0000ff;stroke:#0000ff;" x="140.076923" xlink:href="#m23696c7ad9" y="246.312723"/>
     <use style="fill:#0000ff;stroke:#0000ff;" x="154.384615" xlink:href="#m23696c7ad9" y="228.31468"/>
     <use style="fill:#0000ff;stroke:#0000ff;" x="168.692308" xlink:href="#m23696c7ad9" y="221.581015"/>
     <use style="fill:#0000ff;stroke:#0000ff;" x="183" xlink:href="#m23696c7ad9" y="230.197115"/>
     <use style="fill:#0000ff;stroke:#0000ff;" x="197.307692" xlink:href="#m23696c7ad9" y="243.287639"/>
     <use style="fill:#0000ff;stroke:#0000ff;" x="211.615385" xlink:href="#m23696c7ad9" y="232.276969"/>
     <use style="fill:#0000ff;stroke:#0000ff;" x="225.923077" xlink:href="#m23696c7ad9" y="227.498572"/>
     <use style="fill:#0000ff;stroke:#0000ff;" x="240.230769" xlink:href="#m23696c7ad9" y="232.05064"/>
     <use style="fill:#0000ff;stroke:#0000ff;" x="254.538462" xlink:href="#m23696c7ad9" y="227.077896"/>
     <use style="fill:#0000ff;stroke:#0000ff;" x="268.846154" xlink:href="#m23696c7ad9" y="243.301086"/>
     <use style="fill:#0000ff;stroke:#0000ff;" x="283.153846" xlink:href="#m23696c7ad9" y="228.341705"/>
     <use style="fill:#0000ff;stroke:#0000ff;" x="297.461538" xlink:href="#m23696c7ad9" y="222.128519"/>
     <use style="fill:#0000ff;stroke:#0000ff;" x="311.769231" xlink:href="#m23696c7ad9" y="228.399153"/>
     <use style="fill:#0000ff;stroke:#0000ff;" x="326.076923" xlink:href="#m23696c7ad9" y="227.298787"/>
     <use style="fill:#0000ff;stroke:#0000ff;" x="340.384615" xlink:href="#m23696c7ad9" y="204.539455"/>
     <use style="fill:#0000ff;stroke:#0000ff;" x="354.692308" xlink:href="#m23696c7ad9" y="190.242938"/>
     <use style="fill:#0000ff;stroke:#0000ff;" x="369" xlink:href="#m23696c7ad9" y="187.891273"/>
     <use style="fill:#0000ff;stroke:#0000ff;" x="383.307692" xlink:href="#m23696c7ad9" y="179.913896"/>
     <use style="fill:#0000ff;stroke:#0000ff;" x="397.615385" xlink:href="#m23696c7ad9" y="181.550354"/>
     <use style="fill:#0000ff;stroke:#0000ff;" x="411.923077" xlink:href="#m23696c7ad9" y="181.337079"/>
     <use style="fill:#0000ff;stroke:#0000ff;" x="426.230769" xlink:href="#m23696c7ad9" y="170.13716"/>
     <use style="fill:#0000ff;stroke:#0000ff;" x="440.538462" xlink:href="#m23696c7ad9" y="166.611186"/>
     <use style="fill:#0000ff;stroke:#0000ff;" x="454.846154" xlink:href="#m23696c7ad9" y="167.806908"/>
     <use style="fill:#0000ff;stroke:#0000ff;" x="469.153846" xlink:href="#m23696c7ad9" y="170.01562"/>
     <use style="fill:#0000ff;stroke:#0000ff;" x="483.461538" xlink:href="#m23696c7ad9" y="147.707859"/>
     <use style="fill:#0000ff;stroke:#0000ff;" x="497.769231" xlink:href="#m23696c7ad9" y="145.486931"/>
     <use style="fill:#0000ff;stroke:#0000ff;" x="512.076923" xlink:href="#m23696c7ad9" y="138.639101"/>
     <use style="fill:#0000ff;stroke:#0000ff;" x="526.384615" xlink:href="#m23696c7ad9" y="138.061981"/>
     <use style="fill:#0000ff;stroke:#0000ff;" x="540.692308" xlink:href="#m23696c7ad9" y="131.603437"/>
     <use style="fill:#0000ff;stroke:#0000ff;" x="555" xlink:href="#m23696c7ad9" y="136.343483"/>
     <use style="fill:#0000ff;stroke:#0000ff;" x="569.307692" xlink:href="#m23696c7ad9" y="139.762619"/>
     <use style="fill:#0000ff;stroke:#0000ff;" x="583.615385" xlink:href="#m23696c7ad9" y="126.868255"/>
     <use style="fill:#0000ff;stroke:#0000ff;" x="597.923077" xlink:href="#m23696c7ad9" y="112.419552"/>
     <use style="fill:#0000ff;stroke:#0000ff;" x="612.230769" xlink:href="#m23696c7ad9" y="133.231913"/>
     <use style="fill:#0000ff;stroke:#0000ff;" x="626.538462" xlink:href="#m23696c7ad9" y="100.99791"/>
     <use style="fill:#0000ff;stroke:#0000ff;" x="640.846154" xlink:href="#m23696c7ad9" y="107.416837"/>
    </g>
   </g>
   <g id="line2d_18">
    <g clip-path="url(#pff27418173)">
     <use style="fill:#0000ff;stroke:#0000ff;" x="111.461538" xlink:href="#m23696c7ad9" y="202.106971"/>
     <use style="fill:#0000ff;stroke:#0000ff;" x="125.769231" xlink:href="#m23696c7ad9" y="255.360161"/>
     <use style="fill:#0000ff;stroke:#0000ff;" x="140.076923" xlink:href="#m23696c7ad9" y="228.46665"/>
     <use style="fill:#0000ff;stroke:#0000ff;" x="154.384615" xlink:href="#m23696c7ad9" y="211.127787"/>
     <use style="fill:#0000ff;stroke:#0000ff;" x="168.692308" xlink:href="#m23696c7ad9" y="204.370187"/>
     <use style="fill:#0000ff;stroke:#0000ff;" x="183" xlink:href="#m23696c7ad9" y="213.911028"/>
     <use style="fill:#0000ff;stroke:#0000ff;" x="197.307692" xlink:href="#m23696c7ad9" y="227.275639"/>
     <use style="fill:#0000ff;stroke:#0000ff;" x="211.615385" xlink:href="#m23696c7ad9" y="215.578406"/>
     <use style="fill:#0000ff;stroke:#0000ff;" x="225.923077" xlink:href="#m23696c7ad9" y="211.293558"/>
     <use style="fill:#0000ff;stroke:#0000ff;" x="240.230769" xlink:href="#m23696c7ad9" y="216.885005"/>
     <use style="fill:#0000ff;stroke:#0000ff;" x="254.538462" xlink:href="#m23696c7ad9" y="213.675988"/>
     <use style="fill:#0000ff;stroke:#0000ff;" x="268.846154" xlink:href="#m23696c7ad9" y="228.727947"/>
     <use style="fill:#0000ff;stroke:#0000ff;" x="283.153846" xlink:href="#m23696c7ad9" y="213.566162"/>
     <use style="fill:#0000ff;stroke:#0000ff;" x="297.461538" xlink:href="#m23696c7ad9" y="207.736878"/>
     <use style="fill:#0000ff;stroke:#0000ff;" x="311.769231" xlink:href="#m23696c7ad9" y="214.263044"/>
     <use style="fill:#0000ff;stroke:#0000ff;" x="326.076923" xlink:href="#m23696c7ad9" y="212.286455"/>
     <use style="fill:#0000ff;stroke:#0000ff;" x="340.384615" xlink:href="#m23696c7ad9" y="190.532172"/>
     <use style="fill:#0000ff;stroke:#0000ff;" x="354.692308" xlink:href="#m23696c7ad9" y="176.705458"/>
     <use style="fill:#0000ff;stroke:#0000ff;" x="369" xlink:href="#m23696c7ad9" y="174.046923"/>
     <use style="fill:#0000ff;stroke:#0000ff;" x="383.307692" xlink:href="#m23696c7ad9" y="167.592709"/>
     <use style="fill:#0000ff;stroke:#0000ff;" x="397.615385" xlink:href="#m23696c7ad9" y="168.52369"/>
     <use style="fill:#0000ff;stroke:#0000ff;" x="411.923077" xlink:href="#m23696c7ad9" y="167.638902"/>
     <use style="fill:#0000ff;stroke:#0000ff;" x="426.230769" xlink:href="#m23696c7ad9" y="155.051732"/>
     <use style="fill:#0000ff;stroke:#0000ff;" x="440.538462" xlink:href="#m23696c7ad9" y="153.346497"/>
     <use style="fill:#0000ff;stroke:#0000ff;" x="454.846154" xlink:href="#m23696c7ad9" y="153.667064"/>
     <use style="fill:#0000ff;stroke:#0000ff;" x="469.153846" xlink:href="#m23696c7ad9" y="156.86593"/>
     <use style="fill:#0000ff;stroke:#0000ff;" x="483.461538" xlink:href="#m23696c7ad9" y="135.860356"/>
     <use style="fill:#0000ff;stroke:#0000ff;" x="497.769231" xlink:href="#m23696c7ad9" y="134.071946"/>
     <use style="fill:#0000ff;stroke:#0000ff;" x="512.076923" xlink:href="#m23696c7ad9" y="128.045584"/>
     <use style="fill:#0000ff;stroke:#0000ff;" x="526.384615" xlink:href="#m23696c7ad9" y="128.737339"/>
     <use style="fill:#0000ff;stroke:#0000ff;" x="540.692308" xlink:href="#m23696c7ad9" y="122.937255"/>
     <use style="fill:#0000ff;stroke:#0000ff;" x="555" xlink:href="#m23696c7ad9" y="126.051128"/>
     <use style="fill:#0000ff;stroke:#0000ff;" x="569.307692" xlink:href="#m23696c7ad9" y="128.272421"/>
     <use style="fill:#0000ff;stroke:#0000ff;" x="583.615385" xlink:href="#m23696c7ad9" y="117.633669"/>
     <use style="fill:#0000ff;stroke:#0000ff;" x="597.923077" xlink:href="#m23696c7ad9" y="104.206608"/>
     <use style="fill:#0000ff;stroke:#0000ff;" x="612.230769" xlink:href="#m23696c7ad9" y="122.370237"/>
     <use style="fill:#0000ff;stroke:#0000ff;" x="626.538462" xlink:href="#m23696c7ad9" y="93.540646"/>
     <use style="fill:#0000ff;stroke:#0000ff;" x="640.846154" xlink:href="#m23696c7ad9" y="98.838514"/>
    </g>
   </g>
   <g id="patch_3">
    <path d="M 90 334.0008 
L 90 85.2768 
" style="fill:none;stroke:#000000;stroke-linecap:square;stroke-linejoin:miter;stroke-width:0.8;"/>
   </g>
   <g id="patch_4">
    <path d="M 648 334.0008 
L 648 85.2768 
" style="fill:none;stroke:#000000;stroke-linecap:square;stroke-linejoin:miter;stroke-width:0.8;"/>
   </g>
   <g id="patch_5">
    <path d="M 90 334.0008 
L 648 334.0008 
" style="fill:none;stroke:#000000;stroke-linecap:square;stroke-linejoin:miter;stroke-width:0.8;"/>
   </g>
   <g id="patch_6">
    <path d="M 90 85.2768 
L 648 85.2768 
" style="fill:none;stroke:#000000;stroke-linecap:square;stroke-linejoin:miter;stroke-width:0.8;"/>
   </g>
   <g id="legend_1">
    <g id="patch_7">
     <path d="M 266.025938 325.0008 
L 471.974063 325.0008 
Q 475.574063 325.0008 475.574063 321.4008 
L 475.574063 243.938925 
Q 475.574063 240.338925 471.974063 240.338925 
L 266.025938 240.338925 
Q 262.425938 240.338925 262.425938 243.938925 
L 262.425938 321.4008 
Q 262.425938 325.0008 266.025938 325.0008 
z
" style="fill:#ffffff;opacity:0.5;stroke:#cccccc;stroke-linejoin:miter;"/>
    </g>
    <g id="line2d_19">
     <path d="M 269.625938 254.916112 
L 305.625938 254.916112 
" style="fill:none;stroke:#008000;stroke-linecap:square;stroke-width:1.5;"/>
    </g>
    <g id="line2d_20"/>
    <g id="text_6">
     <!-- Efficiency -->
     <defs>
      <path d="M 9.8125 72.90625 
L 55.90625 72.90625 
L 55.90625 64.59375 
L 19.671875 64.59375 
L 19.671875 43.015625 
L 54.390625 43.015625 
L 54.390625 34.71875 
L 19.671875 34.71875 
L 19.671875 8.296875 
L 56.78125 8.296875 
L 56.78125 0 
L 9.8125 0 
z
" id="DejaVuSans-69"/>
      <path d="M 37.109375 75.984375 
L 37.109375 68.5 
L 28.515625 68.5 
Q 23.6875 68.5 21.796875 66.546875 
Q 19.921875 64.59375 19.921875 59.515625 
L 19.921875 54.6875 
L 34.71875 54.6875 
L 34.71875 47.703125 
L 19.921875 47.703125 
L 19.921875 0 
L 10.890625 0 
L 10.890625 47.703125 
L 2.296875 47.703125 
L 2.296875 54.6875 
L 10.890625 54.6875 
L 10.890625 58.5 
Q 10.890625 67.625 15.140625 71.796875 
Q 19.390625 75.984375 28.609375 75.984375 
z
" id="DejaVuSans-102"/>
      <path d="M 32.171875 -5.078125 
Q 28.375 -14.84375 24.75 -17.8125 
Q 21.140625 -20.796875 15.09375 -20.796875 
L 7.90625 -20.796875 
L 7.90625 -13.28125 
L 13.1875 -13.28125 
Q 16.890625 -13.28125 18.9375 -11.515625 
Q 21 -9.765625 23.484375 -3.21875 
L 25.09375 0.875 
L 2.984375 54.6875 
L 12.5 54.6875 
L 29.59375 11.921875 
L 46.6875 54.6875 
L 56.203125 54.6875 
z
" id="DejaVuSans-121"/>
     </defs>
     <g transform="translate(320.025937 261.216113)scale(0.18 -0.18)">
      <use xlink:href="#DejaVuSans-69"/>
      <use x="63.183594" xlink:href="#DejaVuSans-102"/>
      <use x="98.388672" xlink:href="#DejaVuSans-102"/>
      <use x="133.59375" xlink:href="#DejaVuSans-105"/>
      <use x="161.376953" xlink:href="#DejaVuSans-99"/>
      <use x="216.357422" xlink:href="#DejaVuSans-105"/>
      <use x="244.140625" xlink:href="#DejaVuSans-101"/>
      <use x="305.664062" xlink:href="#DejaVuSans-110"/>
      <use x="369.042969" xlink:href="#DejaVuSans-99"/>
      <use x="424.023438" xlink:href="#DejaVuSans-121"/>
     </g>
    </g>
    <g id="line2d_21">
     <path d="M 269.625938 281.336737 
L 305.625938 281.336737 
" style="fill:none;stroke:#ff0000;stroke-linecap:square;stroke-width:1.5;"/>
    </g>
    <g id="line2d_22"/>
    <g id="text_7">
     <!-- Purity -->
     <defs>
      <path d="M 19.671875 64.796875 
L 19.671875 37.40625 
L 32.078125 37.40625 
Q 38.96875 37.40625 42.71875 40.96875 
Q 46.484375 44.53125 46.484375 51.125 
Q 46.484375 57.671875 42.71875 61.234375 
Q 38.96875 64.796875 32.078125 64.796875 
z
M 9.8125 72.90625 
L 32.078125 72.90625 
Q 44.34375 72.90625 50.609375 67.359375 
Q 56.890625 61.8125 56.890625 51.125 
Q 56.890625 40.328125 50.609375 34.8125 
Q 44.34375 29.296875 32.078125 29.296875 
L 19.671875 29.296875 
L 19.671875 0 
L 9.8125 0 
z
" id="DejaVuSans-80"/>
     </defs>
     <g transform="translate(320.025937 287.636737)scale(0.18 -0.18)">
      <use xlink:href="#DejaVuSans-80"/>
      <use x="60.287109" xlink:href="#DejaVuSans-117"/>
      <use x="123.666016" xlink:href="#DejaVuSans-114"/>
      <use x="164.779297" xlink:href="#DejaVuSans-105"/>
      <use x="192.5625" xlink:href="#DejaVuSans-116"/>
      <use x="231.771484" xlink:href="#DejaVuSans-121"/>
     </g>
    </g>
    <g id="line2d_23">
     <path d="M 269.625938 307.757362 
L 305.625938 307.757362 
" style="fill:none;stroke:#0000ff;stroke-linecap:square;stroke-width:1.5;"/>
    </g>
    <g id="line2d_24"/>
    <g id="text_8">
     <!-- Purity*Efficiency -->
     <defs>
      <path d="M 47.015625 60.890625 
L 29.5 51.421875 
L 47.015625 41.890625 
L 44.1875 37.109375 
L 27.78125 47.015625 
L 27.78125 28.609375 
L 22.21875 28.609375 
L 22.21875 47.015625 
L 5.8125 37.109375 
L 2.984375 41.890625 
L 20.515625 51.421875 
L 2.984375 60.890625 
L 5.8125 65.71875 
L 22.21875 55.8125 
L 22.21875 74.21875 
L 27.78125 74.21875 
L 27.78125 55.8125 
L 44.1875 65.71875 
z
" id="DejaVuSans-42"/>
     </defs>
     <g transform="translate(320.025937 314.057363)scale(0.18 -0.18)">
      <use xlink:href="#DejaVuSans-80"/>
      <use x="60.287109" xlink:href="#DejaVuSans-117"/>
      <use x="123.666016" xlink:href="#DejaVuSans-114"/>
      <use x="164.779297" xlink:href="#DejaVuSans-105"/>
      <use x="192.5625" xlink:href="#DejaVuSans-116"/>
      <use x="231.771484" xlink:href="#DejaVuSans-121"/>
      <use x="290.951172" xlink:href="#DejaVuSans-42"/>
      <use x="340.951172" xlink:href="#DejaVuSans-69"/>
      <use x="404.134766" xlink:href="#DejaVuSans-102"/>
      <use x="439.339844" xlink:href="#DejaVuSans-102"/>
      <use x="474.544922" xlink:href="#DejaVuSans-105"/>
      <use x="502.328125" xlink:href="#DejaVuSans-99"/>
      <use x="557.308594" xlink:href="#DejaVuSans-105"/>
      <use x="585.091797" xlink:href="#DejaVuSans-101"/>
      <use x="646.615234" xlink:href="#DejaVuSans-110"/>
      <use x="709.994141" xlink:href="#DejaVuSans-99"/>
      <use x="764.974609" xlink:href="#DejaVuSans-121"/>
     </g>
    </g>
   </g>
  </g>
  <g id="axes_2">
   <g id="patch_8">
    <path d="M 90 632.4696 
L 648 632.4696 
L 648 383.7456 
L 90 383.7456 
z
" style="fill:#ffffff;"/>
   </g>
   <g id="patch_9">
    <path clip-path="url(#p07c6004327)" d="M 90 101880.95847 
L 90 101880.95847 
L 104.307692 101880.95847 
L 104.307692 448.255758 
L 118.615385 448.255758 
L 118.615385 418.206793 
L 132.923077 418.206793 
L 132.923077 408.133231 
L 147.230769 408.133231 
L 147.230769 405.122252 
L 161.538462 405.122252 
L 161.538462 402.002038 
L 175.846154 402.002038 
L 175.846154 406.769507 
L 190.153846 406.769507 
L 190.153846 404.480247 
L 204.461538 404.480247 
L 204.461538 407.446083 
L 218.769231 407.446083 
L 218.769231 404.480247 
L 233.076923 404.480247 
L 233.076923 401.107569 
L 247.384615 401.107569 
L 247.384615 399.371426 
L 261.692308 399.371426 
L 261.692308 410.261545 
L 276 410.261545 
L 276 400.23093 
L 290.307692 400.23093 
L 290.307692 403.534478 
L 304.615385 403.534478 
L 304.615385 405.122252 
L 318.923077 405.122252 
L 318.923077 404.480247 
L 333.230769 404.480247 
L 333.230769 399.656065 
L 347.538462 399.656065 
L 347.538462 399.942558 
L 361.846154 399.942558 
L 361.846154 399.088617 
L 376.153846 399.088617 
L 376.153846 402.002038 
L 390.461538 402.002038 
L 390.461538 406.435083 
L 404.769231 406.435083 
L 404.769231 402.915079 
L 419.076923 402.915079 
L 419.076923 402.915079 
L 433.384615 402.915079 
L 433.384615 401.107569 
L 447.692308 401.107569 
L 447.692308 402.002038 
L 462 402.002038 
L 462 403.534478 
L 476.307692 403.534478 
L 476.307692 395.051236 
L 490.615385 395.051236 
L 490.615385 402.002038 
L 504.923077 402.002038 
L 504.923077 399.088617 
L 519.230769 399.088617 
L 519.230769 404.480247 
L 533.538462 404.480247 
L 533.538462 398.807616 
L 547.846154 398.807616 
L 547.846154 410.994505 
L 562.153846 410.994505 
L 562.153846 405.446804 
L 576.461538 405.446804 
L 576.461538 404.162725 
L 590.769231 404.162725 
L 590.769231 396.889331 
L 605.076923 396.889331 
L 605.076923 399.656065 
L 619.384615 399.656065 
L 619.384615 407.446083 
L 633.692308 407.446083 
L 633.692308 402.915079 
L 648 402.915079 
L 648 101880.95847 
z
" style="fill:#1f77b4;opacity:0.2;"/>
   </g>
   <g id="matplotlib.axis_3">
    <g id="xtick_7">
     <g id="line2d_25">
      <g>
       <use style="stroke:#000000;stroke-width:0.8;" x="90" xlink:href="#m11e74b9b21" y="632.4696"/>
      </g>
     </g>
     <g id="text_9">
      <!-- 0.0 -->
      <g transform="translate(69.38955 659.16475)scale(0.2592 -0.2592)">
       <use xlink:href="#DejaVuSans-48"/>
       <use x="63.623047" xlink:href="#DejaVuSans-46"/>
       <use x="95.410156" xlink:href="#DejaVuSans-48"/>
      </g>
     </g>
    </g>
    <g id="xtick_8">
     <g id="line2d_26">
      <g>
       <use style="stroke:#000000;stroke-width:0.8;" x="201.6" xlink:href="#m11e74b9b21" y="632.4696"/>
      </g>
     </g>
     <g id="text_10">
      <!-- 0.2 -->
      <defs>
       <path d="M 19.1875 8.296875 
L 53.609375 8.296875 
L 53.609375 0 
L 7.328125 0 
L 7.328125 8.296875 
Q 12.9375 14.109375 22.625 23.890625 
Q 32.328125 33.6875 34.8125 36.53125 
Q 39.546875 41.84375 41.421875 45.53125 
Q 43.3125 49.21875 43.3125 52.78125 
Q 43.3125 58.59375 39.234375 62.25 
Q 35.15625 65.921875 28.609375 65.921875 
Q 23.96875 65.921875 18.8125 64.3125 
Q 13.671875 62.703125 7.8125 59.421875 
L 7.8125 69.390625 
Q 13.765625 71.78125 18.9375 73 
Q 24.125 74.21875 28.421875 74.21875 
Q 39.75 74.21875 46.484375 68.546875 
Q 53.21875 62.890625 53.21875 53.421875 
Q 53.21875 48.921875 51.53125 44.890625 
Q 49.859375 40.875 45.40625 35.40625 
Q 44.1875 33.984375 37.640625 27.21875 
Q 31.109375 20.453125 19.1875 8.296875 
z
" id="DejaVuSans-50"/>
      </defs>
      <g transform="translate(180.98955 659.16475)scale(0.2592 -0.2592)">
       <use xlink:href="#DejaVuSans-48"/>
       <use x="63.623047" xlink:href="#DejaVuSans-46"/>
       <use x="95.410156" xlink:href="#DejaVuSans-50"/>
      </g>
     </g>
    </g>
    <g id="xtick_9">
     <g id="line2d_27">
      <g>
       <use style="stroke:#000000;stroke-width:0.8;" x="313.2" xlink:href="#m11e74b9b21" y="632.4696"/>
      </g>
     </g>
     <g id="text_11">
      <!-- 0.4 -->
      <defs>
       <path d="M 37.796875 64.3125 
L 12.890625 25.390625 
L 37.796875 25.390625 
z
M 35.203125 72.90625 
L 47.609375 72.90625 
L 47.609375 25.390625 
L 58.015625 25.390625 
L 58.015625 17.1875 
L 47.609375 17.1875 
L 47.609375 0 
L 37.796875 0 
L 37.796875 17.1875 
L 4.890625 17.1875 
L 4.890625 26.703125 
z
" id="DejaVuSans-52"/>
      </defs>
      <g transform="translate(292.58955 659.16475)scale(0.2592 -0.2592)">
       <use xlink:href="#DejaVuSans-48"/>
       <use x="63.623047" xlink:href="#DejaVuSans-46"/>
       <use x="95.410156" xlink:href="#DejaVuSans-52"/>
      </g>
     </g>
    </g>
    <g id="xtick_10">
     <g id="line2d_28">
      <g>
       <use style="stroke:#000000;stroke-width:0.8;" x="424.8" xlink:href="#m11e74b9b21" y="632.4696"/>
      </g>
     </g>
     <g id="text_12">
      <!-- 0.6 -->
      <defs>
       <path d="M 33.015625 40.375 
Q 26.375 40.375 22.484375 35.828125 
Q 18.609375 31.296875 18.609375 23.390625 
Q 18.609375 15.53125 22.484375 10.953125 
Q 26.375 6.390625 33.015625 6.390625 
Q 39.65625 6.390625 43.53125 10.953125 
Q 47.40625 15.53125 47.40625 23.390625 
Q 47.40625 31.296875 43.53125 35.828125 
Q 39.65625 40.375 33.015625 40.375 
z
M 52.59375 71.296875 
L 52.59375 62.3125 
Q 48.875 64.0625 45.09375 64.984375 
Q 41.3125 65.921875 37.59375 65.921875 
Q 27.828125 65.921875 22.671875 59.328125 
Q 17.53125 52.734375 16.796875 39.40625 
Q 19.671875 43.65625 24.015625 45.921875 
Q 28.375 48.1875 33.59375 48.1875 
Q 44.578125 48.1875 50.953125 41.515625 
Q 57.328125 34.859375 57.328125 23.390625 
Q 57.328125 12.15625 50.6875 5.359375 
Q 44.046875 -1.421875 33.015625 -1.421875 
Q 20.359375 -1.421875 13.671875 8.265625 
Q 6.984375 17.96875 6.984375 36.375 
Q 6.984375 53.65625 15.1875 63.9375 
Q 23.390625 74.21875 37.203125 74.21875 
Q 40.921875 74.21875 44.703125 73.484375 
Q 48.484375 72.75 52.59375 71.296875 
z
" id="DejaVuSans-54"/>
      </defs>
      <g transform="translate(404.18955 659.16475)scale(0.2592 -0.2592)">
       <use xlink:href="#DejaVuSans-48"/>
       <use x="63.623047" xlink:href="#DejaVuSans-46"/>
       <use x="95.410156" xlink:href="#DejaVuSans-54"/>
      </g>
     </g>
    </g>
    <g id="xtick_11">
     <g id="line2d_29">
      <g>
       <use style="stroke:#000000;stroke-width:0.8;" x="536.4" xlink:href="#m11e74b9b21" y="632.4696"/>
      </g>
     </g>
     <g id="text_13">
      <!-- 0.8 -->
      <defs>
       <path d="M 31.78125 34.625 
Q 24.75 34.625 20.71875 30.859375 
Q 16.703125 27.09375 16.703125 20.515625 
Q 16.703125 13.921875 20.71875 10.15625 
Q 24.75 6.390625 31.78125 6.390625 
Q 38.8125 6.390625 42.859375 10.171875 
Q 46.921875 13.96875 46.921875 20.515625 
Q 46.921875 27.09375 42.890625 30.859375 
Q 38.875 34.625 31.78125 34.625 
z
M 21.921875 38.8125 
Q 15.578125 40.375 12.03125 44.71875 
Q 8.5 49.078125 8.5 55.328125 
Q 8.5 64.0625 14.71875 69.140625 
Q 20.953125 74.21875 31.78125 74.21875 
Q 42.671875 74.21875 48.875 69.140625 
Q 55.078125 64.0625 55.078125 55.328125 
Q 55.078125 49.078125 51.53125 44.71875 
Q 48 40.375 41.703125 38.8125 
Q 48.828125 37.15625 52.796875 32.3125 
Q 56.78125 27.484375 56.78125 20.515625 
Q 56.78125 9.90625 50.3125 4.234375 
Q 43.84375 -1.421875 31.78125 -1.421875 
Q 19.734375 -1.421875 13.25 4.234375 
Q 6.78125 9.90625 6.78125 20.515625 
Q 6.78125 27.484375 10.78125 32.3125 
Q 14.796875 37.15625 21.921875 38.8125 
z
M 18.3125 54.390625 
Q 18.3125 48.734375 21.84375 45.5625 
Q 25.390625 42.390625 31.78125 42.390625 
Q 38.140625 42.390625 41.71875 45.5625 
Q 45.3125 48.734375 45.3125 54.390625 
Q 45.3125 60.0625 41.71875 63.234375 
Q 38.140625 66.40625 31.78125 66.40625 
Q 25.390625 66.40625 21.84375 63.234375 
Q 18.3125 60.0625 18.3125 54.390625 
z
" id="DejaVuSans-56"/>
      </defs>
      <g transform="translate(515.78955 659.16475)scale(0.2592 -0.2592)">
       <use xlink:href="#DejaVuSans-48"/>
       <use x="63.623047" xlink:href="#DejaVuSans-46"/>
       <use x="95.410156" xlink:href="#DejaVuSans-56"/>
      </g>
     </g>
    </g>
    <g id="xtick_12">
     <g id="line2d_30">
      <g>
       <use style="stroke:#000000;stroke-width:0.8;" x="648" xlink:href="#m11e74b9b21" y="632.4696"/>
      </g>
     </g>
     <g id="text_14">
      <!-- 1.0 -->
      <g transform="translate(627.38955 659.16475)scale(0.2592 -0.2592)">
       <use xlink:href="#DejaVuSans-49"/>
       <use x="63.623047" xlink:href="#DejaVuSans-46"/>
       <use x="95.410156" xlink:href="#DejaVuSans-48"/>
      </g>
     </g>
    </g>
    <g id="text_15">
     <!-- mcpMomentum -->
     <g transform="translate(267.180975 688.25045)scale(0.2592 -0.2592)">
      <use xlink:href="#DejaVuSans-109"/>
      <use x="97.412109" xlink:href="#DejaVuSans-99"/>
      <use x="152.392578" xlink:href="#DejaVuSans-112"/>
      <use x="215.869141" xlink:href="#DejaVuSans-77"/>
      <use x="302.148438" xlink:href="#DejaVuSans-111"/>
      <use x="363.330078" xlink:href="#DejaVuSans-109"/>
      <use x="460.742188" xlink:href="#DejaVuSans-101"/>
      <use x="522.265625" xlink:href="#DejaVuSans-110"/>
      <use x="585.644531" xlink:href="#DejaVuSans-116"/>
      <use x="624.853516" xlink:href="#DejaVuSans-117"/>
      <use x="688.232422" xlink:href="#DejaVuSans-109"/>
     </g>
    </g>
   </g>
   <g id="matplotlib.axis_4">
    <g id="ytick_4">
     <g id="line2d_31">
      <g>
       <use style="stroke:#000000;stroke-width:0.8;" x="90" xlink:href="#mc2d6bbad9c" y="621.163964"/>
      </g>
     </g>
     <g id="text_16">
      <!-- $\mathdefault{10^{0}}$ -->
      <g transform="translate(37.3808 631.011539)scale(0.2592 -0.2592)">
       <use transform="translate(0 0.765625)" xlink:href="#DejaVuSans-49"/>
       <use transform="translate(63.623047 0.765625)" xlink:href="#DejaVuSans-48"/>
       <use transform="translate(128.203125 39.046875)scale(0.7)" xlink:href="#DejaVuSans-48"/>
      </g>
     </g>
    </g>
    <g id="ytick_5">
     <g id="line2d_32">
      <g>
       <use style="stroke:#000000;stroke-width:0.8;" x="90" xlink:href="#mc2d6bbad9c" y="519.904169"/>
      </g>
     </g>
     <g id="text_17">
      <!-- $\mathdefault{10^{1}}$ -->
      <g transform="translate(37.3808 529.751744)scale(0.2592 -0.2592)">
       <use transform="translate(0 0.684375)" xlink:href="#DejaVuSans-49"/>
       <use transform="translate(63.623047 0.684375)" xlink:href="#DejaVuSans-48"/>
       <use transform="translate(128.203125 38.965625)scale(0.7)" xlink:href="#DejaVuSans-49"/>
      </g>
     </g>
    </g>
    <g id="ytick_6">
     <g id="line2d_33">
      <g>
       <use style="stroke:#000000;stroke-width:0.8;" x="90" xlink:href="#mc2d6bbad9c" y="418.644375"/>
      </g>
     </g>
     <g id="text_18">
      <!-- $\mathdefault{10^{2}}$ -->
      <g transform="translate(37.3808 428.49195)scale(0.2592 -0.2592)">
       <use transform="translate(0 0.765625)" xlink:href="#DejaVuSans-49"/>
       <use transform="translate(63.623047 0.765625)" xlink:href="#DejaVuSans-48"/>
       <use transform="translate(128.203125 39.046875)scale(0.7)" xlink:href="#DejaVuSans-50"/>
      </g>
     </g>
    </g>
    <g id="ytick_7">
     <g id="line2d_34">
      <defs>
       <path d="M 0 0 
L -2 0 
" id="maae85fef91" style="stroke:#000000;stroke-width:0.6;"/>
      </defs>
      <g>
       <use style="stroke:#000000;stroke-width:0.6;" x="90" xlink:href="#maae85fef91" y="630.977052"/>
      </g>
     </g>
    </g>
    <g id="ytick_8">
     <g id="line2d_35">
      <g>
       <use style="stroke:#000000;stroke-width:0.6;" x="90" xlink:href="#maae85fef91" y="625.797358"/>
      </g>
     </g>
    </g>
    <g id="ytick_9">
     <g id="line2d_36">
      <g>
       <use style="stroke:#000000;stroke-width:0.6;" x="90" xlink:href="#maae85fef91" y="590.681728"/>
      </g>
     </g>
    </g>
    <g id="ytick_10">
     <g id="line2d_37">
      <g>
       <use style="stroke:#000000;stroke-width:0.6;" x="90" xlink:href="#maae85fef91" y="572.850763"/>
      </g>
     </g>
    </g>
    <g id="ytick_11">
     <g id="line2d_38">
      <g>
       <use style="stroke:#000000;stroke-width:0.6;" x="90" xlink:href="#maae85fef91" y="560.199493"/>
      </g>
     </g>
    </g>
    <g id="ytick_12">
     <g id="line2d_39">
      <g>
       <use style="stroke:#000000;stroke-width:0.6;" x="90" xlink:href="#maae85fef91" y="550.386405"/>
      </g>
     </g>
    </g>
    <g id="ytick_13">
     <g id="line2d_40">
      <g>
       <use style="stroke:#000000;stroke-width:0.6;" x="90" xlink:href="#maae85fef91" y="542.368528"/>
      </g>
     </g>
    </g>
    <g id="ytick_14">
     <g id="line2d_41">
      <g>
       <use style="stroke:#000000;stroke-width:0.6;" x="90" xlink:href="#maae85fef91" y="535.58951"/>
      </g>
     </g>
    </g>
    <g id="ytick_15">
     <g id="line2d_42">
      <g>
       <use style="stroke:#000000;stroke-width:0.6;" x="90" xlink:href="#maae85fef91" y="529.717257"/>
      </g>
     </g>
    </g>
    <g id="ytick_16">
     <g id="line2d_43">
      <g>
       <use style="stroke:#000000;stroke-width:0.6;" x="90" xlink:href="#maae85fef91" y="524.537563"/>
      </g>
     </g>
    </g>
    <g id="ytick_17">
     <g id="line2d_44">
      <g>
       <use style="stroke:#000000;stroke-width:0.6;" x="90" xlink:href="#maae85fef91" y="489.421934"/>
      </g>
     </g>
    </g>
    <g id="ytick_18">
     <g id="line2d_45">
      <g>
       <use style="stroke:#000000;stroke-width:0.6;" x="90" xlink:href="#maae85fef91" y="471.590969"/>
      </g>
     </g>
    </g>
    <g id="ytick_19">
     <g id="line2d_46">
      <g>
       <use style="stroke:#000000;stroke-width:0.6;" x="90" xlink:href="#maae85fef91" y="458.939698"/>
      </g>
     </g>
    </g>
    <g id="ytick_20">
     <g id="line2d_47">
      <g>
       <use style="stroke:#000000;stroke-width:0.6;" x="90" xlink:href="#maae85fef91" y="449.12661"/>
      </g>
     </g>
    </g>
    <g id="ytick_21">
     <g id="line2d_48">
      <g>
       <use style="stroke:#000000;stroke-width:0.6;" x="90" xlink:href="#maae85fef91" y="441.108733"/>
      </g>
     </g>
    </g>
    <g id="ytick_22">
     <g id="line2d_49">
      <g>
       <use style="stroke:#000000;stroke-width:0.6;" x="90" xlink:href="#maae85fef91" y="434.329715"/>
      </g>
     </g>
    </g>
    <g id="ytick_23">
     <g id="line2d_50">
      <g>
       <use style="stroke:#000000;stroke-width:0.6;" x="90" xlink:href="#maae85fef91" y="428.457463"/>
      </g>
     </g>
    </g>
    <g id="ytick_24">
     <g id="line2d_51">
      <g>
       <use style="stroke:#000000;stroke-width:0.6;" x="90" xlink:href="#maae85fef91" y="423.277769"/>
      </g>
     </g>
    </g>
    <g id="ytick_25">
     <g id="line2d_52">
      <g>
       <use style="stroke:#000000;stroke-width:0.6;" x="90" xlink:href="#maae85fef91" y="388.162139"/>
      </g>
     </g>
    </g>
    <g id="text_19">
     <!-- Count -->
     <defs>
      <path d="M 64.40625 67.28125 
L 64.40625 56.890625 
Q 59.421875 61.53125 53.78125 63.8125 
Q 48.140625 66.109375 41.796875 66.109375 
Q 29.296875 66.109375 22.65625 58.46875 
Q 16.015625 50.828125 16.015625 36.375 
Q 16.015625 21.96875 22.65625 14.328125 
Q 29.296875 6.6875 41.796875 6.6875 
Q 48.140625 6.6875 53.78125 8.984375 
Q 59.421875 11.28125 64.40625 15.921875 
L 64.40625 5.609375 
Q 59.234375 2.09375 53.4375 0.328125 
Q 47.65625 -1.421875 41.21875 -1.421875 
Q 24.65625 -1.421875 15.125 8.703125 
Q 5.609375 18.84375 5.609375 36.375 
Q 5.609375 53.953125 15.125 64.078125 
Q 24.65625 74.21875 41.21875 74.21875 
Q 47.75 74.21875 53.53125 72.484375 
Q 59.328125 70.75 64.40625 67.28125 
z
" id="DejaVuSans-67"/>
     </defs>
     <g transform="translate(27.99025 546.59475)rotate(-90)scale(0.2592 -0.2592)">
      <use xlink:href="#DejaVuSans-67"/>
      <use x="69.824219" xlink:href="#DejaVuSans-111"/>
      <use x="131.005859" xlink:href="#DejaVuSans-117"/>
      <use x="194.384766" xlink:href="#DejaVuSans-110"/>
      <use x="257.763672" xlink:href="#DejaVuSans-116"/>
     </g>
    </g>
   </g>
   <g id="line2d_53">
    <path clip-path="url(#p07c6004327)" d="M 104.307692 711.64 
L 104.307692 448.255758 
L 118.615385 448.255758 
L 118.615385 418.206793 
L 132.923077 418.206793 
L 132.923077 408.133231 
L 147.230769 408.133231 
L 147.230769 405.122252 
L 161.538462 405.122252 
L 161.538462 402.002038 
L 175.846154 402.002038 
L 175.846154 406.769507 
L 190.153846 406.769507 
L 190.153846 404.480247 
L 204.461538 404.480247 
L 204.461538 407.446083 
L 218.769231 407.446083 
L 218.769231 404.480247 
L 233.076923 404.480247 
L 233.076923 401.107569 
L 247.384615 401.107569 
L 247.384615 399.371426 
L 261.692308 399.371426 
L 261.692308 410.261545 
L 276 410.261545 
L 276 400.23093 
L 290.307692 400.23093 
L 290.307692 403.534478 
L 304.615385 403.534478 
L 304.615385 405.122252 
L 318.923077 405.122252 
L 318.923077 404.480247 
L 333.230769 404.480247 
L 333.230769 399.656065 
L 347.538462 399.656065 
L 347.538462 399.942558 
L 361.846154 399.942558 
L 361.846154 399.088617 
L 376.153846 399.088617 
L 376.153846 402.002038 
L 390.461538 402.002038 
L 390.461538 406.435083 
L 404.769231 406.435083 
L 404.769231 402.915079 
L 419.076923 402.915079 
L 419.076923 402.915079 
L 433.384615 402.915079 
L 433.384615 401.107569 
L 447.692308 401.107569 
L 447.692308 402.002038 
L 462 402.002038 
L 462 403.534478 
L 476.307692 403.534478 
L 476.307692 395.051236 
L 490.615385 395.051236 
L 490.615385 402.002038 
L 504.923077 402.002038 
L 504.923077 399.088617 
L 519.230769 399.088617 
L 519.230769 404.480247 
L 533.538462 404.480247 
L 533.538462 398.807616 
L 547.846154 398.807616 
L 547.846154 410.994505 
L 562.153846 410.994505 
L 562.153846 405.446804 
L 576.461538 405.446804 
L 576.461538 404.162725 
L 590.769231 404.162725 
L 590.769231 396.889331 
L 605.076923 396.889331 
L 605.076923 399.656065 
L 619.384615 399.656065 
L 619.384615 407.446083 
L 633.692308 407.446083 
L 633.692308 402.915079 
L 648 402.915079 
" style="fill:none;stroke:#1f77b4;stroke-linecap:square;stroke-width:1.5;"/>
   </g>
   <g id="line2d_54">
    <path clip-path="url(#p07c6004327)" d="M 104.307692 711.64 
L 104.307692 462.368179 
L 118.615385 462.368179 
L 118.615385 441.108733 
L 132.923077 441.108733 
L 132.923077 430.1383 
L 147.230769 430.1383 
L 147.230769 420.900078 
L 161.538462 420.900078 
L 161.538462 417.773523 
L 175.846154 417.773523 
L 175.846154 419.983866 
L 190.153846 419.983866 
L 190.153846 422.311212 
L 204.461538 422.311212 
L 204.461538 421.835785 
L 218.769231 421.835785 
L 218.769231 417.773523 
L 233.076923 417.773523 
L 233.076923 415.259892 
L 247.384615 415.259892 
L 247.384615 409.184514 
L 261.692308 409.184514 
L 261.692308 422.791835 
L 276 422.791835 
L 276 413.269662 
L 290.307692 413.269662 
L 290.307692 413.660568 
L 304.615385 413.660568 
L 304.615385 415.668979 
L 318.923077 415.668979 
L 318.923077 416.919582 
L 333.230769 416.919582 
L 333.230769 408.133231 
L 347.538462 408.133231 
L 347.538462 405.773769 
L 361.846154 405.773769 
L 361.846154 405.446804 
L 376.153846 405.446804 
L 376.153846 405.773769 
L 390.461538 405.773769 
L 390.461538 410.626498 
L 404.769231 410.626498 
L 404.769231 409.184514 
L 419.076923 409.184514 
L 419.076923 409.540602 
L 433.384615 409.540602 
L 433.384615 406.103183 
L 447.692308 406.103183 
L 447.692308 407.446083 
L 462 407.446083 
L 462 408.831287 
L 476.307692 408.831287 
L 476.307692 399.371426 
L 490.615385 399.371426 
L 490.615385 404.800078 
L 504.923077 404.800078 
L 504.923077 401.701856 
L 519.230769 401.701856 
L 519.230769 406.435083 
L 533.538462 406.435083 
L 533.538462 400.521206 
L 547.846154 400.521206 
L 547.846154 413.660568 
L 562.153846 413.660568 
L 562.153846 409.540602 
L 576.461538 409.540602 
L 576.461538 406.103183 
L 590.769231 406.103183 
L 590.769231 398.807616 
L 605.076923 398.807616 
L 605.076923 403.84748 
L 619.384615 403.84748 
L 619.384615 408.831287 
L 633.692308 408.831287 
L 633.692308 404.800078 
L 648 404.800078 
" style="fill:none;stroke:#ff7f0e;stroke-linecap:square;stroke-width:1.5;"/>
   </g>
   <g id="line2d_55">
    <path clip-path="url(#p07c6004327)" d="M 104.307692 711.64 
L 104.307692 491.677637 
L 118.615385 491.677637 
L 118.615385 438.270551 
L 132.923077 438.270551 
L 132.923077 456.794074 
L 147.230769 456.794074 
L 147.230769 450.921821 
L 161.538462 450.921821 
L 161.538462 455.759283 
L 175.846154 455.759283 
L 175.846154 440.381831 
L 190.153846 440.381831 
L 190.153846 440.381831 
L 204.461538 440.381831 
L 204.461538 443.364437 
L 218.769231 443.364437 
L 218.769231 441.108733 
L 233.076923 441.108733 
L 233.076923 435.604488 
L 247.384615 435.604488 
L 247.384615 422.791835 
L 261.692308 422.791835 
L 261.692308 427.911163 
L 276 427.911163 
L 276 434.329715 
L 290.307692 434.329715 
L 290.307692 433.090857 
L 304.615385 433.090857 
L 304.615385 430.1383 
L 318.923077 430.1383 
L 318.923077 437.58873 
L 333.230769 437.58873 
L 333.230769 439.666749 
L 347.538462 439.666749 
L 347.538462 442.599607 
L 361.846154 442.599607 
L 361.846154 446.564143 
L 376.153846 446.564143 
L 376.153846 444.935195 
L 390.461538 444.935195 
L 390.461538 450.015056 
L 404.769231 450.015056 
L 404.769231 456.794074 
L 419.076923 456.794074 
L 419.076923 473.081843 
L 433.384615 473.081843 
L 433.384615 464.811951 
L 447.692308 464.811951 
L 447.692308 467.399554 
L 462 467.399554 
L 462 464.811951 
L 476.307692 464.811951 
L 476.307692 479.608846 
L 490.615385 479.608846 
L 490.615385 477.884053 
L 504.923077 477.884053 
L 504.923077 483.275683 
L 519.230769 483.275683 
L 519.230769 483.275683 
L 533.538462 483.275683 
L 533.538462 485.230519 
L 547.846154 485.230519 
L 547.846154 499.235022 
L 562.153846 499.235022 
L 562.153846 502.073204 
L 576.461538 502.073204 
L 576.461538 502.073204 
L 590.769231 502.073204 
L 590.769231 535.58951 
L 605.076923 535.58951 
L 605.076923 511.886292 
L 619.384615 511.886292 
L 619.384615 621.163964 
L 633.692308 621.163964 
L 633.692308 572.850763 
L 648 572.850763 
" style="fill:none;stroke:#2ca02c;stroke-linecap:square;stroke-width:1.5;"/>
   </g>
   <g id="patch_10">
    <path d="M 90 632.4696 
L 90 383.7456 
" style="fill:none;stroke:#000000;stroke-linecap:square;stroke-linejoin:miter;stroke-width:0.8;"/>
   </g>
   <g id="patch_11">
    <path d="M 648 632.4696 
L 648 383.7456 
" style="fill:none;stroke:#000000;stroke-linecap:square;stroke-linejoin:miter;stroke-width:0.8;"/>
   </g>
   <g id="patch_12">
    <path d="M 90 632.4696 
L 648 632.4696 
" style="fill:none;stroke:#000000;stroke-linecap:square;stroke-linejoin:miter;stroke-width:0.8;"/>
   </g>
   <g id="patch_13">
    <path d="M 90 383.7456 
L 648 383.7456 
" style="fill:none;stroke:#000000;stroke-linecap:square;stroke-linejoin:miter;stroke-width:0.8;"/>
   </g>
   <g id="legend_2">
    <g id="patch_14">
     <path d="M 263.033437 623.4696 
L 474.966562 623.4696 
Q 478.566562 623.4696 478.566562 619.8696 
L 478.566562 542.407725 
Q 478.566562 538.807725 474.966562 538.807725 
L 263.033437 538.807725 
Q 259.433437 538.807725 259.433437 542.407725 
L 259.433437 619.8696 
Q 259.433437 623.4696 263.033437 623.4696 
z
" style="fill:#ffffff;opacity:0.5;stroke:#cccccc;stroke-linejoin:miter;"/>
    </g>
    <g id="line2d_56">
     <path d="M 266.633437 553.384913 
L 302.633437 553.384913 
" style="fill:none;stroke:#1f77b4;stroke-linecap:square;stroke-width:1.5;"/>
    </g>
    <g id="line2d_57"/>
    <g id="text_20">
     <!--  Electron -->
     <defs>
      <path id="DejaVuSans-32"/>
      <path d="M 9.421875 75.984375 
L 18.40625 75.984375 
L 18.40625 0 
L 9.421875 0 
z
" id="DejaVuSans-108"/>
     </defs>
     <g transform="translate(317.033437 559.684912)scale(0.18 -0.18)">
      <use xlink:href="#DejaVuSans-32"/>
      <use x="31.787109" xlink:href="#DejaVuSans-69"/>
      <use x="94.970703" xlink:href="#DejaVuSans-108"/>
      <use x="122.753906" xlink:href="#DejaVuSans-101"/>
      <use x="184.277344" xlink:href="#DejaVuSans-99"/>
      <use x="239.257812" xlink:href="#DejaVuSans-116"/>
      <use x="278.466797" xlink:href="#DejaVuSans-114"/>
      <use x="319.548828" xlink:href="#DejaVuSans-111"/>
      <use x="380.730469" xlink:href="#DejaVuSans-110"/>
     </g>
    </g>
    <g id="line2d_58">
     <path d="M 266.633437 579.805538 
L 302.633437 579.805538 
" style="fill:none;stroke:#ff7f0e;stroke-linecap:square;stroke-width:1.5;"/>
    </g>
    <g id="line2d_59"/>
    <g id="text_21">
     <!-- correct  Electron -->
     <g transform="translate(317.033437 586.105537)scale(0.18 -0.18)">
      <use xlink:href="#DejaVuSans-99"/>
      <use x="54.980469" xlink:href="#DejaVuSans-111"/>
      <use x="116.162109" xlink:href="#DejaVuSans-114"/>
      <use x="157.259766" xlink:href="#DejaVuSans-114"/>
      <use x="198.341797" xlink:href="#DejaVuSans-101"/>
      <use x="259.865234" xlink:href="#DejaVuSans-99"/>
      <use x="314.845703" xlink:href="#DejaVuSans-116"/>
      <use x="354.054688" xlink:href="#DejaVuSans-32"/>
      <use x="385.841797" xlink:href="#DejaVuSans-32"/>
      <use x="417.628906" xlink:href="#DejaVuSans-69"/>
      <use x="480.8125" xlink:href="#DejaVuSans-108"/>
      <use x="508.595703" xlink:href="#DejaVuSans-101"/>
      <use x="570.119141" xlink:href="#DejaVuSans-99"/>
      <use x="625.099609" xlink:href="#DejaVuSans-116"/>
      <use x="664.308594" xlink:href="#DejaVuSans-114"/>
      <use x="705.390625" xlink:href="#DejaVuSans-111"/>
      <use x="766.572266" xlink:href="#DejaVuSans-110"/>
     </g>
    </g>
    <g id="line2d_60">
     <path d="M 266.633437 606.226162 
L 302.633437 606.226162 
" style="fill:none;stroke:#2ca02c;stroke-linecap:square;stroke-width:1.5;"/>
    </g>
    <g id="line2d_61"/>
    <g id="text_22">
     <!-- incorrect  Photon -->
     <defs>
      <path d="M 54.890625 33.015625 
L 54.890625 0 
L 45.90625 0 
L 45.90625 32.71875 
Q 45.90625 40.484375 42.875 44.328125 
Q 39.84375 48.1875 33.796875 48.1875 
Q 26.515625 48.1875 22.3125 43.546875 
Q 18.109375 38.921875 18.109375 30.90625 
L 18.109375 0 
L 9.078125 0 
L 9.078125 75.984375 
L 18.109375 75.984375 
L 18.109375 46.1875 
Q 21.34375 51.125 25.703125 53.5625 
Q 30.078125 56 35.796875 56 
Q 45.21875 56 50.046875 50.171875 
Q 54.890625 44.34375 54.890625 33.015625 
z
" id="DejaVuSans-104"/>
     </defs>
     <g transform="translate(317.033437 612.526162)scale(0.18 -0.18)">
      <use xlink:href="#DejaVuSans-105"/>
      <use x="27.783203" xlink:href="#DejaVuSans-110"/>
      <use x="91.162109" xlink:href="#DejaVuSans-99"/>
      <use x="146.142578" xlink:href="#DejaVuSans-111"/>
      <use x="207.324219" xlink:href="#DejaVuSans-114"/>
      <use x="248.421875" xlink:href="#DejaVuSans-114"/>
      <use x="289.503906" xlink:href="#DejaVuSans-101"/>
      <use x="351.027344" xlink:href="#DejaVuSans-99"/>
      <use x="406.007812" xlink:href="#DejaVuSans-116"/>
      <use x="445.216797" xlink:href="#DejaVuSans-32"/>
      <use x="477.003906" xlink:href="#DejaVuSans-32"/>
      <use x="508.791016" xlink:href="#DejaVuSans-80"/>
      <use x="569.09375" xlink:href="#DejaVuSans-104"/>
      <use x="632.472656" xlink:href="#DejaVuSans-111"/>
      <use x="693.654297" xlink:href="#DejaVuSans-116"/>
      <use x="732.863281" xlink:href="#DejaVuSans-111"/>
      <use x="794.044922" xlink:href="#DejaVuSans-110"/>
     </g>
    </g>
   </g>
  </g>
 </g>
 <defs>
  <clipPath id="pff27418173">
   <rect height="248.724" width="558" x="90" y="85.2768"/>
  </clipPath>
  <clipPath id="p07c6004327">
   <rect height="248.724" width="558" x="90" y="383.7456"/>
  </clipPath>
 </defs>
</svg>
