<?xml version="1.0" encoding="utf-8" standalone="no"?>
<!DOCTYPE svg PUBLIC "-//W3C//DTD SVG 1.1//EN"
  "http://www.w3.org/Graphics/SVG/1.1/DTD/svg11.dtd">
<!-- Created with matplotlib (https://matplotlib.org/) -->
<svg height="540pt" version="1.1" viewBox="0 0 720 540" width="720pt" xmlns="http://www.w3.org/2000/svg" xmlns:xlink="http://www.w3.org/1999/xlink">
 <defs>
  <style type="text/css">
*{stroke-linecap:butt;stroke-linejoin:round;}
  </style>
 </defs>
 <g id="figure_1">
  <g id="patch_1">
   <path d="M 0 540 
L 720 540 
L 720 0 
L 0 0 
z
" style="fill:#ffffff;"/>
  </g>
  <g id="axes_1">
   <g id="patch_2">
    <path d="M 90 480.6 
L 648 480.6 
L 648 64.8 
L 90 64.8 
z
" style="fill:#ffffff;"/>
   </g>
   <g id="patch_3">
    <path clip-path="url(#p46b7aee580)" d="M 90 102972.299295 
L 90 102972.299295 
L 92.80402 102972.299295 
L 92.80402 102972.299295 
L 95.60804 102972.299295 
L 95.60804 102972.299295 
L 98.41206 102972.299295 
L 98.41206 102972.299295 
L 101.21608 102972.299295 
L 101.21608 102972.299295 
L 104.020101 102972.299295 
L 104.020101 102972.299295 
L 106.824121 102972.299295 
L 106.824121 102972.299295 
L 109.628141 102972.299295 
L 109.628141 102972.299295 
L 112.432161 102972.299295 
L 112.432161 102972.299295 
L 115.236181 102972.299295 
L 115.236181 102972.299295 
L 118.040201 102972.299295 
L 118.040201 102972.299295 
L 120.844221 102972.299295 
L 120.844221 102972.299295 
L 123.648241 102972.299295 
L 123.648241 102972.299295 
L 126.452261 102972.299295 
L 126.452261 102972.299295 
L 129.256281 102972.299295 
L 129.256281 102972.299295 
L 132.060302 102972.299295 
L 132.060302 102972.299295 
L 134.864322 102972.299295 
L 134.864322 102972.299295 
L 137.668342 102972.299295 
L 137.668342 102972.299295 
L 140.472362 102972.299295 
L 140.472362 102972.299295 
L 143.276382 102972.299295 
L 143.276382 102972.299295 
L 146.080402 102972.299295 
L 146.080402 102972.299295 
L 148.884422 102972.299295 
L 148.884422 102972.299295 
L 151.688442 102972.299295 
L 151.688442 102972.299295 
L 154.492462 102972.299295 
L 154.492462 261.788283 
L 157.296482 261.788283 
L 157.296482 180.661671 
L 160.100503 180.661671 
L 160.100503 158.381855 
L 162.904523 158.381855 
L 162.904523 143.576518 
L 165.708543 143.576518 
L 165.708543 137.740973 
L 168.512563 137.740973 
L 168.512563 126.890487 
L 171.316583 126.890487 
L 171.316583 128.542337 
L 174.120603 128.542337 
L 174.120603 126.227652 
L 176.924623 126.227652 
L 176.924623 124.476508 
L 179.728643 124.476508 
L 179.728643 119.844035 
L 182.532663 119.844035 
L 182.532663 122.358214 
L 185.336683 122.358214 
L 185.336683 126.890487 
L 188.140704 126.890487 
L 188.140704 125.022132 
L 190.944724 125.022132 
L 190.944724 126.510522 
L 193.748744 126.510522 
L 193.748744 124.839517 
L 196.552764 124.839517 
L 196.552764 125.11372 
L 199.356784 125.11372 
L 199.356784 129.746193 
L 202.160804 129.746193 
L 202.160804 133.23424 
L 204.964824 133.23424 
L 204.964824 129.140216 
L 207.768844 129.140216 
L 207.768844 127.563291 
L 210.572864 127.563291 
L 210.572864 123.848245 
L 213.376884 123.848245 
L 213.376884 117.929706 
L 216.180905 117.929706 
L 216.180905 114.983691 
L 218.984925 114.983691 
L 218.984925 113.052141 
L 221.788945 113.052141 
L 221.788945 112.151061 
L 224.592965 112.151061 
L 224.592965 110.99946 
L 227.396985 110.99946 
L 227.396985 109.876758 
L 230.201005 109.876758 
L 230.201005 110.401581 
L 233.005025 110.401581 
L 233.005025 110.1384 
L 235.809045 110.1384 
L 235.809045 113.544962 
L 238.613065 113.544962 
L 238.613065 111.066387 
L 241.417085 111.066387 
L 241.417085 117.540993 
L 244.221106 117.540993 
L 244.221106 124.476508 
L 247.025126 124.476508 
L 247.025126 125.389614 
L 249.829146 125.389614 
L 249.829146 129.240644 
L 252.633166 129.240644 
L 252.633166 127.952343 
L 255.437186 127.952343 
L 255.437186 133.565245 
L 258.241206 133.565245 
L 258.241206 137.862716 
L 261.045226 137.862716 
L 261.045226 139.098723 
L 263.849246 139.098723 
L 263.849246 147.030884 
L 266.653266 147.030884 
L 266.653266 149.968283 
L 269.457286 149.968283 
L 269.457286 150.289006 
L 272.261307 150.289006 
L 272.261307 158.189422 
L 275.065327 158.189422 
L 275.065327 165.022256 
L 277.869347 165.022256 
L 277.869347 161.995167 
L 280.673367 161.995167 
L 280.673367 168.510303 
L 283.477387 168.510303 
L 283.477387 165.69845 
L 286.281407 165.69845 
L 286.281407 171.252926 
L 289.085427 171.252926 
L 289.085427 179.410104 
L 291.889447 179.410104 
L 291.889447 181.623872 
L 294.693467 181.623872 
L 294.693467 186.772144 
L 297.497487 186.772144 
L 297.497487 195.5889 
L 300.301508 195.5889 
L 300.301508 196.483742 
L 303.105528 196.483742 
L 303.105528 201.753427 
L 305.909548 201.753427 
L 305.909548 204.370583 
L 308.713568 204.370583 
L 308.713568 204.9129 
L 311.517588 204.9129 
L 311.517588 207.727703 
L 314.321608 207.727703 
L 314.321608 219.640695 
L 317.125628 219.640695 
L 317.125628 210.731556 
L 319.929648 210.731556 
L 319.929648 214.624498 
L 322.733668 214.624498 
L 322.733668 219.640695 
L 325.537688 219.640695 
L 325.537688 224.438925 
L 328.341709 224.438925 
L 328.341709 241.743384 
L 331.145729 241.743384 
L 331.145729 240.517537 
L 333.949749 240.517537 
L 333.949749 239.324383 
L 336.753769 239.324383 
L 336.753769 243.003766 
L 339.557789 243.003766 
L 339.557789 233.79382 
L 342.361809 233.79382 
L 342.361809 243.003766 
L 345.165829 243.003766 
L 345.165829 259.88414 
L 347.969849 259.88414 
L 347.969849 261.788283 
L 350.773869 261.788283 
L 350.773869 258.057739 
L 353.577889 258.057739 
L 353.577889 247.013069 
L 356.38191 247.013069 
L 356.38191 270.336211 
L 359.18593 270.336211 
L 359.18593 245.636326 
L 361.98995 245.636326 
L 361.98995 263.777082 
L 364.79397 263.777082 
L 364.79397 259.88414 
L 367.59799 259.88414 
L 367.59799 259.88414 
L 370.40201 259.88414 
L 370.40201 275.312514 
L 373.20603 275.312514 
L 373.20603 283.999172 
L 376.01005 283.999172 
L 376.01005 287.314808 
L 378.81407 287.314808 
L 378.81407 275.312514 
L 381.61809 275.312514 
L 381.61809 303.767039 
L 384.422111 303.767039 
L 384.422111 287.314808 
L 387.226131 287.314808 
L 387.226131 330.064973 
L 390.030151 330.064973 
L 390.030151 303.767039 
L 392.834171 303.767039 
L 392.834171 340.048552 
L 395.638191 340.048552 
L 395.638191 299.053145 
L 398.442211 299.053145 
L 398.442211 278.024896 
L 401.246231 278.024896 
L 401.246231 315.011 
L 404.050251 315.011 
L 404.050251 340.048552 
L 406.854271 340.048552 
L 406.854271 309.036724 
L 409.658291 309.036724 
L 409.658291 309.036724 
L 412.462312 309.036724 
L 412.462312 402.072207 
L 415.266332 402.072207 
L 415.266332 321.907795 
L 418.070352 321.907795 
L 418.070352 309.036724 
L 420.874372 309.036724 
L 420.874372 340.048552 
L 423.678392 340.048552 
L 423.678392 340.048552 
L 426.482412 340.048552 
L 426.482412 402.072207 
L 429.286432 402.072207 
L 429.286432 102972.299295 
L 432.090452 102972.299295 
L 432.090452 330.064973 
L 434.894472 330.064973 
L 434.894472 340.048552 
L 437.698492 340.048552 
L 437.698492 371.060379 
L 440.502513 371.060379 
L 440.502513 402.072207 
L 443.306533 402.072207 
L 443.306533 102972.299295 
L 446.110553 102972.299295 
L 446.110553 102972.299295 
L 448.914573 102972.299295 
L 448.914573 102972.299295 
L 451.718593 102972.299295 
L 451.718593 102972.299295 
L 454.522613 102972.299295 
L 454.522613 402.072207 
L 457.326633 402.072207 
L 457.326633 102972.299295 
L 460.130653 102972.299295 
L 460.130653 402.072207 
L 462.934673 402.072207 
L 462.934673 102972.299295 
L 465.738693 102972.299295 
L 465.738693 102972.299295 
L 468.542714 102972.299295 
L 468.542714 102972.299295 
L 471.346734 102972.299295 
L 471.346734 102972.299295 
L 474.150754 102972.299295 
L 474.150754 102972.299295 
L 476.954774 102972.299295 
L 476.954774 102972.299295 
L 479.758794 102972.299295 
L 479.758794 102972.299295 
L 482.562814 102972.299295 
L 482.562814 102972.299295 
L 485.366834 102972.299295 
L 485.366834 102972.299295 
L 488.170854 102972.299295 
L 488.170854 102972.299295 
L 490.974874 102972.299295 
L 490.974874 102972.299295 
L 493.778894 102972.299295 
L 493.778894 102972.299295 
L 496.582915 102972.299295 
L 496.582915 102972.299295 
L 499.386935 102972.299295 
L 499.386935 102972.299295 
L 502.190955 102972.299295 
L 502.190955 102972.299295 
L 504.994975 102972.299295 
L 504.994975 102972.299295 
L 507.798995 102972.299295 
L 507.798995 102972.299295 
L 510.603015 102972.299295 
L 510.603015 102972.299295 
L 513.407035 102972.299295 
L 513.407035 102972.299295 
L 516.211055 102972.299295 
L 516.211055 102972.299295 
L 519.015075 102972.299295 
L 519.015075 102972.299295 
L 521.819095 102972.299295 
L 521.819095 102972.299295 
L 524.623116 102972.299295 
L 524.623116 102972.299295 
L 527.427136 102972.299295 
L 527.427136 102972.299295 
L 530.231156 102972.299295 
L 530.231156 102972.299295 
L 533.035176 102972.299295 
L 533.035176 102972.299295 
L 535.839196 102972.299295 
L 535.839196 102972.299295 
L 538.643216 102972.299295 
L 538.643216 102972.299295 
L 541.447236 102972.299295 
L 541.447236 102972.299295 
L 544.251256 102972.299295 
L 544.251256 102972.299295 
L 547.055276 102972.299295 
L 547.055276 102972.299295 
L 549.859296 102972.299295 
L 549.859296 102972.299295 
L 552.663317 102972.299295 
L 552.663317 102972.299295 
L 555.467337 102972.299295 
L 555.467337 102972.299295 
L 558.271357 102972.299295 
L 558.271357 102972.299295 
L 561.075377 102972.299295 
L 561.075377 102972.299295 
L 563.879397 102972.299295 
L 563.879397 102972.299295 
L 566.683417 102972.299295 
L 566.683417 102972.299295 
L 569.487437 102972.299295 
L 569.487437 102972.299295 
L 572.291457 102972.299295 
L 572.291457 102972.299295 
L 575.095477 102972.299295 
L 575.095477 102972.299295 
L 577.899497 102972.299295 
L 577.899497 102972.299295 
L 580.703518 102972.299295 
L 580.703518 102972.299295 
L 583.507538 102972.299295 
L 583.507538 102972.299295 
L 586.311558 102972.299295 
L 586.311558 102972.299295 
L 589.115578 102972.299295 
L 589.115578 102972.299295 
L 591.919598 102972.299295 
L 591.919598 102972.299295 
L 594.723618 102972.299295 
L 594.723618 102972.299295 
L 597.527638 102972.299295 
L 597.527638 102972.299295 
L 600.331658 102972.299295 
L 600.331658 102972.299295 
L 603.135678 102972.299295 
L 603.135678 102972.299295 
L 605.939698 102972.299295 
L 605.939698 102972.299295 
L 608.743719 102972.299295 
L 608.743719 102972.299295 
L 611.547739 102972.299295 
L 611.547739 102972.299295 
L 614.351759 102972.299295 
L 614.351759 102972.299295 
L 617.155779 102972.299295 
L 617.155779 102972.299295 
L 619.959799 102972.299295 
L 619.959799 102972.299295 
L 622.763819 102972.299295 
L 622.763819 102972.299295 
L 625.567839 102972.299295 
L 625.567839 102972.299295 
L 628.371859 102972.299295 
L 628.371859 102972.299295 
L 631.175879 102972.299295 
L 631.175879 102972.299295 
L 633.979899 102972.299295 
L 633.979899 102972.299295 
L 636.78392 102972.299295 
L 636.78392 102972.299295 
L 639.58794 102972.299295 
L 639.58794 102972.299295 
L 642.39196 102972.299295 
L 642.39196 102972.299295 
L 645.19598 102972.299295 
L 645.19598 102972.299295 
L 648 102972.299295 
L 648 102972.299295 
z
" style="fill:#1f77b4;opacity:0.2;"/>
   </g>
   <g id="patch_4">
    <path clip-path="url(#p46b7aee580)" d="M 90 102972.299295 
L 90 102972.299295 
L 92.80402 102972.299295 
L 92.80402 102972.299295 
L 95.60804 102972.299295 
L 95.60804 102972.299295 
L 98.41206 102972.299295 
L 98.41206 102972.299295 
L 101.21608 102972.299295 
L 101.21608 102972.299295 
L 104.020101 102972.299295 
L 104.020101 102972.299295 
L 106.824121 102972.299295 
L 106.824121 102972.299295 
L 109.628141 102972.299295 
L 109.628141 102972.299295 
L 112.432161 102972.299295 
L 112.432161 102972.299295 
L 115.236181 102972.299295 
L 115.236181 102972.299295 
L 118.040201 102972.299295 
L 118.040201 102972.299295 
L 120.844221 102972.299295 
L 120.844221 102972.299295 
L 123.648241 102972.299295 
L 123.648241 102972.299295 
L 126.452261 102972.299295 
L 126.452261 102972.299295 
L 129.256281 102972.299295 
L 129.256281 102972.299295 
L 132.060302 102972.299295 
L 132.060302 102972.299295 
L 134.864322 102972.299295 
L 134.864322 102972.299295 
L 137.668342 102972.299295 
L 137.668342 102972.299295 
L 140.472362 102972.299295 
L 140.472362 102972.299295 
L 143.276382 102972.299295 
L 143.276382 102972.299295 
L 146.080402 102972.299295 
L 146.080402 102972.299295 
L 148.884422 102972.299295 
L 148.884422 102972.299295 
L 151.688442 102972.299295 
L 151.688442 102972.299295 
L 154.492462 102972.299295 
L 154.492462 102972.299295 
L 157.296482 102972.299295 
L 157.296482 102972.299295 
L 160.100503 102972.299295 
L 160.100503 102972.299295 
L 162.904523 102972.299295 
L 162.904523 102972.299295 
L 165.708543 102972.299295 
L 165.708543 461.7 
L 168.512563 461.7 
L 168.512563 102972.299295 
L 171.316583 102972.299295 
L 171.316583 102972.299295 
L 174.120603 102972.299295 
L 174.120603 430.688172 
L 176.924623 430.688172 
L 176.924623 102972.299295 
L 179.728643 102972.299295 
L 179.728643 102972.299295 
L 182.532663 102972.299295 
L 182.532663 102972.299295 
L 185.336683 102972.299295 
L 185.336683 461.7 
L 188.140704 461.7 
L 188.140704 399.676345 
L 190.944724 399.676345 
L 190.944724 412.547416 
L 193.748744 412.547416 
L 193.748744 430.688172 
L 196.552764 430.688172 
L 196.552764 412.547416 
L 199.356784 412.547416 
L 199.356784 399.676345 
L 202.160804 399.676345 
L 202.160804 412.547416 
L 204.964824 412.547416 
L 204.964824 374.638793 
L 207.768844 374.638793 
L 207.768844 412.547416 
L 210.572864 412.547416 
L 210.572864 354.416703 
L 213.376884 354.416703 
L 213.376884 350.523761 
L 216.180905 350.523761 
L 216.180905 332.383005 
L 218.984925 332.383005 
L 218.984925 323.404875 
L 221.788945 323.404875 
L 221.788945 325.486209 
L 224.592965 325.486209 
L 224.592965 334.940307 
L 227.396985 334.940307 
L 227.396985 319.511933 
L 230.201005 319.511933 
L 230.201005 295.552521 
L 233.005025 295.552521 
L 233.005025 306.640862 
L 235.809045 306.640862 
L 235.809045 309.528355 
L 238.613065 309.528355 
L 238.613065 296.657283 
L 241.417085 296.657283 
L 241.417085 306.640862 
L 244.221106 306.640862 
L 244.221106 281.60331 
L 247.025126 281.60331 
L 247.025126 280.81142 
L 249.829146 280.81142 
L 249.829146 274.252291 
L 252.633166 274.252291 
L 252.633166 266.208238 
L 255.437186 266.208238 
L 255.437186 266.77819 
L 258.241206 266.77819 
L 258.241206 269.742228 
L 261.045226 269.742228 
L 261.045226 262.409785 
L 263.849246 262.409785 
L 263.849246 256.565758 
L 266.653266 256.565758 
L 266.653266 262.409785 
L 269.457286 262.409785 
L 269.457286 259.881394 
L 272.261307 259.881394 
L 272.261307 257.02464 
L 275.065327 257.02464 
L 275.065327 263.998376 
L 277.869347 263.998376 
L 277.869347 257.95677 
L 280.673367 257.95677 
L 280.673367 252.634788 
L 283.477387 252.634788 
L 283.477387 253.478975 
L 286.281407 253.478975 
L 286.281407 241.577052 
L 289.085427 241.577052 
L 289.085427 255.216693 
L 291.889447 255.216693 
L 291.889447 248.25666 
L 294.693467 248.25666 
L 294.693467 243.580698 
L 297.497487 243.580698 
L 297.497487 237.521121 
L 300.301508 237.521121 
L 300.301508 245.321798 
L 303.105528 245.321798 
L 303.105528 242.56766 
L 305.909548 242.56766 
L 305.909548 242.235014 
L 308.713568 242.235014 
L 308.713568 241.251665 
L 311.517588 241.251665 
L 311.517588 238.121675 
L 314.321608 238.121675 
L 314.321608 233.528865 
L 317.125628 233.528865 
L 317.125628 232.185203 
L 319.929648 232.185203 
L 319.929648 233.528865 
L 322.733668 233.528865 
L 322.733668 231.658836 
L 325.537688 231.658836 
L 325.537688 231.921245 
L 328.341709 231.921245 
L 328.341709 228.869567 
L 331.145729 228.869567 
L 331.145729 227.896906 
L 333.949749 227.896906 
L 333.949749 236.635139 
L 336.753769 236.635139 
L 336.753769 229.363943 
L 339.557789 229.363943 
L 339.557789 225.099707 
L 342.361809 225.099707 
L 342.361809 223.545287 
L 345.165829 223.545287 
L 345.165829 225.553931 
L 347.969849 225.553931 
L 347.969849 222.254603 
L 350.773869 222.254603 
L 350.773869 221.206765 
L 353.577889 221.206765 
L 353.577889 215.025835 
L 356.38191 215.025835 
L 356.38191 218.009648 
L 359.18593 218.009648 
L 359.18593 214.845792 
L 361.98995 214.845792 
L 361.98995 212.56887 
L 364.79397 212.56887 
L 364.79397 217.625606 
L 367.59799 217.625606 
L 367.59799 212.911712 
L 370.40201 212.911712 
L 370.40201 210.239837 
L 373.20603 210.239837 
L 373.20603 207.718572 
L 376.01005 207.718572 
L 376.01005 208.961447 
L 378.81407 208.961447 
L 378.81407 206.658678 
L 381.61809 206.658678 
L 381.61809 199.612498 
L 384.422111 199.612498 
L 384.422111 200.516379 
L 387.226131 200.516379 
L 387.226131 196.645182 
L 390.030151 196.645182 
L 390.030151 190.402551 
L 392.834171 190.402551 
L 392.834171 193.193038 
L 395.638191 193.193038 
L 395.638191 189.373986 
L 398.442211 189.373986 
L 398.442211 187.094348 
L 401.246231 187.094348 
L 401.246231 185.667853 
L 404.050251 185.667853 
L 404.050251 182.94446 
L 406.854271 182.94446 
L 406.854271 179.553397 
L 409.658291 179.553397 
L 409.658291 175.200185 
L 412.462312 175.200185 
L 412.462312 170.895563 
L 415.266332 170.895563 
L 415.266332 168.155486 
L 418.070352 168.155486 
L 418.070352 164.336434 
L 420.874372 164.336434 
L 420.874372 161.14132 
L 423.678392 161.14132 
L 423.678392 157.059428 
L 426.482412 157.059428 
L 426.482412 155.031999 
L 429.286432 155.031999 
L 429.286432 150.035829 
L 432.090452 150.035829 
L 432.090452 147.333379 
L 434.894472 147.333379 
L 434.894472 145.161831 
L 437.698492 145.161831 
L 437.698492 140.05225 
L 440.502513 140.05225 
L 440.502513 135.223698 
L 443.306533 135.223698 
L 443.306533 132.689978 
L 446.110553 132.689978 
L 446.110553 126.220774 
L 448.914573 126.220774 
L 448.914573 124.614029 
L 451.718593 124.614029 
L 451.718593 118.960734 
L 454.522613 118.960734 
L 454.522613 115.572902 
L 457.326633 115.572902 
L 457.326633 111.772859 
L 460.130653 111.772859 
L 460.130653 107.709749 
L 462.934673 107.709749 
L 462.934673 104.121026 
L 465.738693 104.121026 
L 465.738693 100.379593 
L 468.542714 100.379593 
L 468.542714 98.247068 
L 471.346734 98.247068 
L 471.346734 94.801819 
L 474.150754 94.801819 
L 474.150754 93.173831 
L 476.954774 93.173831 
L 476.954774 92.644071 
L 479.758794 92.644071 
L 479.758794 89.590849 
L 482.562814 89.590849 
L 482.562814 84.973252 
L 485.366834 84.973252 
L 485.366834 83.7 
L 488.170854 83.7 
L 488.170854 86.192527 
L 490.974874 86.192527 
L 490.974874 93.98645 
L 493.778894 93.98645 
L 493.778894 109.823872 
L 496.582915 109.823872 
L 496.582915 132.120751 
L 499.386935 132.120751 
L 499.386935 167.65207 
L 502.190955 167.65207 
L 502.190955 234.077837 
L 504.994975 234.077837 
L 504.994975 319.511933 
L 507.798995 319.511933 
L 507.798995 102972.299295 
L 510.603015 102972.299295 
L 510.603015 102972.299295 
L 513.407035 102972.299295 
L 513.407035 102972.299295 
L 516.211055 102972.299295 
L 516.211055 102972.299295 
L 519.015075 102972.299295 
L 519.015075 102972.299295 
L 521.819095 102972.299295 
L 521.819095 102972.299295 
L 524.623116 102972.299295 
L 524.623116 102972.299295 
L 527.427136 102972.299295 
L 527.427136 102972.299295 
L 530.231156 102972.299295 
L 530.231156 102972.299295 
L 533.035176 102972.299295 
L 533.035176 102972.299295 
L 535.839196 102972.299295 
L 535.839196 102972.299295 
L 538.643216 102972.299295 
L 538.643216 102972.299295 
L 541.447236 102972.299295 
L 541.447236 102972.299295 
L 544.251256 102972.299295 
L 544.251256 102972.299295 
L 547.055276 102972.299295 
L 547.055276 102972.299295 
L 549.859296 102972.299295 
L 549.859296 102972.299295 
L 552.663317 102972.299295 
L 552.663317 102972.299295 
L 555.467337 102972.299295 
L 555.467337 102972.299295 
L 558.271357 102972.299295 
L 558.271357 102972.299295 
L 561.075377 102972.299295 
L 561.075377 102972.299295 
L 563.879397 102972.299295 
L 563.879397 102972.299295 
L 566.683417 102972.299295 
L 566.683417 102972.299295 
L 569.487437 102972.299295 
L 569.487437 102972.299295 
L 572.291457 102972.299295 
L 572.291457 102972.299295 
L 575.095477 102972.299295 
L 575.095477 102972.299295 
L 577.899497 102972.299295 
L 577.899497 102972.299295 
L 580.703518 102972.299295 
L 580.703518 102972.299295 
L 583.507538 102972.299295 
L 583.507538 102972.299295 
L 586.311558 102972.299295 
L 586.311558 102972.299295 
L 589.115578 102972.299295 
L 589.115578 102972.299295 
L 591.919598 102972.299295 
L 591.919598 102972.299295 
L 594.723618 102972.299295 
L 594.723618 102972.299295 
L 597.527638 102972.299295 
L 597.527638 102972.299295 
L 600.331658 102972.299295 
L 600.331658 102972.299295 
L 603.135678 102972.299295 
L 603.135678 102972.299295 
L 605.939698 102972.299295 
L 605.939698 102972.299295 
L 608.743719 102972.299295 
L 608.743719 102972.299295 
L 611.547739 102972.299295 
L 611.547739 102972.299295 
L 614.351759 102972.299295 
L 614.351759 102972.299295 
L 617.155779 102972.299295 
L 617.155779 102972.299295 
L 619.959799 102972.299295 
L 619.959799 102972.299295 
L 622.763819 102972.299295 
L 622.763819 102972.299295 
L 625.567839 102972.299295 
L 625.567839 102972.299295 
L 628.371859 102972.299295 
L 628.371859 102972.299295 
L 631.175879 102972.299295 
L 631.175879 102972.299295 
L 633.979899 102972.299295 
L 633.979899 102972.299295 
L 636.78392 102972.299295 
L 636.78392 102972.299295 
L 639.58794 102972.299295 
L 639.58794 102972.299295 
L 642.39196 102972.299295 
L 642.39196 102972.299295 
L 645.19598 102972.299295 
L 645.19598 102972.299295 
L 648 102972.299295 
L 648 102972.299295 
z
" style="fill:#ff7f0e;opacity:0.2;"/>
   </g>
   <g id="matplotlib.axis_1">
    <g id="xtick_1">
     <g id="line2d_1">
      <defs>
       <path d="M 0 0 
L 0 3.5 
" id="m5beafd4dfe" style="stroke:#000000;stroke-width:0.8;"/>
      </defs>
      <g>
       <use style="stroke:#000000;stroke-width:0.8;" x="90" xlink:href="#m5beafd4dfe" y="480.6"/>
      </g>
     </g>
     <g id="text_1">
      <!-- −10 -->
      <defs>
       <path d="M 10.59375 35.5 
L 73.1875 35.5 
L 73.1875 27.203125 
L 10.59375 27.203125 
z
" id="DejaVuSans-8722"/>
       <path d="M 12.40625 8.296875 
L 28.515625 8.296875 
L 28.515625 63.921875 
L 10.984375 60.40625 
L 10.984375 69.390625 
L 28.421875 72.90625 
L 38.28125 72.90625 
L 38.28125 8.296875 
L 54.390625 8.296875 
L 54.390625 0 
L 12.40625 0 
z
" id="DejaVuSans-49"/>
       <path d="M 31.78125 66.40625 
Q 24.171875 66.40625 20.328125 58.90625 
Q 16.5 51.421875 16.5 36.375 
Q 16.5 21.390625 20.328125 13.890625 
Q 24.171875 6.390625 31.78125 6.390625 
Q 39.453125 6.390625 43.28125 13.890625 
Q 47.125 21.390625 47.125 36.375 
Q 47.125 51.421875 43.28125 58.90625 
Q 39.453125 66.40625 31.78125 66.40625 
z
M 31.78125 74.21875 
Q 44.046875 74.21875 50.515625 64.515625 
Q 56.984375 54.828125 56.984375 36.375 
Q 56.984375 17.96875 50.515625 8.265625 
Q 44.046875 -1.421875 31.78125 -1.421875 
Q 19.53125 -1.421875 13.0625 8.265625 
Q 6.59375 17.96875 6.59375 36.375 
Q 6.59375 54.828125 13.0625 64.515625 
Q 19.53125 74.21875 31.78125 74.21875 
z
" id="DejaVuSans-48"/>
      </defs>
      <g transform="translate(62.648325 507.29515)scale(0.2592 -0.2592)">
       <use xlink:href="#DejaVuSans-8722"/>
       <use x="83.789062" xlink:href="#DejaVuSans-49"/>
       <use x="147.412109" xlink:href="#DejaVuSans-48"/>
      </g>
     </g>
    </g>
    <g id="xtick_2">
     <g id="line2d_2">
      <g>
       <use style="stroke:#000000;stroke-width:0.8;" x="201.6" xlink:href="#m5beafd4dfe" y="480.6"/>
      </g>
     </g>
     <g id="text_2">
      <!-- −5 -->
      <defs>
       <path d="M 10.796875 72.90625 
L 49.515625 72.90625 
L 49.515625 64.59375 
L 19.828125 64.59375 
L 19.828125 46.734375 
Q 21.96875 47.46875 24.109375 47.828125 
Q 26.265625 48.1875 28.421875 48.1875 
Q 40.625 48.1875 47.75 41.5 
Q 54.890625 34.8125 54.890625 23.390625 
Q 54.890625 11.625 47.5625 5.09375 
Q 40.234375 -1.421875 26.90625 -1.421875 
Q 22.3125 -1.421875 17.546875 -0.640625 
Q 12.796875 0.140625 7.71875 1.703125 
L 7.71875 11.625 
Q 12.109375 9.234375 16.796875 8.0625 
Q 21.484375 6.890625 26.703125 6.890625 
Q 35.15625 6.890625 40.078125 11.328125 
Q 45.015625 15.765625 45.015625 23.390625 
Q 45.015625 31 40.078125 35.4375 
Q 35.15625 39.890625 26.703125 39.890625 
Q 22.75 39.890625 18.8125 39.015625 
Q 14.890625 38.140625 10.796875 36.28125 
z
" id="DejaVuSans-53"/>
      </defs>
      <g transform="translate(182.494125 507.29515)scale(0.2592 -0.2592)">
       <use xlink:href="#DejaVuSans-8722"/>
       <use x="83.789062" xlink:href="#DejaVuSans-53"/>
      </g>
     </g>
    </g>
    <g id="xtick_3">
     <g id="line2d_3">
      <g>
       <use style="stroke:#000000;stroke-width:0.8;" x="313.2" xlink:href="#m5beafd4dfe" y="480.6"/>
      </g>
     </g>
     <g id="text_3">
      <!-- 0 -->
      <g transform="translate(304.9542 507.29515)scale(0.2592 -0.2592)">
       <use xlink:href="#DejaVuSans-48"/>
      </g>
     </g>
    </g>
    <g id="xtick_4">
     <g id="line2d_4">
      <g>
       <use style="stroke:#000000;stroke-width:0.8;" x="424.8" xlink:href="#m5beafd4dfe" y="480.6"/>
      </g>
     </g>
     <g id="text_4">
      <!-- 5 -->
      <g transform="translate(416.5542 507.29515)scale(0.2592 -0.2592)">
       <use xlink:href="#DejaVuSans-53"/>
      </g>
     </g>
    </g>
    <g id="xtick_5">
     <g id="line2d_5">
      <g>
       <use style="stroke:#000000;stroke-width:0.8;" x="536.4" xlink:href="#m5beafd4dfe" y="480.6"/>
      </g>
     </g>
     <g id="text_5">
      <!-- 10 -->
      <g transform="translate(519.9084 507.29515)scale(0.2592 -0.2592)">
       <use xlink:href="#DejaVuSans-49"/>
       <use x="63.623047" xlink:href="#DejaVuSans-48"/>
      </g>
     </g>
    </g>
    <g id="xtick_6">
     <g id="line2d_6">
      <g>
       <use style="stroke:#000000;stroke-width:0.8;" x="648" xlink:href="#m5beafd4dfe" y="480.6"/>
      </g>
     </g>
     <g id="text_6">
      <!-- 15 -->
      <g transform="translate(631.5084 507.29515)scale(0.2592 -0.2592)">
       <use xlink:href="#DejaVuSans-49"/>
       <use x="63.623047" xlink:href="#DejaVuSans-53"/>
      </g>
     </g>
    </g>
    <g id="text_7">
     <!-- BDTAll -->
     <defs>
      <path d="M 19.671875 34.8125 
L 19.671875 8.109375 
L 35.5 8.109375 
Q 43.453125 8.109375 47.28125 11.40625 
Q 51.125 14.703125 51.125 21.484375 
Q 51.125 28.328125 47.28125 31.5625 
Q 43.453125 34.8125 35.5 34.8125 
z
M 19.671875 64.796875 
L 19.671875 42.828125 
L 34.28125 42.828125 
Q 41.5 42.828125 45.03125 45.53125 
Q 48.578125 48.25 48.578125 53.8125 
Q 48.578125 59.328125 45.03125 62.0625 
Q 41.5 64.796875 34.28125 64.796875 
z
M 9.8125 72.90625 
L 35.015625 72.90625 
Q 46.296875 72.90625 52.390625 68.21875 
Q 58.5 63.53125 58.5 54.890625 
Q 58.5 48.1875 55.375 44.234375 
Q 52.25 40.28125 46.1875 39.3125 
Q 53.46875 37.75 57.5 32.78125 
Q 61.53125 27.828125 61.53125 20.40625 
Q 61.53125 10.640625 54.890625 5.3125 
Q 48.25 0 35.984375 0 
L 9.8125 0 
z
" id="DejaVuSans-66"/>
      <path d="M 19.671875 64.796875 
L 19.671875 8.109375 
L 31.59375 8.109375 
Q 46.6875 8.109375 53.6875 14.9375 
Q 60.6875 21.78125 60.6875 36.53125 
Q 60.6875 51.171875 53.6875 57.984375 
Q 46.6875 64.796875 31.59375 64.796875 
z
M 9.8125 72.90625 
L 30.078125 72.90625 
Q 51.265625 72.90625 61.171875 64.09375 
Q 71.09375 55.28125 71.09375 36.53125 
Q 71.09375 17.671875 61.125 8.828125 
Q 51.171875 0 30.078125 0 
L 9.8125 0 
z
" id="DejaVuSans-68"/>
      <path d="M -0.296875 72.90625 
L 61.375 72.90625 
L 61.375 64.59375 
L 35.5 64.59375 
L 35.5 0 
L 25.59375 0 
L 25.59375 64.59375 
L -0.296875 64.59375 
z
" id="DejaVuSans-84"/>
      <path d="M 34.1875 63.1875 
L 20.796875 26.90625 
L 47.609375 26.90625 
z
M 28.609375 72.90625 
L 39.796875 72.90625 
L 67.578125 0 
L 57.328125 0 
L 50.6875 18.703125 
L 17.828125 18.703125 
L 11.1875 0 
L 0.78125 0 
z
" id="DejaVuSans-65"/>
      <path d="M 9.421875 75.984375 
L 18.40625 75.984375 
L 18.40625 0 
L 9.421875 0 
z
" id="DejaVuSans-108"/>
     </defs>
     <g transform="translate(326.161125 536.38085)scale(0.2592 -0.2592)">
      <use xlink:href="#DejaVuSans-66"/>
      <use x="68.603516" xlink:href="#DejaVuSans-68"/>
      <use x="145.605469" xlink:href="#DejaVuSans-84"/>
      <use x="206.580078" xlink:href="#DejaVuSans-65"/>
      <use x="274.988281" xlink:href="#DejaVuSans-108"/>
      <use x="302.771484" xlink:href="#DejaVuSans-108"/>
     </g>
    </g>
   </g>
   <g id="matplotlib.axis_2">
    <g id="ytick_1">
     <g id="line2d_7">
      <defs>
       <path d="M 0 0 
L -3.5 0 
" id="mc18a70d640" style="stroke:#000000;stroke-width:0.8;"/>
      </defs>
      <g>
       <use style="stroke:#000000;stroke-width:0.8;" x="90" xlink:href="#mc18a70d640" y="468.333083"/>
      </g>
     </g>
     <g id="text_8">
      <!-- $\mathdefault{10^{-5}}$ -->
      <g transform="translate(22.088 478.180658)scale(0.2592 -0.2592)">
       <use transform="translate(0 0.684375)" xlink:href="#DejaVuSans-49"/>
       <use transform="translate(63.623047 0.684375)" xlink:href="#DejaVuSans-48"/>
       <use transform="translate(128.203125 38.965625)scale(0.7)" xlink:href="#DejaVuSans-8722"/>
       <use transform="translate(186.855469 38.965625)scale(0.7)" xlink:href="#DejaVuSans-53"/>
      </g>
     </g>
    </g>
    <g id="ytick_2">
     <g id="line2d_8">
      <g>
       <use style="stroke:#000000;stroke-width:0.8;" x="90" xlink:href="#mc18a70d640" y="365.314021"/>
      </g>
     </g>
     <g id="text_9">
      <!-- $\mathdefault{10^{-4}}$ -->
      <defs>
       <path d="M 37.796875 64.3125 
L 12.890625 25.390625 
L 37.796875 25.390625 
z
M 35.203125 72.90625 
L 47.609375 72.90625 
L 47.609375 25.390625 
L 58.015625 25.390625 
L 58.015625 17.1875 
L 47.609375 17.1875 
L 47.609375 0 
L 37.796875 0 
L 37.796875 17.1875 
L 4.890625 17.1875 
L 4.890625 26.703125 
z
" id="DejaVuSans-52"/>
      </defs>
      <g transform="translate(22.088 375.161596)scale(0.2592 -0.2592)">
       <use transform="translate(0 0.684375)" xlink:href="#DejaVuSans-49"/>
       <use transform="translate(63.623047 0.684375)" xlink:href="#DejaVuSans-48"/>
       <use transform="translate(128.203125 38.965625)scale(0.7)" xlink:href="#DejaVuSans-8722"/>
       <use transform="translate(186.855469 38.965625)scale(0.7)" xlink:href="#DejaVuSans-52"/>
      </g>
     </g>
    </g>
    <g id="ytick_3">
     <g id="line2d_9">
      <g>
       <use style="stroke:#000000;stroke-width:0.8;" x="90" xlink:href="#mc18a70d640" y="262.29496"/>
      </g>
     </g>
     <g id="text_10">
      <!-- $\mathdefault{10^{-3}}$ -->
      <defs>
       <path d="M 40.578125 39.3125 
Q 47.65625 37.796875 51.625 33 
Q 55.609375 28.21875 55.609375 21.1875 
Q 55.609375 10.40625 48.1875 4.484375 
Q 40.765625 -1.421875 27.09375 -1.421875 
Q 22.515625 -1.421875 17.65625 -0.515625 
Q 12.796875 0.390625 7.625 2.203125 
L 7.625 11.71875 
Q 11.71875 9.328125 16.59375 8.109375 
Q 21.484375 6.890625 26.8125 6.890625 
Q 36.078125 6.890625 40.9375 10.546875 
Q 45.796875 14.203125 45.796875 21.1875 
Q 45.796875 27.640625 41.28125 31.265625 
Q 36.765625 34.90625 28.71875 34.90625 
L 20.21875 34.90625 
L 20.21875 43.015625 
L 29.109375 43.015625 
Q 36.375 43.015625 40.234375 45.921875 
Q 44.09375 48.828125 44.09375 54.296875 
Q 44.09375 59.90625 40.109375 62.90625 
Q 36.140625 65.921875 28.71875 65.921875 
Q 24.65625 65.921875 20.015625 65.03125 
Q 15.375 64.15625 9.8125 62.3125 
L 9.8125 71.09375 
Q 15.4375 72.65625 20.34375 73.4375 
Q 25.25 74.21875 29.59375 74.21875 
Q 40.828125 74.21875 47.359375 69.109375 
Q 53.90625 64.015625 53.90625 55.328125 
Q 53.90625 49.265625 50.4375 45.09375 
Q 46.96875 40.921875 40.578125 39.3125 
z
" id="DejaVuSans-51"/>
      </defs>
      <g transform="translate(22.088 272.142535)scale(0.2592 -0.2592)">
       <use transform="translate(0 0.765625)" xlink:href="#DejaVuSans-49"/>
       <use transform="translate(63.623047 0.765625)" xlink:href="#DejaVuSans-48"/>
       <use transform="translate(128.203125 39.046875)scale(0.7)" xlink:href="#DejaVuSans-8722"/>
       <use transform="translate(186.855469 39.046875)scale(0.7)" xlink:href="#DejaVuSans-51"/>
      </g>
     </g>
    </g>
    <g id="ytick_4">
     <g id="line2d_10">
      <g>
       <use style="stroke:#000000;stroke-width:0.8;" x="90" xlink:href="#mc18a70d640" y="159.275898"/>
      </g>
     </g>
     <g id="text_11">
      <!-- $\mathdefault{10^{-2}}$ -->
      <defs>
       <path d="M 19.1875 8.296875 
L 53.609375 8.296875 
L 53.609375 0 
L 7.328125 0 
L 7.328125 8.296875 
Q 12.9375 14.109375 22.625 23.890625 
Q 32.328125 33.6875 34.8125 36.53125 
Q 39.546875 41.84375 41.421875 45.53125 
Q 43.3125 49.21875 43.3125 52.78125 
Q 43.3125 58.59375 39.234375 62.25 
Q 35.15625 65.921875 28.609375 65.921875 
Q 23.96875 65.921875 18.8125 64.3125 
Q 13.671875 62.703125 7.8125 59.421875 
L 7.8125 69.390625 
Q 13.765625 71.78125 18.9375 73 
Q 24.125 74.21875 28.421875 74.21875 
Q 39.75 74.21875 46.484375 68.546875 
Q 53.21875 62.890625 53.21875 53.421875 
Q 53.21875 48.921875 51.53125 44.890625 
Q 49.859375 40.875 45.40625 35.40625 
Q 44.1875 33.984375 37.640625 27.21875 
Q 31.109375 20.453125 19.1875 8.296875 
z
" id="DejaVuSans-50"/>
      </defs>
      <g transform="translate(22.088 169.123473)scale(0.2592 -0.2592)">
       <use transform="translate(0 0.765625)" xlink:href="#DejaVuSans-49"/>
       <use transform="translate(63.623047 0.765625)" xlink:href="#DejaVuSans-48"/>
       <use transform="translate(128.203125 39.046875)scale(0.7)" xlink:href="#DejaVuSans-8722"/>
       <use transform="translate(186.855469 39.046875)scale(0.7)" xlink:href="#DejaVuSans-50"/>
      </g>
     </g>
    </g>
    <g id="ytick_5">
     <g id="line2d_11">
      <defs>
       <path d="M 0 0 
L -2 0 
" id="m5397500b54" style="stroke:#000000;stroke-width:0.6;"/>
      </defs>
      <g>
       <use style="stroke:#000000;stroke-width:0.6;" x="90" xlink:href="#m5397500b54" y="478.316661"/>
      </g>
     </g>
    </g>
    <g id="ytick_6">
     <g id="line2d_12">
      <g>
       <use style="stroke:#000000;stroke-width:0.6;" x="90" xlink:href="#m5397500b54" y="473.046976"/>
      </g>
     </g>
    </g>
    <g id="ytick_7">
     <g id="line2d_13">
      <g>
       <use style="stroke:#000000;stroke-width:0.6;" x="90" xlink:href="#m5397500b54" y="437.321255"/>
      </g>
     </g>
    </g>
    <g id="ytick_8">
     <g id="line2d_14">
      <g>
       <use style="stroke:#000000;stroke-width:0.6;" x="90" xlink:href="#m5397500b54" y="419.180499"/>
      </g>
     </g>
    </g>
    <g id="ytick_9">
     <g id="line2d_15">
      <g>
       <use style="stroke:#000000;stroke-width:0.6;" x="90" xlink:href="#m5397500b54" y="406.309427"/>
      </g>
     </g>
    </g>
    <g id="ytick_10">
     <g id="line2d_16">
      <g>
       <use style="stroke:#000000;stroke-width:0.6;" x="90" xlink:href="#m5397500b54" y="396.325849"/>
      </g>
     </g>
    </g>
    <g id="ytick_11">
     <g id="line2d_17">
      <g>
       <use style="stroke:#000000;stroke-width:0.6;" x="90" xlink:href="#m5397500b54" y="388.168671"/>
      </g>
     </g>
    </g>
    <g id="ytick_12">
     <g id="line2d_18">
      <g>
       <use style="stroke:#000000;stroke-width:0.6;" x="90" xlink:href="#m5397500b54" y="381.271876"/>
      </g>
     </g>
    </g>
    <g id="ytick_13">
     <g id="line2d_19">
      <g>
       <use style="stroke:#000000;stroke-width:0.6;" x="90" xlink:href="#m5397500b54" y="375.2976"/>
      </g>
     </g>
    </g>
    <g id="ytick_14">
     <g id="line2d_20">
      <g>
       <use style="stroke:#000000;stroke-width:0.6;" x="90" xlink:href="#m5397500b54" y="370.027915"/>
      </g>
     </g>
    </g>
    <g id="ytick_15">
     <g id="line2d_21">
      <g>
       <use style="stroke:#000000;stroke-width:0.6;" x="90" xlink:href="#m5397500b54" y="334.302193"/>
      </g>
     </g>
    </g>
    <g id="ytick_16">
     <g id="line2d_22">
      <g>
       <use style="stroke:#000000;stroke-width:0.6;" x="90" xlink:href="#m5397500b54" y="316.161437"/>
      </g>
     </g>
    </g>
    <g id="ytick_17">
     <g id="line2d_23">
      <g>
       <use style="stroke:#000000;stroke-width:0.6;" x="90" xlink:href="#m5397500b54" y="303.290366"/>
      </g>
     </g>
    </g>
    <g id="ytick_18">
     <g id="line2d_24">
      <g>
       <use style="stroke:#000000;stroke-width:0.6;" x="90" xlink:href="#m5397500b54" y="293.306787"/>
      </g>
     </g>
    </g>
    <g id="ytick_19">
     <g id="line2d_25">
      <g>
       <use style="stroke:#000000;stroke-width:0.6;" x="90" xlink:href="#m5397500b54" y="285.14961"/>
      </g>
     </g>
    </g>
    <g id="ytick_20">
     <g id="line2d_26">
      <g>
       <use style="stroke:#000000;stroke-width:0.6;" x="90" xlink:href="#m5397500b54" y="278.252814"/>
      </g>
     </g>
    </g>
    <g id="ytick_21">
     <g id="line2d_27">
      <g>
       <use style="stroke:#000000;stroke-width:0.6;" x="90" xlink:href="#m5397500b54" y="272.278538"/>
      </g>
     </g>
    </g>
    <g id="ytick_22">
     <g id="line2d_28">
      <g>
       <use style="stroke:#000000;stroke-width:0.6;" x="90" xlink:href="#m5397500b54" y="267.008853"/>
      </g>
     </g>
    </g>
    <g id="ytick_23">
     <g id="line2d_29">
      <g>
       <use style="stroke:#000000;stroke-width:0.6;" x="90" xlink:href="#m5397500b54" y="231.283132"/>
      </g>
     </g>
    </g>
    <g id="ytick_24">
     <g id="line2d_30">
      <g>
       <use style="stroke:#000000;stroke-width:0.6;" x="90" xlink:href="#m5397500b54" y="213.142376"/>
      </g>
     </g>
    </g>
    <g id="ytick_25">
     <g id="line2d_31">
      <g>
       <use style="stroke:#000000;stroke-width:0.6;" x="90" xlink:href="#m5397500b54" y="200.271304"/>
      </g>
     </g>
    </g>
    <g id="ytick_26">
     <g id="line2d_32">
      <g>
       <use style="stroke:#000000;stroke-width:0.6;" x="90" xlink:href="#m5397500b54" y="190.287726"/>
      </g>
     </g>
    </g>
    <g id="ytick_27">
     <g id="line2d_33">
      <g>
       <use style="stroke:#000000;stroke-width:0.6;" x="90" xlink:href="#m5397500b54" y="182.130548"/>
      </g>
     </g>
    </g>
    <g id="ytick_28">
     <g id="line2d_34">
      <g>
       <use style="stroke:#000000;stroke-width:0.6;" x="90" xlink:href="#m5397500b54" y="175.233753"/>
      </g>
     </g>
    </g>
    <g id="ytick_29">
     <g id="line2d_35">
      <g>
       <use style="stroke:#000000;stroke-width:0.6;" x="90" xlink:href="#m5397500b54" y="169.259477"/>
      </g>
     </g>
    </g>
    <g id="ytick_30">
     <g id="line2d_36">
      <g>
       <use style="stroke:#000000;stroke-width:0.6;" x="90" xlink:href="#m5397500b54" y="163.989792"/>
      </g>
     </g>
    </g>
    <g id="ytick_31">
     <g id="line2d_37">
      <g>
       <use style="stroke:#000000;stroke-width:0.6;" x="90" xlink:href="#m5397500b54" y="128.26407"/>
      </g>
     </g>
    </g>
    <g id="ytick_32">
     <g id="line2d_38">
      <g>
       <use style="stroke:#000000;stroke-width:0.6;" x="90" xlink:href="#m5397500b54" y="110.123314"/>
      </g>
     </g>
    </g>
    <g id="ytick_33">
     <g id="line2d_39">
      <g>
       <use style="stroke:#000000;stroke-width:0.6;" x="90" xlink:href="#m5397500b54" y="97.252243"/>
      </g>
     </g>
    </g>
    <g id="ytick_34">
     <g id="line2d_40">
      <g>
       <use style="stroke:#000000;stroke-width:0.6;" x="90" xlink:href="#m5397500b54" y="87.268664"/>
      </g>
     </g>
    </g>
    <g id="ytick_35">
     <g id="line2d_41">
      <g>
       <use style="stroke:#000000;stroke-width:0.6;" x="90" xlink:href="#m5397500b54" y="79.111486"/>
      </g>
     </g>
    </g>
    <g id="ytick_36">
     <g id="line2d_42">
      <g>
       <use style="stroke:#000000;stroke-width:0.6;" x="90" xlink:href="#m5397500b54" y="72.214691"/>
      </g>
     </g>
    </g>
    <g id="ytick_37">
     <g id="line2d_43">
      <g>
       <use style="stroke:#000000;stroke-width:0.6;" x="90" xlink:href="#m5397500b54" y="66.240415"/>
      </g>
     </g>
    </g>
    <g id="text_12">
     <!-- Probability -->
     <defs>
      <path d="M 19.671875 64.796875 
L 19.671875 37.40625 
L 32.078125 37.40625 
Q 38.96875 37.40625 42.71875 40.96875 
Q 46.484375 44.53125 46.484375 51.125 
Q 46.484375 57.671875 42.71875 61.234375 
Q 38.96875 64.796875 32.078125 64.796875 
z
M 9.8125 72.90625 
L 32.078125 72.90625 
Q 44.34375 72.90625 50.609375 67.359375 
Q 56.890625 61.8125 56.890625 51.125 
Q 56.890625 40.328125 50.609375 34.8125 
Q 44.34375 29.296875 32.078125 29.296875 
L 19.671875 29.296875 
L 19.671875 0 
L 9.8125 0 
z
" id="DejaVuSans-80"/>
      <path d="M 41.109375 46.296875 
Q 39.59375 47.171875 37.8125 47.578125 
Q 36.03125 48 33.890625 48 
Q 26.265625 48 22.1875 43.046875 
Q 18.109375 38.09375 18.109375 28.8125 
L 18.109375 0 
L 9.078125 0 
L 9.078125 54.6875 
L 18.109375 54.6875 
L 18.109375 46.1875 
Q 20.953125 51.171875 25.484375 53.578125 
Q 30.03125 56 36.53125 56 
Q 37.453125 56 38.578125 55.875 
Q 39.703125 55.765625 41.0625 55.515625 
z
" id="DejaVuSans-114"/>
      <path d="M 30.609375 48.390625 
Q 23.390625 48.390625 19.1875 42.75 
Q 14.984375 37.109375 14.984375 27.296875 
Q 14.984375 17.484375 19.15625 11.84375 
Q 23.34375 6.203125 30.609375 6.203125 
Q 37.796875 6.203125 41.984375 11.859375 
Q 46.1875 17.53125 46.1875 27.296875 
Q 46.1875 37.015625 41.984375 42.703125 
Q 37.796875 48.390625 30.609375 48.390625 
z
M 30.609375 56 
Q 42.328125 56 49.015625 48.375 
Q 55.71875 40.765625 55.71875 27.296875 
Q 55.71875 13.875 49.015625 6.21875 
Q 42.328125 -1.421875 30.609375 -1.421875 
Q 18.84375 -1.421875 12.171875 6.21875 
Q 5.515625 13.875 5.515625 27.296875 
Q 5.515625 40.765625 12.171875 48.375 
Q 18.84375 56 30.609375 56 
z
" id="DejaVuSans-111"/>
      <path d="M 48.6875 27.296875 
Q 48.6875 37.203125 44.609375 42.84375 
Q 40.53125 48.484375 33.40625 48.484375 
Q 26.265625 48.484375 22.1875 42.84375 
Q 18.109375 37.203125 18.109375 27.296875 
Q 18.109375 17.390625 22.1875 11.75 
Q 26.265625 6.109375 33.40625 6.109375 
Q 40.53125 6.109375 44.609375 11.75 
Q 48.6875 17.390625 48.6875 27.296875 
z
M 18.109375 46.390625 
Q 20.953125 51.265625 25.265625 53.625 
Q 29.59375 56 35.59375 56 
Q 45.5625 56 51.78125 48.09375 
Q 58.015625 40.1875 58.015625 27.296875 
Q 58.015625 14.40625 51.78125 6.484375 
Q 45.5625 -1.421875 35.59375 -1.421875 
Q 29.59375 -1.421875 25.265625 0.953125 
Q 20.953125 3.328125 18.109375 8.203125 
L 18.109375 0 
L 9.078125 0 
L 9.078125 75.984375 
L 18.109375 75.984375 
z
" id="DejaVuSans-98"/>
      <path d="M 34.28125 27.484375 
Q 23.390625 27.484375 19.1875 25 
Q 14.984375 22.515625 14.984375 16.5 
Q 14.984375 11.71875 18.140625 8.90625 
Q 21.296875 6.109375 26.703125 6.109375 
Q 34.1875 6.109375 38.703125 11.40625 
Q 43.21875 16.703125 43.21875 25.484375 
L 43.21875 27.484375 
z
M 52.203125 31.203125 
L 52.203125 0 
L 43.21875 0 
L 43.21875 8.296875 
Q 40.140625 3.328125 35.546875 0.953125 
Q 30.953125 -1.421875 24.3125 -1.421875 
Q 15.921875 -1.421875 10.953125 3.296875 
Q 6 8.015625 6 15.921875 
Q 6 25.140625 12.171875 29.828125 
Q 18.359375 34.515625 30.609375 34.515625 
L 43.21875 34.515625 
L 43.21875 35.40625 
Q 43.21875 41.609375 39.140625 45 
Q 35.0625 48.390625 27.6875 48.390625 
Q 23 48.390625 18.546875 47.265625 
Q 14.109375 46.140625 10.015625 43.890625 
L 10.015625 52.203125 
Q 14.9375 54.109375 19.578125 55.046875 
Q 24.21875 56 28.609375 56 
Q 40.484375 56 46.34375 49.84375 
Q 52.203125 43.703125 52.203125 31.203125 
z
" id="DejaVuSans-97"/>
      <path d="M 9.421875 54.6875 
L 18.40625 54.6875 
L 18.40625 0 
L 9.421875 0 
z
M 9.421875 75.984375 
L 18.40625 75.984375 
L 18.40625 64.59375 
L 9.421875 64.59375 
z
" id="DejaVuSans-105"/>
      <path d="M 18.3125 70.21875 
L 18.3125 54.6875 
L 36.8125 54.6875 
L 36.8125 47.703125 
L 18.3125 47.703125 
L 18.3125 18.015625 
Q 18.3125 11.328125 20.140625 9.421875 
Q 21.96875 7.515625 27.59375 7.515625 
L 36.8125 7.515625 
L 36.8125 0 
L 27.59375 0 
Q 17.1875 0 13.234375 3.875 
Q 9.28125 7.765625 9.28125 18.015625 
L 9.28125 47.703125 
L 2.6875 47.703125 
L 2.6875 54.6875 
L 9.28125 54.6875 
L 9.28125 70.21875 
z
" id="DejaVuSans-116"/>
      <path d="M 32.171875 -5.078125 
Q 28.375 -14.84375 24.75 -17.8125 
Q 21.140625 -20.796875 15.09375 -20.796875 
L 7.90625 -20.796875 
L 7.90625 -13.28125 
L 13.1875 -13.28125 
Q 16.890625 -13.28125 18.9375 -11.515625 
Q 21 -9.765625 23.484375 -3.21875 
L 25.09375 0.875 
L 2.984375 54.6875 
L 12.5 54.6875 
L 29.59375 11.921875 
L 46.6875 54.6875 
L 56.203125 54.6875 
z
" id="DejaVuSans-121"/>
     </defs>
     <g transform="translate(12.69745 341.71605)rotate(-90)scale(0.2592 -0.2592)">
      <use xlink:href="#DejaVuSans-80"/>
      <use x="60.287109" xlink:href="#DejaVuSans-114"/>
      <use x="101.369141" xlink:href="#DejaVuSans-111"/>
      <use x="162.550781" xlink:href="#DejaVuSans-98"/>
      <use x="226.027344" xlink:href="#DejaVuSans-97"/>
      <use x="287.306641" xlink:href="#DejaVuSans-98"/>
      <use x="350.783203" xlink:href="#DejaVuSans-105"/>
      <use x="378.566406" xlink:href="#DejaVuSans-108"/>
      <use x="406.349609" xlink:href="#DejaVuSans-105"/>
      <use x="434.132812" xlink:href="#DejaVuSans-116"/>
      <use x="473.341797" xlink:href="#DejaVuSans-121"/>
     </g>
    </g>
   </g>
   <g id="line2d_44">
    <path clip-path="url(#p46b7aee580)" d="M 154.492462 541 
L 154.492462 261.788283 
L 157.296482 261.788283 
L 157.296482 180.661671 
L 160.100503 180.661671 
L 160.100503 158.381855 
L 162.904523 158.381855 
L 162.904523 143.576518 
L 165.708543 143.576518 
L 165.708543 137.740973 
L 168.512563 137.740973 
L 168.512563 126.890487 
L 171.316583 126.890487 
L 171.316583 128.542337 
L 174.120603 128.542337 
L 174.120603 126.227652 
L 176.924623 126.227652 
L 176.924623 124.476508 
L 179.728643 124.476508 
L 179.728643 119.844035 
L 182.532663 119.844035 
L 182.532663 122.358214 
L 185.336683 122.358214 
L 185.336683 126.890487 
L 188.140704 126.890487 
L 188.140704 125.022132 
L 190.944724 125.022132 
L 190.944724 126.510522 
L 193.748744 126.510522 
L 193.748744 124.839517 
L 196.552764 124.839517 
L 196.552764 125.11372 
L 199.356784 125.11372 
L 199.356784 129.746193 
L 202.160804 129.746193 
L 202.160804 133.23424 
L 204.964824 133.23424 
L 204.964824 129.140216 
L 207.768844 129.140216 
L 207.768844 127.563291 
L 210.572864 127.563291 
L 210.572864 123.848245 
L 213.376884 123.848245 
L 213.376884 117.929706 
L 216.180905 117.929706 
L 216.180905 114.983691 
L 218.984925 114.983691 
L 218.984925 113.052141 
L 221.788945 113.052141 
L 221.788945 112.151061 
L 224.592965 112.151061 
L 224.592965 110.99946 
L 227.396985 110.99946 
L 227.396985 109.876758 
L 230.201005 109.876758 
L 230.201005 110.401581 
L 233.005025 110.401581 
L 233.005025 110.1384 
L 235.809045 110.1384 
L 235.809045 113.544962 
L 238.613065 113.544962 
L 238.613065 111.066387 
L 241.417085 111.066387 
L 241.417085 117.540993 
L 244.221106 117.540993 
L 244.221106 124.476508 
L 247.025126 124.476508 
L 247.025126 125.389614 
L 249.829146 125.389614 
L 249.829146 129.240644 
L 252.633166 129.240644 
L 252.633166 127.952343 
L 255.437186 127.952343 
L 255.437186 133.565245 
L 258.241206 133.565245 
L 258.241206 137.862716 
L 261.045226 137.862716 
L 261.045226 139.098723 
L 263.849246 139.098723 
L 263.849246 147.030884 
L 266.653266 147.030884 
L 266.653266 149.968283 
L 269.457286 149.968283 
L 269.457286 150.289006 
L 272.261307 150.289006 
L 272.261307 158.189422 
L 275.065327 158.189422 
L 275.065327 165.022256 
L 277.869347 165.022256 
L 277.869347 161.995167 
L 280.673367 161.995167 
L 280.673367 168.510303 
L 283.477387 168.510303 
L 283.477387 165.69845 
L 286.281407 165.69845 
L 286.281407 171.252926 
L 289.085427 171.252926 
L 289.085427 179.410104 
L 291.889447 179.410104 
L 291.889447 181.623872 
L 294.693467 181.623872 
L 294.693467 186.772144 
L 297.497487 186.772144 
L 297.497487 195.5889 
L 300.301508 195.5889 
L 300.301508 196.483742 
L 303.105528 196.483742 
L 303.105528 201.753427 
L 305.909548 201.753427 
L 305.909548 204.370583 
L 308.713568 204.370583 
L 308.713568 204.9129 
L 311.517588 204.9129 
L 311.517588 207.727703 
L 314.321608 207.727703 
L 314.321608 219.640695 
L 317.125628 219.640695 
L 317.125628 210.731556 
L 319.929648 210.731556 
L 319.929648 214.624498 
L 322.733668 214.624498 
L 322.733668 219.640695 
L 325.537688 219.640695 
L 325.537688 224.438925 
L 328.341709 224.438925 
L 328.341709 241.743384 
L 331.145729 241.743384 
L 331.145729 240.517537 
L 333.949749 240.517537 
L 333.949749 239.324383 
L 336.753769 239.324383 
L 336.753769 243.003766 
L 339.557789 243.003766 
L 339.557789 233.79382 
L 342.361809 233.79382 
L 342.361809 243.003766 
L 345.165829 243.003766 
L 345.165829 259.88414 
L 347.969849 259.88414 
L 347.969849 261.788283 
L 350.773869 261.788283 
L 350.773869 258.057739 
L 353.577889 258.057739 
L 353.577889 247.013069 
L 356.38191 247.013069 
L 356.38191 270.336211 
L 359.18593 270.336211 
L 359.18593 245.636326 
L 361.98995 245.636326 
L 361.98995 263.777082 
L 364.79397 263.777082 
L 364.79397 259.88414 
L 370.40201 259.88414 
L 370.40201 275.312514 
L 373.20603 275.312514 
L 373.20603 283.999172 
L 376.01005 283.999172 
L 376.01005 287.314808 
L 378.81407 287.314808 
L 378.81407 275.312514 
L 381.61809 275.312514 
L 381.61809 303.767039 
L 384.422111 303.767039 
L 384.422111 287.314808 
L 387.226131 287.314808 
L 387.226131 330.064973 
L 390.030151 330.064973 
L 390.030151 303.767039 
L 392.834171 303.767039 
L 392.834171 340.048552 
L 395.638191 340.048552 
L 395.638191 299.053145 
L 398.442211 299.053145 
L 398.442211 278.024896 
L 401.246231 278.024896 
L 401.246231 315.011 
L 404.050251 315.011 
L 404.050251 340.048552 
L 406.854271 340.048552 
L 406.854271 309.036724 
L 412.462312 309.036724 
L 412.462312 402.072207 
L 415.266332 402.072207 
L 415.266332 321.907795 
L 418.070352 321.907795 
L 418.070352 309.036724 
L 420.874372 309.036724 
L 420.874372 340.048552 
L 426.482412 340.048552 
L 426.482412 402.072207 
L 429.286432 402.072207 
L 429.286432 541 
M 432.090452 541 
L 432.090452 330.064973 
L 434.894472 330.064973 
L 434.894472 340.048552 
L 437.698492 340.048552 
L 437.698492 371.060379 
L 440.502513 371.060379 
L 440.502513 402.072207 
L 443.306533 402.072207 
L 443.306533 541 
M 454.522613 541 
L 454.522613 402.072207 
L 457.326633 402.072207 
L 457.326633 541 
M 460.130653 541 
L 460.130653 402.072207 
L 462.934673 402.072207 
L 462.934673 541 
L 462.934673 541 
" style="fill:none;stroke:#1f77b4;stroke-linecap:square;stroke-width:1.5;"/>
   </g>
   <g id="line2d_45">
    <path clip-path="url(#p46b7aee580)" d="M 165.708543 541 
L 165.708543 461.7 
L 168.512563 461.7 
L 168.512563 541 
M 174.120603 541 
L 174.120603 430.688172 
L 176.924623 430.688172 
L 176.924623 541 
M 185.336683 541 
L 185.336683 461.7 
L 188.140704 461.7 
L 188.140704 399.676345 
L 190.944724 399.676345 
L 190.944724 412.547416 
L 193.748744 412.547416 
L 193.748744 430.688172 
L 196.552764 430.688172 
L 196.552764 412.547416 
L 199.356784 412.547416 
L 199.356784 399.676345 
L 202.160804 399.676345 
L 202.160804 412.547416 
L 204.964824 412.547416 
L 204.964824 374.638793 
L 207.768844 374.638793 
L 207.768844 412.547416 
L 210.572864 412.547416 
L 210.572864 354.416703 
L 213.376884 354.416703 
L 213.376884 350.523761 
L 216.180905 350.523761 
L 216.180905 332.383005 
L 218.984925 332.383005 
L 218.984925 323.404875 
L 221.788945 323.404875 
L 221.788945 325.486209 
L 224.592965 325.486209 
L 224.592965 334.940307 
L 227.396985 334.940307 
L 227.396985 319.511933 
L 230.201005 319.511933 
L 230.201005 295.552521 
L 233.005025 295.552521 
L 233.005025 306.640862 
L 235.809045 306.640862 
L 235.809045 309.528355 
L 238.613065 309.528355 
L 238.613065 296.657283 
L 241.417085 296.657283 
L 241.417085 306.640862 
L 244.221106 306.640862 
L 244.221106 281.60331 
L 247.025126 281.60331 
L 247.025126 280.81142 
L 249.829146 280.81142 
L 249.829146 274.252291 
L 252.633166 274.252291 
L 252.633166 266.208238 
L 255.437186 266.208238 
L 255.437186 266.77819 
L 258.241206 266.77819 
L 258.241206 269.742228 
L 261.045226 269.742228 
L 261.045226 262.409785 
L 263.849246 262.409785 
L 263.849246 256.565758 
L 266.653266 256.565758 
L 266.653266 262.409785 
L 269.457286 262.409785 
L 269.457286 259.881394 
L 272.261307 259.881394 
L 272.261307 257.02464 
L 275.065327 257.02464 
L 275.065327 263.998376 
L 277.869347 263.998376 
L 277.869347 257.95677 
L 280.673367 257.95677 
L 280.673367 252.634788 
L 283.477387 252.634788 
L 283.477387 253.478975 
L 286.281407 253.478975 
L 286.281407 241.577052 
L 289.085427 241.577052 
L 289.085427 255.216693 
L 291.889447 255.216693 
L 291.889447 248.25666 
L 294.693467 248.25666 
L 294.693467 243.580698 
L 297.497487 243.580698 
L 297.497487 237.521121 
L 300.301508 237.521121 
L 300.301508 245.321798 
L 303.105528 245.321798 
L 303.105528 242.56766 
L 305.909548 242.56766 
L 305.909548 242.235014 
L 308.713568 242.235014 
L 308.713568 241.251665 
L 311.517588 241.251665 
L 311.517588 238.121675 
L 314.321608 238.121675 
L 314.321608 233.528865 
L 317.125628 233.528865 
L 317.125628 232.185203 
L 319.929648 232.185203 
L 319.929648 233.528865 
L 322.733668 233.528865 
L 322.733668 231.658836 
L 325.537688 231.658836 
L 325.537688 231.921245 
L 328.341709 231.921245 
L 328.341709 228.869567 
L 331.145729 228.869567 
L 331.145729 227.896906 
L 333.949749 227.896906 
L 333.949749 236.635139 
L 336.753769 236.635139 
L 336.753769 229.363943 
L 339.557789 229.363943 
L 339.557789 225.099707 
L 342.361809 225.099707 
L 342.361809 223.545287 
L 345.165829 223.545287 
L 345.165829 225.553931 
L 347.969849 225.553931 
L 347.969849 222.254603 
L 350.773869 222.254603 
L 350.773869 221.206765 
L 353.577889 221.206765 
L 353.577889 215.025835 
L 356.38191 215.025835 
L 356.38191 218.009648 
L 359.18593 218.009648 
L 359.18593 214.845792 
L 361.98995 214.845792 
L 361.98995 212.56887 
L 364.79397 212.56887 
L 364.79397 217.625606 
L 367.59799 217.625606 
L 367.59799 212.911712 
L 370.40201 212.911712 
L 370.40201 210.239837 
L 373.20603 210.239837 
L 373.20603 207.718572 
L 376.01005 207.718572 
L 376.01005 208.961447 
L 378.81407 208.961447 
L 378.81407 206.658678 
L 381.61809 206.658678 
L 381.61809 199.612498 
L 384.422111 199.612498 
L 384.422111 200.516379 
L 387.226131 200.516379 
L 387.226131 196.645182 
L 390.030151 196.645182 
L 390.030151 190.402551 
L 392.834171 190.402551 
L 392.834171 193.193038 
L 395.638191 193.193038 
L 395.638191 189.373986 
L 398.442211 189.373986 
L 398.442211 187.094348 
L 401.246231 187.094348 
L 401.246231 185.667853 
L 404.050251 185.667853 
L 404.050251 182.94446 
L 406.854271 182.94446 
L 406.854271 179.553397 
L 409.658291 179.553397 
L 409.658291 175.200185 
L 412.462312 175.200185 
L 412.462312 170.895563 
L 415.266332 170.895563 
L 415.266332 168.155486 
L 418.070352 168.155486 
L 418.070352 164.336434 
L 420.874372 164.336434 
L 420.874372 161.14132 
L 423.678392 161.14132 
L 423.678392 157.059428 
L 426.482412 157.059428 
L 426.482412 155.031999 
L 429.286432 155.031999 
L 429.286432 150.035829 
L 432.090452 150.035829 
L 432.090452 147.333379 
L 434.894472 147.333379 
L 434.894472 145.161831 
L 437.698492 145.161831 
L 437.698492 140.05225 
L 440.502513 140.05225 
L 440.502513 135.223698 
L 443.306533 135.223698 
L 443.306533 132.689978 
L 446.110553 132.689978 
L 446.110553 126.220774 
L 448.914573 126.220774 
L 448.914573 124.614029 
L 451.718593 124.614029 
L 451.718593 118.960734 
L 454.522613 118.960734 
L 454.522613 115.572902 
L 457.326633 115.572902 
L 457.326633 111.772859 
L 460.130653 111.772859 
L 460.130653 107.709749 
L 462.934673 107.709749 
L 462.934673 104.121026 
L 465.738693 104.121026 
L 465.738693 100.379593 
L 468.542714 100.379593 
L 468.542714 98.247068 
L 471.346734 98.247068 
L 471.346734 94.801819 
L 474.150754 94.801819 
L 474.150754 93.173831 
L 476.954774 93.173831 
L 476.954774 92.644071 
L 479.758794 92.644071 
L 479.758794 89.590849 
L 482.562814 89.590849 
L 482.562814 84.973252 
L 485.366834 84.973252 
L 485.366834 83.7 
L 488.170854 83.7 
L 488.170854 86.192527 
L 490.974874 86.192527 
L 490.974874 93.98645 
L 493.778894 93.98645 
L 493.778894 109.823872 
L 496.582915 109.823872 
L 496.582915 132.120751 
L 499.386935 132.120751 
L 499.386935 167.65207 
L 502.190955 167.65207 
L 502.190955 234.077837 
L 504.994975 234.077837 
L 504.994975 319.511933 
L 507.798995 319.511933 
L 507.798995 541 
L 507.798995 541 
" style="fill:none;stroke:#ff7f0e;stroke-linecap:square;stroke-width:1.5;"/>
   </g>
   <g id="line2d_46">
    <path clip-path="url(#p46b7aee580)" d="M 296.108108 480.6 
L 296.108108 64.8 
" style="fill:none;stroke:#1f77b4;stroke-linecap:square;stroke-width:1.5;"/>
   </g>
   <g id="patch_5">
    <path d="M 90 480.6 
L 90 64.8 
" style="fill:none;stroke:#000000;stroke-linecap:square;stroke-linejoin:miter;stroke-width:0.8;"/>
   </g>
   <g id="patch_6">
    <path d="M 648 480.6 
L 648 64.8 
" style="fill:none;stroke:#000000;stroke-linecap:square;stroke-linejoin:miter;stroke-width:0.8;"/>
   </g>
   <g id="patch_7">
    <path d="M 90 480.6 
L 648 480.6 
" style="fill:none;stroke:#000000;stroke-linecap:square;stroke-linejoin:miter;stroke-width:0.8;"/>
   </g>
   <g id="patch_8">
    <path d="M 90 64.8 
L 648 64.8 
" style="fill:none;stroke:#000000;stroke-linecap:square;stroke-linejoin:miter;stroke-width:0.8;"/>
   </g>
   <g id="text_13">
    <g id="patch_9">
     <path d="M 358.880206 109.584125 
L 308.108108 109.584125 
L 308.108108 78.227875 
L 358.880206 78.227875 
L 358.880206 70.388813 
L 382.397394 93.906 
L 358.880206 117.423188 
L 358.880206 109.584125 
z
" style="fill:#ff7f0e;opacity:0.5;stroke:#ff7f0e;stroke-linejoin:miter;"/>
    </g>
    <!-- track -->
    <defs>
     <path d="M 48.78125 52.59375 
L 48.78125 44.1875 
Q 44.96875 46.296875 41.140625 47.34375 
Q 37.3125 48.390625 33.40625 48.390625 
Q 24.65625 48.390625 19.8125 42.84375 
Q 14.984375 37.3125 14.984375 27.296875 
Q 14.984375 17.28125 19.8125 11.734375 
Q 24.65625 6.203125 33.40625 6.203125 
Q 37.3125 6.203125 41.140625 7.25 
Q 44.96875 8.296875 48.78125 10.40625 
L 48.78125 2.09375 
Q 45.015625 0.34375 40.984375 -0.53125 
Q 36.96875 -1.421875 32.421875 -1.421875 
Q 20.0625 -1.421875 12.78125 6.34375 
Q 5.515625 14.109375 5.515625 27.296875 
Q 5.515625 40.671875 12.859375 48.328125 
Q 20.21875 56 33.015625 56 
Q 37.15625 56 41.109375 55.140625 
Q 45.0625 54.296875 48.78125 52.59375 
z
" id="DejaVuSans-99"/>
     <path d="M 9.078125 75.984375 
L 18.109375 75.984375 
L 18.109375 31.109375 
L 44.921875 54.6875 
L 56.390625 54.6875 
L 27.390625 29.109375 
L 57.625 0 
L 45.90625 0 
L 18.109375 26.703125 
L 18.109375 0 
L 9.078125 0 
z
" id="DejaVuSans-107"/>
    </defs>
    <g transform="translate(314.108108 99.42475)scale(0.2 -0.2)">
     <use xlink:href="#DejaVuSans-116"/>
     <use x="39.208984" xlink:href="#DejaVuSans-114"/>
     <use x="80.322266" xlink:href="#DejaVuSans-97"/>
     <use x="141.601562" xlink:href="#DejaVuSans-99"/>
     <use x="196.582031" xlink:href="#DejaVuSans-107"/>
    </g>
   </g>
   <g id="text_14">
    <g id="patch_10">
     <path d="M 212.01726 109.584125 
L 284.108108 109.584125 
L 284.108108 78.227875 
L 212.01726 78.227875 
L 212.01726 70.388813 
L 188.500072 93.906 
L 212.01726 117.423188 
L 212.01726 109.584125 
z
" style="fill:#1f77b4;opacity:0.5;stroke:#1f77b4;stroke-linejoin:miter;"/>
    </g>
    <!-- shower -->
    <defs>
     <path d="M 44.28125 53.078125 
L 44.28125 44.578125 
Q 40.484375 46.53125 36.375 47.5 
Q 32.28125 48.484375 27.875 48.484375 
Q 21.1875 48.484375 17.84375 46.4375 
Q 14.5 44.390625 14.5 40.28125 
Q 14.5 37.15625 16.890625 35.375 
Q 19.28125 33.59375 26.515625 31.984375 
L 29.59375 31.296875 
Q 39.15625 29.25 43.1875 25.515625 
Q 47.21875 21.78125 47.21875 15.09375 
Q 47.21875 7.46875 41.1875 3.015625 
Q 35.15625 -1.421875 24.609375 -1.421875 
Q 20.21875 -1.421875 15.453125 -0.5625 
Q 10.6875 0.296875 5.421875 2 
L 5.421875 11.28125 
Q 10.40625 8.6875 15.234375 7.390625 
Q 20.0625 6.109375 24.8125 6.109375 
Q 31.15625 6.109375 34.5625 8.28125 
Q 37.984375 10.453125 37.984375 14.40625 
Q 37.984375 18.0625 35.515625 20.015625 
Q 33.0625 21.96875 24.703125 23.78125 
L 21.578125 24.515625 
Q 13.234375 26.265625 9.515625 29.90625 
Q 5.8125 33.546875 5.8125 39.890625 
Q 5.8125 47.609375 11.28125 51.796875 
Q 16.75 56 26.8125 56 
Q 31.78125 56 36.171875 55.265625 
Q 40.578125 54.546875 44.28125 53.078125 
z
" id="DejaVuSans-115"/>
     <path d="M 54.890625 33.015625 
L 54.890625 0 
L 45.90625 0 
L 45.90625 32.71875 
Q 45.90625 40.484375 42.875 44.328125 
Q 39.84375 48.1875 33.796875 48.1875 
Q 26.515625 48.1875 22.3125 43.546875 
Q 18.109375 38.921875 18.109375 30.90625 
L 18.109375 0 
L 9.078125 0 
L 9.078125 75.984375 
L 18.109375 75.984375 
L 18.109375 46.1875 
Q 21.34375 51.125 25.703125 53.5625 
Q 30.078125 56 35.796875 56 
Q 45.21875 56 50.046875 50.171875 
Q 54.890625 44.34375 54.890625 33.015625 
z
" id="DejaVuSans-104"/>
     <path d="M 4.203125 54.6875 
L 13.1875 54.6875 
L 24.421875 12.015625 
L 35.59375 54.6875 
L 46.1875 54.6875 
L 57.421875 12.015625 
L 68.609375 54.6875 
L 77.59375 54.6875 
L 63.28125 0 
L 52.6875 0 
L 40.921875 44.828125 
L 29.109375 0 
L 18.5 0 
z
" id="DejaVuSans-119"/>
     <path d="M 56.203125 29.59375 
L 56.203125 25.203125 
L 14.890625 25.203125 
Q 15.484375 15.921875 20.484375 11.0625 
Q 25.484375 6.203125 34.421875 6.203125 
Q 39.59375 6.203125 44.453125 7.46875 
Q 49.3125 8.734375 54.109375 11.28125 
L 54.109375 2.78125 
Q 49.265625 0.734375 44.1875 -0.34375 
Q 39.109375 -1.421875 33.890625 -1.421875 
Q 20.796875 -1.421875 13.15625 6.1875 
Q 5.515625 13.8125 5.515625 26.8125 
Q 5.515625 40.234375 12.765625 48.109375 
Q 20.015625 56 32.328125 56 
Q 43.359375 56 49.78125 48.890625 
Q 56.203125 41.796875 56.203125 29.59375 
z
M 47.21875 32.234375 
Q 47.125 39.59375 43.09375 43.984375 
Q 39.0625 48.390625 32.421875 48.390625 
Q 24.90625 48.390625 20.390625 44.140625 
Q 15.875 39.890625 15.1875 32.171875 
z
" id="DejaVuSans-101"/>
    </defs>
    <g transform="translate(205.892483 99.42475)scale(0.2 -0.2)">
     <use xlink:href="#DejaVuSans-115"/>
     <use x="52.099609" xlink:href="#DejaVuSans-104"/>
     <use x="115.478516" xlink:href="#DejaVuSans-111"/>
     <use x="176.660156" xlink:href="#DejaVuSans-119"/>
     <use x="258.447266" xlink:href="#DejaVuSans-101"/>
     <use x="319.970703" xlink:href="#DejaVuSans-114"/>
    </g>
   </g>
   <g id="legend_1">
    <g id="patch_11">
     <path d="M 501.37875 132.04125 
L 635.4 132.04125 
Q 639 132.04125 639 128.44125 
L 639 77.4 
Q 639 73.8 635.4 73.8 
L 501.37875 73.8 
Q 497.77875 73.8 497.77875 77.4 
L 497.77875 128.44125 
Q 497.77875 132.04125 501.37875 132.04125 
z
" style="fill:#ffffff;opacity:0.5;stroke:#cccccc;stroke-linejoin:miter;"/>
    </g>
    <g id="line2d_47">
     <path d="M 504.97875 88.377188 
L 540.97875 88.377188 
" style="fill:none;stroke:#1f77b4;stroke-linecap:square;stroke-width:1.5;"/>
    </g>
    <g id="line2d_48"/>
    <g id="text_15">
     <!-- Showers -->
     <defs>
      <path d="M 53.515625 70.515625 
L 53.515625 60.890625 
Q 47.90625 63.578125 42.921875 64.890625 
Q 37.9375 66.21875 33.296875 66.21875 
Q 25.25 66.21875 20.875 63.09375 
Q 16.5 59.96875 16.5 54.203125 
Q 16.5 49.359375 19.40625 46.890625 
Q 22.3125 44.4375 30.421875 42.921875 
L 36.375 41.703125 
Q 47.40625 39.59375 52.65625 34.296875 
Q 57.90625 29 57.90625 20.125 
Q 57.90625 9.515625 50.796875 4.046875 
Q 43.703125 -1.421875 29.984375 -1.421875 
Q 24.8125 -1.421875 18.96875 -0.25 
Q 13.140625 0.921875 6.890625 3.21875 
L 6.890625 13.375 
Q 12.890625 10.015625 18.65625 8.296875 
Q 24.421875 6.59375 29.984375 6.59375 
Q 38.421875 6.59375 43.015625 9.90625 
Q 47.609375 13.234375 47.609375 19.390625 
Q 47.609375 24.75 44.3125 27.78125 
Q 41.015625 30.8125 33.5 32.328125 
L 27.484375 33.5 
Q 16.453125 35.6875 11.515625 40.375 
Q 6.59375 45.0625 6.59375 53.421875 
Q 6.59375 63.09375 13.40625 68.65625 
Q 20.21875 74.21875 32.171875 74.21875 
Q 37.3125 74.21875 42.625 73.28125 
Q 47.953125 72.359375 53.515625 70.515625 
z
" id="DejaVuSans-83"/>
     </defs>
     <g transform="translate(555.37875 94.677188)scale(0.18 -0.18)">
      <use xlink:href="#DejaVuSans-83"/>
      <use x="63.476562" xlink:href="#DejaVuSans-104"/>
      <use x="126.855469" xlink:href="#DejaVuSans-111"/>
      <use x="188.037109" xlink:href="#DejaVuSans-119"/>
      <use x="269.824219" xlink:href="#DejaVuSans-101"/>
      <use x="331.347656" xlink:href="#DejaVuSans-114"/>
      <use x="372.460938" xlink:href="#DejaVuSans-115"/>
     </g>
    </g>
    <g id="line2d_49">
     <path d="M 504.97875 114.797812 
L 540.97875 114.797812 
" style="fill:none;stroke:#ff7f0e;stroke-linecap:square;stroke-width:1.5;"/>
    </g>
    <g id="line2d_50"/>
    <g id="text_16">
     <!-- Tracks -->
     <g transform="translate(555.37875 121.097812)scale(0.18 -0.18)">
      <use xlink:href="#DejaVuSans-84"/>
      <use x="60.865234" xlink:href="#DejaVuSans-114"/>
      <use x="101.978516" xlink:href="#DejaVuSans-97"/>
      <use x="163.257812" xlink:href="#DejaVuSans-99"/>
      <use x="218.238281" xlink:href="#DejaVuSans-107"/>
      <use x="276.148438" xlink:href="#DejaVuSans-115"/>
     </g>
    </g>
   </g>
  </g>
 </g>
 <defs>
  <clipPath id="p46b7aee580">
   <rect height="415.8" width="558" x="90" y="64.8"/>
  </clipPath>
 </defs>
</svg>
