<?xml version="1.0" encoding="utf-8" standalone="no"?>
<!DOCTYPE svg PUBLIC "-//W3C//DTD SVG 1.1//EN"
  "http://www.w3.org/Graphics/SVG/1.1/DTD/svg11.dtd">
<!-- Created with matplotlib (https://matplotlib.org/) -->
<svg height="540pt" version="1.1" viewBox="0 0 720 540" width="720pt" xmlns="http://www.w3.org/2000/svg" xmlns:xlink="http://www.w3.org/1999/xlink">
 <defs>
  <style type="text/css">
*{stroke-linecap:butt;stroke-linejoin:round;}
  </style>
 </defs>
 <g id="figure_1">
  <g id="patch_1">
   <path d="M 0 540 
L 720 540 
L 720 0 
L 0 0 
z
" style="fill:#ffffff;"/>
  </g>
  <g id="axes_1">
   <g id="patch_2">
    <path d="M 90 480.6 
L 648 480.6 
L 648 64.8 
L 90 64.8 
z
" style="fill:#ffffff;"/>
   </g>
   <g id="patch_3">
    <path clip-path="url(#p7b9e80c096)" d="M 90 109868.53721 
L 90 109868.53721 
L 92.80402 109868.53721 
L 92.80402 109868.53721 
L 95.60804 109868.53721 
L 95.60804 109868.53721 
L 98.41206 109868.53721 
L 98.41206 109868.53721 
L 101.21608 109868.53721 
L 101.21608 109868.53721 
L 104.020101 109868.53721 
L 104.020101 109868.53721 
L 106.824121 109868.53721 
L 106.824121 109868.53721 
L 109.628141 109868.53721 
L 109.628141 109868.53721 
L 112.432161 109868.53721 
L 112.432161 109868.53721 
L 115.236181 109868.53721 
L 115.236181 109868.53721 
L 118.040201 109868.53721 
L 118.040201 109868.53721 
L 120.844221 109868.53721 
L 120.844221 109868.53721 
L 123.648241 109868.53721 
L 123.648241 109868.53721 
L 126.452261 109868.53721 
L 126.452261 109868.53721 
L 129.256281 109868.53721 
L 129.256281 109868.53721 
L 132.060302 109868.53721 
L 132.060302 109868.53721 
L 134.864322 109868.53721 
L 134.864322 109868.53721 
L 137.668342 109868.53721 
L 137.668342 109868.53721 
L 140.472362 109868.53721 
L 140.472362 109868.53721 
L 143.276382 109868.53721 
L 143.276382 109868.53721 
L 146.080402 109868.53721 
L 146.080402 109868.53721 
L 148.884422 109868.53721 
L 148.884422 109868.53721 
L 151.688442 109868.53721 
L 151.688442 109868.53721 
L 154.492462 109868.53721 
L 154.492462 109868.53721 
L 157.296482 109868.53721 
L 157.296482 109868.53721 
L 160.100503 109868.53721 
L 160.100503 109868.53721 
L 162.904523 109868.53721 
L 162.904523 109868.53721 
L 165.708543 109868.53721 
L 165.708543 109868.53721 
L 168.512563 109868.53721 
L 168.512563 109868.53721 
L 171.316583 109868.53721 
L 171.316583 109868.53721 
L 174.120603 109868.53721 
L 174.120603 321.209435 
L 176.924623 321.209435 
L 176.924623 216.290943 
L 179.728643 216.290943 
L 179.728643 164.904787 
L 182.532663 164.904787 
L 182.532663 138.807071 
L 185.336683 138.807071 
L 185.336683 120.433414 
L 188.140704 120.433414 
L 188.140704 113.17457 
L 190.944724 113.17457 
L 190.944724 113.790713 
L 193.748744 113.790713 
L 193.748744 105.291935 
L 196.552764 105.291935 
L 196.552764 105.291935 
L 199.356784 105.291935 
L 199.356784 103.961182 
L 202.160804 103.961182 
L 202.160804 101.790333 
L 204.964824 101.790333 
L 204.964824 101.501809 
L 207.768844 101.501809 
L 207.768844 98.708588 
L 210.572864 98.708588 
L 210.572864 101.215019 
L 213.376884 101.215019 
L 213.376884 95.390037 
L 216.180905 95.390037 
L 216.180905 94.141043 
L 218.984925 94.141043 
L 218.984925 96.241226 
L 221.788945 96.241226 
L 221.788945 89.897257 
L 224.592965 89.897257 
L 224.592965 89.22523 
L 227.396985 89.22523 
L 227.396985 83.7 
L 230.201005 83.7 
L 230.201005 84.097923 
L 233.005025 84.097923 
L 233.005025 86.278066 
L 235.809045 86.278066 
L 235.809045 86.839018 
L 238.613065 86.839018 
L 238.613065 87.549603 
L 241.417085 87.549603 
L 241.417085 89.003306 
L 244.221106 89.003306 
L 244.221106 86.487651 
L 247.025126 86.487651 
L 247.025126 89.22523 
L 249.829146 89.22523 
L 249.829146 90.502659 
L 252.633166 90.502659 
L 252.633166 94.388242 
L 255.437186 94.388242 
L 255.437186 95.474476 
L 258.241206 95.474476 
L 258.241206 99.071712 
L 261.045226 99.071712 
L 261.045226 99.345878 
L 263.849246 99.345878 
L 263.849246 100.835292 
L 266.653266 100.835292 
L 266.653266 101.59779 
L 269.457286 101.59779 
L 269.457286 114.289417 
L 272.261307 114.289417 
L 272.261307 109.63588 
L 275.065327 109.63588 
L 275.065327 111.965633 
L 277.869347 111.965633 
L 277.869347 125.070119 
L 280.673367 125.070119 
L 280.673367 119.306507 
L 283.477387 119.306507 
L 283.477387 127.3214 
L 286.281407 127.3214 
L 286.281407 129.857418 
L 289.085427 129.857418 
L 289.085427 132.719726 
L 291.889447 132.719726 
L 291.889447 139.439537 
L 294.693467 139.439537 
L 294.693467 135.764612 
L 297.497487 135.764612 
L 297.497487 144.118147 
L 300.301508 144.118147 
L 300.301508 146.272669 
L 303.105528 146.272669 
L 303.105528 151.98878 
L 305.909548 151.98878 
L 305.909548 157.234955 
L 308.713568 157.234955 
L 308.713568 167.126139 
L 311.517588 167.126139 
L 311.517588 174.931099 
L 314.321608 174.931099 
L 314.321608 171.488133 
L 317.125628 171.488133 
L 317.125628 173.178592 
L 319.929648 173.178592 
L 319.929648 184.265934 
L 322.733668 184.265934 
L 322.733668 176.750384 
L 325.537688 176.750384 
L 325.537688 181.11641 
L 328.341709 181.11641 
L 328.341709 188.223858 
L 331.145729 188.223858 
L 331.145729 192.539739 
L 333.949749 192.539739 
L 333.949749 198.002886 
L 336.753769 198.002886 
L 336.753769 191.898783 
L 339.557789 191.898783 
L 339.557789 211.25993 
L 342.361809 211.25993 
L 342.361809 202.553991 
L 345.165829 202.553991 
L 345.165829 214.214509 
L 347.969849 214.214509 
L 347.969849 210.314345 
L 350.773869 210.314345 
L 350.773869 223.124075 
L 353.577889 223.124075 
L 353.577889 228.291324 
L 356.38191 228.291324 
L 356.38191 215.24144 
L 359.18593 215.24144 
L 359.18593 221.915138 
L 361.98995 221.915138 
L 361.98995 232.570346 
L 364.79397 232.570346 
L 364.79397 217.364033 
L 367.59799 217.364033 
L 367.59799 255.013237 
L 370.40201 255.013237 
L 370.40201 246.307298 
L 373.20603 246.307298 
L 373.20603 260.044251 
L 376.01005 260.044251 
L 376.01005 255.013237 
L 378.81407 255.013237 
L 378.81407 265.668445 
L 381.61809 265.668445 
L 381.61809 268.750189 
L 384.422111 268.750189 
L 384.422111 257.462516 
L 387.226131 257.462516 
L 387.226131 288.111336 
L 390.030151 288.111336 
L 390.030151 293.14235 
L 392.834171 293.14235 
L 392.834171 305.14273 
L 395.638191 305.14273 
L 395.638191 305.14273 
L 398.442211 305.14273 
L 398.442211 321.209435 
L 401.246231 321.209435 
L 401.246231 312.503497 
L 404.050251 312.503497 
L 404.050251 312.503497 
L 406.854271 312.503497 
L 406.854271 331.864643 
L 409.658291 331.864643 
L 409.658291 331.864643 
L 412.462312 331.864643 
L 412.462312 321.209435 
L 415.266332 321.209435 
L 415.266332 345.601596 
L 418.070352 345.601596 
L 418.070352 331.864643 
L 420.874372 331.864643 
L 420.874372 364.962743 
L 423.678392 364.962743 
L 423.678392 364.962743 
L 426.482412 364.962743 
L 426.482412 109868.53721 
L 429.286432 109868.53721 
L 429.286432 398.060842 
L 432.090452 398.060842 
L 432.090452 364.962743 
L 434.894472 364.962743 
L 434.894472 109868.53721 
L 437.698492 109868.53721 
L 437.698492 398.060842 
L 440.502513 398.060842 
L 440.502513 398.060842 
L 443.306533 398.060842 
L 443.306533 364.962743 
L 446.110553 364.962743 
L 446.110553 109868.53721 
L 448.914573 109868.53721 
L 448.914573 398.060842 
L 451.718593 398.060842 
L 451.718593 109868.53721 
L 454.522613 109868.53721 
L 454.522613 109868.53721 
L 457.326633 109868.53721 
L 457.326633 109868.53721 
L 460.130653 109868.53721 
L 460.130653 109868.53721 
L 462.934673 109868.53721 
L 462.934673 109868.53721 
L 465.738693 109868.53721 
L 465.738693 109868.53721 
L 468.542714 109868.53721 
L 468.542714 109868.53721 
L 471.346734 109868.53721 
L 471.346734 109868.53721 
L 474.150754 109868.53721 
L 474.150754 109868.53721 
L 476.954774 109868.53721 
L 476.954774 109868.53721 
L 479.758794 109868.53721 
L 479.758794 109868.53721 
L 482.562814 109868.53721 
L 482.562814 109868.53721 
L 485.366834 109868.53721 
L 485.366834 109868.53721 
L 488.170854 109868.53721 
L 488.170854 109868.53721 
L 490.974874 109868.53721 
L 490.974874 109868.53721 
L 493.778894 109868.53721 
L 493.778894 109868.53721 
L 496.582915 109868.53721 
L 496.582915 109868.53721 
L 499.386935 109868.53721 
L 499.386935 109868.53721 
L 502.190955 109868.53721 
L 502.190955 109868.53721 
L 504.994975 109868.53721 
L 504.994975 109868.53721 
L 507.798995 109868.53721 
L 507.798995 109868.53721 
L 510.603015 109868.53721 
L 510.603015 109868.53721 
L 513.407035 109868.53721 
L 513.407035 109868.53721 
L 516.211055 109868.53721 
L 516.211055 109868.53721 
L 519.015075 109868.53721 
L 519.015075 109868.53721 
L 521.819095 109868.53721 
L 521.819095 109868.53721 
L 524.623116 109868.53721 
L 524.623116 109868.53721 
L 527.427136 109868.53721 
L 527.427136 109868.53721 
L 530.231156 109868.53721 
L 530.231156 109868.53721 
L 533.035176 109868.53721 
L 533.035176 109868.53721 
L 535.839196 109868.53721 
L 535.839196 109868.53721 
L 538.643216 109868.53721 
L 538.643216 109868.53721 
L 541.447236 109868.53721 
L 541.447236 109868.53721 
L 544.251256 109868.53721 
L 544.251256 109868.53721 
L 547.055276 109868.53721 
L 547.055276 109868.53721 
L 549.859296 109868.53721 
L 549.859296 109868.53721 
L 552.663317 109868.53721 
L 552.663317 109868.53721 
L 555.467337 109868.53721 
L 555.467337 109868.53721 
L 558.271357 109868.53721 
L 558.271357 109868.53721 
L 561.075377 109868.53721 
L 561.075377 109868.53721 
L 563.879397 109868.53721 
L 563.879397 109868.53721 
L 566.683417 109868.53721 
L 566.683417 109868.53721 
L 569.487437 109868.53721 
L 569.487437 109868.53721 
L 572.291457 109868.53721 
L 572.291457 109868.53721 
L 575.095477 109868.53721 
L 575.095477 109868.53721 
L 577.899497 109868.53721 
L 577.899497 109868.53721 
L 580.703518 109868.53721 
L 580.703518 109868.53721 
L 583.507538 109868.53721 
L 583.507538 109868.53721 
L 586.311558 109868.53721 
L 586.311558 109868.53721 
L 589.115578 109868.53721 
L 589.115578 109868.53721 
L 591.919598 109868.53721 
L 591.919598 109868.53721 
L 594.723618 109868.53721 
L 594.723618 109868.53721 
L 597.527638 109868.53721 
L 597.527638 109868.53721 
L 600.331658 109868.53721 
L 600.331658 109868.53721 
L 603.135678 109868.53721 
L 603.135678 109868.53721 
L 605.939698 109868.53721 
L 605.939698 109868.53721 
L 608.743719 109868.53721 
L 608.743719 109868.53721 
L 611.547739 109868.53721 
L 611.547739 109868.53721 
L 614.351759 109868.53721 
L 614.351759 109868.53721 
L 617.155779 109868.53721 
L 617.155779 109868.53721 
L 619.959799 109868.53721 
L 619.959799 109868.53721 
L 622.763819 109868.53721 
L 622.763819 109868.53721 
L 625.567839 109868.53721 
L 625.567839 109868.53721 
L 628.371859 109868.53721 
L 628.371859 109868.53721 
L 631.175879 109868.53721 
L 631.175879 109868.53721 
L 633.979899 109868.53721 
L 633.979899 109868.53721 
L 636.78392 109868.53721 
L 636.78392 109868.53721 
L 639.58794 109868.53721 
L 639.58794 109868.53721 
L 642.39196 109868.53721 
L 642.39196 109868.53721 
L 645.19598 109868.53721 
L 645.19598 109868.53721 
L 648 109868.53721 
L 648 109868.53721 
z
" style="fill:#1f77b4;opacity:0.2;"/>
   </g>
   <g id="patch_4">
    <path clip-path="url(#p7b9e80c096)" d="M 90 109868.53721 
L 90 109868.53721 
L 92.80402 109868.53721 
L 92.80402 109868.53721 
L 95.60804 109868.53721 
L 95.60804 109868.53721 
L 98.41206 109868.53721 
L 98.41206 109868.53721 
L 101.21608 109868.53721 
L 101.21608 109868.53721 
L 104.020101 109868.53721 
L 104.020101 109868.53721 
L 106.824121 109868.53721 
L 106.824121 109868.53721 
L 109.628141 109868.53721 
L 109.628141 109868.53721 
L 112.432161 109868.53721 
L 112.432161 109868.53721 
L 115.236181 109868.53721 
L 115.236181 109868.53721 
L 118.040201 109868.53721 
L 118.040201 109868.53721 
L 120.844221 109868.53721 
L 120.844221 109868.53721 
L 123.648241 109868.53721 
L 123.648241 109868.53721 
L 126.452261 109868.53721 
L 126.452261 109868.53721 
L 129.256281 109868.53721 
L 129.256281 109868.53721 
L 132.060302 109868.53721 
L 132.060302 109868.53721 
L 134.864322 109868.53721 
L 134.864322 109868.53721 
L 137.668342 109868.53721 
L 137.668342 109868.53721 
L 140.472362 109868.53721 
L 140.472362 109868.53721 
L 143.276382 109868.53721 
L 143.276382 109868.53721 
L 146.080402 109868.53721 
L 146.080402 109868.53721 
L 148.884422 109868.53721 
L 148.884422 109868.53721 
L 151.688442 109868.53721 
L 151.688442 109868.53721 
L 154.492462 109868.53721 
L 154.492462 109868.53721 
L 157.296482 109868.53721 
L 157.296482 109868.53721 
L 160.100503 109868.53721 
L 160.100503 109868.53721 
L 162.904523 109868.53721 
L 162.904523 109868.53721 
L 165.708543 109868.53721 
L 165.708543 109868.53721 
L 168.512563 109868.53721 
L 168.512563 109868.53721 
L 171.316583 109868.53721 
L 171.316583 109868.53721 
L 174.120603 109868.53721 
L 174.120603 109868.53721 
L 176.924623 109868.53721 
L 176.924623 109868.53721 
L 179.728643 109868.53721 
L 179.728643 461.7 
L 182.532663 461.7 
L 182.532663 461.7 
L 185.336683 461.7 
L 185.336683 461.7 
L 188.140704 461.7 
L 188.140704 109868.53721 
L 190.944724 109868.53721 
L 190.944724 461.7 
L 193.748744 461.7 
L 193.748744 428.601901 
L 196.552764 428.601901 
L 196.552764 395.503802 
L 199.356784 395.503802 
L 199.356784 384.848594 
L 202.160804 384.848594 
L 202.160804 362.405703 
L 204.964824 362.405703 
L 204.964824 384.848594 
L 207.768844 384.848594 
L 207.768844 395.503802 
L 210.572864 395.503802 
L 210.572864 347.199389 
L 213.376884 347.199389 
L 213.376884 347.199389 
L 216.180905 347.199389 
L 216.180905 329.307603 
L 218.984925 329.307603 
L 218.984925 316.322642 
L 221.788945 316.322642 
L 221.788945 299.291249 
L 224.592965 299.291249 
L 224.592965 279.930102 
L 227.396985 279.930102 
L 227.396985 274.899088 
L 230.201005 274.899088 
L 230.201005 266.995697 
L 233.005025 266.995697 
L 233.005025 256.828573 
L 235.809045 256.828573 
L 235.809045 251.277113 
L 238.613065 251.277113 
L 238.613065 249.561343 
L 241.417085 249.561343 
L 241.417085 238.570257 
L 244.221106 238.570257 
L 244.221106 227.470856 
L 247.025126 227.470856 
L 247.025126 227.118452 
L 249.829146 227.118452 
L 249.829146 219.958741 
L 252.633166 219.958741 
L 252.633166 215.904753 
L 255.437186 215.904753 
L 255.437186 214.267434 
L 258.241206 214.267434 
L 258.241206 210.157331 
L 261.045226 210.157331 
L 261.045226 209.667579 
L 263.849246 209.667579 
L 263.849246 202.656122 
L 266.653266 202.656122 
L 266.653266 196.174875 
L 269.457286 196.174875 
L 269.457286 202.237256 
L 272.261307 202.237256 
L 272.261307 190.144291 
L 275.065327 190.144291 
L 275.065327 192.636185 
L 277.869347 192.636185 
L 277.869347 195.445846 
L 280.673367 195.445846 
L 280.673367 195.627062 
L 283.477387 195.627062 
L 283.477387 186.860642 
L 286.281407 186.860642 
L 286.281407 190.306432 
L 289.085427 190.306432 
L 289.085427 183.930246 
L 291.889447 183.930246 
L 291.889447 183.788343 
L 294.693467 183.788343 
L 294.693467 185.226718 
L 297.497487 185.226718 
L 297.497487 182.392031 
L 300.301508 182.392031 
L 300.301508 184.502115 
L 303.105528 184.502115 
L 303.105528 176.936322 
L 305.909548 176.936322 
L 305.909548 179.586301 
L 308.713568 179.586301 
L 308.713568 173.617337 
L 311.517588 173.617337 
L 311.517588 175.964269 
L 314.321608 175.964269 
L 314.321608 173.275038 
L 317.125628 173.275038 
L 317.125628 172.040527 
L 319.929648 172.040527 
L 319.929648 172.822423 
L 322.733668 172.822423 
L 322.733668 169.558023 
L 325.537688 169.558023 
L 325.537688 169.768842 
L 328.341709 169.768842 
L 328.341709 169.663316 
L 331.145729 169.663316 
L 331.145729 167.60034 
L 333.949749 167.60034 
L 333.949749 166.10957 
L 336.753769 166.10957 
L 336.753769 164.663936 
L 339.557789 164.663936 
L 339.557789 163.353057 
L 342.361809 163.353057 
L 342.361809 162.167215 
L 345.165829 162.167215 
L 345.165829 161.987364 
L 347.969849 161.987364 
L 347.969849 159.452893 
L 350.773869 159.452893 
L 350.773869 159.794579 
L 353.577889 159.794579 
L 353.577889 156.884599 
L 356.38191 156.884599 
L 356.38191 155.376147 
L 359.18593 155.376147 
L 359.18593 153.687048 
L 361.98995 153.687048 
L 361.98995 149.500793 
L 364.79397 149.500793 
L 364.79397 149.15652 
L 367.59799 149.15652 
L 367.59799 143.47138 
L 370.40201 143.47138 
L 370.40201 145.715941 
L 373.20603 145.715941 
L 373.20603 144.518176 
L 376.01005 144.518176 
L 376.01005 140.748807 
L 378.81407 140.748807 
L 378.81407 141.561107 
L 381.61809 141.561107 
L 381.61809 136.617951 
L 384.422111 136.617951 
L 384.422111 135.625834 
L 387.226131 135.625834 
L 387.226131 134.050103 
L 390.030151 134.050103 
L 390.030151 130.999619 
L 392.834171 130.999619 
L 392.834171 126.653635 
L 395.638191 126.653635 
L 395.638191 126.142475 
L 398.442211 126.142475 
L 398.442211 122.907387 
L 401.246231 122.907387 
L 401.246231 121.811427 
L 404.050251 121.811427 
L 404.050251 120.551246 
L 406.854271 120.551246 
L 406.854271 120.175847 
L 409.658291 120.175847 
L 409.658291 117.734048 
L 412.462312 117.734048 
L 412.462312 116.888885 
L 415.266332 116.888885 
L 415.266332 115.343427 
L 418.070352 115.343427 
L 418.070352 110.58693 
L 420.874372 110.58693 
L 420.874372 109.170435 
L 423.678392 109.170435 
L 423.678392 108.90392 
L 426.482412 108.90392 
L 426.482412 103.599062 
L 429.286432 103.599062 
L 429.286432 102.812813 
L 432.090452 102.812813 
L 432.090452 99.766823 
L 434.894472 99.766823 
L 434.894472 100.207826 
L 437.698492 100.207826 
L 437.698492 99.450835 
L 440.502513 99.450835 
L 440.502513 94.748005 
L 443.306533 94.748005 
L 443.306533 94.923963 
L 446.110553 94.923963 
L 446.110553 95.078459 
L 448.914573 95.078459 
L 448.914573 94.267438 
L 451.718593 94.267438 
L 451.718593 91.256383 
L 454.522613 91.256383 
L 454.522613 92.413025 
L 457.326633 92.413025 
L 457.326633 90.849993 
L 460.130653 90.849993 
L 460.130653 88.616687 
L 462.934673 88.616687 
L 462.934673 91.955283 
L 465.738693 91.955283 
L 465.738693 88.829556 
L 468.542714 88.829556 
L 468.542714 97.087638 
L 471.346734 97.087638 
L 471.346734 95.925991 
L 474.150754 95.925991 
L 474.150754 100.92701 
L 476.954774 100.92701 
L 476.954774 106.177861 
L 479.758794 106.177861 
L 479.758794 109.94883 
L 482.562814 109.94883 
L 482.562814 118.703087 
L 485.366834 118.703087 
L 485.366834 133.651765 
L 488.170854 133.651765 
L 488.170854 162.528963 
L 490.974874 162.528963 
L 490.974874 217.600214 
L 493.778894 217.600214 
L 493.778894 285.554296 
L 496.582915 285.554296 
L 496.582915 409.240754 
L 499.386935 409.240754 
L 499.386935 109868.53721 
L 502.190955 109868.53721 
L 502.190955 109868.53721 
L 504.994975 109868.53721 
L 504.994975 109868.53721 
L 507.798995 109868.53721 
L 507.798995 109868.53721 
L 510.603015 109868.53721 
L 510.603015 109868.53721 
L 513.407035 109868.53721 
L 513.407035 109868.53721 
L 516.211055 109868.53721 
L 516.211055 109868.53721 
L 519.015075 109868.53721 
L 519.015075 109868.53721 
L 521.819095 109868.53721 
L 521.819095 109868.53721 
L 524.623116 109868.53721 
L 524.623116 109868.53721 
L 527.427136 109868.53721 
L 527.427136 109868.53721 
L 530.231156 109868.53721 
L 530.231156 109868.53721 
L 533.035176 109868.53721 
L 533.035176 109868.53721 
L 535.839196 109868.53721 
L 535.839196 109868.53721 
L 538.643216 109868.53721 
L 538.643216 109868.53721 
L 541.447236 109868.53721 
L 541.447236 109868.53721 
L 544.251256 109868.53721 
L 544.251256 109868.53721 
L 547.055276 109868.53721 
L 547.055276 109868.53721 
L 549.859296 109868.53721 
L 549.859296 109868.53721 
L 552.663317 109868.53721 
L 552.663317 109868.53721 
L 555.467337 109868.53721 
L 555.467337 109868.53721 
L 558.271357 109868.53721 
L 558.271357 109868.53721 
L 561.075377 109868.53721 
L 561.075377 109868.53721 
L 563.879397 109868.53721 
L 563.879397 109868.53721 
L 566.683417 109868.53721 
L 566.683417 109868.53721 
L 569.487437 109868.53721 
L 569.487437 109868.53721 
L 572.291457 109868.53721 
L 572.291457 109868.53721 
L 575.095477 109868.53721 
L 575.095477 109868.53721 
L 577.899497 109868.53721 
L 577.899497 109868.53721 
L 580.703518 109868.53721 
L 580.703518 109868.53721 
L 583.507538 109868.53721 
L 583.507538 109868.53721 
L 586.311558 109868.53721 
L 586.311558 109868.53721 
L 589.115578 109868.53721 
L 589.115578 109868.53721 
L 591.919598 109868.53721 
L 591.919598 109868.53721 
L 594.723618 109868.53721 
L 594.723618 109868.53721 
L 597.527638 109868.53721 
L 597.527638 109868.53721 
L 600.331658 109868.53721 
L 600.331658 109868.53721 
L 603.135678 109868.53721 
L 603.135678 109868.53721 
L 605.939698 109868.53721 
L 605.939698 109868.53721 
L 608.743719 109868.53721 
L 608.743719 109868.53721 
L 611.547739 109868.53721 
L 611.547739 109868.53721 
L 614.351759 109868.53721 
L 614.351759 109868.53721 
L 617.155779 109868.53721 
L 617.155779 109868.53721 
L 619.959799 109868.53721 
L 619.959799 109868.53721 
L 622.763819 109868.53721 
L 622.763819 109868.53721 
L 625.567839 109868.53721 
L 625.567839 109868.53721 
L 628.371859 109868.53721 
L 628.371859 109868.53721 
L 631.175879 109868.53721 
L 631.175879 109868.53721 
L 633.979899 109868.53721 
L 633.979899 109868.53721 
L 636.78392 109868.53721 
L 636.78392 109868.53721 
L 639.58794 109868.53721 
L 639.58794 109868.53721 
L 642.39196 109868.53721 
L 642.39196 109868.53721 
L 645.19598 109868.53721 
L 645.19598 109868.53721 
L 648 109868.53721 
L 648 109868.53721 
z
" style="fill:#ff7f0e;opacity:0.2;"/>
   </g>
   <g id="matplotlib.axis_1">
    <g id="xtick_1">
     <g id="line2d_1">
      <defs>
       <path d="M 0 0 
L 0 3.5 
" id="m956342b639" style="stroke:#000000;stroke-width:0.8;"/>
      </defs>
      <g>
       <use style="stroke:#000000;stroke-width:0.8;" x="90" xlink:href="#m956342b639" y="480.6"/>
      </g>
     </g>
     <g id="text_1">
      <!-- −10 -->
      <defs>
       <path d="M 10.59375 35.5 
L 73.1875 35.5 
L 73.1875 27.203125 
L 10.59375 27.203125 
z
" id="DejaVuSans-8722"/>
       <path d="M 12.40625 8.296875 
L 28.515625 8.296875 
L 28.515625 63.921875 
L 10.984375 60.40625 
L 10.984375 69.390625 
L 28.421875 72.90625 
L 38.28125 72.90625 
L 38.28125 8.296875 
L 54.390625 8.296875 
L 54.390625 0 
L 12.40625 0 
z
" id="DejaVuSans-49"/>
       <path d="M 31.78125 66.40625 
Q 24.171875 66.40625 20.328125 58.90625 
Q 16.5 51.421875 16.5 36.375 
Q 16.5 21.390625 20.328125 13.890625 
Q 24.171875 6.390625 31.78125 6.390625 
Q 39.453125 6.390625 43.28125 13.890625 
Q 47.125 21.390625 47.125 36.375 
Q 47.125 51.421875 43.28125 58.90625 
Q 39.453125 66.40625 31.78125 66.40625 
z
M 31.78125 74.21875 
Q 44.046875 74.21875 50.515625 64.515625 
Q 56.984375 54.828125 56.984375 36.375 
Q 56.984375 17.96875 50.515625 8.265625 
Q 44.046875 -1.421875 31.78125 -1.421875 
Q 19.53125 -1.421875 13.0625 8.265625 
Q 6.59375 17.96875 6.59375 36.375 
Q 6.59375 54.828125 13.0625 64.515625 
Q 19.53125 74.21875 31.78125 74.21875 
z
" id="DejaVuSans-48"/>
      </defs>
      <g transform="translate(62.648325 507.29515)scale(0.2592 -0.2592)">
       <use xlink:href="#DejaVuSans-8722"/>
       <use x="83.789062" xlink:href="#DejaVuSans-49"/>
       <use x="147.412109" xlink:href="#DejaVuSans-48"/>
      </g>
     </g>
    </g>
    <g id="xtick_2">
     <g id="line2d_2">
      <g>
       <use style="stroke:#000000;stroke-width:0.8;" x="201.6" xlink:href="#m956342b639" y="480.6"/>
      </g>
     </g>
     <g id="text_2">
      <!-- −5 -->
      <defs>
       <path d="M 10.796875 72.90625 
L 49.515625 72.90625 
L 49.515625 64.59375 
L 19.828125 64.59375 
L 19.828125 46.734375 
Q 21.96875 47.46875 24.109375 47.828125 
Q 26.265625 48.1875 28.421875 48.1875 
Q 40.625 48.1875 47.75 41.5 
Q 54.890625 34.8125 54.890625 23.390625 
Q 54.890625 11.625 47.5625 5.09375 
Q 40.234375 -1.421875 26.90625 -1.421875 
Q 22.3125 -1.421875 17.546875 -0.640625 
Q 12.796875 0.140625 7.71875 1.703125 
L 7.71875 11.625 
Q 12.109375 9.234375 16.796875 8.0625 
Q 21.484375 6.890625 26.703125 6.890625 
Q 35.15625 6.890625 40.078125 11.328125 
Q 45.015625 15.765625 45.015625 23.390625 
Q 45.015625 31 40.078125 35.4375 
Q 35.15625 39.890625 26.703125 39.890625 
Q 22.75 39.890625 18.8125 39.015625 
Q 14.890625 38.140625 10.796875 36.28125 
z
" id="DejaVuSans-53"/>
      </defs>
      <g transform="translate(182.494125 507.29515)scale(0.2592 -0.2592)">
       <use xlink:href="#DejaVuSans-8722"/>
       <use x="83.789062" xlink:href="#DejaVuSans-53"/>
      </g>
     </g>
    </g>
    <g id="xtick_3">
     <g id="line2d_3">
      <g>
       <use style="stroke:#000000;stroke-width:0.8;" x="313.2" xlink:href="#m956342b639" y="480.6"/>
      </g>
     </g>
     <g id="text_3">
      <!-- 0 -->
      <g transform="translate(304.9542 507.29515)scale(0.2592 -0.2592)">
       <use xlink:href="#DejaVuSans-48"/>
      </g>
     </g>
    </g>
    <g id="xtick_4">
     <g id="line2d_4">
      <g>
       <use style="stroke:#000000;stroke-width:0.8;" x="424.8" xlink:href="#m956342b639" y="480.6"/>
      </g>
     </g>
     <g id="text_4">
      <!-- 5 -->
      <g transform="translate(416.5542 507.29515)scale(0.2592 -0.2592)">
       <use xlink:href="#DejaVuSans-53"/>
      </g>
     </g>
    </g>
    <g id="xtick_5">
     <g id="line2d_5">
      <g>
       <use style="stroke:#000000;stroke-width:0.8;" x="536.4" xlink:href="#m956342b639" y="480.6"/>
      </g>
     </g>
     <g id="text_5">
      <!-- 10 -->
      <g transform="translate(519.9084 507.29515)scale(0.2592 -0.2592)">
       <use xlink:href="#DejaVuSans-49"/>
       <use x="63.623047" xlink:href="#DejaVuSans-48"/>
      </g>
     </g>
    </g>
    <g id="xtick_6">
     <g id="line2d_6">
      <g>
       <use style="stroke:#000000;stroke-width:0.8;" x="648" xlink:href="#m956342b639" y="480.6"/>
      </g>
     </g>
     <g id="text_6">
      <!-- 15 -->
      <g transform="translate(631.5084 507.29515)scale(0.2592 -0.2592)">
       <use xlink:href="#DejaVuSans-49"/>
       <use x="63.623047" xlink:href="#DejaVuSans-53"/>
      </g>
     </g>
    </g>
    <g id="text_7">
     <!-- BDTV -->
     <defs>
      <path d="M 19.671875 34.8125 
L 19.671875 8.109375 
L 35.5 8.109375 
Q 43.453125 8.109375 47.28125 11.40625 
Q 51.125 14.703125 51.125 21.484375 
Q 51.125 28.328125 47.28125 31.5625 
Q 43.453125 34.8125 35.5 34.8125 
z
M 19.671875 64.796875 
L 19.671875 42.828125 
L 34.28125 42.828125 
Q 41.5 42.828125 45.03125 45.53125 
Q 48.578125 48.25 48.578125 53.8125 
Q 48.578125 59.328125 45.03125 62.0625 
Q 41.5 64.796875 34.28125 64.796875 
z
M 9.8125 72.90625 
L 35.015625 72.90625 
Q 46.296875 72.90625 52.390625 68.21875 
Q 58.5 63.53125 58.5 54.890625 
Q 58.5 48.1875 55.375 44.234375 
Q 52.25 40.28125 46.1875 39.3125 
Q 53.46875 37.75 57.5 32.78125 
Q 61.53125 27.828125 61.53125 20.40625 
Q 61.53125 10.640625 54.890625 5.3125 
Q 48.25 0 35.984375 0 
L 9.8125 0 
z
" id="DejaVuSans-66"/>
      <path d="M 19.671875 64.796875 
L 19.671875 8.109375 
L 31.59375 8.109375 
Q 46.6875 8.109375 53.6875 14.9375 
Q 60.6875 21.78125 60.6875 36.53125 
Q 60.6875 51.171875 53.6875 57.984375 
Q 46.6875 64.796875 31.59375 64.796875 
z
M 9.8125 72.90625 
L 30.078125 72.90625 
Q 51.265625 72.90625 61.171875 64.09375 
Q 71.09375 55.28125 71.09375 36.53125 
Q 71.09375 17.671875 61.125 8.828125 
Q 51.171875 0 30.078125 0 
L 9.8125 0 
z
" id="DejaVuSans-68"/>
      <path d="M -0.296875 72.90625 
L 61.375 72.90625 
L 61.375 64.59375 
L 35.5 64.59375 
L 35.5 0 
L 25.59375 0 
L 25.59375 64.59375 
L -0.296875 64.59375 
z
" id="DejaVuSans-84"/>
      <path d="M 28.609375 0 
L 0.78125 72.90625 
L 11.078125 72.90625 
L 34.1875 11.53125 
L 57.328125 72.90625 
L 67.578125 72.90625 
L 39.796875 0 
z
" id="DejaVuSans-86"/>
     </defs>
     <g transform="translate(333.34785 536.38085)scale(0.2592 -0.2592)">
      <use xlink:href="#DejaVuSans-66"/>
      <use x="68.603516" xlink:href="#DejaVuSans-68"/>
      <use x="145.605469" xlink:href="#DejaVuSans-84"/>
      <use x="206.689453" xlink:href="#DejaVuSans-86"/>
     </g>
    </g>
   </g>
   <g id="matplotlib.axis_2">
    <g id="ytick_1">
     <g id="line2d_7">
      <defs>
       <path d="M 0 0 
L -3.5 0 
" id="m1cb2f0d12c" style="stroke:#000000;stroke-width:0.8;"/>
      </defs>
      <g>
       <use style="stroke:#000000;stroke-width:0.8;" x="90" xlink:href="#m1cb2f0d12c" y="468.779313"/>
      </g>
     </g>
     <g id="text_8">
      <!-- $\mathdefault{10^{-5}}$ -->
      <g transform="translate(22.088 478.626888)scale(0.2592 -0.2592)">
       <use transform="translate(0 0.684375)" xlink:href="#DejaVuSans-49"/>
       <use transform="translate(63.623047 0.684375)" xlink:href="#DejaVuSans-48"/>
       <use transform="translate(128.203125 38.965625)scale(0.7)" xlink:href="#DejaVuSans-8722"/>
       <use transform="translate(186.855469 38.965625)scale(0.7)" xlink:href="#DejaVuSans-53"/>
      </g>
     </g>
    </g>
    <g id="ytick_2">
     <g id="line2d_8">
      <g>
       <use style="stroke:#000000;stroke-width:0.8;" x="90" xlink:href="#m1cb2f0d12c" y="358.829807"/>
      </g>
     </g>
     <g id="text_9">
      <!-- $\mathdefault{10^{-4}}$ -->
      <defs>
       <path d="M 37.796875 64.3125 
L 12.890625 25.390625 
L 37.796875 25.390625 
z
M 35.203125 72.90625 
L 47.609375 72.90625 
L 47.609375 25.390625 
L 58.015625 25.390625 
L 58.015625 17.1875 
L 47.609375 17.1875 
L 47.609375 0 
L 37.796875 0 
L 37.796875 17.1875 
L 4.890625 17.1875 
L 4.890625 26.703125 
z
" id="DejaVuSans-52"/>
      </defs>
      <g transform="translate(22.088 368.677382)scale(0.2592 -0.2592)">
       <use transform="translate(0 0.684375)" xlink:href="#DejaVuSans-49"/>
       <use transform="translate(63.623047 0.684375)" xlink:href="#DejaVuSans-48"/>
       <use transform="translate(128.203125 38.965625)scale(0.7)" xlink:href="#DejaVuSans-8722"/>
       <use transform="translate(186.855469 38.965625)scale(0.7)" xlink:href="#DejaVuSans-52"/>
      </g>
     </g>
    </g>
    <g id="ytick_3">
     <g id="line2d_9">
      <g>
       <use style="stroke:#000000;stroke-width:0.8;" x="90" xlink:href="#m1cb2f0d12c" y="248.880302"/>
      </g>
     </g>
     <g id="text_10">
      <!-- $\mathdefault{10^{-3}}$ -->
      <defs>
       <path d="M 40.578125 39.3125 
Q 47.65625 37.796875 51.625 33 
Q 55.609375 28.21875 55.609375 21.1875 
Q 55.609375 10.40625 48.1875 4.484375 
Q 40.765625 -1.421875 27.09375 -1.421875 
Q 22.515625 -1.421875 17.65625 -0.515625 
Q 12.796875 0.390625 7.625 2.203125 
L 7.625 11.71875 
Q 11.71875 9.328125 16.59375 8.109375 
Q 21.484375 6.890625 26.8125 6.890625 
Q 36.078125 6.890625 40.9375 10.546875 
Q 45.796875 14.203125 45.796875 21.1875 
Q 45.796875 27.640625 41.28125 31.265625 
Q 36.765625 34.90625 28.71875 34.90625 
L 20.21875 34.90625 
L 20.21875 43.015625 
L 29.109375 43.015625 
Q 36.375 43.015625 40.234375 45.921875 
Q 44.09375 48.828125 44.09375 54.296875 
Q 44.09375 59.90625 40.109375 62.90625 
Q 36.140625 65.921875 28.71875 65.921875 
Q 24.65625 65.921875 20.015625 65.03125 
Q 15.375 64.15625 9.8125 62.3125 
L 9.8125 71.09375 
Q 15.4375 72.65625 20.34375 73.4375 
Q 25.25 74.21875 29.59375 74.21875 
Q 40.828125 74.21875 47.359375 69.109375 
Q 53.90625 64.015625 53.90625 55.328125 
Q 53.90625 49.265625 50.4375 45.09375 
Q 46.96875 40.921875 40.578125 39.3125 
z
" id="DejaVuSans-51"/>
      </defs>
      <g transform="translate(22.088 258.727877)scale(0.2592 -0.2592)">
       <use transform="translate(0 0.765625)" xlink:href="#DejaVuSans-49"/>
       <use transform="translate(63.623047 0.765625)" xlink:href="#DejaVuSans-48"/>
       <use transform="translate(128.203125 39.046875)scale(0.7)" xlink:href="#DejaVuSans-8722"/>
       <use transform="translate(186.855469 39.046875)scale(0.7)" xlink:href="#DejaVuSans-51"/>
      </g>
     </g>
    </g>
    <g id="ytick_4">
     <g id="line2d_10">
      <g>
       <use style="stroke:#000000;stroke-width:0.8;" x="90" xlink:href="#m1cb2f0d12c" y="138.930796"/>
      </g>
     </g>
     <g id="text_11">
      <!-- $\mathdefault{10^{-2}}$ -->
      <defs>
       <path d="M 19.1875 8.296875 
L 53.609375 8.296875 
L 53.609375 0 
L 7.328125 0 
L 7.328125 8.296875 
Q 12.9375 14.109375 22.625 23.890625 
Q 32.328125 33.6875 34.8125 36.53125 
Q 39.546875 41.84375 41.421875 45.53125 
Q 43.3125 49.21875 43.3125 52.78125 
Q 43.3125 58.59375 39.234375 62.25 
Q 35.15625 65.921875 28.609375 65.921875 
Q 23.96875 65.921875 18.8125 64.3125 
Q 13.671875 62.703125 7.8125 59.421875 
L 7.8125 69.390625 
Q 13.765625 71.78125 18.9375 73 
Q 24.125 74.21875 28.421875 74.21875 
Q 39.75 74.21875 46.484375 68.546875 
Q 53.21875 62.890625 53.21875 53.421875 
Q 53.21875 48.921875 51.53125 44.890625 
Q 49.859375 40.875 45.40625 35.40625 
Q 44.1875 33.984375 37.640625 27.21875 
Q 31.109375 20.453125 19.1875 8.296875 
z
" id="DejaVuSans-50"/>
      </defs>
      <g transform="translate(22.088 148.778371)scale(0.2592 -0.2592)">
       <use transform="translate(0 0.765625)" xlink:href="#DejaVuSans-49"/>
       <use transform="translate(63.623047 0.765625)" xlink:href="#DejaVuSans-48"/>
       <use transform="translate(128.203125 39.046875)scale(0.7)" xlink:href="#DejaVuSans-8722"/>
       <use transform="translate(186.855469 39.046875)scale(0.7)" xlink:href="#DejaVuSans-50"/>
      </g>
     </g>
    </g>
    <g id="ytick_5">
     <g id="line2d_11">
      <defs>
       <path d="M 0 0 
L -2 0 
" id="mf73cc956e2" style="stroke:#000000;stroke-width:0.6;"/>
      </defs>
      <g>
       <use style="stroke:#000000;stroke-width:0.6;" x="90" xlink:href="#mf73cc956e2" y="479.434521"/>
      </g>
     </g>
    </g>
    <g id="ytick_6">
     <g id="line2d_12">
      <g>
       <use style="stroke:#000000;stroke-width:0.6;" x="90" xlink:href="#mf73cc956e2" y="473.810326"/>
      </g>
     </g>
    </g>
    <g id="ytick_7">
     <g id="line2d_13">
      <g>
       <use style="stroke:#000000;stroke-width:0.6;" x="90" xlink:href="#mf73cc956e2" y="435.681214"/>
      </g>
     </g>
    </g>
    <g id="ytick_8">
     <g id="line2d_14">
      <g>
       <use style="stroke:#000000;stroke-width:0.6;" x="90" xlink:href="#mf73cc956e2" y="416.320067"/>
      </g>
     </g>
    </g>
    <g id="ytick_9">
     <g id="line2d_15">
      <g>
       <use style="stroke:#000000;stroke-width:0.6;" x="90" xlink:href="#mf73cc956e2" y="402.583114"/>
      </g>
     </g>
    </g>
    <g id="ytick_10">
     <g id="line2d_16">
      <g>
       <use style="stroke:#000000;stroke-width:0.6;" x="90" xlink:href="#mf73cc956e2" y="391.927906"/>
      </g>
     </g>
    </g>
    <g id="ytick_11">
     <g id="line2d_17">
      <g>
       <use style="stroke:#000000;stroke-width:0.6;" x="90" xlink:href="#mf73cc956e2" y="383.221968"/>
      </g>
     </g>
    </g>
    <g id="ytick_12">
     <g id="line2d_18">
      <g>
       <use style="stroke:#000000;stroke-width:0.6;" x="90" xlink:href="#mf73cc956e2" y="375.861201"/>
      </g>
     </g>
    </g>
    <g id="ytick_13">
     <g id="line2d_19">
      <g>
       <use style="stroke:#000000;stroke-width:0.6;" x="90" xlink:href="#mf73cc956e2" y="369.485015"/>
      </g>
     </g>
    </g>
    <g id="ytick_14">
     <g id="line2d_20">
      <g>
       <use style="stroke:#000000;stroke-width:0.6;" x="90" xlink:href="#mf73cc956e2" y="363.860821"/>
      </g>
     </g>
    </g>
    <g id="ytick_15">
     <g id="line2d_21">
      <g>
       <use style="stroke:#000000;stroke-width:0.6;" x="90" xlink:href="#mf73cc956e2" y="325.731708"/>
      </g>
     </g>
    </g>
    <g id="ytick_16">
     <g id="line2d_22">
      <g>
       <use style="stroke:#000000;stroke-width:0.6;" x="90" xlink:href="#mf73cc956e2" y="306.370561"/>
      </g>
     </g>
    </g>
    <g id="ytick_17">
     <g id="line2d_23">
      <g>
       <use style="stroke:#000000;stroke-width:0.6;" x="90" xlink:href="#mf73cc956e2" y="292.633609"/>
      </g>
     </g>
    </g>
    <g id="ytick_18">
     <g id="line2d_24">
      <g>
       <use style="stroke:#000000;stroke-width:0.6;" x="90" xlink:href="#mf73cc956e2" y="281.978401"/>
      </g>
     </g>
    </g>
    <g id="ytick_19">
     <g id="line2d_25">
      <g>
       <use style="stroke:#000000;stroke-width:0.6;" x="90" xlink:href="#mf73cc956e2" y="273.272462"/>
      </g>
     </g>
    </g>
    <g id="ytick_20">
     <g id="line2d_26">
      <g>
       <use style="stroke:#000000;stroke-width:0.6;" x="90" xlink:href="#mf73cc956e2" y="265.911696"/>
      </g>
     </g>
    </g>
    <g id="ytick_21">
     <g id="line2d_27">
      <g>
       <use style="stroke:#000000;stroke-width:0.6;" x="90" xlink:href="#mf73cc956e2" y="259.53551"/>
      </g>
     </g>
    </g>
    <g id="ytick_22">
     <g id="line2d_28">
      <g>
       <use style="stroke:#000000;stroke-width:0.6;" x="90" xlink:href="#mf73cc956e2" y="253.911315"/>
      </g>
     </g>
    </g>
    <g id="ytick_23">
     <g id="line2d_29">
      <g>
       <use style="stroke:#000000;stroke-width:0.6;" x="90" xlink:href="#mf73cc956e2" y="215.782203"/>
      </g>
     </g>
    </g>
    <g id="ytick_24">
     <g id="line2d_30">
      <g>
       <use style="stroke:#000000;stroke-width:0.6;" x="90" xlink:href="#mf73cc956e2" y="196.421056"/>
      </g>
     </g>
    </g>
    <g id="ytick_25">
     <g id="line2d_31">
      <g>
       <use style="stroke:#000000;stroke-width:0.6;" x="90" xlink:href="#mf73cc956e2" y="182.684104"/>
      </g>
     </g>
    </g>
    <g id="ytick_26">
     <g id="line2d_32">
      <g>
       <use style="stroke:#000000;stroke-width:0.6;" x="90" xlink:href="#mf73cc956e2" y="172.028896"/>
      </g>
     </g>
    </g>
    <g id="ytick_27">
     <g id="line2d_33">
      <g>
       <use style="stroke:#000000;stroke-width:0.6;" x="90" xlink:href="#mf73cc956e2" y="163.322957"/>
      </g>
     </g>
    </g>
    <g id="ytick_28">
     <g id="line2d_34">
      <g>
       <use style="stroke:#000000;stroke-width:0.6;" x="90" xlink:href="#mf73cc956e2" y="155.96219"/>
      </g>
     </g>
    </g>
    <g id="ytick_29">
     <g id="line2d_35">
      <g>
       <use style="stroke:#000000;stroke-width:0.6;" x="90" xlink:href="#mf73cc956e2" y="149.586004"/>
      </g>
     </g>
    </g>
    <g id="ytick_30">
     <g id="line2d_36">
      <g>
       <use style="stroke:#000000;stroke-width:0.6;" x="90" xlink:href="#mf73cc956e2" y="143.96181"/>
      </g>
     </g>
    </g>
    <g id="ytick_31">
     <g id="line2d_37">
      <g>
       <use style="stroke:#000000;stroke-width:0.6;" x="90" xlink:href="#mf73cc956e2" y="105.832697"/>
      </g>
     </g>
    </g>
    <g id="ytick_32">
     <g id="line2d_38">
      <g>
       <use style="stroke:#000000;stroke-width:0.6;" x="90" xlink:href="#mf73cc956e2" y="86.47155"/>
      </g>
     </g>
    </g>
    <g id="ytick_33">
     <g id="line2d_39">
      <g>
       <use style="stroke:#000000;stroke-width:0.6;" x="90" xlink:href="#mf73cc956e2" y="72.734598"/>
      </g>
     </g>
    </g>
    <g id="text_12">
     <!-- Probability -->
     <defs>
      <path d="M 19.671875 64.796875 
L 19.671875 37.40625 
L 32.078125 37.40625 
Q 38.96875 37.40625 42.71875 40.96875 
Q 46.484375 44.53125 46.484375 51.125 
Q 46.484375 57.671875 42.71875 61.234375 
Q 38.96875 64.796875 32.078125 64.796875 
z
M 9.8125 72.90625 
L 32.078125 72.90625 
Q 44.34375 72.90625 50.609375 67.359375 
Q 56.890625 61.8125 56.890625 51.125 
Q 56.890625 40.328125 50.609375 34.8125 
Q 44.34375 29.296875 32.078125 29.296875 
L 19.671875 29.296875 
L 19.671875 0 
L 9.8125 0 
z
" id="DejaVuSans-80"/>
      <path d="M 41.109375 46.296875 
Q 39.59375 47.171875 37.8125 47.578125 
Q 36.03125 48 33.890625 48 
Q 26.265625 48 22.1875 43.046875 
Q 18.109375 38.09375 18.109375 28.8125 
L 18.109375 0 
L 9.078125 0 
L 9.078125 54.6875 
L 18.109375 54.6875 
L 18.109375 46.1875 
Q 20.953125 51.171875 25.484375 53.578125 
Q 30.03125 56 36.53125 56 
Q 37.453125 56 38.578125 55.875 
Q 39.703125 55.765625 41.0625 55.515625 
z
" id="DejaVuSans-114"/>
      <path d="M 30.609375 48.390625 
Q 23.390625 48.390625 19.1875 42.75 
Q 14.984375 37.109375 14.984375 27.296875 
Q 14.984375 17.484375 19.15625 11.84375 
Q 23.34375 6.203125 30.609375 6.203125 
Q 37.796875 6.203125 41.984375 11.859375 
Q 46.1875 17.53125 46.1875 27.296875 
Q 46.1875 37.015625 41.984375 42.703125 
Q 37.796875 48.390625 30.609375 48.390625 
z
M 30.609375 56 
Q 42.328125 56 49.015625 48.375 
Q 55.71875 40.765625 55.71875 27.296875 
Q 55.71875 13.875 49.015625 6.21875 
Q 42.328125 -1.421875 30.609375 -1.421875 
Q 18.84375 -1.421875 12.171875 6.21875 
Q 5.515625 13.875 5.515625 27.296875 
Q 5.515625 40.765625 12.171875 48.375 
Q 18.84375 56 30.609375 56 
z
" id="DejaVuSans-111"/>
      <path d="M 48.6875 27.296875 
Q 48.6875 37.203125 44.609375 42.84375 
Q 40.53125 48.484375 33.40625 48.484375 
Q 26.265625 48.484375 22.1875 42.84375 
Q 18.109375 37.203125 18.109375 27.296875 
Q 18.109375 17.390625 22.1875 11.75 
Q 26.265625 6.109375 33.40625 6.109375 
Q 40.53125 6.109375 44.609375 11.75 
Q 48.6875 17.390625 48.6875 27.296875 
z
M 18.109375 46.390625 
Q 20.953125 51.265625 25.265625 53.625 
Q 29.59375 56 35.59375 56 
Q 45.5625 56 51.78125 48.09375 
Q 58.015625 40.1875 58.015625 27.296875 
Q 58.015625 14.40625 51.78125 6.484375 
Q 45.5625 -1.421875 35.59375 -1.421875 
Q 29.59375 -1.421875 25.265625 0.953125 
Q 20.953125 3.328125 18.109375 8.203125 
L 18.109375 0 
L 9.078125 0 
L 9.078125 75.984375 
L 18.109375 75.984375 
z
" id="DejaVuSans-98"/>
      <path d="M 34.28125 27.484375 
Q 23.390625 27.484375 19.1875 25 
Q 14.984375 22.515625 14.984375 16.5 
Q 14.984375 11.71875 18.140625 8.90625 
Q 21.296875 6.109375 26.703125 6.109375 
Q 34.1875 6.109375 38.703125 11.40625 
Q 43.21875 16.703125 43.21875 25.484375 
L 43.21875 27.484375 
z
M 52.203125 31.203125 
L 52.203125 0 
L 43.21875 0 
L 43.21875 8.296875 
Q 40.140625 3.328125 35.546875 0.953125 
Q 30.953125 -1.421875 24.3125 -1.421875 
Q 15.921875 -1.421875 10.953125 3.296875 
Q 6 8.015625 6 15.921875 
Q 6 25.140625 12.171875 29.828125 
Q 18.359375 34.515625 30.609375 34.515625 
L 43.21875 34.515625 
L 43.21875 35.40625 
Q 43.21875 41.609375 39.140625 45 
Q 35.0625 48.390625 27.6875 48.390625 
Q 23 48.390625 18.546875 47.265625 
Q 14.109375 46.140625 10.015625 43.890625 
L 10.015625 52.203125 
Q 14.9375 54.109375 19.578125 55.046875 
Q 24.21875 56 28.609375 56 
Q 40.484375 56 46.34375 49.84375 
Q 52.203125 43.703125 52.203125 31.203125 
z
" id="DejaVuSans-97"/>
      <path d="M 9.421875 54.6875 
L 18.40625 54.6875 
L 18.40625 0 
L 9.421875 0 
z
M 9.421875 75.984375 
L 18.40625 75.984375 
L 18.40625 64.59375 
L 9.421875 64.59375 
z
" id="DejaVuSans-105"/>
      <path d="M 9.421875 75.984375 
L 18.40625 75.984375 
L 18.40625 0 
L 9.421875 0 
z
" id="DejaVuSans-108"/>
      <path d="M 18.3125 70.21875 
L 18.3125 54.6875 
L 36.8125 54.6875 
L 36.8125 47.703125 
L 18.3125 47.703125 
L 18.3125 18.015625 
Q 18.3125 11.328125 20.140625 9.421875 
Q 21.96875 7.515625 27.59375 7.515625 
L 36.8125 7.515625 
L 36.8125 0 
L 27.59375 0 
Q 17.1875 0 13.234375 3.875 
Q 9.28125 7.765625 9.28125 18.015625 
L 9.28125 47.703125 
L 2.6875 47.703125 
L 2.6875 54.6875 
L 9.28125 54.6875 
L 9.28125 70.21875 
z
" id="DejaVuSans-116"/>
      <path d="M 32.171875 -5.078125 
Q 28.375 -14.84375 24.75 -17.8125 
Q 21.140625 -20.796875 15.09375 -20.796875 
L 7.90625 -20.796875 
L 7.90625 -13.28125 
L 13.1875 -13.28125 
Q 16.890625 -13.28125 18.9375 -11.515625 
Q 21 -9.765625 23.484375 -3.21875 
L 25.09375 0.875 
L 2.984375 54.6875 
L 12.5 54.6875 
L 29.59375 11.921875 
L 46.6875 54.6875 
L 56.203125 54.6875 
z
" id="DejaVuSans-121"/>
     </defs>
     <g transform="translate(12.69745 341.71605)rotate(-90)scale(0.2592 -0.2592)">
      <use xlink:href="#DejaVuSans-80"/>
      <use x="60.287109" xlink:href="#DejaVuSans-114"/>
      <use x="101.369141" xlink:href="#DejaVuSans-111"/>
      <use x="162.550781" xlink:href="#DejaVuSans-98"/>
      <use x="226.027344" xlink:href="#DejaVuSans-97"/>
      <use x="287.306641" xlink:href="#DejaVuSans-98"/>
      <use x="350.783203" xlink:href="#DejaVuSans-105"/>
      <use x="378.566406" xlink:href="#DejaVuSans-108"/>
      <use x="406.349609" xlink:href="#DejaVuSans-105"/>
      <use x="434.132812" xlink:href="#DejaVuSans-116"/>
      <use x="473.341797" xlink:href="#DejaVuSans-121"/>
     </g>
    </g>
   </g>
   <g id="line2d_40">
    <path clip-path="url(#p7b9e80c096)" d="M 174.120603 541 
L 174.120603 321.209435 
L 176.924623 321.209435 
L 176.924623 216.290943 
L 179.728643 216.290943 
L 179.728643 164.904787 
L 182.532663 164.904787 
L 182.532663 138.807071 
L 185.336683 138.807071 
L 185.336683 120.433414 
L 188.140704 120.433414 
L 188.140704 113.17457 
L 190.944724 113.17457 
L 190.944724 113.790713 
L 193.748744 113.790713 
L 193.748744 105.291935 
L 199.356784 105.291935 
L 199.356784 103.961182 
L 202.160804 103.961182 
L 202.160804 101.790333 
L 204.964824 101.790333 
L 204.964824 101.501809 
L 207.768844 101.501809 
L 207.768844 98.708588 
L 210.572864 98.708588 
L 210.572864 101.215019 
L 213.376884 101.215019 
L 213.376884 95.390037 
L 216.180905 95.390037 
L 216.180905 94.141043 
L 218.984925 94.141043 
L 218.984925 96.241226 
L 221.788945 96.241226 
L 221.788945 89.897257 
L 224.592965 89.897257 
L 224.592965 89.22523 
L 227.396985 89.22523 
L 227.396985 83.7 
L 230.201005 83.7 
L 230.201005 84.097923 
L 233.005025 84.097923 
L 233.005025 86.278066 
L 235.809045 86.278066 
L 235.809045 86.839018 
L 238.613065 86.839018 
L 238.613065 87.549603 
L 241.417085 87.549603 
L 241.417085 89.003306 
L 244.221106 89.003306 
L 244.221106 86.487651 
L 247.025126 86.487651 
L 247.025126 89.22523 
L 249.829146 89.22523 
L 249.829146 90.502659 
L 252.633166 90.502659 
L 252.633166 94.388242 
L 255.437186 94.388242 
L 255.437186 95.474476 
L 258.241206 95.474476 
L 258.241206 99.071712 
L 261.045226 99.071712 
L 261.045226 99.345878 
L 263.849246 99.345878 
L 263.849246 100.835292 
L 266.653266 100.835292 
L 266.653266 101.59779 
L 269.457286 101.59779 
L 269.457286 114.289417 
L 272.261307 114.289417 
L 272.261307 109.63588 
L 275.065327 109.63588 
L 275.065327 111.965633 
L 277.869347 111.965633 
L 277.869347 125.070119 
L 280.673367 125.070119 
L 280.673367 119.306507 
L 283.477387 119.306507 
L 283.477387 127.3214 
L 286.281407 127.3214 
L 286.281407 129.857418 
L 289.085427 129.857418 
L 289.085427 132.719726 
L 291.889447 132.719726 
L 291.889447 139.439537 
L 294.693467 139.439537 
L 294.693467 135.764612 
L 297.497487 135.764612 
L 297.497487 144.118147 
L 300.301508 144.118147 
L 300.301508 146.272669 
L 303.105528 146.272669 
L 303.105528 151.98878 
L 305.909548 151.98878 
L 305.909548 157.234955 
L 308.713568 157.234955 
L 308.713568 167.126139 
L 311.517588 167.126139 
L 311.517588 174.931099 
L 314.321608 174.931099 
L 314.321608 171.488133 
L 317.125628 171.488133 
L 317.125628 173.178592 
L 319.929648 173.178592 
L 319.929648 184.265934 
L 322.733668 184.265934 
L 322.733668 176.750384 
L 325.537688 176.750384 
L 325.537688 181.11641 
L 328.341709 181.11641 
L 328.341709 188.223858 
L 331.145729 188.223858 
L 331.145729 192.539739 
L 333.949749 192.539739 
L 333.949749 198.002886 
L 336.753769 198.002886 
L 336.753769 191.898783 
L 339.557789 191.898783 
L 339.557789 211.25993 
L 342.361809 211.25993 
L 342.361809 202.553991 
L 345.165829 202.553991 
L 345.165829 214.214509 
L 347.969849 214.214509 
L 347.969849 210.314345 
L 350.773869 210.314345 
L 350.773869 223.124075 
L 353.577889 223.124075 
L 353.577889 228.291324 
L 356.38191 228.291324 
L 356.38191 215.24144 
L 359.18593 215.24144 
L 359.18593 221.915138 
L 361.98995 221.915138 
L 361.98995 232.570346 
L 364.79397 232.570346 
L 364.79397 217.364033 
L 367.59799 217.364033 
L 367.59799 255.013237 
L 370.40201 255.013237 
L 370.40201 246.307298 
L 373.20603 246.307298 
L 373.20603 260.044251 
L 376.01005 260.044251 
L 376.01005 255.013237 
L 378.81407 255.013237 
L 378.81407 265.668445 
L 381.61809 265.668445 
L 381.61809 268.750189 
L 384.422111 268.750189 
L 384.422111 257.462516 
L 387.226131 257.462516 
L 387.226131 288.111336 
L 390.030151 288.111336 
L 390.030151 293.14235 
L 392.834171 293.14235 
L 392.834171 305.14273 
L 398.442211 305.14273 
L 398.442211 321.209435 
L 401.246231 321.209435 
L 401.246231 312.503497 
L 406.854271 312.503497 
L 406.854271 331.864643 
L 412.462312 331.864643 
L 412.462312 321.209435 
L 415.266332 321.209435 
L 415.266332 345.601596 
L 418.070352 345.601596 
L 418.070352 331.864643 
L 420.874372 331.864643 
L 420.874372 364.962743 
L 426.482412 364.962743 
L 426.482412 541 
M 429.286432 541 
L 429.286432 398.060842 
L 432.090452 398.060842 
L 432.090452 364.962743 
L 434.894472 364.962743 
L 434.894472 541 
M 437.698492 541 
L 437.698492 398.060842 
L 443.306533 398.060842 
L 443.306533 364.962743 
L 446.110553 364.962743 
L 446.110553 541 
M 448.914573 541 
L 448.914573 398.060842 
L 451.718593 398.060842 
L 451.718593 541 
L 451.718593 541 
" style="fill:none;stroke:#1f77b4;stroke-linecap:square;stroke-width:1.5;"/>
   </g>
   <g id="line2d_41">
    <path clip-path="url(#p7b9e80c096)" d="M 179.728643 541 
L 179.728643 461.7 
L 188.140704 461.7 
L 188.140704 541 
M 190.944724 541 
L 190.944724 461.7 
L 193.748744 461.7 
L 193.748744 428.601901 
L 196.552764 428.601901 
L 196.552764 395.503802 
L 199.356784 395.503802 
L 199.356784 384.848594 
L 202.160804 384.848594 
L 202.160804 362.405703 
L 204.964824 362.405703 
L 204.964824 384.848594 
L 207.768844 384.848594 
L 207.768844 395.503802 
L 210.572864 395.503802 
L 210.572864 347.199389 
L 216.180905 347.199389 
L 216.180905 329.307603 
L 218.984925 329.307603 
L 218.984925 316.322642 
L 221.788945 316.322642 
L 221.788945 299.291249 
L 224.592965 299.291249 
L 224.592965 279.930102 
L 227.396985 279.930102 
L 227.396985 274.899088 
L 230.201005 274.899088 
L 230.201005 266.995697 
L 233.005025 266.995697 
L 233.005025 256.828573 
L 235.809045 256.828573 
L 235.809045 251.277113 
L 238.613065 251.277113 
L 238.613065 249.561343 
L 241.417085 249.561343 
L 241.417085 238.570257 
L 244.221106 238.570257 
L 244.221106 227.470856 
L 247.025126 227.470856 
L 247.025126 227.118452 
L 249.829146 227.118452 
L 249.829146 219.958741 
L 252.633166 219.958741 
L 252.633166 215.904753 
L 255.437186 215.904753 
L 255.437186 214.267434 
L 258.241206 214.267434 
L 258.241206 210.157331 
L 261.045226 210.157331 
L 261.045226 209.667579 
L 263.849246 209.667579 
L 263.849246 202.656122 
L 266.653266 202.656122 
L 266.653266 196.174875 
L 269.457286 196.174875 
L 269.457286 202.237256 
L 272.261307 202.237256 
L 272.261307 190.144291 
L 275.065327 190.144291 
L 275.065327 192.636185 
L 277.869347 192.636185 
L 277.869347 195.445846 
L 280.673367 195.445846 
L 280.673367 195.627062 
L 283.477387 195.627062 
L 283.477387 186.860642 
L 286.281407 186.860642 
L 286.281407 190.306432 
L 289.085427 190.306432 
L 289.085427 183.930246 
L 291.889447 183.930246 
L 291.889447 183.788343 
L 294.693467 183.788343 
L 294.693467 185.226718 
L 297.497487 185.226718 
L 297.497487 182.392031 
L 300.301508 182.392031 
L 300.301508 184.502115 
L 303.105528 184.502115 
L 303.105528 176.936322 
L 305.909548 176.936322 
L 305.909548 179.586301 
L 308.713568 179.586301 
L 308.713568 173.617337 
L 311.517588 173.617337 
L 311.517588 175.964269 
L 314.321608 175.964269 
L 314.321608 173.275038 
L 317.125628 173.275038 
L 317.125628 172.040527 
L 319.929648 172.040527 
L 319.929648 172.822423 
L 322.733668 172.822423 
L 322.733668 169.558023 
L 325.537688 169.558023 
L 325.537688 169.768842 
L 331.145729 169.663316 
L 331.145729 167.60034 
L 333.949749 167.60034 
L 333.949749 166.10957 
L 336.753769 166.10957 
L 336.753769 164.663936 
L 339.557789 164.663936 
L 339.557789 163.353057 
L 342.361809 163.353057 
L 342.361809 162.167215 
L 345.165829 162.167215 
L 345.165829 161.987364 
L 347.969849 161.987364 
L 347.969849 159.452893 
L 350.773869 159.452893 
L 350.773869 159.794579 
L 353.577889 159.794579 
L 353.577889 156.884599 
L 356.38191 156.884599 
L 356.38191 155.376147 
L 359.18593 155.376147 
L 359.18593 153.687048 
L 361.98995 153.687048 
L 361.98995 149.500793 
L 364.79397 149.500793 
L 364.79397 149.15652 
L 367.59799 149.15652 
L 367.59799 143.47138 
L 370.40201 143.47138 
L 370.40201 145.715941 
L 373.20603 145.715941 
L 373.20603 144.518176 
L 376.01005 144.518176 
L 376.01005 140.748807 
L 378.81407 140.748807 
L 378.81407 141.561107 
L 381.61809 141.561107 
L 381.61809 136.617951 
L 384.422111 136.617951 
L 384.422111 135.625834 
L 387.226131 135.625834 
L 387.226131 134.050103 
L 390.030151 134.050103 
L 390.030151 130.999619 
L 392.834171 130.999619 
L 392.834171 126.653635 
L 395.638191 126.653635 
L 395.638191 126.142475 
L 398.442211 126.142475 
L 398.442211 122.907387 
L 401.246231 122.907387 
L 401.246231 121.811427 
L 404.050251 121.811427 
L 404.050251 120.551246 
L 406.854271 120.551246 
L 406.854271 120.175847 
L 409.658291 120.175847 
L 409.658291 117.734048 
L 412.462312 117.734048 
L 412.462312 116.888885 
L 415.266332 116.888885 
L 415.266332 115.343427 
L 418.070352 115.343427 
L 418.070352 110.58693 
L 420.874372 110.58693 
L 420.874372 109.170435 
L 423.678392 109.170435 
L 423.678392 108.90392 
L 426.482412 108.90392 
L 426.482412 103.599062 
L 429.286432 103.599062 
L 429.286432 102.812813 
L 432.090452 102.812813 
L 432.090452 99.766823 
L 434.894472 99.766823 
L 434.894472 100.207826 
L 437.698492 100.207826 
L 437.698492 99.450835 
L 440.502513 99.450835 
L 440.502513 94.748005 
L 443.306533 94.748005 
L 443.306533 94.923963 
L 446.110553 94.923963 
L 446.110553 95.078459 
L 448.914573 95.078459 
L 448.914573 94.267438 
L 451.718593 94.267438 
L 451.718593 91.256383 
L 454.522613 91.256383 
L 454.522613 92.413025 
L 457.326633 92.413025 
L 457.326633 90.849993 
L 460.130653 90.849993 
L 460.130653 88.616687 
L 462.934673 88.616687 
L 462.934673 91.955283 
L 465.738693 91.955283 
L 465.738693 88.829556 
L 468.542714 88.829556 
L 468.542714 97.087638 
L 471.346734 97.087638 
L 471.346734 95.925991 
L 474.150754 95.925991 
L 474.150754 100.92701 
L 476.954774 100.92701 
L 476.954774 106.177861 
L 479.758794 106.177861 
L 479.758794 109.94883 
L 482.562814 109.94883 
L 482.562814 118.703087 
L 485.366834 118.703087 
L 485.366834 133.651765 
L 488.170854 133.651765 
L 488.170854 162.528963 
L 490.974874 162.528963 
L 490.974874 217.600214 
L 493.778894 217.600214 
L 493.778894 285.554296 
L 496.582915 285.554296 
L 496.582915 409.240754 
L 499.386935 409.240754 
L 499.386935 541 
L 499.386935 541 
" style="fill:none;stroke:#ff7f0e;stroke-linecap:square;stroke-width:1.5;"/>
   </g>
   <g id="line2d_42">
    <path clip-path="url(#p7b9e80c096)" d="M 305.045045 480.6 
L 305.045045 64.8 
" style="fill:none;stroke:#1f77b4;stroke-linecap:square;stroke-width:1.5;"/>
   </g>
   <g id="patch_5">
    <path d="M 90 480.6 
L 90 64.8 
" style="fill:none;stroke:#000000;stroke-linecap:square;stroke-linejoin:miter;stroke-width:0.8;"/>
   </g>
   <g id="patch_6">
    <path d="M 648 480.6 
L 648 64.8 
" style="fill:none;stroke:#000000;stroke-linecap:square;stroke-linejoin:miter;stroke-width:0.8;"/>
   </g>
   <g id="patch_7">
    <path d="M 90 480.6 
L 648 480.6 
" style="fill:none;stroke:#000000;stroke-linecap:square;stroke-linejoin:miter;stroke-width:0.8;"/>
   </g>
   <g id="patch_8">
    <path d="M 90 64.8 
L 648 64.8 
" style="fill:none;stroke:#000000;stroke-linecap:square;stroke-linejoin:miter;stroke-width:0.8;"/>
   </g>
   <g id="text_13">
    <g id="patch_9">
     <path d="M 367.817143 109.584125 
L 317.045045 109.584125 
L 317.045045 78.227875 
L 367.817143 78.227875 
L 367.817143 70.388813 
L 391.334331 93.906 
L 367.817143 117.423188 
L 367.817143 109.584125 
z
" style="fill:#ff7f0e;opacity:0.5;stroke:#ff7f0e;stroke-linejoin:miter;"/>
    </g>
    <!-- track -->
    <defs>
     <path d="M 48.78125 52.59375 
L 48.78125 44.1875 
Q 44.96875 46.296875 41.140625 47.34375 
Q 37.3125 48.390625 33.40625 48.390625 
Q 24.65625 48.390625 19.8125 42.84375 
Q 14.984375 37.3125 14.984375 27.296875 
Q 14.984375 17.28125 19.8125 11.734375 
Q 24.65625 6.203125 33.40625 6.203125 
Q 37.3125 6.203125 41.140625 7.25 
Q 44.96875 8.296875 48.78125 10.40625 
L 48.78125 2.09375 
Q 45.015625 0.34375 40.984375 -0.53125 
Q 36.96875 -1.421875 32.421875 -1.421875 
Q 20.0625 -1.421875 12.78125 6.34375 
Q 5.515625 14.109375 5.515625 27.296875 
Q 5.515625 40.671875 12.859375 48.328125 
Q 20.21875 56 33.015625 56 
Q 37.15625 56 41.109375 55.140625 
Q 45.0625 54.296875 48.78125 52.59375 
z
" id="DejaVuSans-99"/>
     <path d="M 9.078125 75.984375 
L 18.109375 75.984375 
L 18.109375 31.109375 
L 44.921875 54.6875 
L 56.390625 54.6875 
L 27.390625 29.109375 
L 57.625 0 
L 45.90625 0 
L 18.109375 26.703125 
L 18.109375 0 
L 9.078125 0 
z
" id="DejaVuSans-107"/>
    </defs>
    <g transform="translate(323.045045 99.42475)scale(0.2 -0.2)">
     <use xlink:href="#DejaVuSans-116"/>
     <use x="39.208984" xlink:href="#DejaVuSans-114"/>
     <use x="80.322266" xlink:href="#DejaVuSans-97"/>
     <use x="141.601562" xlink:href="#DejaVuSans-99"/>
     <use x="196.582031" xlink:href="#DejaVuSans-107"/>
    </g>
   </g>
   <g id="text_14">
    <g id="patch_10">
     <path d="M 220.954197 109.584125 
L 293.045045 109.584125 
L 293.045045 78.227875 
L 220.954197 78.227875 
L 220.954197 70.388813 
L 197.437009 93.906 
L 220.954197 117.423188 
L 220.954197 109.584125 
z
" style="fill:#1f77b4;opacity:0.5;stroke:#1f77b4;stroke-linejoin:miter;"/>
    </g>
    <!-- shower -->
    <defs>
     <path d="M 44.28125 53.078125 
L 44.28125 44.578125 
Q 40.484375 46.53125 36.375 47.5 
Q 32.28125 48.484375 27.875 48.484375 
Q 21.1875 48.484375 17.84375 46.4375 
Q 14.5 44.390625 14.5 40.28125 
Q 14.5 37.15625 16.890625 35.375 
Q 19.28125 33.59375 26.515625 31.984375 
L 29.59375 31.296875 
Q 39.15625 29.25 43.1875 25.515625 
Q 47.21875 21.78125 47.21875 15.09375 
Q 47.21875 7.46875 41.1875 3.015625 
Q 35.15625 -1.421875 24.609375 -1.421875 
Q 20.21875 -1.421875 15.453125 -0.5625 
Q 10.6875 0.296875 5.421875 2 
L 5.421875 11.28125 
Q 10.40625 8.6875 15.234375 7.390625 
Q 20.0625 6.109375 24.8125 6.109375 
Q 31.15625 6.109375 34.5625 8.28125 
Q 37.984375 10.453125 37.984375 14.40625 
Q 37.984375 18.0625 35.515625 20.015625 
Q 33.0625 21.96875 24.703125 23.78125 
L 21.578125 24.515625 
Q 13.234375 26.265625 9.515625 29.90625 
Q 5.8125 33.546875 5.8125 39.890625 
Q 5.8125 47.609375 11.28125 51.796875 
Q 16.75 56 26.8125 56 
Q 31.78125 56 36.171875 55.265625 
Q 40.578125 54.546875 44.28125 53.078125 
z
" id="DejaVuSans-115"/>
     <path d="M 54.890625 33.015625 
L 54.890625 0 
L 45.90625 0 
L 45.90625 32.71875 
Q 45.90625 40.484375 42.875 44.328125 
Q 39.84375 48.1875 33.796875 48.1875 
Q 26.515625 48.1875 22.3125 43.546875 
Q 18.109375 38.921875 18.109375 30.90625 
L 18.109375 0 
L 9.078125 0 
L 9.078125 75.984375 
L 18.109375 75.984375 
L 18.109375 46.1875 
Q 21.34375 51.125 25.703125 53.5625 
Q 30.078125 56 35.796875 56 
Q 45.21875 56 50.046875 50.171875 
Q 54.890625 44.34375 54.890625 33.015625 
z
" id="DejaVuSans-104"/>
     <path d="M 4.203125 54.6875 
L 13.1875 54.6875 
L 24.421875 12.015625 
L 35.59375 54.6875 
L 46.1875 54.6875 
L 57.421875 12.015625 
L 68.609375 54.6875 
L 77.59375 54.6875 
L 63.28125 0 
L 52.6875 0 
L 40.921875 44.828125 
L 29.109375 0 
L 18.5 0 
z
" id="DejaVuSans-119"/>
     <path d="M 56.203125 29.59375 
L 56.203125 25.203125 
L 14.890625 25.203125 
Q 15.484375 15.921875 20.484375 11.0625 
Q 25.484375 6.203125 34.421875 6.203125 
Q 39.59375 6.203125 44.453125 7.46875 
Q 49.3125 8.734375 54.109375 11.28125 
L 54.109375 2.78125 
Q 49.265625 0.734375 44.1875 -0.34375 
Q 39.109375 -1.421875 33.890625 -1.421875 
Q 20.796875 -1.421875 13.15625 6.1875 
Q 5.515625 13.8125 5.515625 26.8125 
Q 5.515625 40.234375 12.765625 48.109375 
Q 20.015625 56 32.328125 56 
Q 43.359375 56 49.78125 48.890625 
Q 56.203125 41.796875 56.203125 29.59375 
z
M 47.21875 32.234375 
Q 47.125 39.59375 43.09375 43.984375 
Q 39.0625 48.390625 32.421875 48.390625 
Q 24.90625 48.390625 20.390625 44.140625 
Q 15.875 39.890625 15.1875 32.171875 
z
" id="DejaVuSans-101"/>
    </defs>
    <g transform="translate(214.82942 99.42475)scale(0.2 -0.2)">
     <use xlink:href="#DejaVuSans-115"/>
     <use x="52.099609" xlink:href="#DejaVuSans-104"/>
     <use x="115.478516" xlink:href="#DejaVuSans-111"/>
     <use x="176.660156" xlink:href="#DejaVuSans-119"/>
     <use x="258.447266" xlink:href="#DejaVuSans-101"/>
     <use x="319.970703" xlink:href="#DejaVuSans-114"/>
    </g>
   </g>
   <g id="legend_1">
    <g id="patch_11">
     <path d="M 501.37875 132.04125 
L 635.4 132.04125 
Q 639 132.04125 639 128.44125 
L 639 77.4 
Q 639 73.8 635.4 73.8 
L 501.37875 73.8 
Q 497.77875 73.8 497.77875 77.4 
L 497.77875 128.44125 
Q 497.77875 132.04125 501.37875 132.04125 
z
" style="fill:#ffffff;opacity:0.5;stroke:#cccccc;stroke-linejoin:miter;"/>
    </g>
    <g id="line2d_43">
     <path d="M 504.97875 88.377188 
L 540.97875 88.377188 
" style="fill:none;stroke:#1f77b4;stroke-linecap:square;stroke-width:1.5;"/>
    </g>
    <g id="line2d_44"/>
    <g id="text_15">
     <!-- Showers -->
     <defs>
      <path d="M 53.515625 70.515625 
L 53.515625 60.890625 
Q 47.90625 63.578125 42.921875 64.890625 
Q 37.9375 66.21875 33.296875 66.21875 
Q 25.25 66.21875 20.875 63.09375 
Q 16.5 59.96875 16.5 54.203125 
Q 16.5 49.359375 19.40625 46.890625 
Q 22.3125 44.4375 30.421875 42.921875 
L 36.375 41.703125 
Q 47.40625 39.59375 52.65625 34.296875 
Q 57.90625 29 57.90625 20.125 
Q 57.90625 9.515625 50.796875 4.046875 
Q 43.703125 -1.421875 29.984375 -1.421875 
Q 24.8125 -1.421875 18.96875 -0.25 
Q 13.140625 0.921875 6.890625 3.21875 
L 6.890625 13.375 
Q 12.890625 10.015625 18.65625 8.296875 
Q 24.421875 6.59375 29.984375 6.59375 
Q 38.421875 6.59375 43.015625 9.90625 
Q 47.609375 13.234375 47.609375 19.390625 
Q 47.609375 24.75 44.3125 27.78125 
Q 41.015625 30.8125 33.5 32.328125 
L 27.484375 33.5 
Q 16.453125 35.6875 11.515625 40.375 
Q 6.59375 45.0625 6.59375 53.421875 
Q 6.59375 63.09375 13.40625 68.65625 
Q 20.21875 74.21875 32.171875 74.21875 
Q 37.3125 74.21875 42.625 73.28125 
Q 47.953125 72.359375 53.515625 70.515625 
z
" id="DejaVuSans-83"/>
     </defs>
     <g transform="translate(555.37875 94.677188)scale(0.18 -0.18)">
      <use xlink:href="#DejaVuSans-83"/>
      <use x="63.476562" xlink:href="#DejaVuSans-104"/>
      <use x="126.855469" xlink:href="#DejaVuSans-111"/>
      <use x="188.037109" xlink:href="#DejaVuSans-119"/>
      <use x="269.824219" xlink:href="#DejaVuSans-101"/>
      <use x="331.347656" xlink:href="#DejaVuSans-114"/>
      <use x="372.460938" xlink:href="#DejaVuSans-115"/>
     </g>
    </g>
    <g id="line2d_45">
     <path d="M 504.97875 114.797812 
L 540.97875 114.797812 
" style="fill:none;stroke:#ff7f0e;stroke-linecap:square;stroke-width:1.5;"/>
    </g>
    <g id="line2d_46"/>
    <g id="text_16">
     <!-- Tracks -->
     <g transform="translate(555.37875 121.097812)scale(0.18 -0.18)">
      <use xlink:href="#DejaVuSans-84"/>
      <use x="60.865234" xlink:href="#DejaVuSans-114"/>
      <use x="101.978516" xlink:href="#DejaVuSans-97"/>
      <use x="163.257812" xlink:href="#DejaVuSans-99"/>
      <use x="218.238281" xlink:href="#DejaVuSans-107"/>
      <use x="276.148438" xlink:href="#DejaVuSans-115"/>
     </g>
    </g>
   </g>
  </g>
 </g>
 <defs>
  <clipPath id="p7b9e80c096">
   <rect height="415.8" width="558" x="90" y="64.8"/>
  </clipPath>
 </defs>
</svg>
