<?xml version="1.0" encoding="utf-8" standalone="no"?>
<!DOCTYPE svg PUBLIC "-//W3C//DTD SVG 1.1//EN"
  "http://www.w3.org/Graphics/SVG/1.1/DTD/svg11.dtd">
<!-- Created with matplotlib (https://matplotlib.org/) -->
<svg height="1080pt" version="1.1" viewBox="0 0 720 1080" width="720pt" xmlns="http://www.w3.org/2000/svg" xmlns:xlink="http://www.w3.org/1999/xlink">
 <defs>
  <style type="text/css">
*{stroke-linecap:butt;stroke-linejoin:round;}
  </style>
 </defs>
 <g id="figure_1">
  <g id="patch_1">
   <path d="M 0 1080 
L 720 1080 
L 720 0 
L 0 0 
z
" style="fill:#ffffff;"/>
  </g>
  <g id="axes_1">
   <g id="patch_2">
    <path d="M 90 507.6 
L 648 507.6 
L 648 129.6 
L 90 129.6 
z
" style="fill:#ffffff;"/>
   </g>
   <g id="matplotlib.axis_1">
    <g id="xtick_1">
     <g id="line2d_1">
      <defs>
       <path d="M 0 0 
L 0 3.5 
" id="mc0be59bfcf" style="stroke:#000000;stroke-width:0.8;"/>
      </defs>
      <g>
       <use style="stroke:#000000;stroke-width:0.8;" x="90" xlink:href="#mc0be59bfcf" y="507.6"/>
      </g>
     </g>
    </g>
    <g id="xtick_2">
     <g id="line2d_2">
      <g>
       <use style="stroke:#000000;stroke-width:0.8;" x="201.6" xlink:href="#mc0be59bfcf" y="507.6"/>
      </g>
     </g>
    </g>
    <g id="xtick_3">
     <g id="line2d_3">
      <g>
       <use style="stroke:#000000;stroke-width:0.8;" x="313.2" xlink:href="#mc0be59bfcf" y="507.6"/>
      </g>
     </g>
    </g>
    <g id="xtick_4">
     <g id="line2d_4">
      <g>
       <use style="stroke:#000000;stroke-width:0.8;" x="424.8" xlink:href="#mc0be59bfcf" y="507.6"/>
      </g>
     </g>
    </g>
    <g id="xtick_5">
     <g id="line2d_5">
      <g>
       <use style="stroke:#000000;stroke-width:0.8;" x="536.4" xlink:href="#mc0be59bfcf" y="507.6"/>
      </g>
     </g>
    </g>
    <g id="xtick_6">
     <g id="line2d_6">
      <g>
       <use style="stroke:#000000;stroke-width:0.8;" x="648" xlink:href="#mc0be59bfcf" y="507.6"/>
      </g>
     </g>
    </g>
    <g id="text_1">
     <!-- mcpMomentum -->
     <defs>
      <path d="M 52 44.1875 
Q 55.375 50.25 60.0625 53.125 
Q 64.75 56 71.09375 56 
Q 79.640625 56 84.28125 50.015625 
Q 88.921875 44.046875 88.921875 33.015625 
L 88.921875 0 
L 79.890625 0 
L 79.890625 32.71875 
Q 79.890625 40.578125 77.09375 44.375 
Q 74.3125 48.1875 68.609375 48.1875 
Q 61.625 48.1875 57.5625 43.546875 
Q 53.515625 38.921875 53.515625 30.90625 
L 53.515625 0 
L 44.484375 0 
L 44.484375 32.71875 
Q 44.484375 40.625 41.703125 44.40625 
Q 38.921875 48.1875 33.109375 48.1875 
Q 26.21875 48.1875 22.15625 43.53125 
Q 18.109375 38.875 18.109375 30.90625 
L 18.109375 0 
L 9.078125 0 
L 9.078125 54.6875 
L 18.109375 54.6875 
L 18.109375 46.1875 
Q 21.1875 51.21875 25.484375 53.609375 
Q 29.78125 56 35.6875 56 
Q 41.65625 56 45.828125 52.96875 
Q 50 49.953125 52 44.1875 
z
" id="DejaVuSans-109"/>
      <path d="M 48.78125 52.59375 
L 48.78125 44.1875 
Q 44.96875 46.296875 41.140625 47.34375 
Q 37.3125 48.390625 33.40625 48.390625 
Q 24.65625 48.390625 19.8125 42.84375 
Q 14.984375 37.3125 14.984375 27.296875 
Q 14.984375 17.28125 19.8125 11.734375 
Q 24.65625 6.203125 33.40625 6.203125 
Q 37.3125 6.203125 41.140625 7.25 
Q 44.96875 8.296875 48.78125 10.40625 
L 48.78125 2.09375 
Q 45.015625 0.34375 40.984375 -0.53125 
Q 36.96875 -1.421875 32.421875 -1.421875 
Q 20.0625 -1.421875 12.78125 6.34375 
Q 5.515625 14.109375 5.515625 27.296875 
Q 5.515625 40.671875 12.859375 48.328125 
Q 20.21875 56 33.015625 56 
Q 37.15625 56 41.109375 55.140625 
Q 45.0625 54.296875 48.78125 52.59375 
z
" id="DejaVuSans-99"/>
      <path d="M 18.109375 8.203125 
L 18.109375 -20.796875 
L 9.078125 -20.796875 
L 9.078125 54.6875 
L 18.109375 54.6875 
L 18.109375 46.390625 
Q 20.953125 51.265625 25.265625 53.625 
Q 29.59375 56 35.59375 56 
Q 45.5625 56 51.78125 48.09375 
Q 58.015625 40.1875 58.015625 27.296875 
Q 58.015625 14.40625 51.78125 6.484375 
Q 45.5625 -1.421875 35.59375 -1.421875 
Q 29.59375 -1.421875 25.265625 0.953125 
Q 20.953125 3.328125 18.109375 8.203125 
z
M 48.6875 27.296875 
Q 48.6875 37.203125 44.609375 42.84375 
Q 40.53125 48.484375 33.40625 48.484375 
Q 26.265625 48.484375 22.1875 42.84375 
Q 18.109375 37.203125 18.109375 27.296875 
Q 18.109375 17.390625 22.1875 11.75 
Q 26.265625 6.109375 33.40625 6.109375 
Q 40.53125 6.109375 44.609375 11.75 
Q 48.6875 17.390625 48.6875 27.296875 
z
" id="DejaVuSans-112"/>
      <path d="M 9.8125 72.90625 
L 24.515625 72.90625 
L 43.109375 23.296875 
L 61.8125 72.90625 
L 76.515625 72.90625 
L 76.515625 0 
L 66.890625 0 
L 66.890625 64.015625 
L 48.09375 14.015625 
L 38.1875 14.015625 
L 19.390625 64.015625 
L 19.390625 0 
L 9.8125 0 
z
" id="DejaVuSans-77"/>
      <path d="M 30.609375 48.390625 
Q 23.390625 48.390625 19.1875 42.75 
Q 14.984375 37.109375 14.984375 27.296875 
Q 14.984375 17.484375 19.15625 11.84375 
Q 23.34375 6.203125 30.609375 6.203125 
Q 37.796875 6.203125 41.984375 11.859375 
Q 46.1875 17.53125 46.1875 27.296875 
Q 46.1875 37.015625 41.984375 42.703125 
Q 37.796875 48.390625 30.609375 48.390625 
z
M 30.609375 56 
Q 42.328125 56 49.015625 48.375 
Q 55.71875 40.765625 55.71875 27.296875 
Q 55.71875 13.875 49.015625 6.21875 
Q 42.328125 -1.421875 30.609375 -1.421875 
Q 18.84375 -1.421875 12.171875 6.21875 
Q 5.515625 13.875 5.515625 27.296875 
Q 5.515625 40.765625 12.171875 48.375 
Q 18.84375 56 30.609375 56 
z
" id="DejaVuSans-111"/>
      <path d="M 56.203125 29.59375 
L 56.203125 25.203125 
L 14.890625 25.203125 
Q 15.484375 15.921875 20.484375 11.0625 
Q 25.484375 6.203125 34.421875 6.203125 
Q 39.59375 6.203125 44.453125 7.46875 
Q 49.3125 8.734375 54.109375 11.28125 
L 54.109375 2.78125 
Q 49.265625 0.734375 44.1875 -0.34375 
Q 39.109375 -1.421875 33.890625 -1.421875 
Q 20.796875 -1.421875 13.15625 6.1875 
Q 5.515625 13.8125 5.515625 26.8125 
Q 5.515625 40.234375 12.765625 48.109375 
Q 20.015625 56 32.328125 56 
Q 43.359375 56 49.78125 48.890625 
Q 56.203125 41.796875 56.203125 29.59375 
z
M 47.21875 32.234375 
Q 47.125 39.59375 43.09375 43.984375 
Q 39.0625 48.390625 32.421875 48.390625 
Q 24.90625 48.390625 20.390625 44.140625 
Q 15.875 39.890625 15.1875 32.171875 
z
" id="DejaVuSans-101"/>
      <path d="M 54.890625 33.015625 
L 54.890625 0 
L 45.90625 0 
L 45.90625 32.71875 
Q 45.90625 40.484375 42.875 44.328125 
Q 39.84375 48.1875 33.796875 48.1875 
Q 26.515625 48.1875 22.3125 43.546875 
Q 18.109375 38.921875 18.109375 30.90625 
L 18.109375 0 
L 9.078125 0 
L 9.078125 54.6875 
L 18.109375 54.6875 
L 18.109375 46.1875 
Q 21.34375 51.125 25.703125 53.5625 
Q 30.078125 56 35.796875 56 
Q 45.21875 56 50.046875 50.171875 
Q 54.890625 44.34375 54.890625 33.015625 
z
" id="DejaVuSans-110"/>
      <path d="M 18.3125 70.21875 
L 18.3125 54.6875 
L 36.8125 54.6875 
L 36.8125 47.703125 
L 18.3125 47.703125 
L 18.3125 18.015625 
Q 18.3125 11.328125 20.140625 9.421875 
Q 21.96875 7.515625 27.59375 7.515625 
L 36.8125 7.515625 
L 36.8125 0 
L 27.59375 0 
Q 17.1875 0 13.234375 3.875 
Q 9.28125 7.765625 9.28125 18.015625 
L 9.28125 47.703125 
L 2.6875 47.703125 
L 2.6875 54.6875 
L 9.28125 54.6875 
L 9.28125 70.21875 
z
" id="DejaVuSans-116"/>
      <path d="M 8.5 21.578125 
L 8.5 54.6875 
L 17.484375 54.6875 
L 17.484375 21.921875 
Q 17.484375 14.15625 20.5 10.265625 
Q 23.53125 6.390625 29.59375 6.390625 
Q 36.859375 6.390625 41.078125 11.03125 
Q 45.3125 15.671875 45.3125 23.6875 
L 45.3125 54.6875 
L 54.296875 54.6875 
L 54.296875 0 
L 45.3125 0 
L 45.3125 8.40625 
Q 42.046875 3.421875 37.71875 1 
Q 33.40625 -1.421875 27.6875 -1.421875 
Q 18.265625 -1.421875 13.375 4.4375 
Q 8.5 10.296875 8.5 21.578125 
z
M 31.109375 56 
z
" id="DejaVuSans-117"/>
     </defs>
     <g transform="translate(267.180975 531.29515)scale(0.2592 -0.2592)">
      <use xlink:href="#DejaVuSans-109"/>
      <use x="97.412109" xlink:href="#DejaVuSans-99"/>
      <use x="152.392578" xlink:href="#DejaVuSans-112"/>
      <use x="215.869141" xlink:href="#DejaVuSans-77"/>
      <use x="302.148438" xlink:href="#DejaVuSans-111"/>
      <use x="363.330078" xlink:href="#DejaVuSans-109"/>
      <use x="460.742188" xlink:href="#DejaVuSans-101"/>
      <use x="522.265625" xlink:href="#DejaVuSans-110"/>
      <use x="585.644531" xlink:href="#DejaVuSans-116"/>
      <use x="624.853516" xlink:href="#DejaVuSans-117"/>
      <use x="688.232422" xlink:href="#DejaVuSans-109"/>
     </g>
    </g>
   </g>
   <g id="matplotlib.axis_2">
    <g id="ytick_1">
     <g id="line2d_7">
      <defs>
       <path d="M 0 0 
L -3.5 0 
" id="m7166045012" style="stroke:#000000;stroke-width:0.8;"/>
      </defs>
      <g>
       <use style="stroke:#000000;stroke-width:0.8;" x="90" xlink:href="#m7166045012" y="507.6"/>
      </g>
     </g>
     <g id="text_2">
      <!-- 0.0 -->
      <defs>
       <path d="M 31.78125 66.40625 
Q 24.171875 66.40625 20.328125 58.90625 
Q 16.5 51.421875 16.5 36.375 
Q 16.5 21.390625 20.328125 13.890625 
Q 24.171875 6.390625 31.78125 6.390625 
Q 39.453125 6.390625 43.28125 13.890625 
Q 47.125 21.390625 47.125 36.375 
Q 47.125 51.421875 43.28125 58.90625 
Q 39.453125 66.40625 31.78125 66.40625 
z
M 31.78125 74.21875 
Q 44.046875 74.21875 50.515625 64.515625 
Q 56.984375 54.828125 56.984375 36.375 
Q 56.984375 17.96875 50.515625 8.265625 
Q 44.046875 -1.421875 31.78125 -1.421875 
Q 19.53125 -1.421875 13.0625 8.265625 
Q 6.59375 17.96875 6.59375 36.375 
Q 6.59375 54.828125 13.0625 64.515625 
Q 19.53125 74.21875 31.78125 74.21875 
z
" id="DejaVuSans-48"/>
       <path d="M 10.6875 12.40625 
L 21 12.40625 
L 21 0 
L 10.6875 0 
z
" id="DejaVuSans-46"/>
      </defs>
      <g transform="translate(41.7791 517.447575)scale(0.2592 -0.2592)">
       <use xlink:href="#DejaVuSans-48"/>
       <use x="63.623047" xlink:href="#DejaVuSans-46"/>
       <use x="95.410156" xlink:href="#DejaVuSans-48"/>
      </g>
     </g>
    </g>
    <g id="ytick_2">
     <g id="line2d_8">
      <g>
       <use style="stroke:#000000;stroke-width:0.8;" x="90" xlink:href="#m7166045012" y="432.748515"/>
      </g>
     </g>
     <g id="text_3">
      <!-- 0.2 -->
      <defs>
       <path d="M 19.1875 8.296875 
L 53.609375 8.296875 
L 53.609375 0 
L 7.328125 0 
L 7.328125 8.296875 
Q 12.9375 14.109375 22.625 23.890625 
Q 32.328125 33.6875 34.8125 36.53125 
Q 39.546875 41.84375 41.421875 45.53125 
Q 43.3125 49.21875 43.3125 52.78125 
Q 43.3125 58.59375 39.234375 62.25 
Q 35.15625 65.921875 28.609375 65.921875 
Q 23.96875 65.921875 18.8125 64.3125 
Q 13.671875 62.703125 7.8125 59.421875 
L 7.8125 69.390625 
Q 13.765625 71.78125 18.9375 73 
Q 24.125 74.21875 28.421875 74.21875 
Q 39.75 74.21875 46.484375 68.546875 
Q 53.21875 62.890625 53.21875 53.421875 
Q 53.21875 48.921875 51.53125 44.890625 
Q 49.859375 40.875 45.40625 35.40625 
Q 44.1875 33.984375 37.640625 27.21875 
Q 31.109375 20.453125 19.1875 8.296875 
z
" id="DejaVuSans-50"/>
      </defs>
      <g transform="translate(41.7791 442.59609)scale(0.2592 -0.2592)">
       <use xlink:href="#DejaVuSans-48"/>
       <use x="63.623047" xlink:href="#DejaVuSans-46"/>
       <use x="95.410156" xlink:href="#DejaVuSans-50"/>
      </g>
     </g>
    </g>
    <g id="ytick_3">
     <g id="line2d_9">
      <g>
       <use style="stroke:#000000;stroke-width:0.8;" x="90" xlink:href="#m7166045012" y="357.89703"/>
      </g>
     </g>
     <g id="text_4">
      <!-- 0.4 -->
      <defs>
       <path d="M 37.796875 64.3125 
L 12.890625 25.390625 
L 37.796875 25.390625 
z
M 35.203125 72.90625 
L 47.609375 72.90625 
L 47.609375 25.390625 
L 58.015625 25.390625 
L 58.015625 17.1875 
L 47.609375 17.1875 
L 47.609375 0 
L 37.796875 0 
L 37.796875 17.1875 
L 4.890625 17.1875 
L 4.890625 26.703125 
z
" id="DejaVuSans-52"/>
      </defs>
      <g transform="translate(41.7791 367.744605)scale(0.2592 -0.2592)">
       <use xlink:href="#DejaVuSans-48"/>
       <use x="63.623047" xlink:href="#DejaVuSans-46"/>
       <use x="95.410156" xlink:href="#DejaVuSans-52"/>
      </g>
     </g>
    </g>
    <g id="ytick_4">
     <g id="line2d_10">
      <g>
       <use style="stroke:#000000;stroke-width:0.8;" x="90" xlink:href="#m7166045012" y="283.045545"/>
      </g>
     </g>
     <g id="text_5">
      <!-- 0.6 -->
      <defs>
       <path d="M 33.015625 40.375 
Q 26.375 40.375 22.484375 35.828125 
Q 18.609375 31.296875 18.609375 23.390625 
Q 18.609375 15.53125 22.484375 10.953125 
Q 26.375 6.390625 33.015625 6.390625 
Q 39.65625 6.390625 43.53125 10.953125 
Q 47.40625 15.53125 47.40625 23.390625 
Q 47.40625 31.296875 43.53125 35.828125 
Q 39.65625 40.375 33.015625 40.375 
z
M 52.59375 71.296875 
L 52.59375 62.3125 
Q 48.875 64.0625 45.09375 64.984375 
Q 41.3125 65.921875 37.59375 65.921875 
Q 27.828125 65.921875 22.671875 59.328125 
Q 17.53125 52.734375 16.796875 39.40625 
Q 19.671875 43.65625 24.015625 45.921875 
Q 28.375 48.1875 33.59375 48.1875 
Q 44.578125 48.1875 50.953125 41.515625 
Q 57.328125 34.859375 57.328125 23.390625 
Q 57.328125 12.15625 50.6875 5.359375 
Q 44.046875 -1.421875 33.015625 -1.421875 
Q 20.359375 -1.421875 13.671875 8.265625 
Q 6.984375 17.96875 6.984375 36.375 
Q 6.984375 53.65625 15.1875 63.9375 
Q 23.390625 74.21875 37.203125 74.21875 
Q 40.921875 74.21875 44.703125 73.484375 
Q 48.484375 72.75 52.59375 71.296875 
z
" id="DejaVuSans-54"/>
      </defs>
      <g transform="translate(41.7791 292.89312)scale(0.2592 -0.2592)">
       <use xlink:href="#DejaVuSans-48"/>
       <use x="63.623047" xlink:href="#DejaVuSans-46"/>
       <use x="95.410156" xlink:href="#DejaVuSans-54"/>
      </g>
     </g>
    </g>
    <g id="ytick_5">
     <g id="line2d_11">
      <g>
       <use style="stroke:#000000;stroke-width:0.8;" x="90" xlink:href="#m7166045012" y="208.194059"/>
      </g>
     </g>
     <g id="text_6">
      <!-- 0.8 -->
      <defs>
       <path d="M 31.78125 34.625 
Q 24.75 34.625 20.71875 30.859375 
Q 16.703125 27.09375 16.703125 20.515625 
Q 16.703125 13.921875 20.71875 10.15625 
Q 24.75 6.390625 31.78125 6.390625 
Q 38.8125 6.390625 42.859375 10.171875 
Q 46.921875 13.96875 46.921875 20.515625 
Q 46.921875 27.09375 42.890625 30.859375 
Q 38.875 34.625 31.78125 34.625 
z
M 21.921875 38.8125 
Q 15.578125 40.375 12.03125 44.71875 
Q 8.5 49.078125 8.5 55.328125 
Q 8.5 64.0625 14.71875 69.140625 
Q 20.953125 74.21875 31.78125 74.21875 
Q 42.671875 74.21875 48.875 69.140625 
Q 55.078125 64.0625 55.078125 55.328125 
Q 55.078125 49.078125 51.53125 44.71875 
Q 48 40.375 41.703125 38.8125 
Q 48.828125 37.15625 52.796875 32.3125 
Q 56.78125 27.484375 56.78125 20.515625 
Q 56.78125 9.90625 50.3125 4.234375 
Q 43.84375 -1.421875 31.78125 -1.421875 
Q 19.734375 -1.421875 13.25 4.234375 
Q 6.78125 9.90625 6.78125 20.515625 
Q 6.78125 27.484375 10.78125 32.3125 
Q 14.796875 37.15625 21.921875 38.8125 
z
M 18.3125 54.390625 
Q 18.3125 48.734375 21.84375 45.5625 
Q 25.390625 42.390625 31.78125 42.390625 
Q 38.140625 42.390625 41.71875 45.5625 
Q 45.3125 48.734375 45.3125 54.390625 
Q 45.3125 60.0625 41.71875 63.234375 
Q 38.140625 66.40625 31.78125 66.40625 
Q 25.390625 66.40625 21.84375 63.234375 
Q 18.3125 60.0625 18.3125 54.390625 
z
" id="DejaVuSans-56"/>
      </defs>
      <g transform="translate(41.7791 218.041634)scale(0.2592 -0.2592)">
       <use xlink:href="#DejaVuSans-48"/>
       <use x="63.623047" xlink:href="#DejaVuSans-46"/>
       <use x="95.410156" xlink:href="#DejaVuSans-56"/>
      </g>
     </g>
    </g>
    <g id="ytick_6">
     <g id="line2d_12">
      <g>
       <use style="stroke:#000000;stroke-width:0.8;" x="90" xlink:href="#m7166045012" y="133.342574"/>
      </g>
     </g>
     <g id="text_7">
      <!-- 1.0 -->
      <defs>
       <path d="M 12.40625 8.296875 
L 28.515625 8.296875 
L 28.515625 63.921875 
L 10.984375 60.40625 
L 10.984375 69.390625 
L 28.421875 72.90625 
L 38.28125 72.90625 
L 38.28125 8.296875 
L 54.390625 8.296875 
L 54.390625 0 
L 12.40625 0 
z
" id="DejaVuSans-49"/>
      </defs>
      <g transform="translate(41.7791 143.190149)scale(0.2592 -0.2592)">
       <use xlink:href="#DejaVuSans-49"/>
       <use x="63.623047" xlink:href="#DejaVuSans-46"/>
       <use x="95.410156" xlink:href="#DejaVuSans-48"/>
      </g>
     </g>
    </g>
    <g id="text_8">
     <!-- Fraction -->
     <defs>
      <path d="M 9.8125 72.90625 
L 51.703125 72.90625 
L 51.703125 64.59375 
L 19.671875 64.59375 
L 19.671875 43.109375 
L 48.578125 43.109375 
L 48.578125 34.8125 
L 19.671875 34.8125 
L 19.671875 0 
L 9.8125 0 
z
" id="DejaVuSans-70"/>
      <path d="M 41.109375 46.296875 
Q 39.59375 47.171875 37.8125 47.578125 
Q 36.03125 48 33.890625 48 
Q 26.265625 48 22.1875 43.046875 
Q 18.109375 38.09375 18.109375 28.8125 
L 18.109375 0 
L 9.078125 0 
L 9.078125 54.6875 
L 18.109375 54.6875 
L 18.109375 46.1875 
Q 20.953125 51.171875 25.484375 53.578125 
Q 30.03125 56 36.53125 56 
Q 37.453125 56 38.578125 55.875 
Q 39.703125 55.765625 41.0625 55.515625 
z
" id="DejaVuSans-114"/>
      <path d="M 34.28125 27.484375 
Q 23.390625 27.484375 19.1875 25 
Q 14.984375 22.515625 14.984375 16.5 
Q 14.984375 11.71875 18.140625 8.90625 
Q 21.296875 6.109375 26.703125 6.109375 
Q 34.1875 6.109375 38.703125 11.40625 
Q 43.21875 16.703125 43.21875 25.484375 
L 43.21875 27.484375 
z
M 52.203125 31.203125 
L 52.203125 0 
L 43.21875 0 
L 43.21875 8.296875 
Q 40.140625 3.328125 35.546875 0.953125 
Q 30.953125 -1.421875 24.3125 -1.421875 
Q 15.921875 -1.421875 10.953125 3.296875 
Q 6 8.015625 6 15.921875 
Q 6 25.140625 12.171875 29.828125 
Q 18.359375 34.515625 30.609375 34.515625 
L 43.21875 34.515625 
L 43.21875 35.40625 
Q 43.21875 41.609375 39.140625 45 
Q 35.0625 48.390625 27.6875 48.390625 
Q 23 48.390625 18.546875 47.265625 
Q 14.109375 46.140625 10.015625 43.890625 
L 10.015625 52.203125 
Q 14.9375 54.109375 19.578125 55.046875 
Q 24.21875 56 28.609375 56 
Q 40.484375 56 46.34375 49.84375 
Q 52.203125 43.703125 52.203125 31.203125 
z
" id="DejaVuSans-97"/>
      <path d="M 9.421875 54.6875 
L 18.40625 54.6875 
L 18.40625 0 
L 9.421875 0 
z
M 9.421875 75.984375 
L 18.40625 75.984375 
L 18.40625 64.59375 
L 9.421875 64.59375 
z
" id="DejaVuSans-105"/>
     </defs>
     <g transform="translate(32.38855 371.260125)rotate(-90)scale(0.2592 -0.2592)">
      <use xlink:href="#DejaVuSans-70"/>
      <use x="57.410156" xlink:href="#DejaVuSans-114"/>
      <use x="98.523438" xlink:href="#DejaVuSans-97"/>
      <use x="159.802734" xlink:href="#DejaVuSans-99"/>
      <use x="214.783203" xlink:href="#DejaVuSans-116"/>
      <use x="253.992188" xlink:href="#DejaVuSans-105"/>
      <use x="281.775391" xlink:href="#DejaVuSans-111"/>
      <use x="342.957031" xlink:href="#DejaVuSans-110"/>
     </g>
    </g>
   </g>
   <g id="LineCollection_1">
    <path clip-path="url(#pd158511f2b)" d="M 154.384615 252.660266 
L 154.384615 138.777358 
" style="fill:none;stroke:#008000;stroke-width:1.5;"/>
    <path clip-path="url(#pd158511f2b)" d="M 168.692308 227.262592 
L 168.692308 173.085923 
" style="fill:none;stroke:#008000;stroke-width:1.5;"/>
    <path clip-path="url(#pd158511f2b)" d="M 183 159.556399 
L 183 140.64434 
" style="fill:none;stroke:#008000;stroke-width:1.5;"/>
    <path clip-path="url(#pd158511f2b)" d="M 197.307692 147.336555 
L 197.307692 137.170375 
" style="fill:none;stroke:#008000;stroke-width:1.5;"/>
    <path clip-path="url(#pd158511f2b)" d="M 211.615385 137.297725 
L 211.615385 133.34782 
" style="fill:none;stroke:#008000;stroke-width:1.5;"/>
    <path clip-path="url(#pd158511f2b)" d="M 225.923077 136.565451 
L 225.923077 133.346055 
" style="fill:none;stroke:#008000;stroke-width:1.5;"/>
    <path clip-path="url(#pd158511f2b)" d="M 240.230769 133.342574 
L 240.230769 133.342574 
" style="fill:none;stroke:#008000;stroke-width:1.5;"/>
    <path clip-path="url(#pd158511f2b)" d="M 254.538462 138.175097 
L 254.538462 134.180618 
" style="fill:none;stroke:#008000;stroke-width:1.5;"/>
    <path clip-path="url(#pd158511f2b)" d="M 268.846154 136.132932 
L 268.846154 133.345182 
" style="fill:none;stroke:#008000;stroke-width:1.5;"/>
    <path clip-path="url(#pd158511f2b)" d="M 283.153846 136.252247 
L 283.153846 133.34541 
" style="fill:none;stroke:#008000;stroke-width:1.5;"/>
    <path clip-path="url(#pd158511f2b)" d="M 297.461538 140.861103 
L 297.461538 135.379554 
" style="fill:none;stroke:#008000;stroke-width:1.5;"/>
    <path clip-path="url(#pd158511f2b)" d="M 311.769231 136.49753 
L 311.769231 133.345909 
" style="fill:none;stroke:#008000;stroke-width:1.5;"/>
    <path clip-path="url(#pd158511f2b)" d="M 326.076923 139.98336 
L 326.076923 134.498818 
" style="fill:none;stroke:#008000;stroke-width:1.5;"/>
    <path clip-path="url(#pd158511f2b)" d="M 340.384615 147.104865 
L 340.384615 138.67505 
" style="fill:none;stroke:#008000;stroke-width:1.5;"/>
    <path clip-path="url(#pd158511f2b)" d="M 354.692308 147.317915 
L 354.692308 138.75881 
" style="fill:none;stroke:#008000;stroke-width:1.5;"/>
    <path clip-path="url(#pd158511f2b)" d="M 369 147.537666 
L 369 138.845242 
" style="fill:none;stroke:#008000;stroke-width:1.5;"/>
    <path clip-path="url(#pd158511f2b)" d="M 383.307692 139.444279 
L 383.307692 134.403691 
" style="fill:none;stroke:#008000;stroke-width:1.5;"/>
    <path clip-path="url(#pd158511f2b)" d="M 397.615385 133.342574 
L 397.615385 133.342574 
" style="fill:none;stroke:#008000;stroke-width:1.5;"/>
    <path clip-path="url(#pd158511f2b)" d="M 411.923077 135.921433 
L 411.923077 133.344801 
" style="fill:none;stroke:#008000;stroke-width:1.5;"/>
    <path clip-path="url(#pd158511f2b)" d="M 426.230769 137.742459 
L 426.230769 134.104861 
" style="fill:none;stroke:#008000;stroke-width:1.5;"/>
    <path clip-path="url(#pd158511f2b)" d="M 440.538462 133.342574 
L 440.538462 133.342574 
" style="fill:none;stroke:#008000;stroke-width:1.5;"/>
    <path clip-path="url(#pd158511f2b)" d="M 454.846154 137.553944 
L 454.846154 134.071896 
" style="fill:none;stroke:#008000;stroke-width:1.5;"/>
    <path clip-path="url(#pd158511f2b)" d="M 469.153846 137.445758 
L 469.153846 134.052991 
" style="fill:none;stroke:#008000;stroke-width:1.5;"/>
    <path clip-path="url(#pd158511f2b)" d="M 483.461538 139.840443 
L 483.461538 135.100384 
" style="fill:none;stroke:#008000;stroke-width:1.5;"/>
    <path clip-path="url(#pd158511f2b)" d="M 497.769231 136.102071 
L 497.769231 133.345125 
" style="fill:none;stroke:#008000;stroke-width:1.5;"/>
    <path clip-path="url(#pd158511f2b)" d="M 512.076923 136.229801 
L 512.076923 133.345367 
" style="fill:none;stroke:#008000;stroke-width:1.5;"/>
    <path clip-path="url(#pd158511f2b)" d="M 526.384615 133.342574 
L 526.384615 133.342574 
" style="fill:none;stroke:#008000;stroke-width:1.5;"/>
    <path clip-path="url(#pd158511f2b)" d="M 540.692308 136.551634 
L 540.692308 133.346025 
" style="fill:none;stroke:#008000;stroke-width:1.5;"/>
    <path clip-path="url(#pd158511f2b)" d="M 555 137.19592 
L 555 133.347553 
" style="fill:none;stroke:#008000;stroke-width:1.5;"/>
    <path clip-path="url(#pd158511f2b)" d="M 569.307692 137.297725 
L 569.307692 133.34782 
" style="fill:none;stroke:#008000;stroke-width:1.5;"/>
    <path clip-path="url(#pd158511f2b)" d="M 583.615385 133.342574 
L 583.615385 133.342574 
" style="fill:none;stroke:#008000;stroke-width:1.5;"/>
    <path clip-path="url(#pd158511f2b)" d="M 597.923077 137.58945 
L 597.923077 133.348624 
" style="fill:none;stroke:#008000;stroke-width:1.5;"/>
    <path clip-path="url(#pd158511f2b)" d="M 612.230769 137.984504 
L 612.230769 133.349805 
" style="fill:none;stroke:#008000;stroke-width:1.5;"/>
    <path clip-path="url(#pd158511f2b)" d="M 626.538462 133.342574 
L 626.538462 133.342574 
" style="fill:none;stroke:#008000;stroke-width:1.5;"/>
    <path clip-path="url(#pd158511f2b)" d="M 640.846154 133.342574 
L 640.846154 133.342574 
" style="fill:none;stroke:#008000;stroke-width:1.5;"/>
   </g>
   <g id="LineCollection_2">
    <path clip-path="url(#pd158511f2b)" d="M 154.384615 257.471734 
L 154.384615 133.96589 
" style="fill:none;stroke:#ff0000;stroke-width:1.5;"/>
    <path clip-path="url(#pd158511f2b)" d="M 168.692308 183.126702 
L 168.692308 143.439634 
" style="fill:none;stroke:#ff0000;stroke-width:1.5;"/>
    <path clip-path="url(#pd158511f2b)" d="M 183 144.647516 
L 183 133.553246 
" style="fill:none;stroke:#ff0000;stroke-width:1.5;"/>
    <path clip-path="url(#pd158511f2b)" d="M 197.307692 133.342574 
L 197.307692 133.342574 
" style="fill:none;stroke:#ff0000;stroke-width:1.5;"/>
    <path clip-path="url(#pd158511f2b)" d="M 211.615385 137.12963 
L 211.615385 133.515915 
" style="fill:none;stroke:#ff0000;stroke-width:1.5;"/>
    <path clip-path="url(#pd158511f2b)" d="M 225.923077 138.515805 
L 225.923077 134.594364 
" style="fill:none;stroke:#ff0000;stroke-width:1.5;"/>
    <path clip-path="url(#pd158511f2b)" d="M 240.230769 133.342574 
L 240.230769 133.342574 
" style="fill:none;stroke:#ff0000;stroke-width:1.5;"/>
    <path clip-path="url(#pd158511f2b)" d="M 254.538462 133.342574 
L 254.538462 133.342574 
" style="fill:none;stroke:#ff0000;stroke-width:1.5;"/>
    <path clip-path="url(#pd158511f2b)" d="M 268.846154 133.342574 
L 268.846154 133.342574 
" style="fill:none;stroke:#ff0000;stroke-width:1.5;"/>
    <path clip-path="url(#pd158511f2b)" d="M 283.153846 133.342574 
L 283.153846 133.342574 
" style="fill:none;stroke:#ff0000;stroke-width:1.5;"/>
    <path clip-path="url(#pd158511f2b)" d="M 297.461538 136.339134 
L 297.461538 133.558525 
" style="fill:none;stroke:#ff0000;stroke-width:1.5;"/>
    <path clip-path="url(#pd158511f2b)" d="M 311.769231 136.210101 
L 311.769231 133.633338 
" style="fill:none;stroke:#ff0000;stroke-width:1.5;"/>
    <path clip-path="url(#pd158511f2b)" d="M 326.076923 133.342574 
L 326.076923 133.342574 
" style="fill:none;stroke:#ff0000;stroke-width:1.5;"/>
    <path clip-path="url(#pd158511f2b)" d="M 340.384615 136.88202 
L 340.384615 133.701643 
" style="fill:none;stroke:#ff0000;stroke-width:1.5;"/>
    <path clip-path="url(#pd158511f2b)" d="M 354.692308 136.938182 
L 354.692308 133.707362 
" style="fill:none;stroke:#ff0000;stroke-width:1.5;"/>
    <path clip-path="url(#pd158511f2b)" d="M 369 133.342574 
L 369 133.342574 
" style="fill:none;stroke:#ff0000;stroke-width:1.5;"/>
    <path clip-path="url(#pd158511f2b)" d="M 383.307692 133.342574 
L 383.307692 133.342574 
" style="fill:none;stroke:#ff0000;stroke-width:1.5;"/>
    <path clip-path="url(#pd158511f2b)" d="M 411.923077 133.342574 
L 411.923077 133.342574 
" style="fill:none;stroke:#ff0000;stroke-width:1.5;"/>
    <path clip-path="url(#pd158511f2b)" d="M 426.230769 133.342574 
L 426.230769 133.342574 
" style="fill:none;stroke:#ff0000;stroke-width:1.5;"/>
    <path clip-path="url(#pd158511f2b)" d="M 440.538462 135.583363 
L 440.538462 133.728154 
" style="fill:none;stroke:#ff0000;stroke-width:1.5;"/>
    <path clip-path="url(#pd158511f2b)" d="M 454.846154 133.342574 
L 454.846154 133.342574 
" style="fill:none;stroke:#ff0000;stroke-width:1.5;"/>
    <path clip-path="url(#pd158511f2b)" d="M 469.153846 133.342574 
L 469.153846 133.342574 
" style="fill:none;stroke:#ff0000;stroke-width:1.5;"/>
    <path clip-path="url(#pd158511f2b)" d="M 483.461538 133.342574 
L 483.461538 133.342574 
" style="fill:none;stroke:#ff0000;stroke-width:1.5;"/>
    <path clip-path="url(#pd158511f2b)" d="M 512.076923 133.342574 
L 512.076923 133.342574 
" style="fill:none;stroke:#ff0000;stroke-width:1.5;"/>
    <path clip-path="url(#pd158511f2b)" d="M 540.692308 136.259312 
L 540.692308 133.638346 
" style="fill:none;stroke:#ff0000;stroke-width:1.5;"/>
    <path clip-path="url(#pd158511f2b)" d="M 555 133.342574 
L 555 133.342574 
" style="fill:none;stroke:#ff0000;stroke-width:1.5;"/>
    <path clip-path="url(#pd158511f2b)" d="M 569.307692 133.342574 
L 569.307692 133.342574 
" style="fill:none;stroke:#ff0000;stroke-width:1.5;"/>
    <path clip-path="url(#pd158511f2b)" d="M 583.615385 137.225519 
L 583.615385 133.736857 
" style="fill:none;stroke:#ff0000;stroke-width:1.5;"/>
    <path clip-path="url(#pd158511f2b)" d="M 626.538462 133.342574 
L 626.538462 133.342574 
" style="fill:none;stroke:#ff0000;stroke-width:1.5;"/>
    <path clip-path="url(#pd158511f2b)" d="M 640.846154 137.996349 
L 640.846154 133.815614 
" style="fill:none;stroke:#ff0000;stroke-width:1.5;"/>
   </g>
   <g id="LineCollection_3">
    <path clip-path="url(#pd158511f2b)" d="M 154.384615 312.597653 
L 154.384615 182.800366 
" style="fill:none;stroke:#0000ff;stroke-width:1.5;"/>
    <path clip-path="url(#pd158511f2b)" d="M 168.692308 250.936141 
L 168.692308 198.600493 
" style="fill:none;stroke:#0000ff;stroke-width:1.5;"/>
    <path clip-path="url(#pd158511f2b)" d="M 183 165.952853 
L 183 145.247874 
" style="fill:none;stroke:#0000ff;stroke-width:1.5;"/>
    <path clip-path="url(#pd158511f2b)" d="M 197.307692 147.215529 
L 197.307692 137.291401 
" style="fill:none;stroke:#0000ff;stroke-width:1.5;"/>
    <path clip-path="url(#pd158511f2b)" d="M 211.615385 139.947454 
L 211.615385 134.637532 
" style="fill:none;stroke:#0000ff;stroke-width:1.5;"/>
    <path clip-path="url(#pd158511f2b)" d="M 225.923077 140.671613 
L 225.923077 135.637219 
" style="fill:none;stroke:#0000ff;stroke-width:1.5;"/>
    <path clip-path="url(#pd158511f2b)" d="M 240.230769 133.342574 
L 240.230769 133.342574 
" style="fill:none;stroke:#0000ff;stroke-width:1.5;"/>
    <path clip-path="url(#pd158511f2b)" d="M 254.538462 138.159967 
L 254.538462 134.195749 
" style="fill:none;stroke:#0000ff;stroke-width:1.5;"/>
    <path clip-path="url(#pd158511f2b)" d="M 268.846154 136.127731 
L 268.846154 133.350383 
" style="fill:none;stroke:#0000ff;stroke-width:1.5;"/>
    <path clip-path="url(#pd158511f2b)" d="M 283.153846 136.246592 
L 283.153846 133.351066 
" style="fill:none;stroke:#0000ff;stroke-width:1.5;"/>
    <path clip-path="url(#pd158511f2b)" d="M 297.461538 142.729731 
L 297.461538 136.682425 
" style="fill:none;stroke:#0000ff;stroke-width:1.5;"/>
    <path clip-path="url(#pd158511f2b)" d="M 311.769231 138.515954 
L 311.769231 134.47245 
" style="fill:none;stroke:#0000ff;stroke-width:1.5;"/>
    <path clip-path="url(#pd158511f2b)" d="M 326.076923 139.954795 
L 326.076923 134.527383 
" style="fill:none;stroke:#0000ff;stroke-width:1.5;"/>
    <path clip-path="url(#pd158511f2b)" d="M 340.384615 149.159461 
L 340.384615 140.419517 
" style="fill:none;stroke:#0000ff;stroke-width:1.5;"/>
    <path clip-path="url(#pd158511f2b)" d="M 354.692308 149.402416 
L 354.692308 140.532104 
" style="fill:none;stroke:#0000ff;stroke-width:1.5;"/>
    <path clip-path="url(#pd158511f2b)" d="M 369 147.423292 
L 369 138.959616 
" style="fill:none;stroke:#0000ff;stroke-width:1.5;"/>
    <path clip-path="url(#pd158511f2b)" d="M 383.307692 139.420161 
L 383.307692 134.427809 
" style="fill:none;stroke:#0000ff;stroke-width:1.5;"/>
    <path clip-path="url(#pd158511f2b)" d="M 411.923077 135.91699 
L 411.923077 133.349244 
" style="fill:none;stroke:#0000ff;stroke-width:1.5;"/>
    <path clip-path="url(#pd158511f2b)" d="M 426.230769 137.729915 
L 426.230769 134.117405 
" style="fill:none;stroke:#0000ff;stroke-width:1.5;"/>
    <path clip-path="url(#pd158511f2b)" d="M 440.538462 135.583363 
L 440.538462 133.728154 
" style="fill:none;stroke:#0000ff;stroke-width:1.5;"/>
    <path clip-path="url(#pd158511f2b)" d="M 454.846154 137.542452 
L 454.846154 134.083388 
" style="fill:none;stroke:#0000ff;stroke-width:1.5;"/>
    <path clip-path="url(#pd158511f2b)" d="M 469.153846 137.434849 
L 469.153846 134.0639 
" style="fill:none;stroke:#0000ff;stroke-width:1.5;"/>
    <path clip-path="url(#pd158511f2b)" d="M 483.461538 139.814303 
L 483.461538 135.126524 
" style="fill:none;stroke:#0000ff;stroke-width:1.5;"/>
    <path clip-path="url(#pd158511f2b)" d="M 512.076923 136.224232 
L 512.076923 133.350935 
" style="fill:none;stroke:#0000ff;stroke-width:1.5;"/>
    <path clip-path="url(#pd158511f2b)" d="M 540.692308 138.604357 
L 540.692308 134.492025 
" style="fill:none;stroke:#0000ff;stroke-width:1.5;"/>
    <path clip-path="url(#pd158511f2b)" d="M 555 137.186001 
L 555 133.357471 
" style="fill:none;stroke:#0000ff;stroke-width:1.5;"/>
    <path clip-path="url(#pd158511f2b)" d="M 569.307692 137.287275 
L 569.307692 133.358269 
" style="fill:none;stroke:#0000ff;stroke-width:1.5;"/>
    <path clip-path="url(#pd158511f2b)" d="M 583.615385 137.225519 
L 583.615385 133.736857 
" style="fill:none;stroke:#0000ff;stroke-width:1.5;"/>
    <path clip-path="url(#pd158511f2b)" d="M 626.538462 133.342574 
L 626.538462 133.342574 
" style="fill:none;stroke:#0000ff;stroke-width:1.5;"/>
    <path clip-path="url(#pd158511f2b)" d="M 640.846154 137.996349 
L 640.846154 133.815614 
" style="fill:none;stroke:#0000ff;stroke-width:1.5;"/>
   </g>
   <g id="line2d_13">
    <path clip-path="url(#pd158511f2b)" d="M 147.230769 195.718812 
L 161.538462 195.718812 
L 161.538462 200.174257 
L 175.846154 200.174257 
L 175.846154 150.100369 
L 190.153846 150.100369 
L 190.153846 142.253465 
L 204.461538 142.253465 
L 204.461538 135.322772 
L 218.769231 135.322772 
L 218.769231 134.955753 
L 233.076923 134.955753 
L 233.076923 133.342574 
L 247.384615 133.342574 
L 247.384615 136.177858 
L 261.692308 136.177858 
L 261.692308 134.739057 
L 276 134.739057 
L 276 134.798829 
L 290.307692 134.798829 
L 290.307692 138.120329 
L 304.615385 138.120329 
L 304.615385 134.92172 
L 318.923077 134.92172 
L 318.923077 137.241089 
L 333.230769 137.241089 
L 333.230769 142.889958 
L 347.538462 142.889958 
L 347.538462 143.038362 
L 361.846154 143.038362 
L 361.846154 143.191454 
L 376.153846 143.191454 
L 376.153846 136.923985 
L 390.461538 136.923985 
L 390.461538 133.342574 
L 404.769231 133.342574 
L 404.769231 134.633117 
L 419.076923 134.633117 
L 419.076923 135.92366 
L 433.384615 135.92366 
L 433.384615 133.342574 
L 447.692308 133.342574 
L 447.692308 135.81292 
L 462 135.81292 
L 462 135.749374 
L 476.307692 135.749374 
L 476.307692 137.470414 
L 490.615385 137.470414 
L 490.615385 134.723598 
L 504.923077 134.723598 
L 504.923077 134.787584 
L 519.230769 134.787584 
L 519.230769 133.342574 
L 533.538462 133.342574 
L 533.538462 134.948829 
L 547.846154 134.948829 
L 547.846154 135.271736 
L 562.153846 135.271736 
L 562.153846 135.322772 
L 576.461538 135.322772 
L 576.461538 133.342574 
L 590.769231 133.342574 
L 590.769231 135.469037 
L 605.076923 135.469037 
L 605.076923 135.667155 
L 619.384615 135.667155 
L 619.384615 133.342574 
L 633.692308 133.342574 
L 633.692308 133.342574 
L 648 133.342574 
" style="fill:none;stroke:#008000;stroke-linecap:square;stroke-width:1.5;"/>
   </g>
   <g id="line2d_14">
    <defs>
     <path d="M 2 0 
L -2 -0 
" id="me7e3286699" style="stroke:#008000;"/>
    </defs>
    <g clip-path="url(#pd158511f2b)">
     <use style="fill:#008000;stroke:#008000;" x="154.384615" xlink:href="#me7e3286699" y="252.660266"/>
     <use style="fill:#008000;stroke:#008000;" x="168.692308" xlink:href="#me7e3286699" y="227.262592"/>
     <use style="fill:#008000;stroke:#008000;" x="183" xlink:href="#me7e3286699" y="159.556399"/>
     <use style="fill:#008000;stroke:#008000;" x="197.307692" xlink:href="#me7e3286699" y="147.336555"/>
     <use style="fill:#008000;stroke:#008000;" x="211.615385" xlink:href="#me7e3286699" y="137.297725"/>
     <use style="fill:#008000;stroke:#008000;" x="225.923077" xlink:href="#me7e3286699" y="136.565451"/>
     <use style="fill:#008000;stroke:#008000;" x="240.230769" xlink:href="#me7e3286699" y="133.342574"/>
     <use style="fill:#008000;stroke:#008000;" x="254.538462" xlink:href="#me7e3286699" y="138.175097"/>
     <use style="fill:#008000;stroke:#008000;" x="268.846154" xlink:href="#me7e3286699" y="136.132932"/>
     <use style="fill:#008000;stroke:#008000;" x="283.153846" xlink:href="#me7e3286699" y="136.252247"/>
     <use style="fill:#008000;stroke:#008000;" x="297.461538" xlink:href="#me7e3286699" y="140.861103"/>
     <use style="fill:#008000;stroke:#008000;" x="311.769231" xlink:href="#me7e3286699" y="136.49753"/>
     <use style="fill:#008000;stroke:#008000;" x="326.076923" xlink:href="#me7e3286699" y="139.98336"/>
     <use style="fill:#008000;stroke:#008000;" x="340.384615" xlink:href="#me7e3286699" y="147.104865"/>
     <use style="fill:#008000;stroke:#008000;" x="354.692308" xlink:href="#me7e3286699" y="147.317915"/>
     <use style="fill:#008000;stroke:#008000;" x="369" xlink:href="#me7e3286699" y="147.537666"/>
     <use style="fill:#008000;stroke:#008000;" x="383.307692" xlink:href="#me7e3286699" y="139.444279"/>
     <use style="fill:#008000;stroke:#008000;" x="397.615385" xlink:href="#me7e3286699" y="133.342574"/>
     <use style="fill:#008000;stroke:#008000;" x="411.923077" xlink:href="#me7e3286699" y="135.921433"/>
     <use style="fill:#008000;stroke:#008000;" x="426.230769" xlink:href="#me7e3286699" y="137.742459"/>
     <use style="fill:#008000;stroke:#008000;" x="440.538462" xlink:href="#me7e3286699" y="133.342574"/>
     <use style="fill:#008000;stroke:#008000;" x="454.846154" xlink:href="#me7e3286699" y="137.553944"/>
     <use style="fill:#008000;stroke:#008000;" x="469.153846" xlink:href="#me7e3286699" y="137.445758"/>
     <use style="fill:#008000;stroke:#008000;" x="483.461538" xlink:href="#me7e3286699" y="139.840443"/>
     <use style="fill:#008000;stroke:#008000;" x="497.769231" xlink:href="#me7e3286699" y="136.102071"/>
     <use style="fill:#008000;stroke:#008000;" x="512.076923" xlink:href="#me7e3286699" y="136.229801"/>
     <use style="fill:#008000;stroke:#008000;" x="526.384615" xlink:href="#me7e3286699" y="133.342574"/>
     <use style="fill:#008000;stroke:#008000;" x="540.692308" xlink:href="#me7e3286699" y="136.551634"/>
     <use style="fill:#008000;stroke:#008000;" x="555" xlink:href="#me7e3286699" y="137.19592"/>
     <use style="fill:#008000;stroke:#008000;" x="569.307692" xlink:href="#me7e3286699" y="137.297725"/>
     <use style="fill:#008000;stroke:#008000;" x="583.615385" xlink:href="#me7e3286699" y="133.342574"/>
     <use style="fill:#008000;stroke:#008000;" x="597.923077" xlink:href="#me7e3286699" y="137.58945"/>
     <use style="fill:#008000;stroke:#008000;" x="612.230769" xlink:href="#me7e3286699" y="137.984504"/>
     <use style="fill:#008000;stroke:#008000;" x="626.538462" xlink:href="#me7e3286699" y="133.342574"/>
     <use style="fill:#008000;stroke:#008000;" x="640.846154" xlink:href="#me7e3286699" y="133.342574"/>
    </g>
   </g>
   <g id="line2d_15">
    <g clip-path="url(#pd158511f2b)">
     <use style="fill:#008000;stroke:#008000;" x="154.384615" xlink:href="#me7e3286699" y="138.777358"/>
     <use style="fill:#008000;stroke:#008000;" x="168.692308" xlink:href="#me7e3286699" y="173.085923"/>
     <use style="fill:#008000;stroke:#008000;" x="183" xlink:href="#me7e3286699" y="140.64434"/>
     <use style="fill:#008000;stroke:#008000;" x="197.307692" xlink:href="#me7e3286699" y="137.170375"/>
     <use style="fill:#008000;stroke:#008000;" x="211.615385" xlink:href="#me7e3286699" y="133.34782"/>
     <use style="fill:#008000;stroke:#008000;" x="225.923077" xlink:href="#me7e3286699" y="133.346055"/>
     <use style="fill:#008000;stroke:#008000;" x="240.230769" xlink:href="#me7e3286699" y="133.342574"/>
     <use style="fill:#008000;stroke:#008000;" x="254.538462" xlink:href="#me7e3286699" y="134.180618"/>
     <use style="fill:#008000;stroke:#008000;" x="268.846154" xlink:href="#me7e3286699" y="133.345182"/>
     <use style="fill:#008000;stroke:#008000;" x="283.153846" xlink:href="#me7e3286699" y="133.34541"/>
     <use style="fill:#008000;stroke:#008000;" x="297.461538" xlink:href="#me7e3286699" y="135.379554"/>
     <use style="fill:#008000;stroke:#008000;" x="311.769231" xlink:href="#me7e3286699" y="133.345909"/>
     <use style="fill:#008000;stroke:#008000;" x="326.076923" xlink:href="#me7e3286699" y="134.498818"/>
     <use style="fill:#008000;stroke:#008000;" x="340.384615" xlink:href="#me7e3286699" y="138.67505"/>
     <use style="fill:#008000;stroke:#008000;" x="354.692308" xlink:href="#me7e3286699" y="138.75881"/>
     <use style="fill:#008000;stroke:#008000;" x="369" xlink:href="#me7e3286699" y="138.845242"/>
     <use style="fill:#008000;stroke:#008000;" x="383.307692" xlink:href="#me7e3286699" y="134.403691"/>
     <use style="fill:#008000;stroke:#008000;" x="397.615385" xlink:href="#me7e3286699" y="133.342574"/>
     <use style="fill:#008000;stroke:#008000;" x="411.923077" xlink:href="#me7e3286699" y="133.344801"/>
     <use style="fill:#008000;stroke:#008000;" x="426.230769" xlink:href="#me7e3286699" y="134.104861"/>
     <use style="fill:#008000;stroke:#008000;" x="440.538462" xlink:href="#me7e3286699" y="133.342574"/>
     <use style="fill:#008000;stroke:#008000;" x="454.846154" xlink:href="#me7e3286699" y="134.071896"/>
     <use style="fill:#008000;stroke:#008000;" x="469.153846" xlink:href="#me7e3286699" y="134.052991"/>
     <use style="fill:#008000;stroke:#008000;" x="483.461538" xlink:href="#me7e3286699" y="135.100384"/>
     <use style="fill:#008000;stroke:#008000;" x="497.769231" xlink:href="#me7e3286699" y="133.345125"/>
     <use style="fill:#008000;stroke:#008000;" x="512.076923" xlink:href="#me7e3286699" y="133.345367"/>
     <use style="fill:#008000;stroke:#008000;" x="526.384615" xlink:href="#me7e3286699" y="133.342574"/>
     <use style="fill:#008000;stroke:#008000;" x="540.692308" xlink:href="#me7e3286699" y="133.346025"/>
     <use style="fill:#008000;stroke:#008000;" x="555" xlink:href="#me7e3286699" y="133.347553"/>
     <use style="fill:#008000;stroke:#008000;" x="569.307692" xlink:href="#me7e3286699" y="133.34782"/>
     <use style="fill:#008000;stroke:#008000;" x="583.615385" xlink:href="#me7e3286699" y="133.342574"/>
     <use style="fill:#008000;stroke:#008000;" x="597.923077" xlink:href="#me7e3286699" y="133.348624"/>
     <use style="fill:#008000;stroke:#008000;" x="612.230769" xlink:href="#me7e3286699" y="133.349805"/>
     <use style="fill:#008000;stroke:#008000;" x="626.538462" xlink:href="#me7e3286699" y="133.342574"/>
     <use style="fill:#008000;stroke:#008000;" x="640.846154" xlink:href="#me7e3286699" y="133.342574"/>
    </g>
   </g>
   <g id="line2d_16">
    <path clip-path="url(#pd158511f2b)" d="M 90 507.6 
L 104.307692 507.6 
L 104.307692 507.6 
L 118.615385 507.6 
L 118.615385 507.6 
L 132.923077 507.6 
L 132.923077 507.6 
L 147.230769 507.6 
L 147.230769 195.718812 
L 161.538462 195.718812 
L 161.538462 163.283168 
L 175.846154 163.283168 
L 175.846154 139.100381 
L 190.153846 139.100381 
L 190.153846 133.342574 
L 204.461538 133.342574 
L 204.461538 135.322772 
L 218.769231 135.322772 
L 218.769231 136.555084 
L 233.076923 136.555084 
L 233.076923 133.342574 
L 247.384615 133.342574 
L 247.384615 133.342574 
L 261.692308 133.342574 
L 261.692308 133.342574 
L 276 133.342574 
L 276 133.342574 
L 290.307692 133.342574 
L 290.307692 134.948829 
L 304.615385 134.948829 
L 304.615385 134.92172 
L 318.923077 134.92172 
L 318.923077 133.342574 
L 333.230769 133.342574 
L 333.230769 135.291832 
L 347.538462 135.291832 
L 347.538462 135.322772 
L 361.846154 135.322772 
L 361.846154 133.342574 
L 376.153846 133.342574 
L 376.153846 133.342574 
L 390.461538 133.342574 
L 390.461538 133.342574 
L 404.769231 133.342574 
L 404.769231 133.342574 
L 419.076923 133.342574 
L 419.076923 133.342574 
L 433.384615 133.342574 
L 433.384615 134.655758 
L 447.692308 134.655758 
L 447.692308 133.342574 
L 462 133.342574 
L 462 133.342574 
L 476.307692 133.342574 
L 476.307692 133.342574 
L 490.615385 133.342574 
L 490.615385 133.342574 
L 504.923077 133.342574 
L 504.923077 133.342574 
L 519.230769 133.342574 
L 519.230769 133.342574 
L 533.538462 133.342574 
L 533.538462 134.948829 
L 547.846154 134.948829 
L 547.846154 133.342574 
L 562.153846 133.342574 
L 562.153846 133.342574 
L 576.461538 133.342574 
L 576.461538 135.481188 
L 590.769231 135.481188 
L 590.769231 133.342574 
L 605.076923 133.342574 
L 605.076923 133.342574 
L 619.384615 133.342574 
L 619.384615 133.342574 
L 633.692308 133.342574 
L 633.692308 135.905981 
L 648 135.905981 
" style="fill:none;stroke:#ff0000;stroke-linecap:square;stroke-width:1.5;"/>
   </g>
   <g id="line2d_17">
    <defs>
     <path d="M 2 0 
L -2 -0 
" id="mc3249e3585" style="stroke:#ff0000;"/>
    </defs>
    <g clip-path="url(#pd158511f2b)">
     <use style="fill:#ff0000;stroke:#ff0000;" x="154.384615" xlink:href="#mc3249e3585" y="257.471734"/>
     <use style="fill:#ff0000;stroke:#ff0000;" x="168.692308" xlink:href="#mc3249e3585" y="183.126702"/>
     <use style="fill:#ff0000;stroke:#ff0000;" x="183" xlink:href="#mc3249e3585" y="144.647516"/>
     <use style="fill:#ff0000;stroke:#ff0000;" x="197.307692" xlink:href="#mc3249e3585" y="133.342574"/>
     <use style="fill:#ff0000;stroke:#ff0000;" x="211.615385" xlink:href="#mc3249e3585" y="137.12963"/>
     <use style="fill:#ff0000;stroke:#ff0000;" x="225.923077" xlink:href="#mc3249e3585" y="138.515805"/>
     <use style="fill:#ff0000;stroke:#ff0000;" x="240.230769" xlink:href="#mc3249e3585" y="133.342574"/>
     <use style="fill:#ff0000;stroke:#ff0000;" x="254.538462" xlink:href="#mc3249e3585" y="133.342574"/>
     <use style="fill:#ff0000;stroke:#ff0000;" x="268.846154" xlink:href="#mc3249e3585" y="133.342574"/>
     <use style="fill:#ff0000;stroke:#ff0000;" x="283.153846" xlink:href="#mc3249e3585" y="133.342574"/>
     <use style="fill:#ff0000;stroke:#ff0000;" x="297.461538" xlink:href="#mc3249e3585" y="136.339134"/>
     <use style="fill:#ff0000;stroke:#ff0000;" x="311.769231" xlink:href="#mc3249e3585" y="136.210101"/>
     <use style="fill:#ff0000;stroke:#ff0000;" x="326.076923" xlink:href="#mc3249e3585" y="133.342574"/>
     <use style="fill:#ff0000;stroke:#ff0000;" x="340.384615" xlink:href="#mc3249e3585" y="136.88202"/>
     <use style="fill:#ff0000;stroke:#ff0000;" x="354.692308" xlink:href="#mc3249e3585" y="136.938182"/>
     <use style="fill:#ff0000;stroke:#ff0000;" x="369" xlink:href="#mc3249e3585" y="133.342574"/>
     <use style="fill:#ff0000;stroke:#ff0000;" x="383.307692" xlink:href="#mc3249e3585" y="133.342574"/>
     <use style="fill:#ff0000;stroke:#ff0000;" x="411.923077" xlink:href="#mc3249e3585" y="133.342574"/>
     <use style="fill:#ff0000;stroke:#ff0000;" x="426.230769" xlink:href="#mc3249e3585" y="133.342574"/>
     <use style="fill:#ff0000;stroke:#ff0000;" x="440.538462" xlink:href="#mc3249e3585" y="135.583363"/>
     <use style="fill:#ff0000;stroke:#ff0000;" x="454.846154" xlink:href="#mc3249e3585" y="133.342574"/>
     <use style="fill:#ff0000;stroke:#ff0000;" x="469.153846" xlink:href="#mc3249e3585" y="133.342574"/>
     <use style="fill:#ff0000;stroke:#ff0000;" x="483.461538" xlink:href="#mc3249e3585" y="133.342574"/>
     <use style="fill:#ff0000;stroke:#ff0000;" x="512.076923" xlink:href="#mc3249e3585" y="133.342574"/>
     <use style="fill:#ff0000;stroke:#ff0000;" x="540.692308" xlink:href="#mc3249e3585" y="136.259312"/>
     <use style="fill:#ff0000;stroke:#ff0000;" x="555" xlink:href="#mc3249e3585" y="133.342574"/>
     <use style="fill:#ff0000;stroke:#ff0000;" x="569.307692" xlink:href="#mc3249e3585" y="133.342574"/>
     <use style="fill:#ff0000;stroke:#ff0000;" x="583.615385" xlink:href="#mc3249e3585" y="137.225519"/>
     <use style="fill:#ff0000;stroke:#ff0000;" x="626.538462" xlink:href="#mc3249e3585" y="133.342574"/>
     <use style="fill:#ff0000;stroke:#ff0000;" x="640.846154" xlink:href="#mc3249e3585" y="137.996349"/>
    </g>
   </g>
   <g id="line2d_18">
    <g clip-path="url(#pd158511f2b)">
     <use style="fill:#ff0000;stroke:#ff0000;" x="154.384615" xlink:href="#mc3249e3585" y="133.96589"/>
     <use style="fill:#ff0000;stroke:#ff0000;" x="168.692308" xlink:href="#mc3249e3585" y="143.439634"/>
     <use style="fill:#ff0000;stroke:#ff0000;" x="183" xlink:href="#mc3249e3585" y="133.553246"/>
     <use style="fill:#ff0000;stroke:#ff0000;" x="197.307692" xlink:href="#mc3249e3585" y="133.342574"/>
     <use style="fill:#ff0000;stroke:#ff0000;" x="211.615385" xlink:href="#mc3249e3585" y="133.515915"/>
     <use style="fill:#ff0000;stroke:#ff0000;" x="225.923077" xlink:href="#mc3249e3585" y="134.594364"/>
     <use style="fill:#ff0000;stroke:#ff0000;" x="240.230769" xlink:href="#mc3249e3585" y="133.342574"/>
     <use style="fill:#ff0000;stroke:#ff0000;" x="254.538462" xlink:href="#mc3249e3585" y="133.342574"/>
     <use style="fill:#ff0000;stroke:#ff0000;" x="268.846154" xlink:href="#mc3249e3585" y="133.342574"/>
     <use style="fill:#ff0000;stroke:#ff0000;" x="283.153846" xlink:href="#mc3249e3585" y="133.342574"/>
     <use style="fill:#ff0000;stroke:#ff0000;" x="297.461538" xlink:href="#mc3249e3585" y="133.558525"/>
     <use style="fill:#ff0000;stroke:#ff0000;" x="311.769231" xlink:href="#mc3249e3585" y="133.633338"/>
     <use style="fill:#ff0000;stroke:#ff0000;" x="326.076923" xlink:href="#mc3249e3585" y="133.342574"/>
     <use style="fill:#ff0000;stroke:#ff0000;" x="340.384615" xlink:href="#mc3249e3585" y="133.701643"/>
     <use style="fill:#ff0000;stroke:#ff0000;" x="354.692308" xlink:href="#mc3249e3585" y="133.707362"/>
     <use style="fill:#ff0000;stroke:#ff0000;" x="369" xlink:href="#mc3249e3585" y="133.342574"/>
     <use style="fill:#ff0000;stroke:#ff0000;" x="383.307692" xlink:href="#mc3249e3585" y="133.342574"/>
     <use style="fill:#ff0000;stroke:#ff0000;" x="411.923077" xlink:href="#mc3249e3585" y="133.342574"/>
     <use style="fill:#ff0000;stroke:#ff0000;" x="426.230769" xlink:href="#mc3249e3585" y="133.342574"/>
     <use style="fill:#ff0000;stroke:#ff0000;" x="440.538462" xlink:href="#mc3249e3585" y="133.728154"/>
     <use style="fill:#ff0000;stroke:#ff0000;" x="454.846154" xlink:href="#mc3249e3585" y="133.342574"/>
     <use style="fill:#ff0000;stroke:#ff0000;" x="469.153846" xlink:href="#mc3249e3585" y="133.342574"/>
     <use style="fill:#ff0000;stroke:#ff0000;" x="483.461538" xlink:href="#mc3249e3585" y="133.342574"/>
     <use style="fill:#ff0000;stroke:#ff0000;" x="512.076923" xlink:href="#mc3249e3585" y="133.342574"/>
     <use style="fill:#ff0000;stroke:#ff0000;" x="540.692308" xlink:href="#mc3249e3585" y="133.638346"/>
     <use style="fill:#ff0000;stroke:#ff0000;" x="555" xlink:href="#mc3249e3585" y="133.342574"/>
     <use style="fill:#ff0000;stroke:#ff0000;" x="569.307692" xlink:href="#mc3249e3585" y="133.342574"/>
     <use style="fill:#ff0000;stroke:#ff0000;" x="583.615385" xlink:href="#mc3249e3585" y="133.736857"/>
     <use style="fill:#ff0000;stroke:#ff0000;" x="626.538462" xlink:href="#mc3249e3585" y="133.342574"/>
     <use style="fill:#ff0000;stroke:#ff0000;" x="640.846154" xlink:href="#mc3249e3585" y="133.815614"/>
    </g>
   </g>
   <g id="line2d_19">
    <path clip-path="url(#pd158511f2b)" d="M 147.230769 247.69901 
L 161.538462 247.69901 
L 161.538462 224.768317 
L 175.846154 224.768317 
L 175.846154 155.600364 
L 190.153846 155.600364 
L 190.153846 142.253465 
L 204.461538 142.253465 
L 204.461538 137.292493 
L 218.769231 137.292493 
L 218.769231 138.154416 
L 233.076923 138.154416 
L 233.076923 133.342574 
L 247.384615 133.342574 
L 247.384615 136.177858 
L 261.692308 136.177858 
L 261.692308 134.739057 
L 276 134.739057 
L 276 134.798829 
L 290.307692 134.798829 
L 290.307692 139.706078 
L 304.615385 139.706078 
L 304.615385 136.494202 
L 318.923077 136.494202 
L 318.923077 137.241089 
L 333.230769 137.241089 
L 333.230769 144.789489 
L 347.538462 144.789489 
L 347.538462 144.96726 
L 361.846154 144.96726 
L 361.846154 143.191454 
L 376.153846 143.191454 
L 376.153846 136.923985 
L 390.461538 136.923985 
L 390.461538 133.342574 
L 404.769231 133.342574 
L 404.769231 134.633117 
L 419.076923 134.633117 
L 419.076923 135.92366 
L 433.384615 135.92366 
L 433.384615 134.655758 
L 447.692308 134.655758 
L 447.692308 135.81292 
L 462 135.81292 
L 462 135.749374 
L 476.307692 135.749374 
L 476.307692 137.470414 
L 490.615385 137.470414 
L 490.615385 134.723598 
L 504.923077 134.723598 
L 504.923077 134.787584 
L 519.230769 134.787584 
L 519.230769 133.342574 
L 533.538462 133.342574 
L 533.538462 136.548191 
L 547.846154 136.548191 
L 547.846154 135.271736 
L 562.153846 135.271736 
L 562.153846 135.322772 
L 576.461538 135.322772 
L 576.461538 135.481188 
L 590.769231 135.481188 
L 590.769231 135.469037 
L 605.076923 135.469037 
L 605.076923 135.667155 
L 619.384615 135.667155 
L 619.384615 133.342574 
L 633.692308 133.342574 
L 633.692308 135.905981 
L 648 135.905981 
" style="fill:none;stroke:#0000ff;stroke-linecap:square;stroke-width:1.5;"/>
   </g>
   <g id="line2d_20">
    <defs>
     <path d="M 2 0 
L -2 -0 
" id="m1f6c81af2e" style="stroke:#0000ff;"/>
    </defs>
    <g clip-path="url(#pd158511f2b)">
     <use style="fill:#0000ff;stroke:#0000ff;" x="154.384615" xlink:href="#m1f6c81af2e" y="312.597653"/>
     <use style="fill:#0000ff;stroke:#0000ff;" x="168.692308" xlink:href="#m1f6c81af2e" y="250.936141"/>
     <use style="fill:#0000ff;stroke:#0000ff;" x="183" xlink:href="#m1f6c81af2e" y="165.952853"/>
     <use style="fill:#0000ff;stroke:#0000ff;" x="197.307692" xlink:href="#m1f6c81af2e" y="147.215529"/>
     <use style="fill:#0000ff;stroke:#0000ff;" x="211.615385" xlink:href="#m1f6c81af2e" y="139.947454"/>
     <use style="fill:#0000ff;stroke:#0000ff;" x="225.923077" xlink:href="#m1f6c81af2e" y="140.671613"/>
     <use style="fill:#0000ff;stroke:#0000ff;" x="240.230769" xlink:href="#m1f6c81af2e" y="133.342574"/>
     <use style="fill:#0000ff;stroke:#0000ff;" x="254.538462" xlink:href="#m1f6c81af2e" y="138.159967"/>
     <use style="fill:#0000ff;stroke:#0000ff;" x="268.846154" xlink:href="#m1f6c81af2e" y="136.127731"/>
     <use style="fill:#0000ff;stroke:#0000ff;" x="283.153846" xlink:href="#m1f6c81af2e" y="136.246592"/>
     <use style="fill:#0000ff;stroke:#0000ff;" x="297.461538" xlink:href="#m1f6c81af2e" y="142.729731"/>
     <use style="fill:#0000ff;stroke:#0000ff;" x="311.769231" xlink:href="#m1f6c81af2e" y="138.515954"/>
     <use style="fill:#0000ff;stroke:#0000ff;" x="326.076923" xlink:href="#m1f6c81af2e" y="139.954795"/>
     <use style="fill:#0000ff;stroke:#0000ff;" x="340.384615" xlink:href="#m1f6c81af2e" y="149.159461"/>
     <use style="fill:#0000ff;stroke:#0000ff;" x="354.692308" xlink:href="#m1f6c81af2e" y="149.402416"/>
     <use style="fill:#0000ff;stroke:#0000ff;" x="369" xlink:href="#m1f6c81af2e" y="147.423292"/>
     <use style="fill:#0000ff;stroke:#0000ff;" x="383.307692" xlink:href="#m1f6c81af2e" y="139.420161"/>
     <use style="fill:#0000ff;stroke:#0000ff;" x="411.923077" xlink:href="#m1f6c81af2e" y="135.91699"/>
     <use style="fill:#0000ff;stroke:#0000ff;" x="426.230769" xlink:href="#m1f6c81af2e" y="137.729915"/>
     <use style="fill:#0000ff;stroke:#0000ff;" x="440.538462" xlink:href="#m1f6c81af2e" y="135.583363"/>
     <use style="fill:#0000ff;stroke:#0000ff;" x="454.846154" xlink:href="#m1f6c81af2e" y="137.542452"/>
     <use style="fill:#0000ff;stroke:#0000ff;" x="469.153846" xlink:href="#m1f6c81af2e" y="137.434849"/>
     <use style="fill:#0000ff;stroke:#0000ff;" x="483.461538" xlink:href="#m1f6c81af2e" y="139.814303"/>
     <use style="fill:#0000ff;stroke:#0000ff;" x="512.076923" xlink:href="#m1f6c81af2e" y="136.224232"/>
     <use style="fill:#0000ff;stroke:#0000ff;" x="540.692308" xlink:href="#m1f6c81af2e" y="138.604357"/>
     <use style="fill:#0000ff;stroke:#0000ff;" x="555" xlink:href="#m1f6c81af2e" y="137.186001"/>
     <use style="fill:#0000ff;stroke:#0000ff;" x="569.307692" xlink:href="#m1f6c81af2e" y="137.287275"/>
     <use style="fill:#0000ff;stroke:#0000ff;" x="583.615385" xlink:href="#m1f6c81af2e" y="137.225519"/>
     <use style="fill:#0000ff;stroke:#0000ff;" x="626.538462" xlink:href="#m1f6c81af2e" y="133.342574"/>
     <use style="fill:#0000ff;stroke:#0000ff;" x="640.846154" xlink:href="#m1f6c81af2e" y="137.996349"/>
    </g>
   </g>
   <g id="line2d_21">
    <g clip-path="url(#pd158511f2b)">
     <use style="fill:#0000ff;stroke:#0000ff;" x="154.384615" xlink:href="#m1f6c81af2e" y="182.800366"/>
     <use style="fill:#0000ff;stroke:#0000ff;" x="168.692308" xlink:href="#m1f6c81af2e" y="198.600493"/>
     <use style="fill:#0000ff;stroke:#0000ff;" x="183" xlink:href="#m1f6c81af2e" y="145.247874"/>
     <use style="fill:#0000ff;stroke:#0000ff;" x="197.307692" xlink:href="#m1f6c81af2e" y="137.291401"/>
     <use style="fill:#0000ff;stroke:#0000ff;" x="211.615385" xlink:href="#m1f6c81af2e" y="134.637532"/>
     <use style="fill:#0000ff;stroke:#0000ff;" x="225.923077" xlink:href="#m1f6c81af2e" y="135.637219"/>
     <use style="fill:#0000ff;stroke:#0000ff;" x="240.230769" xlink:href="#m1f6c81af2e" y="133.342574"/>
     <use style="fill:#0000ff;stroke:#0000ff;" x="254.538462" xlink:href="#m1f6c81af2e" y="134.195749"/>
     <use style="fill:#0000ff;stroke:#0000ff;" x="268.846154" xlink:href="#m1f6c81af2e" y="133.350383"/>
     <use style="fill:#0000ff;stroke:#0000ff;" x="283.153846" xlink:href="#m1f6c81af2e" y="133.351066"/>
     <use style="fill:#0000ff;stroke:#0000ff;" x="297.461538" xlink:href="#m1f6c81af2e" y="136.682425"/>
     <use style="fill:#0000ff;stroke:#0000ff;" x="311.769231" xlink:href="#m1f6c81af2e" y="134.47245"/>
     <use style="fill:#0000ff;stroke:#0000ff;" x="326.076923" xlink:href="#m1f6c81af2e" y="134.527383"/>
     <use style="fill:#0000ff;stroke:#0000ff;" x="340.384615" xlink:href="#m1f6c81af2e" y="140.419517"/>
     <use style="fill:#0000ff;stroke:#0000ff;" x="354.692308" xlink:href="#m1f6c81af2e" y="140.532104"/>
     <use style="fill:#0000ff;stroke:#0000ff;" x="369" xlink:href="#m1f6c81af2e" y="138.959616"/>
     <use style="fill:#0000ff;stroke:#0000ff;" x="383.307692" xlink:href="#m1f6c81af2e" y="134.427809"/>
     <use style="fill:#0000ff;stroke:#0000ff;" x="411.923077" xlink:href="#m1f6c81af2e" y="133.349244"/>
     <use style="fill:#0000ff;stroke:#0000ff;" x="426.230769" xlink:href="#m1f6c81af2e" y="134.117405"/>
     <use style="fill:#0000ff;stroke:#0000ff;" x="440.538462" xlink:href="#m1f6c81af2e" y="133.728154"/>
     <use style="fill:#0000ff;stroke:#0000ff;" x="454.846154" xlink:href="#m1f6c81af2e" y="134.083388"/>
     <use style="fill:#0000ff;stroke:#0000ff;" x="469.153846" xlink:href="#m1f6c81af2e" y="134.0639"/>
     <use style="fill:#0000ff;stroke:#0000ff;" x="483.461538" xlink:href="#m1f6c81af2e" y="135.126524"/>
     <use style="fill:#0000ff;stroke:#0000ff;" x="512.076923" xlink:href="#m1f6c81af2e" y="133.350935"/>
     <use style="fill:#0000ff;stroke:#0000ff;" x="540.692308" xlink:href="#m1f6c81af2e" y="134.492025"/>
     <use style="fill:#0000ff;stroke:#0000ff;" x="555" xlink:href="#m1f6c81af2e" y="133.357471"/>
     <use style="fill:#0000ff;stroke:#0000ff;" x="569.307692" xlink:href="#m1f6c81af2e" y="133.358269"/>
     <use style="fill:#0000ff;stroke:#0000ff;" x="583.615385" xlink:href="#m1f6c81af2e" y="133.736857"/>
     <use style="fill:#0000ff;stroke:#0000ff;" x="626.538462" xlink:href="#m1f6c81af2e" y="133.342574"/>
     <use style="fill:#0000ff;stroke:#0000ff;" x="640.846154" xlink:href="#m1f6c81af2e" y="133.815614"/>
    </g>
   </g>
   <g id="patch_3">
    <path d="M 90 507.6 
L 90 129.6 
" style="fill:none;stroke:#000000;stroke-linecap:square;stroke-linejoin:miter;stroke-width:0.8;"/>
   </g>
   <g id="patch_4">
    <path d="M 648 507.6 
L 648 129.6 
" style="fill:none;stroke:#000000;stroke-linecap:square;stroke-linejoin:miter;stroke-width:0.8;"/>
   </g>
   <g id="patch_5">
    <path d="M 90 507.6 
L 648 507.6 
" style="fill:none;stroke:#000000;stroke-linecap:square;stroke-linejoin:miter;stroke-width:0.8;"/>
   </g>
   <g id="patch_6">
    <path d="M 90 129.6 
L 648 129.6 
" style="fill:none;stroke:#000000;stroke-linecap:square;stroke-linejoin:miter;stroke-width:0.8;"/>
   </g>
   <g id="text_9">
    <!-- Purity/Efficiency vs mcpMomentum -->
    <defs>
     <path d="M 19.671875 64.796875 
L 19.671875 37.40625 
L 32.078125 37.40625 
Q 38.96875 37.40625 42.71875 40.96875 
Q 46.484375 44.53125 46.484375 51.125 
Q 46.484375 57.671875 42.71875 61.234375 
Q 38.96875 64.796875 32.078125 64.796875 
z
M 9.8125 72.90625 
L 32.078125 72.90625 
Q 44.34375 72.90625 50.609375 67.359375 
Q 56.890625 61.8125 56.890625 51.125 
Q 56.890625 40.328125 50.609375 34.8125 
Q 44.34375 29.296875 32.078125 29.296875 
L 19.671875 29.296875 
L 19.671875 0 
L 9.8125 0 
z
" id="DejaVuSans-80"/>
     <path d="M 32.171875 -5.078125 
Q 28.375 -14.84375 24.75 -17.8125 
Q 21.140625 -20.796875 15.09375 -20.796875 
L 7.90625 -20.796875 
L 7.90625 -13.28125 
L 13.1875 -13.28125 
Q 16.890625 -13.28125 18.9375 -11.515625 
Q 21 -9.765625 23.484375 -3.21875 
L 25.09375 0.875 
L 2.984375 54.6875 
L 12.5 54.6875 
L 29.59375 11.921875 
L 46.6875 54.6875 
L 56.203125 54.6875 
z
" id="DejaVuSans-121"/>
     <path d="M 25.390625 72.90625 
L 33.6875 72.90625 
L 8.296875 -9.28125 
L 0 -9.28125 
z
" id="DejaVuSans-47"/>
     <path d="M 9.8125 72.90625 
L 55.90625 72.90625 
L 55.90625 64.59375 
L 19.671875 64.59375 
L 19.671875 43.015625 
L 54.390625 43.015625 
L 54.390625 34.71875 
L 19.671875 34.71875 
L 19.671875 8.296875 
L 56.78125 8.296875 
L 56.78125 0 
L 9.8125 0 
z
" id="DejaVuSans-69"/>
     <path d="M 37.109375 75.984375 
L 37.109375 68.5 
L 28.515625 68.5 
Q 23.6875 68.5 21.796875 66.546875 
Q 19.921875 64.59375 19.921875 59.515625 
L 19.921875 54.6875 
L 34.71875 54.6875 
L 34.71875 47.703125 
L 19.921875 47.703125 
L 19.921875 0 
L 10.890625 0 
L 10.890625 47.703125 
L 2.296875 47.703125 
L 2.296875 54.6875 
L 10.890625 54.6875 
L 10.890625 58.5 
Q 10.890625 67.625 15.140625 71.796875 
Q 19.390625 75.984375 28.609375 75.984375 
z
" id="DejaVuSans-102"/>
     <path id="DejaVuSans-32"/>
     <path d="M 2.984375 54.6875 
L 12.5 54.6875 
L 29.59375 8.796875 
L 46.6875 54.6875 
L 56.203125 54.6875 
L 35.6875 0 
L 23.484375 0 
z
" id="DejaVuSans-118"/>
     <path d="M 44.28125 53.078125 
L 44.28125 44.578125 
Q 40.484375 46.53125 36.375 47.5 
Q 32.28125 48.484375 27.875 48.484375 
Q 21.1875 48.484375 17.84375 46.4375 
Q 14.5 44.390625 14.5 40.28125 
Q 14.5 37.15625 16.890625 35.375 
Q 19.28125 33.59375 26.515625 31.984375 
L 29.59375 31.296875 
Q 39.15625 29.25 43.1875 25.515625 
Q 47.21875 21.78125 47.21875 15.09375 
Q 47.21875 7.46875 41.1875 3.015625 
Q 35.15625 -1.421875 24.609375 -1.421875 
Q 20.21875 -1.421875 15.453125 -0.5625 
Q 10.6875 0.296875 5.421875 2 
L 5.421875 11.28125 
Q 10.40625 8.6875 15.234375 7.390625 
Q 20.0625 6.109375 24.8125 6.109375 
Q 31.15625 6.109375 34.5625 8.28125 
Q 37.984375 10.453125 37.984375 14.40625 
Q 37.984375 18.0625 35.515625 20.015625 
Q 33.0625 21.96875 24.703125 23.78125 
L 21.578125 24.515625 
Q 13.234375 26.265625 9.515625 29.90625 
Q 5.8125 33.546875 5.8125 39.890625 
Q 5.8125 47.609375 11.28125 51.796875 
Q 16.75 56 26.8125 56 
Q 31.78125 56 36.171875 55.265625 
Q 40.578125 54.546875 44.28125 53.078125 
z
" id="DejaVuSans-115"/>
    </defs>
    <g transform="translate(139.824675 94.57527)scale(0.2592 -0.2592)">
     <use xlink:href="#DejaVuSans-80"/>
     <use x="60.287109" xlink:href="#DejaVuSans-117"/>
     <use x="123.666016" xlink:href="#DejaVuSans-114"/>
     <use x="164.779297" xlink:href="#DejaVuSans-105"/>
     <use x="192.5625" xlink:href="#DejaVuSans-116"/>
     <use x="231.771484" xlink:href="#DejaVuSans-121"/>
     <use x="290.951172" xlink:href="#DejaVuSans-47"/>
     <use x="324.642578" xlink:href="#DejaVuSans-69"/>
     <use x="387.826172" xlink:href="#DejaVuSans-102"/>
     <use x="423.03125" xlink:href="#DejaVuSans-102"/>
     <use x="458.236328" xlink:href="#DejaVuSans-105"/>
     <use x="486.019531" xlink:href="#DejaVuSans-99"/>
     <use x="541" xlink:href="#DejaVuSans-105"/>
     <use x="568.783203" xlink:href="#DejaVuSans-101"/>
     <use x="630.306641" xlink:href="#DejaVuSans-110"/>
     <use x="693.685547" xlink:href="#DejaVuSans-99"/>
     <use x="748.666016" xlink:href="#DejaVuSans-121"/>
     <use x="807.845703" xlink:href="#DejaVuSans-32"/>
     <use x="839.632812" xlink:href="#DejaVuSans-118"/>
     <use x="898.8125" xlink:href="#DejaVuSans-115"/>
     <use x="950.912109" xlink:href="#DejaVuSans-32"/>
     <use x="982.699219" xlink:href="#DejaVuSans-109"/>
     <use x="1080.111328" xlink:href="#DejaVuSans-99"/>
     <use x="1135.091797" xlink:href="#DejaVuSans-112"/>
     <use x="1198.568359" xlink:href="#DejaVuSans-77"/>
     <use x="1284.847656" xlink:href="#DejaVuSans-111"/>
     <use x="1346.029297" xlink:href="#DejaVuSans-109"/>
     <use x="1443.441406" xlink:href="#DejaVuSans-101"/>
     <use x="1504.964844" xlink:href="#DejaVuSans-110"/>
     <use x="1568.34375" xlink:href="#DejaVuSans-116"/>
     <use x="1607.552734" xlink:href="#DejaVuSans-117"/>
     <use x="1670.931641" xlink:href="#DejaVuSans-109"/>
    </g>
    <!-- Cutoff=-1.460, CCQE track classification -->
    <defs>
     <path d="M 64.40625 67.28125 
L 64.40625 56.890625 
Q 59.421875 61.53125 53.78125 63.8125 
Q 48.140625 66.109375 41.796875 66.109375 
Q 29.296875 66.109375 22.65625 58.46875 
Q 16.015625 50.828125 16.015625 36.375 
Q 16.015625 21.96875 22.65625 14.328125 
Q 29.296875 6.6875 41.796875 6.6875 
Q 48.140625 6.6875 53.78125 8.984375 
Q 59.421875 11.28125 64.40625 15.921875 
L 64.40625 5.609375 
Q 59.234375 2.09375 53.4375 0.328125 
Q 47.65625 -1.421875 41.21875 -1.421875 
Q 24.65625 -1.421875 15.125 8.703125 
Q 5.609375 18.84375 5.609375 36.375 
Q 5.609375 53.953125 15.125 64.078125 
Q 24.65625 74.21875 41.21875 74.21875 
Q 47.75 74.21875 53.53125 72.484375 
Q 59.328125 70.75 64.40625 67.28125 
z
" id="DejaVuSans-67"/>
     <path d="M 10.59375 45.40625 
L 73.1875 45.40625 
L 73.1875 37.203125 
L 10.59375 37.203125 
z
M 10.59375 25.484375 
L 73.1875 25.484375 
L 73.1875 17.1875 
L 10.59375 17.1875 
z
" id="DejaVuSans-61"/>
     <path d="M 4.890625 31.390625 
L 31.203125 31.390625 
L 31.203125 23.390625 
L 4.890625 23.390625 
z
" id="DejaVuSans-45"/>
     <path d="M 11.71875 12.40625 
L 22.015625 12.40625 
L 22.015625 4 
L 14.015625 -11.625 
L 7.71875 -11.625 
L 11.71875 4 
z
" id="DejaVuSans-44"/>
     <path d="M 39.40625 66.21875 
Q 28.65625 66.21875 22.328125 58.203125 
Q 16.015625 50.203125 16.015625 36.375 
Q 16.015625 22.609375 22.328125 14.59375 
Q 28.65625 6.59375 39.40625 6.59375 
Q 50.140625 6.59375 56.421875 14.59375 
Q 62.703125 22.609375 62.703125 36.375 
Q 62.703125 50.203125 56.421875 58.203125 
Q 50.140625 66.21875 39.40625 66.21875 
z
M 53.21875 1.3125 
L 66.21875 -12.890625 
L 54.296875 -12.890625 
L 43.5 -1.21875 
Q 41.890625 -1.3125 41.03125 -1.359375 
Q 40.1875 -1.421875 39.40625 -1.421875 
Q 24.03125 -1.421875 14.8125 8.859375 
Q 5.609375 19.140625 5.609375 36.375 
Q 5.609375 53.65625 14.8125 63.9375 
Q 24.03125 74.21875 39.40625 74.21875 
Q 54.734375 74.21875 63.90625 63.9375 
Q 73.09375 53.65625 73.09375 36.375 
Q 73.09375 23.6875 67.984375 14.640625 
Q 62.890625 5.609375 53.21875 1.3125 
z
" id="DejaVuSans-81"/>
     <path d="M 9.078125 75.984375 
L 18.109375 75.984375 
L 18.109375 31.109375 
L 44.921875 54.6875 
L 56.390625 54.6875 
L 27.390625 29.109375 
L 57.625 0 
L 45.90625 0 
L 18.109375 26.703125 
L 18.109375 0 
L 9.078125 0 
z
" id="DejaVuSans-107"/>
     <path d="M 9.421875 75.984375 
L 18.40625 75.984375 
L 18.40625 0 
L 9.421875 0 
z
" id="DejaVuSans-108"/>
    </defs>
    <g transform="translate(107.189775 123.6)scale(0.2592 -0.2592)">
     <use xlink:href="#DejaVuSans-67"/>
     <use x="69.824219" xlink:href="#DejaVuSans-117"/>
     <use x="133.203125" xlink:href="#DejaVuSans-116"/>
     <use x="172.412109" xlink:href="#DejaVuSans-111"/>
     <use x="233.59375" xlink:href="#DejaVuSans-102"/>
     <use x="268.798828" xlink:href="#DejaVuSans-102"/>
     <use x="304.003906" xlink:href="#DejaVuSans-61"/>
     <use x="387.792969" xlink:href="#DejaVuSans-45"/>
     <use x="423.876953" xlink:href="#DejaVuSans-49"/>
     <use x="487.5" xlink:href="#DejaVuSans-46"/>
     <use x="519.287109" xlink:href="#DejaVuSans-52"/>
     <use x="582.910156" xlink:href="#DejaVuSans-54"/>
     <use x="646.533203" xlink:href="#DejaVuSans-48"/>
     <use x="710.15625" xlink:href="#DejaVuSans-44"/>
     <use x="741.943359" xlink:href="#DejaVuSans-32"/>
     <use x="773.730469" xlink:href="#DejaVuSans-67"/>
     <use x="843.554688" xlink:href="#DejaVuSans-67"/>
     <use x="913.378906" xlink:href="#DejaVuSans-81"/>
     <use x="992.089844" xlink:href="#DejaVuSans-69"/>
     <use x="1055.273438" xlink:href="#DejaVuSans-32"/>
     <use x="1087.060547" xlink:href="#DejaVuSans-116"/>
     <use x="1126.269531" xlink:href="#DejaVuSans-114"/>
     <use x="1167.382812" xlink:href="#DejaVuSans-97"/>
     <use x="1228.662109" xlink:href="#DejaVuSans-99"/>
     <use x="1283.642578" xlink:href="#DejaVuSans-107"/>
     <use x="1341.552734" xlink:href="#DejaVuSans-32"/>
     <use x="1373.339844" xlink:href="#DejaVuSans-99"/>
     <use x="1428.320312" xlink:href="#DejaVuSans-108"/>
     <use x="1456.103516" xlink:href="#DejaVuSans-97"/>
     <use x="1517.382812" xlink:href="#DejaVuSans-115"/>
     <use x="1569.482422" xlink:href="#DejaVuSans-115"/>
     <use x="1621.582031" xlink:href="#DejaVuSans-105"/>
     <use x="1649.365234" xlink:href="#DejaVuSans-102"/>
     <use x="1684.570312" xlink:href="#DejaVuSans-105"/>
     <use x="1712.353516" xlink:href="#DejaVuSans-99"/>
     <use x="1767.333984" xlink:href="#DejaVuSans-97"/>
     <use x="1828.613281" xlink:href="#DejaVuSans-116"/>
     <use x="1867.822266" xlink:href="#DejaVuSans-105"/>
     <use x="1895.605469" xlink:href="#DejaVuSans-111"/>
     <use x="1956.787109" xlink:href="#DejaVuSans-110"/>
    </g>
   </g>
   <g id="legend_1">
    <g id="patch_7">
     <path d="M 266.025938 498.6 
L 471.974063 498.6 
Q 475.574063 498.6 475.574063 495 
L 475.574063 417.538125 
Q 475.574063 413.938125 471.974063 413.938125 
L 266.025938 413.938125 
Q 262.425938 413.938125 262.425938 417.538125 
L 262.425938 495 
Q 262.425938 498.6 266.025938 498.6 
z
" style="fill:#ffffff;opacity:0.5;stroke:#cccccc;stroke-linejoin:miter;"/>
    </g>
    <g id="line2d_22">
     <path d="M 269.625938 428.515312 
L 305.625938 428.515312 
" style="fill:none;stroke:#008000;stroke-linecap:square;stroke-width:1.5;"/>
    </g>
    <g id="line2d_23"/>
    <g id="text_10">
     <!-- Efficiency -->
     <g transform="translate(320.025937 434.815313)scale(0.18 -0.18)">
      <use xlink:href="#DejaVuSans-69"/>
      <use x="63.183594" xlink:href="#DejaVuSans-102"/>
      <use x="98.388672" xlink:href="#DejaVuSans-102"/>
      <use x="133.59375" xlink:href="#DejaVuSans-105"/>
      <use x="161.376953" xlink:href="#DejaVuSans-99"/>
      <use x="216.357422" xlink:href="#DejaVuSans-105"/>
      <use x="244.140625" xlink:href="#DejaVuSans-101"/>
      <use x="305.664062" xlink:href="#DejaVuSans-110"/>
      <use x="369.042969" xlink:href="#DejaVuSans-99"/>
      <use x="424.023438" xlink:href="#DejaVuSans-121"/>
     </g>
    </g>
    <g id="line2d_24">
     <path d="M 269.625938 454.935937 
L 305.625938 454.935937 
" style="fill:none;stroke:#ff0000;stroke-linecap:square;stroke-width:1.5;"/>
    </g>
    <g id="line2d_25"/>
    <g id="text_11">
     <!-- Purity -->
     <g transform="translate(320.025937 461.235937)scale(0.18 -0.18)">
      <use xlink:href="#DejaVuSans-80"/>
      <use x="60.287109" xlink:href="#DejaVuSans-117"/>
      <use x="123.666016" xlink:href="#DejaVuSans-114"/>
      <use x="164.779297" xlink:href="#DejaVuSans-105"/>
      <use x="192.5625" xlink:href="#DejaVuSans-116"/>
      <use x="231.771484" xlink:href="#DejaVuSans-121"/>
     </g>
    </g>
    <g id="line2d_26">
     <path d="M 269.625938 481.356562 
L 305.625938 481.356562 
" style="fill:none;stroke:#0000ff;stroke-linecap:square;stroke-width:1.5;"/>
    </g>
    <g id="line2d_27"/>
    <g id="text_12">
     <!-- Purity*Efficiency -->
     <defs>
      <path d="M 47.015625 60.890625 
L 29.5 51.421875 
L 47.015625 41.890625 
L 44.1875 37.109375 
L 27.78125 47.015625 
L 27.78125 28.609375 
L 22.21875 28.609375 
L 22.21875 47.015625 
L 5.8125 37.109375 
L 2.984375 41.890625 
L 20.515625 51.421875 
L 2.984375 60.890625 
L 5.8125 65.71875 
L 22.21875 55.8125 
L 22.21875 74.21875 
L 27.78125 74.21875 
L 27.78125 55.8125 
L 44.1875 65.71875 
z
" id="DejaVuSans-42"/>
     </defs>
     <g transform="translate(320.025937 487.656562)scale(0.18 -0.18)">
      <use xlink:href="#DejaVuSans-80"/>
      <use x="60.287109" xlink:href="#DejaVuSans-117"/>
      <use x="123.666016" xlink:href="#DejaVuSans-114"/>
      <use x="164.779297" xlink:href="#DejaVuSans-105"/>
      <use x="192.5625" xlink:href="#DejaVuSans-116"/>
      <use x="231.771484" xlink:href="#DejaVuSans-121"/>
      <use x="290.951172" xlink:href="#DejaVuSans-42"/>
      <use x="340.951172" xlink:href="#DejaVuSans-69"/>
      <use x="404.134766" xlink:href="#DejaVuSans-102"/>
      <use x="439.339844" xlink:href="#DejaVuSans-102"/>
      <use x="474.544922" xlink:href="#DejaVuSans-105"/>
      <use x="502.328125" xlink:href="#DejaVuSans-99"/>
      <use x="557.308594" xlink:href="#DejaVuSans-105"/>
      <use x="585.091797" xlink:href="#DejaVuSans-101"/>
      <use x="646.615234" xlink:href="#DejaVuSans-110"/>
      <use x="709.994141" xlink:href="#DejaVuSans-99"/>
      <use x="764.974609" xlink:href="#DejaVuSans-121"/>
     </g>
    </g>
   </g>
  </g>
  <g id="axes_2">
   <g id="patch_8">
    <path d="M 90 961.2 
L 648 961.2 
L 648 583.2 
L 90 583.2 
z
" style="fill:#ffffff;"/>
   </g>
   <g id="patch_9">
    <path clip-path="url(#paf62863048)" d="M 90 138797.76664 
L 90 138797.76664 
L 104.307692 138797.76664 
L 104.307692 138797.76664 
L 118.615385 138797.76664 
L 118.615385 138797.76664 
L 132.923077 138797.76664 
L 132.923077 138797.76664 
L 147.230769 138797.76664 
L 147.230769 836.747115 
L 161.538462 836.747115 
L 161.538462 744.522023 
L 175.846154 744.522023 
L 175.846154 692.286925 
L 190.153846 692.286925 
L 190.153846 654.474229 
L 204.461538 654.474229 
L 204.461538 630.199389 
L 218.769231 630.199389 
L 218.769231 617.926796 
L 233.076923 617.926796 
L 233.076923 615.400298 
L 247.384615 615.400298 
L 247.384615 610.191003 
L 261.692308 610.191003 
L 261.692308 609.290699 
L 276 609.290699 
L 276 611.799867 
L 290.307692 611.799867 
L 290.307692 617.157589 
L 304.615385 617.157589 
L 304.615385 616.650221 
L 318.923077 616.650221 
L 318.923077 629.256549 
L 333.230769 629.256549 
L 333.230769 628.02209 
L 347.538462 628.02209 
L 347.538462 628.945539 
L 361.846154 628.945539 
L 361.846154 629.883456 
L 376.153846 629.883456 
L 376.153846 624.177319 
L 390.461538 624.177319 
L 390.461538 615.153415 
L 404.769231 615.153415 
L 404.769231 604.567388 
L 419.076923 604.567388 
L 419.076923 604.567388 
L 433.384615 604.567388 
L 433.384615 605.819052 
L 447.692308 605.819052 
L 447.692308 601.942014 
L 462 601.942014 
L 462 600.381818 
L 476.307692 600.381818 
L 476.307692 608.403733 
L 490.615385 608.403733 
L 490.615385 608.624245 
L 504.923077 608.624245 
L 504.923077 611.335763 
L 519.230769 611.335763 
L 519.230769 612.50284 
L 533.538462 612.50284 
L 533.538462 617.669294 
L 547.846154 617.669294 
L 547.846154 628.636138 
L 562.153846 628.636138 
L 562.153846 630.199389 
L 576.461538 630.199389 
L 576.461538 635.150069 
L 590.769231 635.150069 
L 590.769231 634.465843 
L 605.076923 634.465843 
L 605.076923 639.798963 
L 619.384615 639.798963 
L 619.384615 647.317166 
L 633.692308 647.317166 
L 633.692308 646.065501 
L 648 646.065501 
L 648 138797.76664 
z
" style="fill:#1f77b4;opacity:0.2;"/>
   </g>
   <g id="matplotlib.axis_3">
    <g id="xtick_7">
     <g id="line2d_28">
      <g>
       <use style="stroke:#000000;stroke-width:0.8;" x="90" xlink:href="#mc0be59bfcf" y="961.2"/>
      </g>
     </g>
     <g id="text_13">
      <!-- 0.0 -->
      <g transform="translate(69.38955 987.89515)scale(0.2592 -0.2592)">
       <use xlink:href="#DejaVuSans-48"/>
       <use x="63.623047" xlink:href="#DejaVuSans-46"/>
       <use x="95.410156" xlink:href="#DejaVuSans-48"/>
      </g>
     </g>
    </g>
    <g id="xtick_8">
     <g id="line2d_29">
      <g>
       <use style="stroke:#000000;stroke-width:0.8;" x="201.6" xlink:href="#mc0be59bfcf" y="961.2"/>
      </g>
     </g>
     <g id="text_14">
      <!-- 0.2 -->
      <g transform="translate(180.98955 987.89515)scale(0.2592 -0.2592)">
       <use xlink:href="#DejaVuSans-48"/>
       <use x="63.623047" xlink:href="#DejaVuSans-46"/>
       <use x="95.410156" xlink:href="#DejaVuSans-50"/>
      </g>
     </g>
    </g>
    <g id="xtick_9">
     <g id="line2d_30">
      <g>
       <use style="stroke:#000000;stroke-width:0.8;" x="313.2" xlink:href="#mc0be59bfcf" y="961.2"/>
      </g>
     </g>
     <g id="text_15">
      <!-- 0.4 -->
      <g transform="translate(292.58955 987.89515)scale(0.2592 -0.2592)">
       <use xlink:href="#DejaVuSans-48"/>
       <use x="63.623047" xlink:href="#DejaVuSans-46"/>
       <use x="95.410156" xlink:href="#DejaVuSans-52"/>
      </g>
     </g>
    </g>
    <g id="xtick_10">
     <g id="line2d_31">
      <g>
       <use style="stroke:#000000;stroke-width:0.8;" x="424.8" xlink:href="#mc0be59bfcf" y="961.2"/>
      </g>
     </g>
     <g id="text_16">
      <!-- 0.6 -->
      <g transform="translate(404.18955 987.89515)scale(0.2592 -0.2592)">
       <use xlink:href="#DejaVuSans-48"/>
       <use x="63.623047" xlink:href="#DejaVuSans-46"/>
       <use x="95.410156" xlink:href="#DejaVuSans-54"/>
      </g>
     </g>
    </g>
    <g id="xtick_11">
     <g id="line2d_32">
      <g>
       <use style="stroke:#000000;stroke-width:0.8;" x="536.4" xlink:href="#mc0be59bfcf" y="961.2"/>
      </g>
     </g>
     <g id="text_17">
      <!-- 0.8 -->
      <g transform="translate(515.78955 987.89515)scale(0.2592 -0.2592)">
       <use xlink:href="#DejaVuSans-48"/>
       <use x="63.623047" xlink:href="#DejaVuSans-46"/>
       <use x="95.410156" xlink:href="#DejaVuSans-56"/>
      </g>
     </g>
    </g>
    <g id="xtick_12">
     <g id="line2d_33">
      <g>
       <use style="stroke:#000000;stroke-width:0.8;" x="648" xlink:href="#mc0be59bfcf" y="961.2"/>
      </g>
     </g>
     <g id="text_18">
      <!-- 1.0 -->
      <g transform="translate(627.38955 987.89515)scale(0.2592 -0.2592)">
       <use xlink:href="#DejaVuSans-49"/>
       <use x="63.623047" xlink:href="#DejaVuSans-46"/>
       <use x="95.410156" xlink:href="#DejaVuSans-48"/>
      </g>
     </g>
    </g>
    <g id="text_19">
     <!-- mcpMomentum -->
     <g transform="translate(267.180975 1016.98085)scale(0.2592 -0.2592)">
      <use xlink:href="#DejaVuSans-109"/>
      <use x="97.412109" xlink:href="#DejaVuSans-99"/>
      <use x="152.392578" xlink:href="#DejaVuSans-112"/>
      <use x="215.869141" xlink:href="#DejaVuSans-77"/>
      <use x="302.148438" xlink:href="#DejaVuSans-111"/>
      <use x="363.330078" xlink:href="#DejaVuSans-109"/>
      <use x="460.742188" xlink:href="#DejaVuSans-101"/>
      <use x="522.265625" xlink:href="#DejaVuSans-110"/>
      <use x="585.644531" xlink:href="#DejaVuSans-116"/>
      <use x="624.853516" xlink:href="#DejaVuSans-117"/>
      <use x="688.232422" xlink:href="#DejaVuSans-109"/>
     </g>
    </g>
   </g>
   <g id="matplotlib.axis_4">
    <g id="ytick_7">
     <g id="line2d_34">
      <g>
       <use style="stroke:#000000;stroke-width:0.8;" x="90" xlink:href="#m7166045012" y="944.018182"/>
      </g>
     </g>
     <g id="text_20">
      <!-- $\mathdefault{10^{0}}$ -->
      <g transform="translate(37.3808 953.865757)scale(0.2592 -0.2592)">
       <use transform="translate(0 0.765625)" xlink:href="#DejaVuSans-49"/>
       <use transform="translate(63.623047 0.765625)" xlink:href="#DejaVuSans-48"/>
       <use transform="translate(128.203125 39.046875)scale(0.7)" xlink:href="#DejaVuSans-48"/>
      </g>
     </g>
    </g>
    <g id="ytick_8">
     <g id="line2d_35">
      <g>
       <use style="stroke:#000000;stroke-width:0.8;" x="90" xlink:href="#m7166045012" y="806.164433"/>
      </g>
     </g>
     <g id="text_21">
      <!-- $\mathdefault{10^{1}}$ -->
      <g transform="translate(37.3808 816.012008)scale(0.2592 -0.2592)">
       <use transform="translate(0 0.684375)" xlink:href="#DejaVuSans-49"/>
       <use transform="translate(63.623047 0.684375)" xlink:href="#DejaVuSans-48"/>
       <use transform="translate(128.203125 38.965625)scale(0.7)" xlink:href="#DejaVuSans-49"/>
      </g>
     </g>
    </g>
    <g id="ytick_9">
     <g id="line2d_36">
      <g>
       <use style="stroke:#000000;stroke-width:0.8;" x="90" xlink:href="#m7166045012" y="668.310685"/>
      </g>
     </g>
     <g id="text_22">
      <!-- $\mathdefault{10^{2}}$ -->
      <g transform="translate(37.3808 678.15826)scale(0.2592 -0.2592)">
       <use transform="translate(0 0.765625)" xlink:href="#DejaVuSans-49"/>
       <use transform="translate(63.623047 0.765625)" xlink:href="#DejaVuSans-48"/>
       <use transform="translate(128.203125 39.046875)scale(0.7)" xlink:href="#DejaVuSans-50"/>
      </g>
     </g>
    </g>
    <g id="ytick_10">
     <g id="line2d_37">
      <defs>
       <path d="M 0 0 
L -2 0 
" id="m8e9503617b" style="stroke:#000000;stroke-width:0.6;"/>
      </defs>
      <g>
       <use style="stroke:#000000;stroke-width:0.6;" x="90" xlink:href="#m8e9503617b" y="957.37759"/>
      </g>
     </g>
    </g>
    <g id="ytick_11">
     <g id="line2d_38">
      <g>
       <use style="stroke:#000000;stroke-width:0.6;" x="90" xlink:href="#m8e9503617b" y="950.326023"/>
      </g>
     </g>
    </g>
    <g id="ytick_12">
     <g id="line2d_39">
      <g>
       <use style="stroke:#000000;stroke-width:0.6;" x="90" xlink:href="#m8e9503617b" y="902.520069"/>
      </g>
     </g>
    </g>
    <g id="ytick_13">
     <g id="line2d_40">
      <g>
       <use style="stroke:#000000;stroke-width:0.6;" x="90" xlink:href="#m8e9503617b" y="878.245228"/>
      </g>
     </g>
    </g>
    <g id="ytick_14">
     <g id="line2d_41">
      <g>
       <use style="stroke:#000000;stroke-width:0.6;" x="90" xlink:href="#m8e9503617b" y="861.021955"/>
      </g>
     </g>
    </g>
    <g id="ytick_15">
     <g id="line2d_42">
      <g>
       <use style="stroke:#000000;stroke-width:0.6;" x="90" xlink:href="#m8e9503617b" y="847.662547"/>
      </g>
     </g>
    </g>
    <g id="ytick_16">
     <g id="line2d_43">
      <g>
       <use style="stroke:#000000;stroke-width:0.6;" x="90" xlink:href="#m8e9503617b" y="836.747115"/>
      </g>
     </g>
    </g>
    <g id="ytick_17">
     <g id="line2d_44">
      <g>
       <use style="stroke:#000000;stroke-width:0.6;" x="90" xlink:href="#m8e9503617b" y="827.518249"/>
      </g>
     </g>
    </g>
    <g id="ytick_18">
     <g id="line2d_45">
      <g>
       <use style="stroke:#000000;stroke-width:0.6;" x="90" xlink:href="#m8e9503617b" y="819.523842"/>
      </g>
     </g>
    </g>
    <g id="ytick_19">
     <g id="line2d_46">
      <g>
       <use style="stroke:#000000;stroke-width:0.6;" x="90" xlink:href="#m8e9503617b" y="812.472275"/>
      </g>
     </g>
    </g>
    <g id="ytick_20">
     <g id="line2d_47">
      <g>
       <use style="stroke:#000000;stroke-width:0.6;" x="90" xlink:href="#m8e9503617b" y="764.66632"/>
      </g>
     </g>
    </g>
    <g id="ytick_21">
     <g id="line2d_48">
      <g>
       <use style="stroke:#000000;stroke-width:0.6;" x="90" xlink:href="#m8e9503617b" y="740.39148"/>
      </g>
     </g>
    </g>
    <g id="ytick_22">
     <g id="line2d_49">
      <g>
       <use style="stroke:#000000;stroke-width:0.6;" x="90" xlink:href="#m8e9503617b" y="723.168207"/>
      </g>
     </g>
    </g>
    <g id="ytick_23">
     <g id="line2d_50">
      <g>
       <use style="stroke:#000000;stroke-width:0.6;" x="90" xlink:href="#m8e9503617b" y="709.808798"/>
      </g>
     </g>
    </g>
    <g id="ytick_24">
     <g id="line2d_51">
      <g>
       <use style="stroke:#000000;stroke-width:0.6;" x="90" xlink:href="#m8e9503617b" y="698.893367"/>
      </g>
     </g>
    </g>
    <g id="ytick_25">
     <g id="line2d_52">
      <g>
       <use style="stroke:#000000;stroke-width:0.6;" x="90" xlink:href="#m8e9503617b" y="689.664501"/>
      </g>
     </g>
    </g>
    <g id="ytick_26">
     <g id="line2d_53">
      <g>
       <use style="stroke:#000000;stroke-width:0.6;" x="90" xlink:href="#m8e9503617b" y="681.670093"/>
      </g>
     </g>
    </g>
    <g id="ytick_27">
     <g id="line2d_54">
      <g>
       <use style="stroke:#000000;stroke-width:0.6;" x="90" xlink:href="#m8e9503617b" y="674.618526"/>
      </g>
     </g>
    </g>
    <g id="ytick_28">
     <g id="line2d_55">
      <g>
       <use style="stroke:#000000;stroke-width:0.6;" x="90" xlink:href="#m8e9503617b" y="626.812572"/>
      </g>
     </g>
    </g>
    <g id="ytick_29">
     <g id="line2d_56">
      <g>
       <use style="stroke:#000000;stroke-width:0.6;" x="90" xlink:href="#m8e9503617b" y="602.537731"/>
      </g>
     </g>
    </g>
    <g id="ytick_30">
     <g id="line2d_57">
      <g>
       <use style="stroke:#000000;stroke-width:0.6;" x="90" xlink:href="#m8e9503617b" y="585.314458"/>
      </g>
     </g>
    </g>
    <g id="text_23">
     <!-- Count -->
     <g transform="translate(27.99025 810.68715)rotate(-90)scale(0.2592 -0.2592)">
      <use xlink:href="#DejaVuSans-67"/>
      <use x="69.824219" xlink:href="#DejaVuSans-111"/>
      <use x="131.005859" xlink:href="#DejaVuSans-117"/>
      <use x="194.384766" xlink:href="#DejaVuSans-110"/>
      <use x="257.763672" xlink:href="#DejaVuSans-116"/>
     </g>
    </g>
   </g>
   <g id="line2d_58">
    <path clip-path="url(#paf62863048)" d="M 147.230769 1081 
L 147.230769 836.747115 
L 161.538462 836.747115 
L 161.538462 744.522023 
L 175.846154 744.522023 
L 175.846154 692.286925 
L 190.153846 692.286925 
L 190.153846 654.474229 
L 204.461538 654.474229 
L 204.461538 630.199389 
L 218.769231 630.199389 
L 218.769231 617.926796 
L 233.076923 617.926796 
L 233.076923 615.400298 
L 247.384615 615.400298 
L 247.384615 610.191003 
L 261.692308 610.191003 
L 261.692308 609.290699 
L 276 609.290699 
L 276 611.799867 
L 290.307692 611.799867 
L 290.307692 617.157589 
L 304.615385 617.157589 
L 304.615385 616.650221 
L 318.923077 616.650221 
L 318.923077 629.256549 
L 333.230769 629.256549 
L 333.230769 628.02209 
L 347.538462 628.02209 
L 347.538462 628.945539 
L 361.846154 628.945539 
L 361.846154 629.883456 
L 376.153846 629.883456 
L 376.153846 624.177319 
L 390.461538 624.177319 
L 390.461538 615.153415 
L 404.769231 615.153415 
L 404.769231 604.567388 
L 419.076923 604.567388 
L 419.076923 604.567388 
L 433.384615 604.567388 
L 433.384615 605.819052 
L 447.692308 605.819052 
L 447.692308 601.942014 
L 462 601.942014 
L 462 600.381818 
L 476.307692 600.381818 
L 476.307692 608.403733 
L 490.615385 608.403733 
L 490.615385 608.624245 
L 504.923077 608.624245 
L 504.923077 611.335763 
L 519.230769 611.335763 
L 519.230769 612.50284 
L 533.538462 612.50284 
L 533.538462 617.669294 
L 547.846154 617.669294 
L 547.846154 628.636138 
L 562.153846 628.636138 
L 562.153846 630.199389 
L 576.461538 630.199389 
L 576.461538 635.150069 
L 590.769231 635.150069 
L 590.769231 634.465843 
L 605.076923 634.465843 
L 605.076923 639.798963 
L 619.384615 639.798963 
L 619.384615 647.317166 
L 633.692308 647.317166 
L 633.692308 646.065501 
L 648 646.065501 
" style="fill:none;stroke:#1f77b4;stroke-linecap:square;stroke-width:1.5;"/>
   </g>
   <g id="line2d_59">
    <path clip-path="url(#paf62863048)" d="M 147.230769 1081 
L 147.230769 847.662547 
L 161.538462 847.662547 
L 161.538462 756.298895 
L 175.846154 756.298895 
L 175.846154 695.029502 
L 190.153846 695.029502 
L 190.153846 655.916928 
L 204.461538 655.916928 
L 204.461538 630.516998 
L 218.769231 630.516998 
L 218.769231 618.18541 
L 233.076923 618.18541 
L 233.076923 615.400298 
L 247.384615 615.400298 
L 247.384615 610.646284 
L 261.692308 610.646284 
L 261.692308 609.514509 
L 276 609.514509 
L 276 612.033275 
L 290.307692 612.033275 
L 290.307692 617.926796 
L 304.615385 617.926796 
L 304.615385 616.903367 
L 318.923077 616.903367 
L 318.923077 629.883456 
L 333.230769 629.883456 
L 333.230769 629.569182 
L 347.538462 629.569182 
L 347.538462 630.516998 
L 361.846154 630.516998 
L 361.846154 631.480061 
L 376.153846 631.480061 
L 376.153846 624.752988 
L 390.461538 624.752988 
L 390.461538 615.153415 
L 404.769231 615.153415 
L 404.769231 604.77419 
L 419.076923 604.77419 
L 419.076923 604.981708 
L 433.384615 604.981708 
L 433.384615 605.819052 
L 447.692308 605.819052 
L 447.692308 602.3385 
L 462 602.3385 
L 462 600.768072 
L 476.307692 600.768072 
L 476.307692 609.067722 
L 490.615385 609.067722 
L 490.615385 608.845573 
L 504.923077 608.845573 
L 504.923077 611.567365 
L 519.230769 611.567365 
L 519.230769 612.50284 
L 533.538462 612.50284 
L 533.538462 617.926796 
L 547.846154 617.926796 
L 547.846154 628.945539 
L 562.153846 628.945539 
L 562.153846 630.516998 
L 576.461538 630.516998 
L 576.461538 635.150069 
L 590.769231 635.150069 
L 590.769231 634.806979 
L 605.076923 634.806979 
L 605.076923 640.17198 
L 619.384615 640.17198 
L 619.384615 647.317166 
L 633.692308 647.317166 
L 633.692308 646.065501 
L 648 646.065501 
" style="fill:none;stroke:#ff7f0e;stroke-linecap:square;stroke-width:1.5;"/>
   </g>
   <g id="line2d_60">
    <path clip-path="url(#paf62863048)" d="M 90 944.018182 
L 104.307692 944.018182 
L 104.307692 790.456915 
L 118.615385 790.456915 
L 118.615385 836.747115 
L 132.923077 836.747115 
L 132.923077 878.245228 
L 147.230769 878.245228 
L 147.230769 944.018182 
L 161.538462 944.018182 
L 161.538462 902.520069 
L 175.846154 902.520069 
L 175.846154 944.018182 
L 190.153846 944.018182 
L 190.153846 1081 
M 204.461538 1081 
L 204.461538 944.018182 
L 218.769231 944.018182 
L 218.769231 902.520069 
L 233.076923 902.520069 
L 233.076923 1081 
M 290.307692 1081 
L 290.307692 944.018182 
L 304.615385 944.018182 
L 304.615385 944.018182 
L 318.923077 944.018182 
L 318.923077 1081 
M 333.230769 1081 
L 333.230769 944.018182 
L 347.538462 944.018182 
L 347.538462 944.018182 
L 361.846154 944.018182 
L 361.846154 1081 
M 433.384615 1081 
L 433.384615 944.018182 
L 447.692308 944.018182 
L 447.692308 1081 
M 533.538462 1081 
L 533.538462 944.018182 
L 547.846154 944.018182 
L 547.846154 1081 
M 576.461538 1081 
L 576.461538 944.018182 
L 590.769231 944.018182 
L 590.769231 1081 
M 633.692308 1081 
L 633.692308 944.018182 
L 648 944.018182 
" style="fill:none;stroke:#2ca02c;stroke-linecap:square;stroke-width:1.5;"/>
   </g>
   <g id="patch_10">
    <path d="M 90 961.2 
L 90 583.2 
" style="fill:none;stroke:#000000;stroke-linecap:square;stroke-linejoin:miter;stroke-width:0.8;"/>
   </g>
   <g id="patch_11">
    <path d="M 648 961.2 
L 648 583.2 
" style="fill:none;stroke:#000000;stroke-linecap:square;stroke-linejoin:miter;stroke-width:0.8;"/>
   </g>
   <g id="patch_12">
    <path d="M 90 961.2 
L 648 961.2 
" style="fill:none;stroke:#000000;stroke-linecap:square;stroke-linejoin:miter;stroke-width:0.8;"/>
   </g>
   <g id="patch_13">
    <path d="M 90 583.2 
L 648 583.2 
" style="fill:none;stroke:#000000;stroke-linecap:square;stroke-linejoin:miter;stroke-width:0.8;"/>
   </g>
   <g id="legend_2">
    <g id="patch_14">
     <path d="M 370.544063 676.861875 
L 635.4 676.861875 
Q 639 676.861875 639 673.261875 
L 639 595.8 
Q 639 592.2 635.4 592.2 
L 370.544063 592.2 
Q 366.944063 592.2 366.944063 595.8 
L 366.944063 673.261875 
Q 366.944063 676.861875 370.544063 676.861875 
z
" style="fill:#ffffff;opacity:0.5;stroke:#cccccc;stroke-linejoin:miter;"/>
    </g>
    <g id="line2d_61">
     <path d="M 374.144063 606.777188 
L 410.144063 606.777188 
" style="fill:none;stroke:#1f77b4;stroke-linecap:square;stroke-width:1.5;"/>
    </g>
    <g id="line2d_62"/>
    <g id="text_24">
     <!-- CCQE track -->
     <g transform="translate(424.544062 613.077188)scale(0.18 -0.18)">
      <use xlink:href="#DejaVuSans-67"/>
      <use x="69.824219" xlink:href="#DejaVuSans-67"/>
      <use x="139.648438" xlink:href="#DejaVuSans-81"/>
      <use x="218.359375" xlink:href="#DejaVuSans-69"/>
      <use x="281.542969" xlink:href="#DejaVuSans-32"/>
      <use x="313.330078" xlink:href="#DejaVuSans-116"/>
      <use x="352.539062" xlink:href="#DejaVuSans-114"/>
      <use x="393.652344" xlink:href="#DejaVuSans-97"/>
      <use x="454.931641" xlink:href="#DejaVuSans-99"/>
      <use x="509.912109" xlink:href="#DejaVuSans-107"/>
     </g>
    </g>
    <g id="line2d_63">
     <path d="M 374.144063 633.197813 
L 410.144063 633.197813 
" style="fill:none;stroke:#ff7f0e;stroke-linecap:square;stroke-width:1.5;"/>
    </g>
    <g id="line2d_64"/>
    <g id="text_25">
     <!-- correct CCQE track -->
     <g transform="translate(424.544062 639.497813)scale(0.18 -0.18)">
      <use xlink:href="#DejaVuSans-99"/>
      <use x="54.980469" xlink:href="#DejaVuSans-111"/>
      <use x="116.162109" xlink:href="#DejaVuSans-114"/>
      <use x="157.259766" xlink:href="#DejaVuSans-114"/>
      <use x="198.341797" xlink:href="#DejaVuSans-101"/>
      <use x="259.865234" xlink:href="#DejaVuSans-99"/>
      <use x="314.845703" xlink:href="#DejaVuSans-116"/>
      <use x="354.054688" xlink:href="#DejaVuSans-32"/>
      <use x="385.841797" xlink:href="#DejaVuSans-67"/>
      <use x="455.666016" xlink:href="#DejaVuSans-67"/>
      <use x="525.490234" xlink:href="#DejaVuSans-81"/>
      <use x="604.201172" xlink:href="#DejaVuSans-69"/>
      <use x="667.384766" xlink:href="#DejaVuSans-32"/>
      <use x="699.171875" xlink:href="#DejaVuSans-116"/>
      <use x="738.380859" xlink:href="#DejaVuSans-114"/>
      <use x="779.494141" xlink:href="#DejaVuSans-97"/>
      <use x="840.773438" xlink:href="#DejaVuSans-99"/>
      <use x="895.753906" xlink:href="#DejaVuSans-107"/>
     </g>
    </g>
    <g id="line2d_65">
     <path d="M 374.144063 659.618438 
L 410.144063 659.618438 
" style="fill:none;stroke:#2ca02c;stroke-linecap:square;stroke-width:1.5;"/>
    </g>
    <g id="line2d_66"/>
    <g id="text_26">
     <!-- incorrect CCQE shower -->
     <defs>
      <path d="M 54.890625 33.015625 
L 54.890625 0 
L 45.90625 0 
L 45.90625 32.71875 
Q 45.90625 40.484375 42.875 44.328125 
Q 39.84375 48.1875 33.796875 48.1875 
Q 26.515625 48.1875 22.3125 43.546875 
Q 18.109375 38.921875 18.109375 30.90625 
L 18.109375 0 
L 9.078125 0 
L 9.078125 75.984375 
L 18.109375 75.984375 
L 18.109375 46.1875 
Q 21.34375 51.125 25.703125 53.5625 
Q 30.078125 56 35.796875 56 
Q 45.21875 56 50.046875 50.171875 
Q 54.890625 44.34375 54.890625 33.015625 
z
" id="DejaVuSans-104"/>
      <path d="M 4.203125 54.6875 
L 13.1875 54.6875 
L 24.421875 12.015625 
L 35.59375 54.6875 
L 46.1875 54.6875 
L 57.421875 12.015625 
L 68.609375 54.6875 
L 77.59375 54.6875 
L 63.28125 0 
L 52.6875 0 
L 40.921875 44.828125 
L 29.109375 0 
L 18.5 0 
z
" id="DejaVuSans-119"/>
     </defs>
     <g transform="translate(424.544062 665.918437)scale(0.18 -0.18)">
      <use xlink:href="#DejaVuSans-105"/>
      <use x="27.783203" xlink:href="#DejaVuSans-110"/>
      <use x="91.162109" xlink:href="#DejaVuSans-99"/>
      <use x="146.142578" xlink:href="#DejaVuSans-111"/>
      <use x="207.324219" xlink:href="#DejaVuSans-114"/>
      <use x="248.421875" xlink:href="#DejaVuSans-114"/>
      <use x="289.503906" xlink:href="#DejaVuSans-101"/>
      <use x="351.027344" xlink:href="#DejaVuSans-99"/>
      <use x="406.007812" xlink:href="#DejaVuSans-116"/>
      <use x="445.216797" xlink:href="#DejaVuSans-32"/>
      <use x="477.003906" xlink:href="#DejaVuSans-67"/>
      <use x="546.828125" xlink:href="#DejaVuSans-67"/>
      <use x="616.652344" xlink:href="#DejaVuSans-81"/>
      <use x="695.363281" xlink:href="#DejaVuSans-69"/>
      <use x="758.546875" xlink:href="#DejaVuSans-32"/>
      <use x="790.333984" xlink:href="#DejaVuSans-115"/>
      <use x="842.433594" xlink:href="#DejaVuSans-104"/>
      <use x="905.8125" xlink:href="#DejaVuSans-111"/>
      <use x="966.994141" xlink:href="#DejaVuSans-119"/>
      <use x="1048.78125" xlink:href="#DejaVuSans-101"/>
      <use x="1110.304688" xlink:href="#DejaVuSans-114"/>
     </g>
    </g>
   </g>
  </g>
 </g>
 <defs>
  <clipPath id="pd158511f2b">
   <rect height="378" width="558" x="90" y="129.6"/>
  </clipPath>
  <clipPath id="paf62863048">
   <rect height="378" width="558" x="90" y="583.2"/>
  </clipPath>
 </defs>
</svg>
