<?xml version="1.0" encoding="utf-8" standalone="no"?>
<!DOCTYPE svg PUBLIC "-//W3C//DTD SVG 1.1//EN"
  "http://www.w3.org/Graphics/SVG/1.1/DTD/svg11.dtd">
<!-- Created with matplotlib (https://matplotlib.org/) -->
<svg height="1080pt" version="1.1" viewBox="0 0 720 1080" width="720pt" xmlns="http://www.w3.org/2000/svg" xmlns:xlink="http://www.w3.org/1999/xlink">
 <defs>
  <style type="text/css">
*{stroke-linecap:butt;stroke-linejoin:round;}
  </style>
 </defs>
 <g id="figure_1">
  <g id="patch_1">
   <path d="M 0 1080 
L 720 1080 
L 720 0 
L 0 0 
z
" style="fill:#ffffff;"/>
  </g>
  <g id="axes_1">
   <g id="patch_2">
    <path d="M 90 507.6 
L 648 507.6 
L 648 129.6 
L 90 129.6 
z
" style="fill:#ffffff;"/>
   </g>
   <g id="matplotlib.axis_1">
    <g id="xtick_1">
     <g id="line2d_1">
      <defs>
       <path d="M 0 0 
L 0 3.5 
" id="m3dcb867132" style="stroke:#000000;stroke-width:0.8;"/>
      </defs>
      <g>
       <use style="stroke:#000000;stroke-width:0.8;" x="90" xlink:href="#m3dcb867132" y="507.6"/>
      </g>
     </g>
    </g>
    <g id="xtick_2">
     <g id="line2d_2">
      <g>
       <use style="stroke:#000000;stroke-width:0.8;" x="201.6" xlink:href="#m3dcb867132" y="507.6"/>
      </g>
     </g>
    </g>
    <g id="xtick_3">
     <g id="line2d_3">
      <g>
       <use style="stroke:#000000;stroke-width:0.8;" x="313.2" xlink:href="#m3dcb867132" y="507.6"/>
      </g>
     </g>
    </g>
    <g id="xtick_4">
     <g id="line2d_4">
      <g>
       <use style="stroke:#000000;stroke-width:0.8;" x="424.8" xlink:href="#m3dcb867132" y="507.6"/>
      </g>
     </g>
    </g>
    <g id="xtick_5">
     <g id="line2d_5">
      <g>
       <use style="stroke:#000000;stroke-width:0.8;" x="536.4" xlink:href="#m3dcb867132" y="507.6"/>
      </g>
     </g>
    </g>
    <g id="xtick_6">
     <g id="line2d_6">
      <g>
       <use style="stroke:#000000;stroke-width:0.8;" x="648" xlink:href="#m3dcb867132" y="507.6"/>
      </g>
     </g>
    </g>
    <g id="text_1">
     <!-- mcpMomentum -->
     <defs>
      <path d="M 52 44.1875 
Q 55.375 50.25 60.0625 53.125 
Q 64.75 56 71.09375 56 
Q 79.640625 56 84.28125 50.015625 
Q 88.921875 44.046875 88.921875 33.015625 
L 88.921875 0 
L 79.890625 0 
L 79.890625 32.71875 
Q 79.890625 40.578125 77.09375 44.375 
Q 74.3125 48.1875 68.609375 48.1875 
Q 61.625 48.1875 57.5625 43.546875 
Q 53.515625 38.921875 53.515625 30.90625 
L 53.515625 0 
L 44.484375 0 
L 44.484375 32.71875 
Q 44.484375 40.625 41.703125 44.40625 
Q 38.921875 48.1875 33.109375 48.1875 
Q 26.21875 48.1875 22.15625 43.53125 
Q 18.109375 38.875 18.109375 30.90625 
L 18.109375 0 
L 9.078125 0 
L 9.078125 54.6875 
L 18.109375 54.6875 
L 18.109375 46.1875 
Q 21.1875 51.21875 25.484375 53.609375 
Q 29.78125 56 35.6875 56 
Q 41.65625 56 45.828125 52.96875 
Q 50 49.953125 52 44.1875 
z
" id="DejaVuSans-109"/>
      <path d="M 48.78125 52.59375 
L 48.78125 44.1875 
Q 44.96875 46.296875 41.140625 47.34375 
Q 37.3125 48.390625 33.40625 48.390625 
Q 24.65625 48.390625 19.8125 42.84375 
Q 14.984375 37.3125 14.984375 27.296875 
Q 14.984375 17.28125 19.8125 11.734375 
Q 24.65625 6.203125 33.40625 6.203125 
Q 37.3125 6.203125 41.140625 7.25 
Q 44.96875 8.296875 48.78125 10.40625 
L 48.78125 2.09375 
Q 45.015625 0.34375 40.984375 -0.53125 
Q 36.96875 -1.421875 32.421875 -1.421875 
Q 20.0625 -1.421875 12.78125 6.34375 
Q 5.515625 14.109375 5.515625 27.296875 
Q 5.515625 40.671875 12.859375 48.328125 
Q 20.21875 56 33.015625 56 
Q 37.15625 56 41.109375 55.140625 
Q 45.0625 54.296875 48.78125 52.59375 
z
" id="DejaVuSans-99"/>
      <path d="M 18.109375 8.203125 
L 18.109375 -20.796875 
L 9.078125 -20.796875 
L 9.078125 54.6875 
L 18.109375 54.6875 
L 18.109375 46.390625 
Q 20.953125 51.265625 25.265625 53.625 
Q 29.59375 56 35.59375 56 
Q 45.5625 56 51.78125 48.09375 
Q 58.015625 40.1875 58.015625 27.296875 
Q 58.015625 14.40625 51.78125 6.484375 
Q 45.5625 -1.421875 35.59375 -1.421875 
Q 29.59375 -1.421875 25.265625 0.953125 
Q 20.953125 3.328125 18.109375 8.203125 
z
M 48.6875 27.296875 
Q 48.6875 37.203125 44.609375 42.84375 
Q 40.53125 48.484375 33.40625 48.484375 
Q 26.265625 48.484375 22.1875 42.84375 
Q 18.109375 37.203125 18.109375 27.296875 
Q 18.109375 17.390625 22.1875 11.75 
Q 26.265625 6.109375 33.40625 6.109375 
Q 40.53125 6.109375 44.609375 11.75 
Q 48.6875 17.390625 48.6875 27.296875 
z
" id="DejaVuSans-112"/>
      <path d="M 9.8125 72.90625 
L 24.515625 72.90625 
L 43.109375 23.296875 
L 61.8125 72.90625 
L 76.515625 72.90625 
L 76.515625 0 
L 66.890625 0 
L 66.890625 64.015625 
L 48.09375 14.015625 
L 38.1875 14.015625 
L 19.390625 64.015625 
L 19.390625 0 
L 9.8125 0 
z
" id="DejaVuSans-77"/>
      <path d="M 30.609375 48.390625 
Q 23.390625 48.390625 19.1875 42.75 
Q 14.984375 37.109375 14.984375 27.296875 
Q 14.984375 17.484375 19.15625 11.84375 
Q 23.34375 6.203125 30.609375 6.203125 
Q 37.796875 6.203125 41.984375 11.859375 
Q 46.1875 17.53125 46.1875 27.296875 
Q 46.1875 37.015625 41.984375 42.703125 
Q 37.796875 48.390625 30.609375 48.390625 
z
M 30.609375 56 
Q 42.328125 56 49.015625 48.375 
Q 55.71875 40.765625 55.71875 27.296875 
Q 55.71875 13.875 49.015625 6.21875 
Q 42.328125 -1.421875 30.609375 -1.421875 
Q 18.84375 -1.421875 12.171875 6.21875 
Q 5.515625 13.875 5.515625 27.296875 
Q 5.515625 40.765625 12.171875 48.375 
Q 18.84375 56 30.609375 56 
z
" id="DejaVuSans-111"/>
      <path d="M 56.203125 29.59375 
L 56.203125 25.203125 
L 14.890625 25.203125 
Q 15.484375 15.921875 20.484375 11.0625 
Q 25.484375 6.203125 34.421875 6.203125 
Q 39.59375 6.203125 44.453125 7.46875 
Q 49.3125 8.734375 54.109375 11.28125 
L 54.109375 2.78125 
Q 49.265625 0.734375 44.1875 -0.34375 
Q 39.109375 -1.421875 33.890625 -1.421875 
Q 20.796875 -1.421875 13.15625 6.1875 
Q 5.515625 13.8125 5.515625 26.8125 
Q 5.515625 40.234375 12.765625 48.109375 
Q 20.015625 56 32.328125 56 
Q 43.359375 56 49.78125 48.890625 
Q 56.203125 41.796875 56.203125 29.59375 
z
M 47.21875 32.234375 
Q 47.125 39.59375 43.09375 43.984375 
Q 39.0625 48.390625 32.421875 48.390625 
Q 24.90625 48.390625 20.390625 44.140625 
Q 15.875 39.890625 15.1875 32.171875 
z
" id="DejaVuSans-101"/>
      <path d="M 54.890625 33.015625 
L 54.890625 0 
L 45.90625 0 
L 45.90625 32.71875 
Q 45.90625 40.484375 42.875 44.328125 
Q 39.84375 48.1875 33.796875 48.1875 
Q 26.515625 48.1875 22.3125 43.546875 
Q 18.109375 38.921875 18.109375 30.90625 
L 18.109375 0 
L 9.078125 0 
L 9.078125 54.6875 
L 18.109375 54.6875 
L 18.109375 46.1875 
Q 21.34375 51.125 25.703125 53.5625 
Q 30.078125 56 35.796875 56 
Q 45.21875 56 50.046875 50.171875 
Q 54.890625 44.34375 54.890625 33.015625 
z
" id="DejaVuSans-110"/>
      <path d="M 18.3125 70.21875 
L 18.3125 54.6875 
L 36.8125 54.6875 
L 36.8125 47.703125 
L 18.3125 47.703125 
L 18.3125 18.015625 
Q 18.3125 11.328125 20.140625 9.421875 
Q 21.96875 7.515625 27.59375 7.515625 
L 36.8125 7.515625 
L 36.8125 0 
L 27.59375 0 
Q 17.1875 0 13.234375 3.875 
Q 9.28125 7.765625 9.28125 18.015625 
L 9.28125 47.703125 
L 2.6875 47.703125 
L 2.6875 54.6875 
L 9.28125 54.6875 
L 9.28125 70.21875 
z
" id="DejaVuSans-116"/>
      <path d="M 8.5 21.578125 
L 8.5 54.6875 
L 17.484375 54.6875 
L 17.484375 21.921875 
Q 17.484375 14.15625 20.5 10.265625 
Q 23.53125 6.390625 29.59375 6.390625 
Q 36.859375 6.390625 41.078125 11.03125 
Q 45.3125 15.671875 45.3125 23.6875 
L 45.3125 54.6875 
L 54.296875 54.6875 
L 54.296875 0 
L 45.3125 0 
L 45.3125 8.40625 
Q 42.046875 3.421875 37.71875 1 
Q 33.40625 -1.421875 27.6875 -1.421875 
Q 18.265625 -1.421875 13.375 4.4375 
Q 8.5 10.296875 8.5 21.578125 
z
M 31.109375 56 
z
" id="DejaVuSans-117"/>
     </defs>
     <g transform="translate(267.180975 531.29515)scale(0.2592 -0.2592)">
      <use xlink:href="#DejaVuSans-109"/>
      <use x="97.412109" xlink:href="#DejaVuSans-99"/>
      <use x="152.392578" xlink:href="#DejaVuSans-112"/>
      <use x="215.869141" xlink:href="#DejaVuSans-77"/>
      <use x="302.148438" xlink:href="#DejaVuSans-111"/>
      <use x="363.330078" xlink:href="#DejaVuSans-109"/>
      <use x="460.742188" xlink:href="#DejaVuSans-101"/>
      <use x="522.265625" xlink:href="#DejaVuSans-110"/>
      <use x="585.644531" xlink:href="#DejaVuSans-116"/>
      <use x="624.853516" xlink:href="#DejaVuSans-117"/>
      <use x="688.232422" xlink:href="#DejaVuSans-109"/>
     </g>
    </g>
   </g>
   <g id="matplotlib.axis_2">
    <g id="ytick_1">
     <g id="line2d_7">
      <defs>
       <path d="M 0 0 
L -3.5 0 
" id="m8fa4538e9a" style="stroke:#000000;stroke-width:0.8;"/>
      </defs>
      <g>
       <use style="stroke:#000000;stroke-width:0.8;" x="90" xlink:href="#m8fa4538e9a" y="507.6"/>
      </g>
     </g>
     <g id="text_2">
      <!-- 0.0 -->
      <defs>
       <path d="M 31.78125 66.40625 
Q 24.171875 66.40625 20.328125 58.90625 
Q 16.5 51.421875 16.5 36.375 
Q 16.5 21.390625 20.328125 13.890625 
Q 24.171875 6.390625 31.78125 6.390625 
Q 39.453125 6.390625 43.28125 13.890625 
Q 47.125 21.390625 47.125 36.375 
Q 47.125 51.421875 43.28125 58.90625 
Q 39.453125 66.40625 31.78125 66.40625 
z
M 31.78125 74.21875 
Q 44.046875 74.21875 50.515625 64.515625 
Q 56.984375 54.828125 56.984375 36.375 
Q 56.984375 17.96875 50.515625 8.265625 
Q 44.046875 -1.421875 31.78125 -1.421875 
Q 19.53125 -1.421875 13.0625 8.265625 
Q 6.59375 17.96875 6.59375 36.375 
Q 6.59375 54.828125 13.0625 64.515625 
Q 19.53125 74.21875 31.78125 74.21875 
z
" id="DejaVuSans-48"/>
       <path d="M 10.6875 12.40625 
L 21 12.40625 
L 21 0 
L 10.6875 0 
z
" id="DejaVuSans-46"/>
      </defs>
      <g transform="translate(41.7791 517.447575)scale(0.2592 -0.2592)">
       <use xlink:href="#DejaVuSans-48"/>
       <use x="63.623047" xlink:href="#DejaVuSans-46"/>
       <use x="95.410156" xlink:href="#DejaVuSans-48"/>
      </g>
     </g>
    </g>
    <g id="ytick_2">
     <g id="line2d_8">
      <g>
       <use style="stroke:#000000;stroke-width:0.8;" x="90" xlink:href="#m8fa4538e9a" y="432.748515"/>
      </g>
     </g>
     <g id="text_3">
      <!-- 0.2 -->
      <defs>
       <path d="M 19.1875 8.296875 
L 53.609375 8.296875 
L 53.609375 0 
L 7.328125 0 
L 7.328125 8.296875 
Q 12.9375 14.109375 22.625 23.890625 
Q 32.328125 33.6875 34.8125 36.53125 
Q 39.546875 41.84375 41.421875 45.53125 
Q 43.3125 49.21875 43.3125 52.78125 
Q 43.3125 58.59375 39.234375 62.25 
Q 35.15625 65.921875 28.609375 65.921875 
Q 23.96875 65.921875 18.8125 64.3125 
Q 13.671875 62.703125 7.8125 59.421875 
L 7.8125 69.390625 
Q 13.765625 71.78125 18.9375 73 
Q 24.125 74.21875 28.421875 74.21875 
Q 39.75 74.21875 46.484375 68.546875 
Q 53.21875 62.890625 53.21875 53.421875 
Q 53.21875 48.921875 51.53125 44.890625 
Q 49.859375 40.875 45.40625 35.40625 
Q 44.1875 33.984375 37.640625 27.21875 
Q 31.109375 20.453125 19.1875 8.296875 
z
" id="DejaVuSans-50"/>
      </defs>
      <g transform="translate(41.7791 442.59609)scale(0.2592 -0.2592)">
       <use xlink:href="#DejaVuSans-48"/>
       <use x="63.623047" xlink:href="#DejaVuSans-46"/>
       <use x="95.410156" xlink:href="#DejaVuSans-50"/>
      </g>
     </g>
    </g>
    <g id="ytick_3">
     <g id="line2d_9">
      <g>
       <use style="stroke:#000000;stroke-width:0.8;" x="90" xlink:href="#m8fa4538e9a" y="357.89703"/>
      </g>
     </g>
     <g id="text_4">
      <!-- 0.4 -->
      <defs>
       <path d="M 37.796875 64.3125 
L 12.890625 25.390625 
L 37.796875 25.390625 
z
M 35.203125 72.90625 
L 47.609375 72.90625 
L 47.609375 25.390625 
L 58.015625 25.390625 
L 58.015625 17.1875 
L 47.609375 17.1875 
L 47.609375 0 
L 37.796875 0 
L 37.796875 17.1875 
L 4.890625 17.1875 
L 4.890625 26.703125 
z
" id="DejaVuSans-52"/>
      </defs>
      <g transform="translate(41.7791 367.744605)scale(0.2592 -0.2592)">
       <use xlink:href="#DejaVuSans-48"/>
       <use x="63.623047" xlink:href="#DejaVuSans-46"/>
       <use x="95.410156" xlink:href="#DejaVuSans-52"/>
      </g>
     </g>
    </g>
    <g id="ytick_4">
     <g id="line2d_10">
      <g>
       <use style="stroke:#000000;stroke-width:0.8;" x="90" xlink:href="#m8fa4538e9a" y="283.045545"/>
      </g>
     </g>
     <g id="text_5">
      <!-- 0.6 -->
      <defs>
       <path d="M 33.015625 40.375 
Q 26.375 40.375 22.484375 35.828125 
Q 18.609375 31.296875 18.609375 23.390625 
Q 18.609375 15.53125 22.484375 10.953125 
Q 26.375 6.390625 33.015625 6.390625 
Q 39.65625 6.390625 43.53125 10.953125 
Q 47.40625 15.53125 47.40625 23.390625 
Q 47.40625 31.296875 43.53125 35.828125 
Q 39.65625 40.375 33.015625 40.375 
z
M 52.59375 71.296875 
L 52.59375 62.3125 
Q 48.875 64.0625 45.09375 64.984375 
Q 41.3125 65.921875 37.59375 65.921875 
Q 27.828125 65.921875 22.671875 59.328125 
Q 17.53125 52.734375 16.796875 39.40625 
Q 19.671875 43.65625 24.015625 45.921875 
Q 28.375 48.1875 33.59375 48.1875 
Q 44.578125 48.1875 50.953125 41.515625 
Q 57.328125 34.859375 57.328125 23.390625 
Q 57.328125 12.15625 50.6875 5.359375 
Q 44.046875 -1.421875 33.015625 -1.421875 
Q 20.359375 -1.421875 13.671875 8.265625 
Q 6.984375 17.96875 6.984375 36.375 
Q 6.984375 53.65625 15.1875 63.9375 
Q 23.390625 74.21875 37.203125 74.21875 
Q 40.921875 74.21875 44.703125 73.484375 
Q 48.484375 72.75 52.59375 71.296875 
z
" id="DejaVuSans-54"/>
      </defs>
      <g transform="translate(41.7791 292.89312)scale(0.2592 -0.2592)">
       <use xlink:href="#DejaVuSans-48"/>
       <use x="63.623047" xlink:href="#DejaVuSans-46"/>
       <use x="95.410156" xlink:href="#DejaVuSans-54"/>
      </g>
     </g>
    </g>
    <g id="ytick_5">
     <g id="line2d_11">
      <g>
       <use style="stroke:#000000;stroke-width:0.8;" x="90" xlink:href="#m8fa4538e9a" y="208.194059"/>
      </g>
     </g>
     <g id="text_6">
      <!-- 0.8 -->
      <defs>
       <path d="M 31.78125 34.625 
Q 24.75 34.625 20.71875 30.859375 
Q 16.703125 27.09375 16.703125 20.515625 
Q 16.703125 13.921875 20.71875 10.15625 
Q 24.75 6.390625 31.78125 6.390625 
Q 38.8125 6.390625 42.859375 10.171875 
Q 46.921875 13.96875 46.921875 20.515625 
Q 46.921875 27.09375 42.890625 30.859375 
Q 38.875 34.625 31.78125 34.625 
z
M 21.921875 38.8125 
Q 15.578125 40.375 12.03125 44.71875 
Q 8.5 49.078125 8.5 55.328125 
Q 8.5 64.0625 14.71875 69.140625 
Q 20.953125 74.21875 31.78125 74.21875 
Q 42.671875 74.21875 48.875 69.140625 
Q 55.078125 64.0625 55.078125 55.328125 
Q 55.078125 49.078125 51.53125 44.71875 
Q 48 40.375 41.703125 38.8125 
Q 48.828125 37.15625 52.796875 32.3125 
Q 56.78125 27.484375 56.78125 20.515625 
Q 56.78125 9.90625 50.3125 4.234375 
Q 43.84375 -1.421875 31.78125 -1.421875 
Q 19.734375 -1.421875 13.25 4.234375 
Q 6.78125 9.90625 6.78125 20.515625 
Q 6.78125 27.484375 10.78125 32.3125 
Q 14.796875 37.15625 21.921875 38.8125 
z
M 18.3125 54.390625 
Q 18.3125 48.734375 21.84375 45.5625 
Q 25.390625 42.390625 31.78125 42.390625 
Q 38.140625 42.390625 41.71875 45.5625 
Q 45.3125 48.734375 45.3125 54.390625 
Q 45.3125 60.0625 41.71875 63.234375 
Q 38.140625 66.40625 31.78125 66.40625 
Q 25.390625 66.40625 21.84375 63.234375 
Q 18.3125 60.0625 18.3125 54.390625 
z
" id="DejaVuSans-56"/>
      </defs>
      <g transform="translate(41.7791 218.041634)scale(0.2592 -0.2592)">
       <use xlink:href="#DejaVuSans-48"/>
       <use x="63.623047" xlink:href="#DejaVuSans-46"/>
       <use x="95.410156" xlink:href="#DejaVuSans-56"/>
      </g>
     </g>
    </g>
    <g id="ytick_6">
     <g id="line2d_12">
      <g>
       <use style="stroke:#000000;stroke-width:0.8;" x="90" xlink:href="#m8fa4538e9a" y="133.342574"/>
      </g>
     </g>
     <g id="text_7">
      <!-- 1.0 -->
      <defs>
       <path d="M 12.40625 8.296875 
L 28.515625 8.296875 
L 28.515625 63.921875 
L 10.984375 60.40625 
L 10.984375 69.390625 
L 28.421875 72.90625 
L 38.28125 72.90625 
L 38.28125 8.296875 
L 54.390625 8.296875 
L 54.390625 0 
L 12.40625 0 
z
" id="DejaVuSans-49"/>
      </defs>
      <g transform="translate(41.7791 143.190149)scale(0.2592 -0.2592)">
       <use xlink:href="#DejaVuSans-49"/>
       <use x="63.623047" xlink:href="#DejaVuSans-46"/>
       <use x="95.410156" xlink:href="#DejaVuSans-48"/>
      </g>
     </g>
    </g>
    <g id="text_8">
     <!-- Fraction -->
     <defs>
      <path d="M 9.8125 72.90625 
L 51.703125 72.90625 
L 51.703125 64.59375 
L 19.671875 64.59375 
L 19.671875 43.109375 
L 48.578125 43.109375 
L 48.578125 34.8125 
L 19.671875 34.8125 
L 19.671875 0 
L 9.8125 0 
z
" id="DejaVuSans-70"/>
      <path d="M 41.109375 46.296875 
Q 39.59375 47.171875 37.8125 47.578125 
Q 36.03125 48 33.890625 48 
Q 26.265625 48 22.1875 43.046875 
Q 18.109375 38.09375 18.109375 28.8125 
L 18.109375 0 
L 9.078125 0 
L 9.078125 54.6875 
L 18.109375 54.6875 
L 18.109375 46.1875 
Q 20.953125 51.171875 25.484375 53.578125 
Q 30.03125 56 36.53125 56 
Q 37.453125 56 38.578125 55.875 
Q 39.703125 55.765625 41.0625 55.515625 
z
" id="DejaVuSans-114"/>
      <path d="M 34.28125 27.484375 
Q 23.390625 27.484375 19.1875 25 
Q 14.984375 22.515625 14.984375 16.5 
Q 14.984375 11.71875 18.140625 8.90625 
Q 21.296875 6.109375 26.703125 6.109375 
Q 34.1875 6.109375 38.703125 11.40625 
Q 43.21875 16.703125 43.21875 25.484375 
L 43.21875 27.484375 
z
M 52.203125 31.203125 
L 52.203125 0 
L 43.21875 0 
L 43.21875 8.296875 
Q 40.140625 3.328125 35.546875 0.953125 
Q 30.953125 -1.421875 24.3125 -1.421875 
Q 15.921875 -1.421875 10.953125 3.296875 
Q 6 8.015625 6 15.921875 
Q 6 25.140625 12.171875 29.828125 
Q 18.359375 34.515625 30.609375 34.515625 
L 43.21875 34.515625 
L 43.21875 35.40625 
Q 43.21875 41.609375 39.140625 45 
Q 35.0625 48.390625 27.6875 48.390625 
Q 23 48.390625 18.546875 47.265625 
Q 14.109375 46.140625 10.015625 43.890625 
L 10.015625 52.203125 
Q 14.9375 54.109375 19.578125 55.046875 
Q 24.21875 56 28.609375 56 
Q 40.484375 56 46.34375 49.84375 
Q 52.203125 43.703125 52.203125 31.203125 
z
" id="DejaVuSans-97"/>
      <path d="M 9.421875 54.6875 
L 18.40625 54.6875 
L 18.40625 0 
L 9.421875 0 
z
M 9.421875 75.984375 
L 18.40625 75.984375 
L 18.40625 64.59375 
L 9.421875 64.59375 
z
" id="DejaVuSans-105"/>
     </defs>
     <g transform="translate(32.38855 371.260125)rotate(-90)scale(0.2592 -0.2592)">
      <use xlink:href="#DejaVuSans-70"/>
      <use x="57.410156" xlink:href="#DejaVuSans-114"/>
      <use x="98.523438" xlink:href="#DejaVuSans-97"/>
      <use x="159.802734" xlink:href="#DejaVuSans-99"/>
      <use x="214.783203" xlink:href="#DejaVuSans-116"/>
      <use x="253.992188" xlink:href="#DejaVuSans-105"/>
      <use x="281.775391" xlink:href="#DejaVuSans-111"/>
      <use x="342.957031" xlink:href="#DejaVuSans-110"/>
     </g>
    </g>
   </g>
   <g id="LineCollection_1">
    <path clip-path="url(#pc670886b8c)" d="M 97.153846 194.391043 
L 97.153846 134.670343 
" style="fill:none;stroke:#008000;stroke-width:1.5;"/>
    <path clip-path="url(#pc670886b8c)" d="M 111.461538 203.073841 
L 111.461538 193.282339 
" style="fill:none;stroke:#008000;stroke-width:1.5;"/>
    <path clip-path="url(#pc670886b8c)" d="M 125.769231 212.84694 
L 125.769231 188.463182 
" style="fill:none;stroke:#008000;stroke-width:1.5;"/>
    <path clip-path="url(#pc670886b8c)" d="M 140.076923 192.908178 
L 140.076923 154.697495 
" style="fill:none;stroke:#008000;stroke-width:1.5;"/>
    <path clip-path="url(#pc670886b8c)" d="M 154.384615 161.852075 
L 154.384615 133.622106 
" style="fill:none;stroke:#008000;stroke-width:1.5;"/>
    <path clip-path="url(#pc670886b8c)" d="M 168.692308 172.212724 
L 168.692308 133.867943 
" style="fill:none;stroke:#008000;stroke-width:1.5;"/>
    <path clip-path="url(#pc670886b8c)" d="M 183 133.342574 
L 183 133.342574 
" style="fill:none;stroke:#008000;stroke-width:1.5;"/>
    <path clip-path="url(#pc670886b8c)" d="M 197.307692 133.342574 
L 197.307692 133.342574 
" style="fill:none;stroke:#008000;stroke-width:1.5;"/>
    <path clip-path="url(#pc670886b8c)" d="M 211.615385 304.176579 
L 211.615385 176.369956 
" style="fill:none;stroke:#008000;stroke-width:1.5;"/>
    <path clip-path="url(#pc670886b8c)" d="M 225.923077 133.342574 
L 225.923077 133.342574 
" style="fill:none;stroke:#008000;stroke-width:1.5;"/>
    <path clip-path="url(#pc670886b8c)" d="M 240.230769 133.342574 
L 240.230769 133.342574 
" style="fill:none;stroke:#008000;stroke-width:1.5;"/>
    <path clip-path="url(#pc670886b8c)" d="M 254.538462 133.342574 
L 254.538462 133.342574 
" style="fill:none;stroke:#008000;stroke-width:1.5;"/>
    <path clip-path="url(#pc670886b8c)" d="M 268.846154 133.342574 
L 268.846154 133.342574 
" style="fill:none;stroke:#008000;stroke-width:1.5;"/>
    <path clip-path="url(#pc670886b8c)" d="M 283.153846 133.342574 
L 283.153846 133.342574 
" style="fill:none;stroke:#008000;stroke-width:1.5;"/>
    <path clip-path="url(#pc670886b8c)" d="M 297.461538 275.143263 
L 297.461538 141.244856 
" style="fill:none;stroke:#008000;stroke-width:1.5;"/>
    <path clip-path="url(#pc670886b8c)" d="M 311.769231 236.307213 
L 311.769231 137.308628 
" style="fill:none;stroke:#008000;stroke-width:1.5;"/>
    <path clip-path="url(#pc670886b8c)" d="M 326.076923 133.342574 
L 326.076923 133.342574 
" style="fill:none;stroke:#008000;stroke-width:1.5;"/>
    <path clip-path="url(#pc670886b8c)" d="M 340.384615 307.93604 
L 340.384615 145.877821 
" style="fill:none;stroke:#008000;stroke-width:1.5;"/>
    <path clip-path="url(#pc670886b8c)" d="M 354.692308 307.93604 
L 354.692308 145.877821 
" style="fill:none;stroke:#008000;stroke-width:1.5;"/>
    <path clip-path="url(#pc670886b8c)" d="M 369 133.342574 
L 369 133.342574 
" style="fill:none;stroke:#008000;stroke-width:1.5;"/>
    <path clip-path="url(#pc670886b8c)" d="M 383.307692 133.342574 
L 383.307692 133.342574 
" style="fill:none;stroke:#008000;stroke-width:1.5;"/>
    <path clip-path="url(#pc670886b8c)" d="M 397.615385 133.342574 
L 397.615385 133.342574 
" style="fill:none;stroke:#008000;stroke-width:1.5;"/>
    <path clip-path="url(#pc670886b8c)" d="M 411.923077 133.342574 
L 411.923077 133.342574 
" style="fill:none;stroke:#008000;stroke-width:1.5;"/>
    <path clip-path="url(#pc670886b8c)" d="M 426.230769 133.342574 
L 426.230769 133.342574 
" style="fill:none;stroke:#008000;stroke-width:1.5;"/>
    <path clip-path="url(#pc670886b8c)" d="M 440.538462 359.955019 
L 440.538462 156.23508 
" style="fill:none;stroke:#008000;stroke-width:1.5;"/>
    <path clip-path="url(#pc670886b8c)" d="M 454.846154 133.342574 
L 454.846154 133.342574 
" style="fill:none;stroke:#008000;stroke-width:1.5;"/>
    <path clip-path="url(#pc670886b8c)" d="M 469.153846 133.342574 
L 469.153846 133.342574 
" style="fill:none;stroke:#008000;stroke-width:1.5;"/>
    <path clip-path="url(#pc670886b8c)" d="M 483.461538 133.342574 
L 483.461538 133.342574 
" style="fill:none;stroke:#008000;stroke-width:1.5;"/>
    <path clip-path="url(#pc670886b8c)" d="M 497.769231 133.342574 
L 497.769231 133.342574 
" style="fill:none;stroke:#008000;stroke-width:1.5;"/>
    <path clip-path="url(#pc670886b8c)" d="M 512.076923 133.342574 
L 512.076923 133.342574 
" style="fill:none;stroke:#008000;stroke-width:1.5;"/>
    <path clip-path="url(#pc670886b8c)" d="M 526.384615 133.342574 
L 526.384615 133.342574 
" style="fill:none;stroke:#008000;stroke-width:1.5;"/>
    <path clip-path="url(#pc670886b8c)" d="M 540.692308 275.143263 
L 540.692308 141.244856 
" style="fill:none;stroke:#008000;stroke-width:1.5;"/>
    <path clip-path="url(#pc670886b8c)" d="M 555 133.342574 
L 555 133.342574 
" style="fill:none;stroke:#008000;stroke-width:1.5;"/>
    <path clip-path="url(#pc670886b8c)" d="M 569.307692 275.143263 
L 569.307692 141.244856 
" style="fill:none;stroke:#008000;stroke-width:1.5;"/>
    <path clip-path="url(#pc670886b8c)" d="M 583.615385 252.660266 
L 583.615385 138.777358 
" style="fill:none;stroke:#008000;stroke-width:1.5;"/>
    <path clip-path="url(#pc670886b8c)" d="M 597.923077 452.791269 
L 597.923077 188.151305 
" style="fill:none;stroke:#008000;stroke-width:1.5;"/>
    <path clip-path="url(#pc670886b8c)" d="M 612.230769 133.342574 
L 612.230769 133.342574 
" style="fill:none;stroke:#008000;stroke-width:1.5;"/>
    <path clip-path="url(#pc670886b8c)" d="M 626.538462 133.342574 
L 626.538462 133.342574 
" style="fill:none;stroke:#008000;stroke-width:1.5;"/>
    <path clip-path="url(#pc670886b8c)" d="M 640.846154 307.93604 
L 640.846154 145.877821 
" style="fill:none;stroke:#008000;stroke-width:1.5;"/>
   </g>
   <g id="line2d_13">
    <path clip-path="url(#pc670886b8c)" d="M 90 164.530693 
L 104.307692 164.530693 
L 104.307692 198.17809 
L 118.615385 198.17809 
L 118.615385 200.655061 
L 132.923077 200.655061 
L 132.923077 173.802836 
L 147.230769 173.802836 
L 147.230769 147.737091 
L 161.538462 147.737091 
L 161.538462 153.040334 
L 175.846154 153.040334 
L 175.846154 133.342574 
L 190.153846 133.342574 
L 190.153846 133.342574 
L 204.461538 133.342574 
L 204.461538 240.273267 
L 218.769231 240.273267 
L 218.769231 133.342574 
L 233.076923 133.342574 
L 233.076923 133.342574 
L 247.384615 133.342574 
L 247.384615 133.342574 
L 261.692308 133.342574 
L 261.692308 133.342574 
L 276 133.342574 
L 276 133.342574 
L 290.307692 133.342574 
L 290.307692 208.194059 
L 304.615385 208.194059 
L 304.615385 186.807921 
L 318.923077 186.807921 
L 318.923077 133.342574 
L 333.230769 133.342574 
L 333.230769 226.906931 
L 347.538462 226.906931 
L 347.538462 226.906931 
L 361.846154 226.906931 
L 361.846154 133.342574 
L 376.153846 133.342574 
L 376.153846 133.342574 
L 390.461538 133.342574 
L 390.461538 133.342574 
L 404.769231 133.342574 
L 404.769231 133.342574 
L 419.076923 133.342574 
L 419.076923 133.342574 
L 433.384615 133.342574 
L 433.384615 258.09505 
L 447.692308 258.09505 
L 447.692308 133.342574 
L 462 133.342574 
L 462 133.342574 
L 476.307692 133.342574 
L 476.307692 133.342574 
L 490.615385 133.342574 
L 490.615385 133.342574 
L 504.923077 133.342574 
L 504.923077 133.342574 
L 519.230769 133.342574 
L 519.230769 133.342574 
L 533.538462 133.342574 
L 533.538462 208.194059 
L 547.846154 208.194059 
L 547.846154 133.342574 
L 562.153846 133.342574 
L 562.153846 208.194059 
L 576.461538 208.194059 
L 576.461538 195.718812 
L 590.769231 195.718812 
L 590.769231 320.471287 
L 605.076923 320.471287 
L 605.076923 133.342574 
L 619.384615 133.342574 
L 619.384615 133.342574 
L 633.692308 133.342574 
L 633.692308 226.906931 
L 648 226.906931 
" style="fill:none;stroke:#008000;stroke-linecap:square;stroke-width:1.5;"/>
   </g>
   <g id="line2d_14">
    <defs>
     <path d="M 2 0 
L -2 -0 
" id="m461ab8fadf" style="stroke:#008000;"/>
    </defs>
    <g clip-path="url(#pc670886b8c)">
     <use style="fill:#008000;stroke:#008000;" x="97.153846" xlink:href="#m461ab8fadf" y="194.391043"/>
     <use style="fill:#008000;stroke:#008000;" x="111.461538" xlink:href="#m461ab8fadf" y="203.073841"/>
     <use style="fill:#008000;stroke:#008000;" x="125.769231" xlink:href="#m461ab8fadf" y="212.84694"/>
     <use style="fill:#008000;stroke:#008000;" x="140.076923" xlink:href="#m461ab8fadf" y="192.908178"/>
     <use style="fill:#008000;stroke:#008000;" x="154.384615" xlink:href="#m461ab8fadf" y="161.852075"/>
     <use style="fill:#008000;stroke:#008000;" x="168.692308" xlink:href="#m461ab8fadf" y="172.212724"/>
     <use style="fill:#008000;stroke:#008000;" x="183" xlink:href="#m461ab8fadf" y="133.342574"/>
     <use style="fill:#008000;stroke:#008000;" x="197.307692" xlink:href="#m461ab8fadf" y="133.342574"/>
     <use style="fill:#008000;stroke:#008000;" x="211.615385" xlink:href="#m461ab8fadf" y="304.176579"/>
     <use style="fill:#008000;stroke:#008000;" x="225.923077" xlink:href="#m461ab8fadf" y="133.342574"/>
     <use style="fill:#008000;stroke:#008000;" x="240.230769" xlink:href="#m461ab8fadf" y="133.342574"/>
     <use style="fill:#008000;stroke:#008000;" x="254.538462" xlink:href="#m461ab8fadf" y="133.342574"/>
     <use style="fill:#008000;stroke:#008000;" x="268.846154" xlink:href="#m461ab8fadf" y="133.342574"/>
     <use style="fill:#008000;stroke:#008000;" x="283.153846" xlink:href="#m461ab8fadf" y="133.342574"/>
     <use style="fill:#008000;stroke:#008000;" x="297.461538" xlink:href="#m461ab8fadf" y="275.143263"/>
     <use style="fill:#008000;stroke:#008000;" x="311.769231" xlink:href="#m461ab8fadf" y="236.307213"/>
     <use style="fill:#008000;stroke:#008000;" x="326.076923" xlink:href="#m461ab8fadf" y="133.342574"/>
     <use style="fill:#008000;stroke:#008000;" x="340.384615" xlink:href="#m461ab8fadf" y="307.93604"/>
     <use style="fill:#008000;stroke:#008000;" x="354.692308" xlink:href="#m461ab8fadf" y="307.93604"/>
     <use style="fill:#008000;stroke:#008000;" x="369" xlink:href="#m461ab8fadf" y="133.342574"/>
     <use style="fill:#008000;stroke:#008000;" x="383.307692" xlink:href="#m461ab8fadf" y="133.342574"/>
     <use style="fill:#008000;stroke:#008000;" x="397.615385" xlink:href="#m461ab8fadf" y="133.342574"/>
     <use style="fill:#008000;stroke:#008000;" x="411.923077" xlink:href="#m461ab8fadf" y="133.342574"/>
     <use style="fill:#008000;stroke:#008000;" x="426.230769" xlink:href="#m461ab8fadf" y="133.342574"/>
     <use style="fill:#008000;stroke:#008000;" x="440.538462" xlink:href="#m461ab8fadf" y="359.955019"/>
     <use style="fill:#008000;stroke:#008000;" x="454.846154" xlink:href="#m461ab8fadf" y="133.342574"/>
     <use style="fill:#008000;stroke:#008000;" x="469.153846" xlink:href="#m461ab8fadf" y="133.342574"/>
     <use style="fill:#008000;stroke:#008000;" x="483.461538" xlink:href="#m461ab8fadf" y="133.342574"/>
     <use style="fill:#008000;stroke:#008000;" x="497.769231" xlink:href="#m461ab8fadf" y="133.342574"/>
     <use style="fill:#008000;stroke:#008000;" x="512.076923" xlink:href="#m461ab8fadf" y="133.342574"/>
     <use style="fill:#008000;stroke:#008000;" x="526.384615" xlink:href="#m461ab8fadf" y="133.342574"/>
     <use style="fill:#008000;stroke:#008000;" x="540.692308" xlink:href="#m461ab8fadf" y="275.143263"/>
     <use style="fill:#008000;stroke:#008000;" x="555" xlink:href="#m461ab8fadf" y="133.342574"/>
     <use style="fill:#008000;stroke:#008000;" x="569.307692" xlink:href="#m461ab8fadf" y="275.143263"/>
     <use style="fill:#008000;stroke:#008000;" x="583.615385" xlink:href="#m461ab8fadf" y="252.660266"/>
     <use style="fill:#008000;stroke:#008000;" x="597.923077" xlink:href="#m461ab8fadf" y="452.791269"/>
     <use style="fill:#008000;stroke:#008000;" x="612.230769" xlink:href="#m461ab8fadf" y="133.342574"/>
     <use style="fill:#008000;stroke:#008000;" x="626.538462" xlink:href="#m461ab8fadf" y="133.342574"/>
     <use style="fill:#008000;stroke:#008000;" x="640.846154" xlink:href="#m461ab8fadf" y="307.93604"/>
    </g>
   </g>
   <g id="line2d_15">
    <g clip-path="url(#pc670886b8c)">
     <use style="fill:#008000;stroke:#008000;" x="97.153846" xlink:href="#m461ab8fadf" y="134.670343"/>
     <use style="fill:#008000;stroke:#008000;" x="111.461538" xlink:href="#m461ab8fadf" y="193.282339"/>
     <use style="fill:#008000;stroke:#008000;" x="125.769231" xlink:href="#m461ab8fadf" y="188.463182"/>
     <use style="fill:#008000;stroke:#008000;" x="140.076923" xlink:href="#m461ab8fadf" y="154.697495"/>
     <use style="fill:#008000;stroke:#008000;" x="154.384615" xlink:href="#m461ab8fadf" y="133.622106"/>
     <use style="fill:#008000;stroke:#008000;" x="168.692308" xlink:href="#m461ab8fadf" y="133.867943"/>
     <use style="fill:#008000;stroke:#008000;" x="183" xlink:href="#m461ab8fadf" y="133.342574"/>
     <use style="fill:#008000;stroke:#008000;" x="197.307692" xlink:href="#m461ab8fadf" y="133.342574"/>
     <use style="fill:#008000;stroke:#008000;" x="211.615385" xlink:href="#m461ab8fadf" y="176.369956"/>
     <use style="fill:#008000;stroke:#008000;" x="225.923077" xlink:href="#m461ab8fadf" y="133.342574"/>
     <use style="fill:#008000;stroke:#008000;" x="240.230769" xlink:href="#m461ab8fadf" y="133.342574"/>
     <use style="fill:#008000;stroke:#008000;" x="254.538462" xlink:href="#m461ab8fadf" y="133.342574"/>
     <use style="fill:#008000;stroke:#008000;" x="268.846154" xlink:href="#m461ab8fadf" y="133.342574"/>
     <use style="fill:#008000;stroke:#008000;" x="283.153846" xlink:href="#m461ab8fadf" y="133.342574"/>
     <use style="fill:#008000;stroke:#008000;" x="297.461538" xlink:href="#m461ab8fadf" y="141.244856"/>
     <use style="fill:#008000;stroke:#008000;" x="311.769231" xlink:href="#m461ab8fadf" y="137.308628"/>
     <use style="fill:#008000;stroke:#008000;" x="326.076923" xlink:href="#m461ab8fadf" y="133.342574"/>
     <use style="fill:#008000;stroke:#008000;" x="340.384615" xlink:href="#m461ab8fadf" y="145.877821"/>
     <use style="fill:#008000;stroke:#008000;" x="354.692308" xlink:href="#m461ab8fadf" y="145.877821"/>
     <use style="fill:#008000;stroke:#008000;" x="369" xlink:href="#m461ab8fadf" y="133.342574"/>
     <use style="fill:#008000;stroke:#008000;" x="383.307692" xlink:href="#m461ab8fadf" y="133.342574"/>
     <use style="fill:#008000;stroke:#008000;" x="397.615385" xlink:href="#m461ab8fadf" y="133.342574"/>
     <use style="fill:#008000;stroke:#008000;" x="411.923077" xlink:href="#m461ab8fadf" y="133.342574"/>
     <use style="fill:#008000;stroke:#008000;" x="426.230769" xlink:href="#m461ab8fadf" y="133.342574"/>
     <use style="fill:#008000;stroke:#008000;" x="440.538462" xlink:href="#m461ab8fadf" y="156.23508"/>
     <use style="fill:#008000;stroke:#008000;" x="454.846154" xlink:href="#m461ab8fadf" y="133.342574"/>
     <use style="fill:#008000;stroke:#008000;" x="469.153846" xlink:href="#m461ab8fadf" y="133.342574"/>
     <use style="fill:#008000;stroke:#008000;" x="483.461538" xlink:href="#m461ab8fadf" y="133.342574"/>
     <use style="fill:#008000;stroke:#008000;" x="497.769231" xlink:href="#m461ab8fadf" y="133.342574"/>
     <use style="fill:#008000;stroke:#008000;" x="512.076923" xlink:href="#m461ab8fadf" y="133.342574"/>
     <use style="fill:#008000;stroke:#008000;" x="526.384615" xlink:href="#m461ab8fadf" y="133.342574"/>
     <use style="fill:#008000;stroke:#008000;" x="540.692308" xlink:href="#m461ab8fadf" y="141.244856"/>
     <use style="fill:#008000;stroke:#008000;" x="555" xlink:href="#m461ab8fadf" y="133.342574"/>
     <use style="fill:#008000;stroke:#008000;" x="569.307692" xlink:href="#m461ab8fadf" y="141.244856"/>
     <use style="fill:#008000;stroke:#008000;" x="583.615385" xlink:href="#m461ab8fadf" y="138.777358"/>
     <use style="fill:#008000;stroke:#008000;" x="597.923077" xlink:href="#m461ab8fadf" y="188.151305"/>
     <use style="fill:#008000;stroke:#008000;" x="612.230769" xlink:href="#m461ab8fadf" y="133.342574"/>
     <use style="fill:#008000;stroke:#008000;" x="626.538462" xlink:href="#m461ab8fadf" y="133.342574"/>
     <use style="fill:#008000;stroke:#008000;" x="640.846154" xlink:href="#m461ab8fadf" y="145.877821"/>
    </g>
   </g>
   <g id="patch_3">
    <path d="M 90 507.6 
L 90 129.6 
" style="fill:none;stroke:#000000;stroke-linecap:square;stroke-linejoin:miter;stroke-width:0.8;"/>
   </g>
   <g id="patch_4">
    <path d="M 648 507.6 
L 648 129.6 
" style="fill:none;stroke:#000000;stroke-linecap:square;stroke-linejoin:miter;stroke-width:0.8;"/>
   </g>
   <g id="patch_5">
    <path d="M 90 507.6 
L 648 507.6 
" style="fill:none;stroke:#000000;stroke-linecap:square;stroke-linejoin:miter;stroke-width:0.8;"/>
   </g>
   <g id="patch_6">
    <path d="M 90 129.6 
L 648 129.6 
" style="fill:none;stroke:#000000;stroke-linecap:square;stroke-linejoin:miter;stroke-width:0.8;"/>
   </g>
   <g id="text_9">
    <!-- Purity/Efficiency vs mcpMomentum -->
    <defs>
     <path d="M 19.671875 64.796875 
L 19.671875 37.40625 
L 32.078125 37.40625 
Q 38.96875 37.40625 42.71875 40.96875 
Q 46.484375 44.53125 46.484375 51.125 
Q 46.484375 57.671875 42.71875 61.234375 
Q 38.96875 64.796875 32.078125 64.796875 
z
M 9.8125 72.90625 
L 32.078125 72.90625 
Q 44.34375 72.90625 50.609375 67.359375 
Q 56.890625 61.8125 56.890625 51.125 
Q 56.890625 40.328125 50.609375 34.8125 
Q 44.34375 29.296875 32.078125 29.296875 
L 19.671875 29.296875 
L 19.671875 0 
L 9.8125 0 
z
" id="DejaVuSans-80"/>
     <path d="M 32.171875 -5.078125 
Q 28.375 -14.84375 24.75 -17.8125 
Q 21.140625 -20.796875 15.09375 -20.796875 
L 7.90625 -20.796875 
L 7.90625 -13.28125 
L 13.1875 -13.28125 
Q 16.890625 -13.28125 18.9375 -11.515625 
Q 21 -9.765625 23.484375 -3.21875 
L 25.09375 0.875 
L 2.984375 54.6875 
L 12.5 54.6875 
L 29.59375 11.921875 
L 46.6875 54.6875 
L 56.203125 54.6875 
z
" id="DejaVuSans-121"/>
     <path d="M 25.390625 72.90625 
L 33.6875 72.90625 
L 8.296875 -9.28125 
L 0 -9.28125 
z
" id="DejaVuSans-47"/>
     <path d="M 9.8125 72.90625 
L 55.90625 72.90625 
L 55.90625 64.59375 
L 19.671875 64.59375 
L 19.671875 43.015625 
L 54.390625 43.015625 
L 54.390625 34.71875 
L 19.671875 34.71875 
L 19.671875 8.296875 
L 56.78125 8.296875 
L 56.78125 0 
L 9.8125 0 
z
" id="DejaVuSans-69"/>
     <path d="M 37.109375 75.984375 
L 37.109375 68.5 
L 28.515625 68.5 
Q 23.6875 68.5 21.796875 66.546875 
Q 19.921875 64.59375 19.921875 59.515625 
L 19.921875 54.6875 
L 34.71875 54.6875 
L 34.71875 47.703125 
L 19.921875 47.703125 
L 19.921875 0 
L 10.890625 0 
L 10.890625 47.703125 
L 2.296875 47.703125 
L 2.296875 54.6875 
L 10.890625 54.6875 
L 10.890625 58.5 
Q 10.890625 67.625 15.140625 71.796875 
Q 19.390625 75.984375 28.609375 75.984375 
z
" id="DejaVuSans-102"/>
     <path id="DejaVuSans-32"/>
     <path d="M 2.984375 54.6875 
L 12.5 54.6875 
L 29.59375 8.796875 
L 46.6875 54.6875 
L 56.203125 54.6875 
L 35.6875 0 
L 23.484375 0 
z
" id="DejaVuSans-118"/>
     <path d="M 44.28125 53.078125 
L 44.28125 44.578125 
Q 40.484375 46.53125 36.375 47.5 
Q 32.28125 48.484375 27.875 48.484375 
Q 21.1875 48.484375 17.84375 46.4375 
Q 14.5 44.390625 14.5 40.28125 
Q 14.5 37.15625 16.890625 35.375 
Q 19.28125 33.59375 26.515625 31.984375 
L 29.59375 31.296875 
Q 39.15625 29.25 43.1875 25.515625 
Q 47.21875 21.78125 47.21875 15.09375 
Q 47.21875 7.46875 41.1875 3.015625 
Q 35.15625 -1.421875 24.609375 -1.421875 
Q 20.21875 -1.421875 15.453125 -0.5625 
Q 10.6875 0.296875 5.421875 2 
L 5.421875 11.28125 
Q 10.40625 8.6875 15.234375 7.390625 
Q 20.0625 6.109375 24.8125 6.109375 
Q 31.15625 6.109375 34.5625 8.28125 
Q 37.984375 10.453125 37.984375 14.40625 
Q 37.984375 18.0625 35.515625 20.015625 
Q 33.0625 21.96875 24.703125 23.78125 
L 21.578125 24.515625 
Q 13.234375 26.265625 9.515625 29.90625 
Q 5.8125 33.546875 5.8125 39.890625 
Q 5.8125 47.609375 11.28125 51.796875 
Q 16.75 56 26.8125 56 
Q 31.78125 56 36.171875 55.265625 
Q 40.578125 54.546875 44.28125 53.078125 
z
" id="DejaVuSans-115"/>
    </defs>
    <g transform="translate(139.824675 94.57527)scale(0.2592 -0.2592)">
     <use xlink:href="#DejaVuSans-80"/>
     <use x="60.287109" xlink:href="#DejaVuSans-117"/>
     <use x="123.666016" xlink:href="#DejaVuSans-114"/>
     <use x="164.779297" xlink:href="#DejaVuSans-105"/>
     <use x="192.5625" xlink:href="#DejaVuSans-116"/>
     <use x="231.771484" xlink:href="#DejaVuSans-121"/>
     <use x="290.951172" xlink:href="#DejaVuSans-47"/>
     <use x="324.642578" xlink:href="#DejaVuSans-69"/>
     <use x="387.826172" xlink:href="#DejaVuSans-102"/>
     <use x="423.03125" xlink:href="#DejaVuSans-102"/>
     <use x="458.236328" xlink:href="#DejaVuSans-105"/>
     <use x="486.019531" xlink:href="#DejaVuSans-99"/>
     <use x="541" xlink:href="#DejaVuSans-105"/>
     <use x="568.783203" xlink:href="#DejaVuSans-101"/>
     <use x="630.306641" xlink:href="#DejaVuSans-110"/>
     <use x="693.685547" xlink:href="#DejaVuSans-99"/>
     <use x="748.666016" xlink:href="#DejaVuSans-121"/>
     <use x="807.845703" xlink:href="#DejaVuSans-32"/>
     <use x="839.632812" xlink:href="#DejaVuSans-118"/>
     <use x="898.8125" xlink:href="#DejaVuSans-115"/>
     <use x="950.912109" xlink:href="#DejaVuSans-32"/>
     <use x="982.699219" xlink:href="#DejaVuSans-109"/>
     <use x="1080.111328" xlink:href="#DejaVuSans-99"/>
     <use x="1135.091797" xlink:href="#DejaVuSans-112"/>
     <use x="1198.568359" xlink:href="#DejaVuSans-77"/>
     <use x="1284.847656" xlink:href="#DejaVuSans-111"/>
     <use x="1346.029297" xlink:href="#DejaVuSans-109"/>
     <use x="1443.441406" xlink:href="#DejaVuSans-101"/>
     <use x="1504.964844" xlink:href="#DejaVuSans-110"/>
     <use x="1568.34375" xlink:href="#DejaVuSans-116"/>
     <use x="1607.552734" xlink:href="#DejaVuSans-117"/>
     <use x="1670.931641" xlink:href="#DejaVuSans-109"/>
    </g>
    <!-- Cutoff=-1.460, electron shower classification -->
    <defs>
     <path d="M 64.40625 67.28125 
L 64.40625 56.890625 
Q 59.421875 61.53125 53.78125 63.8125 
Q 48.140625 66.109375 41.796875 66.109375 
Q 29.296875 66.109375 22.65625 58.46875 
Q 16.015625 50.828125 16.015625 36.375 
Q 16.015625 21.96875 22.65625 14.328125 
Q 29.296875 6.6875 41.796875 6.6875 
Q 48.140625 6.6875 53.78125 8.984375 
Q 59.421875 11.28125 64.40625 15.921875 
L 64.40625 5.609375 
Q 59.234375 2.09375 53.4375 0.328125 
Q 47.65625 -1.421875 41.21875 -1.421875 
Q 24.65625 -1.421875 15.125 8.703125 
Q 5.609375 18.84375 5.609375 36.375 
Q 5.609375 53.953125 15.125 64.078125 
Q 24.65625 74.21875 41.21875 74.21875 
Q 47.75 74.21875 53.53125 72.484375 
Q 59.328125 70.75 64.40625 67.28125 
z
" id="DejaVuSans-67"/>
     <path d="M 10.59375 45.40625 
L 73.1875 45.40625 
L 73.1875 37.203125 
L 10.59375 37.203125 
z
M 10.59375 25.484375 
L 73.1875 25.484375 
L 73.1875 17.1875 
L 10.59375 17.1875 
z
" id="DejaVuSans-61"/>
     <path d="M 4.890625 31.390625 
L 31.203125 31.390625 
L 31.203125 23.390625 
L 4.890625 23.390625 
z
" id="DejaVuSans-45"/>
     <path d="M 11.71875 12.40625 
L 22.015625 12.40625 
L 22.015625 4 
L 14.015625 -11.625 
L 7.71875 -11.625 
L 11.71875 4 
z
" id="DejaVuSans-44"/>
     <path d="M 9.421875 75.984375 
L 18.40625 75.984375 
L 18.40625 0 
L 9.421875 0 
z
" id="DejaVuSans-108"/>
     <path d="M 54.890625 33.015625 
L 54.890625 0 
L 45.90625 0 
L 45.90625 32.71875 
Q 45.90625 40.484375 42.875 44.328125 
Q 39.84375 48.1875 33.796875 48.1875 
Q 26.515625 48.1875 22.3125 43.546875 
Q 18.109375 38.921875 18.109375 30.90625 
L 18.109375 0 
L 9.078125 0 
L 9.078125 75.984375 
L 18.109375 75.984375 
L 18.109375 46.1875 
Q 21.34375 51.125 25.703125 53.5625 
Q 30.078125 56 35.796875 56 
Q 45.21875 56 50.046875 50.171875 
Q 54.890625 44.34375 54.890625 33.015625 
z
" id="DejaVuSans-104"/>
     <path d="M 4.203125 54.6875 
L 13.1875 54.6875 
L 24.421875 12.015625 
L 35.59375 54.6875 
L 46.1875 54.6875 
L 57.421875 12.015625 
L 68.609375 54.6875 
L 77.59375 54.6875 
L 63.28125 0 
L 52.6875 0 
L 40.921875 44.828125 
L 29.109375 0 
L 18.5 0 
z
" id="DejaVuSans-119"/>
    </defs>
    <g transform="translate(76.64265 123.6)scale(0.2592 -0.2592)">
     <use xlink:href="#DejaVuSans-67"/>
     <use x="69.824219" xlink:href="#DejaVuSans-117"/>
     <use x="133.203125" xlink:href="#DejaVuSans-116"/>
     <use x="172.412109" xlink:href="#DejaVuSans-111"/>
     <use x="233.59375" xlink:href="#DejaVuSans-102"/>
     <use x="268.798828" xlink:href="#DejaVuSans-102"/>
     <use x="304.003906" xlink:href="#DejaVuSans-61"/>
     <use x="387.792969" xlink:href="#DejaVuSans-45"/>
     <use x="423.876953" xlink:href="#DejaVuSans-49"/>
     <use x="487.5" xlink:href="#DejaVuSans-46"/>
     <use x="519.287109" xlink:href="#DejaVuSans-52"/>
     <use x="582.910156" xlink:href="#DejaVuSans-54"/>
     <use x="646.533203" xlink:href="#DejaVuSans-48"/>
     <use x="710.15625" xlink:href="#DejaVuSans-44"/>
     <use x="741.943359" xlink:href="#DejaVuSans-32"/>
     <use x="773.730469" xlink:href="#DejaVuSans-101"/>
     <use x="835.253906" xlink:href="#DejaVuSans-108"/>
     <use x="863.037109" xlink:href="#DejaVuSans-101"/>
     <use x="924.560547" xlink:href="#DejaVuSans-99"/>
     <use x="979.541016" xlink:href="#DejaVuSans-116"/>
     <use x="1018.75" xlink:href="#DejaVuSans-114"/>
     <use x="1059.832031" xlink:href="#DejaVuSans-111"/>
     <use x="1121.013672" xlink:href="#DejaVuSans-110"/>
     <use x="1184.392578" xlink:href="#DejaVuSans-32"/>
     <use x="1216.179688" xlink:href="#DejaVuSans-115"/>
     <use x="1268.279297" xlink:href="#DejaVuSans-104"/>
     <use x="1331.658203" xlink:href="#DejaVuSans-111"/>
     <use x="1392.839844" xlink:href="#DejaVuSans-119"/>
     <use x="1474.626953" xlink:href="#DejaVuSans-101"/>
     <use x="1536.150391" xlink:href="#DejaVuSans-114"/>
     <use x="1577.263672" xlink:href="#DejaVuSans-32"/>
     <use x="1609.050781" xlink:href="#DejaVuSans-99"/>
     <use x="1664.03125" xlink:href="#DejaVuSans-108"/>
     <use x="1691.814453" xlink:href="#DejaVuSans-97"/>
     <use x="1753.09375" xlink:href="#DejaVuSans-115"/>
     <use x="1805.193359" xlink:href="#DejaVuSans-115"/>
     <use x="1857.292969" xlink:href="#DejaVuSans-105"/>
     <use x="1885.076172" xlink:href="#DejaVuSans-102"/>
     <use x="1920.28125" xlink:href="#DejaVuSans-105"/>
     <use x="1948.064453" xlink:href="#DejaVuSans-99"/>
     <use x="2003.044922" xlink:href="#DejaVuSans-97"/>
     <use x="2064.324219" xlink:href="#DejaVuSans-116"/>
     <use x="2103.533203" xlink:href="#DejaVuSans-105"/>
     <use x="2131.316406" xlink:href="#DejaVuSans-111"/>
     <use x="2192.498047" xlink:href="#DejaVuSans-110"/>
    </g>
   </g>
   <g id="legend_1">
    <g id="patch_7">
     <path d="M 296.710313 498.6 
L 441.289688 498.6 
Q 444.889688 498.6 444.889688 495 
L 444.889688 470.379375 
Q 444.889688 466.779375 441.289688 466.779375 
L 296.710313 466.779375 
Q 293.110313 466.779375 293.110313 470.379375 
L 293.110313 495 
Q 293.110313 498.6 296.710313 498.6 
z
" style="fill:#ffffff;opacity:0.5;stroke:#cccccc;stroke-linejoin:miter;"/>
    </g>
    <g id="line2d_16">
     <path d="M 300.310313 481.356563 
L 336.310313 481.356563 
" style="fill:none;stroke:#008000;stroke-linecap:square;stroke-width:1.5;"/>
    </g>
    <g id="line2d_17"/>
    <g id="text_10">
     <!-- Efficiency -->
     <g transform="translate(350.710312 487.656563)scale(0.18 -0.18)">
      <use xlink:href="#DejaVuSans-69"/>
      <use x="63.183594" xlink:href="#DejaVuSans-102"/>
      <use x="98.388672" xlink:href="#DejaVuSans-102"/>
      <use x="133.59375" xlink:href="#DejaVuSans-105"/>
      <use x="161.376953" xlink:href="#DejaVuSans-99"/>
      <use x="216.357422" xlink:href="#DejaVuSans-105"/>
      <use x="244.140625" xlink:href="#DejaVuSans-101"/>
      <use x="305.664062" xlink:href="#DejaVuSans-110"/>
      <use x="369.042969" xlink:href="#DejaVuSans-99"/>
      <use x="424.023438" xlink:href="#DejaVuSans-121"/>
     </g>
    </g>
   </g>
  </g>
  <g id="axes_2">
   <g id="patch_8">
    <path d="M 90 961.2 
L 648 961.2 
L 648 583.2 
L 90 583.2 
z
" style="fill:#ffffff;"/>
   </g>
   <g id="patch_9">
    <path clip-path="url(#pdc4abf4a7d)" d="M 90 118517.963657 
L 90 817.134585 
L 104.307692 817.134585 
L 104.307692 600.381818 
L 118.615385 600.381818 
L 118.615385 692.055477 
L 132.923077 692.055477 
L 132.923077 759.638518 
L 147.230769 759.638518 
L 147.230769 777.654183 
L 161.538462 777.654183 
L 161.538462 793.670076 
L 175.846154 793.670076 
L 175.846154 831.824125 
L 190.153846 831.824125 
L 190.153846 844.656671 
L 204.461538 844.656671 
L 204.461538 844.656671 
L 218.769231 844.656671 
L 218.769231 837.838329 
L 233.076923 837.838329 
L 233.076923 821.577535 
L 247.384615 821.577535 
L 247.384615 852.527869 
L 261.692308 852.527869 
L 261.692308 826.444236 
L 276 826.444236 
L 276 887.921153 
L 290.307692 887.921153 
L 290.307692 861.837521 
L 304.615385 861.837521 
L 304.615385 844.656671 
L 318.923077 844.656671 
L 318.923077 873.231613 
L 333.230769 873.231613 
L 333.230769 873.231613 
L 347.538462 873.231613 
L 347.538462 873.231613 
L 361.846154 873.231613 
L 361.846154 873.231613 
L 376.153846 873.231613 
L 376.153846 944.018182 
L 390.461538 944.018182 
L 390.461538 944.018182 
L 404.769231 944.018182 
L 404.769231 887.921153 
L 419.076923 887.921153 
L 419.076923 873.231613 
L 433.384615 873.231613 
L 433.384615 887.921153 
L 447.692308 887.921153 
L 447.692308 873.231613 
L 462 873.231613 
L 462 944.018182 
L 476.307692 944.018182 
L 476.307692 908.624898 
L 490.615385 908.624898 
L 490.615385 944.018182 
L 504.923077 944.018182 
L 504.923077 861.837521 
L 519.230769 861.837521 
L 519.230769 887.921153 
L 533.538462 887.921153 
L 533.538462 861.837521 
L 547.846154 861.837521 
L 547.846154 861.837521 
L 562.153846 861.837521 
L 562.153846 861.837521 
L 576.461538 861.837521 
L 576.461538 852.527869 
L 590.769231 852.527869 
L 590.769231 908.624898 
L 605.076923 908.624898 
L 605.076923 944.018182 
L 619.384615 944.018182 
L 619.384615 944.018182 
L 633.692308 944.018182 
L 633.692308 873.231613 
L 648 873.231613 
L 648 118517.963657 
z
" style="fill:#1f77b4;opacity:0.2;"/>
   </g>
   <g id="matplotlib.axis_3">
    <g id="xtick_7">
     <g id="line2d_18">
      <g>
       <use style="stroke:#000000;stroke-width:0.8;" x="90" xlink:href="#m3dcb867132" y="961.2"/>
      </g>
     </g>
     <g id="text_11">
      <!-- 0.0 -->
      <g transform="translate(69.38955 987.89515)scale(0.2592 -0.2592)">
       <use xlink:href="#DejaVuSans-48"/>
       <use x="63.623047" xlink:href="#DejaVuSans-46"/>
       <use x="95.410156" xlink:href="#DejaVuSans-48"/>
      </g>
     </g>
    </g>
    <g id="xtick_8">
     <g id="line2d_19">
      <g>
       <use style="stroke:#000000;stroke-width:0.8;" x="201.6" xlink:href="#m3dcb867132" y="961.2"/>
      </g>
     </g>
     <g id="text_12">
      <!-- 0.2 -->
      <g transform="translate(180.98955 987.89515)scale(0.2592 -0.2592)">
       <use xlink:href="#DejaVuSans-48"/>
       <use x="63.623047" xlink:href="#DejaVuSans-46"/>
       <use x="95.410156" xlink:href="#DejaVuSans-50"/>
      </g>
     </g>
    </g>
    <g id="xtick_9">
     <g id="line2d_20">
      <g>
       <use style="stroke:#000000;stroke-width:0.8;" x="313.2" xlink:href="#m3dcb867132" y="961.2"/>
      </g>
     </g>
     <g id="text_13">
      <!-- 0.4 -->
      <g transform="translate(292.58955 987.89515)scale(0.2592 -0.2592)">
       <use xlink:href="#DejaVuSans-48"/>
       <use x="63.623047" xlink:href="#DejaVuSans-46"/>
       <use x="95.410156" xlink:href="#DejaVuSans-52"/>
      </g>
     </g>
    </g>
    <g id="xtick_10">
     <g id="line2d_21">
      <g>
       <use style="stroke:#000000;stroke-width:0.8;" x="424.8" xlink:href="#m3dcb867132" y="961.2"/>
      </g>
     </g>
     <g id="text_14">
      <!-- 0.6 -->
      <g transform="translate(404.18955 987.89515)scale(0.2592 -0.2592)">
       <use xlink:href="#DejaVuSans-48"/>
       <use x="63.623047" xlink:href="#DejaVuSans-46"/>
       <use x="95.410156" xlink:href="#DejaVuSans-54"/>
      </g>
     </g>
    </g>
    <g id="xtick_11">
     <g id="line2d_22">
      <g>
       <use style="stroke:#000000;stroke-width:0.8;" x="536.4" xlink:href="#m3dcb867132" y="961.2"/>
      </g>
     </g>
     <g id="text_15">
      <!-- 0.8 -->
      <g transform="translate(515.78955 987.89515)scale(0.2592 -0.2592)">
       <use xlink:href="#DejaVuSans-48"/>
       <use x="63.623047" xlink:href="#DejaVuSans-46"/>
       <use x="95.410156" xlink:href="#DejaVuSans-56"/>
      </g>
     </g>
    </g>
    <g id="xtick_12">
     <g id="line2d_23">
      <g>
       <use style="stroke:#000000;stroke-width:0.8;" x="648" xlink:href="#m3dcb867132" y="961.2"/>
      </g>
     </g>
     <g id="text_16">
      <!-- 1.0 -->
      <g transform="translate(627.38955 987.89515)scale(0.2592 -0.2592)">
       <use xlink:href="#DejaVuSans-49"/>
       <use x="63.623047" xlink:href="#DejaVuSans-46"/>
       <use x="95.410156" xlink:href="#DejaVuSans-48"/>
      </g>
     </g>
    </g>
    <g id="text_17">
     <!-- mcpMomentum -->
     <g transform="translate(267.180975 1016.98085)scale(0.2592 -0.2592)">
      <use xlink:href="#DejaVuSans-109"/>
      <use x="97.412109" xlink:href="#DejaVuSans-99"/>
      <use x="152.392578" xlink:href="#DejaVuSans-112"/>
      <use x="215.869141" xlink:href="#DejaVuSans-77"/>
      <use x="302.148438" xlink:href="#DejaVuSans-111"/>
      <use x="363.330078" xlink:href="#DejaVuSans-109"/>
      <use x="460.742188" xlink:href="#DejaVuSans-101"/>
      <use x="522.265625" xlink:href="#DejaVuSans-110"/>
      <use x="585.644531" xlink:href="#DejaVuSans-116"/>
      <use x="624.853516" xlink:href="#DejaVuSans-117"/>
      <use x="688.232422" xlink:href="#DejaVuSans-109"/>
     </g>
    </g>
   </g>
   <g id="matplotlib.axis_4">
    <g id="ytick_7">
     <g id="line2d_24">
      <g>
       <use style="stroke:#000000;stroke-width:0.8;" x="90" xlink:href="#m8fa4538e9a" y="944.018182"/>
      </g>
     </g>
     <g id="text_18">
      <!-- $\mathdefault{10^{0}}$ -->
      <g transform="translate(37.3808 953.865757)scale(0.2592 -0.2592)">
       <use transform="translate(0 0.765625)" xlink:href="#DejaVuSans-49"/>
       <use transform="translate(63.623047 0.765625)" xlink:href="#DejaVuSans-48"/>
       <use transform="translate(128.203125 39.046875)scale(0.7)" xlink:href="#DejaVuSans-48"/>
      </g>
     </g>
    </g>
    <g id="ytick_8">
     <g id="line2d_25">
      <g>
       <use style="stroke:#000000;stroke-width:0.8;" x="90" xlink:href="#m8fa4538e9a" y="826.444236"/>
      </g>
     </g>
     <g id="text_19">
      <!-- $\mathdefault{10^{1}}$ -->
      <g transform="translate(37.3808 836.291811)scale(0.2592 -0.2592)">
       <use transform="translate(0 0.684375)" xlink:href="#DejaVuSans-49"/>
       <use transform="translate(63.623047 0.684375)" xlink:href="#DejaVuSans-48"/>
       <use transform="translate(128.203125 38.965625)scale(0.7)" xlink:href="#DejaVuSans-49"/>
      </g>
     </g>
    </g>
    <g id="ytick_9">
     <g id="line2d_26">
      <g>
       <use style="stroke:#000000;stroke-width:0.8;" x="90" xlink:href="#m8fa4538e9a" y="708.870291"/>
      </g>
     </g>
     <g id="text_20">
      <!-- $\mathdefault{10^{2}}$ -->
      <g transform="translate(37.3808 718.717866)scale(0.2592 -0.2592)">
       <use transform="translate(0 0.765625)" xlink:href="#DejaVuSans-49"/>
       <use transform="translate(63.623047 0.765625)" xlink:href="#DejaVuSans-48"/>
       <use transform="translate(128.203125 39.046875)scale(0.7)" xlink:href="#DejaVuSans-50"/>
      </g>
     </g>
    </g>
    <g id="ytick_10">
     <g id="line2d_27">
      <g>
       <use style="stroke:#000000;stroke-width:0.8;" x="90" xlink:href="#m8fa4538e9a" y="591.296345"/>
      </g>
     </g>
     <g id="text_21">
      <!-- $\mathdefault{10^{3}}$ -->
      <defs>
       <path d="M 40.578125 39.3125 
Q 47.65625 37.796875 51.625 33 
Q 55.609375 28.21875 55.609375 21.1875 
Q 55.609375 10.40625 48.1875 4.484375 
Q 40.765625 -1.421875 27.09375 -1.421875 
Q 22.515625 -1.421875 17.65625 -0.515625 
Q 12.796875 0.390625 7.625 2.203125 
L 7.625 11.71875 
Q 11.71875 9.328125 16.59375 8.109375 
Q 21.484375 6.890625 26.8125 6.890625 
Q 36.078125 6.890625 40.9375 10.546875 
Q 45.796875 14.203125 45.796875 21.1875 
Q 45.796875 27.640625 41.28125 31.265625 
Q 36.765625 34.90625 28.71875 34.90625 
L 20.21875 34.90625 
L 20.21875 43.015625 
L 29.109375 43.015625 
Q 36.375 43.015625 40.234375 45.921875 
Q 44.09375 48.828125 44.09375 54.296875 
Q 44.09375 59.90625 40.109375 62.90625 
Q 36.140625 65.921875 28.71875 65.921875 
Q 24.65625 65.921875 20.015625 65.03125 
Q 15.375 64.15625 9.8125 62.3125 
L 9.8125 71.09375 
Q 15.4375 72.65625 20.34375 73.4375 
Q 25.25 74.21875 29.59375 74.21875 
Q 40.828125 74.21875 47.359375 69.109375 
Q 53.90625 64.015625 53.90625 55.328125 
Q 53.90625 49.265625 50.4375 45.09375 
Q 46.96875 40.921875 40.578125 39.3125 
z
" id="DejaVuSans-51"/>
      </defs>
      <g transform="translate(37.3808 601.14392)scale(0.2592 -0.2592)">
       <use transform="translate(0 0.765625)" xlink:href="#DejaVuSans-49"/>
       <use transform="translate(63.623047 0.765625)" xlink:href="#DejaVuSans-48"/>
       <use transform="translate(128.203125 39.046875)scale(0.7)" xlink:href="#DejaVuSans-51"/>
      </g>
     </g>
    </g>
    <g id="ytick_11">
     <g id="line2d_28">
      <defs>
       <path d="M 0 0 
L -2 0 
" id="ma390fc04a7" style="stroke:#000000;stroke-width:0.6;"/>
      </defs>
      <g>
       <use style="stroke:#000000;stroke-width:0.6;" x="90" xlink:href="#ma390fc04a7" y="955.412274"/>
      </g>
     </g>
    </g>
    <g id="ytick_12">
     <g id="line2d_29">
      <g>
       <use style="stroke:#000000;stroke-width:0.6;" x="90" xlink:href="#ma390fc04a7" y="949.398071"/>
      </g>
     </g>
    </g>
    <g id="ytick_13">
     <g id="line2d_30">
      <g>
       <use style="stroke:#000000;stroke-width:0.6;" x="90" xlink:href="#ma390fc04a7" y="908.624898"/>
      </g>
     </g>
    </g>
    <g id="ytick_14">
     <g id="line2d_31">
      <g>
       <use style="stroke:#000000;stroke-width:0.6;" x="90" xlink:href="#ma390fc04a7" y="887.921153"/>
      </g>
     </g>
    </g>
    <g id="ytick_15">
     <g id="line2d_32">
      <g>
       <use style="stroke:#000000;stroke-width:0.6;" x="90" xlink:href="#ma390fc04a7" y="873.231613"/>
      </g>
     </g>
    </g>
    <g id="ytick_16">
     <g id="line2d_33">
      <g>
       <use style="stroke:#000000;stroke-width:0.6;" x="90" xlink:href="#ma390fc04a7" y="861.837521"/>
      </g>
     </g>
    </g>
    <g id="ytick_17">
     <g id="line2d_34">
      <g>
       <use style="stroke:#000000;stroke-width:0.6;" x="90" xlink:href="#ma390fc04a7" y="852.527869"/>
      </g>
     </g>
    </g>
    <g id="ytick_18">
     <g id="line2d_35">
      <g>
       <use style="stroke:#000000;stroke-width:0.6;" x="90" xlink:href="#ma390fc04a7" y="844.656671"/>
      </g>
     </g>
    </g>
    <g id="ytick_19">
     <g id="line2d_36">
      <g>
       <use style="stroke:#000000;stroke-width:0.6;" x="90" xlink:href="#ma390fc04a7" y="837.838329"/>
      </g>
     </g>
    </g>
    <g id="ytick_20">
     <g id="line2d_37">
      <g>
       <use style="stroke:#000000;stroke-width:0.6;" x="90" xlink:href="#ma390fc04a7" y="831.824125"/>
      </g>
     </g>
    </g>
    <g id="ytick_21">
     <g id="line2d_38">
      <g>
       <use style="stroke:#000000;stroke-width:0.6;" x="90" xlink:href="#ma390fc04a7" y="791.050952"/>
      </g>
     </g>
    </g>
    <g id="ytick_22">
     <g id="line2d_39">
      <g>
       <use style="stroke:#000000;stroke-width:0.6;" x="90" xlink:href="#ma390fc04a7" y="770.347208"/>
      </g>
     </g>
    </g>
    <g id="ytick_23">
     <g id="line2d_40">
      <g>
       <use style="stroke:#000000;stroke-width:0.6;" x="90" xlink:href="#ma390fc04a7" y="755.657668"/>
      </g>
     </g>
    </g>
    <g id="ytick_24">
     <g id="line2d_41">
      <g>
       <use style="stroke:#000000;stroke-width:0.6;" x="90" xlink:href="#ma390fc04a7" y="744.263575"/>
      </g>
     </g>
    </g>
    <g id="ytick_25">
     <g id="line2d_42">
      <g>
       <use style="stroke:#000000;stroke-width:0.6;" x="90" xlink:href="#ma390fc04a7" y="734.953924"/>
      </g>
     </g>
    </g>
    <g id="ytick_26">
     <g id="line2d_43">
      <g>
       <use style="stroke:#000000;stroke-width:0.6;" x="90" xlink:href="#ma390fc04a7" y="727.082725"/>
      </g>
     </g>
    </g>
    <g id="ytick_27">
     <g id="line2d_44">
      <g>
       <use style="stroke:#000000;stroke-width:0.6;" x="90" xlink:href="#ma390fc04a7" y="720.264383"/>
      </g>
     </g>
    </g>
    <g id="ytick_28">
     <g id="line2d_45">
      <g>
       <use style="stroke:#000000;stroke-width:0.6;" x="90" xlink:href="#ma390fc04a7" y="714.25018"/>
      </g>
     </g>
    </g>
    <g id="ytick_29">
     <g id="line2d_46">
      <g>
       <use style="stroke:#000000;stroke-width:0.6;" x="90" xlink:href="#ma390fc04a7" y="673.477007"/>
      </g>
     </g>
    </g>
    <g id="ytick_30">
     <g id="line2d_47">
      <g>
       <use style="stroke:#000000;stroke-width:0.6;" x="90" xlink:href="#ma390fc04a7" y="652.773262"/>
      </g>
     </g>
    </g>
    <g id="ytick_31">
     <g id="line2d_48">
      <g>
       <use style="stroke:#000000;stroke-width:0.6;" x="90" xlink:href="#ma390fc04a7" y="638.083722"/>
      </g>
     </g>
    </g>
    <g id="ytick_32">
     <g id="line2d_49">
      <g>
       <use style="stroke:#000000;stroke-width:0.6;" x="90" xlink:href="#ma390fc04a7" y="626.68963"/>
      </g>
     </g>
    </g>
    <g id="ytick_33">
     <g id="line2d_50">
      <g>
       <use style="stroke:#000000;stroke-width:0.6;" x="90" xlink:href="#ma390fc04a7" y="617.379978"/>
      </g>
     </g>
    </g>
    <g id="ytick_34">
     <g id="line2d_51">
      <g>
       <use style="stroke:#000000;stroke-width:0.6;" x="90" xlink:href="#ma390fc04a7" y="609.50878"/>
      </g>
     </g>
    </g>
    <g id="ytick_35">
     <g id="line2d_52">
      <g>
       <use style="stroke:#000000;stroke-width:0.6;" x="90" xlink:href="#ma390fc04a7" y="602.690438"/>
      </g>
     </g>
    </g>
    <g id="ytick_36">
     <g id="line2d_53">
      <g>
       <use style="stroke:#000000;stroke-width:0.6;" x="90" xlink:href="#ma390fc04a7" y="596.676234"/>
      </g>
     </g>
    </g>
    <g id="text_22">
     <!-- Count -->
     <g transform="translate(27.99025 810.68715)rotate(-90)scale(0.2592 -0.2592)">
      <use xlink:href="#DejaVuSans-67"/>
      <use x="69.824219" xlink:href="#DejaVuSans-111"/>
      <use x="131.005859" xlink:href="#DejaVuSans-117"/>
      <use x="194.384766" xlink:href="#DejaVuSans-110"/>
      <use x="257.763672" xlink:href="#DejaVuSans-116"/>
     </g>
    </g>
   </g>
   <g id="line2d_54">
    <path clip-path="url(#pdc4abf4a7d)" d="M 90 817.134585 
L 104.307692 817.134585 
L 104.307692 600.381818 
L 118.615385 600.381818 
L 118.615385 692.055477 
L 132.923077 692.055477 
L 132.923077 759.638518 
L 147.230769 759.638518 
L 147.230769 777.654183 
L 161.538462 777.654183 
L 161.538462 793.670076 
L 175.846154 793.670076 
L 175.846154 831.824125 
L 190.153846 831.824125 
L 190.153846 844.656671 
L 204.461538 844.656671 
L 204.461538 844.656671 
L 218.769231 844.656671 
L 218.769231 837.838329 
L 233.076923 837.838329 
L 233.076923 821.577535 
L 247.384615 821.577535 
L 247.384615 852.527869 
L 261.692308 852.527869 
L 261.692308 826.444236 
L 276 826.444236 
L 276 887.921153 
L 290.307692 887.921153 
L 290.307692 861.837521 
L 304.615385 861.837521 
L 304.615385 844.656671 
L 318.923077 844.656671 
L 318.923077 873.231613 
L 333.230769 873.231613 
L 333.230769 873.231613 
L 347.538462 873.231613 
L 347.538462 873.231613 
L 361.846154 873.231613 
L 361.846154 873.231613 
L 376.153846 873.231613 
L 376.153846 944.018182 
L 390.461538 944.018182 
L 390.461538 944.018182 
L 404.769231 944.018182 
L 404.769231 887.921153 
L 419.076923 887.921153 
L 419.076923 873.231613 
L 433.384615 873.231613 
L 433.384615 887.921153 
L 447.692308 887.921153 
L 447.692308 873.231613 
L 462 873.231613 
L 462 944.018182 
L 476.307692 944.018182 
L 476.307692 908.624898 
L 490.615385 908.624898 
L 490.615385 944.018182 
L 504.923077 944.018182 
L 504.923077 861.837521 
L 519.230769 861.837521 
L 519.230769 887.921153 
L 533.538462 887.921153 
L 533.538462 861.837521 
L 547.846154 861.837521 
L 547.846154 861.837521 
L 562.153846 861.837521 
L 562.153846 861.837521 
L 576.461538 861.837521 
L 576.461538 852.527869 
L 590.769231 852.527869 
L 590.769231 908.624898 
L 605.076923 908.624898 
L 605.076923 944.018182 
L 619.384615 944.018182 
L 619.384615 944.018182 
L 633.692308 944.018182 
L 633.692308 873.231613 
L 648 873.231613 
" style="fill:none;stroke:#1f77b4;stroke-linecap:square;stroke-width:1.5;"/>
   </g>
   <g id="line2d_55">
    <path clip-path="url(#pdc4abf4a7d)" d="M 90 821.577535 
L 104.307692 821.577535 
L 104.307692 610.095703 
L 118.615385 610.095703 
L 118.615385 702.179763 
L 132.923077 702.179763 
L 132.923077 765.480507 
L 147.230769 765.480507 
L 147.230769 779.656859 
L 161.538462 779.656859 
L 161.538462 796.430841 
L 175.846154 796.430841 
L 175.846154 831.824125 
L 190.153846 831.824125 
L 190.153846 844.656671 
L 204.461538 844.656671 
L 204.461538 861.837521 
L 218.769231 861.837521 
L 218.769231 837.838329 
L 233.076923 837.838329 
L 233.076923 821.577535 
L 247.384615 821.577535 
L 247.384615 852.527869 
L 261.692308 852.527869 
L 261.692308 826.444236 
L 276 826.444236 
L 276 887.921153 
L 290.307692 887.921153 
L 290.307692 873.231613 
L 304.615385 873.231613 
L 304.615385 852.527869 
L 318.923077 852.527869 
L 318.923077 873.231613 
L 333.230769 873.231613 
L 333.230769 887.921153 
L 347.538462 887.921153 
L 347.538462 887.921153 
L 361.846154 887.921153 
L 361.846154 873.231613 
L 376.153846 873.231613 
L 376.153846 944.018182 
L 390.461538 944.018182 
L 390.461538 944.018182 
L 404.769231 944.018182 
L 404.769231 887.921153 
L 419.076923 887.921153 
L 419.076923 873.231613 
L 433.384615 873.231613 
L 433.384615 908.624898 
L 447.692308 908.624898 
L 447.692308 873.231613 
L 462 873.231613 
L 462 944.018182 
L 476.307692 944.018182 
L 476.307692 908.624898 
L 490.615385 908.624898 
L 490.615385 944.018182 
L 504.923077 944.018182 
L 504.923077 861.837521 
L 519.230769 861.837521 
L 519.230769 887.921153 
L 533.538462 887.921153 
L 533.538462 873.231613 
L 547.846154 873.231613 
L 547.846154 861.837521 
L 562.153846 861.837521 
L 562.153846 873.231613 
L 576.461538 873.231613 
L 576.461538 861.837521 
L 590.769231 861.837521 
L 590.769231 944.018182 
L 605.076923 944.018182 
L 605.076923 944.018182 
L 619.384615 944.018182 
L 619.384615 944.018182 
L 633.692308 944.018182 
L 633.692308 887.921153 
L 648 887.921153 
" style="fill:none;stroke:#ff7f0e;stroke-linecap:square;stroke-width:1.5;"/>
   </g>
   <g id="patch_10">
    <path d="M 90 961.2 
L 90 583.2 
" style="fill:none;stroke:#000000;stroke-linecap:square;stroke-linejoin:miter;stroke-width:0.8;"/>
   </g>
   <g id="patch_11">
    <path d="M 648 961.2 
L 648 583.2 
" style="fill:none;stroke:#000000;stroke-linecap:square;stroke-linejoin:miter;stroke-width:0.8;"/>
   </g>
   <g id="patch_12">
    <path d="M 90 961.2 
L 648 961.2 
" style="fill:none;stroke:#000000;stroke-linecap:square;stroke-linejoin:miter;stroke-width:0.8;"/>
   </g>
   <g id="patch_13">
    <path d="M 90 583.2 
L 648 583.2 
" style="fill:none;stroke:#000000;stroke-linecap:square;stroke-linejoin:miter;stroke-width:0.8;"/>
   </g>
   <g id="legend_2">
    <g id="patch_14">
     <path d="M 363.7125 650.44125 
L 635.4 650.44125 
Q 639 650.44125 639 646.84125 
L 639 595.8 
Q 639 592.2 635.4 592.2 
L 363.7125 592.2 
Q 360.1125 592.2 360.1125 595.8 
L 360.1125 646.84125 
Q 360.1125 650.44125 363.7125 650.44125 
z
" style="fill:#ffffff;opacity:0.5;stroke:#cccccc;stroke-linejoin:miter;"/>
    </g>
    <g id="line2d_56">
     <path d="M 367.3125 606.777188 
L 403.3125 606.777188 
" style="fill:none;stroke:#1f77b4;stroke-linecap:square;stroke-width:1.5;"/>
    </g>
    <g id="line2d_57"/>
    <g id="text_23">
     <!-- electron shower -->
     <g transform="translate(417.7125 613.077188)scale(0.18 -0.18)">
      <use xlink:href="#DejaVuSans-101"/>
      <use x="61.523438" xlink:href="#DejaVuSans-108"/>
      <use x="89.306641" xlink:href="#DejaVuSans-101"/>
      <use x="150.830078" xlink:href="#DejaVuSans-99"/>
      <use x="205.810547" xlink:href="#DejaVuSans-116"/>
      <use x="245.019531" xlink:href="#DejaVuSans-114"/>
      <use x="286.101562" xlink:href="#DejaVuSans-111"/>
      <use x="347.283203" xlink:href="#DejaVuSans-110"/>
      <use x="410.662109" xlink:href="#DejaVuSans-32"/>
      <use x="442.449219" xlink:href="#DejaVuSans-115"/>
      <use x="494.548828" xlink:href="#DejaVuSans-104"/>
      <use x="557.927734" xlink:href="#DejaVuSans-111"/>
      <use x="619.109375" xlink:href="#DejaVuSans-119"/>
      <use x="700.896484" xlink:href="#DejaVuSans-101"/>
      <use x="762.419922" xlink:href="#DejaVuSans-114"/>
     </g>
    </g>
    <g id="line2d_58">
     <path d="M 367.3125 633.197813 
L 403.3125 633.197813 
" style="fill:none;stroke:#ff7f0e;stroke-linecap:square;stroke-width:1.5;"/>
    </g>
    <g id="line2d_59"/>
    <g id="text_24">
     <!-- correct electron shower -->
     <g transform="translate(417.7125 639.497813)scale(0.18 -0.18)">
      <use xlink:href="#DejaVuSans-99"/>
      <use x="54.980469" xlink:href="#DejaVuSans-111"/>
      <use x="116.162109" xlink:href="#DejaVuSans-114"/>
      <use x="157.259766" xlink:href="#DejaVuSans-114"/>
      <use x="198.341797" xlink:href="#DejaVuSans-101"/>
      <use x="259.865234" xlink:href="#DejaVuSans-99"/>
      <use x="314.845703" xlink:href="#DejaVuSans-116"/>
      <use x="354.054688" xlink:href="#DejaVuSans-32"/>
      <use x="385.841797" xlink:href="#DejaVuSans-101"/>
      <use x="447.365234" xlink:href="#DejaVuSans-108"/>
      <use x="475.148438" xlink:href="#DejaVuSans-101"/>
      <use x="536.671875" xlink:href="#DejaVuSans-99"/>
      <use x="591.652344" xlink:href="#DejaVuSans-116"/>
      <use x="630.861328" xlink:href="#DejaVuSans-114"/>
      <use x="671.943359" xlink:href="#DejaVuSans-111"/>
      <use x="733.125" xlink:href="#DejaVuSans-110"/>
      <use x="796.503906" xlink:href="#DejaVuSans-32"/>
      <use x="828.291016" xlink:href="#DejaVuSans-115"/>
      <use x="880.390625" xlink:href="#DejaVuSans-104"/>
      <use x="943.769531" xlink:href="#DejaVuSans-111"/>
      <use x="1004.951172" xlink:href="#DejaVuSans-119"/>
      <use x="1086.738281" xlink:href="#DejaVuSans-101"/>
      <use x="1148.261719" xlink:href="#DejaVuSans-114"/>
     </g>
    </g>
   </g>
  </g>
 </g>
 <defs>
  <clipPath id="pc670886b8c">
   <rect height="378" width="558" x="90" y="129.6"/>
  </clipPath>
  <clipPath id="pdc4abf4a7d">
   <rect height="378" width="558" x="90" y="583.2"/>
  </clipPath>
 </defs>
</svg>
