<?xml version="1.0" encoding="utf-8" standalone="no"?>
<!DOCTYPE svg PUBLIC "-//W3C//DTD SVG 1.1//EN"
  "http://www.w3.org/Graphics/SVG/1.1/DTD/svg11.dtd">
<!-- Created with matplotlib (https://matplotlib.org/) -->
<svg height="540pt" version="1.1" viewBox="0 0 720 540" width="720pt" xmlns="http://www.w3.org/2000/svg" xmlns:xlink="http://www.w3.org/1999/xlink">
 <defs>
  <style type="text/css">
*{stroke-linecap:butt;stroke-linejoin:round;}
  </style>
 </defs>
 <g id="figure_1">
  <g id="patch_1">
   <path d="M 0 540 
L 720 540 
L 720 0 
L 0 0 
z
" style="fill:#ffffff;"/>
  </g>
  <g id="axes_1">
   <g id="patch_2">
    <path d="M 90 480.6 
L 648 480.6 
L 648 64.8 
L 90 64.8 
z
" style="fill:#ffffff;"/>
   </g>
   <g id="patch_3">
    <path clip-path="url(#pcf7a3e3c2c)" d="M 90 166724.46797 
L 90 366.794695 
L 101.387755 366.794695 
L 101.387755 311.83657 
L 112.77551 311.83657 
L 112.77551 307.467409 
L 124.163265 307.467409 
L 124.163265 289.770198 
L 135.55102 289.770198 
L 135.55102 291.987883 
L 146.938776 291.987883 
L 146.938776 289.527949 
L 158.326531 289.527949 
L 158.326531 289.126001 
L 169.714286 289.126001 
L 169.714286 290.50187 
L 181.102041 290.50187 
L 181.102041 285.682306 
L 192.489796 285.682306 
L 192.489796 280.308667 
L 203.877551 280.308667 
L 203.877551 284.020262 
L 215.265306 284.020262 
L 215.265306 288.965847 
L 226.653061 288.965847 
L 226.653061 282.176963 
L 238.040816 282.176963 
L 238.040816 286.915604 
L 249.428571 286.915604 
L 249.428571 278.211456 
L 260.816327 278.211456 
L 260.816327 276.84647 
L 272.204082 276.84647 
L 272.204082 280.025487 
L 283.591837 280.025487 
L 283.591837 271.38013 
L 294.979592 271.38013 
L 294.979592 270.570007 
L 306.367347 270.570007 
L 306.367347 281.596927 
L 317.755102 281.596927 
L 317.755102 265.949766 
L 329.142857 265.949766 
L 329.142857 266.768077 
L 340.530612 266.768077 
L 340.530612 268.312898 
L 351.918367 268.312898 
L 351.918367 265.775616 
L 363.306122 265.775616 
L 363.306122 265.255677 
L 374.693878 265.255677 
L 374.693878 263.774363 
L 386.081633 263.774363 
L 386.081633 265.659749 
L 397.469388 265.659749 
L 397.469388 273.285151 
L 408.857143 273.285151 
L 408.857143 268.855454 
L 420.244898 268.855454 
L 420.244898 274.191692 
L 431.632653 274.191692 
L 431.632653 270.384342 
L 443.020408 270.384342 
L 443.020408 271.067466 
L 454.408163 271.067466 
L 454.408163 267.358327 
L 465.795918 267.358327 
L 465.795918 294.275982 
L 477.183673 294.275982 
L 477.183673 325.594181 
L 488.571429 325.594181 
L 488.571429 274.649275 
L 499.959184 274.649275 
L 499.959184 274.322134 
L 511.346939 274.322134 
L 511.346939 267.417619 
L 522.734694 267.417619 
L 522.734694 276.106604 
L 534.122449 276.106604 
L 534.122449 273.543001 
L 545.510204 273.543001 
L 545.510204 270.384342 
L 556.897959 270.384342 
L 556.897959 278.487583 
L 568.285714 278.487583 
L 568.285714 269.280283 
L 579.673469 269.280283 
L 579.673469 271.694157 
L 591.061224 271.694157 
L 591.061224 268.734532 
L 602.44898 268.734532 
L 602.44898 268.013234 
L 613.836735 268.013234 
L 613.836735 272.262877 
L 625.22449 272.262877 
L 625.22449 267.417619 
L 636.612245 267.417619 
L 636.612245 252.520003 
L 648 252.520003 
L 648 166724.46797 
z
" style="fill:#1f77b4;opacity:0.2;"/>
   </g>
   <g id="patch_4">
    <path clip-path="url(#pcf7a3e3c2c)" d="M 90 166724.46797 
L 90 241.121652 
L 101.387755 241.121652 
L 101.387755 201.58335 
L 112.77551 201.58335 
L 112.77551 191.435359 
L 124.163265 191.435359 
L 124.163265 181.796375 
L 135.55102 181.796375 
L 135.55102 180.612831 
L 146.938776 180.612831 
L 146.938776 183.999371 
L 158.326531 183.999371 
L 158.326531 177.941683 
L 169.714286 177.941683 
L 169.714286 176.971328 
L 181.102041 176.971328 
L 181.102041 173.424474 
L 192.489796 173.424474 
L 192.489796 172.544499 
L 203.877551 172.544499 
L 203.877551 174.299031 
L 215.265306 174.299031 
L 215.265306 175.250343 
L 226.653061 175.250343 
L 226.653061 174.120018 
L 238.040816 174.120018 
L 238.040816 172.528598 
L 249.428571 172.528598 
L 249.428571 170.228576 
L 260.816327 170.228576 
L 260.816327 169.052473 
L 272.204082 169.052473 
L 272.204082 166.771002 
L 283.591837 166.771002 
L 283.591837 167.390131 
L 294.979592 167.390131 
L 294.979592 162.069332 
L 306.367347 162.069332 
L 306.367347 169.921245 
L 317.755102 169.921245 
L 317.755102 164.332152 
L 329.142857 164.332152 
L 329.142857 164.346343 
L 340.530612 164.346343 
L 340.530612 164.873385 
L 351.918367 164.873385 
L 351.918367 162.968737 
L 363.306122 162.968737 
L 363.306122 164.431548 
L 374.693878 164.431548 
L 374.693878 163.289696 
L 386.081633 163.289696 
L 386.081633 164.559544 
L 397.469388 164.559544 
L 397.469388 165.649565 
L 408.857143 165.649565 
L 408.857143 162.607627 
L 420.244898 162.607627 
L 420.244898 164.716294 
L 431.632653 164.716294 
L 431.632653 162.234534 
L 443.020408 162.234534 
L 443.020408 164.431548 
L 454.408163 164.431548 
L 454.408163 164.048917 
L 465.795918 164.048917 
L 465.795918 166.434196 
L 477.183673 166.434196 
L 477.183673 187.396425 
L 488.571429 187.396425 
L 488.571429 167.895255 
L 499.959184 167.895255 
L 499.959184 165.910161 
L 511.346939 165.910161 
L 511.346939 165.997236 
L 522.734694 165.997236 
L 522.734694 166.200821 
L 534.122449 166.200821 
L 534.122449 167.020961 
L 545.510204 167.020961 
L 545.510204 164.020655 
L 556.897959 164.020655 
L 556.897959 164.190395 
L 568.285714 164.190395 
L 568.285714 163.485764 
L 579.673469 163.485764 
L 579.673469 165.002169 
L 591.061224 165.002169 
L 591.061224 163.668307 
L 602.44898 163.668307 
L 602.44898 162.289685 
L 613.836735 162.289685 
L 613.836735 166.026284 
L 625.22449 166.026284 
L 625.22449 164.687768 
L 636.612245 164.687768 
L 636.612245 83.7 
L 648 83.7 
L 648 166724.46797 
z
" style="fill:#ff7f0e;opacity:0.2;"/>
   </g>
   <g id="matplotlib.axis_1">
    <g id="xtick_1">
     <g id="line2d_1">
      <defs>
       <path d="M 0 0 
L 0 3.5 
" id="m6ec14c68a7" style="stroke:#000000;stroke-width:0.8;"/>
      </defs>
      <g>
       <use style="stroke:#000000;stroke-width:0.8;" x="90" xlink:href="#m6ec14c68a7" y="480.6"/>
      </g>
     </g>
     <g id="text_1">
      <!-- 0 -->
      <defs>
       <path d="M 31.78125 66.40625 
Q 24.171875 66.40625 20.328125 58.90625 
Q 16.5 51.421875 16.5 36.375 
Q 16.5 21.390625 20.328125 13.890625 
Q 24.171875 6.390625 31.78125 6.390625 
Q 39.453125 6.390625 43.28125 13.890625 
Q 47.125 21.390625 47.125 36.375 
Q 47.125 51.421875 43.28125 58.90625 
Q 39.453125 66.40625 31.78125 66.40625 
z
M 31.78125 74.21875 
Q 44.046875 74.21875 50.515625 64.515625 
Q 56.984375 54.828125 56.984375 36.375 
Q 56.984375 17.96875 50.515625 8.265625 
Q 44.046875 -1.421875 31.78125 -1.421875 
Q 19.53125 -1.421875 13.0625 8.265625 
Q 6.59375 17.96875 6.59375 36.375 
Q 6.59375 54.828125 13.0625 64.515625 
Q 19.53125 74.21875 31.78125 74.21875 
z
" id="DejaVuSans-48"/>
      </defs>
      <g transform="translate(81.7542 507.29515)scale(0.2592 -0.2592)">
       <use xlink:href="#DejaVuSans-48"/>
      </g>
     </g>
    </g>
    <g id="xtick_2">
     <g id="line2d_2">
      <g>
       <use style="stroke:#000000;stroke-width:0.8;" x="197.638889" xlink:href="#m6ec14c68a7" y="480.6"/>
      </g>
     </g>
     <g id="text_2">
      <!-- 200 -->
      <defs>
       <path d="M 19.1875 8.296875 
L 53.609375 8.296875 
L 53.609375 0 
L 7.328125 0 
L 7.328125 8.296875 
Q 12.9375 14.109375 22.625 23.890625 
Q 32.328125 33.6875 34.8125 36.53125 
Q 39.546875 41.84375 41.421875 45.53125 
Q 43.3125 49.21875 43.3125 52.78125 
Q 43.3125 58.59375 39.234375 62.25 
Q 35.15625 65.921875 28.609375 65.921875 
Q 23.96875 65.921875 18.8125 64.3125 
Q 13.671875 62.703125 7.8125 59.421875 
L 7.8125 69.390625 
Q 13.765625 71.78125 18.9375 73 
Q 24.125 74.21875 28.421875 74.21875 
Q 39.75 74.21875 46.484375 68.546875 
Q 53.21875 62.890625 53.21875 53.421875 
Q 53.21875 48.921875 51.53125 44.890625 
Q 49.859375 40.875 45.40625 35.40625 
Q 44.1875 33.984375 37.640625 27.21875 
Q 31.109375 20.453125 19.1875 8.296875 
z
" id="DejaVuSans-50"/>
      </defs>
      <g transform="translate(172.901489 507.29515)scale(0.2592 -0.2592)">
       <use xlink:href="#DejaVuSans-50"/>
       <use x="63.623047" xlink:href="#DejaVuSans-48"/>
       <use x="127.246094" xlink:href="#DejaVuSans-48"/>
      </g>
     </g>
    </g>
    <g id="xtick_3">
     <g id="line2d_3">
      <g>
       <use style="stroke:#000000;stroke-width:0.8;" x="305.277778" xlink:href="#m6ec14c68a7" y="480.6"/>
      </g>
     </g>
     <g id="text_3">
      <!-- 400 -->
      <defs>
       <path d="M 37.796875 64.3125 
L 12.890625 25.390625 
L 37.796875 25.390625 
z
M 35.203125 72.90625 
L 47.609375 72.90625 
L 47.609375 25.390625 
L 58.015625 25.390625 
L 58.015625 17.1875 
L 47.609375 17.1875 
L 47.609375 0 
L 37.796875 0 
L 37.796875 17.1875 
L 4.890625 17.1875 
L 4.890625 26.703125 
z
" id="DejaVuSans-52"/>
      </defs>
      <g transform="translate(280.540378 507.29515)scale(0.2592 -0.2592)">
       <use xlink:href="#DejaVuSans-52"/>
       <use x="63.623047" xlink:href="#DejaVuSans-48"/>
       <use x="127.246094" xlink:href="#DejaVuSans-48"/>
      </g>
     </g>
    </g>
    <g id="xtick_4">
     <g id="line2d_4">
      <g>
       <use style="stroke:#000000;stroke-width:0.8;" x="412.916667" xlink:href="#m6ec14c68a7" y="480.6"/>
      </g>
     </g>
     <g id="text_4">
      <!-- 600 -->
      <defs>
       <path d="M 33.015625 40.375 
Q 26.375 40.375 22.484375 35.828125 
Q 18.609375 31.296875 18.609375 23.390625 
Q 18.609375 15.53125 22.484375 10.953125 
Q 26.375 6.390625 33.015625 6.390625 
Q 39.65625 6.390625 43.53125 10.953125 
Q 47.40625 15.53125 47.40625 23.390625 
Q 47.40625 31.296875 43.53125 35.828125 
Q 39.65625 40.375 33.015625 40.375 
z
M 52.59375 71.296875 
L 52.59375 62.3125 
Q 48.875 64.0625 45.09375 64.984375 
Q 41.3125 65.921875 37.59375 65.921875 
Q 27.828125 65.921875 22.671875 59.328125 
Q 17.53125 52.734375 16.796875 39.40625 
Q 19.671875 43.65625 24.015625 45.921875 
Q 28.375 48.1875 33.59375 48.1875 
Q 44.578125 48.1875 50.953125 41.515625 
Q 57.328125 34.859375 57.328125 23.390625 
Q 57.328125 12.15625 50.6875 5.359375 
Q 44.046875 -1.421875 33.015625 -1.421875 
Q 20.359375 -1.421875 13.671875 8.265625 
Q 6.984375 17.96875 6.984375 36.375 
Q 6.984375 53.65625 15.1875 63.9375 
Q 23.390625 74.21875 37.203125 74.21875 
Q 40.921875 74.21875 44.703125 73.484375 
Q 48.484375 72.75 52.59375 71.296875 
z
" id="DejaVuSans-54"/>
      </defs>
      <g transform="translate(388.179267 507.29515)scale(0.2592 -0.2592)">
       <use xlink:href="#DejaVuSans-54"/>
       <use x="63.623047" xlink:href="#DejaVuSans-48"/>
       <use x="127.246094" xlink:href="#DejaVuSans-48"/>
      </g>
     </g>
    </g>
    <g id="xtick_5">
     <g id="line2d_5">
      <g>
       <use style="stroke:#000000;stroke-width:0.8;" x="520.555556" xlink:href="#m6ec14c68a7" y="480.6"/>
      </g>
     </g>
     <g id="text_5">
      <!-- 800 -->
      <defs>
       <path d="M 31.78125 34.625 
Q 24.75 34.625 20.71875 30.859375 
Q 16.703125 27.09375 16.703125 20.515625 
Q 16.703125 13.921875 20.71875 10.15625 
Q 24.75 6.390625 31.78125 6.390625 
Q 38.8125 6.390625 42.859375 10.171875 
Q 46.921875 13.96875 46.921875 20.515625 
Q 46.921875 27.09375 42.890625 30.859375 
Q 38.875 34.625 31.78125 34.625 
z
M 21.921875 38.8125 
Q 15.578125 40.375 12.03125 44.71875 
Q 8.5 49.078125 8.5 55.328125 
Q 8.5 64.0625 14.71875 69.140625 
Q 20.953125 74.21875 31.78125 74.21875 
Q 42.671875 74.21875 48.875 69.140625 
Q 55.078125 64.0625 55.078125 55.328125 
Q 55.078125 49.078125 51.53125 44.71875 
Q 48 40.375 41.703125 38.8125 
Q 48.828125 37.15625 52.796875 32.3125 
Q 56.78125 27.484375 56.78125 20.515625 
Q 56.78125 9.90625 50.3125 4.234375 
Q 43.84375 -1.421875 31.78125 -1.421875 
Q 19.734375 -1.421875 13.25 4.234375 
Q 6.78125 9.90625 6.78125 20.515625 
Q 6.78125 27.484375 10.78125 32.3125 
Q 14.796875 37.15625 21.921875 38.8125 
z
M 18.3125 54.390625 
Q 18.3125 48.734375 21.84375 45.5625 
Q 25.390625 42.390625 31.78125 42.390625 
Q 38.140625 42.390625 41.71875 45.5625 
Q 45.3125 48.734375 45.3125 54.390625 
Q 45.3125 60.0625 41.71875 63.234375 
Q 38.140625 66.40625 31.78125 66.40625 
Q 25.390625 66.40625 21.84375 63.234375 
Q 18.3125 60.0625 18.3125 54.390625 
z
" id="DejaVuSans-56"/>
      </defs>
      <g transform="translate(495.818156 507.29515)scale(0.2592 -0.2592)">
       <use xlink:href="#DejaVuSans-56"/>
       <use x="63.623047" xlink:href="#DejaVuSans-48"/>
       <use x="127.246094" xlink:href="#DejaVuSans-48"/>
      </g>
     </g>
    </g>
    <g id="xtick_6">
     <g id="line2d_6">
      <g>
       <use style="stroke:#000000;stroke-width:0.8;" x="628.194444" xlink:href="#m6ec14c68a7" y="480.6"/>
      </g>
     </g>
     <g id="text_6">
      <!-- 1000 -->
      <defs>
       <path d="M 12.40625 8.296875 
L 28.515625 8.296875 
L 28.515625 63.921875 
L 10.984375 60.40625 
L 10.984375 69.390625 
L 28.421875 72.90625 
L 38.28125 72.90625 
L 38.28125 8.296875 
L 54.390625 8.296875 
L 54.390625 0 
L 12.40625 0 
z
" id="DejaVuSans-49"/>
      </defs>
      <g transform="translate(595.211244 507.29515)scale(0.2592 -0.2592)">
       <use xlink:href="#DejaVuSans-49"/>
       <use x="63.623047" xlink:href="#DejaVuSans-48"/>
       <use x="127.246094" xlink:href="#DejaVuSans-48"/>
       <use x="190.869141" xlink:href="#DejaVuSans-48"/>
      </g>
     </g>
    </g>
    <g id="text_7">
     <!-- maxCoordZ -->
     <defs>
      <path d="M 52 44.1875 
Q 55.375 50.25 60.0625 53.125 
Q 64.75 56 71.09375 56 
Q 79.640625 56 84.28125 50.015625 
Q 88.921875 44.046875 88.921875 33.015625 
L 88.921875 0 
L 79.890625 0 
L 79.890625 32.71875 
Q 79.890625 40.578125 77.09375 44.375 
Q 74.3125 48.1875 68.609375 48.1875 
Q 61.625 48.1875 57.5625 43.546875 
Q 53.515625 38.921875 53.515625 30.90625 
L 53.515625 0 
L 44.484375 0 
L 44.484375 32.71875 
Q 44.484375 40.625 41.703125 44.40625 
Q 38.921875 48.1875 33.109375 48.1875 
Q 26.21875 48.1875 22.15625 43.53125 
Q 18.109375 38.875 18.109375 30.90625 
L 18.109375 0 
L 9.078125 0 
L 9.078125 54.6875 
L 18.109375 54.6875 
L 18.109375 46.1875 
Q 21.1875 51.21875 25.484375 53.609375 
Q 29.78125 56 35.6875 56 
Q 41.65625 56 45.828125 52.96875 
Q 50 49.953125 52 44.1875 
z
" id="DejaVuSans-109"/>
      <path d="M 34.28125 27.484375 
Q 23.390625 27.484375 19.1875 25 
Q 14.984375 22.515625 14.984375 16.5 
Q 14.984375 11.71875 18.140625 8.90625 
Q 21.296875 6.109375 26.703125 6.109375 
Q 34.1875 6.109375 38.703125 11.40625 
Q 43.21875 16.703125 43.21875 25.484375 
L 43.21875 27.484375 
z
M 52.203125 31.203125 
L 52.203125 0 
L 43.21875 0 
L 43.21875 8.296875 
Q 40.140625 3.328125 35.546875 0.953125 
Q 30.953125 -1.421875 24.3125 -1.421875 
Q 15.921875 -1.421875 10.953125 3.296875 
Q 6 8.015625 6 15.921875 
Q 6 25.140625 12.171875 29.828125 
Q 18.359375 34.515625 30.609375 34.515625 
L 43.21875 34.515625 
L 43.21875 35.40625 
Q 43.21875 41.609375 39.140625 45 
Q 35.0625 48.390625 27.6875 48.390625 
Q 23 48.390625 18.546875 47.265625 
Q 14.109375 46.140625 10.015625 43.890625 
L 10.015625 52.203125 
Q 14.9375 54.109375 19.578125 55.046875 
Q 24.21875 56 28.609375 56 
Q 40.484375 56 46.34375 49.84375 
Q 52.203125 43.703125 52.203125 31.203125 
z
" id="DejaVuSans-97"/>
      <path d="M 54.890625 54.6875 
L 35.109375 28.078125 
L 55.90625 0 
L 45.3125 0 
L 29.390625 21.484375 
L 13.484375 0 
L 2.875 0 
L 24.125 28.609375 
L 4.6875 54.6875 
L 15.28125 54.6875 
L 29.78125 35.203125 
L 44.28125 54.6875 
z
" id="DejaVuSans-120"/>
      <path d="M 64.40625 67.28125 
L 64.40625 56.890625 
Q 59.421875 61.53125 53.78125 63.8125 
Q 48.140625 66.109375 41.796875 66.109375 
Q 29.296875 66.109375 22.65625 58.46875 
Q 16.015625 50.828125 16.015625 36.375 
Q 16.015625 21.96875 22.65625 14.328125 
Q 29.296875 6.6875 41.796875 6.6875 
Q 48.140625 6.6875 53.78125 8.984375 
Q 59.421875 11.28125 64.40625 15.921875 
L 64.40625 5.609375 
Q 59.234375 2.09375 53.4375 0.328125 
Q 47.65625 -1.421875 41.21875 -1.421875 
Q 24.65625 -1.421875 15.125 8.703125 
Q 5.609375 18.84375 5.609375 36.375 
Q 5.609375 53.953125 15.125 64.078125 
Q 24.65625 74.21875 41.21875 74.21875 
Q 47.75 74.21875 53.53125 72.484375 
Q 59.328125 70.75 64.40625 67.28125 
z
" id="DejaVuSans-67"/>
      <path d="M 30.609375 48.390625 
Q 23.390625 48.390625 19.1875 42.75 
Q 14.984375 37.109375 14.984375 27.296875 
Q 14.984375 17.484375 19.15625 11.84375 
Q 23.34375 6.203125 30.609375 6.203125 
Q 37.796875 6.203125 41.984375 11.859375 
Q 46.1875 17.53125 46.1875 27.296875 
Q 46.1875 37.015625 41.984375 42.703125 
Q 37.796875 48.390625 30.609375 48.390625 
z
M 30.609375 56 
Q 42.328125 56 49.015625 48.375 
Q 55.71875 40.765625 55.71875 27.296875 
Q 55.71875 13.875 49.015625 6.21875 
Q 42.328125 -1.421875 30.609375 -1.421875 
Q 18.84375 -1.421875 12.171875 6.21875 
Q 5.515625 13.875 5.515625 27.296875 
Q 5.515625 40.765625 12.171875 48.375 
Q 18.84375 56 30.609375 56 
z
" id="DejaVuSans-111"/>
      <path d="M 41.109375 46.296875 
Q 39.59375 47.171875 37.8125 47.578125 
Q 36.03125 48 33.890625 48 
Q 26.265625 48 22.1875 43.046875 
Q 18.109375 38.09375 18.109375 28.8125 
L 18.109375 0 
L 9.078125 0 
L 9.078125 54.6875 
L 18.109375 54.6875 
L 18.109375 46.1875 
Q 20.953125 51.171875 25.484375 53.578125 
Q 30.03125 56 36.53125 56 
Q 37.453125 56 38.578125 55.875 
Q 39.703125 55.765625 41.0625 55.515625 
z
" id="DejaVuSans-114"/>
      <path d="M 45.40625 46.390625 
L 45.40625 75.984375 
L 54.390625 75.984375 
L 54.390625 0 
L 45.40625 0 
L 45.40625 8.203125 
Q 42.578125 3.328125 38.25 0.953125 
Q 33.9375 -1.421875 27.875 -1.421875 
Q 17.96875 -1.421875 11.734375 6.484375 
Q 5.515625 14.40625 5.515625 27.296875 
Q 5.515625 40.1875 11.734375 48.09375 
Q 17.96875 56 27.875 56 
Q 33.9375 56 38.25 53.625 
Q 42.578125 51.265625 45.40625 46.390625 
z
M 14.796875 27.296875 
Q 14.796875 17.390625 18.875 11.75 
Q 22.953125 6.109375 30.078125 6.109375 
Q 37.203125 6.109375 41.296875 11.75 
Q 45.40625 17.390625 45.40625 27.296875 
Q 45.40625 37.203125 41.296875 42.84375 
Q 37.203125 48.484375 30.078125 48.484375 
Q 22.953125 48.484375 18.875 42.84375 
Q 14.796875 37.203125 14.796875 27.296875 
z
" id="DejaVuSans-100"/>
      <path d="M 5.609375 72.90625 
L 62.890625 72.90625 
L 62.890625 65.375 
L 16.796875 8.296875 
L 64.015625 8.296875 
L 64.015625 0 
L 4.5 0 
L 4.5 7.515625 
L 50.59375 64.59375 
L 5.609375 64.59375 
z
" id="DejaVuSans-90"/>
     </defs>
     <g transform="translate(293.42295 536.38085)scale(0.2592 -0.2592)">
      <use xlink:href="#DejaVuSans-109"/>
      <use x="97.412109" xlink:href="#DejaVuSans-97"/>
      <use x="158.691406" xlink:href="#DejaVuSans-120"/>
      <use x="217.871094" xlink:href="#DejaVuSans-67"/>
      <use x="287.695312" xlink:href="#DejaVuSans-111"/>
      <use x="348.876953" xlink:href="#DejaVuSans-111"/>
      <use x="410.058594" xlink:href="#DejaVuSans-114"/>
      <use x="451.15625" xlink:href="#DejaVuSans-100"/>
      <use x="514.632812" xlink:href="#DejaVuSans-90"/>
     </g>
    </g>
   </g>
   <g id="matplotlib.axis_2">
    <g id="ytick_1">
     <g id="line2d_7">
      <defs>
       <path d="M 0 0 
L -3.5 0 
" id="mb137d04af0" style="stroke:#000000;stroke-width:0.8;"/>
      </defs>
      <g>
       <use style="stroke:#000000;stroke-width:0.8;" x="90" xlink:href="#mb137d04af0" y="447.397824"/>
      </g>
     </g>
     <g id="text_8">
      <!-- $\mathdefault{10^{2}}$ -->
      <g transform="translate(37.3808 457.245399)scale(0.2592 -0.2592)">
       <use transform="translate(0 0.765625)" xlink:href="#DejaVuSans-49"/>
       <use transform="translate(63.623047 0.765625)" xlink:href="#DejaVuSans-48"/>
       <use transform="translate(128.203125 39.046875)scale(0.7)" xlink:href="#DejaVuSans-50"/>
      </g>
     </g>
    </g>
    <g id="ytick_2">
     <g id="line2d_8">
      <g>
       <use style="stroke:#000000;stroke-width:0.8;" x="90" xlink:href="#mb137d04af0" y="281.452644"/>
      </g>
     </g>
     <g id="text_9">
      <!-- $\mathdefault{10^{3}}$ -->
      <defs>
       <path d="M 40.578125 39.3125 
Q 47.65625 37.796875 51.625 33 
Q 55.609375 28.21875 55.609375 21.1875 
Q 55.609375 10.40625 48.1875 4.484375 
Q 40.765625 -1.421875 27.09375 -1.421875 
Q 22.515625 -1.421875 17.65625 -0.515625 
Q 12.796875 0.390625 7.625 2.203125 
L 7.625 11.71875 
Q 11.71875 9.328125 16.59375 8.109375 
Q 21.484375 6.890625 26.8125 6.890625 
Q 36.078125 6.890625 40.9375 10.546875 
Q 45.796875 14.203125 45.796875 21.1875 
Q 45.796875 27.640625 41.28125 31.265625 
Q 36.765625 34.90625 28.71875 34.90625 
L 20.21875 34.90625 
L 20.21875 43.015625 
L 29.109375 43.015625 
Q 36.375 43.015625 40.234375 45.921875 
Q 44.09375 48.828125 44.09375 54.296875 
Q 44.09375 59.90625 40.109375 62.90625 
Q 36.140625 65.921875 28.71875 65.921875 
Q 24.65625 65.921875 20.015625 65.03125 
Q 15.375 64.15625 9.8125 62.3125 
L 9.8125 71.09375 
Q 15.4375 72.65625 20.34375 73.4375 
Q 25.25 74.21875 29.59375 74.21875 
Q 40.828125 74.21875 47.359375 69.109375 
Q 53.90625 64.015625 53.90625 55.328125 
Q 53.90625 49.265625 50.4375 45.09375 
Q 46.96875 40.921875 40.578125 39.3125 
z
" id="DejaVuSans-51"/>
      </defs>
      <g transform="translate(37.3808 291.300219)scale(0.2592 -0.2592)">
       <use transform="translate(0 0.765625)" xlink:href="#DejaVuSans-49"/>
       <use transform="translate(63.623047 0.765625)" xlink:href="#DejaVuSans-48"/>
       <use transform="translate(128.203125 39.046875)scale(0.7)" xlink:href="#DejaVuSans-51"/>
      </g>
     </g>
    </g>
    <g id="ytick_3">
     <g id="line2d_9">
      <g>
       <use style="stroke:#000000;stroke-width:0.8;" x="90" xlink:href="#mb137d04af0" y="115.507465"/>
      </g>
     </g>
     <g id="text_10">
      <!-- $\mathdefault{10^{4}}$ -->
      <g transform="translate(37.3808 125.35504)scale(0.2592 -0.2592)">
       <use transform="translate(0 0.684375)" xlink:href="#DejaVuSans-49"/>
       <use transform="translate(63.623047 0.684375)" xlink:href="#DejaVuSans-48"/>
       <use transform="translate(128.203125 38.965625)scale(0.7)" xlink:href="#DejaVuSans-52"/>
      </g>
     </g>
    </g>
    <g id="ytick_4">
     <g id="line2d_10">
      <defs>
       <path d="M 0 0 
L -2 0 
" id="mfcd6225dea" style="stroke:#000000;stroke-width:0.6;"/>
      </defs>
      <g>
       <use style="stroke:#000000;stroke-width:0.6;" x="90" xlink:href="#mfcd6225dea" y="473.103058"/>
      </g>
     </g>
    </g>
    <g id="ytick_5">
     <g id="line2d_11">
      <g>
       <use style="stroke:#000000;stroke-width:0.6;" x="90" xlink:href="#mfcd6225dea" y="463.479574"/>
      </g>
     </g>
    </g>
    <g id="ytick_6">
     <g id="line2d_12">
      <g>
       <use style="stroke:#000000;stroke-width:0.6;" x="90" xlink:href="#mfcd6225dea" y="454.991059"/>
      </g>
     </g>
    </g>
    <g id="ytick_7">
     <g id="line2d_13">
      <g>
       <use style="stroke:#000000;stroke-width:0.6;" x="90" xlink:href="#mfcd6225dea" y="397.443347"/>
      </g>
     </g>
    </g>
    <g id="ytick_8">
     <g id="line2d_14">
      <g>
       <use style="stroke:#000000;stroke-width:0.6;" x="90" xlink:href="#mfcd6225dea" y="368.221852"/>
      </g>
     </g>
    </g>
    <g id="ytick_9">
     <g id="line2d_15">
      <g>
       <use style="stroke:#000000;stroke-width:0.6;" x="90" xlink:href="#mfcd6225dea" y="347.488871"/>
      </g>
     </g>
    </g>
    <g id="ytick_10">
     <g id="line2d_16">
      <g>
       <use style="stroke:#000000;stroke-width:0.6;" x="90" xlink:href="#mfcd6225dea" y="331.407121"/>
      </g>
     </g>
    </g>
    <g id="ytick_11">
     <g id="line2d_17">
      <g>
       <use style="stroke:#000000;stroke-width:0.6;" x="90" xlink:href="#mfcd6225dea" y="318.267375"/>
      </g>
     </g>
    </g>
    <g id="ytick_12">
     <g id="line2d_18">
      <g>
       <use style="stroke:#000000;stroke-width:0.6;" x="90" xlink:href="#mfcd6225dea" y="307.157878"/>
      </g>
     </g>
    </g>
    <g id="ytick_13">
     <g id="line2d_19">
      <g>
       <use style="stroke:#000000;stroke-width:0.6;" x="90" xlink:href="#mfcd6225dea" y="297.534394"/>
      </g>
     </g>
    </g>
    <g id="ytick_14">
     <g id="line2d_20">
      <g>
       <use style="stroke:#000000;stroke-width:0.6;" x="90" xlink:href="#mfcd6225dea" y="289.045879"/>
      </g>
     </g>
    </g>
    <g id="ytick_15">
     <g id="line2d_21">
      <g>
       <use style="stroke:#000000;stroke-width:0.6;" x="90" xlink:href="#mfcd6225dea" y="231.498168"/>
      </g>
     </g>
    </g>
    <g id="ytick_16">
     <g id="line2d_22">
      <g>
       <use style="stroke:#000000;stroke-width:0.6;" x="90" xlink:href="#mfcd6225dea" y="202.276672"/>
      </g>
     </g>
    </g>
    <g id="ytick_17">
     <g id="line2d_23">
      <g>
       <use style="stroke:#000000;stroke-width:0.6;" x="90" xlink:href="#mfcd6225dea" y="181.543691"/>
      </g>
     </g>
    </g>
    <g id="ytick_18">
     <g id="line2d_24">
      <g>
       <use style="stroke:#000000;stroke-width:0.6;" x="90" xlink:href="#mfcd6225dea" y="165.461941"/>
      </g>
     </g>
    </g>
    <g id="ytick_19">
     <g id="line2d_25">
      <g>
       <use style="stroke:#000000;stroke-width:0.6;" x="90" xlink:href="#mfcd6225dea" y="152.322195"/>
      </g>
     </g>
    </g>
    <g id="ytick_20">
     <g id="line2d_26">
      <g>
       <use style="stroke:#000000;stroke-width:0.6;" x="90" xlink:href="#mfcd6225dea" y="141.212698"/>
      </g>
     </g>
    </g>
    <g id="ytick_21">
     <g id="line2d_27">
      <g>
       <use style="stroke:#000000;stroke-width:0.6;" x="90" xlink:href="#mfcd6225dea" y="131.589214"/>
      </g>
     </g>
    </g>
    <g id="ytick_22">
     <g id="line2d_28">
      <g>
       <use style="stroke:#000000;stroke-width:0.6;" x="90" xlink:href="#mfcd6225dea" y="123.1007"/>
      </g>
     </g>
    </g>
    <g id="ytick_23">
     <g id="line2d_29">
      <g>
       <use style="stroke:#000000;stroke-width:0.6;" x="90" xlink:href="#mfcd6225dea" y="65.552988"/>
      </g>
     </g>
    </g>
    <g id="text_11">
     <!-- Count -->
     <defs>
      <path d="M 8.5 21.578125 
L 8.5 54.6875 
L 17.484375 54.6875 
L 17.484375 21.921875 
Q 17.484375 14.15625 20.5 10.265625 
Q 23.53125 6.390625 29.59375 6.390625 
Q 36.859375 6.390625 41.078125 11.03125 
Q 45.3125 15.671875 45.3125 23.6875 
L 45.3125 54.6875 
L 54.296875 54.6875 
L 54.296875 0 
L 45.3125 0 
L 45.3125 8.40625 
Q 42.046875 3.421875 37.71875 1 
Q 33.40625 -1.421875 27.6875 -1.421875 
Q 18.265625 -1.421875 13.375 4.4375 
Q 8.5 10.296875 8.5 21.578125 
z
M 31.109375 56 
z
" id="DejaVuSans-117"/>
      <path d="M 54.890625 33.015625 
L 54.890625 0 
L 45.90625 0 
L 45.90625 32.71875 
Q 45.90625 40.484375 42.875 44.328125 
Q 39.84375 48.1875 33.796875 48.1875 
Q 26.515625 48.1875 22.3125 43.546875 
Q 18.109375 38.921875 18.109375 30.90625 
L 18.109375 0 
L 9.078125 0 
L 9.078125 54.6875 
L 18.109375 54.6875 
L 18.109375 46.1875 
Q 21.34375 51.125 25.703125 53.5625 
Q 30.078125 56 35.796875 56 
Q 45.21875 56 50.046875 50.171875 
Q 54.890625 44.34375 54.890625 33.015625 
z
" id="DejaVuSans-110"/>
      <path d="M 18.3125 70.21875 
L 18.3125 54.6875 
L 36.8125 54.6875 
L 36.8125 47.703125 
L 18.3125 47.703125 
L 18.3125 18.015625 
Q 18.3125 11.328125 20.140625 9.421875 
Q 21.96875 7.515625 27.59375 7.515625 
L 36.8125 7.515625 
L 36.8125 0 
L 27.59375 0 
Q 17.1875 0 13.234375 3.875 
Q 9.28125 7.765625 9.28125 18.015625 
L 9.28125 47.703125 
L 2.6875 47.703125 
L 2.6875 54.6875 
L 9.28125 54.6875 
L 9.28125 70.21875 
z
" id="DejaVuSans-116"/>
     </defs>
     <g transform="translate(27.99025 311.18715)rotate(-90)scale(0.2592 -0.2592)">
      <use xlink:href="#DejaVuSans-67"/>
      <use x="69.824219" xlink:href="#DejaVuSans-111"/>
      <use x="131.005859" xlink:href="#DejaVuSans-117"/>
      <use x="194.384766" xlink:href="#DejaVuSans-110"/>
      <use x="257.763672" xlink:href="#DejaVuSans-116"/>
     </g>
    </g>
   </g>
   <g id="line2d_30">
    <path clip-path="url(#pcf7a3e3c2c)" d="M 90 366.794695 
L 101.387755 366.794695 
L 101.387755 311.83657 
L 112.77551 311.83657 
L 112.77551 307.467409 
L 124.163265 307.467409 
L 124.163265 289.770198 
L 135.55102 289.770198 
L 135.55102 291.987883 
L 146.938776 291.987883 
L 146.938776 289.527949 
L 158.326531 289.527949 
L 158.326531 289.126001 
L 169.714286 289.126001 
L 169.714286 290.50187 
L 181.102041 290.50187 
L 181.102041 285.682306 
L 192.489796 285.682306 
L 192.489796 280.308667 
L 203.877551 280.308667 
L 203.877551 284.020262 
L 215.265306 284.020262 
L 215.265306 288.965847 
L 226.653061 288.965847 
L 226.653061 282.176963 
L 238.040816 282.176963 
L 238.040816 286.915604 
L 249.428571 286.915604 
L 249.428571 278.211456 
L 260.816327 278.211456 
L 260.816327 276.84647 
L 272.204082 276.84647 
L 272.204082 280.025487 
L 283.591837 280.025487 
L 283.591837 271.38013 
L 294.979592 271.38013 
L 294.979592 270.570007 
L 306.367347 270.570007 
L 306.367347 281.596927 
L 317.755102 281.596927 
L 317.755102 265.949766 
L 329.142857 265.949766 
L 329.142857 266.768077 
L 340.530612 266.768077 
L 340.530612 268.312898 
L 351.918367 268.312898 
L 351.918367 265.775616 
L 363.306122 265.775616 
L 363.306122 265.255677 
L 374.693878 265.255677 
L 374.693878 263.774363 
L 386.081633 263.774363 
L 386.081633 265.659749 
L 397.469388 265.659749 
L 397.469388 273.285151 
L 408.857143 273.285151 
L 408.857143 268.855454 
L 420.244898 268.855454 
L 420.244898 274.191692 
L 431.632653 274.191692 
L 431.632653 270.384342 
L 443.020408 270.384342 
L 443.020408 271.067466 
L 454.408163 271.067466 
L 454.408163 267.358327 
L 465.795918 267.358327 
L 465.795918 294.275982 
L 477.183673 294.275982 
L 477.183673 325.594181 
L 488.571429 325.594181 
L 488.571429 274.649275 
L 499.959184 274.649275 
L 499.959184 274.322134 
L 511.346939 274.322134 
L 511.346939 267.417619 
L 522.734694 267.417619 
L 522.734694 276.106604 
L 534.122449 276.106604 
L 534.122449 273.543001 
L 545.510204 273.543001 
L 545.510204 270.384342 
L 556.897959 270.384342 
L 556.897959 278.487583 
L 568.285714 278.487583 
L 568.285714 269.280283 
L 579.673469 269.280283 
L 579.673469 271.694157 
L 591.061224 271.694157 
L 591.061224 268.734532 
L 602.44898 268.734532 
L 602.44898 268.013234 
L 613.836735 268.013234 
L 613.836735 272.262877 
L 625.22449 272.262877 
L 625.22449 267.417619 
L 636.612245 267.417619 
L 636.612245 252.520003 
L 648 252.520003 
" style="fill:none;stroke:#1f77b4;stroke-linecap:square;stroke-width:1.5;"/>
   </g>
   <g id="line2d_31">
    <path clip-path="url(#pcf7a3e3c2c)" d="M 90 241.121652 
L 101.387755 241.121652 
L 101.387755 201.58335 
L 112.77551 201.58335 
L 112.77551 191.435359 
L 124.163265 191.435359 
L 124.163265 181.796375 
L 135.55102 181.796375 
L 135.55102 180.612831 
L 146.938776 180.612831 
L 146.938776 183.999371 
L 158.326531 183.999371 
L 158.326531 177.941683 
L 169.714286 177.941683 
L 169.714286 176.971328 
L 181.102041 176.971328 
L 181.102041 173.424474 
L 192.489796 173.424474 
L 192.489796 172.544499 
L 203.877551 172.544499 
L 203.877551 174.299031 
L 215.265306 174.299031 
L 215.265306 175.250343 
L 226.653061 175.250343 
L 226.653061 174.120018 
L 238.040816 174.120018 
L 238.040816 172.528598 
L 249.428571 172.528598 
L 249.428571 170.228576 
L 260.816327 170.228576 
L 260.816327 169.052473 
L 272.204082 169.052473 
L 272.204082 166.771002 
L 283.591837 166.771002 
L 283.591837 167.390131 
L 294.979592 167.390131 
L 294.979592 162.069332 
L 306.367347 162.069332 
L 306.367347 169.921245 
L 317.755102 169.921245 
L 317.755102 164.332152 
L 329.142857 164.332152 
L 329.142857 164.346343 
L 340.530612 164.346343 
L 340.530612 164.873385 
L 351.918367 164.873385 
L 351.918367 162.968737 
L 363.306122 162.968737 
L 363.306122 164.431548 
L 374.693878 164.431548 
L 374.693878 163.289696 
L 386.081633 163.289696 
L 386.081633 164.559544 
L 397.469388 164.559544 
L 397.469388 165.649565 
L 408.857143 165.649565 
L 408.857143 162.607627 
L 420.244898 162.607627 
L 420.244898 164.716294 
L 431.632653 164.716294 
L 431.632653 162.234534 
L 443.020408 162.234534 
L 443.020408 164.431548 
L 454.408163 164.431548 
L 454.408163 164.048917 
L 465.795918 164.048917 
L 465.795918 166.434196 
L 477.183673 166.434196 
L 477.183673 187.396425 
L 488.571429 187.396425 
L 488.571429 167.895255 
L 499.959184 167.895255 
L 499.959184 165.910161 
L 511.346939 165.910161 
L 511.346939 165.997236 
L 522.734694 165.997236 
L 522.734694 166.200821 
L 534.122449 166.200821 
L 534.122449 167.020961 
L 545.510204 167.020961 
L 545.510204 164.020655 
L 556.897959 164.020655 
L 556.897959 164.190395 
L 568.285714 164.190395 
L 568.285714 163.485764 
L 579.673469 163.485764 
L 579.673469 165.002169 
L 591.061224 165.002169 
L 591.061224 163.668307 
L 602.44898 163.668307 
L 602.44898 162.289685 
L 613.836735 162.289685 
L 613.836735 166.026284 
L 625.22449 166.026284 
L 625.22449 164.687768 
L 636.612245 164.687768 
L 636.612245 83.7 
L 648 83.7 
" style="fill:none;stroke:#ff7f0e;stroke-linecap:square;stroke-width:1.5;"/>
   </g>
   <g id="line2d_32">
    <path clip-path="url(#pcf7a3e3c2c)" d="M 90 276.84647 
L 101.387755 276.84647 
L 101.387755 234.892016 
L 112.77551 234.892016 
L 112.77551 228.845019 
L 124.163265 228.845019 
L 124.163265 221.5511 
L 135.55102 221.5511 
L 135.55102 224.269804 
L 146.938776 224.269804 
L 146.938776 229.367892 
L 158.326531 229.367892 
L 158.326531 222.244987 
L 169.714286 222.244987 
L 169.714286 221.519718 
L 181.102041 221.519718 
L 181.102041 220.306353 
L 192.489796 220.306353 
L 192.489796 217.93924 
L 203.877551 217.93924 
L 203.877551 222.403625 
L 215.265306 222.403625 
L 215.265306 224.432967 
L 226.653061 224.432967 
L 226.653061 223.653131 
L 238.040816 223.653131 
L 238.040816 221.771159 
L 249.428571 221.771159 
L 249.428571 218.599053 
L 260.816327 218.599053 
L 260.816327 216.725479 
L 272.204082 216.725479 
L 272.204082 220.090716 
L 283.591837 220.090716 
L 283.591837 213.566567 
L 294.979592 213.566567 
L 294.979592 211.626129 
L 306.367347 211.626129 
L 306.367347 221.050619 
L 317.755102 221.050619 
L 317.755102 213.848088 
L 329.142857 213.848088 
L 329.142857 214.159035 
L 340.530612 214.159035 
L 340.530612 215.618495 
L 351.918367 215.618495 
L 351.918367 213.11841 
L 363.306122 213.11841 
L 363.306122 215.792155 
L 374.693878 215.792155 
L 374.693878 212.396046 
L 386.081633 212.396046 
L 386.081633 213.650908 
L 397.469388 213.650908 
L 397.469388 213.763516 
L 408.857143 213.763516 
L 408.857143 213.090492 
L 420.244898 213.090492 
L 420.244898 214.642245 
L 431.632653 214.642245 
L 431.632653 212.010059 
L 443.020408 212.010059 
L 443.020408 215.531821 
L 454.408163 215.531821 
L 454.408163 214.18737 
L 465.795918 214.18737 
L 465.795918 225.122314 
L 477.183673 225.122314 
L 477.183673 247.041416 
L 488.571429 247.041416 
L 488.571429 217.43349 
L 499.959184 217.43349 
L 499.959184 215.3012 
L 511.346939 215.3012 
L 511.346939 216.725479 
L 522.734694 216.725479 
L 522.734694 219.386701 
L 534.122449 219.386701 
L 534.122449 216.549557 
L 545.510204 216.549557 
L 545.510204 214.32921 
L 556.897959 214.32921 
L 556.897959 216.053433 
L 568.285714 216.053433 
L 568.285714 212.97893 
L 579.673469 212.97893 
L 579.673469 213.8763 
L 591.061224 213.8763 
L 591.061224 212.923214 
L 602.44898 212.923214 
L 602.44898 210.837292 
L 613.836735 210.837292 
L 613.836735 217.108121 
L 625.22449 217.108121 
L 625.22449 213.763516 
L 636.612245 213.763516 
L 636.612245 190.327844 
L 648 190.327844 
" style="fill:none;stroke:#2ca02c;stroke-linecap:square;stroke-width:1.5;"/>
   </g>
   <g id="line2d_33">
    <path clip-path="url(#pcf7a3e3c2c)" d="M 90 345.533733 
L 101.387755 345.533733 
L 101.387755 307.364084 
L 112.77551 307.364084 
L 112.77551 290.175765 
L 124.163265 290.175765 
L 124.163265 275.308046 
L 135.55102 275.308046 
L 135.55102 264.511214 
L 146.938776 264.511214 
L 146.938776 264.853857 
L 158.326531 264.853857 
L 158.326531 261.607962 
L 169.714286 261.607962 
L 169.714286 258.083882 
L 181.102041 258.083882 
L 181.102041 251.087171 
L 192.489796 251.087171 
L 192.489796 251.324007 
L 203.877551 251.324007 
L 203.877551 249.682271 
L 215.265306 249.682271 
L 215.265306 247.98645 
L 226.653061 247.98645 
L 226.653061 247.805486 
L 238.040816 247.805486 
L 238.040816 245.493386 
L 249.428571 245.493386 
L 249.428571 245.231317 
L 260.816327 245.231317 
L 260.816327 245.144171 
L 272.204082 245.144171 
L 272.204082 235.27073 
L 283.591837 235.27073 
L 283.591837 246.020402 
L 294.979592 246.020402 
L 294.979592 235.308711 
L 306.367347 235.308711 
L 306.367347 242.325946 
L 317.755102 242.325946 
L 317.755102 238.811678 
L 329.142857 238.811678 
L 329.142857 236.612124 
L 340.530612 236.612124 
L 340.530612 235.689627 
L 351.918367 235.689627 
L 351.918367 236.650818 
L 363.306122 236.650818 
L 363.306122 233.953848 
L 374.693878 233.953848 
L 374.693878 237.42911 
L 386.081633 237.42911 
L 386.081633 239.091403 
L 397.469388 239.091403 
L 397.469388 239.332034 
L 408.857143 239.332034 
L 408.857143 233.953848 
L 420.244898 233.953848 
L 420.244898 238.215898 
L 431.632653 238.215898 
L 431.632653 234.9676 
L 443.020408 234.9676 
L 443.020408 234.515282 
L 454.408163 234.515282 
L 454.408163 237.664246 
L 465.795918 237.664246 
L 465.795918 227.810517 
L 477.183673 227.810517 
L 477.183673 248.760659 
L 488.571429 248.760659 
L 488.571429 239.937152 
L 499.959184 239.937152 
L 499.959184 239.734881 
L 511.346939 239.734881 
L 511.346939 237.194739 
L 522.734694 237.194739 
L 522.734694 232.880656 
L 534.122449 232.880656 
L 534.122449 239.291873 
L 545.510204 239.291873 
L 545.510204 235.727829 
L 556.897959 235.727829 
L 556.897959 233.027736 
L 568.285714 233.027736 
L 568.285714 235.651445 
L 579.673469 235.651445 
L 579.673469 239.051375 
L 591.061224 239.051375 
L 591.061224 238.33466 
L 602.44898 238.33466 
L 602.44898 236.072567 
L 613.836735 236.072567 
L 613.836735 236.689534 
L 625.22449 236.689534 
L 625.22449 238.771805 
L 636.612245 238.771805 
L 636.612245 110.107911 
L 648 110.107911 
" style="fill:none;stroke:#d62728;stroke-linecap:square;stroke-width:1.5;"/>
   </g>
   <g id="line2d_34">
    <path clip-path="url(#pcf7a3e3c2c)" d="M 90 461.7 
L 101.387755 461.7 
L 101.387755 404.240231 
L 112.77551 404.240231 
L 112.77551 418.658398 
L 124.163265 418.658398 
L 124.163265 400.385351 
L 135.55102 400.385351 
L 135.55102 407.066832 
L 146.938776 407.066832 
L 146.938776 397.0839 
L 158.326531 397.0839 
L 158.326531 391.563953 
L 169.714286 391.563953 
L 169.714286 396.726236 
L 181.102041 396.726236 
L 181.102041 397.443347 
L 192.489796 397.443347 
L 192.489796 382.231658 
L 203.877551 382.231658 
L 203.877551 387.058169 
L 215.265306 387.058169 
L 215.265306 389.598311 
L 226.653061 389.598311 
L 226.653061 377.708192 
L 238.040816 377.708192 
L 238.040816 382.524028 
L 249.428571 382.524028 
L 249.428571 366.794695 
L 260.816327 366.794695 
L 260.816327 365.626613 
L 272.204082 365.626613 
L 272.204082 372.426043 
L 283.591837 372.426043 
L 283.591837 358.149338 
L 294.979592 358.149338 
L 294.979592 360.917471 
L 306.367347 360.917471 
L 306.367347 378.812721 
L 317.755102 378.812721 
L 317.755102 360.484623 
L 329.142857 360.484623 
L 329.142857 363.12159 
L 340.530612 363.12159 
L 340.530612 360.700722 
L 351.918367 360.700722 
L 351.918367 353.107487 
L 363.306122 353.107487 
L 363.306122 355.282576 
L 374.693878 355.282576 
L 374.693878 351.375437 
L 386.081633 351.375437 
L 386.081633 350.056489 
L 397.469388 350.056489 
L 397.469388 359.41374 
L 408.857143 359.41374 
L 408.857143 357.112355 
L 420.244898 357.112355 
L 420.244898 359.626647 
L 431.632653 359.626647 
L 431.632653 352.332543 
L 443.020408 352.332543 
L 443.020408 358.778766 
L 454.408163 358.778766 
L 454.408163 352.912968 
L 465.795918 352.912968 
L 465.795918 390.247586 
L 477.183673 390.247586 
L 477.183673 421.118332 
L 488.571429 421.118332 
L 488.571429 364.022465 
L 499.959184 364.022465 
L 499.959184 372.681155 
L 511.346939 372.681155 
L 511.346939 356.293379 
L 522.734694 356.293379 
L 522.734694 371.666081 
L 534.122449 371.666081 
L 534.122449 354.088034 
L 545.510204 354.088034 
L 545.510204 354.285754 
L 556.897959 354.285754 
L 556.897959 362.89812 
L 568.285714 362.89812 
L 568.285714 354.484019 
L 579.673469 354.484019 
L 579.673469 360.484623 
L 591.061224 360.484623 
L 591.061224 353.302532 
L 602.44898 353.302532 
L 602.44898 349.498532 
L 613.836735 349.498532 
L 613.836735 355.483606 
L 625.22449 355.483606 
L 625.22449 355.483606 
L 636.612245 355.483606 
L 636.612245 348.761246 
L 648 348.761246 
" style="fill:none;stroke:#9467bd;stroke-linecap:square;stroke-width:1.5;"/>
   </g>
   <g id="line2d_35">
    <path clip-path="url(#pcf7a3e3c2c)" d="M 90 389.275854 
L 101.387755 389.275854 
L 101.387755 335.255666 
L 112.77551 335.255666 
L 112.77551 324.800752 
L 124.163265 324.800752 
L 124.163265 307.260907 
L 135.55102 307.260907 
L 135.55102 308.299385 
L 146.938776 308.299385 
L 146.938776 307.882196 
L 158.326531 307.882196 
L 158.326531 309.035326 
L 169.714286 309.035326 
L 169.714286 309.246983 
L 181.102041 309.246983 
L 181.102041 302.861429 
L 192.489796 302.861429 
L 192.489796 300.382619 
L 203.877551 300.382619 
L 203.877551 303.739736 
L 215.265306 303.739736 
L 215.265306 309.459263 
L 226.653061 309.459263 
L 226.653061 304.430342 
L 238.040816 304.430342 
L 238.040816 309.141077 
L 249.428571 309.141077 
L 249.428571 303.15301 
L 260.816327 303.15301 
L 260.816327 301.70676 
L 272.204082 301.70676 
L 272.204082 303.445776 
L 283.591837 303.445776 
L 283.591837 297.085364 
L 294.979592 297.085364 
L 294.979592 294.794467 
L 306.367347 294.794467 
L 306.367347 303.250467 
L 317.755102 303.250467 
L 317.755102 288.567013 
L 329.142857 288.567013 
L 329.142857 288.726282 
L 340.530612 288.726282 
L 340.530612 291.738076 
L 351.918367 291.738076 
L 351.918367 291.241046 
L 363.306122 291.241046 
L 363.306122 289.608608 
L 374.693878 289.608608 
L 374.693878 289.126001 
L 386.081633 289.126001 
L 386.081633 292.406161 
L 397.469388 292.406161 
L 397.469388 299.266688 
L 408.857143 299.266688 
L 408.857143 293.932386 
L 420.244898 293.932386 
L 420.244898 300.476397 
L 431.632653 300.476397 
L 431.632653 298.258712 
L 443.020408 298.258712 
L 443.020408 296.372685 
L 454.408163 296.372685 
L 454.408163 293.590421 
L 465.795918 293.590421 
L 465.795918 316.370711 
L 477.183673 316.370711 
L 477.183673 347.85012 
L 488.571429 347.85012 
L 488.571429 299.266688 
L 499.959184 299.266688 
L 499.959184 295.579256 
L 511.346939 295.579256 
L 511.346939 292.238558 
L 522.734694 292.238558 
L 522.734694 298.349766 
L 534.122449 298.349766 
L 534.122449 302.089597 
L 545.510204 302.089597 
L 545.510204 297.354446 
L 556.897959 297.354446 
L 556.897959 305.227794 
L 568.285714 305.227794 
L 568.285714 295.666985 
L 579.673469 295.666985 
L 579.673469 296.550195 
L 591.061224 296.550195 
L 591.061224 295.404118 
L 602.44898 295.404118 
L 602.44898 296.107237 
L 613.836735 296.107237 
L 613.836735 299.544055 
L 625.22449 299.544055 
L 625.22449 292.574154 
L 636.612245 292.574154 
L 636.612245 274.51824 
L 648 274.51824 
" style="fill:none;stroke:#8c564b;stroke-linecap:square;stroke-width:1.5;"/>
   </g>
   <g id="line2d_36">
    <path clip-path="url(#pcf7a3e3c2c)" d="M 90 381.650452 
L 101.387755 381.650452 
L 101.387755 348.944861 
L 112.77551 348.944861 
L 112.77551 332.423218 
L 124.163265 332.423218 
L 124.163265 323.497478 
L 135.55102 323.497478 
L 135.55102 327.071884 
L 146.938776 327.071884 
L 146.938776 330.121415 
L 158.326531 330.121415 
L 158.326531 323.368437 
L 169.714286 323.368437 
L 169.714286 326.26211 
L 181.102041 326.26211 
L 181.102041 323.497478 
L 192.489796 323.497478 
L 192.489796 325.196374 
L 203.877551 325.196374 
L 203.877551 324.669359 
L 215.265306 324.669359 
L 215.265306 330.121415 
L 226.653061 330.121415 
L 226.653061 324.146169 
L 238.040816 324.146169 
L 238.040816 326.26211 
L 249.428571 326.26211 
L 249.428571 321.964035 
L 260.816327 321.964035 
L 260.816327 318.991694 
L 272.204082 318.991694 
L 272.204082 316.722554 
L 283.591837 316.722554 
L 283.591837 318.628624 
L 294.979592 318.628624 
L 294.979592 313.503623 
L 306.367347 313.503623 
L 306.367347 316.605082 
L 317.755102 316.605082 
L 317.755102 314.181394 
L 329.142857 314.181394 
L 329.142857 317.431436 
L 340.530612 317.431436 
L 340.530612 317.907928 
L 351.918367 317.907928 
L 351.918367 313.055292 
L 363.306122 313.055292 
L 363.306122 318.628624 
L 374.693878 318.628624 
L 374.693878 313.616144 
L 386.081633 313.616144 
L 386.081633 315.095119 
L 397.469388 315.095119 
L 397.469388 320.959572 
L 408.857143 320.959572 
L 408.857143 316.370711 
L 420.244898 316.370711 
L 420.244898 313.616144 
L 431.632653 313.616144 
L 431.632653 314.408741 
L 443.020408 314.408741 
L 443.020408 319.478649 
L 454.408163 319.478649 
L 454.408163 311.507737 
L 465.795918 311.507737 
L 465.795918 319.846036 
L 477.183673 319.846036 
L 477.183673 340.29311 
L 488.571429 340.29311 
L 488.571429 321.209379 
L 499.959184 321.209379 
L 499.959184 315.440775 
L 511.346939 315.440775 
L 511.346939 319.846036 
L 522.734694 319.846036 
L 522.734694 323.368437 
L 534.122449 323.368437 
L 534.122449 322.344348 
L 545.510204 322.344348 
L 545.510204 317.669288 
L 556.897959 317.669288 
L 556.897959 318.508007 
L 568.285714 318.508007 
L 568.285714 318.14736 
L 579.673469 318.14736 
L 579.673469 317.312804 
L 591.061224 317.312804 
L 591.061224 313.279109 
L 602.44898 313.279109 
L 602.44898 317.194367 
L 613.836735 317.194367 
L 613.836735 319.846036 
L 625.22449 319.846036 
L 625.22449 315.672136 
L 636.612245 315.672136 
L 636.612245 277.867778 
L 648 277.867778 
" style="fill:none;stroke:#e377c2;stroke-linecap:square;stroke-width:1.5;"/>
   </g>
   <g id="line2d_37">
    <path clip-path="url(#pcf7a3e3c2c)" d="M 642.618056 480.6 
L 642.618056 64.8 
" style="fill:none;stroke:#000000;stroke-linecap:square;stroke-width:1.5;"/>
   </g>
   <g id="patch_5">
    <path d="M 90 480.6 
L 90 64.8 
" style="fill:none;stroke:#000000;stroke-linecap:square;stroke-linejoin:miter;stroke-width:0.8;"/>
   </g>
   <g id="patch_6">
    <path d="M 648 480.6 
L 648 64.8 
" style="fill:none;stroke:#000000;stroke-linecap:square;stroke-linejoin:miter;stroke-width:0.8;"/>
   </g>
   <g id="patch_7">
    <path d="M 90 480.6 
L 648 480.6 
" style="fill:none;stroke:#000000;stroke-linecap:square;stroke-linejoin:miter;stroke-width:0.8;"/>
   </g>
   <g id="patch_8">
    <path d="M 90 64.8 
L 648 64.8 
" style="fill:none;stroke:#000000;stroke-linecap:square;stroke-linejoin:miter;stroke-width:0.8;"/>
   </g>
   <g id="patch_9">
    <path d="M 596.853025 93.906 
Q 617.616995 93.906 640.617033 93.906 
" style="fill:none;stroke:#000000;stroke-linecap:round;stroke-width:2;"/>
    <path d="M 602.853025 96.906 
L 596.853025 93.906 
L 602.853025 90.906 
L 602.853025 96.906 
z
" style="fill:#1f77b4;stroke:#000000;stroke-linecap:round;stroke-width:2;"/>
   </g>
   <g id="legend_1">
    <g id="patch_10">
     <path d="M 385.194375 264.144375 
L 635.4 264.144375 
Q 639 264.144375 639 260.544375 
L 639 77.4 
Q 639 73.8 635.4 73.8 
L 385.194375 73.8 
Q 381.594375 73.8 381.594375 77.4 
L 381.594375 260.544375 
Q 381.594375 264.144375 385.194375 264.144375 
z
" style="fill:#ffffff;opacity:0.5;stroke:#cccccc;stroke-linejoin:miter;"/>
    </g>
    <g id="line2d_38">
     <path d="M 388.794375 88.377188 
L 424.794375 88.377188 
" style="fill:none;stroke:#1f77b4;stroke-linecap:square;stroke-width:1.5;"/>
    </g>
    <g id="line2d_39"/>
    <g id="text_12">
     <!-- Showers -->
     <defs>
      <path d="M 53.515625 70.515625 
L 53.515625 60.890625 
Q 47.90625 63.578125 42.921875 64.890625 
Q 37.9375 66.21875 33.296875 66.21875 
Q 25.25 66.21875 20.875 63.09375 
Q 16.5 59.96875 16.5 54.203125 
Q 16.5 49.359375 19.40625 46.890625 
Q 22.3125 44.4375 30.421875 42.921875 
L 36.375 41.703125 
Q 47.40625 39.59375 52.65625 34.296875 
Q 57.90625 29 57.90625 20.125 
Q 57.90625 9.515625 50.796875 4.046875 
Q 43.703125 -1.421875 29.984375 -1.421875 
Q 24.8125 -1.421875 18.96875 -0.25 
Q 13.140625 0.921875 6.890625 3.21875 
L 6.890625 13.375 
Q 12.890625 10.015625 18.65625 8.296875 
Q 24.421875 6.59375 29.984375 6.59375 
Q 38.421875 6.59375 43.015625 9.90625 
Q 47.609375 13.234375 47.609375 19.390625 
Q 47.609375 24.75 44.3125 27.78125 
Q 41.015625 30.8125 33.5 32.328125 
L 27.484375 33.5 
Q 16.453125 35.6875 11.515625 40.375 
Q 6.59375 45.0625 6.59375 53.421875 
Q 6.59375 63.09375 13.40625 68.65625 
Q 20.21875 74.21875 32.171875 74.21875 
Q 37.3125 74.21875 42.625 73.28125 
Q 47.953125 72.359375 53.515625 70.515625 
z
" id="DejaVuSans-83"/>
      <path d="M 54.890625 33.015625 
L 54.890625 0 
L 45.90625 0 
L 45.90625 32.71875 
Q 45.90625 40.484375 42.875 44.328125 
Q 39.84375 48.1875 33.796875 48.1875 
Q 26.515625 48.1875 22.3125 43.546875 
Q 18.109375 38.921875 18.109375 30.90625 
L 18.109375 0 
L 9.078125 0 
L 9.078125 75.984375 
L 18.109375 75.984375 
L 18.109375 46.1875 
Q 21.34375 51.125 25.703125 53.5625 
Q 30.078125 56 35.796875 56 
Q 45.21875 56 50.046875 50.171875 
Q 54.890625 44.34375 54.890625 33.015625 
z
" id="DejaVuSans-104"/>
      <path d="M 4.203125 54.6875 
L 13.1875 54.6875 
L 24.421875 12.015625 
L 35.59375 54.6875 
L 46.1875 54.6875 
L 57.421875 12.015625 
L 68.609375 54.6875 
L 77.59375 54.6875 
L 63.28125 0 
L 52.6875 0 
L 40.921875 44.828125 
L 29.109375 0 
L 18.5 0 
z
" id="DejaVuSans-119"/>
      <path d="M 56.203125 29.59375 
L 56.203125 25.203125 
L 14.890625 25.203125 
Q 15.484375 15.921875 20.484375 11.0625 
Q 25.484375 6.203125 34.421875 6.203125 
Q 39.59375 6.203125 44.453125 7.46875 
Q 49.3125 8.734375 54.109375 11.28125 
L 54.109375 2.78125 
Q 49.265625 0.734375 44.1875 -0.34375 
Q 39.109375 -1.421875 33.890625 -1.421875 
Q 20.796875 -1.421875 13.15625 6.1875 
Q 5.515625 13.8125 5.515625 26.8125 
Q 5.515625 40.234375 12.765625 48.109375 
Q 20.015625 56 32.328125 56 
Q 43.359375 56 49.78125 48.890625 
Q 56.203125 41.796875 56.203125 29.59375 
z
M 47.21875 32.234375 
Q 47.125 39.59375 43.09375 43.984375 
Q 39.0625 48.390625 32.421875 48.390625 
Q 24.90625 48.390625 20.390625 44.140625 
Q 15.875 39.890625 15.1875 32.171875 
z
" id="DejaVuSans-101"/>
      <path d="M 44.28125 53.078125 
L 44.28125 44.578125 
Q 40.484375 46.53125 36.375 47.5 
Q 32.28125 48.484375 27.875 48.484375 
Q 21.1875 48.484375 17.84375 46.4375 
Q 14.5 44.390625 14.5 40.28125 
Q 14.5 37.15625 16.890625 35.375 
Q 19.28125 33.59375 26.515625 31.984375 
L 29.59375 31.296875 
Q 39.15625 29.25 43.1875 25.515625 
Q 47.21875 21.78125 47.21875 15.09375 
Q 47.21875 7.46875 41.1875 3.015625 
Q 35.15625 -1.421875 24.609375 -1.421875 
Q 20.21875 -1.421875 15.453125 -0.5625 
Q 10.6875 0.296875 5.421875 2 
L 5.421875 11.28125 
Q 10.40625 8.6875 15.234375 7.390625 
Q 20.0625 6.109375 24.8125 6.109375 
Q 31.15625 6.109375 34.5625 8.28125 
Q 37.984375 10.453125 37.984375 14.40625 
Q 37.984375 18.0625 35.515625 20.015625 
Q 33.0625 21.96875 24.703125 23.78125 
L 21.578125 24.515625 
Q 13.234375 26.265625 9.515625 29.90625 
Q 5.8125 33.546875 5.8125 39.890625 
Q 5.8125 47.609375 11.28125 51.796875 
Q 16.75 56 26.8125 56 
Q 31.78125 56 36.171875 55.265625 
Q 40.578125 54.546875 44.28125 53.078125 
z
" id="DejaVuSans-115"/>
     </defs>
     <g transform="translate(439.194375 94.677188)scale(0.18 -0.18)">
      <use xlink:href="#DejaVuSans-83"/>
      <use x="63.476562" xlink:href="#DejaVuSans-104"/>
      <use x="126.855469" xlink:href="#DejaVuSans-111"/>
      <use x="188.037109" xlink:href="#DejaVuSans-119"/>
      <use x="269.824219" xlink:href="#DejaVuSans-101"/>
      <use x="331.347656" xlink:href="#DejaVuSans-114"/>
      <use x="372.460938" xlink:href="#DejaVuSans-115"/>
     </g>
    </g>
    <g id="line2d_40">
     <path d="M 388.794375 114.797813 
L 424.794375 114.797813 
" style="fill:none;stroke:#ff7f0e;stroke-linecap:square;stroke-width:1.5;"/>
    </g>
    <g id="line2d_41"/>
    <g id="text_13">
     <!-- Tracks -->
     <defs>
      <path d="M -0.296875 72.90625 
L 61.375 72.90625 
L 61.375 64.59375 
L 35.5 64.59375 
L 35.5 0 
L 25.59375 0 
L 25.59375 64.59375 
L -0.296875 64.59375 
z
" id="DejaVuSans-84"/>
      <path d="M 48.78125 52.59375 
L 48.78125 44.1875 
Q 44.96875 46.296875 41.140625 47.34375 
Q 37.3125 48.390625 33.40625 48.390625 
Q 24.65625 48.390625 19.8125 42.84375 
Q 14.984375 37.3125 14.984375 27.296875 
Q 14.984375 17.28125 19.8125 11.734375 
Q 24.65625 6.203125 33.40625 6.203125 
Q 37.3125 6.203125 41.140625 7.25 
Q 44.96875 8.296875 48.78125 10.40625 
L 48.78125 2.09375 
Q 45.015625 0.34375 40.984375 -0.53125 
Q 36.96875 -1.421875 32.421875 -1.421875 
Q 20.0625 -1.421875 12.78125 6.34375 
Q 5.515625 14.109375 5.515625 27.296875 
Q 5.515625 40.671875 12.859375 48.328125 
Q 20.21875 56 33.015625 56 
Q 37.15625 56 41.109375 55.140625 
Q 45.0625 54.296875 48.78125 52.59375 
z
" id="DejaVuSans-99"/>
      <path d="M 9.078125 75.984375 
L 18.109375 75.984375 
L 18.109375 31.109375 
L 44.921875 54.6875 
L 56.390625 54.6875 
L 27.390625 29.109375 
L 57.625 0 
L 45.90625 0 
L 18.109375 26.703125 
L 18.109375 0 
L 9.078125 0 
z
" id="DejaVuSans-107"/>
     </defs>
     <g transform="translate(439.194375 121.097813)scale(0.18 -0.18)">
      <use xlink:href="#DejaVuSans-84"/>
      <use x="60.865234" xlink:href="#DejaVuSans-114"/>
      <use x="101.978516" xlink:href="#DejaVuSans-97"/>
      <use x="163.257812" xlink:href="#DejaVuSans-99"/>
      <use x="218.238281" xlink:href="#DejaVuSans-107"/>
      <use x="276.148438" xlink:href="#DejaVuSans-115"/>
     </g>
    </g>
    <g id="line2d_42">
     <path d="M 388.794375 141.218437 
L 424.794375 141.218437 
" style="fill:none;stroke:#2ca02c;stroke-linecap:square;stroke-width:1.5;"/>
    </g>
    <g id="line2d_43"/>
    <g id="text_14">
     <!-- Protons -->
     <defs>
      <path d="M 19.671875 64.796875 
L 19.671875 37.40625 
L 32.078125 37.40625 
Q 38.96875 37.40625 42.71875 40.96875 
Q 46.484375 44.53125 46.484375 51.125 
Q 46.484375 57.671875 42.71875 61.234375 
Q 38.96875 64.796875 32.078125 64.796875 
z
M 9.8125 72.90625 
L 32.078125 72.90625 
Q 44.34375 72.90625 50.609375 67.359375 
Q 56.890625 61.8125 56.890625 51.125 
Q 56.890625 40.328125 50.609375 34.8125 
Q 44.34375 29.296875 32.078125 29.296875 
L 19.671875 29.296875 
L 19.671875 0 
L 9.8125 0 
z
" id="DejaVuSans-80"/>
     </defs>
     <g transform="translate(439.194375 147.518438)scale(0.18 -0.18)">
      <use xlink:href="#DejaVuSans-80"/>
      <use x="60.287109" xlink:href="#DejaVuSans-114"/>
      <use x="101.369141" xlink:href="#DejaVuSans-111"/>
      <use x="162.550781" xlink:href="#DejaVuSans-116"/>
      <use x="201.759766" xlink:href="#DejaVuSans-111"/>
      <use x="262.941406" xlink:href="#DejaVuSans-110"/>
      <use x="326.320312" xlink:href="#DejaVuSans-115"/>
     </g>
    </g>
    <g id="line2d_44">
     <path d="M 388.794375 167.639062 
L 424.794375 167.639062 
" style="fill:none;stroke:#d62728;stroke-linecap:square;stroke-width:1.5;"/>
    </g>
    <g id="line2d_45"/>
    <g id="text_15">
     <!-- Muons -->
     <defs>
      <path d="M 9.8125 72.90625 
L 24.515625 72.90625 
L 43.109375 23.296875 
L 61.8125 72.90625 
L 76.515625 72.90625 
L 76.515625 0 
L 66.890625 0 
L 66.890625 64.015625 
L 48.09375 14.015625 
L 38.1875 14.015625 
L 19.390625 64.015625 
L 19.390625 0 
L 9.8125 0 
z
" id="DejaVuSans-77"/>
     </defs>
     <g transform="translate(439.194375 173.939062)scale(0.18 -0.18)">
      <use xlink:href="#DejaVuSans-77"/>
      <use x="86.279297" xlink:href="#DejaVuSans-117"/>
      <use x="149.658203" xlink:href="#DejaVuSans-111"/>
      <use x="210.839844" xlink:href="#DejaVuSans-110"/>
      <use x="274.21875" xlink:href="#DejaVuSans-115"/>
     </g>
    </g>
    <g id="line2d_46">
     <path d="M 388.794375 194.059687 
L 424.794375 194.059687 
" style="fill:none;stroke:#9467bd;stroke-linecap:square;stroke-width:1.5;"/>
    </g>
    <g id="line2d_47"/>
    <g id="text_16">
     <!-- Electrons + Positrons -->
     <defs>
      <path d="M 9.8125 72.90625 
L 55.90625 72.90625 
L 55.90625 64.59375 
L 19.671875 64.59375 
L 19.671875 43.015625 
L 54.390625 43.015625 
L 54.390625 34.71875 
L 19.671875 34.71875 
L 19.671875 8.296875 
L 56.78125 8.296875 
L 56.78125 0 
L 9.8125 0 
z
" id="DejaVuSans-69"/>
      <path d="M 9.421875 75.984375 
L 18.40625 75.984375 
L 18.40625 0 
L 9.421875 0 
z
" id="DejaVuSans-108"/>
      <path id="DejaVuSans-32"/>
      <path d="M 46 62.703125 
L 46 35.5 
L 73.1875 35.5 
L 73.1875 27.203125 
L 46 27.203125 
L 46 0 
L 37.796875 0 
L 37.796875 27.203125 
L 10.59375 27.203125 
L 10.59375 35.5 
L 37.796875 35.5 
L 37.796875 62.703125 
z
" id="DejaVuSans-43"/>
      <path d="M 9.421875 54.6875 
L 18.40625 54.6875 
L 18.40625 0 
L 9.421875 0 
z
M 9.421875 75.984375 
L 18.40625 75.984375 
L 18.40625 64.59375 
L 9.421875 64.59375 
z
" id="DejaVuSans-105"/>
     </defs>
     <g transform="translate(439.194375 200.359688)scale(0.18 -0.18)">
      <use xlink:href="#DejaVuSans-69"/>
      <use x="63.183594" xlink:href="#DejaVuSans-108"/>
      <use x="90.966797" xlink:href="#DejaVuSans-101"/>
      <use x="152.490234" xlink:href="#DejaVuSans-99"/>
      <use x="207.470703" xlink:href="#DejaVuSans-116"/>
      <use x="246.679688" xlink:href="#DejaVuSans-114"/>
      <use x="287.761719" xlink:href="#DejaVuSans-111"/>
      <use x="348.943359" xlink:href="#DejaVuSans-110"/>
      <use x="412.322266" xlink:href="#DejaVuSans-115"/>
      <use x="464.421875" xlink:href="#DejaVuSans-32"/>
      <use x="496.208984" xlink:href="#DejaVuSans-43"/>
      <use x="579.998047" xlink:href="#DejaVuSans-32"/>
      <use x="611.785156" xlink:href="#DejaVuSans-80"/>
      <use x="672.041016" xlink:href="#DejaVuSans-111"/>
      <use x="733.222656" xlink:href="#DejaVuSans-115"/>
      <use x="785.322266" xlink:href="#DejaVuSans-105"/>
      <use x="813.105469" xlink:href="#DejaVuSans-116"/>
      <use x="852.314453" xlink:href="#DejaVuSans-114"/>
      <use x="893.396484" xlink:href="#DejaVuSans-111"/>
      <use x="954.578125" xlink:href="#DejaVuSans-110"/>
      <use x="1017.957031" xlink:href="#DejaVuSans-115"/>
     </g>
    </g>
    <g id="line2d_48">
     <path d="M 388.794375 220.480312 
L 424.794375 220.480312 
" style="fill:none;stroke:#8c564b;stroke-linecap:square;stroke-width:1.5;"/>
    </g>
    <g id="line2d_49"/>
    <g id="text_17">
     <!-- Photons -->
     <g transform="translate(439.194375 226.780312)scale(0.18 -0.18)">
      <use xlink:href="#DejaVuSans-80"/>
      <use x="60.302734" xlink:href="#DejaVuSans-104"/>
      <use x="123.681641" xlink:href="#DejaVuSans-111"/>
      <use x="184.863281" xlink:href="#DejaVuSans-116"/>
      <use x="224.072266" xlink:href="#DejaVuSans-111"/>
      <use x="285.253906" xlink:href="#DejaVuSans-110"/>
      <use x="348.632812" xlink:href="#DejaVuSans-115"/>
     </g>
    </g>
    <g id="line2d_50">
     <path d="M 388.794375 246.900937 
L 424.794375 246.900937 
" style="fill:none;stroke:#e377c2;stroke-linecap:square;stroke-width:1.5;"/>
    </g>
    <g id="line2d_51"/>
    <g id="text_18">
     <!-- Charged Pions -->
     <defs>
      <path d="M 45.40625 27.984375 
Q 45.40625 37.75 41.375 43.109375 
Q 37.359375 48.484375 30.078125 48.484375 
Q 22.859375 48.484375 18.828125 43.109375 
Q 14.796875 37.75 14.796875 27.984375 
Q 14.796875 18.265625 18.828125 12.890625 
Q 22.859375 7.515625 30.078125 7.515625 
Q 37.359375 7.515625 41.375 12.890625 
Q 45.40625 18.265625 45.40625 27.984375 
z
M 54.390625 6.78125 
Q 54.390625 -7.171875 48.1875 -13.984375 
Q 42 -20.796875 29.203125 -20.796875 
Q 24.46875 -20.796875 20.265625 -20.09375 
Q 16.0625 -19.390625 12.109375 -17.921875 
L 12.109375 -9.1875 
Q 16.0625 -11.328125 19.921875 -12.34375 
Q 23.78125 -13.375 27.78125 -13.375 
Q 36.625 -13.375 41.015625 -8.765625 
Q 45.40625 -4.15625 45.40625 5.171875 
L 45.40625 9.625 
Q 42.625 4.78125 38.28125 2.390625 
Q 33.9375 0 27.875 0 
Q 17.828125 0 11.671875 7.65625 
Q 5.515625 15.328125 5.515625 27.984375 
Q 5.515625 40.671875 11.671875 48.328125 
Q 17.828125 56 27.875 56 
Q 33.9375 56 38.28125 53.609375 
Q 42.625 51.21875 45.40625 46.390625 
L 45.40625 54.6875 
L 54.390625 54.6875 
z
" id="DejaVuSans-103"/>
     </defs>
     <g transform="translate(439.194375 253.200938)scale(0.18 -0.18)">
      <use xlink:href="#DejaVuSans-67"/>
      <use x="69.824219" xlink:href="#DejaVuSans-104"/>
      <use x="133.203125" xlink:href="#DejaVuSans-97"/>
      <use x="194.482422" xlink:href="#DejaVuSans-114"/>
      <use x="235.580078" xlink:href="#DejaVuSans-103"/>
      <use x="299.056641" xlink:href="#DejaVuSans-101"/>
      <use x="360.580078" xlink:href="#DejaVuSans-100"/>
      <use x="424.056641" xlink:href="#DejaVuSans-32"/>
      <use x="455.84375" xlink:href="#DejaVuSans-80"/>
      <use x="516.115234" xlink:href="#DejaVuSans-105"/>
      <use x="543.898438" xlink:href="#DejaVuSans-111"/>
      <use x="605.080078" xlink:href="#DejaVuSans-110"/>
      <use x="668.458984" xlink:href="#DejaVuSans-115"/>
     </g>
    </g>
   </g>
  </g>
 </g>
 <defs>
  <clipPath id="pcf7a3e3c2c">
   <rect height="415.8" width="558" x="90" y="64.8"/>
  </clipPath>
 </defs>
</svg>
