<?xml version="1.0" encoding="utf-8" standalone="no"?>
<!DOCTYPE svg PUBLIC "-//W3C//DTD SVG 1.1//EN"
  "http://www.w3.org/Graphics/SVG/1.1/DTD/svg11.dtd">
<!-- Created with matplotlib (https://matplotlib.org/) -->
<svg height="540pt" version="1.1" viewBox="0 0 720 540" width="720pt" xmlns="http://www.w3.org/2000/svg" xmlns:xlink="http://www.w3.org/1999/xlink">
 <defs>
  <style type="text/css">
*{stroke-linecap:butt;stroke-linejoin:round;}
  </style>
 </defs>
 <g id="figure_1">
  <g id="patch_1">
   <path d="M 0 540 
L 720 540 
L 720 0 
L 0 0 
z
" style="fill:#ffffff;"/>
  </g>
  <g id="axes_1">
   <g id="patch_2">
    <path d="M 90 480.6 
L 648 480.6 
L 648 64.8 
L 90 64.8 
z
" style="fill:#ffffff;"/>
   </g>
   <g id="patch_3">
    <path clip-path="url(#p892250f624)" d="M 90 99518.179989 
L 90 160.916486 
L 101.387755 160.916486 
L 101.387755 95.311275 
L 112.77551 95.311275 
L 112.77551 105.190331 
L 124.163265 105.190331 
L 124.163265 109.09509 
L 135.55102 109.09509 
L 135.55102 123.321557 
L 146.938776 123.321557 
L 146.938776 139.251747 
L 158.326531 139.251747 
L 158.326531 150.923797 
L 169.714286 150.923797 
L 169.714286 164.656184 
L 181.102041 164.656184 
L 181.102041 179.384365 
L 192.489796 179.384365 
L 192.489796 192.480228 
L 203.877551 192.480228 
L 203.877551 205.550092 
L 215.265306 205.550092 
L 215.265306 221.940486 
L 226.653061 221.940486 
L 226.653061 232.614094 
L 238.040816 232.614094 
L 238.040816 244.765449 
L 249.428571 244.765449 
L 249.428571 244.480052 
L 260.816327 244.480052 
L 260.816327 262.153806 
L 272.204082 262.153806 
L 272.204082 276.787722 
L 283.591837 276.787722 
L 283.591837 297.109496 
L 294.979592 297.109496 
L 294.979592 299.075175 
L 306.367347 299.075175 
L 306.367347 287.653926 
L 317.755102 287.653926 
L 317.755102 286.136665 
L 329.142857 286.136665 
L 329.142857 304.419931 
L 340.530612 304.419931 
L 340.530612 319.19631 
L 351.918367 319.19631 
L 351.918367 313.223037 
L 363.306122 313.223037 
L 363.306122 320.828107 
L 374.693878 320.828107 
L 374.693878 330.062514 
L 386.081633 330.062514 
L 386.081633 347.593804 
L 397.469388 347.593804 
L 397.469388 341.820243 
L 408.857143 341.820243 
L 408.857143 347.593804 
L 420.244898 347.593804 
L 420.244898 377.563743 
L 431.632653 377.563743 
L 431.632653 330.062514 
L 443.020408 330.062514 
L 443.020408 339.198987 
L 454.408163 339.198987 
L 454.408163 366.69754 
L 465.795918 366.69754 
L 465.795918 336.727601 
L 477.183673 336.727601 
L 477.183673 384.228831 
L 488.571429 384.228831 
L 488.571429 366.69754 
L 499.959184 366.69754 
L 499.959184 371.790182 
L 511.346939 371.790182 
L 511.346939 377.563743 
L 522.734694 377.563743 
L 522.734694 366.69754 
L 534.122449 366.69754 
L 534.122449 431.730061 
L 545.510204 431.730061 
L 545.510204 366.69754 
L 556.897959 366.69754 
L 556.897959 371.790182 
L 568.285714 371.790182 
L 568.285714 414.19877 
L 579.673469 414.19877 
L 579.673469 362.142017 
L 591.061224 362.142017 
L 591.061224 377.563743 
L 602.44898 377.563743 
L 602.44898 392.111956 
L 613.836735 392.111956 
L 613.836735 99518.179989 
L 625.22449 99518.179989 
L 625.22449 392.111956 
L 636.612245 392.111956 
L 636.612245 431.730061 
L 648 431.730061 
L 648 99518.179989 
z
" style="fill:#1f77b4;opacity:0.2;"/>
   </g>
   <g id="patch_4">
    <path clip-path="url(#p892250f624)" d="M 90 99518.179989 
L 90 99518.179989 
L 101.387755 99518.179989 
L 101.387755 99518.179989 
L 112.77551 99518.179989 
L 112.77551 244.196527 
L 124.163265 244.196527 
L 124.163265 130.171149 
L 135.55102 130.171149 
L 135.55102 93.672121 
L 146.938776 93.672121 
L 146.938776 87.666607 
L 158.326531 87.666607 
L 158.326531 83.7 
L 169.714286 83.7 
L 169.714286 84.847284 
L 181.102041 84.847284 
L 181.102041 89.862899 
L 192.489796 89.862899 
L 192.489796 96.408732 
L 203.877551 96.408732 
L 203.877551 104.57063 
L 215.265306 104.57063 
L 215.265306 110.986595 
L 226.653061 110.986595 
L 226.653061 109.872132 
L 238.040816 109.872132 
L 238.040816 103.816533 
L 249.428571 103.816533 
L 249.428571 98.205431 
L 260.816327 98.205431 
L 260.816327 98.74955 
L 272.204082 98.74955 
L 272.204082 101.546553 
L 283.591837 101.546553 
L 283.591837 106.92701 
L 294.979592 106.92701 
L 294.979592 112.024082 
L 306.367347 112.024082 
L 306.367347 118.307617 
L 317.755102 118.307617 
L 317.755102 125.808175 
L 329.142857 125.808175 
L 329.142857 133.753505 
L 340.530612 133.753505 
L 340.530612 143.302917 
L 351.918367 143.302917 
L 351.918367 147.621622 
L 363.306122 147.621622 
L 363.306122 158.591761 
L 374.693878 158.591761 
L 374.693878 169.647922 
L 386.081633 169.647922 
L 386.081633 178.695557 
L 397.469388 178.695557 
L 397.469388 187.179212 
L 408.857143 187.179212 
L 408.857143 195.396219 
L 420.244898 195.396219 
L 420.244898 207.926376 
L 431.632653 207.926376 
L 431.632653 210.700577 
L 443.020408 210.700577 
L 443.020408 220.283674 
L 454.408163 220.283674 
L 454.408163 222.279605 
L 465.795918 222.279605 
L 465.795918 235.984955 
L 477.183673 235.984955 
L 477.183673 239.641003 
L 488.571429 239.641003 
L 488.571429 246.221394 
L 499.959184 246.221394 
L 499.959184 259.658644 
L 511.346939 259.658644 
L 511.346939 268.605375 
L 522.734694 268.605375 
L 522.734694 271.69508 
L 534.122449 271.69508 
L 534.122449 276.191334 
L 545.510204 276.191334 
L 545.510204 290.858168 
L 556.897959 290.858168 
L 556.897959 298.081166 
L 568.285714 298.081166 
L 568.285714 319.19631 
L 579.673469 319.19631 
L 579.673469 307.975699 
L 591.061224 307.975699 
L 591.061224 319.19631 
L 602.44898 319.19631 
L 602.44898 358.021044 
L 613.836735 358.021044 
L 613.836735 324.288952 
L 625.22449 324.288952 
L 625.22449 358.021044 
L 636.612245 358.021044 
L 636.612245 344.610726 
L 648 344.610726 
L 648 99518.179989 
z
" style="fill:#ff7f0e;opacity:0.2;"/>
   </g>
   <g id="matplotlib.axis_1">
    <g id="xtick_1">
     <g id="line2d_1">
      <defs>
       <path d="M 0 0 
L 0 3.5 
" id="mf75d94be55" style="stroke:#000000;stroke-width:0.8;"/>
      </defs>
      <g>
       <use style="stroke:#000000;stroke-width:0.8;" x="90" xlink:href="#mf75d94be55" y="480.6"/>
      </g>
     </g>
     <g id="text_1">
      <!-- 0.0 -->
      <defs>
       <path d="M 31.78125 66.40625 
Q 24.171875 66.40625 20.328125 58.90625 
Q 16.5 51.421875 16.5 36.375 
Q 16.5 21.390625 20.328125 13.890625 
Q 24.171875 6.390625 31.78125 6.390625 
Q 39.453125 6.390625 43.28125 13.890625 
Q 47.125 21.390625 47.125 36.375 
Q 47.125 51.421875 43.28125 58.90625 
Q 39.453125 66.40625 31.78125 66.40625 
z
M 31.78125 74.21875 
Q 44.046875 74.21875 50.515625 64.515625 
Q 56.984375 54.828125 56.984375 36.375 
Q 56.984375 17.96875 50.515625 8.265625 
Q 44.046875 -1.421875 31.78125 -1.421875 
Q 19.53125 -1.421875 13.0625 8.265625 
Q 6.59375 17.96875 6.59375 36.375 
Q 6.59375 54.828125 13.0625 64.515625 
Q 19.53125 74.21875 31.78125 74.21875 
z
" id="DejaVuSans-48"/>
       <path d="M 10.6875 12.40625 
L 21 12.40625 
L 21 0 
L 10.6875 0 
z
" id="DejaVuSans-46"/>
      </defs>
      <g transform="translate(69.38955 507.29515)scale(0.2592 -0.2592)">
       <use xlink:href="#DejaVuSans-48"/>
       <use x="63.623047" xlink:href="#DejaVuSans-46"/>
       <use x="95.410156" xlink:href="#DejaVuSans-48"/>
      </g>
     </g>
    </g>
    <g id="xtick_2">
     <g id="line2d_2">
      <g>
       <use style="stroke:#000000;stroke-width:0.8;" x="229.5" xlink:href="#mf75d94be55" y="480.6"/>
      </g>
     </g>
     <g id="text_2">
      <!-- 0.5 -->
      <defs>
       <path d="M 10.796875 72.90625 
L 49.515625 72.90625 
L 49.515625 64.59375 
L 19.828125 64.59375 
L 19.828125 46.734375 
Q 21.96875 47.46875 24.109375 47.828125 
Q 26.265625 48.1875 28.421875 48.1875 
Q 40.625 48.1875 47.75 41.5 
Q 54.890625 34.8125 54.890625 23.390625 
Q 54.890625 11.625 47.5625 5.09375 
Q 40.234375 -1.421875 26.90625 -1.421875 
Q 22.3125 -1.421875 17.546875 -0.640625 
Q 12.796875 0.140625 7.71875 1.703125 
L 7.71875 11.625 
Q 12.109375 9.234375 16.796875 8.0625 
Q 21.484375 6.890625 26.703125 6.890625 
Q 35.15625 6.890625 40.078125 11.328125 
Q 45.015625 15.765625 45.015625 23.390625 
Q 45.015625 31 40.078125 35.4375 
Q 35.15625 39.890625 26.703125 39.890625 
Q 22.75 39.890625 18.8125 39.015625 
Q 14.890625 38.140625 10.796875 36.28125 
z
" id="DejaVuSans-53"/>
      </defs>
      <g transform="translate(208.88955 507.29515)scale(0.2592 -0.2592)">
       <use xlink:href="#DejaVuSans-48"/>
       <use x="63.623047" xlink:href="#DejaVuSans-46"/>
       <use x="95.410156" xlink:href="#DejaVuSans-53"/>
      </g>
     </g>
    </g>
    <g id="xtick_3">
     <g id="line2d_3">
      <g>
       <use style="stroke:#000000;stroke-width:0.8;" x="369" xlink:href="#mf75d94be55" y="480.6"/>
      </g>
     </g>
     <g id="text_3">
      <!-- 1.0 -->
      <defs>
       <path d="M 12.40625 8.296875 
L 28.515625 8.296875 
L 28.515625 63.921875 
L 10.984375 60.40625 
L 10.984375 69.390625 
L 28.421875 72.90625 
L 38.28125 72.90625 
L 38.28125 8.296875 
L 54.390625 8.296875 
L 54.390625 0 
L 12.40625 0 
z
" id="DejaVuSans-49"/>
      </defs>
      <g transform="translate(348.38955 507.29515)scale(0.2592 -0.2592)">
       <use xlink:href="#DejaVuSans-49"/>
       <use x="63.623047" xlink:href="#DejaVuSans-46"/>
       <use x="95.410156" xlink:href="#DejaVuSans-48"/>
      </g>
     </g>
    </g>
    <g id="xtick_4">
     <g id="line2d_4">
      <g>
       <use style="stroke:#000000;stroke-width:0.8;" x="508.5" xlink:href="#mf75d94be55" y="480.6"/>
      </g>
     </g>
     <g id="text_4">
      <!-- 1.5 -->
      <g transform="translate(487.88955 507.29515)scale(0.2592 -0.2592)">
       <use xlink:href="#DejaVuSans-49"/>
       <use x="63.623047" xlink:href="#DejaVuSans-46"/>
       <use x="95.410156" xlink:href="#DejaVuSans-53"/>
      </g>
     </g>
    </g>
    <g id="xtick_5">
     <g id="line2d_5">
      <g>
       <use style="stroke:#000000;stroke-width:0.8;" x="648" xlink:href="#mf75d94be55" y="480.6"/>
      </g>
     </g>
     <g id="text_5">
      <!-- 2.0 -->
      <defs>
       <path d="M 19.1875 8.296875 
L 53.609375 8.296875 
L 53.609375 0 
L 7.328125 0 
L 7.328125 8.296875 
Q 12.9375 14.109375 22.625 23.890625 
Q 32.328125 33.6875 34.8125 36.53125 
Q 39.546875 41.84375 41.421875 45.53125 
Q 43.3125 49.21875 43.3125 52.78125 
Q 43.3125 58.59375 39.234375 62.25 
Q 35.15625 65.921875 28.609375 65.921875 
Q 23.96875 65.921875 18.8125 64.3125 
Q 13.671875 62.703125 7.8125 59.421875 
L 7.8125 69.390625 
Q 13.765625 71.78125 18.9375 73 
Q 24.125 74.21875 28.421875 74.21875 
Q 39.75 74.21875 46.484375 68.546875 
Q 53.21875 62.890625 53.21875 53.421875 
Q 53.21875 48.921875 51.53125 44.890625 
Q 49.859375 40.875 45.40625 35.40625 
Q 44.1875 33.984375 37.640625 27.21875 
Q 31.109375 20.453125 19.1875 8.296875 
z
" id="DejaVuSans-50"/>
      </defs>
      <g transform="translate(627.38955 507.29515)scale(0.2592 -0.2592)">
       <use xlink:href="#DejaVuSans-50"/>
       <use x="63.623047" xlink:href="#DejaVuSans-46"/>
       <use x="95.410156" xlink:href="#DejaVuSans-48"/>
      </g>
     </g>
    </g>
    <g id="text_6">
     <!-- mcpMomentum -->
     <defs>
      <path d="M 52 44.1875 
Q 55.375 50.25 60.0625 53.125 
Q 64.75 56 71.09375 56 
Q 79.640625 56 84.28125 50.015625 
Q 88.921875 44.046875 88.921875 33.015625 
L 88.921875 0 
L 79.890625 0 
L 79.890625 32.71875 
Q 79.890625 40.578125 77.09375 44.375 
Q 74.3125 48.1875 68.609375 48.1875 
Q 61.625 48.1875 57.5625 43.546875 
Q 53.515625 38.921875 53.515625 30.90625 
L 53.515625 0 
L 44.484375 0 
L 44.484375 32.71875 
Q 44.484375 40.625 41.703125 44.40625 
Q 38.921875 48.1875 33.109375 48.1875 
Q 26.21875 48.1875 22.15625 43.53125 
Q 18.109375 38.875 18.109375 30.90625 
L 18.109375 0 
L 9.078125 0 
L 9.078125 54.6875 
L 18.109375 54.6875 
L 18.109375 46.1875 
Q 21.1875 51.21875 25.484375 53.609375 
Q 29.78125 56 35.6875 56 
Q 41.65625 56 45.828125 52.96875 
Q 50 49.953125 52 44.1875 
z
" id="DejaVuSans-109"/>
      <path d="M 48.78125 52.59375 
L 48.78125 44.1875 
Q 44.96875 46.296875 41.140625 47.34375 
Q 37.3125 48.390625 33.40625 48.390625 
Q 24.65625 48.390625 19.8125 42.84375 
Q 14.984375 37.3125 14.984375 27.296875 
Q 14.984375 17.28125 19.8125 11.734375 
Q 24.65625 6.203125 33.40625 6.203125 
Q 37.3125 6.203125 41.140625 7.25 
Q 44.96875 8.296875 48.78125 10.40625 
L 48.78125 2.09375 
Q 45.015625 0.34375 40.984375 -0.53125 
Q 36.96875 -1.421875 32.421875 -1.421875 
Q 20.0625 -1.421875 12.78125 6.34375 
Q 5.515625 14.109375 5.515625 27.296875 
Q 5.515625 40.671875 12.859375 48.328125 
Q 20.21875 56 33.015625 56 
Q 37.15625 56 41.109375 55.140625 
Q 45.0625 54.296875 48.78125 52.59375 
z
" id="DejaVuSans-99"/>
      <path d="M 18.109375 8.203125 
L 18.109375 -20.796875 
L 9.078125 -20.796875 
L 9.078125 54.6875 
L 18.109375 54.6875 
L 18.109375 46.390625 
Q 20.953125 51.265625 25.265625 53.625 
Q 29.59375 56 35.59375 56 
Q 45.5625 56 51.78125 48.09375 
Q 58.015625 40.1875 58.015625 27.296875 
Q 58.015625 14.40625 51.78125 6.484375 
Q 45.5625 -1.421875 35.59375 -1.421875 
Q 29.59375 -1.421875 25.265625 0.953125 
Q 20.953125 3.328125 18.109375 8.203125 
z
M 48.6875 27.296875 
Q 48.6875 37.203125 44.609375 42.84375 
Q 40.53125 48.484375 33.40625 48.484375 
Q 26.265625 48.484375 22.1875 42.84375 
Q 18.109375 37.203125 18.109375 27.296875 
Q 18.109375 17.390625 22.1875 11.75 
Q 26.265625 6.109375 33.40625 6.109375 
Q 40.53125 6.109375 44.609375 11.75 
Q 48.6875 17.390625 48.6875 27.296875 
z
" id="DejaVuSans-112"/>
      <path d="M 9.8125 72.90625 
L 24.515625 72.90625 
L 43.109375 23.296875 
L 61.8125 72.90625 
L 76.515625 72.90625 
L 76.515625 0 
L 66.890625 0 
L 66.890625 64.015625 
L 48.09375 14.015625 
L 38.1875 14.015625 
L 19.390625 64.015625 
L 19.390625 0 
L 9.8125 0 
z
" id="DejaVuSans-77"/>
      <path d="M 30.609375 48.390625 
Q 23.390625 48.390625 19.1875 42.75 
Q 14.984375 37.109375 14.984375 27.296875 
Q 14.984375 17.484375 19.15625 11.84375 
Q 23.34375 6.203125 30.609375 6.203125 
Q 37.796875 6.203125 41.984375 11.859375 
Q 46.1875 17.53125 46.1875 27.296875 
Q 46.1875 37.015625 41.984375 42.703125 
Q 37.796875 48.390625 30.609375 48.390625 
z
M 30.609375 56 
Q 42.328125 56 49.015625 48.375 
Q 55.71875 40.765625 55.71875 27.296875 
Q 55.71875 13.875 49.015625 6.21875 
Q 42.328125 -1.421875 30.609375 -1.421875 
Q 18.84375 -1.421875 12.171875 6.21875 
Q 5.515625 13.875 5.515625 27.296875 
Q 5.515625 40.765625 12.171875 48.375 
Q 18.84375 56 30.609375 56 
z
" id="DejaVuSans-111"/>
      <path d="M 56.203125 29.59375 
L 56.203125 25.203125 
L 14.890625 25.203125 
Q 15.484375 15.921875 20.484375 11.0625 
Q 25.484375 6.203125 34.421875 6.203125 
Q 39.59375 6.203125 44.453125 7.46875 
Q 49.3125 8.734375 54.109375 11.28125 
L 54.109375 2.78125 
Q 49.265625 0.734375 44.1875 -0.34375 
Q 39.109375 -1.421875 33.890625 -1.421875 
Q 20.796875 -1.421875 13.15625 6.1875 
Q 5.515625 13.8125 5.515625 26.8125 
Q 5.515625 40.234375 12.765625 48.109375 
Q 20.015625 56 32.328125 56 
Q 43.359375 56 49.78125 48.890625 
Q 56.203125 41.796875 56.203125 29.59375 
z
M 47.21875 32.234375 
Q 47.125 39.59375 43.09375 43.984375 
Q 39.0625 48.390625 32.421875 48.390625 
Q 24.90625 48.390625 20.390625 44.140625 
Q 15.875 39.890625 15.1875 32.171875 
z
" id="DejaVuSans-101"/>
      <path d="M 54.890625 33.015625 
L 54.890625 0 
L 45.90625 0 
L 45.90625 32.71875 
Q 45.90625 40.484375 42.875 44.328125 
Q 39.84375 48.1875 33.796875 48.1875 
Q 26.515625 48.1875 22.3125 43.546875 
Q 18.109375 38.921875 18.109375 30.90625 
L 18.109375 0 
L 9.078125 0 
L 9.078125 54.6875 
L 18.109375 54.6875 
L 18.109375 46.1875 
Q 21.34375 51.125 25.703125 53.5625 
Q 30.078125 56 35.796875 56 
Q 45.21875 56 50.046875 50.171875 
Q 54.890625 44.34375 54.890625 33.015625 
z
" id="DejaVuSans-110"/>
      <path d="M 18.3125 70.21875 
L 18.3125 54.6875 
L 36.8125 54.6875 
L 36.8125 47.703125 
L 18.3125 47.703125 
L 18.3125 18.015625 
Q 18.3125 11.328125 20.140625 9.421875 
Q 21.96875 7.515625 27.59375 7.515625 
L 36.8125 7.515625 
L 36.8125 0 
L 27.59375 0 
Q 17.1875 0 13.234375 3.875 
Q 9.28125 7.765625 9.28125 18.015625 
L 9.28125 47.703125 
L 2.6875 47.703125 
L 2.6875 54.6875 
L 9.28125 54.6875 
L 9.28125 70.21875 
z
" id="DejaVuSans-116"/>
      <path d="M 8.5 21.578125 
L 8.5 54.6875 
L 17.484375 54.6875 
L 17.484375 21.921875 
Q 17.484375 14.15625 20.5 10.265625 
Q 23.53125 6.390625 29.59375 6.390625 
Q 36.859375 6.390625 41.078125 11.03125 
Q 45.3125 15.671875 45.3125 23.6875 
L 45.3125 54.6875 
L 54.296875 54.6875 
L 54.296875 0 
L 45.3125 0 
L 45.3125 8.40625 
Q 42.046875 3.421875 37.71875 1 
Q 33.40625 -1.421875 27.6875 -1.421875 
Q 18.265625 -1.421875 13.375 4.4375 
Q 8.5 10.296875 8.5 21.578125 
z
M 31.109375 56 
z
" id="DejaVuSans-117"/>
     </defs>
     <g transform="translate(267.180975 536.38085)scale(0.2592 -0.2592)">
      <use xlink:href="#DejaVuSans-109"/>
      <use x="97.412109" xlink:href="#DejaVuSans-99"/>
      <use x="152.392578" xlink:href="#DejaVuSans-112"/>
      <use x="215.869141" xlink:href="#DejaVuSans-77"/>
      <use x="302.148438" xlink:href="#DejaVuSans-111"/>
      <use x="363.330078" xlink:href="#DejaVuSans-109"/>
      <use x="460.742188" xlink:href="#DejaVuSans-101"/>
      <use x="522.265625" xlink:href="#DejaVuSans-110"/>
      <use x="585.644531" xlink:href="#DejaVuSans-116"/>
      <use x="624.853516" xlink:href="#DejaVuSans-117"/>
      <use x="688.232422" xlink:href="#DejaVuSans-109"/>
     </g>
    </g>
   </g>
   <g id="matplotlib.axis_2">
    <g id="ytick_1">
     <g id="line2d_6">
      <defs>
       <path d="M 0 0 
L -3.5 0 
" id="me830188fa2" style="stroke:#000000;stroke-width:0.8;"/>
      </defs>
      <g>
       <use style="stroke:#000000;stroke-width:0.8;" x="90" xlink:href="#me830188fa2" y="457.986589"/>
      </g>
     </g>
     <g id="text_7">
      <!-- $\mathdefault{10^{-5}}$ -->
      <defs>
       <path d="M 10.59375 35.5 
L 73.1875 35.5 
L 73.1875 27.203125 
L 10.59375 27.203125 
z
" id="DejaVuSans-8722"/>
      </defs>
      <g transform="translate(22.088 467.834164)scale(0.2592 -0.2592)">
       <use transform="translate(0 0.684375)" xlink:href="#DejaVuSans-49"/>
       <use transform="translate(63.623047 0.684375)" xlink:href="#DejaVuSans-48"/>
       <use transform="translate(128.203125 38.965625)scale(0.7)" xlink:href="#DejaVuSans-8722"/>
       <use transform="translate(186.855469 38.965625)scale(0.7)" xlink:href="#DejaVuSans-53"/>
      </g>
     </g>
    </g>
    <g id="ytick_2">
     <g id="line2d_7">
      <g>
       <use style="stroke:#000000;stroke-width:0.8;" x="90" xlink:href="#me830188fa2" y="358.428605"/>
      </g>
     </g>
     <g id="text_8">
      <!-- $\mathdefault{10^{-4}}$ -->
      <defs>
       <path d="M 37.796875 64.3125 
L 12.890625 25.390625 
L 37.796875 25.390625 
z
M 35.203125 72.90625 
L 47.609375 72.90625 
L 47.609375 25.390625 
L 58.015625 25.390625 
L 58.015625 17.1875 
L 47.609375 17.1875 
L 47.609375 0 
L 37.796875 0 
L 37.796875 17.1875 
L 4.890625 17.1875 
L 4.890625 26.703125 
z
" id="DejaVuSans-52"/>
      </defs>
      <g transform="translate(22.088 368.27618)scale(0.2592 -0.2592)">
       <use transform="translate(0 0.684375)" xlink:href="#DejaVuSans-49"/>
       <use transform="translate(63.623047 0.684375)" xlink:href="#DejaVuSans-48"/>
       <use transform="translate(128.203125 38.965625)scale(0.7)" xlink:href="#DejaVuSans-8722"/>
       <use transform="translate(186.855469 38.965625)scale(0.7)" xlink:href="#DejaVuSans-52"/>
      </g>
     </g>
    </g>
    <g id="ytick_3">
     <g id="line2d_8">
      <g>
       <use style="stroke:#000000;stroke-width:0.8;" x="90" xlink:href="#me830188fa2" y="258.870622"/>
      </g>
     </g>
     <g id="text_9">
      <!-- $\mathdefault{10^{-3}}$ -->
      <defs>
       <path d="M 40.578125 39.3125 
Q 47.65625 37.796875 51.625 33 
Q 55.609375 28.21875 55.609375 21.1875 
Q 55.609375 10.40625 48.1875 4.484375 
Q 40.765625 -1.421875 27.09375 -1.421875 
Q 22.515625 -1.421875 17.65625 -0.515625 
Q 12.796875 0.390625 7.625 2.203125 
L 7.625 11.71875 
Q 11.71875 9.328125 16.59375 8.109375 
Q 21.484375 6.890625 26.8125 6.890625 
Q 36.078125 6.890625 40.9375 10.546875 
Q 45.796875 14.203125 45.796875 21.1875 
Q 45.796875 27.640625 41.28125 31.265625 
Q 36.765625 34.90625 28.71875 34.90625 
L 20.21875 34.90625 
L 20.21875 43.015625 
L 29.109375 43.015625 
Q 36.375 43.015625 40.234375 45.921875 
Q 44.09375 48.828125 44.09375 54.296875 
Q 44.09375 59.90625 40.109375 62.90625 
Q 36.140625 65.921875 28.71875 65.921875 
Q 24.65625 65.921875 20.015625 65.03125 
Q 15.375 64.15625 9.8125 62.3125 
L 9.8125 71.09375 
Q 15.4375 72.65625 20.34375 73.4375 
Q 25.25 74.21875 29.59375 74.21875 
Q 40.828125 74.21875 47.359375 69.109375 
Q 53.90625 64.015625 53.90625 55.328125 
Q 53.90625 49.265625 50.4375 45.09375 
Q 46.96875 40.921875 40.578125 39.3125 
z
" id="DejaVuSans-51"/>
      </defs>
      <g transform="translate(22.088 268.718197)scale(0.2592 -0.2592)">
       <use transform="translate(0 0.765625)" xlink:href="#DejaVuSans-49"/>
       <use transform="translate(63.623047 0.765625)" xlink:href="#DejaVuSans-48"/>
       <use transform="translate(128.203125 39.046875)scale(0.7)" xlink:href="#DejaVuSans-8722"/>
       <use transform="translate(186.855469 39.046875)scale(0.7)" xlink:href="#DejaVuSans-51"/>
      </g>
     </g>
    </g>
    <g id="ytick_4">
     <g id="line2d_9">
      <g>
       <use style="stroke:#000000;stroke-width:0.8;" x="90" xlink:href="#me830188fa2" y="159.312639"/>
      </g>
     </g>
     <g id="text_10">
      <!-- $\mathdefault{10^{-2}}$ -->
      <g transform="translate(22.088 169.160214)scale(0.2592 -0.2592)">
       <use transform="translate(0 0.765625)" xlink:href="#DejaVuSans-49"/>
       <use transform="translate(63.623047 0.765625)" xlink:href="#DejaVuSans-48"/>
       <use transform="translate(128.203125 39.046875)scale(0.7)" xlink:href="#DejaVuSans-8722"/>
       <use transform="translate(186.855469 39.046875)scale(0.7)" xlink:href="#DejaVuSans-50"/>
      </g>
     </g>
    </g>
    <g id="ytick_5">
     <g id="line2d_10">
      <defs>
       <path d="M 0 0 
L -2 0 
" id="mdb6568bccd" style="stroke:#000000;stroke-width:0.6;"/>
      </defs>
      <g>
       <use style="stroke:#000000;stroke-width:0.6;" x="90" xlink:href="#mdb6568bccd" y="480.073403"/>
      </g>
     </g>
    </g>
    <g id="ytick_6">
     <g id="line2d_11">
      <g>
       <use style="stroke:#000000;stroke-width:0.6;" x="90" xlink:href="#mdb6568bccd" y="473.408316"/>
      </g>
     </g>
    </g>
    <g id="ytick_7">
     <g id="line2d_12">
      <g>
       <use style="stroke:#000000;stroke-width:0.6;" x="90" xlink:href="#mdb6568bccd" y="467.634754"/>
      </g>
     </g>
    </g>
    <g id="ytick_8">
     <g id="line2d_13">
      <g>
       <use style="stroke:#000000;stroke-width:0.6;" x="90" xlink:href="#mdb6568bccd" y="462.542112"/>
      </g>
     </g>
    </g>
    <g id="ytick_9">
     <g id="line2d_14">
      <g>
       <use style="stroke:#000000;stroke-width:0.6;" x="90" xlink:href="#mdb6568bccd" y="428.016649"/>
      </g>
     </g>
    </g>
    <g id="ytick_10">
     <g id="line2d_15">
      <g>
       <use style="stroke:#000000;stroke-width:0.6;" x="90" xlink:href="#mdb6568bccd" y="410.485359"/>
      </g>
     </g>
    </g>
    <g id="ytick_11">
     <g id="line2d_16">
      <g>
       <use style="stroke:#000000;stroke-width:0.6;" x="90" xlink:href="#mdb6568bccd" y="398.04671"/>
      </g>
     </g>
    </g>
    <g id="ytick_12">
     <g id="line2d_17">
      <g>
       <use style="stroke:#000000;stroke-width:0.6;" x="90" xlink:href="#mdb6568bccd" y="388.398545"/>
      </g>
     </g>
    </g>
    <g id="ytick_13">
     <g id="line2d_18">
      <g>
       <use style="stroke:#000000;stroke-width:0.6;" x="90" xlink:href="#mdb6568bccd" y="380.51542"/>
      </g>
     </g>
    </g>
    <g id="ytick_14">
     <g id="line2d_19">
      <g>
       <use style="stroke:#000000;stroke-width:0.6;" x="90" xlink:href="#mdb6568bccd" y="373.850332"/>
      </g>
     </g>
    </g>
    <g id="ytick_15">
     <g id="line2d_20">
      <g>
       <use style="stroke:#000000;stroke-width:0.6;" x="90" xlink:href="#mdb6568bccd" y="368.076771"/>
      </g>
     </g>
    </g>
    <g id="ytick_16">
     <g id="line2d_21">
      <g>
       <use style="stroke:#000000;stroke-width:0.6;" x="90" xlink:href="#mdb6568bccd" y="362.984129"/>
      </g>
     </g>
    </g>
    <g id="ytick_17">
     <g id="line2d_22">
      <g>
       <use style="stroke:#000000;stroke-width:0.6;" x="90" xlink:href="#mdb6568bccd" y="328.458666"/>
      </g>
     </g>
    </g>
    <g id="ytick_18">
     <g id="line2d_23">
      <g>
       <use style="stroke:#000000;stroke-width:0.6;" x="90" xlink:href="#mdb6568bccd" y="310.927376"/>
      </g>
     </g>
    </g>
    <g id="ytick_19">
     <g id="line2d_24">
      <g>
       <use style="stroke:#000000;stroke-width:0.6;" x="90" xlink:href="#mdb6568bccd" y="298.488727"/>
      </g>
     </g>
    </g>
    <g id="ytick_20">
     <g id="line2d_25">
      <g>
       <use style="stroke:#000000;stroke-width:0.6;" x="90" xlink:href="#mdb6568bccd" y="288.840561"/>
      </g>
     </g>
    </g>
    <g id="ytick_21">
     <g id="line2d_26">
      <g>
       <use style="stroke:#000000;stroke-width:0.6;" x="90" xlink:href="#mdb6568bccd" y="280.957436"/>
      </g>
     </g>
    </g>
    <g id="ytick_22">
     <g id="line2d_27">
      <g>
       <use style="stroke:#000000;stroke-width:0.6;" x="90" xlink:href="#mdb6568bccd" y="274.292349"/>
      </g>
     </g>
    </g>
    <g id="ytick_23">
     <g id="line2d_28">
      <g>
       <use style="stroke:#000000;stroke-width:0.6;" x="90" xlink:href="#mdb6568bccd" y="268.518788"/>
      </g>
     </g>
    </g>
    <g id="ytick_24">
     <g id="line2d_29">
      <g>
       <use style="stroke:#000000;stroke-width:0.6;" x="90" xlink:href="#mdb6568bccd" y="263.426146"/>
      </g>
     </g>
    </g>
    <g id="ytick_25">
     <g id="line2d_30">
      <g>
       <use style="stroke:#000000;stroke-width:0.6;" x="90" xlink:href="#mdb6568bccd" y="228.900683"/>
      </g>
     </g>
    </g>
    <g id="ytick_26">
     <g id="line2d_31">
      <g>
       <use style="stroke:#000000;stroke-width:0.6;" x="90" xlink:href="#mdb6568bccd" y="211.369392"/>
      </g>
     </g>
    </g>
    <g id="ytick_27">
     <g id="line2d_32">
      <g>
       <use style="stroke:#000000;stroke-width:0.6;" x="90" xlink:href="#mdb6568bccd" y="198.930744"/>
      </g>
     </g>
    </g>
    <g id="ytick_28">
     <g id="line2d_33">
      <g>
       <use style="stroke:#000000;stroke-width:0.6;" x="90" xlink:href="#mdb6568bccd" y="189.282578"/>
      </g>
     </g>
    </g>
    <g id="ytick_29">
     <g id="line2d_34">
      <g>
       <use style="stroke:#000000;stroke-width:0.6;" x="90" xlink:href="#mdb6568bccd" y="181.399453"/>
      </g>
     </g>
    </g>
    <g id="ytick_30">
     <g id="line2d_35">
      <g>
       <use style="stroke:#000000;stroke-width:0.6;" x="90" xlink:href="#mdb6568bccd" y="174.734366"/>
      </g>
     </g>
    </g>
    <g id="ytick_31">
     <g id="line2d_36">
      <g>
       <use style="stroke:#000000;stroke-width:0.6;" x="90" xlink:href="#mdb6568bccd" y="168.960804"/>
      </g>
     </g>
    </g>
    <g id="ytick_32">
     <g id="line2d_37">
      <g>
       <use style="stroke:#000000;stroke-width:0.6;" x="90" xlink:href="#mdb6568bccd" y="163.868162"/>
      </g>
     </g>
    </g>
    <g id="ytick_33">
     <g id="line2d_38">
      <g>
       <use style="stroke:#000000;stroke-width:0.6;" x="90" xlink:href="#mdb6568bccd" y="129.3427"/>
      </g>
     </g>
    </g>
    <g id="ytick_34">
     <g id="line2d_39">
      <g>
       <use style="stroke:#000000;stroke-width:0.6;" x="90" xlink:href="#mdb6568bccd" y="111.811409"/>
      </g>
     </g>
    </g>
    <g id="ytick_35">
     <g id="line2d_40">
      <g>
       <use style="stroke:#000000;stroke-width:0.6;" x="90" xlink:href="#mdb6568bccd" y="99.37276"/>
      </g>
     </g>
    </g>
    <g id="ytick_36">
     <g id="line2d_41">
      <g>
       <use style="stroke:#000000;stroke-width:0.6;" x="90" xlink:href="#mdb6568bccd" y="89.724595"/>
      </g>
     </g>
    </g>
    <g id="ytick_37">
     <g id="line2d_42">
      <g>
       <use style="stroke:#000000;stroke-width:0.6;" x="90" xlink:href="#mdb6568bccd" y="81.84147"/>
      </g>
     </g>
    </g>
    <g id="ytick_38">
     <g id="line2d_43">
      <g>
       <use style="stroke:#000000;stroke-width:0.6;" x="90" xlink:href="#mdb6568bccd" y="75.176382"/>
      </g>
     </g>
    </g>
    <g id="ytick_39">
     <g id="line2d_44">
      <g>
       <use style="stroke:#000000;stroke-width:0.6;" x="90" xlink:href="#mdb6568bccd" y="69.402821"/>
      </g>
     </g>
    </g>
    <g id="text_11">
     <!-- Probability -->
     <defs>
      <path d="M 19.671875 64.796875 
L 19.671875 37.40625 
L 32.078125 37.40625 
Q 38.96875 37.40625 42.71875 40.96875 
Q 46.484375 44.53125 46.484375 51.125 
Q 46.484375 57.671875 42.71875 61.234375 
Q 38.96875 64.796875 32.078125 64.796875 
z
M 9.8125 72.90625 
L 32.078125 72.90625 
Q 44.34375 72.90625 50.609375 67.359375 
Q 56.890625 61.8125 56.890625 51.125 
Q 56.890625 40.328125 50.609375 34.8125 
Q 44.34375 29.296875 32.078125 29.296875 
L 19.671875 29.296875 
L 19.671875 0 
L 9.8125 0 
z
" id="DejaVuSans-80"/>
      <path d="M 41.109375 46.296875 
Q 39.59375 47.171875 37.8125 47.578125 
Q 36.03125 48 33.890625 48 
Q 26.265625 48 22.1875 43.046875 
Q 18.109375 38.09375 18.109375 28.8125 
L 18.109375 0 
L 9.078125 0 
L 9.078125 54.6875 
L 18.109375 54.6875 
L 18.109375 46.1875 
Q 20.953125 51.171875 25.484375 53.578125 
Q 30.03125 56 36.53125 56 
Q 37.453125 56 38.578125 55.875 
Q 39.703125 55.765625 41.0625 55.515625 
z
" id="DejaVuSans-114"/>
      <path d="M 48.6875 27.296875 
Q 48.6875 37.203125 44.609375 42.84375 
Q 40.53125 48.484375 33.40625 48.484375 
Q 26.265625 48.484375 22.1875 42.84375 
Q 18.109375 37.203125 18.109375 27.296875 
Q 18.109375 17.390625 22.1875 11.75 
Q 26.265625 6.109375 33.40625 6.109375 
Q 40.53125 6.109375 44.609375 11.75 
Q 48.6875 17.390625 48.6875 27.296875 
z
M 18.109375 46.390625 
Q 20.953125 51.265625 25.265625 53.625 
Q 29.59375 56 35.59375 56 
Q 45.5625 56 51.78125 48.09375 
Q 58.015625 40.1875 58.015625 27.296875 
Q 58.015625 14.40625 51.78125 6.484375 
Q 45.5625 -1.421875 35.59375 -1.421875 
Q 29.59375 -1.421875 25.265625 0.953125 
Q 20.953125 3.328125 18.109375 8.203125 
L 18.109375 0 
L 9.078125 0 
L 9.078125 75.984375 
L 18.109375 75.984375 
z
" id="DejaVuSans-98"/>
      <path d="M 34.28125 27.484375 
Q 23.390625 27.484375 19.1875 25 
Q 14.984375 22.515625 14.984375 16.5 
Q 14.984375 11.71875 18.140625 8.90625 
Q 21.296875 6.109375 26.703125 6.109375 
Q 34.1875 6.109375 38.703125 11.40625 
Q 43.21875 16.703125 43.21875 25.484375 
L 43.21875 27.484375 
z
M 52.203125 31.203125 
L 52.203125 0 
L 43.21875 0 
L 43.21875 8.296875 
Q 40.140625 3.328125 35.546875 0.953125 
Q 30.953125 -1.421875 24.3125 -1.421875 
Q 15.921875 -1.421875 10.953125 3.296875 
Q 6 8.015625 6 15.921875 
Q 6 25.140625 12.171875 29.828125 
Q 18.359375 34.515625 30.609375 34.515625 
L 43.21875 34.515625 
L 43.21875 35.40625 
Q 43.21875 41.609375 39.140625 45 
Q 35.0625 48.390625 27.6875 48.390625 
Q 23 48.390625 18.546875 47.265625 
Q 14.109375 46.140625 10.015625 43.890625 
L 10.015625 52.203125 
Q 14.9375 54.109375 19.578125 55.046875 
Q 24.21875 56 28.609375 56 
Q 40.484375 56 46.34375 49.84375 
Q 52.203125 43.703125 52.203125 31.203125 
z
" id="DejaVuSans-97"/>
      <path d="M 9.421875 54.6875 
L 18.40625 54.6875 
L 18.40625 0 
L 9.421875 0 
z
M 9.421875 75.984375 
L 18.40625 75.984375 
L 18.40625 64.59375 
L 9.421875 64.59375 
z
" id="DejaVuSans-105"/>
      <path d="M 9.421875 75.984375 
L 18.40625 75.984375 
L 18.40625 0 
L 9.421875 0 
z
" id="DejaVuSans-108"/>
      <path d="M 32.171875 -5.078125 
Q 28.375 -14.84375 24.75 -17.8125 
Q 21.140625 -20.796875 15.09375 -20.796875 
L 7.90625 -20.796875 
L 7.90625 -13.28125 
L 13.1875 -13.28125 
Q 16.890625 -13.28125 18.9375 -11.515625 
Q 21 -9.765625 23.484375 -3.21875 
L 25.09375 0.875 
L 2.984375 54.6875 
L 12.5 54.6875 
L 29.59375 11.921875 
L 46.6875 54.6875 
L 56.203125 54.6875 
z
" id="DejaVuSans-121"/>
     </defs>
     <g transform="translate(12.69745 341.71605)rotate(-90)scale(0.2592 -0.2592)">
      <use xlink:href="#DejaVuSans-80"/>
      <use x="60.287109" xlink:href="#DejaVuSans-114"/>
      <use x="101.369141" xlink:href="#DejaVuSans-111"/>
      <use x="162.550781" xlink:href="#DejaVuSans-98"/>
      <use x="226.027344" xlink:href="#DejaVuSans-97"/>
      <use x="287.306641" xlink:href="#DejaVuSans-98"/>
      <use x="350.783203" xlink:href="#DejaVuSans-105"/>
      <use x="378.566406" xlink:href="#DejaVuSans-108"/>
      <use x="406.349609" xlink:href="#DejaVuSans-105"/>
      <use x="434.132812" xlink:href="#DejaVuSans-116"/>
      <use x="473.341797" xlink:href="#DejaVuSans-121"/>
     </g>
    </g>
   </g>
   <g id="line2d_45">
    <path clip-path="url(#p892250f624)" d="M 90 160.916486 
L 101.387755 160.916486 
L 101.387755 95.311275 
L 112.77551 95.311275 
L 112.77551 105.190331 
L 124.163265 105.190331 
L 124.163265 109.09509 
L 135.55102 109.09509 
L 135.55102 123.321557 
L 146.938776 123.321557 
L 146.938776 139.251747 
L 158.326531 139.251747 
L 158.326531 150.923797 
L 169.714286 150.923797 
L 169.714286 164.656184 
L 181.102041 164.656184 
L 181.102041 179.384365 
L 192.489796 179.384365 
L 192.489796 192.480228 
L 203.877551 192.480228 
L 203.877551 205.550092 
L 215.265306 205.550092 
L 215.265306 221.940486 
L 226.653061 221.940486 
L 226.653061 232.614094 
L 238.040816 232.614094 
L 238.040816 244.765449 
L 249.428571 244.765449 
L 249.428571 244.480052 
L 260.816327 244.480052 
L 260.816327 262.153806 
L 272.204082 262.153806 
L 272.204082 276.787722 
L 283.591837 276.787722 
L 283.591837 297.109496 
L 294.979592 297.109496 
L 294.979592 299.075175 
L 306.367347 299.075175 
L 306.367347 287.653926 
L 317.755102 287.653926 
L 317.755102 286.136665 
L 329.142857 286.136665 
L 329.142857 304.419931 
L 340.530612 304.419931 
L 340.530612 319.19631 
L 351.918367 319.19631 
L 351.918367 313.223037 
L 363.306122 313.223037 
L 363.306122 320.828107 
L 374.693878 320.828107 
L 374.693878 330.062514 
L 386.081633 330.062514 
L 386.081633 347.593804 
L 397.469388 347.593804 
L 397.469388 341.820243 
L 408.857143 341.820243 
L 408.857143 347.593804 
L 420.244898 347.593804 
L 420.244898 377.563743 
L 431.632653 377.563743 
L 431.632653 330.062514 
L 443.020408 330.062514 
L 443.020408 339.198987 
L 454.408163 339.198987 
L 454.408163 366.69754 
L 465.795918 366.69754 
L 465.795918 336.727601 
L 477.183673 336.727601 
L 477.183673 384.228831 
L 488.571429 384.228831 
L 488.571429 366.69754 
L 499.959184 366.69754 
L 499.959184 371.790182 
L 511.346939 371.790182 
L 511.346939 377.563743 
L 522.734694 377.563743 
L 522.734694 366.69754 
L 534.122449 366.69754 
L 534.122449 431.730061 
L 545.510204 431.730061 
L 545.510204 366.69754 
L 556.897959 366.69754 
L 556.897959 371.790182 
L 568.285714 371.790182 
L 568.285714 414.19877 
L 579.673469 414.19877 
L 579.673469 362.142017 
L 591.061224 362.142017 
L 591.061224 377.563743 
L 602.44898 377.563743 
L 602.44898 392.111956 
L 613.836735 392.111956 
L 613.836735 541 
M 625.22449 541 
L 625.22449 392.111956 
L 636.612245 392.111956 
L 636.612245 431.730061 
L 648 431.730061 
" style="fill:none;stroke:#1f77b4;stroke-linecap:square;stroke-width:1.5;"/>
   </g>
   <g id="line2d_46">
    <path clip-path="url(#p892250f624)" d="M 112.77551 541 
L 112.77551 244.196527 
L 124.163265 244.196527 
L 124.163265 130.171149 
L 135.55102 130.171149 
L 135.55102 93.672121 
L 146.938776 93.672121 
L 146.938776 87.666607 
L 158.326531 87.666607 
L 158.326531 83.7 
L 169.714286 83.7 
L 169.714286 84.847284 
L 181.102041 84.847284 
L 181.102041 89.862899 
L 192.489796 89.862899 
L 192.489796 96.408732 
L 203.877551 96.408732 
L 203.877551 104.57063 
L 215.265306 104.57063 
L 215.265306 110.986595 
L 226.653061 110.986595 
L 226.653061 109.872132 
L 238.040816 109.872132 
L 238.040816 103.816533 
L 249.428571 103.816533 
L 249.428571 98.205431 
L 260.816327 98.205431 
L 260.816327 98.74955 
L 272.204082 98.74955 
L 272.204082 101.546553 
L 283.591837 101.546553 
L 283.591837 106.92701 
L 294.979592 106.92701 
L 294.979592 112.024082 
L 306.367347 112.024082 
L 306.367347 118.307617 
L 317.755102 118.307617 
L 317.755102 125.808175 
L 329.142857 125.808175 
L 329.142857 133.753505 
L 340.530612 133.753505 
L 340.530612 143.302917 
L 351.918367 143.302917 
L 351.918367 147.621622 
L 363.306122 147.621622 
L 363.306122 158.591761 
L 374.693878 158.591761 
L 374.693878 169.647922 
L 386.081633 169.647922 
L 386.081633 178.695557 
L 397.469388 178.695557 
L 397.469388 187.179212 
L 408.857143 187.179212 
L 408.857143 195.396219 
L 420.244898 195.396219 
L 420.244898 207.926376 
L 431.632653 207.926376 
L 431.632653 210.700577 
L 443.020408 210.700577 
L 443.020408 220.283674 
L 454.408163 220.283674 
L 454.408163 222.279605 
L 465.795918 222.279605 
L 465.795918 235.984955 
L 477.183673 235.984955 
L 477.183673 239.641003 
L 488.571429 239.641003 
L 488.571429 246.221394 
L 499.959184 246.221394 
L 499.959184 259.658644 
L 511.346939 259.658644 
L 511.346939 268.605375 
L 522.734694 268.605375 
L 522.734694 271.69508 
L 534.122449 271.69508 
L 534.122449 276.191334 
L 545.510204 276.191334 
L 545.510204 290.858168 
L 556.897959 290.858168 
L 556.897959 298.081166 
L 568.285714 298.081166 
L 568.285714 319.19631 
L 579.673469 319.19631 
L 579.673469 307.975699 
L 591.061224 307.975699 
L 591.061224 319.19631 
L 602.44898 319.19631 
L 602.44898 358.021044 
L 613.836735 358.021044 
L 613.836735 324.288952 
L 625.22449 324.288952 
L 625.22449 358.021044 
L 636.612245 358.021044 
L 636.612245 344.610726 
L 648 344.610726 
" style="fill:none;stroke:#ff7f0e;stroke-linecap:square;stroke-width:1.5;"/>
   </g>
   <g id="line2d_47">
    <path clip-path="url(#p892250f624)" d="M 112.77551 541 
L 112.77551 293.427487 
L 124.163265 293.427487 
L 124.163265 146.693036 
L 135.55102 146.693036 
L 135.55102 101.525695 
L 146.938776 101.525695 
L 146.938776 90.894138 
L 158.326531 90.894138 
L 158.326531 85.655886 
L 169.714286 85.655886 
L 169.714286 86.040415 
L 181.102041 86.040415 
L 181.102041 90.910448 
L 192.489796 90.910448 
L 192.489796 97.782661 
L 203.877551 97.782661 
L 203.877551 106.223946 
L 215.265306 106.223946 
L 215.265306 113.387813 
L 226.653061 113.387813 
L 226.653061 112.30411 
L 238.040816 112.30411 
L 238.040816 105.463555 
L 249.428571 105.463555 
L 249.428571 99.568822 
L 260.816327 99.568822 
L 260.816327 99.778592 
L 272.204082 99.778592 
L 272.204082 102.357312 
L 283.591837 102.357312 
L 283.591837 107.761966 
L 294.979592 107.761966 
L 294.979592 112.978234 
L 306.367347 112.978234 
L 306.367347 119.036139 
L 317.755102 119.036139 
L 317.755102 126.489965 
L 329.142857 126.489965 
L 329.142857 134.7087 
L 340.530612 134.7087 
L 340.530612 143.965573 
L 351.918367 143.965573 
L 351.918367 148.354478 
L 363.306122 148.354478 
L 363.306122 159.10206 
L 374.693878 159.10206 
L 374.693878 170.513209 
L 386.081633 170.513209 
L 386.081633 179.258309 
L 397.469388 179.258309 
L 397.469388 188.173221 
L 408.857143 188.173221 
L 408.857143 196.040879 
L 420.244898 196.040879 
L 420.244898 208.789921 
L 431.632653 208.789921 
L 431.632653 212.022927 
L 443.020408 212.022927 
L 443.020408 220.609997 
L 454.408163 220.609997 
L 454.408163 223.487917 
L 465.795918 223.487917 
L 465.795918 237.169618 
L 477.183673 237.169618 
L 477.183673 240.670516 
L 488.571429 240.670516 
L 488.571429 249.289169 
L 499.959184 249.289169 
L 499.959184 262.584033 
L 511.346939 262.584033 
L 511.346939 270.122635 
L 522.734694 270.122635 
L 522.734694 272.232199 
L 534.122449 272.232199 
L 534.122449 277.392452 
L 545.510204 277.392452 
L 545.510204 291.697757 
L 556.897959 291.697757 
L 556.897959 304.419931 
L 568.285714 304.419931 
L 568.285714 322.523912 
L 579.673469 322.523912 
L 579.673469 310.519815 
L 591.061224 310.519815 
L 591.061224 319.19631 
L 602.44898 319.19631 
L 602.44898 358.021044 
L 613.836735 358.021044 
L 613.836735 326.129123 
L 625.22449 326.129123 
L 625.22449 362.142017 
L 636.612245 362.142017 
L 636.612245 344.610726 
L 648 344.610726 
" style="fill:none;stroke:#2ca02c;stroke-linecap:square;stroke-width:1.5;"/>
   </g>
   <g id="line2d_48">
    <path clip-path="url(#p892250f624)" d="M 112.77551 541 
L 112.77551 260.888228 
L 124.163265 260.888228 
L 124.163265 179.764756 
L 135.55102 179.764756 
L 135.55102 171.291349 
L 146.938776 171.291349 
L 146.938776 201.47118 
L 158.326531 201.47118 
L 158.326531 218.53164 
L 169.714286 218.53164 
L 169.714286 240.670516 
L 181.102041 240.670516 
L 181.102041 251.240063 
L 192.489796 251.240063 
L 192.489796 246.51856 
L 203.877551 246.51856 
L 203.877551 246.51856 
L 215.265306 246.51856 
L 215.265306 237.169618 
L 226.653061 237.169618 
L 226.653061 235.520031 
L 238.040816 235.520031 
L 238.040816 245.926257 
L 249.428571 245.926257 
L 249.428571 248.345768 
L 260.816327 248.345768 
L 260.816327 260.888228 
L 272.204082 260.888228 
L 272.204082 273.884788 
L 283.591837 273.884788 
L 283.591837 278.00576 
L 294.979592 278.00576 
L 294.979592 278.00576 
L 306.367347 278.00576 
L 306.367347 295.229309 
L 317.755102 295.229309 
L 317.755102 305.572999 
L 329.142857 305.572999 
L 329.142857 299.075175 
L 340.530612 299.075175 
L 340.530612 324.288952 
L 351.918367 324.288952 
L 351.918367 324.288952 
L 363.306122 324.288952 
L 363.306122 350.798046 
L 374.693878 350.798046 
L 374.693878 339.198987 
L 386.081633 339.198987 
L 386.081633 366.69754 
L 397.469388 366.69754 
L 397.469388 350.798046 
L 408.857143 350.798046 
L 408.857143 377.563743 
L 420.244898 377.563743 
L 420.244898 377.563743 
L 431.632653 377.563743 
L 431.632653 362.142017 
L 443.020408 362.142017 
L 443.020408 431.730061 
L 454.408163 431.730061 
L 454.408163 377.563743 
L 465.795918 377.563743 
L 465.795918 392.111956 
L 477.183673 392.111956 
L 477.183673 401.760121 
L 488.571429 401.760121 
L 488.571429 362.142017 
L 499.959184 362.142017 
L 499.959184 377.563743 
L 511.346939 377.563743 
L 511.346939 414.19877 
L 522.734694 414.19877 
L 522.734694 461.7 
L 534.122449 461.7 
L 534.122449 431.730061 
L 545.510204 431.730061 
L 545.510204 461.7 
L 556.897959 461.7 
L 556.897959 384.228831 
L 568.285714 384.228831 
L 568.285714 431.730061 
L 579.673469 431.730061 
L 579.673469 431.730061 
L 591.061224 431.730061 
L 591.061224 541 
M 613.836735 541 
L 613.836735 461.7 
L 625.22449 461.7 
L 625.22449 461.7 
L 636.612245 461.7 
L 636.612245 541 
" style="fill:none;stroke:#d62728;stroke-linecap:square;stroke-width:1.5;"/>
   </g>
   <g id="line2d_49">
    <path clip-path="url(#p892250f624)" d="M 90 166.537368 
L 101.387755 166.537368 
L 101.387755 100.832722 
L 112.77551 100.832722 
L 112.77551 107.140178 
L 124.163265 107.140178 
L 124.163265 110.380964 
L 135.55102 110.380964 
L 135.55102 124.796303 
L 146.938776 124.796303 
L 146.938776 140.568983 
L 158.326531 140.568983 
L 158.326531 152.589546 
L 169.714286 152.589546 
L 169.714286 165.839599 
L 181.102041 165.839599 
L 181.102041 180.861067 
L 192.489796 180.861067 
L 192.489796 194.312969 
L 203.877551 194.312969 
L 203.877551 206.484993 
L 215.265306 206.484993 
L 215.265306 223.487917 
L 226.653061 223.487917 
L 226.653061 233.26757 
L 238.040816 233.26757 
L 238.040816 245.926257 
L 249.428571 245.926257 
L 249.428571 246.51856 
L 260.816327 246.51856 
L 260.816327 265.25937 
L 272.204082 265.25937 
L 272.204082 281.210002 
L 283.591837 281.210002 
L 283.591837 298.081166 
L 294.979592 298.081166 
L 294.979592 300.092574 
L 306.367347 300.092574 
L 306.367347 291.697757 
L 317.755102 291.697757 
L 317.755102 289.226371 
L 329.142857 289.226371 
L 329.142857 309.229048 
L 340.530612 309.229048 
L 340.530612 324.288952 
L 351.918367 324.288952 
L 351.918367 316.106605 
L 363.306122 316.106605 
L 363.306122 322.523912 
L 374.693878 322.523912 
L 374.693878 332.172077 
L 386.081633 332.172077 
L 386.081633 354.258892 
L 397.469388 354.258892 
L 397.469388 341.820243 
L 408.857143 341.820243 
L 408.857143 358.021044 
L 420.244898 358.021044 
L 420.244898 384.228831 
L 431.632653 384.228831 
L 431.632653 336.727601 
L 443.020408 336.727601 
L 443.020408 347.593804 
L 454.408163 347.593804 
L 454.408163 392.111956 
L 465.795918 392.111956 
L 465.795918 339.198987 
L 477.183673 339.198987 
L 477.183673 384.228831 
L 488.571429 384.228831 
L 488.571429 371.790182 
L 499.959184 371.790182 
L 499.959184 384.228831 
L 511.346939 384.228831 
L 511.346939 377.563743 
L 522.734694 377.563743 
L 522.734694 371.790182 
L 534.122449 371.790182 
L 534.122449 431.730061 
L 545.510204 431.730061 
L 545.510204 384.228831 
L 556.897959 384.228831 
L 556.897959 377.563743 
L 568.285714 377.563743 
L 568.285714 414.19877 
L 579.673469 414.19877 
L 579.673469 366.69754 
L 591.061224 366.69754 
L 591.061224 392.111956 
L 602.44898 392.111956 
L 602.44898 401.760121 
L 613.836735 401.760121 
L 613.836735 541 
M 625.22449 541 
L 625.22449 392.111956 
L 636.612245 392.111956 
L 636.612245 431.730061 
L 648 431.730061 
" style="fill:none;stroke:#9467bd;stroke-linecap:square;stroke-width:1.5;"/>
   </g>
   <g id="line2d_50">
    <path clip-path="url(#p892250f624)" d="M 90 251.910425 
L 101.387755 251.910425 
L 101.387755 187.028296 
L 112.77551 187.028296 
L 112.77551 240.152696 
L 124.163265 240.152696 
L 124.163265 261.727818 
L 135.55102 261.727818 
L 135.55102 270.640455 
L 146.938776 270.640455 
L 146.938776 290.858168 
L 158.326531 290.858168 
L 158.326531 292.553973 
L 169.714286 292.553973 
L 169.714286 322.523912 
L 181.102041 322.523912 
L 181.102041 328.051105 
L 192.489796 328.051105 
L 192.489796 330.062514 
L 203.877551 330.062514 
L 203.877551 371.790182 
L 215.265306 371.790182 
L 215.265306 371.790182 
L 226.653061 371.790182 
L 226.653061 414.19877 
L 238.040816 414.19877 
L 238.040816 401.760121 
L 249.428571 401.760121 
L 249.428571 384.228831 
L 260.816327 384.228831 
L 260.816327 377.563743 
L 272.204082 377.563743 
L 272.204082 414.19877 
L 283.591837 414.19877 
L 283.591837 541 
M 294.979592 541 
L 294.979592 461.7 
L 306.367347 461.7 
L 306.367347 401.760121 
L 317.755102 401.760121 
L 317.755102 431.730061 
L 329.142857 431.730061 
L 329.142857 414.19877 
L 340.530612 414.19877 
L 340.530612 431.730061 
L 351.918367 431.730061 
L 351.918367 431.730061 
L 363.306122 431.730061 
L 363.306122 541 
M 374.693878 541 
L 374.693878 461.7 
L 386.081633 461.7 
L 386.081633 431.730061 
L 397.469388 431.730061 
L 397.469388 541 
M 408.857143 541 
L 408.857143 461.7 
L 420.244898 461.7 
L 420.244898 541 
M 431.632653 541 
L 431.632653 431.730061 
L 443.020408 431.730061 
L 443.020408 461.7 
L 454.408163 461.7 
L 454.408163 431.730061 
L 465.795918 431.730061 
L 465.795918 461.7 
L 477.183673 461.7 
L 477.183673 541 
M 499.959184 541 
L 499.959184 461.7 
L 511.346939 461.7 
L 511.346939 541 
M 522.734694 541 
L 522.734694 461.7 
L 534.122449 461.7 
L 534.122449 541 
M 545.510204 541 
L 545.510204 431.730061 
L 556.897959 431.730061 
L 556.897959 541 
M 579.673469 541 
L 579.673469 461.7 
L 591.061224 461.7 
L 591.061224 541 
" style="fill:none;stroke:#8c564b;stroke-linecap:square;stroke-width:1.5;"/>
   </g>
   <g id="line2d_51">
    <path clip-path="url(#p892250f624)" d="M 141.945946 480.6 
L 141.945946 64.8 
" style="fill:none;stroke:#1f77b4;stroke-linecap:square;stroke-width:1.5;"/>
   </g>
   <g id="patch_5">
    <path d="M 90 480.6 
L 90 64.8 
" style="fill:none;stroke:#000000;stroke-linecap:square;stroke-linejoin:miter;stroke-width:0.8;"/>
   </g>
   <g id="patch_6">
    <path d="M 648 480.6 
L 648 64.8 
" style="fill:none;stroke:#000000;stroke-linecap:square;stroke-linejoin:miter;stroke-width:0.8;"/>
   </g>
   <g id="patch_7">
    <path d="M 90 480.6 
L 648 480.6 
" style="fill:none;stroke:#000000;stroke-linecap:square;stroke-linejoin:miter;stroke-width:0.8;"/>
   </g>
   <g id="patch_8">
    <path d="M 90 64.8 
L 648 64.8 
" style="fill:none;stroke:#000000;stroke-linecap:square;stroke-linejoin:miter;stroke-width:0.8;"/>
   </g>
   <g id="text_12">
    <g id="patch_9">
     <path d="M 204.718044 109.584125 
L 153.945946 109.584125 
L 153.945946 78.227875 
L 204.718044 78.227875 
L 204.718044 70.388813 
L 228.235232 93.906 
L 204.718044 117.423188 
L 204.718044 109.584125 
z
" style="fill:#ff7f0e;opacity:0.5;stroke:#ff7f0e;stroke-linejoin:miter;"/>
    </g>
    <!-- track -->
    <defs>
     <path d="M 9.078125 75.984375 
L 18.109375 75.984375 
L 18.109375 31.109375 
L 44.921875 54.6875 
L 56.390625 54.6875 
L 27.390625 29.109375 
L 57.625 0 
L 45.90625 0 
L 18.109375 26.703125 
L 18.109375 0 
L 9.078125 0 
z
" id="DejaVuSans-107"/>
    </defs>
    <g transform="translate(159.945946 99.42475)scale(0.2 -0.2)">
     <use xlink:href="#DejaVuSans-116"/>
     <use x="39.208984" xlink:href="#DejaVuSans-114"/>
     <use x="80.322266" xlink:href="#DejaVuSans-97"/>
     <use x="141.601562" xlink:href="#DejaVuSans-99"/>
     <use x="196.582031" xlink:href="#DejaVuSans-107"/>
    </g>
   </g>
   <g id="text_13">
    <g id="patch_10">
     <path d="M 57.855098 109.584125 
L 129.945946 109.584125 
L 129.945946 78.227875 
L 57.855098 78.227875 
L 57.855098 70.388813 
L 34.33791 93.906 
L 57.855098 117.423188 
L 57.855098 109.584125 
z
" style="fill:#1f77b4;opacity:0.5;stroke:#1f77b4;stroke-linejoin:miter;"/>
    </g>
    <!-- shower -->
    <defs>
     <path d="M 44.28125 53.078125 
L 44.28125 44.578125 
Q 40.484375 46.53125 36.375 47.5 
Q 32.28125 48.484375 27.875 48.484375 
Q 21.1875 48.484375 17.84375 46.4375 
Q 14.5 44.390625 14.5 40.28125 
Q 14.5 37.15625 16.890625 35.375 
Q 19.28125 33.59375 26.515625 31.984375 
L 29.59375 31.296875 
Q 39.15625 29.25 43.1875 25.515625 
Q 47.21875 21.78125 47.21875 15.09375 
Q 47.21875 7.46875 41.1875 3.015625 
Q 35.15625 -1.421875 24.609375 -1.421875 
Q 20.21875 -1.421875 15.453125 -0.5625 
Q 10.6875 0.296875 5.421875 2 
L 5.421875 11.28125 
Q 10.40625 8.6875 15.234375 7.390625 
Q 20.0625 6.109375 24.8125 6.109375 
Q 31.15625 6.109375 34.5625 8.28125 
Q 37.984375 10.453125 37.984375 14.40625 
Q 37.984375 18.0625 35.515625 20.015625 
Q 33.0625 21.96875 24.703125 23.78125 
L 21.578125 24.515625 
Q 13.234375 26.265625 9.515625 29.90625 
Q 5.8125 33.546875 5.8125 39.890625 
Q 5.8125 47.609375 11.28125 51.796875 
Q 16.75 56 26.8125 56 
Q 31.78125 56 36.171875 55.265625 
Q 40.578125 54.546875 44.28125 53.078125 
z
" id="DejaVuSans-115"/>
     <path d="M 54.890625 33.015625 
L 54.890625 0 
L 45.90625 0 
L 45.90625 32.71875 
Q 45.90625 40.484375 42.875 44.328125 
Q 39.84375 48.1875 33.796875 48.1875 
Q 26.515625 48.1875 22.3125 43.546875 
Q 18.109375 38.921875 18.109375 30.90625 
L 18.109375 0 
L 9.078125 0 
L 9.078125 75.984375 
L 18.109375 75.984375 
L 18.109375 46.1875 
Q 21.34375 51.125 25.703125 53.5625 
Q 30.078125 56 35.796875 56 
Q 45.21875 56 50.046875 50.171875 
Q 54.890625 44.34375 54.890625 33.015625 
z
" id="DejaVuSans-104"/>
     <path d="M 4.203125 54.6875 
L 13.1875 54.6875 
L 24.421875 12.015625 
L 35.59375 54.6875 
L 46.1875 54.6875 
L 57.421875 12.015625 
L 68.609375 54.6875 
L 77.59375 54.6875 
L 63.28125 0 
L 52.6875 0 
L 40.921875 44.828125 
L 29.109375 0 
L 18.5 0 
z
" id="DejaVuSans-119"/>
    </defs>
    <g transform="translate(51.730321 99.42475)scale(0.2 -0.2)">
     <use xlink:href="#DejaVuSans-115"/>
     <use x="52.099609" xlink:href="#DejaVuSans-104"/>
     <use x="115.478516" xlink:href="#DejaVuSans-111"/>
     <use x="176.660156" xlink:href="#DejaVuSans-119"/>
     <use x="258.447266" xlink:href="#DejaVuSans-101"/>
     <use x="319.970703" xlink:href="#DejaVuSans-114"/>
    </g>
   </g>
   <g id="legend_1">
    <g id="patch_11">
     <path d="M 179.960625 237.72375 
L 558.039375 237.72375 
Q 561.639375 237.72375 561.639375 234.12375 
L 561.639375 77.4 
Q 561.639375 73.8 558.039375 73.8 
L 179.960625 73.8 
Q 176.360625 73.8 176.360625 77.4 
L 176.360625 234.12375 
Q 176.360625 237.72375 179.960625 237.72375 
z
" style="fill:#ffffff;opacity:0.5;stroke:#cccccc;stroke-linejoin:miter;"/>
    </g>
    <g id="line2d_52">
     <path d="M 183.560625 88.377188 
L 219.560625 88.377188 
" style="fill:none;stroke:#1f77b4;stroke-linecap:square;stroke-width:1.5;"/>
    </g>
    <g id="line2d_53"/>
    <g id="text_14">
     <!-- Showers -->
     <defs>
      <path d="M 53.515625 70.515625 
L 53.515625 60.890625 
Q 47.90625 63.578125 42.921875 64.890625 
Q 37.9375 66.21875 33.296875 66.21875 
Q 25.25 66.21875 20.875 63.09375 
Q 16.5 59.96875 16.5 54.203125 
Q 16.5 49.359375 19.40625 46.890625 
Q 22.3125 44.4375 30.421875 42.921875 
L 36.375 41.703125 
Q 47.40625 39.59375 52.65625 34.296875 
Q 57.90625 29 57.90625 20.125 
Q 57.90625 9.515625 50.796875 4.046875 
Q 43.703125 -1.421875 29.984375 -1.421875 
Q 24.8125 -1.421875 18.96875 -0.25 
Q 13.140625 0.921875 6.890625 3.21875 
L 6.890625 13.375 
Q 12.890625 10.015625 18.65625 8.296875 
Q 24.421875 6.59375 29.984375 6.59375 
Q 38.421875 6.59375 43.015625 9.90625 
Q 47.609375 13.234375 47.609375 19.390625 
Q 47.609375 24.75 44.3125 27.78125 
Q 41.015625 30.8125 33.5 32.328125 
L 27.484375 33.5 
Q 16.453125 35.6875 11.515625 40.375 
Q 6.59375 45.0625 6.59375 53.421875 
Q 6.59375 63.09375 13.40625 68.65625 
Q 20.21875 74.21875 32.171875 74.21875 
Q 37.3125 74.21875 42.625 73.28125 
Q 47.953125 72.359375 53.515625 70.515625 
z
" id="DejaVuSans-83"/>
     </defs>
     <g transform="translate(233.960625 94.677188)scale(0.18 -0.18)">
      <use xlink:href="#DejaVuSans-83"/>
      <use x="63.476562" xlink:href="#DejaVuSans-104"/>
      <use x="126.855469" xlink:href="#DejaVuSans-111"/>
      <use x="188.037109" xlink:href="#DejaVuSans-119"/>
      <use x="269.824219" xlink:href="#DejaVuSans-101"/>
      <use x="331.347656" xlink:href="#DejaVuSans-114"/>
      <use x="372.460938" xlink:href="#DejaVuSans-115"/>
     </g>
    </g>
    <g id="line2d_54">
     <path d="M 183.560625 114.797813 
L 219.560625 114.797813 
" style="fill:none;stroke:#ff7f0e;stroke-linecap:square;stroke-width:1.5;"/>
    </g>
    <g id="line2d_55"/>
    <g id="text_15">
     <!-- Tracks -->
     <defs>
      <path d="M -0.296875 72.90625 
L 61.375 72.90625 
L 61.375 64.59375 
L 35.5 64.59375 
L 35.5 0 
L 25.59375 0 
L 25.59375 64.59375 
L -0.296875 64.59375 
z
" id="DejaVuSans-84"/>
     </defs>
     <g transform="translate(233.960625 121.097813)scale(0.18 -0.18)">
      <use xlink:href="#DejaVuSans-84"/>
      <use x="60.865234" xlink:href="#DejaVuSans-114"/>
      <use x="101.978516" xlink:href="#DejaVuSans-97"/>
      <use x="163.257812" xlink:href="#DejaVuSans-99"/>
      <use x="218.238281" xlink:href="#DejaVuSans-107"/>
      <use x="276.148438" xlink:href="#DejaVuSans-115"/>
     </g>
    </g>
    <g id="line2d_56">
     <path d="M 183.560625 141.218438 
L 219.560625 141.218438 
" style="fill:none;stroke:#2ca02c;stroke-linecap:square;stroke-width:1.5;"/>
    </g>
    <g id="line2d_57"/>
    <g id="text_16">
     <!-- Correct tracks -->
     <defs>
      <path d="M 64.40625 67.28125 
L 64.40625 56.890625 
Q 59.421875 61.53125 53.78125 63.8125 
Q 48.140625 66.109375 41.796875 66.109375 
Q 29.296875 66.109375 22.65625 58.46875 
Q 16.015625 50.828125 16.015625 36.375 
Q 16.015625 21.96875 22.65625 14.328125 
Q 29.296875 6.6875 41.796875 6.6875 
Q 48.140625 6.6875 53.78125 8.984375 
Q 59.421875 11.28125 64.40625 15.921875 
L 64.40625 5.609375 
Q 59.234375 2.09375 53.4375 0.328125 
Q 47.65625 -1.421875 41.21875 -1.421875 
Q 24.65625 -1.421875 15.125 8.703125 
Q 5.609375 18.84375 5.609375 36.375 
Q 5.609375 53.953125 15.125 64.078125 
Q 24.65625 74.21875 41.21875 74.21875 
Q 47.75 74.21875 53.53125 72.484375 
Q 59.328125 70.75 64.40625 67.28125 
z
" id="DejaVuSans-67"/>
      <path id="DejaVuSans-32"/>
     </defs>
     <g transform="translate(233.960625 147.518438)scale(0.18 -0.18)">
      <use xlink:href="#DejaVuSans-67"/>
      <use x="69.824219" xlink:href="#DejaVuSans-111"/>
      <use x="131.005859" xlink:href="#DejaVuSans-114"/>
      <use x="172.103516" xlink:href="#DejaVuSans-114"/>
      <use x="213.185547" xlink:href="#DejaVuSans-101"/>
      <use x="274.708984" xlink:href="#DejaVuSans-99"/>
      <use x="329.689453" xlink:href="#DejaVuSans-116"/>
      <use x="368.898438" xlink:href="#DejaVuSans-32"/>
      <use x="400.685547" xlink:href="#DejaVuSans-116"/>
      <use x="439.894531" xlink:href="#DejaVuSans-114"/>
      <use x="481.007812" xlink:href="#DejaVuSans-97"/>
      <use x="542.287109" xlink:href="#DejaVuSans-99"/>
      <use x="597.267578" xlink:href="#DejaVuSans-107"/>
      <use x="655.177734" xlink:href="#DejaVuSans-115"/>
     </g>
    </g>
    <g id="line2d_58">
     <path d="M 183.560625 167.639063 
L 219.560625 167.639063 
" style="fill:none;stroke:#d62728;stroke-linecap:square;stroke-width:1.5;"/>
    </g>
    <g id="line2d_59"/>
    <g id="text_17">
     <!-- Incorrect tracks classed as showers -->
     <defs>
      <path d="M 9.8125 72.90625 
L 19.671875 72.90625 
L 19.671875 0 
L 9.8125 0 
z
" id="DejaVuSans-73"/>
      <path d="M 45.40625 46.390625 
L 45.40625 75.984375 
L 54.390625 75.984375 
L 54.390625 0 
L 45.40625 0 
L 45.40625 8.203125 
Q 42.578125 3.328125 38.25 0.953125 
Q 33.9375 -1.421875 27.875 -1.421875 
Q 17.96875 -1.421875 11.734375 6.484375 
Q 5.515625 14.40625 5.515625 27.296875 
Q 5.515625 40.1875 11.734375 48.09375 
Q 17.96875 56 27.875 56 
Q 33.9375 56 38.25 53.625 
Q 42.578125 51.265625 45.40625 46.390625 
z
M 14.796875 27.296875 
Q 14.796875 17.390625 18.875 11.75 
Q 22.953125 6.109375 30.078125 6.109375 
Q 37.203125 6.109375 41.296875 11.75 
Q 45.40625 17.390625 45.40625 27.296875 
Q 45.40625 37.203125 41.296875 42.84375 
Q 37.203125 48.484375 30.078125 48.484375 
Q 22.953125 48.484375 18.875 42.84375 
Q 14.796875 37.203125 14.796875 27.296875 
z
" id="DejaVuSans-100"/>
     </defs>
     <g transform="translate(233.960625 173.939063)scale(0.18 -0.18)">
      <use xlink:href="#DejaVuSans-73"/>
      <use x="29.492188" xlink:href="#DejaVuSans-110"/>
      <use x="92.871094" xlink:href="#DejaVuSans-99"/>
      <use x="147.851562" xlink:href="#DejaVuSans-111"/>
      <use x="209.033203" xlink:href="#DejaVuSans-114"/>
      <use x="250.130859" xlink:href="#DejaVuSans-114"/>
      <use x="291.212891" xlink:href="#DejaVuSans-101"/>
      <use x="352.736328" xlink:href="#DejaVuSans-99"/>
      <use x="407.716797" xlink:href="#DejaVuSans-116"/>
      <use x="446.925781" xlink:href="#DejaVuSans-32"/>
      <use x="478.712891" xlink:href="#DejaVuSans-116"/>
      <use x="517.921875" xlink:href="#DejaVuSans-114"/>
      <use x="559.035156" xlink:href="#DejaVuSans-97"/>
      <use x="620.314453" xlink:href="#DejaVuSans-99"/>
      <use x="675.294922" xlink:href="#DejaVuSans-107"/>
      <use x="733.205078" xlink:href="#DejaVuSans-115"/>
      <use x="785.304688" xlink:href="#DejaVuSans-32"/>
      <use x="817.091797" xlink:href="#DejaVuSans-99"/>
      <use x="872.072266" xlink:href="#DejaVuSans-108"/>
      <use x="899.855469" xlink:href="#DejaVuSans-97"/>
      <use x="961.134766" xlink:href="#DejaVuSans-115"/>
      <use x="1013.234375" xlink:href="#DejaVuSans-115"/>
      <use x="1065.333984" xlink:href="#DejaVuSans-101"/>
      <use x="1126.857422" xlink:href="#DejaVuSans-100"/>
      <use x="1190.333984" xlink:href="#DejaVuSans-32"/>
      <use x="1222.121094" xlink:href="#DejaVuSans-97"/>
      <use x="1283.400391" xlink:href="#DejaVuSans-115"/>
      <use x="1335.5" xlink:href="#DejaVuSans-32"/>
      <use x="1367.287109" xlink:href="#DejaVuSans-115"/>
      <use x="1419.386719" xlink:href="#DejaVuSans-104"/>
      <use x="1482.765625" xlink:href="#DejaVuSans-111"/>
      <use x="1543.947266" xlink:href="#DejaVuSans-119"/>
      <use x="1625.734375" xlink:href="#DejaVuSans-101"/>
      <use x="1687.257812" xlink:href="#DejaVuSans-114"/>
      <use x="1728.371094" xlink:href="#DejaVuSans-115"/>
     </g>
    </g>
    <g id="line2d_60">
     <path d="M 183.560625 194.059688 
L 219.560625 194.059688 
" style="fill:none;stroke:#9467bd;stroke-linecap:square;stroke-width:1.5;"/>
    </g>
    <g id="line2d_61"/>
    <g id="text_18">
     <!-- Correct tracks classed as showers -->
     <g transform="translate(233.960625 200.359688)scale(0.18 -0.18)">
      <use xlink:href="#DejaVuSans-67"/>
      <use x="69.824219" xlink:href="#DejaVuSans-111"/>
      <use x="131.005859" xlink:href="#DejaVuSans-114"/>
      <use x="172.103516" xlink:href="#DejaVuSans-114"/>
      <use x="213.185547" xlink:href="#DejaVuSans-101"/>
      <use x="274.708984" xlink:href="#DejaVuSans-99"/>
      <use x="329.689453" xlink:href="#DejaVuSans-116"/>
      <use x="368.898438" xlink:href="#DejaVuSans-32"/>
      <use x="400.685547" xlink:href="#DejaVuSans-116"/>
      <use x="439.894531" xlink:href="#DejaVuSans-114"/>
      <use x="481.007812" xlink:href="#DejaVuSans-97"/>
      <use x="542.287109" xlink:href="#DejaVuSans-99"/>
      <use x="597.267578" xlink:href="#DejaVuSans-107"/>
      <use x="655.177734" xlink:href="#DejaVuSans-115"/>
      <use x="707.277344" xlink:href="#DejaVuSans-32"/>
      <use x="739.064453" xlink:href="#DejaVuSans-99"/>
      <use x="794.044922" xlink:href="#DejaVuSans-108"/>
      <use x="821.828125" xlink:href="#DejaVuSans-97"/>
      <use x="883.107422" xlink:href="#DejaVuSans-115"/>
      <use x="935.207031" xlink:href="#DejaVuSans-115"/>
      <use x="987.306641" xlink:href="#DejaVuSans-101"/>
      <use x="1048.830078" xlink:href="#DejaVuSans-100"/>
      <use x="1112.306641" xlink:href="#DejaVuSans-32"/>
      <use x="1144.09375" xlink:href="#DejaVuSans-97"/>
      <use x="1205.373047" xlink:href="#DejaVuSans-115"/>
      <use x="1257.472656" xlink:href="#DejaVuSans-32"/>
      <use x="1289.259766" xlink:href="#DejaVuSans-115"/>
      <use x="1341.359375" xlink:href="#DejaVuSans-104"/>
      <use x="1404.738281" xlink:href="#DejaVuSans-111"/>
      <use x="1465.919922" xlink:href="#DejaVuSans-119"/>
      <use x="1547.707031" xlink:href="#DejaVuSans-101"/>
      <use x="1609.230469" xlink:href="#DejaVuSans-114"/>
      <use x="1650.34375" xlink:href="#DejaVuSans-115"/>
     </g>
    </g>
    <g id="line2d_62">
     <path d="M 183.560625 220.480313 
L 219.560625 220.480313 
" style="fill:none;stroke:#8c564b;stroke-linecap:square;stroke-width:1.5;"/>
    </g>
    <g id="line2d_63"/>
    <g id="text_19">
     <!-- Incorrect tracks classed as showers -->
     <g transform="translate(233.960625 226.780313)scale(0.18 -0.18)">
      <use xlink:href="#DejaVuSans-73"/>
      <use x="29.492188" xlink:href="#DejaVuSans-110"/>
      <use x="92.871094" xlink:href="#DejaVuSans-99"/>
      <use x="147.851562" xlink:href="#DejaVuSans-111"/>
      <use x="209.033203" xlink:href="#DejaVuSans-114"/>
      <use x="250.130859" xlink:href="#DejaVuSans-114"/>
      <use x="291.212891" xlink:href="#DejaVuSans-101"/>
      <use x="352.736328" xlink:href="#DejaVuSans-99"/>
      <use x="407.716797" xlink:href="#DejaVuSans-116"/>
      <use x="446.925781" xlink:href="#DejaVuSans-32"/>
      <use x="478.712891" xlink:href="#DejaVuSans-116"/>
      <use x="517.921875" xlink:href="#DejaVuSans-114"/>
      <use x="559.035156" xlink:href="#DejaVuSans-97"/>
      <use x="620.314453" xlink:href="#DejaVuSans-99"/>
      <use x="675.294922" xlink:href="#DejaVuSans-107"/>
      <use x="733.205078" xlink:href="#DejaVuSans-115"/>
      <use x="785.304688" xlink:href="#DejaVuSans-32"/>
      <use x="817.091797" xlink:href="#DejaVuSans-99"/>
      <use x="872.072266" xlink:href="#DejaVuSans-108"/>
      <use x="899.855469" xlink:href="#DejaVuSans-97"/>
      <use x="961.134766" xlink:href="#DejaVuSans-115"/>
      <use x="1013.234375" xlink:href="#DejaVuSans-115"/>
      <use x="1065.333984" xlink:href="#DejaVuSans-101"/>
      <use x="1126.857422" xlink:href="#DejaVuSans-100"/>
      <use x="1190.333984" xlink:href="#DejaVuSans-32"/>
      <use x="1222.121094" xlink:href="#DejaVuSans-97"/>
      <use x="1283.400391" xlink:href="#DejaVuSans-115"/>
      <use x="1335.5" xlink:href="#DejaVuSans-32"/>
      <use x="1367.287109" xlink:href="#DejaVuSans-115"/>
      <use x="1419.386719" xlink:href="#DejaVuSans-104"/>
      <use x="1482.765625" xlink:href="#DejaVuSans-111"/>
      <use x="1543.947266" xlink:href="#DejaVuSans-119"/>
      <use x="1625.734375" xlink:href="#DejaVuSans-101"/>
      <use x="1687.257812" xlink:href="#DejaVuSans-114"/>
      <use x="1728.371094" xlink:href="#DejaVuSans-115"/>
     </g>
    </g>
   </g>
  </g>
 </g>
 <defs>
  <clipPath id="p892250f624">
   <rect height="415.8" width="558" x="90" y="64.8"/>
  </clipPath>
 </defs>
</svg>
