<?xml version="1.0" encoding="utf-8" standalone="no"?>
<!DOCTYPE svg PUBLIC "-//W3C//DTD SVG 1.1//EN"
  "http://www.w3.org/Graphics/SVG/1.1/DTD/svg11.dtd">
<!-- Created with matplotlib (https://matplotlib.org/) -->
<svg height="1080pt" version="1.1" viewBox="0 0 720 1080" width="720pt" xmlns="http://www.w3.org/2000/svg" xmlns:xlink="http://www.w3.org/1999/xlink">
 <defs>
  <style type="text/css">
*{stroke-linecap:butt;stroke-linejoin:round;}
  </style>
 </defs>
 <g id="figure_1">
  <g id="patch_1">
   <path d="M 0 1080 
L 720 1080 
L 720 0 
L 0 0 
z
" style="fill:#ffffff;"/>
  </g>
  <g id="axes_1">
   <g id="patch_2">
    <path d="M 90 507.6 
L 648 507.6 
L 648 129.6 
L 90 129.6 
z
" style="fill:#ffffff;"/>
   </g>
   <g id="matplotlib.axis_1">
    <g id="xtick_1">
     <g id="line2d_1">
      <defs>
       <path d="M 0 0 
L 0 3.5 
" id="m3434b4c001" style="stroke:#000000;stroke-width:0.8;"/>
      </defs>
      <g>
       <use style="stroke:#000000;stroke-width:0.8;" x="90" xlink:href="#m3434b4c001" y="507.6"/>
      </g>
     </g>
    </g>
    <g id="xtick_2">
     <g id="line2d_2">
      <g>
       <use style="stroke:#000000;stroke-width:0.8;" x="201.6" xlink:href="#m3434b4c001" y="507.6"/>
      </g>
     </g>
    </g>
    <g id="xtick_3">
     <g id="line2d_3">
      <g>
       <use style="stroke:#000000;stroke-width:0.8;" x="313.2" xlink:href="#m3434b4c001" y="507.6"/>
      </g>
     </g>
    </g>
    <g id="xtick_4">
     <g id="line2d_4">
      <g>
       <use style="stroke:#000000;stroke-width:0.8;" x="424.8" xlink:href="#m3434b4c001" y="507.6"/>
      </g>
     </g>
    </g>
    <g id="xtick_5">
     <g id="line2d_5">
      <g>
       <use style="stroke:#000000;stroke-width:0.8;" x="536.4" xlink:href="#m3434b4c001" y="507.6"/>
      </g>
     </g>
    </g>
    <g id="xtick_6">
     <g id="line2d_6">
      <g>
       <use style="stroke:#000000;stroke-width:0.8;" x="648" xlink:href="#m3434b4c001" y="507.6"/>
      </g>
     </g>
    </g>
    <g id="text_1">
     <!-- mcpMomentum -->
     <defs>
      <path d="M 52 44.1875 
Q 55.375 50.25 60.0625 53.125 
Q 64.75 56 71.09375 56 
Q 79.640625 56 84.28125 50.015625 
Q 88.921875 44.046875 88.921875 33.015625 
L 88.921875 0 
L 79.890625 0 
L 79.890625 32.71875 
Q 79.890625 40.578125 77.09375 44.375 
Q 74.3125 48.1875 68.609375 48.1875 
Q 61.625 48.1875 57.5625 43.546875 
Q 53.515625 38.921875 53.515625 30.90625 
L 53.515625 0 
L 44.484375 0 
L 44.484375 32.71875 
Q 44.484375 40.625 41.703125 44.40625 
Q 38.921875 48.1875 33.109375 48.1875 
Q 26.21875 48.1875 22.15625 43.53125 
Q 18.109375 38.875 18.109375 30.90625 
L 18.109375 0 
L 9.078125 0 
L 9.078125 54.6875 
L 18.109375 54.6875 
L 18.109375 46.1875 
Q 21.1875 51.21875 25.484375 53.609375 
Q 29.78125 56 35.6875 56 
Q 41.65625 56 45.828125 52.96875 
Q 50 49.953125 52 44.1875 
z
" id="DejaVuSans-109"/>
      <path d="M 48.78125 52.59375 
L 48.78125 44.1875 
Q 44.96875 46.296875 41.140625 47.34375 
Q 37.3125 48.390625 33.40625 48.390625 
Q 24.65625 48.390625 19.8125 42.84375 
Q 14.984375 37.3125 14.984375 27.296875 
Q 14.984375 17.28125 19.8125 11.734375 
Q 24.65625 6.203125 33.40625 6.203125 
Q 37.3125 6.203125 41.140625 7.25 
Q 44.96875 8.296875 48.78125 10.40625 
L 48.78125 2.09375 
Q 45.015625 0.34375 40.984375 -0.53125 
Q 36.96875 -1.421875 32.421875 -1.421875 
Q 20.0625 -1.421875 12.78125 6.34375 
Q 5.515625 14.109375 5.515625 27.296875 
Q 5.515625 40.671875 12.859375 48.328125 
Q 20.21875 56 33.015625 56 
Q 37.15625 56 41.109375 55.140625 
Q 45.0625 54.296875 48.78125 52.59375 
z
" id="DejaVuSans-99"/>
      <path d="M 18.109375 8.203125 
L 18.109375 -20.796875 
L 9.078125 -20.796875 
L 9.078125 54.6875 
L 18.109375 54.6875 
L 18.109375 46.390625 
Q 20.953125 51.265625 25.265625 53.625 
Q 29.59375 56 35.59375 56 
Q 45.5625 56 51.78125 48.09375 
Q 58.015625 40.1875 58.015625 27.296875 
Q 58.015625 14.40625 51.78125 6.484375 
Q 45.5625 -1.421875 35.59375 -1.421875 
Q 29.59375 -1.421875 25.265625 0.953125 
Q 20.953125 3.328125 18.109375 8.203125 
z
M 48.6875 27.296875 
Q 48.6875 37.203125 44.609375 42.84375 
Q 40.53125 48.484375 33.40625 48.484375 
Q 26.265625 48.484375 22.1875 42.84375 
Q 18.109375 37.203125 18.109375 27.296875 
Q 18.109375 17.390625 22.1875 11.75 
Q 26.265625 6.109375 33.40625 6.109375 
Q 40.53125 6.109375 44.609375 11.75 
Q 48.6875 17.390625 48.6875 27.296875 
z
" id="DejaVuSans-112"/>
      <path d="M 9.8125 72.90625 
L 24.515625 72.90625 
L 43.109375 23.296875 
L 61.8125 72.90625 
L 76.515625 72.90625 
L 76.515625 0 
L 66.890625 0 
L 66.890625 64.015625 
L 48.09375 14.015625 
L 38.1875 14.015625 
L 19.390625 64.015625 
L 19.390625 0 
L 9.8125 0 
z
" id="DejaVuSans-77"/>
      <path d="M 30.609375 48.390625 
Q 23.390625 48.390625 19.1875 42.75 
Q 14.984375 37.109375 14.984375 27.296875 
Q 14.984375 17.484375 19.15625 11.84375 
Q 23.34375 6.203125 30.609375 6.203125 
Q 37.796875 6.203125 41.984375 11.859375 
Q 46.1875 17.53125 46.1875 27.296875 
Q 46.1875 37.015625 41.984375 42.703125 
Q 37.796875 48.390625 30.609375 48.390625 
z
M 30.609375 56 
Q 42.328125 56 49.015625 48.375 
Q 55.71875 40.765625 55.71875 27.296875 
Q 55.71875 13.875 49.015625 6.21875 
Q 42.328125 -1.421875 30.609375 -1.421875 
Q 18.84375 -1.421875 12.171875 6.21875 
Q 5.515625 13.875 5.515625 27.296875 
Q 5.515625 40.765625 12.171875 48.375 
Q 18.84375 56 30.609375 56 
z
" id="DejaVuSans-111"/>
      <path d="M 56.203125 29.59375 
L 56.203125 25.203125 
L 14.890625 25.203125 
Q 15.484375 15.921875 20.484375 11.0625 
Q 25.484375 6.203125 34.421875 6.203125 
Q 39.59375 6.203125 44.453125 7.46875 
Q 49.3125 8.734375 54.109375 11.28125 
L 54.109375 2.78125 
Q 49.265625 0.734375 44.1875 -0.34375 
Q 39.109375 -1.421875 33.890625 -1.421875 
Q 20.796875 -1.421875 13.15625 6.1875 
Q 5.515625 13.8125 5.515625 26.8125 
Q 5.515625 40.234375 12.765625 48.109375 
Q 20.015625 56 32.328125 56 
Q 43.359375 56 49.78125 48.890625 
Q 56.203125 41.796875 56.203125 29.59375 
z
M 47.21875 32.234375 
Q 47.125 39.59375 43.09375 43.984375 
Q 39.0625 48.390625 32.421875 48.390625 
Q 24.90625 48.390625 20.390625 44.140625 
Q 15.875 39.890625 15.1875 32.171875 
z
" id="DejaVuSans-101"/>
      <path d="M 54.890625 33.015625 
L 54.890625 0 
L 45.90625 0 
L 45.90625 32.71875 
Q 45.90625 40.484375 42.875 44.328125 
Q 39.84375 48.1875 33.796875 48.1875 
Q 26.515625 48.1875 22.3125 43.546875 
Q 18.109375 38.921875 18.109375 30.90625 
L 18.109375 0 
L 9.078125 0 
L 9.078125 54.6875 
L 18.109375 54.6875 
L 18.109375 46.1875 
Q 21.34375 51.125 25.703125 53.5625 
Q 30.078125 56 35.796875 56 
Q 45.21875 56 50.046875 50.171875 
Q 54.890625 44.34375 54.890625 33.015625 
z
" id="DejaVuSans-110"/>
      <path d="M 18.3125 70.21875 
L 18.3125 54.6875 
L 36.8125 54.6875 
L 36.8125 47.703125 
L 18.3125 47.703125 
L 18.3125 18.015625 
Q 18.3125 11.328125 20.140625 9.421875 
Q 21.96875 7.515625 27.59375 7.515625 
L 36.8125 7.515625 
L 36.8125 0 
L 27.59375 0 
Q 17.1875 0 13.234375 3.875 
Q 9.28125 7.765625 9.28125 18.015625 
L 9.28125 47.703125 
L 2.6875 47.703125 
L 2.6875 54.6875 
L 9.28125 54.6875 
L 9.28125 70.21875 
z
" id="DejaVuSans-116"/>
      <path d="M 8.5 21.578125 
L 8.5 54.6875 
L 17.484375 54.6875 
L 17.484375 21.921875 
Q 17.484375 14.15625 20.5 10.265625 
Q 23.53125 6.390625 29.59375 6.390625 
Q 36.859375 6.390625 41.078125 11.03125 
Q 45.3125 15.671875 45.3125 23.6875 
L 45.3125 54.6875 
L 54.296875 54.6875 
L 54.296875 0 
L 45.3125 0 
L 45.3125 8.40625 
Q 42.046875 3.421875 37.71875 1 
Q 33.40625 -1.421875 27.6875 -1.421875 
Q 18.265625 -1.421875 13.375 4.4375 
Q 8.5 10.296875 8.5 21.578125 
z
M 31.109375 56 
z
" id="DejaVuSans-117"/>
     </defs>
     <g transform="translate(267.180975 531.29515)scale(0.2592 -0.2592)">
      <use xlink:href="#DejaVuSans-109"/>
      <use x="97.412109" xlink:href="#DejaVuSans-99"/>
      <use x="152.392578" xlink:href="#DejaVuSans-112"/>
      <use x="215.869141" xlink:href="#DejaVuSans-77"/>
      <use x="302.148438" xlink:href="#DejaVuSans-111"/>
      <use x="363.330078" xlink:href="#DejaVuSans-109"/>
      <use x="460.742188" xlink:href="#DejaVuSans-101"/>
      <use x="522.265625" xlink:href="#DejaVuSans-110"/>
      <use x="585.644531" xlink:href="#DejaVuSans-116"/>
      <use x="624.853516" xlink:href="#DejaVuSans-117"/>
      <use x="688.232422" xlink:href="#DejaVuSans-109"/>
     </g>
    </g>
   </g>
   <g id="matplotlib.axis_2">
    <g id="ytick_1">
     <g id="line2d_7">
      <defs>
       <path d="M 0 0 
L -3.5 0 
" id="m73ef7efea6" style="stroke:#000000;stroke-width:0.8;"/>
      </defs>
      <g>
       <use style="stroke:#000000;stroke-width:0.8;" x="90" xlink:href="#m73ef7efea6" y="507.6"/>
      </g>
     </g>
     <g id="text_2">
      <!-- 0.0 -->
      <defs>
       <path d="M 31.78125 66.40625 
Q 24.171875 66.40625 20.328125 58.90625 
Q 16.5 51.421875 16.5 36.375 
Q 16.5 21.390625 20.328125 13.890625 
Q 24.171875 6.390625 31.78125 6.390625 
Q 39.453125 6.390625 43.28125 13.890625 
Q 47.125 21.390625 47.125 36.375 
Q 47.125 51.421875 43.28125 58.90625 
Q 39.453125 66.40625 31.78125 66.40625 
z
M 31.78125 74.21875 
Q 44.046875 74.21875 50.515625 64.515625 
Q 56.984375 54.828125 56.984375 36.375 
Q 56.984375 17.96875 50.515625 8.265625 
Q 44.046875 -1.421875 31.78125 -1.421875 
Q 19.53125 -1.421875 13.0625 8.265625 
Q 6.59375 17.96875 6.59375 36.375 
Q 6.59375 54.828125 13.0625 64.515625 
Q 19.53125 74.21875 31.78125 74.21875 
z
" id="DejaVuSans-48"/>
       <path d="M 10.6875 12.40625 
L 21 12.40625 
L 21 0 
L 10.6875 0 
z
" id="DejaVuSans-46"/>
      </defs>
      <g transform="translate(41.7791 517.447575)scale(0.2592 -0.2592)">
       <use xlink:href="#DejaVuSans-48"/>
       <use x="63.623047" xlink:href="#DejaVuSans-46"/>
       <use x="95.410156" xlink:href="#DejaVuSans-48"/>
      </g>
     </g>
    </g>
    <g id="ytick_2">
     <g id="line2d_8">
      <g>
       <use style="stroke:#000000;stroke-width:0.8;" x="90" xlink:href="#m73ef7efea6" y="432.748515"/>
      </g>
     </g>
     <g id="text_3">
      <!-- 0.2 -->
      <defs>
       <path d="M 19.1875 8.296875 
L 53.609375 8.296875 
L 53.609375 0 
L 7.328125 0 
L 7.328125 8.296875 
Q 12.9375 14.109375 22.625 23.890625 
Q 32.328125 33.6875 34.8125 36.53125 
Q 39.546875 41.84375 41.421875 45.53125 
Q 43.3125 49.21875 43.3125 52.78125 
Q 43.3125 58.59375 39.234375 62.25 
Q 35.15625 65.921875 28.609375 65.921875 
Q 23.96875 65.921875 18.8125 64.3125 
Q 13.671875 62.703125 7.8125 59.421875 
L 7.8125 69.390625 
Q 13.765625 71.78125 18.9375 73 
Q 24.125 74.21875 28.421875 74.21875 
Q 39.75 74.21875 46.484375 68.546875 
Q 53.21875 62.890625 53.21875 53.421875 
Q 53.21875 48.921875 51.53125 44.890625 
Q 49.859375 40.875 45.40625 35.40625 
Q 44.1875 33.984375 37.640625 27.21875 
Q 31.109375 20.453125 19.1875 8.296875 
z
" id="DejaVuSans-50"/>
      </defs>
      <g transform="translate(41.7791 442.59609)scale(0.2592 -0.2592)">
       <use xlink:href="#DejaVuSans-48"/>
       <use x="63.623047" xlink:href="#DejaVuSans-46"/>
       <use x="95.410156" xlink:href="#DejaVuSans-50"/>
      </g>
     </g>
    </g>
    <g id="ytick_3">
     <g id="line2d_9">
      <g>
       <use style="stroke:#000000;stroke-width:0.8;" x="90" xlink:href="#m73ef7efea6" y="357.89703"/>
      </g>
     </g>
     <g id="text_4">
      <!-- 0.4 -->
      <defs>
       <path d="M 37.796875 64.3125 
L 12.890625 25.390625 
L 37.796875 25.390625 
z
M 35.203125 72.90625 
L 47.609375 72.90625 
L 47.609375 25.390625 
L 58.015625 25.390625 
L 58.015625 17.1875 
L 47.609375 17.1875 
L 47.609375 0 
L 37.796875 0 
L 37.796875 17.1875 
L 4.890625 17.1875 
L 4.890625 26.703125 
z
" id="DejaVuSans-52"/>
      </defs>
      <g transform="translate(41.7791 367.744605)scale(0.2592 -0.2592)">
       <use xlink:href="#DejaVuSans-48"/>
       <use x="63.623047" xlink:href="#DejaVuSans-46"/>
       <use x="95.410156" xlink:href="#DejaVuSans-52"/>
      </g>
     </g>
    </g>
    <g id="ytick_4">
     <g id="line2d_10">
      <g>
       <use style="stroke:#000000;stroke-width:0.8;" x="90" xlink:href="#m73ef7efea6" y="283.045545"/>
      </g>
     </g>
     <g id="text_5">
      <!-- 0.6 -->
      <defs>
       <path d="M 33.015625 40.375 
Q 26.375 40.375 22.484375 35.828125 
Q 18.609375 31.296875 18.609375 23.390625 
Q 18.609375 15.53125 22.484375 10.953125 
Q 26.375 6.390625 33.015625 6.390625 
Q 39.65625 6.390625 43.53125 10.953125 
Q 47.40625 15.53125 47.40625 23.390625 
Q 47.40625 31.296875 43.53125 35.828125 
Q 39.65625 40.375 33.015625 40.375 
z
M 52.59375 71.296875 
L 52.59375 62.3125 
Q 48.875 64.0625 45.09375 64.984375 
Q 41.3125 65.921875 37.59375 65.921875 
Q 27.828125 65.921875 22.671875 59.328125 
Q 17.53125 52.734375 16.796875 39.40625 
Q 19.671875 43.65625 24.015625 45.921875 
Q 28.375 48.1875 33.59375 48.1875 
Q 44.578125 48.1875 50.953125 41.515625 
Q 57.328125 34.859375 57.328125 23.390625 
Q 57.328125 12.15625 50.6875 5.359375 
Q 44.046875 -1.421875 33.015625 -1.421875 
Q 20.359375 -1.421875 13.671875 8.265625 
Q 6.984375 17.96875 6.984375 36.375 
Q 6.984375 53.65625 15.1875 63.9375 
Q 23.390625 74.21875 37.203125 74.21875 
Q 40.921875 74.21875 44.703125 73.484375 
Q 48.484375 72.75 52.59375 71.296875 
z
" id="DejaVuSans-54"/>
      </defs>
      <g transform="translate(41.7791 292.89312)scale(0.2592 -0.2592)">
       <use xlink:href="#DejaVuSans-48"/>
       <use x="63.623047" xlink:href="#DejaVuSans-46"/>
       <use x="95.410156" xlink:href="#DejaVuSans-54"/>
      </g>
     </g>
    </g>
    <g id="ytick_5">
     <g id="line2d_11">
      <g>
       <use style="stroke:#000000;stroke-width:0.8;" x="90" xlink:href="#m73ef7efea6" y="208.194059"/>
      </g>
     </g>
     <g id="text_6">
      <!-- 0.8 -->
      <defs>
       <path d="M 31.78125 34.625 
Q 24.75 34.625 20.71875 30.859375 
Q 16.703125 27.09375 16.703125 20.515625 
Q 16.703125 13.921875 20.71875 10.15625 
Q 24.75 6.390625 31.78125 6.390625 
Q 38.8125 6.390625 42.859375 10.171875 
Q 46.921875 13.96875 46.921875 20.515625 
Q 46.921875 27.09375 42.890625 30.859375 
Q 38.875 34.625 31.78125 34.625 
z
M 21.921875 38.8125 
Q 15.578125 40.375 12.03125 44.71875 
Q 8.5 49.078125 8.5 55.328125 
Q 8.5 64.0625 14.71875 69.140625 
Q 20.953125 74.21875 31.78125 74.21875 
Q 42.671875 74.21875 48.875 69.140625 
Q 55.078125 64.0625 55.078125 55.328125 
Q 55.078125 49.078125 51.53125 44.71875 
Q 48 40.375 41.703125 38.8125 
Q 48.828125 37.15625 52.796875 32.3125 
Q 56.78125 27.484375 56.78125 20.515625 
Q 56.78125 9.90625 50.3125 4.234375 
Q 43.84375 -1.421875 31.78125 -1.421875 
Q 19.734375 -1.421875 13.25 4.234375 
Q 6.78125 9.90625 6.78125 20.515625 
Q 6.78125 27.484375 10.78125 32.3125 
Q 14.796875 37.15625 21.921875 38.8125 
z
M 18.3125 54.390625 
Q 18.3125 48.734375 21.84375 45.5625 
Q 25.390625 42.390625 31.78125 42.390625 
Q 38.140625 42.390625 41.71875 45.5625 
Q 45.3125 48.734375 45.3125 54.390625 
Q 45.3125 60.0625 41.71875 63.234375 
Q 38.140625 66.40625 31.78125 66.40625 
Q 25.390625 66.40625 21.84375 63.234375 
Q 18.3125 60.0625 18.3125 54.390625 
z
" id="DejaVuSans-56"/>
      </defs>
      <g transform="translate(41.7791 218.041634)scale(0.2592 -0.2592)">
       <use xlink:href="#DejaVuSans-48"/>
       <use x="63.623047" xlink:href="#DejaVuSans-46"/>
       <use x="95.410156" xlink:href="#DejaVuSans-56"/>
      </g>
     </g>
    </g>
    <g id="ytick_6">
     <g id="line2d_12">
      <g>
       <use style="stroke:#000000;stroke-width:0.8;" x="90" xlink:href="#m73ef7efea6" y="133.342574"/>
      </g>
     </g>
     <g id="text_7">
      <!-- 1.0 -->
      <defs>
       <path d="M 12.40625 8.296875 
L 28.515625 8.296875 
L 28.515625 63.921875 
L 10.984375 60.40625 
L 10.984375 69.390625 
L 28.421875 72.90625 
L 38.28125 72.90625 
L 38.28125 8.296875 
L 54.390625 8.296875 
L 54.390625 0 
L 12.40625 0 
z
" id="DejaVuSans-49"/>
      </defs>
      <g transform="translate(41.7791 143.190149)scale(0.2592 -0.2592)">
       <use xlink:href="#DejaVuSans-49"/>
       <use x="63.623047" xlink:href="#DejaVuSans-46"/>
       <use x="95.410156" xlink:href="#DejaVuSans-48"/>
      </g>
     </g>
    </g>
    <g id="text_8">
     <!-- Fraction -->
     <defs>
      <path d="M 9.8125 72.90625 
L 51.703125 72.90625 
L 51.703125 64.59375 
L 19.671875 64.59375 
L 19.671875 43.109375 
L 48.578125 43.109375 
L 48.578125 34.8125 
L 19.671875 34.8125 
L 19.671875 0 
L 9.8125 0 
z
" id="DejaVuSans-70"/>
      <path d="M 41.109375 46.296875 
Q 39.59375 47.171875 37.8125 47.578125 
Q 36.03125 48 33.890625 48 
Q 26.265625 48 22.1875 43.046875 
Q 18.109375 38.09375 18.109375 28.8125 
L 18.109375 0 
L 9.078125 0 
L 9.078125 54.6875 
L 18.109375 54.6875 
L 18.109375 46.1875 
Q 20.953125 51.171875 25.484375 53.578125 
Q 30.03125 56 36.53125 56 
Q 37.453125 56 38.578125 55.875 
Q 39.703125 55.765625 41.0625 55.515625 
z
" id="DejaVuSans-114"/>
      <path d="M 34.28125 27.484375 
Q 23.390625 27.484375 19.1875 25 
Q 14.984375 22.515625 14.984375 16.5 
Q 14.984375 11.71875 18.140625 8.90625 
Q 21.296875 6.109375 26.703125 6.109375 
Q 34.1875 6.109375 38.703125 11.40625 
Q 43.21875 16.703125 43.21875 25.484375 
L 43.21875 27.484375 
z
M 52.203125 31.203125 
L 52.203125 0 
L 43.21875 0 
L 43.21875 8.296875 
Q 40.140625 3.328125 35.546875 0.953125 
Q 30.953125 -1.421875 24.3125 -1.421875 
Q 15.921875 -1.421875 10.953125 3.296875 
Q 6 8.015625 6 15.921875 
Q 6 25.140625 12.171875 29.828125 
Q 18.359375 34.515625 30.609375 34.515625 
L 43.21875 34.515625 
L 43.21875 35.40625 
Q 43.21875 41.609375 39.140625 45 
Q 35.0625 48.390625 27.6875 48.390625 
Q 23 48.390625 18.546875 47.265625 
Q 14.109375 46.140625 10.015625 43.890625 
L 10.015625 52.203125 
Q 14.9375 54.109375 19.578125 55.046875 
Q 24.21875 56 28.609375 56 
Q 40.484375 56 46.34375 49.84375 
Q 52.203125 43.703125 52.203125 31.203125 
z
" id="DejaVuSans-97"/>
      <path d="M 9.421875 54.6875 
L 18.40625 54.6875 
L 18.40625 0 
L 9.421875 0 
z
M 9.421875 75.984375 
L 18.40625 75.984375 
L 18.40625 64.59375 
L 9.421875 64.59375 
z
" id="DejaVuSans-105"/>
     </defs>
     <g transform="translate(32.38855 371.260125)rotate(-90)scale(0.2592 -0.2592)">
      <use xlink:href="#DejaVuSans-70"/>
      <use x="57.410156" xlink:href="#DejaVuSans-114"/>
      <use x="98.523438" xlink:href="#DejaVuSans-97"/>
      <use x="159.802734" xlink:href="#DejaVuSans-99"/>
      <use x="214.783203" xlink:href="#DejaVuSans-116"/>
      <use x="253.992188" xlink:href="#DejaVuSans-105"/>
      <use x="281.775391" xlink:href="#DejaVuSans-111"/>
      <use x="342.957031" xlink:href="#DejaVuSans-110"/>
     </g>
    </g>
   </g>
   <g id="LineCollection_1">
    <path clip-path="url(#p70edbd92a0)" d="M 107.658228 133.342574 
L 107.658228 133.342574 
" style="fill:none;stroke:#008000;stroke-width:1.5;"/>
    <path clip-path="url(#p70edbd92a0)" d="M 114.721519 133.342574 
L 114.721519 133.342574 
" style="fill:none;stroke:#008000;stroke-width:1.5;"/>
    <path clip-path="url(#p70edbd92a0)" d="M 121.78481 133.342574 
L 121.78481 133.342574 
" style="fill:none;stroke:#008000;stroke-width:1.5;"/>
    <path clip-path="url(#p70edbd92a0)" d="M 128.848101 133.342574 
L 128.848101 133.342574 
" style="fill:none;stroke:#008000;stroke-width:1.5;"/>
    <path clip-path="url(#p70edbd92a0)" d="M 135.911392 133.342574 
L 135.911392 133.342574 
" style="fill:none;stroke:#008000;stroke-width:1.5;"/>
    <path clip-path="url(#p70edbd92a0)" d="M 142.974684 275.143263 
L 142.974684 141.244856 
" style="fill:none;stroke:#008000;stroke-width:1.5;"/>
    <path clip-path="url(#p70edbd92a0)" d="M 150.037975 133.342574 
L 150.037975 133.342574 
" style="fill:none;stroke:#008000;stroke-width:1.5;"/>
    <path clip-path="url(#p70edbd92a0)" d="M 157.101266 133.342574 
L 157.101266 133.342574 
" style="fill:none;stroke:#008000;stroke-width:1.5;"/>
    <path clip-path="url(#p70edbd92a0)" d="M 171.227848 133.342574 
L 171.227848 133.342574 
" style="fill:none;stroke:#008000;stroke-width:1.5;"/>
    <path clip-path="url(#p70edbd92a0)" d="M 178.291139 133.342574 
L 178.291139 133.342574 
" style="fill:none;stroke:#008000;stroke-width:1.5;"/>
    <path clip-path="url(#p70edbd92a0)" d="M 185.35443 133.342574 
L 185.35443 133.342574 
" style="fill:none;stroke:#008000;stroke-width:1.5;"/>
    <path clip-path="url(#p70edbd92a0)" d="M 192.417722 133.342574 
L 192.417722 133.342574 
" style="fill:none;stroke:#008000;stroke-width:1.5;"/>
    <path clip-path="url(#p70edbd92a0)" d="M 199.481013 133.342574 
L 199.481013 133.342574 
" style="fill:none;stroke:#008000;stroke-width:1.5;"/>
    <path clip-path="url(#p70edbd92a0)" d="M 227.734177 133.342574 
L 227.734177 133.342574 
" style="fill:none;stroke:#008000;stroke-width:1.5;"/>
    <path clip-path="url(#p70edbd92a0)" d="M 241.860759 133.342574 
L 241.860759 133.342574 
" style="fill:none;stroke:#008000;stroke-width:1.5;"/>
    <path clip-path="url(#p70edbd92a0)" d="M 248.924051 133.342574 
L 248.924051 133.342574 
" style="fill:none;stroke:#008000;stroke-width:1.5;"/>
    <path clip-path="url(#p70edbd92a0)" d="M 255.987342 133.342574 
L 255.987342 133.342574 
" style="fill:none;stroke:#008000;stroke-width:1.5;"/>
    <path clip-path="url(#p70edbd92a0)" d="M 354.873418 133.342574 
L 354.873418 133.342574 
" style="fill:none;stroke:#008000;stroke-width:1.5;"/>
   </g>
   <g id="LineCollection_2">
    <path clip-path="url(#p70edbd92a0)" d="M 171.227848 133.342574 
L 171.227848 133.342574 
" style="fill:none;stroke:#ff0000;stroke-width:1.5;"/>
    <path clip-path="url(#p70edbd92a0)" d="M 178.291139 133.342574 
L 178.291139 133.342574 
" style="fill:none;stroke:#ff0000;stroke-width:1.5;"/>
    <path clip-path="url(#p70edbd92a0)" d="M 185.35443 133.342574 
L 185.35443 133.342574 
" style="fill:none;stroke:#ff0000;stroke-width:1.5;"/>
    <path clip-path="url(#p70edbd92a0)" d="M 227.734177 133.342574 
L 227.734177 133.342574 
" style="fill:none;stroke:#ff0000;stroke-width:1.5;"/>
    <path clip-path="url(#p70edbd92a0)" d="M 241.860759 133.342574 
L 241.860759 133.342574 
" style="fill:none;stroke:#ff0000;stroke-width:1.5;"/>
    <path clip-path="url(#p70edbd92a0)" d="M 255.987342 133.342574 
L 255.987342 133.342574 
" style="fill:none;stroke:#ff0000;stroke-width:1.5;"/>
    <path clip-path="url(#p70edbd92a0)" d="M 354.873418 449.571002 
L 354.873418 191.371572 
" style="fill:none;stroke:#ff0000;stroke-width:1.5;"/>
   </g>
   <g id="LineCollection_3">
    <path clip-path="url(#p70edbd92a0)" d="M 171.227848 133.342574 
L 171.227848 133.342574 
" style="fill:none;stroke:#0000ff;stroke-width:1.5;"/>
    <path clip-path="url(#p70edbd92a0)" d="M 178.291139 133.342574 
L 178.291139 133.342574 
" style="fill:none;stroke:#0000ff;stroke-width:1.5;"/>
    <path clip-path="url(#p70edbd92a0)" d="M 185.35443 133.342574 
L 185.35443 133.342574 
" style="fill:none;stroke:#0000ff;stroke-width:1.5;"/>
    <path clip-path="url(#p70edbd92a0)" d="M 227.734177 133.342574 
L 227.734177 133.342574 
" style="fill:none;stroke:#0000ff;stroke-width:1.5;"/>
    <path clip-path="url(#p70edbd92a0)" d="M 241.860759 133.342574 
L 241.860759 133.342574 
" style="fill:none;stroke:#0000ff;stroke-width:1.5;"/>
    <path clip-path="url(#p70edbd92a0)" d="M 255.987342 133.342574 
L 255.987342 133.342574 
" style="fill:none;stroke:#0000ff;stroke-width:1.5;"/>
    <path clip-path="url(#p70edbd92a0)" d="M 354.873418 449.571002 
L 354.873418 191.371572 
" style="fill:none;stroke:#0000ff;stroke-width:1.5;"/>
   </g>
   <g id="line2d_13">
    <path clip-path="url(#p70edbd92a0)" d="M 104.126582 133.342574 
L 139.443038 133.342574 
L 139.443038 208.194059 
L 146.506329 208.194059 
L 146.506329 133.342574 
L 160.632911 133.342574 
M 167.696203 133.342574 
L 203.012658 133.342574 
M 224.202532 133.342574 
L 231.265823 133.342574 
M 238.329114 133.342574 
L 259.518987 133.342574 
M 351.341772 133.342574 
L 358.405063 133.342574 
L 358.405063 133.342574 
" style="fill:none;stroke:#008000;stroke-linecap:square;stroke-width:1.5;"/>
   </g>
   <g id="line2d_14">
    <defs>
     <path d="M 2 0 
L -2 -0 
" id="mbf935d8796" style="stroke:#008000;"/>
    </defs>
    <g clip-path="url(#p70edbd92a0)">
     <use style="fill:#008000;stroke:#008000;" x="107.658228" xlink:href="#mbf935d8796" y="133.342574"/>
     <use style="fill:#008000;stroke:#008000;" x="114.721519" xlink:href="#mbf935d8796" y="133.342574"/>
     <use style="fill:#008000;stroke:#008000;" x="121.78481" xlink:href="#mbf935d8796" y="133.342574"/>
     <use style="fill:#008000;stroke:#008000;" x="128.848101" xlink:href="#mbf935d8796" y="133.342574"/>
     <use style="fill:#008000;stroke:#008000;" x="135.911392" xlink:href="#mbf935d8796" y="133.342574"/>
     <use style="fill:#008000;stroke:#008000;" x="142.974684" xlink:href="#mbf935d8796" y="275.143263"/>
     <use style="fill:#008000;stroke:#008000;" x="150.037975" xlink:href="#mbf935d8796" y="133.342574"/>
     <use style="fill:#008000;stroke:#008000;" x="157.101266" xlink:href="#mbf935d8796" y="133.342574"/>
     <use style="fill:#008000;stroke:#008000;" x="171.227848" xlink:href="#mbf935d8796" y="133.342574"/>
     <use style="fill:#008000;stroke:#008000;" x="178.291139" xlink:href="#mbf935d8796" y="133.342574"/>
     <use style="fill:#008000;stroke:#008000;" x="185.35443" xlink:href="#mbf935d8796" y="133.342574"/>
     <use style="fill:#008000;stroke:#008000;" x="192.417722" xlink:href="#mbf935d8796" y="133.342574"/>
     <use style="fill:#008000;stroke:#008000;" x="199.481013" xlink:href="#mbf935d8796" y="133.342574"/>
     <use style="fill:#008000;stroke:#008000;" x="227.734177" xlink:href="#mbf935d8796" y="133.342574"/>
     <use style="fill:#008000;stroke:#008000;" x="241.860759" xlink:href="#mbf935d8796" y="133.342574"/>
     <use style="fill:#008000;stroke:#008000;" x="248.924051" xlink:href="#mbf935d8796" y="133.342574"/>
     <use style="fill:#008000;stroke:#008000;" x="255.987342" xlink:href="#mbf935d8796" y="133.342574"/>
     <use style="fill:#008000;stroke:#008000;" x="354.873418" xlink:href="#mbf935d8796" y="133.342574"/>
    </g>
   </g>
   <g id="line2d_15">
    <g clip-path="url(#p70edbd92a0)">
     <use style="fill:#008000;stroke:#008000;" x="107.658228" xlink:href="#mbf935d8796" y="133.342574"/>
     <use style="fill:#008000;stroke:#008000;" x="114.721519" xlink:href="#mbf935d8796" y="133.342574"/>
     <use style="fill:#008000;stroke:#008000;" x="121.78481" xlink:href="#mbf935d8796" y="133.342574"/>
     <use style="fill:#008000;stroke:#008000;" x="128.848101" xlink:href="#mbf935d8796" y="133.342574"/>
     <use style="fill:#008000;stroke:#008000;" x="135.911392" xlink:href="#mbf935d8796" y="133.342574"/>
     <use style="fill:#008000;stroke:#008000;" x="142.974684" xlink:href="#mbf935d8796" y="141.244856"/>
     <use style="fill:#008000;stroke:#008000;" x="150.037975" xlink:href="#mbf935d8796" y="133.342574"/>
     <use style="fill:#008000;stroke:#008000;" x="157.101266" xlink:href="#mbf935d8796" y="133.342574"/>
     <use style="fill:#008000;stroke:#008000;" x="171.227848" xlink:href="#mbf935d8796" y="133.342574"/>
     <use style="fill:#008000;stroke:#008000;" x="178.291139" xlink:href="#mbf935d8796" y="133.342574"/>
     <use style="fill:#008000;stroke:#008000;" x="185.35443" xlink:href="#mbf935d8796" y="133.342574"/>
     <use style="fill:#008000;stroke:#008000;" x="192.417722" xlink:href="#mbf935d8796" y="133.342574"/>
     <use style="fill:#008000;stroke:#008000;" x="199.481013" xlink:href="#mbf935d8796" y="133.342574"/>
     <use style="fill:#008000;stroke:#008000;" x="227.734177" xlink:href="#mbf935d8796" y="133.342574"/>
     <use style="fill:#008000;stroke:#008000;" x="241.860759" xlink:href="#mbf935d8796" y="133.342574"/>
     <use style="fill:#008000;stroke:#008000;" x="248.924051" xlink:href="#mbf935d8796" y="133.342574"/>
     <use style="fill:#008000;stroke:#008000;" x="255.987342" xlink:href="#mbf935d8796" y="133.342574"/>
     <use style="fill:#008000;stroke:#008000;" x="354.873418" xlink:href="#mbf935d8796" y="133.342574"/>
    </g>
   </g>
   <g id="line2d_16">
    <path clip-path="url(#p70edbd92a0)" d="M 104.126582 133.342574 
L 160.632911 133.342574 
M 167.696203 133.342574 
L 203.012658 133.342574 
M 224.202532 133.342574 
L 231.265823 133.342574 
M 238.329114 133.342574 
L 259.518987 133.342574 
M 301.898734 507.6 
L 308.962025 507.6 
M 316.025316 507.6 
L 323.088608 507.6 
M 330.151899 507.6 
L 337.21519 507.6 
M 344.278481 507.6 
L 351.341772 507.6 
L 351.341772 320.471287 
L 358.405063 320.471287 
M 407.848101 507.6 
L 414.911392 507.6 
L 414.911392 507.6 
" style="fill:none;stroke:#ff0000;stroke-linecap:square;stroke-width:1.5;"/>
   </g>
   <g id="line2d_17">
    <defs>
     <path d="M 2 0 
L -2 -0 
" id="m8c65d6431e" style="stroke:#ff0000;"/>
    </defs>
    <g clip-path="url(#p70edbd92a0)">
     <use style="fill:#ff0000;stroke:#ff0000;" x="171.227848" xlink:href="#m8c65d6431e" y="133.342574"/>
     <use style="fill:#ff0000;stroke:#ff0000;" x="178.291139" xlink:href="#m8c65d6431e" y="133.342574"/>
     <use style="fill:#ff0000;stroke:#ff0000;" x="185.35443" xlink:href="#m8c65d6431e" y="133.342574"/>
     <use style="fill:#ff0000;stroke:#ff0000;" x="227.734177" xlink:href="#m8c65d6431e" y="133.342574"/>
     <use style="fill:#ff0000;stroke:#ff0000;" x="241.860759" xlink:href="#m8c65d6431e" y="133.342574"/>
     <use style="fill:#ff0000;stroke:#ff0000;" x="255.987342" xlink:href="#m8c65d6431e" y="133.342574"/>
     <use style="fill:#ff0000;stroke:#ff0000;" x="354.873418" xlink:href="#m8c65d6431e" y="449.571002"/>
    </g>
   </g>
   <g id="line2d_18">
    <g clip-path="url(#p70edbd92a0)">
     <use style="fill:#ff0000;stroke:#ff0000;" x="171.227848" xlink:href="#m8c65d6431e" y="133.342574"/>
     <use style="fill:#ff0000;stroke:#ff0000;" x="178.291139" xlink:href="#m8c65d6431e" y="133.342574"/>
     <use style="fill:#ff0000;stroke:#ff0000;" x="185.35443" xlink:href="#m8c65d6431e" y="133.342574"/>
     <use style="fill:#ff0000;stroke:#ff0000;" x="227.734177" xlink:href="#m8c65d6431e" y="133.342574"/>
     <use style="fill:#ff0000;stroke:#ff0000;" x="241.860759" xlink:href="#m8c65d6431e" y="133.342574"/>
     <use style="fill:#ff0000;stroke:#ff0000;" x="255.987342" xlink:href="#m8c65d6431e" y="133.342574"/>
     <use style="fill:#ff0000;stroke:#ff0000;" x="354.873418" xlink:href="#m8c65d6431e" y="191.371572"/>
    </g>
   </g>
   <g id="line2d_19">
    <path clip-path="url(#p70edbd92a0)" d="M 104.126582 133.342574 
L 139.443038 133.342574 
L 139.443038 208.194059 
L 146.506329 208.194059 
L 146.506329 133.342574 
L 160.632911 133.342574 
M 167.696203 133.342574 
L 203.012658 133.342574 
M 224.202532 133.342574 
L 231.265823 133.342574 
M 238.329114 133.342574 
L 259.518987 133.342574 
M 351.341772 320.471287 
L 358.405063 320.471287 
L 358.405063 320.471287 
" style="fill:none;stroke:#0000ff;stroke-linecap:square;stroke-width:1.5;"/>
   </g>
   <g id="line2d_20">
    <defs>
     <path d="M 2 0 
L -2 -0 
" id="m7d93f29f2c" style="stroke:#0000ff;"/>
    </defs>
    <g clip-path="url(#p70edbd92a0)">
     <use style="fill:#0000ff;stroke:#0000ff;" x="171.227848" xlink:href="#m7d93f29f2c" y="133.342574"/>
     <use style="fill:#0000ff;stroke:#0000ff;" x="178.291139" xlink:href="#m7d93f29f2c" y="133.342574"/>
     <use style="fill:#0000ff;stroke:#0000ff;" x="185.35443" xlink:href="#m7d93f29f2c" y="133.342574"/>
     <use style="fill:#0000ff;stroke:#0000ff;" x="227.734177" xlink:href="#m7d93f29f2c" y="133.342574"/>
     <use style="fill:#0000ff;stroke:#0000ff;" x="241.860759" xlink:href="#m7d93f29f2c" y="133.342574"/>
     <use style="fill:#0000ff;stroke:#0000ff;" x="255.987342" xlink:href="#m7d93f29f2c" y="133.342574"/>
     <use style="fill:#0000ff;stroke:#0000ff;" x="354.873418" xlink:href="#m7d93f29f2c" y="449.571002"/>
    </g>
   </g>
   <g id="line2d_21">
    <g clip-path="url(#p70edbd92a0)">
     <use style="fill:#0000ff;stroke:#0000ff;" x="171.227848" xlink:href="#m7d93f29f2c" y="133.342574"/>
     <use style="fill:#0000ff;stroke:#0000ff;" x="178.291139" xlink:href="#m7d93f29f2c" y="133.342574"/>
     <use style="fill:#0000ff;stroke:#0000ff;" x="185.35443" xlink:href="#m7d93f29f2c" y="133.342574"/>
     <use style="fill:#0000ff;stroke:#0000ff;" x="227.734177" xlink:href="#m7d93f29f2c" y="133.342574"/>
     <use style="fill:#0000ff;stroke:#0000ff;" x="241.860759" xlink:href="#m7d93f29f2c" y="133.342574"/>
     <use style="fill:#0000ff;stroke:#0000ff;" x="255.987342" xlink:href="#m7d93f29f2c" y="133.342574"/>
     <use style="fill:#0000ff;stroke:#0000ff;" x="354.873418" xlink:href="#m7d93f29f2c" y="191.371572"/>
    </g>
   </g>
   <g id="patch_3">
    <path d="M 90 507.6 
L 90 129.6 
" style="fill:none;stroke:#000000;stroke-linecap:square;stroke-linejoin:miter;stroke-width:0.8;"/>
   </g>
   <g id="patch_4">
    <path d="M 648 507.6 
L 648 129.6 
" style="fill:none;stroke:#000000;stroke-linecap:square;stroke-linejoin:miter;stroke-width:0.8;"/>
   </g>
   <g id="patch_5">
    <path d="M 90 507.6 
L 648 507.6 
" style="fill:none;stroke:#000000;stroke-linecap:square;stroke-linejoin:miter;stroke-width:0.8;"/>
   </g>
   <g id="patch_6">
    <path d="M 90 129.6 
L 648 129.6 
" style="fill:none;stroke:#000000;stroke-linecap:square;stroke-linejoin:miter;stroke-width:0.8;"/>
   </g>
   <g id="text_9">
    <!-- Purity/Efficiency vs mcpMomentum -->
    <defs>
     <path d="M 19.671875 64.796875 
L 19.671875 37.40625 
L 32.078125 37.40625 
Q 38.96875 37.40625 42.71875 40.96875 
Q 46.484375 44.53125 46.484375 51.125 
Q 46.484375 57.671875 42.71875 61.234375 
Q 38.96875 64.796875 32.078125 64.796875 
z
M 9.8125 72.90625 
L 32.078125 72.90625 
Q 44.34375 72.90625 50.609375 67.359375 
Q 56.890625 61.8125 56.890625 51.125 
Q 56.890625 40.328125 50.609375 34.8125 
Q 44.34375 29.296875 32.078125 29.296875 
L 19.671875 29.296875 
L 19.671875 0 
L 9.8125 0 
z
" id="DejaVuSans-80"/>
     <path d="M 32.171875 -5.078125 
Q 28.375 -14.84375 24.75 -17.8125 
Q 21.140625 -20.796875 15.09375 -20.796875 
L 7.90625 -20.796875 
L 7.90625 -13.28125 
L 13.1875 -13.28125 
Q 16.890625 -13.28125 18.9375 -11.515625 
Q 21 -9.765625 23.484375 -3.21875 
L 25.09375 0.875 
L 2.984375 54.6875 
L 12.5 54.6875 
L 29.59375 11.921875 
L 46.6875 54.6875 
L 56.203125 54.6875 
z
" id="DejaVuSans-121"/>
     <path d="M 25.390625 72.90625 
L 33.6875 72.90625 
L 8.296875 -9.28125 
L 0 -9.28125 
z
" id="DejaVuSans-47"/>
     <path d="M 9.8125 72.90625 
L 55.90625 72.90625 
L 55.90625 64.59375 
L 19.671875 64.59375 
L 19.671875 43.015625 
L 54.390625 43.015625 
L 54.390625 34.71875 
L 19.671875 34.71875 
L 19.671875 8.296875 
L 56.78125 8.296875 
L 56.78125 0 
L 9.8125 0 
z
" id="DejaVuSans-69"/>
     <path d="M 37.109375 75.984375 
L 37.109375 68.5 
L 28.515625 68.5 
Q 23.6875 68.5 21.796875 66.546875 
Q 19.921875 64.59375 19.921875 59.515625 
L 19.921875 54.6875 
L 34.71875 54.6875 
L 34.71875 47.703125 
L 19.921875 47.703125 
L 19.921875 0 
L 10.890625 0 
L 10.890625 47.703125 
L 2.296875 47.703125 
L 2.296875 54.6875 
L 10.890625 54.6875 
L 10.890625 58.5 
Q 10.890625 67.625 15.140625 71.796875 
Q 19.390625 75.984375 28.609375 75.984375 
z
" id="DejaVuSans-102"/>
     <path id="DejaVuSans-32"/>
     <path d="M 2.984375 54.6875 
L 12.5 54.6875 
L 29.59375 8.796875 
L 46.6875 54.6875 
L 56.203125 54.6875 
L 35.6875 0 
L 23.484375 0 
z
" id="DejaVuSans-118"/>
     <path d="M 44.28125 53.078125 
L 44.28125 44.578125 
Q 40.484375 46.53125 36.375 47.5 
Q 32.28125 48.484375 27.875 48.484375 
Q 21.1875 48.484375 17.84375 46.4375 
Q 14.5 44.390625 14.5 40.28125 
Q 14.5 37.15625 16.890625 35.375 
Q 19.28125 33.59375 26.515625 31.984375 
L 29.59375 31.296875 
Q 39.15625 29.25 43.1875 25.515625 
Q 47.21875 21.78125 47.21875 15.09375 
Q 47.21875 7.46875 41.1875 3.015625 
Q 35.15625 -1.421875 24.609375 -1.421875 
Q 20.21875 -1.421875 15.453125 -0.5625 
Q 10.6875 0.296875 5.421875 2 
L 5.421875 11.28125 
Q 10.40625 8.6875 15.234375 7.390625 
Q 20.0625 6.109375 24.8125 6.109375 
Q 31.15625 6.109375 34.5625 8.28125 
Q 37.984375 10.453125 37.984375 14.40625 
Q 37.984375 18.0625 35.515625 20.015625 
Q 33.0625 21.96875 24.703125 23.78125 
L 21.578125 24.515625 
Q 13.234375 26.265625 9.515625 29.90625 
Q 5.8125 33.546875 5.8125 39.890625 
Q 5.8125 47.609375 11.28125 51.796875 
Q 16.75 56 26.8125 56 
Q 31.78125 56 36.171875 55.265625 
Q 40.578125 54.546875 44.28125 53.078125 
z
" id="DejaVuSans-115"/>
    </defs>
    <g transform="translate(139.824675 94.57527)scale(0.2592 -0.2592)">
     <use xlink:href="#DejaVuSans-80"/>
     <use x="60.287109" xlink:href="#DejaVuSans-117"/>
     <use x="123.666016" xlink:href="#DejaVuSans-114"/>
     <use x="164.779297" xlink:href="#DejaVuSans-105"/>
     <use x="192.5625" xlink:href="#DejaVuSans-116"/>
     <use x="231.771484" xlink:href="#DejaVuSans-121"/>
     <use x="290.951172" xlink:href="#DejaVuSans-47"/>
     <use x="324.642578" xlink:href="#DejaVuSans-69"/>
     <use x="387.826172" xlink:href="#DejaVuSans-102"/>
     <use x="423.03125" xlink:href="#DejaVuSans-102"/>
     <use x="458.236328" xlink:href="#DejaVuSans-105"/>
     <use x="486.019531" xlink:href="#DejaVuSans-99"/>
     <use x="541" xlink:href="#DejaVuSans-105"/>
     <use x="568.783203" xlink:href="#DejaVuSans-101"/>
     <use x="630.306641" xlink:href="#DejaVuSans-110"/>
     <use x="693.685547" xlink:href="#DejaVuSans-99"/>
     <use x="748.666016" xlink:href="#DejaVuSans-121"/>
     <use x="807.845703" xlink:href="#DejaVuSans-32"/>
     <use x="839.632812" xlink:href="#DejaVuSans-118"/>
     <use x="898.8125" xlink:href="#DejaVuSans-115"/>
     <use x="950.912109" xlink:href="#DejaVuSans-32"/>
     <use x="982.699219" xlink:href="#DejaVuSans-109"/>
     <use x="1080.111328" xlink:href="#DejaVuSans-99"/>
     <use x="1135.091797" xlink:href="#DejaVuSans-112"/>
     <use x="1198.568359" xlink:href="#DejaVuSans-77"/>
     <use x="1284.847656" xlink:href="#DejaVuSans-111"/>
     <use x="1346.029297" xlink:href="#DejaVuSans-109"/>
     <use x="1443.441406" xlink:href="#DejaVuSans-101"/>
     <use x="1504.964844" xlink:href="#DejaVuSans-110"/>
     <use x="1568.34375" xlink:href="#DejaVuSans-116"/>
     <use x="1607.552734" xlink:href="#DejaVuSans-117"/>
     <use x="1670.931641" xlink:href="#DejaVuSans-109"/>
    </g>
    <!-- Cutoff=-1.460, NCQE shower classification -->
    <defs>
     <path d="M 64.40625 67.28125 
L 64.40625 56.890625 
Q 59.421875 61.53125 53.78125 63.8125 
Q 48.140625 66.109375 41.796875 66.109375 
Q 29.296875 66.109375 22.65625 58.46875 
Q 16.015625 50.828125 16.015625 36.375 
Q 16.015625 21.96875 22.65625 14.328125 
Q 29.296875 6.6875 41.796875 6.6875 
Q 48.140625 6.6875 53.78125 8.984375 
Q 59.421875 11.28125 64.40625 15.921875 
L 64.40625 5.609375 
Q 59.234375 2.09375 53.4375 0.328125 
Q 47.65625 -1.421875 41.21875 -1.421875 
Q 24.65625 -1.421875 15.125 8.703125 
Q 5.609375 18.84375 5.609375 36.375 
Q 5.609375 53.953125 15.125 64.078125 
Q 24.65625 74.21875 41.21875 74.21875 
Q 47.75 74.21875 53.53125 72.484375 
Q 59.328125 70.75 64.40625 67.28125 
z
" id="DejaVuSans-67"/>
     <path d="M 10.59375 45.40625 
L 73.1875 45.40625 
L 73.1875 37.203125 
L 10.59375 37.203125 
z
M 10.59375 25.484375 
L 73.1875 25.484375 
L 73.1875 17.1875 
L 10.59375 17.1875 
z
" id="DejaVuSans-61"/>
     <path d="M 4.890625 31.390625 
L 31.203125 31.390625 
L 31.203125 23.390625 
L 4.890625 23.390625 
z
" id="DejaVuSans-45"/>
     <path d="M 11.71875 12.40625 
L 22.015625 12.40625 
L 22.015625 4 
L 14.015625 -11.625 
L 7.71875 -11.625 
L 11.71875 4 
z
" id="DejaVuSans-44"/>
     <path d="M 9.8125 72.90625 
L 23.09375 72.90625 
L 55.421875 11.921875 
L 55.421875 72.90625 
L 64.984375 72.90625 
L 64.984375 0 
L 51.703125 0 
L 19.390625 60.984375 
L 19.390625 0 
L 9.8125 0 
z
" id="DejaVuSans-78"/>
     <path d="M 39.40625 66.21875 
Q 28.65625 66.21875 22.328125 58.203125 
Q 16.015625 50.203125 16.015625 36.375 
Q 16.015625 22.609375 22.328125 14.59375 
Q 28.65625 6.59375 39.40625 6.59375 
Q 50.140625 6.59375 56.421875 14.59375 
Q 62.703125 22.609375 62.703125 36.375 
Q 62.703125 50.203125 56.421875 58.203125 
Q 50.140625 66.21875 39.40625 66.21875 
z
M 53.21875 1.3125 
L 66.21875 -12.890625 
L 54.296875 -12.890625 
L 43.5 -1.21875 
Q 41.890625 -1.3125 41.03125 -1.359375 
Q 40.1875 -1.421875 39.40625 -1.421875 
Q 24.03125 -1.421875 14.8125 8.859375 
Q 5.609375 19.140625 5.609375 36.375 
Q 5.609375 53.65625 14.8125 63.9375 
Q 24.03125 74.21875 39.40625 74.21875 
Q 54.734375 74.21875 63.90625 63.9375 
Q 73.09375 53.65625 73.09375 36.375 
Q 73.09375 23.6875 67.984375 14.640625 
Q 62.890625 5.609375 53.21875 1.3125 
z
" id="DejaVuSans-81"/>
     <path d="M 54.890625 33.015625 
L 54.890625 0 
L 45.90625 0 
L 45.90625 32.71875 
Q 45.90625 40.484375 42.875 44.328125 
Q 39.84375 48.1875 33.796875 48.1875 
Q 26.515625 48.1875 22.3125 43.546875 
Q 18.109375 38.921875 18.109375 30.90625 
L 18.109375 0 
L 9.078125 0 
L 9.078125 75.984375 
L 18.109375 75.984375 
L 18.109375 46.1875 
Q 21.34375 51.125 25.703125 53.5625 
Q 30.078125 56 35.796875 56 
Q 45.21875 56 50.046875 50.171875 
Q 54.890625 44.34375 54.890625 33.015625 
z
" id="DejaVuSans-104"/>
     <path d="M 4.203125 54.6875 
L 13.1875 54.6875 
L 24.421875 12.015625 
L 35.59375 54.6875 
L 46.1875 54.6875 
L 57.421875 12.015625 
L 68.609375 54.6875 
L 77.59375 54.6875 
L 63.28125 0 
L 52.6875 0 
L 40.921875 44.828125 
L 29.109375 0 
L 18.5 0 
z
" id="DejaVuSans-119"/>
     <path d="M 9.421875 75.984375 
L 18.40625 75.984375 
L 18.40625 0 
L 9.421875 0 
z
" id="DejaVuSans-108"/>
    </defs>
    <g transform="translate(92.72925 123.6)scale(0.2592 -0.2592)">
     <use xlink:href="#DejaVuSans-67"/>
     <use x="69.824219" xlink:href="#DejaVuSans-117"/>
     <use x="133.203125" xlink:href="#DejaVuSans-116"/>
     <use x="172.412109" xlink:href="#DejaVuSans-111"/>
     <use x="233.59375" xlink:href="#DejaVuSans-102"/>
     <use x="268.798828" xlink:href="#DejaVuSans-102"/>
     <use x="304.003906" xlink:href="#DejaVuSans-61"/>
     <use x="387.792969" xlink:href="#DejaVuSans-45"/>
     <use x="423.876953" xlink:href="#DejaVuSans-49"/>
     <use x="487.5" xlink:href="#DejaVuSans-46"/>
     <use x="519.287109" xlink:href="#DejaVuSans-52"/>
     <use x="582.910156" xlink:href="#DejaVuSans-54"/>
     <use x="646.533203" xlink:href="#DejaVuSans-48"/>
     <use x="710.15625" xlink:href="#DejaVuSans-44"/>
     <use x="741.943359" xlink:href="#DejaVuSans-32"/>
     <use x="773.730469" xlink:href="#DejaVuSans-78"/>
     <use x="848.535156" xlink:href="#DejaVuSans-67"/>
     <use x="918.359375" xlink:href="#DejaVuSans-81"/>
     <use x="997.070312" xlink:href="#DejaVuSans-69"/>
     <use x="1060.253906" xlink:href="#DejaVuSans-32"/>
     <use x="1092.041016" xlink:href="#DejaVuSans-115"/>
     <use x="1144.140625" xlink:href="#DejaVuSans-104"/>
     <use x="1207.519531" xlink:href="#DejaVuSans-111"/>
     <use x="1268.701172" xlink:href="#DejaVuSans-119"/>
     <use x="1350.488281" xlink:href="#DejaVuSans-101"/>
     <use x="1412.011719" xlink:href="#DejaVuSans-114"/>
     <use x="1453.125" xlink:href="#DejaVuSans-32"/>
     <use x="1484.912109" xlink:href="#DejaVuSans-99"/>
     <use x="1539.892578" xlink:href="#DejaVuSans-108"/>
     <use x="1567.675781" xlink:href="#DejaVuSans-97"/>
     <use x="1628.955078" xlink:href="#DejaVuSans-115"/>
     <use x="1681.054688" xlink:href="#DejaVuSans-115"/>
     <use x="1733.154297" xlink:href="#DejaVuSans-105"/>
     <use x="1760.9375" xlink:href="#DejaVuSans-102"/>
     <use x="1796.142578" xlink:href="#DejaVuSans-105"/>
     <use x="1823.925781" xlink:href="#DejaVuSans-99"/>
     <use x="1878.90625" xlink:href="#DejaVuSans-97"/>
     <use x="1940.185547" xlink:href="#DejaVuSans-116"/>
     <use x="1979.394531" xlink:href="#DejaVuSans-105"/>
     <use x="2007.177734" xlink:href="#DejaVuSans-111"/>
     <use x="2068.359375" xlink:href="#DejaVuSans-110"/>
    </g>
   </g>
   <g id="legend_1">
    <g id="patch_7">
     <path d="M 266.025938 498.6 
L 471.974063 498.6 
Q 475.574063 498.6 475.574063 495 
L 475.574063 417.538125 
Q 475.574063 413.938125 471.974063 413.938125 
L 266.025938 413.938125 
Q 262.425938 413.938125 262.425938 417.538125 
L 262.425938 495 
Q 262.425938 498.6 266.025938 498.6 
z
" style="fill:#ffffff;opacity:0.5;stroke:#cccccc;stroke-linejoin:miter;"/>
    </g>
    <g id="line2d_22">
     <path d="M 269.625938 428.515312 
L 305.625938 428.515312 
" style="fill:none;stroke:#008000;stroke-linecap:square;stroke-width:1.5;"/>
    </g>
    <g id="line2d_23"/>
    <g id="text_10">
     <!-- Efficiency -->
     <g transform="translate(320.025937 434.815313)scale(0.18 -0.18)">
      <use xlink:href="#DejaVuSans-69"/>
      <use x="63.183594" xlink:href="#DejaVuSans-102"/>
      <use x="98.388672" xlink:href="#DejaVuSans-102"/>
      <use x="133.59375" xlink:href="#DejaVuSans-105"/>
      <use x="161.376953" xlink:href="#DejaVuSans-99"/>
      <use x="216.357422" xlink:href="#DejaVuSans-105"/>
      <use x="244.140625" xlink:href="#DejaVuSans-101"/>
      <use x="305.664062" xlink:href="#DejaVuSans-110"/>
      <use x="369.042969" xlink:href="#DejaVuSans-99"/>
      <use x="424.023438" xlink:href="#DejaVuSans-121"/>
     </g>
    </g>
    <g id="line2d_24">
     <path d="M 269.625938 454.935937 
L 305.625938 454.935937 
" style="fill:none;stroke:#ff0000;stroke-linecap:square;stroke-width:1.5;"/>
    </g>
    <g id="line2d_25"/>
    <g id="text_11">
     <!-- Purity -->
     <g transform="translate(320.025937 461.235937)scale(0.18 -0.18)">
      <use xlink:href="#DejaVuSans-80"/>
      <use x="60.287109" xlink:href="#DejaVuSans-117"/>
      <use x="123.666016" xlink:href="#DejaVuSans-114"/>
      <use x="164.779297" xlink:href="#DejaVuSans-105"/>
      <use x="192.5625" xlink:href="#DejaVuSans-116"/>
      <use x="231.771484" xlink:href="#DejaVuSans-121"/>
     </g>
    </g>
    <g id="line2d_26">
     <path d="M 269.625938 481.356562 
L 305.625938 481.356562 
" style="fill:none;stroke:#0000ff;stroke-linecap:square;stroke-width:1.5;"/>
    </g>
    <g id="line2d_27"/>
    <g id="text_12">
     <!-- Purity*Efficiency -->
     <defs>
      <path d="M 47.015625 60.890625 
L 29.5 51.421875 
L 47.015625 41.890625 
L 44.1875 37.109375 
L 27.78125 47.015625 
L 27.78125 28.609375 
L 22.21875 28.609375 
L 22.21875 47.015625 
L 5.8125 37.109375 
L 2.984375 41.890625 
L 20.515625 51.421875 
L 2.984375 60.890625 
L 5.8125 65.71875 
L 22.21875 55.8125 
L 22.21875 74.21875 
L 27.78125 74.21875 
L 27.78125 55.8125 
L 44.1875 65.71875 
z
" id="DejaVuSans-42"/>
     </defs>
     <g transform="translate(320.025937 487.656562)scale(0.18 -0.18)">
      <use xlink:href="#DejaVuSans-80"/>
      <use x="60.287109" xlink:href="#DejaVuSans-117"/>
      <use x="123.666016" xlink:href="#DejaVuSans-114"/>
      <use x="164.779297" xlink:href="#DejaVuSans-105"/>
      <use x="192.5625" xlink:href="#DejaVuSans-116"/>
      <use x="231.771484" xlink:href="#DejaVuSans-121"/>
      <use x="290.951172" xlink:href="#DejaVuSans-42"/>
      <use x="340.951172" xlink:href="#DejaVuSans-69"/>
      <use x="404.134766" xlink:href="#DejaVuSans-102"/>
      <use x="439.339844" xlink:href="#DejaVuSans-102"/>
      <use x="474.544922" xlink:href="#DejaVuSans-105"/>
      <use x="502.328125" xlink:href="#DejaVuSans-99"/>
      <use x="557.308594" xlink:href="#DejaVuSans-105"/>
      <use x="585.091797" xlink:href="#DejaVuSans-101"/>
      <use x="646.615234" xlink:href="#DejaVuSans-110"/>
      <use x="709.994141" xlink:href="#DejaVuSans-99"/>
      <use x="764.974609" xlink:href="#DejaVuSans-121"/>
     </g>
    </g>
   </g>
  </g>
  <g id="axes_2">
   <g id="patch_8">
    <path d="M 90 961.2 
L 648 961.2 
L 648 583.2 
L 90 583.2 
z
" style="fill:#ffffff;"/>
   </g>
   <g id="patch_9">
    <path clip-path="url(#p95cbc379a8)" d="M 90 442550.149981 
L 90 442550.149981 
L 97.063291 442550.149981 
L 97.063291 442550.149981 
L 104.126582 442550.149981 
L 104.126582 944.018182 
L 111.189873 944.018182 
L 111.189873 600.381818 
L 118.253165 600.381818 
L 118.253165 678.144798 
L 125.316456 678.144798 
L 125.316456 811.08149 
L 132.379747 811.08149 
L 132.379747 811.08149 
L 139.443038 811.08149 
L 139.443038 635.348742 
L 146.506329 635.348742 
L 146.506329 811.08149 
L 153.56962 811.08149 
L 153.56962 733.31851 
L 160.632911 733.31851 
L 160.632911 442550.149981 
L 167.696203 442550.149981 
L 167.696203 811.08149 
L 174.759494 811.08149 
L 174.759494 811.08149 
L 181.822785 811.08149 
L 181.822785 733.31851 
L 188.886076 733.31851 
L 188.886076 944.018182 
L 195.949367 944.018182 
L 195.949367 944.018182 
L 203.012658 944.018182 
L 203.012658 442550.149981 
L 210.075949 442550.149981 
L 210.075949 442550.149981 
L 217.139241 442550.149981 
L 217.139241 442550.149981 
L 224.202532 442550.149981 
L 224.202532 944.018182 
L 231.265823 944.018182 
L 231.265823 442550.149981 
L 238.329114 442550.149981 
L 238.329114 944.018182 
L 245.392405 944.018182 
L 245.392405 944.018182 
L 252.455696 944.018182 
L 252.455696 944.018182 
L 259.518987 944.018182 
L 259.518987 442550.149981 
L 266.582278 442550.149981 
L 266.582278 442550.149981 
L 273.64557 442550.149981 
L 273.64557 442550.149981 
L 280.708861 442550.149981 
L 280.708861 442550.149981 
L 287.772152 442550.149981 
L 287.772152 442550.149981 
L 294.835443 442550.149981 
L 294.835443 442550.149981 
L 301.898734 442550.149981 
L 301.898734 442550.149981 
L 308.962025 442550.149981 
L 308.962025 442550.149981 
L 316.025316 442550.149981 
L 316.025316 442550.149981 
L 323.088608 442550.149981 
L 323.088608 442550.149981 
L 330.151899 442550.149981 
L 330.151899 442550.149981 
L 337.21519 442550.149981 
L 337.21519 442550.149981 
L 344.278481 442550.149981 
L 344.278481 442550.149981 
L 351.341772 442550.149981 
L 351.341772 944.018182 
L 358.405063 944.018182 
L 358.405063 442550.149981 
L 365.468354 442550.149981 
L 365.468354 442550.149981 
L 372.531646 442550.149981 
L 372.531646 442550.149981 
L 379.594937 442550.149981 
L 379.594937 442550.149981 
L 386.658228 442550.149981 
L 386.658228 442550.149981 
L 393.721519 442550.149981 
L 393.721519 442550.149981 
L 400.78481 442550.149981 
L 400.78481 442550.149981 
L 407.848101 442550.149981 
L 407.848101 442550.149981 
L 414.911392 442550.149981 
L 414.911392 442550.149981 
L 421.974684 442550.149981 
L 421.974684 442550.149981 
L 429.037975 442550.149981 
L 429.037975 442550.149981 
L 436.101266 442550.149981 
L 436.101266 442550.149981 
L 443.164557 442550.149981 
L 443.164557 442550.149981 
L 450.227848 442550.149981 
L 450.227848 442550.149981 
L 457.291139 442550.149981 
L 457.291139 442550.149981 
L 464.35443 442550.149981 
L 464.35443 442550.149981 
L 471.417722 442550.149981 
L 471.417722 442550.149981 
L 478.481013 442550.149981 
L 478.481013 442550.149981 
L 485.544304 442550.149981 
L 485.544304 442550.149981 
L 492.607595 442550.149981 
L 492.607595 442550.149981 
L 499.670886 442550.149981 
L 499.670886 442550.149981 
L 506.734177 442550.149981 
L 506.734177 442550.149981 
L 513.797468 442550.149981 
L 513.797468 442550.149981 
L 520.860759 442550.149981 
L 520.860759 442550.149981 
L 527.924051 442550.149981 
L 527.924051 442550.149981 
L 534.987342 442550.149981 
L 534.987342 442550.149981 
L 542.050633 442550.149981 
L 542.050633 442550.149981 
L 549.113924 442550.149981 
L 549.113924 442550.149981 
L 556.177215 442550.149981 
L 556.177215 442550.149981 
L 563.240506 442550.149981 
L 563.240506 442550.149981 
L 570.303797 442550.149981 
L 570.303797 442550.149981 
L 577.367089 442550.149981 
L 577.367089 442550.149981 
L 584.43038 442550.149981 
L 584.43038 442550.149981 
L 591.493671 442550.149981 
L 591.493671 442550.149981 
L 598.556962 442550.149981 
L 598.556962 442550.149981 
L 605.620253 442550.149981 
L 605.620253 442550.149981 
L 612.683544 442550.149981 
L 612.683544 442550.149981 
L 619.746835 442550.149981 
L 619.746835 442550.149981 
L 626.810127 442550.149981 
L 626.810127 442550.149981 
L 633.873418 442550.149981 
L 633.873418 442550.149981 
L 640.936709 442550.149981 
L 640.936709 442550.149981 
L 648 442550.149981 
L 648 442550.149981 
z
" style="fill:#1f77b4;opacity:0.2;"/>
   </g>
   <g id="matplotlib.axis_3">
    <g id="xtick_7">
     <g id="line2d_28">
      <g>
       <use style="stroke:#000000;stroke-width:0.8;" x="90" xlink:href="#m3434b4c001" y="961.2"/>
      </g>
     </g>
     <g id="text_13">
      <!-- 0.0 -->
      <g transform="translate(69.38955 987.89515)scale(0.2592 -0.2592)">
       <use xlink:href="#DejaVuSans-48"/>
       <use x="63.623047" xlink:href="#DejaVuSans-46"/>
       <use x="95.410156" xlink:href="#DejaVuSans-48"/>
      </g>
     </g>
    </g>
    <g id="xtick_8">
     <g id="line2d_29">
      <g>
       <use style="stroke:#000000;stroke-width:0.8;" x="201.6" xlink:href="#m3434b4c001" y="961.2"/>
      </g>
     </g>
     <g id="text_14">
      <!-- 0.2 -->
      <g transform="translate(180.98955 987.89515)scale(0.2592 -0.2592)">
       <use xlink:href="#DejaVuSans-48"/>
       <use x="63.623047" xlink:href="#DejaVuSans-46"/>
       <use x="95.410156" xlink:href="#DejaVuSans-50"/>
      </g>
     </g>
    </g>
    <g id="xtick_9">
     <g id="line2d_30">
      <g>
       <use style="stroke:#000000;stroke-width:0.8;" x="313.2" xlink:href="#m3434b4c001" y="961.2"/>
      </g>
     </g>
     <g id="text_15">
      <!-- 0.4 -->
      <g transform="translate(292.58955 987.89515)scale(0.2592 -0.2592)">
       <use xlink:href="#DejaVuSans-48"/>
       <use x="63.623047" xlink:href="#DejaVuSans-46"/>
       <use x="95.410156" xlink:href="#DejaVuSans-52"/>
      </g>
     </g>
    </g>
    <g id="xtick_10">
     <g id="line2d_31">
      <g>
       <use style="stroke:#000000;stroke-width:0.8;" x="424.8" xlink:href="#m3434b4c001" y="961.2"/>
      </g>
     </g>
     <g id="text_16">
      <!-- 0.6 -->
      <g transform="translate(404.18955 987.89515)scale(0.2592 -0.2592)">
       <use xlink:href="#DejaVuSans-48"/>
       <use x="63.623047" xlink:href="#DejaVuSans-46"/>
       <use x="95.410156" xlink:href="#DejaVuSans-54"/>
      </g>
     </g>
    </g>
    <g id="xtick_11">
     <g id="line2d_32">
      <g>
       <use style="stroke:#000000;stroke-width:0.8;" x="536.4" xlink:href="#m3434b4c001" y="961.2"/>
      </g>
     </g>
     <g id="text_17">
      <!-- 0.8 -->
      <g transform="translate(515.78955 987.89515)scale(0.2592 -0.2592)">
       <use xlink:href="#DejaVuSans-48"/>
       <use x="63.623047" xlink:href="#DejaVuSans-46"/>
       <use x="95.410156" xlink:href="#DejaVuSans-56"/>
      </g>
     </g>
    </g>
    <g id="xtick_12">
     <g id="line2d_33">
      <g>
       <use style="stroke:#000000;stroke-width:0.8;" x="648" xlink:href="#m3434b4c001" y="961.2"/>
      </g>
     </g>
     <g id="text_18">
      <!-- 1.0 -->
      <g transform="translate(627.38955 987.89515)scale(0.2592 -0.2592)">
       <use xlink:href="#DejaVuSans-49"/>
       <use x="63.623047" xlink:href="#DejaVuSans-46"/>
       <use x="95.410156" xlink:href="#DejaVuSans-48"/>
      </g>
     </g>
    </g>
    <g id="text_19">
     <!-- mcpMomentum -->
     <g transform="translate(267.180975 1016.98085)scale(0.2592 -0.2592)">
      <use xlink:href="#DejaVuSans-109"/>
      <use x="97.412109" xlink:href="#DejaVuSans-99"/>
      <use x="152.392578" xlink:href="#DejaVuSans-112"/>
      <use x="215.869141" xlink:href="#DejaVuSans-77"/>
      <use x="302.148438" xlink:href="#DejaVuSans-111"/>
      <use x="363.330078" xlink:href="#DejaVuSans-109"/>
      <use x="460.742188" xlink:href="#DejaVuSans-101"/>
      <use x="522.265625" xlink:href="#DejaVuSans-110"/>
      <use x="585.644531" xlink:href="#DejaVuSans-116"/>
      <use x="624.853516" xlink:href="#DejaVuSans-117"/>
      <use x="688.232422" xlink:href="#DejaVuSans-109"/>
     </g>
    </g>
   </g>
   <g id="matplotlib.axis_4">
    <g id="ytick_7">
     <g id="line2d_34">
      <g>
       <use style="stroke:#000000;stroke-width:0.8;" x="90" xlink:href="#m73ef7efea6" y="944.018182"/>
      </g>
     </g>
     <g id="text_20">
      <!-- $\mathdefault{10^{0}}$ -->
      <g transform="translate(37.3808 953.865757)scale(0.2592 -0.2592)">
       <use transform="translate(0 0.765625)" xlink:href="#DejaVuSans-49"/>
       <use transform="translate(63.623047 0.765625)" xlink:href="#DejaVuSans-48"/>
       <use transform="translate(128.203125 39.046875)scale(0.7)" xlink:href="#DejaVuSans-48"/>
      </g>
     </g>
    </g>
    <g id="ytick_8">
     <g id="line2d_35">
      <defs>
       <path d="M 0 0 
L -2 0 
" id="m3588bf93c1" style="stroke:#000000;stroke-width:0.6;"/>
      </defs>
      <g>
       <use style="stroke:#000000;stroke-width:0.6;" x="90" xlink:href="#m3588bf93c1" y="811.08149"/>
      </g>
     </g>
     <g id="text_21">
      <!-- $\mathdefault{2\times10^{0}}$ -->
      <defs>
       <path d="M 70.125 53.71875 
L 47.796875 31.296875 
L 70.125 8.984375 
L 64.3125 3.078125 
L 41.890625 25.484375 
L 19.484375 3.078125 
L 13.71875 8.984375 
L 35.984375 31.296875 
L 13.71875 53.71875 
L 19.484375 59.625 
L 41.890625 37.203125 
L 64.3125 59.625 
z
" id="DejaVuSans-215"/>
      </defs>
      <g transform="translate(-9.2304 820.929065)scale(0.2592 -0.2592)">
       <use transform="translate(0 0.765625)" xlink:href="#DejaVuSans-50"/>
       <use transform="translate(83.105469 0.765625)" xlink:href="#DejaVuSans-215"/>
       <use transform="translate(186.376953 0.765625)" xlink:href="#DejaVuSans-49"/>
       <use transform="translate(250 0.765625)" xlink:href="#DejaVuSans-48"/>
       <use transform="translate(314.580078 39.046875)scale(0.7)" xlink:href="#DejaVuSans-48"/>
      </g>
     </g>
    </g>
    <g id="ytick_9">
     <g id="line2d_36">
      <g>
       <use style="stroke:#000000;stroke-width:0.6;" x="90" xlink:href="#m3588bf93c1" y="733.31851"/>
      </g>
     </g>
     <g id="text_22">
      <!-- $\mathdefault{3\times10^{0}}$ -->
      <defs>
       <path d="M 40.578125 39.3125 
Q 47.65625 37.796875 51.625 33 
Q 55.609375 28.21875 55.609375 21.1875 
Q 55.609375 10.40625 48.1875 4.484375 
Q 40.765625 -1.421875 27.09375 -1.421875 
Q 22.515625 -1.421875 17.65625 -0.515625 
Q 12.796875 0.390625 7.625 2.203125 
L 7.625 11.71875 
Q 11.71875 9.328125 16.59375 8.109375 
Q 21.484375 6.890625 26.8125 6.890625 
Q 36.078125 6.890625 40.9375 10.546875 
Q 45.796875 14.203125 45.796875 21.1875 
Q 45.796875 27.640625 41.28125 31.265625 
Q 36.765625 34.90625 28.71875 34.90625 
L 20.21875 34.90625 
L 20.21875 43.015625 
L 29.109375 43.015625 
Q 36.375 43.015625 40.234375 45.921875 
Q 44.09375 48.828125 44.09375 54.296875 
Q 44.09375 59.90625 40.109375 62.90625 
Q 36.140625 65.921875 28.71875 65.921875 
Q 24.65625 65.921875 20.015625 65.03125 
Q 15.375 64.15625 9.8125 62.3125 
L 9.8125 71.09375 
Q 15.4375 72.65625 20.34375 73.4375 
Q 25.25 74.21875 29.59375 74.21875 
Q 40.828125 74.21875 47.359375 69.109375 
Q 53.90625 64.015625 53.90625 55.328125 
Q 53.90625 49.265625 50.4375 45.09375 
Q 46.96875 40.921875 40.578125 39.3125 
z
" id="DejaVuSans-51"/>
      </defs>
      <g transform="translate(-9.2304 743.166085)scale(0.2592 -0.2592)">
       <use transform="translate(0 0.765625)" xlink:href="#DejaVuSans-51"/>
       <use transform="translate(83.105469 0.765625)" xlink:href="#DejaVuSans-215"/>
       <use transform="translate(186.376953 0.765625)" xlink:href="#DejaVuSans-49"/>
       <use transform="translate(250 0.765625)" xlink:href="#DejaVuSans-48"/>
       <use transform="translate(314.580078 39.046875)scale(0.7)" xlink:href="#DejaVuSans-48"/>
      </g>
     </g>
    </g>
    <g id="ytick_10">
     <g id="line2d_37">
      <g>
       <use style="stroke:#000000;stroke-width:0.6;" x="90" xlink:href="#m3588bf93c1" y="678.144798"/>
      </g>
     </g>
     <g id="text_23">
      <!-- $\mathdefault{4\times10^{0}}$ -->
      <g transform="translate(-9.2304 687.992373)scale(0.2592 -0.2592)">
       <use transform="translate(0 0.765625)" xlink:href="#DejaVuSans-52"/>
       <use transform="translate(83.105469 0.765625)" xlink:href="#DejaVuSans-215"/>
       <use transform="translate(186.376953 0.765625)" xlink:href="#DejaVuSans-49"/>
       <use transform="translate(250 0.765625)" xlink:href="#DejaVuSans-48"/>
       <use transform="translate(314.580078 39.046875)scale(0.7)" xlink:href="#DejaVuSans-48"/>
      </g>
     </g>
    </g>
    <g id="ytick_11">
     <g id="line2d_38">
      <g>
       <use style="stroke:#000000;stroke-width:0.6;" x="90" xlink:href="#m3588bf93c1" y="635.348742"/>
      </g>
     </g>
    </g>
    <g id="ytick_12">
     <g id="line2d_39">
      <g>
       <use style="stroke:#000000;stroke-width:0.6;" x="90" xlink:href="#m3588bf93c1" y="600.381818"/>
      </g>
     </g>
     <g id="text_24">
      <!-- $\mathdefault{6\times10^{0}}$ -->
      <g transform="translate(-9.2304 610.229393)scale(0.2592 -0.2592)">
       <use transform="translate(0 0.765625)" xlink:href="#DejaVuSans-54"/>
       <use transform="translate(83.105469 0.765625)" xlink:href="#DejaVuSans-215"/>
       <use transform="translate(186.376953 0.765625)" xlink:href="#DejaVuSans-49"/>
       <use transform="translate(250 0.765625)" xlink:href="#DejaVuSans-48"/>
       <use transform="translate(314.580078 39.046875)scale(0.7)" xlink:href="#DejaVuSans-48"/>
      </g>
     </g>
    </g>
    <g id="text_25">
     <!-- Count -->
     <g transform="translate(-18.62095 810.68715)rotate(-90)scale(0.2592 -0.2592)">
      <use xlink:href="#DejaVuSans-67"/>
      <use x="69.824219" xlink:href="#DejaVuSans-111"/>
      <use x="131.005859" xlink:href="#DejaVuSans-117"/>
      <use x="194.384766" xlink:href="#DejaVuSans-110"/>
      <use x="257.763672" xlink:href="#DejaVuSans-116"/>
     </g>
    </g>
   </g>
   <g id="line2d_40">
    <path clip-path="url(#p95cbc379a8)" d="M 104.126582 1081 
L 104.126582 944.018182 
L 111.189873 944.018182 
L 111.189873 600.381818 
L 118.253165 600.381818 
L 118.253165 678.144798 
L 125.316456 678.144798 
L 125.316456 811.08149 
L 139.443038 811.08149 
L 139.443038 635.348742 
L 146.506329 635.348742 
L 146.506329 811.08149 
L 153.56962 811.08149 
L 153.56962 733.31851 
L 160.632911 733.31851 
L 160.632911 1081 
M 167.696203 1081 
L 167.696203 811.08149 
L 181.822785 811.08149 
L 181.822785 733.31851 
L 188.886076 733.31851 
L 188.886076 944.018182 
L 203.012658 944.018182 
L 203.012658 1081 
M 224.202532 1081 
L 224.202532 944.018182 
L 231.265823 944.018182 
L 231.265823 1081 
M 238.329114 1081 
L 238.329114 944.018182 
L 259.518987 944.018182 
L 259.518987 1081 
M 351.341772 1081 
L 351.341772 944.018182 
L 358.405063 944.018182 
L 358.405063 1081 
L 358.405063 1081 
" style="fill:none;stroke:#1f77b4;stroke-linecap:square;stroke-width:1.5;"/>
   </g>
   <g id="line2d_41">
    <path clip-path="url(#p95cbc379a8)" d="M 104.126582 1081 
L 104.126582 944.018182 
L 111.189873 944.018182 
L 111.189873 600.381818 
L 118.253165 600.381818 
L 118.253165 678.144798 
L 125.316456 678.144798 
L 125.316456 811.08149 
L 139.443038 811.08149 
L 139.443038 678.144798 
L 146.506329 678.144798 
L 146.506329 811.08149 
L 153.56962 811.08149 
L 153.56962 733.31851 
L 160.632911 733.31851 
L 160.632911 1081 
M 167.696203 1081 
L 167.696203 811.08149 
L 181.822785 811.08149 
L 181.822785 733.31851 
L 188.886076 733.31851 
L 188.886076 944.018182 
L 203.012658 944.018182 
L 203.012658 1081 
M 224.202532 1081 
L 224.202532 944.018182 
L 231.265823 944.018182 
L 231.265823 1081 
M 238.329114 1081 
L 238.329114 944.018182 
L 259.518987 944.018182 
L 259.518987 1081 
M 351.341772 1081 
L 351.341772 944.018182 
L 358.405063 944.018182 
L 358.405063 1081 
L 358.405063 1081 
" style="fill:none;stroke:#ff7f0e;stroke-linecap:square;stroke-width:1.5;"/>
   </g>
   <g id="line2d_42">
    <path clip-path="url(#p95cbc379a8)" d="M 301.898734 1081 
L 301.898734 944.018182 
L 308.962025 944.018182 
L 308.962025 1081 
M 316.025316 1081 
L 316.025316 944.018182 
L 323.088608 944.018182 
L 323.088608 1081 
M 330.151899 1081 
L 330.151899 944.018182 
L 337.21519 944.018182 
L 337.21519 1081 
M 344.278481 1081 
L 344.278481 944.018182 
L 358.405063 944.018182 
L 358.405063 1081 
M 407.848101 1081 
L 407.848101 944.018182 
L 414.911392 944.018182 
L 414.911392 1081 
L 414.911392 1081 
" style="fill:none;stroke:#2ca02c;stroke-linecap:square;stroke-width:1.5;"/>
   </g>
   <g id="patch_10">
    <path d="M 90 961.2 
L 90 583.2 
" style="fill:none;stroke:#000000;stroke-linecap:square;stroke-linejoin:miter;stroke-width:0.8;"/>
   </g>
   <g id="patch_11">
    <path d="M 648 961.2 
L 648 583.2 
" style="fill:none;stroke:#000000;stroke-linecap:square;stroke-linejoin:miter;stroke-width:0.8;"/>
   </g>
   <g id="patch_12">
    <path d="M 90 961.2 
L 648 961.2 
" style="fill:none;stroke:#000000;stroke-linecap:square;stroke-linejoin:miter;stroke-width:0.8;"/>
   </g>
   <g id="patch_13">
    <path d="M 90 583.2 
L 648 583.2 
" style="fill:none;stroke:#000000;stroke-linecap:square;stroke-linejoin:miter;stroke-width:0.8;"/>
   </g>
   <g id="legend_2">
    <g id="patch_14">
     <path d="M 386.055 676.861875 
L 635.4 676.861875 
Q 639 676.861875 639 673.261875 
L 639 595.8 
Q 639 592.2 635.4 592.2 
L 386.055 592.2 
Q 382.455 592.2 382.455 595.8 
L 382.455 673.261875 
Q 382.455 676.861875 386.055 676.861875 
z
" style="fill:#ffffff;opacity:0.5;stroke:#cccccc;stroke-linejoin:miter;"/>
    </g>
    <g id="line2d_43">
     <path d="M 389.655 606.777188 
L 425.655 606.777188 
" style="fill:none;stroke:#1f77b4;stroke-linecap:square;stroke-width:1.5;"/>
    </g>
    <g id="line2d_44"/>
    <g id="text_26">
     <!-- NCQE shower -->
     <g transform="translate(440.055 613.077188)scale(0.18 -0.18)">
      <use xlink:href="#DejaVuSans-78"/>
      <use x="74.804688" xlink:href="#DejaVuSans-67"/>
      <use x="144.628906" xlink:href="#DejaVuSans-81"/>
      <use x="223.339844" xlink:href="#DejaVuSans-69"/>
      <use x="286.523438" xlink:href="#DejaVuSans-32"/>
      <use x="318.310547" xlink:href="#DejaVuSans-115"/>
      <use x="370.410156" xlink:href="#DejaVuSans-104"/>
      <use x="433.789062" xlink:href="#DejaVuSans-111"/>
      <use x="494.970703" xlink:href="#DejaVuSans-119"/>
      <use x="576.757812" xlink:href="#DejaVuSans-101"/>
      <use x="638.28125" xlink:href="#DejaVuSans-114"/>
     </g>
    </g>
    <g id="line2d_45">
     <path d="M 389.655 633.197813 
L 425.655 633.197813 
" style="fill:none;stroke:#ff7f0e;stroke-linecap:square;stroke-width:1.5;"/>
    </g>
    <g id="line2d_46"/>
    <g id="text_27">
     <!-- correct NCQE shower -->
     <g transform="translate(440.055 639.497813)scale(0.18 -0.18)">
      <use xlink:href="#DejaVuSans-99"/>
      <use x="54.980469" xlink:href="#DejaVuSans-111"/>
      <use x="116.162109" xlink:href="#DejaVuSans-114"/>
      <use x="157.259766" xlink:href="#DejaVuSans-114"/>
      <use x="198.341797" xlink:href="#DejaVuSans-101"/>
      <use x="259.865234" xlink:href="#DejaVuSans-99"/>
      <use x="314.845703" xlink:href="#DejaVuSans-116"/>
      <use x="354.054688" xlink:href="#DejaVuSans-32"/>
      <use x="385.841797" xlink:href="#DejaVuSans-78"/>
      <use x="460.646484" xlink:href="#DejaVuSans-67"/>
      <use x="530.470703" xlink:href="#DejaVuSans-81"/>
      <use x="609.181641" xlink:href="#DejaVuSans-69"/>
      <use x="672.365234" xlink:href="#DejaVuSans-32"/>
      <use x="704.152344" xlink:href="#DejaVuSans-115"/>
      <use x="756.251953" xlink:href="#DejaVuSans-104"/>
      <use x="819.630859" xlink:href="#DejaVuSans-111"/>
      <use x="880.8125" xlink:href="#DejaVuSans-119"/>
      <use x="962.599609" xlink:href="#DejaVuSans-101"/>
      <use x="1024.123047" xlink:href="#DejaVuSans-114"/>
     </g>
    </g>
    <g id="line2d_47">
     <path d="M 389.655 659.618438 
L 425.655 659.618438 
" style="fill:none;stroke:#2ca02c;stroke-linecap:square;stroke-width:1.5;"/>
    </g>
    <g id="line2d_48"/>
    <g id="text_28">
     <!-- incorrect NCQE track -->
     <defs>
      <path d="M 9.078125 75.984375 
L 18.109375 75.984375 
L 18.109375 31.109375 
L 44.921875 54.6875 
L 56.390625 54.6875 
L 27.390625 29.109375 
L 57.625 0 
L 45.90625 0 
L 18.109375 26.703125 
L 18.109375 0 
L 9.078125 0 
z
" id="DejaVuSans-107"/>
     </defs>
     <g transform="translate(440.055 665.918437)scale(0.18 -0.18)">
      <use xlink:href="#DejaVuSans-105"/>
      <use x="27.783203" xlink:href="#DejaVuSans-110"/>
      <use x="91.162109" xlink:href="#DejaVuSans-99"/>
      <use x="146.142578" xlink:href="#DejaVuSans-111"/>
      <use x="207.324219" xlink:href="#DejaVuSans-114"/>
      <use x="248.421875" xlink:href="#DejaVuSans-114"/>
      <use x="289.503906" xlink:href="#DejaVuSans-101"/>
      <use x="351.027344" xlink:href="#DejaVuSans-99"/>
      <use x="406.007812" xlink:href="#DejaVuSans-116"/>
      <use x="445.216797" xlink:href="#DejaVuSans-32"/>
      <use x="477.003906" xlink:href="#DejaVuSans-78"/>
      <use x="551.808594" xlink:href="#DejaVuSans-67"/>
      <use x="621.632812" xlink:href="#DejaVuSans-81"/>
      <use x="700.34375" xlink:href="#DejaVuSans-69"/>
      <use x="763.527344" xlink:href="#DejaVuSans-32"/>
      <use x="795.314453" xlink:href="#DejaVuSans-116"/>
      <use x="834.523438" xlink:href="#DejaVuSans-114"/>
      <use x="875.636719" xlink:href="#DejaVuSans-97"/>
      <use x="936.916016" xlink:href="#DejaVuSans-99"/>
      <use x="991.896484" xlink:href="#DejaVuSans-107"/>
     </g>
    </g>
   </g>
  </g>
 </g>
 <defs>
  <clipPath id="p70edbd92a0">
   <rect height="378" width="558" x="90" y="129.6"/>
  </clipPath>
  <clipPath id="p95cbc379a8">
   <rect height="378" width="558" x="90" y="583.2"/>
  </clipPath>
 </defs>
</svg>
