<?xml version="1.0" encoding="utf-8" standalone="no"?>
<!DOCTYPE svg PUBLIC "-//W3C//DTD SVG 1.1//EN"
  "http://www.w3.org/Graphics/SVG/1.1/DTD/svg11.dtd">
<!-- Created with matplotlib (https://matplotlib.org/) -->
<svg height="540pt" version="1.1" viewBox="0 0 720 540" width="720pt" xmlns="http://www.w3.org/2000/svg" xmlns:xlink="http://www.w3.org/1999/xlink">
 <defs>
  <style type="text/css">
*{stroke-linecap:butt;stroke-linejoin:round;}
  </style>
 </defs>
 <g id="figure_1">
  <g id="patch_1">
   <path d="M 0 540 
L 720 540 
L 720 0 
L 0 0 
z
" style="fill:#ffffff;"/>
  </g>
  <g id="axes_1">
   <g id="patch_2">
    <path d="M 90 480.6 
L 648 480.6 
L 648 64.8 
L 90 64.8 
z
" style="fill:#ffffff;"/>
   </g>
   <g id="patch_3">
    <path clip-path="url(#p567331f5f3)" d="M 90 76264.420151 
L 90 127.686472 
L 101.387755 127.686472 
L 101.387755 151.559179 
L 112.77551 151.559179 
L 112.77551 178.092613 
L 124.163265 178.092613 
L 124.163265 199.698053 
L 135.55102 199.698053 
L 135.55102 219.212263 
L 146.938776 219.212263 
L 146.938776 234.990537 
L 158.326531 234.990537 
L 158.326531 246.555263 
L 169.714286 246.555263 
L 169.714286 260.579274 
L 181.102041 260.579274 
L 181.102041 268.016891 
L 192.489796 268.016891 
L 192.489796 275.385866 
L 203.877551 275.385866 
L 203.877551 285.048297 
L 215.265306 285.048297 
L 215.265306 291.860272 
L 226.653061 291.860272 
L 226.653061 298.090252 
L 238.040816 298.090252 
L 238.040816 306.658955 
L 249.428571 306.658955 
L 249.428571 307.560948 
L 260.816327 307.560948 
L 260.816327 323.77362 
L 272.204082 323.77362 
L 272.204082 327.464601 
L 283.591837 327.464601 
L 283.591837 331.622279 
L 294.979592 331.622279 
L 294.979592 325.305092 
L 306.367347 325.305092 
L 306.367347 340.259495 
L 317.755102 340.259495 
L 317.755102 350.846254 
L 329.142857 350.846254 
L 329.142857 355.732345 
L 340.530612 355.732345 
L 340.530612 359.940709 
L 351.918367 359.940709 
L 351.918367 350.846254 
L 363.306122 350.846254 
L 363.306122 370.42443 
L 374.693878 370.42443 
L 374.693878 379.895126 
L 386.081633 379.895126 
L 386.081633 379.895126 
L 397.469388 379.895126 
L 397.469388 393.243322 
L 408.857143 393.243322 
L 408.857143 76264.420151 
L 420.244898 76264.420151 
L 420.244898 461.7 
L 431.632653 461.7 
L 431.632653 402.714019 
L 443.020408 402.714019 
L 443.020408 408.716172 
L 454.408163 408.716172 
L 454.408163 438.881107 
L 465.795918 438.881107 
L 465.795918 438.881107 
L 477.183673 438.881107 
L 477.183673 438.881107 
L 488.571429 438.881107 
L 488.571429 425.532911 
L 499.959184 425.532911 
L 499.959184 438.881107 
L 511.346939 438.881107 
L 511.346939 76264.420151 
L 522.734694 76264.420151 
L 522.734694 438.881107 
L 534.122449 438.881107 
L 534.122449 76264.420151 
L 545.510204 76264.420151 
L 545.510204 76264.420151 
L 556.897959 76264.420151 
L 556.897959 461.7 
L 568.285714 461.7 
L 568.285714 76264.420151 
L 579.673469 76264.420151 
L 579.673469 76264.420151 
L 591.061224 76264.420151 
L 591.061224 76264.420151 
L 602.44898 76264.420151 
L 602.44898 76264.420151 
L 613.836735 76264.420151 
L 613.836735 76264.420151 
L 625.22449 76264.420151 
L 625.22449 76264.420151 
L 636.612245 76264.420151 
L 636.612245 76264.420151 
L 648 76264.420151 
L 648 76264.420151 
z
" style="fill:#1f77b4;opacity:0.2;"/>
   </g>
   <g id="patch_4">
    <path clip-path="url(#p567331f5f3)" d="M 90 76264.420151 
L 90 83.7 
L 101.387755 83.7 
L 101.387755 114.448242 
L 112.77551 114.448242 
L 112.77551 132.375801 
L 124.163265 132.375801 
L 124.163265 145.132145 
L 135.55102 145.132145 
L 135.55102 155.071314 
L 146.938776 155.071314 
L 146.938776 164.053065 
L 158.326531 164.053065 
L 158.326531 170.174722 
L 169.714286 170.174722 
L 169.714286 177.949609 
L 181.102041 177.949609 
L 181.102041 184.463472 
L 192.489796 184.463472 
L 192.489796 189.30235 
L 203.877551 189.30235 
L 203.877551 195.499819 
L 215.265306 195.499819 
L 215.265306 198.32287 
L 226.653061 198.32287 
L 226.653061 203.256245 
L 238.040816 203.256245 
L 238.040816 209.122738 
L 249.428571 209.122738 
L 249.428571 212.255819 
L 260.816327 212.255819 
L 260.816327 216.285378 
L 272.204082 216.285378 
L 272.204082 219.885425 
L 283.591837 219.885425 
L 283.591837 223.545801 
L 294.979592 223.545801 
L 294.979592 228.372091 
L 306.367347 228.372091 
L 306.367347 233.127528 
L 317.755102 233.127528 
L 317.755102 236.363862 
L 329.142857 236.363862 
L 329.142857 239.68083 
L 340.530612 239.68083 
L 340.530612 242.938933 
L 351.918367 242.938933 
L 351.918367 245.706258 
L 363.306122 245.706258 
L 363.306122 252.79719 
L 374.693878 252.79719 
L 374.693878 256.458816 
L 386.081633 256.458816 
L 386.081633 259.288101 
L 397.469388 259.288101 
L 397.469388 262.850568 
L 408.857143 262.850568 
L 408.857143 265.715044 
L 420.244898 265.715044 
L 420.244898 272.321264 
L 431.632653 272.321264 
L 431.632653 275.27136 
L 443.020408 275.27136 
L 443.020408 276.672452 
L 454.408163 276.672452 
L 454.408163 283.252177 
L 465.795918 283.252177 
L 465.795918 285.357414 
L 477.183673 285.357414 
L 477.183673 289.312649 
L 488.571429 289.312649 
L 488.571429 294.010162 
L 499.959184 294.010162 
L 499.959184 296.310321 
L 511.346939 296.310321 
L 511.346939 295.45519 
L 522.734694 295.45519 
L 522.734694 309.442643 
L 534.122449 309.442643 
L 534.122449 310.09456 
L 545.510204 310.09456 
L 545.510204 317.440602 
L 556.897959 317.440602 
L 556.897959 314.679165 
L 568.285714 314.679165 
L 568.285714 316.627704 
L 579.673469 316.627704 
L 579.673469 325.831834 
L 591.061224 325.831834 
L 591.061224 326.911298 
L 602.44898 326.911298 
L 602.44898 326.367142 
L 613.836735 326.367142 
L 613.836735 334.257341 
L 625.22449 334.257341 
L 625.22449 337.878648 
L 636.612245 337.878648 
L 636.612245 352.001485 
L 648 352.001485 
L 648 76264.420151 
z
" style="fill:#ff7f0e;opacity:0.2;"/>
   </g>
   <g id="matplotlib.axis_1">
    <g id="xtick_1">
     <g id="line2d_1">
      <defs>
       <path d="M 0 0 
L 0 3.5 
" id="m409a45525d" style="stroke:#000000;stroke-width:0.8;"/>
      </defs>
      <g>
       <use style="stroke:#000000;stroke-width:0.8;" x="90" xlink:href="#m409a45525d" y="480.6"/>
      </g>
     </g>
     <g id="text_1">
      <!-- 0 -->
      <defs>
       <path d="M 31.78125 66.40625 
Q 24.171875 66.40625 20.328125 58.90625 
Q 16.5 51.421875 16.5 36.375 
Q 16.5 21.390625 20.328125 13.890625 
Q 24.171875 6.390625 31.78125 6.390625 
Q 39.453125 6.390625 43.28125 13.890625 
Q 47.125 21.390625 47.125 36.375 
Q 47.125 51.421875 43.28125 58.90625 
Q 39.453125 66.40625 31.78125 66.40625 
z
M 31.78125 74.21875 
Q 44.046875 74.21875 50.515625 64.515625 
Q 56.984375 54.828125 56.984375 36.375 
Q 56.984375 17.96875 50.515625 8.265625 
Q 44.046875 -1.421875 31.78125 -1.421875 
Q 19.53125 -1.421875 13.0625 8.265625 
Q 6.59375 17.96875 6.59375 36.375 
Q 6.59375 54.828125 13.0625 64.515625 
Q 19.53125 74.21875 31.78125 74.21875 
z
" id="DejaVuSans-48"/>
      </defs>
      <g transform="translate(81.7542 507.29515)scale(0.2592 -0.2592)">
       <use xlink:href="#DejaVuSans-48"/>
      </g>
     </g>
    </g>
    <g id="xtick_2">
     <g id="line2d_2">
      <g>
       <use style="stroke:#000000;stroke-width:0.8;" x="229.5" xlink:href="#m409a45525d" y="480.6"/>
      </g>
     </g>
     <g id="text_2">
      <!-- 1000 -->
      <defs>
       <path d="M 12.40625 8.296875 
L 28.515625 8.296875 
L 28.515625 63.921875 
L 10.984375 60.40625 
L 10.984375 69.390625 
L 28.421875 72.90625 
L 38.28125 72.90625 
L 38.28125 8.296875 
L 54.390625 8.296875 
L 54.390625 0 
L 12.40625 0 
z
" id="DejaVuSans-49"/>
      </defs>
      <g transform="translate(196.5168 507.29515)scale(0.2592 -0.2592)">
       <use xlink:href="#DejaVuSans-49"/>
       <use x="63.623047" xlink:href="#DejaVuSans-48"/>
       <use x="127.246094" xlink:href="#DejaVuSans-48"/>
       <use x="190.869141" xlink:href="#DejaVuSans-48"/>
      </g>
     </g>
    </g>
    <g id="xtick_3">
     <g id="line2d_3">
      <g>
       <use style="stroke:#000000;stroke-width:0.8;" x="369" xlink:href="#m409a45525d" y="480.6"/>
      </g>
     </g>
     <g id="text_3">
      <!-- 2000 -->
      <defs>
       <path d="M 19.1875 8.296875 
L 53.609375 8.296875 
L 53.609375 0 
L 7.328125 0 
L 7.328125 8.296875 
Q 12.9375 14.109375 22.625 23.890625 
Q 32.328125 33.6875 34.8125 36.53125 
Q 39.546875 41.84375 41.421875 45.53125 
Q 43.3125 49.21875 43.3125 52.78125 
Q 43.3125 58.59375 39.234375 62.25 
Q 35.15625 65.921875 28.609375 65.921875 
Q 23.96875 65.921875 18.8125 64.3125 
Q 13.671875 62.703125 7.8125 59.421875 
L 7.8125 69.390625 
Q 13.765625 71.78125 18.9375 73 
Q 24.125 74.21875 28.421875 74.21875 
Q 39.75 74.21875 46.484375 68.546875 
Q 53.21875 62.890625 53.21875 53.421875 
Q 53.21875 48.921875 51.53125 44.890625 
Q 49.859375 40.875 45.40625 35.40625 
Q 44.1875 33.984375 37.640625 27.21875 
Q 31.109375 20.453125 19.1875 8.296875 
z
" id="DejaVuSans-50"/>
      </defs>
      <g transform="translate(336.0168 507.29515)scale(0.2592 -0.2592)">
       <use xlink:href="#DejaVuSans-50"/>
       <use x="63.623047" xlink:href="#DejaVuSans-48"/>
       <use x="127.246094" xlink:href="#DejaVuSans-48"/>
       <use x="190.869141" xlink:href="#DejaVuSans-48"/>
      </g>
     </g>
    </g>
    <g id="xtick_4">
     <g id="line2d_4">
      <g>
       <use style="stroke:#000000;stroke-width:0.8;" x="508.5" xlink:href="#m409a45525d" y="480.6"/>
      </g>
     </g>
     <g id="text_4">
      <!-- 3000 -->
      <defs>
       <path d="M 40.578125 39.3125 
Q 47.65625 37.796875 51.625 33 
Q 55.609375 28.21875 55.609375 21.1875 
Q 55.609375 10.40625 48.1875 4.484375 
Q 40.765625 -1.421875 27.09375 -1.421875 
Q 22.515625 -1.421875 17.65625 -0.515625 
Q 12.796875 0.390625 7.625 2.203125 
L 7.625 11.71875 
Q 11.71875 9.328125 16.59375 8.109375 
Q 21.484375 6.890625 26.8125 6.890625 
Q 36.078125 6.890625 40.9375 10.546875 
Q 45.796875 14.203125 45.796875 21.1875 
Q 45.796875 27.640625 41.28125 31.265625 
Q 36.765625 34.90625 28.71875 34.90625 
L 20.21875 34.90625 
L 20.21875 43.015625 
L 29.109375 43.015625 
Q 36.375 43.015625 40.234375 45.921875 
Q 44.09375 48.828125 44.09375 54.296875 
Q 44.09375 59.90625 40.109375 62.90625 
Q 36.140625 65.921875 28.71875 65.921875 
Q 24.65625 65.921875 20.015625 65.03125 
Q 15.375 64.15625 9.8125 62.3125 
L 9.8125 71.09375 
Q 15.4375 72.65625 20.34375 73.4375 
Q 25.25 74.21875 29.59375 74.21875 
Q 40.828125 74.21875 47.359375 69.109375 
Q 53.90625 64.015625 53.90625 55.328125 
Q 53.90625 49.265625 50.4375 45.09375 
Q 46.96875 40.921875 40.578125 39.3125 
z
" id="DejaVuSans-51"/>
      </defs>
      <g transform="translate(475.5168 507.29515)scale(0.2592 -0.2592)">
       <use xlink:href="#DejaVuSans-51"/>
       <use x="63.623047" xlink:href="#DejaVuSans-48"/>
       <use x="127.246094" xlink:href="#DejaVuSans-48"/>
       <use x="190.869141" xlink:href="#DejaVuSans-48"/>
      </g>
     </g>
    </g>
    <g id="xtick_5">
     <g id="line2d_5">
      <g>
       <use style="stroke:#000000;stroke-width:0.8;" x="648" xlink:href="#m409a45525d" y="480.6"/>
      </g>
     </g>
     <g id="text_5">
      <!-- 4000 -->
      <defs>
       <path d="M 37.796875 64.3125 
L 12.890625 25.390625 
L 37.796875 25.390625 
z
M 35.203125 72.90625 
L 47.609375 72.90625 
L 47.609375 25.390625 
L 58.015625 25.390625 
L 58.015625 17.1875 
L 47.609375 17.1875 
L 47.609375 0 
L 37.796875 0 
L 37.796875 17.1875 
L 4.890625 17.1875 
L 4.890625 26.703125 
z
" id="DejaVuSans-52"/>
      </defs>
      <g transform="translate(615.0168 507.29515)scale(0.2592 -0.2592)">
       <use xlink:href="#DejaVuSans-52"/>
       <use x="63.623047" xlink:href="#DejaVuSans-48"/>
       <use x="127.246094" xlink:href="#DejaVuSans-48"/>
       <use x="190.869141" xlink:href="#DejaVuSans-48"/>
      </g>
     </g>
    </g>
    <g id="text_6">
     <!-- nHits3D -->
     <defs>
      <path d="M 54.890625 33.015625 
L 54.890625 0 
L 45.90625 0 
L 45.90625 32.71875 
Q 45.90625 40.484375 42.875 44.328125 
Q 39.84375 48.1875 33.796875 48.1875 
Q 26.515625 48.1875 22.3125 43.546875 
Q 18.109375 38.921875 18.109375 30.90625 
L 18.109375 0 
L 9.078125 0 
L 9.078125 54.6875 
L 18.109375 54.6875 
L 18.109375 46.1875 
Q 21.34375 51.125 25.703125 53.5625 
Q 30.078125 56 35.796875 56 
Q 45.21875 56 50.046875 50.171875 
Q 54.890625 44.34375 54.890625 33.015625 
z
" id="DejaVuSans-110"/>
      <path d="M 9.8125 72.90625 
L 19.671875 72.90625 
L 19.671875 43.015625 
L 55.515625 43.015625 
L 55.515625 72.90625 
L 65.375 72.90625 
L 65.375 0 
L 55.515625 0 
L 55.515625 34.71875 
L 19.671875 34.71875 
L 19.671875 0 
L 9.8125 0 
z
" id="DejaVuSans-72"/>
      <path d="M 9.421875 54.6875 
L 18.40625 54.6875 
L 18.40625 0 
L 9.421875 0 
z
M 9.421875 75.984375 
L 18.40625 75.984375 
L 18.40625 64.59375 
L 9.421875 64.59375 
z
" id="DejaVuSans-105"/>
      <path d="M 18.3125 70.21875 
L 18.3125 54.6875 
L 36.8125 54.6875 
L 36.8125 47.703125 
L 18.3125 47.703125 
L 18.3125 18.015625 
Q 18.3125 11.328125 20.140625 9.421875 
Q 21.96875 7.515625 27.59375 7.515625 
L 36.8125 7.515625 
L 36.8125 0 
L 27.59375 0 
Q 17.1875 0 13.234375 3.875 
Q 9.28125 7.765625 9.28125 18.015625 
L 9.28125 47.703125 
L 2.6875 47.703125 
L 2.6875 54.6875 
L 9.28125 54.6875 
L 9.28125 70.21875 
z
" id="DejaVuSans-116"/>
      <path d="M 44.28125 53.078125 
L 44.28125 44.578125 
Q 40.484375 46.53125 36.375 47.5 
Q 32.28125 48.484375 27.875 48.484375 
Q 21.1875 48.484375 17.84375 46.4375 
Q 14.5 44.390625 14.5 40.28125 
Q 14.5 37.15625 16.890625 35.375 
Q 19.28125 33.59375 26.515625 31.984375 
L 29.59375 31.296875 
Q 39.15625 29.25 43.1875 25.515625 
Q 47.21875 21.78125 47.21875 15.09375 
Q 47.21875 7.46875 41.1875 3.015625 
Q 35.15625 -1.421875 24.609375 -1.421875 
Q 20.21875 -1.421875 15.453125 -0.5625 
Q 10.6875 0.296875 5.421875 2 
L 5.421875 11.28125 
Q 10.40625 8.6875 15.234375 7.390625 
Q 20.0625 6.109375 24.8125 6.109375 
Q 31.15625 6.109375 34.5625 8.28125 
Q 37.984375 10.453125 37.984375 14.40625 
Q 37.984375 18.0625 35.515625 20.015625 
Q 33.0625 21.96875 24.703125 23.78125 
L 21.578125 24.515625 
Q 13.234375 26.265625 9.515625 29.90625 
Q 5.8125 33.546875 5.8125 39.890625 
Q 5.8125 47.609375 11.28125 51.796875 
Q 16.75 56 26.8125 56 
Q 31.78125 56 36.171875 55.265625 
Q 40.578125 54.546875 44.28125 53.078125 
z
" id="DejaVuSans-115"/>
      <path d="M 19.671875 64.796875 
L 19.671875 8.109375 
L 31.59375 8.109375 
Q 46.6875 8.109375 53.6875 14.9375 
Q 60.6875 21.78125 60.6875 36.53125 
Q 60.6875 51.171875 53.6875 57.984375 
Q 46.6875 64.796875 31.59375 64.796875 
z
M 9.8125 72.90625 
L 30.078125 72.90625 
Q 51.265625 72.90625 61.171875 64.09375 
Q 71.09375 55.28125 71.09375 36.53125 
Q 71.09375 17.671875 61.125 8.828125 
Q 51.171875 0 30.078125 0 
L 9.8125 0 
z
" id="DejaVuSans-68"/>
     </defs>
     <g transform="translate(317.38275 536.38085)scale(0.2592 -0.2592)">
      <use xlink:href="#DejaVuSans-110"/>
      <use x="63.378906" xlink:href="#DejaVuSans-72"/>
      <use x="138.574219" xlink:href="#DejaVuSans-105"/>
      <use x="166.357422" xlink:href="#DejaVuSans-116"/>
      <use x="205.566406" xlink:href="#DejaVuSans-115"/>
      <use x="257.666016" xlink:href="#DejaVuSans-51"/>
      <use x="321.289062" xlink:href="#DejaVuSans-68"/>
     </g>
    </g>
   </g>
   <g id="matplotlib.axis_2">
    <g id="ytick_1">
     <g id="line2d_6">
      <defs>
       <path d="M 0 0 
L -3.5 0 
" id="ma4cd0f3da6" style="stroke:#000000;stroke-width:0.8;"/>
      </defs>
      <g>
       <use style="stroke:#000000;stroke-width:0.8;" x="90" xlink:href="#ma4cd0f3da6" y="461.7"/>
      </g>
     </g>
     <g id="text_7">
      <!-- $\mathdefault{10^{0}}$ -->
      <g transform="translate(37.3808 471.547575)scale(0.2592 -0.2592)">
       <use transform="translate(0 0.765625)" xlink:href="#DejaVuSans-49"/>
       <use transform="translate(63.623047 0.765625)" xlink:href="#DejaVuSans-48"/>
       <use transform="translate(128.203125 39.046875)scale(0.7)" xlink:href="#DejaVuSans-48"/>
      </g>
     </g>
    </g>
    <g id="ytick_2">
     <g id="line2d_7">
      <g>
       <use style="stroke:#000000;stroke-width:0.8;" x="90" xlink:href="#ma4cd0f3da6" y="385.89728"/>
      </g>
     </g>
     <g id="text_8">
      <!-- $\mathdefault{10^{1}}$ -->
      <g transform="translate(37.3808 395.744855)scale(0.2592 -0.2592)">
       <use transform="translate(0 0.684375)" xlink:href="#DejaVuSans-49"/>
       <use transform="translate(63.623047 0.684375)" xlink:href="#DejaVuSans-48"/>
       <use transform="translate(128.203125 38.965625)scale(0.7)" xlink:href="#DejaVuSans-49"/>
      </g>
     </g>
    </g>
    <g id="ytick_3">
     <g id="line2d_8">
      <g>
       <use style="stroke:#000000;stroke-width:0.8;" x="90" xlink:href="#ma4cd0f3da6" y="310.09456"/>
      </g>
     </g>
     <g id="text_9">
      <!-- $\mathdefault{10^{2}}$ -->
      <g transform="translate(37.3808 319.942135)scale(0.2592 -0.2592)">
       <use transform="translate(0 0.765625)" xlink:href="#DejaVuSans-49"/>
       <use transform="translate(63.623047 0.765625)" xlink:href="#DejaVuSans-48"/>
       <use transform="translate(128.203125 39.046875)scale(0.7)" xlink:href="#DejaVuSans-50"/>
      </g>
     </g>
    </g>
    <g id="ytick_4">
     <g id="line2d_9">
      <g>
       <use style="stroke:#000000;stroke-width:0.8;" x="90" xlink:href="#ma4cd0f3da6" y="234.29184"/>
      </g>
     </g>
     <g id="text_10">
      <!-- $\mathdefault{10^{3}}$ -->
      <g transform="translate(37.3808 244.139415)scale(0.2592 -0.2592)">
       <use transform="translate(0 0.765625)" xlink:href="#DejaVuSans-49"/>
       <use transform="translate(63.623047 0.765625)" xlink:href="#DejaVuSans-48"/>
       <use transform="translate(128.203125 39.046875)scale(0.7)" xlink:href="#DejaVuSans-51"/>
      </g>
     </g>
    </g>
    <g id="ytick_5">
     <g id="line2d_10">
      <g>
       <use style="stroke:#000000;stroke-width:0.8;" x="90" xlink:href="#ma4cd0f3da6" y="158.489119"/>
      </g>
     </g>
     <g id="text_11">
      <!-- $\mathdefault{10^{4}}$ -->
      <g transform="translate(37.3808 168.336694)scale(0.2592 -0.2592)">
       <use transform="translate(0 0.684375)" xlink:href="#DejaVuSans-49"/>
       <use transform="translate(63.623047 0.684375)" xlink:href="#DejaVuSans-48"/>
       <use transform="translate(128.203125 38.965625)scale(0.7)" xlink:href="#DejaVuSans-52"/>
      </g>
     </g>
    </g>
    <g id="ytick_6">
     <g id="line2d_11">
      <g>
       <use style="stroke:#000000;stroke-width:0.8;" x="90" xlink:href="#ma4cd0f3da6" y="82.686399"/>
      </g>
     </g>
     <g id="text_12">
      <!-- $\mathdefault{10^{5}}$ -->
      <defs>
       <path d="M 10.796875 72.90625 
L 49.515625 72.90625 
L 49.515625 64.59375 
L 19.828125 64.59375 
L 19.828125 46.734375 
Q 21.96875 47.46875 24.109375 47.828125 
Q 26.265625 48.1875 28.421875 48.1875 
Q 40.625 48.1875 47.75 41.5 
Q 54.890625 34.8125 54.890625 23.390625 
Q 54.890625 11.625 47.5625 5.09375 
Q 40.234375 -1.421875 26.90625 -1.421875 
Q 22.3125 -1.421875 17.546875 -0.640625 
Q 12.796875 0.140625 7.71875 1.703125 
L 7.71875 11.625 
Q 12.109375 9.234375 16.796875 8.0625 
Q 21.484375 6.890625 26.703125 6.890625 
Q 35.15625 6.890625 40.078125 11.328125 
Q 45.015625 15.765625 45.015625 23.390625 
Q 45.015625 31 40.078125 35.4375 
Q 35.15625 39.890625 26.703125 39.890625 
Q 22.75 39.890625 18.8125 39.015625 
Q 14.890625 38.140625 10.796875 36.28125 
z
" id="DejaVuSans-53"/>
      </defs>
      <g transform="translate(37.3808 92.533974)scale(0.2592 -0.2592)">
       <use transform="translate(0 0.684375)" xlink:href="#DejaVuSans-49"/>
       <use transform="translate(63.623047 0.684375)" xlink:href="#DejaVuSans-48"/>
       <use transform="translate(128.203125 38.965625)scale(0.7)" xlink:href="#DejaVuSans-53"/>
      </g>
     </g>
    </g>
    <g id="ytick_7">
     <g id="line2d_12">
      <defs>
       <path d="M 0 0 
L -2 0 
" id="mb216306089" style="stroke:#000000;stroke-width:0.6;"/>
      </defs>
      <g>
       <use style="stroke:#000000;stroke-width:0.6;" x="90" xlink:href="#mb216306089" y="478.516739"/>
      </g>
     </g>
    </g>
    <g id="ytick_8">
     <g id="line2d_13">
      <g>
       <use style="stroke:#000000;stroke-width:0.6;" x="90" xlink:href="#mb216306089" y="473.44199"/>
      </g>
     </g>
    </g>
    <g id="ytick_9">
     <g id="line2d_14">
      <g>
       <use style="stroke:#000000;stroke-width:0.6;" x="90" xlink:href="#mb216306089" y="469.046043"/>
      </g>
     </g>
    </g>
    <g id="ytick_10">
     <g id="line2d_15">
      <g>
       <use style="stroke:#000000;stroke-width:0.6;" x="90" xlink:href="#mb216306089" y="465.168542"/>
      </g>
     </g>
    </g>
    <g id="ytick_11">
     <g id="line2d_16">
      <g>
       <use style="stroke:#000000;stroke-width:0.6;" x="90" xlink:href="#mb216306089" y="438.881107"/>
      </g>
     </g>
    </g>
    <g id="ytick_12">
     <g id="line2d_17">
      <g>
       <use style="stroke:#000000;stroke-width:0.6;" x="90" xlink:href="#mb216306089" y="425.532911"/>
      </g>
     </g>
    </g>
    <g id="ytick_13">
     <g id="line2d_18">
      <g>
       <use style="stroke:#000000;stroke-width:0.6;" x="90" xlink:href="#mb216306089" y="416.062215"/>
      </g>
     </g>
    </g>
    <g id="ytick_14">
     <g id="line2d_19">
      <g>
       <use style="stroke:#000000;stroke-width:0.6;" x="90" xlink:href="#mb216306089" y="408.716172"/>
      </g>
     </g>
    </g>
    <g id="ytick_15">
     <g id="line2d_20">
      <g>
       <use style="stroke:#000000;stroke-width:0.6;" x="90" xlink:href="#mb216306089" y="402.714019"/>
      </g>
     </g>
    </g>
    <g id="ytick_16">
     <g id="line2d_21">
      <g>
       <use style="stroke:#000000;stroke-width:0.6;" x="90" xlink:href="#mb216306089" y="397.63927"/>
      </g>
     </g>
    </g>
    <g id="ytick_17">
     <g id="line2d_22">
      <g>
       <use style="stroke:#000000;stroke-width:0.6;" x="90" xlink:href="#mb216306089" y="393.243322"/>
      </g>
     </g>
    </g>
    <g id="ytick_18">
     <g id="line2d_23">
      <g>
       <use style="stroke:#000000;stroke-width:0.6;" x="90" xlink:href="#mb216306089" y="389.365822"/>
      </g>
     </g>
    </g>
    <g id="ytick_19">
     <g id="line2d_24">
      <g>
       <use style="stroke:#000000;stroke-width:0.6;" x="90" xlink:href="#mb216306089" y="363.078387"/>
      </g>
     </g>
    </g>
    <g id="ytick_20">
     <g id="line2d_25">
      <g>
       <use style="stroke:#000000;stroke-width:0.6;" x="90" xlink:href="#mb216306089" y="349.730191"/>
      </g>
     </g>
    </g>
    <g id="ytick_21">
     <g id="line2d_26">
      <g>
       <use style="stroke:#000000;stroke-width:0.6;" x="90" xlink:href="#mb216306089" y="340.259495"/>
      </g>
     </g>
    </g>
    <g id="ytick_22">
     <g id="line2d_27">
      <g>
       <use style="stroke:#000000;stroke-width:0.6;" x="90" xlink:href="#mb216306089" y="332.913452"/>
      </g>
     </g>
    </g>
    <g id="ytick_23">
     <g id="line2d_28">
      <g>
       <use style="stroke:#000000;stroke-width:0.6;" x="90" xlink:href="#mb216306089" y="326.911298"/>
      </g>
     </g>
    </g>
    <g id="ytick_24">
     <g id="line2d_29">
      <g>
       <use style="stroke:#000000;stroke-width:0.6;" x="90" xlink:href="#mb216306089" y="321.83655"/>
      </g>
     </g>
    </g>
    <g id="ytick_25">
     <g id="line2d_30">
      <g>
       <use style="stroke:#000000;stroke-width:0.6;" x="90" xlink:href="#mb216306089" y="317.440602"/>
      </g>
     </g>
    </g>
    <g id="ytick_26">
     <g id="line2d_31">
      <g>
       <use style="stroke:#000000;stroke-width:0.6;" x="90" xlink:href="#mb216306089" y="313.563102"/>
      </g>
     </g>
    </g>
    <g id="ytick_27">
     <g id="line2d_32">
      <g>
       <use style="stroke:#000000;stroke-width:0.6;" x="90" xlink:href="#mb216306089" y="287.275667"/>
      </g>
     </g>
    </g>
    <g id="ytick_28">
     <g id="line2d_33">
      <g>
       <use style="stroke:#000000;stroke-width:0.6;" x="90" xlink:href="#mb216306089" y="273.927471"/>
      </g>
     </g>
    </g>
    <g id="ytick_29">
     <g id="line2d_34">
      <g>
       <use style="stroke:#000000;stroke-width:0.6;" x="90" xlink:href="#mb216306089" y="264.456775"/>
      </g>
     </g>
    </g>
    <g id="ytick_30">
     <g id="line2d_35">
      <g>
       <use style="stroke:#000000;stroke-width:0.6;" x="90" xlink:href="#mb216306089" y="257.110732"/>
      </g>
     </g>
    </g>
    <g id="ytick_31">
     <g id="line2d_36">
      <g>
       <use style="stroke:#000000;stroke-width:0.6;" x="90" xlink:href="#mb216306089" y="251.108578"/>
      </g>
     </g>
    </g>
    <g id="ytick_32">
     <g id="line2d_37">
      <g>
       <use style="stroke:#000000;stroke-width:0.6;" x="90" xlink:href="#mb216306089" y="246.033829"/>
      </g>
     </g>
    </g>
    <g id="ytick_33">
     <g id="line2d_38">
      <g>
       <use style="stroke:#000000;stroke-width:0.6;" x="90" xlink:href="#mb216306089" y="241.637882"/>
      </g>
     </g>
    </g>
    <g id="ytick_34">
     <g id="line2d_39">
      <g>
       <use style="stroke:#000000;stroke-width:0.6;" x="90" xlink:href="#mb216306089" y="237.760382"/>
      </g>
     </g>
    </g>
    <g id="ytick_35">
     <g id="line2d_40">
      <g>
       <use style="stroke:#000000;stroke-width:0.6;" x="90" xlink:href="#mb216306089" y="211.472947"/>
      </g>
     </g>
    </g>
    <g id="ytick_36">
     <g id="line2d_41">
      <g>
       <use style="stroke:#000000;stroke-width:0.6;" x="90" xlink:href="#mb216306089" y="198.124751"/>
      </g>
     </g>
    </g>
    <g id="ytick_37">
     <g id="line2d_42">
      <g>
       <use style="stroke:#000000;stroke-width:0.6;" x="90" xlink:href="#mb216306089" y="188.654055"/>
      </g>
     </g>
    </g>
    <g id="ytick_38">
     <g id="line2d_43">
      <g>
       <use style="stroke:#000000;stroke-width:0.6;" x="90" xlink:href="#mb216306089" y="181.308012"/>
      </g>
     </g>
    </g>
    <g id="ytick_39">
     <g id="line2d_44">
      <g>
       <use style="stroke:#000000;stroke-width:0.6;" x="90" xlink:href="#mb216306089" y="175.305858"/>
      </g>
     </g>
    </g>
    <g id="ytick_40">
     <g id="line2d_45">
      <g>
       <use style="stroke:#000000;stroke-width:0.6;" x="90" xlink:href="#mb216306089" y="170.231109"/>
      </g>
     </g>
    </g>
    <g id="ytick_41">
     <g id="line2d_46">
      <g>
       <use style="stroke:#000000;stroke-width:0.6;" x="90" xlink:href="#mb216306089" y="165.835162"/>
      </g>
     </g>
    </g>
    <g id="ytick_42">
     <g id="line2d_47">
      <g>
       <use style="stroke:#000000;stroke-width:0.6;" x="90" xlink:href="#mb216306089" y="161.957662"/>
      </g>
     </g>
    </g>
    <g id="ytick_43">
     <g id="line2d_48">
      <g>
       <use style="stroke:#000000;stroke-width:0.6;" x="90" xlink:href="#mb216306089" y="135.670227"/>
      </g>
     </g>
    </g>
    <g id="ytick_44">
     <g id="line2d_49">
      <g>
       <use style="stroke:#000000;stroke-width:0.6;" x="90" xlink:href="#mb216306089" y="122.32203"/>
      </g>
     </g>
    </g>
    <g id="ytick_45">
     <g id="line2d_50">
      <g>
       <use style="stroke:#000000;stroke-width:0.6;" x="90" xlink:href="#mb216306089" y="112.851334"/>
      </g>
     </g>
    </g>
    <g id="ytick_46">
     <g id="line2d_51">
      <g>
       <use style="stroke:#000000;stroke-width:0.6;" x="90" xlink:href="#mb216306089" y="105.505292"/>
      </g>
     </g>
    </g>
    <g id="ytick_47">
     <g id="line2d_52">
      <g>
       <use style="stroke:#000000;stroke-width:0.6;" x="90" xlink:href="#mb216306089" y="99.503138"/>
      </g>
     </g>
    </g>
    <g id="ytick_48">
     <g id="line2d_53">
      <g>
       <use style="stroke:#000000;stroke-width:0.6;" x="90" xlink:href="#mb216306089" y="94.428389"/>
      </g>
     </g>
    </g>
    <g id="ytick_49">
     <g id="line2d_54">
      <g>
       <use style="stroke:#000000;stroke-width:0.6;" x="90" xlink:href="#mb216306089" y="90.032442"/>
      </g>
     </g>
    </g>
    <g id="ytick_50">
     <g id="line2d_55">
      <g>
       <use style="stroke:#000000;stroke-width:0.6;" x="90" xlink:href="#mb216306089" y="86.154941"/>
      </g>
     </g>
    </g>
    <g id="text_13">
     <!-- Count -->
     <defs>
      <path d="M 64.40625 67.28125 
L 64.40625 56.890625 
Q 59.421875 61.53125 53.78125 63.8125 
Q 48.140625 66.109375 41.796875 66.109375 
Q 29.296875 66.109375 22.65625 58.46875 
Q 16.015625 50.828125 16.015625 36.375 
Q 16.015625 21.96875 22.65625 14.328125 
Q 29.296875 6.6875 41.796875 6.6875 
Q 48.140625 6.6875 53.78125 8.984375 
Q 59.421875 11.28125 64.40625 15.921875 
L 64.40625 5.609375 
Q 59.234375 2.09375 53.4375 0.328125 
Q 47.65625 -1.421875 41.21875 -1.421875 
Q 24.65625 -1.421875 15.125 8.703125 
Q 5.609375 18.84375 5.609375 36.375 
Q 5.609375 53.953125 15.125 64.078125 
Q 24.65625 74.21875 41.21875 74.21875 
Q 47.75 74.21875 53.53125 72.484375 
Q 59.328125 70.75 64.40625 67.28125 
z
" id="DejaVuSans-67"/>
      <path d="M 30.609375 48.390625 
Q 23.390625 48.390625 19.1875 42.75 
Q 14.984375 37.109375 14.984375 27.296875 
Q 14.984375 17.484375 19.15625 11.84375 
Q 23.34375 6.203125 30.609375 6.203125 
Q 37.796875 6.203125 41.984375 11.859375 
Q 46.1875 17.53125 46.1875 27.296875 
Q 46.1875 37.015625 41.984375 42.703125 
Q 37.796875 48.390625 30.609375 48.390625 
z
M 30.609375 56 
Q 42.328125 56 49.015625 48.375 
Q 55.71875 40.765625 55.71875 27.296875 
Q 55.71875 13.875 49.015625 6.21875 
Q 42.328125 -1.421875 30.609375 -1.421875 
Q 18.84375 -1.421875 12.171875 6.21875 
Q 5.515625 13.875 5.515625 27.296875 
Q 5.515625 40.765625 12.171875 48.375 
Q 18.84375 56 30.609375 56 
z
" id="DejaVuSans-111"/>
      <path d="M 8.5 21.578125 
L 8.5 54.6875 
L 17.484375 54.6875 
L 17.484375 21.921875 
Q 17.484375 14.15625 20.5 10.265625 
Q 23.53125 6.390625 29.59375 6.390625 
Q 36.859375 6.390625 41.078125 11.03125 
Q 45.3125 15.671875 45.3125 23.6875 
L 45.3125 54.6875 
L 54.296875 54.6875 
L 54.296875 0 
L 45.3125 0 
L 45.3125 8.40625 
Q 42.046875 3.421875 37.71875 1 
Q 33.40625 -1.421875 27.6875 -1.421875 
Q 18.265625 -1.421875 13.375 4.4375 
Q 8.5 10.296875 8.5 21.578125 
z
M 31.109375 56 
z
" id="DejaVuSans-117"/>
     </defs>
     <g transform="translate(27.99025 311.18715)rotate(-90)scale(0.2592 -0.2592)">
      <use xlink:href="#DejaVuSans-67"/>
      <use x="69.824219" xlink:href="#DejaVuSans-111"/>
      <use x="131.005859" xlink:href="#DejaVuSans-117"/>
      <use x="194.384766" xlink:href="#DejaVuSans-110"/>
      <use x="257.763672" xlink:href="#DejaVuSans-116"/>
     </g>
    </g>
   </g>
   <g id="line2d_56">
    <path clip-path="url(#p567331f5f3)" d="M 90 127.686472 
L 101.387755 127.686472 
L 101.387755 151.559179 
L 112.77551 151.559179 
L 112.77551 178.092613 
L 124.163265 178.092613 
L 124.163265 199.698053 
L 135.55102 199.698053 
L 135.55102 219.212263 
L 146.938776 219.212263 
L 146.938776 234.990537 
L 158.326531 234.990537 
L 158.326531 246.555263 
L 169.714286 246.555263 
L 169.714286 260.579274 
L 181.102041 260.579274 
L 181.102041 268.016891 
L 192.489796 268.016891 
L 192.489796 275.385866 
L 203.877551 275.385866 
L 203.877551 285.048297 
L 215.265306 285.048297 
L 215.265306 291.860272 
L 226.653061 291.860272 
L 226.653061 298.090252 
L 238.040816 298.090252 
L 238.040816 306.658955 
L 249.428571 306.658955 
L 249.428571 307.560948 
L 260.816327 307.560948 
L 260.816327 323.77362 
L 272.204082 323.77362 
L 272.204082 327.464601 
L 283.591837 327.464601 
L 283.591837 331.622279 
L 294.979592 331.622279 
L 294.979592 325.305092 
L 306.367347 325.305092 
L 306.367347 340.259495 
L 317.755102 340.259495 
L 317.755102 350.846254 
L 329.142857 350.846254 
L 329.142857 355.732345 
L 340.530612 355.732345 
L 340.530612 359.940709 
L 351.918367 359.940709 
L 351.918367 350.846254 
L 363.306122 350.846254 
L 363.306122 370.42443 
L 374.693878 370.42443 
L 374.693878 379.895126 
L 386.081633 379.895126 
L 386.081633 379.895126 
L 397.469388 379.895126 
L 397.469388 393.243322 
L 408.857143 393.243322 
L 408.857143 541 
M 420.244898 541 
L 420.244898 461.7 
L 431.632653 461.7 
L 431.632653 402.714019 
L 443.020408 402.714019 
L 443.020408 408.716172 
L 454.408163 408.716172 
L 454.408163 438.881107 
L 465.795918 438.881107 
L 465.795918 438.881107 
L 477.183673 438.881107 
L 477.183673 438.881107 
L 488.571429 438.881107 
L 488.571429 425.532911 
L 499.959184 425.532911 
L 499.959184 438.881107 
L 511.346939 438.881107 
L 511.346939 541 
M 522.734694 541 
L 522.734694 438.881107 
L 534.122449 438.881107 
L 534.122449 541 
M 556.897959 541 
L 556.897959 461.7 
L 568.285714 461.7 
L 568.285714 541 
" style="fill:none;stroke:#1f77b4;stroke-linecap:square;stroke-width:1.5;"/>
   </g>
   <g id="line2d_57">
    <path clip-path="url(#p567331f5f3)" d="M 90 83.7 
L 101.387755 83.7 
L 101.387755 114.448242 
L 112.77551 114.448242 
L 112.77551 132.375801 
L 124.163265 132.375801 
L 124.163265 145.132145 
L 135.55102 145.132145 
L 135.55102 155.071314 
L 146.938776 155.071314 
L 146.938776 164.053065 
L 158.326531 164.053065 
L 158.326531 170.174722 
L 169.714286 170.174722 
L 169.714286 177.949609 
L 181.102041 177.949609 
L 181.102041 184.463472 
L 192.489796 184.463472 
L 192.489796 189.30235 
L 203.877551 189.30235 
L 203.877551 195.499819 
L 215.265306 195.499819 
L 215.265306 198.32287 
L 226.653061 198.32287 
L 226.653061 203.256245 
L 238.040816 203.256245 
L 238.040816 209.122738 
L 249.428571 209.122738 
L 249.428571 212.255819 
L 260.816327 212.255819 
L 260.816327 216.285378 
L 272.204082 216.285378 
L 272.204082 219.885425 
L 283.591837 219.885425 
L 283.591837 223.545801 
L 294.979592 223.545801 
L 294.979592 228.372091 
L 306.367347 228.372091 
L 306.367347 233.127528 
L 317.755102 233.127528 
L 317.755102 236.363862 
L 329.142857 236.363862 
L 329.142857 239.68083 
L 340.530612 239.68083 
L 340.530612 242.938933 
L 351.918367 242.938933 
L 351.918367 245.706258 
L 363.306122 245.706258 
L 363.306122 252.79719 
L 374.693878 252.79719 
L 374.693878 256.458816 
L 386.081633 256.458816 
L 386.081633 259.288101 
L 397.469388 259.288101 
L 397.469388 262.850568 
L 408.857143 262.850568 
L 408.857143 265.715044 
L 420.244898 265.715044 
L 420.244898 272.321264 
L 431.632653 272.321264 
L 431.632653 275.27136 
L 443.020408 275.27136 
L 443.020408 276.672452 
L 454.408163 276.672452 
L 454.408163 283.252177 
L 465.795918 283.252177 
L 465.795918 285.357414 
L 477.183673 285.357414 
L 477.183673 289.312649 
L 488.571429 289.312649 
L 488.571429 294.010162 
L 499.959184 294.010162 
L 499.959184 296.310321 
L 511.346939 296.310321 
L 511.346939 295.45519 
L 522.734694 295.45519 
L 522.734694 309.442643 
L 534.122449 309.442643 
L 534.122449 310.09456 
L 545.510204 310.09456 
L 545.510204 317.440602 
L 556.897959 317.440602 
L 556.897959 314.679165 
L 568.285714 314.679165 
L 568.285714 316.627704 
L 579.673469 316.627704 
L 579.673469 325.831834 
L 591.061224 325.831834 
L 591.061224 326.911298 
L 602.44898 326.911298 
L 602.44898 326.367142 
L 613.836735 326.367142 
L 613.836735 334.257341 
L 625.22449 334.257341 
L 625.22449 337.878648 
L 636.612245 337.878648 
L 636.612245 352.001485 
L 648 352.001485 
" style="fill:none;stroke:#ff7f0e;stroke-linecap:square;stroke-width:1.5;"/>
   </g>
   <g id="line2d_58">
    <path clip-path="url(#p567331f5f3)" d="M 90 93.442054 
L 101.387755 93.442054 
L 101.387755 132.068953 
L 112.77551 132.068953 
L 112.77551 158.515466 
L 124.163265 158.515466 
L 124.163265 179.216296 
L 135.55102 179.216296 
L 135.55102 197.183631 
L 146.938776 197.183631 
L 146.938776 215.364853 
L 158.326531 215.364853 
L 158.326531 228.070943 
L 169.714286 228.070943 
L 169.714286 245.381913 
L 181.102041 245.381913 
L 181.102041 261.847046 
L 192.489796 261.847046 
L 192.489796 275.847919 
L 203.877551 275.847919 
L 203.877551 290.744209 
L 215.265306 290.744209 
L 215.265306 294.82811 
L 226.653061 294.82811 
L 226.653061 311.438448 
L 238.040816 311.438448 
L 238.040816 328.59991 
L 249.428571 328.59991 
L 249.428571 337.121817 
L 260.816327 337.121817 
L 260.816327 361.472181 
L 272.204082 361.472181 
L 272.204082 366.54693 
L 283.591837 366.54693 
L 283.591837 366.54693 
L 294.979592 366.54693 
L 294.979592 366.54693 
L 306.367347 366.54693 
L 306.367347 397.63927 
L 317.755102 397.63927 
L 317.755102 408.716172 
L 329.142857 408.716172 
L 329.142857 438.881107 
L 340.530612 438.881107 
L 340.530612 438.881107 
L 351.918367 438.881107 
L 351.918367 541 
M 374.693878 541 
L 374.693878 438.881107 
L 386.081633 438.881107 
L 386.081633 541 
M 397.469388 541 
L 397.469388 438.881107 
L 408.857143 438.881107 
L 408.857143 541 
M 420.244898 541 
L 420.244898 461.7 
L 431.632653 461.7 
L 431.632653 541 
" style="fill:none;stroke:#2ca02c;stroke-linecap:square;stroke-width:1.5;"/>
   </g>
   <g id="line2d_59">
    <path clip-path="url(#p567331f5f3)" d="M 90 153.312005 
L 101.387755 153.312005 
L 101.387755 162.94532 
L 112.77551 162.94532 
L 112.77551 166.195136 
L 124.163265 166.195136 
L 124.163265 169.267146 
L 135.55102 169.267146 
L 135.55102 172.843448 
L 146.938776 172.843448 
L 146.938776 176.965604 
L 158.326531 176.965604 
L 158.326531 180.694849 
L 169.714286 180.694849 
L 169.714286 185.801926 
L 181.102041 185.801926 
L 181.102041 190.169853 
L 192.489796 190.169853 
L 192.489796 193.657552 
L 203.877551 193.657552 
L 203.877551 198.969488 
L 215.265306 198.969488 
L 215.265306 201.703212 
L 226.653061 201.703212 
L 226.653061 205.608249 
L 238.040816 205.608249 
L 238.040816 211.08025 
L 249.428571 211.08025 
L 249.428571 213.703116 
L 260.816327 213.703116 
L 260.816327 217.488272 
L 272.204082 217.488272 
L 272.204082 220.83409 
L 283.591837 220.83409 
L 283.591837 224.583329 
L 294.979592 224.583329 
L 294.979592 229.235908 
L 306.367347 229.235908 
L 306.367347 233.899143 
L 317.755102 233.899143 
L 317.755102 237.001057 
L 329.142857 237.001057 
L 329.142857 240.110152 
L 340.530612 240.110152 
L 340.530612 243.326493 
L 351.918367 243.326493 
L 351.918367 246.222487 
L 363.306122 246.222487 
L 363.306122 253.262508 
L 374.693878 253.262508 
L 374.693878 257.110732 
L 386.081633 257.110732 
L 386.081633 259.999159 
L 397.469388 259.999159 
L 397.469388 263.40387 
L 408.857143 263.40387 
L 408.857143 266.145386 
L 420.244898 266.145386 
L 420.244898 272.741982 
L 431.632653 272.741982 
L 431.632653 275.385866 
L 443.020408 275.385866 
L 443.020408 277.032245 
L 454.408163 277.032245 
L 454.408163 283.988689 
L 465.795918 283.988689 
L 465.795918 285.984494 
L 477.183673 285.984494 
L 477.183673 289.842216 
L 488.571429 289.842216 
L 488.571429 295.035812 
L 499.959184 295.035812 
L 499.959184 296.52762 
L 511.346939 296.52762 
L 511.346939 295.45519 
L 522.734694 295.45519 
L 522.734694 309.766988 
L 534.122449 309.766988 
L 534.122449 311.097298 
L 545.510204 311.097298 
L 545.510204 318.698871 
L 556.897959 318.698871 
L 556.897959 314.679165 
L 568.285714 314.679165 
L 568.285714 317.440602 
L 579.673469 317.440602 
L 579.673469 326.367142 
L 591.061224 326.367142 
L 591.061224 326.911298 
L 602.44898 326.911298 
L 602.44898 326.367142 
L 613.836735 326.367142 
L 613.836735 336.381994 
L 625.22449 336.381994 
L 625.22449 338.653288 
L 636.612245 338.653288 
L 636.612245 352.001485 
L 648 352.001485 
" style="fill:none;stroke:#d62728;stroke-linecap:square;stroke-width:1.5;"/>
   </g>
   <g id="line2d_60">
    <path clip-path="url(#p567331f5f3)" d="M 90 153.765193 
L 101.387755 153.765193 
L 101.387755 209.710347 
L 112.77551 209.710347 
L 112.77551 280.061571 
L 124.163265 280.061571 
L 124.163265 309.766988 
L 135.55102 309.766988 
L 135.55102 331.622279 
L 146.938776 331.622279 
L 146.938776 335.658433 
L 158.326531 335.658433 
L 158.326531 337.878648 
L 169.714286 337.878648 
L 169.714286 357.076233 
L 181.102041 357.076233 
L 181.102041 345.609732 
L 192.489796 345.609732 
L 192.489796 341.092975 
L 203.877551 341.092975 
L 203.877551 346.592513 
L 215.265306 346.592513 
L 215.265306 354.441171 
L 226.653061 354.441171 
L 226.653061 363.078387 
L 238.040816 363.078387 
L 238.040816 355.732345 
L 249.428571 355.732345 
L 249.428571 354.441171 
L 260.816327 354.441171 
L 260.816327 368.428625 
L 272.204082 368.428625 
L 272.204082 372.549083 
L 283.591837 372.549083 
L 283.591837 389.365822 
L 294.979592 389.365822 
L 294.979592 368.428625 
L 306.367347 368.428625 
L 306.367347 389.365822 
L 317.755102 389.365822 
L 317.755102 393.243322 
L 329.142857 393.243322 
L 329.142857 402.714019 
L 340.530612 402.714019 
L 340.530612 408.716172 
L 351.918367 408.716172 
L 351.918367 408.716172 
L 363.306122 408.716172 
L 363.306122 438.881107 
L 374.693878 438.881107 
L 374.693878 416.062215 
L 386.081633 416.062215 
L 386.081633 425.532911 
L 397.469388 425.532911 
L 397.469388 416.062215 
L 408.857143 416.062215 
L 408.857143 541 
M 420.244898 541 
L 420.244898 461.7 
L 431.632653 461.7 
L 431.632653 461.7 
L 443.020408 461.7 
L 443.020408 461.7 
L 454.408163 461.7 
L 454.408163 541 
M 522.734694 541 
L 522.734694 461.7 
L 534.122449 461.7 
L 534.122449 541 
" style="fill:none;stroke:#9467bd;stroke-linecap:square;stroke-width:1.5;"/>
   </g>
   <g id="line2d_61">
    <path clip-path="url(#p567331f5f3)" d="M 90 147.539442 
L 101.387755 147.539442 
L 101.387755 157.730867 
L 112.77551 157.730867 
L 112.77551 179.614134 
L 124.163265 179.614134 
L 124.163265 200.881662 
L 135.55102 200.881662 
L 135.55102 220.313251 
L 146.938776 220.313251 
L 146.938776 236.574893 
L 158.326531 236.574893 
L 158.326531 248.676731 
L 169.714286 248.676731 
L 169.714286 262.3836 
L 181.102041 262.3836 
L 181.102041 271.292409 
L 192.489796 271.292409 
L 192.489796 280.194049 
L 203.877551 280.194049 
L 203.877551 290.561823 
L 215.265306 290.561823 
L 215.265306 297.188259 
L 226.653061 297.188259 
L 226.653061 303.012942 
L 238.040816 303.012942 
L 238.040816 315.059755 
L 249.428571 315.059755 
L 249.428571 316.627704 
L 260.816327 316.627704 
L 260.816327 333.57854 
L 272.204082 333.57854 
L 272.204082 337.121817 
L 283.591837 337.121817 
L 283.591837 337.878648 
L 294.979592 337.878648 
L 294.979592 335.658433 
L 306.367347 335.658433 
L 306.367347 348.650727 
L 317.755102 348.650727 
L 317.755102 361.472181 
L 329.142857 361.472181 
L 329.142857 364.766999 
L 340.530612 364.766999 
L 340.530612 368.428625 
L 351.918367 368.428625 
L 351.918367 357.076233 
L 363.306122 357.076233 
L 363.306122 374.820377 
L 374.693878 374.820377 
L 374.693878 393.243322 
L 386.081633 393.243322 
L 386.081633 389.365822 
L 397.469388 389.365822 
L 397.469388 416.062215 
L 408.857143 416.062215 
L 408.857143 541 
M 431.632653 541 
L 431.632653 408.716172 
L 443.020408 408.716172 
L 443.020408 416.062215 
L 454.408163 416.062215 
L 454.408163 438.881107 
L 465.795918 438.881107 
L 465.795918 438.881107 
L 477.183673 438.881107 
L 477.183673 438.881107 
L 488.571429 438.881107 
L 488.571429 425.532911 
L 499.959184 425.532911 
L 499.959184 438.881107 
L 511.346939 438.881107 
L 511.346939 541 
M 522.734694 541 
L 522.734694 461.7 
L 534.122449 461.7 
L 534.122449 541 
M 556.897959 541 
L 556.897959 461.7 
L 568.285714 461.7 
L 568.285714 541 
" style="fill:none;stroke:#8c564b;stroke-linecap:square;stroke-width:1.5;"/>
   </g>
   <g id="line2d_62">
    <path clip-path="url(#p567331f5f3)" d="M 90 155.071314 
L 101.387755 155.071314 
L 101.387755 170.738211 
L 112.77551 170.738211 
L 112.77551 187.921549 
L 124.163265 187.921549 
L 124.163265 206.262094 
L 135.55102 206.262094 
L 135.55102 221.878574 
L 146.938776 221.878574 
L 146.938776 237.360457 
L 158.326531 237.360457 
L 158.326531 248.171027 
L 169.714286 248.171027 
L 169.714286 264.456775 
L 181.102041 264.456775 
L 181.102041 280.327062 
L 192.489796 280.327062 
L 192.489796 292.050018 
L 203.877551 292.050018 
L 203.877551 304.645708 
L 215.265306 304.645708 
L 215.265306 308.803386 
L 226.653061 308.803386 
L 226.653061 332.261536 
L 238.040816 332.261536 
L 238.040816 336.381994 
L 249.428571 336.381994 
L 249.428571 357.076233 
L 260.816327 357.076233 
L 260.816327 357.076233 
L 272.204082 357.076233 
L 272.204082 374.820377 
L 283.591837 374.820377 
L 283.591837 389.365822 
L 294.979592 389.365822 
L 294.979592 408.716172 
L 306.367347 408.716172 
L 306.367347 393.243322 
L 317.755102 393.243322 
L 317.755102 408.716172 
L 329.142857 408.716172 
L 329.142857 416.062215 
L 340.530612 416.062215 
L 340.530612 461.7 
L 351.918367 461.7 
L 351.918367 408.716172 
L 363.306122 408.716172 
L 363.306122 541 
M 374.693878 541 
L 374.693878 425.532911 
L 386.081633 425.532911 
L 386.081633 541 
M 397.469388 541 
L 397.469388 461.7 
L 408.857143 461.7 
L 408.857143 541 
" style="fill:none;stroke:#e377c2;stroke-linecap:square;stroke-width:1.5;"/>
   </g>
   <g id="line2d_63">
    <path clip-path="url(#p567331f5f3)" d="M 92.79 480.6 
L 92.79 64.8 
" style="fill:none;stroke:#000000;stroke-linecap:square;stroke-width:1.5;"/>
   </g>
   <g id="patch_5">
    <path d="M 90 480.6 
L 90 64.8 
" style="fill:none;stroke:#000000;stroke-linecap:square;stroke-linejoin:miter;stroke-width:0.8;"/>
   </g>
   <g id="patch_6">
    <path d="M 648 480.6 
L 648 64.8 
" style="fill:none;stroke:#000000;stroke-linecap:square;stroke-linejoin:miter;stroke-width:0.8;"/>
   </g>
   <g id="patch_7">
    <path d="M 90 480.6 
L 648 480.6 
" style="fill:none;stroke:#000000;stroke-linecap:square;stroke-linejoin:miter;stroke-width:0.8;"/>
   </g>
   <g id="patch_8">
    <path d="M 90 64.8 
L 648 64.8 
" style="fill:none;stroke:#000000;stroke-linecap:square;stroke-linejoin:miter;stroke-width:0.8;"/>
   </g>
   <g id="patch_9">
    <path d="M 138.555031 93.906 
Q 117.79106 93.906 94.791022 93.906 
" style="fill:none;stroke:#000000;stroke-linecap:round;stroke-width:2;"/>
    <path d="M 132.555031 90.906 
L 138.555031 93.906 
L 132.555031 96.906 
L 132.555031 90.906 
z
" style="fill:#1f77b4;stroke:#000000;stroke-linecap:round;stroke-width:2;"/>
   </g>
   <g id="legend_1">
    <g id="patch_10">
     <path d="M 385.194375 264.144375 
L 635.4 264.144375 
Q 639 264.144375 639 260.544375 
L 639 77.4 
Q 639 73.8 635.4 73.8 
L 385.194375 73.8 
Q 381.594375 73.8 381.594375 77.4 
L 381.594375 260.544375 
Q 381.594375 264.144375 385.194375 264.144375 
z
" style="fill:#ffffff;opacity:0.5;stroke:#cccccc;stroke-linejoin:miter;"/>
    </g>
    <g id="line2d_64">
     <path d="M 388.794375 88.377188 
L 424.794375 88.377188 
" style="fill:none;stroke:#1f77b4;stroke-linecap:square;stroke-width:1.5;"/>
    </g>
    <g id="line2d_65"/>
    <g id="text_14">
     <!-- Showers -->
     <defs>
      <path d="M 53.515625 70.515625 
L 53.515625 60.890625 
Q 47.90625 63.578125 42.921875 64.890625 
Q 37.9375 66.21875 33.296875 66.21875 
Q 25.25 66.21875 20.875 63.09375 
Q 16.5 59.96875 16.5 54.203125 
Q 16.5 49.359375 19.40625 46.890625 
Q 22.3125 44.4375 30.421875 42.921875 
L 36.375 41.703125 
Q 47.40625 39.59375 52.65625 34.296875 
Q 57.90625 29 57.90625 20.125 
Q 57.90625 9.515625 50.796875 4.046875 
Q 43.703125 -1.421875 29.984375 -1.421875 
Q 24.8125 -1.421875 18.96875 -0.25 
Q 13.140625 0.921875 6.890625 3.21875 
L 6.890625 13.375 
Q 12.890625 10.015625 18.65625 8.296875 
Q 24.421875 6.59375 29.984375 6.59375 
Q 38.421875 6.59375 43.015625 9.90625 
Q 47.609375 13.234375 47.609375 19.390625 
Q 47.609375 24.75 44.3125 27.78125 
Q 41.015625 30.8125 33.5 32.328125 
L 27.484375 33.5 
Q 16.453125 35.6875 11.515625 40.375 
Q 6.59375 45.0625 6.59375 53.421875 
Q 6.59375 63.09375 13.40625 68.65625 
Q 20.21875 74.21875 32.171875 74.21875 
Q 37.3125 74.21875 42.625 73.28125 
Q 47.953125 72.359375 53.515625 70.515625 
z
" id="DejaVuSans-83"/>
      <path d="M 54.890625 33.015625 
L 54.890625 0 
L 45.90625 0 
L 45.90625 32.71875 
Q 45.90625 40.484375 42.875 44.328125 
Q 39.84375 48.1875 33.796875 48.1875 
Q 26.515625 48.1875 22.3125 43.546875 
Q 18.109375 38.921875 18.109375 30.90625 
L 18.109375 0 
L 9.078125 0 
L 9.078125 75.984375 
L 18.109375 75.984375 
L 18.109375 46.1875 
Q 21.34375 51.125 25.703125 53.5625 
Q 30.078125 56 35.796875 56 
Q 45.21875 56 50.046875 50.171875 
Q 54.890625 44.34375 54.890625 33.015625 
z
" id="DejaVuSans-104"/>
      <path d="M 4.203125 54.6875 
L 13.1875 54.6875 
L 24.421875 12.015625 
L 35.59375 54.6875 
L 46.1875 54.6875 
L 57.421875 12.015625 
L 68.609375 54.6875 
L 77.59375 54.6875 
L 63.28125 0 
L 52.6875 0 
L 40.921875 44.828125 
L 29.109375 0 
L 18.5 0 
z
" id="DejaVuSans-119"/>
      <path d="M 56.203125 29.59375 
L 56.203125 25.203125 
L 14.890625 25.203125 
Q 15.484375 15.921875 20.484375 11.0625 
Q 25.484375 6.203125 34.421875 6.203125 
Q 39.59375 6.203125 44.453125 7.46875 
Q 49.3125 8.734375 54.109375 11.28125 
L 54.109375 2.78125 
Q 49.265625 0.734375 44.1875 -0.34375 
Q 39.109375 -1.421875 33.890625 -1.421875 
Q 20.796875 -1.421875 13.15625 6.1875 
Q 5.515625 13.8125 5.515625 26.8125 
Q 5.515625 40.234375 12.765625 48.109375 
Q 20.015625 56 32.328125 56 
Q 43.359375 56 49.78125 48.890625 
Q 56.203125 41.796875 56.203125 29.59375 
z
M 47.21875 32.234375 
Q 47.125 39.59375 43.09375 43.984375 
Q 39.0625 48.390625 32.421875 48.390625 
Q 24.90625 48.390625 20.390625 44.140625 
Q 15.875 39.890625 15.1875 32.171875 
z
" id="DejaVuSans-101"/>
      <path d="M 41.109375 46.296875 
Q 39.59375 47.171875 37.8125 47.578125 
Q 36.03125 48 33.890625 48 
Q 26.265625 48 22.1875 43.046875 
Q 18.109375 38.09375 18.109375 28.8125 
L 18.109375 0 
L 9.078125 0 
L 9.078125 54.6875 
L 18.109375 54.6875 
L 18.109375 46.1875 
Q 20.953125 51.171875 25.484375 53.578125 
Q 30.03125 56 36.53125 56 
Q 37.453125 56 38.578125 55.875 
Q 39.703125 55.765625 41.0625 55.515625 
z
" id="DejaVuSans-114"/>
     </defs>
     <g transform="translate(439.194375 94.677188)scale(0.18 -0.18)">
      <use xlink:href="#DejaVuSans-83"/>
      <use x="63.476562" xlink:href="#DejaVuSans-104"/>
      <use x="126.855469" xlink:href="#DejaVuSans-111"/>
      <use x="188.037109" xlink:href="#DejaVuSans-119"/>
      <use x="269.824219" xlink:href="#DejaVuSans-101"/>
      <use x="331.347656" xlink:href="#DejaVuSans-114"/>
      <use x="372.460938" xlink:href="#DejaVuSans-115"/>
     </g>
    </g>
    <g id="line2d_66">
     <path d="M 388.794375 114.797813 
L 424.794375 114.797813 
" style="fill:none;stroke:#ff7f0e;stroke-linecap:square;stroke-width:1.5;"/>
    </g>
    <g id="line2d_67"/>
    <g id="text_15">
     <!-- Tracks -->
     <defs>
      <path d="M -0.296875 72.90625 
L 61.375 72.90625 
L 61.375 64.59375 
L 35.5 64.59375 
L 35.5 0 
L 25.59375 0 
L 25.59375 64.59375 
L -0.296875 64.59375 
z
" id="DejaVuSans-84"/>
      <path d="M 34.28125 27.484375 
Q 23.390625 27.484375 19.1875 25 
Q 14.984375 22.515625 14.984375 16.5 
Q 14.984375 11.71875 18.140625 8.90625 
Q 21.296875 6.109375 26.703125 6.109375 
Q 34.1875 6.109375 38.703125 11.40625 
Q 43.21875 16.703125 43.21875 25.484375 
L 43.21875 27.484375 
z
M 52.203125 31.203125 
L 52.203125 0 
L 43.21875 0 
L 43.21875 8.296875 
Q 40.140625 3.328125 35.546875 0.953125 
Q 30.953125 -1.421875 24.3125 -1.421875 
Q 15.921875 -1.421875 10.953125 3.296875 
Q 6 8.015625 6 15.921875 
Q 6 25.140625 12.171875 29.828125 
Q 18.359375 34.515625 30.609375 34.515625 
L 43.21875 34.515625 
L 43.21875 35.40625 
Q 43.21875 41.609375 39.140625 45 
Q 35.0625 48.390625 27.6875 48.390625 
Q 23 48.390625 18.546875 47.265625 
Q 14.109375 46.140625 10.015625 43.890625 
L 10.015625 52.203125 
Q 14.9375 54.109375 19.578125 55.046875 
Q 24.21875 56 28.609375 56 
Q 40.484375 56 46.34375 49.84375 
Q 52.203125 43.703125 52.203125 31.203125 
z
" id="DejaVuSans-97"/>
      <path d="M 48.78125 52.59375 
L 48.78125 44.1875 
Q 44.96875 46.296875 41.140625 47.34375 
Q 37.3125 48.390625 33.40625 48.390625 
Q 24.65625 48.390625 19.8125 42.84375 
Q 14.984375 37.3125 14.984375 27.296875 
Q 14.984375 17.28125 19.8125 11.734375 
Q 24.65625 6.203125 33.40625 6.203125 
Q 37.3125 6.203125 41.140625 7.25 
Q 44.96875 8.296875 48.78125 10.40625 
L 48.78125 2.09375 
Q 45.015625 0.34375 40.984375 -0.53125 
Q 36.96875 -1.421875 32.421875 -1.421875 
Q 20.0625 -1.421875 12.78125 6.34375 
Q 5.515625 14.109375 5.515625 27.296875 
Q 5.515625 40.671875 12.859375 48.328125 
Q 20.21875 56 33.015625 56 
Q 37.15625 56 41.109375 55.140625 
Q 45.0625 54.296875 48.78125 52.59375 
z
" id="DejaVuSans-99"/>
      <path d="M 9.078125 75.984375 
L 18.109375 75.984375 
L 18.109375 31.109375 
L 44.921875 54.6875 
L 56.390625 54.6875 
L 27.390625 29.109375 
L 57.625 0 
L 45.90625 0 
L 18.109375 26.703125 
L 18.109375 0 
L 9.078125 0 
z
" id="DejaVuSans-107"/>
     </defs>
     <g transform="translate(439.194375 121.097813)scale(0.18 -0.18)">
      <use xlink:href="#DejaVuSans-84"/>
      <use x="60.865234" xlink:href="#DejaVuSans-114"/>
      <use x="101.978516" xlink:href="#DejaVuSans-97"/>
      <use x="163.257812" xlink:href="#DejaVuSans-99"/>
      <use x="218.238281" xlink:href="#DejaVuSans-107"/>
      <use x="276.148438" xlink:href="#DejaVuSans-115"/>
     </g>
    </g>
    <g id="line2d_68">
     <path d="M 388.794375 141.218437 
L 424.794375 141.218437 
" style="fill:none;stroke:#2ca02c;stroke-linecap:square;stroke-width:1.5;"/>
    </g>
    <g id="line2d_69"/>
    <g id="text_16">
     <!-- Protons -->
     <defs>
      <path d="M 19.671875 64.796875 
L 19.671875 37.40625 
L 32.078125 37.40625 
Q 38.96875 37.40625 42.71875 40.96875 
Q 46.484375 44.53125 46.484375 51.125 
Q 46.484375 57.671875 42.71875 61.234375 
Q 38.96875 64.796875 32.078125 64.796875 
z
M 9.8125 72.90625 
L 32.078125 72.90625 
Q 44.34375 72.90625 50.609375 67.359375 
Q 56.890625 61.8125 56.890625 51.125 
Q 56.890625 40.328125 50.609375 34.8125 
Q 44.34375 29.296875 32.078125 29.296875 
L 19.671875 29.296875 
L 19.671875 0 
L 9.8125 0 
z
" id="DejaVuSans-80"/>
     </defs>
     <g transform="translate(439.194375 147.518438)scale(0.18 -0.18)">
      <use xlink:href="#DejaVuSans-80"/>
      <use x="60.287109" xlink:href="#DejaVuSans-114"/>
      <use x="101.369141" xlink:href="#DejaVuSans-111"/>
      <use x="162.550781" xlink:href="#DejaVuSans-116"/>
      <use x="201.759766" xlink:href="#DejaVuSans-111"/>
      <use x="262.941406" xlink:href="#DejaVuSans-110"/>
      <use x="326.320312" xlink:href="#DejaVuSans-115"/>
     </g>
    </g>
    <g id="line2d_70">
     <path d="M 388.794375 167.639062 
L 424.794375 167.639062 
" style="fill:none;stroke:#d62728;stroke-linecap:square;stroke-width:1.5;"/>
    </g>
    <g id="line2d_71"/>
    <g id="text_17">
     <!-- Muons -->
     <defs>
      <path d="M 9.8125 72.90625 
L 24.515625 72.90625 
L 43.109375 23.296875 
L 61.8125 72.90625 
L 76.515625 72.90625 
L 76.515625 0 
L 66.890625 0 
L 66.890625 64.015625 
L 48.09375 14.015625 
L 38.1875 14.015625 
L 19.390625 64.015625 
L 19.390625 0 
L 9.8125 0 
z
" id="DejaVuSans-77"/>
     </defs>
     <g transform="translate(439.194375 173.939062)scale(0.18 -0.18)">
      <use xlink:href="#DejaVuSans-77"/>
      <use x="86.279297" xlink:href="#DejaVuSans-117"/>
      <use x="149.658203" xlink:href="#DejaVuSans-111"/>
      <use x="210.839844" xlink:href="#DejaVuSans-110"/>
      <use x="274.21875" xlink:href="#DejaVuSans-115"/>
     </g>
    </g>
    <g id="line2d_72">
     <path d="M 388.794375 194.059687 
L 424.794375 194.059687 
" style="fill:none;stroke:#9467bd;stroke-linecap:square;stroke-width:1.5;"/>
    </g>
    <g id="line2d_73"/>
    <g id="text_18">
     <!-- Electrons + Positrons -->
     <defs>
      <path d="M 9.8125 72.90625 
L 55.90625 72.90625 
L 55.90625 64.59375 
L 19.671875 64.59375 
L 19.671875 43.015625 
L 54.390625 43.015625 
L 54.390625 34.71875 
L 19.671875 34.71875 
L 19.671875 8.296875 
L 56.78125 8.296875 
L 56.78125 0 
L 9.8125 0 
z
" id="DejaVuSans-69"/>
      <path d="M 9.421875 75.984375 
L 18.40625 75.984375 
L 18.40625 0 
L 9.421875 0 
z
" id="DejaVuSans-108"/>
      <path id="DejaVuSans-32"/>
      <path d="M 46 62.703125 
L 46 35.5 
L 73.1875 35.5 
L 73.1875 27.203125 
L 46 27.203125 
L 46 0 
L 37.796875 0 
L 37.796875 27.203125 
L 10.59375 27.203125 
L 10.59375 35.5 
L 37.796875 35.5 
L 37.796875 62.703125 
z
" id="DejaVuSans-43"/>
     </defs>
     <g transform="translate(439.194375 200.359688)scale(0.18 -0.18)">
      <use xlink:href="#DejaVuSans-69"/>
      <use x="63.183594" xlink:href="#DejaVuSans-108"/>
      <use x="90.966797" xlink:href="#DejaVuSans-101"/>
      <use x="152.490234" xlink:href="#DejaVuSans-99"/>
      <use x="207.470703" xlink:href="#DejaVuSans-116"/>
      <use x="246.679688" xlink:href="#DejaVuSans-114"/>
      <use x="287.761719" xlink:href="#DejaVuSans-111"/>
      <use x="348.943359" xlink:href="#DejaVuSans-110"/>
      <use x="412.322266" xlink:href="#DejaVuSans-115"/>
      <use x="464.421875" xlink:href="#DejaVuSans-32"/>
      <use x="496.208984" xlink:href="#DejaVuSans-43"/>
      <use x="579.998047" xlink:href="#DejaVuSans-32"/>
      <use x="611.785156" xlink:href="#DejaVuSans-80"/>
      <use x="672.041016" xlink:href="#DejaVuSans-111"/>
      <use x="733.222656" xlink:href="#DejaVuSans-115"/>
      <use x="785.322266" xlink:href="#DejaVuSans-105"/>
      <use x="813.105469" xlink:href="#DejaVuSans-116"/>
      <use x="852.314453" xlink:href="#DejaVuSans-114"/>
      <use x="893.396484" xlink:href="#DejaVuSans-111"/>
      <use x="954.578125" xlink:href="#DejaVuSans-110"/>
      <use x="1017.957031" xlink:href="#DejaVuSans-115"/>
     </g>
    </g>
    <g id="line2d_74">
     <path d="M 388.794375 220.480312 
L 424.794375 220.480312 
" style="fill:none;stroke:#8c564b;stroke-linecap:square;stroke-width:1.5;"/>
    </g>
    <g id="line2d_75"/>
    <g id="text_19">
     <!-- Photons -->
     <g transform="translate(439.194375 226.780312)scale(0.18 -0.18)">
      <use xlink:href="#DejaVuSans-80"/>
      <use x="60.302734" xlink:href="#DejaVuSans-104"/>
      <use x="123.681641" xlink:href="#DejaVuSans-111"/>
      <use x="184.863281" xlink:href="#DejaVuSans-116"/>
      <use x="224.072266" xlink:href="#DejaVuSans-111"/>
      <use x="285.253906" xlink:href="#DejaVuSans-110"/>
      <use x="348.632812" xlink:href="#DejaVuSans-115"/>
     </g>
    </g>
    <g id="line2d_76">
     <path d="M 388.794375 246.900937 
L 424.794375 246.900937 
" style="fill:none;stroke:#e377c2;stroke-linecap:square;stroke-width:1.5;"/>
    </g>
    <g id="line2d_77"/>
    <g id="text_20">
     <!-- Charged Pions -->
     <defs>
      <path d="M 45.40625 27.984375 
Q 45.40625 37.75 41.375 43.109375 
Q 37.359375 48.484375 30.078125 48.484375 
Q 22.859375 48.484375 18.828125 43.109375 
Q 14.796875 37.75 14.796875 27.984375 
Q 14.796875 18.265625 18.828125 12.890625 
Q 22.859375 7.515625 30.078125 7.515625 
Q 37.359375 7.515625 41.375 12.890625 
Q 45.40625 18.265625 45.40625 27.984375 
z
M 54.390625 6.78125 
Q 54.390625 -7.171875 48.1875 -13.984375 
Q 42 -20.796875 29.203125 -20.796875 
Q 24.46875 -20.796875 20.265625 -20.09375 
Q 16.0625 -19.390625 12.109375 -17.921875 
L 12.109375 -9.1875 
Q 16.0625 -11.328125 19.921875 -12.34375 
Q 23.78125 -13.375 27.78125 -13.375 
Q 36.625 -13.375 41.015625 -8.765625 
Q 45.40625 -4.15625 45.40625 5.171875 
L 45.40625 9.625 
Q 42.625 4.78125 38.28125 2.390625 
Q 33.9375 0 27.875 0 
Q 17.828125 0 11.671875 7.65625 
Q 5.515625 15.328125 5.515625 27.984375 
Q 5.515625 40.671875 11.671875 48.328125 
Q 17.828125 56 27.875 56 
Q 33.9375 56 38.28125 53.609375 
Q 42.625 51.21875 45.40625 46.390625 
L 45.40625 54.6875 
L 54.390625 54.6875 
z
" id="DejaVuSans-103"/>
      <path d="M 45.40625 46.390625 
L 45.40625 75.984375 
L 54.390625 75.984375 
L 54.390625 0 
L 45.40625 0 
L 45.40625 8.203125 
Q 42.578125 3.328125 38.25 0.953125 
Q 33.9375 -1.421875 27.875 -1.421875 
Q 17.96875 -1.421875 11.734375 6.484375 
Q 5.515625 14.40625 5.515625 27.296875 
Q 5.515625 40.1875 11.734375 48.09375 
Q 17.96875 56 27.875 56 
Q 33.9375 56 38.25 53.625 
Q 42.578125 51.265625 45.40625 46.390625 
z
M 14.796875 27.296875 
Q 14.796875 17.390625 18.875 11.75 
Q 22.953125 6.109375 30.078125 6.109375 
Q 37.203125 6.109375 41.296875 11.75 
Q 45.40625 17.390625 45.40625 27.296875 
Q 45.40625 37.203125 41.296875 42.84375 
Q 37.203125 48.484375 30.078125 48.484375 
Q 22.953125 48.484375 18.875 42.84375 
Q 14.796875 37.203125 14.796875 27.296875 
z
" id="DejaVuSans-100"/>
     </defs>
     <g transform="translate(439.194375 253.200938)scale(0.18 -0.18)">
      <use xlink:href="#DejaVuSans-67"/>
      <use x="69.824219" xlink:href="#DejaVuSans-104"/>
      <use x="133.203125" xlink:href="#DejaVuSans-97"/>
      <use x="194.482422" xlink:href="#DejaVuSans-114"/>
      <use x="235.580078" xlink:href="#DejaVuSans-103"/>
      <use x="299.056641" xlink:href="#DejaVuSans-101"/>
      <use x="360.580078" xlink:href="#DejaVuSans-100"/>
      <use x="424.056641" xlink:href="#DejaVuSans-32"/>
      <use x="455.84375" xlink:href="#DejaVuSans-80"/>
      <use x="516.115234" xlink:href="#DejaVuSans-105"/>
      <use x="543.898438" xlink:href="#DejaVuSans-111"/>
      <use x="605.080078" xlink:href="#DejaVuSans-110"/>
      <use x="668.458984" xlink:href="#DejaVuSans-115"/>
     </g>
    </g>
   </g>
  </g>
 </g>
 <defs>
  <clipPath id="p567331f5f3">
   <rect height="415.8" width="558" x="90" y="64.8"/>
  </clipPath>
 </defs>
</svg>
