<?xml version="1.0" encoding="utf-8" standalone="no"?>
<!DOCTYPE svg PUBLIC "-//W3C//DTD SVG 1.1//EN"
  "http://www.w3.org/Graphics/SVG/1.1/DTD/svg11.dtd">
<!-- Created with matplotlib (https://matplotlib.org/) -->
<svg height="1080pt" version="1.1" viewBox="0 0 720 1080" width="720pt" xmlns="http://www.w3.org/2000/svg" xmlns:xlink="http://www.w3.org/1999/xlink">
 <defs>
  <style type="text/css">
*{stroke-linecap:butt;stroke-linejoin:round;}
  </style>
 </defs>
 <g id="figure_1">
  <g id="patch_1">
   <path d="M 0 1080 
L 720 1080 
L 720 0 
L 0 0 
z
" style="fill:#ffffff;"/>
  </g>
  <g id="axes_1">
   <g id="patch_2">
    <path d="M 90 507.6 
L 648 507.6 
L 648 129.6 
L 90 129.6 
z
" style="fill:#ffffff;"/>
   </g>
   <g id="matplotlib.axis_1">
    <g id="xtick_1">
     <g id="line2d_1">
      <defs>
       <path d="M 0 0 
L 0 3.5 
" id="m339a10b3f6" style="stroke:#000000;stroke-width:0.8;"/>
      </defs>
      <g>
       <use style="stroke:#000000;stroke-width:0.8;" x="90" xlink:href="#m339a10b3f6" y="507.6"/>
      </g>
     </g>
    </g>
    <g id="xtick_2">
     <g id="line2d_2">
      <g>
       <use style="stroke:#000000;stroke-width:0.8;" x="201.6" xlink:href="#m339a10b3f6" y="507.6"/>
      </g>
     </g>
    </g>
    <g id="xtick_3">
     <g id="line2d_3">
      <g>
       <use style="stroke:#000000;stroke-width:0.8;" x="313.2" xlink:href="#m339a10b3f6" y="507.6"/>
      </g>
     </g>
    </g>
    <g id="xtick_4">
     <g id="line2d_4">
      <g>
       <use style="stroke:#000000;stroke-width:0.8;" x="424.8" xlink:href="#m339a10b3f6" y="507.6"/>
      </g>
     </g>
    </g>
    <g id="xtick_5">
     <g id="line2d_5">
      <g>
       <use style="stroke:#000000;stroke-width:0.8;" x="536.4" xlink:href="#m339a10b3f6" y="507.6"/>
      </g>
     </g>
    </g>
    <g id="xtick_6">
     <g id="line2d_6">
      <g>
       <use style="stroke:#000000;stroke-width:0.8;" x="648" xlink:href="#m339a10b3f6" y="507.6"/>
      </g>
     </g>
    </g>
    <g id="text_1">
     <!-- mcpMomentum -->
     <defs>
      <path d="M 52 44.1875 
Q 55.375 50.25 60.0625 53.125 
Q 64.75 56 71.09375 56 
Q 79.640625 56 84.28125 50.015625 
Q 88.921875 44.046875 88.921875 33.015625 
L 88.921875 0 
L 79.890625 0 
L 79.890625 32.71875 
Q 79.890625 40.578125 77.09375 44.375 
Q 74.3125 48.1875 68.609375 48.1875 
Q 61.625 48.1875 57.5625 43.546875 
Q 53.515625 38.921875 53.515625 30.90625 
L 53.515625 0 
L 44.484375 0 
L 44.484375 32.71875 
Q 44.484375 40.625 41.703125 44.40625 
Q 38.921875 48.1875 33.109375 48.1875 
Q 26.21875 48.1875 22.15625 43.53125 
Q 18.109375 38.875 18.109375 30.90625 
L 18.109375 0 
L 9.078125 0 
L 9.078125 54.6875 
L 18.109375 54.6875 
L 18.109375 46.1875 
Q 21.1875 51.21875 25.484375 53.609375 
Q 29.78125 56 35.6875 56 
Q 41.65625 56 45.828125 52.96875 
Q 50 49.953125 52 44.1875 
z
" id="DejaVuSans-109"/>
      <path d="M 48.78125 52.59375 
L 48.78125 44.1875 
Q 44.96875 46.296875 41.140625 47.34375 
Q 37.3125 48.390625 33.40625 48.390625 
Q 24.65625 48.390625 19.8125 42.84375 
Q 14.984375 37.3125 14.984375 27.296875 
Q 14.984375 17.28125 19.8125 11.734375 
Q 24.65625 6.203125 33.40625 6.203125 
Q 37.3125 6.203125 41.140625 7.25 
Q 44.96875 8.296875 48.78125 10.40625 
L 48.78125 2.09375 
Q 45.015625 0.34375 40.984375 -0.53125 
Q 36.96875 -1.421875 32.421875 -1.421875 
Q 20.0625 -1.421875 12.78125 6.34375 
Q 5.515625 14.109375 5.515625 27.296875 
Q 5.515625 40.671875 12.859375 48.328125 
Q 20.21875 56 33.015625 56 
Q 37.15625 56 41.109375 55.140625 
Q 45.0625 54.296875 48.78125 52.59375 
z
" id="DejaVuSans-99"/>
      <path d="M 18.109375 8.203125 
L 18.109375 -20.796875 
L 9.078125 -20.796875 
L 9.078125 54.6875 
L 18.109375 54.6875 
L 18.109375 46.390625 
Q 20.953125 51.265625 25.265625 53.625 
Q 29.59375 56 35.59375 56 
Q 45.5625 56 51.78125 48.09375 
Q 58.015625 40.1875 58.015625 27.296875 
Q 58.015625 14.40625 51.78125 6.484375 
Q 45.5625 -1.421875 35.59375 -1.421875 
Q 29.59375 -1.421875 25.265625 0.953125 
Q 20.953125 3.328125 18.109375 8.203125 
z
M 48.6875 27.296875 
Q 48.6875 37.203125 44.609375 42.84375 
Q 40.53125 48.484375 33.40625 48.484375 
Q 26.265625 48.484375 22.1875 42.84375 
Q 18.109375 37.203125 18.109375 27.296875 
Q 18.109375 17.390625 22.1875 11.75 
Q 26.265625 6.109375 33.40625 6.109375 
Q 40.53125 6.109375 44.609375 11.75 
Q 48.6875 17.390625 48.6875 27.296875 
z
" id="DejaVuSans-112"/>
      <path d="M 9.8125 72.90625 
L 24.515625 72.90625 
L 43.109375 23.296875 
L 61.8125 72.90625 
L 76.515625 72.90625 
L 76.515625 0 
L 66.890625 0 
L 66.890625 64.015625 
L 48.09375 14.015625 
L 38.1875 14.015625 
L 19.390625 64.015625 
L 19.390625 0 
L 9.8125 0 
z
" id="DejaVuSans-77"/>
      <path d="M 30.609375 48.390625 
Q 23.390625 48.390625 19.1875 42.75 
Q 14.984375 37.109375 14.984375 27.296875 
Q 14.984375 17.484375 19.15625 11.84375 
Q 23.34375 6.203125 30.609375 6.203125 
Q 37.796875 6.203125 41.984375 11.859375 
Q 46.1875 17.53125 46.1875 27.296875 
Q 46.1875 37.015625 41.984375 42.703125 
Q 37.796875 48.390625 30.609375 48.390625 
z
M 30.609375 56 
Q 42.328125 56 49.015625 48.375 
Q 55.71875 40.765625 55.71875 27.296875 
Q 55.71875 13.875 49.015625 6.21875 
Q 42.328125 -1.421875 30.609375 -1.421875 
Q 18.84375 -1.421875 12.171875 6.21875 
Q 5.515625 13.875 5.515625 27.296875 
Q 5.515625 40.765625 12.171875 48.375 
Q 18.84375 56 30.609375 56 
z
" id="DejaVuSans-111"/>
      <path d="M 56.203125 29.59375 
L 56.203125 25.203125 
L 14.890625 25.203125 
Q 15.484375 15.921875 20.484375 11.0625 
Q 25.484375 6.203125 34.421875 6.203125 
Q 39.59375 6.203125 44.453125 7.46875 
Q 49.3125 8.734375 54.109375 11.28125 
L 54.109375 2.78125 
Q 49.265625 0.734375 44.1875 -0.34375 
Q 39.109375 -1.421875 33.890625 -1.421875 
Q 20.796875 -1.421875 13.15625 6.1875 
Q 5.515625 13.8125 5.515625 26.8125 
Q 5.515625 40.234375 12.765625 48.109375 
Q 20.015625 56 32.328125 56 
Q 43.359375 56 49.78125 48.890625 
Q 56.203125 41.796875 56.203125 29.59375 
z
M 47.21875 32.234375 
Q 47.125 39.59375 43.09375 43.984375 
Q 39.0625 48.390625 32.421875 48.390625 
Q 24.90625 48.390625 20.390625 44.140625 
Q 15.875 39.890625 15.1875 32.171875 
z
" id="DejaVuSans-101"/>
      <path d="M 54.890625 33.015625 
L 54.890625 0 
L 45.90625 0 
L 45.90625 32.71875 
Q 45.90625 40.484375 42.875 44.328125 
Q 39.84375 48.1875 33.796875 48.1875 
Q 26.515625 48.1875 22.3125 43.546875 
Q 18.109375 38.921875 18.109375 30.90625 
L 18.109375 0 
L 9.078125 0 
L 9.078125 54.6875 
L 18.109375 54.6875 
L 18.109375 46.1875 
Q 21.34375 51.125 25.703125 53.5625 
Q 30.078125 56 35.796875 56 
Q 45.21875 56 50.046875 50.171875 
Q 54.890625 44.34375 54.890625 33.015625 
z
" id="DejaVuSans-110"/>
      <path d="M 18.3125 70.21875 
L 18.3125 54.6875 
L 36.8125 54.6875 
L 36.8125 47.703125 
L 18.3125 47.703125 
L 18.3125 18.015625 
Q 18.3125 11.328125 20.140625 9.421875 
Q 21.96875 7.515625 27.59375 7.515625 
L 36.8125 7.515625 
L 36.8125 0 
L 27.59375 0 
Q 17.1875 0 13.234375 3.875 
Q 9.28125 7.765625 9.28125 18.015625 
L 9.28125 47.703125 
L 2.6875 47.703125 
L 2.6875 54.6875 
L 9.28125 54.6875 
L 9.28125 70.21875 
z
" id="DejaVuSans-116"/>
      <path d="M 8.5 21.578125 
L 8.5 54.6875 
L 17.484375 54.6875 
L 17.484375 21.921875 
Q 17.484375 14.15625 20.5 10.265625 
Q 23.53125 6.390625 29.59375 6.390625 
Q 36.859375 6.390625 41.078125 11.03125 
Q 45.3125 15.671875 45.3125 23.6875 
L 45.3125 54.6875 
L 54.296875 54.6875 
L 54.296875 0 
L 45.3125 0 
L 45.3125 8.40625 
Q 42.046875 3.421875 37.71875 1 
Q 33.40625 -1.421875 27.6875 -1.421875 
Q 18.265625 -1.421875 13.375 4.4375 
Q 8.5 10.296875 8.5 21.578125 
z
M 31.109375 56 
z
" id="DejaVuSans-117"/>
     </defs>
     <g transform="translate(267.180975 531.29515)scale(0.2592 -0.2592)">
      <use xlink:href="#DejaVuSans-109"/>
      <use x="97.412109" xlink:href="#DejaVuSans-99"/>
      <use x="152.392578" xlink:href="#DejaVuSans-112"/>
      <use x="215.869141" xlink:href="#DejaVuSans-77"/>
      <use x="302.148438" xlink:href="#DejaVuSans-111"/>
      <use x="363.330078" xlink:href="#DejaVuSans-109"/>
      <use x="460.742188" xlink:href="#DejaVuSans-101"/>
      <use x="522.265625" xlink:href="#DejaVuSans-110"/>
      <use x="585.644531" xlink:href="#DejaVuSans-116"/>
      <use x="624.853516" xlink:href="#DejaVuSans-117"/>
      <use x="688.232422" xlink:href="#DejaVuSans-109"/>
     </g>
    </g>
   </g>
   <g id="matplotlib.axis_2">
    <g id="ytick_1">
     <g id="line2d_7">
      <defs>
       <path d="M 0 0 
L -3.5 0 
" id="m7b6c21eba4" style="stroke:#000000;stroke-width:0.8;"/>
      </defs>
      <g>
       <use style="stroke:#000000;stroke-width:0.8;" x="90" xlink:href="#m7b6c21eba4" y="507.6"/>
      </g>
     </g>
     <g id="text_2">
      <!-- 0.0 -->
      <defs>
       <path d="M 31.78125 66.40625 
Q 24.171875 66.40625 20.328125 58.90625 
Q 16.5 51.421875 16.5 36.375 
Q 16.5 21.390625 20.328125 13.890625 
Q 24.171875 6.390625 31.78125 6.390625 
Q 39.453125 6.390625 43.28125 13.890625 
Q 47.125 21.390625 47.125 36.375 
Q 47.125 51.421875 43.28125 58.90625 
Q 39.453125 66.40625 31.78125 66.40625 
z
M 31.78125 74.21875 
Q 44.046875 74.21875 50.515625 64.515625 
Q 56.984375 54.828125 56.984375 36.375 
Q 56.984375 17.96875 50.515625 8.265625 
Q 44.046875 -1.421875 31.78125 -1.421875 
Q 19.53125 -1.421875 13.0625 8.265625 
Q 6.59375 17.96875 6.59375 36.375 
Q 6.59375 54.828125 13.0625 64.515625 
Q 19.53125 74.21875 31.78125 74.21875 
z
" id="DejaVuSans-48"/>
       <path d="M 10.6875 12.40625 
L 21 12.40625 
L 21 0 
L 10.6875 0 
z
" id="DejaVuSans-46"/>
      </defs>
      <g transform="translate(41.7791 517.447575)scale(0.2592 -0.2592)">
       <use xlink:href="#DejaVuSans-48"/>
       <use x="63.623047" xlink:href="#DejaVuSans-46"/>
       <use x="95.410156" xlink:href="#DejaVuSans-48"/>
      </g>
     </g>
    </g>
    <g id="ytick_2">
     <g id="line2d_8">
      <g>
       <use style="stroke:#000000;stroke-width:0.8;" x="90" xlink:href="#m7b6c21eba4" y="432.748515"/>
      </g>
     </g>
     <g id="text_3">
      <!-- 0.2 -->
      <defs>
       <path d="M 19.1875 8.296875 
L 53.609375 8.296875 
L 53.609375 0 
L 7.328125 0 
L 7.328125 8.296875 
Q 12.9375 14.109375 22.625 23.890625 
Q 32.328125 33.6875 34.8125 36.53125 
Q 39.546875 41.84375 41.421875 45.53125 
Q 43.3125 49.21875 43.3125 52.78125 
Q 43.3125 58.59375 39.234375 62.25 
Q 35.15625 65.921875 28.609375 65.921875 
Q 23.96875 65.921875 18.8125 64.3125 
Q 13.671875 62.703125 7.8125 59.421875 
L 7.8125 69.390625 
Q 13.765625 71.78125 18.9375 73 
Q 24.125 74.21875 28.421875 74.21875 
Q 39.75 74.21875 46.484375 68.546875 
Q 53.21875 62.890625 53.21875 53.421875 
Q 53.21875 48.921875 51.53125 44.890625 
Q 49.859375 40.875 45.40625 35.40625 
Q 44.1875 33.984375 37.640625 27.21875 
Q 31.109375 20.453125 19.1875 8.296875 
z
" id="DejaVuSans-50"/>
      </defs>
      <g transform="translate(41.7791 442.59609)scale(0.2592 -0.2592)">
       <use xlink:href="#DejaVuSans-48"/>
       <use x="63.623047" xlink:href="#DejaVuSans-46"/>
       <use x="95.410156" xlink:href="#DejaVuSans-50"/>
      </g>
     </g>
    </g>
    <g id="ytick_3">
     <g id="line2d_9">
      <g>
       <use style="stroke:#000000;stroke-width:0.8;" x="90" xlink:href="#m7b6c21eba4" y="357.89703"/>
      </g>
     </g>
     <g id="text_4">
      <!-- 0.4 -->
      <defs>
       <path d="M 37.796875 64.3125 
L 12.890625 25.390625 
L 37.796875 25.390625 
z
M 35.203125 72.90625 
L 47.609375 72.90625 
L 47.609375 25.390625 
L 58.015625 25.390625 
L 58.015625 17.1875 
L 47.609375 17.1875 
L 47.609375 0 
L 37.796875 0 
L 37.796875 17.1875 
L 4.890625 17.1875 
L 4.890625 26.703125 
z
" id="DejaVuSans-52"/>
      </defs>
      <g transform="translate(41.7791 367.744605)scale(0.2592 -0.2592)">
       <use xlink:href="#DejaVuSans-48"/>
       <use x="63.623047" xlink:href="#DejaVuSans-46"/>
       <use x="95.410156" xlink:href="#DejaVuSans-52"/>
      </g>
     </g>
    </g>
    <g id="ytick_4">
     <g id="line2d_10">
      <g>
       <use style="stroke:#000000;stroke-width:0.8;" x="90" xlink:href="#m7b6c21eba4" y="283.045545"/>
      </g>
     </g>
     <g id="text_5">
      <!-- 0.6 -->
      <defs>
       <path d="M 33.015625 40.375 
Q 26.375 40.375 22.484375 35.828125 
Q 18.609375 31.296875 18.609375 23.390625 
Q 18.609375 15.53125 22.484375 10.953125 
Q 26.375 6.390625 33.015625 6.390625 
Q 39.65625 6.390625 43.53125 10.953125 
Q 47.40625 15.53125 47.40625 23.390625 
Q 47.40625 31.296875 43.53125 35.828125 
Q 39.65625 40.375 33.015625 40.375 
z
M 52.59375 71.296875 
L 52.59375 62.3125 
Q 48.875 64.0625 45.09375 64.984375 
Q 41.3125 65.921875 37.59375 65.921875 
Q 27.828125 65.921875 22.671875 59.328125 
Q 17.53125 52.734375 16.796875 39.40625 
Q 19.671875 43.65625 24.015625 45.921875 
Q 28.375 48.1875 33.59375 48.1875 
Q 44.578125 48.1875 50.953125 41.515625 
Q 57.328125 34.859375 57.328125 23.390625 
Q 57.328125 12.15625 50.6875 5.359375 
Q 44.046875 -1.421875 33.015625 -1.421875 
Q 20.359375 -1.421875 13.671875 8.265625 
Q 6.984375 17.96875 6.984375 36.375 
Q 6.984375 53.65625 15.1875 63.9375 
Q 23.390625 74.21875 37.203125 74.21875 
Q 40.921875 74.21875 44.703125 73.484375 
Q 48.484375 72.75 52.59375 71.296875 
z
" id="DejaVuSans-54"/>
      </defs>
      <g transform="translate(41.7791 292.89312)scale(0.2592 -0.2592)">
       <use xlink:href="#DejaVuSans-48"/>
       <use x="63.623047" xlink:href="#DejaVuSans-46"/>
       <use x="95.410156" xlink:href="#DejaVuSans-54"/>
      </g>
     </g>
    </g>
    <g id="ytick_5">
     <g id="line2d_11">
      <g>
       <use style="stroke:#000000;stroke-width:0.8;" x="90" xlink:href="#m7b6c21eba4" y="208.194059"/>
      </g>
     </g>
     <g id="text_6">
      <!-- 0.8 -->
      <defs>
       <path d="M 31.78125 34.625 
Q 24.75 34.625 20.71875 30.859375 
Q 16.703125 27.09375 16.703125 20.515625 
Q 16.703125 13.921875 20.71875 10.15625 
Q 24.75 6.390625 31.78125 6.390625 
Q 38.8125 6.390625 42.859375 10.171875 
Q 46.921875 13.96875 46.921875 20.515625 
Q 46.921875 27.09375 42.890625 30.859375 
Q 38.875 34.625 31.78125 34.625 
z
M 21.921875 38.8125 
Q 15.578125 40.375 12.03125 44.71875 
Q 8.5 49.078125 8.5 55.328125 
Q 8.5 64.0625 14.71875 69.140625 
Q 20.953125 74.21875 31.78125 74.21875 
Q 42.671875 74.21875 48.875 69.140625 
Q 55.078125 64.0625 55.078125 55.328125 
Q 55.078125 49.078125 51.53125 44.71875 
Q 48 40.375 41.703125 38.8125 
Q 48.828125 37.15625 52.796875 32.3125 
Q 56.78125 27.484375 56.78125 20.515625 
Q 56.78125 9.90625 50.3125 4.234375 
Q 43.84375 -1.421875 31.78125 -1.421875 
Q 19.734375 -1.421875 13.25 4.234375 
Q 6.78125 9.90625 6.78125 20.515625 
Q 6.78125 27.484375 10.78125 32.3125 
Q 14.796875 37.15625 21.921875 38.8125 
z
M 18.3125 54.390625 
Q 18.3125 48.734375 21.84375 45.5625 
Q 25.390625 42.390625 31.78125 42.390625 
Q 38.140625 42.390625 41.71875 45.5625 
Q 45.3125 48.734375 45.3125 54.390625 
Q 45.3125 60.0625 41.71875 63.234375 
Q 38.140625 66.40625 31.78125 66.40625 
Q 25.390625 66.40625 21.84375 63.234375 
Q 18.3125 60.0625 18.3125 54.390625 
z
" id="DejaVuSans-56"/>
      </defs>
      <g transform="translate(41.7791 218.041634)scale(0.2592 -0.2592)">
       <use xlink:href="#DejaVuSans-48"/>
       <use x="63.623047" xlink:href="#DejaVuSans-46"/>
       <use x="95.410156" xlink:href="#DejaVuSans-56"/>
      </g>
     </g>
    </g>
    <g id="ytick_6">
     <g id="line2d_12">
      <g>
       <use style="stroke:#000000;stroke-width:0.8;" x="90" xlink:href="#m7b6c21eba4" y="133.342574"/>
      </g>
     </g>
     <g id="text_7">
      <!-- 1.0 -->
      <defs>
       <path d="M 12.40625 8.296875 
L 28.515625 8.296875 
L 28.515625 63.921875 
L 10.984375 60.40625 
L 10.984375 69.390625 
L 28.421875 72.90625 
L 38.28125 72.90625 
L 38.28125 8.296875 
L 54.390625 8.296875 
L 54.390625 0 
L 12.40625 0 
z
" id="DejaVuSans-49"/>
      </defs>
      <g transform="translate(41.7791 143.190149)scale(0.2592 -0.2592)">
       <use xlink:href="#DejaVuSans-49"/>
       <use x="63.623047" xlink:href="#DejaVuSans-46"/>
       <use x="95.410156" xlink:href="#DejaVuSans-48"/>
      </g>
     </g>
    </g>
    <g id="text_8">
     <!-- Fraction -->
     <defs>
      <path d="M 9.8125 72.90625 
L 51.703125 72.90625 
L 51.703125 64.59375 
L 19.671875 64.59375 
L 19.671875 43.109375 
L 48.578125 43.109375 
L 48.578125 34.8125 
L 19.671875 34.8125 
L 19.671875 0 
L 9.8125 0 
z
" id="DejaVuSans-70"/>
      <path d="M 41.109375 46.296875 
Q 39.59375 47.171875 37.8125 47.578125 
Q 36.03125 48 33.890625 48 
Q 26.265625 48 22.1875 43.046875 
Q 18.109375 38.09375 18.109375 28.8125 
L 18.109375 0 
L 9.078125 0 
L 9.078125 54.6875 
L 18.109375 54.6875 
L 18.109375 46.1875 
Q 20.953125 51.171875 25.484375 53.578125 
Q 30.03125 56 36.53125 56 
Q 37.453125 56 38.578125 55.875 
Q 39.703125 55.765625 41.0625 55.515625 
z
" id="DejaVuSans-114"/>
      <path d="M 34.28125 27.484375 
Q 23.390625 27.484375 19.1875 25 
Q 14.984375 22.515625 14.984375 16.5 
Q 14.984375 11.71875 18.140625 8.90625 
Q 21.296875 6.109375 26.703125 6.109375 
Q 34.1875 6.109375 38.703125 11.40625 
Q 43.21875 16.703125 43.21875 25.484375 
L 43.21875 27.484375 
z
M 52.203125 31.203125 
L 52.203125 0 
L 43.21875 0 
L 43.21875 8.296875 
Q 40.140625 3.328125 35.546875 0.953125 
Q 30.953125 -1.421875 24.3125 -1.421875 
Q 15.921875 -1.421875 10.953125 3.296875 
Q 6 8.015625 6 15.921875 
Q 6 25.140625 12.171875 29.828125 
Q 18.359375 34.515625 30.609375 34.515625 
L 43.21875 34.515625 
L 43.21875 35.40625 
Q 43.21875 41.609375 39.140625 45 
Q 35.0625 48.390625 27.6875 48.390625 
Q 23 48.390625 18.546875 47.265625 
Q 14.109375 46.140625 10.015625 43.890625 
L 10.015625 52.203125 
Q 14.9375 54.109375 19.578125 55.046875 
Q 24.21875 56 28.609375 56 
Q 40.484375 56 46.34375 49.84375 
Q 52.203125 43.703125 52.203125 31.203125 
z
" id="DejaVuSans-97"/>
      <path d="M 9.421875 54.6875 
L 18.40625 54.6875 
L 18.40625 0 
L 9.421875 0 
z
M 9.421875 75.984375 
L 18.40625 75.984375 
L 18.40625 64.59375 
L 9.421875 64.59375 
z
" id="DejaVuSans-105"/>
     </defs>
     <g transform="translate(32.38855 371.260125)rotate(-90)scale(0.2592 -0.2592)">
      <use xlink:href="#DejaVuSans-70"/>
      <use x="57.410156" xlink:href="#DejaVuSans-114"/>
      <use x="98.523438" xlink:href="#DejaVuSans-97"/>
      <use x="159.802734" xlink:href="#DejaVuSans-99"/>
      <use x="214.783203" xlink:href="#DejaVuSans-116"/>
      <use x="253.992188" xlink:href="#DejaVuSans-105"/>
      <use x="281.775391" xlink:href="#DejaVuSans-111"/>
      <use x="342.957031" xlink:href="#DejaVuSans-110"/>
     </g>
    </g>
   </g>
   <g id="LineCollection_1">
    <path clip-path="url(#p9a46122705)" d="M 100.594937 133.342574 
L 100.594937 133.342574 
" style="fill:none;stroke:#008000;stroke-width:1.5;"/>
    <path clip-path="url(#p9a46122705)" d="M 107.658228 164.952402 
L 107.658228 139.158489 
" style="fill:none;stroke:#008000;stroke-width:1.5;"/>
    <path clip-path="url(#p9a46122705)" d="M 114.721519 158.272736 
L 114.721519 146.047237 
" style="fill:none;stroke:#008000;stroke-width:1.5;"/>
    <path clip-path="url(#p9a46122705)" d="M 121.78481 152.920747 
L 121.78481 144.557734 
" style="fill:none;stroke:#008000;stroke-width:1.5;"/>
    <path clip-path="url(#p9a46122705)" d="M 128.848101 171.472416 
L 128.848101 160.87193 
" style="fill:none;stroke:#008000;stroke-width:1.5;"/>
    <path clip-path="url(#p9a46122705)" d="M 135.911392 168.069503 
L 135.911392 158.496833 
" style="fill:none;stroke:#008000;stroke-width:1.5;"/>
    <path clip-path="url(#p9a46122705)" d="M 142.974684 156.065257 
L 142.974684 148.654182 
" style="fill:none;stroke:#008000;stroke-width:1.5;"/>
    <path clip-path="url(#p9a46122705)" d="M 150.037975 163.750571 
L 150.037975 155.226034 
" style="fill:none;stroke:#008000;stroke-width:1.5;"/>
    <path clip-path="url(#p9a46122705)" d="M 157.101266 155.732035 
L 157.101266 148.301048 
" style="fill:none;stroke:#008000;stroke-width:1.5;"/>
    <path clip-path="url(#p9a46122705)" d="M 164.164557 155.791655 
L 164.164557 148.065788 
" style="fill:none;stroke:#008000;stroke-width:1.5;"/>
    <path clip-path="url(#p9a46122705)" d="M 171.227848 150.282379 
L 171.227848 143.767829 
" style="fill:none;stroke:#008000;stroke-width:1.5;"/>
    <path clip-path="url(#p9a46122705)" d="M 178.291139 146.498171 
L 178.291139 140.466936 
" style="fill:none;stroke:#008000;stroke-width:1.5;"/>
    <path clip-path="url(#p9a46122705)" d="M 185.35443 149.270434 
L 185.35443 142.227361 
" style="fill:none;stroke:#008000;stroke-width:1.5;"/>
    <path clip-path="url(#p9a46122705)" d="M 192.417722 153.343469 
L 192.417722 144.529798 
" style="fill:none;stroke:#008000;stroke-width:1.5;"/>
    <path clip-path="url(#p9a46122705)" d="M 199.481013 153.552986 
L 199.481013 144.648577 
" style="fill:none;stroke:#008000;stroke-width:1.5;"/>
    <path clip-path="url(#p9a46122705)" d="M 206.544304 164.57767 
L 206.544304 152.427805 
" style="fill:none;stroke:#008000;stroke-width:1.5;"/>
    <path clip-path="url(#p9a46122705)" d="M 213.607595 152.453275 
L 213.607595 142.611583 
" style="fill:none;stroke:#008000;stroke-width:1.5;"/>
    <path clip-path="url(#p9a46122705)" d="M 220.670886 145.498765 
L 220.670886 138.044826 
" style="fill:none;stroke:#008000;stroke-width:1.5;"/>
    <path clip-path="url(#p9a46122705)" d="M 227.734177 158.114355 
L 227.734177 146.866902 
" style="fill:none;stroke:#008000;stroke-width:1.5;"/>
    <path clip-path="url(#p9a46122705)" d="M 234.797468 158.34869 
L 234.797468 145.529744 
" style="fill:none;stroke:#008000;stroke-width:1.5;"/>
    <path clip-path="url(#p9a46122705)" d="M 241.860759 145.635285 
L 241.860759 137.500739 
" style="fill:none;stroke:#008000;stroke-width:1.5;"/>
    <path clip-path="url(#p9a46122705)" d="M 248.924051 158.195359 
L 248.924051 145.453486 
" style="fill:none;stroke:#008000;stroke-width:1.5;"/>
    <path clip-path="url(#p9a46122705)" d="M 255.987342 150.291561 
L 255.987342 139.931791 
" style="fill:none;stroke:#008000;stroke-width:1.5;"/>
    <path clip-path="url(#p9a46122705)" d="M 263.050633 151.797685 
L 263.050633 139.631756 
" style="fill:none;stroke:#008000;stroke-width:1.5;"/>
    <path clip-path="url(#p9a46122705)" d="M 270.113924 151.353645 
L 270.113924 139.477144 
" style="fill:none;stroke:#008000;stroke-width:1.5;"/>
    <path clip-path="url(#p9a46122705)" d="M 277.177215 147.632619 
L 277.177215 135.873088 
" style="fill:none;stroke:#008000;stroke-width:1.5;"/>
    <path clip-path="url(#p9a46122705)" d="M 284.240506 140.662925 
L 284.240506 133.360605 
" style="fill:none;stroke:#008000;stroke-width:1.5;"/>
    <path clip-path="url(#p9a46122705)" d="M 291.303797 147.959537 
L 291.303797 135.93285 
" style="fill:none;stroke:#008000;stroke-width:1.5;"/>
    <path clip-path="url(#p9a46122705)" d="M 298.367089 161.174971 
L 298.367089 142.93592 
" style="fill:none;stroke:#008000;stroke-width:1.5;"/>
    <path clip-path="url(#p9a46122705)" d="M 305.43038 148.540048 
L 305.43038 133.420914 
" style="fill:none;stroke:#008000;stroke-width:1.5;"/>
    <path clip-path="url(#p9a46122705)" d="M 312.493671 171.605896 
L 312.493671 146.700967 
" style="fill:none;stroke:#008000;stroke-width:1.5;"/>
    <path clip-path="url(#p9a46122705)" d="M 319.556962 154.846754 
L 319.556962 137.21178 
" style="fill:none;stroke:#008000;stroke-width:1.5;"/>
    <path clip-path="url(#p9a46122705)" d="M 326.620253 162.106797 
L 326.620253 138.601754 
" style="fill:none;stroke:#008000;stroke-width:1.5;"/>
    <path clip-path="url(#p9a46122705)" d="M 333.683544 162.106797 
L 333.683544 138.601754 
" style="fill:none;stroke:#008000;stroke-width:1.5;"/>
    <path clip-path="url(#p9a46122705)" d="M 340.746835 162.769072 
L 340.746835 138.730721 
" style="fill:none;stroke:#008000;stroke-width:1.5;"/>
    <path clip-path="url(#p9a46122705)" d="M 347.810127 133.342574 
L 347.810127 133.342574 
" style="fill:none;stroke:#008000;stroke-width:1.5;"/>
    <path clip-path="url(#p9a46122705)" d="M 354.873418 158.083386 
L 354.873418 133.552257 
" style="fill:none;stroke:#008000;stroke-width:1.5;"/>
    <path clip-path="url(#p9a46122705)" d="M 361.936709 189.434222 
L 361.936709 149.687847 
" style="fill:none;stroke:#008000;stroke-width:1.5;"/>
    <path clip-path="url(#p9a46122705)" d="M 369 133.342574 
L 369 133.342574 
" style="fill:none;stroke:#008000;stroke-width:1.5;"/>
    <path clip-path="url(#p9a46122705)" d="M 376.063291 160.806232 
L 376.063291 133.601688 
" style="fill:none;stroke:#008000;stroke-width:1.5;"/>
    <path clip-path="url(#p9a46122705)" d="M 383.126582 172.212724 
L 383.126582 133.867943 
" style="fill:none;stroke:#008000;stroke-width:1.5;"/>
    <path clip-path="url(#p9a46122705)" d="M 390.189873 133.342574 
L 390.189873 133.342574 
" style="fill:none;stroke:#008000;stroke-width:1.5;"/>
    <path clip-path="url(#p9a46122705)" d="M 397.253165 133.342574 
L 397.253165 133.342574 
" style="fill:none;stroke:#008000;stroke-width:1.5;"/>
    <path clip-path="url(#p9a46122705)" d="M 404.316456 157.291896 
L 404.316456 133.538893 
" style="fill:none;stroke:#008000;stroke-width:1.5;"/>
    <path clip-path="url(#p9a46122705)" d="M 411.379747 133.342574 
L 411.379747 133.342574 
" style="fill:none;stroke:#008000;stroke-width:1.5;"/>
    <path clip-path="url(#p9a46122705)" d="M 418.443038 133.342574 
L 418.443038 133.342574 
" style="fill:none;stroke:#008000;stroke-width:1.5;"/>
    <path clip-path="url(#p9a46122705)" d="M 425.506329 176.715543 
L 425.506329 133.999891 
" style="fill:none;stroke:#008000;stroke-width:1.5;"/>
    <path clip-path="url(#p9a46122705)" d="M 432.56962 170.294496 
L 432.56962 133.816395 
" style="fill:none;stroke:#008000;stroke-width:1.5;"/>
    <path clip-path="url(#p9a46122705)" d="M 439.632911 244.912261 
L 439.632911 157.866496 
" style="fill:none;stroke:#008000;stroke-width:1.5;"/>
    <path clip-path="url(#p9a46122705)" d="M 446.696203 133.342574 
L 446.696203 133.342574 
" style="fill:none;stroke:#008000;stroke-width:1.5;"/>
    <path clip-path="url(#p9a46122705)" d="M 453.759494 235.9825 
L 453.759494 155.455124 
" style="fill:none;stroke:#008000;stroke-width:1.5;"/>
    <path clip-path="url(#p9a46122705)" d="M 460.822785 133.342574 
L 460.822785 133.342574 
" style="fill:none;stroke:#008000;stroke-width:1.5;"/>
    <path clip-path="url(#p9a46122705)" d="M 467.886076 133.342574 
L 467.886076 133.342574 
" style="fill:none;stroke:#008000;stroke-width:1.5;"/>
    <path clip-path="url(#p9a46122705)" d="M 474.949367 185.835496 
L 474.949367 134.314999 
" style="fill:none;stroke:#008000;stroke-width:1.5;"/>
    <path clip-path="url(#p9a46122705)" d="M 482.012658 133.342574 
L 482.012658 133.342574 
" style="fill:none;stroke:#008000;stroke-width:1.5;"/>
    <path clip-path="url(#p9a46122705)" d="M 489.075949 133.342574 
L 489.075949 133.342574 
" style="fill:none;stroke:#008000;stroke-width:1.5;"/>
    <path clip-path="url(#p9a46122705)" d="M 496.139241 133.342574 
L 496.139241 133.342574 
" style="fill:none;stroke:#008000;stroke-width:1.5;"/>
    <path clip-path="url(#p9a46122705)" d="M 503.202532 133.342574 
L 503.202532 133.342574 
" style="fill:none;stroke:#008000;stroke-width:1.5;"/>
    <path clip-path="url(#p9a46122705)" d="M 510.265823 236.307213 
L 510.265823 137.308628 
" style="fill:none;stroke:#008000;stroke-width:1.5;"/>
    <path clip-path="url(#p9a46122705)" d="M 517.329114 133.342574 
L 517.329114 133.342574 
" style="fill:none;stroke:#008000;stroke-width:1.5;"/>
    <path clip-path="url(#p9a46122705)" d="M 524.392405 206.273494 
L 524.392405 135.26314 
" style="fill:none;stroke:#008000;stroke-width:1.5;"/>
    <path clip-path="url(#p9a46122705)" d="M 531.455696 133.342574 
L 531.455696 133.342574 
" style="fill:none;stroke:#008000;stroke-width:1.5;"/>
    <path clip-path="url(#p9a46122705)" d="M 538.518987 133.342574 
L 538.518987 133.342574 
" style="fill:none;stroke:#008000;stroke-width:1.5;"/>
    <path clip-path="url(#p9a46122705)" d="M 545.582278 133.342574 
L 545.582278 133.342574 
" style="fill:none;stroke:#008000;stroke-width:1.5;"/>
    <path clip-path="url(#p9a46122705)" d="M 552.64557 133.342574 
L 552.64557 133.342574 
" style="fill:none;stroke:#008000;stroke-width:1.5;"/>
    <path clip-path="url(#p9a46122705)" d="M 559.708861 133.342574 
L 559.708861 133.342574 
" style="fill:none;stroke:#008000;stroke-width:1.5;"/>
    <path clip-path="url(#p9a46122705)" d="M 566.772152 133.342574 
L 566.772152 133.342574 
" style="fill:none;stroke:#008000;stroke-width:1.5;"/>
    <path clip-path="url(#p9a46122705)" d="M 573.835443 133.342574 
L 573.835443 133.342574 
" style="fill:none;stroke:#008000;stroke-width:1.5;"/>
    <path clip-path="url(#p9a46122705)" d="M 580.898734 307.93604 
L 580.898734 145.877821 
" style="fill:none;stroke:#008000;stroke-width:1.5;"/>
    <path clip-path="url(#p9a46122705)" d="M 587.962025 133.342574 
L 587.962025 133.342574 
" style="fill:none;stroke:#008000;stroke-width:1.5;"/>
    <path clip-path="url(#p9a46122705)" d="M 595.025316 133.342574 
L 595.025316 133.342574 
" style="fill:none;stroke:#008000;stroke-width:1.5;"/>
    <path clip-path="url(#p9a46122705)" d="M 602.088608 133.342574 
L 602.088608 133.342574 
" style="fill:none;stroke:#008000;stroke-width:1.5;"/>
    <path clip-path="url(#p9a46122705)" d="M 609.151899 133.342574 
L 609.151899 133.342574 
" style="fill:none;stroke:#008000;stroke-width:1.5;"/>
    <path clip-path="url(#p9a46122705)" d="M 616.21519 133.342574 
L 616.21519 133.342574 
" style="fill:none;stroke:#008000;stroke-width:1.5;"/>
    <path clip-path="url(#p9a46122705)" d="M 623.278481 133.342574 
L 623.278481 133.342574 
" style="fill:none;stroke:#008000;stroke-width:1.5;"/>
    <path clip-path="url(#p9a46122705)" d="M 630.341772 133.342574 
L 630.341772 133.342574 
" style="fill:none;stroke:#008000;stroke-width:1.5;"/>
    <path clip-path="url(#p9a46122705)" d="M 637.405063 133.342574 
L 637.405063 133.342574 
" style="fill:none;stroke:#008000;stroke-width:1.5;"/>
    <path clip-path="url(#p9a46122705)" d="M 644.468354 133.342574 
L 644.468354 133.342574 
" style="fill:none;stroke:#008000;stroke-width:1.5;"/>
   </g>
   <g id="line2d_13">
    <path clip-path="url(#p9a46122705)" d="M 97.063291 133.342574 
L 104.126582 133.342574 
L 104.126582 152.055446 
L 118.253165 152.159987 
L 118.253165 148.739241 
L 125.316456 148.739241 
L 125.316456 166.172173 
L 132.379747 166.172173 
L 132.379747 163.283168 
L 139.443038 163.283168 
L 139.443038 152.35972 
L 146.506329 152.35972 
L 146.506329 159.488303 
L 153.56962 159.488303 
L 153.56962 152.016541 
L 167.696203 151.928722 
L 167.696203 147.025104 
L 174.759494 147.025104 
L 174.759494 143.482554 
L 181.822785 143.482554 
L 181.822785 145.748898 
L 188.886076 145.748898 
L 188.886076 148.936634 
L 195.949367 148.936634 
L 195.949367 149.100782 
L 203.012658 149.100782 
L 203.012658 158.502737 
L 210.075949 158.502737 
L 210.075949 147.532429 
L 217.139241 147.532429 
L 217.139241 141.771796 
L 224.202532 141.771796 
L 224.202532 152.490629 
L 231.265823 152.490629 
L 231.265823 151.939217 
L 238.329114 151.939217 
L 238.329114 141.568012 
L 245.392405 141.568012 
L 245.392405 151.824422 
L 252.455696 151.824422 
L 252.455696 145.111676 
L 259.518987 145.111676 
L 259.518987 145.714721 
L 266.582278 145.714721 
L 266.582278 145.415394 
L 273.64557 145.415394 
L 273.64557 141.752853 
L 280.708861 141.752853 
L 280.708861 137.011765 
L 287.772152 137.011765 
L 287.772152 141.946193 
L 294.835443 141.946193 
L 294.835443 152.055446 
L 301.898734 152.055446 
L 301.898734 140.980481 
L 308.962025 140.980481 
L 308.962025 159.153431 
L 316.025316 159.153431 
L 316.025316 146.029267 
L 323.088608 146.029267 
L 323.088608 150.354275 
L 337.21519 150.354275 
L 337.21519 150.749896 
L 344.278481 150.749896 
L 344.278481 133.342574 
L 351.341772 133.342574 
L 351.341772 145.817822 
L 358.405063 145.817822 
L 358.405063 169.561035 
L 365.468354 169.561035 
L 365.468354 133.342574 
L 372.531646 133.342574 
L 372.531646 147.20396 
L 379.594937 147.20396 
L 379.594937 153.040334 
L 386.658228 153.040334 
L 386.658228 133.342574 
L 400.78481 133.342574 
L 400.78481 145.415394 
L 407.848101 145.415394 
L 407.848101 133.342574 
L 421.974684 133.342574 
L 421.974684 155.357717 
L 429.037975 155.357717 
L 429.037975 152.055446 
L 436.101266 152.055446 
L 436.101266 201.389379 
L 443.164557 201.389379 
L 443.164557 133.342574 
L 450.227848 133.342574 
L 450.227848 195.718812 
L 457.291139 195.718812 
L 457.291139 133.342574 
L 471.417722 133.342574 
L 471.417722 160.075248 
L 478.481013 160.075248 
L 478.481013 133.342574 
L 506.734177 133.342574 
L 506.734177 186.807921 
L 513.797468 186.807921 
L 513.797468 133.342574 
L 520.860759 133.342574 
L 520.860759 170.768317 
L 527.924051 170.768317 
L 527.924051 133.342574 
L 577.367089 133.342574 
L 577.367089 226.906931 
L 584.43038 226.906931 
L 584.43038 133.342574 
L 648 133.342574 
L 648 133.342574 
" style="fill:none;stroke:#008000;stroke-linecap:square;stroke-width:1.5;"/>
   </g>
   <g id="line2d_14">
    <defs>
     <path d="M 2 0 
L -2 -0 
" id="me617c468f1" style="stroke:#008000;"/>
    </defs>
    <g clip-path="url(#p9a46122705)">
     <use style="fill:#008000;stroke:#008000;" x="100.594937" xlink:href="#me617c468f1" y="133.342574"/>
     <use style="fill:#008000;stroke:#008000;" x="107.658228" xlink:href="#me617c468f1" y="164.952402"/>
     <use style="fill:#008000;stroke:#008000;" x="114.721519" xlink:href="#me617c468f1" y="158.272736"/>
     <use style="fill:#008000;stroke:#008000;" x="121.78481" xlink:href="#me617c468f1" y="152.920747"/>
     <use style="fill:#008000;stroke:#008000;" x="128.848101" xlink:href="#me617c468f1" y="171.472416"/>
     <use style="fill:#008000;stroke:#008000;" x="135.911392" xlink:href="#me617c468f1" y="168.069503"/>
     <use style="fill:#008000;stroke:#008000;" x="142.974684" xlink:href="#me617c468f1" y="156.065257"/>
     <use style="fill:#008000;stroke:#008000;" x="150.037975" xlink:href="#me617c468f1" y="163.750571"/>
     <use style="fill:#008000;stroke:#008000;" x="157.101266" xlink:href="#me617c468f1" y="155.732035"/>
     <use style="fill:#008000;stroke:#008000;" x="164.164557" xlink:href="#me617c468f1" y="155.791655"/>
     <use style="fill:#008000;stroke:#008000;" x="171.227848" xlink:href="#me617c468f1" y="150.282379"/>
     <use style="fill:#008000;stroke:#008000;" x="178.291139" xlink:href="#me617c468f1" y="146.498171"/>
     <use style="fill:#008000;stroke:#008000;" x="185.35443" xlink:href="#me617c468f1" y="149.270434"/>
     <use style="fill:#008000;stroke:#008000;" x="192.417722" xlink:href="#me617c468f1" y="153.343469"/>
     <use style="fill:#008000;stroke:#008000;" x="199.481013" xlink:href="#me617c468f1" y="153.552986"/>
     <use style="fill:#008000;stroke:#008000;" x="206.544304" xlink:href="#me617c468f1" y="164.57767"/>
     <use style="fill:#008000;stroke:#008000;" x="213.607595" xlink:href="#me617c468f1" y="152.453275"/>
     <use style="fill:#008000;stroke:#008000;" x="220.670886" xlink:href="#me617c468f1" y="145.498765"/>
     <use style="fill:#008000;stroke:#008000;" x="227.734177" xlink:href="#me617c468f1" y="158.114355"/>
     <use style="fill:#008000;stroke:#008000;" x="234.797468" xlink:href="#me617c468f1" y="158.34869"/>
     <use style="fill:#008000;stroke:#008000;" x="241.860759" xlink:href="#me617c468f1" y="145.635285"/>
     <use style="fill:#008000;stroke:#008000;" x="248.924051" xlink:href="#me617c468f1" y="158.195359"/>
     <use style="fill:#008000;stroke:#008000;" x="255.987342" xlink:href="#me617c468f1" y="150.291561"/>
     <use style="fill:#008000;stroke:#008000;" x="263.050633" xlink:href="#me617c468f1" y="151.797685"/>
     <use style="fill:#008000;stroke:#008000;" x="270.113924" xlink:href="#me617c468f1" y="151.353645"/>
     <use style="fill:#008000;stroke:#008000;" x="277.177215" xlink:href="#me617c468f1" y="147.632619"/>
     <use style="fill:#008000;stroke:#008000;" x="284.240506" xlink:href="#me617c468f1" y="140.662925"/>
     <use style="fill:#008000;stroke:#008000;" x="291.303797" xlink:href="#me617c468f1" y="147.959537"/>
     <use style="fill:#008000;stroke:#008000;" x="298.367089" xlink:href="#me617c468f1" y="161.174971"/>
     <use style="fill:#008000;stroke:#008000;" x="305.43038" xlink:href="#me617c468f1" y="148.540048"/>
     <use style="fill:#008000;stroke:#008000;" x="312.493671" xlink:href="#me617c468f1" y="171.605896"/>
     <use style="fill:#008000;stroke:#008000;" x="319.556962" xlink:href="#me617c468f1" y="154.846754"/>
     <use style="fill:#008000;stroke:#008000;" x="326.620253" xlink:href="#me617c468f1" y="162.106797"/>
     <use style="fill:#008000;stroke:#008000;" x="333.683544" xlink:href="#me617c468f1" y="162.106797"/>
     <use style="fill:#008000;stroke:#008000;" x="340.746835" xlink:href="#me617c468f1" y="162.769072"/>
     <use style="fill:#008000;stroke:#008000;" x="347.810127" xlink:href="#me617c468f1" y="133.342574"/>
     <use style="fill:#008000;stroke:#008000;" x="354.873418" xlink:href="#me617c468f1" y="158.083386"/>
     <use style="fill:#008000;stroke:#008000;" x="361.936709" xlink:href="#me617c468f1" y="189.434222"/>
     <use style="fill:#008000;stroke:#008000;" x="369" xlink:href="#me617c468f1" y="133.342574"/>
     <use style="fill:#008000;stroke:#008000;" x="376.063291" xlink:href="#me617c468f1" y="160.806232"/>
     <use style="fill:#008000;stroke:#008000;" x="383.126582" xlink:href="#me617c468f1" y="172.212724"/>
     <use style="fill:#008000;stroke:#008000;" x="390.189873" xlink:href="#me617c468f1" y="133.342574"/>
     <use style="fill:#008000;stroke:#008000;" x="397.253165" xlink:href="#me617c468f1" y="133.342574"/>
     <use style="fill:#008000;stroke:#008000;" x="404.316456" xlink:href="#me617c468f1" y="157.291896"/>
     <use style="fill:#008000;stroke:#008000;" x="411.379747" xlink:href="#me617c468f1" y="133.342574"/>
     <use style="fill:#008000;stroke:#008000;" x="418.443038" xlink:href="#me617c468f1" y="133.342574"/>
     <use style="fill:#008000;stroke:#008000;" x="425.506329" xlink:href="#me617c468f1" y="176.715543"/>
     <use style="fill:#008000;stroke:#008000;" x="432.56962" xlink:href="#me617c468f1" y="170.294496"/>
     <use style="fill:#008000;stroke:#008000;" x="439.632911" xlink:href="#me617c468f1" y="244.912261"/>
     <use style="fill:#008000;stroke:#008000;" x="446.696203" xlink:href="#me617c468f1" y="133.342574"/>
     <use style="fill:#008000;stroke:#008000;" x="453.759494" xlink:href="#me617c468f1" y="235.9825"/>
     <use style="fill:#008000;stroke:#008000;" x="460.822785" xlink:href="#me617c468f1" y="133.342574"/>
     <use style="fill:#008000;stroke:#008000;" x="467.886076" xlink:href="#me617c468f1" y="133.342574"/>
     <use style="fill:#008000;stroke:#008000;" x="474.949367" xlink:href="#me617c468f1" y="185.835496"/>
     <use style="fill:#008000;stroke:#008000;" x="482.012658" xlink:href="#me617c468f1" y="133.342574"/>
     <use style="fill:#008000;stroke:#008000;" x="489.075949" xlink:href="#me617c468f1" y="133.342574"/>
     <use style="fill:#008000;stroke:#008000;" x="496.139241" xlink:href="#me617c468f1" y="133.342574"/>
     <use style="fill:#008000;stroke:#008000;" x="503.202532" xlink:href="#me617c468f1" y="133.342574"/>
     <use style="fill:#008000;stroke:#008000;" x="510.265823" xlink:href="#me617c468f1" y="236.307213"/>
     <use style="fill:#008000;stroke:#008000;" x="517.329114" xlink:href="#me617c468f1" y="133.342574"/>
     <use style="fill:#008000;stroke:#008000;" x="524.392405" xlink:href="#me617c468f1" y="206.273494"/>
     <use style="fill:#008000;stroke:#008000;" x="531.455696" xlink:href="#me617c468f1" y="133.342574"/>
     <use style="fill:#008000;stroke:#008000;" x="538.518987" xlink:href="#me617c468f1" y="133.342574"/>
     <use style="fill:#008000;stroke:#008000;" x="545.582278" xlink:href="#me617c468f1" y="133.342574"/>
     <use style="fill:#008000;stroke:#008000;" x="552.64557" xlink:href="#me617c468f1" y="133.342574"/>
     <use style="fill:#008000;stroke:#008000;" x="559.708861" xlink:href="#me617c468f1" y="133.342574"/>
     <use style="fill:#008000;stroke:#008000;" x="566.772152" xlink:href="#me617c468f1" y="133.342574"/>
     <use style="fill:#008000;stroke:#008000;" x="573.835443" xlink:href="#me617c468f1" y="133.342574"/>
     <use style="fill:#008000;stroke:#008000;" x="580.898734" xlink:href="#me617c468f1" y="307.93604"/>
     <use style="fill:#008000;stroke:#008000;" x="587.962025" xlink:href="#me617c468f1" y="133.342574"/>
     <use style="fill:#008000;stroke:#008000;" x="595.025316" xlink:href="#me617c468f1" y="133.342574"/>
     <use style="fill:#008000;stroke:#008000;" x="602.088608" xlink:href="#me617c468f1" y="133.342574"/>
     <use style="fill:#008000;stroke:#008000;" x="609.151899" xlink:href="#me617c468f1" y="133.342574"/>
     <use style="fill:#008000;stroke:#008000;" x="616.21519" xlink:href="#me617c468f1" y="133.342574"/>
     <use style="fill:#008000;stroke:#008000;" x="623.278481" xlink:href="#me617c468f1" y="133.342574"/>
     <use style="fill:#008000;stroke:#008000;" x="630.341772" xlink:href="#me617c468f1" y="133.342574"/>
     <use style="fill:#008000;stroke:#008000;" x="637.405063" xlink:href="#me617c468f1" y="133.342574"/>
     <use style="fill:#008000;stroke:#008000;" x="644.468354" xlink:href="#me617c468f1" y="133.342574"/>
    </g>
   </g>
   <g id="line2d_15">
    <g clip-path="url(#p9a46122705)">
     <use style="fill:#008000;stroke:#008000;" x="100.594937" xlink:href="#me617c468f1" y="133.342574"/>
     <use style="fill:#008000;stroke:#008000;" x="107.658228" xlink:href="#me617c468f1" y="139.158489"/>
     <use style="fill:#008000;stroke:#008000;" x="114.721519" xlink:href="#me617c468f1" y="146.047237"/>
     <use style="fill:#008000;stroke:#008000;" x="121.78481" xlink:href="#me617c468f1" y="144.557734"/>
     <use style="fill:#008000;stroke:#008000;" x="128.848101" xlink:href="#me617c468f1" y="160.87193"/>
     <use style="fill:#008000;stroke:#008000;" x="135.911392" xlink:href="#me617c468f1" y="158.496833"/>
     <use style="fill:#008000;stroke:#008000;" x="142.974684" xlink:href="#me617c468f1" y="148.654182"/>
     <use style="fill:#008000;stroke:#008000;" x="150.037975" xlink:href="#me617c468f1" y="155.226034"/>
     <use style="fill:#008000;stroke:#008000;" x="157.101266" xlink:href="#me617c468f1" y="148.301048"/>
     <use style="fill:#008000;stroke:#008000;" x="164.164557" xlink:href="#me617c468f1" y="148.065788"/>
     <use style="fill:#008000;stroke:#008000;" x="171.227848" xlink:href="#me617c468f1" y="143.767829"/>
     <use style="fill:#008000;stroke:#008000;" x="178.291139" xlink:href="#me617c468f1" y="140.466936"/>
     <use style="fill:#008000;stroke:#008000;" x="185.35443" xlink:href="#me617c468f1" y="142.227361"/>
     <use style="fill:#008000;stroke:#008000;" x="192.417722" xlink:href="#me617c468f1" y="144.529798"/>
     <use style="fill:#008000;stroke:#008000;" x="199.481013" xlink:href="#me617c468f1" y="144.648577"/>
     <use style="fill:#008000;stroke:#008000;" x="206.544304" xlink:href="#me617c468f1" y="152.427805"/>
     <use style="fill:#008000;stroke:#008000;" x="213.607595" xlink:href="#me617c468f1" y="142.611583"/>
     <use style="fill:#008000;stroke:#008000;" x="220.670886" xlink:href="#me617c468f1" y="138.044826"/>
     <use style="fill:#008000;stroke:#008000;" x="227.734177" xlink:href="#me617c468f1" y="146.866902"/>
     <use style="fill:#008000;stroke:#008000;" x="234.797468" xlink:href="#me617c468f1" y="145.529744"/>
     <use style="fill:#008000;stroke:#008000;" x="241.860759" xlink:href="#me617c468f1" y="137.500739"/>
     <use style="fill:#008000;stroke:#008000;" x="248.924051" xlink:href="#me617c468f1" y="145.453486"/>
     <use style="fill:#008000;stroke:#008000;" x="255.987342" xlink:href="#me617c468f1" y="139.931791"/>
     <use style="fill:#008000;stroke:#008000;" x="263.050633" xlink:href="#me617c468f1" y="139.631756"/>
     <use style="fill:#008000;stroke:#008000;" x="270.113924" xlink:href="#me617c468f1" y="139.477144"/>
     <use style="fill:#008000;stroke:#008000;" x="277.177215" xlink:href="#me617c468f1" y="135.873088"/>
     <use style="fill:#008000;stroke:#008000;" x="284.240506" xlink:href="#me617c468f1" y="133.360605"/>
     <use style="fill:#008000;stroke:#008000;" x="291.303797" xlink:href="#me617c468f1" y="135.93285"/>
     <use style="fill:#008000;stroke:#008000;" x="298.367089" xlink:href="#me617c468f1" y="142.93592"/>
     <use style="fill:#008000;stroke:#008000;" x="305.43038" xlink:href="#me617c468f1" y="133.420914"/>
     <use style="fill:#008000;stroke:#008000;" x="312.493671" xlink:href="#me617c468f1" y="146.700967"/>
     <use style="fill:#008000;stroke:#008000;" x="319.556962" xlink:href="#me617c468f1" y="137.21178"/>
     <use style="fill:#008000;stroke:#008000;" x="326.620253" xlink:href="#me617c468f1" y="138.601754"/>
     <use style="fill:#008000;stroke:#008000;" x="333.683544" xlink:href="#me617c468f1" y="138.601754"/>
     <use style="fill:#008000;stroke:#008000;" x="340.746835" xlink:href="#me617c468f1" y="138.730721"/>
     <use style="fill:#008000;stroke:#008000;" x="347.810127" xlink:href="#me617c468f1" y="133.342574"/>
     <use style="fill:#008000;stroke:#008000;" x="354.873418" xlink:href="#me617c468f1" y="133.552257"/>
     <use style="fill:#008000;stroke:#008000;" x="361.936709" xlink:href="#me617c468f1" y="149.687847"/>
     <use style="fill:#008000;stroke:#008000;" x="369" xlink:href="#me617c468f1" y="133.342574"/>
     <use style="fill:#008000;stroke:#008000;" x="376.063291" xlink:href="#me617c468f1" y="133.601688"/>
     <use style="fill:#008000;stroke:#008000;" x="383.126582" xlink:href="#me617c468f1" y="133.867943"/>
     <use style="fill:#008000;stroke:#008000;" x="390.189873" xlink:href="#me617c468f1" y="133.342574"/>
     <use style="fill:#008000;stroke:#008000;" x="397.253165" xlink:href="#me617c468f1" y="133.342574"/>
     <use style="fill:#008000;stroke:#008000;" x="404.316456" xlink:href="#me617c468f1" y="133.538893"/>
     <use style="fill:#008000;stroke:#008000;" x="411.379747" xlink:href="#me617c468f1" y="133.342574"/>
     <use style="fill:#008000;stroke:#008000;" x="418.443038" xlink:href="#me617c468f1" y="133.342574"/>
     <use style="fill:#008000;stroke:#008000;" x="425.506329" xlink:href="#me617c468f1" y="133.999891"/>
     <use style="fill:#008000;stroke:#008000;" x="432.56962" xlink:href="#me617c468f1" y="133.816395"/>
     <use style="fill:#008000;stroke:#008000;" x="439.632911" xlink:href="#me617c468f1" y="157.866496"/>
     <use style="fill:#008000;stroke:#008000;" x="446.696203" xlink:href="#me617c468f1" y="133.342574"/>
     <use style="fill:#008000;stroke:#008000;" x="453.759494" xlink:href="#me617c468f1" y="155.455124"/>
     <use style="fill:#008000;stroke:#008000;" x="460.822785" xlink:href="#me617c468f1" y="133.342574"/>
     <use style="fill:#008000;stroke:#008000;" x="467.886076" xlink:href="#me617c468f1" y="133.342574"/>
     <use style="fill:#008000;stroke:#008000;" x="474.949367" xlink:href="#me617c468f1" y="134.314999"/>
     <use style="fill:#008000;stroke:#008000;" x="482.012658" xlink:href="#me617c468f1" y="133.342574"/>
     <use style="fill:#008000;stroke:#008000;" x="489.075949" xlink:href="#me617c468f1" y="133.342574"/>
     <use style="fill:#008000;stroke:#008000;" x="496.139241" xlink:href="#me617c468f1" y="133.342574"/>
     <use style="fill:#008000;stroke:#008000;" x="503.202532" xlink:href="#me617c468f1" y="133.342574"/>
     <use style="fill:#008000;stroke:#008000;" x="510.265823" xlink:href="#me617c468f1" y="137.308628"/>
     <use style="fill:#008000;stroke:#008000;" x="517.329114" xlink:href="#me617c468f1" y="133.342574"/>
     <use style="fill:#008000;stroke:#008000;" x="524.392405" xlink:href="#me617c468f1" y="135.26314"/>
     <use style="fill:#008000;stroke:#008000;" x="531.455696" xlink:href="#me617c468f1" y="133.342574"/>
     <use style="fill:#008000;stroke:#008000;" x="538.518987" xlink:href="#me617c468f1" y="133.342574"/>
     <use style="fill:#008000;stroke:#008000;" x="545.582278" xlink:href="#me617c468f1" y="133.342574"/>
     <use style="fill:#008000;stroke:#008000;" x="552.64557" xlink:href="#me617c468f1" y="133.342574"/>
     <use style="fill:#008000;stroke:#008000;" x="559.708861" xlink:href="#me617c468f1" y="133.342574"/>
     <use style="fill:#008000;stroke:#008000;" x="566.772152" xlink:href="#me617c468f1" y="133.342574"/>
     <use style="fill:#008000;stroke:#008000;" x="573.835443" xlink:href="#me617c468f1" y="133.342574"/>
     <use style="fill:#008000;stroke:#008000;" x="580.898734" xlink:href="#me617c468f1" y="145.877821"/>
     <use style="fill:#008000;stroke:#008000;" x="587.962025" xlink:href="#me617c468f1" y="133.342574"/>
     <use style="fill:#008000;stroke:#008000;" x="595.025316" xlink:href="#me617c468f1" y="133.342574"/>
     <use style="fill:#008000;stroke:#008000;" x="602.088608" xlink:href="#me617c468f1" y="133.342574"/>
     <use style="fill:#008000;stroke:#008000;" x="609.151899" xlink:href="#me617c468f1" y="133.342574"/>
     <use style="fill:#008000;stroke:#008000;" x="616.21519" xlink:href="#me617c468f1" y="133.342574"/>
     <use style="fill:#008000;stroke:#008000;" x="623.278481" xlink:href="#me617c468f1" y="133.342574"/>
     <use style="fill:#008000;stroke:#008000;" x="630.341772" xlink:href="#me617c468f1" y="133.342574"/>
     <use style="fill:#008000;stroke:#008000;" x="637.405063" xlink:href="#me617c468f1" y="133.342574"/>
     <use style="fill:#008000;stroke:#008000;" x="644.468354" xlink:href="#me617c468f1" y="133.342574"/>
    </g>
   </g>
   <g id="patch_3">
    <path d="M 90 507.6 
L 90 129.6 
" style="fill:none;stroke:#000000;stroke-linecap:square;stroke-linejoin:miter;stroke-width:0.8;"/>
   </g>
   <g id="patch_4">
    <path d="M 648 507.6 
L 648 129.6 
" style="fill:none;stroke:#000000;stroke-linecap:square;stroke-linejoin:miter;stroke-width:0.8;"/>
   </g>
   <g id="patch_5">
    <path d="M 90 507.6 
L 648 507.6 
" style="fill:none;stroke:#000000;stroke-linecap:square;stroke-linejoin:miter;stroke-width:0.8;"/>
   </g>
   <g id="patch_6">
    <path d="M 90 129.6 
L 648 129.6 
" style="fill:none;stroke:#000000;stroke-linecap:square;stroke-linejoin:miter;stroke-width:0.8;"/>
   </g>
   <g id="text_9">
    <!-- Purity/Efficiency vs mcpMomentum -->
    <defs>
     <path d="M 19.671875 64.796875 
L 19.671875 37.40625 
L 32.078125 37.40625 
Q 38.96875 37.40625 42.71875 40.96875 
Q 46.484375 44.53125 46.484375 51.125 
Q 46.484375 57.671875 42.71875 61.234375 
Q 38.96875 64.796875 32.078125 64.796875 
z
M 9.8125 72.90625 
L 32.078125 72.90625 
Q 44.34375 72.90625 50.609375 67.359375 
Q 56.890625 61.8125 56.890625 51.125 
Q 56.890625 40.328125 50.609375 34.8125 
Q 44.34375 29.296875 32.078125 29.296875 
L 19.671875 29.296875 
L 19.671875 0 
L 9.8125 0 
z
" id="DejaVuSans-80"/>
     <path d="M 32.171875 -5.078125 
Q 28.375 -14.84375 24.75 -17.8125 
Q 21.140625 -20.796875 15.09375 -20.796875 
L 7.90625 -20.796875 
L 7.90625 -13.28125 
L 13.1875 -13.28125 
Q 16.890625 -13.28125 18.9375 -11.515625 
Q 21 -9.765625 23.484375 -3.21875 
L 25.09375 0.875 
L 2.984375 54.6875 
L 12.5 54.6875 
L 29.59375 11.921875 
L 46.6875 54.6875 
L 56.203125 54.6875 
z
" id="DejaVuSans-121"/>
     <path d="M 25.390625 72.90625 
L 33.6875 72.90625 
L 8.296875 -9.28125 
L 0 -9.28125 
z
" id="DejaVuSans-47"/>
     <path d="M 9.8125 72.90625 
L 55.90625 72.90625 
L 55.90625 64.59375 
L 19.671875 64.59375 
L 19.671875 43.015625 
L 54.390625 43.015625 
L 54.390625 34.71875 
L 19.671875 34.71875 
L 19.671875 8.296875 
L 56.78125 8.296875 
L 56.78125 0 
L 9.8125 0 
z
" id="DejaVuSans-69"/>
     <path d="M 37.109375 75.984375 
L 37.109375 68.5 
L 28.515625 68.5 
Q 23.6875 68.5 21.796875 66.546875 
Q 19.921875 64.59375 19.921875 59.515625 
L 19.921875 54.6875 
L 34.71875 54.6875 
L 34.71875 47.703125 
L 19.921875 47.703125 
L 19.921875 0 
L 10.890625 0 
L 10.890625 47.703125 
L 2.296875 47.703125 
L 2.296875 54.6875 
L 10.890625 54.6875 
L 10.890625 58.5 
Q 10.890625 67.625 15.140625 71.796875 
Q 19.390625 75.984375 28.609375 75.984375 
z
" id="DejaVuSans-102"/>
     <path id="DejaVuSans-32"/>
     <path d="M 2.984375 54.6875 
L 12.5 54.6875 
L 29.59375 8.796875 
L 46.6875 54.6875 
L 56.203125 54.6875 
L 35.6875 0 
L 23.484375 0 
z
" id="DejaVuSans-118"/>
     <path d="M 44.28125 53.078125 
L 44.28125 44.578125 
Q 40.484375 46.53125 36.375 47.5 
Q 32.28125 48.484375 27.875 48.484375 
Q 21.1875 48.484375 17.84375 46.4375 
Q 14.5 44.390625 14.5 40.28125 
Q 14.5 37.15625 16.890625 35.375 
Q 19.28125 33.59375 26.515625 31.984375 
L 29.59375 31.296875 
Q 39.15625 29.25 43.1875 25.515625 
Q 47.21875 21.78125 47.21875 15.09375 
Q 47.21875 7.46875 41.1875 3.015625 
Q 35.15625 -1.421875 24.609375 -1.421875 
Q 20.21875 -1.421875 15.453125 -0.5625 
Q 10.6875 0.296875 5.421875 2 
L 5.421875 11.28125 
Q 10.40625 8.6875 15.234375 7.390625 
Q 20.0625 6.109375 24.8125 6.109375 
Q 31.15625 6.109375 34.5625 8.28125 
Q 37.984375 10.453125 37.984375 14.40625 
Q 37.984375 18.0625 35.515625 20.015625 
Q 33.0625 21.96875 24.703125 23.78125 
L 21.578125 24.515625 
Q 13.234375 26.265625 9.515625 29.90625 
Q 5.8125 33.546875 5.8125 39.890625 
Q 5.8125 47.609375 11.28125 51.796875 
Q 16.75 56 26.8125 56 
Q 31.78125 56 36.171875 55.265625 
Q 40.578125 54.546875 44.28125 53.078125 
z
" id="DejaVuSans-115"/>
    </defs>
    <g transform="translate(139.824675 94.57527)scale(0.2592 -0.2592)">
     <use xlink:href="#DejaVuSans-80"/>
     <use x="60.287109" xlink:href="#DejaVuSans-117"/>
     <use x="123.666016" xlink:href="#DejaVuSans-114"/>
     <use x="164.779297" xlink:href="#DejaVuSans-105"/>
     <use x="192.5625" xlink:href="#DejaVuSans-116"/>
     <use x="231.771484" xlink:href="#DejaVuSans-121"/>
     <use x="290.951172" xlink:href="#DejaVuSans-47"/>
     <use x="324.642578" xlink:href="#DejaVuSans-69"/>
     <use x="387.826172" xlink:href="#DejaVuSans-102"/>
     <use x="423.03125" xlink:href="#DejaVuSans-102"/>
     <use x="458.236328" xlink:href="#DejaVuSans-105"/>
     <use x="486.019531" xlink:href="#DejaVuSans-99"/>
     <use x="541" xlink:href="#DejaVuSans-105"/>
     <use x="568.783203" xlink:href="#DejaVuSans-101"/>
     <use x="630.306641" xlink:href="#DejaVuSans-110"/>
     <use x="693.685547" xlink:href="#DejaVuSans-99"/>
     <use x="748.666016" xlink:href="#DejaVuSans-121"/>
     <use x="807.845703" xlink:href="#DejaVuSans-32"/>
     <use x="839.632812" xlink:href="#DejaVuSans-118"/>
     <use x="898.8125" xlink:href="#DejaVuSans-115"/>
     <use x="950.912109" xlink:href="#DejaVuSans-32"/>
     <use x="982.699219" xlink:href="#DejaVuSans-109"/>
     <use x="1080.111328" xlink:href="#DejaVuSans-99"/>
     <use x="1135.091797" xlink:href="#DejaVuSans-112"/>
     <use x="1198.568359" xlink:href="#DejaVuSans-77"/>
     <use x="1284.847656" xlink:href="#DejaVuSans-111"/>
     <use x="1346.029297" xlink:href="#DejaVuSans-109"/>
     <use x="1443.441406" xlink:href="#DejaVuSans-101"/>
     <use x="1504.964844" xlink:href="#DejaVuSans-110"/>
     <use x="1568.34375" xlink:href="#DejaVuSans-116"/>
     <use x="1607.552734" xlink:href="#DejaVuSans-117"/>
     <use x="1670.931641" xlink:href="#DejaVuSans-109"/>
    </g>
    <!-- Cutoff=-1.460, photon shower classification -->
    <defs>
     <path d="M 64.40625 67.28125 
L 64.40625 56.890625 
Q 59.421875 61.53125 53.78125 63.8125 
Q 48.140625 66.109375 41.796875 66.109375 
Q 29.296875 66.109375 22.65625 58.46875 
Q 16.015625 50.828125 16.015625 36.375 
Q 16.015625 21.96875 22.65625 14.328125 
Q 29.296875 6.6875 41.796875 6.6875 
Q 48.140625 6.6875 53.78125 8.984375 
Q 59.421875 11.28125 64.40625 15.921875 
L 64.40625 5.609375 
Q 59.234375 2.09375 53.4375 0.328125 
Q 47.65625 -1.421875 41.21875 -1.421875 
Q 24.65625 -1.421875 15.125 8.703125 
Q 5.609375 18.84375 5.609375 36.375 
Q 5.609375 53.953125 15.125 64.078125 
Q 24.65625 74.21875 41.21875 74.21875 
Q 47.75 74.21875 53.53125 72.484375 
Q 59.328125 70.75 64.40625 67.28125 
z
" id="DejaVuSans-67"/>
     <path d="M 10.59375 45.40625 
L 73.1875 45.40625 
L 73.1875 37.203125 
L 10.59375 37.203125 
z
M 10.59375 25.484375 
L 73.1875 25.484375 
L 73.1875 17.1875 
L 10.59375 17.1875 
z
" id="DejaVuSans-61"/>
     <path d="M 4.890625 31.390625 
L 31.203125 31.390625 
L 31.203125 23.390625 
L 4.890625 23.390625 
z
" id="DejaVuSans-45"/>
     <path d="M 11.71875 12.40625 
L 22.015625 12.40625 
L 22.015625 4 
L 14.015625 -11.625 
L 7.71875 -11.625 
L 11.71875 4 
z
" id="DejaVuSans-44"/>
     <path d="M 54.890625 33.015625 
L 54.890625 0 
L 45.90625 0 
L 45.90625 32.71875 
Q 45.90625 40.484375 42.875 44.328125 
Q 39.84375 48.1875 33.796875 48.1875 
Q 26.515625 48.1875 22.3125 43.546875 
Q 18.109375 38.921875 18.109375 30.90625 
L 18.109375 0 
L 9.078125 0 
L 9.078125 75.984375 
L 18.109375 75.984375 
L 18.109375 46.1875 
Q 21.34375 51.125 25.703125 53.5625 
Q 30.078125 56 35.796875 56 
Q 45.21875 56 50.046875 50.171875 
Q 54.890625 44.34375 54.890625 33.015625 
z
" id="DejaVuSans-104"/>
     <path d="M 4.203125 54.6875 
L 13.1875 54.6875 
L 24.421875 12.015625 
L 35.59375 54.6875 
L 46.1875 54.6875 
L 57.421875 12.015625 
L 68.609375 54.6875 
L 77.59375 54.6875 
L 63.28125 0 
L 52.6875 0 
L 40.921875 44.828125 
L 29.109375 0 
L 18.5 0 
z
" id="DejaVuSans-119"/>
     <path d="M 9.421875 75.984375 
L 18.40625 75.984375 
L 18.40625 0 
L 9.421875 0 
z
" id="DejaVuSans-108"/>
    </defs>
    <g transform="translate(84.270825 123.6)scale(0.2592 -0.2592)">
     <use xlink:href="#DejaVuSans-67"/>
     <use x="69.824219" xlink:href="#DejaVuSans-117"/>
     <use x="133.203125" xlink:href="#DejaVuSans-116"/>
     <use x="172.412109" xlink:href="#DejaVuSans-111"/>
     <use x="233.59375" xlink:href="#DejaVuSans-102"/>
     <use x="268.798828" xlink:href="#DejaVuSans-102"/>
     <use x="304.003906" xlink:href="#DejaVuSans-61"/>
     <use x="387.792969" xlink:href="#DejaVuSans-45"/>
     <use x="423.876953" xlink:href="#DejaVuSans-49"/>
     <use x="487.5" xlink:href="#DejaVuSans-46"/>
     <use x="519.287109" xlink:href="#DejaVuSans-52"/>
     <use x="582.910156" xlink:href="#DejaVuSans-54"/>
     <use x="646.533203" xlink:href="#DejaVuSans-48"/>
     <use x="710.15625" xlink:href="#DejaVuSans-44"/>
     <use x="741.943359" xlink:href="#DejaVuSans-32"/>
     <use x="773.730469" xlink:href="#DejaVuSans-112"/>
     <use x="837.207031" xlink:href="#DejaVuSans-104"/>
     <use x="900.585938" xlink:href="#DejaVuSans-111"/>
     <use x="961.767578" xlink:href="#DejaVuSans-116"/>
     <use x="1000.976562" xlink:href="#DejaVuSans-111"/>
     <use x="1062.158203" xlink:href="#DejaVuSans-110"/>
     <use x="1125.537109" xlink:href="#DejaVuSans-32"/>
     <use x="1157.324219" xlink:href="#DejaVuSans-115"/>
     <use x="1209.423828" xlink:href="#DejaVuSans-104"/>
     <use x="1272.802734" xlink:href="#DejaVuSans-111"/>
     <use x="1333.984375" xlink:href="#DejaVuSans-119"/>
     <use x="1415.771484" xlink:href="#DejaVuSans-101"/>
     <use x="1477.294922" xlink:href="#DejaVuSans-114"/>
     <use x="1518.408203" xlink:href="#DejaVuSans-32"/>
     <use x="1550.195312" xlink:href="#DejaVuSans-99"/>
     <use x="1605.175781" xlink:href="#DejaVuSans-108"/>
     <use x="1632.958984" xlink:href="#DejaVuSans-97"/>
     <use x="1694.238281" xlink:href="#DejaVuSans-115"/>
     <use x="1746.337891" xlink:href="#DejaVuSans-115"/>
     <use x="1798.4375" xlink:href="#DejaVuSans-105"/>
     <use x="1826.220703" xlink:href="#DejaVuSans-102"/>
     <use x="1861.425781" xlink:href="#DejaVuSans-105"/>
     <use x="1889.208984" xlink:href="#DejaVuSans-99"/>
     <use x="1944.189453" xlink:href="#DejaVuSans-97"/>
     <use x="2005.46875" xlink:href="#DejaVuSans-116"/>
     <use x="2044.677734" xlink:href="#DejaVuSans-105"/>
     <use x="2072.460938" xlink:href="#DejaVuSans-111"/>
     <use x="2133.642578" xlink:href="#DejaVuSans-110"/>
    </g>
   </g>
   <g id="legend_1">
    <g id="patch_7">
     <path d="M 296.710313 498.6 
L 441.289688 498.6 
Q 444.889688 498.6 444.889688 495 
L 444.889688 470.379375 
Q 444.889688 466.779375 441.289688 466.779375 
L 296.710313 466.779375 
Q 293.110313 466.779375 293.110313 470.379375 
L 293.110313 495 
Q 293.110313 498.6 296.710313 498.6 
z
" style="fill:#ffffff;opacity:0.5;stroke:#cccccc;stroke-linejoin:miter;"/>
    </g>
    <g id="line2d_16">
     <path d="M 300.310313 481.356563 
L 336.310313 481.356563 
" style="fill:none;stroke:#008000;stroke-linecap:square;stroke-width:1.5;"/>
    </g>
    <g id="line2d_17"/>
    <g id="text_10">
     <!-- Efficiency -->
     <g transform="translate(350.710312 487.656563)scale(0.18 -0.18)">
      <use xlink:href="#DejaVuSans-69"/>
      <use x="63.183594" xlink:href="#DejaVuSans-102"/>
      <use x="98.388672" xlink:href="#DejaVuSans-102"/>
      <use x="133.59375" xlink:href="#DejaVuSans-105"/>
      <use x="161.376953" xlink:href="#DejaVuSans-99"/>
      <use x="216.357422" xlink:href="#DejaVuSans-105"/>
      <use x="244.140625" xlink:href="#DejaVuSans-101"/>
      <use x="305.664062" xlink:href="#DejaVuSans-110"/>
      <use x="369.042969" xlink:href="#DejaVuSans-99"/>
      <use x="424.023438" xlink:href="#DejaVuSans-121"/>
     </g>
    </g>
   </g>
  </g>
  <g id="axes_2">
   <g id="patch_8">
    <path d="M 90 961.2 
L 648 961.2 
L 648 583.2 
L 90 583.2 
z
" style="fill:#ffffff;"/>
   </g>
   <g id="patch_9">
    <path clip-path="url(#p60b53cb9a4)" d="M 90 128224.3952 
L 90 128224.3952 
L 97.063291 128224.3952 
L 97.063291 944.018182 
L 104.126582 944.018182 
L 104.126582 740.107382 
L 111.189873 740.107382 
L 111.189873 657.274199 
L 118.253165 657.274199 
L 118.253165 625.857068 
L 125.316456 625.857068 
L 125.316456 612.965371 
L 132.379747 612.965371 
L 132.379747 606.316293 
L 139.443038 606.316293 
L 139.443038 601.383849 
L 146.506329 601.383849 
L 146.506329 600.381818 
L 153.56962 600.381818 
L 153.56962 602.633745 
L 160.632911 602.633745 
L 160.632911 607.182918 
L 167.696203 607.182918 
L 167.696203 604.503764 
L 174.759494 604.503764 
L 174.759494 612.004005 
L 181.822785 612.004005 
L 181.822785 618.34479 
L 188.886076 618.34479 
L 188.886076 630.985779 
L 195.949367 630.985779 
L 195.949367 631.564603 
L 203.012658 631.564603 
L 203.012658 641.526571 
L 210.075949 641.526571 
L 210.075949 648.182635 
L 217.139241 648.182635 
L 217.139241 645.373491 
L 224.202532 645.373491 
L 224.202532 647.144535 
L 231.265823 647.144535 
L 231.265823 663.132552 
L 238.329114 663.132552 
L 238.329114 656.355443 
L 245.392405 656.355443 
L 245.392405 662.790278 
L 252.455696 662.790278 
L 252.455696 663.823526 
L 259.518987 663.823526 
L 259.518987 678.920475 
L 266.582278 678.920475 
L 266.582278 677.56668 
L 273.64557 677.56668 
L 273.64557 695.899087 
L 280.708861 695.899087 
L 280.708861 688.362795 
L 287.772152 688.362795 
L 287.772152 697.15544 
L 294.835443 697.15544 
L 294.835443 701.792171 
L 301.898734 701.792171 
L 301.898734 728.889388 
L 308.962025 728.889388 
L 308.962025 719.568402 
L 316.025316 719.568402 
L 316.025316 718.62347 
L 323.088608 718.62347 
L 323.088608 734.838906 
L 330.151899 734.838906 
L 330.151899 734.838906 
L 337.21519 734.838906 
L 337.21519 736.109701 
L 344.278481 736.109701 
L 344.278481 742.94273 
L 351.341772 742.94273 
L 351.341772 756.009632 
L 358.405063 756.009632 
L 358.405063 754.197103 
L 365.468354 754.197103 
L 365.468354 754.197103 
L 372.531646 754.197103 
L 372.531646 761.833662 
L 379.594937 761.833662 
L 379.594937 781.257941 
L 386.658228 781.257941 
L 386.658228 798.138573 
L 393.721519 798.138573 
L 393.721519 781.257941 
L 400.78481 781.257941 
L 400.78481 754.197103 
L 407.848101 754.197103 
L 407.848101 763.919841 
L 414.911392 763.919841 
L 414.911392 741.506879 
L 421.974684 741.506879 
L 421.974684 787.406179 
L 429.037975 787.406179 
L 429.037975 778.422593 
L 436.101266 778.422593 
L 436.101266 811.469328 
L 443.164557 811.469328 
L 443.164557 836.453785 
L 450.227848 836.453785 
L 450.227848 806.659586 
L 457.291139 806.659586 
L 457.291139 816.737805 
L 464.35443 816.737805 
L 464.35443 844.974797 
L 471.417722 844.974797 
L 471.417722 798.138573 
L 478.481013 798.138573 
L 478.481013 855.053016 
L 485.544304 855.053016 
L 485.544304 816.737805 
L 492.607595 816.737805 
L 492.607595 867.387759 
L 499.670886 867.387759 
L 499.670886 867.387759 
L 506.734177 867.387759 
L 506.734177 836.453785 
L 513.797468 836.453785 
L 513.797468 844.974797 
L 520.860759 844.974797 
L 520.860759 816.737805 
L 527.924051 816.737805 
L 527.924051 883.290009 
L 534.987342 883.290009 
L 534.987342 883.290009 
L 542.050633 883.290009 
L 542.050633 822.561835 
L 549.113924 822.561835 
L 549.113924 855.053016 
L 556.177215 855.053016 
L 556.177215 883.290009 
L 563.240506 883.290009 
L 563.240506 836.453785 
L 570.303797 836.453785 
L 570.303797 867.387759 
L 577.367089 867.387759 
L 577.367089 867.387759 
L 584.43038 867.387759 
L 584.43038 905.70297 
L 591.493671 905.70297 
L 591.493671 905.70297 
L 598.556962 905.70297 
L 598.556962 905.70297 
L 605.620253 905.70297 
L 605.620253 883.290009 
L 612.683544 883.290009 
L 612.683544 822.561835 
L 619.746835 822.561835 
L 619.746835 883.290009 
L 626.810127 883.290009 
L 626.810127 905.70297 
L 633.873418 905.70297 
L 633.873418 883.290009 
L 640.936709 883.290009 
L 640.936709 867.387759 
L 648 867.387759 
L 648 128224.3952 
z
" style="fill:#1f77b4;opacity:0.2;"/>
   </g>
   <g id="matplotlib.axis_3">
    <g id="xtick_7">
     <g id="line2d_18">
      <g>
       <use style="stroke:#000000;stroke-width:0.8;" x="90" xlink:href="#m339a10b3f6" y="961.2"/>
      </g>
     </g>
     <g id="text_11">
      <!-- 0.0 -->
      <g transform="translate(69.38955 987.89515)scale(0.2592 -0.2592)">
       <use xlink:href="#DejaVuSans-48"/>
       <use x="63.623047" xlink:href="#DejaVuSans-46"/>
       <use x="95.410156" xlink:href="#DejaVuSans-48"/>
      </g>
     </g>
    </g>
    <g id="xtick_8">
     <g id="line2d_19">
      <g>
       <use style="stroke:#000000;stroke-width:0.8;" x="201.6" xlink:href="#m339a10b3f6" y="961.2"/>
      </g>
     </g>
     <g id="text_12">
      <!-- 0.2 -->
      <g transform="translate(180.98955 987.89515)scale(0.2592 -0.2592)">
       <use xlink:href="#DejaVuSans-48"/>
       <use x="63.623047" xlink:href="#DejaVuSans-46"/>
       <use x="95.410156" xlink:href="#DejaVuSans-50"/>
      </g>
     </g>
    </g>
    <g id="xtick_9">
     <g id="line2d_20">
      <g>
       <use style="stroke:#000000;stroke-width:0.8;" x="313.2" xlink:href="#m339a10b3f6" y="961.2"/>
      </g>
     </g>
     <g id="text_13">
      <!-- 0.4 -->
      <g transform="translate(292.58955 987.89515)scale(0.2592 -0.2592)">
       <use xlink:href="#DejaVuSans-48"/>
       <use x="63.623047" xlink:href="#DejaVuSans-46"/>
       <use x="95.410156" xlink:href="#DejaVuSans-52"/>
      </g>
     </g>
    </g>
    <g id="xtick_10">
     <g id="line2d_21">
      <g>
       <use style="stroke:#000000;stroke-width:0.8;" x="424.8" xlink:href="#m339a10b3f6" y="961.2"/>
      </g>
     </g>
     <g id="text_14">
      <!-- 0.6 -->
      <g transform="translate(404.18955 987.89515)scale(0.2592 -0.2592)">
       <use xlink:href="#DejaVuSans-48"/>
       <use x="63.623047" xlink:href="#DejaVuSans-46"/>
       <use x="95.410156" xlink:href="#DejaVuSans-54"/>
      </g>
     </g>
    </g>
    <g id="xtick_11">
     <g id="line2d_22">
      <g>
       <use style="stroke:#000000;stroke-width:0.8;" x="536.4" xlink:href="#m339a10b3f6" y="961.2"/>
      </g>
     </g>
     <g id="text_15">
      <!-- 0.8 -->
      <g transform="translate(515.78955 987.89515)scale(0.2592 -0.2592)">
       <use xlink:href="#DejaVuSans-48"/>
       <use x="63.623047" xlink:href="#DejaVuSans-46"/>
       <use x="95.410156" xlink:href="#DejaVuSans-56"/>
      </g>
     </g>
    </g>
    <g id="xtick_12">
     <g id="line2d_23">
      <g>
       <use style="stroke:#000000;stroke-width:0.8;" x="648" xlink:href="#m339a10b3f6" y="961.2"/>
      </g>
     </g>
     <g id="text_16">
      <!-- 1.0 -->
      <g transform="translate(627.38955 987.89515)scale(0.2592 -0.2592)">
       <use xlink:href="#DejaVuSans-49"/>
       <use x="63.623047" xlink:href="#DejaVuSans-46"/>
       <use x="95.410156" xlink:href="#DejaVuSans-48"/>
      </g>
     </g>
    </g>
    <g id="text_17">
     <!-- mcpMomentum -->
     <g transform="translate(267.180975 1016.98085)scale(0.2592 -0.2592)">
      <use xlink:href="#DejaVuSans-109"/>
      <use x="97.412109" xlink:href="#DejaVuSans-99"/>
      <use x="152.392578" xlink:href="#DejaVuSans-112"/>
      <use x="215.869141" xlink:href="#DejaVuSans-77"/>
      <use x="302.148438" xlink:href="#DejaVuSans-111"/>
      <use x="363.330078" xlink:href="#DejaVuSans-109"/>
      <use x="460.742188" xlink:href="#DejaVuSans-101"/>
      <use x="522.265625" xlink:href="#DejaVuSans-110"/>
      <use x="585.644531" xlink:href="#DejaVuSans-116"/>
      <use x="624.853516" xlink:href="#DejaVuSans-117"/>
      <use x="688.232422" xlink:href="#DejaVuSans-109"/>
     </g>
    </g>
   </g>
   <g id="matplotlib.axis_4">
    <g id="ytick_7">
     <g id="line2d_24">
      <g>
       <use style="stroke:#000000;stroke-width:0.8;" x="90" xlink:href="#m7b6c21eba4" y="944.018182"/>
      </g>
     </g>
     <g id="text_18">
      <!-- $\mathdefault{10^{0}}$ -->
      <g transform="translate(37.3808 953.865757)scale(0.2592 -0.2592)">
       <use transform="translate(0 0.765625)" xlink:href="#DejaVuSans-49"/>
       <use transform="translate(63.623047 0.765625)" xlink:href="#DejaVuSans-48"/>
       <use transform="translate(128.203125 39.046875)scale(0.7)" xlink:href="#DejaVuSans-48"/>
      </g>
     </g>
    </g>
    <g id="ytick_8">
     <g id="line2d_25">
      <g>
       <use style="stroke:#000000;stroke-width:0.8;" x="90" xlink:href="#m7b6c21eba4" y="816.737805"/>
      </g>
     </g>
     <g id="text_19">
      <!-- $\mathdefault{10^{1}}$ -->
      <g transform="translate(37.3808 826.58538)scale(0.2592 -0.2592)">
       <use transform="translate(0 0.684375)" xlink:href="#DejaVuSans-49"/>
       <use transform="translate(63.623047 0.684375)" xlink:href="#DejaVuSans-48"/>
       <use transform="translate(128.203125 38.965625)scale(0.7)" xlink:href="#DejaVuSans-49"/>
      </g>
     </g>
    </g>
    <g id="ytick_9">
     <g id="line2d_26">
      <g>
       <use style="stroke:#000000;stroke-width:0.8;" x="90" xlink:href="#m7b6c21eba4" y="689.457428"/>
      </g>
     </g>
     <g id="text_20">
      <!-- $\mathdefault{10^{2}}$ -->
      <g transform="translate(37.3808 699.305003)scale(0.2592 -0.2592)">
       <use transform="translate(0 0.765625)" xlink:href="#DejaVuSans-49"/>
       <use transform="translate(63.623047 0.765625)" xlink:href="#DejaVuSans-48"/>
       <use transform="translate(128.203125 39.046875)scale(0.7)" xlink:href="#DejaVuSans-50"/>
      </g>
     </g>
    </g>
    <g id="ytick_10">
     <g id="line2d_27">
      <defs>
       <path d="M 0 0 
L -2 0 
" id="m869dc97513" style="stroke:#000000;stroke-width:0.6;"/>
      </defs>
      <g>
       <use style="stroke:#000000;stroke-width:0.6;" x="90" xlink:href="#m869dc97513" y="956.352925"/>
      </g>
     </g>
    </g>
    <g id="ytick_11">
     <g id="line2d_28">
      <g>
       <use style="stroke:#000000;stroke-width:0.6;" x="90" xlink:href="#m869dc97513" y="949.842212"/>
      </g>
     </g>
    </g>
    <g id="ytick_12">
     <g id="line2d_29">
      <g>
       <use style="stroke:#000000;stroke-width:0.6;" x="90" xlink:href="#m869dc97513" y="905.70297"/>
      </g>
     </g>
    </g>
    <g id="ytick_13">
     <g id="line2d_30">
      <g>
       <use style="stroke:#000000;stroke-width:0.6;" x="90" xlink:href="#m869dc97513" y="883.290009"/>
      </g>
     </g>
    </g>
    <g id="ytick_14">
     <g id="line2d_31">
      <g>
       <use style="stroke:#000000;stroke-width:0.6;" x="90" xlink:href="#m869dc97513" y="867.387759"/>
      </g>
     </g>
    </g>
    <g id="ytick_15">
     <g id="line2d_32">
      <g>
       <use style="stroke:#000000;stroke-width:0.6;" x="90" xlink:href="#m869dc97513" y="855.053016"/>
      </g>
     </g>
    </g>
    <g id="ytick_16">
     <g id="line2d_33">
      <g>
       <use style="stroke:#000000;stroke-width:0.6;" x="90" xlink:href="#m869dc97513" y="844.974797"/>
      </g>
     </g>
    </g>
    <g id="ytick_17">
     <g id="line2d_34">
      <g>
       <use style="stroke:#000000;stroke-width:0.6;" x="90" xlink:href="#m869dc97513" y="836.453785"/>
      </g>
     </g>
    </g>
    <g id="ytick_18">
     <g id="line2d_35">
      <g>
       <use style="stroke:#000000;stroke-width:0.6;" x="90" xlink:href="#m869dc97513" y="829.072548"/>
      </g>
     </g>
    </g>
    <g id="ytick_19">
     <g id="line2d_36">
      <g>
       <use style="stroke:#000000;stroke-width:0.6;" x="90" xlink:href="#m869dc97513" y="822.561835"/>
      </g>
     </g>
    </g>
    <g id="ytick_20">
     <g id="line2d_37">
      <g>
       <use style="stroke:#000000;stroke-width:0.6;" x="90" xlink:href="#m869dc97513" y="778.422593"/>
      </g>
     </g>
    </g>
    <g id="ytick_21">
     <g id="line2d_38">
      <g>
       <use style="stroke:#000000;stroke-width:0.6;" x="90" xlink:href="#m869dc97513" y="756.009632"/>
      </g>
     </g>
    </g>
    <g id="ytick_22">
     <g id="line2d_39">
      <g>
       <use style="stroke:#000000;stroke-width:0.6;" x="90" xlink:href="#m869dc97513" y="740.107382"/>
      </g>
     </g>
    </g>
    <g id="ytick_23">
     <g id="line2d_40">
      <g>
       <use style="stroke:#000000;stroke-width:0.6;" x="90" xlink:href="#m869dc97513" y="727.772639"/>
      </g>
     </g>
    </g>
    <g id="ytick_24">
     <g id="line2d_41">
      <g>
       <use style="stroke:#000000;stroke-width:0.6;" x="90" xlink:href="#m869dc97513" y="717.69442"/>
      </g>
     </g>
    </g>
    <g id="ytick_25">
     <g id="line2d_42">
      <g>
       <use style="stroke:#000000;stroke-width:0.6;" x="90" xlink:href="#m869dc97513" y="709.173408"/>
      </g>
     </g>
    </g>
    <g id="ytick_26">
     <g id="line2d_43">
      <g>
       <use style="stroke:#000000;stroke-width:0.6;" x="90" xlink:href="#m869dc97513" y="701.792171"/>
      </g>
     </g>
    </g>
    <g id="ytick_27">
     <g id="line2d_44">
      <g>
       <use style="stroke:#000000;stroke-width:0.6;" x="90" xlink:href="#m869dc97513" y="695.281458"/>
      </g>
     </g>
    </g>
    <g id="ytick_28">
     <g id="line2d_45">
      <g>
       <use style="stroke:#000000;stroke-width:0.6;" x="90" xlink:href="#m869dc97513" y="651.142216"/>
      </g>
     </g>
    </g>
    <g id="ytick_29">
     <g id="line2d_46">
      <g>
       <use style="stroke:#000000;stroke-width:0.6;" x="90" xlink:href="#m869dc97513" y="628.729255"/>
      </g>
     </g>
    </g>
    <g id="ytick_30">
     <g id="line2d_47">
      <g>
       <use style="stroke:#000000;stroke-width:0.6;" x="90" xlink:href="#m869dc97513" y="612.827005"/>
      </g>
     </g>
    </g>
    <g id="ytick_31">
     <g id="line2d_48">
      <g>
       <use style="stroke:#000000;stroke-width:0.6;" x="90" xlink:href="#m869dc97513" y="600.492262"/>
      </g>
     </g>
    </g>
    <g id="ytick_32">
     <g id="line2d_49">
      <g>
       <use style="stroke:#000000;stroke-width:0.6;" x="90" xlink:href="#m869dc97513" y="590.414043"/>
      </g>
     </g>
    </g>
    <g id="text_21">
     <!-- Count -->
     <g transform="translate(27.99025 810.68715)rotate(-90)scale(0.2592 -0.2592)">
      <use xlink:href="#DejaVuSans-67"/>
      <use x="69.824219" xlink:href="#DejaVuSans-111"/>
      <use x="131.005859" xlink:href="#DejaVuSans-117"/>
      <use x="194.384766" xlink:href="#DejaVuSans-110"/>
      <use x="257.763672" xlink:href="#DejaVuSans-116"/>
     </g>
    </g>
   </g>
   <g id="line2d_50">
    <path clip-path="url(#p60b53cb9a4)" d="M 97.063291 1081 
L 97.063291 944.018182 
L 104.126582 944.018182 
L 104.126582 740.107382 
L 111.189873 740.107382 
L 111.189873 657.274199 
L 118.253165 657.274199 
L 118.253165 625.857068 
L 125.316456 625.857068 
L 125.316456 612.965371 
L 132.379747 612.965371 
L 132.379747 606.316293 
L 139.443038 606.316293 
L 139.443038 601.383849 
L 146.506329 601.383849 
L 146.506329 600.381818 
L 153.56962 600.381818 
L 153.56962 602.633745 
L 160.632911 602.633745 
L 160.632911 607.182918 
L 167.696203 607.182918 
L 167.696203 604.503764 
L 174.759494 604.503764 
L 174.759494 612.004005 
L 181.822785 612.004005 
L 181.822785 618.34479 
L 188.886076 618.34479 
L 188.886076 630.985779 
L 195.949367 630.985779 
L 195.949367 631.564603 
L 203.012658 631.564603 
L 203.012658 641.526571 
L 210.075949 641.526571 
L 210.075949 648.182635 
L 217.139241 648.182635 
L 217.139241 645.373491 
L 224.202532 645.373491 
L 224.202532 647.144535 
L 231.265823 647.144535 
L 231.265823 663.132552 
L 238.329114 663.132552 
L 238.329114 656.355443 
L 245.392405 656.355443 
L 245.392405 662.790278 
L 252.455696 662.790278 
L 252.455696 663.823526 
L 259.518987 663.823526 
L 259.518987 678.920475 
L 266.582278 678.920475 
L 266.582278 677.56668 
L 273.64557 677.56668 
L 273.64557 695.899087 
L 280.708861 695.899087 
L 280.708861 688.362795 
L 287.772152 688.362795 
L 287.772152 697.15544 
L 294.835443 697.15544 
L 294.835443 701.792171 
L 301.898734 701.792171 
L 301.898734 728.889388 
L 308.962025 728.889388 
L 308.962025 719.568402 
L 316.025316 719.568402 
L 316.025316 718.62347 
L 323.088608 718.62347 
L 323.088608 734.838906 
L 337.21519 734.838906 
L 337.21519 736.109701 
L 344.278481 736.109701 
L 344.278481 742.94273 
L 351.341772 742.94273 
L 351.341772 756.009632 
L 358.405063 756.009632 
L 358.405063 754.197103 
L 372.531646 754.197103 
L 372.531646 761.833662 
L 379.594937 761.833662 
L 379.594937 781.257941 
L 386.658228 781.257941 
L 386.658228 798.138573 
L 393.721519 798.138573 
L 393.721519 781.257941 
L 400.78481 781.257941 
L 400.78481 754.197103 
L 407.848101 754.197103 
L 407.848101 763.919841 
L 414.911392 763.919841 
L 414.911392 741.506879 
L 421.974684 741.506879 
L 421.974684 787.406179 
L 429.037975 787.406179 
L 429.037975 778.422593 
L 436.101266 778.422593 
L 436.101266 811.469328 
L 443.164557 811.469328 
L 443.164557 836.453785 
L 450.227848 836.453785 
L 450.227848 806.659586 
L 457.291139 806.659586 
L 457.291139 816.737805 
L 464.35443 816.737805 
L 464.35443 844.974797 
L 471.417722 844.974797 
L 471.417722 798.138573 
L 478.481013 798.138573 
L 478.481013 855.053016 
L 485.544304 855.053016 
L 485.544304 816.737805 
L 492.607595 816.737805 
L 492.607595 867.387759 
L 506.734177 867.387759 
L 506.734177 836.453785 
L 513.797468 836.453785 
L 513.797468 844.974797 
L 520.860759 844.974797 
L 520.860759 816.737805 
L 527.924051 816.737805 
L 527.924051 883.290009 
L 542.050633 883.290009 
L 542.050633 822.561835 
L 549.113924 822.561835 
L 549.113924 855.053016 
L 556.177215 855.053016 
L 556.177215 883.290009 
L 563.240506 883.290009 
L 563.240506 836.453785 
L 570.303797 836.453785 
L 570.303797 867.387759 
L 584.43038 867.387759 
L 584.43038 905.70297 
L 605.620253 905.70297 
L 605.620253 883.290009 
L 612.683544 883.290009 
L 612.683544 822.561835 
L 619.746835 822.561835 
L 619.746835 883.290009 
L 626.810127 883.290009 
L 626.810127 905.70297 
L 633.873418 905.70297 
L 633.873418 883.290009 
L 640.936709 883.290009 
L 640.936709 867.387759 
L 648 867.387759 
L 648 867.387759 
" style="fill:none;stroke:#1f77b4;stroke-linecap:square;stroke-width:1.5;"/>
   </g>
   <g id="line2d_51">
    <path clip-path="url(#p60b53cb9a4)" d="M 97.063291 1081 
L 97.063291 944.018182 
L 104.126582 944.018182 
L 104.126582 742.94273 
L 111.189873 742.94273 
L 111.189873 660.125802 
L 118.253165 660.125802 
L 118.253165 628.179229 
L 125.316456 628.179229 
L 125.316456 618.040232 
L 132.379747 618.040232 
L 132.379747 610.925392 
L 139.443038 610.925392 
L 139.443038 604.266523 
L 146.506329 604.266523 
L 146.506329 604.385016 
L 153.56962 604.385016 
L 153.56962 605.463045 
L 160.632911 605.463045 
L 160.632911 609.998567 
L 167.696203 609.998567 
L 167.696203 606.562517 
L 174.759494 606.562517 
L 174.759494 613.522325 
L 181.822785 613.522325 
L 181.822785 620.208242 
L 188.886076 620.208242 
L 188.886076 633.338354 
L 195.949367 633.338354 
L 195.949367 633.942482 
L 203.012658 633.942482 
L 203.012658 645.373491 
L 210.075949 645.373491 
L 210.075949 650.319216 
L 217.139241 650.319216 
L 217.139241 646.632706 
L 224.202532 646.632706 
L 224.202532 650.047583 
L 231.265823 650.047583 
L 231.265823 665.949833 
L 238.329114 665.949833 
L 238.329114 657.583875 
L 245.392405 657.583875 
L 245.392405 665.58972 
L 259.518987 665.58972 
L 259.518987 680.778706 
L 266.582278 680.778706 
L 266.582278 679.379209 
L 273.64557 679.379209 
L 273.64557 697.15544 
L 280.708861 697.15544 
L 280.708861 688.907402 
L 287.772152 688.907402 
L 287.772152 698.441014 
L 294.835443 698.441014 
L 294.835443 704.627519 
L 301.898734 704.627519 
L 301.898734 730.029163 
L 308.962025 730.029163 
L 308.962025 723.518451 
L 316.025316 723.518451 
L 316.025316 720.529768 
L 323.088608 720.529768 
L 323.088608 737.4104 
L 337.21519 737.4104 
L 337.21519 738.742444 
L 344.278481 738.742444 
L 344.278481 742.94273 
L 351.341772 742.94273 
L 351.341772 757.883613 
L 358.405063 757.883613 
L 358.405063 759.823362 
L 365.468354 759.823362 
L 365.468354 754.197103 
L 372.531646 754.197103 
L 372.531646 763.919841 
L 379.594937 763.919841 
L 379.594937 784.246624 
L 386.658228 784.246624 
L 386.658228 798.138573 
L 393.721519 798.138573 
L 393.721519 781.257941 
L 400.78481 781.257941 
L 400.78481 756.009632 
L 407.848101 756.009632 
L 407.848101 763.919841 
L 414.911392 763.919841 
L 414.911392 741.506879 
L 421.974684 741.506879 
L 421.974684 790.757336 
L 429.037975 790.757336 
L 429.037975 781.257941 
L 436.101266 781.257941 
L 436.101266 822.561835 
L 443.164557 822.561835 
L 443.164557 836.453785 
L 450.227848 836.453785 
L 450.227848 816.737805 
L 464.35443 816.737805 
L 464.35443 844.974797 
L 471.417722 844.974797 
L 471.417722 802.235052 
L 478.481013 802.235052 
L 478.481013 855.053016 
L 485.544304 855.053016 
L 485.544304 816.737805 
L 492.607595 816.737805 
L 492.607595 867.387759 
L 506.734177 867.387759 
L 506.734177 844.974797 
L 520.860759 844.974797 
L 520.860759 822.561835 
L 527.924051 822.561835 
L 527.924051 883.290009 
L 542.050633 883.290009 
L 542.050633 822.561835 
L 549.113924 822.561835 
L 549.113924 855.053016 
L 556.177215 855.053016 
L 556.177215 883.290009 
L 563.240506 883.290009 
L 563.240506 836.453785 
L 570.303797 836.453785 
L 570.303797 867.387759 
L 577.367089 867.387759 
L 577.367089 883.290009 
L 584.43038 883.290009 
L 584.43038 905.70297 
L 605.620253 905.70297 
L 605.620253 883.290009 
L 612.683544 883.290009 
L 612.683544 822.561835 
L 619.746835 822.561835 
L 619.746835 883.290009 
L 626.810127 883.290009 
L 626.810127 905.70297 
L 633.873418 905.70297 
L 633.873418 883.290009 
L 640.936709 883.290009 
L 640.936709 867.387759 
L 648 867.387759 
L 648 867.387759 
" style="fill:none;stroke:#ff7f0e;stroke-linecap:square;stroke-width:1.5;"/>
   </g>
   <g id="patch_10">
    <path d="M 90 961.2 
L 90 583.2 
" style="fill:none;stroke:#000000;stroke-linecap:square;stroke-linejoin:miter;stroke-width:0.8;"/>
   </g>
   <g id="patch_11">
    <path d="M 648 961.2 
L 648 583.2 
" style="fill:none;stroke:#000000;stroke-linecap:square;stroke-linejoin:miter;stroke-width:0.8;"/>
   </g>
   <g id="patch_12">
    <path d="M 90 961.2 
L 648 961.2 
" style="fill:none;stroke:#000000;stroke-linecap:square;stroke-linejoin:miter;stroke-width:0.8;"/>
   </g>
   <g id="patch_13">
    <path d="M 90 583.2 
L 648 583.2 
" style="fill:none;stroke:#000000;stroke-linecap:square;stroke-linejoin:miter;stroke-width:0.8;"/>
   </g>
   <g id="legend_2">
    <g id="patch_14">
     <path d="M 374.307188 650.44125 
L 635.4 650.44125 
Q 639 650.44125 639 646.84125 
L 639 595.8 
Q 639 592.2 635.4 592.2 
L 374.307188 592.2 
Q 370.707188 592.2 370.707188 595.8 
L 370.707188 646.84125 
Q 370.707188 650.44125 374.307188 650.44125 
z
" style="fill:#ffffff;opacity:0.5;stroke:#cccccc;stroke-linejoin:miter;"/>
    </g>
    <g id="line2d_52">
     <path d="M 377.907188 606.777188 
L 413.907188 606.777188 
" style="fill:none;stroke:#1f77b4;stroke-linecap:square;stroke-width:1.5;"/>
    </g>
    <g id="line2d_53"/>
    <g id="text_22">
     <!-- photon shower -->
     <g transform="translate(428.307187 613.077188)scale(0.18 -0.18)">
      <use xlink:href="#DejaVuSans-112"/>
      <use x="63.476562" xlink:href="#DejaVuSans-104"/>
      <use x="126.855469" xlink:href="#DejaVuSans-111"/>
      <use x="188.037109" xlink:href="#DejaVuSans-116"/>
      <use x="227.246094" xlink:href="#DejaVuSans-111"/>
      <use x="288.427734" xlink:href="#DejaVuSans-110"/>
      <use x="351.806641" xlink:href="#DejaVuSans-32"/>
      <use x="383.59375" xlink:href="#DejaVuSans-115"/>
      <use x="435.693359" xlink:href="#DejaVuSans-104"/>
      <use x="499.072266" xlink:href="#DejaVuSans-111"/>
      <use x="560.253906" xlink:href="#DejaVuSans-119"/>
      <use x="642.041016" xlink:href="#DejaVuSans-101"/>
      <use x="703.564453" xlink:href="#DejaVuSans-114"/>
     </g>
    </g>
    <g id="line2d_54">
     <path d="M 377.907188 633.197813 
L 413.907188 633.197813 
" style="fill:none;stroke:#ff7f0e;stroke-linecap:square;stroke-width:1.5;"/>
    </g>
    <g id="line2d_55"/>
    <g id="text_23">
     <!-- correct photon shower -->
     <g transform="translate(428.307187 639.497813)scale(0.18 -0.18)">
      <use xlink:href="#DejaVuSans-99"/>
      <use x="54.980469" xlink:href="#DejaVuSans-111"/>
      <use x="116.162109" xlink:href="#DejaVuSans-114"/>
      <use x="157.259766" xlink:href="#DejaVuSans-114"/>
      <use x="198.341797" xlink:href="#DejaVuSans-101"/>
      <use x="259.865234" xlink:href="#DejaVuSans-99"/>
      <use x="314.845703" xlink:href="#DejaVuSans-116"/>
      <use x="354.054688" xlink:href="#DejaVuSans-32"/>
      <use x="385.841797" xlink:href="#DejaVuSans-112"/>
      <use x="449.318359" xlink:href="#DejaVuSans-104"/>
      <use x="512.697266" xlink:href="#DejaVuSans-111"/>
      <use x="573.878906" xlink:href="#DejaVuSans-116"/>
      <use x="613.087891" xlink:href="#DejaVuSans-111"/>
      <use x="674.269531" xlink:href="#DejaVuSans-110"/>
      <use x="737.648438" xlink:href="#DejaVuSans-32"/>
      <use x="769.435547" xlink:href="#DejaVuSans-115"/>
      <use x="821.535156" xlink:href="#DejaVuSans-104"/>
      <use x="884.914062" xlink:href="#DejaVuSans-111"/>
      <use x="946.095703" xlink:href="#DejaVuSans-119"/>
      <use x="1027.882812" xlink:href="#DejaVuSans-101"/>
      <use x="1089.40625" xlink:href="#DejaVuSans-114"/>
     </g>
    </g>
   </g>
  </g>
 </g>
 <defs>
  <clipPath id="p9a46122705">
   <rect height="378" width="558" x="90" y="129.6"/>
  </clipPath>
  <clipPath id="p60b53cb9a4">
   <rect height="378" width="558" x="90" y="583.2"/>
  </clipPath>
 </defs>
</svg>
