<?xml version="1.0" encoding="utf-8" standalone="no"?>
<!DOCTYPE svg PUBLIC "-//W3C//DTD SVG 1.1//EN"
  "http://www.w3.org/Graphics/SVG/1.1/DTD/svg11.dtd">
<!-- Created with matplotlib (https://matplotlib.org/) -->
<svg height="1080pt" version="1.1" viewBox="0 0 720 1080" width="720pt" xmlns="http://www.w3.org/2000/svg" xmlns:xlink="http://www.w3.org/1999/xlink">
 <defs>
  <style type="text/css">
*{stroke-linecap:butt;stroke-linejoin:round;}
  </style>
 </defs>
 <g id="figure_1">
  <g id="patch_1">
   <path d="M 0 1080 
L 720 1080 
L 720 0 
L 0 0 
z
" style="fill:#ffffff;"/>
  </g>
  <g id="axes_1">
   <g id="patch_2">
    <path d="M 90 507.6 
L 648 507.6 
L 648 129.6 
L 90 129.6 
z
" style="fill:#ffffff;"/>
   </g>
   <g id="matplotlib.axis_1">
    <g id="xtick_1">
     <g id="line2d_1">
      <defs>
       <path d="M 0 0 
L 0 3.5 
" id="m5f5a62262f" style="stroke:#000000;stroke-width:0.8;"/>
      </defs>
      <g>
       <use style="stroke:#000000;stroke-width:0.8;" x="90" xlink:href="#m5f5a62262f" y="507.6"/>
      </g>
     </g>
    </g>
    <g id="xtick_2">
     <g id="line2d_2">
      <g>
       <use style="stroke:#000000;stroke-width:0.8;" x="229.5" xlink:href="#m5f5a62262f" y="507.6"/>
      </g>
     </g>
    </g>
    <g id="xtick_3">
     <g id="line2d_3">
      <g>
       <use style="stroke:#000000;stroke-width:0.8;" x="369" xlink:href="#m5f5a62262f" y="507.6"/>
      </g>
     </g>
    </g>
    <g id="xtick_4">
     <g id="line2d_4">
      <g>
       <use style="stroke:#000000;stroke-width:0.8;" x="508.5" xlink:href="#m5f5a62262f" y="507.6"/>
      </g>
     </g>
    </g>
    <g id="xtick_5">
     <g id="line2d_5">
      <g>
       <use style="stroke:#000000;stroke-width:0.8;" x="648" xlink:href="#m5f5a62262f" y="507.6"/>
      </g>
     </g>
    </g>
    <g id="text_1">
     <!-- nHitsU+nHitsV+nHitsW -->
     <defs>
      <path d="M 54.890625 33.015625 
L 54.890625 0 
L 45.90625 0 
L 45.90625 32.71875 
Q 45.90625 40.484375 42.875 44.328125 
Q 39.84375 48.1875 33.796875 48.1875 
Q 26.515625 48.1875 22.3125 43.546875 
Q 18.109375 38.921875 18.109375 30.90625 
L 18.109375 0 
L 9.078125 0 
L 9.078125 54.6875 
L 18.109375 54.6875 
L 18.109375 46.1875 
Q 21.34375 51.125 25.703125 53.5625 
Q 30.078125 56 35.796875 56 
Q 45.21875 56 50.046875 50.171875 
Q 54.890625 44.34375 54.890625 33.015625 
z
" id="DejaVuSans-110"/>
      <path d="M 9.8125 72.90625 
L 19.671875 72.90625 
L 19.671875 43.015625 
L 55.515625 43.015625 
L 55.515625 72.90625 
L 65.375 72.90625 
L 65.375 0 
L 55.515625 0 
L 55.515625 34.71875 
L 19.671875 34.71875 
L 19.671875 0 
L 9.8125 0 
z
" id="DejaVuSans-72"/>
      <path d="M 9.421875 54.6875 
L 18.40625 54.6875 
L 18.40625 0 
L 9.421875 0 
z
M 9.421875 75.984375 
L 18.40625 75.984375 
L 18.40625 64.59375 
L 9.421875 64.59375 
z
" id="DejaVuSans-105"/>
      <path d="M 18.3125 70.21875 
L 18.3125 54.6875 
L 36.8125 54.6875 
L 36.8125 47.703125 
L 18.3125 47.703125 
L 18.3125 18.015625 
Q 18.3125 11.328125 20.140625 9.421875 
Q 21.96875 7.515625 27.59375 7.515625 
L 36.8125 7.515625 
L 36.8125 0 
L 27.59375 0 
Q 17.1875 0 13.234375 3.875 
Q 9.28125 7.765625 9.28125 18.015625 
L 9.28125 47.703125 
L 2.6875 47.703125 
L 2.6875 54.6875 
L 9.28125 54.6875 
L 9.28125 70.21875 
z
" id="DejaVuSans-116"/>
      <path d="M 44.28125 53.078125 
L 44.28125 44.578125 
Q 40.484375 46.53125 36.375 47.5 
Q 32.28125 48.484375 27.875 48.484375 
Q 21.1875 48.484375 17.84375 46.4375 
Q 14.5 44.390625 14.5 40.28125 
Q 14.5 37.15625 16.890625 35.375 
Q 19.28125 33.59375 26.515625 31.984375 
L 29.59375 31.296875 
Q 39.15625 29.25 43.1875 25.515625 
Q 47.21875 21.78125 47.21875 15.09375 
Q 47.21875 7.46875 41.1875 3.015625 
Q 35.15625 -1.421875 24.609375 -1.421875 
Q 20.21875 -1.421875 15.453125 -0.5625 
Q 10.6875 0.296875 5.421875 2 
L 5.421875 11.28125 
Q 10.40625 8.6875 15.234375 7.390625 
Q 20.0625 6.109375 24.8125 6.109375 
Q 31.15625 6.109375 34.5625 8.28125 
Q 37.984375 10.453125 37.984375 14.40625 
Q 37.984375 18.0625 35.515625 20.015625 
Q 33.0625 21.96875 24.703125 23.78125 
L 21.578125 24.515625 
Q 13.234375 26.265625 9.515625 29.90625 
Q 5.8125 33.546875 5.8125 39.890625 
Q 5.8125 47.609375 11.28125 51.796875 
Q 16.75 56 26.8125 56 
Q 31.78125 56 36.171875 55.265625 
Q 40.578125 54.546875 44.28125 53.078125 
z
" id="DejaVuSans-115"/>
      <path d="M 8.6875 72.90625 
L 18.609375 72.90625 
L 18.609375 28.609375 
Q 18.609375 16.890625 22.84375 11.734375 
Q 27.09375 6.59375 36.625 6.59375 
Q 46.09375 6.59375 50.34375 11.734375 
Q 54.59375 16.890625 54.59375 28.609375 
L 54.59375 72.90625 
L 64.5 72.90625 
L 64.5 27.390625 
Q 64.5 13.140625 57.4375 5.859375 
Q 50.390625 -1.421875 36.625 -1.421875 
Q 22.796875 -1.421875 15.734375 5.859375 
Q 8.6875 13.140625 8.6875 27.390625 
z
" id="DejaVuSans-85"/>
      <path d="M 46 62.703125 
L 46 35.5 
L 73.1875 35.5 
L 73.1875 27.203125 
L 46 27.203125 
L 46 0 
L 37.796875 0 
L 37.796875 27.203125 
L 10.59375 27.203125 
L 10.59375 35.5 
L 37.796875 35.5 
L 37.796875 62.703125 
z
" id="DejaVuSans-43"/>
      <path d="M 28.609375 0 
L 0.78125 72.90625 
L 11.078125 72.90625 
L 34.1875 11.53125 
L 57.328125 72.90625 
L 67.578125 72.90625 
L 39.796875 0 
z
" id="DejaVuSans-86"/>
      <path d="M 3.328125 72.90625 
L 13.28125 72.90625 
L 28.609375 11.28125 
L 43.890625 72.90625 
L 54.984375 72.90625 
L 70.3125 11.28125 
L 85.59375 72.90625 
L 95.609375 72.90625 
L 77.296875 0 
L 64.890625 0 
L 49.515625 63.28125 
L 33.984375 0 
L 21.578125 0 
z
" id="DejaVuSans-87"/>
     </defs>
     <g transform="translate(215.93835 531.29515)scale(0.2592 -0.2592)">
      <use xlink:href="#DejaVuSans-110"/>
      <use x="63.378906" xlink:href="#DejaVuSans-72"/>
      <use x="138.574219" xlink:href="#DejaVuSans-105"/>
      <use x="166.357422" xlink:href="#DejaVuSans-116"/>
      <use x="205.566406" xlink:href="#DejaVuSans-115"/>
      <use x="257.666016" xlink:href="#DejaVuSans-85"/>
      <use x="330.859375" xlink:href="#DejaVuSans-43"/>
      <use x="414.648438" xlink:href="#DejaVuSans-110"/>
      <use x="478.027344" xlink:href="#DejaVuSans-72"/>
      <use x="553.222656" xlink:href="#DejaVuSans-105"/>
      <use x="581.005859" xlink:href="#DejaVuSans-116"/>
      <use x="620.214844" xlink:href="#DejaVuSans-115"/>
      <use x="672.314453" xlink:href="#DejaVuSans-86"/>
      <use x="740.722656" xlink:href="#DejaVuSans-43"/>
      <use x="824.511719" xlink:href="#DejaVuSans-110"/>
      <use x="887.890625" xlink:href="#DejaVuSans-72"/>
      <use x="963.085938" xlink:href="#DejaVuSans-105"/>
      <use x="990.869141" xlink:href="#DejaVuSans-116"/>
      <use x="1030.078125" xlink:href="#DejaVuSans-115"/>
      <use x="1082.177734" xlink:href="#DejaVuSans-87"/>
     </g>
    </g>
   </g>
   <g id="matplotlib.axis_2">
    <g id="ytick_1">
     <g id="line2d_6">
      <defs>
       <path d="M 0 0 
L -3.5 0 
" id="m3d22ef85f0" style="stroke:#000000;stroke-width:0.8;"/>
      </defs>
      <g>
       <use style="stroke:#000000;stroke-width:0.8;" x="90" xlink:href="#m3d22ef85f0" y="507.6"/>
      </g>
     </g>
     <g id="text_2">
      <!-- 0.0 -->
      <defs>
       <path d="M 31.78125 66.40625 
Q 24.171875 66.40625 20.328125 58.90625 
Q 16.5 51.421875 16.5 36.375 
Q 16.5 21.390625 20.328125 13.890625 
Q 24.171875 6.390625 31.78125 6.390625 
Q 39.453125 6.390625 43.28125 13.890625 
Q 47.125 21.390625 47.125 36.375 
Q 47.125 51.421875 43.28125 58.90625 
Q 39.453125 66.40625 31.78125 66.40625 
z
M 31.78125 74.21875 
Q 44.046875 74.21875 50.515625 64.515625 
Q 56.984375 54.828125 56.984375 36.375 
Q 56.984375 17.96875 50.515625 8.265625 
Q 44.046875 -1.421875 31.78125 -1.421875 
Q 19.53125 -1.421875 13.0625 8.265625 
Q 6.59375 17.96875 6.59375 36.375 
Q 6.59375 54.828125 13.0625 64.515625 
Q 19.53125 74.21875 31.78125 74.21875 
z
" id="DejaVuSans-48"/>
       <path d="M 10.6875 12.40625 
L 21 12.40625 
L 21 0 
L 10.6875 0 
z
" id="DejaVuSans-46"/>
      </defs>
      <g transform="translate(41.7791 517.447575)scale(0.2592 -0.2592)">
       <use xlink:href="#DejaVuSans-48"/>
       <use x="63.623047" xlink:href="#DejaVuSans-46"/>
       <use x="95.410156" xlink:href="#DejaVuSans-48"/>
      </g>
     </g>
    </g>
    <g id="ytick_2">
     <g id="line2d_7">
      <g>
       <use style="stroke:#000000;stroke-width:0.8;" x="90" xlink:href="#m3d22ef85f0" y="432.748515"/>
      </g>
     </g>
     <g id="text_3">
      <!-- 0.2 -->
      <defs>
       <path d="M 19.1875 8.296875 
L 53.609375 8.296875 
L 53.609375 0 
L 7.328125 0 
L 7.328125 8.296875 
Q 12.9375 14.109375 22.625 23.890625 
Q 32.328125 33.6875 34.8125 36.53125 
Q 39.546875 41.84375 41.421875 45.53125 
Q 43.3125 49.21875 43.3125 52.78125 
Q 43.3125 58.59375 39.234375 62.25 
Q 35.15625 65.921875 28.609375 65.921875 
Q 23.96875 65.921875 18.8125 64.3125 
Q 13.671875 62.703125 7.8125 59.421875 
L 7.8125 69.390625 
Q 13.765625 71.78125 18.9375 73 
Q 24.125 74.21875 28.421875 74.21875 
Q 39.75 74.21875 46.484375 68.546875 
Q 53.21875 62.890625 53.21875 53.421875 
Q 53.21875 48.921875 51.53125 44.890625 
Q 49.859375 40.875 45.40625 35.40625 
Q 44.1875 33.984375 37.640625 27.21875 
Q 31.109375 20.453125 19.1875 8.296875 
z
" id="DejaVuSans-50"/>
      </defs>
      <g transform="translate(41.7791 442.59609)scale(0.2592 -0.2592)">
       <use xlink:href="#DejaVuSans-48"/>
       <use x="63.623047" xlink:href="#DejaVuSans-46"/>
       <use x="95.410156" xlink:href="#DejaVuSans-50"/>
      </g>
     </g>
    </g>
    <g id="ytick_3">
     <g id="line2d_8">
      <g>
       <use style="stroke:#000000;stroke-width:0.8;" x="90" xlink:href="#m3d22ef85f0" y="357.89703"/>
      </g>
     </g>
     <g id="text_4">
      <!-- 0.4 -->
      <defs>
       <path d="M 37.796875 64.3125 
L 12.890625 25.390625 
L 37.796875 25.390625 
z
M 35.203125 72.90625 
L 47.609375 72.90625 
L 47.609375 25.390625 
L 58.015625 25.390625 
L 58.015625 17.1875 
L 47.609375 17.1875 
L 47.609375 0 
L 37.796875 0 
L 37.796875 17.1875 
L 4.890625 17.1875 
L 4.890625 26.703125 
z
" id="DejaVuSans-52"/>
      </defs>
      <g transform="translate(41.7791 367.744605)scale(0.2592 -0.2592)">
       <use xlink:href="#DejaVuSans-48"/>
       <use x="63.623047" xlink:href="#DejaVuSans-46"/>
       <use x="95.410156" xlink:href="#DejaVuSans-52"/>
      </g>
     </g>
    </g>
    <g id="ytick_4">
     <g id="line2d_9">
      <g>
       <use style="stroke:#000000;stroke-width:0.8;" x="90" xlink:href="#m3d22ef85f0" y="283.045545"/>
      </g>
     </g>
     <g id="text_5">
      <!-- 0.6 -->
      <defs>
       <path d="M 33.015625 40.375 
Q 26.375 40.375 22.484375 35.828125 
Q 18.609375 31.296875 18.609375 23.390625 
Q 18.609375 15.53125 22.484375 10.953125 
Q 26.375 6.390625 33.015625 6.390625 
Q 39.65625 6.390625 43.53125 10.953125 
Q 47.40625 15.53125 47.40625 23.390625 
Q 47.40625 31.296875 43.53125 35.828125 
Q 39.65625 40.375 33.015625 40.375 
z
M 52.59375 71.296875 
L 52.59375 62.3125 
Q 48.875 64.0625 45.09375 64.984375 
Q 41.3125 65.921875 37.59375 65.921875 
Q 27.828125 65.921875 22.671875 59.328125 
Q 17.53125 52.734375 16.796875 39.40625 
Q 19.671875 43.65625 24.015625 45.921875 
Q 28.375 48.1875 33.59375 48.1875 
Q 44.578125 48.1875 50.953125 41.515625 
Q 57.328125 34.859375 57.328125 23.390625 
Q 57.328125 12.15625 50.6875 5.359375 
Q 44.046875 -1.421875 33.015625 -1.421875 
Q 20.359375 -1.421875 13.671875 8.265625 
Q 6.984375 17.96875 6.984375 36.375 
Q 6.984375 53.65625 15.1875 63.9375 
Q 23.390625 74.21875 37.203125 74.21875 
Q 40.921875 74.21875 44.703125 73.484375 
Q 48.484375 72.75 52.59375 71.296875 
z
" id="DejaVuSans-54"/>
      </defs>
      <g transform="translate(41.7791 292.89312)scale(0.2592 -0.2592)">
       <use xlink:href="#DejaVuSans-48"/>
       <use x="63.623047" xlink:href="#DejaVuSans-46"/>
       <use x="95.410156" xlink:href="#DejaVuSans-54"/>
      </g>
     </g>
    </g>
    <g id="ytick_5">
     <g id="line2d_10">
      <g>
       <use style="stroke:#000000;stroke-width:0.8;" x="90" xlink:href="#m3d22ef85f0" y="208.194059"/>
      </g>
     </g>
     <g id="text_6">
      <!-- 0.8 -->
      <defs>
       <path d="M 31.78125 34.625 
Q 24.75 34.625 20.71875 30.859375 
Q 16.703125 27.09375 16.703125 20.515625 
Q 16.703125 13.921875 20.71875 10.15625 
Q 24.75 6.390625 31.78125 6.390625 
Q 38.8125 6.390625 42.859375 10.171875 
Q 46.921875 13.96875 46.921875 20.515625 
Q 46.921875 27.09375 42.890625 30.859375 
Q 38.875 34.625 31.78125 34.625 
z
M 21.921875 38.8125 
Q 15.578125 40.375 12.03125 44.71875 
Q 8.5 49.078125 8.5 55.328125 
Q 8.5 64.0625 14.71875 69.140625 
Q 20.953125 74.21875 31.78125 74.21875 
Q 42.671875 74.21875 48.875 69.140625 
Q 55.078125 64.0625 55.078125 55.328125 
Q 55.078125 49.078125 51.53125 44.71875 
Q 48 40.375 41.703125 38.8125 
Q 48.828125 37.15625 52.796875 32.3125 
Q 56.78125 27.484375 56.78125 20.515625 
Q 56.78125 9.90625 50.3125 4.234375 
Q 43.84375 -1.421875 31.78125 -1.421875 
Q 19.734375 -1.421875 13.25 4.234375 
Q 6.78125 9.90625 6.78125 20.515625 
Q 6.78125 27.484375 10.78125 32.3125 
Q 14.796875 37.15625 21.921875 38.8125 
z
M 18.3125 54.390625 
Q 18.3125 48.734375 21.84375 45.5625 
Q 25.390625 42.390625 31.78125 42.390625 
Q 38.140625 42.390625 41.71875 45.5625 
Q 45.3125 48.734375 45.3125 54.390625 
Q 45.3125 60.0625 41.71875 63.234375 
Q 38.140625 66.40625 31.78125 66.40625 
Q 25.390625 66.40625 21.84375 63.234375 
Q 18.3125 60.0625 18.3125 54.390625 
z
" id="DejaVuSans-56"/>
      </defs>
      <g transform="translate(41.7791 218.041634)scale(0.2592 -0.2592)">
       <use xlink:href="#DejaVuSans-48"/>
       <use x="63.623047" xlink:href="#DejaVuSans-46"/>
       <use x="95.410156" xlink:href="#DejaVuSans-56"/>
      </g>
     </g>
    </g>
    <g id="ytick_6">
     <g id="line2d_11">
      <g>
       <use style="stroke:#000000;stroke-width:0.8;" x="90" xlink:href="#m3d22ef85f0" y="133.342574"/>
      </g>
     </g>
     <g id="text_7">
      <!-- 1.0 -->
      <defs>
       <path d="M 12.40625 8.296875 
L 28.515625 8.296875 
L 28.515625 63.921875 
L 10.984375 60.40625 
L 10.984375 69.390625 
L 28.421875 72.90625 
L 38.28125 72.90625 
L 38.28125 8.296875 
L 54.390625 8.296875 
L 54.390625 0 
L 12.40625 0 
z
" id="DejaVuSans-49"/>
      </defs>
      <g transform="translate(41.7791 143.190149)scale(0.2592 -0.2592)">
       <use xlink:href="#DejaVuSans-49"/>
       <use x="63.623047" xlink:href="#DejaVuSans-46"/>
       <use x="95.410156" xlink:href="#DejaVuSans-48"/>
      </g>
     </g>
    </g>
    <g id="text_8">
     <!-- Fraction -->
     <defs>
      <path d="M 9.8125 72.90625 
L 51.703125 72.90625 
L 51.703125 64.59375 
L 19.671875 64.59375 
L 19.671875 43.109375 
L 48.578125 43.109375 
L 48.578125 34.8125 
L 19.671875 34.8125 
L 19.671875 0 
L 9.8125 0 
z
" id="DejaVuSans-70"/>
      <path d="M 41.109375 46.296875 
Q 39.59375 47.171875 37.8125 47.578125 
Q 36.03125 48 33.890625 48 
Q 26.265625 48 22.1875 43.046875 
Q 18.109375 38.09375 18.109375 28.8125 
L 18.109375 0 
L 9.078125 0 
L 9.078125 54.6875 
L 18.109375 54.6875 
L 18.109375 46.1875 
Q 20.953125 51.171875 25.484375 53.578125 
Q 30.03125 56 36.53125 56 
Q 37.453125 56 38.578125 55.875 
Q 39.703125 55.765625 41.0625 55.515625 
z
" id="DejaVuSans-114"/>
      <path d="M 34.28125 27.484375 
Q 23.390625 27.484375 19.1875 25 
Q 14.984375 22.515625 14.984375 16.5 
Q 14.984375 11.71875 18.140625 8.90625 
Q 21.296875 6.109375 26.703125 6.109375 
Q 34.1875 6.109375 38.703125 11.40625 
Q 43.21875 16.703125 43.21875 25.484375 
L 43.21875 27.484375 
z
M 52.203125 31.203125 
L 52.203125 0 
L 43.21875 0 
L 43.21875 8.296875 
Q 40.140625 3.328125 35.546875 0.953125 
Q 30.953125 -1.421875 24.3125 -1.421875 
Q 15.921875 -1.421875 10.953125 3.296875 
Q 6 8.015625 6 15.921875 
Q 6 25.140625 12.171875 29.828125 
Q 18.359375 34.515625 30.609375 34.515625 
L 43.21875 34.515625 
L 43.21875 35.40625 
Q 43.21875 41.609375 39.140625 45 
Q 35.0625 48.390625 27.6875 48.390625 
Q 23 48.390625 18.546875 47.265625 
Q 14.109375 46.140625 10.015625 43.890625 
L 10.015625 52.203125 
Q 14.9375 54.109375 19.578125 55.046875 
Q 24.21875 56 28.609375 56 
Q 40.484375 56 46.34375 49.84375 
Q 52.203125 43.703125 52.203125 31.203125 
z
" id="DejaVuSans-97"/>
      <path d="M 48.78125 52.59375 
L 48.78125 44.1875 
Q 44.96875 46.296875 41.140625 47.34375 
Q 37.3125 48.390625 33.40625 48.390625 
Q 24.65625 48.390625 19.8125 42.84375 
Q 14.984375 37.3125 14.984375 27.296875 
Q 14.984375 17.28125 19.8125 11.734375 
Q 24.65625 6.203125 33.40625 6.203125 
Q 37.3125 6.203125 41.140625 7.25 
Q 44.96875 8.296875 48.78125 10.40625 
L 48.78125 2.09375 
Q 45.015625 0.34375 40.984375 -0.53125 
Q 36.96875 -1.421875 32.421875 -1.421875 
Q 20.0625 -1.421875 12.78125 6.34375 
Q 5.515625 14.109375 5.515625 27.296875 
Q 5.515625 40.671875 12.859375 48.328125 
Q 20.21875 56 33.015625 56 
Q 37.15625 56 41.109375 55.140625 
Q 45.0625 54.296875 48.78125 52.59375 
z
" id="DejaVuSans-99"/>
      <path d="M 30.609375 48.390625 
Q 23.390625 48.390625 19.1875 42.75 
Q 14.984375 37.109375 14.984375 27.296875 
Q 14.984375 17.484375 19.15625 11.84375 
Q 23.34375 6.203125 30.609375 6.203125 
Q 37.796875 6.203125 41.984375 11.859375 
Q 46.1875 17.53125 46.1875 27.296875 
Q 46.1875 37.015625 41.984375 42.703125 
Q 37.796875 48.390625 30.609375 48.390625 
z
M 30.609375 56 
Q 42.328125 56 49.015625 48.375 
Q 55.71875 40.765625 55.71875 27.296875 
Q 55.71875 13.875 49.015625 6.21875 
Q 42.328125 -1.421875 30.609375 -1.421875 
Q 18.84375 -1.421875 12.171875 6.21875 
Q 5.515625 13.875 5.515625 27.296875 
Q 5.515625 40.765625 12.171875 48.375 
Q 18.84375 56 30.609375 56 
z
" id="DejaVuSans-111"/>
     </defs>
     <g transform="translate(32.38855 371.260125)rotate(-90)scale(0.2592 -0.2592)">
      <use xlink:href="#DejaVuSans-70"/>
      <use x="57.410156" xlink:href="#DejaVuSans-114"/>
      <use x="98.523438" xlink:href="#DejaVuSans-97"/>
      <use x="159.802734" xlink:href="#DejaVuSans-99"/>
      <use x="214.783203" xlink:href="#DejaVuSans-116"/>
      <use x="253.992188" xlink:href="#DejaVuSans-105"/>
      <use x="281.775391" xlink:href="#DejaVuSans-111"/>
      <use x="342.957031" xlink:href="#DejaVuSans-110"/>
     </g>
    </g>
   </g>
   <g id="LineCollection_1">
    <path clip-path="url(#p5c3d8313dd)" d="M 125.769231 133.342574 
L 125.769231 133.342574 
" style="fill:none;stroke:#008000;stroke-width:1.5;"/>
    <path clip-path="url(#p5c3d8313dd)" d="M 140.076923 146.748981 
L 140.076923 139.047185 
" style="fill:none;stroke:#008000;stroke-width:1.5;"/>
    <path clip-path="url(#p5c3d8313dd)" d="M 154.384615 151.53896 
L 154.384615 145.250991 
" style="fill:none;stroke:#008000;stroke-width:1.5;"/>
    <path clip-path="url(#p5c3d8313dd)" d="M 168.692308 159.075637 
L 168.692308 151.639797 
" style="fill:none;stroke:#008000;stroke-width:1.5;"/>
    <path clip-path="url(#p5c3d8313dd)" d="M 183 173.326997 
L 183 163.483779 
" style="fill:none;stroke:#008000;stroke-width:1.5;"/>
    <path clip-path="url(#p5c3d8313dd)" d="M 197.307692 183.847542 
L 197.307692 172.595276 
" style="fill:none;stroke:#008000;stroke-width:1.5;"/>
    <path clip-path="url(#p5c3d8313dd)" d="M 211.615385 178.123879 
L 211.615385 167.264173 
" style="fill:none;stroke:#008000;stroke-width:1.5;"/>
    <path clip-path="url(#p5c3d8313dd)" d="M 225.923077 162.62919 
L 225.923077 153.846303 
" style="fill:none;stroke:#008000;stroke-width:1.5;"/>
    <path clip-path="url(#p5c3d8313dd)" d="M 240.230769 170.867581 
L 240.230769 160.677168 
" style="fill:none;stroke:#008000;stroke-width:1.5;"/>
    <path clip-path="url(#p5c3d8313dd)" d="M 254.538462 155.712504 
L 254.538462 147.532496 
" style="fill:none;stroke:#008000;stroke-width:1.5;"/>
    <path clip-path="url(#p5c3d8313dd)" d="M 268.846154 155.079619 
L 268.846154 146.756779 
" style="fill:none;stroke:#008000;stroke-width:1.5;"/>
    <path clip-path="url(#p5c3d8313dd)" d="M 283.153846 151.230314 
L 283.153846 143.578224 
" style="fill:none;stroke:#008000;stroke-width:1.5;"/>
    <path clip-path="url(#p5c3d8313dd)" d="M 297.461538 149.906343 
L 297.461538 141.7293 
" style="fill:none;stroke:#008000;stroke-width:1.5;"/>
    <path clip-path="url(#p5c3d8313dd)" d="M 311.769231 144.176884 
L 311.769231 137.94156 
" style="fill:none;stroke:#008000;stroke-width:1.5;"/>
    <path clip-path="url(#p5c3d8313dd)" d="M 326.076923 138.528098 
L 326.076923 134.242537 
" style="fill:none;stroke:#008000;stroke-width:1.5;"/>
    <path clip-path="url(#p5c3d8313dd)" d="M 340.384615 139.655287 
L 340.384615 134.440899 
" style="fill:none;stroke:#008000;stroke-width:1.5;"/>
    <path clip-path="url(#p5c3d8313dd)" d="M 354.692308 137.236006 
L 354.692308 133.347657 
" style="fill:none;stroke:#008000;stroke-width:1.5;"/>
    <path clip-path="url(#p5c3d8313dd)" d="M 369 149.486525 
L 369 140.22985 
" style="fill:none;stroke:#008000;stroke-width:1.5;"/>
    <path clip-path="url(#p5c3d8313dd)" d="M 383.307692 144.304918 
L 383.307692 136.327712 
" style="fill:none;stroke:#008000;stroke-width:1.5;"/>
    <path clip-path="url(#p5c3d8313dd)" d="M 397.615385 148.748919 
L 397.615385 139.322368 
" style="fill:none;stroke:#008000;stroke-width:1.5;"/>
    <path clip-path="url(#p5c3d8313dd)" d="M 411.923077 139.36679 
L 411.923077 133.354769 
" style="fill:none;stroke:#008000;stroke-width:1.5;"/>
    <path clip-path="url(#p5c3d8313dd)" d="M 426.230769 150.52672 
L 426.230769 139.189655 
" style="fill:none;stroke:#008000;stroke-width:1.5;"/>
    <path clip-path="url(#p5c3d8313dd)" d="M 440.538462 133.342574 
L 440.538462 133.342574 
" style="fill:none;stroke:#008000;stroke-width:1.5;"/>
    <path clip-path="url(#p5c3d8313dd)" d="M 454.846154 152.899349 
L 454.846154 138.736295 
" style="fill:none;stroke:#008000;stroke-width:1.5;"/>
    <path clip-path="url(#p5c3d8313dd)" d="M 469.153846 142.669679 
L 469.153846 133.371905 
" style="fill:none;stroke:#008000;stroke-width:1.5;"/>
    <path clip-path="url(#p5c3d8313dd)" d="M 483.461538 144.309527 
L 483.461538 133.383193 
" style="fill:none;stroke:#008000;stroke-width:1.5;"/>
    <path clip-path="url(#p5c3d8313dd)" d="M 497.769231 133.342574 
L 497.769231 133.342574 
" style="fill:none;stroke:#008000;stroke-width:1.5;"/>
    <path clip-path="url(#p5c3d8313dd)" d="M 512.076923 143.423351 
L 512.076923 133.376863 
" style="fill:none;stroke:#008000;stroke-width:1.5;"/>
    <path clip-path="url(#p5c3d8313dd)" d="M 526.384615 159.197281 
L 526.384615 138.039494 
" style="fill:none;stroke:#008000;stroke-width:1.5;"/>
    <path clip-path="url(#p5c3d8313dd)" d="M 540.692308 148.854987 
L 540.692308 133.424221 
" style="fill:none;stroke:#008000;stroke-width:1.5;"/>
    <path clip-path="url(#p5c3d8313dd)" d="M 555 133.342574 
L 555 133.342574 
" style="fill:none;stroke:#008000;stroke-width:1.5;"/>
    <path clip-path="url(#p5c3d8313dd)" d="M 569.307692 133.342574 
L 569.307692 133.342574 
" style="fill:none;stroke:#008000;stroke-width:1.5;"/>
    <path clip-path="url(#p5c3d8313dd)" d="M 583.615385 149.883309 
L 583.615385 133.435503 
" style="fill:none;stroke:#008000;stroke-width:1.5;"/>
    <path clip-path="url(#p5c3d8313dd)" d="M 597.923077 147.66755 
L 597.923077 133.412115 
" style="fill:none;stroke:#008000;stroke-width:1.5;"/>
    <path clip-path="url(#p5c3d8313dd)" d="M 612.230769 155.194633 
L 612.230769 133.505658 
" style="fill:none;stroke:#008000;stroke-width:1.5;"/>
    <path clip-path="url(#p5c3d8313dd)" d="M 626.538462 133.342574 
L 626.538462 133.342574 
" style="fill:none;stroke:#008000;stroke-width:1.5;"/>
    <path clip-path="url(#p5c3d8313dd)" d="M 640.846154 133.342574 
L 640.846154 133.342574 
" style="fill:none;stroke:#008000;stroke-width:1.5;"/>
   </g>
   <g id="line2d_12">
    <path clip-path="url(#p5c3d8313dd)" d="M 118.615385 133.342574 
L 132.923077 133.342574 
L 132.923077 142.898083 
L 147.230769 142.898083 
L 147.230769 148.394975 
L 161.538462 148.394975 
L 161.538462 155.357717 
L 175.846154 155.357717 
L 175.846154 168.405388 
L 190.153846 168.405388 
L 190.153846 178.221409 
L 204.461538 178.221409 
L 204.461538 172.694026 
L 218.769231 172.694026 
L 218.769231 158.237747 
L 233.076923 158.237747 
L 233.076923 165.772375 
L 247.384615 165.772375 
L 247.384615 151.6225 
L 261.692308 151.6225 
L 261.692308 150.918199 
L 276 150.918199 
L 276 147.404269 
L 290.307692 147.404269 
L 290.307692 145.817822 
L 304.615385 145.817822 
L 304.615385 141.059222 
L 318.923077 141.059222 
L 318.923077 136.385318 
L 333.230769 136.385318 
L 333.230769 137.048093 
L 347.538462 137.048093 
L 347.538462 135.291832 
L 361.846154 135.291832 
L 361.846154 144.858187 
L 376.153846 144.858187 
L 376.153846 140.316315 
L 390.461538 140.316315 
L 390.461538 144.035644 
L 404.769231 144.035644 
L 404.769231 136.360779 
L 419.076923 136.360779 
L 419.076923 144.858187 
L 433.384615 144.858187 
L 433.384615 133.342574 
L 447.692308 133.342574 
L 447.692308 145.817822 
L 462 145.817822 
L 462 138.020792 
L 476.307692 138.020792 
L 476.307692 138.84636 
L 490.615385 138.84636 
L 490.615385 133.342574 
L 504.923077 133.342574 
L 504.923077 138.400107 
L 519.230769 138.400107 
L 519.230769 148.618388 
L 533.538462 148.618388 
L 533.538462 141.139604 
L 547.846154 141.139604 
L 547.846154 133.342574 
L 562.153846 133.342574 
L 562.153846 133.342574 
L 576.461538 133.342574 
L 576.461538 141.659406 
L 590.769231 141.659406 
L 590.769231 140.539832 
L 605.076923 140.539832 
L 605.076923 144.350146 
L 619.384615 144.350146 
L 619.384615 133.342574 
L 633.692308 133.342574 
L 633.692308 133.342574 
L 648 133.342574 
" style="fill:none;stroke:#008000;stroke-linecap:square;stroke-width:1.5;"/>
   </g>
   <g id="line2d_13">
    <defs>
     <path d="M 2 0 
L -2 -0 
" id="m6cfea19621" style="stroke:#008000;"/>
    </defs>
    <g clip-path="url(#p5c3d8313dd)">
     <use style="fill:#008000;stroke:#008000;" x="125.769231" xlink:href="#m6cfea19621" y="133.342574"/>
     <use style="fill:#008000;stroke:#008000;" x="140.076923" xlink:href="#m6cfea19621" y="146.748981"/>
     <use style="fill:#008000;stroke:#008000;" x="154.384615" xlink:href="#m6cfea19621" y="151.53896"/>
     <use style="fill:#008000;stroke:#008000;" x="168.692308" xlink:href="#m6cfea19621" y="159.075637"/>
     <use style="fill:#008000;stroke:#008000;" x="183" xlink:href="#m6cfea19621" y="173.326997"/>
     <use style="fill:#008000;stroke:#008000;" x="197.307692" xlink:href="#m6cfea19621" y="183.847542"/>
     <use style="fill:#008000;stroke:#008000;" x="211.615385" xlink:href="#m6cfea19621" y="178.123879"/>
     <use style="fill:#008000;stroke:#008000;" x="225.923077" xlink:href="#m6cfea19621" y="162.62919"/>
     <use style="fill:#008000;stroke:#008000;" x="240.230769" xlink:href="#m6cfea19621" y="170.867581"/>
     <use style="fill:#008000;stroke:#008000;" x="254.538462" xlink:href="#m6cfea19621" y="155.712504"/>
     <use style="fill:#008000;stroke:#008000;" x="268.846154" xlink:href="#m6cfea19621" y="155.079619"/>
     <use style="fill:#008000;stroke:#008000;" x="283.153846" xlink:href="#m6cfea19621" y="151.230314"/>
     <use style="fill:#008000;stroke:#008000;" x="297.461538" xlink:href="#m6cfea19621" y="149.906343"/>
     <use style="fill:#008000;stroke:#008000;" x="311.769231" xlink:href="#m6cfea19621" y="144.176884"/>
     <use style="fill:#008000;stroke:#008000;" x="326.076923" xlink:href="#m6cfea19621" y="138.528098"/>
     <use style="fill:#008000;stroke:#008000;" x="340.384615" xlink:href="#m6cfea19621" y="139.655287"/>
     <use style="fill:#008000;stroke:#008000;" x="354.692308" xlink:href="#m6cfea19621" y="137.236006"/>
     <use style="fill:#008000;stroke:#008000;" x="369" xlink:href="#m6cfea19621" y="149.486525"/>
     <use style="fill:#008000;stroke:#008000;" x="383.307692" xlink:href="#m6cfea19621" y="144.304918"/>
     <use style="fill:#008000;stroke:#008000;" x="397.615385" xlink:href="#m6cfea19621" y="148.748919"/>
     <use style="fill:#008000;stroke:#008000;" x="411.923077" xlink:href="#m6cfea19621" y="139.36679"/>
     <use style="fill:#008000;stroke:#008000;" x="426.230769" xlink:href="#m6cfea19621" y="150.52672"/>
     <use style="fill:#008000;stroke:#008000;" x="440.538462" xlink:href="#m6cfea19621" y="133.342574"/>
     <use style="fill:#008000;stroke:#008000;" x="454.846154" xlink:href="#m6cfea19621" y="152.899349"/>
     <use style="fill:#008000;stroke:#008000;" x="469.153846" xlink:href="#m6cfea19621" y="142.669679"/>
     <use style="fill:#008000;stroke:#008000;" x="483.461538" xlink:href="#m6cfea19621" y="144.309527"/>
     <use style="fill:#008000;stroke:#008000;" x="497.769231" xlink:href="#m6cfea19621" y="133.342574"/>
     <use style="fill:#008000;stroke:#008000;" x="512.076923" xlink:href="#m6cfea19621" y="143.423351"/>
     <use style="fill:#008000;stroke:#008000;" x="526.384615" xlink:href="#m6cfea19621" y="159.197281"/>
     <use style="fill:#008000;stroke:#008000;" x="540.692308" xlink:href="#m6cfea19621" y="148.854987"/>
     <use style="fill:#008000;stroke:#008000;" x="555" xlink:href="#m6cfea19621" y="133.342574"/>
     <use style="fill:#008000;stroke:#008000;" x="569.307692" xlink:href="#m6cfea19621" y="133.342574"/>
     <use style="fill:#008000;stroke:#008000;" x="583.615385" xlink:href="#m6cfea19621" y="149.883309"/>
     <use style="fill:#008000;stroke:#008000;" x="597.923077" xlink:href="#m6cfea19621" y="147.66755"/>
     <use style="fill:#008000;stroke:#008000;" x="612.230769" xlink:href="#m6cfea19621" y="155.194633"/>
     <use style="fill:#008000;stroke:#008000;" x="626.538462" xlink:href="#m6cfea19621" y="133.342574"/>
     <use style="fill:#008000;stroke:#008000;" x="640.846154" xlink:href="#m6cfea19621" y="133.342574"/>
    </g>
   </g>
   <g id="line2d_14">
    <g clip-path="url(#p5c3d8313dd)">
     <use style="fill:#008000;stroke:#008000;" x="125.769231" xlink:href="#m6cfea19621" y="133.342574"/>
     <use style="fill:#008000;stroke:#008000;" x="140.076923" xlink:href="#m6cfea19621" y="139.047185"/>
     <use style="fill:#008000;stroke:#008000;" x="154.384615" xlink:href="#m6cfea19621" y="145.250991"/>
     <use style="fill:#008000;stroke:#008000;" x="168.692308" xlink:href="#m6cfea19621" y="151.639797"/>
     <use style="fill:#008000;stroke:#008000;" x="183" xlink:href="#m6cfea19621" y="163.483779"/>
     <use style="fill:#008000;stroke:#008000;" x="197.307692" xlink:href="#m6cfea19621" y="172.595276"/>
     <use style="fill:#008000;stroke:#008000;" x="211.615385" xlink:href="#m6cfea19621" y="167.264173"/>
     <use style="fill:#008000;stroke:#008000;" x="225.923077" xlink:href="#m6cfea19621" y="153.846303"/>
     <use style="fill:#008000;stroke:#008000;" x="240.230769" xlink:href="#m6cfea19621" y="160.677168"/>
     <use style="fill:#008000;stroke:#008000;" x="254.538462" xlink:href="#m6cfea19621" y="147.532496"/>
     <use style="fill:#008000;stroke:#008000;" x="268.846154" xlink:href="#m6cfea19621" y="146.756779"/>
     <use style="fill:#008000;stroke:#008000;" x="283.153846" xlink:href="#m6cfea19621" y="143.578224"/>
     <use style="fill:#008000;stroke:#008000;" x="297.461538" xlink:href="#m6cfea19621" y="141.7293"/>
     <use style="fill:#008000;stroke:#008000;" x="311.769231" xlink:href="#m6cfea19621" y="137.94156"/>
     <use style="fill:#008000;stroke:#008000;" x="326.076923" xlink:href="#m6cfea19621" y="134.242537"/>
     <use style="fill:#008000;stroke:#008000;" x="340.384615" xlink:href="#m6cfea19621" y="134.440899"/>
     <use style="fill:#008000;stroke:#008000;" x="354.692308" xlink:href="#m6cfea19621" y="133.347657"/>
     <use style="fill:#008000;stroke:#008000;" x="369" xlink:href="#m6cfea19621" y="140.22985"/>
     <use style="fill:#008000;stroke:#008000;" x="383.307692" xlink:href="#m6cfea19621" y="136.327712"/>
     <use style="fill:#008000;stroke:#008000;" x="397.615385" xlink:href="#m6cfea19621" y="139.322368"/>
     <use style="fill:#008000;stroke:#008000;" x="411.923077" xlink:href="#m6cfea19621" y="133.354769"/>
     <use style="fill:#008000;stroke:#008000;" x="426.230769" xlink:href="#m6cfea19621" y="139.189655"/>
     <use style="fill:#008000;stroke:#008000;" x="440.538462" xlink:href="#m6cfea19621" y="133.342574"/>
     <use style="fill:#008000;stroke:#008000;" x="454.846154" xlink:href="#m6cfea19621" y="138.736295"/>
     <use style="fill:#008000;stroke:#008000;" x="469.153846" xlink:href="#m6cfea19621" y="133.371905"/>
     <use style="fill:#008000;stroke:#008000;" x="483.461538" xlink:href="#m6cfea19621" y="133.383193"/>
     <use style="fill:#008000;stroke:#008000;" x="497.769231" xlink:href="#m6cfea19621" y="133.342574"/>
     <use style="fill:#008000;stroke:#008000;" x="512.076923" xlink:href="#m6cfea19621" y="133.376863"/>
     <use style="fill:#008000;stroke:#008000;" x="526.384615" xlink:href="#m6cfea19621" y="138.039494"/>
     <use style="fill:#008000;stroke:#008000;" x="540.692308" xlink:href="#m6cfea19621" y="133.424221"/>
     <use style="fill:#008000;stroke:#008000;" x="555" xlink:href="#m6cfea19621" y="133.342574"/>
     <use style="fill:#008000;stroke:#008000;" x="569.307692" xlink:href="#m6cfea19621" y="133.342574"/>
     <use style="fill:#008000;stroke:#008000;" x="583.615385" xlink:href="#m6cfea19621" y="133.435503"/>
     <use style="fill:#008000;stroke:#008000;" x="597.923077" xlink:href="#m6cfea19621" y="133.412115"/>
     <use style="fill:#008000;stroke:#008000;" x="612.230769" xlink:href="#m6cfea19621" y="133.505658"/>
     <use style="fill:#008000;stroke:#008000;" x="626.538462" xlink:href="#m6cfea19621" y="133.342574"/>
     <use style="fill:#008000;stroke:#008000;" x="640.846154" xlink:href="#m6cfea19621" y="133.342574"/>
    </g>
   </g>
   <g id="patch_3">
    <path d="M 90 507.6 
L 90 129.6 
" style="fill:none;stroke:#000000;stroke-linecap:square;stroke-linejoin:miter;stroke-width:0.8;"/>
   </g>
   <g id="patch_4">
    <path d="M 648 507.6 
L 648 129.6 
" style="fill:none;stroke:#000000;stroke-linecap:square;stroke-linejoin:miter;stroke-width:0.8;"/>
   </g>
   <g id="patch_5">
    <path d="M 90 507.6 
L 648 507.6 
" style="fill:none;stroke:#000000;stroke-linecap:square;stroke-linejoin:miter;stroke-width:0.8;"/>
   </g>
   <g id="patch_6">
    <path d="M 90 129.6 
L 648 129.6 
" style="fill:none;stroke:#000000;stroke-linecap:square;stroke-linejoin:miter;stroke-width:0.8;"/>
   </g>
   <g id="text_9">
    <!-- Purity/Efficiency vs nHitsU+nHitsV+nHitsW -->
    <defs>
     <path d="M 19.671875 64.796875 
L 19.671875 37.40625 
L 32.078125 37.40625 
Q 38.96875 37.40625 42.71875 40.96875 
Q 46.484375 44.53125 46.484375 51.125 
Q 46.484375 57.671875 42.71875 61.234375 
Q 38.96875 64.796875 32.078125 64.796875 
z
M 9.8125 72.90625 
L 32.078125 72.90625 
Q 44.34375 72.90625 50.609375 67.359375 
Q 56.890625 61.8125 56.890625 51.125 
Q 56.890625 40.328125 50.609375 34.8125 
Q 44.34375 29.296875 32.078125 29.296875 
L 19.671875 29.296875 
L 19.671875 0 
L 9.8125 0 
z
" id="DejaVuSans-80"/>
     <path d="M 8.5 21.578125 
L 8.5 54.6875 
L 17.484375 54.6875 
L 17.484375 21.921875 
Q 17.484375 14.15625 20.5 10.265625 
Q 23.53125 6.390625 29.59375 6.390625 
Q 36.859375 6.390625 41.078125 11.03125 
Q 45.3125 15.671875 45.3125 23.6875 
L 45.3125 54.6875 
L 54.296875 54.6875 
L 54.296875 0 
L 45.3125 0 
L 45.3125 8.40625 
Q 42.046875 3.421875 37.71875 1 
Q 33.40625 -1.421875 27.6875 -1.421875 
Q 18.265625 -1.421875 13.375 4.4375 
Q 8.5 10.296875 8.5 21.578125 
z
M 31.109375 56 
z
" id="DejaVuSans-117"/>
     <path d="M 32.171875 -5.078125 
Q 28.375 -14.84375 24.75 -17.8125 
Q 21.140625 -20.796875 15.09375 -20.796875 
L 7.90625 -20.796875 
L 7.90625 -13.28125 
L 13.1875 -13.28125 
Q 16.890625 -13.28125 18.9375 -11.515625 
Q 21 -9.765625 23.484375 -3.21875 
L 25.09375 0.875 
L 2.984375 54.6875 
L 12.5 54.6875 
L 29.59375 11.921875 
L 46.6875 54.6875 
L 56.203125 54.6875 
z
" id="DejaVuSans-121"/>
     <path d="M 25.390625 72.90625 
L 33.6875 72.90625 
L 8.296875 -9.28125 
L 0 -9.28125 
z
" id="DejaVuSans-47"/>
     <path d="M 9.8125 72.90625 
L 55.90625 72.90625 
L 55.90625 64.59375 
L 19.671875 64.59375 
L 19.671875 43.015625 
L 54.390625 43.015625 
L 54.390625 34.71875 
L 19.671875 34.71875 
L 19.671875 8.296875 
L 56.78125 8.296875 
L 56.78125 0 
L 9.8125 0 
z
" id="DejaVuSans-69"/>
     <path d="M 37.109375 75.984375 
L 37.109375 68.5 
L 28.515625 68.5 
Q 23.6875 68.5 21.796875 66.546875 
Q 19.921875 64.59375 19.921875 59.515625 
L 19.921875 54.6875 
L 34.71875 54.6875 
L 34.71875 47.703125 
L 19.921875 47.703125 
L 19.921875 0 
L 10.890625 0 
L 10.890625 47.703125 
L 2.296875 47.703125 
L 2.296875 54.6875 
L 10.890625 54.6875 
L 10.890625 58.5 
Q 10.890625 67.625 15.140625 71.796875 
Q 19.390625 75.984375 28.609375 75.984375 
z
" id="DejaVuSans-102"/>
     <path d="M 56.203125 29.59375 
L 56.203125 25.203125 
L 14.890625 25.203125 
Q 15.484375 15.921875 20.484375 11.0625 
Q 25.484375 6.203125 34.421875 6.203125 
Q 39.59375 6.203125 44.453125 7.46875 
Q 49.3125 8.734375 54.109375 11.28125 
L 54.109375 2.78125 
Q 49.265625 0.734375 44.1875 -0.34375 
Q 39.109375 -1.421875 33.890625 -1.421875 
Q 20.796875 -1.421875 13.15625 6.1875 
Q 5.515625 13.8125 5.515625 26.8125 
Q 5.515625 40.234375 12.765625 48.109375 
Q 20.015625 56 32.328125 56 
Q 43.359375 56 49.78125 48.890625 
Q 56.203125 41.796875 56.203125 29.59375 
z
M 47.21875 32.234375 
Q 47.125 39.59375 43.09375 43.984375 
Q 39.0625 48.390625 32.421875 48.390625 
Q 24.90625 48.390625 20.390625 44.140625 
Q 15.875 39.890625 15.1875 32.171875 
z
" id="DejaVuSans-101"/>
     <path id="DejaVuSans-32"/>
     <path d="M 2.984375 54.6875 
L 12.5 54.6875 
L 29.59375 8.796875 
L 46.6875 54.6875 
L 56.203125 54.6875 
L 35.6875 0 
L 23.484375 0 
z
" id="DejaVuSans-118"/>
    </defs>
    <g transform="translate(88.58205 94.57527)scale(0.2592 -0.2592)">
     <use xlink:href="#DejaVuSans-80"/>
     <use x="60.287109" xlink:href="#DejaVuSans-117"/>
     <use x="123.666016" xlink:href="#DejaVuSans-114"/>
     <use x="164.779297" xlink:href="#DejaVuSans-105"/>
     <use x="192.5625" xlink:href="#DejaVuSans-116"/>
     <use x="231.771484" xlink:href="#DejaVuSans-121"/>
     <use x="290.951172" xlink:href="#DejaVuSans-47"/>
     <use x="324.642578" xlink:href="#DejaVuSans-69"/>
     <use x="387.826172" xlink:href="#DejaVuSans-102"/>
     <use x="423.03125" xlink:href="#DejaVuSans-102"/>
     <use x="458.236328" xlink:href="#DejaVuSans-105"/>
     <use x="486.019531" xlink:href="#DejaVuSans-99"/>
     <use x="541" xlink:href="#DejaVuSans-105"/>
     <use x="568.783203" xlink:href="#DejaVuSans-101"/>
     <use x="630.306641" xlink:href="#DejaVuSans-110"/>
     <use x="693.685547" xlink:href="#DejaVuSans-99"/>
     <use x="748.666016" xlink:href="#DejaVuSans-121"/>
     <use x="807.845703" xlink:href="#DejaVuSans-32"/>
     <use x="839.632812" xlink:href="#DejaVuSans-118"/>
     <use x="898.8125" xlink:href="#DejaVuSans-115"/>
     <use x="950.912109" xlink:href="#DejaVuSans-32"/>
     <use x="982.699219" xlink:href="#DejaVuSans-110"/>
     <use x="1046.078125" xlink:href="#DejaVuSans-72"/>
     <use x="1121.273438" xlink:href="#DejaVuSans-105"/>
     <use x="1149.056641" xlink:href="#DejaVuSans-116"/>
     <use x="1188.265625" xlink:href="#DejaVuSans-115"/>
     <use x="1240.365234" xlink:href="#DejaVuSans-85"/>
     <use x="1313.558594" xlink:href="#DejaVuSans-43"/>
     <use x="1397.347656" xlink:href="#DejaVuSans-110"/>
     <use x="1460.726562" xlink:href="#DejaVuSans-72"/>
     <use x="1535.921875" xlink:href="#DejaVuSans-105"/>
     <use x="1563.705078" xlink:href="#DejaVuSans-116"/>
     <use x="1602.914062" xlink:href="#DejaVuSans-115"/>
     <use x="1655.013672" xlink:href="#DejaVuSans-86"/>
     <use x="1723.421875" xlink:href="#DejaVuSans-43"/>
     <use x="1807.210938" xlink:href="#DejaVuSans-110"/>
     <use x="1870.589844" xlink:href="#DejaVuSans-72"/>
     <use x="1945.785156" xlink:href="#DejaVuSans-105"/>
     <use x="1973.568359" xlink:href="#DejaVuSans-116"/>
     <use x="2012.777344" xlink:href="#DejaVuSans-115"/>
     <use x="2064.876953" xlink:href="#DejaVuSans-87"/>
    </g>
    <!-- Cutoff=-1.460, photon shower classification -->
    <defs>
     <path d="M 64.40625 67.28125 
L 64.40625 56.890625 
Q 59.421875 61.53125 53.78125 63.8125 
Q 48.140625 66.109375 41.796875 66.109375 
Q 29.296875 66.109375 22.65625 58.46875 
Q 16.015625 50.828125 16.015625 36.375 
Q 16.015625 21.96875 22.65625 14.328125 
Q 29.296875 6.6875 41.796875 6.6875 
Q 48.140625 6.6875 53.78125 8.984375 
Q 59.421875 11.28125 64.40625 15.921875 
L 64.40625 5.609375 
Q 59.234375 2.09375 53.4375 0.328125 
Q 47.65625 -1.421875 41.21875 -1.421875 
Q 24.65625 -1.421875 15.125 8.703125 
Q 5.609375 18.84375 5.609375 36.375 
Q 5.609375 53.953125 15.125 64.078125 
Q 24.65625 74.21875 41.21875 74.21875 
Q 47.75 74.21875 53.53125 72.484375 
Q 59.328125 70.75 64.40625 67.28125 
z
" id="DejaVuSans-67"/>
     <path d="M 10.59375 45.40625 
L 73.1875 45.40625 
L 73.1875 37.203125 
L 10.59375 37.203125 
z
M 10.59375 25.484375 
L 73.1875 25.484375 
L 73.1875 17.1875 
L 10.59375 17.1875 
z
" id="DejaVuSans-61"/>
     <path d="M 4.890625 31.390625 
L 31.203125 31.390625 
L 31.203125 23.390625 
L 4.890625 23.390625 
z
" id="DejaVuSans-45"/>
     <path d="M 11.71875 12.40625 
L 22.015625 12.40625 
L 22.015625 4 
L 14.015625 -11.625 
L 7.71875 -11.625 
L 11.71875 4 
z
" id="DejaVuSans-44"/>
     <path d="M 18.109375 8.203125 
L 18.109375 -20.796875 
L 9.078125 -20.796875 
L 9.078125 54.6875 
L 18.109375 54.6875 
L 18.109375 46.390625 
Q 20.953125 51.265625 25.265625 53.625 
Q 29.59375 56 35.59375 56 
Q 45.5625 56 51.78125 48.09375 
Q 58.015625 40.1875 58.015625 27.296875 
Q 58.015625 14.40625 51.78125 6.484375 
Q 45.5625 -1.421875 35.59375 -1.421875 
Q 29.59375 -1.421875 25.265625 0.953125 
Q 20.953125 3.328125 18.109375 8.203125 
z
M 48.6875 27.296875 
Q 48.6875 37.203125 44.609375 42.84375 
Q 40.53125 48.484375 33.40625 48.484375 
Q 26.265625 48.484375 22.1875 42.84375 
Q 18.109375 37.203125 18.109375 27.296875 
Q 18.109375 17.390625 22.1875 11.75 
Q 26.265625 6.109375 33.40625 6.109375 
Q 40.53125 6.109375 44.609375 11.75 
Q 48.6875 17.390625 48.6875 27.296875 
z
" id="DejaVuSans-112"/>
     <path d="M 54.890625 33.015625 
L 54.890625 0 
L 45.90625 0 
L 45.90625 32.71875 
Q 45.90625 40.484375 42.875 44.328125 
Q 39.84375 48.1875 33.796875 48.1875 
Q 26.515625 48.1875 22.3125 43.546875 
Q 18.109375 38.921875 18.109375 30.90625 
L 18.109375 0 
L 9.078125 0 
L 9.078125 75.984375 
L 18.109375 75.984375 
L 18.109375 46.1875 
Q 21.34375 51.125 25.703125 53.5625 
Q 30.078125 56 35.796875 56 
Q 45.21875 56 50.046875 50.171875 
Q 54.890625 44.34375 54.890625 33.015625 
z
" id="DejaVuSans-104"/>
     <path d="M 4.203125 54.6875 
L 13.1875 54.6875 
L 24.421875 12.015625 
L 35.59375 54.6875 
L 46.1875 54.6875 
L 57.421875 12.015625 
L 68.609375 54.6875 
L 77.59375 54.6875 
L 63.28125 0 
L 52.6875 0 
L 40.921875 44.828125 
L 29.109375 0 
L 18.5 0 
z
" id="DejaVuSans-119"/>
     <path d="M 9.421875 75.984375 
L 18.40625 75.984375 
L 18.40625 0 
L 9.421875 0 
z
" id="DejaVuSans-108"/>
    </defs>
    <g transform="translate(84.270825 123.6)scale(0.2592 -0.2592)">
     <use xlink:href="#DejaVuSans-67"/>
     <use x="69.824219" xlink:href="#DejaVuSans-117"/>
     <use x="133.203125" xlink:href="#DejaVuSans-116"/>
     <use x="172.412109" xlink:href="#DejaVuSans-111"/>
     <use x="233.59375" xlink:href="#DejaVuSans-102"/>
     <use x="268.798828" xlink:href="#DejaVuSans-102"/>
     <use x="304.003906" xlink:href="#DejaVuSans-61"/>
     <use x="387.792969" xlink:href="#DejaVuSans-45"/>
     <use x="423.876953" xlink:href="#DejaVuSans-49"/>
     <use x="487.5" xlink:href="#DejaVuSans-46"/>
     <use x="519.287109" xlink:href="#DejaVuSans-52"/>
     <use x="582.910156" xlink:href="#DejaVuSans-54"/>
     <use x="646.533203" xlink:href="#DejaVuSans-48"/>
     <use x="710.15625" xlink:href="#DejaVuSans-44"/>
     <use x="741.943359" xlink:href="#DejaVuSans-32"/>
     <use x="773.730469" xlink:href="#DejaVuSans-112"/>
     <use x="837.207031" xlink:href="#DejaVuSans-104"/>
     <use x="900.585938" xlink:href="#DejaVuSans-111"/>
     <use x="961.767578" xlink:href="#DejaVuSans-116"/>
     <use x="1000.976562" xlink:href="#DejaVuSans-111"/>
     <use x="1062.158203" xlink:href="#DejaVuSans-110"/>
     <use x="1125.537109" xlink:href="#DejaVuSans-32"/>
     <use x="1157.324219" xlink:href="#DejaVuSans-115"/>
     <use x="1209.423828" xlink:href="#DejaVuSans-104"/>
     <use x="1272.802734" xlink:href="#DejaVuSans-111"/>
     <use x="1333.984375" xlink:href="#DejaVuSans-119"/>
     <use x="1415.771484" xlink:href="#DejaVuSans-101"/>
     <use x="1477.294922" xlink:href="#DejaVuSans-114"/>
     <use x="1518.408203" xlink:href="#DejaVuSans-32"/>
     <use x="1550.195312" xlink:href="#DejaVuSans-99"/>
     <use x="1605.175781" xlink:href="#DejaVuSans-108"/>
     <use x="1632.958984" xlink:href="#DejaVuSans-97"/>
     <use x="1694.238281" xlink:href="#DejaVuSans-115"/>
     <use x="1746.337891" xlink:href="#DejaVuSans-115"/>
     <use x="1798.4375" xlink:href="#DejaVuSans-105"/>
     <use x="1826.220703" xlink:href="#DejaVuSans-102"/>
     <use x="1861.425781" xlink:href="#DejaVuSans-105"/>
     <use x="1889.208984" xlink:href="#DejaVuSans-99"/>
     <use x="1944.189453" xlink:href="#DejaVuSans-97"/>
     <use x="2005.46875" xlink:href="#DejaVuSans-116"/>
     <use x="2044.677734" xlink:href="#DejaVuSans-105"/>
     <use x="2072.460938" xlink:href="#DejaVuSans-111"/>
     <use x="2133.642578" xlink:href="#DejaVuSans-110"/>
    </g>
   </g>
   <g id="legend_1">
    <g id="patch_7">
     <path d="M 296.710313 498.6 
L 441.289688 498.6 
Q 444.889688 498.6 444.889688 495 
L 444.889688 470.379375 
Q 444.889688 466.779375 441.289688 466.779375 
L 296.710313 466.779375 
Q 293.110313 466.779375 293.110313 470.379375 
L 293.110313 495 
Q 293.110313 498.6 296.710313 498.6 
z
" style="fill:#ffffff;opacity:0.5;stroke:#cccccc;stroke-linejoin:miter;"/>
    </g>
    <g id="line2d_15">
     <path d="M 300.310313 481.356563 
L 336.310313 481.356563 
" style="fill:none;stroke:#008000;stroke-linecap:square;stroke-width:1.5;"/>
    </g>
    <g id="line2d_16"/>
    <g id="text_10">
     <!-- Efficiency -->
     <g transform="translate(350.710312 487.656563)scale(0.18 -0.18)">
      <use xlink:href="#DejaVuSans-69"/>
      <use x="63.183594" xlink:href="#DejaVuSans-102"/>
      <use x="98.388672" xlink:href="#DejaVuSans-102"/>
      <use x="133.59375" xlink:href="#DejaVuSans-105"/>
      <use x="161.376953" xlink:href="#DejaVuSans-99"/>
      <use x="216.357422" xlink:href="#DejaVuSans-105"/>
      <use x="244.140625" xlink:href="#DejaVuSans-101"/>
      <use x="305.664062" xlink:href="#DejaVuSans-110"/>
      <use x="369.042969" xlink:href="#DejaVuSans-99"/>
      <use x="424.023438" xlink:href="#DejaVuSans-121"/>
     </g>
    </g>
   </g>
  </g>
  <g id="axes_2">
   <g id="patch_8">
    <path d="M 90 961.2 
L 648 961.2 
L 648 583.2 
L 90 583.2 
z
" style="fill:#ffffff;"/>
   </g>
   <g id="patch_9">
    <path clip-path="url(#pe5d34d0697)" d="M 90 141364.457533 
L 90 141364.457533 
L 104.307692 141364.457533 
L 104.307692 141364.457533 
L 118.615385 141364.457533 
L 118.615385 944.018182 
L 132.923077 944.018182 
L 132.923077 653.430031 
L 147.230769 653.430031 
L 147.230769 601.922544 
L 161.538462 601.922544 
L 161.538462 600.381818 
L 175.846154 600.381818 
L 175.846154 608.5071 
L 190.153846 608.5071 
L 190.153846 611.562376 
L 204.461538 611.562376 
L 204.461538 614.230875 
L 218.769231 614.230875 
L 218.769231 613.687749 
L 233.076923 613.687749 
L 233.076923 617.021544 
L 247.384615 617.021544 
L 247.384615 622.70381 
L 261.692308 622.70381 
L 261.692308 627.089369 
L 276 627.089369 
L 276 629.84534 
L 290.307692 629.84534 
L 290.307692 644.965802 
L 304.615385 644.965802 
L 304.615385 640.399408 
L 318.923077 640.399408 
L 318.923077 650.641103 
L 333.230769 650.641103 
L 333.230769 662.655193 
L 347.538462 662.655193 
L 347.538462 665.750551 
L 361.846154 665.750551 
L 361.846154 664.805331 
L 376.153846 664.805331 
L 376.153846 676.486022 
L 390.461538 676.486022 
L 390.461538 671.402623 
L 404.769231 671.402623 
L 404.769231 692.405496 
L 419.076923 692.405496 
L 419.076923 689.524702 
L 433.384615 689.524702 
L 433.384615 706.132586 
L 447.692308 706.132586 
L 447.692308 711.943216 
L 462 711.943216 
L 462 719.123914 
L 476.307692 719.123914 
L 476.307692 729.031957 
L 490.615385 729.031957 
L 490.615385 730.851957 
L 504.923077 730.851957 
L 504.923077 723.876876 
L 519.230769 723.876876 
L 519.230769 749.009573 
L 533.538462 749.009573 
L 533.538462 750.266638 
L 547.846154 750.266638 
L 547.846154 750.266638 
L 562.153846 750.266638 
L 562.153846 734.66354 
L 576.461538 734.66354 
L 576.461538 754.201259 
L 590.769231 754.201259 
L 590.769231 745.386797 
L 605.076923 745.386797 
L 605.076923 771.29 
L 619.384615 771.29 
L 619.384615 776.921583 
L 633.692308 776.921583 
L 633.692308 783.126813 
L 648 783.126813 
L 648 141364.457533 
z
" style="fill:#1f77b4;opacity:0.2;"/>
   </g>
   <g id="matplotlib.axis_3">
    <g id="xtick_6">
     <g id="line2d_17">
      <g>
       <use style="stroke:#000000;stroke-width:0.8;" x="90" xlink:href="#m5f5a62262f" y="961.2"/>
      </g>
     </g>
     <g id="text_11">
      <!-- 0 -->
      <g transform="translate(81.7542 987.89515)scale(0.2592 -0.2592)">
       <use xlink:href="#DejaVuSans-48"/>
      </g>
     </g>
    </g>
    <g id="xtick_7">
     <g id="line2d_18">
      <g>
       <use style="stroke:#000000;stroke-width:0.8;" x="229.5" xlink:href="#m5f5a62262f" y="961.2"/>
      </g>
     </g>
     <g id="text_12">
      <!-- 200 -->
      <g transform="translate(204.7626 987.89515)scale(0.2592 -0.2592)">
       <use xlink:href="#DejaVuSans-50"/>
       <use x="63.623047" xlink:href="#DejaVuSans-48"/>
       <use x="127.246094" xlink:href="#DejaVuSans-48"/>
      </g>
     </g>
    </g>
    <g id="xtick_8">
     <g id="line2d_19">
      <g>
       <use style="stroke:#000000;stroke-width:0.8;" x="369" xlink:href="#m5f5a62262f" y="961.2"/>
      </g>
     </g>
     <g id="text_13">
      <!-- 400 -->
      <g transform="translate(344.2626 987.89515)scale(0.2592 -0.2592)">
       <use xlink:href="#DejaVuSans-52"/>
       <use x="63.623047" xlink:href="#DejaVuSans-48"/>
       <use x="127.246094" xlink:href="#DejaVuSans-48"/>
      </g>
     </g>
    </g>
    <g id="xtick_9">
     <g id="line2d_20">
      <g>
       <use style="stroke:#000000;stroke-width:0.8;" x="508.5" xlink:href="#m5f5a62262f" y="961.2"/>
      </g>
     </g>
     <g id="text_14">
      <!-- 600 -->
      <g transform="translate(483.7626 987.89515)scale(0.2592 -0.2592)">
       <use xlink:href="#DejaVuSans-54"/>
       <use x="63.623047" xlink:href="#DejaVuSans-48"/>
       <use x="127.246094" xlink:href="#DejaVuSans-48"/>
      </g>
     </g>
    </g>
    <g id="xtick_10">
     <g id="line2d_21">
      <g>
       <use style="stroke:#000000;stroke-width:0.8;" x="648" xlink:href="#m5f5a62262f" y="961.2"/>
      </g>
     </g>
     <g id="text_15">
      <!-- 800 -->
      <g transform="translate(623.2626 987.89515)scale(0.2592 -0.2592)">
       <use xlink:href="#DejaVuSans-56"/>
       <use x="63.623047" xlink:href="#DejaVuSans-48"/>
       <use x="127.246094" xlink:href="#DejaVuSans-48"/>
      </g>
     </g>
    </g>
    <g id="text_16">
     <!-- nHitsU+nHitsV+nHitsW -->
     <g transform="translate(215.93835 1016.98085)scale(0.2592 -0.2592)">
      <use xlink:href="#DejaVuSans-110"/>
      <use x="63.378906" xlink:href="#DejaVuSans-72"/>
      <use x="138.574219" xlink:href="#DejaVuSans-105"/>
      <use x="166.357422" xlink:href="#DejaVuSans-116"/>
      <use x="205.566406" xlink:href="#DejaVuSans-115"/>
      <use x="257.666016" xlink:href="#DejaVuSans-85"/>
      <use x="330.859375" xlink:href="#DejaVuSans-43"/>
      <use x="414.648438" xlink:href="#DejaVuSans-110"/>
      <use x="478.027344" xlink:href="#DejaVuSans-72"/>
      <use x="553.222656" xlink:href="#DejaVuSans-105"/>
      <use x="581.005859" xlink:href="#DejaVuSans-116"/>
      <use x="620.214844" xlink:href="#DejaVuSans-115"/>
      <use x="672.314453" xlink:href="#DejaVuSans-86"/>
      <use x="740.722656" xlink:href="#DejaVuSans-43"/>
      <use x="824.511719" xlink:href="#DejaVuSans-110"/>
      <use x="887.890625" xlink:href="#DejaVuSans-72"/>
      <use x="963.085938" xlink:href="#DejaVuSans-105"/>
      <use x="990.869141" xlink:href="#DejaVuSans-116"/>
      <use x="1030.078125" xlink:href="#DejaVuSans-115"/>
      <use x="1082.177734" xlink:href="#DejaVuSans-87"/>
     </g>
    </g>
   </g>
   <g id="matplotlib.axis_4">
    <g id="ytick_7">
     <g id="line2d_22">
      <g>
       <use style="stroke:#000000;stroke-width:0.8;" x="90" xlink:href="#m3d22ef85f0" y="845.898044"/>
      </g>
     </g>
     <g id="text_17">
      <!-- $\mathdefault{10^{1}}$ -->
      <g transform="translate(37.3808 855.745619)scale(0.2592 -0.2592)">
       <use transform="translate(0 0.684375)" xlink:href="#DejaVuSans-49"/>
       <use transform="translate(63.623047 0.684375)" xlink:href="#DejaVuSans-48"/>
       <use transform="translate(128.203125 38.965625)scale(0.7)" xlink:href="#DejaVuSans-49"/>
      </g>
     </g>
    </g>
    <g id="ytick_8">
     <g id="line2d_23">
      <g>
       <use style="stroke:#000000;stroke-width:0.8;" x="90" xlink:href="#m3d22ef85f0" y="705.519863"/>
      </g>
     </g>
     <g id="text_18">
      <!-- $\mathdefault{10^{2}}$ -->
      <g transform="translate(37.3808 715.367438)scale(0.2592 -0.2592)">
       <use transform="translate(0 0.765625)" xlink:href="#DejaVuSans-49"/>
       <use transform="translate(63.623047 0.765625)" xlink:href="#DejaVuSans-48"/>
       <use transform="translate(128.203125 39.046875)scale(0.7)" xlink:href="#DejaVuSans-50"/>
      </g>
     </g>
    </g>
    <g id="ytick_9">
     <g id="line2d_24">
      <defs>
       <path d="M 0 0 
L -2 0 
" id="me74586d8e1" style="stroke:#000000;stroke-width:0.6;"/>
      </defs>
      <g>
       <use style="stroke:#000000;stroke-width:0.6;" x="90" xlink:href="#me74586d8e1" y="944.018182"/>
      </g>
     </g>
    </g>
    <g id="ytick_10">
     <g id="line2d_25">
      <g>
       <use style="stroke:#000000;stroke-width:0.6;" x="90" xlink:href="#me74586d8e1" y="919.298811"/>
      </g>
     </g>
    </g>
    <g id="ytick_11">
     <g id="line2d_26">
      <g>
       <use style="stroke:#000000;stroke-width:0.6;" x="90" xlink:href="#me74586d8e1" y="901.760139"/>
      </g>
     </g>
    </g>
    <g id="ytick_12">
     <g id="line2d_27">
      <g>
       <use style="stroke:#000000;stroke-width:0.6;" x="90" xlink:href="#me74586d8e1" y="888.156087"/>
      </g>
     </g>
    </g>
    <g id="ytick_13">
     <g id="line2d_28">
      <g>
       <use style="stroke:#000000;stroke-width:0.6;" x="90" xlink:href="#me74586d8e1" y="877.040768"/>
      </g>
     </g>
    </g>
    <g id="ytick_14">
     <g id="line2d_29">
      <g>
       <use style="stroke:#000000;stroke-width:0.6;" x="90" xlink:href="#me74586d8e1" y="867.642899"/>
      </g>
     </g>
    </g>
    <g id="ytick_15">
     <g id="line2d_30">
      <g>
       <use style="stroke:#000000;stroke-width:0.6;" x="90" xlink:href="#me74586d8e1" y="859.502095"/>
      </g>
     </g>
    </g>
    <g id="ytick_16">
     <g id="line2d_31">
      <g>
       <use style="stroke:#000000;stroke-width:0.6;" x="90" xlink:href="#me74586d8e1" y="852.321397"/>
      </g>
     </g>
    </g>
    <g id="ytick_17">
     <g id="line2d_32">
      <g>
       <use style="stroke:#000000;stroke-width:0.6;" x="90" xlink:href="#me74586d8e1" y="803.640001"/>
      </g>
     </g>
    </g>
    <g id="ytick_18">
     <g id="line2d_33">
      <g>
       <use style="stroke:#000000;stroke-width:0.6;" x="90" xlink:href="#me74586d8e1" y="778.92063"/>
      </g>
     </g>
    </g>
    <g id="ytick_19">
     <g id="line2d_34">
      <g>
       <use style="stroke:#000000;stroke-width:0.6;" x="90" xlink:href="#me74586d8e1" y="761.381957"/>
      </g>
     </g>
    </g>
    <g id="ytick_20">
     <g id="line2d_35">
      <g>
       <use style="stroke:#000000;stroke-width:0.6;" x="90" xlink:href="#me74586d8e1" y="747.777906"/>
      </g>
     </g>
    </g>
    <g id="ytick_21">
     <g id="line2d_36">
      <g>
       <use style="stroke:#000000;stroke-width:0.6;" x="90" xlink:href="#me74586d8e1" y="736.662587"/>
      </g>
     </g>
    </g>
    <g id="ytick_22">
     <g id="line2d_37">
      <g>
       <use style="stroke:#000000;stroke-width:0.6;" x="90" xlink:href="#me74586d8e1" y="727.264718"/>
      </g>
     </g>
    </g>
    <g id="ytick_23">
     <g id="line2d_38">
      <g>
       <use style="stroke:#000000;stroke-width:0.6;" x="90" xlink:href="#me74586d8e1" y="719.123914"/>
      </g>
     </g>
    </g>
    <g id="ytick_24">
     <g id="line2d_39">
      <g>
       <use style="stroke:#000000;stroke-width:0.6;" x="90" xlink:href="#me74586d8e1" y="711.943216"/>
      </g>
     </g>
    </g>
    <g id="ytick_25">
     <g id="line2d_40">
      <g>
       <use style="stroke:#000000;stroke-width:0.6;" x="90" xlink:href="#me74586d8e1" y="663.261819"/>
      </g>
     </g>
    </g>
    <g id="ytick_26">
     <g id="line2d_41">
      <g>
       <use style="stroke:#000000;stroke-width:0.6;" x="90" xlink:href="#me74586d8e1" y="638.542449"/>
      </g>
     </g>
    </g>
    <g id="ytick_27">
     <g id="line2d_42">
      <g>
       <use style="stroke:#000000;stroke-width:0.6;" x="90" xlink:href="#me74586d8e1" y="621.003776"/>
      </g>
     </g>
    </g>
    <g id="ytick_28">
     <g id="line2d_43">
      <g>
       <use style="stroke:#000000;stroke-width:0.6;" x="90" xlink:href="#me74586d8e1" y="607.399725"/>
      </g>
     </g>
    </g>
    <g id="ytick_29">
     <g id="line2d_44">
      <g>
       <use style="stroke:#000000;stroke-width:0.6;" x="90" xlink:href="#me74586d8e1" y="596.284405"/>
      </g>
     </g>
    </g>
    <g id="ytick_30">
     <g id="line2d_45">
      <g>
       <use style="stroke:#000000;stroke-width:0.6;" x="90" xlink:href="#me74586d8e1" y="586.886537"/>
      </g>
     </g>
    </g>
    <g id="text_19">
     <!-- Count -->
     <g transform="translate(27.99025 810.68715)rotate(-90)scale(0.2592 -0.2592)">
      <use xlink:href="#DejaVuSans-67"/>
      <use x="69.824219" xlink:href="#DejaVuSans-111"/>
      <use x="131.005859" xlink:href="#DejaVuSans-117"/>
      <use x="194.384766" xlink:href="#DejaVuSans-110"/>
      <use x="257.763672" xlink:href="#DejaVuSans-116"/>
     </g>
    </g>
   </g>
   <g id="line2d_46">
    <path clip-path="url(#pe5d34d0697)" d="M 118.615385 1081 
L 118.615385 944.018182 
L 132.923077 944.018182 
L 132.923077 653.430031 
L 147.230769 653.430031 
L 147.230769 601.922544 
L 161.538462 601.922544 
L 161.538462 600.381818 
L 175.846154 600.381818 
L 175.846154 608.5071 
L 190.153846 608.5071 
L 190.153846 611.562376 
L 204.461538 611.562376 
L 204.461538 614.230875 
L 218.769231 614.230875 
L 218.769231 613.687749 
L 233.076923 613.687749 
L 233.076923 617.021544 
L 247.384615 617.021544 
L 247.384615 622.70381 
L 261.692308 622.70381 
L 261.692308 627.089369 
L 276 627.089369 
L 276 629.84534 
L 290.307692 629.84534 
L 290.307692 644.965802 
L 304.615385 644.965802 
L 304.615385 640.399408 
L 318.923077 640.399408 
L 318.923077 650.641103 
L 333.230769 650.641103 
L 333.230769 662.655193 
L 347.538462 662.655193 
L 347.538462 665.750551 
L 361.846154 665.750551 
L 361.846154 664.805331 
L 376.153846 664.805331 
L 376.153846 676.486022 
L 390.461538 676.486022 
L 390.461538 671.402623 
L 404.769231 671.402623 
L 404.769231 692.405496 
L 419.076923 692.405496 
L 419.076923 689.524702 
L 433.384615 689.524702 
L 433.384615 706.132586 
L 447.692308 706.132586 
L 447.692308 711.943216 
L 462 711.943216 
L 462 719.123914 
L 476.307692 719.123914 
L 476.307692 729.031957 
L 490.615385 729.031957 
L 490.615385 730.851957 
L 504.923077 730.851957 
L 504.923077 723.876876 
L 519.230769 723.876876 
L 519.230769 749.009573 
L 533.538462 749.009573 
L 533.538462 750.266638 
L 547.846154 750.266638 
L 547.846154 750.266638 
L 562.153846 750.266638 
L 562.153846 734.66354 
L 576.461538 734.66354 
L 576.461538 754.201259 
L 590.769231 754.201259 
L 590.769231 745.386797 
L 605.076923 745.386797 
L 605.076923 771.29 
L 619.384615 771.29 
L 619.384615 776.921583 
L 633.692308 776.921583 
L 633.692308 783.126813 
L 648 783.126813 
" style="fill:none;stroke:#1f77b4;stroke-linecap:square;stroke-width:1.5;"/>
   </g>
   <g id="line2d_47">
    <path clip-path="url(#pe5d34d0697)" d="M 118.615385 1081 
L 118.615385 944.018182 
L 132.923077 944.018182 
L 132.923077 655.006812 
L 147.230769 655.006812 
L 147.230769 604.425209 
L 161.538462 604.425209 
L 161.538462 604.077827 
L 175.846154 604.077827 
L 175.846154 614.504263 
L 190.153846 614.504263 
L 190.153846 619.349864 
L 204.461538 619.349864 
L 204.461538 621.003776 
L 218.769231 621.003776 
L 218.769231 617.884277 
L 233.076923 617.884277 
L 233.076923 622.547288 
L 247.384615 622.547288 
L 247.384615 625.756738 
L 261.692308 625.756738 
L 261.692308 630.021796 
L 276 630.021796 
L 276 632.180091 
L 290.307692 632.180091 
L 290.307692 647.032626 
L 304.615385 647.032626 
L 304.615385 641.669568 
L 318.923077 641.669568 
L 318.923077 651.138783 
L 333.230769 651.138783 
L 333.230769 663.261819 
L 347.538462 663.261819 
L 347.538462 666.06891 
L 361.846154 666.06891 
L 361.846154 666.710657 
L 376.153846 666.710657 
L 376.153846 677.632742 
L 390.461538 677.632742 
L 390.461538 673.169862 
L 404.769231 673.169862 
L 404.769231 692.899146 
L 419.076923 692.899146 
L 419.076923 691.430028 
L 433.384615 691.430028 
L 433.384615 706.132586 
L 447.692308 706.132586 
L 447.692308 714.01004 
L 462 714.01004 
L 462 719.890785 
L 476.307692 719.890785 
L 476.307692 729.935165 
L 490.615385 729.935165 
L 490.615385 730.851957 
L 504.923077 730.851957 
L 504.923077 724.706351 
L 519.230769 724.706351 
L 519.230769 751.550169 
L 533.538462 751.550169 
L 533.538462 751.550169 
L 547.846154 751.550169 
L 547.846154 750.266638 
L 562.153846 750.266638 
L 562.153846 734.66354 
L 576.461538 734.66354 
L 576.461538 755.571327 
L 590.769231 755.571327 
L 590.769231 746.570629 
L 605.076923 746.570629 
L 605.076923 773.11 
L 619.384615 773.11 
L 619.384615 776.921583 
L 633.692308 776.921583 
L 633.692308 783.126813 
L 648 783.126813 
" style="fill:none;stroke:#ff7f0e;stroke-linecap:square;stroke-width:1.5;"/>
   </g>
   <g id="patch_10">
    <path d="M 90 961.2 
L 90 583.2 
" style="fill:none;stroke:#000000;stroke-linecap:square;stroke-linejoin:miter;stroke-width:0.8;"/>
   </g>
   <g id="patch_11">
    <path d="M 648 961.2 
L 648 583.2 
" style="fill:none;stroke:#000000;stroke-linecap:square;stroke-linejoin:miter;stroke-width:0.8;"/>
   </g>
   <g id="patch_12">
    <path d="M 90 961.2 
L 648 961.2 
" style="fill:none;stroke:#000000;stroke-linecap:square;stroke-linejoin:miter;stroke-width:0.8;"/>
   </g>
   <g id="patch_13">
    <path d="M 90 583.2 
L 648 583.2 
" style="fill:none;stroke:#000000;stroke-linecap:square;stroke-linejoin:miter;stroke-width:0.8;"/>
   </g>
   <g id="legend_2">
    <g id="patch_14">
     <path d="M 374.307188 650.44125 
L 635.4 650.44125 
Q 639 650.44125 639 646.84125 
L 639 595.8 
Q 639 592.2 635.4 592.2 
L 374.307188 592.2 
Q 370.707188 592.2 370.707188 595.8 
L 370.707188 646.84125 
Q 370.707188 650.44125 374.307188 650.44125 
z
" style="fill:#ffffff;opacity:0.5;stroke:#cccccc;stroke-linejoin:miter;"/>
    </g>
    <g id="line2d_48">
     <path d="M 377.907188 606.777188 
L 413.907188 606.777188 
" style="fill:none;stroke:#1f77b4;stroke-linecap:square;stroke-width:1.5;"/>
    </g>
    <g id="line2d_49"/>
    <g id="text_20">
     <!-- photon shower -->
     <g transform="translate(428.307187 613.077188)scale(0.18 -0.18)">
      <use xlink:href="#DejaVuSans-112"/>
      <use x="63.476562" xlink:href="#DejaVuSans-104"/>
      <use x="126.855469" xlink:href="#DejaVuSans-111"/>
      <use x="188.037109" xlink:href="#DejaVuSans-116"/>
      <use x="227.246094" xlink:href="#DejaVuSans-111"/>
      <use x="288.427734" xlink:href="#DejaVuSans-110"/>
      <use x="351.806641" xlink:href="#DejaVuSans-32"/>
      <use x="383.59375" xlink:href="#DejaVuSans-115"/>
      <use x="435.693359" xlink:href="#DejaVuSans-104"/>
      <use x="499.072266" xlink:href="#DejaVuSans-111"/>
      <use x="560.253906" xlink:href="#DejaVuSans-119"/>
      <use x="642.041016" xlink:href="#DejaVuSans-101"/>
      <use x="703.564453" xlink:href="#DejaVuSans-114"/>
     </g>
    </g>
    <g id="line2d_50">
     <path d="M 377.907188 633.197813 
L 413.907188 633.197813 
" style="fill:none;stroke:#ff7f0e;stroke-linecap:square;stroke-width:1.5;"/>
    </g>
    <g id="line2d_51"/>
    <g id="text_21">
     <!-- correct photon shower -->
     <g transform="translate(428.307187 639.497813)scale(0.18 -0.18)">
      <use xlink:href="#DejaVuSans-99"/>
      <use x="54.980469" xlink:href="#DejaVuSans-111"/>
      <use x="116.162109" xlink:href="#DejaVuSans-114"/>
      <use x="157.259766" xlink:href="#DejaVuSans-114"/>
      <use x="198.341797" xlink:href="#DejaVuSans-101"/>
      <use x="259.865234" xlink:href="#DejaVuSans-99"/>
      <use x="314.845703" xlink:href="#DejaVuSans-116"/>
      <use x="354.054688" xlink:href="#DejaVuSans-32"/>
      <use x="385.841797" xlink:href="#DejaVuSans-112"/>
      <use x="449.318359" xlink:href="#DejaVuSans-104"/>
      <use x="512.697266" xlink:href="#DejaVuSans-111"/>
      <use x="573.878906" xlink:href="#DejaVuSans-116"/>
      <use x="613.087891" xlink:href="#DejaVuSans-111"/>
      <use x="674.269531" xlink:href="#DejaVuSans-110"/>
      <use x="737.648438" xlink:href="#DejaVuSans-32"/>
      <use x="769.435547" xlink:href="#DejaVuSans-115"/>
      <use x="821.535156" xlink:href="#DejaVuSans-104"/>
      <use x="884.914062" xlink:href="#DejaVuSans-111"/>
      <use x="946.095703" xlink:href="#DejaVuSans-119"/>
      <use x="1027.882812" xlink:href="#DejaVuSans-101"/>
      <use x="1089.40625" xlink:href="#DejaVuSans-114"/>
     </g>
    </g>
   </g>
  </g>
 </g>
 <defs>
  <clipPath id="p5c3d8313dd">
   <rect height="378" width="558" x="90" y="129.6"/>
  </clipPath>
  <clipPath id="pe5d34d0697">
   <rect height="378" width="558" x="90" y="583.2"/>
  </clipPath>
 </defs>
</svg>
