<?xml version="1.0" encoding="utf-8" standalone="no"?>
<!DOCTYPE svg PUBLIC "-//W3C//DTD SVG 1.1//EN"
  "http://www.w3.org/Graphics/SVG/1.1/DTD/svg11.dtd">
<!-- Created with matplotlib (https://matplotlib.org/) -->
<svg height="540pt" version="1.1" viewBox="0 0 1440 540" width="1440pt" xmlns="http://www.w3.org/2000/svg" xmlns:xlink="http://www.w3.org/1999/xlink">
 <defs>
  <style type="text/css">
*{stroke-linecap:butt;stroke-linejoin:round;}
  </style>
 </defs>
 <g id="figure_1">
  <g id="patch_1">
   <path d="M 0 540 
L 1440 540 
L 1440 0 
L 0 0 
z
" style="fill:#ffffff;"/>
  </g>
  <g id="axes_1">
   <g id="patch_2">
    <path d="M 92.99 463.84 
L 679.640114 463.84 
L 679.640114 41.64 
L 92.99 41.64 
z
" style="fill:#ffffff;"/>
   </g>
   <g id="matplotlib.axis_1">
    <g id="xtick_1">
     <g id="line2d_1">
      <defs>
       <path d="M 0 0 
L 0 3.5 
" id="m270e3b021b" style="stroke:#000000;stroke-width:0.8;"/>
      </defs>
      <g>
       <use style="stroke:#000000;stroke-width:0.8;" x="119.655914" xlink:href="#m270e3b021b" y="463.84"/>
      </g>
     </g>
     <g id="text_1">
      <!-- 0 -->
      <defs>
       <path d="M 31.78125 66.40625 
Q 24.171875 66.40625 20.328125 58.90625 
Q 16.5 51.421875 16.5 36.375 
Q 16.5 21.390625 20.328125 13.890625 
Q 24.171875 6.390625 31.78125 6.390625 
Q 39.453125 6.390625 43.28125 13.890625 
Q 47.125 21.390625 47.125 36.375 
Q 47.125 51.421875 43.28125 58.90625 
Q 39.453125 66.40625 31.78125 66.40625 
z
M 31.78125 74.21875 
Q 44.046875 74.21875 50.515625 64.515625 
Q 56.984375 54.828125 56.984375 36.375 
Q 56.984375 17.96875 50.515625 8.265625 
Q 44.046875 -1.421875 31.78125 -1.421875 
Q 19.53125 -1.421875 13.0625 8.265625 
Q 6.59375 17.96875 6.59375 36.375 
Q 6.59375 54.828125 13.0625 64.515625 
Q 19.53125 74.21875 31.78125 74.21875 
z
" id="DejaVuSans-48"/>
      </defs>
      <g transform="translate(111.410114 490.53515)scale(0.2592 -0.2592)">
       <use xlink:href="#DejaVuSans-48"/>
      </g>
     </g>
    </g>
    <g id="xtick_2">
     <g id="line2d_2">
      <g>
       <use style="stroke:#000000;stroke-width:0.8;" x="226.319571" xlink:href="#m270e3b021b" y="463.84"/>
      </g>
     </g>
     <g id="text_2">
      <!-- 2 -->
      <defs>
       <path d="M 19.1875 8.296875 
L 53.609375 8.296875 
L 53.609375 0 
L 7.328125 0 
L 7.328125 8.296875 
Q 12.9375 14.109375 22.625 23.890625 
Q 32.328125 33.6875 34.8125 36.53125 
Q 39.546875 41.84375 41.421875 45.53125 
Q 43.3125 49.21875 43.3125 52.78125 
Q 43.3125 58.59375 39.234375 62.25 
Q 35.15625 65.921875 28.609375 65.921875 
Q 23.96875 65.921875 18.8125 64.3125 
Q 13.671875 62.703125 7.8125 59.421875 
L 7.8125 69.390625 
Q 13.765625 71.78125 18.9375 73 
Q 24.125 74.21875 28.421875 74.21875 
Q 39.75 74.21875 46.484375 68.546875 
Q 53.21875 62.890625 53.21875 53.421875 
Q 53.21875 48.921875 51.53125 44.890625 
Q 49.859375 40.875 45.40625 35.40625 
Q 44.1875 33.984375 37.640625 27.21875 
Q 31.109375 20.453125 19.1875 8.296875 
z
" id="DejaVuSans-50"/>
      </defs>
      <g transform="translate(218.073771 490.53515)scale(0.2592 -0.2592)">
       <use xlink:href="#DejaVuSans-50"/>
      </g>
     </g>
    </g>
    <g id="xtick_3">
     <g id="line2d_3">
      <g>
       <use style="stroke:#000000;stroke-width:0.8;" x="332.983228" xlink:href="#m270e3b021b" y="463.84"/>
      </g>
     </g>
     <g id="text_3">
      <!-- 4 -->
      <defs>
       <path d="M 37.796875 64.3125 
L 12.890625 25.390625 
L 37.796875 25.390625 
z
M 35.203125 72.90625 
L 47.609375 72.90625 
L 47.609375 25.390625 
L 58.015625 25.390625 
L 58.015625 17.1875 
L 47.609375 17.1875 
L 47.609375 0 
L 37.796875 0 
L 37.796875 17.1875 
L 4.890625 17.1875 
L 4.890625 26.703125 
z
" id="DejaVuSans-52"/>
      </defs>
      <g transform="translate(324.737428 490.53515)scale(0.2592 -0.2592)">
       <use xlink:href="#DejaVuSans-52"/>
      </g>
     </g>
    </g>
    <g id="xtick_4">
     <g id="line2d_4">
      <g>
       <use style="stroke:#000000;stroke-width:0.8;" x="439.646885" xlink:href="#m270e3b021b" y="463.84"/>
      </g>
     </g>
     <g id="text_4">
      <!-- 6 -->
      <defs>
       <path d="M 33.015625 40.375 
Q 26.375 40.375 22.484375 35.828125 
Q 18.609375 31.296875 18.609375 23.390625 
Q 18.609375 15.53125 22.484375 10.953125 
Q 26.375 6.390625 33.015625 6.390625 
Q 39.65625 6.390625 43.53125 10.953125 
Q 47.40625 15.53125 47.40625 23.390625 
Q 47.40625 31.296875 43.53125 35.828125 
Q 39.65625 40.375 33.015625 40.375 
z
M 52.59375 71.296875 
L 52.59375 62.3125 
Q 48.875 64.0625 45.09375 64.984375 
Q 41.3125 65.921875 37.59375 65.921875 
Q 27.828125 65.921875 22.671875 59.328125 
Q 17.53125 52.734375 16.796875 39.40625 
Q 19.671875 43.65625 24.015625 45.921875 
Q 28.375 48.1875 33.59375 48.1875 
Q 44.578125 48.1875 50.953125 41.515625 
Q 57.328125 34.859375 57.328125 23.390625 
Q 57.328125 12.15625 50.6875 5.359375 
Q 44.046875 -1.421875 33.015625 -1.421875 
Q 20.359375 -1.421875 13.671875 8.265625 
Q 6.984375 17.96875 6.984375 36.375 
Q 6.984375 53.65625 15.1875 63.9375 
Q 23.390625 74.21875 37.203125 74.21875 
Q 40.921875 74.21875 44.703125 73.484375 
Q 48.484375 72.75 52.59375 71.296875 
z
" id="DejaVuSans-54"/>
      </defs>
      <g transform="translate(431.401085 490.53515)scale(0.2592 -0.2592)">
       <use xlink:href="#DejaVuSans-54"/>
      </g>
     </g>
    </g>
    <g id="xtick_5">
     <g id="line2d_5">
      <g>
       <use style="stroke:#000000;stroke-width:0.8;" x="546.310542" xlink:href="#m270e3b021b" y="463.84"/>
      </g>
     </g>
     <g id="text_5">
      <!-- 8 -->
      <defs>
       <path d="M 31.78125 34.625 
Q 24.75 34.625 20.71875 30.859375 
Q 16.703125 27.09375 16.703125 20.515625 
Q 16.703125 13.921875 20.71875 10.15625 
Q 24.75 6.390625 31.78125 6.390625 
Q 38.8125 6.390625 42.859375 10.171875 
Q 46.921875 13.96875 46.921875 20.515625 
Q 46.921875 27.09375 42.890625 30.859375 
Q 38.875 34.625 31.78125 34.625 
z
M 21.921875 38.8125 
Q 15.578125 40.375 12.03125 44.71875 
Q 8.5 49.078125 8.5 55.328125 
Q 8.5 64.0625 14.71875 69.140625 
Q 20.953125 74.21875 31.78125 74.21875 
Q 42.671875 74.21875 48.875 69.140625 
Q 55.078125 64.0625 55.078125 55.328125 
Q 55.078125 49.078125 51.53125 44.71875 
Q 48 40.375 41.703125 38.8125 
Q 48.828125 37.15625 52.796875 32.3125 
Q 56.78125 27.484375 56.78125 20.515625 
Q 56.78125 9.90625 50.3125 4.234375 
Q 43.84375 -1.421875 31.78125 -1.421875 
Q 19.734375 -1.421875 13.25 4.234375 
Q 6.78125 9.90625 6.78125 20.515625 
Q 6.78125 27.484375 10.78125 32.3125 
Q 14.796875 37.15625 21.921875 38.8125 
z
M 18.3125 54.390625 
Q 18.3125 48.734375 21.84375 45.5625 
Q 25.390625 42.390625 31.78125 42.390625 
Q 38.140625 42.390625 41.71875 45.5625 
Q 45.3125 48.734375 45.3125 54.390625 
Q 45.3125 60.0625 41.71875 63.234375 
Q 38.140625 66.40625 31.78125 66.40625 
Q 25.390625 66.40625 21.84375 63.234375 
Q 18.3125 60.0625 18.3125 54.390625 
z
" id="DejaVuSans-56"/>
      </defs>
      <g transform="translate(538.064742 490.53515)scale(0.2592 -0.2592)">
       <use xlink:href="#DejaVuSans-56"/>
      </g>
     </g>
    </g>
    <g id="xtick_6">
     <g id="line2d_6">
      <g>
       <use style="stroke:#000000;stroke-width:0.8;" x="652.974199" xlink:href="#m270e3b021b" y="463.84"/>
      </g>
     </g>
     <g id="text_6">
      <!-- 10 -->
      <defs>
       <path d="M 12.40625 8.296875 
L 28.515625 8.296875 
L 28.515625 63.921875 
L 10.984375 60.40625 
L 10.984375 69.390625 
L 28.421875 72.90625 
L 38.28125 72.90625 
L 38.28125 8.296875 
L 54.390625 8.296875 
L 54.390625 0 
L 12.40625 0 
z
" id="DejaVuSans-49"/>
      </defs>
      <g transform="translate(636.482599 490.53515)scale(0.2592 -0.2592)">
       <use xlink:href="#DejaVuSans-49"/>
       <use x="63.623047" xlink:href="#DejaVuSans-48"/>
      </g>
     </g>
    </g>
    <g id="text_7">
     <!-- PcaVarV Cutoff -->
     <defs>
      <path d="M 19.671875 64.796875 
L 19.671875 37.40625 
L 32.078125 37.40625 
Q 38.96875 37.40625 42.71875 40.96875 
Q 46.484375 44.53125 46.484375 51.125 
Q 46.484375 57.671875 42.71875 61.234375 
Q 38.96875 64.796875 32.078125 64.796875 
z
M 9.8125 72.90625 
L 32.078125 72.90625 
Q 44.34375 72.90625 50.609375 67.359375 
Q 56.890625 61.8125 56.890625 51.125 
Q 56.890625 40.328125 50.609375 34.8125 
Q 44.34375 29.296875 32.078125 29.296875 
L 19.671875 29.296875 
L 19.671875 0 
L 9.8125 0 
z
" id="DejaVuSans-80"/>
      <path d="M 48.78125 52.59375 
L 48.78125 44.1875 
Q 44.96875 46.296875 41.140625 47.34375 
Q 37.3125 48.390625 33.40625 48.390625 
Q 24.65625 48.390625 19.8125 42.84375 
Q 14.984375 37.3125 14.984375 27.296875 
Q 14.984375 17.28125 19.8125 11.734375 
Q 24.65625 6.203125 33.40625 6.203125 
Q 37.3125 6.203125 41.140625 7.25 
Q 44.96875 8.296875 48.78125 10.40625 
L 48.78125 2.09375 
Q 45.015625 0.34375 40.984375 -0.53125 
Q 36.96875 -1.421875 32.421875 -1.421875 
Q 20.0625 -1.421875 12.78125 6.34375 
Q 5.515625 14.109375 5.515625 27.296875 
Q 5.515625 40.671875 12.859375 48.328125 
Q 20.21875 56 33.015625 56 
Q 37.15625 56 41.109375 55.140625 
Q 45.0625 54.296875 48.78125 52.59375 
z
" id="DejaVuSans-99"/>
      <path d="M 34.28125 27.484375 
Q 23.390625 27.484375 19.1875 25 
Q 14.984375 22.515625 14.984375 16.5 
Q 14.984375 11.71875 18.140625 8.90625 
Q 21.296875 6.109375 26.703125 6.109375 
Q 34.1875 6.109375 38.703125 11.40625 
Q 43.21875 16.703125 43.21875 25.484375 
L 43.21875 27.484375 
z
M 52.203125 31.203125 
L 52.203125 0 
L 43.21875 0 
L 43.21875 8.296875 
Q 40.140625 3.328125 35.546875 0.953125 
Q 30.953125 -1.421875 24.3125 -1.421875 
Q 15.921875 -1.421875 10.953125 3.296875 
Q 6 8.015625 6 15.921875 
Q 6 25.140625 12.171875 29.828125 
Q 18.359375 34.515625 30.609375 34.515625 
L 43.21875 34.515625 
L 43.21875 35.40625 
Q 43.21875 41.609375 39.140625 45 
Q 35.0625 48.390625 27.6875 48.390625 
Q 23 48.390625 18.546875 47.265625 
Q 14.109375 46.140625 10.015625 43.890625 
L 10.015625 52.203125 
Q 14.9375 54.109375 19.578125 55.046875 
Q 24.21875 56 28.609375 56 
Q 40.484375 56 46.34375 49.84375 
Q 52.203125 43.703125 52.203125 31.203125 
z
" id="DejaVuSans-97"/>
      <path d="M 28.609375 0 
L 0.78125 72.90625 
L 11.078125 72.90625 
L 34.1875 11.53125 
L 57.328125 72.90625 
L 67.578125 72.90625 
L 39.796875 0 
z
" id="DejaVuSans-86"/>
      <path d="M 41.109375 46.296875 
Q 39.59375 47.171875 37.8125 47.578125 
Q 36.03125 48 33.890625 48 
Q 26.265625 48 22.1875 43.046875 
Q 18.109375 38.09375 18.109375 28.8125 
L 18.109375 0 
L 9.078125 0 
L 9.078125 54.6875 
L 18.109375 54.6875 
L 18.109375 46.1875 
Q 20.953125 51.171875 25.484375 53.578125 
Q 30.03125 56 36.53125 56 
Q 37.453125 56 38.578125 55.875 
Q 39.703125 55.765625 41.0625 55.515625 
z
" id="DejaVuSans-114"/>
      <path id="DejaVuSans-32"/>
      <path d="M 64.40625 67.28125 
L 64.40625 56.890625 
Q 59.421875 61.53125 53.78125 63.8125 
Q 48.140625 66.109375 41.796875 66.109375 
Q 29.296875 66.109375 22.65625 58.46875 
Q 16.015625 50.828125 16.015625 36.375 
Q 16.015625 21.96875 22.65625 14.328125 
Q 29.296875 6.6875 41.796875 6.6875 
Q 48.140625 6.6875 53.78125 8.984375 
Q 59.421875 11.28125 64.40625 15.921875 
L 64.40625 5.609375 
Q 59.234375 2.09375 53.4375 0.328125 
Q 47.65625 -1.421875 41.21875 -1.421875 
Q 24.65625 -1.421875 15.125 8.703125 
Q 5.609375 18.84375 5.609375 36.375 
Q 5.609375 53.953125 15.125 64.078125 
Q 24.65625 74.21875 41.21875 74.21875 
Q 47.75 74.21875 53.53125 72.484375 
Q 59.328125 70.75 64.40625 67.28125 
z
" id="DejaVuSans-67"/>
      <path d="M 8.5 21.578125 
L 8.5 54.6875 
L 17.484375 54.6875 
L 17.484375 21.921875 
Q 17.484375 14.15625 20.5 10.265625 
Q 23.53125 6.390625 29.59375 6.390625 
Q 36.859375 6.390625 41.078125 11.03125 
Q 45.3125 15.671875 45.3125 23.6875 
L 45.3125 54.6875 
L 54.296875 54.6875 
L 54.296875 0 
L 45.3125 0 
L 45.3125 8.40625 
Q 42.046875 3.421875 37.71875 1 
Q 33.40625 -1.421875 27.6875 -1.421875 
Q 18.265625 -1.421875 13.375 4.4375 
Q 8.5 10.296875 8.5 21.578125 
z
M 31.109375 56 
z
" id="DejaVuSans-117"/>
      <path d="M 18.3125 70.21875 
L 18.3125 54.6875 
L 36.8125 54.6875 
L 36.8125 47.703125 
L 18.3125 47.703125 
L 18.3125 18.015625 
Q 18.3125 11.328125 20.140625 9.421875 
Q 21.96875 7.515625 27.59375 7.515625 
L 36.8125 7.515625 
L 36.8125 0 
L 27.59375 0 
Q 17.1875 0 13.234375 3.875 
Q 9.28125 7.765625 9.28125 18.015625 
L 9.28125 47.703125 
L 2.6875 47.703125 
L 2.6875 54.6875 
L 9.28125 54.6875 
L 9.28125 70.21875 
z
" id="DejaVuSans-116"/>
      <path d="M 30.609375 48.390625 
Q 23.390625 48.390625 19.1875 42.75 
Q 14.984375 37.109375 14.984375 27.296875 
Q 14.984375 17.484375 19.15625 11.84375 
Q 23.34375 6.203125 30.609375 6.203125 
Q 37.796875 6.203125 41.984375 11.859375 
Q 46.1875 17.53125 46.1875 27.296875 
Q 46.1875 37.015625 41.984375 42.703125 
Q 37.796875 48.390625 30.609375 48.390625 
z
M 30.609375 56 
Q 42.328125 56 49.015625 48.375 
Q 55.71875 40.765625 55.71875 27.296875 
Q 55.71875 13.875 49.015625 6.21875 
Q 42.328125 -1.421875 30.609375 -1.421875 
Q 18.84375 -1.421875 12.171875 6.21875 
Q 5.515625 13.875 5.515625 27.296875 
Q 5.515625 40.765625 12.171875 48.375 
Q 18.84375 56 30.609375 56 
z
" id="DejaVuSans-111"/>
      <path d="M 37.109375 75.984375 
L 37.109375 68.5 
L 28.515625 68.5 
Q 23.6875 68.5 21.796875 66.546875 
Q 19.921875 64.59375 19.921875 59.515625 
L 19.921875 54.6875 
L 34.71875 54.6875 
L 34.71875 47.703125 
L 19.921875 47.703125 
L 19.921875 0 
L 10.890625 0 
L 10.890625 47.703125 
L 2.296875 47.703125 
L 2.296875 54.6875 
L 10.890625 54.6875 
L 10.890625 58.5 
Q 10.890625 67.625 15.140625 71.796875 
Q 19.390625 75.984375 28.609375 75.984375 
z
" id="DejaVuSans-102"/>
     </defs>
     <g transform="translate(288.928757 519.62085)scale(0.2592 -0.2592)">
      <use xlink:href="#DejaVuSans-80"/>
      <use x="60.302734" xlink:href="#DejaVuSans-99"/>
      <use x="115.283203" xlink:href="#DejaVuSans-97"/>
      <use x="176.5625" xlink:href="#DejaVuSans-86"/>
      <use x="244.861328" xlink:href="#DejaVuSans-97"/>
      <use x="306.140625" xlink:href="#DejaVuSans-114"/>
      <use x="347.253906" xlink:href="#DejaVuSans-86"/>
      <use x="415.662109" xlink:href="#DejaVuSans-32"/>
      <use x="447.449219" xlink:href="#DejaVuSans-67"/>
      <use x="517.273438" xlink:href="#DejaVuSans-117"/>
      <use x="580.652344" xlink:href="#DejaVuSans-116"/>
      <use x="619.861328" xlink:href="#DejaVuSans-111"/>
      <use x="681.042969" xlink:href="#DejaVuSans-102"/>
      <use x="716.248047" xlink:href="#DejaVuSans-102"/>
     </g>
    </g>
   </g>
   <g id="matplotlib.axis_2">
    <g id="ytick_1">
     <g id="line2d_7">
      <defs>
       <path d="M 0 0 
L -3.5 0 
" id="m77645c24f9" style="stroke:#000000;stroke-width:0.8;"/>
      </defs>
      <g>
       <use style="stroke:#000000;stroke-width:0.8;" x="92.99" xlink:href="#m77645c24f9" y="463.84"/>
      </g>
     </g>
     <g id="text_8">
      <!-- 0.0 -->
      <defs>
       <path d="M 10.6875 12.40625 
L 21 12.40625 
L 21 0 
L 10.6875 0 
z
" id="DejaVuSans-46"/>
      </defs>
      <g transform="translate(44.7691 473.687575)scale(0.2592 -0.2592)">
       <use xlink:href="#DejaVuSans-48"/>
       <use x="63.623047" xlink:href="#DejaVuSans-46"/>
       <use x="95.410156" xlink:href="#DejaVuSans-48"/>
      </g>
     </g>
    </g>
    <g id="ytick_2">
     <g id="line2d_8">
      <g>
       <use style="stroke:#000000;stroke-width:0.8;" x="92.99" xlink:href="#m77645c24f9" y="379.4"/>
      </g>
     </g>
     <g id="text_9">
      <!-- 0.2 -->
      <g transform="translate(44.7691 389.247575)scale(0.2592 -0.2592)">
       <use xlink:href="#DejaVuSans-48"/>
       <use x="63.623047" xlink:href="#DejaVuSans-46"/>
       <use x="95.410156" xlink:href="#DejaVuSans-50"/>
      </g>
     </g>
    </g>
    <g id="ytick_3">
     <g id="line2d_9">
      <g>
       <use style="stroke:#000000;stroke-width:0.8;" x="92.99" xlink:href="#m77645c24f9" y="294.96"/>
      </g>
     </g>
     <g id="text_10">
      <!-- 0.4 -->
      <g transform="translate(44.7691 304.807575)scale(0.2592 -0.2592)">
       <use xlink:href="#DejaVuSans-48"/>
       <use x="63.623047" xlink:href="#DejaVuSans-46"/>
       <use x="95.410156" xlink:href="#DejaVuSans-52"/>
      </g>
     </g>
    </g>
    <g id="ytick_4">
     <g id="line2d_10">
      <g>
       <use style="stroke:#000000;stroke-width:0.8;" x="92.99" xlink:href="#m77645c24f9" y="210.52"/>
      </g>
     </g>
     <g id="text_11">
      <!-- 0.6 -->
      <g transform="translate(44.7691 220.367575)scale(0.2592 -0.2592)">
       <use xlink:href="#DejaVuSans-48"/>
       <use x="63.623047" xlink:href="#DejaVuSans-46"/>
       <use x="95.410156" xlink:href="#DejaVuSans-54"/>
      </g>
     </g>
    </g>
    <g id="ytick_5">
     <g id="line2d_11">
      <g>
       <use style="stroke:#000000;stroke-width:0.8;" x="92.99" xlink:href="#m77645c24f9" y="126.08"/>
      </g>
     </g>
     <g id="text_12">
      <!-- 0.8 -->
      <g transform="translate(44.7691 135.927575)scale(0.2592 -0.2592)">
       <use xlink:href="#DejaVuSans-48"/>
       <use x="63.623047" xlink:href="#DejaVuSans-46"/>
       <use x="95.410156" xlink:href="#DejaVuSans-56"/>
      </g>
     </g>
    </g>
    <g id="ytick_6">
     <g id="line2d_12">
      <g>
       <use style="stroke:#000000;stroke-width:0.8;" x="92.99" xlink:href="#m77645c24f9" y="41.64"/>
      </g>
     </g>
     <g id="text_13">
      <!-- 1.0 -->
      <g transform="translate(44.7691 51.487575)scale(0.2592 -0.2592)">
       <use xlink:href="#DejaVuSans-49"/>
       <use x="63.623047" xlink:href="#DejaVuSans-46"/>
       <use x="95.410156" xlink:href="#DejaVuSans-48"/>
      </g>
     </g>
    </g>
    <g id="text_14">
     <!-- Fraction -->
     <defs>
      <path d="M 9.8125 72.90625 
L 51.703125 72.90625 
L 51.703125 64.59375 
L 19.671875 64.59375 
L 19.671875 43.109375 
L 48.578125 43.109375 
L 48.578125 34.8125 
L 19.671875 34.8125 
L 19.671875 0 
L 9.8125 0 
z
" id="DejaVuSans-70"/>
      <path d="M 9.421875 54.6875 
L 18.40625 54.6875 
L 18.40625 0 
L 9.421875 0 
z
M 9.421875 75.984375 
L 18.40625 75.984375 
L 18.40625 64.59375 
L 9.421875 64.59375 
z
" id="DejaVuSans-105"/>
      <path d="M 54.890625 33.015625 
L 54.890625 0 
L 45.90625 0 
L 45.90625 32.71875 
Q 45.90625 40.484375 42.875 44.328125 
Q 39.84375 48.1875 33.796875 48.1875 
Q 26.515625 48.1875 22.3125 43.546875 
Q 18.109375 38.921875 18.109375 30.90625 
L 18.109375 0 
L 9.078125 0 
L 9.078125 54.6875 
L 18.109375 54.6875 
L 18.109375 46.1875 
Q 21.34375 51.125 25.703125 53.5625 
Q 30.078125 56 35.796875 56 
Q 45.21875 56 50.046875 50.171875 
Q 54.890625 44.34375 54.890625 33.015625 
z
" id="DejaVuSans-110"/>
     </defs>
     <g transform="translate(35.37855 305.400125)rotate(-90)scale(0.2592 -0.2592)">
      <use xlink:href="#DejaVuSans-70"/>
      <use x="57.410156" xlink:href="#DejaVuSans-114"/>
      <use x="98.523438" xlink:href="#DejaVuSans-97"/>
      <use x="159.802734" xlink:href="#DejaVuSans-99"/>
      <use x="214.783203" xlink:href="#DejaVuSans-116"/>
      <use x="253.992188" xlink:href="#DejaVuSans-105"/>
      <use x="281.775391" xlink:href="#DejaVuSans-111"/>
      <use x="342.957031" xlink:href="#DejaVuSans-110"/>
     </g>
    </g>
   </g>
   <g id="line2d_13">
    <path clip-path="url(#p9c81671a92)" d="M 119.655914 463.84 
L 120.189766 428.962879 
L 120.723619 409.936165 
L 121.791323 385.117357 
L 122.859027 367.414104 
L 123.926731 353.027292 
L 125.528288 336.740922 
L 126.595992 327.959361 
L 127.663696 319.753896 
L 129.799105 305.787478 
L 131.400661 296.912496 
L 134.603774 280.127882 
L 136.205331 273.074607 
L 137.806887 266.052472 
L 142.611556 247.524002 
L 143.67926 243.896159 
L 144.746965 239.972483 
L 149.017782 225.772512 
L 151.15319 219.855858 
L 152.220895 217.255644 
L 153.822451 212.880434 
L 156.491712 205.609177 
L 159.160972 199.739233 
L 160.762529 196.11139 
L 162.364085 192.748239 
L 163.965642 189.042545 
L 165.567198 186.193208 
L 167.168754 182.736637 
L 168.770311 180.074142 
L 169.838015 178.299146 
L 171.439572 175.340819 
L 173.041128 172.958587 
L 174.108832 170.934468 
L 175.176537 169.533155 
L 176.778093 166.948512 
L 178.379649 164.535139 
L 179.447354 162.775713 
L 182.116614 159.521553 
L 183.184319 157.948969 
L 187.455136 152.374858 
L 187.988988 151.861043 
L 189.056692 150.45973 
L 190.658249 148.871575 
L 192.793657 146.286932 
L 193.861361 144.916759 
L 197.064474 141.80273 
L 199.733735 138.968964 
L 200.267587 138.673132 
L 200.801439 137.972475 
L 205.072256 134.11108 
L 206.13996 133.114591 
L 206.673813 132.803188 
L 207.741517 131.94683 
L 210.94463 129.78258 
L 212.012334 129.222055 
L 213.080038 128.350127 
L 216.283151 126.419429 
L 218.952412 124.37974 
L 219.486264 124.006057 
L 220.553968 123.102989 
L 222.689377 121.732816 
L 223.223229 121.468124 
L 224.290933 120.674046 
L 227.494046 118.821199 
L 229.095602 118.058262 
L 230.163307 117.482167 
L 231.231011 116.952782 
L 231.764863 116.70366 
L 232.832567 116.345547 
L 234.434124 115.302347 
L 234.967976 115.162216 
L 240.306497 112.126038 
L 241.908054 111.394241 
L 243.50961 110.522313 
L 245.645019 109.759376 
L 248.848131 107.99995 
L 250.449688 107.268153 
L 252.051244 106.536356 
L 252.585096 106.380655 
L 253.652801 105.86684 
L 255.254357 105.306315 
L 258.991322 103.905002 
L 260.059026 103.422328 
L 261.660583 102.752812 
L 262.728287 102.410268 
L 263.262139 102.145576 
L 264.863696 101.616191 
L 266.465252 100.915535 
L 269.134513 99.965756 
L 270.202217 99.514222 
L 271.269921 99.218389 
L 272.337626 98.860276 
L 275.006886 98.159619 
L 275.540738 97.988348 
L 276.07459 97.645805 
L 278.209999 97.007429 
L 279.277703 96.742736 
L 282.480816 95.621686 
L 288.887042 94.017961 
L 290.488598 93.659848 
L 297.428676 91.915992 
L 298.49638 91.66687 
L 299.564085 91.355467 
L 312.910388 88.288149 
L 313.44424 88.241438 
L 314.511944 87.976746 
L 317.181205 87.462931 
L 318.782761 87.011397 
L 320.91817 86.544293 
L 331.061361 84.426753 
L 331.595213 84.208771 
L 333.730621 83.866228 
L 334.264473 83.663816 
L 335.332178 83.445834 
L 336.399882 83.258992 
L 338.535291 82.97873 
L 339.602995 82.698467 
L 340.670699 82.605046 
L 341.738403 82.355924 
L 346.00922 81.624127 
L 347.076925 81.421716 
L 348.678481 81.172593 
L 352.415446 80.705489 
L 354.550855 80.487507 
L 355.618559 80.316235 
L 356.686263 80.176104 
L 367.897158 78.463388 
L 370.032567 78.074135 
L 371.634123 77.934004 
L 378.574201 76.812953 
L 382.845018 76.345849 
L 383.912722 76.205718 
L 385.514279 76.065586 
L 387.649687 75.723043 
L 389.785096 75.567342 
L 391.386652 75.442781 
L 394.589765 74.991246 
L 398.32673 74.586423 
L 399.394434 74.384011 
L 402.597547 74.103748 
L 415.409998 72.702435 
L 419.146963 72.484453 
L 426.620893 71.503534 
L 429.290154 71.285552 
L 430.357858 71.114281 
L 433.560971 70.834018 
L 438.36564 70.242353 
L 440.501049 70.102222 
L 442.636457 69.93095 
L 449.042683 69.479416 
L 451.711944 69.261434 
L 452.779648 69.136873 
L 454.915056 68.965601 
L 480.539959 66.832492 
L 498.690932 65.680301 
L 500.82634 65.54017 
L 502.961749 65.431179 
L 505.631009 65.291047 
L 507.766418 65.135346 
L 513.104939 64.777233 
L 522.180426 64.201137 
L 523.24813 64.061006 
L 526.985095 63.843024 
L 538.19599 63.142368 
L 539.263694 62.986666 
L 544.068363 62.597413 
L 547.271476 62.426141 
L 549.940737 62.33272 
L 552.076145 62.239299 
L 555.81311 62.021317 
L 572.896379 60.915837 
L 574.497935 60.806846 
L 577.167196 60.697855 
L 583.573422 60.417593 
L 587.310386 60.308602 
L 592.648908 60.10619 
L 595.318169 59.997199 
L 603.859803 59.670226 
L 605.995211 59.530094 
L 638.560192 58.471325 
L 640.161748 58.346764 
L 644.432565 58.237773 
L 652.974199 57.95751 
L 652.974199 57.95751 
" style="fill:none;stroke:#0000ff;stroke-linecap:square;stroke-width:1.5;"/>
   </g>
   <g id="line2d_14">
    <path clip-path="url(#p9c81671a92)" d="M 120.189766 43.516444 
L 120.723619 44.065043 
L 121.791323 47.242966 
L 124.460583 52.895007 
L 126.06214 56.677392 
L 127.663696 59.635696 
L 128.197548 60.674477 
L 129.265253 62.386034 
L 129.799105 63.452089 
L 130.866809 64.611198 
L 131.400661 65.143074 
L 131.934513 66.247979 
L 133.53607 68.17453 
L 135.137626 70.002131 
L 136.205331 71.188231 
L 136.739183 71.458349 
L 141.543852 76.903779 
L 145.814669 80.281767 
L 146.348521 80.485104 
L 150.085486 82.982005 
L 150.619338 83.104543 
L 154.356303 85.344844 
L 155.424007 85.733935 
L 157.559416 87.257063 
L 158.093268 87.466576 
L 158.62712 87.816037 
L 159.160972 87.955242 
L 162.364085 90.089532 
L 162.897937 90.164808 
L 163.43179 90.400348 
L 163.965642 90.504272 
L 167.702607 92.445937 
L 171.973424 94.101544 
L 173.041128 94.745924 
L 174.642684 95.201811 
L 177.845797 96.391278 
L 178.379649 96.635647 
L 179.447354 96.818501 
L 180.515058 97.276565 
L 181.582762 97.685577 
L 191.725953 100.533322 
L 192.259805 100.574872 
L 194.395213 101.270072 
L 195.462918 101.592083 
L 197.064474 102.161629 
L 197.598326 102.410287 
L 198.666031 102.654172 
L 200.267587 103.143547 
L 201.869143 103.489425 
L 203.4707 103.857329 
L 209.343073 105.195547 
L 210.410778 105.508367 
L 216.817003 107.160311 
L 217.350855 107.186058 
L 220.020116 107.771636 
L 221.621672 108.105968 
L 224.824785 108.825737 
L 225.89249 109.106603 
L 228.027898 109.535792 
L 233.366419 110.673526 
L 234.967976 110.853373 
L 237.637237 111.25425 
L 238.704941 111.448904 
L 240.306497 111.658471 
L 241.908054 111.809677 
L 242.441906 111.822806 
L 244.043462 112.179634 
L 247.780427 112.837406 
L 248.848131 112.917728 
L 250.98354 113.194914 
L 253.118949 113.63743 
L 257.389766 114.279492 
L 263.795991 115.098058 
L 272.871478 116.160709 
L 275.006886 116.563385 
L 285.683929 117.733252 
L 286.751633 117.891826 
L 287.819337 118.030187 
L 289.420894 118.349434 
L 291.02245 118.565964 
L 291.556302 118.745213 
L 294.759415 119.176319 
L 296.894824 119.548012 
L 299.030232 119.690879 
L 300.631789 119.864034 
L 301.699493 120.058003 
L 303.301049 120.236491 
L 305.97031 120.593543 
L 307.038014 120.661543 
L 308.639571 120.937894 
L 309.707275 120.99737 
L 319.850466 122.089286 
L 321.452022 122.192614 
L 324.121283 122.394629 
L 335.332178 123.216257 
L 336.933734 123.364216 
L 340.136847 123.695851 
L 342.806108 123.97822 
L 346.00922 124.153802 
L 348.678481 124.397774 
L 365.227897 125.606525 
L 366.829454 125.705464 
L 368.964862 125.73869 
L 372.167975 125.919157 
L 411.139181 128.609887 
L 413.808442 128.751527 
L 418.079259 129.021585 
L 421.816224 129.203171 
L 423.41778 129.290485 
L 429.824006 129.67618 
L 431.425562 129.709264 
L 432.493267 129.789175 
L 438.899492 130.085111 
L 445.83957 130.584485 
L 456.516613 131.164599 
L 460.78743 131.292022 
L 466.125951 131.477573 
L 467.727508 131.599279 
L 468.795212 131.699237 
L 482.141515 132.143013 
L 484.810776 132.22284 
L 492.284706 132.538473 
L 495.487819 132.616856 
L 504.029453 133.110205 
L 506.698714 133.229453 
L 521.646574 133.827898 
L 524.315834 133.934824 
L 528.586651 134.094896 
L 540.331398 134.475906 
L 543.534511 134.557737 
L 554.211554 134.892727 
L 570.76097 135.369086 
L 577.167196 135.484768 
L 579.836457 135.604433 
L 592.648908 136.134848 
L 602.258246 136.386116 
L 607.062916 136.530707 
L 612.401437 136.663959 
L 618.27381 136.878096 
L 626.815445 137.039935 
L 631.620114 137.194557 
L 637.492487 137.415575 
L 641.229452 137.517089 
L 652.974199 137.796938 
L 652.974199 137.796938 
" style="fill:none;stroke:#ff0000;stroke-linecap:square;stroke-width:1.5;"/>
   </g>
   <g id="line2d_15">
    <path clip-path="url(#p9c81671a92)" d="M 120.189766 429.117889 
L 120.723619 410.245779 
L 121.791323 386.162075 
L 122.859027 369.247005 
L 123.926731 355.671841 
L 125.528288 340.941425 
L 126.595992 333.097957 
L 127.663696 325.895369 
L 129.799105 313.952934 
L 130.866809 308.77739 
L 132.468366 301.422399 
L 133.53607 296.956021 
L 134.069922 294.198462 
L 137.806887 280.606703 
L 142.611556 266.033236 
L 143.67926 263.198947 
L 144.746965 260.043168 
L 145.814669 257.024654 
L 146.882373 253.966371 
L 148.48393 250.127348 
L 149.551634 247.53829 
L 151.15319 244.012981 
L 152.220895 242.08211 
L 154.890155 236.333808 
L 155.95786 233.952055 
L 157.025564 232.324467 
L 157.559416 231.676814 
L 158.093268 230.487367 
L 158.62712 229.747194 
L 159.694825 227.810373 
L 162.364085 223.857355 
L 162.897937 222.734337 
L 164.499494 220.220391 
L 165.033346 219.706839 
L 166.10105 218.089553 
L 167.168754 216.361572 
L 168.236459 215.20717 
L 170.371867 212.46102 
L 171.973424 210.520888 
L 173.041128 209.546759 
L 174.108832 207.95912 
L 175.176537 206.995825 
L 176.244241 205.699966 
L 178.379649 203.522502 
L 179.447354 202.122649 
L 182.650466 199.447805 
L 183.718171 198.341116 
L 184.252023 197.940363 
L 186.387431 195.877263 
L 187.988988 194.685108 
L 189.056692 193.634598 
L 191.725953 191.74854 
L 192.793657 190.731506 
L 193.861361 189.825539 
L 197.598326 187.649372 
L 198.132178 187.1268 
L 198.666031 186.916657 
L 199.733735 186.17188 
L 200.267587 186.041478 
L 200.801439 185.51477 
L 202.402996 184.566503 
L 203.4707 184.015736 
L 204.538404 183.40731 
L 205.606108 182.634552 
L 206.13996 182.313193 
L 206.673813 182.166583 
L 208.275369 181.346986 
L 209.876925 180.886044 
L 210.94463 180.428163 
L 212.012334 180.216484 
L 213.080038 179.666704 
L 215.215447 179.105468 
L 215.749299 178.813485 
L 216.283151 178.706789 
L 217.884708 177.88824 
L 218.952412 177.438058 
L 222.155525 175.965029 
L 223.223229 175.6048 
L 223.757081 175.270752 
L 226.960194 174.407107 
L 228.027898 174.056893 
L 230.163307 173.643013 
L 231.231011 173.356996 
L 232.832567 173.136753 
L 234.434124 172.393778 
L 234.967976 172.322722 
L 237.637237 171.366505 
L 238.171089 171.256693 
L 238.704941 170.99515 
L 239.238793 170.902416 
L 240.306497 170.454967 
L 240.840349 170.340471 
L 242.441906 169.722079 
L 242.975758 169.657282 
L 244.043462 169.410685 
L 245.645019 169.159397 
L 246.712723 168.754619 
L 247.246575 168.713089 
L 249.381984 167.938009 
L 253.652801 166.990192 
L 255.254357 166.77771 
L 258.991322 166.015627 
L 259.525174 165.792563 
L 261.126731 165.498974 
L 263.262139 165.032736 
L 264.863696 164.753055 
L 266.465252 164.28595 
L 269.134513 163.778565 
L 270.202217 163.467959 
L 271.269921 163.339951 
L 272.871478 163.178705 
L 274.473034 163.093954 
L 275.540738 162.960917 
L 276.07459 162.713421 
L 280.87926 161.89838 
L 281.946964 161.689508 
L 283.54852 161.537548 
L 284.082373 161.399949 
L 285.150077 161.36117 
L 288.35319 161.157441 
L 289.954746 161.031342 
L 291.02245 160.993058 
L 291.556302 161.099374 
L 292.624007 160.964748 
L 293.691711 160.870507 
L 294.759415 160.76577 
L 295.293267 160.804651 
L 296.360972 160.681003 
L 296.894824 160.673612 
L 299.030232 160.304435 
L 300.631789 160.165393 
L 301.165641 160.214194 
L 304.368754 159.846111 
L 304.902606 159.873151 
L 305.97031 159.733462 
L 307.571867 159.573857 
L 308.639571 159.5833 
L 310.241127 159.337277 
L 311.842684 159.220841 
L 312.910388 159.205372 
L 313.44424 159.221788 
L 314.511944 159.058712 
L 318.248909 158.82067 
L 321.985874 158.357824 
L 324.655135 158.107258 
L 326.256691 157.920293 
L 327.324396 157.76653 
L 328.3921 157.693082 
L 331.061361 157.523796 
L 331.595213 157.374794 
L 332.129065 157.380994 
L 332.662917 157.231532 
L 333.730621 157.237701 
L 334.798326 157.053838 
L 335.86603 156.850126 
L 337.467586 156.867968 
L 340.670699 156.762632 
L 341.738403 156.654233 
L 343.33996 156.531112 
L 345.475368 156.398114 
L 347.076925 156.249763 
L 348.678481 156.181364 
L 355.618559 155.961061 
L 356.152411 155.996258 
L 358.28782 155.787565 
L 359.889376 155.858244 
L 362.558637 155.599778 
L 363.626341 155.550233 
L 365.227897 155.530633 
L 370.566419 154.963033 
L 371.634123 154.933236 
L 379.108053 154.469707 
L 386.581983 154.30847 
L 387.649687 154.183713 
L 389.251244 154.197925 
L 391.386652 154.182347 
L 395.123617 154.060628 
L 398.32673 154.043125 
L 399.394434 153.898458 
L 408.469921 153.622388 
L 412.740738 153.549279 
L 414.342294 153.532811 
L 415.409998 153.448076 
L 419.680815 153.478389 
L 421.282372 153.337827 
L 422.883928 153.360215 
L 423.951632 153.200037 
L 433.560971 152.930955 
L 436.230232 152.748938 
L 453.847352 152.628217 
L 458.652021 152.437996 
L 461.855134 152.408941 
L 463.990543 152.315882 
L 465.058247 152.265289 
L 467.727508 152.146841 
L 468.795212 152.228368 
L 469.862916 152.137564 
L 470.930621 152.135917 
L 473.066029 152.059957 
L 497.089375 151.664198 
L 498.15708 151.699593 
L 501.894045 151.726639 
L 504.563305 151.716293 
L 506.164862 151.714242 
L 510.435679 151.631726 
L 511.503383 151.589344 
L 514.172644 151.583985 
L 530.72206 151.344883 
L 532.323616 151.346687 
L 534.459025 151.236429 
L 538.19599 151.204978 
L 539.263694 151.09471 
L 543.000659 150.989068 
L 545.136068 150.873445 
L 549.940737 150.8607 
L 551.542293 150.847497 
L 553.14385 150.898874 
L 554.211554 150.857272 
L 556.346963 150.809031 
L 557.948519 150.825363 
L 560.083927 150.75819 
L 563.820892 150.7437 
L 566.490153 150.66572 
L 570.76097 150.547359 
L 572.362527 150.431649 
L 578.2349 150.294407 
L 581.438013 150.340023 
L 583.573422 150.388278 
L 593.18276 150.486781 
L 595.318169 150.420768 
L 600.65669 150.475141 
L 603.859803 150.419465 
L 609.732176 150.281401 
L 612.935289 150.319721 
L 617.739958 150.403154 
L 619.875367 150.414849 
L 625.213888 150.388424 
L 628.417001 150.435812 
L 629.484705 150.414013 
L 642.831009 150.410793 
L 647.635678 150.417347 
L 652.974199 150.398101 
L 652.974199 150.398101 
" style="fill:none;stroke:#008000;stroke-linecap:square;stroke-width:1.5;"/>
   </g>
   <g id="line2d_16">
    <path clip-path="url(#p9c81671a92)" d="M 609.198324 463.84 
L 609.198324 41.64 
" style="fill:none;stroke:#1f77b4;stroke-linecap:square;stroke-width:1.5;"/>
   </g>
   <g id="patch_3">
    <path d="M 92.99 463.84 
L 92.99 41.64 
" style="fill:none;stroke:#000000;stroke-linecap:square;stroke-linejoin:miter;stroke-width:0.8;"/>
   </g>
   <g id="patch_4">
    <path d="M 679.640114 463.84 
L 679.640114 41.64 
" style="fill:none;stroke:#000000;stroke-linecap:square;stroke-linejoin:miter;stroke-width:0.8;"/>
   </g>
   <g id="patch_5">
    <path d="M 92.99 463.84 
L 679.640114 463.84 
" style="fill:none;stroke:#000000;stroke-linecap:square;stroke-linejoin:miter;stroke-width:0.8;"/>
   </g>
   <g id="patch_6">
    <path d="M 92.99 41.64 
L 679.640114 41.64 
" style="fill:none;stroke:#000000;stroke-linecap:square;stroke-linejoin:miter;stroke-width:0.8;"/>
   </g>
   <g id="text_15">
    <!-- Purity/Efficiency vs PcaVarV Cutoff — track -->
    <defs>
     <path d="M 32.171875 -5.078125 
Q 28.375 -14.84375 24.75 -17.8125 
Q 21.140625 -20.796875 15.09375 -20.796875 
L 7.90625 -20.796875 
L 7.90625 -13.28125 
L 13.1875 -13.28125 
Q 16.890625 -13.28125 18.9375 -11.515625 
Q 21 -9.765625 23.484375 -3.21875 
L 25.09375 0.875 
L 2.984375 54.6875 
L 12.5 54.6875 
L 29.59375 11.921875 
L 46.6875 54.6875 
L 56.203125 54.6875 
z
" id="DejaVuSans-121"/>
     <path d="M 25.390625 72.90625 
L 33.6875 72.90625 
L 8.296875 -9.28125 
L 0 -9.28125 
z
" id="DejaVuSans-47"/>
     <path d="M 9.8125 72.90625 
L 55.90625 72.90625 
L 55.90625 64.59375 
L 19.671875 64.59375 
L 19.671875 43.015625 
L 54.390625 43.015625 
L 54.390625 34.71875 
L 19.671875 34.71875 
L 19.671875 8.296875 
L 56.78125 8.296875 
L 56.78125 0 
L 9.8125 0 
z
" id="DejaVuSans-69"/>
     <path d="M 56.203125 29.59375 
L 56.203125 25.203125 
L 14.890625 25.203125 
Q 15.484375 15.921875 20.484375 11.0625 
Q 25.484375 6.203125 34.421875 6.203125 
Q 39.59375 6.203125 44.453125 7.46875 
Q 49.3125 8.734375 54.109375 11.28125 
L 54.109375 2.78125 
Q 49.265625 0.734375 44.1875 -0.34375 
Q 39.109375 -1.421875 33.890625 -1.421875 
Q 20.796875 -1.421875 13.15625 6.1875 
Q 5.515625 13.8125 5.515625 26.8125 
Q 5.515625 40.234375 12.765625 48.109375 
Q 20.015625 56 32.328125 56 
Q 43.359375 56 49.78125 48.890625 
Q 56.203125 41.796875 56.203125 29.59375 
z
M 47.21875 32.234375 
Q 47.125 39.59375 43.09375 43.984375 
Q 39.0625 48.390625 32.421875 48.390625 
Q 24.90625 48.390625 20.390625 44.140625 
Q 15.875 39.890625 15.1875 32.171875 
z
" id="DejaVuSans-101"/>
     <path d="M 2.984375 54.6875 
L 12.5 54.6875 
L 29.59375 8.796875 
L 46.6875 54.6875 
L 56.203125 54.6875 
L 35.6875 0 
L 23.484375 0 
z
" id="DejaVuSans-118"/>
     <path d="M 44.28125 53.078125 
L 44.28125 44.578125 
Q 40.484375 46.53125 36.375 47.5 
Q 32.28125 48.484375 27.875 48.484375 
Q 21.1875 48.484375 17.84375 46.4375 
Q 14.5 44.390625 14.5 40.28125 
Q 14.5 37.15625 16.890625 35.375 
Q 19.28125 33.59375 26.515625 31.984375 
L 29.59375 31.296875 
Q 39.15625 29.25 43.1875 25.515625 
Q 47.21875 21.78125 47.21875 15.09375 
Q 47.21875 7.46875 41.1875 3.015625 
Q 35.15625 -1.421875 24.609375 -1.421875 
Q 20.21875 -1.421875 15.453125 -0.5625 
Q 10.6875 0.296875 5.421875 2 
L 5.421875 11.28125 
Q 10.40625 8.6875 15.234375 7.390625 
Q 20.0625 6.109375 24.8125 6.109375 
Q 31.15625 6.109375 34.5625 8.28125 
Q 37.984375 10.453125 37.984375 14.40625 
Q 37.984375 18.0625 35.515625 20.015625 
Q 33.0625 21.96875 24.703125 23.78125 
L 21.578125 24.515625 
Q 13.234375 26.265625 9.515625 29.90625 
Q 5.8125 33.546875 5.8125 39.890625 
Q 5.8125 47.609375 11.28125 51.796875 
Q 16.75 56 26.8125 56 
Q 31.78125 56 36.171875 55.265625 
Q 40.578125 54.546875 44.28125 53.078125 
z
" id="DejaVuSans-115"/>
     <path d="M 4.890625 30.90625 
L 95.125 30.90625 
L 95.125 23.875 
L 4.890625 23.875 
z
" id="DejaVuSans-8212"/>
     <path d="M 9.078125 75.984375 
L 18.109375 75.984375 
L 18.109375 31.109375 
L 44.921875 54.6875 
L 56.390625 54.6875 
L 27.390625 29.109375 
L 57.625 0 
L 45.90625 0 
L 18.109375 26.703125 
L 18.109375 0 
L 9.078125 0 
z
" id="DejaVuSans-107"/>
    </defs>
    <g transform="translate(107.393582 35.64)scale(0.2592 -0.2592)">
     <use xlink:href="#DejaVuSans-80"/>
     <use x="60.287109" xlink:href="#DejaVuSans-117"/>
     <use x="123.666016" xlink:href="#DejaVuSans-114"/>
     <use x="164.779297" xlink:href="#DejaVuSans-105"/>
     <use x="192.5625" xlink:href="#DejaVuSans-116"/>
     <use x="231.771484" xlink:href="#DejaVuSans-121"/>
     <use x="290.951172" xlink:href="#DejaVuSans-47"/>
     <use x="324.642578" xlink:href="#DejaVuSans-69"/>
     <use x="387.826172" xlink:href="#DejaVuSans-102"/>
     <use x="423.03125" xlink:href="#DejaVuSans-102"/>
     <use x="458.236328" xlink:href="#DejaVuSans-105"/>
     <use x="486.019531" xlink:href="#DejaVuSans-99"/>
     <use x="541" xlink:href="#DejaVuSans-105"/>
     <use x="568.783203" xlink:href="#DejaVuSans-101"/>
     <use x="630.306641" xlink:href="#DejaVuSans-110"/>
     <use x="693.685547" xlink:href="#DejaVuSans-99"/>
     <use x="748.666016" xlink:href="#DejaVuSans-121"/>
     <use x="807.845703" xlink:href="#DejaVuSans-32"/>
     <use x="839.632812" xlink:href="#DejaVuSans-118"/>
     <use x="898.8125" xlink:href="#DejaVuSans-115"/>
     <use x="950.912109" xlink:href="#DejaVuSans-32"/>
     <use x="982.699219" xlink:href="#DejaVuSans-80"/>
     <use x="1043.001953" xlink:href="#DejaVuSans-99"/>
     <use x="1097.982422" xlink:href="#DejaVuSans-97"/>
     <use x="1159.261719" xlink:href="#DejaVuSans-86"/>
     <use x="1227.560547" xlink:href="#DejaVuSans-97"/>
     <use x="1288.839844" xlink:href="#DejaVuSans-114"/>
     <use x="1329.953125" xlink:href="#DejaVuSans-86"/>
     <use x="1398.361328" xlink:href="#DejaVuSans-32"/>
     <use x="1430.148438" xlink:href="#DejaVuSans-67"/>
     <use x="1499.972656" xlink:href="#DejaVuSans-117"/>
     <use x="1563.351562" xlink:href="#DejaVuSans-116"/>
     <use x="1602.560547" xlink:href="#DejaVuSans-111"/>
     <use x="1663.742188" xlink:href="#DejaVuSans-102"/>
     <use x="1698.947266" xlink:href="#DejaVuSans-102"/>
     <use x="1734.152344" xlink:href="#DejaVuSans-32"/>
     <use x="1765.939453" xlink:href="#DejaVuSans-8212"/>
     <use x="1865.939453" xlink:href="#DejaVuSans-32"/>
     <use x="1897.726562" xlink:href="#DejaVuSans-116"/>
     <use x="1936.935547" xlink:href="#DejaVuSans-114"/>
     <use x="1978.048828" xlink:href="#DejaVuSans-97"/>
     <use x="2039.328125" xlink:href="#DejaVuSans-99"/>
     <use x="2094.308594" xlink:href="#DejaVuSans-107"/>
    </g>
   </g>
   <g id="legend_1">
    <g id="patch_7">
     <path d="M 277.620369 454.84 
L 495.009744 454.84 
Q 498.609744 454.84 498.609744 451.24 
L 498.609744 373.778125 
Q 498.609744 370.178125 495.009744 370.178125 
L 277.620369 370.178125 
Q 274.020369 370.178125 274.020369 373.778125 
L 274.020369 451.24 
Q 274.020369 454.84 277.620369 454.84 
z
" style="fill:#ffffff;opacity:0.8;stroke:#cccccc;stroke-linejoin:miter;"/>
    </g>
    <g id="line2d_17">
     <path d="M 281.220369 384.755313 
L 317.220369 384.755313 
" style="fill:none;stroke:#0000ff;stroke-linecap:square;stroke-width:1.5;"/>
    </g>
    <g id="line2d_18"/>
    <g id="text_16">
     <!-- Efficiency -->
     <g transform="translate(331.620369 391.055313)scale(0.18 -0.18)">
      <use xlink:href="#DejaVuSans-69"/>
      <use x="63.183594" xlink:href="#DejaVuSans-102"/>
      <use x="98.388672" xlink:href="#DejaVuSans-102"/>
      <use x="133.59375" xlink:href="#DejaVuSans-105"/>
      <use x="161.376953" xlink:href="#DejaVuSans-99"/>
      <use x="216.357422" xlink:href="#DejaVuSans-105"/>
      <use x="244.140625" xlink:href="#DejaVuSans-101"/>
      <use x="305.664062" xlink:href="#DejaVuSans-110"/>
      <use x="369.042969" xlink:href="#DejaVuSans-99"/>
      <use x="424.023438" xlink:href="#DejaVuSans-121"/>
     </g>
    </g>
    <g id="line2d_19">
     <path d="M 281.220369 411.175937 
L 317.220369 411.175937 
" style="fill:none;stroke:#ff0000;stroke-linecap:square;stroke-width:1.5;"/>
    </g>
    <g id="line2d_20"/>
    <g id="text_17">
     <!-- Purity -->
     <g transform="translate(331.620369 417.475937)scale(0.18 -0.18)">
      <use xlink:href="#DejaVuSans-80"/>
      <use x="60.287109" xlink:href="#DejaVuSans-117"/>
      <use x="123.666016" xlink:href="#DejaVuSans-114"/>
      <use x="164.779297" xlink:href="#DejaVuSans-105"/>
      <use x="192.5625" xlink:href="#DejaVuSans-116"/>
      <use x="231.771484" xlink:href="#DejaVuSans-121"/>
     </g>
    </g>
    <g id="line2d_21">
     <path d="M 281.220369 437.596562 
L 317.220369 437.596562 
" style="fill:none;stroke:#008000;stroke-linecap:square;stroke-width:1.5;"/>
    </g>
    <g id="line2d_22"/>
    <g id="text_18">
     <!-- Purity * Efficiency -->
     <defs>
      <path d="M 47.015625 60.890625 
L 29.5 51.421875 
L 47.015625 41.890625 
L 44.1875 37.109375 
L 27.78125 47.015625 
L 27.78125 28.609375 
L 22.21875 28.609375 
L 22.21875 47.015625 
L 5.8125 37.109375 
L 2.984375 41.890625 
L 20.515625 51.421875 
L 2.984375 60.890625 
L 5.8125 65.71875 
L 22.21875 55.8125 
L 22.21875 74.21875 
L 27.78125 74.21875 
L 27.78125 55.8125 
L 44.1875 65.71875 
z
" id="DejaVuSans-42"/>
     </defs>
     <g transform="translate(331.620369 443.896562)scale(0.18 -0.18)">
      <use xlink:href="#DejaVuSans-80"/>
      <use x="60.287109" xlink:href="#DejaVuSans-117"/>
      <use x="123.666016" xlink:href="#DejaVuSans-114"/>
      <use x="164.779297" xlink:href="#DejaVuSans-105"/>
      <use x="192.5625" xlink:href="#DejaVuSans-116"/>
      <use x="231.771484" xlink:href="#DejaVuSans-121"/>
      <use x="290.951172" xlink:href="#DejaVuSans-32"/>
      <use x="322.738281" xlink:href="#DejaVuSans-42"/>
      <use x="372.738281" xlink:href="#DejaVuSans-32"/>
      <use x="404.525391" xlink:href="#DejaVuSans-69"/>
      <use x="467.708984" xlink:href="#DejaVuSans-102"/>
      <use x="502.914062" xlink:href="#DejaVuSans-102"/>
      <use x="538.119141" xlink:href="#DejaVuSans-105"/>
      <use x="565.902344" xlink:href="#DejaVuSans-99"/>
      <use x="620.882812" xlink:href="#DejaVuSans-105"/>
      <use x="648.666016" xlink:href="#DejaVuSans-101"/>
      <use x="710.189453" xlink:href="#DejaVuSans-110"/>
      <use x="773.568359" xlink:href="#DejaVuSans-99"/>
      <use x="828.548828" xlink:href="#DejaVuSans-121"/>
     </g>
    </g>
   </g>
  </g>
  <g id="axes_2">
   <g id="patch_8">
    <path d="M 797.9825 463.84 
L 1384.632614 463.84 
L 1384.632614 41.64 
L 797.9825 41.64 
z
" style="fill:#ffffff;"/>
   </g>
   <g id="matplotlib.axis_3">
    <g id="xtick_7">
     <g id="line2d_23">
      <g>
       <use style="stroke:#000000;stroke-width:0.8;" x="824.648414" xlink:href="#m270e3b021b" y="463.84"/>
      </g>
     </g>
     <g id="text_19">
      <!-- 0 -->
      <g transform="translate(816.402614 490.53515)scale(0.2592 -0.2592)">
       <use xlink:href="#DejaVuSans-48"/>
      </g>
     </g>
    </g>
    <g id="xtick_8">
     <g id="line2d_24">
      <g>
       <use style="stroke:#000000;stroke-width:0.8;" x="931.312071" xlink:href="#m270e3b021b" y="463.84"/>
      </g>
     </g>
     <g id="text_20">
      <!-- 2 -->
      <g transform="translate(923.066271 490.53515)scale(0.2592 -0.2592)">
       <use xlink:href="#DejaVuSans-50"/>
      </g>
     </g>
    </g>
    <g id="xtick_9">
     <g id="line2d_25">
      <g>
       <use style="stroke:#000000;stroke-width:0.8;" x="1037.975728" xlink:href="#m270e3b021b" y="463.84"/>
      </g>
     </g>
     <g id="text_21">
      <!-- 4 -->
      <g transform="translate(1029.729928 490.53515)scale(0.2592 -0.2592)">
       <use xlink:href="#DejaVuSans-52"/>
      </g>
     </g>
    </g>
    <g id="xtick_10">
     <g id="line2d_26">
      <g>
       <use style="stroke:#000000;stroke-width:0.8;" x="1144.639385" xlink:href="#m270e3b021b" y="463.84"/>
      </g>
     </g>
     <g id="text_22">
      <!-- 6 -->
      <g transform="translate(1136.393585 490.53515)scale(0.2592 -0.2592)">
       <use xlink:href="#DejaVuSans-54"/>
      </g>
     </g>
    </g>
    <g id="xtick_11">
     <g id="line2d_27">
      <g>
       <use style="stroke:#000000;stroke-width:0.8;" x="1251.303042" xlink:href="#m270e3b021b" y="463.84"/>
      </g>
     </g>
     <g id="text_23">
      <!-- 8 -->
      <g transform="translate(1243.057242 490.53515)scale(0.2592 -0.2592)">
       <use xlink:href="#DejaVuSans-56"/>
      </g>
     </g>
    </g>
    <g id="xtick_12">
     <g id="line2d_28">
      <g>
       <use style="stroke:#000000;stroke-width:0.8;" x="1357.966699" xlink:href="#m270e3b021b" y="463.84"/>
      </g>
     </g>
     <g id="text_24">
      <!-- 10 -->
      <g transform="translate(1341.475099 490.53515)scale(0.2592 -0.2592)">
       <use xlink:href="#DejaVuSans-49"/>
       <use x="63.623047" xlink:href="#DejaVuSans-48"/>
      </g>
     </g>
    </g>
    <g id="text_25">
     <!-- PcaVarV Cutoff -->
     <g transform="translate(993.921257 519.62085)scale(0.2592 -0.2592)">
      <use xlink:href="#DejaVuSans-80"/>
      <use x="60.302734" xlink:href="#DejaVuSans-99"/>
      <use x="115.283203" xlink:href="#DejaVuSans-97"/>
      <use x="176.5625" xlink:href="#DejaVuSans-86"/>
      <use x="244.861328" xlink:href="#DejaVuSans-97"/>
      <use x="306.140625" xlink:href="#DejaVuSans-114"/>
      <use x="347.253906" xlink:href="#DejaVuSans-86"/>
      <use x="415.662109" xlink:href="#DejaVuSans-32"/>
      <use x="447.449219" xlink:href="#DejaVuSans-67"/>
      <use x="517.273438" xlink:href="#DejaVuSans-117"/>
      <use x="580.652344" xlink:href="#DejaVuSans-116"/>
      <use x="619.861328" xlink:href="#DejaVuSans-111"/>
      <use x="681.042969" xlink:href="#DejaVuSans-102"/>
      <use x="716.248047" xlink:href="#DejaVuSans-102"/>
     </g>
    </g>
   </g>
   <g id="matplotlib.axis_4">
    <g id="ytick_7">
     <g id="line2d_29">
      <g>
       <use style="stroke:#000000;stroke-width:0.8;" x="797.9825" xlink:href="#m77645c24f9" y="463.84"/>
      </g>
     </g>
     <g id="text_26">
      <!-- 0.0 -->
      <g transform="translate(749.7616 473.687575)scale(0.2592 -0.2592)">
       <use xlink:href="#DejaVuSans-48"/>
       <use x="63.623047" xlink:href="#DejaVuSans-46"/>
       <use x="95.410156" xlink:href="#DejaVuSans-48"/>
      </g>
     </g>
    </g>
    <g id="ytick_8">
     <g id="line2d_30">
      <g>
       <use style="stroke:#000000;stroke-width:0.8;" x="797.9825" xlink:href="#m77645c24f9" y="379.4"/>
      </g>
     </g>
     <g id="text_27">
      <!-- 0.2 -->
      <g transform="translate(749.7616 389.247575)scale(0.2592 -0.2592)">
       <use xlink:href="#DejaVuSans-48"/>
       <use x="63.623047" xlink:href="#DejaVuSans-46"/>
       <use x="95.410156" xlink:href="#DejaVuSans-50"/>
      </g>
     </g>
    </g>
    <g id="ytick_9">
     <g id="line2d_31">
      <g>
       <use style="stroke:#000000;stroke-width:0.8;" x="797.9825" xlink:href="#m77645c24f9" y="294.96"/>
      </g>
     </g>
     <g id="text_28">
      <!-- 0.4 -->
      <g transform="translate(749.7616 304.807575)scale(0.2592 -0.2592)">
       <use xlink:href="#DejaVuSans-48"/>
       <use x="63.623047" xlink:href="#DejaVuSans-46"/>
       <use x="95.410156" xlink:href="#DejaVuSans-52"/>
      </g>
     </g>
    </g>
    <g id="ytick_10">
     <g id="line2d_32">
      <g>
       <use style="stroke:#000000;stroke-width:0.8;" x="797.9825" xlink:href="#m77645c24f9" y="210.52"/>
      </g>
     </g>
     <g id="text_29">
      <!-- 0.6 -->
      <g transform="translate(749.7616 220.367575)scale(0.2592 -0.2592)">
       <use xlink:href="#DejaVuSans-48"/>
       <use x="63.623047" xlink:href="#DejaVuSans-46"/>
       <use x="95.410156" xlink:href="#DejaVuSans-54"/>
      </g>
     </g>
    </g>
    <g id="ytick_11">
     <g id="line2d_33">
      <g>
       <use style="stroke:#000000;stroke-width:0.8;" x="797.9825" xlink:href="#m77645c24f9" y="126.08"/>
      </g>
     </g>
     <g id="text_30">
      <!-- 0.8 -->
      <g transform="translate(749.7616 135.927575)scale(0.2592 -0.2592)">
       <use xlink:href="#DejaVuSans-48"/>
       <use x="63.623047" xlink:href="#DejaVuSans-46"/>
       <use x="95.410156" xlink:href="#DejaVuSans-56"/>
      </g>
     </g>
    </g>
    <g id="ytick_12">
     <g id="line2d_34">
      <g>
       <use style="stroke:#000000;stroke-width:0.8;" x="797.9825" xlink:href="#m77645c24f9" y="41.64"/>
      </g>
     </g>
     <g id="text_31">
      <!-- 1.0 -->
      <g transform="translate(749.7616 51.487575)scale(0.2592 -0.2592)">
       <use xlink:href="#DejaVuSans-49"/>
       <use x="63.623047" xlink:href="#DejaVuSans-46"/>
       <use x="95.410156" xlink:href="#DejaVuSans-48"/>
      </g>
     </g>
    </g>
    <g id="text_32">
     <!-- Fraction -->
     <g transform="translate(740.37105 305.400125)rotate(-90)scale(0.2592 -0.2592)">
      <use xlink:href="#DejaVuSans-70"/>
      <use x="57.410156" xlink:href="#DejaVuSans-114"/>
      <use x="98.523438" xlink:href="#DejaVuSans-97"/>
      <use x="159.802734" xlink:href="#DejaVuSans-99"/>
      <use x="214.783203" xlink:href="#DejaVuSans-116"/>
      <use x="253.992188" xlink:href="#DejaVuSans-105"/>
      <use x="281.775391" xlink:href="#DejaVuSans-111"/>
      <use x="342.957031" xlink:href="#DejaVuSans-110"/>
     </g>
    </g>
   </g>
   <g id="line2d_35">
    <path clip-path="url(#pe53a7b7daf)" d="M 824.648414 41.64 
L 825.716119 42.53506 
L 827.317675 45.712525 
L 829.986936 52.425478 
L 831.05464 55.647696 
L 832.122344 58.243371 
L 833.190048 61.689353 
L 834.257753 64.5983 
L 834.791605 66.388421 
L 836.393161 69.923909 
L 836.927013 71.848289 
L 840.663978 81.649201 
L 841.197831 82.902285 
L 841.731683 83.842099 
L 844.934795 92.703197 
L 845.468648 94.314306 
L 846.0025 95.522637 
L 846.536352 97.223252 
L 850.807169 107.5612 
L 851.341021 108.501013 
L 855.077986 116.869828 
L 855.611838 117.541124 
L 857.213395 120.987106 
L 857.747247 121.837414 
L 859.348803 125.417655 
L 860.416507 127.252529 
L 862.018064 131.325054 
L 863.085768 133.249434 
L 863.61962 134.413013 
L 864.153472 135.173814 
L 867.356585 142.647568 
L 867.890437 143.318864 
L 868.42429 144.30343 
L 868.958142 145.019478 
L 870.025846 147.212377 
L 871.09355 149.405275 
L 871.627402 150.300335 
L 872.695107 152.493233 
L 873.228959 153.34354 
L 873.762811 154.462366 
L 875.898219 157.997855 
L 876.432072 158.937668 
L 876.965924 159.608963 
L 878.56748 162.696922 
L 880.169037 165.024079 
L 881.770593 167.754013 
L 882.304445 168.380555 
L 883.372149 170.483947 
L 883.906001 171.020984 
L 884.973706 172.497833 
L 886.04141 174.511719 
L 888.176819 177.465419 
L 888.710671 178.091961 
L 889.778375 179.837329 
L 892.981488 184.312631 
L 893.51534 184.670655 
L 894.049192 185.565715 
L 894.583044 186.102752 
L 896.718453 188.966945 
L 897.252305 189.414475 
L 897.786157 190.175277 
L 898.320009 191.159843 
L 900.98927 194.829591 
L 903.124678 198.141314 
L 903.658531 198.81261 
L 904.192383 199.70767 
L 906.327791 202.348098 
L 906.861643 202.885135 
L 907.395496 203.601183 
L 907.929348 204.048713 
L 912.200165 208.971545 
L 913.801721 210.537901 
L 915.93713 213.223082 
L 919.140243 217.116595 
L 919.674095 217.608879 
L 921.275651 219.488505 
L 921.809503 220.025542 
L 922.343355 220.338813 
L 922.877208 220.965355 
L 923.41106 221.860416 
L 925.012616 223.337265 
L 925.546468 223.784795 
L 926.08032 224.545597 
L 927.148025 225.530163 
L 927.681877 226.201459 
L 928.215729 226.469977 
L 928.749581 226.96226 
L 930.351137 229.244664 
L 933.020398 231.840339 
L 933.55425 232.377375 
L 934.088102 232.601141 
L 934.621955 233.18293 
L 935.155807 234.301755 
L 936.223511 235.241569 
L 936.757363 235.957617 
L 938.358919 237.076443 
L 938.892772 237.389714 
L 939.426624 237.881997 
L 939.960476 238.150515 
L 942.095884 239.85113 
L 944.231293 241.909769 
L 945.832849 243.028594 
L 946.366702 243.162854 
L 946.900554 243.565631 
L 947.434406 243.789396 
L 948.50211 245.04248 
L 949.569814 245.937541 
L 950.637519 246.787848 
L 951.705223 247.682909 
L 952.772927 248.756981 
L 953.306779 248.935993 
L 954.374484 249.696795 
L 954.908336 250.054819 
L 955.442188 250.591855 
L 955.97604 250.949879 
L 956.509892 251.576421 
L 957.577596 252.381976 
L 958.111449 253.053271 
L 960.780709 255.201416 
L 961.314561 255.469934 
L 961.848414 255.917464 
L 962.382266 256.185983 
L 967.720787 260.079495 
L 968.788491 260.706038 
L 969.856196 261.422086 
L 970.9239 262.093381 
L 971.991604 262.630418 
L 973.059308 263.212207 
L 973.593161 263.793996 
L 975.728569 264.868069 
L 976.796273 265.807882 
L 979.999386 268.403557 
L 982.134795 269.746148 
L 983.202499 270.462196 
L 984.270203 270.909727 
L 985.337908 271.625775 
L 986.405612 272.207564 
L 987.473316 272.878859 
L 988.54102 273.505402 
L 990.676429 274.847992 
L 991.210281 275.429782 
L 991.744133 275.608794 
L 992.811837 276.324842 
L 993.879542 277.398915 
L 995.481098 278.293975 
L 996.01495 278.786258 
L 996.548802 279.502307 
L 997.616507 280.218355 
L 999.751915 281.695205 
L 1001.353472 283.082548 
L 1001.887324 283.440572 
L 1002.955028 283.798597 
L 1005.090437 284.872669 
L 1007.225845 286.349519 
L 1010.96281 288.945194 
L 1011.496662 289.0347 
L 1012.030514 289.392724 
L 1013.098219 290.377291 
L 1013.632071 290.645809 
L 1014.165923 290.735315 
L 1015.233627 291.40661 
L 1015.767479 291.630375 
L 1016.301332 292.033152 
L 1016.835184 292.077905 
L 1017.369036 292.614942 
L 1018.43674 293.196731 
L 1020.038296 293.912779 
L 1021.106001 294.584075 
L 1021.639853 295.121111 
L 1023.241409 296.105677 
L 1024.309114 296.418948 
L 1024.842966 296.776973 
L 1025.376818 296.866479 
L 1025.91067 297.224503 
L 1026.444522 297.403515 
L 1027.512226 298.030057 
L 1028.579931 298.388081 
L 1029.647635 298.835612 
L 1034.452304 300.939004 
L 1035.520008 301.520793 
L 1037.121565 302.505359 
L 1038.723121 302.997643 
L 1039.256973 303.221408 
L 1040.324678 303.489926 
L 1040.85853 303.668938 
L 1041.392382 304.026962 
L 1041.926234 304.250727 
L 1042.460086 304.608751 
L 1044.061643 305.369553 
L 1044.595495 305.727577 
L 1045.663199 306.264613 
L 1047.798608 307.428192 
L 1048.33246 307.562451 
L 1049.400164 308.054734 
L 1052.069425 309.0393 
L 1055.272538 310.292385 
L 1055.80639 310.426644 
L 1056.874094 310.874174 
L 1058.47565 311.411211 
L 1059.009503 311.724482 
L 1059.543355 311.858741 
L 1061.144911 312.709048 
L 1063.28032 313.380343 
L 1064.348024 314.051639 
L 1065.415728 314.499169 
L 1066.483432 314.946699 
L 1067.551137 315.215217 
L 1068.618841 315.662748 
L 1070.220397 316.244537 
L 1070.75425 316.28929 
L 1071.288102 316.692067 
L 1072.889658 317.18435 
L 1073.42351 317.18435 
L 1076.092771 317.900399 
L 1080.363588 319.645766 
L 1081.431292 319.914285 
L 1081.965144 320.317062 
L 1083.566701 320.943604 
L 1084.634405 321.301628 
L 1087.303666 322.599466 
L 1089.439074 323.226008 
L 1093.709891 324.747611 
L 1094.777596 325.105635 
L 1095.8453 325.3294 
L 1096.913004 325.77693 
L 1097.446856 326.045448 
L 1097.980709 326.090201 
L 1098.514561 326.403473 
L 1099.048413 326.492979 
L 1100.116117 327.119521 
L 1100.649969 327.611804 
L 1104.386934 328.820136 
L 1104.920786 328.909642 
L 1110.259308 331.10254 
L 1110.79316 331.505317 
L 1111.860864 331.594823 
L 1112.394716 331.863341 
L 1114.530125 332.400377 
L 1115.063977 332.713649 
L 1117.733238 333.47445 
L 1118.26709 333.698215 
L 1118.800942 333.787721 
L 1119.334794 334.011486 
L 1121.470203 334.459016 
L 1123.071759 335.175065 
L 1123.605611 335.219818 
L 1124.139463 335.443583 
L 1125.207168 335.667348 
L 1126.808724 336.249137 
L 1127.342576 336.562408 
L 1128.944132 337.054692 
L 1130.011837 337.457469 
L 1131.079541 337.815493 
L 1132.147245 338.352529 
L 1132.681097 338.397282 
L 1133.748802 338.710553 
L 1134.282654 338.755306 
L 1134.816506 338.979071 
L 1136.418062 339.202837 
L 1136.951915 339.605614 
L 1138.019619 339.739873 
L 1139.621175 340.187403 
L 1140.68888 340.545427 
L 1142.290436 340.992957 
L 1142.824288 341.03771 
L 1143.35814 341.350982 
L 1145.493549 341.977524 
L 1150.298218 343.901904 
L 1153.501331 344.662705 
L 1154.035183 344.975976 
L 1154.569035 345.065482 
L 1155.102887 345.378753 
L 1156.704444 345.736778 
L 1157.238296 345.960543 
L 1158.306 346.139555 
L 1159.907556 346.631838 
L 1160.975261 347.168874 
L 1163.110669 347.392639 
L 1166.847634 348.2877 
L 1167.915339 348.466712 
L 1168.449191 348.645724 
L 1168.983043 348.958995 
L 1169.516895 349.138007 
L 1170.584599 349.227513 
L 1171.652303 349.361772 
L 1173.25386 350.256833 
L 1174.855416 350.614857 
L 1175.923121 350.883375 
L 1180.72779 351.733682 
L 1181.795494 352.181213 
L 1190.337128 353.702815 
L 1193.540241 354.732135 
L 1195.67565 354.9559 
L 1197.277206 355.313924 
L 1198.34491 355.40343 
L 1201.014171 355.940466 
L 1202.081875 356.298491 
L 1202.615727 356.701268 
L 1204.217284 357.193551 
L 1204.751136 357.238304 
L 1205.81884 357.641081 
L 1222.902109 361.847865 
L 1223.969813 361.982124 
L 1224.503665 362.161136 
L 1226.105221 362.340148 
L 1226.639074 362.51916 
L 1227.172926 362.51916 
L 1237.849968 365.159589 
L 1239.985377 365.428107 
L 1240.519229 365.562366 
L 1241.053081 365.562366 
L 1241.586933 365.741378 
L 1242.120786 365.741378 
L 1245.323898 366.457426 
L 1246.925455 366.636438 
L 1247.459307 366.904957 
L 1249.060863 367.128722 
L 1250.128568 367.218228 
L 1251.730124 367.665758 
L 1252.797828 367.800017 
L 1253.33168 367.934276 
L 1254.399385 367.934276 
L 1257.602498 368.73983 
L 1258.670202 368.73983 
L 1259.737906 369.097855 
L 1260.271758 369.097855 
L 1263.474871 369.813903 
L 1265.076427 370.037668 
L 1268.27954 371.022234 
L 1269.347245 371.066987 
L 1273.08421 371.604024 
L 1275.75347 371.917295 
L 1277.888879 372.320072 
L 1278.422731 372.499084 
L 1282.159696 372.812355 
L 1282.693548 373.03612 
L 1283.2274 373.03612 
L 1284.828957 373.483651 
L 1289.099774 374.51297 
L 1289.633626 374.557723 
L 1290.70133 374.915747 
L 1292.302886 375.094759 
L 1295.505999 375.98982 
L 1296.039851 376.168832 
L 1301.378373 376.571609 
L 1301.912225 376.795374 
L 1302.979929 376.88488 
L 1303.513781 377.153398 
L 1307.250746 377.690435 
L 1307.784598 377.735188 
L 1309.386155 378.182718 
L 1310.453859 378.36173 
L 1314.190824 378.898766 
L 1314.724676 378.898766 
L 1315.792381 379.212037 
L 1316.860085 379.25679 
L 1318.461641 379.570061 
L 1326.469423 380.867899 
L 1327.537128 380.912652 
L 1329.138684 381.091664 
L 1332.341797 381.449688 
L 1335.011057 382.031478 
L 1340.349579 383.016044 
L 1340.883431 383.195056 
L 1341.951135 383.374068 
L 1343.01884 383.463574 
L 1344.086544 383.597833 
L 1344.620396 383.955858 
L 1345.6881 384.090117 
L 1346.755804 384.13487 
L 1352.094326 384.940424 
L 1353.16203 385.02993 
L 1355.297439 385.298448 
L 1356.365143 385.47746 
L 1357.966699 385.701225 
L 1357.966699 385.701225 
" style="fill:none;stroke:#0000ff;stroke-linecap:square;stroke-width:1.5;"/>
   </g>
   <g id="line2d_36">
    <path clip-path="url(#pe53a7b7daf)" d="M 824.648414 354.86504 
L 825.182266 347.839627 
L 825.716119 343.645528 
L 826.783823 338.010267 
L 828.385379 331.929124 
L 829.453083 328.826701 
L 831.05464 325.129309 
L 833.723901 320.328859 
L 834.791605 318.766944 
L 835.859309 317.16986 
L 836.927013 315.734357 
L 839.596274 311.992734 
L 841.197831 310.10256 
L 842.265535 308.703829 
L 844.400943 306.38706 
L 845.468648 305.387866 
L 846.0025 304.749024 
L 846.536352 304.307601 
L 847.604056 303.041442 
L 848.67176 301.994996 
L 849.739465 300.745011 
L 850.273317 300.221366 
L 851.874873 298.204472 
L 853.47643 296.603965 
L 854.544134 295.501143 
L 856.679542 293.511242 
L 857.747247 292.520911 
L 859.348803 290.945145 
L 860.95036 289.143789 
L 862.551916 288.184126 
L 863.085768 287.547456 
L 863.61962 287.219507 
L 864.687325 286.20959 
L 865.221177 285.895405 
L 866.288881 285.079091 
L 867.356585 284.351231 
L 867.890437 283.659068 
L 868.42429 283.189913 
L 868.958142 282.551783 
L 870.559698 281.626824 
L 872.161254 280.122603 
L 873.228959 279.507762 
L 874.830515 278.392453 
L 875.898219 277.474233 
L 876.965924 276.691095 
L 878.033628 276.214097 
L 879.101332 275.120874 
L 880.169037 274.529047 
L 881.770593 273.354785 
L 882.838297 272.586511 
L 883.372149 272.289543 
L 884.439854 271.228034 
L 885.507558 270.710075 
L 886.04141 270.558383 
L 888.710671 268.62333 
L 889.244523 268.375899 
L 891.379931 266.807074 
L 892.981488 265.93672 
L 893.51534 265.40091 
L 895.116896 264.496408 
L 895.650749 264.366266 
L 899.387713 261.760227 
L 900.455418 261.354613 
L 900.98927 260.974756 
L 902.590826 260.349518 
L 903.124678 259.852256 
L 903.658531 259.703129 
L 904.726235 259.070565 
L 905.260087 259.000628 
L 905.793939 258.488033 
L 906.327791 258.263783 
L 907.929348 257.32913 
L 908.997052 256.877109 
L 910.064756 256.171639 
L 911.13246 255.525056 
L 911.666313 255.423707 
L 913.267869 254.620541 
L 914.869425 254.30398 
L 915.93713 253.883513 
L 917.004834 253.777115 
L 918.072538 253.233934 
L 919.140243 253.12222 
L 920.741799 252.508404 
L 921.275651 252.449629 
L 922.877208 251.56657 
L 923.41106 251.42394 
L 924.478764 250.841761 
L 925.012616 250.396651 
L 925.546468 250.110215 
L 926.08032 249.96 
L 926.614172 249.669528 
L 927.681877 249.387924 
L 928.215729 249.157918 
L 928.749581 248.757748 
L 930.88499 248.331784 
L 932.486546 247.730143 
L 934.621955 247.256064 
L 935.155807 247.29362 
L 935.689659 247.065496 
L 936.757363 246.968982 
L 937.291215 246.9804 
L 937.825067 246.838096 
L 939.426624 245.876012 
L 939.960476 245.800614 
L 942.629737 244.617392 
L 943.163589 244.523335 
L 943.697441 244.165168 
L 944.231293 244.076192 
L 944.765145 243.691269 
L 948.50211 242.199734 
L 950.637519 241.870352 
L 951.705223 241.314247 
L 952.239075 241.30609 
L 954.374484 240.190382 
L 955.442188 239.810713 
L 955.97604 239.537409 
L 960.780709 238.608692 
L 963.44997 237.926823 
L 963.983822 237.689443 
L 964.517674 237.326037 
L 965.585378 237.087394 
L 967.720787 236.513061 
L 968.254639 236.239597 
L 969.856196 235.826794 
L 971.457752 235.059422 
L 971.991604 234.919209 
L 973.059308 234.446884 
L 973.593161 234.472718 
L 974.127013 234.278392 
L 974.660865 233.938302 
L 975.194717 233.746427 
L 975.728569 233.718485 
L 976.796273 233.478101 
L 978.39783 233.425202 
L 979.465534 233.328808 
L 980.533238 233.1354 
L 981.06709 232.689616 
L 985.337908 231.686755 
L 985.87176 231.326415 
L 986.939464 230.967843 
L 988.54102 230.73386 
L 989.074873 230.481343 
L 989.608725 230.55661 
L 990.676429 230.377829 
L 991.210281 230.393454 
L 992.811837 230.059374 
L 993.34569 230.229005 
L 994.413394 230.245508 
L 994.947246 230.053787 
L 996.01495 230.038339 
L 996.548802 230.317535 
L 997.616507 230.094675 
L 998.684211 229.958601 
L 999.218063 229.756297 
L 1000.285767 229.918378 
L 1000.81962 229.734031 
L 1001.887324 229.742586 
L 1002.421176 229.497765 
L 1003.48888 229.264979 
L 1004.022732 229.024189 
L 1005.624289 228.793537 
L 1006.158141 228.943273 
L 1008.293549 228.549596 
L 1008.827402 228.554569 
L 1009.361254 228.28676 
L 1009.895106 228.371932 
L 1010.428958 228.134728 
L 1010.96281 228.131771 
L 1012.030514 227.790717 
L 1013.632071 227.929807 
L 1014.699775 227.481479 
L 1016.835184 227.215643 
L 1017.369036 227.368444 
L 1017.902888 227.246926 
L 1018.43674 227.306265 
L 1018.970592 227.059794 
L 1020.572149 226.845067 
L 1021.106001 226.931929 
L 1021.639853 226.874986 
L 1022.173705 226.954631 
L 1023.241409 226.597781 
L 1025.376818 225.997904 
L 1026.444522 225.792426 
L 1026.978374 225.618288 
L 1027.512226 225.568713 
L 1028.046079 225.325671 
L 1029.647635 225.089785 
L 1030.181487 224.863766 
L 1030.715339 224.849055 
L 1032.850748 224.145694 
L 1033.918452 224.132991 
L 1034.986156 223.922127 
L 1035.520008 223.971673 
L 1036.053861 223.861706 
L 1036.587713 223.504629 
L 1037.121565 223.54461 
L 1037.655417 223.174642 
L 1038.723121 223.21412 
L 1039.256973 222.861024 
L 1039.790826 222.765279 
L 1040.85853 222.264652 
L 1041.392382 222.380006 
L 1043.527791 222.378633 
L 1044.061643 222.163602 
L 1045.129347 222.113028 
L 1045.663199 222.200501 
L 1046.197051 221.973225 
L 1047.798608 221.821138 
L 1048.33246 221.671406 
L 1049.934016 221.51755 
L 1052.069425 221.008307 
L 1052.603277 221.036337 
L 1054.204833 220.815147 
L 1054.738685 220.813072 
L 1055.80639 220.514243 
L 1056.874094 220.528653 
L 1057.941798 220.493565 
L 1059.009503 220.609864 
L 1060.077207 220.376362 
L 1061.144911 220.534642 
L 1061.678763 220.324166 
L 1063.28032 219.992482 
L 1063.814172 220.184819 
L 1064.881876 220.240656 
L 1065.94958 220.020964 
L 1068.618841 219.451154 
L 1069.686545 219.517462 
L 1071.288102 219.267484 
L 1071.821954 219.004259 
L 1072.355806 218.956534 
L 1073.42351 218.268576 
L 1075.025067 217.839037 
L 1076.626623 217.789669 
L 1078.228179 217.391963 
L 1078.762032 217.124501 
L 1083.032849 216.56468 
L 1084.634405 216.514821 
L 1085.702109 216.367645 
L 1086.235962 216.658535 
L 1086.769814 216.669911 
L 1088.37137 216.272986 
L 1088.905222 216.278345 
L 1089.439074 216.395046 
L 1089.972926 216.248223 
L 1090.506779 216.31893 
L 1091.040631 216.059644 
L 1091.574483 216.163071 
L 1092.108335 215.809413 
L 1093.709891 215.834406 
L 1095.311448 215.929538 
L 1095.8453 215.746398 
L 1096.379152 215.8316 
L 1097.446856 215.567693 
L 1097.980709 215.411095 
L 1098.514561 215.406162 
L 1099.048413 215.282202 
L 1100.649969 215.544637 
L 1102.251526 215.597866 
L 1102.785378 215.636582 
L 1103.31923 215.516061 
L 1103.853082 215.196474 
L 1104.920786 215.025887 
L 1105.454638 215.146849 
L 1105.988491 214.990353 
L 1107.056195 214.954595 
L 1108.657751 215.094251 
L 1109.725456 214.97921 
L 1110.259308 214.636975 
L 1110.79316 214.748739 
L 1111.860864 214.519257 
L 1112.928568 214.281172 
L 1116.131681 214.125188 
L 1116.665533 213.992715 
L 1117.733238 214.069773 
L 1118.26709 214.143518 
L 1118.800942 214.010393 
L 1119.334794 214.03331 
L 1119.868646 213.797549 
L 1120.93635 213.8009 
L 1123.605611 214.065854 
L 1124.139463 214.089113 
L 1126.274872 213.429911 
L 1127.342576 213.582226 
L 1127.876428 213.533197 
L 1128.41028 213.064864 
L 1129.477985 212.950822 
L 1130.011837 213.042188 
L 1131.079541 212.90813 
L 1132.147245 213.024576 
L 1132.681097 212.741634 
L 1133.748802 212.88949 
L 1135.350358 212.341538 
L 1136.418062 212.326203 
L 1136.951915 212.493828 
L 1137.485767 212.206624 
L 1138.553471 212.101886 
L 1140.155027 211.452736 
L 1142.290436 211.457814 
L 1142.824288 211.219677 
L 1145.493549 211.225058 
L 1146.561253 211.376125 
L 1148.696662 211.401146 
L 1149.764366 211.573853 
L 1150.298218 211.386631 
L 1151.899774 211.314462 
L 1155.636739 211.474124 
L 1156.170591 211.342219 
L 1156.704444 211.361913 
L 1157.772148 211.134249 
L 1158.306 211.192446 
L 1159.907556 211.041235 
L 1160.975261 211.101676 
L 1161.509113 210.850071 
L 1162.042965 210.772582 
L 1162.576817 210.558921 
L 1163.644521 210.422494 
L 1164.178374 210.461415 
L 1164.712226 210.246162 
L 1166.313782 210.382731 
L 1166.847634 210.323628 
L 1167.915339 210.008004 
L 1169.516895 210.005001 
L 1171.652303 209.125943 
L 1172.186156 209.342788 
L 1172.720008 209.300289 
L 1173.25386 209.558178 
L 1173.787712 209.637911 
L 1174.855416 209.272316 
L 1175.389268 209.371568 
L 1178.058529 208.96117 
L 1180.72779 208.809617 
L 1181.795494 208.967268 
L 1183.39705 208.55151 
L 1183.930903 208.446467 
L 1184.464755 208.506099 
L 1185.532459 208.254537 
L 1186.600163 208.208272 
L 1187.134015 208.102115 
L 1188.20172 208.284276 
L 1190.87098 207.958056 
L 1193.006389 207.919911 
L 1195.67565 207.804955 
L 1196.743354 207.583508 
L 1199.946467 207.379231 
L 1200.480319 207.246143 
L 1201.014171 207.242017 
L 1201.548023 207.367346 
L 1202.081875 207.317472 
L 1202.615727 207.565456 
L 1204.751136 207.288878 
L 1207.420397 207.659097 
L 1208.488101 207.411112 
L 1209.555805 207.554898 
L 1210.089657 207.422485 
L 1211.157362 207.547222 
L 1212.225066 207.539507 
L 1213.826622 207.126534 
L 1215.428179 207.18044 
L 1215.962031 206.839055 
L 1217.029735 207.071199 
L 1218.097439 207.178047 
L 1218.631292 207.217378 
L 1219.165144 206.965338 
L 1220.7667 206.838937 
L 1221.300552 207.014774 
L 1222.368257 206.642883 
L 1222.902109 206.706435 
L 1223.435961 206.475376 
L 1225.571369 206.528208 
L 1226.105221 206.36498 
L 1227.172926 206.403749 
L 1227.706778 205.980951 
L 1228.24063 206.044543 
L 1228.774482 205.968657 
L 1229.308334 206.191505 
L 1229.842186 206.166242 
L 1230.376039 206.275054 
L 1230.909891 206.084257 
L 1231.443743 206.123043 
L 1235.180708 205.654282 
L 1236.248412 205.926054 
L 1239.985377 205.299816 
L 1240.519229 205.364617 
L 1242.654638 205.106573 
L 1243.18849 205.144823 
L 1243.722342 204.681821 
L 1245.323898 204.464732 
L 1245.857751 204.144016 
L 1247.459307 204.264297 
L 1249.594716 203.459235 
L 1253.33168 203.622974 
L 1254.399385 203.398261 
L 1254.933237 203.387997 
L 1256.000941 203.16996 
L 1257.602498 203.562947 
L 1258.13635 203.562947 
L 1258.670202 203.184858 
L 1259.204054 203.344075 
L 1260.271758 203.105636 
L 1261.339463 203.083944 
L 1261.873315 203.196754 
L 1263.474871 202.945235 
L 1264.542575 202.762261 
L 1265.61028 202.834563 
L 1266.677984 203.139319 
L 1267.211836 203.146861 
L 1267.745688 203.010315 
L 1268.27954 202.99913 
L 1269.347245 202.502108 
L 1269.881097 202.598231 
L 1270.948801 202.116499 
L 1271.482653 202.260942 
L 1272.016505 202.248534 
L 1273.618062 201.7936 
L 1274.151914 201.890166 
L 1274.685766 201.859487 
L 1275.219618 201.670504 
L 1275.75347 201.608733 
L 1276.821175 200.878506 
L 1277.355027 200.975278 
L 1279.490435 200.578287 
L 1281.625844 200.531082 
L 1282.159696 200.256575 
L 1282.693548 200.33837 
L 1283.2274 200.176165 
L 1283.761252 200.29037 
L 1284.295104 200.14423 
L 1286.964365 200.309506 
L 1288.032069 200.672616 
L 1288.565922 200.607593 
L 1289.099774 200.657239 
L 1289.633626 200.542407 
L 1290.167478 200.791158 
L 1293.904443 200.747222 
L 1294.438295 200.96579 
L 1294.972147 201.033861 
L 1295.505999 200.98602 
L 1296.039851 201.188428 
L 1296.573704 200.988617 
L 1297.641408 200.955686 
L 1298.17526 201.057128 
L 1298.709112 200.805902 
L 1299.242964 200.958214 
L 1299.776816 200.925158 
L 1300.310669 200.673163 
L 1301.378373 200.639872 
L 1301.912225 200.894435 
L 1302.446077 200.725934 
L 1304.581486 200.883714 
L 1306.183042 200.97105 
L 1307.250746 200.733817 
L 1308.318451 200.564911 
L 1308.852303 200.582653 
L 1309.386155 200.446649 
L 1309.920007 200.516175 
L 1310.453859 200.223786 
L 1311.521563 200.345174 
L 1314.724676 199.721477 
L 1316.326233 199.999881 
L 1318.461641 199.894914 
L 1318.995493 200.000066 
L 1319.529345 199.877246 
L 1320.063198 200.035273 
L 1320.59705 199.947426 
L 1324.334015 200.584217 
L 1325.401719 200.337279 
L 1326.469423 200.550797 
L 1328.07098 200.356453 
L 1328.604832 200.409983 
L 1329.672536 200.25027 
L 1330.206388 200.21478 
L 1330.74024 200.32207 
L 1331.274093 200.251043 
L 1333.409501 200.467619 
L 1333.943353 200.198597 
L 1335.011057 200.34338 
L 1335.54491 200.271726 
L 1336.078762 200.380267 
L 1336.612614 200.12783 
L 1337.146466 200.290995 
L 1337.680318 200.164425 
L 1338.21417 200.237317 
L 1339.281875 200.019538 
L 1340.883431 200.585882 
L 1343.552692 200.332003 
L 1344.086544 199.983395 
L 1344.620396 200.334056 
L 1345.154248 200.260658 
L 1345.6881 200.316217 
L 1346.221952 200.223882 
L 1347.289657 200.298316 
L 1348.357361 200.094942 
L 1350.492769 200.375265 
L 1352.628178 200.170641 
L 1353.16203 200.189574 
L 1353.695882 200.058672 
L 1354.229734 200.227562 
L 1355.297439 200.246617 
L 1356.365143 200.378774 
L 1356.898995 200.115786 
L 1357.432847 200.191502 
L 1357.966699 200.002777 
L 1357.966699 200.002777 
" style="fill:none;stroke:#ff0000;stroke-linecap:square;stroke-width:1.5;"/>
   </g>
   <g id="line2d_37">
    <path clip-path="url(#pe53a7b7daf)" d="M 824.648414 354.86504 
L 825.182266 347.962587 
L 825.716119 343.900339 
L 826.783823 338.917244 
L 827.851527 335.442631 
L 828.919231 332.685 
L 829.986936 331.031035 
L 832.122344 328.556537 
L 833.190048 328.052013 
L 833.723901 327.615465 
L 834.791605 327.270803 
L 835.325457 326.829973 
L 836.393161 326.234355 
L 836.927013 326.331273 
L 837.460866 326.109618 
L 837.994718 326.043154 
L 839.062422 325.424139 
L 841.197831 325.127567 
L 841.731683 324.752054 
L 843.867091 324.790888 
L 844.934795 325.004802 
L 845.468648 325.156592 
L 846.0025 325.05277 
L 846.536352 325.310277 
L 847.604056 325.199395 
L 848.67176 325.309323 
L 849.205613 325.208806 
L 850.807169 325.184567 
L 851.341021 324.937304 
L 852.408725 324.939125 
L 852.942578 325.052017 
L 854.010282 324.964464 
L 854.544134 325.068398 
L 855.077986 325.055511 
L 855.611838 324.860657 
L 856.679542 325.016826 
L 857.213395 325.160168 
L 857.747247 325.063185 
L 858.814951 325.199196 
L 859.348803 325.252879 
L 860.416507 324.999745 
L 860.95036 325.123727 
L 861.484212 325.493631 
L 862.551916 325.888509 
L 863.085768 325.799612 
L 863.61962 326.029585 
L 864.153472 325.897122 
L 864.687325 326.088879 
L 865.221177 326.467678 
L 866.288881 326.784917 
L 866.822733 327.144466 
L 867.356585 327.292311 
L 867.890437 327.052229 
L 868.42429 327.117335 
L 868.958142 326.941839 
L 869.491994 327.148782 
L 870.025846 327.487183 
L 870.559698 327.691953 
L 872.161254 327.892242 
L 872.695107 328.174244 
L 873.228959 328.277453 
L 873.762811 328.511755 
L 874.830515 328.695641 
L 875.898219 328.836433 
L 876.965924 328.983285 
L 878.033628 329.673757 
L 878.56748 329.561836 
L 879.101332 329.572163 
L 880.702889 329.966714 
L 881.236741 330.00809 
L 881.770593 330.254015 
L 882.304445 330.244818 
L 883.372149 330.745528 
L 884.439854 330.579633 
L 884.973706 330.73329 
L 886.04141 331.38657 
L 887.109114 331.589489 
L 887.642966 331.744067 
L 888.710671 331.715934 
L 889.244523 332.004292 
L 891.379931 332.34548 
L 892.981488 332.813512 
L 893.51534 332.627042 
L 894.049192 332.825424 
L 894.583044 332.884419 
L 895.116896 333.064349 
L 895.650749 333.422998 
L 896.718453 333.471637 
L 897.252305 333.341565 
L 898.853861 333.806492 
L 900.455418 334.437371 
L 900.98927 334.581681 
L 902.590826 335.499066 
L 903.124678 335.466538 
L 905.260087 336.320217 
L 905.793939 336.305849 
L 906.327791 336.515235 
L 906.861643 336.560383 
L 907.395496 336.747641 
L 907.929348 336.768175 
L 908.997052 337.082359 
L 912.734017 337.936642 
L 913.267869 338.006715 
L 917.538686 339.906323 
L 918.072538 340.097216 
L 919.140243 340.701658 
L 919.674095 340.825051 
L 920.207947 341.104824 
L 920.741799 341.194199 
L 921.275651 341.496198 
L 921.809503 341.584945 
L 922.343355 341.504824 
L 922.877208 341.727651 
L 923.41106 342.095921 
L 924.478764 342.236384 
L 925.546468 342.31715 
L 926.08032 342.617151 
L 927.148025 342.879188 
L 927.681877 343.133987 
L 928.749581 343.166864 
L 930.351137 344.16807 
L 933.55425 345.265842 
L 934.088102 345.248319 
L 934.621955 345.515471 
L 935.155807 346.109834 
L 936.223511 346.426145 
L 936.757363 346.783903 
L 937.825067 347.127295 
L 938.892772 347.060704 
L 940.494328 347.35548 
L 942.095884 347.595258 
L 943.163589 348.114077 
L 943.697441 348.111368 
L 944.231293 348.320737 
L 945.298997 348.374139 
L 945.832849 348.514132 
L 946.366702 348.397712 
L 946.900554 348.525126 
L 947.434406 348.452475 
L 947.968258 348.787323 
L 950.637519 349.725861 
L 951.705223 349.911721 
L 952.239075 350.214195 
L 952.772927 350.32265 
L 953.306779 350.22456 
L 955.97604 350.737665 
L 956.509892 351.024429 
L 957.577596 351.362328 
L 958.645301 351.817991 
L 960.246857 352.445137 
L 962.382266 352.912687 
L 963.983822 353.257795 
L 964.517674 353.224161 
L 966.119231 353.807262 
L 967.186935 353.980022 
L 968.254639 354.189392 
L 970.9239 354.633257 
L 972.525456 354.757014 
L 973.059308 354.833286 
L 973.593161 355.161629 
L 976.262421 355.536209 
L 977.330126 356.011081 
L 977.863978 356.15307 
L 978.931682 356.743403 
L 980.533238 357.217989 
L 981.06709 357.207981 
L 983.736351 357.822562 
L 984.804055 358.033499 
L 985.337908 358.148015 
L 986.405612 358.205333 
L 988.54102 358.751976 
L 989.074873 358.811289 
L 990.142577 359.170548 
L 990.676429 359.333879 
L 991.210281 359.662561 
L 992.277985 359.810019 
L 992.811837 360.009088 
L 993.879542 360.690789 
L 996.01495 361.362804 
L 996.548802 361.88123 
L 997.616507 362.180358 
L 998.684211 362.542629 
L 999.218063 362.628698 
L 1001.887324 363.813852 
L 1002.421176 363.783765 
L 1005.624289 364.429847 
L 1006.158141 364.791963 
L 1006.691993 364.940969 
L 1007.225845 364.959926 
L 1010.96281 366.198728 
L 1011.496662 366.187039 
L 1012.030514 366.307659 
L 1013.098219 366.91893 
L 1013.632071 367.065308 
L 1014.165923 367.011522 
L 1015.767479 367.354468 
L 1016.301332 367.609115 
L 1016.835184 367.574971 
L 1017.369036 367.937925 
L 1018.970592 368.264526 
L 1020.038296 368.492925 
L 1021.106001 368.865829 
L 1022.173705 369.377125 
L 1023.775261 369.61845 
L 1024.309114 369.599531 
L 1024.842966 369.78989 
L 1025.376818 369.777157 
L 1025.91067 369.95329 
L 1026.978374 370.132053 
L 1027.512226 370.264092 
L 1028.046079 370.244489 
L 1029.647635 370.531537 
L 1030.715339 370.716117 
L 1031.783044 370.878527 
L 1032.850748 370.873977 
L 1037.121565 372.01629 
L 1037.655417 371.951446 
L 1039.256973 372.163771 
L 1040.85853 372.192961 
L 1041.392382 372.44148 
L 1042.993938 372.894477 
L 1046.197051 373.748856 
L 1047.798608 374.179631 
L 1048.33246 374.201169 
L 1049.934016 374.529511 
L 1051.00172 374.557456 
L 1052.069425 374.805145 
L 1054.738685 375.403341 
L 1055.80639 375.42356 
L 1056.874094 375.686705 
L 1058.47565 375.993561 
L 1059.009503 376.205992 
L 1059.543355 376.226971 
L 1061.678763 376.774184 
L 1063.28032 376.93992 
L 1064.348024 377.416686 
L 1067.017285 377.822507 
L 1068.084989 377.907256 
L 1069.686545 378.324522 
L 1072.889658 378.659113 
L 1073.42351 378.53816 
L 1075.558919 378.708438 
L 1077.160475 379.013113 
L 1080.363588 379.475769 
L 1081.431292 379.56012 
L 1081.965144 379.816987 
L 1085.702109 380.579744 
L 1086.235962 380.913422 
L 1086.769814 381.074438 
L 1088.905222 381.258218 
L 1089.972926 381.484372 
L 1090.506779 381.639076 
L 1091.040631 381.605498 
L 1091.574483 381.797345 
L 1092.108335 381.732779 
L 1095.311448 382.429505 
L 1095.8453 382.448258 
L 1097.446856 382.810698 
L 1097.980709 382.785922 
L 1098.514561 382.96865 
L 1099.048413 382.980992 
L 1100.116117 383.423931 
L 1100.649969 383.724345 
L 1103.853082 384.244553 
L 1104.920786 384.321816 
L 1105.988491 384.547861 
L 1107.590047 384.92885 
L 1108.123899 385.164313 
L 1111.327012 385.770718 
L 1111.860864 385.745576 
L 1113.462421 386.01125 
L 1114.530125 386.103759 
L 1115.063977 386.349034 
L 1116.665533 386.481094 
L 1118.26709 386.871867 
L 1118.800942 386.883795 
L 1119.334794 387.023251 
L 1120.402498 386.988062 
L 1122.004055 387.363239 
L 1123.071759 387.710819 
L 1126.274872 388.005611 
L 1127.342576 388.396592 
L 1127.876428 388.461409 
L 1128.41028 388.400119 
L 1131.613393 389.136623 
L 1132.147245 389.291935 
L 1132.681097 389.234454 
L 1133.748802 389.464589 
L 1135.350358 389.488801 
L 1136.418062 389.590909 
L 1136.951915 389.880177 
L 1138.019619 389.86544 
L 1139.087323 389.946952 
L 1140.155027 390.001877 
L 1141.756584 390.324095 
L 1142.290436 390.404649 
L 1142.824288 390.362136 
L 1143.35814 390.544757 
L 1144.959697 390.791901 
L 1149.230514 391.97269 
L 1149.764366 392.14978 
L 1150.83207 392.187884 
L 1152.433627 392.408032 
L 1153.501331 392.585142 
L 1154.035183 392.799755 
L 1154.569035 392.8428 
L 1155.102887 393.0574 
L 1156.704444 393.213577 
L 1158.839852 393.471722 
L 1159.907556 393.659804 
L 1160.975261 393.998066 
L 1162.576817 393.955471 
L 1163.644521 394.025277 
L 1164.178374 394.143432 
L 1165.246078 394.234681 
L 1168.449191 394.57813 
L 1169.516895 394.878891 
L 1171.118451 394.748505 
L 1171.652303 394.775069 
L 1172.186156 395.022702 
L 1172.720008 395.146116 
L 1173.25386 395.431343 
L 1175.923121 395.731419 
L 1178.592381 395.8539 
L 1179.660086 396.074144 
L 1180.72779 396.122053 
L 1181.795494 396.434078 
L 1185.532459 396.597778 
L 1188.20172 396.957757 
L 1190.337128 397.079505 
L 1193.540241 397.702512 
L 1195.67565 397.809338 
L 1201.548023 398.37613 
L 1202.081875 398.499356 
L 1202.615727 398.807007 
L 1213.29277 400.427558 
L 1214.360474 400.555579 
L 1216.495883 400.865967 
L 1217.563587 401.098034 
L 1227.172926 402.059666 
L 1227.706778 402.0402 
L 1231.977595 402.739099 
L 1234.646856 403.058189 
L 1237.849968 403.482079 
L 1239.985377 403.576075 
L 1240.519229 403.673375 
L 1242.120786 403.72477 
L 1243.18849 403.92385 
L 1243.722342 403.844085 
L 1245.323898 404.013777 
L 1246.391603 404.026644 
L 1246.925455 404.064763 
L 1247.459307 404.242695 
L 1250.66242 404.373863 
L 1251.730124 404.551863 
L 1252.797828 404.632357 
L 1253.33168 404.729857 
L 1254.399385 404.678812 
L 1258.13635 405.212828 
L 1258.670202 405.127664 
L 1259.204054 405.30159 
L 1265.61028 405.961754 
L 1266.144132 406.17399 
L 1268.27954 406.495929 
L 1269.347245 406.414364 
L 1270.414949 406.481621 
L 1270.948801 406.468344 
L 1272.016505 406.663659 
L 1273.618062 406.619777 
L 1274.685766 406.717474 
L 1277.355027 406.747588 
L 1278.956583 406.919409 
L 1283.2274 407.132991 
L 1284.295104 407.293833 
L 1286.430513 407.70629 
L 1286.964365 407.748286 
L 1288.565922 408.11866 
L 1289.633626 408.160681 
L 1290.70133 408.433136 
L 1292.836739 408.615026 
L 1293.904443 408.733859 
L 1294.972147 409.044614 
L 1296.573704 409.285939 
L 1301.378373 409.436751 
L 1301.912225 409.62873 
L 1302.979929 409.653407 
L 1303.513781 409.831654 
L 1307.250746 410.153398 
L 1308.318451 410.258468 
L 1312.589268 410.68875 
L 1314.724676 410.702735 
L 1315.792381 410.954515 
L 1317.393937 411.03842 
L 1319.529345 411.237713 
L 1320.063198 411.353094 
L 1321.130902 411.412529 
L 1323.800163 411.898285 
L 1329.138684 412.185148 
L 1332.341797 412.405424 
L 1335.011057 412.782991 
L 1339.815727 413.227096 
L 1340.883431 413.555506 
L 1344.086544 413.692142 
L 1344.620396 413.98224 
L 1357.966699 415.010258 
L 1357.966699 415.010258 
" style="fill:none;stroke:#008000;stroke-linecap:square;stroke-width:1.5;"/>
   </g>
   <g id="line2d_38">
    <path clip-path="url(#pe53a7b7daf)" d="M 842.265535 463.84 
L 842.265535 41.64 
" style="fill:none;stroke:#1f77b4;stroke-linecap:square;stroke-width:1.5;"/>
   </g>
   <g id="patch_9">
    <path d="M 797.9825 463.84 
L 797.9825 41.64 
" style="fill:none;stroke:#000000;stroke-linecap:square;stroke-linejoin:miter;stroke-width:0.8;"/>
   </g>
   <g id="patch_10">
    <path d="M 1384.632614 463.84 
L 1384.632614 41.64 
" style="fill:none;stroke:#000000;stroke-linecap:square;stroke-linejoin:miter;stroke-width:0.8;"/>
   </g>
   <g id="patch_11">
    <path d="M 797.9825 463.84 
L 1384.632614 463.84 
" style="fill:none;stroke:#000000;stroke-linecap:square;stroke-linejoin:miter;stroke-width:0.8;"/>
   </g>
   <g id="patch_12">
    <path d="M 797.9825 41.64 
L 1384.632614 41.64 
" style="fill:none;stroke:#000000;stroke-linecap:square;stroke-linejoin:miter;stroke-width:0.8;"/>
   </g>
   <g id="text_33">
    <!-- Purity/Efficiency vs PcaVarV Cutoff — shower -->
    <defs>
     <path d="M 54.890625 33.015625 
L 54.890625 0 
L 45.90625 0 
L 45.90625 32.71875 
Q 45.90625 40.484375 42.875 44.328125 
Q 39.84375 48.1875 33.796875 48.1875 
Q 26.515625 48.1875 22.3125 43.546875 
Q 18.109375 38.921875 18.109375 30.90625 
L 18.109375 0 
L 9.078125 0 
L 9.078125 75.984375 
L 18.109375 75.984375 
L 18.109375 46.1875 
Q 21.34375 51.125 25.703125 53.5625 
Q 30.078125 56 35.796875 56 
Q 45.21875 56 50.046875 50.171875 
Q 54.890625 44.34375 54.890625 33.015625 
z
" id="DejaVuSans-104"/>
     <path d="M 4.203125 54.6875 
L 13.1875 54.6875 
L 24.421875 12.015625 
L 35.59375 54.6875 
L 46.1875 54.6875 
L 57.421875 12.015625 
L 68.609375 54.6875 
L 77.59375 54.6875 
L 63.28125 0 
L 52.6875 0 
L 40.921875 44.828125 
L 29.109375 0 
L 18.5 0 
z
" id="DejaVuSans-119"/>
    </defs>
    <g transform="translate(798.571532 35.64)scale(0.2592 -0.2592)">
     <use xlink:href="#DejaVuSans-80"/>
     <use x="60.287109" xlink:href="#DejaVuSans-117"/>
     <use x="123.666016" xlink:href="#DejaVuSans-114"/>
     <use x="164.779297" xlink:href="#DejaVuSans-105"/>
     <use x="192.5625" xlink:href="#DejaVuSans-116"/>
     <use x="231.771484" xlink:href="#DejaVuSans-121"/>
     <use x="290.951172" xlink:href="#DejaVuSans-47"/>
     <use x="324.642578" xlink:href="#DejaVuSans-69"/>
     <use x="387.826172" xlink:href="#DejaVuSans-102"/>
     <use x="423.03125" xlink:href="#DejaVuSans-102"/>
     <use x="458.236328" xlink:href="#DejaVuSans-105"/>
     <use x="486.019531" xlink:href="#DejaVuSans-99"/>
     <use x="541" xlink:href="#DejaVuSans-105"/>
     <use x="568.783203" xlink:href="#DejaVuSans-101"/>
     <use x="630.306641" xlink:href="#DejaVuSans-110"/>
     <use x="693.685547" xlink:href="#DejaVuSans-99"/>
     <use x="748.666016" xlink:href="#DejaVuSans-121"/>
     <use x="807.845703" xlink:href="#DejaVuSans-32"/>
     <use x="839.632812" xlink:href="#DejaVuSans-118"/>
     <use x="898.8125" xlink:href="#DejaVuSans-115"/>
     <use x="950.912109" xlink:href="#DejaVuSans-32"/>
     <use x="982.699219" xlink:href="#DejaVuSans-80"/>
     <use x="1043.001953" xlink:href="#DejaVuSans-99"/>
     <use x="1097.982422" xlink:href="#DejaVuSans-97"/>
     <use x="1159.261719" xlink:href="#DejaVuSans-86"/>
     <use x="1227.560547" xlink:href="#DejaVuSans-97"/>
     <use x="1288.839844" xlink:href="#DejaVuSans-114"/>
     <use x="1329.953125" xlink:href="#DejaVuSans-86"/>
     <use x="1398.361328" xlink:href="#DejaVuSans-32"/>
     <use x="1430.148438" xlink:href="#DejaVuSans-67"/>
     <use x="1499.972656" xlink:href="#DejaVuSans-117"/>
     <use x="1563.351562" xlink:href="#DejaVuSans-116"/>
     <use x="1602.560547" xlink:href="#DejaVuSans-111"/>
     <use x="1663.742188" xlink:href="#DejaVuSans-102"/>
     <use x="1698.947266" xlink:href="#DejaVuSans-102"/>
     <use x="1734.152344" xlink:href="#DejaVuSans-32"/>
     <use x="1765.939453" xlink:href="#DejaVuSans-8212"/>
     <use x="1865.939453" xlink:href="#DejaVuSans-32"/>
     <use x="1897.726562" xlink:href="#DejaVuSans-115"/>
     <use x="1949.826172" xlink:href="#DejaVuSans-104"/>
     <use x="2013.205078" xlink:href="#DejaVuSans-111"/>
     <use x="2074.386719" xlink:href="#DejaVuSans-119"/>
     <use x="2156.173828" xlink:href="#DejaVuSans-101"/>
     <use x="2217.697266" xlink:href="#DejaVuSans-114"/>
    </g>
   </g>
   <g id="legend_2">
    <g id="patch_13">
     <path d="M 982.612869 454.84 
L 1200.002244 454.84 
Q 1203.602244 454.84 1203.602244 451.24 
L 1203.602244 373.778125 
Q 1203.602244 370.178125 1200.002244 370.178125 
L 982.612869 370.178125 
Q 979.012869 370.178125 979.012869 373.778125 
L 979.012869 451.24 
Q 979.012869 454.84 982.612869 454.84 
z
" style="fill:#ffffff;opacity:0.8;stroke:#cccccc;stroke-linejoin:miter;"/>
    </g>
    <g id="line2d_39">
     <path d="M 986.212869 384.755313 
L 1022.212869 384.755313 
" style="fill:none;stroke:#0000ff;stroke-linecap:square;stroke-width:1.5;"/>
    </g>
    <g id="line2d_40"/>
    <g id="text_34">
     <!-- Efficiency -->
     <g transform="translate(1036.612869 391.055313)scale(0.18 -0.18)">
      <use xlink:href="#DejaVuSans-69"/>
      <use x="63.183594" xlink:href="#DejaVuSans-102"/>
      <use x="98.388672" xlink:href="#DejaVuSans-102"/>
      <use x="133.59375" xlink:href="#DejaVuSans-105"/>
      <use x="161.376953" xlink:href="#DejaVuSans-99"/>
      <use x="216.357422" xlink:href="#DejaVuSans-105"/>
      <use x="244.140625" xlink:href="#DejaVuSans-101"/>
      <use x="305.664062" xlink:href="#DejaVuSans-110"/>
      <use x="369.042969" xlink:href="#DejaVuSans-99"/>
      <use x="424.023438" xlink:href="#DejaVuSans-121"/>
     </g>
    </g>
    <g id="line2d_41">
     <path d="M 986.212869 411.175937 
L 1022.212869 411.175937 
" style="fill:none;stroke:#ff0000;stroke-linecap:square;stroke-width:1.5;"/>
    </g>
    <g id="line2d_42"/>
    <g id="text_35">
     <!-- Purity -->
     <g transform="translate(1036.612869 417.475937)scale(0.18 -0.18)">
      <use xlink:href="#DejaVuSans-80"/>
      <use x="60.287109" xlink:href="#DejaVuSans-117"/>
      <use x="123.666016" xlink:href="#DejaVuSans-114"/>
      <use x="164.779297" xlink:href="#DejaVuSans-105"/>
      <use x="192.5625" xlink:href="#DejaVuSans-116"/>
      <use x="231.771484" xlink:href="#DejaVuSans-121"/>
     </g>
    </g>
    <g id="line2d_43">
     <path d="M 986.212869 437.596562 
L 1022.212869 437.596562 
" style="fill:none;stroke:#008000;stroke-linecap:square;stroke-width:1.5;"/>
    </g>
    <g id="line2d_44"/>
    <g id="text_36">
     <!-- Purity * Efficiency -->
     <g transform="translate(1036.612869 443.896562)scale(0.18 -0.18)">
      <use xlink:href="#DejaVuSans-80"/>
      <use x="60.287109" xlink:href="#DejaVuSans-117"/>
      <use x="123.666016" xlink:href="#DejaVuSans-114"/>
      <use x="164.779297" xlink:href="#DejaVuSans-105"/>
      <use x="192.5625" xlink:href="#DejaVuSans-116"/>
      <use x="231.771484" xlink:href="#DejaVuSans-121"/>
      <use x="290.951172" xlink:href="#DejaVuSans-32"/>
      <use x="322.738281" xlink:href="#DejaVuSans-42"/>
      <use x="372.738281" xlink:href="#DejaVuSans-32"/>
      <use x="404.525391" xlink:href="#DejaVuSans-69"/>
      <use x="467.708984" xlink:href="#DejaVuSans-102"/>
      <use x="502.914062" xlink:href="#DejaVuSans-102"/>
      <use x="538.119141" xlink:href="#DejaVuSans-105"/>
      <use x="565.902344" xlink:href="#DejaVuSans-99"/>
      <use x="620.882812" xlink:href="#DejaVuSans-105"/>
      <use x="648.666016" xlink:href="#DejaVuSans-101"/>
      <use x="710.189453" xlink:href="#DejaVuSans-110"/>
      <use x="773.568359" xlink:href="#DejaVuSans-99"/>
      <use x="828.548828" xlink:href="#DejaVuSans-121"/>
     </g>
    </g>
   </g>
  </g>
 </g>
 <defs>
  <clipPath id="p9c81671a92">
   <rect height="422.2" width="586.650114" x="92.99" y="41.64"/>
  </clipPath>
  <clipPath id="pe53a7b7daf">
   <rect height="422.2" width="586.650114" x="797.9825" y="41.64"/>
  </clipPath>
 </defs>
</svg>
