<?xml version="1.0" encoding="utf-8" standalone="no"?>
<!DOCTYPE svg PUBLIC "-//W3C//DTD SVG 1.1//EN"
  "http://www.w3.org/Graphics/SVG/1.1/DTD/svg11.dtd">
<!-- Created with matplotlib (https://matplotlib.org/) -->
<svg height="540pt" version="1.1" viewBox="0 0 1440 540" width="1440pt" xmlns="http://www.w3.org/2000/svg" xmlns:xlink="http://www.w3.org/1999/xlink">
 <defs>
  <style type="text/css">
*{stroke-linecap:butt;stroke-linejoin:round;}
  </style>
 </defs>
 <g id="figure_1">
  <g id="patch_1">
   <path d="M 0 540 
L 1440 540 
L 1440 0 
L 0 0 
z
" style="fill:#ffffff;"/>
  </g>
  <g id="axes_1">
   <g id="patch_2">
    <path d="M 92.99 463.84 
L 667.754489 463.84 
L 667.754489 41.64 
L 92.99 41.64 
z
" style="fill:#ffffff;"/>
   </g>
   <g id="matplotlib.axis_1">
    <g id="xtick_1">
     <g id="line2d_1">
      <defs>
       <path d="M 0 0 
L 0 3.5 
" id="mc30dc80c1e" style="stroke:#000000;stroke-width:0.8;"/>
      </defs>
      <g>
       <use style="stroke:#000000;stroke-width:0.8;" x="119.115659" xlink:href="#mc30dc80c1e" y="463.84"/>
      </g>
     </g>
     <g id="text_1">
      <!-- 0.0 -->
      <defs>
       <path d="M 31.78125 66.40625 
Q 24.171875 66.40625 20.328125 58.90625 
Q 16.5 51.421875 16.5 36.375 
Q 16.5 21.390625 20.328125 13.890625 
Q 24.171875 6.390625 31.78125 6.390625 
Q 39.453125 6.390625 43.28125 13.890625 
Q 47.125 21.390625 47.125 36.375 
Q 47.125 51.421875 43.28125 58.90625 
Q 39.453125 66.40625 31.78125 66.40625 
z
M 31.78125 74.21875 
Q 44.046875 74.21875 50.515625 64.515625 
Q 56.984375 54.828125 56.984375 36.375 
Q 56.984375 17.96875 50.515625 8.265625 
Q 44.046875 -1.421875 31.78125 -1.421875 
Q 19.53125 -1.421875 13.0625 8.265625 
Q 6.59375 17.96875 6.59375 36.375 
Q 6.59375 54.828125 13.0625 64.515625 
Q 19.53125 74.21875 31.78125 74.21875 
z
" id="DejaVuSans-48"/>
       <path d="M 10.6875 12.40625 
L 21 12.40625 
L 21 0 
L 10.6875 0 
z
" id="DejaVuSans-46"/>
      </defs>
      <g transform="translate(98.505209 490.53515)scale(0.2592 -0.2592)">
       <use xlink:href="#DejaVuSans-48"/>
       <use x="63.623047" xlink:href="#DejaVuSans-46"/>
       <use x="95.410156" xlink:href="#DejaVuSans-48"/>
      </g>
     </g>
    </g>
    <g id="xtick_2">
     <g id="line2d_2">
      <g>
       <use style="stroke:#000000;stroke-width:0.8;" x="223.618293" xlink:href="#mc30dc80c1e" y="463.84"/>
      </g>
     </g>
     <g id="text_2">
      <!-- 0.2 -->
      <defs>
       <path d="M 19.1875 8.296875 
L 53.609375 8.296875 
L 53.609375 0 
L 7.328125 0 
L 7.328125 8.296875 
Q 12.9375 14.109375 22.625 23.890625 
Q 32.328125 33.6875 34.8125 36.53125 
Q 39.546875 41.84375 41.421875 45.53125 
Q 43.3125 49.21875 43.3125 52.78125 
Q 43.3125 58.59375 39.234375 62.25 
Q 35.15625 65.921875 28.609375 65.921875 
Q 23.96875 65.921875 18.8125 64.3125 
Q 13.671875 62.703125 7.8125 59.421875 
L 7.8125 69.390625 
Q 13.765625 71.78125 18.9375 73 
Q 24.125 74.21875 28.421875 74.21875 
Q 39.75 74.21875 46.484375 68.546875 
Q 53.21875 62.890625 53.21875 53.421875 
Q 53.21875 48.921875 51.53125 44.890625 
Q 49.859375 40.875 45.40625 35.40625 
Q 44.1875 33.984375 37.640625 27.21875 
Q 31.109375 20.453125 19.1875 8.296875 
z
" id="DejaVuSans-50"/>
      </defs>
      <g transform="translate(203.007843 490.53515)scale(0.2592 -0.2592)">
       <use xlink:href="#DejaVuSans-48"/>
       <use x="63.623047" xlink:href="#DejaVuSans-46"/>
       <use x="95.410156" xlink:href="#DejaVuSans-50"/>
      </g>
     </g>
    </g>
    <g id="xtick_3">
     <g id="line2d_3">
      <g>
       <use style="stroke:#000000;stroke-width:0.8;" x="328.120927" xlink:href="#mc30dc80c1e" y="463.84"/>
      </g>
     </g>
     <g id="text_3">
      <!-- 0.4 -->
      <defs>
       <path d="M 37.796875 64.3125 
L 12.890625 25.390625 
L 37.796875 25.390625 
z
M 35.203125 72.90625 
L 47.609375 72.90625 
L 47.609375 25.390625 
L 58.015625 25.390625 
L 58.015625 17.1875 
L 47.609375 17.1875 
L 47.609375 0 
L 37.796875 0 
L 37.796875 17.1875 
L 4.890625 17.1875 
L 4.890625 26.703125 
z
" id="DejaVuSans-52"/>
      </defs>
      <g transform="translate(307.510477 490.53515)scale(0.2592 -0.2592)">
       <use xlink:href="#DejaVuSans-48"/>
       <use x="63.623047" xlink:href="#DejaVuSans-46"/>
       <use x="95.410156" xlink:href="#DejaVuSans-52"/>
      </g>
     </g>
    </g>
    <g id="xtick_4">
     <g id="line2d_4">
      <g>
       <use style="stroke:#000000;stroke-width:0.8;" x="432.623561" xlink:href="#mc30dc80c1e" y="463.84"/>
      </g>
     </g>
     <g id="text_4">
      <!-- 0.6 -->
      <defs>
       <path d="M 33.015625 40.375 
Q 26.375 40.375 22.484375 35.828125 
Q 18.609375 31.296875 18.609375 23.390625 
Q 18.609375 15.53125 22.484375 10.953125 
Q 26.375 6.390625 33.015625 6.390625 
Q 39.65625 6.390625 43.53125 10.953125 
Q 47.40625 15.53125 47.40625 23.390625 
Q 47.40625 31.296875 43.53125 35.828125 
Q 39.65625 40.375 33.015625 40.375 
z
M 52.59375 71.296875 
L 52.59375 62.3125 
Q 48.875 64.0625 45.09375 64.984375 
Q 41.3125 65.921875 37.59375 65.921875 
Q 27.828125 65.921875 22.671875 59.328125 
Q 17.53125 52.734375 16.796875 39.40625 
Q 19.671875 43.65625 24.015625 45.921875 
Q 28.375 48.1875 33.59375 48.1875 
Q 44.578125 48.1875 50.953125 41.515625 
Q 57.328125 34.859375 57.328125 23.390625 
Q 57.328125 12.15625 50.6875 5.359375 
Q 44.046875 -1.421875 33.015625 -1.421875 
Q 20.359375 -1.421875 13.671875 8.265625 
Q 6.984375 17.96875 6.984375 36.375 
Q 6.984375 53.65625 15.1875 63.9375 
Q 23.390625 74.21875 37.203125 74.21875 
Q 40.921875 74.21875 44.703125 73.484375 
Q 48.484375 72.75 52.59375 71.296875 
z
" id="DejaVuSans-54"/>
      </defs>
      <g transform="translate(412.013111 490.53515)scale(0.2592 -0.2592)">
       <use xlink:href="#DejaVuSans-48"/>
       <use x="63.623047" xlink:href="#DejaVuSans-46"/>
       <use x="95.410156" xlink:href="#DejaVuSans-54"/>
      </g>
     </g>
    </g>
    <g id="xtick_5">
     <g id="line2d_5">
      <g>
       <use style="stroke:#000000;stroke-width:0.8;" x="537.126196" xlink:href="#mc30dc80c1e" y="463.84"/>
      </g>
     </g>
     <g id="text_5">
      <!-- 0.8 -->
      <defs>
       <path d="M 31.78125 34.625 
Q 24.75 34.625 20.71875 30.859375 
Q 16.703125 27.09375 16.703125 20.515625 
Q 16.703125 13.921875 20.71875 10.15625 
Q 24.75 6.390625 31.78125 6.390625 
Q 38.8125 6.390625 42.859375 10.171875 
Q 46.921875 13.96875 46.921875 20.515625 
Q 46.921875 27.09375 42.890625 30.859375 
Q 38.875 34.625 31.78125 34.625 
z
M 21.921875 38.8125 
Q 15.578125 40.375 12.03125 44.71875 
Q 8.5 49.078125 8.5 55.328125 
Q 8.5 64.0625 14.71875 69.140625 
Q 20.953125 74.21875 31.78125 74.21875 
Q 42.671875 74.21875 48.875 69.140625 
Q 55.078125 64.0625 55.078125 55.328125 
Q 55.078125 49.078125 51.53125 44.71875 
Q 48 40.375 41.703125 38.8125 
Q 48.828125 37.15625 52.796875 32.3125 
Q 56.78125 27.484375 56.78125 20.515625 
Q 56.78125 9.90625 50.3125 4.234375 
Q 43.84375 -1.421875 31.78125 -1.421875 
Q 19.734375 -1.421875 13.25 4.234375 
Q 6.78125 9.90625 6.78125 20.515625 
Q 6.78125 27.484375 10.78125 32.3125 
Q 14.796875 37.15625 21.921875 38.8125 
z
M 18.3125 54.390625 
Q 18.3125 48.734375 21.84375 45.5625 
Q 25.390625 42.390625 31.78125 42.390625 
Q 38.140625 42.390625 41.71875 45.5625 
Q 45.3125 48.734375 45.3125 54.390625 
Q 45.3125 60.0625 41.71875 63.234375 
Q 38.140625 66.40625 31.78125 66.40625 
Q 25.390625 66.40625 21.84375 63.234375 
Q 18.3125 60.0625 18.3125 54.390625 
z
" id="DejaVuSans-56"/>
      </defs>
      <g transform="translate(516.515746 490.53515)scale(0.2592 -0.2592)">
       <use xlink:href="#DejaVuSans-48"/>
       <use x="63.623047" xlink:href="#DejaVuSans-46"/>
       <use x="95.410156" xlink:href="#DejaVuSans-56"/>
      </g>
     </g>
    </g>
    <g id="xtick_6">
     <g id="line2d_6">
      <g>
       <use style="stroke:#000000;stroke-width:0.8;" x="641.62883" xlink:href="#mc30dc80c1e" y="463.84"/>
      </g>
     </g>
     <g id="text_6">
      <!-- 1.0 -->
      <defs>
       <path d="M 12.40625 8.296875 
L 28.515625 8.296875 
L 28.515625 63.921875 
L 10.984375 60.40625 
L 10.984375 69.390625 
L 28.421875 72.90625 
L 38.28125 72.90625 
L 38.28125 8.296875 
L 54.390625 8.296875 
L 54.390625 0 
L 12.40625 0 
z
" id="DejaVuSans-49"/>
      </defs>
      <g transform="translate(621.01838 490.53515)scale(0.2592 -0.2592)">
       <use xlink:href="#DejaVuSans-49"/>
       <use x="63.623047" xlink:href="#DejaVuSans-46"/>
       <use x="95.410156" xlink:href="#DejaVuSans-48"/>
      </g>
     </g>
    </g>
    <g id="text_7">
     <!-- Likelihood Cutoff -->
     <defs>
      <path d="M 9.8125 72.90625 
L 19.671875 72.90625 
L 19.671875 8.296875 
L 55.171875 8.296875 
L 55.171875 0 
L 9.8125 0 
z
" id="DejaVuSans-76"/>
      <path d="M 9.421875 54.6875 
L 18.40625 54.6875 
L 18.40625 0 
L 9.421875 0 
z
M 9.421875 75.984375 
L 18.40625 75.984375 
L 18.40625 64.59375 
L 9.421875 64.59375 
z
" id="DejaVuSans-105"/>
      <path d="M 9.078125 75.984375 
L 18.109375 75.984375 
L 18.109375 31.109375 
L 44.921875 54.6875 
L 56.390625 54.6875 
L 27.390625 29.109375 
L 57.625 0 
L 45.90625 0 
L 18.109375 26.703125 
L 18.109375 0 
L 9.078125 0 
z
" id="DejaVuSans-107"/>
      <path d="M 56.203125 29.59375 
L 56.203125 25.203125 
L 14.890625 25.203125 
Q 15.484375 15.921875 20.484375 11.0625 
Q 25.484375 6.203125 34.421875 6.203125 
Q 39.59375 6.203125 44.453125 7.46875 
Q 49.3125 8.734375 54.109375 11.28125 
L 54.109375 2.78125 
Q 49.265625 0.734375 44.1875 -0.34375 
Q 39.109375 -1.421875 33.890625 -1.421875 
Q 20.796875 -1.421875 13.15625 6.1875 
Q 5.515625 13.8125 5.515625 26.8125 
Q 5.515625 40.234375 12.765625 48.109375 
Q 20.015625 56 32.328125 56 
Q 43.359375 56 49.78125 48.890625 
Q 56.203125 41.796875 56.203125 29.59375 
z
M 47.21875 32.234375 
Q 47.125 39.59375 43.09375 43.984375 
Q 39.0625 48.390625 32.421875 48.390625 
Q 24.90625 48.390625 20.390625 44.140625 
Q 15.875 39.890625 15.1875 32.171875 
z
" id="DejaVuSans-101"/>
      <path d="M 9.421875 75.984375 
L 18.40625 75.984375 
L 18.40625 0 
L 9.421875 0 
z
" id="DejaVuSans-108"/>
      <path d="M 54.890625 33.015625 
L 54.890625 0 
L 45.90625 0 
L 45.90625 32.71875 
Q 45.90625 40.484375 42.875 44.328125 
Q 39.84375 48.1875 33.796875 48.1875 
Q 26.515625 48.1875 22.3125 43.546875 
Q 18.109375 38.921875 18.109375 30.90625 
L 18.109375 0 
L 9.078125 0 
L 9.078125 75.984375 
L 18.109375 75.984375 
L 18.109375 46.1875 
Q 21.34375 51.125 25.703125 53.5625 
Q 30.078125 56 35.796875 56 
Q 45.21875 56 50.046875 50.171875 
Q 54.890625 44.34375 54.890625 33.015625 
z
" id="DejaVuSans-104"/>
      <path d="M 30.609375 48.390625 
Q 23.390625 48.390625 19.1875 42.75 
Q 14.984375 37.109375 14.984375 27.296875 
Q 14.984375 17.484375 19.15625 11.84375 
Q 23.34375 6.203125 30.609375 6.203125 
Q 37.796875 6.203125 41.984375 11.859375 
Q 46.1875 17.53125 46.1875 27.296875 
Q 46.1875 37.015625 41.984375 42.703125 
Q 37.796875 48.390625 30.609375 48.390625 
z
M 30.609375 56 
Q 42.328125 56 49.015625 48.375 
Q 55.71875 40.765625 55.71875 27.296875 
Q 55.71875 13.875 49.015625 6.21875 
Q 42.328125 -1.421875 30.609375 -1.421875 
Q 18.84375 -1.421875 12.171875 6.21875 
Q 5.515625 13.875 5.515625 27.296875 
Q 5.515625 40.765625 12.171875 48.375 
Q 18.84375 56 30.609375 56 
z
" id="DejaVuSans-111"/>
      <path d="M 45.40625 46.390625 
L 45.40625 75.984375 
L 54.390625 75.984375 
L 54.390625 0 
L 45.40625 0 
L 45.40625 8.203125 
Q 42.578125 3.328125 38.25 0.953125 
Q 33.9375 -1.421875 27.875 -1.421875 
Q 17.96875 -1.421875 11.734375 6.484375 
Q 5.515625 14.40625 5.515625 27.296875 
Q 5.515625 40.1875 11.734375 48.09375 
Q 17.96875 56 27.875 56 
Q 33.9375 56 38.25 53.625 
Q 42.578125 51.265625 45.40625 46.390625 
z
M 14.796875 27.296875 
Q 14.796875 17.390625 18.875 11.75 
Q 22.953125 6.109375 30.078125 6.109375 
Q 37.203125 6.109375 41.296875 11.75 
Q 45.40625 17.390625 45.40625 27.296875 
Q 45.40625 37.203125 41.296875 42.84375 
Q 37.203125 48.484375 30.078125 48.484375 
Q 22.953125 48.484375 18.875 42.84375 
Q 14.796875 37.203125 14.796875 27.296875 
z
" id="DejaVuSans-100"/>
      <path id="DejaVuSans-32"/>
      <path d="M 64.40625 67.28125 
L 64.40625 56.890625 
Q 59.421875 61.53125 53.78125 63.8125 
Q 48.140625 66.109375 41.796875 66.109375 
Q 29.296875 66.109375 22.65625 58.46875 
Q 16.015625 50.828125 16.015625 36.375 
Q 16.015625 21.96875 22.65625 14.328125 
Q 29.296875 6.6875 41.796875 6.6875 
Q 48.140625 6.6875 53.78125 8.984375 
Q 59.421875 11.28125 64.40625 15.921875 
L 64.40625 5.609375 
Q 59.234375 2.09375 53.4375 0.328125 
Q 47.65625 -1.421875 41.21875 -1.421875 
Q 24.65625 -1.421875 15.125 8.703125 
Q 5.609375 18.84375 5.609375 36.375 
Q 5.609375 53.953125 15.125 64.078125 
Q 24.65625 74.21875 41.21875 74.21875 
Q 47.75 74.21875 53.53125 72.484375 
Q 59.328125 70.75 64.40625 67.28125 
z
" id="DejaVuSans-67"/>
      <path d="M 8.5 21.578125 
L 8.5 54.6875 
L 17.484375 54.6875 
L 17.484375 21.921875 
Q 17.484375 14.15625 20.5 10.265625 
Q 23.53125 6.390625 29.59375 6.390625 
Q 36.859375 6.390625 41.078125 11.03125 
Q 45.3125 15.671875 45.3125 23.6875 
L 45.3125 54.6875 
L 54.296875 54.6875 
L 54.296875 0 
L 45.3125 0 
L 45.3125 8.40625 
Q 42.046875 3.421875 37.71875 1 
Q 33.40625 -1.421875 27.6875 -1.421875 
Q 18.265625 -1.421875 13.375 4.4375 
Q 8.5 10.296875 8.5 21.578125 
z
M 31.109375 56 
z
" id="DejaVuSans-117"/>
      <path d="M 18.3125 70.21875 
L 18.3125 54.6875 
L 36.8125 54.6875 
L 36.8125 47.703125 
L 18.3125 47.703125 
L 18.3125 18.015625 
Q 18.3125 11.328125 20.140625 9.421875 
Q 21.96875 7.515625 27.59375 7.515625 
L 36.8125 7.515625 
L 36.8125 0 
L 27.59375 0 
Q 17.1875 0 13.234375 3.875 
Q 9.28125 7.765625 9.28125 18.015625 
L 9.28125 47.703125 
L 2.6875 47.703125 
L 2.6875 54.6875 
L 9.28125 54.6875 
L 9.28125 70.21875 
z
" id="DejaVuSans-116"/>
      <path d="M 37.109375 75.984375 
L 37.109375 68.5 
L 28.515625 68.5 
Q 23.6875 68.5 21.796875 66.546875 
Q 19.921875 64.59375 19.921875 59.515625 
L 19.921875 54.6875 
L 34.71875 54.6875 
L 34.71875 47.703125 
L 19.921875 47.703125 
L 19.921875 0 
L 10.890625 0 
L 10.890625 47.703125 
L 2.296875 47.703125 
L 2.296875 54.6875 
L 10.890625 54.6875 
L 10.890625 58.5 
Q 10.890625 67.625 15.140625 71.796875 
Q 19.390625 75.984375 28.609375 75.984375 
z
" id="DejaVuSans-102"/>
     </defs>
     <g transform="translate(271.058694 519.62085)scale(0.2592 -0.2592)">
      <use xlink:href="#DejaVuSans-76"/>
      <use x="55.712891" xlink:href="#DejaVuSans-105"/>
      <use x="83.496094" xlink:href="#DejaVuSans-107"/>
      <use x="141.359375" xlink:href="#DejaVuSans-101"/>
      <use x="202.882812" xlink:href="#DejaVuSans-108"/>
      <use x="230.666016" xlink:href="#DejaVuSans-105"/>
      <use x="258.449219" xlink:href="#DejaVuSans-104"/>
      <use x="321.828125" xlink:href="#DejaVuSans-111"/>
      <use x="383.009766" xlink:href="#DejaVuSans-111"/>
      <use x="444.191406" xlink:href="#DejaVuSans-100"/>
      <use x="507.667969" xlink:href="#DejaVuSans-32"/>
      <use x="539.455078" xlink:href="#DejaVuSans-67"/>
      <use x="609.279297" xlink:href="#DejaVuSans-117"/>
      <use x="672.658203" xlink:href="#DejaVuSans-116"/>
      <use x="711.867188" xlink:href="#DejaVuSans-111"/>
      <use x="773.048828" xlink:href="#DejaVuSans-102"/>
      <use x="808.253906" xlink:href="#DejaVuSans-102"/>
     </g>
    </g>
   </g>
   <g id="matplotlib.axis_2">
    <g id="ytick_1">
     <g id="line2d_7">
      <defs>
       <path d="M 0 0 
L -3.5 0 
" id="m5d1e992673" style="stroke:#000000;stroke-width:0.8;"/>
      </defs>
      <g>
       <use style="stroke:#000000;stroke-width:0.8;" x="92.99" xlink:href="#m5d1e992673" y="463.84"/>
      </g>
     </g>
     <g id="text_8">
      <!-- 0.0 -->
      <g transform="translate(44.7691 473.687575)scale(0.2592 -0.2592)">
       <use xlink:href="#DejaVuSans-48"/>
       <use x="63.623047" xlink:href="#DejaVuSans-46"/>
       <use x="95.410156" xlink:href="#DejaVuSans-48"/>
      </g>
     </g>
    </g>
    <g id="ytick_2">
     <g id="line2d_8">
      <g>
       <use style="stroke:#000000;stroke-width:0.8;" x="92.99" xlink:href="#m5d1e992673" y="379.4"/>
      </g>
     </g>
     <g id="text_9">
      <!-- 0.2 -->
      <g transform="translate(44.7691 389.247575)scale(0.2592 -0.2592)">
       <use xlink:href="#DejaVuSans-48"/>
       <use x="63.623047" xlink:href="#DejaVuSans-46"/>
       <use x="95.410156" xlink:href="#DejaVuSans-50"/>
      </g>
     </g>
    </g>
    <g id="ytick_3">
     <g id="line2d_9">
      <g>
       <use style="stroke:#000000;stroke-width:0.8;" x="92.99" xlink:href="#m5d1e992673" y="294.96"/>
      </g>
     </g>
     <g id="text_10">
      <!-- 0.4 -->
      <g transform="translate(44.7691 304.807575)scale(0.2592 -0.2592)">
       <use xlink:href="#DejaVuSans-48"/>
       <use x="63.623047" xlink:href="#DejaVuSans-46"/>
       <use x="95.410156" xlink:href="#DejaVuSans-52"/>
      </g>
     </g>
    </g>
    <g id="ytick_4">
     <g id="line2d_10">
      <g>
       <use style="stroke:#000000;stroke-width:0.8;" x="92.99" xlink:href="#m5d1e992673" y="210.52"/>
      </g>
     </g>
     <g id="text_11">
      <!-- 0.6 -->
      <g transform="translate(44.7691 220.367575)scale(0.2592 -0.2592)">
       <use xlink:href="#DejaVuSans-48"/>
       <use x="63.623047" xlink:href="#DejaVuSans-46"/>
       <use x="95.410156" xlink:href="#DejaVuSans-54"/>
      </g>
     </g>
    </g>
    <g id="ytick_5">
     <g id="line2d_11">
      <g>
       <use style="stroke:#000000;stroke-width:0.8;" x="92.99" xlink:href="#m5d1e992673" y="126.08"/>
      </g>
     </g>
     <g id="text_12">
      <!-- 0.8 -->
      <g transform="translate(44.7691 135.927575)scale(0.2592 -0.2592)">
       <use xlink:href="#DejaVuSans-48"/>
       <use x="63.623047" xlink:href="#DejaVuSans-46"/>
       <use x="95.410156" xlink:href="#DejaVuSans-56"/>
      </g>
     </g>
    </g>
    <g id="ytick_6">
     <g id="line2d_12">
      <g>
       <use style="stroke:#000000;stroke-width:0.8;" x="92.99" xlink:href="#m5d1e992673" y="41.64"/>
      </g>
     </g>
     <g id="text_13">
      <!-- 1.0 -->
      <g transform="translate(44.7691 51.487575)scale(0.2592 -0.2592)">
       <use xlink:href="#DejaVuSans-49"/>
       <use x="63.623047" xlink:href="#DejaVuSans-46"/>
       <use x="95.410156" xlink:href="#DejaVuSans-48"/>
      </g>
     </g>
    </g>
    <g id="text_14">
     <!-- Fraction -->
     <defs>
      <path d="M 9.8125 72.90625 
L 51.703125 72.90625 
L 51.703125 64.59375 
L 19.671875 64.59375 
L 19.671875 43.109375 
L 48.578125 43.109375 
L 48.578125 34.8125 
L 19.671875 34.8125 
L 19.671875 0 
L 9.8125 0 
z
" id="DejaVuSans-70"/>
      <path d="M 41.109375 46.296875 
Q 39.59375 47.171875 37.8125 47.578125 
Q 36.03125 48 33.890625 48 
Q 26.265625 48 22.1875 43.046875 
Q 18.109375 38.09375 18.109375 28.8125 
L 18.109375 0 
L 9.078125 0 
L 9.078125 54.6875 
L 18.109375 54.6875 
L 18.109375 46.1875 
Q 20.953125 51.171875 25.484375 53.578125 
Q 30.03125 56 36.53125 56 
Q 37.453125 56 38.578125 55.875 
Q 39.703125 55.765625 41.0625 55.515625 
z
" id="DejaVuSans-114"/>
      <path d="M 34.28125 27.484375 
Q 23.390625 27.484375 19.1875 25 
Q 14.984375 22.515625 14.984375 16.5 
Q 14.984375 11.71875 18.140625 8.90625 
Q 21.296875 6.109375 26.703125 6.109375 
Q 34.1875 6.109375 38.703125 11.40625 
Q 43.21875 16.703125 43.21875 25.484375 
L 43.21875 27.484375 
z
M 52.203125 31.203125 
L 52.203125 0 
L 43.21875 0 
L 43.21875 8.296875 
Q 40.140625 3.328125 35.546875 0.953125 
Q 30.953125 -1.421875 24.3125 -1.421875 
Q 15.921875 -1.421875 10.953125 3.296875 
Q 6 8.015625 6 15.921875 
Q 6 25.140625 12.171875 29.828125 
Q 18.359375 34.515625 30.609375 34.515625 
L 43.21875 34.515625 
L 43.21875 35.40625 
Q 43.21875 41.609375 39.140625 45 
Q 35.0625 48.390625 27.6875 48.390625 
Q 23 48.390625 18.546875 47.265625 
Q 14.109375 46.140625 10.015625 43.890625 
L 10.015625 52.203125 
Q 14.9375 54.109375 19.578125 55.046875 
Q 24.21875 56 28.609375 56 
Q 40.484375 56 46.34375 49.84375 
Q 52.203125 43.703125 52.203125 31.203125 
z
" id="DejaVuSans-97"/>
      <path d="M 48.78125 52.59375 
L 48.78125 44.1875 
Q 44.96875 46.296875 41.140625 47.34375 
Q 37.3125 48.390625 33.40625 48.390625 
Q 24.65625 48.390625 19.8125 42.84375 
Q 14.984375 37.3125 14.984375 27.296875 
Q 14.984375 17.28125 19.8125 11.734375 
Q 24.65625 6.203125 33.40625 6.203125 
Q 37.3125 6.203125 41.140625 7.25 
Q 44.96875 8.296875 48.78125 10.40625 
L 48.78125 2.09375 
Q 45.015625 0.34375 40.984375 -0.53125 
Q 36.96875 -1.421875 32.421875 -1.421875 
Q 20.0625 -1.421875 12.78125 6.34375 
Q 5.515625 14.109375 5.515625 27.296875 
Q 5.515625 40.671875 12.859375 48.328125 
Q 20.21875 56 33.015625 56 
Q 37.15625 56 41.109375 55.140625 
Q 45.0625 54.296875 48.78125 52.59375 
z
" id="DejaVuSans-99"/>
      <path d="M 54.890625 33.015625 
L 54.890625 0 
L 45.90625 0 
L 45.90625 32.71875 
Q 45.90625 40.484375 42.875 44.328125 
Q 39.84375 48.1875 33.796875 48.1875 
Q 26.515625 48.1875 22.3125 43.546875 
Q 18.109375 38.921875 18.109375 30.90625 
L 18.109375 0 
L 9.078125 0 
L 9.078125 54.6875 
L 18.109375 54.6875 
L 18.109375 46.1875 
Q 21.34375 51.125 25.703125 53.5625 
Q 30.078125 56 35.796875 56 
Q 45.21875 56 50.046875 50.171875 
Q 54.890625 44.34375 54.890625 33.015625 
z
" id="DejaVuSans-110"/>
     </defs>
     <g transform="translate(35.37855 305.400125)rotate(-90)scale(0.2592 -0.2592)">
      <use xlink:href="#DejaVuSans-70"/>
      <use x="57.410156" xlink:href="#DejaVuSans-114"/>
      <use x="98.523438" xlink:href="#DejaVuSans-97"/>
      <use x="159.802734" xlink:href="#DejaVuSans-99"/>
      <use x="214.783203" xlink:href="#DejaVuSans-116"/>
      <use x="253.992188" xlink:href="#DejaVuSans-105"/>
      <use x="281.775391" xlink:href="#DejaVuSans-111"/>
      <use x="342.957031" xlink:href="#DejaVuSans-110"/>
     </g>
    </g>
   </g>
   <g id="line2d_13">
    <path clip-path="url(#p3d9e342ec2)" d="M 119.115659 463.84 
L 119.638172 225.635977 
L 120.160685 220.294556 
L 120.683198 216.90386 
L 121.728224 212.817796 
L 122.773251 209.913244 
L 124.34079 206.867157 
L 124.863303 206.196402 
L 125.90833 204.664128 
L 126.430843 204.159524 
L 127.998382 202.233412 
L 130.610948 200.048844 
L 133.746027 197.950429 
L 134.791054 197.53813 
L 136.358593 196.584305 
L 137.40362 196.055085 
L 140.016185 194.904341 
L 141.061212 194.28897 
L 145.241317 192.87977 
L 146.808857 192.307475 
L 149.943936 191.322881 
L 151.511475 190.87366 
L 153.601528 190.184445 
L 157.781633 189.242927 
L 158.82666 188.941395 
L 160.394199 188.627556 
L 165.096818 187.593732 
L 167.18687 187.24297 
L 168.231897 186.9599 
L 170.321949 186.652214 
L 182.339752 184.63995 
L 184.429805 184.449185 
L 187.042371 184.079963 
L 189.132424 183.846122 
L 193.312529 183.372286 
L 193.835042 108.352388 
L 196.970121 107.884706 
L 199.060174 107.595481 
L 205.852845 106.967802 
L 209.510437 106.733961 
L 211.60049 106.457044 
L 215.780595 106.180127 
L 219.438188 105.724753 
L 225.708346 105.226302 
L 230.933477 104.906309 
L 233.02353 104.727851 
L 247.653899 103.755565 
L 257.059136 102.980197 
L 267.509399 102.383287 
L 269.599452 102.192522 
L 271.689505 102.063294 
L 274.824584 101.798685 
L 359.471717 96.912638 
L 362.606796 96.771102 
L 372.534547 96.174192 
L 378.804705 95.786508 
L 382.98481 95.503438 
L 385.597376 95.380364 
L 390.299995 95.128061 
L 391.867534 95.035756 
L 396.047639 94.838837 
L 441.506285 92.266585 
L 450.389009 91.848133 
L 452.479062 91.69429 
L 462.406812 91.103534 
L 467.631944 90.808156 
L 497.415195 88.8082 
L 502.640326 88.518975 
L 517.270695 87.423614 
L 523.540853 86.949779 
L 527.720959 86.611324 
L 541.306301 85.540579 
L 543.396354 85.355967 
L 549.143999 84.845209 
L 551.234051 84.660598 
L 555.414157 84.180608 
L 562.729341 83.472932 
L 583.629868 80.697608 
L 585.197408 80.328385 
L 590.422539 79.436097 
L 594.602645 78.833033 
L 598.78275 78.106895 
L 601.917829 77.553061 
L 604.007882 77.165377 
L 607.142961 76.426932 
L 608.7105 76.119246 
L 609.233013 76.057709 
L 610.27804 75.762331 
L 615.503171 74.556203 
L 617.070711 74.088521 
L 619.160764 73.540841 
L 622.818356 72.353175 
L 624.908409 71.553192 
L 626.475948 70.999358 
L 629.088514 69.84246 
L 631.178567 69.036324 
L 634.836159 66.968677 
L 635.881185 66.21177 
L 638.493751 64.113355 
L 639.538777 62.84569 
L 640.061291 62.045708 
L 640.583804 60.913425 
L 641.106317 59.221154 
L 641.62883 41.64 
L 641.62883 41.64 
" style="fill:none;stroke:#0000ff;stroke-linecap:square;stroke-width:1.5;"/>
   </g>
   <g id="line2d_14">
    <path clip-path="url(#p3d9e342ec2)" d="M 119.638172 44.779516 
L 120.160685 45.225675 
L 122.773251 45.924084 
L 132.178488 46.984671 
L 135.313567 47.149967 
L 136.881106 47.235606 
L 149.421423 47.926486 
L 160.916712 48.353821 
L 166.141844 48.510378 
L 168.75441 48.614091 
L 170.844463 48.679277 
L 172.934515 48.743531 
L 176.069594 48.85474 
L 183.384779 49.061609 
L 193.312529 49.369769 
L 193.835042 58.622276 
L 199.060174 58.695122 
L 204.807819 58.791242 
L 210.03295 58.926182 
L 213.690543 58.985721 
L 228.320911 59.240921 
L 244.51882 59.453237 
L 260.716728 59.731826 
L 265.94186 59.817635 
L 270.121965 59.862334 
L 303.562808 60.300208 
L 307.2204 60.374728 
L 353.724073 60.873946 
L 368.876955 61.096377 
L 390.299995 61.381088 
L 400.750258 61.478814 
L 407.020416 61.580813 
L 411.723035 61.634193 
L 419.560732 61.710719 
L 424.263351 61.828344 
L 433.146075 61.93199 
L 443.073825 62.109376 
L 449.343983 62.231719 
L 453.524088 62.318506 
L 465.019378 62.579806 
L 473.379589 62.767513 
L 479.649747 62.881647 
L 485.397392 62.94246 
L 488.009958 62.993704 
L 513.613103 63.682912 
L 521.450801 63.902999 
L 533.991117 64.28355 
L 549.666512 64.893321 
L 555.93667 65.207896 
L 559.071749 65.371933 
L 564.296881 65.676856 
L 570.044526 65.912341 
L 572.657091 66.037541 
L 598.260237 67.570274 
L 604.530395 68.14789 
L 606.620448 68.323653 
L 611.323066 68.87144 
L 613.935632 69.177906 
L 618.638251 69.70627 
L 620.728303 70.000002 
L 624.908409 70.561527 
L 627.520974 71.099244 
L 629.088514 71.529289 
L 630.13354 71.754315 
L 632.746106 72.463784 
L 635.881185 73.656139 
L 639.016264 75.321882 
L 639.538777 75.742854 
L 640.061291 76.313401 
L 640.583804 77.226812 
L 641.106317 78.550491 
L 641.62883 133.412347 
L 641.62883 133.412347 
" style="fill:none;stroke:#ff0000;stroke-linecap:square;stroke-width:1.5;"/>
   </g>
   <g id="line2d_15">
    <path clip-path="url(#p3d9e342ec2)" d="M 119.638172 227.407283 
L 120.160685 222.362947 
L 120.683198 219.087409 
L 121.728224 215.20709 
L 122.773251 212.489851 
L 124.34079 209.582709 
L 124.863303 208.972262 
L 125.90833 207.53649 
L 126.430843 207.086101 
L 127.998382 205.2264 
L 130.610948 203.258471 
L 132.178488 202.258102 
L 133.223514 201.599298 
L 134.268541 201.16137 
L 134.791054 200.98216 
L 136.881106 199.822757 
L 140.016185 198.570515 
L 141.061212 198.015119 
L 153.601528 194.377564 
L 155.691581 193.975234 
L 159.349173 193.222002 
L 165.096818 192.061718 
L 167.18687 191.788461 
L 168.231897 191.517373 
L 170.844463 191.182958 
L 172.934515 190.904497 
L 176.592107 190.316984 
L 181.294726 189.649452 
L 182.862265 189.506483 
L 184.429805 189.37602 
L 187.042371 189.066288 
L 189.132424 188.891873 
L 192.267503 188.588251 
L 193.312529 188.507176 
L 193.835042 122.651271 
L 202.717766 121.716365 
L 204.285306 121.615671 
L 206.897871 121.414276 
L 215.780595 120.901676 
L 217.870648 120.664828 
L 219.438188 120.5093 
L 223.618293 120.226023 
L 228.320911 120.058456 
L 230.410964 119.920358 
L 246.608872 119.070759 
L 249.221438 118.847627 
L 254.44657 118.542775 
L 274.302071 117.526545 
L 275.86961 117.444657 
L 278.482176 117.312608 
L 303.562808 116.211958 
L 305.130348 116.159181 
L 317.148151 115.608648 
L 320.805743 115.354748 
L 353.724073 113.881112 
L 377.237165 112.911391 
L 380.894757 112.691581 
L 385.074863 112.527572 
L 390.299995 112.368172 
L 392.390047 112.286153 
L 405.97539 111.753848 
L 408.587956 111.680769 
L 411.200521 111.518911 
L 415.90314 111.231475 
L 423.218324 110.965794 
L 426.353403 110.790523 
L 430.533509 110.678288 
L 438.89372 110.369485 
L 444.641364 110.213065 
L 446.731417 110.139841 
L 470.24451 109.215669 
L 474.424615 109.025967 
L 479.649747 108.740356 
L 480.694773 108.64652 
L 486.964931 108.37929 
L 490.622524 108.181326 
L 495.325142 108.062726 
L 505.775405 107.657162 
L 508.910485 107.513078 
L 522.495827 106.941966 
L 525.108393 106.764599 
L 527.720959 106.649777 
L 545.486407 105.862073 
L 547.053946 105.734911 
L 548.098972 105.744382 
L 552.279078 105.542719 
L 553.324104 105.470076 
L 570.567039 104.493294 
L 574.747144 104.058241 
L 577.35971 103.878497 
L 583.629868 103.336892 
L 584.674894 103.151525 
L 598.78275 101.847782 
L 602.962855 101.544554 
L 606.620448 101.027296 
L 610.27804 100.598933 
L 612.368092 100.522318 
L 614.458145 100.237393 
L 617.070711 99.835935 
L 620.728303 99.293033 
L 625.953435 98.267844 
L 628.043488 97.911817 
L 629.611027 97.636492 
L 630.656053 97.539014 
L 634.836159 96.664711 
L 635.358672 96.429464 
L 636.926212 96.142258 
L 640.583804 94.875699 
L 641.106317 94.594627 
L 641.62883 133.412347 
L 641.62883 133.412347 
" style="fill:none;stroke:#008000;stroke-linecap:square;stroke-width:1.5;"/>
   </g>
   <g id="line2d_16">
    <path clip-path="url(#p3d9e342ec2)" d="M 641.106317 463.84 
L 641.106317 41.64 
" style="fill:none;stroke:#1f77b4;stroke-linecap:square;stroke-width:1.5;"/>
   </g>
   <g id="patch_3">
    <path d="M 92.99 463.84 
L 92.99 41.64 
" style="fill:none;stroke:#000000;stroke-linecap:square;stroke-linejoin:miter;stroke-width:0.8;"/>
   </g>
   <g id="patch_4">
    <path d="M 667.754489 463.84 
L 667.754489 41.64 
" style="fill:none;stroke:#000000;stroke-linecap:square;stroke-linejoin:miter;stroke-width:0.8;"/>
   </g>
   <g id="patch_5">
    <path d="M 92.99 463.84 
L 667.754489 463.84 
" style="fill:none;stroke:#000000;stroke-linecap:square;stroke-linejoin:miter;stroke-width:0.8;"/>
   </g>
   <g id="patch_6">
    <path d="M 92.99 41.64 
L 667.754489 41.64 
" style="fill:none;stroke:#000000;stroke-linecap:square;stroke-linejoin:miter;stroke-width:0.8;"/>
   </g>
   <g id="text_15">
    <!-- Purity/Efficiency vs Likelihood Cutoff — track -->
    <defs>
     <path d="M 19.671875 64.796875 
L 19.671875 37.40625 
L 32.078125 37.40625 
Q 38.96875 37.40625 42.71875 40.96875 
Q 46.484375 44.53125 46.484375 51.125 
Q 46.484375 57.671875 42.71875 61.234375 
Q 38.96875 64.796875 32.078125 64.796875 
z
M 9.8125 72.90625 
L 32.078125 72.90625 
Q 44.34375 72.90625 50.609375 67.359375 
Q 56.890625 61.8125 56.890625 51.125 
Q 56.890625 40.328125 50.609375 34.8125 
Q 44.34375 29.296875 32.078125 29.296875 
L 19.671875 29.296875 
L 19.671875 0 
L 9.8125 0 
z
" id="DejaVuSans-80"/>
     <path d="M 32.171875 -5.078125 
Q 28.375 -14.84375 24.75 -17.8125 
Q 21.140625 -20.796875 15.09375 -20.796875 
L 7.90625 -20.796875 
L 7.90625 -13.28125 
L 13.1875 -13.28125 
Q 16.890625 -13.28125 18.9375 -11.515625 
Q 21 -9.765625 23.484375 -3.21875 
L 25.09375 0.875 
L 2.984375 54.6875 
L 12.5 54.6875 
L 29.59375 11.921875 
L 46.6875 54.6875 
L 56.203125 54.6875 
z
" id="DejaVuSans-121"/>
     <path d="M 25.390625 72.90625 
L 33.6875 72.90625 
L 8.296875 -9.28125 
L 0 -9.28125 
z
" id="DejaVuSans-47"/>
     <path d="M 9.8125 72.90625 
L 55.90625 72.90625 
L 55.90625 64.59375 
L 19.671875 64.59375 
L 19.671875 43.015625 
L 54.390625 43.015625 
L 54.390625 34.71875 
L 19.671875 34.71875 
L 19.671875 8.296875 
L 56.78125 8.296875 
L 56.78125 0 
L 9.8125 0 
z
" id="DejaVuSans-69"/>
     <path d="M 2.984375 54.6875 
L 12.5 54.6875 
L 29.59375 8.796875 
L 46.6875 54.6875 
L 56.203125 54.6875 
L 35.6875 0 
L 23.484375 0 
z
" id="DejaVuSans-118"/>
     <path d="M 44.28125 53.078125 
L 44.28125 44.578125 
Q 40.484375 46.53125 36.375 47.5 
Q 32.28125 48.484375 27.875 48.484375 
Q 21.1875 48.484375 17.84375 46.4375 
Q 14.5 44.390625 14.5 40.28125 
Q 14.5 37.15625 16.890625 35.375 
Q 19.28125 33.59375 26.515625 31.984375 
L 29.59375 31.296875 
Q 39.15625 29.25 43.1875 25.515625 
Q 47.21875 21.78125 47.21875 15.09375 
Q 47.21875 7.46875 41.1875 3.015625 
Q 35.15625 -1.421875 24.609375 -1.421875 
Q 20.21875 -1.421875 15.453125 -0.5625 
Q 10.6875 0.296875 5.421875 2 
L 5.421875 11.28125 
Q 10.40625 8.6875 15.234375 7.390625 
Q 20.0625 6.109375 24.8125 6.109375 
Q 31.15625 6.109375 34.5625 8.28125 
Q 37.984375 10.453125 37.984375 14.40625 
Q 37.984375 18.0625 35.515625 20.015625 
Q 33.0625 21.96875 24.703125 23.78125 
L 21.578125 24.515625 
Q 13.234375 26.265625 9.515625 29.90625 
Q 5.8125 33.546875 5.8125 39.890625 
Q 5.8125 47.609375 11.28125 51.796875 
Q 16.75 56 26.8125 56 
Q 31.78125 56 36.171875 55.265625 
Q 40.578125 54.546875 44.28125 53.078125 
z
" id="DejaVuSans-115"/>
     <path d="M 4.890625 30.90625 
L 95.125 30.90625 
L 95.125 23.875 
L 4.890625 23.875 
z
" id="DejaVuSans-8212"/>
    </defs>
    <g transform="translate(89.523519 35.64)scale(0.2592 -0.2592)">
     <use xlink:href="#DejaVuSans-80"/>
     <use x="60.287109" xlink:href="#DejaVuSans-117"/>
     <use x="123.666016" xlink:href="#DejaVuSans-114"/>
     <use x="164.779297" xlink:href="#DejaVuSans-105"/>
     <use x="192.5625" xlink:href="#DejaVuSans-116"/>
     <use x="231.771484" xlink:href="#DejaVuSans-121"/>
     <use x="290.951172" xlink:href="#DejaVuSans-47"/>
     <use x="324.642578" xlink:href="#DejaVuSans-69"/>
     <use x="387.826172" xlink:href="#DejaVuSans-102"/>
     <use x="423.03125" xlink:href="#DejaVuSans-102"/>
     <use x="458.236328" xlink:href="#DejaVuSans-105"/>
     <use x="486.019531" xlink:href="#DejaVuSans-99"/>
     <use x="541" xlink:href="#DejaVuSans-105"/>
     <use x="568.783203" xlink:href="#DejaVuSans-101"/>
     <use x="630.306641" xlink:href="#DejaVuSans-110"/>
     <use x="693.685547" xlink:href="#DejaVuSans-99"/>
     <use x="748.666016" xlink:href="#DejaVuSans-121"/>
     <use x="807.845703" xlink:href="#DejaVuSans-32"/>
     <use x="839.632812" xlink:href="#DejaVuSans-118"/>
     <use x="898.8125" xlink:href="#DejaVuSans-115"/>
     <use x="950.912109" xlink:href="#DejaVuSans-32"/>
     <use x="982.699219" xlink:href="#DejaVuSans-76"/>
     <use x="1038.412109" xlink:href="#DejaVuSans-105"/>
     <use x="1066.195312" xlink:href="#DejaVuSans-107"/>
     <use x="1124.058594" xlink:href="#DejaVuSans-101"/>
     <use x="1185.582031" xlink:href="#DejaVuSans-108"/>
     <use x="1213.365234" xlink:href="#DejaVuSans-105"/>
     <use x="1241.148438" xlink:href="#DejaVuSans-104"/>
     <use x="1304.527344" xlink:href="#DejaVuSans-111"/>
     <use x="1365.708984" xlink:href="#DejaVuSans-111"/>
     <use x="1426.890625" xlink:href="#DejaVuSans-100"/>
     <use x="1490.367188" xlink:href="#DejaVuSans-32"/>
     <use x="1522.154297" xlink:href="#DejaVuSans-67"/>
     <use x="1591.978516" xlink:href="#DejaVuSans-117"/>
     <use x="1655.357422" xlink:href="#DejaVuSans-116"/>
     <use x="1694.566406" xlink:href="#DejaVuSans-111"/>
     <use x="1755.748047" xlink:href="#DejaVuSans-102"/>
     <use x="1790.953125" xlink:href="#DejaVuSans-102"/>
     <use x="1826.158203" xlink:href="#DejaVuSans-32"/>
     <use x="1857.945312" xlink:href="#DejaVuSans-8212"/>
     <use x="1957.945312" xlink:href="#DejaVuSans-32"/>
     <use x="1989.732422" xlink:href="#DejaVuSans-116"/>
     <use x="2028.941406" xlink:href="#DejaVuSans-114"/>
     <use x="2070.054688" xlink:href="#DejaVuSans-97"/>
     <use x="2131.333984" xlink:href="#DejaVuSans-99"/>
     <use x="2186.314453" xlink:href="#DejaVuSans-107"/>
    </g>
   </g>
   <g id="legend_1">
    <g id="patch_7">
     <path d="M 271.677557 454.84 
L 489.066932 454.84 
Q 492.666932 454.84 492.666932 451.24 
L 492.666932 373.778125 
Q 492.666932 370.178125 489.066932 370.178125 
L 271.677557 370.178125 
Q 268.077557 370.178125 268.077557 373.778125 
L 268.077557 451.24 
Q 268.077557 454.84 271.677557 454.84 
z
" style="fill:#ffffff;opacity:0.8;stroke:#cccccc;stroke-linejoin:miter;"/>
    </g>
    <g id="line2d_17">
     <path d="M 275.277557 384.755313 
L 311.277557 384.755313 
" style="fill:none;stroke:#0000ff;stroke-linecap:square;stroke-width:1.5;"/>
    </g>
    <g id="line2d_18"/>
    <g id="text_16">
     <!-- Efficiency -->
     <g transform="translate(325.677557 391.055313)scale(0.18 -0.18)">
      <use xlink:href="#DejaVuSans-69"/>
      <use x="63.183594" xlink:href="#DejaVuSans-102"/>
      <use x="98.388672" xlink:href="#DejaVuSans-102"/>
      <use x="133.59375" xlink:href="#DejaVuSans-105"/>
      <use x="161.376953" xlink:href="#DejaVuSans-99"/>
      <use x="216.357422" xlink:href="#DejaVuSans-105"/>
      <use x="244.140625" xlink:href="#DejaVuSans-101"/>
      <use x="305.664062" xlink:href="#DejaVuSans-110"/>
      <use x="369.042969" xlink:href="#DejaVuSans-99"/>
      <use x="424.023438" xlink:href="#DejaVuSans-121"/>
     </g>
    </g>
    <g id="line2d_19">
     <path d="M 275.277557 411.175937 
L 311.277557 411.175937 
" style="fill:none;stroke:#ff0000;stroke-linecap:square;stroke-width:1.5;"/>
    </g>
    <g id="line2d_20"/>
    <g id="text_17">
     <!-- Purity -->
     <g transform="translate(325.677557 417.475937)scale(0.18 -0.18)">
      <use xlink:href="#DejaVuSans-80"/>
      <use x="60.287109" xlink:href="#DejaVuSans-117"/>
      <use x="123.666016" xlink:href="#DejaVuSans-114"/>
      <use x="164.779297" xlink:href="#DejaVuSans-105"/>
      <use x="192.5625" xlink:href="#DejaVuSans-116"/>
      <use x="231.771484" xlink:href="#DejaVuSans-121"/>
     </g>
    </g>
    <g id="line2d_21">
     <path d="M 275.277557 437.596562 
L 311.277557 437.596562 
" style="fill:none;stroke:#008000;stroke-linecap:square;stroke-width:1.5;"/>
    </g>
    <g id="line2d_22"/>
    <g id="text_18">
     <!-- Purity * Efficiency -->
     <defs>
      <path d="M 47.015625 60.890625 
L 29.5 51.421875 
L 47.015625 41.890625 
L 44.1875 37.109375 
L 27.78125 47.015625 
L 27.78125 28.609375 
L 22.21875 28.609375 
L 22.21875 47.015625 
L 5.8125 37.109375 
L 2.984375 41.890625 
L 20.515625 51.421875 
L 2.984375 60.890625 
L 5.8125 65.71875 
L 22.21875 55.8125 
L 22.21875 74.21875 
L 27.78125 74.21875 
L 27.78125 55.8125 
L 44.1875 65.71875 
z
" id="DejaVuSans-42"/>
     </defs>
     <g transform="translate(325.677557 443.896562)scale(0.18 -0.18)">
      <use xlink:href="#DejaVuSans-80"/>
      <use x="60.287109" xlink:href="#DejaVuSans-117"/>
      <use x="123.666016" xlink:href="#DejaVuSans-114"/>
      <use x="164.779297" xlink:href="#DejaVuSans-105"/>
      <use x="192.5625" xlink:href="#DejaVuSans-116"/>
      <use x="231.771484" xlink:href="#DejaVuSans-121"/>
      <use x="290.951172" xlink:href="#DejaVuSans-32"/>
      <use x="322.738281" xlink:href="#DejaVuSans-42"/>
      <use x="372.738281" xlink:href="#DejaVuSans-32"/>
      <use x="404.525391" xlink:href="#DejaVuSans-69"/>
      <use x="467.708984" xlink:href="#DejaVuSans-102"/>
      <use x="502.914062" xlink:href="#DejaVuSans-102"/>
      <use x="538.119141" xlink:href="#DejaVuSans-105"/>
      <use x="565.902344" xlink:href="#DejaVuSans-99"/>
      <use x="620.882812" xlink:href="#DejaVuSans-105"/>
      <use x="648.666016" xlink:href="#DejaVuSans-101"/>
      <use x="710.189453" xlink:href="#DejaVuSans-110"/>
      <use x="773.568359" xlink:href="#DejaVuSans-99"/>
      <use x="828.548828" xlink:href="#DejaVuSans-121"/>
     </g>
    </g>
   </g>
  </g>
  <g id="axes_2">
   <g id="patch_8">
    <path d="M 797.9825 463.84 
L 1372.746989 463.84 
L 1372.746989 41.64 
L 797.9825 41.64 
z
" style="fill:#ffffff;"/>
   </g>
   <g id="matplotlib.axis_3">
    <g id="xtick_7">
     <g id="line2d_23">
      <g>
       <use style="stroke:#000000;stroke-width:0.8;" x="824.108159" xlink:href="#mc30dc80c1e" y="463.84"/>
      </g>
     </g>
     <g id="text_19">
      <!-- 0.0 -->
      <g transform="translate(803.497709 490.53515)scale(0.2592 -0.2592)">
       <use xlink:href="#DejaVuSans-48"/>
       <use x="63.623047" xlink:href="#DejaVuSans-46"/>
       <use x="95.410156" xlink:href="#DejaVuSans-48"/>
      </g>
     </g>
    </g>
    <g id="xtick_8">
     <g id="line2d_24">
      <g>
       <use style="stroke:#000000;stroke-width:0.8;" x="928.610793" xlink:href="#mc30dc80c1e" y="463.84"/>
      </g>
     </g>
     <g id="text_20">
      <!-- 0.2 -->
      <g transform="translate(908.000343 490.53515)scale(0.2592 -0.2592)">
       <use xlink:href="#DejaVuSans-48"/>
       <use x="63.623047" xlink:href="#DejaVuSans-46"/>
       <use x="95.410156" xlink:href="#DejaVuSans-50"/>
      </g>
     </g>
    </g>
    <g id="xtick_9">
     <g id="line2d_25">
      <g>
       <use style="stroke:#000000;stroke-width:0.8;" x="1033.113427" xlink:href="#mc30dc80c1e" y="463.84"/>
      </g>
     </g>
     <g id="text_21">
      <!-- 0.4 -->
      <g transform="translate(1012.502977 490.53515)scale(0.2592 -0.2592)">
       <use xlink:href="#DejaVuSans-48"/>
       <use x="63.623047" xlink:href="#DejaVuSans-46"/>
       <use x="95.410156" xlink:href="#DejaVuSans-52"/>
      </g>
     </g>
    </g>
    <g id="xtick_10">
     <g id="line2d_26">
      <g>
       <use style="stroke:#000000;stroke-width:0.8;" x="1137.616061" xlink:href="#mc30dc80c1e" y="463.84"/>
      </g>
     </g>
     <g id="text_22">
      <!-- 0.6 -->
      <g transform="translate(1117.005611 490.53515)scale(0.2592 -0.2592)">
       <use xlink:href="#DejaVuSans-48"/>
       <use x="63.623047" xlink:href="#DejaVuSans-46"/>
       <use x="95.410156" xlink:href="#DejaVuSans-54"/>
      </g>
     </g>
    </g>
    <g id="xtick_11">
     <g id="line2d_27">
      <g>
       <use style="stroke:#000000;stroke-width:0.8;" x="1242.118696" xlink:href="#mc30dc80c1e" y="463.84"/>
      </g>
     </g>
     <g id="text_23">
      <!-- 0.8 -->
      <g transform="translate(1221.508246 490.53515)scale(0.2592 -0.2592)">
       <use xlink:href="#DejaVuSans-48"/>
       <use x="63.623047" xlink:href="#DejaVuSans-46"/>
       <use x="95.410156" xlink:href="#DejaVuSans-56"/>
      </g>
     </g>
    </g>
    <g id="xtick_12">
     <g id="line2d_28">
      <g>
       <use style="stroke:#000000;stroke-width:0.8;" x="1346.62133" xlink:href="#mc30dc80c1e" y="463.84"/>
      </g>
     </g>
     <g id="text_24">
      <!-- 1.0 -->
      <g transform="translate(1326.01088 490.53515)scale(0.2592 -0.2592)">
       <use xlink:href="#DejaVuSans-49"/>
       <use x="63.623047" xlink:href="#DejaVuSans-46"/>
       <use x="95.410156" xlink:href="#DejaVuSans-48"/>
      </g>
     </g>
    </g>
    <g id="text_25">
     <!-- Likelihood Cutoff -->
     <g transform="translate(976.051194 519.62085)scale(0.2592 -0.2592)">
      <use xlink:href="#DejaVuSans-76"/>
      <use x="55.712891" xlink:href="#DejaVuSans-105"/>
      <use x="83.496094" xlink:href="#DejaVuSans-107"/>
      <use x="141.359375" xlink:href="#DejaVuSans-101"/>
      <use x="202.882812" xlink:href="#DejaVuSans-108"/>
      <use x="230.666016" xlink:href="#DejaVuSans-105"/>
      <use x="258.449219" xlink:href="#DejaVuSans-104"/>
      <use x="321.828125" xlink:href="#DejaVuSans-111"/>
      <use x="383.009766" xlink:href="#DejaVuSans-111"/>
      <use x="444.191406" xlink:href="#DejaVuSans-100"/>
      <use x="507.667969" xlink:href="#DejaVuSans-32"/>
      <use x="539.455078" xlink:href="#DejaVuSans-67"/>
      <use x="609.279297" xlink:href="#DejaVuSans-117"/>
      <use x="672.658203" xlink:href="#DejaVuSans-116"/>
      <use x="711.867188" xlink:href="#DejaVuSans-111"/>
      <use x="773.048828" xlink:href="#DejaVuSans-102"/>
      <use x="808.253906" xlink:href="#DejaVuSans-102"/>
     </g>
    </g>
   </g>
   <g id="matplotlib.axis_4">
    <g id="ytick_7">
     <g id="line2d_29">
      <g>
       <use style="stroke:#000000;stroke-width:0.8;" x="797.9825" xlink:href="#m5d1e992673" y="463.84"/>
      </g>
     </g>
     <g id="text_26">
      <!-- 0.0 -->
      <g transform="translate(749.7616 473.687575)scale(0.2592 -0.2592)">
       <use xlink:href="#DejaVuSans-48"/>
       <use x="63.623047" xlink:href="#DejaVuSans-46"/>
       <use x="95.410156" xlink:href="#DejaVuSans-48"/>
      </g>
     </g>
    </g>
    <g id="ytick_8">
     <g id="line2d_30">
      <g>
       <use style="stroke:#000000;stroke-width:0.8;" x="797.9825" xlink:href="#m5d1e992673" y="379.4"/>
      </g>
     </g>
     <g id="text_27">
      <!-- 0.2 -->
      <g transform="translate(749.7616 389.247575)scale(0.2592 -0.2592)">
       <use xlink:href="#DejaVuSans-48"/>
       <use x="63.623047" xlink:href="#DejaVuSans-46"/>
       <use x="95.410156" xlink:href="#DejaVuSans-50"/>
      </g>
     </g>
    </g>
    <g id="ytick_9">
     <g id="line2d_31">
      <g>
       <use style="stroke:#000000;stroke-width:0.8;" x="797.9825" xlink:href="#m5d1e992673" y="294.96"/>
      </g>
     </g>
     <g id="text_28">
      <!-- 0.4 -->
      <g transform="translate(749.7616 304.807575)scale(0.2592 -0.2592)">
       <use xlink:href="#DejaVuSans-48"/>
       <use x="63.623047" xlink:href="#DejaVuSans-46"/>
       <use x="95.410156" xlink:href="#DejaVuSans-52"/>
      </g>
     </g>
    </g>
    <g id="ytick_10">
     <g id="line2d_32">
      <g>
       <use style="stroke:#000000;stroke-width:0.8;" x="797.9825" xlink:href="#m5d1e992673" y="210.52"/>
      </g>
     </g>
     <g id="text_29">
      <!-- 0.6 -->
      <g transform="translate(749.7616 220.367575)scale(0.2592 -0.2592)">
       <use xlink:href="#DejaVuSans-48"/>
       <use x="63.623047" xlink:href="#DejaVuSans-46"/>
       <use x="95.410156" xlink:href="#DejaVuSans-54"/>
      </g>
     </g>
    </g>
    <g id="ytick_11">
     <g id="line2d_33">
      <g>
       <use style="stroke:#000000;stroke-width:0.8;" x="797.9825" xlink:href="#m5d1e992673" y="126.08"/>
      </g>
     </g>
     <g id="text_30">
      <!-- 0.8 -->
      <g transform="translate(749.7616 135.927575)scale(0.2592 -0.2592)">
       <use xlink:href="#DejaVuSans-48"/>
       <use x="63.623047" xlink:href="#DejaVuSans-46"/>
       <use x="95.410156" xlink:href="#DejaVuSans-56"/>
      </g>
     </g>
    </g>
    <g id="ytick_12">
     <g id="line2d_34">
      <g>
       <use style="stroke:#000000;stroke-width:0.8;" x="797.9825" xlink:href="#m5d1e992673" y="41.64"/>
      </g>
     </g>
     <g id="text_31">
      <!-- 1.0 -->
      <g transform="translate(749.7616 51.487575)scale(0.2592 -0.2592)">
       <use xlink:href="#DejaVuSans-49"/>
       <use x="63.623047" xlink:href="#DejaVuSans-46"/>
       <use x="95.410156" xlink:href="#DejaVuSans-48"/>
      </g>
     </g>
    </g>
    <g id="text_32">
     <!-- Fraction -->
     <g transform="translate(740.37105 305.400125)rotate(-90)scale(0.2592 -0.2592)">
      <use xlink:href="#DejaVuSans-70"/>
      <use x="57.410156" xlink:href="#DejaVuSans-114"/>
      <use x="98.523438" xlink:href="#DejaVuSans-97"/>
      <use x="159.802734" xlink:href="#DejaVuSans-99"/>
      <use x="214.783203" xlink:href="#DejaVuSans-116"/>
      <use x="253.992188" xlink:href="#DejaVuSans-105"/>
      <use x="281.775391" xlink:href="#DejaVuSans-111"/>
      <use x="342.957031" xlink:href="#DejaVuSans-110"/>
     </g>
    </g>
   </g>
   <g id="line2d_35">
    <path clip-path="url(#p6009bb0d00)" d="M 824.108159 41.64 
L 824.630672 48.003391 
L 825.153185 49.078584 
L 827.243238 50.636518 
L 828.288264 51.097315 
L 829.33329 51.426456 
L 831.423343 52.194451 
L 833.513396 52.589421 
L 835.080935 53.07216 
L 837.693501 53.79627 
L 839.261041 53.971812 
L 842.39612 54.542323 
L 843.963659 54.717865 
L 853.891409 56.275799 
L 857.549002 56.69271 
L 863.81916 57.394878 
L 867.999265 57.65819 
L 872.701884 58.162873 
L 874.269423 58.228701 
L 875.314449 58.404243 
L 876.881989 58.513957 
L 880.017068 58.733384 
L 881.584607 58.908926 
L 882.629634 58.996697 
L 884.719686 59.150296 
L 886.287226 59.238067 
L 887.332252 59.369723 
L 889.944818 59.567208 
L 892.557384 59.786635 
L 895.16995 60.006062 
L 898.305029 60.291317 
L 898.827542 94.763341 
L 900.395082 94.873054 
L 908.755292 95.465508 
L 911.890371 95.706878 
L 921.818122 96.430988 
L 926.52074 96.738186 
L 928.08828 96.913728 
L 931.745872 97.155098 
L 932.790898 97.242869 
L 936.44849 97.462296 
L 941.673622 97.57201 
L 944.286188 97.769494 
L 946.898754 97.988922 
L 952.123886 98.318062 
L 957.87153 98.669146 
L 966.231741 99.283542 
L 968.844307 99.393256 
L 971.979386 99.700454 
L 992.3574 100.665934 
L 993.924939 100.753705 
L 1000.717611 101.214502 
L 1008.555308 101.609471 
L 1010.122848 101.763071 
L 1017.960545 102.311639 
L 1024.230703 102.465238 
L 1026.320756 102.553009 
L 1028.933322 102.662722 
L 1055.05898 103.869572 
L 1057.671546 103.979286 
L 1061.851652 104.264541 
L 1066.55427 104.57174 
L 1068.644323 104.65951 
L 1071.256889 104.769224 
L 1090.067363 105.646933 
L 1092.157416 105.910246 
L 1106.787784 106.59047 
L 1108.877837 106.83184 
L 1124.553232 107.55595 
L 1126.643285 107.819263 
L 1131.868417 108.126461 
L 1133.958469 108.28006 
L 1137.093548 108.433659 
L 1139.706114 108.52143 
L 1140.75114 108.631144 
L 1142.841193 108.740858 
L 1144.408733 108.960285 
L 1147.021299 109.069998 
L 1150.156378 109.289426 
L 1151.201404 109.464968 
L 1156.949049 109.772166 
L 1159.039101 110.057421 
L 1160.606641 110.232963 
L 1180.462142 111.966438 
L 1181.507168 112.120037 
L 1187.254813 112.471121 
L 1189.344865 112.558892 
L 1191.434918 112.668606 
L 1193.524971 112.822205 
L 1194.569997 112.931918 
L 1196.137537 113.041632 
L 1199.272616 113.283002 
L 1200.317642 113.502429 
L 1205.020261 113.809627 
L 1220.695656 115.696702 
L 1222.263195 115.850301 
L 1230.623406 116.837724 
L 1231.145919 116.837724 
L 1231.668432 116.96938 
L 1232.190946 116.96938 
L 1234.280998 117.408234 
L 1236.371051 117.583776 
L 1244.731262 118.878397 
L 1247.343827 119.273366 
L 1248.388854 119.426965 
L 1248.911367 119.448908 
L 1249.956393 119.712221 
L 1252.046446 119.909705 
L 1253.091472 120.216903 
L 1254.659012 120.414388 
L 1257.271578 121.028784 
L 1258.316604 121.204326 
L 1263.541736 122.191749 
L 1265.631788 122.696432 
L 1269.289381 123.552198 
L 1271.379433 123.925224 
L 1276.604565 124.912647 
L 1278.694618 125.307616 
L 1279.217131 125.329559 
L 1279.739644 125.527043 
L 1281.307184 125.812299 
L 1283.919749 126.251153 
L 1284.964776 126.470581 
L 1286.009802 126.821664 
L 1288.099855 127.282461 
L 1292.802473 128.55514 
L 1293.324987 128.620968 
L 1293.8475 128.88428 
L 1294.892526 129.169536 
L 1296.982579 129.783932 
L 1297.505092 129.827818 
L 1298.027605 130.113073 
L 1298.550118 130.200844 
L 1299.595145 130.57387 
L 1300.640171 130.771355 
L 1304.820276 132.26346 
L 1308.477869 133.71168 
L 1311.090434 134.523561 
L 1312.657974 135.269614 
L 1313.180487 135.357385 
L 1315.27054 136.257037 
L 1316.315566 137.09086 
L 1316.838079 137.420001 
L 1318.405619 138.05634 
L 1319.450645 138.604908 
L 1323.630751 140.71141 
L 1325.19829 141.786604 
L 1326.243316 142.247401 
L 1326.76583 142.620427 
L 1327.810856 143.103167 
L 1330.945935 145.319383 
L 1333.558501 147.996395 
L 1334.081014 148.67662 
L 1334.603527 149.027703 
L 1337.738606 152.736024 
L 1338.261119 153.525962 
L 1339.306146 155.347209 
L 1340.351172 156.949028 
L 1342.441225 161.205917 
L 1343.486251 163.926815 
L 1344.008764 165.396977 
L 1344.531277 167.284052 
L 1345.053791 169.829408 
L 1345.576304 173.888812 
L 1346.098817 179.857234 
L 1346.62133 463.84 
L 1346.62133 463.84 
" style="fill:none;stroke:#0000ff;stroke-linecap:square;stroke-width:1.5;"/>
   </g>
   <g id="line2d_36">
    <path clip-path="url(#p6009bb0d00)" d="M 824.108159 371.332398 
L 824.630672 300.053953 
L 825.153185 297.352238 
L 825.675698 295.518013 
L 826.720724 293.307968 
L 827.765751 291.733343 
L 829.33329 289.992941 
L 830.378317 289.144573 
L 832.990882 287.328655 
L 836.125962 285.942413 
L 839.261041 284.797754 
L 840.306067 284.483783 
L 842.39612 283.816761 
L 849.188791 282.167422 
L 861.206594 280.038055 
L 863.296646 279.742434 
L 866.954239 279.231587 
L 873.74691 278.388226 
L 875.836963 278.221483 
L 878.449528 277.966103 
L 883.67466 277.416257 
L 885.2422 277.257808 
L 887.332252 277.08152 
L 889.944818 276.926005 
L 898.305029 276.391476 
L 898.827542 207.110164 
L 901.962621 206.462593 
L 904.052674 206.058996 
L 912.935398 205.033437 
L 915.547964 204.791534 
L 916.59299 204.588686 
L 920.773095 204.232113 
L 922.863148 203.844201 
L 923.908174 203.714936 
L 925.475714 203.406806 
L 930.178332 203.024901 
L 931.223359 202.9041 
L 933.313411 202.797325 
L 934.880951 202.591332 
L 936.971004 202.370715 
L 941.673622 202.002274 
L 945.331214 201.670462 
L 946.898754 201.461954 
L 948.988807 201.313863 
L 963.619175 199.740561 
L 965.186715 199.627081 
L 972.501899 199.113501 
L 974.069439 198.871011 
L 979.294571 198.343679 
L 980.339597 198.204431 
L 981.907136 198.119048 
L 985.042215 197.849826 
L 987.132268 197.709898 
L 990.267347 197.4042 
L 991.312373 197.328866 
L 992.3574 197.189912 
L 1006.987769 196.081266 
L 1009.600334 195.852293 
L 1025.27573 194.399726 
L 1027.365782 194.183009 
L 1033.63594 193.576804 
L 1036.248506 193.395873 
L 1039.906098 193.041022 
L 1043.563691 192.77094 
L 1046.176256 192.609686 
L 1049.311335 192.306413 
L 1051.923901 192.135981 
L 1055.05898 191.755187 
L 1059.239086 191.482377 
L 1069.689349 190.744027 
L 1078.04956 189.999553 
L 1083.797205 189.427636 
L 1087.454797 189.010269 
L 1091.634902 188.692363 
L 1108.877837 187.36918 
L 1112.012916 187.170481 
L 1118.283074 186.46938 
L 1124.553232 185.837591 
L 1127.688311 185.626391 
L 1131.868417 185.197969 
L 1135.003496 185.029329 
L 1137.093548 184.779669 
L 1141.796167 184.347468 
L 1144.408733 184.234718 
L 1145.976272 184.057243 
L 1149.111351 183.909257 
L 1151.201404 183.749218 
L 1157.471562 183.16208 
L 1166.354286 182.384992 
L 1170.534391 182.069563 
L 1172.101931 181.864638 
L 1174.191983 181.711761 
L 1176.804549 181.293748 
L 1183.074707 180.688962 
L 1184.642247 180.439422 
L 1185.687273 180.242977 
L 1189.867379 179.860344 
L 1191.434918 179.698335 
L 1205.542774 178.309414 
L 1207.110313 178.234118 
L 1209.722879 177.926225 
L 1210.767905 177.771503 
L 1212.335445 177.635039 
L 1214.425498 177.363875 
L 1218.08309 176.995488 
L 1221.218169 176.548428 
L 1222.785708 176.415536 
L 1226.443301 175.954875 
L 1227.488327 175.884573 
L 1229.57838 175.508293 
L 1231.145919 175.356125 
L 1232.190946 175.191198 
L 1237.93859 174.696081 
L 1238.461104 174.537483 
L 1241.073669 174.238423 
L 1244.208748 173.877201 
L 1245.776288 173.594814 
L 1247.343827 173.288392 
L 1248.388854 173.188632 
L 1251.523933 172.613775 
L 1254.136499 172.368388 
L 1255.704038 172.241926 
L 1257.794091 171.68149 
L 1259.36163 171.503026 
L 1264.586762 170.676442 
L 1268.244354 170.136475 
L 1270.334407 169.671974 
L 1271.379433 169.536792 
L 1272.946973 169.154795 
L 1275.559539 168.592306 
L 1280.78467 167.193253 
L 1282.874723 166.765605 
L 1283.919749 166.438462 
L 1284.442263 166.237562 
L 1284.964776 166.209326 
L 1287.577342 165.46874 
L 1288.622368 165.253959 
L 1289.144881 164.93769 
L 1291.234934 164.130123 
L 1292.27996 163.782949 
L 1293.324987 163.521082 
L 1294.370013 163.121518 
L 1296.460066 162.658407 
L 1299.072631 161.998982 
L 1306.910329 159.476404 
L 1307.955355 159.165223 
L 1313.180487 156.833928 
L 1314.225513 156.5986 
L 1314.748027 156.22008 
L 1315.793053 155.825721 
L 1316.838079 155.617632 
L 1318.405619 154.838551 
L 1318.928132 154.647762 
L 1319.973158 153.912763 
L 1320.495671 153.744631 
L 1321.540698 152.99546 
L 1323.108237 152.179944 
L 1325.19829 151.036901 
L 1327.288343 149.435745 
L 1327.810856 149.10635 
L 1328.333369 148.614893 
L 1328.855882 148.315174 
L 1329.900909 147.353104 
L 1331.468448 146.209184 
L 1333.558501 144.192051 
L 1336.171067 142.047821 
L 1339.306146 138.238804 
L 1339.828659 137.432691 
L 1340.351172 136.336439 
L 1340.873685 135.653194 
L 1341.396198 134.698455 
L 1341.918712 133.985082 
L 1343.486251 130.662771 
L 1344.531277 127.419211 
L 1345.053791 125.398014 
L 1345.576304 122.536268 
L 1346.098817 117.988212 
L 1346.098817 117.988212 
" style="fill:none;stroke:#ff0000;stroke-linecap:square;stroke-width:1.5;"/>
   </g>
   <g id="line2d_37">
    <path clip-path="url(#p6009bb0d00)" d="M 824.108159 371.332398 
L 824.630672 302.522533 
L 825.153185 300.285523 
L 825.675698 298.649829 
L 826.720724 296.782245 
L 827.765751 295.516988 
L 829.33329 294.022658 
L 830.378317 293.375542 
L 830.90083 293.055398 
L 831.423343 292.875411 
L 832.990882 291.84212 
L 835.603448 290.995004 
L 836.648475 290.794076 
L 839.261041 290.027303 
L 840.306067 289.825039 
L 846.053712 288.550222 
L 847.098738 288.373523 
L 851.278843 287.925528 
L 852.32387 287.776163 
L 853.368896 287.710824 
L 854.936436 287.44706 
L 870.089318 285.91115 
L 872.17937 285.866013 
L 873.74691 285.67483 
L 874.791936 285.648406 
L 876.359476 285.611938 
L 880.017068 285.282049 
L 881.584607 285.244889 
L 883.152147 285.145459 
L 898.305029 284.672296 
L 898.827542 239.413211 
L 900.395082 239.262457 
L 901.440108 239.111282 
L 903.007647 238.824494 
L 907.710266 238.481474 
L 908.232779 238.523172 
L 910.322832 238.266734 
L 911.890371 238.242988 
L 917.115503 238.029957 
L 918.160529 237.992808 
L 919.728069 237.972347 
L 928.610793 237.255302 
L 930.178332 237.238159 
L 931.745872 237.199789 
L 932.790898 237.232842 
L 947.421267 236.492411 
L 948.466293 236.501636 
L 956.303991 235.986028 
L 963.096662 235.741859 
L 965.186715 235.6867 
L 970.93436 235.575663 
L 971.979386 235.590868 
L 975.114465 235.322711 
L 978.249544 235.118978 
L 996.537505 234.354971 
L 997.582532 234.362097 
L 1000.195097 234.229965 
L 1002.28515 234.201735 
L 1008.555308 233.975252 
L 1009.600334 234.000951 
L 1015.347979 233.819534 
L 1017.960545 233.768881 
L 1020.050598 233.676108 
L 1025.798243 233.192838 
L 1047.743796 232.221856 
L 1053.491441 231.955115 
L 1055.581494 231.869741 
L 1061.851652 231.738411 
L 1064.986731 231.756487 
L 1067.599296 231.708547 
L 1071.779402 231.373888 
L 1082.229665 230.929537 
L 1083.797205 230.829803 
L 1087.97731 230.595332 
L 1089.022337 230.521572 
L 1092.157416 230.540625 
L 1093.724955 230.51518 
L 1095.292495 230.528255 
L 1097.90506 230.409249 
L 1103.652705 230.068329 
L 1105.742758 230.01517 
L 1107.310298 230.008372 
L 1107.832811 230.086193 
L 1110.96789 229.956444 
L 1113.057942 229.979686 
L 1116.715535 229.689694 
L 1118.805587 229.520144 
L 1119.850614 229.45501 
L 1125.075745 229.280177 
L 1130.300877 229.11419 
L 1131.868417 229.077464 
L 1133.435956 229.107867 
L 1142.31868 228.729156 
L 1144.408733 228.818108 
L 1145.976272 228.683473 
L 1152.24643 228.696671 
L 1157.471562 228.514591 
L 1165.30926 228.428661 
L 1166.354286 228.418925 
L 1167.921825 228.370124 
L 1168.966852 228.409063 
L 1170.011878 228.408969 
L 1180.462142 228.071629 
L 1182.029681 228.139387 
L 1183.074707 228.000983 
L 1184.642247 227.852054 
L 1185.16476 227.723456 
L 1188.299839 227.720695 
L 1190.389892 227.492212 
L 1190.912405 227.560382 
L 1193.524971 227.369366 
L 1195.09251 227.307986 
L 1198.750103 227.263607 
L 1203.452721 227.264871 
L 1205.542774 227.161693 
L 1207.110313 227.247715 
L 1217.560577 227.13752 
L 1220.173143 227.069133 
L 1221.740682 226.934028 
L 1223.830735 227.015387 
L 1225.920787 226.957834 
L 1231.668432 226.733247 
L 1232.713459 226.749169 
L 1233.758485 226.783233 
L 1234.280998 226.86146 
L 1236.371051 226.79344 
L 1238.461104 226.801687 
L 1242.641209 226.858339 
L 1243.686235 226.901978 
L 1245.253775 226.822171 
L 1247.343827 226.714492 
L 1247.866341 226.791778 
L 1249.43388 226.678795 
L 1250.478907 226.692517 
L 1251.523933 226.572586 
L 1252.046446 226.549594 
L 1252.568959 226.707201 
L 1260.92917 226.709874 
L 1263.019223 226.608287 
L 1265.109275 226.847969 
L 1266.154302 226.845718 
L 1268.244354 227.042392 
L 1268.766868 226.956071 
L 1269.811894 226.925345 
L 1270.334407 226.836064 
L 1271.379433 226.895402 
L 1273.991999 226.654461 
L 1275.559539 226.702748 
L 1276.604565 226.593925 
L 1278.172105 226.46441 
L 1279.217131 226.251257 
L 1280.262157 226.318158 
L 1280.78467 226.226588 
L 1281.829697 226.228155 
L 1283.397236 226.144205 
L 1284.442263 225.925094 
L 1285.487289 226.016546 
L 1288.099855 225.921416 
L 1288.622368 225.930193 
L 1289.144881 225.755867 
L 1294.370013 225.325123 
L 1295.415039 225.411093 
L 1299.595145 225.442959 
L 1300.640171 225.253451 
L 1302.20771 225.318309 
L 1302.730224 225.181962 
L 1307.432842 225.486575 
L 1307.955355 225.544136 
L 1309.000382 225.40072 
L 1311.090434 225.100694 
L 1312.657974 225.085549 
L 1313.180487 224.981266 
L 1314.225513 225.149472 
L 1315.27054 224.976756 
L 1316.838079 225.540746 
L 1317.883106 225.441616 
L 1318.405619 225.404133 
L 1318.928132 225.497956 
L 1319.973158 225.285747 
L 1320.495671 225.381964 
L 1321.540698 225.09666 
L 1322.063211 225.193824 
L 1324.153264 225.21311 
L 1325.19829 225.234361 
L 1326.243316 224.951955 
L 1326.76583 224.936717 
L 1327.288343 224.780998 
L 1329.378395 224.594729 
L 1329.900909 224.463991 
L 1331.990961 224.643872 
L 1332.513474 224.611317 
L 1333.035988 224.770791 
L 1333.558501 224.714561 
L 1334.081014 224.914019 
L 1334.603527 224.865819 
L 1335.12604 225.090279 
L 1338.261119 225.582705 
L 1338.783632 225.923716 
L 1339.828659 225.917724 
L 1340.351172 225.782477 
L 1341.396198 226.302476 
L 1344.531277 227.535912 
L 1345.053791 228.156607 
L 1345.576304 229.445347 
L 1346.098817 231.211039 
L 1346.098817 231.211039 
" style="fill:none;stroke:#008000;stroke-linecap:square;stroke-width:1.5;"/>
   </g>
   <g id="line2d_38">
    <path clip-path="url(#p6009bb0d00)" d="M 1329.900909 463.84 
L 1329.900909 41.64 
" style="fill:none;stroke:#1f77b4;stroke-linecap:square;stroke-width:1.5;"/>
   </g>
   <g id="patch_9">
    <path d="M 797.9825 463.84 
L 797.9825 41.64 
" style="fill:none;stroke:#000000;stroke-linecap:square;stroke-linejoin:miter;stroke-width:0.8;"/>
   </g>
   <g id="patch_10">
    <path d="M 1372.746989 463.84 
L 1372.746989 41.64 
" style="fill:none;stroke:#000000;stroke-linecap:square;stroke-linejoin:miter;stroke-width:0.8;"/>
   </g>
   <g id="patch_11">
    <path d="M 797.9825 463.84 
L 1372.746989 463.84 
" style="fill:none;stroke:#000000;stroke-linecap:square;stroke-linejoin:miter;stroke-width:0.8;"/>
   </g>
   <g id="patch_12">
    <path d="M 797.9825 41.64 
L 1372.746989 41.64 
" style="fill:none;stroke:#000000;stroke-linecap:square;stroke-linejoin:miter;stroke-width:0.8;"/>
   </g>
   <g id="text_33">
    <!-- Purity/Efficiency vs Likelihood Cutoff — shower -->
    <defs>
     <path d="M 4.203125 54.6875 
L 13.1875 54.6875 
L 24.421875 12.015625 
L 35.59375 54.6875 
L 46.1875 54.6875 
L 57.421875 12.015625 
L 68.609375 54.6875 
L 77.59375 54.6875 
L 63.28125 0 
L 52.6875 0 
L 40.921875 44.828125 
L 29.109375 0 
L 18.5 0 
z
" id="DejaVuSans-119"/>
    </defs>
    <g transform="translate(780.701469 35.64)scale(0.2592 -0.2592)">
     <use xlink:href="#DejaVuSans-80"/>
     <use x="60.287109" xlink:href="#DejaVuSans-117"/>
     <use x="123.666016" xlink:href="#DejaVuSans-114"/>
     <use x="164.779297" xlink:href="#DejaVuSans-105"/>
     <use x="192.5625" xlink:href="#DejaVuSans-116"/>
     <use x="231.771484" xlink:href="#DejaVuSans-121"/>
     <use x="290.951172" xlink:href="#DejaVuSans-47"/>
     <use x="324.642578" xlink:href="#DejaVuSans-69"/>
     <use x="387.826172" xlink:href="#DejaVuSans-102"/>
     <use x="423.03125" xlink:href="#DejaVuSans-102"/>
     <use x="458.236328" xlink:href="#DejaVuSans-105"/>
     <use x="486.019531" xlink:href="#DejaVuSans-99"/>
     <use x="541" xlink:href="#DejaVuSans-105"/>
     <use x="568.783203" xlink:href="#DejaVuSans-101"/>
     <use x="630.306641" xlink:href="#DejaVuSans-110"/>
     <use x="693.685547" xlink:href="#DejaVuSans-99"/>
     <use x="748.666016" xlink:href="#DejaVuSans-121"/>
     <use x="807.845703" xlink:href="#DejaVuSans-32"/>
     <use x="839.632812" xlink:href="#DejaVuSans-118"/>
     <use x="898.8125" xlink:href="#DejaVuSans-115"/>
     <use x="950.912109" xlink:href="#DejaVuSans-32"/>
     <use x="982.699219" xlink:href="#DejaVuSans-76"/>
     <use x="1038.412109" xlink:href="#DejaVuSans-105"/>
     <use x="1066.195312" xlink:href="#DejaVuSans-107"/>
     <use x="1124.058594" xlink:href="#DejaVuSans-101"/>
     <use x="1185.582031" xlink:href="#DejaVuSans-108"/>
     <use x="1213.365234" xlink:href="#DejaVuSans-105"/>
     <use x="1241.148438" xlink:href="#DejaVuSans-104"/>
     <use x="1304.527344" xlink:href="#DejaVuSans-111"/>
     <use x="1365.708984" xlink:href="#DejaVuSans-111"/>
     <use x="1426.890625" xlink:href="#DejaVuSans-100"/>
     <use x="1490.367188" xlink:href="#DejaVuSans-32"/>
     <use x="1522.154297" xlink:href="#DejaVuSans-67"/>
     <use x="1591.978516" xlink:href="#DejaVuSans-117"/>
     <use x="1655.357422" xlink:href="#DejaVuSans-116"/>
     <use x="1694.566406" xlink:href="#DejaVuSans-111"/>
     <use x="1755.748047" xlink:href="#DejaVuSans-102"/>
     <use x="1790.953125" xlink:href="#DejaVuSans-102"/>
     <use x="1826.158203" xlink:href="#DejaVuSans-32"/>
     <use x="1857.945312" xlink:href="#DejaVuSans-8212"/>
     <use x="1957.945312" xlink:href="#DejaVuSans-32"/>
     <use x="1989.732422" xlink:href="#DejaVuSans-115"/>
     <use x="2041.832031" xlink:href="#DejaVuSans-104"/>
     <use x="2105.210938" xlink:href="#DejaVuSans-111"/>
     <use x="2166.392578" xlink:href="#DejaVuSans-119"/>
     <use x="2248.179688" xlink:href="#DejaVuSans-101"/>
     <use x="2309.703125" xlink:href="#DejaVuSans-114"/>
    </g>
   </g>
   <g id="legend_2">
    <g id="patch_13">
     <path d="M 976.670057 454.84 
L 1194.059432 454.84 
Q 1197.659432 454.84 1197.659432 451.24 
L 1197.659432 373.778125 
Q 1197.659432 370.178125 1194.059432 370.178125 
L 976.670057 370.178125 
Q 973.070057 370.178125 973.070057 373.778125 
L 973.070057 451.24 
Q 973.070057 454.84 976.670057 454.84 
z
" style="fill:#ffffff;opacity:0.8;stroke:#cccccc;stroke-linejoin:miter;"/>
    </g>
    <g id="line2d_39">
     <path d="M 980.270057 384.755313 
L 1016.270057 384.755313 
" style="fill:none;stroke:#0000ff;stroke-linecap:square;stroke-width:1.5;"/>
    </g>
    <g id="line2d_40"/>
    <g id="text_34">
     <!-- Efficiency -->
     <g transform="translate(1030.670057 391.055313)scale(0.18 -0.18)">
      <use xlink:href="#DejaVuSans-69"/>
      <use x="63.183594" xlink:href="#DejaVuSans-102"/>
      <use x="98.388672" xlink:href="#DejaVuSans-102"/>
      <use x="133.59375" xlink:href="#DejaVuSans-105"/>
      <use x="161.376953" xlink:href="#DejaVuSans-99"/>
      <use x="216.357422" xlink:href="#DejaVuSans-105"/>
      <use x="244.140625" xlink:href="#DejaVuSans-101"/>
      <use x="305.664062" xlink:href="#DejaVuSans-110"/>
      <use x="369.042969" xlink:href="#DejaVuSans-99"/>
      <use x="424.023438" xlink:href="#DejaVuSans-121"/>
     </g>
    </g>
    <g id="line2d_41">
     <path d="M 980.270057 411.175937 
L 1016.270057 411.175937 
" style="fill:none;stroke:#ff0000;stroke-linecap:square;stroke-width:1.5;"/>
    </g>
    <g id="line2d_42"/>
    <g id="text_35">
     <!-- Purity -->
     <g transform="translate(1030.670057 417.475937)scale(0.18 -0.18)">
      <use xlink:href="#DejaVuSans-80"/>
      <use x="60.287109" xlink:href="#DejaVuSans-117"/>
      <use x="123.666016" xlink:href="#DejaVuSans-114"/>
      <use x="164.779297" xlink:href="#DejaVuSans-105"/>
      <use x="192.5625" xlink:href="#DejaVuSans-116"/>
      <use x="231.771484" xlink:href="#DejaVuSans-121"/>
     </g>
    </g>
    <g id="line2d_43">
     <path d="M 980.270057 437.596562 
L 1016.270057 437.596562 
" style="fill:none;stroke:#008000;stroke-linecap:square;stroke-width:1.5;"/>
    </g>
    <g id="line2d_44"/>
    <g id="text_36">
     <!-- Purity * Efficiency -->
     <g transform="translate(1030.670057 443.896562)scale(0.18 -0.18)">
      <use xlink:href="#DejaVuSans-80"/>
      <use x="60.287109" xlink:href="#DejaVuSans-117"/>
      <use x="123.666016" xlink:href="#DejaVuSans-114"/>
      <use x="164.779297" xlink:href="#DejaVuSans-105"/>
      <use x="192.5625" xlink:href="#DejaVuSans-116"/>
      <use x="231.771484" xlink:href="#DejaVuSans-121"/>
      <use x="290.951172" xlink:href="#DejaVuSans-32"/>
      <use x="322.738281" xlink:href="#DejaVuSans-42"/>
      <use x="372.738281" xlink:href="#DejaVuSans-32"/>
      <use x="404.525391" xlink:href="#DejaVuSans-69"/>
      <use x="467.708984" xlink:href="#DejaVuSans-102"/>
      <use x="502.914062" xlink:href="#DejaVuSans-102"/>
      <use x="538.119141" xlink:href="#DejaVuSans-105"/>
      <use x="565.902344" xlink:href="#DejaVuSans-99"/>
      <use x="620.882812" xlink:href="#DejaVuSans-105"/>
      <use x="648.666016" xlink:href="#DejaVuSans-101"/>
      <use x="710.189453" xlink:href="#DejaVuSans-110"/>
      <use x="773.568359" xlink:href="#DejaVuSans-99"/>
      <use x="828.548828" xlink:href="#DejaVuSans-121"/>
     </g>
    </g>
   </g>
  </g>
 </g>
 <defs>
  <clipPath id="p3d9e342ec2">
   <rect height="422.2" width="574.764489" x="92.99" y="41.64"/>
  </clipPath>
  <clipPath id="p6009bb0d00">
   <rect height="422.2" width="574.764489" x="797.9825" y="41.64"/>
  </clipPath>
 </defs>
</svg>
