<?xml version="1.0" encoding="utf-8" standalone="no"?>
<!DOCTYPE svg PUBLIC "-//W3C//DTD SVG 1.1//EN"
  "http://www.w3.org/Graphics/SVG/1.1/DTD/svg11.dtd">
<!-- Created with matplotlib (https://matplotlib.org/) -->
<svg height="540pt" version="1.1" viewBox="0 0 1440 540" width="1440pt" xmlns="http://www.w3.org/2000/svg" xmlns:xlink="http://www.w3.org/1999/xlink">
 <defs>
  <style type="text/css">
*{stroke-linecap:butt;stroke-linejoin:round;}
  </style>
 </defs>
 <g id="figure_1">
  <g id="patch_1">
   <path d="M 0 540 
L 1440 540 
L 1440 0 
L 0 0 
z
" style="fill:#ffffff;"/>
  </g>
  <g id="axes_1">
   <g id="patch_2">
    <path d="M 122.012386 463.84 
L 592.272614 463.84 
L 592.272614 41.64 
L 122.012386 41.64 
z
" style="fill:#ffffff;"/>
   </g>
   <g id="matplotlib.axis_1">
    <g id="xtick_1">
     <g id="line2d_1">
      <defs>
       <path d="M 0 0 
L 0 3.5 
" id="mf0298a0754" style="stroke:#000000;stroke-width:0.8;"/>
      </defs>
      <g>
       <use style="stroke:#000000;stroke-width:0.8;" x="143.387851" xlink:href="#mf0298a0754" y="463.84"/>
      </g>
     </g>
     <g id="text_1">
      <!-- 0.0 -->
      <defs>
       <path d="M 31.78125 66.40625 
Q 24.171875 66.40625 20.328125 58.90625 
Q 16.5 51.421875 16.5 36.375 
Q 16.5 21.390625 20.328125 13.890625 
Q 24.171875 6.390625 31.78125 6.390625 
Q 39.453125 6.390625 43.28125 13.890625 
Q 47.125 21.390625 47.125 36.375 
Q 47.125 51.421875 43.28125 58.90625 
Q 39.453125 66.40625 31.78125 66.40625 
z
M 31.78125 74.21875 
Q 44.046875 74.21875 50.515625 64.515625 
Q 56.984375 54.828125 56.984375 36.375 
Q 56.984375 17.96875 50.515625 8.265625 
Q 44.046875 -1.421875 31.78125 -1.421875 
Q 19.53125 -1.421875 13.0625 8.265625 
Q 6.59375 17.96875 6.59375 36.375 
Q 6.59375 54.828125 13.0625 64.515625 
Q 19.53125 74.21875 31.78125 74.21875 
z
" id="DejaVuSans-48"/>
       <path d="M 10.6875 12.40625 
L 21 12.40625 
L 21 0 
L 10.6875 0 
z
" id="DejaVuSans-46"/>
      </defs>
      <g transform="translate(122.777401 490.53515)scale(0.2592 -0.2592)">
       <use xlink:href="#DejaVuSans-48"/>
       <use x="63.623047" xlink:href="#DejaVuSans-46"/>
       <use x="95.410156" xlink:href="#DejaVuSans-48"/>
      </g>
     </g>
    </g>
    <g id="xtick_2">
     <g id="line2d_2">
      <g>
       <use style="stroke:#000000;stroke-width:0.8;" x="228.889711" xlink:href="#mf0298a0754" y="463.84"/>
      </g>
     </g>
     <g id="text_2">
      <!-- 0.2 -->
      <defs>
       <path d="M 19.1875 8.296875 
L 53.609375 8.296875 
L 53.609375 0 
L 7.328125 0 
L 7.328125 8.296875 
Q 12.9375 14.109375 22.625 23.890625 
Q 32.328125 33.6875 34.8125 36.53125 
Q 39.546875 41.84375 41.421875 45.53125 
Q 43.3125 49.21875 43.3125 52.78125 
Q 43.3125 58.59375 39.234375 62.25 
Q 35.15625 65.921875 28.609375 65.921875 
Q 23.96875 65.921875 18.8125 64.3125 
Q 13.671875 62.703125 7.8125 59.421875 
L 7.8125 69.390625 
Q 13.765625 71.78125 18.9375 73 
Q 24.125 74.21875 28.421875 74.21875 
Q 39.75 74.21875 46.484375 68.546875 
Q 53.21875 62.890625 53.21875 53.421875 
Q 53.21875 48.921875 51.53125 44.890625 
Q 49.859375 40.875 45.40625 35.40625 
Q 44.1875 33.984375 37.640625 27.21875 
Q 31.109375 20.453125 19.1875 8.296875 
z
" id="DejaVuSans-50"/>
      </defs>
      <g transform="translate(208.279261 490.53515)scale(0.2592 -0.2592)">
       <use xlink:href="#DejaVuSans-48"/>
       <use x="63.623047" xlink:href="#DejaVuSans-46"/>
       <use x="95.410156" xlink:href="#DejaVuSans-50"/>
      </g>
     </g>
    </g>
    <g id="xtick_3">
     <g id="line2d_3">
      <g>
       <use style="stroke:#000000;stroke-width:0.8;" x="314.39157" xlink:href="#mf0298a0754" y="463.84"/>
      </g>
     </g>
     <g id="text_3">
      <!-- 0.4 -->
      <defs>
       <path d="M 37.796875 64.3125 
L 12.890625 25.390625 
L 37.796875 25.390625 
z
M 35.203125 72.90625 
L 47.609375 72.90625 
L 47.609375 25.390625 
L 58.015625 25.390625 
L 58.015625 17.1875 
L 47.609375 17.1875 
L 47.609375 0 
L 37.796875 0 
L 37.796875 17.1875 
L 4.890625 17.1875 
L 4.890625 26.703125 
z
" id="DejaVuSans-52"/>
      </defs>
      <g transform="translate(293.78112 490.53515)scale(0.2592 -0.2592)">
       <use xlink:href="#DejaVuSans-48"/>
       <use x="63.623047" xlink:href="#DejaVuSans-46"/>
       <use x="95.410156" xlink:href="#DejaVuSans-52"/>
      </g>
     </g>
    </g>
    <g id="xtick_4">
     <g id="line2d_4">
      <g>
       <use style="stroke:#000000;stroke-width:0.8;" x="399.89343" xlink:href="#mf0298a0754" y="463.84"/>
      </g>
     </g>
     <g id="text_4">
      <!-- 0.6 -->
      <defs>
       <path d="M 33.015625 40.375 
Q 26.375 40.375 22.484375 35.828125 
Q 18.609375 31.296875 18.609375 23.390625 
Q 18.609375 15.53125 22.484375 10.953125 
Q 26.375 6.390625 33.015625 6.390625 
Q 39.65625 6.390625 43.53125 10.953125 
Q 47.40625 15.53125 47.40625 23.390625 
Q 47.40625 31.296875 43.53125 35.828125 
Q 39.65625 40.375 33.015625 40.375 
z
M 52.59375 71.296875 
L 52.59375 62.3125 
Q 48.875 64.0625 45.09375 64.984375 
Q 41.3125 65.921875 37.59375 65.921875 
Q 27.828125 65.921875 22.671875 59.328125 
Q 17.53125 52.734375 16.796875 39.40625 
Q 19.671875 43.65625 24.015625 45.921875 
Q 28.375 48.1875 33.59375 48.1875 
Q 44.578125 48.1875 50.953125 41.515625 
Q 57.328125 34.859375 57.328125 23.390625 
Q 57.328125 12.15625 50.6875 5.359375 
Q 44.046875 -1.421875 33.015625 -1.421875 
Q 20.359375 -1.421875 13.671875 8.265625 
Q 6.984375 17.96875 6.984375 36.375 
Q 6.984375 53.65625 15.1875 63.9375 
Q 23.390625 74.21875 37.203125 74.21875 
Q 40.921875 74.21875 44.703125 73.484375 
Q 48.484375 72.75 52.59375 71.296875 
z
" id="DejaVuSans-54"/>
      </defs>
      <g transform="translate(379.28298 490.53515)scale(0.2592 -0.2592)">
       <use xlink:href="#DejaVuSans-48"/>
       <use x="63.623047" xlink:href="#DejaVuSans-46"/>
       <use x="95.410156" xlink:href="#DejaVuSans-54"/>
      </g>
     </g>
    </g>
    <g id="xtick_5">
     <g id="line2d_5">
      <g>
       <use style="stroke:#000000;stroke-width:0.8;" x="485.395289" xlink:href="#mf0298a0754" y="463.84"/>
      </g>
     </g>
     <g id="text_5">
      <!-- 0.8 -->
      <defs>
       <path d="M 31.78125 34.625 
Q 24.75 34.625 20.71875 30.859375 
Q 16.703125 27.09375 16.703125 20.515625 
Q 16.703125 13.921875 20.71875 10.15625 
Q 24.75 6.390625 31.78125 6.390625 
Q 38.8125 6.390625 42.859375 10.171875 
Q 46.921875 13.96875 46.921875 20.515625 
Q 46.921875 27.09375 42.890625 30.859375 
Q 38.875 34.625 31.78125 34.625 
z
M 21.921875 38.8125 
Q 15.578125 40.375 12.03125 44.71875 
Q 8.5 49.078125 8.5 55.328125 
Q 8.5 64.0625 14.71875 69.140625 
Q 20.953125 74.21875 31.78125 74.21875 
Q 42.671875 74.21875 48.875 69.140625 
Q 55.078125 64.0625 55.078125 55.328125 
Q 55.078125 49.078125 51.53125 44.71875 
Q 48 40.375 41.703125 38.8125 
Q 48.828125 37.15625 52.796875 32.3125 
Q 56.78125 27.484375 56.78125 20.515625 
Q 56.78125 9.90625 50.3125 4.234375 
Q 43.84375 -1.421875 31.78125 -1.421875 
Q 19.734375 -1.421875 13.25 4.234375 
Q 6.78125 9.90625 6.78125 20.515625 
Q 6.78125 27.484375 10.78125 32.3125 
Q 14.796875 37.15625 21.921875 38.8125 
z
M 18.3125 54.390625 
Q 18.3125 48.734375 21.84375 45.5625 
Q 25.390625 42.390625 31.78125 42.390625 
Q 38.140625 42.390625 41.71875 45.5625 
Q 45.3125 48.734375 45.3125 54.390625 
Q 45.3125 60.0625 41.71875 63.234375 
Q 38.140625 66.40625 31.78125 66.40625 
Q 25.390625 66.40625 21.84375 63.234375 
Q 18.3125 60.0625 18.3125 54.390625 
z
" id="DejaVuSans-56"/>
      </defs>
      <g transform="translate(464.784839 490.53515)scale(0.2592 -0.2592)">
       <use xlink:href="#DejaVuSans-48"/>
       <use x="63.623047" xlink:href="#DejaVuSans-46"/>
       <use x="95.410156" xlink:href="#DejaVuSans-56"/>
      </g>
     </g>
    </g>
    <g id="xtick_6">
     <g id="line2d_6">
      <g>
       <use style="stroke:#000000;stroke-width:0.8;" x="570.897149" xlink:href="#mf0298a0754" y="463.84"/>
      </g>
     </g>
     <g id="text_6">
      <!-- 1.0 -->
      <defs>
       <path d="M 12.40625 8.296875 
L 28.515625 8.296875 
L 28.515625 63.921875 
L 10.984375 60.40625 
L 10.984375 69.390625 
L 28.421875 72.90625 
L 38.28125 72.90625 
L 38.28125 8.296875 
L 54.390625 8.296875 
L 54.390625 0 
L 12.40625 0 
z
" id="DejaVuSans-49"/>
      </defs>
      <g transform="translate(550.286699 490.53515)scale(0.2592 -0.2592)">
       <use xlink:href="#DejaVuSans-49"/>
       <use x="63.623047" xlink:href="#DejaVuSans-46"/>
       <use x="95.410156" xlink:href="#DejaVuSans-48"/>
      </g>
     </g>
    </g>
    <g id="text_7">
     <!-- ChainRSquaredAvgU Cutoff -->
     <defs>
      <path d="M 64.40625 67.28125 
L 64.40625 56.890625 
Q 59.421875 61.53125 53.78125 63.8125 
Q 48.140625 66.109375 41.796875 66.109375 
Q 29.296875 66.109375 22.65625 58.46875 
Q 16.015625 50.828125 16.015625 36.375 
Q 16.015625 21.96875 22.65625 14.328125 
Q 29.296875 6.6875 41.796875 6.6875 
Q 48.140625 6.6875 53.78125 8.984375 
Q 59.421875 11.28125 64.40625 15.921875 
L 64.40625 5.609375 
Q 59.234375 2.09375 53.4375 0.328125 
Q 47.65625 -1.421875 41.21875 -1.421875 
Q 24.65625 -1.421875 15.125 8.703125 
Q 5.609375 18.84375 5.609375 36.375 
Q 5.609375 53.953125 15.125 64.078125 
Q 24.65625 74.21875 41.21875 74.21875 
Q 47.75 74.21875 53.53125 72.484375 
Q 59.328125 70.75 64.40625 67.28125 
z
" id="DejaVuSans-67"/>
      <path d="M 54.890625 33.015625 
L 54.890625 0 
L 45.90625 0 
L 45.90625 32.71875 
Q 45.90625 40.484375 42.875 44.328125 
Q 39.84375 48.1875 33.796875 48.1875 
Q 26.515625 48.1875 22.3125 43.546875 
Q 18.109375 38.921875 18.109375 30.90625 
L 18.109375 0 
L 9.078125 0 
L 9.078125 75.984375 
L 18.109375 75.984375 
L 18.109375 46.1875 
Q 21.34375 51.125 25.703125 53.5625 
Q 30.078125 56 35.796875 56 
Q 45.21875 56 50.046875 50.171875 
Q 54.890625 44.34375 54.890625 33.015625 
z
" id="DejaVuSans-104"/>
      <path d="M 34.28125 27.484375 
Q 23.390625 27.484375 19.1875 25 
Q 14.984375 22.515625 14.984375 16.5 
Q 14.984375 11.71875 18.140625 8.90625 
Q 21.296875 6.109375 26.703125 6.109375 
Q 34.1875 6.109375 38.703125 11.40625 
Q 43.21875 16.703125 43.21875 25.484375 
L 43.21875 27.484375 
z
M 52.203125 31.203125 
L 52.203125 0 
L 43.21875 0 
L 43.21875 8.296875 
Q 40.140625 3.328125 35.546875 0.953125 
Q 30.953125 -1.421875 24.3125 -1.421875 
Q 15.921875 -1.421875 10.953125 3.296875 
Q 6 8.015625 6 15.921875 
Q 6 25.140625 12.171875 29.828125 
Q 18.359375 34.515625 30.609375 34.515625 
L 43.21875 34.515625 
L 43.21875 35.40625 
Q 43.21875 41.609375 39.140625 45 
Q 35.0625 48.390625 27.6875 48.390625 
Q 23 48.390625 18.546875 47.265625 
Q 14.109375 46.140625 10.015625 43.890625 
L 10.015625 52.203125 
Q 14.9375 54.109375 19.578125 55.046875 
Q 24.21875 56 28.609375 56 
Q 40.484375 56 46.34375 49.84375 
Q 52.203125 43.703125 52.203125 31.203125 
z
" id="DejaVuSans-97"/>
      <path d="M 9.421875 54.6875 
L 18.40625 54.6875 
L 18.40625 0 
L 9.421875 0 
z
M 9.421875 75.984375 
L 18.40625 75.984375 
L 18.40625 64.59375 
L 9.421875 64.59375 
z
" id="DejaVuSans-105"/>
      <path d="M 54.890625 33.015625 
L 54.890625 0 
L 45.90625 0 
L 45.90625 32.71875 
Q 45.90625 40.484375 42.875 44.328125 
Q 39.84375 48.1875 33.796875 48.1875 
Q 26.515625 48.1875 22.3125 43.546875 
Q 18.109375 38.921875 18.109375 30.90625 
L 18.109375 0 
L 9.078125 0 
L 9.078125 54.6875 
L 18.109375 54.6875 
L 18.109375 46.1875 
Q 21.34375 51.125 25.703125 53.5625 
Q 30.078125 56 35.796875 56 
Q 45.21875 56 50.046875 50.171875 
Q 54.890625 44.34375 54.890625 33.015625 
z
" id="DejaVuSans-110"/>
      <path d="M 44.390625 34.1875 
Q 47.5625 33.109375 50.5625 29.59375 
Q 53.5625 26.078125 56.59375 19.921875 
L 66.609375 0 
L 56 0 
L 46.6875 18.703125 
Q 43.0625 26.03125 39.671875 28.421875 
Q 36.28125 30.8125 30.421875 30.8125 
L 19.671875 30.8125 
L 19.671875 0 
L 9.8125 0 
L 9.8125 72.90625 
L 32.078125 72.90625 
Q 44.578125 72.90625 50.734375 67.671875 
Q 56.890625 62.453125 56.890625 51.90625 
Q 56.890625 45.015625 53.6875 40.46875 
Q 50.484375 35.9375 44.390625 34.1875 
z
M 19.671875 64.796875 
L 19.671875 38.921875 
L 32.078125 38.921875 
Q 39.203125 38.921875 42.84375 42.21875 
Q 46.484375 45.515625 46.484375 51.90625 
Q 46.484375 58.296875 42.84375 61.546875 
Q 39.203125 64.796875 32.078125 64.796875 
z
" id="DejaVuSans-82"/>
      <path d="M 53.515625 70.515625 
L 53.515625 60.890625 
Q 47.90625 63.578125 42.921875 64.890625 
Q 37.9375 66.21875 33.296875 66.21875 
Q 25.25 66.21875 20.875 63.09375 
Q 16.5 59.96875 16.5 54.203125 
Q 16.5 49.359375 19.40625 46.890625 
Q 22.3125 44.4375 30.421875 42.921875 
L 36.375 41.703125 
Q 47.40625 39.59375 52.65625 34.296875 
Q 57.90625 29 57.90625 20.125 
Q 57.90625 9.515625 50.796875 4.046875 
Q 43.703125 -1.421875 29.984375 -1.421875 
Q 24.8125 -1.421875 18.96875 -0.25 
Q 13.140625 0.921875 6.890625 3.21875 
L 6.890625 13.375 
Q 12.890625 10.015625 18.65625 8.296875 
Q 24.421875 6.59375 29.984375 6.59375 
Q 38.421875 6.59375 43.015625 9.90625 
Q 47.609375 13.234375 47.609375 19.390625 
Q 47.609375 24.75 44.3125 27.78125 
Q 41.015625 30.8125 33.5 32.328125 
L 27.484375 33.5 
Q 16.453125 35.6875 11.515625 40.375 
Q 6.59375 45.0625 6.59375 53.421875 
Q 6.59375 63.09375 13.40625 68.65625 
Q 20.21875 74.21875 32.171875 74.21875 
Q 37.3125 74.21875 42.625 73.28125 
Q 47.953125 72.359375 53.515625 70.515625 
z
" id="DejaVuSans-83"/>
      <path d="M 14.796875 27.296875 
Q 14.796875 17.390625 18.875 11.75 
Q 22.953125 6.109375 30.078125 6.109375 
Q 37.203125 6.109375 41.296875 11.75 
Q 45.40625 17.390625 45.40625 27.296875 
Q 45.40625 37.203125 41.296875 42.84375 
Q 37.203125 48.484375 30.078125 48.484375 
Q 22.953125 48.484375 18.875 42.84375 
Q 14.796875 37.203125 14.796875 27.296875 
z
M 45.40625 8.203125 
Q 42.578125 3.328125 38.25 0.953125 
Q 33.9375 -1.421875 27.875 -1.421875 
Q 17.96875 -1.421875 11.734375 6.484375 
Q 5.515625 14.40625 5.515625 27.296875 
Q 5.515625 40.1875 11.734375 48.09375 
Q 17.96875 56 27.875 56 
Q 33.9375 56 38.25 53.625 
Q 42.578125 51.265625 45.40625 46.390625 
L 45.40625 54.6875 
L 54.390625 54.6875 
L 54.390625 -20.796875 
L 45.40625 -20.796875 
z
" id="DejaVuSans-113"/>
      <path d="M 8.5 21.578125 
L 8.5 54.6875 
L 17.484375 54.6875 
L 17.484375 21.921875 
Q 17.484375 14.15625 20.5 10.265625 
Q 23.53125 6.390625 29.59375 6.390625 
Q 36.859375 6.390625 41.078125 11.03125 
Q 45.3125 15.671875 45.3125 23.6875 
L 45.3125 54.6875 
L 54.296875 54.6875 
L 54.296875 0 
L 45.3125 0 
L 45.3125 8.40625 
Q 42.046875 3.421875 37.71875 1 
Q 33.40625 -1.421875 27.6875 -1.421875 
Q 18.265625 -1.421875 13.375 4.4375 
Q 8.5 10.296875 8.5 21.578125 
z
M 31.109375 56 
z
" id="DejaVuSans-117"/>
      <path d="M 41.109375 46.296875 
Q 39.59375 47.171875 37.8125 47.578125 
Q 36.03125 48 33.890625 48 
Q 26.265625 48 22.1875 43.046875 
Q 18.109375 38.09375 18.109375 28.8125 
L 18.109375 0 
L 9.078125 0 
L 9.078125 54.6875 
L 18.109375 54.6875 
L 18.109375 46.1875 
Q 20.953125 51.171875 25.484375 53.578125 
Q 30.03125 56 36.53125 56 
Q 37.453125 56 38.578125 55.875 
Q 39.703125 55.765625 41.0625 55.515625 
z
" id="DejaVuSans-114"/>
      <path d="M 56.203125 29.59375 
L 56.203125 25.203125 
L 14.890625 25.203125 
Q 15.484375 15.921875 20.484375 11.0625 
Q 25.484375 6.203125 34.421875 6.203125 
Q 39.59375 6.203125 44.453125 7.46875 
Q 49.3125 8.734375 54.109375 11.28125 
L 54.109375 2.78125 
Q 49.265625 0.734375 44.1875 -0.34375 
Q 39.109375 -1.421875 33.890625 -1.421875 
Q 20.796875 -1.421875 13.15625 6.1875 
Q 5.515625 13.8125 5.515625 26.8125 
Q 5.515625 40.234375 12.765625 48.109375 
Q 20.015625 56 32.328125 56 
Q 43.359375 56 49.78125 48.890625 
Q 56.203125 41.796875 56.203125 29.59375 
z
M 47.21875 32.234375 
Q 47.125 39.59375 43.09375 43.984375 
Q 39.0625 48.390625 32.421875 48.390625 
Q 24.90625 48.390625 20.390625 44.140625 
Q 15.875 39.890625 15.1875 32.171875 
z
" id="DejaVuSans-101"/>
      <path d="M 45.40625 46.390625 
L 45.40625 75.984375 
L 54.390625 75.984375 
L 54.390625 0 
L 45.40625 0 
L 45.40625 8.203125 
Q 42.578125 3.328125 38.25 0.953125 
Q 33.9375 -1.421875 27.875 -1.421875 
Q 17.96875 -1.421875 11.734375 6.484375 
Q 5.515625 14.40625 5.515625 27.296875 
Q 5.515625 40.1875 11.734375 48.09375 
Q 17.96875 56 27.875 56 
Q 33.9375 56 38.25 53.625 
Q 42.578125 51.265625 45.40625 46.390625 
z
M 14.796875 27.296875 
Q 14.796875 17.390625 18.875 11.75 
Q 22.953125 6.109375 30.078125 6.109375 
Q 37.203125 6.109375 41.296875 11.75 
Q 45.40625 17.390625 45.40625 27.296875 
Q 45.40625 37.203125 41.296875 42.84375 
Q 37.203125 48.484375 30.078125 48.484375 
Q 22.953125 48.484375 18.875 42.84375 
Q 14.796875 37.203125 14.796875 27.296875 
z
" id="DejaVuSans-100"/>
      <path d="M 34.1875 63.1875 
L 20.796875 26.90625 
L 47.609375 26.90625 
z
M 28.609375 72.90625 
L 39.796875 72.90625 
L 67.578125 0 
L 57.328125 0 
L 50.6875 18.703125 
L 17.828125 18.703125 
L 11.1875 0 
L 0.78125 0 
z
" id="DejaVuSans-65"/>
      <path d="M 2.984375 54.6875 
L 12.5 54.6875 
L 29.59375 8.796875 
L 46.6875 54.6875 
L 56.203125 54.6875 
L 35.6875 0 
L 23.484375 0 
z
" id="DejaVuSans-118"/>
      <path d="M 45.40625 27.984375 
Q 45.40625 37.75 41.375 43.109375 
Q 37.359375 48.484375 30.078125 48.484375 
Q 22.859375 48.484375 18.828125 43.109375 
Q 14.796875 37.75 14.796875 27.984375 
Q 14.796875 18.265625 18.828125 12.890625 
Q 22.859375 7.515625 30.078125 7.515625 
Q 37.359375 7.515625 41.375 12.890625 
Q 45.40625 18.265625 45.40625 27.984375 
z
M 54.390625 6.78125 
Q 54.390625 -7.171875 48.1875 -13.984375 
Q 42 -20.796875 29.203125 -20.796875 
Q 24.46875 -20.796875 20.265625 -20.09375 
Q 16.0625 -19.390625 12.109375 -17.921875 
L 12.109375 -9.1875 
Q 16.0625 -11.328125 19.921875 -12.34375 
Q 23.78125 -13.375 27.78125 -13.375 
Q 36.625 -13.375 41.015625 -8.765625 
Q 45.40625 -4.15625 45.40625 5.171875 
L 45.40625 9.625 
Q 42.625 4.78125 38.28125 2.390625 
Q 33.9375 0 27.875 0 
Q 17.828125 0 11.671875 7.65625 
Q 5.515625 15.328125 5.515625 27.984375 
Q 5.515625 40.671875 11.671875 48.328125 
Q 17.828125 56 27.875 56 
Q 33.9375 56 38.28125 53.609375 
Q 42.625 51.21875 45.40625 46.390625 
L 45.40625 54.6875 
L 54.390625 54.6875 
z
" id="DejaVuSans-103"/>
      <path d="M 8.6875 72.90625 
L 18.609375 72.90625 
L 18.609375 28.609375 
Q 18.609375 16.890625 22.84375 11.734375 
Q 27.09375 6.59375 36.625 6.59375 
Q 46.09375 6.59375 50.34375 11.734375 
Q 54.59375 16.890625 54.59375 28.609375 
L 54.59375 72.90625 
L 64.5 72.90625 
L 64.5 27.390625 
Q 64.5 13.140625 57.4375 5.859375 
Q 50.390625 -1.421875 36.625 -1.421875 
Q 22.796875 -1.421875 15.734375 5.859375 
Q 8.6875 13.140625 8.6875 27.390625 
z
" id="DejaVuSans-85"/>
      <path id="DejaVuSans-32"/>
      <path d="M 18.3125 70.21875 
L 18.3125 54.6875 
L 36.8125 54.6875 
L 36.8125 47.703125 
L 18.3125 47.703125 
L 18.3125 18.015625 
Q 18.3125 11.328125 20.140625 9.421875 
Q 21.96875 7.515625 27.59375 7.515625 
L 36.8125 7.515625 
L 36.8125 0 
L 27.59375 0 
Q 17.1875 0 13.234375 3.875 
Q 9.28125 7.765625 9.28125 18.015625 
L 9.28125 47.703125 
L 2.6875 47.703125 
L 2.6875 54.6875 
L 9.28125 54.6875 
L 9.28125 70.21875 
z
" id="DejaVuSans-116"/>
      <path d="M 30.609375 48.390625 
Q 23.390625 48.390625 19.1875 42.75 
Q 14.984375 37.109375 14.984375 27.296875 
Q 14.984375 17.484375 19.15625 11.84375 
Q 23.34375 6.203125 30.609375 6.203125 
Q 37.796875 6.203125 41.984375 11.859375 
Q 46.1875 17.53125 46.1875 27.296875 
Q 46.1875 37.015625 41.984375 42.703125 
Q 37.796875 48.390625 30.609375 48.390625 
z
M 30.609375 56 
Q 42.328125 56 49.015625 48.375 
Q 55.71875 40.765625 55.71875 27.296875 
Q 55.71875 13.875 49.015625 6.21875 
Q 42.328125 -1.421875 30.609375 -1.421875 
Q 18.84375 -1.421875 12.171875 6.21875 
Q 5.515625 13.875 5.515625 27.296875 
Q 5.515625 40.765625 12.171875 48.375 
Q 18.84375 56 30.609375 56 
z
" id="DejaVuSans-111"/>
      <path d="M 37.109375 75.984375 
L 37.109375 68.5 
L 28.515625 68.5 
Q 23.6875 68.5 21.796875 66.546875 
Q 19.921875 64.59375 19.921875 59.515625 
L 19.921875 54.6875 
L 34.71875 54.6875 
L 34.71875 47.703125 
L 19.921875 47.703125 
L 19.921875 0 
L 10.890625 0 
L 10.890625 47.703125 
L 2.296875 47.703125 
L 2.296875 54.6875 
L 10.890625 54.6875 
L 10.890625 58.5 
Q 10.890625 67.625 15.140625 71.796875 
Q 19.390625 75.984375 28.609375 75.984375 
z
" id="DejaVuSans-102"/>
     </defs>
     <g transform="translate(179.226 519.62085)scale(0.2592 -0.2592)">
      <use xlink:href="#DejaVuSans-67"/>
      <use x="69.824219" xlink:href="#DejaVuSans-104"/>
      <use x="133.203125" xlink:href="#DejaVuSans-97"/>
      <use x="194.482422" xlink:href="#DejaVuSans-105"/>
      <use x="222.265625" xlink:href="#DejaVuSans-110"/>
      <use x="285.644531" xlink:href="#DejaVuSans-82"/>
      <use x="355.126953" xlink:href="#DejaVuSans-83"/>
      <use x="418.603516" xlink:href="#DejaVuSans-113"/>
      <use x="482.080078" xlink:href="#DejaVuSans-117"/>
      <use x="545.458984" xlink:href="#DejaVuSans-97"/>
      <use x="606.738281" xlink:href="#DejaVuSans-114"/>
      <use x="647.820312" xlink:href="#DejaVuSans-101"/>
      <use x="709.34375" xlink:href="#DejaVuSans-100"/>
      <use x="772.820312" xlink:href="#DejaVuSans-65"/>
      <use x="841.150391" xlink:href="#DejaVuSans-118"/>
      <use x="900.330078" xlink:href="#DejaVuSans-103"/>
      <use x="963.806641" xlink:href="#DejaVuSans-85"/>
      <use x="1037" xlink:href="#DejaVuSans-32"/>
      <use x="1068.787109" xlink:href="#DejaVuSans-67"/>
      <use x="1138.611328" xlink:href="#DejaVuSans-117"/>
      <use x="1201.990234" xlink:href="#DejaVuSans-116"/>
      <use x="1241.199219" xlink:href="#DejaVuSans-111"/>
      <use x="1302.380859" xlink:href="#DejaVuSans-102"/>
      <use x="1337.585938" xlink:href="#DejaVuSans-102"/>
     </g>
    </g>
   </g>
   <g id="matplotlib.axis_2">
    <g id="ytick_1">
     <g id="line2d_7">
      <defs>
       <path d="M 0 0 
L -3.5 0 
" id="m807ab6d6b4" style="stroke:#000000;stroke-width:0.8;"/>
      </defs>
      <g>
       <use style="stroke:#000000;stroke-width:0.8;" x="122.012386" xlink:href="#m807ab6d6b4" y="463.84"/>
      </g>
     </g>
     <g id="text_8">
      <!-- 0.0 -->
      <g transform="translate(73.791486 473.687575)scale(0.2592 -0.2592)">
       <use xlink:href="#DejaVuSans-48"/>
       <use x="63.623047" xlink:href="#DejaVuSans-46"/>
       <use x="95.410156" xlink:href="#DejaVuSans-48"/>
      </g>
     </g>
    </g>
    <g id="ytick_2">
     <g id="line2d_8">
      <g>
       <use style="stroke:#000000;stroke-width:0.8;" x="122.012386" xlink:href="#m807ab6d6b4" y="379.4"/>
      </g>
     </g>
     <g id="text_9">
      <!-- 0.2 -->
      <g transform="translate(73.791486 389.247575)scale(0.2592 -0.2592)">
       <use xlink:href="#DejaVuSans-48"/>
       <use x="63.623047" xlink:href="#DejaVuSans-46"/>
       <use x="95.410156" xlink:href="#DejaVuSans-50"/>
      </g>
     </g>
    </g>
    <g id="ytick_3">
     <g id="line2d_9">
      <g>
       <use style="stroke:#000000;stroke-width:0.8;" x="122.012386" xlink:href="#m807ab6d6b4" y="294.96"/>
      </g>
     </g>
     <g id="text_10">
      <!-- 0.4 -->
      <g transform="translate(73.791486 304.807575)scale(0.2592 -0.2592)">
       <use xlink:href="#DejaVuSans-48"/>
       <use x="63.623047" xlink:href="#DejaVuSans-46"/>
       <use x="95.410156" xlink:href="#DejaVuSans-52"/>
      </g>
     </g>
    </g>
    <g id="ytick_4">
     <g id="line2d_10">
      <g>
       <use style="stroke:#000000;stroke-width:0.8;" x="122.012386" xlink:href="#m807ab6d6b4" y="210.52"/>
      </g>
     </g>
     <g id="text_11">
      <!-- 0.6 -->
      <g transform="translate(73.791486 220.367575)scale(0.2592 -0.2592)">
       <use xlink:href="#DejaVuSans-48"/>
       <use x="63.623047" xlink:href="#DejaVuSans-46"/>
       <use x="95.410156" xlink:href="#DejaVuSans-54"/>
      </g>
     </g>
    </g>
    <g id="ytick_5">
     <g id="line2d_11">
      <g>
       <use style="stroke:#000000;stroke-width:0.8;" x="122.012386" xlink:href="#m807ab6d6b4" y="126.08"/>
      </g>
     </g>
     <g id="text_12">
      <!-- 0.8 -->
      <g transform="translate(73.791486 135.927575)scale(0.2592 -0.2592)">
       <use xlink:href="#DejaVuSans-48"/>
       <use x="63.623047" xlink:href="#DejaVuSans-46"/>
       <use x="95.410156" xlink:href="#DejaVuSans-56"/>
      </g>
     </g>
    </g>
    <g id="ytick_6">
     <g id="line2d_12">
      <g>
       <use style="stroke:#000000;stroke-width:0.8;" x="122.012386" xlink:href="#m807ab6d6b4" y="41.64"/>
      </g>
     </g>
     <g id="text_13">
      <!-- 1.0 -->
      <g transform="translate(73.791486 51.487575)scale(0.2592 -0.2592)">
       <use xlink:href="#DejaVuSans-49"/>
       <use x="63.623047" xlink:href="#DejaVuSans-46"/>
       <use x="95.410156" xlink:href="#DejaVuSans-48"/>
      </g>
     </g>
    </g>
    <g id="text_14">
     <!-- Fraction -->
     <defs>
      <path d="M 9.8125 72.90625 
L 51.703125 72.90625 
L 51.703125 64.59375 
L 19.671875 64.59375 
L 19.671875 43.109375 
L 48.578125 43.109375 
L 48.578125 34.8125 
L 19.671875 34.8125 
L 19.671875 0 
L 9.8125 0 
z
" id="DejaVuSans-70"/>
      <path d="M 48.78125 52.59375 
L 48.78125 44.1875 
Q 44.96875 46.296875 41.140625 47.34375 
Q 37.3125 48.390625 33.40625 48.390625 
Q 24.65625 48.390625 19.8125 42.84375 
Q 14.984375 37.3125 14.984375 27.296875 
Q 14.984375 17.28125 19.8125 11.734375 
Q 24.65625 6.203125 33.40625 6.203125 
Q 37.3125 6.203125 41.140625 7.25 
Q 44.96875 8.296875 48.78125 10.40625 
L 48.78125 2.09375 
Q 45.015625 0.34375 40.984375 -0.53125 
Q 36.96875 -1.421875 32.421875 -1.421875 
Q 20.0625 -1.421875 12.78125 6.34375 
Q 5.515625 14.109375 5.515625 27.296875 
Q 5.515625 40.671875 12.859375 48.328125 
Q 20.21875 56 33.015625 56 
Q 37.15625 56 41.109375 55.140625 
Q 45.0625 54.296875 48.78125 52.59375 
z
" id="DejaVuSans-99"/>
     </defs>
     <g transform="translate(64.400936 305.400125)rotate(-90)scale(0.2592 -0.2592)">
      <use xlink:href="#DejaVuSans-70"/>
      <use x="57.410156" xlink:href="#DejaVuSans-114"/>
      <use x="98.523438" xlink:href="#DejaVuSans-97"/>
      <use x="159.802734" xlink:href="#DejaVuSans-99"/>
      <use x="214.783203" xlink:href="#DejaVuSans-116"/>
      <use x="253.992188" xlink:href="#DejaVuSans-105"/>
      <use x="281.775391" xlink:href="#DejaVuSans-111"/>
      <use x="342.957031" xlink:href="#DejaVuSans-110"/>
     </g>
    </g>
   </g>
   <g id="line2d_13">
    <path clip-path="url(#pa806d226d3)" d="M 143.387851 41.64 
L 167.352336 41.748991 
L 171.203771 41.780131 
L 178.906642 41.889122 
L 194.312382 42.558638 
L 196.024131 42.72991 
L 201.587315 43.041313 
L 206.722562 43.508417 
L 210.14606 43.897671 
L 212.713683 44.100083 
L 213.997495 44.271354 
L 216.137181 44.489336 
L 220.416553 44.90973 
L 222.128302 45.112142 
L 224.695926 45.376834 
L 225.979738 45.501395 
L 237.106106 46.824858 
L 239.673729 47.08955 
L 240.957541 47.276392 
L 242.241352 47.572225 
L 243.525164 47.743496 
L 245.66485 48.2106 
L 248.660411 48.615424 
L 249.088348 48.755555 
L 249.944223 48.817836 
L 251.228034 49.035818 
L 252.939783 49.26937 
L 256.363281 49.970027 
L 258.07503 50.125728 
L 262.354403 50.810814 
L 264.066151 51.028796 
L 264.922026 51.184498 
L 267.917587 51.48033 
L 269.629335 51.822874 
L 277.332206 52.866073 
L 278.616017 52.959494 
L 279.899829 53.161906 
L 282.467453 53.457739 
L 284.607139 53.800282 
L 286.318888 54.142825 
L 287.174762 54.345237 
L 292.737946 55.232735 
L 296.161444 56.042382 
L 300.012879 56.556197 
L 300.868754 56.711899 
L 301.724628 56.88317 
L 302.580503 57.070012 
L 304.292252 57.334704 
L 305.576063 57.661677 
L 306.431938 57.817379 
L 307.287812 58.066501 
L 311.139247 58.564746 
L 311.995122 58.860578 
L 314.134808 59.280972 
L 317.130369 59.950488 
L 319.697992 60.339742 
L 322.693553 60.993688 
L 325.261176 61.632064 
L 326.972925 62.254869 
L 328.684674 62.612983 
L 329.540548 62.768684 
L 330.396423 62.971096 
L 334.675795 63.952015 
L 336.815481 64.51254 
L 339.811042 65.384468 
L 341.094854 65.60245 
L 341.522791 65.836002 
L 345.802163 66.816921 
L 346.658038 67.112754 
L 348.797724 67.875691 
L 349.653598 68.078103 
L 350.509473 68.498497 
L 353.505034 69.557267 
L 359.496155 72.07963 
L 361.207904 72.780286 
L 364.203464 74.119318 
L 366.343151 74.897826 
L 367.626962 75.442781 
L 370.194586 76.283568 
L 371.478397 76.812953 
L 372.334272 77.077646 
L 374.046021 77.778302 
L 374.901895 77.996284 
L 375.75777 78.525669 
L 377.041581 79.132905 
L 380.893017 80.471937 
L 383.46064 81.499566 
L 384.316514 81.90439 
L 386.456201 83.00987 
L 387.312075 83.445834 
L 388.16795 83.694956 
L 390.307636 84.847147 
L 391.16351 85.080699 
L 392.447322 85.859206 
L 393.303196 86.155039 
L 394.587008 87.026967 
L 395.442883 87.33837 
L 398.86638 89.160077 
L 399.294318 89.440339 
L 400.150192 89.798453 
L 401.006067 90.327837 
L 402.289878 91.028494 
L 404.001627 91.853711 
L 404.857502 92.180684 
L 405.285439 92.585508 
L 407.853062 93.86226 
L 409.136874 94.391645 
L 409.992748 94.765328 
L 410.848623 95.248003 
L 411.27656 95.419274 
L 411.704497 95.777388 
L 413.844184 96.805017 
L 415.127995 97.521244 
L 416.411807 98.066199 
L 418.97943 99.32738 
L 419.835305 99.841195 
L 420.691179 100.308299 
L 421.974991 101.180227 
L 422.830866 101.818603 
L 424.114677 102.737241 
L 425.398489 103.609169 
L 425.826426 104.029563 
L 426.682301 104.449957 
L 427.966112 105.197324 
L 428.821987 105.88241 
L 429.677861 106.318374 
L 433.957234 109.650385 
L 435.668983 110.864856 
L 436.952794 111.799065 
L 438.236606 112.639852 
L 440.376292 114.165727 
L 441.232167 114.757392 
L 442.515978 115.800592 
L 443.371853 116.283266 
L 444.227727 116.781511 
L 447.223288 119.085892 
L 448.079162 119.755408 
L 448.935037 120.362643 
L 450.218849 121.514834 
L 451.930597 122.885007 
L 452.358535 123.305401 
L 453.214409 123.803645 
L 454.070284 124.628863 
L 456.20997 126.48171 
L 457.493782 127.6339 
L 459.20553 129.035213 
L 460.489342 130.249684 
L 461.345217 130.934771 
L 462.201091 131.775558 
L 462.629028 131.97797 
L 463.056966 132.304943 
L 463.91284 133.08345 
L 468.62015 137.801204 
L 469.048087 138.299448 
L 469.903961 139.015675 
L 471.61571 140.69725 
L 472.043648 141.242205 
L 473.755396 142.752509 
L 474.611271 143.577727 
L 482.742078 151.954464 
L 483.170016 152.57727 
L 484.02589 153.495908 
L 485.309702 155.177483 
L 485.737639 155.551167 
L 486.593514 156.656647 
L 488.305262 158.322652 
L 495.152258 166.605968 
L 496.008133 168.100702 
L 496.864007 169.066051 
L 498.575756 171.230301 
L 499.431631 172.538193 
L 501.999254 175.979195 
L 503.283066 177.505069 
L 504.13894 178.75068 
L 506.706564 182.300673 
L 508.418312 184.573914 
L 508.84625 185.134439 
L 510.130061 187.360969 
L 513.125622 191.533768 
L 513.553559 192.327845 
L 513.981497 192.826089 
L 519.116743 201.218397 
L 527.247551 215.309376 
L 529.815174 220.07384 
L 531.526923 223.670543 
L 531.95486 224.277778 
L 537.518044 236.235648 
L 541.36948 245.15734 
L 542.225354 247.586283 
L 543.509166 250.435619 
L 545.220915 255.355784 
L 545.648852 256.414554 
L 546.076789 257.831437 
L 546.932664 259.964546 
L 548.644413 265.507517 
L 550.356161 270.801366 
L 552.06791 276.64017 
L 553.351722 281.248932 
L 555.063471 288.099795 
L 556.77522 295.106359 
L 558.914906 305.740767 
L 561.910467 321.980426 
L 563.622216 333.190929 
L 565.333965 346.705814 
L 567.045714 363.786261 
L 567.901588 375.619569 
L 568.757463 391.049581 
L 569.1854 400.936622 
L 570.041274 431.251691 
L 570.469212 453.143312 
L 570.897149 463.84 
L 570.897149 463.84 
" style="fill:none;stroke:#0000ff;stroke-linecap:square;stroke-width:1.5;"/>
   </g>
   <g id="line2d_14">
    <path clip-path="url(#pa806d226d3)" d="M 143.387851 150.61496 
L 188.321261 150.725776 
L 206.722562 150.956745 
L 217.84893 151.162062 
L 243.097227 151.625757 
L 250.800097 151.810191 
L 253.367721 151.837224 
L 261.926465 151.997879 
L 267.061712 152.039626 
L 297.017319 152.204004 
L 300.012879 152.138168 
L 309.855436 152.127837 
L 312.423059 152.084039 
L 318.842117 152.037481 
L 320.125929 151.99525 
L 324.405302 151.905582 
L 326.11705 151.908905 
L 335.53167 151.656454 
L 341.522791 151.4731 
L 346.230101 151.388952 
L 353.077096 151.224937 
L 354.788845 151.201827 
L 355.64472 151.097884 
L 357.356469 151.062513 
L 358.64028 150.987924 
L 365.487276 150.666366 
L 367.199025 150.626015 
L 368.482837 150.536056 
L 369.766648 150.384479 
L 374.901895 150.017204 
L 377.897456 149.857925 
L 379.609205 149.526348 
L 382.604765 149.314824 
L 383.888577 149.09417 
L 390.307636 148.350033 
L 391.16351 148.205309 
L 392.875259 148.068336 
L 393.731134 147.96548 
L 397.582569 147.517999 
L 400.150192 147.094408 
L 402.717816 146.70958 
L 410.848623 144.702743 
L 412.132435 144.46626 
L 417.695619 143.045689 
L 418.97943 142.760082 
L 419.835305 142.50286 
L 420.691179 142.12969 
L 422.830866 141.65771 
L 423.68674 141.203541 
L 426.254363 140.251866 
L 427.110238 139.944583 
L 430.533736 138.690948 
L 431.38961 138.392091 
L 437.808669 135.799712 
L 438.236606 135.51236 
L 439.09248 135.244936 
L 442.088041 133.706744 
L 442.943916 133.316446 
L 443.79979 132.671308 
L 444.227727 132.565781 
L 447.223288 130.755399 
L 447.651225 130.570207 
L 449.362974 129.380122 
L 450.218849 129.082555 
L 451.074723 128.78318 
L 451.930597 128.170843 
L 452.786472 127.774397 
L 453.642346 127.38202 
L 454.070284 127.211058 
L 455.782033 125.974096 
L 457.921719 124.645989 
L 459.20553 123.665892 
L 460.489342 122.662653 
L 461.345217 121.931879 
L 462.629028 120.846754 
L 463.056966 120.359902 
L 465.196652 118.962127 
L 466.052526 118.341166 
L 469.048087 116.018667 
L 470.759836 114.330015 
L 471.187773 114.185905 
L 472.471585 113.116604 
L 475.039208 110.527436 
L 475.895083 109.99652 
L 477.178894 108.806203 
L 478.034769 107.897984 
L 478.462706 107.715553 
L 481.030329 105.100875 
L 483.170016 103.378749 
L 483.597953 102.894436 
L 484.453827 102.296951 
L 488.7332 97.922125 
L 489.589074 97.405098 
L 490.444949 96.874422 
L 494.724321 93.480629 
L 496.43607 92.059258 
L 497.719882 90.632289 
L 501.143379 87.332026 
L 502.427191 86.383466 
L 503.711003 84.917669 
L 504.13894 84.653165 
L 507.990375 80.922345 
L 509.702124 79.051221 
L 510.557999 78.322772 
L 510.985936 77.764298 
L 512.697685 76.430995 
L 513.125622 75.930581 
L 513.981497 75.219524 
L 514.409434 74.658349 
L 515.693245 73.531502 
L 519.116743 70.1399 
L 519.544681 69.733557 
L 520.400555 69.236313 
L 521.25643 68.519156 
L 521.684367 68.215364 
L 522.540241 67.224964 
L 524.25199 66.492493 
L 525.107865 66.003354 
L 526.391676 64.707507 
L 527.247551 64.00871 
L 528.103425 63.209682 
L 529.387237 62.407703 
L 530.243111 61.577724 
L 533.238672 59.861403 
L 534.094547 59.223849 
L 535.378358 58.687618 
L 537.090107 57.198088 
L 537.945982 56.744545 
L 539.229793 56.001896 
L 539.657731 55.509758 
L 540.085668 55.374977 
L 540.941542 54.624527 
L 541.797417 53.973867 
L 542.225354 53.860569 
L 543.081229 53.29656 
L 543.509166 53.146373 
L 544.36504 52.669766 
L 544.792977 52.500942 
L 545.648852 51.936053 
L 546.076789 51.640457 
L 546.504726 51.107211 
L 546.932664 51.034833 
L 549.928224 49.474502 
L 550.356161 49.198397 
L 550.784099 49.225642 
L 551.212036 49.04821 
L 551.639973 49.000172 
L 552.495848 48.499096 
L 554.635534 47.663606 
L 555.491408 47.376615 
L 555.919346 47.324547 
L 556.347283 47.156219 
L 557.203157 46.512588 
L 559.342843 45.733352 
L 561.054592 45.100292 
L 561.48253 44.796804 
L 562.338404 44.642645 
L 564.050153 44.205318 
L 564.47809 43.852402 
L 565.333965 43.595147 
L 565.761902 43.264292 
L 567.473651 42.610734 
L 567.901588 42.532286 
L 568.329525 42.285689 
L 569.1854 42.161879 
L 570.041274 42.445341 
L 570.469212 43.475652 
L 570.469212 43.475652 
" style="fill:none;stroke:#ff0000;stroke-linecap:square;stroke-width:1.5;"/>
   </g>
   <g id="line2d_15">
    <path clip-path="url(#pa806d226d3)" d="M 143.387851 150.61496 
L 168.208211 150.722652 
L 171.631709 150.737185 
L 178.906642 150.838911 
L 194.312382 151.463738 
L 196.024131 151.623561 
L 201.587315 151.914129 
L 207.150499 152.399494 
L 219.132742 153.515277 
L 220.844491 153.695521 
L 222.984177 153.881744 
L 226.835612 154.204631 
L 228.119424 154.29175 
L 230.25911 154.506997 
L 231.114984 154.565073 
L 233.254671 154.832392 
L 234.966419 155.041629 
L 236.678168 155.288412 
L 241.813415 155.916034 
L 243.953101 156.255842 
L 245.236913 156.439483 
L 246.092788 156.599118 
L 247.804537 156.727217 
L 249.088348 157.02094 
L 249.944223 157.078983 
L 250.800097 157.253107 
L 252.511846 157.384704 
L 257.647093 158.158213 
L 259.786779 158.37935 
L 262.354403 158.766068 
L 264.066151 158.943673 
L 264.922026 159.071746 
L 268.345524 159.397939 
L 270.48521 159.683087 
L 270.913147 159.697592 
L 271.341084 159.842635 
L 272.624896 159.962212 
L 274.764582 160.244876 
L 278.616017 160.521521 
L 279.899829 160.684605 
L 283.323327 160.925918 
L 286.318888 161.428595 
L 287.174762 161.600158 
L 288.886511 161.816322 
L 290.59826 162.003482 
L 292.737946 162.265614 
L 295.733507 162.817515 
L 300.012879 163.150499 
L 302.580503 163.552737 
L 304.292252 163.705947 
L 305.576063 164.002033 
L 306.431938 164.121609 
L 307.287812 164.319716 
L 311.139247 164.588643 
L 311.995122 164.83027 
L 313.278933 164.933938 
L 317.130369 165.56544 
L 321.409741 165.991364 
L 322.265615 166.203997 
L 325.261176 166.698908 
L 326.972925 167.134747 
L 329.112611 167.364957 
L 331.680235 167.685688 
L 332.964046 167.951381 
L 336.815481 168.532732 
L 337.671356 168.659284 
L 339.811042 169.10706 
L 341.094854 169.165412 
L 341.522791 169.37464 
L 343.23454 169.560154 
L 344.946289 169.835295 
L 347.941849 170.549626 
L 348.369787 170.686288 
L 349.653598 170.825643 
L 350.509473 171.157955 
L 356.500594 172.683876 
L 356.928531 172.879518 
L 357.784406 173.006788 
L 359.068218 173.392924 
L 364.631402 174.916681 
L 366.343151 175.306887 
L 368.054899 175.760402 
L 369.338711 175.869109 
L 370.622523 176.197671 
L 371.906335 176.41582 
L 373.618084 176.768699 
L 374.473958 176.976221 
L 374.901895 177.040962 
L 375.75777 177.372003 
L 376.613644 177.734183 
L 377.469519 177.855011 
L 377.897456 178.007004 
L 379.609205 178.076079 
L 380.465079 178.298619 
L 381.320954 178.451571 
L 382.176828 178.68863 
L 382.604765 178.823308 
L 383.46064 178.874701 
L 384.316514 179.071595 
L 384.744452 179.183001 
L 385.172389 179.433725 
L 386.456201 179.7679 
L 387.312075 180.002425 
L 388.16795 180.018672 
L 390.307636 180.636677 
L 390.735573 180.599319 
L 391.591447 180.874157 
L 392.447322 181.210118 
L 393.303196 181.278112 
L 394.587008 181.911718 
L 395.442883 181.994111 
L 398.010506 182.695599 
L 398.438443 182.745349 
L 399.294318 183.116138 
L 400.150192 183.224151 
L 401.434004 183.656103 
L 402.717816 183.982579 
L 404.429564 184.270327 
L 404.857502 184.246308 
L 405.285439 184.546985 
L 407.853062 184.915825 
L 408.281 184.990914 
L 408.708937 184.951593 
L 410.420686 185.226705 
L 411.27656 185.252143 
L 411.704497 185.508839 
L 413.844184 185.806784 
L 414.700058 186.028705 
L 415.555933 186.117734 
L 416.839744 186.262526 
L 418.123556 186.484282 
L 418.97943 186.6309 
L 419.407368 186.774664 
L 420.691179 186.834088 
L 421.974991 187.240523 
L 422.402928 187.327231 
L 422.830866 187.580211 
L 423.68674 187.619119 
L 425.826426 188.239755 
L 426.254363 188.200572 
L 427.538175 188.414744 
L 427.966112 188.382334 
L 428.821987 188.754929 
L 429.249924 188.707265 
L 430.961673 189.111782 
L 432.245485 189.716775 
L 433.529296 189.899191 
L 435.241045 190.352721 
L 435.668983 190.334633 
L 437.808669 190.771503 
L 438.236606 190.726036 
L 439.09248 190.988309 
L 439.948355 191.123253 
L 440.804229 191.172461 
L 441.232167 191.18002 
L 442.943916 191.593224 
L 443.79979 191.391586 
L 444.655665 191.543459 
L 445.511539 191.52127 
L 447.223288 191.854485 
L 447.651225 191.998236 
L 448.935037 192.005657 
L 449.790911 192.188623 
L 451.074723 192.752392 
L 451.50266 192.682262 
L 451.930597 192.764502 
L 452.358535 192.970338 
L 453.214409 192.974303 
L 454.070284 193.379824 
L 455.782033 193.532325 
L 457.493782 194.042976 
L 458.349656 194.018034 
L 459.633468 194.177597 
L 460.061405 194.308208 
L 461.345217 194.245018 
L 462.201091 194.35985 
L 463.056966 194.120214 
L 463.484903 194.292678 
L 463.91284 194.324795 
L 464.340777 194.482535 
L 465.624589 194.616447 
L 467.336338 195.157434 
L 469.048087 195.649691 
L 469.903961 195.559978 
L 470.331899 195.676207 
L 470.759836 195.610807 
L 471.187773 195.912843 
L 471.61571 195.965554 
L 472.043648 196.130475 
L 472.899522 196.086641 
L 473.327459 195.96213 
L 473.755396 196.111299 
L 474.183334 196.080235 
L 475.039208 196.197524 
L 475.467145 196.518303 
L 476.32302 196.722029 
L 476.750957 196.673223 
L 477.178894 196.831436 
L 478.034769 196.791601 
L 478.890643 197.069883 
L 479.746518 197.2421 
L 480.174455 197.175461 
L 480.602392 197.342285 
L 481.030329 197.299317 
L 482.742078 197.812953 
L 483.170016 198.093545 
L 483.597953 198.095892 
L 484.881765 198.8031 
L 485.737639 198.823767 
L 486.593514 199.250593 
L 487.449388 199.33069 
L 488.7332 199.495508 
L 490.017011 200.363352 
L 491.72876 201.128665 
L 492.156698 201.19673 
L 494.296384 202.231767 
L 494.724321 202.624372 
L 495.152258 202.861357 
L 496.008133 203.648596 
L 496.43607 203.91157 
L 496.864007 203.899602 
L 497.291944 204.091178 
L 497.719882 204.138853 
L 498.575756 204.611505 
L 499.003693 205.040305 
L 500.287505 205.570387 
L 500.715442 205.726163 
L 501.999254 206.653001 
L 502.427191 206.903405 
L 502.855128 206.984858 
L 504.13894 207.795195 
L 504.994815 208.325993 
L 505.422752 208.873798 
L 505.850689 209.000458 
L 506.278626 209.346714 
L 506.706564 209.300294 
L 509.274187 210.828588 
L 511.413873 212.557747 
L 511.84181 212.731962 
L 512.269748 213.170956 
L 513.125622 213.650155 
L 513.553559 214.175954 
L 514.409434 214.652368 
L 515.265308 215.446574 
L 517.404994 217.316799 
L 518.260869 218.147982 
L 518.688806 218.366341 
L 519.544681 219.37657 
L 521.684367 221.878097 
L 522.540241 222.588768 
L 523.824053 224.322217 
L 525.535802 226.350143 
L 528.103425 229.48397 
L 528.531363 230.172773 
L 529.387237 231.191064 
L 530.671049 233.082482 
L 531.526923 234.665 
L 531.95486 235.072352 
L 534.094547 238.597309 
L 537.090107 243.558135 
L 537.945982 245.339216 
L 541.36948 251.726882 
L 542.225354 253.845741 
L 543.509166 256.251608 
L 545.220915 260.548152 
L 545.648852 261.47297 
L 546.076789 262.711067 
L 546.504726 263.44024 
L 547.360601 265.830053 
L 548.644413 269.549516 
L 550.356161 274.257222 
L 551.212036 277.125566 
L 553.351722 284.084673 
L 555.063471 290.525916 
L 556.77522 297.152082 
L 558.486969 305.224091 
L 561.48253 320.243991 
L 564.47809 340.349768 
L 566.617776 359.316613 
L 567.473651 369.468862 
L 568.329525 382.641513 
L 569.1854 401.014376 
L 570.041274 431.313852 
L 570.469212 453.189819 
L 570.469212 453.189819 
" style="fill:none;stroke:#008000;stroke-linecap:square;stroke-width:1.5;"/>
   </g>
   <g id="line2d_16">
    <path clip-path="url(#pa806d226d3)" d="M 143.815788 463.84 
L 143.815788 41.64 
" style="fill:none;stroke:#1f77b4;stroke-linecap:square;stroke-width:1.5;"/>
   </g>
   <g id="patch_3">
    <path d="M 122.012386 463.84 
L 122.012386 41.64 
" style="fill:none;stroke:#000000;stroke-linecap:square;stroke-linejoin:miter;stroke-width:0.8;"/>
   </g>
   <g id="patch_4">
    <path d="M 592.272614 463.84 
L 592.272614 41.64 
" style="fill:none;stroke:#000000;stroke-linecap:square;stroke-linejoin:miter;stroke-width:0.8;"/>
   </g>
   <g id="patch_5">
    <path d="M 122.012386 463.84 
L 592.272614 463.84 
" style="fill:none;stroke:#000000;stroke-linecap:square;stroke-linejoin:miter;stroke-width:0.8;"/>
   </g>
   <g id="patch_6">
    <path d="M 122.012386 41.64 
L 592.272614 41.64 
" style="fill:none;stroke:#000000;stroke-linecap:square;stroke-linejoin:miter;stroke-width:0.8;"/>
   </g>
   <g id="text_15">
    <!-- Purity/Efficiency vs ChainRSquaredAvgU Cutoff — track -->
    <defs>
     <path d="M 19.671875 64.796875 
L 19.671875 37.40625 
L 32.078125 37.40625 
Q 38.96875 37.40625 42.71875 40.96875 
Q 46.484375 44.53125 46.484375 51.125 
Q 46.484375 57.671875 42.71875 61.234375 
Q 38.96875 64.796875 32.078125 64.796875 
z
M 9.8125 72.90625 
L 32.078125 72.90625 
Q 44.34375 72.90625 50.609375 67.359375 
Q 56.890625 61.8125 56.890625 51.125 
Q 56.890625 40.328125 50.609375 34.8125 
Q 44.34375 29.296875 32.078125 29.296875 
L 19.671875 29.296875 
L 19.671875 0 
L 9.8125 0 
z
" id="DejaVuSans-80"/>
     <path d="M 32.171875 -5.078125 
Q 28.375 -14.84375 24.75 -17.8125 
Q 21.140625 -20.796875 15.09375 -20.796875 
L 7.90625 -20.796875 
L 7.90625 -13.28125 
L 13.1875 -13.28125 
Q 16.890625 -13.28125 18.9375 -11.515625 
Q 21 -9.765625 23.484375 -3.21875 
L 25.09375 0.875 
L 2.984375 54.6875 
L 12.5 54.6875 
L 29.59375 11.921875 
L 46.6875 54.6875 
L 56.203125 54.6875 
z
" id="DejaVuSans-121"/>
     <path d="M 25.390625 72.90625 
L 33.6875 72.90625 
L 8.296875 -9.28125 
L 0 -9.28125 
z
" id="DejaVuSans-47"/>
     <path d="M 9.8125 72.90625 
L 55.90625 72.90625 
L 55.90625 64.59375 
L 19.671875 64.59375 
L 19.671875 43.015625 
L 54.390625 43.015625 
L 54.390625 34.71875 
L 19.671875 34.71875 
L 19.671875 8.296875 
L 56.78125 8.296875 
L 56.78125 0 
L 9.8125 0 
z
" id="DejaVuSans-69"/>
     <path d="M 44.28125 53.078125 
L 44.28125 44.578125 
Q 40.484375 46.53125 36.375 47.5 
Q 32.28125 48.484375 27.875 48.484375 
Q 21.1875 48.484375 17.84375 46.4375 
Q 14.5 44.390625 14.5 40.28125 
Q 14.5 37.15625 16.890625 35.375 
Q 19.28125 33.59375 26.515625 31.984375 
L 29.59375 31.296875 
Q 39.15625 29.25 43.1875 25.515625 
Q 47.21875 21.78125 47.21875 15.09375 
Q 47.21875 7.46875 41.1875 3.015625 
Q 35.15625 -1.421875 24.609375 -1.421875 
Q 20.21875 -1.421875 15.453125 -0.5625 
Q 10.6875 0.296875 5.421875 2 
L 5.421875 11.28125 
Q 10.40625 8.6875 15.234375 7.390625 
Q 20.0625 6.109375 24.8125 6.109375 
Q 31.15625 6.109375 34.5625 8.28125 
Q 37.984375 10.453125 37.984375 14.40625 
Q 37.984375 18.0625 35.515625 20.015625 
Q 33.0625 21.96875 24.703125 23.78125 
L 21.578125 24.515625 
Q 13.234375 26.265625 9.515625 29.90625 
Q 5.8125 33.546875 5.8125 39.890625 
Q 5.8125 47.609375 11.28125 51.796875 
Q 16.75 56 26.8125 56 
Q 31.78125 56 36.171875 55.265625 
Q 40.578125 54.546875 44.28125 53.078125 
z
" id="DejaVuSans-115"/>
     <path d="M 4.890625 30.90625 
L 95.125 30.90625 
L 95.125 23.875 
L 4.890625 23.875 
z
" id="DejaVuSans-8212"/>
     <path d="M 9.078125 75.984375 
L 18.109375 75.984375 
L 18.109375 31.109375 
L 44.921875 54.6875 
L 56.390625 54.6875 
L 27.390625 29.109375 
L 57.625 0 
L 45.90625 0 
L 18.109375 26.703125 
L 18.109375 0 
L 9.078125 0 
z
" id="DejaVuSans-107"/>
    </defs>
    <g transform="translate(-2.309175 35.64)scale(0.2592 -0.2592)">
     <use xlink:href="#DejaVuSans-80"/>
     <use x="60.287109" xlink:href="#DejaVuSans-117"/>
     <use x="123.666016" xlink:href="#DejaVuSans-114"/>
     <use x="164.779297" xlink:href="#DejaVuSans-105"/>
     <use x="192.5625" xlink:href="#DejaVuSans-116"/>
     <use x="231.771484" xlink:href="#DejaVuSans-121"/>
     <use x="290.951172" xlink:href="#DejaVuSans-47"/>
     <use x="324.642578" xlink:href="#DejaVuSans-69"/>
     <use x="387.826172" xlink:href="#DejaVuSans-102"/>
     <use x="423.03125" xlink:href="#DejaVuSans-102"/>
     <use x="458.236328" xlink:href="#DejaVuSans-105"/>
     <use x="486.019531" xlink:href="#DejaVuSans-99"/>
     <use x="541" xlink:href="#DejaVuSans-105"/>
     <use x="568.783203" xlink:href="#DejaVuSans-101"/>
     <use x="630.306641" xlink:href="#DejaVuSans-110"/>
     <use x="693.685547" xlink:href="#DejaVuSans-99"/>
     <use x="748.666016" xlink:href="#DejaVuSans-121"/>
     <use x="807.845703" xlink:href="#DejaVuSans-32"/>
     <use x="839.632812" xlink:href="#DejaVuSans-118"/>
     <use x="898.8125" xlink:href="#DejaVuSans-115"/>
     <use x="950.912109" xlink:href="#DejaVuSans-32"/>
     <use x="982.699219" xlink:href="#DejaVuSans-67"/>
     <use x="1052.523438" xlink:href="#DejaVuSans-104"/>
     <use x="1115.902344" xlink:href="#DejaVuSans-97"/>
     <use x="1177.181641" xlink:href="#DejaVuSans-105"/>
     <use x="1204.964844" xlink:href="#DejaVuSans-110"/>
     <use x="1268.34375" xlink:href="#DejaVuSans-82"/>
     <use x="1337.826172" xlink:href="#DejaVuSans-83"/>
     <use x="1401.302734" xlink:href="#DejaVuSans-113"/>
     <use x="1464.779297" xlink:href="#DejaVuSans-117"/>
     <use x="1528.158203" xlink:href="#DejaVuSans-97"/>
     <use x="1589.4375" xlink:href="#DejaVuSans-114"/>
     <use x="1630.519531" xlink:href="#DejaVuSans-101"/>
     <use x="1692.042969" xlink:href="#DejaVuSans-100"/>
     <use x="1755.519531" xlink:href="#DejaVuSans-65"/>
     <use x="1823.849609" xlink:href="#DejaVuSans-118"/>
     <use x="1883.029297" xlink:href="#DejaVuSans-103"/>
     <use x="1946.505859" xlink:href="#DejaVuSans-85"/>
     <use x="2019.699219" xlink:href="#DejaVuSans-32"/>
     <use x="2051.486328" xlink:href="#DejaVuSans-67"/>
     <use x="2121.310547" xlink:href="#DejaVuSans-117"/>
     <use x="2184.689453" xlink:href="#DejaVuSans-116"/>
     <use x="2223.898438" xlink:href="#DejaVuSans-111"/>
     <use x="2285.080078" xlink:href="#DejaVuSans-102"/>
     <use x="2320.285156" xlink:href="#DejaVuSans-102"/>
     <use x="2355.490234" xlink:href="#DejaVuSans-32"/>
     <use x="2387.277344" xlink:href="#DejaVuSans-8212"/>
     <use x="2487.277344" xlink:href="#DejaVuSans-32"/>
     <use x="2519.064453" xlink:href="#DejaVuSans-116"/>
     <use x="2558.273438" xlink:href="#DejaVuSans-114"/>
     <use x="2599.386719" xlink:href="#DejaVuSans-97"/>
     <use x="2660.666016" xlink:href="#DejaVuSans-99"/>
     <use x="2715.646484" xlink:href="#DejaVuSans-107"/>
    </g>
   </g>
   <g id="legend_1">
    <g id="patch_7">
     <path d="M 248.447812 454.84 
L 465.837188 454.84 
Q 469.437188 454.84 469.437188 451.24 
L 469.437188 373.778125 
Q 469.437188 370.178125 465.837188 370.178125 
L 248.447812 370.178125 
Q 244.847813 370.178125 244.847813 373.778125 
L 244.847813 451.24 
Q 244.847813 454.84 248.447812 454.84 
z
" style="fill:#ffffff;opacity:0.8;stroke:#cccccc;stroke-linejoin:miter;"/>
    </g>
    <g id="line2d_17">
     <path d="M 252.047812 384.755313 
L 288.047812 384.755313 
" style="fill:none;stroke:#0000ff;stroke-linecap:square;stroke-width:1.5;"/>
    </g>
    <g id="line2d_18"/>
    <g id="text_16">
     <!-- Efficiency -->
     <g transform="translate(302.447812 391.055313)scale(0.18 -0.18)">
      <use xlink:href="#DejaVuSans-69"/>
      <use x="63.183594" xlink:href="#DejaVuSans-102"/>
      <use x="98.388672" xlink:href="#DejaVuSans-102"/>
      <use x="133.59375" xlink:href="#DejaVuSans-105"/>
      <use x="161.376953" xlink:href="#DejaVuSans-99"/>
      <use x="216.357422" xlink:href="#DejaVuSans-105"/>
      <use x="244.140625" xlink:href="#DejaVuSans-101"/>
      <use x="305.664062" xlink:href="#DejaVuSans-110"/>
      <use x="369.042969" xlink:href="#DejaVuSans-99"/>
      <use x="424.023438" xlink:href="#DejaVuSans-121"/>
     </g>
    </g>
    <g id="line2d_19">
     <path d="M 252.047812 411.175937 
L 288.047812 411.175937 
" style="fill:none;stroke:#ff0000;stroke-linecap:square;stroke-width:1.5;"/>
    </g>
    <g id="line2d_20"/>
    <g id="text_17">
     <!-- Purity -->
     <g transform="translate(302.447812 417.475937)scale(0.18 -0.18)">
      <use xlink:href="#DejaVuSans-80"/>
      <use x="60.287109" xlink:href="#DejaVuSans-117"/>
      <use x="123.666016" xlink:href="#DejaVuSans-114"/>
      <use x="164.779297" xlink:href="#DejaVuSans-105"/>
      <use x="192.5625" xlink:href="#DejaVuSans-116"/>
      <use x="231.771484" xlink:href="#DejaVuSans-121"/>
     </g>
    </g>
    <g id="line2d_21">
     <path d="M 252.047812 437.596562 
L 288.047812 437.596562 
" style="fill:none;stroke:#008000;stroke-linecap:square;stroke-width:1.5;"/>
    </g>
    <g id="line2d_22"/>
    <g id="text_18">
     <!-- Purity * Efficiency -->
     <defs>
      <path d="M 47.015625 60.890625 
L 29.5 51.421875 
L 47.015625 41.890625 
L 44.1875 37.109375 
L 27.78125 47.015625 
L 27.78125 28.609375 
L 22.21875 28.609375 
L 22.21875 47.015625 
L 5.8125 37.109375 
L 2.984375 41.890625 
L 20.515625 51.421875 
L 2.984375 60.890625 
L 5.8125 65.71875 
L 22.21875 55.8125 
L 22.21875 74.21875 
L 27.78125 74.21875 
L 27.78125 55.8125 
L 44.1875 65.71875 
z
" id="DejaVuSans-42"/>
     </defs>
     <g transform="translate(302.447812 443.896562)scale(0.18 -0.18)">
      <use xlink:href="#DejaVuSans-80"/>
      <use x="60.287109" xlink:href="#DejaVuSans-117"/>
      <use x="123.666016" xlink:href="#DejaVuSans-114"/>
      <use x="164.779297" xlink:href="#DejaVuSans-105"/>
      <use x="192.5625" xlink:href="#DejaVuSans-116"/>
      <use x="231.771484" xlink:href="#DejaVuSans-121"/>
      <use x="290.951172" xlink:href="#DejaVuSans-32"/>
      <use x="322.738281" xlink:href="#DejaVuSans-42"/>
      <use x="372.738281" xlink:href="#DejaVuSans-32"/>
      <use x="404.525391" xlink:href="#DejaVuSans-69"/>
      <use x="467.708984" xlink:href="#DejaVuSans-102"/>
      <use x="502.914062" xlink:href="#DejaVuSans-102"/>
      <use x="538.119141" xlink:href="#DejaVuSans-105"/>
      <use x="565.902344" xlink:href="#DejaVuSans-99"/>
      <use x="620.882812" xlink:href="#DejaVuSans-105"/>
      <use x="648.666016" xlink:href="#DejaVuSans-101"/>
      <use x="710.189453" xlink:href="#DejaVuSans-110"/>
      <use x="773.568359" xlink:href="#DejaVuSans-99"/>
      <use x="828.548828" xlink:href="#DejaVuSans-121"/>
     </g>
    </g>
   </g>
  </g>
  <g id="axes_2">
   <g id="patch_8">
    <path d="M 833.912386 463.84 
L 1304.172614 463.84 
L 1304.172614 41.64 
L 833.912386 41.64 
z
" style="fill:#ffffff;"/>
   </g>
   <g id="matplotlib.axis_3">
    <g id="xtick_7">
     <g id="line2d_23">
      <g>
       <use style="stroke:#000000;stroke-width:0.8;" x="855.287851" xlink:href="#mf0298a0754" y="463.84"/>
      </g>
     </g>
     <g id="text_19">
      <!-- 0.0 -->
      <g transform="translate(834.677401 490.53515)scale(0.2592 -0.2592)">
       <use xlink:href="#DejaVuSans-48"/>
       <use x="63.623047" xlink:href="#DejaVuSans-46"/>
       <use x="95.410156" xlink:href="#DejaVuSans-48"/>
      </g>
     </g>
    </g>
    <g id="xtick_8">
     <g id="line2d_24">
      <g>
       <use style="stroke:#000000;stroke-width:0.8;" x="940.789711" xlink:href="#mf0298a0754" y="463.84"/>
      </g>
     </g>
     <g id="text_20">
      <!-- 0.2 -->
      <g transform="translate(920.179261 490.53515)scale(0.2592 -0.2592)">
       <use xlink:href="#DejaVuSans-48"/>
       <use x="63.623047" xlink:href="#DejaVuSans-46"/>
       <use x="95.410156" xlink:href="#DejaVuSans-50"/>
      </g>
     </g>
    </g>
    <g id="xtick_9">
     <g id="line2d_25">
      <g>
       <use style="stroke:#000000;stroke-width:0.8;" x="1026.29157" xlink:href="#mf0298a0754" y="463.84"/>
      </g>
     </g>
     <g id="text_21">
      <!-- 0.4 -->
      <g transform="translate(1005.68112 490.53515)scale(0.2592 -0.2592)">
       <use xlink:href="#DejaVuSans-48"/>
       <use x="63.623047" xlink:href="#DejaVuSans-46"/>
       <use x="95.410156" xlink:href="#DejaVuSans-52"/>
      </g>
     </g>
    </g>
    <g id="xtick_10">
     <g id="line2d_26">
      <g>
       <use style="stroke:#000000;stroke-width:0.8;" x="1111.79343" xlink:href="#mf0298a0754" y="463.84"/>
      </g>
     </g>
     <g id="text_22">
      <!-- 0.6 -->
      <g transform="translate(1091.18298 490.53515)scale(0.2592 -0.2592)">
       <use xlink:href="#DejaVuSans-48"/>
       <use x="63.623047" xlink:href="#DejaVuSans-46"/>
       <use x="95.410156" xlink:href="#DejaVuSans-54"/>
      </g>
     </g>
    </g>
    <g id="xtick_11">
     <g id="line2d_27">
      <g>
       <use style="stroke:#000000;stroke-width:0.8;" x="1197.295289" xlink:href="#mf0298a0754" y="463.84"/>
      </g>
     </g>
     <g id="text_23">
      <!-- 0.8 -->
      <g transform="translate(1176.684839 490.53515)scale(0.2592 -0.2592)">
       <use xlink:href="#DejaVuSans-48"/>
       <use x="63.623047" xlink:href="#DejaVuSans-46"/>
       <use x="95.410156" xlink:href="#DejaVuSans-56"/>
      </g>
     </g>
    </g>
    <g id="xtick_12">
     <g id="line2d_28">
      <g>
       <use style="stroke:#000000;stroke-width:0.8;" x="1282.797149" xlink:href="#mf0298a0754" y="463.84"/>
      </g>
     </g>
     <g id="text_24">
      <!-- 1.0 -->
      <g transform="translate(1262.186699 490.53515)scale(0.2592 -0.2592)">
       <use xlink:href="#DejaVuSans-49"/>
       <use x="63.623047" xlink:href="#DejaVuSans-46"/>
       <use x="95.410156" xlink:href="#DejaVuSans-48"/>
      </g>
     </g>
    </g>
    <g id="text_25">
     <!-- ChainRSquaredAvgU Cutoff -->
     <g transform="translate(891.126 519.62085)scale(0.2592 -0.2592)">
      <use xlink:href="#DejaVuSans-67"/>
      <use x="69.824219" xlink:href="#DejaVuSans-104"/>
      <use x="133.203125" xlink:href="#DejaVuSans-97"/>
      <use x="194.482422" xlink:href="#DejaVuSans-105"/>
      <use x="222.265625" xlink:href="#DejaVuSans-110"/>
      <use x="285.644531" xlink:href="#DejaVuSans-82"/>
      <use x="355.126953" xlink:href="#DejaVuSans-83"/>
      <use x="418.603516" xlink:href="#DejaVuSans-113"/>
      <use x="482.080078" xlink:href="#DejaVuSans-117"/>
      <use x="545.458984" xlink:href="#DejaVuSans-97"/>
      <use x="606.738281" xlink:href="#DejaVuSans-114"/>
      <use x="647.820312" xlink:href="#DejaVuSans-101"/>
      <use x="709.34375" xlink:href="#DejaVuSans-100"/>
      <use x="772.820312" xlink:href="#DejaVuSans-65"/>
      <use x="841.150391" xlink:href="#DejaVuSans-118"/>
      <use x="900.330078" xlink:href="#DejaVuSans-103"/>
      <use x="963.806641" xlink:href="#DejaVuSans-85"/>
      <use x="1037" xlink:href="#DejaVuSans-32"/>
      <use x="1068.787109" xlink:href="#DejaVuSans-67"/>
      <use x="1138.611328" xlink:href="#DejaVuSans-117"/>
      <use x="1201.990234" xlink:href="#DejaVuSans-116"/>
      <use x="1241.199219" xlink:href="#DejaVuSans-111"/>
      <use x="1302.380859" xlink:href="#DejaVuSans-102"/>
      <use x="1337.585938" xlink:href="#DejaVuSans-102"/>
     </g>
    </g>
   </g>
   <g id="matplotlib.axis_4">
    <g id="ytick_7">
     <g id="line2d_29">
      <g>
       <use style="stroke:#000000;stroke-width:0.8;" x="833.912386" xlink:href="#m807ab6d6b4" y="463.84"/>
      </g>
     </g>
     <g id="text_26">
      <!-- 0.0 -->
      <g transform="translate(785.691486 473.687575)scale(0.2592 -0.2592)">
       <use xlink:href="#DejaVuSans-48"/>
       <use x="63.623047" xlink:href="#DejaVuSans-46"/>
       <use x="95.410156" xlink:href="#DejaVuSans-48"/>
      </g>
     </g>
    </g>
    <g id="ytick_8">
     <g id="line2d_30">
      <g>
       <use style="stroke:#000000;stroke-width:0.8;" x="833.912386" xlink:href="#m807ab6d6b4" y="379.4"/>
      </g>
     </g>
     <g id="text_27">
      <!-- 0.2 -->
      <g transform="translate(785.691486 389.247575)scale(0.2592 -0.2592)">
       <use xlink:href="#DejaVuSans-48"/>
       <use x="63.623047" xlink:href="#DejaVuSans-46"/>
       <use x="95.410156" xlink:href="#DejaVuSans-50"/>
      </g>
     </g>
    </g>
    <g id="ytick_9">
     <g id="line2d_31">
      <g>
       <use style="stroke:#000000;stroke-width:0.8;" x="833.912386" xlink:href="#m807ab6d6b4" y="294.96"/>
      </g>
     </g>
     <g id="text_28">
      <!-- 0.4 -->
      <g transform="translate(785.691486 304.807575)scale(0.2592 -0.2592)">
       <use xlink:href="#DejaVuSans-48"/>
       <use x="63.623047" xlink:href="#DejaVuSans-46"/>
       <use x="95.410156" xlink:href="#DejaVuSans-52"/>
      </g>
     </g>
    </g>
    <g id="ytick_10">
     <g id="line2d_32">
      <g>
       <use style="stroke:#000000;stroke-width:0.8;" x="833.912386" xlink:href="#m807ab6d6b4" y="210.52"/>
      </g>
     </g>
     <g id="text_29">
      <!-- 0.6 -->
      <g transform="translate(785.691486 220.367575)scale(0.2592 -0.2592)">
       <use xlink:href="#DejaVuSans-48"/>
       <use x="63.623047" xlink:href="#DejaVuSans-46"/>
       <use x="95.410156" xlink:href="#DejaVuSans-54"/>
      </g>
     </g>
    </g>
    <g id="ytick_11">
     <g id="line2d_33">
      <g>
       <use style="stroke:#000000;stroke-width:0.8;" x="833.912386" xlink:href="#m807ab6d6b4" y="126.08"/>
      </g>
     </g>
     <g id="text_30">
      <!-- 0.8 -->
      <g transform="translate(785.691486 135.927575)scale(0.2592 -0.2592)">
       <use xlink:href="#DejaVuSans-48"/>
       <use x="63.623047" xlink:href="#DejaVuSans-46"/>
       <use x="95.410156" xlink:href="#DejaVuSans-56"/>
      </g>
     </g>
    </g>
    <g id="ytick_12">
     <g id="line2d_34">
      <g>
       <use style="stroke:#000000;stroke-width:0.8;" x="833.912386" xlink:href="#m807ab6d6b4" y="41.64"/>
      </g>
     </g>
     <g id="text_31">
      <!-- 1.0 -->
      <g transform="translate(785.691486 51.487575)scale(0.2592 -0.2592)">
       <use xlink:href="#DejaVuSans-49"/>
       <use x="63.623047" xlink:href="#DejaVuSans-46"/>
       <use x="95.410156" xlink:href="#DejaVuSans-48"/>
      </g>
     </g>
    </g>
    <g id="text_32">
     <!-- Fraction -->
     <g transform="translate(776.300936 305.400125)rotate(-90)scale(0.2592 -0.2592)">
      <use xlink:href="#DejaVuSans-70"/>
      <use x="57.410156" xlink:href="#DejaVuSans-114"/>
      <use x="98.523438" xlink:href="#DejaVuSans-97"/>
      <use x="159.802734" xlink:href="#DejaVuSans-99"/>
      <use x="214.783203" xlink:href="#DejaVuSans-116"/>
      <use x="253.992188" xlink:href="#DejaVuSans-105"/>
      <use x="281.775391" xlink:href="#DejaVuSans-111"/>
      <use x="342.957031" xlink:href="#DejaVuSans-110"/>
     </g>
    </g>
   </g>
   <g id="line2d_35">
    <path clip-path="url(#p6e65d586c2)" d="M 855.287851 463.84 
L 919.906374 463.750494 
L 921.190185 463.705741 
L 933.600365 463.616235 
L 935.312114 463.526729 
L 938.307675 463.437223 
L 939.591486 463.39247 
L 944.726733 463.302964 
L 946.438482 463.213458 
L 952.429604 463.123952 
L 953.713415 463.079199 
L 956.708976 462.989693 
L 957.136913 462.855434 
L 959.704537 462.765927 
L 961.844223 462.631668 
L 963.128034 462.542162 
L 963.983909 462.452656 
L 966.123595 462.318397 
L 967.835344 462.228891 
L 968.263281 462.094632 
L 971.258842 462.005126 
L 972.114716 461.870867 
L 973.826465 461.781361 
L 978.533775 461.378584 
L 979.817587 461.289078 
L 982.813147 461.065313 
L 984.096959 461.02056 
L 985.380771 460.796795 
L 986.236645 460.796795 
L 987.09252 460.617782 
L 989.660143 460.528276 
L 993.083641 460.125499 
L 993.511578 459.946487 
L 994.367453 459.856981 
L 994.79539 459.633216 
L 997.79095 459.409451 
L 999.074762 459.319945 
L 999.930637 459.09618 
L 1001.642386 458.827662 
L 1003.354134 458.559144 
L 1005.921758 458.201119 
L 1007.20557 457.753589 
L 1007.633507 457.708836 
L 1008.489381 457.440318 
L 1012.340816 456.545258 
L 1012.768754 456.410999 
L 1013.624628 456.321492 
L 1014.90844 456.097727 
L 1017.048126 455.69495 
L 1017.904 455.605444 
L 1018.331938 455.560691 
L 1018.759875 455.381679 
L 1019.187812 455.381679 
L 1020.471624 455.023655 
L 1021.327498 454.844643 
L 1023.467184 454.262854 
L 1023.895122 454.173347 
L 1024.323059 453.949582 
L 1025.178933 453.725817 
L 1026.890682 453.009769 
L 1027.746557 453.009769 
L 1028.174494 452.830757 
L 1030.31418 452.562239 
L 1031.597992 452.069955 
L 1032.881804 451.711931 
L 1035.449427 450.995883 
L 1035.877364 450.637859 
L 1037.589113 450.279835 
L 1038.444988 449.787551 
L 1039.300862 449.47428 
L 1040.584674 448.892491 
L 1041.012611 448.802985 
L 1041.440548 448.57922 
L 1041.868486 448.489714 
L 1042.72436 448.13169 
L 1046.575795 446.878605 
L 1048.287544 446.028298 
L 1049.143419 445.849286 
L 1049.999293 445.357002 
L 1052.566916 444.193424 
L 1052.994854 443.924906 
L 1054.278665 443.701141 
L 1056.846289 442.716574 
L 1058.558038 442.090032 
L 1059.841849 441.284477 
L 1060.269787 441.239724 
L 1061.125661 440.613182 
L 1061.981536 440.389417 
L 1065.832971 438.688802 
L 1066.688845 438.241272 
L 1067.116782 437.704236 
L 1068.828531 436.674916 
L 1069.256469 436.495904 
L 1070.112343 435.735103 
L 1070.54028 435.600844 
L 1072.679966 434.258253 
L 1073.107904 433.855476 
L 1073.535841 433.76597 
L 1075.675527 432.333873 
L 1076.103464 432.110108 
L 1077.815213 430.812271 
L 1078.243151 430.678011 
L 1079.099025 430.230481 
L 1079.954899 429.782951 
L 1080.382837 429.424927 
L 1080.810774 428.887891 
L 1083.378397 426.829252 
L 1083.806335 426.605487 
L 1085.518084 425.262896 
L 1087.229832 424.278329 
L 1087.65777 423.786046 
L 1088.513644 423.24901 
L 1089.797456 422.398703 
L 1091.081268 420.787594 
L 1091.937142 420.026792 
L 1092.365079 419.758274 
L 1093.220954 419.042226 
L 1093.648891 418.863214 
L 1095.36064 417.162599 
L 1096.644452 415.820008 
L 1097.072389 415.685749 
L 1097.500326 415.10396 
L 1098.784138 414.119394 
L 1101.779698 410.404893 
L 1102.207636 410.091622 
L 1103.06351 409.196561 
L 1104.775259 407.674959 
L 1105.203196 407.093169 
L 1106.914945 405.661073 
L 1107.342883 405.079283 
L 1107.77082 404.721259 
L 1108.626694 403.602434 
L 1109.910506 402.170337 
L 1110.338443 401.454289 
L 1110.76638 401.230524 
L 1111.622255 400.201204 
L 1112.478129 399.082379 
L 1113.761941 397.695035 
L 1116.329564 394.114793 
L 1116.757502 393.398745 
L 1117.185439 392.995968 
L 1118.041313 391.2506 
L 1121.892748 385.432707 
L 1123.17656 383.10555 
L 1123.604497 382.702773 
L 1124.888309 380.73364 
L 1125.744184 379.346296 
L 1126.600058 378.182718 
L 1129.167681 374.06544 
L 1130.023556 372.991367 
L 1130.451493 372.409578 
L 1132.163242 368.963596 
L 1133.019117 367.307734 
L 1133.447054 366.457426 
L 1133.874991 365.965143 
L 1134.302928 365.159589 
L 1134.730866 364.667305 
L 1135.158803 363.145703 
L 1136.014677 361.221323 
L 1136.442614 360.102497 
L 1136.870552 359.296943 
L 1137.298489 358.80466 
L 1138.154363 356.656515 
L 1138.582301 355.985219 
L 1139.866112 352.942014 
L 1141.577861 349.76455 
L 1142.861673 346.676591 
L 1144.145485 344.394187 
L 1144.573422 343.006843 
L 1146.713108 338.844812 
L 1147.141045 337.860246 
L 1147.568983 336.428149 
L 1147.99692 335.39883 
L 1148.424857 334.772287 
L 1150.136606 330.252232 
L 1150.564543 329.62569 
L 1151.420418 327.522298 
L 1152.704229 324.300081 
L 1153.560104 321.793911 
L 1154.415978 319.914285 
L 1154.843916 318.884965 
L 1155.69979 316.065525 
L 1156.127727 315.438982 
L 1158.695351 307.875722 
L 1160.4071 303.310914 
L 1161.262974 300.312461 
L 1161.690911 299.327895 
L 1162.546786 297.940551 
L 1162.974723 297.000738 
L 1163.40266 295.389629 
L 1164.258535 293.375743 
L 1166.398221 288.050134 
L 1167.254095 285.096434 
L 1169.393782 279.502307 
L 1170.677593 274.982251 
L 1171.961405 270.909727 
L 1174.956966 260.034742 
L 1178.380463 250.054819 
L 1180.092212 244.773962 
L 1180.948087 241.730757 
L 1182.231899 237.255455 
L 1182.659836 235.331075 
L 1183.087773 234.570273 
L 1184.371585 230.408243 
L 1186.939208 220.875849 
L 1187.795083 218.682951 
L 1189.078894 214.297155 
L 1189.506832 212.462281 
L 1189.934769 211.11969 
L 1190.362706 210.358889 
L 1190.790643 208.74778 
L 1191.218581 207.673708 
L 1192.930329 201.139767 
L 1195.070016 194.874344 
L 1195.497953 193.263235 
L 1196.353827 191.025584 
L 1198.065576 185.073432 
L 1199.777325 179.568811 
L 1200.205262 177.599678 
L 1200.6332 176.480852 
L 1201.061137 175.675298 
L 1201.917011 173.661412 
L 1203.200823 170.439194 
L 1204.056698 168.112037 
L 1204.912572 165.874386 
L 1205.340509 164.397537 
L 1207.052258 160.325012 
L 1207.908133 157.774089 
L 1208.33607 156.700017 
L 1209.619882 152.493233 
L 1212.615442 143.363617 
L 1213.471317 141.528743 
L 1213.899254 140.320411 
L 1214.327191 139.55961 
L 1215.611003 135.397579 
L 1216.03894 134.592025 
L 1221.174187 120.360564 
L 1222.030061 118.07816 
L 1222.457999 117.093593 
L 1222.885936 115.661497 
L 1224.597685 112.081255 
L 1225.025622 110.82817 
L 1225.881497 108.948544 
L 1226.309434 107.5612 
L 1227.593245 104.652254 
L 1230.160869 98.207819 
L 1231.016743 96.283439 
L 1231.444681 95.298872 
L 1232.300555 94.001035 
L 1233.15643 92.255667 
L 1233.584367 91.494865 
L 1234.440241 89.257214 
L 1235.724053 87.780365 
L 1236.579927 86.706292 
L 1237.007865 86.07975 
L 1238.291676 83.170803 
L 1238.719614 82.499508 
L 1240.003425 79.85908 
L 1241.287237 78.024206 
L 1242.143111 76.234085 
L 1245.138672 72.340572 
L 1245.994547 70.997982 
L 1247.278358 69.744897 
L 1248.990107 66.791198 
L 1249.418044 66.388421 
L 1250.273919 65.269595 
L 1250.701856 64.866818 
L 1251.129793 64.285029 
L 1251.557731 63.389968 
L 1251.985668 63.076697 
L 1252.841542 61.689353 
L 1253.697417 60.436269 
L 1254.125354 60.167751 
L 1254.981229 59.138431 
L 1255.409166 58.82516 
L 1256.26504 57.885347 
L 1256.692977 57.527322 
L 1257.548852 56.542756 
L 1257.976789 56.00572 
L 1258.404726 55.155412 
L 1258.832664 54.9764 
L 1260.97235 53.007267 
L 1261.400287 52.738749 
L 1262.256161 51.754183 
L 1262.684099 51.70943 
L 1263.112036 51.396159 
L 1263.539973 51.2619 
L 1264.395848 50.456345 
L 1265.679659 49.650791 
L 1266.107597 49.248014 
L 1268.247283 48.129188 
L 1268.67522 47.592152 
L 1269.531094 47.010363 
L 1269.959032 46.741844 
L 1270.814906 46.38382 
L 1271.670781 45.802031 
L 1272.098718 45.623019 
L 1273.38253 44.772711 
L 1274.238404 44.504193 
L 1275.950153 43.877651 
L 1276.37809 43.519627 
L 1280.229525 41.998024 
L 1281.0854 41.863765 
L 1282.369212 41.774259 
L 1282.797149 41.64 
L 1282.797149 41.64 
" style="fill:none;stroke:#0000ff;stroke-linecap:square;stroke-width:1.5;"/>
   </g>
   <g id="line2d_36">
    <path clip-path="url(#p6e65d586c2)" d="M 868.125968 463.84 
L 874.545027 463.84 
L 874.972964 393.473333 
L 875.828839 393.473333 
L 876.256776 403.525714 
L 876.684713 403.525714 
L 877.11265 411.065 
L 879.252336 411.065 
L 879.680274 416.928889 
L 880.108211 416.928889 
L 880.536148 421.62 
L 883.959646 421.62 
L 884.387583 425.458182 
L 887.383144 425.458182 
L 887.811081 428.656667 
L 888.239018 428.656667 
L 888.666956 431.363077 
L 889.094893 431.363077 
L 889.950767 435.693333 
L 890.378704 439.004706 
L 890.806642 439.004706 
L 891.234579 440.384444 
L 891.662516 440.384444 
L 892.518391 444.649091 
L 894.23014 444.649091 
L 895.086014 446.248333 
L 895.513951 447.601538 
L 895.941889 447.601538 
L 896.369826 448.202963 
L 896.797763 448.202963 
L 897.2257 450.220645 
L 898.081575 451.046061 
L 898.937449 452.429189 
L 899.365386 452.429189 
L 900.221261 453.542439 
L 900.649198 453.787619 
L 901.077135 453.787619 
L 903.216822 454.857021 
L 903.644759 455.396 
L 904.500633 456.021481 
L 904.92857 456.163636 
L 905.784445 456.684068 
L 906.212382 456.803333 
L 907.068257 457.538507 
L 907.496194 457.808571 
L 910.063817 458.356883 
L 910.919692 458.753253 
L 911.775566 458.81381 
L 912.203503 458.81381 
L 913.059378 459.09618 
L 914.771127 459.531837 
L 915.199064 455.310707 
L 915.627001 455.396 
L 916.910813 456.232793 
L 917.33875 456.432982 
L 917.766688 456.497391 
L 918.194625 456.803333 
L 919.050499 457.138413 
L 919.906374 457.491128 
L 920.334311 454.457778 
L 921.190185 454.920282 
L 922.04606 455.281892 
L 922.901934 455.451921 
L 924.185746 455.92375 
L 924.613683 455.972919 
L 925.041621 456.255569 
L 925.897495 456.476047 
L 926.325432 454.298757 
L 928.465118 454.90455 
L 929.320993 455.179487 
L 931.032742 455.641942 
L 931.460679 453.739522 
L 932.316553 454.021395 
L 933.172428 454.415893 
L 933.600365 454.457778 
L 934.028302 452.777991 
L 934.45624 452.873766 
L 934.884177 451.317119 
L 935.740051 451.727705 
L 936.167989 450.109919 
L 936.595926 450.220645 
L 937.4518 450.64625 
L 937.879738 450.64625 
L 938.735612 447.786768 
L 939.163549 447.786768 
L 940.447361 448.374799 
L 940.875298 447.013188 
L 941.303235 447.253571 
L 941.731173 446.000563 
L 942.15911 446.187038 
L 942.587047 446.187038 
L 943.442922 446.723784 
L 943.870859 447.063841 
L 944.726733 447.174211 
L 945.154671 446.191768 
L 945.582608 446.304537 
L 946.010545 445.310846 
L 949.006106 446.805994 
L 949.434043 447.000114 
L 949.86198 447.047955 
L 950.289917 445.950169 
L 950.717855 446.248333 
L 951.145792 446.393719 
L 951.573729 445.383169 
L 952.429604 445.729544 
L 952.857541 444.902269 
L 953.285478 445.293747 
L 954.56929 445.8965 
L 954.997227 445.075556 
L 956.281039 445.70253 
L 956.708976 444.965176 
L 957.136913 442.53633 
L 957.56485 442.92018 
L 957.992788 443.060582 
L 958.420725 441.372594 
L 959.704537 441.764183 
L 960.988348 440.287521 
L 961.416285 440.287521 
L 961.844223 440.480574 
L 962.700097 441.0412 
L 963.555972 438.075827 
L 963.983909 438.227084 
L 964.411846 437.707698 
L 965.267721 438.252121 
L 965.695658 437.846343 
L 966.123595 437.257037 
L 966.551532 437.4525 
L 967.407407 436.552388 
L 967.835344 436.79516 
L 968.263281 435.153937 
L 968.691218 435.203826 
L 969.119156 434.722759 
L 969.97503 434.971624 
L 970.402967 434.550321 
L 971.258842 434.79604 
L 971.686779 433.732869 
L 972.114716 433.38623 
L 972.542654 433.584625 
L 972.970591 433.196452 
L 973.398528 433.061553 
L 973.826465 433.207192 
L 974.68234 432.125446 
L 975.538214 431.412965 
L 975.966151 431.512282 
L 976.394089 431.264811 
L 976.822026 430.825865 
L 977.249963 430.924858 
L 978.533775 429.691471 
L 978.961712 429.791613 
L 980.245524 428.707145 
L 980.673461 427.908085 
L 981.529335 428.361008 
L 982.38521 427.634744 
L 982.813147 427.684751 
L 983.241084 428.17733 
L 983.669022 427.749634 
L 984.096959 428.089194 
L 984.524896 427.102383 
L 984.952833 426.883501 
L 985.380771 426.11385 
L 986.236645 426.603165 
L 986.664582 425.210876 
L 987.09252 424.817664 
L 987.520457 424.967366 
L 987.948394 425.26335 
L 988.376331 424.875904 
L 988.804268 424.925101 
L 989.232206 424.540881 
L 989.660143 424.590251 
L 990.943955 423.704938 
L 991.371892 423.482647 
L 992.227766 422.749976 
L 992.655704 422.027923 
L 993.083641 421.772053 
L 993.511578 420.112143 
L 993.939515 420.319384 
L 994.367453 419.528915 
L 994.79539 417.476916 
L 995.223327 417.255796 
L 995.651264 417.471214 
L 996.079201 417.252414 
L 996.507139 417.196036 
L 996.935076 417.407574 
L 997.363013 416.823352 
L 997.79095 417.086309 
L 998.218888 417.500976 
L 998.646825 417.54614 
L 999.074762 417.338146 
L 999.502699 416.319654 
L 999.930637 415.66648 
L 1000.358574 415.472334 
L 1000.786511 415.486235 
L 1001.642386 414.377238 
L 1002.070323 413.807983 
L 1002.49826 413.630072 
L 1002.926197 412.690513 
L 1003.354134 412.951747 
L 1003.782072 412.625117 
L 1004.210009 412.612497 
L 1004.637946 412.818852 
L 1005.065883 412.804835 
L 1005.493821 412.321548 
L 1005.921758 411.532035 
L 1006.777632 409.49341 
L 1007.20557 409.259011 
L 1007.633507 409.16949 
L 1008.061444 407.995535 
L 1008.917319 407.103207 
L 1009.345256 406.143232 
L 1009.773193 405.525083 
L 1010.20113 405.68573 
L 1010.629067 405.340091 
L 1011.912879 403.094513 
L 1012.340816 402.830603 
L 1012.768754 402.036473 
L 1013.196691 402.199543 
L 1013.624628 402.000767 
L 1014.052565 402.11699 
L 1014.480503 402.019156 
L 1014.90844 401.251654 
L 1015.336377 400.851935 
L 1016.192252 399.569016 
L 1016.620189 400.051853 
L 1017.048126 400.01907 
L 1017.476063 400.387977 
L 1017.904 399.954474 
L 1018.331938 400.027092 
L 1018.759875 399.43661 
L 1019.187812 399.695466 
L 1019.615749 398.99008 
L 1020.043687 397.829365 
L 1020.471624 398.194065 
L 1020.899561 397.964823 
L 1022.183373 395.775047 
L 1022.61131 394.723089 
L 1023.467184 395.02751 
L 1023.895122 394.857247 
L 1024.323059 393.737671 
L 1024.750996 393.578358 
L 1025.606871 392.280678 
L 1026.034808 391.312953 
L 1026.462745 391.173769 
L 1026.890682 390.281757 
L 1027.746557 391.067635 
L 1028.174494 390.335966 
L 1028.602431 390.349232 
L 1029.030369 390.066105 
L 1029.458306 390.221092 
L 1029.886243 390.183336 
L 1030.31418 389.955 
L 1030.742117 389.299862 
L 1031.170055 388.023413 
L 1031.597992 387.993962 
L 1032.025929 387.780857 
L 1032.453866 387.154112 
L 1032.881804 386.895683 
L 1033.309741 386.408407 
L 1033.737678 386.796204 
L 1035.02149 385.624214 
L 1035.449427 385.259326 
L 1035.877364 383.64103 
L 1036.305302 383.716422 
L 1036.733239 384.007766 
L 1037.589113 383.785807 
L 1038.01705 382.909603 
L 1038.444988 382.458293 
L 1038.872925 382.28156 
L 1039.300862 381.802349 
L 1039.728799 380.926024 
L 1040.584674 379.952552 
L 1041.012611 379.750373 
L 1041.440548 379.051896 
L 1041.868486 379.153099 
L 1042.296423 378.318696 
L 1043.152297 377.795786 
L 1043.580235 377.172798 
L 1044.008172 377.093159 
L 1044.436109 377.148905 
L 1046.147858 375.793855 
L 1046.575795 375.532163 
L 1047.003732 374.907032 
L 1047.859607 374.088156 
L 1048.287544 373.595317 
L 1048.715481 373.48152 
L 1049.143419 373.561064 
L 1049.571356 372.571607 
L 1050.42723 371.999937 
L 1051.283105 371.103683 
L 1051.711042 371.314859 
L 1052.138979 370.495731 
L 1052.566916 369.946484 
L 1052.994854 369.142923 
L 1053.422791 369.6894 
L 1054.278665 369.692329 
L 1055.13454 368.404128 
L 1055.562477 368.431078 
L 1055.990414 367.819893 
L 1056.418352 367.857547 
L 1057.702163 367.354408 
L 1058.130101 367.485644 
L 1058.558038 367.143864 
L 1058.985975 366.576168 
L 1059.413912 366.424308 
L 1059.841849 365.916024 
L 1060.269787 366.215916 
L 1060.697724 365.301056 
L 1061.125661 364.734708 
L 1061.553598 364.711474 
L 1061.981536 364.987096 
L 1062.83741 364.860662 
L 1063.693285 364.000384 
L 1064.121222 364.153889 
L 1064.977096 363.807181 
L 1065.405034 364.044003 
L 1065.832971 363.596485 
L 1066.688845 363.215667 
L 1067.116782 361.9116 
L 1067.54472 361.624982 
L 1067.972657 361.686517 
L 1068.400594 361.276459 
L 1068.828531 361.20668 
L 1069.256469 360.942433 
L 1069.684406 360.127104 
L 1070.112343 359.862902 
L 1070.54028 359.814932 
L 1072.252029 358.891767 
L 1073.107904 357.894682 
L 1073.535841 358.172067 
L 1073.963778 357.978183 
L 1074.391715 357.360044 
L 1074.819653 357.020168 
L 1075.24759 357.182164 
L 1076.103464 356.741682 
L 1076.959339 355.752023 
L 1077.815213 355.084817 
L 1078.243151 355.098186 
L 1078.671088 354.936892 
L 1079.099025 354.992695 
L 1079.526962 354.899125 
L 1079.954899 354.556259 
L 1080.382837 353.967986 
L 1080.810774 353.00363 
L 1081.238711 352.504505 
L 1081.666648 352.299608 
L 1082.094586 351.876129 
L 1082.522523 351.641181 
L 1083.378397 350.696967 
L 1083.806335 350.453815 
L 1084.234272 350.024852 
L 1084.662209 349.808304 
L 1085.090146 349.132084 
L 1087.229832 348.611596 
L 1087.65777 348.071311 
L 1088.085707 348.133544 
L 1088.513644 348.079601 
L 1088.941581 347.677809 
L 1089.369519 347.440839 
L 1089.797456 347.379708 
L 1090.225393 346.513631 
L 1090.65333 345.305921 
L 1091.509205 344.370306 
L 1092.365079 344.02813 
L 1092.793017 343.522683 
L 1093.220954 343.331816 
L 1093.648891 343.468085 
L 1094.076828 343.041242 
L 1094.504765 342.839327 
L 1094.932703 341.983614 
L 1095.36064 341.621127 
L 1095.788577 341.047837 
L 1096.644452 340.468377 
L 1097.072389 340.860249 
L 1097.500326 340.277571 
L 1098.784138 339.880116 
L 1099.212075 339.330914 
L 1100.06795 337.914929 
L 1100.495887 337.670297 
L 1101.351761 336.890013 
L 1101.779698 336.443791 
L 1102.207636 336.309266 
L 1102.635573 335.624916 
L 1103.06351 335.316889 
L 1103.491447 335.307971 
L 1103.919385 335.412167 
L 1104.347322 335.236474 
L 1105.203196 334.121173 
L 1105.631134 334.213628 
L 1106.059071 334.041004 
L 1106.487008 334.388097 
L 1107.342883 333.343625 
L 1107.77082 333.224965 
L 1108.198757 332.609034 
L 1108.626694 332.354299 
L 1109.482569 332.059497 
L 1109.910506 331.614636 
L 1110.338443 330.955195 
L 1110.76638 331.137731 
L 1111.194318 330.960089 
L 1112.050192 329.973981 
L 1113.334004 329.524473 
L 1114.189878 328.841029 
L 1115.47369 327.347945 
L 1115.901627 327.089686 
L 1116.329564 326.686622 
L 1116.757502 325.96805 
L 1117.185439 326.17932 
L 1118.041313 324.792609 
L 1119.325125 323.387515 
L 1120.181 322.744884 
L 1120.608937 322.053937 
L 1121.464811 321.3228 
L 1121.892748 320.599411 
L 1122.320686 320.210808 
L 1122.748623 319.475359 
L 1123.17656 318.98477 
L 1123.604497 319.142722 
L 1125.744184 317.068945 
L 1126.172121 316.920586 
L 1127.027995 316.196224 
L 1128.311807 314.814933 
L 1129.595619 313.744259 
L 1130.023556 313.635654 
L 1131.307368 312.721517 
L 1131.735305 312.154844 
L 1132.163242 311.384882 
L 1132.591179 310.864843 
L 1133.019117 310.680666 
L 1133.447054 310.364023 
L 1133.874991 310.229719 
L 1134.302928 309.861998 
L 1134.730866 309.984516 
L 1135.158803 309.049386 
L 1136.442614 307.504601 
L 1136.870552 307.216338 
L 1137.298489 307.224953 
L 1137.726426 306.805423 
L 1138.154363 306.165121 
L 1138.582301 305.940869 
L 1139.010238 305.368448 
L 1139.438175 305.061718 
L 1139.866112 304.356524 
L 1140.721987 304.226253 
L 1141.149924 303.51409 
L 1141.577861 303.286845 
L 1142.005799 302.841067 
L 1142.433736 302.640883 
L 1142.861673 302.172661 
L 1143.28961 302.163354 
L 1143.717547 301.872717 
L 1144.145485 301.959264 
L 1144.573422 301.316476 
L 1146.285171 300.194761 
L 1147.141045 299.728843 
L 1147.568983 299.023957 
L 1147.99692 298.711355 
L 1148.424857 298.559044 
L 1149.708669 297.471017 
L 1150.136606 296.8066 
L 1150.564543 296.798074 
L 1150.99248 296.511391 
L 1151.420418 296.039739 
L 1152.276292 295.461322 
L 1153.132167 294.335794 
L 1154.843916 293.328055 
L 1155.69979 291.940567 
L 1156.127727 291.890209 
L 1157.839476 290.115165 
L 1159.123288 289.16744 
L 1159.551225 289.020492 
L 1159.979162 288.485053 
L 1160.4071 288.213026 
L 1161.262974 287.266943 
L 1161.690911 287.093935 
L 1162.546786 287.152779 
L 1162.974723 287.08968 
L 1163.40266 286.478304 
L 1163.830597 286.23194 
L 1164.258535 286.22129 
L 1165.114409 285.558261 
L 1165.542346 285.616606 
L 1165.970284 285.551338 
L 1167.254095 284.277994 
L 1168.537907 283.883001 
L 1168.965844 283.751773 
L 1169.393782 283.478892 
L 1170.249656 282.569583 
L 1171.533468 281.675295 
L 1171.961405 281.483102 
L 1173.245217 280.240414 
L 1174.101091 279.625959 
L 1174.956966 278.555351 
L 1175.384903 278.47502 
L 1175.81284 278.241202 
L 1176.240777 278.177841 
L 1176.668715 277.910843 
L 1177.096652 277.79585 
L 1177.524589 277.419667 
L 1178.380463 277.267438 
L 1179.664275 276.815169 
L 1180.092212 276.76034 
L 1180.948087 276.266945 
L 1181.803961 275.493405 
L 1182.231899 275.389096 
L 1182.659836 274.937687 
L 1183.087773 275.119068 
L 1184.371585 274.56667 
L 1185.227459 273.733271 
L 1185.655396 273.639222 
L 1186.083334 273.32385 
L 1186.939208 272.893332 
L 1187.367145 273.057259 
L 1188.22302 272.813395 
L 1188.650957 272.467038 
L 1189.078894 272.427105 
L 1189.934769 271.862916 
L 1190.362706 271.933989 
L 1193.786204 270.648059 
L 1194.642078 270.576706 
L 1195.070016 270.659794 
L 1195.497953 270.430302 
L 1196.353827 270.558895 
L 1196.781765 270.566783 
L 1197.637639 270.153368 
L 1198.493514 270.20661 
L 1198.921451 270.123618 
L 1200.205262 269.427387 
L 1200.6332 269.479074 
L 1201.489074 269.791308 
L 1202.344949 269.977822 
L 1204.484635 270.012615 
L 1204.912572 270.151059 
L 1205.340509 269.965853 
L 1208.33607 270.939487 
L 1208.764007 270.755098 
L 1209.191944 270.782497 
L 1209.619882 270.65101 
L 1210.475756 270.757207 
L 1210.903693 270.989299 
L 1211.759568 270.887026 
L 1213.043379 271.123359 
L 1214.327191 271.482027 
L 1214.755128 271.392521 
L 1216.03894 271.664946 
L 1216.894815 271.815535 
L 1217.322752 272.17018 
L 1217.750689 272.136572 
L 1218.178626 272.287007 
L 1218.606564 272.102526 
L 1220.318312 272.355876 
L 1220.74625 272.39526 
L 1223.313873 273.288044 
L 1223.74181 273.326209 
L 1224.597685 273.65764 
L 1225.025622 273.699343 
L 1225.453559 273.986844 
L 1226.309434 274.106204 
L 1227.165308 274.479231 
L 1231.016743 276.02023 
L 1231.872618 276.505924 
L 1234.012304 277.660598 
L 1234.440241 277.771445 
L 1235.724053 278.733739 
L 1237.007865 279.58862 
L 1237.863739 279.987447 
L 1238.719614 280.543205 
L 1240.003425 281.20029 
L 1240.8593 281.782114 
L 1242.571049 282.950774 
L 1243.426923 283.775894 
L 1243.85486 283.953631 
L 1245.566609 285.395454 
L 1246.422484 286.002341 
L 1247.278358 286.772171 
L 1248.134233 287.297793 
L 1252.413605 290.967674 
L 1252.841542 291.257131 
L 1256.26504 294.792275 
L 1256.692977 295.349723 
L 1257.120915 295.611303 
L 1258.832664 297.279019 
L 1260.544413 299.438938 
L 1262.256161 301.354938 
L 1263.112036 302.56191 
L 1265.679659 306.026551 
L 1269.103157 311.024579 
L 1272.098718 316.213756 
L 1275.094279 322.017821 
L 1276.37809 324.877238 
L 1278.945714 331.792063 
L 1279.801588 334.986398 
L 1280.657463 338.938007 
L 1281.0854 341.368879 
L 1281.941274 348.281239 
L 1282.369212 352.803519 
L 1282.797149 354.866897 
L 1282.797149 354.866897 
" style="fill:none;stroke:#ff0000;stroke-linecap:square;stroke-width:1.5;"/>
   </g>
   <g id="line2d_37">
    <path clip-path="url(#p6e65d586c2)" d="M 868.125968 463.84 
L 967.835344 463.736797 
L 971.686779 463.702772 
L 1001.214448 463.270587 
L 1023.895122 462.260577 
L 1026.034808 462.033358 
L 1032.881804 461.629706 
L 1043.152297 460.61129 
L 1045.719921 460.356487 
L 1047.43167 460.168448 
L 1055.990414 459.09701 
L 1058.558038 458.858622 
L 1059.841849 458.60853 
L 1060.269787 458.614204 
L 1061.125661 458.387843 
L 1063.265347 458.179744 
L 1064.977096 457.9763 
L 1065.832971 457.868317 
L 1066.688845 457.73897 
L 1067.116782 457.53025 
L 1077.387276 455.443136 
L 1078.671088 455.216869 
L 1079.954899 455.024553 
L 1084.234272 453.70594 
L 1090.225393 452.162084 
L 1090.65333 451.853408 
L 1093.220954 451.05341 
L 1093.648891 451.016831 
L 1098.356201 449.359434 
L 1099.212075 449.018747 
L 1100.06795 448.516491 
L 1101.351761 447.934246 
L 1102.635573 447.368018 
L 1103.491447 447.095685 
L 1104.347322 446.881892 
L 1105.631134 446.307326 
L 1106.059071 446.146391 
L 1106.487008 446.152539 
L 1108.626694 445.080221 
L 1109.910506 444.526183 
L 1110.338443 444.204488 
L 1110.76638 444.161128 
L 1111.622255 443.730141 
L 1112.478129 443.286309 
L 1114.189878 442.504038 
L 1115.901627 441.444491 
L 1117.613376 440.323075 
L 1118.469251 439.646649 
L 1119.753062 438.823061 
L 1121.464811 437.690194 
L 1122.748623 436.463665 
L 1123.17656 436.140314 
L 1123.604497 436.032478 
L 1127.455933 433.302158 
L 1128.311807 432.610134 
L 1131.307368 430.585604 
L 1133.447054 428.439987 
L 1133.874991 428.2299 
L 1134.302928 427.850866 
L 1134.730866 427.700107 
L 1135.158803 426.922586 
L 1136.870552 425.05763 
L 1137.298489 424.877151 
L 1138.154363 423.811239 
L 1138.582301 423.503249 
L 1139.866112 421.948962 
L 1140.721987 421.407174 
L 1141.149924 420.775991 
L 1141.577861 420.459674 
L 1142.861673 418.976199 
L 1143.28961 418.682277 
L 1143.717547 418.223393 
L 1144.145485 418.041857 
L 1144.573422 417.325953 
L 1147.141045 414.871068 
L 1147.568983 414.101684 
L 1147.99692 413.604764 
L 1148.424857 413.313153 
L 1150.564543 410.738586 
L 1151.420418 409.66154 
L 1152.704229 408.009708 
L 1153.132167 407.242772 
L 1155.271853 404.497294 
L 1155.69979 403.673376 
L 1156.127727 403.400578 
L 1158.695351 399.401884 
L 1160.4071 397.063028 
L 1161.262974 395.449291 
L 1161.690911 394.970111 
L 1162.546786 394.412448 
L 1162.974723 393.994209 
L 1163.40266 393.075804 
L 1163.830597 392.50685 
L 1164.258535 392.126022 
L 1165.114409 390.951229 
L 1165.970284 390.211356 
L 1167.682033 387.273222 
L 1169.821719 384.180522 
L 1170.677593 382.615 
L 1172.389342 379.623366 
L 1172.817279 378.606129 
L 1173.673154 377.157611 
L 1174.529028 375.504878 
L 1174.956966 374.399011 
L 1177.096652 371.370102 
L 1177.524589 370.550792 
L 1178.380463 369.367122 
L 1180.52015 366.054891 
L 1182.659836 361.599676 
L 1183.087773 361.357773 
L 1184.371585 359.191951 
L 1186.083334 355.616972 
L 1186.939208 353.955597 
L 1187.367145 353.605029 
L 1188.22302 352.269447 
L 1188.650957 351.276022 
L 1189.078894 350.704712 
L 1189.934769 348.926433 
L 1190.362706 348.623163 
L 1190.790643 347.78719 
L 1191.218581 347.254498 
L 1193.358267 343.142869 
L 1194.214141 341.832176 
L 1195.070016 340.773111 
L 1195.497953 339.888862 
L 1195.92589 339.493927 
L 1196.781765 338.234944 
L 1197.637639 336.529124 
L 1198.921451 334.784725 
L 1200.205262 332.033441 
L 1200.6332 331.553429 
L 1201.061137 331.314286 
L 1203.62876 328.582298 
L 1204.484635 327.581444 
L 1204.912572 327.144964 
L 1205.340509 326.336087 
L 1207.052258 324.831447 
L 1207.908133 323.930585 
L 1208.33607 323.509682 
L 1208.764007 322.679669 
L 1209.191944 322.167635 
L 1210.047819 320.805605 
L 1210.475756 320.286607 
L 1210.903693 319.968553 
L 1211.759568 318.460549 
L 1212.615442 317.423554 
L 1213.471317 316.830141 
L 1213.899254 316.351629 
L 1214.327191 316.095049 
L 1214.755128 315.353122 
L 1216.894815 312.931649 
L 1217.322752 312.925921 
L 1217.750689 312.310165 
L 1218.178626 311.921462 
L 1218.606564 311.084132 
L 1219.462438 310.185197 
L 1220.318312 309.195359 
L 1221.602124 307.773317 
L 1222.457999 307.14177 
L 1222.885936 306.523736 
L 1223.313873 306.312471 
L 1224.169748 305.659937 
L 1224.597685 305.388299 
L 1225.025622 304.858709 
L 1225.453559 304.696608 
L 1225.881497 304.299793 
L 1226.309434 303.730741 
L 1226.737371 303.52255 
L 1229.732932 301.095771 
L 1230.160869 300.871374 
L 1230.588806 300.438453 
L 1231.016743 300.328894 
L 1231.444681 300.063831 
L 1232.300555 299.960686 
L 1233.15643 299.599131 
L 1233.584367 299.511997 
L 1234.440241 298.756917 
L 1235.296116 298.93856 
L 1237.007865 298.982474 
L 1237.863739 298.481837 
L 1240.003425 297.733501 
L 1240.8593 297.741609 
L 1241.287237 297.716838 
L 1242.143111 297.492702 
L 1242.571049 297.542326 
L 1243.426923 297.900066 
L 1243.85486 297.796911 
L 1244.282798 297.937252 
L 1245.994547 298.045143 
L 1247.278358 298.559175 
L 1248.134233 298.357412 
L 1248.990107 298.451157 
L 1249.418044 298.735576 
L 1250.273919 298.969214 
L 1250.701856 299.224555 
L 1251.129793 299.262063 
L 1251.557731 299.139371 
L 1251.985668 299.410632 
L 1252.841542 299.452714 
L 1253.697417 299.844094 
L 1254.125354 300.171924 
L 1254.981229 300.372237 
L 1256.26504 301.296868 
L 1256.692977 301.689987 
L 1257.120915 301.709906 
L 1257.976789 302.234913 
L 1258.404726 302.150907 
L 1260.544413 304.056946 
L 1260.97235 304.303431 
L 1261.400287 304.774413 
L 1262.256161 305.247414 
L 1262.684099 305.879771 
L 1265.251722 308.45594 
L 1266.107597 309.461602 
L 1267.391408 310.998211 
L 1268.247283 312.12156 
L 1268.67522 312.49046 
L 1269.959032 314.337854 
L 1271.242843 316.320395 
L 1272.098718 317.606456 
L 1274.238404 321.22534 
L 1276.37809 325.495898 
L 1278.945714 332.044009 
L 1279.801588 335.150299 
L 1280.657463 339.017445 
L 1281.0854 341.433788 
L 1281.941274 348.330236 
L 1282.369212 352.838829 
L 1282.797149 354.866897 
L 1282.797149 354.866897 
" style="fill:none;stroke:#008000;stroke-linecap:square;stroke-width:1.5;"/>
   </g>
   <g id="line2d_38">
    <path clip-path="url(#p6e65d586c2)" d="M 1242.143111 463.84 
L 1242.143111 41.64 
" style="fill:none;stroke:#1f77b4;stroke-linecap:square;stroke-width:1.5;"/>
   </g>
   <g id="patch_9">
    <path d="M 833.912386 463.84 
L 833.912386 41.64 
" style="fill:none;stroke:#000000;stroke-linecap:square;stroke-linejoin:miter;stroke-width:0.8;"/>
   </g>
   <g id="patch_10">
    <path d="M 1304.172614 463.84 
L 1304.172614 41.64 
" style="fill:none;stroke:#000000;stroke-linecap:square;stroke-linejoin:miter;stroke-width:0.8;"/>
   </g>
   <g id="patch_11">
    <path d="M 833.912386 463.84 
L 1304.172614 463.84 
" style="fill:none;stroke:#000000;stroke-linecap:square;stroke-linejoin:miter;stroke-width:0.8;"/>
   </g>
   <g id="patch_12">
    <path d="M 833.912386 41.64 
L 1304.172614 41.64 
" style="fill:none;stroke:#000000;stroke-linecap:square;stroke-linejoin:miter;stroke-width:0.8;"/>
   </g>
   <g id="text_33">
    <!-- Purity/Efficiency vs ChainRSquaredAvgU Cutoff — shower -->
    <defs>
     <path d="M 4.203125 54.6875 
L 13.1875 54.6875 
L 24.421875 12.015625 
L 35.59375 54.6875 
L 46.1875 54.6875 
L 57.421875 12.015625 
L 68.609375 54.6875 
L 77.59375 54.6875 
L 63.28125 0 
L 52.6875 0 
L 40.921875 44.828125 
L 29.109375 0 
L 18.5 0 
z
" id="DejaVuSans-119"/>
    </defs>
    <g transform="translate(695.776275 35.64)scale(0.2592 -0.2592)">
     <use xlink:href="#DejaVuSans-80"/>
     <use x="60.287109" xlink:href="#DejaVuSans-117"/>
     <use x="123.666016" xlink:href="#DejaVuSans-114"/>
     <use x="164.779297" xlink:href="#DejaVuSans-105"/>
     <use x="192.5625" xlink:href="#DejaVuSans-116"/>
     <use x="231.771484" xlink:href="#DejaVuSans-121"/>
     <use x="290.951172" xlink:href="#DejaVuSans-47"/>
     <use x="324.642578" xlink:href="#DejaVuSans-69"/>
     <use x="387.826172" xlink:href="#DejaVuSans-102"/>
     <use x="423.03125" xlink:href="#DejaVuSans-102"/>
     <use x="458.236328" xlink:href="#DejaVuSans-105"/>
     <use x="486.019531" xlink:href="#DejaVuSans-99"/>
     <use x="541" xlink:href="#DejaVuSans-105"/>
     <use x="568.783203" xlink:href="#DejaVuSans-101"/>
     <use x="630.306641" xlink:href="#DejaVuSans-110"/>
     <use x="693.685547" xlink:href="#DejaVuSans-99"/>
     <use x="748.666016" xlink:href="#DejaVuSans-121"/>
     <use x="807.845703" xlink:href="#DejaVuSans-32"/>
     <use x="839.632812" xlink:href="#DejaVuSans-118"/>
     <use x="898.8125" xlink:href="#DejaVuSans-115"/>
     <use x="950.912109" xlink:href="#DejaVuSans-32"/>
     <use x="982.699219" xlink:href="#DejaVuSans-67"/>
     <use x="1052.523438" xlink:href="#DejaVuSans-104"/>
     <use x="1115.902344" xlink:href="#DejaVuSans-97"/>
     <use x="1177.181641" xlink:href="#DejaVuSans-105"/>
     <use x="1204.964844" xlink:href="#DejaVuSans-110"/>
     <use x="1268.34375" xlink:href="#DejaVuSans-82"/>
     <use x="1337.826172" xlink:href="#DejaVuSans-83"/>
     <use x="1401.302734" xlink:href="#DejaVuSans-113"/>
     <use x="1464.779297" xlink:href="#DejaVuSans-117"/>
     <use x="1528.158203" xlink:href="#DejaVuSans-97"/>
     <use x="1589.4375" xlink:href="#DejaVuSans-114"/>
     <use x="1630.519531" xlink:href="#DejaVuSans-101"/>
     <use x="1692.042969" xlink:href="#DejaVuSans-100"/>
     <use x="1755.519531" xlink:href="#DejaVuSans-65"/>
     <use x="1823.849609" xlink:href="#DejaVuSans-118"/>
     <use x="1883.029297" xlink:href="#DejaVuSans-103"/>
     <use x="1946.505859" xlink:href="#DejaVuSans-85"/>
     <use x="2019.699219" xlink:href="#DejaVuSans-32"/>
     <use x="2051.486328" xlink:href="#DejaVuSans-67"/>
     <use x="2121.310547" xlink:href="#DejaVuSans-117"/>
     <use x="2184.689453" xlink:href="#DejaVuSans-116"/>
     <use x="2223.898438" xlink:href="#DejaVuSans-111"/>
     <use x="2285.080078" xlink:href="#DejaVuSans-102"/>
     <use x="2320.285156" xlink:href="#DejaVuSans-102"/>
     <use x="2355.490234" xlink:href="#DejaVuSans-32"/>
     <use x="2387.277344" xlink:href="#DejaVuSans-8212"/>
     <use x="2487.277344" xlink:href="#DejaVuSans-32"/>
     <use x="2519.064453" xlink:href="#DejaVuSans-115"/>
     <use x="2571.164062" xlink:href="#DejaVuSans-104"/>
     <use x="2634.542969" xlink:href="#DejaVuSans-111"/>
     <use x="2695.724609" xlink:href="#DejaVuSans-119"/>
     <use x="2777.511719" xlink:href="#DejaVuSans-101"/>
     <use x="2839.035156" xlink:href="#DejaVuSans-114"/>
    </g>
   </g>
   <g id="legend_2">
    <g id="patch_13">
     <path d="M 960.347813 454.84 
L 1177.737188 454.84 
Q 1181.337188 454.84 1181.337188 451.24 
L 1181.337188 373.778125 
Q 1181.337188 370.178125 1177.737188 370.178125 
L 960.347813 370.178125 
Q 956.747813 370.178125 956.747813 373.778125 
L 956.747813 451.24 
Q 956.747813 454.84 960.347813 454.84 
z
" style="fill:#ffffff;opacity:0.8;stroke:#cccccc;stroke-linejoin:miter;"/>
    </g>
    <g id="line2d_39">
     <path d="M 963.947813 384.755313 
L 999.947813 384.755313 
" style="fill:none;stroke:#0000ff;stroke-linecap:square;stroke-width:1.5;"/>
    </g>
    <g id="line2d_40"/>
    <g id="text_34">
     <!-- Efficiency -->
     <g transform="translate(1014.347813 391.055313)scale(0.18 -0.18)">
      <use xlink:href="#DejaVuSans-69"/>
      <use x="63.183594" xlink:href="#DejaVuSans-102"/>
      <use x="98.388672" xlink:href="#DejaVuSans-102"/>
      <use x="133.59375" xlink:href="#DejaVuSans-105"/>
      <use x="161.376953" xlink:href="#DejaVuSans-99"/>
      <use x="216.357422" xlink:href="#DejaVuSans-105"/>
      <use x="244.140625" xlink:href="#DejaVuSans-101"/>
      <use x="305.664062" xlink:href="#DejaVuSans-110"/>
      <use x="369.042969" xlink:href="#DejaVuSans-99"/>
      <use x="424.023438" xlink:href="#DejaVuSans-121"/>
     </g>
    </g>
    <g id="line2d_41">
     <path d="M 963.947813 411.175937 
L 999.947813 411.175937 
" style="fill:none;stroke:#ff0000;stroke-linecap:square;stroke-width:1.5;"/>
    </g>
    <g id="line2d_42"/>
    <g id="text_35">
     <!-- Purity -->
     <g transform="translate(1014.347813 417.475937)scale(0.18 -0.18)">
      <use xlink:href="#DejaVuSans-80"/>
      <use x="60.287109" xlink:href="#DejaVuSans-117"/>
      <use x="123.666016" xlink:href="#DejaVuSans-114"/>
      <use x="164.779297" xlink:href="#DejaVuSans-105"/>
      <use x="192.5625" xlink:href="#DejaVuSans-116"/>
      <use x="231.771484" xlink:href="#DejaVuSans-121"/>
     </g>
    </g>
    <g id="line2d_43">
     <path d="M 963.947813 437.596562 
L 999.947813 437.596562 
" style="fill:none;stroke:#008000;stroke-linecap:square;stroke-width:1.5;"/>
    </g>
    <g id="line2d_44"/>
    <g id="text_36">
     <!-- Purity * Efficiency -->
     <g transform="translate(1014.347813 443.896562)scale(0.18 -0.18)">
      <use xlink:href="#DejaVuSans-80"/>
      <use x="60.287109" xlink:href="#DejaVuSans-117"/>
      <use x="123.666016" xlink:href="#DejaVuSans-114"/>
      <use x="164.779297" xlink:href="#DejaVuSans-105"/>
      <use x="192.5625" xlink:href="#DejaVuSans-116"/>
      <use x="231.771484" xlink:href="#DejaVuSans-121"/>
      <use x="290.951172" xlink:href="#DejaVuSans-32"/>
      <use x="322.738281" xlink:href="#DejaVuSans-42"/>
      <use x="372.738281" xlink:href="#DejaVuSans-32"/>
      <use x="404.525391" xlink:href="#DejaVuSans-69"/>
      <use x="467.708984" xlink:href="#DejaVuSans-102"/>
      <use x="502.914062" xlink:href="#DejaVuSans-102"/>
      <use x="538.119141" xlink:href="#DejaVuSans-105"/>
      <use x="565.902344" xlink:href="#DejaVuSans-99"/>
      <use x="620.882812" xlink:href="#DejaVuSans-105"/>
      <use x="648.666016" xlink:href="#DejaVuSans-101"/>
      <use x="710.189453" xlink:href="#DejaVuSans-110"/>
      <use x="773.568359" xlink:href="#DejaVuSans-99"/>
      <use x="828.548828" xlink:href="#DejaVuSans-121"/>
     </g>
    </g>
   </g>
  </g>
 </g>
 <defs>
  <clipPath id="pa806d226d3">
   <rect height="422.2" width="470.260227" x="122.012386" y="41.64"/>
  </clipPath>
  <clipPath id="p6e65d586c2">
   <rect height="422.2" width="470.260227" x="833.912386" y="41.64"/>
  </clipPath>
 </defs>
</svg>
