<?xml version="1.0" encoding="utf-8" standalone="no"?>
<!DOCTYPE svg PUBLIC "-//W3C//DTD SVG 1.1//EN"
  "http://www.w3.org/Graphics/SVG/1.1/DTD/svg11.dtd">
<!-- Created with matplotlib (https://matplotlib.org/) -->
<svg height="540pt" version="1.1" viewBox="0 0 1440 540" width="1440pt" xmlns="http://www.w3.org/2000/svg" xmlns:xlink="http://www.w3.org/1999/xlink">
 <defs>
  <style type="text/css">
*{stroke-linecap:butt;stroke-linejoin:round;}
  </style>
 </defs>
 <g id="figure_1">
  <g id="patch_1">
   <path d="M 0 540 
L 1440 540 
L 1440 0 
L 0 0 
z
" style="fill:#ffffff;"/>
  </g>
  <g id="axes_1">
   <g id="patch_2">
    <path d="M 92.99 463.84 
L 675.128864 463.84 
L 675.128864 41.64 
L 92.99 41.64 
z
" style="fill:#ffffff;"/>
   </g>
   <g id="matplotlib.axis_1">
    <g id="xtick_1">
     <g id="line2d_1">
      <defs>
       <path d="M 0 0 
L 0 3.5 
" id="mea3739014a" style="stroke:#000000;stroke-width:0.8;"/>
      </defs>
      <g>
       <use style="stroke:#000000;stroke-width:0.8;" x="119.450857" xlink:href="#mea3739014a" y="463.84"/>
      </g>
     </g>
     <g id="text_1">
      <!-- −10 -->
      <defs>
       <path d="M 10.59375 35.5 
L 73.1875 35.5 
L 73.1875 27.203125 
L 10.59375 27.203125 
z
" id="DejaVuSans-8722"/>
       <path d="M 12.40625 8.296875 
L 28.515625 8.296875 
L 28.515625 63.921875 
L 10.984375 60.40625 
L 10.984375 69.390625 
L 28.421875 72.90625 
L 38.28125 72.90625 
L 38.28125 8.296875 
L 54.390625 8.296875 
L 54.390625 0 
L 12.40625 0 
z
" id="DejaVuSans-49"/>
       <path d="M 31.78125 66.40625 
Q 24.171875 66.40625 20.328125 58.90625 
Q 16.5 51.421875 16.5 36.375 
Q 16.5 21.390625 20.328125 13.890625 
Q 24.171875 6.390625 31.78125 6.390625 
Q 39.453125 6.390625 43.28125 13.890625 
Q 47.125 21.390625 47.125 36.375 
Q 47.125 51.421875 43.28125 58.90625 
Q 39.453125 66.40625 31.78125 66.40625 
z
M 31.78125 74.21875 
Q 44.046875 74.21875 50.515625 64.515625 
Q 56.984375 54.828125 56.984375 36.375 
Q 56.984375 17.96875 50.515625 8.265625 
Q 44.046875 -1.421875 31.78125 -1.421875 
Q 19.53125 -1.421875 13.0625 8.265625 
Q 6.59375 17.96875 6.59375 36.375 
Q 6.59375 54.828125 13.0625 64.515625 
Q 19.53125 74.21875 31.78125 74.21875 
z
" id="DejaVuSans-48"/>
      </defs>
      <g transform="translate(92.099182 490.53515)scale(0.2592 -0.2592)">
       <use xlink:href="#DejaVuSans-8722"/>
       <use x="83.789062" xlink:href="#DejaVuSans-49"/>
       <use x="147.412109" xlink:href="#DejaVuSans-48"/>
      </g>
     </g>
    </g>
    <g id="xtick_2">
     <g id="line2d_2">
      <g>
       <use style="stroke:#000000;stroke-width:0.8;" x="225.294287" xlink:href="#mea3739014a" y="463.84"/>
      </g>
     </g>
     <g id="text_2">
      <!-- −5 -->
      <defs>
       <path d="M 10.796875 72.90625 
L 49.515625 72.90625 
L 49.515625 64.59375 
L 19.828125 64.59375 
L 19.828125 46.734375 
Q 21.96875 47.46875 24.109375 47.828125 
Q 26.265625 48.1875 28.421875 48.1875 
Q 40.625 48.1875 47.75 41.5 
Q 54.890625 34.8125 54.890625 23.390625 
Q 54.890625 11.625 47.5625 5.09375 
Q 40.234375 -1.421875 26.90625 -1.421875 
Q 22.3125 -1.421875 17.546875 -0.640625 
Q 12.796875 0.140625 7.71875 1.703125 
L 7.71875 11.625 
Q 12.109375 9.234375 16.796875 8.0625 
Q 21.484375 6.890625 26.703125 6.890625 
Q 35.15625 6.890625 40.078125 11.328125 
Q 45.015625 15.765625 45.015625 23.390625 
Q 45.015625 31 40.078125 35.4375 
Q 35.15625 39.890625 26.703125 39.890625 
Q 22.75 39.890625 18.8125 39.015625 
Q 14.890625 38.140625 10.796875 36.28125 
z
" id="DejaVuSans-53"/>
      </defs>
      <g transform="translate(206.188412 490.53515)scale(0.2592 -0.2592)">
       <use xlink:href="#DejaVuSans-8722"/>
       <use x="83.789062" xlink:href="#DejaVuSans-53"/>
      </g>
     </g>
    </g>
    <g id="xtick_3">
     <g id="line2d_3">
      <g>
       <use style="stroke:#000000;stroke-width:0.8;" x="331.137717" xlink:href="#mea3739014a" y="463.84"/>
      </g>
     </g>
     <g id="text_3">
      <!-- 0 -->
      <g transform="translate(322.891917 490.53515)scale(0.2592 -0.2592)">
       <use xlink:href="#DejaVuSans-48"/>
      </g>
     </g>
    </g>
    <g id="xtick_4">
     <g id="line2d_4">
      <g>
       <use style="stroke:#000000;stroke-width:0.8;" x="436.981147" xlink:href="#mea3739014a" y="463.84"/>
      </g>
     </g>
     <g id="text_4">
      <!-- 5 -->
      <g transform="translate(428.735347 490.53515)scale(0.2592 -0.2592)">
       <use xlink:href="#DejaVuSans-53"/>
      </g>
     </g>
    </g>
    <g id="xtick_5">
     <g id="line2d_5">
      <g>
       <use style="stroke:#000000;stroke-width:0.8;" x="542.824576" xlink:href="#mea3739014a" y="463.84"/>
      </g>
     </g>
     <g id="text_5">
      <!-- 10 -->
      <g transform="translate(526.332976 490.53515)scale(0.2592 -0.2592)">
       <use xlink:href="#DejaVuSans-49"/>
       <use x="63.623047" xlink:href="#DejaVuSans-48"/>
      </g>
     </g>
    </g>
    <g id="xtick_6">
     <g id="line2d_6">
      <g>
       <use style="stroke:#000000;stroke-width:0.8;" x="648.668006" xlink:href="#mea3739014a" y="463.84"/>
      </g>
     </g>
     <g id="text_6">
      <!-- 15 -->
      <g transform="translate(632.176406 490.53515)scale(0.2592 -0.2592)">
       <use xlink:href="#DejaVuSans-49"/>
       <use x="63.623047" xlink:href="#DejaVuSans-53"/>
      </g>
     </g>
    </g>
    <g id="text_7">
     <!-- BDTMulti Cutoff -->
     <defs>
      <path d="M 19.671875 34.8125 
L 19.671875 8.109375 
L 35.5 8.109375 
Q 43.453125 8.109375 47.28125 11.40625 
Q 51.125 14.703125 51.125 21.484375 
Q 51.125 28.328125 47.28125 31.5625 
Q 43.453125 34.8125 35.5 34.8125 
z
M 19.671875 64.796875 
L 19.671875 42.828125 
L 34.28125 42.828125 
Q 41.5 42.828125 45.03125 45.53125 
Q 48.578125 48.25 48.578125 53.8125 
Q 48.578125 59.328125 45.03125 62.0625 
Q 41.5 64.796875 34.28125 64.796875 
z
M 9.8125 72.90625 
L 35.015625 72.90625 
Q 46.296875 72.90625 52.390625 68.21875 
Q 58.5 63.53125 58.5 54.890625 
Q 58.5 48.1875 55.375 44.234375 
Q 52.25 40.28125 46.1875 39.3125 
Q 53.46875 37.75 57.5 32.78125 
Q 61.53125 27.828125 61.53125 20.40625 
Q 61.53125 10.640625 54.890625 5.3125 
Q 48.25 0 35.984375 0 
L 9.8125 0 
z
" id="DejaVuSans-66"/>
      <path d="M 19.671875 64.796875 
L 19.671875 8.109375 
L 31.59375 8.109375 
Q 46.6875 8.109375 53.6875 14.9375 
Q 60.6875 21.78125 60.6875 36.53125 
Q 60.6875 51.171875 53.6875 57.984375 
Q 46.6875 64.796875 31.59375 64.796875 
z
M 9.8125 72.90625 
L 30.078125 72.90625 
Q 51.265625 72.90625 61.171875 64.09375 
Q 71.09375 55.28125 71.09375 36.53125 
Q 71.09375 17.671875 61.125 8.828125 
Q 51.171875 0 30.078125 0 
L 9.8125 0 
z
" id="DejaVuSans-68"/>
      <path d="M -0.296875 72.90625 
L 61.375 72.90625 
L 61.375 64.59375 
L 35.5 64.59375 
L 35.5 0 
L 25.59375 0 
L 25.59375 64.59375 
L -0.296875 64.59375 
z
" id="DejaVuSans-84"/>
      <path d="M 9.8125 72.90625 
L 24.515625 72.90625 
L 43.109375 23.296875 
L 61.8125 72.90625 
L 76.515625 72.90625 
L 76.515625 0 
L 66.890625 0 
L 66.890625 64.015625 
L 48.09375 14.015625 
L 38.1875 14.015625 
L 19.390625 64.015625 
L 19.390625 0 
L 9.8125 0 
z
" id="DejaVuSans-77"/>
      <path d="M 8.5 21.578125 
L 8.5 54.6875 
L 17.484375 54.6875 
L 17.484375 21.921875 
Q 17.484375 14.15625 20.5 10.265625 
Q 23.53125 6.390625 29.59375 6.390625 
Q 36.859375 6.390625 41.078125 11.03125 
Q 45.3125 15.671875 45.3125 23.6875 
L 45.3125 54.6875 
L 54.296875 54.6875 
L 54.296875 0 
L 45.3125 0 
L 45.3125 8.40625 
Q 42.046875 3.421875 37.71875 1 
Q 33.40625 -1.421875 27.6875 -1.421875 
Q 18.265625 -1.421875 13.375 4.4375 
Q 8.5 10.296875 8.5 21.578125 
z
M 31.109375 56 
z
" id="DejaVuSans-117"/>
      <path d="M 9.421875 75.984375 
L 18.40625 75.984375 
L 18.40625 0 
L 9.421875 0 
z
" id="DejaVuSans-108"/>
      <path d="M 18.3125 70.21875 
L 18.3125 54.6875 
L 36.8125 54.6875 
L 36.8125 47.703125 
L 18.3125 47.703125 
L 18.3125 18.015625 
Q 18.3125 11.328125 20.140625 9.421875 
Q 21.96875 7.515625 27.59375 7.515625 
L 36.8125 7.515625 
L 36.8125 0 
L 27.59375 0 
Q 17.1875 0 13.234375 3.875 
Q 9.28125 7.765625 9.28125 18.015625 
L 9.28125 47.703125 
L 2.6875 47.703125 
L 2.6875 54.6875 
L 9.28125 54.6875 
L 9.28125 70.21875 
z
" id="DejaVuSans-116"/>
      <path d="M 9.421875 54.6875 
L 18.40625 54.6875 
L 18.40625 0 
L 9.421875 0 
z
M 9.421875 75.984375 
L 18.40625 75.984375 
L 18.40625 64.59375 
L 9.421875 64.59375 
z
" id="DejaVuSans-105"/>
      <path id="DejaVuSans-32"/>
      <path d="M 64.40625 67.28125 
L 64.40625 56.890625 
Q 59.421875 61.53125 53.78125 63.8125 
Q 48.140625 66.109375 41.796875 66.109375 
Q 29.296875 66.109375 22.65625 58.46875 
Q 16.015625 50.828125 16.015625 36.375 
Q 16.015625 21.96875 22.65625 14.328125 
Q 29.296875 6.6875 41.796875 6.6875 
Q 48.140625 6.6875 53.78125 8.984375 
Q 59.421875 11.28125 64.40625 15.921875 
L 64.40625 5.609375 
Q 59.234375 2.09375 53.4375 0.328125 
Q 47.65625 -1.421875 41.21875 -1.421875 
Q 24.65625 -1.421875 15.125 8.703125 
Q 5.609375 18.84375 5.609375 36.375 
Q 5.609375 53.953125 15.125 64.078125 
Q 24.65625 74.21875 41.21875 74.21875 
Q 47.75 74.21875 53.53125 72.484375 
Q 59.328125 70.75 64.40625 67.28125 
z
" id="DejaVuSans-67"/>
      <path d="M 30.609375 48.390625 
Q 23.390625 48.390625 19.1875 42.75 
Q 14.984375 37.109375 14.984375 27.296875 
Q 14.984375 17.484375 19.15625 11.84375 
Q 23.34375 6.203125 30.609375 6.203125 
Q 37.796875 6.203125 41.984375 11.859375 
Q 46.1875 17.53125 46.1875 27.296875 
Q 46.1875 37.015625 41.984375 42.703125 
Q 37.796875 48.390625 30.609375 48.390625 
z
M 30.609375 56 
Q 42.328125 56 49.015625 48.375 
Q 55.71875 40.765625 55.71875 27.296875 
Q 55.71875 13.875 49.015625 6.21875 
Q 42.328125 -1.421875 30.609375 -1.421875 
Q 18.84375 -1.421875 12.171875 6.21875 
Q 5.515625 13.875 5.515625 27.296875 
Q 5.515625 40.765625 12.171875 48.375 
Q 18.84375 56 30.609375 56 
z
" id="DejaVuSans-111"/>
      <path d="M 37.109375 75.984375 
L 37.109375 68.5 
L 28.515625 68.5 
Q 23.6875 68.5 21.796875 66.546875 
Q 19.921875 64.59375 19.921875 59.515625 
L 19.921875 54.6875 
L 34.71875 54.6875 
L 34.71875 47.703125 
L 19.921875 47.703125 
L 19.921875 0 
L 10.890625 0 
L 10.890625 47.703125 
L 2.296875 47.703125 
L 2.296875 54.6875 
L 10.890625 54.6875 
L 10.890625 58.5 
Q 10.890625 67.625 15.140625 71.796875 
Q 19.390625 75.984375 28.609375 75.984375 
z
" id="DejaVuSans-102"/>
     </defs>
     <g transform="translate(282.078407 519.62085)scale(0.2592 -0.2592)">
      <use xlink:href="#DejaVuSans-66"/>
      <use x="68.603516" xlink:href="#DejaVuSans-68"/>
      <use x="145.605469" xlink:href="#DejaVuSans-84"/>
      <use x="206.689453" xlink:href="#DejaVuSans-77"/>
      <use x="292.96875" xlink:href="#DejaVuSans-117"/>
      <use x="356.347656" xlink:href="#DejaVuSans-108"/>
      <use x="384.130859" xlink:href="#DejaVuSans-116"/>
      <use x="423.339844" xlink:href="#DejaVuSans-105"/>
      <use x="451.123047" xlink:href="#DejaVuSans-32"/>
      <use x="482.910156" xlink:href="#DejaVuSans-67"/>
      <use x="552.734375" xlink:href="#DejaVuSans-117"/>
      <use x="616.113281" xlink:href="#DejaVuSans-116"/>
      <use x="655.322266" xlink:href="#DejaVuSans-111"/>
      <use x="716.503906" xlink:href="#DejaVuSans-102"/>
      <use x="751.708984" xlink:href="#DejaVuSans-102"/>
     </g>
    </g>
   </g>
   <g id="matplotlib.axis_2">
    <g id="ytick_1">
     <g id="line2d_7">
      <defs>
       <path d="M 0 0 
L -3.5 0 
" id="mdfbc03658b" style="stroke:#000000;stroke-width:0.8;"/>
      </defs>
      <g>
       <use style="stroke:#000000;stroke-width:0.8;" x="92.99" xlink:href="#mdfbc03658b" y="463.84"/>
      </g>
     </g>
     <g id="text_8">
      <!-- 0.0 -->
      <defs>
       <path d="M 10.6875 12.40625 
L 21 12.40625 
L 21 0 
L 10.6875 0 
z
" id="DejaVuSans-46"/>
      </defs>
      <g transform="translate(44.7691 473.687575)scale(0.2592 -0.2592)">
       <use xlink:href="#DejaVuSans-48"/>
       <use x="63.623047" xlink:href="#DejaVuSans-46"/>
       <use x="95.410156" xlink:href="#DejaVuSans-48"/>
      </g>
     </g>
    </g>
    <g id="ytick_2">
     <g id="line2d_8">
      <g>
       <use style="stroke:#000000;stroke-width:0.8;" x="92.99" xlink:href="#mdfbc03658b" y="379.4"/>
      </g>
     </g>
     <g id="text_9">
      <!-- 0.2 -->
      <defs>
       <path d="M 19.1875 8.296875 
L 53.609375 8.296875 
L 53.609375 0 
L 7.328125 0 
L 7.328125 8.296875 
Q 12.9375 14.109375 22.625 23.890625 
Q 32.328125 33.6875 34.8125 36.53125 
Q 39.546875 41.84375 41.421875 45.53125 
Q 43.3125 49.21875 43.3125 52.78125 
Q 43.3125 58.59375 39.234375 62.25 
Q 35.15625 65.921875 28.609375 65.921875 
Q 23.96875 65.921875 18.8125 64.3125 
Q 13.671875 62.703125 7.8125 59.421875 
L 7.8125 69.390625 
Q 13.765625 71.78125 18.9375 73 
Q 24.125 74.21875 28.421875 74.21875 
Q 39.75 74.21875 46.484375 68.546875 
Q 53.21875 62.890625 53.21875 53.421875 
Q 53.21875 48.921875 51.53125 44.890625 
Q 49.859375 40.875 45.40625 35.40625 
Q 44.1875 33.984375 37.640625 27.21875 
Q 31.109375 20.453125 19.1875 8.296875 
z
" id="DejaVuSans-50"/>
      </defs>
      <g transform="translate(44.7691 389.247575)scale(0.2592 -0.2592)">
       <use xlink:href="#DejaVuSans-48"/>
       <use x="63.623047" xlink:href="#DejaVuSans-46"/>
       <use x="95.410156" xlink:href="#DejaVuSans-50"/>
      </g>
     </g>
    </g>
    <g id="ytick_3">
     <g id="line2d_9">
      <g>
       <use style="stroke:#000000;stroke-width:0.8;" x="92.99" xlink:href="#mdfbc03658b" y="294.96"/>
      </g>
     </g>
     <g id="text_10">
      <!-- 0.4 -->
      <defs>
       <path d="M 37.796875 64.3125 
L 12.890625 25.390625 
L 37.796875 25.390625 
z
M 35.203125 72.90625 
L 47.609375 72.90625 
L 47.609375 25.390625 
L 58.015625 25.390625 
L 58.015625 17.1875 
L 47.609375 17.1875 
L 47.609375 0 
L 37.796875 0 
L 37.796875 17.1875 
L 4.890625 17.1875 
L 4.890625 26.703125 
z
" id="DejaVuSans-52"/>
      </defs>
      <g transform="translate(44.7691 304.807575)scale(0.2592 -0.2592)">
       <use xlink:href="#DejaVuSans-48"/>
       <use x="63.623047" xlink:href="#DejaVuSans-46"/>
       <use x="95.410156" xlink:href="#DejaVuSans-52"/>
      </g>
     </g>
    </g>
    <g id="ytick_4">
     <g id="line2d_10">
      <g>
       <use style="stroke:#000000;stroke-width:0.8;" x="92.99" xlink:href="#mdfbc03658b" y="210.52"/>
      </g>
     </g>
     <g id="text_11">
      <!-- 0.6 -->
      <defs>
       <path d="M 33.015625 40.375 
Q 26.375 40.375 22.484375 35.828125 
Q 18.609375 31.296875 18.609375 23.390625 
Q 18.609375 15.53125 22.484375 10.953125 
Q 26.375 6.390625 33.015625 6.390625 
Q 39.65625 6.390625 43.53125 10.953125 
Q 47.40625 15.53125 47.40625 23.390625 
Q 47.40625 31.296875 43.53125 35.828125 
Q 39.65625 40.375 33.015625 40.375 
z
M 52.59375 71.296875 
L 52.59375 62.3125 
Q 48.875 64.0625 45.09375 64.984375 
Q 41.3125 65.921875 37.59375 65.921875 
Q 27.828125 65.921875 22.671875 59.328125 
Q 17.53125 52.734375 16.796875 39.40625 
Q 19.671875 43.65625 24.015625 45.921875 
Q 28.375 48.1875 33.59375 48.1875 
Q 44.578125 48.1875 50.953125 41.515625 
Q 57.328125 34.859375 57.328125 23.390625 
Q 57.328125 12.15625 50.6875 5.359375 
Q 44.046875 -1.421875 33.015625 -1.421875 
Q 20.359375 -1.421875 13.671875 8.265625 
Q 6.984375 17.96875 6.984375 36.375 
Q 6.984375 53.65625 15.1875 63.9375 
Q 23.390625 74.21875 37.203125 74.21875 
Q 40.921875 74.21875 44.703125 73.484375 
Q 48.484375 72.75 52.59375 71.296875 
z
" id="DejaVuSans-54"/>
      </defs>
      <g transform="translate(44.7691 220.367575)scale(0.2592 -0.2592)">
       <use xlink:href="#DejaVuSans-48"/>
       <use x="63.623047" xlink:href="#DejaVuSans-46"/>
       <use x="95.410156" xlink:href="#DejaVuSans-54"/>
      </g>
     </g>
    </g>
    <g id="ytick_5">
     <g id="line2d_11">
      <g>
       <use style="stroke:#000000;stroke-width:0.8;" x="92.99" xlink:href="#mdfbc03658b" y="126.08"/>
      </g>
     </g>
     <g id="text_12">
      <!-- 0.8 -->
      <defs>
       <path d="M 31.78125 34.625 
Q 24.75 34.625 20.71875 30.859375 
Q 16.703125 27.09375 16.703125 20.515625 
Q 16.703125 13.921875 20.71875 10.15625 
Q 24.75 6.390625 31.78125 6.390625 
Q 38.8125 6.390625 42.859375 10.171875 
Q 46.921875 13.96875 46.921875 20.515625 
Q 46.921875 27.09375 42.890625 30.859375 
Q 38.875 34.625 31.78125 34.625 
z
M 21.921875 38.8125 
Q 15.578125 40.375 12.03125 44.71875 
Q 8.5 49.078125 8.5 55.328125 
Q 8.5 64.0625 14.71875 69.140625 
Q 20.953125 74.21875 31.78125 74.21875 
Q 42.671875 74.21875 48.875 69.140625 
Q 55.078125 64.0625 55.078125 55.328125 
Q 55.078125 49.078125 51.53125 44.71875 
Q 48 40.375 41.703125 38.8125 
Q 48.828125 37.15625 52.796875 32.3125 
Q 56.78125 27.484375 56.78125 20.515625 
Q 56.78125 9.90625 50.3125 4.234375 
Q 43.84375 -1.421875 31.78125 -1.421875 
Q 19.734375 -1.421875 13.25 4.234375 
Q 6.78125 9.90625 6.78125 20.515625 
Q 6.78125 27.484375 10.78125 32.3125 
Q 14.796875 37.15625 21.921875 38.8125 
z
M 18.3125 54.390625 
Q 18.3125 48.734375 21.84375 45.5625 
Q 25.390625 42.390625 31.78125 42.390625 
Q 38.140625 42.390625 41.71875 45.5625 
Q 45.3125 48.734375 45.3125 54.390625 
Q 45.3125 60.0625 41.71875 63.234375 
Q 38.140625 66.40625 31.78125 66.40625 
Q 25.390625 66.40625 21.84375 63.234375 
Q 18.3125 60.0625 18.3125 54.390625 
z
" id="DejaVuSans-56"/>
      </defs>
      <g transform="translate(44.7691 135.927575)scale(0.2592 -0.2592)">
       <use xlink:href="#DejaVuSans-48"/>
       <use x="63.623047" xlink:href="#DejaVuSans-46"/>
       <use x="95.410156" xlink:href="#DejaVuSans-56"/>
      </g>
     </g>
    </g>
    <g id="ytick_6">
     <g id="line2d_12">
      <g>
       <use style="stroke:#000000;stroke-width:0.8;" x="92.99" xlink:href="#mdfbc03658b" y="41.64"/>
      </g>
     </g>
     <g id="text_13">
      <!-- 1.0 -->
      <g transform="translate(44.7691 51.487575)scale(0.2592 -0.2592)">
       <use xlink:href="#DejaVuSans-49"/>
       <use x="63.623047" xlink:href="#DejaVuSans-46"/>
       <use x="95.410156" xlink:href="#DejaVuSans-48"/>
      </g>
     </g>
    </g>
    <g id="text_14">
     <!-- Fraction -->
     <defs>
      <path d="M 9.8125 72.90625 
L 51.703125 72.90625 
L 51.703125 64.59375 
L 19.671875 64.59375 
L 19.671875 43.109375 
L 48.578125 43.109375 
L 48.578125 34.8125 
L 19.671875 34.8125 
L 19.671875 0 
L 9.8125 0 
z
" id="DejaVuSans-70"/>
      <path d="M 41.109375 46.296875 
Q 39.59375 47.171875 37.8125 47.578125 
Q 36.03125 48 33.890625 48 
Q 26.265625 48 22.1875 43.046875 
Q 18.109375 38.09375 18.109375 28.8125 
L 18.109375 0 
L 9.078125 0 
L 9.078125 54.6875 
L 18.109375 54.6875 
L 18.109375 46.1875 
Q 20.953125 51.171875 25.484375 53.578125 
Q 30.03125 56 36.53125 56 
Q 37.453125 56 38.578125 55.875 
Q 39.703125 55.765625 41.0625 55.515625 
z
" id="DejaVuSans-114"/>
      <path d="M 34.28125 27.484375 
Q 23.390625 27.484375 19.1875 25 
Q 14.984375 22.515625 14.984375 16.5 
Q 14.984375 11.71875 18.140625 8.90625 
Q 21.296875 6.109375 26.703125 6.109375 
Q 34.1875 6.109375 38.703125 11.40625 
Q 43.21875 16.703125 43.21875 25.484375 
L 43.21875 27.484375 
z
M 52.203125 31.203125 
L 52.203125 0 
L 43.21875 0 
L 43.21875 8.296875 
Q 40.140625 3.328125 35.546875 0.953125 
Q 30.953125 -1.421875 24.3125 -1.421875 
Q 15.921875 -1.421875 10.953125 3.296875 
Q 6 8.015625 6 15.921875 
Q 6 25.140625 12.171875 29.828125 
Q 18.359375 34.515625 30.609375 34.515625 
L 43.21875 34.515625 
L 43.21875 35.40625 
Q 43.21875 41.609375 39.140625 45 
Q 35.0625 48.390625 27.6875 48.390625 
Q 23 48.390625 18.546875 47.265625 
Q 14.109375 46.140625 10.015625 43.890625 
L 10.015625 52.203125 
Q 14.9375 54.109375 19.578125 55.046875 
Q 24.21875 56 28.609375 56 
Q 40.484375 56 46.34375 49.84375 
Q 52.203125 43.703125 52.203125 31.203125 
z
" id="DejaVuSans-97"/>
      <path d="M 48.78125 52.59375 
L 48.78125 44.1875 
Q 44.96875 46.296875 41.140625 47.34375 
Q 37.3125 48.390625 33.40625 48.390625 
Q 24.65625 48.390625 19.8125 42.84375 
Q 14.984375 37.3125 14.984375 27.296875 
Q 14.984375 17.28125 19.8125 11.734375 
Q 24.65625 6.203125 33.40625 6.203125 
Q 37.3125 6.203125 41.140625 7.25 
Q 44.96875 8.296875 48.78125 10.40625 
L 48.78125 2.09375 
Q 45.015625 0.34375 40.984375 -0.53125 
Q 36.96875 -1.421875 32.421875 -1.421875 
Q 20.0625 -1.421875 12.78125 6.34375 
Q 5.515625 14.109375 5.515625 27.296875 
Q 5.515625 40.671875 12.859375 48.328125 
Q 20.21875 56 33.015625 56 
Q 37.15625 56 41.109375 55.140625 
Q 45.0625 54.296875 48.78125 52.59375 
z
" id="DejaVuSans-99"/>
      <path d="M 54.890625 33.015625 
L 54.890625 0 
L 45.90625 0 
L 45.90625 32.71875 
Q 45.90625 40.484375 42.875 44.328125 
Q 39.84375 48.1875 33.796875 48.1875 
Q 26.515625 48.1875 22.3125 43.546875 
Q 18.109375 38.921875 18.109375 30.90625 
L 18.109375 0 
L 9.078125 0 
L 9.078125 54.6875 
L 18.109375 54.6875 
L 18.109375 46.1875 
Q 21.34375 51.125 25.703125 53.5625 
Q 30.078125 56 35.796875 56 
Q 45.21875 56 50.046875 50.171875 
Q 54.890625 44.34375 54.890625 33.015625 
z
" id="DejaVuSans-110"/>
     </defs>
     <g transform="translate(35.37855 305.400125)rotate(-90)scale(0.2592 -0.2592)">
      <use xlink:href="#DejaVuSans-70"/>
      <use x="57.410156" xlink:href="#DejaVuSans-114"/>
      <use x="98.523438" xlink:href="#DejaVuSans-97"/>
      <use x="159.802734" xlink:href="#DejaVuSans-99"/>
      <use x="214.783203" xlink:href="#DejaVuSans-116"/>
      <use x="253.992188" xlink:href="#DejaVuSans-105"/>
      <use x="281.775391" xlink:href="#DejaVuSans-111"/>
      <use x="342.957031" xlink:href="#DejaVuSans-110"/>
     </g>
    </g>
   </g>
   <g id="line2d_13">
    <path clip-path="url(#pca250860fc)" d="M 119.450857 41.64 
L 193.615423 41.748991 
L 200.502132 41.842412 
L 212.156564 41.951403 
L 226.45973 42.449647 
L 228.578718 42.636489 
L 230.697706 42.71434 
L 243.411631 43.944381 
L 252.417328 45.345694 
L 253.476822 45.563676 
L 256.125557 46.01521 
L 257.18505 46.295473 
L 261.952772 47.214111 
L 264.07176 47.494374 
L 265.131254 47.743496 
L 267.250241 48.14832 
L 269.898976 48.708845 
L 273.607204 49.518492 
L 274.666698 49.689764 
L 276.255939 50.172438 
L 277.315432 50.561692 
L 279.43442 51.059937 
L 282.083154 51.558181 
L 284.202142 52.134276 
L 287.380623 52.959494 
L 290.559105 53.738001 
L 292.148345 54.298526 
L 296.386321 55.217165 
L 296.916067 55.295015 
L 297.975561 55.668699 
L 299.035055 55.948961 
L 299.564802 56.135803 
L 300.094549 56.182514 
L 301.68379 56.649618 
L 302.743283 56.91431 
L 304.332524 57.537116 
L 312.808474 60.448733 
L 314.397715 60.946977 
L 315.986956 61.476362 
L 317.576196 61.943467 
L 319.165437 62.488422 
L 320.224931 62.799824 
L 322.343918 63.36035 
L 322.873665 63.702893 
L 324.462906 64.232278 
L 325.5224 64.559251 
L 328.171134 65.337758 
L 329.230628 65.727011 
L 334.528097 67.548718 
L 335.587591 68.031393 
L 336.647085 68.498497 
L 339.825566 69.619547 
L 340.88506 70.086651 
L 341.944554 70.382484 
L 349.36101 73.745635 
L 349.890757 74.010327 
L 350.420504 74.415151 
L 353.069238 75.629622 
L 354.128732 76.205718 
L 356.24772 77.49804 
L 359.426201 79.444307 
L 359.955948 79.709 
L 361.015442 80.456367 
L 363.664176 81.9511 
L 366.312911 83.726097 
L 367.372405 84.411183 
L 369.491392 85.859206 
L 370.021139 86.357451 
L 371.61038 87.478501 
L 372.140127 87.898895 
L 373.19962 88.521701 
L 376.378102 90.701521 
L 378.497089 91.915992 
L 381.145824 93.87783 
L 381.675571 94.017961 
L 388.032534 97.972778 
L 389.092027 98.782425 
L 390.681268 99.778914 
L 391.211015 100.168168 
L 392.270509 101.195797 
L 393.330002 101.803033 
L 394.389496 102.799522 
L 395.44899 103.297767 
L 397.038231 104.387677 
L 397.567978 104.652369 
L 402.3357 108.06223 
L 406.573675 110.662444 
L 407.103422 110.833716 
L 409.222409 112.655423 
L 409.752156 113.091387 
L 410.281903 113.293798 
L 415.579372 117.357606 
L 416.109119 117.715719 
L 417.69836 119.085892 
L 418.228107 119.444005 
L 418.757853 119.661987 
L 421.936335 121.997508 
L 422.466082 122.573604 
L 423.525576 123.461102 
L 424.055322 123.959347 
L 425.114816 124.675573 
L 426.17431 125.625352 
L 428.823045 127.60276 
L 434.120513 131.339594 
L 435.180007 132.304943 
L 436.769248 133.317003 
L 437.828742 134.048799 
L 440.477476 136.27533 
L 442.066717 137.598792 
L 446.304692 140.961943 
L 448.42368 142.8615 
L 449.483173 143.390885 
L 452.661655 145.866538 
L 453.191402 146.489344 
L 454.250895 147.330131 
L 455.310389 148.29548 
L 457.429377 150.132757 
L 457.959124 150.786703 
L 461.137605 153.68275 
L 464.845833 157.263883 
L 466.964821 159.19458 
L 468.024315 160.144359 
L 468.554062 160.549183 
L 469.613555 161.654663 
L 471.202796 163.133827 
L 472.792037 164.799832 
L 473.321784 165.173515 
L 474.381278 166.232285 
L 475.970518 167.773729 
L 476.500265 168.365395 
L 477.030012 168.692368 
L 480.73824 172.413632 
L 481.267987 172.880736 
L 481.797734 173.721524 
L 482.857228 174.889285 
L 484.446469 176.742132 
L 485.505962 177.956603 
L 486.565456 179.389056 
L 488.684444 182.160541 
L 489.214191 182.658786 
L 491.862925 185.881806 
L 492.392672 186.33334 
L 493.452166 187.578951 
L 494.51166 188.855703 
L 495.571153 190.366007 
L 498.219888 193.775868 
L 498.749635 194.351963 
L 499.279382 194.756787 
L 500.338875 195.986828 
L 500.868622 196.562924 
L 501.928116 198.38463 
L 505.636344 203.273655 
L 507.225585 205.889439 
L 508.285079 207.586585 
L 509.344573 209.501713 
L 509.87432 210.373641 
L 510.404066 211.946225 
L 511.46356 213.690081 
L 513.582548 217.022092 
L 514.112295 217.567047 
L 514.642042 218.547966 
L 517.290776 222.331511 
L 517.820523 223.219009 
L 518.880017 224.324489 
L 519.409764 225.461109 
L 521.528751 228.715269 
L 522.058498 229.369215 
L 523.117992 231.206492 
L 523.647739 231.984999 
L 524.177486 232.514384 
L 526.296473 236.266789 
L 528.415461 241.965461 
L 528.945208 243.133222 
L 530.004702 246.293961 
L 530.534448 247.228169 
L 531.064195 248.754043 
L 533.183183 256.725957 
L 534.242677 262.206647 
L 534.772424 264.293046 
L 535.302171 268.870668 
L 537.421158 276.858152 
L 537.950905 279.94104 
L 539.010399 288.831592 
L 539.540146 291.167113 
L 540.069893 292.801978 
L 540.599639 298.43837 
L 541.659133 300.446918 
L 542.18888 303.171693 
L 542.718627 305.273663 
L 543.248374 306.239012 
L 544.307868 317.309383 
L 545.367362 321.824725 
L 545.897108 322.867924 
L 546.426855 323.568581 
L 547.486349 327.367696 
L 548.016096 328.177343 
L 548.545843 328.192913 
L 549.605337 335.510881 
L 550.135084 336.818773 
L 550.664831 336.818773 
L 551.194577 337.254737 
L 551.724324 383.560342 
L 552.254071 383.560342 
L 552.783818 384.120867 
L 553.313565 463.84 
L 648.668006 463.84 
L 648.668006 463.84 
" style="fill:none;stroke:#0000ff;stroke-linecap:square;stroke-width:1.5;"/>
   </g>
   <g id="line2d_14">
    <path clip-path="url(#pca250860fc)" d="M 119.450857 150.61496 
L 154.414153 150.61496 
L 154.943899 147.262968 
L 155.473646 147.201677 
L 156.003393 146.789536 
L 159.711622 146.622621 
L 160.241368 146.235406 
L 163.41985 146.041443 
L 163.949597 145.354731 
L 164.479344 145.319285 
L 165.00909 145.097573 
L 167.128078 144.955515 
L 167.657825 144.154074 
L 168.717319 143.894973 
L 169.247066 143.751841 
L 169.776813 142.412748 
L 170.836306 142.114654 
L 171.366053 141.307938 
L 171.8958 140.953158 
L 174.014788 140.460632 
L 174.544535 140.195507 
L 175.074281 139.599679 
L 176.133775 139.038519 
L 176.663522 138.70643 
L 178.252763 138.41992 
L 178.78251 137.780387 
L 179.842004 137.566651 
L 180.37175 137.035747 
L 183.550232 136.147056 
L 184.609726 135.705598 
L 185.139472 135.029694 
L 186.198966 134.587876 
L 186.728713 134.097349 
L 187.788207 133.669346 
L 188.847701 133.080473 
L 190.966688 132.018756 
L 191.496435 131.26672 
L 192.026182 130.947524 
L 192.555929 130.348747 
L 193.085676 129.920645 
L 194.674917 129.132227 
L 195.204664 128.98789 
L 198.383145 127.284512 
L 199.442639 126.83848 
L 199.972386 126.649801 
L 201.031879 126.012691 
L 205.799601 123.110355 
L 206.859095 122.288909 
L 207.918589 121.778354 
L 210.567323 119.968075 
L 211.626817 119.284515 
L 213.745805 117.643922 
L 214.275552 117.147123 
L 215.864792 116.108126 
L 216.924286 115.196473 
L 221.162261 111.34283 
L 221.692008 110.665376 
L 223.281249 109.302523 
L 223.810996 108.531094 
L 226.989477 105.056845 
L 227.519224 104.306264 
L 228.048971 103.752896 
L 228.578718 103.009924 
L 229.638212 101.893117 
L 230.697706 100.644065 
L 231.757199 99.533015 
L 232.816693 97.766331 
L 233.876187 96.462518 
L 237.584415 91.797602 
L 238.643909 90.819766 
L 239.173656 90.06467 
L 240.23315 88.90306 
L 240.762897 88.153559 
L 241.292643 87.623145 
L 242.352137 86.42006 
L 244.471125 83.982589 
L 246.060365 82.308044 
L 247.119859 81.023162 
L 248.7091 79.411656 
L 253.476822 75.003194 
L 254.536316 74.011957 
L 256.125557 72.525214 
L 259.833785 69.533491 
L 261.952772 67.737914 
L 263.012266 67.177546 
L 263.542013 66.650898 
L 264.07176 66.373868 
L 265.131254 65.574105 
L 269.369229 63.267406 
L 271.488216 62.186956 
L 273.607204 60.857755 
L 274.666698 60.46005 
L 275.726192 59.952912 
L 279.964167 58.022144 
L 281.553408 57.326494 
L 283.672395 56.589356 
L 284.731889 56.153944 
L 285.791383 55.833803 
L 287.380623 55.23488 
L 294.79708 53.300047 
L 296.916067 52.656502 
L 298.505308 52.118415 
L 299.564802 51.958662 
L 301.68379 51.448336 
L 302.743283 51.300388 
L 304.332524 50.881906 
L 308.040752 50.150493 
L 309.100246 49.923429 
L 310.689487 49.731914 
L 313.338221 49.181001 
L 314.927462 48.923459 
L 317.04645 48.524395 
L 318.63569 48.37432 
L 319.695184 48.172607 
L 322.343918 47.643227 
L 323.403412 47.442657 
L 327.111641 47.089316 
L 328.700881 46.937058 
L 335.057844 46.349892 
L 336.117338 46.129215 
L 337.176832 45.970172 
L 338.236325 45.811383 
L 341.944554 45.497295 
L 350.420504 44.640151 
L 352.009745 44.528675 
L 353.598985 44.43402 
L 362.604683 43.726289 
L 364.193923 43.578113 
L 365.253417 43.496429 
L 368.431898 43.403272 
L 372.669874 43.226366 
L 374.788861 43.128037 
L 376.907849 43.010779 
L 379.556583 42.911421 
L 403.395194 42.268411 
L 410.81165 42.183782 
L 417.168613 42.077631 
L 427.763551 41.990745 
L 433.590767 41.876858 
L 464.316087 41.789807 
L 468.554062 41.726681 
L 539.010399 41.64 
L 552.783818 41.64 
L 552.783818 41.64 
" style="fill:none;stroke:#ff0000;stroke-linecap:square;stroke-width:1.5;"/>
   </g>
   <g id="line2d_15">
    <path clip-path="url(#pca250860fc)" d="M 119.450857 150.61496 
L 154.414153 150.61496 
L 154.943899 147.262968 
L 155.473646 147.201677 
L 156.003393 146.789536 
L 159.711622 146.622621 
L 160.241368 146.235406 
L 163.41985 146.041443 
L 163.949597 145.366476 
L 164.479344 145.331032 
L 165.00909 145.109328 
L 167.128078 144.967275 
L 167.657825 144.165864 
L 168.717319 143.906772 
L 169.247066 143.763646 
L 169.776813 142.424602 
L 170.836306 142.126518 
L 171.366053 141.319833 
L 171.8958 140.965065 
L 174.014788 140.472558 
L 174.544535 140.207443 
L 175.074281 139.611637 
L 176.133775 139.050497 
L 176.663522 138.71842 
L 178.252763 138.431921 
L 178.78251 137.792412 
L 179.842004 137.578683 
L 180.37175 137.047799 
L 183.550232 136.159141 
L 184.609726 135.7177 
L 185.139472 135.053946 
L 186.198966 134.624303 
L 186.728713 134.14599 
L 187.788207 133.718051 
L 188.847701 133.141462 
L 190.966688 132.092178 
L 191.496435 131.340309 
L 192.026182 131.021184 
L 193.085676 130.006847 
L 194.674917 129.230975 
L 195.204664 129.09903 
L 198.912892 127.168605 
L 199.972386 126.811457 
L 201.031879 126.174653 
L 205.799601 123.29884 
L 206.859095 122.490444 
L 207.918589 121.98019 
L 213.745805 117.937569 
L 214.275552 117.479548 
L 215.864792 116.467194 
L 216.924286 115.556483 
L 223.281249 109.851666 
L 223.810996 109.081433 
L 226.989477 105.797805 
L 228.048971 104.549666 
L 228.578718 103.861566 
L 229.638212 102.774091 
L 230.697706 101.568262 
L 231.757199 100.554085 
L 232.816693 98.859854 
L 234.405934 97.042766 
L 237.584415 93.293126 
L 238.643909 92.388002 
L 239.173656 91.66365 
L 240.23315 90.672935 
L 240.762897 89.968537 
L 242.352137 88.326924 
L 243.411631 87.348161 
L 246.060365 84.728146 
L 246.590112 84.030195 
L 249.768594 81.430539 
L 250.298341 81.11321 
L 251.887581 79.720167 
L 252.417328 79.269931 
L 252.947075 79.053832 
L 255.59581 76.93955 
L 257.714797 75.625531 
L 259.833785 74.303093 
L 261.423025 73.211242 
L 264.07176 71.885274 
L 266.190748 70.851712 
L 268.309735 70.241102 
L 268.839482 69.925562 
L 270.428723 69.600006 
L 274.136951 68.252614 
L 282.083154 66.720674 
L 282.612901 66.747206 
L 284.202142 66.456436 
L 285.791383 66.351443 
L 286.850876 66.196665 
L 288.440117 66.115766 
L 289.499611 66.029392 
L 290.029358 66.100823 
L 290.559105 66.0468 
L 292.148345 66.298967 
L 293.737586 66.203178 
L 298.505308 65.905227 
L 299.564802 66.100184 
L 300.624296 65.992492 
L 301.154043 65.981219 
L 302.213536 66.158762 
L 305.921765 66.722351 
L 306.451512 66.820889 
L 306.981259 66.781807 
L 307.511005 66.863372 
L 308.040752 67.084973 
L 308.570499 67.029417 
L 310.15974 67.502914 
L 312.278727 67.781405 
L 313.338221 67.791416 
L 314.397715 67.92401 
L 315.457209 68.162219 
L 316.516703 68.262285 
L 319.165437 68.757145 
L 322.343918 69.054737 
L 323.403412 69.340525 
L 325.5224 69.8748 
L 328.171134 70.364965 
L 329.230628 70.678245 
L 330.819869 70.992251 
L 333.99835 71.763753 
L 335.057844 72.154341 
L 336.647085 72.673446 
L 337.706578 72.833882 
L 342.474301 74.16485 
L 345.123035 75.11808 
L 346.182529 75.508611 
L 346.712276 75.758485 
L 348.831263 76.324066 
L 351.479998 77.604073 
L 352.009745 77.759979 
L 353.069238 78.258621 
L 353.598985 78.430714 
L 355.717973 79.554658 
L 356.24772 79.757983 
L 358.366707 80.957736 
L 360.485695 82.096344 
L 361.545189 82.688472 
L 362.074936 82.875622 
L 363.134429 83.530013 
L 364.72367 84.310377 
L 365.253417 84.761902 
L 367.902152 86.350825 
L 368.961645 87.067296 
L 369.491392 87.3635 
L 370.550886 88.188827 
L 373.19962 89.933255 
L 383.794558 96.350711 
L 385.383799 97.16052 
L 386.97304 98.250586 
L 388.032534 98.827136 
L 389.092027 99.590281 
L 390.681268 100.55576 
L 391.211015 100.945012 
L 392.270509 101.941627 
L 393.330002 102.533353 
L 394.389496 103.514331 
L 395.44899 103.981554 
L 400.216712 107.127094 
L 401.805953 108.310472 
L 407.633169 111.829457 
L 408.162916 112.358841 
L 408.692662 112.685813 
L 409.752156 113.588924 
L 410.281903 113.791336 
L 411.341397 114.616718 
L 412.400891 115.410832 
L 412.930638 115.753411 
L 413.990131 116.656514 
L 416.638866 118.571706 
L 417.69836 119.443633 
L 421.406588 121.919346 
L 421.936335 122.324169 
L 422.466082 122.900264 
L 423.525576 123.787761 
L 424.055322 124.270464 
L 425.114816 124.971148 
L 426.17431 125.920926 
L 430.412285 129.066168 
L 432.001526 129.969299 
L 437.298995 133.908595 
L 437.828742 134.188871 
L 440.477476 136.415401 
L 442.066717 137.738863 
L 446.304692 141.086456 
L 448.42368 142.986013 
L 449.483173 143.515398 
L 452.661655 145.99105 
L 453.191402 146.613856 
L 454.250895 147.454643 
L 455.310389 148.419992 
L 457.429377 150.257269 
L 457.959124 150.911215 
L 462.197099 154.772621 
L 463.256593 155.971522 
L 465.905327 158.229203 
L 466.964821 159.256848 
L 468.024315 160.206627 
L 468.554062 160.611451 
L 469.613555 161.716931 
L 471.202796 163.196094 
L 472.792037 164.862099 
L 473.321784 165.235783 
L 474.381278 166.294553 
L 475.970518 167.835997 
L 476.500265 168.427662 
L 477.030012 168.754635 
L 480.73824 172.460335 
L 481.267987 172.927439 
L 481.797734 173.768227 
L 482.857228 174.935987 
L 484.446469 176.788834 
L 485.505962 178.003306 
L 486.565456 179.435759 
L 488.684444 182.207244 
L 489.214191 182.705489 
L 491.862925 185.912942 
L 492.392672 186.364477 
L 493.452166 187.59452 
L 494.51166 188.871272 
L 495.571153 190.381576 
L 498.219888 193.791437 
L 498.749635 194.367533 
L 499.279382 194.772356 
L 500.338875 196.002398 
L 500.868622 196.578493 
L 501.928116 198.4002 
L 505.636344 203.289225 
L 507.225585 205.905009 
L 508.285079 207.602154 
L 509.344573 209.501713 
L 509.87432 210.373641 
L 510.404066 211.946225 
L 511.46356 213.690081 
L 513.582548 217.022092 
L 514.112295 217.567047 
L 514.642042 218.547966 
L 517.290776 222.331511 
L 517.820523 223.219009 
L 518.880017 224.324489 
L 519.409764 225.461109 
L 521.528751 228.715269 
L 522.058498 229.369215 
L 523.117992 231.206492 
L 523.647739 231.984999 
L 524.177486 232.514384 
L 526.296473 236.266789 
L 528.415461 241.965461 
L 528.945208 243.133222 
L 530.004702 246.293961 
L 530.534448 247.228169 
L 531.064195 248.754043 
L 533.183183 256.725957 
L 534.242677 262.206647 
L 534.772424 264.293046 
L 535.302171 268.870668 
L 537.421158 276.858152 
L 537.950905 279.94104 
L 539.010399 288.831592 
L 539.540146 291.167113 
L 540.069893 292.801978 
L 540.599639 298.43837 
L 541.659133 300.446918 
L 542.18888 303.171693 
L 542.718627 305.273663 
L 543.248374 306.239012 
L 544.307868 317.309383 
L 545.367362 321.824725 
L 545.897108 322.867924 
L 546.426855 323.568581 
L 547.486349 327.367696 
L 548.016096 328.177343 
L 548.545843 328.192913 
L 549.605337 335.510881 
L 550.135084 336.818773 
L 550.664831 336.818773 
L 551.194577 337.254737 
L 551.724324 383.560342 
L 552.254071 383.560342 
L 552.783818 384.120867 
L 552.783818 384.120867 
" style="fill:none;stroke:#008000;stroke-linecap:square;stroke-width:1.5;"/>
   </g>
   <g id="line2d_16">
    <path clip-path="url(#pca250860fc)" d="M 298.505308 463.84 
L 298.505308 41.64 
" style="fill:none;stroke:#1f77b4;stroke-linecap:square;stroke-width:1.5;"/>
   </g>
   <g id="patch_3">
    <path d="M 92.99 463.84 
L 92.99 41.64 
" style="fill:none;stroke:#000000;stroke-linecap:square;stroke-linejoin:miter;stroke-width:0.8;"/>
   </g>
   <g id="patch_4">
    <path d="M 675.128864 463.84 
L 675.128864 41.64 
" style="fill:none;stroke:#000000;stroke-linecap:square;stroke-linejoin:miter;stroke-width:0.8;"/>
   </g>
   <g id="patch_5">
    <path d="M 92.99 463.84 
L 675.128864 463.84 
" style="fill:none;stroke:#000000;stroke-linecap:square;stroke-linejoin:miter;stroke-width:0.8;"/>
   </g>
   <g id="patch_6">
    <path d="M 92.99 41.64 
L 675.128864 41.64 
" style="fill:none;stroke:#000000;stroke-linecap:square;stroke-linejoin:miter;stroke-width:0.8;"/>
   </g>
   <g id="text_15">
    <!-- Purity/Efficiency vs BDTMulti Cutoff — track -->
    <defs>
     <path d="M 19.671875 64.796875 
L 19.671875 37.40625 
L 32.078125 37.40625 
Q 38.96875 37.40625 42.71875 40.96875 
Q 46.484375 44.53125 46.484375 51.125 
Q 46.484375 57.671875 42.71875 61.234375 
Q 38.96875 64.796875 32.078125 64.796875 
z
M 9.8125 72.90625 
L 32.078125 72.90625 
Q 44.34375 72.90625 50.609375 67.359375 
Q 56.890625 61.8125 56.890625 51.125 
Q 56.890625 40.328125 50.609375 34.8125 
Q 44.34375 29.296875 32.078125 29.296875 
L 19.671875 29.296875 
L 19.671875 0 
L 9.8125 0 
z
" id="DejaVuSans-80"/>
     <path d="M 32.171875 -5.078125 
Q 28.375 -14.84375 24.75 -17.8125 
Q 21.140625 -20.796875 15.09375 -20.796875 
L 7.90625 -20.796875 
L 7.90625 -13.28125 
L 13.1875 -13.28125 
Q 16.890625 -13.28125 18.9375 -11.515625 
Q 21 -9.765625 23.484375 -3.21875 
L 25.09375 0.875 
L 2.984375 54.6875 
L 12.5 54.6875 
L 29.59375 11.921875 
L 46.6875 54.6875 
L 56.203125 54.6875 
z
" id="DejaVuSans-121"/>
     <path d="M 25.390625 72.90625 
L 33.6875 72.90625 
L 8.296875 -9.28125 
L 0 -9.28125 
z
" id="DejaVuSans-47"/>
     <path d="M 9.8125 72.90625 
L 55.90625 72.90625 
L 55.90625 64.59375 
L 19.671875 64.59375 
L 19.671875 43.015625 
L 54.390625 43.015625 
L 54.390625 34.71875 
L 19.671875 34.71875 
L 19.671875 8.296875 
L 56.78125 8.296875 
L 56.78125 0 
L 9.8125 0 
z
" id="DejaVuSans-69"/>
     <path d="M 56.203125 29.59375 
L 56.203125 25.203125 
L 14.890625 25.203125 
Q 15.484375 15.921875 20.484375 11.0625 
Q 25.484375 6.203125 34.421875 6.203125 
Q 39.59375 6.203125 44.453125 7.46875 
Q 49.3125 8.734375 54.109375 11.28125 
L 54.109375 2.78125 
Q 49.265625 0.734375 44.1875 -0.34375 
Q 39.109375 -1.421875 33.890625 -1.421875 
Q 20.796875 -1.421875 13.15625 6.1875 
Q 5.515625 13.8125 5.515625 26.8125 
Q 5.515625 40.234375 12.765625 48.109375 
Q 20.015625 56 32.328125 56 
Q 43.359375 56 49.78125 48.890625 
Q 56.203125 41.796875 56.203125 29.59375 
z
M 47.21875 32.234375 
Q 47.125 39.59375 43.09375 43.984375 
Q 39.0625 48.390625 32.421875 48.390625 
Q 24.90625 48.390625 20.390625 44.140625 
Q 15.875 39.890625 15.1875 32.171875 
z
" id="DejaVuSans-101"/>
     <path d="M 2.984375 54.6875 
L 12.5 54.6875 
L 29.59375 8.796875 
L 46.6875 54.6875 
L 56.203125 54.6875 
L 35.6875 0 
L 23.484375 0 
z
" id="DejaVuSans-118"/>
     <path d="M 44.28125 53.078125 
L 44.28125 44.578125 
Q 40.484375 46.53125 36.375 47.5 
Q 32.28125 48.484375 27.875 48.484375 
Q 21.1875 48.484375 17.84375 46.4375 
Q 14.5 44.390625 14.5 40.28125 
Q 14.5 37.15625 16.890625 35.375 
Q 19.28125 33.59375 26.515625 31.984375 
L 29.59375 31.296875 
Q 39.15625 29.25 43.1875 25.515625 
Q 47.21875 21.78125 47.21875 15.09375 
Q 47.21875 7.46875 41.1875 3.015625 
Q 35.15625 -1.421875 24.609375 -1.421875 
Q 20.21875 -1.421875 15.453125 -0.5625 
Q 10.6875 0.296875 5.421875 2 
L 5.421875 11.28125 
Q 10.40625 8.6875 15.234375 7.390625 
Q 20.0625 6.109375 24.8125 6.109375 
Q 31.15625 6.109375 34.5625 8.28125 
Q 37.984375 10.453125 37.984375 14.40625 
Q 37.984375 18.0625 35.515625 20.015625 
Q 33.0625 21.96875 24.703125 23.78125 
L 21.578125 24.515625 
Q 13.234375 26.265625 9.515625 29.90625 
Q 5.8125 33.546875 5.8125 39.890625 
Q 5.8125 47.609375 11.28125 51.796875 
Q 16.75 56 26.8125 56 
Q 31.78125 56 36.171875 55.265625 
Q 40.578125 54.546875 44.28125 53.078125 
z
" id="DejaVuSans-115"/>
     <path d="M 4.890625 30.90625 
L 95.125 30.90625 
L 95.125 23.875 
L 4.890625 23.875 
z
" id="DejaVuSans-8212"/>
     <path d="M 9.078125 75.984375 
L 18.109375 75.984375 
L 18.109375 31.109375 
L 44.921875 54.6875 
L 56.390625 54.6875 
L 27.390625 29.109375 
L 57.625 0 
L 45.90625 0 
L 18.109375 26.703125 
L 18.109375 0 
L 9.078125 0 
z
" id="DejaVuSans-107"/>
    </defs>
    <g transform="translate(100.543232 35.64)scale(0.2592 -0.2592)">
     <use xlink:href="#DejaVuSans-80"/>
     <use x="60.287109" xlink:href="#DejaVuSans-117"/>
     <use x="123.666016" xlink:href="#DejaVuSans-114"/>
     <use x="164.779297" xlink:href="#DejaVuSans-105"/>
     <use x="192.5625" xlink:href="#DejaVuSans-116"/>
     <use x="231.771484" xlink:href="#DejaVuSans-121"/>
     <use x="290.951172" xlink:href="#DejaVuSans-47"/>
     <use x="324.642578" xlink:href="#DejaVuSans-69"/>
     <use x="387.826172" xlink:href="#DejaVuSans-102"/>
     <use x="423.03125" xlink:href="#DejaVuSans-102"/>
     <use x="458.236328" xlink:href="#DejaVuSans-105"/>
     <use x="486.019531" xlink:href="#DejaVuSans-99"/>
     <use x="541" xlink:href="#DejaVuSans-105"/>
     <use x="568.783203" xlink:href="#DejaVuSans-101"/>
     <use x="630.306641" xlink:href="#DejaVuSans-110"/>
     <use x="693.685547" xlink:href="#DejaVuSans-99"/>
     <use x="748.666016" xlink:href="#DejaVuSans-121"/>
     <use x="807.845703" xlink:href="#DejaVuSans-32"/>
     <use x="839.632812" xlink:href="#DejaVuSans-118"/>
     <use x="898.8125" xlink:href="#DejaVuSans-115"/>
     <use x="950.912109" xlink:href="#DejaVuSans-32"/>
     <use x="982.699219" xlink:href="#DejaVuSans-66"/>
     <use x="1051.302734" xlink:href="#DejaVuSans-68"/>
     <use x="1128.304688" xlink:href="#DejaVuSans-84"/>
     <use x="1189.388672" xlink:href="#DejaVuSans-77"/>
     <use x="1275.667969" xlink:href="#DejaVuSans-117"/>
     <use x="1339.046875" xlink:href="#DejaVuSans-108"/>
     <use x="1366.830078" xlink:href="#DejaVuSans-116"/>
     <use x="1406.039062" xlink:href="#DejaVuSans-105"/>
     <use x="1433.822266" xlink:href="#DejaVuSans-32"/>
     <use x="1465.609375" xlink:href="#DejaVuSans-67"/>
     <use x="1535.433594" xlink:href="#DejaVuSans-117"/>
     <use x="1598.8125" xlink:href="#DejaVuSans-116"/>
     <use x="1638.021484" xlink:href="#DejaVuSans-111"/>
     <use x="1699.203125" xlink:href="#DejaVuSans-102"/>
     <use x="1734.408203" xlink:href="#DejaVuSans-102"/>
     <use x="1769.613281" xlink:href="#DejaVuSans-32"/>
     <use x="1801.400391" xlink:href="#DejaVuSans-8212"/>
     <use x="1901.400391" xlink:href="#DejaVuSans-32"/>
     <use x="1933.1875" xlink:href="#DejaVuSans-116"/>
     <use x="1972.396484" xlink:href="#DejaVuSans-114"/>
     <use x="2013.509766" xlink:href="#DejaVuSans-97"/>
     <use x="2074.789062" xlink:href="#DejaVuSans-99"/>
     <use x="2129.769531" xlink:href="#DejaVuSans-107"/>
    </g>
   </g>
   <g id="legend_1">
    <g id="patch_7">
     <path d="M 275.364744 454.84 
L 492.754119 454.84 
Q 496.354119 454.84 496.354119 451.24 
L 496.354119 373.778125 
Q 496.354119 370.178125 492.754119 370.178125 
L 275.364744 370.178125 
Q 271.764744 370.178125 271.764744 373.778125 
L 271.764744 451.24 
Q 271.764744 454.84 275.364744 454.84 
z
" style="fill:#ffffff;opacity:0.8;stroke:#cccccc;stroke-linejoin:miter;"/>
    </g>
    <g id="line2d_17">
     <path d="M 278.964744 384.755313 
L 314.964744 384.755313 
" style="fill:none;stroke:#0000ff;stroke-linecap:square;stroke-width:1.5;"/>
    </g>
    <g id="line2d_18"/>
    <g id="text_16">
     <!-- Efficiency -->
     <g transform="translate(329.364744 391.055313)scale(0.18 -0.18)">
      <use xlink:href="#DejaVuSans-69"/>
      <use x="63.183594" xlink:href="#DejaVuSans-102"/>
      <use x="98.388672" xlink:href="#DejaVuSans-102"/>
      <use x="133.59375" xlink:href="#DejaVuSans-105"/>
      <use x="161.376953" xlink:href="#DejaVuSans-99"/>
      <use x="216.357422" xlink:href="#DejaVuSans-105"/>
      <use x="244.140625" xlink:href="#DejaVuSans-101"/>
      <use x="305.664062" xlink:href="#DejaVuSans-110"/>
      <use x="369.042969" xlink:href="#DejaVuSans-99"/>
      <use x="424.023438" xlink:href="#DejaVuSans-121"/>
     </g>
    </g>
    <g id="line2d_19">
     <path d="M 278.964744 411.175937 
L 314.964744 411.175937 
" style="fill:none;stroke:#ff0000;stroke-linecap:square;stroke-width:1.5;"/>
    </g>
    <g id="line2d_20"/>
    <g id="text_17">
     <!-- Purity -->
     <g transform="translate(329.364744 417.475937)scale(0.18 -0.18)">
      <use xlink:href="#DejaVuSans-80"/>
      <use x="60.287109" xlink:href="#DejaVuSans-117"/>
      <use x="123.666016" xlink:href="#DejaVuSans-114"/>
      <use x="164.779297" xlink:href="#DejaVuSans-105"/>
      <use x="192.5625" xlink:href="#DejaVuSans-116"/>
      <use x="231.771484" xlink:href="#DejaVuSans-121"/>
     </g>
    </g>
    <g id="line2d_21">
     <path d="M 278.964744 437.596562 
L 314.964744 437.596562 
" style="fill:none;stroke:#008000;stroke-linecap:square;stroke-width:1.5;"/>
    </g>
    <g id="line2d_22"/>
    <g id="text_18">
     <!-- Purity * Efficiency -->
     <defs>
      <path d="M 47.015625 60.890625 
L 29.5 51.421875 
L 47.015625 41.890625 
L 44.1875 37.109375 
L 27.78125 47.015625 
L 27.78125 28.609375 
L 22.21875 28.609375 
L 22.21875 47.015625 
L 5.8125 37.109375 
L 2.984375 41.890625 
L 20.515625 51.421875 
L 2.984375 60.890625 
L 5.8125 65.71875 
L 22.21875 55.8125 
L 22.21875 74.21875 
L 27.78125 74.21875 
L 27.78125 55.8125 
L 44.1875 65.71875 
z
" id="DejaVuSans-42"/>
     </defs>
     <g transform="translate(329.364744 443.896562)scale(0.18 -0.18)">
      <use xlink:href="#DejaVuSans-80"/>
      <use x="60.287109" xlink:href="#DejaVuSans-117"/>
      <use x="123.666016" xlink:href="#DejaVuSans-114"/>
      <use x="164.779297" xlink:href="#DejaVuSans-105"/>
      <use x="192.5625" xlink:href="#DejaVuSans-116"/>
      <use x="231.771484" xlink:href="#DejaVuSans-121"/>
      <use x="290.951172" xlink:href="#DejaVuSans-32"/>
      <use x="322.738281" xlink:href="#DejaVuSans-42"/>
      <use x="372.738281" xlink:href="#DejaVuSans-32"/>
      <use x="404.525391" xlink:href="#DejaVuSans-69"/>
      <use x="467.708984" xlink:href="#DejaVuSans-102"/>
      <use x="502.914062" xlink:href="#DejaVuSans-102"/>
      <use x="538.119141" xlink:href="#DejaVuSans-105"/>
      <use x="565.902344" xlink:href="#DejaVuSans-99"/>
      <use x="620.882812" xlink:href="#DejaVuSans-105"/>
      <use x="648.666016" xlink:href="#DejaVuSans-101"/>
      <use x="710.189453" xlink:href="#DejaVuSans-110"/>
      <use x="773.568359" xlink:href="#DejaVuSans-99"/>
      <use x="828.548828" xlink:href="#DejaVuSans-121"/>
     </g>
    </g>
   </g>
  </g>
  <g id="axes_2">
   <g id="patch_8">
    <path d="M 797.9825 463.84 
L 1380.121364 463.84 
L 1380.121364 41.64 
L 797.9825 41.64 
z
" style="fill:#ffffff;"/>
   </g>
   <g id="matplotlib.axis_3">
    <g id="xtick_7">
     <g id="line2d_23">
      <g>
       <use style="stroke:#000000;stroke-width:0.8;" x="824.443357" xlink:href="#mea3739014a" y="463.84"/>
      </g>
     </g>
     <g id="text_19">
      <!-- −10 -->
      <g transform="translate(797.091682 490.53515)scale(0.2592 -0.2592)">
       <use xlink:href="#DejaVuSans-8722"/>
       <use x="83.789062" xlink:href="#DejaVuSans-49"/>
       <use x="147.412109" xlink:href="#DejaVuSans-48"/>
      </g>
     </g>
    </g>
    <g id="xtick_8">
     <g id="line2d_24">
      <g>
       <use style="stroke:#000000;stroke-width:0.8;" x="930.286787" xlink:href="#mea3739014a" y="463.84"/>
      </g>
     </g>
     <g id="text_20">
      <!-- −5 -->
      <g transform="translate(911.180912 490.53515)scale(0.2592 -0.2592)">
       <use xlink:href="#DejaVuSans-8722"/>
       <use x="83.789062" xlink:href="#DejaVuSans-53"/>
      </g>
     </g>
    </g>
    <g id="xtick_9">
     <g id="line2d_25">
      <g>
       <use style="stroke:#000000;stroke-width:0.8;" x="1036.130217" xlink:href="#mea3739014a" y="463.84"/>
      </g>
     </g>
     <g id="text_21">
      <!-- 0 -->
      <g transform="translate(1027.884417 490.53515)scale(0.2592 -0.2592)">
       <use xlink:href="#DejaVuSans-48"/>
      </g>
     </g>
    </g>
    <g id="xtick_10">
     <g id="line2d_26">
      <g>
       <use style="stroke:#000000;stroke-width:0.8;" x="1141.973647" xlink:href="#mea3739014a" y="463.84"/>
      </g>
     </g>
     <g id="text_22">
      <!-- 5 -->
      <g transform="translate(1133.727847 490.53515)scale(0.2592 -0.2592)">
       <use xlink:href="#DejaVuSans-53"/>
      </g>
     </g>
    </g>
    <g id="xtick_11">
     <g id="line2d_27">
      <g>
       <use style="stroke:#000000;stroke-width:0.8;" x="1247.817076" xlink:href="#mea3739014a" y="463.84"/>
      </g>
     </g>
     <g id="text_23">
      <!-- 10 -->
      <g transform="translate(1231.325476 490.53515)scale(0.2592 -0.2592)">
       <use xlink:href="#DejaVuSans-49"/>
       <use x="63.623047" xlink:href="#DejaVuSans-48"/>
      </g>
     </g>
    </g>
    <g id="xtick_12">
     <g id="line2d_28">
      <g>
       <use style="stroke:#000000;stroke-width:0.8;" x="1353.660506" xlink:href="#mea3739014a" y="463.84"/>
      </g>
     </g>
     <g id="text_24">
      <!-- 15 -->
      <g transform="translate(1337.168906 490.53515)scale(0.2592 -0.2592)">
       <use xlink:href="#DejaVuSans-49"/>
       <use x="63.623047" xlink:href="#DejaVuSans-53"/>
      </g>
     </g>
    </g>
    <g id="text_25">
     <!-- BDTMulti Cutoff -->
     <g transform="translate(987.070907 519.62085)scale(0.2592 -0.2592)">
      <use xlink:href="#DejaVuSans-66"/>
      <use x="68.603516" xlink:href="#DejaVuSans-68"/>
      <use x="145.605469" xlink:href="#DejaVuSans-84"/>
      <use x="206.689453" xlink:href="#DejaVuSans-77"/>
      <use x="292.96875" xlink:href="#DejaVuSans-117"/>
      <use x="356.347656" xlink:href="#DejaVuSans-108"/>
      <use x="384.130859" xlink:href="#DejaVuSans-116"/>
      <use x="423.339844" xlink:href="#DejaVuSans-105"/>
      <use x="451.123047" xlink:href="#DejaVuSans-32"/>
      <use x="482.910156" xlink:href="#DejaVuSans-67"/>
      <use x="552.734375" xlink:href="#DejaVuSans-117"/>
      <use x="616.113281" xlink:href="#DejaVuSans-116"/>
      <use x="655.322266" xlink:href="#DejaVuSans-111"/>
      <use x="716.503906" xlink:href="#DejaVuSans-102"/>
      <use x="751.708984" xlink:href="#DejaVuSans-102"/>
     </g>
    </g>
   </g>
   <g id="matplotlib.axis_4">
    <g id="ytick_7">
     <g id="line2d_29">
      <g>
       <use style="stroke:#000000;stroke-width:0.8;" x="797.9825" xlink:href="#mdfbc03658b" y="463.84"/>
      </g>
     </g>
     <g id="text_26">
      <!-- 0.0 -->
      <g transform="translate(749.7616 473.687575)scale(0.2592 -0.2592)">
       <use xlink:href="#DejaVuSans-48"/>
       <use x="63.623047" xlink:href="#DejaVuSans-46"/>
       <use x="95.410156" xlink:href="#DejaVuSans-48"/>
      </g>
     </g>
    </g>
    <g id="ytick_8">
     <g id="line2d_30">
      <g>
       <use style="stroke:#000000;stroke-width:0.8;" x="797.9825" xlink:href="#mdfbc03658b" y="379.4"/>
      </g>
     </g>
     <g id="text_27">
      <!-- 0.2 -->
      <g transform="translate(749.7616 389.247575)scale(0.2592 -0.2592)">
       <use xlink:href="#DejaVuSans-48"/>
       <use x="63.623047" xlink:href="#DejaVuSans-46"/>
       <use x="95.410156" xlink:href="#DejaVuSans-50"/>
      </g>
     </g>
    </g>
    <g id="ytick_9">
     <g id="line2d_31">
      <g>
       <use style="stroke:#000000;stroke-width:0.8;" x="797.9825" xlink:href="#mdfbc03658b" y="294.96"/>
      </g>
     </g>
     <g id="text_28">
      <!-- 0.4 -->
      <g transform="translate(749.7616 304.807575)scale(0.2592 -0.2592)">
       <use xlink:href="#DejaVuSans-48"/>
       <use x="63.623047" xlink:href="#DejaVuSans-46"/>
       <use x="95.410156" xlink:href="#DejaVuSans-52"/>
      </g>
     </g>
    </g>
    <g id="ytick_10">
     <g id="line2d_32">
      <g>
       <use style="stroke:#000000;stroke-width:0.8;" x="797.9825" xlink:href="#mdfbc03658b" y="210.52"/>
      </g>
     </g>
     <g id="text_29">
      <!-- 0.6 -->
      <g transform="translate(749.7616 220.367575)scale(0.2592 -0.2592)">
       <use xlink:href="#DejaVuSans-48"/>
       <use x="63.623047" xlink:href="#DejaVuSans-46"/>
       <use x="95.410156" xlink:href="#DejaVuSans-54"/>
      </g>
     </g>
    </g>
    <g id="ytick_11">
     <g id="line2d_33">
      <g>
       <use style="stroke:#000000;stroke-width:0.8;" x="797.9825" xlink:href="#mdfbc03658b" y="126.08"/>
      </g>
     </g>
     <g id="text_30">
      <!-- 0.8 -->
      <g transform="translate(749.7616 135.927575)scale(0.2592 -0.2592)">
       <use xlink:href="#DejaVuSans-48"/>
       <use x="63.623047" xlink:href="#DejaVuSans-46"/>
       <use x="95.410156" xlink:href="#DejaVuSans-56"/>
      </g>
     </g>
    </g>
    <g id="ytick_12">
     <g id="line2d_34">
      <g>
       <use style="stroke:#000000;stroke-width:0.8;" x="797.9825" xlink:href="#mdfbc03658b" y="41.64"/>
      </g>
     </g>
     <g id="text_31">
      <!-- 1.0 -->
      <g transform="translate(749.7616 51.487575)scale(0.2592 -0.2592)">
       <use xlink:href="#DejaVuSans-49"/>
       <use x="63.623047" xlink:href="#DejaVuSans-46"/>
       <use x="95.410156" xlink:href="#DejaVuSans-48"/>
      </g>
     </g>
    </g>
    <g id="text_32">
     <!-- Fraction -->
     <g transform="translate(740.37105 305.400125)rotate(-90)scale(0.2592 -0.2592)">
      <use xlink:href="#DejaVuSans-70"/>
      <use x="57.410156" xlink:href="#DejaVuSans-114"/>
      <use x="98.523438" xlink:href="#DejaVuSans-97"/>
      <use x="159.802734" xlink:href="#DejaVuSans-99"/>
      <use x="214.783203" xlink:href="#DejaVuSans-116"/>
      <use x="253.992188" xlink:href="#DejaVuSans-105"/>
      <use x="281.775391" xlink:href="#DejaVuSans-111"/>
      <use x="342.957031" xlink:href="#DejaVuSans-110"/>
     </g>
    </g>
   </g>
   <g id="line2d_35">
    <path clip-path="url(#p882ddc1c85)" d="M 824.443357 463.84 
L 859.406653 463.84 
L 859.936399 446.520581 
L 860.466146 446.20731 
L 860.995893 444.103918 
L 862.055387 443.924906 
L 863.114881 443.387869 
L 864.174375 443.343116 
L 864.704122 443.25361 
L 865.233868 441.284477 
L 866.293362 440.926453 
L 866.823109 440.613182 
L 867.882603 440.299911 
L 868.41235 440.299911 
L 868.942097 436.809175 
L 869.471844 436.630163 
L 870.00159 435.511338 
L 870.531337 435.377079 
L 871.590831 435.377079 
L 872.120578 434.795289 
L 872.650325 430.767517 
L 873.180072 429.827704 
L 873.709819 429.46968 
L 874.239566 428.753632 
L 874.769313 422.085431 
L 875.299059 421.503642 
L 875.828806 420.608582 
L 876.358553 416.625563 
L 876.8883 414.880195 
L 877.947794 413.76137 
L 878.477541 413.62711 
L 879.537035 411.165694 
L 880.066781 408.256748 
L 880.596528 407.137922 
L 881.656022 403.915705 
L 882.185769 403.289163 
L 882.715516 402.975891 
L 883.245263 402.528361 
L 883.77501 399.440403 
L 884.304757 399.037626 
L 884.834504 398.411083 
L 885.36425 395.860161 
L 885.893997 395.233619 
L 886.423744 394.204299 
L 886.953491 394.07004 
L 888.012985 392.861709 
L 889.072479 390.579305 
L 889.602226 389.505232 
L 890.131972 386.283015 
L 891.191466 384.179623 
L 891.721213 381.852466 
L 892.780707 379.83858 
L 893.310454 378.182718 
L 894.369948 375.900314 
L 894.899695 374.468217 
L 895.429441 373.528404 
L 895.959188 372.096307 
L 896.488935 368.605571 
L 897.018682 367.128722 
L 897.548429 364.354034 
L 898.078176 362.384901 
L 899.667417 358.759907 
L 900.197164 358.088611 
L 901.256657 355.40343 
L 901.786404 354.329358 
L 902.316151 352.539237 
L 902.845898 351.151893 
L 903.375645 350.301586 
L 903.905392 349.048501 
L 904.964886 347.437392 
L 905.494632 345.781531 
L 906.554126 343.185855 
L 907.083873 341.395735 
L 907.61362 340.455921 
L 908.673114 337.457469 
L 909.202861 336.607161 
L 910.262355 333.877227 
L 911.321848 329.759949 
L 911.851595 328.014581 
L 912.911089 325.77693 
L 915.559823 317.855646 
L 916.08957 316.557808 
L 918.208558 309.979114 
L 919.268052 305.682824 
L 920.327546 302.997643 
L 921.916786 297.403515 
L 926.154761 281.292427 
L 926.684508 278.472987 
L 928.273749 272.878859 
L 928.803496 269.746148 
L 931.981977 255.693699 
L 932.511724 252.695247 
L 933.041471 250.502349 
L 933.571218 247.54865 
L 934.100965 245.62427 
L 936.219952 235.957617 
L 936.749699 233.943731 
L 937.809193 227.141272 
L 938.33894 224.277079 
L 939.398434 219.533258 
L 941.517421 209.195311 
L 942.047168 207.226178 
L 942.576915 204.585749 
L 943.636409 200.960755 
L 944.166156 198.186067 
L 945.22565 193.889777 
L 945.755397 191.159843 
L 946.285143 189.235463 
L 946.81489 186.729294 
L 947.344637 184.89442 
L 948.404131 180.777142 
L 953.171853 161.712355 
L 961.118057 136.426898 
L 962.17755 133.473199 
L 963.766791 129.176909 
L 964.296538 128.013331 
L 966.415525 121.792661 
L 966.945272 120.539576 
L 968.004766 118.704702 
L 968.534513 117.004087 
L 969.06426 116.109027 
L 970.123754 113.513352 
L 972.242741 109.709345 
L 973.302235 108.00873 
L 973.831982 106.800399 
L 975.421223 104.473241 
L 975.95097 103.667687 
L 978.599704 98.431584 
L 979.129451 97.9393 
L 979.659198 97.178499 
L 980.188945 96.193933 
L 980.718692 95.56739 
L 984.42692 90.018016 
L 984.956667 89.525732 
L 986.545908 87.377587 
L 988.135148 85.766479 
L 989.724389 83.752593 
L 990.254136 83.349816 
L 991.31363 82.051978 
L 991.843376 81.33593 
L 993.432617 80.038092 
L 993.962364 79.41155 
L 995.551605 78.113712 
L 997.140845 77.173899 
L 997.670592 76.592109 
L 1000.849074 74.175446 
L 1001.378821 73.548904 
L 1001.908567 73.101374 
L 1002.968061 71.893042 
L 1003.497808 71.490265 
L 1004.027555 71.311253 
L 1005.087049 70.595205 
L 1005.616796 69.968662 
L 1006.67629 69.476379 
L 1007.735783 69.028849 
L 1008.795277 68.089035 
L 1010.384518 67.193975 
L 1010.914265 67.014963 
L 1011.444012 66.656939 
L 1011.973759 66.119902 
L 1013.033252 65.582866 
L 1013.562999 65.090583 
L 1015.681987 64.329782 
L 1017.271227 63.524227 
L 1017.800974 63.031944 
L 1019.390215 62.047378 
L 1019.919962 61.957872 
L 1022.03895 60.794293 
L 1022.568696 60.74954 
L 1023.098443 60.481022 
L 1023.62819 60.346763 
L 1024.157937 59.943986 
L 1025.217431 59.496455 
L 1025.747178 59.138431 
L 1026.276925 58.959419 
L 1027.866165 57.795841 
L 1032.633887 56.587509 
L 1033.163634 56.274238 
L 1035.812369 55.737202 
L 1036.342116 55.602943 
L 1036.871863 55.244918 
L 1037.931356 54.931647 
L 1038.461103 54.707882 
L 1040.050344 54.484117 
L 1041.109838 53.857575 
L 1041.639585 53.768069 
L 1042.699078 53.096773 
L 1045.87756 52.335972 
L 1046.407307 52.291219 
L 1047.466801 51.933195 
L 1049.585788 51.530418 
L 1050.645282 51.2619 
L 1052.234523 50.859122 
L 1053.294016 50.23258 
L 1054.35351 49.919309 
L 1055.413004 49.650791 
L 1056.472498 49.382273 
L 1058.061738 49.248014 
L 1059.650979 48.800483 
L 1060.180726 48.666224 
L 1061.24022 48.173941 
L 1063.359207 47.950176 
L 1066.007942 47.368387 
L 1068.656676 46.876103 
L 1069.71617 46.473326 
L 1071.305411 46.428573 
L 1072.894652 46.204808 
L 1073.954145 46.115302 
L 1075.013639 45.93629 
L 1076.60288 45.846784 
L 1078.721867 45.578266 
L 1081.900349 45.130736 
L 1082.959843 45.04123 
L 1093.55478 44.056663 
L 1094.614274 43.922404 
L 1096.733262 43.877651 
L 1097.792756 43.743392 
L 1099.911743 43.653886 
L 1105.738959 43.251109 
L 1108.91744 43.161603 
L 1110.506681 43.11685 
L 1115.274403 43.072097 
L 1116.333897 42.893085 
L 1118.982631 42.758826 
L 1122.69086 42.669319 
L 1124.2801 42.624566 
L 1129.577569 42.53506 
L 1131.696557 42.445554 
L 1135.404785 42.356048 
L 1138.583267 42.177036 
L 1142.291495 42.08753 
L 1143.880736 42.042777 
L 1169.308587 41.953271 
L 1171.957321 41.819012 
L 1197.385172 41.729506 
L 1198.974413 41.684753 
L 1353.660506 41.64 
L 1353.660506 41.64 
" style="fill:none;stroke:#0000ff;stroke-linecap:square;stroke-width:1.5;"/>
   </g>
   <g id="line2d_36">
    <path clip-path="url(#p882ddc1c85)" d="M 859.936399 41.64 
L 868.41235 41.64 
L 868.942097 42.337851 
L 873.709819 42.189025 
L 889.602226 41.894031 
L 890.661719 42.358842 
L 891.191466 42.350376 
L 891.721213 42.559826 
L 893.310454 42.520501 
L 893.840201 42.725905 
L 894.369948 42.711574 
L 894.899695 42.904703 
L 897.018682 42.808989 
L 897.548429 42.965291 
L 898.607923 42.923283 
L 899.13767 43.087129 
L 899.667417 43.073616 
L 900.72691 43.39624 
L 901.786404 43.358356 
L 903.375645 43.792392 
L 906.554126 43.666061 
L 907.083873 43.789382 
L 909.732608 43.68526 
L 910.262355 43.809579 
L 911.321848 43.743288 
L 911.851595 43.854094 
L 912.911089 43.818394 
L 913.440836 43.926524 
L 913.970583 43.897044 
L 914.50033 44.133565 
L 915.030077 44.109766 
L 915.559823 44.212821 
L 918.208558 44.203226 
L 919.797799 44.698568 
L 920.857292 44.869063 
L 924.565521 44.720201 
L 926.154761 45.231881 
L 926.684508 45.578244 
L 927.744002 45.590409 
L 928.273749 45.755201 
L 928.803496 45.689418 
L 929.333243 45.924844 
L 930.392737 46.10674 
L 931.45223 46.363408 
L 932.511724 46.854528 
L 933.041471 46.88798 
L 933.571218 47.157827 
L 934.100965 47.109798 
L 936.219952 47.5266 
L 936.749699 47.795227 
L 937.809193 48.00838 
L 938.33894 48.392096 
L 940.457928 49.003953 
L 941.517421 49.075152 
L 942.047168 49.161206 
L 943.106662 49.593978 
L 944.166156 49.732399 
L 945.755397 50.526279 
L 947.344637 50.720283 
L 951.052865 52.423843 
L 951.582612 52.3955 
L 952.112359 52.805722 
L 952.642106 52.790834 
L 954.231347 53.713154 
L 954.761094 54.339986 
L 956.350334 54.819107 
L 956.880081 55.251849 
L 957.409828 55.402991 
L 957.939575 55.853357 
L 959.528816 56.456019 
L 960.058563 56.810881 
L 960.58831 56.952085 
L 961.118057 57.256454 
L 961.647803 57.778552 
L 963.237044 58.619428 
L 965.356032 59.471917 
L 966.415525 60.076912 
L 966.945272 60.465209 
L 967.475019 60.568738 
L 968.004766 60.918777 
L 969.06426 61.127749 
L 969.594007 61.592546 
L 970.123754 61.774112 
L 970.653501 62.110303 
L 971.183248 62.240097 
L 972.772488 63.065829 
L 973.302235 63.397175 
L 973.831982 63.517728 
L 975.421223 64.60943 
L 975.95097 64.701553 
L 977.010463 65.322589 
L 977.54021 65.846917 
L 978.069957 66.19957 
L 979.129451 66.338019 
L 980.188945 67.000984 
L 980.718692 67.639316 
L 981.248439 67.946492 
L 982.307932 68.960226 
L 983.897173 69.896922 
L 988.135148 72.019106 
L 992.90287 75.003832 
L 993.962364 75.54257 
L 994.492111 75.83829 
L 995.021858 76.380823 
L 995.551605 76.553729 
L 996.611099 77.688008 
L 1001.378821 80.017817 
L 1001.908567 80.177614 
L 1002.438314 80.679041 
L 1004.557302 82.124932 
L 1005.087049 82.20525 
L 1005.616796 82.616834 
L 1006.146543 82.786977 
L 1006.67629 83.272651 
L 1007.735783 83.890148 
L 1008.795277 84.841462 
L 1011.444012 87.065239 
L 1012.503505 87.738167 
L 1013.033252 88.46206 
L 1013.562999 88.672752 
L 1015.15224 90.14755 
L 1015.681987 90.562848 
L 1016.211734 90.755363 
L 1017.271227 91.543174 
L 1018.860468 92.438137 
L 1020.449709 93.699389 
L 1022.568696 95.034317 
L 1023.62819 95.843558 
L 1025.747178 97.152082 
L 1026.276925 97.341881 
L 1027.336418 97.957556 
L 1027.866165 98.671211 
L 1028.395912 98.967861 
L 1029.985153 100.227754 
L 1032.633887 101.487836 
L 1033.693381 102.594481 
L 1037.401609 104.812756 
L 1037.931356 105.323141 
L 1038.461103 105.559818 
L 1041.109838 108.182602 
L 1044.818066 110.687452 
L 1045.87756 111.623615 
L 1046.407307 111.840798 
L 1047.466801 112.648965 
L 1050.115535 114.896546 
L 1050.645282 115.22721 
L 1051.704776 116.369664 
L 1052.234523 116.690254 
L 1054.883257 119.11165 
L 1055.413004 119.873363 
L 1056.472498 120.827964 
L 1057.002245 121.151682 
L 1057.531992 121.751259 
L 1058.591485 122.574554 
L 1060.710473 125.036179 
L 1061.769967 126.159976 
L 1062.299714 126.885296 
L 1065.478195 130.203397 
L 1066.537689 131.338299 
L 1067.067436 131.716468 
L 1068.126929 132.951453 
L 1069.71617 134.595314 
L 1070.245917 135.391785 
L 1071.835158 137.003737 
L 1077.132627 143.520783 
L 1077.662374 143.945863 
L 1081.370602 148.025622 
L 1083.489589 149.94027 
L 1086.138324 153.007324 
L 1086.668071 153.227115 
L 1088.787058 155.243355 
L 1089.316805 155.604061 
L 1089.846552 156.146603 
L 1090.376299 156.520115 
L 1092.495287 158.670078 
L 1093.55478 159.814513 
L 1095.144021 161.412135 
L 1095.673768 161.817984 
L 1096.203515 162.392477 
L 1097.263009 163.880179 
L 1098.322502 164.753788 
L 1099.381996 166.182025 
L 1100.44149 166.876854 
L 1102.030731 168.388063 
L 1102.560478 168.761747 
L 1106.798453 173.028244 
L 1109.447187 175.240989 
L 1110.506681 176.16136 
L 1111.036428 176.473782 
L 1111.566175 176.930776 
L 1112.095922 177.158729 
L 1114.214909 179.551208 
L 1114.744656 180.120152 
L 1115.274403 180.38353 
L 1117.923138 182.97042 
L 1118.452885 183.644063 
L 1123.220607 188.057753 
L 1123.750353 188.325447 
L 1126.928835 191.151061 
L 1127.458582 191.841602 
L 1128.518076 192.89859 
L 1129.047822 193.478065 
L 1130.107316 194.311047 
L 1131.16681 195.421268 
L 1133.815545 197.682723 
L 1139.113013 201.838525 
L 1139.64276 202.45828 
L 1141.232001 203.661424 
L 1142.821242 204.775221 
L 1145.469976 207.16484 
L 1147.059217 208.564468 
L 1151.297192 212.042645 
L 1153.41618 213.9714 
L 1154.475673 214.503668 
L 1159.243395 218.394262 
L 1160.302889 219.329236 
L 1165.070611 223.453493 
L 1166.130105 224.407924 
L 1169.308587 227.240345 
L 1176.725043 233.304621 
L 1177.784537 234.235271 
L 1178.314284 234.552624 
L 1179.373778 235.447045 
L 1180.963018 236.736811 
L 1181.492765 237.228013 
L 1182.022512 237.498556 
L 1185.73074 240.521537 
L 1186.260487 240.896652 
L 1186.790234 241.568693 
L 1187.849728 242.495389 
L 1189.438969 243.949996 
L 1190.498462 244.893107 
L 1191.557956 245.995148 
L 1193.676944 248.096166 
L 1194.736438 248.957744 
L 1195.795931 249.961921 
L 1196.855425 250.843081 
L 1197.385172 251.172956 
L 1198.444666 252.066492 
L 1199.50416 252.985881 
L 1203.742135 256.854261 
L 1204.801629 257.508397 
L 1206.390869 259.057369 
L 1207.450363 260.073686 
L 1208.509857 260.976685 
L 1209.569351 261.974087 
L 1210.099097 262.504749 
L 1210.628844 262.840071 
L 1212.218085 264.529991 
L 1214.86682 267.35069 
L 1215.396566 268.324842 
L 1216.45606 269.393857 
L 1218.575048 271.404267 
L 1219.104795 271.729124 
L 1220.164288 272.742999 
L 1221.223782 273.546426 
L 1222.813023 275.034786 
L 1223.872517 275.668091 
L 1224.932011 276.790371 
L 1231.288973 282.248188 
L 1233.407961 285.228574 
L 1233.937708 285.827272 
L 1234.997202 287.427793 
L 1235.526948 287.895358 
L 1236.056695 288.65374 
L 1238.175683 292.511937 
L 1239.235177 295.067339 
L 1239.764924 296.020214 
L 1240.294671 298.073611 
L 1242.413658 301.538757 
L 1242.943405 302.837744 
L 1244.002899 306.469996 
L 1244.532646 307.397156 
L 1245.062393 308.039695 
L 1245.592139 310.215022 
L 1246.651633 310.9756 
L 1247.18138 311.995434 
L 1247.711127 312.772914 
L 1248.240874 313.127316 
L 1249.300368 317.075757 
L 1250.359862 318.627459 
L 1251.419355 319.217989 
L 1252.478849 320.488019 
L 1253.008596 320.755803 
L 1253.538343 320.760943 
L 1254.597837 323.136496 
L 1255.127584 323.552778 
L 1255.657331 323.552778 
L 1256.187077 323.690992 
L 1256.716824 336.967515 
L 1257.246571 336.967515 
L 1257.776318 337.112835 
L 1258.306065 354.86504 
L 1353.660506 354.86504 
L 1353.660506 354.86504 
" style="fill:none;stroke:#ff0000;stroke-linecap:square;stroke-width:1.5;"/>
   </g>
   <g id="line2d_37">
    <path clip-path="url(#p882ddc1c85)" d="M 859.936399 446.520581 
L 860.466146 446.20731 
L 860.995893 444.103918 
L 862.055387 443.924906 
L 863.114881 443.387869 
L 864.174375 443.343116 
L 864.704122 443.25361 
L 865.233868 441.284477 
L 866.293362 440.926453 
L 866.823109 440.613182 
L 867.882603 440.299911 
L 868.41235 440.299911 
L 868.942097 436.853854 
L 869.471844 436.674843 
L 870.00159 435.55602 
L 870.531337 435.421761 
L 871.590831 435.421761 
L 872.120578 434.839974 
L 872.650325 430.81221 
L 873.180072 429.872398 
L 873.709819 429.514375 
L 874.239566 428.798328 
L 874.769313 422.130137 
L 875.299059 421.548348 
L 875.828806 420.653288 
L 876.358553 416.670273 
L 876.8883 414.924907 
L 877.947794 413.806083 
L 878.477541 413.671824 
L 879.537035 411.210409 
L 880.066781 408.301465 
L 880.596528 407.18264 
L 881.656022 403.960425 
L 882.185769 403.333883 
L 882.715516 403.020612 
L 883.245263 402.573082 
L 883.77501 399.485125 
L 884.304757 399.082348 
L 884.834504 398.455806 
L 885.36425 395.904885 
L 885.893997 395.278343 
L 886.423744 394.249024 
L 886.953491 394.114765 
L 888.012985 392.906434 
L 889.072479 390.62403 
L 889.602226 389.549958 
L 890.131972 386.372417 
L 891.191466 384.313656 
L 891.721213 382.031088 
L 892.780707 380.017211 
L 893.310454 378.361357 
L 894.369948 376.123511 
L 894.899695 374.735931 
L 895.429441 373.796126 
L 895.959188 372.364041 
L 896.488935 368.873334 
L 897.018682 367.396496 
L 897.548429 364.666322 
L 898.078176 362.697208 
L 899.13767 360.10127 
L 899.667417 359.116715 
L 900.197164 358.48986 
L 901.256657 355.849121 
L 901.786404 354.775066 
L 902.316151 353.029352 
L 902.845898 351.686382 
L 903.375645 350.880409 
L 903.905392 349.627357 
L 904.964886 348.016288 
L 905.494632 346.360467 
L 906.554126 343.764853 
L 907.083873 342.019087 
L 907.61362 341.079298 
L 908.673114 338.08092 
L 909.202861 337.230633 
L 910.262355 334.545073 
L 911.321848 330.4279 
L 911.851595 328.726875 
L 912.911089 326.489284 
L 915.559823 318.745252 
L 916.08957 317.447462 
L 918.738305 308.853542 
L 919.268052 306.837904 
L 920.327546 304.196964 
L 921.387039 300.795259 
L 923.506027 292.561153 
L 926.154761 282.845457 
L 926.684508 280.202074 
L 927.744002 276.084327 
L 928.273749 274.740166 
L 928.803496 271.607747 
L 931.981977 258.170052 
L 932.511724 255.303064 
L 933.041471 253.154153 
L 933.571218 250.37541 
L 934.100965 248.451356 
L 936.219952 239.134908 
L 936.749699 237.295374 
L 937.279446 233.579087 
L 938.33894 228.108324 
L 938.868687 226.090689 
L 942.047168 211.797578 
L 942.576915 209.373739 
L 943.636409 205.96547 
L 944.166156 203.277914 
L 945.22565 199.499133 
L 945.755397 196.899094 
L 946.285143 195.061337 
L 947.344637 190.893721 
L 947.874384 188.826516 
L 948.404131 187.24915 
L 951.052865 177.671586 
L 951.582612 175.209546 
L 954.231347 167.0045 
L 955.290841 164.596232 
L 956.350334 161.084764 
L 957.409828 158.05342 
L 957.939575 157.222945 
L 960.58831 149.81086 
L 961.118057 148.537348 
L 961.647803 147.607918 
L 963.766791 142.786685 
L 964.296538 141.830886 
L 966.415525 136.729413 
L 967.475019 135.076032 
L 968.004766 134.4645 
L 968.534513 132.930444 
L 969.06426 132.159462 
L 970.123754 130.219927 
L 970.653501 129.562056 
L 971.183248 128.563252 
L 973.302235 126.345735 
L 973.831982 125.301619 
L 974.891476 124.507096 
L 975.421223 124.024283 
L 979.129451 119.343901 
L 979.659198 118.942448 
L 980.188945 118.277935 
L 980.718692 118.245827 
L 981.778185 117.417002 
L 982.307932 117.179592 
L 982.837679 116.551239 
L 983.367426 116.245361 
L 984.42692 115.264979 
L 985.486414 114.561761 
L 986.545908 113.64628 
L 987.075654 113.388631 
L 987.605401 113.368359 
L 989.194642 112.232496 
L 990.783883 111.67722 
L 991.31363 111.270871 
L 991.843376 111.016528 
L 992.90287 110.779727 
L 994.492111 110.139056 
L 995.021858 110.222922 
L 995.551605 110.011256 
L 996.611099 110.433566 
L 997.140845 110.428901 
L 998.200339 109.937166 
L 998.730086 109.895744 
L 999.259833 109.726501 
L 1000.319327 109.610149 
L 1000.849074 109.425577 
L 1001.378821 109.026214 
L 1001.908567 108.767254 
L 1002.968061 108.454199 
L 1003.497808 108.312338 
L 1004.557302 108.667764 
L 1005.616796 108.196044 
L 1006.146543 108.112422 
L 1006.67629 108.364117 
L 1010.384518 108.992547 
L 1011.444012 109.390561 
L 1011.973759 109.180306 
L 1012.503505 109.306016 
L 1013.033252 109.749658 
L 1013.562999 109.510958 
L 1015.15224 110.468117 
L 1015.681987 110.623429 
L 1016.211734 110.568316 
L 1017.271227 110.840731 
L 1017.800974 110.668321 
L 1018.860468 110.665725 
L 1019.390215 110.806709 
L 1019.919962 111.167127 
L 1020.449709 111.237322 
L 1020.979456 111.184382 
L 1022.03895 111.497772 
L 1023.62819 112.148679 
L 1024.687684 112.187623 
L 1025.217431 112.363771 
L 1027.336418 112.346191 
L 1027.866165 112.644704 
L 1028.395912 112.813974 
L 1029.985153 113.640628 
L 1031.574394 114.117591 
L 1032.104141 114.129457 
L 1032.633887 114.3165 
L 1034.752875 115.507025 
L 1035.812369 115.809567 
L 1036.342116 116.035906 
L 1036.871863 116.010341 
L 1037.931356 116.609924 
L 1038.461103 116.649262 
L 1039.520597 117.622149 
L 1041.639585 118.736298 
L 1042.169332 118.735652 
L 1043.228825 119.120435 
L 1045.347813 120.240644 
L 1045.87756 120.546629 
L 1046.937054 120.876372 
L 1049.056041 122.215205 
L 1049.585788 122.698717 
L 1050.645282 123.172064 
L 1051.704776 124.067491 
L 1053.823763 124.877534 
L 1055.942751 126.73119 
L 1059.650979 129.51563 
L 1060.710473 130.459051 
L 1061.24022 130.762064 
L 1062.82946 132.519181 
L 1064.948448 134.108182 
L 1066.007942 135.364296 
L 1067.597183 136.659821 
L 1068.126929 137.195413 
L 1068.656676 137.546314 
L 1069.186423 138.032303 
L 1069.71617 138.364492 
L 1070.245917 139.151845 
L 1072.894652 141.796403 
L 1073.954145 142.983982 
L 1074.483892 143.436856 
L 1075.013639 144.234362 
L 1079.251614 148.736673 
L 1082.430096 151.568667 
L 1083.489589 152.435763 
L 1084.549083 153.542555 
L 1085.608577 154.730422 
L 1086.138324 155.313694 
L 1086.668071 155.531853 
L 1088.257311 156.919311 
L 1089.846552 158.233987 
L 1090.376299 158.572389 
L 1091.96554 160.187473 
L 1093.025034 160.944857 
L 1094.084527 162.028246 
L 1094.614274 162.448827 
L 1095.144021 163.047054 
L 1095.673768 163.418695 
L 1096.203515 163.990142 
L 1096.733262 164.809218 
L 1097.263009 165.406368 
L 1097.792756 165.748923 
L 1098.322502 166.243829 
L 1099.381996 167.633399 
L 1100.44149 168.261885 
L 1102.560478 170.012874 
L 1104.679465 172.144745 
L 1105.209212 172.53429 
L 1106.798453 174.137977 
L 1111.566175 177.934381 
L 1112.095922 178.161536 
L 1113.685162 179.92511 
L 1114.744656 181.082525 
L 1115.274403 181.345011 
L 1116.333897 182.330815 
L 1117.393391 183.327985 
L 1117.923138 183.744493 
L 1118.452885 184.41628 
L 1121.631366 187.223539 
L 1122.69086 188.300391 
L 1125.869341 190.804211 
L 1126.928835 191.758064 
L 1127.458582 192.447068 
L 1128.518076 193.501703 
L 1129.047822 194.05123 
L 1130.107316 194.853876 
L 1131.16681 195.961861 
L 1135.404785 199.503857 
L 1136.994026 200.457919 
L 1141.232001 203.964791 
L 1142.821242 205.022368 
L 1145.469976 207.409707 
L 1147.059217 208.807999 
L 1152.356686 213.191837 
L 1153.41618 214.183287 
L 1154.475673 214.715104 
L 1159.243395 218.602399 
L 1160.302889 219.53658 
L 1165.070611 223.631859 
L 1166.130105 224.585582 
L 1169.308587 227.415901 
L 1173.546562 230.661473 
L 1174.606055 231.627495 
L 1176.195296 232.907608 
L 1177.784537 234.332623 
L 1178.314284 234.649841 
L 1179.373778 235.543883 
L 1180.963018 236.833103 
L 1181.492765 237.324096 
L 1182.022512 237.594524 
L 1185.200993 240.166028 
L 1186.260487 240.967547 
L 1186.790234 241.639375 
L 1187.849728 242.565777 
L 1189.438969 244.01992 
L 1190.498462 244.962732 
L 1191.557956 246.064423 
L 1193.676944 248.164772 
L 1194.736438 249.026076 
L 1195.795931 250.029934 
L 1196.855425 250.888236 
L 1197.385172 251.218041 
L 1204.271882 257.15549 
L 1205.861122 258.39242 
L 1206.920616 259.625105 
L 1211.688338 263.970975 
L 1214.86682 267.35069 
L 1215.396566 268.324842 
L 1216.45606 269.393857 
L 1218.575048 271.404267 
L 1219.104795 271.729124 
L 1220.164288 272.742999 
L 1221.223782 273.546426 
L 1222.813023 275.034786 
L 1223.872517 275.668091 
L 1224.932011 276.790371 
L 1231.288973 282.248188 
L 1233.407961 285.228574 
L 1233.937708 285.827272 
L 1234.997202 287.427793 
L 1235.526948 287.895358 
L 1236.056695 288.65374 
L 1238.175683 292.511937 
L 1239.235177 295.067339 
L 1239.764924 296.020214 
L 1240.294671 298.073611 
L 1242.413658 301.538757 
L 1242.943405 302.837744 
L 1244.002899 306.469996 
L 1244.532646 307.397156 
L 1245.062393 308.039695 
L 1245.592139 310.215022 
L 1246.651633 310.9756 
L 1247.18138 311.995434 
L 1247.711127 312.772914 
L 1248.240874 313.127316 
L 1249.300368 317.075757 
L 1250.359862 318.627459 
L 1251.419355 319.217989 
L 1252.478849 320.488019 
L 1253.008596 320.755803 
L 1253.538343 320.760943 
L 1254.597837 323.136496 
L 1255.127584 323.552778 
L 1255.657331 323.552778 
L 1256.187077 323.690992 
L 1256.716824 336.967515 
L 1257.246571 336.967515 
L 1257.776318 337.112835 
L 1258.306065 354.86504 
L 1353.660506 354.86504 
L 1353.660506 354.86504 
" style="fill:none;stroke:#008000;stroke-linecap:square;stroke-width:1.5;"/>
   </g>
   <g id="line2d_38">
    <path clip-path="url(#p882ddc1c85)" d="M 1006.146543 463.84 
L 1006.146543 41.64 
" style="fill:none;stroke:#1f77b4;stroke-linecap:square;stroke-width:1.5;"/>
   </g>
   <g id="patch_9">
    <path d="M 797.9825 463.84 
L 797.9825 41.64 
" style="fill:none;stroke:#000000;stroke-linecap:square;stroke-linejoin:miter;stroke-width:0.8;"/>
   </g>
   <g id="patch_10">
    <path d="M 1380.121364 463.84 
L 1380.121364 41.64 
" style="fill:none;stroke:#000000;stroke-linecap:square;stroke-linejoin:miter;stroke-width:0.8;"/>
   </g>
   <g id="patch_11">
    <path d="M 797.9825 463.84 
L 1380.121364 463.84 
" style="fill:none;stroke:#000000;stroke-linecap:square;stroke-linejoin:miter;stroke-width:0.8;"/>
   </g>
   <g id="patch_12">
    <path d="M 797.9825 41.64 
L 1380.121364 41.64 
" style="fill:none;stroke:#000000;stroke-linecap:square;stroke-linejoin:miter;stroke-width:0.8;"/>
   </g>
   <g id="text_33">
    <!-- Purity/Efficiency vs BDTMulti Cutoff — shower -->
    <defs>
     <path d="M 54.890625 33.015625 
L 54.890625 0 
L 45.90625 0 
L 45.90625 32.71875 
Q 45.90625 40.484375 42.875 44.328125 
Q 39.84375 48.1875 33.796875 48.1875 
Q 26.515625 48.1875 22.3125 43.546875 
Q 18.109375 38.921875 18.109375 30.90625 
L 18.109375 0 
L 9.078125 0 
L 9.078125 75.984375 
L 18.109375 75.984375 
L 18.109375 46.1875 
Q 21.34375 51.125 25.703125 53.5625 
Q 30.078125 56 35.796875 56 
Q 45.21875 56 50.046875 50.171875 
Q 54.890625 44.34375 54.890625 33.015625 
z
" id="DejaVuSans-104"/>
     <path d="M 4.203125 54.6875 
L 13.1875 54.6875 
L 24.421875 12.015625 
L 35.59375 54.6875 
L 46.1875 54.6875 
L 57.421875 12.015625 
L 68.609375 54.6875 
L 77.59375 54.6875 
L 63.28125 0 
L 52.6875 0 
L 40.921875 44.828125 
L 29.109375 0 
L 18.5 0 
z
" id="DejaVuSans-119"/>
    </defs>
    <g transform="translate(791.721182 35.64)scale(0.2592 -0.2592)">
     <use xlink:href="#DejaVuSans-80"/>
     <use x="60.287109" xlink:href="#DejaVuSans-117"/>
     <use x="123.666016" xlink:href="#DejaVuSans-114"/>
     <use x="164.779297" xlink:href="#DejaVuSans-105"/>
     <use x="192.5625" xlink:href="#DejaVuSans-116"/>
     <use x="231.771484" xlink:href="#DejaVuSans-121"/>
     <use x="290.951172" xlink:href="#DejaVuSans-47"/>
     <use x="324.642578" xlink:href="#DejaVuSans-69"/>
     <use x="387.826172" xlink:href="#DejaVuSans-102"/>
     <use x="423.03125" xlink:href="#DejaVuSans-102"/>
     <use x="458.236328" xlink:href="#DejaVuSans-105"/>
     <use x="486.019531" xlink:href="#DejaVuSans-99"/>
     <use x="541" xlink:href="#DejaVuSans-105"/>
     <use x="568.783203" xlink:href="#DejaVuSans-101"/>
     <use x="630.306641" xlink:href="#DejaVuSans-110"/>
     <use x="693.685547" xlink:href="#DejaVuSans-99"/>
     <use x="748.666016" xlink:href="#DejaVuSans-121"/>
     <use x="807.845703" xlink:href="#DejaVuSans-32"/>
     <use x="839.632812" xlink:href="#DejaVuSans-118"/>
     <use x="898.8125" xlink:href="#DejaVuSans-115"/>
     <use x="950.912109" xlink:href="#DejaVuSans-32"/>
     <use x="982.699219" xlink:href="#DejaVuSans-66"/>
     <use x="1051.302734" xlink:href="#DejaVuSans-68"/>
     <use x="1128.304688" xlink:href="#DejaVuSans-84"/>
     <use x="1189.388672" xlink:href="#DejaVuSans-77"/>
     <use x="1275.667969" xlink:href="#DejaVuSans-117"/>
     <use x="1339.046875" xlink:href="#DejaVuSans-108"/>
     <use x="1366.830078" xlink:href="#DejaVuSans-116"/>
     <use x="1406.039062" xlink:href="#DejaVuSans-105"/>
     <use x="1433.822266" xlink:href="#DejaVuSans-32"/>
     <use x="1465.609375" xlink:href="#DejaVuSans-67"/>
     <use x="1535.433594" xlink:href="#DejaVuSans-117"/>
     <use x="1598.8125" xlink:href="#DejaVuSans-116"/>
     <use x="1638.021484" xlink:href="#DejaVuSans-111"/>
     <use x="1699.203125" xlink:href="#DejaVuSans-102"/>
     <use x="1734.408203" xlink:href="#DejaVuSans-102"/>
     <use x="1769.613281" xlink:href="#DejaVuSans-32"/>
     <use x="1801.400391" xlink:href="#DejaVuSans-8212"/>
     <use x="1901.400391" xlink:href="#DejaVuSans-32"/>
     <use x="1933.1875" xlink:href="#DejaVuSans-115"/>
     <use x="1985.287109" xlink:href="#DejaVuSans-104"/>
     <use x="2048.666016" xlink:href="#DejaVuSans-111"/>
     <use x="2109.847656" xlink:href="#DejaVuSans-119"/>
     <use x="2191.634766" xlink:href="#DejaVuSans-101"/>
     <use x="2253.158203" xlink:href="#DejaVuSans-114"/>
    </g>
   </g>
   <g id="legend_2">
    <g id="patch_13">
     <path d="M 980.357244 454.84 
L 1197.746619 454.84 
Q 1201.346619 454.84 1201.346619 451.24 
L 1201.346619 373.778125 
Q 1201.346619 370.178125 1197.746619 370.178125 
L 980.357244 370.178125 
Q 976.757244 370.178125 976.757244 373.778125 
L 976.757244 451.24 
Q 976.757244 454.84 980.357244 454.84 
z
" style="fill:#ffffff;opacity:0.8;stroke:#cccccc;stroke-linejoin:miter;"/>
    </g>
    <g id="line2d_39">
     <path d="M 983.957244 384.755313 
L 1019.957244 384.755313 
" style="fill:none;stroke:#0000ff;stroke-linecap:square;stroke-width:1.5;"/>
    </g>
    <g id="line2d_40"/>
    <g id="text_34">
     <!-- Efficiency -->
     <g transform="translate(1034.357244 391.055313)scale(0.18 -0.18)">
      <use xlink:href="#DejaVuSans-69"/>
      <use x="63.183594" xlink:href="#DejaVuSans-102"/>
      <use x="98.388672" xlink:href="#DejaVuSans-102"/>
      <use x="133.59375" xlink:href="#DejaVuSans-105"/>
      <use x="161.376953" xlink:href="#DejaVuSans-99"/>
      <use x="216.357422" xlink:href="#DejaVuSans-105"/>
      <use x="244.140625" xlink:href="#DejaVuSans-101"/>
      <use x="305.664062" xlink:href="#DejaVuSans-110"/>
      <use x="369.042969" xlink:href="#DejaVuSans-99"/>
      <use x="424.023438" xlink:href="#DejaVuSans-121"/>
     </g>
    </g>
    <g id="line2d_41">
     <path d="M 983.957244 411.175937 
L 1019.957244 411.175937 
" style="fill:none;stroke:#ff0000;stroke-linecap:square;stroke-width:1.5;"/>
    </g>
    <g id="line2d_42"/>
    <g id="text_35">
     <!-- Purity -->
     <g transform="translate(1034.357244 417.475937)scale(0.18 -0.18)">
      <use xlink:href="#DejaVuSans-80"/>
      <use x="60.287109" xlink:href="#DejaVuSans-117"/>
      <use x="123.666016" xlink:href="#DejaVuSans-114"/>
      <use x="164.779297" xlink:href="#DejaVuSans-105"/>
      <use x="192.5625" xlink:href="#DejaVuSans-116"/>
      <use x="231.771484" xlink:href="#DejaVuSans-121"/>
     </g>
    </g>
    <g id="line2d_43">
     <path d="M 983.957244 437.596562 
L 1019.957244 437.596562 
" style="fill:none;stroke:#008000;stroke-linecap:square;stroke-width:1.5;"/>
    </g>
    <g id="line2d_44"/>
    <g id="text_36">
     <!-- Purity * Efficiency -->
     <g transform="translate(1034.357244 443.896562)scale(0.18 -0.18)">
      <use xlink:href="#DejaVuSans-80"/>
      <use x="60.287109" xlink:href="#DejaVuSans-117"/>
      <use x="123.666016" xlink:href="#DejaVuSans-114"/>
      <use x="164.779297" xlink:href="#DejaVuSans-105"/>
      <use x="192.5625" xlink:href="#DejaVuSans-116"/>
      <use x="231.771484" xlink:href="#DejaVuSans-121"/>
      <use x="290.951172" xlink:href="#DejaVuSans-32"/>
      <use x="322.738281" xlink:href="#DejaVuSans-42"/>
      <use x="372.738281" xlink:href="#DejaVuSans-32"/>
      <use x="404.525391" xlink:href="#DejaVuSans-69"/>
      <use x="467.708984" xlink:href="#DejaVuSans-102"/>
      <use x="502.914062" xlink:href="#DejaVuSans-102"/>
      <use x="538.119141" xlink:href="#DejaVuSans-105"/>
      <use x="565.902344" xlink:href="#DejaVuSans-99"/>
      <use x="620.882812" xlink:href="#DejaVuSans-105"/>
      <use x="648.666016" xlink:href="#DejaVuSans-101"/>
      <use x="710.189453" xlink:href="#DejaVuSans-110"/>
      <use x="773.568359" xlink:href="#DejaVuSans-99"/>
      <use x="828.548828" xlink:href="#DejaVuSans-121"/>
     </g>
    </g>
   </g>
  </g>
 </g>
 <defs>
  <clipPath id="pca250860fc">
   <rect height="422.2" width="582.138864" x="92.99" y="41.64"/>
  </clipPath>
  <clipPath id="p882ddc1c85">
   <rect height="422.2" width="582.138864" x="797.9825" y="41.64"/>
  </clipPath>
 </defs>
</svg>
