<?xml version="1.0" encoding="utf-8" standalone="no"?>
<!DOCTYPE svg PUBLIC "-//W3C//DTD SVG 1.1//EN"
  "http://www.w3.org/Graphics/SVG/1.1/DTD/svg11.dtd">
<!-- Created with matplotlib (https://matplotlib.org/) -->
<svg height="540pt" version="1.1" viewBox="0 0 1440 540" width="1440pt" xmlns="http://www.w3.org/2000/svg" xmlns:xlink="http://www.w3.org/1999/xlink">
 <defs>
  <style type="text/css">
*{stroke-linecap:butt;stroke-linejoin:round;}
  </style>
 </defs>
 <g id="figure_1">
  <g id="patch_1">
   <path d="M 0 540 
L 1440 540 
L 1440 0 
L 0 0 
z
" style="fill:#ffffff;"/>
  </g>
  <g id="axes_1">
   <g id="patch_2">
    <path d="M 121.382386 463.84 
L 592.902614 463.84 
L 592.902614 41.64 
L 121.382386 41.64 
z
" style="fill:#ffffff;"/>
   </g>
   <g id="matplotlib.axis_1">
    <g id="xtick_1">
     <g id="line2d_1">
      <defs>
       <path d="M 0 0 
L 0 3.5 
" id="m6c88b76d08" style="stroke:#000000;stroke-width:0.8;"/>
      </defs>
      <g>
       <use style="stroke:#000000;stroke-width:0.8;" x="142.815124" xlink:href="#m6c88b76d08" y="463.84"/>
      </g>
     </g>
     <g id="text_1">
      <!-- 0.0 -->
      <defs>
       <path d="M 31.78125 66.40625 
Q 24.171875 66.40625 20.328125 58.90625 
Q 16.5 51.421875 16.5 36.375 
Q 16.5 21.390625 20.328125 13.890625 
Q 24.171875 6.390625 31.78125 6.390625 
Q 39.453125 6.390625 43.28125 13.890625 
Q 47.125 21.390625 47.125 36.375 
Q 47.125 51.421875 43.28125 58.90625 
Q 39.453125 66.40625 31.78125 66.40625 
z
M 31.78125 74.21875 
Q 44.046875 74.21875 50.515625 64.515625 
Q 56.984375 54.828125 56.984375 36.375 
Q 56.984375 17.96875 50.515625 8.265625 
Q 44.046875 -1.421875 31.78125 -1.421875 
Q 19.53125 -1.421875 13.0625 8.265625 
Q 6.59375 17.96875 6.59375 36.375 
Q 6.59375 54.828125 13.0625 64.515625 
Q 19.53125 74.21875 31.78125 74.21875 
z
" id="DejaVuSans-48"/>
       <path d="M 10.6875 12.40625 
L 21 12.40625 
L 21 0 
L 10.6875 0 
z
" id="DejaVuSans-46"/>
      </defs>
      <g transform="translate(122.204674 490.53515)scale(0.2592 -0.2592)">
       <use xlink:href="#DejaVuSans-48"/>
       <use x="63.623047" xlink:href="#DejaVuSans-46"/>
       <use x="95.410156" xlink:href="#DejaVuSans-48"/>
      </g>
     </g>
    </g>
    <g id="xtick_2">
     <g id="line2d_2">
      <g>
       <use style="stroke:#000000;stroke-width:0.8;" x="228.546074" xlink:href="#m6c88b76d08" y="463.84"/>
      </g>
     </g>
     <g id="text_2">
      <!-- 0.2 -->
      <defs>
       <path d="M 19.1875 8.296875 
L 53.609375 8.296875 
L 53.609375 0 
L 7.328125 0 
L 7.328125 8.296875 
Q 12.9375 14.109375 22.625 23.890625 
Q 32.328125 33.6875 34.8125 36.53125 
Q 39.546875 41.84375 41.421875 45.53125 
Q 43.3125 49.21875 43.3125 52.78125 
Q 43.3125 58.59375 39.234375 62.25 
Q 35.15625 65.921875 28.609375 65.921875 
Q 23.96875 65.921875 18.8125 64.3125 
Q 13.671875 62.703125 7.8125 59.421875 
L 7.8125 69.390625 
Q 13.765625 71.78125 18.9375 73 
Q 24.125 74.21875 28.421875 74.21875 
Q 39.75 74.21875 46.484375 68.546875 
Q 53.21875 62.890625 53.21875 53.421875 
Q 53.21875 48.921875 51.53125 44.890625 
Q 49.859375 40.875 45.40625 35.40625 
Q 44.1875 33.984375 37.640625 27.21875 
Q 31.109375 20.453125 19.1875 8.296875 
z
" id="DejaVuSans-50"/>
      </defs>
      <g transform="translate(207.935624 490.53515)scale(0.2592 -0.2592)">
       <use xlink:href="#DejaVuSans-48"/>
       <use x="63.623047" xlink:href="#DejaVuSans-46"/>
       <use x="95.410156" xlink:href="#DejaVuSans-50"/>
      </g>
     </g>
    </g>
    <g id="xtick_3">
     <g id="line2d_3">
      <g>
       <use style="stroke:#000000;stroke-width:0.8;" x="314.277025" xlink:href="#m6c88b76d08" y="463.84"/>
      </g>
     </g>
     <g id="text_3">
      <!-- 0.4 -->
      <defs>
       <path d="M 37.796875 64.3125 
L 12.890625 25.390625 
L 37.796875 25.390625 
z
M 35.203125 72.90625 
L 47.609375 72.90625 
L 47.609375 25.390625 
L 58.015625 25.390625 
L 58.015625 17.1875 
L 47.609375 17.1875 
L 47.609375 0 
L 37.796875 0 
L 37.796875 17.1875 
L 4.890625 17.1875 
L 4.890625 26.703125 
z
" id="DejaVuSans-52"/>
      </defs>
      <g transform="translate(293.666575 490.53515)scale(0.2592 -0.2592)">
       <use xlink:href="#DejaVuSans-48"/>
       <use x="63.623047" xlink:href="#DejaVuSans-46"/>
       <use x="95.410156" xlink:href="#DejaVuSans-52"/>
      </g>
     </g>
    </g>
    <g id="xtick_4">
     <g id="line2d_4">
      <g>
       <use style="stroke:#000000;stroke-width:0.8;" x="400.007975" xlink:href="#m6c88b76d08" y="463.84"/>
      </g>
     </g>
     <g id="text_4">
      <!-- 0.6 -->
      <defs>
       <path d="M 33.015625 40.375 
Q 26.375 40.375 22.484375 35.828125 
Q 18.609375 31.296875 18.609375 23.390625 
Q 18.609375 15.53125 22.484375 10.953125 
Q 26.375 6.390625 33.015625 6.390625 
Q 39.65625 6.390625 43.53125 10.953125 
Q 47.40625 15.53125 47.40625 23.390625 
Q 47.40625 31.296875 43.53125 35.828125 
Q 39.65625 40.375 33.015625 40.375 
z
M 52.59375 71.296875 
L 52.59375 62.3125 
Q 48.875 64.0625 45.09375 64.984375 
Q 41.3125 65.921875 37.59375 65.921875 
Q 27.828125 65.921875 22.671875 59.328125 
Q 17.53125 52.734375 16.796875 39.40625 
Q 19.671875 43.65625 24.015625 45.921875 
Q 28.375 48.1875 33.59375 48.1875 
Q 44.578125 48.1875 50.953125 41.515625 
Q 57.328125 34.859375 57.328125 23.390625 
Q 57.328125 12.15625 50.6875 5.359375 
Q 44.046875 -1.421875 33.015625 -1.421875 
Q 20.359375 -1.421875 13.671875 8.265625 
Q 6.984375 17.96875 6.984375 36.375 
Q 6.984375 53.65625 15.1875 63.9375 
Q 23.390625 74.21875 37.203125 74.21875 
Q 40.921875 74.21875 44.703125 73.484375 
Q 48.484375 72.75 52.59375 71.296875 
z
" id="DejaVuSans-54"/>
      </defs>
      <g transform="translate(379.397525 490.53515)scale(0.2592 -0.2592)">
       <use xlink:href="#DejaVuSans-48"/>
       <use x="63.623047" xlink:href="#DejaVuSans-46"/>
       <use x="95.410156" xlink:href="#DejaVuSans-54"/>
      </g>
     </g>
    </g>
    <g id="xtick_5">
     <g id="line2d_5">
      <g>
       <use style="stroke:#000000;stroke-width:0.8;" x="485.738926" xlink:href="#m6c88b76d08" y="463.84"/>
      </g>
     </g>
     <g id="text_5">
      <!-- 0.8 -->
      <defs>
       <path d="M 31.78125 34.625 
Q 24.75 34.625 20.71875 30.859375 
Q 16.703125 27.09375 16.703125 20.515625 
Q 16.703125 13.921875 20.71875 10.15625 
Q 24.75 6.390625 31.78125 6.390625 
Q 38.8125 6.390625 42.859375 10.171875 
Q 46.921875 13.96875 46.921875 20.515625 
Q 46.921875 27.09375 42.890625 30.859375 
Q 38.875 34.625 31.78125 34.625 
z
M 21.921875 38.8125 
Q 15.578125 40.375 12.03125 44.71875 
Q 8.5 49.078125 8.5 55.328125 
Q 8.5 64.0625 14.71875 69.140625 
Q 20.953125 74.21875 31.78125 74.21875 
Q 42.671875 74.21875 48.875 69.140625 
Q 55.078125 64.0625 55.078125 55.328125 
Q 55.078125 49.078125 51.53125 44.71875 
Q 48 40.375 41.703125 38.8125 
Q 48.828125 37.15625 52.796875 32.3125 
Q 56.78125 27.484375 56.78125 20.515625 
Q 56.78125 9.90625 50.3125 4.234375 
Q 43.84375 -1.421875 31.78125 -1.421875 
Q 19.734375 -1.421875 13.25 4.234375 
Q 6.78125 9.90625 6.78125 20.515625 
Q 6.78125 27.484375 10.78125 32.3125 
Q 14.796875 37.15625 21.921875 38.8125 
z
M 18.3125 54.390625 
Q 18.3125 48.734375 21.84375 45.5625 
Q 25.390625 42.390625 31.78125 42.390625 
Q 38.140625 42.390625 41.71875 45.5625 
Q 45.3125 48.734375 45.3125 54.390625 
Q 45.3125 60.0625 41.71875 63.234375 
Q 38.140625 66.40625 31.78125 66.40625 
Q 25.390625 66.40625 21.84375 63.234375 
Q 18.3125 60.0625 18.3125 54.390625 
z
" id="DejaVuSans-56"/>
      </defs>
      <g transform="translate(465.128476 490.53515)scale(0.2592 -0.2592)">
       <use xlink:href="#DejaVuSans-48"/>
       <use x="63.623047" xlink:href="#DejaVuSans-46"/>
       <use x="95.410156" xlink:href="#DejaVuSans-56"/>
      </g>
     </g>
    </g>
    <g id="xtick_6">
     <g id="line2d_6">
      <g>
       <use style="stroke:#000000;stroke-width:0.8;" x="571.469876" xlink:href="#m6c88b76d08" y="463.84"/>
      </g>
     </g>
     <g id="text_6">
      <!-- 1.0 -->
      <defs>
       <path d="M 12.40625 8.296875 
L 28.515625 8.296875 
L 28.515625 63.921875 
L 10.984375 60.40625 
L 10.984375 69.390625 
L 28.421875 72.90625 
L 38.28125 72.90625 
L 38.28125 8.296875 
L 54.390625 8.296875 
L 54.390625 0 
L 12.40625 0 
z
" id="DejaVuSans-49"/>
      </defs>
      <g transform="translate(550.859426 490.53515)scale(0.2592 -0.2592)">
       <use xlink:href="#DejaVuSans-49"/>
       <use x="63.623047" xlink:href="#DejaVuSans-46"/>
       <use x="95.410156" xlink:href="#DejaVuSans-48"/>
      </g>
     </g>
    </g>
    <g id="text_7">
     <!-- ChainRSquaredAvgV Cutoff -->
     <defs>
      <path d="M 64.40625 67.28125 
L 64.40625 56.890625 
Q 59.421875 61.53125 53.78125 63.8125 
Q 48.140625 66.109375 41.796875 66.109375 
Q 29.296875 66.109375 22.65625 58.46875 
Q 16.015625 50.828125 16.015625 36.375 
Q 16.015625 21.96875 22.65625 14.328125 
Q 29.296875 6.6875 41.796875 6.6875 
Q 48.140625 6.6875 53.78125 8.984375 
Q 59.421875 11.28125 64.40625 15.921875 
L 64.40625 5.609375 
Q 59.234375 2.09375 53.4375 0.328125 
Q 47.65625 -1.421875 41.21875 -1.421875 
Q 24.65625 -1.421875 15.125 8.703125 
Q 5.609375 18.84375 5.609375 36.375 
Q 5.609375 53.953125 15.125 64.078125 
Q 24.65625 74.21875 41.21875 74.21875 
Q 47.75 74.21875 53.53125 72.484375 
Q 59.328125 70.75 64.40625 67.28125 
z
" id="DejaVuSans-67"/>
      <path d="M 54.890625 33.015625 
L 54.890625 0 
L 45.90625 0 
L 45.90625 32.71875 
Q 45.90625 40.484375 42.875 44.328125 
Q 39.84375 48.1875 33.796875 48.1875 
Q 26.515625 48.1875 22.3125 43.546875 
Q 18.109375 38.921875 18.109375 30.90625 
L 18.109375 0 
L 9.078125 0 
L 9.078125 75.984375 
L 18.109375 75.984375 
L 18.109375 46.1875 
Q 21.34375 51.125 25.703125 53.5625 
Q 30.078125 56 35.796875 56 
Q 45.21875 56 50.046875 50.171875 
Q 54.890625 44.34375 54.890625 33.015625 
z
" id="DejaVuSans-104"/>
      <path d="M 34.28125 27.484375 
Q 23.390625 27.484375 19.1875 25 
Q 14.984375 22.515625 14.984375 16.5 
Q 14.984375 11.71875 18.140625 8.90625 
Q 21.296875 6.109375 26.703125 6.109375 
Q 34.1875 6.109375 38.703125 11.40625 
Q 43.21875 16.703125 43.21875 25.484375 
L 43.21875 27.484375 
z
M 52.203125 31.203125 
L 52.203125 0 
L 43.21875 0 
L 43.21875 8.296875 
Q 40.140625 3.328125 35.546875 0.953125 
Q 30.953125 -1.421875 24.3125 -1.421875 
Q 15.921875 -1.421875 10.953125 3.296875 
Q 6 8.015625 6 15.921875 
Q 6 25.140625 12.171875 29.828125 
Q 18.359375 34.515625 30.609375 34.515625 
L 43.21875 34.515625 
L 43.21875 35.40625 
Q 43.21875 41.609375 39.140625 45 
Q 35.0625 48.390625 27.6875 48.390625 
Q 23 48.390625 18.546875 47.265625 
Q 14.109375 46.140625 10.015625 43.890625 
L 10.015625 52.203125 
Q 14.9375 54.109375 19.578125 55.046875 
Q 24.21875 56 28.609375 56 
Q 40.484375 56 46.34375 49.84375 
Q 52.203125 43.703125 52.203125 31.203125 
z
" id="DejaVuSans-97"/>
      <path d="M 9.421875 54.6875 
L 18.40625 54.6875 
L 18.40625 0 
L 9.421875 0 
z
M 9.421875 75.984375 
L 18.40625 75.984375 
L 18.40625 64.59375 
L 9.421875 64.59375 
z
" id="DejaVuSans-105"/>
      <path d="M 54.890625 33.015625 
L 54.890625 0 
L 45.90625 0 
L 45.90625 32.71875 
Q 45.90625 40.484375 42.875 44.328125 
Q 39.84375 48.1875 33.796875 48.1875 
Q 26.515625 48.1875 22.3125 43.546875 
Q 18.109375 38.921875 18.109375 30.90625 
L 18.109375 0 
L 9.078125 0 
L 9.078125 54.6875 
L 18.109375 54.6875 
L 18.109375 46.1875 
Q 21.34375 51.125 25.703125 53.5625 
Q 30.078125 56 35.796875 56 
Q 45.21875 56 50.046875 50.171875 
Q 54.890625 44.34375 54.890625 33.015625 
z
" id="DejaVuSans-110"/>
      <path d="M 44.390625 34.1875 
Q 47.5625 33.109375 50.5625 29.59375 
Q 53.5625 26.078125 56.59375 19.921875 
L 66.609375 0 
L 56 0 
L 46.6875 18.703125 
Q 43.0625 26.03125 39.671875 28.421875 
Q 36.28125 30.8125 30.421875 30.8125 
L 19.671875 30.8125 
L 19.671875 0 
L 9.8125 0 
L 9.8125 72.90625 
L 32.078125 72.90625 
Q 44.578125 72.90625 50.734375 67.671875 
Q 56.890625 62.453125 56.890625 51.90625 
Q 56.890625 45.015625 53.6875 40.46875 
Q 50.484375 35.9375 44.390625 34.1875 
z
M 19.671875 64.796875 
L 19.671875 38.921875 
L 32.078125 38.921875 
Q 39.203125 38.921875 42.84375 42.21875 
Q 46.484375 45.515625 46.484375 51.90625 
Q 46.484375 58.296875 42.84375 61.546875 
Q 39.203125 64.796875 32.078125 64.796875 
z
" id="DejaVuSans-82"/>
      <path d="M 53.515625 70.515625 
L 53.515625 60.890625 
Q 47.90625 63.578125 42.921875 64.890625 
Q 37.9375 66.21875 33.296875 66.21875 
Q 25.25 66.21875 20.875 63.09375 
Q 16.5 59.96875 16.5 54.203125 
Q 16.5 49.359375 19.40625 46.890625 
Q 22.3125 44.4375 30.421875 42.921875 
L 36.375 41.703125 
Q 47.40625 39.59375 52.65625 34.296875 
Q 57.90625 29 57.90625 20.125 
Q 57.90625 9.515625 50.796875 4.046875 
Q 43.703125 -1.421875 29.984375 -1.421875 
Q 24.8125 -1.421875 18.96875 -0.25 
Q 13.140625 0.921875 6.890625 3.21875 
L 6.890625 13.375 
Q 12.890625 10.015625 18.65625 8.296875 
Q 24.421875 6.59375 29.984375 6.59375 
Q 38.421875 6.59375 43.015625 9.90625 
Q 47.609375 13.234375 47.609375 19.390625 
Q 47.609375 24.75 44.3125 27.78125 
Q 41.015625 30.8125 33.5 32.328125 
L 27.484375 33.5 
Q 16.453125 35.6875 11.515625 40.375 
Q 6.59375 45.0625 6.59375 53.421875 
Q 6.59375 63.09375 13.40625 68.65625 
Q 20.21875 74.21875 32.171875 74.21875 
Q 37.3125 74.21875 42.625 73.28125 
Q 47.953125 72.359375 53.515625 70.515625 
z
" id="DejaVuSans-83"/>
      <path d="M 14.796875 27.296875 
Q 14.796875 17.390625 18.875 11.75 
Q 22.953125 6.109375 30.078125 6.109375 
Q 37.203125 6.109375 41.296875 11.75 
Q 45.40625 17.390625 45.40625 27.296875 
Q 45.40625 37.203125 41.296875 42.84375 
Q 37.203125 48.484375 30.078125 48.484375 
Q 22.953125 48.484375 18.875 42.84375 
Q 14.796875 37.203125 14.796875 27.296875 
z
M 45.40625 8.203125 
Q 42.578125 3.328125 38.25 0.953125 
Q 33.9375 -1.421875 27.875 -1.421875 
Q 17.96875 -1.421875 11.734375 6.484375 
Q 5.515625 14.40625 5.515625 27.296875 
Q 5.515625 40.1875 11.734375 48.09375 
Q 17.96875 56 27.875 56 
Q 33.9375 56 38.25 53.625 
Q 42.578125 51.265625 45.40625 46.390625 
L 45.40625 54.6875 
L 54.390625 54.6875 
L 54.390625 -20.796875 
L 45.40625 -20.796875 
z
" id="DejaVuSans-113"/>
      <path d="M 8.5 21.578125 
L 8.5 54.6875 
L 17.484375 54.6875 
L 17.484375 21.921875 
Q 17.484375 14.15625 20.5 10.265625 
Q 23.53125 6.390625 29.59375 6.390625 
Q 36.859375 6.390625 41.078125 11.03125 
Q 45.3125 15.671875 45.3125 23.6875 
L 45.3125 54.6875 
L 54.296875 54.6875 
L 54.296875 0 
L 45.3125 0 
L 45.3125 8.40625 
Q 42.046875 3.421875 37.71875 1 
Q 33.40625 -1.421875 27.6875 -1.421875 
Q 18.265625 -1.421875 13.375 4.4375 
Q 8.5 10.296875 8.5 21.578125 
z
M 31.109375 56 
z
" id="DejaVuSans-117"/>
      <path d="M 41.109375 46.296875 
Q 39.59375 47.171875 37.8125 47.578125 
Q 36.03125 48 33.890625 48 
Q 26.265625 48 22.1875 43.046875 
Q 18.109375 38.09375 18.109375 28.8125 
L 18.109375 0 
L 9.078125 0 
L 9.078125 54.6875 
L 18.109375 54.6875 
L 18.109375 46.1875 
Q 20.953125 51.171875 25.484375 53.578125 
Q 30.03125 56 36.53125 56 
Q 37.453125 56 38.578125 55.875 
Q 39.703125 55.765625 41.0625 55.515625 
z
" id="DejaVuSans-114"/>
      <path d="M 56.203125 29.59375 
L 56.203125 25.203125 
L 14.890625 25.203125 
Q 15.484375 15.921875 20.484375 11.0625 
Q 25.484375 6.203125 34.421875 6.203125 
Q 39.59375 6.203125 44.453125 7.46875 
Q 49.3125 8.734375 54.109375 11.28125 
L 54.109375 2.78125 
Q 49.265625 0.734375 44.1875 -0.34375 
Q 39.109375 -1.421875 33.890625 -1.421875 
Q 20.796875 -1.421875 13.15625 6.1875 
Q 5.515625 13.8125 5.515625 26.8125 
Q 5.515625 40.234375 12.765625 48.109375 
Q 20.015625 56 32.328125 56 
Q 43.359375 56 49.78125 48.890625 
Q 56.203125 41.796875 56.203125 29.59375 
z
M 47.21875 32.234375 
Q 47.125 39.59375 43.09375 43.984375 
Q 39.0625 48.390625 32.421875 48.390625 
Q 24.90625 48.390625 20.390625 44.140625 
Q 15.875 39.890625 15.1875 32.171875 
z
" id="DejaVuSans-101"/>
      <path d="M 45.40625 46.390625 
L 45.40625 75.984375 
L 54.390625 75.984375 
L 54.390625 0 
L 45.40625 0 
L 45.40625 8.203125 
Q 42.578125 3.328125 38.25 0.953125 
Q 33.9375 -1.421875 27.875 -1.421875 
Q 17.96875 -1.421875 11.734375 6.484375 
Q 5.515625 14.40625 5.515625 27.296875 
Q 5.515625 40.1875 11.734375 48.09375 
Q 17.96875 56 27.875 56 
Q 33.9375 56 38.25 53.625 
Q 42.578125 51.265625 45.40625 46.390625 
z
M 14.796875 27.296875 
Q 14.796875 17.390625 18.875 11.75 
Q 22.953125 6.109375 30.078125 6.109375 
Q 37.203125 6.109375 41.296875 11.75 
Q 45.40625 17.390625 45.40625 27.296875 
Q 45.40625 37.203125 41.296875 42.84375 
Q 37.203125 48.484375 30.078125 48.484375 
Q 22.953125 48.484375 18.875 42.84375 
Q 14.796875 37.203125 14.796875 27.296875 
z
" id="DejaVuSans-100"/>
      <path d="M 34.1875 63.1875 
L 20.796875 26.90625 
L 47.609375 26.90625 
z
M 28.609375 72.90625 
L 39.796875 72.90625 
L 67.578125 0 
L 57.328125 0 
L 50.6875 18.703125 
L 17.828125 18.703125 
L 11.1875 0 
L 0.78125 0 
z
" id="DejaVuSans-65"/>
      <path d="M 2.984375 54.6875 
L 12.5 54.6875 
L 29.59375 8.796875 
L 46.6875 54.6875 
L 56.203125 54.6875 
L 35.6875 0 
L 23.484375 0 
z
" id="DejaVuSans-118"/>
      <path d="M 45.40625 27.984375 
Q 45.40625 37.75 41.375 43.109375 
Q 37.359375 48.484375 30.078125 48.484375 
Q 22.859375 48.484375 18.828125 43.109375 
Q 14.796875 37.75 14.796875 27.984375 
Q 14.796875 18.265625 18.828125 12.890625 
Q 22.859375 7.515625 30.078125 7.515625 
Q 37.359375 7.515625 41.375 12.890625 
Q 45.40625 18.265625 45.40625 27.984375 
z
M 54.390625 6.78125 
Q 54.390625 -7.171875 48.1875 -13.984375 
Q 42 -20.796875 29.203125 -20.796875 
Q 24.46875 -20.796875 20.265625 -20.09375 
Q 16.0625 -19.390625 12.109375 -17.921875 
L 12.109375 -9.1875 
Q 16.0625 -11.328125 19.921875 -12.34375 
Q 23.78125 -13.375 27.78125 -13.375 
Q 36.625 -13.375 41.015625 -8.765625 
Q 45.40625 -4.15625 45.40625 5.171875 
L 45.40625 9.625 
Q 42.625 4.78125 38.28125 2.390625 
Q 33.9375 0 27.875 0 
Q 17.828125 0 11.671875 7.65625 
Q 5.515625 15.328125 5.515625 27.984375 
Q 5.515625 40.671875 11.671875 48.328125 
Q 17.828125 56 27.875 56 
Q 33.9375 56 38.28125 53.609375 
Q 42.625 51.21875 45.40625 46.390625 
L 45.40625 54.6875 
L 54.390625 54.6875 
z
" id="DejaVuSans-103"/>
      <path d="M 28.609375 0 
L 0.78125 72.90625 
L 11.078125 72.90625 
L 34.1875 11.53125 
L 57.328125 72.90625 
L 67.578125 72.90625 
L 39.796875 0 
z
" id="DejaVuSans-86"/>
      <path id="DejaVuSans-32"/>
      <path d="M 18.3125 70.21875 
L 18.3125 54.6875 
L 36.8125 54.6875 
L 36.8125 47.703125 
L 18.3125 47.703125 
L 18.3125 18.015625 
Q 18.3125 11.328125 20.140625 9.421875 
Q 21.96875 7.515625 27.59375 7.515625 
L 36.8125 7.515625 
L 36.8125 0 
L 27.59375 0 
Q 17.1875 0 13.234375 3.875 
Q 9.28125 7.765625 9.28125 18.015625 
L 9.28125 47.703125 
L 2.6875 47.703125 
L 2.6875 54.6875 
L 9.28125 54.6875 
L 9.28125 70.21875 
z
" id="DejaVuSans-116"/>
      <path d="M 30.609375 48.390625 
Q 23.390625 48.390625 19.1875 42.75 
Q 14.984375 37.109375 14.984375 27.296875 
Q 14.984375 17.484375 19.15625 11.84375 
Q 23.34375 6.203125 30.609375 6.203125 
Q 37.796875 6.203125 41.984375 11.859375 
Q 46.1875 17.53125 46.1875 27.296875 
Q 46.1875 37.015625 41.984375 42.703125 
Q 37.796875 48.390625 30.609375 48.390625 
z
M 30.609375 56 
Q 42.328125 56 49.015625 48.375 
Q 55.71875 40.765625 55.71875 27.296875 
Q 55.71875 13.875 49.015625 6.21875 
Q 42.328125 -1.421875 30.609375 -1.421875 
Q 18.84375 -1.421875 12.171875 6.21875 
Q 5.515625 13.875 5.515625 27.296875 
Q 5.515625 40.765625 12.171875 48.375 
Q 18.84375 56 30.609375 56 
z
" id="DejaVuSans-111"/>
      <path d="M 37.109375 75.984375 
L 37.109375 68.5 
L 28.515625 68.5 
Q 23.6875 68.5 21.796875 66.546875 
Q 19.921875 64.59375 19.921875 59.515625 
L 19.921875 54.6875 
L 34.71875 54.6875 
L 34.71875 47.703125 
L 19.921875 47.703125 
L 19.921875 0 
L 10.890625 0 
L 10.890625 47.703125 
L 2.296875 47.703125 
L 2.296875 54.6875 
L 10.890625 54.6875 
L 10.890625 58.5 
Q 10.890625 67.625 15.140625 71.796875 
Q 19.390625 75.984375 28.609375 75.984375 
z
" id="DejaVuSans-102"/>
     </defs>
     <g transform="translate(179.84565 519.62085)scale(0.2592 -0.2592)">
      <use xlink:href="#DejaVuSans-67"/>
      <use x="69.824219" xlink:href="#DejaVuSans-104"/>
      <use x="133.203125" xlink:href="#DejaVuSans-97"/>
      <use x="194.482422" xlink:href="#DejaVuSans-105"/>
      <use x="222.265625" xlink:href="#DejaVuSans-110"/>
      <use x="285.644531" xlink:href="#DejaVuSans-82"/>
      <use x="355.126953" xlink:href="#DejaVuSans-83"/>
      <use x="418.603516" xlink:href="#DejaVuSans-113"/>
      <use x="482.080078" xlink:href="#DejaVuSans-117"/>
      <use x="545.458984" xlink:href="#DejaVuSans-97"/>
      <use x="606.738281" xlink:href="#DejaVuSans-114"/>
      <use x="647.820312" xlink:href="#DejaVuSans-101"/>
      <use x="709.34375" xlink:href="#DejaVuSans-100"/>
      <use x="772.820312" xlink:href="#DejaVuSans-65"/>
      <use x="841.150391" xlink:href="#DejaVuSans-118"/>
      <use x="900.330078" xlink:href="#DejaVuSans-103"/>
      <use x="963.806641" xlink:href="#DejaVuSans-86"/>
      <use x="1032.214844" xlink:href="#DejaVuSans-32"/>
      <use x="1064.001953" xlink:href="#DejaVuSans-67"/>
      <use x="1133.826172" xlink:href="#DejaVuSans-117"/>
      <use x="1197.205078" xlink:href="#DejaVuSans-116"/>
      <use x="1236.414062" xlink:href="#DejaVuSans-111"/>
      <use x="1297.595703" xlink:href="#DejaVuSans-102"/>
      <use x="1332.800781" xlink:href="#DejaVuSans-102"/>
     </g>
    </g>
   </g>
   <g id="matplotlib.axis_2">
    <g id="ytick_1">
     <g id="line2d_7">
      <defs>
       <path d="M 0 0 
L -3.5 0 
" id="m18be9ffb65" style="stroke:#000000;stroke-width:0.8;"/>
      </defs>
      <g>
       <use style="stroke:#000000;stroke-width:0.8;" x="121.382386" xlink:href="#m18be9ffb65" y="463.84"/>
      </g>
     </g>
     <g id="text_8">
      <!-- 0.0 -->
      <g transform="translate(73.161486 473.687575)scale(0.2592 -0.2592)">
       <use xlink:href="#DejaVuSans-48"/>
       <use x="63.623047" xlink:href="#DejaVuSans-46"/>
       <use x="95.410156" xlink:href="#DejaVuSans-48"/>
      </g>
     </g>
    </g>
    <g id="ytick_2">
     <g id="line2d_8">
      <g>
       <use style="stroke:#000000;stroke-width:0.8;" x="121.382386" xlink:href="#m18be9ffb65" y="379.4"/>
      </g>
     </g>
     <g id="text_9">
      <!-- 0.2 -->
      <g transform="translate(73.161486 389.247575)scale(0.2592 -0.2592)">
       <use xlink:href="#DejaVuSans-48"/>
       <use x="63.623047" xlink:href="#DejaVuSans-46"/>
       <use x="95.410156" xlink:href="#DejaVuSans-50"/>
      </g>
     </g>
    </g>
    <g id="ytick_3">
     <g id="line2d_9">
      <g>
       <use style="stroke:#000000;stroke-width:0.8;" x="121.382386" xlink:href="#m18be9ffb65" y="294.96"/>
      </g>
     </g>
     <g id="text_10">
      <!-- 0.4 -->
      <g transform="translate(73.161486 304.807575)scale(0.2592 -0.2592)">
       <use xlink:href="#DejaVuSans-48"/>
       <use x="63.623047" xlink:href="#DejaVuSans-46"/>
       <use x="95.410156" xlink:href="#DejaVuSans-52"/>
      </g>
     </g>
    </g>
    <g id="ytick_4">
     <g id="line2d_10">
      <g>
       <use style="stroke:#000000;stroke-width:0.8;" x="121.382386" xlink:href="#m18be9ffb65" y="210.52"/>
      </g>
     </g>
     <g id="text_11">
      <!-- 0.6 -->
      <g transform="translate(73.161486 220.367575)scale(0.2592 -0.2592)">
       <use xlink:href="#DejaVuSans-48"/>
       <use x="63.623047" xlink:href="#DejaVuSans-46"/>
       <use x="95.410156" xlink:href="#DejaVuSans-54"/>
      </g>
     </g>
    </g>
    <g id="ytick_5">
     <g id="line2d_11">
      <g>
       <use style="stroke:#000000;stroke-width:0.8;" x="121.382386" xlink:href="#m18be9ffb65" y="126.08"/>
      </g>
     </g>
     <g id="text_12">
      <!-- 0.8 -->
      <g transform="translate(73.161486 135.927575)scale(0.2592 -0.2592)">
       <use xlink:href="#DejaVuSans-48"/>
       <use x="63.623047" xlink:href="#DejaVuSans-46"/>
       <use x="95.410156" xlink:href="#DejaVuSans-56"/>
      </g>
     </g>
    </g>
    <g id="ytick_6">
     <g id="line2d_12">
      <g>
       <use style="stroke:#000000;stroke-width:0.8;" x="121.382386" xlink:href="#m18be9ffb65" y="41.64"/>
      </g>
     </g>
     <g id="text_13">
      <!-- 1.0 -->
      <g transform="translate(73.161486 51.487575)scale(0.2592 -0.2592)">
       <use xlink:href="#DejaVuSans-49"/>
       <use x="63.623047" xlink:href="#DejaVuSans-46"/>
       <use x="95.410156" xlink:href="#DejaVuSans-48"/>
      </g>
     </g>
    </g>
    <g id="text_14">
     <!-- Fraction -->
     <defs>
      <path d="M 9.8125 72.90625 
L 51.703125 72.90625 
L 51.703125 64.59375 
L 19.671875 64.59375 
L 19.671875 43.109375 
L 48.578125 43.109375 
L 48.578125 34.8125 
L 19.671875 34.8125 
L 19.671875 0 
L 9.8125 0 
z
" id="DejaVuSans-70"/>
      <path d="M 48.78125 52.59375 
L 48.78125 44.1875 
Q 44.96875 46.296875 41.140625 47.34375 
Q 37.3125 48.390625 33.40625 48.390625 
Q 24.65625 48.390625 19.8125 42.84375 
Q 14.984375 37.3125 14.984375 27.296875 
Q 14.984375 17.28125 19.8125 11.734375 
Q 24.65625 6.203125 33.40625 6.203125 
Q 37.3125 6.203125 41.140625 7.25 
Q 44.96875 8.296875 48.78125 10.40625 
L 48.78125 2.09375 
Q 45.015625 0.34375 40.984375 -0.53125 
Q 36.96875 -1.421875 32.421875 -1.421875 
Q 20.0625 -1.421875 12.78125 6.34375 
Q 5.515625 14.109375 5.515625 27.296875 
Q 5.515625 40.671875 12.859375 48.328125 
Q 20.21875 56 33.015625 56 
Q 37.15625 56 41.109375 55.140625 
Q 45.0625 54.296875 48.78125 52.59375 
z
" id="DejaVuSans-99"/>
     </defs>
     <g transform="translate(63.770936 305.400125)rotate(-90)scale(0.2592 -0.2592)">
      <use xlink:href="#DejaVuSans-70"/>
      <use x="57.410156" xlink:href="#DejaVuSans-114"/>
      <use x="98.523438" xlink:href="#DejaVuSans-97"/>
      <use x="159.802734" xlink:href="#DejaVuSans-99"/>
      <use x="214.783203" xlink:href="#DejaVuSans-116"/>
      <use x="253.992188" xlink:href="#DejaVuSans-105"/>
      <use x="281.775391" xlink:href="#DejaVuSans-111"/>
      <use x="342.957031" xlink:href="#DejaVuSans-110"/>
     </g>
    </g>
   </g>
   <g id="line2d_13">
    <path clip-path="url(#p205bd418ab)" d="M 142.815124 41.64 
L 175.425495 41.748991 
L 180.574502 41.826842 
L 182.719921 41.935833 
L 198.166939 42.589779 
L 199.025106 42.6832 
L 202.028693 42.76105 
L 205.03228 42.994602 
L 211.039454 43.321575 
L 222.624717 44.240214 
L 223.911969 44.380345 
L 235.926316 45.314554 
L 237.213568 45.501395 
L 246.224328 46.591306 
L 248.369748 46.809288 
L 250.515167 46.980559 
L 255.235089 47.727926 
L 277.976532 50.31257 
L 282.696454 50.888665 
L 283.983706 50.997656 
L 286.987293 51.371339 
L 288.274544 51.667172 
L 290.849047 52.056426 
L 291.707215 52.305548 
L 299.00164 53.442168 
L 300.288892 53.706861 
L 301.147059 53.909273 
L 303.292479 54.500938 
L 306.296065 54.874622 
L 307.154233 55.045893 
L 310.15782 55.466287 
L 311.445071 55.653129 
L 312.303239 55.80883 
L 314.877742 56.462776 
L 315.73591 56.634048 
L 322.172167 58.128782 
L 324.74667 58.767157 
L 328.608425 59.639085 
L 329.895676 59.888208 
L 334.615599 60.978118 
L 337.619185 61.694344 
L 339.335521 62.395001 
L 340.622772 62.721974 
L 341.48094 62.924386 
L 342.768191 63.235788 
L 346.629946 64.403549 
L 347.488114 64.746092 
L 351.778952 66.069555 
L 353.066204 66.443238 
L 356.927958 67.626569 
L 358.644293 68.358366 
L 363.364216 70.164502 
L 364.651467 70.725027 
L 365.938719 71.207702 
L 366.796886 71.581385 
L 367.22597 71.721516 
L 367.655054 72.001779 
L 368.513222 72.219761 
L 370.229557 72.920417 
L 371.945892 73.683354 
L 373.233144 73.932477 
L 374.091312 74.384011 
L 374.949479 74.586423 
L 376.236731 75.115808 
L 377.523982 75.816464 
L 380.527569 76.984225 
L 381.385737 77.342338 
L 385.247491 78.837072 
L 386.105659 79.164045 
L 387.39291 79.600009 
L 388.680162 80.207244 
L 390.825581 81.219304 
L 391.683749 81.499566 
L 392.541916 81.90439 
L 393.400084 82.153512 
L 394.258252 82.449345 
L 395.116419 82.96316 
L 397.261839 83.850658 
L 398.978174 84.738156 
L 399.836342 85.20526 
L 401.981761 86.20175 
L 402.839929 86.699994 
L 414.854276 93.566427 
L 416.141527 94.235943 
L 416.999695 94.734188 
L 418.71603 95.855238 
L 419.574198 96.337913 
L 420.432366 96.898438 
L 421.719617 97.708085 
L 423.435953 98.766855 
L 426.439539 100.650842 
L 427.297707 101.102376 
L 428.584959 102.036585 
L 429.443126 102.721671 
L 429.87221 102.939653 
L 430.301294 103.453468 
L 432.017629 104.574518 
L 434.163049 106.131533 
L 436.737552 107.813108 
L 444.031977 113.574061 
L 444.461061 113.823183 
L 444.890144 114.212437 
L 445.319228 114.368138 
L 446.60648 115.302347 
L 447.893731 116.345547 
L 448.322815 116.874931 
L 450.468234 118.478656 
L 451.326402 119.257163 
L 452.613653 120.222512 
L 454.329989 121.686106 
L 454.759073 121.966368 
L 456.904492 124.068338 
L 464.628001 130.810209 
L 465.486169 131.682137 
L 467.631588 133.690686 
L 469.777007 135.527963 
L 470.635175 136.415461 
L 471.493342 137.302959 
L 471.922426 137.832344 
L 472.35151 138.159317 
L 473.209678 139.140236 
L 474.067845 139.825322 
L 475.355097 141.273346 
L 475.784181 141.569178 
L 477.9296 144.075971 
L 478.358684 144.465225 
L 478.787767 145.150311 
L 479.216851 145.555135 
L 479.645935 146.11566 
L 480.075019 146.427063 
L 481.36227 147.999647 
L 481.791354 148.32662 
L 483.078606 149.945915 
L 483.50769 150.739993 
L 483.936774 151.051395 
L 484.365857 151.50293 
L 484.794941 152.188016 
L 485.653109 152.919813 
L 490.373031 159.241291 
L 491.231199 160.144359 
L 492.947534 161.997206 
L 493.376618 162.246328 
L 495.951121 165.500488 
L 497.238372 167.400046 
L 498.525624 169.034911 
L 499.812875 170.420653 
L 500.671043 171.650695 
L 502.387378 174.001786 
L 505.820049 178.641689 
L 507.107301 180.292124 
L 507.536384 180.650237 
L 508.823636 182.331813 
L 509.681804 183.733126 
L 511.398139 186.520181 
L 512.256307 188.155046 
L 512.685391 188.746712 
L 513.114474 189.5875 
L 513.972642 190.69298 
L 516.976229 195.06819 
L 517.834397 196.267091 
L 518.26348 196.718625 
L 519.550732 198.945156 
L 520.4089 200.424319 
L 521.696151 202.323877 
L 522.554319 203.912031 
L 523.412486 205.500186 
L 524.270654 207.244042 
L 525.986989 210.576053 
L 528.132409 214.172756 
L 531.135995 219.762437 
L 531.994163 221.14818 
L 534.99775 227.313956 
L 536.714085 230.708248 
L 539.717672 237.123146 
L 545.724846 253.674209 
L 547.441181 258.936917 
L 550.444768 268.232292 
L 554.735606 283.397612 
L 556.022858 288.971723 
L 557.310109 294.421273 
L 558.168277 298.251528 
L 559.884612 307.982868 
L 562.459115 323.739852 
L 563.746367 333.23764 
L 565.033618 344.012179 
L 566.32087 355.627506 
L 567.608122 370.014318 
L 568.466289 381.847626 
L 569.324457 396.685973 
L 569.753541 406.931127 
L 570.611708 436.358697 
L 571.040792 456.350761 
L 571.469876 463.84 
L 571.469876 463.84 
" style="fill:none;stroke:#0000ff;stroke-linecap:square;stroke-width:1.5;"/>
   </g>
   <g id="line2d_14">
    <path clip-path="url(#p205bd418ab)" d="M 142.815124 150.61496 
L 190.872514 150.725776 
L 200.312358 150.812495 
L 224.770137 151.091089 
L 238.500819 151.271658 
L 280.121951 151.752036 
L 283.125538 151.755596 
L 290.419964 151.813489 
L 293.42355 151.884392 
L 302.005227 151.996617 
L 305.866982 152.003645 
L 308.012401 151.96923 
L 335.473766 151.911799 
L 337.619185 151.799091 
L 341.051856 151.785452 
L 350.062617 151.780722 
L 352.63712 151.686627 
L 356.927958 151.440727 
L 363.364216 151.31534 
L 364.651467 151.220327 
L 368.513222 150.94998 
L 370.229557 150.836533 
L 372.374976 150.649682 
L 374.091312 150.472386 
L 377.094898 150.19637 
L 379.669401 149.985734 
L 380.527569 149.834516 
L 382.243904 149.726544 
L 383.96024 149.576171 
L 389.109246 148.913304 
L 391.683749 148.506245 
L 392.541916 148.321903 
L 394.258252 148.050541 
L 394.687336 148.067326 
L 396.403671 147.681652 
L 397.690922 147.514211 
L 406.272599 145.969654 
L 406.701683 145.80327 
L 407.559851 145.668725 
L 409.276186 145.28395 
L 410.992521 144.959718 
L 413.137941 144.284401 
L 414.854276 143.757808 
L 418.286947 142.705661 
L 418.71603 142.675019 
L 419.574198 142.205988 
L 420.86145 141.78875 
L 421.290533 141.807973 
L 426.439539 140.172297 
L 429.014043 139.243948 
L 432.446713 138.137206 
L 435.021216 137.043496 
L 437.166635 136.233451 
L 442.315641 133.983927 
L 442.744725 133.651008 
L 443.602893 133.257885 
L 448.751899 130.437517 
L 450.03915 129.617148 
L 452.18457 128.442085 
L 453.042737 127.932944 
L 453.471821 127.788941 
L 457.333576 124.892018 
L 457.76266 124.724598 
L 459.049911 123.701806 
L 459.478995 123.552608 
L 460.766246 122.473695 
L 462.053498 121.234952 
L 463.769833 119.766339 
L 465.057085 118.974703 
L 467.631588 116.810159 
L 468.489755 116.236716 
L 469.777007 115.200517 
L 470.635175 114.611199 
L 472.35151 113.077105 
L 474.067845 111.385651 
L 477.071432 108.434842 
L 478.358684 106.896368 
L 479.645935 105.804294 
L 480.075019 105.216283 
L 481.36227 104.236078 
L 481.791354 103.746528 
L 482.220438 103.546994 
L 483.078606 102.461322 
L 484.365857 101.329535 
L 486.511277 99.096893 
L 489.08578 96.62436 
L 490.802115 94.745611 
L 492.089366 93.768154 
L 493.376618 92.685693 
L 494.234786 91.886308 
L 495.092953 91.012975 
L 495.522037 90.481067 
L 495.951121 90.281901 
L 501.100127 85.111577 
L 501.529211 84.883822 
L 504.103714 82.406843 
L 504.532798 82.273592 
L 504.961881 81.977051 
L 505.820049 81.110246 
L 506.678217 80.573841 
L 507.536384 79.660812 
L 507.965468 79.401856 
L 513.114474 74.569125 
L 513.972642 73.831333 
L 515.259894 72.77523 
L 515.688977 72.495329 
L 516.547145 71.717812 
L 517.834397 70.694132 
L 522.554319 67.093206 
L 522.983403 66.933857 
L 523.84157 66.161353 
L 524.270654 65.679428 
L 525.986989 64.496789 
L 526.416073 63.87922 
L 527.274241 63.348601 
L 527.703325 63.072737 
L 528.132409 62.537273 
L 528.561492 62.268828 
L 528.990576 61.825263 
L 529.848744 61.303831 
L 530.277828 60.922621 
L 530.706912 60.70627 
L 532.423247 59.227324 
L 534.139582 58.335079 
L 534.99775 57.656327 
L 536.285001 56.441669 
L 537.143169 55.942131 
L 538.001337 55.384891 
L 538.430421 55.242375 
L 538.859505 54.941582 
L 539.288588 54.897555 
L 541.434008 53.46206 
L 542.721259 52.828373 
L 543.150343 52.427853 
L 544.008511 51.848739 
L 544.866678 51.16399 
L 551.73202 47.851819 
L 552.161103 47.700287 
L 553.448355 46.938994 
L 556.022858 46.103395 
L 557.310109 45.484823 
L 558.168277 45.260994 
L 559.026445 44.724121 
L 559.455529 44.68392 
L 560.313696 44.282213 
L 561.171864 44.01537 
L 562.459115 43.880283 
L 565.033618 42.788918 
L 566.32087 42.6702 
L 566.749954 42.527108 
L 567.608122 42.548859 
L 568.037205 42.310041 
L 568.895373 42.339731 
L 569.324457 42.031198 
L 569.753541 41.8709 
L 570.182625 41.940819 
L 570.611708 41.64 
L 571.040792 41.64 
L 571.040792 41.64 
" style="fill:none;stroke:#ff0000;stroke-linecap:square;stroke-width:1.5;"/>
   </g>
   <g id="line2d_15">
    <path clip-path="url(#p205bd418ab)" d="M 142.815124 150.61496 
L 175.425495 150.716689 
L 180.574502 150.780782 
L 182.719921 150.882507 
L 198.166939 151.492797 
L 199.025106 151.579973 
L 202.886861 151.687647 
L 206.319532 151.93463 
L 213.184873 152.268756 
L 222.624717 152.989885 
L 224.341053 153.141105 
L 227.34464 153.315386 
L 229.060975 153.460615 
L 237.213568 154.114962 
L 246.653412 155.155233 
L 247.51158 155.248327 
L 251.802418 155.635208 
L 252.660586 155.780362 
L 265.962185 157.040922 
L 267.249436 157.183536 
L 269.394856 157.404709 
L 270.682107 157.506289 
L 272.398442 157.6549 
L 274.114778 157.867556 
L 277.118365 158.121241 
L 280.551035 158.379424 
L 283.554622 158.612596 
L 285.700041 158.906311 
L 287.416377 159.081438 
L 288.703628 159.25056 
L 290.849047 159.535759 
L 291.707215 159.7509 
L 295.139886 160.110672 
L 298.572556 160.500937 
L 299.859808 160.794618 
L 301.576143 161.137819 
L 302.434311 161.346922 
L 304.150646 161.64057 
L 305.008814 161.67913 
L 308.441485 161.975931 
L 309.299652 162.081005 
L 310.586904 162.256129 
L 311.874155 162.321208 
L 314.448658 162.897553 
L 316.594078 163.193304 
L 317.452245 163.408417 
L 318.310413 163.580008 
L 319.597664 163.65359 
L 327.321173 165.15469 
L 329.895676 165.447958 
L 331.182928 165.675097 
L 333.328347 166.006907 
L 335.473766 166.325652 
L 337.619185 166.620919 
L 339.335521 167.180315 
L 340.193688 167.237869 
L 341.051856 167.471038 
L 342.768191 167.742736 
L 352.63712 169.955819 
L 354.353455 170.195393 
L 356.927958 170.66902 
L 359.073377 171.291896 
L 359.931545 171.49952 
L 361.218796 171.86522 
L 366.796886 173.26482 
L 367.22597 173.301535 
L 367.655054 173.503153 
L 368.513222 173.612467 
L 369.371389 173.818291 
L 371.945892 174.456113 
L 373.662228 174.626412 
L 374.091312 174.775826 
L 374.949479 174.801761 
L 376.236731 175.12434 
L 377.953066 175.631928 
L 386.963827 177.373824 
L 387.821994 177.509323 
L 388.680162 177.769924 
L 392.971 178.398153 
L 394.258252 178.574371 
L 394.687336 178.822438 
L 397.261839 179.215364 
L 401.123593 179.924882 
L 402.839929 180.476106 
L 403.269012 180.560362 
L 403.698096 180.782025 
L 404.12718 180.769688 
L 404.985348 181.113584 
L 408.847102 181.971225 
L 411.421605 182.653761 
L 412.279773 182.693151 
L 413.567024 183.021151 
L 414.854276 183.124754 
L 416.570611 183.297207 
L 417.428779 183.513169 
L 417.857863 183.716688 
L 418.286947 183.753442 
L 418.71603 183.916222 
L 419.574198 183.875124 
L 420.432366 184.087419 
L 420.86145 184.117657 
L 421.290533 184.395628 
L 424.29412 184.958424 
L 424.723204 185.150934 
L 425.581372 185.311522 
L 426.439539 185.411292 
L 427.726791 185.489295 
L 428.155875 185.570752 
L 429.014043 185.965381 
L 432.875797 187.047424 
L 435.021216 187.371796 
L 439.741138 188.508167 
L 441.02839 188.980591 
L 441.886558 189.1036 
L 442.744725 189.068108 
L 444.031977 189.395273 
L 444.461061 189.412753 
L 444.890144 189.611528 
L 445.319228 189.472378 
L 445.748312 189.566894 
L 446.177396 189.541483 
L 447.893731 189.885384 
L 448.322815 190.139353 
L 449.180983 190.073826 
L 449.610067 190.182653 
L 450.03915 190.14851 
L 451.755486 190.546123 
L 452.613653 190.637048 
L 453.900905 190.931949 
L 457.333576 191.366622 
L 457.76266 191.619726 
L 459.049911 191.501147 
L 459.478995 191.808366 
L 459.908079 191.839203 
L 460.337163 191.989023 
L 462.053498 191.699192 
L 463.340749 191.76656 
L 463.769833 191.801528 
L 464.198917 191.998669 
L 464.628001 191.99425 
L 465.057085 192.231234 
L 466.77342 192.24003 
L 468.060672 192.54031 
L 468.489755 192.587401 
L 468.918839 192.510277 
L 469.347923 192.73304 
L 469.777007 192.730244 
L 470.206091 192.977997 
L 471.493342 193.162734 
L 471.922426 193.291118 
L 472.780594 193.314425 
L 473.209678 193.399514 
L 474.067845 193.351174 
L 475.355097 193.7372 
L 475.784181 193.598884 
L 476.213264 193.715745 
L 476.642348 193.69415 
L 477.500516 193.973251 
L 478.358684 193.82865 
L 478.787767 194.152128 
L 479.216851 194.156704 
L 479.645935 194.402154 
L 480.075019 194.224161 
L 481.36227 194.826666 
L 481.791354 194.739317 
L 482.220438 195.041965 
L 482.649522 195.00326 
L 483.078606 195.164895 
L 483.50769 195.577194 
L 484.365857 195.66033 
L 484.794941 195.895062 
L 485.653109 195.85117 
L 487.369444 196.567975 
L 488.227612 196.986055 
L 489.514863 197.50102 
L 489.943947 197.857689 
L 490.373031 197.949832 
L 490.802115 197.908555 
L 491.660283 198.337783 
L 492.089366 198.364357 
L 495.522037 199.544945 
L 496.380205 200.170121 
L 496.809289 200.341312 
L 497.667456 200.862205 
L 500.671043 201.935887 
L 503.245546 203.646599 
L 504.103714 203.901096 
L 504.532798 204.584228 
L 505.820049 205.304047 
L 506.678217 206.015911 
L 507.536384 206.152618 
L 508.394552 206.737767 
L 508.823636 206.902849 
L 509.25272 207.392334 
L 510.110887 207.99799 
L 510.539971 208.558502 
L 512.685391 210.34038 
L 513.114474 210.977587 
L 513.972642 211.519523 
L 515.259894 212.59574 
L 515.688977 213.065365 
L 516.118061 213.270537 
L 516.976229 213.972541 
L 518.692564 215.338459 
L 520.4089 217.354022 
L 521.696151 218.494259 
L 522.125235 219.147045 
L 522.983403 220.142907 
L 525.557906 223.763037 
L 525.986989 224.287091 
L 526.845157 224.885344 
L 527.274241 225.695609 
L 528.990576 227.621501 
L 529.848744 228.933217 
L 531.994163 231.364742 
L 533.281415 233.505053 
L 533.710498 234.140081 
L 534.139582 235.006975 
L 534.568666 235.536412 
L 535.426834 236.819965 
L 537.143169 239.463078 
L 538.001337 240.918951 
L 538.859505 242.260366 
L 539.288588 243.337438 
L 540.146756 245.027774 
L 541.863091 248.83168 
L 543.150343 252.065005 
L 544.866678 256.117074 
L 547.870265 264.048755 
L 548.728433 266.561458 
L 549.157517 267.330654 
L 554.735606 285.505799 
L 556.022858 290.820388 
L 557.310109 295.964108 
L 558.168277 299.671696 
L 559.884612 309.019131 
L 562.459115 324.483254 
L 563.746367 333.749441 
L 565.033618 344.338262 
L 566.32087 355.891552 
L 567.608122 370.216294 
L 568.466289 381.971999 
L 569.324457 396.748196 
L 569.753541 406.96225 
L 570.611708 436.358697 
L 571.040792 456.350761 
L 571.040792 456.350761 
" style="fill:none;stroke:#008000;stroke-linecap:square;stroke-width:1.5;"/>
   </g>
   <g id="line2d_16">
    <path clip-path="url(#p205bd418ab)" d="M 143.244208 463.84 
L 143.244208 41.64 
" style="fill:none;stroke:#1f77b4;stroke-linecap:square;stroke-width:1.5;"/>
   </g>
   <g id="patch_3">
    <path d="M 121.382386 463.84 
L 121.382386 41.64 
" style="fill:none;stroke:#000000;stroke-linecap:square;stroke-linejoin:miter;stroke-width:0.8;"/>
   </g>
   <g id="patch_4">
    <path d="M 592.902614 463.84 
L 592.902614 41.64 
" style="fill:none;stroke:#000000;stroke-linecap:square;stroke-linejoin:miter;stroke-width:0.8;"/>
   </g>
   <g id="patch_5">
    <path d="M 121.382386 463.84 
L 592.902614 463.84 
" style="fill:none;stroke:#000000;stroke-linecap:square;stroke-linejoin:miter;stroke-width:0.8;"/>
   </g>
   <g id="patch_6">
    <path d="M 121.382386 41.64 
L 592.902614 41.64 
" style="fill:none;stroke:#000000;stroke-linecap:square;stroke-linejoin:miter;stroke-width:0.8;"/>
   </g>
   <g id="text_15">
    <!-- Purity/Efficiency vs ChainRSquaredAvgV Cutoff — track -->
    <defs>
     <path d="M 19.671875 64.796875 
L 19.671875 37.40625 
L 32.078125 37.40625 
Q 38.96875 37.40625 42.71875 40.96875 
Q 46.484375 44.53125 46.484375 51.125 
Q 46.484375 57.671875 42.71875 61.234375 
Q 38.96875 64.796875 32.078125 64.796875 
z
M 9.8125 72.90625 
L 32.078125 72.90625 
Q 44.34375 72.90625 50.609375 67.359375 
Q 56.890625 61.8125 56.890625 51.125 
Q 56.890625 40.328125 50.609375 34.8125 
Q 44.34375 29.296875 32.078125 29.296875 
L 19.671875 29.296875 
L 19.671875 0 
L 9.8125 0 
z
" id="DejaVuSans-80"/>
     <path d="M 32.171875 -5.078125 
Q 28.375 -14.84375 24.75 -17.8125 
Q 21.140625 -20.796875 15.09375 -20.796875 
L 7.90625 -20.796875 
L 7.90625 -13.28125 
L 13.1875 -13.28125 
Q 16.890625 -13.28125 18.9375 -11.515625 
Q 21 -9.765625 23.484375 -3.21875 
L 25.09375 0.875 
L 2.984375 54.6875 
L 12.5 54.6875 
L 29.59375 11.921875 
L 46.6875 54.6875 
L 56.203125 54.6875 
z
" id="DejaVuSans-121"/>
     <path d="M 25.390625 72.90625 
L 33.6875 72.90625 
L 8.296875 -9.28125 
L 0 -9.28125 
z
" id="DejaVuSans-47"/>
     <path d="M 9.8125 72.90625 
L 55.90625 72.90625 
L 55.90625 64.59375 
L 19.671875 64.59375 
L 19.671875 43.015625 
L 54.390625 43.015625 
L 54.390625 34.71875 
L 19.671875 34.71875 
L 19.671875 8.296875 
L 56.78125 8.296875 
L 56.78125 0 
L 9.8125 0 
z
" id="DejaVuSans-69"/>
     <path d="M 44.28125 53.078125 
L 44.28125 44.578125 
Q 40.484375 46.53125 36.375 47.5 
Q 32.28125 48.484375 27.875 48.484375 
Q 21.1875 48.484375 17.84375 46.4375 
Q 14.5 44.390625 14.5 40.28125 
Q 14.5 37.15625 16.890625 35.375 
Q 19.28125 33.59375 26.515625 31.984375 
L 29.59375 31.296875 
Q 39.15625 29.25 43.1875 25.515625 
Q 47.21875 21.78125 47.21875 15.09375 
Q 47.21875 7.46875 41.1875 3.015625 
Q 35.15625 -1.421875 24.609375 -1.421875 
Q 20.21875 -1.421875 15.453125 -0.5625 
Q 10.6875 0.296875 5.421875 2 
L 5.421875 11.28125 
Q 10.40625 8.6875 15.234375 7.390625 
Q 20.0625 6.109375 24.8125 6.109375 
Q 31.15625 6.109375 34.5625 8.28125 
Q 37.984375 10.453125 37.984375 14.40625 
Q 37.984375 18.0625 35.515625 20.015625 
Q 33.0625 21.96875 24.703125 23.78125 
L 21.578125 24.515625 
Q 13.234375 26.265625 9.515625 29.90625 
Q 5.8125 33.546875 5.8125 39.890625 
Q 5.8125 47.609375 11.28125 51.796875 
Q 16.75 56 26.8125 56 
Q 31.78125 56 36.171875 55.265625 
Q 40.578125 54.546875 44.28125 53.078125 
z
" id="DejaVuSans-115"/>
     <path d="M 4.890625 30.90625 
L 95.125 30.90625 
L 95.125 23.875 
L 4.890625 23.875 
z
" id="DejaVuSans-8212"/>
     <path d="M 9.078125 75.984375 
L 18.109375 75.984375 
L 18.109375 31.109375 
L 44.921875 54.6875 
L 56.390625 54.6875 
L 27.390625 29.109375 
L 57.625 0 
L 45.90625 0 
L 18.109375 26.703125 
L 18.109375 0 
L 9.078125 0 
z
" id="DejaVuSans-107"/>
    </defs>
    <g transform="translate(-1.689525 35.64)scale(0.2592 -0.2592)">
     <use xlink:href="#DejaVuSans-80"/>
     <use x="60.287109" xlink:href="#DejaVuSans-117"/>
     <use x="123.666016" xlink:href="#DejaVuSans-114"/>
     <use x="164.779297" xlink:href="#DejaVuSans-105"/>
     <use x="192.5625" xlink:href="#DejaVuSans-116"/>
     <use x="231.771484" xlink:href="#DejaVuSans-121"/>
     <use x="290.951172" xlink:href="#DejaVuSans-47"/>
     <use x="324.642578" xlink:href="#DejaVuSans-69"/>
     <use x="387.826172" xlink:href="#DejaVuSans-102"/>
     <use x="423.03125" xlink:href="#DejaVuSans-102"/>
     <use x="458.236328" xlink:href="#DejaVuSans-105"/>
     <use x="486.019531" xlink:href="#DejaVuSans-99"/>
     <use x="541" xlink:href="#DejaVuSans-105"/>
     <use x="568.783203" xlink:href="#DejaVuSans-101"/>
     <use x="630.306641" xlink:href="#DejaVuSans-110"/>
     <use x="693.685547" xlink:href="#DejaVuSans-99"/>
     <use x="748.666016" xlink:href="#DejaVuSans-121"/>
     <use x="807.845703" xlink:href="#DejaVuSans-32"/>
     <use x="839.632812" xlink:href="#DejaVuSans-118"/>
     <use x="898.8125" xlink:href="#DejaVuSans-115"/>
     <use x="950.912109" xlink:href="#DejaVuSans-32"/>
     <use x="982.699219" xlink:href="#DejaVuSans-67"/>
     <use x="1052.523438" xlink:href="#DejaVuSans-104"/>
     <use x="1115.902344" xlink:href="#DejaVuSans-97"/>
     <use x="1177.181641" xlink:href="#DejaVuSans-105"/>
     <use x="1204.964844" xlink:href="#DejaVuSans-110"/>
     <use x="1268.34375" xlink:href="#DejaVuSans-82"/>
     <use x="1337.826172" xlink:href="#DejaVuSans-83"/>
     <use x="1401.302734" xlink:href="#DejaVuSans-113"/>
     <use x="1464.779297" xlink:href="#DejaVuSans-117"/>
     <use x="1528.158203" xlink:href="#DejaVuSans-97"/>
     <use x="1589.4375" xlink:href="#DejaVuSans-114"/>
     <use x="1630.519531" xlink:href="#DejaVuSans-101"/>
     <use x="1692.042969" xlink:href="#DejaVuSans-100"/>
     <use x="1755.519531" xlink:href="#DejaVuSans-65"/>
     <use x="1823.849609" xlink:href="#DejaVuSans-118"/>
     <use x="1883.029297" xlink:href="#DejaVuSans-103"/>
     <use x="1946.505859" xlink:href="#DejaVuSans-86"/>
     <use x="2014.914062" xlink:href="#DejaVuSans-32"/>
     <use x="2046.701172" xlink:href="#DejaVuSans-67"/>
     <use x="2116.525391" xlink:href="#DejaVuSans-117"/>
     <use x="2179.904297" xlink:href="#DejaVuSans-116"/>
     <use x="2219.113281" xlink:href="#DejaVuSans-111"/>
     <use x="2280.294922" xlink:href="#DejaVuSans-102"/>
     <use x="2315.5" xlink:href="#DejaVuSans-102"/>
     <use x="2350.705078" xlink:href="#DejaVuSans-32"/>
     <use x="2382.492188" xlink:href="#DejaVuSans-8212"/>
     <use x="2482.492188" xlink:href="#DejaVuSans-32"/>
     <use x="2514.279297" xlink:href="#DejaVuSans-116"/>
     <use x="2553.488281" xlink:href="#DejaVuSans-114"/>
     <use x="2594.601562" xlink:href="#DejaVuSans-97"/>
     <use x="2655.880859" xlink:href="#DejaVuSans-99"/>
     <use x="2710.861328" xlink:href="#DejaVuSans-107"/>
    </g>
   </g>
   <g id="legend_1">
    <g id="patch_7">
     <path d="M 248.447812 454.84 
L 465.837188 454.84 
Q 469.437188 454.84 469.437188 451.24 
L 469.437188 373.778125 
Q 469.437188 370.178125 465.837188 370.178125 
L 248.447812 370.178125 
Q 244.847813 370.178125 244.847813 373.778125 
L 244.847813 451.24 
Q 244.847813 454.84 248.447812 454.84 
z
" style="fill:#ffffff;opacity:0.8;stroke:#cccccc;stroke-linejoin:miter;"/>
    </g>
    <g id="line2d_17">
     <path d="M 252.047812 384.755313 
L 288.047812 384.755313 
" style="fill:none;stroke:#0000ff;stroke-linecap:square;stroke-width:1.5;"/>
    </g>
    <g id="line2d_18"/>
    <g id="text_16">
     <!-- Efficiency -->
     <g transform="translate(302.447812 391.055313)scale(0.18 -0.18)">
      <use xlink:href="#DejaVuSans-69"/>
      <use x="63.183594" xlink:href="#DejaVuSans-102"/>
      <use x="98.388672" xlink:href="#DejaVuSans-102"/>
      <use x="133.59375" xlink:href="#DejaVuSans-105"/>
      <use x="161.376953" xlink:href="#DejaVuSans-99"/>
      <use x="216.357422" xlink:href="#DejaVuSans-105"/>
      <use x="244.140625" xlink:href="#DejaVuSans-101"/>
      <use x="305.664062" xlink:href="#DejaVuSans-110"/>
      <use x="369.042969" xlink:href="#DejaVuSans-99"/>
      <use x="424.023438" xlink:href="#DejaVuSans-121"/>
     </g>
    </g>
    <g id="line2d_19">
     <path d="M 252.047812 411.175937 
L 288.047812 411.175937 
" style="fill:none;stroke:#ff0000;stroke-linecap:square;stroke-width:1.5;"/>
    </g>
    <g id="line2d_20"/>
    <g id="text_17">
     <!-- Purity -->
     <g transform="translate(302.447812 417.475937)scale(0.18 -0.18)">
      <use xlink:href="#DejaVuSans-80"/>
      <use x="60.287109" xlink:href="#DejaVuSans-117"/>
      <use x="123.666016" xlink:href="#DejaVuSans-114"/>
      <use x="164.779297" xlink:href="#DejaVuSans-105"/>
      <use x="192.5625" xlink:href="#DejaVuSans-116"/>
      <use x="231.771484" xlink:href="#DejaVuSans-121"/>
     </g>
    </g>
    <g id="line2d_21">
     <path d="M 252.047812 437.596562 
L 288.047812 437.596562 
" style="fill:none;stroke:#008000;stroke-linecap:square;stroke-width:1.5;"/>
    </g>
    <g id="line2d_22"/>
    <g id="text_18">
     <!-- Purity * Efficiency -->
     <defs>
      <path d="M 47.015625 60.890625 
L 29.5 51.421875 
L 47.015625 41.890625 
L 44.1875 37.109375 
L 27.78125 47.015625 
L 27.78125 28.609375 
L 22.21875 28.609375 
L 22.21875 47.015625 
L 5.8125 37.109375 
L 2.984375 41.890625 
L 20.515625 51.421875 
L 2.984375 60.890625 
L 5.8125 65.71875 
L 22.21875 55.8125 
L 22.21875 74.21875 
L 27.78125 74.21875 
L 27.78125 55.8125 
L 44.1875 65.71875 
z
" id="DejaVuSans-42"/>
     </defs>
     <g transform="translate(302.447812 443.896562)scale(0.18 -0.18)">
      <use xlink:href="#DejaVuSans-80"/>
      <use x="60.287109" xlink:href="#DejaVuSans-117"/>
      <use x="123.666016" xlink:href="#DejaVuSans-114"/>
      <use x="164.779297" xlink:href="#DejaVuSans-105"/>
      <use x="192.5625" xlink:href="#DejaVuSans-116"/>
      <use x="231.771484" xlink:href="#DejaVuSans-121"/>
      <use x="290.951172" xlink:href="#DejaVuSans-32"/>
      <use x="322.738281" xlink:href="#DejaVuSans-42"/>
      <use x="372.738281" xlink:href="#DejaVuSans-32"/>
      <use x="404.525391" xlink:href="#DejaVuSans-69"/>
      <use x="467.708984" xlink:href="#DejaVuSans-102"/>
      <use x="502.914062" xlink:href="#DejaVuSans-102"/>
      <use x="538.119141" xlink:href="#DejaVuSans-105"/>
      <use x="565.902344" xlink:href="#DejaVuSans-99"/>
      <use x="620.882812" xlink:href="#DejaVuSans-105"/>
      <use x="648.666016" xlink:href="#DejaVuSans-101"/>
      <use x="710.189453" xlink:href="#DejaVuSans-110"/>
      <use x="773.568359" xlink:href="#DejaVuSans-99"/>
      <use x="828.548828" xlink:href="#DejaVuSans-121"/>
     </g>
    </g>
   </g>
  </g>
  <g id="axes_2">
   <g id="patch_8">
    <path d="M 833.282386 463.84 
L 1304.802614 463.84 
L 1304.802614 41.64 
L 833.282386 41.64 
z
" style="fill:#ffffff;"/>
   </g>
   <g id="matplotlib.axis_3">
    <g id="xtick_7">
     <g id="line2d_23">
      <g>
       <use style="stroke:#000000;stroke-width:0.8;" x="854.715124" xlink:href="#m6c88b76d08" y="463.84"/>
      </g>
     </g>
     <g id="text_19">
      <!-- 0.0 -->
      <g transform="translate(834.104674 490.53515)scale(0.2592 -0.2592)">
       <use xlink:href="#DejaVuSans-48"/>
       <use x="63.623047" xlink:href="#DejaVuSans-46"/>
       <use x="95.410156" xlink:href="#DejaVuSans-48"/>
      </g>
     </g>
    </g>
    <g id="xtick_8">
     <g id="line2d_24">
      <g>
       <use style="stroke:#000000;stroke-width:0.8;" x="940.446074" xlink:href="#m6c88b76d08" y="463.84"/>
      </g>
     </g>
     <g id="text_20">
      <!-- 0.2 -->
      <g transform="translate(919.835624 490.53515)scale(0.2592 -0.2592)">
       <use xlink:href="#DejaVuSans-48"/>
       <use x="63.623047" xlink:href="#DejaVuSans-46"/>
       <use x="95.410156" xlink:href="#DejaVuSans-50"/>
      </g>
     </g>
    </g>
    <g id="xtick_9">
     <g id="line2d_25">
      <g>
       <use style="stroke:#000000;stroke-width:0.8;" x="1026.177025" xlink:href="#m6c88b76d08" y="463.84"/>
      </g>
     </g>
     <g id="text_21">
      <!-- 0.4 -->
      <g transform="translate(1005.566575 490.53515)scale(0.2592 -0.2592)">
       <use xlink:href="#DejaVuSans-48"/>
       <use x="63.623047" xlink:href="#DejaVuSans-46"/>
       <use x="95.410156" xlink:href="#DejaVuSans-52"/>
      </g>
     </g>
    </g>
    <g id="xtick_10">
     <g id="line2d_26">
      <g>
       <use style="stroke:#000000;stroke-width:0.8;" x="1111.907975" xlink:href="#m6c88b76d08" y="463.84"/>
      </g>
     </g>
     <g id="text_22">
      <!-- 0.6 -->
      <g transform="translate(1091.297525 490.53515)scale(0.2592 -0.2592)">
       <use xlink:href="#DejaVuSans-48"/>
       <use x="63.623047" xlink:href="#DejaVuSans-46"/>
       <use x="95.410156" xlink:href="#DejaVuSans-54"/>
      </g>
     </g>
    </g>
    <g id="xtick_11">
     <g id="line2d_27">
      <g>
       <use style="stroke:#000000;stroke-width:0.8;" x="1197.638926" xlink:href="#m6c88b76d08" y="463.84"/>
      </g>
     </g>
     <g id="text_23">
      <!-- 0.8 -->
      <g transform="translate(1177.028476 490.53515)scale(0.2592 -0.2592)">
       <use xlink:href="#DejaVuSans-48"/>
       <use x="63.623047" xlink:href="#DejaVuSans-46"/>
       <use x="95.410156" xlink:href="#DejaVuSans-56"/>
      </g>
     </g>
    </g>
    <g id="xtick_12">
     <g id="line2d_28">
      <g>
       <use style="stroke:#000000;stroke-width:0.8;" x="1283.369876" xlink:href="#m6c88b76d08" y="463.84"/>
      </g>
     </g>
     <g id="text_24">
      <!-- 1.0 -->
      <g transform="translate(1262.759426 490.53515)scale(0.2592 -0.2592)">
       <use xlink:href="#DejaVuSans-49"/>
       <use x="63.623047" xlink:href="#DejaVuSans-46"/>
       <use x="95.410156" xlink:href="#DejaVuSans-48"/>
      </g>
     </g>
    </g>
    <g id="text_25">
     <!-- ChainRSquaredAvgV Cutoff -->
     <g transform="translate(891.74565 519.62085)scale(0.2592 -0.2592)">
      <use xlink:href="#DejaVuSans-67"/>
      <use x="69.824219" xlink:href="#DejaVuSans-104"/>
      <use x="133.203125" xlink:href="#DejaVuSans-97"/>
      <use x="194.482422" xlink:href="#DejaVuSans-105"/>
      <use x="222.265625" xlink:href="#DejaVuSans-110"/>
      <use x="285.644531" xlink:href="#DejaVuSans-82"/>
      <use x="355.126953" xlink:href="#DejaVuSans-83"/>
      <use x="418.603516" xlink:href="#DejaVuSans-113"/>
      <use x="482.080078" xlink:href="#DejaVuSans-117"/>
      <use x="545.458984" xlink:href="#DejaVuSans-97"/>
      <use x="606.738281" xlink:href="#DejaVuSans-114"/>
      <use x="647.820312" xlink:href="#DejaVuSans-101"/>
      <use x="709.34375" xlink:href="#DejaVuSans-100"/>
      <use x="772.820312" xlink:href="#DejaVuSans-65"/>
      <use x="841.150391" xlink:href="#DejaVuSans-118"/>
      <use x="900.330078" xlink:href="#DejaVuSans-103"/>
      <use x="963.806641" xlink:href="#DejaVuSans-86"/>
      <use x="1032.214844" xlink:href="#DejaVuSans-32"/>
      <use x="1064.001953" xlink:href="#DejaVuSans-67"/>
      <use x="1133.826172" xlink:href="#DejaVuSans-117"/>
      <use x="1197.205078" xlink:href="#DejaVuSans-116"/>
      <use x="1236.414062" xlink:href="#DejaVuSans-111"/>
      <use x="1297.595703" xlink:href="#DejaVuSans-102"/>
      <use x="1332.800781" xlink:href="#DejaVuSans-102"/>
     </g>
    </g>
   </g>
   <g id="matplotlib.axis_4">
    <g id="ytick_7">
     <g id="line2d_29">
      <g>
       <use style="stroke:#000000;stroke-width:0.8;" x="833.282386" xlink:href="#m18be9ffb65" y="463.84"/>
      </g>
     </g>
     <g id="text_26">
      <!-- 0.0 -->
      <g transform="translate(785.061486 473.687575)scale(0.2592 -0.2592)">
       <use xlink:href="#DejaVuSans-48"/>
       <use x="63.623047" xlink:href="#DejaVuSans-46"/>
       <use x="95.410156" xlink:href="#DejaVuSans-48"/>
      </g>
     </g>
    </g>
    <g id="ytick_8">
     <g id="line2d_30">
      <g>
       <use style="stroke:#000000;stroke-width:0.8;" x="833.282386" xlink:href="#m18be9ffb65" y="379.4"/>
      </g>
     </g>
     <g id="text_27">
      <!-- 0.2 -->
      <g transform="translate(785.061486 389.247575)scale(0.2592 -0.2592)">
       <use xlink:href="#DejaVuSans-48"/>
       <use x="63.623047" xlink:href="#DejaVuSans-46"/>
       <use x="95.410156" xlink:href="#DejaVuSans-50"/>
      </g>
     </g>
    </g>
    <g id="ytick_9">
     <g id="line2d_31">
      <g>
       <use style="stroke:#000000;stroke-width:0.8;" x="833.282386" xlink:href="#m18be9ffb65" y="294.96"/>
      </g>
     </g>
     <g id="text_28">
      <!-- 0.4 -->
      <g transform="translate(785.061486 304.807575)scale(0.2592 -0.2592)">
       <use xlink:href="#DejaVuSans-48"/>
       <use x="63.623047" xlink:href="#DejaVuSans-46"/>
       <use x="95.410156" xlink:href="#DejaVuSans-52"/>
      </g>
     </g>
    </g>
    <g id="ytick_10">
     <g id="line2d_32">
      <g>
       <use style="stroke:#000000;stroke-width:0.8;" x="833.282386" xlink:href="#m18be9ffb65" y="210.52"/>
      </g>
     </g>
     <g id="text_29">
      <!-- 0.6 -->
      <g transform="translate(785.061486 220.367575)scale(0.2592 -0.2592)">
       <use xlink:href="#DejaVuSans-48"/>
       <use x="63.623047" xlink:href="#DejaVuSans-46"/>
       <use x="95.410156" xlink:href="#DejaVuSans-54"/>
      </g>
     </g>
    </g>
    <g id="ytick_11">
     <g id="line2d_33">
      <g>
       <use style="stroke:#000000;stroke-width:0.8;" x="833.282386" xlink:href="#m18be9ffb65" y="126.08"/>
      </g>
     </g>
     <g id="text_30">
      <!-- 0.8 -->
      <g transform="translate(785.061486 135.927575)scale(0.2592 -0.2592)">
       <use xlink:href="#DejaVuSans-48"/>
       <use x="63.623047" xlink:href="#DejaVuSans-46"/>
       <use x="95.410156" xlink:href="#DejaVuSans-56"/>
      </g>
     </g>
    </g>
    <g id="ytick_12">
     <g id="line2d_34">
      <g>
       <use style="stroke:#000000;stroke-width:0.8;" x="833.282386" xlink:href="#m18be9ffb65" y="41.64"/>
      </g>
     </g>
     <g id="text_31">
      <!-- 1.0 -->
      <g transform="translate(785.061486 51.487575)scale(0.2592 -0.2592)">
       <use xlink:href="#DejaVuSans-49"/>
       <use x="63.623047" xlink:href="#DejaVuSans-46"/>
       <use x="95.410156" xlink:href="#DejaVuSans-48"/>
      </g>
     </g>
    </g>
    <g id="text_32">
     <!-- Fraction -->
     <g transform="translate(775.670936 305.400125)rotate(-90)scale(0.2592 -0.2592)">
      <use xlink:href="#DejaVuSans-70"/>
      <use x="57.410156" xlink:href="#DejaVuSans-114"/>
      <use x="98.523438" xlink:href="#DejaVuSans-97"/>
      <use x="159.802734" xlink:href="#DejaVuSans-99"/>
      <use x="214.783203" xlink:href="#DejaVuSans-116"/>
      <use x="253.992188" xlink:href="#DejaVuSans-105"/>
      <use x="281.775391" xlink:href="#DejaVuSans-111"/>
      <use x="342.957031" xlink:href="#DejaVuSans-110"/>
     </g>
    </g>
   </g>
   <g id="line2d_35">
    <path clip-path="url(#p92a9e49a00)" d="M 854.715124 463.84 
L 925.513957 463.750494 
L 926.801208 463.705741 
L 934.095634 463.616235 
L 935.811969 463.526729 
L 945.251813 463.437223 
L 946.539065 463.39247 
L 949.971736 463.302964 
L 951.688071 463.213458 
L 958.982496 463.123952 
L 960.698831 463.034446 
L 962.844251 462.94494 
L 964.131502 462.900187 
L 966.276921 462.810681 
L 970.56776 462.452656 
L 973.571347 462.407903 
L 975.287682 462.094632 
L 977.862185 462.049879 
L 978.720353 461.960373 
L 980.007604 461.870867 
L 981.294856 461.826114 
L 983.869359 461.736608 
L 989.876532 461.02056 
L 991.592868 460.752042 
L 992.021951 460.752042 
L 992.880119 460.573029 
L 995.454622 460.394017 
L 997.170957 460.304511 
L 1006.181718 459.319945 
L 1007.898053 458.827662 
L 1010.472556 458.64865 
L 1011.330724 458.559144 
L 1017.337898 457.843095 
L 1019.483317 457.261306 
L 1022.05782 456.948035 
L 1023.345071 456.545258 
L 1024.632323 456.500505 
L 1026.777742 455.963468 
L 1028.064994 455.605444 
L 1031.497664 455.157914 
L 1032.784916 454.531372 
L 1033.214 454.486619 
L 1034.072167 454.039088 
L 1035.359419 453.994335 
L 1037.075754 453.502052 
L 1038.363006 453.32304 
L 1039.221173 453.054522 
L 1040.937509 452.786004 
L 1041.366593 452.517486 
L 1041.795676 452.383227 
L 1042.22476 452.383227 
L 1043.512012 451.980449 
L 1043.941096 451.711931 
L 1046.086515 451.040636 
L 1046.515599 451.040636 
L 1047.373766 450.816871 
L 1048.231934 450.235082 
L 1049.090102 449.966563 
L 1049.519185 449.698045 
L 1051.664605 448.937244 
L 1052.093688 448.668726 
L 1052.522772 448.623973 
L 1053.38094 448.355455 
L 1054.239108 448.176443 
L 1061.104449 445.938792 
L 1061.533533 445.670273 
L 1062.391701 445.491261 
L 1062.820784 445.401755 
L 1064.53712 444.417189 
L 1068.398874 442.090032 
L 1069.686126 441.46349 
L 1070.544293 440.971206 
L 1071.831545 440.478923 
L 1075.264216 438.733555 
L 1075.693299 438.241272 
L 1076.551467 437.704236 
L 1076.980551 437.480471 
L 1077.409635 437.390965 
L 1079.12597 435.69035 
L 1082.558641 433.31844 
L 1082.987725 433.049922 
L 1085.562228 430.767517 
L 1091.569401 425.799932 
L 1091.998485 425.17339 
L 1092.427569 424.770613 
L 1093.285737 424.367835 
L 1094.143904 423.517528 
L 1094.572988 423.338516 
L 1096.289324 421.816913 
L 1096.718407 421.369383 
L 1097.147491 420.563829 
L 1098.005659 419.937286 
L 1098.434743 419.668768 
L 1099.721994 418.460437 
L 1100.151078 418.236672 
L 1105.729168 411.344706 
L 1106.587336 410.80767 
L 1107.445503 409.554586 
L 1107.874587 409.107055 
L 1108.303671 408.43576 
L 1109.161839 407.585453 
L 1110.44909 405.661073 
L 1111.736342 403.736693 
L 1113.023593 402.259843 
L 1113.452677 401.543795 
L 1113.881761 401.275277 
L 1114.739929 400.380216 
L 1116.02718 398.232071 
L 1116.456264 397.829294 
L 1117.314432 396.620962 
L 1118.172599 395.54689 
L 1118.601683 394.607077 
L 1119.030767 394.249052 
L 1119.888935 392.772203 
L 1120.318018 391.966648 
L 1122.463438 389.147208 
L 1123.321605 387.491346 
L 1124.179773 385.701225 
L 1124.608857 385.253695 
L 1125.467024 383.597833 
L 1125.896108 382.702773 
L 1126.325192 382.076231 
L 1128.041527 378.540742 
L 1128.899695 377.019139 
L 1129.328779 376.168832 
L 1129.757863 375.721302 
L 1130.186947 374.736735 
L 1130.61603 374.378711 
L 1131.474198 371.917295 
L 1132.76145 369.411126 
L 1133.190533 369.187361 
L 1133.619617 368.426559 
L 1134.048701 367.262981 
L 1138.339539 359.431202 
L 1139.197707 357.506822 
L 1140.055875 355.537689 
L 1140.484959 354.911147 
L 1143.059462 349.719796 
L 1143.917629 348.2877 
L 1147.779384 339.560861 
L 1148.208468 339.023824 
L 1149.066635 336.830926 
L 1149.924803 335.040806 
L 1150.353887 334.280004 
L 1150.782971 333.205932 
L 1151.212055 331.594823 
L 1152.070222 329.536184 
L 1152.92839 328.014581 
L 1153.786558 325.866436 
L 1155.931977 319.780025 
L 1158.077396 314.36491 
L 1160.222815 308.59177 
L 1161.080983 305.682824 
L 1161.510067 304.608751 
L 1162.368234 302.147335 
L 1164.08457 297.537774 
L 1164.942737 295.076358 
L 1165.371821 294.315556 
L 1166.659073 290.06402 
L 1167.946324 285.588717 
L 1168.375408 283.798597 
L 1170.520827 277.488421 
L 1170.949911 276.056324 
L 1171.378995 275.161264 
L 1172.237163 272.252317 
L 1174.382582 264.017761 
L 1176.098917 258.334128 
L 1177.815252 253.098024 
L 1178.67342 249.607289 
L 1180.389755 244.863468 
L 1181.677007 240.74619 
L 1182.535175 238.284774 
L 1183.393342 235.331075 
L 1186.396929 224.366585 
L 1187.255097 221.726156 
L 1190.687767 208.076485 
L 1192.404103 202.169086 
L 1193.691354 198.051808 
L 1194.120438 197.201501 
L 1194.978606 193.487 
L 1203.131199 166.456176 
L 1203.989366 164.263278 
L 1204.847534 161.801861 
L 1205.705702 159.743222 
L 1207.422037 154.014836 
L 1207.851121 153.298787 
L 1210.425624 145.287997 
L 1211.283792 143.005593 
L 1212.141959 139.917634 
L 1213.000127 137.858995 
L 1213.429211 137.098194 
L 1214.716462 133.78647 
L 1215.145546 132.667645 
L 1216.003714 130.027216 
L 1216.432798 129.445427 
L 1216.861881 128.59512 
L 1217.720049 126.178457 
L 1218.149133 125.507161 
L 1218.578217 124.567348 
L 1219.436384 122.195438 
L 1219.865468 121.434636 
L 1224.585391 108.993297 
L 1225.443558 107.471694 
L 1226.73081 104.428488 
L 1227.588977 102.951639 
L 1228.447145 101.027259 
L 1229.305313 99.102879 
L 1230.16348 97.670782 
L 1231.450732 95.298872 
L 1231.879816 94.314306 
L 1232.737983 92.882209 
L 1233.596151 91.181594 
L 1234.454319 89.570485 
L 1234.883403 89.122955 
L 1235.74157 87.288081 
L 1236.170654 86.169256 
L 1237.886989 83.305063 
L 1238.316073 82.007225 
L 1239.174241 80.75414 
L 1239.603325 80.127598 
L 1240.032409 79.008773 
L 1240.461492 78.38223 
L 1240.890576 77.442417 
L 1241.748744 76.234085 
L 1242.177828 75.428531 
L 1242.606912 74.936248 
L 1243.894163 72.295819 
L 1244.752331 71.356006 
L 1245.610498 70.281933 
L 1246.039582 69.834403 
L 1246.89775 68.44706 
L 1248.185001 66.075149 
L 1249.043169 65.04583 
L 1249.901337 63.927004 
L 1250.330421 63.613733 
L 1250.759505 63.031944 
L 1251.188588 62.852932 
L 1253.334008 60.033492 
L 1254.621259 58.735654 
L 1255.050343 58.019606 
L 1255.479427 57.572075 
L 1256.766678 55.737202 
L 1257.195762 55.334424 
L 1257.624846 55.110659 
L 1258.05393 54.439364 
L 1258.483014 54.170846 
L 1258.912097 53.589057 
L 1259.770265 52.828255 
L 1260.199349 52.693996 
L 1262.773852 50.411592 
L 1263.202936 50.187827 
L 1265.777439 48.173941 
L 1266.635606 47.771164 
L 1267.06469 47.41314 
L 1267.922858 47.010363 
L 1269.210109 46.115302 
L 1270.068277 45.757278 
L 1270.926445 45.04123 
L 1271.355529 44.951724 
L 1272.213696 44.414687 
L 1273.071864 44.056663 
L 1274.359115 43.788145 
L 1276.075451 42.937838 
L 1277.791786 42.445554 
L 1279.508122 42.221789 
L 1279.937205 42.042777 
L 1281.224457 41.819012 
L 1282.511708 41.64 
L 1283.369876 41.64 
L 1283.369876 41.64 
" style="fill:none;stroke:#0000ff;stroke-linecap:square;stroke-width:1.5;"/>
   </g>
   <g id="line2d_36">
    <path clip-path="url(#p92a9e49a00)" d="M 873.594813 463.84 
L 892.045418 463.84 
L 892.474502 431.363077 
L 892.903585 431.363077 
L 893.332669 439.004706 
L 893.761753 441.618947 
L 894.190837 442.73 
L 894.619921 442.73 
L 895.049005 443.735238 
L 895.478088 443.735238 
L 895.907172 444.649091 
L 896.336256 444.649091 
L 896.76534 445.483478 
L 897.623508 448.202963 
L 898.052591 448.761429 
L 898.481675 448.761429 
L 898.910759 449.281379 
L 899.339843 449.281379 
L 899.768927 450.64625 
L 900.198011 451.422353 
L 900.627094 451.777143 
L 901.056178 452.429189 
L 901.485262 452.429189 
L 901.914346 453.285 
L 902.34343 453.542439 
L 902.772514 453.542439 
L 903.201597 454.244545 
L 904.059765 454.661739 
L 904.488849 455.044167 
L 904.917933 455.044167 
L 906.634268 455.720769 
L 907.063352 455.720769 
L 908.350603 456.56069 
L 909.208771 456.803333 
L 909.637855 456.803333 
L 910.066939 457.030323 
L 910.496023 457.538507 
L 912.641442 457.893521 
L 913.070526 452.272877 
L 913.499609 452.272877 
L 913.928693 452.429189 
L 914.357777 452.873766 
L 914.786861 452.873766 
L 915.215945 453.285 
L 915.645029 453.415309 
L 916.503196 453.905882 
L 916.93228 454.35236 
L 917.790448 454.560879 
L 918.219532 454.857021 
L 919.077699 455.134845 
L 919.935867 455.479604 
L 920.794035 455.479604 
L 921.652202 455.873962 
L 922.939454 456.163636 
L 923.368538 456.300714 
L 924.226705 456.367434 
L 925.513957 456.744202 
L 925.943041 453.787619 
L 926.372125 454.021395 
L 927.659376 454.316692 
L 930.662963 455.339329 
L 931.092047 450.042614 
L 932.379298 450.39414 
L 933.237466 450.968049 
L 933.66655 451.199281 
L 934.095634 451.274524 
L 934.953801 447.329385 
L 935.382885 447.601538 
L 936.670137 447.950753 
L 937.528304 448.366702 
L 937.957388 448.447292 
L 938.386472 448.684103 
L 939.24464 448.83797 
L 939.673723 449.136517 
L 942.248226 449.964883 
L 942.67731 448.202963 
L 943.106394 448.417169 
L 943.535478 448.487273 
L 943.964562 447.026726 
L 944.393646 447.246987 
L 944.82273 447.31913 
L 945.251813 447.531845 
L 945.680897 446.025654 
L 947.826316 446.677398 
L 948.2554 447.086032 
L 948.684484 444.126381 
L 949.971736 444.721509 
L 950.400819 443.436283 
L 950.829903 443.586863 
L 951.258987 442.346182 
L 952.117155 442.654337 
L 952.975322 443.387405 
L 953.83349 443.735238 
L 955.978909 445.193943 
L 956.837077 443.054769 
L 957.266161 443.181896 
L 958.982496 444.202791 
L 959.41158 443.096069 
L 959.840664 443.215287 
L 960.269748 442.126857 
L 961.127915 442.311388 
L 961.556999 442.671198 
L 961.986083 442.788476 
L 962.415167 442.788476 
L 962.844251 440.894348 
L 963.273334 440.1968 
L 963.702418 440.446332 
L 964.131502 440.929922 
L 965.418754 441.393924 
L 965.847837 439.5635 
L 966.276921 439.922266 
L 967.135089 438.467404 
L 967.564173 438.649069 
L 968.42234 437.267972 
L 968.851424 435.75789 
L 969.280508 434.988064 
L 969.709592 435.053636 
L 970.138676 434.161542 
L 970.996843 434.49426 
L 971.425927 434.559911 
L 972.284095 435.387391 
L 972.713179 434.722759 
L 973.142263 434.785376 
L 973.571347 435.033177 
L 974.858598 430.692066 
L 975.287682 430.167607 
L 975.716766 430.508421 
L 976.574933 430.842405 
L 977.004017 430.265447 
L 977.433101 430.265447 
L 977.862185 430.464506 
L 978.291269 429.070588 
L 979.149436 429.673526 
L 980.007604 428.723176 
L 980.436688 428.127594 
L 980.865772 428.460112 
L 981.294856 428.591391 
L 981.723939 428.591391 
L 982.582107 429.043297 
L 983.440275 427.956817 
L 983.869359 428.214506 
L 984.298442 427.715936 
L 984.727526 427.417817 
L 985.15661 426.196294 
L 985.585694 425.856609 
L 986.014778 426.117663 
L 986.443862 425.589402 
L 986.872945 425.784558 
L 987.731113 424.878591 
L 988.160197 425.073723 
L 988.589281 423.364628 
L 989.447448 423.827582 
L 989.876532 420.939032 
L 990.305616 420.001342 
L 991.163784 419.432779 
L 991.592868 418.321562 
L 992.021951 418.463364 
L 992.451035 417.001171 
L 992.880119 416.569141 
L 993.309203 416.358541 
L 994.167371 416.858346 
L 994.596454 415.948657 
L 995.025538 415.948657 
L 995.454622 415.534799 
L 995.883706 415.891032 
L 996.31279 415.553196 
L 996.741874 415.834752 
L 997.170957 415.710418 
L 997.600041 415.450315 
L 998.458209 413.819126 
L 998.887293 413.29493 
L 999.745461 414.27232 
L 1000.174544 414.10137 
L 1000.603628 412.785924 
L 1001.032712 412.491351 
L 1001.461796 412.560648 
L 1001.89088 412.476096 
L 1002.319964 411.764934 
L 1002.749047 412.311654 
L 1003.178131 412.565065 
L 1003.607215 412.418205 
L 1004.036299 412.680561 
L 1004.465383 412.131162 
L 1004.894467 411.990877 
L 1005.752634 411.327562 
L 1006.181718 411.324975 
L 1006.610802 410.16176 
L 1007.039886 408.193325 
L 1007.46897 407.580456 
L 1008.327137 407.044048 
L 1009.185305 407.712235 
L 1009.614389 407.348451 
L 1010.043473 407.383023 
L 1010.472556 407.221272 
L 1010.90164 407.804302 
L 1011.330724 407.482986 
L 1011.759808 407.388539 
L 1012.188892 407.641119 
L 1012.617976 407.077556 
L 1013.047059 406.836048 
L 1013.476143 407.393696 
L 1014.334311 407.907521 
L 1014.763395 407.546667 
L 1015.192479 407.576201 
L 1016.050646 408.044579 
L 1016.47973 406.904315 
L 1016.908814 406.821237 
L 1017.766982 405.058089 
L 1018.196065 403.769162 
L 1018.625149 403.164551 
L 1019.054233 402.986123 
L 1019.483317 402.451869 
L 1020.341485 402.105162 
L 1020.770568 401.521134 
L 1021.628736 401.608208 
L 1022.05782 401.441919 
L 1022.486904 400.771113 
L 1022.915988 399.193119 
L 1023.345071 399.100019 
L 1024.203239 399.369981 
L 1024.632323 399.846654 
L 1025.061407 399.364195 
L 1025.490491 399.299873 
L 1025.919574 399.501136 
L 1026.348658 398.9442 
L 1027.206826 397.196437 
L 1027.63591 397.040874 
L 1028.064994 396.463764 
L 1028.923161 396.490772 
L 1029.352245 396.818438 
L 1030.210413 396.953328 
L 1030.639497 396.118697 
L 1031.068581 396.105503 
L 1031.497664 395.923914 
L 1032.784916 393.019355 
L 1033.214 393.417175 
L 1033.643084 392.585426 
L 1034.072167 391.491174 
L 1034.501251 391.941244 
L 1035.359419 392.445688 
L 1035.788503 391.914408 
L 1036.217587 391.874091 
L 1036.64667 391.617393 
L 1037.075754 390.948969 
L 1037.504838 391.230363 
L 1037.933922 391.240295 
L 1038.363006 391.046897 
L 1038.79209 390.400553 
L 1039.650257 390.228761 
L 1040.079341 390.440287 
L 1040.508425 390.256571 
L 1040.937509 389.66973 
L 1041.366593 388.722841 
L 1041.795676 388.151485 
L 1042.22476 388.520697 
L 1042.653844 388.165398 
L 1043.082928 388.135172 
L 1043.941096 386.164372 
L 1044.370179 385.939125 
L 1044.799263 385.403112 
L 1045.228347 385.467545 
L 1045.657431 385.375582 
L 1046.086515 384.556218 
L 1046.515599 384.815654 
L 1046.944682 384.454314 
L 1047.373766 384.267332 
L 1048.231934 382.037068 
L 1049.090102 381.576015 
L 1049.519185 380.663441 
L 1049.948269 380.651736 
L 1050.377353 381.004929 
L 1050.806437 380.322282 
L 1051.235521 380.671687 
L 1052.093688 378.797932 
L 1052.522772 379.100921 
L 1052.951856 378.75693 
L 1053.38094 378.562008 
L 1053.810024 378.614055 
L 1054.668191 378.186782 
L 1055.097275 378.193714 
L 1055.526359 377.725552 
L 1056.384527 377.265281 
L 1056.813611 377.325539 
L 1057.242695 377.150766 
L 1057.671778 376.568312 
L 1058.100862 376.862186 
L 1058.529946 376.741194 
L 1058.95903 376.496099 
L 1059.388114 376.869963 
L 1059.817198 376.395497 
L 1060.246281 376.142008 
L 1060.675365 375.715184 
L 1061.104449 375.835831 
L 1061.533533 374.978828 
L 1061.962617 375.583503 
L 1062.391701 375.47757 
L 1062.820784 375.497491 
L 1063.678952 374.353109 
L 1064.108036 374.1225 
L 1064.966204 372.463709 
L 1065.395287 371.689902 
L 1067.540707 369.153975 
L 1067.96979 368.43428 
L 1068.398874 368.136082 
L 1069.257042 367.841378 
L 1069.686126 367.491301 
L 1070.11521 366.982353 
L 1070.973377 366.960179 
L 1071.402461 366.726501 
L 1072.689713 366.310517 
L 1073.54788 365.477345 
L 1074.835132 365.26154 
L 1075.264216 364.862064 
L 1075.693299 363.923409 
L 1076.122383 363.489507 
L 1076.980551 362.957323 
L 1077.409635 363.18643 
L 1078.267802 361.635483 
L 1078.696886 361.156175 
L 1079.12597 360.144647 
L 1079.555054 360.004269 
L 1079.984138 359.428444 
L 1080.413222 359.219778 
L 1080.842305 358.530798 
L 1081.271389 358.329845 
L 1082.558641 357.392532 
L 1082.987725 357.126701 
L 1084.70406 354.431183 
L 1085.133144 353.478604 
L 1085.562228 353.473605 
L 1085.991312 353.179158 
L 1086.420395 352.532727 
L 1086.849479 351.624455 
L 1087.278563 351.263042 
L 1088.136731 350.812343 
L 1088.565815 350.379095 
L 1089.423982 349.933081 
L 1089.853066 349.392397 
L 1090.28215 349.224995 
L 1090.711234 348.431313 
L 1091.140318 348.046751 
L 1091.569401 348.075484 
L 1091.998485 347.110144 
L 1092.427569 346.569685 
L 1093.285737 346.554835 
L 1094.143904 345.665971 
L 1094.572988 345.582185 
L 1095.002072 345.234277 
L 1095.431156 344.559131 
L 1095.86024 344.349434 
L 1096.289324 343.959202 
L 1096.718407 343.338406 
L 1097.147491 342.18702 
L 1098.863827 341.063007 
L 1099.721994 340.215744 
L 1100.151078 340.319529 
L 1100.580162 339.755564 
L 1101.009246 338.982437 
L 1101.867413 338.206303 
L 1103.154665 336.566774 
L 1103.583749 335.984227 
L 1104.012833 335.037084 
L 1104.441916 334.664477 
L 1105.729168 332.962463 
L 1106.158252 332.770282 
L 1106.587336 333.074971 
L 1107.445503 331.745958 
L 1108.303671 330.434283 
L 1108.732755 330.457343 
L 1109.590922 329.590125 
L 1110.020006 329.164608 
L 1110.44909 328.352466 
L 1111.736342 326.913026 
L 1112.165426 326.622465 
L 1112.594509 326.034405 
L 1113.881761 325.287042 
L 1114.310845 325.239487 
L 1114.739929 324.999647 
L 1115.169012 324.402255 
L 1115.598096 324.295239 
L 1116.02718 323.457782 
L 1116.456264 323.55052 
L 1117.743515 322.265631 
L 1118.172599 322.178347 
L 1118.601683 321.294518 
L 1119.030767 321.18007 
L 1119.888935 320.335377 
L 1120.318018 319.665388 
L 1120.747102 319.569757 
L 1121.60527 319.113399 
L 1122.034354 318.993192 
L 1122.892521 318.241882 
L 1124.179773 316.112305 
L 1124.608857 316.036332 
L 1125.037941 315.42271 
L 1125.467024 315.057649 
L 1125.896108 314.484176 
L 1126.325192 314.177718 
L 1126.754276 313.356905 
L 1127.18336 312.81701 
L 1127.612444 311.738609 
L 1128.041527 311.54757 
L 1129.328779 310.362583 
L 1129.757863 310.433135 
L 1130.186947 309.799282 
L 1130.61603 309.857552 
L 1131.474198 308.065112 
L 1132.332366 307.405839 
L 1132.76145 306.83577 
L 1133.190533 307.209058 
L 1133.619617 306.831383 
L 1134.048701 306.154365 
L 1135.335953 304.994607 
L 1136.19412 304.556745 
L 1136.623204 304.466023 
L 1137.910456 303.503863 
L 1140.055875 301.015458 
L 1140.484959 301.059262 
L 1141.343126 300.637748 
L 1141.77221 300.308129 
L 1142.201294 300.342578 
L 1143.059462 299.522234 
L 1143.917629 299.268684 
L 1144.775797 298.543827 
L 1145.204881 298.123062 
L 1145.633965 297.969053 
L 1146.063049 297.380333 
L 1146.921216 296.682268 
L 1147.3503 296.454621 
L 1147.779384 296.011572 
L 1148.208468 296.150481 
L 1148.637552 295.545476 
L 1150.782971 294.460973 
L 1151.212055 293.774433 
L 1151.641138 293.519708 
L 1152.92839 293.194508 
L 1153.357474 292.925571 
L 1154.215641 291.943102 
L 1154.644725 291.273909 
L 1155.073809 291.151579 
L 1155.502893 290.87821 
L 1156.361061 290.093821 
L 1156.790144 290.077596 
L 1157.219228 289.359658 
L 1157.648312 289.194808 
L 1158.077396 288.622803 
L 1158.935564 287.96221 
L 1159.364647 287.596766 
L 1160.222815 287.402005 
L 1161.080983 286.298972 
L 1161.510067 286.087355 
L 1161.93915 285.572259 
L 1163.226402 284.982236 
L 1164.513653 283.974061 
L 1165.371821 283.739369 
L 1166.659073 282.530268 
L 1167.088157 282.287506 
L 1167.51724 281.831031 
L 1167.946324 281.550287 
L 1168.375408 281.027536 
L 1169.233576 280.548236 
L 1169.66266 280.618603 
L 1170.949911 279.322637 
L 1171.378995 279.480062 
L 1172.666246 278.413744 
L 1173.524414 277.384253 
L 1174.382582 276.545117 
L 1174.811666 276.315995 
L 1175.669833 275.636817 
L 1176.098917 275.612583 
L 1176.528001 275.325068 
L 1176.957085 275.36148 
L 1177.386169 275.016276 
L 1177.815252 274.835361 
L 1178.67342 273.996735 
L 1179.960672 273.615444 
L 1180.389755 273.423869 
L 1180.818839 273.036587 
L 1181.247923 273.062155 
L 1181.677007 272.76719 
L 1182.106091 272.832053 
L 1183.393342 272.217493 
L 1183.822426 272.059753 
L 1185.967845 270.722189 
L 1186.396929 270.564938 
L 1186.826013 270.575642 
L 1187.255097 270.419558 
L 1187.684181 269.977373 
L 1188.113264 269.843787 
L 1188.542348 269.514063 
L 1188.971432 269.443493 
L 1189.400516 269.224054 
L 1190.258684 268.545013 
L 1190.687767 268.671109 
L 1191.116851 268.439968 
L 1191.545935 268.512908 
L 1191.975019 268.046853 
L 1192.404103 268.105509 
L 1192.833187 268.030342 
L 1193.26227 268.124074 
L 1193.691354 267.807962 
L 1194.120438 267.99232 
L 1194.549522 267.673854 
L 1194.978606 267.601622 
L 1195.40769 267.81396 
L 1198.411277 267.119343 
L 1199.269444 267.085401 
L 1200.556696 267.130067 
L 1200.98578 267.183126 
L 1201.414863 267.096851 
L 1201.843947 267.255187 
L 1202.273031 267.177633 
L 1202.702115 266.950083 
L 1203.560283 267.108372 
L 1204.41845 266.98709 
L 1204.847534 267.042721 
L 1205.276618 266.933552 
L 1205.705702 267.006449 
L 1206.134786 266.932566 
L 1206.992953 266.975315 
L 1207.422037 266.932792 
L 1208.280205 267.25145 
L 1208.709289 267.236198 
L 1209.138372 267.415252 
L 1211.283792 267.386972 
L 1211.712875 267.295328 
L 1213.000127 267.57318 
L 1213.429211 267.815695 
L 1215.145546 268.230183 
L 1216.003714 268.18954 
L 1216.432798 268.673061 
L 1217.720049 268.936733 
L 1218.578217 269.339623 
L 1219.436384 269.233382 
L 1220.294552 269.512051 
L 1220.723636 269.523591 
L 1221.15272 269.801249 
L 1222.010887 270.051445 
L 1222.439971 270.384364 
L 1224.585391 271.193179 
L 1225.014474 271.592104 
L 1226.73081 272.037296 
L 1227.588977 272.612141 
L 1228.018061 272.665798 
L 1228.876229 273.002407 
L 1230.592564 273.672566 
L 1232.3089 274.752918 
L 1233.596151 275.302466 
L 1234.454319 275.878403 
L 1237.886989 278.34077 
L 1238.745157 278.546289 
L 1239.174241 278.997938 
L 1241.31966 280.258165 
L 1242.606912 281.079452 
L 1243.035995 281.352542 
L 1243.894163 281.680625 
L 1245.181415 282.785237 
L 1250.759505 286.965493 
L 1251.188588 287.521566 
L 1252.046756 288.304169 
L 1253.763091 290.09364 
L 1254.621259 291.183375 
L 1256.337594 292.87979 
L 1262.344768 299.998279 
L 1263.63202 301.85542 
L 1264.919271 303.529483 
L 1265.348355 303.993244 
L 1266.206523 305.190599 
L 1266.635606 305.719093 
L 1267.922858 307.787347 
L 1269.210109 309.715286 
L 1270.497361 311.888949 
L 1273.930032 318.777837 
L 1276.504535 324.89857 
L 1278.22087 329.443306 
L 1279.937205 334.97459 
L 1280.795373 338.389784 
L 1281.224457 340.322301 
L 1282.082625 345.824696 
L 1282.940792 353.411798 
L 1283.369876 354.86504 
L 1283.369876 354.86504 
" style="fill:none;stroke:#ff0000;stroke-linecap:square;stroke-width:1.5;"/>
   </g>
   <g id="line2d_37">
    <path clip-path="url(#p92a9e49a00)" d="M 873.594813 463.84 
L 974.00043 463.731314 
L 979.57852 463.682384 
L 1016.908814 463.048241 
L 1021.199652 462.837116 
L 1026.348658 462.656825 
L 1028.494078 462.519593 
L 1031.926748 462.387324 
L 1034.072167 462.160501 
L 1036.217587 462.12362 
L 1043.512012 461.688884 
L 1044.799263 461.536945 
L 1047.373766 461.385511 
L 1048.661018 461.172114 
L 1064.108036 459.798243 
L 1065.395287 459.473762 
L 1073.976964 458.134629 
L 1075.264216 457.954202 
L 1076.122383 457.681114 
L 1077.838719 457.374066 
L 1079.555054 456.839838 
L 1084.274976 455.624332 
L 1085.562228 455.194593 
L 1086.420395 454.943913 
L 1087.278563 454.615706 
L 1088.136731 454.423025 
L 1089.853066 453.892254 
L 1090.28215 453.816958 
L 1091.140318 453.46844 
L 1091.569401 453.409659 
L 1092.427569 452.988083 
L 1093.714821 452.716464 
L 1094.572988 452.495573 
L 1096.718407 451.718311 
L 1097.147491 451.370376 
L 1100.580162 450.279363 
L 1101.43833 449.83628 
L 1102.296497 449.425707 
L 1105.729168 447.567014 
L 1107.016419 447.095045 
L 1113.881761 443.308196 
L 1114.739929 442.971268 
L 1116.02718 442.025252 
L 1116.456264 441.905828 
L 1117.743515 441.104663 
L 1118.172599 440.925469 
L 1118.601683 440.4652 
L 1119.030767 440.325458 
L 1119.888935 439.68425 
L 1120.318018 439.296389 
L 1122.034354 438.429626 
L 1122.892521 437.819391 
L 1124.179773 436.499258 
L 1124.608857 436.328526 
L 1125.896108 435.137211 
L 1126.325192 434.856219 
L 1128.041527 433.07157 
L 1128.899695 432.357295 
L 1129.328779 431.969928 
L 1129.757863 431.821968 
L 1130.186947 431.330453 
L 1130.61603 431.212174 
L 1131.474198 429.924204 
L 1132.76145 428.724574 
L 1133.190533 428.72505 
L 1133.619617 428.357451 
L 1134.048701 427.769871 
L 1136.623204 425.660523 
L 1137.481372 424.932036 
L 1138.339539 424.057912 
L 1140.484959 421.842086 
L 1144.775797 417.776439 
L 1146.921216 415.344059 
L 1148.208468 414.265475 
L 1148.637552 413.58712 
L 1150.782971 411.431967 
L 1151.212055 410.570576 
L 1152.070222 409.623461 
L 1152.92839 408.941858 
L 1153.786558 407.840461 
L 1155.502893 405.263265 
L 1156.361061 404.132017 
L 1156.790144 403.794904 
L 1157.219228 402.991969 
L 1157.648312 402.601258 
L 1158.50648 401.218071 
L 1159.793731 399.465112 
L 1160.222815 398.961538 
L 1161.080983 397.332687 
L 1161.510067 396.801214 
L 1161.93915 396.021161 
L 1163.655486 393.750098 
L 1164.942737 391.872603 
L 1165.371821 391.524843 
L 1166.659073 389.213575 
L 1167.51724 387.613857 
L 1167.946324 386.877956 
L 1168.375408 385.88213 
L 1170.091743 383.365762 
L 1170.949911 381.771434 
L 1171.378995 381.450611 
L 1172.237163 379.941998 
L 1174.382582 375.195559 
L 1176.528001 371.520837 
L 1176.957085 371.039202 
L 1179.102504 366.933817 
L 1180.389755 365.079546 
L 1180.818839 364.211252 
L 1181.247923 363.698821 
L 1181.677007 362.87562 
L 1182.106091 362.403726 
L 1183.822426 359.310211 
L 1188.113264 351.069677 
L 1189.8296 347.112404 
L 1190.258684 346.17446 
L 1190.687767 345.60911 
L 1191.116851 344.744157 
L 1191.545935 344.22959 
L 1191.975019 343.051775 
L 1193.26227 341.377512 
L 1193.691354 340.431661 
L 1194.120438 340.153284 
L 1194.978606 338.180042 
L 1195.836774 337.078163 
L 1198.411277 332.470471 
L 1200.127612 329.880702 
L 1201.414863 327.804855 
L 1202.273031 326.547405 
L 1202.702115 325.616349 
L 1203.560283 324.789068 
L 1204.847534 323.052971 
L 1206.134786 321.367015 
L 1206.992953 320.125024 
L 1207.422037 319.342586 
L 1207.851121 319.161238 
L 1211.283792 314.553191 
L 1212.141959 313.094158 
L 1212.571043 312.602373 
L 1213.858295 311.660503 
L 1215.145546 310.404273 
L 1216.003714 309.1488 
L 1216.432798 309.262157 
L 1216.861881 308.944583 
L 1217.720049 307.962837 
L 1218.149133 307.857791 
L 1218.578217 307.542845 
L 1219.436384 306.364177 
L 1219.865468 306.166606 
L 1222.010887 304.027094 
L 1222.439971 303.871014 
L 1223.298139 303.145779 
L 1224.585391 301.926004 
L 1225.014474 301.955615 
L 1226.301726 300.957487 
L 1226.73081 300.561696 
L 1227.588977 300.38214 
L 1228.018061 299.941659 
L 1228.876229 299.421094 
L 1229.305313 299.09784 
L 1229.734397 298.997284 
L 1230.16348 298.698531 
L 1232.737983 297.846201 
L 1233.167067 297.551644 
L 1234.454319 297.216846 
L 1234.883403 297.305721 
L 1235.312486 297.2212 
L 1236.170654 296.754107 
L 1237.886989 296.646874 
L 1238.316073 296.137064 
L 1238.745157 295.948264 
L 1239.174241 296.122377 
L 1239.603325 296.062442 
L 1240.032409 295.691437 
L 1240.461492 295.715841 
L 1240.890576 295.491777 
L 1241.748744 295.591876 
L 1242.177828 295.448815 
L 1242.606912 295.492622 
L 1243.035995 295.376647 
L 1243.894163 294.907165 
L 1244.752331 295.217817 
L 1245.610498 295.366572 
L 1246.039582 295.597432 
L 1248.614085 295.440505 
L 1249.901337 295.693266 
L 1250.330421 295.880192 
L 1250.759505 295.927335 
L 1251.188588 296.380474 
L 1252.046756 296.602768 
L 1252.904924 296.967951 
L 1254.621259 298.174559 
L 1255.050343 298.269077 
L 1255.908511 298.728669 
L 1256.337594 298.823711 
L 1257.195762 299.39286 
L 1257.624846 299.762594 
L 1258.05393 299.979437 
L 1258.483014 300.436452 
L 1259.770265 301.297182 
L 1260.628433 302.160122 
L 1261.057517 302.241848 
L 1263.63202 304.997584 
L 1264.490187 305.849861 
L 1265.777439 307.104601 
L 1267.06469 308.603754 
L 1268.351942 310.247701 
L 1270.068277 312.589998 
L 1271.355529 314.68097 
L 1272.64278 317.037187 
L 1273.500948 318.52323 
L 1275.217283 322.444046 
L 1276.075451 324.187674 
L 1278.649954 330.96544 
L 1279.937205 335.097527 
L 1280.795373 338.496165 
L 1281.224457 340.374672 
L 1282.082625 345.849715 
L 1282.940792 353.411798 
L 1283.369876 354.86504 
L 1283.369876 354.86504 
" style="fill:none;stroke:#008000;stroke-linecap:square;stroke-width:1.5;"/>
   </g>
   <g id="line2d_38">
    <path clip-path="url(#p92a9e49a00)" d="M 1243.894163 463.84 
L 1243.894163 41.64 
" style="fill:none;stroke:#1f77b4;stroke-linecap:square;stroke-width:1.5;"/>
   </g>
   <g id="patch_9">
    <path d="M 833.282386 463.84 
L 833.282386 41.64 
" style="fill:none;stroke:#000000;stroke-linecap:square;stroke-linejoin:miter;stroke-width:0.8;"/>
   </g>
   <g id="patch_10">
    <path d="M 1304.802614 463.84 
L 1304.802614 41.64 
" style="fill:none;stroke:#000000;stroke-linecap:square;stroke-linejoin:miter;stroke-width:0.8;"/>
   </g>
   <g id="patch_11">
    <path d="M 833.282386 463.84 
L 1304.802614 463.84 
" style="fill:none;stroke:#000000;stroke-linecap:square;stroke-linejoin:miter;stroke-width:0.8;"/>
   </g>
   <g id="patch_12">
    <path d="M 833.282386 41.64 
L 1304.802614 41.64 
" style="fill:none;stroke:#000000;stroke-linecap:square;stroke-linejoin:miter;stroke-width:0.8;"/>
   </g>
   <g id="text_33">
    <!-- Purity/Efficiency vs ChainRSquaredAvgV Cutoff — shower -->
    <defs>
     <path d="M 4.203125 54.6875 
L 13.1875 54.6875 
L 24.421875 12.015625 
L 35.59375 54.6875 
L 46.1875 54.6875 
L 57.421875 12.015625 
L 68.609375 54.6875 
L 77.59375 54.6875 
L 63.28125 0 
L 52.6875 0 
L 40.921875 44.828125 
L 29.109375 0 
L 18.5 0 
z
" id="DejaVuSans-119"/>
    </defs>
    <g transform="translate(696.395925 35.64)scale(0.2592 -0.2592)">
     <use xlink:href="#DejaVuSans-80"/>
     <use x="60.287109" xlink:href="#DejaVuSans-117"/>
     <use x="123.666016" xlink:href="#DejaVuSans-114"/>
     <use x="164.779297" xlink:href="#DejaVuSans-105"/>
     <use x="192.5625" xlink:href="#DejaVuSans-116"/>
     <use x="231.771484" xlink:href="#DejaVuSans-121"/>
     <use x="290.951172" xlink:href="#DejaVuSans-47"/>
     <use x="324.642578" xlink:href="#DejaVuSans-69"/>
     <use x="387.826172" xlink:href="#DejaVuSans-102"/>
     <use x="423.03125" xlink:href="#DejaVuSans-102"/>
     <use x="458.236328" xlink:href="#DejaVuSans-105"/>
     <use x="486.019531" xlink:href="#DejaVuSans-99"/>
     <use x="541" xlink:href="#DejaVuSans-105"/>
     <use x="568.783203" xlink:href="#DejaVuSans-101"/>
     <use x="630.306641" xlink:href="#DejaVuSans-110"/>
     <use x="693.685547" xlink:href="#DejaVuSans-99"/>
     <use x="748.666016" xlink:href="#DejaVuSans-121"/>
     <use x="807.845703" xlink:href="#DejaVuSans-32"/>
     <use x="839.632812" xlink:href="#DejaVuSans-118"/>
     <use x="898.8125" xlink:href="#DejaVuSans-115"/>
     <use x="950.912109" xlink:href="#DejaVuSans-32"/>
     <use x="982.699219" xlink:href="#DejaVuSans-67"/>
     <use x="1052.523438" xlink:href="#DejaVuSans-104"/>
     <use x="1115.902344" xlink:href="#DejaVuSans-97"/>
     <use x="1177.181641" xlink:href="#DejaVuSans-105"/>
     <use x="1204.964844" xlink:href="#DejaVuSans-110"/>
     <use x="1268.34375" xlink:href="#DejaVuSans-82"/>
     <use x="1337.826172" xlink:href="#DejaVuSans-83"/>
     <use x="1401.302734" xlink:href="#DejaVuSans-113"/>
     <use x="1464.779297" xlink:href="#DejaVuSans-117"/>
     <use x="1528.158203" xlink:href="#DejaVuSans-97"/>
     <use x="1589.4375" xlink:href="#DejaVuSans-114"/>
     <use x="1630.519531" xlink:href="#DejaVuSans-101"/>
     <use x="1692.042969" xlink:href="#DejaVuSans-100"/>
     <use x="1755.519531" xlink:href="#DejaVuSans-65"/>
     <use x="1823.849609" xlink:href="#DejaVuSans-118"/>
     <use x="1883.029297" xlink:href="#DejaVuSans-103"/>
     <use x="1946.505859" xlink:href="#DejaVuSans-86"/>
     <use x="2014.914062" xlink:href="#DejaVuSans-32"/>
     <use x="2046.701172" xlink:href="#DejaVuSans-67"/>
     <use x="2116.525391" xlink:href="#DejaVuSans-117"/>
     <use x="2179.904297" xlink:href="#DejaVuSans-116"/>
     <use x="2219.113281" xlink:href="#DejaVuSans-111"/>
     <use x="2280.294922" xlink:href="#DejaVuSans-102"/>
     <use x="2315.5" xlink:href="#DejaVuSans-102"/>
     <use x="2350.705078" xlink:href="#DejaVuSans-32"/>
     <use x="2382.492188" xlink:href="#DejaVuSans-8212"/>
     <use x="2482.492188" xlink:href="#DejaVuSans-32"/>
     <use x="2514.279297" xlink:href="#DejaVuSans-115"/>
     <use x="2566.378906" xlink:href="#DejaVuSans-104"/>
     <use x="2629.757812" xlink:href="#DejaVuSans-111"/>
     <use x="2690.939453" xlink:href="#DejaVuSans-119"/>
     <use x="2772.726562" xlink:href="#DejaVuSans-101"/>
     <use x="2834.25" xlink:href="#DejaVuSans-114"/>
    </g>
   </g>
   <g id="legend_2">
    <g id="patch_13">
     <path d="M 960.347813 454.84 
L 1177.737188 454.84 
Q 1181.337188 454.84 1181.337188 451.24 
L 1181.337188 373.778125 
Q 1181.337188 370.178125 1177.737188 370.178125 
L 960.347813 370.178125 
Q 956.747813 370.178125 956.747813 373.778125 
L 956.747813 451.24 
Q 956.747813 454.84 960.347813 454.84 
z
" style="fill:#ffffff;opacity:0.8;stroke:#cccccc;stroke-linejoin:miter;"/>
    </g>
    <g id="line2d_39">
     <path d="M 963.947813 384.755313 
L 999.947813 384.755313 
" style="fill:none;stroke:#0000ff;stroke-linecap:square;stroke-width:1.5;"/>
    </g>
    <g id="line2d_40"/>
    <g id="text_34">
     <!-- Efficiency -->
     <g transform="translate(1014.347813 391.055313)scale(0.18 -0.18)">
      <use xlink:href="#DejaVuSans-69"/>
      <use x="63.183594" xlink:href="#DejaVuSans-102"/>
      <use x="98.388672" xlink:href="#DejaVuSans-102"/>
      <use x="133.59375" xlink:href="#DejaVuSans-105"/>
      <use x="161.376953" xlink:href="#DejaVuSans-99"/>
      <use x="216.357422" xlink:href="#DejaVuSans-105"/>
      <use x="244.140625" xlink:href="#DejaVuSans-101"/>
      <use x="305.664062" xlink:href="#DejaVuSans-110"/>
      <use x="369.042969" xlink:href="#DejaVuSans-99"/>
      <use x="424.023438" xlink:href="#DejaVuSans-121"/>
     </g>
    </g>
    <g id="line2d_41">
     <path d="M 963.947813 411.175937 
L 999.947813 411.175937 
" style="fill:none;stroke:#ff0000;stroke-linecap:square;stroke-width:1.5;"/>
    </g>
    <g id="line2d_42"/>
    <g id="text_35">
     <!-- Purity -->
     <g transform="translate(1014.347813 417.475937)scale(0.18 -0.18)">
      <use xlink:href="#DejaVuSans-80"/>
      <use x="60.287109" xlink:href="#DejaVuSans-117"/>
      <use x="123.666016" xlink:href="#DejaVuSans-114"/>
      <use x="164.779297" xlink:href="#DejaVuSans-105"/>
      <use x="192.5625" xlink:href="#DejaVuSans-116"/>
      <use x="231.771484" xlink:href="#DejaVuSans-121"/>
     </g>
    </g>
    <g id="line2d_43">
     <path d="M 963.947813 437.596562 
L 999.947813 437.596562 
" style="fill:none;stroke:#008000;stroke-linecap:square;stroke-width:1.5;"/>
    </g>
    <g id="line2d_44"/>
    <g id="text_36">
     <!-- Purity * Efficiency -->
     <g transform="translate(1014.347813 443.896562)scale(0.18 -0.18)">
      <use xlink:href="#DejaVuSans-80"/>
      <use x="60.287109" xlink:href="#DejaVuSans-117"/>
      <use x="123.666016" xlink:href="#DejaVuSans-114"/>
      <use x="164.779297" xlink:href="#DejaVuSans-105"/>
      <use x="192.5625" xlink:href="#DejaVuSans-116"/>
      <use x="231.771484" xlink:href="#DejaVuSans-121"/>
      <use x="290.951172" xlink:href="#DejaVuSans-32"/>
      <use x="322.738281" xlink:href="#DejaVuSans-42"/>
      <use x="372.738281" xlink:href="#DejaVuSans-32"/>
      <use x="404.525391" xlink:href="#DejaVuSans-69"/>
      <use x="467.708984" xlink:href="#DejaVuSans-102"/>
      <use x="502.914062" xlink:href="#DejaVuSans-102"/>
      <use x="538.119141" xlink:href="#DejaVuSans-105"/>
      <use x="565.902344" xlink:href="#DejaVuSans-99"/>
      <use x="620.882812" xlink:href="#DejaVuSans-105"/>
      <use x="648.666016" xlink:href="#DejaVuSans-101"/>
      <use x="710.189453" xlink:href="#DejaVuSans-110"/>
      <use x="773.568359" xlink:href="#DejaVuSans-99"/>
      <use x="828.548828" xlink:href="#DejaVuSans-121"/>
     </g>
    </g>
   </g>
  </g>
 </g>
 <defs>
  <clipPath id="p205bd418ab">
   <rect height="422.2" width="471.520227" x="121.382386" y="41.64"/>
  </clipPath>
  <clipPath id="p92a9e49a00">
   <rect height="422.2" width="471.520227" x="833.282386" y="41.64"/>
  </clipPath>
 </defs>
</svg>
