<?xml version="1.0" encoding="utf-8" standalone="no"?>
<!DOCTYPE svg PUBLIC "-//W3C//DTD SVG 1.1//EN"
  "http://www.w3.org/Graphics/SVG/1.1/DTD/svg11.dtd">
<!-- Created with matplotlib (https://matplotlib.org/) -->
<svg height="540pt" version="1.1" viewBox="0 0 1440 540" width="1440pt" xmlns="http://www.w3.org/2000/svg" xmlns:xlink="http://www.w3.org/1999/xlink">
 <defs>
  <style type="text/css">
*{stroke-linecap:butt;stroke-linejoin:round;}
  </style>
 </defs>
 <g id="figure_1">
  <g id="patch_1">
   <path d="M 0 540 
L 1440 540 
L 1440 0 
L 0 0 
z
" style="fill:#ffffff;"/>
  </g>
  <g id="axes_1">
   <g id="patch_2">
    <path d="M 92.99 463.84 
L 675.680114 463.84 
L 675.680114 41.64 
L 92.99 41.64 
z
" style="fill:#ffffff;"/>
   </g>
   <g id="matplotlib.axis_1">
    <g id="xtick_1">
     <g id="line2d_1">
      <defs>
       <path d="M 0 0 
L 0 3.5 
" id="m61a164f1c4" style="stroke:#000000;stroke-width:0.8;"/>
      </defs>
      <g>
       <use style="stroke:#000000;stroke-width:0.8;" x="119.475914" xlink:href="#m61a164f1c4" y="463.84"/>
      </g>
     </g>
     <g id="text_1">
      <!-- 0 -->
      <defs>
       <path d="M 31.78125 66.40625 
Q 24.171875 66.40625 20.328125 58.90625 
Q 16.5 51.421875 16.5 36.375 
Q 16.5 21.390625 20.328125 13.890625 
Q 24.171875 6.390625 31.78125 6.390625 
Q 39.453125 6.390625 43.28125 13.890625 
Q 47.125 21.390625 47.125 36.375 
Q 47.125 51.421875 43.28125 58.90625 
Q 39.453125 66.40625 31.78125 66.40625 
z
M 31.78125 74.21875 
Q 44.046875 74.21875 50.515625 64.515625 
Q 56.984375 54.828125 56.984375 36.375 
Q 56.984375 17.96875 50.515625 8.265625 
Q 44.046875 -1.421875 31.78125 -1.421875 
Q 19.53125 -1.421875 13.0625 8.265625 
Q 6.59375 17.96875 6.59375 36.375 
Q 6.59375 54.828125 13.0625 64.515625 
Q 19.53125 74.21875 31.78125 74.21875 
z
" id="DejaVuSans-48"/>
      </defs>
      <g transform="translate(111.230114 490.53515)scale(0.2592 -0.2592)">
       <use xlink:href="#DejaVuSans-48"/>
      </g>
     </g>
    </g>
    <g id="xtick_2">
     <g id="line2d_2">
      <g>
       <use style="stroke:#000000;stroke-width:0.8;" x="225.419571" xlink:href="#m61a164f1c4" y="463.84"/>
      </g>
     </g>
     <g id="text_2">
      <!-- 2 -->
      <defs>
       <path d="M 19.1875 8.296875 
L 53.609375 8.296875 
L 53.609375 0 
L 7.328125 0 
L 7.328125 8.296875 
Q 12.9375 14.109375 22.625 23.890625 
Q 32.328125 33.6875 34.8125 36.53125 
Q 39.546875 41.84375 41.421875 45.53125 
Q 43.3125 49.21875 43.3125 52.78125 
Q 43.3125 58.59375 39.234375 62.25 
Q 35.15625 65.921875 28.609375 65.921875 
Q 23.96875 65.921875 18.8125 64.3125 
Q 13.671875 62.703125 7.8125 59.421875 
L 7.8125 69.390625 
Q 13.765625 71.78125 18.9375 73 
Q 24.125 74.21875 28.421875 74.21875 
Q 39.75 74.21875 46.484375 68.546875 
Q 53.21875 62.890625 53.21875 53.421875 
Q 53.21875 48.921875 51.53125 44.890625 
Q 49.859375 40.875 45.40625 35.40625 
Q 44.1875 33.984375 37.640625 27.21875 
Q 31.109375 20.453125 19.1875 8.296875 
z
" id="DejaVuSans-50"/>
      </defs>
      <g transform="translate(217.173771 490.53515)scale(0.2592 -0.2592)">
       <use xlink:href="#DejaVuSans-50"/>
      </g>
     </g>
    </g>
    <g id="xtick_3">
     <g id="line2d_3">
      <g>
       <use style="stroke:#000000;stroke-width:0.8;" x="331.363228" xlink:href="#m61a164f1c4" y="463.84"/>
      </g>
     </g>
     <g id="text_3">
      <!-- 4 -->
      <defs>
       <path d="M 37.796875 64.3125 
L 12.890625 25.390625 
L 37.796875 25.390625 
z
M 35.203125 72.90625 
L 47.609375 72.90625 
L 47.609375 25.390625 
L 58.015625 25.390625 
L 58.015625 17.1875 
L 47.609375 17.1875 
L 47.609375 0 
L 37.796875 0 
L 37.796875 17.1875 
L 4.890625 17.1875 
L 4.890625 26.703125 
z
" id="DejaVuSans-52"/>
      </defs>
      <g transform="translate(323.117428 490.53515)scale(0.2592 -0.2592)">
       <use xlink:href="#DejaVuSans-52"/>
      </g>
     </g>
    </g>
    <g id="xtick_4">
     <g id="line2d_4">
      <g>
       <use style="stroke:#000000;stroke-width:0.8;" x="437.306885" xlink:href="#m61a164f1c4" y="463.84"/>
      </g>
     </g>
     <g id="text_4">
      <!-- 6 -->
      <defs>
       <path d="M 33.015625 40.375 
Q 26.375 40.375 22.484375 35.828125 
Q 18.609375 31.296875 18.609375 23.390625 
Q 18.609375 15.53125 22.484375 10.953125 
Q 26.375 6.390625 33.015625 6.390625 
Q 39.65625 6.390625 43.53125 10.953125 
Q 47.40625 15.53125 47.40625 23.390625 
Q 47.40625 31.296875 43.53125 35.828125 
Q 39.65625 40.375 33.015625 40.375 
z
M 52.59375 71.296875 
L 52.59375 62.3125 
Q 48.875 64.0625 45.09375 64.984375 
Q 41.3125 65.921875 37.59375 65.921875 
Q 27.828125 65.921875 22.671875 59.328125 
Q 17.53125 52.734375 16.796875 39.40625 
Q 19.671875 43.65625 24.015625 45.921875 
Q 28.375 48.1875 33.59375 48.1875 
Q 44.578125 48.1875 50.953125 41.515625 
Q 57.328125 34.859375 57.328125 23.390625 
Q 57.328125 12.15625 50.6875 5.359375 
Q 44.046875 -1.421875 33.015625 -1.421875 
Q 20.359375 -1.421875 13.671875 8.265625 
Q 6.984375 17.96875 6.984375 36.375 
Q 6.984375 53.65625 15.1875 63.9375 
Q 23.390625 74.21875 37.203125 74.21875 
Q 40.921875 74.21875 44.703125 73.484375 
Q 48.484375 72.75 52.59375 71.296875 
z
" id="DejaVuSans-54"/>
      </defs>
      <g transform="translate(429.061085 490.53515)scale(0.2592 -0.2592)">
       <use xlink:href="#DejaVuSans-54"/>
      </g>
     </g>
    </g>
    <g id="xtick_5">
     <g id="line2d_5">
      <g>
       <use style="stroke:#000000;stroke-width:0.8;" x="543.250542" xlink:href="#m61a164f1c4" y="463.84"/>
      </g>
     </g>
     <g id="text_5">
      <!-- 8 -->
      <defs>
       <path d="M 31.78125 34.625 
Q 24.75 34.625 20.71875 30.859375 
Q 16.703125 27.09375 16.703125 20.515625 
Q 16.703125 13.921875 20.71875 10.15625 
Q 24.75 6.390625 31.78125 6.390625 
Q 38.8125 6.390625 42.859375 10.171875 
Q 46.921875 13.96875 46.921875 20.515625 
Q 46.921875 27.09375 42.890625 30.859375 
Q 38.875 34.625 31.78125 34.625 
z
M 21.921875 38.8125 
Q 15.578125 40.375 12.03125 44.71875 
Q 8.5 49.078125 8.5 55.328125 
Q 8.5 64.0625 14.71875 69.140625 
Q 20.953125 74.21875 31.78125 74.21875 
Q 42.671875 74.21875 48.875 69.140625 
Q 55.078125 64.0625 55.078125 55.328125 
Q 55.078125 49.078125 51.53125 44.71875 
Q 48 40.375 41.703125 38.8125 
Q 48.828125 37.15625 52.796875 32.3125 
Q 56.78125 27.484375 56.78125 20.515625 
Q 56.78125 9.90625 50.3125 4.234375 
Q 43.84375 -1.421875 31.78125 -1.421875 
Q 19.734375 -1.421875 13.25 4.234375 
Q 6.78125 9.90625 6.78125 20.515625 
Q 6.78125 27.484375 10.78125 32.3125 
Q 14.796875 37.15625 21.921875 38.8125 
z
M 18.3125 54.390625 
Q 18.3125 48.734375 21.84375 45.5625 
Q 25.390625 42.390625 31.78125 42.390625 
Q 38.140625 42.390625 41.71875 45.5625 
Q 45.3125 48.734375 45.3125 54.390625 
Q 45.3125 60.0625 41.71875 63.234375 
Q 38.140625 66.40625 31.78125 66.40625 
Q 25.390625 66.40625 21.84375 63.234375 
Q 18.3125 60.0625 18.3125 54.390625 
z
" id="DejaVuSans-56"/>
      </defs>
      <g transform="translate(535.004742 490.53515)scale(0.2592 -0.2592)">
       <use xlink:href="#DejaVuSans-56"/>
      </g>
     </g>
    </g>
    <g id="xtick_6">
     <g id="line2d_6">
      <g>
       <use style="stroke:#000000;stroke-width:0.8;" x="649.194199" xlink:href="#m61a164f1c4" y="463.84"/>
      </g>
     </g>
     <g id="text_6">
      <!-- 10 -->
      <defs>
       <path d="M 12.40625 8.296875 
L 28.515625 8.296875 
L 28.515625 63.921875 
L 10.984375 60.40625 
L 10.984375 69.390625 
L 28.421875 72.90625 
L 38.28125 72.90625 
L 38.28125 8.296875 
L 54.390625 8.296875 
L 54.390625 0 
L 12.40625 0 
z
" id="DejaVuSans-49"/>
      </defs>
      <g transform="translate(632.702599 490.53515)scale(0.2592 -0.2592)">
       <use xlink:href="#DejaVuSans-49"/>
       <use x="63.623047" xlink:href="#DejaVuSans-48"/>
      </g>
     </g>
    </g>
    <g id="text_7">
     <!-- PcaVarW Cutoff -->
     <defs>
      <path d="M 19.671875 64.796875 
L 19.671875 37.40625 
L 32.078125 37.40625 
Q 38.96875 37.40625 42.71875 40.96875 
Q 46.484375 44.53125 46.484375 51.125 
Q 46.484375 57.671875 42.71875 61.234375 
Q 38.96875 64.796875 32.078125 64.796875 
z
M 9.8125 72.90625 
L 32.078125 72.90625 
Q 44.34375 72.90625 50.609375 67.359375 
Q 56.890625 61.8125 56.890625 51.125 
Q 56.890625 40.328125 50.609375 34.8125 
Q 44.34375 29.296875 32.078125 29.296875 
L 19.671875 29.296875 
L 19.671875 0 
L 9.8125 0 
z
" id="DejaVuSans-80"/>
      <path d="M 48.78125 52.59375 
L 48.78125 44.1875 
Q 44.96875 46.296875 41.140625 47.34375 
Q 37.3125 48.390625 33.40625 48.390625 
Q 24.65625 48.390625 19.8125 42.84375 
Q 14.984375 37.3125 14.984375 27.296875 
Q 14.984375 17.28125 19.8125 11.734375 
Q 24.65625 6.203125 33.40625 6.203125 
Q 37.3125 6.203125 41.140625 7.25 
Q 44.96875 8.296875 48.78125 10.40625 
L 48.78125 2.09375 
Q 45.015625 0.34375 40.984375 -0.53125 
Q 36.96875 -1.421875 32.421875 -1.421875 
Q 20.0625 -1.421875 12.78125 6.34375 
Q 5.515625 14.109375 5.515625 27.296875 
Q 5.515625 40.671875 12.859375 48.328125 
Q 20.21875 56 33.015625 56 
Q 37.15625 56 41.109375 55.140625 
Q 45.0625 54.296875 48.78125 52.59375 
z
" id="DejaVuSans-99"/>
      <path d="M 34.28125 27.484375 
Q 23.390625 27.484375 19.1875 25 
Q 14.984375 22.515625 14.984375 16.5 
Q 14.984375 11.71875 18.140625 8.90625 
Q 21.296875 6.109375 26.703125 6.109375 
Q 34.1875 6.109375 38.703125 11.40625 
Q 43.21875 16.703125 43.21875 25.484375 
L 43.21875 27.484375 
z
M 52.203125 31.203125 
L 52.203125 0 
L 43.21875 0 
L 43.21875 8.296875 
Q 40.140625 3.328125 35.546875 0.953125 
Q 30.953125 -1.421875 24.3125 -1.421875 
Q 15.921875 -1.421875 10.953125 3.296875 
Q 6 8.015625 6 15.921875 
Q 6 25.140625 12.171875 29.828125 
Q 18.359375 34.515625 30.609375 34.515625 
L 43.21875 34.515625 
L 43.21875 35.40625 
Q 43.21875 41.609375 39.140625 45 
Q 35.0625 48.390625 27.6875 48.390625 
Q 23 48.390625 18.546875 47.265625 
Q 14.109375 46.140625 10.015625 43.890625 
L 10.015625 52.203125 
Q 14.9375 54.109375 19.578125 55.046875 
Q 24.21875 56 28.609375 56 
Q 40.484375 56 46.34375 49.84375 
Q 52.203125 43.703125 52.203125 31.203125 
z
" id="DejaVuSans-97"/>
      <path d="M 28.609375 0 
L 0.78125 72.90625 
L 11.078125 72.90625 
L 34.1875 11.53125 
L 57.328125 72.90625 
L 67.578125 72.90625 
L 39.796875 0 
z
" id="DejaVuSans-86"/>
      <path d="M 41.109375 46.296875 
Q 39.59375 47.171875 37.8125 47.578125 
Q 36.03125 48 33.890625 48 
Q 26.265625 48 22.1875 43.046875 
Q 18.109375 38.09375 18.109375 28.8125 
L 18.109375 0 
L 9.078125 0 
L 9.078125 54.6875 
L 18.109375 54.6875 
L 18.109375 46.1875 
Q 20.953125 51.171875 25.484375 53.578125 
Q 30.03125 56 36.53125 56 
Q 37.453125 56 38.578125 55.875 
Q 39.703125 55.765625 41.0625 55.515625 
z
" id="DejaVuSans-114"/>
      <path d="M 3.328125 72.90625 
L 13.28125 72.90625 
L 28.609375 11.28125 
L 43.890625 72.90625 
L 54.984375 72.90625 
L 70.3125 11.28125 
L 85.59375 72.90625 
L 95.609375 72.90625 
L 77.296875 0 
L 64.890625 0 
L 49.515625 63.28125 
L 33.984375 0 
L 21.578125 0 
z
" id="DejaVuSans-87"/>
      <path id="DejaVuSans-32"/>
      <path d="M 64.40625 67.28125 
L 64.40625 56.890625 
Q 59.421875 61.53125 53.78125 63.8125 
Q 48.140625 66.109375 41.796875 66.109375 
Q 29.296875 66.109375 22.65625 58.46875 
Q 16.015625 50.828125 16.015625 36.375 
Q 16.015625 21.96875 22.65625 14.328125 
Q 29.296875 6.6875 41.796875 6.6875 
Q 48.140625 6.6875 53.78125 8.984375 
Q 59.421875 11.28125 64.40625 15.921875 
L 64.40625 5.609375 
Q 59.234375 2.09375 53.4375 0.328125 
Q 47.65625 -1.421875 41.21875 -1.421875 
Q 24.65625 -1.421875 15.125 8.703125 
Q 5.609375 18.84375 5.609375 36.375 
Q 5.609375 53.953125 15.125 64.078125 
Q 24.65625 74.21875 41.21875 74.21875 
Q 47.75 74.21875 53.53125 72.484375 
Q 59.328125 70.75 64.40625 67.28125 
z
" id="DejaVuSans-67"/>
      <path d="M 8.5 21.578125 
L 8.5 54.6875 
L 17.484375 54.6875 
L 17.484375 21.921875 
Q 17.484375 14.15625 20.5 10.265625 
Q 23.53125 6.390625 29.59375 6.390625 
Q 36.859375 6.390625 41.078125 11.03125 
Q 45.3125 15.671875 45.3125 23.6875 
L 45.3125 54.6875 
L 54.296875 54.6875 
L 54.296875 0 
L 45.3125 0 
L 45.3125 8.40625 
Q 42.046875 3.421875 37.71875 1 
Q 33.40625 -1.421875 27.6875 -1.421875 
Q 18.265625 -1.421875 13.375 4.4375 
Q 8.5 10.296875 8.5 21.578125 
z
M 31.109375 56 
z
" id="DejaVuSans-117"/>
      <path d="M 18.3125 70.21875 
L 18.3125 54.6875 
L 36.8125 54.6875 
L 36.8125 47.703125 
L 18.3125 47.703125 
L 18.3125 18.015625 
Q 18.3125 11.328125 20.140625 9.421875 
Q 21.96875 7.515625 27.59375 7.515625 
L 36.8125 7.515625 
L 36.8125 0 
L 27.59375 0 
Q 17.1875 0 13.234375 3.875 
Q 9.28125 7.765625 9.28125 18.015625 
L 9.28125 47.703125 
L 2.6875 47.703125 
L 2.6875 54.6875 
L 9.28125 54.6875 
L 9.28125 70.21875 
z
" id="DejaVuSans-116"/>
      <path d="M 30.609375 48.390625 
Q 23.390625 48.390625 19.1875 42.75 
Q 14.984375 37.109375 14.984375 27.296875 
Q 14.984375 17.484375 19.15625 11.84375 
Q 23.34375 6.203125 30.609375 6.203125 
Q 37.796875 6.203125 41.984375 11.859375 
Q 46.1875 17.53125 46.1875 27.296875 
Q 46.1875 37.015625 41.984375 42.703125 
Q 37.796875 48.390625 30.609375 48.390625 
z
M 30.609375 56 
Q 42.328125 56 49.015625 48.375 
Q 55.71875 40.765625 55.71875 27.296875 
Q 55.71875 13.875 49.015625 6.21875 
Q 42.328125 -1.421875 30.609375 -1.421875 
Q 18.84375 -1.421875 12.171875 6.21875 
Q 5.515625 13.875 5.515625 27.296875 
Q 5.515625 40.765625 12.171875 48.375 
Q 18.84375 56 30.609375 56 
z
" id="DejaVuSans-111"/>
      <path d="M 37.109375 75.984375 
L 37.109375 68.5 
L 28.515625 68.5 
Q 23.6875 68.5 21.796875 66.546875 
Q 19.921875 64.59375 19.921875 59.515625 
L 19.921875 54.6875 
L 34.71875 54.6875 
L 34.71875 47.703125 
L 19.921875 47.703125 
L 19.921875 0 
L 10.890625 0 
L 10.890625 47.703125 
L 2.296875 47.703125 
L 2.296875 54.6875 
L 10.890625 54.6875 
L 10.890625 58.5 
Q 10.890625 67.625 15.140625 71.796875 
Q 19.390625 75.984375 28.609375 75.984375 
z
" id="DejaVuSans-102"/>
     </defs>
     <g transform="translate(283.000007 519.62085)scale(0.2592 -0.2592)">
      <use xlink:href="#DejaVuSans-80"/>
      <use x="60.302734" xlink:href="#DejaVuSans-99"/>
      <use x="115.283203" xlink:href="#DejaVuSans-97"/>
      <use x="176.5625" xlink:href="#DejaVuSans-86"/>
      <use x="244.861328" xlink:href="#DejaVuSans-97"/>
      <use x="306.140625" xlink:href="#DejaVuSans-114"/>
      <use x="347.253906" xlink:href="#DejaVuSans-87"/>
      <use x="446.130859" xlink:href="#DejaVuSans-32"/>
      <use x="477.917969" xlink:href="#DejaVuSans-67"/>
      <use x="547.742188" xlink:href="#DejaVuSans-117"/>
      <use x="611.121094" xlink:href="#DejaVuSans-116"/>
      <use x="650.330078" xlink:href="#DejaVuSans-111"/>
      <use x="711.511719" xlink:href="#DejaVuSans-102"/>
      <use x="746.716797" xlink:href="#DejaVuSans-102"/>
     </g>
    </g>
   </g>
   <g id="matplotlib.axis_2">
    <g id="ytick_1">
     <g id="line2d_7">
      <defs>
       <path d="M 0 0 
L -3.5 0 
" id="m7ed50acd49" style="stroke:#000000;stroke-width:0.8;"/>
      </defs>
      <g>
       <use style="stroke:#000000;stroke-width:0.8;" x="92.99" xlink:href="#m7ed50acd49" y="463.84"/>
      </g>
     </g>
     <g id="text_8">
      <!-- 0.0 -->
      <defs>
       <path d="M 10.6875 12.40625 
L 21 12.40625 
L 21 0 
L 10.6875 0 
z
" id="DejaVuSans-46"/>
      </defs>
      <g transform="translate(44.7691 473.687575)scale(0.2592 -0.2592)">
       <use xlink:href="#DejaVuSans-48"/>
       <use x="63.623047" xlink:href="#DejaVuSans-46"/>
       <use x="95.410156" xlink:href="#DejaVuSans-48"/>
      </g>
     </g>
    </g>
    <g id="ytick_2">
     <g id="line2d_8">
      <g>
       <use style="stroke:#000000;stroke-width:0.8;" x="92.99" xlink:href="#m7ed50acd49" y="379.4"/>
      </g>
     </g>
     <g id="text_9">
      <!-- 0.2 -->
      <g transform="translate(44.7691 389.247575)scale(0.2592 -0.2592)">
       <use xlink:href="#DejaVuSans-48"/>
       <use x="63.623047" xlink:href="#DejaVuSans-46"/>
       <use x="95.410156" xlink:href="#DejaVuSans-50"/>
      </g>
     </g>
    </g>
    <g id="ytick_3">
     <g id="line2d_9">
      <g>
       <use style="stroke:#000000;stroke-width:0.8;" x="92.99" xlink:href="#m7ed50acd49" y="294.96"/>
      </g>
     </g>
     <g id="text_10">
      <!-- 0.4 -->
      <g transform="translate(44.7691 304.807575)scale(0.2592 -0.2592)">
       <use xlink:href="#DejaVuSans-48"/>
       <use x="63.623047" xlink:href="#DejaVuSans-46"/>
       <use x="95.410156" xlink:href="#DejaVuSans-52"/>
      </g>
     </g>
    </g>
    <g id="ytick_4">
     <g id="line2d_10">
      <g>
       <use style="stroke:#000000;stroke-width:0.8;" x="92.99" xlink:href="#m7ed50acd49" y="210.52"/>
      </g>
     </g>
     <g id="text_11">
      <!-- 0.6 -->
      <g transform="translate(44.7691 220.367575)scale(0.2592 -0.2592)">
       <use xlink:href="#DejaVuSans-48"/>
       <use x="63.623047" xlink:href="#DejaVuSans-46"/>
       <use x="95.410156" xlink:href="#DejaVuSans-54"/>
      </g>
     </g>
    </g>
    <g id="ytick_5">
     <g id="line2d_11">
      <g>
       <use style="stroke:#000000;stroke-width:0.8;" x="92.99" xlink:href="#m7ed50acd49" y="126.08"/>
      </g>
     </g>
     <g id="text_12">
      <!-- 0.8 -->
      <g transform="translate(44.7691 135.927575)scale(0.2592 -0.2592)">
       <use xlink:href="#DejaVuSans-48"/>
       <use x="63.623047" xlink:href="#DejaVuSans-46"/>
       <use x="95.410156" xlink:href="#DejaVuSans-56"/>
      </g>
     </g>
    </g>
    <g id="ytick_6">
     <g id="line2d_12">
      <g>
       <use style="stroke:#000000;stroke-width:0.8;" x="92.99" xlink:href="#m7ed50acd49" y="41.64"/>
      </g>
     </g>
     <g id="text_13">
      <!-- 1.0 -->
      <g transform="translate(44.7691 51.487575)scale(0.2592 -0.2592)">
       <use xlink:href="#DejaVuSans-49"/>
       <use x="63.623047" xlink:href="#DejaVuSans-46"/>
       <use x="95.410156" xlink:href="#DejaVuSans-48"/>
      </g>
     </g>
    </g>
    <g id="text_14">
     <!-- Fraction -->
     <defs>
      <path d="M 9.8125 72.90625 
L 51.703125 72.90625 
L 51.703125 64.59375 
L 19.671875 64.59375 
L 19.671875 43.109375 
L 48.578125 43.109375 
L 48.578125 34.8125 
L 19.671875 34.8125 
L 19.671875 0 
L 9.8125 0 
z
" id="DejaVuSans-70"/>
      <path d="M 9.421875 54.6875 
L 18.40625 54.6875 
L 18.40625 0 
L 9.421875 0 
z
M 9.421875 75.984375 
L 18.40625 75.984375 
L 18.40625 64.59375 
L 9.421875 64.59375 
z
" id="DejaVuSans-105"/>
      <path d="M 54.890625 33.015625 
L 54.890625 0 
L 45.90625 0 
L 45.90625 32.71875 
Q 45.90625 40.484375 42.875 44.328125 
Q 39.84375 48.1875 33.796875 48.1875 
Q 26.515625 48.1875 22.3125 43.546875 
Q 18.109375 38.921875 18.109375 30.90625 
L 18.109375 0 
L 9.078125 0 
L 9.078125 54.6875 
L 18.109375 54.6875 
L 18.109375 46.1875 
Q 21.34375 51.125 25.703125 53.5625 
Q 30.078125 56 35.796875 56 
Q 45.21875 56 50.046875 50.171875 
Q 54.890625 44.34375 54.890625 33.015625 
z
" id="DejaVuSans-110"/>
     </defs>
     <g transform="translate(35.37855 305.400125)rotate(-90)scale(0.2592 -0.2592)">
      <use xlink:href="#DejaVuSans-70"/>
      <use x="57.410156" xlink:href="#DejaVuSans-114"/>
      <use x="98.523438" xlink:href="#DejaVuSans-97"/>
      <use x="159.802734" xlink:href="#DejaVuSans-99"/>
      <use x="214.783203" xlink:href="#DejaVuSans-116"/>
      <use x="253.992188" xlink:href="#DejaVuSans-105"/>
      <use x="281.775391" xlink:href="#DejaVuSans-111"/>
      <use x="342.957031" xlink:href="#DejaVuSans-110"/>
     </g>
    </g>
   </g>
   <g id="line2d_13">
    <path clip-path="url(#p812a6c3d42)" d="M 119.475914 463.84 
L 120.006163 417.456544 
L 120.536411 396.047597 
L 121.06666 381.318242 
L 122.127157 360.594381 
L 123.187654 344.15231 
L 124.7784 325.374718 
L 126.369145 311.283738 
L 127.959891 298.547361 
L 129.550636 287.648261 
L 132.201879 271.782285 
L 134.853122 258.033849 
L 136.974116 248.162378 
L 139.09511 239.349677 
L 140.155607 235.410431 
L 141.746353 229.384785 
L 144.927844 218.298843 
L 147.579087 210.435921 
L 151.821075 198.960726 
L 155.002566 191.222365 
L 156.593312 187.48553 
L 160.305051 180.525676 
L 160.8353 179.653748 
L 161.365548 178.517128 
L 161.895797 177.723051 
L 164.016791 173.939506 
L 165.607537 171.09017 
L 166.137785 170.171531 
L 167.198282 168.707938 
L 167.728531 167.88272 
L 168.789028 165.920882 
L 170.379773 163.616501 
L 171.440271 161.981636 
L 172.500768 160.22221 
L 174.091513 158.04239 
L 174.621762 157.092611 
L 176.742756 154.383406 
L 179.393999 151.378368 
L 180.454496 149.977056 
L 184.166235 145.944389 
L 184.696484 145.088031 
L 186.287229 143.702288 
L 190.529218 139.436069 
L 191.589715 138.206027 
L 194.771206 135.450112 
L 195.831703 134.313492 
L 196.8922 133.425994 
L 197.422449 133.145731 
L 198.482946 132.289373 
L 199.543443 131.604287 
L 200.073691 131.246173 
L 201.134188 130.109553 
L 202.194686 129.471177 
L 203.255183 128.521398 
L 206.436674 126.045746 
L 208.557668 124.722284 
L 209.618165 124.192899 
L 214.390402 121.203431 
L 215.450899 120.642906 
L 218.102142 118.758919 
L 219.162639 118.276244 
L 220.223136 117.84028 
L 221.283633 117.373176 
L 221.813881 117.186334 
L 223.934875 115.894012 
L 224.995372 115.349057 
L 228.176864 113.698622 
L 230.297858 112.546432 
L 231.888603 111.612223 
L 232.418852 111.409811 
L 233.479349 110.724725 
L 234.539846 110.304331 
L 235.600343 109.697095 
L 238.781834 108.420344 
L 239.842331 107.844248 
L 240.902828 107.548416 
L 242.493574 106.832189 
L 243.554071 106.474076 
L 246.205314 105.399736 
L 248.856556 104.372107 
L 252.568296 102.783952 
L 255.749787 101.756322 
L 256.810284 101.367069 
L 259.461527 100.557421 
L 261.052273 99.887905 
L 263.173267 99.187249 
L 266.354758 98.299751 
L 268.475752 97.894927 
L 270.066498 97.412253 
L 271.657243 96.976289 
L 272.71774 96.680456 
L 281.201717 94.298224 
L 284.383208 93.644278 
L 287.034451 92.959192 
L 290.215942 91.760291 
L 291.806688 91.402177 
L 292.867185 91.293186 
L 298.16967 89.969724 
L 300.290664 89.51819 
L 301.88141 89.113366 
L 303.472155 88.879814 
L 308.774641 87.431791 
L 313.546878 86.419732 
L 316.19812 85.999338 
L 317.788866 85.734645 
L 324.682097 84.426753 
L 327.863588 83.772807 
L 329.454334 83.601536 
L 332.105576 83.118861 
L 333.166073 82.869739 
L 334.756819 82.760748 
L 337.93831 82.122372 
L 345.36179 80.923471 
L 347.482784 80.534217 
L 351.194523 79.880271 
L 356.497009 79.023914 
L 358.087754 78.868212 
L 361.799494 78.323257 
L 363.39024 78.089705 
L 385.13043 74.991246 
L 393.614406 74.228309 
L 394.674903 73.916907 
L 398.386643 73.465372 
L 398.916891 73.278531 
L 400.507637 73.122829 
L 403.15888 72.733576 
L 404.219377 72.624585 
L 408.461365 72.173051 
L 410.582359 71.908358 
L 412.173105 71.721516 
L 416.945342 71.254412 
L 421.18733 70.958579 
L 422.778076 70.725027 
L 427.550312 70.273493 
L 438.155283 69.230294 
L 446.109011 68.405076 
L 454.592988 67.79784 
L 459.365224 67.455297 
L 461.486218 67.393017 
L 464.66771 67.128324 
L 472.621438 66.567799 
L 474.212183 66.396528 
L 476.863426 66.225256 
L 478.98442 65.960564 
L 486.938148 65.400038 
L 489.059142 65.197626 
L 492.240633 64.917364 
L 524.585794 63.126797 
L 532.009273 62.830965 
L 533.600019 62.753114 
L 535.721013 62.581842 
L 537.311759 62.457281 
L 539.432753 62.34829 
L 541.553747 62.254869 
L 544.20499 62.145878 
L 546.325984 61.943467 
L 547.916729 61.865616 
L 550.037724 61.772195 
L 552.688966 61.663204 
L 559.051949 61.398512 
L 563.824185 61.149389 
L 564.884683 61.071539 
L 570.717416 60.822416 
L 572.308162 60.697855 
L 573.898908 60.604434 
L 577.080399 60.417593 
L 588.215618 59.981629 
L 590.336612 59.825927 
L 594.5786 59.670226 
L 596.699595 59.561235 
L 624.272518 58.658166 
L 626.393512 58.549175 
L 630.635501 58.471325 
L 633.286743 58.253343 
L 636.468235 58.191062 
L 638.05898 58.097641 
L 644.952211 57.786238 
L 646.542957 57.739528 
L 649.194199 57.692818 
L 649.194199 57.692818 
" style="fill:none;stroke:#0000ff;stroke-linecap:square;stroke-width:1.5;"/>
   </g>
   <g id="line2d_14">
    <path clip-path="url(#p812a6c3d42)" d="M 120.006163 43.75523 
L 122.657405 49.740449 
L 124.7784 55.106645 
L 126.899394 59.290166 
L 127.429642 60.086388 
L 130.611133 66.335804 
L 133.262376 69.403225 
L 133.792625 70.253366 
L 134.853122 71.389958 
L 135.38337 72.083597 
L 135.913619 73.095776 
L 137.504364 74.764623 
L 138.034613 74.977365 
L 138.564861 75.31256 
L 139.625359 76.885448 
L 141.746353 78.817737 
L 142.276601 79.030874 
L 145.988341 82.004202 
L 147.048838 82.418273 
L 148.639584 83.46257 
L 149.169832 83.84623 
L 150.230329 84.435748 
L 153.942069 86.698721 
L 156.063063 87.960618 
L 158.184057 89.080079 
L 159.244554 89.829356 
L 160.305051 90.112076 
L 162.426045 91.334354 
L 163.486543 91.896654 
L 166.137785 93.410908 
L 167.198282 93.836717 
L 168.258779 94.322998 
L 169.319276 95.037296 
L 170.379773 95.208393 
L 172.500768 95.987804 
L 173.031016 96.342467 
L 174.091513 96.758323 
L 177.803253 98.16795 
L 179.393999 98.589769 
L 184.166235 100.446492 
L 185.226732 100.869114 
L 187.877975 101.673754 
L 188.408224 101.6793 
L 192.119963 102.538378 
L 195.301455 103.743774 
L 198.482946 104.815728 
L 199.013194 104.882421 
L 202.724934 106.062843 
L 207.497171 107.161713 
L 209.618165 107.834171 
L 214.390402 108.912652 
L 215.981147 109.323737 
L 218.63239 109.889656 
L 222.34413 110.683479 
L 227.646615 111.68023 
L 228.707112 111.863301 
L 231.358355 112.335834 
L 232.418852 112.524031 
L 233.479349 112.783215 
L 236.130592 113.180258 
L 236.66084 113.205063 
L 238.251586 113.544666 
L 260.522024 116.819586 
L 262.11277 116.85758 
L 263.703515 117.027042 
L 267.415255 117.673435 
L 269.006001 117.950245 
L 271.126995 118.151458 
L 272.187492 118.360994 
L 273.247989 118.649725 
L 277.489977 119.22289 
L 278.020226 119.388803 
L 280.14122 119.64244 
L 283.85296 120.130996 
L 287.564699 120.648608 
L 291.806688 121.058655 
L 293.397433 121.352482 
L 297.109173 121.691025 
L 299.230167 121.800773 
L 309.835138 122.889756 
L 311.425883 122.995228 
L 312.486381 123.109791 
L 315.137623 123.350694 
L 316.19812 123.547473 
L 334.756819 125.474467 
L 335.817316 125.524637 
L 337.408062 125.754467 
L 349.073529 126.747726 
L 362.859991 127.494847 
L 365.511234 127.59851 
L 367.101979 127.756558 
L 370.283471 128.06975 
L 372.404465 128.111119 
L 373.99521 128.179397 
L 375.585956 128.344674 
L 377.176702 128.458174 
L 378.767447 128.553239 
L 381.41869 128.636263 
L 383.539684 128.799627 
L 386.721175 128.996809 
L 389.372418 129.158821 
L 392.023661 129.239411 
L 395.7354 129.422572 
L 400.507637 129.696536 
L 403.15888 129.774549 
L 405.810122 129.99076 
L 433.913295 131.536551 
L 436.564537 131.614899 
L 440.806526 131.76258 
L 442.397271 131.846966 
L 446.109011 132.106764 
L 448.760254 132.168306 
L 456.713982 132.576386 
L 461.486218 132.732833 
L 463.607213 132.879787 
L 466.258455 132.958065 
L 513.450575 135.067115 
L 525.116043 135.487738 
L 548.446978 136.319149 
L 554.279712 136.463297 
L 560.112446 136.590373 
L 566.475428 136.666296 
L 569.126671 136.744323 
L 574.959405 136.899751 
L 577.080399 137.003968 
L 579.201393 137.087335 
L 606.774317 138.002062 
L 617.379287 138.234793 
L 623.74227 138.490807 
L 638.05898 138.689727 
L 641.77072 138.847346 
L 644.952211 138.901124 
L 649.194199 139.018086 
L 649.194199 139.018086 
" style="fill:none;stroke:#ff0000;stroke-linecap:square;stroke-width:1.5;"/>
   </g>
   <g id="line2d_15">
    <path clip-path="url(#p812a6c3d42)" d="M 120.006163 417.688926 
L 120.536411 396.57288 
L 121.06666 382.196297 
L 122.127157 362.26408 
L 123.187654 346.846196 
L 124.7784 329.791257 
L 126.369145 317.324978 
L 127.959891 306.180822 
L 129.550636 297.093682 
L 132.201879 283.767644 
L 134.853122 272.535801 
L 136.974116 264.775073 
L 139.09511 257.667538 
L 139.625359 256.406331 
L 142.276601 248.417278 
L 143.867347 244.161826 
L 145.458092 240.06359 
L 147.048838 236.092575 
L 148.639584 232.914596 
L 150.230329 229.643645 
L 150.760578 228.238794 
L 153.41182 223.28431 
L 154.472317 221.649258 
L 156.593312 217.986886 
L 158.184057 215.78752 
L 159.774803 213.837479 
L 160.305051 213.05252 
L 160.8353 212.496904 
L 161.365548 211.704125 
L 161.895797 211.236701 
L 162.956294 209.961409 
L 166.668034 205.713944 
L 167.728531 204.62168 
L 168.258779 203.858979 
L 170.379773 201.708615 
L 171.440271 200.550842 
L 171.970519 199.795636 
L 172.500768 199.305488 
L 173.031016 198.977768 
L 174.091513 197.96435 
L 175.15201 196.777308 
L 176.212507 195.935502 
L 182.57549 191.182429 
L 184.166235 190.222754 
L 184.696484 189.671254 
L 186.287229 188.910942 
L 186.817478 188.587265 
L 187.347727 188.400768 
L 191.059466 185.365659 
L 192.650212 184.559818 
L 194.771206 183.602447 
L 195.831703 182.932157 
L 196.8922 182.459703 
L 197.952697 182.109056 
L 200.60394 181.05664 
L 201.134188 180.669167 
L 201.664437 180.589833 
L 202.194686 180.392699 
L 203.255183 179.778109 
L 205.906425 178.438648 
L 207.497171 177.850204 
L 209.087916 177.533303 
L 210.148414 177.2428 
L 210.678662 177.018002 
L 211.208911 176.940824 
L 213.860153 175.847376 
L 214.92065 175.720773 
L 216.511396 175.136845 
L 217.571893 174.670318 
L 218.63239 174.307157 
L 220.223136 174.035403 
L 220.753384 173.85659 
L 221.813881 173.802525 
L 223.934875 173.013063 
L 224.995372 172.754604 
L 226.05587 172.378774 
L 227.646615 171.953629 
L 228.176864 171.908393 
L 229.767609 171.391605 
L 230.297858 171.263939 
L 231.888603 170.658133 
L 232.9491 170.426009 
L 233.479349 170.226753 
L 234.539846 170.022757 
L 235.600343 169.60489 
L 237.721337 169.280161 
L 239.842331 168.663686 
L 240.902828 168.515614 
L 246.205314 167.444407 
L 247.265811 167.391534 
L 247.796059 167.191361 
L 248.856556 167.011242 
L 249.917054 166.697959 
L 250.447302 166.657563 
L 251.507799 166.350266 
L 253.098545 166.041522 
L 255.219539 165.885 
L 256.280036 165.53501 
L 260.522024 164.87467 
L 262.11277 164.382758 
L 263.703515 164.170889 
L 265.294261 164.161443 
L 265.82451 164.017967 
L 267.415255 163.988979 
L 268.475752 163.95133 
L 269.536249 163.913524 
L 270.596746 163.632227 
L 272.187492 163.552543 
L 273.247989 163.523442 
L 273.778238 163.41102 
L 274.838735 163.357405 
L 276.42948 163.054626 
L 277.489977 163.005378 
L 278.550474 162.967364 
L 279.080723 162.976015 
L 280.14122 162.77503 
L 285.443705 162.396729 
L 288.625196 161.945869 
L 290.746191 161.547314 
L 294.45793 161.440291 
L 294.988179 161.266282 
L 297.639422 161.00211 
L 298.699919 160.838952 
L 301.88141 160.491669 
L 303.472155 160.490949 
L 307.183895 160.000278 
L 308.244392 159.791339 
L 309.304889 159.739142 
L 310.365386 159.505514 
L 318.849363 159.159995 
L 319.90986 159.05645 
L 322.030854 159.074142 
L 326.803091 158.71994 
L 348.543281 157.637668 
L 354.906263 157.023408 
L 358.087754 156.92266 
L 360.738997 156.692605 
L 362.329743 156.671844 
L 363.39024 156.542136 
L 364.980985 156.431745 
L 365.511234 156.317174 
L 366.571731 156.321065 
L 367.101979 156.25102 
L 368.162477 156.255323 
L 369.753222 156.208956 
L 370.813719 156.188115 
L 372.404465 156.043128 
L 373.464962 156.022226 
L 374.525459 155.847692 
L 376.116205 155.879982 
L 377.176702 155.80473 
L 380.888441 155.573093 
L 383.009435 155.437009 
L 384.069933 155.406009 
L 385.660678 155.300454 
L 387.781672 155.263011 
L 389.372418 155.251018 
L 391.493412 155.209609 
L 397.856394 154.755915 
L 398.386643 154.774929 
L 398.916891 154.635231 
L 401.037886 154.543268 
L 402.628631 154.432281 
L 403.15888 154.377319 
L 403.689128 154.435796 
L 404.749625 154.345353 
L 406.340371 154.396938 
L 407.400868 154.316189 
L 408.461365 154.318398 
L 410.582359 154.152858 
L 419.596584 153.922036 
L 422.247827 153.897173 
L 423.838573 153.795431 
L 431.792301 153.731474 
L 432.852798 153.666017 
L 434.443543 153.56925 
L 435.50404 153.464408 
L 437.625034 153.426261 
L 439.746029 153.264756 
L 448.760254 153.059855 
L 450.350999 153.046696 
L 451.941745 153.014292 
L 459.895473 152.960094 
L 462.016467 152.937084 
L 463.076964 152.86619 
L 464.66771 152.90679 
L 467.318952 152.794636 
L 468.379449 152.758673 
L 471.560941 152.795053 
L 479.514669 152.556704 
L 480.575166 152.587332 
L 484.286905 152.530919 
L 485.877651 152.478889 
L 497.01287 152.343162 
L 500.72461 152.379147 
L 506.557344 152.244158 
L 508.678338 152.264655 
L 511.329581 152.193702 
L 516.632066 152.145616 
L 519.283309 152.110778 
L 527.767285 152.156649 
L 544.735238 152.059536 
L 546.325984 152.006852 
L 547.386481 152.028093 
L 557.991452 151.912238 
L 561.172943 151.86096 
L 562.23344 151.819033 
L 569.656919 151.636482 
L 573.898908 151.58684 
L 575.489653 151.563524 
L 578.140896 151.575944 
L 579.731641 151.578251 
L 589.276115 151.645102 
L 590.336612 151.584403 
L 618.970033 151.602582 
L 623.212021 151.634583 
L 632.756495 151.430437 
L 634.34724 151.413907 
L 635.937986 151.439832 
L 643.891714 151.329613 
L 649.194199 151.36841 
L 649.194199 151.36841 
" style="fill:none;stroke:#008000;stroke-linecap:square;stroke-width:1.5;"/>
   </g>
   <g id="line2d_16">
    <path clip-path="url(#p812a6c3d42)" d="M 645.48246 463.84 
L 645.48246 41.64 
" style="fill:none;stroke:#1f77b4;stroke-linecap:square;stroke-width:1.5;"/>
   </g>
   <g id="patch_3">
    <path d="M 92.99 463.84 
L 92.99 41.64 
" style="fill:none;stroke:#000000;stroke-linecap:square;stroke-linejoin:miter;stroke-width:0.8;"/>
   </g>
   <g id="patch_4">
    <path d="M 675.680114 463.84 
L 675.680114 41.64 
" style="fill:none;stroke:#000000;stroke-linecap:square;stroke-linejoin:miter;stroke-width:0.8;"/>
   </g>
   <g id="patch_5">
    <path d="M 92.99 463.84 
L 675.680114 463.84 
" style="fill:none;stroke:#000000;stroke-linecap:square;stroke-linejoin:miter;stroke-width:0.8;"/>
   </g>
   <g id="patch_6">
    <path d="M 92.99 41.64 
L 675.680114 41.64 
" style="fill:none;stroke:#000000;stroke-linecap:square;stroke-linejoin:miter;stroke-width:0.8;"/>
   </g>
   <g id="text_15">
    <!-- Purity/Efficiency vs PcaVarW Cutoff — track -->
    <defs>
     <path d="M 32.171875 -5.078125 
Q 28.375 -14.84375 24.75 -17.8125 
Q 21.140625 -20.796875 15.09375 -20.796875 
L 7.90625 -20.796875 
L 7.90625 -13.28125 
L 13.1875 -13.28125 
Q 16.890625 -13.28125 18.9375 -11.515625 
Q 21 -9.765625 23.484375 -3.21875 
L 25.09375 0.875 
L 2.984375 54.6875 
L 12.5 54.6875 
L 29.59375 11.921875 
L 46.6875 54.6875 
L 56.203125 54.6875 
z
" id="DejaVuSans-121"/>
     <path d="M 25.390625 72.90625 
L 33.6875 72.90625 
L 8.296875 -9.28125 
L 0 -9.28125 
z
" id="DejaVuSans-47"/>
     <path d="M 9.8125 72.90625 
L 55.90625 72.90625 
L 55.90625 64.59375 
L 19.671875 64.59375 
L 19.671875 43.015625 
L 54.390625 43.015625 
L 54.390625 34.71875 
L 19.671875 34.71875 
L 19.671875 8.296875 
L 56.78125 8.296875 
L 56.78125 0 
L 9.8125 0 
z
" id="DejaVuSans-69"/>
     <path d="M 56.203125 29.59375 
L 56.203125 25.203125 
L 14.890625 25.203125 
Q 15.484375 15.921875 20.484375 11.0625 
Q 25.484375 6.203125 34.421875 6.203125 
Q 39.59375 6.203125 44.453125 7.46875 
Q 49.3125 8.734375 54.109375 11.28125 
L 54.109375 2.78125 
Q 49.265625 0.734375 44.1875 -0.34375 
Q 39.109375 -1.421875 33.890625 -1.421875 
Q 20.796875 -1.421875 13.15625 6.1875 
Q 5.515625 13.8125 5.515625 26.8125 
Q 5.515625 40.234375 12.765625 48.109375 
Q 20.015625 56 32.328125 56 
Q 43.359375 56 49.78125 48.890625 
Q 56.203125 41.796875 56.203125 29.59375 
z
M 47.21875 32.234375 
Q 47.125 39.59375 43.09375 43.984375 
Q 39.0625 48.390625 32.421875 48.390625 
Q 24.90625 48.390625 20.390625 44.140625 
Q 15.875 39.890625 15.1875 32.171875 
z
" id="DejaVuSans-101"/>
     <path d="M 2.984375 54.6875 
L 12.5 54.6875 
L 29.59375 8.796875 
L 46.6875 54.6875 
L 56.203125 54.6875 
L 35.6875 0 
L 23.484375 0 
z
" id="DejaVuSans-118"/>
     <path d="M 44.28125 53.078125 
L 44.28125 44.578125 
Q 40.484375 46.53125 36.375 47.5 
Q 32.28125 48.484375 27.875 48.484375 
Q 21.1875 48.484375 17.84375 46.4375 
Q 14.5 44.390625 14.5 40.28125 
Q 14.5 37.15625 16.890625 35.375 
Q 19.28125 33.59375 26.515625 31.984375 
L 29.59375 31.296875 
Q 39.15625 29.25 43.1875 25.515625 
Q 47.21875 21.78125 47.21875 15.09375 
Q 47.21875 7.46875 41.1875 3.015625 
Q 35.15625 -1.421875 24.609375 -1.421875 
Q 20.21875 -1.421875 15.453125 -0.5625 
Q 10.6875 0.296875 5.421875 2 
L 5.421875 11.28125 
Q 10.40625 8.6875 15.234375 7.390625 
Q 20.0625 6.109375 24.8125 6.109375 
Q 31.15625 6.109375 34.5625 8.28125 
Q 37.984375 10.453125 37.984375 14.40625 
Q 37.984375 18.0625 35.515625 20.015625 
Q 33.0625 21.96875 24.703125 23.78125 
L 21.578125 24.515625 
Q 13.234375 26.265625 9.515625 29.90625 
Q 5.8125 33.546875 5.8125 39.890625 
Q 5.8125 47.609375 11.28125 51.796875 
Q 16.75 56 26.8125 56 
Q 31.78125 56 36.171875 55.265625 
Q 40.578125 54.546875 44.28125 53.078125 
z
" id="DejaVuSans-115"/>
     <path d="M 4.890625 30.90625 
L 95.125 30.90625 
L 95.125 23.875 
L 4.890625 23.875 
z
" id="DejaVuSans-8212"/>
     <path d="M 9.078125 75.984375 
L 18.109375 75.984375 
L 18.109375 31.109375 
L 44.921875 54.6875 
L 56.390625 54.6875 
L 27.390625 29.109375 
L 57.625 0 
L 45.90625 0 
L 18.109375 26.703125 
L 18.109375 0 
L 9.078125 0 
z
" id="DejaVuSans-107"/>
    </defs>
    <g transform="translate(101.464832 35.64)scale(0.2592 -0.2592)">
     <use xlink:href="#DejaVuSans-80"/>
     <use x="60.287109" xlink:href="#DejaVuSans-117"/>
     <use x="123.666016" xlink:href="#DejaVuSans-114"/>
     <use x="164.779297" xlink:href="#DejaVuSans-105"/>
     <use x="192.5625" xlink:href="#DejaVuSans-116"/>
     <use x="231.771484" xlink:href="#DejaVuSans-121"/>
     <use x="290.951172" xlink:href="#DejaVuSans-47"/>
     <use x="324.642578" xlink:href="#DejaVuSans-69"/>
     <use x="387.826172" xlink:href="#DejaVuSans-102"/>
     <use x="423.03125" xlink:href="#DejaVuSans-102"/>
     <use x="458.236328" xlink:href="#DejaVuSans-105"/>
     <use x="486.019531" xlink:href="#DejaVuSans-99"/>
     <use x="541" xlink:href="#DejaVuSans-105"/>
     <use x="568.783203" xlink:href="#DejaVuSans-101"/>
     <use x="630.306641" xlink:href="#DejaVuSans-110"/>
     <use x="693.685547" xlink:href="#DejaVuSans-99"/>
     <use x="748.666016" xlink:href="#DejaVuSans-121"/>
     <use x="807.845703" xlink:href="#DejaVuSans-32"/>
     <use x="839.632812" xlink:href="#DejaVuSans-118"/>
     <use x="898.8125" xlink:href="#DejaVuSans-115"/>
     <use x="950.912109" xlink:href="#DejaVuSans-32"/>
     <use x="982.699219" xlink:href="#DejaVuSans-80"/>
     <use x="1043.001953" xlink:href="#DejaVuSans-99"/>
     <use x="1097.982422" xlink:href="#DejaVuSans-97"/>
     <use x="1159.261719" xlink:href="#DejaVuSans-86"/>
     <use x="1227.560547" xlink:href="#DejaVuSans-97"/>
     <use x="1288.839844" xlink:href="#DejaVuSans-114"/>
     <use x="1329.953125" xlink:href="#DejaVuSans-87"/>
     <use x="1428.830078" xlink:href="#DejaVuSans-32"/>
     <use x="1460.617188" xlink:href="#DejaVuSans-67"/>
     <use x="1530.441406" xlink:href="#DejaVuSans-117"/>
     <use x="1593.820312" xlink:href="#DejaVuSans-116"/>
     <use x="1633.029297" xlink:href="#DejaVuSans-111"/>
     <use x="1694.210938" xlink:href="#DejaVuSans-102"/>
     <use x="1729.416016" xlink:href="#DejaVuSans-102"/>
     <use x="1764.621094" xlink:href="#DejaVuSans-32"/>
     <use x="1796.408203" xlink:href="#DejaVuSans-8212"/>
     <use x="1896.408203" xlink:href="#DejaVuSans-32"/>
     <use x="1928.195312" xlink:href="#DejaVuSans-116"/>
     <use x="1967.404297" xlink:href="#DejaVuSans-114"/>
     <use x="2008.517578" xlink:href="#DejaVuSans-97"/>
     <use x="2069.796875" xlink:href="#DejaVuSans-99"/>
     <use x="2124.777344" xlink:href="#DejaVuSans-107"/>
    </g>
   </g>
   <g id="legend_1">
    <g id="patch_7">
     <path d="M 275.640369 454.84 
L 493.029744 454.84 
Q 496.629744 454.84 496.629744 451.24 
L 496.629744 373.778125 
Q 496.629744 370.178125 493.029744 370.178125 
L 275.640369 370.178125 
Q 272.040369 370.178125 272.040369 373.778125 
L 272.040369 451.24 
Q 272.040369 454.84 275.640369 454.84 
z
" style="fill:#ffffff;opacity:0.8;stroke:#cccccc;stroke-linejoin:miter;"/>
    </g>
    <g id="line2d_17">
     <path d="M 279.240369 384.755313 
L 315.240369 384.755313 
" style="fill:none;stroke:#0000ff;stroke-linecap:square;stroke-width:1.5;"/>
    </g>
    <g id="line2d_18"/>
    <g id="text_16">
     <!-- Efficiency -->
     <g transform="translate(329.640369 391.055313)scale(0.18 -0.18)">
      <use xlink:href="#DejaVuSans-69"/>
      <use x="63.183594" xlink:href="#DejaVuSans-102"/>
      <use x="98.388672" xlink:href="#DejaVuSans-102"/>
      <use x="133.59375" xlink:href="#DejaVuSans-105"/>
      <use x="161.376953" xlink:href="#DejaVuSans-99"/>
      <use x="216.357422" xlink:href="#DejaVuSans-105"/>
      <use x="244.140625" xlink:href="#DejaVuSans-101"/>
      <use x="305.664062" xlink:href="#DejaVuSans-110"/>
      <use x="369.042969" xlink:href="#DejaVuSans-99"/>
      <use x="424.023438" xlink:href="#DejaVuSans-121"/>
     </g>
    </g>
    <g id="line2d_19">
     <path d="M 279.240369 411.175937 
L 315.240369 411.175937 
" style="fill:none;stroke:#ff0000;stroke-linecap:square;stroke-width:1.5;"/>
    </g>
    <g id="line2d_20"/>
    <g id="text_17">
     <!-- Purity -->
     <g transform="translate(329.640369 417.475937)scale(0.18 -0.18)">
      <use xlink:href="#DejaVuSans-80"/>
      <use x="60.287109" xlink:href="#DejaVuSans-117"/>
      <use x="123.666016" xlink:href="#DejaVuSans-114"/>
      <use x="164.779297" xlink:href="#DejaVuSans-105"/>
      <use x="192.5625" xlink:href="#DejaVuSans-116"/>
      <use x="231.771484" xlink:href="#DejaVuSans-121"/>
     </g>
    </g>
    <g id="line2d_21">
     <path d="M 279.240369 437.596562 
L 315.240369 437.596562 
" style="fill:none;stroke:#008000;stroke-linecap:square;stroke-width:1.5;"/>
    </g>
    <g id="line2d_22"/>
    <g id="text_18">
     <!-- Purity * Efficiency -->
     <defs>
      <path d="M 47.015625 60.890625 
L 29.5 51.421875 
L 47.015625 41.890625 
L 44.1875 37.109375 
L 27.78125 47.015625 
L 27.78125 28.609375 
L 22.21875 28.609375 
L 22.21875 47.015625 
L 5.8125 37.109375 
L 2.984375 41.890625 
L 20.515625 51.421875 
L 2.984375 60.890625 
L 5.8125 65.71875 
L 22.21875 55.8125 
L 22.21875 74.21875 
L 27.78125 74.21875 
L 27.78125 55.8125 
L 44.1875 65.71875 
z
" id="DejaVuSans-42"/>
     </defs>
     <g transform="translate(329.640369 443.896562)scale(0.18 -0.18)">
      <use xlink:href="#DejaVuSans-80"/>
      <use x="60.287109" xlink:href="#DejaVuSans-117"/>
      <use x="123.666016" xlink:href="#DejaVuSans-114"/>
      <use x="164.779297" xlink:href="#DejaVuSans-105"/>
      <use x="192.5625" xlink:href="#DejaVuSans-116"/>
      <use x="231.771484" xlink:href="#DejaVuSans-121"/>
      <use x="290.951172" xlink:href="#DejaVuSans-32"/>
      <use x="322.738281" xlink:href="#DejaVuSans-42"/>
      <use x="372.738281" xlink:href="#DejaVuSans-32"/>
      <use x="404.525391" xlink:href="#DejaVuSans-69"/>
      <use x="467.708984" xlink:href="#DejaVuSans-102"/>
      <use x="502.914062" xlink:href="#DejaVuSans-102"/>
      <use x="538.119141" xlink:href="#DejaVuSans-105"/>
      <use x="565.902344" xlink:href="#DejaVuSans-99"/>
      <use x="620.882812" xlink:href="#DejaVuSans-105"/>
      <use x="648.666016" xlink:href="#DejaVuSans-101"/>
      <use x="710.189453" xlink:href="#DejaVuSans-110"/>
      <use x="773.568359" xlink:href="#DejaVuSans-99"/>
      <use x="828.548828" xlink:href="#DejaVuSans-121"/>
     </g>
    </g>
   </g>
  </g>
  <g id="axes_2">
   <g id="patch_8">
    <path d="M 797.9825 463.84 
L 1380.672614 463.84 
L 1380.672614 41.64 
L 797.9825 41.64 
z
" style="fill:#ffffff;"/>
   </g>
   <g id="matplotlib.axis_3">
    <g id="xtick_7">
     <g id="line2d_23">
      <g>
       <use style="stroke:#000000;stroke-width:0.8;" x="824.468414" xlink:href="#m61a164f1c4" y="463.84"/>
      </g>
     </g>
     <g id="text_19">
      <!-- 0 -->
      <g transform="translate(816.222614 490.53515)scale(0.2592 -0.2592)">
       <use xlink:href="#DejaVuSans-48"/>
      </g>
     </g>
    </g>
    <g id="xtick_8">
     <g id="line2d_24">
      <g>
       <use style="stroke:#000000;stroke-width:0.8;" x="930.412071" xlink:href="#m61a164f1c4" y="463.84"/>
      </g>
     </g>
     <g id="text_20">
      <!-- 2 -->
      <g transform="translate(922.166271 490.53515)scale(0.2592 -0.2592)">
       <use xlink:href="#DejaVuSans-50"/>
      </g>
     </g>
    </g>
    <g id="xtick_9">
     <g id="line2d_25">
      <g>
       <use style="stroke:#000000;stroke-width:0.8;" x="1036.355728" xlink:href="#m61a164f1c4" y="463.84"/>
      </g>
     </g>
     <g id="text_21">
      <!-- 4 -->
      <g transform="translate(1028.109928 490.53515)scale(0.2592 -0.2592)">
       <use xlink:href="#DejaVuSans-52"/>
      </g>
     </g>
    </g>
    <g id="xtick_10">
     <g id="line2d_26">
      <g>
       <use style="stroke:#000000;stroke-width:0.8;" x="1142.299385" xlink:href="#m61a164f1c4" y="463.84"/>
      </g>
     </g>
     <g id="text_22">
      <!-- 6 -->
      <g transform="translate(1134.053585 490.53515)scale(0.2592 -0.2592)">
       <use xlink:href="#DejaVuSans-54"/>
      </g>
     </g>
    </g>
    <g id="xtick_11">
     <g id="line2d_27">
      <g>
       <use style="stroke:#000000;stroke-width:0.8;" x="1248.243042" xlink:href="#m61a164f1c4" y="463.84"/>
      </g>
     </g>
     <g id="text_23">
      <!-- 8 -->
      <g transform="translate(1239.997242 490.53515)scale(0.2592 -0.2592)">
       <use xlink:href="#DejaVuSans-56"/>
      </g>
     </g>
    </g>
    <g id="xtick_12">
     <g id="line2d_28">
      <g>
       <use style="stroke:#000000;stroke-width:0.8;" x="1354.186699" xlink:href="#m61a164f1c4" y="463.84"/>
      </g>
     </g>
     <g id="text_24">
      <!-- 10 -->
      <g transform="translate(1337.695099 490.53515)scale(0.2592 -0.2592)">
       <use xlink:href="#DejaVuSans-49"/>
       <use x="63.623047" xlink:href="#DejaVuSans-48"/>
      </g>
     </g>
    </g>
    <g id="text_25">
     <!-- PcaVarW Cutoff -->
     <g transform="translate(987.992507 519.62085)scale(0.2592 -0.2592)">
      <use xlink:href="#DejaVuSans-80"/>
      <use x="60.302734" xlink:href="#DejaVuSans-99"/>
      <use x="115.283203" xlink:href="#DejaVuSans-97"/>
      <use x="176.5625" xlink:href="#DejaVuSans-86"/>
      <use x="244.861328" xlink:href="#DejaVuSans-97"/>
      <use x="306.140625" xlink:href="#DejaVuSans-114"/>
      <use x="347.253906" xlink:href="#DejaVuSans-87"/>
      <use x="446.130859" xlink:href="#DejaVuSans-32"/>
      <use x="477.917969" xlink:href="#DejaVuSans-67"/>
      <use x="547.742188" xlink:href="#DejaVuSans-117"/>
      <use x="611.121094" xlink:href="#DejaVuSans-116"/>
      <use x="650.330078" xlink:href="#DejaVuSans-111"/>
      <use x="711.511719" xlink:href="#DejaVuSans-102"/>
      <use x="746.716797" xlink:href="#DejaVuSans-102"/>
     </g>
    </g>
   </g>
   <g id="matplotlib.axis_4">
    <g id="ytick_7">
     <g id="line2d_29">
      <g>
       <use style="stroke:#000000;stroke-width:0.8;" x="797.9825" xlink:href="#m7ed50acd49" y="463.84"/>
      </g>
     </g>
     <g id="text_26">
      <!-- 0.0 -->
      <g transform="translate(749.7616 473.687575)scale(0.2592 -0.2592)">
       <use xlink:href="#DejaVuSans-48"/>
       <use x="63.623047" xlink:href="#DejaVuSans-46"/>
       <use x="95.410156" xlink:href="#DejaVuSans-48"/>
      </g>
     </g>
    </g>
    <g id="ytick_8">
     <g id="line2d_30">
      <g>
       <use style="stroke:#000000;stroke-width:0.8;" x="797.9825" xlink:href="#m7ed50acd49" y="379.4"/>
      </g>
     </g>
     <g id="text_27">
      <!-- 0.2 -->
      <g transform="translate(749.7616 389.247575)scale(0.2592 -0.2592)">
       <use xlink:href="#DejaVuSans-48"/>
       <use x="63.623047" xlink:href="#DejaVuSans-46"/>
       <use x="95.410156" xlink:href="#DejaVuSans-50"/>
      </g>
     </g>
    </g>
    <g id="ytick_9">
     <g id="line2d_31">
      <g>
       <use style="stroke:#000000;stroke-width:0.8;" x="797.9825" xlink:href="#m7ed50acd49" y="294.96"/>
      </g>
     </g>
     <g id="text_28">
      <!-- 0.4 -->
      <g transform="translate(749.7616 304.807575)scale(0.2592 -0.2592)">
       <use xlink:href="#DejaVuSans-48"/>
       <use x="63.623047" xlink:href="#DejaVuSans-46"/>
       <use x="95.410156" xlink:href="#DejaVuSans-52"/>
      </g>
     </g>
    </g>
    <g id="ytick_10">
     <g id="line2d_32">
      <g>
       <use style="stroke:#000000;stroke-width:0.8;" x="797.9825" xlink:href="#m7ed50acd49" y="210.52"/>
      </g>
     </g>
     <g id="text_29">
      <!-- 0.6 -->
      <g transform="translate(749.7616 220.367575)scale(0.2592 -0.2592)">
       <use xlink:href="#DejaVuSans-48"/>
       <use x="63.623047" xlink:href="#DejaVuSans-46"/>
       <use x="95.410156" xlink:href="#DejaVuSans-54"/>
      </g>
     </g>
    </g>
    <g id="ytick_11">
     <g id="line2d_33">
      <g>
       <use style="stroke:#000000;stroke-width:0.8;" x="797.9825" xlink:href="#m7ed50acd49" y="126.08"/>
      </g>
     </g>
     <g id="text_30">
      <!-- 0.8 -->
      <g transform="translate(749.7616 135.927575)scale(0.2592 -0.2592)">
       <use xlink:href="#DejaVuSans-48"/>
       <use x="63.623047" xlink:href="#DejaVuSans-46"/>
       <use x="95.410156" xlink:href="#DejaVuSans-56"/>
      </g>
     </g>
    </g>
    <g id="ytick_12">
     <g id="line2d_34">
      <g>
       <use style="stroke:#000000;stroke-width:0.8;" x="797.9825" xlink:href="#m7ed50acd49" y="41.64"/>
      </g>
     </g>
     <g id="text_31">
      <!-- 1.0 -->
      <g transform="translate(749.7616 51.487575)scale(0.2592 -0.2592)">
       <use xlink:href="#DejaVuSans-49"/>
       <use x="63.623047" xlink:href="#DejaVuSans-46"/>
       <use x="95.410156" xlink:href="#DejaVuSans-48"/>
      </g>
     </g>
    </g>
    <g id="text_32">
     <!-- Fraction -->
     <g transform="translate(740.37105 305.400125)rotate(-90)scale(0.2592 -0.2592)">
      <use xlink:href="#DejaVuSans-70"/>
      <use x="57.410156" xlink:href="#DejaVuSans-114"/>
      <use x="98.523438" xlink:href="#DejaVuSans-97"/>
      <use x="159.802734" xlink:href="#DejaVuSans-99"/>
      <use x="214.783203" xlink:href="#DejaVuSans-116"/>
      <use x="253.992188" xlink:href="#DejaVuSans-105"/>
      <use x="281.775391" xlink:href="#DejaVuSans-111"/>
      <use x="342.957031" xlink:href="#DejaVuSans-110"/>
     </g>
    </g>
   </g>
   <g id="line2d_35">
    <path clip-path="url(#pcf6f3cfb0b)" d="M 824.468414 41.64 
L 825.528911 43.161603 
L 826.589408 45.130736 
L 828.180154 49.561285 
L 829.240651 53.231032 
L 830.831397 57.974853 
L 831.891894 61.331329 
L 832.422142 62.808179 
L 835.073385 72.072054 
L 835.603633 74.264952 
L 838.254876 81.604448 
L 838.785125 83.528828 
L 839.845622 86.482527 
L 840.37587 88.183142 
L 840.906119 90.420793 
L 842.496864 94.985601 
L 843.557361 96.999487 
L 844.617859 100.893 
L 846.738853 106.710893 
L 847.269101 107.650706 
L 850.980841 117.272605 
L 852.041338 119.107479 
L 853.101835 121.300377 
L 854.162332 123.940806 
L 854.692581 124.880619 
L 856.283326 128.729379 
L 856.813575 129.534933 
L 857.874072 131.86209 
L 858.934569 134.413013 
L 861.585812 140.186152 
L 862.11606 141.03646 
L 864.237054 145.869786 
L 865.297551 147.25713 
L 871.130285 159.608963 
L 871.660534 160.325012 
L 873.251279 163.368217 
L 874.311776 165.963892 
L 874.842025 166.411423 
L 875.372273 167.037965 
L 876.963019 169.588887 
L 877.493268 170.573453 
L 878.023516 171.826538 
L 878.553765 172.587339 
L 879.614262 174.601225 
L 880.14451 175.272521 
L 880.674759 176.391346 
L 883.326001 180.240106 
L 884.916747 182.567263 
L 885.446996 183.596583 
L 887.037741 185.92374 
L 889.158735 189.503981 
L 889.688984 190.622807 
L 891.279729 192.949964 
L 892.340227 194.471567 
L 894.461221 196.216934 
L 896.051966 198.051808 
L 896.582215 198.946869 
L 897.112463 199.618164 
L 897.642712 200.513225 
L 898.17296 201.18452 
L 898.703209 202.213839 
L 899.233458 202.795629 
L 900.293955 204.720008 
L 901.8847 207.136672 
L 902.414949 207.718461 
L 903.475446 209.32957 
L 904.005694 209.687594 
L 907.717434 214.96845 
L 911.959422 219.488505 
L 913.019919 221.144367 
L 914.080416 222.352699 
L 914.610665 223.158253 
L 915.671162 224.321832 
L 916.201411 224.993127 
L 917.261908 225.93294 
L 917.792156 226.51473 
L 918.322405 226.872754 
L 918.852653 227.454543 
L 919.91315 228.976146 
L 924.155139 233.585707 
L 926.276133 235.465334 
L 927.33663 236.628912 
L 929.457624 238.463786 
L 929.987872 239.179835 
L 930.518121 239.358847 
L 933.169364 242.312546 
L 933.699612 242.581064 
L 935.290358 244.281679 
L 935.820606 244.59495 
L 937.411352 246.027047 
L 937.9416 246.832601 
L 939.532346 248.175192 
L 940.062595 248.622722 
L 940.592843 248.89124 
L 941.123092 249.428276 
L 941.65334 249.652042 
L 942.713837 250.81562 
L 945.36508 252.695247 
L 945.895328 253.053271 
L 946.425577 253.590307 
L 946.955826 253.814073 
L 949.607068 256.275489 
L 950.137317 256.499254 
L 951.197814 257.304808 
L 951.728062 257.93135 
L 952.258311 258.289375 
L 953.849056 259.676718 
L 954.379305 259.945236 
L 956.500299 261.601098 
L 957.030548 262.003875 
L 957.560796 262.22764 
L 958.621293 263.077948 
L 959.151542 263.435972 
L 960.212039 264.420538 
L 961.802784 265.449858 
L 963.923779 267.195226 
L 965.514524 268.135039 
L 966.044773 268.224545 
L 966.575021 268.537816 
L 967.635518 268.895841 
L 968.165767 269.388124 
L 968.696015 269.567136 
L 969.226264 270.014666 
L 970.286761 271.133492 
L 970.81701 271.357257 
L 971.347258 271.983799 
L 971.877507 272.162811 
L 973.468252 273.32639 
L 974.528749 274.131944 
L 975.589246 274.66898 
L 976.649743 275.25077 
L 977.179992 275.877312 
L 977.71024 276.682866 
L 979.300986 278.07021 
L 980.361483 278.51774 
L 981.42198 279.368047 
L 984.073223 281.560946 
L 986.194217 282.903536 
L 987.784963 283.977609 
L 988.84546 284.559398 
L 989.905957 285.275446 
L 990.436205 285.499211 
L 994.147945 288.184393 
L 995.208442 288.721429 
L 996.268939 289.526983 
L 996.799188 289.661242 
L 997.859685 290.645809 
L 999.45043 291.540869 
L 1001.041176 292.256918 
L 1002.101673 292.88346 
L 1003.16217 293.151978 
L 1004.222667 293.644261 
L 1006.343661 294.80784 
L 1007.934407 295.613394 
L 1010.055401 297.269256 
L 1011.646147 298.119563 
L 1012.176395 298.388081 
L 1013.236892 298.6566 
L 1014.297389 299.417401 
L 1014.827638 299.685919 
L 1015.357886 299.775425 
L 1016.948632 300.759992 
L 1018.009129 301.073263 
L 1019.599875 301.789311 
L 1020.130123 302.102582 
L 1020.660372 302.684371 
L 1022.251117 303.713691 
L 1024.372111 304.698257 
L 1032.856088 309.665843 
L 1033.916585 310.158126 
L 1034.446834 310.560903 
L 1036.037579 311.142692 
L 1038.688822 312.530036 
L 1039.21907 312.932813 
L 1040.279567 313.067072 
L 1040.809816 313.380343 
L 1041.340065 313.91738 
L 1042.93081 314.81244 
L 1043.991307 315.349476 
L 1045.582053 315.976019 
L 1046.112301 316.110278 
L 1047.172798 316.602561 
L 1047.703047 316.781573 
L 1048.233295 317.094844 
L 1048.763544 317.676633 
L 1049.824041 318.21367 
L 1050.35429 318.392682 
L 1050.884538 318.795459 
L 1051.414787 319.019224 
L 1052.475284 319.242989 
L 1053.005532 319.422001 
L 1053.535781 319.869531 
L 1054.596278 320.227556 
L 1057.247521 321.077863 
L 1057.777769 321.122616 
L 1060.95926 322.50996 
L 1061.489509 322.50996 
L 1062.550006 322.867984 
L 1067.852491 324.613352 
L 1068.38274 324.702858 
L 1069.973485 325.284647 
L 1070.503734 325.374153 
L 1071.033982 325.77693 
L 1074.745722 327.388039 
L 1075.275971 327.790816 
L 1076.866716 328.014581 
L 1079.517959 328.864889 
L 1080.048207 329.312419 
L 1080.578456 329.491431 
L 1081.108705 329.894208 
L 1081.638953 329.938961 
L 1083.229699 330.565503 
L 1086.41119 331.326305 
L 1086.941438 331.639576 
L 1089.592681 332.44513 
L 1090.12293 332.489883 
L 1090.653178 332.758402 
L 1091.183427 332.892661 
L 1092.243924 333.563956 
L 1093.304421 333.742968 
L 1093.834669 334.100992 
L 1096.485912 334.727534 
L 1097.546409 334.81704 
L 1098.076658 335.040806 
L 1098.606906 335.085559 
L 1101.258149 336.159631 
L 1102.848894 336.607161 
L 1103.909391 337.009939 
L 1104.969889 337.32321 
L 1105.500137 337.591728 
L 1107.090883 337.949752 
L 1109.742125 338.755306 
L 1110.272374 339.158084 
L 1112.393368 339.784626 
L 1112.923617 340.187403 
L 1113.984114 340.545427 
L 1115.044611 340.769192 
L 1116.635356 340.948204 
L 1118.226102 341.574747 
L 1119.286599 342.06703 
L 1120.347096 342.290795 
L 1121.937842 343.006843 
L 1124.589084 343.454374 
L 1126.710078 344.259928 
L 1127.770576 344.528446 
L 1128.300824 344.662705 
L 1128.831073 344.931223 
L 1129.361321 345.065482 
L 1129.89157 345.378753 
L 1131.482315 345.826284 
L 1132.542812 346.318567 
L 1133.603309 346.587085 
L 1135.724304 347.168874 
L 1136.784801 347.526898 
L 1137.845298 347.705911 
L 1139.436043 348.153441 
L 1140.49654 348.2877 
L 1142.087286 348.824736 
L 1143.147783 349.003748 
L 1146.859523 349.943562 
L 1147.92002 350.435845 
L 1151.63176 351.599423 
L 1153.222505 351.912695 
L 1153.752754 352.002201 
L 1154.283002 352.225966 
L 1155.343499 352.494484 
L 1156.403996 352.807755 
L 1157.994742 353.165779 
L 1159.055239 353.658062 
L 1161.706482 354.239852 
L 1162.766979 354.418864 
L 1163.297227 354.50837 
L 1164.357724 354.866394 
L 1165.418221 355.045406 
L 1166.478718 355.134912 
L 1167.008967 355.448183 
L 1171.781204 356.567009 
L 1173.902198 357.014539 
L 1174.432446 357.238304 
L 1174.962695 357.32781 
L 1176.553441 357.909599 
L 1178.674435 358.178117 
L 1179.734932 358.536142 
L 1180.26518 358.894166 
L 1180.795429 359.073178 
L 1181.325677 359.073178 
L 1181.855926 359.25219 
L 1182.386174 359.25219 
L 1183.97692 359.833979 
L 1184.507169 359.923485 
L 1185.037417 360.236756 
L 1186.628163 360.684287 
L 1187.158411 360.72904 
L 1188.749157 361.221323 
L 1189.809654 361.400335 
L 1191.930648 361.803112 
L 1192.460897 362.161136 
L 1194.581891 362.608667 
L 1198.29363 363.593233 
L 1198.823879 363.816998 
L 1200.414625 364.175022 
L 1201.475122 364.354034 
L 1202.00537 364.712059 
L 1204.126364 365.114836 
L 1204.656613 365.338601 
L 1205.186861 365.428107 
L 1205.71711 365.651872 
L 1206.777607 365.830884 
L 1208.898601 366.278414 
L 1210.489347 366.681191 
L 1211.019595 366.681191 
L 1212.080092 367.039216 
L 1214.201086 367.486746 
L 1214.731335 367.755264 
L 1215.261584 367.800017 
L 1215.791832 368.023782 
L 1216.852329 368.158041 
L 1217.912826 368.471312 
L 1220.564069 368.73983 
L 1221.094317 368.963596 
L 1222.154814 369.053102 
L 1225.866554 369.76915 
L 1226.396803 370.037668 
L 1228.517797 370.440445 
L 1229.048045 370.66421 
L 1235.411028 371.827789 
L 1237.001773 372.275319 
L 1238.062271 372.499084 
L 1238.592519 372.767602 
L 1240.183265 372.991367 
L 1240.713513 373.170379 
L 1241.243762 373.170379 
L 1241.77401 373.349392 
L 1242.834507 373.528404 
L 1246.015999 374.289205 
L 1246.546247 374.333958 
L 1247.606744 374.691982 
L 1249.727738 374.9605 
L 1251.318484 375.273771 
L 1251.848732 375.497537 
L 1253.439478 375.676549 
L 1257.151218 376.079326 
L 1264.574697 377.287657 
L 1266.695691 377.377163 
L 1267.22594 377.556176 
L 1271.467928 377.958953 
L 1272.528425 378.227471 
L 1274.119171 378.406483 
L 1275.179668 378.540742 
L 1276.240165 378.854013 
L 1277.300662 378.943519 
L 1278.361159 379.077778 
L 1278.891408 379.346296 
L 1279.951905 379.391049 
L 1281.012402 379.83858 
L 1282.072899 379.972839 
L 1282.603147 380.196604 
L 1284.724141 380.509875 
L 1285.25439 380.823146 
L 1286.845136 381.136417 
L 1288.96613 381.404935 
L 1291.087124 382.031478 
L 1292.677869 382.479008 
L 1296.919858 383.10555 
L 1297.980355 383.239809 
L 1300.101349 383.866351 
L 1302.222343 384.13487 
L 1302.752592 384.13487 
L 1306.464331 384.985177 
L 1307.524828 384.985177 
L 1308.585325 385.253695 
L 1310.176071 385.432707 
L 1314.418059 385.790731 
L 1314.948308 385.969743 
L 1317.599551 386.283015 
L 1318.129799 386.462027 
L 1319.190296 386.50678 
L 1321.31129 386.820051 
L 1322.371787 386.909557 
L 1324.492781 387.536099 
L 1325.553279 387.84937 
L 1327.674273 388.073135 
L 1328.204521 388.252148 
L 1330.855764 388.565419 
L 1331.916261 388.654925 
L 1332.976758 388.654925 
L 1333.507007 388.833937 
L 1335.097752 388.923443 
L 1336.158249 389.147208 
L 1337.748995 389.191961 
L 1338.809492 389.281467 
L 1339.33974 389.32622 
L 1339.869989 389.505232 
L 1343.581729 389.908009 
L 1346.76322 390.624058 
L 1348.353966 390.668811 
L 1349.414463 390.937329 
L 1351.535457 391.205847 
L 1352.595954 391.384859 
L 1354.186699 391.608624 
L 1354.186699 391.608624 
" style="fill:none;stroke:#0000ff;stroke-linecap:square;stroke-width:1.5;"/>
   </g>
   <g id="line2d_36">
    <path clip-path="url(#pcf6f3cfb0b)" d="M 824.468414 354.86504 
L 824.998663 345.330589 
L 825.528911 340.443445 
L 826.589408 334.111497 
L 827.649905 329.478006 
L 828.710403 325.983966 
L 829.7709 322.803229 
L 831.891894 317.931573 
L 832.952391 315.687994 
L 835.073385 312.012419 
L 836.133882 310.314337 
L 837.194379 308.398066 
L 840.37587 303.676092 
L 840.906119 303.126642 
L 844.08761 298.754556 
L 844.617859 298.347395 
L 848.329598 293.480866 
L 848.859847 293.088573 
L 852.041338 289.253002 
L 853.632084 287.734693 
L 855.222829 286.093894 
L 855.753078 285.339291 
L 861.585812 279.892148 
L 862.11606 279.431098 
L 862.646309 279.122681 
L 863.176557 278.671819 
L 864.237054 278.040619 
L 866.358048 276.355753 
L 866.888297 276.135933 
L 867.948794 275.373346 
L 869.53954 274.372545 
L 870.069788 274.113355 
L 870.600037 273.518108 
L 875.372273 270.280592 
L 876.432771 269.468234 
L 876.963019 268.898638 
L 877.493268 268.577342 
L 878.023516 268.432495 
L 879.614262 267.220991 
L 880.14451 266.825555 
L 880.674759 266.618865 
L 881.735256 265.985065 
L 882.795753 265.484717 
L 883.326001 265.214803 
L 884.916747 264.086387 
L 886.507493 263.335256 
L 887.56799 262.759902 
L 888.098238 262.574915 
L 888.628487 262.25875 
L 889.158735 262.102842 
L 889.688984 261.664849 
L 891.279729 261.145155 
L 891.809978 260.8935 
L 892.340227 260.785921 
L 894.991469 258.738038 
L 897.112463 257.441987 
L 899.763706 256.574939 
L 900.824203 255.999328 
L 901.8847 255.625814 
L 902.945197 255.370985 
L 905.59644 254.52646 
L 906.126688 254.142471 
L 906.656937 254.127829 
L 907.187186 253.963277 
L 908.247683 253.347045 
L 910.368677 252.258608 
L 911.959422 251.534603 
L 914.080416 251.262674 
L 914.610665 251.23779 
L 915.671162 250.809511 
L 916.201411 250.783892 
L 918.852653 249.596518 
L 919.91315 249.596565 
L 920.973647 249.204537 
L 923.62489 248.096302 
L 924.685387 248.011528 
L 926.276133 247.678005 
L 926.806381 247.727968 
L 927.33663 247.476883 
L 927.866878 247.356758 
L 928.397127 246.968489 
L 932.639115 245.641062 
L 933.169364 245.64309 
L 934.229861 245.156366 
L 935.290358 244.885116 
L 936.350855 244.319353 
L 936.881103 244.090576 
L 937.9416 243.871396 
L 938.471849 243.613197 
L 939.532346 243.384718 
L 940.592843 242.799385 
L 941.123092 242.749149 
L 941.65334 242.496019 
L 942.713837 242.486106 
L 943.774334 242.151106 
L 944.304583 241.977488 
L 944.834831 241.66166 
L 945.895328 241.480389 
L 946.955826 241.137449 
L 947.486074 240.958007 
L 948.016323 240.97643 
L 949.607068 240.63658 
L 950.137317 240.342217 
L 951.728062 240.1479 
L 952.258311 240.150463 
L 952.788559 239.859405 
L 953.318808 239.849519 
L 954.909554 239.174051 
L 955.439802 239.145408 
L 955.970051 238.825687 
L 957.030548 238.500118 
L 957.560796 238.269435 
L 960.212039 238.153436 
L 960.742287 237.80296 
L 961.272536 237.586845 
L 962.863282 237.425053 
L 963.39353 237.411589 
L 965.514524 236.689336 
L 966.044773 236.345399 
L 966.575021 236.148354 
L 967.10527 235.825858 
L 967.635518 235.663424 
L 968.165767 235.701833 
L 968.696015 235.514324 
L 969.756512 235.639499 
L 970.286761 235.649564 
L 970.81701 235.39841 
L 971.347258 235.481257 
L 972.938004 235.369149 
L 973.998501 235.479913 
L 974.528749 235.473814 
L 975.058998 235.130328 
L 976.119495 234.895216 
L 976.649743 234.804109 
L 977.71024 235.041192 
L 978.240489 235.020327 
L 978.770738 234.834319 
L 979.300986 234.927748 
L 979.831235 234.809899 
L 980.361483 234.550793 
L 980.891732 234.528322 
L 981.952229 234.198942 
L 983.012726 234.421289 
L 983.542974 234.305282 
L 984.073223 234.37368 
L 984.603471 234.12433 
L 986.194217 233.947125 
L 986.724466 233.994548 
L 987.784963 233.918347 
L 989.905957 233.769254 
L 990.966454 233.506959 
L 991.496702 233.570215 
L 992.557199 233.320786 
L 993.087448 233.160643 
L 994.678194 232.330024 
L 995.738691 232.146326 
L 996.268939 232.159386 
L 996.799188 232.011219 
L 997.329436 232.268612 
L 997.859685 232.374637 
L 998.389933 232.268425 
L 998.920182 232.299349 
L 999.45043 232.159555 
L 999.980679 231.798977 
L 1002.101673 231.480974 
L 1004.752916 230.791985 
L 1005.283164 230.808731 
L 1006.87391 230.391877 
L 1007.404158 230.476516 
L 1007.934407 230.381659 
L 1008.464655 230.487825 
L 1008.994904 230.39411 
L 1009.525153 230.439822 
L 1010.055401 230.100836 
L 1011.115898 230.019728 
L 1012.176395 229.580147 
L 1013.236892 229.114861 
L 1013.767141 229.149846 
L 1014.297389 229.064338 
L 1015.357886 228.542767 
L 1015.888135 228.527007 
L 1016.418383 228.338916 
L 1017.478881 228.3935 
L 1018.539378 228.217628 
L 1019.069626 228.273585 
L 1019.599875 228.207109 
L 1020.660372 228.456473 
L 1021.720869 228.269874 
L 1022.251117 228.392431 
L 1023.841863 228.15193 
L 1024.372111 227.928121 
L 1025.432609 228.041766 
L 1025.962857 228.143884 
L 1028.083851 227.969947 
L 1028.6141 227.763934 
L 1030.204845 227.625209 
L 1030.735094 227.492386 
L 1031.265342 227.571696 
L 1032.856088 227.377799 
L 1034.446834 227.559771 
L 1035.507331 227.322119 
L 1036.567828 227.130008 
L 1037.098076 227.148956 
L 1037.628325 226.910966 
L 1038.688822 227.035388 
L 1039.21907 227.233984 
L 1039.749319 227.138286 
L 1040.279567 226.853695 
L 1041.340065 226.807991 
L 1041.870313 226.676083 
L 1042.400562 226.805466 
L 1044.521556 226.603128 
L 1045.051804 226.365956 
L 1045.582053 226.361485 
L 1046.112301 226.213026 
L 1047.172798 226.316402 
L 1048.233295 226.175828 
L 1049.293793 226.484506 
L 1049.824041 226.398106 
L 1050.35429 226.155954 
L 1051.414787 226.067776 
L 1052.475284 225.730696 
L 1056.717272 225.00997 
L 1057.247521 224.745734 
L 1057.777769 224.35302 
L 1058.308018 224.217041 
L 1060.95926 224.122704 
L 1061.489509 223.993337 
L 1063.080254 223.955369 
L 1064.671 223.579154 
L 1065.731497 223.362878 
L 1067.322243 223.355127 
L 1067.852491 223.102427 
L 1069.973485 222.71637 
L 1070.503734 222.382181 
L 1071.033982 222.549337 
L 1072.094479 222.25738 
L 1072.624728 222.414287 
L 1073.685225 222.233307 
L 1074.745722 222.231929 
L 1075.275971 222.401324 
L 1076.866716 221.933827 
L 1077.396965 221.795703 
L 1077.927213 221.862925 
L 1078.457462 221.77012 
L 1078.98771 221.343994 
L 1079.517959 221.249945 
L 1080.578456 221.498815 
L 1081.108705 221.43743 
L 1081.638953 221.192593 
L 1082.69945 221.186962 
L 1083.759947 221.07908 
L 1084.290196 220.772494 
L 1087.471687 220.485174 
L 1088.001935 220.209023 
L 1088.532184 220.275818 
L 1090.653178 219.833725 
L 1091.183427 219.891106 
L 1091.713675 220.112036 
L 1092.243924 220.131057 
L 1092.774172 219.779213 
L 1093.304421 219.691323 
L 1093.834669 219.877911 
L 1094.364918 219.78986 
L 1095.425415 219.772773 
L 1097.016161 219.546578 
L 1097.546409 219.470877 
L 1098.076658 219.551379 
L 1098.606906 219.439718 
L 1099.137155 218.977641 
L 1100.197652 218.755126 
L 1101.788397 218.575018 
L 1102.318646 218.346819 
L 1103.379143 218.407063 
L 1103.909391 217.947111 
L 1105.500137 217.912641 
L 1106.560634 217.447334 
L 1107.621131 217.329961 
L 1108.15138 217.146536 
L 1108.681628 217.366011 
L 1109.211877 217.152429 
L 1109.742125 217.071075 
L 1110.802622 217.35739 
L 1111.332871 217.297911 
L 1111.863119 217.082418 
L 1112.393368 217.037301 
L 1112.923617 217.162351 
L 1113.453865 217.086959 
L 1115.044611 216.545005 
L 1116.105108 216.461407 
L 1117.165605 216.15656 
L 1118.226102 216.159004 
L 1119.286599 216.199086 
L 1120.877345 215.971282 
L 1121.937842 216.134654 
L 1122.46809 216.10281 
L 1123.528587 215.822817 
L 1125.649581 215.976692 
L 1126.17983 216.059175 
L 1126.710078 215.792858 
L 1127.240327 215.837006 
L 1127.770576 215.585655 
L 1128.300824 215.481573 
L 1133.073061 215.520485 
L 1133.603309 215.431287 
L 1135.194055 215.638152 
L 1135.724304 215.492662 
L 1136.254552 215.520741 
L 1136.784801 215.413964 
L 1137.315049 215.171762 
L 1138.905795 215.210043 
L 1139.966292 214.476617 
L 1141.026789 214.485682 
L 1141.557037 214.587064 
L 1142.087286 214.51693 
L 1143.678032 213.990404 
L 1144.20828 213.954583 
L 1144.738529 213.727077 
L 1145.799026 213.658304 
L 1146.329274 213.349074 
L 1146.859523 213.432403 
L 1147.389771 213.322169 
L 1147.92002 213.464432 
L 1148.450268 213.273263 
L 1148.980517 213.217637 
L 1149.510765 213.360489 
L 1153.222505 213.265202 
L 1154.283002 212.894623 
L 1155.343499 213.020134 
L 1156.403996 213.187164 
L 1156.934245 212.908856 
L 1157.994742 212.854279 
L 1159.055239 213.126927 
L 1160.115736 212.992711 
L 1161.176233 212.854747 
L 1162.766979 212.860423 
L 1164.357724 212.665556 
L 1165.418221 212.832859 
L 1166.478718 212.670811 
L 1167.008967 212.718094 
L 1167.539216 212.473571 
L 1168.069464 212.43389 
L 1168.599713 212.624748 
L 1169.129961 212.562735 
L 1170.190458 212.632569 
L 1170.720707 212.550412 
L 1171.250955 212.343351 
L 1171.781204 212.345616 
L 1172.841701 211.929437 
L 1174.432446 212.168228 
L 1174.962695 212.190614 
L 1175.492944 212.404443 
L 1176.023192 212.449694 
L 1176.553441 212.241964 
L 1177.613938 212.074241 
L 1178.144186 211.735731 
L 1179.734932 211.826657 
L 1180.795429 211.897558 
L 1181.325677 211.769049 
L 1181.855926 211.878458 
L 1182.386174 211.491816 
L 1183.446672 211.603954 
L 1183.97692 211.345713 
L 1184.507169 211.30306 
L 1185.037417 211.54444 
L 1186.097914 211.481781 
L 1188.218908 211.575225 
L 1189.279405 211.247361 
L 1189.809654 211.050097 
L 1192.460897 210.942979 
L 1193.521394 210.899355 
L 1195.112139 210.385363 
L 1196.172636 210.429979 
L 1196.702885 210.272177 
L 1198.823879 210.383916 
L 1199.884376 210.20153 
L 1200.944873 210.269166 
L 1201.475122 210.246215 
L 1202.00537 210.542871 
L 1202.535619 210.634417 
L 1203.065867 210.405427 
L 1204.126364 210.611833 
L 1204.656613 210.841851 
L 1205.186861 210.658162 
L 1205.71711 210.75071 
L 1207.838104 210.42726 
L 1208.368353 210.14812 
L 1209.42885 210.077051 
L 1209.959098 209.959712 
L 1210.489347 210.146061 
L 1211.019595 209.935235 
L 1212.080092 210.309017 
L 1212.610341 210.332303 
L 1213.140589 210.14398 
L 1213.670838 210.284791 
L 1214.201086 210.142931 
L 1214.731335 210.283804 
L 1215.261584 209.975836 
L 1217.382578 209.97277 
L 1221.094317 209.993148 
L 1222.154814 209.655918 
L 1223.215312 209.654688 
L 1225.866554 209.697847 
L 1226.927051 209.86505 
L 1227.4573 209.742647 
L 1228.517797 209.838443 
L 1229.048045 210.081224 
L 1231.16904 209.883271 
L 1231.699288 209.980917 
L 1232.759785 209.93037 
L 1233.820282 210.028355 
L 1234.350531 210.052529 
L 1234.880779 209.928649 
L 1235.941276 210.149107 
L 1236.471525 210.099162 
L 1237.001773 210.296942 
L 1237.532022 210.097924 
L 1238.062271 210.171999 
L 1238.592519 210.470198 
L 1239.122768 210.445252 
L 1241.243762 209.792718 
L 1241.77401 209.841666 
L 1242.304259 209.740476 
L 1243.364756 209.965634 
L 1243.895004 210.015127 
L 1244.955501 209.734629 
L 1246.546247 209.808712 
L 1247.076496 210.062055 
L 1247.606744 209.984763 
L 1248.667241 210.111584 
L 1249.19749 209.932191 
L 1250.257987 209.391397 
L 1250.788235 209.261235 
L 1251.318484 209.336863 
L 1251.848732 209.592654 
L 1253.969727 209.070831 
L 1254.499975 209.173517 
L 1259.272212 208.978552 
L 1259.80246 209.082167 
L 1261.393206 208.8674 
L 1262.453703 208.837509 
L 1263.5142 208.966536 
L 1265.104946 208.75259 
L 1266.165443 208.645316 
L 1266.695691 208.297895 
L 1267.22594 208.426884 
L 1268.816685 208.049751 
L 1269.346934 207.646805 
L 1270.407431 207.723091 
L 1271.467928 207.528137 
L 1271.998177 207.575975 
L 1272.528425 207.43727 
L 1275.709916 207.610134 
L 1276.240165 207.441599 
L 1276.770413 207.465672 
L 1277.300662 207.219237 
L 1277.830911 207.272308 
L 1278.361159 207.04912 
L 1278.891408 207.203297 
L 1279.421656 206.955179 
L 1279.951905 206.92565 
L 1281.012402 207.211308 
L 1282.072899 206.955974 
L 1282.603147 207.141301 
L 1283.133396 207.165497 
L 1283.663644 206.968399 
L 1285.784639 207.306404 
L 1286.845136 207.439869 
L 1287.905633 207.241316 
L 1288.96613 207.514225 
L 1291.087124 207.604409 
L 1291.617372 207.825106 
L 1292.677869 207.816117 
L 1293.208118 207.756099 
L 1293.738367 207.580007 
L 1294.268615 207.635579 
L 1294.798864 207.261409 
L 1296.919858 207.306218 
L 1297.450106 207.18909 
L 1297.980355 207.214215 
L 1299.040852 207.376717 
L 1300.631597 207.765586 
L 1301.161846 207.647891 
L 1301.692095 207.32435 
L 1302.752592 207.293361 
L 1303.28284 207.463087 
L 1303.813089 207.457858 
L 1304.873586 207.623259 
L 1305.934083 207.78957 
L 1307.524828 207.405529 
L 1308.055077 207.634408 
L 1308.585325 207.48343 
L 1309.645823 207.478171 
L 1312.827314 207.231655 
L 1313.357562 207.047041 
L 1314.418059 207.015166 
L 1314.948308 207.246217 
L 1316.008805 207.214415 
L 1317.069302 206.848696 
L 1318.129799 207.255185 
L 1319.190296 207.132892 
L 1319.720545 207.159056 
L 1320.250793 207.302103 
L 1320.781042 207.302103 
L 1321.31129 207.179385 
L 1321.841539 207.179385 
L 1322.902036 207.472272 
L 1323.432284 207.408108 
L 1325.02303 207.810695 
L 1326.083527 207.865223 
L 1326.613776 207.952057 
L 1327.144024 207.768822 
L 1328.204521 207.791239 
L 1329.265018 207.63446 
L 1329.795267 207.477117 
L 1330.855764 207.471625 
L 1332.976758 207.220608 
L 1335.628001 207.482369 
L 1337.748995 206.540183 
L 1338.279243 206.352029 
L 1338.809492 206.472565 
L 1339.33974 206.438682 
L 1339.869989 206.680411 
L 1341.460735 206.518251 
L 1341.990983 206.260692 
L 1343.05148 206.131485 
L 1343.581729 206.279291 
L 1344.111977 205.889722 
L 1346.76322 206.205088 
L 1347.293468 205.916475 
L 1348.353966 205.785047 
L 1348.884214 205.934307 
L 1349.944711 205.925704 
L 1350.47496 205.69667 
L 1353.126202 206.253424 
L 1354.186699 206.210208 
L 1354.186699 206.210208 
" style="fill:none;stroke:#ff0000;stroke-linecap:square;stroke-width:1.5;"/>
   </g>
   <g id="line2d_37">
    <path clip-path="url(#pcf6f3cfb0b)" d="M 824.468414 354.86504 
L 824.998663 345.519018 
L 825.528911 340.888164 
L 826.05916 337.688318 
L 826.589408 335.184088 
L 827.649905 331.486172 
L 828.180154 330.151857 
L 830.301148 326.470995 
L 832.952391 323.759875 
L 835.073385 322.956107 
L 835.603633 323.048254 
L 837.194379 321.925502 
L 838.785125 321.710428 
L 839.315373 321.449264 
L 840.37587 321.33249 
L 840.906119 321.695389 
L 842.496864 321.493324 
L 843.027113 321.088168 
L 843.557361 320.922144 
L 844.08761 321.170758 
L 844.617859 321.573196 
L 845.678356 321.625657 
L 846.738853 321.615712 
L 847.269101 321.346379 
L 847.79935 321.34406 
L 848.329598 321.163774 
L 848.859847 321.486812 
L 850.980841 321.635904 
L 852.041338 321.287144 
L 855.222829 321.665725 
L 855.753078 321.591926 
L 856.283326 321.758106 
L 857.343823 321.762699 
L 858.934569 322.247564 
L 859.464817 322.417309 
L 860.525315 322.571221 
L 863.176557 323.266064 
L 864.237054 323.909472 
L 865.297551 323.81829 
L 866.888297 324.643726 
L 867.948794 324.937239 
L 869.53954 325.846479 
L 870.069788 326.2007 
L 870.600037 326.172352 
L 871.130285 326.447946 
L 871.660534 326.555843 
L 872.721031 326.917698 
L 873.251279 327.087861 
L 874.311776 327.901476 
L 874.842025 327.749788 
L 875.902522 327.87773 
L 877.493268 328.207586 
L 878.023516 328.68694 
L 878.553765 328.786753 
L 879.084013 329.028857 
L 880.14451 329.18353 
L 880.674759 329.564894 
L 881.735256 329.909365 
L 882.265504 330.210194 
L 884.916747 330.762678 
L 885.446996 331.095349 
L 885.977244 331.241234 
L 886.507493 331.51622 
L 887.037741 331.630717 
L 890.749481 333.43383 
L 891.279729 333.787859 
L 892.340227 334.289173 
L 893.930972 334.124929 
L 896.051966 334.198404 
L 901.8847 337.24295 
L 902.945197 337.773037 
L 903.475446 338.077482 
L 904.005694 338.136158 
L 907.187186 339.7916 
L 910.368677 340.623107 
L 910.898925 340.79009 
L 911.429174 340.822462 
L 911.959422 340.96662 
L 913.019919 341.703918 
L 913.550168 341.915727 
L 915.140914 342.797682 
L 915.671162 342.98573 
L 916.201411 343.309954 
L 918.322405 343.711559 
L 918.852653 343.887268 
L 919.91315 344.659425 
L 922.034144 345.383924 
L 923.62489 345.905905 
L 924.685387 346.362874 
L 926.276133 346.914554 
L 926.806381 347.285196 
L 929.457624 347.917764 
L 929.987872 348.216253 
L 930.518121 348.12759 
L 933.169364 349.352539 
L 933.699612 349.355 
L 935.290358 349.976034 
L 935.820606 349.963675 
L 937.411352 350.436529 
L 937.9416 350.777909 
L 942.183589 351.861637 
L 942.713837 352.154126 
L 943.774334 352.40808 
L 944.304583 352.579501 
L 945.36508 352.708703 
L 947.486074 353.225892 
L 948.546571 353.704154 
L 950.137317 354.081125 
L 951.197814 354.407174 
L 951.728062 354.744457 
L 953.849056 355.425043 
L 954.379305 355.445071 
L 957.030548 356.114447 
L 957.560796 356.123719 
L 958.621293 356.572424 
L 959.151542 356.712241 
L 960.212039 357.240537 
L 961.272536 357.308676 
L 962.863282 357.928493 
L 963.39353 358.186209 
L 964.454027 358.429854 
L 964.984276 358.399005 
L 965.514524 358.547457 
L 966.044773 358.436258 
L 966.575021 358.513909 
L 967.10527 358.437236 
L 967.635518 358.483082 
L 968.165767 358.766825 
L 968.696015 358.777274 
L 970.286761 359.686087 
L 970.81701 359.692525 
L 971.347258 360.069178 
L 971.877507 360.144989 
L 974.528749 361.227719 
L 975.058998 361.194595 
L 976.649743 361.533741 
L 978.240489 362.673278 
L 978.770738 362.785235 
L 979.300986 363.117639 
L 981.42198 363.550711 
L 982.482477 363.954665 
L 983.012726 364.402528 
L 983.542974 364.4739 
L 984.073223 364.771066 
L 985.13372 364.962764 
L 986.194217 365.317963 
L 987.254714 365.744085 
L 990.966454 366.765146 
L 991.496702 367.084708 
L 993.617696 367.603187 
L 995.208442 367.760504 
L 996.268939 368.186407 
L 996.799188 368.198955 
L 997.859685 368.888658 
L 999.45043 369.291589 
L 999.980679 369.267418 
L 1002.631922 369.743601 
L 1003.692419 369.834157 
L 1004.752916 370.067447 
L 1005.813413 370.385802 
L 1006.87391 370.525089 
L 1007.404158 370.756813 
L 1007.934407 370.817962 
L 1009.525153 371.657568 
L 1010.055401 371.622789 
L 1011.646147 371.988065 
L 1012.176395 372.038148 
L 1013.236892 372.005095 
L 1014.297389 372.408393 
L 1016.418383 372.650106 
L 1016.948632 372.904491 
L 1018.539378 373.127634 
L 1019.069626 373.323967 
L 1019.599875 373.398332 
L 1020.130123 373.608597 
L 1020.660372 373.993055 
L 1023.841863 374.876123 
L 1024.372111 374.916676 
L 1028.083851 376.107541 
L 1029.144348 376.396579 
L 1030.204845 376.705436 
L 1030.735094 376.83181 
L 1031.265342 377.086406 
L 1032.325839 377.373148 
L 1033.916585 377.818231 
L 1034.446834 378.058806 
L 1036.567828 378.379513 
L 1037.098076 378.561978 
L 1037.628325 378.601804 
L 1039.21907 379.269777 
L 1040.809816 379.377591 
L 1041.340065 379.67027 
L 1041.870313 379.774265 
L 1042.93081 380.15336 
L 1043.991307 380.403665 
L 1045.582053 380.669657 
L 1046.112301 380.693229 
L 1047.172798 381.006352 
L 1048.233295 381.234444 
L 1048.763544 381.634118 
L 1049.824041 381.94092 
L 1050.35429 381.958174 
L 1051.414787 382.280649 
L 1052.475284 382.291223 
L 1053.005532 382.365021 
L 1053.535781 382.627831 
L 1055.126526 382.777727 
L 1056.717272 383.057021 
L 1058.308018 382.966616 
L 1060.95926 383.595436 
L 1061.489509 383.55213 
L 1067.852491 384.453251 
L 1068.912988 384.577661 
L 1069.443237 384.709239 
L 1070.503734 384.650845 
L 1071.033982 384.935856 
L 1074.215474 385.615175 
L 1074.745722 385.754034 
L 1075.275971 386.039112 
L 1076.866716 386.016676 
L 1077.396965 386.074867 
L 1078.457462 386.323241 
L 1078.98771 386.212489 
L 1079.517959 386.28524 
L 1080.048207 386.592644 
L 1082.69945 387.191065 
L 1086.941438 387.640965 
L 1089.062433 387.945875 
L 1090.12293 387.906852 
L 1092.243924 388.640007 
L 1092.774172 388.557311 
L 1093.304421 388.607839 
L 1093.834669 388.872214 
L 1100.7279 389.571407 
L 1101.788397 389.745745 
L 1102.318646 389.728851 
L 1103.379143 390.007196 
L 1103.909391 389.973088 
L 1107.621131 390.440943 
L 1108.15138 390.438627 
L 1108.681628 390.660686 
L 1109.742125 390.730063 
L 1110.272374 391.017396 
L 1111.863119 391.256548 
L 1112.393368 391.321759 
L 1112.923617 391.593833 
L 1113.984114 391.721837 
L 1117.165605 391.850601 
L 1122.46809 392.99042 
L 1125.119333 393.272503 
L 1126.17983 393.582028 
L 1126.710078 393.585393 
L 1127.240327 393.70305 
L 1128.300824 393.73416 
L 1129.89157 394.173944 
L 1132.012564 394.598244 
L 1133.073061 394.824336 
L 1134.133558 394.948221 
L 1135.194055 395.199061 
L 1135.724304 395.211475 
L 1136.784801 395.400391 
L 1137.315049 395.360025 
L 1139.436043 395.610533 
L 1139.966292 395.538645 
L 1141.026789 395.699717 
L 1142.087286 395.919681 
L 1143.147783 395.912425 
L 1147.389771 396.417404 
L 1148.450268 396.643281 
L 1149.510765 396.879079 
L 1152.162008 397.309243 
L 1154.813251 397.55831 
L 1156.403996 397.922077 
L 1157.464493 397.945242 
L 1158.52499 398.24008 
L 1159.055239 398.41117 
L 1164.357724 399.009624 
L 1165.418221 399.159233 
L 1166.478718 399.170723 
L 1167.008967 399.369229 
L 1168.069464 399.429509 
L 1168.599713 399.63818 
L 1169.129961 399.622331 
L 1170.190458 399.879829 
L 1173.371949 400.021667 
L 1176.553441 400.713802 
L 1179.204683 400.849596 
L 1181.855926 401.423832 
L 1182.386174 401.328053 
L 1183.97692 401.639796 
L 1184.507169 401.682827 
L 1185.037417 401.92944 
L 1188.749157 402.498856 
L 1189.809654 402.50482 
L 1191.930648 402.714381 
L 1192.460897 402.934548 
L 1198.29363 403.654324 
L 1199.354128 403.82077 
L 1201.475122 404.083907 
L 1202.00537 404.368605 
L 1207.838104 405.120448 
L 1208.898601 405.216996 
L 1214.201086 405.941994 
L 1214.731335 406.135405 
L 1215.261584 406.092227 
L 1215.791832 406.231878 
L 1216.852329 406.312433 
L 1218.443075 406.532639 
L 1225.866554 407.214305 
L 1226.927051 407.46693 
L 1228.517797 407.649492 
L 1229.048045 407.837692 
L 1234.880779 408.369225 
L 1235.941276 408.659407 
L 1237.532022 408.863447 
L 1238.062271 408.960162 
L 1238.592519 409.185819 
L 1242.304259 409.405493 
L 1244.425253 409.781568 
L 1246.546247 409.985582 
L 1247.076496 410.173793 
L 1249.19749 410.361643 
L 1250.257987 410.328655 
L 1251.318484 410.452072 
L 1251.848732 410.640481 
L 1258.741963 411.036469 
L 1259.80246 411.208771 
L 1261.393206 411.299536 
L 1265.104946 411.54627 
L 1266.695691 411.507231 
L 1267.22594 411.641941 
L 1268.816685 411.619095 
L 1269.346934 411.536831 
L 1273.058674 411.906572 
L 1276.770413 412.287944 
L 1277.830911 412.276258 
L 1278.361159 412.285842 
L 1278.891408 412.480015 
L 1279.951905 412.451683 
L 1281.012402 412.780846 
L 1282.072899 412.811734 
L 1283.133396 413.043806 
L 1284.193893 413.1078 
L 1284.724141 413.183554 
L 1285.784639 413.479578 
L 1288.96613 413.79208 
L 1291.087124 414.189941 
L 1292.147621 414.400437 
L 1293.208118 414.545071 
L 1296.919858 414.78478 
L 1297.980355 414.848794 
L 1300.101349 415.312696 
L 1301.161846 415.393241 
L 1302.752592 415.40778 
L 1305.934083 415.989999 
L 1308.585325 416.123004 
L 1310.176071 416.224895 
L 1317.069302 416.549677 
L 1318.660048 416.798328 
L 1319.720545 416.878869 
L 1320.250793 417.013812 
L 1322.371787 417.094354 
L 1326.613776 417.891921 
L 1327.674273 417.89684 
L 1328.73477 418.020111 
L 1330.855764 418.131752 
L 1332.44651 418.157929 
L 1332.976758 418.141401 
L 1333.507007 418.259811 
L 1335.097752 418.335531 
L 1336.158249 418.442232 
L 1339.33974 418.411423 
L 1339.869989 418.563121 
L 1345.172474 418.887218 
L 1346.76322 419.162163 
L 1348.353966 419.116675 
L 1349.414463 419.311147 
L 1351.535457 419.472205 
L 1352.595954 419.624066 
L 1354.186699 419.763841 
L 1354.186699 419.763841 
" style="fill:none;stroke:#008000;stroke-linecap:square;stroke-width:1.5;"/>
   </g>
   <g id="line2d_38">
    <path clip-path="url(#pcf6f3cfb0b)" d="M 843.557361 463.84 
L 843.557361 41.64 
" style="fill:none;stroke:#1f77b4;stroke-linecap:square;stroke-width:1.5;"/>
   </g>
   <g id="patch_9">
    <path d="M 797.9825 463.84 
L 797.9825 41.64 
" style="fill:none;stroke:#000000;stroke-linecap:square;stroke-linejoin:miter;stroke-width:0.8;"/>
   </g>
   <g id="patch_10">
    <path d="M 1380.672614 463.84 
L 1380.672614 41.64 
" style="fill:none;stroke:#000000;stroke-linecap:square;stroke-linejoin:miter;stroke-width:0.8;"/>
   </g>
   <g id="patch_11">
    <path d="M 797.9825 463.84 
L 1380.672614 463.84 
" style="fill:none;stroke:#000000;stroke-linecap:square;stroke-linejoin:miter;stroke-width:0.8;"/>
   </g>
   <g id="patch_12">
    <path d="M 797.9825 41.64 
L 1380.672614 41.64 
" style="fill:none;stroke:#000000;stroke-linecap:square;stroke-linejoin:miter;stroke-width:0.8;"/>
   </g>
   <g id="text_33">
    <!-- Purity/Efficiency vs PcaVarW Cutoff — shower -->
    <defs>
     <path d="M 54.890625 33.015625 
L 54.890625 0 
L 45.90625 0 
L 45.90625 32.71875 
Q 45.90625 40.484375 42.875 44.328125 
Q 39.84375 48.1875 33.796875 48.1875 
Q 26.515625 48.1875 22.3125 43.546875 
Q 18.109375 38.921875 18.109375 30.90625 
L 18.109375 0 
L 9.078125 0 
L 9.078125 75.984375 
L 18.109375 75.984375 
L 18.109375 46.1875 
Q 21.34375 51.125 25.703125 53.5625 
Q 30.078125 56 35.796875 56 
Q 45.21875 56 50.046875 50.171875 
Q 54.890625 44.34375 54.890625 33.015625 
z
" id="DejaVuSans-104"/>
     <path d="M 4.203125 54.6875 
L 13.1875 54.6875 
L 24.421875 12.015625 
L 35.59375 54.6875 
L 46.1875 54.6875 
L 57.421875 12.015625 
L 68.609375 54.6875 
L 77.59375 54.6875 
L 63.28125 0 
L 52.6875 0 
L 40.921875 44.828125 
L 29.109375 0 
L 18.5 0 
z
" id="DejaVuSans-119"/>
    </defs>
    <g transform="translate(792.642782 35.64)scale(0.2592 -0.2592)">
     <use xlink:href="#DejaVuSans-80"/>
     <use x="60.287109" xlink:href="#DejaVuSans-117"/>
     <use x="123.666016" xlink:href="#DejaVuSans-114"/>
     <use x="164.779297" xlink:href="#DejaVuSans-105"/>
     <use x="192.5625" xlink:href="#DejaVuSans-116"/>
     <use x="231.771484" xlink:href="#DejaVuSans-121"/>
     <use x="290.951172" xlink:href="#DejaVuSans-47"/>
     <use x="324.642578" xlink:href="#DejaVuSans-69"/>
     <use x="387.826172" xlink:href="#DejaVuSans-102"/>
     <use x="423.03125" xlink:href="#DejaVuSans-102"/>
     <use x="458.236328" xlink:href="#DejaVuSans-105"/>
     <use x="486.019531" xlink:href="#DejaVuSans-99"/>
     <use x="541" xlink:href="#DejaVuSans-105"/>
     <use x="568.783203" xlink:href="#DejaVuSans-101"/>
     <use x="630.306641" xlink:href="#DejaVuSans-110"/>
     <use x="693.685547" xlink:href="#DejaVuSans-99"/>
     <use x="748.666016" xlink:href="#DejaVuSans-121"/>
     <use x="807.845703" xlink:href="#DejaVuSans-32"/>
     <use x="839.632812" xlink:href="#DejaVuSans-118"/>
     <use x="898.8125" xlink:href="#DejaVuSans-115"/>
     <use x="950.912109" xlink:href="#DejaVuSans-32"/>
     <use x="982.699219" xlink:href="#DejaVuSans-80"/>
     <use x="1043.001953" xlink:href="#DejaVuSans-99"/>
     <use x="1097.982422" xlink:href="#DejaVuSans-97"/>
     <use x="1159.261719" xlink:href="#DejaVuSans-86"/>
     <use x="1227.560547" xlink:href="#DejaVuSans-97"/>
     <use x="1288.839844" xlink:href="#DejaVuSans-114"/>
     <use x="1329.953125" xlink:href="#DejaVuSans-87"/>
     <use x="1428.830078" xlink:href="#DejaVuSans-32"/>
     <use x="1460.617188" xlink:href="#DejaVuSans-67"/>
     <use x="1530.441406" xlink:href="#DejaVuSans-117"/>
     <use x="1593.820312" xlink:href="#DejaVuSans-116"/>
     <use x="1633.029297" xlink:href="#DejaVuSans-111"/>
     <use x="1694.210938" xlink:href="#DejaVuSans-102"/>
     <use x="1729.416016" xlink:href="#DejaVuSans-102"/>
     <use x="1764.621094" xlink:href="#DejaVuSans-32"/>
     <use x="1796.408203" xlink:href="#DejaVuSans-8212"/>
     <use x="1896.408203" xlink:href="#DejaVuSans-32"/>
     <use x="1928.195312" xlink:href="#DejaVuSans-115"/>
     <use x="1980.294922" xlink:href="#DejaVuSans-104"/>
     <use x="2043.673828" xlink:href="#DejaVuSans-111"/>
     <use x="2104.855469" xlink:href="#DejaVuSans-119"/>
     <use x="2186.642578" xlink:href="#DejaVuSans-101"/>
     <use x="2248.166016" xlink:href="#DejaVuSans-114"/>
    </g>
   </g>
   <g id="legend_2">
    <g id="patch_13">
     <path d="M 980.632869 454.84 
L 1198.022244 454.84 
Q 1201.622244 454.84 1201.622244 451.24 
L 1201.622244 373.778125 
Q 1201.622244 370.178125 1198.022244 370.178125 
L 980.632869 370.178125 
Q 977.032869 370.178125 977.032869 373.778125 
L 977.032869 451.24 
Q 977.032869 454.84 980.632869 454.84 
z
" style="fill:#ffffff;opacity:0.8;stroke:#cccccc;stroke-linejoin:miter;"/>
    </g>
    <g id="line2d_39">
     <path d="M 984.232869 384.755313 
L 1020.232869 384.755313 
" style="fill:none;stroke:#0000ff;stroke-linecap:square;stroke-width:1.5;"/>
    </g>
    <g id="line2d_40"/>
    <g id="text_34">
     <!-- Efficiency -->
     <g transform="translate(1034.632869 391.055313)scale(0.18 -0.18)">
      <use xlink:href="#DejaVuSans-69"/>
      <use x="63.183594" xlink:href="#DejaVuSans-102"/>
      <use x="98.388672" xlink:href="#DejaVuSans-102"/>
      <use x="133.59375" xlink:href="#DejaVuSans-105"/>
      <use x="161.376953" xlink:href="#DejaVuSans-99"/>
      <use x="216.357422" xlink:href="#DejaVuSans-105"/>
      <use x="244.140625" xlink:href="#DejaVuSans-101"/>
      <use x="305.664062" xlink:href="#DejaVuSans-110"/>
      <use x="369.042969" xlink:href="#DejaVuSans-99"/>
      <use x="424.023438" xlink:href="#DejaVuSans-121"/>
     </g>
    </g>
    <g id="line2d_41">
     <path d="M 984.232869 411.175937 
L 1020.232869 411.175937 
" style="fill:none;stroke:#ff0000;stroke-linecap:square;stroke-width:1.5;"/>
    </g>
    <g id="line2d_42"/>
    <g id="text_35">
     <!-- Purity -->
     <g transform="translate(1034.632869 417.475937)scale(0.18 -0.18)">
      <use xlink:href="#DejaVuSans-80"/>
      <use x="60.287109" xlink:href="#DejaVuSans-117"/>
      <use x="123.666016" xlink:href="#DejaVuSans-114"/>
      <use x="164.779297" xlink:href="#DejaVuSans-105"/>
      <use x="192.5625" xlink:href="#DejaVuSans-116"/>
      <use x="231.771484" xlink:href="#DejaVuSans-121"/>
     </g>
    </g>
    <g id="line2d_43">
     <path d="M 984.232869 437.596562 
L 1020.232869 437.596562 
" style="fill:none;stroke:#008000;stroke-linecap:square;stroke-width:1.5;"/>
    </g>
    <g id="line2d_44"/>
    <g id="text_36">
     <!-- Purity * Efficiency -->
     <g transform="translate(1034.632869 443.896562)scale(0.18 -0.18)">
      <use xlink:href="#DejaVuSans-80"/>
      <use x="60.287109" xlink:href="#DejaVuSans-117"/>
      <use x="123.666016" xlink:href="#DejaVuSans-114"/>
      <use x="164.779297" xlink:href="#DejaVuSans-105"/>
      <use x="192.5625" xlink:href="#DejaVuSans-116"/>
      <use x="231.771484" xlink:href="#DejaVuSans-121"/>
      <use x="290.951172" xlink:href="#DejaVuSans-32"/>
      <use x="322.738281" xlink:href="#DejaVuSans-42"/>
      <use x="372.738281" xlink:href="#DejaVuSans-32"/>
      <use x="404.525391" xlink:href="#DejaVuSans-69"/>
      <use x="467.708984" xlink:href="#DejaVuSans-102"/>
      <use x="502.914062" xlink:href="#DejaVuSans-102"/>
      <use x="538.119141" xlink:href="#DejaVuSans-105"/>
      <use x="565.902344" xlink:href="#DejaVuSans-99"/>
      <use x="620.882812" xlink:href="#DejaVuSans-105"/>
      <use x="648.666016" xlink:href="#DejaVuSans-101"/>
      <use x="710.189453" xlink:href="#DejaVuSans-110"/>
      <use x="773.568359" xlink:href="#DejaVuSans-99"/>
      <use x="828.548828" xlink:href="#DejaVuSans-121"/>
     </g>
    </g>
   </g>
  </g>
 </g>
 <defs>
  <clipPath id="p812a6c3d42">
   <rect height="422.2" width="582.690114" x="92.99" y="41.64"/>
  </clipPath>
  <clipPath id="pcf6f3cfb0b">
   <rect height="422.2" width="582.690114" x="797.9825" y="41.64"/>
  </clipPath>
 </defs>
</svg>
