<?xml version="1.0" encoding="utf-8" standalone="no"?>
<!DOCTYPE svg PUBLIC "-//W3C//DTD SVG 1.1//EN"
  "http://www.w3.org/Graphics/SVG/1.1/DTD/svg11.dtd">
<!-- Created with matplotlib (https://matplotlib.org/) -->
<svg height="540pt" version="1.1" viewBox="0 0 1440 540" width="1440pt" xmlns="http://www.w3.org/2000/svg" xmlns:xlink="http://www.w3.org/1999/xlink">
 <defs>
  <style type="text/css">
*{stroke-linecap:butt;stroke-linejoin:round;}
  </style>
 </defs>
 <g id="figure_1">
  <g id="patch_1">
   <path d="M 0 540 
L 1440 540 
L 1440 0 
L 0 0 
z
" style="fill:#ffffff;"/>
  </g>
  <g id="axes_1">
   <g id="patch_2">
    <path d="M 92.99 463.84 
L 664.283864 463.84 
L 664.283864 41.64 
L 92.99 41.64 
z
" style="fill:#ffffff;"/>
   </g>
   <g id="matplotlib.axis_1">
    <g id="xtick_1">
     <g id="line2d_1">
      <defs>
       <path d="M 0 0 
L 0 3.5 
" id="m32147d1ee3" style="stroke:#000000;stroke-width:0.8;"/>
      </defs>
      <g>
       <use style="stroke:#000000;stroke-width:0.8;" x="118.957903" xlink:href="#m32147d1ee3" y="463.84"/>
      </g>
     </g>
     <g id="text_1">
      <!-- 0.0 -->
      <defs>
       <path d="M 31.78125 66.40625 
Q 24.171875 66.40625 20.328125 58.90625 
Q 16.5 51.421875 16.5 36.375 
Q 16.5 21.390625 20.328125 13.890625 
Q 24.171875 6.390625 31.78125 6.390625 
Q 39.453125 6.390625 43.28125 13.890625 
Q 47.125 21.390625 47.125 36.375 
Q 47.125 51.421875 43.28125 58.90625 
Q 39.453125 66.40625 31.78125 66.40625 
z
M 31.78125 74.21875 
Q 44.046875 74.21875 50.515625 64.515625 
Q 56.984375 54.828125 56.984375 36.375 
Q 56.984375 17.96875 50.515625 8.265625 
Q 44.046875 -1.421875 31.78125 -1.421875 
Q 19.53125 -1.421875 13.0625 8.265625 
Q 6.59375 17.96875 6.59375 36.375 
Q 6.59375 54.828125 13.0625 64.515625 
Q 19.53125 74.21875 31.78125 74.21875 
z
" id="DejaVuSans-48"/>
       <path d="M 10.6875 12.40625 
L 21 12.40625 
L 21 0 
L 10.6875 0 
z
" id="DejaVuSans-46"/>
      </defs>
      <g transform="translate(98.347453 490.53515)scale(0.2592 -0.2592)">
       <use xlink:href="#DejaVuSans-48"/>
       <use x="63.623047" xlink:href="#DejaVuSans-46"/>
       <use x="95.410156" xlink:href="#DejaVuSans-48"/>
      </g>
     </g>
    </g>
    <g id="xtick_2">
     <g id="line2d_2">
      <g>
       <use style="stroke:#000000;stroke-width:0.8;" x="248.797417" xlink:href="#m32147d1ee3" y="463.84"/>
      </g>
     </g>
     <g id="text_2">
      <!-- 0.1 -->
      <defs>
       <path d="M 12.40625 8.296875 
L 28.515625 8.296875 
L 28.515625 63.921875 
L 10.984375 60.40625 
L 10.984375 69.390625 
L 28.421875 72.90625 
L 38.28125 72.90625 
L 38.28125 8.296875 
L 54.390625 8.296875 
L 54.390625 0 
L 12.40625 0 
z
" id="DejaVuSans-49"/>
      </defs>
      <g transform="translate(228.186967 490.53515)scale(0.2592 -0.2592)">
       <use xlink:href="#DejaVuSans-48"/>
       <use x="63.623047" xlink:href="#DejaVuSans-46"/>
       <use x="95.410156" xlink:href="#DejaVuSans-49"/>
      </g>
     </g>
    </g>
    <g id="xtick_3">
     <g id="line2d_3">
      <g>
       <use style="stroke:#000000;stroke-width:0.8;" x="378.636932" xlink:href="#m32147d1ee3" y="463.84"/>
      </g>
     </g>
     <g id="text_3">
      <!-- 0.2 -->
      <defs>
       <path d="M 19.1875 8.296875 
L 53.609375 8.296875 
L 53.609375 0 
L 7.328125 0 
L 7.328125 8.296875 
Q 12.9375 14.109375 22.625 23.890625 
Q 32.328125 33.6875 34.8125 36.53125 
Q 39.546875 41.84375 41.421875 45.53125 
Q 43.3125 49.21875 43.3125 52.78125 
Q 43.3125 58.59375 39.234375 62.25 
Q 35.15625 65.921875 28.609375 65.921875 
Q 23.96875 65.921875 18.8125 64.3125 
Q 13.671875 62.703125 7.8125 59.421875 
L 7.8125 69.390625 
Q 13.765625 71.78125 18.9375 73 
Q 24.125 74.21875 28.421875 74.21875 
Q 39.75 74.21875 46.484375 68.546875 
Q 53.21875 62.890625 53.21875 53.421875 
Q 53.21875 48.921875 51.53125 44.890625 
Q 49.859375 40.875 45.40625 35.40625 
Q 44.1875 33.984375 37.640625 27.21875 
Q 31.109375 20.453125 19.1875 8.296875 
z
" id="DejaVuSans-50"/>
      </defs>
      <g transform="translate(358.026482 490.53515)scale(0.2592 -0.2592)">
       <use xlink:href="#DejaVuSans-48"/>
       <use x="63.623047" xlink:href="#DejaVuSans-46"/>
       <use x="95.410156" xlink:href="#DejaVuSans-50"/>
      </g>
     </g>
    </g>
    <g id="xtick_4">
     <g id="line2d_4">
      <g>
       <use style="stroke:#000000;stroke-width:0.8;" x="508.476446" xlink:href="#m32147d1ee3" y="463.84"/>
      </g>
     </g>
     <g id="text_4">
      <!-- 0.3 -->
      <defs>
       <path d="M 40.578125 39.3125 
Q 47.65625 37.796875 51.625 33 
Q 55.609375 28.21875 55.609375 21.1875 
Q 55.609375 10.40625 48.1875 4.484375 
Q 40.765625 -1.421875 27.09375 -1.421875 
Q 22.515625 -1.421875 17.65625 -0.515625 
Q 12.796875 0.390625 7.625 2.203125 
L 7.625 11.71875 
Q 11.71875 9.328125 16.59375 8.109375 
Q 21.484375 6.890625 26.8125 6.890625 
Q 36.078125 6.890625 40.9375 10.546875 
Q 45.796875 14.203125 45.796875 21.1875 
Q 45.796875 27.640625 41.28125 31.265625 
Q 36.765625 34.90625 28.71875 34.90625 
L 20.21875 34.90625 
L 20.21875 43.015625 
L 29.109375 43.015625 
Q 36.375 43.015625 40.234375 45.921875 
Q 44.09375 48.828125 44.09375 54.296875 
Q 44.09375 59.90625 40.109375 62.90625 
Q 36.140625 65.921875 28.71875 65.921875 
Q 24.65625 65.921875 20.015625 65.03125 
Q 15.375 64.15625 9.8125 62.3125 
L 9.8125 71.09375 
Q 15.4375 72.65625 20.34375 73.4375 
Q 25.25 74.21875 29.59375 74.21875 
Q 40.828125 74.21875 47.359375 69.109375 
Q 53.90625 64.015625 53.90625 55.328125 
Q 53.90625 49.265625 50.4375 45.09375 
Q 46.96875 40.921875 40.578125 39.3125 
z
" id="DejaVuSans-51"/>
      </defs>
      <g transform="translate(487.865996 490.53515)scale(0.2592 -0.2592)">
       <use xlink:href="#DejaVuSans-48"/>
       <use x="63.623047" xlink:href="#DejaVuSans-46"/>
       <use x="95.410156" xlink:href="#DejaVuSans-51"/>
      </g>
     </g>
    </g>
    <g id="xtick_5">
     <g id="line2d_5">
      <g>
       <use style="stroke:#000000;stroke-width:0.8;" x="638.315961" xlink:href="#m32147d1ee3" y="463.84"/>
      </g>
     </g>
     <g id="text_5">
      <!-- 0.4 -->
      <defs>
       <path d="M 37.796875 64.3125 
L 12.890625 25.390625 
L 37.796875 25.390625 
z
M 35.203125 72.90625 
L 47.609375 72.90625 
L 47.609375 25.390625 
L 58.015625 25.390625 
L 58.015625 17.1875 
L 47.609375 17.1875 
L 47.609375 0 
L 37.796875 0 
L 37.796875 17.1875 
L 4.890625 17.1875 
L 4.890625 26.703125 
z
" id="DejaVuSans-52"/>
      </defs>
      <g transform="translate(617.705511 490.53515)scale(0.2592 -0.2592)">
       <use xlink:href="#DejaVuSans-48"/>
       <use x="63.623047" xlink:href="#DejaVuSans-46"/>
       <use x="95.410156" xlink:href="#DejaVuSans-52"/>
      </g>
     </g>
    </g>
    <g id="text_6">
     <!-- PcaRatioW Cutoff -->
     <defs>
      <path d="M 19.671875 64.796875 
L 19.671875 37.40625 
L 32.078125 37.40625 
Q 38.96875 37.40625 42.71875 40.96875 
Q 46.484375 44.53125 46.484375 51.125 
Q 46.484375 57.671875 42.71875 61.234375 
Q 38.96875 64.796875 32.078125 64.796875 
z
M 9.8125 72.90625 
L 32.078125 72.90625 
Q 44.34375 72.90625 50.609375 67.359375 
Q 56.890625 61.8125 56.890625 51.125 
Q 56.890625 40.328125 50.609375 34.8125 
Q 44.34375 29.296875 32.078125 29.296875 
L 19.671875 29.296875 
L 19.671875 0 
L 9.8125 0 
z
" id="DejaVuSans-80"/>
      <path d="M 48.78125 52.59375 
L 48.78125 44.1875 
Q 44.96875 46.296875 41.140625 47.34375 
Q 37.3125 48.390625 33.40625 48.390625 
Q 24.65625 48.390625 19.8125 42.84375 
Q 14.984375 37.3125 14.984375 27.296875 
Q 14.984375 17.28125 19.8125 11.734375 
Q 24.65625 6.203125 33.40625 6.203125 
Q 37.3125 6.203125 41.140625 7.25 
Q 44.96875 8.296875 48.78125 10.40625 
L 48.78125 2.09375 
Q 45.015625 0.34375 40.984375 -0.53125 
Q 36.96875 -1.421875 32.421875 -1.421875 
Q 20.0625 -1.421875 12.78125 6.34375 
Q 5.515625 14.109375 5.515625 27.296875 
Q 5.515625 40.671875 12.859375 48.328125 
Q 20.21875 56 33.015625 56 
Q 37.15625 56 41.109375 55.140625 
Q 45.0625 54.296875 48.78125 52.59375 
z
" id="DejaVuSans-99"/>
      <path d="M 34.28125 27.484375 
Q 23.390625 27.484375 19.1875 25 
Q 14.984375 22.515625 14.984375 16.5 
Q 14.984375 11.71875 18.140625 8.90625 
Q 21.296875 6.109375 26.703125 6.109375 
Q 34.1875 6.109375 38.703125 11.40625 
Q 43.21875 16.703125 43.21875 25.484375 
L 43.21875 27.484375 
z
M 52.203125 31.203125 
L 52.203125 0 
L 43.21875 0 
L 43.21875 8.296875 
Q 40.140625 3.328125 35.546875 0.953125 
Q 30.953125 -1.421875 24.3125 -1.421875 
Q 15.921875 -1.421875 10.953125 3.296875 
Q 6 8.015625 6 15.921875 
Q 6 25.140625 12.171875 29.828125 
Q 18.359375 34.515625 30.609375 34.515625 
L 43.21875 34.515625 
L 43.21875 35.40625 
Q 43.21875 41.609375 39.140625 45 
Q 35.0625 48.390625 27.6875 48.390625 
Q 23 48.390625 18.546875 47.265625 
Q 14.109375 46.140625 10.015625 43.890625 
L 10.015625 52.203125 
Q 14.9375 54.109375 19.578125 55.046875 
Q 24.21875 56 28.609375 56 
Q 40.484375 56 46.34375 49.84375 
Q 52.203125 43.703125 52.203125 31.203125 
z
" id="DejaVuSans-97"/>
      <path d="M 44.390625 34.1875 
Q 47.5625 33.109375 50.5625 29.59375 
Q 53.5625 26.078125 56.59375 19.921875 
L 66.609375 0 
L 56 0 
L 46.6875 18.703125 
Q 43.0625 26.03125 39.671875 28.421875 
Q 36.28125 30.8125 30.421875 30.8125 
L 19.671875 30.8125 
L 19.671875 0 
L 9.8125 0 
L 9.8125 72.90625 
L 32.078125 72.90625 
Q 44.578125 72.90625 50.734375 67.671875 
Q 56.890625 62.453125 56.890625 51.90625 
Q 56.890625 45.015625 53.6875 40.46875 
Q 50.484375 35.9375 44.390625 34.1875 
z
M 19.671875 64.796875 
L 19.671875 38.921875 
L 32.078125 38.921875 
Q 39.203125 38.921875 42.84375 42.21875 
Q 46.484375 45.515625 46.484375 51.90625 
Q 46.484375 58.296875 42.84375 61.546875 
Q 39.203125 64.796875 32.078125 64.796875 
z
" id="DejaVuSans-82"/>
      <path d="M 18.3125 70.21875 
L 18.3125 54.6875 
L 36.8125 54.6875 
L 36.8125 47.703125 
L 18.3125 47.703125 
L 18.3125 18.015625 
Q 18.3125 11.328125 20.140625 9.421875 
Q 21.96875 7.515625 27.59375 7.515625 
L 36.8125 7.515625 
L 36.8125 0 
L 27.59375 0 
Q 17.1875 0 13.234375 3.875 
Q 9.28125 7.765625 9.28125 18.015625 
L 9.28125 47.703125 
L 2.6875 47.703125 
L 2.6875 54.6875 
L 9.28125 54.6875 
L 9.28125 70.21875 
z
" id="DejaVuSans-116"/>
      <path d="M 9.421875 54.6875 
L 18.40625 54.6875 
L 18.40625 0 
L 9.421875 0 
z
M 9.421875 75.984375 
L 18.40625 75.984375 
L 18.40625 64.59375 
L 9.421875 64.59375 
z
" id="DejaVuSans-105"/>
      <path d="M 30.609375 48.390625 
Q 23.390625 48.390625 19.1875 42.75 
Q 14.984375 37.109375 14.984375 27.296875 
Q 14.984375 17.484375 19.15625 11.84375 
Q 23.34375 6.203125 30.609375 6.203125 
Q 37.796875 6.203125 41.984375 11.859375 
Q 46.1875 17.53125 46.1875 27.296875 
Q 46.1875 37.015625 41.984375 42.703125 
Q 37.796875 48.390625 30.609375 48.390625 
z
M 30.609375 56 
Q 42.328125 56 49.015625 48.375 
Q 55.71875 40.765625 55.71875 27.296875 
Q 55.71875 13.875 49.015625 6.21875 
Q 42.328125 -1.421875 30.609375 -1.421875 
Q 18.84375 -1.421875 12.171875 6.21875 
Q 5.515625 13.875 5.515625 27.296875 
Q 5.515625 40.765625 12.171875 48.375 
Q 18.84375 56 30.609375 56 
z
" id="DejaVuSans-111"/>
      <path d="M 3.328125 72.90625 
L 13.28125 72.90625 
L 28.609375 11.28125 
L 43.890625 72.90625 
L 54.984375 72.90625 
L 70.3125 11.28125 
L 85.59375 72.90625 
L 95.609375 72.90625 
L 77.296875 0 
L 64.890625 0 
L 49.515625 63.28125 
L 33.984375 0 
L 21.578125 0 
z
" id="DejaVuSans-87"/>
      <path id="DejaVuSans-32"/>
      <path d="M 64.40625 67.28125 
L 64.40625 56.890625 
Q 59.421875 61.53125 53.78125 63.8125 
Q 48.140625 66.109375 41.796875 66.109375 
Q 29.296875 66.109375 22.65625 58.46875 
Q 16.015625 50.828125 16.015625 36.375 
Q 16.015625 21.96875 22.65625 14.328125 
Q 29.296875 6.6875 41.796875 6.6875 
Q 48.140625 6.6875 53.78125 8.984375 
Q 59.421875 11.28125 64.40625 15.921875 
L 64.40625 5.609375 
Q 59.234375 2.09375 53.4375 0.328125 
Q 47.65625 -1.421875 41.21875 -1.421875 
Q 24.65625 -1.421875 15.125 8.703125 
Q 5.609375 18.84375 5.609375 36.375 
Q 5.609375 53.953125 15.125 64.078125 
Q 24.65625 74.21875 41.21875 74.21875 
Q 47.75 74.21875 53.53125 72.484375 
Q 59.328125 70.75 64.40625 67.28125 
z
" id="DejaVuSans-67"/>
      <path d="M 8.5 21.578125 
L 8.5 54.6875 
L 17.484375 54.6875 
L 17.484375 21.921875 
Q 17.484375 14.15625 20.5 10.265625 
Q 23.53125 6.390625 29.59375 6.390625 
Q 36.859375 6.390625 41.078125 11.03125 
Q 45.3125 15.671875 45.3125 23.6875 
L 45.3125 54.6875 
L 54.296875 54.6875 
L 54.296875 0 
L 45.3125 0 
L 45.3125 8.40625 
Q 42.046875 3.421875 37.71875 1 
Q 33.40625 -1.421875 27.6875 -1.421875 
Q 18.265625 -1.421875 13.375 4.4375 
Q 8.5 10.296875 8.5 21.578125 
z
M 31.109375 56 
z
" id="DejaVuSans-117"/>
      <path d="M 37.109375 75.984375 
L 37.109375 68.5 
L 28.515625 68.5 
Q 23.6875 68.5 21.796875 66.546875 
Q 19.921875 64.59375 19.921875 59.515625 
L 19.921875 54.6875 
L 34.71875 54.6875 
L 34.71875 47.703125 
L 19.921875 47.703125 
L 19.921875 0 
L 10.890625 0 
L 10.890625 47.703125 
L 2.296875 47.703125 
L 2.296875 54.6875 
L 10.890625 54.6875 
L 10.890625 58.5 
Q 10.890625 67.625 15.140625 71.796875 
Q 19.390625 75.984375 28.609375 75.984375 
z
" id="DejaVuSans-102"/>
     </defs>
     <g transform="translate(265.868732 519.62085)scale(0.2592 -0.2592)">
      <use xlink:href="#DejaVuSans-80"/>
      <use x="60.302734" xlink:href="#DejaVuSans-99"/>
      <use x="115.283203" xlink:href="#DejaVuSans-97"/>
      <use x="176.5625" xlink:href="#DejaVuSans-82"/>
      <use x="246.013672" xlink:href="#DejaVuSans-97"/>
      <use x="307.292969" xlink:href="#DejaVuSans-116"/>
      <use x="346.501953" xlink:href="#DejaVuSans-105"/>
      <use x="374.285156" xlink:href="#DejaVuSans-111"/>
      <use x="435.466797" xlink:href="#DejaVuSans-87"/>
      <use x="534.34375" xlink:href="#DejaVuSans-32"/>
      <use x="566.130859" xlink:href="#DejaVuSans-67"/>
      <use x="635.955078" xlink:href="#DejaVuSans-117"/>
      <use x="699.333984" xlink:href="#DejaVuSans-116"/>
      <use x="738.542969" xlink:href="#DejaVuSans-111"/>
      <use x="799.724609" xlink:href="#DejaVuSans-102"/>
      <use x="834.929688" xlink:href="#DejaVuSans-102"/>
     </g>
    </g>
   </g>
   <g id="matplotlib.axis_2">
    <g id="ytick_1">
     <g id="line2d_6">
      <defs>
       <path d="M 0 0 
L -3.5 0 
" id="m0c3f8ec6ff" style="stroke:#000000;stroke-width:0.8;"/>
      </defs>
      <g>
       <use style="stroke:#000000;stroke-width:0.8;" x="92.99" xlink:href="#m0c3f8ec6ff" y="463.84"/>
      </g>
     </g>
     <g id="text_7">
      <!-- 0.0 -->
      <g transform="translate(44.7691 473.687575)scale(0.2592 -0.2592)">
       <use xlink:href="#DejaVuSans-48"/>
       <use x="63.623047" xlink:href="#DejaVuSans-46"/>
       <use x="95.410156" xlink:href="#DejaVuSans-48"/>
      </g>
     </g>
    </g>
    <g id="ytick_2">
     <g id="line2d_7">
      <g>
       <use style="stroke:#000000;stroke-width:0.8;" x="92.99" xlink:href="#m0c3f8ec6ff" y="379.4"/>
      </g>
     </g>
     <g id="text_8">
      <!-- 0.2 -->
      <g transform="translate(44.7691 389.247575)scale(0.2592 -0.2592)">
       <use xlink:href="#DejaVuSans-48"/>
       <use x="63.623047" xlink:href="#DejaVuSans-46"/>
       <use x="95.410156" xlink:href="#DejaVuSans-50"/>
      </g>
     </g>
    </g>
    <g id="ytick_3">
     <g id="line2d_8">
      <g>
       <use style="stroke:#000000;stroke-width:0.8;" x="92.99" xlink:href="#m0c3f8ec6ff" y="294.96"/>
      </g>
     </g>
     <g id="text_9">
      <!-- 0.4 -->
      <g transform="translate(44.7691 304.807575)scale(0.2592 -0.2592)">
       <use xlink:href="#DejaVuSans-48"/>
       <use x="63.623047" xlink:href="#DejaVuSans-46"/>
       <use x="95.410156" xlink:href="#DejaVuSans-52"/>
      </g>
     </g>
    </g>
    <g id="ytick_4">
     <g id="line2d_9">
      <g>
       <use style="stroke:#000000;stroke-width:0.8;" x="92.99" xlink:href="#m0c3f8ec6ff" y="210.52"/>
      </g>
     </g>
     <g id="text_10">
      <!-- 0.6 -->
      <defs>
       <path d="M 33.015625 40.375 
Q 26.375 40.375 22.484375 35.828125 
Q 18.609375 31.296875 18.609375 23.390625 
Q 18.609375 15.53125 22.484375 10.953125 
Q 26.375 6.390625 33.015625 6.390625 
Q 39.65625 6.390625 43.53125 10.953125 
Q 47.40625 15.53125 47.40625 23.390625 
Q 47.40625 31.296875 43.53125 35.828125 
Q 39.65625 40.375 33.015625 40.375 
z
M 52.59375 71.296875 
L 52.59375 62.3125 
Q 48.875 64.0625 45.09375 64.984375 
Q 41.3125 65.921875 37.59375 65.921875 
Q 27.828125 65.921875 22.671875 59.328125 
Q 17.53125 52.734375 16.796875 39.40625 
Q 19.671875 43.65625 24.015625 45.921875 
Q 28.375 48.1875 33.59375 48.1875 
Q 44.578125 48.1875 50.953125 41.515625 
Q 57.328125 34.859375 57.328125 23.390625 
Q 57.328125 12.15625 50.6875 5.359375 
Q 44.046875 -1.421875 33.015625 -1.421875 
Q 20.359375 -1.421875 13.671875 8.265625 
Q 6.984375 17.96875 6.984375 36.375 
Q 6.984375 53.65625 15.1875 63.9375 
Q 23.390625 74.21875 37.203125 74.21875 
Q 40.921875 74.21875 44.703125 73.484375 
Q 48.484375 72.75 52.59375 71.296875 
z
" id="DejaVuSans-54"/>
      </defs>
      <g transform="translate(44.7691 220.367575)scale(0.2592 -0.2592)">
       <use xlink:href="#DejaVuSans-48"/>
       <use x="63.623047" xlink:href="#DejaVuSans-46"/>
       <use x="95.410156" xlink:href="#DejaVuSans-54"/>
      </g>
     </g>
    </g>
    <g id="ytick_5">
     <g id="line2d_10">
      <g>
       <use style="stroke:#000000;stroke-width:0.8;" x="92.99" xlink:href="#m0c3f8ec6ff" y="126.08"/>
      </g>
     </g>
     <g id="text_11">
      <!-- 0.8 -->
      <defs>
       <path d="M 31.78125 34.625 
Q 24.75 34.625 20.71875 30.859375 
Q 16.703125 27.09375 16.703125 20.515625 
Q 16.703125 13.921875 20.71875 10.15625 
Q 24.75 6.390625 31.78125 6.390625 
Q 38.8125 6.390625 42.859375 10.171875 
Q 46.921875 13.96875 46.921875 20.515625 
Q 46.921875 27.09375 42.890625 30.859375 
Q 38.875 34.625 31.78125 34.625 
z
M 21.921875 38.8125 
Q 15.578125 40.375 12.03125 44.71875 
Q 8.5 49.078125 8.5 55.328125 
Q 8.5 64.0625 14.71875 69.140625 
Q 20.953125 74.21875 31.78125 74.21875 
Q 42.671875 74.21875 48.875 69.140625 
Q 55.078125 64.0625 55.078125 55.328125 
Q 55.078125 49.078125 51.53125 44.71875 
Q 48 40.375 41.703125 38.8125 
Q 48.828125 37.15625 52.796875 32.3125 
Q 56.78125 27.484375 56.78125 20.515625 
Q 56.78125 9.90625 50.3125 4.234375 
Q 43.84375 -1.421875 31.78125 -1.421875 
Q 19.734375 -1.421875 13.25 4.234375 
Q 6.78125 9.90625 6.78125 20.515625 
Q 6.78125 27.484375 10.78125 32.3125 
Q 14.796875 37.15625 21.921875 38.8125 
z
M 18.3125 54.390625 
Q 18.3125 48.734375 21.84375 45.5625 
Q 25.390625 42.390625 31.78125 42.390625 
Q 38.140625 42.390625 41.71875 45.5625 
Q 45.3125 48.734375 45.3125 54.390625 
Q 45.3125 60.0625 41.71875 63.234375 
Q 38.140625 66.40625 31.78125 66.40625 
Q 25.390625 66.40625 21.84375 63.234375 
Q 18.3125 60.0625 18.3125 54.390625 
z
" id="DejaVuSans-56"/>
      </defs>
      <g transform="translate(44.7691 135.927575)scale(0.2592 -0.2592)">
       <use xlink:href="#DejaVuSans-48"/>
       <use x="63.623047" xlink:href="#DejaVuSans-46"/>
       <use x="95.410156" xlink:href="#DejaVuSans-56"/>
      </g>
     </g>
    </g>
    <g id="ytick_6">
     <g id="line2d_11">
      <g>
       <use style="stroke:#000000;stroke-width:0.8;" x="92.99" xlink:href="#m0c3f8ec6ff" y="41.64"/>
      </g>
     </g>
     <g id="text_12">
      <!-- 1.0 -->
      <g transform="translate(44.7691 51.487575)scale(0.2592 -0.2592)">
       <use xlink:href="#DejaVuSans-49"/>
       <use x="63.623047" xlink:href="#DejaVuSans-46"/>
       <use x="95.410156" xlink:href="#DejaVuSans-48"/>
      </g>
     </g>
    </g>
    <g id="text_13">
     <!-- Fraction -->
     <defs>
      <path d="M 9.8125 72.90625 
L 51.703125 72.90625 
L 51.703125 64.59375 
L 19.671875 64.59375 
L 19.671875 43.109375 
L 48.578125 43.109375 
L 48.578125 34.8125 
L 19.671875 34.8125 
L 19.671875 0 
L 9.8125 0 
z
" id="DejaVuSans-70"/>
      <path d="M 41.109375 46.296875 
Q 39.59375 47.171875 37.8125 47.578125 
Q 36.03125 48 33.890625 48 
Q 26.265625 48 22.1875 43.046875 
Q 18.109375 38.09375 18.109375 28.8125 
L 18.109375 0 
L 9.078125 0 
L 9.078125 54.6875 
L 18.109375 54.6875 
L 18.109375 46.1875 
Q 20.953125 51.171875 25.484375 53.578125 
Q 30.03125 56 36.53125 56 
Q 37.453125 56 38.578125 55.875 
Q 39.703125 55.765625 41.0625 55.515625 
z
" id="DejaVuSans-114"/>
      <path d="M 54.890625 33.015625 
L 54.890625 0 
L 45.90625 0 
L 45.90625 32.71875 
Q 45.90625 40.484375 42.875 44.328125 
Q 39.84375 48.1875 33.796875 48.1875 
Q 26.515625 48.1875 22.3125 43.546875 
Q 18.109375 38.921875 18.109375 30.90625 
L 18.109375 0 
L 9.078125 0 
L 9.078125 54.6875 
L 18.109375 54.6875 
L 18.109375 46.1875 
Q 21.34375 51.125 25.703125 53.5625 
Q 30.078125 56 35.796875 56 
Q 45.21875 56 50.046875 50.171875 
Q 54.890625 44.34375 54.890625 33.015625 
z
" id="DejaVuSans-110"/>
     </defs>
     <g transform="translate(35.37855 305.400125)rotate(-90)scale(0.2592 -0.2592)">
      <use xlink:href="#DejaVuSans-70"/>
      <use x="57.410156" xlink:href="#DejaVuSans-114"/>
      <use x="98.523438" xlink:href="#DejaVuSans-97"/>
      <use x="159.802734" xlink:href="#DejaVuSans-99"/>
      <use x="214.783203" xlink:href="#DejaVuSans-116"/>
      <use x="253.992188" xlink:href="#DejaVuSans-105"/>
      <use x="281.775391" xlink:href="#DejaVuSans-111"/>
      <use x="342.957031" xlink:href="#DejaVuSans-110"/>
     </g>
    </g>
   </g>
   <g id="line2d_12">
    <path clip-path="url(#p768df75aea)" d="M 118.957903 463.84 
L 119.477781 326.573619 
L 119.997659 268.590406 
L 120.517537 235.830825 
L 121.557293 195.301742 
L 122.077171 181.677867 
L 123.116926 162.38646 
L 124.156682 149.229689 
L 126.236194 132.709767 
L 127.795828 123.647944 
L 128.835584 118.727778 
L 130.395217 112.562002 
L 132.474729 106.380655 
L 134.554241 101.117947 
L 136.633753 97.10085 
L 138.193387 94.282654 
L 142.872288 87.447361 
L 144.431922 85.438813 
L 144.9518 84.582455 
L 145.991556 83.399124 
L 146.511433 83.02544 
L 148.590945 81.063602 
L 150.670457 79.397597 
L 156.908992 74.30616 
L 157.948748 73.792345 
L 162.107772 71.472394 
L 163.667405 70.522615 
L 165.227039 69.806389 
L 166.266795 69.463846 
L 169.905941 67.828981 
L 177.70411 64.637101 
L 179.783621 64.138857 
L 180.823377 63.671752 
L 182.383011 63.37592 
L 183.422767 63.048947 
L 186.542035 62.28601 
L 188.101668 61.725485 
L 189.141424 61.507503 
L 192.78057 60.869127 
L 193.820326 60.620004 
L 194.860082 60.417593 
L 201.618495 59.07856 
L 206.817274 58.377904 
L 207.85703 58.113211 
L 212.535931 57.241283 
L 214.615443 57.038872 
L 230.211781 54.781201 
L 231.771415 54.68778 
L 234.890683 54.298526 
L 239.049706 53.784712 
L 246.327997 53.068485 
L 247.367753 52.897213 
L 248.927387 52.741512 
L 249.967143 52.601381 
L 257.245434 51.838444 
L 260.364701 51.542611 
L 264.003847 51.215638 
L 267.642993 50.997656 
L 272.321894 50.670683 
L 277.520673 50.421561 
L 279.080307 50.31257 
L 282.199575 50.125728 
L 285.318842 49.861036 
L 288.43811 49.767615 
L 291.0375 49.627483 
L 292.597133 49.549633 
L 296.756157 49.26937 
L 298.835669 49.191519 
L 301.435058 49.035818 
L 304.554326 48.926827 
L 309.753105 48.693275 
L 311.312739 48.615424 
L 315.991641 48.366302 
L 318.59103 48.241741 
L 322.230176 48.13275 
L 325.869321 48.023759 
L 332.627735 47.727926 
L 337.306636 47.618935 
L 357.061997 46.933849 
L 360.181265 46.762577 
L 385.135406 46.124201 
L 393.453453 46.03078 
L 395.532965 45.95293 
L 414.24857 45.501395 
L 421.526862 45.392404 
L 429.844908 45.252273 
L 437.643078 45.143282 
L 440.762345 45.065431 
L 447.520758 44.95644 
L 455.318927 44.831879 
L 466.236364 44.722888 
L 474.034533 44.598327 
L 477.153801 44.489336 
L 479.75319 44.442626 
L 484.95197 44.349205 
L 487.551359 44.302494 
L 497.948918 44.193503 
L 505.227209 44.084512 
L 518.224158 43.975521 
L 523.942815 43.913241 
L 537.459641 43.80425 
L 540.059031 43.741969 
L 556.175247 43.632978 
L 561.893904 43.570698 
L 571.251707 43.461707 
L 577.490242 43.383856 
L 585.288411 43.274865 
L 590.487191 43.228155 
L 606.083529 43.119164 
L 610.76243 43.088023 
L 631.557548 42.979032 
L 636.236449 42.947892 
L 638.315961 42.932322 
L 638.315961 42.932322 
" style="fill:none;stroke:#0000ff;stroke-linecap:square;stroke-width:1.5;"/>
   </g>
   <g id="line2d_13">
    <path clip-path="url(#p768df75aea)" d="M 119.477781 42.547957 
L 120.517537 44.133476 
L 122.077171 47.044859 
L 123.636804 50.808295 
L 125.196438 55.787345 
L 126.756072 60.195969 
L 128.315706 64.578754 
L 129.87534 67.855379 
L 134.034363 78.028527 
L 135.593997 81.018536 
L 136.633753 83.640474 
L 138.713264 88.043765 
L 139.75302 89.793859 
L 141.832532 93.202887 
L 147.551189 102.089151 
L 148.590945 103.282637 
L 149.110823 103.832773 
L 151.190335 106.662759 
L 152.230091 107.878157 
L 152.749969 108.276748 
L 154.309603 109.782665 
L 157.42887 112.635713 
L 158.468626 113.592414 
L 160.02826 114.730717 
L 161.587894 115.889061 
L 162.107772 116.100426 
L 165.746917 118.515237 
L 166.786673 119.2244 
L 170.945696 121.581445 
L 172.50533 122.389951 
L 173.545086 123.038729 
L 174.584842 123.553642 
L 175.624598 124.016277 
L 179.263743 125.531534 
L 180.823377 125.95116 
L 182.383011 126.531144 
L 184.982401 127.461181 
L 186.022157 127.862842 
L 188.621546 128.872798 
L 190.18118 129.471674 
L 192.260692 130.081541 
L 194.860082 130.713683 
L 195.899837 130.895237 
L 196.939593 131.223996 
L 198.499227 131.552015 
L 202.138373 132.562839 
L 210.976298 134.394722 
L 214.095565 134.947484 
L 216.175077 135.261103 
L 219.294344 135.796466 
L 220.3341 135.967271 
L 231.771415 137.625016 
L 236.970194 138.216364 
L 239.049706 138.483476 
L 241.649096 138.718739 
L 244.248485 139.060347 
L 255.165922 139.839721 
L 257.245434 140.028105 
L 268.16287 140.800598 
L 270.76226 140.946814 
L 282.719453 141.686417 
L 284.798964 141.824077 
L 288.43811 142.056639 
L 295.196523 142.432885 
L 302.994692 142.840776 
L 318.071152 143.347452 
L 319.630786 143.512279 
L 325.349443 143.786321 
L 333.147612 144.100279 
L 335.747002 144.266525 
L 344.065049 144.555055 
L 347.704195 144.748245 
L 358.101753 145.086201 
L 359.661387 145.128442 
L 373.698091 145.477384 
L 379.936627 145.695529 
L 388.254674 145.892473 
L 395.532965 146.121626 
L 417.887716 146.472495 
L 421.006984 146.522896 
L 504.187453 147.840566 
L 509.386233 147.904838 
L 517.70428 148.030324 
L 523.942815 148.085633 
L 528.621716 148.135206 
L 585.288411 148.663143 
L 595.68597 148.715061 
L 611.802186 148.880012 
L 621.159989 148.93198 
L 638.315961 149.128353 
L 638.315961 149.128353 
" style="fill:none;stroke:#ff0000;stroke-linecap:square;stroke-width:1.5;"/>
   </g>
   <g id="line2d_14">
    <path clip-path="url(#p768df75aea)" d="M 119.477781 326.868815 
L 119.997659 269.350373 
L 120.517537 237.177427 
L 121.037415 215.261266 
L 121.557293 198.151649 
L 122.077171 185.29001 
L 123.116926 168.039382 
L 123.636804 161.910717 
L 124.156682 157.389173 
L 126.236194 146.067938 
L 127.27595 142.453875 
L 128.835584 138.305385 
L 130.395217 135.443907 
L 130.915095 135.204937 
L 132.474729 133.928376 
L 133.514485 133.529613 
L 134.034363 133.618047 
L 134.554241 133.207572 
L 135.074119 133.202205 
L 135.593997 133.0713 
L 136.633753 133.584076 
L 137.673509 133.718624 
L 138.713264 134.207552 
L 139.233142 134.260025 
L 139.75302 134.45979 
L 140.272898 134.422783 
L 140.792776 134.630815 
L 141.312654 134.521757 
L 143.912044 135.364718 
L 144.431922 135.43647 
L 144.9518 135.332646 
L 146.511433 136.114367 
L 147.551189 136.668669 
L 149.630701 137.341493 
L 151.190335 138.236511 
L 152.749969 138.632587 
L 154.309603 138.873967 
L 156.389114 139.247618 
L 156.908992 139.319267 
L 157.948748 139.865073 
L 158.988504 140.098841 
L 159.508382 140.194528 
L 160.548138 140.579825 
L 161.068016 140.560301 
L 161.587894 140.680373 
L 163.147527 140.762306 
L 165.227039 141.263459 
L 167.306551 141.827591 
L 169.905941 142.220935 
L 170.945696 142.521368 
L 171.465574 142.587284 
L 171.985452 142.507588 
L 173.545086 143.009713 
L 174.064964 143.073986 
L 175.10472 143.059827 
L 176.664354 143.226577 
L 178.223988 143.411011 
L 179.783621 143.68249 
L 180.823377 143.583285 
L 182.383011 143.896654 
L 183.422767 144.009808 
L 189.661302 144.988585 
L 191.740814 145.334114 
L 194.860082 145.529671 
L 196.419715 145.589041 
L 199.538983 145.910932 
L 200.058861 146.029865 
L 201.098617 146.046331 
L 202.138373 146.197052 
L 204.217884 146.403222 
L 206.297396 146.73846 
L 211.496175 146.810553 
L 212.535931 146.83042 
L 213.055809 146.91433 
L 214.095565 146.955287 
L 215.135321 147.064743 
L 218.254589 147.21027 
L 219.814222 147.283742 
L 220.853978 147.241659 
L 222.93349 147.377587 
L 226.052758 147.424516 
L 227.612391 147.508606 
L 228.652147 147.480532 
L 231.771415 147.70645 
L 235.410561 147.737064 
L 236.450316 147.647184 
L 239.049706 147.842456 
L 242.168974 147.902237 
L 246.327997 147.939283 
L 247.887631 147.848949 
L 251.006899 147.734455 
L 260.884579 147.877337 
L 271.802016 147.915006 
L 272.841772 147.97311 
L 274.921284 148.006613 
L 279.080307 148.04958 
L 281.679697 148.107868 
L 299.875425 148.374639 
L 300.91518 148.373308 
L 302.994692 148.428312 
L 312.352495 148.445733 
L 313.392251 148.378971 
L 330.548223 148.694013 
L 332.627735 148.683984 
L 337.826514 148.852343 
L 344.065049 148.876399 
L 347.184317 148.978581 
L 352.383096 149.004224 
L 354.982486 149.043384 
L 370.578824 149.039835 
L 372.658336 149.010969 
L 387.734796 149.192968 
L 392.933575 149.396231 
L 396.052843 149.361438 
L 398.132354 149.309006 
L 401.251622 149.370921 
L 404.890768 149.327285 
L 416.84796 149.295996 
L 421.526862 149.351923 
L 428.285275 149.384509 
L 430.364786 149.396263 
L 439.722589 149.390741 
L 441.282223 149.405428 
L 536.419885 149.834724 
L 609.722674 149.942902 
L 618.560599 149.983085 
L 636.236449 150.080266 
L 638.315961 150.091661 
L 638.315961 150.091661 
" style="fill:none;stroke:#008000;stroke-linecap:square;stroke-width:1.5;"/>
   </g>
   <g id="line2d_15">
    <path clip-path="url(#p768df75aea)" d="M 135.593997 463.84 
L 135.593997 41.64 
" style="fill:none;stroke:#1f77b4;stroke-linecap:square;stroke-width:1.5;"/>
   </g>
   <g id="patch_3">
    <path d="M 92.99 463.84 
L 92.99 41.64 
" style="fill:none;stroke:#000000;stroke-linecap:square;stroke-linejoin:miter;stroke-width:0.8;"/>
   </g>
   <g id="patch_4">
    <path d="M 664.283864 463.84 
L 664.283864 41.64 
" style="fill:none;stroke:#000000;stroke-linecap:square;stroke-linejoin:miter;stroke-width:0.8;"/>
   </g>
   <g id="patch_5">
    <path d="M 92.99 463.84 
L 664.283864 463.84 
" style="fill:none;stroke:#000000;stroke-linecap:square;stroke-linejoin:miter;stroke-width:0.8;"/>
   </g>
   <g id="patch_6">
    <path d="M 92.99 41.64 
L 664.283864 41.64 
" style="fill:none;stroke:#000000;stroke-linecap:square;stroke-linejoin:miter;stroke-width:0.8;"/>
   </g>
   <g id="text_14">
    <!-- Purity/Efficiency vs PcaRatioW Cutoff — track -->
    <defs>
     <path d="M 32.171875 -5.078125 
Q 28.375 -14.84375 24.75 -17.8125 
Q 21.140625 -20.796875 15.09375 -20.796875 
L 7.90625 -20.796875 
L 7.90625 -13.28125 
L 13.1875 -13.28125 
Q 16.890625 -13.28125 18.9375 -11.515625 
Q 21 -9.765625 23.484375 -3.21875 
L 25.09375 0.875 
L 2.984375 54.6875 
L 12.5 54.6875 
L 29.59375 11.921875 
L 46.6875 54.6875 
L 56.203125 54.6875 
z
" id="DejaVuSans-121"/>
     <path d="M 25.390625 72.90625 
L 33.6875 72.90625 
L 8.296875 -9.28125 
L 0 -9.28125 
z
" id="DejaVuSans-47"/>
     <path d="M 9.8125 72.90625 
L 55.90625 72.90625 
L 55.90625 64.59375 
L 19.671875 64.59375 
L 19.671875 43.015625 
L 54.390625 43.015625 
L 54.390625 34.71875 
L 19.671875 34.71875 
L 19.671875 8.296875 
L 56.78125 8.296875 
L 56.78125 0 
L 9.8125 0 
z
" id="DejaVuSans-69"/>
     <path d="M 56.203125 29.59375 
L 56.203125 25.203125 
L 14.890625 25.203125 
Q 15.484375 15.921875 20.484375 11.0625 
Q 25.484375 6.203125 34.421875 6.203125 
Q 39.59375 6.203125 44.453125 7.46875 
Q 49.3125 8.734375 54.109375 11.28125 
L 54.109375 2.78125 
Q 49.265625 0.734375 44.1875 -0.34375 
Q 39.109375 -1.421875 33.890625 -1.421875 
Q 20.796875 -1.421875 13.15625 6.1875 
Q 5.515625 13.8125 5.515625 26.8125 
Q 5.515625 40.234375 12.765625 48.109375 
Q 20.015625 56 32.328125 56 
Q 43.359375 56 49.78125 48.890625 
Q 56.203125 41.796875 56.203125 29.59375 
z
M 47.21875 32.234375 
Q 47.125 39.59375 43.09375 43.984375 
Q 39.0625 48.390625 32.421875 48.390625 
Q 24.90625 48.390625 20.390625 44.140625 
Q 15.875 39.890625 15.1875 32.171875 
z
" id="DejaVuSans-101"/>
     <path d="M 2.984375 54.6875 
L 12.5 54.6875 
L 29.59375 8.796875 
L 46.6875 54.6875 
L 56.203125 54.6875 
L 35.6875 0 
L 23.484375 0 
z
" id="DejaVuSans-118"/>
     <path d="M 44.28125 53.078125 
L 44.28125 44.578125 
Q 40.484375 46.53125 36.375 47.5 
Q 32.28125 48.484375 27.875 48.484375 
Q 21.1875 48.484375 17.84375 46.4375 
Q 14.5 44.390625 14.5 40.28125 
Q 14.5 37.15625 16.890625 35.375 
Q 19.28125 33.59375 26.515625 31.984375 
L 29.59375 31.296875 
Q 39.15625 29.25 43.1875 25.515625 
Q 47.21875 21.78125 47.21875 15.09375 
Q 47.21875 7.46875 41.1875 3.015625 
Q 35.15625 -1.421875 24.609375 -1.421875 
Q 20.21875 -1.421875 15.453125 -0.5625 
Q 10.6875 0.296875 5.421875 2 
L 5.421875 11.28125 
Q 10.40625 8.6875 15.234375 7.390625 
Q 20.0625 6.109375 24.8125 6.109375 
Q 31.15625 6.109375 34.5625 8.28125 
Q 37.984375 10.453125 37.984375 14.40625 
Q 37.984375 18.0625 35.515625 20.015625 
Q 33.0625 21.96875 24.703125 23.78125 
L 21.578125 24.515625 
Q 13.234375 26.265625 9.515625 29.90625 
Q 5.8125 33.546875 5.8125 39.890625 
Q 5.8125 47.609375 11.28125 51.796875 
Q 16.75 56 26.8125 56 
Q 31.78125 56 36.171875 55.265625 
Q 40.578125 54.546875 44.28125 53.078125 
z
" id="DejaVuSans-115"/>
     <path d="M 4.890625 30.90625 
L 95.125 30.90625 
L 95.125 23.875 
L 4.890625 23.875 
z
" id="DejaVuSans-8212"/>
     <path d="M 9.078125 75.984375 
L 18.109375 75.984375 
L 18.109375 31.109375 
L 44.921875 54.6875 
L 56.390625 54.6875 
L 27.390625 29.109375 
L 57.625 0 
L 45.90625 0 
L 18.109375 26.703125 
L 18.109375 0 
L 9.078125 0 
z
" id="DejaVuSans-107"/>
    </defs>
    <g transform="translate(84.333557 35.64)scale(0.2592 -0.2592)">
     <use xlink:href="#DejaVuSans-80"/>
     <use x="60.287109" xlink:href="#DejaVuSans-117"/>
     <use x="123.666016" xlink:href="#DejaVuSans-114"/>
     <use x="164.779297" xlink:href="#DejaVuSans-105"/>
     <use x="192.5625" xlink:href="#DejaVuSans-116"/>
     <use x="231.771484" xlink:href="#DejaVuSans-121"/>
     <use x="290.951172" xlink:href="#DejaVuSans-47"/>
     <use x="324.642578" xlink:href="#DejaVuSans-69"/>
     <use x="387.826172" xlink:href="#DejaVuSans-102"/>
     <use x="423.03125" xlink:href="#DejaVuSans-102"/>
     <use x="458.236328" xlink:href="#DejaVuSans-105"/>
     <use x="486.019531" xlink:href="#DejaVuSans-99"/>
     <use x="541" xlink:href="#DejaVuSans-105"/>
     <use x="568.783203" xlink:href="#DejaVuSans-101"/>
     <use x="630.306641" xlink:href="#DejaVuSans-110"/>
     <use x="693.685547" xlink:href="#DejaVuSans-99"/>
     <use x="748.666016" xlink:href="#DejaVuSans-121"/>
     <use x="807.845703" xlink:href="#DejaVuSans-32"/>
     <use x="839.632812" xlink:href="#DejaVuSans-118"/>
     <use x="898.8125" xlink:href="#DejaVuSans-115"/>
     <use x="950.912109" xlink:href="#DejaVuSans-32"/>
     <use x="982.699219" xlink:href="#DejaVuSans-80"/>
     <use x="1043.001953" xlink:href="#DejaVuSans-99"/>
     <use x="1097.982422" xlink:href="#DejaVuSans-97"/>
     <use x="1159.261719" xlink:href="#DejaVuSans-82"/>
     <use x="1228.712891" xlink:href="#DejaVuSans-97"/>
     <use x="1289.992188" xlink:href="#DejaVuSans-116"/>
     <use x="1329.201172" xlink:href="#DejaVuSans-105"/>
     <use x="1356.984375" xlink:href="#DejaVuSans-111"/>
     <use x="1418.166016" xlink:href="#DejaVuSans-87"/>
     <use x="1517.042969" xlink:href="#DejaVuSans-32"/>
     <use x="1548.830078" xlink:href="#DejaVuSans-67"/>
     <use x="1618.654297" xlink:href="#DejaVuSans-117"/>
     <use x="1682.033203" xlink:href="#DejaVuSans-116"/>
     <use x="1721.242188" xlink:href="#DejaVuSans-111"/>
     <use x="1782.423828" xlink:href="#DejaVuSans-102"/>
     <use x="1817.628906" xlink:href="#DejaVuSans-102"/>
     <use x="1852.833984" xlink:href="#DejaVuSans-32"/>
     <use x="1884.621094" xlink:href="#DejaVuSans-8212"/>
     <use x="1984.621094" xlink:href="#DejaVuSans-32"/>
     <use x="2016.408203" xlink:href="#DejaVuSans-116"/>
     <use x="2055.617188" xlink:href="#DejaVuSans-114"/>
     <use x="2096.730469" xlink:href="#DejaVuSans-97"/>
     <use x="2158.009766" xlink:href="#DejaVuSans-99"/>
     <use x="2212.990234" xlink:href="#DejaVuSans-107"/>
    </g>
   </g>
   <g id="legend_1">
    <g id="patch_7">
     <path d="M 269.942244 454.84 
L 487.331619 454.84 
Q 490.931619 454.84 490.931619 451.24 
L 490.931619 373.778125 
Q 490.931619 370.178125 487.331619 370.178125 
L 269.942244 370.178125 
Q 266.342244 370.178125 266.342244 373.778125 
L 266.342244 451.24 
Q 266.342244 454.84 269.942244 454.84 
z
" style="fill:#ffffff;opacity:0.8;stroke:#cccccc;stroke-linejoin:miter;"/>
    </g>
    <g id="line2d_16">
     <path d="M 273.542244 384.755313 
L 309.542244 384.755313 
" style="fill:none;stroke:#0000ff;stroke-linecap:square;stroke-width:1.5;"/>
    </g>
    <g id="line2d_17"/>
    <g id="text_15">
     <!-- Efficiency -->
     <g transform="translate(323.942244 391.055313)scale(0.18 -0.18)">
      <use xlink:href="#DejaVuSans-69"/>
      <use x="63.183594" xlink:href="#DejaVuSans-102"/>
      <use x="98.388672" xlink:href="#DejaVuSans-102"/>
      <use x="133.59375" xlink:href="#DejaVuSans-105"/>
      <use x="161.376953" xlink:href="#DejaVuSans-99"/>
      <use x="216.357422" xlink:href="#DejaVuSans-105"/>
      <use x="244.140625" xlink:href="#DejaVuSans-101"/>
      <use x="305.664062" xlink:href="#DejaVuSans-110"/>
      <use x="369.042969" xlink:href="#DejaVuSans-99"/>
      <use x="424.023438" xlink:href="#DejaVuSans-121"/>
     </g>
    </g>
    <g id="line2d_18">
     <path d="M 273.542244 411.175937 
L 309.542244 411.175937 
" style="fill:none;stroke:#ff0000;stroke-linecap:square;stroke-width:1.5;"/>
    </g>
    <g id="line2d_19"/>
    <g id="text_16">
     <!-- Purity -->
     <g transform="translate(323.942244 417.475937)scale(0.18 -0.18)">
      <use xlink:href="#DejaVuSans-80"/>
      <use x="60.287109" xlink:href="#DejaVuSans-117"/>
      <use x="123.666016" xlink:href="#DejaVuSans-114"/>
      <use x="164.779297" xlink:href="#DejaVuSans-105"/>
      <use x="192.5625" xlink:href="#DejaVuSans-116"/>
      <use x="231.771484" xlink:href="#DejaVuSans-121"/>
     </g>
    </g>
    <g id="line2d_20">
     <path d="M 273.542244 437.596562 
L 309.542244 437.596562 
" style="fill:none;stroke:#008000;stroke-linecap:square;stroke-width:1.5;"/>
    </g>
    <g id="line2d_21"/>
    <g id="text_17">
     <!-- Purity * Efficiency -->
     <defs>
      <path d="M 47.015625 60.890625 
L 29.5 51.421875 
L 47.015625 41.890625 
L 44.1875 37.109375 
L 27.78125 47.015625 
L 27.78125 28.609375 
L 22.21875 28.609375 
L 22.21875 47.015625 
L 5.8125 37.109375 
L 2.984375 41.890625 
L 20.515625 51.421875 
L 2.984375 60.890625 
L 5.8125 65.71875 
L 22.21875 55.8125 
L 22.21875 74.21875 
L 27.78125 74.21875 
L 27.78125 55.8125 
L 44.1875 65.71875 
z
" id="DejaVuSans-42"/>
     </defs>
     <g transform="translate(323.942244 443.896562)scale(0.18 -0.18)">
      <use xlink:href="#DejaVuSans-80"/>
      <use x="60.287109" xlink:href="#DejaVuSans-117"/>
      <use x="123.666016" xlink:href="#DejaVuSans-114"/>
      <use x="164.779297" xlink:href="#DejaVuSans-105"/>
      <use x="192.5625" xlink:href="#DejaVuSans-116"/>
      <use x="231.771484" xlink:href="#DejaVuSans-121"/>
      <use x="290.951172" xlink:href="#DejaVuSans-32"/>
      <use x="322.738281" xlink:href="#DejaVuSans-42"/>
      <use x="372.738281" xlink:href="#DejaVuSans-32"/>
      <use x="404.525391" xlink:href="#DejaVuSans-69"/>
      <use x="467.708984" xlink:href="#DejaVuSans-102"/>
      <use x="502.914062" xlink:href="#DejaVuSans-102"/>
      <use x="538.119141" xlink:href="#DejaVuSans-105"/>
      <use x="565.902344" xlink:href="#DejaVuSans-99"/>
      <use x="620.882812" xlink:href="#DejaVuSans-105"/>
      <use x="648.666016" xlink:href="#DejaVuSans-101"/>
      <use x="710.189453" xlink:href="#DejaVuSans-110"/>
      <use x="773.568359" xlink:href="#DejaVuSans-99"/>
      <use x="828.548828" xlink:href="#DejaVuSans-121"/>
     </g>
    </g>
   </g>
  </g>
  <g id="axes_2">
   <g id="patch_8">
    <path d="M 797.9825 463.84 
L 1369.276364 463.84 
L 1369.276364 41.64 
L 797.9825 41.64 
z
" style="fill:#ffffff;"/>
   </g>
   <g id="matplotlib.axis_3">
    <g id="xtick_6">
     <g id="line2d_22">
      <g>
       <use style="stroke:#000000;stroke-width:0.8;" x="823.950403" xlink:href="#m32147d1ee3" y="463.84"/>
      </g>
     </g>
     <g id="text_18">
      <!-- 0.0 -->
      <g transform="translate(803.339953 490.53515)scale(0.2592 -0.2592)">
       <use xlink:href="#DejaVuSans-48"/>
       <use x="63.623047" xlink:href="#DejaVuSans-46"/>
       <use x="95.410156" xlink:href="#DejaVuSans-48"/>
      </g>
     </g>
    </g>
    <g id="xtick_7">
     <g id="line2d_23">
      <g>
       <use style="stroke:#000000;stroke-width:0.8;" x="953.789917" xlink:href="#m32147d1ee3" y="463.84"/>
      </g>
     </g>
     <g id="text_19">
      <!-- 0.1 -->
      <g transform="translate(933.179467 490.53515)scale(0.2592 -0.2592)">
       <use xlink:href="#DejaVuSans-48"/>
       <use x="63.623047" xlink:href="#DejaVuSans-46"/>
       <use x="95.410156" xlink:href="#DejaVuSans-49"/>
      </g>
     </g>
    </g>
    <g id="xtick_8">
     <g id="line2d_24">
      <g>
       <use style="stroke:#000000;stroke-width:0.8;" x="1083.629432" xlink:href="#m32147d1ee3" y="463.84"/>
      </g>
     </g>
     <g id="text_20">
      <!-- 0.2 -->
      <g transform="translate(1063.018982 490.53515)scale(0.2592 -0.2592)">
       <use xlink:href="#DejaVuSans-48"/>
       <use x="63.623047" xlink:href="#DejaVuSans-46"/>
       <use x="95.410156" xlink:href="#DejaVuSans-50"/>
      </g>
     </g>
    </g>
    <g id="xtick_9">
     <g id="line2d_25">
      <g>
       <use style="stroke:#000000;stroke-width:0.8;" x="1213.468946" xlink:href="#m32147d1ee3" y="463.84"/>
      </g>
     </g>
     <g id="text_21">
      <!-- 0.3 -->
      <g transform="translate(1192.858496 490.53515)scale(0.2592 -0.2592)">
       <use xlink:href="#DejaVuSans-48"/>
       <use x="63.623047" xlink:href="#DejaVuSans-46"/>
       <use x="95.410156" xlink:href="#DejaVuSans-51"/>
      </g>
     </g>
    </g>
    <g id="xtick_10">
     <g id="line2d_26">
      <g>
       <use style="stroke:#000000;stroke-width:0.8;" x="1343.308461" xlink:href="#m32147d1ee3" y="463.84"/>
      </g>
     </g>
     <g id="text_22">
      <!-- 0.4 -->
      <g transform="translate(1322.698011 490.53515)scale(0.2592 -0.2592)">
       <use xlink:href="#DejaVuSans-48"/>
       <use x="63.623047" xlink:href="#DejaVuSans-46"/>
       <use x="95.410156" xlink:href="#DejaVuSans-52"/>
      </g>
     </g>
    </g>
    <g id="text_23">
     <!-- PcaRatioW Cutoff -->
     <g transform="translate(970.861232 519.62085)scale(0.2592 -0.2592)">
      <use xlink:href="#DejaVuSans-80"/>
      <use x="60.302734" xlink:href="#DejaVuSans-99"/>
      <use x="115.283203" xlink:href="#DejaVuSans-97"/>
      <use x="176.5625" xlink:href="#DejaVuSans-82"/>
      <use x="246.013672" xlink:href="#DejaVuSans-97"/>
      <use x="307.292969" xlink:href="#DejaVuSans-116"/>
      <use x="346.501953" xlink:href="#DejaVuSans-105"/>
      <use x="374.285156" xlink:href="#DejaVuSans-111"/>
      <use x="435.466797" xlink:href="#DejaVuSans-87"/>
      <use x="534.34375" xlink:href="#DejaVuSans-32"/>
      <use x="566.130859" xlink:href="#DejaVuSans-67"/>
      <use x="635.955078" xlink:href="#DejaVuSans-117"/>
      <use x="699.333984" xlink:href="#DejaVuSans-116"/>
      <use x="738.542969" xlink:href="#DejaVuSans-111"/>
      <use x="799.724609" xlink:href="#DejaVuSans-102"/>
      <use x="834.929688" xlink:href="#DejaVuSans-102"/>
     </g>
    </g>
   </g>
   <g id="matplotlib.axis_4">
    <g id="ytick_7">
     <g id="line2d_27">
      <g>
       <use style="stroke:#000000;stroke-width:0.8;" x="797.9825" xlink:href="#m0c3f8ec6ff" y="463.84"/>
      </g>
     </g>
     <g id="text_24">
      <!-- 0.0 -->
      <g transform="translate(749.7616 473.687575)scale(0.2592 -0.2592)">
       <use xlink:href="#DejaVuSans-48"/>
       <use x="63.623047" xlink:href="#DejaVuSans-46"/>
       <use x="95.410156" xlink:href="#DejaVuSans-48"/>
      </g>
     </g>
    </g>
    <g id="ytick_8">
     <g id="line2d_28">
      <g>
       <use style="stroke:#000000;stroke-width:0.8;" x="797.9825" xlink:href="#m0c3f8ec6ff" y="379.4"/>
      </g>
     </g>
     <g id="text_25">
      <!-- 0.2 -->
      <g transform="translate(749.7616 389.247575)scale(0.2592 -0.2592)">
       <use xlink:href="#DejaVuSans-48"/>
       <use x="63.623047" xlink:href="#DejaVuSans-46"/>
       <use x="95.410156" xlink:href="#DejaVuSans-50"/>
      </g>
     </g>
    </g>
    <g id="ytick_9">
     <g id="line2d_29">
      <g>
       <use style="stroke:#000000;stroke-width:0.8;" x="797.9825" xlink:href="#m0c3f8ec6ff" y="294.96"/>
      </g>
     </g>
     <g id="text_26">
      <!-- 0.4 -->
      <g transform="translate(749.7616 304.807575)scale(0.2592 -0.2592)">
       <use xlink:href="#DejaVuSans-48"/>
       <use x="63.623047" xlink:href="#DejaVuSans-46"/>
       <use x="95.410156" xlink:href="#DejaVuSans-52"/>
      </g>
     </g>
    </g>
    <g id="ytick_10">
     <g id="line2d_30">
      <g>
       <use style="stroke:#000000;stroke-width:0.8;" x="797.9825" xlink:href="#m0c3f8ec6ff" y="210.52"/>
      </g>
     </g>
     <g id="text_27">
      <!-- 0.6 -->
      <g transform="translate(749.7616 220.367575)scale(0.2592 -0.2592)">
       <use xlink:href="#DejaVuSans-48"/>
       <use x="63.623047" xlink:href="#DejaVuSans-46"/>
       <use x="95.410156" xlink:href="#DejaVuSans-54"/>
      </g>
     </g>
    </g>
    <g id="ytick_11">
     <g id="line2d_31">
      <g>
       <use style="stroke:#000000;stroke-width:0.8;" x="797.9825" xlink:href="#m0c3f8ec6ff" y="126.08"/>
      </g>
     </g>
     <g id="text_28">
      <!-- 0.8 -->
      <g transform="translate(749.7616 135.927575)scale(0.2592 -0.2592)">
       <use xlink:href="#DejaVuSans-48"/>
       <use x="63.623047" xlink:href="#DejaVuSans-46"/>
       <use x="95.410156" xlink:href="#DejaVuSans-56"/>
      </g>
     </g>
    </g>
    <g id="ytick_12">
     <g id="line2d_32">
      <g>
       <use style="stroke:#000000;stroke-width:0.8;" x="797.9825" xlink:href="#m0c3f8ec6ff" y="41.64"/>
      </g>
     </g>
     <g id="text_29">
      <!-- 1.0 -->
      <g transform="translate(749.7616 51.487575)scale(0.2592 -0.2592)">
       <use xlink:href="#DejaVuSans-49"/>
       <use x="63.623047" xlink:href="#DejaVuSans-46"/>
       <use x="95.410156" xlink:href="#DejaVuSans-48"/>
      </g>
     </g>
    </g>
    <g id="text_30">
     <!-- Fraction -->
     <g transform="translate(740.37105 305.400125)rotate(-90)scale(0.2592 -0.2592)">
      <use xlink:href="#DejaVuSans-70"/>
      <use x="57.410156" xlink:href="#DejaVuSans-114"/>
      <use x="98.523438" xlink:href="#DejaVuSans-97"/>
      <use x="159.802734" xlink:href="#DejaVuSans-99"/>
      <use x="214.783203" xlink:href="#DejaVuSans-116"/>
      <use x="253.992188" xlink:href="#DejaVuSans-105"/>
      <use x="281.775391" xlink:href="#DejaVuSans-111"/>
      <use x="342.957031" xlink:href="#DejaVuSans-110"/>
     </g>
    </g>
   </g>
   <g id="line2d_33">
    <path clip-path="url(#p699beb98ca)" d="M 823.950403 41.64 
L 824.470281 42.490307 
L 824.990159 43.832898 
L 826.029915 47.592152 
L 827.069671 52.15696 
L 828.629304 61.331329 
L 830.708816 77.979453 
L 831.748572 85.811232 
L 833.308206 98.252572 
L 834.347962 104.74176 
L 835.387717 111.991749 
L 836.427473 120.226305 
L 836.947351 123.359016 
L 839.026863 139.604363 
L 840.586497 149.494781 
L 841.626253 158.087361 
L 844.225642 176.346593 
L 846.305154 188.385156 
L 850.984056 216.311041 
L 851.503933 218.951469 
L 852.543689 225.03788 
L 853.583445 229.736947 
L 854.103323 231.929845 
L 856.182835 243.028594 
L 857.222591 247.951427 
L 857.742469 249.652042 
L 859.302103 256.006971 
L 861.901492 265.942141 
L 863.461126 272.118058 
L 864.500882 275.071757 
L 866.060516 280.486873 
L 866.580394 282.142735 
L 867.100272 283.127301 
L 873.338807 301.252275 
L 874.898441 304.922022 
L 875.418319 306.66739 
L 876.977952 310.113373 
L 879.577342 317.050091 
L 880.09722 317.900399 
L 881.136976 320.317062 
L 881.656854 321.03311 
L 882.69661 323.360267 
L 883.736366 325.150388 
L 884.256243 326.403473 
L 885.295999 327.880322 
L 885.815877 328.641124 
L 886.855633 330.565503 
L 887.895389 332.221365 
L 888.935145 334.056239 
L 890.494779 337.009939 
L 891.014657 337.725987 
L 892.054412 339.739873 
L 892.57429 340.59018 
L 893.614046 342.738325 
L 894.133924 343.499127 
L 894.653802 344.752211 
L 897.77307 349.18276 
L 898.812826 350.346339 
L 899.332704 351.151893 
L 900.892337 352.718249 
L 901.932093 354.329358 
L 902.451971 354.821641 
L 904.531483 357.864846 
L 905.051361 358.625648 
L 905.571239 359.117931 
L 906.610995 360.594781 
L 907.130873 360.997558 
L 907.650751 361.579347 
L 908.170628 361.982124 
L 910.770018 365.159589 
L 911.289896 365.965143 
L 913.369408 367.979029 
L 914.409164 369.232114 
L 917.008553 371.380259 
L 918.048309 372.454331 
L 918.568187 372.58859 
L 919.088065 373.349392 
L 920.127821 374.289205 
L 921.167577 374.9605 
L 922.207333 375.98982 
L 924.806722 378.495989 
L 925.3266 378.764507 
L 927.406112 380.554628 
L 927.92599 380.778393 
L 930.005502 382.434255 
L 930.52538 382.747526 
L 932.604891 384.448141 
L 933.124769 384.716659 
L 936.244037 387.267581 
L 937.283793 387.938876 
L 940.403061 389.952762 
L 940.922938 390.087021 
L 941.442816 390.445046 
L 941.962694 391.071588 
L 942.482572 391.519118 
L 943.522328 392.14566 
L 944.042206 392.458932 
L 944.562084 392.637944 
L 945.081962 393.130227 
L 945.60184 393.309239 
L 946.121718 393.712016 
L 946.641596 393.846275 
L 947.681352 394.51757 
L 948.20123 394.786089 
L 948.721107 395.367878 
L 949.760863 395.770655 
L 951.840375 396.397197 
L 955.999399 397.874047 
L 956.519277 398.36633 
L 957.559032 398.769107 
L 959.118666 399.753674 
L 959.638544 400.201204 
L 960.158422 400.380216 
L 960.6783 400.782993 
L 961.198178 400.962006 
L 961.718056 401.275277 
L 962.757812 401.678054 
L 965.877079 403.24441 
L 966.916835 403.602434 
L 967.436713 403.826199 
L 967.956591 403.915705 
L 968.476469 404.318482 
L 968.996347 404.363235 
L 970.036103 404.766012 
L 971.075859 404.989777 
L 972.115615 405.482061 
L 972.635493 405.795332 
L 974.195126 406.242862 
L 975.234882 406.690392 
L 976.794516 407.182675 
L 977.314394 407.451194 
L 978.35415 407.674959 
L 979.913784 408.211995 
L 980.433662 408.256748 
L 983.033051 409.241314 
L 983.552929 409.465079 
L 984.072807 409.509833 
L 985.112563 409.91261 
L 985.632441 410.002116 
L 988.231831 411.299953 
L 989.271586 411.478965 
L 989.791464 411.792237 
L 990.83122 412.060755 
L 991.870976 412.553038 
L 992.390854 412.642544 
L 993.950488 413.269086 
L 996.549878 413.985135 
L 998.109511 414.611677 
L 1000.189023 415.238219 
L 1002.268535 415.909515 
L 1003.828169 416.222786 
L 1004.867925 416.715069 
L 1005.387802 416.759822 
L 1005.90768 417.073093 
L 1007.467314 417.565376 
L 1008.50707 417.654882 
L 1010.066704 417.878647 
L 1011.10646 418.147166 
L 1011.626338 418.236672 
L 1012.146216 418.460437 
L 1014.225727 418.863214 
L 1015.785361 419.310744 
L 1016.825117 419.445003 
L 1017.344995 419.624015 
L 1018.384751 419.803027 
L 1019.944385 420.161052 
L 1020.984141 420.205805 
L 1021.504018 420.295311 
L 1022.023896 420.563829 
L 1023.063652 420.698088 
L 1023.58353 421.145618 
L 1025.143164 421.77216 
L 1026.18292 422.130184 
L 1028.78231 422.756727 
L 1029.822065 422.935739 
L 1032.941333 423.651787 
L 1035.020845 423.965058 
L 1035.540723 424.233576 
L 1036.060601 424.278329 
L 1039.179868 425.397155 
L 1039.699746 425.397155 
L 1043.85877 426.381721 
L 1048.017793 427.187276 
L 1049.057549 427.500547 
L 1050.617183 428.127089 
L 1051.656939 428.306101 
L 1052.176817 428.529866 
L 1054.256328 428.798385 
L 1056.33584 429.111656 
L 1056.855718 429.380174 
L 1058.415352 429.693445 
L 1058.93523 429.91721 
L 1061.53462 430.185728 
L 1064.134009 430.857024 
L 1065.173765 430.94653 
L 1067.773155 431.39406 
L 1068.812911 431.752084 
L 1069.332789 431.752084 
L 1070.372544 431.975849 
L 1071.4123 432.020602 
L 1072.452056 432.199614 
L 1075.051446 432.602391 
L 1076.091202 432.602391 
L 1077.130958 432.781403 
L 1078.170713 432.915662 
L 1080.250225 433.452699 
L 1081.289981 433.542205 
L 1087.528516 434.526771 
L 1089.08815 434.750536 
L 1090.127906 434.840042 
L 1091.167662 434.840042 
L 1094.28693 435.556091 
L 1096.366441 435.958868 
L 1097.926075 436.406398 
L 1103.644732 436.988187 
L 1104.16461 437.122446 
L 1104.684488 437.122446 
L 1105.724244 437.301459 
L 1106.764 437.435718 
L 1108.323634 437.480471 
L 1109.36339 437.569977 
L 1122.360338 438.733555 
L 1123.400094 439.002073 
L 1124.959728 439.046826 
L 1126.519362 439.225838 
L 1130.678385 439.673369 
L 1132.757897 439.941887 
L 1144.195211 440.836947 
L 1144.715089 440.836947 
L 1145.234967 441.015959 
L 1146.274723 441.060712 
L 1149.393991 441.508243 
L 1151.99338 441.776761 
L 1152.513258 442.000526 
L 1157.19216 442.761327 
L 1159.271671 442.80608 
L 1159.791549 442.940339 
L 1161.351183 443.029845 
L 1167.589718 443.477375 
L 1169.66923 443.566881 
L 1170.708986 443.611635 
L 1171.748742 443.969659 
L 1173.308376 444.059165 
L 1181.106545 444.775213 
L 1182.146301 444.954225 
L 1186.305324 445.401755 
L 1187.864958 445.580767 
L 1189.94447 445.670273 
L 1194.103493 445.938792 
L 1196.702883 446.028298 
L 1197.742639 446.20731 
L 1209.179953 447.10237 
L 1210.219709 447.147123 
L 1211.259465 447.236629 
L 1212.299221 447.326135 
L 1213.338977 447.460394 
L 1214.898611 447.5499 
L 1216.458244 447.728912 
L 1216.978122 447.728912 
L 1217.498 447.863172 
L 1219.057634 447.907925 
L 1220.617268 448.086937 
L 1222.69678 448.176443 
L 1223.736536 448.221196 
L 1225.816047 448.489714 
L 1227.375681 448.534467 
L 1229.455193 448.623973 
L 1231.534705 448.713479 
L 1233.614216 448.802985 
L 1236.733484 448.981997 
L 1237.77324 449.071503 
L 1239.852752 449.161009 
L 1244.011775 449.250515 
L 1245.571409 449.429527 
L 1247.650921 449.47428 
L 1249.210554 449.653292 
L 1250.770188 449.742798 
L 1255.968968 450.100823 
L 1257.528601 450.190329 
L 1258.048479 450.324588 
L 1261.167747 450.414094 
L 1261.687625 450.593106 
L 1264.287015 450.682612 
L 1266.366526 450.772118 
L 1267.92616 450.816871 
L 1268.965916 450.906377 
L 1271.045428 450.995883 
L 1274.164695 451.085389 
L 1275.204451 451.174895 
L 1276.764085 451.264401 
L 1278.323719 451.309154 
L 1279.363475 451.353907 
L 1281.962864 451.711931 
L 1284.562254 451.84619 
L 1286.121888 451.890943 
L 1287.161644 451.980449 
L 1289.761033 452.069955 
L 1291.320667 452.114709 
L 1297.039324 452.204215 
L 1299.118836 452.472733 
L 1302.757982 452.562239 
L 1307.436883 452.87551 
L 1308.996517 452.965016 
L 1314.195296 453.32304 
L 1319.394076 453.412546 
L 1323.553099 453.681064 
L 1328.751879 453.77057 
L 1332.391024 454.128594 
L 1332.910902 454.262854 
L 1334.990414 454.35236 
L 1340.189193 454.710384 
L 1342.788583 454.79989 
L 1343.308461 454.844643 
L 1343.308461 454.844643 
" style="fill:none;stroke:#0000ff;stroke-linecap:square;stroke-width:1.5;"/>
   </g>
   <g id="line2d_34">
    <path clip-path="url(#p699beb98ca)" d="M 823.950403 354.86504 
L 824.470281 320.415392 
L 824.990159 298.473488 
L 826.029915 270.587923 
L 827.069671 250.36131 
L 828.109426 236.310373 
L 829.149182 226.215604 
L 831.748572 210.783632 
L 832.788328 206.043918 
L 833.828084 201.792636 
L 835.387717 196.51807 
L 835.907595 195.541162 
L 837.467229 192.004677 
L 838.506985 190.138702 
L 839.026863 189.553863 
L 839.546741 188.351908 
L 841.106375 186.617354 
L 841.626253 186.326973 
L 842.666009 185.163724 
L 843.185887 185.016677 
L 843.705764 184.736072 
L 844.225642 184.230433 
L 844.74552 184.074215 
L 845.265398 183.457154 
L 845.785276 183.274603 
L 846.305154 182.449529 
L 846.825032 182.188158 
L 847.34491 181.763895 
L 848.384666 181.250034 
L 848.904544 181.040601 
L 849.424422 180.595025 
L 849.9443 179.785403 
L 850.984056 179.511716 
L 852.023811 179.724607 
L 852.543689 179.675116 
L 854.103323 179.150293 
L 854.623201 179.202661 
L 855.662957 179.623154 
L 856.182835 179.685751 
L 856.702713 179.535733 
L 857.222591 179.623868 
L 858.262347 178.943748 
L 858.782225 178.441555 
L 859.302103 178.523236 
L 859.82198 178.423867 
L 861.901492 177.495153 
L 862.42137 177.928435 
L 863.461126 178.149777 
L 864.500882 177.945057 
L 865.02076 178.246189 
L 865.540638 178.2524 
L 866.060516 177.788503 
L 866.580394 177.769907 
L 868.140027 176.995757 
L 869.179783 176.90296 
L 869.699661 177.103256 
L 870.219539 177.130474 
L 870.739417 177.344449 
L 871.259295 177.678839 
L 873.338807 177.513213 
L 873.858685 177.179635 
L 874.378563 177.430165 
L 874.898441 177.344261 
L 875.938196 177.725059 
L 876.458074 177.660172 
L 876.977952 177.057916 
L 878.017708 177.814366 
L 878.537586 177.830784 
L 879.057464 177.730287 
L 879.577342 177.187961 
L 881.656854 176.948986 
L 882.176732 176.747629 
L 883.216488 176.821299 
L 883.736366 176.973567 
L 884.256243 177.430413 
L 884.776121 177.18299 
L 885.295999 176.638119 
L 885.815877 176.313805 
L 886.855633 176.84808 
L 887.375511 176.914547 
L 887.895389 176.677604 
L 888.935145 176.965586 
L 889.455023 177.058881 
L 889.974901 176.956655 
L 890.494779 177.386852 
L 891.534535 177.522816 
L 892.054412 177.240098 
L 892.57429 177.309985 
L 893.094168 177.12209 
L 894.133924 177.510668 
L 894.653802 178.11411 
L 895.693558 178.716511 
L 896.213436 178.510637 
L 896.733314 178.929196 
L 897.77307 178.963413 
L 898.292948 178.757139 
L 898.812826 178.700399 
L 899.332704 179.132019 
L 899.852582 178.809504 
L 900.372459 178.640758 
L 900.892337 178.193515 
L 901.412215 178.550947 
L 901.932093 178.525612 
L 902.451971 178.151333 
L 902.971849 178.442235 
L 903.491727 178.101495 
L 904.011605 178.434232 
L 905.051361 179.429628 
L 905.571239 179.128761 
L 906.091117 179.146067 
L 906.610995 179.621908 
L 908.170628 179.626099 
L 910.25014 180.842236 
L 910.770018 180.87617 
L 911.289896 181.296732 
L 911.809774 181.247813 
L 912.329652 180.586935 
L 913.889286 180.509316 
L 914.409164 180.676675 
L 915.44892 180.256704 
L 915.968798 180.335689 
L 916.488675 180.280983 
L 917.008553 179.991904 
L 917.528431 180.070759 
L 918.048309 180.43027 
L 918.568187 180.193937 
L 919.088065 180.410916 
L 919.607943 180.825267 
L 921.167577 180.757893 
L 921.687455 180.557419 
L 922.207333 180.690495 
L 922.727211 180.534947 
L 923.247089 180.914957 
L 923.766967 181.055331 
L 924.286844 180.703782 
L 924.806722 180.939297 
L 925.3266 180.535305 
L 925.846478 180.424949 
L 926.886234 180.758609 
L 927.406112 181.10729 
L 928.445868 180.634622 
L 928.965746 180.675892 
L 929.485624 180.460353 
L 931.565136 180.525746 
L 932.085014 180.835554 
L 933.644647 180.113853 
L 934.684403 180.523726 
L 935.204281 180.184635 
L 935.724159 180.779711 
L 936.763915 180.932756 
L 937.283793 180.927633 
L 938.323549 180.800894 
L 939.883183 180.776036 
L 941.442816 179.483532 
L 941.962694 179.693808 
L 942.482572 180.031681 
L 943.522328 180.011045 
L 944.042206 180.299368 
L 944.562084 180.174375 
L 945.081962 180.219252 
L 945.60184 179.971741 
L 946.121718 180.140429 
L 946.641596 179.586535 
L 947.161474 180.12306 
L 947.681352 180.114273 
L 948.20123 179.981786 
L 948.721107 180.521579 
L 949.240985 180.702357 
L 949.760863 180.697937 
L 950.280741 180.506844 
L 952.360253 178.76965 
L 952.880131 178.698172 
L 953.919887 178.160907 
L 954.439765 177.305907 
L 954.959643 177.422915 
L 955.479521 177.208807 
L 956.519277 177.081133 
L 957.039154 176.799087 
L 957.559032 176.174208 
L 958.07891 176.481863 
L 958.598788 176.520529 
L 959.118666 176.760038 
L 959.638544 177.131117 
L 960.158422 176.841151 
L 960.6783 176.735849 
L 961.198178 176.44126 
L 961.718056 176.62073 
L 963.27769 176.627703 
L 963.797568 176.668868 
L 964.317446 176.509444 
L 964.837323 176.196509 
L 966.916835 175.811009 
L 967.436713 176.005633 
L 967.956591 175.261235 
L 968.476469 175.7302 
L 968.996347 175.206358 
L 970.036103 175.529602 
L 970.555981 175.070099 
L 971.075859 175.128092 
L 971.595737 174.873438 
L 972.115615 174.989633 
L 972.635493 175.329252 
L 974.715004 174.466966 
L 975.75476 174.344413 
L 976.274638 174.161988 
L 976.794516 174.292221 
L 977.314394 174.724783 
L 977.834272 174.712292 
L 978.35415 174.456603 
L 978.874028 174.747389 
L 979.393906 174.490412 
L 979.913784 174.69697 
L 980.95354 174.585102 
L 981.473417 174.793581 
L 981.993295 174.371773 
L 982.513173 174.742739 
L 983.033051 174.466966 
L 983.552929 174.678219 
L 984.072807 174.426787 
L 984.592685 174.63898 
L 987.192075 174.491617 
L 987.711953 174.282393 
L 988.231831 174.486351 
L 988.751709 174.303195 
L 989.271586 173.778931 
L 989.791464 173.982503 
L 990.311342 173.702559 
L 990.83122 173.937685 
L 991.870976 173.941138 
L 992.910732 174.324166 
L 993.43061 174.644466 
L 993.950488 174.521625 
L 994.470366 174.763815 
L 994.990244 174.559585 
L 995.510122 174.545257 
L 996.03 174.353603 
L 996.549878 174.761451 
L 997.069756 174.815432 
L 998.629389 174.369125 
L 999.149267 174.603864 
L 999.669145 174.225148 
L 1000.189023 174.011176 
L 1001.228779 174.300676 
L 1001.748657 174.084302 
L 1002.268535 174.169148 
L 1002.788413 173.594469 
L 1003.828169 173.833028 
L 1004.348047 173.697365 
L 1004.867925 173.835695 
L 1005.387802 173.353146 
L 1005.90768 173.5775 
L 1006.947436 174.275582 
L 1007.467314 174.347427 
L 1007.987192 173.962975 
L 1009.026948 174.034274 
L 1009.546826 173.71861 
L 1010.066704 173.612825 
L 1010.586582 173.3823 
L 1011.10646 173.559731 
L 1011.626338 173.345874 
L 1012.146216 173.59539 
L 1012.666094 173.5775 
L 1013.185972 173.739387 
L 1013.705849 173.631536 
L 1014.225727 173.216027 
L 1014.745605 173.178239 
L 1015.265483 172.556989 
L 1015.785361 172.91964 
L 1016.825117 172.788992 
L 1017.344995 172.748863 
L 1017.864873 171.616017 
L 1018.904629 171.753822 
L 1019.944385 172.007705 
L 1020.464263 171.386345 
L 1020.984141 171.270704 
L 1021.504018 170.829586 
L 1022.023896 171.175197 
L 1023.063652 171.033669 
L 1023.58353 171.547692 
L 1024.103408 171.50035 
L 1025.143164 171.810567 
L 1025.663042 172.291256 
L 1026.18292 172.581377 
L 1026.702798 172.440446 
L 1028.262432 172.984078 
L 1028.78231 172.426767 
L 1029.302188 172.525177 
L 1029.822065 172.821297 
L 1030.861821 172.877301 
L 1031.381699 172.734064 
L 1031.901577 172.712006 
L 1032.421455 172.890536 
L 1033.461211 172.398398 
L 1033.981089 172.600185 
L 1034.500967 172.57751 
L 1035.540723 172.837664 
L 1036.060601 172.485746 
L 1037.620235 172.241424 
L 1038.140112 172.552133 
L 1039.179868 173.70416 
L 1040.219624 173.789278 
L 1040.739502 174.088226 
L 1041.25938 173.833689 
L 1041.779258 173.363663 
L 1042.299136 173.44878 
L 1042.819014 173.749967 
L 1043.338892 173.620687 
L 1043.85877 173.707488 
L 1044.898526 173.184959 
L 1045.938281 173.402748 
L 1046.978037 172.959732 
L 1047.497915 172.447557 
L 1048.017793 172.532671 
L 1048.537671 172.864324 
L 1049.577427 173.375038 
L 1050.617183 173.895422 
L 1051.137061 174.009337 
L 1051.656939 173.600346 
L 1052.176817 173.921984 
L 1052.696695 173.784551 
L 1053.216573 173.508241 
L 1053.736451 173.739387 
L 1054.776206 173.065573 
L 1055.296084 173.414182 
L 1055.815962 173.530796 
L 1056.33584 173.132635 
L 1057.375596 173.553876 
L 1057.895474 173.90912 
L 1058.415352 173.886265 
L 1058.93523 174.484123 
L 1059.455108 174.604344 
L 1059.974986 173.816951 
L 1061.014742 173.770109 
L 1061.53462 173.890776 
L 1062.574375 173.138521 
L 1063.094253 173.112845 
L 1063.614131 173.454539 
L 1064.134009 173.034953 
L 1064.653887 172.762919 
L 1065.173765 172.188684 
L 1065.693643 172.159887 
L 1066.213521 172.529981 
L 1066.733399 172.378068 
L 1067.253277 171.948642 
L 1067.773155 172.043051 
L 1068.293033 172.667586 
L 1069.332789 172.765577 
L 1069.852667 172.019284 
L 1070.892422 171.989126 
L 1071.4123 171.547692 
L 1071.932178 171.928281 
L 1072.452056 171.770137 
L 1072.971934 171.451984 
L 1073.491812 171.291969 
L 1074.01169 171.419704 
L 1074.531568 171.097962 
L 1075.571324 171.192929 
L 1076.61108 170.117277 
L 1077.650836 170.375005 
L 1078.170713 170.338793 
L 1078.690591 170.135652 
L 1079.730347 171.051609 
L 1080.250225 170.116844 
L 1080.770103 170.116844 
L 1081.289981 170.380657 
L 1081.809859 170.041031 
L 1082.329737 170.041031 
L 1082.849615 170.43938 
L 1083.369493 170.268808 
L 1083.889371 170.669938 
L 1084.409249 171.344075 
L 1084.929127 171.309392 
L 1085.449005 171.138319 
L 1085.968883 170.830536 
L 1086.48876 170.966526 
L 1087.008638 171.239367 
L 1087.528516 171.204021 
L 1089.608028 171.859637 
L 1090.127906 171.547692 
L 1090.647784 171.547692 
L 1091.167662 170.921799 
L 1091.68754 171.023871 
L 1092.207418 171.442589 
L 1092.727296 171.582765 
L 1093.247174 171.971304 
L 1094.28693 172.222077 
L 1094.806807 172.508127 
L 1095.326685 172.93956 
L 1095.846563 172.908357 
L 1096.366441 173.198453 
L 1097.406197 174.223964 
L 1097.926075 174.66838 
L 1098.445953 174.817181 
L 1098.965831 173.992584 
L 1099.485709 174.290676 
L 1100.005587 173.786215 
L 1100.525465 173.786215 
L 1101.045343 173.607384 
L 1101.565221 172.948513 
L 1102.085099 172.734064 
L 1102.604976 172.734064 
L 1103.124854 172.21732 
L 1104.16461 173.120969 
L 1104.684488 173.120969 
L 1105.204366 173.241159 
L 1105.724244 173.056492 
L 1106.244122 173.023916 
L 1106.764 173.177223 
L 1107.283878 172.49731 
L 1107.803756 172.650539 
L 1108.323634 172.309168 
L 1108.843512 171.585991 
L 1109.36339 171.585991 
L 1109.883268 171.73941 
L 1110.403146 171.547692 
L 1110.923023 171.509121 
L 1111.962779 171.121384 
L 1112.482657 171.121384 
L 1113.002535 170.4211 
L 1113.522413 170.378055 
L 1114.042291 170.179832 
L 1116.121803 170.801548 
L 1116.641681 170.44678 
L 1117.161559 170.247039 
L 1117.681437 170.202728 
L 1118.721192 170.473088 
L 1119.24107 170.113129 
L 1119.760948 170.113129 
L 1120.280826 170.270958 
L 1120.800704 170.067833 
L 1121.320582 170.0222 
L 1121.84046 169.658564 
L 1122.360338 169.976228 
L 1123.400094 170.93875 
L 1123.919972 170.204662 
L 1124.43985 170.204662 
L 1124.959728 170.365972 
L 1125.479606 170.689811 
L 1125.999484 170.112475 
L 1126.519362 170.274893 
L 1127.039239 170.065856 
L 1127.559117 170.556031 
L 1128.078995 170.556031 
L 1128.598873 170.720255 
L 1129.118751 170.510754 
L 1129.638629 170.135652 
L 1130.158507 170.135652 
L 1131.198263 170.751484 
L 1131.718141 170.539353 
L 1132.238019 169.729323 
L 1133.277775 170.06376 
L 1133.797653 170.568702 
L 1134.317531 170.568702 
L 1134.837408 170.183832 
L 1135.357286 170.183832 
L 1135.877164 169.966579 
L 1136.397042 170.135652 
L 1136.91692 170.475139 
L 1137.436798 170.475139 
L 1137.956676 169.698013 
L 1138.996432 170.038141 
L 1139.51631 170.38008 
L 1140.036188 170.331979 
L 1141.075944 169.545094 
L 1141.595822 169.493297 
L 1142.1157 169.665606 
L 1142.635578 169.665606 
L 1143.675333 168.815577 
L 1144.195211 168.98837 
L 1144.715089 168.98837 
L 1145.234967 169.684262 
L 1145.754845 168.878356 
L 1146.274723 169.052894 
L 1146.794601 168.997851 
L 1147.314479 168.766519 
L 1148.354235 169.063366 
L 1148.874113 169.418801 
L 1149.393991 169.185734 
L 1149.913869 169.36437 
L 1150.433747 168.894648 
L 1151.473502 168.894648 
L 1152.513258 169.926163 
L 1153.033136 169.872665 
L 1153.553014 169.395043 
L 1154.072892 169.154162 
L 1154.59277 169.28186 
L 1155.112648 169.653994 
L 1155.632526 169.785748 
L 1156.672282 170.54177 
L 1157.19216 170.108538 
L 1158.751794 170.108538 
L 1159.271671 170.29858 
L 1159.791549 170.872095 
L 1160.311427 170.436131 
L 1161.351183 170.820597 
L 1161.871061 170.575329 
L 1162.390939 170.768636 
L 1162.910817 170.522105 
L 1163.950573 170.522105 
L 1164.470451 171.106163 
L 1164.990329 169.968267 
L 1165.510207 169.715915 
L 1166.030085 169.91145 
L 1167.069841 169.91145 
L 1167.589718 170.107584 
L 1168.629474 170.107584 
L 1169.149352 170.304319 
L 1169.66923 170.05106 
L 1170.189108 170.248615 
L 1170.708986 170.248615 
L 1171.228864 171.245581 
L 1171.748742 171.395694 
L 1172.26862 171.395694 
L 1172.788498 171.141095 
L 1173.308376 171.344075 
L 1173.828254 171.088113 
L 1174.348132 170.627087 
L 1174.86801 171.034629 
L 1175.387887 171.239367 
L 1175.907765 170.980635 
L 1176.947521 171.33984 
L 1177.467399 170.607846 
L 1178.507155 170.607846 
L 1179.546911 171.023871 
L 1180.066789 170.493247 
L 1180.586667 169.474697 
L 1181.106545 168.992131 
L 1182.146301 169.346777 
L 1182.666179 168.580532 
L 1183.186057 168.511452 
L 1183.705934 168.723612 
L 1184.74569 168.723612 
L 1185.265568 169.36437 
L 1185.785446 169.579394 
L 1186.305324 169.015593 
L 1187.34508 168.878356 
L 1187.864958 168.372419 
L 1188.384836 168.372419 
L 1188.904714 168.590172 
L 1189.424592 168.081997 
L 1189.94447 168.3 
L 1190.464348 167.495113 
L 1190.984226 167.713611 
L 1191.504103 167.198609 
L 1192.023981 167.198609 
L 1192.543859 167.857133 
L 1193.583615 167.857133 
L 1194.103493 168.078179 
L 1196.183005 168.078179 
L 1196.702883 168.522601 
L 1197.742639 168.898865 
L 1198.262517 168.600498 
L 1198.782395 168.526583 
L 1199.302273 168.753978 
L 1199.82215 168.224201 
L 1200.342028 167.91964 
L 1201.381784 167.841087 
L 1201.901662 168.070127 
L 1202.42154 168.53071 
L 1202.941418 167.991825 
L 1203.981174 167.368676 
L 1204.501052 167.600221 
L 1205.02093 167.285471 
L 1205.540808 166.736296 
L 1206.060686 167.201338 
L 1206.580564 166.882164 
L 1207.100442 167.116262 
L 1207.62032 167.116262 
L 1208.140197 167.351236 
L 1208.660075 166.794972 
L 1209.179953 167.030226 
L 1209.699831 166.471262 
L 1210.219709 166.706792 
L 1210.739587 167.18053 
L 1211.259465 166.617609 
L 1211.779343 166.617609 
L 1212.819099 167.573461 
L 1213.338977 167.814713 
L 1214.898611 167.730559 
L 1215.938366 168.709903 
L 1216.458244 168.709903 
L 1216.978122 168.13572 
L 1217.498 168.878356 
L 1218.017878 168.3 
L 1218.537756 168.3 
L 1219.057634 167.967559 
L 1219.577512 168.466877 
L 1220.09739 168.466877 
L 1220.617268 168.970159 
L 1221.137146 169.2233 
L 1221.657024 168.636414 
L 1222.176902 168.8899 
L 1222.69678 168.8899 
L 1223.216658 168.3 
L 1223.736536 167.960884 
L 1225.296169 169.501382 
L 1225.816047 169.501382 
L 1226.335925 169.161633 
L 1226.855803 168.559018 
L 1227.375681 168.559018 
L 1227.895559 167.953934 
L 1228.935315 167.953934 
L 1229.455193 168.473745 
L 1229.975071 168.735258 
L 1231.014827 168.735258 
L 1231.534705 168.997851 
L 1232.57446 168.997851 
L 1233.094338 169.526307 
L 1233.614216 168.914428 
L 1234.134094 168.564426 
L 1234.653972 168.829958 
L 1235.17385 169.36437 
L 1236.733484 169.36437 
L 1237.253362 168.744421 
L 1237.77324 169.28186 
L 1238.812996 169.823864 
L 1239.332874 169.198298 
L 1239.852752 169.198298 
L 1240.372629 168.570064 
L 1241.932263 168.570064 
L 1242.972019 166.29819 
L 1243.491897 166.56743 
L 1244.531653 166.464348 
L 1245.051531 166.087598 
L 1245.571409 166.359912 
L 1246.611165 166.359912 
L 1247.131043 166.633421 
L 1247.650921 166.633421 
L 1248.170798 167.184053 
L 1249.210554 167.739558 
L 1249.730432 167.739558 
L 1251.290066 168.582094 
L 1251.809944 167.261029 
L 1252.329822 167.261029 
L 1252.8497 167.542691 
L 1253.369578 168.10982 
L 1253.889456 168.395305 
L 1254.409334 168.395305 
L 1254.929212 169.259545 
L 1255.44909 168.588519 
L 1257.008723 168.588519 
L 1257.528601 167.814713 
L 1258.048479 168.690926 
L 1259.088235 168.690926 
L 1259.608113 168.985708 
L 1260.127991 168.985708 
L 1260.647869 168.3 
L 1261.167747 167.905421 
L 1261.687625 168.399811 
L 1262.207503 167.699716 
L 1263.247259 168.3 
L 1264.287015 168.3 
L 1265.32677 168.906029 
L 1265.846648 168.198753 
L 1266.366526 168.198753 
L 1266.886404 167.488077 
L 1267.406282 167.791325 
L 1267.92616 167.076232 
L 1268.446038 167.685146 
L 1268.965916 167.685146 
L 1269.485794 167.991825 
L 1270.005672 167.270244 
L 1270.52555 166.121572 
L 1271.565306 166.121572 
L 1272.085184 166.428177 
L 1272.605061 166.428177 
L 1273.124939 166.000891 
L 1273.644817 165.261836 
L 1274.164695 165.261836 
L 1274.684573 165.1335 
L 1275.724329 165.1335 
L 1276.244207 165.75407 
L 1276.764085 165.003224 
L 1277.283963 164.558987 
L 1278.323719 164.558987 
L 1278.843597 163.035929 
L 1279.363475 163.345612 
L 1279.883353 163.969744 
L 1280.403231 163.969744 
L 1280.923108 164.918036 
L 1281.442986 165.237409 
L 1281.962864 165.103185 
L 1282.482742 165.426387 
L 1283.00262 166.077895 
L 1283.522498 165.292243 
L 1284.042376 163.708435 
L 1285.082132 163.708435 
L 1285.60201 164.033085 
L 1286.121888 162.42984 
L 1286.641766 163.079247 
L 1287.681522 163.079247 
L 1288.2014 162.594595 
L 1288.721277 162.594595 
L 1289.241155 162.104674 
L 1289.761033 162.104674 
L 1290.280911 162.432916 
L 1291.320667 160.78137 
L 1291.840545 160.78137 
L 1292.360423 159.948791 
L 1292.880301 159.948791 
L 1293.400179 160.274711 
L 1295.999569 160.274711 
L 1296.519447 160.602431 
L 1297.039324 160.602431 
L 1297.559202 161.263333 
L 1298.07908 161.596546 
L 1298.598958 161.421461 
L 1299.118836 161.758873 
L 1300.158592 160.047365 
L 1300.67847 160.047365 
L 1301.198348 160.38375 
L 1301.718226 159.519202 
L 1302.238104 159.856 
L 1302.757982 158.984986 
L 1303.27786 159.322184 
L 1303.797738 159.322184 
L 1304.317616 159.121739 
L 1304.837493 159.121739 
L 1306.917005 160.499824 
L 1307.956761 160.499824 
L 1308.476639 161.201062 
L 1308.996517 161.201062 
L 1310.036273 161.910623 
L 1310.556151 161.368358 
L 1311.076029 161.726826 
L 1311.595907 160.81958 
L 1312.115785 161.539698 
L 1312.635663 160.623636 
L 1313.15554 160.623636 
L 1314.195296 161.349146 
L 1314.715174 161.349146 
L 1315.75493 162.083558 
L 1316.794686 162.083558 
L 1317.314564 161.155077 
L 1318.874198 161.155077 
L 1319.394076 160.220864 
L 1320.433832 160.957391 
L 1320.95371 160.957391 
L 1321.473587 161.329097 
L 1321.993465 162.079498 
L 1322.513343 162.458239 
L 1325.112733 162.458239 
L 1325.632611 161.507508 
L 1326.672367 162.268571 
L 1327.192245 162.268571 
L 1327.712123 161.308153 
L 1328.751879 161.308153 
L 1329.271756 159.747395 
L 1329.791634 160.128387 
L 1330.311512 160.128387 
L 1330.83139 160.511845 
L 1331.351268 161.286254 
L 1331.871146 161.286254 
L 1332.910902 163.671229 
L 1333.950658 163.671229 
L 1334.470536 164.078 
L 1334.990414 163.482953 
L 1335.510292 163.893199 
L 1336.03017 163.893199 
L 1336.550048 164.722034 
L 1337.069926 163.704626 
L 1337.589803 164.540685 
L 1338.109681 164.963024 
L 1338.629559 164.963024 
L 1339.149437 165.388276 
L 1339.669315 165.388276 
L 1340.189193 164.781667 
L 1341.228949 164.781667 
L 1341.748827 165.642797 
L 1342.268705 165.642797 
L 1342.788583 164.596491 
L 1343.308461 165.029437 
L 1343.308461 165.029437 
" style="fill:none;stroke:#ff0000;stroke-linecap:square;stroke-width:1.5;"/>
   </g>
   <g id="line2d_35">
    <path clip-path="url(#p699beb98ca)" d="M 823.950403 354.86504 
L 824.470281 320.704248 
L 824.990159 299.332398 
L 825.510037 284.642478 
L 826.549793 263.591414 
L 827.069671 255.679043 
L 828.109426 245.234049 
L 828.629304 241.580485 
L 829.149182 239.766794 
L 830.188938 238.236417 
L 830.708816 237.981912 
L 831.228694 237.006348 
L 832.26845 237.493782 
L 833.308206 238.733819 
L 833.828084 238.819256 
L 834.86784 240.01609 
L 835.387717 241.06228 
L 835.907595 243.063672 
L 836.427473 244.478068 
L 836.947351 245.463729 
L 838.506985 250.803257 
L 839.026863 253.197318 
L 839.546741 254.376773 
L 840.066619 256.267268 
L 840.586497 257.700441 
L 841.626253 262.86809 
L 844.74552 275.233853 
L 845.265398 276.749687 
L 846.825032 282.202327 
L 847.34491 283.932016 
L 847.864788 286.258556 
L 850.464178 295.175231 
L 853.063567 304.761575 
L 854.103323 307.462847 
L 856.182835 315.226786 
L 857.222591 318.508368 
L 857.742469 319.479548 
L 858.262347 320.848294 
L 858.782225 321.836576 
L 859.82198 324.641396 
L 861.901492 329.621544 
L 862.941248 332.833235 
L 863.461126 334.107446 
L 864.500882 336.014595 
L 865.540638 338.6646 
L 867.100272 341.280733 
L 868.140027 343.282715 
L 869.699661 346.428081 
L 872.299051 351.667665 
L 872.818929 352.482233 
L 873.338807 353.576568 
L 873.858685 354.268527 
L 874.378563 355.366146 
L 874.898441 356.001716 
L 875.418319 357.278184 
L 877.49783 360.539564 
L 878.017708 361.757288 
L 879.057464 363.54693 
L 880.09722 364.733578 
L 881.136976 366.364764 
L 881.656854 366.80065 
L 883.216488 368.947979 
L 883.736366 369.606475 
L 884.256243 370.606606 
L 885.815877 371.767005 
L 886.855633 373.246197 
L 887.895389 374.31863 
L 888.935145 375.655158 
L 891.534535 379.043497 
L 892.57429 380.195347 
L 894.133924 382.226732 
L 894.653802 383.246763 
L 896.733314 385.5605 
L 899.852582 388.125942 
L 900.892337 388.658717 
L 901.412215 389.357602 
L 901.932093 389.834879 
L 902.451971 390.07091 
L 902.971849 390.630058 
L 903.491727 390.90611 
L 904.011605 391.505339 
L 904.531483 392.344512 
L 905.051361 392.963512 
L 905.571239 393.220507 
L 906.610995 394.337017 
L 908.170628 395.271965 
L 911.809774 398.658677 
L 912.329652 398.776465 
L 912.84953 399.074806 
L 914.409164 400.387883 
L 915.968798 401.12286 
L 917.008553 401.678651 
L 918.048309 402.495642 
L 918.568187 402.534687 
L 919.607943 403.511123 
L 920.647699 404.008251 
L 921.687455 404.505001 
L 923.247089 405.659527 
L 927.406112 408.066672 
L 927.92599 408.165626 
L 931.045258 409.696114 
L 932.085014 410.472933 
L 933.124769 410.690278 
L 934.164525 411.287395 
L 934.684403 411.705481 
L 935.204281 411.883622 
L 935.724159 412.322667 
L 938.323549 413.436598 
L 939.883183 414.212292 
L 940.922938 414.229833 
L 941.442816 414.407669 
L 942.482572 415.224965 
L 943.522328 415.64263 
L 944.042206 415.901977 
L 944.562084 416.001118 
L 945.081962 416.339387 
L 945.60184 416.418294 
L 946.121718 416.717122 
L 946.641596 416.715512 
L 947.161474 417.075124 
L 948.20123 417.412904 
L 948.721107 417.891602 
L 949.760863 418.19032 
L 955.479521 418.873478 
L 955.999399 419.05243 
L 956.519277 419.370186 
L 957.559032 419.503975 
L 960.6783 420.960018 
L 961.198178 421.037877 
L 962.237934 421.397012 
L 967.436713 422.92566 
L 967.956591 422.881025 
L 968.476469 423.222443 
L 968.996347 423.179187 
L 970.036103 423.49977 
L 971.075859 423.596608 
L 972.115615 423.914107 
L 972.635493 424.175124 
L 974.195126 424.368479 
L 975.234882 424.666597 
L 976.794516 424.984002 
L 977.314394 425.225926 
L 979.393906 425.562675 
L 979.913784 425.743245 
L 980.95354 425.88181 
L 981.473417 426.062362 
L 981.993295 426.099283 
L 983.552929 426.599003 
L 984.072807 426.597299 
L 985.112563 426.897132 
L 985.632441 426.956757 
L 988.231831 427.831819 
L 989.271586 427.86677 
L 989.791464 428.10709 
L 990.83122 428.285943 
L 992.910732 428.885735 
L 994.470366 429.306519 
L 998.629389 430.179882 
L 999.149267 430.360473 
L 1000.189023 430.476199 
L 1002.268535 430.954958 
L 1003.308291 431.032001 
L 1004.348047 431.270459 
L 1004.867925 431.470429 
L 1005.387802 431.447359 
L 1006.427558 431.849236 
L 1007.467314 432.110583 
L 1008.50707 432.128063 
L 1011.626338 432.462693 
L 1012.146216 432.643473 
L 1016.825117 433.235527 
L 1017.344995 433.354729 
L 1017.864873 433.267065 
L 1019.944385 433.648319 
L 1020.984141 433.603084 
L 1021.504018 433.619613 
L 1022.023896 433.841392 
L 1023.063652 433.919998 
L 1023.58353 434.282351 
L 1025.143164 434.742304 
L 1026.18292 435.066093 
L 1027.742554 435.306614 
L 1028.262432 435.506675 
L 1029.302188 435.52373 
L 1030.861821 435.804692 
L 1038.140112 436.97754 
L 1039.179868 437.422077 
L 1040.219624 437.522063 
L 1040.739502 437.702756 
L 1042.299136 437.798981 
L 1042.819014 437.979737 
L 1044.378648 438.137426 
L 1047.497915 438.450495 
L 1049.057549 438.812319 
L 1050.617183 439.314266 
L 1051.656939 439.412367 
L 1052.176817 439.593094 
L 1054.776206 439.768045 
L 1055.815962 439.929649 
L 1056.33584 439.927671 
L 1056.855718 440.127698 
L 1058.415352 440.389216 
L 1058.93523 440.590927 
L 1063.094253 440.943002 
L 1063.614131 441.123817 
L 1065.693643 441.177129 
L 1066.733399 441.317661 
L 1067.773155 441.415494 
L 1068.812911 441.71785 
L 1071.4123 441.811186 
L 1072.452056 441.951788 
L 1079.210469 442.5426 
L 1079.730347 442.704862 
L 1081.289981 442.780855 
L 1083.889371 443.081297 
L 1084.409249 443.284054 
L 1085.449005 443.362672 
L 1086.48876 443.381698 
L 1089.608028 443.784533 
L 1091.167662 443.720115 
L 1098.445953 445.090587 
L 1099.485709 445.148508 
L 1103.124854 445.200136 
L 1104.16461 445.442792 
L 1105.204366 445.542808 
L 1117.681437 446.067382 
L 1118.721192 446.208132 
L 1120.280826 446.227102 
L 1122.360338 446.365167 
L 1123.400094 446.608688 
L 1124.43985 446.565502 
L 1137.436798 447.483214 
L 1138.476554 447.480515 
L 1143.155455 447.756504 
L 1144.715089 447.775368 
L 1145.234967 447.938004 
L 1146.274723 447.93512 
L 1150.433747 448.333015 
L 1151.473502 448.333015 
L 1153.553014 448.733856 
L 1154.59277 448.852942 
L 1157.19216 449.175222 
L 1159.271671 449.215825 
L 1159.791549 449.337561 
L 1160.831305 449.356562 
L 1163.430695 449.475694 
L 1163.950573 449.475694 
L 1164.470451 449.597385 
L 1166.030085 449.632726 
L 1169.66923 449.732899 
L 1170.708986 449.773506 
L 1171.748742 450.076456 
L 1174.348132 450.133524 
L 1175.907765 450.274223 
L 1180.586667 450.547694 
L 1181.106545 450.525903 
L 1182.146301 450.666782 
L 1184.225812 450.764035 
L 1184.74569 450.764035 
L 1185.785446 450.926719 
L 1189.94447 451.121191 
L 1192.023981 451.13668 
L 1192.543859 451.259003 
L 1196.183005 451.299749 
L 1198.782395 451.600489 
L 1200.342028 451.638069 
L 1201.901662 451.738328 
L 1202.941418 451.797844 
L 1212.299221 452.233112 
L 1213.338977 452.355449 
L 1214.898611 452.414959 
L 1216.458244 452.577881 
L 1216.978122 452.55597 
L 1217.498 452.678106 
L 1219.057634 452.675002 
L 1220.617268 452.83786 
L 1222.69678 452.897395 
L 1223.736536 452.894292 
L 1225.816047 453.138479 
L 1227.895559 453.113581 
L 1229.455193 453.195043 
L 1231.534705 453.276438 
L 1234.134094 453.354806 
L 1236.733484 453.476855 
L 1237.77324 453.536397 
L 1239.852752 453.595938 
L 1242.972019 453.526647 
L 1246.091287 453.68645 
L 1247.650921 453.727289 
L 1249.210554 453.890473 
L 1250.770188 453.971959 
L 1251.809944 453.968705 
L 1252.8497 454.009487 
L 1253.889456 454.131726 
L 1254.409334 454.131726 
L 1254.929212 454.253801 
L 1257.008723 454.231965 
L 1263.767137 454.629828 
L 1267.92616 454.686061 
L 1268.965916 454.767628 
L 1270.52555 454.782846 
L 1275.724329 454.879438 
L 1276.764085 454.938883 
L 1281.442986 455.199073 
L 1283.522498 455.358889 
L 1285.082132 455.313897 
L 1287.161644 455.391664 
L 1297.039324 455.482806 
L 1299.118836 455.7068 
L 1301.718226 455.678757 
L 1304.317616 455.797298 
L 1305.877249 455.879834 
L 1311.076029 456.186295 
L 1312.635663 456.222629 
L 1314.715174 456.304983 
L 1316.794686 456.387249 
L 1319.394076 456.341245 
L 1323.553099 456.588181 
L 1330.311512 456.660894 
L 1332.391024 456.907845 
L 1332.910902 457.030999 
L 1336.03017 457.131417 
L 1337.589803 457.272801 
L 1340.189193 457.373188 
L 1343.308461 457.473568 
L 1343.308461 457.473568 
" style="fill:none;stroke:#008000;stroke-linecap:square;stroke-width:1.5;"/>
   </g>
   <g id="line2d_36">
    <path clip-path="url(#p699beb98ca)" d="M 831.228694 463.84 
L 831.228694 41.64 
" style="fill:none;stroke:#1f77b4;stroke-linecap:square;stroke-width:1.5;"/>
   </g>
   <g id="patch_9">
    <path d="M 797.9825 463.84 
L 797.9825 41.64 
" style="fill:none;stroke:#000000;stroke-linecap:square;stroke-linejoin:miter;stroke-width:0.8;"/>
   </g>
   <g id="patch_10">
    <path d="M 1369.276364 463.84 
L 1369.276364 41.64 
" style="fill:none;stroke:#000000;stroke-linecap:square;stroke-linejoin:miter;stroke-width:0.8;"/>
   </g>
   <g id="patch_11">
    <path d="M 797.9825 463.84 
L 1369.276364 463.84 
" style="fill:none;stroke:#000000;stroke-linecap:square;stroke-linejoin:miter;stroke-width:0.8;"/>
   </g>
   <g id="patch_12">
    <path d="M 797.9825 41.64 
L 1369.276364 41.64 
" style="fill:none;stroke:#000000;stroke-linecap:square;stroke-linejoin:miter;stroke-width:0.8;"/>
   </g>
   <g id="text_31">
    <!-- Purity/Efficiency vs PcaRatioW Cutoff — shower -->
    <defs>
     <path d="M 54.890625 33.015625 
L 54.890625 0 
L 45.90625 0 
L 45.90625 32.71875 
Q 45.90625 40.484375 42.875 44.328125 
Q 39.84375 48.1875 33.796875 48.1875 
Q 26.515625 48.1875 22.3125 43.546875 
Q 18.109375 38.921875 18.109375 30.90625 
L 18.109375 0 
L 9.078125 0 
L 9.078125 75.984375 
L 18.109375 75.984375 
L 18.109375 46.1875 
Q 21.34375 51.125 25.703125 53.5625 
Q 30.078125 56 35.796875 56 
Q 45.21875 56 50.046875 50.171875 
Q 54.890625 44.34375 54.890625 33.015625 
z
" id="DejaVuSans-104"/>
     <path d="M 4.203125 54.6875 
L 13.1875 54.6875 
L 24.421875 12.015625 
L 35.59375 54.6875 
L 46.1875 54.6875 
L 57.421875 12.015625 
L 68.609375 54.6875 
L 77.59375 54.6875 
L 63.28125 0 
L 52.6875 0 
L 40.921875 44.828125 
L 29.109375 0 
L 18.5 0 
z
" id="DejaVuSans-119"/>
    </defs>
    <g transform="translate(775.511507 35.64)scale(0.2592 -0.2592)">
     <use xlink:href="#DejaVuSans-80"/>
     <use x="60.287109" xlink:href="#DejaVuSans-117"/>
     <use x="123.666016" xlink:href="#DejaVuSans-114"/>
     <use x="164.779297" xlink:href="#DejaVuSans-105"/>
     <use x="192.5625" xlink:href="#DejaVuSans-116"/>
     <use x="231.771484" xlink:href="#DejaVuSans-121"/>
     <use x="290.951172" xlink:href="#DejaVuSans-47"/>
     <use x="324.642578" xlink:href="#DejaVuSans-69"/>
     <use x="387.826172" xlink:href="#DejaVuSans-102"/>
     <use x="423.03125" xlink:href="#DejaVuSans-102"/>
     <use x="458.236328" xlink:href="#DejaVuSans-105"/>
     <use x="486.019531" xlink:href="#DejaVuSans-99"/>
     <use x="541" xlink:href="#DejaVuSans-105"/>
     <use x="568.783203" xlink:href="#DejaVuSans-101"/>
     <use x="630.306641" xlink:href="#DejaVuSans-110"/>
     <use x="693.685547" xlink:href="#DejaVuSans-99"/>
     <use x="748.666016" xlink:href="#DejaVuSans-121"/>
     <use x="807.845703" xlink:href="#DejaVuSans-32"/>
     <use x="839.632812" xlink:href="#DejaVuSans-118"/>
     <use x="898.8125" xlink:href="#DejaVuSans-115"/>
     <use x="950.912109" xlink:href="#DejaVuSans-32"/>
     <use x="982.699219" xlink:href="#DejaVuSans-80"/>
     <use x="1043.001953" xlink:href="#DejaVuSans-99"/>
     <use x="1097.982422" xlink:href="#DejaVuSans-97"/>
     <use x="1159.261719" xlink:href="#DejaVuSans-82"/>
     <use x="1228.712891" xlink:href="#DejaVuSans-97"/>
     <use x="1289.992188" xlink:href="#DejaVuSans-116"/>
     <use x="1329.201172" xlink:href="#DejaVuSans-105"/>
     <use x="1356.984375" xlink:href="#DejaVuSans-111"/>
     <use x="1418.166016" xlink:href="#DejaVuSans-87"/>
     <use x="1517.042969" xlink:href="#DejaVuSans-32"/>
     <use x="1548.830078" xlink:href="#DejaVuSans-67"/>
     <use x="1618.654297" xlink:href="#DejaVuSans-117"/>
     <use x="1682.033203" xlink:href="#DejaVuSans-116"/>
     <use x="1721.242188" xlink:href="#DejaVuSans-111"/>
     <use x="1782.423828" xlink:href="#DejaVuSans-102"/>
     <use x="1817.628906" xlink:href="#DejaVuSans-102"/>
     <use x="1852.833984" xlink:href="#DejaVuSans-32"/>
     <use x="1884.621094" xlink:href="#DejaVuSans-8212"/>
     <use x="1984.621094" xlink:href="#DejaVuSans-32"/>
     <use x="2016.408203" xlink:href="#DejaVuSans-115"/>
     <use x="2068.507812" xlink:href="#DejaVuSans-104"/>
     <use x="2131.886719" xlink:href="#DejaVuSans-111"/>
     <use x="2193.068359" xlink:href="#DejaVuSans-119"/>
     <use x="2274.855469" xlink:href="#DejaVuSans-101"/>
     <use x="2336.378906" xlink:href="#DejaVuSans-114"/>
    </g>
   </g>
   <g id="legend_2">
    <g id="patch_13">
     <path d="M 974.934744 454.84 
L 1192.324119 454.84 
Q 1195.924119 454.84 1195.924119 451.24 
L 1195.924119 373.778125 
Q 1195.924119 370.178125 1192.324119 370.178125 
L 974.934744 370.178125 
Q 971.334744 370.178125 971.334744 373.778125 
L 971.334744 451.24 
Q 971.334744 454.84 974.934744 454.84 
z
" style="fill:#ffffff;opacity:0.8;stroke:#cccccc;stroke-linejoin:miter;"/>
    </g>
    <g id="line2d_37">
     <path d="M 978.534744 384.755313 
L 1014.534744 384.755313 
" style="fill:none;stroke:#0000ff;stroke-linecap:square;stroke-width:1.5;"/>
    </g>
    <g id="line2d_38"/>
    <g id="text_32">
     <!-- Efficiency -->
     <g transform="translate(1028.934744 391.055313)scale(0.18 -0.18)">
      <use xlink:href="#DejaVuSans-69"/>
      <use x="63.183594" xlink:href="#DejaVuSans-102"/>
      <use x="98.388672" xlink:href="#DejaVuSans-102"/>
      <use x="133.59375" xlink:href="#DejaVuSans-105"/>
      <use x="161.376953" xlink:href="#DejaVuSans-99"/>
      <use x="216.357422" xlink:href="#DejaVuSans-105"/>
      <use x="244.140625" xlink:href="#DejaVuSans-101"/>
      <use x="305.664062" xlink:href="#DejaVuSans-110"/>
      <use x="369.042969" xlink:href="#DejaVuSans-99"/>
      <use x="424.023438" xlink:href="#DejaVuSans-121"/>
     </g>
    </g>
    <g id="line2d_39">
     <path d="M 978.534744 411.175937 
L 1014.534744 411.175937 
" style="fill:none;stroke:#ff0000;stroke-linecap:square;stroke-width:1.5;"/>
    </g>
    <g id="line2d_40"/>
    <g id="text_33">
     <!-- Purity -->
     <g transform="translate(1028.934744 417.475937)scale(0.18 -0.18)">
      <use xlink:href="#DejaVuSans-80"/>
      <use x="60.287109" xlink:href="#DejaVuSans-117"/>
      <use x="123.666016" xlink:href="#DejaVuSans-114"/>
      <use x="164.779297" xlink:href="#DejaVuSans-105"/>
      <use x="192.5625" xlink:href="#DejaVuSans-116"/>
      <use x="231.771484" xlink:href="#DejaVuSans-121"/>
     </g>
    </g>
    <g id="line2d_41">
     <path d="M 978.534744 437.596562 
L 1014.534744 437.596562 
" style="fill:none;stroke:#008000;stroke-linecap:square;stroke-width:1.5;"/>
    </g>
    <g id="line2d_42"/>
    <g id="text_34">
     <!-- Purity * Efficiency -->
     <g transform="translate(1028.934744 443.896562)scale(0.18 -0.18)">
      <use xlink:href="#DejaVuSans-80"/>
      <use x="60.287109" xlink:href="#DejaVuSans-117"/>
      <use x="123.666016" xlink:href="#DejaVuSans-114"/>
      <use x="164.779297" xlink:href="#DejaVuSans-105"/>
      <use x="192.5625" xlink:href="#DejaVuSans-116"/>
      <use x="231.771484" xlink:href="#DejaVuSans-121"/>
      <use x="290.951172" xlink:href="#DejaVuSans-32"/>
      <use x="322.738281" xlink:href="#DejaVuSans-42"/>
      <use x="372.738281" xlink:href="#DejaVuSans-32"/>
      <use x="404.525391" xlink:href="#DejaVuSans-69"/>
      <use x="467.708984" xlink:href="#DejaVuSans-102"/>
      <use x="502.914062" xlink:href="#DejaVuSans-102"/>
      <use x="538.119141" xlink:href="#DejaVuSans-105"/>
      <use x="565.902344" xlink:href="#DejaVuSans-99"/>
      <use x="620.882812" xlink:href="#DejaVuSans-105"/>
      <use x="648.666016" xlink:href="#DejaVuSans-101"/>
      <use x="710.189453" xlink:href="#DejaVuSans-110"/>
      <use x="773.568359" xlink:href="#DejaVuSans-99"/>
      <use x="828.548828" xlink:href="#DejaVuSans-121"/>
     </g>
    </g>
   </g>
  </g>
 </g>
 <defs>
  <clipPath id="p768df75aea">
   <rect height="422.2" width="571.293864" x="92.99" y="41.64"/>
  </clipPath>
  <clipPath id="p699beb98ca">
   <rect height="422.2" width="571.293864" x="797.9825" y="41.64"/>
  </clipPath>
 </defs>
</svg>
