<?xml version="1.0" encoding="utf-8" standalone="no"?>
<!DOCTYPE svg PUBLIC "-//W3C//DTD SVG 1.1//EN"
  "http://www.w3.org/Graphics/SVG/1.1/DTD/svg11.dtd">
<!-- Created with matplotlib (https://matplotlib.org/) -->
<svg height="540pt" version="1.1" viewBox="0 0 1440 540" width="1440pt" xmlns="http://www.w3.org/2000/svg" xmlns:xlink="http://www.w3.org/1999/xlink">
 <defs>
  <style type="text/css">
*{stroke-linecap:butt;stroke-linejoin:round;}
  </style>
 </defs>
 <g id="figure_1">
  <g id="patch_1">
   <path d="M 0 540 
L 1440 540 
L 1440 0 
L 0 0 
z
" style="fill:#ffffff;"/>
  </g>
  <g id="axes_1">
   <g id="patch_2">
    <path d="M 118.423636 463.84 
L 595.861364 463.84 
L 595.861364 41.64 
L 118.423636 41.64 
z
" style="fill:#ffffff;"/>
   </g>
   <g id="matplotlib.axis_1">
    <g id="xtick_1">
     <g id="line2d_1">
      <defs>
       <path d="M 0 0 
L 0 3.5 
" id="m700448f587" style="stroke:#000000;stroke-width:0.8;"/>
      </defs>
      <g>
       <use style="stroke:#000000;stroke-width:0.8;" x="140.125351" xlink:href="#m700448f587" y="463.84"/>
      </g>
     </g>
     <g id="text_1">
      <!-- 0 -->
      <defs>
       <path d="M 31.78125 66.40625 
Q 24.171875 66.40625 20.328125 58.90625 
Q 16.5 51.421875 16.5 36.375 
Q 16.5 21.390625 20.328125 13.890625 
Q 24.171875 6.390625 31.78125 6.390625 
Q 39.453125 6.390625 43.28125 13.890625 
Q 47.125 21.390625 47.125 36.375 
Q 47.125 51.421875 43.28125 58.90625 
Q 39.453125 66.40625 31.78125 66.40625 
z
M 31.78125 74.21875 
Q 44.046875 74.21875 50.515625 64.515625 
Q 56.984375 54.828125 56.984375 36.375 
Q 56.984375 17.96875 50.515625 8.265625 
Q 44.046875 -1.421875 31.78125 -1.421875 
Q 19.53125 -1.421875 13.0625 8.265625 
Q 6.59375 17.96875 6.59375 36.375 
Q 6.59375 54.828125 13.0625 64.515625 
Q 19.53125 74.21875 31.78125 74.21875 
z
" id="DejaVuSans-48"/>
      </defs>
      <g transform="translate(131.879551 490.53515)scale(0.2592 -0.2592)">
       <use xlink:href="#DejaVuSans-48"/>
      </g>
     </g>
    </g>
    <g id="xtick_2">
     <g id="line2d_2">
      <g>
       <use style="stroke:#000000;stroke-width:0.8;" x="284.80345" xlink:href="#m700448f587" y="463.84"/>
      </g>
     </g>
     <g id="text_2">
      <!-- 200 -->
      <defs>
       <path d="M 19.1875 8.296875 
L 53.609375 8.296875 
L 53.609375 0 
L 7.328125 0 
L 7.328125 8.296875 
Q 12.9375 14.109375 22.625 23.890625 
Q 32.328125 33.6875 34.8125 36.53125 
Q 39.546875 41.84375 41.421875 45.53125 
Q 43.3125 49.21875 43.3125 52.78125 
Q 43.3125 58.59375 39.234375 62.25 
Q 35.15625 65.921875 28.609375 65.921875 
Q 23.96875 65.921875 18.8125 64.3125 
Q 13.671875 62.703125 7.8125 59.421875 
L 7.8125 69.390625 
Q 13.765625 71.78125 18.9375 73 
Q 24.125 74.21875 28.421875 74.21875 
Q 39.75 74.21875 46.484375 68.546875 
Q 53.21875 62.890625 53.21875 53.421875 
Q 53.21875 48.921875 51.53125 44.890625 
Q 49.859375 40.875 45.40625 35.40625 
Q 44.1875 33.984375 37.640625 27.21875 
Q 31.109375 20.453125 19.1875 8.296875 
z
" id="DejaVuSans-50"/>
      </defs>
      <g transform="translate(260.06605 490.53515)scale(0.2592 -0.2592)">
       <use xlink:href="#DejaVuSans-50"/>
       <use x="63.623047" xlink:href="#DejaVuSans-48"/>
       <use x="127.246094" xlink:href="#DejaVuSans-48"/>
      </g>
     </g>
    </g>
    <g id="xtick_3">
     <g id="line2d_3">
      <g>
       <use style="stroke:#000000;stroke-width:0.8;" x="429.48155" xlink:href="#m700448f587" y="463.84"/>
      </g>
     </g>
     <g id="text_3">
      <!-- 400 -->
      <defs>
       <path d="M 37.796875 64.3125 
L 12.890625 25.390625 
L 37.796875 25.390625 
z
M 35.203125 72.90625 
L 47.609375 72.90625 
L 47.609375 25.390625 
L 58.015625 25.390625 
L 58.015625 17.1875 
L 47.609375 17.1875 
L 47.609375 0 
L 37.796875 0 
L 37.796875 17.1875 
L 4.890625 17.1875 
L 4.890625 26.703125 
z
" id="DejaVuSans-52"/>
      </defs>
      <g transform="translate(404.74415 490.53515)scale(0.2592 -0.2592)">
       <use xlink:href="#DejaVuSans-52"/>
       <use x="63.623047" xlink:href="#DejaVuSans-48"/>
       <use x="127.246094" xlink:href="#DejaVuSans-48"/>
      </g>
     </g>
    </g>
    <g id="xtick_4">
     <g id="line2d_4">
      <g>
       <use style="stroke:#000000;stroke-width:0.8;" x="574.159649" xlink:href="#m700448f587" y="463.84"/>
      </g>
     </g>
     <g id="text_4">
      <!-- 600 -->
      <defs>
       <path d="M 33.015625 40.375 
Q 26.375 40.375 22.484375 35.828125 
Q 18.609375 31.296875 18.609375 23.390625 
Q 18.609375 15.53125 22.484375 10.953125 
Q 26.375 6.390625 33.015625 6.390625 
Q 39.65625 6.390625 43.53125 10.953125 
Q 47.40625 15.53125 47.40625 23.390625 
Q 47.40625 31.296875 43.53125 35.828125 
Q 39.65625 40.375 33.015625 40.375 
z
M 52.59375 71.296875 
L 52.59375 62.3125 
Q 48.875 64.0625 45.09375 64.984375 
Q 41.3125 65.921875 37.59375 65.921875 
Q 27.828125 65.921875 22.671875 59.328125 
Q 17.53125 52.734375 16.796875 39.40625 
Q 19.671875 43.65625 24.015625 45.921875 
Q 28.375 48.1875 33.59375 48.1875 
Q 44.578125 48.1875 50.953125 41.515625 
Q 57.328125 34.859375 57.328125 23.390625 
Q 57.328125 12.15625 50.6875 5.359375 
Q 44.046875 -1.421875 33.015625 -1.421875 
Q 20.359375 -1.421875 13.671875 8.265625 
Q 6.984375 17.96875 6.984375 36.375 
Q 6.984375 53.65625 15.1875 63.9375 
Q 23.390625 74.21875 37.203125 74.21875 
Q 40.921875 74.21875 44.703125 73.484375 
Q 48.484375 72.75 52.59375 71.296875 
z
" id="DejaVuSans-54"/>
      </defs>
      <g transform="translate(549.422249 490.53515)scale(0.2592 -0.2592)">
       <use xlink:href="#DejaVuSans-54"/>
       <use x="63.623047" xlink:href="#DejaVuSans-48"/>
       <use x="127.246094" xlink:href="#DejaVuSans-48"/>
      </g>
     </g>
    </g>
    <g id="text_5">
     <!-- LongitudinalSpan3D Cutoff -->
     <defs>
      <path d="M 9.8125 72.90625 
L 19.671875 72.90625 
L 19.671875 8.296875 
L 55.171875 8.296875 
L 55.171875 0 
L 9.8125 0 
z
" id="DejaVuSans-76"/>
      <path d="M 30.609375 48.390625 
Q 23.390625 48.390625 19.1875 42.75 
Q 14.984375 37.109375 14.984375 27.296875 
Q 14.984375 17.484375 19.15625 11.84375 
Q 23.34375 6.203125 30.609375 6.203125 
Q 37.796875 6.203125 41.984375 11.859375 
Q 46.1875 17.53125 46.1875 27.296875 
Q 46.1875 37.015625 41.984375 42.703125 
Q 37.796875 48.390625 30.609375 48.390625 
z
M 30.609375 56 
Q 42.328125 56 49.015625 48.375 
Q 55.71875 40.765625 55.71875 27.296875 
Q 55.71875 13.875 49.015625 6.21875 
Q 42.328125 -1.421875 30.609375 -1.421875 
Q 18.84375 -1.421875 12.171875 6.21875 
Q 5.515625 13.875 5.515625 27.296875 
Q 5.515625 40.765625 12.171875 48.375 
Q 18.84375 56 30.609375 56 
z
" id="DejaVuSans-111"/>
      <path d="M 54.890625 33.015625 
L 54.890625 0 
L 45.90625 0 
L 45.90625 32.71875 
Q 45.90625 40.484375 42.875 44.328125 
Q 39.84375 48.1875 33.796875 48.1875 
Q 26.515625 48.1875 22.3125 43.546875 
Q 18.109375 38.921875 18.109375 30.90625 
L 18.109375 0 
L 9.078125 0 
L 9.078125 54.6875 
L 18.109375 54.6875 
L 18.109375 46.1875 
Q 21.34375 51.125 25.703125 53.5625 
Q 30.078125 56 35.796875 56 
Q 45.21875 56 50.046875 50.171875 
Q 54.890625 44.34375 54.890625 33.015625 
z
" id="DejaVuSans-110"/>
      <path d="M 45.40625 27.984375 
Q 45.40625 37.75 41.375 43.109375 
Q 37.359375 48.484375 30.078125 48.484375 
Q 22.859375 48.484375 18.828125 43.109375 
Q 14.796875 37.75 14.796875 27.984375 
Q 14.796875 18.265625 18.828125 12.890625 
Q 22.859375 7.515625 30.078125 7.515625 
Q 37.359375 7.515625 41.375 12.890625 
Q 45.40625 18.265625 45.40625 27.984375 
z
M 54.390625 6.78125 
Q 54.390625 -7.171875 48.1875 -13.984375 
Q 42 -20.796875 29.203125 -20.796875 
Q 24.46875 -20.796875 20.265625 -20.09375 
Q 16.0625 -19.390625 12.109375 -17.921875 
L 12.109375 -9.1875 
Q 16.0625 -11.328125 19.921875 -12.34375 
Q 23.78125 -13.375 27.78125 -13.375 
Q 36.625 -13.375 41.015625 -8.765625 
Q 45.40625 -4.15625 45.40625 5.171875 
L 45.40625 9.625 
Q 42.625 4.78125 38.28125 2.390625 
Q 33.9375 0 27.875 0 
Q 17.828125 0 11.671875 7.65625 
Q 5.515625 15.328125 5.515625 27.984375 
Q 5.515625 40.671875 11.671875 48.328125 
Q 17.828125 56 27.875 56 
Q 33.9375 56 38.28125 53.609375 
Q 42.625 51.21875 45.40625 46.390625 
L 45.40625 54.6875 
L 54.390625 54.6875 
z
" id="DejaVuSans-103"/>
      <path d="M 9.421875 54.6875 
L 18.40625 54.6875 
L 18.40625 0 
L 9.421875 0 
z
M 9.421875 75.984375 
L 18.40625 75.984375 
L 18.40625 64.59375 
L 9.421875 64.59375 
z
" id="DejaVuSans-105"/>
      <path d="M 18.3125 70.21875 
L 18.3125 54.6875 
L 36.8125 54.6875 
L 36.8125 47.703125 
L 18.3125 47.703125 
L 18.3125 18.015625 
Q 18.3125 11.328125 20.140625 9.421875 
Q 21.96875 7.515625 27.59375 7.515625 
L 36.8125 7.515625 
L 36.8125 0 
L 27.59375 0 
Q 17.1875 0 13.234375 3.875 
Q 9.28125 7.765625 9.28125 18.015625 
L 9.28125 47.703125 
L 2.6875 47.703125 
L 2.6875 54.6875 
L 9.28125 54.6875 
L 9.28125 70.21875 
z
" id="DejaVuSans-116"/>
      <path d="M 8.5 21.578125 
L 8.5 54.6875 
L 17.484375 54.6875 
L 17.484375 21.921875 
Q 17.484375 14.15625 20.5 10.265625 
Q 23.53125 6.390625 29.59375 6.390625 
Q 36.859375 6.390625 41.078125 11.03125 
Q 45.3125 15.671875 45.3125 23.6875 
L 45.3125 54.6875 
L 54.296875 54.6875 
L 54.296875 0 
L 45.3125 0 
L 45.3125 8.40625 
Q 42.046875 3.421875 37.71875 1 
Q 33.40625 -1.421875 27.6875 -1.421875 
Q 18.265625 -1.421875 13.375 4.4375 
Q 8.5 10.296875 8.5 21.578125 
z
M 31.109375 56 
z
" id="DejaVuSans-117"/>
      <path d="M 45.40625 46.390625 
L 45.40625 75.984375 
L 54.390625 75.984375 
L 54.390625 0 
L 45.40625 0 
L 45.40625 8.203125 
Q 42.578125 3.328125 38.25 0.953125 
Q 33.9375 -1.421875 27.875 -1.421875 
Q 17.96875 -1.421875 11.734375 6.484375 
Q 5.515625 14.40625 5.515625 27.296875 
Q 5.515625 40.1875 11.734375 48.09375 
Q 17.96875 56 27.875 56 
Q 33.9375 56 38.25 53.625 
Q 42.578125 51.265625 45.40625 46.390625 
z
M 14.796875 27.296875 
Q 14.796875 17.390625 18.875 11.75 
Q 22.953125 6.109375 30.078125 6.109375 
Q 37.203125 6.109375 41.296875 11.75 
Q 45.40625 17.390625 45.40625 27.296875 
Q 45.40625 37.203125 41.296875 42.84375 
Q 37.203125 48.484375 30.078125 48.484375 
Q 22.953125 48.484375 18.875 42.84375 
Q 14.796875 37.203125 14.796875 27.296875 
z
" id="DejaVuSans-100"/>
      <path d="M 34.28125 27.484375 
Q 23.390625 27.484375 19.1875 25 
Q 14.984375 22.515625 14.984375 16.5 
Q 14.984375 11.71875 18.140625 8.90625 
Q 21.296875 6.109375 26.703125 6.109375 
Q 34.1875 6.109375 38.703125 11.40625 
Q 43.21875 16.703125 43.21875 25.484375 
L 43.21875 27.484375 
z
M 52.203125 31.203125 
L 52.203125 0 
L 43.21875 0 
L 43.21875 8.296875 
Q 40.140625 3.328125 35.546875 0.953125 
Q 30.953125 -1.421875 24.3125 -1.421875 
Q 15.921875 -1.421875 10.953125 3.296875 
Q 6 8.015625 6 15.921875 
Q 6 25.140625 12.171875 29.828125 
Q 18.359375 34.515625 30.609375 34.515625 
L 43.21875 34.515625 
L 43.21875 35.40625 
Q 43.21875 41.609375 39.140625 45 
Q 35.0625 48.390625 27.6875 48.390625 
Q 23 48.390625 18.546875 47.265625 
Q 14.109375 46.140625 10.015625 43.890625 
L 10.015625 52.203125 
Q 14.9375 54.109375 19.578125 55.046875 
Q 24.21875 56 28.609375 56 
Q 40.484375 56 46.34375 49.84375 
Q 52.203125 43.703125 52.203125 31.203125 
z
" id="DejaVuSans-97"/>
      <path d="M 9.421875 75.984375 
L 18.40625 75.984375 
L 18.40625 0 
L 9.421875 0 
z
" id="DejaVuSans-108"/>
      <path d="M 53.515625 70.515625 
L 53.515625 60.890625 
Q 47.90625 63.578125 42.921875 64.890625 
Q 37.9375 66.21875 33.296875 66.21875 
Q 25.25 66.21875 20.875 63.09375 
Q 16.5 59.96875 16.5 54.203125 
Q 16.5 49.359375 19.40625 46.890625 
Q 22.3125 44.4375 30.421875 42.921875 
L 36.375 41.703125 
Q 47.40625 39.59375 52.65625 34.296875 
Q 57.90625 29 57.90625 20.125 
Q 57.90625 9.515625 50.796875 4.046875 
Q 43.703125 -1.421875 29.984375 -1.421875 
Q 24.8125 -1.421875 18.96875 -0.25 
Q 13.140625 0.921875 6.890625 3.21875 
L 6.890625 13.375 
Q 12.890625 10.015625 18.65625 8.296875 
Q 24.421875 6.59375 29.984375 6.59375 
Q 38.421875 6.59375 43.015625 9.90625 
Q 47.609375 13.234375 47.609375 19.390625 
Q 47.609375 24.75 44.3125 27.78125 
Q 41.015625 30.8125 33.5 32.328125 
L 27.484375 33.5 
Q 16.453125 35.6875 11.515625 40.375 
Q 6.59375 45.0625 6.59375 53.421875 
Q 6.59375 63.09375 13.40625 68.65625 
Q 20.21875 74.21875 32.171875 74.21875 
Q 37.3125 74.21875 42.625 73.28125 
Q 47.953125 72.359375 53.515625 70.515625 
z
" id="DejaVuSans-83"/>
      <path d="M 18.109375 8.203125 
L 18.109375 -20.796875 
L 9.078125 -20.796875 
L 9.078125 54.6875 
L 18.109375 54.6875 
L 18.109375 46.390625 
Q 20.953125 51.265625 25.265625 53.625 
Q 29.59375 56 35.59375 56 
Q 45.5625 56 51.78125 48.09375 
Q 58.015625 40.1875 58.015625 27.296875 
Q 58.015625 14.40625 51.78125 6.484375 
Q 45.5625 -1.421875 35.59375 -1.421875 
Q 29.59375 -1.421875 25.265625 0.953125 
Q 20.953125 3.328125 18.109375 8.203125 
z
M 48.6875 27.296875 
Q 48.6875 37.203125 44.609375 42.84375 
Q 40.53125 48.484375 33.40625 48.484375 
Q 26.265625 48.484375 22.1875 42.84375 
Q 18.109375 37.203125 18.109375 27.296875 
Q 18.109375 17.390625 22.1875 11.75 
Q 26.265625 6.109375 33.40625 6.109375 
Q 40.53125 6.109375 44.609375 11.75 
Q 48.6875 17.390625 48.6875 27.296875 
z
" id="DejaVuSans-112"/>
      <path d="M 40.578125 39.3125 
Q 47.65625 37.796875 51.625 33 
Q 55.609375 28.21875 55.609375 21.1875 
Q 55.609375 10.40625 48.1875 4.484375 
Q 40.765625 -1.421875 27.09375 -1.421875 
Q 22.515625 -1.421875 17.65625 -0.515625 
Q 12.796875 0.390625 7.625 2.203125 
L 7.625 11.71875 
Q 11.71875 9.328125 16.59375 8.109375 
Q 21.484375 6.890625 26.8125 6.890625 
Q 36.078125 6.890625 40.9375 10.546875 
Q 45.796875 14.203125 45.796875 21.1875 
Q 45.796875 27.640625 41.28125 31.265625 
Q 36.765625 34.90625 28.71875 34.90625 
L 20.21875 34.90625 
L 20.21875 43.015625 
L 29.109375 43.015625 
Q 36.375 43.015625 40.234375 45.921875 
Q 44.09375 48.828125 44.09375 54.296875 
Q 44.09375 59.90625 40.109375 62.90625 
Q 36.140625 65.921875 28.71875 65.921875 
Q 24.65625 65.921875 20.015625 65.03125 
Q 15.375 64.15625 9.8125 62.3125 
L 9.8125 71.09375 
Q 15.4375 72.65625 20.34375 73.4375 
Q 25.25 74.21875 29.59375 74.21875 
Q 40.828125 74.21875 47.359375 69.109375 
Q 53.90625 64.015625 53.90625 55.328125 
Q 53.90625 49.265625 50.4375 45.09375 
Q 46.96875 40.921875 40.578125 39.3125 
z
" id="DejaVuSans-51"/>
      <path d="M 19.671875 64.796875 
L 19.671875 8.109375 
L 31.59375 8.109375 
Q 46.6875 8.109375 53.6875 14.9375 
Q 60.6875 21.78125 60.6875 36.53125 
Q 60.6875 51.171875 53.6875 57.984375 
Q 46.6875 64.796875 31.59375 64.796875 
z
M 9.8125 72.90625 
L 30.078125 72.90625 
Q 51.265625 72.90625 61.171875 64.09375 
Q 71.09375 55.28125 71.09375 36.53125 
Q 71.09375 17.671875 61.125 8.828125 
Q 51.171875 0 30.078125 0 
L 9.8125 0 
z
" id="DejaVuSans-68"/>
      <path id="DejaVuSans-32"/>
      <path d="M 64.40625 67.28125 
L 64.40625 56.890625 
Q 59.421875 61.53125 53.78125 63.8125 
Q 48.140625 66.109375 41.796875 66.109375 
Q 29.296875 66.109375 22.65625 58.46875 
Q 16.015625 50.828125 16.015625 36.375 
Q 16.015625 21.96875 22.65625 14.328125 
Q 29.296875 6.6875 41.796875 6.6875 
Q 48.140625 6.6875 53.78125 8.984375 
Q 59.421875 11.28125 64.40625 15.921875 
L 64.40625 5.609375 
Q 59.234375 2.09375 53.4375 0.328125 
Q 47.65625 -1.421875 41.21875 -1.421875 
Q 24.65625 -1.421875 15.125 8.703125 
Q 5.609375 18.84375 5.609375 36.375 
Q 5.609375 53.953125 15.125 64.078125 
Q 24.65625 74.21875 41.21875 74.21875 
Q 47.75 74.21875 53.53125 72.484375 
Q 59.328125 70.75 64.40625 67.28125 
z
" id="DejaVuSans-67"/>
      <path d="M 37.109375 75.984375 
L 37.109375 68.5 
L 28.515625 68.5 
Q 23.6875 68.5 21.796875 66.546875 
Q 19.921875 64.59375 19.921875 59.515625 
L 19.921875 54.6875 
L 34.71875 54.6875 
L 34.71875 47.703125 
L 19.921875 47.703125 
L 19.921875 0 
L 10.890625 0 
L 10.890625 47.703125 
L 2.296875 47.703125 
L 2.296875 54.6875 
L 10.890625 54.6875 
L 10.890625 58.5 
Q 10.890625 67.625 15.140625 71.796875 
Q 19.390625 75.984375 28.609375 75.984375 
z
" id="DejaVuSans-102"/>
     </defs>
     <g transform="translate(182.72115 519.62085)scale(0.2592 -0.2592)">
      <use xlink:href="#DejaVuSans-76"/>
      <use x="55.697266" xlink:href="#DejaVuSans-111"/>
      <use x="116.878906" xlink:href="#DejaVuSans-110"/>
      <use x="180.257812" xlink:href="#DejaVuSans-103"/>
      <use x="243.734375" xlink:href="#DejaVuSans-105"/>
      <use x="271.517578" xlink:href="#DejaVuSans-116"/>
      <use x="310.726562" xlink:href="#DejaVuSans-117"/>
      <use x="374.105469" xlink:href="#DejaVuSans-100"/>
      <use x="437.582031" xlink:href="#DejaVuSans-105"/>
      <use x="465.365234" xlink:href="#DejaVuSans-110"/>
      <use x="528.744141" xlink:href="#DejaVuSans-97"/>
      <use x="590.023438" xlink:href="#DejaVuSans-108"/>
      <use x="617.806641" xlink:href="#DejaVuSans-83"/>
      <use x="681.283203" xlink:href="#DejaVuSans-112"/>
      <use x="744.759766" xlink:href="#DejaVuSans-97"/>
      <use x="806.039062" xlink:href="#DejaVuSans-110"/>
      <use x="869.417969" xlink:href="#DejaVuSans-51"/>
      <use x="933.041016" xlink:href="#DejaVuSans-68"/>
      <use x="1010.042969" xlink:href="#DejaVuSans-32"/>
      <use x="1041.830078" xlink:href="#DejaVuSans-67"/>
      <use x="1111.654297" xlink:href="#DejaVuSans-117"/>
      <use x="1175.033203" xlink:href="#DejaVuSans-116"/>
      <use x="1214.242188" xlink:href="#DejaVuSans-111"/>
      <use x="1275.423828" xlink:href="#DejaVuSans-102"/>
      <use x="1310.628906" xlink:href="#DejaVuSans-102"/>
     </g>
    </g>
   </g>
   <g id="matplotlib.axis_2">
    <g id="ytick_1">
     <g id="line2d_5">
      <defs>
       <path d="M 0 0 
L -3.5 0 
" id="maa94f35f64" style="stroke:#000000;stroke-width:0.8;"/>
      </defs>
      <g>
       <use style="stroke:#000000;stroke-width:0.8;" x="118.423636" xlink:href="#maa94f35f64" y="463.84"/>
      </g>
     </g>
     <g id="text_6">
      <!-- 0.0 -->
      <defs>
       <path d="M 10.6875 12.40625 
L 21 12.40625 
L 21 0 
L 10.6875 0 
z
" id="DejaVuSans-46"/>
      </defs>
      <g transform="translate(70.202736 473.687575)scale(0.2592 -0.2592)">
       <use xlink:href="#DejaVuSans-48"/>
       <use x="63.623047" xlink:href="#DejaVuSans-46"/>
       <use x="95.410156" xlink:href="#DejaVuSans-48"/>
      </g>
     </g>
    </g>
    <g id="ytick_2">
     <g id="line2d_6">
      <g>
       <use style="stroke:#000000;stroke-width:0.8;" x="118.423636" xlink:href="#maa94f35f64" y="379.4"/>
      </g>
     </g>
     <g id="text_7">
      <!-- 0.2 -->
      <g transform="translate(70.202736 389.247575)scale(0.2592 -0.2592)">
       <use xlink:href="#DejaVuSans-48"/>
       <use x="63.623047" xlink:href="#DejaVuSans-46"/>
       <use x="95.410156" xlink:href="#DejaVuSans-50"/>
      </g>
     </g>
    </g>
    <g id="ytick_3">
     <g id="line2d_7">
      <g>
       <use style="stroke:#000000;stroke-width:0.8;" x="118.423636" xlink:href="#maa94f35f64" y="294.96"/>
      </g>
     </g>
     <g id="text_8">
      <!-- 0.4 -->
      <g transform="translate(70.202736 304.807575)scale(0.2592 -0.2592)">
       <use xlink:href="#DejaVuSans-48"/>
       <use x="63.623047" xlink:href="#DejaVuSans-46"/>
       <use x="95.410156" xlink:href="#DejaVuSans-52"/>
      </g>
     </g>
    </g>
    <g id="ytick_4">
     <g id="line2d_8">
      <g>
       <use style="stroke:#000000;stroke-width:0.8;" x="118.423636" xlink:href="#maa94f35f64" y="210.52"/>
      </g>
     </g>
     <g id="text_9">
      <!-- 0.6 -->
      <g transform="translate(70.202736 220.367575)scale(0.2592 -0.2592)">
       <use xlink:href="#DejaVuSans-48"/>
       <use x="63.623047" xlink:href="#DejaVuSans-46"/>
       <use x="95.410156" xlink:href="#DejaVuSans-54"/>
      </g>
     </g>
    </g>
    <g id="ytick_5">
     <g id="line2d_9">
      <g>
       <use style="stroke:#000000;stroke-width:0.8;" x="118.423636" xlink:href="#maa94f35f64" y="126.08"/>
      </g>
     </g>
     <g id="text_10">
      <!-- 0.8 -->
      <defs>
       <path d="M 31.78125 34.625 
Q 24.75 34.625 20.71875 30.859375 
Q 16.703125 27.09375 16.703125 20.515625 
Q 16.703125 13.921875 20.71875 10.15625 
Q 24.75 6.390625 31.78125 6.390625 
Q 38.8125 6.390625 42.859375 10.171875 
Q 46.921875 13.96875 46.921875 20.515625 
Q 46.921875 27.09375 42.890625 30.859375 
Q 38.875 34.625 31.78125 34.625 
z
M 21.921875 38.8125 
Q 15.578125 40.375 12.03125 44.71875 
Q 8.5 49.078125 8.5 55.328125 
Q 8.5 64.0625 14.71875 69.140625 
Q 20.953125 74.21875 31.78125 74.21875 
Q 42.671875 74.21875 48.875 69.140625 
Q 55.078125 64.0625 55.078125 55.328125 
Q 55.078125 49.078125 51.53125 44.71875 
Q 48 40.375 41.703125 38.8125 
Q 48.828125 37.15625 52.796875 32.3125 
Q 56.78125 27.484375 56.78125 20.515625 
Q 56.78125 9.90625 50.3125 4.234375 
Q 43.84375 -1.421875 31.78125 -1.421875 
Q 19.734375 -1.421875 13.25 4.234375 
Q 6.78125 9.90625 6.78125 20.515625 
Q 6.78125 27.484375 10.78125 32.3125 
Q 14.796875 37.15625 21.921875 38.8125 
z
M 18.3125 54.390625 
Q 18.3125 48.734375 21.84375 45.5625 
Q 25.390625 42.390625 31.78125 42.390625 
Q 38.140625 42.390625 41.71875 45.5625 
Q 45.3125 48.734375 45.3125 54.390625 
Q 45.3125 60.0625 41.71875 63.234375 
Q 38.140625 66.40625 31.78125 66.40625 
Q 25.390625 66.40625 21.84375 63.234375 
Q 18.3125 60.0625 18.3125 54.390625 
z
" id="DejaVuSans-56"/>
      </defs>
      <g transform="translate(70.202736 135.927575)scale(0.2592 -0.2592)">
       <use xlink:href="#DejaVuSans-48"/>
       <use x="63.623047" xlink:href="#DejaVuSans-46"/>
       <use x="95.410156" xlink:href="#DejaVuSans-56"/>
      </g>
     </g>
    </g>
    <g id="ytick_6">
     <g id="line2d_10">
      <g>
       <use style="stroke:#000000;stroke-width:0.8;" x="118.423636" xlink:href="#maa94f35f64" y="41.64"/>
      </g>
     </g>
     <g id="text_11">
      <!-- 1.0 -->
      <defs>
       <path d="M 12.40625 8.296875 
L 28.515625 8.296875 
L 28.515625 63.921875 
L 10.984375 60.40625 
L 10.984375 69.390625 
L 28.421875 72.90625 
L 38.28125 72.90625 
L 38.28125 8.296875 
L 54.390625 8.296875 
L 54.390625 0 
L 12.40625 0 
z
" id="DejaVuSans-49"/>
      </defs>
      <g transform="translate(70.202736 51.487575)scale(0.2592 -0.2592)">
       <use xlink:href="#DejaVuSans-49"/>
       <use x="63.623047" xlink:href="#DejaVuSans-46"/>
       <use x="95.410156" xlink:href="#DejaVuSans-48"/>
      </g>
     </g>
    </g>
    <g id="text_12">
     <!-- Fraction -->
     <defs>
      <path d="M 9.8125 72.90625 
L 51.703125 72.90625 
L 51.703125 64.59375 
L 19.671875 64.59375 
L 19.671875 43.109375 
L 48.578125 43.109375 
L 48.578125 34.8125 
L 19.671875 34.8125 
L 19.671875 0 
L 9.8125 0 
z
" id="DejaVuSans-70"/>
      <path d="M 41.109375 46.296875 
Q 39.59375 47.171875 37.8125 47.578125 
Q 36.03125 48 33.890625 48 
Q 26.265625 48 22.1875 43.046875 
Q 18.109375 38.09375 18.109375 28.8125 
L 18.109375 0 
L 9.078125 0 
L 9.078125 54.6875 
L 18.109375 54.6875 
L 18.109375 46.1875 
Q 20.953125 51.171875 25.484375 53.578125 
Q 30.03125 56 36.53125 56 
Q 37.453125 56 38.578125 55.875 
Q 39.703125 55.765625 41.0625 55.515625 
z
" id="DejaVuSans-114"/>
      <path d="M 48.78125 52.59375 
L 48.78125 44.1875 
Q 44.96875 46.296875 41.140625 47.34375 
Q 37.3125 48.390625 33.40625 48.390625 
Q 24.65625 48.390625 19.8125 42.84375 
Q 14.984375 37.3125 14.984375 27.296875 
Q 14.984375 17.28125 19.8125 11.734375 
Q 24.65625 6.203125 33.40625 6.203125 
Q 37.3125 6.203125 41.140625 7.25 
Q 44.96875 8.296875 48.78125 10.40625 
L 48.78125 2.09375 
Q 45.015625 0.34375 40.984375 -0.53125 
Q 36.96875 -1.421875 32.421875 -1.421875 
Q 20.0625 -1.421875 12.78125 6.34375 
Q 5.515625 14.109375 5.515625 27.296875 
Q 5.515625 40.671875 12.859375 48.328125 
Q 20.21875 56 33.015625 56 
Q 37.15625 56 41.109375 55.140625 
Q 45.0625 54.296875 48.78125 52.59375 
z
" id="DejaVuSans-99"/>
     </defs>
     <g transform="translate(60.812186 305.400125)rotate(-90)scale(0.2592 -0.2592)">
      <use xlink:href="#DejaVuSans-70"/>
      <use x="57.410156" xlink:href="#DejaVuSans-114"/>
      <use x="98.523438" xlink:href="#DejaVuSans-97"/>
      <use x="159.802734" xlink:href="#DejaVuSans-99"/>
      <use x="214.783203" xlink:href="#DejaVuSans-116"/>
      <use x="253.992188" xlink:href="#DejaVuSans-105"/>
      <use x="281.775391" xlink:href="#DejaVuSans-111"/>
      <use x="342.957031" xlink:href="#DejaVuSans-110"/>
     </g>
    </g>
   </g>
   <g id="line2d_11">
    <path clip-path="url(#pee2461d76b)" d="M 140.125351 41.64 
L 143.166633 41.717851 
L 144.470039 42.075964 
L 144.904508 42.262806 
L 146.207914 43.617408 
L 147.51132 45.843939 
L 147.945789 46.887138 
L 148.814727 49.892176 
L 149.683664 54.080544 
L 150.552602 59.03185 
L 151.421539 64.948504 
L 154.462821 91.137485 
L 160.545383 145.664126 
L 161.84879 156.454235 
L 162.717727 164.317157 
L 164.890071 180.043002 
L 168.365821 203.460497 
L 170.538165 217.099942 
L 170.972634 219.170772 
L 171.407102 222.144669 
L 171.841571 224.308919 
L 172.710509 229.556057 
L 175.75179 245.297472 
L 179.662009 263.389978 
L 180.530947 267.189093 
L 182.268822 274.756182 
L 183.137759 277.932492 
L 185.310103 285.842124 
L 189.654791 300.63376 
L 193.130541 310.318389 
L 194.868416 315.596668 
L 195.737353 317.792058 
L 196.171822 319.16223 
L 196.606291 320.143149 
L 197.475228 322.463101 
L 198.344166 324.61178 
L 198.778635 326.013093 
L 200.51651 330.279313 
L 201.385447 332.412422 
L 204.861197 339.79267 
L 206.164604 343.09354 
L 207.902479 346.923796 
L 211.378229 353.416545 
L 216.157385 361.808852 
L 216.591854 362.384948 
L 217.460792 363.879681 
L 219.198667 366.402045 
L 220.936542 368.862127 
L 222.239948 370.434712 
L 223.543354 372.380979 
L 227.019104 376.989742 
L 228.75698 379.153992 
L 229.625917 380.352893 
L 232.667198 384.043017 
L 233.536136 385.210777 
L 236.577417 388.246955 
L 237.446355 389.181164 
L 238.749761 390.426775 
L 241.791043 393.167121 
L 243.528918 395.019968 
L 244.397855 395.751764 
L 245.266793 396.670403 
L 246.13573 397.44891 
L 253.956168 403.785958 
L 255.694043 404.813588 
L 257.431918 406.246041 
L 257.866387 406.370602 
L 259.169793 407.320381 
L 260.038731 408.083318 
L 263.514481 410.434409 
L 264.383418 411.026075 
L 273.072794 416.210932 
L 273.941731 416.631326 
L 274.810669 417.145141 
L 275.245138 417.565535 
L 277.417481 418.795576 
L 278.286419 419.387241 
L 279.155356 419.823205 
L 281.762169 421.38022 
L 283.934513 422.423419 
L 284.80345 422.703682 
L 285.672388 423.170786 
L 286.975794 423.840302 
L 287.844732 424.229556 
L 299.14092 428.776038 
L 302.61667 430.286342 
L 303.485607 430.613315 
L 307.395826 432.092478 
L 309.56817 432.746424 
L 317.388608 435.50234 
L 318.692014 435.735892 
L 319.560952 436.094005 
L 326.512452 438.149264 
L 326.946921 438.445097 
L 335.201827 440.422505 
L 336.505234 440.718338 
L 339.980984 441.418994 
L 341.28439 441.823818 
L 343.456734 442.337632 
L 344.76014 442.617895 
L 346.063546 443.022719 
L 347.366953 443.302981 
L 348.23589 443.552104 
L 359.532078 446.292449 
L 361.269953 446.634992 
L 363.876766 447.102096 
L 364.745703 447.242227 
L 368.221454 448.005164 
L 369.52486 448.285427 
L 372.566141 448.845952 
L 373.869548 449.095074 
L 376.041891 449.515468 
L 377.779766 449.889152 
L 379.083173 450.107134 
L 380.821048 450.527528 
L 382.124454 450.667659 
L 382.993392 450.838931 
L 384.296798 450.932351 
L 389.510423 451.773139 
L 391.682767 452.053402 
L 392.551704 452.224673 
L 395.592986 452.691778 
L 396.461923 452.785198 
L 398.199798 453.018751 
L 401.24108 453.283443 
L 402.544486 453.532565 
L 404.71683 453.688267 
L 409.930455 454.529054 
L 410.799393 454.653616 
L 416.881955 455.198571 
L 442.081144 457.814355 
L 444.687956 458.001196 
L 445.991363 458.079047 
L 449.467113 458.35931 
L 453.377332 458.608432 
L 465.107988 459.340229 
L 468.583739 459.573781 
L 471.190551 459.745052 
L 472.493957 459.838473 
L 482.921208 460.476849 
L 486.396958 460.58584 
L 494.217396 461.037374 
L 496.824208 461.146365 
L 502.472302 461.442198 
L 504.210177 461.551189 
L 506.81699 461.64461 
L 508.554865 461.738031 
L 511.161678 461.831452 
L 515.506365 461.940443 
L 518.113178 462.018293 
L 522.892334 462.127284 
L 537.664272 462.547678 
L 542.00896 462.656669 
L 546.788116 462.71895 
L 552.43621 462.812371 
L 554.608554 462.874651 
L 560.691117 462.983642 
L 565.904742 463.061493 
L 574.159649 463.139344 
L 574.159649 463.139344 
" style="fill:none;stroke:#0000ff;stroke-linecap:square;stroke-width:1.5;"/>
   </g>
   <g id="line2d_12">
    <path clip-path="url(#pee2461d76b)" d="M 140.125351 150.61496 
L 143.601101 150.510564 
L 144.470039 150.148805 
L 144.904508 149.727748 
L 145.773445 148.413015 
L 146.642383 146.258746 
L 147.51132 143.351927 
L 149.683664 135.023528 
L 151.421539 128.293488 
L 153.593883 121.873115 
L 154.462821 119.799101 
L 158.373039 112.43123 
L 158.807508 111.932588 
L 159.241977 111.185504 
L 160.545383 109.623266 
L 160.979852 108.986939 
L 161.414321 108.677313 
L 161.84879 108.505882 
L 162.717727 107.680493 
L 165.32454 105.401303 
L 165.759008 105.230518 
L 166.193477 104.810345 
L 166.627946 104.204181 
L 168.365821 102.986959 
L 168.80029 102.335073 
L 169.669227 101.552041 
L 170.972634 100.587109 
L 171.841571 99.845111 
L 172.27604 99.705974 
L 173.579446 98.582262 
L 174.013915 98.360911 
L 174.448384 98.303151 
L 174.882853 97.61397 
L 177.924134 95.600026 
L 178.358603 94.965247 
L 180.965415 93.06921 
L 181.399884 92.524429 
L 181.834353 92.180376 
L 182.268822 92.007612 
L 184.006697 90.211963 
L 184.875634 89.874735 
L 185.744572 89.3184 
L 186.17904 89.225931 
L 186.613509 89.0188 
L 187.047978 88.464211 
L 187.916916 87.666068 
L 188.351384 87.541184 
L 189.220322 86.871895 
L 189.654791 86.205355 
L 190.523728 85.505411 
L 190.958197 85.35533 
L 192.261603 84.246297 
L 192.696072 84.089249 
L 193.130541 83.597764 
L 193.565009 83.34213 
L 193.999478 83.270884 
L 196.171822 81.398744 
L 197.475228 80.712277 
L 198.344166 79.779736 
L 198.778635 79.105143 
L 199.647572 78.533839 
L 200.082041 78.261891 
L 200.950979 78.157782 
L 201.385447 77.77238 
L 201.819916 77.537599 
L 202.254385 77.713169 
L 202.688854 77.127647 
L 203.123322 76.984346 
L 203.99226 76.396458 
L 204.426729 76.120069 
L 204.861197 76.007947 
L 207.46801 74.093186 
L 207.902479 73.937184 
L 208.771416 73.146675 
L 210.074823 72.371969 
L 210.94376 71.914669 
L 211.378229 71.56404 
L 211.812698 71.450875 
L 212.247166 71.195124 
L 212.681635 70.741623 
L 213.550573 70.557021 
L 214.41951 69.56421 
L 215.288448 69.298918 
L 215.722917 68.731766 
L 216.591854 68.118596 
L 217.89526 67.476305 
L 221.371011 64.667895 
L 222.674417 64.069585 
L 223.108886 63.683113 
L 225.281229 62.581345 
L 225.715698 62.512968 
L 226.584636 61.655939 
L 227.453573 60.549905 
L 229.191448 59.833758 
L 229.625917 59.294539 
L 230.060386 59.181043 
L 230.494855 58.858597 
L 230.929323 58.676005 
L 231.363792 58.33235 
L 231.798261 58.143186 
L 232.23273 57.641979 
L 233.101667 57.4725 
L 233.970605 56.643265 
L 234.839542 56.64536 
L 235.274011 56.500383 
L 235.70848 56.19002 
L 236.142949 56.086321 
L 236.577417 55.842189 
L 237.011886 55.75277 
L 237.446355 55.355537 
L 237.880824 54.77473 
L 238.315292 54.59092 
L 238.749761 54.152204 
L 239.18423 53.959992 
L 239.618699 54.031799 
L 240.053167 53.841801 
L 240.487636 53.4616 
L 241.356574 53.062965 
L 243.094449 51.643861 
L 244.397855 51.078855 
L 244.832324 50.592583 
L 245.701261 50.230718 
L 247.004668 49.589372 
L 247.873605 49.390435 
L 248.742543 48.772096 
L 249.177012 48.312701 
L 250.480418 47.923045 
L 250.914887 47.848824 
L 251.349355 47.577676 
L 253.08723 47.307832 
L 253.521699 47.011501 
L 253.956168 46.936416 
L 254.390637 46.635165 
L 254.825106 46.651923 
L 255.694043 46.375159 
L 256.128512 46.402487 
L 256.562981 46.11009 
L 256.997449 46.13388 
L 257.431918 46.044976 
L 257.866387 45.83029 
L 260.038731 45.842156 
L 261.776606 45.460814 
L 262.645543 45.139228 
L 263.080012 45.162382 
L 263.514481 44.816273 
L 263.94895 44.71457 
L 264.383418 44.483514 
L 264.817887 44.49774 
L 265.252356 44.390489 
L 265.686825 44.404405 
L 266.990231 44.063505 
L 268.293637 44.104455 
L 268.728106 43.985556 
L 269.162575 43.735935 
L 270.465981 43.774344 
L 270.90045 43.64729 
L 272.638325 43.694168 
L 273.507262 43.43366 
L 273.941731 43.442496 
L 274.3762 43.313736 
L 276.983013 43.371511 
L 277.85195 43.105463 
L 278.286419 43.113647 
L 278.720888 42.971861 
L 280.024294 42.997556 
L 280.458763 42.854091 
L 283.500044 42.899359 
L 283.934513 42.748136 
L 287.844732 42.798526 
L 288.279201 42.637716 
L 288.713669 42.641661 
L 289.148138 42.478697 
L 290.886013 42.495002 
L 291.320482 42.326225 
L 294.796232 42.352875 
L 295.230701 42.177378 
L 306.526889 42.25396 
L 306.961357 42.052305 
L 312.609451 42.07706 
L 313.04392 41.860585 
L 329.119265 41.904371 
L 329.553733 41.64 
L 574.159649 41.64 
L 574.159649 41.64 
" style="fill:none;stroke:#ff0000;stroke-linecap:square;stroke-width:1.5;"/>
   </g>
   <g id="line2d_13">
    <path clip-path="url(#pee2461d76b)" d="M 140.125351 150.61496 
L 144.03557 150.561878 
L 144.470039 150.472722 
L 145.773445 149.576266 
L 147.945789 145.750413 
L 148.380258 144.952522 
L 148.814727 144.607626 
L 149.249195 144.59973 
L 150.118133 144.862963 
L 150.98707 146.080242 
L 151.421539 146.818091 
L 152.290477 149.725745 
L 152.724945 151.296868 
L 153.593883 155.683899 
L 156.200696 169.965286 
L 159.241977 189.230925 
L 160.110914 194.872176 
L 160.979852 199.336015 
L 162.283258 208.306649 
L 163.152196 213.675087 
L 167.931352 239.363582 
L 170.103696 249.432638 
L 170.538165 251.761587 
L 170.972634 253.331226 
L 171.407102 255.693724 
L 171.841571 257.331025 
L 172.710509 261.552143 
L 174.013915 267.21775 
L 174.448384 269.303111 
L 175.75179 273.915975 
L 178.358603 283.728563 
L 180.096478 289.577999 
L 180.965415 292.907501 
L 181.399884 294.066787 
L 182.268822 297.313502 
L 182.70329 298.347641 
L 185.310103 306.049079 
L 188.351384 314.463969 
L 190.958197 320.756715 
L 191.392666 321.522904 
L 192.261603 323.529199 
L 194.868416 329.966836 
L 195.737353 331.645684 
L 196.171822 332.786594 
L 196.606291 333.605469 
L 197.04076 334.75103 
L 198.344166 337.18906 
L 199.647572 340.074818 
L 200.51651 341.854951 
L 200.950979 342.912495 
L 201.819916 344.41335 
L 202.254385 345.407456 
L 203.557791 347.358648 
L 205.295666 350.881848 
L 206.164604 352.61672 
L 207.033541 354.178192 
L 210.509291 359.962335 
L 211.378229 361.242969 
L 214.41951 365.910827 
L 216.157385 368.269658 
L 216.591854 368.747779 
L 217.460792 370.072431 
L 219.198667 372.145756 
L 220.936542 374.113343 
L 222.239948 375.444618 
L 222.674417 376.075091 
L 223.108886 376.506748 
L 225.281229 379.344244 
L 225.715698 379.89226 
L 227.453573 381.370477 
L 229.191448 383.444009 
L 230.060386 384.313979 
L 232.23273 386.647995 
L 232.667198 387.054506 
L 233.101667 387.679813 
L 236.142949 390.412459 
L 240.053167 393.727828 
L 240.487636 393.965495 
L 243.528918 396.616896 
L 244.397855 397.273969 
L 245.701261 398.479483 
L 247.004668 399.355862 
L 247.873605 400.08911 
L 248.742543 400.590974 
L 249.177012 400.8581 
L 250.045949 401.606716 
L 252.218293 403.198518 
L 253.08723 404.008432 
L 253.521699 404.196447 
L 253.956168 404.539324 
L 255.259574 405.179452 
L 256.128512 405.818095 
L 256.997449 406.566385 
L 257.431918 406.846941 
L 257.866387 406.940979 
L 259.169793 407.890663 
L 260.038731 408.638264 
L 263.514481 410.836187 
L 264.383418 411.381776 
L 268.728106 413.951705 
L 269.597044 414.403553 
L 271.769387 415.820554 
L 274.810669 417.331238 
L 275.245138 417.751625 
L 277.417481 418.966199 
L 278.286419 419.542399 
L 279.155356 419.962892 
L 281.3277 421.255296 
L 282.631107 421.893667 
L 288.713669 424.649728 
L 290.451544 425.257029 
L 290.886013 425.55286 
L 291.754951 425.848749 
L 300.444326 429.38321 
L 302.61667 430.332987 
L 303.485607 430.65996 
L 307.395826 432.123588 
L 309.56817 432.777533 
L 314.781795 434.568123 
L 315.650733 434.879525 
L 316.085202 435.097507 
L 316.954139 435.34663 
L 317.823077 435.580182 
L 318.692014 435.751453 
L 319.560952 436.109566 
L 326.512452 438.164825 
L 326.946921 438.460657 
L 335.201827 440.422505 
L 336.505234 440.718338 
L 339.980984 441.418994 
L 341.28439 441.823818 
L 343.456734 442.337632 
L 344.76014 442.617895 
L 346.063546 443.022719 
L 347.366953 443.302981 
L 348.23589 443.552104 
L 359.532078 446.292449 
L 361.269953 446.634992 
L 363.876766 447.102096 
L 364.745703 447.242227 
L 368.221454 448.005164 
L 369.52486 448.285427 
L 372.566141 448.845952 
L 373.869548 449.095074 
L 376.041891 449.515468 
L 377.779766 449.889152 
L 379.083173 450.107134 
L 380.821048 450.527528 
L 382.124454 450.667659 
L 382.993392 450.838931 
L 384.296798 450.932351 
L 389.510423 451.773139 
L 391.682767 452.053402 
L 392.551704 452.224673 
L 395.592986 452.691778 
L 396.461923 452.785198 
L 398.199798 453.018751 
L 401.24108 453.283443 
L 402.544486 453.532565 
L 404.71683 453.688267 
L 409.930455 454.529054 
L 410.799393 454.653616 
L 416.881955 455.198571 
L 442.081144 457.814355 
L 444.687956 458.001196 
L 445.991363 458.079047 
L 449.467113 458.35931 
L 453.377332 458.608432 
L 465.107988 459.340229 
L 468.583739 459.573781 
L 471.190551 459.745052 
L 472.493957 459.838473 
L 482.921208 460.476849 
L 486.396958 460.58584 
L 494.217396 461.037374 
L 496.824208 461.146365 
L 502.472302 461.442198 
L 504.210177 461.551189 
L 506.81699 461.64461 
L 508.554865 461.738031 
L 511.161678 461.831452 
L 515.506365 461.940443 
L 518.113178 462.018293 
L 522.892334 462.127284 
L 537.664272 462.547678 
L 542.00896 462.656669 
L 546.788116 462.71895 
L 552.43621 462.812371 
L 554.608554 462.874651 
L 560.691117 462.983642 
L 565.904742 463.061493 
L 574.159649 463.139344 
L 574.159649 463.139344 
" style="fill:none;stroke:#008000;stroke-linecap:square;stroke-width:1.5;"/>
   </g>
   <g id="line2d_14">
    <path clip-path="url(#pee2461d76b)" d="M 149.249195 463.84 
L 149.249195 41.64 
" style="fill:none;stroke:#1f77b4;stroke-linecap:square;stroke-width:1.5;"/>
   </g>
   <g id="patch_3">
    <path d="M 118.423636 463.84 
L 118.423636 41.64 
" style="fill:none;stroke:#000000;stroke-linecap:square;stroke-linejoin:miter;stroke-width:0.8;"/>
   </g>
   <g id="patch_4">
    <path d="M 595.861364 463.84 
L 595.861364 41.64 
" style="fill:none;stroke:#000000;stroke-linecap:square;stroke-linejoin:miter;stroke-width:0.8;"/>
   </g>
   <g id="patch_5">
    <path d="M 118.423636 463.84 
L 595.861364 463.84 
" style="fill:none;stroke:#000000;stroke-linecap:square;stroke-linejoin:miter;stroke-width:0.8;"/>
   </g>
   <g id="patch_6">
    <path d="M 118.423636 41.64 
L 595.861364 41.64 
" style="fill:none;stroke:#000000;stroke-linecap:square;stroke-linejoin:miter;stroke-width:0.8;"/>
   </g>
   <g id="text_13">
    <!-- Purity/Efficiency vs LongitudinalSpan3D Cutoff — track -->
    <defs>
     <path d="M 19.671875 64.796875 
L 19.671875 37.40625 
L 32.078125 37.40625 
Q 38.96875 37.40625 42.71875 40.96875 
Q 46.484375 44.53125 46.484375 51.125 
Q 46.484375 57.671875 42.71875 61.234375 
Q 38.96875 64.796875 32.078125 64.796875 
z
M 9.8125 72.90625 
L 32.078125 72.90625 
Q 44.34375 72.90625 50.609375 67.359375 
Q 56.890625 61.8125 56.890625 51.125 
Q 56.890625 40.328125 50.609375 34.8125 
Q 44.34375 29.296875 32.078125 29.296875 
L 19.671875 29.296875 
L 19.671875 0 
L 9.8125 0 
z
" id="DejaVuSans-80"/>
     <path d="M 32.171875 -5.078125 
Q 28.375 -14.84375 24.75 -17.8125 
Q 21.140625 -20.796875 15.09375 -20.796875 
L 7.90625 -20.796875 
L 7.90625 -13.28125 
L 13.1875 -13.28125 
Q 16.890625 -13.28125 18.9375 -11.515625 
Q 21 -9.765625 23.484375 -3.21875 
L 25.09375 0.875 
L 2.984375 54.6875 
L 12.5 54.6875 
L 29.59375 11.921875 
L 46.6875 54.6875 
L 56.203125 54.6875 
z
" id="DejaVuSans-121"/>
     <path d="M 25.390625 72.90625 
L 33.6875 72.90625 
L 8.296875 -9.28125 
L 0 -9.28125 
z
" id="DejaVuSans-47"/>
     <path d="M 9.8125 72.90625 
L 55.90625 72.90625 
L 55.90625 64.59375 
L 19.671875 64.59375 
L 19.671875 43.015625 
L 54.390625 43.015625 
L 54.390625 34.71875 
L 19.671875 34.71875 
L 19.671875 8.296875 
L 56.78125 8.296875 
L 56.78125 0 
L 9.8125 0 
z
" id="DejaVuSans-69"/>
     <path d="M 56.203125 29.59375 
L 56.203125 25.203125 
L 14.890625 25.203125 
Q 15.484375 15.921875 20.484375 11.0625 
Q 25.484375 6.203125 34.421875 6.203125 
Q 39.59375 6.203125 44.453125 7.46875 
Q 49.3125 8.734375 54.109375 11.28125 
L 54.109375 2.78125 
Q 49.265625 0.734375 44.1875 -0.34375 
Q 39.109375 -1.421875 33.890625 -1.421875 
Q 20.796875 -1.421875 13.15625 6.1875 
Q 5.515625 13.8125 5.515625 26.8125 
Q 5.515625 40.234375 12.765625 48.109375 
Q 20.015625 56 32.328125 56 
Q 43.359375 56 49.78125 48.890625 
Q 56.203125 41.796875 56.203125 29.59375 
z
M 47.21875 32.234375 
Q 47.125 39.59375 43.09375 43.984375 
Q 39.0625 48.390625 32.421875 48.390625 
Q 24.90625 48.390625 20.390625 44.140625 
Q 15.875 39.890625 15.1875 32.171875 
z
" id="DejaVuSans-101"/>
     <path d="M 2.984375 54.6875 
L 12.5 54.6875 
L 29.59375 8.796875 
L 46.6875 54.6875 
L 56.203125 54.6875 
L 35.6875 0 
L 23.484375 0 
z
" id="DejaVuSans-118"/>
     <path d="M 44.28125 53.078125 
L 44.28125 44.578125 
Q 40.484375 46.53125 36.375 47.5 
Q 32.28125 48.484375 27.875 48.484375 
Q 21.1875 48.484375 17.84375 46.4375 
Q 14.5 44.390625 14.5 40.28125 
Q 14.5 37.15625 16.890625 35.375 
Q 19.28125 33.59375 26.515625 31.984375 
L 29.59375 31.296875 
Q 39.15625 29.25 43.1875 25.515625 
Q 47.21875 21.78125 47.21875 15.09375 
Q 47.21875 7.46875 41.1875 3.015625 
Q 35.15625 -1.421875 24.609375 -1.421875 
Q 20.21875 -1.421875 15.453125 -0.5625 
Q 10.6875 0.296875 5.421875 2 
L 5.421875 11.28125 
Q 10.40625 8.6875 15.234375 7.390625 
Q 20.0625 6.109375 24.8125 6.109375 
Q 31.15625 6.109375 34.5625 8.28125 
Q 37.984375 10.453125 37.984375 14.40625 
Q 37.984375 18.0625 35.515625 20.015625 
Q 33.0625 21.96875 24.703125 23.78125 
L 21.578125 24.515625 
Q 13.234375 26.265625 9.515625 29.90625 
Q 5.8125 33.546875 5.8125 39.890625 
Q 5.8125 47.609375 11.28125 51.796875 
Q 16.75 56 26.8125 56 
Q 31.78125 56 36.171875 55.265625 
Q 40.578125 54.546875 44.28125 53.078125 
z
" id="DejaVuSans-115"/>
     <path d="M 4.890625 30.90625 
L 95.125 30.90625 
L 95.125 23.875 
L 4.890625 23.875 
z
" id="DejaVuSans-8212"/>
     <path d="M 9.078125 75.984375 
L 18.109375 75.984375 
L 18.109375 31.109375 
L 44.921875 54.6875 
L 56.390625 54.6875 
L 27.390625 29.109375 
L 57.625 0 
L 45.90625 0 
L 18.109375 26.703125 
L 18.109375 0 
L 9.078125 0 
z
" id="DejaVuSans-107"/>
    </defs>
    <g transform="translate(1.185975 35.64)scale(0.2592 -0.2592)">
     <use xlink:href="#DejaVuSans-80"/>
     <use x="60.287109" xlink:href="#DejaVuSans-117"/>
     <use x="123.666016" xlink:href="#DejaVuSans-114"/>
     <use x="164.779297" xlink:href="#DejaVuSans-105"/>
     <use x="192.5625" xlink:href="#DejaVuSans-116"/>
     <use x="231.771484" xlink:href="#DejaVuSans-121"/>
     <use x="290.951172" xlink:href="#DejaVuSans-47"/>
     <use x="324.642578" xlink:href="#DejaVuSans-69"/>
     <use x="387.826172" xlink:href="#DejaVuSans-102"/>
     <use x="423.03125" xlink:href="#DejaVuSans-102"/>
     <use x="458.236328" xlink:href="#DejaVuSans-105"/>
     <use x="486.019531" xlink:href="#DejaVuSans-99"/>
     <use x="541" xlink:href="#DejaVuSans-105"/>
     <use x="568.783203" xlink:href="#DejaVuSans-101"/>
     <use x="630.306641" xlink:href="#DejaVuSans-110"/>
     <use x="693.685547" xlink:href="#DejaVuSans-99"/>
     <use x="748.666016" xlink:href="#DejaVuSans-121"/>
     <use x="807.845703" xlink:href="#DejaVuSans-32"/>
     <use x="839.632812" xlink:href="#DejaVuSans-118"/>
     <use x="898.8125" xlink:href="#DejaVuSans-115"/>
     <use x="950.912109" xlink:href="#DejaVuSans-32"/>
     <use x="982.699219" xlink:href="#DejaVuSans-76"/>
     <use x="1038.396484" xlink:href="#DejaVuSans-111"/>
     <use x="1099.578125" xlink:href="#DejaVuSans-110"/>
     <use x="1162.957031" xlink:href="#DejaVuSans-103"/>
     <use x="1226.433594" xlink:href="#DejaVuSans-105"/>
     <use x="1254.216797" xlink:href="#DejaVuSans-116"/>
     <use x="1293.425781" xlink:href="#DejaVuSans-117"/>
     <use x="1356.804688" xlink:href="#DejaVuSans-100"/>
     <use x="1420.28125" xlink:href="#DejaVuSans-105"/>
     <use x="1448.064453" xlink:href="#DejaVuSans-110"/>
     <use x="1511.443359" xlink:href="#DejaVuSans-97"/>
     <use x="1572.722656" xlink:href="#DejaVuSans-108"/>
     <use x="1600.505859" xlink:href="#DejaVuSans-83"/>
     <use x="1663.982422" xlink:href="#DejaVuSans-112"/>
     <use x="1727.458984" xlink:href="#DejaVuSans-97"/>
     <use x="1788.738281" xlink:href="#DejaVuSans-110"/>
     <use x="1852.117188" xlink:href="#DejaVuSans-51"/>
     <use x="1915.740234" xlink:href="#DejaVuSans-68"/>
     <use x="1992.742188" xlink:href="#DejaVuSans-32"/>
     <use x="2024.529297" xlink:href="#DejaVuSans-67"/>
     <use x="2094.353516" xlink:href="#DejaVuSans-117"/>
     <use x="2157.732422" xlink:href="#DejaVuSans-116"/>
     <use x="2196.941406" xlink:href="#DejaVuSans-111"/>
     <use x="2258.123047" xlink:href="#DejaVuSans-102"/>
     <use x="2293.328125" xlink:href="#DejaVuSans-102"/>
     <use x="2328.533203" xlink:href="#DejaVuSans-32"/>
     <use x="2360.320312" xlink:href="#DejaVuSans-8212"/>
     <use x="2460.320312" xlink:href="#DejaVuSans-32"/>
     <use x="2492.107422" xlink:href="#DejaVuSans-116"/>
     <use x="2531.316406" xlink:href="#DejaVuSans-114"/>
     <use x="2572.429688" xlink:href="#DejaVuSans-97"/>
     <use x="2633.708984" xlink:href="#DejaVuSans-99"/>
     <use x="2688.689453" xlink:href="#DejaVuSans-107"/>
    </g>
   </g>
   <g id="legend_1">
    <g id="patch_7">
     <path d="M 248.447812 454.84 
L 465.837187 454.84 
Q 469.437187 454.84 469.437187 451.24 
L 469.437187 373.778125 
Q 469.437187 370.178125 465.837187 370.178125 
L 248.447812 370.178125 
Q 244.847812 370.178125 244.847812 373.778125 
L 244.847812 451.24 
Q 244.847812 454.84 248.447812 454.84 
z
" style="fill:#ffffff;opacity:0.8;stroke:#cccccc;stroke-linejoin:miter;"/>
    </g>
    <g id="line2d_15">
     <path d="M 252.047812 384.755313 
L 288.047812 384.755313 
" style="fill:none;stroke:#0000ff;stroke-linecap:square;stroke-width:1.5;"/>
    </g>
    <g id="line2d_16"/>
    <g id="text_14">
     <!-- Efficiency -->
     <g transform="translate(302.447812 391.055313)scale(0.18 -0.18)">
      <use xlink:href="#DejaVuSans-69"/>
      <use x="63.183594" xlink:href="#DejaVuSans-102"/>
      <use x="98.388672" xlink:href="#DejaVuSans-102"/>
      <use x="133.59375" xlink:href="#DejaVuSans-105"/>
      <use x="161.376953" xlink:href="#DejaVuSans-99"/>
      <use x="216.357422" xlink:href="#DejaVuSans-105"/>
      <use x="244.140625" xlink:href="#DejaVuSans-101"/>
      <use x="305.664062" xlink:href="#DejaVuSans-110"/>
      <use x="369.042969" xlink:href="#DejaVuSans-99"/>
      <use x="424.023438" xlink:href="#DejaVuSans-121"/>
     </g>
    </g>
    <g id="line2d_17">
     <path d="M 252.047812 411.175937 
L 288.047812 411.175937 
" style="fill:none;stroke:#ff0000;stroke-linecap:square;stroke-width:1.5;"/>
    </g>
    <g id="line2d_18"/>
    <g id="text_15">
     <!-- Purity -->
     <g transform="translate(302.447812 417.475937)scale(0.18 -0.18)">
      <use xlink:href="#DejaVuSans-80"/>
      <use x="60.287109" xlink:href="#DejaVuSans-117"/>
      <use x="123.666016" xlink:href="#DejaVuSans-114"/>
      <use x="164.779297" xlink:href="#DejaVuSans-105"/>
      <use x="192.5625" xlink:href="#DejaVuSans-116"/>
      <use x="231.771484" xlink:href="#DejaVuSans-121"/>
     </g>
    </g>
    <g id="line2d_19">
     <path d="M 252.047812 437.596562 
L 288.047812 437.596562 
" style="fill:none;stroke:#008000;stroke-linecap:square;stroke-width:1.5;"/>
    </g>
    <g id="line2d_20"/>
    <g id="text_16">
     <!-- Purity * Efficiency -->
     <defs>
      <path d="M 47.015625 60.890625 
L 29.5 51.421875 
L 47.015625 41.890625 
L 44.1875 37.109375 
L 27.78125 47.015625 
L 27.78125 28.609375 
L 22.21875 28.609375 
L 22.21875 47.015625 
L 5.8125 37.109375 
L 2.984375 41.890625 
L 20.515625 51.421875 
L 2.984375 60.890625 
L 5.8125 65.71875 
L 22.21875 55.8125 
L 22.21875 74.21875 
L 27.78125 74.21875 
L 27.78125 55.8125 
L 44.1875 65.71875 
z
" id="DejaVuSans-42"/>
     </defs>
     <g transform="translate(302.447812 443.896562)scale(0.18 -0.18)">
      <use xlink:href="#DejaVuSans-80"/>
      <use x="60.287109" xlink:href="#DejaVuSans-117"/>
      <use x="123.666016" xlink:href="#DejaVuSans-114"/>
      <use x="164.779297" xlink:href="#DejaVuSans-105"/>
      <use x="192.5625" xlink:href="#DejaVuSans-116"/>
      <use x="231.771484" xlink:href="#DejaVuSans-121"/>
      <use x="290.951172" xlink:href="#DejaVuSans-32"/>
      <use x="322.738281" xlink:href="#DejaVuSans-42"/>
      <use x="372.738281" xlink:href="#DejaVuSans-32"/>
      <use x="404.525391" xlink:href="#DejaVuSans-69"/>
      <use x="467.708984" xlink:href="#DejaVuSans-102"/>
      <use x="502.914062" xlink:href="#DejaVuSans-102"/>
      <use x="538.119141" xlink:href="#DejaVuSans-105"/>
      <use x="565.902344" xlink:href="#DejaVuSans-99"/>
      <use x="620.882812" xlink:href="#DejaVuSans-105"/>
      <use x="648.666016" xlink:href="#DejaVuSans-101"/>
      <use x="710.189453" xlink:href="#DejaVuSans-110"/>
      <use x="773.568359" xlink:href="#DejaVuSans-99"/>
      <use x="828.548828" xlink:href="#DejaVuSans-121"/>
     </g>
    </g>
   </g>
  </g>
  <g id="axes_2">
   <g id="patch_8">
    <path d="M 830.323636 463.84 
L 1307.761364 463.84 
L 1307.761364 41.64 
L 830.323636 41.64 
z
" style="fill:#ffffff;"/>
   </g>
   <g id="matplotlib.axis_3">
    <g id="xtick_5">
     <g id="line2d_21">
      <g>
       <use style="stroke:#000000;stroke-width:0.8;" x="852.025351" xlink:href="#m700448f587" y="463.84"/>
      </g>
     </g>
     <g id="text_17">
      <!-- 0 -->
      <g transform="translate(843.779551 490.53515)scale(0.2592 -0.2592)">
       <use xlink:href="#DejaVuSans-48"/>
      </g>
     </g>
    </g>
    <g id="xtick_6">
     <g id="line2d_22">
      <g>
       <use style="stroke:#000000;stroke-width:0.8;" x="996.70345" xlink:href="#m700448f587" y="463.84"/>
      </g>
     </g>
     <g id="text_18">
      <!-- 200 -->
      <g transform="translate(971.96605 490.53515)scale(0.2592 -0.2592)">
       <use xlink:href="#DejaVuSans-50"/>
       <use x="63.623047" xlink:href="#DejaVuSans-48"/>
       <use x="127.246094" xlink:href="#DejaVuSans-48"/>
      </g>
     </g>
    </g>
    <g id="xtick_7">
     <g id="line2d_23">
      <g>
       <use style="stroke:#000000;stroke-width:0.8;" x="1141.38155" xlink:href="#m700448f587" y="463.84"/>
      </g>
     </g>
     <g id="text_19">
      <!-- 400 -->
      <g transform="translate(1116.64415 490.53515)scale(0.2592 -0.2592)">
       <use xlink:href="#DejaVuSans-52"/>
       <use x="63.623047" xlink:href="#DejaVuSans-48"/>
       <use x="127.246094" xlink:href="#DejaVuSans-48"/>
      </g>
     </g>
    </g>
    <g id="xtick_8">
     <g id="line2d_24">
      <g>
       <use style="stroke:#000000;stroke-width:0.8;" x="1286.059649" xlink:href="#m700448f587" y="463.84"/>
      </g>
     </g>
     <g id="text_20">
      <!-- 600 -->
      <g transform="translate(1261.322249 490.53515)scale(0.2592 -0.2592)">
       <use xlink:href="#DejaVuSans-54"/>
       <use x="63.623047" xlink:href="#DejaVuSans-48"/>
       <use x="127.246094" xlink:href="#DejaVuSans-48"/>
      </g>
     </g>
    </g>
    <g id="text_21">
     <!-- LongitudinalSpan3D Cutoff -->
     <g transform="translate(894.62115 519.62085)scale(0.2592 -0.2592)">
      <use xlink:href="#DejaVuSans-76"/>
      <use x="55.697266" xlink:href="#DejaVuSans-111"/>
      <use x="116.878906" xlink:href="#DejaVuSans-110"/>
      <use x="180.257812" xlink:href="#DejaVuSans-103"/>
      <use x="243.734375" xlink:href="#DejaVuSans-105"/>
      <use x="271.517578" xlink:href="#DejaVuSans-116"/>
      <use x="310.726562" xlink:href="#DejaVuSans-117"/>
      <use x="374.105469" xlink:href="#DejaVuSans-100"/>
      <use x="437.582031" xlink:href="#DejaVuSans-105"/>
      <use x="465.365234" xlink:href="#DejaVuSans-110"/>
      <use x="528.744141" xlink:href="#DejaVuSans-97"/>
      <use x="590.023438" xlink:href="#DejaVuSans-108"/>
      <use x="617.806641" xlink:href="#DejaVuSans-83"/>
      <use x="681.283203" xlink:href="#DejaVuSans-112"/>
      <use x="744.759766" xlink:href="#DejaVuSans-97"/>
      <use x="806.039062" xlink:href="#DejaVuSans-110"/>
      <use x="869.417969" xlink:href="#DejaVuSans-51"/>
      <use x="933.041016" xlink:href="#DejaVuSans-68"/>
      <use x="1010.042969" xlink:href="#DejaVuSans-32"/>
      <use x="1041.830078" xlink:href="#DejaVuSans-67"/>
      <use x="1111.654297" xlink:href="#DejaVuSans-117"/>
      <use x="1175.033203" xlink:href="#DejaVuSans-116"/>
      <use x="1214.242188" xlink:href="#DejaVuSans-111"/>
      <use x="1275.423828" xlink:href="#DejaVuSans-102"/>
      <use x="1310.628906" xlink:href="#DejaVuSans-102"/>
     </g>
    </g>
   </g>
   <g id="matplotlib.axis_4">
    <g id="ytick_7">
     <g id="line2d_25">
      <g>
       <use style="stroke:#000000;stroke-width:0.8;" x="830.323636" xlink:href="#maa94f35f64" y="463.84"/>
      </g>
     </g>
     <g id="text_22">
      <!-- 0.0 -->
      <g transform="translate(782.102736 473.687575)scale(0.2592 -0.2592)">
       <use xlink:href="#DejaVuSans-48"/>
       <use x="63.623047" xlink:href="#DejaVuSans-46"/>
       <use x="95.410156" xlink:href="#DejaVuSans-48"/>
      </g>
     </g>
    </g>
    <g id="ytick_8">
     <g id="line2d_26">
      <g>
       <use style="stroke:#000000;stroke-width:0.8;" x="830.323636" xlink:href="#maa94f35f64" y="379.4"/>
      </g>
     </g>
     <g id="text_23">
      <!-- 0.2 -->
      <g transform="translate(782.102736 389.247575)scale(0.2592 -0.2592)">
       <use xlink:href="#DejaVuSans-48"/>
       <use x="63.623047" xlink:href="#DejaVuSans-46"/>
       <use x="95.410156" xlink:href="#DejaVuSans-50"/>
      </g>
     </g>
    </g>
    <g id="ytick_9">
     <g id="line2d_27">
      <g>
       <use style="stroke:#000000;stroke-width:0.8;" x="830.323636" xlink:href="#maa94f35f64" y="294.96"/>
      </g>
     </g>
     <g id="text_24">
      <!-- 0.4 -->
      <g transform="translate(782.102736 304.807575)scale(0.2592 -0.2592)">
       <use xlink:href="#DejaVuSans-48"/>
       <use x="63.623047" xlink:href="#DejaVuSans-46"/>
       <use x="95.410156" xlink:href="#DejaVuSans-52"/>
      </g>
     </g>
    </g>
    <g id="ytick_10">
     <g id="line2d_28">
      <g>
       <use style="stroke:#000000;stroke-width:0.8;" x="830.323636" xlink:href="#maa94f35f64" y="210.52"/>
      </g>
     </g>
     <g id="text_25">
      <!-- 0.6 -->
      <g transform="translate(782.102736 220.367575)scale(0.2592 -0.2592)">
       <use xlink:href="#DejaVuSans-48"/>
       <use x="63.623047" xlink:href="#DejaVuSans-46"/>
       <use x="95.410156" xlink:href="#DejaVuSans-54"/>
      </g>
     </g>
    </g>
    <g id="ytick_11">
     <g id="line2d_29">
      <g>
       <use style="stroke:#000000;stroke-width:0.8;" x="830.323636" xlink:href="#maa94f35f64" y="126.08"/>
      </g>
     </g>
     <g id="text_26">
      <!-- 0.8 -->
      <g transform="translate(782.102736 135.927575)scale(0.2592 -0.2592)">
       <use xlink:href="#DejaVuSans-48"/>
       <use x="63.623047" xlink:href="#DejaVuSans-46"/>
       <use x="95.410156" xlink:href="#DejaVuSans-56"/>
      </g>
     </g>
    </g>
    <g id="ytick_12">
     <g id="line2d_30">
      <g>
       <use style="stroke:#000000;stroke-width:0.8;" x="830.323636" xlink:href="#maa94f35f64" y="41.64"/>
      </g>
     </g>
     <g id="text_27">
      <!-- 1.0 -->
      <g transform="translate(782.102736 51.487575)scale(0.2592 -0.2592)">
       <use xlink:href="#DejaVuSans-49"/>
       <use x="63.623047" xlink:href="#DejaVuSans-46"/>
       <use x="95.410156" xlink:href="#DejaVuSans-48"/>
      </g>
     </g>
    </g>
    <g id="text_28">
     <!-- Fraction -->
     <g transform="translate(772.712186 305.400125)rotate(-90)scale(0.2592 -0.2592)">
      <use xlink:href="#DejaVuSans-70"/>
      <use x="57.410156" xlink:href="#DejaVuSans-114"/>
      <use x="98.523438" xlink:href="#DejaVuSans-97"/>
      <use x="159.802734" xlink:href="#DejaVuSans-99"/>
      <use x="214.783203" xlink:href="#DejaVuSans-116"/>
      <use x="253.992188" xlink:href="#DejaVuSans-105"/>
      <use x="281.775391" xlink:href="#DejaVuSans-111"/>
      <use x="342.957031" xlink:href="#DejaVuSans-110"/>
     </g>
    </g>
   </g>
   <g id="line2d_31">
    <path clip-path="url(#p6b8fc38b75)" d="M 852.025351 463.84 
L 854.632164 463.795247 
L 855.066633 463.526729 
L 855.501101 463.123952 
L 855.93557 462.273644 
L 856.370039 460.975807 
L 856.804508 458.603897 
L 857.673445 450.906377 
L 858.542383 438.823061 
L 859.41132 422.935739 
L 861.149195 385.522213 
L 864.190477 320.854098 
L 865.928352 291.272351 
L 867.666227 267.687509 
L 868.969633 251.979199 
L 870.273039 236.897431 
L 872.010914 220.786343 
L 873.314321 210.448395 
L 873.74879 207.897473 
L 874.617727 201.274026 
L 875.921133 193.173729 
L 876.790071 187.892873 
L 877.659008 183.104299 
L 878.093477 180.642883 
L 878.527946 177.465419 
L 879.831352 170.931478 
L 880.265821 168.872839 
L 881.134759 163.726241 
L 883.307102 153.612059 
L 885.479446 144.527195 
L 890.693071 125.954692 
L 891.12754 124.791113 
L 891.996478 121.92692 
L 893.734353 116.288039 
L 894.168822 115.25872 
L 895.906697 109.843604 
L 896.775634 108.142989 
L 898.07904 105.457808 
L 898.513509 104.607501 
L 899.382447 102.23559 
L 899.816916 101.116765 
L 900.251384 100.400717 
L 901.120322 98.431584 
L 901.554791 96.999487 
L 902.423728 95.209366 
L 902.858197 94.627577 
L 904.161603 91.987149 
L 904.596072 91.360606 
L 905.465009 89.570485 
L 905.899478 89.078202 
L 906.768416 87.377587 
L 908.071822 84.871418 
L 908.94076 83.752593 
L 909.809697 82.275743 
L 910.244166 81.380683 
L 910.678635 80.217104 
L 911.982041 78.38223 
L 912.850979 77.666182 
L 913.719916 76.502603 
L 914.154385 76.413097 
L 914.588854 75.56279 
L 915.023322 75.204766 
L 916.326729 73.63841 
L 916.761197 73.235633 
L 918.499072 70.863723 
L 918.933541 70.460946 
L 920.236948 68.89459 
L 921.105885 67.910023 
L 925.016104 64.374535 
L 925.450573 64.15077 
L 926.31951 62.987191 
L 927.188448 62.450155 
L 928.057385 61.465588 
L 931.098667 59.183184 
L 933.271011 57.303557 
L 934.574417 56.587509 
L 935.443354 55.960967 
L 938.050167 54.52887 
L 939.353573 53.275785 
L 941.091448 52.514984 
L 941.525917 52.112207 
L 941.960386 51.977948 
L 943.263792 51.2619 
L 943.698261 51.082887 
L 944.13273 50.724863 
L 945.001667 50.501098 
L 945.870605 49.919309 
L 947.174011 49.695544 
L 947.60848 49.471779 
L 948.911886 49.113755 
L 950.649761 48.084435 
L 951.08423 47.950176 
L 951.518699 47.950176 
L 953.256574 47.323634 
L 954.994449 46.473326 
L 959.339137 45.220242 
L 960.208074 44.996477 
L 961.51148 44.504193 
L 962.814887 44.325181 
L 963.683824 44.146169 
L 964.552762 44.01191 
L 964.98723 44.01191 
L 966.290637 43.698639 
L 967.159574 43.609133 
L 971.504262 43.251109 
L 972.807668 43.206356 
L 974.545543 42.937838 
L 974.980012 42.937838 
L 975.84895 42.758826 
L 976.717887 42.669319 
L 979.3247 42.490307 
L 980.628106 42.445554 
L 981.497044 42.356048 
L 984.972794 42.266542 
L 986.710669 42.177036 
L 990.186419 42.08753 
L 991.489825 42.042777 
L 999.744732 41.953271 
L 1001.482607 41.863765 
L 1018.426889 41.774259 
L 1019.730295 41.729506 
L 1286.059649 41.64 
L 1286.059649 41.64 
" style="fill:none;stroke:#0000ff;stroke-linecap:square;stroke-width:1.5;"/>
   </g>
   <g id="line2d_32">
    <path clip-path="url(#p6b8fc38b75)" d="M 853.328758 463.84 
L 854.197695 463.84 
L 855.066633 217.556667 
L 855.501101 213.647407 
L 855.93557 179.666923 
L 856.370039 170.135652 
L 856.804508 149.206879 
L 857.238976 151.506171 
L 857.673445 150.174704 
L 858.107914 140.02422 
L 858.542383 142.300763 
L 858.976852 141.95151 
L 859.41132 137.918716 
L 859.845789 139.900635 
L 860.280258 143.624122 
L 860.714727 149.427091 
L 861.583664 163.908141 
L 863.321539 188.113557 
L 863.756008 196.01858 
L 864.624945 206.745718 
L 865.059414 214.061946 
L 866.797289 233.457633 
L 868.535164 248.678589 
L 871.576446 269.126758 
L 872.010914 271.476896 
L 872.879852 274.7922 
L 875.052196 285.263252 
L 876.790071 290.921687 
L 877.22454 292.12474 
L 877.659008 293.66326 
L 878.962415 296.87015 
L 880.265821 299.996371 
L 881.134759 301.487044 
L 883.307102 305.854013 
L 883.741571 306.43474 
L 884.17604 307.453104 
L 885.913915 310.160743 
L 886.348384 311.009631 
L 886.782853 311.339736 
L 888.086259 312.954534 
L 888.955196 314.241416 
L 889.824134 315.165144 
L 890.693071 315.861262 
L 891.562009 316.782875 
L 892.430947 317.657204 
L 892.865415 318.155931 
L 893.299884 318.3932 
L 894.168822 319.359714 
L 895.037759 319.879847 
L 895.906697 320.527894 
L 896.775634 321.307375 
L 897.644572 321.916721 
L 898.513509 322.702261 
L 899.816916 323.360875 
L 900.685853 323.982493 
L 901.120322 324.302943 
L 902.423728 324.894721 
L 903.292666 325.290181 
L 907.202885 327.426717 
L 908.071822 327.859869 
L 913.719916 330.418757 
L 914.154385 330.718446 
L 915.023322 330.956639 
L 916.326729 331.400288 
L 917.630135 332.070861 
L 919.36801 332.700428 
L 920.236948 333.041889 
L 921.974823 333.578524 
L 923.712698 334.1621 
L 925.885042 334.84526 
L 926.753979 335.082647 
L 927.188448 335.267686 
L 928.491854 335.488233 
L 930.229729 335.981727 
L 931.098667 336.163331 
L 936.312292 337.30343 
L 938.484636 337.792682 
L 939.788042 337.976759 
L 950.649761 340.074956 
L 964.552762 342.272836 
L 965.856168 342.45944 
L 967.594043 342.649139 
L 970.635324 343.114156 
L 975.84895 343.887112 
L 979.3247 344.305117 
L 980.628106 344.493401 
L 982.80045 344.759245 
L 984.972794 345.038315 
L 986.710669 345.232755 
L 988.014075 345.430463 
L 1003.220482 347.04731 
L 1010.171982 347.648451 
L 1036.674577 349.607193 
L 1046.23289 350.165671 
L 1050.577577 350.330886 
L 1058.398015 350.743436 
L 1078.818047 351.69554 
L 1089.245298 352.101381 
L 1094.893392 352.317256 
L 1099.238079 352.423323 
L 1108.361923 352.706217 
L 1116.182361 352.876501 
L 1168.318613 353.881278 
L 1212.634427 354.391913 
L 1227.406365 354.500075 
L 1240.874897 354.575062 
L 1268.680898 354.685854 
L 1275.19793 354.715759 
L 1286.059649 354.730705 
L 1286.059649 354.730705 
" style="fill:none;stroke:#ff0000;stroke-linecap:square;stroke-width:1.5;"/>
   </g>
   <g id="line2d_33">
    <path clip-path="url(#p6b8fc38b75)" d="M 853.328758 463.84 
L 854.632164 463.825082 
L 855.501101 463.415675 
L 855.93557 462.785722 
L 856.370039 461.847518 
L 856.804508 459.937936 
L 857.673445 454.231216 
L 858.976852 439.205329 
L 860.714727 412.315476 
L 862.88707 386.327665 
L 863.321539 381.478635 
L 863.756008 378.587962 
L 864.624945 372.137408 
L 865.059414 370.484327 
L 865.493883 367.788594 
L 866.362821 364.241818 
L 866.797289 363.178974 
L 867.231758 361.493065 
L 867.666227 360.431729 
L 868.535164 358.722453 
L 869.404102 356.078418 
L 869.838571 355.463593 
L 870.273039 354.539424 
L 870.707508 354.381671 
L 871.141977 353.563966 
L 872.010914 353.099697 
L 872.879852 351.661753 
L 873.314321 351.701242 
L 873.74879 352.044742 
L 875.486665 351.400894 
L 876.355602 351.14966 
L 877.22454 350.515937 
L 877.659008 350.683472 
L 878.093477 350.353118 
L 878.527946 349.799864 
L 879.396884 349.514126 
L 879.831352 349.571282 
L 880.265821 349.371762 
L 880.70029 348.742858 
L 881.569227 348.255675 
L 882.438165 348.108396 
L 882.872634 347.859396 
L 883.307102 347.753625 
L 883.741571 347.479571 
L 884.17604 347.635618 
L 885.044977 347.078541 
L 885.913915 347.041158 
L 886.348384 347.248929 
L 886.782853 346.660181 
L 888.086259 346.333585 
L 888.955196 346.368481 
L 889.824134 346.022189 
L 890.258603 345.556151 
L 890.693071 345.41309 
L 891.12754 345.398797 
L 891.996478 345.054318 
L 892.865415 344.933138 
L 893.299884 344.587191 
L 893.734353 344.495795 
L 894.168822 344.55264 
L 895.472228 343.786976 
L 895.906697 343.679012 
L 896.775634 343.758454 
L 897.644572 343.624935 
L 898.07904 343.749424 
L 898.513509 343.751741 
L 898.947978 343.464037 
L 899.816916 343.150652 
L 900.251384 343.238095 
L 901.554791 342.741708 
L 902.423728 342.524305 
L 902.858197 342.557798 
L 903.727134 342.248317 
L 905.465009 342.08266 
L 905.899478 342.202198 
L 908.506291 341.785627 
L 908.94076 341.864472 
L 909.809697 341.653451 
L 911.113103 341.238788 
L 912.41651 341.39555 
L 912.850979 341.522565 
L 913.719916 341.435839 
L 914.154385 341.682559 
L 914.588854 341.484447 
L 915.023322 341.520824 
L 915.89226 341.464729 
L 916.326729 341.437853 
L 917.195666 341.547991 
L 924.581635 341.445033 
L 925.450573 341.617699 
L 926.31951 341.458154 
L 927.188448 341.60499 
L 928.057385 341.428538 
L 928.926323 341.469364 
L 929.79526 341.511781 
L 932.836542 341.310251 
L 934.139948 341.331237 
L 935.877823 341.418558 
L 938.050167 341.581359 
L 939.788042 341.39217 
L 943.698261 341.637289 
L 944.13273 341.590022 
L 945.436136 341.744696 
L 945.870605 341.700118 
L 947.174011 341.925863 
L 951.518699 342.096658 
L 953.256574 342.151219 
L 955.428918 342.220446 
L 964.552762 342.955798 
L 965.856168 343.089888 
L 967.159574 343.149746 
L 995.834513 346.461781 
L 998.006857 346.686524 
L 1001.917076 347.01535 
L 1004.089419 347.178964 
L 1007.56517 347.47487 
L 1009.737513 347.641319 
L 1018.426889 348.419639 
L 1028.854139 349.138968 
L 1033.633296 349.43554 
L 1075.776766 351.562768 
L 1079.686985 351.727106 
L 1096.196798 352.335988 
L 1111.837673 352.78678 
L 1167.884144 353.878242 
L 1186.566301 354.117546 
L 1196.993552 354.229267 
L 1285.190711 354.730705 
L 1286.059649 354.730705 
L 1286.059649 354.730705 
" style="fill:none;stroke:#008000;stroke-linecap:square;stroke-width:1.5;"/>
   </g>
   <g id="line2d_34">
    <path clip-path="url(#p6b8fc38b75)" d="M 911.113103 463.84 
L 911.113103 41.64 
" style="fill:none;stroke:#1f77b4;stroke-linecap:square;stroke-width:1.5;"/>
   </g>
   <g id="patch_9">
    <path d="M 830.323636 463.84 
L 830.323636 41.64 
" style="fill:none;stroke:#000000;stroke-linecap:square;stroke-linejoin:miter;stroke-width:0.8;"/>
   </g>
   <g id="patch_10">
    <path d="M 1307.761364 463.84 
L 1307.761364 41.64 
" style="fill:none;stroke:#000000;stroke-linecap:square;stroke-linejoin:miter;stroke-width:0.8;"/>
   </g>
   <g id="patch_11">
    <path d="M 830.323636 463.84 
L 1307.761364 463.84 
" style="fill:none;stroke:#000000;stroke-linecap:square;stroke-linejoin:miter;stroke-width:0.8;"/>
   </g>
   <g id="patch_12">
    <path d="M 830.323636 41.64 
L 1307.761364 41.64 
" style="fill:none;stroke:#000000;stroke-linecap:square;stroke-linejoin:miter;stroke-width:0.8;"/>
   </g>
   <g id="text_29">
    <!-- Purity/Efficiency vs LongitudinalSpan3D Cutoff — shower -->
    <defs>
     <path d="M 54.890625 33.015625 
L 54.890625 0 
L 45.90625 0 
L 45.90625 32.71875 
Q 45.90625 40.484375 42.875 44.328125 
Q 39.84375 48.1875 33.796875 48.1875 
Q 26.515625 48.1875 22.3125 43.546875 
Q 18.109375 38.921875 18.109375 30.90625 
L 18.109375 0 
L 9.078125 0 
L 9.078125 75.984375 
L 18.109375 75.984375 
L 18.109375 46.1875 
Q 21.34375 51.125 25.703125 53.5625 
Q 30.078125 56 35.796875 56 
Q 45.21875 56 50.046875 50.171875 
Q 54.890625 44.34375 54.890625 33.015625 
z
" id="DejaVuSans-104"/>
     <path d="M 4.203125 54.6875 
L 13.1875 54.6875 
L 24.421875 12.015625 
L 35.59375 54.6875 
L 46.1875 54.6875 
L 57.421875 12.015625 
L 68.609375 54.6875 
L 77.59375 54.6875 
L 63.28125 0 
L 52.6875 0 
L 40.921875 44.828125 
L 29.109375 0 
L 18.5 0 
z
" id="DejaVuSans-119"/>
    </defs>
    <g transform="translate(699.271425 35.64)scale(0.2592 -0.2592)">
     <use xlink:href="#DejaVuSans-80"/>
     <use x="60.287109" xlink:href="#DejaVuSans-117"/>
     <use x="123.666016" xlink:href="#DejaVuSans-114"/>
     <use x="164.779297" xlink:href="#DejaVuSans-105"/>
     <use x="192.5625" xlink:href="#DejaVuSans-116"/>
     <use x="231.771484" xlink:href="#DejaVuSans-121"/>
     <use x="290.951172" xlink:href="#DejaVuSans-47"/>
     <use x="324.642578" xlink:href="#DejaVuSans-69"/>
     <use x="387.826172" xlink:href="#DejaVuSans-102"/>
     <use x="423.03125" xlink:href="#DejaVuSans-102"/>
     <use x="458.236328" xlink:href="#DejaVuSans-105"/>
     <use x="486.019531" xlink:href="#DejaVuSans-99"/>
     <use x="541" xlink:href="#DejaVuSans-105"/>
     <use x="568.783203" xlink:href="#DejaVuSans-101"/>
     <use x="630.306641" xlink:href="#DejaVuSans-110"/>
     <use x="693.685547" xlink:href="#DejaVuSans-99"/>
     <use x="748.666016" xlink:href="#DejaVuSans-121"/>
     <use x="807.845703" xlink:href="#DejaVuSans-32"/>
     <use x="839.632812" xlink:href="#DejaVuSans-118"/>
     <use x="898.8125" xlink:href="#DejaVuSans-115"/>
     <use x="950.912109" xlink:href="#DejaVuSans-32"/>
     <use x="982.699219" xlink:href="#DejaVuSans-76"/>
     <use x="1038.396484" xlink:href="#DejaVuSans-111"/>
     <use x="1099.578125" xlink:href="#DejaVuSans-110"/>
     <use x="1162.957031" xlink:href="#DejaVuSans-103"/>
     <use x="1226.433594" xlink:href="#DejaVuSans-105"/>
     <use x="1254.216797" xlink:href="#DejaVuSans-116"/>
     <use x="1293.425781" xlink:href="#DejaVuSans-117"/>
     <use x="1356.804688" xlink:href="#DejaVuSans-100"/>
     <use x="1420.28125" xlink:href="#DejaVuSans-105"/>
     <use x="1448.064453" xlink:href="#DejaVuSans-110"/>
     <use x="1511.443359" xlink:href="#DejaVuSans-97"/>
     <use x="1572.722656" xlink:href="#DejaVuSans-108"/>
     <use x="1600.505859" xlink:href="#DejaVuSans-83"/>
     <use x="1663.982422" xlink:href="#DejaVuSans-112"/>
     <use x="1727.458984" xlink:href="#DejaVuSans-97"/>
     <use x="1788.738281" xlink:href="#DejaVuSans-110"/>
     <use x="1852.117188" xlink:href="#DejaVuSans-51"/>
     <use x="1915.740234" xlink:href="#DejaVuSans-68"/>
     <use x="1992.742188" xlink:href="#DejaVuSans-32"/>
     <use x="2024.529297" xlink:href="#DejaVuSans-67"/>
     <use x="2094.353516" xlink:href="#DejaVuSans-117"/>
     <use x="2157.732422" xlink:href="#DejaVuSans-116"/>
     <use x="2196.941406" xlink:href="#DejaVuSans-111"/>
     <use x="2258.123047" xlink:href="#DejaVuSans-102"/>
     <use x="2293.328125" xlink:href="#DejaVuSans-102"/>
     <use x="2328.533203" xlink:href="#DejaVuSans-32"/>
     <use x="2360.320312" xlink:href="#DejaVuSans-8212"/>
     <use x="2460.320312" xlink:href="#DejaVuSans-32"/>
     <use x="2492.107422" xlink:href="#DejaVuSans-115"/>
     <use x="2544.207031" xlink:href="#DejaVuSans-104"/>
     <use x="2607.585938" xlink:href="#DejaVuSans-111"/>
     <use x="2668.767578" xlink:href="#DejaVuSans-119"/>
     <use x="2750.554688" xlink:href="#DejaVuSans-101"/>
     <use x="2812.078125" xlink:href="#DejaVuSans-114"/>
    </g>
   </g>
   <g id="legend_2">
    <g id="patch_13">
     <path d="M 960.347813 454.84 
L 1177.737188 454.84 
Q 1181.337188 454.84 1181.337188 451.24 
L 1181.337188 373.778125 
Q 1181.337188 370.178125 1177.737188 370.178125 
L 960.347813 370.178125 
Q 956.747813 370.178125 956.747813 373.778125 
L 956.747813 451.24 
Q 956.747813 454.84 960.347813 454.84 
z
" style="fill:#ffffff;opacity:0.8;stroke:#cccccc;stroke-linejoin:miter;"/>
    </g>
    <g id="line2d_35">
     <path d="M 963.947813 384.755313 
L 999.947813 384.755313 
" style="fill:none;stroke:#0000ff;stroke-linecap:square;stroke-width:1.5;"/>
    </g>
    <g id="line2d_36"/>
    <g id="text_30">
     <!-- Efficiency -->
     <g transform="translate(1014.347813 391.055313)scale(0.18 -0.18)">
      <use xlink:href="#DejaVuSans-69"/>
      <use x="63.183594" xlink:href="#DejaVuSans-102"/>
      <use x="98.388672" xlink:href="#DejaVuSans-102"/>
      <use x="133.59375" xlink:href="#DejaVuSans-105"/>
      <use x="161.376953" xlink:href="#DejaVuSans-99"/>
      <use x="216.357422" xlink:href="#DejaVuSans-105"/>
      <use x="244.140625" xlink:href="#DejaVuSans-101"/>
      <use x="305.664062" xlink:href="#DejaVuSans-110"/>
      <use x="369.042969" xlink:href="#DejaVuSans-99"/>
      <use x="424.023438" xlink:href="#DejaVuSans-121"/>
     </g>
    </g>
    <g id="line2d_37">
     <path d="M 963.947813 411.175937 
L 999.947813 411.175937 
" style="fill:none;stroke:#ff0000;stroke-linecap:square;stroke-width:1.5;"/>
    </g>
    <g id="line2d_38"/>
    <g id="text_31">
     <!-- Purity -->
     <g transform="translate(1014.347813 417.475937)scale(0.18 -0.18)">
      <use xlink:href="#DejaVuSans-80"/>
      <use x="60.287109" xlink:href="#DejaVuSans-117"/>
      <use x="123.666016" xlink:href="#DejaVuSans-114"/>
      <use x="164.779297" xlink:href="#DejaVuSans-105"/>
      <use x="192.5625" xlink:href="#DejaVuSans-116"/>
      <use x="231.771484" xlink:href="#DejaVuSans-121"/>
     </g>
    </g>
    <g id="line2d_39">
     <path d="M 963.947813 437.596562 
L 999.947813 437.596562 
" style="fill:none;stroke:#008000;stroke-linecap:square;stroke-width:1.5;"/>
    </g>
    <g id="line2d_40"/>
    <g id="text_32">
     <!-- Purity * Efficiency -->
     <g transform="translate(1014.347813 443.896562)scale(0.18 -0.18)">
      <use xlink:href="#DejaVuSans-80"/>
      <use x="60.287109" xlink:href="#DejaVuSans-117"/>
      <use x="123.666016" xlink:href="#DejaVuSans-114"/>
      <use x="164.779297" xlink:href="#DejaVuSans-105"/>
      <use x="192.5625" xlink:href="#DejaVuSans-116"/>
      <use x="231.771484" xlink:href="#DejaVuSans-121"/>
      <use x="290.951172" xlink:href="#DejaVuSans-32"/>
      <use x="322.738281" xlink:href="#DejaVuSans-42"/>
      <use x="372.738281" xlink:href="#DejaVuSans-32"/>
      <use x="404.525391" xlink:href="#DejaVuSans-69"/>
      <use x="467.708984" xlink:href="#DejaVuSans-102"/>
      <use x="502.914062" xlink:href="#DejaVuSans-102"/>
      <use x="538.119141" xlink:href="#DejaVuSans-105"/>
      <use x="565.902344" xlink:href="#DejaVuSans-99"/>
      <use x="620.882812" xlink:href="#DejaVuSans-105"/>
      <use x="648.666016" xlink:href="#DejaVuSans-101"/>
      <use x="710.189453" xlink:href="#DejaVuSans-110"/>
      <use x="773.568359" xlink:href="#DejaVuSans-99"/>
      <use x="828.548828" xlink:href="#DejaVuSans-121"/>
     </g>
    </g>
   </g>
  </g>
 </g>
 <defs>
  <clipPath id="pee2461d76b">
   <rect height="422.2" width="477.437727" x="118.423636" y="41.64"/>
  </clipPath>
  <clipPath id="p6b8fc38b75">
   <rect height="422.2" width="477.437727" x="830.323636" y="41.64"/>
  </clipPath>
 </defs>
</svg>
