<?xml version="1.0" encoding="utf-8" standalone="no"?>
<!DOCTYPE svg PUBLIC "-//W3C//DTD SVG 1.1//EN"
  "http://www.w3.org/Graphics/SVG/1.1/DTD/svg11.dtd">
<!-- Created with matplotlib (https://matplotlib.org/) -->
<svg height="540pt" version="1.1" viewBox="0 0 1440 540" width="1440pt" xmlns="http://www.w3.org/2000/svg" xmlns:xlink="http://www.w3.org/1999/xlink">
 <defs>
  <style type="text/css">
*{stroke-linecap:butt;stroke-linejoin:round;}
  </style>
 </defs>
 <g id="figure_1">
  <g id="patch_1">
   <path d="M 0 540 
L 1440 540 
L 1440 0 
L 0 0 
z
" style="fill:#ffffff;"/>
  </g>
  <g id="axes_1">
   <g id="patch_2">
    <path d="M 92.99 463.84 
L 697.268864 463.84 
L 697.268864 41.64 
L 92.99 41.64 
z
" style="fill:#ffffff;"/>
   </g>
   <g id="matplotlib.axis_1">
    <g id="xtick_1">
     <g id="line2d_1">
      <defs>
       <path d="M 0 0 
L 0 3.5 
" id="m13aa75970e" style="stroke:#000000;stroke-width:0.8;"/>
      </defs>
      <g>
       <use style="stroke:#000000;stroke-width:0.8;" x="120.457221" xlink:href="#m13aa75970e" y="463.84"/>
      </g>
     </g>
     <g id="text_1">
      <!-- −10 -->
      <defs>
       <path d="M 10.59375 35.5 
L 73.1875 35.5 
L 73.1875 27.203125 
L 10.59375 27.203125 
z
" id="DejaVuSans-8722"/>
       <path d="M 12.40625 8.296875 
L 28.515625 8.296875 
L 28.515625 63.921875 
L 10.984375 60.40625 
L 10.984375 69.390625 
L 28.421875 72.90625 
L 38.28125 72.90625 
L 38.28125 8.296875 
L 54.390625 8.296875 
L 54.390625 0 
L 12.40625 0 
z
" id="DejaVuSans-49"/>
       <path d="M 31.78125 66.40625 
Q 24.171875 66.40625 20.328125 58.90625 
Q 16.5 51.421875 16.5 36.375 
Q 16.5 21.390625 20.328125 13.890625 
Q 24.171875 6.390625 31.78125 6.390625 
Q 39.453125 6.390625 43.28125 13.890625 
Q 47.125 21.390625 47.125 36.375 
Q 47.125 51.421875 43.28125 58.90625 
Q 39.453125 66.40625 31.78125 66.40625 
z
M 31.78125 74.21875 
Q 44.046875 74.21875 50.515625 64.515625 
Q 56.984375 54.828125 56.984375 36.375 
Q 56.984375 17.96875 50.515625 8.265625 
Q 44.046875 -1.421875 31.78125 -1.421875 
Q 19.53125 -1.421875 13.0625 8.265625 
Q 6.59375 17.96875 6.59375 36.375 
Q 6.59375 54.828125 13.0625 64.515625 
Q 19.53125 74.21875 31.78125 74.21875 
z
" id="DejaVuSans-48"/>
      </defs>
      <g transform="translate(93.105546 490.53515)scale(0.2592 -0.2592)">
       <use xlink:href="#DejaVuSans-8722"/>
       <use x="83.789062" xlink:href="#DejaVuSans-49"/>
       <use x="147.412109" xlink:href="#DejaVuSans-48"/>
      </g>
     </g>
    </g>
    <g id="xtick_2">
     <g id="line2d_2">
      <g>
       <use style="stroke:#000000;stroke-width:0.8;" x="230.326105" xlink:href="#m13aa75970e" y="463.84"/>
      </g>
     </g>
     <g id="text_2">
      <!-- −5 -->
      <defs>
       <path d="M 10.796875 72.90625 
L 49.515625 72.90625 
L 49.515625 64.59375 
L 19.828125 64.59375 
L 19.828125 46.734375 
Q 21.96875 47.46875 24.109375 47.828125 
Q 26.265625 48.1875 28.421875 48.1875 
Q 40.625 48.1875 47.75 41.5 
Q 54.890625 34.8125 54.890625 23.390625 
Q 54.890625 11.625 47.5625 5.09375 
Q 40.234375 -1.421875 26.90625 -1.421875 
Q 22.3125 -1.421875 17.546875 -0.640625 
Q 12.796875 0.140625 7.71875 1.703125 
L 7.71875 11.625 
Q 12.109375 9.234375 16.796875 8.0625 
Q 21.484375 6.890625 26.703125 6.890625 
Q 35.15625 6.890625 40.078125 11.328125 
Q 45.015625 15.765625 45.015625 23.390625 
Q 45.015625 31 40.078125 35.4375 
Q 35.15625 39.890625 26.703125 39.890625 
Q 22.75 39.890625 18.8125 39.015625 
Q 14.890625 38.140625 10.796875 36.28125 
z
" id="DejaVuSans-53"/>
      </defs>
      <g transform="translate(211.22023 490.53515)scale(0.2592 -0.2592)">
       <use xlink:href="#DejaVuSans-8722"/>
       <use x="83.789062" xlink:href="#DejaVuSans-53"/>
      </g>
     </g>
    </g>
    <g id="xtick_3">
     <g id="line2d_3">
      <g>
       <use style="stroke:#000000;stroke-width:0.8;" x="340.19499" xlink:href="#m13aa75970e" y="463.84"/>
      </g>
     </g>
     <g id="text_3">
      <!-- 0 -->
      <g transform="translate(331.94919 490.53515)scale(0.2592 -0.2592)">
       <use xlink:href="#DejaVuSans-48"/>
      </g>
     </g>
    </g>
    <g id="xtick_4">
     <g id="line2d_4">
      <g>
       <use style="stroke:#000000;stroke-width:0.8;" x="450.063874" xlink:href="#m13aa75970e" y="463.84"/>
      </g>
     </g>
     <g id="text_4">
      <!-- 5 -->
      <g transform="translate(441.818074 490.53515)scale(0.2592 -0.2592)">
       <use xlink:href="#DejaVuSans-53"/>
      </g>
     </g>
    </g>
    <g id="xtick_5">
     <g id="line2d_5">
      <g>
       <use style="stroke:#000000;stroke-width:0.8;" x="559.932758" xlink:href="#m13aa75970e" y="463.84"/>
      </g>
     </g>
     <g id="text_5">
      <!-- 10 -->
      <g transform="translate(543.441158 490.53515)scale(0.2592 -0.2592)">
       <use xlink:href="#DejaVuSans-49"/>
       <use x="63.623047" xlink:href="#DejaVuSans-48"/>
      </g>
     </g>
    </g>
    <g id="xtick_6">
     <g id="line2d_6">
      <g>
       <use style="stroke:#000000;stroke-width:0.8;" x="669.801643" xlink:href="#m13aa75970e" y="463.84"/>
      </g>
     </g>
     <g id="text_6">
      <!-- 15 -->
      <g transform="translate(653.310043 490.53515)scale(0.2592 -0.2592)">
       <use xlink:href="#DejaVuSans-49"/>
       <use x="63.623047" xlink:href="#DejaVuSans-53"/>
      </g>
     </g>
    </g>
    <g id="text_7">
     <!-- BDTU Cutoff -->
     <defs>
      <path d="M 19.671875 34.8125 
L 19.671875 8.109375 
L 35.5 8.109375 
Q 43.453125 8.109375 47.28125 11.40625 
Q 51.125 14.703125 51.125 21.484375 
Q 51.125 28.328125 47.28125 31.5625 
Q 43.453125 34.8125 35.5 34.8125 
z
M 19.671875 64.796875 
L 19.671875 42.828125 
L 34.28125 42.828125 
Q 41.5 42.828125 45.03125 45.53125 
Q 48.578125 48.25 48.578125 53.8125 
Q 48.578125 59.328125 45.03125 62.0625 
Q 41.5 64.796875 34.28125 64.796875 
z
M 9.8125 72.90625 
L 35.015625 72.90625 
Q 46.296875 72.90625 52.390625 68.21875 
Q 58.5 63.53125 58.5 54.890625 
Q 58.5 48.1875 55.375 44.234375 
Q 52.25 40.28125 46.1875 39.3125 
Q 53.46875 37.75 57.5 32.78125 
Q 61.53125 27.828125 61.53125 20.40625 
Q 61.53125 10.640625 54.890625 5.3125 
Q 48.25 0 35.984375 0 
L 9.8125 0 
z
" id="DejaVuSans-66"/>
      <path d="M 19.671875 64.796875 
L 19.671875 8.109375 
L 31.59375 8.109375 
Q 46.6875 8.109375 53.6875 14.9375 
Q 60.6875 21.78125 60.6875 36.53125 
Q 60.6875 51.171875 53.6875 57.984375 
Q 46.6875 64.796875 31.59375 64.796875 
z
M 9.8125 72.90625 
L 30.078125 72.90625 
Q 51.265625 72.90625 61.171875 64.09375 
Q 71.09375 55.28125 71.09375 36.53125 
Q 71.09375 17.671875 61.125 8.828125 
Q 51.171875 0 30.078125 0 
L 9.8125 0 
z
" id="DejaVuSans-68"/>
      <path d="M -0.296875 72.90625 
L 61.375 72.90625 
L 61.375 64.59375 
L 35.5 64.59375 
L 35.5 0 
L 25.59375 0 
L 25.59375 64.59375 
L -0.296875 64.59375 
z
" id="DejaVuSans-84"/>
      <path d="M 8.6875 72.90625 
L 18.609375 72.90625 
L 18.609375 28.609375 
Q 18.609375 16.890625 22.84375 11.734375 
Q 27.09375 6.59375 36.625 6.59375 
Q 46.09375 6.59375 50.34375 11.734375 
Q 54.59375 16.890625 54.59375 28.609375 
L 54.59375 72.90625 
L 64.5 72.90625 
L 64.5 27.390625 
Q 64.5 13.140625 57.4375 5.859375 
Q 50.390625 -1.421875 36.625 -1.421875 
Q 22.796875 -1.421875 15.734375 5.859375 
Q 8.6875 13.140625 8.6875 27.390625 
z
" id="DejaVuSans-85"/>
      <path id="DejaVuSans-32"/>
      <path d="M 64.40625 67.28125 
L 64.40625 56.890625 
Q 59.421875 61.53125 53.78125 63.8125 
Q 48.140625 66.109375 41.796875 66.109375 
Q 29.296875 66.109375 22.65625 58.46875 
Q 16.015625 50.828125 16.015625 36.375 
Q 16.015625 21.96875 22.65625 14.328125 
Q 29.296875 6.6875 41.796875 6.6875 
Q 48.140625 6.6875 53.78125 8.984375 
Q 59.421875 11.28125 64.40625 15.921875 
L 64.40625 5.609375 
Q 59.234375 2.09375 53.4375 0.328125 
Q 47.65625 -1.421875 41.21875 -1.421875 
Q 24.65625 -1.421875 15.125 8.703125 
Q 5.609375 18.84375 5.609375 36.375 
Q 5.609375 53.953125 15.125 64.078125 
Q 24.65625 74.21875 41.21875 74.21875 
Q 47.75 74.21875 53.53125 72.484375 
Q 59.328125 70.75 64.40625 67.28125 
z
" id="DejaVuSans-67"/>
      <path d="M 8.5 21.578125 
L 8.5 54.6875 
L 17.484375 54.6875 
L 17.484375 21.921875 
Q 17.484375 14.15625 20.5 10.265625 
Q 23.53125 6.390625 29.59375 6.390625 
Q 36.859375 6.390625 41.078125 11.03125 
Q 45.3125 15.671875 45.3125 23.6875 
L 45.3125 54.6875 
L 54.296875 54.6875 
L 54.296875 0 
L 45.3125 0 
L 45.3125 8.40625 
Q 42.046875 3.421875 37.71875 1 
Q 33.40625 -1.421875 27.6875 -1.421875 
Q 18.265625 -1.421875 13.375 4.4375 
Q 8.5 10.296875 8.5 21.578125 
z
M 31.109375 56 
z
" id="DejaVuSans-117"/>
      <path d="M 18.3125 70.21875 
L 18.3125 54.6875 
L 36.8125 54.6875 
L 36.8125 47.703125 
L 18.3125 47.703125 
L 18.3125 18.015625 
Q 18.3125 11.328125 20.140625 9.421875 
Q 21.96875 7.515625 27.59375 7.515625 
L 36.8125 7.515625 
L 36.8125 0 
L 27.59375 0 
Q 17.1875 0 13.234375 3.875 
Q 9.28125 7.765625 9.28125 18.015625 
L 9.28125 47.703125 
L 2.6875 47.703125 
L 2.6875 54.6875 
L 9.28125 54.6875 
L 9.28125 70.21875 
z
" id="DejaVuSans-116"/>
      <path d="M 30.609375 48.390625 
Q 23.390625 48.390625 19.1875 42.75 
Q 14.984375 37.109375 14.984375 27.296875 
Q 14.984375 17.484375 19.15625 11.84375 
Q 23.34375 6.203125 30.609375 6.203125 
Q 37.796875 6.203125 41.984375 11.859375 
Q 46.1875 17.53125 46.1875 27.296875 
Q 46.1875 37.015625 41.984375 42.703125 
Q 37.796875 48.390625 30.609375 48.390625 
z
M 30.609375 56 
Q 42.328125 56 49.015625 48.375 
Q 55.71875 40.765625 55.71875 27.296875 
Q 55.71875 13.875 49.015625 6.21875 
Q 42.328125 -1.421875 30.609375 -1.421875 
Q 18.84375 -1.421875 12.171875 6.21875 
Q 5.515625 13.875 5.515625 27.296875 
Q 5.515625 40.765625 12.171875 48.375 
Q 18.84375 56 30.609375 56 
z
" id="DejaVuSans-111"/>
      <path d="M 37.109375 75.984375 
L 37.109375 68.5 
L 28.515625 68.5 
Q 23.6875 68.5 21.796875 66.546875 
Q 19.921875 64.59375 19.921875 59.515625 
L 19.921875 54.6875 
L 34.71875 54.6875 
L 34.71875 47.703125 
L 19.921875 47.703125 
L 19.921875 0 
L 10.890625 0 
L 10.890625 47.703125 
L 2.296875 47.703125 
L 2.296875 54.6875 
L 10.890625 54.6875 
L 10.890625 58.5 
Q 10.890625 67.625 15.140625 71.796875 
Q 19.390625 75.984375 28.609375 75.984375 
z
" id="DejaVuSans-102"/>
     </defs>
     <g transform="translate(315.340382 519.62085)scale(0.2592 -0.2592)">
      <use xlink:href="#DejaVuSans-66"/>
      <use x="68.603516" xlink:href="#DejaVuSans-68"/>
      <use x="145.605469" xlink:href="#DejaVuSans-84"/>
      <use x="206.689453" xlink:href="#DejaVuSans-85"/>
      <use x="279.882812" xlink:href="#DejaVuSans-32"/>
      <use x="311.669922" xlink:href="#DejaVuSans-67"/>
      <use x="381.494141" xlink:href="#DejaVuSans-117"/>
      <use x="444.873047" xlink:href="#DejaVuSans-116"/>
      <use x="484.082031" xlink:href="#DejaVuSans-111"/>
      <use x="545.263672" xlink:href="#DejaVuSans-102"/>
      <use x="580.46875" xlink:href="#DejaVuSans-102"/>
     </g>
    </g>
   </g>
   <g id="matplotlib.axis_2">
    <g id="ytick_1">
     <g id="line2d_7">
      <defs>
       <path d="M 0 0 
L -3.5 0 
" id="md4e2d22501" style="stroke:#000000;stroke-width:0.8;"/>
      </defs>
      <g>
       <use style="stroke:#000000;stroke-width:0.8;" x="92.99" xlink:href="#md4e2d22501" y="463.84"/>
      </g>
     </g>
     <g id="text_8">
      <!-- 0.0 -->
      <defs>
       <path d="M 10.6875 12.40625 
L 21 12.40625 
L 21 0 
L 10.6875 0 
z
" id="DejaVuSans-46"/>
      </defs>
      <g transform="translate(44.7691 473.687575)scale(0.2592 -0.2592)">
       <use xlink:href="#DejaVuSans-48"/>
       <use x="63.623047" xlink:href="#DejaVuSans-46"/>
       <use x="95.410156" xlink:href="#DejaVuSans-48"/>
      </g>
     </g>
    </g>
    <g id="ytick_2">
     <g id="line2d_8">
      <g>
       <use style="stroke:#000000;stroke-width:0.8;" x="92.99" xlink:href="#md4e2d22501" y="379.4"/>
      </g>
     </g>
     <g id="text_9">
      <!-- 0.2 -->
      <defs>
       <path d="M 19.1875 8.296875 
L 53.609375 8.296875 
L 53.609375 0 
L 7.328125 0 
L 7.328125 8.296875 
Q 12.9375 14.109375 22.625 23.890625 
Q 32.328125 33.6875 34.8125 36.53125 
Q 39.546875 41.84375 41.421875 45.53125 
Q 43.3125 49.21875 43.3125 52.78125 
Q 43.3125 58.59375 39.234375 62.25 
Q 35.15625 65.921875 28.609375 65.921875 
Q 23.96875 65.921875 18.8125 64.3125 
Q 13.671875 62.703125 7.8125 59.421875 
L 7.8125 69.390625 
Q 13.765625 71.78125 18.9375 73 
Q 24.125 74.21875 28.421875 74.21875 
Q 39.75 74.21875 46.484375 68.546875 
Q 53.21875 62.890625 53.21875 53.421875 
Q 53.21875 48.921875 51.53125 44.890625 
Q 49.859375 40.875 45.40625 35.40625 
Q 44.1875 33.984375 37.640625 27.21875 
Q 31.109375 20.453125 19.1875 8.296875 
z
" id="DejaVuSans-50"/>
      </defs>
      <g transform="translate(44.7691 389.247575)scale(0.2592 -0.2592)">
       <use xlink:href="#DejaVuSans-48"/>
       <use x="63.623047" xlink:href="#DejaVuSans-46"/>
       <use x="95.410156" xlink:href="#DejaVuSans-50"/>
      </g>
     </g>
    </g>
    <g id="ytick_3">
     <g id="line2d_9">
      <g>
       <use style="stroke:#000000;stroke-width:0.8;" x="92.99" xlink:href="#md4e2d22501" y="294.96"/>
      </g>
     </g>
     <g id="text_10">
      <!-- 0.4 -->
      <defs>
       <path d="M 37.796875 64.3125 
L 12.890625 25.390625 
L 37.796875 25.390625 
z
M 35.203125 72.90625 
L 47.609375 72.90625 
L 47.609375 25.390625 
L 58.015625 25.390625 
L 58.015625 17.1875 
L 47.609375 17.1875 
L 47.609375 0 
L 37.796875 0 
L 37.796875 17.1875 
L 4.890625 17.1875 
L 4.890625 26.703125 
z
" id="DejaVuSans-52"/>
      </defs>
      <g transform="translate(44.7691 304.807575)scale(0.2592 -0.2592)">
       <use xlink:href="#DejaVuSans-48"/>
       <use x="63.623047" xlink:href="#DejaVuSans-46"/>
       <use x="95.410156" xlink:href="#DejaVuSans-52"/>
      </g>
     </g>
    </g>
    <g id="ytick_4">
     <g id="line2d_10">
      <g>
       <use style="stroke:#000000;stroke-width:0.8;" x="92.99" xlink:href="#md4e2d22501" y="210.52"/>
      </g>
     </g>
     <g id="text_11">
      <!-- 0.6 -->
      <defs>
       <path d="M 33.015625 40.375 
Q 26.375 40.375 22.484375 35.828125 
Q 18.609375 31.296875 18.609375 23.390625 
Q 18.609375 15.53125 22.484375 10.953125 
Q 26.375 6.390625 33.015625 6.390625 
Q 39.65625 6.390625 43.53125 10.953125 
Q 47.40625 15.53125 47.40625 23.390625 
Q 47.40625 31.296875 43.53125 35.828125 
Q 39.65625 40.375 33.015625 40.375 
z
M 52.59375 71.296875 
L 52.59375 62.3125 
Q 48.875 64.0625 45.09375 64.984375 
Q 41.3125 65.921875 37.59375 65.921875 
Q 27.828125 65.921875 22.671875 59.328125 
Q 17.53125 52.734375 16.796875 39.40625 
Q 19.671875 43.65625 24.015625 45.921875 
Q 28.375 48.1875 33.59375 48.1875 
Q 44.578125 48.1875 50.953125 41.515625 
Q 57.328125 34.859375 57.328125 23.390625 
Q 57.328125 12.15625 50.6875 5.359375 
Q 44.046875 -1.421875 33.015625 -1.421875 
Q 20.359375 -1.421875 13.671875 8.265625 
Q 6.984375 17.96875 6.984375 36.375 
Q 6.984375 53.65625 15.1875 63.9375 
Q 23.390625 74.21875 37.203125 74.21875 
Q 40.921875 74.21875 44.703125 73.484375 
Q 48.484375 72.75 52.59375 71.296875 
z
" id="DejaVuSans-54"/>
      </defs>
      <g transform="translate(44.7691 220.367575)scale(0.2592 -0.2592)">
       <use xlink:href="#DejaVuSans-48"/>
       <use x="63.623047" xlink:href="#DejaVuSans-46"/>
       <use x="95.410156" xlink:href="#DejaVuSans-54"/>
      </g>
     </g>
    </g>
    <g id="ytick_5">
     <g id="line2d_11">
      <g>
       <use style="stroke:#000000;stroke-width:0.8;" x="92.99" xlink:href="#md4e2d22501" y="126.08"/>
      </g>
     </g>
     <g id="text_12">
      <!-- 0.8 -->
      <defs>
       <path d="M 31.78125 34.625 
Q 24.75 34.625 20.71875 30.859375 
Q 16.703125 27.09375 16.703125 20.515625 
Q 16.703125 13.921875 20.71875 10.15625 
Q 24.75 6.390625 31.78125 6.390625 
Q 38.8125 6.390625 42.859375 10.171875 
Q 46.921875 13.96875 46.921875 20.515625 
Q 46.921875 27.09375 42.890625 30.859375 
Q 38.875 34.625 31.78125 34.625 
z
M 21.921875 38.8125 
Q 15.578125 40.375 12.03125 44.71875 
Q 8.5 49.078125 8.5 55.328125 
Q 8.5 64.0625 14.71875 69.140625 
Q 20.953125 74.21875 31.78125 74.21875 
Q 42.671875 74.21875 48.875 69.140625 
Q 55.078125 64.0625 55.078125 55.328125 
Q 55.078125 49.078125 51.53125 44.71875 
Q 48 40.375 41.703125 38.8125 
Q 48.828125 37.15625 52.796875 32.3125 
Q 56.78125 27.484375 56.78125 20.515625 
Q 56.78125 9.90625 50.3125 4.234375 
Q 43.84375 -1.421875 31.78125 -1.421875 
Q 19.734375 -1.421875 13.25 4.234375 
Q 6.78125 9.90625 6.78125 20.515625 
Q 6.78125 27.484375 10.78125 32.3125 
Q 14.796875 37.15625 21.921875 38.8125 
z
M 18.3125 54.390625 
Q 18.3125 48.734375 21.84375 45.5625 
Q 25.390625 42.390625 31.78125 42.390625 
Q 38.140625 42.390625 41.71875 45.5625 
Q 45.3125 48.734375 45.3125 54.390625 
Q 45.3125 60.0625 41.71875 63.234375 
Q 38.140625 66.40625 31.78125 66.40625 
Q 25.390625 66.40625 21.84375 63.234375 
Q 18.3125 60.0625 18.3125 54.390625 
z
" id="DejaVuSans-56"/>
      </defs>
      <g transform="translate(44.7691 135.927575)scale(0.2592 -0.2592)">
       <use xlink:href="#DejaVuSans-48"/>
       <use x="63.623047" xlink:href="#DejaVuSans-46"/>
       <use x="95.410156" xlink:href="#DejaVuSans-56"/>
      </g>
     </g>
    </g>
    <g id="ytick_6">
     <g id="line2d_12">
      <g>
       <use style="stroke:#000000;stroke-width:0.8;" x="92.99" xlink:href="#md4e2d22501" y="41.64"/>
      </g>
     </g>
     <g id="text_13">
      <!-- 1.0 -->
      <g transform="translate(44.7691 51.487575)scale(0.2592 -0.2592)">
       <use xlink:href="#DejaVuSans-49"/>
       <use x="63.623047" xlink:href="#DejaVuSans-46"/>
       <use x="95.410156" xlink:href="#DejaVuSans-48"/>
      </g>
     </g>
    </g>
    <g id="text_14">
     <!-- Fraction -->
     <defs>
      <path d="M 9.8125 72.90625 
L 51.703125 72.90625 
L 51.703125 64.59375 
L 19.671875 64.59375 
L 19.671875 43.109375 
L 48.578125 43.109375 
L 48.578125 34.8125 
L 19.671875 34.8125 
L 19.671875 0 
L 9.8125 0 
z
" id="DejaVuSans-70"/>
      <path d="M 41.109375 46.296875 
Q 39.59375 47.171875 37.8125 47.578125 
Q 36.03125 48 33.890625 48 
Q 26.265625 48 22.1875 43.046875 
Q 18.109375 38.09375 18.109375 28.8125 
L 18.109375 0 
L 9.078125 0 
L 9.078125 54.6875 
L 18.109375 54.6875 
L 18.109375 46.1875 
Q 20.953125 51.171875 25.484375 53.578125 
Q 30.03125 56 36.53125 56 
Q 37.453125 56 38.578125 55.875 
Q 39.703125 55.765625 41.0625 55.515625 
z
" id="DejaVuSans-114"/>
      <path d="M 34.28125 27.484375 
Q 23.390625 27.484375 19.1875 25 
Q 14.984375 22.515625 14.984375 16.5 
Q 14.984375 11.71875 18.140625 8.90625 
Q 21.296875 6.109375 26.703125 6.109375 
Q 34.1875 6.109375 38.703125 11.40625 
Q 43.21875 16.703125 43.21875 25.484375 
L 43.21875 27.484375 
z
M 52.203125 31.203125 
L 52.203125 0 
L 43.21875 0 
L 43.21875 8.296875 
Q 40.140625 3.328125 35.546875 0.953125 
Q 30.953125 -1.421875 24.3125 -1.421875 
Q 15.921875 -1.421875 10.953125 3.296875 
Q 6 8.015625 6 15.921875 
Q 6 25.140625 12.171875 29.828125 
Q 18.359375 34.515625 30.609375 34.515625 
L 43.21875 34.515625 
L 43.21875 35.40625 
Q 43.21875 41.609375 39.140625 45 
Q 35.0625 48.390625 27.6875 48.390625 
Q 23 48.390625 18.546875 47.265625 
Q 14.109375 46.140625 10.015625 43.890625 
L 10.015625 52.203125 
Q 14.9375 54.109375 19.578125 55.046875 
Q 24.21875 56 28.609375 56 
Q 40.484375 56 46.34375 49.84375 
Q 52.203125 43.703125 52.203125 31.203125 
z
" id="DejaVuSans-97"/>
      <path d="M 48.78125 52.59375 
L 48.78125 44.1875 
Q 44.96875 46.296875 41.140625 47.34375 
Q 37.3125 48.390625 33.40625 48.390625 
Q 24.65625 48.390625 19.8125 42.84375 
Q 14.984375 37.3125 14.984375 27.296875 
Q 14.984375 17.28125 19.8125 11.734375 
Q 24.65625 6.203125 33.40625 6.203125 
Q 37.3125 6.203125 41.140625 7.25 
Q 44.96875 8.296875 48.78125 10.40625 
L 48.78125 2.09375 
Q 45.015625 0.34375 40.984375 -0.53125 
Q 36.96875 -1.421875 32.421875 -1.421875 
Q 20.0625 -1.421875 12.78125 6.34375 
Q 5.515625 14.109375 5.515625 27.296875 
Q 5.515625 40.671875 12.859375 48.328125 
Q 20.21875 56 33.015625 56 
Q 37.15625 56 41.109375 55.140625 
Q 45.0625 54.296875 48.78125 52.59375 
z
" id="DejaVuSans-99"/>
      <path d="M 9.421875 54.6875 
L 18.40625 54.6875 
L 18.40625 0 
L 9.421875 0 
z
M 9.421875 75.984375 
L 18.40625 75.984375 
L 18.40625 64.59375 
L 9.421875 64.59375 
z
" id="DejaVuSans-105"/>
      <path d="M 54.890625 33.015625 
L 54.890625 0 
L 45.90625 0 
L 45.90625 32.71875 
Q 45.90625 40.484375 42.875 44.328125 
Q 39.84375 48.1875 33.796875 48.1875 
Q 26.515625 48.1875 22.3125 43.546875 
Q 18.109375 38.921875 18.109375 30.90625 
L 18.109375 0 
L 9.078125 0 
L 9.078125 54.6875 
L 18.109375 54.6875 
L 18.109375 46.1875 
Q 21.34375 51.125 25.703125 53.5625 
Q 30.078125 56 35.796875 56 
Q 45.21875 56 50.046875 50.171875 
Q 54.890625 44.34375 54.890625 33.015625 
z
" id="DejaVuSans-110"/>
     </defs>
     <g transform="translate(35.37855 305.400125)rotate(-90)scale(0.2592 -0.2592)">
      <use xlink:href="#DejaVuSans-70"/>
      <use x="57.410156" xlink:href="#DejaVuSans-114"/>
      <use x="98.523438" xlink:href="#DejaVuSans-97"/>
      <use x="159.802734" xlink:href="#DejaVuSans-99"/>
      <use x="214.783203" xlink:href="#DejaVuSans-116"/>
      <use x="253.992188" xlink:href="#DejaVuSans-105"/>
      <use x="281.775391" xlink:href="#DejaVuSans-111"/>
      <use x="342.957031" xlink:href="#DejaVuSans-110"/>
     </g>
    </g>
   </g>
   <g id="line2d_13">
    <path clip-path="url(#p9b0ad48b66)" d="M 120.457221 41.64 
L 232.085767 41.748991 
L 239.234393 41.842412 
L 246.383019 41.951403 
L 252.431857 42.216095 
L 256.281117 42.652059 
L 257.9308 42.838901 
L 262.879849 43.477277 
L 265.079426 43.86653 
L 267.828898 44.520476 
L 270.578369 45.283413 
L 272.228052 45.532536 
L 272.777947 45.657097 
L 273.327841 45.937359 
L 279.376678 47.478804 
L 281.026361 48.17946 
L 283.225939 48.911257 
L 285.425516 49.938886 
L 287.075199 50.577262 
L 288.174987 51.122217 
L 289.82467 51.729453 
L 290.924459 52.430109 
L 293.124036 53.286467 
L 293.673931 53.504449 
L 295.323613 54.547649 
L 296.973296 55.404006 
L 299.722768 56.91431 
L 300.822557 57.661677 
L 301.372451 57.895229 
L 302.47224 58.627026 
L 310.17076 63.687323 
L 311.270549 64.45026 
L 314.02002 66.567799 
L 315.669703 67.502008 
L 318.969069 70.071081 
L 320.068858 70.693887 
L 321.718541 72.017349 
L 323.918118 73.885766 
L 325.017907 74.944536 
L 327.217484 76.750673 
L 327.767378 77.373478 
L 328.317272 77.700451 
L 334.36611 82.97873 
L 336.015793 84.177631 
L 338.765264 86.808985 
L 339.865053 87.758764 
L 340.414947 88.38157 
L 342.614525 90.109855 
L 344.264208 92.071693 
L 344.814102 92.429807 
L 345.363996 93.068183 
L 347.013679 94.562916 
L 348.113468 95.917519 
L 348.663362 96.431334 
L 350.313045 98.455452 
L 355.262094 103.65588 
L 357.461671 105.773419 
L 366.809875 116.656949 
L 367.359769 117.451027 
L 368.459558 118.509796 
L 369.559346 119.879969 
L 370.659135 121.452553 
L 371.209029 122.106499 
L 373.408606 125.298379 
L 373.958501 125.827764 
L 376.707972 129.580168 
L 377.257867 130.654508 
L 380.007338 134.531474 
L 380.557232 135.543533 
L 381.657021 136.866995 
L 384.956387 141.927292 
L 387.155964 145.477284 
L 388.255753 147.081009 
L 389.355542 149.089557 
L 390.45533 150.631002 
L 391.555119 152.59284 
L 393.754696 156.500946 
L 397.054062 161.748084 
L 399.803534 166.216715 
L 400.353428 167.026362 
L 404.202688 174.34433 
L 405.852371 177.738621 
L 406.95216 179.669318 
L 408.051948 182.082691 
L 408.601843 183.421723 
L 409.701631 185.414701 
L 410.251526 186.769304 
L 410.80142 187.641232 
L 411.901208 189.898902 
L 413.550891 193.511176 
L 415.750469 198.602612 
L 419.049835 206.122992 
L 421.249412 211.588112 
L 422.3492 213.830212 
L 422.899095 215.060254 
L 423.448989 216.601698 
L 423.998883 217.629327 
L 425.648566 221.724275 
L 431.697404 236.578191 
L 432.797192 239.069414 
L 433.896981 242.043312 
L 434.99677 244.659096 
L 436.096558 247.913256 
L 436.646453 249.392419 
L 437.746241 251.821362 
L 439.395924 256.539115 
L 442.69529 265.663219 
L 444.894867 272.046977 
L 447.094445 278.134903 
L 449.843916 286.885324 
L 453.143282 296.647804 
L 454.243071 299.761832 
L 456.992542 308.169709 
L 458.092331 312.077815 
L 458.642225 313.63483 
L 465.240957 337.052325 
L 467.440534 344.245731 
L 468.540323 348.574231 
L 469.090217 350.162385 
L 470.190006 354.506455 
L 481.737787 395.954176 
L 482.837575 400.235965 
L 485.037152 407.880906 
L 486.136941 411.477609 
L 487.786624 417.472114 
L 488.886413 421.769473 
L 491.08599 429.647966 
L 492.185779 433.026687 
L 494.385356 439.675138 
L 497.684722 447.257798 
L 500.434193 452.037832 
L 500.984088 452.9409 
L 501.533982 453.579276 
L 502.083876 454.700326 
L 503.733559 456.771155 
L 504.833348 458.125757 
L 505.383242 458.561721 
L 507.032925 460.445709 
L 508.682608 461.69132 
L 509.232502 462.142854 
L 510.882185 462.843511 
L 513.081763 463.435176 
L 514.181551 463.513027 
L 514.731446 463.668728 
L 524.629543 463.84 
L 669.801643 463.84 
L 669.801643 463.84 
" style="fill:none;stroke:#0000ff;stroke-linecap:square;stroke-width:1.5;"/>
   </g>
   <g id="line2d_14">
    <path clip-path="url(#p9b0ad48b66)" d="M 120.457221 150.61496 
L 214.489149 150.520664 
L 217.238621 150.008293 
L 223.287458 147.778688 
L 224.387247 147.160799 
L 226.586824 145.929474 
L 227.686613 145.16833 
L 229.336296 144.171591 
L 231.535873 142.895548 
L 232.635661 142.360334 
L 233.73545 141.545567 
L 238.134605 138.635135 
L 240.334182 136.95642 
L 241.433971 136.188912 
L 243.083653 134.890349 
L 248.582597 130.907109 
L 249.132491 130.315544 
L 249.682385 129.992249 
L 250.782174 129.103395 
L 251.881963 128.273408 
L 252.981751 127.213857 
L 255.731223 124.620506 
L 256.831011 123.571233 
L 259.580483 120.570724 
L 261.78006 118.286168 
L 262.879849 116.841443 
L 263.429743 116.373069 
L 273.327841 105.441366 
L 274.977524 103.658307 
L 276.627207 101.745753 
L 279.926573 98.035539 
L 287.625093 89.451408 
L 288.724882 88.513337 
L 289.82467 87.292856 
L 292.574142 84.75096 
L 295.323613 81.940843 
L 299.722768 77.772438 
L 309.070971 70.341958 
L 317.319386 64.972395 
L 318.969069 64.115606 
L 320.068858 63.353505 
L 320.618752 62.986834 
L 321.718541 62.045083 
L 322.818329 61.525767 
L 323.368224 61.344378 
L 324.468012 60.756179 
L 325.567801 60.134408 
L 333.816216 56.136637 
L 334.36611 55.947342 
L 335.465899 55.394296 
L 336.565687 54.891484 
L 337.115582 54.793801 
L 338.21537 54.374061 
L 339.865053 53.893915 
L 340.964842 53.563667 
L 342.614525 52.971701 
L 348.663362 51.085581 
L 353.062517 50.049509 
L 354.162305 49.7232 
L 354.7122 49.630998 
L 356.361883 48.997156 
L 359.111354 48.358882 
L 360.211143 48.079535 
L 361.860826 47.786495 
L 363.510509 47.529274 
L 364.610297 47.368202 
L 366.809875 46.912826 
L 374.508395 45.674557 
L 377.807761 45.228102 
L 378.90755 45.068675 
L 381.657021 44.832439 
L 383.306704 44.656289 
L 383.856598 44.523494 
L 386.056176 44.39441 
L 387.155964 44.20538 
L 388.255753 44.115762 
L 393.754696 43.662235 
L 395.404379 43.593735 
L 396.504168 43.454335 
L 403.652794 43.060258 
L 406.95216 43.000448 
L 410.251526 42.822964 
L 411.901208 42.812578 
L 413.000997 42.702624 
L 416.300363 42.633587 
L 418.49994 42.551988 
L 420.149623 42.463855 
L 425.648566 42.344751 
L 428.947932 42.313052 
L 430.597615 42.268316 
L 434.99677 42.209083 
L 443.795079 41.909604 
L 449.294022 41.860643 
L 450.943705 41.715697 
L 476.788738 41.64 
L 521.330177 41.64 
L 521.330177 41.64 
" style="fill:none;stroke:#ff0000;stroke-linecap:square;stroke-width:1.5;"/>
   </g>
   <g id="line2d_15">
    <path clip-path="url(#p9b0ad48b66)" d="M 120.457221 150.61496 
L 214.489149 150.520664 
L 217.238621 150.019867 
L 222.737564 148.104179 
L 226.586824 145.97637 
L 227.686613 145.215338 
L 229.336296 144.218746 
L 230.985979 143.218293 
L 232.635661 142.455179 
L 233.73545 141.640653 
L 235.935027 140.30334 
L 236.484922 140.01944 
L 244.183442 134.300706 
L 244.733336 134.006016 
L 245.833125 133.091057 
L 246.932914 132.372705 
L 248.582597 131.201783 
L 249.132491 130.659941 
L 249.682385 130.373916 
L 250.782174 129.535457 
L 251.881963 128.731291 
L 257.380906 123.863976 
L 261.78006 119.636984 
L 262.879849 118.351468 
L 263.429743 117.987645 
L 266.729109 114.814506 
L 270.578369 111.510639 
L 273.327841 109.089324 
L 273.877735 108.653173 
L 274.427629 108.0149 
L 274.977524 107.669771 
L 276.077312 106.64377 
L 277.726995 105.128921 
L 278.826784 104.153861 
L 279.376678 103.600742 
L 279.926573 103.323758 
L 282.12615 101.6927 
L 283.775833 100.22896 
L 284.325727 99.914111 
L 284.875621 99.415735 
L 290.374565 96.136859 
L 292.574142 95.04044 
L 293.673931 94.244897 
L 294.223825 94.004928 
L 294.773719 93.601705 
L 295.323613 93.6164 
L 295.873508 93.327478 
L 296.973296 92.968977 
L 297.523191 92.616826 
L 298.073085 92.484768 
L 298.622979 92.095441 
L 299.172874 92.017919 
L 299.722768 91.739552 
L 300.822557 91.515818 
L 301.372451 91.276213 
L 301.922345 91.276012 
L 304.671817 90.751105 
L 305.221711 90.725744 
L 306.3215 90.445936 
L 306.871394 90.302271 
L 307.421288 90.32909 
L 307.971183 90.183511 
L 309.620866 90.19938 
L 310.17076 90.150908 
L 310.720654 90.219928 
L 311.270549 90.175988 
L 314.02002 90.56067 
L 315.119809 90.439281 
L 315.669703 90.292029 
L 318.969069 91.033173 
L 319.518963 90.909034 
L 320.068858 90.913168 
L 320.618752 91.029999 
L 321.718541 90.954283 
L 323.368224 91.506316 
L 325.017907 92.318026 
L 325.567801 92.382023 
L 327.217484 92.994999 
L 327.767378 93.316398 
L 328.867167 93.623152 
L 329.417061 93.766537 
L 329.966955 94.084174 
L 330.51685 94.190642 
L 331.066744 94.52078 
L 331.616638 94.648507 
L 332.166533 94.992553 
L 333.816216 95.529719 
L 334.36611 95.885202 
L 334.916004 95.952037 
L 336.565687 96.621848 
L 338.21537 97.72768 
L 339.865053 98.67413 
L 340.414947 99.149571 
L 342.614525 100.140642 
L 344.264208 101.540018 
L 344.814102 101.705573 
L 345.363996 102.165853 
L 346.463785 102.712498 
L 349.213256 105.232333 
L 350.862939 106.848544 
L 353.612411 109.07479 
L 354.162305 109.406356 
L 355.262094 110.273877 
L 356.361883 111.018578 
L 356.911777 111.458116 
L 357.461671 111.744513 
L 358.56146 112.747275 
L 360.761037 114.846591 
L 361.310931 115.551212 
L 361.860826 115.911497 
L 362.41072 116.568406 
L 362.960614 116.944624 
L 364.060403 118.192563 
L 366.25998 120.413779 
L 369.559346 123.911532 
L 370.10924 124.722504 
L 371.209029 125.848613 
L 373.408606 128.704757 
L 373.958501 129.157782 
L 375.058289 130.484675 
L 380.007338 137.095989 
L 380.557232 138.077328 
L 381.657021 139.339381 
L 383.306704 141.583633 
L 383.856598 142.270198 
L 384.406493 143.31356 
L 386.056176 145.837255 
L 386.60607 146.866221 
L 387.155964 147.411726 
L 388.255753 148.93847 
L 389.355542 150.900781 
L 390.45533 152.334403 
L 391.555119 154.219162 
L 394.30459 158.813793 
L 397.054062 163.019462 
L 398.153851 164.68595 
L 400.903322 169.155356 
L 404.202688 175.321936 
L 405.852371 178.669789 
L 407.502054 181.659523 
L 409.151737 185.194556 
L 409.701631 186.191038 
L 410.251526 187.54563 
L 410.80142 188.417551 
L 411.351314 189.678722 
L 412.451103 191.718814 
L 415.750469 199.239456 
L 419.049835 206.6823 
L 421.249412 212.054353 
L 422.3492 214.296446 
L 422.899095 215.51097 
L 423.448989 217.036894 
L 423.998883 218.064521 
L 425.648566 222.128423 
L 431.697404 236.904695 
L 432.797192 239.380386 
L 433.896981 242.33875 
L 434.99677 244.95453 
L 436.096558 248.162091 
L 436.646453 249.641252 
L 437.746241 252.070191 
L 438.84603 255.277706 
L 442.145396 264.246258 
L 447.094445 278.24383 
L 449.843916 286.947582 
L 455.342859 303.047126 
L 455.892754 304.479584 
L 459.742014 317.480653 
L 462.491486 327.601246 
L 464.141168 333.159787 
L 465.790851 338.842889 
L 466.89064 342.486303 
L 467.440534 344.261299 
L 468.540323 348.574231 
L 469.090217 350.162385 
L 470.190006 354.506455 
L 481.737787 395.954176 
L 482.837575 400.235965 
L 485.037152 407.880906 
L 486.136941 411.477609 
L 487.786624 417.472114 
L 488.886413 421.769473 
L 491.08599 429.647966 
L 492.185779 433.026687 
L 494.385356 439.675138 
L 497.684722 447.257798 
L 500.434193 452.037832 
L 500.984088 452.9409 
L 501.533982 453.579276 
L 502.083876 454.700326 
L 503.733559 456.771155 
L 504.833348 458.125757 
L 505.383242 458.561721 
L 507.032925 460.445709 
L 508.682608 461.69132 
L 509.232502 462.142854 
L 510.882185 462.843511 
L 513.081763 463.435176 
L 514.181551 463.513027 
L 514.731446 463.668728 
L 521.330177 463.82443 
L 521.330177 463.82443 
" style="fill:none;stroke:#008000;stroke-linecap:square;stroke-width:1.5;"/>
   </g>
   <g id="line2d_16">
    <path clip-path="url(#p9b0ad48b66)" d="M 310.17076 463.84 
L 310.17076 41.64 
" style="fill:none;stroke:#1f77b4;stroke-linecap:square;stroke-width:1.5;"/>
   </g>
   <g id="patch_3">
    <path d="M 92.99 463.84 
L 92.99 41.64 
" style="fill:none;stroke:#000000;stroke-linecap:square;stroke-linejoin:miter;stroke-width:0.8;"/>
   </g>
   <g id="patch_4">
    <path d="M 697.268864 463.84 
L 697.268864 41.64 
" style="fill:none;stroke:#000000;stroke-linecap:square;stroke-linejoin:miter;stroke-width:0.8;"/>
   </g>
   <g id="patch_5">
    <path d="M 92.99 463.84 
L 697.268864 463.84 
" style="fill:none;stroke:#000000;stroke-linecap:square;stroke-linejoin:miter;stroke-width:0.8;"/>
   </g>
   <g id="patch_6">
    <path d="M 92.99 41.64 
L 697.268864 41.64 
" style="fill:none;stroke:#000000;stroke-linecap:square;stroke-linejoin:miter;stroke-width:0.8;"/>
   </g>
   <g id="text_15">
    <!-- Purity/Efficiency vs BDTU Cutoff — track -->
    <defs>
     <path d="M 19.671875 64.796875 
L 19.671875 37.40625 
L 32.078125 37.40625 
Q 38.96875 37.40625 42.71875 40.96875 
Q 46.484375 44.53125 46.484375 51.125 
Q 46.484375 57.671875 42.71875 61.234375 
Q 38.96875 64.796875 32.078125 64.796875 
z
M 9.8125 72.90625 
L 32.078125 72.90625 
Q 44.34375 72.90625 50.609375 67.359375 
Q 56.890625 61.8125 56.890625 51.125 
Q 56.890625 40.328125 50.609375 34.8125 
Q 44.34375 29.296875 32.078125 29.296875 
L 19.671875 29.296875 
L 19.671875 0 
L 9.8125 0 
z
" id="DejaVuSans-80"/>
     <path d="M 32.171875 -5.078125 
Q 28.375 -14.84375 24.75 -17.8125 
Q 21.140625 -20.796875 15.09375 -20.796875 
L 7.90625 -20.796875 
L 7.90625 -13.28125 
L 13.1875 -13.28125 
Q 16.890625 -13.28125 18.9375 -11.515625 
Q 21 -9.765625 23.484375 -3.21875 
L 25.09375 0.875 
L 2.984375 54.6875 
L 12.5 54.6875 
L 29.59375 11.921875 
L 46.6875 54.6875 
L 56.203125 54.6875 
z
" id="DejaVuSans-121"/>
     <path d="M 25.390625 72.90625 
L 33.6875 72.90625 
L 8.296875 -9.28125 
L 0 -9.28125 
z
" id="DejaVuSans-47"/>
     <path d="M 9.8125 72.90625 
L 55.90625 72.90625 
L 55.90625 64.59375 
L 19.671875 64.59375 
L 19.671875 43.015625 
L 54.390625 43.015625 
L 54.390625 34.71875 
L 19.671875 34.71875 
L 19.671875 8.296875 
L 56.78125 8.296875 
L 56.78125 0 
L 9.8125 0 
z
" id="DejaVuSans-69"/>
     <path d="M 56.203125 29.59375 
L 56.203125 25.203125 
L 14.890625 25.203125 
Q 15.484375 15.921875 20.484375 11.0625 
Q 25.484375 6.203125 34.421875 6.203125 
Q 39.59375 6.203125 44.453125 7.46875 
Q 49.3125 8.734375 54.109375 11.28125 
L 54.109375 2.78125 
Q 49.265625 0.734375 44.1875 -0.34375 
Q 39.109375 -1.421875 33.890625 -1.421875 
Q 20.796875 -1.421875 13.15625 6.1875 
Q 5.515625 13.8125 5.515625 26.8125 
Q 5.515625 40.234375 12.765625 48.109375 
Q 20.015625 56 32.328125 56 
Q 43.359375 56 49.78125 48.890625 
Q 56.203125 41.796875 56.203125 29.59375 
z
M 47.21875 32.234375 
Q 47.125 39.59375 43.09375 43.984375 
Q 39.0625 48.390625 32.421875 48.390625 
Q 24.90625 48.390625 20.390625 44.140625 
Q 15.875 39.890625 15.1875 32.171875 
z
" id="DejaVuSans-101"/>
     <path d="M 2.984375 54.6875 
L 12.5 54.6875 
L 29.59375 8.796875 
L 46.6875 54.6875 
L 56.203125 54.6875 
L 35.6875 0 
L 23.484375 0 
z
" id="DejaVuSans-118"/>
     <path d="M 44.28125 53.078125 
L 44.28125 44.578125 
Q 40.484375 46.53125 36.375 47.5 
Q 32.28125 48.484375 27.875 48.484375 
Q 21.1875 48.484375 17.84375 46.4375 
Q 14.5 44.390625 14.5 40.28125 
Q 14.5 37.15625 16.890625 35.375 
Q 19.28125 33.59375 26.515625 31.984375 
L 29.59375 31.296875 
Q 39.15625 29.25 43.1875 25.515625 
Q 47.21875 21.78125 47.21875 15.09375 
Q 47.21875 7.46875 41.1875 3.015625 
Q 35.15625 -1.421875 24.609375 -1.421875 
Q 20.21875 -1.421875 15.453125 -0.5625 
Q 10.6875 0.296875 5.421875 2 
L 5.421875 11.28125 
Q 10.40625 8.6875 15.234375 7.390625 
Q 20.0625 6.109375 24.8125 6.109375 
Q 31.15625 6.109375 34.5625 8.28125 
Q 37.984375 10.453125 37.984375 14.40625 
Q 37.984375 18.0625 35.515625 20.015625 
Q 33.0625 21.96875 24.703125 23.78125 
L 21.578125 24.515625 
Q 13.234375 26.265625 9.515625 29.90625 
Q 5.8125 33.546875 5.8125 39.890625 
Q 5.8125 47.609375 11.28125 51.796875 
Q 16.75 56 26.8125 56 
Q 31.78125 56 36.171875 55.265625 
Q 40.578125 54.546875 44.28125 53.078125 
z
" id="DejaVuSans-115"/>
     <path d="M 4.890625 30.90625 
L 95.125 30.90625 
L 95.125 23.875 
L 4.890625 23.875 
z
" id="DejaVuSans-8212"/>
     <path d="M 9.078125 75.984375 
L 18.109375 75.984375 
L 18.109375 31.109375 
L 44.921875 54.6875 
L 56.390625 54.6875 
L 27.390625 29.109375 
L 57.625 0 
L 45.90625 0 
L 18.109375 26.703125 
L 18.109375 0 
L 9.078125 0 
z
" id="DejaVuSans-107"/>
    </defs>
    <g transform="translate(133.805207 35.64)scale(0.2592 -0.2592)">
     <use xlink:href="#DejaVuSans-80"/>
     <use x="60.287109" xlink:href="#DejaVuSans-117"/>
     <use x="123.666016" xlink:href="#DejaVuSans-114"/>
     <use x="164.779297" xlink:href="#DejaVuSans-105"/>
     <use x="192.5625" xlink:href="#DejaVuSans-116"/>
     <use x="231.771484" xlink:href="#DejaVuSans-121"/>
     <use x="290.951172" xlink:href="#DejaVuSans-47"/>
     <use x="324.642578" xlink:href="#DejaVuSans-69"/>
     <use x="387.826172" xlink:href="#DejaVuSans-102"/>
     <use x="423.03125" xlink:href="#DejaVuSans-102"/>
     <use x="458.236328" xlink:href="#DejaVuSans-105"/>
     <use x="486.019531" xlink:href="#DejaVuSans-99"/>
     <use x="541" xlink:href="#DejaVuSans-105"/>
     <use x="568.783203" xlink:href="#DejaVuSans-101"/>
     <use x="630.306641" xlink:href="#DejaVuSans-110"/>
     <use x="693.685547" xlink:href="#DejaVuSans-99"/>
     <use x="748.666016" xlink:href="#DejaVuSans-121"/>
     <use x="807.845703" xlink:href="#DejaVuSans-32"/>
     <use x="839.632812" xlink:href="#DejaVuSans-118"/>
     <use x="898.8125" xlink:href="#DejaVuSans-115"/>
     <use x="950.912109" xlink:href="#DejaVuSans-32"/>
     <use x="982.699219" xlink:href="#DejaVuSans-66"/>
     <use x="1051.302734" xlink:href="#DejaVuSans-68"/>
     <use x="1128.304688" xlink:href="#DejaVuSans-84"/>
     <use x="1189.388672" xlink:href="#DejaVuSans-85"/>
     <use x="1262.582031" xlink:href="#DejaVuSans-32"/>
     <use x="1294.369141" xlink:href="#DejaVuSans-67"/>
     <use x="1364.193359" xlink:href="#DejaVuSans-117"/>
     <use x="1427.572266" xlink:href="#DejaVuSans-116"/>
     <use x="1466.78125" xlink:href="#DejaVuSans-111"/>
     <use x="1527.962891" xlink:href="#DejaVuSans-102"/>
     <use x="1563.167969" xlink:href="#DejaVuSans-102"/>
     <use x="1598.373047" xlink:href="#DejaVuSans-32"/>
     <use x="1630.160156" xlink:href="#DejaVuSans-8212"/>
     <use x="1730.160156" xlink:href="#DejaVuSans-32"/>
     <use x="1761.947266" xlink:href="#DejaVuSans-116"/>
     <use x="1801.15625" xlink:href="#DejaVuSans-114"/>
     <use x="1842.269531" xlink:href="#DejaVuSans-97"/>
     <use x="1903.548828" xlink:href="#DejaVuSans-99"/>
     <use x="1958.529297" xlink:href="#DejaVuSans-107"/>
    </g>
   </g>
   <g id="legend_1">
    <g id="patch_7">
     <path d="M 286.434744 454.84 
L 503.824119 454.84 
Q 507.424119 454.84 507.424119 451.24 
L 507.424119 373.778125 
Q 507.424119 370.178125 503.824119 370.178125 
L 286.434744 370.178125 
Q 282.834744 370.178125 282.834744 373.778125 
L 282.834744 451.24 
Q 282.834744 454.84 286.434744 454.84 
z
" style="fill:#ffffff;opacity:0.8;stroke:#cccccc;stroke-linejoin:miter;"/>
    </g>
    <g id="line2d_17">
     <path d="M 290.034744 384.755313 
L 326.034744 384.755313 
" style="fill:none;stroke:#0000ff;stroke-linecap:square;stroke-width:1.5;"/>
    </g>
    <g id="line2d_18"/>
    <g id="text_16">
     <!-- Efficiency -->
     <g transform="translate(340.434744 391.055313)scale(0.18 -0.18)">
      <use xlink:href="#DejaVuSans-69"/>
      <use x="63.183594" xlink:href="#DejaVuSans-102"/>
      <use x="98.388672" xlink:href="#DejaVuSans-102"/>
      <use x="133.59375" xlink:href="#DejaVuSans-105"/>
      <use x="161.376953" xlink:href="#DejaVuSans-99"/>
      <use x="216.357422" xlink:href="#DejaVuSans-105"/>
      <use x="244.140625" xlink:href="#DejaVuSans-101"/>
      <use x="305.664062" xlink:href="#DejaVuSans-110"/>
      <use x="369.042969" xlink:href="#DejaVuSans-99"/>
      <use x="424.023438" xlink:href="#DejaVuSans-121"/>
     </g>
    </g>
    <g id="line2d_19">
     <path d="M 290.034744 411.175937 
L 326.034744 411.175937 
" style="fill:none;stroke:#ff0000;stroke-linecap:square;stroke-width:1.5;"/>
    </g>
    <g id="line2d_20"/>
    <g id="text_17">
     <!-- Purity -->
     <g transform="translate(340.434744 417.475937)scale(0.18 -0.18)">
      <use xlink:href="#DejaVuSans-80"/>
      <use x="60.287109" xlink:href="#DejaVuSans-117"/>
      <use x="123.666016" xlink:href="#DejaVuSans-114"/>
      <use x="164.779297" xlink:href="#DejaVuSans-105"/>
      <use x="192.5625" xlink:href="#DejaVuSans-116"/>
      <use x="231.771484" xlink:href="#DejaVuSans-121"/>
     </g>
    </g>
    <g id="line2d_21">
     <path d="M 290.034744 437.596562 
L 326.034744 437.596562 
" style="fill:none;stroke:#008000;stroke-linecap:square;stroke-width:1.5;"/>
    </g>
    <g id="line2d_22"/>
    <g id="text_18">
     <!-- Purity * Efficiency -->
     <defs>
      <path d="M 47.015625 60.890625 
L 29.5 51.421875 
L 47.015625 41.890625 
L 44.1875 37.109375 
L 27.78125 47.015625 
L 27.78125 28.609375 
L 22.21875 28.609375 
L 22.21875 47.015625 
L 5.8125 37.109375 
L 2.984375 41.890625 
L 20.515625 51.421875 
L 2.984375 60.890625 
L 5.8125 65.71875 
L 22.21875 55.8125 
L 22.21875 74.21875 
L 27.78125 74.21875 
L 27.78125 55.8125 
L 44.1875 65.71875 
z
" id="DejaVuSans-42"/>
     </defs>
     <g transform="translate(340.434744 443.896562)scale(0.18 -0.18)">
      <use xlink:href="#DejaVuSans-80"/>
      <use x="60.287109" xlink:href="#DejaVuSans-117"/>
      <use x="123.666016" xlink:href="#DejaVuSans-114"/>
      <use x="164.779297" xlink:href="#DejaVuSans-105"/>
      <use x="192.5625" xlink:href="#DejaVuSans-116"/>
      <use x="231.771484" xlink:href="#DejaVuSans-121"/>
      <use x="290.951172" xlink:href="#DejaVuSans-32"/>
      <use x="322.738281" xlink:href="#DejaVuSans-42"/>
      <use x="372.738281" xlink:href="#DejaVuSans-32"/>
      <use x="404.525391" xlink:href="#DejaVuSans-69"/>
      <use x="467.708984" xlink:href="#DejaVuSans-102"/>
      <use x="502.914062" xlink:href="#DejaVuSans-102"/>
      <use x="538.119141" xlink:href="#DejaVuSans-105"/>
      <use x="565.902344" xlink:href="#DejaVuSans-99"/>
      <use x="620.882812" xlink:href="#DejaVuSans-105"/>
      <use x="648.666016" xlink:href="#DejaVuSans-101"/>
      <use x="710.189453" xlink:href="#DejaVuSans-110"/>
      <use x="773.568359" xlink:href="#DejaVuSans-99"/>
      <use x="828.548828" xlink:href="#DejaVuSans-121"/>
     </g>
    </g>
   </g>
  </g>
  <g id="axes_2">
   <g id="patch_8">
    <path d="M 797.9825 463.84 
L 1402.261364 463.84 
L 1402.261364 41.64 
L 797.9825 41.64 
z
" style="fill:#ffffff;"/>
   </g>
   <g id="matplotlib.axis_3">
    <g id="xtick_7">
     <g id="line2d_23">
      <g>
       <use style="stroke:#000000;stroke-width:0.8;" x="825.449721" xlink:href="#m13aa75970e" y="463.84"/>
      </g>
     </g>
     <g id="text_19">
      <!-- −10 -->
      <g transform="translate(798.098046 490.53515)scale(0.2592 -0.2592)">
       <use xlink:href="#DejaVuSans-8722"/>
       <use x="83.789062" xlink:href="#DejaVuSans-49"/>
       <use x="147.412109" xlink:href="#DejaVuSans-48"/>
      </g>
     </g>
    </g>
    <g id="xtick_8">
     <g id="line2d_24">
      <g>
       <use style="stroke:#000000;stroke-width:0.8;" x="935.318605" xlink:href="#m13aa75970e" y="463.84"/>
      </g>
     </g>
     <g id="text_20">
      <!-- −5 -->
      <g transform="translate(916.21273 490.53515)scale(0.2592 -0.2592)">
       <use xlink:href="#DejaVuSans-8722"/>
       <use x="83.789062" xlink:href="#DejaVuSans-53"/>
      </g>
     </g>
    </g>
    <g id="xtick_9">
     <g id="line2d_25">
      <g>
       <use style="stroke:#000000;stroke-width:0.8;" x="1045.18749" xlink:href="#m13aa75970e" y="463.84"/>
      </g>
     </g>
     <g id="text_21">
      <!-- 0 -->
      <g transform="translate(1036.94169 490.53515)scale(0.2592 -0.2592)">
       <use xlink:href="#DejaVuSans-48"/>
      </g>
     </g>
    </g>
    <g id="xtick_10">
     <g id="line2d_26">
      <g>
       <use style="stroke:#000000;stroke-width:0.8;" x="1155.056374" xlink:href="#m13aa75970e" y="463.84"/>
      </g>
     </g>
     <g id="text_22">
      <!-- 5 -->
      <g transform="translate(1146.810574 490.53515)scale(0.2592 -0.2592)">
       <use xlink:href="#DejaVuSans-53"/>
      </g>
     </g>
    </g>
    <g id="xtick_11">
     <g id="line2d_27">
      <g>
       <use style="stroke:#000000;stroke-width:0.8;" x="1264.925258" xlink:href="#m13aa75970e" y="463.84"/>
      </g>
     </g>
     <g id="text_23">
      <!-- 10 -->
      <g transform="translate(1248.433658 490.53515)scale(0.2592 -0.2592)">
       <use xlink:href="#DejaVuSans-49"/>
       <use x="63.623047" xlink:href="#DejaVuSans-48"/>
      </g>
     </g>
    </g>
    <g id="xtick_12">
     <g id="line2d_28">
      <g>
       <use style="stroke:#000000;stroke-width:0.8;" x="1374.794143" xlink:href="#m13aa75970e" y="463.84"/>
      </g>
     </g>
     <g id="text_24">
      <!-- 15 -->
      <g transform="translate(1358.302543 490.53515)scale(0.2592 -0.2592)">
       <use xlink:href="#DejaVuSans-49"/>
       <use x="63.623047" xlink:href="#DejaVuSans-53"/>
      </g>
     </g>
    </g>
    <g id="text_25">
     <!-- BDTU Cutoff -->
     <g transform="translate(1020.332882 519.62085)scale(0.2592 -0.2592)">
      <use xlink:href="#DejaVuSans-66"/>
      <use x="68.603516" xlink:href="#DejaVuSans-68"/>
      <use x="145.605469" xlink:href="#DejaVuSans-84"/>
      <use x="206.689453" xlink:href="#DejaVuSans-85"/>
      <use x="279.882812" xlink:href="#DejaVuSans-32"/>
      <use x="311.669922" xlink:href="#DejaVuSans-67"/>
      <use x="381.494141" xlink:href="#DejaVuSans-117"/>
      <use x="444.873047" xlink:href="#DejaVuSans-116"/>
      <use x="484.082031" xlink:href="#DejaVuSans-111"/>
      <use x="545.263672" xlink:href="#DejaVuSans-102"/>
      <use x="580.46875" xlink:href="#DejaVuSans-102"/>
     </g>
    </g>
   </g>
   <g id="matplotlib.axis_4">
    <g id="ytick_7">
     <g id="line2d_29">
      <g>
       <use style="stroke:#000000;stroke-width:0.8;" x="797.9825" xlink:href="#md4e2d22501" y="463.84"/>
      </g>
     </g>
     <g id="text_26">
      <!-- 0.0 -->
      <g transform="translate(749.7616 473.687575)scale(0.2592 -0.2592)">
       <use xlink:href="#DejaVuSans-48"/>
       <use x="63.623047" xlink:href="#DejaVuSans-46"/>
       <use x="95.410156" xlink:href="#DejaVuSans-48"/>
      </g>
     </g>
    </g>
    <g id="ytick_8">
     <g id="line2d_30">
      <g>
       <use style="stroke:#000000;stroke-width:0.8;" x="797.9825" xlink:href="#md4e2d22501" y="379.4"/>
      </g>
     </g>
     <g id="text_27">
      <!-- 0.2 -->
      <g transform="translate(749.7616 389.247575)scale(0.2592 -0.2592)">
       <use xlink:href="#DejaVuSans-48"/>
       <use x="63.623047" xlink:href="#DejaVuSans-46"/>
       <use x="95.410156" xlink:href="#DejaVuSans-50"/>
      </g>
     </g>
    </g>
    <g id="ytick_9">
     <g id="line2d_31">
      <g>
       <use style="stroke:#000000;stroke-width:0.8;" x="797.9825" xlink:href="#md4e2d22501" y="294.96"/>
      </g>
     </g>
     <g id="text_28">
      <!-- 0.4 -->
      <g transform="translate(749.7616 304.807575)scale(0.2592 -0.2592)">
       <use xlink:href="#DejaVuSans-48"/>
       <use x="63.623047" xlink:href="#DejaVuSans-46"/>
       <use x="95.410156" xlink:href="#DejaVuSans-52"/>
      </g>
     </g>
    </g>
    <g id="ytick_10">
     <g id="line2d_32">
      <g>
       <use style="stroke:#000000;stroke-width:0.8;" x="797.9825" xlink:href="#md4e2d22501" y="210.52"/>
      </g>
     </g>
     <g id="text_29">
      <!-- 0.6 -->
      <g transform="translate(749.7616 220.367575)scale(0.2592 -0.2592)">
       <use xlink:href="#DejaVuSans-48"/>
       <use x="63.623047" xlink:href="#DejaVuSans-46"/>
       <use x="95.410156" xlink:href="#DejaVuSans-54"/>
      </g>
     </g>
    </g>
    <g id="ytick_11">
     <g id="line2d_33">
      <g>
       <use style="stroke:#000000;stroke-width:0.8;" x="797.9825" xlink:href="#md4e2d22501" y="126.08"/>
      </g>
     </g>
     <g id="text_30">
      <!-- 0.8 -->
      <g transform="translate(749.7616 135.927575)scale(0.2592 -0.2592)">
       <use xlink:href="#DejaVuSans-48"/>
       <use x="63.623047" xlink:href="#DejaVuSans-46"/>
       <use x="95.410156" xlink:href="#DejaVuSans-56"/>
      </g>
     </g>
    </g>
    <g id="ytick_12">
     <g id="line2d_34">
      <g>
       <use style="stroke:#000000;stroke-width:0.8;" x="797.9825" xlink:href="#md4e2d22501" y="41.64"/>
      </g>
     </g>
     <g id="text_31">
      <!-- 1.0 -->
      <g transform="translate(749.7616 51.487575)scale(0.2592 -0.2592)">
       <use xlink:href="#DejaVuSans-49"/>
       <use x="63.623047" xlink:href="#DejaVuSans-46"/>
       <use x="95.410156" xlink:href="#DejaVuSans-48"/>
      </g>
     </g>
    </g>
    <g id="text_32">
     <!-- Fraction -->
     <g transform="translate(740.37105 305.400125)rotate(-90)scale(0.2592 -0.2592)">
      <use xlink:href="#DejaVuSans-70"/>
      <use x="57.410156" xlink:href="#DejaVuSans-114"/>
      <use x="98.523438" xlink:href="#DejaVuSans-97"/>
      <use x="159.802734" xlink:href="#DejaVuSans-99"/>
      <use x="214.783203" xlink:href="#DejaVuSans-116"/>
      <use x="253.992188" xlink:href="#DejaVuSans-105"/>
      <use x="281.775391" xlink:href="#DejaVuSans-111"/>
      <use x="342.957031" xlink:href="#DejaVuSans-110"/>
     </g>
    </g>
   </g>
   <g id="line2d_35">
    <path clip-path="url(#pe836df6151)" d="M 825.449721 463.84 
L 917.831966 463.750494 
L 918.38186 463.526729 
L 919.481649 463.347717 
L 921.131332 462.094632 
L 921.681226 461.244325 
L 922.231121 460.662536 
L 924.980592 455.650197 
L 926.080381 453.860076 
L 926.630275 452.696498 
L 927.180169 451.801437 
L 927.730064 450.682612 
L 931.579324 439.673369 
L 932.679113 435.824609 
L 933.778901 432.512885 
L 935.978479 425.665673 
L 937.628161 421.727407 
L 938.178056 419.40025 
L 940.927527 410.986682 
L 941.477422 409.599339 
L 943.676999 401.32003 
L 944.226893 398.903367 
L 945.326682 395.323125 
L 945.876576 393.712016 
L 946.976365 389.370973 
L 947.526259 387.088569 
L 948.626048 383.597833 
L 949.175942 381.673453 
L 949.725836 380.28611 
L 950.825625 375.855561 
L 951.375519 374.378711 
L 952.475308 370.529951 
L 953.025202 368.829336 
L 953.575097 366.725944 
L 954.124991 363.951257 
L 954.674885 362.429654 
L 955.774674 358.312377 
L 956.874463 354.50837 
L 957.424357 352.360225 
L 959.07404 344.528446 
L 961.823511 333.071673 
L 964.023089 322.151936 
L 966.222666 312.395777 
L 966.77256 309.755349 
L 967.872349 303.489926 
L 968.422243 301.431287 
L 973.371292 277.935951 
L 973.921186 275.743053 
L 975.020975 270.327937 
L 978.320341 255.469934 
L 978.870235 253.18753 
L 979.420129 250.412843 
L 979.970024 248.264698 
L 980.519918 245.534764 
L 981.069812 243.386619 
L 982.169601 238.105762 
L 983.26939 233.540954 
L 984.919073 226.022446 
L 990.96791 199.573411 
L 991.517804 197.738537 
L 992.617593 193.218482 
L 993.717382 189.727746 
L 994.81717 185.252444 
L 997.566642 175.899063 
L 1000.316113 165.78488 
L 1000.866008 163.905253 
L 1001.415902 162.51791 
L 1004.715268 151.105889 
L 1009.664317 137.321959 
L 1010.764106 134.368259 
L 1011.863894 131.146042 
L 1012.413788 129.892957 
L 1012.963683 128.326602 
L 1013.513577 127.163023 
L 1014.613366 124.477842 
L 1015.713154 121.837414 
L 1019.01252 115.034954 
L 1019.562415 113.960882 
L 1020.662203 111.141442 
L 1022.86178 107.158423 
L 1023.961569 105.278796 
L 1024.511463 103.936205 
L 1025.611252 101.743307 
L 1026.711041 98.834361 
L 1027.810829 97.178499 
L 1028.360724 96.59671 
L 1028.910618 95.522637 
L 1030.010407 93.911529 
L 1030.560301 92.792703 
L 1032.759878 89.436226 
L 1033.309772 88.764931 
L 1034.409561 87.153822 
L 1034.959455 86.303515 
L 1035.50935 85.184689 
L 1037.159033 82.947038 
L 1037.708927 81.917719 
L 1038.258821 81.425436 
L 1038.808716 80.619881 
L 1039.35861 80.038092 
L 1040.458399 78.426983 
L 1041.558187 76.950134 
L 1042.108082 76.636862 
L 1042.657976 75.876061 
L 1046.507236 72.295819 
L 1047.05713 71.669277 
L 1048.156919 70.729464 
L 1051.456285 67.372987 
L 1052.006179 67.059716 
L 1052.556074 66.567433 
L 1053.105968 66.254162 
L 1054.205756 65.448607 
L 1054.755651 65.224842 
L 1056.955228 63.658486 
L 1057.505122 63.389968 
L 1058.604911 62.271143 
L 1059.7047 61.6446 
L 1060.804488 60.525775 
L 1061.354383 59.943986 
L 1061.904277 59.630714 
L 1062.454171 59.093678 
L 1063.004066 58.869913 
L 1065.203643 57.437816 
L 1065.753537 57.258804 
L 1066.303431 56.856027 
L 1067.40322 56.318991 
L 1067.953114 56.050473 
L 1069.052903 55.781955 
L 1071.802375 54.260352 
L 1073.452058 53.63381 
L 1074.551846 53.365291 
L 1075.10174 53.186279 
L 1075.651635 52.649243 
L 1076.201529 52.514984 
L 1076.751423 52.201713 
L 1077.851212 51.843689 
L 1079.500895 50.993381 
L 1080.600684 50.545851 
L 1081.150578 50.545851 
L 1082.250367 49.919309 
L 1083.350155 49.740297 
L 1083.90005 49.427026 
L 1085.549732 48.979495 
L 1086.649521 48.800483 
L 1087.74931 48.531965 
L 1088.299204 48.352953 
L 1088.849098 48.039682 
L 1090.498781 47.815917 
L 1091.048676 47.681658 
L 1091.59857 47.368387 
L 1092.148464 47.234128 
L 1092.698359 47.234128 
L 1093.798147 46.876103 
L 1094.348042 46.876103 
L 1098.747196 45.891537 
L 1099.29709 45.891537 
L 1099.846985 45.712525 
L 1100.396879 45.712525 
L 1100.946773 45.48876 
L 1104.796034 44.951724 
L 1105.895822 44.817464 
L 1107.545505 44.504193 
L 1109.195188 44.45944 
L 1109.745082 44.45944 
L 1110.294977 44.325181 
L 1111.94466 44.280428 
L 1113.044448 44.056663 
L 1113.594343 43.877651 
L 1116.893708 43.832898 
L 1117.443603 43.653886 
L 1123.49244 43.251109 
L 1124.042335 43.251109 
L 1125.142123 43.072097 
L 1128.441489 42.893085 
L 1131.740855 42.803579 
L 1135.040221 42.624566 
L 1137.789692 42.53506 
L 1139.439375 42.490307 
L 1140.539164 42.445554 
L 1141.638953 42.356048 
L 1143.83853 42.266542 
L 1145.488213 42.08753 
L 1147.68779 41.998024 
L 1154.286522 41.908518 
L 1155.936205 41.729506 
L 1374.794143 41.64 
L 1374.794143 41.64 
" style="fill:none;stroke:#0000ff;stroke-linecap:square;stroke-width:1.5;"/>
   </g>
   <g id="line2d_36">
    <path clip-path="url(#pe836df6151)" d="M 917.831966 41.64 
L 921.681226 41.64 
L 922.231121 47.503889 
L 922.781015 50.435833 
L 923.880804 47.671429 
L 924.980592 46.204324 
L 926.630275 45.004143 
L 927.730064 44.492703 
L 928.279958 45.45506 
L 928.829852 45.044839 
L 929.379747 45.820198 
L 931.02943 44.944892 
L 933.778901 44.038864 
L 935.428584 43.714693 
L 935.978479 44.58901 
L 936.528373 44.495919 
L 937.628161 45.199115 
L 938.72795 44.890818 
L 939.277844 44.77321 
L 940.377633 45.282796 
L 942.027316 44.972281 
L 943.127105 45.359824 
L 943.676999 45.235742 
L 944.226893 45.389044 
L 946.426471 45.015523 
L 946.976365 45.660952 
L 947.526259 45.783995 
L 949.725836 45.44966 
L 950.275731 45.781353 
L 950.825625 45.681209 
L 951.925414 45.933559 
L 952.475308 46.246546 
L 953.025202 46.164977 
L 953.575097 46.258414 
L 954.674885 47.337954 
L 955.22478 47.394003 
L 955.774674 47.815094 
L 956.874463 47.938952 
L 957.424357 47.819351 
L 957.974251 48.157947 
L 959.07404 49.564991 
L 959.623934 49.718195 
L 961.823511 51.655436 
L 962.373406 51.721976 
L 963.473194 52.387392 
L 965.672772 53.127595 
L 966.222666 53.522711 
L 966.77256 54.250087 
L 967.322455 54.560926 
L 967.872349 55.101119 
L 968.422243 55.807031 
L 969.522032 56.345108 
L 971.171715 58.061184 
L 971.721609 58.438408 
L 973.371292 60.663264 
L 973.921186 60.909346 
L 975.020975 62.257774 
L 975.570869 63.047324 
L 976.120764 63.075604 
L 977.770447 64.071549 
L 978.320341 65.266764 
L 978.870235 65.743966 
L 979.420129 65.763329 
L 979.970024 66.548068 
L 981.069812 67.091202 
L 982.169601 67.860677 
L 983.819284 69.230808 
L 984.369178 69.696885 
L 985.468967 71.395048 
L 987.11865 73.011117 
L 988.218439 73.936052 
L 989.318227 75.572821 
L 989.868121 76.060294 
L 990.418016 76.878428 
L 990.96791 77.314264 
L 992.067699 78.515046 
L 992.617593 79.403409 
L 993.167487 80.050487 
L 994.267276 80.878379 
L 994.81717 81.445849 
L 995.916959 83.396044 
L 996.466853 83.800198 
L 997.016748 84.571573 
L 998.666431 85.765141 
L 999.216325 86.664725 
L 999.766219 87.123437 
L 1000.316113 88.375719 
L 1001.415902 89.508607 
L 1001.965796 90.357504 
L 1003.065585 91.620231 
L 1003.615479 92.224441 
L 1005.815057 95.334698 
L 1006.364951 95.776183 
L 1006.914845 96.814741 
L 1008.014634 98.224552 
L 1009.114423 99.872756 
L 1009.664317 100.374372 
L 1010.214211 101.226074 
L 1010.764106 101.743495 
L 1011.314 102.575076 
L 1011.863894 103.201737 
L 1012.413788 104.075651 
L 1012.963683 104.684956 
L 1017.362837 111.077784 
L 1017.912732 112.059637 
L 1018.462626 112.707395 
L 1019.01252 113.587014 
L 1020.662203 115.133419 
L 1022.86178 118.470607 
L 1023.961569 120.003204 
L 1025.061358 120.969896 
L 1026.161146 122.560967 
L 1026.711041 123.139179 
L 1028.910618 126.522652 
L 1030.010407 128.433445 
L 1031.110195 129.889686 
L 1032.759878 132.527253 
L 1033.309772 133.050227 
L 1037.708927 139.328174 
L 1038.808716 140.554781 
L 1039.35861 141.447764 
L 1039.908504 141.928416 
L 1041.558187 144.008332 
L 1046.507236 151.148237 
L 1047.607025 152.225494 
L 1049.256708 155.135377 
L 1049.806602 155.600811 
L 1050.356496 156.529323 
L 1051.456285 157.762275 
L 1052.556074 159.679198 
L 1053.105968 160.620534 
L 1053.655862 161.330792 
L 1055.305545 164.251047 
L 1056.955228 166.688296 
L 1057.505122 167.37562 
L 1058.055017 168.336274 
L 1060.254594 171.154988 
L 1062.454171 173.755916 
L 1064.103854 176.109113 
L 1064.653748 176.817377 
L 1065.203643 177.848787 
L 1065.753537 178.510312 
L 1066.303431 179.559917 
L 1066.853326 180.096902 
L 1067.40322 181.048297 
L 1067.953114 181.60932 
L 1069.052903 183.31682 
L 1070.702586 185.661069 
L 1071.802375 187.249134 
L 1072.352269 188.20294 
L 1072.902163 188.738912 
L 1074.001952 190.174163 
L 1077.851212 196.432143 
L 1081.150578 200.979014 
L 1081.700472 201.786783 
L 1082.250367 202.920061 
L 1087.74931 211.097386 
L 1088.849098 212.580699 
L 1089.398993 213.659374 
L 1091.048676 216.2498 
L 1091.59857 217.307202 
L 1092.148464 217.860541 
L 1093.248253 219.380793 
L 1094.348042 221.292374 
L 1095.44783 222.686312 
L 1096.547619 224.477873 
L 1098.747196 227.962649 
L 1104.796034 236.215324 
L 1105.895822 237.718355 
L 1113.044448 248.609783 
L 1114.144237 250.305193 
L 1114.694131 251.039227 
L 1115.244026 252.028998 
L 1115.79392 252.661236 
L 1116.893708 254.269629 
L 1117.993497 255.92842 
L 1127.3417 269.813279 
L 1130.091172 273.645794 
L 1132.840644 277.528708 
L 1133.940432 279.010877 
L 1136.14001 282.083315 
L 1137.239798 283.250659 
L 1139.98927 286.810829 
L 1141.089058 288.41074 
L 1142.188847 289.701452 
L 1142.738741 290.332141 
L 1143.83853 291.871132 
L 1148.787579 298.172812 
L 1149.887367 299.554283 
L 1152.086945 302.153317 
L 1154.286522 305.058174 
L 1157.585888 308.921097 
L 1160.335359 311.958143 
L 1161.435148 313.160397 
L 1167.483986 320.570247 
L 1172.433034 325.880578 
L 1173.532823 327.186663 
L 1174.082717 327.663214 
L 1175.7324 329.523051 
L 1177.382083 331.319545 
L 1178.481872 332.334625 
L 1182.881026 336.598688 
L 1183.980815 337.538795 
L 1185.630498 339.112913 
L 1191.129441 343.822077 
L 1193.878913 346.165845 
L 1196.07849 347.899067 
L 1197.728173 348.995562 
L 1198.827962 349.735815 
L 1201.577433 351.143432 
L 1203.77701 351.982137 
L 1208.176165 353.356663 
L 1212.025425 354.211166 
L 1216.42458 354.703799 
L 1219.723946 354.832233 
L 1246.118873 354.86504 
L 1374.794143 354.86504 
L 1374.794143 354.86504 
" style="fill:none;stroke:#ff0000;stroke-linecap:square;stroke-width:1.5;"/>
   </g>
   <g id="line2d_37">
    <path clip-path="url(#pe836df6151)" d="M 917.831966 463.750494 
L 918.38186 463.526729 
L 919.481649 463.347717 
L 921.131332 462.094632 
L 921.681226 461.244325 
L 922.231121 460.706667 
L 927.730064 450.771513 
L 929.929641 444.594566 
L 931.02943 441.327829 
L 931.579324 439.851064 
L 932.679113 436.002484 
L 933.778901 432.69088 
L 935.978479 425.932316 
L 937.628161 422.082413 
L 938.178056 419.755413 
L 940.927527 411.430455 
L 941.477422 410.043206 
L 943.676999 401.852492 
L 944.226893 399.47999 
L 945.326682 395.900016 
L 945.876576 394.289019 
L 948.626048 384.351489 
L 949.175942 382.427275 
L 949.725836 381.040046 
L 950.825625 376.697729 
L 951.375519 375.264905 
L 952.475308 371.54804 
L 953.575097 367.788268 
L 954.124991 365.188817 
L 954.674885 363.798275 
L 955.774674 359.855823 
L 956.874463 356.139527 
L 957.974251 351.437528 
L 960.173828 342.686764 
L 961.823511 336.173761 
L 964.023089 325.814027 
L 966.77256 314.357483 
L 967.872349 308.602411 
L 968.422243 306.880953 
L 971.721609 292.723916 
L 976.670658 273.479017 
L 977.770447 268.998433 
L 978.870235 265.213963 
L 979.420129 262.607475 
L 979.970024 260.982756 
L 980.519918 258.539645 
L 981.069812 256.676063 
L 982.169601 252.124958 
L 983.26939 248.324653 
L 984.369178 243.748212 
L 984.919073 242.360421 
L 987.668544 232.945557 
L 988.768333 228.92888 
L 989.318227 227.439038 
L 989.868121 225.351782 
L 992.617593 217.424051 
L 993.717382 214.924129 
L 994.81717 211.518229 
L 995.367065 210.542185 
L 998.116536 203.807174 
L 998.666431 202.185266 
L 999.216325 200.928763 
L 999.766219 199.25192 
L 1000.316113 198.778296 
L 1000.866008 197.487453 
L 1001.415902 196.681502 
L 1001.965796 195.545441 
L 1002.515691 194.011505 
L 1003.065585 193.217211 
L 1003.615479 191.529383 
L 1004.165374 190.888823 
L 1004.715268 189.60409 
L 1005.265162 188.920063 
L 1006.364951 186.914308 
L 1006.914845 186.411855 
L 1009.664317 182.745531 
L 1010.214211 182.21267 
L 1011.314 180.503221 
L 1011.863894 179.656743 
L 1012.413788 179.277612 
L 1012.963683 178.427093 
L 1013.513577 178.06533 
L 1015.16326 176.523643 
L 1015.713154 176.22211 
L 1016.263049 175.720198 
L 1019.01252 174.47475 
L 1019.562415 174.01642 
L 1020.662203 172.536569 
L 1023.961569 171.830205 
L 1024.511463 171.097377 
L 1025.061358 170.724949 
L 1025.611252 170.515577 
L 1026.711041 169.293053 
L 1027.260935 169.274805 
L 1028.910618 169.572269 
L 1029.460512 169.853343 
L 1030.010407 169.959294 
L 1030.560301 169.649205 
L 1032.209984 169.825213 
L 1032.759878 170.034356 
L 1034.409561 169.942377 
L 1034.959455 170.1657 
L 1035.50935 169.913158 
L 1036.059244 170.185646 
L 1036.609138 170.106223 
L 1037.159033 170.413136 
L 1037.708927 170.286479 
L 1038.258821 170.42773 
L 1038.808716 170.402293 
L 1039.35861 170.768576 
L 1039.908504 170.523064 
L 1041.558187 170.757026 
L 1042.108082 171.256459 
L 1044.857553 172.876574 
L 1045.407447 173.451969 
L 1047.05713 173.930092 
L 1047.607025 174.09202 
L 1048.706813 175.206665 
L 1049.256708 175.554254 
L 1049.806602 175.56415 
L 1050.356496 176.041629 
L 1051.456285 176.417638 
L 1053.105968 178.298158 
L 1053.655862 178.64635 
L 1055.855439 181.308972 
L 1058.055017 183.152181 
L 1059.154805 183.77907 
L 1059.7047 184.358823 
L 1061.354383 185.136618 
L 1061.904277 185.59762 
L 1062.454171 185.747944 
L 1063.004066 186.40989 
L 1064.653748 187.739692 
L 1065.203643 188.549964 
L 1065.753537 189.065756 
L 1066.303431 189.80533 
L 1066.853326 190.172579 
L 1067.40322 190.88036 
L 1067.953114 191.242379 
L 1069.052903 192.713187 
L 1070.702586 194.389176 
L 1071.802375 195.516955 
L 1072.352269 196.296163 
L 1072.902163 196.670595 
L 1074.001952 197.890414 
L 1075.10174 199.537654 
L 1075.651635 199.901152 
L 1076.751423 201.270724 
L 1077.851212 202.89483 
L 1080.050789 205.075263 
L 1084.999838 211.503279 
L 1085.549732 212.499769 
L 1086.649521 213.737565 
L 1087.74931 215.22314 
L 1088.849098 216.389273 
L 1089.398993 217.425077 
L 1091.048676 219.792802 
L 1091.59857 220.652146 
L 1092.148464 221.119756 
L 1100.946773 233.04936 
L 1105.895822 239.42014 
L 1108.645294 243.325174 
L 1110.844871 246.75295 
L 1112.494554 248.962623 
L 1114.144237 251.436923 
L 1114.694131 252.167066 
L 1115.244026 253.151591 
L 1115.79392 253.780479 
L 1116.343814 254.683505 
L 1117.443603 256.015766 
L 1120.193074 260.247997 
L 1122.392652 263.502716 
L 1123.49244 265.052311 
L 1128.991383 272.646476 
L 1130.641066 274.981859 
L 1132.840644 278.002682 
L 1134.490327 280.248277 
L 1136.14001 282.50717 
L 1137.239798 283.633507 
L 1139.98927 287.167365 
L 1141.089058 288.708267 
L 1142.188847 289.99679 
L 1142.738741 290.626409 
L 1143.83853 292.126333 
L 1146.588002 295.488992 
L 1157.585888 308.95394 
L 1160.335359 311.990342 
L 1160.885254 312.500721 
L 1168.583774 321.796467 
L 1173.532823 327.186663 
L 1174.082717 327.663214 
L 1175.7324 329.523051 
L 1177.382083 331.319545 
L 1178.481872 332.334625 
L 1182.881026 336.598688 
L 1183.980815 337.538795 
L 1185.630498 339.112913 
L 1191.129441 343.822077 
L 1193.878913 346.165845 
L 1196.07849 347.899067 
L 1197.728173 348.995562 
L 1198.827962 349.735815 
L 1201.577433 351.143432 
L 1203.77701 351.982137 
L 1208.176165 353.356663 
L 1212.025425 354.211166 
L 1216.42458 354.703799 
L 1219.723946 354.832233 
L 1246.118873 354.86504 
L 1374.794143 354.86504 
L 1374.794143 354.86504 
" style="fill:none;stroke:#008000;stroke-linecap:square;stroke-width:1.5;"/>
   </g>
   <g id="line2d_38">
    <path clip-path="url(#pe836df6151)" d="M 1027.260935 463.84 
L 1027.260935 41.64 
" style="fill:none;stroke:#1f77b4;stroke-linecap:square;stroke-width:1.5;"/>
   </g>
   <g id="patch_9">
    <path d="M 797.9825 463.84 
L 797.9825 41.64 
" style="fill:none;stroke:#000000;stroke-linecap:square;stroke-linejoin:miter;stroke-width:0.8;"/>
   </g>
   <g id="patch_10">
    <path d="M 1402.261364 463.84 
L 1402.261364 41.64 
" style="fill:none;stroke:#000000;stroke-linecap:square;stroke-linejoin:miter;stroke-width:0.8;"/>
   </g>
   <g id="patch_11">
    <path d="M 797.9825 463.84 
L 1402.261364 463.84 
" style="fill:none;stroke:#000000;stroke-linecap:square;stroke-linejoin:miter;stroke-width:0.8;"/>
   </g>
   <g id="patch_12">
    <path d="M 797.9825 41.64 
L 1402.261364 41.64 
" style="fill:none;stroke:#000000;stroke-linecap:square;stroke-linejoin:miter;stroke-width:0.8;"/>
   </g>
   <g id="text_33">
    <!-- Purity/Efficiency vs BDTU Cutoff — shower -->
    <defs>
     <path d="M 54.890625 33.015625 
L 54.890625 0 
L 45.90625 0 
L 45.90625 32.71875 
Q 45.90625 40.484375 42.875 44.328125 
Q 39.84375 48.1875 33.796875 48.1875 
Q 26.515625 48.1875 22.3125 43.546875 
Q 18.109375 38.921875 18.109375 30.90625 
L 18.109375 0 
L 9.078125 0 
L 9.078125 75.984375 
L 18.109375 75.984375 
L 18.109375 46.1875 
Q 21.34375 51.125 25.703125 53.5625 
Q 30.078125 56 35.796875 56 
Q 45.21875 56 50.046875 50.171875 
Q 54.890625 44.34375 54.890625 33.015625 
z
" id="DejaVuSans-104"/>
     <path d="M 4.203125 54.6875 
L 13.1875 54.6875 
L 24.421875 12.015625 
L 35.59375 54.6875 
L 46.1875 54.6875 
L 57.421875 12.015625 
L 68.609375 54.6875 
L 77.59375 54.6875 
L 63.28125 0 
L 52.6875 0 
L 40.921875 44.828125 
L 29.109375 0 
L 18.5 0 
z
" id="DejaVuSans-119"/>
    </defs>
    <g transform="translate(824.983157 35.64)scale(0.2592 -0.2592)">
     <use xlink:href="#DejaVuSans-80"/>
     <use x="60.287109" xlink:href="#DejaVuSans-117"/>
     <use x="123.666016" xlink:href="#DejaVuSans-114"/>
     <use x="164.779297" xlink:href="#DejaVuSans-105"/>
     <use x="192.5625" xlink:href="#DejaVuSans-116"/>
     <use x="231.771484" xlink:href="#DejaVuSans-121"/>
     <use x="290.951172" xlink:href="#DejaVuSans-47"/>
     <use x="324.642578" xlink:href="#DejaVuSans-69"/>
     <use x="387.826172" xlink:href="#DejaVuSans-102"/>
     <use x="423.03125" xlink:href="#DejaVuSans-102"/>
     <use x="458.236328" xlink:href="#DejaVuSans-105"/>
     <use x="486.019531" xlink:href="#DejaVuSans-99"/>
     <use x="541" xlink:href="#DejaVuSans-105"/>
     <use x="568.783203" xlink:href="#DejaVuSans-101"/>
     <use x="630.306641" xlink:href="#DejaVuSans-110"/>
     <use x="693.685547" xlink:href="#DejaVuSans-99"/>
     <use x="748.666016" xlink:href="#DejaVuSans-121"/>
     <use x="807.845703" xlink:href="#DejaVuSans-32"/>
     <use x="839.632812" xlink:href="#DejaVuSans-118"/>
     <use x="898.8125" xlink:href="#DejaVuSans-115"/>
     <use x="950.912109" xlink:href="#DejaVuSans-32"/>
     <use x="982.699219" xlink:href="#DejaVuSans-66"/>
     <use x="1051.302734" xlink:href="#DejaVuSans-68"/>
     <use x="1128.304688" xlink:href="#DejaVuSans-84"/>
     <use x="1189.388672" xlink:href="#DejaVuSans-85"/>
     <use x="1262.582031" xlink:href="#DejaVuSans-32"/>
     <use x="1294.369141" xlink:href="#DejaVuSans-67"/>
     <use x="1364.193359" xlink:href="#DejaVuSans-117"/>
     <use x="1427.572266" xlink:href="#DejaVuSans-116"/>
     <use x="1466.78125" xlink:href="#DejaVuSans-111"/>
     <use x="1527.962891" xlink:href="#DejaVuSans-102"/>
     <use x="1563.167969" xlink:href="#DejaVuSans-102"/>
     <use x="1598.373047" xlink:href="#DejaVuSans-32"/>
     <use x="1630.160156" xlink:href="#DejaVuSans-8212"/>
     <use x="1730.160156" xlink:href="#DejaVuSans-32"/>
     <use x="1761.947266" xlink:href="#DejaVuSans-115"/>
     <use x="1814.046875" xlink:href="#DejaVuSans-104"/>
     <use x="1877.425781" xlink:href="#DejaVuSans-111"/>
     <use x="1938.607422" xlink:href="#DejaVuSans-119"/>
     <use x="2020.394531" xlink:href="#DejaVuSans-101"/>
     <use x="2081.917969" xlink:href="#DejaVuSans-114"/>
    </g>
   </g>
   <g id="legend_2">
    <g id="patch_13">
     <path d="M 991.427244 454.84 
L 1208.816619 454.84 
Q 1212.416619 454.84 1212.416619 451.24 
L 1212.416619 373.778125 
Q 1212.416619 370.178125 1208.816619 370.178125 
L 991.427244 370.178125 
Q 987.827244 370.178125 987.827244 373.778125 
L 987.827244 451.24 
Q 987.827244 454.84 991.427244 454.84 
z
" style="fill:#ffffff;opacity:0.8;stroke:#cccccc;stroke-linejoin:miter;"/>
    </g>
    <g id="line2d_39">
     <path d="M 995.027244 384.755313 
L 1031.027244 384.755313 
" style="fill:none;stroke:#0000ff;stroke-linecap:square;stroke-width:1.5;"/>
    </g>
    <g id="line2d_40"/>
    <g id="text_34">
     <!-- Efficiency -->
     <g transform="translate(1045.427244 391.055313)scale(0.18 -0.18)">
      <use xlink:href="#DejaVuSans-69"/>
      <use x="63.183594" xlink:href="#DejaVuSans-102"/>
      <use x="98.388672" xlink:href="#DejaVuSans-102"/>
      <use x="133.59375" xlink:href="#DejaVuSans-105"/>
      <use x="161.376953" xlink:href="#DejaVuSans-99"/>
      <use x="216.357422" xlink:href="#DejaVuSans-105"/>
      <use x="244.140625" xlink:href="#DejaVuSans-101"/>
      <use x="305.664062" xlink:href="#DejaVuSans-110"/>
      <use x="369.042969" xlink:href="#DejaVuSans-99"/>
      <use x="424.023438" xlink:href="#DejaVuSans-121"/>
     </g>
    </g>
    <g id="line2d_41">
     <path d="M 995.027244 411.175937 
L 1031.027244 411.175937 
" style="fill:none;stroke:#ff0000;stroke-linecap:square;stroke-width:1.5;"/>
    </g>
    <g id="line2d_42"/>
    <g id="text_35">
     <!-- Purity -->
     <g transform="translate(1045.427244 417.475937)scale(0.18 -0.18)">
      <use xlink:href="#DejaVuSans-80"/>
      <use x="60.287109" xlink:href="#DejaVuSans-117"/>
      <use x="123.666016" xlink:href="#DejaVuSans-114"/>
      <use x="164.779297" xlink:href="#DejaVuSans-105"/>
      <use x="192.5625" xlink:href="#DejaVuSans-116"/>
      <use x="231.771484" xlink:href="#DejaVuSans-121"/>
     </g>
    </g>
    <g id="line2d_43">
     <path d="M 995.027244 437.596562 
L 1031.027244 437.596562 
" style="fill:none;stroke:#008000;stroke-linecap:square;stroke-width:1.5;"/>
    </g>
    <g id="line2d_44"/>
    <g id="text_36">
     <!-- Purity * Efficiency -->
     <g transform="translate(1045.427244 443.896562)scale(0.18 -0.18)">
      <use xlink:href="#DejaVuSans-80"/>
      <use x="60.287109" xlink:href="#DejaVuSans-117"/>
      <use x="123.666016" xlink:href="#DejaVuSans-114"/>
      <use x="164.779297" xlink:href="#DejaVuSans-105"/>
      <use x="192.5625" xlink:href="#DejaVuSans-116"/>
      <use x="231.771484" xlink:href="#DejaVuSans-121"/>
      <use x="290.951172" xlink:href="#DejaVuSans-32"/>
      <use x="322.738281" xlink:href="#DejaVuSans-42"/>
      <use x="372.738281" xlink:href="#DejaVuSans-32"/>
      <use x="404.525391" xlink:href="#DejaVuSans-69"/>
      <use x="467.708984" xlink:href="#DejaVuSans-102"/>
      <use x="502.914062" xlink:href="#DejaVuSans-102"/>
      <use x="538.119141" xlink:href="#DejaVuSans-105"/>
      <use x="565.902344" xlink:href="#DejaVuSans-99"/>
      <use x="620.882812" xlink:href="#DejaVuSans-105"/>
      <use x="648.666016" xlink:href="#DejaVuSans-101"/>
      <use x="710.189453" xlink:href="#DejaVuSans-110"/>
      <use x="773.568359" xlink:href="#DejaVuSans-99"/>
      <use x="828.548828" xlink:href="#DejaVuSans-121"/>
     </g>
    </g>
   </g>
  </g>
 </g>
 <defs>
  <clipPath id="p9b0ad48b66">
   <rect height="422.2" width="604.278864" x="92.99" y="41.64"/>
  </clipPath>
  <clipPath id="pe836df6151">
   <rect height="422.2" width="604.278864" x="797.9825" y="41.64"/>
  </clipPath>
 </defs>
</svg>
