<?xml version="1.0" encoding="utf-8" standalone="no"?>
<!DOCTYPE svg PUBLIC "-//W3C//DTD SVG 1.1//EN"
  "http://www.w3.org/Graphics/SVG/1.1/DTD/svg11.dtd">
<!-- Created with matplotlib (https://matplotlib.org/) -->
<svg height="540pt" version="1.1" viewBox="0 0 1440 540" width="1440pt" xmlns="http://www.w3.org/2000/svg" xmlns:xlink="http://www.w3.org/1999/xlink">
 <defs>
  <style type="text/css">
*{stroke-linecap:butt;stroke-linejoin:round;}
  </style>
 </defs>
 <g id="figure_1">
  <g id="patch_1">
   <path d="M 0 540 
L 1440 540 
L 1440 0 
L 0 0 
z
" style="fill:#ffffff;"/>
  </g>
  <g id="axes_1">
   <g id="patch_2">
    <path d="M 92.99 463.84 
L 648.623864 463.84 
L 648.623864 41.64 
L 92.99 41.64 
z
" style="fill:#ffffff;"/>
   </g>
   <g id="matplotlib.axis_1">
    <g id="xtick_1">
     <g id="line2d_1">
      <defs>
       <path d="M 0 0 
L 0 3.5 
" id="m449ea1c532" style="stroke:#000000;stroke-width:0.8;"/>
      </defs>
      <g>
       <use style="stroke:#000000;stroke-width:0.8;" x="107.937479" xlink:href="#m449ea1c532" y="463.84"/>
      </g>
     </g>
     <g id="text_1">
      <!-- 0 -->
      <defs>
       <path d="M 31.78125 66.40625 
Q 24.171875 66.40625 20.328125 58.90625 
Q 16.5 51.421875 16.5 36.375 
Q 16.5 21.390625 20.328125 13.890625 
Q 24.171875 6.390625 31.78125 6.390625 
Q 39.453125 6.390625 43.28125 13.890625 
Q 47.125 21.390625 47.125 36.375 
Q 47.125 51.421875 43.28125 58.90625 
Q 39.453125 66.40625 31.78125 66.40625 
z
M 31.78125 74.21875 
Q 44.046875 74.21875 50.515625 64.515625 
Q 56.984375 54.828125 56.984375 36.375 
Q 56.984375 17.96875 50.515625 8.265625 
Q 44.046875 -1.421875 31.78125 -1.421875 
Q 19.53125 -1.421875 13.0625 8.265625 
Q 6.59375 17.96875 6.59375 36.375 
Q 6.59375 54.828125 13.0625 64.515625 
Q 19.53125 74.21875 31.78125 74.21875 
z
" id="DejaVuSans-48"/>
      </defs>
      <g transform="translate(99.691679 490.53515)scale(0.2592 -0.2592)">
       <use xlink:href="#DejaVuSans-48"/>
      </g>
     </g>
    </g>
    <g id="xtick_2">
     <g id="line2d_2">
      <g>
       <use style="stroke:#000000;stroke-width:0.8;" x="211.023539" xlink:href="#m449ea1c532" y="463.84"/>
      </g>
     </g>
     <g id="text_2">
      <!-- 10 -->
      <defs>
       <path d="M 12.40625 8.296875 
L 28.515625 8.296875 
L 28.515625 63.921875 
L 10.984375 60.40625 
L 10.984375 69.390625 
L 28.421875 72.90625 
L 38.28125 72.90625 
L 38.28125 8.296875 
L 54.390625 8.296875 
L 54.390625 0 
L 12.40625 0 
z
" id="DejaVuSans-49"/>
      </defs>
      <g transform="translate(194.531939 490.53515)scale(0.2592 -0.2592)">
       <use xlink:href="#DejaVuSans-49"/>
       <use x="63.623047" xlink:href="#DejaVuSans-48"/>
      </g>
     </g>
    </g>
    <g id="xtick_3">
     <g id="line2d_3">
      <g>
       <use style="stroke:#000000;stroke-width:0.8;" x="314.109599" xlink:href="#m449ea1c532" y="463.84"/>
      </g>
     </g>
     <g id="text_3">
      <!-- 20 -->
      <defs>
       <path d="M 19.1875 8.296875 
L 53.609375 8.296875 
L 53.609375 0 
L 7.328125 0 
L 7.328125 8.296875 
Q 12.9375 14.109375 22.625 23.890625 
Q 32.328125 33.6875 34.8125 36.53125 
Q 39.546875 41.84375 41.421875 45.53125 
Q 43.3125 49.21875 43.3125 52.78125 
Q 43.3125 58.59375 39.234375 62.25 
Q 35.15625 65.921875 28.609375 65.921875 
Q 23.96875 65.921875 18.8125 64.3125 
Q 13.671875 62.703125 7.8125 59.421875 
L 7.8125 69.390625 
Q 13.765625 71.78125 18.9375 73 
Q 24.125 74.21875 28.421875 74.21875 
Q 39.75 74.21875 46.484375 68.546875 
Q 53.21875 62.890625 53.21875 53.421875 
Q 53.21875 48.921875 51.53125 44.890625 
Q 49.859375 40.875 45.40625 35.40625 
Q 44.1875 33.984375 37.640625 27.21875 
Q 31.109375 20.453125 19.1875 8.296875 
z
" id="DejaVuSans-50"/>
      </defs>
      <g transform="translate(297.617999 490.53515)scale(0.2592 -0.2592)">
       <use xlink:href="#DejaVuSans-50"/>
       <use x="63.623047" xlink:href="#DejaVuSans-48"/>
      </g>
     </g>
    </g>
    <g id="xtick_4">
     <g id="line2d_4">
      <g>
       <use style="stroke:#000000;stroke-width:0.8;" x="417.195659" xlink:href="#m449ea1c532" y="463.84"/>
      </g>
     </g>
     <g id="text_4">
      <!-- 30 -->
      <defs>
       <path d="M 40.578125 39.3125 
Q 47.65625 37.796875 51.625 33 
Q 55.609375 28.21875 55.609375 21.1875 
Q 55.609375 10.40625 48.1875 4.484375 
Q 40.765625 -1.421875 27.09375 -1.421875 
Q 22.515625 -1.421875 17.65625 -0.515625 
Q 12.796875 0.390625 7.625 2.203125 
L 7.625 11.71875 
Q 11.71875 9.328125 16.59375 8.109375 
Q 21.484375 6.890625 26.8125 6.890625 
Q 36.078125 6.890625 40.9375 10.546875 
Q 45.796875 14.203125 45.796875 21.1875 
Q 45.796875 27.640625 41.28125 31.265625 
Q 36.765625 34.90625 28.71875 34.90625 
L 20.21875 34.90625 
L 20.21875 43.015625 
L 29.109375 43.015625 
Q 36.375 43.015625 40.234375 45.921875 
Q 44.09375 48.828125 44.09375 54.296875 
Q 44.09375 59.90625 40.109375 62.90625 
Q 36.140625 65.921875 28.71875 65.921875 
Q 24.65625 65.921875 20.015625 65.03125 
Q 15.375 64.15625 9.8125 62.3125 
L 9.8125 71.09375 
Q 15.4375 72.65625 20.34375 73.4375 
Q 25.25 74.21875 29.59375 74.21875 
Q 40.828125 74.21875 47.359375 69.109375 
Q 53.90625 64.015625 53.90625 55.328125 
Q 53.90625 49.265625 50.4375 45.09375 
Q 46.96875 40.921875 40.578125 39.3125 
z
" id="DejaVuSans-51"/>
      </defs>
      <g transform="translate(400.704059 490.53515)scale(0.2592 -0.2592)">
       <use xlink:href="#DejaVuSans-51"/>
       <use x="63.623047" xlink:href="#DejaVuSans-48"/>
      </g>
     </g>
    </g>
    <g id="xtick_5">
     <g id="line2d_5">
      <g>
       <use style="stroke:#000000;stroke-width:0.8;" x="520.281719" xlink:href="#m449ea1c532" y="463.84"/>
      </g>
     </g>
     <g id="text_5">
      <!-- 40 -->
      <defs>
       <path d="M 37.796875 64.3125 
L 12.890625 25.390625 
L 37.796875 25.390625 
z
M 35.203125 72.90625 
L 47.609375 72.90625 
L 47.609375 25.390625 
L 58.015625 25.390625 
L 58.015625 17.1875 
L 47.609375 17.1875 
L 47.609375 0 
L 37.796875 0 
L 37.796875 17.1875 
L 4.890625 17.1875 
L 4.890625 26.703125 
z
" id="DejaVuSans-52"/>
      </defs>
      <g transform="translate(503.790119 490.53515)scale(0.2592 -0.2592)">
       <use xlink:href="#DejaVuSans-52"/>
       <use x="63.623047" xlink:href="#DejaVuSans-48"/>
      </g>
     </g>
    </g>
    <g id="xtick_6">
     <g id="line2d_6">
      <g>
       <use style="stroke:#000000;stroke-width:0.8;" x="623.367779" xlink:href="#m449ea1c532" y="463.84"/>
      </g>
     </g>
     <g id="text_6">
      <!-- 50 -->
      <defs>
       <path d="M 10.796875 72.90625 
L 49.515625 72.90625 
L 49.515625 64.59375 
L 19.828125 64.59375 
L 19.828125 46.734375 
Q 21.96875 47.46875 24.109375 47.828125 
Q 26.265625 48.1875 28.421875 48.1875 
Q 40.625 48.1875 47.75 41.5 
Q 54.890625 34.8125 54.890625 23.390625 
Q 54.890625 11.625 47.5625 5.09375 
Q 40.234375 -1.421875 26.90625 -1.421875 
Q 22.3125 -1.421875 17.546875 -0.640625 
Q 12.796875 0.140625 7.71875 1.703125 
L 7.71875 11.625 
Q 12.109375 9.234375 16.796875 8.0625 
Q 21.484375 6.890625 26.703125 6.890625 
Q 35.15625 6.890625 40.078125 11.328125 
Q 45.015625 15.765625 45.015625 23.390625 
Q 45.015625 31 40.078125 35.4375 
Q 35.15625 39.890625 26.703125 39.890625 
Q 22.75 39.890625 18.8125 39.015625 
Q 14.890625 38.140625 10.796875 36.28125 
z
" id="DejaVuSans-53"/>
      </defs>
      <g transform="translate(606.876179 490.53515)scale(0.2592 -0.2592)">
       <use xlink:href="#DejaVuSans-53"/>
       <use x="63.623047" xlink:href="#DejaVuSans-48"/>
      </g>
     </g>
    </g>
    <g id="text_7">
     <!-- ChainCountU Cutoff -->
     <defs>
      <path d="M 64.40625 67.28125 
L 64.40625 56.890625 
Q 59.421875 61.53125 53.78125 63.8125 
Q 48.140625 66.109375 41.796875 66.109375 
Q 29.296875 66.109375 22.65625 58.46875 
Q 16.015625 50.828125 16.015625 36.375 
Q 16.015625 21.96875 22.65625 14.328125 
Q 29.296875 6.6875 41.796875 6.6875 
Q 48.140625 6.6875 53.78125 8.984375 
Q 59.421875 11.28125 64.40625 15.921875 
L 64.40625 5.609375 
Q 59.234375 2.09375 53.4375 0.328125 
Q 47.65625 -1.421875 41.21875 -1.421875 
Q 24.65625 -1.421875 15.125 8.703125 
Q 5.609375 18.84375 5.609375 36.375 
Q 5.609375 53.953125 15.125 64.078125 
Q 24.65625 74.21875 41.21875 74.21875 
Q 47.75 74.21875 53.53125 72.484375 
Q 59.328125 70.75 64.40625 67.28125 
z
" id="DejaVuSans-67"/>
      <path d="M 54.890625 33.015625 
L 54.890625 0 
L 45.90625 0 
L 45.90625 32.71875 
Q 45.90625 40.484375 42.875 44.328125 
Q 39.84375 48.1875 33.796875 48.1875 
Q 26.515625 48.1875 22.3125 43.546875 
Q 18.109375 38.921875 18.109375 30.90625 
L 18.109375 0 
L 9.078125 0 
L 9.078125 75.984375 
L 18.109375 75.984375 
L 18.109375 46.1875 
Q 21.34375 51.125 25.703125 53.5625 
Q 30.078125 56 35.796875 56 
Q 45.21875 56 50.046875 50.171875 
Q 54.890625 44.34375 54.890625 33.015625 
z
" id="DejaVuSans-104"/>
      <path d="M 34.28125 27.484375 
Q 23.390625 27.484375 19.1875 25 
Q 14.984375 22.515625 14.984375 16.5 
Q 14.984375 11.71875 18.140625 8.90625 
Q 21.296875 6.109375 26.703125 6.109375 
Q 34.1875 6.109375 38.703125 11.40625 
Q 43.21875 16.703125 43.21875 25.484375 
L 43.21875 27.484375 
z
M 52.203125 31.203125 
L 52.203125 0 
L 43.21875 0 
L 43.21875 8.296875 
Q 40.140625 3.328125 35.546875 0.953125 
Q 30.953125 -1.421875 24.3125 -1.421875 
Q 15.921875 -1.421875 10.953125 3.296875 
Q 6 8.015625 6 15.921875 
Q 6 25.140625 12.171875 29.828125 
Q 18.359375 34.515625 30.609375 34.515625 
L 43.21875 34.515625 
L 43.21875 35.40625 
Q 43.21875 41.609375 39.140625 45 
Q 35.0625 48.390625 27.6875 48.390625 
Q 23 48.390625 18.546875 47.265625 
Q 14.109375 46.140625 10.015625 43.890625 
L 10.015625 52.203125 
Q 14.9375 54.109375 19.578125 55.046875 
Q 24.21875 56 28.609375 56 
Q 40.484375 56 46.34375 49.84375 
Q 52.203125 43.703125 52.203125 31.203125 
z
" id="DejaVuSans-97"/>
      <path d="M 9.421875 54.6875 
L 18.40625 54.6875 
L 18.40625 0 
L 9.421875 0 
z
M 9.421875 75.984375 
L 18.40625 75.984375 
L 18.40625 64.59375 
L 9.421875 64.59375 
z
" id="DejaVuSans-105"/>
      <path d="M 54.890625 33.015625 
L 54.890625 0 
L 45.90625 0 
L 45.90625 32.71875 
Q 45.90625 40.484375 42.875 44.328125 
Q 39.84375 48.1875 33.796875 48.1875 
Q 26.515625 48.1875 22.3125 43.546875 
Q 18.109375 38.921875 18.109375 30.90625 
L 18.109375 0 
L 9.078125 0 
L 9.078125 54.6875 
L 18.109375 54.6875 
L 18.109375 46.1875 
Q 21.34375 51.125 25.703125 53.5625 
Q 30.078125 56 35.796875 56 
Q 45.21875 56 50.046875 50.171875 
Q 54.890625 44.34375 54.890625 33.015625 
z
" id="DejaVuSans-110"/>
      <path d="M 30.609375 48.390625 
Q 23.390625 48.390625 19.1875 42.75 
Q 14.984375 37.109375 14.984375 27.296875 
Q 14.984375 17.484375 19.15625 11.84375 
Q 23.34375 6.203125 30.609375 6.203125 
Q 37.796875 6.203125 41.984375 11.859375 
Q 46.1875 17.53125 46.1875 27.296875 
Q 46.1875 37.015625 41.984375 42.703125 
Q 37.796875 48.390625 30.609375 48.390625 
z
M 30.609375 56 
Q 42.328125 56 49.015625 48.375 
Q 55.71875 40.765625 55.71875 27.296875 
Q 55.71875 13.875 49.015625 6.21875 
Q 42.328125 -1.421875 30.609375 -1.421875 
Q 18.84375 -1.421875 12.171875 6.21875 
Q 5.515625 13.875 5.515625 27.296875 
Q 5.515625 40.765625 12.171875 48.375 
Q 18.84375 56 30.609375 56 
z
" id="DejaVuSans-111"/>
      <path d="M 8.5 21.578125 
L 8.5 54.6875 
L 17.484375 54.6875 
L 17.484375 21.921875 
Q 17.484375 14.15625 20.5 10.265625 
Q 23.53125 6.390625 29.59375 6.390625 
Q 36.859375 6.390625 41.078125 11.03125 
Q 45.3125 15.671875 45.3125 23.6875 
L 45.3125 54.6875 
L 54.296875 54.6875 
L 54.296875 0 
L 45.3125 0 
L 45.3125 8.40625 
Q 42.046875 3.421875 37.71875 1 
Q 33.40625 -1.421875 27.6875 -1.421875 
Q 18.265625 -1.421875 13.375 4.4375 
Q 8.5 10.296875 8.5 21.578125 
z
M 31.109375 56 
z
" id="DejaVuSans-117"/>
      <path d="M 18.3125 70.21875 
L 18.3125 54.6875 
L 36.8125 54.6875 
L 36.8125 47.703125 
L 18.3125 47.703125 
L 18.3125 18.015625 
Q 18.3125 11.328125 20.140625 9.421875 
Q 21.96875 7.515625 27.59375 7.515625 
L 36.8125 7.515625 
L 36.8125 0 
L 27.59375 0 
Q 17.1875 0 13.234375 3.875 
Q 9.28125 7.765625 9.28125 18.015625 
L 9.28125 47.703125 
L 2.6875 47.703125 
L 2.6875 54.6875 
L 9.28125 54.6875 
L 9.28125 70.21875 
z
" id="DejaVuSans-116"/>
      <path d="M 8.6875 72.90625 
L 18.609375 72.90625 
L 18.609375 28.609375 
Q 18.609375 16.890625 22.84375 11.734375 
Q 27.09375 6.59375 36.625 6.59375 
Q 46.09375 6.59375 50.34375 11.734375 
Q 54.59375 16.890625 54.59375 28.609375 
L 54.59375 72.90625 
L 64.5 72.90625 
L 64.5 27.390625 
Q 64.5 13.140625 57.4375 5.859375 
Q 50.390625 -1.421875 36.625 -1.421875 
Q 22.796875 -1.421875 15.734375 5.859375 
Q 8.6875 13.140625 8.6875 27.390625 
z
" id="DejaVuSans-85"/>
      <path id="DejaVuSans-32"/>
      <path d="M 37.109375 75.984375 
L 37.109375 68.5 
L 28.515625 68.5 
Q 23.6875 68.5 21.796875 66.546875 
Q 19.921875 64.59375 19.921875 59.515625 
L 19.921875 54.6875 
L 34.71875 54.6875 
L 34.71875 47.703125 
L 19.921875 47.703125 
L 19.921875 0 
L 10.890625 0 
L 10.890625 47.703125 
L 2.296875 47.703125 
L 2.296875 54.6875 
L 10.890625 54.6875 
L 10.890625 58.5 
Q 10.890625 67.625 15.140625 71.796875 
Q 19.390625 75.984375 28.609375 75.984375 
z
" id="DejaVuSans-102"/>
     </defs>
     <g transform="translate(242.298407 519.62085)scale(0.2592 -0.2592)">
      <use xlink:href="#DejaVuSans-67"/>
      <use x="69.824219" xlink:href="#DejaVuSans-104"/>
      <use x="133.203125" xlink:href="#DejaVuSans-97"/>
      <use x="194.482422" xlink:href="#DejaVuSans-105"/>
      <use x="222.265625" xlink:href="#DejaVuSans-110"/>
      <use x="285.644531" xlink:href="#DejaVuSans-67"/>
      <use x="355.46875" xlink:href="#DejaVuSans-111"/>
      <use x="416.650391" xlink:href="#DejaVuSans-117"/>
      <use x="480.029297" xlink:href="#DejaVuSans-110"/>
      <use x="543.408203" xlink:href="#DejaVuSans-116"/>
      <use x="582.617188" xlink:href="#DejaVuSans-85"/>
      <use x="655.810547" xlink:href="#DejaVuSans-32"/>
      <use x="687.597656" xlink:href="#DejaVuSans-67"/>
      <use x="757.421875" xlink:href="#DejaVuSans-117"/>
      <use x="820.800781" xlink:href="#DejaVuSans-116"/>
      <use x="860.009766" xlink:href="#DejaVuSans-111"/>
      <use x="921.191406" xlink:href="#DejaVuSans-102"/>
      <use x="956.396484" xlink:href="#DejaVuSans-102"/>
     </g>
    </g>
   </g>
   <g id="matplotlib.axis_2">
    <g id="ytick_1">
     <g id="line2d_7">
      <defs>
       <path d="M 0 0 
L -3.5 0 
" id="m3b7201b5bc" style="stroke:#000000;stroke-width:0.8;"/>
      </defs>
      <g>
       <use style="stroke:#000000;stroke-width:0.8;" x="92.99" xlink:href="#m3b7201b5bc" y="463.84"/>
      </g>
     </g>
     <g id="text_8">
      <!-- 0.0 -->
      <defs>
       <path d="M 10.6875 12.40625 
L 21 12.40625 
L 21 0 
L 10.6875 0 
z
" id="DejaVuSans-46"/>
      </defs>
      <g transform="translate(44.7691 473.687575)scale(0.2592 -0.2592)">
       <use xlink:href="#DejaVuSans-48"/>
       <use x="63.623047" xlink:href="#DejaVuSans-46"/>
       <use x="95.410156" xlink:href="#DejaVuSans-48"/>
      </g>
     </g>
    </g>
    <g id="ytick_2">
     <g id="line2d_8">
      <g>
       <use style="stroke:#000000;stroke-width:0.8;" x="92.99" xlink:href="#m3b7201b5bc" y="379.4"/>
      </g>
     </g>
     <g id="text_9">
      <!-- 0.2 -->
      <g transform="translate(44.7691 389.247575)scale(0.2592 -0.2592)">
       <use xlink:href="#DejaVuSans-48"/>
       <use x="63.623047" xlink:href="#DejaVuSans-46"/>
       <use x="95.410156" xlink:href="#DejaVuSans-50"/>
      </g>
     </g>
    </g>
    <g id="ytick_3">
     <g id="line2d_9">
      <g>
       <use style="stroke:#000000;stroke-width:0.8;" x="92.99" xlink:href="#m3b7201b5bc" y="294.96"/>
      </g>
     </g>
     <g id="text_10">
      <!-- 0.4 -->
      <g transform="translate(44.7691 304.807575)scale(0.2592 -0.2592)">
       <use xlink:href="#DejaVuSans-48"/>
       <use x="63.623047" xlink:href="#DejaVuSans-46"/>
       <use x="95.410156" xlink:href="#DejaVuSans-52"/>
      </g>
     </g>
    </g>
    <g id="ytick_4">
     <g id="line2d_10">
      <g>
       <use style="stroke:#000000;stroke-width:0.8;" x="92.99" xlink:href="#m3b7201b5bc" y="210.52"/>
      </g>
     </g>
     <g id="text_11">
      <!-- 0.6 -->
      <defs>
       <path d="M 33.015625 40.375 
Q 26.375 40.375 22.484375 35.828125 
Q 18.609375 31.296875 18.609375 23.390625 
Q 18.609375 15.53125 22.484375 10.953125 
Q 26.375 6.390625 33.015625 6.390625 
Q 39.65625 6.390625 43.53125 10.953125 
Q 47.40625 15.53125 47.40625 23.390625 
Q 47.40625 31.296875 43.53125 35.828125 
Q 39.65625 40.375 33.015625 40.375 
z
M 52.59375 71.296875 
L 52.59375 62.3125 
Q 48.875 64.0625 45.09375 64.984375 
Q 41.3125 65.921875 37.59375 65.921875 
Q 27.828125 65.921875 22.671875 59.328125 
Q 17.53125 52.734375 16.796875 39.40625 
Q 19.671875 43.65625 24.015625 45.921875 
Q 28.375 48.1875 33.59375 48.1875 
Q 44.578125 48.1875 50.953125 41.515625 
Q 57.328125 34.859375 57.328125 23.390625 
Q 57.328125 12.15625 50.6875 5.359375 
Q 44.046875 -1.421875 33.015625 -1.421875 
Q 20.359375 -1.421875 13.671875 8.265625 
Q 6.984375 17.96875 6.984375 36.375 
Q 6.984375 53.65625 15.1875 63.9375 
Q 23.390625 74.21875 37.203125 74.21875 
Q 40.921875 74.21875 44.703125 73.484375 
Q 48.484375 72.75 52.59375 71.296875 
z
" id="DejaVuSans-54"/>
      </defs>
      <g transform="translate(44.7691 220.367575)scale(0.2592 -0.2592)">
       <use xlink:href="#DejaVuSans-48"/>
       <use x="63.623047" xlink:href="#DejaVuSans-46"/>
       <use x="95.410156" xlink:href="#DejaVuSans-54"/>
      </g>
     </g>
    </g>
    <g id="ytick_5">
     <g id="line2d_11">
      <g>
       <use style="stroke:#000000;stroke-width:0.8;" x="92.99" xlink:href="#m3b7201b5bc" y="126.08"/>
      </g>
     </g>
     <g id="text_12">
      <!-- 0.8 -->
      <defs>
       <path d="M 31.78125 34.625 
Q 24.75 34.625 20.71875 30.859375 
Q 16.703125 27.09375 16.703125 20.515625 
Q 16.703125 13.921875 20.71875 10.15625 
Q 24.75 6.390625 31.78125 6.390625 
Q 38.8125 6.390625 42.859375 10.171875 
Q 46.921875 13.96875 46.921875 20.515625 
Q 46.921875 27.09375 42.890625 30.859375 
Q 38.875 34.625 31.78125 34.625 
z
M 21.921875 38.8125 
Q 15.578125 40.375 12.03125 44.71875 
Q 8.5 49.078125 8.5 55.328125 
Q 8.5 64.0625 14.71875 69.140625 
Q 20.953125 74.21875 31.78125 74.21875 
Q 42.671875 74.21875 48.875 69.140625 
Q 55.078125 64.0625 55.078125 55.328125 
Q 55.078125 49.078125 51.53125 44.71875 
Q 48 40.375 41.703125 38.8125 
Q 48.828125 37.15625 52.796875 32.3125 
Q 56.78125 27.484375 56.78125 20.515625 
Q 56.78125 9.90625 50.3125 4.234375 
Q 43.84375 -1.421875 31.78125 -1.421875 
Q 19.734375 -1.421875 13.25 4.234375 
Q 6.78125 9.90625 6.78125 20.515625 
Q 6.78125 27.484375 10.78125 32.3125 
Q 14.796875 37.15625 21.921875 38.8125 
z
M 18.3125 54.390625 
Q 18.3125 48.734375 21.84375 45.5625 
Q 25.390625 42.390625 31.78125 42.390625 
Q 38.140625 42.390625 41.71875 45.5625 
Q 45.3125 48.734375 45.3125 54.390625 
Q 45.3125 60.0625 41.71875 63.234375 
Q 38.140625 66.40625 31.78125 66.40625 
Q 25.390625 66.40625 21.84375 63.234375 
Q 18.3125 60.0625 18.3125 54.390625 
z
" id="DejaVuSans-56"/>
      </defs>
      <g transform="translate(44.7691 135.927575)scale(0.2592 -0.2592)">
       <use xlink:href="#DejaVuSans-48"/>
       <use x="63.623047" xlink:href="#DejaVuSans-46"/>
       <use x="95.410156" xlink:href="#DejaVuSans-56"/>
      </g>
     </g>
    </g>
    <g id="ytick_6">
     <g id="line2d_12">
      <g>
       <use style="stroke:#000000;stroke-width:0.8;" x="92.99" xlink:href="#m3b7201b5bc" y="41.64"/>
      </g>
     </g>
     <g id="text_13">
      <!-- 1.0 -->
      <g transform="translate(44.7691 51.487575)scale(0.2592 -0.2592)">
       <use xlink:href="#DejaVuSans-49"/>
       <use x="63.623047" xlink:href="#DejaVuSans-46"/>
       <use x="95.410156" xlink:href="#DejaVuSans-48"/>
      </g>
     </g>
    </g>
    <g id="text_14">
     <!-- Fraction -->
     <defs>
      <path d="M 9.8125 72.90625 
L 51.703125 72.90625 
L 51.703125 64.59375 
L 19.671875 64.59375 
L 19.671875 43.109375 
L 48.578125 43.109375 
L 48.578125 34.8125 
L 19.671875 34.8125 
L 19.671875 0 
L 9.8125 0 
z
" id="DejaVuSans-70"/>
      <path d="M 41.109375 46.296875 
Q 39.59375 47.171875 37.8125 47.578125 
Q 36.03125 48 33.890625 48 
Q 26.265625 48 22.1875 43.046875 
Q 18.109375 38.09375 18.109375 28.8125 
L 18.109375 0 
L 9.078125 0 
L 9.078125 54.6875 
L 18.109375 54.6875 
L 18.109375 46.1875 
Q 20.953125 51.171875 25.484375 53.578125 
Q 30.03125 56 36.53125 56 
Q 37.453125 56 38.578125 55.875 
Q 39.703125 55.765625 41.0625 55.515625 
z
" id="DejaVuSans-114"/>
      <path d="M 48.78125 52.59375 
L 48.78125 44.1875 
Q 44.96875 46.296875 41.140625 47.34375 
Q 37.3125 48.390625 33.40625 48.390625 
Q 24.65625 48.390625 19.8125 42.84375 
Q 14.984375 37.3125 14.984375 27.296875 
Q 14.984375 17.28125 19.8125 11.734375 
Q 24.65625 6.203125 33.40625 6.203125 
Q 37.3125 6.203125 41.140625 7.25 
Q 44.96875 8.296875 48.78125 10.40625 
L 48.78125 2.09375 
Q 45.015625 0.34375 40.984375 -0.53125 
Q 36.96875 -1.421875 32.421875 -1.421875 
Q 20.0625 -1.421875 12.78125 6.34375 
Q 5.515625 14.109375 5.515625 27.296875 
Q 5.515625 40.671875 12.859375 48.328125 
Q 20.21875 56 33.015625 56 
Q 37.15625 56 41.109375 55.140625 
Q 45.0625 54.296875 48.78125 52.59375 
z
" id="DejaVuSans-99"/>
     </defs>
     <g transform="translate(35.37855 305.400125)rotate(-90)scale(0.2592 -0.2592)">
      <use xlink:href="#DejaVuSans-70"/>
      <use x="57.410156" xlink:href="#DejaVuSans-114"/>
      <use x="98.523438" xlink:href="#DejaVuSans-97"/>
      <use x="159.802734" xlink:href="#DejaVuSans-99"/>
      <use x="214.783203" xlink:href="#DejaVuSans-116"/>
      <use x="253.992188" xlink:href="#DejaVuSans-105"/>
      <use x="281.775391" xlink:href="#DejaVuSans-111"/>
      <use x="342.957031" xlink:href="#DejaVuSans-110"/>
     </g>
    </g>
   </g>
   <g id="line2d_13">
    <path clip-path="url(#p5004baa51e)" d="M 118.246085 463.84 
L 118.751712 340.026222 
L 128.358631 340.026222 
L 128.864258 229.92974 
L 138.471178 229.92974 
L 138.976805 158.556204 
L 149.089351 158.556204 
L 149.594979 116.547958 
L 159.201898 116.547958 
L 159.707525 91.822571 
L 169.314444 91.822571 
L 169.820072 77.264487 
L 179.932618 77.264487 
L 180.438245 66.832492 
L 190.045164 66.832492 
L 190.550792 60.028339 
L 200.663338 60.028339 
L 201.168965 54.890192 
L 210.775885 54.890192 
L 211.281512 51.262348 
L 220.888431 51.262348 
L 221.394058 48.615424 
L 231.506605 48.615424 
L 232.012232 46.824858 
L 241.619151 46.824858 
L 242.124778 45.454685 
L 252.237325 45.454685 
L 252.742952 44.567187 
L 262.349871 44.567187 
L 262.855499 43.78868 
L 272.462418 43.78868 
L 272.968045 43.321575 
L 283.080592 43.321575 
L 283.586219 42.74548 
L 293.193138 42.74548 
L 293.698765 42.511928 
L 303.305684 42.511928 
L 303.811312 42.309516 
L 324.036405 42.216095 
L 324.542032 42.060394 
L 344.767125 41.982543 
L 346.284007 41.935833 
L 375.610391 41.842412 
L 377.127273 41.795701 
L 447.915098 41.702281 
L 449.937608 41.67114 
L 623.367779 41.64 
L 623.367779 41.64 
" style="fill:none;stroke:#0000ff;stroke-linecap:square;stroke-width:1.5;"/>
   </g>
   <g id="line2d_14">
    <path clip-path="url(#p5004baa51e)" d="M 118.751712 79.529744 
L 128.358631 79.529744 
L 128.864258 94.970526 
L 138.471178 94.970526 
L 138.976805 103.422227 
L 149.089351 103.422227 
L 149.594979 108.407994 
L 159.201898 108.407994 
L 159.707525 113.246576 
L 169.314444 113.246576 
L 169.820072 118.137817 
L 179.932618 118.137817 
L 180.438245 122.573378 
L 190.045164 122.573378 
L 190.550792 126.737697 
L 200.663338 126.737697 
L 201.168965 129.831476 
L 210.775885 129.831476 
L 211.281512 133.104601 
L 220.888431 133.104601 
L 221.394058 135.333564 
L 231.506605 135.333564 
L 232.012232 137.544152 
L 241.619151 137.544152 
L 242.124778 139.225957 
L 252.237325 139.225957 
L 252.742952 140.847824 
L 262.349871 140.847824 
L 262.855499 142.085435 
L 272.462418 142.085435 
L 272.968045 143.303158 
L 283.080592 143.303158 
L 283.586219 144.265441 
L 293.193138 144.265441 
L 293.698765 145.131824 
L 303.305684 145.131824 
L 303.811312 145.777262 
L 313.923858 145.777262 
L 314.429485 146.369329 
L 324.036405 146.369329 
L 324.542032 146.903354 
L 334.654578 146.903354 
L 335.160206 147.336021 
L 344.767125 147.336021 
L 345.272752 147.712077 
L 354.879671 147.712077 
L 355.385299 147.909851 
L 365.497845 147.909851 
L 366.003472 148.31343 
L 375.610391 148.31343 
L 376.116019 148.660898 
L 386.228565 148.660898 
L 386.734192 148.877568 
L 396.341112 148.877568 
L 396.846739 149.096848 
L 406.453658 149.096848 
L 406.959285 149.266888 
L 417.071832 149.266888 
L 417.577459 149.396509 
L 427.184378 149.396509 
L 427.690005 149.560543 
L 437.802552 149.560543 
L 438.308179 149.6813 
L 447.915098 149.6813 
L 448.420726 149.79603 
L 468.645819 149.899379 
L 469.657073 149.965271 
L 488.870911 150.042703 
L 489.882166 150.145886 
L 520.219805 150.223229 
L 521.23106 150.283358 
L 540.444898 150.343464 
L 541.96178 150.394965 
L 623.367779 150.486361 
L 623.367779 150.486361 
" style="fill:none;stroke:#ff0000;stroke-linecap:square;stroke-width:1.5;"/>
   </g>
   <g id="line2d_15">
    <path clip-path="url(#p5004baa51e)" d="M 118.751712 351.137715 
L 128.358631 351.137715 
L 128.864258 259.476299 
L 138.471178 259.476299 
L 138.976805 203.229613 
L 149.089351 203.229613 
L 149.594979 171.46978 
L 159.201898 171.46978 
L 159.707525 154.91801 
L 169.314444 154.91801 
L 169.820072 147.307554 
L 179.932618 147.307554 
L 180.438245 142.93661 
L 190.045164 142.93661 
L 190.550792 141.419723 
L 200.663338 141.419723 
L 201.168965 140.313894 
L 210.775885 140.313894 
L 211.281512 140.642382 
L 220.888431 140.642382 
L 221.394058 140.761019 
L 231.506605 140.761019 
L 232.012232 141.551252 
L 241.619151 141.551252 
L 242.124778 142.158928 
L 252.237325 142.158928 
L 252.742952 143.087186 
L 262.349871 143.087186 
L 262.855499 143.722923 
L 272.462418 143.722923 
L 272.968045 144.579821 
L 283.080592 144.579821 
L 283.586219 145.102209 
L 293.193138 145.102209 
L 293.698765 145.79002 
L 303.305684 145.79002 
L 303.811312 146.28164 
L 313.923858 146.28164 
L 314.429485 146.80252 
L 324.036405 146.80252 
L 324.542032 147.218935 
L 334.654578 147.218935 
L 335.160206 147.59281 
L 344.767125 147.59281 
L 345.272752 147.933586 
L 354.879671 147.933586 
L 355.385299 148.084617 
L 365.497845 148.084617 
L 366.003472 148.4647 
L 375.610391 148.4647 
L 376.116019 148.777131 
L 386.228565 148.777131 
L 386.734192 148.958876 
L 396.341112 148.958876 
L 396.846739 149.154885 
L 406.453658 149.154885 
L 406.959285 149.313292 
L 417.071832 149.313292 
L 417.577459 149.442894 
L 427.184378 149.442894 
L 427.690005 149.606903 
L 437.802552 149.606903 
L 438.308179 149.727643 
L 458.027645 149.819193 
L 459.038899 149.922534 
L 478.758365 149.976846 
L 479.76962 150.054275 
L 499.489085 150.157454 
L 501.005967 150.209019 
L 530.332352 150.294922 
L 531.343606 150.355025 
L 571.793792 150.449428 
L 575.333183 150.466586 
L 623.367779 150.486361 
L 623.367779 150.486361 
" style="fill:none;stroke:#008000;stroke-linecap:square;stroke-width:1.5;"/>
   </g>
   <g id="line2d_16">
    <path clip-path="url(#p5004baa51e)" d="M 201.168965 463.84 
L 201.168965 41.64 
" style="fill:none;stroke:#1f77b4;stroke-linecap:square;stroke-width:1.5;"/>
   </g>
   <g id="patch_3">
    <path d="M 92.99 463.84 
L 92.99 41.64 
" style="fill:none;stroke:#000000;stroke-linecap:square;stroke-linejoin:miter;stroke-width:0.8;"/>
   </g>
   <g id="patch_4">
    <path d="M 648.623864 463.84 
L 648.623864 41.64 
" style="fill:none;stroke:#000000;stroke-linecap:square;stroke-linejoin:miter;stroke-width:0.8;"/>
   </g>
   <g id="patch_5">
    <path d="M 92.99 463.84 
L 648.623864 463.84 
" style="fill:none;stroke:#000000;stroke-linecap:square;stroke-linejoin:miter;stroke-width:0.8;"/>
   </g>
   <g id="patch_6">
    <path d="M 92.99 41.64 
L 648.623864 41.64 
" style="fill:none;stroke:#000000;stroke-linecap:square;stroke-linejoin:miter;stroke-width:0.8;"/>
   </g>
   <g id="text_15">
    <!-- Purity/Efficiency vs ChainCountU Cutoff — track -->
    <defs>
     <path d="M 19.671875 64.796875 
L 19.671875 37.40625 
L 32.078125 37.40625 
Q 38.96875 37.40625 42.71875 40.96875 
Q 46.484375 44.53125 46.484375 51.125 
Q 46.484375 57.671875 42.71875 61.234375 
Q 38.96875 64.796875 32.078125 64.796875 
z
M 9.8125 72.90625 
L 32.078125 72.90625 
Q 44.34375 72.90625 50.609375 67.359375 
Q 56.890625 61.8125 56.890625 51.125 
Q 56.890625 40.328125 50.609375 34.8125 
Q 44.34375 29.296875 32.078125 29.296875 
L 19.671875 29.296875 
L 19.671875 0 
L 9.8125 0 
z
" id="DejaVuSans-80"/>
     <path d="M 32.171875 -5.078125 
Q 28.375 -14.84375 24.75 -17.8125 
Q 21.140625 -20.796875 15.09375 -20.796875 
L 7.90625 -20.796875 
L 7.90625 -13.28125 
L 13.1875 -13.28125 
Q 16.890625 -13.28125 18.9375 -11.515625 
Q 21 -9.765625 23.484375 -3.21875 
L 25.09375 0.875 
L 2.984375 54.6875 
L 12.5 54.6875 
L 29.59375 11.921875 
L 46.6875 54.6875 
L 56.203125 54.6875 
z
" id="DejaVuSans-121"/>
     <path d="M 25.390625 72.90625 
L 33.6875 72.90625 
L 8.296875 -9.28125 
L 0 -9.28125 
z
" id="DejaVuSans-47"/>
     <path d="M 9.8125 72.90625 
L 55.90625 72.90625 
L 55.90625 64.59375 
L 19.671875 64.59375 
L 19.671875 43.015625 
L 54.390625 43.015625 
L 54.390625 34.71875 
L 19.671875 34.71875 
L 19.671875 8.296875 
L 56.78125 8.296875 
L 56.78125 0 
L 9.8125 0 
z
" id="DejaVuSans-69"/>
     <path d="M 56.203125 29.59375 
L 56.203125 25.203125 
L 14.890625 25.203125 
Q 15.484375 15.921875 20.484375 11.0625 
Q 25.484375 6.203125 34.421875 6.203125 
Q 39.59375 6.203125 44.453125 7.46875 
Q 49.3125 8.734375 54.109375 11.28125 
L 54.109375 2.78125 
Q 49.265625 0.734375 44.1875 -0.34375 
Q 39.109375 -1.421875 33.890625 -1.421875 
Q 20.796875 -1.421875 13.15625 6.1875 
Q 5.515625 13.8125 5.515625 26.8125 
Q 5.515625 40.234375 12.765625 48.109375 
Q 20.015625 56 32.328125 56 
Q 43.359375 56 49.78125 48.890625 
Q 56.203125 41.796875 56.203125 29.59375 
z
M 47.21875 32.234375 
Q 47.125 39.59375 43.09375 43.984375 
Q 39.0625 48.390625 32.421875 48.390625 
Q 24.90625 48.390625 20.390625 44.140625 
Q 15.875 39.890625 15.1875 32.171875 
z
" id="DejaVuSans-101"/>
     <path d="M 2.984375 54.6875 
L 12.5 54.6875 
L 29.59375 8.796875 
L 46.6875 54.6875 
L 56.203125 54.6875 
L 35.6875 0 
L 23.484375 0 
z
" id="DejaVuSans-118"/>
     <path d="M 44.28125 53.078125 
L 44.28125 44.578125 
Q 40.484375 46.53125 36.375 47.5 
Q 32.28125 48.484375 27.875 48.484375 
Q 21.1875 48.484375 17.84375 46.4375 
Q 14.5 44.390625 14.5 40.28125 
Q 14.5 37.15625 16.890625 35.375 
Q 19.28125 33.59375 26.515625 31.984375 
L 29.59375 31.296875 
Q 39.15625 29.25 43.1875 25.515625 
Q 47.21875 21.78125 47.21875 15.09375 
Q 47.21875 7.46875 41.1875 3.015625 
Q 35.15625 -1.421875 24.609375 -1.421875 
Q 20.21875 -1.421875 15.453125 -0.5625 
Q 10.6875 0.296875 5.421875 2 
L 5.421875 11.28125 
Q 10.40625 8.6875 15.234375 7.390625 
Q 20.0625 6.109375 24.8125 6.109375 
Q 31.15625 6.109375 34.5625 8.28125 
Q 37.984375 10.453125 37.984375 14.40625 
Q 37.984375 18.0625 35.515625 20.015625 
Q 33.0625 21.96875 24.703125 23.78125 
L 21.578125 24.515625 
Q 13.234375 26.265625 9.515625 29.90625 
Q 5.8125 33.546875 5.8125 39.890625 
Q 5.8125 47.609375 11.28125 51.796875 
Q 16.75 56 26.8125 56 
Q 31.78125 56 36.171875 55.265625 
Q 40.578125 54.546875 44.28125 53.078125 
z
" id="DejaVuSans-115"/>
     <path d="M 4.890625 30.90625 
L 95.125 30.90625 
L 95.125 23.875 
L 4.890625 23.875 
z
" id="DejaVuSans-8212"/>
     <path d="M 9.078125 75.984375 
L 18.109375 75.984375 
L 18.109375 31.109375 
L 44.921875 54.6875 
L 56.390625 54.6875 
L 27.390625 29.109375 
L 57.625 0 
L 45.90625 0 
L 18.109375 26.703125 
L 18.109375 0 
L 9.078125 0 
z
" id="DejaVuSans-107"/>
    </defs>
    <g transform="translate(60.763232 35.64)scale(0.2592 -0.2592)">
     <use xlink:href="#DejaVuSans-80"/>
     <use x="60.287109" xlink:href="#DejaVuSans-117"/>
     <use x="123.666016" xlink:href="#DejaVuSans-114"/>
     <use x="164.779297" xlink:href="#DejaVuSans-105"/>
     <use x="192.5625" xlink:href="#DejaVuSans-116"/>
     <use x="231.771484" xlink:href="#DejaVuSans-121"/>
     <use x="290.951172" xlink:href="#DejaVuSans-47"/>
     <use x="324.642578" xlink:href="#DejaVuSans-69"/>
     <use x="387.826172" xlink:href="#DejaVuSans-102"/>
     <use x="423.03125" xlink:href="#DejaVuSans-102"/>
     <use x="458.236328" xlink:href="#DejaVuSans-105"/>
     <use x="486.019531" xlink:href="#DejaVuSans-99"/>
     <use x="541" xlink:href="#DejaVuSans-105"/>
     <use x="568.783203" xlink:href="#DejaVuSans-101"/>
     <use x="630.306641" xlink:href="#DejaVuSans-110"/>
     <use x="693.685547" xlink:href="#DejaVuSans-99"/>
     <use x="748.666016" xlink:href="#DejaVuSans-121"/>
     <use x="807.845703" xlink:href="#DejaVuSans-32"/>
     <use x="839.632812" xlink:href="#DejaVuSans-118"/>
     <use x="898.8125" xlink:href="#DejaVuSans-115"/>
     <use x="950.912109" xlink:href="#DejaVuSans-32"/>
     <use x="982.699219" xlink:href="#DejaVuSans-67"/>
     <use x="1052.523438" xlink:href="#DejaVuSans-104"/>
     <use x="1115.902344" xlink:href="#DejaVuSans-97"/>
     <use x="1177.181641" xlink:href="#DejaVuSans-105"/>
     <use x="1204.964844" xlink:href="#DejaVuSans-110"/>
     <use x="1268.34375" xlink:href="#DejaVuSans-67"/>
     <use x="1338.167969" xlink:href="#DejaVuSans-111"/>
     <use x="1399.349609" xlink:href="#DejaVuSans-117"/>
     <use x="1462.728516" xlink:href="#DejaVuSans-110"/>
     <use x="1526.107422" xlink:href="#DejaVuSans-116"/>
     <use x="1565.316406" xlink:href="#DejaVuSans-85"/>
     <use x="1638.509766" xlink:href="#DejaVuSans-32"/>
     <use x="1670.296875" xlink:href="#DejaVuSans-67"/>
     <use x="1740.121094" xlink:href="#DejaVuSans-117"/>
     <use x="1803.5" xlink:href="#DejaVuSans-116"/>
     <use x="1842.708984" xlink:href="#DejaVuSans-111"/>
     <use x="1903.890625" xlink:href="#DejaVuSans-102"/>
     <use x="1939.095703" xlink:href="#DejaVuSans-102"/>
     <use x="1974.300781" xlink:href="#DejaVuSans-32"/>
     <use x="2006.087891" xlink:href="#DejaVuSans-8212"/>
     <use x="2106.087891" xlink:href="#DejaVuSans-32"/>
     <use x="2137.875" xlink:href="#DejaVuSans-116"/>
     <use x="2177.083984" xlink:href="#DejaVuSans-114"/>
     <use x="2218.197266" xlink:href="#DejaVuSans-97"/>
     <use x="2279.476562" xlink:href="#DejaVuSans-99"/>
     <use x="2334.457031" xlink:href="#DejaVuSans-107"/>
    </g>
   </g>
   <g id="legend_1">
    <g id="patch_7">
     <path d="M 262.112244 454.84 
L 479.501619 454.84 
Q 483.101619 454.84 483.101619 451.24 
L 483.101619 373.778125 
Q 483.101619 370.178125 479.501619 370.178125 
L 262.112244 370.178125 
Q 258.512244 370.178125 258.512244 373.778125 
L 258.512244 451.24 
Q 258.512244 454.84 262.112244 454.84 
z
" style="fill:#ffffff;opacity:0.8;stroke:#cccccc;stroke-linejoin:miter;"/>
    </g>
    <g id="line2d_17">
     <path d="M 265.712244 384.755313 
L 301.712244 384.755313 
" style="fill:none;stroke:#0000ff;stroke-linecap:square;stroke-width:1.5;"/>
    </g>
    <g id="line2d_18"/>
    <g id="text_16">
     <!-- Efficiency -->
     <g transform="translate(316.112244 391.055313)scale(0.18 -0.18)">
      <use xlink:href="#DejaVuSans-69"/>
      <use x="63.183594" xlink:href="#DejaVuSans-102"/>
      <use x="98.388672" xlink:href="#DejaVuSans-102"/>
      <use x="133.59375" xlink:href="#DejaVuSans-105"/>
      <use x="161.376953" xlink:href="#DejaVuSans-99"/>
      <use x="216.357422" xlink:href="#DejaVuSans-105"/>
      <use x="244.140625" xlink:href="#DejaVuSans-101"/>
      <use x="305.664062" xlink:href="#DejaVuSans-110"/>
      <use x="369.042969" xlink:href="#DejaVuSans-99"/>
      <use x="424.023438" xlink:href="#DejaVuSans-121"/>
     </g>
    </g>
    <g id="line2d_19">
     <path d="M 265.712244 411.175937 
L 301.712244 411.175937 
" style="fill:none;stroke:#ff0000;stroke-linecap:square;stroke-width:1.5;"/>
    </g>
    <g id="line2d_20"/>
    <g id="text_17">
     <!-- Purity -->
     <g transform="translate(316.112244 417.475937)scale(0.18 -0.18)">
      <use xlink:href="#DejaVuSans-80"/>
      <use x="60.287109" xlink:href="#DejaVuSans-117"/>
      <use x="123.666016" xlink:href="#DejaVuSans-114"/>
      <use x="164.779297" xlink:href="#DejaVuSans-105"/>
      <use x="192.5625" xlink:href="#DejaVuSans-116"/>
      <use x="231.771484" xlink:href="#DejaVuSans-121"/>
     </g>
    </g>
    <g id="line2d_21">
     <path d="M 265.712244 437.596562 
L 301.712244 437.596562 
" style="fill:none;stroke:#008000;stroke-linecap:square;stroke-width:1.5;"/>
    </g>
    <g id="line2d_22"/>
    <g id="text_18">
     <!-- Purity * Efficiency -->
     <defs>
      <path d="M 47.015625 60.890625 
L 29.5 51.421875 
L 47.015625 41.890625 
L 44.1875 37.109375 
L 27.78125 47.015625 
L 27.78125 28.609375 
L 22.21875 28.609375 
L 22.21875 47.015625 
L 5.8125 37.109375 
L 2.984375 41.890625 
L 20.515625 51.421875 
L 2.984375 60.890625 
L 5.8125 65.71875 
L 22.21875 55.8125 
L 22.21875 74.21875 
L 27.78125 74.21875 
L 27.78125 55.8125 
L 44.1875 65.71875 
z
" id="DejaVuSans-42"/>
     </defs>
     <g transform="translate(316.112244 443.896562)scale(0.18 -0.18)">
      <use xlink:href="#DejaVuSans-80"/>
      <use x="60.287109" xlink:href="#DejaVuSans-117"/>
      <use x="123.666016" xlink:href="#DejaVuSans-114"/>
      <use x="164.779297" xlink:href="#DejaVuSans-105"/>
      <use x="192.5625" xlink:href="#DejaVuSans-116"/>
      <use x="231.771484" xlink:href="#DejaVuSans-121"/>
      <use x="290.951172" xlink:href="#DejaVuSans-32"/>
      <use x="322.738281" xlink:href="#DejaVuSans-42"/>
      <use x="372.738281" xlink:href="#DejaVuSans-32"/>
      <use x="404.525391" xlink:href="#DejaVuSans-69"/>
      <use x="467.708984" xlink:href="#DejaVuSans-102"/>
      <use x="502.914062" xlink:href="#DejaVuSans-102"/>
      <use x="538.119141" xlink:href="#DejaVuSans-105"/>
      <use x="565.902344" xlink:href="#DejaVuSans-99"/>
      <use x="620.882812" xlink:href="#DejaVuSans-105"/>
      <use x="648.666016" xlink:href="#DejaVuSans-101"/>
      <use x="710.189453" xlink:href="#DejaVuSans-110"/>
      <use x="773.568359" xlink:href="#DejaVuSans-99"/>
      <use x="828.548828" xlink:href="#DejaVuSans-121"/>
     </g>
    </g>
   </g>
  </g>
  <g id="axes_2">
   <g id="patch_8">
    <path d="M 797.9825 463.84 
L 1353.616364 463.84 
L 1353.616364 41.64 
L 797.9825 41.64 
z
" style="fill:#ffffff;"/>
   </g>
   <g id="matplotlib.axis_3">
    <g id="xtick_7">
     <g id="line2d_23">
      <g>
       <use style="stroke:#000000;stroke-width:0.8;" x="812.929979" xlink:href="#m449ea1c532" y="463.84"/>
      </g>
     </g>
     <g id="text_19">
      <!-- 0 -->
      <g transform="translate(804.684179 490.53515)scale(0.2592 -0.2592)">
       <use xlink:href="#DejaVuSans-48"/>
      </g>
     </g>
    </g>
    <g id="xtick_8">
     <g id="line2d_24">
      <g>
       <use style="stroke:#000000;stroke-width:0.8;" x="916.016039" xlink:href="#m449ea1c532" y="463.84"/>
      </g>
     </g>
     <g id="text_20">
      <!-- 10 -->
      <g transform="translate(899.524439 490.53515)scale(0.2592 -0.2592)">
       <use xlink:href="#DejaVuSans-49"/>
       <use x="63.623047" xlink:href="#DejaVuSans-48"/>
      </g>
     </g>
    </g>
    <g id="xtick_9">
     <g id="line2d_25">
      <g>
       <use style="stroke:#000000;stroke-width:0.8;" x="1019.102099" xlink:href="#m449ea1c532" y="463.84"/>
      </g>
     </g>
     <g id="text_21">
      <!-- 20 -->
      <g transform="translate(1002.610499 490.53515)scale(0.2592 -0.2592)">
       <use xlink:href="#DejaVuSans-50"/>
       <use x="63.623047" xlink:href="#DejaVuSans-48"/>
      </g>
     </g>
    </g>
    <g id="xtick_10">
     <g id="line2d_26">
      <g>
       <use style="stroke:#000000;stroke-width:0.8;" x="1122.188159" xlink:href="#m449ea1c532" y="463.84"/>
      </g>
     </g>
     <g id="text_22">
      <!-- 30 -->
      <g transform="translate(1105.696559 490.53515)scale(0.2592 -0.2592)">
       <use xlink:href="#DejaVuSans-51"/>
       <use x="63.623047" xlink:href="#DejaVuSans-48"/>
      </g>
     </g>
    </g>
    <g id="xtick_11">
     <g id="line2d_27">
      <g>
       <use style="stroke:#000000;stroke-width:0.8;" x="1225.274219" xlink:href="#m449ea1c532" y="463.84"/>
      </g>
     </g>
     <g id="text_23">
      <!-- 40 -->
      <g transform="translate(1208.782619 490.53515)scale(0.2592 -0.2592)">
       <use xlink:href="#DejaVuSans-52"/>
       <use x="63.623047" xlink:href="#DejaVuSans-48"/>
      </g>
     </g>
    </g>
    <g id="xtick_12">
     <g id="line2d_28">
      <g>
       <use style="stroke:#000000;stroke-width:0.8;" x="1328.360279" xlink:href="#m449ea1c532" y="463.84"/>
      </g>
     </g>
     <g id="text_24">
      <!-- 50 -->
      <g transform="translate(1311.868679 490.53515)scale(0.2592 -0.2592)">
       <use xlink:href="#DejaVuSans-53"/>
       <use x="63.623047" xlink:href="#DejaVuSans-48"/>
      </g>
     </g>
    </g>
    <g id="text_25">
     <!-- ChainCountU Cutoff -->
     <g transform="translate(947.290907 519.62085)scale(0.2592 -0.2592)">
      <use xlink:href="#DejaVuSans-67"/>
      <use x="69.824219" xlink:href="#DejaVuSans-104"/>
      <use x="133.203125" xlink:href="#DejaVuSans-97"/>
      <use x="194.482422" xlink:href="#DejaVuSans-105"/>
      <use x="222.265625" xlink:href="#DejaVuSans-110"/>
      <use x="285.644531" xlink:href="#DejaVuSans-67"/>
      <use x="355.46875" xlink:href="#DejaVuSans-111"/>
      <use x="416.650391" xlink:href="#DejaVuSans-117"/>
      <use x="480.029297" xlink:href="#DejaVuSans-110"/>
      <use x="543.408203" xlink:href="#DejaVuSans-116"/>
      <use x="582.617188" xlink:href="#DejaVuSans-85"/>
      <use x="655.810547" xlink:href="#DejaVuSans-32"/>
      <use x="687.597656" xlink:href="#DejaVuSans-67"/>
      <use x="757.421875" xlink:href="#DejaVuSans-117"/>
      <use x="820.800781" xlink:href="#DejaVuSans-116"/>
      <use x="860.009766" xlink:href="#DejaVuSans-111"/>
      <use x="921.191406" xlink:href="#DejaVuSans-102"/>
      <use x="956.396484" xlink:href="#DejaVuSans-102"/>
     </g>
    </g>
   </g>
   <g id="matplotlib.axis_4">
    <g id="ytick_7">
     <g id="line2d_29">
      <g>
       <use style="stroke:#000000;stroke-width:0.8;" x="797.9825" xlink:href="#m3b7201b5bc" y="463.84"/>
      </g>
     </g>
     <g id="text_26">
      <!-- 0.0 -->
      <g transform="translate(749.7616 473.687575)scale(0.2592 -0.2592)">
       <use xlink:href="#DejaVuSans-48"/>
       <use x="63.623047" xlink:href="#DejaVuSans-46"/>
       <use x="95.410156" xlink:href="#DejaVuSans-48"/>
      </g>
     </g>
    </g>
    <g id="ytick_8">
     <g id="line2d_30">
      <g>
       <use style="stroke:#000000;stroke-width:0.8;" x="797.9825" xlink:href="#m3b7201b5bc" y="379.4"/>
      </g>
     </g>
     <g id="text_27">
      <!-- 0.2 -->
      <g transform="translate(749.7616 389.247575)scale(0.2592 -0.2592)">
       <use xlink:href="#DejaVuSans-48"/>
       <use x="63.623047" xlink:href="#DejaVuSans-46"/>
       <use x="95.410156" xlink:href="#DejaVuSans-50"/>
      </g>
     </g>
    </g>
    <g id="ytick_9">
     <g id="line2d_31">
      <g>
       <use style="stroke:#000000;stroke-width:0.8;" x="797.9825" xlink:href="#m3b7201b5bc" y="294.96"/>
      </g>
     </g>
     <g id="text_28">
      <!-- 0.4 -->
      <g transform="translate(749.7616 304.807575)scale(0.2592 -0.2592)">
       <use xlink:href="#DejaVuSans-48"/>
       <use x="63.623047" xlink:href="#DejaVuSans-46"/>
       <use x="95.410156" xlink:href="#DejaVuSans-52"/>
      </g>
     </g>
    </g>
    <g id="ytick_10">
     <g id="line2d_32">
      <g>
       <use style="stroke:#000000;stroke-width:0.8;" x="797.9825" xlink:href="#m3b7201b5bc" y="210.52"/>
      </g>
     </g>
     <g id="text_29">
      <!-- 0.6 -->
      <g transform="translate(749.7616 220.367575)scale(0.2592 -0.2592)">
       <use xlink:href="#DejaVuSans-48"/>
       <use x="63.623047" xlink:href="#DejaVuSans-46"/>
       <use x="95.410156" xlink:href="#DejaVuSans-54"/>
      </g>
     </g>
    </g>
    <g id="ytick_11">
     <g id="line2d_33">
      <g>
       <use style="stroke:#000000;stroke-width:0.8;" x="797.9825" xlink:href="#m3b7201b5bc" y="126.08"/>
      </g>
     </g>
     <g id="text_30">
      <!-- 0.8 -->
      <g transform="translate(749.7616 135.927575)scale(0.2592 -0.2592)">
       <use xlink:href="#DejaVuSans-48"/>
       <use x="63.623047" xlink:href="#DejaVuSans-46"/>
       <use x="95.410156" xlink:href="#DejaVuSans-56"/>
      </g>
     </g>
    </g>
    <g id="ytick_12">
     <g id="line2d_34">
      <g>
       <use style="stroke:#000000;stroke-width:0.8;" x="797.9825" xlink:href="#m3b7201b5bc" y="41.64"/>
      </g>
     </g>
     <g id="text_31">
      <!-- 1.0 -->
      <g transform="translate(749.7616 51.487575)scale(0.2592 -0.2592)">
       <use xlink:href="#DejaVuSans-49"/>
       <use x="63.623047" xlink:href="#DejaVuSans-46"/>
       <use x="95.410156" xlink:href="#DejaVuSans-48"/>
      </g>
     </g>
    </g>
    <g id="text_32">
     <!-- Fraction -->
     <g transform="translate(740.37105 305.400125)rotate(-90)scale(0.2592 -0.2592)">
      <use xlink:href="#DejaVuSans-70"/>
      <use x="57.410156" xlink:href="#DejaVuSans-114"/>
      <use x="98.523438" xlink:href="#DejaVuSans-97"/>
      <use x="159.802734" xlink:href="#DejaVuSans-99"/>
      <use x="214.783203" xlink:href="#DejaVuSans-116"/>
      <use x="253.992188" xlink:href="#DejaVuSans-105"/>
      <use x="281.775391" xlink:href="#DejaVuSans-111"/>
      <use x="342.957031" xlink:href="#DejaVuSans-110"/>
     </g>
    </g>
   </g>
   <g id="line2d_35">
    <path clip-path="url(#paeacb11bf4)" d="M 823.238585 41.64 
L 823.744212 76.726368 
L 833.351131 76.726368 
L 833.856758 138.843562 
L 843.463678 138.843562 
L 843.969305 192.054904 
L 854.081851 192.054904 
L 854.587479 229.155158 
L 864.194398 229.155158 
L 864.700025 260.034742 
L 874.306944 260.034742 
L 874.812572 287.513097 
L 884.925118 287.513097 
L 885.430745 312.261518 
L 895.037664 312.261518 
L 895.543292 334.638028 
L 905.655838 334.638028 
L 906.161465 352.002201 
L 915.768385 352.002201 
L 916.274012 369.590138 
L 925.880931 369.590138 
L 926.386558 382.031478 
L 936.499105 382.031478 
L 937.004732 393.935781 
L 946.611651 393.935781 
L 947.117278 403.154904 
L 957.229825 403.154904 
L 957.735452 411.792237 
L 967.342371 411.792237 
L 967.847999 418.549943 
L 977.454918 418.549943 
L 977.960545 424.994378 
L 988.073092 424.994378 
L 988.578719 430.319987 
L 998.185638 430.319987 
L 998.691265 434.884795 
L 1008.298184 434.884795 
L 1008.803812 438.330778 
L 1018.916358 438.330778 
L 1019.421985 441.418736 
L 1029.028905 441.418736 
L 1029.534532 444.28293 
L 1039.647078 444.28293 
L 1040.152706 446.565334 
L 1049.759625 446.565334 
L 1050.265252 448.534467 
L 1059.872171 448.534467 
L 1060.377799 449.608539 
L 1070.490345 449.608539 
L 1070.995972 451.711931 
L 1080.602891 451.711931 
L 1081.108519 453.546805 
L 1091.221065 453.546805 
L 1091.726692 454.710384 
L 1101.333612 454.710384 
L 1101.839239 455.873962 
L 1111.446158 455.873962 
L 1111.951785 456.769023 
L 1122.064332 456.769023 
L 1122.569959 457.440318 
L 1132.176878 457.440318 
L 1132.682505 458.290625 
L 1142.795052 458.290625 
L 1143.300679 458.917168 
L 1152.907598 458.917168 
L 1153.413226 459.54371 
L 1163.020145 459.54371 
L 1163.525772 460.080746 
L 1173.638319 460.080746 
L 1174.143946 460.43877 
L 1183.750865 460.43877 
L 1184.256492 460.841548 
L 1193.863411 460.841548 
L 1194.369039 461.378584 
L 1204.481585 461.378584 
L 1204.987212 461.647102 
L 1214.594132 461.647102 
L 1215.099759 461.781361 
L 1225.212305 461.781361 
L 1225.717933 462.094632 
L 1235.324852 462.094632 
L 1235.830479 462.407903 
L 1245.437398 462.407903 
L 1245.943026 462.676421 
L 1266.168118 462.765927 
L 1266.673746 462.900187 
L 1286.898839 462.989693 
L 1287.910093 463.079199 
L 1327.854652 463.168705 
L 1328.360279 463.258087 
L 1328.360279 463.258087 
" style="fill:none;stroke:#0000ff;stroke-linecap:square;stroke-width:1.5;"/>
   </g>
   <g id="line2d_36">
    <path clip-path="url(#paeacb11bf4)" d="M 823.238585 332.538138 
L 833.351131 332.538138 
L 833.856758 305.430473 
L 843.463678 305.430473 
L 843.969305 275.059217 
L 854.081851 275.059217 
L 854.587479 243.649368 
L 864.194398 243.649368 
L 864.700025 216.611146 
L 874.306944 216.611146 
L 874.812572 196.744945 
L 884.925118 196.744945 
L 885.430745 178.127433 
L 895.037664 178.127433 
L 895.543292 164.210846 
L 905.655838 164.210846 
L 906.161465 148.891403 
L 915.768385 148.891403 
L 916.274012 137.425463 
L 925.880931 137.425463 
L 926.386558 124.744394 
L 936.499105 124.744394 
L 937.004732 115.831346 
L 946.611651 115.831346 
L 947.117278 106.248994 
L 957.229825 106.248994 
L 957.735452 100.391739 
L 967.342371 100.391739 
L 967.847999 92.304 
L 977.454918 92.304 
L 977.960545 88.358852 
L 988.073092 88.358852 
L 988.578719 78.196341 
L 998.185638 78.196341 
L 998.691265 75.271863 
L 1008.298184 75.271863 
L 1008.803812 71.255987 
L 1018.916358 71.255987 
L 1019.421985 70.676059 
L 1029.028905 70.676059 
L 1029.534532 66.207672 
L 1039.647078 66.207672 
L 1040.152706 64.405686 
L 1049.759625 64.405686 
L 1050.265252 63.861053 
L 1059.872171 63.861053 
L 1060.377799 60.658018 
L 1070.490345 60.658018 
L 1070.995972 60.966056 
L 1080.602891 60.966056 
L 1081.108519 59.231667 
L 1091.221065 59.231667 
L 1091.726692 55.646635 
L 1101.333612 55.646635 
L 1101.839239 53.175519 
L 1111.446158 53.175519 
L 1111.951785 52.064691 
L 1122.064332 52.064691 
L 1122.569959 53.128435 
L 1132.176878 53.128435 
L 1132.682505 54.83375 
L 1142.795052 54.83375 
L 1143.300679 56.454035 
L 1152.907598 56.454035 
L 1153.413226 50.256327 
L 1163.020145 50.256327 
L 1163.525772 51.458605 
L 1173.638319 51.458605 
L 1174.143946 47.123117 
L 1183.750865 47.123117 
L 1184.256492 47.848824 
L 1193.863411 47.848824 
L 1194.369039 49.179286 
L 1204.481585 49.179286 
L 1204.987212 50.084 
L 1214.594132 50.084 
L 1215.099759 50.622979 
L 1225.212305 50.622979 
L 1225.717933 52.195 
L 1235.324852 52.195 
L 1235.830479 54.433939 
L 1245.437398 54.433939 
L 1245.943026 57.277037 
L 1256.055572 57.277037 
L 1256.561199 58.528 
L 1266.168118 58.528 
L 1266.673746 60.830909 
L 1276.786292 60.830909 
L 1277.291919 62.75 
L 1286.898839 62.75 
L 1287.404466 65.095556 
L 1297.011385 65.095556 
L 1297.517012 41.64 
L 1328.360279 41.64 
L 1328.360279 41.64 
" style="fill:none;stroke:#ff0000;stroke-linecap:square;stroke-width:1.5;"/>
   </g>
   <g id="line2d_37">
    <path clip-path="url(#paeacb11bf4)" d="M 823.238585 332.538138 
L 823.744212 343.449804 
L 833.351131 343.449804 
L 833.856758 341.901269 
L 843.463678 341.901269 
L 843.969305 342.315122 
L 854.081851 342.315122 
L 854.587479 341.444444 
L 864.194398 341.444444 
L 864.700025 344.497176 
L 874.306944 344.497176 
L 874.812572 352.290868 
L 884.925118 352.290868 
L 885.430745 361.263313 
L 895.037664 361.263313 
L 895.543292 372.147254 
L 905.655838 372.147254 
L 906.161465 380.41234 
L 915.768385 380.41234 
L 916.274012 390.972816 
L 925.880931 390.972816 
L 926.386558 398.134385 
L 936.499105 398.134385 
L 937.004732 406.219742 
L 946.611651 406.219742 
L 947.117278 412.441505 
L 957.229825 412.441505 
L 957.735452 419.035005 
L 967.342371 419.035005 
L 967.847999 423.98475 
L 977.454918 423.98475 
L 977.960545 429.292869 
L 988.073092 429.292869 
L 988.578719 433.22233 
L 998.185638 433.22233 
L 998.691265 437.191327 
L 1008.298184 437.191327 
L 1008.803812 440.120169 
L 1018.916358 440.120169 
L 1019.421985 442.960719 
L 1029.028905 442.960719 
L 1029.534532 445.420949 
L 1039.647078 445.420949 
L 1040.152706 447.496811 
L 1049.759625 447.496811 
L 1050.265252 449.340021 
L 1059.872171 449.340021 
L 1060.377799 450.249596 
L 1070.490345 450.249596 
L 1070.995972 452.267089 
L 1080.602891 452.267089 
L 1081.108519 453.975688 
L 1091.221065 453.975688 
L 1091.726692 455.013262 
L 1101.333612 455.013262 
L 1101.839239 456.091614 
L 1111.446158 456.091614 
L 1111.951785 456.943615 
L 1122.064332 456.943615 
L 1122.569959 457.614459 
L 1132.176878 457.614459 
L 1132.682505 458.464043 
L 1142.795052 458.464043 
L 1143.300679 459.089899 
L 1152.907598 459.089899 
L 1153.413226 459.631389 
L 1163.020145 459.631389 
L 1163.525772 460.168171 
L 1173.638319 460.168171 
L 1174.143946 460.482942 
L 1183.750865 460.482942 
L 1184.256492 460.885642 
L 1193.863411 460.885642 
L 1194.369039 461.422538 
L 1204.481585 461.422538 
L 1204.987212 461.69096 
L 1214.594132 461.69096 
L 1215.099759 461.825162 
L 1225.212305 461.825162 
L 1225.717933 462.138266 
L 1235.324852 462.138266 
L 1235.830479 462.4513 
L 1245.437398 462.4513 
L 1245.943026 462.719517 
L 1266.168118 462.80889 
L 1266.673746 462.942905 
L 1286.898839 463.032208 
L 1287.910093 463.121465 
L 1327.854652 463.168705 
L 1328.360279 463.258087 
L 1328.360279 463.258087 
" style="fill:none;stroke:#008000;stroke-linecap:square;stroke-width:1.5;"/>
   </g>
   <g id="line2d_38">
    <path clip-path="url(#paeacb11bf4)" d="M 854.587479 463.84 
L 854.587479 41.64 
" style="fill:none;stroke:#1f77b4;stroke-linecap:square;stroke-width:1.5;"/>
   </g>
   <g id="patch_9">
    <path d="M 797.9825 463.84 
L 797.9825 41.64 
" style="fill:none;stroke:#000000;stroke-linecap:square;stroke-linejoin:miter;stroke-width:0.8;"/>
   </g>
   <g id="patch_10">
    <path d="M 1353.616364 463.84 
L 1353.616364 41.64 
" style="fill:none;stroke:#000000;stroke-linecap:square;stroke-linejoin:miter;stroke-width:0.8;"/>
   </g>
   <g id="patch_11">
    <path d="M 797.9825 463.84 
L 1353.616364 463.84 
" style="fill:none;stroke:#000000;stroke-linecap:square;stroke-linejoin:miter;stroke-width:0.8;"/>
   </g>
   <g id="patch_12">
    <path d="M 797.9825 41.64 
L 1353.616364 41.64 
" style="fill:none;stroke:#000000;stroke-linecap:square;stroke-linejoin:miter;stroke-width:0.8;"/>
   </g>
   <g id="text_33">
    <!-- Purity/Efficiency vs ChainCountU Cutoff — shower -->
    <defs>
     <path d="M 4.203125 54.6875 
L 13.1875 54.6875 
L 24.421875 12.015625 
L 35.59375 54.6875 
L 46.1875 54.6875 
L 57.421875 12.015625 
L 68.609375 54.6875 
L 77.59375 54.6875 
L 63.28125 0 
L 52.6875 0 
L 40.921875 44.828125 
L 29.109375 0 
L 18.5 0 
z
" id="DejaVuSans-119"/>
    </defs>
    <g transform="translate(751.941182 35.64)scale(0.2592 -0.2592)">
     <use xlink:href="#DejaVuSans-80"/>
     <use x="60.287109" xlink:href="#DejaVuSans-117"/>
     <use x="123.666016" xlink:href="#DejaVuSans-114"/>
     <use x="164.779297" xlink:href="#DejaVuSans-105"/>
     <use x="192.5625" xlink:href="#DejaVuSans-116"/>
     <use x="231.771484" xlink:href="#DejaVuSans-121"/>
     <use x="290.951172" xlink:href="#DejaVuSans-47"/>
     <use x="324.642578" xlink:href="#DejaVuSans-69"/>
     <use x="387.826172" xlink:href="#DejaVuSans-102"/>
     <use x="423.03125" xlink:href="#DejaVuSans-102"/>
     <use x="458.236328" xlink:href="#DejaVuSans-105"/>
     <use x="486.019531" xlink:href="#DejaVuSans-99"/>
     <use x="541" xlink:href="#DejaVuSans-105"/>
     <use x="568.783203" xlink:href="#DejaVuSans-101"/>
     <use x="630.306641" xlink:href="#DejaVuSans-110"/>
     <use x="693.685547" xlink:href="#DejaVuSans-99"/>
     <use x="748.666016" xlink:href="#DejaVuSans-121"/>
     <use x="807.845703" xlink:href="#DejaVuSans-32"/>
     <use x="839.632812" xlink:href="#DejaVuSans-118"/>
     <use x="898.8125" xlink:href="#DejaVuSans-115"/>
     <use x="950.912109" xlink:href="#DejaVuSans-32"/>
     <use x="982.699219" xlink:href="#DejaVuSans-67"/>
     <use x="1052.523438" xlink:href="#DejaVuSans-104"/>
     <use x="1115.902344" xlink:href="#DejaVuSans-97"/>
     <use x="1177.181641" xlink:href="#DejaVuSans-105"/>
     <use x="1204.964844" xlink:href="#DejaVuSans-110"/>
     <use x="1268.34375" xlink:href="#DejaVuSans-67"/>
     <use x="1338.167969" xlink:href="#DejaVuSans-111"/>
     <use x="1399.349609" xlink:href="#DejaVuSans-117"/>
     <use x="1462.728516" xlink:href="#DejaVuSans-110"/>
     <use x="1526.107422" xlink:href="#DejaVuSans-116"/>
     <use x="1565.316406" xlink:href="#DejaVuSans-85"/>
     <use x="1638.509766" xlink:href="#DejaVuSans-32"/>
     <use x="1670.296875" xlink:href="#DejaVuSans-67"/>
     <use x="1740.121094" xlink:href="#DejaVuSans-117"/>
     <use x="1803.5" xlink:href="#DejaVuSans-116"/>
     <use x="1842.708984" xlink:href="#DejaVuSans-111"/>
     <use x="1903.890625" xlink:href="#DejaVuSans-102"/>
     <use x="1939.095703" xlink:href="#DejaVuSans-102"/>
     <use x="1974.300781" xlink:href="#DejaVuSans-32"/>
     <use x="2006.087891" xlink:href="#DejaVuSans-8212"/>
     <use x="2106.087891" xlink:href="#DejaVuSans-32"/>
     <use x="2137.875" xlink:href="#DejaVuSans-115"/>
     <use x="2189.974609" xlink:href="#DejaVuSans-104"/>
     <use x="2253.353516" xlink:href="#DejaVuSans-111"/>
     <use x="2314.535156" xlink:href="#DejaVuSans-119"/>
     <use x="2396.322266" xlink:href="#DejaVuSans-101"/>
     <use x="2457.845703" xlink:href="#DejaVuSans-114"/>
    </g>
   </g>
   <g id="legend_2">
    <g id="patch_13">
     <path d="M 967.104744 454.84 
L 1184.494119 454.84 
Q 1188.094119 454.84 1188.094119 451.24 
L 1188.094119 373.778125 
Q 1188.094119 370.178125 1184.494119 370.178125 
L 967.104744 370.178125 
Q 963.504744 370.178125 963.504744 373.778125 
L 963.504744 451.24 
Q 963.504744 454.84 967.104744 454.84 
z
" style="fill:#ffffff;opacity:0.8;stroke:#cccccc;stroke-linejoin:miter;"/>
    </g>
    <g id="line2d_39">
     <path d="M 970.704744 384.755313 
L 1006.704744 384.755313 
" style="fill:none;stroke:#0000ff;stroke-linecap:square;stroke-width:1.5;"/>
    </g>
    <g id="line2d_40"/>
    <g id="text_34">
     <!-- Efficiency -->
     <g transform="translate(1021.104744 391.055313)scale(0.18 -0.18)">
      <use xlink:href="#DejaVuSans-69"/>
      <use x="63.183594" xlink:href="#DejaVuSans-102"/>
      <use x="98.388672" xlink:href="#DejaVuSans-102"/>
      <use x="133.59375" xlink:href="#DejaVuSans-105"/>
      <use x="161.376953" xlink:href="#DejaVuSans-99"/>
      <use x="216.357422" xlink:href="#DejaVuSans-105"/>
      <use x="244.140625" xlink:href="#DejaVuSans-101"/>
      <use x="305.664062" xlink:href="#DejaVuSans-110"/>
      <use x="369.042969" xlink:href="#DejaVuSans-99"/>
      <use x="424.023438" xlink:href="#DejaVuSans-121"/>
     </g>
    </g>
    <g id="line2d_41">
     <path d="M 970.704744 411.175937 
L 1006.704744 411.175937 
" style="fill:none;stroke:#ff0000;stroke-linecap:square;stroke-width:1.5;"/>
    </g>
    <g id="line2d_42"/>
    <g id="text_35">
     <!-- Purity -->
     <g transform="translate(1021.104744 417.475937)scale(0.18 -0.18)">
      <use xlink:href="#DejaVuSans-80"/>
      <use x="60.287109" xlink:href="#DejaVuSans-117"/>
      <use x="123.666016" xlink:href="#DejaVuSans-114"/>
      <use x="164.779297" xlink:href="#DejaVuSans-105"/>
      <use x="192.5625" xlink:href="#DejaVuSans-116"/>
      <use x="231.771484" xlink:href="#DejaVuSans-121"/>
     </g>
    </g>
    <g id="line2d_43">
     <path d="M 970.704744 437.596562 
L 1006.704744 437.596562 
" style="fill:none;stroke:#008000;stroke-linecap:square;stroke-width:1.5;"/>
    </g>
    <g id="line2d_44"/>
    <g id="text_36">
     <!-- Purity * Efficiency -->
     <g transform="translate(1021.104744 443.896562)scale(0.18 -0.18)">
      <use xlink:href="#DejaVuSans-80"/>
      <use x="60.287109" xlink:href="#DejaVuSans-117"/>
      <use x="123.666016" xlink:href="#DejaVuSans-114"/>
      <use x="164.779297" xlink:href="#DejaVuSans-105"/>
      <use x="192.5625" xlink:href="#DejaVuSans-116"/>
      <use x="231.771484" xlink:href="#DejaVuSans-121"/>
      <use x="290.951172" xlink:href="#DejaVuSans-32"/>
      <use x="322.738281" xlink:href="#DejaVuSans-42"/>
      <use x="372.738281" xlink:href="#DejaVuSans-32"/>
      <use x="404.525391" xlink:href="#DejaVuSans-69"/>
      <use x="467.708984" xlink:href="#DejaVuSans-102"/>
      <use x="502.914062" xlink:href="#DejaVuSans-102"/>
      <use x="538.119141" xlink:href="#DejaVuSans-105"/>
      <use x="565.902344" xlink:href="#DejaVuSans-99"/>
      <use x="620.882812" xlink:href="#DejaVuSans-105"/>
      <use x="648.666016" xlink:href="#DejaVuSans-101"/>
      <use x="710.189453" xlink:href="#DejaVuSans-110"/>
      <use x="773.568359" xlink:href="#DejaVuSans-99"/>
      <use x="828.548828" xlink:href="#DejaVuSans-121"/>
     </g>
    </g>
   </g>
  </g>
 </g>
 <defs>
  <clipPath id="p5004baa51e">
   <rect height="422.2" width="555.633864" x="92.99" y="41.64"/>
  </clipPath>
  <clipPath id="paeacb11bf4">
   <rect height="422.2" width="555.633864" x="797.9825" y="41.64"/>
  </clipPath>
 </defs>
</svg>
