<?xml version="1.0" encoding="utf-8" standalone="no"?>
<!DOCTYPE svg PUBLIC "-//W3C//DTD SVG 1.1//EN"
  "http://www.w3.org/Graphics/SVG/1.1/DTD/svg11.dtd">
<!-- Created with matplotlib (https://matplotlib.org/) -->
<svg height="540pt" version="1.1" viewBox="0 0 1440 540" width="1440pt" xmlns="http://www.w3.org/2000/svg" xmlns:xlink="http://www.w3.org/1999/xlink">
 <defs>
  <style type="text/css">
*{stroke-linecap:butt;stroke-linejoin:round;}
  </style>
 </defs>
 <g id="figure_1">
  <g id="patch_1">
   <path d="M 0 540 
L 1440 540 
L 1440 0 
L 0 0 
z
" style="fill:#ffffff;"/>
  </g>
  <g id="axes_1">
   <g id="patch_2">
    <path d="M 109.108636 463.84 
L 605.176364 463.84 
L 605.176364 41.64 
L 109.108636 41.64 
z
" style="fill:#ffffff;"/>
   </g>
   <g id="matplotlib.axis_1">
    <g id="xtick_1">
     <g id="line2d_1">
      <defs>
       <path d="M 0 0 
L 0 3.5 
" id="m62fd167df0" style="stroke:#000000;stroke-width:0.8;"/>
      </defs>
      <g>
       <use style="stroke:#000000;stroke-width:0.8;" x="131.657169" xlink:href="#m62fd167df0" y="463.84"/>
      </g>
     </g>
     <g id="text_1">
      <!-- 0 -->
      <defs>
       <path d="M 31.78125 66.40625 
Q 24.171875 66.40625 20.328125 58.90625 
Q 16.5 51.421875 16.5 36.375 
Q 16.5 21.390625 20.328125 13.890625 
Q 24.171875 6.390625 31.78125 6.390625 
Q 39.453125 6.390625 43.28125 13.890625 
Q 47.125 21.390625 47.125 36.375 
Q 47.125 51.421875 43.28125 58.90625 
Q 39.453125 66.40625 31.78125 66.40625 
z
M 31.78125 74.21875 
Q 44.046875 74.21875 50.515625 64.515625 
Q 56.984375 54.828125 56.984375 36.375 
Q 56.984375 17.96875 50.515625 8.265625 
Q 44.046875 -1.421875 31.78125 -1.421875 
Q 19.53125 -1.421875 13.0625 8.265625 
Q 6.59375 17.96875 6.59375 36.375 
Q 6.59375 54.828125 13.0625 64.515625 
Q 19.53125 74.21875 31.78125 74.21875 
z
" id="DejaVuSans-48"/>
      </defs>
      <g transform="translate(123.411369 490.53515)scale(0.2592 -0.2592)">
       <use xlink:href="#DejaVuSans-48"/>
      </g>
     </g>
    </g>
    <g id="xtick_2">
     <g id="line2d_2">
      <g>
       <use style="stroke:#000000;stroke-width:0.8;" x="281.980723" xlink:href="#m62fd167df0" y="463.84"/>
      </g>
     </g>
     <g id="text_2">
      <!-- 200 -->
      <defs>
       <path d="M 19.1875 8.296875 
L 53.609375 8.296875 
L 53.609375 0 
L 7.328125 0 
L 7.328125 8.296875 
Q 12.9375 14.109375 22.625 23.890625 
Q 32.328125 33.6875 34.8125 36.53125 
Q 39.546875 41.84375 41.421875 45.53125 
Q 43.3125 49.21875 43.3125 52.78125 
Q 43.3125 58.59375 39.234375 62.25 
Q 35.15625 65.921875 28.609375 65.921875 
Q 23.96875 65.921875 18.8125 64.3125 
Q 13.671875 62.703125 7.8125 59.421875 
L 7.8125 69.390625 
Q 13.765625 71.78125 18.9375 73 
Q 24.125 74.21875 28.421875 74.21875 
Q 39.75 74.21875 46.484375 68.546875 
Q 53.21875 62.890625 53.21875 53.421875 
Q 53.21875 48.921875 51.53125 44.890625 
Q 49.859375 40.875 45.40625 35.40625 
Q 44.1875 33.984375 37.640625 27.21875 
Q 31.109375 20.453125 19.1875 8.296875 
z
" id="DejaVuSans-50"/>
      </defs>
      <g transform="translate(257.243323 490.53515)scale(0.2592 -0.2592)">
       <use xlink:href="#DejaVuSans-50"/>
       <use x="63.623047" xlink:href="#DejaVuSans-48"/>
       <use x="127.246094" xlink:href="#DejaVuSans-48"/>
      </g>
     </g>
    </g>
    <g id="xtick_3">
     <g id="line2d_3">
      <g>
       <use style="stroke:#000000;stroke-width:0.8;" x="432.304277" xlink:href="#m62fd167df0" y="463.84"/>
      </g>
     </g>
     <g id="text_3">
      <!-- 400 -->
      <defs>
       <path d="M 37.796875 64.3125 
L 12.890625 25.390625 
L 37.796875 25.390625 
z
M 35.203125 72.90625 
L 47.609375 72.90625 
L 47.609375 25.390625 
L 58.015625 25.390625 
L 58.015625 17.1875 
L 47.609375 17.1875 
L 47.609375 0 
L 37.796875 0 
L 37.796875 17.1875 
L 4.890625 17.1875 
L 4.890625 26.703125 
z
" id="DejaVuSans-52"/>
      </defs>
      <g transform="translate(407.566877 490.53515)scale(0.2592 -0.2592)">
       <use xlink:href="#DejaVuSans-52"/>
       <use x="63.623047" xlink:href="#DejaVuSans-48"/>
       <use x="127.246094" xlink:href="#DejaVuSans-48"/>
      </g>
     </g>
    </g>
    <g id="xtick_4">
     <g id="line2d_4">
      <g>
       <use style="stroke:#000000;stroke-width:0.8;" x="582.627831" xlink:href="#m62fd167df0" y="463.84"/>
      </g>
     </g>
     <g id="text_4">
      <!-- 600 -->
      <defs>
       <path d="M 33.015625 40.375 
Q 26.375 40.375 22.484375 35.828125 
Q 18.609375 31.296875 18.609375 23.390625 
Q 18.609375 15.53125 22.484375 10.953125 
Q 26.375 6.390625 33.015625 6.390625 
Q 39.65625 6.390625 43.53125 10.953125 
Q 47.40625 15.53125 47.40625 23.390625 
Q 47.40625 31.296875 43.53125 35.828125 
Q 39.65625 40.375 33.015625 40.375 
z
M 52.59375 71.296875 
L 52.59375 62.3125 
Q 48.875 64.0625 45.09375 64.984375 
Q 41.3125 65.921875 37.59375 65.921875 
Q 27.828125 65.921875 22.671875 59.328125 
Q 17.53125 52.734375 16.796875 39.40625 
Q 19.671875 43.65625 24.015625 45.921875 
Q 28.375 48.1875 33.59375 48.1875 
Q 44.578125 48.1875 50.953125 41.515625 
Q 57.328125 34.859375 57.328125 23.390625 
Q 57.328125 12.15625 50.6875 5.359375 
Q 44.046875 -1.421875 33.015625 -1.421875 
Q 20.359375 -1.421875 13.671875 8.265625 
Q 6.984375 17.96875 6.984375 36.375 
Q 6.984375 53.65625 15.1875 63.9375 
Q 23.390625 74.21875 37.203125 74.21875 
Q 40.921875 74.21875 44.703125 73.484375 
Q 48.484375 72.75 52.59375 71.296875 
z
" id="DejaVuSans-54"/>
      </defs>
      <g transform="translate(557.890431 490.53515)scale(0.2592 -0.2592)">
       <use xlink:href="#DejaVuSans-54"/>
       <use x="63.623047" xlink:href="#DejaVuSans-48"/>
       <use x="127.246094" xlink:href="#DejaVuSans-48"/>
      </g>
     </g>
    </g>
    <g id="text_5">
     <!-- LongitudinalSpanV Cutoff -->
     <defs>
      <path d="M 9.8125 72.90625 
L 19.671875 72.90625 
L 19.671875 8.296875 
L 55.171875 8.296875 
L 55.171875 0 
L 9.8125 0 
z
" id="DejaVuSans-76"/>
      <path d="M 30.609375 48.390625 
Q 23.390625 48.390625 19.1875 42.75 
Q 14.984375 37.109375 14.984375 27.296875 
Q 14.984375 17.484375 19.15625 11.84375 
Q 23.34375 6.203125 30.609375 6.203125 
Q 37.796875 6.203125 41.984375 11.859375 
Q 46.1875 17.53125 46.1875 27.296875 
Q 46.1875 37.015625 41.984375 42.703125 
Q 37.796875 48.390625 30.609375 48.390625 
z
M 30.609375 56 
Q 42.328125 56 49.015625 48.375 
Q 55.71875 40.765625 55.71875 27.296875 
Q 55.71875 13.875 49.015625 6.21875 
Q 42.328125 -1.421875 30.609375 -1.421875 
Q 18.84375 -1.421875 12.171875 6.21875 
Q 5.515625 13.875 5.515625 27.296875 
Q 5.515625 40.765625 12.171875 48.375 
Q 18.84375 56 30.609375 56 
z
" id="DejaVuSans-111"/>
      <path d="M 54.890625 33.015625 
L 54.890625 0 
L 45.90625 0 
L 45.90625 32.71875 
Q 45.90625 40.484375 42.875 44.328125 
Q 39.84375 48.1875 33.796875 48.1875 
Q 26.515625 48.1875 22.3125 43.546875 
Q 18.109375 38.921875 18.109375 30.90625 
L 18.109375 0 
L 9.078125 0 
L 9.078125 54.6875 
L 18.109375 54.6875 
L 18.109375 46.1875 
Q 21.34375 51.125 25.703125 53.5625 
Q 30.078125 56 35.796875 56 
Q 45.21875 56 50.046875 50.171875 
Q 54.890625 44.34375 54.890625 33.015625 
z
" id="DejaVuSans-110"/>
      <path d="M 45.40625 27.984375 
Q 45.40625 37.75 41.375 43.109375 
Q 37.359375 48.484375 30.078125 48.484375 
Q 22.859375 48.484375 18.828125 43.109375 
Q 14.796875 37.75 14.796875 27.984375 
Q 14.796875 18.265625 18.828125 12.890625 
Q 22.859375 7.515625 30.078125 7.515625 
Q 37.359375 7.515625 41.375 12.890625 
Q 45.40625 18.265625 45.40625 27.984375 
z
M 54.390625 6.78125 
Q 54.390625 -7.171875 48.1875 -13.984375 
Q 42 -20.796875 29.203125 -20.796875 
Q 24.46875 -20.796875 20.265625 -20.09375 
Q 16.0625 -19.390625 12.109375 -17.921875 
L 12.109375 -9.1875 
Q 16.0625 -11.328125 19.921875 -12.34375 
Q 23.78125 -13.375 27.78125 -13.375 
Q 36.625 -13.375 41.015625 -8.765625 
Q 45.40625 -4.15625 45.40625 5.171875 
L 45.40625 9.625 
Q 42.625 4.78125 38.28125 2.390625 
Q 33.9375 0 27.875 0 
Q 17.828125 0 11.671875 7.65625 
Q 5.515625 15.328125 5.515625 27.984375 
Q 5.515625 40.671875 11.671875 48.328125 
Q 17.828125 56 27.875 56 
Q 33.9375 56 38.28125 53.609375 
Q 42.625 51.21875 45.40625 46.390625 
L 45.40625 54.6875 
L 54.390625 54.6875 
z
" id="DejaVuSans-103"/>
      <path d="M 9.421875 54.6875 
L 18.40625 54.6875 
L 18.40625 0 
L 9.421875 0 
z
M 9.421875 75.984375 
L 18.40625 75.984375 
L 18.40625 64.59375 
L 9.421875 64.59375 
z
" id="DejaVuSans-105"/>
      <path d="M 18.3125 70.21875 
L 18.3125 54.6875 
L 36.8125 54.6875 
L 36.8125 47.703125 
L 18.3125 47.703125 
L 18.3125 18.015625 
Q 18.3125 11.328125 20.140625 9.421875 
Q 21.96875 7.515625 27.59375 7.515625 
L 36.8125 7.515625 
L 36.8125 0 
L 27.59375 0 
Q 17.1875 0 13.234375 3.875 
Q 9.28125 7.765625 9.28125 18.015625 
L 9.28125 47.703125 
L 2.6875 47.703125 
L 2.6875 54.6875 
L 9.28125 54.6875 
L 9.28125 70.21875 
z
" id="DejaVuSans-116"/>
      <path d="M 8.5 21.578125 
L 8.5 54.6875 
L 17.484375 54.6875 
L 17.484375 21.921875 
Q 17.484375 14.15625 20.5 10.265625 
Q 23.53125 6.390625 29.59375 6.390625 
Q 36.859375 6.390625 41.078125 11.03125 
Q 45.3125 15.671875 45.3125 23.6875 
L 45.3125 54.6875 
L 54.296875 54.6875 
L 54.296875 0 
L 45.3125 0 
L 45.3125 8.40625 
Q 42.046875 3.421875 37.71875 1 
Q 33.40625 -1.421875 27.6875 -1.421875 
Q 18.265625 -1.421875 13.375 4.4375 
Q 8.5 10.296875 8.5 21.578125 
z
M 31.109375 56 
z
" id="DejaVuSans-117"/>
      <path d="M 45.40625 46.390625 
L 45.40625 75.984375 
L 54.390625 75.984375 
L 54.390625 0 
L 45.40625 0 
L 45.40625 8.203125 
Q 42.578125 3.328125 38.25 0.953125 
Q 33.9375 -1.421875 27.875 -1.421875 
Q 17.96875 -1.421875 11.734375 6.484375 
Q 5.515625 14.40625 5.515625 27.296875 
Q 5.515625 40.1875 11.734375 48.09375 
Q 17.96875 56 27.875 56 
Q 33.9375 56 38.25 53.625 
Q 42.578125 51.265625 45.40625 46.390625 
z
M 14.796875 27.296875 
Q 14.796875 17.390625 18.875 11.75 
Q 22.953125 6.109375 30.078125 6.109375 
Q 37.203125 6.109375 41.296875 11.75 
Q 45.40625 17.390625 45.40625 27.296875 
Q 45.40625 37.203125 41.296875 42.84375 
Q 37.203125 48.484375 30.078125 48.484375 
Q 22.953125 48.484375 18.875 42.84375 
Q 14.796875 37.203125 14.796875 27.296875 
z
" id="DejaVuSans-100"/>
      <path d="M 34.28125 27.484375 
Q 23.390625 27.484375 19.1875 25 
Q 14.984375 22.515625 14.984375 16.5 
Q 14.984375 11.71875 18.140625 8.90625 
Q 21.296875 6.109375 26.703125 6.109375 
Q 34.1875 6.109375 38.703125 11.40625 
Q 43.21875 16.703125 43.21875 25.484375 
L 43.21875 27.484375 
z
M 52.203125 31.203125 
L 52.203125 0 
L 43.21875 0 
L 43.21875 8.296875 
Q 40.140625 3.328125 35.546875 0.953125 
Q 30.953125 -1.421875 24.3125 -1.421875 
Q 15.921875 -1.421875 10.953125 3.296875 
Q 6 8.015625 6 15.921875 
Q 6 25.140625 12.171875 29.828125 
Q 18.359375 34.515625 30.609375 34.515625 
L 43.21875 34.515625 
L 43.21875 35.40625 
Q 43.21875 41.609375 39.140625 45 
Q 35.0625 48.390625 27.6875 48.390625 
Q 23 48.390625 18.546875 47.265625 
Q 14.109375 46.140625 10.015625 43.890625 
L 10.015625 52.203125 
Q 14.9375 54.109375 19.578125 55.046875 
Q 24.21875 56 28.609375 56 
Q 40.484375 56 46.34375 49.84375 
Q 52.203125 43.703125 52.203125 31.203125 
z
" id="DejaVuSans-97"/>
      <path d="M 9.421875 75.984375 
L 18.40625 75.984375 
L 18.40625 0 
L 9.421875 0 
z
" id="DejaVuSans-108"/>
      <path d="M 53.515625 70.515625 
L 53.515625 60.890625 
Q 47.90625 63.578125 42.921875 64.890625 
Q 37.9375 66.21875 33.296875 66.21875 
Q 25.25 66.21875 20.875 63.09375 
Q 16.5 59.96875 16.5 54.203125 
Q 16.5 49.359375 19.40625 46.890625 
Q 22.3125 44.4375 30.421875 42.921875 
L 36.375 41.703125 
Q 47.40625 39.59375 52.65625 34.296875 
Q 57.90625 29 57.90625 20.125 
Q 57.90625 9.515625 50.796875 4.046875 
Q 43.703125 -1.421875 29.984375 -1.421875 
Q 24.8125 -1.421875 18.96875 -0.25 
Q 13.140625 0.921875 6.890625 3.21875 
L 6.890625 13.375 
Q 12.890625 10.015625 18.65625 8.296875 
Q 24.421875 6.59375 29.984375 6.59375 
Q 38.421875 6.59375 43.015625 9.90625 
Q 47.609375 13.234375 47.609375 19.390625 
Q 47.609375 24.75 44.3125 27.78125 
Q 41.015625 30.8125 33.5 32.328125 
L 27.484375 33.5 
Q 16.453125 35.6875 11.515625 40.375 
Q 6.59375 45.0625 6.59375 53.421875 
Q 6.59375 63.09375 13.40625 68.65625 
Q 20.21875 74.21875 32.171875 74.21875 
Q 37.3125 74.21875 42.625 73.28125 
Q 47.953125 72.359375 53.515625 70.515625 
z
" id="DejaVuSans-83"/>
      <path d="M 18.109375 8.203125 
L 18.109375 -20.796875 
L 9.078125 -20.796875 
L 9.078125 54.6875 
L 18.109375 54.6875 
L 18.109375 46.390625 
Q 20.953125 51.265625 25.265625 53.625 
Q 29.59375 56 35.59375 56 
Q 45.5625 56 51.78125 48.09375 
Q 58.015625 40.1875 58.015625 27.296875 
Q 58.015625 14.40625 51.78125 6.484375 
Q 45.5625 -1.421875 35.59375 -1.421875 
Q 29.59375 -1.421875 25.265625 0.953125 
Q 20.953125 3.328125 18.109375 8.203125 
z
M 48.6875 27.296875 
Q 48.6875 37.203125 44.609375 42.84375 
Q 40.53125 48.484375 33.40625 48.484375 
Q 26.265625 48.484375 22.1875 42.84375 
Q 18.109375 37.203125 18.109375 27.296875 
Q 18.109375 17.390625 22.1875 11.75 
Q 26.265625 6.109375 33.40625 6.109375 
Q 40.53125 6.109375 44.609375 11.75 
Q 48.6875 17.390625 48.6875 27.296875 
z
" id="DejaVuSans-112"/>
      <path d="M 28.609375 0 
L 0.78125 72.90625 
L 11.078125 72.90625 
L 34.1875 11.53125 
L 57.328125 72.90625 
L 67.578125 72.90625 
L 39.796875 0 
z
" id="DejaVuSans-86"/>
      <path id="DejaVuSans-32"/>
      <path d="M 64.40625 67.28125 
L 64.40625 56.890625 
Q 59.421875 61.53125 53.78125 63.8125 
Q 48.140625 66.109375 41.796875 66.109375 
Q 29.296875 66.109375 22.65625 58.46875 
Q 16.015625 50.828125 16.015625 36.375 
Q 16.015625 21.96875 22.65625 14.328125 
Q 29.296875 6.6875 41.796875 6.6875 
Q 48.140625 6.6875 53.78125 8.984375 
Q 59.421875 11.28125 64.40625 15.921875 
L 64.40625 5.609375 
Q 59.234375 2.09375 53.4375 0.328125 
Q 47.65625 -1.421875 41.21875 -1.421875 
Q 24.65625 -1.421875 15.125 8.703125 
Q 5.609375 18.84375 5.609375 36.375 
Q 5.609375 53.953125 15.125 64.078125 
Q 24.65625 74.21875 41.21875 74.21875 
Q 47.75 74.21875 53.53125 72.484375 
Q 59.328125 70.75 64.40625 67.28125 
z
" id="DejaVuSans-67"/>
      <path d="M 37.109375 75.984375 
L 37.109375 68.5 
L 28.515625 68.5 
Q 23.6875 68.5 21.796875 66.546875 
Q 19.921875 64.59375 19.921875 59.515625 
L 19.921875 54.6875 
L 34.71875 54.6875 
L 34.71875 47.703125 
L 19.921875 47.703125 
L 19.921875 0 
L 10.890625 0 
L 10.890625 47.703125 
L 2.296875 47.703125 
L 2.296875 54.6875 
L 10.890625 54.6875 
L 10.890625 58.5 
Q 10.890625 67.625 15.140625 71.796875 
Q 19.390625 75.984375 28.609375 75.984375 
z
" id="DejaVuSans-102"/>
     </defs>
     <g transform="translate(192.0807 519.62085)scale(0.2592 -0.2592)">
      <use xlink:href="#DejaVuSans-76"/>
      <use x="55.697266" xlink:href="#DejaVuSans-111"/>
      <use x="116.878906" xlink:href="#DejaVuSans-110"/>
      <use x="180.257812" xlink:href="#DejaVuSans-103"/>
      <use x="243.734375" xlink:href="#DejaVuSans-105"/>
      <use x="271.517578" xlink:href="#DejaVuSans-116"/>
      <use x="310.726562" xlink:href="#DejaVuSans-117"/>
      <use x="374.105469" xlink:href="#DejaVuSans-100"/>
      <use x="437.582031" xlink:href="#DejaVuSans-105"/>
      <use x="465.365234" xlink:href="#DejaVuSans-110"/>
      <use x="528.744141" xlink:href="#DejaVuSans-97"/>
      <use x="590.023438" xlink:href="#DejaVuSans-108"/>
      <use x="617.806641" xlink:href="#DejaVuSans-83"/>
      <use x="681.283203" xlink:href="#DejaVuSans-112"/>
      <use x="744.759766" xlink:href="#DejaVuSans-97"/>
      <use x="806.039062" xlink:href="#DejaVuSans-110"/>
      <use x="869.417969" xlink:href="#DejaVuSans-86"/>
      <use x="937.826172" xlink:href="#DejaVuSans-32"/>
      <use x="969.613281" xlink:href="#DejaVuSans-67"/>
      <use x="1039.4375" xlink:href="#DejaVuSans-117"/>
      <use x="1102.816406" xlink:href="#DejaVuSans-116"/>
      <use x="1142.025391" xlink:href="#DejaVuSans-111"/>
      <use x="1203.207031" xlink:href="#DejaVuSans-102"/>
      <use x="1238.412109" xlink:href="#DejaVuSans-102"/>
     </g>
    </g>
   </g>
   <g id="matplotlib.axis_2">
    <g id="ytick_1">
     <g id="line2d_5">
      <defs>
       <path d="M 0 0 
L -3.5 0 
" id="m562c46c59c" style="stroke:#000000;stroke-width:0.8;"/>
      </defs>
      <g>
       <use style="stroke:#000000;stroke-width:0.8;" x="109.108636" xlink:href="#m562c46c59c" y="463.84"/>
      </g>
     </g>
     <g id="text_6">
      <!-- 0.0 -->
      <defs>
       <path d="M 10.6875 12.40625 
L 21 12.40625 
L 21 0 
L 10.6875 0 
z
" id="DejaVuSans-46"/>
      </defs>
      <g transform="translate(60.887736 473.687575)scale(0.2592 -0.2592)">
       <use xlink:href="#DejaVuSans-48"/>
       <use x="63.623047" xlink:href="#DejaVuSans-46"/>
       <use x="95.410156" xlink:href="#DejaVuSans-48"/>
      </g>
     </g>
    </g>
    <g id="ytick_2">
     <g id="line2d_6">
      <g>
       <use style="stroke:#000000;stroke-width:0.8;" x="109.108636" xlink:href="#m562c46c59c" y="379.4"/>
      </g>
     </g>
     <g id="text_7">
      <!-- 0.2 -->
      <g transform="translate(60.887736 389.247575)scale(0.2592 -0.2592)">
       <use xlink:href="#DejaVuSans-48"/>
       <use x="63.623047" xlink:href="#DejaVuSans-46"/>
       <use x="95.410156" xlink:href="#DejaVuSans-50"/>
      </g>
     </g>
    </g>
    <g id="ytick_3">
     <g id="line2d_7">
      <g>
       <use style="stroke:#000000;stroke-width:0.8;" x="109.108636" xlink:href="#m562c46c59c" y="294.96"/>
      </g>
     </g>
     <g id="text_8">
      <!-- 0.4 -->
      <g transform="translate(60.887736 304.807575)scale(0.2592 -0.2592)">
       <use xlink:href="#DejaVuSans-48"/>
       <use x="63.623047" xlink:href="#DejaVuSans-46"/>
       <use x="95.410156" xlink:href="#DejaVuSans-52"/>
      </g>
     </g>
    </g>
    <g id="ytick_4">
     <g id="line2d_8">
      <g>
       <use style="stroke:#000000;stroke-width:0.8;" x="109.108636" xlink:href="#m562c46c59c" y="210.52"/>
      </g>
     </g>
     <g id="text_9">
      <!-- 0.6 -->
      <g transform="translate(60.887736 220.367575)scale(0.2592 -0.2592)">
       <use xlink:href="#DejaVuSans-48"/>
       <use x="63.623047" xlink:href="#DejaVuSans-46"/>
       <use x="95.410156" xlink:href="#DejaVuSans-54"/>
      </g>
     </g>
    </g>
    <g id="ytick_5">
     <g id="line2d_9">
      <g>
       <use style="stroke:#000000;stroke-width:0.8;" x="109.108636" xlink:href="#m562c46c59c" y="126.08"/>
      </g>
     </g>
     <g id="text_10">
      <!-- 0.8 -->
      <defs>
       <path d="M 31.78125 34.625 
Q 24.75 34.625 20.71875 30.859375 
Q 16.703125 27.09375 16.703125 20.515625 
Q 16.703125 13.921875 20.71875 10.15625 
Q 24.75 6.390625 31.78125 6.390625 
Q 38.8125 6.390625 42.859375 10.171875 
Q 46.921875 13.96875 46.921875 20.515625 
Q 46.921875 27.09375 42.890625 30.859375 
Q 38.875 34.625 31.78125 34.625 
z
M 21.921875 38.8125 
Q 15.578125 40.375 12.03125 44.71875 
Q 8.5 49.078125 8.5 55.328125 
Q 8.5 64.0625 14.71875 69.140625 
Q 20.953125 74.21875 31.78125 74.21875 
Q 42.671875 74.21875 48.875 69.140625 
Q 55.078125 64.0625 55.078125 55.328125 
Q 55.078125 49.078125 51.53125 44.71875 
Q 48 40.375 41.703125 38.8125 
Q 48.828125 37.15625 52.796875 32.3125 
Q 56.78125 27.484375 56.78125 20.515625 
Q 56.78125 9.90625 50.3125 4.234375 
Q 43.84375 -1.421875 31.78125 -1.421875 
Q 19.734375 -1.421875 13.25 4.234375 
Q 6.78125 9.90625 6.78125 20.515625 
Q 6.78125 27.484375 10.78125 32.3125 
Q 14.796875 37.15625 21.921875 38.8125 
z
M 18.3125 54.390625 
Q 18.3125 48.734375 21.84375 45.5625 
Q 25.390625 42.390625 31.78125 42.390625 
Q 38.140625 42.390625 41.71875 45.5625 
Q 45.3125 48.734375 45.3125 54.390625 
Q 45.3125 60.0625 41.71875 63.234375 
Q 38.140625 66.40625 31.78125 66.40625 
Q 25.390625 66.40625 21.84375 63.234375 
Q 18.3125 60.0625 18.3125 54.390625 
z
" id="DejaVuSans-56"/>
      </defs>
      <g transform="translate(60.887736 135.927575)scale(0.2592 -0.2592)">
       <use xlink:href="#DejaVuSans-48"/>
       <use x="63.623047" xlink:href="#DejaVuSans-46"/>
       <use x="95.410156" xlink:href="#DejaVuSans-56"/>
      </g>
     </g>
    </g>
    <g id="ytick_6">
     <g id="line2d_10">
      <g>
       <use style="stroke:#000000;stroke-width:0.8;" x="109.108636" xlink:href="#m562c46c59c" y="41.64"/>
      </g>
     </g>
     <g id="text_11">
      <!-- 1.0 -->
      <defs>
       <path d="M 12.40625 8.296875 
L 28.515625 8.296875 
L 28.515625 63.921875 
L 10.984375 60.40625 
L 10.984375 69.390625 
L 28.421875 72.90625 
L 38.28125 72.90625 
L 38.28125 8.296875 
L 54.390625 8.296875 
L 54.390625 0 
L 12.40625 0 
z
" id="DejaVuSans-49"/>
      </defs>
      <g transform="translate(60.887736 51.487575)scale(0.2592 -0.2592)">
       <use xlink:href="#DejaVuSans-49"/>
       <use x="63.623047" xlink:href="#DejaVuSans-46"/>
       <use x="95.410156" xlink:href="#DejaVuSans-48"/>
      </g>
     </g>
    </g>
    <g id="text_12">
     <!-- Fraction -->
     <defs>
      <path d="M 9.8125 72.90625 
L 51.703125 72.90625 
L 51.703125 64.59375 
L 19.671875 64.59375 
L 19.671875 43.109375 
L 48.578125 43.109375 
L 48.578125 34.8125 
L 19.671875 34.8125 
L 19.671875 0 
L 9.8125 0 
z
" id="DejaVuSans-70"/>
      <path d="M 41.109375 46.296875 
Q 39.59375 47.171875 37.8125 47.578125 
Q 36.03125 48 33.890625 48 
Q 26.265625 48 22.1875 43.046875 
Q 18.109375 38.09375 18.109375 28.8125 
L 18.109375 0 
L 9.078125 0 
L 9.078125 54.6875 
L 18.109375 54.6875 
L 18.109375 46.1875 
Q 20.953125 51.171875 25.484375 53.578125 
Q 30.03125 56 36.53125 56 
Q 37.453125 56 38.578125 55.875 
Q 39.703125 55.765625 41.0625 55.515625 
z
" id="DejaVuSans-114"/>
      <path d="M 48.78125 52.59375 
L 48.78125 44.1875 
Q 44.96875 46.296875 41.140625 47.34375 
Q 37.3125 48.390625 33.40625 48.390625 
Q 24.65625 48.390625 19.8125 42.84375 
Q 14.984375 37.3125 14.984375 27.296875 
Q 14.984375 17.28125 19.8125 11.734375 
Q 24.65625 6.203125 33.40625 6.203125 
Q 37.3125 6.203125 41.140625 7.25 
Q 44.96875 8.296875 48.78125 10.40625 
L 48.78125 2.09375 
Q 45.015625 0.34375 40.984375 -0.53125 
Q 36.96875 -1.421875 32.421875 -1.421875 
Q 20.0625 -1.421875 12.78125 6.34375 
Q 5.515625 14.109375 5.515625 27.296875 
Q 5.515625 40.671875 12.859375 48.328125 
Q 20.21875 56 33.015625 56 
Q 37.15625 56 41.109375 55.140625 
Q 45.0625 54.296875 48.78125 52.59375 
z
" id="DejaVuSans-99"/>
     </defs>
     <g transform="translate(51.497186 305.400125)rotate(-90)scale(0.2592 -0.2592)">
      <use xlink:href="#DejaVuSans-70"/>
      <use x="57.410156" xlink:href="#DejaVuSans-114"/>
      <use x="98.523438" xlink:href="#DejaVuSans-97"/>
      <use x="159.802734" xlink:href="#DejaVuSans-99"/>
      <use x="214.783203" xlink:href="#DejaVuSans-116"/>
      <use x="253.992188" xlink:href="#DejaVuSans-105"/>
      <use x="281.775391" xlink:href="#DejaVuSans-111"/>
      <use x="342.957031" xlink:href="#DejaVuSans-110"/>
     </g>
    </g>
   </g>
   <g id="line2d_11">
    <path clip-path="url(#pf2056dda3f)" d="M 131.657169 41.64 
L 133.462858 41.702281 
L 133.91428 41.811272 
L 134.817124 42.434077 
L 135.268546 43.212584 
L 135.719968 44.224644 
L 136.17139 45.9685 
L 137.074234 50.857525 
L 137.977079 57.552686 
L 139.782767 75.193658 
L 141.137033 90.358978 
L 143.394144 115.956293 
L 147.456942 160.689314 
L 150.165475 186.504611 
L 151.519741 198.711603 
L 152.874007 209.688554 
L 155.58254 230.754958 
L 157.83965 245.001639 
L 158.742494 250.856013 
L 160.999605 264.869141 
L 161.902449 269.742596 
L 165.965248 291.104833 
L 170.028046 308.512253 
L 171.833735 315.643378 
L 172.285157 316.997981 
L 173.188001 320.392272 
L 176.347956 330.948829 
L 178.605066 337.379298 
L 180.410754 342.735427 
L 182.667865 348.667652 
L 183.570709 351.158874 
L 185.827819 356.904257 
L 186.730664 358.990656 
L 187.633508 361.061485 
L 189.890618 365.732528 
L 190.793462 367.460814 
L 194.404839 374.841062 
L 194.856261 375.65071 
L 195.307683 376.74062 
L 195.759105 377.285575 
L 197.113371 379.683377 
L 198.467638 382.003328 
L 199.370482 383.34236 
L 200.724748 385.755732 
L 202.079014 388.060114 
L 205.238969 393.10484 
L 209.301768 398.990354 
L 210.204612 400.064694 
L 212.461722 403.318854 
L 212.913144 403.723678 
L 213.364566 404.346483 
L 214.718833 405.685516 
L 216.975943 408.425861 
L 217.878787 409.360069 
L 218.781631 410.123006 
L 219.233054 410.683531 
L 220.135898 411.539889 
L 221.038742 412.536379 
L 221.941586 413.470587 
L 222.84443 414.342515 
L 225.552963 417.114001 
L 227.810073 419.138119 
L 228.712917 419.947767 
L 229.615761 420.913116 
L 230.518606 421.644912 
L 233.227138 423.700171 
L 235.032826 424.883502 
L 235.935671 425.506308 
L 236.387093 425.771 
L 237.741359 426.938761 
L 238.644203 427.654987 
L 239.547047 428.449065 
L 240.449891 429.0563 
L 241.804158 429.990509 
L 243.609846 431.516383 
L 245.415534 432.590723 
L 246.318379 433.32252 
L 247.221223 433.992036 
L 249.026911 435.222077 
L 251.735444 436.747951 
L 253.08971 437.417467 
L 259.409619 440.93632 
L 259.861041 440.9986 
L 262.569574 442.197501 
L 263.472418 442.493334 
L 265.278106 443.16285 
L 268.889483 444.859996 
L 270.243749 445.233679 
L 270.695171 445.513942 
L 272.049437 445.949906 
L 278.369346 448.487839 
L 278.820769 448.59683 
L 279.723613 449.032794 
L 280.626457 449.422047 
L 286.946366 451.259324 
L 288.300632 451.757569 
L 291.460587 452.364805 
L 292.814853 452.722918 
L 302.294717 454.575765 
L 304.100405 454.933878 
L 305.906094 455.556684 
L 322.608711 458.328169 
L 324.865821 458.515011 
L 330.734308 459.43365 
L 331.637152 459.542641 
L 333.894263 459.745052 
L 342.471282 460.53913 
L 347.888347 460.834962 
L 349.694036 460.990664 
L 352.402568 461.130795 
L 354.208256 461.411058 
L 358.722477 461.66018 
L 361.43101 461.831452 
L 368.653763 462.220705 
L 402.961841 463.295045 
L 412.893127 463.388466 
L 415.150238 463.435176 
L 421.921569 463.544167 
L 426.887212 463.606448 
L 447.201206 463.715439 
L 451.715426 463.762149 
L 582.627831 463.84 
L 582.627831 463.84 
" style="fill:none;stroke:#0000ff;stroke-linecap:square;stroke-width:1.5;"/>
   </g>
   <g id="line2d_12">
    <path clip-path="url(#pf2056dda3f)" d="M 131.657169 150.61496 
L 133.462858 150.55831 
L 134.365702 150.358149 
L 135.268546 149.770912 
L 135.719968 149.348845 
L 137.525657 146.221541 
L 139.331345 141.984184 
L 139.782767 140.839595 
L 140.685611 139.361227 
L 142.491299 136.260972 
L 142.942722 136.07129 
L 144.74841 136.50401 
L 145.199832 136.878694 
L 146.102676 137.983943 
L 146.554098 138.261275 
L 147.00552 138.848238 
L 147.908364 139.6999 
L 148.359787 140.230424 
L 148.811209 140.523684 
L 149.262631 140.955295 
L 149.714053 141.162647 
L 150.165475 141.498534 
L 150.616897 142.115745 
L 151.971163 143.469987 
L 153.325429 143.979467 
L 153.776852 144.439675 
L 154.679696 145.020703 
L 155.131118 145.495113 
L 155.58254 145.787766 
L 156.033962 145.814196 
L 156.485384 145.971027 
L 156.936806 145.900251 
L 158.291072 146.209446 
L 158.742494 145.888348 
L 159.193916 145.87033 
L 159.645339 146.162691 
L 160.096761 145.950512 
L 160.548183 145.937837 
L 160.999605 146.05853 
L 161.451027 145.799611 
L 161.902449 145.902027 
L 162.353871 145.762514 
L 162.805293 145.501723 
L 163.256715 145.837135 
L 163.708137 145.569051 
L 164.159559 145.697043 
L 164.610981 145.51855 
L 165.062404 145.601045 
L 166.41667 144.621289 
L 166.868092 144.647248 
L 167.319514 144.539116 
L 167.770936 144.020853 
L 169.576624 142.795064 
L 170.028046 142.911381 
L 170.930891 142.289523 
L 171.382313 142.157451 
L 171.833735 141.715784 
L 172.285157 140.985204 
L 172.736579 140.65872 
L 173.639423 140.375743 
L 174.090845 139.932988 
L 174.542267 139.311505 
L 174.993689 138.914821 
L 175.445111 138.734801 
L 176.347956 137.792497 
L 176.799378 137.204758 
L 178.153644 136.384569 
L 179.056488 135.180337 
L 180.410754 133.669922 
L 181.313599 132.300979 
L 181.765021 132.026603 
L 182.667865 131.073522 
L 183.570709 129.398078 
L 184.473553 128.232969 
L 184.924975 127.327409 
L 185.376397 126.740598 
L 185.827819 125.88317 
L 187.182086 124.305322 
L 187.633508 123.595561 
L 188.987774 122.256824 
L 189.439196 122.087234 
L 189.890618 121.681518 
L 190.34204 121.021939 
L 190.793462 120.691628 
L 191.244884 119.827264 
L 191.696306 119.446564 
L 192.147729 118.377509 
L 194.404839 115.299388 
L 194.856261 114.739153 
L 195.759105 112.754016 
L 196.210527 112.198054 
L 196.661949 111.942287 
L 197.564794 110.543674 
L 198.016216 110.061608 
L 198.91906 108.679664 
L 200.273326 106.550428 
L 201.627592 104.02292 
L 202.530436 102.90656 
L 202.981859 101.845963 
L 203.884703 100.397788 
L 204.336125 99.898883 
L 205.690391 97.488284 
L 206.141813 97.248833 
L 206.593235 96.799725 
L 207.044657 96.545309 
L 207.496079 95.550517 
L 207.947501 95.2213 
L 208.398924 94.751285 
L 208.850346 93.986114 
L 209.75319 92.910991 
L 210.656034 91.775102 
L 211.107456 90.663664 
L 211.558878 90.101545 
L 212.0103 89.81239 
L 212.461722 89.844695 
L 212.913144 89.273318 
L 213.364566 89.019786 
L 214.718833 86.677359 
L 215.170255 86.259444 
L 216.073099 84.385124 
L 216.524521 82.957182 
L 217.427365 81.451768 
L 217.878787 81.125544 
L 218.330209 79.971606 
L 218.781631 79.312545 
L 219.233054 79.058687 
L 221.038742 75.250894 
L 221.490164 75.244403 
L 222.393008 74.06088 
L 222.84443 73.446225 
L 223.295852 72.35676 
L 223.747274 71.806121 
L 224.198696 71.588662 
L 227.358651 67.547727 
L 228.712917 65.519451 
L 229.164339 65.524621 
L 230.067184 63.907314 
L 230.518606 63.783357 
L 230.970028 63.539577 
L 231.872872 62.272124 
L 232.324294 61.270076 
L 232.775716 60.683124 
L 233.227138 60.567825 
L 234.129982 59.602575 
L 234.581404 59.745731 
L 235.032826 58.955217 
L 235.484249 58.79596 
L 235.935671 57.643673 
L 236.387093 56.950367 
L 236.838515 56.952953 
L 237.289937 56.779323 
L 237.741359 55.925609 
L 238.192781 54.534263 
L 239.095625 54.477162 
L 239.547047 54.60307 
L 240.449891 54.11159 
L 241.804158 52.426822 
L 242.25558 51.431814 
L 242.707002 51.173548 
L 243.158424 51.0571 
L 243.609846 50.597567 
L 244.51269 49.36441 
L 244.964112 48.823763 
L 245.415534 48.876533 
L 245.866956 48.76397 
L 247.221223 47.717943 
L 248.124067 47.414435 
L 248.575489 47.460361 
L 249.026911 47.08189 
L 249.929755 47.171004 
L 250.832599 46.811715 
L 251.284021 46.386487 
L 251.735444 46.437727 
L 252.638288 46.02776 
L 253.08971 46.071254 
L 253.541132 45.866973 
L 253.992554 45.912262 
L 254.443976 45.445889 
L 255.798242 45.57354 
L 256.249664 45.33425 
L 258.958197 45.585794 
L 259.409619 45.338518 
L 259.861041 45.348514 
L 260.312463 45.095935 
L 261.666729 45.185416 
L 262.118151 44.627969 
L 262.569574 44.356083 
L 263.020996 44.367782 
L 263.472418 44.089311 
L 266.18095 44.222263 
L 266.632372 43.920401 
L 267.083794 43.95978 
L 267.535216 43.655274 
L 267.986639 43.669808 
L 268.438061 43.346548 
L 269.340905 43.374593 
L 269.792327 43.040332 
L 271.146593 43.078501 
L 271.598015 42.72908 
L 280.626457 43.003402 
L 281.529301 42.104466 
L 306.808938 42.445725 
L 307.26036 41.64 
L 539.291311 41.64 
L 539.291311 41.64 
" style="fill:none;stroke:#ff0000;stroke-linecap:square;stroke-width:1.5;"/>
   </g>
   <g id="line2d_13">
    <path clip-path="url(#pf2056dda3f)" d="M 131.657169 150.61496 
L 134.817124 150.712631 
L 135.719968 151.274111 
L 136.17139 151.814088 
L 137.074234 154.021379 
L 137.977079 157.212056 
L 139.782767 166.509527 
L 140.685611 172.831029 
L 142.942722 189.909682 
L 145.199832 210.250856 
L 146.102676 218.835084 
L 146.554098 222.381519 
L 147.456942 230.757669 
L 149.262631 245.384372 
L 150.165475 252.09984 
L 151.068319 259.357214 
L 155.131118 285.777716 
L 156.485384 292.655437 
L 157.83965 299.184049 
L 158.291072 301.62773 
L 159.193916 305.617373 
L 159.645339 308.059089 
L 160.096761 309.748709 
L 160.999605 314.078626 
L 161.451027 315.610378 
L 162.353871 319.42888 
L 162.805293 321.059718 
L 163.708137 324.986728 
L 165.062404 330.446286 
L 168.67378 341.809908 
L 169.125202 342.862875 
L 170.930891 348.292432 
L 171.833735 350.771026 
L 172.285157 351.550445 
L 173.639423 355.119937 
L 176.347956 361.213675 
L 177.2508 362.889475 
L 182.216443 372.308133 
L 185.827819 378.241552 
L 186.730664 379.645452 
L 187.182086 380.471439 
L 188.08493 381.678296 
L 189.890618 384.331938 
L 190.793462 385.506602 
L 193.050573 388.505107 
L 193.501995 389.222141 
L 193.953417 389.695859 
L 195.307683 391.625099 
L 195.759105 391.864525 
L 196.661949 392.905021 
L 198.016216 394.626459 
L 203.433281 400.656634 
L 204.336125 401.711241 
L 205.690391 403.042584 
L 207.496079 404.921289 
L 207.947501 405.575516 
L 208.398924 405.950403 
L 209.301768 406.953148 
L 210.204612 407.711153 
L 212.461722 410.228857 
L 212.913144 410.506103 
L 213.364566 411.022916 
L 214.718833 411.889031 
L 216.073099 413.280535 
L 216.975943 413.746294 
L 217.878787 414.455213 
L 218.781631 414.916128 
L 219.233054 415.394676 
L 220.135898 415.906556 
L 221.038742 416.620605 
L 221.490164 417.107066 
L 223.747274 418.746562 
L 226.004385 420.561285 
L 228.712917 422.430293 
L 229.615761 423.267693 
L 231.42145 424.39809 
L 232.775716 425.124094 
L 233.227138 425.499697 
L 235.032826 426.481181 
L 235.484249 426.810048 
L 236.387093 427.151508 
L 237.289937 427.9167 
L 238.644203 428.756992 
L 239.547047 429.535695 
L 240.449891 430.083795 
L 241.804158 430.855332 
L 244.51269 432.673319 
L 245.415534 433.126337 
L 246.318379 433.81276 
L 247.221223 434.421724 
L 249.478333 435.855592 
L 251.284021 436.76002 
L 252.186866 437.227408 
L 253.541132 437.928632 
L 254.443976 438.396281 
L 255.34682 438.878915 
L 255.798242 439.236998 
L 256.701086 439.579793 
L 257.152509 440.000153 
L 258.506775 440.638476 
L 259.409619 441.136958 
L 259.861041 441.199234 
L 263.472418 442.617172 
L 265.278106 443.286665 
L 268.889483 444.937528 
L 270.243749 445.295752 
L 270.695171 445.576011 
L 272.049437 445.996494 
L 278.369346 448.534408 
L 278.820769 448.643398 
L 279.723613 449.079357 
L 280.626457 449.468607 
L 282.883567 450.122686 
L 283.786411 450.402949 
L 286.946366 451.274875 
L 288.300632 451.773119 
L 291.460587 452.380354 
L 292.814853 452.738466 
L 302.294717 454.591309 
L 304.100405 454.949421 
L 305.906094 455.572225 
L 322.157289 458.265889 
L 324.414399 458.468301 
L 325.768665 458.655142 
L 326.671509 458.841984 
L 334.345685 459.791763 
L 337.957061 460.118736 
L 338.859906 460.227727 
L 353.756834 461.333207 
L 354.659679 461.426628 
L 358.722477 461.66018 
L 361.43101 461.831452 
L 368.653763 462.220705 
L 402.961841 463.295045 
L 412.893127 463.388466 
L 415.150238 463.435176 
L 421.921569 463.544167 
L 426.887212 463.606448 
L 447.201206 463.715439 
L 451.715426 463.762149 
L 539.291311 463.82443 
L 539.291311 463.82443 
" style="fill:none;stroke:#008000;stroke-linecap:square;stroke-width:1.5;"/>
   </g>
   <g id="line2d_14">
    <path clip-path="url(#pf2056dda3f)" d="M 133.462858 463.84 
L 133.462858 41.64 
" style="fill:none;stroke:#1f77b4;stroke-linecap:square;stroke-width:1.5;"/>
   </g>
   <g id="patch_3">
    <path d="M 109.108636 463.84 
L 109.108636 41.64 
" style="fill:none;stroke:#000000;stroke-linecap:square;stroke-linejoin:miter;stroke-width:0.8;"/>
   </g>
   <g id="patch_4">
    <path d="M 605.176364 463.84 
L 605.176364 41.64 
" style="fill:none;stroke:#000000;stroke-linecap:square;stroke-linejoin:miter;stroke-width:0.8;"/>
   </g>
   <g id="patch_5">
    <path d="M 109.108636 463.84 
L 605.176364 463.84 
" style="fill:none;stroke:#000000;stroke-linecap:square;stroke-linejoin:miter;stroke-width:0.8;"/>
   </g>
   <g id="patch_6">
    <path d="M 109.108636 41.64 
L 605.176364 41.64 
" style="fill:none;stroke:#000000;stroke-linecap:square;stroke-linejoin:miter;stroke-width:0.8;"/>
   </g>
   <g id="text_13">
    <!-- Purity/Efficiency vs LongitudinalSpanV Cutoff — track -->
    <defs>
     <path d="M 19.671875 64.796875 
L 19.671875 37.40625 
L 32.078125 37.40625 
Q 38.96875 37.40625 42.71875 40.96875 
Q 46.484375 44.53125 46.484375 51.125 
Q 46.484375 57.671875 42.71875 61.234375 
Q 38.96875 64.796875 32.078125 64.796875 
z
M 9.8125 72.90625 
L 32.078125 72.90625 
Q 44.34375 72.90625 50.609375 67.359375 
Q 56.890625 61.8125 56.890625 51.125 
Q 56.890625 40.328125 50.609375 34.8125 
Q 44.34375 29.296875 32.078125 29.296875 
L 19.671875 29.296875 
L 19.671875 0 
L 9.8125 0 
z
" id="DejaVuSans-80"/>
     <path d="M 32.171875 -5.078125 
Q 28.375 -14.84375 24.75 -17.8125 
Q 21.140625 -20.796875 15.09375 -20.796875 
L 7.90625 -20.796875 
L 7.90625 -13.28125 
L 13.1875 -13.28125 
Q 16.890625 -13.28125 18.9375 -11.515625 
Q 21 -9.765625 23.484375 -3.21875 
L 25.09375 0.875 
L 2.984375 54.6875 
L 12.5 54.6875 
L 29.59375 11.921875 
L 46.6875 54.6875 
L 56.203125 54.6875 
z
" id="DejaVuSans-121"/>
     <path d="M 25.390625 72.90625 
L 33.6875 72.90625 
L 8.296875 -9.28125 
L 0 -9.28125 
z
" id="DejaVuSans-47"/>
     <path d="M 9.8125 72.90625 
L 55.90625 72.90625 
L 55.90625 64.59375 
L 19.671875 64.59375 
L 19.671875 43.015625 
L 54.390625 43.015625 
L 54.390625 34.71875 
L 19.671875 34.71875 
L 19.671875 8.296875 
L 56.78125 8.296875 
L 56.78125 0 
L 9.8125 0 
z
" id="DejaVuSans-69"/>
     <path d="M 56.203125 29.59375 
L 56.203125 25.203125 
L 14.890625 25.203125 
Q 15.484375 15.921875 20.484375 11.0625 
Q 25.484375 6.203125 34.421875 6.203125 
Q 39.59375 6.203125 44.453125 7.46875 
Q 49.3125 8.734375 54.109375 11.28125 
L 54.109375 2.78125 
Q 49.265625 0.734375 44.1875 -0.34375 
Q 39.109375 -1.421875 33.890625 -1.421875 
Q 20.796875 -1.421875 13.15625 6.1875 
Q 5.515625 13.8125 5.515625 26.8125 
Q 5.515625 40.234375 12.765625 48.109375 
Q 20.015625 56 32.328125 56 
Q 43.359375 56 49.78125 48.890625 
Q 56.203125 41.796875 56.203125 29.59375 
z
M 47.21875 32.234375 
Q 47.125 39.59375 43.09375 43.984375 
Q 39.0625 48.390625 32.421875 48.390625 
Q 24.90625 48.390625 20.390625 44.140625 
Q 15.875 39.890625 15.1875 32.171875 
z
" id="DejaVuSans-101"/>
     <path d="M 2.984375 54.6875 
L 12.5 54.6875 
L 29.59375 8.796875 
L 46.6875 54.6875 
L 56.203125 54.6875 
L 35.6875 0 
L 23.484375 0 
z
" id="DejaVuSans-118"/>
     <path d="M 44.28125 53.078125 
L 44.28125 44.578125 
Q 40.484375 46.53125 36.375 47.5 
Q 32.28125 48.484375 27.875 48.484375 
Q 21.1875 48.484375 17.84375 46.4375 
Q 14.5 44.390625 14.5 40.28125 
Q 14.5 37.15625 16.890625 35.375 
Q 19.28125 33.59375 26.515625 31.984375 
L 29.59375 31.296875 
Q 39.15625 29.25 43.1875 25.515625 
Q 47.21875 21.78125 47.21875 15.09375 
Q 47.21875 7.46875 41.1875 3.015625 
Q 35.15625 -1.421875 24.609375 -1.421875 
Q 20.21875 -1.421875 15.453125 -0.5625 
Q 10.6875 0.296875 5.421875 2 
L 5.421875 11.28125 
Q 10.40625 8.6875 15.234375 7.390625 
Q 20.0625 6.109375 24.8125 6.109375 
Q 31.15625 6.109375 34.5625 8.28125 
Q 37.984375 10.453125 37.984375 14.40625 
Q 37.984375 18.0625 35.515625 20.015625 
Q 33.0625 21.96875 24.703125 23.78125 
L 21.578125 24.515625 
Q 13.234375 26.265625 9.515625 29.90625 
Q 5.8125 33.546875 5.8125 39.890625 
Q 5.8125 47.609375 11.28125 51.796875 
Q 16.75 56 26.8125 56 
Q 31.78125 56 36.171875 55.265625 
Q 40.578125 54.546875 44.28125 53.078125 
z
" id="DejaVuSans-115"/>
     <path d="M 4.890625 30.90625 
L 95.125 30.90625 
L 95.125 23.875 
L 4.890625 23.875 
z
" id="DejaVuSans-8212"/>
     <path d="M 9.078125 75.984375 
L 18.109375 75.984375 
L 18.109375 31.109375 
L 44.921875 54.6875 
L 56.390625 54.6875 
L 27.390625 29.109375 
L 57.625 0 
L 45.90625 0 
L 18.109375 26.703125 
L 18.109375 0 
L 9.078125 0 
z
" id="DejaVuSans-107"/>
    </defs>
    <g transform="translate(10.545525 35.64)scale(0.2592 -0.2592)">
     <use xlink:href="#DejaVuSans-80"/>
     <use x="60.287109" xlink:href="#DejaVuSans-117"/>
     <use x="123.666016" xlink:href="#DejaVuSans-114"/>
     <use x="164.779297" xlink:href="#DejaVuSans-105"/>
     <use x="192.5625" xlink:href="#DejaVuSans-116"/>
     <use x="231.771484" xlink:href="#DejaVuSans-121"/>
     <use x="290.951172" xlink:href="#DejaVuSans-47"/>
     <use x="324.642578" xlink:href="#DejaVuSans-69"/>
     <use x="387.826172" xlink:href="#DejaVuSans-102"/>
     <use x="423.03125" xlink:href="#DejaVuSans-102"/>
     <use x="458.236328" xlink:href="#DejaVuSans-105"/>
     <use x="486.019531" xlink:href="#DejaVuSans-99"/>
     <use x="541" xlink:href="#DejaVuSans-105"/>
     <use x="568.783203" xlink:href="#DejaVuSans-101"/>
     <use x="630.306641" xlink:href="#DejaVuSans-110"/>
     <use x="693.685547" xlink:href="#DejaVuSans-99"/>
     <use x="748.666016" xlink:href="#DejaVuSans-121"/>
     <use x="807.845703" xlink:href="#DejaVuSans-32"/>
     <use x="839.632812" xlink:href="#DejaVuSans-118"/>
     <use x="898.8125" xlink:href="#DejaVuSans-115"/>
     <use x="950.912109" xlink:href="#DejaVuSans-32"/>
     <use x="982.699219" xlink:href="#DejaVuSans-76"/>
     <use x="1038.396484" xlink:href="#DejaVuSans-111"/>
     <use x="1099.578125" xlink:href="#DejaVuSans-110"/>
     <use x="1162.957031" xlink:href="#DejaVuSans-103"/>
     <use x="1226.433594" xlink:href="#DejaVuSans-105"/>
     <use x="1254.216797" xlink:href="#DejaVuSans-116"/>
     <use x="1293.425781" xlink:href="#DejaVuSans-117"/>
     <use x="1356.804688" xlink:href="#DejaVuSans-100"/>
     <use x="1420.28125" xlink:href="#DejaVuSans-105"/>
     <use x="1448.064453" xlink:href="#DejaVuSans-110"/>
     <use x="1511.443359" xlink:href="#DejaVuSans-97"/>
     <use x="1572.722656" xlink:href="#DejaVuSans-108"/>
     <use x="1600.505859" xlink:href="#DejaVuSans-83"/>
     <use x="1663.982422" xlink:href="#DejaVuSans-112"/>
     <use x="1727.458984" xlink:href="#DejaVuSans-97"/>
     <use x="1788.738281" xlink:href="#DejaVuSans-110"/>
     <use x="1852.117188" xlink:href="#DejaVuSans-86"/>
     <use x="1920.525391" xlink:href="#DejaVuSans-32"/>
     <use x="1952.3125" xlink:href="#DejaVuSans-67"/>
     <use x="2022.136719" xlink:href="#DejaVuSans-117"/>
     <use x="2085.515625" xlink:href="#DejaVuSans-116"/>
     <use x="2124.724609" xlink:href="#DejaVuSans-111"/>
     <use x="2185.90625" xlink:href="#DejaVuSans-102"/>
     <use x="2221.111328" xlink:href="#DejaVuSans-102"/>
     <use x="2256.316406" xlink:href="#DejaVuSans-32"/>
     <use x="2288.103516" xlink:href="#DejaVuSans-8212"/>
     <use x="2388.103516" xlink:href="#DejaVuSans-32"/>
     <use x="2419.890625" xlink:href="#DejaVuSans-116"/>
     <use x="2459.099609" xlink:href="#DejaVuSans-114"/>
     <use x="2500.212891" xlink:href="#DejaVuSans-97"/>
     <use x="2561.492188" xlink:href="#DejaVuSans-99"/>
     <use x="2616.472656" xlink:href="#DejaVuSans-107"/>
    </g>
   </g>
   <g id="legend_1">
    <g id="patch_7">
     <path d="M 248.447813 454.84 
L 465.837188 454.84 
Q 469.437188 454.84 469.437188 451.24 
L 469.437188 373.778125 
Q 469.437188 370.178125 465.837188 370.178125 
L 248.447813 370.178125 
Q 244.847813 370.178125 244.847813 373.778125 
L 244.847813 451.24 
Q 244.847813 454.84 248.447813 454.84 
z
" style="fill:#ffffff;opacity:0.8;stroke:#cccccc;stroke-linejoin:miter;"/>
    </g>
    <g id="line2d_15">
     <path d="M 252.047813 384.755313 
L 288.047813 384.755313 
" style="fill:none;stroke:#0000ff;stroke-linecap:square;stroke-width:1.5;"/>
    </g>
    <g id="line2d_16"/>
    <g id="text_14">
     <!-- Efficiency -->
     <g transform="translate(302.447812 391.055313)scale(0.18 -0.18)">
      <use xlink:href="#DejaVuSans-69"/>
      <use x="63.183594" xlink:href="#DejaVuSans-102"/>
      <use x="98.388672" xlink:href="#DejaVuSans-102"/>
      <use x="133.59375" xlink:href="#DejaVuSans-105"/>
      <use x="161.376953" xlink:href="#DejaVuSans-99"/>
      <use x="216.357422" xlink:href="#DejaVuSans-105"/>
      <use x="244.140625" xlink:href="#DejaVuSans-101"/>
      <use x="305.664062" xlink:href="#DejaVuSans-110"/>
      <use x="369.042969" xlink:href="#DejaVuSans-99"/>
      <use x="424.023438" xlink:href="#DejaVuSans-121"/>
     </g>
    </g>
    <g id="line2d_17">
     <path d="M 252.047813 411.175937 
L 288.047813 411.175937 
" style="fill:none;stroke:#ff0000;stroke-linecap:square;stroke-width:1.5;"/>
    </g>
    <g id="line2d_18"/>
    <g id="text_15">
     <!-- Purity -->
     <g transform="translate(302.447812 417.475937)scale(0.18 -0.18)">
      <use xlink:href="#DejaVuSans-80"/>
      <use x="60.287109" xlink:href="#DejaVuSans-117"/>
      <use x="123.666016" xlink:href="#DejaVuSans-114"/>
      <use x="164.779297" xlink:href="#DejaVuSans-105"/>
      <use x="192.5625" xlink:href="#DejaVuSans-116"/>
      <use x="231.771484" xlink:href="#DejaVuSans-121"/>
     </g>
    </g>
    <g id="line2d_19">
     <path d="M 252.047813 437.596562 
L 288.047813 437.596562 
" style="fill:none;stroke:#008000;stroke-linecap:square;stroke-width:1.5;"/>
    </g>
    <g id="line2d_20"/>
    <g id="text_16">
     <!-- Purity * Efficiency -->
     <defs>
      <path d="M 47.015625 60.890625 
L 29.5 51.421875 
L 47.015625 41.890625 
L 44.1875 37.109375 
L 27.78125 47.015625 
L 27.78125 28.609375 
L 22.21875 28.609375 
L 22.21875 47.015625 
L 5.8125 37.109375 
L 2.984375 41.890625 
L 20.515625 51.421875 
L 2.984375 60.890625 
L 5.8125 65.71875 
L 22.21875 55.8125 
L 22.21875 74.21875 
L 27.78125 74.21875 
L 27.78125 55.8125 
L 44.1875 65.71875 
z
" id="DejaVuSans-42"/>
     </defs>
     <g transform="translate(302.447812 443.896562)scale(0.18 -0.18)">
      <use xlink:href="#DejaVuSans-80"/>
      <use x="60.287109" xlink:href="#DejaVuSans-117"/>
      <use x="123.666016" xlink:href="#DejaVuSans-114"/>
      <use x="164.779297" xlink:href="#DejaVuSans-105"/>
      <use x="192.5625" xlink:href="#DejaVuSans-116"/>
      <use x="231.771484" xlink:href="#DejaVuSans-121"/>
      <use x="290.951172" xlink:href="#DejaVuSans-32"/>
      <use x="322.738281" xlink:href="#DejaVuSans-42"/>
      <use x="372.738281" xlink:href="#DejaVuSans-32"/>
      <use x="404.525391" xlink:href="#DejaVuSans-69"/>
      <use x="467.708984" xlink:href="#DejaVuSans-102"/>
      <use x="502.914062" xlink:href="#DejaVuSans-102"/>
      <use x="538.119141" xlink:href="#DejaVuSans-105"/>
      <use x="565.902344" xlink:href="#DejaVuSans-99"/>
      <use x="620.882812" xlink:href="#DejaVuSans-105"/>
      <use x="648.666016" xlink:href="#DejaVuSans-101"/>
      <use x="710.189453" xlink:href="#DejaVuSans-110"/>
      <use x="773.568359" xlink:href="#DejaVuSans-99"/>
      <use x="828.548828" xlink:href="#DejaVuSans-121"/>
     </g>
    </g>
   </g>
  </g>
  <g id="axes_2">
   <g id="patch_8">
    <path d="M 821.008636 463.84 
L 1317.076364 463.84 
L 1317.076364 41.64 
L 821.008636 41.64 
z
" style="fill:#ffffff;"/>
   </g>
   <g id="matplotlib.axis_3">
    <g id="xtick_5">
     <g id="line2d_21">
      <g>
       <use style="stroke:#000000;stroke-width:0.8;" x="843.557169" xlink:href="#m62fd167df0" y="463.84"/>
      </g>
     </g>
     <g id="text_17">
      <!-- 0 -->
      <g transform="translate(835.311369 490.53515)scale(0.2592 -0.2592)">
       <use xlink:href="#DejaVuSans-48"/>
      </g>
     </g>
    </g>
    <g id="xtick_6">
     <g id="line2d_22">
      <g>
       <use style="stroke:#000000;stroke-width:0.8;" x="993.880723" xlink:href="#m62fd167df0" y="463.84"/>
      </g>
     </g>
     <g id="text_18">
      <!-- 200 -->
      <g transform="translate(969.143323 490.53515)scale(0.2592 -0.2592)">
       <use xlink:href="#DejaVuSans-50"/>
       <use x="63.623047" xlink:href="#DejaVuSans-48"/>
       <use x="127.246094" xlink:href="#DejaVuSans-48"/>
      </g>
     </g>
    </g>
    <g id="xtick_7">
     <g id="line2d_23">
      <g>
       <use style="stroke:#000000;stroke-width:0.8;" x="1144.204277" xlink:href="#m62fd167df0" y="463.84"/>
      </g>
     </g>
     <g id="text_19">
      <!-- 400 -->
      <g transform="translate(1119.466877 490.53515)scale(0.2592 -0.2592)">
       <use xlink:href="#DejaVuSans-52"/>
       <use x="63.623047" xlink:href="#DejaVuSans-48"/>
       <use x="127.246094" xlink:href="#DejaVuSans-48"/>
      </g>
     </g>
    </g>
    <g id="xtick_8">
     <g id="line2d_24">
      <g>
       <use style="stroke:#000000;stroke-width:0.8;" x="1294.527831" xlink:href="#m62fd167df0" y="463.84"/>
      </g>
     </g>
     <g id="text_20">
      <!-- 600 -->
      <g transform="translate(1269.790431 490.53515)scale(0.2592 -0.2592)">
       <use xlink:href="#DejaVuSans-54"/>
       <use x="63.623047" xlink:href="#DejaVuSans-48"/>
       <use x="127.246094" xlink:href="#DejaVuSans-48"/>
      </g>
     </g>
    </g>
    <g id="text_21">
     <!-- LongitudinalSpanV Cutoff -->
     <g transform="translate(903.9807 519.62085)scale(0.2592 -0.2592)">
      <use xlink:href="#DejaVuSans-76"/>
      <use x="55.697266" xlink:href="#DejaVuSans-111"/>
      <use x="116.878906" xlink:href="#DejaVuSans-110"/>
      <use x="180.257812" xlink:href="#DejaVuSans-103"/>
      <use x="243.734375" xlink:href="#DejaVuSans-105"/>
      <use x="271.517578" xlink:href="#DejaVuSans-116"/>
      <use x="310.726562" xlink:href="#DejaVuSans-117"/>
      <use x="374.105469" xlink:href="#DejaVuSans-100"/>
      <use x="437.582031" xlink:href="#DejaVuSans-105"/>
      <use x="465.365234" xlink:href="#DejaVuSans-110"/>
      <use x="528.744141" xlink:href="#DejaVuSans-97"/>
      <use x="590.023438" xlink:href="#DejaVuSans-108"/>
      <use x="617.806641" xlink:href="#DejaVuSans-83"/>
      <use x="681.283203" xlink:href="#DejaVuSans-112"/>
      <use x="744.759766" xlink:href="#DejaVuSans-97"/>
      <use x="806.039062" xlink:href="#DejaVuSans-110"/>
      <use x="869.417969" xlink:href="#DejaVuSans-86"/>
      <use x="937.826172" xlink:href="#DejaVuSans-32"/>
      <use x="969.613281" xlink:href="#DejaVuSans-67"/>
      <use x="1039.4375" xlink:href="#DejaVuSans-117"/>
      <use x="1102.816406" xlink:href="#DejaVuSans-116"/>
      <use x="1142.025391" xlink:href="#DejaVuSans-111"/>
      <use x="1203.207031" xlink:href="#DejaVuSans-102"/>
      <use x="1238.412109" xlink:href="#DejaVuSans-102"/>
     </g>
    </g>
   </g>
   <g id="matplotlib.axis_4">
    <g id="ytick_7">
     <g id="line2d_25">
      <g>
       <use style="stroke:#000000;stroke-width:0.8;" x="821.008636" xlink:href="#m562c46c59c" y="463.84"/>
      </g>
     </g>
     <g id="text_22">
      <!-- 0.0 -->
      <g transform="translate(772.787736 473.687575)scale(0.2592 -0.2592)">
       <use xlink:href="#DejaVuSans-48"/>
       <use x="63.623047" xlink:href="#DejaVuSans-46"/>
       <use x="95.410156" xlink:href="#DejaVuSans-48"/>
      </g>
     </g>
    </g>
    <g id="ytick_8">
     <g id="line2d_26">
      <g>
       <use style="stroke:#000000;stroke-width:0.8;" x="821.008636" xlink:href="#m562c46c59c" y="379.4"/>
      </g>
     </g>
     <g id="text_23">
      <!-- 0.2 -->
      <g transform="translate(772.787736 389.247575)scale(0.2592 -0.2592)">
       <use xlink:href="#DejaVuSans-48"/>
       <use x="63.623047" xlink:href="#DejaVuSans-46"/>
       <use x="95.410156" xlink:href="#DejaVuSans-50"/>
      </g>
     </g>
    </g>
    <g id="ytick_9">
     <g id="line2d_27">
      <g>
       <use style="stroke:#000000;stroke-width:0.8;" x="821.008636" xlink:href="#m562c46c59c" y="294.96"/>
      </g>
     </g>
     <g id="text_24">
      <!-- 0.4 -->
      <g transform="translate(772.787736 304.807575)scale(0.2592 -0.2592)">
       <use xlink:href="#DejaVuSans-48"/>
       <use x="63.623047" xlink:href="#DejaVuSans-46"/>
       <use x="95.410156" xlink:href="#DejaVuSans-52"/>
      </g>
     </g>
    </g>
    <g id="ytick_10">
     <g id="line2d_28">
      <g>
       <use style="stroke:#000000;stroke-width:0.8;" x="821.008636" xlink:href="#m562c46c59c" y="210.52"/>
      </g>
     </g>
     <g id="text_25">
      <!-- 0.6 -->
      <g transform="translate(772.787736 220.367575)scale(0.2592 -0.2592)">
       <use xlink:href="#DejaVuSans-48"/>
       <use x="63.623047" xlink:href="#DejaVuSans-46"/>
       <use x="95.410156" xlink:href="#DejaVuSans-54"/>
      </g>
     </g>
    </g>
    <g id="ytick_11">
     <g id="line2d_29">
      <g>
       <use style="stroke:#000000;stroke-width:0.8;" x="821.008636" xlink:href="#m562c46c59c" y="126.08"/>
      </g>
     </g>
     <g id="text_26">
      <!-- 0.8 -->
      <g transform="translate(772.787736 135.927575)scale(0.2592 -0.2592)">
       <use xlink:href="#DejaVuSans-48"/>
       <use x="63.623047" xlink:href="#DejaVuSans-46"/>
       <use x="95.410156" xlink:href="#DejaVuSans-56"/>
      </g>
     </g>
    </g>
    <g id="ytick_12">
     <g id="line2d_30">
      <g>
       <use style="stroke:#000000;stroke-width:0.8;" x="821.008636" xlink:href="#m562c46c59c" y="41.64"/>
      </g>
     </g>
     <g id="text_27">
      <!-- 1.0 -->
      <g transform="translate(772.787736 51.487575)scale(0.2592 -0.2592)">
       <use xlink:href="#DejaVuSans-49"/>
       <use x="63.623047" xlink:href="#DejaVuSans-46"/>
       <use x="95.410156" xlink:href="#DejaVuSans-48"/>
      </g>
     </g>
    </g>
    <g id="text_28">
     <!-- Fraction -->
     <g transform="translate(763.397186 305.400125)rotate(-90)scale(0.2592 -0.2592)">
      <use xlink:href="#DejaVuSans-70"/>
      <use x="57.410156" xlink:href="#DejaVuSans-114"/>
      <use x="98.523438" xlink:href="#DejaVuSans-97"/>
      <use x="159.802734" xlink:href="#DejaVuSans-99"/>
      <use x="214.783203" xlink:href="#DejaVuSans-116"/>
      <use x="253.992188" xlink:href="#DejaVuSans-105"/>
      <use x="281.775391" xlink:href="#DejaVuSans-111"/>
      <use x="342.957031" xlink:href="#DejaVuSans-110"/>
     </g>
    </g>
   </g>
   <g id="line2d_31">
    <path clip-path="url(#pa65457f0aa)" d="M 843.557169 463.84 
L 844.911436 463.750494 
L 845.362858 463.481976 
L 845.81428 462.989693 
L 846.265702 462.049879 
L 846.717124 460.483523 
L 847.619968 454.710384 
L 848.974234 436.898681 
L 849.877079 421.190371 
L 853.037033 361.534594 
L 854.391299 339.113331 
L 854.842722 333.832474 
L 857.099832 315.797007 
L 860.259787 299.193636 
L 862.065475 288.58717 
L 862.516897 286.66279 
L 862.968319 284.156621 
L 863.871163 280.218355 
L 866.579696 265.047081 
L 867.48254 261.019309 
L 870.191072 245.669023 
L 871.093916 239.582612 
L 871.545339 237.434467 
L 873.351027 226.872754 
L 874.253871 221.994675 
L 874.705293 219.219987 
L 875.156715 217.429866 
L 875.608137 214.52092 
L 876.962404 207.807967 
L 878.768092 198.007055 
L 879.670936 193.084223 
L 880.57378 188.519415 
L 881.476624 184.044113 
L 881.928046 182.52251 
L 882.830891 178.136714 
L 883.282313 176.391346 
L 884.636579 169.365122 
L 885.990845 164.084265 
L 886.893689 159.743222 
L 888.247956 154.283354 
L 889.1508 150.837371 
L 890.053644 147.883672 
L 890.956488 143.945406 
L 892.310754 138.66455 
L 893.213599 134.905296 
L 894.116443 131.996349 
L 894.567865 130.609006 
L 895.470709 126.625987 
L 898.630664 115.571991 
L 899.98493 111.633725 
L 900.887774 109.396074 
L 901.790618 107.605953 
L 906.304839 95.701649 
L 906.756261 94.717083 
L 907.659105 92.031902 
L 908.110527 91.136841 
L 908.561949 90.510299 
L 909.464794 88.362154 
L 910.367638 86.52728 
L 911.721904 83.797346 
L 913.979014 78.96402 
L 914.430436 78.247971 
L 915.333281 76.278838 
L 916.236125 74.801989 
L 917.590391 72.340572 
L 918.493235 71.400759 
L 918.944657 70.908476 
L 919.396079 70.058168 
L 920.298924 69.028849 
L 920.750346 68.268047 
L 922.556034 66.075149 
L 923.007456 65.180089 
L 923.9103 64.240276 
L 924.361722 64.061264 
L 926.167411 62.136884 
L 927.973099 59.85448 
L 928.424521 59.048925 
L 929.327365 58.064359 
L 929.778787 57.795841 
L 930.230209 57.169298 
L 931.584476 55.960967 
L 932.48732 54.797388 
L 932.938742 54.394611 
L 933.390164 54.260352 
L 934.74443 53.231032 
L 935.195852 52.693996 
L 938.355807 50.635357 
L 938.807229 50.456345 
L 940.161495 49.516532 
L 940.612917 49.203261 
L 941.064339 49.113755 
L 941.967184 48.442459 
L 942.870028 48.218694 
L 943.772872 47.726411 
L 944.675716 47.144622 
L 945.57856 46.876103 
L 946.029982 46.697091 
L 946.481404 46.697091 
L 946.932826 46.428573 
L 947.384249 46.339067 
L 948.287093 45.757278 
L 949.189937 45.623019 
L 949.641359 45.354501 
L 950.092781 44.951724 
L 952.349891 44.683205 
L 954.607002 43.832898 
L 955.509846 43.653886 
L 956.864112 43.206356 
L 957.766956 43.161603 
L 960.024067 42.803579 
L 961.829755 42.714073 
L 966.795398 42.311295 
L 971.761041 42.221789 
L 973.115307 42.177036 
L 974.018151 42.08753 
L 975.82384 41.998024 
L 979.886639 41.908518 
L 981.692327 41.819012 
L 992.977879 41.729506 
L 994.332145 41.684753 
L 1294.527831 41.64 
L 1294.527831 41.64 
" style="fill:none;stroke:#0000ff;stroke-linecap:square;stroke-width:1.5;"/>
   </g>
   <g id="line2d_32">
    <path clip-path="url(#pa65457f0aa)" d="M 844.911436 252.74 
L 845.362858 182.373333 
L 845.81428 196.446667 
L 846.265702 219.086377 
L 846.717124 212.530476 
L 847.168546 223.871624 
L 847.619968 231.059459 
L 848.07139 234.685395 
L 848.522812 244.814744 
L 849.425657 256.651757 
L 849.877079 260.115139 
L 850.328501 265.279738 
L 852.134189 277.346748 
L 852.585611 282.29486 
L 853.939877 291.528228 
L 854.391299 293.085189 
L 856.196988 308.432273 
L 857.099832 315.150806 
L 858.002676 321.940138 
L 858.454098 324.101154 
L 858.90552 327.044713 
L 860.259787 333.36761 
L 862.968319 341.659446 
L 863.871163 343.93368 
L 865.225429 345.661499 
L 865.676852 346.568238 
L 866.579696 347.808793 
L 867.031118 348.598795 
L 867.48254 349.11339 
L 867.933962 349.289225 
L 868.385384 349.614152 
L 868.836806 349.676149 
L 869.73965 350.221656 
L 870.191072 350.395421 
L 870.642494 350.195499 
L 871.093916 350.303229 
L 871.545339 350.697199 
L 871.996761 350.600268 
L 872.899605 350.912502 
L 873.351027 350.779311 
L 873.802449 350.963365 
L 874.705293 350.826033 
L 875.156715 351.179672 
L 875.608137 351.068451 
L 876.059559 351.250661 
L 876.510981 351.203043 
L 876.962404 351.343787 
L 878.31667 350.92137 
L 879.219514 351.033585 
L 879.670936 350.792423 
L 881.476624 350.40176 
L 881.928046 350.549246 
L 882.830891 350.381303 
L 883.282313 350.390199 
L 883.733735 350.253732 
L 884.185157 349.96089 
L 885.088001 349.904543 
L 885.539423 349.924433 
L 887.345111 349.541561 
L 894.116443 348.161287 
L 895.019287 347.956515 
L 895.922131 347.714293 
L 896.373553 347.657499 
L 897.276397 347.415978 
L 898.179241 347.233527 
L 900.887774 347.008862 
L 901.790618 347.047228 
L 903.144884 346.887051 
L 903.596306 346.907015 
L 904.047729 346.757384 
L 907.207683 346.52838 
L 907.659105 346.390223 
L 917.138969 346.074455 
L 918.493235 346.158125 
L 918.944657 346.238528 
L 919.396079 346.193048 
L 920.298924 346.287581 
L 923.9103 346.487746 
L 925.264566 346.64369 
L 927.521677 346.652544 
L 928.424521 346.609025 
L 930.681631 346.620929 
L 931.584476 346.667929 
L 932.938742 346.681741 
L 933.841586 346.802173 
L 936.550119 346.988892 
L 955.058424 348.636523 
L 956.864112 348.794692 
L 974.469574 350.635966 
L 977.629528 350.871418 
L 982.595171 351.274024 
L 986.65797 351.57632 
L 993.429301 352.097552 
L 1011.034762 352.968571 
L 1016.451827 353.174984 
L 1019.611782 353.335206 
L 1025.931691 353.528016 
L 1057.079815 354.262438 
L 1073.782432 354.485065 
L 1094.547848 354.652939 
L 1135.175835 354.811346 
L 1294.527831 354.86504 
L 1294.527831 354.86504 
" style="fill:none;stroke:#ff0000;stroke-linecap:square;stroke-width:1.5;"/>
   </g>
   <g id="line2d_33">
    <path clip-path="url(#pa65457f0aa)" d="M 844.911436 463.795247 
L 845.81428 463.301472 
L 846.265702 462.802249 
L 846.717124 461.842097 
L 847.619968 458.806374 
L 849.877079 443.260204 
L 852.134189 425.410608 
L 853.488455 418.449262 
L 854.391299 413.395474 
L 854.842722 412.518915 
L 855.294144 412.328933 
L 856.196988 411.735416 
L 856.64841 411.529114 
L 857.099832 411.70264 
L 858.002676 412.609246 
L 858.454098 412.500712 
L 858.90552 412.799147 
L 859.356942 412.722774 
L 860.259787 412.959364 
L 860.711209 412.710153 
L 861.162631 412.635785 
L 862.065475 411.926983 
L 862.516897 412.04994 
L 862.968319 411.841386 
L 863.871163 411.690792 
L 865.225429 410.149831 
L 865.676852 409.98996 
L 866.579696 409.206693 
L 867.031118 409.041182 
L 867.48254 408.726475 
L 870.191072 405.217748 
L 870.642494 404.223015 
L 871.093916 403.533368 
L 871.545339 403.166963 
L 872.448183 401.65056 
L 872.899605 401.175652 
L 873.351027 400.382681 
L 873.802449 399.875776 
L 874.705293 398.360422 
L 875.156715 398.08764 
L 875.608137 397.245735 
L 876.059559 396.792416 
L 876.510981 396.095449 
L 876.962404 395.619644 
L 878.768092 392.80452 
L 879.219514 392.226939 
L 880.122358 390.589583 
L 883.733735 385.856297 
L 884.636579 384.366447 
L 885.539423 383.517088 
L 887.796534 380.487056 
L 889.1508 378.781897 
L 890.053644 377.949904 
L 890.956488 376.671406 
L 892.310754 375.029114 
L 893.213599 373.779651 
L 893.665021 373.424582 
L 895.019287 371.786699 
L 895.922131 370.646474 
L 897.276397 369.03723 
L 897.727819 368.430969 
L 899.082086 367.20892 
L 899.98493 366.400432 
L 900.887774 365.758315 
L 901.790618 365.295325 
L 902.24204 364.897313 
L 902.693462 364.651343 
L 903.144884 364.156021 
L 903.596306 363.887955 
L 904.047729 363.325679 
L 905.853417 361.885977 
L 906.756261 361.330713 
L 907.659105 360.408502 
L 912.624748 357.38342 
L 913.979014 356.545325 
L 914.430436 356.36868 
L 915.333281 355.7577 
L 917.590391 354.643565 
L 918.944657 354.3911 
L 919.396079 354.111833 
L 920.298924 353.913411 
L 921.201768 353.596598 
L 923.9103 352.769587 
L 924.361722 352.8014 
L 927.973099 351.734949 
L 928.424521 351.442908 
L 929.327365 351.182527 
L 929.778787 351.143804 
L 930.681631 350.820637 
L 931.133054 350.816379 
L 932.938742 350.221078 
L 933.390164 350.274001 
L 934.74443 350.064412 
L 935.647274 349.864628 
L 936.550119 349.825324 
L 940.612917 349.376935 
L 941.064339 349.450211 
L 942.418606 349.343659 
L 943.32145 349.316218 
L 945.127138 349.175215 
L 946.932826 349.135178 
L 947.384249 349.170442 
L 948.287093 349.00953 
L 949.189937 349.12127 
L 950.544203 349.014594 
L 952.349891 349.21075 
L 954.607002 349.187101 
L 956.41269 349.22821 
L 957.315534 349.271331 
L 959.121223 349.422237 
L 964.086866 349.855362 
L 967.24682 350.130951 
L 969.052509 350.347331 
L 974.469574 350.743962 
L 977.629528 350.967215 
L 981.240905 351.230997 
L 983.949437 351.390087 
L 994.332145 352.162664 
L 1005.166275 352.732876 
L 1032.2516 353.744506 
L 1040.82862 353.966209 
L 1046.245685 354.084288 
L 1100.867757 354.706789 
L 1138.33579 354.817314 
L 1158.649784 354.841182 
L 1294.527831 354.86504 
L 1294.527831 354.86504 
" style="fill:none;stroke:#008000;stroke-linecap:square;stroke-width:1.5;"/>
   </g>
   <g id="line2d_34">
    <path clip-path="url(#pa65457f0aa)" d="M 950.092781 463.84 
L 950.092781 41.64 
" style="fill:none;stroke:#1f77b4;stroke-linecap:square;stroke-width:1.5;"/>
   </g>
   <g id="patch_9">
    <path d="M 821.008636 463.84 
L 821.008636 41.64 
" style="fill:none;stroke:#000000;stroke-linecap:square;stroke-linejoin:miter;stroke-width:0.8;"/>
   </g>
   <g id="patch_10">
    <path d="M 1317.076364 463.84 
L 1317.076364 41.64 
" style="fill:none;stroke:#000000;stroke-linecap:square;stroke-linejoin:miter;stroke-width:0.8;"/>
   </g>
   <g id="patch_11">
    <path d="M 821.008636 463.84 
L 1317.076364 463.84 
" style="fill:none;stroke:#000000;stroke-linecap:square;stroke-linejoin:miter;stroke-width:0.8;"/>
   </g>
   <g id="patch_12">
    <path d="M 821.008636 41.64 
L 1317.076364 41.64 
" style="fill:none;stroke:#000000;stroke-linecap:square;stroke-linejoin:miter;stroke-width:0.8;"/>
   </g>
   <g id="text_29">
    <!-- Purity/Efficiency vs LongitudinalSpanV Cutoff — shower -->
    <defs>
     <path d="M 54.890625 33.015625 
L 54.890625 0 
L 45.90625 0 
L 45.90625 32.71875 
Q 45.90625 40.484375 42.875 44.328125 
Q 39.84375 48.1875 33.796875 48.1875 
Q 26.515625 48.1875 22.3125 43.546875 
Q 18.109375 38.921875 18.109375 30.90625 
L 18.109375 0 
L 9.078125 0 
L 9.078125 75.984375 
L 18.109375 75.984375 
L 18.109375 46.1875 
Q 21.34375 51.125 25.703125 53.5625 
Q 30.078125 56 35.796875 56 
Q 45.21875 56 50.046875 50.171875 
Q 54.890625 44.34375 54.890625 33.015625 
z
" id="DejaVuSans-104"/>
     <path d="M 4.203125 54.6875 
L 13.1875 54.6875 
L 24.421875 12.015625 
L 35.59375 54.6875 
L 46.1875 54.6875 
L 57.421875 12.015625 
L 68.609375 54.6875 
L 77.59375 54.6875 
L 63.28125 0 
L 52.6875 0 
L 40.921875 44.828125 
L 29.109375 0 
L 18.5 0 
z
" id="DejaVuSans-119"/>
    </defs>
    <g transform="translate(708.630975 35.64)scale(0.2592 -0.2592)">
     <use xlink:href="#DejaVuSans-80"/>
     <use x="60.287109" xlink:href="#DejaVuSans-117"/>
     <use x="123.666016" xlink:href="#DejaVuSans-114"/>
     <use x="164.779297" xlink:href="#DejaVuSans-105"/>
     <use x="192.5625" xlink:href="#DejaVuSans-116"/>
     <use x="231.771484" xlink:href="#DejaVuSans-121"/>
     <use x="290.951172" xlink:href="#DejaVuSans-47"/>
     <use x="324.642578" xlink:href="#DejaVuSans-69"/>
     <use x="387.826172" xlink:href="#DejaVuSans-102"/>
     <use x="423.03125" xlink:href="#DejaVuSans-102"/>
     <use x="458.236328" xlink:href="#DejaVuSans-105"/>
     <use x="486.019531" xlink:href="#DejaVuSans-99"/>
     <use x="541" xlink:href="#DejaVuSans-105"/>
     <use x="568.783203" xlink:href="#DejaVuSans-101"/>
     <use x="630.306641" xlink:href="#DejaVuSans-110"/>
     <use x="693.685547" xlink:href="#DejaVuSans-99"/>
     <use x="748.666016" xlink:href="#DejaVuSans-121"/>
     <use x="807.845703" xlink:href="#DejaVuSans-32"/>
     <use x="839.632812" xlink:href="#DejaVuSans-118"/>
     <use x="898.8125" xlink:href="#DejaVuSans-115"/>
     <use x="950.912109" xlink:href="#DejaVuSans-32"/>
     <use x="982.699219" xlink:href="#DejaVuSans-76"/>
     <use x="1038.396484" xlink:href="#DejaVuSans-111"/>
     <use x="1099.578125" xlink:href="#DejaVuSans-110"/>
     <use x="1162.957031" xlink:href="#DejaVuSans-103"/>
     <use x="1226.433594" xlink:href="#DejaVuSans-105"/>
     <use x="1254.216797" xlink:href="#DejaVuSans-116"/>
     <use x="1293.425781" xlink:href="#DejaVuSans-117"/>
     <use x="1356.804688" xlink:href="#DejaVuSans-100"/>
     <use x="1420.28125" xlink:href="#DejaVuSans-105"/>
     <use x="1448.064453" xlink:href="#DejaVuSans-110"/>
     <use x="1511.443359" xlink:href="#DejaVuSans-97"/>
     <use x="1572.722656" xlink:href="#DejaVuSans-108"/>
     <use x="1600.505859" xlink:href="#DejaVuSans-83"/>
     <use x="1663.982422" xlink:href="#DejaVuSans-112"/>
     <use x="1727.458984" xlink:href="#DejaVuSans-97"/>
     <use x="1788.738281" xlink:href="#DejaVuSans-110"/>
     <use x="1852.117188" xlink:href="#DejaVuSans-86"/>
     <use x="1920.525391" xlink:href="#DejaVuSans-32"/>
     <use x="1952.3125" xlink:href="#DejaVuSans-67"/>
     <use x="2022.136719" xlink:href="#DejaVuSans-117"/>
     <use x="2085.515625" xlink:href="#DejaVuSans-116"/>
     <use x="2124.724609" xlink:href="#DejaVuSans-111"/>
     <use x="2185.90625" xlink:href="#DejaVuSans-102"/>
     <use x="2221.111328" xlink:href="#DejaVuSans-102"/>
     <use x="2256.316406" xlink:href="#DejaVuSans-32"/>
     <use x="2288.103516" xlink:href="#DejaVuSans-8212"/>
     <use x="2388.103516" xlink:href="#DejaVuSans-32"/>
     <use x="2419.890625" xlink:href="#DejaVuSans-115"/>
     <use x="2471.990234" xlink:href="#DejaVuSans-104"/>
     <use x="2535.369141" xlink:href="#DejaVuSans-111"/>
     <use x="2596.550781" xlink:href="#DejaVuSans-119"/>
     <use x="2678.337891" xlink:href="#DejaVuSans-101"/>
     <use x="2739.861328" xlink:href="#DejaVuSans-114"/>
    </g>
   </g>
   <g id="legend_2">
    <g id="patch_13">
     <path d="M 960.347813 454.84 
L 1177.737188 454.84 
Q 1181.337188 454.84 1181.337188 451.24 
L 1181.337188 373.778125 
Q 1181.337188 370.178125 1177.737188 370.178125 
L 960.347813 370.178125 
Q 956.747813 370.178125 956.747813 373.778125 
L 956.747813 451.24 
Q 956.747813 454.84 960.347813 454.84 
z
" style="fill:#ffffff;opacity:0.8;stroke:#cccccc;stroke-linejoin:miter;"/>
    </g>
    <g id="line2d_35">
     <path d="M 963.947813 384.755313 
L 999.947813 384.755313 
" style="fill:none;stroke:#0000ff;stroke-linecap:square;stroke-width:1.5;"/>
    </g>
    <g id="line2d_36"/>
    <g id="text_30">
     <!-- Efficiency -->
     <g transform="translate(1014.347813 391.055313)scale(0.18 -0.18)">
      <use xlink:href="#DejaVuSans-69"/>
      <use x="63.183594" xlink:href="#DejaVuSans-102"/>
      <use x="98.388672" xlink:href="#DejaVuSans-102"/>
      <use x="133.59375" xlink:href="#DejaVuSans-105"/>
      <use x="161.376953" xlink:href="#DejaVuSans-99"/>
      <use x="216.357422" xlink:href="#DejaVuSans-105"/>
      <use x="244.140625" xlink:href="#DejaVuSans-101"/>
      <use x="305.664062" xlink:href="#DejaVuSans-110"/>
      <use x="369.042969" xlink:href="#DejaVuSans-99"/>
      <use x="424.023438" xlink:href="#DejaVuSans-121"/>
     </g>
    </g>
    <g id="line2d_37">
     <path d="M 963.947813 411.175937 
L 999.947813 411.175937 
" style="fill:none;stroke:#ff0000;stroke-linecap:square;stroke-width:1.5;"/>
    </g>
    <g id="line2d_38"/>
    <g id="text_31">
     <!-- Purity -->
     <g transform="translate(1014.347813 417.475937)scale(0.18 -0.18)">
      <use xlink:href="#DejaVuSans-80"/>
      <use x="60.287109" xlink:href="#DejaVuSans-117"/>
      <use x="123.666016" xlink:href="#DejaVuSans-114"/>
      <use x="164.779297" xlink:href="#DejaVuSans-105"/>
      <use x="192.5625" xlink:href="#DejaVuSans-116"/>
      <use x="231.771484" xlink:href="#DejaVuSans-121"/>
     </g>
    </g>
    <g id="line2d_39">
     <path d="M 963.947813 437.596562 
L 999.947813 437.596562 
" style="fill:none;stroke:#008000;stroke-linecap:square;stroke-width:1.5;"/>
    </g>
    <g id="line2d_40"/>
    <g id="text_32">
     <!-- Purity * Efficiency -->
     <g transform="translate(1014.347813 443.896562)scale(0.18 -0.18)">
      <use xlink:href="#DejaVuSans-80"/>
      <use x="60.287109" xlink:href="#DejaVuSans-117"/>
      <use x="123.666016" xlink:href="#DejaVuSans-114"/>
      <use x="164.779297" xlink:href="#DejaVuSans-105"/>
      <use x="192.5625" xlink:href="#DejaVuSans-116"/>
      <use x="231.771484" xlink:href="#DejaVuSans-121"/>
      <use x="290.951172" xlink:href="#DejaVuSans-32"/>
      <use x="322.738281" xlink:href="#DejaVuSans-42"/>
      <use x="372.738281" xlink:href="#DejaVuSans-32"/>
      <use x="404.525391" xlink:href="#DejaVuSans-69"/>
      <use x="467.708984" xlink:href="#DejaVuSans-102"/>
      <use x="502.914062" xlink:href="#DejaVuSans-102"/>
      <use x="538.119141" xlink:href="#DejaVuSans-105"/>
      <use x="565.902344" xlink:href="#DejaVuSans-99"/>
      <use x="620.882812" xlink:href="#DejaVuSans-105"/>
      <use x="648.666016" xlink:href="#DejaVuSans-101"/>
      <use x="710.189453" xlink:href="#DejaVuSans-110"/>
      <use x="773.568359" xlink:href="#DejaVuSans-99"/>
      <use x="828.548828" xlink:href="#DejaVuSans-121"/>
     </g>
    </g>
   </g>
  </g>
 </g>
 <defs>
  <clipPath id="pf2056dda3f">
   <rect height="422.2" width="496.067727" x="109.108636" y="41.64"/>
  </clipPath>
  <clipPath id="pa65457f0aa">
   <rect height="422.2" width="496.067727" x="821.008636" y="41.64"/>
  </clipPath>
 </defs>
</svg>
