<?xml version="1.0" encoding="utf-8" standalone="no"?>
<!DOCTYPE svg PUBLIC "-//W3C//DTD SVG 1.1//EN"
  "http://www.w3.org/Graphics/SVG/1.1/DTD/svg11.dtd">
<!-- Created with matplotlib (https://matplotlib.org/) -->
<svg height="540pt" version="1.1" viewBox="0 0 1440 540" width="1440pt" xmlns="http://www.w3.org/2000/svg" xmlns:xlink="http://www.w3.org/1999/xlink">
 <defs>
  <style type="text/css">
*{stroke-linecap:butt;stroke-linejoin:round;}
  </style>
 </defs>
 <g id="figure_1">
  <g id="patch_1">
   <path d="M 0 540 
L 1440 540 
L 1440 0 
L 0 0 
z
" style="fill:#ffffff;"/>
  </g>
  <g id="axes_1">
   <g id="patch_2">
    <path d="M 92.99 463.84 
L 679.201364 463.84 
L 679.201364 41.64 
L 92.99 41.64 
z
" style="fill:#ffffff;"/>
   </g>
   <g id="matplotlib.axis_1">
    <g id="xtick_1">
     <g id="line2d_1">
      <defs>
       <path d="M 0 0 
L 0 3.5 
" id="mc05b7afd19" style="stroke:#000000;stroke-width:0.8;"/>
      </defs>
      <g>
       <use style="stroke:#000000;stroke-width:0.8;" x="119.635971" xlink:href="#mc05b7afd19" y="463.84"/>
      </g>
     </g>
     <g id="text_1">
      <!-- 0 -->
      <defs>
       <path d="M 31.78125 66.40625 
Q 24.171875 66.40625 20.328125 58.90625 
Q 16.5 51.421875 16.5 36.375 
Q 16.5 21.390625 20.328125 13.890625 
Q 24.171875 6.390625 31.78125 6.390625 
Q 39.453125 6.390625 43.28125 13.890625 
Q 47.125 21.390625 47.125 36.375 
Q 47.125 51.421875 43.28125 58.90625 
Q 39.453125 66.40625 31.78125 66.40625 
z
M 31.78125 74.21875 
Q 44.046875 74.21875 50.515625 64.515625 
Q 56.984375 54.828125 56.984375 36.375 
Q 56.984375 17.96875 50.515625 8.265625 
Q 44.046875 -1.421875 31.78125 -1.421875 
Q 19.53125 -1.421875 13.0625 8.265625 
Q 6.59375 17.96875 6.59375 36.375 
Q 6.59375 54.828125 13.0625 64.515625 
Q 19.53125 74.21875 31.78125 74.21875 
z
" id="DejaVuSans-48"/>
      </defs>
      <g transform="translate(111.390171 490.53515)scale(0.2592 -0.2592)">
       <use xlink:href="#DejaVuSans-48"/>
      </g>
     </g>
    </g>
    <g id="xtick_2">
     <g id="line2d_2">
      <g>
       <use style="stroke:#000000;stroke-width:0.8;" x="252.865826" xlink:href="#mc05b7afd19" y="463.84"/>
      </g>
     </g>
     <g id="text_2">
      <!-- 500 -->
      <defs>
       <path d="M 10.796875 72.90625 
L 49.515625 72.90625 
L 49.515625 64.59375 
L 19.828125 64.59375 
L 19.828125 46.734375 
Q 21.96875 47.46875 24.109375 47.828125 
Q 26.265625 48.1875 28.421875 48.1875 
Q 40.625 48.1875 47.75 41.5 
Q 54.890625 34.8125 54.890625 23.390625 
Q 54.890625 11.625 47.5625 5.09375 
Q 40.234375 -1.421875 26.90625 -1.421875 
Q 22.3125 -1.421875 17.546875 -0.640625 
Q 12.796875 0.140625 7.71875 1.703125 
L 7.71875 11.625 
Q 12.109375 9.234375 16.796875 8.0625 
Q 21.484375 6.890625 26.703125 6.890625 
Q 35.15625 6.890625 40.078125 11.328125 
Q 45.015625 15.765625 45.015625 23.390625 
Q 45.015625 31 40.078125 35.4375 
Q 35.15625 39.890625 26.703125 39.890625 
Q 22.75 39.890625 18.8125 39.015625 
Q 14.890625 38.140625 10.796875 36.28125 
z
" id="DejaVuSans-53"/>
      </defs>
      <g transform="translate(228.128426 490.53515)scale(0.2592 -0.2592)">
       <use xlink:href="#DejaVuSans-53"/>
       <use x="63.623047" xlink:href="#DejaVuSans-48"/>
       <use x="127.246094" xlink:href="#DejaVuSans-48"/>
      </g>
     </g>
    </g>
    <g id="xtick_3">
     <g id="line2d_3">
      <g>
       <use style="stroke:#000000;stroke-width:0.8;" x="386.095682" xlink:href="#mc05b7afd19" y="463.84"/>
      </g>
     </g>
     <g id="text_3">
      <!-- 1000 -->
      <defs>
       <path d="M 12.40625 8.296875 
L 28.515625 8.296875 
L 28.515625 63.921875 
L 10.984375 60.40625 
L 10.984375 69.390625 
L 28.421875 72.90625 
L 38.28125 72.90625 
L 38.28125 8.296875 
L 54.390625 8.296875 
L 54.390625 0 
L 12.40625 0 
z
" id="DejaVuSans-49"/>
      </defs>
      <g transform="translate(353.112482 490.53515)scale(0.2592 -0.2592)">
       <use xlink:href="#DejaVuSans-49"/>
       <use x="63.623047" xlink:href="#DejaVuSans-48"/>
       <use x="127.246094" xlink:href="#DejaVuSans-48"/>
       <use x="190.869141" xlink:href="#DejaVuSans-48"/>
      </g>
     </g>
    </g>
    <g id="xtick_4">
     <g id="line2d_4">
      <g>
       <use style="stroke:#000000;stroke-width:0.8;" x="519.325537" xlink:href="#mc05b7afd19" y="463.84"/>
      </g>
     </g>
     <g id="text_4">
      <!-- 1500 -->
      <g transform="translate(486.342337 490.53515)scale(0.2592 -0.2592)">
       <use xlink:href="#DejaVuSans-49"/>
       <use x="63.623047" xlink:href="#DejaVuSans-53"/>
       <use x="127.246094" xlink:href="#DejaVuSans-48"/>
       <use x="190.869141" xlink:href="#DejaVuSans-48"/>
      </g>
     </g>
    </g>
    <g id="xtick_5">
     <g id="line2d_5">
      <g>
       <use style="stroke:#000000;stroke-width:0.8;" x="652.555393" xlink:href="#mc05b7afd19" y="463.84"/>
      </g>
     </g>
     <g id="text_5">
      <!-- 2000 -->
      <defs>
       <path d="M 19.1875 8.296875 
L 53.609375 8.296875 
L 53.609375 0 
L 7.328125 0 
L 7.328125 8.296875 
Q 12.9375 14.109375 22.625 23.890625 
Q 32.328125 33.6875 34.8125 36.53125 
Q 39.546875 41.84375 41.421875 45.53125 
Q 43.3125 49.21875 43.3125 52.78125 
Q 43.3125 58.59375 39.234375 62.25 
Q 35.15625 65.921875 28.609375 65.921875 
Q 23.96875 65.921875 18.8125 64.3125 
Q 13.671875 62.703125 7.8125 59.421875 
L 7.8125 69.390625 
Q 13.765625 71.78125 18.9375 73 
Q 24.125 74.21875 28.421875 74.21875 
Q 39.75 74.21875 46.484375 68.546875 
Q 53.21875 62.890625 53.21875 53.421875 
Q 53.21875 48.921875 51.53125 44.890625 
Q 49.859375 40.875 45.40625 35.40625 
Q 44.1875 33.984375 37.640625 27.21875 
Q 31.109375 20.453125 19.1875 8.296875 
z
" id="DejaVuSans-50"/>
      </defs>
      <g transform="translate(619.572193 490.53515)scale(0.2592 -0.2592)">
       <use xlink:href="#DejaVuSans-50"/>
       <use x="63.623047" xlink:href="#DejaVuSans-48"/>
       <use x="127.246094" xlink:href="#DejaVuSans-48"/>
       <use x="190.869141" xlink:href="#DejaVuSans-48"/>
      </g>
     </g>
    </g>
    <g id="text_6">
     <!-- dedxW Cutoff -->
     <defs>
      <path d="M 45.40625 46.390625 
L 45.40625 75.984375 
L 54.390625 75.984375 
L 54.390625 0 
L 45.40625 0 
L 45.40625 8.203125 
Q 42.578125 3.328125 38.25 0.953125 
Q 33.9375 -1.421875 27.875 -1.421875 
Q 17.96875 -1.421875 11.734375 6.484375 
Q 5.515625 14.40625 5.515625 27.296875 
Q 5.515625 40.1875 11.734375 48.09375 
Q 17.96875 56 27.875 56 
Q 33.9375 56 38.25 53.625 
Q 42.578125 51.265625 45.40625 46.390625 
z
M 14.796875 27.296875 
Q 14.796875 17.390625 18.875 11.75 
Q 22.953125 6.109375 30.078125 6.109375 
Q 37.203125 6.109375 41.296875 11.75 
Q 45.40625 17.390625 45.40625 27.296875 
Q 45.40625 37.203125 41.296875 42.84375 
Q 37.203125 48.484375 30.078125 48.484375 
Q 22.953125 48.484375 18.875 42.84375 
Q 14.796875 37.203125 14.796875 27.296875 
z
" id="DejaVuSans-100"/>
      <path d="M 56.203125 29.59375 
L 56.203125 25.203125 
L 14.890625 25.203125 
Q 15.484375 15.921875 20.484375 11.0625 
Q 25.484375 6.203125 34.421875 6.203125 
Q 39.59375 6.203125 44.453125 7.46875 
Q 49.3125 8.734375 54.109375 11.28125 
L 54.109375 2.78125 
Q 49.265625 0.734375 44.1875 -0.34375 
Q 39.109375 -1.421875 33.890625 -1.421875 
Q 20.796875 -1.421875 13.15625 6.1875 
Q 5.515625 13.8125 5.515625 26.8125 
Q 5.515625 40.234375 12.765625 48.109375 
Q 20.015625 56 32.328125 56 
Q 43.359375 56 49.78125 48.890625 
Q 56.203125 41.796875 56.203125 29.59375 
z
M 47.21875 32.234375 
Q 47.125 39.59375 43.09375 43.984375 
Q 39.0625 48.390625 32.421875 48.390625 
Q 24.90625 48.390625 20.390625 44.140625 
Q 15.875 39.890625 15.1875 32.171875 
z
" id="DejaVuSans-101"/>
      <path d="M 54.890625 54.6875 
L 35.109375 28.078125 
L 55.90625 0 
L 45.3125 0 
L 29.390625 21.484375 
L 13.484375 0 
L 2.875 0 
L 24.125 28.609375 
L 4.6875 54.6875 
L 15.28125 54.6875 
L 29.78125 35.203125 
L 44.28125 54.6875 
z
" id="DejaVuSans-120"/>
      <path d="M 3.328125 72.90625 
L 13.28125 72.90625 
L 28.609375 11.28125 
L 43.890625 72.90625 
L 54.984375 72.90625 
L 70.3125 11.28125 
L 85.59375 72.90625 
L 95.609375 72.90625 
L 77.296875 0 
L 64.890625 0 
L 49.515625 63.28125 
L 33.984375 0 
L 21.578125 0 
z
" id="DejaVuSans-87"/>
      <path id="DejaVuSans-32"/>
      <path d="M 64.40625 67.28125 
L 64.40625 56.890625 
Q 59.421875 61.53125 53.78125 63.8125 
Q 48.140625 66.109375 41.796875 66.109375 
Q 29.296875 66.109375 22.65625 58.46875 
Q 16.015625 50.828125 16.015625 36.375 
Q 16.015625 21.96875 22.65625 14.328125 
Q 29.296875 6.6875 41.796875 6.6875 
Q 48.140625 6.6875 53.78125 8.984375 
Q 59.421875 11.28125 64.40625 15.921875 
L 64.40625 5.609375 
Q 59.234375 2.09375 53.4375 0.328125 
Q 47.65625 -1.421875 41.21875 -1.421875 
Q 24.65625 -1.421875 15.125 8.703125 
Q 5.609375 18.84375 5.609375 36.375 
Q 5.609375 53.953125 15.125 64.078125 
Q 24.65625 74.21875 41.21875 74.21875 
Q 47.75 74.21875 53.53125 72.484375 
Q 59.328125 70.75 64.40625 67.28125 
z
" id="DejaVuSans-67"/>
      <path d="M 8.5 21.578125 
L 8.5 54.6875 
L 17.484375 54.6875 
L 17.484375 21.921875 
Q 17.484375 14.15625 20.5 10.265625 
Q 23.53125 6.390625 29.59375 6.390625 
Q 36.859375 6.390625 41.078125 11.03125 
Q 45.3125 15.671875 45.3125 23.6875 
L 45.3125 54.6875 
L 54.296875 54.6875 
L 54.296875 0 
L 45.3125 0 
L 45.3125 8.40625 
Q 42.046875 3.421875 37.71875 1 
Q 33.40625 -1.421875 27.6875 -1.421875 
Q 18.265625 -1.421875 13.375 4.4375 
Q 8.5 10.296875 8.5 21.578125 
z
M 31.109375 56 
z
" id="DejaVuSans-117"/>
      <path d="M 18.3125 70.21875 
L 18.3125 54.6875 
L 36.8125 54.6875 
L 36.8125 47.703125 
L 18.3125 47.703125 
L 18.3125 18.015625 
Q 18.3125 11.328125 20.140625 9.421875 
Q 21.96875 7.515625 27.59375 7.515625 
L 36.8125 7.515625 
L 36.8125 0 
L 27.59375 0 
Q 17.1875 0 13.234375 3.875 
Q 9.28125 7.765625 9.28125 18.015625 
L 9.28125 47.703125 
L 2.6875 47.703125 
L 2.6875 54.6875 
L 9.28125 54.6875 
L 9.28125 70.21875 
z
" id="DejaVuSans-116"/>
      <path d="M 30.609375 48.390625 
Q 23.390625 48.390625 19.1875 42.75 
Q 14.984375 37.109375 14.984375 27.296875 
Q 14.984375 17.484375 19.15625 11.84375 
Q 23.34375 6.203125 30.609375 6.203125 
Q 37.796875 6.203125 41.984375 11.859375 
Q 46.1875 17.53125 46.1875 27.296875 
Q 46.1875 37.015625 41.984375 42.703125 
Q 37.796875 48.390625 30.609375 48.390625 
z
M 30.609375 56 
Q 42.328125 56 49.015625 48.375 
Q 55.71875 40.765625 55.71875 27.296875 
Q 55.71875 13.875 49.015625 6.21875 
Q 42.328125 -1.421875 30.609375 -1.421875 
Q 18.84375 -1.421875 12.171875 6.21875 
Q 5.515625 13.875 5.515625 27.296875 
Q 5.515625 40.765625 12.171875 48.375 
Q 18.84375 56 30.609375 56 
z
" id="DejaVuSans-111"/>
      <path d="M 37.109375 75.984375 
L 37.109375 68.5 
L 28.515625 68.5 
Q 23.6875 68.5 21.796875 66.546875 
Q 19.921875 64.59375 19.921875 59.515625 
L 19.921875 54.6875 
L 34.71875 54.6875 
L 34.71875 47.703125 
L 19.921875 47.703125 
L 19.921875 0 
L 10.890625 0 
L 10.890625 47.703125 
L 2.296875 47.703125 
L 2.296875 54.6875 
L 10.890625 54.6875 
L 10.890625 58.5 
Q 10.890625 67.625 15.140625 71.796875 
Q 19.390625 75.984375 28.609375 75.984375 
z
" id="DejaVuSans-102"/>
     </defs>
     <g transform="translate(297.663932 519.62085)scale(0.2592 -0.2592)">
      <use xlink:href="#DejaVuSans-100"/>
      <use x="63.476562" xlink:href="#DejaVuSans-101"/>
      <use x="125" xlink:href="#DejaVuSans-100"/>
      <use x="188.476562" xlink:href="#DejaVuSans-120"/>
      <use x="247.65625" xlink:href="#DejaVuSans-87"/>
      <use x="346.533203" xlink:href="#DejaVuSans-32"/>
      <use x="378.320312" xlink:href="#DejaVuSans-67"/>
      <use x="448.144531" xlink:href="#DejaVuSans-117"/>
      <use x="511.523438" xlink:href="#DejaVuSans-116"/>
      <use x="550.732422" xlink:href="#DejaVuSans-111"/>
      <use x="611.914062" xlink:href="#DejaVuSans-102"/>
      <use x="647.119141" xlink:href="#DejaVuSans-102"/>
     </g>
    </g>
   </g>
   <g id="matplotlib.axis_2">
    <g id="ytick_1">
     <g id="line2d_6">
      <defs>
       <path d="M 0 0 
L -3.5 0 
" id="m8f377987c9" style="stroke:#000000;stroke-width:0.8;"/>
      </defs>
      <g>
       <use style="stroke:#000000;stroke-width:0.8;" x="92.99" xlink:href="#m8f377987c9" y="463.84"/>
      </g>
     </g>
     <g id="text_7">
      <!-- 0.0 -->
      <defs>
       <path d="M 10.6875 12.40625 
L 21 12.40625 
L 21 0 
L 10.6875 0 
z
" id="DejaVuSans-46"/>
      </defs>
      <g transform="translate(44.7691 473.687575)scale(0.2592 -0.2592)">
       <use xlink:href="#DejaVuSans-48"/>
       <use x="63.623047" xlink:href="#DejaVuSans-46"/>
       <use x="95.410156" xlink:href="#DejaVuSans-48"/>
      </g>
     </g>
    </g>
    <g id="ytick_2">
     <g id="line2d_7">
      <g>
       <use style="stroke:#000000;stroke-width:0.8;" x="92.99" xlink:href="#m8f377987c9" y="379.4"/>
      </g>
     </g>
     <g id="text_8">
      <!-- 0.2 -->
      <g transform="translate(44.7691 389.247575)scale(0.2592 -0.2592)">
       <use xlink:href="#DejaVuSans-48"/>
       <use x="63.623047" xlink:href="#DejaVuSans-46"/>
       <use x="95.410156" xlink:href="#DejaVuSans-50"/>
      </g>
     </g>
    </g>
    <g id="ytick_3">
     <g id="line2d_8">
      <g>
       <use style="stroke:#000000;stroke-width:0.8;" x="92.99" xlink:href="#m8f377987c9" y="294.96"/>
      </g>
     </g>
     <g id="text_9">
      <!-- 0.4 -->
      <defs>
       <path d="M 37.796875 64.3125 
L 12.890625 25.390625 
L 37.796875 25.390625 
z
M 35.203125 72.90625 
L 47.609375 72.90625 
L 47.609375 25.390625 
L 58.015625 25.390625 
L 58.015625 17.1875 
L 47.609375 17.1875 
L 47.609375 0 
L 37.796875 0 
L 37.796875 17.1875 
L 4.890625 17.1875 
L 4.890625 26.703125 
z
" id="DejaVuSans-52"/>
      </defs>
      <g transform="translate(44.7691 304.807575)scale(0.2592 -0.2592)">
       <use xlink:href="#DejaVuSans-48"/>
       <use x="63.623047" xlink:href="#DejaVuSans-46"/>
       <use x="95.410156" xlink:href="#DejaVuSans-52"/>
      </g>
     </g>
    </g>
    <g id="ytick_4">
     <g id="line2d_9">
      <g>
       <use style="stroke:#000000;stroke-width:0.8;" x="92.99" xlink:href="#m8f377987c9" y="210.52"/>
      </g>
     </g>
     <g id="text_10">
      <!-- 0.6 -->
      <defs>
       <path d="M 33.015625 40.375 
Q 26.375 40.375 22.484375 35.828125 
Q 18.609375 31.296875 18.609375 23.390625 
Q 18.609375 15.53125 22.484375 10.953125 
Q 26.375 6.390625 33.015625 6.390625 
Q 39.65625 6.390625 43.53125 10.953125 
Q 47.40625 15.53125 47.40625 23.390625 
Q 47.40625 31.296875 43.53125 35.828125 
Q 39.65625 40.375 33.015625 40.375 
z
M 52.59375 71.296875 
L 52.59375 62.3125 
Q 48.875 64.0625 45.09375 64.984375 
Q 41.3125 65.921875 37.59375 65.921875 
Q 27.828125 65.921875 22.671875 59.328125 
Q 17.53125 52.734375 16.796875 39.40625 
Q 19.671875 43.65625 24.015625 45.921875 
Q 28.375 48.1875 33.59375 48.1875 
Q 44.578125 48.1875 50.953125 41.515625 
Q 57.328125 34.859375 57.328125 23.390625 
Q 57.328125 12.15625 50.6875 5.359375 
Q 44.046875 -1.421875 33.015625 -1.421875 
Q 20.359375 -1.421875 13.671875 8.265625 
Q 6.984375 17.96875 6.984375 36.375 
Q 6.984375 53.65625 15.1875 63.9375 
Q 23.390625 74.21875 37.203125 74.21875 
Q 40.921875 74.21875 44.703125 73.484375 
Q 48.484375 72.75 52.59375 71.296875 
z
" id="DejaVuSans-54"/>
      </defs>
      <g transform="translate(44.7691 220.367575)scale(0.2592 -0.2592)">
       <use xlink:href="#DejaVuSans-48"/>
       <use x="63.623047" xlink:href="#DejaVuSans-46"/>
       <use x="95.410156" xlink:href="#DejaVuSans-54"/>
      </g>
     </g>
    </g>
    <g id="ytick_5">
     <g id="line2d_10">
      <g>
       <use style="stroke:#000000;stroke-width:0.8;" x="92.99" xlink:href="#m8f377987c9" y="126.08"/>
      </g>
     </g>
     <g id="text_11">
      <!-- 0.8 -->
      <defs>
       <path d="M 31.78125 34.625 
Q 24.75 34.625 20.71875 30.859375 
Q 16.703125 27.09375 16.703125 20.515625 
Q 16.703125 13.921875 20.71875 10.15625 
Q 24.75 6.390625 31.78125 6.390625 
Q 38.8125 6.390625 42.859375 10.171875 
Q 46.921875 13.96875 46.921875 20.515625 
Q 46.921875 27.09375 42.890625 30.859375 
Q 38.875 34.625 31.78125 34.625 
z
M 21.921875 38.8125 
Q 15.578125 40.375 12.03125 44.71875 
Q 8.5 49.078125 8.5 55.328125 
Q 8.5 64.0625 14.71875 69.140625 
Q 20.953125 74.21875 31.78125 74.21875 
Q 42.671875 74.21875 48.875 69.140625 
Q 55.078125 64.0625 55.078125 55.328125 
Q 55.078125 49.078125 51.53125 44.71875 
Q 48 40.375 41.703125 38.8125 
Q 48.828125 37.15625 52.796875 32.3125 
Q 56.78125 27.484375 56.78125 20.515625 
Q 56.78125 9.90625 50.3125 4.234375 
Q 43.84375 -1.421875 31.78125 -1.421875 
Q 19.734375 -1.421875 13.25 4.234375 
Q 6.78125 9.90625 6.78125 20.515625 
Q 6.78125 27.484375 10.78125 32.3125 
Q 14.796875 37.15625 21.921875 38.8125 
z
M 18.3125 54.390625 
Q 18.3125 48.734375 21.84375 45.5625 
Q 25.390625 42.390625 31.78125 42.390625 
Q 38.140625 42.390625 41.71875 45.5625 
Q 45.3125 48.734375 45.3125 54.390625 
Q 45.3125 60.0625 41.71875 63.234375 
Q 38.140625 66.40625 31.78125 66.40625 
Q 25.390625 66.40625 21.84375 63.234375 
Q 18.3125 60.0625 18.3125 54.390625 
z
" id="DejaVuSans-56"/>
      </defs>
      <g transform="translate(44.7691 135.927575)scale(0.2592 -0.2592)">
       <use xlink:href="#DejaVuSans-48"/>
       <use x="63.623047" xlink:href="#DejaVuSans-46"/>
       <use x="95.410156" xlink:href="#DejaVuSans-56"/>
      </g>
     </g>
    </g>
    <g id="ytick_6">
     <g id="line2d_11">
      <g>
       <use style="stroke:#000000;stroke-width:0.8;" x="92.99" xlink:href="#m8f377987c9" y="41.64"/>
      </g>
     </g>
     <g id="text_12">
      <!-- 1.0 -->
      <g transform="translate(44.7691 51.487575)scale(0.2592 -0.2592)">
       <use xlink:href="#DejaVuSans-49"/>
       <use x="63.623047" xlink:href="#DejaVuSans-46"/>
       <use x="95.410156" xlink:href="#DejaVuSans-48"/>
      </g>
     </g>
    </g>
    <g id="text_13">
     <!-- Fraction -->
     <defs>
      <path d="M 9.8125 72.90625 
L 51.703125 72.90625 
L 51.703125 64.59375 
L 19.671875 64.59375 
L 19.671875 43.109375 
L 48.578125 43.109375 
L 48.578125 34.8125 
L 19.671875 34.8125 
L 19.671875 0 
L 9.8125 0 
z
" id="DejaVuSans-70"/>
      <path d="M 41.109375 46.296875 
Q 39.59375 47.171875 37.8125 47.578125 
Q 36.03125 48 33.890625 48 
Q 26.265625 48 22.1875 43.046875 
Q 18.109375 38.09375 18.109375 28.8125 
L 18.109375 0 
L 9.078125 0 
L 9.078125 54.6875 
L 18.109375 54.6875 
L 18.109375 46.1875 
Q 20.953125 51.171875 25.484375 53.578125 
Q 30.03125 56 36.53125 56 
Q 37.453125 56 38.578125 55.875 
Q 39.703125 55.765625 41.0625 55.515625 
z
" id="DejaVuSans-114"/>
      <path d="M 34.28125 27.484375 
Q 23.390625 27.484375 19.1875 25 
Q 14.984375 22.515625 14.984375 16.5 
Q 14.984375 11.71875 18.140625 8.90625 
Q 21.296875 6.109375 26.703125 6.109375 
Q 34.1875 6.109375 38.703125 11.40625 
Q 43.21875 16.703125 43.21875 25.484375 
L 43.21875 27.484375 
z
M 52.203125 31.203125 
L 52.203125 0 
L 43.21875 0 
L 43.21875 8.296875 
Q 40.140625 3.328125 35.546875 0.953125 
Q 30.953125 -1.421875 24.3125 -1.421875 
Q 15.921875 -1.421875 10.953125 3.296875 
Q 6 8.015625 6 15.921875 
Q 6 25.140625 12.171875 29.828125 
Q 18.359375 34.515625 30.609375 34.515625 
L 43.21875 34.515625 
L 43.21875 35.40625 
Q 43.21875 41.609375 39.140625 45 
Q 35.0625 48.390625 27.6875 48.390625 
Q 23 48.390625 18.546875 47.265625 
Q 14.109375 46.140625 10.015625 43.890625 
L 10.015625 52.203125 
Q 14.9375 54.109375 19.578125 55.046875 
Q 24.21875 56 28.609375 56 
Q 40.484375 56 46.34375 49.84375 
Q 52.203125 43.703125 52.203125 31.203125 
z
" id="DejaVuSans-97"/>
      <path d="M 48.78125 52.59375 
L 48.78125 44.1875 
Q 44.96875 46.296875 41.140625 47.34375 
Q 37.3125 48.390625 33.40625 48.390625 
Q 24.65625 48.390625 19.8125 42.84375 
Q 14.984375 37.3125 14.984375 27.296875 
Q 14.984375 17.28125 19.8125 11.734375 
Q 24.65625 6.203125 33.40625 6.203125 
Q 37.3125 6.203125 41.140625 7.25 
Q 44.96875 8.296875 48.78125 10.40625 
L 48.78125 2.09375 
Q 45.015625 0.34375 40.984375 -0.53125 
Q 36.96875 -1.421875 32.421875 -1.421875 
Q 20.0625 -1.421875 12.78125 6.34375 
Q 5.515625 14.109375 5.515625 27.296875 
Q 5.515625 40.671875 12.859375 48.328125 
Q 20.21875 56 33.015625 56 
Q 37.15625 56 41.109375 55.140625 
Q 45.0625 54.296875 48.78125 52.59375 
z
" id="DejaVuSans-99"/>
      <path d="M 9.421875 54.6875 
L 18.40625 54.6875 
L 18.40625 0 
L 9.421875 0 
z
M 9.421875 75.984375 
L 18.40625 75.984375 
L 18.40625 64.59375 
L 9.421875 64.59375 
z
" id="DejaVuSans-105"/>
      <path d="M 54.890625 33.015625 
L 54.890625 0 
L 45.90625 0 
L 45.90625 32.71875 
Q 45.90625 40.484375 42.875 44.328125 
Q 39.84375 48.1875 33.796875 48.1875 
Q 26.515625 48.1875 22.3125 43.546875 
Q 18.109375 38.921875 18.109375 30.90625 
L 18.109375 0 
L 9.078125 0 
L 9.078125 54.6875 
L 18.109375 54.6875 
L 18.109375 46.1875 
Q 21.34375 51.125 25.703125 53.5625 
Q 30.078125 56 35.796875 56 
Q 45.21875 56 50.046875 50.171875 
Q 54.890625 44.34375 54.890625 33.015625 
z
" id="DejaVuSans-110"/>
     </defs>
     <g transform="translate(35.37855 305.400125)rotate(-90)scale(0.2592 -0.2592)">
      <use xlink:href="#DejaVuSans-70"/>
      <use x="57.410156" xlink:href="#DejaVuSans-114"/>
      <use x="98.523438" xlink:href="#DejaVuSans-97"/>
      <use x="159.802734" xlink:href="#DejaVuSans-99"/>
      <use x="214.783203" xlink:href="#DejaVuSans-116"/>
      <use x="253.992188" xlink:href="#DejaVuSans-105"/>
      <use x="281.775391" xlink:href="#DejaVuSans-111"/>
      <use x="342.957031" xlink:href="#DejaVuSans-110"/>
     </g>
    </g>
   </g>
   <g id="line2d_12">
    <path clip-path="url(#p79b3ea2872)" d="M 119.635971 463.84 
L 120.702877 463.778875 
L 125.503953 462.525814 
L 130.838481 460.304942 
L 132.972293 459.153756 
L 134.039199 458.613819 
L 136.706463 456.433697 
L 139.373727 453.275577 
L 139.90718 452.348515 
L 140.974086 450.983392 
L 144.174803 445.838711 
L 146.842068 440.571781 
L 148.442426 436.995973 
L 154.310408 421.857368 
L 155.910767 417.303562 
L 156.977672 414.512191 
L 158.044578 411.242008 
L 159.111484 407.482825 
L 159.644937 406.148264 
L 160.17839 404.508079 
L 162.312201 396.796152 
L 164.979465 387.790414 
L 166.046371 383.460732 
L 167.64673 377.30749 
L 170.313994 365.968818 
L 171.3809 361.027887 
L 173.514711 348.945528 
L 174.581617 341.253976 
L 175.648523 332.533487 
L 178.315787 308.093708 
L 179.916146 292.364228 
L 185.250675 245.196166 
L 187.384486 228.784126 
L 190.05175 210.976399 
L 192.185562 199.403415 
L 195.919732 181.402126 
L 198.586996 170.705266 
L 200.187355 165.112335 
L 201.787714 160.385342 
L 202.854619 157.63472 
L 204.988431 151.960291 
L 206.58879 148.486358 
L 207.655695 145.970049 
L 209.789507 141.538492 
L 213.523677 135.14075 
L 215.657488 131.768692 
L 217.7913 128.885634 
L 219.925111 126.033138 
L 222.058923 123.465891 
L 223.125829 122.304518 
L 224.192734 120.959769 
L 227.393452 117.750711 
L 228.99381 116.263338 
L 230.594169 114.460153 
L 234.328339 111.23072 
L 239.662868 107.033475 
L 241.263226 105.933227 
L 242.863585 104.588479 
L 248.731567 100.16711 
L 254.599548 96.489427 
L 255.133001 96.081927 
L 256.199907 95.470678 
L 258.867171 93.952743 
L 262.067889 92.353307 
L 263.134794 91.915246 
L 265.268606 90.876122 
L 266.335512 90.488997 
L 267.402417 89.826811 
L 270.603135 88.37 
L 271.67004 87.931938 
L 273.270399 87.127127 
L 273.803852 86.984502 
L 275.937663 86.037066 
L 277.538022 85.395254 
L 278.604928 84.80438 
L 279.138381 84.468193 
L 280.205286 84.040319 
L 281.805645 83.26607 
L 283.939456 82.349196 
L 287.673626 80.963698 
L 296.208872 77.612015 
L 299.40959 76.236704 
L 300.476495 75.880142 
L 302.076854 75.258705 
L 303.14376 74.942893 
L 306.87793 73.486083 
L 307.944836 73.017458 
L 309.545194 72.406209 
L 311.679006 71.682897 
L 313.812817 70.949398 
L 314.879723 70.541899 
L 315.946629 70.277024 
L 317.013535 69.981587 
L 320.214252 69.105463 
L 321.281158 68.799839 
L 330.349856 66.293717 
L 330.883309 66.222405 
L 332.483668 65.75378 
L 334.617479 65.254594 
L 339.418555 63.88947 
L 341.552367 63.400471 
L 345.81999 62.55491 
L 347.953801 62.137223 
L 350.087613 61.811223 
L 351.154519 61.464849 
L 356.489047 60.354413 
L 360.75667 59.631101 
L 361.823576 59.519039 
L 368.758463 58.276165 
L 370.358822 58.062228 
L 378.894068 56.809167 
L 379.960974 56.63598 
L 383.695144 56.146981 
L 385.828955 55.800606 
L 387.962767 55.545919 
L 390.096578 55.291232 
L 393.297296 54.904107 
L 396.498013 54.496608 
L 399.165277 54.150233 
L 400.765636 54.007609 
L 403.966353 53.559359 
L 409.300882 53.039797 
L 411.434693 52.856423 
L 413.035052 52.693423 
L 415.168863 52.489673 
L 416.769222 52.357236 
L 419.436486 52.102549 
L 420.503392 52.051611 
L 426.371374 51.481112 
L 431.17245 51.216237 
L 439.174243 50.554051 
L 448.242942 49.952989 
L 449.309847 49.871489 
L 451.443659 49.708489 
L 486.118096 47.823804 
L 542.130648 45.776119 
L 547.465176 45.704807 
L 549.598988 45.643682 
L 554.400064 45.470495 
L 597.076294 44.594371 
L 598.143199 44.533246 
L 608.278804 44.431371 
L 652.555393 43.657122 
L 652.555393 43.657122 
" style="fill:none;stroke:#0000ff;stroke-linecap:square;stroke-width:1.5;"/>
   </g>
   <g id="line2d_13">
    <path clip-path="url(#p79b3ea2872)" d="M 120.169424 379.4 
L 120.702877 362.512 
L 121.23633 320.593571 
L 121.769783 318.415556 
L 122.303235 315.499459 
L 122.836688 323.106667 
L 123.370141 322.333407 
L 123.903594 317.218243 
L 124.437047 319.524364 
L 124.9705 325.642402 
L 125.503953 320.136042 
L 126.037406 321.525393 
L 126.570858 317.565984 
L 127.104311 320.872804 
L 127.637764 318.324466 
L 128.171217 318.146902 
L 128.70467 320.483142 
L 129.238123 320.510111 
L 130.305029 323.254031 
L 130.838481 323.376529 
L 131.371934 322.483401 
L 131.905387 323.573057 
L 132.43884 323.650039 
L 132.972293 324.018546 
L 133.505746 326.71035 
L 134.039199 326.931909 
L 134.572652 325.3564 
L 135.106104 324.908931 
L 135.639557 324.645937 
L 136.17301 325.026069 
L 136.706463 323.299982 
L 137.239916 320.687529 
L 138.306822 318.138986 
L 138.840275 318.171279 
L 139.373727 316.969353 
L 139.90718 314.219642 
L 140.440633 315.08495 
L 140.974086 315.17471 
L 141.507539 314.167095 
L 142.040992 314.313032 
L 142.574445 314.246296 
L 143.64135 312.636419 
L 144.174803 312.270028 
L 144.708256 311.344856 
L 145.775162 310.787899 
L 146.308615 310.746853 
L 146.842068 310.824322 
L 147.375521 310.667683 
L 147.908973 309.8511 
L 148.442426 310.519024 
L 148.975879 309.384748 
L 149.509332 308.602117 
L 150.042785 308.354566 
L 150.576238 307.878976 
L 151.643144 307.666417 
L 152.176596 308.041142 
L 152.710049 306.725606 
L 153.243502 306.683469 
L 153.776955 307.242182 
L 154.310408 307.276858 
L 154.843861 306.930702 
L 155.377314 306.767108 
L 155.910767 306.761518 
L 156.444219 307.23248 
L 156.977672 306.792109 
L 157.511125 306.868205 
L 158.044578 306.133547 
L 158.578031 305.133137 
L 159.111484 304.369127 
L 159.644937 304.710642 
L 160.17839 304.708962 
L 160.711842 303.854573 
L 161.245295 303.638139 
L 162.312201 302.916903 
L 162.845654 302.870293 
L 163.91256 302.419268 
L 164.446013 302.45554 
L 164.979465 302.370509 
L 165.512918 301.679263 
L 166.046371 301.439551 
L 167.113277 301.310466 
L 168.713636 300.411881 
L 169.247088 300.296823 
L 171.3809 298.620627 
L 172.981259 297.025913 
L 173.514711 296.072697 
L 174.048164 295.37439 
L 178.84924 282.623931 
L 179.916146 280.224508 
L 182.58341 275.508807 
L 184.183769 273.73411 
L 184.717222 273.364296 
L 185.250675 272.706512 
L 186.31758 272.085813 
L 186.851033 271.522707 
L 187.384486 271.268526 
L 190.585203 270.692786 
L 194.852826 270.777081 
L 195.919732 271.081407 
L 197.520091 271.680092 
L 199.653902 272.302963 
L 200.720808 272.882388 
L 204.988431 274.863586 
L 207.122242 275.908738 
L 208.189148 276.409033 
L 209.256054 276.911122 
L 209.789507 277.146944 
L 210.32296 277.5259 
L 211.389865 278.063617 
L 213.523677 279.241211 
L 215.657488 280.29241 
L 216.724394 280.870832 
L 220.458564 282.949255 
L 222.058923 283.829993 
L 224.726187 285.291071 
L 228.460357 287.70961 
L 232.194528 290.47859 
L 233.794886 291.990024 
L 235.928698 293.761589 
L 238.595962 296.21848 
L 241.796679 298.722318 
L 243.397038 299.862962 
L 246.597755 302.030352 
L 248.731567 303.345733 
L 250.331925 304.317366 
L 251.932284 305.24991 
L 254.599548 306.593754 
L 260.46753 309.145859 
L 262.067889 309.672018 
L 263.668247 310.277191 
L 267.93587 311.531593 
L 272.736946 312.673541 
L 279.671833 313.838518 
L 282.339098 314.102041 
L 288.740532 314.718403 
L 291.941249 314.982531 
L 297.275778 315.240072 
L 299.40959 315.273614 
L 302.610307 315.407668 
L 306.87793 315.439481 
L 310.078647 315.424219 
L 319.680799 315.437223 
L 327.149139 315.351272 
L 330.349856 315.32367 
L 334.084027 315.289555 
L 340.485461 315.14439 
L 354.888689 314.865429 
L 359.156312 314.833099 
L 385.295503 314.361455 
L 394.897654 314.240284 
L 400.765636 314.11474 
L 422.103751 313.782909 
L 442.37496 313.540696 
L 458.378546 313.370701 
L 470.647962 313.236628 
L 485.05119 313.121251 
L 501.588229 313.02004 
L 547.998629 312.713202 
L 562.401857 312.637905 
L 574.671273 312.583368 
L 593.342124 312.521019 
L 601.877369 312.479386 
L 641.886335 312.368741 
L 652.555393 312.318234 
L 652.555393 312.318234 
" style="fill:none;stroke:#ff0000;stroke-linecap:square;stroke-width:1.5;"/>
   </g>
   <g id="line2d_14">
    <path clip-path="url(#p79b3ea2872)" d="M 120.169424 463.835925 
L 122.836688 463.680396 
L 126.037406 463.324902 
L 127.637764 463.09211 
L 134.572652 461.988785 
L 136.706463 461.374624 
L 142.574445 458.436391 
L 145.241709 456.569504 
L 148.442426 454.091652 
L 151.109691 451.390242 
L 154.310408 448.271708 
L 155.377314 447.080201 
L 158.044578 444.192812 
L 159.111484 442.553103 
L 159.644937 442.095687 
L 160.17839 441.477257 
L 161.245295 439.877176 
L 163.91256 436.142613 
L 164.979465 434.754998 
L 166.046371 432.921883 
L 167.64673 430.466992 
L 170.313994 425.774802 
L 171.914353 422.338901 
L 172.981259 419.833089 
L 174.048164 416.576297 
L 175.648523 410.11271 
L 178.315787 397.493329 
L 179.916146 389.264898 
L 185.250675 364.858099 
L 187.917939 354.889832 
L 189.518298 349.73002 
L 190.585203 346.785602 
L 193.785921 339.014258 
L 195.386279 335.710454 
L 199.653902 329.085146 
L 202.321167 326.496595 
L 204.988431 324.242868 
L 206.58879 323.318148 
L 207.655695 322.507091 
L 209.789507 321.321162 
L 210.32296 321.19685 
L 211.389865 320.788195 
L 214.590583 319.769575 
L 215.657488 319.475035 
L 216.190941 319.449055 
L 217.257847 319.251901 
L 218.324753 319.049235 
L 219.391659 318.969035 
L 222.058923 318.717438 
L 223.125829 318.695971 
L 223.659282 318.526073 
L 226.859999 318.80267 
L 227.926905 318.948926 
L 228.99381 319.162688 
L 230.594169 319.355177 
L 232.194528 319.785591 
L 233.794886 320.502449 
L 235.395245 321.056278 
L 237.529056 321.976009 
L 240.196321 323.114212 
L 246.064302 324.978142 
L 247.664661 325.308528 
L 248.731567 325.594112 
L 250.331925 326.049982 
L 251.398831 326.380409 
L 260.46753 328.025838 
L 261.534436 328.127981 
L 268.469323 328.85399 
L 274.870758 329.144488 
L 278.071475 329.129871 
L 279.671833 328.989598 
L 282.339098 328.774865 
L 285.006362 328.585398 
L 287.140174 328.558127 
L 298.342684 327.589563 
L 301.543401 327.254723 
L 307.411383 326.581035 
L 309.011741 326.308009 
L 311.679006 325.983544 
L 314.34627 325.62665 
L 320.214252 325.091709 
L 322.348063 324.868902 
L 326.615686 324.356669 
L 339.418555 323.007852 
L 342.08582 322.745407 
L 346.353443 322.36366 
L 358.089406 321.363524 
L 362.357029 321.064871 
L 364.49084 320.874472 
L 375.693351 320.065602 
L 381.561332 319.655646 
L 386.362408 319.361285 
L 396.498013 318.750096 
L 401.832542 318.416276 
L 408.233976 318.070771 
L 409.834335 317.994373 
L 412.501599 317.852986 
L 426.371374 317.21763 
L 433.306261 316.969022 
L 439.174243 316.744982 
L 457.845093 316.098439 
L 463.179622 315.94607 
L 481.850473 315.41788 
L 486.118096 315.329288 
L 531.995043 314.410733 
L 553.333158 314.065635 
L 565.602574 313.889094 
L 571.470556 313.827113 
L 576.271632 313.771117 
L 635.484901 313.212192 
L 646.687411 313.108148 
L 649.888128 313.066151 
L 652.555393 313.042151 
L 652.555393 313.042151 
" style="fill:none;stroke:#008000;stroke-linecap:square;stroke-width:1.5;"/>
   </g>
   <g id="line2d_15">
    <path clip-path="url(#p79b3ea2872)" d="M 652.555393 463.84 
L 652.555393 41.64 
" style="fill:none;stroke:#1f77b4;stroke-linecap:square;stroke-width:1.5;"/>
   </g>
   <g id="patch_3">
    <path d="M 92.99 463.84 
L 92.99 41.64 
" style="fill:none;stroke:#000000;stroke-linecap:square;stroke-linejoin:miter;stroke-width:0.8;"/>
   </g>
   <g id="patch_4">
    <path d="M 679.201364 463.84 
L 679.201364 41.64 
" style="fill:none;stroke:#000000;stroke-linecap:square;stroke-linejoin:miter;stroke-width:0.8;"/>
   </g>
   <g id="patch_5">
    <path d="M 92.99 463.84 
L 679.201364 463.84 
" style="fill:none;stroke:#000000;stroke-linecap:square;stroke-linejoin:miter;stroke-width:0.8;"/>
   </g>
   <g id="patch_6">
    <path d="M 92.99 41.64 
L 679.201364 41.64 
" style="fill:none;stroke:#000000;stroke-linecap:square;stroke-linejoin:miter;stroke-width:0.8;"/>
   </g>
   <g id="text_14">
    <!-- Purity/Efficiency vs dedxW Cutoff — Electron -->
    <defs>
     <path d="M 19.671875 64.796875 
L 19.671875 37.40625 
L 32.078125 37.40625 
Q 38.96875 37.40625 42.71875 40.96875 
Q 46.484375 44.53125 46.484375 51.125 
Q 46.484375 57.671875 42.71875 61.234375 
Q 38.96875 64.796875 32.078125 64.796875 
z
M 9.8125 72.90625 
L 32.078125 72.90625 
Q 44.34375 72.90625 50.609375 67.359375 
Q 56.890625 61.8125 56.890625 51.125 
Q 56.890625 40.328125 50.609375 34.8125 
Q 44.34375 29.296875 32.078125 29.296875 
L 19.671875 29.296875 
L 19.671875 0 
L 9.8125 0 
z
" id="DejaVuSans-80"/>
     <path d="M 32.171875 -5.078125 
Q 28.375 -14.84375 24.75 -17.8125 
Q 21.140625 -20.796875 15.09375 -20.796875 
L 7.90625 -20.796875 
L 7.90625 -13.28125 
L 13.1875 -13.28125 
Q 16.890625 -13.28125 18.9375 -11.515625 
Q 21 -9.765625 23.484375 -3.21875 
L 25.09375 0.875 
L 2.984375 54.6875 
L 12.5 54.6875 
L 29.59375 11.921875 
L 46.6875 54.6875 
L 56.203125 54.6875 
z
" id="DejaVuSans-121"/>
     <path d="M 25.390625 72.90625 
L 33.6875 72.90625 
L 8.296875 -9.28125 
L 0 -9.28125 
z
" id="DejaVuSans-47"/>
     <path d="M 9.8125 72.90625 
L 55.90625 72.90625 
L 55.90625 64.59375 
L 19.671875 64.59375 
L 19.671875 43.015625 
L 54.390625 43.015625 
L 54.390625 34.71875 
L 19.671875 34.71875 
L 19.671875 8.296875 
L 56.78125 8.296875 
L 56.78125 0 
L 9.8125 0 
z
" id="DejaVuSans-69"/>
     <path d="M 2.984375 54.6875 
L 12.5 54.6875 
L 29.59375 8.796875 
L 46.6875 54.6875 
L 56.203125 54.6875 
L 35.6875 0 
L 23.484375 0 
z
" id="DejaVuSans-118"/>
     <path d="M 44.28125 53.078125 
L 44.28125 44.578125 
Q 40.484375 46.53125 36.375 47.5 
Q 32.28125 48.484375 27.875 48.484375 
Q 21.1875 48.484375 17.84375 46.4375 
Q 14.5 44.390625 14.5 40.28125 
Q 14.5 37.15625 16.890625 35.375 
Q 19.28125 33.59375 26.515625 31.984375 
L 29.59375 31.296875 
Q 39.15625 29.25 43.1875 25.515625 
Q 47.21875 21.78125 47.21875 15.09375 
Q 47.21875 7.46875 41.1875 3.015625 
Q 35.15625 -1.421875 24.609375 -1.421875 
Q 20.21875 -1.421875 15.453125 -0.5625 
Q 10.6875 0.296875 5.421875 2 
L 5.421875 11.28125 
Q 10.40625 8.6875 15.234375 7.390625 
Q 20.0625 6.109375 24.8125 6.109375 
Q 31.15625 6.109375 34.5625 8.28125 
Q 37.984375 10.453125 37.984375 14.40625 
Q 37.984375 18.0625 35.515625 20.015625 
Q 33.0625 21.96875 24.703125 23.78125 
L 21.578125 24.515625 
Q 13.234375 26.265625 9.515625 29.90625 
Q 5.8125 33.546875 5.8125 39.890625 
Q 5.8125 47.609375 11.28125 51.796875 
Q 16.75 56 26.8125 56 
Q 31.78125 56 36.171875 55.265625 
Q 40.578125 54.546875 44.28125 53.078125 
z
" id="DejaVuSans-115"/>
     <path d="M 4.890625 30.90625 
L 95.125 30.90625 
L 95.125 23.875 
L 4.890625 23.875 
z
" id="DejaVuSans-8212"/>
     <path d="M 9.421875 75.984375 
L 18.40625 75.984375 
L 18.40625 0 
L 9.421875 0 
z
" id="DejaVuSans-108"/>
    </defs>
    <g transform="translate(95.672207 35.64)scale(0.2592 -0.2592)">
     <use xlink:href="#DejaVuSans-80"/>
     <use x="60.287109" xlink:href="#DejaVuSans-117"/>
     <use x="123.666016" xlink:href="#DejaVuSans-114"/>
     <use x="164.779297" xlink:href="#DejaVuSans-105"/>
     <use x="192.5625" xlink:href="#DejaVuSans-116"/>
     <use x="231.771484" xlink:href="#DejaVuSans-121"/>
     <use x="290.951172" xlink:href="#DejaVuSans-47"/>
     <use x="324.642578" xlink:href="#DejaVuSans-69"/>
     <use x="387.826172" xlink:href="#DejaVuSans-102"/>
     <use x="423.03125" xlink:href="#DejaVuSans-102"/>
     <use x="458.236328" xlink:href="#DejaVuSans-105"/>
     <use x="486.019531" xlink:href="#DejaVuSans-99"/>
     <use x="541" xlink:href="#DejaVuSans-105"/>
     <use x="568.783203" xlink:href="#DejaVuSans-101"/>
     <use x="630.306641" xlink:href="#DejaVuSans-110"/>
     <use x="693.685547" xlink:href="#DejaVuSans-99"/>
     <use x="748.666016" xlink:href="#DejaVuSans-121"/>
     <use x="807.845703" xlink:href="#DejaVuSans-32"/>
     <use x="839.632812" xlink:href="#DejaVuSans-118"/>
     <use x="898.8125" xlink:href="#DejaVuSans-115"/>
     <use x="950.912109" xlink:href="#DejaVuSans-32"/>
     <use x="982.699219" xlink:href="#DejaVuSans-100"/>
     <use x="1046.175781" xlink:href="#DejaVuSans-101"/>
     <use x="1107.699219" xlink:href="#DejaVuSans-100"/>
     <use x="1171.175781" xlink:href="#DejaVuSans-120"/>
     <use x="1230.355469" xlink:href="#DejaVuSans-87"/>
     <use x="1329.232422" xlink:href="#DejaVuSans-32"/>
     <use x="1361.019531" xlink:href="#DejaVuSans-67"/>
     <use x="1430.84375" xlink:href="#DejaVuSans-117"/>
     <use x="1494.222656" xlink:href="#DejaVuSans-116"/>
     <use x="1533.431641" xlink:href="#DejaVuSans-111"/>
     <use x="1594.613281" xlink:href="#DejaVuSans-102"/>
     <use x="1629.818359" xlink:href="#DejaVuSans-102"/>
     <use x="1665.023438" xlink:href="#DejaVuSans-32"/>
     <use x="1696.810547" xlink:href="#DejaVuSans-8212"/>
     <use x="1796.810547" xlink:href="#DejaVuSans-32"/>
     <use x="1828.597656" xlink:href="#DejaVuSans-69"/>
     <use x="1891.78125" xlink:href="#DejaVuSans-108"/>
     <use x="1919.564453" xlink:href="#DejaVuSans-101"/>
     <use x="1981.087891" xlink:href="#DejaVuSans-99"/>
     <use x="2036.068359" xlink:href="#DejaVuSans-116"/>
     <use x="2075.277344" xlink:href="#DejaVuSans-114"/>
     <use x="2116.359375" xlink:href="#DejaVuSans-111"/>
     <use x="2177.541016" xlink:href="#DejaVuSans-110"/>
    </g>
   </g>
   <g id="legend_1">
    <g id="patch_7">
     <path d="M 277.400994 454.84 
L 494.790369 454.84 
Q 498.390369 454.84 498.390369 451.24 
L 498.390369 373.778125 
Q 498.390369 370.178125 494.790369 370.178125 
L 277.400994 370.178125 
Q 273.800994 370.178125 273.800994 373.778125 
L 273.800994 451.24 
Q 273.800994 454.84 277.400994 454.84 
z
" style="fill:#ffffff;opacity:0.8;stroke:#cccccc;stroke-linejoin:miter;"/>
    </g>
    <g id="line2d_16">
     <path d="M 281.000994 384.755313 
L 317.000994 384.755313 
" style="fill:none;stroke:#0000ff;stroke-linecap:square;stroke-width:1.5;"/>
    </g>
    <g id="line2d_17"/>
    <g id="text_15">
     <!-- Efficiency -->
     <g transform="translate(331.400994 391.055313)scale(0.18 -0.18)">
      <use xlink:href="#DejaVuSans-69"/>
      <use x="63.183594" xlink:href="#DejaVuSans-102"/>
      <use x="98.388672" xlink:href="#DejaVuSans-102"/>
      <use x="133.59375" xlink:href="#DejaVuSans-105"/>
      <use x="161.376953" xlink:href="#DejaVuSans-99"/>
      <use x="216.357422" xlink:href="#DejaVuSans-105"/>
      <use x="244.140625" xlink:href="#DejaVuSans-101"/>
      <use x="305.664062" xlink:href="#DejaVuSans-110"/>
      <use x="369.042969" xlink:href="#DejaVuSans-99"/>
      <use x="424.023438" xlink:href="#DejaVuSans-121"/>
     </g>
    </g>
    <g id="line2d_18">
     <path d="M 281.000994 411.175937 
L 317.000994 411.175937 
" style="fill:none;stroke:#ff0000;stroke-linecap:square;stroke-width:1.5;"/>
    </g>
    <g id="line2d_19"/>
    <g id="text_16">
     <!-- Purity -->
     <g transform="translate(331.400994 417.475937)scale(0.18 -0.18)">
      <use xlink:href="#DejaVuSans-80"/>
      <use x="60.287109" xlink:href="#DejaVuSans-117"/>
      <use x="123.666016" xlink:href="#DejaVuSans-114"/>
      <use x="164.779297" xlink:href="#DejaVuSans-105"/>
      <use x="192.5625" xlink:href="#DejaVuSans-116"/>
      <use x="231.771484" xlink:href="#DejaVuSans-121"/>
     </g>
    </g>
    <g id="line2d_20">
     <path d="M 281.000994 437.596562 
L 317.000994 437.596562 
" style="fill:none;stroke:#008000;stroke-linecap:square;stroke-width:1.5;"/>
    </g>
    <g id="line2d_21"/>
    <g id="text_17">
     <!-- Purity * Efficiency -->
     <defs>
      <path d="M 47.015625 60.890625 
L 29.5 51.421875 
L 47.015625 41.890625 
L 44.1875 37.109375 
L 27.78125 47.015625 
L 27.78125 28.609375 
L 22.21875 28.609375 
L 22.21875 47.015625 
L 5.8125 37.109375 
L 2.984375 41.890625 
L 20.515625 51.421875 
L 2.984375 60.890625 
L 5.8125 65.71875 
L 22.21875 55.8125 
L 22.21875 74.21875 
L 27.78125 74.21875 
L 27.78125 55.8125 
L 44.1875 65.71875 
z
" id="DejaVuSans-42"/>
     </defs>
     <g transform="translate(331.400994 443.896562)scale(0.18 -0.18)">
      <use xlink:href="#DejaVuSans-80"/>
      <use x="60.287109" xlink:href="#DejaVuSans-117"/>
      <use x="123.666016" xlink:href="#DejaVuSans-114"/>
      <use x="164.779297" xlink:href="#DejaVuSans-105"/>
      <use x="192.5625" xlink:href="#DejaVuSans-116"/>
      <use x="231.771484" xlink:href="#DejaVuSans-121"/>
      <use x="290.951172" xlink:href="#DejaVuSans-32"/>
      <use x="322.738281" xlink:href="#DejaVuSans-42"/>
      <use x="372.738281" xlink:href="#DejaVuSans-32"/>
      <use x="404.525391" xlink:href="#DejaVuSans-69"/>
      <use x="467.708984" xlink:href="#DejaVuSans-102"/>
      <use x="502.914062" xlink:href="#DejaVuSans-102"/>
      <use x="538.119141" xlink:href="#DejaVuSans-105"/>
      <use x="565.902344" xlink:href="#DejaVuSans-99"/>
      <use x="620.882812" xlink:href="#DejaVuSans-105"/>
      <use x="648.666016" xlink:href="#DejaVuSans-101"/>
      <use x="710.189453" xlink:href="#DejaVuSans-110"/>
      <use x="773.568359" xlink:href="#DejaVuSans-99"/>
      <use x="828.548828" xlink:href="#DejaVuSans-121"/>
     </g>
    </g>
   </g>
  </g>
  <g id="axes_2">
   <g id="patch_8">
    <path d="M 809.03 463.84 
L 1395.241364 463.84 
L 1395.241364 41.64 
L 809.03 41.64 
z
" style="fill:#ffffff;"/>
   </g>
   <g id="matplotlib.axis_3">
    <g id="xtick_6">
     <g id="line2d_22">
      <g>
       <use style="stroke:#000000;stroke-width:0.8;" x="835.675971" xlink:href="#mc05b7afd19" y="463.84"/>
      </g>
     </g>
     <g id="text_18">
      <!-- 0 -->
      <g transform="translate(827.430171 490.53515)scale(0.2592 -0.2592)">
       <use xlink:href="#DejaVuSans-48"/>
      </g>
     </g>
    </g>
    <g id="xtick_7">
     <g id="line2d_23">
      <g>
       <use style="stroke:#000000;stroke-width:0.8;" x="968.905826" xlink:href="#mc05b7afd19" y="463.84"/>
      </g>
     </g>
     <g id="text_19">
      <!-- 500 -->
      <g transform="translate(944.168426 490.53515)scale(0.2592 -0.2592)">
       <use xlink:href="#DejaVuSans-53"/>
       <use x="63.623047" xlink:href="#DejaVuSans-48"/>
       <use x="127.246094" xlink:href="#DejaVuSans-48"/>
      </g>
     </g>
    </g>
    <g id="xtick_8">
     <g id="line2d_24">
      <g>
       <use style="stroke:#000000;stroke-width:0.8;" x="1102.135682" xlink:href="#mc05b7afd19" y="463.84"/>
      </g>
     </g>
     <g id="text_20">
      <!-- 1000 -->
      <g transform="translate(1069.152482 490.53515)scale(0.2592 -0.2592)">
       <use xlink:href="#DejaVuSans-49"/>
       <use x="63.623047" xlink:href="#DejaVuSans-48"/>
       <use x="127.246094" xlink:href="#DejaVuSans-48"/>
       <use x="190.869141" xlink:href="#DejaVuSans-48"/>
      </g>
     </g>
    </g>
    <g id="xtick_9">
     <g id="line2d_25">
      <g>
       <use style="stroke:#000000;stroke-width:0.8;" x="1235.365537" xlink:href="#mc05b7afd19" y="463.84"/>
      </g>
     </g>
     <g id="text_21">
      <!-- 1500 -->
      <g transform="translate(1202.382337 490.53515)scale(0.2592 -0.2592)">
       <use xlink:href="#DejaVuSans-49"/>
       <use x="63.623047" xlink:href="#DejaVuSans-53"/>
       <use x="127.246094" xlink:href="#DejaVuSans-48"/>
       <use x="190.869141" xlink:href="#DejaVuSans-48"/>
      </g>
     </g>
    </g>
    <g id="xtick_10">
     <g id="line2d_26">
      <g>
       <use style="stroke:#000000;stroke-width:0.8;" x="1368.595393" xlink:href="#mc05b7afd19" y="463.84"/>
      </g>
     </g>
     <g id="text_22">
      <!-- 2000 -->
      <g transform="translate(1335.612193 490.53515)scale(0.2592 -0.2592)">
       <use xlink:href="#DejaVuSans-50"/>
       <use x="63.623047" xlink:href="#DejaVuSans-48"/>
       <use x="127.246094" xlink:href="#DejaVuSans-48"/>
       <use x="190.869141" xlink:href="#DejaVuSans-48"/>
      </g>
     </g>
    </g>
    <g id="text_23">
     <!-- dedxW Cutoff -->
     <g transform="translate(1013.703932 519.62085)scale(0.2592 -0.2592)">
      <use xlink:href="#DejaVuSans-100"/>
      <use x="63.476562" xlink:href="#DejaVuSans-101"/>
      <use x="125" xlink:href="#DejaVuSans-100"/>
      <use x="188.476562" xlink:href="#DejaVuSans-120"/>
      <use x="247.65625" xlink:href="#DejaVuSans-87"/>
      <use x="346.533203" xlink:href="#DejaVuSans-32"/>
      <use x="378.320312" xlink:href="#DejaVuSans-67"/>
      <use x="448.144531" xlink:href="#DejaVuSans-117"/>
      <use x="511.523438" xlink:href="#DejaVuSans-116"/>
      <use x="550.732422" xlink:href="#DejaVuSans-111"/>
      <use x="611.914062" xlink:href="#DejaVuSans-102"/>
      <use x="647.119141" xlink:href="#DejaVuSans-102"/>
     </g>
    </g>
   </g>
   <g id="matplotlib.axis_4">
    <g id="ytick_7">
     <g id="line2d_27">
      <g>
       <use style="stroke:#000000;stroke-width:0.8;" x="809.03" xlink:href="#m8f377987c9" y="463.84"/>
      </g>
     </g>
     <g id="text_24">
      <!-- 0.0 -->
      <g transform="translate(760.8091 473.687575)scale(0.2592 -0.2592)">
       <use xlink:href="#DejaVuSans-48"/>
       <use x="63.623047" xlink:href="#DejaVuSans-46"/>
       <use x="95.410156" xlink:href="#DejaVuSans-48"/>
      </g>
     </g>
    </g>
    <g id="ytick_8">
     <g id="line2d_28">
      <g>
       <use style="stroke:#000000;stroke-width:0.8;" x="809.03" xlink:href="#m8f377987c9" y="379.4"/>
      </g>
     </g>
     <g id="text_25">
      <!-- 0.2 -->
      <g transform="translate(760.8091 389.247575)scale(0.2592 -0.2592)">
       <use xlink:href="#DejaVuSans-48"/>
       <use x="63.623047" xlink:href="#DejaVuSans-46"/>
       <use x="95.410156" xlink:href="#DejaVuSans-50"/>
      </g>
     </g>
    </g>
    <g id="ytick_9">
     <g id="line2d_29">
      <g>
       <use style="stroke:#000000;stroke-width:0.8;" x="809.03" xlink:href="#m8f377987c9" y="294.96"/>
      </g>
     </g>
     <g id="text_26">
      <!-- 0.4 -->
      <g transform="translate(760.8091 304.807575)scale(0.2592 -0.2592)">
       <use xlink:href="#DejaVuSans-48"/>
       <use x="63.623047" xlink:href="#DejaVuSans-46"/>
       <use x="95.410156" xlink:href="#DejaVuSans-52"/>
      </g>
     </g>
    </g>
    <g id="ytick_10">
     <g id="line2d_30">
      <g>
       <use style="stroke:#000000;stroke-width:0.8;" x="809.03" xlink:href="#m8f377987c9" y="210.52"/>
      </g>
     </g>
     <g id="text_27">
      <!-- 0.6 -->
      <g transform="translate(760.8091 220.367575)scale(0.2592 -0.2592)">
       <use xlink:href="#DejaVuSans-48"/>
       <use x="63.623047" xlink:href="#DejaVuSans-46"/>
       <use x="95.410156" xlink:href="#DejaVuSans-54"/>
      </g>
     </g>
    </g>
    <g id="ytick_11">
     <g id="line2d_31">
      <g>
       <use style="stroke:#000000;stroke-width:0.8;" x="809.03" xlink:href="#m8f377987c9" y="126.08"/>
      </g>
     </g>
     <g id="text_28">
      <!-- 0.8 -->
      <g transform="translate(760.8091 135.927575)scale(0.2592 -0.2592)">
       <use xlink:href="#DejaVuSans-48"/>
       <use x="63.623047" xlink:href="#DejaVuSans-46"/>
       <use x="95.410156" xlink:href="#DejaVuSans-56"/>
      </g>
     </g>
    </g>
    <g id="ytick_12">
     <g id="line2d_32">
      <g>
       <use style="stroke:#000000;stroke-width:0.8;" x="809.03" xlink:href="#m8f377987c9" y="41.64"/>
      </g>
     </g>
     <g id="text_29">
      <!-- 1.0 -->
      <g transform="translate(760.8091 51.487575)scale(0.2592 -0.2592)">
       <use xlink:href="#DejaVuSans-49"/>
       <use x="63.623047" xlink:href="#DejaVuSans-46"/>
       <use x="95.410156" xlink:href="#DejaVuSans-48"/>
      </g>
     </g>
    </g>
    <g id="text_30">
     <!-- Fraction -->
     <g transform="translate(751.41855 305.400125)rotate(-90)scale(0.2592 -0.2592)">
      <use xlink:href="#DejaVuSans-70"/>
      <use x="57.410156" xlink:href="#DejaVuSans-114"/>
      <use x="98.523438" xlink:href="#DejaVuSans-97"/>
      <use x="159.802734" xlink:href="#DejaVuSans-99"/>
      <use x="214.783203" xlink:href="#DejaVuSans-116"/>
      <use x="253.992188" xlink:href="#DejaVuSans-105"/>
      <use x="281.775391" xlink:href="#DejaVuSans-111"/>
      <use x="342.957031" xlink:href="#DejaVuSans-110"/>
     </g>
    </g>
   </g>
   <g id="line2d_33">
    <path clip-path="url(#p070a336ebc)" d="M 835.675971 41.64 
L 837.27633 41.851936 
L 840.477047 42.676769 
L 843.144311 43.788003 
L 844.211217 44.194691 
L 848.47884 46.594727 
L 851.146104 48.542249 
L 853.813369 51.005293 
L 856.480633 54.201521 
L 859.147898 58.039286 
L 861.281709 61.556283 
L 863.948973 66.751586 
L 864.482426 68.109124 
L 865.549332 70.245671 
L 870.350408 81.690231 
L 873.551125 89.91565 
L 876.21839 96.789259 
L 877.818748 101.239921 
L 884.220183 120.835436 
L 885.820541 126.162483 
L 890.621617 143.976588 
L 893.288882 154.77961 
L 894.88924 162.174468 
L 898.62341 178.401915 
L 905.024845 205.947904 
L 907.158656 214.207691 
L 914.626996 239.45675 
L 917.294261 247.607705 
L 921.561884 259.436041 
L 925.829507 270.239064 
L 926.896413 272.914044 
L 929.563677 279.518437 
L 931.697488 284.404427 
L 933.297847 288.081808 
L 935.431659 293.082359 
L 936.498564 295.511034 
L 940.232734 303.845286 
L 941.833093 307.488299 
L 943.433452 311.543728 
L 945.03381 315.713718 
L 949.301433 328.154951 
L 950.368339 331.63758 
L 951.435245 334.839536 
L 955.169415 347.320865 
L 956.769774 352.155304 
L 957.836679 355.3859 
L 958.903585 358.530576 
L 963.704661 372.231971 
L 964.771567 375.067335 
L 965.838472 377.845419 
L 967.972284 383.401586 
L 971.706454 392.108158 
L 972.77336 394.450913 
L 973.840266 396.684836 
L 975.974077 400.963658 
L 976.50753 402.040524 
L 977.574436 403.799022 
L 981.308606 410.449239 
L 986.643135 418.376802 
L 987.71004 419.774436 
L 990.377305 423.239881 
L 991.44421 424.47713 
L 992.511116 425.6571 
L 995.711833 428.899152 
L 996.778739 429.930194 
L 1003.713626 435.451993 
L 1010.115061 439.988575 
L 1011.71542 441.053985 
L 1014.382684 442.445891 
L 1015.44959 443.035876 
L 1018.650307 444.725638 
L 1020.250666 445.349991 
L 1021.851024 446.106088 
L 1023.984836 447.034025 
L 1035.720799 450.95771 
L 1038.388063 451.662255 
L 1039.454969 451.920016 
L 1040.521875 452.275152 
L 1047.990215 453.907634 
L 1050.657479 454.463251 
L 1052.791291 454.904308 
L 1053.858197 455.116244 
L 1057.058914 455.608853 
L 1074.129406 457.882872 
L 1080.53084 458.535865 
L 1096.000974 459.767386 
L 1100.80205 460.128251 
L 1110.937654 460.781244 
L 1116.805636 460.987452 
L 1120.006353 461.16502 
L 1149.346261 462.012766 
L 1153.613884 462.11587 
L 1164.816395 462.379358 
L 1171.751282 462.48819 
L 1193.62285 462.849055 
L 1244.834326 463.290111 
L 1268.306252 463.398943 
L 1284.843291 463.467679 
L 1320.584634 463.576512 
L 1337.121673 463.645248 
L 1368.595393 463.679616 
L 1368.595393 463.679616 
" style="fill:none;stroke:#0000ff;stroke-linecap:square;stroke-width:1.5;"/>
   </g>
   <g id="line2d_34">
    <path clip-path="url(#p070a336ebc)" d="M 835.675971 193.590349 
L 855.413727 193.725345 
L 856.480633 193.687153 
L 859.147898 193.650764 
L 863.948973 193.46039 
L 864.482426 193.498173 
L 866.616238 193.26684 
L 873.551125 192.92816 
L 875.684937 192.51306 
L 876.21839 192.477439 
L 877.285295 192.226119 
L 879.95256 191.76605 
L 881.019465 191.647441 
L 882.086371 191.3254 
L 883.68673 191.017386 
L 886.887447 189.995006 
L 888.487806 189.183371 
L 889.021259 188.888765 
L 890.088164 187.995336 
L 891.688523 185.756613 
L 893.822334 182.027439 
L 897.556505 174.3244 
L 899.156863 170.771391 
L 902.891033 162.792144 
L 905.558298 157.826051 
L 907.692109 154.317769 
L 908.759015 152.846747 
L 909.825921 150.975552 
L 911.426279 148.644365 
L 913.560091 146.221725 
L 915.693902 143.586683 
L 920.494978 139.752739 
L 925.829507 136.585378 
L 926.36296 136.464416 
L 927.429865 136.039986 
L 929.563677 135.335181 
L 931.697488 134.617955 
L 932.230941 134.596417 
L 932.764394 134.424649 
L 933.8313 134.258172 
L 934.364753 134.14982 
L 934.898206 134.173529 
L 937.032017 133.803653 
L 938.632376 133.82043 
L 939.165829 133.824525 
L 939.699282 133.612251 
L 942.366546 133.96503 
L 945.567263 134.958139 
L 946.634169 135.299165 
L 947.701075 135.811153 
L 949.301433 137.082278 
L 949.834886 137.681526 
L 950.901792 138.478265 
L 952.502151 140.145938 
L 954.102509 142.001409 
L 955.169415 143.377597 
L 955.702868 143.915711 
L 957.303226 146.093495 
L 958.370132 147.0925 
L 959.970491 149.222606 
L 960.503944 149.852426 
L 961.037397 150.774956 
L 963.704661 154.231829 
L 964.238114 155.176401 
L 965.30502 156.564176 
L 966.371925 158.43853 
L 967.438831 160.397042 
L 969.03919 163.002838 
L 973.306813 170.186996 
L 974.373718 172.219145 
L 980.2417 183.575768 
L 982.375512 187.936358 
L 984.509323 191.886825 
L 985.576229 194.253919 
L 986.109682 195.143046 
L 988.243493 199.471449 
L 989.310399 201.301472 
L 990.377305 203.91178 
L 991.977663 207.088035 
L 994.111475 210.972187 
L 995.178381 212.240615 
L 996.245286 214.473323 
L 999.446004 218.939289 
L 999.979456 219.906188 
L 1000.512909 220.614619 
L 1009.048155 236.052568 
L 1012.248872 241.397229 
L 1012.782325 241.890933 
L 1013.315778 242.887898 
L 1013.849231 243.351298 
L 1015.44959 245.651269 
L 1016.516495 247.892064 
L 1017.049948 248.372414 
L 1018.650307 251.210752 
L 1019.717213 251.833714 
L 1022.384477 256.043226 
L 1022.91793 256.625698 
L 1023.451383 257.532991 
L 1024.518289 258.265436 
L 1025.051741 258.885768 
L 1025.585194 259.261437 
L 1026.118647 260.157224 
L 1027.185553 261.255082 
L 1028.252459 262.885775 
L 1028.785912 263.245517 
L 1029.852817 264.883779 
L 1030.38627 265.15304 
L 1031.986629 267.353998 
L 1032.520082 267.725994 
L 1033.053535 268.389112 
L 1033.586987 268.839455 
L 1034.12044 270.373255 
L 1034.653893 271.107461 
L 1035.187346 271.393778 
L 1035.720799 272.402944 
L 1036.787705 273.888924 
L 1037.321158 274.150886 
L 1038.388063 275.42749 
L 1038.921516 275.640042 
L 1039.454969 276.265662 
L 1040.521875 278.248491 
L 1041.055328 278.664561 
L 1041.588781 279.425433 
L 1042.122233 279.651833 
L 1042.655686 279.755492 
L 1043.189139 280.291391 
L 1043.722592 280.572071 
L 1044.256045 281.411501 
L 1044.789498 282.029513 
L 1045.856404 283.522309 
L 1046.389856 283.926934 
L 1046.923309 284.782864 
L 1049.057121 287.228697 
L 1050.124027 288.533142 
L 1050.657479 289.088698 
L 1051.190932 289.322059 
L 1052.257838 290.872067 
L 1052.791291 291.152008 
L 1053.324744 292.209439 
L 1053.858197 292.279007 
L 1054.39165 292.917097 
L 1054.925102 293.153675 
L 1055.458555 293.644591 
L 1055.992008 293.682366 
L 1056.525461 294.327403 
L 1057.058914 294.51223 
L 1057.592367 294.96 
L 1058.12582 295.102997 
L 1058.659273 295.439092 
L 1059.192725 296.070417 
L 1059.726178 296.367738 
L 1060.259631 297.336866 
L 1060.793084 297.698195 
L 1061.326537 297.84259 
L 1062.393443 298.664172 
L 1062.926896 298.708386 
L 1063.460348 299.863956 
L 1063.993801 300.30821 
L 1064.527254 301.335764 
L 1065.060707 301.425304 
L 1065.59416 301.898481 
L 1066.127613 302.550112 
L 1066.661066 302.3871 
L 1067.727971 303.85413 
L 1068.261424 304.539903 
L 1068.794877 304.877912 
L 1069.32833 305.462902 
L 1070.395236 305.603223 
L 1070.928689 305.834418 
L 1071.462142 306.709166 
L 1071.995594 307.187257 
L 1073.0625 309.194422 
L 1073.595953 309.804004 
L 1074.129406 309.936039 
L 1074.662859 310.597037 
L 1075.196312 310.966731 
L 1075.729765 311.702675 
L 1076.263217 311.933324 
L 1076.79667 312.375367 
L 1077.863576 313.652115 
L 1078.397029 314.203448 
L 1078.930482 314.33709 
L 1079.463935 315.070804 
L 1079.997388 315.128587 
L 1080.53084 315.30003 
L 1081.597746 316.07 
L 1082.664652 316.308485 
L 1083.731558 317.597533 
L 1084.265011 317.448201 
L 1084.798463 318.528594 
L 1085.331916 319.187942 
L 1085.865369 319.50691 
L 1086.932275 320.845192 
L 1087.465728 321.181211 
L 1087.999181 321.758534 
L 1088.532634 321.925522 
L 1089.066086 321.679713 
L 1090.132992 322.20453 
L 1090.666445 322.140258 
L 1091.199898 322.619489 
L 1091.733351 323.412609 
L 1092.266804 323.783269 
L 1092.800257 324.532599 
L 1093.333709 325.795042 
L 1093.867162 325.559124 
L 1094.400615 325.634432 
L 1094.934068 325.842441 
L 1095.467521 325.606029 
L 1096.000974 326.33006 
L 1097.06788 326.894385 
L 1097.601332 327.576478 
L 1098.668238 328.35345 
L 1099.201691 328.992852 
L 1099.735144 328.889307 
L 1100.268597 329.004451 
L 1100.80205 330.448679 
L 1101.335503 330.917505 
L 1101.868955 331.732931 
L 1102.402408 332.768955 
L 1102.935861 333.395633 
L 1103.469314 332.936784 
L 1104.002767 333.73478 
L 1104.53622 333.882573 
L 1105.069673 334.281701 
L 1106.136578 335.687817 
L 1106.670031 335.613027 
L 1107.203484 336.513368 
L 1107.736937 336.754891 
L 1108.27039 337.157459 
L 1108.803843 337.972332 
L 1109.337296 338.296449 
L 1110.404201 340.207269 
L 1111.471107 339.608584 
L 1112.00456 339.718842 
L 1112.538013 339.635749 
L 1113.604919 340.748225 
L 1114.138371 340.598039 
L 1114.671824 340.991696 
L 1115.205277 340.809994 
L 1115.73873 340.769555 
L 1116.272183 341.456065 
L 1116.805636 341.02715 
L 1117.339089 341.788083 
L 1117.872542 342.09981 
L 1118.939447 343.502802 
L 1119.4729 343.138054 
L 1120.006353 343.395651 
L 1120.539806 343.507813 
L 1121.073259 343.248637 
L 1121.606712 343.361092 
L 1123.740523 343.0977 
L 1125.340882 343.326973 
L 1125.874335 343.946026 
L 1126.407788 344.180488 
L 1126.94124 344.266831 
L 1127.474693 344.863875 
L 1128.541599 344.800738 
L 1129.075052 344.607593 
L 1129.608505 346.279625 
L 1130.141958 347.272997 
L 1130.675411 347.292233 
L 1131.742316 347.778199 
L 1132.809222 349.439307 
L 1133.876128 350.364491 
L 1134.409581 350.182213 
L 1134.943034 350.239576 
L 1135.476486 349.594119 
L 1136.543392 350.50786 
L 1137.076845 350.019008 
L 1137.610298 350.417697 
L 1138.143751 350.596851 
L 1139.210657 350.69536 
L 1139.744109 350.170769 
L 1140.277562 350.206989 
L 1140.811015 351.168936 
L 1141.877921 352.297381 
L 1142.411374 352.024475 
L 1142.944827 352.090648 
L 1143.47828 352.870958 
L 1144.011732 352.837533 
L 1144.545185 353.232736 
L 1145.078638 353.028941 
L 1145.612091 353.428603 
L 1146.145544 353.413375 
L 1146.678997 354.393024 
L 1147.745903 354.442694 
L 1148.279355 354.928535 
L 1148.812808 355.245288 
L 1149.346261 354.962231 
L 1149.879714 354.520357 
L 1151.480073 354.638353 
L 1152.013526 355.14447 
L 1152.546978 355.917102 
L 1153.080431 355.90119 
L 1154.147337 357.21661 
L 1154.68079 357.300188 
L 1155.214243 357.657964 
L 1155.747696 357.836217 
L 1156.281149 358.19893 
L 1156.814601 358.29 
L 1157.348054 358.65777 
L 1157.881507 359.305792 
L 1158.41496 359.593086 
L 1158.948413 359.694836 
L 1159.481866 360.92875 
L 1160.548772 360.678009 
L 1161.082224 361.360545 
L 1161.615677 361.558397 
L 1162.682583 361.300166 
L 1163.216036 361.90272 
L 1163.749489 362.308152 
L 1164.282942 362.417654 
L 1164.816395 363.222243 
L 1165.349847 362.559661 
L 1165.8833 362.288106 
L 1166.416753 362.399734 
L 1166.950206 362.012927 
L 1167.483659 361.929655 
L 1168.550565 362.675169 
L 1169.084018 363.433762 
L 1169.61747 363.05945 
L 1170.150923 363.196874 
L 1171.217829 363.756733 
L 1171.751282 364.30034 
L 1172.284735 364.648434 
L 1172.818188 364.773938 
L 1173.885093 367.510709 
L 1174.951999 367.984479 
L 1175.485452 367.92527 
L 1176.018905 368.065182 
L 1176.552358 369.429551 
L 1177.085811 369.132662 
L 1177.619264 369.224355 
L 1178.152716 370.117908 
L 1178.686169 370.268908 
L 1179.219622 370.118879 
L 1179.753075 369.814919 
L 1180.286528 370.068602 
L 1180.819981 370.73476 
L 1181.353434 370.789342 
L 1182.420339 370.069613 
L 1182.953792 370.278976 
L 1184.020698 370.491627 
L 1184.554151 370.070665 
L 1185.087604 370.441354 
L 1185.621057 370.602174 
L 1186.15451 370.445701 
L 1186.687962 370.936544 
L 1187.221415 370.887509 
L 1187.754868 371.054186 
L 1188.288321 371.391054 
L 1188.821774 371.065147 
L 1189.355227 372.51305 
L 1190.422133 372.188043 
L 1190.955585 372.865952 
L 1191.489038 372.935694 
L 1192.022491 372.857433 
L 1192.555944 373.110818 
L 1193.089397 373.812059 
L 1194.689756 374.598714 
L 1195.223208 374.679752 
L 1195.756661 375.178 
L 1196.290114 375.881667 
L 1198.957379 377.566692 
L 1199.490831 377.55491 
L 1200.024284 377.65447 
L 1200.557737 377.530885 
L 1201.09119 377.744314 
L 1202.158096 379.288748 
L 1202.691549 379.065363 
L 1203.225002 379.736414 
L 1203.758454 379.962933 
L 1204.291907 379.962933 
L 1204.82536 381.211046 
L 1205.358813 381.793036 
L 1205.892266 381.682162 
L 1206.425719 382.956576 
L 1206.959172 382.736185 
L 1207.492625 384.026849 
L 1208.026077 383.697497 
L 1209.092983 383.476414 
L 1209.626436 384.312022 
L 1210.159889 384.935119 
L 1210.693342 384.714406 
L 1212.2937 385.388652 
L 1212.827153 386.305423 
L 1213.360606 386.578617 
L 1213.894059 386.243184 
L 1214.960965 386.066316 
L 1215.494418 385.493608 
L 1216.02787 385.770473 
L 1216.561323 386.677147 
L 1217.094776 386.447154 
L 1217.628229 386.447154 
L 1218.695135 385.983028 
L 1219.228588 385.983028 
L 1219.762041 385.748872 
L 1220.295493 385.276309 
L 1221.895852 384.6775 
L 1222.962758 385.486933 
L 1223.496211 386.839073 
L 1224.563116 387.975937 
L 1225.096569 387.857214 
L 1225.630022 388.043465 
L 1226.163475 388.901173 
L 1226.696928 388.901173 
L 1227.230381 389.215478 
L 1227.763834 388.977061 
L 1228.297287 388.616565 
L 1228.830739 388.495627 
L 1229.364192 387.885057 
L 1229.897645 388.201564 
L 1230.431098 387.580558 
L 1230.964551 388.22209 
L 1231.498004 387.970449 
L 1232.031457 387.844 
L 1232.56491 388.876516 
L 1233.098362 388.624538 
L 1233.631815 388.829848 
L 1234.165268 388.702712 
L 1234.698721 388.910307 
L 1235.232174 388.395326 
L 1235.765627 389.334118 
L 1236.29908 389.204991 
L 1236.832533 388.945391 
L 1237.365985 388.552587 
L 1237.899438 388.897645 
L 1238.432891 388.897645 
L 1238.966344 388.633298 
L 1239.499797 388.09897 
L 1240.03325 387.964199 
L 1240.566703 389.067549 
L 1241.100156 389.067549 
L 1241.633608 389.690179 
L 1242.167061 389.557056 
L 1242.700514 389.557056 
L 1243.76742 388.611636 
L 1244.300873 389.877956 
L 1244.834326 389.877956 
L 1245.367779 388.920961 
L 1245.901231 389.564074 
L 1246.434684 389.426271 
L 1246.968137 389.149125 
L 1247.50159 389.009776 
L 1248.035043 389.009776 
L 1248.568496 388.869907 
L 1249.101949 389.100264 
L 1250.168854 388.532979 
L 1250.702307 388.101832 
L 1251.23576 387.372177 
L 1251.769213 387.745814 
L 1252.302666 388.417864 
L 1252.836119 389.625156 
L 1253.369572 389.334118 
L 1253.903025 388.745138 
L 1254.436477 388.596436 
L 1254.96993 388.987809 
L 1255.503383 388.537796 
L 1256.036836 388.537796 
L 1256.570289 388.933548 
L 1257.103742 389.484939 
L 1257.637195 389.334118 
L 1258.7041 389.334118 
L 1259.237553 389.739592 
L 1260.837912 389.283121 
L 1261.371365 389.283121 
L 1261.904818 389.693306 
L 1262.438271 390.413913 
L 1262.971723 390.413913 
L 1263.505176 391.864116 
L 1264.038629 391.995042 
L 1264.572082 392.732632 
L 1265.105535 393.175169 
L 1265.638988 393.175169 
L 1266.172441 392.723156 
L 1266.705894 392.571197 
L 1267.239346 392.713434 
L 1267.772799 392.559481 
L 1268.306252 393.320694 
L 1268.839705 393.627309 
L 1269.373158 394.093304 
L 1269.906611 393.78469 
L 1270.440064 395.197238 
L 1271.506969 394.890112 
L 1272.040422 394.890112 
L 1272.573875 394.580225 
L 1273.640781 394.26754 
L 1274.174234 394.595353 
L 1274.707687 394.43726 
L 1275.24114 394.118899 
L 1275.774592 393.635843 
L 1276.308045 393.473333 
L 1276.841498 394.289652 
L 1277.908404 393.965408 
L 1278.441857 394.626885 
L 1278.97531 394.13717 
L 1279.508763 393.972388 
L 1280.575668 395.156746 
L 1281.109121 394.826538 
L 1281.642574 394.826538 
L 1282.176027 396.532754 
L 1282.70948 396.532754 
L 1283.242933 396.206019 
L 1283.776386 397.06871 
L 1284.843291 396.7422 
L 1285.376744 396.246404 
L 1285.910197 396.079506 
L 1286.44365 396.079506 
L 1286.977103 395.573831 
L 1287.510556 395.573831 
L 1288.044009 395.060551 
L 1288.577461 395.948543 
L 1289.110914 396.501772 
L 1289.644367 396.159084 
L 1290.711273 396.159084 
L 1291.244726 397.063469 
L 1291.778179 396.892685 
L 1292.311632 396.548483 
L 1292.845084 396.375052 
L 1293.378537 396.945974 
L 1293.91199 396.771771 
L 1294.978896 396.771771 
L 1295.512349 396.596658 
L 1296.045802 396.596658 
L 1296.579255 397.00095 
L 1297.112707 396.824127 
L 1297.64616 396.824127 
L 1298.713066 398.539733 
L 1299.246519 398.365134 
L 1299.779972 398.365134 
L 1300.846878 397.657297 
L 1301.38033 398.622114 
L 1301.913783 398.622114 
L 1302.447236 399.241093 
L 1302.980689 400.046044 
L 1303.514142 399.5159 
L 1304.581048 399.5159 
L 1305.114501 400.333593 
L 1306.181406 400.333593 
L 1306.714859 399.977815 
L 1307.781765 399.977815 
L 1308.315218 400.450198 
L 1309.382124 400.089003 
L 1309.915576 399.354121 
L 1310.449029 400.387977 
L 1310.982482 400.01907 
L 1311.515935 400.01907 
L 1312.049388 399.833003 
L 1312.582841 399.833003 
L 1313.116294 399.645848 
L 1313.649747 398.499524 
L 1314.716652 398.499524 
L 1315.250105 399.372335 
L 1315.783558 398.983976 
L 1316.317011 399.675866 
L 1316.850464 399.283425 
L 1317.383917 401.484308 
L 1317.917369 402.594938 
L 1318.450822 402.594938 
L 1318.984275 402.405325 
L 1319.517728 402.405325 
L 1320.051181 403.525714 
L 1320.584634 403.525714 
L 1321.118087 404.468125 
L 1321.65154 406.750063 
L 1322.718445 409.060886 
L 1323.251898 408.886984 
L 1324.318804 408.886984 
L 1324.852257 409.884728 
L 1325.38571 409.884728 
L 1325.919163 410.895305 
L 1326.452615 410.724516 
L 1328.052974 409.317483 
L 1328.586427 408.954 
L 1329.11988 410.182475 
L 1329.653333 410.705986 
L 1330.186786 410.524642 
L 1330.720238 410.524642 
L 1331.253691 410.342055 
L 1331.787144 411.609072 
L 1332.320597 411.609072 
L 1332.85405 412.708512 
L 1333.387503 412.708512 
L 1334.454409 412.352195 
L 1334.987861 412.352195 
L 1335.521314 411.990877 
L 1336.054767 411.990877 
L 1336.58822 411.80831 
L 1337.121673 413.116325 
L 1337.655126 412.755302 
L 1338.188579 412.204029 
L 1338.722032 411.829855 
L 1339.255484 411.829855 
L 1340.32239 411.450219 
L 1340.855843 411.450219 
L 1341.389296 411.258315 
L 1341.922749 411.258315 
L 1342.456202 411.065 
L 1343.523107 411.065 
L 1344.05656 412.237778 
L 1344.590013 411.852687 
L 1345.123466 411.657978 
L 1345.656919 412.857358 
L 1346.190372 412.857358 
L 1346.723825 412.664242 
L 1347.257278 412.664242 
L 1348.324183 412.273588 
L 1348.857636 411.876923 
L 1349.391089 411.676293 
L 1349.924542 413.110543 
L 1352.058353 413.110543 
L 1352.591806 414.555953 
L 1353.658712 414.555953 
L 1354.192165 414.363437 
L 1354.725618 413.776759 
L 1355.259071 413.776759 
L 1355.792524 413.578095 
L 1356.859429 413.578095 
L 1357.392882 413.377849 
L 1357.926335 414.668112 
L 1358.459788 414.26996 
L 1358.993241 414.26996 
L 1360.060147 413.453992 
L 1360.593599 414.787718 
L 1361.127052 414.583333 
L 1361.660505 414.169412 
L 1362.193958 413.959831 
L 1362.727411 413.959831 
L 1363.260864 413.103519 
L 1363.794317 413.103519 
L 1364.32777 412.884828 
L 1364.861222 412.884828 
L 1365.928128 412.441739 
L 1366.461581 411.990877 
L 1366.995034 411.990877 
L 1367.528487 411.762467 
L 1368.06194 411.762467 
L 1368.595393 411.532035 
L 1368.595393 411.532035 
" style="fill:none;stroke:#ff0000;stroke-linecap:square;stroke-width:1.5;"/>
   </g>
   <g id="line2d_35">
    <path clip-path="url(#p070a336ebc)" d="M 835.675971 193.590349 
L 838.343235 193.857816 
L 840.477047 194.272215 
L 842.077406 194.709195 
L 844.211217 195.262603 
L 849.012293 197.142742 
L 850.079199 197.716324 
L 851.679557 198.521646 
L 852.746463 199.148661 
L 853.813369 199.747587 
L 856.480633 201.724885 
L 860.748256 205.672641 
L 863.948973 209.542012 
L 864.482426 210.446803 
L 865.549332 211.675112 
L 868.216596 215.549309 
L 868.750049 216.1234 
L 869.816955 217.894534 
L 872.484219 222.277164 
L 873.017672 222.986279 
L 874.084578 224.645552 
L 875.151484 226.046329 
L 879.419107 233.267659 
L 882.086371 237.991695 
L 886.887447 247.143263 
L 888.487806 250.234739 
L 890.088164 253.532208 
L 893.288882 258.236686 
L 893.822334 259.286168 
L 894.88924 260.896675 
L 899.156863 267.318468 
L 902.35758 272.959138 
L 902.891033 273.616377 
L 903.957939 275.575905 
L 907.158656 281.366951 
L 908.225562 283.173194 
L 908.759015 284.183888 
L 909.825921 285.71763 
L 910.892826 287.547131 
L 911.959732 289.439094 
L 913.560091 292.452475 
L 915.693902 296.148884 
L 916.760808 298.257775 
L 920.494978 304.715916 
L 922.62879 308.525886 
L 925.829507 313.77652 
L 926.36296 314.884731 
L 927.429865 316.652866 
L 929.563677 320.423321 
L 931.697488 323.920184 
L 932.764394 325.732967 
L 938.098923 335.087884 
L 939.699282 337.659201 
L 941.29964 340.761095 
L 942.366546 342.663266 
L 948.234528 355.918707 
L 950.368339 361.829641 
L 951.435245 364.584125 
L 956.236321 378.147425 
L 959.437038 386.351578 
L 963.171208 395.497193 
L 966.371925 402.671037 
L 967.438831 405.101137 
L 971.706454 413.489804 
L 972.77336 415.436257 
L 973.840266 417.310413 
L 976.50753 421.765503 
L 977.574436 423.205345 
L 981.308606 428.679955 
L 985.576229 433.907123 
L 989.843852 438.28528 
L 990.910758 439.375529 
L 996.245286 443.524066 
L 998.912551 445.134208 
L 1000.512909 446.014208 
L 1002.113268 447.009082 
L 1010.648514 451.322084 
L 1013.315778 452.343944 
L 1019.18376 454.318321 
L 1020.250666 454.59213 
L 1022.384477 455.238655 
L 1028.252459 456.576988 
L 1033.586987 457.559389 
L 1034.653893 457.831163 
L 1036.254252 458.093538 
L 1042.122233 458.957169 
L 1044.256045 459.194394 
L 1053.324744 460.265722 
L 1059.726178 460.704496 
L 1061.85999 460.866633 
L 1079.463935 461.946779 
L 1086.398822 462.220868 
L 1093.867162 462.464846 
L 1101.335503 462.684042 
L 1110.404201 462.942628 
L 1117.872542 463.038947 
L 1123.740523 463.094657 
L 1158.948413 463.447202 
L 1165.8833 463.490049 
L 1286.977103 463.779799 
L 1368.595393 463.820129 
L 1368.595393 463.820129 
" style="fill:none;stroke:#008000;stroke-linecap:square;stroke-width:1.5;"/>
   </g>
   <g id="line2d_36">
    <path clip-path="url(#p070a336ebc)" d="M 836.209424 463.84 
L 836.209424 41.64 
" style="fill:none;stroke:#1f77b4;stroke-linecap:square;stroke-width:1.5;"/>
   </g>
   <g id="patch_9">
    <path d="M 809.03 463.84 
L 809.03 41.64 
" style="fill:none;stroke:#000000;stroke-linecap:square;stroke-linejoin:miter;stroke-width:0.8;"/>
   </g>
   <g id="patch_10">
    <path d="M 1395.241364 463.84 
L 1395.241364 41.64 
" style="fill:none;stroke:#000000;stroke-linecap:square;stroke-linejoin:miter;stroke-width:0.8;"/>
   </g>
   <g id="patch_11">
    <path d="M 809.03 463.84 
L 1395.241364 463.84 
" style="fill:none;stroke:#000000;stroke-linecap:square;stroke-linejoin:miter;stroke-width:0.8;"/>
   </g>
   <g id="patch_12">
    <path d="M 809.03 41.64 
L 1395.241364 41.64 
" style="fill:none;stroke:#000000;stroke-linecap:square;stroke-linejoin:miter;stroke-width:0.8;"/>
   </g>
   <g id="text_31">
    <!-- Purity/Efficiency vs dedxW Cutoff — Photon -->
    <defs>
     <path d="M 54.890625 33.015625 
L 54.890625 0 
L 45.90625 0 
L 45.90625 32.71875 
Q 45.90625 40.484375 42.875 44.328125 
Q 39.84375 48.1875 33.796875 48.1875 
Q 26.515625 48.1875 22.3125 43.546875 
Q 18.109375 38.921875 18.109375 30.90625 
L 18.109375 0 
L 9.078125 0 
L 9.078125 75.984375 
L 18.109375 75.984375 
L 18.109375 46.1875 
Q 21.34375 51.125 25.703125 53.5625 
Q 30.078125 56 35.796875 56 
Q 45.21875 56 50.046875 50.171875 
Q 54.890625 44.34375 54.890625 33.015625 
z
" id="DejaVuSans-104"/>
    </defs>
    <g transform="translate(819.968132 35.64)scale(0.2592 -0.2592)">
     <use xlink:href="#DejaVuSans-80"/>
     <use x="60.287109" xlink:href="#DejaVuSans-117"/>
     <use x="123.666016" xlink:href="#DejaVuSans-114"/>
     <use x="164.779297" xlink:href="#DejaVuSans-105"/>
     <use x="192.5625" xlink:href="#DejaVuSans-116"/>
     <use x="231.771484" xlink:href="#DejaVuSans-121"/>
     <use x="290.951172" xlink:href="#DejaVuSans-47"/>
     <use x="324.642578" xlink:href="#DejaVuSans-69"/>
     <use x="387.826172" xlink:href="#DejaVuSans-102"/>
     <use x="423.03125" xlink:href="#DejaVuSans-102"/>
     <use x="458.236328" xlink:href="#DejaVuSans-105"/>
     <use x="486.019531" xlink:href="#DejaVuSans-99"/>
     <use x="541" xlink:href="#DejaVuSans-105"/>
     <use x="568.783203" xlink:href="#DejaVuSans-101"/>
     <use x="630.306641" xlink:href="#DejaVuSans-110"/>
     <use x="693.685547" xlink:href="#DejaVuSans-99"/>
     <use x="748.666016" xlink:href="#DejaVuSans-121"/>
     <use x="807.845703" xlink:href="#DejaVuSans-32"/>
     <use x="839.632812" xlink:href="#DejaVuSans-118"/>
     <use x="898.8125" xlink:href="#DejaVuSans-115"/>
     <use x="950.912109" xlink:href="#DejaVuSans-32"/>
     <use x="982.699219" xlink:href="#DejaVuSans-100"/>
     <use x="1046.175781" xlink:href="#DejaVuSans-101"/>
     <use x="1107.699219" xlink:href="#DejaVuSans-100"/>
     <use x="1171.175781" xlink:href="#DejaVuSans-120"/>
     <use x="1230.355469" xlink:href="#DejaVuSans-87"/>
     <use x="1329.232422" xlink:href="#DejaVuSans-32"/>
     <use x="1361.019531" xlink:href="#DejaVuSans-67"/>
     <use x="1430.84375" xlink:href="#DejaVuSans-117"/>
     <use x="1494.222656" xlink:href="#DejaVuSans-116"/>
     <use x="1533.431641" xlink:href="#DejaVuSans-111"/>
     <use x="1594.613281" xlink:href="#DejaVuSans-102"/>
     <use x="1629.818359" xlink:href="#DejaVuSans-102"/>
     <use x="1665.023438" xlink:href="#DejaVuSans-32"/>
     <use x="1696.810547" xlink:href="#DejaVuSans-8212"/>
     <use x="1796.810547" xlink:href="#DejaVuSans-32"/>
     <use x="1828.597656" xlink:href="#DejaVuSans-80"/>
     <use x="1888.900391" xlink:href="#DejaVuSans-104"/>
     <use x="1952.279297" xlink:href="#DejaVuSans-111"/>
     <use x="2013.460938" xlink:href="#DejaVuSans-116"/>
     <use x="2052.669922" xlink:href="#DejaVuSans-111"/>
     <use x="2113.851562" xlink:href="#DejaVuSans-110"/>
    </g>
   </g>
   <g id="legend_2">
    <g id="patch_13">
     <path d="M 993.440994 454.84 
L 1210.830369 454.84 
Q 1214.430369 454.84 1214.430369 451.24 
L 1214.430369 373.778125 
Q 1214.430369 370.178125 1210.830369 370.178125 
L 993.440994 370.178125 
Q 989.840994 370.178125 989.840994 373.778125 
L 989.840994 451.24 
Q 989.840994 454.84 993.440994 454.84 
z
" style="fill:#ffffff;opacity:0.8;stroke:#cccccc;stroke-linejoin:miter;"/>
    </g>
    <g id="line2d_37">
     <path d="M 997.040994 384.755313 
L 1033.040994 384.755313 
" style="fill:none;stroke:#0000ff;stroke-linecap:square;stroke-width:1.5;"/>
    </g>
    <g id="line2d_38"/>
    <g id="text_32">
     <!-- Efficiency -->
     <g transform="translate(1047.440994 391.055313)scale(0.18 -0.18)">
      <use xlink:href="#DejaVuSans-69"/>
      <use x="63.183594" xlink:href="#DejaVuSans-102"/>
      <use x="98.388672" xlink:href="#DejaVuSans-102"/>
      <use x="133.59375" xlink:href="#DejaVuSans-105"/>
      <use x="161.376953" xlink:href="#DejaVuSans-99"/>
      <use x="216.357422" xlink:href="#DejaVuSans-105"/>
      <use x="244.140625" xlink:href="#DejaVuSans-101"/>
      <use x="305.664062" xlink:href="#DejaVuSans-110"/>
      <use x="369.042969" xlink:href="#DejaVuSans-99"/>
      <use x="424.023438" xlink:href="#DejaVuSans-121"/>
     </g>
    </g>
    <g id="line2d_39">
     <path d="M 997.040994 411.175937 
L 1033.040994 411.175937 
" style="fill:none;stroke:#ff0000;stroke-linecap:square;stroke-width:1.5;"/>
    </g>
    <g id="line2d_40"/>
    <g id="text_33">
     <!-- Purity -->
     <g transform="translate(1047.440994 417.475937)scale(0.18 -0.18)">
      <use xlink:href="#DejaVuSans-80"/>
      <use x="60.287109" xlink:href="#DejaVuSans-117"/>
      <use x="123.666016" xlink:href="#DejaVuSans-114"/>
      <use x="164.779297" xlink:href="#DejaVuSans-105"/>
      <use x="192.5625" xlink:href="#DejaVuSans-116"/>
      <use x="231.771484" xlink:href="#DejaVuSans-121"/>
     </g>
    </g>
    <g id="line2d_41">
     <path d="M 997.040994 437.596562 
L 1033.040994 437.596562 
" style="fill:none;stroke:#008000;stroke-linecap:square;stroke-width:1.5;"/>
    </g>
    <g id="line2d_42"/>
    <g id="text_34">
     <!-- Purity * Efficiency -->
     <g transform="translate(1047.440994 443.896562)scale(0.18 -0.18)">
      <use xlink:href="#DejaVuSans-80"/>
      <use x="60.287109" xlink:href="#DejaVuSans-117"/>
      <use x="123.666016" xlink:href="#DejaVuSans-114"/>
      <use x="164.779297" xlink:href="#DejaVuSans-105"/>
      <use x="192.5625" xlink:href="#DejaVuSans-116"/>
      <use x="231.771484" xlink:href="#DejaVuSans-121"/>
      <use x="290.951172" xlink:href="#DejaVuSans-32"/>
      <use x="322.738281" xlink:href="#DejaVuSans-42"/>
      <use x="372.738281" xlink:href="#DejaVuSans-32"/>
      <use x="404.525391" xlink:href="#DejaVuSans-69"/>
      <use x="467.708984" xlink:href="#DejaVuSans-102"/>
      <use x="502.914062" xlink:href="#DejaVuSans-102"/>
      <use x="538.119141" xlink:href="#DejaVuSans-105"/>
      <use x="565.902344" xlink:href="#DejaVuSans-99"/>
      <use x="620.882812" xlink:href="#DejaVuSans-105"/>
      <use x="648.666016" xlink:href="#DejaVuSans-101"/>
      <use x="710.189453" xlink:href="#DejaVuSans-110"/>
      <use x="773.568359" xlink:href="#DejaVuSans-99"/>
      <use x="828.548828" xlink:href="#DejaVuSans-121"/>
     </g>
    </g>
   </g>
  </g>
 </g>
 <defs>
  <clipPath id="p79b3ea2872">
   <rect height="422.2" width="586.211364" x="92.99" y="41.64"/>
  </clipPath>
  <clipPath id="p070a336ebc">
   <rect height="422.2" width="586.211364" x="809.03" y="41.64"/>
  </clipPath>
 </defs>
</svg>
