<?xml version="1.0" encoding="utf-8" standalone="no"?>
<!DOCTYPE svg PUBLIC "-//W3C//DTD SVG 1.1//EN"
  "http://www.w3.org/Graphics/SVG/1.1/DTD/svg11.dtd">
<!-- Created with matplotlib (https://matplotlib.org/) -->
<svg height="540pt" version="1.1" viewBox="0 0 1440 540" width="1440pt" xmlns="http://www.w3.org/2000/svg" xmlns:xlink="http://www.w3.org/1999/xlink">
 <defs>
  <style type="text/css">
*{stroke-linecap:butt;stroke-linejoin:round;}
  </style>
 </defs>
 <g id="figure_1">
  <g id="patch_1">
   <path d="M 0 540 
L 1440 540 
L 1440 0 
L 0 0 
z
" style="fill:#ffffff;"/>
  </g>
  <g id="axes_1">
   <g id="patch_2">
    <path d="M 92.99 463.84 
L 673.081364 463.84 
L 673.081364 41.64 
L 92.99 41.64 
z
" style="fill:#ffffff;"/>
   </g>
   <g id="matplotlib.axis_1">
    <g id="xtick_1">
     <g id="line2d_1">
      <defs>
       <path d="M 0 0 
L 0 3.5 
" id="m23ea4f779b" style="stroke:#000000;stroke-width:0.8;"/>
      </defs>
      <g>
       <use style="stroke:#000000;stroke-width:0.8;" x="119.357789" xlink:href="#m23ea4f779b" y="463.84"/>
      </g>
     </g>
     <g id="text_1">
      <!-- 0.0 -->
      <defs>
       <path d="M 31.78125 66.40625 
Q 24.171875 66.40625 20.328125 58.90625 
Q 16.5 51.421875 16.5 36.375 
Q 16.5 21.390625 20.328125 13.890625 
Q 24.171875 6.390625 31.78125 6.390625 
Q 39.453125 6.390625 43.28125 13.890625 
Q 47.125 21.390625 47.125 36.375 
Q 47.125 51.421875 43.28125 58.90625 
Q 39.453125 66.40625 31.78125 66.40625 
z
M 31.78125 74.21875 
Q 44.046875 74.21875 50.515625 64.515625 
Q 56.984375 54.828125 56.984375 36.375 
Q 56.984375 17.96875 50.515625 8.265625 
Q 44.046875 -1.421875 31.78125 -1.421875 
Q 19.53125 -1.421875 13.0625 8.265625 
Q 6.59375 17.96875 6.59375 36.375 
Q 6.59375 54.828125 13.0625 64.515625 
Q 19.53125 74.21875 31.78125 74.21875 
z
" id="DejaVuSans-48"/>
       <path d="M 10.6875 12.40625 
L 21 12.40625 
L 21 0 
L 10.6875 0 
z
" id="DejaVuSans-46"/>
      </defs>
      <g transform="translate(98.747339 490.53515)scale(0.2592 -0.2592)">
       <use xlink:href="#DejaVuSans-48"/>
       <use x="63.623047" xlink:href="#DejaVuSans-46"/>
       <use x="95.410156" xlink:href="#DejaVuSans-48"/>
      </g>
     </g>
    </g>
    <g id="xtick_2">
     <g id="line2d_2">
      <g>
       <use style="stroke:#000000;stroke-width:0.8;" x="224.828946" xlink:href="#m23ea4f779b" y="463.84"/>
      </g>
     </g>
     <g id="text_2">
      <!-- 0.2 -->
      <defs>
       <path d="M 19.1875 8.296875 
L 53.609375 8.296875 
L 53.609375 0 
L 7.328125 0 
L 7.328125 8.296875 
Q 12.9375 14.109375 22.625 23.890625 
Q 32.328125 33.6875 34.8125 36.53125 
Q 39.546875 41.84375 41.421875 45.53125 
Q 43.3125 49.21875 43.3125 52.78125 
Q 43.3125 58.59375 39.234375 62.25 
Q 35.15625 65.921875 28.609375 65.921875 
Q 23.96875 65.921875 18.8125 64.3125 
Q 13.671875 62.703125 7.8125 59.421875 
L 7.8125 69.390625 
Q 13.765625 71.78125 18.9375 73 
Q 24.125 74.21875 28.421875 74.21875 
Q 39.75 74.21875 46.484375 68.546875 
Q 53.21875 62.890625 53.21875 53.421875 
Q 53.21875 48.921875 51.53125 44.890625 
Q 49.859375 40.875 45.40625 35.40625 
Q 44.1875 33.984375 37.640625 27.21875 
Q 31.109375 20.453125 19.1875 8.296875 
z
" id="DejaVuSans-50"/>
      </defs>
      <g transform="translate(204.218496 490.53515)scale(0.2592 -0.2592)">
       <use xlink:href="#DejaVuSans-48"/>
       <use x="63.623047" xlink:href="#DejaVuSans-46"/>
       <use x="95.410156" xlink:href="#DejaVuSans-50"/>
      </g>
     </g>
    </g>
    <g id="xtick_3">
     <g id="line2d_3">
      <g>
       <use style="stroke:#000000;stroke-width:0.8;" x="330.300103" xlink:href="#m23ea4f779b" y="463.84"/>
      </g>
     </g>
     <g id="text_3">
      <!-- 0.4 -->
      <defs>
       <path d="M 37.796875 64.3125 
L 12.890625 25.390625 
L 37.796875 25.390625 
z
M 35.203125 72.90625 
L 47.609375 72.90625 
L 47.609375 25.390625 
L 58.015625 25.390625 
L 58.015625 17.1875 
L 47.609375 17.1875 
L 47.609375 0 
L 37.796875 0 
L 37.796875 17.1875 
L 4.890625 17.1875 
L 4.890625 26.703125 
z
" id="DejaVuSans-52"/>
      </defs>
      <g transform="translate(309.689653 490.53515)scale(0.2592 -0.2592)">
       <use xlink:href="#DejaVuSans-48"/>
       <use x="63.623047" xlink:href="#DejaVuSans-46"/>
       <use x="95.410156" xlink:href="#DejaVuSans-52"/>
      </g>
     </g>
    </g>
    <g id="xtick_4">
     <g id="line2d_4">
      <g>
       <use style="stroke:#000000;stroke-width:0.8;" x="435.77126" xlink:href="#m23ea4f779b" y="463.84"/>
      </g>
     </g>
     <g id="text_4">
      <!-- 0.6 -->
      <defs>
       <path d="M 33.015625 40.375 
Q 26.375 40.375 22.484375 35.828125 
Q 18.609375 31.296875 18.609375 23.390625 
Q 18.609375 15.53125 22.484375 10.953125 
Q 26.375 6.390625 33.015625 6.390625 
Q 39.65625 6.390625 43.53125 10.953125 
Q 47.40625 15.53125 47.40625 23.390625 
Q 47.40625 31.296875 43.53125 35.828125 
Q 39.65625 40.375 33.015625 40.375 
z
M 52.59375 71.296875 
L 52.59375 62.3125 
Q 48.875 64.0625 45.09375 64.984375 
Q 41.3125 65.921875 37.59375 65.921875 
Q 27.828125 65.921875 22.671875 59.328125 
Q 17.53125 52.734375 16.796875 39.40625 
Q 19.671875 43.65625 24.015625 45.921875 
Q 28.375 48.1875 33.59375 48.1875 
Q 44.578125 48.1875 50.953125 41.515625 
Q 57.328125 34.859375 57.328125 23.390625 
Q 57.328125 12.15625 50.6875 5.359375 
Q 44.046875 -1.421875 33.015625 -1.421875 
Q 20.359375 -1.421875 13.671875 8.265625 
Q 6.984375 17.96875 6.984375 36.375 
Q 6.984375 53.65625 15.1875 63.9375 
Q 23.390625 74.21875 37.203125 74.21875 
Q 40.921875 74.21875 44.703125 73.484375 
Q 48.484375 72.75 52.59375 71.296875 
z
" id="DejaVuSans-54"/>
      </defs>
      <g transform="translate(415.16081 490.53515)scale(0.2592 -0.2592)">
       <use xlink:href="#DejaVuSans-48"/>
       <use x="63.623047" xlink:href="#DejaVuSans-46"/>
       <use x="95.410156" xlink:href="#DejaVuSans-54"/>
      </g>
     </g>
    </g>
    <g id="xtick_5">
     <g id="line2d_5">
      <g>
       <use style="stroke:#000000;stroke-width:0.8;" x="541.242417" xlink:href="#m23ea4f779b" y="463.84"/>
      </g>
     </g>
     <g id="text_5">
      <!-- 0.8 -->
      <defs>
       <path d="M 31.78125 34.625 
Q 24.75 34.625 20.71875 30.859375 
Q 16.703125 27.09375 16.703125 20.515625 
Q 16.703125 13.921875 20.71875 10.15625 
Q 24.75 6.390625 31.78125 6.390625 
Q 38.8125 6.390625 42.859375 10.171875 
Q 46.921875 13.96875 46.921875 20.515625 
Q 46.921875 27.09375 42.890625 30.859375 
Q 38.875 34.625 31.78125 34.625 
z
M 21.921875 38.8125 
Q 15.578125 40.375 12.03125 44.71875 
Q 8.5 49.078125 8.5 55.328125 
Q 8.5 64.0625 14.71875 69.140625 
Q 20.953125 74.21875 31.78125 74.21875 
Q 42.671875 74.21875 48.875 69.140625 
Q 55.078125 64.0625 55.078125 55.328125 
Q 55.078125 49.078125 51.53125 44.71875 
Q 48 40.375 41.703125 38.8125 
Q 48.828125 37.15625 52.796875 32.3125 
Q 56.78125 27.484375 56.78125 20.515625 
Q 56.78125 9.90625 50.3125 4.234375 
Q 43.84375 -1.421875 31.78125 -1.421875 
Q 19.734375 -1.421875 13.25 4.234375 
Q 6.78125 9.90625 6.78125 20.515625 
Q 6.78125 27.484375 10.78125 32.3125 
Q 14.796875 37.15625 21.921875 38.8125 
z
M 18.3125 54.390625 
Q 18.3125 48.734375 21.84375 45.5625 
Q 25.390625 42.390625 31.78125 42.390625 
Q 38.140625 42.390625 41.71875 45.5625 
Q 45.3125 48.734375 45.3125 54.390625 
Q 45.3125 60.0625 41.71875 63.234375 
Q 38.140625 66.40625 31.78125 66.40625 
Q 25.390625 66.40625 21.84375 63.234375 
Q 18.3125 60.0625 18.3125 54.390625 
z
" id="DejaVuSans-56"/>
      </defs>
      <g transform="translate(520.631967 490.53515)scale(0.2592 -0.2592)">
       <use xlink:href="#DejaVuSans-48"/>
       <use x="63.623047" xlink:href="#DejaVuSans-46"/>
       <use x="95.410156" xlink:href="#DejaVuSans-56"/>
      </g>
     </g>
    </g>
    <g id="xtick_6">
     <g id="line2d_6">
      <g>
       <use style="stroke:#000000;stroke-width:0.8;" x="646.713574" xlink:href="#m23ea4f779b" y="463.84"/>
      </g>
     </g>
     <g id="text_6">
      <!-- 1.0 -->
      <defs>
       <path d="M 12.40625 8.296875 
L 28.515625 8.296875 
L 28.515625 63.921875 
L 10.984375 60.40625 
L 10.984375 69.390625 
L 28.421875 72.90625 
L 38.28125 72.90625 
L 38.28125 8.296875 
L 54.390625 8.296875 
L 54.390625 0 
L 12.40625 0 
z
" id="DejaVuSans-49"/>
      </defs>
      <g transform="translate(626.103124 490.53515)scale(0.2592 -0.2592)">
       <use xlink:href="#DejaVuSans-49"/>
       <use x="63.623047" xlink:href="#DejaVuSans-46"/>
       <use x="95.410156" xlink:href="#DejaVuSans-48"/>
      </g>
     </g>
    </g>
    <g id="text_7">
     <!-- purityW Cutoff -->
     <defs>
      <path d="M 18.109375 8.203125 
L 18.109375 -20.796875 
L 9.078125 -20.796875 
L 9.078125 54.6875 
L 18.109375 54.6875 
L 18.109375 46.390625 
Q 20.953125 51.265625 25.265625 53.625 
Q 29.59375 56 35.59375 56 
Q 45.5625 56 51.78125 48.09375 
Q 58.015625 40.1875 58.015625 27.296875 
Q 58.015625 14.40625 51.78125 6.484375 
Q 45.5625 -1.421875 35.59375 -1.421875 
Q 29.59375 -1.421875 25.265625 0.953125 
Q 20.953125 3.328125 18.109375 8.203125 
z
M 48.6875 27.296875 
Q 48.6875 37.203125 44.609375 42.84375 
Q 40.53125 48.484375 33.40625 48.484375 
Q 26.265625 48.484375 22.1875 42.84375 
Q 18.109375 37.203125 18.109375 27.296875 
Q 18.109375 17.390625 22.1875 11.75 
Q 26.265625 6.109375 33.40625 6.109375 
Q 40.53125 6.109375 44.609375 11.75 
Q 48.6875 17.390625 48.6875 27.296875 
z
" id="DejaVuSans-112"/>
      <path d="M 8.5 21.578125 
L 8.5 54.6875 
L 17.484375 54.6875 
L 17.484375 21.921875 
Q 17.484375 14.15625 20.5 10.265625 
Q 23.53125 6.390625 29.59375 6.390625 
Q 36.859375 6.390625 41.078125 11.03125 
Q 45.3125 15.671875 45.3125 23.6875 
L 45.3125 54.6875 
L 54.296875 54.6875 
L 54.296875 0 
L 45.3125 0 
L 45.3125 8.40625 
Q 42.046875 3.421875 37.71875 1 
Q 33.40625 -1.421875 27.6875 -1.421875 
Q 18.265625 -1.421875 13.375 4.4375 
Q 8.5 10.296875 8.5 21.578125 
z
M 31.109375 56 
z
" id="DejaVuSans-117"/>
      <path d="M 41.109375 46.296875 
Q 39.59375 47.171875 37.8125 47.578125 
Q 36.03125 48 33.890625 48 
Q 26.265625 48 22.1875 43.046875 
Q 18.109375 38.09375 18.109375 28.8125 
L 18.109375 0 
L 9.078125 0 
L 9.078125 54.6875 
L 18.109375 54.6875 
L 18.109375 46.1875 
Q 20.953125 51.171875 25.484375 53.578125 
Q 30.03125 56 36.53125 56 
Q 37.453125 56 38.578125 55.875 
Q 39.703125 55.765625 41.0625 55.515625 
z
" id="DejaVuSans-114"/>
      <path d="M 9.421875 54.6875 
L 18.40625 54.6875 
L 18.40625 0 
L 9.421875 0 
z
M 9.421875 75.984375 
L 18.40625 75.984375 
L 18.40625 64.59375 
L 9.421875 64.59375 
z
" id="DejaVuSans-105"/>
      <path d="M 18.3125 70.21875 
L 18.3125 54.6875 
L 36.8125 54.6875 
L 36.8125 47.703125 
L 18.3125 47.703125 
L 18.3125 18.015625 
Q 18.3125 11.328125 20.140625 9.421875 
Q 21.96875 7.515625 27.59375 7.515625 
L 36.8125 7.515625 
L 36.8125 0 
L 27.59375 0 
Q 17.1875 0 13.234375 3.875 
Q 9.28125 7.765625 9.28125 18.015625 
L 9.28125 47.703125 
L 2.6875 47.703125 
L 2.6875 54.6875 
L 9.28125 54.6875 
L 9.28125 70.21875 
z
" id="DejaVuSans-116"/>
      <path d="M 32.171875 -5.078125 
Q 28.375 -14.84375 24.75 -17.8125 
Q 21.140625 -20.796875 15.09375 -20.796875 
L 7.90625 -20.796875 
L 7.90625 -13.28125 
L 13.1875 -13.28125 
Q 16.890625 -13.28125 18.9375 -11.515625 
Q 21 -9.765625 23.484375 -3.21875 
L 25.09375 0.875 
L 2.984375 54.6875 
L 12.5 54.6875 
L 29.59375 11.921875 
L 46.6875 54.6875 
L 56.203125 54.6875 
z
" id="DejaVuSans-121"/>
      <path d="M 3.328125 72.90625 
L 13.28125 72.90625 
L 28.609375 11.28125 
L 43.890625 72.90625 
L 54.984375 72.90625 
L 70.3125 11.28125 
L 85.59375 72.90625 
L 95.609375 72.90625 
L 77.296875 0 
L 64.890625 0 
L 49.515625 63.28125 
L 33.984375 0 
L 21.578125 0 
z
" id="DejaVuSans-87"/>
      <path id="DejaVuSans-32"/>
      <path d="M 64.40625 67.28125 
L 64.40625 56.890625 
Q 59.421875 61.53125 53.78125 63.8125 
Q 48.140625 66.109375 41.796875 66.109375 
Q 29.296875 66.109375 22.65625 58.46875 
Q 16.015625 50.828125 16.015625 36.375 
Q 16.015625 21.96875 22.65625 14.328125 
Q 29.296875 6.6875 41.796875 6.6875 
Q 48.140625 6.6875 53.78125 8.984375 
Q 59.421875 11.28125 64.40625 15.921875 
L 64.40625 5.609375 
Q 59.234375 2.09375 53.4375 0.328125 
Q 47.65625 -1.421875 41.21875 -1.421875 
Q 24.65625 -1.421875 15.125 8.703125 
Q 5.609375 18.84375 5.609375 36.375 
Q 5.609375 53.953125 15.125 64.078125 
Q 24.65625 74.21875 41.21875 74.21875 
Q 47.75 74.21875 53.53125 72.484375 
Q 59.328125 70.75 64.40625 67.28125 
z
" id="DejaVuSans-67"/>
      <path d="M 30.609375 48.390625 
Q 23.390625 48.390625 19.1875 42.75 
Q 14.984375 37.109375 14.984375 27.296875 
Q 14.984375 17.484375 19.15625 11.84375 
Q 23.34375 6.203125 30.609375 6.203125 
Q 37.796875 6.203125 41.984375 11.859375 
Q 46.1875 17.53125 46.1875 27.296875 
Q 46.1875 37.015625 41.984375 42.703125 
Q 37.796875 48.390625 30.609375 48.390625 
z
M 30.609375 56 
Q 42.328125 56 49.015625 48.375 
Q 55.71875 40.765625 55.71875 27.296875 
Q 55.71875 13.875 49.015625 6.21875 
Q 42.328125 -1.421875 30.609375 -1.421875 
Q 18.84375 -1.421875 12.171875 6.21875 
Q 5.515625 13.875 5.515625 27.296875 
Q 5.515625 40.765625 12.171875 48.375 
Q 18.84375 56 30.609375 56 
z
" id="DejaVuSans-111"/>
      <path d="M 37.109375 75.984375 
L 37.109375 68.5 
L 28.515625 68.5 
Q 23.6875 68.5 21.796875 66.546875 
Q 19.921875 64.59375 19.921875 59.515625 
L 19.921875 54.6875 
L 34.71875 54.6875 
L 34.71875 47.703125 
L 19.921875 47.703125 
L 19.921875 0 
L 10.890625 0 
L 10.890625 47.703125 
L 2.296875 47.703125 
L 2.296875 54.6875 
L 10.890625 54.6875 
L 10.890625 58.5 
Q 10.890625 67.625 15.140625 71.796875 
Q 19.390625 75.984375 28.609375 75.984375 
z
" id="DejaVuSans-102"/>
     </defs>
     <g transform="translate(288.583607 519.62085)scale(0.2592 -0.2592)">
      <use xlink:href="#DejaVuSans-112"/>
      <use x="63.476562" xlink:href="#DejaVuSans-117"/>
      <use x="126.855469" xlink:href="#DejaVuSans-114"/>
      <use x="167.96875" xlink:href="#DejaVuSans-105"/>
      <use x="195.751953" xlink:href="#DejaVuSans-116"/>
      <use x="234.960938" xlink:href="#DejaVuSans-121"/>
      <use x="294.140625" xlink:href="#DejaVuSans-87"/>
      <use x="393.017578" xlink:href="#DejaVuSans-32"/>
      <use x="424.804688" xlink:href="#DejaVuSans-67"/>
      <use x="494.628906" xlink:href="#DejaVuSans-117"/>
      <use x="558.007812" xlink:href="#DejaVuSans-116"/>
      <use x="597.216797" xlink:href="#DejaVuSans-111"/>
      <use x="658.398438" xlink:href="#DejaVuSans-102"/>
      <use x="693.603516" xlink:href="#DejaVuSans-102"/>
     </g>
    </g>
   </g>
   <g id="matplotlib.axis_2">
    <g id="ytick_1">
     <g id="line2d_7">
      <defs>
       <path d="M 0 0 
L -3.5 0 
" id="m091232ff25" style="stroke:#000000;stroke-width:0.8;"/>
      </defs>
      <g>
       <use style="stroke:#000000;stroke-width:0.8;" x="92.99" xlink:href="#m091232ff25" y="463.84"/>
      </g>
     </g>
     <g id="text_8">
      <!-- 0.0 -->
      <g transform="translate(44.7691 473.687575)scale(0.2592 -0.2592)">
       <use xlink:href="#DejaVuSans-48"/>
       <use x="63.623047" xlink:href="#DejaVuSans-46"/>
       <use x="95.410156" xlink:href="#DejaVuSans-48"/>
      </g>
     </g>
    </g>
    <g id="ytick_2">
     <g id="line2d_8">
      <g>
       <use style="stroke:#000000;stroke-width:0.8;" x="92.99" xlink:href="#m091232ff25" y="379.4"/>
      </g>
     </g>
     <g id="text_9">
      <!-- 0.2 -->
      <g transform="translate(44.7691 389.247575)scale(0.2592 -0.2592)">
       <use xlink:href="#DejaVuSans-48"/>
       <use x="63.623047" xlink:href="#DejaVuSans-46"/>
       <use x="95.410156" xlink:href="#DejaVuSans-50"/>
      </g>
     </g>
    </g>
    <g id="ytick_3">
     <g id="line2d_9">
      <g>
       <use style="stroke:#000000;stroke-width:0.8;" x="92.99" xlink:href="#m091232ff25" y="294.96"/>
      </g>
     </g>
     <g id="text_10">
      <!-- 0.4 -->
      <g transform="translate(44.7691 304.807575)scale(0.2592 -0.2592)">
       <use xlink:href="#DejaVuSans-48"/>
       <use x="63.623047" xlink:href="#DejaVuSans-46"/>
       <use x="95.410156" xlink:href="#DejaVuSans-52"/>
      </g>
     </g>
    </g>
    <g id="ytick_4">
     <g id="line2d_10">
      <g>
       <use style="stroke:#000000;stroke-width:0.8;" x="92.99" xlink:href="#m091232ff25" y="210.52"/>
      </g>
     </g>
     <g id="text_11">
      <!-- 0.6 -->
      <g transform="translate(44.7691 220.367575)scale(0.2592 -0.2592)">
       <use xlink:href="#DejaVuSans-48"/>
       <use x="63.623047" xlink:href="#DejaVuSans-46"/>
       <use x="95.410156" xlink:href="#DejaVuSans-54"/>
      </g>
     </g>
    </g>
    <g id="ytick_5">
     <g id="line2d_11">
      <g>
       <use style="stroke:#000000;stroke-width:0.8;" x="92.99" xlink:href="#m091232ff25" y="126.08"/>
      </g>
     </g>
     <g id="text_12">
      <!-- 0.8 -->
      <g transform="translate(44.7691 135.927575)scale(0.2592 -0.2592)">
       <use xlink:href="#DejaVuSans-48"/>
       <use x="63.623047" xlink:href="#DejaVuSans-46"/>
       <use x="95.410156" xlink:href="#DejaVuSans-56"/>
      </g>
     </g>
    </g>
    <g id="ytick_6">
     <g id="line2d_12">
      <g>
       <use style="stroke:#000000;stroke-width:0.8;" x="92.99" xlink:href="#m091232ff25" y="41.64"/>
      </g>
     </g>
     <g id="text_13">
      <!-- 1.0 -->
      <g transform="translate(44.7691 51.487575)scale(0.2592 -0.2592)">
       <use xlink:href="#DejaVuSans-49"/>
       <use x="63.623047" xlink:href="#DejaVuSans-46"/>
       <use x="95.410156" xlink:href="#DejaVuSans-48"/>
      </g>
     </g>
    </g>
    <g id="text_14">
     <!-- Fraction -->
     <defs>
      <path d="M 9.8125 72.90625 
L 51.703125 72.90625 
L 51.703125 64.59375 
L 19.671875 64.59375 
L 19.671875 43.109375 
L 48.578125 43.109375 
L 48.578125 34.8125 
L 19.671875 34.8125 
L 19.671875 0 
L 9.8125 0 
z
" id="DejaVuSans-70"/>
      <path d="M 34.28125 27.484375 
Q 23.390625 27.484375 19.1875 25 
Q 14.984375 22.515625 14.984375 16.5 
Q 14.984375 11.71875 18.140625 8.90625 
Q 21.296875 6.109375 26.703125 6.109375 
Q 34.1875 6.109375 38.703125 11.40625 
Q 43.21875 16.703125 43.21875 25.484375 
L 43.21875 27.484375 
z
M 52.203125 31.203125 
L 52.203125 0 
L 43.21875 0 
L 43.21875 8.296875 
Q 40.140625 3.328125 35.546875 0.953125 
Q 30.953125 -1.421875 24.3125 -1.421875 
Q 15.921875 -1.421875 10.953125 3.296875 
Q 6 8.015625 6 15.921875 
Q 6 25.140625 12.171875 29.828125 
Q 18.359375 34.515625 30.609375 34.515625 
L 43.21875 34.515625 
L 43.21875 35.40625 
Q 43.21875 41.609375 39.140625 45 
Q 35.0625 48.390625 27.6875 48.390625 
Q 23 48.390625 18.546875 47.265625 
Q 14.109375 46.140625 10.015625 43.890625 
L 10.015625 52.203125 
Q 14.9375 54.109375 19.578125 55.046875 
Q 24.21875 56 28.609375 56 
Q 40.484375 56 46.34375 49.84375 
Q 52.203125 43.703125 52.203125 31.203125 
z
" id="DejaVuSans-97"/>
      <path d="M 48.78125 52.59375 
L 48.78125 44.1875 
Q 44.96875 46.296875 41.140625 47.34375 
Q 37.3125 48.390625 33.40625 48.390625 
Q 24.65625 48.390625 19.8125 42.84375 
Q 14.984375 37.3125 14.984375 27.296875 
Q 14.984375 17.28125 19.8125 11.734375 
Q 24.65625 6.203125 33.40625 6.203125 
Q 37.3125 6.203125 41.140625 7.25 
Q 44.96875 8.296875 48.78125 10.40625 
L 48.78125 2.09375 
Q 45.015625 0.34375 40.984375 -0.53125 
Q 36.96875 -1.421875 32.421875 -1.421875 
Q 20.0625 -1.421875 12.78125 6.34375 
Q 5.515625 14.109375 5.515625 27.296875 
Q 5.515625 40.671875 12.859375 48.328125 
Q 20.21875 56 33.015625 56 
Q 37.15625 56 41.109375 55.140625 
Q 45.0625 54.296875 48.78125 52.59375 
z
" id="DejaVuSans-99"/>
      <path d="M 54.890625 33.015625 
L 54.890625 0 
L 45.90625 0 
L 45.90625 32.71875 
Q 45.90625 40.484375 42.875 44.328125 
Q 39.84375 48.1875 33.796875 48.1875 
Q 26.515625 48.1875 22.3125 43.546875 
Q 18.109375 38.921875 18.109375 30.90625 
L 18.109375 0 
L 9.078125 0 
L 9.078125 54.6875 
L 18.109375 54.6875 
L 18.109375 46.1875 
Q 21.34375 51.125 25.703125 53.5625 
Q 30.078125 56 35.796875 56 
Q 45.21875 56 50.046875 50.171875 
Q 54.890625 44.34375 54.890625 33.015625 
z
" id="DejaVuSans-110"/>
     </defs>
     <g transform="translate(35.37855 305.400125)rotate(-90)scale(0.2592 -0.2592)">
      <use xlink:href="#DejaVuSans-70"/>
      <use x="57.410156" xlink:href="#DejaVuSans-114"/>
      <use x="98.523438" xlink:href="#DejaVuSans-97"/>
      <use x="159.802734" xlink:href="#DejaVuSans-99"/>
      <use x="214.783203" xlink:href="#DejaVuSans-116"/>
      <use x="253.992188" xlink:href="#DejaVuSans-105"/>
      <use x="281.775391" xlink:href="#DejaVuSans-111"/>
      <use x="342.957031" xlink:href="#DejaVuSans-110"/>
     </g>
    </g>
   </g>
   <g id="line2d_13">
    <path clip-path="url(#p17596a7abc)" d="M 119.357789 41.64 
L 288.280563 41.64 
L 288.808447 53.050811 
L 409.693807 53.050811 
L 410.221691 64.461622 
L 489.932125 64.461622 
L 490.460008 65.095556 
L 490.987892 75.872432 
L 596.036742 75.872432 
L 596.564626 87.283243 
L 605.010765 87.283243 
L 605.538648 98.694054 
L 614.512671 98.694054 
L 615.040554 110.104865 
L 634.044366 110.104865 
L 634.57225 121.515676 
L 639.323203 121.515676 
L 639.851087 132.926486 
L 640.37897 132.926486 
L 641.434738 155.748108 
L 642.490505 155.748108 
L 643.018389 167.158919 
L 646.185691 167.158919 
L 646.713574 463.84 
L 646.713574 463.84 
" style="fill:none;stroke:#0000ff;stroke-linecap:square;stroke-width:1.5;"/>
   </g>
   <g id="line2d_14">
    <path clip-path="url(#p17596a7abc)" d="M 119.357789 377.054444 
L 288.280563 377.054444 
L 288.808447 378.928268 
L 303.58919 378.928268 
L 304.117073 378.451236 
L 329.983373 378.451236 
L 330.511257 377.968814 
L 341.596814 377.968814 
L 342.124697 377.480909 
L 347.931418 377.480909 
L 348.459302 376.987429 
L 382.77174 376.987429 
L 383.299624 375.983353 
L 405.998621 375.983353 
L 406.526505 375.472558 
L 409.693807 375.472558 
L 410.221691 377.424795 
L 412.861109 377.424795 
L 413.388993 376.916471 
L 425.002433 376.916471 
L 425.530317 376.40213 
L 431.337038 376.40213 
L 431.864921 375.881667 
L 435.560107 375.881667 
L 436.087991 375.35497 
L 447.173548 375.35497 
L 447.701431 374.821928 
L 465.121592 374.821928 
L 466.17736 373.736341 
L 467.233127 373.736341 
L 467.761011 373.183558 
L 468.288894 373.183558 
L 468.816778 372.623951 
L 481.485986 372.623951 
L 482.01387 372.057391 
L 489.932125 372.057391 
L 490.460008 374.1225 
L 495.738845 374.1225 
L 496.266729 373.558239 
L 497.85038 373.558239 
L 498.378263 372.986835 
L 506.296518 372.986835 
L 506.824402 372.408153 
L 521.077261 372.408153 
L 521.605145 371.822051 
L 536.385888 371.822051 
L 536.913771 371.228387 
L 545.887794 371.228387 
L 546.415677 370.627013 
L 547.999328 370.627013 
L 548.527212 370.017778 
L 550.638747 370.017778 
L 551.16663 369.400526 
L 558.557002 369.400526 
L 559.084885 368.775099 
L 571.22621 368.775099 
L 571.754093 368.141333 
L 578.088697 368.141333 
L 578.616581 367.49906 
L 579.144465 367.49906 
L 579.672348 366.848108 
L 580.728116 366.848108 
L 581.255999 365.519452 
L 581.783883 365.519452 
L 582.311767 364.841379 
L 587.590603 364.841379 
L 588.118487 362.749859 
L 589.702138 362.749859 
L 590.230022 362.032908 
L 593.925208 362.032908 
L 594.453091 361.305714 
L 596.036742 361.305714 
L 596.564626 362.87913 
L 598.676161 362.87913 
L 599.204044 359.865373 
L 599.731928 359.865373 
L 600.259812 358.29 
L 600.787695 358.29 
L 601.843463 356.666154 
L 602.371346 356.666154 
L 602.89923 355.835349 
L 604.482881 355.835349 
L 605.010765 354.134488 
L 605.538648 356.614603 
L 606.066532 355.7568 
L 608.178067 355.7568 
L 609.233834 353.99935 
L 611.345369 353.99935 
L 611.873252 353.099016 
L 612.401136 353.099016 
L 612.92902 352.183802 
L 613.984787 352.183802 
L 614.512671 351.253333 
L 615.040554 353.855126 
L 615.568438 353.855126 
L 616.096322 351.975043 
L 618.73574 351.975043 
L 619.263624 351.01069 
L 620.319391 351.01069 
L 620.847275 350.029565 
L 621.903042 350.029565 
L 622.430926 349.031228 
L 622.958809 346.981071 
L 623.486693 346.981071 
L 624.014577 343.764771 
L 624.54246 343.764771 
L 626.126111 336.770097 
L 627.181879 334.253861 
L 628.237646 334.253861 
L 628.76553 332.958 
L 629.821297 332.958 
L 630.349181 331.63596 
L 630.877064 331.63596 
L 631.404948 330.286939 
L 631.932832 330.286939 
L 632.460715 328.910103 
L 632.988599 326.069474 
L 633.516483 324.60383 
L 634.044366 324.60383 
L 634.57225 327.646452 
L 636.155901 327.646452 
L 637.739552 323.106667 
L 638.795319 323.106667 
L 639.323203 318.253793 
L 639.851087 321.470233 
L 640.37897 321.470233 
L 640.906854 324.762353 
L 641.434738 326.497831 
L 641.962621 326.497831 
L 642.490505 324.822927 
L 643.018389 328.319012 
L 644.60204 328.319012 
L 645.129923 326.625 
L 646.185691 326.625 
L 646.185691 326.625 
" style="fill:none;stroke:#ff0000;stroke-linecap:square;stroke-width:1.5;"/>
   </g>
   <g id="line2d_15">
    <path clip-path="url(#p17596a7abc)" d="M 119.357789 377.054444 
L 288.280563 377.054444 
L 288.808447 381.22318 
L 303.58919 381.22318 
L 304.117073 380.75904 
L 329.983373 380.75904 
L 330.511257 380.289656 
L 341.596814 380.289656 
L 342.124697 379.814939 
L 347.931418 379.814939 
L 348.459302 379.334795 
L 382.77174 379.334795 
L 383.299624 378.357857 
L 405.998621 378.357857 
L 406.526505 377.860867 
L 409.693807 377.860867 
L 410.221691 382.095887 
L 412.861109 382.095887 
L 413.388993 381.61504 
L 425.002433 381.61504 
L 425.530317 381.128502 
L 431.337038 381.128502 
L 431.864921 380.636171 
L 435.560107 380.636171 
L 436.087991 380.137945 
L 447.173548 380.137945 
L 447.701431 379.633715 
L 465.121592 379.633715 
L 466.17736 378.606809 
L 467.233127 378.606809 
L 467.761011 378.083906 
L 468.288894 378.083906 
L 468.816778 377.554548 
L 481.485986 377.554548 
L 482.01387 377.018613 
L 489.932125 377.018613 
L 490.987892 381.396892 
L 495.738845 381.396892 
L 496.266729 380.878382 
L 497.85038 380.878382 
L 498.378263 380.353308 
L 506.296518 380.353308 
L 506.824402 379.821546 
L 521.077261 379.821546 
L 521.605145 379.282966 
L 536.385888 379.282966 
L 536.913771 378.737437 
L 545.887794 378.737437 
L 546.415677 378.184823 
L 547.999328 378.184823 
L 548.527212 377.624985 
L 550.638747 377.624985 
L 551.16663 377.057781 
L 558.557002 377.057781 
L 559.084885 376.483064 
L 571.22621 376.483064 
L 571.754093 375.900685 
L 578.088697 375.900685 
L 578.616581 375.310488 
L 579.144465 375.310488 
L 579.672348 374.712316 
L 580.728116 374.712316 
L 581.255999 373.491388 
L 581.783883 373.491388 
L 582.311767 372.868295 
L 587.590603 372.868295 
L 588.118487 370.946357 
L 589.702138 370.946357 
L 590.230022 370.287537 
L 593.925208 370.287537 
L 594.453091 369.619305 
L 596.036742 369.619305 
L 596.564626 373.793819 
L 598.676161 373.793819 
L 599.204044 371.105873 
L 599.731928 371.105873 
L 600.259812 369.700811 
L 600.787695 369.700811 
L 601.843463 368.252516 
L 602.371346 368.252516 
L 602.89923 367.511527 
L 604.482881 367.511527 
L 605.010765 365.994544 
L 605.538648 371.104522 
L 606.066532 370.362638 
L 608.178067 370.362638 
L 609.233834 368.842681 
L 611.345369 368.842681 
L 611.873252 368.064014 
L 612.401136 368.064014 
L 612.92902 367.272477 
L 613.984787 367.272477 
L 614.512671 366.467748 
L 615.040554 371.690511 
L 615.568438 371.690511 
L 616.096322 370.115306 
L 618.73574 370.115306 
L 619.263624 369.307335 
L 620.319391 369.307335 
L 620.847275 368.485311 
L 621.903042 368.485311 
L 622.430926 367.648867 
L 622.958809 365.931168 
L 623.486693 365.931168 
L 624.014577 363.236429 
L 624.54246 363.236429 
L 626.126111 357.376027 
L 627.181879 355.26783 
L 628.237646 355.26783 
L 628.76553 354.182108 
L 629.821297 354.182108 
L 630.349181 353.074453 
L 630.877064 353.074453 
L 631.404948 351.944192 
L 631.932832 351.944192 
L 632.460715 350.790627 
L 632.988599 348.41064 
L 633.516483 347.182668 
L 634.044366 347.182668 
L 634.57225 353.412799 
L 636.155901 353.412799 
L 637.739552 349.731892 
L 638.795319 349.731892 
L 639.323203 345.79713 
L 639.851087 352.252885 
L 640.37897 352.252885 
L 641.434738 363.617336 
L 641.962621 363.617336 
L 642.490505 362.395109 
L 643.018389 368.609036 
L 644.60204 368.609036 
L 645.129923 367.418649 
L 646.185691 367.418649 
L 646.185691 367.418649 
" style="fill:none;stroke:#008000;stroke-linecap:square;stroke-width:1.5;"/>
   </g>
   <g id="line2d_16">
    <path clip-path="url(#p17596a7abc)" d="M 639.323203 463.84 
L 639.323203 41.64 
" style="fill:none;stroke:#1f77b4;stroke-linecap:square;stroke-width:1.5;"/>
   </g>
   <g id="patch_3">
    <path d="M 92.99 463.84 
L 92.99 41.64 
" style="fill:none;stroke:#000000;stroke-linecap:square;stroke-linejoin:miter;stroke-width:0.8;"/>
   </g>
   <g id="patch_4">
    <path d="M 673.081364 463.84 
L 673.081364 41.64 
" style="fill:none;stroke:#000000;stroke-linecap:square;stroke-linejoin:miter;stroke-width:0.8;"/>
   </g>
   <g id="patch_5">
    <path d="M 92.99 463.84 
L 673.081364 463.84 
" style="fill:none;stroke:#000000;stroke-linecap:square;stroke-linejoin:miter;stroke-width:0.8;"/>
   </g>
   <g id="patch_6">
    <path d="M 92.99 41.64 
L 673.081364 41.64 
" style="fill:none;stroke:#000000;stroke-linecap:square;stroke-linejoin:miter;stroke-width:0.8;"/>
   </g>
   <g id="text_15">
    <!-- Purity/Efficiency vs purityW Cutoff — photon -->
    <defs>
     <path d="M 19.671875 64.796875 
L 19.671875 37.40625 
L 32.078125 37.40625 
Q 38.96875 37.40625 42.71875 40.96875 
Q 46.484375 44.53125 46.484375 51.125 
Q 46.484375 57.671875 42.71875 61.234375 
Q 38.96875 64.796875 32.078125 64.796875 
z
M 9.8125 72.90625 
L 32.078125 72.90625 
Q 44.34375 72.90625 50.609375 67.359375 
Q 56.890625 61.8125 56.890625 51.125 
Q 56.890625 40.328125 50.609375 34.8125 
Q 44.34375 29.296875 32.078125 29.296875 
L 19.671875 29.296875 
L 19.671875 0 
L 9.8125 0 
z
" id="DejaVuSans-80"/>
     <path d="M 25.390625 72.90625 
L 33.6875 72.90625 
L 8.296875 -9.28125 
L 0 -9.28125 
z
" id="DejaVuSans-47"/>
     <path d="M 9.8125 72.90625 
L 55.90625 72.90625 
L 55.90625 64.59375 
L 19.671875 64.59375 
L 19.671875 43.015625 
L 54.390625 43.015625 
L 54.390625 34.71875 
L 19.671875 34.71875 
L 19.671875 8.296875 
L 56.78125 8.296875 
L 56.78125 0 
L 9.8125 0 
z
" id="DejaVuSans-69"/>
     <path d="M 56.203125 29.59375 
L 56.203125 25.203125 
L 14.890625 25.203125 
Q 15.484375 15.921875 20.484375 11.0625 
Q 25.484375 6.203125 34.421875 6.203125 
Q 39.59375 6.203125 44.453125 7.46875 
Q 49.3125 8.734375 54.109375 11.28125 
L 54.109375 2.78125 
Q 49.265625 0.734375 44.1875 -0.34375 
Q 39.109375 -1.421875 33.890625 -1.421875 
Q 20.796875 -1.421875 13.15625 6.1875 
Q 5.515625 13.8125 5.515625 26.8125 
Q 5.515625 40.234375 12.765625 48.109375 
Q 20.015625 56 32.328125 56 
Q 43.359375 56 49.78125 48.890625 
Q 56.203125 41.796875 56.203125 29.59375 
z
M 47.21875 32.234375 
Q 47.125 39.59375 43.09375 43.984375 
Q 39.0625 48.390625 32.421875 48.390625 
Q 24.90625 48.390625 20.390625 44.140625 
Q 15.875 39.890625 15.1875 32.171875 
z
" id="DejaVuSans-101"/>
     <path d="M 2.984375 54.6875 
L 12.5 54.6875 
L 29.59375 8.796875 
L 46.6875 54.6875 
L 56.203125 54.6875 
L 35.6875 0 
L 23.484375 0 
z
" id="DejaVuSans-118"/>
     <path d="M 44.28125 53.078125 
L 44.28125 44.578125 
Q 40.484375 46.53125 36.375 47.5 
Q 32.28125 48.484375 27.875 48.484375 
Q 21.1875 48.484375 17.84375 46.4375 
Q 14.5 44.390625 14.5 40.28125 
Q 14.5 37.15625 16.890625 35.375 
Q 19.28125 33.59375 26.515625 31.984375 
L 29.59375 31.296875 
Q 39.15625 29.25 43.1875 25.515625 
Q 47.21875 21.78125 47.21875 15.09375 
Q 47.21875 7.46875 41.1875 3.015625 
Q 35.15625 -1.421875 24.609375 -1.421875 
Q 20.21875 -1.421875 15.453125 -0.5625 
Q 10.6875 0.296875 5.421875 2 
L 5.421875 11.28125 
Q 10.40625 8.6875 15.234375 7.390625 
Q 20.0625 6.109375 24.8125 6.109375 
Q 31.15625 6.109375 34.5625 8.28125 
Q 37.984375 10.453125 37.984375 14.40625 
Q 37.984375 18.0625 35.515625 20.015625 
Q 33.0625 21.96875 24.703125 23.78125 
L 21.578125 24.515625 
Q 13.234375 26.265625 9.515625 29.90625 
Q 5.8125 33.546875 5.8125 39.890625 
Q 5.8125 47.609375 11.28125 51.796875 
Q 16.75 56 26.8125 56 
Q 31.78125 56 36.171875 55.265625 
Q 40.578125 54.546875 44.28125 53.078125 
z
" id="DejaVuSans-115"/>
     <path d="M 4.890625 30.90625 
L 95.125 30.90625 
L 95.125 23.875 
L 4.890625 23.875 
z
" id="DejaVuSans-8212"/>
     <path d="M 54.890625 33.015625 
L 54.890625 0 
L 45.90625 0 
L 45.90625 32.71875 
Q 45.90625 40.484375 42.875 44.328125 
Q 39.84375 48.1875 33.796875 48.1875 
Q 26.515625 48.1875 22.3125 43.546875 
Q 18.109375 38.921875 18.109375 30.90625 
L 18.109375 0 
L 9.078125 0 
L 9.078125 75.984375 
L 18.109375 75.984375 
L 18.109375 46.1875 
Q 21.34375 51.125 25.703125 53.5625 
Q 30.078125 56 35.796875 56 
Q 45.21875 56 50.046875 50.171875 
Q 54.890625 44.34375 54.890625 33.015625 
z
" id="DejaVuSans-104"/>
    </defs>
    <g transform="translate(94.434707 35.64)scale(0.2592 -0.2592)">
     <use xlink:href="#DejaVuSans-80"/>
     <use x="60.287109" xlink:href="#DejaVuSans-117"/>
     <use x="123.666016" xlink:href="#DejaVuSans-114"/>
     <use x="164.779297" xlink:href="#DejaVuSans-105"/>
     <use x="192.5625" xlink:href="#DejaVuSans-116"/>
     <use x="231.771484" xlink:href="#DejaVuSans-121"/>
     <use x="290.951172" xlink:href="#DejaVuSans-47"/>
     <use x="324.642578" xlink:href="#DejaVuSans-69"/>
     <use x="387.826172" xlink:href="#DejaVuSans-102"/>
     <use x="423.03125" xlink:href="#DejaVuSans-102"/>
     <use x="458.236328" xlink:href="#DejaVuSans-105"/>
     <use x="486.019531" xlink:href="#DejaVuSans-99"/>
     <use x="541" xlink:href="#DejaVuSans-105"/>
     <use x="568.783203" xlink:href="#DejaVuSans-101"/>
     <use x="630.306641" xlink:href="#DejaVuSans-110"/>
     <use x="693.685547" xlink:href="#DejaVuSans-99"/>
     <use x="748.666016" xlink:href="#DejaVuSans-121"/>
     <use x="807.845703" xlink:href="#DejaVuSans-32"/>
     <use x="839.632812" xlink:href="#DejaVuSans-118"/>
     <use x="898.8125" xlink:href="#DejaVuSans-115"/>
     <use x="950.912109" xlink:href="#DejaVuSans-32"/>
     <use x="982.699219" xlink:href="#DejaVuSans-112"/>
     <use x="1046.175781" xlink:href="#DejaVuSans-117"/>
     <use x="1109.554688" xlink:href="#DejaVuSans-114"/>
     <use x="1150.667969" xlink:href="#DejaVuSans-105"/>
     <use x="1178.451172" xlink:href="#DejaVuSans-116"/>
     <use x="1217.660156" xlink:href="#DejaVuSans-121"/>
     <use x="1276.839844" xlink:href="#DejaVuSans-87"/>
     <use x="1375.716797" xlink:href="#DejaVuSans-32"/>
     <use x="1407.503906" xlink:href="#DejaVuSans-67"/>
     <use x="1477.328125" xlink:href="#DejaVuSans-117"/>
     <use x="1540.707031" xlink:href="#DejaVuSans-116"/>
     <use x="1579.916016" xlink:href="#DejaVuSans-111"/>
     <use x="1641.097656" xlink:href="#DejaVuSans-102"/>
     <use x="1676.302734" xlink:href="#DejaVuSans-102"/>
     <use x="1711.507812" xlink:href="#DejaVuSans-32"/>
     <use x="1743.294922" xlink:href="#DejaVuSans-8212"/>
     <use x="1843.294922" xlink:href="#DejaVuSans-32"/>
     <use x="1875.082031" xlink:href="#DejaVuSans-112"/>
     <use x="1938.558594" xlink:href="#DejaVuSans-104"/>
     <use x="2001.9375" xlink:href="#DejaVuSans-111"/>
     <use x="2063.119141" xlink:href="#DejaVuSans-116"/>
     <use x="2102.328125" xlink:href="#DejaVuSans-111"/>
     <use x="2163.509766" xlink:href="#DejaVuSans-110"/>
    </g>
   </g>
   <g id="legend_1">
    <g id="patch_7">
     <path d="M 274.340994 454.84 
L 491.730369 454.84 
Q 495.330369 454.84 495.330369 451.24 
L 495.330369 373.778125 
Q 495.330369 370.178125 491.730369 370.178125 
L 274.340994 370.178125 
Q 270.740994 370.178125 270.740994 373.778125 
L 270.740994 451.24 
Q 270.740994 454.84 274.340994 454.84 
z
" style="fill:#ffffff;opacity:0.8;stroke:#cccccc;stroke-linejoin:miter;"/>
    </g>
    <g id="line2d_17">
     <path d="M 277.940994 384.755313 
L 313.940994 384.755313 
" style="fill:none;stroke:#0000ff;stroke-linecap:square;stroke-width:1.5;"/>
    </g>
    <g id="line2d_18"/>
    <g id="text_16">
     <!-- Efficiency -->
     <g transform="translate(328.340994 391.055313)scale(0.18 -0.18)">
      <use xlink:href="#DejaVuSans-69"/>
      <use x="63.183594" xlink:href="#DejaVuSans-102"/>
      <use x="98.388672" xlink:href="#DejaVuSans-102"/>
      <use x="133.59375" xlink:href="#DejaVuSans-105"/>
      <use x="161.376953" xlink:href="#DejaVuSans-99"/>
      <use x="216.357422" xlink:href="#DejaVuSans-105"/>
      <use x="244.140625" xlink:href="#DejaVuSans-101"/>
      <use x="305.664062" xlink:href="#DejaVuSans-110"/>
      <use x="369.042969" xlink:href="#DejaVuSans-99"/>
      <use x="424.023438" xlink:href="#DejaVuSans-121"/>
     </g>
    </g>
    <g id="line2d_19">
     <path d="M 277.940994 411.175937 
L 313.940994 411.175937 
" style="fill:none;stroke:#ff0000;stroke-linecap:square;stroke-width:1.5;"/>
    </g>
    <g id="line2d_20"/>
    <g id="text_17">
     <!-- Purity -->
     <g transform="translate(328.340994 417.475937)scale(0.18 -0.18)">
      <use xlink:href="#DejaVuSans-80"/>
      <use x="60.287109" xlink:href="#DejaVuSans-117"/>
      <use x="123.666016" xlink:href="#DejaVuSans-114"/>
      <use x="164.779297" xlink:href="#DejaVuSans-105"/>
      <use x="192.5625" xlink:href="#DejaVuSans-116"/>
      <use x="231.771484" xlink:href="#DejaVuSans-121"/>
     </g>
    </g>
    <g id="line2d_21">
     <path d="M 277.940994 437.596562 
L 313.940994 437.596562 
" style="fill:none;stroke:#008000;stroke-linecap:square;stroke-width:1.5;"/>
    </g>
    <g id="line2d_22"/>
    <g id="text_18">
     <!-- Purity * Efficiency -->
     <defs>
      <path d="M 47.015625 60.890625 
L 29.5 51.421875 
L 47.015625 41.890625 
L 44.1875 37.109375 
L 27.78125 47.015625 
L 27.78125 28.609375 
L 22.21875 28.609375 
L 22.21875 47.015625 
L 5.8125 37.109375 
L 2.984375 41.890625 
L 20.515625 51.421875 
L 2.984375 60.890625 
L 5.8125 65.71875 
L 22.21875 55.8125 
L 22.21875 74.21875 
L 27.78125 74.21875 
L 27.78125 55.8125 
L 44.1875 65.71875 
z
" id="DejaVuSans-42"/>
     </defs>
     <g transform="translate(328.340994 443.896562)scale(0.18 -0.18)">
      <use xlink:href="#DejaVuSans-80"/>
      <use x="60.287109" xlink:href="#DejaVuSans-117"/>
      <use x="123.666016" xlink:href="#DejaVuSans-114"/>
      <use x="164.779297" xlink:href="#DejaVuSans-105"/>
      <use x="192.5625" xlink:href="#DejaVuSans-116"/>
      <use x="231.771484" xlink:href="#DejaVuSans-121"/>
      <use x="290.951172" xlink:href="#DejaVuSans-32"/>
      <use x="322.738281" xlink:href="#DejaVuSans-42"/>
      <use x="372.738281" xlink:href="#DejaVuSans-32"/>
      <use x="404.525391" xlink:href="#DejaVuSans-69"/>
      <use x="467.708984" xlink:href="#DejaVuSans-102"/>
      <use x="502.914062" xlink:href="#DejaVuSans-102"/>
      <use x="538.119141" xlink:href="#DejaVuSans-105"/>
      <use x="565.902344" xlink:href="#DejaVuSans-99"/>
      <use x="620.882812" xlink:href="#DejaVuSans-105"/>
      <use x="648.666016" xlink:href="#DejaVuSans-101"/>
      <use x="710.189453" xlink:href="#DejaVuSans-110"/>
      <use x="773.568359" xlink:href="#DejaVuSans-99"/>
      <use x="828.548828" xlink:href="#DejaVuSans-121"/>
     </g>
    </g>
   </g>
  </g>
  <g id="axes_2">
   <g id="patch_8">
    <path d="M 801.065 463.84 
L 1381.156364 463.84 
L 1381.156364 41.64 
L 801.065 41.64 
z
" style="fill:#ffffff;"/>
   </g>
   <g id="matplotlib.axis_3">
    <g id="xtick_7">
     <g id="line2d_23">
      <g>
       <use style="stroke:#000000;stroke-width:0.8;" x="827.432789" xlink:href="#m23ea4f779b" y="463.84"/>
      </g>
     </g>
     <g id="text_19">
      <!-- 0.0 -->
      <g transform="translate(806.822339 490.53515)scale(0.2592 -0.2592)">
       <use xlink:href="#DejaVuSans-48"/>
       <use x="63.623047" xlink:href="#DejaVuSans-46"/>
       <use x="95.410156" xlink:href="#DejaVuSans-48"/>
      </g>
     </g>
    </g>
    <g id="xtick_8">
     <g id="line2d_24">
      <g>
       <use style="stroke:#000000;stroke-width:0.8;" x="932.903946" xlink:href="#m23ea4f779b" y="463.84"/>
      </g>
     </g>
     <g id="text_20">
      <!-- 0.2 -->
      <g transform="translate(912.293496 490.53515)scale(0.2592 -0.2592)">
       <use xlink:href="#DejaVuSans-48"/>
       <use x="63.623047" xlink:href="#DejaVuSans-46"/>
       <use x="95.410156" xlink:href="#DejaVuSans-50"/>
      </g>
     </g>
    </g>
    <g id="xtick_9">
     <g id="line2d_25">
      <g>
       <use style="stroke:#000000;stroke-width:0.8;" x="1038.375103" xlink:href="#m23ea4f779b" y="463.84"/>
      </g>
     </g>
     <g id="text_21">
      <!-- 0.4 -->
      <g transform="translate(1017.764653 490.53515)scale(0.2592 -0.2592)">
       <use xlink:href="#DejaVuSans-48"/>
       <use x="63.623047" xlink:href="#DejaVuSans-46"/>
       <use x="95.410156" xlink:href="#DejaVuSans-52"/>
      </g>
     </g>
    </g>
    <g id="xtick_10">
     <g id="line2d_26">
      <g>
       <use style="stroke:#000000;stroke-width:0.8;" x="1143.84626" xlink:href="#m23ea4f779b" y="463.84"/>
      </g>
     </g>
     <g id="text_22">
      <!-- 0.6 -->
      <g transform="translate(1123.23581 490.53515)scale(0.2592 -0.2592)">
       <use xlink:href="#DejaVuSans-48"/>
       <use x="63.623047" xlink:href="#DejaVuSans-46"/>
       <use x="95.410156" xlink:href="#DejaVuSans-54"/>
      </g>
     </g>
    </g>
    <g id="xtick_11">
     <g id="line2d_27">
      <g>
       <use style="stroke:#000000;stroke-width:0.8;" x="1249.317417" xlink:href="#m23ea4f779b" y="463.84"/>
      </g>
     </g>
     <g id="text_23">
      <!-- 0.8 -->
      <g transform="translate(1228.706967 490.53515)scale(0.2592 -0.2592)">
       <use xlink:href="#DejaVuSans-48"/>
       <use x="63.623047" xlink:href="#DejaVuSans-46"/>
       <use x="95.410156" xlink:href="#DejaVuSans-56"/>
      </g>
     </g>
    </g>
    <g id="xtick_12">
     <g id="line2d_28">
      <g>
       <use style="stroke:#000000;stroke-width:0.8;" x="1354.788574" xlink:href="#m23ea4f779b" y="463.84"/>
      </g>
     </g>
     <g id="text_24">
      <!-- 1.0 -->
      <g transform="translate(1334.178124 490.53515)scale(0.2592 -0.2592)">
       <use xlink:href="#DejaVuSans-49"/>
       <use x="63.623047" xlink:href="#DejaVuSans-46"/>
       <use x="95.410156" xlink:href="#DejaVuSans-48"/>
      </g>
     </g>
    </g>
    <g id="text_25">
     <!-- purityW Cutoff -->
     <g transform="translate(996.658607 519.62085)scale(0.2592 -0.2592)">
      <use xlink:href="#DejaVuSans-112"/>
      <use x="63.476562" xlink:href="#DejaVuSans-117"/>
      <use x="126.855469" xlink:href="#DejaVuSans-114"/>
      <use x="167.96875" xlink:href="#DejaVuSans-105"/>
      <use x="195.751953" xlink:href="#DejaVuSans-116"/>
      <use x="234.960938" xlink:href="#DejaVuSans-121"/>
      <use x="294.140625" xlink:href="#DejaVuSans-87"/>
      <use x="393.017578" xlink:href="#DejaVuSans-32"/>
      <use x="424.804688" xlink:href="#DejaVuSans-67"/>
      <use x="494.628906" xlink:href="#DejaVuSans-117"/>
      <use x="558.007812" xlink:href="#DejaVuSans-116"/>
      <use x="597.216797" xlink:href="#DejaVuSans-111"/>
      <use x="658.398438" xlink:href="#DejaVuSans-102"/>
      <use x="693.603516" xlink:href="#DejaVuSans-102"/>
     </g>
    </g>
   </g>
   <g id="matplotlib.axis_4">
    <g id="ytick_7">
     <g id="line2d_29">
      <g>
       <use style="stroke:#000000;stroke-width:0.8;" x="801.065" xlink:href="#m091232ff25" y="463.84"/>
      </g>
     </g>
     <g id="text_26">
      <!-- 0.0 -->
      <g transform="translate(752.8441 473.687575)scale(0.2592 -0.2592)">
       <use xlink:href="#DejaVuSans-48"/>
       <use x="63.623047" xlink:href="#DejaVuSans-46"/>
       <use x="95.410156" xlink:href="#DejaVuSans-48"/>
      </g>
     </g>
    </g>
    <g id="ytick_8">
     <g id="line2d_30">
      <g>
       <use style="stroke:#000000;stroke-width:0.8;" x="801.065" xlink:href="#m091232ff25" y="379.4"/>
      </g>
     </g>
     <g id="text_27">
      <!-- 0.2 -->
      <g transform="translate(752.8441 389.247575)scale(0.2592 -0.2592)">
       <use xlink:href="#DejaVuSans-48"/>
       <use x="63.623047" xlink:href="#DejaVuSans-46"/>
       <use x="95.410156" xlink:href="#DejaVuSans-50"/>
      </g>
     </g>
    </g>
    <g id="ytick_9">
     <g id="line2d_31">
      <g>
       <use style="stroke:#000000;stroke-width:0.8;" x="801.065" xlink:href="#m091232ff25" y="294.96"/>
      </g>
     </g>
     <g id="text_28">
      <!-- 0.4 -->
      <g transform="translate(752.8441 304.807575)scale(0.2592 -0.2592)">
       <use xlink:href="#DejaVuSans-48"/>
       <use x="63.623047" xlink:href="#DejaVuSans-46"/>
       <use x="95.410156" xlink:href="#DejaVuSans-52"/>
      </g>
     </g>
    </g>
    <g id="ytick_10">
     <g id="line2d_32">
      <g>
       <use style="stroke:#000000;stroke-width:0.8;" x="801.065" xlink:href="#m091232ff25" y="210.52"/>
      </g>
     </g>
     <g id="text_29">
      <!-- 0.6 -->
      <g transform="translate(752.8441 220.367575)scale(0.2592 -0.2592)">
       <use xlink:href="#DejaVuSans-48"/>
       <use x="63.623047" xlink:href="#DejaVuSans-46"/>
       <use x="95.410156" xlink:href="#DejaVuSans-54"/>
      </g>
     </g>
    </g>
    <g id="ytick_11">
     <g id="line2d_33">
      <g>
       <use style="stroke:#000000;stroke-width:0.8;" x="801.065" xlink:href="#m091232ff25" y="126.08"/>
      </g>
     </g>
     <g id="text_30">
      <!-- 0.8 -->
      <g transform="translate(752.8441 135.927575)scale(0.2592 -0.2592)">
       <use xlink:href="#DejaVuSans-48"/>
       <use x="63.623047" xlink:href="#DejaVuSans-46"/>
       <use x="95.410156" xlink:href="#DejaVuSans-56"/>
      </g>
     </g>
    </g>
    <g id="ytick_12">
     <g id="line2d_34">
      <g>
       <use style="stroke:#000000;stroke-width:0.8;" x="801.065" xlink:href="#m091232ff25" y="41.64"/>
      </g>
     </g>
     <g id="text_31">
      <!-- 1.0 -->
      <g transform="translate(752.8441 51.487575)scale(0.2592 -0.2592)">
       <use xlink:href="#DejaVuSans-49"/>
       <use x="63.623047" xlink:href="#DejaVuSans-46"/>
       <use x="95.410156" xlink:href="#DejaVuSans-48"/>
      </g>
     </g>
    </g>
    <g id="text_32">
     <!-- Fraction -->
     <g transform="translate(743.45355 305.400125)rotate(-90)scale(0.2592 -0.2592)">
      <use xlink:href="#DejaVuSans-70"/>
      <use x="57.410156" xlink:href="#DejaVuSans-114"/>
      <use x="98.523438" xlink:href="#DejaVuSans-97"/>
      <use x="159.802734" xlink:href="#DejaVuSans-99"/>
      <use x="214.783203" xlink:href="#DejaVuSans-116"/>
      <use x="253.992188" xlink:href="#DejaVuSans-105"/>
      <use x="281.775391" xlink:href="#DejaVuSans-111"/>
      <use x="342.957031" xlink:href="#DejaVuSans-110"/>
     </g>
    </g>
   </g>
   <g id="line2d_35">
    <path clip-path="url(#pa2f0dc501e)" d="M 827.432789 463.84 
L 1011.66419 463.84 
L 1012.192073 460.887552 
L 1038.058373 460.887552 
L 1038.586257 457.935105 
L 1049.671814 457.935105 
L 1050.199697 454.982657 
L 1056.006418 454.982657 
L 1056.534302 452.03021 
L 1090.84674 452.03021 
L 1091.374624 446.125315 
L 1114.073621 446.125315 
L 1114.601505 443.172867 
L 1120.936109 443.172867 
L 1121.463993 440.22042 
L 1133.077433 440.22042 
L 1133.605317 437.267972 
L 1139.412038 437.267972 
L 1139.939921 437.080845 
L 1140.467805 434.315524 
L 1143.635107 434.315524 
L 1144.162991 431.363077 
L 1155.248548 431.363077 
L 1155.776431 428.410629 
L 1173.196592 428.410629 
L 1174.25236 422.505734 
L 1175.308127 422.505734 
L 1175.836011 419.553287 
L 1176.363894 419.553287 
L 1176.891778 416.600839 
L 1189.560986 416.600839 
L 1190.08887 413.648392 
L 1203.813845 413.648392 
L 1204.341729 410.695944 
L 1205.92538 410.695944 
L 1206.453263 407.743497 
L 1214.371518 407.743497 
L 1214.899402 404.791049 
L 1229.152261 404.791049 
L 1229.680145 401.838601 
L 1244.460888 401.838601 
L 1244.988771 398.886154 
L 1253.962794 398.886154 
L 1254.490677 395.933706 
L 1256.074328 395.933706 
L 1256.602212 392.981259 
L 1258.713747 392.981259 
L 1259.24163 390.028811 
L 1266.632002 390.028811 
L 1267.159885 387.076364 
L 1279.30121 387.076364 
L 1279.829093 384.123916 
L 1286.163697 384.123916 
L 1286.691581 381.171469 
L 1287.219465 381.171469 
L 1287.747348 378.219021 
L 1288.803116 378.219021 
L 1289.330999 372.314126 
L 1289.858883 372.314126 
L 1290.386767 369.361678 
L 1295.665603 369.361678 
L 1296.193487 367.337143 
L 1296.721371 360.504336 
L 1297.777138 360.504336 
L 1298.305022 357.551888 
L 1302.000208 357.551888 
L 1302.528091 354.599441 
L 1304.111742 354.599441 
L 1304.639626 351.646993 
L 1306.751161 351.646993 
L 1307.279044 339.837203 
L 1307.806928 339.837203 
L 1308.334812 333.932308 
L 1308.862695 333.932308 
L 1309.918463 328.027413 
L 1310.446346 328.027413 
L 1310.97423 325.074965 
L 1312.557881 325.074965 
L 1313.085765 319.17007 
L 1313.613648 319.17007 
L 1314.141532 316.217622 
L 1316.253067 316.217622 
L 1317.308834 310.312727 
L 1319.420369 310.312727 
L 1319.948252 307.36028 
L 1320.476136 307.36028 
L 1321.00402 304.407832 
L 1322.059787 304.407832 
L 1322.587671 301.455385 
L 1323.643438 301.455385 
L 1324.171322 295.55049 
L 1326.81074 295.55049 
L 1327.338624 292.598042 
L 1328.394391 292.598042 
L 1328.922275 289.645594 
L 1329.978042 289.645594 
L 1330.505926 286.693147 
L 1331.033809 280.788252 
L 1331.561693 280.788252 
L 1332.089577 271.930909 
L 1332.61746 271.930909 
L 1334.201111 254.216224 
L 1334.728995 251.263776 
L 1335.784762 248.311329 
L 1336.312646 248.311329 
L 1336.84053 245.358881 
L 1337.896297 245.358881 
L 1338.424181 242.406434 
L 1338.952064 242.406434 
L 1339.479948 239.453986 
L 1340.007832 239.453986 
L 1340.535715 236.501538 
L 1341.063599 230.596643 
L 1341.591483 227.644196 
L 1344.230901 227.644196 
L 1344.758785 224.691748 
L 1345.286668 223.007606 
L 1345.814552 218.786853 
L 1346.870319 218.786853 
L 1347.398203 209.92951 
L 1348.981854 209.92951 
L 1349.509738 206.977063 
L 1350.037621 206.977063 
L 1350.565505 204.024615 
L 1352.67704 204.024615 
L 1353.204923 201.072168 
L 1354.260691 201.072168 
L 1354.788574 41.64 
L 1354.788574 41.64 
" style="fill:none;stroke:#0000ff;stroke-linecap:square;stroke-width:1.5;"/>
   </g>
   <g id="line2d_36">
    <path clip-path="url(#pa2f0dc501e)" d="M 996.883447 463.84 
L 1011.66419 463.84 
L 1012.192073 252.74 
L 1038.058373 252.74 
L 1038.586257 182.373333 
L 1049.671814 182.373333 
L 1050.199697 147.19 
L 1056.006418 147.19 
L 1056.534302 126.08 
L 1090.84674 126.08 
L 1091.374624 101.954286 
L 1114.073621 101.954286 
L 1114.601505 94.415 
L 1117.768807 94.415 
L 1118.296691 135.462222 
L 1120.936109 135.462222 
L 1121.463993 126.08 
L 1133.077433 126.08 
L 1133.605317 118.403636 
L 1139.939921 118.403636 
L 1140.467805 112.006667 
L 1143.635107 112.006667 
L 1144.162991 106.593846 
L 1155.248548 106.593846 
L 1155.776431 101.954286 
L 1173.196592 101.954286 
L 1174.25236 94.415 
L 1175.308127 94.415 
L 1175.836011 91.310588 
L 1176.363894 91.310588 
L 1176.891778 88.551111 
L 1189.560986 88.551111 
L 1190.08887 86.082105 
L 1198.535008 86.082105 
L 1199.062892 104.97 
L 1203.813845 104.97 
L 1204.341729 101.954286 
L 1205.92538 101.954286 
L 1206.453263 99.212727 
L 1214.371518 99.212727 
L 1214.899402 96.709565 
L 1229.152261 96.709565 
L 1229.680145 94.415 
L 1244.460888 94.415 
L 1244.988771 92.304 
L 1253.962794 92.304 
L 1254.490677 90.355385 
L 1256.074328 90.355385 
L 1256.602212 88.551111 
L 1258.713747 88.551111 
L 1259.24163 86.875714 
L 1266.632002 86.875714 
L 1267.159885 85.315862 
L 1279.30121 85.315862 
L 1279.829093 83.86 
L 1286.163697 83.86 
L 1286.691581 82.498065 
L 1287.219465 82.498065 
L 1287.747348 81.22125 
L 1288.803116 81.22125 
L 1289.330999 78.892941 
L 1289.858883 78.892941 
L 1290.386767 77.828571 
L 1296.193487 77.828571 
L 1296.721371 74.971579 
L 1297.777138 74.971579 
L 1298.305022 74.116923 
L 1302.000208 74.116923 
L 1302.528091 73.305 
L 1304.111742 73.305 
L 1304.639626 81.849524 
L 1306.751161 81.849524 
L 1307.279044 78.353043 
L 1307.806928 78.353043 
L 1308.334812 76.823333 
L 1308.862695 76.823333 
L 1309.918463 75.416 
L 1310.446346 75.416 
L 1310.97423 74.753725 
L 1312.557881 74.753725 
L 1313.085765 73.504151 
L 1313.613648 80.732593 
L 1314.141532 80.021818 
L 1316.253067 80.021818 
L 1317.308834 78.675088 
L 1319.420369 78.675088 
L 1319.948252 78.036552 
L 1320.476136 78.036552 
L 1321.00402 77.419661 
L 1322.059787 77.419661 
L 1322.587671 76.823333 
L 1323.115554 83.167869 
L 1323.643438 83.167869 
L 1324.171322 81.849524 
L 1326.81074 81.849524 
L 1327.338624 81.22125 
L 1328.394391 81.22125 
L 1328.922275 80.612308 
L 1329.978042 80.612308 
L 1330.505926 80.021818 
L 1331.033809 78.892941 
L 1331.561693 78.892941 
L 1332.089577 77.318873 
L 1332.61746 77.318873 
L 1334.201111 74.538701 
L 1334.728995 74.116923 
L 1335.256879 74.116923 
L 1335.784762 73.705823 
L 1336.312646 73.705823 
L 1336.84053 73.305 
L 1337.896297 73.305 
L 1338.424181 72.914074 
L 1338.952064 72.914074 
L 1339.479948 72.532683 
L 1340.007832 72.532683 
L 1340.535715 72.160482 
L 1341.063599 71.442353 
L 1341.591483 71.095814 
L 1342.119366 71.095814 
L 1342.64725 75.610115 
L 1344.230901 75.610115 
L 1344.758785 75.224091 
L 1345.286668 75.224091 
L 1345.814552 74.477778 
L 1346.870319 74.477778 
L 1347.398203 73.418495 
L 1347.926087 77.571915 
L 1348.45397 77.571915 
L 1349.509738 85.165773 
L 1350.037621 85.165773 
L 1350.565505 84.721633 
L 1351.093389 88.551111 
L 1352.67704 88.551111 
L 1353.204923 88.082 
L 1354.788574 88.082 
L 1354.788574 88.082 
" style="fill:none;stroke:#ff0000;stroke-linecap:square;stroke-width:1.5;"/>
   </g>
   <g id="line2d_37">
    <path clip-path="url(#pa2f0dc501e)" d="M 996.883447 463.84 
L 1011.66419 463.84 
L 1012.192073 462.363776 
L 1038.058373 462.363776 
L 1038.586257 459.903403 
L 1049.671814 459.903403 
L 1050.199697 457.196993 
L 1056.006418 457.196993 
L 1056.534302 454.392168 
L 1090.84674 454.392168 
L 1091.374624 448.655984 
L 1114.073621 448.655984 
L 1114.601505 445.756259 
L 1117.768807 445.756259 
L 1118.296691 447.765563 
L 1120.936109 447.765563 
L 1121.463993 444.944336 
L 1133.077433 444.944336 
L 1133.605317 442.09925 
L 1139.412038 442.09925 
L 1139.939921 441.946146 
L 1140.467805 439.23627 
L 1143.635107 439.23627 
L 1144.162991 436.359527 
L 1155.248548 436.359527 
L 1155.776431 433.471968 
L 1173.196592 433.471968 
L 1174.25236 427.672517 
L 1175.308127 427.672517 
L 1175.836011 424.763488 
L 1176.363894 424.763488 
L 1176.891778 421.849635 
L 1189.560986 421.849635 
L 1190.08887 418.931719 
L 1198.535008 418.931719 
L 1199.062892 421.177133 
L 1203.813845 421.177133 
L 1204.341729 418.287952 
L 1205.92538 418.287952 
L 1206.453263 415.39302 
L 1214.371518 415.39302 
L 1214.899402 412.493086 
L 1229.152261 412.493086 
L 1229.680145 409.588776 
L 1244.460888 409.588776 
L 1244.988771 406.680615 
L 1253.962794 406.680615 
L 1254.490677 403.769048 
L 1256.074328 403.769048 
L 1256.602212 400.854452 
L 1258.713747 400.854452 
L 1259.24163 397.937153 
L 1266.632002 397.937153 
L 1267.159885 395.017429 
L 1279.30121 395.017429 
L 1279.829093 392.095524 
L 1286.163697 392.095524 
L 1286.691581 389.171649 
L 1287.219465 389.171649 
L 1287.747348 386.245988 
L 1288.803116 386.245988 
L 1289.330999 380.389938 
L 1289.858883 380.389938 
L 1290.386767 377.45982 
L 1295.665603 377.45982 
L 1296.193487 375.608816 
L 1296.721371 368.662414 
L 1297.777138 368.662414 
L 1298.305022 365.727897 
L 1302.000208 365.727897 
L 1302.528091 362.792483 
L 1304.111742 362.792483 
L 1304.639626 362.332041 
L 1306.751161 362.332041 
L 1307.279044 350.620055 
L 1307.806928 350.620055 
L 1308.334812 344.757949 
L 1308.862695 344.757949 
L 1309.918463 338.89242 
L 1310.446346 338.89242 
L 1310.97423 335.958497 
L 1312.557881 335.958497 
L 1313.085765 330.088555 
L 1313.613648 332.565434 
L 1314.141532 329.637839 
L 1316.253067 329.637839 
L 1317.308834 323.780032 
L 1319.420369 323.780032 
L 1319.948252 320.849911 
L 1320.476136 320.849911 
L 1321.00402 317.919033 
L 1322.059787 317.919033 
L 1322.587671 314.987436 
L 1323.115554 317.427642 
L 1323.643438 317.427642 
L 1324.171322 311.578062 
L 1326.81074 311.578062 
L 1327.338624 308.651976 
L 1328.394391 308.651976 
L 1328.922275 305.725078 
L 1329.978042 305.725078 
L 1330.505926 302.797406 
L 1331.033809 296.939877 
L 1331.561693 296.939877 
L 1332.089577 288.148579 
L 1332.61746 288.148579 
L 1334.201111 270.550544 
L 1334.728995 267.615793 
L 1335.784762 264.680595 
L 1336.312646 264.680595 
L 1336.84053 261.744965 
L 1337.896297 261.744965 
L 1338.424181 258.80892 
L 1338.952064 258.80892 
L 1339.479948 255.872475 
L 1340.007832 255.872475 
L 1340.535715 252.935644 
L 1341.063599 247.06088 
L 1341.591483 244.122973 
L 1342.119366 244.122973 
L 1342.64725 246.648456 
L 1344.230901 246.648456 
L 1344.758785 243.714905 
L 1345.286668 242.164728 
L 1345.814552 237.846542 
L 1346.870319 237.846542 
L 1347.398203 229.041053 
L 1347.926087 231.538914 
L 1348.45397 231.538914 
L 1348.981854 233.984188 
L 1349.509738 233.457778 
L 1350.037621 233.457778 
L 1350.565505 230.536389 
L 1351.093389 232.892991 
L 1352.67704 232.892991 
L 1353.204923 229.976629 
L 1354.260691 229.976629 
L 1354.788574 88.082 
L 1354.788574 88.082 
" style="fill:none;stroke:#008000;stroke-linecap:square;stroke-width:1.5;"/>
   </g>
   <g id="line2d_38">
    <path clip-path="url(#pa2f0dc501e)" d="M 1347.398203 463.84 
L 1347.398203 41.64 
" style="fill:none;stroke:#1f77b4;stroke-linecap:square;stroke-width:1.5;"/>
   </g>
   <g id="patch_9">
    <path d="M 801.065 463.84 
L 801.065 41.64 
" style="fill:none;stroke:#000000;stroke-linecap:square;stroke-linejoin:miter;stroke-width:0.8;"/>
   </g>
   <g id="patch_10">
    <path d="M 1381.156364 463.84 
L 1381.156364 41.64 
" style="fill:none;stroke:#000000;stroke-linecap:square;stroke-linejoin:miter;stroke-width:0.8;"/>
   </g>
   <g id="patch_11">
    <path d="M 801.065 463.84 
L 1381.156364 463.84 
" style="fill:none;stroke:#000000;stroke-linecap:square;stroke-linejoin:miter;stroke-width:0.8;"/>
   </g>
   <g id="patch_12">
    <path d="M 801.065 41.64 
L 1381.156364 41.64 
" style="fill:none;stroke:#000000;stroke-linecap:square;stroke-linejoin:miter;stroke-width:0.8;"/>
   </g>
   <g id="text_33">
    <!-- Purity/Efficiency vs purityW Cutoff — electron -->
    <defs>
     <path d="M 9.421875 75.984375 
L 18.40625 75.984375 
L 18.40625 0 
L 9.421875 0 
z
" id="DejaVuSans-108"/>
    </defs>
    <g transform="translate(794.881532 35.64)scale(0.2592 -0.2592)">
     <use xlink:href="#DejaVuSans-80"/>
     <use x="60.287109" xlink:href="#DejaVuSans-117"/>
     <use x="123.666016" xlink:href="#DejaVuSans-114"/>
     <use x="164.779297" xlink:href="#DejaVuSans-105"/>
     <use x="192.5625" xlink:href="#DejaVuSans-116"/>
     <use x="231.771484" xlink:href="#DejaVuSans-121"/>
     <use x="290.951172" xlink:href="#DejaVuSans-47"/>
     <use x="324.642578" xlink:href="#DejaVuSans-69"/>
     <use x="387.826172" xlink:href="#DejaVuSans-102"/>
     <use x="423.03125" xlink:href="#DejaVuSans-102"/>
     <use x="458.236328" xlink:href="#DejaVuSans-105"/>
     <use x="486.019531" xlink:href="#DejaVuSans-99"/>
     <use x="541" xlink:href="#DejaVuSans-105"/>
     <use x="568.783203" xlink:href="#DejaVuSans-101"/>
     <use x="630.306641" xlink:href="#DejaVuSans-110"/>
     <use x="693.685547" xlink:href="#DejaVuSans-99"/>
     <use x="748.666016" xlink:href="#DejaVuSans-121"/>
     <use x="807.845703" xlink:href="#DejaVuSans-32"/>
     <use x="839.632812" xlink:href="#DejaVuSans-118"/>
     <use x="898.8125" xlink:href="#DejaVuSans-115"/>
     <use x="950.912109" xlink:href="#DejaVuSans-32"/>
     <use x="982.699219" xlink:href="#DejaVuSans-112"/>
     <use x="1046.175781" xlink:href="#DejaVuSans-117"/>
     <use x="1109.554688" xlink:href="#DejaVuSans-114"/>
     <use x="1150.667969" xlink:href="#DejaVuSans-105"/>
     <use x="1178.451172" xlink:href="#DejaVuSans-116"/>
     <use x="1217.660156" xlink:href="#DejaVuSans-121"/>
     <use x="1276.839844" xlink:href="#DejaVuSans-87"/>
     <use x="1375.716797" xlink:href="#DejaVuSans-32"/>
     <use x="1407.503906" xlink:href="#DejaVuSans-67"/>
     <use x="1477.328125" xlink:href="#DejaVuSans-117"/>
     <use x="1540.707031" xlink:href="#DejaVuSans-116"/>
     <use x="1579.916016" xlink:href="#DejaVuSans-111"/>
     <use x="1641.097656" xlink:href="#DejaVuSans-102"/>
     <use x="1676.302734" xlink:href="#DejaVuSans-102"/>
     <use x="1711.507812" xlink:href="#DejaVuSans-32"/>
     <use x="1743.294922" xlink:href="#DejaVuSans-8212"/>
     <use x="1843.294922" xlink:href="#DejaVuSans-32"/>
     <use x="1875.082031" xlink:href="#DejaVuSans-101"/>
     <use x="1936.605469" xlink:href="#DejaVuSans-108"/>
     <use x="1964.388672" xlink:href="#DejaVuSans-101"/>
     <use x="2025.912109" xlink:href="#DejaVuSans-99"/>
     <use x="2080.892578" xlink:href="#DejaVuSans-116"/>
     <use x="2120.101562" xlink:href="#DejaVuSans-114"/>
     <use x="2161.183594" xlink:href="#DejaVuSans-111"/>
     <use x="2222.365234" xlink:href="#DejaVuSans-110"/>
    </g>
   </g>
   <g id="legend_2">
    <g id="patch_13">
     <path d="M 982.415994 454.84 
L 1199.805369 454.84 
Q 1203.405369 454.84 1203.405369 451.24 
L 1203.405369 373.778125 
Q 1203.405369 370.178125 1199.805369 370.178125 
L 982.415994 370.178125 
Q 978.815994 370.178125 978.815994 373.778125 
L 978.815994 451.24 
Q 978.815994 454.84 982.415994 454.84 
z
" style="fill:#ffffff;opacity:0.8;stroke:#cccccc;stroke-linejoin:miter;"/>
    </g>
    <g id="line2d_39">
     <path d="M 986.015994 384.755313 
L 1022.015994 384.755313 
" style="fill:none;stroke:#0000ff;stroke-linecap:square;stroke-width:1.5;"/>
    </g>
    <g id="line2d_40"/>
    <g id="text_34">
     <!-- Efficiency -->
     <g transform="translate(1036.415994 391.055313)scale(0.18 -0.18)">
      <use xlink:href="#DejaVuSans-69"/>
      <use x="63.183594" xlink:href="#DejaVuSans-102"/>
      <use x="98.388672" xlink:href="#DejaVuSans-102"/>
      <use x="133.59375" xlink:href="#DejaVuSans-105"/>
      <use x="161.376953" xlink:href="#DejaVuSans-99"/>
      <use x="216.357422" xlink:href="#DejaVuSans-105"/>
      <use x="244.140625" xlink:href="#DejaVuSans-101"/>
      <use x="305.664062" xlink:href="#DejaVuSans-110"/>
      <use x="369.042969" xlink:href="#DejaVuSans-99"/>
      <use x="424.023438" xlink:href="#DejaVuSans-121"/>
     </g>
    </g>
    <g id="line2d_41">
     <path d="M 986.015994 411.175937 
L 1022.015994 411.175937 
" style="fill:none;stroke:#ff0000;stroke-linecap:square;stroke-width:1.5;"/>
    </g>
    <g id="line2d_42"/>
    <g id="text_35">
     <!-- Purity -->
     <g transform="translate(1036.415994 417.475937)scale(0.18 -0.18)">
      <use xlink:href="#DejaVuSans-80"/>
      <use x="60.287109" xlink:href="#DejaVuSans-117"/>
      <use x="123.666016" xlink:href="#DejaVuSans-114"/>
      <use x="164.779297" xlink:href="#DejaVuSans-105"/>
      <use x="192.5625" xlink:href="#DejaVuSans-116"/>
      <use x="231.771484" xlink:href="#DejaVuSans-121"/>
     </g>
    </g>
    <g id="line2d_43">
     <path d="M 986.015994 437.596562 
L 1022.015994 437.596562 
" style="fill:none;stroke:#008000;stroke-linecap:square;stroke-width:1.5;"/>
    </g>
    <g id="line2d_44"/>
    <g id="text_36">
     <!-- Purity * Efficiency -->
     <g transform="translate(1036.415994 443.896562)scale(0.18 -0.18)">
      <use xlink:href="#DejaVuSans-80"/>
      <use x="60.287109" xlink:href="#DejaVuSans-117"/>
      <use x="123.666016" xlink:href="#DejaVuSans-114"/>
      <use x="164.779297" xlink:href="#DejaVuSans-105"/>
      <use x="192.5625" xlink:href="#DejaVuSans-116"/>
      <use x="231.771484" xlink:href="#DejaVuSans-121"/>
      <use x="290.951172" xlink:href="#DejaVuSans-32"/>
      <use x="322.738281" xlink:href="#DejaVuSans-42"/>
      <use x="372.738281" xlink:href="#DejaVuSans-32"/>
      <use x="404.525391" xlink:href="#DejaVuSans-69"/>
      <use x="467.708984" xlink:href="#DejaVuSans-102"/>
      <use x="502.914062" xlink:href="#DejaVuSans-102"/>
      <use x="538.119141" xlink:href="#DejaVuSans-105"/>
      <use x="565.902344" xlink:href="#DejaVuSans-99"/>
      <use x="620.882812" xlink:href="#DejaVuSans-105"/>
      <use x="648.666016" xlink:href="#DejaVuSans-101"/>
      <use x="710.189453" xlink:href="#DejaVuSans-110"/>
      <use x="773.568359" xlink:href="#DejaVuSans-99"/>
      <use x="828.548828" xlink:href="#DejaVuSans-121"/>
     </g>
    </g>
   </g>
  </g>
 </g>
 <defs>
  <clipPath id="p17596a7abc">
   <rect height="422.2" width="580.091364" x="92.99" y="41.64"/>
  </clipPath>
  <clipPath id="pa2f0dc501e">
   <rect height="422.2" width="580.091364" x="801.065" y="41.64"/>
  </clipPath>
 </defs>
</svg>
