<?xml version="1.0" encoding="utf-8" standalone="no"?>
<!DOCTYPE svg PUBLIC "-//W3C//DTD SVG 1.1//EN"
  "http://www.w3.org/Graphics/SVG/1.1/DTD/svg11.dtd">
<!-- Created with matplotlib (https://matplotlib.org/) -->
<svg height="540pt" version="1.1" viewBox="0 0 1440 540" width="1440pt" xmlns="http://www.w3.org/2000/svg" xmlns:xlink="http://www.w3.org/1999/xlink">
 <defs>
  <style type="text/css">
*{stroke-linecap:butt;stroke-linejoin:round;}
  </style>
 </defs>
 <g id="figure_1">
  <g id="patch_1">
   <path d="M 0 540 
L 1440 540 
L 1440 0 
L 0 0 
z
" style="fill:#ffffff;"/>
  </g>
  <g id="axes_1">
   <g id="patch_2">
    <path d="M 92.99 463.84 
L 683.161364 463.84 
L 683.161364 41.64 
L 92.99 41.64 
z
" style="fill:#ffffff;"/>
   </g>
   <g id="matplotlib.axis_1">
    <g id="xtick_1">
     <g id="line2d_1">
      <defs>
       <path d="M 0 0 
L 0 3.5 
" id="m6e31fd461f" style="stroke:#000000;stroke-width:0.8;"/>
      </defs>
      <g>
       <use style="stroke:#000000;stroke-width:0.8;" x="119.815971" xlink:href="#m6e31fd461f" y="463.84"/>
      </g>
     </g>
     <g id="text_1">
      <!-- 0 -->
      <defs>
       <path d="M 31.78125 66.40625 
Q 24.171875 66.40625 20.328125 58.90625 
Q 16.5 51.421875 16.5 36.375 
Q 16.5 21.390625 20.328125 13.890625 
Q 24.171875 6.390625 31.78125 6.390625 
Q 39.453125 6.390625 43.28125 13.890625 
Q 47.125 21.390625 47.125 36.375 
Q 47.125 51.421875 43.28125 58.90625 
Q 39.453125 66.40625 31.78125 66.40625 
z
M 31.78125 74.21875 
Q 44.046875 74.21875 50.515625 64.515625 
Q 56.984375 54.828125 56.984375 36.375 
Q 56.984375 17.96875 50.515625 8.265625 
Q 44.046875 -1.421875 31.78125 -1.421875 
Q 19.53125 -1.421875 13.0625 8.265625 
Q 6.59375 17.96875 6.59375 36.375 
Q 6.59375 54.828125 13.0625 64.515625 
Q 19.53125 74.21875 31.78125 74.21875 
z
" id="DejaVuSans-48"/>
      </defs>
      <g transform="translate(111.570171 490.53515)scale(0.2592 -0.2592)">
       <use xlink:href="#DejaVuSans-48"/>
      </g>
     </g>
    </g>
    <g id="xtick_2">
     <g id="line2d_2">
      <g>
       <use style="stroke:#000000;stroke-width:0.8;" x="253.945826" xlink:href="#m6e31fd461f" y="463.84"/>
      </g>
     </g>
     <g id="text_2">
      <!-- 500 -->
      <defs>
       <path d="M 10.796875 72.90625 
L 49.515625 72.90625 
L 49.515625 64.59375 
L 19.828125 64.59375 
L 19.828125 46.734375 
Q 21.96875 47.46875 24.109375 47.828125 
Q 26.265625 48.1875 28.421875 48.1875 
Q 40.625 48.1875 47.75 41.5 
Q 54.890625 34.8125 54.890625 23.390625 
Q 54.890625 11.625 47.5625 5.09375 
Q 40.234375 -1.421875 26.90625 -1.421875 
Q 22.3125 -1.421875 17.546875 -0.640625 
Q 12.796875 0.140625 7.71875 1.703125 
L 7.71875 11.625 
Q 12.109375 9.234375 16.796875 8.0625 
Q 21.484375 6.890625 26.703125 6.890625 
Q 35.15625 6.890625 40.078125 11.328125 
Q 45.015625 15.765625 45.015625 23.390625 
Q 45.015625 31 40.078125 35.4375 
Q 35.15625 39.890625 26.703125 39.890625 
Q 22.75 39.890625 18.8125 39.015625 
Q 14.890625 38.140625 10.796875 36.28125 
z
" id="DejaVuSans-53"/>
      </defs>
      <g transform="translate(229.208426 490.53515)scale(0.2592 -0.2592)">
       <use xlink:href="#DejaVuSans-53"/>
       <use x="63.623047" xlink:href="#DejaVuSans-48"/>
       <use x="127.246094" xlink:href="#DejaVuSans-48"/>
      </g>
     </g>
    </g>
    <g id="xtick_3">
     <g id="line2d_3">
      <g>
       <use style="stroke:#000000;stroke-width:0.8;" x="388.075682" xlink:href="#m6e31fd461f" y="463.84"/>
      </g>
     </g>
     <g id="text_3">
      <!-- 1000 -->
      <defs>
       <path d="M 12.40625 8.296875 
L 28.515625 8.296875 
L 28.515625 63.921875 
L 10.984375 60.40625 
L 10.984375 69.390625 
L 28.421875 72.90625 
L 38.28125 72.90625 
L 38.28125 8.296875 
L 54.390625 8.296875 
L 54.390625 0 
L 12.40625 0 
z
" id="DejaVuSans-49"/>
      </defs>
      <g transform="translate(355.092482 490.53515)scale(0.2592 -0.2592)">
       <use xlink:href="#DejaVuSans-49"/>
       <use x="63.623047" xlink:href="#DejaVuSans-48"/>
       <use x="127.246094" xlink:href="#DejaVuSans-48"/>
       <use x="190.869141" xlink:href="#DejaVuSans-48"/>
      </g>
     </g>
    </g>
    <g id="xtick_4">
     <g id="line2d_4">
      <g>
       <use style="stroke:#000000;stroke-width:0.8;" x="522.205537" xlink:href="#m6e31fd461f" y="463.84"/>
      </g>
     </g>
     <g id="text_4">
      <!-- 1500 -->
      <g transform="translate(489.222337 490.53515)scale(0.2592 -0.2592)">
       <use xlink:href="#DejaVuSans-49"/>
       <use x="63.623047" xlink:href="#DejaVuSans-53"/>
       <use x="127.246094" xlink:href="#DejaVuSans-48"/>
       <use x="190.869141" xlink:href="#DejaVuSans-48"/>
      </g>
     </g>
    </g>
    <g id="xtick_5">
     <g id="line2d_5">
      <g>
       <use style="stroke:#000000;stroke-width:0.8;" x="656.335393" xlink:href="#m6e31fd461f" y="463.84"/>
      </g>
     </g>
     <g id="text_5">
      <!-- 2000 -->
      <defs>
       <path d="M 19.1875 8.296875 
L 53.609375 8.296875 
L 53.609375 0 
L 7.328125 0 
L 7.328125 8.296875 
Q 12.9375 14.109375 22.625 23.890625 
Q 32.328125 33.6875 34.8125 36.53125 
Q 39.546875 41.84375 41.421875 45.53125 
Q 43.3125 49.21875 43.3125 52.78125 
Q 43.3125 58.59375 39.234375 62.25 
Q 35.15625 65.921875 28.609375 65.921875 
Q 23.96875 65.921875 18.8125 64.3125 
Q 13.671875 62.703125 7.8125 59.421875 
L 7.8125 69.390625 
Q 13.765625 71.78125 18.9375 73 
Q 24.125 74.21875 28.421875 74.21875 
Q 39.75 74.21875 46.484375 68.546875 
Q 53.21875 62.890625 53.21875 53.421875 
Q 53.21875 48.921875 51.53125 44.890625 
Q 49.859375 40.875 45.40625 35.40625 
Q 44.1875 33.984375 37.640625 27.21875 
Q 31.109375 20.453125 19.1875 8.296875 
z
" id="DejaVuSans-50"/>
      </defs>
      <g transform="translate(623.352193 490.53515)scale(0.2592 -0.2592)">
       <use xlink:href="#DejaVuSans-50"/>
       <use x="63.623047" xlink:href="#DejaVuSans-48"/>
       <use x="127.246094" xlink:href="#DejaVuSans-48"/>
       <use x="190.869141" xlink:href="#DejaVuSans-48"/>
      </g>
     </g>
    </g>
    <g id="text_6">
     <!-- dedxV Cutoff -->
     <defs>
      <path d="M 45.40625 46.390625 
L 45.40625 75.984375 
L 54.390625 75.984375 
L 54.390625 0 
L 45.40625 0 
L 45.40625 8.203125 
Q 42.578125 3.328125 38.25 0.953125 
Q 33.9375 -1.421875 27.875 -1.421875 
Q 17.96875 -1.421875 11.734375 6.484375 
Q 5.515625 14.40625 5.515625 27.296875 
Q 5.515625 40.1875 11.734375 48.09375 
Q 17.96875 56 27.875 56 
Q 33.9375 56 38.25 53.625 
Q 42.578125 51.265625 45.40625 46.390625 
z
M 14.796875 27.296875 
Q 14.796875 17.390625 18.875 11.75 
Q 22.953125 6.109375 30.078125 6.109375 
Q 37.203125 6.109375 41.296875 11.75 
Q 45.40625 17.390625 45.40625 27.296875 
Q 45.40625 37.203125 41.296875 42.84375 
Q 37.203125 48.484375 30.078125 48.484375 
Q 22.953125 48.484375 18.875 42.84375 
Q 14.796875 37.203125 14.796875 27.296875 
z
" id="DejaVuSans-100"/>
      <path d="M 56.203125 29.59375 
L 56.203125 25.203125 
L 14.890625 25.203125 
Q 15.484375 15.921875 20.484375 11.0625 
Q 25.484375 6.203125 34.421875 6.203125 
Q 39.59375 6.203125 44.453125 7.46875 
Q 49.3125 8.734375 54.109375 11.28125 
L 54.109375 2.78125 
Q 49.265625 0.734375 44.1875 -0.34375 
Q 39.109375 -1.421875 33.890625 -1.421875 
Q 20.796875 -1.421875 13.15625 6.1875 
Q 5.515625 13.8125 5.515625 26.8125 
Q 5.515625 40.234375 12.765625 48.109375 
Q 20.015625 56 32.328125 56 
Q 43.359375 56 49.78125 48.890625 
Q 56.203125 41.796875 56.203125 29.59375 
z
M 47.21875 32.234375 
Q 47.125 39.59375 43.09375 43.984375 
Q 39.0625 48.390625 32.421875 48.390625 
Q 24.90625 48.390625 20.390625 44.140625 
Q 15.875 39.890625 15.1875 32.171875 
z
" id="DejaVuSans-101"/>
      <path d="M 54.890625 54.6875 
L 35.109375 28.078125 
L 55.90625 0 
L 45.3125 0 
L 29.390625 21.484375 
L 13.484375 0 
L 2.875 0 
L 24.125 28.609375 
L 4.6875 54.6875 
L 15.28125 54.6875 
L 29.78125 35.203125 
L 44.28125 54.6875 
z
" id="DejaVuSans-120"/>
      <path d="M 28.609375 0 
L 0.78125 72.90625 
L 11.078125 72.90625 
L 34.1875 11.53125 
L 57.328125 72.90625 
L 67.578125 72.90625 
L 39.796875 0 
z
" id="DejaVuSans-86"/>
      <path id="DejaVuSans-32"/>
      <path d="M 64.40625 67.28125 
L 64.40625 56.890625 
Q 59.421875 61.53125 53.78125 63.8125 
Q 48.140625 66.109375 41.796875 66.109375 
Q 29.296875 66.109375 22.65625 58.46875 
Q 16.015625 50.828125 16.015625 36.375 
Q 16.015625 21.96875 22.65625 14.328125 
Q 29.296875 6.6875 41.796875 6.6875 
Q 48.140625 6.6875 53.78125 8.984375 
Q 59.421875 11.28125 64.40625 15.921875 
L 64.40625 5.609375 
Q 59.234375 2.09375 53.4375 0.328125 
Q 47.65625 -1.421875 41.21875 -1.421875 
Q 24.65625 -1.421875 15.125 8.703125 
Q 5.609375 18.84375 5.609375 36.375 
Q 5.609375 53.953125 15.125 64.078125 
Q 24.65625 74.21875 41.21875 74.21875 
Q 47.75 74.21875 53.53125 72.484375 
Q 59.328125 70.75 64.40625 67.28125 
z
" id="DejaVuSans-67"/>
      <path d="M 8.5 21.578125 
L 8.5 54.6875 
L 17.484375 54.6875 
L 17.484375 21.921875 
Q 17.484375 14.15625 20.5 10.265625 
Q 23.53125 6.390625 29.59375 6.390625 
Q 36.859375 6.390625 41.078125 11.03125 
Q 45.3125 15.671875 45.3125 23.6875 
L 45.3125 54.6875 
L 54.296875 54.6875 
L 54.296875 0 
L 45.3125 0 
L 45.3125 8.40625 
Q 42.046875 3.421875 37.71875 1 
Q 33.40625 -1.421875 27.6875 -1.421875 
Q 18.265625 -1.421875 13.375 4.4375 
Q 8.5 10.296875 8.5 21.578125 
z
M 31.109375 56 
z
" id="DejaVuSans-117"/>
      <path d="M 18.3125 70.21875 
L 18.3125 54.6875 
L 36.8125 54.6875 
L 36.8125 47.703125 
L 18.3125 47.703125 
L 18.3125 18.015625 
Q 18.3125 11.328125 20.140625 9.421875 
Q 21.96875 7.515625 27.59375 7.515625 
L 36.8125 7.515625 
L 36.8125 0 
L 27.59375 0 
Q 17.1875 0 13.234375 3.875 
Q 9.28125 7.765625 9.28125 18.015625 
L 9.28125 47.703125 
L 2.6875 47.703125 
L 2.6875 54.6875 
L 9.28125 54.6875 
L 9.28125 70.21875 
z
" id="DejaVuSans-116"/>
      <path d="M 30.609375 48.390625 
Q 23.390625 48.390625 19.1875 42.75 
Q 14.984375 37.109375 14.984375 27.296875 
Q 14.984375 17.484375 19.15625 11.84375 
Q 23.34375 6.203125 30.609375 6.203125 
Q 37.796875 6.203125 41.984375 11.859375 
Q 46.1875 17.53125 46.1875 27.296875 
Q 46.1875 37.015625 41.984375 42.703125 
Q 37.796875 48.390625 30.609375 48.390625 
z
M 30.609375 56 
Q 42.328125 56 49.015625 48.375 
Q 55.71875 40.765625 55.71875 27.296875 
Q 55.71875 13.875 49.015625 6.21875 
Q 42.328125 -1.421875 30.609375 -1.421875 
Q 18.84375 -1.421875 12.171875 6.21875 
Q 5.515625 13.875 5.515625 27.296875 
Q 5.515625 40.765625 12.171875 48.375 
Q 18.84375 56 30.609375 56 
z
" id="DejaVuSans-111"/>
      <path d="M 37.109375 75.984375 
L 37.109375 68.5 
L 28.515625 68.5 
Q 23.6875 68.5 21.796875 66.546875 
Q 19.921875 64.59375 19.921875 59.515625 
L 19.921875 54.6875 
L 34.71875 54.6875 
L 34.71875 47.703125 
L 19.921875 47.703125 
L 19.921875 0 
L 10.890625 0 
L 10.890625 47.703125 
L 2.296875 47.703125 
L 2.296875 54.6875 
L 10.890625 54.6875 
L 10.890625 58.5 
Q 10.890625 67.625 15.140625 71.796875 
Q 19.390625 75.984375 28.609375 75.984375 
z
" id="DejaVuSans-102"/>
     </defs>
     <g transform="translate(303.592682 519.62085)scale(0.2592 -0.2592)">
      <use xlink:href="#DejaVuSans-100"/>
      <use x="63.476562" xlink:href="#DejaVuSans-101"/>
      <use x="125" xlink:href="#DejaVuSans-100"/>
      <use x="188.476562" xlink:href="#DejaVuSans-120"/>
      <use x="247.65625" xlink:href="#DejaVuSans-86"/>
      <use x="316.064453" xlink:href="#DejaVuSans-32"/>
      <use x="347.851562" xlink:href="#DejaVuSans-67"/>
      <use x="417.675781" xlink:href="#DejaVuSans-117"/>
      <use x="481.054688" xlink:href="#DejaVuSans-116"/>
      <use x="520.263672" xlink:href="#DejaVuSans-111"/>
      <use x="581.445312" xlink:href="#DejaVuSans-102"/>
      <use x="616.650391" xlink:href="#DejaVuSans-102"/>
     </g>
    </g>
   </g>
   <g id="matplotlib.axis_2">
    <g id="ytick_1">
     <g id="line2d_6">
      <defs>
       <path d="M 0 0 
L -3.5 0 
" id="me385c1dadb" style="stroke:#000000;stroke-width:0.8;"/>
      </defs>
      <g>
       <use style="stroke:#000000;stroke-width:0.8;" x="92.99" xlink:href="#me385c1dadb" y="463.84"/>
      </g>
     </g>
     <g id="text_7">
      <!-- 0.0 -->
      <defs>
       <path d="M 10.6875 12.40625 
L 21 12.40625 
L 21 0 
L 10.6875 0 
z
" id="DejaVuSans-46"/>
      </defs>
      <g transform="translate(44.7691 473.687575)scale(0.2592 -0.2592)">
       <use xlink:href="#DejaVuSans-48"/>
       <use x="63.623047" xlink:href="#DejaVuSans-46"/>
       <use x="95.410156" xlink:href="#DejaVuSans-48"/>
      </g>
     </g>
    </g>
    <g id="ytick_2">
     <g id="line2d_7">
      <g>
       <use style="stroke:#000000;stroke-width:0.8;" x="92.99" xlink:href="#me385c1dadb" y="379.4"/>
      </g>
     </g>
     <g id="text_8">
      <!-- 0.2 -->
      <g transform="translate(44.7691 389.247575)scale(0.2592 -0.2592)">
       <use xlink:href="#DejaVuSans-48"/>
       <use x="63.623047" xlink:href="#DejaVuSans-46"/>
       <use x="95.410156" xlink:href="#DejaVuSans-50"/>
      </g>
     </g>
    </g>
    <g id="ytick_3">
     <g id="line2d_8">
      <g>
       <use style="stroke:#000000;stroke-width:0.8;" x="92.99" xlink:href="#me385c1dadb" y="294.96"/>
      </g>
     </g>
     <g id="text_9">
      <!-- 0.4 -->
      <defs>
       <path d="M 37.796875 64.3125 
L 12.890625 25.390625 
L 37.796875 25.390625 
z
M 35.203125 72.90625 
L 47.609375 72.90625 
L 47.609375 25.390625 
L 58.015625 25.390625 
L 58.015625 17.1875 
L 47.609375 17.1875 
L 47.609375 0 
L 37.796875 0 
L 37.796875 17.1875 
L 4.890625 17.1875 
L 4.890625 26.703125 
z
" id="DejaVuSans-52"/>
      </defs>
      <g transform="translate(44.7691 304.807575)scale(0.2592 -0.2592)">
       <use xlink:href="#DejaVuSans-48"/>
       <use x="63.623047" xlink:href="#DejaVuSans-46"/>
       <use x="95.410156" xlink:href="#DejaVuSans-52"/>
      </g>
     </g>
    </g>
    <g id="ytick_4">
     <g id="line2d_9">
      <g>
       <use style="stroke:#000000;stroke-width:0.8;" x="92.99" xlink:href="#me385c1dadb" y="210.52"/>
      </g>
     </g>
     <g id="text_10">
      <!-- 0.6 -->
      <defs>
       <path d="M 33.015625 40.375 
Q 26.375 40.375 22.484375 35.828125 
Q 18.609375 31.296875 18.609375 23.390625 
Q 18.609375 15.53125 22.484375 10.953125 
Q 26.375 6.390625 33.015625 6.390625 
Q 39.65625 6.390625 43.53125 10.953125 
Q 47.40625 15.53125 47.40625 23.390625 
Q 47.40625 31.296875 43.53125 35.828125 
Q 39.65625 40.375 33.015625 40.375 
z
M 52.59375 71.296875 
L 52.59375 62.3125 
Q 48.875 64.0625 45.09375 64.984375 
Q 41.3125 65.921875 37.59375 65.921875 
Q 27.828125 65.921875 22.671875 59.328125 
Q 17.53125 52.734375 16.796875 39.40625 
Q 19.671875 43.65625 24.015625 45.921875 
Q 28.375 48.1875 33.59375 48.1875 
Q 44.578125 48.1875 50.953125 41.515625 
Q 57.328125 34.859375 57.328125 23.390625 
Q 57.328125 12.15625 50.6875 5.359375 
Q 44.046875 -1.421875 33.015625 -1.421875 
Q 20.359375 -1.421875 13.671875 8.265625 
Q 6.984375 17.96875 6.984375 36.375 
Q 6.984375 53.65625 15.1875 63.9375 
Q 23.390625 74.21875 37.203125 74.21875 
Q 40.921875 74.21875 44.703125 73.484375 
Q 48.484375 72.75 52.59375 71.296875 
z
" id="DejaVuSans-54"/>
      </defs>
      <g transform="translate(44.7691 220.367575)scale(0.2592 -0.2592)">
       <use xlink:href="#DejaVuSans-48"/>
       <use x="63.623047" xlink:href="#DejaVuSans-46"/>
       <use x="95.410156" xlink:href="#DejaVuSans-54"/>
      </g>
     </g>
    </g>
    <g id="ytick_5">
     <g id="line2d_10">
      <g>
       <use style="stroke:#000000;stroke-width:0.8;" x="92.99" xlink:href="#me385c1dadb" y="126.08"/>
      </g>
     </g>
     <g id="text_11">
      <!-- 0.8 -->
      <defs>
       <path d="M 31.78125 34.625 
Q 24.75 34.625 20.71875 30.859375 
Q 16.703125 27.09375 16.703125 20.515625 
Q 16.703125 13.921875 20.71875 10.15625 
Q 24.75 6.390625 31.78125 6.390625 
Q 38.8125 6.390625 42.859375 10.171875 
Q 46.921875 13.96875 46.921875 20.515625 
Q 46.921875 27.09375 42.890625 30.859375 
Q 38.875 34.625 31.78125 34.625 
z
M 21.921875 38.8125 
Q 15.578125 40.375 12.03125 44.71875 
Q 8.5 49.078125 8.5 55.328125 
Q 8.5 64.0625 14.71875 69.140625 
Q 20.953125 74.21875 31.78125 74.21875 
Q 42.671875 74.21875 48.875 69.140625 
Q 55.078125 64.0625 55.078125 55.328125 
Q 55.078125 49.078125 51.53125 44.71875 
Q 48 40.375 41.703125 38.8125 
Q 48.828125 37.15625 52.796875 32.3125 
Q 56.78125 27.484375 56.78125 20.515625 
Q 56.78125 9.90625 50.3125 4.234375 
Q 43.84375 -1.421875 31.78125 -1.421875 
Q 19.734375 -1.421875 13.25 4.234375 
Q 6.78125 9.90625 6.78125 20.515625 
Q 6.78125 27.484375 10.78125 32.3125 
Q 14.796875 37.15625 21.921875 38.8125 
z
M 18.3125 54.390625 
Q 18.3125 48.734375 21.84375 45.5625 
Q 25.390625 42.390625 31.78125 42.390625 
Q 38.140625 42.390625 41.71875 45.5625 
Q 45.3125 48.734375 45.3125 54.390625 
Q 45.3125 60.0625 41.71875 63.234375 
Q 38.140625 66.40625 31.78125 66.40625 
Q 25.390625 66.40625 21.84375 63.234375 
Q 18.3125 60.0625 18.3125 54.390625 
z
" id="DejaVuSans-56"/>
      </defs>
      <g transform="translate(44.7691 135.927575)scale(0.2592 -0.2592)">
       <use xlink:href="#DejaVuSans-48"/>
       <use x="63.623047" xlink:href="#DejaVuSans-46"/>
       <use x="95.410156" xlink:href="#DejaVuSans-56"/>
      </g>
     </g>
    </g>
    <g id="ytick_6">
     <g id="line2d_11">
      <g>
       <use style="stroke:#000000;stroke-width:0.8;" x="92.99" xlink:href="#me385c1dadb" y="41.64"/>
      </g>
     </g>
     <g id="text_12">
      <!-- 1.0 -->
      <g transform="translate(44.7691 51.487575)scale(0.2592 -0.2592)">
       <use xlink:href="#DejaVuSans-49"/>
       <use x="63.623047" xlink:href="#DejaVuSans-46"/>
       <use x="95.410156" xlink:href="#DejaVuSans-48"/>
      </g>
     </g>
    </g>
    <g id="text_13">
     <!-- Fraction -->
     <defs>
      <path d="M 9.8125 72.90625 
L 51.703125 72.90625 
L 51.703125 64.59375 
L 19.671875 64.59375 
L 19.671875 43.109375 
L 48.578125 43.109375 
L 48.578125 34.8125 
L 19.671875 34.8125 
L 19.671875 0 
L 9.8125 0 
z
" id="DejaVuSans-70"/>
      <path d="M 41.109375 46.296875 
Q 39.59375 47.171875 37.8125 47.578125 
Q 36.03125 48 33.890625 48 
Q 26.265625 48 22.1875 43.046875 
Q 18.109375 38.09375 18.109375 28.8125 
L 18.109375 0 
L 9.078125 0 
L 9.078125 54.6875 
L 18.109375 54.6875 
L 18.109375 46.1875 
Q 20.953125 51.171875 25.484375 53.578125 
Q 30.03125 56 36.53125 56 
Q 37.453125 56 38.578125 55.875 
Q 39.703125 55.765625 41.0625 55.515625 
z
" id="DejaVuSans-114"/>
      <path d="M 34.28125 27.484375 
Q 23.390625 27.484375 19.1875 25 
Q 14.984375 22.515625 14.984375 16.5 
Q 14.984375 11.71875 18.140625 8.90625 
Q 21.296875 6.109375 26.703125 6.109375 
Q 34.1875 6.109375 38.703125 11.40625 
Q 43.21875 16.703125 43.21875 25.484375 
L 43.21875 27.484375 
z
M 52.203125 31.203125 
L 52.203125 0 
L 43.21875 0 
L 43.21875 8.296875 
Q 40.140625 3.328125 35.546875 0.953125 
Q 30.953125 -1.421875 24.3125 -1.421875 
Q 15.921875 -1.421875 10.953125 3.296875 
Q 6 8.015625 6 15.921875 
Q 6 25.140625 12.171875 29.828125 
Q 18.359375 34.515625 30.609375 34.515625 
L 43.21875 34.515625 
L 43.21875 35.40625 
Q 43.21875 41.609375 39.140625 45 
Q 35.0625 48.390625 27.6875 48.390625 
Q 23 48.390625 18.546875 47.265625 
Q 14.109375 46.140625 10.015625 43.890625 
L 10.015625 52.203125 
Q 14.9375 54.109375 19.578125 55.046875 
Q 24.21875 56 28.609375 56 
Q 40.484375 56 46.34375 49.84375 
Q 52.203125 43.703125 52.203125 31.203125 
z
" id="DejaVuSans-97"/>
      <path d="M 48.78125 52.59375 
L 48.78125 44.1875 
Q 44.96875 46.296875 41.140625 47.34375 
Q 37.3125 48.390625 33.40625 48.390625 
Q 24.65625 48.390625 19.8125 42.84375 
Q 14.984375 37.3125 14.984375 27.296875 
Q 14.984375 17.28125 19.8125 11.734375 
Q 24.65625 6.203125 33.40625 6.203125 
Q 37.3125 6.203125 41.140625 7.25 
Q 44.96875 8.296875 48.78125 10.40625 
L 48.78125 2.09375 
Q 45.015625 0.34375 40.984375 -0.53125 
Q 36.96875 -1.421875 32.421875 -1.421875 
Q 20.0625 -1.421875 12.78125 6.34375 
Q 5.515625 14.109375 5.515625 27.296875 
Q 5.515625 40.671875 12.859375 48.328125 
Q 20.21875 56 33.015625 56 
Q 37.15625 56 41.109375 55.140625 
Q 45.0625 54.296875 48.78125 52.59375 
z
" id="DejaVuSans-99"/>
      <path d="M 9.421875 54.6875 
L 18.40625 54.6875 
L 18.40625 0 
L 9.421875 0 
z
M 9.421875 75.984375 
L 18.40625 75.984375 
L 18.40625 64.59375 
L 9.421875 64.59375 
z
" id="DejaVuSans-105"/>
      <path d="M 54.890625 33.015625 
L 54.890625 0 
L 45.90625 0 
L 45.90625 32.71875 
Q 45.90625 40.484375 42.875 44.328125 
Q 39.84375 48.1875 33.796875 48.1875 
Q 26.515625 48.1875 22.3125 43.546875 
Q 18.109375 38.921875 18.109375 30.90625 
L 18.109375 0 
L 9.078125 0 
L 9.078125 54.6875 
L 18.109375 54.6875 
L 18.109375 46.1875 
Q 21.34375 51.125 25.703125 53.5625 
Q 30.078125 56 35.796875 56 
Q 45.21875 56 50.046875 50.171875 
Q 54.890625 44.34375 54.890625 33.015625 
z
" id="DejaVuSans-110"/>
     </defs>
     <g transform="translate(35.37855 305.400125)rotate(-90)scale(0.2592 -0.2592)">
      <use xlink:href="#DejaVuSans-70"/>
      <use x="57.410156" xlink:href="#DejaVuSans-114"/>
      <use x="98.523438" xlink:href="#DejaVuSans-97"/>
      <use x="159.802734" xlink:href="#DejaVuSans-99"/>
      <use x="214.783203" xlink:href="#DejaVuSans-116"/>
      <use x="253.992188" xlink:href="#DejaVuSans-105"/>
      <use x="281.775391" xlink:href="#DejaVuSans-111"/>
      <use x="342.957031" xlink:href="#DejaVuSans-110"/>
     </g>
    </g>
   </g>
   <g id="line2d_12">
    <path clip-path="url(#p4f4fed71bd)" d="M 119.815971 463.84 
L 121.964197 463.732053 
L 124.649479 463.192319 
L 125.723592 462.740904 
L 126.797705 462.397437 
L 128.408875 461.631995 
L 130.557101 460.336632 
L 133.242383 457.804786 
L 133.77944 457.225798 
L 136.464722 453.221949 
L 139.687061 446.941402 
L 143.446456 438.129008 
L 144.520569 435.018174 
L 147.205851 427.991812 
L 148.279964 424.616017 
L 150.965247 416.392425 
L 151.502303 415.018556 
L 161.16932 382.879816 
L 163.317546 374.930998 
L 164.391659 371.113602 
L 165.465772 367.080313 
L 167.613998 359.102055 
L 169.225167 352.321026 
L 172.447506 336.521524 
L 175.132788 321.418769 
L 176.206901 314.156886 
L 178.892184 295.118976 
L 183.188635 261.792821 
L 185.336861 244.776462 
L 186.948031 232.558834 
L 188.5592 221.508996 
L 189.633313 214.41394 
L 190.707426 207.652537 
L 193.929765 189.713723 
L 195.540934 181.931732 
L 197.68916 172.540351 
L 198.763273 168.183221 
L 200.374443 162.383528 
L 201.448556 159.105867 
L 201.985612 157.663304 
L 203.059725 154.366016 
L 205.207951 148.61539 
L 206.282064 145.955971 
L 207.356177 142.982524 
L 208.43029 140.745079 
L 208.967346 139.538036 
L 210.041459 137.614618 
L 211.115572 135.691201 
L 211.652629 134.749118 
L 212.189685 134.042557 
L 213.263798 132.3841 
L 214.337911 130.823776 
L 217.56025 126.417579 
L 222.393758 120.666953 
L 223.467871 119.577671 
L 224.541984 118.527641 
L 227.227267 115.976169 
L 229.375493 114.023311 
L 230.449606 113.297123 
L 233.134888 111.059678 
L 234.209001 110.274609 
L 235.283114 109.342341 
L 236.357227 108.410072 
L 237.968396 107.193216 
L 239.042509 106.319827 
L 241.190735 104.896891 
L 246.5613 101.638856 
L 247.635413 101.069682 
L 248.709526 100.30424 
L 249.783639 99.627119 
L 250.857752 98.979437 
L 251.931865 98.380822 
L 253.005978 97.693887 
L 256.765373 95.652709 
L 257.839486 94.759694 
L 258.913599 94.269026 
L 261.061825 93.258251 
L 263.747107 92.061021 
L 266.43239 90.598831 
L 267.506503 90.088537 
L 268.580615 89.607682 
L 269.654728 89.166081 
L 272.877067 87.811838 
L 273.95118 87.389864 
L 275.025293 86.90901 
L 275.56235 86.771623 
L 277.710576 85.858981 
L 278.784689 85.47626 
L 279.858802 84.985592 
L 281.469971 84.406604 
L 286.303479 82.58132 
L 287.377592 82.228039 
L 291.136988 80.559768 
L 291.674044 80.461635 
L 292.211101 80.147608 
L 295.970496 78.871871 
L 298.118722 77.861096 
L 299.729891 77.370428 
L 301.341061 76.781627 
L 305.637512 75.35869 
L 311.008077 73.454899 
L 312.08219 73.101618 
L 315.304529 71.904389 
L 316.378642 71.609988 
L 319.600981 70.559959 
L 321.749207 69.833771 
L 322.82332 69.56881 
L 323.897433 69.284223 
L 324.971546 68.960382 
L 327.656828 68.037927 
L 331.416223 67.184165 
L 334.101506 66.477603 
L 335.175619 66.310776 
L 340.009127 65.074293 
L 350.750257 62.827035 
L 352.361426 62.414874 
L 353.972595 62.238234 
L 357.194934 61.561112 
L 361.491386 60.638657 
L 364.713725 60.187242 
L 366.861951 59.922282 
L 367.936064 59.696574 
L 369.547233 59.45124 
L 371.158403 59.21572 
L 380.825419 57.90073 
L 386.733041 57.145102 
L 397.47417 55.869366 
L 400.159453 55.535712 
L 402.307678 55.310004 
L 404.455904 55.113737 
L 412.511752 54.191282 
L 417.34526 53.680987 
L 418.419373 53.5436 
L 421.641712 53.317893 
L 427.549333 52.768345 
L 429.697559 52.660398 
L 433.456954 52.267864 
L 437.21635 52.032344 
L 442.586914 51.423916 
L 447.420423 51.060821 
L 454.939213 50.334633 
L 483.940263 48.636923 
L 489.310828 48.224762 
L 494.144336 48.038308 
L 498.977845 47.704654 
L 504.348409 47.40044 
L 507.033692 47.292493 
L 508.644861 47.164919 
L 511.8672 47.017719 
L 514.015426 46.890145 
L 519.923047 46.566305 
L 528.515951 46.193397 
L 536.571798 45.93825 
L 539.794137 45.810676 
L 552.683492 45.477022 
L 554.831718 45.359262 
L 560.739339 45.251315 
L 582.221599 44.780274 
L 583.295712 44.71158 
L 591.888615 44.456433 
L 595.648011 44.3583 
L 638.075472 43.690991 
L 646.131319 43.592858 
L 652.038941 43.484911 
L 656.335393 43.426031 
L 656.335393 43.426031 
" style="fill:none;stroke:#0000ff;stroke-linecap:square;stroke-width:1.5;"/>
   </g>
   <g id="line2d_13">
    <path clip-path="url(#p4f4fed71bd)" d="M 120.353028 358.29 
L 120.890084 294.96 
L 121.427141 316.07 
L 121.964197 344.757949 
L 122.501253 339.663529 
L 123.03831 353.892083 
L 123.575366 342.297576 
L 124.112423 338.652791 
L 124.649479 331.777441 
L 125.186536 316.709697 
L 125.723592 313.724444 
L 126.260649 321.989735 
L 126.797705 324.684395 
L 127.334762 325.292816 
L 127.871818 324.762353 
L 128.408875 323.729381 
L 128.945931 324.372905 
L 129.482988 324.411263 
L 130.020044 324.828175 
L 131.094157 321.706335 
L 131.631214 318.787754 
L 132.16827 318.947992 
L 132.705327 316.421616 
L 133.77944 318.580786 
L 134.316496 318.200367 
L 134.853552 317.13437 
L 135.390609 315.459884 
L 135.927665 314.650587 
L 137.001778 310.945588 
L 137.538835 310.724038 
L 138.075891 310.36339 
L 138.612948 310.520197 
L 139.150004 308.4704 
L 139.687061 308.226045 
L 140.224117 307.281571 
L 141.835287 305.559581 
L 142.9094 306.024903 
L 143.446456 305.204692 
L 143.983513 303.275365 
L 144.520569 302.90536 
L 145.057626 302.772507 
L 145.594682 302.92566 
L 146.131738 302.19442 
L 147.205851 301.492989 
L 147.742908 300.767816 
L 148.279964 299.77881 
L 148.817021 299.432023 
L 149.354077 299.469154 
L 149.891134 299.24303 
L 150.42819 299.465065 
L 150.965247 299.136353 
L 151.502303 299.819619 
L 152.03936 299.250313 
L 152.576416 299.328863 
L 153.113473 298.993758 
L 154.187586 298.83005 
L 154.724642 299.434868 
L 155.261699 299.389743 
L 155.798755 299.719645 
L 156.335812 299.666393 
L 156.872868 299.393209 
L 157.946981 299.494154 
L 158.484037 300.062088 
L 159.021094 300.23422 
L 159.55815 300.283122 
L 160.632263 300.114035 
L 162.243433 300.309038 
L 162.780489 300.063801 
L 163.854602 300.522382 
L 164.391659 300.361419 
L 164.928715 300.456815 
L 165.465772 300.736446 
L 166.002828 300.820466 
L 166.539885 300.770645 
L 167.076941 301.056785 
L 168.688111 301.005865 
L 169.762224 300.458523 
L 170.836336 300.304236 
L 171.373393 300.040031 
L 171.910449 299.482925 
L 172.447506 299.243023 
L 172.984562 298.867441 
L 173.521619 298.6403 
L 174.058675 298.183356 
L 174.595732 298.068867 
L 176.743958 295.627255 
L 177.281014 294.801695 
L 178.892184 293.102975 
L 179.966297 291.252197 
L 181.04041 289.866244 
L 181.577466 289.066398 
L 182.114523 288.512733 
L 182.651579 287.75026 
L 183.725692 286.807149 
L 185.873918 284.124478 
L 186.948031 283.025376 
L 188.5592 281.80297 
L 189.096257 281.585601 
L 190.17037 280.74038 
L 190.707426 280.656746 
L 192.318596 280.041075 
L 192.855652 280.070136 
L 193.392709 279.801372 
L 195.540934 279.378328 
L 196.615047 279.459163 
L 199.30033 279.177721 
L 203.596782 280.375467 
L 204.670895 280.61292 
L 210.578516 282.690736 
L 212.726742 283.689858 
L 222.393758 288.464538 
L 224.004928 289.39639 
L 229.375493 292.418029 
L 231.523718 293.770998 
L 234.209001 295.493602 
L 235.82017 296.462768 
L 240.653679 299.704759 
L 243.876017 301.878479 
L 245.487187 302.98548 
L 247.098356 303.977864 
L 252.468921 306.77828 
L 257.302429 309.028113 
L 259.450655 309.905769 
L 262.672994 311.155034 
L 266.43239 312.249754 
L 273.95118 314.126428 
L 275.025293 314.329079 
L 276.636463 314.656695 
L 282.007027 315.518111 
L 287.914649 316.197298 
L 293.285213 316.528713 
L 305.100456 316.841973 
L 332.490336 316.570837 
L 335.712675 316.519335 
L 342.157353 316.426421 
L 351.287313 316.260616 
L 435.068124 314.950373 
L 443.123971 314.819267 
L 450.642762 314.699847 
L 472.662077 314.448548 
L 518.848934 313.95089 
L 525.293612 313.894642 
L 537.108854 313.812668 
L 545.164702 313.765689 
L 559.665227 313.689475 
L 594.036841 313.509747 
L 656.335393 313.318049 
L 656.335393 313.318049 
" style="fill:none;stroke:#ff0000;stroke-linecap:square;stroke-width:1.5;"/>
   </g>
   <g id="line2d_14">
    <path clip-path="url(#p4f4fed71bd)" d="M 120.353028 463.837547 
L 124.649479 463.637408 
L 125.723592 463.44921 
L 127.334762 463.295768 
L 130.557101 462.672211 
L 133.77944 461.564363 
L 135.927665 460.413946 
L 138.612948 458.572895 
L 139.687061 457.611535 
L 142.372343 455.229672 
L 143.446456 454.179481 
L 143.983513 453.405146 
L 147.742908 449.387399 
L 148.817021 447.908595 
L 149.354077 447.350574 
L 150.42819 446.024405 
L 150.965247 445.330316 
L 151.502303 444.873368 
L 154.187586 441.27257 
L 154.724642 440.75916 
L 158.484037 436.027866 
L 160.095207 433.969032 
L 163.317546 429.397123 
L 163.854602 428.775852 
L 165.465772 426.45997 
L 167.613998 423.451674 
L 169.225167 420.753555 
L 172.447506 414.204196 
L 175.132788 407.72295 
L 176.206901 404.444164 
L 178.892184 395.60948 
L 182.651579 381.248947 
L 184.262748 375.316898 
L 185.873918 368.771187 
L 187.485087 362.936635 
L 189.633313 355.923509 
L 190.17037 354.107053 
L 194.466822 342.998884 
L 195.540934 340.672614 
L 199.30033 333.636848 
L 202.522669 329.79237 
L 205.745008 326.809126 
L 206.819121 325.806698 
L 207.356177 325.236556 
L 208.43029 324.533585 
L 208.967346 324.149342 
L 210.041459 323.731083 
L 211.115572 323.218618 
L 211.652629 322.951695 
L 212.189685 322.903825 
L 213.263798 322.614164 
L 213.800855 322.562119 
L 215.412024 322.085145 
L 219.171419 321.415779 
L 220.245532 321.473661 
L 223.467871 321.367997 
L 224.541984 321.401587 
L 229.375493 321.807157 
L 230.986662 322.199748 
L 232.060775 322.408173 
L 238.505453 323.70311 
L 241.190735 324.620848 
L 244.95013 325.837112 
L 246.024243 326.270818 
L 251.931865 327.690334 
L 253.005978 327.855472 
L 255.69126 328.45063 
L 261.598881 329.387159 
L 262.672994 329.563256 
L 265.895333 329.847189 
L 266.969446 329.87959 
L 272.340011 330.249175 
L 276.099406 330.423693 
L 279.321745 330.45095 
L 286.840536 330.41437 
L 288.451705 330.261554 
L 289.525818 330.137818 
L 296.507552 329.535292 
L 298.118722 329.27409 
L 300.804004 329.059542 
L 302.95223 328.827542 
L 305.637512 328.578651 
L 313.69336 327.562324 
L 316.915698 327.182956 
L 330.34211 325.594762 
L 339.472071 324.649127 
L 345.379692 324.174369 
L 346.453805 324.047066 
L 349.676144 323.829899 
L 352.361426 323.494568 
L 354.509652 323.3924 
L 370.621346 322.066897 
L 374.380742 321.850946 
L 379.751306 321.484285 
L 385.658928 321.180326 
L 388.34421 320.994716 
L 392.640662 320.746353 
L 394.788888 320.647122 
L 399.622396 320.378467 
L 402.307678 320.228032 
L 406.067074 320.013789 
L 435.068124 318.667163 
L 439.364575 318.477352 
L 443.123971 318.26223 
L 446.34631 318.122443 
L 469.976795 317.216982 
L 475.347359 317.08556 
L 491.459054 316.530156 
L 494.681393 316.456197 
L 500.051957 316.279627 
L 510.793087 315.953741 
L 532.812403 315.41041 
L 550.535266 315.140976 
L 568.25813 314.895623 
L 572.017526 314.839464 
L 588.12922 314.598015 
L 601.018575 314.429906 
L 654.187167 313.970804 
L 656.335393 313.954802 
L 656.335393 313.954802 
" style="fill:none;stroke:#008000;stroke-linecap:square;stroke-width:1.5;"/>
   </g>
   <g id="line2d_15">
    <path clip-path="url(#p4f4fed71bd)" d="M 656.335393 463.84 
L 656.335393 41.64 
" style="fill:none;stroke:#1f77b4;stroke-linecap:square;stroke-width:1.5;"/>
   </g>
   <g id="patch_3">
    <path d="M 92.99 463.84 
L 92.99 41.64 
" style="fill:none;stroke:#000000;stroke-linecap:square;stroke-linejoin:miter;stroke-width:0.8;"/>
   </g>
   <g id="patch_4">
    <path d="M 683.161364 463.84 
L 683.161364 41.64 
" style="fill:none;stroke:#000000;stroke-linecap:square;stroke-linejoin:miter;stroke-width:0.8;"/>
   </g>
   <g id="patch_5">
    <path d="M 92.99 463.84 
L 683.161364 463.84 
" style="fill:none;stroke:#000000;stroke-linecap:square;stroke-linejoin:miter;stroke-width:0.8;"/>
   </g>
   <g id="patch_6">
    <path d="M 92.99 41.64 
L 683.161364 41.64 
" style="fill:none;stroke:#000000;stroke-linecap:square;stroke-linejoin:miter;stroke-width:0.8;"/>
   </g>
   <g id="text_14">
    <!-- Purity/Efficiency vs dedxV Cutoff — Electron -->
    <defs>
     <path d="M 19.671875 64.796875 
L 19.671875 37.40625 
L 32.078125 37.40625 
Q 38.96875 37.40625 42.71875 40.96875 
Q 46.484375 44.53125 46.484375 51.125 
Q 46.484375 57.671875 42.71875 61.234375 
Q 38.96875 64.796875 32.078125 64.796875 
z
M 9.8125 72.90625 
L 32.078125 72.90625 
Q 44.34375 72.90625 50.609375 67.359375 
Q 56.890625 61.8125 56.890625 51.125 
Q 56.890625 40.328125 50.609375 34.8125 
Q 44.34375 29.296875 32.078125 29.296875 
L 19.671875 29.296875 
L 19.671875 0 
L 9.8125 0 
z
" id="DejaVuSans-80"/>
     <path d="M 32.171875 -5.078125 
Q 28.375 -14.84375 24.75 -17.8125 
Q 21.140625 -20.796875 15.09375 -20.796875 
L 7.90625 -20.796875 
L 7.90625 -13.28125 
L 13.1875 -13.28125 
Q 16.890625 -13.28125 18.9375 -11.515625 
Q 21 -9.765625 23.484375 -3.21875 
L 25.09375 0.875 
L 2.984375 54.6875 
L 12.5 54.6875 
L 29.59375 11.921875 
L 46.6875 54.6875 
L 56.203125 54.6875 
z
" id="DejaVuSans-121"/>
     <path d="M 25.390625 72.90625 
L 33.6875 72.90625 
L 8.296875 -9.28125 
L 0 -9.28125 
z
" id="DejaVuSans-47"/>
     <path d="M 9.8125 72.90625 
L 55.90625 72.90625 
L 55.90625 64.59375 
L 19.671875 64.59375 
L 19.671875 43.015625 
L 54.390625 43.015625 
L 54.390625 34.71875 
L 19.671875 34.71875 
L 19.671875 8.296875 
L 56.78125 8.296875 
L 56.78125 0 
L 9.8125 0 
z
" id="DejaVuSans-69"/>
     <path d="M 2.984375 54.6875 
L 12.5 54.6875 
L 29.59375 8.796875 
L 46.6875 54.6875 
L 56.203125 54.6875 
L 35.6875 0 
L 23.484375 0 
z
" id="DejaVuSans-118"/>
     <path d="M 44.28125 53.078125 
L 44.28125 44.578125 
Q 40.484375 46.53125 36.375 47.5 
Q 32.28125 48.484375 27.875 48.484375 
Q 21.1875 48.484375 17.84375 46.4375 
Q 14.5 44.390625 14.5 40.28125 
Q 14.5 37.15625 16.890625 35.375 
Q 19.28125 33.59375 26.515625 31.984375 
L 29.59375 31.296875 
Q 39.15625 29.25 43.1875 25.515625 
Q 47.21875 21.78125 47.21875 15.09375 
Q 47.21875 7.46875 41.1875 3.015625 
Q 35.15625 -1.421875 24.609375 -1.421875 
Q 20.21875 -1.421875 15.453125 -0.5625 
Q 10.6875 0.296875 5.421875 2 
L 5.421875 11.28125 
Q 10.40625 8.6875 15.234375 7.390625 
Q 20.0625 6.109375 24.8125 6.109375 
Q 31.15625 6.109375 34.5625 8.28125 
Q 37.984375 10.453125 37.984375 14.40625 
Q 37.984375 18.0625 35.515625 20.015625 
Q 33.0625 21.96875 24.703125 23.78125 
L 21.578125 24.515625 
Q 13.234375 26.265625 9.515625 29.90625 
Q 5.8125 33.546875 5.8125 39.890625 
Q 5.8125 47.609375 11.28125 51.796875 
Q 16.75 56 26.8125 56 
Q 31.78125 56 36.171875 55.265625 
Q 40.578125 54.546875 44.28125 53.078125 
z
" id="DejaVuSans-115"/>
     <path d="M 4.890625 30.90625 
L 95.125 30.90625 
L 95.125 23.875 
L 4.890625 23.875 
z
" id="DejaVuSans-8212"/>
     <path d="M 9.421875 75.984375 
L 18.40625 75.984375 
L 18.40625 0 
L 9.421875 0 
z
" id="DejaVuSans-108"/>
    </defs>
    <g transform="translate(101.600957 35.64)scale(0.2592 -0.2592)">
     <use xlink:href="#DejaVuSans-80"/>
     <use x="60.287109" xlink:href="#DejaVuSans-117"/>
     <use x="123.666016" xlink:href="#DejaVuSans-114"/>
     <use x="164.779297" xlink:href="#DejaVuSans-105"/>
     <use x="192.5625" xlink:href="#DejaVuSans-116"/>
     <use x="231.771484" xlink:href="#DejaVuSans-121"/>
     <use x="290.951172" xlink:href="#DejaVuSans-47"/>
     <use x="324.642578" xlink:href="#DejaVuSans-69"/>
     <use x="387.826172" xlink:href="#DejaVuSans-102"/>
     <use x="423.03125" xlink:href="#DejaVuSans-102"/>
     <use x="458.236328" xlink:href="#DejaVuSans-105"/>
     <use x="486.019531" xlink:href="#DejaVuSans-99"/>
     <use x="541" xlink:href="#DejaVuSans-105"/>
     <use x="568.783203" xlink:href="#DejaVuSans-101"/>
     <use x="630.306641" xlink:href="#DejaVuSans-110"/>
     <use x="693.685547" xlink:href="#DejaVuSans-99"/>
     <use x="748.666016" xlink:href="#DejaVuSans-121"/>
     <use x="807.845703" xlink:href="#DejaVuSans-32"/>
     <use x="839.632812" xlink:href="#DejaVuSans-118"/>
     <use x="898.8125" xlink:href="#DejaVuSans-115"/>
     <use x="950.912109" xlink:href="#DejaVuSans-32"/>
     <use x="982.699219" xlink:href="#DejaVuSans-100"/>
     <use x="1046.175781" xlink:href="#DejaVuSans-101"/>
     <use x="1107.699219" xlink:href="#DejaVuSans-100"/>
     <use x="1171.175781" xlink:href="#DejaVuSans-120"/>
     <use x="1230.355469" xlink:href="#DejaVuSans-86"/>
     <use x="1298.763672" xlink:href="#DejaVuSans-32"/>
     <use x="1330.550781" xlink:href="#DejaVuSans-67"/>
     <use x="1400.375" xlink:href="#DejaVuSans-117"/>
     <use x="1463.753906" xlink:href="#DejaVuSans-116"/>
     <use x="1502.962891" xlink:href="#DejaVuSans-111"/>
     <use x="1564.144531" xlink:href="#DejaVuSans-102"/>
     <use x="1599.349609" xlink:href="#DejaVuSans-102"/>
     <use x="1634.554688" xlink:href="#DejaVuSans-32"/>
     <use x="1666.341797" xlink:href="#DejaVuSans-8212"/>
     <use x="1766.341797" xlink:href="#DejaVuSans-32"/>
     <use x="1798.128906" xlink:href="#DejaVuSans-69"/>
     <use x="1861.3125" xlink:href="#DejaVuSans-108"/>
     <use x="1889.095703" xlink:href="#DejaVuSans-101"/>
     <use x="1950.619141" xlink:href="#DejaVuSans-99"/>
     <use x="2005.599609" xlink:href="#DejaVuSans-116"/>
     <use x="2044.808594" xlink:href="#DejaVuSans-114"/>
     <use x="2085.890625" xlink:href="#DejaVuSans-111"/>
     <use x="2147.072266" xlink:href="#DejaVuSans-110"/>
    </g>
   </g>
   <g id="legend_1">
    <g id="patch_7">
     <path d="M 279.380994 454.84 
L 496.770369 454.84 
Q 500.370369 454.84 500.370369 451.24 
L 500.370369 373.778125 
Q 500.370369 370.178125 496.770369 370.178125 
L 279.380994 370.178125 
Q 275.780994 370.178125 275.780994 373.778125 
L 275.780994 451.24 
Q 275.780994 454.84 279.380994 454.84 
z
" style="fill:#ffffff;opacity:0.8;stroke:#cccccc;stroke-linejoin:miter;"/>
    </g>
    <g id="line2d_16">
     <path d="M 282.980994 384.755313 
L 318.980994 384.755313 
" style="fill:none;stroke:#0000ff;stroke-linecap:square;stroke-width:1.5;"/>
    </g>
    <g id="line2d_17"/>
    <g id="text_15">
     <!-- Efficiency -->
     <g transform="translate(333.380994 391.055313)scale(0.18 -0.18)">
      <use xlink:href="#DejaVuSans-69"/>
      <use x="63.183594" xlink:href="#DejaVuSans-102"/>
      <use x="98.388672" xlink:href="#DejaVuSans-102"/>
      <use x="133.59375" xlink:href="#DejaVuSans-105"/>
      <use x="161.376953" xlink:href="#DejaVuSans-99"/>
      <use x="216.357422" xlink:href="#DejaVuSans-105"/>
      <use x="244.140625" xlink:href="#DejaVuSans-101"/>
      <use x="305.664062" xlink:href="#DejaVuSans-110"/>
      <use x="369.042969" xlink:href="#DejaVuSans-99"/>
      <use x="424.023438" xlink:href="#DejaVuSans-121"/>
     </g>
    </g>
    <g id="line2d_18">
     <path d="M 282.980994 411.175937 
L 318.980994 411.175937 
" style="fill:none;stroke:#ff0000;stroke-linecap:square;stroke-width:1.5;"/>
    </g>
    <g id="line2d_19"/>
    <g id="text_16">
     <!-- Purity -->
     <g transform="translate(333.380994 417.475937)scale(0.18 -0.18)">
      <use xlink:href="#DejaVuSans-80"/>
      <use x="60.287109" xlink:href="#DejaVuSans-117"/>
      <use x="123.666016" xlink:href="#DejaVuSans-114"/>
      <use x="164.779297" xlink:href="#DejaVuSans-105"/>
      <use x="192.5625" xlink:href="#DejaVuSans-116"/>
      <use x="231.771484" xlink:href="#DejaVuSans-121"/>
     </g>
    </g>
    <g id="line2d_20">
     <path d="M 282.980994 437.596562 
L 318.980994 437.596562 
" style="fill:none;stroke:#008000;stroke-linecap:square;stroke-width:1.5;"/>
    </g>
    <g id="line2d_21"/>
    <g id="text_17">
     <!-- Purity * Efficiency -->
     <defs>
      <path d="M 47.015625 60.890625 
L 29.5 51.421875 
L 47.015625 41.890625 
L 44.1875 37.109375 
L 27.78125 47.015625 
L 27.78125 28.609375 
L 22.21875 28.609375 
L 22.21875 47.015625 
L 5.8125 37.109375 
L 2.984375 41.890625 
L 20.515625 51.421875 
L 2.984375 60.890625 
L 5.8125 65.71875 
L 22.21875 55.8125 
L 22.21875 74.21875 
L 27.78125 74.21875 
L 27.78125 55.8125 
L 44.1875 65.71875 
z
" id="DejaVuSans-42"/>
     </defs>
     <g transform="translate(333.380994 443.896562)scale(0.18 -0.18)">
      <use xlink:href="#DejaVuSans-80"/>
      <use x="60.287109" xlink:href="#DejaVuSans-117"/>
      <use x="123.666016" xlink:href="#DejaVuSans-114"/>
      <use x="164.779297" xlink:href="#DejaVuSans-105"/>
      <use x="192.5625" xlink:href="#DejaVuSans-116"/>
      <use x="231.771484" xlink:href="#DejaVuSans-121"/>
      <use x="290.951172" xlink:href="#DejaVuSans-32"/>
      <use x="322.738281" xlink:href="#DejaVuSans-42"/>
      <use x="372.738281" xlink:href="#DejaVuSans-32"/>
      <use x="404.525391" xlink:href="#DejaVuSans-69"/>
      <use x="467.708984" xlink:href="#DejaVuSans-102"/>
      <use x="502.914062" xlink:href="#DejaVuSans-102"/>
      <use x="538.119141" xlink:href="#DejaVuSans-105"/>
      <use x="565.902344" xlink:href="#DejaVuSans-99"/>
      <use x="620.882812" xlink:href="#DejaVuSans-105"/>
      <use x="648.666016" xlink:href="#DejaVuSans-101"/>
      <use x="710.189453" xlink:href="#DejaVuSans-110"/>
      <use x="773.568359" xlink:href="#DejaVuSans-99"/>
      <use x="828.548828" xlink:href="#DejaVuSans-121"/>
     </g>
    </g>
   </g>
  </g>
  <g id="axes_2">
   <g id="patch_8">
    <path d="M 809.03 463.84 
L 1399.201364 463.84 
L 1399.201364 41.64 
L 809.03 41.64 
z
" style="fill:#ffffff;"/>
   </g>
   <g id="matplotlib.axis_3">
    <g id="xtick_6">
     <g id="line2d_22">
      <g>
       <use style="stroke:#000000;stroke-width:0.8;" x="835.855971" xlink:href="#m6e31fd461f" y="463.84"/>
      </g>
     </g>
     <g id="text_18">
      <!-- 0 -->
      <g transform="translate(827.610171 490.53515)scale(0.2592 -0.2592)">
       <use xlink:href="#DejaVuSans-48"/>
      </g>
     </g>
    </g>
    <g id="xtick_7">
     <g id="line2d_23">
      <g>
       <use style="stroke:#000000;stroke-width:0.8;" x="969.985826" xlink:href="#m6e31fd461f" y="463.84"/>
      </g>
     </g>
     <g id="text_19">
      <!-- 500 -->
      <g transform="translate(945.248426 490.53515)scale(0.2592 -0.2592)">
       <use xlink:href="#DejaVuSans-53"/>
       <use x="63.623047" xlink:href="#DejaVuSans-48"/>
       <use x="127.246094" xlink:href="#DejaVuSans-48"/>
      </g>
     </g>
    </g>
    <g id="xtick_8">
     <g id="line2d_24">
      <g>
       <use style="stroke:#000000;stroke-width:0.8;" x="1104.115682" xlink:href="#m6e31fd461f" y="463.84"/>
      </g>
     </g>
     <g id="text_20">
      <!-- 1000 -->
      <g transform="translate(1071.132482 490.53515)scale(0.2592 -0.2592)">
       <use xlink:href="#DejaVuSans-49"/>
       <use x="63.623047" xlink:href="#DejaVuSans-48"/>
       <use x="127.246094" xlink:href="#DejaVuSans-48"/>
       <use x="190.869141" xlink:href="#DejaVuSans-48"/>
      </g>
     </g>
    </g>
    <g id="xtick_9">
     <g id="line2d_25">
      <g>
       <use style="stroke:#000000;stroke-width:0.8;" x="1238.245537" xlink:href="#m6e31fd461f" y="463.84"/>
      </g>
     </g>
     <g id="text_21">
      <!-- 1500 -->
      <g transform="translate(1205.262337 490.53515)scale(0.2592 -0.2592)">
       <use xlink:href="#DejaVuSans-49"/>
       <use x="63.623047" xlink:href="#DejaVuSans-53"/>
       <use x="127.246094" xlink:href="#DejaVuSans-48"/>
       <use x="190.869141" xlink:href="#DejaVuSans-48"/>
      </g>
     </g>
    </g>
    <g id="xtick_10">
     <g id="line2d_26">
      <g>
       <use style="stroke:#000000;stroke-width:0.8;" x="1372.375393" xlink:href="#m6e31fd461f" y="463.84"/>
      </g>
     </g>
     <g id="text_22">
      <!-- 2000 -->
      <g transform="translate(1339.392193 490.53515)scale(0.2592 -0.2592)">
       <use xlink:href="#DejaVuSans-50"/>
       <use x="63.623047" xlink:href="#DejaVuSans-48"/>
       <use x="127.246094" xlink:href="#DejaVuSans-48"/>
       <use x="190.869141" xlink:href="#DejaVuSans-48"/>
      </g>
     </g>
    </g>
    <g id="text_23">
     <!-- dedxV Cutoff -->
     <g transform="translate(1019.632682 519.62085)scale(0.2592 -0.2592)">
      <use xlink:href="#DejaVuSans-100"/>
      <use x="63.476562" xlink:href="#DejaVuSans-101"/>
      <use x="125" xlink:href="#DejaVuSans-100"/>
      <use x="188.476562" xlink:href="#DejaVuSans-120"/>
      <use x="247.65625" xlink:href="#DejaVuSans-86"/>
      <use x="316.064453" xlink:href="#DejaVuSans-32"/>
      <use x="347.851562" xlink:href="#DejaVuSans-67"/>
      <use x="417.675781" xlink:href="#DejaVuSans-117"/>
      <use x="481.054688" xlink:href="#DejaVuSans-116"/>
      <use x="520.263672" xlink:href="#DejaVuSans-111"/>
      <use x="581.445312" xlink:href="#DejaVuSans-102"/>
      <use x="616.650391" xlink:href="#DejaVuSans-102"/>
     </g>
    </g>
   </g>
   <g id="matplotlib.axis_4">
    <g id="ytick_7">
     <g id="line2d_27">
      <g>
       <use style="stroke:#000000;stroke-width:0.8;" x="809.03" xlink:href="#me385c1dadb" y="463.84"/>
      </g>
     </g>
     <g id="text_24">
      <!-- 0.0 -->
      <g transform="translate(760.8091 473.687575)scale(0.2592 -0.2592)">
       <use xlink:href="#DejaVuSans-48"/>
       <use x="63.623047" xlink:href="#DejaVuSans-46"/>
       <use x="95.410156" xlink:href="#DejaVuSans-48"/>
      </g>
     </g>
    </g>
    <g id="ytick_8">
     <g id="line2d_28">
      <g>
       <use style="stroke:#000000;stroke-width:0.8;" x="809.03" xlink:href="#me385c1dadb" y="379.4"/>
      </g>
     </g>
     <g id="text_25">
      <!-- 0.2 -->
      <g transform="translate(760.8091 389.247575)scale(0.2592 -0.2592)">
       <use xlink:href="#DejaVuSans-48"/>
       <use x="63.623047" xlink:href="#DejaVuSans-46"/>
       <use x="95.410156" xlink:href="#DejaVuSans-50"/>
      </g>
     </g>
    </g>
    <g id="ytick_9">
     <g id="line2d_29">
      <g>
       <use style="stroke:#000000;stroke-width:0.8;" x="809.03" xlink:href="#me385c1dadb" y="294.96"/>
      </g>
     </g>
     <g id="text_26">
      <!-- 0.4 -->
      <g transform="translate(760.8091 304.807575)scale(0.2592 -0.2592)">
       <use xlink:href="#DejaVuSans-48"/>
       <use x="63.623047" xlink:href="#DejaVuSans-46"/>
       <use x="95.410156" xlink:href="#DejaVuSans-52"/>
      </g>
     </g>
    </g>
    <g id="ytick_10">
     <g id="line2d_30">
      <g>
       <use style="stroke:#000000;stroke-width:0.8;" x="809.03" xlink:href="#me385c1dadb" y="210.52"/>
      </g>
     </g>
     <g id="text_27">
      <!-- 0.6 -->
      <g transform="translate(760.8091 220.367575)scale(0.2592 -0.2592)">
       <use xlink:href="#DejaVuSans-48"/>
       <use x="63.623047" xlink:href="#DejaVuSans-46"/>
       <use x="95.410156" xlink:href="#DejaVuSans-54"/>
      </g>
     </g>
    </g>
    <g id="ytick_11">
     <g id="line2d_31">
      <g>
       <use style="stroke:#000000;stroke-width:0.8;" x="809.03" xlink:href="#me385c1dadb" y="126.08"/>
      </g>
     </g>
     <g id="text_28">
      <!-- 0.8 -->
      <g transform="translate(760.8091 135.927575)scale(0.2592 -0.2592)">
       <use xlink:href="#DejaVuSans-48"/>
       <use x="63.623047" xlink:href="#DejaVuSans-46"/>
       <use x="95.410156" xlink:href="#DejaVuSans-56"/>
      </g>
     </g>
    </g>
    <g id="ytick_12">
     <g id="line2d_32">
      <g>
       <use style="stroke:#000000;stroke-width:0.8;" x="809.03" xlink:href="#me385c1dadb" y="41.64"/>
      </g>
     </g>
     <g id="text_29">
      <!-- 1.0 -->
      <g transform="translate(760.8091 51.487575)scale(0.2592 -0.2592)">
       <use xlink:href="#DejaVuSans-49"/>
       <use x="63.623047" xlink:href="#DejaVuSans-46"/>
       <use x="95.410156" xlink:href="#DejaVuSans-48"/>
      </g>
     </g>
    </g>
    <g id="text_30">
     <!-- Fraction -->
     <g transform="translate(751.41855 305.400125)rotate(-90)scale(0.2592 -0.2592)">
      <use xlink:href="#DejaVuSans-70"/>
      <use x="57.410156" xlink:href="#DejaVuSans-114"/>
      <use x="98.523438" xlink:href="#DejaVuSans-97"/>
      <use x="159.802734" xlink:href="#DejaVuSans-99"/>
      <use x="214.783203" xlink:href="#DejaVuSans-116"/>
      <use x="253.992188" xlink:href="#DejaVuSans-105"/>
      <use x="281.775391" xlink:href="#DejaVuSans-111"/>
      <use x="342.957031" xlink:href="#DejaVuSans-110"/>
     </g>
    </g>
   </g>
   <g id="line2d_33">
    <path clip-path="url(#pa40ff1a2a4)" d="M 835.855971 41.64 
L 838.004197 41.792799 
L 840.689479 42.431281 
L 841.763592 42.747793 
L 844.448875 44.112069 
L 847.671214 46.425883 
L 849.81944 48.652383 
L 851.430609 50.824311 
L 853.041778 53.039897 
L 856.801174 59.773967 
L 858.412343 63.020945 
L 859.486456 65.394787 
L 861.097626 68.854593 
L 862.171738 71.239349 
L 864.319964 75.959746 
L 868.07936 85.678854 
L 873.986981 102.901484 
L 878.820489 117.957642 
L 886.876336 146.340056 
L 890.098675 158.907773 
L 892.783958 170.427726 
L 893.858071 174.837069 
L 895.46924 182.04045 
L 896.543353 186.504363 
L 901.913918 209.216843 
L 909.432709 236.917118 
L 911.043878 242.030427 
L 914.266217 251.618565 
L 919.636782 266.674723 
L 921.785008 272.071802 
L 922.859121 274.925869 
L 925.007346 279.973693 
L 931.452024 294.740624 
L 932.526137 296.907096 
L 934.137307 300.601557 
L 935.748476 304.154134 
L 938.433758 310.222437 
L 940.581984 315.13929 
L 943.267267 321.153022 
L 947.563718 331.401469 
L 956.156622 353.644638 
L 958.841905 361.082675 
L 964.749526 376.318917 
L 965.823639 378.703673 
L 966.897752 381.361284 
L 969.045978 386.261766 
L 971.73126 392.313698 
L 978.175938 405.143357 
L 980.324164 408.832361 
L 981.398277 410.491322 
L 982.47239 412.155739 
L 983.009446 412.876077 
L 983.546503 413.787414 
L 984.620615 415.30449 
L 989.454124 422.065846 
L 991.065293 423.937633 
L 992.676463 425.836707 
L 996.435858 429.96228 
L 997.509971 431.048244 
L 998.584084 432.03598 
L 1000.73231 433.896854 
L 1002.880536 435.834127 
L 1004.491705 436.941919 
L 1006.102875 437.951484 
L 1007.176988 438.688194 
L 1009.325213 440.117956 
L 1010.399326 440.707323 
L 1011.473439 441.405833 
L 1016.844004 443.948845 
L 1018.455174 444.669183 
L 1023.288682 446.688313 
L 1024.362795 447.179452 
L 1027.048077 448.134446 
L 1030.807473 449.291353 
L 1032.955698 449.968034 
L 1034.566868 450.470088 
L 1036.715094 450.917571 
L 1038.86332 451.588795 
L 1052.289732 454.344634 
L 1056.586184 455.075886 
L 1058.197353 455.419684 
L 1066.2532 456.631162 
L 1093.106024 459.261487 
L 1118.347678 460.713078 
L 1122.107074 460.849505 
L 1126.403526 461.007761 
L 1129.088808 461.149646 
L 1130.699977 461.291531 
L 1134.996429 461.400673 
L 1162.38631 462.126468 
L 1167.756874 462.224696 
L 1174.738609 462.328381 
L 1201.054376 462.759493 
L 1209.64728 462.868635 
L 1264.42704 463.316118 
L 1293.42809 463.42526 
L 1309.002728 463.474374 
L 1358.411924 463.583516 
L 1370.764223 463.599887 
L 1372.375393 463.605344 
L 1372.375393 463.605344 
" style="fill:none;stroke:#0000ff;stroke-linecap:square;stroke-width:1.5;"/>
   </g>
   <g id="line2d_34">
    <path clip-path="url(#pa40ff1a2a4)" d="M 835.855971 192.518899 
L 853.041778 192.462537 
L 855.727061 192.327725 
L 858.412343 192.126067 
L 859.486456 192.042026 
L 860.560569 191.831323 
L 863.245851 191.53642 
L 865.931134 191.062731 
L 868.07936 190.826736 
L 873.449925 190.158149 
L 874.524037 190.126721 
L 876.135207 189.934957 
L 879.357546 189.462012 
L 880.431659 189.315652 
L 884.728111 188.755003 
L 887.950449 187.506742 
L 889.561619 186.721831 
L 891.709845 185.249293 
L 893.321014 183.481553 
L 894.932184 181.677573 
L 899.765692 173.885654 
L 901.913918 169.480366 
L 903.525087 166.297556 
L 905.136257 163.360801 
L 906.21037 161.081805 
L 907.284483 159.318559 
L 908.358596 157.413282 
L 908.895652 156.665513 
L 909.969765 154.705735 
L 911.580934 152.106356 
L 913.192104 149.788497 
L 915.34033 146.606759 
L 920.710895 141.418088 
L 922.322064 140.292232 
L 923.396177 139.178297 
L 924.47029 138.480669 
L 925.007346 138.08982 
L 926.081459 137.692759 
L 927.155572 137.167759 
L 927.692629 136.885461 
L 928.229685 136.864566 
L 929.303798 136.588281 
L 929.840855 136.562321 
L 931.452024 136.075716 
L 935.211419 135.460985 
L 935.748476 135.614272 
L 936.822589 135.619094 
L 937.359645 135.519599 
L 938.433758 135.554223 
L 939.507871 135.77038 
L 940.581984 135.926199 
L 944.34138 136.81487 
L 945.415493 137.183572 
L 946.489606 137.83947 
L 949.174888 139.191698 
L 950.249001 139.964014 
L 950.786057 140.155226 
L 953.47134 142.045684 
L 954.008396 142.559488 
L 954.545453 142.895936 
L 955.619566 144.126956 
L 957.230735 145.972038 
L 957.767792 146.584425 
L 958.841905 148.099661 
L 959.916017 149.348811 
L 960.99013 150.789344 
L 962.064243 152.616016 
L 963.138356 154.170001 
L 965.823639 157.622325 
L 967.971865 161.152406 
L 968.508921 161.796081 
L 970.120091 164.53696 
L 972.805373 169.39792 
L 973.879486 170.815254 
L 974.953599 172.985124 
L 976.564768 176.096654 
L 977.638881 178.29398 
L 978.175938 179.589675 
L 979.250051 181.524236 
L 979.787107 182.711965 
L 983.009446 188.265091 
L 983.546503 189.375587 
L 984.083559 190.178406 
L 985.694728 193.573021 
L 986.231785 194.561335 
L 986.768841 196.040519 
L 987.305898 197.014035 
L 988.380011 199.389091 
L 988.917067 200.530657 
L 989.454124 201.995959 
L 990.528237 203.615661 
L 992.139406 207.409778 
L 993.213519 209.674265 
L 993.750576 211.091608 
L 994.287632 212.061347 
L 994.824689 213.450823 
L 995.361745 214.230879 
L 995.898802 215.325145 
L 996.972914 217.983152 
L 997.509971 219.1212 
L 998.047027 219.945172 
L 1000.195253 224.376865 
L 1000.73231 225.407373 
L 1003.417592 231.570302 
L 1003.954649 232.016681 
L 1004.491705 233.02547 
L 1005.028762 233.497514 
L 1006.102875 235.274805 
L 1006.639931 236.302685 
L 1007.176988 236.910577 
L 1007.714044 238.275649 
L 1008.788157 239.972981 
L 1009.325213 241.081971 
L 1009.86227 241.762697 
L 1010.936383 243.687956 
L 1011.473439 244.828744 
L 1012.010496 245.512572 
L 1012.547552 245.802696 
L 1013.084609 246.250092 
L 1014.695778 248.272424 
L 1015.769891 250.021483 
L 1016.306948 250.488113 
L 1016.844004 251.516738 
L 1017.381061 251.976422 
L 1018.455174 253.756629 
L 1018.99223 254.399828 
L 1021.140456 257.937656 
L 1021.677512 258.385734 
L 1022.214569 259.20452 
L 1022.751625 259.702867 
L 1023.288682 260.3787 
L 1023.825738 260.681988 
L 1025.436908 263.825698 
L 1025.973964 264.100402 
L 1026.511021 264.992562 
L 1027.048077 265.295621 
L 1027.585134 265.901194 
L 1028.12219 265.964362 
L 1028.659247 266.469794 
L 1029.73336 267.772334 
L 1030.807473 268.730761 
L 1031.344529 269.512734 
L 1031.881586 270.536437 
L 1032.418642 270.78498 
L 1034.029811 272.7787 
L 1034.566868 273.414742 
L 1036.715094 274.274281 
L 1037.25215 275.180241 
L 1037.789207 275.715762 
L 1038.326263 276.816411 
L 1038.86332 277.660664 
L 1039.400376 277.978401 
L 1039.937433 278.98532 
L 1040.474489 279.434701 
L 1041.011546 279.479903 
L 1041.548602 279.795265 
L 1042.622715 280.609575 
L 1043.159772 280.877832 
L 1043.696828 280.990474 
L 1044.233885 281.27428 
L 1045.307997 282.987978 
L 1045.845054 283.092757 
L 1046.38211 283.711136 
L 1046.919167 284.127237 
L 1047.456223 284.993986 
L 1047.99328 286.136218 
L 1048.530336 286.852847 
L 1049.067393 286.995773 
L 1049.604449 287.480421 
L 1050.141506 288.427113 
L 1050.678562 289.082506 
L 1052.289732 289.922386 
L 1052.826788 290.064052 
L 1053.900901 291.191637 
L 1054.437958 291.824954 
L 1054.975014 292.213984 
L 1055.512071 292.947028 
L 1056.049127 293.378727 
L 1056.586184 293.603194 
L 1057.12324 294.917235 
L 1057.660296 295.735865 
L 1058.734409 296.949138 
L 1059.271466 298.113544 
L 1060.345579 298.786992 
L 1060.882635 299.375752 
L 1061.419692 299.493691 
L 1061.956748 299.460725 
L 1062.493805 300.066423 
L 1063.030861 300.983155 
L 1063.567918 301.652704 
L 1064.104974 302.031791 
L 1065.716144 303.868588 
L 1066.2532 304.170318 
L 1066.790257 304.328703 
L 1067.327313 304.625706 
L 1067.86437 305.32939 
L 1068.401426 305.452692 
L 1068.938483 306.675235 
L 1070.012595 307.685572 
L 1070.549652 307.856662 
L 1071.086708 308.30614 
L 1072.160821 308.751433 
L 1072.697878 308.885009 
L 1073.234934 308.805212 
L 1074.309047 308.833239 
L 1075.920217 309.792212 
L 1076.457273 309.938635 
L 1076.99433 310.714763 
L 1077.531386 310.780336 
L 1078.068443 311.126386 
L 1078.605499 311.078577 
L 1079.142556 311.261376 
L 1079.679612 312.029775 
L 1080.753725 312.961999 
L 1081.290782 314.097035 
L 1081.827838 314.195816 
L 1082.364894 314.871233 
L 1082.901951 315.320793 
L 1083.439007 315.16761 
L 1084.51312 316.077478 
L 1085.050177 316.228156 
L 1085.587233 317.086801 
L 1086.661346 317.829807 
L 1087.735459 320.138927 
L 1088.809572 321.361383 
L 1089.346629 321.830174 
L 1089.883685 321.932109 
L 1090.420742 322.730374 
L 1090.957798 323.052538 
L 1091.494855 323.5417 
L 1092.031911 323.543727 
L 1092.568968 324.149949 
L 1093.106024 324.545545 
L 1093.64308 324.334804 
L 1094.180137 324.79008 
L 1094.717193 324.909496 
L 1095.791306 325.436124 
L 1096.328363 325.961298 
L 1096.865419 326.255704 
L 1097.402476 327.083161 
L 1097.939532 327.276543 
L 1098.476589 327.719917 
L 1099.013645 328.560083 
L 1100.087758 329.049797 
L 1100.624815 329.064894 
L 1102.235984 329.767883 
L 1102.773041 329.79378 
L 1103.847154 330.241748 
L 1104.38421 330.581967 
L 1104.921267 331.180512 
L 1105.995379 331.725561 
L 1106.532436 332.425495 
L 1107.069492 333.387096 
L 1107.606549 334.110508 
L 1108.143605 334.081284 
L 1108.680662 334.261567 
L 1109.217718 333.992478 
L 1110.291831 335.714578 
L 1110.828888 336.443489 
L 1111.365944 336.620795 
L 1112.440057 337.341918 
L 1114.588283 338.751361 
L 1115.12534 338.697509 
L 1115.662396 338.890494 
L 1116.199453 338.774791 
L 1116.736509 339.166326 
L 1117.273566 339.350585 
L 1117.810622 340.368434 
L 1118.347678 340.787813 
L 1118.884735 340.75213 
L 1119.421791 341.04185 
L 1119.958848 341.532577 
L 1120.495904 341.681718 
L 1121.032961 342.017708 
L 1121.570017 341.88584 
L 1122.107074 341.940316 
L 1122.64413 342.507869 
L 1123.181187 342.345213 
L 1123.718243 342.632102 
L 1124.2553 343.211429 
L 1125.329413 343.670092 
L 1125.866469 343.639891 
L 1126.940582 343.809587 
L 1127.477639 344.553237 
L 1128.014695 344.830604 
L 1129.088808 346.044527 
L 1129.625865 347.83771 
L 1130.162921 348.805092 
L 1130.699977 349.473759 
L 1131.77409 348.76204 
L 1132.311147 348.53641 
L 1133.38526 348.535379 
L 1134.459373 349.965467 
L 1134.996429 350.014065 
L 1136.070542 350.466731 
L 1136.607599 351.064083 
L 1137.681712 351.774568 
L 1138.755825 351.725945 
L 1139.292881 351.972793 
L 1140.366994 351.413561 
L 1140.904051 352.239363 
L 1141.441107 353.289552 
L 1141.978164 352.992124 
L 1142.51522 353.107959 
L 1143.589333 353.952329 
L 1144.126389 354.288758 
L 1144.663446 354.483279 
L 1145.200502 355.154851 
L 1145.737559 355.218439 
L 1146.274615 354.921383 
L 1146.811672 354.976139 
L 1147.348728 355.24188 
L 1147.885785 355.364003 
L 1148.959898 355.191945 
L 1149.496954 355.249465 
L 1150.571067 356.679667 
L 1151.64518 357.847133 
L 1152.182237 358.438453 
L 1152.719293 358.364488 
L 1153.25635 358.964202 
L 1153.793406 359.119914 
L 1154.330463 358.973909 
L 1154.867519 359.205173 
L 1155.404575 359.286478 
L 1155.941632 359.528123 
L 1156.478688 359.304154 
L 1157.015745 359.624089 
L 1157.552801 359.397721 
L 1158.626914 360.28754 
L 1159.163971 360.778251 
L 1159.701027 360.226697 
L 1160.238084 360.888154 
L 1160.77514 360.81668 
L 1161.312197 360.33713 
L 1161.849253 360.672062 
L 1162.923366 360.10698 
L 1163.460423 360.532211 
L 1163.997479 360.294114 
L 1164.534536 360.471479 
L 1165.071592 360.48544 
L 1165.608649 360.159646 
L 1166.145705 360.081876 
L 1167.219818 361.226743 
L 1167.756874 360.89832 
L 1168.293931 361.265705 
L 1168.830987 361.4565 
L 1169.368044 360.86439 
L 1169.9051 361.412781 
L 1170.442157 360.890637 
L 1170.979213 361.357265 
L 1171.51627 361.093813 
L 1172.053326 361.113167 
L 1172.590383 361.310945 
L 1173.127439 360.954012 
L 1173.664496 361.062767 
L 1174.201552 360.792063 
L 1174.738609 360.800881 
L 1176.349778 362.046228 
L 1176.886835 362.542238 
L 1177.423891 363.424865 
L 1177.960948 363.352579 
L 1178.498004 363.754441 
L 1179.03506 363.572302 
L 1179.572117 363.591598 
L 1180.109173 363.408161 
L 1180.64623 363.056774 
L 1181.183286 363.876212 
L 1181.720343 364.290513 
L 1182.257399 364.522099 
L 1182.794456 364.264528 
L 1183.331512 364.68697 
L 1183.868569 364.404482 
L 1184.405625 365.353576 
L 1184.942682 365.475091 
L 1185.479738 364.905959 
L 1186.016795 365.217992 
L 1186.553851 365.749003 
L 1187.627964 365.902768 
L 1188.165021 367.171898 
L 1188.702077 367.11178 
L 1189.239134 366.921182 
L 1189.77619 366.893479 
L 1190.313247 367.252787 
L 1190.850303 367.059419 
L 1191.387359 367.191807 
L 1191.924416 367.130212 
L 1192.998529 367.23857 
L 1193.535585 367.040819 
L 1194.072642 368.280329 
L 1194.609698 368.518557 
L 1195.146755 369.337202 
L 1198.369094 369.615107 
L 1198.90615 369.460518 
L 1199.443207 370.526024 
L 1199.980263 370.992954 
L 1200.51732 371.207365 
L 1201.054376 371.05909 
L 1201.591433 370.541339 
L 1202.128489 370.491627 
L 1202.665546 369.964831 
L 1203.202602 370.390511 
L 1203.739658 370.445701 
L 1204.276715 370.17954 
L 1204.813771 370.398285 
L 1205.350828 371.822051 
L 1206.424941 372.446118 
L 1206.961997 372.904615 
L 1207.499054 372.688873 
L 1208.03611 373.082043 
L 1210.184336 373.695971 
L 1211.258449 372.595311 
L 1212.869619 373.931905 
L 1213.943732 373.141256 
L 1214.480788 373.216263 
L 1215.017845 373.176976 
L 1215.554901 373.561639 
L 1216.629014 373.524021 
L 1217.16607 374.381602 
L 1217.703127 374.348973 
L 1218.240183 374.432941 
L 1218.77724 374.635013 
L 1219.314296 375.043968 
L 1219.851353 373.974137 
L 1220.388409 374.74672 
L 1220.925466 375.07558 
L 1221.462522 374.835676 
L 1223.073692 373.862951 
L 1223.610748 372.868729 
L 1224.147805 373.32686 
L 1224.684861 374.085594 
L 1225.221918 374.425975 
L 1225.758974 374.987175 
L 1226.296031 374.35522 
L 1226.833087 374.702197 
L 1227.370144 374.796385 
L 1228.444256 374.245233 
L 1229.518369 374.695132 
L 1230.055426 374.791917 
L 1230.592482 374.528462 
L 1231.129539 374.757682 
L 1231.666595 375.487235 
L 1232.203652 375.590677 
L 1232.740708 375.457771 
L 1233.277765 375.82852 
L 1233.814821 375.158721 
L 1234.888934 374.853231 
L 1235.425991 374.921123 
L 1235.963047 375.410709 
L 1236.500104 375.519239 
L 1237.03716 376.30252 
L 1237.574217 376.558269 
L 1238.111273 376.535315 
L 1238.64833 376.394045 
L 1239.185386 375.96748 
L 1239.722443 376.369527 
L 1240.259499 376.916471 
L 1240.796555 376.488276 
L 1241.333612 378.277874 
L 1241.870668 378.838003 
L 1242.407725 378.268476 
L 1242.944781 378.114112 
L 1243.481838 377.823022 
L 1244.555951 379.4 
L 1245.093007 379.254162 
L 1245.630064 380.134261 
L 1246.16712 379.842094 
L 1246.704177 379.842094 
L 1247.241233 379.993603 
L 1247.77829 379.849947 
L 1248.315346 380.907857 
L 1248.852403 380.907857 
L 1249.389459 380.610609 
L 1249.926516 380.160721 
L 1250.463572 380.160721 
L 1251.000629 381.235652 
L 1251.537685 381.702909 
L 1252.074741 381.553297 
L 1252.611798 381.573088 
L 1253.148854 382.22513 
L 1253.685911 382.098271 
L 1254.760024 383.078258 
L 1255.29708 382.771179 
L 1255.834137 382.771179 
L 1256.371193 383.920688 
L 1256.90825 383.767586 
L 1257.445306 384.271538 
L 1258.519419 383.964324 
L 1259.056476 383.654729 
L 1259.593532 383.028281 
L 1260.130589 382.711373 
L 1261.204702 382.391969 
L 1261.741758 383.064063 
L 1262.278815 382.904427 
L 1262.815871 382.583254 
L 1263.352928 382.583254 
L 1263.889984 383.261074 
L 1264.42704 383.261074 
L 1265.501153 382.61515 
L 1266.03821 382.123871 
L 1266.575266 382.123871 
L 1267.112323 382.647692 
L 1267.649379 382.846531 
L 1268.186436 382.51459 
L 1268.723492 382.011546 
L 1269.797605 381.696485 
L 1270.334662 381.003291 
L 1270.871718 381.372059 
L 1271.945831 382.647692 
L 1272.482888 382.473833 
L 1273.019944 382.473833 
L 1273.557001 381.947759 
L 1274.631114 381.947759 
L 1275.16817 381.593247 
L 1275.705227 381.593247 
L 1276.779339 380.874934 
L 1277.316396 380.693392 
L 1277.853452 382.003877 
L 1278.390509 382.755232 
L 1278.927565 382.575841 
L 1279.464622 382.032873 
L 1280.001678 382.032873 
L 1280.538735 381.850268 
L 1281.075791 383.964324 
L 1281.612848 383.964324 
L 1282.149904 384.737065 
L 1282.686961 384.378322 
L 1283.224017 384.378322 
L 1283.761074 384.197727 
L 1284.29813 385.223448 
L 1284.835187 385.291163 
L 1286.983413 384.553615 
L 1287.520469 384.553615 
L 1288.057526 384.179623 
L 1288.594582 384.802559 
L 1289.668695 384.04622 
L 1290.205751 384.04622 
L 1290.742808 384.486747 
L 1291.279864 385.124746 
L 1291.816921 384.933689 
L 1292.353977 384.54878 
L 1292.891034 384.354914 
L 1293.42809 385.001671 
L 1293.965147 385.461287 
L 1294.502203 385.266799 
L 1295.03926 384.874913 
L 1295.576316 384.6775 
L 1296.113373 386.401307 
L 1296.650429 386.401307 
L 1297.187486 386.206247 
L 1297.724542 386.206247 
L 1298.261599 385.416081 
L 1298.798655 383.993886 
L 1299.335712 383.993886 
L 1299.872768 383.786494 
L 1300.409825 383.786494 
L 1300.946881 383.157801 
L 1301.483937 382.733158 
L 1302.55805 382.733158 
L 1303.095107 383.63314 
L 1303.632163 383.689733 
L 1304.16922 383.041617 
L 1304.706276 382.603686 
L 1305.243333 382.382935 
L 1305.780389 381.937814 
L 1306.317446 381.032818 
L 1306.854502 380.803435 
L 1307.391559 382.466257 
L 1307.928615 382.009101 
L 1308.465672 382.278636 
L 1309.002728 383.018857 
L 1309.539785 382.787278 
L 1310.076841 382.320115 
L 1310.613898 382.084509 
L 1311.150954 381.609186 
L 1311.688011 382.60035 
L 1312.225067 382.362807 
L 1312.762124 384.367059 
L 1313.29918 384.367059 
L 1314.373293 383.420952 
L 1315.447406 382.939401 
L 1315.984462 383.964324 
L 1316.521519 383.723735 
L 1317.058575 383.723735 
L 1317.595632 383.481692 
L 1318.669745 383.481692 
L 1319.206801 384.517576 
L 1319.743858 384.276474 
L 1320.280914 384.839387 
L 1320.817971 384.596308 
L 1321.355027 384.596308 
L 1321.892084 383.858012 
L 1322.42914 383.858012 
L 1322.966197 384.429342 
L 1323.503253 384.179623 
L 1324.04031 384.509427 
L 1324.577366 384.255974 
L 1325.114423 383.74418 
L 1325.651479 383.485806 
L 1326.188535 383.485806 
L 1326.725592 383.225761 
L 1327.262648 382.700586 
L 1328.336761 382.700586 
L 1328.873818 382.435425 
L 1329.947931 381.357219 
L 1330.484987 381.083189 
L 1331.022044 381.941672 
L 1331.5591 381.941672 
L 1332.096157 381.666846 
L 1332.633213 382.537973 
L 1333.17027 382.262373 
L 1333.707326 383.420952 
L 1334.244383 383.420952 
L 1334.781439 385.223448 
L 1335.318496 384.6775 
L 1335.855552 385.60014 
L 1337.466721 384.770742 
L 1338.003778 384.770742 
L 1338.540834 384.490355 
L 1339.077891 383.637133 
L 1340.152004 383.637133 
L 1340.68906 383.348633 
L 1341.763173 382.173577 
L 1342.30023 382.827454 
L 1343.374343 382.22513 
L 1343.911399 382.22513 
L 1344.448456 383.195056 
L 1344.985512 383.195056 
L 1345.522569 384.479098 
L 1347.133738 384.479098 
L 1347.670795 385.77283 
L 1348.207851 385.477121 
L 1349.81902 385.477121 
L 1350.893133 384.271538 
L 1351.43019 384.271538 
L 1351.967246 383.964324 
L 1353.578416 383.964324 
L 1354.115472 383.654729 
L 1354.652529 383.654729 
L 1355.189585 383.342724 
L 1355.726642 382.711373 
L 1356.263698 384.054173 
L 1357.874868 384.054173 
L 1358.948981 386.464701 
L 1359.486037 385.843213 
L 1360.56015 385.21166 
L 1361.097207 385.21166 
L 1362.171319 384.569796 
L 1362.708376 383.917366 
L 1363.245432 383.917366 
L 1363.782489 383.587107 
L 1364.319545 382.238319 
L 1364.856602 381.894008 
L 1365.393658 381.894008 
L 1365.930715 381.196596 
L 1366.467771 380.843419 
L 1368.615997 380.843419 
L 1369.153054 380.48721 
L 1370.227167 382.718603 
L 1370.764223 382.718603 
L 1371.30128 382.003877 
L 1371.838336 382.003877 
L 1372.375393 383.152889 
L 1372.375393 383.152889 
" style="fill:none;stroke:#ff0000;stroke-linecap:square;stroke-width:1.5;"/>
   </g>
   <g id="line2d_35">
    <path clip-path="url(#pa40ff1a2a4)" d="M 835.855971 192.518899 
L 838.004197 192.627393 
L 841.763592 193.232804 
L 845.522988 194.627961 
L 847.134157 195.412024 
L 848.745327 196.265302 
L 849.81944 197.116724 
L 850.893552 198.047646 
L 853.041778 199.790048 
L 857.875287 205.13015 
L 859.486456 207.334549 
L 860.560569 208.594767 
L 863.245851 212.115724 
L 864.319964 213.442624 
L 865.931134 215.915795 
L 867.542303 218.575781 
L 868.07936 219.304214 
L 873.986981 229.813253 
L 875.59815 232.91372 
L 877.20932 235.952233 
L 885.802224 253.92836 
L 887.413393 257.635434 
L 889.024562 261.043871 
L 890.635732 264.834809 
L 894.395127 272.766048 
L 894.932184 274.028536 
L 897.617466 278.698071 
L 900.302748 283.683506 
L 902.988031 287.902614 
L 905.136257 291.359728 
L 907.821539 295.490789 
L 908.358596 296.362215 
L 908.895652 297.450346 
L 909.969765 298.99796 
L 911.580934 301.28658 
L 912.655047 303.198833 
L 913.72916 304.518559 
L 914.266217 305.096407 
L 916.414443 308.468297 
L 919.636782 313.752954 
L 920.710895 315.316799 
L 921.785008 317.073595 
L 922.859121 318.826265 
L 925.544403 322.852379 
L 926.618516 324.633485 
L 928.229685 327.195569 
L 930.914968 331.760522 
L 933.063194 335.127933 
L 935.211419 338.650461 
L 936.285532 340.61654 
L 938.970815 345.452305 
L 941.119041 349.2852 
L 944.34138 355.288132 
L 946.489606 359.572249 
L 950.249001 367.397654 
L 951.86017 370.78026 
L 955.619566 379.298924 
L 961.527187 393.228429 
L 962.6013 395.593229 
L 964.749526 400.083499 
L 966.360695 403.317296 
L 972.805373 415.563632 
L 978.712994 425.097759 
L 981.935333 429.372459 
L 986.231785 434.311129 
L 986.768841 435.082544 
L 988.917067 437.303842 
L 989.454124 437.932105 
L 991.065293 439.373241 
L 992.139406 440.393474 
L 996.972914 444.452243 
L 1000.195253 446.606157 
L 1001.806423 447.673024 
L 1002.880536 448.367275 
L 1004.491705 449.13496 
L 1006.102875 449.824809 
L 1007.714044 450.60941 
L 1009.325213 451.323951 
L 1010.399326 451.723428 
L 1012.010496 452.374332 
L 1014.158722 452.980606 
L 1021.140456 455.08941 
L 1023.825738 455.678703 
L 1025.436908 456.166929 
L 1028.12219 456.607041 
L 1035.640981 457.919557 
L 1046.38211 459.276652 
L 1063.567918 460.923995 
L 1068.401426 461.237983 
L 1070.549652 461.372235 
L 1076.99433 461.64704 
L 1085.050177 461.970216 
L 1090.957798 462.262289 
L 1103.847154 462.589788 
L 1136.607599 463.202996 
L 1168.830987 463.454906 
L 1186.553851 463.535712 
L 1297.724542 463.766748 
L 1358.411924 463.792353 
L 1372.375393 463.795155 
L 1372.375393 463.795155 
" style="fill:none;stroke:#008000;stroke-linecap:square;stroke-width:1.5;"/>
   </g>
   <g id="line2d_36">
    <path clip-path="url(#pa40ff1a2a4)" d="M 836.393028 463.84 
L 836.393028 41.64 
" style="fill:none;stroke:#1f77b4;stroke-linecap:square;stroke-width:1.5;"/>
   </g>
   <g id="patch_9">
    <path d="M 809.03 463.84 
L 809.03 41.64 
" style="fill:none;stroke:#000000;stroke-linecap:square;stroke-linejoin:miter;stroke-width:0.8;"/>
   </g>
   <g id="patch_10">
    <path d="M 1399.201364 463.84 
L 1399.201364 41.64 
" style="fill:none;stroke:#000000;stroke-linecap:square;stroke-linejoin:miter;stroke-width:0.8;"/>
   </g>
   <g id="patch_11">
    <path d="M 809.03 463.84 
L 1399.201364 463.84 
" style="fill:none;stroke:#000000;stroke-linecap:square;stroke-linejoin:miter;stroke-width:0.8;"/>
   </g>
   <g id="patch_12">
    <path d="M 809.03 41.64 
L 1399.201364 41.64 
" style="fill:none;stroke:#000000;stroke-linecap:square;stroke-linejoin:miter;stroke-width:0.8;"/>
   </g>
   <g id="text_31">
    <!-- Purity/Efficiency vs dedxV Cutoff — Photon -->
    <defs>
     <path d="M 54.890625 33.015625 
L 54.890625 0 
L 45.90625 0 
L 45.90625 32.71875 
Q 45.90625 40.484375 42.875 44.328125 
Q 39.84375 48.1875 33.796875 48.1875 
Q 26.515625 48.1875 22.3125 43.546875 
Q 18.109375 38.921875 18.109375 30.90625 
L 18.109375 0 
L 9.078125 0 
L 9.078125 75.984375 
L 18.109375 75.984375 
L 18.109375 46.1875 
Q 21.34375 51.125 25.703125 53.5625 
Q 30.078125 56 35.796875 56 
Q 45.21875 56 50.046875 50.171875 
Q 54.890625 44.34375 54.890625 33.015625 
z
" id="DejaVuSans-104"/>
    </defs>
    <g transform="translate(825.896882 35.64)scale(0.2592 -0.2592)">
     <use xlink:href="#DejaVuSans-80"/>
     <use x="60.287109" xlink:href="#DejaVuSans-117"/>
     <use x="123.666016" xlink:href="#DejaVuSans-114"/>
     <use x="164.779297" xlink:href="#DejaVuSans-105"/>
     <use x="192.5625" xlink:href="#DejaVuSans-116"/>
     <use x="231.771484" xlink:href="#DejaVuSans-121"/>
     <use x="290.951172" xlink:href="#DejaVuSans-47"/>
     <use x="324.642578" xlink:href="#DejaVuSans-69"/>
     <use x="387.826172" xlink:href="#DejaVuSans-102"/>
     <use x="423.03125" xlink:href="#DejaVuSans-102"/>
     <use x="458.236328" xlink:href="#DejaVuSans-105"/>
     <use x="486.019531" xlink:href="#DejaVuSans-99"/>
     <use x="541" xlink:href="#DejaVuSans-105"/>
     <use x="568.783203" xlink:href="#DejaVuSans-101"/>
     <use x="630.306641" xlink:href="#DejaVuSans-110"/>
     <use x="693.685547" xlink:href="#DejaVuSans-99"/>
     <use x="748.666016" xlink:href="#DejaVuSans-121"/>
     <use x="807.845703" xlink:href="#DejaVuSans-32"/>
     <use x="839.632812" xlink:href="#DejaVuSans-118"/>
     <use x="898.8125" xlink:href="#DejaVuSans-115"/>
     <use x="950.912109" xlink:href="#DejaVuSans-32"/>
     <use x="982.699219" xlink:href="#DejaVuSans-100"/>
     <use x="1046.175781" xlink:href="#DejaVuSans-101"/>
     <use x="1107.699219" xlink:href="#DejaVuSans-100"/>
     <use x="1171.175781" xlink:href="#DejaVuSans-120"/>
     <use x="1230.355469" xlink:href="#DejaVuSans-86"/>
     <use x="1298.763672" xlink:href="#DejaVuSans-32"/>
     <use x="1330.550781" xlink:href="#DejaVuSans-67"/>
     <use x="1400.375" xlink:href="#DejaVuSans-117"/>
     <use x="1463.753906" xlink:href="#DejaVuSans-116"/>
     <use x="1502.962891" xlink:href="#DejaVuSans-111"/>
     <use x="1564.144531" xlink:href="#DejaVuSans-102"/>
     <use x="1599.349609" xlink:href="#DejaVuSans-102"/>
     <use x="1634.554688" xlink:href="#DejaVuSans-32"/>
     <use x="1666.341797" xlink:href="#DejaVuSans-8212"/>
     <use x="1766.341797" xlink:href="#DejaVuSans-32"/>
     <use x="1798.128906" xlink:href="#DejaVuSans-80"/>
     <use x="1858.431641" xlink:href="#DejaVuSans-104"/>
     <use x="1921.810547" xlink:href="#DejaVuSans-111"/>
     <use x="1982.992188" xlink:href="#DejaVuSans-116"/>
     <use x="2022.201172" xlink:href="#DejaVuSans-111"/>
     <use x="2083.382812" xlink:href="#DejaVuSans-110"/>
    </g>
   </g>
   <g id="legend_2">
    <g id="patch_13">
     <path d="M 995.420994 454.84 
L 1212.810369 454.84 
Q 1216.410369 454.84 1216.410369 451.24 
L 1216.410369 373.778125 
Q 1216.410369 370.178125 1212.810369 370.178125 
L 995.420994 370.178125 
Q 991.820994 370.178125 991.820994 373.778125 
L 991.820994 451.24 
Q 991.820994 454.84 995.420994 454.84 
z
" style="fill:#ffffff;opacity:0.8;stroke:#cccccc;stroke-linejoin:miter;"/>
    </g>
    <g id="line2d_37">
     <path d="M 999.020994 384.755313 
L 1035.020994 384.755313 
" style="fill:none;stroke:#0000ff;stroke-linecap:square;stroke-width:1.5;"/>
    </g>
    <g id="line2d_38"/>
    <g id="text_32">
     <!-- Efficiency -->
     <g transform="translate(1049.420994 391.055313)scale(0.18 -0.18)">
      <use xlink:href="#DejaVuSans-69"/>
      <use x="63.183594" xlink:href="#DejaVuSans-102"/>
      <use x="98.388672" xlink:href="#DejaVuSans-102"/>
      <use x="133.59375" xlink:href="#DejaVuSans-105"/>
      <use x="161.376953" xlink:href="#DejaVuSans-99"/>
      <use x="216.357422" xlink:href="#DejaVuSans-105"/>
      <use x="244.140625" xlink:href="#DejaVuSans-101"/>
      <use x="305.664062" xlink:href="#DejaVuSans-110"/>
      <use x="369.042969" xlink:href="#DejaVuSans-99"/>
      <use x="424.023438" xlink:href="#DejaVuSans-121"/>
     </g>
    </g>
    <g id="line2d_39">
     <path d="M 999.020994 411.175937 
L 1035.020994 411.175937 
" style="fill:none;stroke:#ff0000;stroke-linecap:square;stroke-width:1.5;"/>
    </g>
    <g id="line2d_40"/>
    <g id="text_33">
     <!-- Purity -->
     <g transform="translate(1049.420994 417.475937)scale(0.18 -0.18)">
      <use xlink:href="#DejaVuSans-80"/>
      <use x="60.287109" xlink:href="#DejaVuSans-117"/>
      <use x="123.666016" xlink:href="#DejaVuSans-114"/>
      <use x="164.779297" xlink:href="#DejaVuSans-105"/>
      <use x="192.5625" xlink:href="#DejaVuSans-116"/>
      <use x="231.771484" xlink:href="#DejaVuSans-121"/>
     </g>
    </g>
    <g id="line2d_41">
     <path d="M 999.020994 437.596562 
L 1035.020994 437.596562 
" style="fill:none;stroke:#008000;stroke-linecap:square;stroke-width:1.5;"/>
    </g>
    <g id="line2d_42"/>
    <g id="text_34">
     <!-- Purity * Efficiency -->
     <g transform="translate(1049.420994 443.896562)scale(0.18 -0.18)">
      <use xlink:href="#DejaVuSans-80"/>
      <use x="60.287109" xlink:href="#DejaVuSans-117"/>
      <use x="123.666016" xlink:href="#DejaVuSans-114"/>
      <use x="164.779297" xlink:href="#DejaVuSans-105"/>
      <use x="192.5625" xlink:href="#DejaVuSans-116"/>
      <use x="231.771484" xlink:href="#DejaVuSans-121"/>
      <use x="290.951172" xlink:href="#DejaVuSans-32"/>
      <use x="322.738281" xlink:href="#DejaVuSans-42"/>
      <use x="372.738281" xlink:href="#DejaVuSans-32"/>
      <use x="404.525391" xlink:href="#DejaVuSans-69"/>
      <use x="467.708984" xlink:href="#DejaVuSans-102"/>
      <use x="502.914062" xlink:href="#DejaVuSans-102"/>
      <use x="538.119141" xlink:href="#DejaVuSans-105"/>
      <use x="565.902344" xlink:href="#DejaVuSans-99"/>
      <use x="620.882812" xlink:href="#DejaVuSans-105"/>
      <use x="648.666016" xlink:href="#DejaVuSans-101"/>
      <use x="710.189453" xlink:href="#DejaVuSans-110"/>
      <use x="773.568359" xlink:href="#DejaVuSans-99"/>
      <use x="828.548828" xlink:href="#DejaVuSans-121"/>
     </g>
    </g>
   </g>
  </g>
 </g>
 <defs>
  <clipPath id="p4f4fed71bd">
   <rect height="422.2" width="590.171364" x="92.99" y="41.64"/>
  </clipPath>
  <clipPath id="pa40ff1a2a4">
   <rect height="422.2" width="590.171364" x="809.03" y="41.64"/>
  </clipPath>
 </defs>
</svg>
