<?xml version="1.0" encoding="utf-8" standalone="no"?>
<!DOCTYPE svg PUBLIC "-//W3C//DTD SVG 1.1//EN"
  "http://www.w3.org/Graphics/SVG/1.1/DTD/svg11.dtd">
<!-- Created with matplotlib (https://matplotlib.org/) -->
<svg height="540pt" version="1.1" viewBox="0 0 1440 540" width="1440pt" xmlns="http://www.w3.org/2000/svg" xmlns:xlink="http://www.w3.org/1999/xlink">
 <defs>
  <style type="text/css">
*{stroke-linecap:butt;stroke-linejoin:round;}
  </style>
 </defs>
 <g id="figure_1">
  <g id="patch_1">
   <path d="M 0 540 
L 1440 540 
L 1440 0 
L 0 0 
z
" style="fill:#ffffff;"/>
  </g>
  <g id="axes_1">
   <g id="patch_2">
    <path d="M 92.99 463.84 
L 665.656364 463.84 
L 665.656364 41.64 
L 92.99 41.64 
z
" style="fill:#ffffff;"/>
   </g>
   <g id="matplotlib.axis_1">
    <g id="xtick_1">
     <g id="line2d_1">
      <defs>
       <path d="M 0 0 
L 0 3.5 
" id="m95102f6942" style="stroke:#000000;stroke-width:0.8;"/>
      </defs>
      <g>
       <use style="stroke:#000000;stroke-width:0.8;" x="119.020289" xlink:href="#m95102f6942" y="463.84"/>
      </g>
     </g>
     <g id="text_1">
      <!-- −5.0 -->
      <defs>
       <path d="M 10.59375 35.5 
L 73.1875 35.5 
L 73.1875 27.203125 
L 10.59375 27.203125 
z
" id="DejaVuSans-8722"/>
       <path d="M 10.796875 72.90625 
L 49.515625 72.90625 
L 49.515625 64.59375 
L 19.828125 64.59375 
L 19.828125 46.734375 
Q 21.96875 47.46875 24.109375 47.828125 
Q 26.265625 48.1875 28.421875 48.1875 
Q 40.625 48.1875 47.75 41.5 
Q 54.890625 34.8125 54.890625 23.390625 
Q 54.890625 11.625 47.5625 5.09375 
Q 40.234375 -1.421875 26.90625 -1.421875 
Q 22.3125 -1.421875 17.546875 -0.640625 
Q 12.796875 0.140625 7.71875 1.703125 
L 7.71875 11.625 
Q 12.109375 9.234375 16.796875 8.0625 
Q 21.484375 6.890625 26.703125 6.890625 
Q 35.15625 6.890625 40.078125 11.328125 
Q 45.015625 15.765625 45.015625 23.390625 
Q 45.015625 31 40.078125 35.4375 
Q 35.15625 39.890625 26.703125 39.890625 
Q 22.75 39.890625 18.8125 39.015625 
Q 14.890625 38.140625 10.796875 36.28125 
z
" id="DejaVuSans-53"/>
       <path d="M 10.6875 12.40625 
L 21 12.40625 
L 21 0 
L 10.6875 0 
z
" id="DejaVuSans-46"/>
       <path d="M 31.78125 66.40625 
Q 24.171875 66.40625 20.328125 58.90625 
Q 16.5 51.421875 16.5 36.375 
Q 16.5 21.390625 20.328125 13.890625 
Q 24.171875 6.390625 31.78125 6.390625 
Q 39.453125 6.390625 43.28125 13.890625 
Q 47.125 21.390625 47.125 36.375 
Q 47.125 51.421875 43.28125 58.90625 
Q 39.453125 66.40625 31.78125 66.40625 
z
M 31.78125 74.21875 
Q 44.046875 74.21875 50.515625 64.515625 
Q 56.984375 54.828125 56.984375 36.375 
Q 56.984375 17.96875 50.515625 8.265625 
Q 44.046875 -1.421875 31.78125 -1.421875 
Q 19.53125 -1.421875 13.0625 8.265625 
Q 6.59375 17.96875 6.59375 36.375 
Q 6.59375 54.828125 13.0625 64.515625 
Q 19.53125 74.21875 31.78125 74.21875 
z
" id="DejaVuSans-48"/>
      </defs>
      <g transform="translate(87.549764 490.53515)scale(0.2592 -0.2592)">
       <use xlink:href="#DejaVuSans-8722"/>
       <use x="83.789062" xlink:href="#DejaVuSans-53"/>
       <use x="147.412109" xlink:href="#DejaVuSans-46"/>
       <use x="179.199219" xlink:href="#DejaVuSans-48"/>
      </g>
     </g>
    </g>
    <g id="xtick_2">
     <g id="line2d_2">
      <g>
       <use style="stroke:#000000;stroke-width:0.8;" x="205.78792" xlink:href="#m95102f6942" y="463.84"/>
      </g>
     </g>
     <g id="text_2">
      <!-- −2.5 -->
      <defs>
       <path d="M 19.1875 8.296875 
L 53.609375 8.296875 
L 53.609375 0 
L 7.328125 0 
L 7.328125 8.296875 
Q 12.9375 14.109375 22.625 23.890625 
Q 32.328125 33.6875 34.8125 36.53125 
Q 39.546875 41.84375 41.421875 45.53125 
Q 43.3125 49.21875 43.3125 52.78125 
Q 43.3125 58.59375 39.234375 62.25 
Q 35.15625 65.921875 28.609375 65.921875 
Q 23.96875 65.921875 18.8125 64.3125 
Q 13.671875 62.703125 7.8125 59.421875 
L 7.8125 69.390625 
Q 13.765625 71.78125 18.9375 73 
Q 24.125 74.21875 28.421875 74.21875 
Q 39.75 74.21875 46.484375 68.546875 
Q 53.21875 62.890625 53.21875 53.421875 
Q 53.21875 48.921875 51.53125 44.890625 
Q 49.859375 40.875 45.40625 35.40625 
Q 44.1875 33.984375 37.640625 27.21875 
Q 31.109375 20.453125 19.1875 8.296875 
z
" id="DejaVuSans-50"/>
      </defs>
      <g transform="translate(174.317395 490.53515)scale(0.2592 -0.2592)">
       <use xlink:href="#DejaVuSans-8722"/>
       <use x="83.789062" xlink:href="#DejaVuSans-50"/>
       <use x="147.412109" xlink:href="#DejaVuSans-46"/>
       <use x="179.199219" xlink:href="#DejaVuSans-53"/>
      </g>
     </g>
    </g>
    <g id="xtick_3">
     <g id="line2d_3">
      <g>
       <use style="stroke:#000000;stroke-width:0.8;" x="292.555551" xlink:href="#m95102f6942" y="463.84"/>
      </g>
     </g>
     <g id="text_3">
      <!-- 0.0 -->
      <g transform="translate(271.945101 490.53515)scale(0.2592 -0.2592)">
       <use xlink:href="#DejaVuSans-48"/>
       <use x="63.623047" xlink:href="#DejaVuSans-46"/>
       <use x="95.410156" xlink:href="#DejaVuSans-48"/>
      </g>
     </g>
    </g>
    <g id="xtick_4">
     <g id="line2d_4">
      <g>
       <use style="stroke:#000000;stroke-width:0.8;" x="379.323182" xlink:href="#m95102f6942" y="463.84"/>
      </g>
     </g>
     <g id="text_4">
      <!-- 2.5 -->
      <g transform="translate(358.712732 490.53515)scale(0.2592 -0.2592)">
       <use xlink:href="#DejaVuSans-50"/>
       <use x="63.623047" xlink:href="#DejaVuSans-46"/>
       <use x="95.410156" xlink:href="#DejaVuSans-53"/>
      </g>
     </g>
    </g>
    <g id="xtick_5">
     <g id="line2d_5">
      <g>
       <use style="stroke:#000000;stroke-width:0.8;" x="466.090813" xlink:href="#m95102f6942" y="463.84"/>
      </g>
     </g>
     <g id="text_5">
      <!-- 5.0 -->
      <g transform="translate(445.480363 490.53515)scale(0.2592 -0.2592)">
       <use xlink:href="#DejaVuSans-53"/>
       <use x="63.623047" xlink:href="#DejaVuSans-46"/>
       <use x="95.410156" xlink:href="#DejaVuSans-48"/>
      </g>
     </g>
    </g>
    <g id="xtick_6">
     <g id="line2d_6">
      <g>
       <use style="stroke:#000000;stroke-width:0.8;" x="552.858444" xlink:href="#m95102f6942" y="463.84"/>
      </g>
     </g>
     <g id="text_6">
      <!-- 7.5 -->
      <defs>
       <path d="M 8.203125 72.90625 
L 55.078125 72.90625 
L 55.078125 68.703125 
L 28.609375 0 
L 18.3125 0 
L 43.21875 64.59375 
L 8.203125 64.59375 
z
" id="DejaVuSans-55"/>
      </defs>
      <g transform="translate(532.247994 490.53515)scale(0.2592 -0.2592)">
       <use xlink:href="#DejaVuSans-55"/>
       <use x="63.623047" xlink:href="#DejaVuSans-46"/>
       <use x="95.410156" xlink:href="#DejaVuSans-53"/>
      </g>
     </g>
    </g>
    <g id="xtick_7">
     <g id="line2d_7">
      <g>
       <use style="stroke:#000000;stroke-width:0.8;" x="639.626074" xlink:href="#m95102f6942" y="463.84"/>
      </g>
     </g>
     <g id="text_7">
      <!-- 10.0 -->
      <defs>
       <path d="M 12.40625 8.296875 
L 28.515625 8.296875 
L 28.515625 63.921875 
L 10.984375 60.40625 
L 10.984375 69.390625 
L 28.421875 72.90625 
L 38.28125 72.90625 
L 38.28125 8.296875 
L 54.390625 8.296875 
L 54.390625 0 
L 12.40625 0 
z
" id="DejaVuSans-49"/>
      </defs>
      <g transform="translate(610.769824 490.53515)scale(0.2592 -0.2592)">
       <use xlink:href="#DejaVuSans-49"/>
       <use x="63.623047" xlink:href="#DejaVuSans-48"/>
       <use x="127.246094" xlink:href="#DejaVuSans-46"/>
       <use x="159.033203" xlink:href="#DejaVuSans-48"/>
      </g>
     </g>
    </g>
    <g id="text_8">
     <!-- BDTMulti Cutoff -->
     <defs>
      <path d="M 19.671875 34.8125 
L 19.671875 8.109375 
L 35.5 8.109375 
Q 43.453125 8.109375 47.28125 11.40625 
Q 51.125 14.703125 51.125 21.484375 
Q 51.125 28.328125 47.28125 31.5625 
Q 43.453125 34.8125 35.5 34.8125 
z
M 19.671875 64.796875 
L 19.671875 42.828125 
L 34.28125 42.828125 
Q 41.5 42.828125 45.03125 45.53125 
Q 48.578125 48.25 48.578125 53.8125 
Q 48.578125 59.328125 45.03125 62.0625 
Q 41.5 64.796875 34.28125 64.796875 
z
M 9.8125 72.90625 
L 35.015625 72.90625 
Q 46.296875 72.90625 52.390625 68.21875 
Q 58.5 63.53125 58.5 54.890625 
Q 58.5 48.1875 55.375 44.234375 
Q 52.25 40.28125 46.1875 39.3125 
Q 53.46875 37.75 57.5 32.78125 
Q 61.53125 27.828125 61.53125 20.40625 
Q 61.53125 10.640625 54.890625 5.3125 
Q 48.25 0 35.984375 0 
L 9.8125 0 
z
" id="DejaVuSans-66"/>
      <path d="M 19.671875 64.796875 
L 19.671875 8.109375 
L 31.59375 8.109375 
Q 46.6875 8.109375 53.6875 14.9375 
Q 60.6875 21.78125 60.6875 36.53125 
Q 60.6875 51.171875 53.6875 57.984375 
Q 46.6875 64.796875 31.59375 64.796875 
z
M 9.8125 72.90625 
L 30.078125 72.90625 
Q 51.265625 72.90625 61.171875 64.09375 
Q 71.09375 55.28125 71.09375 36.53125 
Q 71.09375 17.671875 61.125 8.828125 
Q 51.171875 0 30.078125 0 
L 9.8125 0 
z
" id="DejaVuSans-68"/>
      <path d="M -0.296875 72.90625 
L 61.375 72.90625 
L 61.375 64.59375 
L 35.5 64.59375 
L 35.5 0 
L 25.59375 0 
L 25.59375 64.59375 
L -0.296875 64.59375 
z
" id="DejaVuSans-84"/>
      <path d="M 9.8125 72.90625 
L 24.515625 72.90625 
L 43.109375 23.296875 
L 61.8125 72.90625 
L 76.515625 72.90625 
L 76.515625 0 
L 66.890625 0 
L 66.890625 64.015625 
L 48.09375 14.015625 
L 38.1875 14.015625 
L 19.390625 64.015625 
L 19.390625 0 
L 9.8125 0 
z
" id="DejaVuSans-77"/>
      <path d="M 8.5 21.578125 
L 8.5 54.6875 
L 17.484375 54.6875 
L 17.484375 21.921875 
Q 17.484375 14.15625 20.5 10.265625 
Q 23.53125 6.390625 29.59375 6.390625 
Q 36.859375 6.390625 41.078125 11.03125 
Q 45.3125 15.671875 45.3125 23.6875 
L 45.3125 54.6875 
L 54.296875 54.6875 
L 54.296875 0 
L 45.3125 0 
L 45.3125 8.40625 
Q 42.046875 3.421875 37.71875 1 
Q 33.40625 -1.421875 27.6875 -1.421875 
Q 18.265625 -1.421875 13.375 4.4375 
Q 8.5 10.296875 8.5 21.578125 
z
M 31.109375 56 
z
" id="DejaVuSans-117"/>
      <path d="M 9.421875 75.984375 
L 18.40625 75.984375 
L 18.40625 0 
L 9.421875 0 
z
" id="DejaVuSans-108"/>
      <path d="M 18.3125 70.21875 
L 18.3125 54.6875 
L 36.8125 54.6875 
L 36.8125 47.703125 
L 18.3125 47.703125 
L 18.3125 18.015625 
Q 18.3125 11.328125 20.140625 9.421875 
Q 21.96875 7.515625 27.59375 7.515625 
L 36.8125 7.515625 
L 36.8125 0 
L 27.59375 0 
Q 17.1875 0 13.234375 3.875 
Q 9.28125 7.765625 9.28125 18.015625 
L 9.28125 47.703125 
L 2.6875 47.703125 
L 2.6875 54.6875 
L 9.28125 54.6875 
L 9.28125 70.21875 
z
" id="DejaVuSans-116"/>
      <path d="M 9.421875 54.6875 
L 18.40625 54.6875 
L 18.40625 0 
L 9.421875 0 
z
M 9.421875 75.984375 
L 18.40625 75.984375 
L 18.40625 64.59375 
L 9.421875 64.59375 
z
" id="DejaVuSans-105"/>
      <path id="DejaVuSans-32"/>
      <path d="M 64.40625 67.28125 
L 64.40625 56.890625 
Q 59.421875 61.53125 53.78125 63.8125 
Q 48.140625 66.109375 41.796875 66.109375 
Q 29.296875 66.109375 22.65625 58.46875 
Q 16.015625 50.828125 16.015625 36.375 
Q 16.015625 21.96875 22.65625 14.328125 
Q 29.296875 6.6875 41.796875 6.6875 
Q 48.140625 6.6875 53.78125 8.984375 
Q 59.421875 11.28125 64.40625 15.921875 
L 64.40625 5.609375 
Q 59.234375 2.09375 53.4375 0.328125 
Q 47.65625 -1.421875 41.21875 -1.421875 
Q 24.65625 -1.421875 15.125 8.703125 
Q 5.609375 18.84375 5.609375 36.375 
Q 5.609375 53.953125 15.125 64.078125 
Q 24.65625 74.21875 41.21875 74.21875 
Q 47.75 74.21875 53.53125 72.484375 
Q 59.328125 70.75 64.40625 67.28125 
z
" id="DejaVuSans-67"/>
      <path d="M 30.609375 48.390625 
Q 23.390625 48.390625 19.1875 42.75 
Q 14.984375 37.109375 14.984375 27.296875 
Q 14.984375 17.484375 19.15625 11.84375 
Q 23.34375 6.203125 30.609375 6.203125 
Q 37.796875 6.203125 41.984375 11.859375 
Q 46.1875 17.53125 46.1875 27.296875 
Q 46.1875 37.015625 41.984375 42.703125 
Q 37.796875 48.390625 30.609375 48.390625 
z
M 30.609375 56 
Q 42.328125 56 49.015625 48.375 
Q 55.71875 40.765625 55.71875 27.296875 
Q 55.71875 13.875 49.015625 6.21875 
Q 42.328125 -1.421875 30.609375 -1.421875 
Q 18.84375 -1.421875 12.171875 6.21875 
Q 5.515625 13.875 5.515625 27.296875 
Q 5.515625 40.765625 12.171875 48.375 
Q 18.84375 56 30.609375 56 
z
" id="DejaVuSans-111"/>
      <path d="M 37.109375 75.984375 
L 37.109375 68.5 
L 28.515625 68.5 
Q 23.6875 68.5 21.796875 66.546875 
Q 19.921875 64.59375 19.921875 59.515625 
L 19.921875 54.6875 
L 34.71875 54.6875 
L 34.71875 47.703125 
L 19.921875 47.703125 
L 19.921875 0 
L 10.890625 0 
L 10.890625 47.703125 
L 2.296875 47.703125 
L 2.296875 54.6875 
L 10.890625 54.6875 
L 10.890625 58.5 
Q 10.890625 67.625 15.140625 71.796875 
Q 19.390625 75.984375 28.609375 75.984375 
z
" id="DejaVuSans-102"/>
     </defs>
     <g transform="translate(277.342157 519.62085)scale(0.2592 -0.2592)">
      <use xlink:href="#DejaVuSans-66"/>
      <use x="68.603516" xlink:href="#DejaVuSans-68"/>
      <use x="145.605469" xlink:href="#DejaVuSans-84"/>
      <use x="206.689453" xlink:href="#DejaVuSans-77"/>
      <use x="292.96875" xlink:href="#DejaVuSans-117"/>
      <use x="356.347656" xlink:href="#DejaVuSans-108"/>
      <use x="384.130859" xlink:href="#DejaVuSans-116"/>
      <use x="423.339844" xlink:href="#DejaVuSans-105"/>
      <use x="451.123047" xlink:href="#DejaVuSans-32"/>
      <use x="482.910156" xlink:href="#DejaVuSans-67"/>
      <use x="552.734375" xlink:href="#DejaVuSans-117"/>
      <use x="616.113281" xlink:href="#DejaVuSans-116"/>
      <use x="655.322266" xlink:href="#DejaVuSans-111"/>
      <use x="716.503906" xlink:href="#DejaVuSans-102"/>
      <use x="751.708984" xlink:href="#DejaVuSans-102"/>
     </g>
    </g>
   </g>
   <g id="matplotlib.axis_2">
    <g id="ytick_1">
     <g id="line2d_8">
      <defs>
       <path d="M 0 0 
L -3.5 0 
" id="mec9b16cf23" style="stroke:#000000;stroke-width:0.8;"/>
      </defs>
      <g>
       <use style="stroke:#000000;stroke-width:0.8;" x="92.99" xlink:href="#mec9b16cf23" y="463.84"/>
      </g>
     </g>
     <g id="text_9">
      <!-- 0.0 -->
      <g transform="translate(44.7691 473.687575)scale(0.2592 -0.2592)">
       <use xlink:href="#DejaVuSans-48"/>
       <use x="63.623047" xlink:href="#DejaVuSans-46"/>
       <use x="95.410156" xlink:href="#DejaVuSans-48"/>
      </g>
     </g>
    </g>
    <g id="ytick_2">
     <g id="line2d_9">
      <g>
       <use style="stroke:#000000;stroke-width:0.8;" x="92.99" xlink:href="#mec9b16cf23" y="379.4"/>
      </g>
     </g>
     <g id="text_10">
      <!-- 0.2 -->
      <g transform="translate(44.7691 389.247575)scale(0.2592 -0.2592)">
       <use xlink:href="#DejaVuSans-48"/>
       <use x="63.623047" xlink:href="#DejaVuSans-46"/>
       <use x="95.410156" xlink:href="#DejaVuSans-50"/>
      </g>
     </g>
    </g>
    <g id="ytick_3">
     <g id="line2d_10">
      <g>
       <use style="stroke:#000000;stroke-width:0.8;" x="92.99" xlink:href="#mec9b16cf23" y="294.96"/>
      </g>
     </g>
     <g id="text_11">
      <!-- 0.4 -->
      <defs>
       <path d="M 37.796875 64.3125 
L 12.890625 25.390625 
L 37.796875 25.390625 
z
M 35.203125 72.90625 
L 47.609375 72.90625 
L 47.609375 25.390625 
L 58.015625 25.390625 
L 58.015625 17.1875 
L 47.609375 17.1875 
L 47.609375 0 
L 37.796875 0 
L 37.796875 17.1875 
L 4.890625 17.1875 
L 4.890625 26.703125 
z
" id="DejaVuSans-52"/>
      </defs>
      <g transform="translate(44.7691 304.807575)scale(0.2592 -0.2592)">
       <use xlink:href="#DejaVuSans-48"/>
       <use x="63.623047" xlink:href="#DejaVuSans-46"/>
       <use x="95.410156" xlink:href="#DejaVuSans-52"/>
      </g>
     </g>
    </g>
    <g id="ytick_4">
     <g id="line2d_11">
      <g>
       <use style="stroke:#000000;stroke-width:0.8;" x="92.99" xlink:href="#mec9b16cf23" y="210.52"/>
      </g>
     </g>
     <g id="text_12">
      <!-- 0.6 -->
      <defs>
       <path d="M 33.015625 40.375 
Q 26.375 40.375 22.484375 35.828125 
Q 18.609375 31.296875 18.609375 23.390625 
Q 18.609375 15.53125 22.484375 10.953125 
Q 26.375 6.390625 33.015625 6.390625 
Q 39.65625 6.390625 43.53125 10.953125 
Q 47.40625 15.53125 47.40625 23.390625 
Q 47.40625 31.296875 43.53125 35.828125 
Q 39.65625 40.375 33.015625 40.375 
z
M 52.59375 71.296875 
L 52.59375 62.3125 
Q 48.875 64.0625 45.09375 64.984375 
Q 41.3125 65.921875 37.59375 65.921875 
Q 27.828125 65.921875 22.671875 59.328125 
Q 17.53125 52.734375 16.796875 39.40625 
Q 19.671875 43.65625 24.015625 45.921875 
Q 28.375 48.1875 33.59375 48.1875 
Q 44.578125 48.1875 50.953125 41.515625 
Q 57.328125 34.859375 57.328125 23.390625 
Q 57.328125 12.15625 50.6875 5.359375 
Q 44.046875 -1.421875 33.015625 -1.421875 
Q 20.359375 -1.421875 13.671875 8.265625 
Q 6.984375 17.96875 6.984375 36.375 
Q 6.984375 53.65625 15.1875 63.9375 
Q 23.390625 74.21875 37.203125 74.21875 
Q 40.921875 74.21875 44.703125 73.484375 
Q 48.484375 72.75 52.59375 71.296875 
z
" id="DejaVuSans-54"/>
      </defs>
      <g transform="translate(44.7691 220.367575)scale(0.2592 -0.2592)">
       <use xlink:href="#DejaVuSans-48"/>
       <use x="63.623047" xlink:href="#DejaVuSans-46"/>
       <use x="95.410156" xlink:href="#DejaVuSans-54"/>
      </g>
     </g>
    </g>
    <g id="ytick_5">
     <g id="line2d_12">
      <g>
       <use style="stroke:#000000;stroke-width:0.8;" x="92.99" xlink:href="#mec9b16cf23" y="126.08"/>
      </g>
     </g>
     <g id="text_13">
      <!-- 0.8 -->
      <defs>
       <path d="M 31.78125 34.625 
Q 24.75 34.625 20.71875 30.859375 
Q 16.703125 27.09375 16.703125 20.515625 
Q 16.703125 13.921875 20.71875 10.15625 
Q 24.75 6.390625 31.78125 6.390625 
Q 38.8125 6.390625 42.859375 10.171875 
Q 46.921875 13.96875 46.921875 20.515625 
Q 46.921875 27.09375 42.890625 30.859375 
Q 38.875 34.625 31.78125 34.625 
z
M 21.921875 38.8125 
Q 15.578125 40.375 12.03125 44.71875 
Q 8.5 49.078125 8.5 55.328125 
Q 8.5 64.0625 14.71875 69.140625 
Q 20.953125 74.21875 31.78125 74.21875 
Q 42.671875 74.21875 48.875 69.140625 
Q 55.078125 64.0625 55.078125 55.328125 
Q 55.078125 49.078125 51.53125 44.71875 
Q 48 40.375 41.703125 38.8125 
Q 48.828125 37.15625 52.796875 32.3125 
Q 56.78125 27.484375 56.78125 20.515625 
Q 56.78125 9.90625 50.3125 4.234375 
Q 43.84375 -1.421875 31.78125 -1.421875 
Q 19.734375 -1.421875 13.25 4.234375 
Q 6.78125 9.90625 6.78125 20.515625 
Q 6.78125 27.484375 10.78125 32.3125 
Q 14.796875 37.15625 21.921875 38.8125 
z
M 18.3125 54.390625 
Q 18.3125 48.734375 21.84375 45.5625 
Q 25.390625 42.390625 31.78125 42.390625 
Q 38.140625 42.390625 41.71875 45.5625 
Q 45.3125 48.734375 45.3125 54.390625 
Q 45.3125 60.0625 41.71875 63.234375 
Q 38.140625 66.40625 31.78125 66.40625 
Q 25.390625 66.40625 21.84375 63.234375 
Q 18.3125 60.0625 18.3125 54.390625 
z
" id="DejaVuSans-56"/>
      </defs>
      <g transform="translate(44.7691 135.927575)scale(0.2592 -0.2592)">
       <use xlink:href="#DejaVuSans-48"/>
       <use x="63.623047" xlink:href="#DejaVuSans-46"/>
       <use x="95.410156" xlink:href="#DejaVuSans-56"/>
      </g>
     </g>
    </g>
    <g id="ytick_6">
     <g id="line2d_13">
      <g>
       <use style="stroke:#000000;stroke-width:0.8;" x="92.99" xlink:href="#mec9b16cf23" y="41.64"/>
      </g>
     </g>
     <g id="text_14">
      <!-- 1.0 -->
      <g transform="translate(44.7691 51.487575)scale(0.2592 -0.2592)">
       <use xlink:href="#DejaVuSans-49"/>
       <use x="63.623047" xlink:href="#DejaVuSans-46"/>
       <use x="95.410156" xlink:href="#DejaVuSans-48"/>
      </g>
     </g>
    </g>
    <g id="text_15">
     <!-- Fraction -->
     <defs>
      <path d="M 9.8125 72.90625 
L 51.703125 72.90625 
L 51.703125 64.59375 
L 19.671875 64.59375 
L 19.671875 43.109375 
L 48.578125 43.109375 
L 48.578125 34.8125 
L 19.671875 34.8125 
L 19.671875 0 
L 9.8125 0 
z
" id="DejaVuSans-70"/>
      <path d="M 41.109375 46.296875 
Q 39.59375 47.171875 37.8125 47.578125 
Q 36.03125 48 33.890625 48 
Q 26.265625 48 22.1875 43.046875 
Q 18.109375 38.09375 18.109375 28.8125 
L 18.109375 0 
L 9.078125 0 
L 9.078125 54.6875 
L 18.109375 54.6875 
L 18.109375 46.1875 
Q 20.953125 51.171875 25.484375 53.578125 
Q 30.03125 56 36.53125 56 
Q 37.453125 56 38.578125 55.875 
Q 39.703125 55.765625 41.0625 55.515625 
z
" id="DejaVuSans-114"/>
      <path d="M 34.28125 27.484375 
Q 23.390625 27.484375 19.1875 25 
Q 14.984375 22.515625 14.984375 16.5 
Q 14.984375 11.71875 18.140625 8.90625 
Q 21.296875 6.109375 26.703125 6.109375 
Q 34.1875 6.109375 38.703125 11.40625 
Q 43.21875 16.703125 43.21875 25.484375 
L 43.21875 27.484375 
z
M 52.203125 31.203125 
L 52.203125 0 
L 43.21875 0 
L 43.21875 8.296875 
Q 40.140625 3.328125 35.546875 0.953125 
Q 30.953125 -1.421875 24.3125 -1.421875 
Q 15.921875 -1.421875 10.953125 3.296875 
Q 6 8.015625 6 15.921875 
Q 6 25.140625 12.171875 29.828125 
Q 18.359375 34.515625 30.609375 34.515625 
L 43.21875 34.515625 
L 43.21875 35.40625 
Q 43.21875 41.609375 39.140625 45 
Q 35.0625 48.390625 27.6875 48.390625 
Q 23 48.390625 18.546875 47.265625 
Q 14.109375 46.140625 10.015625 43.890625 
L 10.015625 52.203125 
Q 14.9375 54.109375 19.578125 55.046875 
Q 24.21875 56 28.609375 56 
Q 40.484375 56 46.34375 49.84375 
Q 52.203125 43.703125 52.203125 31.203125 
z
" id="DejaVuSans-97"/>
      <path d="M 48.78125 52.59375 
L 48.78125 44.1875 
Q 44.96875 46.296875 41.140625 47.34375 
Q 37.3125 48.390625 33.40625 48.390625 
Q 24.65625 48.390625 19.8125 42.84375 
Q 14.984375 37.3125 14.984375 27.296875 
Q 14.984375 17.28125 19.8125 11.734375 
Q 24.65625 6.203125 33.40625 6.203125 
Q 37.3125 6.203125 41.140625 7.25 
Q 44.96875 8.296875 48.78125 10.40625 
L 48.78125 2.09375 
Q 45.015625 0.34375 40.984375 -0.53125 
Q 36.96875 -1.421875 32.421875 -1.421875 
Q 20.0625 -1.421875 12.78125 6.34375 
Q 5.515625 14.109375 5.515625 27.296875 
Q 5.515625 40.671875 12.859375 48.328125 
Q 20.21875 56 33.015625 56 
Q 37.15625 56 41.109375 55.140625 
Q 45.0625 54.296875 48.78125 52.59375 
z
" id="DejaVuSans-99"/>
      <path d="M 54.890625 33.015625 
L 54.890625 0 
L 45.90625 0 
L 45.90625 32.71875 
Q 45.90625 40.484375 42.875 44.328125 
Q 39.84375 48.1875 33.796875 48.1875 
Q 26.515625 48.1875 22.3125 43.546875 
Q 18.109375 38.921875 18.109375 30.90625 
L 18.109375 0 
L 9.078125 0 
L 9.078125 54.6875 
L 18.109375 54.6875 
L 18.109375 46.1875 
Q 21.34375 51.125 25.703125 53.5625 
Q 30.078125 56 35.796875 56 
Q 45.21875 56 50.046875 50.171875 
Q 54.890625 44.34375 54.890625 33.015625 
z
" id="DejaVuSans-110"/>
     </defs>
     <g transform="translate(35.37855 305.400125)rotate(-90)scale(0.2592 -0.2592)">
      <use xlink:href="#DejaVuSans-70"/>
      <use x="57.410156" xlink:href="#DejaVuSans-114"/>
      <use x="98.523438" xlink:href="#DejaVuSans-97"/>
      <use x="159.802734" xlink:href="#DejaVuSans-99"/>
      <use x="214.783203" xlink:href="#DejaVuSans-116"/>
      <use x="253.992188" xlink:href="#DejaVuSans-105"/>
      <use x="281.775391" xlink:href="#DejaVuSans-111"/>
      <use x="342.957031" xlink:href="#DejaVuSans-110"/>
     </g>
    </g>
   </g>
   <g id="line2d_14">
    <path clip-path="url(#p84199a222c)" d="M 119.020289 41.64 
L 138.301985 41.64 
L 138.823112 46.179785 
L 139.865366 46.179785 
L 140.386493 50.71957 
L 140.90762 50.71957 
L 141.428746 55.259355 
L 146.118889 55.259355 
L 146.640016 59.79914 
L 153.935792 59.79914 
L 154.456919 64.338925 
L 161.231569 64.338925 
L 161.752696 68.87871 
L 165.921711 68.87871 
L 166.442838 73.418495 
L 166.963965 73.418495 
L 167.485092 77.95828 
L 172.175234 77.95828 
L 172.696361 82.498065 
L 175.823123 82.498065 
L 176.34425 87.037849 
L 178.949884 87.037849 
L 179.471011 91.577634 
L 181.555519 91.577634 
L 182.076646 96.117419 
L 185.724534 96.117419 
L 186.245661 100.657204 
L 191.978057 100.657204 
L 193.020311 109.736774 
L 199.794961 109.736774 
L 200.316088 114.276559 
L 205.00623 114.276559 
L 205.527357 118.816344 
L 206.56961 118.816344 
L 207.090737 123.356129 
L 213.865387 123.356129 
L 214.386514 127.895914 
L 216.992149 127.895914 
L 217.513276 132.435699 
L 222.724545 132.435699 
L 223.245672 136.975484 
L 224.809052 136.975484 
L 225.330179 141.515269 
L 228.978068 141.515269 
L 229.499195 146.055054 
L 235.752718 146.055054 
L 236.273844 150.594839 
L 236.794971 150.594839 
L 237.316098 155.134624 
L 237.837225 155.134624 
L 238.879479 164.214194 
L 242.00624 164.214194 
L 243.048494 173.293763 
L 244.611875 173.293763 
L 245.133002 177.833548 
L 245.654129 186.913118 
L 252.428779 186.913118 
L 252.949906 191.452903 
L 257.640048 191.452903 
L 258.161175 195.992688 
L 262.33019 195.992688 
L 262.851317 200.532473 
L 264.935825 200.532473 
L 265.456952 205.072258 
L 266.499205 205.072258 
L 267.020332 209.612043 
L 282.65414 209.612043 
L 283.175267 214.151828 
L 284.21752 214.151828 
L 284.738647 218.691613 
L 287.344282 218.691613 
L 287.865409 223.231398 
L 288.386536 223.231398 
L 288.907663 227.771183 
L 291.513297 227.771183 
L 292.034424 232.310968 
L 294.118932 232.310968 
L 294.640059 236.850753 
L 295.161186 236.850753 
L 295.682312 241.390538 
L 296.724566 241.390538 
L 298.809074 259.549677 
L 301.414708 259.549677 
L 301.935835 264.089462 
L 302.456962 264.089462 
L 302.978089 268.629247 
L 303.499216 268.629247 
L 304.020343 277.708817 
L 304.54147 282.248602 
L 305.062597 291.328172 
L 307.147105 291.328172 
L 307.668231 295.867957 
L 311.837247 295.867957 
L 312.358374 300.407742 
L 313.921754 300.407742 
L 314.442881 304.947527 
L 318.09077 304.947527 
L 318.611897 314.027097 
L 320.696404 314.027097 
L 321.217531 318.566882 
L 322.259785 318.566882 
L 322.780912 327.646452 
L 325.907673 327.646452 
L 326.4288 332.186237 
L 326.949927 332.186237 
L 327.992181 341.265806 
L 328.513308 341.265806 
L 329.034435 345.805591 
L 330.076689 345.805591 
L 331.118942 354.885161 
L 331.640069 354.885161 
L 332.682323 363.964731 
L 333.724577 363.964731 
L 334.245704 368.504516 
L 338.414719 368.504516 
L 338.935846 373.044301 
L 344.147115 373.044301 
L 344.668242 377.584086 
L 345.710496 377.584086 
L 346.231623 382.123871 
L 347.795004 382.123871 
L 348.316131 386.663656 
L 359.259796 386.663656 
L 359.780923 391.203441 
L 361.86543 391.203441 
L 362.386557 395.743226 
L 364.471065 395.743226 
L 364.992192 400.283011 
L 365.513319 400.283011 
L 366.555572 409.362581 
L 367.076699 409.362581 
L 368.64008 422.981935 
L 377.499238 422.981935 
L 378.020365 432.061505 
L 378.541491 436.60129 
L 379.062618 436.60129 
L 379.583745 445.68086 
L 384.273887 445.68086 
L 384.795014 450.220645 
L 389.485157 450.220645 
L 390.006284 454.76043 
L 391.569664 454.76043 
L 392.090791 459.300215 
L 430.133056 459.300215 
L 430.654183 463.84 
L 639.626074 463.84 
L 639.626074 463.84 
" style="fill:none;stroke:#0000ff;stroke-linecap:square;stroke-width:1.5;"/>
   </g>
   <g id="line2d_15">
    <path clip-path="url(#p84199a222c)" d="M 119.020289 358.005499 
L 119.541416 357.719459 
L 122.147051 357.719459 
L 122.668178 357.43187 
L 123.710431 357.43187 
L 124.231558 356.851989 
L 127.35832 356.851989 
L 127.879447 356.559672 
L 128.400574 355.97022 
L 131.527335 355.97022 
L 132.048462 355.673058 
L 132.569589 355.073795 
L 134.13297 355.073795 
L 134.654097 354.771667 
L 135.175224 354.771667 
L 135.69635 354.467855 
L 136.738604 354.467855 
L 137.259731 354.162346 
L 137.780858 353.54618 
L 138.301985 353.54618 
L 138.823112 354.115706 
L 139.865366 354.115706 
L 140.386493 355.000907 
L 140.90762 354.691705 
L 141.428746 355.58359 
L 144.034381 355.58359 
L 144.555508 355.274286 
L 146.118889 355.274286 
L 146.640016 356.172951 
L 148.203396 356.172951 
L 148.724523 355.863563 
L 149.24565 355.863563 
L 149.766777 355.552392 
L 150.287904 355.552392 
L 150.809031 355.239422 
L 152.372412 355.239422 
L 152.893539 354.924638 
L 153.935792 354.924638 
L 154.456919 355.203743 
L 157.062554 355.203743 
L 157.583681 354.564706 
L 159.668188 354.564706 
L 160.189315 354.24236 
L 161.231569 354.24236 
L 161.752696 355.167219 
L 162.79495 355.167219 
L 163.316077 354.19403 
L 163.837204 353.535495 
L 165.400584 353.535495 
L 165.921711 353.203253 
L 166.442838 354.144532 
L 166.963965 354.144532 
L 167.485092 355.091515 
L 168.006219 354.760973 
L 170.090727 354.760973 
L 170.611854 354.428415 
L 171.13298 354.428415 
L 171.654107 354.093823 
L 172.175234 354.093823 
L 172.696361 355.05227 
L 173.738615 355.05227 
L 174.780869 354.380741 
L 175.301996 354.380741 
L 175.823123 353.70087 
L 176.34425 354.673022 
L 176.865376 354.673022 
L 177.386503 354.331875 
L 178.949884 354.331875 
L 179.471011 355.3121 
L 181.555519 355.3121 
L 182.076646 355.959243 
L 183.118899 355.959243 
L 185.203407 354.580575 
L 185.724534 354.580575 
L 186.245661 355.58359 
L 186.766788 354.532557 
L 187.287915 354.532557 
L 188.330169 353.820456 
L 188.851295 353.820456 
L 189.372422 353.460915 
L 191.45693 353.460915 
L 191.978057 353.099016 
L 193.020311 355.154851 
L 194.062565 355.154851 
L 194.583692 354.432691 
L 196.147072 354.432691 
L 196.668199 353.70087 
L 199.794961 353.70087 
L 200.316088 354.748054 
L 200.837214 354.748054 
L 201.358341 354.380741 
L 201.879468 353.26381 
L 202.400595 352.506438 
L 205.00623 352.506438 
L 205.527357 353.194483 
L 206.56961 353.194483 
L 207.090737 354.272526 
L 209.696372 354.272526 
L 210.217499 353.892083 
L 210.738626 352.734737 
L 211.259753 352.343521 
L 211.78088 352.343521 
L 212.302007 351.949541 
L 212.823133 351.153167 
L 213.34426 349.937122 
L 213.865387 349.525921 
L 214.386514 350.641449 
L 215.949895 350.641449 
L 216.471022 349.815182 
L 216.992149 349.815182 
L 217.513276 350.528971 
L 218.034403 350.110849 
L 221.161164 350.110849 
L 222.203418 349.265279 
L 222.724545 349.265279 
L 223.245672 350.413134 
L 224.809052 350.413134 
L 225.330179 351.569588 
L 225.851306 351.569588 
L 226.372433 351.147519 
L 227.935814 351.147519 
L 228.456941 350.293788 
L 228.978068 349.862053 
L 229.499195 351.038473 
L 230.020322 350.170769 
L 231.583702 350.170769 
L 232.104829 349.731892 
L 234.189337 349.731892 
L 234.710464 349.289612 
L 235.231591 349.289612 
L 235.752718 348.394687 
L 236.273844 348.694545 
L 236.794971 348.694545 
L 237.316098 349.913016 
L 237.837225 349.459124 
L 238.879479 351.931566 
L 239.400606 351.480323 
L 240.44286 351.480323 
L 240.963987 350.566829 
L 242.00624 349.638361 
L 242.527367 350.439174 
L 243.048494 351.720498 
L 244.090748 351.720498 
L 244.611875 351.253333 
L 245.133002 351.60962 
L 245.654129 354.24766 
L 246.175256 353.779316 
L 246.696383 353.779316 
L 247.21751 353.306953 
L 249.823144 353.306953 
L 250.344271 352.830517 
L 252.428779 352.830517 
L 252.949906 353.70087 
L 253.471033 353.70087 
L 253.992159 353.219913 
L 256.076667 353.219913 
L 256.597794 352.245286 
L 257.118921 351.751504 
L 257.640048 351.751504 
L 258.161175 352.635536 
L 258.682302 352.136861 
L 262.33019 352.136861 
L 262.851317 353.535495 
L 264.935825 353.535495 
L 265.456952 354.946787 
L 265.978078 354.451818 
L 266.499205 354.451818 
L 267.020332 354.885161 
L 268.583713 354.885161 
L 269.10484 354.380741 
L 271.189348 354.380741 
L 271.710474 353.871628 
L 274.837236 353.871628 
L 275.358363 353.357757 
L 276.400617 353.357757 
L 277.963997 351.786919 
L 279.006251 351.786919 
L 279.527378 350.714641 
L 280.048505 350.714641 
L 280.569632 349.067184 
L 282.65414 349.067184 
L 283.175267 350.566829 
L 283.696393 350.011569 
L 284.21752 350.011569 
L 284.738647 351.53064 
L 286.823155 351.53064 
L 287.344282 350.974653 
L 287.865409 351.957 
L 288.386536 350.826869 
L 288.907663 352.396345 
L 289.428789 351.827755 
L 290.471043 351.827755 
L 291.513297 350.67299 
L 292.034424 352.274197 
L 294.118932 352.274197 
L 294.640059 353.31644 
L 295.161186 353.31644 
L 295.682312 353.798511 
L 296.203439 352.014054 
L 296.724566 352.014054 
L 297.245693 352.490549 
L 297.76682 354.207956 
L 298.287947 354.732135 
L 298.809074 355.891136 
L 299.330201 355.891136 
L 299.851328 355.274286 
L 300.372455 354.019191 
L 300.893582 353.380698 
L 301.414708 353.380698 
L 301.935835 354.564706 
L 302.456962 353.26381 
L 302.978089 354.47494 
L 303.499216 353.812121 
L 304.020343 357.642454 
L 304.54147 358.94559 
L 305.062597 361.651465 
L 306.104851 358.979869 
L 307.147105 357.590993 
L 307.668231 359.697333 
L 308.189358 357.571973 
L 308.710485 357.571973 
L 309.231612 356.106207 
L 310.273866 354.599441 
L 310.794993 354.599441 
L 311.837247 353.049929 
L 312.358374 354.493237 
L 312.879501 352.896934 
L 313.400627 352.081176 
L 313.921754 352.081176 
L 314.442881 353.563881 
L 316.527389 350.170769 
L 317.569643 350.170769 
L 318.09077 348.394687 
L 318.611897 352.3792 
L 319.133023 350.566829 
L 320.696404 350.566829 
L 321.217531 352.183802 
L 321.738658 351.253333 
L 322.259785 349.345085 
L 322.780912 353.70087 
L 323.302039 351.751504 
L 323.823166 350.750714 
L 324.344293 350.750714 
L 324.86542 349.731892 
L 325.907673 349.731892 
L 326.4288 351.51156 
L 326.949927 350.471481 
L 327.992181 352.081176 
L 328.513308 350.974653 
L 329.034435 351.827755 
L 329.555562 348.290526 
L 330.076689 348.290526 
L 330.597816 350.345376 
L 331.118942 351.253333 
L 331.640069 349.988315 
L 332.161196 352.223908 
L 332.682323 353.26381 
L 333.724577 353.26381 
L 334.245704 357.018313 
L 334.766831 354.380741 
L 335.287958 353.0125 
L 335.809085 350.170769 
L 336.851338 350.170769 
L 337.372465 348.694545 
L 338.414719 348.694545 
L 338.935846 352.734737 
L 339.456973 352.734737 
L 339.9781 349.731892 
L 341.020354 346.562222 
L 342.062608 346.562222 
L 343.104861 343.211429 
L 343.625988 343.211429 
L 344.147115 341.463188 
L 344.668242 345.872353 
L 345.189369 344.111642 
L 345.710496 344.111642 
L 346.231623 348.694545 
L 347.273877 348.694545 
L 347.795004 346.923077 
L 348.316131 351.693125 
L 349.358384 344.216667 
L 350.400638 340.091724 
L 352.485146 340.091724 
L 353.006273 337.920702 
L 354.048527 337.920702 
L 354.569653 335.672143 
L 355.09078 335.672143 
L 355.611907 333.341818 
L 356.133034 333.341818 
L 356.654161 330.925185 
L 357.175288 325.813077 
L 358.217542 325.813077 
L 359.259796 314.310833 
L 359.780923 316.987826 
L 360.823176 310.312727 
L 361.86543 310.312727 
L 362.386557 313.054286 
L 363.949938 313.054286 
L 364.471065 309.376585 
L 364.992192 316.07 
L 365.513319 308.292632 
L 366.555572 323.106667 
L 367.076699 323.106667 
L 367.597826 327.245882 
L 368.118953 335.900606 
L 368.64008 332.812414 
L 369.161207 328.132857 
L 369.682334 328.132857 
L 370.203461 323.106667 
L 373.851349 323.106667 
L 374.372476 317.693846 
L 374.893603 298.631304 
L 375.41473 291.121818 
L 375.935857 291.121818 
L 376.456984 282.897143 
L 377.499238 282.897143 
L 378.020365 308.292632 
L 378.541491 323.106667 
L 379.062618 323.106667 
L 379.583745 358.29 
L 380.104872 343.211429 
L 380.625999 343.211429 
L 381.147126 333.932308 
L 382.710507 333.932308 
L 383.231634 323.106667 
L 383.752761 323.106667 
L 384.273887 310.312727 
L 384.795014 323.106667 
L 389.485157 323.106667 
L 390.006284 358.29 
L 391.569664 358.29 
L 392.090791 403.525714 
L 403.034456 403.525714 
L 403.555583 393.473333 
L 413.978121 393.473333 
L 414.499248 379.4 
L 430.133056 379.4 
L 430.654183 463.84 
L 484.851382 463.84 
L 484.851382 463.84 
" style="fill:none;stroke:#ff0000;stroke-linecap:square;stroke-width:1.5;"/>
   </g>
   <g id="line2d_16">
    <path clip-path="url(#p84199a222c)" d="M 119.020289 358.005499 
L 119.541416 357.719459 
L 122.147051 357.719459 
L 122.668178 357.43187 
L 123.710431 357.43187 
L 124.231558 356.851989 
L 127.35832 356.851989 
L 127.879447 356.559672 
L 128.400574 355.97022 
L 131.527335 355.97022 
L 132.048462 355.673058 
L 132.569589 355.073795 
L 134.13297 355.073795 
L 134.654097 354.771667 
L 135.175224 354.771667 
L 135.69635 354.467855 
L 136.738604 354.467855 
L 137.259731 354.162346 
L 137.780858 353.54618 
L 138.301985 353.54618 
L 138.823112 355.295537 
L 139.865366 355.295537 
L 140.386493 357.341532 
L 140.90762 357.03898 
L 141.428746 359.075732 
L 144.034381 359.075732 
L 144.555508 358.776406 
L 146.118889 358.776406 
L 146.640016 360.803792 
L 148.203396 360.803792 
L 148.724523 360.507711 
L 149.24565 360.507711 
L 149.766777 360.209923 
L 150.287904 360.209923 
L 150.809031 359.910415 
L 152.372412 359.910415 
L 152.893539 359.609169 
L 153.935792 359.609169 
L 154.456919 361.044402 
L 157.062554 361.044402 
L 157.583681 360.439722 
L 159.668188 360.439722 
L 160.189315 360.134706 
L 161.231569 360.134706 
L 161.752696 362.178366 
L 162.79495 362.178366 
L 163.316077 361.267963 
L 163.837204 360.651915 
L 165.400584 360.651915 
L 165.921711 360.341108 
L 166.442838 362.40118 
L 166.963965 362.40118 
L 167.485092 364.446224 
L 168.006219 364.144115 
L 170.090727 364.144115 
L 170.611854 363.840164 
L 171.13298 363.840164 
L 171.654107 363.534354 
L 172.175234 363.534354 
L 172.696361 365.580115 
L 173.738615 365.580115 
L 174.780869 364.973572 
L 175.301996 364.973572 
L 175.823123 364.359495 
L 176.34425 366.411407 
L 176.865376 366.411407 
L 177.386503 366.106942 
L 178.949884 366.106942 
L 179.471011 368.148734 
L 181.555519 368.148734 
L 182.076646 369.879341 
L 183.118899 369.879341 
L 185.203407 368.678565 
L 185.724534 368.678565 
L 186.245661 370.716206 
L 186.766788 369.812092 
L 187.287915 369.812092 
L 188.330169 369.199532 
L 188.851295 369.199532 
L 189.372422 368.890249 
L 191.45693 368.890249 
L 191.978057 368.578939 
L 193.020311 372.684714 
L 194.062565 372.684714 
L 194.583692 372.079031 
L 196.147072 372.079031 
L 196.668199 371.465245 
L 199.794961 371.465245 
L 200.316088 373.516561 
L 200.837214 373.516561 
L 201.358341 373.212441 
L 201.879468 372.28767 
L 202.400595 371.660599 
L 205.00623 371.660599 
L 205.527357 373.420007 
L 206.56961 373.420007 
L 207.090737 375.479134 
L 209.696372 375.479134 
L 210.217499 375.172325 
L 210.738626 374.238981 
L 211.259753 373.923485 
L 211.78088 373.923485 
L 212.302007 373.605759 
L 212.823133 372.963522 
L 213.34426 371.982841 
L 213.865387 371.651226 
L 214.386514 373.768035 
L 215.949895 373.768035 
L 216.471022 373.110575 
L 216.992149 373.110575 
L 217.513276 374.896934 
L 218.034403 374.568731 
L 221.161164 374.568731 
L 222.203418 373.905004 
L 222.724545 373.905004 
L 223.245672 376.025652 
L 224.809052 376.025652 
L 225.330179 378.12818 
L 225.851306 378.12818 
L 226.372433 377.805955 
L 227.935814 377.805955 
L 228.456941 377.154182 
L 228.978068 376.824578 
L 229.499195 378.935625 
L 230.020322 378.282514 
L 231.583702 378.282514 
L 232.104829 377.952177 
L 234.189337 377.952177 
L 234.710464 377.619278 
L 235.231591 377.619278 
L 235.752718 376.945679 
L 236.273844 378.409501 
L 236.794971 378.409501 
L 237.316098 380.538549 
L 237.837225 380.206671 
L 238.879479 384.421112 
L 239.400606 384.100874 
L 240.44286 384.100874 
L 240.963987 383.452589 
L 242.00624 382.793675 
L 243.048494 386.682493 
L 244.090748 386.682493 
L 244.611875 386.361004 
L 245.133002 387.812969 
L 245.654129 391.956852 
L 246.175256 391.649659 
L 246.696383 391.649659 
L 247.21751 391.339829 
L 249.823144 391.339829 
L 250.344271 391.027329 
L 252.428779 391.027329 
L 252.949906 392.782496 
L 253.471033 392.782496 
L 253.992159 392.472202 
L 256.076667 392.472202 
L 256.597794 391.843411 
L 257.118921 391.524842 
L 257.640048 391.524842 
L 258.161175 393.290931 
L 258.682302 392.974568 
L 262.33019 392.974568 
L 262.851317 395.047943 
L 264.935825 395.047943 
L 265.456952 397.098999 
L 265.978078 396.79563 
L 266.499205 396.79563 
L 267.020332 398.232785 
L 268.583713 398.232785 
L 269.10484 397.929048 
L 271.189348 397.929048 
L 271.710474 397.622486 
L 274.837236 397.622486 
L 275.358363 397.313058 
L 276.400617 397.313058 
L 277.963997 396.367177 
L 279.006251 396.367177 
L 279.527378 395.721504 
L 280.048505 395.721504 
L 280.569632 394.729487 
L 282.65414 394.729487 
L 283.175267 396.85049 
L 283.696393 396.52211 
L 284.21752 396.52211 
L 284.738647 398.628114 
L 286.823155 398.628114 
L 287.344282 398.305283 
L 287.865409 400.07872 
L 288.386536 399.434667 
L 288.907663 401.527419 
L 289.428789 401.209497 
L 290.471043 401.209497 
L 291.513297 400.563822 
L 292.034424 402.658753 
L 294.118932 402.658753 
L 294.640059 404.418731 
L 295.161186 404.418731 
L 295.682312 405.861151 
L 296.203439 404.920953 
L 296.724566 404.920953 
L 297.245693 406.369316 
L 297.76682 408.434558 
L 298.809074 411.606679 
L 299.330201 411.606679 
L 299.851328 411.308203 
L 300.372455 410.700899 
L 300.893582 410.39195 
L 301.414708 410.39195 
L 301.935835 412.139861 
L 302.456962 411.524383 
L 302.978089 413.273359 
L 303.499216 412.966895 
L 304.020343 417.021727 
L 304.54147 418.724125 
L 305.062597 422.085545 
L 306.104851 420.993925 
L 307.147105 420.426427 
L 307.668231 422.406896 
L 308.189358 421.561323 
L 308.710485 421.561323 
L 309.231612 420.978168 
L 310.273866 420.378702 
L 310.794993 420.378702 
L 311.837247 419.76223 
L 312.358374 421.512221 
L 312.879501 420.894297 
L 313.400627 420.57852 
L 313.921754 420.57852 
L 314.442881 422.338235 
L 316.527389 421.061257 
L 317.569643 421.061257 
L 318.09077 420.392839 
L 318.611897 424.289394 
L 319.133023 423.646294 
L 320.696404 423.646294 
L 321.217531 425.420663 
L 321.738658 425.100502 
L 322.259785 424.4439 
L 322.780912 428.311248 
L 323.302039 427.682421 
L 323.823166 427.359585 
L 324.344293 427.359585 
L 324.86542 427.030933 
L 325.907673 427.030933 
L 326.4288 428.812852 
L 326.949927 428.488526 
L 327.992181 431.39389 
L 328.513308 431.072641 
L 329.034435 432.524749 
L 329.555562 431.535846 
L 330.076689 431.535846 
L 331.118942 434.785376 
L 331.640069 434.45892 
L 332.682323 437.682192 
L 333.724577 437.682192 
L 334.245704 439.718974 
L 334.766831 439.123393 
L 335.287958 438.814435 
L 335.809085 438.172754 
L 336.851338 438.172754 
L 337.372465 437.839413 
L 338.414719 437.839413 
L 338.935846 439.946395 
L 339.456973 439.946395 
L 339.9781 439.300622 
L 341.020354 438.618973 
L 342.062608 438.618973 
L 343.104861 437.898372 
L 343.625988 437.898372 
L 344.147115 437.522406 
L 344.668242 439.739083 
L 345.189369 439.379368 
L 345.710496 439.379368 
L 346.231623 441.553783 
L 347.273877 441.553783 
L 347.795004 441.210918 
L 348.316131 443.340034 
L 349.358384 441.973369 
L 350.400638 441.219347 
L 352.485146 441.219347 
L 353.006273 440.822494 
L 354.048527 440.822494 
L 354.569653 440.411467 
L 355.09078 440.411467 
L 355.611907 439.985494 
L 356.133034 439.985494 
L 356.654161 439.543744 
L 357.175288 438.609272 
L 358.217542 438.609272 
L 359.259796 436.506711 
L 359.780923 438.57511 
L 360.823176 437.426706 
L 361.86543 437.426706 
L 362.386557 439.519724 
L 363.949938 439.519724 
L 364.471065 438.926546 
L 364.992192 441.595054 
L 365.513319 440.424267 
L 366.555572 445.68086 
L 367.076699 445.68086 
L 368.118953 450.083076 
L 368.64008 451.159911 
L 369.161207 450.707051 
L 369.682334 450.707051 
L 370.203461 450.220645 
L 373.851349 450.220645 
L 374.372476 449.696824 
L 374.893603 447.852062 
L 375.41473 447.125337 
L 375.935857 447.125337 
L 376.456984 446.329401 
L 377.499238 446.329401 
L 378.020365 452.132134 
L 378.541491 454.76043 
L 379.062618 454.76043 
L 379.583745 459.300215 
L 380.104872 458.651674 
L 380.625999 458.651674 
L 381.147126 458.252572 
L 382.710507 458.252572 
L 383.231634 457.786953 
L 383.752761 457.786953 
L 384.273887 457.236676 
L 384.795014 459.300215 
L 389.485157 459.300215 
L 390.006284 461.570108 
L 391.569664 461.570108 
L 392.090791 463.191459 
L 413.978121 463.083369 
L 414.499248 462.932043 
L 430.133056 462.932043 
L 430.654183 463.84 
L 484.851382 463.84 
L 484.851382 463.84 
" style="fill:none;stroke:#008000;stroke-linecap:square;stroke-width:1.5;"/>
   </g>
   <g id="line2d_17">
    <path clip-path="url(#p84199a222c)" d="M 137.780858 463.84 
L 137.780858 41.64 
" style="fill:none;stroke:#1f77b4;stroke-linecap:square;stroke-width:1.5;"/>
   </g>
   <g id="patch_3">
    <path d="M 92.99 463.84 
L 92.99 41.64 
" style="fill:none;stroke:#000000;stroke-linecap:square;stroke-linejoin:miter;stroke-width:0.8;"/>
   </g>
   <g id="patch_4">
    <path d="M 665.656364 463.84 
L 665.656364 41.64 
" style="fill:none;stroke:#000000;stroke-linecap:square;stroke-linejoin:miter;stroke-width:0.8;"/>
   </g>
   <g id="patch_5">
    <path d="M 92.99 463.84 
L 665.656364 463.84 
" style="fill:none;stroke:#000000;stroke-linecap:square;stroke-linejoin:miter;stroke-width:0.8;"/>
   </g>
   <g id="patch_6">
    <path d="M 92.99 41.64 
L 665.656364 41.64 
" style="fill:none;stroke:#000000;stroke-linecap:square;stroke-linejoin:miter;stroke-width:0.8;"/>
   </g>
   <g id="text_16">
    <!-- Purity/Efficiency vs BDTMulti Cutoff — photon -->
    <defs>
     <path d="M 19.671875 64.796875 
L 19.671875 37.40625 
L 32.078125 37.40625 
Q 38.96875 37.40625 42.71875 40.96875 
Q 46.484375 44.53125 46.484375 51.125 
Q 46.484375 57.671875 42.71875 61.234375 
Q 38.96875 64.796875 32.078125 64.796875 
z
M 9.8125 72.90625 
L 32.078125 72.90625 
Q 44.34375 72.90625 50.609375 67.359375 
Q 56.890625 61.8125 56.890625 51.125 
Q 56.890625 40.328125 50.609375 34.8125 
Q 44.34375 29.296875 32.078125 29.296875 
L 19.671875 29.296875 
L 19.671875 0 
L 9.8125 0 
z
" id="DejaVuSans-80"/>
     <path d="M 32.171875 -5.078125 
Q 28.375 -14.84375 24.75 -17.8125 
Q 21.140625 -20.796875 15.09375 -20.796875 
L 7.90625 -20.796875 
L 7.90625 -13.28125 
L 13.1875 -13.28125 
Q 16.890625 -13.28125 18.9375 -11.515625 
Q 21 -9.765625 23.484375 -3.21875 
L 25.09375 0.875 
L 2.984375 54.6875 
L 12.5 54.6875 
L 29.59375 11.921875 
L 46.6875 54.6875 
L 56.203125 54.6875 
z
" id="DejaVuSans-121"/>
     <path d="M 25.390625 72.90625 
L 33.6875 72.90625 
L 8.296875 -9.28125 
L 0 -9.28125 
z
" id="DejaVuSans-47"/>
     <path d="M 9.8125 72.90625 
L 55.90625 72.90625 
L 55.90625 64.59375 
L 19.671875 64.59375 
L 19.671875 43.015625 
L 54.390625 43.015625 
L 54.390625 34.71875 
L 19.671875 34.71875 
L 19.671875 8.296875 
L 56.78125 8.296875 
L 56.78125 0 
L 9.8125 0 
z
" id="DejaVuSans-69"/>
     <path d="M 56.203125 29.59375 
L 56.203125 25.203125 
L 14.890625 25.203125 
Q 15.484375 15.921875 20.484375 11.0625 
Q 25.484375 6.203125 34.421875 6.203125 
Q 39.59375 6.203125 44.453125 7.46875 
Q 49.3125 8.734375 54.109375 11.28125 
L 54.109375 2.78125 
Q 49.265625 0.734375 44.1875 -0.34375 
Q 39.109375 -1.421875 33.890625 -1.421875 
Q 20.796875 -1.421875 13.15625 6.1875 
Q 5.515625 13.8125 5.515625 26.8125 
Q 5.515625 40.234375 12.765625 48.109375 
Q 20.015625 56 32.328125 56 
Q 43.359375 56 49.78125 48.890625 
Q 56.203125 41.796875 56.203125 29.59375 
z
M 47.21875 32.234375 
Q 47.125 39.59375 43.09375 43.984375 
Q 39.0625 48.390625 32.421875 48.390625 
Q 24.90625 48.390625 20.390625 44.140625 
Q 15.875 39.890625 15.1875 32.171875 
z
" id="DejaVuSans-101"/>
     <path d="M 2.984375 54.6875 
L 12.5 54.6875 
L 29.59375 8.796875 
L 46.6875 54.6875 
L 56.203125 54.6875 
L 35.6875 0 
L 23.484375 0 
z
" id="DejaVuSans-118"/>
     <path d="M 44.28125 53.078125 
L 44.28125 44.578125 
Q 40.484375 46.53125 36.375 47.5 
Q 32.28125 48.484375 27.875 48.484375 
Q 21.1875 48.484375 17.84375 46.4375 
Q 14.5 44.390625 14.5 40.28125 
Q 14.5 37.15625 16.890625 35.375 
Q 19.28125 33.59375 26.515625 31.984375 
L 29.59375 31.296875 
Q 39.15625 29.25 43.1875 25.515625 
Q 47.21875 21.78125 47.21875 15.09375 
Q 47.21875 7.46875 41.1875 3.015625 
Q 35.15625 -1.421875 24.609375 -1.421875 
Q 20.21875 -1.421875 15.453125 -0.5625 
Q 10.6875 0.296875 5.421875 2 
L 5.421875 11.28125 
Q 10.40625 8.6875 15.234375 7.390625 
Q 20.0625 6.109375 24.8125 6.109375 
Q 31.15625 6.109375 34.5625 8.28125 
Q 37.984375 10.453125 37.984375 14.40625 
Q 37.984375 18.0625 35.515625 20.015625 
Q 33.0625 21.96875 24.703125 23.78125 
L 21.578125 24.515625 
Q 13.234375 26.265625 9.515625 29.90625 
Q 5.8125 33.546875 5.8125 39.890625 
Q 5.8125 47.609375 11.28125 51.796875 
Q 16.75 56 26.8125 56 
Q 31.78125 56 36.171875 55.265625 
Q 40.578125 54.546875 44.28125 53.078125 
z
" id="DejaVuSans-115"/>
     <path d="M 4.890625 30.90625 
L 95.125 30.90625 
L 95.125 23.875 
L 4.890625 23.875 
z
" id="DejaVuSans-8212"/>
     <path d="M 18.109375 8.203125 
L 18.109375 -20.796875 
L 9.078125 -20.796875 
L 9.078125 54.6875 
L 18.109375 54.6875 
L 18.109375 46.390625 
Q 20.953125 51.265625 25.265625 53.625 
Q 29.59375 56 35.59375 56 
Q 45.5625 56 51.78125 48.09375 
Q 58.015625 40.1875 58.015625 27.296875 
Q 58.015625 14.40625 51.78125 6.484375 
Q 45.5625 -1.421875 35.59375 -1.421875 
Q 29.59375 -1.421875 25.265625 0.953125 
Q 20.953125 3.328125 18.109375 8.203125 
z
M 48.6875 27.296875 
Q 48.6875 37.203125 44.609375 42.84375 
Q 40.53125 48.484375 33.40625 48.484375 
Q 26.265625 48.484375 22.1875 42.84375 
Q 18.109375 37.203125 18.109375 27.296875 
Q 18.109375 17.390625 22.1875 11.75 
Q 26.265625 6.109375 33.40625 6.109375 
Q 40.53125 6.109375 44.609375 11.75 
Q 48.6875 17.390625 48.6875 27.296875 
z
" id="DejaVuSans-112"/>
     <path d="M 54.890625 33.015625 
L 54.890625 0 
L 45.90625 0 
L 45.90625 32.71875 
Q 45.90625 40.484375 42.875 44.328125 
Q 39.84375 48.1875 33.796875 48.1875 
Q 26.515625 48.1875 22.3125 43.546875 
Q 18.109375 38.921875 18.109375 30.90625 
L 18.109375 0 
L 9.078125 0 
L 9.078125 75.984375 
L 18.109375 75.984375 
L 18.109375 46.1875 
Q 21.34375 51.125 25.703125 53.5625 
Q 30.078125 56 35.796875 56 
Q 45.21875 56 50.046875 50.171875 
Q 54.890625 44.34375 54.890625 33.015625 
z
" id="DejaVuSans-104"/>
    </defs>
    <g transform="translate(83.193257 35.64)scale(0.2592 -0.2592)">
     <use xlink:href="#DejaVuSans-80"/>
     <use x="60.287109" xlink:href="#DejaVuSans-117"/>
     <use x="123.666016" xlink:href="#DejaVuSans-114"/>
     <use x="164.779297" xlink:href="#DejaVuSans-105"/>
     <use x="192.5625" xlink:href="#DejaVuSans-116"/>
     <use x="231.771484" xlink:href="#DejaVuSans-121"/>
     <use x="290.951172" xlink:href="#DejaVuSans-47"/>
     <use x="324.642578" xlink:href="#DejaVuSans-69"/>
     <use x="387.826172" xlink:href="#DejaVuSans-102"/>
     <use x="423.03125" xlink:href="#DejaVuSans-102"/>
     <use x="458.236328" xlink:href="#DejaVuSans-105"/>
     <use x="486.019531" xlink:href="#DejaVuSans-99"/>
     <use x="541" xlink:href="#DejaVuSans-105"/>
     <use x="568.783203" xlink:href="#DejaVuSans-101"/>
     <use x="630.306641" xlink:href="#DejaVuSans-110"/>
     <use x="693.685547" xlink:href="#DejaVuSans-99"/>
     <use x="748.666016" xlink:href="#DejaVuSans-121"/>
     <use x="807.845703" xlink:href="#DejaVuSans-32"/>
     <use x="839.632812" xlink:href="#DejaVuSans-118"/>
     <use x="898.8125" xlink:href="#DejaVuSans-115"/>
     <use x="950.912109" xlink:href="#DejaVuSans-32"/>
     <use x="982.699219" xlink:href="#DejaVuSans-66"/>
     <use x="1051.302734" xlink:href="#DejaVuSans-68"/>
     <use x="1128.304688" xlink:href="#DejaVuSans-84"/>
     <use x="1189.388672" xlink:href="#DejaVuSans-77"/>
     <use x="1275.667969" xlink:href="#DejaVuSans-117"/>
     <use x="1339.046875" xlink:href="#DejaVuSans-108"/>
     <use x="1366.830078" xlink:href="#DejaVuSans-116"/>
     <use x="1406.039062" xlink:href="#DejaVuSans-105"/>
     <use x="1433.822266" xlink:href="#DejaVuSans-32"/>
     <use x="1465.609375" xlink:href="#DejaVuSans-67"/>
     <use x="1535.433594" xlink:href="#DejaVuSans-117"/>
     <use x="1598.8125" xlink:href="#DejaVuSans-116"/>
     <use x="1638.021484" xlink:href="#DejaVuSans-111"/>
     <use x="1699.203125" xlink:href="#DejaVuSans-102"/>
     <use x="1734.408203" xlink:href="#DejaVuSans-102"/>
     <use x="1769.613281" xlink:href="#DejaVuSans-32"/>
     <use x="1801.400391" xlink:href="#DejaVuSans-8212"/>
     <use x="1901.400391" xlink:href="#DejaVuSans-32"/>
     <use x="1933.1875" xlink:href="#DejaVuSans-112"/>
     <use x="1996.664062" xlink:href="#DejaVuSans-104"/>
     <use x="2060.042969" xlink:href="#DejaVuSans-111"/>
     <use x="2121.224609" xlink:href="#DejaVuSans-116"/>
     <use x="2160.433594" xlink:href="#DejaVuSans-111"/>
     <use x="2221.615234" xlink:href="#DejaVuSans-110"/>
    </g>
   </g>
   <g id="legend_1">
    <g id="patch_7">
     <path d="M 270.628494 454.84 
L 488.017869 454.84 
Q 491.617869 454.84 491.617869 451.24 
L 491.617869 373.778125 
Q 491.617869 370.178125 488.017869 370.178125 
L 270.628494 370.178125 
Q 267.028494 370.178125 267.028494 373.778125 
L 267.028494 451.24 
Q 267.028494 454.84 270.628494 454.84 
z
" style="fill:#ffffff;opacity:0.8;stroke:#cccccc;stroke-linejoin:miter;"/>
    </g>
    <g id="line2d_18">
     <path d="M 274.228494 384.755313 
L 310.228494 384.755313 
" style="fill:none;stroke:#0000ff;stroke-linecap:square;stroke-width:1.5;"/>
    </g>
    <g id="line2d_19"/>
    <g id="text_17">
     <!-- Efficiency -->
     <g transform="translate(324.628494 391.055313)scale(0.18 -0.18)">
      <use xlink:href="#DejaVuSans-69"/>
      <use x="63.183594" xlink:href="#DejaVuSans-102"/>
      <use x="98.388672" xlink:href="#DejaVuSans-102"/>
      <use x="133.59375" xlink:href="#DejaVuSans-105"/>
      <use x="161.376953" xlink:href="#DejaVuSans-99"/>
      <use x="216.357422" xlink:href="#DejaVuSans-105"/>
      <use x="244.140625" xlink:href="#DejaVuSans-101"/>
      <use x="305.664062" xlink:href="#DejaVuSans-110"/>
      <use x="369.042969" xlink:href="#DejaVuSans-99"/>
      <use x="424.023438" xlink:href="#DejaVuSans-121"/>
     </g>
    </g>
    <g id="line2d_20">
     <path d="M 274.228494 411.175937 
L 310.228494 411.175937 
" style="fill:none;stroke:#ff0000;stroke-linecap:square;stroke-width:1.5;"/>
    </g>
    <g id="line2d_21"/>
    <g id="text_18">
     <!-- Purity -->
     <g transform="translate(324.628494 417.475937)scale(0.18 -0.18)">
      <use xlink:href="#DejaVuSans-80"/>
      <use x="60.287109" xlink:href="#DejaVuSans-117"/>
      <use x="123.666016" xlink:href="#DejaVuSans-114"/>
      <use x="164.779297" xlink:href="#DejaVuSans-105"/>
      <use x="192.5625" xlink:href="#DejaVuSans-116"/>
      <use x="231.771484" xlink:href="#DejaVuSans-121"/>
     </g>
    </g>
    <g id="line2d_22">
     <path d="M 274.228494 437.596562 
L 310.228494 437.596562 
" style="fill:none;stroke:#008000;stroke-linecap:square;stroke-width:1.5;"/>
    </g>
    <g id="line2d_23"/>
    <g id="text_19">
     <!-- Purity * Efficiency -->
     <defs>
      <path d="M 47.015625 60.890625 
L 29.5 51.421875 
L 47.015625 41.890625 
L 44.1875 37.109375 
L 27.78125 47.015625 
L 27.78125 28.609375 
L 22.21875 28.609375 
L 22.21875 47.015625 
L 5.8125 37.109375 
L 2.984375 41.890625 
L 20.515625 51.421875 
L 2.984375 60.890625 
L 5.8125 65.71875 
L 22.21875 55.8125 
L 22.21875 74.21875 
L 27.78125 74.21875 
L 27.78125 55.8125 
L 44.1875 65.71875 
z
" id="DejaVuSans-42"/>
     </defs>
     <g transform="translate(324.628494 443.896562)scale(0.18 -0.18)">
      <use xlink:href="#DejaVuSans-80"/>
      <use x="60.287109" xlink:href="#DejaVuSans-117"/>
      <use x="123.666016" xlink:href="#DejaVuSans-114"/>
      <use x="164.779297" xlink:href="#DejaVuSans-105"/>
      <use x="192.5625" xlink:href="#DejaVuSans-116"/>
      <use x="231.771484" xlink:href="#DejaVuSans-121"/>
      <use x="290.951172" xlink:href="#DejaVuSans-32"/>
      <use x="322.738281" xlink:href="#DejaVuSans-42"/>
      <use x="372.738281" xlink:href="#DejaVuSans-32"/>
      <use x="404.525391" xlink:href="#DejaVuSans-69"/>
      <use x="467.708984" xlink:href="#DejaVuSans-102"/>
      <use x="502.914062" xlink:href="#DejaVuSans-102"/>
      <use x="538.119141" xlink:href="#DejaVuSans-105"/>
      <use x="565.902344" xlink:href="#DejaVuSans-99"/>
      <use x="620.882812" xlink:href="#DejaVuSans-105"/>
      <use x="648.666016" xlink:href="#DejaVuSans-101"/>
      <use x="710.189453" xlink:href="#DejaVuSans-110"/>
      <use x="773.568359" xlink:href="#DejaVuSans-99"/>
      <use x="828.548828" xlink:href="#DejaVuSans-121"/>
     </g>
    </g>
   </g>
  </g>
  <g id="axes_2">
   <g id="patch_8">
    <path d="M 801.065 463.84 
L 1373.731364 463.84 
L 1373.731364 41.64 
L 801.065 41.64 
z
" style="fill:#ffffff;"/>
   </g>
   <g id="matplotlib.axis_3">
    <g id="xtick_8">
     <g id="line2d_24">
      <g>
       <use style="stroke:#000000;stroke-width:0.8;" x="827.095289" xlink:href="#m95102f6942" y="463.84"/>
      </g>
     </g>
     <g id="text_20">
      <!-- −5.0 -->
      <g transform="translate(795.624764 490.53515)scale(0.2592 -0.2592)">
       <use xlink:href="#DejaVuSans-8722"/>
       <use x="83.789062" xlink:href="#DejaVuSans-53"/>
       <use x="147.412109" xlink:href="#DejaVuSans-46"/>
       <use x="179.199219" xlink:href="#DejaVuSans-48"/>
      </g>
     </g>
    </g>
    <g id="xtick_9">
     <g id="line2d_25">
      <g>
       <use style="stroke:#000000;stroke-width:0.8;" x="913.86292" xlink:href="#m95102f6942" y="463.84"/>
      </g>
     </g>
     <g id="text_21">
      <!-- −2.5 -->
      <g transform="translate(882.392395 490.53515)scale(0.2592 -0.2592)">
       <use xlink:href="#DejaVuSans-8722"/>
       <use x="83.789062" xlink:href="#DejaVuSans-50"/>
       <use x="147.412109" xlink:href="#DejaVuSans-46"/>
       <use x="179.199219" xlink:href="#DejaVuSans-53"/>
      </g>
     </g>
    </g>
    <g id="xtick_10">
     <g id="line2d_26">
      <g>
       <use style="stroke:#000000;stroke-width:0.8;" x="1000.630551" xlink:href="#m95102f6942" y="463.84"/>
      </g>
     </g>
     <g id="text_22">
      <!-- 0.0 -->
      <g transform="translate(980.020101 490.53515)scale(0.2592 -0.2592)">
       <use xlink:href="#DejaVuSans-48"/>
       <use x="63.623047" xlink:href="#DejaVuSans-46"/>
       <use x="95.410156" xlink:href="#DejaVuSans-48"/>
      </g>
     </g>
    </g>
    <g id="xtick_11">
     <g id="line2d_27">
      <g>
       <use style="stroke:#000000;stroke-width:0.8;" x="1087.398182" xlink:href="#m95102f6942" y="463.84"/>
      </g>
     </g>
     <g id="text_23">
      <!-- 2.5 -->
      <g transform="translate(1066.787732 490.53515)scale(0.2592 -0.2592)">
       <use xlink:href="#DejaVuSans-50"/>
       <use x="63.623047" xlink:href="#DejaVuSans-46"/>
       <use x="95.410156" xlink:href="#DejaVuSans-53"/>
      </g>
     </g>
    </g>
    <g id="xtick_12">
     <g id="line2d_28">
      <g>
       <use style="stroke:#000000;stroke-width:0.8;" x="1174.165813" xlink:href="#m95102f6942" y="463.84"/>
      </g>
     </g>
     <g id="text_24">
      <!-- 5.0 -->
      <g transform="translate(1153.555363 490.53515)scale(0.2592 -0.2592)">
       <use xlink:href="#DejaVuSans-53"/>
       <use x="63.623047" xlink:href="#DejaVuSans-46"/>
       <use x="95.410156" xlink:href="#DejaVuSans-48"/>
      </g>
     </g>
    </g>
    <g id="xtick_13">
     <g id="line2d_29">
      <g>
       <use style="stroke:#000000;stroke-width:0.8;" x="1260.933444" xlink:href="#m95102f6942" y="463.84"/>
      </g>
     </g>
     <g id="text_25">
      <!-- 7.5 -->
      <g transform="translate(1240.322994 490.53515)scale(0.2592 -0.2592)">
       <use xlink:href="#DejaVuSans-55"/>
       <use x="63.623047" xlink:href="#DejaVuSans-46"/>
       <use x="95.410156" xlink:href="#DejaVuSans-53"/>
      </g>
     </g>
    </g>
    <g id="xtick_14">
     <g id="line2d_30">
      <g>
       <use style="stroke:#000000;stroke-width:0.8;" x="1347.701074" xlink:href="#m95102f6942" y="463.84"/>
      </g>
     </g>
     <g id="text_26">
      <!-- 10.0 -->
      <g transform="translate(1318.844824 490.53515)scale(0.2592 -0.2592)">
       <use xlink:href="#DejaVuSans-49"/>
       <use x="63.623047" xlink:href="#DejaVuSans-48"/>
       <use x="127.246094" xlink:href="#DejaVuSans-46"/>
       <use x="159.033203" xlink:href="#DejaVuSans-48"/>
      </g>
     </g>
    </g>
    <g id="text_27">
     <!-- BDTMulti Cutoff -->
     <g transform="translate(985.417157 519.62085)scale(0.2592 -0.2592)">
      <use xlink:href="#DejaVuSans-66"/>
      <use x="68.603516" xlink:href="#DejaVuSans-68"/>
      <use x="145.605469" xlink:href="#DejaVuSans-84"/>
      <use x="206.689453" xlink:href="#DejaVuSans-77"/>
      <use x="292.96875" xlink:href="#DejaVuSans-117"/>
      <use x="356.347656" xlink:href="#DejaVuSans-108"/>
      <use x="384.130859" xlink:href="#DejaVuSans-116"/>
      <use x="423.339844" xlink:href="#DejaVuSans-105"/>
      <use x="451.123047" xlink:href="#DejaVuSans-32"/>
      <use x="482.910156" xlink:href="#DejaVuSans-67"/>
      <use x="552.734375" xlink:href="#DejaVuSans-117"/>
      <use x="616.113281" xlink:href="#DejaVuSans-116"/>
      <use x="655.322266" xlink:href="#DejaVuSans-111"/>
      <use x="716.503906" xlink:href="#DejaVuSans-102"/>
      <use x="751.708984" xlink:href="#DejaVuSans-102"/>
     </g>
    </g>
   </g>
   <g id="matplotlib.axis_4">
    <g id="ytick_7">
     <g id="line2d_31">
      <g>
       <use style="stroke:#000000;stroke-width:0.8;" x="801.065" xlink:href="#mec9b16cf23" y="463.84"/>
      </g>
     </g>
     <g id="text_28">
      <!-- 0.0 -->
      <g transform="translate(752.8441 473.687575)scale(0.2592 -0.2592)">
       <use xlink:href="#DejaVuSans-48"/>
       <use x="63.623047" xlink:href="#DejaVuSans-46"/>
       <use x="95.410156" xlink:href="#DejaVuSans-48"/>
      </g>
     </g>
    </g>
    <g id="ytick_8">
     <g id="line2d_32">
      <g>
       <use style="stroke:#000000;stroke-width:0.8;" x="801.065" xlink:href="#mec9b16cf23" y="379.4"/>
      </g>
     </g>
     <g id="text_29">
      <!-- 0.2 -->
      <g transform="translate(752.8441 389.247575)scale(0.2592 -0.2592)">
       <use xlink:href="#DejaVuSans-48"/>
       <use x="63.623047" xlink:href="#DejaVuSans-46"/>
       <use x="95.410156" xlink:href="#DejaVuSans-50"/>
      </g>
     </g>
    </g>
    <g id="ytick_9">
     <g id="line2d_33">
      <g>
       <use style="stroke:#000000;stroke-width:0.8;" x="801.065" xlink:href="#mec9b16cf23" y="294.96"/>
      </g>
     </g>
     <g id="text_30">
      <!-- 0.4 -->
      <g transform="translate(752.8441 304.807575)scale(0.2592 -0.2592)">
       <use xlink:href="#DejaVuSans-48"/>
       <use x="63.623047" xlink:href="#DejaVuSans-46"/>
       <use x="95.410156" xlink:href="#DejaVuSans-52"/>
      </g>
     </g>
    </g>
    <g id="ytick_10">
     <g id="line2d_34">
      <g>
       <use style="stroke:#000000;stroke-width:0.8;" x="801.065" xlink:href="#mec9b16cf23" y="210.52"/>
      </g>
     </g>
     <g id="text_31">
      <!-- 0.6 -->
      <g transform="translate(752.8441 220.367575)scale(0.2592 -0.2592)">
       <use xlink:href="#DejaVuSans-48"/>
       <use x="63.623047" xlink:href="#DejaVuSans-46"/>
       <use x="95.410156" xlink:href="#DejaVuSans-54"/>
      </g>
     </g>
    </g>
    <g id="ytick_11">
     <g id="line2d_35">
      <g>
       <use style="stroke:#000000;stroke-width:0.8;" x="801.065" xlink:href="#mec9b16cf23" y="126.08"/>
      </g>
     </g>
     <g id="text_32">
      <!-- 0.8 -->
      <g transform="translate(752.8441 135.927575)scale(0.2592 -0.2592)">
       <use xlink:href="#DejaVuSans-48"/>
       <use x="63.623047" xlink:href="#DejaVuSans-46"/>
       <use x="95.410156" xlink:href="#DejaVuSans-56"/>
      </g>
     </g>
    </g>
    <g id="ytick_12">
     <g id="line2d_36">
      <g>
       <use style="stroke:#000000;stroke-width:0.8;" x="801.065" xlink:href="#mec9b16cf23" y="41.64"/>
      </g>
     </g>
     <g id="text_33">
      <!-- 1.0 -->
      <g transform="translate(752.8441 51.487575)scale(0.2592 -0.2592)">
       <use xlink:href="#DejaVuSans-49"/>
       <use x="63.623047" xlink:href="#DejaVuSans-46"/>
       <use x="95.410156" xlink:href="#DejaVuSans-48"/>
      </g>
     </g>
    </g>
    <g id="text_34">
     <!-- Fraction -->
     <g transform="translate(743.45355 305.400125)rotate(-90)scale(0.2592 -0.2592)">
      <use xlink:href="#DejaVuSans-70"/>
      <use x="57.410156" xlink:href="#DejaVuSans-114"/>
      <use x="98.523438" xlink:href="#DejaVuSans-97"/>
      <use x="159.802734" xlink:href="#DejaVuSans-99"/>
      <use x="214.783203" xlink:href="#DejaVuSans-116"/>
      <use x="253.992188" xlink:href="#DejaVuSans-105"/>
      <use x="281.775391" xlink:href="#DejaVuSans-111"/>
      <use x="342.957031" xlink:href="#DejaVuSans-110"/>
     </g>
    </g>
   </g>
   <g id="line2d_37">
    <path clip-path="url(#pef27d4893c)" d="M 827.095289 454.920282 
L 827.616416 453.433662 
L 830.222051 453.433662 
L 830.743178 451.947042 
L 831.785431 451.947042 
L 832.306558 448.973803 
L 835.43332 448.973803 
L 835.954447 447.487183 
L 836.475574 444.513944 
L 839.602335 444.513944 
L 840.123462 443.027324 
L 840.644589 440.054085 
L 842.20797 440.054085 
L 842.729097 438.567465 
L 843.250224 438.567465 
L 843.77135 437.080845 
L 844.813604 437.080845 
L 845.334731 435.594225 
L 845.855858 432.620986 
L 846.376985 432.620986 
L 846.898112 431.134366 
L 848.461493 431.134366 
L 848.98262 429.647746 
L 852.109381 429.647746 
L 852.630508 428.161127 
L 856.278396 428.161127 
L 856.799523 426.674507 
L 857.32065 426.674507 
L 857.841777 425.187887 
L 858.362904 425.187887 
L 858.884031 423.701268 
L 860.447412 423.701268 
L 860.968539 422.214648 
L 862.010792 422.214648 
L 862.531919 419.241408 
L 865.137554 419.241408 
L 865.658681 416.268169 
L 867.743188 416.268169 
L 868.264315 414.781549 
L 870.86995 414.781549 
L 871.391077 410.32169 
L 871.912204 407.348451 
L 873.475584 407.348451 
L 873.996711 405.861831 
L 875.560092 405.861831 
L 876.081219 404.375211 
L 878.165727 404.375211 
L 878.686854 402.888592 
L 879.20798 402.888592 
L 879.729107 401.401972 
L 881.813615 401.401972 
L 882.855869 398.428732 
L 883.376996 398.428732 
L 883.898123 395.455493 
L 884.940376 395.455493 
L 885.461503 393.968873 
L 889.630519 393.968873 
L 890.151646 392.482254 
L 891.193899 392.482254 
L 893.278407 386.535775 
L 894.320661 386.535775 
L 894.841788 382.075915 
L 895.362915 382.075915 
L 896.405169 379.102676 
L 896.926295 379.102676 
L 897.447422 377.616056 
L 899.53193 377.616056 
L 900.053057 376.129437 
L 902.137565 376.129437 
L 902.658692 373.156197 
L 904.222072 373.156197 
L 904.743199 370.182958 
L 908.912214 370.182958 
L 909.433341 368.696338 
L 909.954468 364.236479 
L 910.475595 361.263239 
L 913.08123 361.263239 
L 913.602357 359.77662 
L 917.771372 359.77662 
L 918.292499 358.29 
L 918.813626 353.830141 
L 919.334753 352.343521 
L 919.85588 352.343521 
L 920.377007 350.856901 
L 920.898133 347.883662 
L 921.41926 343.423803 
L 921.940387 341.937183 
L 924.024895 341.937183 
L 924.546022 338.963944 
L 925.067149 338.963944 
L 926.109403 335.990704 
L 929.236164 335.990704 
L 930.278418 333.017465 
L 933.926306 333.017465 
L 934.447433 331.530845 
L 936.010814 331.530845 
L 936.531941 328.557606 
L 937.053068 327.070986 
L 937.574195 327.070986 
L 938.095322 324.097746 
L 939.658702 324.097746 
L 940.179829 322.611127 
L 942.264337 322.611127 
L 942.785464 321.124507 
L 943.306591 321.124507 
L 944.348844 315.178028 
L 945.391098 315.178028 
L 945.912225 313.691408 
L 946.954479 313.691408 
L 947.475606 312.204789 
L 948.51786 312.204789 
L 949.038987 309.231549 
L 950.602367 304.77169 
L 952.165748 304.77169 
L 952.686875 303.28507 
L 953.208002 300.311831 
L 953.729129 300.311831 
L 954.250256 298.825211 
L 954.771383 298.825211 
L 955.29251 297.338592 
L 957.898144 297.338592 
L 958.419271 295.851972 
L 960.503779 295.851972 
L 961.024906 294.365352 
L 961.546033 294.365352 
L 962.067159 292.878732 
L 964.151667 292.878732 
L 964.672794 289.905493 
L 965.193921 288.418873 
L 965.715048 288.418873 
L 966.757302 285.445634 
L 973.531952 285.445634 
L 974.053078 283.959014 
L 974.574205 283.959014 
L 975.095332 280.985775 
L 976.658713 280.985775 
L 977.17984 279.499155 
L 979.264348 279.499155 
L 979.785474 278.012535 
L 982.912236 278.012535 
L 983.433363 276.525915 
L 984.475617 276.525915 
L 986.038997 272.066056 
L 987.081251 272.066056 
L 987.602378 269.092817 
L 988.123505 269.092817 
L 988.644632 264.632958 
L 991.250267 264.632958 
L 991.771393 263.146338 
L 994.898155 263.146338 
L 995.940409 260.173099 
L 996.461536 257.199859 
L 996.982663 257.199859 
L 997.503789 255.713239 
L 998.546043 255.713239 
L 999.588297 252.74 
L 1002.193932 252.74 
L 1002.715059 251.25338 
L 1003.236186 251.25338 
L 1003.757312 248.280141 
L 1004.278439 243.820282 
L 1004.799566 243.820282 
L 1005.320693 240.847042 
L 1005.84182 240.847042 
L 1006.362947 237.873803 
L 1006.884074 236.387183 
L 1007.405201 236.387183 
L 1007.926328 234.900563 
L 1008.447455 231.927324 
L 1008.968582 230.440704 
L 1009.489708 230.440704 
L 1010.010835 228.954085 
L 1010.531962 225.980845 
L 1011.574216 223.007606 
L 1012.095343 223.007606 
L 1012.61647 221.520986 
L 1014.179851 212.601268 
L 1015.222105 209.628028 
L 1015.743231 209.628028 
L 1016.264358 205.168169 
L 1016.785485 205.168169 
L 1017.306612 202.19493 
L 1018.348866 199.22169 
L 1018.869993 199.22169 
L 1020.433374 194.761831 
L 1020.954501 191.788592 
L 1021.475627 190.301972 
L 1021.996754 190.301972 
L 1024.602389 182.868873 
L 1025.644643 182.868873 
L 1026.16577 179.895634 
L 1026.686897 178.409014 
L 1027.208023 175.435775 
L 1028.771404 175.435775 
L 1029.813658 172.462535 
L 1030.334785 169.489296 
L 1030.855912 168.002676 
L 1031.377039 165.029437 
L 1031.898166 163.542817 
L 1032.419293 163.542817 
L 1032.94042 162.056197 
L 1033.982673 162.056197 
L 1035.024927 159.082958 
L 1036.067181 153.136479 
L 1036.588308 151.649859 
L 1037.109435 148.67662 
L 1037.630562 144.216761 
L 1038.151689 144.216761 
L 1038.672816 142.730141 
L 1039.193942 139.756901 
L 1040.236196 136.783662 
L 1040.757323 133.810423 
L 1042.320704 133.810423 
L 1042.841831 130.837183 
L 1043.362958 129.350563 
L 1043.884085 126.377324 
L 1044.926338 126.377324 
L 1045.447465 124.890704 
L 1047.531973 124.890704 
L 1048.0531 121.917465 
L 1049.095354 118.944225 
L 1050.137608 118.944225 
L 1051.179861 115.970986 
L 1051.700988 115.970986 
L 1052.222115 114.484366 
L 1052.743242 114.484366 
L 1053.264369 112.997746 
L 1055.348877 112.997746 
L 1055.870004 111.511127 
L 1056.391131 111.511127 
L 1057.433384 105.564648 
L 1058.475638 102.591408 
L 1060.560146 102.591408 
L 1061.081273 101.104789 
L 1062.123527 101.104789 
L 1062.644653 99.618169 
L 1063.16578 99.618169 
L 1063.686907 98.131549 
L 1064.208034 98.131549 
L 1064.729161 96.64493 
L 1065.250288 93.67169 
L 1066.292542 93.67169 
L 1067.334796 87.725211 
L 1068.898176 83.265352 
L 1069.94043 83.265352 
L 1070.461557 81.778732 
L 1072.024938 81.778732 
L 1072.546065 80.292113 
L 1073.067192 80.292113 
L 1073.588319 77.318873 
L 1075.151699 77.318873 
L 1075.672826 75.832254 
L 1076.193953 75.832254 
L 1076.71508 71.372394 
L 1077.236207 69.885775 
L 1077.757334 69.885775 
L 1078.278461 68.399155 
L 1081.926349 68.399155 
L 1082.447476 66.912535 
L 1082.968603 62.452676 
L 1083.48973 60.966056 
L 1084.010857 60.966056 
L 1084.531984 59.479437 
L 1087.658745 59.479437 
L 1088.179872 56.506197 
L 1088.700999 56.506197 
L 1089.222126 55.019577 
L 1090.785507 55.019577 
L 1091.306634 53.532958 
L 1091.827761 53.532958 
L 1092.870014 50.559718 
L 1111.109456 50.559718 
L 1111.630583 49.073099 
L 1122.053121 49.073099 
L 1122.574248 47.586479 
L 1141.855944 47.586479 
L 1142.377071 46.099859 
L 1159.574259 46.099859 
L 1160.095386 44.613239 
L 1177.813701 44.613239 
L 1178.334828 43.12662 
L 1192.926382 43.12662 
L 1193.447508 41.64 
L 1347.701074 41.64 
L 1347.701074 41.64 
" style="fill:none;stroke:#0000ff;stroke-linecap:square;stroke-width:1.5;"/>
   </g>
   <g id="line2d_38">
    <path clip-path="url(#pef27d4893c)" d="M 827.095289 41.64 
L 846.376985 41.64 
L 846.898112 59.996522 
L 847.940366 59.996522 
L 848.461493 76.823333 
L 848.98262 75.416 
L 849.503746 90.355385 
L 852.109381 90.355385 
L 852.630508 88.551111 
L 854.193889 88.551111 
L 854.715016 101.954286 
L 856.278396 101.954286 
L 856.799523 99.874483 
L 857.32065 99.874483 
L 857.841777 97.933333 
L 858.362904 97.933333 
L 858.884031 96.117419 
L 860.447412 96.117419 
L 860.968539 94.415 
L 862.010792 94.415 
L 862.531919 101.954286 
L 865.137554 101.954286 
L 865.658681 98.694054 
L 867.743188 98.694054 
L 868.264315 97.192632 
L 869.306569 97.192632 
L 869.827696 106.593846 
L 870.86995 106.593846 
L 871.391077 101.954286 
L 871.912204 99.212727 
L 873.475584 99.212727 
L 873.996711 97.933333 
L 874.517838 105.887826 
L 875.038965 105.887826 
L 875.560092 113.50383 
L 876.081219 112.006667 
L 878.165727 112.006667 
L 878.686854 110.570612 
L 879.20798 110.570612 
L 879.729107 109.192 
L 880.250234 109.192 
L 880.771361 116.145882 
L 881.813615 116.145882 
L 882.855869 113.33434 
L 883.376996 113.33434 
L 883.898123 110.727273 
L 884.41925 117.032857 
L 884.940376 117.032857 
L 885.461503 115.710175 
L 887.024884 115.710175 
L 887.546011 121.712414 
L 889.630519 121.712414 
L 890.151646 126.08 
L 891.193899 126.08 
L 893.278407 120.8025 
L 893.799534 120.8025 
L 894.320661 126.08 
L 894.841788 122.354706 
L 895.362915 122.354706 
L 896.405169 120.048571 
L 896.926295 120.048571 
L 897.447422 118.944225 
L 899.53193 118.944225 
L 900.053057 117.870556 
L 901.095311 127.221081 
L 902.137565 127.221081 
L 902.658692 124.968947 
L 904.222072 124.968947 
L 904.743199 122.832308 
L 907.869961 122.832308 
L 908.391088 127.148861 
L 908.912214 127.148861 
L 909.433341 126.08 
L 909.954468 123.027952 
L 910.475595 121.112941 
L 913.08123 121.112941 
L 913.602357 124.138851 
L 914.64461 124.138851 
L 915.165737 127.999091 
L 917.771372 127.999091 
L 918.292499 127.028764 
L 918.813626 124.244348 
L 919.334753 123.356129 
L 919.85588 123.356129 
L 920.377007 122.486809 
L 920.898133 120.8025 
L 921.41926 118.403636 
L 921.940387 117.636 
L 922.461514 121.063762 
L 924.024895 121.063762 
L 924.546022 119.521553 
L 925.067149 119.521553 
L 925.588276 122.059048 
L 926.109403 121.300377 
L 929.236164 121.300377 
L 930.278418 119.825185 
L 930.799545 119.825185 
L 931.320672 122.981284 
L 932.884052 122.981284 
L 933.405179 126.08 
L 933.926306 126.08 
L 934.447433 125.319279 
L 936.010814 125.319279 
L 936.531941 123.83823 
L 937.053068 123.117193 
L 937.574195 126.08 
L 938.095322 124.636581 
L 939.658702 124.636581 
L 940.179829 123.93322 
L 942.264337 123.93322 
L 942.785464 123.241681 
L 943.306591 123.241681 
L 943.827718 121.892893 
L 944.348844 123.356129 
L 944.869971 123.356129 
L 945.391098 126.08 
L 945.912225 125.409841 
L 946.954479 130.697812 
L 947.475606 130.007442 
L 948.51786 130.007442 
L 949.038987 128.658321 
L 950.08124 127.349774 
L 950.602367 129.207407 
L 951.123494 131.667941 
L 952.165748 131.667941 
L 952.686875 131.010803 
L 953.208002 132.111429 
L 953.729129 136.783662 
L 954.250256 136.118322 
L 954.771383 136.118322 
L 955.29251 135.462222 
L 957.898144 135.462222 
L 958.419271 134.815172 
L 960.503779 134.815172 
L 961.024906 136.419592 
L 961.546033 136.419592 
L 962.067159 135.779189 
L 964.151667 135.779189 
L 964.672794 134.524 
L 965.193921 133.908874 
L 965.715048 133.908874 
L 966.236175 135.462222 
L 966.757302 134.852987 
L 970.40519 134.852987 
L 970.926317 136.975484 
L 973.010825 136.975484 
L 973.531952 139.070769 
L 974.053078 138.450191 
L 974.574205 138.450191 
L 975.095332 139.27375 
L 976.658713 139.27375 
L 977.17984 138.667329 
L 979.264348 138.667329 
L 979.785474 138.068395 
L 982.912236 138.068395 
L 983.433363 137.47681 
L 984.475617 137.47681 
L 986.038997 135.744819 
L 987.081251 135.744819 
L 987.602378 134.624524 
L 988.123505 134.624524 
L 988.644632 132.993216 
L 990.72914 132.993216 
L 991.250267 134.916744 
L 991.771393 134.377572 
L 992.29252 134.377572 
L 992.813647 136.271034 
L 994.898155 136.271034 
L 995.419282 135.730286 
L 995.940409 137.052429 
L 996.461536 135.986369 
L 996.982663 137.807778 
L 997.503789 137.276464 
L 998.546043 137.276464 
L 999.588297 136.231257 
L 1000.109424 138.011739 
L 1002.193932 138.011739 
L 1002.715059 139.245376 
L 1003.236186 139.245376 
L 1003.757312 139.929947 
L 1004.278439 138.394167 
L 1004.799566 138.394167 
L 1005.320693 139.070769 
L 1005.84182 140.727755 
L 1006.362947 141.355578 
L 1006.884074 142.463881 
L 1007.405201 142.463881 
L 1007.926328 141.964752 
L 1008.447455 140.981176 
L 1008.968582 140.496585 
L 1009.489708 140.496585 
L 1010.010835 141.581063 
L 1010.531962 140.624689 
L 1011.053089 141.687393 
L 1011.574216 141.215472 
L 1012.095343 144.230654 
L 1012.61647 145.23537 
L 1013.137597 147.19 
L 1014.179851 145.305179 
L 1015.222105 144.387788 
L 1015.743231 145.795066 
L 1016.264358 144.436522 
L 1016.785485 144.436522 
L 1017.306612 143.550345 
L 1018.348866 142.679316 
L 1018.869993 142.679316 
L 1019.912247 141.823051 
L 1020.433374 142.755126 
L 1020.954501 141.9125 
L 1021.475627 141.496432 
L 1021.996754 141.496432 
L 1022.517881 142.412016 
L 1024.602389 140.780081 
L 1025.644643 140.780081 
L 1026.16577 139.983775 
L 1026.686897 142.16381 
L 1027.208023 141.372283 
L 1028.771404 141.372283 
L 1029.292531 142.242344 
L 1029.813658 141.850895 
L 1030.334785 141.077066 
L 1030.855912 143.161374 
L 1031.377039 142.392273 
L 1031.898166 142.012075 
L 1032.419293 142.012075 
L 1032.94042 141.634737 
L 1033.982673 141.634737 
L 1034.5038 142.463881 
L 1035.024927 142.089071 
L 1036.067181 142.968 
L 1036.588308 142.60087 
L 1037.109435 143.02853 
L 1037.630562 141.949929 
L 1038.151689 141.949929 
L 1038.672816 142.730141 
L 1039.193942 143.14453 
L 1039.715069 142.792083 
L 1040.236196 143.550345 
L 1040.757323 143.94785 
L 1041.799577 143.94785 
L 1042.320704 145.035918 
L 1042.841831 144.337297 
L 1043.362958 143.991515 
L 1043.884085 143.30689 
L 1044.926338 143.30689 
L 1045.447465 142.968 
L 1046.489719 142.968 
L 1047.010846 144.03402 
L 1047.531973 144.03402 
L 1048.0531 143.358152 
L 1049.095354 142.691148 
L 1050.137608 142.691148 
L 1051.179861 142.032834 
L 1051.700988 142.032834 
L 1052.222115 141.706883 
L 1052.743242 142.749385 
L 1053.264369 142.423226 
L 1053.785496 142.423226 
L 1054.306623 143.45672 
L 1055.348877 143.45672 
L 1055.870004 143.130385 
L 1056.391131 144.155016 
L 1057.433384 142.861451 
L 1058.475638 142.226834 
L 1060.560146 142.226834 
L 1061.081273 141.9125 
L 1062.123527 141.9125 
L 1062.644653 141.600125 
L 1063.16578 141.600125 
L 1063.686907 141.289689 
L 1064.208034 141.289689 
L 1064.729161 140.981176 
L 1065.250288 140.369846 
L 1066.292542 140.369846 
L 1067.334796 139.169483 
L 1067.855923 139.85571 
L 1068.898176 139.265826 
L 1069.94043 139.265826 
L 1070.461557 139.943284 
L 1072.024938 139.943284 
L 1072.546065 139.650714 
L 1073.067192 140.6127 
L 1073.588319 140.028791 
L 1074.630572 141.927977 
L 1075.151699 141.927977 
L 1075.672826 142.574111 
L 1076.193953 143.508023 
L 1076.71508 143.550345 
L 1077.236207 143.258338 
L 1077.757334 143.258338 
L 1078.278461 142.968 
L 1081.926349 142.968 
L 1082.447476 142.679316 
L 1082.968603 141.823051 
L 1083.48973 141.540845 
L 1084.010857 141.540845 
L 1084.531984 141.260225 
L 1085.574238 141.260225 
L 1086.095365 143.062346 
L 1086.616491 143.955877 
L 1087.137618 143.955877 
L 1087.658745 145.728089 
L 1088.179872 145.154601 
L 1088.700999 145.154601 
L 1089.222126 144.87022 
L 1090.785507 144.87022 
L 1091.306634 144.587397 
L 1091.827761 144.587397 
L 1092.348887 144.30612 
L 1092.870014 144.895435 
L 1097.560157 144.895435 
L 1098.081284 145.759783 
L 1099.644664 145.759783 
L 1100.165791 146.619459 
L 1111.109456 146.619459 
L 1111.630583 146.336496 
L 1122.053121 146.336496 
L 1122.574248 146.055054 
L 1138.208056 146.055054 
L 1138.729183 146.907024 
L 1141.855944 146.907024 
L 1142.377071 146.625561 
L 1159.574259 146.625561 
L 1160.095386 146.3456 
L 1177.813701 146.3456 
L 1178.334828 146.067128 
L 1192.926382 146.067128 
L 1193.447508 145.790133 
L 1347.701074 145.790133 
L 1347.701074 145.790133 
" style="fill:none;stroke:#ff0000;stroke-linecap:square;stroke-width:1.5;"/>
   </g>
   <g id="line2d_39">
    <path clip-path="url(#pef27d4893c)" d="M 827.095289 454.920282 
L 827.616416 453.433662 
L 830.222051 453.433662 
L 830.743178 451.947042 
L 831.785431 451.947042 
L 832.306558 448.973803 
L 835.43332 448.973803 
L 835.954447 447.487183 
L 836.475574 444.513944 
L 839.602335 444.513944 
L 840.123462 443.027324 
L 840.644589 440.054085 
L 842.20797 440.054085 
L 842.729097 438.567465 
L 843.250224 438.567465 
L 843.77135 437.080845 
L 844.813604 437.080845 
L 845.334731 435.594225 
L 845.855858 432.620986 
L 847.940366 432.55635 
L 848.461493 433.859836 
L 848.98262 432.383127 
L 849.503746 433.593007 
L 852.109381 433.593007 
L 852.630508 432.125446 
L 854.193889 432.125446 
L 854.715016 433.258109 
L 856.278396 433.258109 
L 856.799523 431.800782 
L 857.32065 431.800782 
L 857.841777 430.341502 
L 858.362904 430.341502 
L 858.884031 428.880459 
L 860.447412 428.880459 
L 860.968539 427.417817 
L 862.010792 427.417817 
L 862.531919 425.612636 
L 865.137554 425.612636 
L 865.658681 422.696795 
L 867.743188 422.696795 
L 868.264315 421.236609 
L 869.306569 421.236609 
L 869.827696 422.329003 
L 870.86995 422.329003 
L 871.391077 417.967163 
L 871.912204 415.051844 
L 873.475584 415.051844 
L 873.996711 413.592254 
L 874.517838 414.684596 
L 875.038965 414.684596 
L 875.560092 415.730455 
L 876.081219 414.286009 
L 878.165727 414.286009 
L 878.686854 412.839842 
L 879.20798 412.839842 
L 879.729107 411.392056 
L 880.250234 411.392056 
L 880.771361 412.420447 
L 881.813615 412.420447 
L 882.855869 409.536306 
L 883.376996 409.536306 
L 883.898123 406.645685 
L 884.41925 407.667012 
L 884.940376 407.667012 
L 885.461503 406.226966 
L 887.024884 406.226966 
L 887.546011 407.220294 
L 889.630519 407.220294 
L 890.151646 406.753803 
L 891.193899 406.753803 
L 893.278407 401.030317 
L 893.799534 401.030317 
L 894.320661 401.99662 
L 894.841788 397.707285 
L 895.362915 397.707285 
L 896.405169 394.839608 
L 896.926295 394.839608 
L 897.447422 393.403539 
L 899.53193 393.403539 
L 900.053057 391.966066 
L 901.095311 393.908605 
L 902.137565 393.908605 
L 902.658692 391.054316 
L 904.222072 391.054316 
L 904.743199 388.193927 
L 907.869961 388.193927 
L 908.391088 389.151473 
L 908.912214 389.151473 
L 909.433341 387.72507 
L 909.954468 383.437158 
L 910.475595 380.571806 
L 913.08123 380.571806 
L 913.602357 380.110843 
L 914.64461 380.110843 
L 915.165737 381.062311 
L 917.771372 381.062311 
L 918.292499 379.637191 
L 918.813626 375.353809 
L 919.334753 373.923485 
L 919.85588 373.923485 
L 920.377007 372.491963 
L 920.898133 369.625475 
L 921.41926 365.317657 
L 921.940387 363.87969 
L 922.461514 364.869396 
L 924.024895 364.869396 
L 924.546022 361.999333 
L 925.067149 361.999333 
L 925.588276 361.546405 
L 926.109403 360.113213 
L 929.236164 360.113213 
L 930.278418 357.24386 
L 930.799545 357.24386 
L 931.320672 358.221806 
L 932.884052 358.221806 
L 933.405179 359.181972 
L 933.926306 359.181972 
L 934.447433 357.754281 
L 936.010814 357.754281 
L 936.531941 354.895771 
L 937.053068 353.465006 
L 937.574195 354.424789 
L 938.095322 351.568446 
L 939.658702 351.568446 
L 940.179829 350.138788 
L 942.264337 350.138788 
L 942.785464 348.708174 
L 943.306591 348.708174 
L 943.827718 345.844167 
L 944.348844 343.951313 
L 944.869971 343.951313 
L 945.391098 344.910423 
L 945.912225 343.482796 
L 946.954479 345.363377 
L 947.475606 343.942391 
L 948.51786 343.942391 
L 949.038987 341.097413 
L 950.08124 338.248578 
L 950.602367 337.763636 
L 951.123494 338.690668 
L 952.165748 338.690668 
L 952.686875 337.27115 
L 953.208002 335.353581 
L 953.729129 337.163249 
L 954.250256 335.751598 
L 954.771383 335.751598 
L 955.29251 334.338905 
L 957.898144 334.338905 
L 958.419271 332.925192 
L 960.503779 332.925192 
L 961.024906 332.410681 
L 961.546033 332.410681 
L 962.067159 330.998474 
L 964.151667 330.998474 
L 964.672794 328.171085 
L 965.193921 326.755941 
L 965.715048 326.755941 
L 966.236175 326.245086 
L 966.757302 324.831403 
L 970.40519 324.831403 
L 970.926317 325.728233 
L 973.010825 325.728233 
L 973.531952 326.613564 
L 974.053078 325.20561 
L 974.574205 325.20561 
L 975.095332 323.270814 
L 976.658713 323.270814 
L 977.17984 321.8632 
L 979.264348 321.8632 
L 979.785474 320.454611 
L 982.912236 320.454611 
L 983.433363 319.045064 
L 984.475617 319.045064 
L 986.038997 314.810851 
L 987.081251 314.810851 
L 987.602378 311.983566 
L 988.123505 311.983566 
L 988.644632 307.736236 
L 990.72914 307.736236 
L 991.250267 308.643816 
L 991.771393 307.229339 
L 992.29252 307.229339 
L 992.813647 308.1294 
L 994.898155 308.1294 
L 995.419282 306.717038 
L 995.940409 306.199517 
L 996.461536 303.376427 
L 996.982663 304.267891 
L 997.503789 302.857975 
L 998.546043 302.857975 
L 999.588297 300.035628 
L 1000.109424 300.92587 
L 1002.193932 300.92587 
L 1002.715059 300.399749 
L 1003.236186 300.399749 
L 1003.757312 298.463388 
L 1004.278439 294.241467 
L 1004.799566 294.241467 
L 1005.320693 292.306956 
L 1005.84182 293.182124 
L 1006.362947 291.242704 
L 1006.884074 290.704274 
L 1007.405201 290.704274 
L 1007.926328 289.302014 
L 1008.447455 286.495012 
L 1008.968582 285.090295 
L 1009.489708 285.090295 
L 1010.010835 284.555098 
L 1010.531962 281.746867 
L 1011.053089 281.211234 
L 1011.574216 279.807699 
L 1012.095343 281.527627 
L 1012.61647 280.978892 
L 1013.137597 279.87081 
L 1014.179851 274.289349 
L 1015.222105 271.493774 
L 1015.743231 272.341114 
L 1016.264358 268.149137 
L 1016.785485 268.149137 
L 1017.306612 265.350636 
L 1018.348866 262.549149 
L 1018.869993 262.549149 
L 1019.912247 259.744751 
L 1020.433374 259.204922 
L 1020.954501 256.400801 
L 1021.475627 254.997688 
L 1021.996754 254.997688 
L 1022.517881 254.459095 
L 1024.602389 248.845899 
L 1025.644643 248.845899 
L 1026.16577 246.035285 
L 1026.686897 246.368773 
L 1027.208023 243.562757 
L 1028.771404 243.562757 
L 1029.292531 243.024708 
L 1029.813658 241.622167 
L 1030.334785 238.815137 
L 1030.855912 239.139132 
L 1031.377039 236.336503 
L 1031.898166 234.934223 
L 1032.419293 234.934223 
L 1032.94042 233.531308 
L 1033.982673 233.531308 
L 1034.5038 232.992365 
L 1035.024927 231.590209 
L 1036.067181 227.705324 
L 1036.588308 226.304023 
L 1037.109435 224.361016 
L 1037.630562 220.155615 
L 1038.151689 220.155615 
L 1038.672816 219.6156 
L 1039.193942 217.67235 
L 1039.715069 216.27136 
L 1040.236196 215.728295 
L 1040.757323 213.78346 
L 1041.799577 213.78346 
L 1042.320704 214.633993 
L 1042.841831 211.837868 
L 1043.362958 210.438912 
L 1043.884085 207.639239 
L 1044.926338 207.639239 
L 1045.447465 206.238535 
L 1046.489719 206.238535 
L 1047.010846 207.094354 
L 1047.531973 207.094354 
L 1048.0531 204.294841 
L 1049.095354 201.49305 
L 1050.137608 201.49305 
L 1051.179861 198.689025 
L 1051.700988 198.689025 
L 1052.222115 197.286188 
L 1052.743242 198.148822 
L 1053.264369 196.747188 
L 1053.785496 196.747188 
L 1054.306623 197.606007 
L 1055.348877 197.606007 
L 1055.870004 196.205567 
L 1056.391131 197.06063 
L 1057.433384 191.460316 
L 1058.475638 188.656904 
L 1060.560146 188.656904 
L 1061.081273 187.254401 
L 1062.123527 187.254401 
L 1062.644653 185.851375 
L 1063.16578 185.851375 
L 1063.686907 184.44783 
L 1064.208034 184.44783 
L 1064.729161 183.04377 
L 1065.250288 180.234126 
L 1066.292542 180.234126 
L 1067.334796 174.608871 
L 1067.855923 174.079403 
L 1068.898176 171.266097 
L 1069.94043 171.266097 
L 1070.461557 170.736281 
L 1072.024938 170.736281 
L 1072.546065 169.330015 
L 1073.067192 170.203932 
L 1073.588319 167.393118 
L 1074.630572 169.13181 
L 1075.151699 169.13181 
L 1075.672826 168.592123 
L 1076.193953 169.450402 
L 1076.71508 166.105954 
L 1077.236207 164.705703 
L 1077.757334 164.705703 
L 1078.278461 163.304958 
L 1081.926349 163.304958 
L 1082.447476 161.903723 
L 1082.968603 157.697126 
L 1083.48973 156.293975 
L 1084.010857 156.293975 
L 1084.531984 154.890356 
L 1085.574238 154.890356 
L 1086.095365 156.616332 
L 1086.616491 157.472108 
L 1087.137618 157.472108 
L 1087.658745 159.169437 
L 1088.179872 156.375917 
L 1088.700999 156.375917 
L 1089.222126 154.978417 
L 1090.785507 154.978417 
L 1091.306634 153.580428 
L 1091.827761 153.580428 
L 1092.348887 152.181955 
L 1092.870014 151.6337 
L 1097.560157 151.6337 
L 1098.081284 152.479788 
L 1099.644664 152.479788 
L 1100.165791 153.321302 
L 1111.109456 153.321302 
L 1111.630583 151.926346 
L 1122.053121 151.926346 
L 1122.574248 150.530898 
L 1138.208056 150.530898 
L 1138.729183 151.370869 
L 1141.855944 151.370869 
L 1142.377071 149.976418 
L 1159.574259 149.976418 
L 1160.095386 148.581476 
L 1177.813701 148.581476 
L 1178.334828 147.186046 
L 1192.926382 147.186046 
L 1193.447508 145.790133 
L 1347.701074 145.790133 
L 1347.701074 145.790133 
" style="fill:none;stroke:#008000;stroke-linecap:square;stroke-width:1.5;"/>
   </g>
   <g id="line2d_40">
    <path clip-path="url(#pef27d4893c)" d="M 1193.447508 463.84 
L 1193.447508 41.64 
" style="fill:none;stroke:#1f77b4;stroke-linecap:square;stroke-width:1.5;"/>
   </g>
   <g id="patch_9">
    <path d="M 801.065 463.84 
L 801.065 41.64 
" style="fill:none;stroke:#000000;stroke-linecap:square;stroke-linejoin:miter;stroke-width:0.8;"/>
   </g>
   <g id="patch_10">
    <path d="M 1373.731364 463.84 
L 1373.731364 41.64 
" style="fill:none;stroke:#000000;stroke-linecap:square;stroke-linejoin:miter;stroke-width:0.8;"/>
   </g>
   <g id="patch_11">
    <path d="M 801.065 463.84 
L 1373.731364 463.84 
" style="fill:none;stroke:#000000;stroke-linecap:square;stroke-linejoin:miter;stroke-width:0.8;"/>
   </g>
   <g id="patch_12">
    <path d="M 801.065 41.64 
L 1373.731364 41.64 
" style="fill:none;stroke:#000000;stroke-linecap:square;stroke-linejoin:miter;stroke-width:0.8;"/>
   </g>
   <g id="text_35">
    <!-- Purity/Efficiency vs BDTMulti Cutoff — electron -->
    <g transform="translate(783.640082 35.64)scale(0.2592 -0.2592)">
     <use xlink:href="#DejaVuSans-80"/>
     <use x="60.287109" xlink:href="#DejaVuSans-117"/>
     <use x="123.666016" xlink:href="#DejaVuSans-114"/>
     <use x="164.779297" xlink:href="#DejaVuSans-105"/>
     <use x="192.5625" xlink:href="#DejaVuSans-116"/>
     <use x="231.771484" xlink:href="#DejaVuSans-121"/>
     <use x="290.951172" xlink:href="#DejaVuSans-47"/>
     <use x="324.642578" xlink:href="#DejaVuSans-69"/>
     <use x="387.826172" xlink:href="#DejaVuSans-102"/>
     <use x="423.03125" xlink:href="#DejaVuSans-102"/>
     <use x="458.236328" xlink:href="#DejaVuSans-105"/>
     <use x="486.019531" xlink:href="#DejaVuSans-99"/>
     <use x="541" xlink:href="#DejaVuSans-105"/>
     <use x="568.783203" xlink:href="#DejaVuSans-101"/>
     <use x="630.306641" xlink:href="#DejaVuSans-110"/>
     <use x="693.685547" xlink:href="#DejaVuSans-99"/>
     <use x="748.666016" xlink:href="#DejaVuSans-121"/>
     <use x="807.845703" xlink:href="#DejaVuSans-32"/>
     <use x="839.632812" xlink:href="#DejaVuSans-118"/>
     <use x="898.8125" xlink:href="#DejaVuSans-115"/>
     <use x="950.912109" xlink:href="#DejaVuSans-32"/>
     <use x="982.699219" xlink:href="#DejaVuSans-66"/>
     <use x="1051.302734" xlink:href="#DejaVuSans-68"/>
     <use x="1128.304688" xlink:href="#DejaVuSans-84"/>
     <use x="1189.388672" xlink:href="#DejaVuSans-77"/>
     <use x="1275.667969" xlink:href="#DejaVuSans-117"/>
     <use x="1339.046875" xlink:href="#DejaVuSans-108"/>
     <use x="1366.830078" xlink:href="#DejaVuSans-116"/>
     <use x="1406.039062" xlink:href="#DejaVuSans-105"/>
     <use x="1433.822266" xlink:href="#DejaVuSans-32"/>
     <use x="1465.609375" xlink:href="#DejaVuSans-67"/>
     <use x="1535.433594" xlink:href="#DejaVuSans-117"/>
     <use x="1598.8125" xlink:href="#DejaVuSans-116"/>
     <use x="1638.021484" xlink:href="#DejaVuSans-111"/>
     <use x="1699.203125" xlink:href="#DejaVuSans-102"/>
     <use x="1734.408203" xlink:href="#DejaVuSans-102"/>
     <use x="1769.613281" xlink:href="#DejaVuSans-32"/>
     <use x="1801.400391" xlink:href="#DejaVuSans-8212"/>
     <use x="1901.400391" xlink:href="#DejaVuSans-32"/>
     <use x="1933.1875" xlink:href="#DejaVuSans-101"/>
     <use x="1994.710938" xlink:href="#DejaVuSans-108"/>
     <use x="2022.494141" xlink:href="#DejaVuSans-101"/>
     <use x="2084.017578" xlink:href="#DejaVuSans-99"/>
     <use x="2138.998047" xlink:href="#DejaVuSans-116"/>
     <use x="2178.207031" xlink:href="#DejaVuSans-114"/>
     <use x="2219.289062" xlink:href="#DejaVuSans-111"/>
     <use x="2280.470703" xlink:href="#DejaVuSans-110"/>
    </g>
   </g>
   <g id="legend_2">
    <g id="patch_13">
     <path d="M 978.703494 454.84 
L 1196.092869 454.84 
Q 1199.692869 454.84 1199.692869 451.24 
L 1199.692869 373.778125 
Q 1199.692869 370.178125 1196.092869 370.178125 
L 978.703494 370.178125 
Q 975.103494 370.178125 975.103494 373.778125 
L 975.103494 451.24 
Q 975.103494 454.84 978.703494 454.84 
z
" style="fill:#ffffff;opacity:0.8;stroke:#cccccc;stroke-linejoin:miter;"/>
    </g>
    <g id="line2d_41">
     <path d="M 982.303494 384.755313 
L 1018.303494 384.755313 
" style="fill:none;stroke:#0000ff;stroke-linecap:square;stroke-width:1.5;"/>
    </g>
    <g id="line2d_42"/>
    <g id="text_36">
     <!-- Efficiency -->
     <g transform="translate(1032.703494 391.055313)scale(0.18 -0.18)">
      <use xlink:href="#DejaVuSans-69"/>
      <use x="63.183594" xlink:href="#DejaVuSans-102"/>
      <use x="98.388672" xlink:href="#DejaVuSans-102"/>
      <use x="133.59375" xlink:href="#DejaVuSans-105"/>
      <use x="161.376953" xlink:href="#DejaVuSans-99"/>
      <use x="216.357422" xlink:href="#DejaVuSans-105"/>
      <use x="244.140625" xlink:href="#DejaVuSans-101"/>
      <use x="305.664062" xlink:href="#DejaVuSans-110"/>
      <use x="369.042969" xlink:href="#DejaVuSans-99"/>
      <use x="424.023438" xlink:href="#DejaVuSans-121"/>
     </g>
    </g>
    <g id="line2d_43">
     <path d="M 982.303494 411.175937 
L 1018.303494 411.175937 
" style="fill:none;stroke:#ff0000;stroke-linecap:square;stroke-width:1.5;"/>
    </g>
    <g id="line2d_44"/>
    <g id="text_37">
     <!-- Purity -->
     <g transform="translate(1032.703494 417.475937)scale(0.18 -0.18)">
      <use xlink:href="#DejaVuSans-80"/>
      <use x="60.287109" xlink:href="#DejaVuSans-117"/>
      <use x="123.666016" xlink:href="#DejaVuSans-114"/>
      <use x="164.779297" xlink:href="#DejaVuSans-105"/>
      <use x="192.5625" xlink:href="#DejaVuSans-116"/>
      <use x="231.771484" xlink:href="#DejaVuSans-121"/>
     </g>
    </g>
    <g id="line2d_45">
     <path d="M 982.303494 437.596562 
L 1018.303494 437.596562 
" style="fill:none;stroke:#008000;stroke-linecap:square;stroke-width:1.5;"/>
    </g>
    <g id="line2d_46"/>
    <g id="text_38">
     <!-- Purity * Efficiency -->
     <g transform="translate(1032.703494 443.896562)scale(0.18 -0.18)">
      <use xlink:href="#DejaVuSans-80"/>
      <use x="60.287109" xlink:href="#DejaVuSans-117"/>
      <use x="123.666016" xlink:href="#DejaVuSans-114"/>
      <use x="164.779297" xlink:href="#DejaVuSans-105"/>
      <use x="192.5625" xlink:href="#DejaVuSans-116"/>
      <use x="231.771484" xlink:href="#DejaVuSans-121"/>
      <use x="290.951172" xlink:href="#DejaVuSans-32"/>
      <use x="322.738281" xlink:href="#DejaVuSans-42"/>
      <use x="372.738281" xlink:href="#DejaVuSans-32"/>
      <use x="404.525391" xlink:href="#DejaVuSans-69"/>
      <use x="467.708984" xlink:href="#DejaVuSans-102"/>
      <use x="502.914062" xlink:href="#DejaVuSans-102"/>
      <use x="538.119141" xlink:href="#DejaVuSans-105"/>
      <use x="565.902344" xlink:href="#DejaVuSans-99"/>
      <use x="620.882812" xlink:href="#DejaVuSans-105"/>
      <use x="648.666016" xlink:href="#DejaVuSans-101"/>
      <use x="710.189453" xlink:href="#DejaVuSans-110"/>
      <use x="773.568359" xlink:href="#DejaVuSans-99"/>
      <use x="828.548828" xlink:href="#DejaVuSans-121"/>
     </g>
    </g>
   </g>
  </g>
 </g>
 <defs>
  <clipPath id="p84199a222c">
   <rect height="422.2" width="572.666364" x="92.99" y="41.64"/>
  </clipPath>
  <clipPath id="pef27d4893c">
   <rect height="422.2" width="572.666364" x="801.065" y="41.64"/>
  </clipPath>
 </defs>
</svg>
