<?xml version="1.0" encoding="utf-8" standalone="no"?>
<!DOCTYPE svg PUBLIC "-//W3C//DTD SVG 1.1//EN"
  "http://www.w3.org/Graphics/SVG/1.1/DTD/svg11.dtd">
<!-- Created with matplotlib (https://matplotlib.org/) -->
<svg height="540pt" version="1.1" viewBox="0 0 1440 540" width="1440pt" xmlns="http://www.w3.org/2000/svg" xmlns:xlink="http://www.w3.org/1999/xlink">
 <defs>
  <style type="text/css">
*{stroke-linecap:butt;stroke-linejoin:round;}
  </style>
 </defs>
 <g id="figure_1">
  <g id="patch_1">
   <path d="M 0 540 
L 1440 540 
L 1440 0 
L 0 0 
z
" style="fill:#ffffff;"/>
  </g>
  <g id="axes_1">
   <g id="patch_2">
    <path d="M 116.848636 463.84 
L 603.601364 463.84 
L 603.601364 41.64 
L 116.848636 41.64 
z
" style="fill:#ffffff;"/>
   </g>
   <g id="matplotlib.axis_1">
    <g id="xtick_1">
     <g id="line2d_1">
      <defs>
       <path d="M 0 0 
L 0 3.5 
" id="m4eb05b944e" style="stroke:#000000;stroke-width:0.8;"/>
      </defs>
      <g>
       <use style="stroke:#000000;stroke-width:0.8;" x="138.97376" xlink:href="#m4eb05b944e" y="463.84"/>
      </g>
     </g>
     <g id="text_1">
      <!-- 0.4 -->
      <defs>
       <path d="M 31.78125 66.40625 
Q 24.171875 66.40625 20.328125 58.90625 
Q 16.5 51.421875 16.5 36.375 
Q 16.5 21.390625 20.328125 13.890625 
Q 24.171875 6.390625 31.78125 6.390625 
Q 39.453125 6.390625 43.28125 13.890625 
Q 47.125 21.390625 47.125 36.375 
Q 47.125 51.421875 43.28125 58.90625 
Q 39.453125 66.40625 31.78125 66.40625 
z
M 31.78125 74.21875 
Q 44.046875 74.21875 50.515625 64.515625 
Q 56.984375 54.828125 56.984375 36.375 
Q 56.984375 17.96875 50.515625 8.265625 
Q 44.046875 -1.421875 31.78125 -1.421875 
Q 19.53125 -1.421875 13.0625 8.265625 
Q 6.59375 17.96875 6.59375 36.375 
Q 6.59375 54.828125 13.0625 64.515625 
Q 19.53125 74.21875 31.78125 74.21875 
z
" id="DejaVuSans-48"/>
       <path d="M 10.6875 12.40625 
L 21 12.40625 
L 21 0 
L 10.6875 0 
z
" id="DejaVuSans-46"/>
       <path d="M 37.796875 64.3125 
L 12.890625 25.390625 
L 37.796875 25.390625 
z
M 35.203125 72.90625 
L 47.609375 72.90625 
L 47.609375 25.390625 
L 58.015625 25.390625 
L 58.015625 17.1875 
L 47.609375 17.1875 
L 47.609375 0 
L 37.796875 0 
L 37.796875 17.1875 
L 4.890625 17.1875 
L 4.890625 26.703125 
z
" id="DejaVuSans-52"/>
      </defs>
      <g transform="translate(118.36331 490.53515)scale(0.2592 -0.2592)">
       <use xlink:href="#DejaVuSans-48"/>
       <use x="63.623047" xlink:href="#DejaVuSans-46"/>
       <use x="95.410156" xlink:href="#DejaVuSans-52"/>
      </g>
     </g>
    </g>
    <g id="xtick_2">
     <g id="line2d_2">
      <g>
       <use style="stroke:#000000;stroke-width:0.8;" x="249.59938" xlink:href="#m4eb05b944e" y="463.84"/>
      </g>
     </g>
     <g id="text_2">
      <!-- 0.5 -->
      <defs>
       <path d="M 10.796875 72.90625 
L 49.515625 72.90625 
L 49.515625 64.59375 
L 19.828125 64.59375 
L 19.828125 46.734375 
Q 21.96875 47.46875 24.109375 47.828125 
Q 26.265625 48.1875 28.421875 48.1875 
Q 40.625 48.1875 47.75 41.5 
Q 54.890625 34.8125 54.890625 23.390625 
Q 54.890625 11.625 47.5625 5.09375 
Q 40.234375 -1.421875 26.90625 -1.421875 
Q 22.3125 -1.421875 17.546875 -0.640625 
Q 12.796875 0.140625 7.71875 1.703125 
L 7.71875 11.625 
Q 12.109375 9.234375 16.796875 8.0625 
Q 21.484375 6.890625 26.703125 6.890625 
Q 35.15625 6.890625 40.078125 11.328125 
Q 45.015625 15.765625 45.015625 23.390625 
Q 45.015625 31 40.078125 35.4375 
Q 35.15625 39.890625 26.703125 39.890625 
Q 22.75 39.890625 18.8125 39.015625 
Q 14.890625 38.140625 10.796875 36.28125 
z
" id="DejaVuSans-53"/>
      </defs>
      <g transform="translate(228.98893 490.53515)scale(0.2592 -0.2592)">
       <use xlink:href="#DejaVuSans-48"/>
       <use x="63.623047" xlink:href="#DejaVuSans-46"/>
       <use x="95.410156" xlink:href="#DejaVuSans-53"/>
      </g>
     </g>
    </g>
    <g id="xtick_3">
     <g id="line2d_3">
      <g>
       <use style="stroke:#000000;stroke-width:0.8;" x="360.225" xlink:href="#m4eb05b944e" y="463.84"/>
      </g>
     </g>
     <g id="text_3">
      <!-- 0.6 -->
      <defs>
       <path d="M 33.015625 40.375 
Q 26.375 40.375 22.484375 35.828125 
Q 18.609375 31.296875 18.609375 23.390625 
Q 18.609375 15.53125 22.484375 10.953125 
Q 26.375 6.390625 33.015625 6.390625 
Q 39.65625 6.390625 43.53125 10.953125 
Q 47.40625 15.53125 47.40625 23.390625 
Q 47.40625 31.296875 43.53125 35.828125 
Q 39.65625 40.375 33.015625 40.375 
z
M 52.59375 71.296875 
L 52.59375 62.3125 
Q 48.875 64.0625 45.09375 64.984375 
Q 41.3125 65.921875 37.59375 65.921875 
Q 27.828125 65.921875 22.671875 59.328125 
Q 17.53125 52.734375 16.796875 39.40625 
Q 19.671875 43.65625 24.015625 45.921875 
Q 28.375 48.1875 33.59375 48.1875 
Q 44.578125 48.1875 50.953125 41.515625 
Q 57.328125 34.859375 57.328125 23.390625 
Q 57.328125 12.15625 50.6875 5.359375 
Q 44.046875 -1.421875 33.015625 -1.421875 
Q 20.359375 -1.421875 13.671875 8.265625 
Q 6.984375 17.96875 6.984375 36.375 
Q 6.984375 53.65625 15.1875 63.9375 
Q 23.390625 74.21875 37.203125 74.21875 
Q 40.921875 74.21875 44.703125 73.484375 
Q 48.484375 72.75 52.59375 71.296875 
z
" id="DejaVuSans-54"/>
      </defs>
      <g transform="translate(339.61455 490.53515)scale(0.2592 -0.2592)">
       <use xlink:href="#DejaVuSans-48"/>
       <use x="63.623047" xlink:href="#DejaVuSans-46"/>
       <use x="95.410156" xlink:href="#DejaVuSans-54"/>
      </g>
     </g>
    </g>
    <g id="xtick_4">
     <g id="line2d_4">
      <g>
       <use style="stroke:#000000;stroke-width:0.8;" x="470.85062" xlink:href="#m4eb05b944e" y="463.84"/>
      </g>
     </g>
     <g id="text_4">
      <!-- 0.7 -->
      <defs>
       <path d="M 8.203125 72.90625 
L 55.078125 72.90625 
L 55.078125 68.703125 
L 28.609375 0 
L 18.3125 0 
L 43.21875 64.59375 
L 8.203125 64.59375 
z
" id="DejaVuSans-55"/>
      </defs>
      <g transform="translate(450.24017 490.53515)scale(0.2592 -0.2592)">
       <use xlink:href="#DejaVuSans-48"/>
       <use x="63.623047" xlink:href="#DejaVuSans-46"/>
       <use x="95.410156" xlink:href="#DejaVuSans-55"/>
      </g>
     </g>
    </g>
    <g id="xtick_5">
     <g id="line2d_5">
      <g>
       <use style="stroke:#000000;stroke-width:0.8;" x="581.47624" xlink:href="#m4eb05b944e" y="463.84"/>
      </g>
     </g>
     <g id="text_5">
      <!-- 0.8 -->
      <defs>
       <path d="M 31.78125 34.625 
Q 24.75 34.625 20.71875 30.859375 
Q 16.703125 27.09375 16.703125 20.515625 
Q 16.703125 13.921875 20.71875 10.15625 
Q 24.75 6.390625 31.78125 6.390625 
Q 38.8125 6.390625 42.859375 10.171875 
Q 46.921875 13.96875 46.921875 20.515625 
Q 46.921875 27.09375 42.890625 30.859375 
Q 38.875 34.625 31.78125 34.625 
z
M 21.921875 38.8125 
Q 15.578125 40.375 12.03125 44.71875 
Q 8.5 49.078125 8.5 55.328125 
Q 8.5 64.0625 14.71875 69.140625 
Q 20.953125 74.21875 31.78125 74.21875 
Q 42.671875 74.21875 48.875 69.140625 
Q 55.078125 64.0625 55.078125 55.328125 
Q 55.078125 49.078125 51.53125 44.71875 
Q 48 40.375 41.703125 38.8125 
Q 48.828125 37.15625 52.796875 32.3125 
Q 56.78125 27.484375 56.78125 20.515625 
Q 56.78125 9.90625 50.3125 4.234375 
Q 43.84375 -1.421875 31.78125 -1.421875 
Q 19.734375 -1.421875 13.25 4.234375 
Q 6.78125 9.90625 6.78125 20.515625 
Q 6.78125 27.484375 10.78125 32.3125 
Q 14.796875 37.15625 21.921875 38.8125 
z
M 18.3125 54.390625 
Q 18.3125 48.734375 21.84375 45.5625 
Q 25.390625 42.390625 31.78125 42.390625 
Q 38.140625 42.390625 41.71875 45.5625 
Q 45.3125 48.734375 45.3125 54.390625 
Q 45.3125 60.0625 41.71875 63.234375 
Q 38.140625 66.40625 31.78125 66.40625 
Q 25.390625 66.40625 21.84375 63.234375 
Q 18.3125 60.0625 18.3125 54.390625 
z
" id="DejaVuSans-56"/>
      </defs>
      <g transform="translate(560.86579 490.53515)scale(0.2592 -0.2592)">
       <use xlink:href="#DejaVuSans-48"/>
       <use x="63.623047" xlink:href="#DejaVuSans-46"/>
       <use x="95.410156" xlink:href="#DejaVuSans-56"/>
      </g>
     </g>
    </g>
    <g id="text_6">
     <!-- nuMcpMomentum Cutoff -->
     <defs>
      <path d="M 54.890625 33.015625 
L 54.890625 0 
L 45.90625 0 
L 45.90625 32.71875 
Q 45.90625 40.484375 42.875 44.328125 
Q 39.84375 48.1875 33.796875 48.1875 
Q 26.515625 48.1875 22.3125 43.546875 
Q 18.109375 38.921875 18.109375 30.90625 
L 18.109375 0 
L 9.078125 0 
L 9.078125 54.6875 
L 18.109375 54.6875 
L 18.109375 46.1875 
Q 21.34375 51.125 25.703125 53.5625 
Q 30.078125 56 35.796875 56 
Q 45.21875 56 50.046875 50.171875 
Q 54.890625 44.34375 54.890625 33.015625 
z
" id="DejaVuSans-110"/>
      <path d="M 8.5 21.578125 
L 8.5 54.6875 
L 17.484375 54.6875 
L 17.484375 21.921875 
Q 17.484375 14.15625 20.5 10.265625 
Q 23.53125 6.390625 29.59375 6.390625 
Q 36.859375 6.390625 41.078125 11.03125 
Q 45.3125 15.671875 45.3125 23.6875 
L 45.3125 54.6875 
L 54.296875 54.6875 
L 54.296875 0 
L 45.3125 0 
L 45.3125 8.40625 
Q 42.046875 3.421875 37.71875 1 
Q 33.40625 -1.421875 27.6875 -1.421875 
Q 18.265625 -1.421875 13.375 4.4375 
Q 8.5 10.296875 8.5 21.578125 
z
M 31.109375 56 
z
" id="DejaVuSans-117"/>
      <path d="M 9.8125 72.90625 
L 24.515625 72.90625 
L 43.109375 23.296875 
L 61.8125 72.90625 
L 76.515625 72.90625 
L 76.515625 0 
L 66.890625 0 
L 66.890625 64.015625 
L 48.09375 14.015625 
L 38.1875 14.015625 
L 19.390625 64.015625 
L 19.390625 0 
L 9.8125 0 
z
" id="DejaVuSans-77"/>
      <path d="M 48.78125 52.59375 
L 48.78125 44.1875 
Q 44.96875 46.296875 41.140625 47.34375 
Q 37.3125 48.390625 33.40625 48.390625 
Q 24.65625 48.390625 19.8125 42.84375 
Q 14.984375 37.3125 14.984375 27.296875 
Q 14.984375 17.28125 19.8125 11.734375 
Q 24.65625 6.203125 33.40625 6.203125 
Q 37.3125 6.203125 41.140625 7.25 
Q 44.96875 8.296875 48.78125 10.40625 
L 48.78125 2.09375 
Q 45.015625 0.34375 40.984375 -0.53125 
Q 36.96875 -1.421875 32.421875 -1.421875 
Q 20.0625 -1.421875 12.78125 6.34375 
Q 5.515625 14.109375 5.515625 27.296875 
Q 5.515625 40.671875 12.859375 48.328125 
Q 20.21875 56 33.015625 56 
Q 37.15625 56 41.109375 55.140625 
Q 45.0625 54.296875 48.78125 52.59375 
z
" id="DejaVuSans-99"/>
      <path d="M 18.109375 8.203125 
L 18.109375 -20.796875 
L 9.078125 -20.796875 
L 9.078125 54.6875 
L 18.109375 54.6875 
L 18.109375 46.390625 
Q 20.953125 51.265625 25.265625 53.625 
Q 29.59375 56 35.59375 56 
Q 45.5625 56 51.78125 48.09375 
Q 58.015625 40.1875 58.015625 27.296875 
Q 58.015625 14.40625 51.78125 6.484375 
Q 45.5625 -1.421875 35.59375 -1.421875 
Q 29.59375 -1.421875 25.265625 0.953125 
Q 20.953125 3.328125 18.109375 8.203125 
z
M 48.6875 27.296875 
Q 48.6875 37.203125 44.609375 42.84375 
Q 40.53125 48.484375 33.40625 48.484375 
Q 26.265625 48.484375 22.1875 42.84375 
Q 18.109375 37.203125 18.109375 27.296875 
Q 18.109375 17.390625 22.1875 11.75 
Q 26.265625 6.109375 33.40625 6.109375 
Q 40.53125 6.109375 44.609375 11.75 
Q 48.6875 17.390625 48.6875 27.296875 
z
" id="DejaVuSans-112"/>
      <path d="M 30.609375 48.390625 
Q 23.390625 48.390625 19.1875 42.75 
Q 14.984375 37.109375 14.984375 27.296875 
Q 14.984375 17.484375 19.15625 11.84375 
Q 23.34375 6.203125 30.609375 6.203125 
Q 37.796875 6.203125 41.984375 11.859375 
Q 46.1875 17.53125 46.1875 27.296875 
Q 46.1875 37.015625 41.984375 42.703125 
Q 37.796875 48.390625 30.609375 48.390625 
z
M 30.609375 56 
Q 42.328125 56 49.015625 48.375 
Q 55.71875 40.765625 55.71875 27.296875 
Q 55.71875 13.875 49.015625 6.21875 
Q 42.328125 -1.421875 30.609375 -1.421875 
Q 18.84375 -1.421875 12.171875 6.21875 
Q 5.515625 13.875 5.515625 27.296875 
Q 5.515625 40.765625 12.171875 48.375 
Q 18.84375 56 30.609375 56 
z
" id="DejaVuSans-111"/>
      <path d="M 52 44.1875 
Q 55.375 50.25 60.0625 53.125 
Q 64.75 56 71.09375 56 
Q 79.640625 56 84.28125 50.015625 
Q 88.921875 44.046875 88.921875 33.015625 
L 88.921875 0 
L 79.890625 0 
L 79.890625 32.71875 
Q 79.890625 40.578125 77.09375 44.375 
Q 74.3125 48.1875 68.609375 48.1875 
Q 61.625 48.1875 57.5625 43.546875 
Q 53.515625 38.921875 53.515625 30.90625 
L 53.515625 0 
L 44.484375 0 
L 44.484375 32.71875 
Q 44.484375 40.625 41.703125 44.40625 
Q 38.921875 48.1875 33.109375 48.1875 
Q 26.21875 48.1875 22.15625 43.53125 
Q 18.109375 38.875 18.109375 30.90625 
L 18.109375 0 
L 9.078125 0 
L 9.078125 54.6875 
L 18.109375 54.6875 
L 18.109375 46.1875 
Q 21.1875 51.21875 25.484375 53.609375 
Q 29.78125 56 35.6875 56 
Q 41.65625 56 45.828125 52.96875 
Q 50 49.953125 52 44.1875 
z
" id="DejaVuSans-109"/>
      <path d="M 56.203125 29.59375 
L 56.203125 25.203125 
L 14.890625 25.203125 
Q 15.484375 15.921875 20.484375 11.0625 
Q 25.484375 6.203125 34.421875 6.203125 
Q 39.59375 6.203125 44.453125 7.46875 
Q 49.3125 8.734375 54.109375 11.28125 
L 54.109375 2.78125 
Q 49.265625 0.734375 44.1875 -0.34375 
Q 39.109375 -1.421875 33.890625 -1.421875 
Q 20.796875 -1.421875 13.15625 6.1875 
Q 5.515625 13.8125 5.515625 26.8125 
Q 5.515625 40.234375 12.765625 48.109375 
Q 20.015625 56 32.328125 56 
Q 43.359375 56 49.78125 48.890625 
Q 56.203125 41.796875 56.203125 29.59375 
z
M 47.21875 32.234375 
Q 47.125 39.59375 43.09375 43.984375 
Q 39.0625 48.390625 32.421875 48.390625 
Q 24.90625 48.390625 20.390625 44.140625 
Q 15.875 39.890625 15.1875 32.171875 
z
" id="DejaVuSans-101"/>
      <path d="M 18.3125 70.21875 
L 18.3125 54.6875 
L 36.8125 54.6875 
L 36.8125 47.703125 
L 18.3125 47.703125 
L 18.3125 18.015625 
Q 18.3125 11.328125 20.140625 9.421875 
Q 21.96875 7.515625 27.59375 7.515625 
L 36.8125 7.515625 
L 36.8125 0 
L 27.59375 0 
Q 17.1875 0 13.234375 3.875 
Q 9.28125 7.765625 9.28125 18.015625 
L 9.28125 47.703125 
L 2.6875 47.703125 
L 2.6875 54.6875 
L 9.28125 54.6875 
L 9.28125 70.21875 
z
" id="DejaVuSans-116"/>
      <path id="DejaVuSans-32"/>
      <path d="M 64.40625 67.28125 
L 64.40625 56.890625 
Q 59.421875 61.53125 53.78125 63.8125 
Q 48.140625 66.109375 41.796875 66.109375 
Q 29.296875 66.109375 22.65625 58.46875 
Q 16.015625 50.828125 16.015625 36.375 
Q 16.015625 21.96875 22.65625 14.328125 
Q 29.296875 6.6875 41.796875 6.6875 
Q 48.140625 6.6875 53.78125 8.984375 
Q 59.421875 11.28125 64.40625 15.921875 
L 64.40625 5.609375 
Q 59.234375 2.09375 53.4375 0.328125 
Q 47.65625 -1.421875 41.21875 -1.421875 
Q 24.65625 -1.421875 15.125 8.703125 
Q 5.609375 18.84375 5.609375 36.375 
Q 5.609375 53.953125 15.125 64.078125 
Q 24.65625 74.21875 41.21875 74.21875 
Q 47.75 74.21875 53.53125 72.484375 
Q 59.328125 70.75 64.40625 67.28125 
z
" id="DejaVuSans-67"/>
      <path d="M 37.109375 75.984375 
L 37.109375 68.5 
L 28.515625 68.5 
Q 23.6875 68.5 21.796875 66.546875 
Q 19.921875 64.59375 19.921875 59.515625 
L 19.921875 54.6875 
L 34.71875 54.6875 
L 34.71875 47.703125 
L 19.921875 47.703125 
L 19.921875 0 
L 10.890625 0 
L 10.890625 47.703125 
L 2.296875 47.703125 
L 2.296875 54.6875 
L 10.890625 54.6875 
L 10.890625 58.5 
Q 10.890625 67.625 15.140625 71.796875 
Q 19.390625 75.984375 28.609375 75.984375 
z
" id="DejaVuSans-102"/>
     </defs>
     <g transform="translate(199.903725 519.62085)scale(0.2592 -0.2592)">
      <use xlink:href="#DejaVuSans-110"/>
      <use x="63.378906" xlink:href="#DejaVuSans-117"/>
      <use x="126.757812" xlink:href="#DejaVuSans-77"/>
      <use x="213.037109" xlink:href="#DejaVuSans-99"/>
      <use x="268.017578" xlink:href="#DejaVuSans-112"/>
      <use x="331.494141" xlink:href="#DejaVuSans-77"/>
      <use x="417.773438" xlink:href="#DejaVuSans-111"/>
      <use x="478.955078" xlink:href="#DejaVuSans-109"/>
      <use x="576.367188" xlink:href="#DejaVuSans-101"/>
      <use x="637.890625" xlink:href="#DejaVuSans-110"/>
      <use x="701.269531" xlink:href="#DejaVuSans-116"/>
      <use x="740.478516" xlink:href="#DejaVuSans-117"/>
      <use x="803.857422" xlink:href="#DejaVuSans-109"/>
      <use x="901.269531" xlink:href="#DejaVuSans-32"/>
      <use x="933.056641" xlink:href="#DejaVuSans-67"/>
      <use x="1002.880859" xlink:href="#DejaVuSans-117"/>
      <use x="1066.259766" xlink:href="#DejaVuSans-116"/>
      <use x="1105.46875" xlink:href="#DejaVuSans-111"/>
      <use x="1166.650391" xlink:href="#DejaVuSans-102"/>
      <use x="1201.855469" xlink:href="#DejaVuSans-102"/>
     </g>
    </g>
   </g>
   <g id="matplotlib.axis_2">
    <g id="ytick_1">
     <g id="line2d_6">
      <defs>
       <path d="M 0 0 
L -3.5 0 
" id="mb0325b61bf" style="stroke:#000000;stroke-width:0.8;"/>
      </defs>
      <g>
       <use style="stroke:#000000;stroke-width:0.8;" x="116.848636" xlink:href="#mb0325b61bf" y="463.84"/>
      </g>
     </g>
     <g id="text_7">
      <!-- 0.0 -->
      <g transform="translate(68.627736 473.687575)scale(0.2592 -0.2592)">
       <use xlink:href="#DejaVuSans-48"/>
       <use x="63.623047" xlink:href="#DejaVuSans-46"/>
       <use x="95.410156" xlink:href="#DejaVuSans-48"/>
      </g>
     </g>
    </g>
    <g id="ytick_2">
     <g id="line2d_7">
      <g>
       <use style="stroke:#000000;stroke-width:0.8;" x="116.848636" xlink:href="#mb0325b61bf" y="379.4"/>
      </g>
     </g>
     <g id="text_8">
      <!-- 0.2 -->
      <defs>
       <path d="M 19.1875 8.296875 
L 53.609375 8.296875 
L 53.609375 0 
L 7.328125 0 
L 7.328125 8.296875 
Q 12.9375 14.109375 22.625 23.890625 
Q 32.328125 33.6875 34.8125 36.53125 
Q 39.546875 41.84375 41.421875 45.53125 
Q 43.3125 49.21875 43.3125 52.78125 
Q 43.3125 58.59375 39.234375 62.25 
Q 35.15625 65.921875 28.609375 65.921875 
Q 23.96875 65.921875 18.8125 64.3125 
Q 13.671875 62.703125 7.8125 59.421875 
L 7.8125 69.390625 
Q 13.765625 71.78125 18.9375 73 
Q 24.125 74.21875 28.421875 74.21875 
Q 39.75 74.21875 46.484375 68.546875 
Q 53.21875 62.890625 53.21875 53.421875 
Q 53.21875 48.921875 51.53125 44.890625 
Q 49.859375 40.875 45.40625 35.40625 
Q 44.1875 33.984375 37.640625 27.21875 
Q 31.109375 20.453125 19.1875 8.296875 
z
" id="DejaVuSans-50"/>
      </defs>
      <g transform="translate(68.627736 389.247575)scale(0.2592 -0.2592)">
       <use xlink:href="#DejaVuSans-48"/>
       <use x="63.623047" xlink:href="#DejaVuSans-46"/>
       <use x="95.410156" xlink:href="#DejaVuSans-50"/>
      </g>
     </g>
    </g>
    <g id="ytick_3">
     <g id="line2d_8">
      <g>
       <use style="stroke:#000000;stroke-width:0.8;" x="116.848636" xlink:href="#mb0325b61bf" y="294.96"/>
      </g>
     </g>
     <g id="text_9">
      <!-- 0.4 -->
      <g transform="translate(68.627736 304.807575)scale(0.2592 -0.2592)">
       <use xlink:href="#DejaVuSans-48"/>
       <use x="63.623047" xlink:href="#DejaVuSans-46"/>
       <use x="95.410156" xlink:href="#DejaVuSans-52"/>
      </g>
     </g>
    </g>
    <g id="ytick_4">
     <g id="line2d_9">
      <g>
       <use style="stroke:#000000;stroke-width:0.8;" x="116.848636" xlink:href="#mb0325b61bf" y="210.52"/>
      </g>
     </g>
     <g id="text_10">
      <!-- 0.6 -->
      <g transform="translate(68.627736 220.367575)scale(0.2592 -0.2592)">
       <use xlink:href="#DejaVuSans-48"/>
       <use x="63.623047" xlink:href="#DejaVuSans-46"/>
       <use x="95.410156" xlink:href="#DejaVuSans-54"/>
      </g>
     </g>
    </g>
    <g id="ytick_5">
     <g id="line2d_10">
      <g>
       <use style="stroke:#000000;stroke-width:0.8;" x="116.848636" xlink:href="#mb0325b61bf" y="126.08"/>
      </g>
     </g>
     <g id="text_11">
      <!-- 0.8 -->
      <g transform="translate(68.627736 135.927575)scale(0.2592 -0.2592)">
       <use xlink:href="#DejaVuSans-48"/>
       <use x="63.623047" xlink:href="#DejaVuSans-46"/>
       <use x="95.410156" xlink:href="#DejaVuSans-56"/>
      </g>
     </g>
    </g>
    <g id="ytick_6">
     <g id="line2d_11">
      <g>
       <use style="stroke:#000000;stroke-width:0.8;" x="116.848636" xlink:href="#mb0325b61bf" y="41.64"/>
      </g>
     </g>
     <g id="text_12">
      <!-- 1.0 -->
      <defs>
       <path d="M 12.40625 8.296875 
L 28.515625 8.296875 
L 28.515625 63.921875 
L 10.984375 60.40625 
L 10.984375 69.390625 
L 28.421875 72.90625 
L 38.28125 72.90625 
L 38.28125 8.296875 
L 54.390625 8.296875 
L 54.390625 0 
L 12.40625 0 
z
" id="DejaVuSans-49"/>
      </defs>
      <g transform="translate(68.627736 51.487575)scale(0.2592 -0.2592)">
       <use xlink:href="#DejaVuSans-49"/>
       <use x="63.623047" xlink:href="#DejaVuSans-46"/>
       <use x="95.410156" xlink:href="#DejaVuSans-48"/>
      </g>
     </g>
    </g>
    <g id="text_13">
     <!-- Fraction -->
     <defs>
      <path d="M 9.8125 72.90625 
L 51.703125 72.90625 
L 51.703125 64.59375 
L 19.671875 64.59375 
L 19.671875 43.109375 
L 48.578125 43.109375 
L 48.578125 34.8125 
L 19.671875 34.8125 
L 19.671875 0 
L 9.8125 0 
z
" id="DejaVuSans-70"/>
      <path d="M 41.109375 46.296875 
Q 39.59375 47.171875 37.8125 47.578125 
Q 36.03125 48 33.890625 48 
Q 26.265625 48 22.1875 43.046875 
Q 18.109375 38.09375 18.109375 28.8125 
L 18.109375 0 
L 9.078125 0 
L 9.078125 54.6875 
L 18.109375 54.6875 
L 18.109375 46.1875 
Q 20.953125 51.171875 25.484375 53.578125 
Q 30.03125 56 36.53125 56 
Q 37.453125 56 38.578125 55.875 
Q 39.703125 55.765625 41.0625 55.515625 
z
" id="DejaVuSans-114"/>
      <path d="M 34.28125 27.484375 
Q 23.390625 27.484375 19.1875 25 
Q 14.984375 22.515625 14.984375 16.5 
Q 14.984375 11.71875 18.140625 8.90625 
Q 21.296875 6.109375 26.703125 6.109375 
Q 34.1875 6.109375 38.703125 11.40625 
Q 43.21875 16.703125 43.21875 25.484375 
L 43.21875 27.484375 
z
M 52.203125 31.203125 
L 52.203125 0 
L 43.21875 0 
L 43.21875 8.296875 
Q 40.140625 3.328125 35.546875 0.953125 
Q 30.953125 -1.421875 24.3125 -1.421875 
Q 15.921875 -1.421875 10.953125 3.296875 
Q 6 8.015625 6 15.921875 
Q 6 25.140625 12.171875 29.828125 
Q 18.359375 34.515625 30.609375 34.515625 
L 43.21875 34.515625 
L 43.21875 35.40625 
Q 43.21875 41.609375 39.140625 45 
Q 35.0625 48.390625 27.6875 48.390625 
Q 23 48.390625 18.546875 47.265625 
Q 14.109375 46.140625 10.015625 43.890625 
L 10.015625 52.203125 
Q 14.9375 54.109375 19.578125 55.046875 
Q 24.21875 56 28.609375 56 
Q 40.484375 56 46.34375 49.84375 
Q 52.203125 43.703125 52.203125 31.203125 
z
" id="DejaVuSans-97"/>
      <path d="M 9.421875 54.6875 
L 18.40625 54.6875 
L 18.40625 0 
L 9.421875 0 
z
M 9.421875 75.984375 
L 18.40625 75.984375 
L 18.40625 64.59375 
L 9.421875 64.59375 
z
" id="DejaVuSans-105"/>
     </defs>
     <g transform="translate(59.237186 305.400125)rotate(-90)scale(0.2592 -0.2592)">
      <use xlink:href="#DejaVuSans-70"/>
      <use x="57.410156" xlink:href="#DejaVuSans-114"/>
      <use x="98.523438" xlink:href="#DejaVuSans-97"/>
      <use x="159.802734" xlink:href="#DejaVuSans-99"/>
      <use x="214.783203" xlink:href="#DejaVuSans-116"/>
      <use x="253.992188" xlink:href="#DejaVuSans-105"/>
      <use x="281.775391" xlink:href="#DejaVuSans-111"/>
      <use x="342.957031" xlink:href="#DejaVuSans-110"/>
     </g>
    </g>
   </g>
   <g id="line2d_12">
    <path clip-path="url(#pd9adf0dfd6)" d="M 138.97376 41.64 
L 284.702805 41.64 
L 285.145751 53.050811 
L 291.346986 53.050811 
L 291.789932 64.461622 
L 309.507749 64.461622 
L 309.950694 75.872432 
L 316.15193 75.872432 
L 316.594876 87.283243 
L 348.486946 87.283243 
L 349.372837 132.926486 
L 360.446473 132.926486 
L 360.889418 144.337297 
L 367.5336 144.337297 
L 367.976545 155.748108 
L 371.520108 155.748108 
L 371.963054 167.158919 
L 395.439161 167.158919 
L 395.882107 178.56973 
L 410.499306 178.56973 
L 410.942251 189.980541 
L 414.92876 189.980541 
L 415.371705 201.391351 
L 429.103014 201.391351 
L 429.545959 224.212973 
L 442.391376 224.212973 
L 443.277267 247.034595 
L 452.579121 247.034595 
L 453.022066 269.856216 
L 462.766866 269.856216 
L 463.209811 281.267027 
L 473.397556 281.267027 
L 473.840501 292.677838 
L 481.813519 292.677838 
L 482.256465 304.088649 
L 490.672428 304.088649 
L 491.115373 315.499459 
L 491.558318 315.499459 
L 492.001264 326.91027 
L 501.746063 326.91027 
L 502.189009 338.321081 
L 512.819699 338.321081 
L 513.262644 349.731892 
L 519.906826 349.731892 
L 520.349771 361.142703 
L 529.651625 361.142703 
L 530.09457 383.964324 
L 534.081079 383.964324 
L 534.524025 395.375135 
L 544.268824 395.375135 
L 544.711769 406.785946 
L 557.557187 406.785946 
L 558.000132 429.607568 
L 559.771914 429.607568 
L 560.214859 441.018378 
L 563.315477 441.018378 
L 563.758423 452.429189 
L 566.416095 452.429189 
L 566.859041 463.84 
L 581.47624 463.84 
L 581.47624 463.84 
" style="fill:none;stroke:#0000ff;stroke-linecap:square;stroke-width:1.5;"/>
   </g>
   <g id="line2d_13">
    <path clip-path="url(#pd9adf0dfd6)" d="M 138.97376 377.054444 
L 139.416706 377.054444 
L 139.859651 376.569609 
L 151.376232 376.569609 
L 151.819178 376.079326 
L 154.919796 376.079326 
L 155.362741 375.082045 
L 161.563977 375.082045 
L 162.006922 374.574857 
L 167.322268 374.574857 
L 167.765213 374.061839 
L 171.308776 374.061839 
L 171.751722 373.54289 
L 177.952958 373.54289 
L 178.395903 373.017907 
L 185.040085 373.017907 
L 185.48303 372.486784 
L 192.127211 372.486784 
L 192.570157 371.949412 
L 200.100229 371.949412 
L 200.543174 371.40568 
L 206.74441 371.40568 
L 207.187356 370.855476 
L 210.287974 370.855476 
L 210.730919 370.298683 
L 211.173865 370.298683 
L 211.61681 369.735181 
L 213.831537 369.735181 
L 214.274483 369.164848 
L 216.932155 369.164848 
L 217.375101 368.587561 
L 224.019282 368.587561 
L 224.462227 368.00319 
L 226.676954 368.00319 
L 227.1199 367.411605 
L 229.777572 367.411605 
L 230.220518 366.812671 
L 232.435245 366.812671 
L 233.321136 365.592201 
L 243.951826 365.592201 
L 244.394771 364.97038 
L 256.797243 364.97038 
L 257.240189 364.340637 
L 259.01197 364.340637 
L 259.454916 363.056774 
L 269.199715 363.056774 
L 269.642661 362.402338 
L 270.085606 362.402338 
L 270.971497 361.067632 
L 273.629169 361.067632 
L 274.072115 360.38702 
L 275.400951 360.38702 
L 275.843897 359.697333 
L 280.273351 359.697333 
L 280.716296 358.998389 
L 282.045133 358.998389 
L 282.488078 358.29 
L 282.931023 358.29 
L 283.373969 356.106207 
L 284.702805 356.106207 
L 285.145751 357.551888 
L 289.132259 357.551888 
L 289.575205 356.80338 
L 290.461096 356.80338 
L 290.904041 356.044255 
L 291.346986 356.044255 
L 291.789932 357.530647 
L 296.219386 357.530647 
L 296.662332 356.76029 
L 299.320004 356.76029 
L 299.76295 355.978686 
L 300.64884 355.978686 
L 301.091786 355.185588 
L 302.420622 355.185588 
L 302.863567 354.380741 
L 309.064803 354.380741 
L 309.507749 353.563881 
L 309.950694 355.909173 
L 313.051312 355.909173 
L 313.494258 355.091515 
L 316.15193 355.091515 
L 316.594876 356.666154 
L 318.809603 356.666154 
L 319.252548 355.835349 
L 320.581384 355.835349 
L 321.02433 354.991562 
L 322.353166 354.991562 
L 322.796112 353.26381 
L 325.010839 353.26381 
L 325.453784 352.3792 
L 326.78262 352.3792 
L 327.225566 351.480323 
L 336.970365 351.480323 
L 337.413311 350.566829 
L 337.856256 350.566829 
L 338.299201 349.638361 
L 341.399819 349.638361 
L 341.842765 348.694545 
L 342.28571 348.694545 
L 342.728656 347.735 
L 344.500437 347.735 
L 344.943383 346.759328 
L 347.601055 346.759328 
L 348.044001 345.767119 
L 348.486946 345.767119 
L 349.372837 356.438246 
L 353.359346 356.438246 
L 353.802291 355.487788 
L 356.902909 355.487788 
L 357.345855 354.520357 
L 360.446473 354.520357 
L 360.889418 357.339099 
L 364.875927 357.339099 
L 365.318872 356.370909 
L 366.647709 356.370909 
L 367.090654 354.380741 
L 367.5336 354.380741 
L 367.976545 357.303551 
L 368.41949 357.303551 
L 368.862436 356.298491 
L 371.520108 356.298491 
L 371.963054 359.295238 
L 374.177781 359.295238 
L 374.620726 358.29 
L 376.835453 358.29 
L 377.721344 356.220392 
L 379.050181 356.220392 
L 379.493126 355.154851 
L 380.821962 355.154851 
L 381.707853 352.959192 
L 391.452652 352.959192 
L 391.895598 351.827755 
L 395.439161 351.827755 
L 395.882107 355.025567 
L 398.539779 355.025567 
L 398.982725 353.892083 
L 403.412179 353.892083 
L 403.855124 352.734737 
L 405.626906 352.734737 
L 406.069851 351.552766 
L 407.398688 351.552766 
L 407.841633 349.111739 
L 409.613415 349.111739 
L 410.05636 347.850989 
L 410.499306 347.850989 
L 410.942251 351.253333 
L 414.92876 351.253333 
L 415.371705 354.732135 
L 415.814651 354.732135 
L 416.257596 353.492273 
L 418.029378 353.492273 
L 418.472323 350.926047 
L 422.458832 350.926047 
L 423.787668 346.844819 
L 425.55945 346.844819 
L 426.002396 345.418049 
L 426.445341 345.418049 
L 426.888286 343.956049 
L 428.217123 343.956049 
L 428.660068 342.4575 
L 429.103014 342.4575 
L 429.545959 348.694545 
L 429.988904 347.179474 
L 434.861304 347.179474 
L 435.304249 344.026486 
L 435.747195 344.026486 
L 436.19014 342.385205 
L 437.076031 342.385205 
L 437.518977 340.698333 
L 438.847813 340.698333 
L 439.290758 338.963944 
L 440.176649 338.963944 
L 440.619595 337.18 
L 442.391376 337.18 
L 443.277267 345.872353 
L 444.163158 345.872353 
L 444.606103 344.111642 
L 446.377885 344.111642 
L 446.820831 342.297576 
L 450.364394 342.297576 
L 450.807339 340.427692 
L 452.579121 340.427692 
L 453.022066 349.913016 
L 453.465012 349.913016 
L 453.907957 348.075484 
L 456.56563 348.075484 
L 457.008575 346.177705 
L 460.109193 346.177705 
L 460.552139 344.216667 
L 462.766866 344.216667 
L 463.209811 349.345085 
L 463.652757 347.371034 
L 468.082211 347.371034 
L 468.525156 343.211429 
L 471.625774 343.211429 
L 472.06872 341.018182 
L 472.511665 341.018182 
L 472.954611 338.743704 
L 473.397556 338.743704 
L 473.840501 344.349434 
L 474.283447 342.051538 
L 477.384065 342.051538 
L 478.269956 337.18 
L 481.370574 337.18 
L 481.813519 334.595102 
L 482.256465 338.078298 
L 484.471192 338.078298 
L 484.914137 335.344348 
L 485.800028 335.344348 
L 486.242973 332.488889 
L 489.786537 332.488889 
L 490.229482 329.503636 
L 490.672428 329.503636 
L 491.115373 336.19814 
L 491.558318 336.19814 
L 492.001264 343.211429 
L 492.887155 343.211429 
L 493.3301 340.269268 
L 500.417227 340.269268 
L 500.860172 337.18 
L 501.746063 337.18 
L 502.189009 344.757949 
L 506.618463 344.757949 
L 507.061408 341.624211 
L 511.490863 341.624211 
L 512.376753 334.834444 
L 512.819699 334.834444 
L 513.262644 343.211429 
L 517.249153 343.211429 
L 517.692099 339.663529 
L 518.577989 339.663529 
L 519.020935 331.9025 
L 519.906826 331.9025 
L 520.349771 341.265806 
L 521.235662 341.265806 
L 522.564498 328.132857 
L 526.993952 328.132857 
L 527.436898 323.106667 
L 529.651625 323.106667 
L 530.09457 345.624 
L 534.081079 345.624 
L 534.524025 358.29 
L 535.409915 358.29 
L 535.852861 353.70087 
L 537.181697 353.70087 
L 537.624643 348.694545 
L 538.067588 348.694545 
L 538.510533 343.211429 
L 544.268824 343.211429 
L 544.711769 358.29 
L 549.141224 358.29 
L 549.584169 352.734737 
L 550.027115 352.734737 
L 550.47006 346.562222 
L 554.899514 346.562222 
L 555.34246 339.663529 
L 556.671296 339.663529 
L 557.114241 331.9025 
L 557.557187 331.9025 
L 558.000132 373.368571 
L 558.886023 358.29 
L 559.328968 358.29 
L 559.771914 348.694545 
L 560.214859 379.4 
L 561.10075 379.4 
L 561.543696 370.017778 
L 563.315477 370.017778 
L 563.758423 411.065 
L 564.201368 403.525714 
L 566.416095 403.525714 
L 566.859041 463.84 
L 581.033294 463.84 
L 581.033294 463.84 
" style="fill:none;stroke:#ff0000;stroke-linecap:square;stroke-width:1.5;"/>
   </g>
   <g id="line2d_14">
    <path clip-path="url(#pd9adf0dfd6)" d="M 138.97376 377.054444 
L 139.416706 377.054444 
L 139.859651 376.569609 
L 151.376232 376.569609 
L 151.819178 376.079326 
L 154.919796 376.079326 
L 155.362741 375.082045 
L 161.563977 375.082045 
L 162.006922 374.574857 
L 167.322268 374.574857 
L 167.765213 374.061839 
L 171.308776 374.061839 
L 171.751722 373.54289 
L 177.952958 373.54289 
L 178.395903 373.017907 
L 185.040085 373.017907 
L 185.48303 372.486784 
L 192.127211 372.486784 
L 192.570157 371.949412 
L 200.100229 371.949412 
L 200.543174 371.40568 
L 206.74441 371.40568 
L 207.187356 370.855476 
L 210.287974 370.855476 
L 210.730919 370.298683 
L 211.173865 370.298683 
L 211.61681 369.735181 
L 213.831537 369.735181 
L 214.274483 369.164848 
L 216.932155 369.164848 
L 217.375101 368.587561 
L 224.019282 368.587561 
L 224.462227 368.00319 
L 226.676954 368.00319 
L 227.1199 367.411605 
L 229.777572 367.411605 
L 230.220518 366.812671 
L 232.435245 366.812671 
L 233.321136 365.592201 
L 243.951826 365.592201 
L 244.394771 364.97038 
L 256.797243 364.97038 
L 257.240189 364.340637 
L 259.01197 364.340637 
L 259.454916 363.056774 
L 269.199715 363.056774 
L 269.642661 362.402338 
L 270.085606 362.402338 
L 270.971497 361.067632 
L 273.629169 361.067632 
L 274.072115 360.38702 
L 275.400951 360.38702 
L 275.843897 359.697333 
L 280.273351 359.697333 
L 280.716296 358.998389 
L 282.045133 358.998389 
L 282.488078 358.29 
L 282.931023 358.29 
L 283.373969 356.106207 
L 284.702805 356.106207 
L 285.145751 360.42454 
L 289.132259 360.42454 
L 289.575205 359.696262 
L 290.461096 359.696262 
L 290.904041 358.957654 
L 291.346986 358.957654 
L 291.789932 363.277099 
L 296.219386 363.277099 
L 296.662332 362.548382 
L 299.320004 362.548382 
L 299.76295 361.809027 
L 300.64884 361.809027 
L 301.091786 361.0588 
L 302.420622 361.0588 
L 302.863567 360.297457 
L 309.064803 360.297457 
L 309.507749 359.524752 
L 309.950694 364.660321 
L 313.051312 364.660321 
L 313.494258 363.90896 
L 316.15193 363.90896 
L 316.594876 368.252516 
L 318.809603 368.252516 
L 319.252548 367.511527 
L 320.581384 367.511527 
L 321.02433 366.758961 
L 322.353166 366.758961 
L 322.796112 365.217992 
L 325.010839 365.217992 
L 325.453784 364.429016 
L 326.78262 364.429016 
L 327.225566 363.627315 
L 336.970365 363.627315 
L 337.413311 362.812577 
L 337.856256 362.812577 
L 338.299201 361.984484 
L 341.399819 361.984484 
L 341.842765 361.142703 
L 342.28571 361.142703 
L 342.728656 360.286892 
L 344.500437 360.286892 
L 344.943383 359.416698 
L 347.601055 359.416698 
L 348.044001 358.531754 
L 348.486946 358.531754 
L 349.372837 379.660247 
L 353.359346 379.660247 
L 353.802291 378.915293 
L 356.902909 378.915293 
L 357.345855 378.157037 
L 360.446473 378.157037 
L 360.889418 383.244724 
L 364.875927 383.244724 
L 365.318872 382.512039 
L 366.647709 382.512039 
L 367.090654 381.005966 
L 367.5336 381.005966 
L 367.976545 386.097186 
L 368.41949 386.097186 
L 368.862436 385.363763 
L 371.520108 385.363763 
L 371.963054 390.376113 
L 374.177781 390.376113 
L 374.620726 389.66973 
L 376.835453 389.66973 
L 377.721344 388.215411 
L 379.050181 388.215411 
L 379.493126 387.466652 
L 380.821962 387.466652 
L 381.707853 385.923756 
L 391.452652 385.923756 
L 391.895598 385.128693 
L 395.439161 385.128693 
L 395.882107 390.316734 
L 398.539779 390.316734 
L 398.982725 389.550867 
L 403.412179 389.550867 
L 403.855124 388.768876 
L 405.626906 388.768876 
L 406.069851 387.970247 
L 407.398688 387.970247 
L 407.841633 386.320905 
L 409.613415 386.320905 
L 410.05636 385.469047 
L 410.499306 385.469047 
L 410.942251 390.810811 
L 414.92876 390.810811 
L 415.371705 396.016192 
L 415.814651 396.016192 
L 416.257596 395.245467 
L 418.029378 395.245467 
L 418.472323 393.650245 
L 422.458832 393.650245 
L 423.787668 391.113266 
L 425.55945 391.113266 
L 426.002396 390.226355 
L 426.445341 390.226355 
L 426.888286 389.317544 
L 428.217123 389.317544 
L 428.660068 388.386014 
L 429.103014 388.386014 
L 429.545959 398.487174 
L 429.988904 397.627269 
L 434.861304 397.627269 
L 435.304249 395.837736 
L 435.747195 395.837736 
L 436.19014 394.906198 
L 437.076031 394.906198 
L 437.518977 393.948784 
L 438.847813 393.948784 
L 439.290758 392.9644 
L 440.176649 392.9644 
L 440.619595 391.951892 
L 442.391376 391.951892 
L 443.277267 403.262019 
L 444.163158 403.262019 
L 444.606103 402.35787 
L 446.377885 402.35787 
L 446.820831 401.426323 
L 450.364394 401.426323 
L 450.807339 400.466112 
L 452.579121 400.466112 
L 453.022066 411.495169 
L 453.465012 411.495169 
L 453.907957 410.650898 
L 456.56563 410.650898 
L 457.008575 409.778946 
L 460.109193 409.778946 
L 460.552139 408.877928 
L 462.766866 408.877928 
L 463.209811 414.328685 
L 463.652757 413.475042 
L 468.082211 413.475042 
L 468.525156 411.676293 
L 471.625774 411.676293 
L 472.06872 410.727862 
L 472.511665 410.727862 
L 472.954611 409.744304 
L 473.397556 409.744304 
L 473.840501 415.397879 
L 474.283447 414.466299 
L 477.384065 414.466299 
L 478.269956 412.491351 
L 481.370574 412.491351 
L 481.813519 411.44342 
L 482.256465 416.254491 
L 484.471192 416.254491 
L 484.914137 415.220024 
L 485.800028 415.220024 
L 486.242973 414.13958 
L 489.786537 414.13958 
L 490.229482 413.010025 
L 490.672428 413.010025 
L 491.115373 418.99286 
L 491.558318 418.99286 
L 492.001264 424.71722 
L 492.887155 424.71722 
L 493.3301 423.763006 
L 500.417227 423.763006 
L 500.860172 422.761081 
L 501.746063 422.761081 
L 502.189009 428.437228 
L 506.618463 428.437228 
L 507.061408 427.505576 
L 511.490863 427.505576 
L 512.376753 425.486997 
L 512.819699 425.486997 
L 513.262644 431.237683 
L 517.249153 431.237683 
L 517.692099 430.278792 
L 518.577989 430.278792 
L 519.020935 428.181216 
L 519.906826 428.181216 
L 520.349771 434.024656 
L 521.235662 434.024656 
L 522.564498 430.830154 
L 526.993952 430.830154 
L 527.436898 429.607568 
L 529.651625 429.607568 
L 530.09457 441.474811 
L 534.081079 441.474811 
L 534.524025 446.723784 
L 535.409915 446.723784 
L 535.852861 445.9796 
L 537.181697 445.9796 
L 537.624643 445.167764 
L 538.067588 445.167764 
L 538.510533 444.27861 
L 544.268824 444.27861 
L 544.711769 449.576486 
L 549.141224 449.576486 
L 549.584169 448.825775 
L 550.027115 448.825775 
L 550.47006 447.991652 
L 554.899514 447.991652 
L 555.34246 447.059396 
L 556.671296 447.059396 
L 557.114241 446.010608 
L 557.557187 446.010608 
L 558.000132 456.504479 
L 558.886023 455.281892 
L 559.328968 455.281892 
L 559.771914 454.503882 
L 560.214859 459.275676 
L 561.10075 459.275676 
L 561.543696 458.768529 
L 563.315477 458.768529 
L 563.758423 462.413649 
L 564.201368 462.209884 
L 566.416095 462.209884 
L 566.859041 463.84 
L 581.033294 463.84 
L 581.033294 463.84 
" style="fill:none;stroke:#008000;stroke-linecap:square;stroke-width:1.5;"/>
   </g>
   <g id="line2d_15">
    <path clip-path="url(#pd9adf0dfd6)" d="M 283.373969 463.84 
L 283.373969 41.64 
" style="fill:none;stroke:#1f77b4;stroke-linecap:square;stroke-width:1.5;"/>
   </g>
   <g id="patch_3">
    <path d="M 116.848636 463.84 
L 116.848636 41.64 
" style="fill:none;stroke:#000000;stroke-linecap:square;stroke-linejoin:miter;stroke-width:0.8;"/>
   </g>
   <g id="patch_4">
    <path d="M 603.601364 463.84 
L 603.601364 41.64 
" style="fill:none;stroke:#000000;stroke-linecap:square;stroke-linejoin:miter;stroke-width:0.8;"/>
   </g>
   <g id="patch_5">
    <path d="M 116.848636 463.84 
L 603.601364 463.84 
" style="fill:none;stroke:#000000;stroke-linecap:square;stroke-linejoin:miter;stroke-width:0.8;"/>
   </g>
   <g id="patch_6">
    <path d="M 116.848636 41.64 
L 603.601364 41.64 
" style="fill:none;stroke:#000000;stroke-linecap:square;stroke-linejoin:miter;stroke-width:0.8;"/>
   </g>
   <g id="text_14">
    <!-- Purity/Efficiency vs nuMcpMomentum Cutoff — photon -->
    <defs>
     <path d="M 19.671875 64.796875 
L 19.671875 37.40625 
L 32.078125 37.40625 
Q 38.96875 37.40625 42.71875 40.96875 
Q 46.484375 44.53125 46.484375 51.125 
Q 46.484375 57.671875 42.71875 61.234375 
Q 38.96875 64.796875 32.078125 64.796875 
z
M 9.8125 72.90625 
L 32.078125 72.90625 
Q 44.34375 72.90625 50.609375 67.359375 
Q 56.890625 61.8125 56.890625 51.125 
Q 56.890625 40.328125 50.609375 34.8125 
Q 44.34375 29.296875 32.078125 29.296875 
L 19.671875 29.296875 
L 19.671875 0 
L 9.8125 0 
z
" id="DejaVuSans-80"/>
     <path d="M 32.171875 -5.078125 
Q 28.375 -14.84375 24.75 -17.8125 
Q 21.140625 -20.796875 15.09375 -20.796875 
L 7.90625 -20.796875 
L 7.90625 -13.28125 
L 13.1875 -13.28125 
Q 16.890625 -13.28125 18.9375 -11.515625 
Q 21 -9.765625 23.484375 -3.21875 
L 25.09375 0.875 
L 2.984375 54.6875 
L 12.5 54.6875 
L 29.59375 11.921875 
L 46.6875 54.6875 
L 56.203125 54.6875 
z
" id="DejaVuSans-121"/>
     <path d="M 25.390625 72.90625 
L 33.6875 72.90625 
L 8.296875 -9.28125 
L 0 -9.28125 
z
" id="DejaVuSans-47"/>
     <path d="M 9.8125 72.90625 
L 55.90625 72.90625 
L 55.90625 64.59375 
L 19.671875 64.59375 
L 19.671875 43.015625 
L 54.390625 43.015625 
L 54.390625 34.71875 
L 19.671875 34.71875 
L 19.671875 8.296875 
L 56.78125 8.296875 
L 56.78125 0 
L 9.8125 0 
z
" id="DejaVuSans-69"/>
     <path d="M 2.984375 54.6875 
L 12.5 54.6875 
L 29.59375 8.796875 
L 46.6875 54.6875 
L 56.203125 54.6875 
L 35.6875 0 
L 23.484375 0 
z
" id="DejaVuSans-118"/>
     <path d="M 44.28125 53.078125 
L 44.28125 44.578125 
Q 40.484375 46.53125 36.375 47.5 
Q 32.28125 48.484375 27.875 48.484375 
Q 21.1875 48.484375 17.84375 46.4375 
Q 14.5 44.390625 14.5 40.28125 
Q 14.5 37.15625 16.890625 35.375 
Q 19.28125 33.59375 26.515625 31.984375 
L 29.59375 31.296875 
Q 39.15625 29.25 43.1875 25.515625 
Q 47.21875 21.78125 47.21875 15.09375 
Q 47.21875 7.46875 41.1875 3.015625 
Q 35.15625 -1.421875 24.609375 -1.421875 
Q 20.21875 -1.421875 15.453125 -0.5625 
Q 10.6875 0.296875 5.421875 2 
L 5.421875 11.28125 
Q 10.40625 8.6875 15.234375 7.390625 
Q 20.0625 6.109375 24.8125 6.109375 
Q 31.15625 6.109375 34.5625 8.28125 
Q 37.984375 10.453125 37.984375 14.40625 
Q 37.984375 18.0625 35.515625 20.015625 
Q 33.0625 21.96875 24.703125 23.78125 
L 21.578125 24.515625 
Q 13.234375 26.265625 9.515625 29.90625 
Q 5.8125 33.546875 5.8125 39.890625 
Q 5.8125 47.609375 11.28125 51.796875 
Q 16.75 56 26.8125 56 
Q 31.78125 56 36.171875 55.265625 
Q 40.578125 54.546875 44.28125 53.078125 
z
" id="DejaVuSans-115"/>
     <path d="M 4.890625 30.90625 
L 95.125 30.90625 
L 95.125 23.875 
L 4.890625 23.875 
z
" id="DejaVuSans-8212"/>
     <path d="M 54.890625 33.015625 
L 54.890625 0 
L 45.90625 0 
L 45.90625 32.71875 
Q 45.90625 40.484375 42.875 44.328125 
Q 39.84375 48.1875 33.796875 48.1875 
Q 26.515625 48.1875 22.3125 43.546875 
Q 18.109375 38.921875 18.109375 30.90625 
L 18.109375 0 
L 9.078125 0 
L 9.078125 75.984375 
L 18.109375 75.984375 
L 18.109375 46.1875 
Q 21.34375 51.125 25.703125 53.5625 
Q 30.078125 56 35.796875 56 
Q 45.21875 56 50.046875 50.171875 
Q 54.890625 44.34375 54.890625 33.015625 
z
" id="DejaVuSans-104"/>
    </defs>
    <g transform="translate(5.754825 35.64)scale(0.2592 -0.2592)">
     <use xlink:href="#DejaVuSans-80"/>
     <use x="60.287109" xlink:href="#DejaVuSans-117"/>
     <use x="123.666016" xlink:href="#DejaVuSans-114"/>
     <use x="164.779297" xlink:href="#DejaVuSans-105"/>
     <use x="192.5625" xlink:href="#DejaVuSans-116"/>
     <use x="231.771484" xlink:href="#DejaVuSans-121"/>
     <use x="290.951172" xlink:href="#DejaVuSans-47"/>
     <use x="324.642578" xlink:href="#DejaVuSans-69"/>
     <use x="387.826172" xlink:href="#DejaVuSans-102"/>
     <use x="423.03125" xlink:href="#DejaVuSans-102"/>
     <use x="458.236328" xlink:href="#DejaVuSans-105"/>
     <use x="486.019531" xlink:href="#DejaVuSans-99"/>
     <use x="541" xlink:href="#DejaVuSans-105"/>
     <use x="568.783203" xlink:href="#DejaVuSans-101"/>
     <use x="630.306641" xlink:href="#DejaVuSans-110"/>
     <use x="693.685547" xlink:href="#DejaVuSans-99"/>
     <use x="748.666016" xlink:href="#DejaVuSans-121"/>
     <use x="807.845703" xlink:href="#DejaVuSans-32"/>
     <use x="839.632812" xlink:href="#DejaVuSans-118"/>
     <use x="898.8125" xlink:href="#DejaVuSans-115"/>
     <use x="950.912109" xlink:href="#DejaVuSans-32"/>
     <use x="982.699219" xlink:href="#DejaVuSans-110"/>
     <use x="1046.078125" xlink:href="#DejaVuSans-117"/>
     <use x="1109.457031" xlink:href="#DejaVuSans-77"/>
     <use x="1195.736328" xlink:href="#DejaVuSans-99"/>
     <use x="1250.716797" xlink:href="#DejaVuSans-112"/>
     <use x="1314.193359" xlink:href="#DejaVuSans-77"/>
     <use x="1400.472656" xlink:href="#DejaVuSans-111"/>
     <use x="1461.654297" xlink:href="#DejaVuSans-109"/>
     <use x="1559.066406" xlink:href="#DejaVuSans-101"/>
     <use x="1620.589844" xlink:href="#DejaVuSans-110"/>
     <use x="1683.96875" xlink:href="#DejaVuSans-116"/>
     <use x="1723.177734" xlink:href="#DejaVuSans-117"/>
     <use x="1786.556641" xlink:href="#DejaVuSans-109"/>
     <use x="1883.96875" xlink:href="#DejaVuSans-32"/>
     <use x="1915.755859" xlink:href="#DejaVuSans-67"/>
     <use x="1985.580078" xlink:href="#DejaVuSans-117"/>
     <use x="2048.958984" xlink:href="#DejaVuSans-116"/>
     <use x="2088.167969" xlink:href="#DejaVuSans-111"/>
     <use x="2149.349609" xlink:href="#DejaVuSans-102"/>
     <use x="2184.554688" xlink:href="#DejaVuSans-102"/>
     <use x="2219.759766" xlink:href="#DejaVuSans-32"/>
     <use x="2251.546875" xlink:href="#DejaVuSans-8212"/>
     <use x="2351.546875" xlink:href="#DejaVuSans-32"/>
     <use x="2383.333984" xlink:href="#DejaVuSans-112"/>
     <use x="2446.810547" xlink:href="#DejaVuSans-104"/>
     <use x="2510.189453" xlink:href="#DejaVuSans-111"/>
     <use x="2571.371094" xlink:href="#DejaVuSans-116"/>
     <use x="2610.580078" xlink:href="#DejaVuSans-111"/>
     <use x="2671.761719" xlink:href="#DejaVuSans-110"/>
    </g>
   </g>
   <g id="legend_1">
    <g id="patch_7">
     <path d="M 251.530313 454.84 
L 468.919688 454.84 
Q 472.519688 454.84 472.519688 451.24 
L 472.519688 373.778125 
Q 472.519688 370.178125 468.919688 370.178125 
L 251.530313 370.178125 
Q 247.930313 370.178125 247.930313 373.778125 
L 247.930313 451.24 
Q 247.930313 454.84 251.530313 454.84 
z
" style="fill:#ffffff;opacity:0.8;stroke:#cccccc;stroke-linejoin:miter;"/>
    </g>
    <g id="line2d_16">
     <path d="M 255.130313 384.755313 
L 291.130313 384.755313 
" style="fill:none;stroke:#0000ff;stroke-linecap:square;stroke-width:1.5;"/>
    </g>
    <g id="line2d_17"/>
    <g id="text_15">
     <!-- Efficiency -->
     <g transform="translate(305.530312 391.055313)scale(0.18 -0.18)">
      <use xlink:href="#DejaVuSans-69"/>
      <use x="63.183594" xlink:href="#DejaVuSans-102"/>
      <use x="98.388672" xlink:href="#DejaVuSans-102"/>
      <use x="133.59375" xlink:href="#DejaVuSans-105"/>
      <use x="161.376953" xlink:href="#DejaVuSans-99"/>
      <use x="216.357422" xlink:href="#DejaVuSans-105"/>
      <use x="244.140625" xlink:href="#DejaVuSans-101"/>
      <use x="305.664062" xlink:href="#DejaVuSans-110"/>
      <use x="369.042969" xlink:href="#DejaVuSans-99"/>
      <use x="424.023438" xlink:href="#DejaVuSans-121"/>
     </g>
    </g>
    <g id="line2d_18">
     <path d="M 255.130313 411.175937 
L 291.130313 411.175937 
" style="fill:none;stroke:#ff0000;stroke-linecap:square;stroke-width:1.5;"/>
    </g>
    <g id="line2d_19"/>
    <g id="text_16">
     <!-- Purity -->
     <g transform="translate(305.530312 417.475937)scale(0.18 -0.18)">
      <use xlink:href="#DejaVuSans-80"/>
      <use x="60.287109" xlink:href="#DejaVuSans-117"/>
      <use x="123.666016" xlink:href="#DejaVuSans-114"/>
      <use x="164.779297" xlink:href="#DejaVuSans-105"/>
      <use x="192.5625" xlink:href="#DejaVuSans-116"/>
      <use x="231.771484" xlink:href="#DejaVuSans-121"/>
     </g>
    </g>
    <g id="line2d_20">
     <path d="M 255.130313 437.596562 
L 291.130313 437.596562 
" style="fill:none;stroke:#008000;stroke-linecap:square;stroke-width:1.5;"/>
    </g>
    <g id="line2d_21"/>
    <g id="text_17">
     <!-- Purity * Efficiency -->
     <defs>
      <path d="M 47.015625 60.890625 
L 29.5 51.421875 
L 47.015625 41.890625 
L 44.1875 37.109375 
L 27.78125 47.015625 
L 27.78125 28.609375 
L 22.21875 28.609375 
L 22.21875 47.015625 
L 5.8125 37.109375 
L 2.984375 41.890625 
L 20.515625 51.421875 
L 2.984375 60.890625 
L 5.8125 65.71875 
L 22.21875 55.8125 
L 22.21875 74.21875 
L 27.78125 74.21875 
L 27.78125 55.8125 
L 44.1875 65.71875 
z
" id="DejaVuSans-42"/>
     </defs>
     <g transform="translate(305.530312 443.896562)scale(0.18 -0.18)">
      <use xlink:href="#DejaVuSans-80"/>
      <use x="60.287109" xlink:href="#DejaVuSans-117"/>
      <use x="123.666016" xlink:href="#DejaVuSans-114"/>
      <use x="164.779297" xlink:href="#DejaVuSans-105"/>
      <use x="192.5625" xlink:href="#DejaVuSans-116"/>
      <use x="231.771484" xlink:href="#DejaVuSans-121"/>
      <use x="290.951172" xlink:href="#DejaVuSans-32"/>
      <use x="322.738281" xlink:href="#DejaVuSans-42"/>
      <use x="372.738281" xlink:href="#DejaVuSans-32"/>
      <use x="404.525391" xlink:href="#DejaVuSans-69"/>
      <use x="467.708984" xlink:href="#DejaVuSans-102"/>
      <use x="502.914062" xlink:href="#DejaVuSans-102"/>
      <use x="538.119141" xlink:href="#DejaVuSans-105"/>
      <use x="565.902344" xlink:href="#DejaVuSans-99"/>
      <use x="620.882812" xlink:href="#DejaVuSans-105"/>
      <use x="648.666016" xlink:href="#DejaVuSans-101"/>
      <use x="710.189453" xlink:href="#DejaVuSans-110"/>
      <use x="773.568359" xlink:href="#DejaVuSans-99"/>
      <use x="828.548828" xlink:href="#DejaVuSans-121"/>
     </g>
    </g>
   </g>
  </g>
  <g id="axes_2">
   <g id="patch_8">
    <path d="M 828.748636 463.84 
L 1315.501364 463.84 
L 1315.501364 41.64 
L 828.748636 41.64 
z
" style="fill:#ffffff;"/>
   </g>
   <g id="matplotlib.axis_3">
    <g id="xtick_6">
     <g id="line2d_22">
      <g>
       <use style="stroke:#000000;stroke-width:0.8;" x="850.87376" xlink:href="#m4eb05b944e" y="463.84"/>
      </g>
     </g>
     <g id="text_18">
      <!-- 0.4 -->
      <g transform="translate(830.26331 490.53515)scale(0.2592 -0.2592)">
       <use xlink:href="#DejaVuSans-48"/>
       <use x="63.623047" xlink:href="#DejaVuSans-46"/>
       <use x="95.410156" xlink:href="#DejaVuSans-52"/>
      </g>
     </g>
    </g>
    <g id="xtick_7">
     <g id="line2d_23">
      <g>
       <use style="stroke:#000000;stroke-width:0.8;" x="961.49938" xlink:href="#m4eb05b944e" y="463.84"/>
      </g>
     </g>
     <g id="text_19">
      <!-- 0.5 -->
      <g transform="translate(940.88893 490.53515)scale(0.2592 -0.2592)">
       <use xlink:href="#DejaVuSans-48"/>
       <use x="63.623047" xlink:href="#DejaVuSans-46"/>
       <use x="95.410156" xlink:href="#DejaVuSans-53"/>
      </g>
     </g>
    </g>
    <g id="xtick_8">
     <g id="line2d_24">
      <g>
       <use style="stroke:#000000;stroke-width:0.8;" x="1072.125" xlink:href="#m4eb05b944e" y="463.84"/>
      </g>
     </g>
     <g id="text_20">
      <!-- 0.6 -->
      <g transform="translate(1051.51455 490.53515)scale(0.2592 -0.2592)">
       <use xlink:href="#DejaVuSans-48"/>
       <use x="63.623047" xlink:href="#DejaVuSans-46"/>
       <use x="95.410156" xlink:href="#DejaVuSans-54"/>
      </g>
     </g>
    </g>
    <g id="xtick_9">
     <g id="line2d_25">
      <g>
       <use style="stroke:#000000;stroke-width:0.8;" x="1182.75062" xlink:href="#m4eb05b944e" y="463.84"/>
      </g>
     </g>
     <g id="text_21">
      <!-- 0.7 -->
      <g transform="translate(1162.14017 490.53515)scale(0.2592 -0.2592)">
       <use xlink:href="#DejaVuSans-48"/>
       <use x="63.623047" xlink:href="#DejaVuSans-46"/>
       <use x="95.410156" xlink:href="#DejaVuSans-55"/>
      </g>
     </g>
    </g>
    <g id="xtick_10">
     <g id="line2d_26">
      <g>
       <use style="stroke:#000000;stroke-width:0.8;" x="1293.37624" xlink:href="#m4eb05b944e" y="463.84"/>
      </g>
     </g>
     <g id="text_22">
      <!-- 0.8 -->
      <g transform="translate(1272.76579 490.53515)scale(0.2592 -0.2592)">
       <use xlink:href="#DejaVuSans-48"/>
       <use x="63.623047" xlink:href="#DejaVuSans-46"/>
       <use x="95.410156" xlink:href="#DejaVuSans-56"/>
      </g>
     </g>
    </g>
    <g id="text_23">
     <!-- nuMcpMomentum Cutoff -->
     <g transform="translate(911.803725 519.62085)scale(0.2592 -0.2592)">
      <use xlink:href="#DejaVuSans-110"/>
      <use x="63.378906" xlink:href="#DejaVuSans-117"/>
      <use x="126.757812" xlink:href="#DejaVuSans-77"/>
      <use x="213.037109" xlink:href="#DejaVuSans-99"/>
      <use x="268.017578" xlink:href="#DejaVuSans-112"/>
      <use x="331.494141" xlink:href="#DejaVuSans-77"/>
      <use x="417.773438" xlink:href="#DejaVuSans-111"/>
      <use x="478.955078" xlink:href="#DejaVuSans-109"/>
      <use x="576.367188" xlink:href="#DejaVuSans-101"/>
      <use x="637.890625" xlink:href="#DejaVuSans-110"/>
      <use x="701.269531" xlink:href="#DejaVuSans-116"/>
      <use x="740.478516" xlink:href="#DejaVuSans-117"/>
      <use x="803.857422" xlink:href="#DejaVuSans-109"/>
      <use x="901.269531" xlink:href="#DejaVuSans-32"/>
      <use x="933.056641" xlink:href="#DejaVuSans-67"/>
      <use x="1002.880859" xlink:href="#DejaVuSans-117"/>
      <use x="1066.259766" xlink:href="#DejaVuSans-116"/>
      <use x="1105.46875" xlink:href="#DejaVuSans-111"/>
      <use x="1166.650391" xlink:href="#DejaVuSans-102"/>
      <use x="1201.855469" xlink:href="#DejaVuSans-102"/>
     </g>
    </g>
   </g>
   <g id="matplotlib.axis_4">
    <g id="ytick_7">
     <g id="line2d_27">
      <g>
       <use style="stroke:#000000;stroke-width:0.8;" x="828.748636" xlink:href="#mb0325b61bf" y="463.84"/>
      </g>
     </g>
     <g id="text_24">
      <!-- 0.0 -->
      <g transform="translate(780.527736 473.687575)scale(0.2592 -0.2592)">
       <use xlink:href="#DejaVuSans-48"/>
       <use x="63.623047" xlink:href="#DejaVuSans-46"/>
       <use x="95.410156" xlink:href="#DejaVuSans-48"/>
      </g>
     </g>
    </g>
    <g id="ytick_8">
     <g id="line2d_28">
      <g>
       <use style="stroke:#000000;stroke-width:0.8;" x="828.748636" xlink:href="#mb0325b61bf" y="379.4"/>
      </g>
     </g>
     <g id="text_25">
      <!-- 0.2 -->
      <g transform="translate(780.527736 389.247575)scale(0.2592 -0.2592)">
       <use xlink:href="#DejaVuSans-48"/>
       <use x="63.623047" xlink:href="#DejaVuSans-46"/>
       <use x="95.410156" xlink:href="#DejaVuSans-50"/>
      </g>
     </g>
    </g>
    <g id="ytick_9">
     <g id="line2d_29">
      <g>
       <use style="stroke:#000000;stroke-width:0.8;" x="828.748636" xlink:href="#mb0325b61bf" y="294.96"/>
      </g>
     </g>
     <g id="text_26">
      <!-- 0.4 -->
      <g transform="translate(780.527736 304.807575)scale(0.2592 -0.2592)">
       <use xlink:href="#DejaVuSans-48"/>
       <use x="63.623047" xlink:href="#DejaVuSans-46"/>
       <use x="95.410156" xlink:href="#DejaVuSans-52"/>
      </g>
     </g>
    </g>
    <g id="ytick_10">
     <g id="line2d_30">
      <g>
       <use style="stroke:#000000;stroke-width:0.8;" x="828.748636" xlink:href="#mb0325b61bf" y="210.52"/>
      </g>
     </g>
     <g id="text_27">
      <!-- 0.6 -->
      <g transform="translate(780.527736 220.367575)scale(0.2592 -0.2592)">
       <use xlink:href="#DejaVuSans-48"/>
       <use x="63.623047" xlink:href="#DejaVuSans-46"/>
       <use x="95.410156" xlink:href="#DejaVuSans-54"/>
      </g>
     </g>
    </g>
    <g id="ytick_11">
     <g id="line2d_31">
      <g>
       <use style="stroke:#000000;stroke-width:0.8;" x="828.748636" xlink:href="#mb0325b61bf" y="126.08"/>
      </g>
     </g>
     <g id="text_28">
      <!-- 0.8 -->
      <g transform="translate(780.527736 135.927575)scale(0.2592 -0.2592)">
       <use xlink:href="#DejaVuSans-48"/>
       <use x="63.623047" xlink:href="#DejaVuSans-46"/>
       <use x="95.410156" xlink:href="#DejaVuSans-56"/>
      </g>
     </g>
    </g>
    <g id="ytick_12">
     <g id="line2d_32">
      <g>
       <use style="stroke:#000000;stroke-width:0.8;" x="828.748636" xlink:href="#mb0325b61bf" y="41.64"/>
      </g>
     </g>
     <g id="text_29">
      <!-- 1.0 -->
      <g transform="translate(780.527736 51.487575)scale(0.2592 -0.2592)">
       <use xlink:href="#DejaVuSans-49"/>
       <use x="63.623047" xlink:href="#DejaVuSans-46"/>
       <use x="95.410156" xlink:href="#DejaVuSans-48"/>
      </g>
     </g>
    </g>
    <g id="text_30">
     <!-- Fraction -->
     <g transform="translate(771.137186 305.400125)rotate(-90)scale(0.2592 -0.2592)">
      <use xlink:href="#DejaVuSans-70"/>
      <use x="57.410156" xlink:href="#DejaVuSans-114"/>
      <use x="98.523438" xlink:href="#DejaVuSans-97"/>
      <use x="159.802734" xlink:href="#DejaVuSans-99"/>
      <use x="214.783203" xlink:href="#DejaVuSans-116"/>
      <use x="253.992188" xlink:href="#DejaVuSans-105"/>
      <use x="281.775391" xlink:href="#DejaVuSans-111"/>
      <use x="342.957031" xlink:href="#DejaVuSans-110"/>
     </g>
    </g>
   </g>
   <g id="line2d_33">
    <path clip-path="url(#p1ffced7094)" d="M 850.87376 463.84 
L 851.316706 463.84 
L 851.759651 460.887552 
L 863.276232 460.887552 
L 863.719178 457.935105 
L 866.819796 457.935105 
L 867.262741 452.03021 
L 873.463977 452.03021 
L 873.906922 449.077762 
L 879.222268 449.077762 
L 879.665213 446.125315 
L 883.208776 446.125315 
L 883.651722 443.172867 
L 889.852958 443.172867 
L 890.295903 440.22042 
L 896.940085 440.22042 
L 897.38303 437.267972 
L 904.027211 437.267972 
L 904.470157 434.315524 
L 912.000229 434.315524 
L 912.443174 431.363077 
L 918.64441 431.363077 
L 919.087356 428.410629 
L 922.187974 428.410629 
L 922.630919 425.458182 
L 923.073865 425.458182 
L 923.51681 422.505734 
L 925.731537 422.505734 
L 926.174483 419.553287 
L 928.832155 419.553287 
L 929.275101 416.600839 
L 935.919282 416.600839 
L 936.362227 413.648392 
L 938.576954 413.648392 
L 939.0199 410.695944 
L 941.677572 410.695944 
L 942.120518 407.743497 
L 944.335245 407.743497 
L 945.221136 401.838601 
L 955.851826 401.838601 
L 956.294771 398.886154 
L 968.697243 398.886154 
L 969.140189 395.933706 
L 970.91197 395.933706 
L 971.354916 390.028811 
L 981.099715 390.028811 
L 981.542661 387.076364 
L 981.985606 387.076364 
L 982.871497 381.171469 
L 985.529169 381.171469 
L 985.972115 378.219021 
L 987.300951 378.219021 
L 987.743897 375.266573 
L 992.173351 375.266573 
L 992.616296 372.314126 
L 993.945133 372.314126 
L 994.388078 369.361678 
L 994.831023 369.361678 
L 995.273969 360.504336 
L 996.602805 360.504336 
L 997.045751 357.551888 
L 1001.032259 357.551888 
L 1001.475205 354.599441 
L 1002.361096 354.599441 
L 1002.804041 351.646993 
L 1003.246986 351.646993 
L 1003.689932 348.694545 
L 1008.119386 348.694545 
L 1008.562332 345.742098 
L 1011.220004 345.742098 
L 1011.66295 342.78965 
L 1012.54884 342.78965 
L 1012.991786 339.837203 
L 1014.320622 339.837203 
L 1014.763567 336.884755 
L 1020.964803 336.884755 
L 1021.407749 333.932308 
L 1024.951312 333.932308 
L 1025.394258 330.97986 
L 1028.05193 330.97986 
L 1028.494876 328.027413 
L 1030.709603 328.027413 
L 1031.152548 325.074965 
L 1032.481384 325.074965 
L 1032.92433 322.122517 
L 1034.253166 322.122517 
L 1034.696112 316.217622 
L 1036.910839 316.217622 
L 1037.353784 313.265175 
L 1038.68262 313.265175 
L 1039.125566 310.312727 
L 1048.870365 310.312727 
L 1049.313311 307.36028 
L 1049.756256 307.36028 
L 1050.199201 304.407832 
L 1053.299819 304.407832 
L 1053.742765 301.455385 
L 1054.18571 301.455385 
L 1054.628656 298.502937 
L 1056.400437 298.502937 
L 1056.843383 295.55049 
L 1059.501055 295.55049 
L 1059.944001 292.598042 
L 1065.259346 292.598042 
L 1065.702291 289.645594 
L 1068.802909 289.645594 
L 1069.245855 286.693147 
L 1076.775927 286.693147 
L 1077.218872 283.740699 
L 1078.547709 283.740699 
L 1078.990654 277.835804 
L 1080.31949 277.835804 
L 1080.762436 274.883357 
L 1086.077781 274.883357 
L 1086.520726 271.930909 
L 1088.735453 271.930909 
L 1089.621344 266.026014 
L 1090.950181 266.026014 
L 1091.393126 263.073566 
L 1092.721962 263.073566 
L 1093.607853 257.168671 
L 1103.352652 257.168671 
L 1103.795598 254.216224 
L 1110.439779 254.216224 
L 1110.882725 251.263776 
L 1115.312179 251.263776 
L 1115.755124 248.311329 
L 1117.526906 248.311329 
L 1117.969851 245.358881 
L 1119.298688 245.358881 
L 1119.741633 239.453986 
L 1121.513415 239.453986 
L 1121.95636 236.501538 
L 1127.714651 236.501538 
L 1128.157596 233.549091 
L 1129.929378 233.549091 
L 1130.372323 227.644196 
L 1134.358832 227.644196 
L 1135.687668 218.786853 
L 1137.45945 218.786853 
L 1137.902396 215.834406 
L 1138.345341 215.834406 
L 1138.788286 212.881958 
L 1140.117123 212.881958 
L 1140.560068 209.92951 
L 1141.003014 209.92951 
L 1141.888904 204.024615 
L 1146.761304 204.024615 
L 1147.204249 198.11972 
L 1147.647195 198.11972 
L 1148.09014 195.167273 
L 1148.976031 195.167273 
L 1149.418977 192.214825 
L 1150.747813 192.214825 
L 1151.190758 189.262378 
L 1152.076649 189.262378 
L 1152.519595 186.30993 
L 1156.063158 186.30993 
L 1156.506103 183.357483 
L 1158.277885 183.357483 
L 1158.720831 180.405035 
L 1162.264394 180.405035 
L 1162.707339 177.452587 
L 1165.365012 177.452587 
L 1165.807957 174.50014 
L 1168.46563 174.50014 
L 1168.908575 171.547692 
L 1172.009193 171.547692 
L 1172.452139 168.595245 
L 1175.109811 168.595245 
L 1175.552757 165.642797 
L 1179.982211 165.642797 
L 1180.425156 159.737902 
L 1183.525774 159.737902 
L 1183.96872 156.785455 
L 1184.411665 156.785455 
L 1184.854611 153.833007 
L 1185.740501 153.833007 
L 1186.183447 150.880559 
L 1189.284065 150.880559 
L 1190.169956 144.975664 
L 1193.270574 144.975664 
L 1194.156465 139.070769 
L 1196.371192 139.070769 
L 1196.814137 136.118322 
L 1197.700028 136.118322 
L 1198.142973 133.165874 
L 1201.686537 133.165874 
L 1202.129482 130.213427 
L 1204.787155 130.213427 
L 1205.2301 127.260979 
L 1212.317227 127.260979 
L 1212.760172 124.308531 
L 1218.518463 124.308531 
L 1218.961408 121.356084 
L 1223.390863 121.356084 
L 1224.276753 115.451189 
L 1229.149153 115.451189 
L 1229.592099 112.498741 
L 1230.477989 112.498741 
L 1230.920935 106.593846 
L 1233.135662 106.593846 
L 1234.464498 97.736503 
L 1238.893952 97.736503 
L 1239.336898 94.784056 
L 1247.309915 94.784056 
L 1247.752861 91.831608 
L 1249.081697 91.831608 
L 1249.524643 88.879161 
L 1249.967588 88.879161 
L 1250.410533 85.926713 
L 1261.041224 85.926713 
L 1261.484169 82.974266 
L 1261.927115 82.974266 
L 1262.37006 80.021818 
L 1266.799514 80.021818 
L 1267.24246 77.069371 
L 1268.571296 77.069371 
L 1269.014241 74.116923 
L 1269.900132 74.116923 
L 1270.786023 68.212028 
L 1271.228968 68.212028 
L 1271.671914 65.25958 
L 1273.00075 65.25958 
L 1273.443696 62.307133 
L 1275.658423 62.307133 
L 1276.101368 59.354685 
L 1280.087877 59.354685 
L 1280.530822 56.402238 
L 1281.416713 56.402238 
L 1281.859659 53.44979 
L 1284.960277 53.44979 
L 1285.403222 50.497343 
L 1289.389731 50.497343 
L 1289.832676 47.544895 
L 1291.604458 47.544895 
L 1292.047403 44.592448 
L 1292.933294 44.592448 
L 1293.37624 41.64 
L 1293.37624 41.64 
" style="fill:none;stroke:#0000ff;stroke-linecap:square;stroke-width:1.5;"/>
   </g>
   <g id="line2d_34">
    <path clip-path="url(#p1ffced7094)" d="M 851.759651 41.64 
L 996.602805 41.64 
L 997.045751 53.050811 
L 1001.032259 53.050811 
L 1001.475205 52.750526 
L 1002.361096 52.750526 
L 1002.804041 52.465641 
L 1003.246986 52.465641 
L 1003.689932 62.235122 
L 1008.119386 62.235122 
L 1008.562332 61.744762 
L 1011.220004 61.744762 
L 1011.66295 61.277209 
L 1012.54884 61.277209 
L 1012.991786 60.830909 
L 1014.320622 60.830909 
L 1014.763567 60.404444 
L 1020.964803 60.404444 
L 1021.407749 59.996522 
L 1021.850694 68.588936 
L 1024.951312 68.588936 
L 1025.394258 68.0275 
L 1028.05193 68.0275 
L 1028.494876 75.416 
L 1030.709603 75.416 
L 1031.152548 74.753725 
L 1032.481384 74.753725 
L 1032.92433 74.116923 
L 1034.253166 74.116923 
L 1034.696112 72.914074 
L 1036.910839 72.914074 
L 1037.353784 72.345455 
L 1038.68262 72.345455 
L 1039.125566 71.797143 
L 1048.870365 71.797143 
L 1049.313311 71.26807 
L 1049.756256 71.26807 
L 1050.199201 70.757241 
L 1053.299819 70.757241 
L 1053.742765 70.263729 
L 1054.18571 70.263729 
L 1054.628656 69.786667 
L 1056.400437 69.786667 
L 1056.843383 69.325246 
L 1059.501055 69.325246 
L 1059.944001 68.87871 
L 1060.386946 68.87871 
L 1061.272837 92.815758 
L 1065.259346 92.815758 
L 1065.702291 92.05194 
L 1068.802909 92.05194 
L 1069.245855 91.310588 
L 1072.346473 91.310588 
L 1072.789418 96.709565 
L 1076.775927 96.709565 
L 1077.218872 95.922857 
L 1078.547709 95.922857 
L 1078.990654 94.415 
L 1079.4336 94.415 
L 1079.876545 99.475616 
L 1080.31949 99.475616 
L 1080.762436 98.694054 
L 1083.420108 98.694054 
L 1083.863054 103.562667 
L 1086.077781 103.562667 
L 1086.520726 102.747895 
L 1088.735453 102.747895 
L 1089.621344 101.181026 
L 1090.950181 101.181026 
L 1091.393126 100.427342 
L 1092.721962 100.427342 
L 1093.607853 98.975802 
L 1103.352652 98.975802 
L 1103.795598 98.276585 
L 1107.339161 98.276585 
L 1107.782107 102.680964 
L 1110.439779 102.680964 
L 1110.882725 101.954286 
L 1115.312179 101.954286 
L 1115.755124 101.244706 
L 1117.526906 101.244706 
L 1117.969851 100.551628 
L 1119.298688 100.551628 
L 1119.741633 99.212727 
L 1121.513415 99.212727 
L 1121.95636 98.565843 
L 1122.399306 98.565843 
L 1122.842251 102.624444 
L 1126.82876 102.624444 
L 1127.271705 106.593846 
L 1127.714651 106.593846 
L 1128.157596 105.887826 
L 1129.929378 105.887826 
L 1130.372323 104.520851 
L 1134.358832 104.520851 
L 1135.687668 102.576082 
L 1137.45945 102.576082 
L 1137.902396 101.954286 
L 1138.345341 101.954286 
L 1138.788286 101.345051 
L 1140.117123 101.345051 
L 1140.560068 100.748 
L 1141.003014 100.748 
L 1141.445959 107.224466 
L 1141.888904 106.593846 
L 1146.761304 106.593846 
L 1147.204249 105.368302 
L 1147.647195 105.368302 
L 1148.09014 104.77271 
L 1148.976031 104.77271 
L 1149.418977 104.188148 
L 1150.747813 104.188148 
L 1151.190758 103.614312 
L 1152.076649 103.614312 
L 1152.519595 103.050909 
L 1154.291376 103.050909 
L 1155.177267 109.493571 
L 1156.063158 109.493571 
L 1156.506103 108.893097 
L 1158.277885 108.893097 
L 1158.720831 108.303158 
L 1162.264394 108.303158 
L 1162.707339 107.723478 
L 1164.479121 107.723478 
L 1164.922066 113.81094 
L 1165.365012 113.81094 
L 1165.807957 113.199322 
L 1168.46563 113.199322 
L 1168.908575 112.597983 
L 1172.009193 112.597983 
L 1172.452139 112.006667 
L 1174.666866 112.006667 
L 1175.109811 114.91438 
L 1175.552757 114.31377 
L 1179.982211 114.31377 
L 1180.425156 113.141613 
L 1183.525774 113.141613 
L 1183.96872 112.5696 
L 1184.411665 112.5696 
L 1184.854611 112.006667 
L 1185.297556 112.006667 
L 1185.740501 114.777008 
L 1186.183447 114.205625 
L 1189.284065 114.205625 
L 1190.169956 113.089231 
L 1193.270574 113.089231 
L 1193.713519 112.543817 
L 1194.156465 114.65203 
L 1196.371192 114.65203 
L 1196.814137 114.107164 
L 1197.700028 114.107164 
L 1198.142973 113.57037 
L 1201.686537 113.57037 
L 1202.129482 113.041471 
L 1202.572428 113.041471 
L 1203.015373 115.602044 
L 1203.458318 115.602044 
L 1203.901264 118.125507 
L 1204.787155 118.125507 
L 1205.2301 117.575252 
L 1212.317227 117.575252 
L 1212.760172 117.032857 
L 1213.646063 117.032857 
L 1214.089009 119.492482 
L 1218.518463 119.492482 
L 1218.961408 118.944225 
L 1223.390863 118.944225 
L 1224.276753 117.870556 
L 1224.719699 117.870556 
L 1225.162644 120.256552 
L 1229.149153 120.256552 
L 1229.592099 119.718082 
L 1230.477989 119.718082 
L 1230.920935 118.662973 
L 1231.806826 118.662973 
L 1232.249771 120.979597 
L 1233.135662 120.979597 
L 1234.464498 119.413684 
L 1238.893952 119.413684 
L 1239.336898 118.905359 
L 1241.551625 118.905359 
L 1241.99457 123.356129 
L 1245.981079 123.356129 
L 1246.424025 125.538718 
L 1247.309915 125.538718 
L 1247.752861 125.004331 
L 1249.081697 125.004331 
L 1249.524643 124.476709 
L 1249.967588 124.476709 
L 1250.410533 123.955723 
L 1256.168824 123.955723 
L 1256.611769 126.08 
L 1261.041224 126.08 
L 1261.484169 125.555528 
L 1261.927115 125.555528 
L 1262.37006 125.037531 
L 1266.799514 125.037531 
L 1267.24246 124.52589 
L 1268.571296 124.52589 
L 1269.014241 124.020488 
L 1269.457187 124.020488 
L 1269.900132 128.114699 
L 1270.786023 127.085238 
L 1271.228968 127.085238 
L 1271.671914 126.579645 
L 1272.114859 128.563529 
L 1273.00075 128.563529 
L 1273.443696 128.055205 
L 1275.215477 128.055205 
L 1275.658423 130.007442 
L 1276.101368 129.496647 
L 1278.316095 129.496647 
L 1278.759041 131.418161 
L 1280.087877 131.418161 
L 1280.530822 130.905143 
L 1281.416713 130.905143 
L 1281.859659 130.397955 
L 1284.960277 130.397955 
L 1285.403222 129.896497 
L 1289.389731 129.896497 
L 1289.832676 129.400674 
L 1291.604458 129.400674 
L 1292.047403 128.910391 
L 1292.933294 128.910391 
L 1293.37624 128.425556 
L 1293.37624 128.425556 
" style="fill:none;stroke:#ff0000;stroke-linecap:square;stroke-width:1.5;"/>
   </g>
   <g id="line2d_35">
    <path clip-path="url(#p1ffced7094)" d="M 851.759651 460.887552 
L 863.276232 460.887552 
L 863.719178 457.935105 
L 866.819796 457.935105 
L 867.262741 452.03021 
L 873.463977 452.03021 
L 873.906922 449.077762 
L 879.222268 449.077762 
L 879.665213 446.125315 
L 883.208776 446.125315 
L 883.651722 443.172867 
L 889.852958 443.172867 
L 890.295903 440.22042 
L 896.940085 440.22042 
L 897.38303 437.267972 
L 904.027211 437.267972 
L 904.470157 434.315524 
L 912.000229 434.315524 
L 912.443174 431.363077 
L 918.64441 431.363077 
L 919.087356 428.410629 
L 922.187974 428.410629 
L 922.630919 425.458182 
L 923.073865 425.458182 
L 923.51681 422.505734 
L 925.731537 422.505734 
L 926.174483 419.553287 
L 928.832155 419.553287 
L 929.275101 416.600839 
L 935.919282 416.600839 
L 936.362227 413.648392 
L 938.576954 413.648392 
L 939.0199 410.695944 
L 941.677572 410.695944 
L 942.120518 407.743497 
L 944.335245 407.743497 
L 945.221136 401.838601 
L 955.851826 401.838601 
L 956.294771 398.886154 
L 968.697243 398.886154 
L 969.140189 395.933706 
L 970.91197 395.933706 
L 971.354916 390.028811 
L 981.099715 390.028811 
L 981.542661 387.076364 
L 981.985606 387.076364 
L 982.871497 381.171469 
L 985.529169 381.171469 
L 985.972115 378.219021 
L 987.300951 378.219021 
L 987.743897 375.266573 
L 992.173351 375.266573 
L 992.616296 372.314126 
L 993.945133 372.314126 
L 994.388078 369.361678 
L 994.831023 369.361678 
L 995.273969 360.504336 
L 1001.032259 360.42454 
L 1001.475205 357.474192 
L 1002.361096 357.474192 
L 1002.804041 354.523737 
L 1003.246986 354.523737 
L 1003.689932 354.311397 
L 1008.119386 354.311397 
L 1008.562332 351.365808 
L 1011.220004 351.365808 
L 1011.66295 348.419899 
L 1012.54884 348.419899 
L 1012.991786 345.473694 
L 1014.320622 345.473694 
L 1014.763567 342.527211 
L 1020.964803 342.527211 
L 1021.407749 339.580468 
L 1021.850694 342.224288 
L 1024.951312 342.224288 
L 1025.394258 339.283619 
L 1028.05193 339.283619 
L 1028.494876 338.89242 
L 1030.709603 338.89242 
L 1031.152548 335.958497 
L 1032.481384 335.958497 
L 1032.92433 333.023862 
L 1034.253166 333.023862 
L 1034.696112 327.152613 
L 1036.910839 327.152613 
L 1037.353784 324.216071 
L 1038.68262 324.216071 
L 1039.125566 321.278961 
L 1048.870365 321.278961 
L 1049.313311 318.341313 
L 1049.756256 318.341313 
L 1050.199201 315.403154 
L 1053.299819 315.403154 
L 1053.742765 312.464511 
L 1054.18571 312.464511 
L 1054.628656 309.525408 
L 1056.400437 309.525408 
L 1056.843383 306.585867 
L 1059.501055 306.585867 
L 1059.944001 303.64591 
L 1060.386946 303.64591 
L 1061.272837 313.354643 
L 1065.259346 313.354643 
L 1065.702291 310.444926 
L 1068.802909 310.444926 
L 1069.245855 307.533953 
L 1072.346473 307.533953 
L 1072.789418 309.799258 
L 1076.775927 309.799258 
L 1077.218872 306.896324 
L 1078.547709 306.896324 
L 1078.990654 301.086329 
L 1079.4336 301.086329 
L 1079.876545 303.315831 
L 1080.31949 303.315831 
L 1080.762436 300.418038 
L 1083.420108 300.418038 
L 1083.863054 302.596998 
L 1086.077781 302.596998 
L 1086.520726 299.707225 
L 1088.735453 299.707225 
L 1089.621344 293.922858 
L 1090.950181 293.922858 
L 1091.393126 291.028386 
L 1092.721962 291.028386 
L 1093.607853 285.235148 
L 1103.352652 285.235148 
L 1103.795598 282.336486 
L 1107.339161 282.336486 
L 1107.782107 284.523276 
L 1110.439779 284.523276 
L 1110.882725 281.631808 
L 1115.312179 281.631808 
L 1115.755124 278.738906 
L 1117.526906 278.738906 
L 1117.969851 275.844619 
L 1119.298688 275.844619 
L 1119.741633 270.052079 
L 1121.513415 270.052079 
L 1121.95636 267.153915 
L 1122.399306 267.153915 
L 1122.842251 269.339316 
L 1126.82876 269.339316 
L 1127.271705 271.476686 
L 1127.714651 271.476686 
L 1128.157596 268.59336 
L 1129.929378 268.59336 
L 1130.372323 262.822294 
L 1134.358832 262.822294 
L 1135.687668 254.155349 
L 1137.45945 254.155349 
L 1137.902396 251.263776 
L 1138.345341 251.263776 
L 1138.788286 248.370974 
L 1140.117123 248.370974 
L 1140.560068 245.476979 
L 1141.003014 245.476979 
L 1141.445959 246.878102 
L 1141.888904 243.996213 
L 1146.761304 243.996213 
L 1147.204249 238.228442 
L 1147.647195 238.228442 
L 1148.09014 235.342634 
L 1148.976031 235.342634 
L 1149.418977 232.455592 
L 1150.747813 232.455592 
L 1151.190758 229.56735 
L 1152.076649 229.56735 
L 1152.519595 226.67794 
L 1154.291376 226.67794 
L 1155.177267 230.912977 
L 1156.063158 230.912977 
L 1156.506103 228.036114 
L 1158.277885 228.036114 
L 1158.720831 225.157924 
L 1162.264394 225.157924 
L 1162.707339 222.278443 
L 1164.479121 222.278443 
L 1164.922066 226.407701 
L 1165.365012 226.407701 
L 1165.807957 223.540794 
L 1168.46563 223.540794 
L 1168.908575 220.67245 
L 1172.009193 220.67245 
L 1172.452139 217.802704 
L 1174.666866 217.802704 
L 1175.109811 219.83607 
L 1175.552757 216.971824 
L 1179.982211 216.971824 
L 1180.425156 211.239064 
L 1183.525774 211.239064 
L 1183.96872 208.370618 
L 1184.411665 208.370618 
L 1184.854611 205.500839 
L 1185.297556 205.500839 
L 1185.740501 207.535006 
L 1186.183447 204.670463 
L 1189.284065 204.670463 
L 1190.169956 198.937321 
L 1193.270574 198.937321 
L 1193.713519 196.068783 
L 1194.156465 195.233869 
L 1196.371192 195.233869 
L 1196.814137 192.369058 
L 1197.700028 192.369058 
L 1198.142973 189.502947 
L 1201.686537 189.502947 
L 1202.129482 186.635568 
L 1202.572428 186.635568 
L 1203.015373 188.658958 
L 1203.458318 188.658958 
L 1203.901264 190.653023 
L 1204.787155 190.653023 
L 1205.2301 187.796774 
L 1212.317227 187.796774 
L 1212.760172 184.939151 
L 1213.646063 184.939151 
L 1214.089009 186.917171 
L 1218.518463 186.917171 
L 1218.961408 184.064407 
L 1223.390863 184.064407 
L 1224.276753 178.354724 
L 1224.719699 178.354724 
L 1225.162644 180.323588 
L 1229.149153 180.323588 
L 1229.592099 177.47281 
L 1230.477989 177.47281 
L 1230.920935 171.767131 
L 1231.806826 171.767131 
L 1232.249771 173.727352 
L 1233.135662 173.727352 
L 1234.464498 165.176621 
L 1238.893952 165.176621 
L 1239.336898 162.323706 
L 1241.551625 162.323706 
L 1241.99457 166.214239 
L 1245.981079 166.214239 
L 1246.424025 168.122096 
L 1247.309915 168.122096 
L 1247.752861 165.285495 
L 1249.081697 165.285495 
L 1249.524643 162.447427 
L 1249.967588 162.447427 
L 1250.410533 159.60792 
L 1256.168824 159.60792 
L 1256.611769 161.509371 
L 1261.041224 161.509371 
L 1261.484169 158.674287 
L 1261.927115 158.674287 
L 1262.37006 155.837755 
L 1266.799514 155.837755 
L 1267.24246 152.999801 
L 1268.571296 152.999801 
L 1269.014241 150.16045 
L 1269.457187 150.16045 
L 1269.900132 153.939722 
L 1270.786023 148.279594 
L 1271.228968 148.279594 
L 1271.671914 145.447357 
L 1272.114859 147.320255 
L 1273.00075 147.320255 
L 1273.443696 144.492223 
L 1275.215477 144.492223 
L 1275.658423 146.348896 
L 1276.101368 143.52504 
L 1278.316095 143.52504 
L 1278.759041 145.36593 
L 1280.087877 145.36593 
L 1280.530822 142.546222 
L 1281.416713 142.546222 
L 1281.859659 139.725005 
L 1284.960277 139.725005 
L 1285.403222 136.902305 
L 1289.389731 136.902305 
L 1289.832676 134.078147 
L 1291.604458 134.078147 
L 1292.047403 131.252556 
L 1292.933294 131.252556 
L 1293.37624 128.425556 
L 1293.37624 128.425556 
" style="fill:none;stroke:#008000;stroke-linecap:square;stroke-width:1.5;"/>
   </g>
   <g id="line2d_36">
    <path clip-path="url(#p1ffced7094)" d="M 1293.37624 463.84 
L 1293.37624 41.64 
" style="fill:none;stroke:#1f77b4;stroke-linecap:square;stroke-width:1.5;"/>
   </g>
   <g id="patch_9">
    <path d="M 828.748636 463.84 
L 828.748636 41.64 
" style="fill:none;stroke:#000000;stroke-linecap:square;stroke-linejoin:miter;stroke-width:0.8;"/>
   </g>
   <g id="patch_10">
    <path d="M 1315.501364 463.84 
L 1315.501364 41.64 
" style="fill:none;stroke:#000000;stroke-linecap:square;stroke-linejoin:miter;stroke-width:0.8;"/>
   </g>
   <g id="patch_11">
    <path d="M 828.748636 463.84 
L 1315.501364 463.84 
" style="fill:none;stroke:#000000;stroke-linecap:square;stroke-linejoin:miter;stroke-width:0.8;"/>
   </g>
   <g id="patch_12">
    <path d="M 828.748636 41.64 
L 1315.501364 41.64 
" style="fill:none;stroke:#000000;stroke-linecap:square;stroke-linejoin:miter;stroke-width:0.8;"/>
   </g>
   <g id="text_31">
    <!-- Purity/Efficiency vs nuMcpMomentum Cutoff — electron -->
    <defs>
     <path d="M 9.421875 75.984375 
L 18.40625 75.984375 
L 18.40625 0 
L 9.421875 0 
z
" id="DejaVuSans-108"/>
    </defs>
    <g transform="translate(710.02665 35.64)scale(0.2592 -0.2592)">
     <use xlink:href="#DejaVuSans-80"/>
     <use x="60.287109" xlink:href="#DejaVuSans-117"/>
     <use x="123.666016" xlink:href="#DejaVuSans-114"/>
     <use x="164.779297" xlink:href="#DejaVuSans-105"/>
     <use x="192.5625" xlink:href="#DejaVuSans-116"/>
     <use x="231.771484" xlink:href="#DejaVuSans-121"/>
     <use x="290.951172" xlink:href="#DejaVuSans-47"/>
     <use x="324.642578" xlink:href="#DejaVuSans-69"/>
     <use x="387.826172" xlink:href="#DejaVuSans-102"/>
     <use x="423.03125" xlink:href="#DejaVuSans-102"/>
     <use x="458.236328" xlink:href="#DejaVuSans-105"/>
     <use x="486.019531" xlink:href="#DejaVuSans-99"/>
     <use x="541" xlink:href="#DejaVuSans-105"/>
     <use x="568.783203" xlink:href="#DejaVuSans-101"/>
     <use x="630.306641" xlink:href="#DejaVuSans-110"/>
     <use x="693.685547" xlink:href="#DejaVuSans-99"/>
     <use x="748.666016" xlink:href="#DejaVuSans-121"/>
     <use x="807.845703" xlink:href="#DejaVuSans-32"/>
     <use x="839.632812" xlink:href="#DejaVuSans-118"/>
     <use x="898.8125" xlink:href="#DejaVuSans-115"/>
     <use x="950.912109" xlink:href="#DejaVuSans-32"/>
     <use x="982.699219" xlink:href="#DejaVuSans-110"/>
     <use x="1046.078125" xlink:href="#DejaVuSans-117"/>
     <use x="1109.457031" xlink:href="#DejaVuSans-77"/>
     <use x="1195.736328" xlink:href="#DejaVuSans-99"/>
     <use x="1250.716797" xlink:href="#DejaVuSans-112"/>
     <use x="1314.193359" xlink:href="#DejaVuSans-77"/>
     <use x="1400.472656" xlink:href="#DejaVuSans-111"/>
     <use x="1461.654297" xlink:href="#DejaVuSans-109"/>
     <use x="1559.066406" xlink:href="#DejaVuSans-101"/>
     <use x="1620.589844" xlink:href="#DejaVuSans-110"/>
     <use x="1683.96875" xlink:href="#DejaVuSans-116"/>
     <use x="1723.177734" xlink:href="#DejaVuSans-117"/>
     <use x="1786.556641" xlink:href="#DejaVuSans-109"/>
     <use x="1883.96875" xlink:href="#DejaVuSans-32"/>
     <use x="1915.755859" xlink:href="#DejaVuSans-67"/>
     <use x="1985.580078" xlink:href="#DejaVuSans-117"/>
     <use x="2048.958984" xlink:href="#DejaVuSans-116"/>
     <use x="2088.167969" xlink:href="#DejaVuSans-111"/>
     <use x="2149.349609" xlink:href="#DejaVuSans-102"/>
     <use x="2184.554688" xlink:href="#DejaVuSans-102"/>
     <use x="2219.759766" xlink:href="#DejaVuSans-32"/>
     <use x="2251.546875" xlink:href="#DejaVuSans-8212"/>
     <use x="2351.546875" xlink:href="#DejaVuSans-32"/>
     <use x="2383.333984" xlink:href="#DejaVuSans-101"/>
     <use x="2444.857422" xlink:href="#DejaVuSans-108"/>
     <use x="2472.640625" xlink:href="#DejaVuSans-101"/>
     <use x="2534.164062" xlink:href="#DejaVuSans-99"/>
     <use x="2589.144531" xlink:href="#DejaVuSans-116"/>
     <use x="2628.353516" xlink:href="#DejaVuSans-114"/>
     <use x="2669.435547" xlink:href="#DejaVuSans-111"/>
     <use x="2730.617188" xlink:href="#DejaVuSans-110"/>
    </g>
   </g>
   <g id="legend_2">
    <g id="patch_13">
     <path d="M 963.430313 454.84 
L 1180.819688 454.84 
Q 1184.419688 454.84 1184.419688 451.24 
L 1184.419688 373.778125 
Q 1184.419688 370.178125 1180.819688 370.178125 
L 963.430313 370.178125 
Q 959.830312 370.178125 959.830312 373.778125 
L 959.830312 451.24 
Q 959.830312 454.84 963.430313 454.84 
z
" style="fill:#ffffff;opacity:0.8;stroke:#cccccc;stroke-linejoin:miter;"/>
    </g>
    <g id="line2d_37">
     <path d="M 967.030313 384.755313 
L 1003.030313 384.755313 
" style="fill:none;stroke:#0000ff;stroke-linecap:square;stroke-width:1.5;"/>
    </g>
    <g id="line2d_38"/>
    <g id="text_32">
     <!-- Efficiency -->
     <g transform="translate(1017.430313 391.055313)scale(0.18 -0.18)">
      <use xlink:href="#DejaVuSans-69"/>
      <use x="63.183594" xlink:href="#DejaVuSans-102"/>
      <use x="98.388672" xlink:href="#DejaVuSans-102"/>
      <use x="133.59375" xlink:href="#DejaVuSans-105"/>
      <use x="161.376953" xlink:href="#DejaVuSans-99"/>
      <use x="216.357422" xlink:href="#DejaVuSans-105"/>
      <use x="244.140625" xlink:href="#DejaVuSans-101"/>
      <use x="305.664062" xlink:href="#DejaVuSans-110"/>
      <use x="369.042969" xlink:href="#DejaVuSans-99"/>
      <use x="424.023438" xlink:href="#DejaVuSans-121"/>
     </g>
    </g>
    <g id="line2d_39">
     <path d="M 967.030313 411.175937 
L 1003.030313 411.175937 
" style="fill:none;stroke:#ff0000;stroke-linecap:square;stroke-width:1.5;"/>
    </g>
    <g id="line2d_40"/>
    <g id="text_33">
     <!-- Purity -->
     <g transform="translate(1017.430313 417.475937)scale(0.18 -0.18)">
      <use xlink:href="#DejaVuSans-80"/>
      <use x="60.287109" xlink:href="#DejaVuSans-117"/>
      <use x="123.666016" xlink:href="#DejaVuSans-114"/>
      <use x="164.779297" xlink:href="#DejaVuSans-105"/>
      <use x="192.5625" xlink:href="#DejaVuSans-116"/>
      <use x="231.771484" xlink:href="#DejaVuSans-121"/>
     </g>
    </g>
    <g id="line2d_41">
     <path d="M 967.030313 437.596562 
L 1003.030313 437.596562 
" style="fill:none;stroke:#008000;stroke-linecap:square;stroke-width:1.5;"/>
    </g>
    <g id="line2d_42"/>
    <g id="text_34">
     <!-- Purity * Efficiency -->
     <g transform="translate(1017.430313 443.896562)scale(0.18 -0.18)">
      <use xlink:href="#DejaVuSans-80"/>
      <use x="60.287109" xlink:href="#DejaVuSans-117"/>
      <use x="123.666016" xlink:href="#DejaVuSans-114"/>
      <use x="164.779297" xlink:href="#DejaVuSans-105"/>
      <use x="192.5625" xlink:href="#DejaVuSans-116"/>
      <use x="231.771484" xlink:href="#DejaVuSans-121"/>
      <use x="290.951172" xlink:href="#DejaVuSans-32"/>
      <use x="322.738281" xlink:href="#DejaVuSans-42"/>
      <use x="372.738281" xlink:href="#DejaVuSans-32"/>
      <use x="404.525391" xlink:href="#DejaVuSans-69"/>
      <use x="467.708984" xlink:href="#DejaVuSans-102"/>
      <use x="502.914062" xlink:href="#DejaVuSans-102"/>
      <use x="538.119141" xlink:href="#DejaVuSans-105"/>
      <use x="565.902344" xlink:href="#DejaVuSans-99"/>
      <use x="620.882812" xlink:href="#DejaVuSans-105"/>
      <use x="648.666016" xlink:href="#DejaVuSans-101"/>
      <use x="710.189453" xlink:href="#DejaVuSans-110"/>
      <use x="773.568359" xlink:href="#DejaVuSans-99"/>
      <use x="828.548828" xlink:href="#DejaVuSans-121"/>
     </g>
    </g>
   </g>
  </g>
 </g>
 <defs>
  <clipPath id="pd9adf0dfd6">
   <rect height="422.2" width="486.752727" x="116.848636" y="41.64"/>
  </clipPath>
  <clipPath id="p1ffced7094">
   <rect height="422.2" width="486.752727" x="828.748636" y="41.64"/>
  </clipPath>
 </defs>
</svg>
