<?xml version="1.0" encoding="utf-8" standalone="no"?>
<!DOCTYPE svg PUBLIC "-//W3C//DTD SVG 1.1//EN"
  "http://www.w3.org/Graphics/SVG/1.1/DTD/svg11.dtd">
<!-- Created with matplotlib (https://matplotlib.org/) -->
<svg height="540pt" version="1.1" viewBox="0 0 720 540" width="720pt" xmlns="http://www.w3.org/2000/svg" xmlns:xlink="http://www.w3.org/1999/xlink">
 <defs>
  <style type="text/css">
*{stroke-linecap:butt;stroke-linejoin:round;}
  </style>
 </defs>
 <g id="figure_1">
  <g id="patch_1">
   <path d="M 0 540 
L 720 540 
L 720 0 
L 0 0 
z
" style="fill:#ffffff;"/>
  </g>
  <g id="axes_1">
   <g id="patch_2">
    <path d="M 90 480.6 
L 648 480.6 
L 648 64.8 
L 90 64.8 
z
" style="fill:#ffffff;"/>
   </g>
   <g id="patch_3">
    <path clip-path="url(#p86fc2b387b)" d="M 90 115076.67082 
L 90 216.264412 
L 101.387755 216.264412 
L 101.387755 169.560797 
L 112.77551 169.560797 
L 112.77551 140.577223 
L 124.163265 140.577223 
L 124.163265 111.195343 
L 135.55102 111.195343 
L 135.55102 103.015946 
L 146.938776 103.015946 
L 146.938776 83.7 
L 158.326531 83.7 
L 158.326531 89.467641 
L 169.714286 89.467641 
L 169.714286 115.848684 
L 181.102041 115.848684 
L 181.102041 134.027472 
L 192.489796 134.027472 
L 192.489796 142.617806 
L 203.877551 142.617806 
L 203.877551 179.393817 
L 215.265306 179.393817 
L 215.265306 200.760598 
L 226.653061 200.760598 
L 226.653061 181.615842 
L 238.040816 181.615842 
L 238.040816 197.534491 
L 249.428571 197.534491 
L 249.428571 211.914947 
L 260.816327 211.914947 
L 260.816327 194.504028 
L 272.204082 194.504028 
L 272.204082 197.534491 
L 283.591837 197.534491 
L 283.591837 221.028713 
L 294.979592 221.028713 
L 294.979592 255.677283 
L 306.367347 255.677283 
L 306.367347 246.563517 
L 317.755102 246.563517 
L 317.755102 336.128773 
L 329.142857 336.128773 
L 329.142857 255.677283 
L 340.530612 255.677283 
L 340.530612 255.677283 
L 351.918367 255.677283 
L 351.918367 255.677283 
L 363.306122 255.677283 
L 363.306122 266.831632 
L 374.693878 266.831632 
L 374.693878 336.128773 
L 386.081633 336.128773 
L 386.081633 336.128773 
L 397.469388 336.128773 
L 397.469388 301.480202 
L 408.857143 301.480202 
L 408.857143 336.128773 
L 420.244898 336.128773 
L 420.244898 336.128773 
L 431.632653 336.128773 
L 431.632653 301.480202 
L 443.020408 301.480202 
L 443.020408 336.128773 
L 454.408163 336.128773 
L 454.408163 281.212088 
L 465.795918 281.212088 
L 465.795918 301.480202 
L 477.183673 301.480202 
L 477.183673 336.128773 
L 488.571429 336.128773 
L 488.571429 336.128773 
L 499.959184 336.128773 
L 499.959184 115076.67082 
L 511.346939 115076.67082 
L 511.346939 336.128773 
L 522.734694 336.128773 
L 522.734694 336.128773 
L 534.122449 336.128773 
L 534.122449 336.128773 
L 545.510204 336.128773 
L 545.510204 115076.67082 
L 556.897959 115076.67082 
L 556.897959 115076.67082 
L 568.285714 115076.67082 
L 568.285714 115076.67082 
L 579.673469 115076.67082 
L 579.673469 115076.67082 
L 591.061224 115076.67082 
L 591.061224 115076.67082 
L 602.44898 115076.67082 
L 602.44898 115076.67082 
L 613.836735 115076.67082 
L 613.836735 336.128773 
L 625.22449 336.128773 
L 625.22449 115076.67082 
L 636.612245 115076.67082 
L 636.612245 115076.67082 
L 648 115076.67082 
L 648 115076.67082 
z
" style="fill:#1f77b4;opacity:0.2;"/>
   </g>
   <g id="patch_4">
    <path clip-path="url(#p86fc2b387b)" d="M 90 115076.67082 
L 90 203.241357 
L 101.387755 203.241357 
L 101.387755 144.498639 
L 112.77551 144.498639 
L 112.77551 126.380848 
L 124.163265 126.380848 
L 124.163265 120.081213 
L 135.55102 120.081213 
L 135.55102 109.850068 
L 146.938776 109.850068 
L 146.938776 107.286054 
L 158.326531 107.286054 
L 158.326531 108.851591 
L 169.714286 108.851591 
L 169.714286 123.361158 
L 181.102041 123.361158 
L 181.102041 138.010467 
L 192.489796 138.010467 
L 192.489796 133.029574 
L 203.877551 133.029574 
L 203.877551 129.464744 
L 215.265306 129.464744 
L 215.265306 129.076743 
L 226.653061 129.076743 
L 226.653061 141.02649 
L 238.040816 141.02649 
L 238.040816 153.402374 
L 249.428571 153.402374 
L 249.428571 183.544533 
L 260.816327 183.544533 
L 260.816327 194.41242 
L 272.204082 194.41242 
L 272.204082 225.390548 
L 283.591837 225.390548 
L 283.591837 239.623766 
L 294.979592 239.623766 
L 294.979592 254.595795 
L 306.367347 254.595795 
L 306.367347 268.189033 
L 317.755102 268.189033 
L 317.755102 268.189033 
L 329.142857 268.189033 
L 329.142857 268.189033 
L 340.530612 268.189033 
L 340.530612 309.51248 
L 351.918367 309.51248 
L 351.918367 286.918954 
L 363.306122 286.918954 
L 363.306122 300.797021 
L 374.693878 300.797021 
L 374.693878 323.105718 
L 386.081633 323.105718 
L 386.081633 326.331826 
L 397.469388 326.331826 
L 397.469388 333.485053 
L 408.857143 333.485053 
L 408.857143 323.105718 
L 420.244898 323.105718 
L 420.244898 341.835639 
L 431.632653 341.835639 
L 431.632653 337.486174 
L 443.020408 337.486174 
L 443.020408 427.051429 
L 454.408163 427.051429 
L 454.408163 372.134744 
L 465.795918 372.134744 
L 465.795918 381.248511 
L 477.183673 381.248511 
L 477.183673 381.248511 
L 488.571429 381.248511 
L 488.571429 392.402859 
L 499.959184 392.402859 
L 499.959184 406.783315 
L 511.346939 406.783315 
L 511.346939 392.402859 
L 522.734694 392.402859 
L 522.734694 381.248511 
L 534.122449 381.248511 
L 534.122449 427.051429 
L 545.510204 427.051429 
L 545.510204 427.051429 
L 556.897959 427.051429 
L 556.897959 427.051429 
L 568.285714 427.051429 
L 568.285714 406.783315 
L 579.673469 406.783315 
L 579.673469 406.783315 
L 591.061224 406.783315 
L 591.061224 406.783315 
L 602.44898 406.783315 
L 602.44898 427.051429 
L 613.836735 427.051429 
L 613.836735 427.051429 
L 625.22449 427.051429 
L 625.22449 461.7 
L 636.612245 461.7 
L 636.612245 406.783315 
L 648 406.783315 
L 648 115076.67082 
z
" style="fill:#ff7f0e;opacity:0.2;"/>
   </g>
   <g id="matplotlib.axis_1">
    <g id="xtick_1">
     <g id="line2d_1">
      <defs>
       <path d="M 0 0 
L 0 3.5 
" id="m75d2bc1764" style="stroke:#000000;stroke-width:0.8;"/>
      </defs>
      <g>
       <use style="stroke:#000000;stroke-width:0.8;" x="90" xlink:href="#m75d2bc1764" y="480.6"/>
      </g>
     </g>
     <g id="text_1">
      <!-- 0 -->
      <defs>
       <path d="M 31.78125 66.40625 
Q 24.171875 66.40625 20.328125 58.90625 
Q 16.5 51.421875 16.5 36.375 
Q 16.5 21.390625 20.328125 13.890625 
Q 24.171875 6.390625 31.78125 6.390625 
Q 39.453125 6.390625 43.28125 13.890625 
Q 47.125 21.390625 47.125 36.375 
Q 47.125 51.421875 43.28125 58.90625 
Q 39.453125 66.40625 31.78125 66.40625 
z
M 31.78125 74.21875 
Q 44.046875 74.21875 50.515625 64.515625 
Q 56.984375 54.828125 56.984375 36.375 
Q 56.984375 17.96875 50.515625 8.265625 
Q 44.046875 -1.421875 31.78125 -1.421875 
Q 19.53125 -1.421875 13.0625 8.265625 
Q 6.59375 17.96875 6.59375 36.375 
Q 6.59375 54.828125 13.0625 64.515625 
Q 19.53125 74.21875 31.78125 74.21875 
z
" id="DejaVuSans-48"/>
      </defs>
      <g transform="translate(81.7542 507.29515)scale(0.2592 -0.2592)">
       <use xlink:href="#DejaVuSans-48"/>
      </g>
     </g>
    </g>
    <g id="xtick_2">
     <g id="line2d_2">
      <g>
       <use style="stroke:#000000;stroke-width:0.8;" x="229.5" xlink:href="#m75d2bc1764" y="480.6"/>
      </g>
     </g>
     <g id="text_2">
      <!-- 500 -->
      <defs>
       <path d="M 10.796875 72.90625 
L 49.515625 72.90625 
L 49.515625 64.59375 
L 19.828125 64.59375 
L 19.828125 46.734375 
Q 21.96875 47.46875 24.109375 47.828125 
Q 26.265625 48.1875 28.421875 48.1875 
Q 40.625 48.1875 47.75 41.5 
Q 54.890625 34.8125 54.890625 23.390625 
Q 54.890625 11.625 47.5625 5.09375 
Q 40.234375 -1.421875 26.90625 -1.421875 
Q 22.3125 -1.421875 17.546875 -0.640625 
Q 12.796875 0.140625 7.71875 1.703125 
L 7.71875 11.625 
Q 12.109375 9.234375 16.796875 8.0625 
Q 21.484375 6.890625 26.703125 6.890625 
Q 35.15625 6.890625 40.078125 11.328125 
Q 45.015625 15.765625 45.015625 23.390625 
Q 45.015625 31 40.078125 35.4375 
Q 35.15625 39.890625 26.703125 39.890625 
Q 22.75 39.890625 18.8125 39.015625 
Q 14.890625 38.140625 10.796875 36.28125 
z
" id="DejaVuSans-53"/>
      </defs>
      <g transform="translate(204.7626 507.29515)scale(0.2592 -0.2592)">
       <use xlink:href="#DejaVuSans-53"/>
       <use x="63.623047" xlink:href="#DejaVuSans-48"/>
       <use x="127.246094" xlink:href="#DejaVuSans-48"/>
      </g>
     </g>
    </g>
    <g id="xtick_3">
     <g id="line2d_3">
      <g>
       <use style="stroke:#000000;stroke-width:0.8;" x="369" xlink:href="#m75d2bc1764" y="480.6"/>
      </g>
     </g>
     <g id="text_3">
      <!-- 1000 -->
      <defs>
       <path d="M 12.40625 8.296875 
L 28.515625 8.296875 
L 28.515625 63.921875 
L 10.984375 60.40625 
L 10.984375 69.390625 
L 28.421875 72.90625 
L 38.28125 72.90625 
L 38.28125 8.296875 
L 54.390625 8.296875 
L 54.390625 0 
L 12.40625 0 
z
" id="DejaVuSans-49"/>
      </defs>
      <g transform="translate(336.0168 507.29515)scale(0.2592 -0.2592)">
       <use xlink:href="#DejaVuSans-49"/>
       <use x="63.623047" xlink:href="#DejaVuSans-48"/>
       <use x="127.246094" xlink:href="#DejaVuSans-48"/>
       <use x="190.869141" xlink:href="#DejaVuSans-48"/>
      </g>
     </g>
    </g>
    <g id="xtick_4">
     <g id="line2d_4">
      <g>
       <use style="stroke:#000000;stroke-width:0.8;" x="508.5" xlink:href="#m75d2bc1764" y="480.6"/>
      </g>
     </g>
     <g id="text_4">
      <!-- 1500 -->
      <g transform="translate(475.5168 507.29515)scale(0.2592 -0.2592)">
       <use xlink:href="#DejaVuSans-49"/>
       <use x="63.623047" xlink:href="#DejaVuSans-53"/>
       <use x="127.246094" xlink:href="#DejaVuSans-48"/>
       <use x="190.869141" xlink:href="#DejaVuSans-48"/>
      </g>
     </g>
    </g>
    <g id="xtick_5">
     <g id="line2d_5">
      <g>
       <use style="stroke:#000000;stroke-width:0.8;" x="648" xlink:href="#m75d2bc1764" y="480.6"/>
      </g>
     </g>
     <g id="text_5">
      <!-- 2000 -->
      <defs>
       <path d="M 19.1875 8.296875 
L 53.609375 8.296875 
L 53.609375 0 
L 7.328125 0 
L 7.328125 8.296875 
Q 12.9375 14.109375 22.625 23.890625 
Q 32.328125 33.6875 34.8125 36.53125 
Q 39.546875 41.84375 41.421875 45.53125 
Q 43.3125 49.21875 43.3125 52.78125 
Q 43.3125 58.59375 39.234375 62.25 
Q 35.15625 65.921875 28.609375 65.921875 
Q 23.96875 65.921875 18.8125 64.3125 
Q 13.671875 62.703125 7.8125 59.421875 
L 7.8125 69.390625 
Q 13.765625 71.78125 18.9375 73 
Q 24.125 74.21875 28.421875 74.21875 
Q 39.75 74.21875 46.484375 68.546875 
Q 53.21875 62.890625 53.21875 53.421875 
Q 53.21875 48.921875 51.53125 44.890625 
Q 49.859375 40.875 45.40625 35.40625 
Q 44.1875 33.984375 37.640625 27.21875 
Q 31.109375 20.453125 19.1875 8.296875 
z
" id="DejaVuSans-50"/>
      </defs>
      <g transform="translate(615.0168 507.29515)scale(0.2592 -0.2592)">
       <use xlink:href="#DejaVuSans-50"/>
       <use x="63.623047" xlink:href="#DejaVuSans-48"/>
       <use x="127.246094" xlink:href="#DejaVuSans-48"/>
       <use x="190.869141" xlink:href="#DejaVuSans-48"/>
      </g>
     </g>
    </g>
    <g id="text_6">
     <!-- dedxV -->
     <defs>
      <path d="M 45.40625 46.390625 
L 45.40625 75.984375 
L 54.390625 75.984375 
L 54.390625 0 
L 45.40625 0 
L 45.40625 8.203125 
Q 42.578125 3.328125 38.25 0.953125 
Q 33.9375 -1.421875 27.875 -1.421875 
Q 17.96875 -1.421875 11.734375 6.484375 
Q 5.515625 14.40625 5.515625 27.296875 
Q 5.515625 40.1875 11.734375 48.09375 
Q 17.96875 56 27.875 56 
Q 33.9375 56 38.25 53.625 
Q 42.578125 51.265625 45.40625 46.390625 
z
M 14.796875 27.296875 
Q 14.796875 17.390625 18.875 11.75 
Q 22.953125 6.109375 30.078125 6.109375 
Q 37.203125 6.109375 41.296875 11.75 
Q 45.40625 17.390625 45.40625 27.296875 
Q 45.40625 37.203125 41.296875 42.84375 
Q 37.203125 48.484375 30.078125 48.484375 
Q 22.953125 48.484375 18.875 42.84375 
Q 14.796875 37.203125 14.796875 27.296875 
z
" id="DejaVuSans-100"/>
      <path d="M 56.203125 29.59375 
L 56.203125 25.203125 
L 14.890625 25.203125 
Q 15.484375 15.921875 20.484375 11.0625 
Q 25.484375 6.203125 34.421875 6.203125 
Q 39.59375 6.203125 44.453125 7.46875 
Q 49.3125 8.734375 54.109375 11.28125 
L 54.109375 2.78125 
Q 49.265625 0.734375 44.1875 -0.34375 
Q 39.109375 -1.421875 33.890625 -1.421875 
Q 20.796875 -1.421875 13.15625 6.1875 
Q 5.515625 13.8125 5.515625 26.8125 
Q 5.515625 40.234375 12.765625 48.109375 
Q 20.015625 56 32.328125 56 
Q 43.359375 56 49.78125 48.890625 
Q 56.203125 41.796875 56.203125 29.59375 
z
M 47.21875 32.234375 
Q 47.125 39.59375 43.09375 43.984375 
Q 39.0625 48.390625 32.421875 48.390625 
Q 24.90625 48.390625 20.390625 44.140625 
Q 15.875 39.890625 15.1875 32.171875 
z
" id="DejaVuSans-101"/>
      <path d="M 54.890625 54.6875 
L 35.109375 28.078125 
L 55.90625 0 
L 45.3125 0 
L 29.390625 21.484375 
L 13.484375 0 
L 2.875 0 
L 24.125 28.609375 
L 4.6875 54.6875 
L 15.28125 54.6875 
L 29.78125 35.203125 
L 44.28125 54.6875 
z
" id="DejaVuSans-120"/>
      <path d="M 28.609375 0 
L 0.78125 72.90625 
L 11.078125 72.90625 
L 34.1875 11.53125 
L 57.328125 72.90625 
L 67.578125 72.90625 
L 39.796875 0 
z
" id="DejaVuSans-86"/>
     </defs>
     <g transform="translate(328.03425 536.38085)scale(0.2592 -0.2592)">
      <use xlink:href="#DejaVuSans-100"/>
      <use x="63.476562" xlink:href="#DejaVuSans-101"/>
      <use x="125" xlink:href="#DejaVuSans-100"/>
      <use x="188.476562" xlink:href="#DejaVuSans-120"/>
      <use x="247.65625" xlink:href="#DejaVuSans-86"/>
     </g>
    </g>
   </g>
   <g id="matplotlib.axis_2">
    <g id="ytick_1">
     <g id="line2d_6">
      <defs>
       <path d="M 0 0 
L -3.5 0 
" id="m8654b0aec7" style="stroke:#000000;stroke-width:0.8;"/>
      </defs>
      <g>
       <use style="stroke:#000000;stroke-width:0.8;" x="90" xlink:href="#m8654b0aec7" y="437.0111"/>
      </g>
     </g>
     <g id="text_7">
      <!-- $\mathdefault{10^{-4}}$ -->
      <defs>
       <path d="M 10.59375 35.5 
L 73.1875 35.5 
L 73.1875 27.203125 
L 10.59375 27.203125 
z
" id="DejaVuSans-8722"/>
       <path d="M 37.796875 64.3125 
L 12.890625 25.390625 
L 37.796875 25.390625 
z
M 35.203125 72.90625 
L 47.609375 72.90625 
L 47.609375 25.390625 
L 58.015625 25.390625 
L 58.015625 17.1875 
L 47.609375 17.1875 
L 47.609375 0 
L 37.796875 0 
L 37.796875 17.1875 
L 4.890625 17.1875 
L 4.890625 26.703125 
z
" id="DejaVuSans-52"/>
      </defs>
      <g transform="translate(22.088 446.858675)scale(0.2592 -0.2592)">
       <use transform="translate(0 0.684375)" xlink:href="#DejaVuSans-49"/>
       <use transform="translate(63.623047 0.684375)" xlink:href="#DejaVuSans-48"/>
       <use transform="translate(128.203125 38.965625)scale(0.7)" xlink:href="#DejaVuSans-8722"/>
       <use transform="translate(186.855469 38.965625)scale(0.7)" xlink:href="#DejaVuSans-52"/>
      </g>
     </g>
    </g>
    <g id="ytick_2">
     <g id="line2d_7">
      <g>
       <use style="stroke:#000000;stroke-width:0.8;" x="90" xlink:href="#m8654b0aec7" y="321.91104"/>
      </g>
     </g>
     <g id="text_8">
      <!-- $\mathdefault{10^{-3}}$ -->
      <defs>
       <path d="M 40.578125 39.3125 
Q 47.65625 37.796875 51.625 33 
Q 55.609375 28.21875 55.609375 21.1875 
Q 55.609375 10.40625 48.1875 4.484375 
Q 40.765625 -1.421875 27.09375 -1.421875 
Q 22.515625 -1.421875 17.65625 -0.515625 
Q 12.796875 0.390625 7.625 2.203125 
L 7.625 11.71875 
Q 11.71875 9.328125 16.59375 8.109375 
Q 21.484375 6.890625 26.8125 6.890625 
Q 36.078125 6.890625 40.9375 10.546875 
Q 45.796875 14.203125 45.796875 21.1875 
Q 45.796875 27.640625 41.28125 31.265625 
Q 36.765625 34.90625 28.71875 34.90625 
L 20.21875 34.90625 
L 20.21875 43.015625 
L 29.109375 43.015625 
Q 36.375 43.015625 40.234375 45.921875 
Q 44.09375 48.828125 44.09375 54.296875 
Q 44.09375 59.90625 40.109375 62.90625 
Q 36.140625 65.921875 28.71875 65.921875 
Q 24.65625 65.921875 20.015625 65.03125 
Q 15.375 64.15625 9.8125 62.3125 
L 9.8125 71.09375 
Q 15.4375 72.65625 20.34375 73.4375 
Q 25.25 74.21875 29.59375 74.21875 
Q 40.828125 74.21875 47.359375 69.109375 
Q 53.90625 64.015625 53.90625 55.328125 
Q 53.90625 49.265625 50.4375 45.09375 
Q 46.96875 40.921875 40.578125 39.3125 
z
" id="DejaVuSans-51"/>
      </defs>
      <g transform="translate(22.088 331.758615)scale(0.2592 -0.2592)">
       <use transform="translate(0 0.765625)" xlink:href="#DejaVuSans-49"/>
       <use transform="translate(63.623047 0.765625)" xlink:href="#DejaVuSans-48"/>
       <use transform="translate(128.203125 39.046875)scale(0.7)" xlink:href="#DejaVuSans-8722"/>
       <use transform="translate(186.855469 39.046875)scale(0.7)" xlink:href="#DejaVuSans-51"/>
      </g>
     </g>
    </g>
    <g id="ytick_3">
     <g id="line2d_8">
      <g>
       <use style="stroke:#000000;stroke-width:0.8;" x="90" xlink:href="#m8654b0aec7" y="206.81098"/>
      </g>
     </g>
     <g id="text_9">
      <!-- $\mathdefault{10^{-2}}$ -->
      <g transform="translate(22.088 216.658555)scale(0.2592 -0.2592)">
       <use transform="translate(0 0.765625)" xlink:href="#DejaVuSans-49"/>
       <use transform="translate(63.623047 0.765625)" xlink:href="#DejaVuSans-48"/>
       <use transform="translate(128.203125 39.046875)scale(0.7)" xlink:href="#DejaVuSans-8722"/>
       <use transform="translate(186.855469 39.046875)scale(0.7)" xlink:href="#DejaVuSans-50"/>
      </g>
     </g>
    </g>
    <g id="ytick_4">
     <g id="line2d_9">
      <g>
       <use style="stroke:#000000;stroke-width:0.8;" x="90" xlink:href="#m8654b0aec7" y="91.71092"/>
      </g>
     </g>
     <g id="text_10">
      <!-- $\mathdefault{10^{-1}}$ -->
      <g transform="translate(22.088 101.558495)scale(0.2592 -0.2592)">
       <use transform="translate(0 0.684375)" xlink:href="#DejaVuSans-49"/>
       <use transform="translate(63.623047 0.684375)" xlink:href="#DejaVuSans-48"/>
       <use transform="translate(128.203125 38.965625)scale(0.7)" xlink:href="#DejaVuSans-8722"/>
       <use transform="translate(186.855469 38.965625)scale(0.7)" xlink:href="#DejaVuSans-49"/>
      </g>
     </g>
    </g>
    <g id="ytick_5">
     <g id="line2d_10">
      <defs>
       <path d="M 0 0 
L -2 0 
" id="m9bab7eac4b" style="stroke:#000000;stroke-width:0.6;"/>
      </defs>
      <g>
       <use style="stroke:#000000;stroke-width:0.6;" x="90" xlink:href="#m9bab7eac4b" y="471.659671"/>
      </g>
     </g>
    </g>
    <g id="ytick_6">
     <g id="line2d_11">
      <g>
       <use style="stroke:#000000;stroke-width:0.6;" x="90" xlink:href="#m9bab7eac4b" y="462.545904"/>
      </g>
     </g>
    </g>
    <g id="ytick_7">
     <g id="line2d_12">
      <g>
       <use style="stroke:#000000;stroke-width:0.6;" x="90" xlink:href="#m9bab7eac4b" y="454.840325"/>
      </g>
     </g>
    </g>
    <g id="ytick_8">
     <g id="line2d_13">
      <g>
       <use style="stroke:#000000;stroke-width:0.6;" x="90" xlink:href="#m9bab7eac4b" y="448.165448"/>
      </g>
     </g>
    </g>
    <g id="ytick_9">
     <g id="line2d_14">
      <g>
       <use style="stroke:#000000;stroke-width:0.6;" x="90" xlink:href="#m9bab7eac4b" y="442.27779"/>
      </g>
     </g>
    </g>
    <g id="ytick_10">
     <g id="line2d_15">
      <g>
       <use style="stroke:#000000;stroke-width:0.6;" x="90" xlink:href="#m9bab7eac4b" y="402.362529"/>
      </g>
     </g>
    </g>
    <g id="ytick_11">
     <g id="line2d_16">
      <g>
       <use style="stroke:#000000;stroke-width:0.6;" x="90" xlink:href="#m9bab7eac4b" y="382.094415"/>
      </g>
     </g>
    </g>
    <g id="ytick_12">
     <g id="line2d_17">
      <g>
       <use style="stroke:#000000;stroke-width:0.6;" x="90" xlink:href="#m9bab7eac4b" y="367.713959"/>
      </g>
     </g>
    </g>
    <g id="ytick_13">
     <g id="line2d_18">
      <g>
       <use style="stroke:#000000;stroke-width:0.6;" x="90" xlink:href="#m9bab7eac4b" y="356.559611"/>
      </g>
     </g>
    </g>
    <g id="ytick_14">
     <g id="line2d_19">
      <g>
       <use style="stroke:#000000;stroke-width:0.6;" x="90" xlink:href="#m9bab7eac4b" y="347.445844"/>
      </g>
     </g>
    </g>
    <g id="ytick_15">
     <g id="line2d_20">
      <g>
       <use style="stroke:#000000;stroke-width:0.6;" x="90" xlink:href="#m9bab7eac4b" y="339.740265"/>
      </g>
     </g>
    </g>
    <g id="ytick_16">
     <g id="line2d_21">
      <g>
       <use style="stroke:#000000;stroke-width:0.6;" x="90" xlink:href="#m9bab7eac4b" y="333.065388"/>
      </g>
     </g>
    </g>
    <g id="ytick_17">
     <g id="line2d_22">
      <g>
       <use style="stroke:#000000;stroke-width:0.6;" x="90" xlink:href="#m9bab7eac4b" y="327.17773"/>
      </g>
     </g>
    </g>
    <g id="ytick_18">
     <g id="line2d_23">
      <g>
       <use style="stroke:#000000;stroke-width:0.6;" x="90" xlink:href="#m9bab7eac4b" y="287.26247"/>
      </g>
     </g>
    </g>
    <g id="ytick_19">
     <g id="line2d_24">
      <g>
       <use style="stroke:#000000;stroke-width:0.6;" x="90" xlink:href="#m9bab7eac4b" y="266.994355"/>
      </g>
     </g>
    </g>
    <g id="ytick_20">
     <g id="line2d_25">
      <g>
       <use style="stroke:#000000;stroke-width:0.6;" x="90" xlink:href="#m9bab7eac4b" y="252.613899"/>
      </g>
     </g>
    </g>
    <g id="ytick_21">
     <g id="line2d_26">
      <g>
       <use style="stroke:#000000;stroke-width:0.6;" x="90" xlink:href="#m9bab7eac4b" y="241.459551"/>
      </g>
     </g>
    </g>
    <g id="ytick_22">
     <g id="line2d_27">
      <g>
       <use style="stroke:#000000;stroke-width:0.6;" x="90" xlink:href="#m9bab7eac4b" y="232.345784"/>
      </g>
     </g>
    </g>
    <g id="ytick_23">
     <g id="line2d_28">
      <g>
       <use style="stroke:#000000;stroke-width:0.6;" x="90" xlink:href="#m9bab7eac4b" y="224.640205"/>
      </g>
     </g>
    </g>
    <g id="ytick_24">
     <g id="line2d_29">
      <g>
       <use style="stroke:#000000;stroke-width:0.6;" x="90" xlink:href="#m9bab7eac4b" y="217.965328"/>
      </g>
     </g>
    </g>
    <g id="ytick_25">
     <g id="line2d_30">
      <g>
       <use style="stroke:#000000;stroke-width:0.6;" x="90" xlink:href="#m9bab7eac4b" y="212.07767"/>
      </g>
     </g>
    </g>
    <g id="ytick_26">
     <g id="line2d_31">
      <g>
       <use style="stroke:#000000;stroke-width:0.6;" x="90" xlink:href="#m9bab7eac4b" y="172.16241"/>
      </g>
     </g>
    </g>
    <g id="ytick_27">
     <g id="line2d_32">
      <g>
       <use style="stroke:#000000;stroke-width:0.6;" x="90" xlink:href="#m9bab7eac4b" y="151.894295"/>
      </g>
     </g>
    </g>
    <g id="ytick_28">
     <g id="line2d_33">
      <g>
       <use style="stroke:#000000;stroke-width:0.6;" x="90" xlink:href="#m9bab7eac4b" y="137.513839"/>
      </g>
     </g>
    </g>
    <g id="ytick_29">
     <g id="line2d_34">
      <g>
       <use style="stroke:#000000;stroke-width:0.6;" x="90" xlink:href="#m9bab7eac4b" y="126.359491"/>
      </g>
     </g>
    </g>
    <g id="ytick_30">
     <g id="line2d_35">
      <g>
       <use style="stroke:#000000;stroke-width:0.6;" x="90" xlink:href="#m9bab7eac4b" y="117.245725"/>
      </g>
     </g>
    </g>
    <g id="ytick_31">
     <g id="line2d_36">
      <g>
       <use style="stroke:#000000;stroke-width:0.6;" x="90" xlink:href="#m9bab7eac4b" y="109.540145"/>
      </g>
     </g>
    </g>
    <g id="ytick_32">
     <g id="line2d_37">
      <g>
       <use style="stroke:#000000;stroke-width:0.6;" x="90" xlink:href="#m9bab7eac4b" y="102.865268"/>
      </g>
     </g>
    </g>
    <g id="ytick_33">
     <g id="line2d_38">
      <g>
       <use style="stroke:#000000;stroke-width:0.6;" x="90" xlink:href="#m9bab7eac4b" y="96.97761"/>
      </g>
     </g>
    </g>
    <g id="text_11">
     <!-- Probability -->
     <defs>
      <path d="M 19.671875 64.796875 
L 19.671875 37.40625 
L 32.078125 37.40625 
Q 38.96875 37.40625 42.71875 40.96875 
Q 46.484375 44.53125 46.484375 51.125 
Q 46.484375 57.671875 42.71875 61.234375 
Q 38.96875 64.796875 32.078125 64.796875 
z
M 9.8125 72.90625 
L 32.078125 72.90625 
Q 44.34375 72.90625 50.609375 67.359375 
Q 56.890625 61.8125 56.890625 51.125 
Q 56.890625 40.328125 50.609375 34.8125 
Q 44.34375 29.296875 32.078125 29.296875 
L 19.671875 29.296875 
L 19.671875 0 
L 9.8125 0 
z
" id="DejaVuSans-80"/>
      <path d="M 41.109375 46.296875 
Q 39.59375 47.171875 37.8125 47.578125 
Q 36.03125 48 33.890625 48 
Q 26.265625 48 22.1875 43.046875 
Q 18.109375 38.09375 18.109375 28.8125 
L 18.109375 0 
L 9.078125 0 
L 9.078125 54.6875 
L 18.109375 54.6875 
L 18.109375 46.1875 
Q 20.953125 51.171875 25.484375 53.578125 
Q 30.03125 56 36.53125 56 
Q 37.453125 56 38.578125 55.875 
Q 39.703125 55.765625 41.0625 55.515625 
z
" id="DejaVuSans-114"/>
      <path d="M 30.609375 48.390625 
Q 23.390625 48.390625 19.1875 42.75 
Q 14.984375 37.109375 14.984375 27.296875 
Q 14.984375 17.484375 19.15625 11.84375 
Q 23.34375 6.203125 30.609375 6.203125 
Q 37.796875 6.203125 41.984375 11.859375 
Q 46.1875 17.53125 46.1875 27.296875 
Q 46.1875 37.015625 41.984375 42.703125 
Q 37.796875 48.390625 30.609375 48.390625 
z
M 30.609375 56 
Q 42.328125 56 49.015625 48.375 
Q 55.71875 40.765625 55.71875 27.296875 
Q 55.71875 13.875 49.015625 6.21875 
Q 42.328125 -1.421875 30.609375 -1.421875 
Q 18.84375 -1.421875 12.171875 6.21875 
Q 5.515625 13.875 5.515625 27.296875 
Q 5.515625 40.765625 12.171875 48.375 
Q 18.84375 56 30.609375 56 
z
" id="DejaVuSans-111"/>
      <path d="M 48.6875 27.296875 
Q 48.6875 37.203125 44.609375 42.84375 
Q 40.53125 48.484375 33.40625 48.484375 
Q 26.265625 48.484375 22.1875 42.84375 
Q 18.109375 37.203125 18.109375 27.296875 
Q 18.109375 17.390625 22.1875 11.75 
Q 26.265625 6.109375 33.40625 6.109375 
Q 40.53125 6.109375 44.609375 11.75 
Q 48.6875 17.390625 48.6875 27.296875 
z
M 18.109375 46.390625 
Q 20.953125 51.265625 25.265625 53.625 
Q 29.59375 56 35.59375 56 
Q 45.5625 56 51.78125 48.09375 
Q 58.015625 40.1875 58.015625 27.296875 
Q 58.015625 14.40625 51.78125 6.484375 
Q 45.5625 -1.421875 35.59375 -1.421875 
Q 29.59375 -1.421875 25.265625 0.953125 
Q 20.953125 3.328125 18.109375 8.203125 
L 18.109375 0 
L 9.078125 0 
L 9.078125 75.984375 
L 18.109375 75.984375 
z
" id="DejaVuSans-98"/>
      <path d="M 34.28125 27.484375 
Q 23.390625 27.484375 19.1875 25 
Q 14.984375 22.515625 14.984375 16.5 
Q 14.984375 11.71875 18.140625 8.90625 
Q 21.296875 6.109375 26.703125 6.109375 
Q 34.1875 6.109375 38.703125 11.40625 
Q 43.21875 16.703125 43.21875 25.484375 
L 43.21875 27.484375 
z
M 52.203125 31.203125 
L 52.203125 0 
L 43.21875 0 
L 43.21875 8.296875 
Q 40.140625 3.328125 35.546875 0.953125 
Q 30.953125 -1.421875 24.3125 -1.421875 
Q 15.921875 -1.421875 10.953125 3.296875 
Q 6 8.015625 6 15.921875 
Q 6 25.140625 12.171875 29.828125 
Q 18.359375 34.515625 30.609375 34.515625 
L 43.21875 34.515625 
L 43.21875 35.40625 
Q 43.21875 41.609375 39.140625 45 
Q 35.0625 48.390625 27.6875 48.390625 
Q 23 48.390625 18.546875 47.265625 
Q 14.109375 46.140625 10.015625 43.890625 
L 10.015625 52.203125 
Q 14.9375 54.109375 19.578125 55.046875 
Q 24.21875 56 28.609375 56 
Q 40.484375 56 46.34375 49.84375 
Q 52.203125 43.703125 52.203125 31.203125 
z
" id="DejaVuSans-97"/>
      <path d="M 9.421875 54.6875 
L 18.40625 54.6875 
L 18.40625 0 
L 9.421875 0 
z
M 9.421875 75.984375 
L 18.40625 75.984375 
L 18.40625 64.59375 
L 9.421875 64.59375 
z
" id="DejaVuSans-105"/>
      <path d="M 9.421875 75.984375 
L 18.40625 75.984375 
L 18.40625 0 
L 9.421875 0 
z
" id="DejaVuSans-108"/>
      <path d="M 18.3125 70.21875 
L 18.3125 54.6875 
L 36.8125 54.6875 
L 36.8125 47.703125 
L 18.3125 47.703125 
L 18.3125 18.015625 
Q 18.3125 11.328125 20.140625 9.421875 
Q 21.96875 7.515625 27.59375 7.515625 
L 36.8125 7.515625 
L 36.8125 0 
L 27.59375 0 
Q 17.1875 0 13.234375 3.875 
Q 9.28125 7.765625 9.28125 18.015625 
L 9.28125 47.703125 
L 2.6875 47.703125 
L 2.6875 54.6875 
L 9.28125 54.6875 
L 9.28125 70.21875 
z
" id="DejaVuSans-116"/>
      <path d="M 32.171875 -5.078125 
Q 28.375 -14.84375 24.75 -17.8125 
Q 21.140625 -20.796875 15.09375 -20.796875 
L 7.90625 -20.796875 
L 7.90625 -13.28125 
L 13.1875 -13.28125 
Q 16.890625 -13.28125 18.9375 -11.515625 
Q 21 -9.765625 23.484375 -3.21875 
L 25.09375 0.875 
L 2.984375 54.6875 
L 12.5 54.6875 
L 29.59375 11.921875 
L 46.6875 54.6875 
L 56.203125 54.6875 
z
" id="DejaVuSans-121"/>
     </defs>
     <g transform="translate(12.69745 341.71605)rotate(-90)scale(0.2592 -0.2592)">
      <use xlink:href="#DejaVuSans-80"/>
      <use x="60.287109" xlink:href="#DejaVuSans-114"/>
      <use x="101.369141" xlink:href="#DejaVuSans-111"/>
      <use x="162.550781" xlink:href="#DejaVuSans-98"/>
      <use x="226.027344" xlink:href="#DejaVuSans-97"/>
      <use x="287.306641" xlink:href="#DejaVuSans-98"/>
      <use x="350.783203" xlink:href="#DejaVuSans-105"/>
      <use x="378.566406" xlink:href="#DejaVuSans-108"/>
      <use x="406.349609" xlink:href="#DejaVuSans-105"/>
      <use x="434.132812" xlink:href="#DejaVuSans-116"/>
      <use x="473.341797" xlink:href="#DejaVuSans-121"/>
     </g>
    </g>
   </g>
   <g id="line2d_39">
    <path clip-path="url(#p86fc2b387b)" d="M 90 216.264412 
L 101.387755 216.264412 
L 101.387755 169.560797 
L 112.77551 169.560797 
L 112.77551 140.577223 
L 124.163265 140.577223 
L 124.163265 111.195343 
L 135.55102 111.195343 
L 135.55102 103.015946 
L 146.938776 103.015946 
L 146.938776 83.7 
L 158.326531 83.7 
L 158.326531 89.467641 
L 169.714286 89.467641 
L 169.714286 115.848684 
L 181.102041 115.848684 
L 181.102041 134.027472 
L 192.489796 134.027472 
L 192.489796 142.617806 
L 203.877551 142.617806 
L 203.877551 179.393817 
L 215.265306 179.393817 
L 215.265306 200.760598 
L 226.653061 200.760598 
L 226.653061 181.615842 
L 238.040816 181.615842 
L 238.040816 197.534491 
L 249.428571 197.534491 
L 249.428571 211.914947 
L 260.816327 211.914947 
L 260.816327 194.504028 
L 272.204082 194.504028 
L 272.204082 197.534491 
L 283.591837 197.534491 
L 283.591837 221.028713 
L 294.979592 221.028713 
L 294.979592 255.677283 
L 306.367347 255.677283 
L 306.367347 246.563517 
L 317.755102 246.563517 
L 317.755102 336.128773 
L 329.142857 336.128773 
L 329.142857 255.677283 
L 340.530612 255.677283 
L 340.530612 255.677283 
L 351.918367 255.677283 
L 351.918367 255.677283 
L 363.306122 255.677283 
L 363.306122 266.831632 
L 374.693878 266.831632 
L 374.693878 336.128773 
L 386.081633 336.128773 
L 386.081633 336.128773 
L 397.469388 336.128773 
L 397.469388 301.480202 
L 408.857143 301.480202 
L 408.857143 336.128773 
L 420.244898 336.128773 
L 420.244898 336.128773 
L 431.632653 336.128773 
L 431.632653 301.480202 
L 443.020408 301.480202 
L 443.020408 336.128773 
L 454.408163 336.128773 
L 454.408163 281.212088 
L 465.795918 281.212088 
L 465.795918 301.480202 
L 477.183673 301.480202 
L 477.183673 336.128773 
L 488.571429 336.128773 
L 488.571429 336.128773 
L 499.959184 336.128773 
L 499.959184 541 
M 511.346939 541 
L 511.346939 336.128773 
L 522.734694 336.128773 
L 522.734694 336.128773 
L 534.122449 336.128773 
L 534.122449 336.128773 
L 545.510204 336.128773 
L 545.510204 541 
M 613.836735 541 
L 613.836735 336.128773 
L 625.22449 336.128773 
L 625.22449 541 
" style="fill:none;stroke:#1f77b4;stroke-linecap:square;stroke-width:1.5;"/>
   </g>
   <g id="line2d_40">
    <path clip-path="url(#p86fc2b387b)" d="M 90 301.480202 
L 101.387755 301.480202 
L 101.387755 226.295403 
L 112.77551 226.295403 
L 112.77551 221.028713 
L 124.163265 221.028713 
L 124.163265 179.393817 
L 135.55102 179.393817 
L 135.55102 175.225794 
L 146.938776 175.225794 
L 146.938776 171.378718 
L 158.326531 171.378718 
L 158.326531 164.472952 
L 169.714286 164.472952 
L 169.714286 186.380142 
L 181.102041 186.380142 
L 181.102041 207.913826 
L 192.489796 207.913826 
L 192.489796 211.914947 
L 203.877551 211.914947 
L 203.877551 216.264412 
L 215.265306 216.264412 
L 215.265306 281.212088 
L 226.653061 281.212088 
L 226.653061 238.857938 
L 238.040816 238.857938 
L 238.040816 255.677283 
L 249.428571 255.677283 
L 249.428571 255.677283 
L 260.816327 255.677283 
L 260.816327 255.677283 
L 272.204082 255.677283 
L 272.204082 246.563517 
L 283.591837 246.563517 
L 283.591837 255.677283 
L 294.979592 255.677283 
L 294.979592 336.128773 
L 306.367347 336.128773 
L 306.367347 336.128773 
L 317.755102 336.128773 
L 317.755102 541 
M 329.142857 541 
L 329.142857 336.128773 
L 340.530612 336.128773 
L 340.530612 541 
M 363.306122 541 
L 363.306122 336.128773 
L 374.693878 336.128773 
L 374.693878 541 
M 397.469388 541 
L 397.469388 336.128773 
L 408.857143 336.128773 
L 408.857143 541 
M 454.408163 541 
L 454.408163 336.128773 
L 465.795918 336.128773 
L 465.795918 541 
M 488.571429 541 
L 488.571429 336.128773 
L 499.959184 336.128773 
L 499.959184 541 
" style="fill:none;stroke:#ff7f0e;stroke-linecap:square;stroke-width:1.5;"/>
   </g>
   <g id="line2d_41">
    <path clip-path="url(#p86fc2b387b)" d="M 90 226.295403 
L 101.387755 226.295403 
L 101.387755 188.944157 
L 112.77551 188.944157 
L 112.77551 151.731572 
L 124.163265 151.731572 
L 124.163265 125.947453 
L 135.55102 125.947453 
L 135.55102 116.462033 
L 146.938776 116.462033 
L 146.938776 93.199771 
L 158.326531 93.199771 
L 158.326531 102.081577 
L 169.714286 102.081577 
L 169.714286 129.824382 
L 181.102041 129.824382 
L 181.102041 146.967271 
L 192.489796 146.967271 
L 192.489796 156.998262 
L 203.877551 156.998262 
L 203.877551 211.914947 
L 215.265306 211.914947 
L 215.265306 211.914947 
L 226.653061 211.914947 
L 226.653061 200.760598 
L 238.040816 200.760598 
L 238.040816 216.264412 
L 249.428571 216.264412 
L 249.428571 238.857938 
L 260.816327 238.857938 
L 260.816327 211.914947 
L 272.204082 211.914947 
L 272.204082 221.028713 
L 283.591837 221.028713 
L 283.591837 255.677283 
L 294.979592 255.677283 
L 294.979592 266.831632 
L 306.367347 266.831632 
L 306.367347 255.677283 
L 317.755102 255.677283 
L 317.755102 336.128773 
L 329.142857 336.128773 
L 329.142857 266.831632 
L 340.530612 266.831632 
L 340.530612 255.677283 
L 351.918367 255.677283 
L 351.918367 255.677283 
L 363.306122 255.677283 
L 363.306122 281.212088 
L 374.693878 281.212088 
L 374.693878 336.128773 
L 386.081633 336.128773 
L 386.081633 336.128773 
L 397.469388 336.128773 
L 397.469388 336.128773 
L 408.857143 336.128773 
L 408.857143 336.128773 
L 420.244898 336.128773 
L 420.244898 336.128773 
L 431.632653 336.128773 
L 431.632653 301.480202 
L 443.020408 301.480202 
L 443.020408 336.128773 
L 454.408163 336.128773 
L 454.408163 301.480202 
L 465.795918 301.480202 
L 465.795918 301.480202 
L 477.183673 301.480202 
L 477.183673 336.128773 
L 488.571429 336.128773 
L 488.571429 541 
M 511.346939 541 
L 511.346939 336.128773 
L 522.734694 336.128773 
L 522.734694 336.128773 
L 534.122449 336.128773 
L 534.122449 336.128773 
L 545.510204 336.128773 
L 545.510204 541 
M 613.836735 541 
L 613.836735 336.128773 
L 625.22449 336.128773 
L 625.22449 541 
" style="fill:none;stroke:#2ca02c;stroke-linecap:square;stroke-width:1.5;"/>
   </g>
   <g id="line2d_42">
    <path clip-path="url(#p86fc2b387b)" d="M 90 203.241357 
L 101.387755 203.241357 
L 101.387755 144.498639 
L 112.77551 144.498639 
L 112.77551 126.380848 
L 124.163265 126.380848 
L 124.163265 120.081213 
L 135.55102 120.081213 
L 135.55102 109.850068 
L 146.938776 109.850068 
L 146.938776 107.286054 
L 158.326531 107.286054 
L 158.326531 108.851591 
L 169.714286 108.851591 
L 169.714286 123.361158 
L 181.102041 123.361158 
L 181.102041 138.010467 
L 192.489796 138.010467 
L 192.489796 133.029574 
L 203.877551 133.029574 
L 203.877551 129.464744 
L 215.265306 129.464744 
L 215.265306 129.076743 
L 226.653061 129.076743 
L 226.653061 141.02649 
L 238.040816 141.02649 
L 238.040816 153.402374 
L 249.428571 153.402374 
L 249.428571 183.544533 
L 260.816327 183.544533 
L 260.816327 194.41242 
L 272.204082 194.41242 
L 272.204082 225.390548 
L 283.591837 225.390548 
L 283.591837 239.623766 
L 294.979592 239.623766 
L 294.979592 254.595795 
L 306.367347 254.595795 
L 306.367347 268.189033 
L 317.755102 268.189033 
L 317.755102 268.189033 
L 329.142857 268.189033 
L 329.142857 268.189033 
L 340.530612 268.189033 
L 340.530612 309.51248 
L 351.918367 309.51248 
L 351.918367 286.918954 
L 363.306122 286.918954 
L 363.306122 300.797021 
L 374.693878 300.797021 
L 374.693878 323.105718 
L 386.081633 323.105718 
L 386.081633 326.331826 
L 397.469388 326.331826 
L 397.469388 333.485053 
L 408.857143 333.485053 
L 408.857143 323.105718 
L 420.244898 323.105718 
L 420.244898 341.835639 
L 431.632653 341.835639 
L 431.632653 337.486174 
L 443.020408 337.486174 
L 443.020408 427.051429 
L 454.408163 427.051429 
L 454.408163 372.134744 
L 465.795918 372.134744 
L 465.795918 381.248511 
L 477.183673 381.248511 
L 477.183673 381.248511 
L 488.571429 381.248511 
L 488.571429 392.402859 
L 499.959184 392.402859 
L 499.959184 406.783315 
L 511.346939 406.783315 
L 511.346939 392.402859 
L 522.734694 392.402859 
L 522.734694 381.248511 
L 534.122449 381.248511 
L 534.122449 427.051429 
L 545.510204 427.051429 
L 545.510204 427.051429 
L 556.897959 427.051429 
L 556.897959 427.051429 
L 568.285714 427.051429 
L 568.285714 406.783315 
L 579.673469 406.783315 
L 579.673469 406.783315 
L 591.061224 406.783315 
L 591.061224 406.783315 
L 602.44898 406.783315 
L 602.44898 427.051429 
L 613.836735 427.051429 
L 613.836735 427.051429 
L 625.22449 427.051429 
L 625.22449 461.7 
L 636.612245 461.7 
L 636.612245 406.783315 
L 648 406.783315 
" style="fill:none;stroke:#d62728;stroke-linecap:square;stroke-width:1.5;"/>
   </g>
   <g id="line2d_43">
    <path clip-path="url(#p86fc2b387b)" d="M 90 427.051429 
L 101.387755 427.051429 
L 101.387755 351.86663 
L 112.77551 351.86663 
L 112.77551 357.754288 
L 124.163265 357.754288 
L 124.163265 351.86663 
L 135.55102 351.86663 
L 135.55102 307.187069 
L 146.938776 307.187069 
L 146.938776 329.780594 
L 158.326531 329.780594 
L 158.326531 346.59994 
L 169.714286 346.59994 
L 169.714286 329.780594 
L 181.102041 329.780594 
L 181.102041 346.59994 
L 192.489796 346.59994 
L 192.489796 392.402859 
L 203.877551 392.402859 
L 203.877551 364.429165 
L 215.265306 364.429165 
L 215.265306 372.134744 
L 226.653061 372.134744 
L 226.653061 381.248511 
L 238.040816 381.248511 
L 238.040816 392.402859 
L 249.428571 392.402859 
L 249.428571 406.783315 
L 260.816327 406.783315 
L 260.816327 427.051429 
L 272.204082 427.051429 
L 272.204082 541 
M 283.591837 541 
L 283.591837 461.7 
L 294.979592 461.7 
L 294.979592 427.051429 
L 306.367347 427.051429 
L 306.367347 461.7 
L 317.755102 461.7 
L 317.755102 461.7 
L 329.142857 461.7 
L 329.142857 541 
M 386.081633 541 
L 386.081633 461.7 
L 397.469388 461.7 
L 397.469388 541 
" style="fill:none;stroke:#9467bd;stroke-linecap:square;stroke-width:1.5;"/>
   </g>
   <g id="line2d_44">
    <path clip-path="url(#p86fc2b387b)" d="M 90 203.812647 
L 101.387755 203.812647 
L 101.387755 145.29421 
L 112.77551 145.29421 
L 112.77551 126.871525 
L 124.163265 126.871525 
L 124.163265 120.567843 
L 135.55102 120.567843 
L 135.55102 110.824166 
L 146.938776 110.824166 
L 146.938776 107.872668 
L 158.326531 107.872668 
L 158.326531 109.283263 
L 169.714286 109.283263 
L 169.714286 124.172094 
L 181.102041 124.172094 
L 181.102041 138.786683 
L 192.489796 138.786683 
L 192.489796 133.309224 
L 203.877551 133.309224 
L 203.877551 129.921253 
L 215.265306 129.921253 
L 215.265306 129.464744 
L 226.653061 129.464744 
L 226.653061 141.437234 
L 238.040816 141.437234 
L 238.040816 153.823322 
L 249.428571 153.823322 
L 249.428571 184.122427 
L 260.816327 184.122427 
L 260.816327 194.890771 
L 272.204082 194.890771 
L 272.204082 225.390548 
L 283.591837 225.390548 
L 283.591837 240.215339 
L 294.979592 240.215339 
L 294.979592 256.208429 
L 306.367347 256.208429 
L 306.367347 269.241436 
L 317.755102 269.241436 
L 317.755102 269.241436 
L 329.142857 269.241436 
L 329.142857 268.189033 
L 340.530612 268.189033 
L 340.530612 309.51248 
L 351.918367 309.51248 
L 351.918367 286.918954 
L 363.306122 286.918954 
L 363.306122 300.797021 
L 374.693878 300.797021 
L 374.693878 323.105718 
L 386.081633 323.105718 
L 386.081633 329.780594 
L 397.469388 329.780594 
L 397.469388 333.485053 
L 408.857143 333.485053 
L 408.857143 323.105718 
L 420.244898 323.105718 
L 420.244898 341.835639 
L 431.632653 341.835639 
L 431.632653 337.486174 
L 443.020408 337.486174 
L 443.020408 427.051429 
L 454.408163 427.051429 
L 454.408163 372.134744 
L 465.795918 372.134744 
L 465.795918 381.248511 
L 477.183673 381.248511 
L 477.183673 381.248511 
L 488.571429 381.248511 
L 488.571429 392.402859 
L 499.959184 392.402859 
L 499.959184 406.783315 
L 511.346939 406.783315 
L 511.346939 392.402859 
L 522.734694 392.402859 
L 522.734694 381.248511 
L 534.122449 381.248511 
L 534.122449 427.051429 
L 545.510204 427.051429 
L 545.510204 427.051429 
L 556.897959 427.051429 
L 556.897959 427.051429 
L 568.285714 427.051429 
L 568.285714 406.783315 
L 579.673469 406.783315 
L 579.673469 406.783315 
L 591.061224 406.783315 
L 591.061224 406.783315 
L 602.44898 406.783315 
L 602.44898 427.051429 
L 613.836735 427.051429 
L 613.836735 427.051429 
L 625.22449 427.051429 
L 625.22449 461.7 
L 636.612245 461.7 
L 636.612245 406.783315 
L 648 406.783315 
" style="fill:none;stroke:#8c564b;stroke-linecap:square;stroke-width:1.5;"/>
   </g>
   <g id="line2d_45">
    <path clip-path="url(#p86fc2b387b)" d="M 616.162162 480.6 
L 616.162162 64.8 
" style="fill:none;stroke:#1f77b4;stroke-linecap:square;stroke-width:1.5;"/>
   </g>
   <g id="patch_5">
    <path d="M 90 480.6 
L 90 64.8 
" style="fill:none;stroke:#000000;stroke-linecap:square;stroke-linejoin:miter;stroke-width:0.8;"/>
   </g>
   <g id="patch_6">
    <path d="M 648 480.6 
L 648 64.8 
" style="fill:none;stroke:#000000;stroke-linecap:square;stroke-linejoin:miter;stroke-width:0.8;"/>
   </g>
   <g id="patch_7">
    <path d="M 90 480.6 
L 648 480.6 
" style="fill:none;stroke:#000000;stroke-linecap:square;stroke-linejoin:miter;stroke-width:0.8;"/>
   </g>
   <g id="patch_8">
    <path d="M 90 64.8 
L 648 64.8 
" style="fill:none;stroke:#000000;stroke-linecap:square;stroke-linejoin:miter;stroke-width:0.8;"/>
   </g>
   <g id="text_12">
    <g id="patch_9">
     <path d="M 698.399885 109.584125 
L 628.162162 109.584125 
L 628.162162 78.227875 
L 698.399885 78.227875 
L 698.399885 70.388813 
L 721.917073 93.906 
L 698.399885 117.423188 
L 698.399885 109.584125 
z
" style="fill:#ff7f0e;opacity:0.5;stroke:#ff7f0e;stroke-linejoin:miter;"/>
    </g>
    <!-- photon -->
    <defs>
     <path d="M 18.109375 8.203125 
L 18.109375 -20.796875 
L 9.078125 -20.796875 
L 9.078125 54.6875 
L 18.109375 54.6875 
L 18.109375 46.390625 
Q 20.953125 51.265625 25.265625 53.625 
Q 29.59375 56 35.59375 56 
Q 45.5625 56 51.78125 48.09375 
Q 58.015625 40.1875 58.015625 27.296875 
Q 58.015625 14.40625 51.78125 6.484375 
Q 45.5625 -1.421875 35.59375 -1.421875 
Q 29.59375 -1.421875 25.265625 0.953125 
Q 20.953125 3.328125 18.109375 8.203125 
z
M 48.6875 27.296875 
Q 48.6875 37.203125 44.609375 42.84375 
Q 40.53125 48.484375 33.40625 48.484375 
Q 26.265625 48.484375 22.1875 42.84375 
Q 18.109375 37.203125 18.109375 27.296875 
Q 18.109375 17.390625 22.1875 11.75 
Q 26.265625 6.109375 33.40625 6.109375 
Q 40.53125 6.109375 44.609375 11.75 
Q 48.6875 17.390625 48.6875 27.296875 
z
" id="DejaVuSans-112"/>
     <path d="M 54.890625 33.015625 
L 54.890625 0 
L 45.90625 0 
L 45.90625 32.71875 
Q 45.90625 40.484375 42.875 44.328125 
Q 39.84375 48.1875 33.796875 48.1875 
Q 26.515625 48.1875 22.3125 43.546875 
Q 18.109375 38.921875 18.109375 30.90625 
L 18.109375 0 
L 9.078125 0 
L 9.078125 75.984375 
L 18.109375 75.984375 
L 18.109375 46.1875 
Q 21.34375 51.125 25.703125 53.5625 
Q 30.078125 56 35.796875 56 
Q 45.21875 56 50.046875 50.171875 
Q 54.890625 44.34375 54.890625 33.015625 
z
" id="DejaVuSans-104"/>
     <path d="M 54.890625 33.015625 
L 54.890625 0 
L 45.90625 0 
L 45.90625 32.71875 
Q 45.90625 40.484375 42.875 44.328125 
Q 39.84375 48.1875 33.796875 48.1875 
Q 26.515625 48.1875 22.3125 43.546875 
Q 18.109375 38.921875 18.109375 30.90625 
L 18.109375 0 
L 9.078125 0 
L 9.078125 54.6875 
L 18.109375 54.6875 
L 18.109375 46.1875 
Q 21.34375 51.125 25.703125 53.5625 
Q 30.078125 56 35.796875 56 
Q 45.21875 56 50.046875 50.171875 
Q 54.890625 44.34375 54.890625 33.015625 
z
" id="DejaVuSans-110"/>
    </defs>
    <g transform="translate(634.162162 99.42475)scale(0.2 -0.2)">
     <use xlink:href="#DejaVuSans-112"/>
     <use x="63.476562" xlink:href="#DejaVuSans-104"/>
     <use x="126.855469" xlink:href="#DejaVuSans-111"/>
     <use x="188.037109" xlink:href="#DejaVuSans-116"/>
     <use x="227.246094" xlink:href="#DejaVuSans-111"/>
     <use x="288.427734" xlink:href="#DejaVuSans-110"/>
    </g>
   </g>
   <g id="text_13">
    <g id="patch_10">
     <path d="M 522.152564 109.584125 
L 604.162162 109.584125 
L 604.162162 78.227875 
L 522.152564 78.227875 
L 522.152564 70.388813 
L 498.635376 93.906 
L 522.152564 117.423188 
L 522.152564 109.584125 
z
" style="fill:#1f77b4;opacity:0.5;stroke:#1f77b4;stroke-linejoin:miter;"/>
    </g>
    <!-- electron -->
    <defs>
     <path d="M 48.78125 52.59375 
L 48.78125 44.1875 
Q 44.96875 46.296875 41.140625 47.34375 
Q 37.3125 48.390625 33.40625 48.390625 
Q 24.65625 48.390625 19.8125 42.84375 
Q 14.984375 37.3125 14.984375 27.296875 
Q 14.984375 17.28125 19.8125 11.734375 
Q 24.65625 6.203125 33.40625 6.203125 
Q 37.3125 6.203125 41.140625 7.25 
Q 44.96875 8.296875 48.78125 10.40625 
L 48.78125 2.09375 
Q 45.015625 0.34375 40.984375 -0.53125 
Q 36.96875 -1.421875 32.421875 -1.421875 
Q 20.0625 -1.421875 12.78125 6.34375 
Q 5.515625 14.109375 5.515625 27.296875 
Q 5.515625 40.671875 12.859375 48.328125 
Q 20.21875 56 33.015625 56 
Q 37.15625 56 41.109375 55.140625 
Q 45.0625 54.296875 48.78125 52.59375 
z
" id="DejaVuSans-99"/>
    </defs>
    <g transform="translate(516.027787 99.42475)scale(0.2 -0.2)">
     <use xlink:href="#DejaVuSans-101"/>
     <use x="61.523438" xlink:href="#DejaVuSans-108"/>
     <use x="89.306641" xlink:href="#DejaVuSans-101"/>
     <use x="150.830078" xlink:href="#DejaVuSans-99"/>
     <use x="205.810547" xlink:href="#DejaVuSans-116"/>
     <use x="245.019531" xlink:href="#DejaVuSans-114"/>
     <use x="286.101562" xlink:href="#DejaVuSans-111"/>
     <use x="347.283203" xlink:href="#DejaVuSans-110"/>
    </g>
   </g>
   <g id="legend_1">
    <g id="patch_11">
     <path d="M 411.623438 239.72625 
L 635.4 239.72625 
Q 639 239.72625 639 236.12625 
L 639 77.4 
Q 639 73.8 635.4 73.8 
L 411.623438 73.8 
Q 408.023438 73.8 408.023438 77.4 
L 408.023438 236.12625 
Q 408.023438 239.72625 411.623438 239.72625 
z
" style="fill:#ffffff;opacity:0.5;stroke:#cccccc;stroke-linejoin:miter;"/>
    </g>
    <g id="line2d_46">
     <path d="M 415.223437 88.377188 
L 451.223437 88.377188 
" style="fill:none;stroke:#1f77b4;stroke-linecap:square;stroke-width:1.5;"/>
    </g>
    <g id="line2d_47"/>
    <g id="text_14">
     <!-- Electrons -->
     <defs>
      <path d="M 9.8125 72.90625 
L 55.90625 72.90625 
L 55.90625 64.59375 
L 19.671875 64.59375 
L 19.671875 43.015625 
L 54.390625 43.015625 
L 54.390625 34.71875 
L 19.671875 34.71875 
L 19.671875 8.296875 
L 56.78125 8.296875 
L 56.78125 0 
L 9.8125 0 
z
" id="DejaVuSans-69"/>
      <path d="M 44.28125 53.078125 
L 44.28125 44.578125 
Q 40.484375 46.53125 36.375 47.5 
Q 32.28125 48.484375 27.875 48.484375 
Q 21.1875 48.484375 17.84375 46.4375 
Q 14.5 44.390625 14.5 40.28125 
Q 14.5 37.15625 16.890625 35.375 
Q 19.28125 33.59375 26.515625 31.984375 
L 29.59375 31.296875 
Q 39.15625 29.25 43.1875 25.515625 
Q 47.21875 21.78125 47.21875 15.09375 
Q 47.21875 7.46875 41.1875 3.015625 
Q 35.15625 -1.421875 24.609375 -1.421875 
Q 20.21875 -1.421875 15.453125 -0.5625 
Q 10.6875 0.296875 5.421875 2 
L 5.421875 11.28125 
Q 10.40625 8.6875 15.234375 7.390625 
Q 20.0625 6.109375 24.8125 6.109375 
Q 31.15625 6.109375 34.5625 8.28125 
Q 37.984375 10.453125 37.984375 14.40625 
Q 37.984375 18.0625 35.515625 20.015625 
Q 33.0625 21.96875 24.703125 23.78125 
L 21.578125 24.515625 
Q 13.234375 26.265625 9.515625 29.90625 
Q 5.8125 33.546875 5.8125 39.890625 
Q 5.8125 47.609375 11.28125 51.796875 
Q 16.75 56 26.8125 56 
Q 31.78125 56 36.171875 55.265625 
Q 40.578125 54.546875 44.28125 53.078125 
z
" id="DejaVuSans-115"/>
     </defs>
     <g transform="translate(465.623437 94.677188)scale(0.18 -0.18)">
      <use xlink:href="#DejaVuSans-69"/>
      <use x="63.183594" xlink:href="#DejaVuSans-108"/>
      <use x="90.966797" xlink:href="#DejaVuSans-101"/>
      <use x="152.490234" xlink:href="#DejaVuSans-99"/>
      <use x="207.470703" xlink:href="#DejaVuSans-116"/>
      <use x="246.679688" xlink:href="#DejaVuSans-114"/>
      <use x="287.761719" xlink:href="#DejaVuSans-111"/>
      <use x="348.943359" xlink:href="#DejaVuSans-110"/>
      <use x="412.322266" xlink:href="#DejaVuSans-115"/>
     </g>
    </g>
    <g id="line2d_48">
     <path d="M 415.223437 114.797813 
L 451.223437 114.797813 
" style="fill:none;stroke:#ff7f0e;stroke-linecap:square;stroke-width:1.5;"/>
    </g>
    <g id="line2d_49"/>
    <g id="text_15">
     <!-- Electrons (Nu_e) -->
     <defs>
      <path id="DejaVuSans-32"/>
      <path d="M 31 75.875 
Q 24.46875 64.65625 21.28125 53.65625 
Q 18.109375 42.671875 18.109375 31.390625 
Q 18.109375 20.125 21.3125 9.0625 
Q 24.515625 -2 31 -13.1875 
L 23.1875 -13.1875 
Q 15.875 -1.703125 12.234375 9.375 
Q 8.59375 20.453125 8.59375 31.390625 
Q 8.59375 42.28125 12.203125 53.3125 
Q 15.828125 64.359375 23.1875 75.875 
z
" id="DejaVuSans-40"/>
      <path d="M 9.8125 72.90625 
L 23.09375 72.90625 
L 55.421875 11.921875 
L 55.421875 72.90625 
L 64.984375 72.90625 
L 64.984375 0 
L 51.703125 0 
L 19.390625 60.984375 
L 19.390625 0 
L 9.8125 0 
z
" id="DejaVuSans-78"/>
      <path d="M 8.5 21.578125 
L 8.5 54.6875 
L 17.484375 54.6875 
L 17.484375 21.921875 
Q 17.484375 14.15625 20.5 10.265625 
Q 23.53125 6.390625 29.59375 6.390625 
Q 36.859375 6.390625 41.078125 11.03125 
Q 45.3125 15.671875 45.3125 23.6875 
L 45.3125 54.6875 
L 54.296875 54.6875 
L 54.296875 0 
L 45.3125 0 
L 45.3125 8.40625 
Q 42.046875 3.421875 37.71875 1 
Q 33.40625 -1.421875 27.6875 -1.421875 
Q 18.265625 -1.421875 13.375 4.4375 
Q 8.5 10.296875 8.5 21.578125 
z
M 31.109375 56 
z
" id="DejaVuSans-117"/>
      <path d="M 50.984375 -16.609375 
L 50.984375 -23.578125 
L -0.984375 -23.578125 
L -0.984375 -16.609375 
z
" id="DejaVuSans-95"/>
      <path d="M 8.015625 75.875 
L 15.828125 75.875 
Q 23.140625 64.359375 26.78125 53.3125 
Q 30.421875 42.28125 30.421875 31.390625 
Q 30.421875 20.453125 26.78125 9.375 
Q 23.140625 -1.703125 15.828125 -13.1875 
L 8.015625 -13.1875 
Q 14.5 -2 17.703125 9.0625 
Q 20.90625 20.125 20.90625 31.390625 
Q 20.90625 42.671875 17.703125 53.65625 
Q 14.5 64.65625 8.015625 75.875 
z
" id="DejaVuSans-41"/>
     </defs>
     <g transform="translate(465.623437 121.097813)scale(0.18 -0.18)">
      <use xlink:href="#DejaVuSans-69"/>
      <use x="63.183594" xlink:href="#DejaVuSans-108"/>
      <use x="90.966797" xlink:href="#DejaVuSans-101"/>
      <use x="152.490234" xlink:href="#DejaVuSans-99"/>
      <use x="207.470703" xlink:href="#DejaVuSans-116"/>
      <use x="246.679688" xlink:href="#DejaVuSans-114"/>
      <use x="287.761719" xlink:href="#DejaVuSans-111"/>
      <use x="348.943359" xlink:href="#DejaVuSans-110"/>
      <use x="412.322266" xlink:href="#DejaVuSans-115"/>
      <use x="464.421875" xlink:href="#DejaVuSans-32"/>
      <use x="496.208984" xlink:href="#DejaVuSans-40"/>
      <use x="535.222656" xlink:href="#DejaVuSans-78"/>
      <use x="610.027344" xlink:href="#DejaVuSans-117"/>
      <use x="673.40625" xlink:href="#DejaVuSans-95"/>
      <use x="723.40625" xlink:href="#DejaVuSans-101"/>
      <use x="784.929688" xlink:href="#DejaVuSans-41"/>
     </g>
    </g>
    <g id="line2d_50">
     <path d="M 415.223437 141.719063 
L 451.223437 141.719063 
" style="fill:none;stroke:#2ca02c;stroke-linecap:square;stroke-width:1.5;"/>
    </g>
    <g id="line2d_51"/>
    <g id="text_16">
     <!-- Electrons (Nu_mu) -->
     <defs>
      <path d="M 52 44.1875 
Q 55.375 50.25 60.0625 53.125 
Q 64.75 56 71.09375 56 
Q 79.640625 56 84.28125 50.015625 
Q 88.921875 44.046875 88.921875 33.015625 
L 88.921875 0 
L 79.890625 0 
L 79.890625 32.71875 
Q 79.890625 40.578125 77.09375 44.375 
Q 74.3125 48.1875 68.609375 48.1875 
Q 61.625 48.1875 57.5625 43.546875 
Q 53.515625 38.921875 53.515625 30.90625 
L 53.515625 0 
L 44.484375 0 
L 44.484375 32.71875 
Q 44.484375 40.625 41.703125 44.40625 
Q 38.921875 48.1875 33.109375 48.1875 
Q 26.21875 48.1875 22.15625 43.53125 
Q 18.109375 38.875 18.109375 30.90625 
L 18.109375 0 
L 9.078125 0 
L 9.078125 54.6875 
L 18.109375 54.6875 
L 18.109375 46.1875 
Q 21.1875 51.21875 25.484375 53.609375 
Q 29.78125 56 35.6875 56 
Q 41.65625 56 45.828125 52.96875 
Q 50 49.953125 52 44.1875 
z
" id="DejaVuSans-109"/>
     </defs>
     <g transform="translate(465.623437 148.019063)scale(0.18 -0.18)">
      <use xlink:href="#DejaVuSans-69"/>
      <use x="63.183594" xlink:href="#DejaVuSans-108"/>
      <use x="90.966797" xlink:href="#DejaVuSans-101"/>
      <use x="152.490234" xlink:href="#DejaVuSans-99"/>
      <use x="207.470703" xlink:href="#DejaVuSans-116"/>
      <use x="246.679688" xlink:href="#DejaVuSans-114"/>
      <use x="287.761719" xlink:href="#DejaVuSans-111"/>
      <use x="348.943359" xlink:href="#DejaVuSans-110"/>
      <use x="412.322266" xlink:href="#DejaVuSans-115"/>
      <use x="464.421875" xlink:href="#DejaVuSans-32"/>
      <use x="496.208984" xlink:href="#DejaVuSans-40"/>
      <use x="535.222656" xlink:href="#DejaVuSans-78"/>
      <use x="610.027344" xlink:href="#DejaVuSans-117"/>
      <use x="673.40625" xlink:href="#DejaVuSans-95"/>
      <use x="723.40625" xlink:href="#DejaVuSans-109"/>
      <use x="820.818359" xlink:href="#DejaVuSans-117"/>
      <use x="884.197266" xlink:href="#DejaVuSans-41"/>
     </g>
    </g>
    <g id="line2d_52">
     <path d="M 415.223437 168.640312 
L 451.223437 168.640312 
" style="fill:none;stroke:#d62728;stroke-linecap:square;stroke-width:1.5;"/>
    </g>
    <g id="line2d_53"/>
    <g id="text_17">
     <!-- Photons -->
     <g transform="translate(465.623437 174.940313)scale(0.18 -0.18)">
      <use xlink:href="#DejaVuSans-80"/>
      <use x="60.302734" xlink:href="#DejaVuSans-104"/>
      <use x="123.681641" xlink:href="#DejaVuSans-111"/>
      <use x="184.863281" xlink:href="#DejaVuSans-116"/>
      <use x="224.072266" xlink:href="#DejaVuSans-111"/>
      <use x="285.253906" xlink:href="#DejaVuSans-110"/>
      <use x="348.632812" xlink:href="#DejaVuSans-115"/>
     </g>
    </g>
    <g id="line2d_54">
     <path d="M 415.223437 195.060937 
L 451.223437 195.060937 
" style="fill:none;stroke:#9467bd;stroke-linecap:square;stroke-width:1.5;"/>
    </g>
    <g id="line2d_55"/>
    <g id="text_18">
     <!-- Photons (Nu_e) -->
     <g transform="translate(465.623437 201.360937)scale(0.18 -0.18)">
      <use xlink:href="#DejaVuSans-80"/>
      <use x="60.302734" xlink:href="#DejaVuSans-104"/>
      <use x="123.681641" xlink:href="#DejaVuSans-111"/>
      <use x="184.863281" xlink:href="#DejaVuSans-116"/>
      <use x="224.072266" xlink:href="#DejaVuSans-111"/>
      <use x="285.253906" xlink:href="#DejaVuSans-110"/>
      <use x="348.632812" xlink:href="#DejaVuSans-115"/>
      <use x="400.732422" xlink:href="#DejaVuSans-32"/>
      <use x="432.519531" xlink:href="#DejaVuSans-40"/>
      <use x="471.533203" xlink:href="#DejaVuSans-78"/>
      <use x="546.337891" xlink:href="#DejaVuSans-117"/>
      <use x="609.716797" xlink:href="#DejaVuSans-95"/>
      <use x="659.716797" xlink:href="#DejaVuSans-101"/>
      <use x="721.240234" xlink:href="#DejaVuSans-41"/>
     </g>
    </g>
    <g id="line2d_56">
     <path d="M 415.223437 221.982188 
L 451.223437 221.982188 
" style="fill:none;stroke:#8c564b;stroke-linecap:square;stroke-width:1.5;"/>
    </g>
    <g id="line2d_57"/>
    <g id="text_19">
     <!-- Photons (Nu_mu) -->
     <g transform="translate(465.623437 228.282188)scale(0.18 -0.18)">
      <use xlink:href="#DejaVuSans-80"/>
      <use x="60.302734" xlink:href="#DejaVuSans-104"/>
      <use x="123.681641" xlink:href="#DejaVuSans-111"/>
      <use x="184.863281" xlink:href="#DejaVuSans-116"/>
      <use x="224.072266" xlink:href="#DejaVuSans-111"/>
      <use x="285.253906" xlink:href="#DejaVuSans-110"/>
      <use x="348.632812" xlink:href="#DejaVuSans-115"/>
      <use x="400.732422" xlink:href="#DejaVuSans-32"/>
      <use x="432.519531" xlink:href="#DejaVuSans-40"/>
      <use x="471.533203" xlink:href="#DejaVuSans-78"/>
      <use x="546.337891" xlink:href="#DejaVuSans-117"/>
      <use x="609.716797" xlink:href="#DejaVuSans-95"/>
      <use x="659.716797" xlink:href="#DejaVuSans-109"/>
      <use x="757.128906" xlink:href="#DejaVuSans-117"/>
      <use x="820.507812" xlink:href="#DejaVuSans-41"/>
     </g>
    </g>
   </g>
  </g>
 </g>
 <defs>
  <clipPath id="p86fc2b387b">
   <rect height="415.8" width="558" x="90" y="64.8"/>
  </clipPath>
 </defs>
</svg>
