<?xml version="1.0" encoding="utf-8" standalone="no"?>
<!DOCTYPE svg PUBLIC "-//W3C//DTD SVG 1.1//EN"
  "http://www.w3.org/Graphics/SVG/1.1/DTD/svg11.dtd">
<!-- Created with matplotlib (https://matplotlib.org/) -->
<svg height="540pt" version="1.1" viewBox="0 0 720 540" width="720pt" xmlns="http://www.w3.org/2000/svg" xmlns:xlink="http://www.w3.org/1999/xlink">
 <defs>
  <style type="text/css">
*{stroke-linecap:butt;stroke-linejoin:round;}
  </style>
 </defs>
 <g id="figure_1">
  <g id="patch_1">
   <path d="M 0 540 
L 720 540 
L 720 0 
L 0 0 
z
" style="fill:#ffffff;"/>
  </g>
  <g id="axes_1">
   <g id="patch_2">
    <path d="M 90 480.6 
L 648 480.6 
L 648 64.8 
L 90 64.8 
z
" style="fill:#ffffff;"/>
   </g>
   <g id="patch_3">
    <path clip-path="url(#p190f8fab96)" d="M 90 100414.793506 
L 90 100414.793506 
L 101.387755 100414.793506 
L 101.387755 321.97598 
L 112.77551 321.97598 
L 112.77551 160.625868 
L 124.163265 160.625868 
L 124.163265 83.7 
L 135.55102 83.7 
L 135.55102 121.006302 
L 146.938776 121.006302 
L 146.938776 205.402356 
L 158.326531 205.402356 
L 158.326531 202.495093 
L 169.714286 202.495093 
L 169.714286 221.599852 
L 181.102041 221.599852 
L 181.102041 205.402356 
L 192.489796 205.402356 
L 192.489796 219.472952 
L 203.877551 219.472952 
L 203.877551 237.148311 
L 215.265306 237.148311 
L 215.265306 219.472952 
L 226.653061 219.472952 
L 226.653061 234.140718 
L 238.040816 234.140718 
L 238.040816 243.86817 
L 249.428571 243.86817 
L 249.428571 267.364536 
L 260.816327 267.364536 
L 260.816327 304.300622 
L 272.204082 304.300622 
L 272.204082 256.409037 
L 283.591837 256.409037 
L 283.591837 261.543529 
L 294.979592 261.543529 
L 294.979592 247.66124 
L 306.367347 247.66124 
L 306.367347 274.084396 
L 317.755102 274.084396 
L 317.755102 267.364536 
L 329.142857 267.364536 
L 329.142857 261.543529 
L 340.530612 261.543529 
L 340.530612 267.364536 
L 351.918367 267.364536 
L 351.918367 291.759755 
L 363.306122 291.759755 
L 363.306122 267.364536 
L 374.693878 267.364536 
L 374.693878 261.543529 
L 386.081633 261.543529 
L 386.081633 256.409037 
L 397.469388 256.409037 
L 397.469388 321.97598 
L 408.857143 321.97598 
L 408.857143 282.032303 
L 420.244898 282.032303 
L 420.244898 282.032303 
L 431.632653 282.032303 
L 431.632653 282.032303 
L 443.020408 282.032303 
L 443.020408 256.409037 
L 454.408163 256.409037 
L 454.408163 256.409037 
L 465.795918 256.409037 
L 465.795918 261.543529 
L 477.183673 261.543529 
L 477.183673 282.032303 
L 488.571429 282.032303 
L 488.571429 304.300622 
L 499.959184 304.300622 
L 499.959184 321.97598 
L 511.346939 321.97598 
L 511.346939 274.084396 
L 522.734694 274.084396 
L 522.734694 291.759755 
L 534.122449 291.759755 
L 534.122449 261.543529 
L 545.510204 261.543529 
L 545.510204 352.192206 
L 556.897959 352.192206 
L 556.897959 274.084396 
L 568.285714 274.084396 
L 568.285714 304.300622 
L 579.673469 304.300622 
L 579.673469 291.759755 
L 591.061224 291.759755 
L 591.061224 321.97598 
L 602.44898 321.97598 
L 602.44898 100414.793506 
L 613.836735 100414.793506 
L 613.836735 291.759755 
L 625.22449 291.759755 
L 625.22449 321.97598 
L 636.612245 321.97598 
L 636.612245 304.300622 
L 648 304.300622 
L 648 100414.793506 
z
" style="fill:#1f77b4;opacity:0.2;"/>
   </g>
   <g id="patch_4">
    <path clip-path="url(#p190f8fab96)" d="M 90 100414.793506 
L 90 100414.793506 
L 101.387755 100414.793506 
L 101.387755 461.7 
L 112.77551 461.7 
L 112.77551 280.402647 
L 124.163265 280.402647 
L 124.163265 212.192906 
L 135.55102 212.192906 
L 135.55102 183.869153 
L 146.938776 183.869153 
L 146.938776 173.521257 
L 158.326531 173.521257 
L 158.326531 165.504954 
L 169.714286 165.504954 
L 169.714286 166.44247 
L 181.102041 166.44247 
L 181.102041 162.715954 
L 192.489796 162.715954 
L 192.489796 162.761769 
L 203.877551 162.761769 
L 203.877551 164.87492 
L 215.265306 164.87492 
L 215.265306 166.492376 
L 226.653061 166.492376 
L 226.653061 167.247903 
L 238.040816 167.247903 
L 238.040816 176.182393 
L 249.428571 176.182393 
L 249.428571 179.55231 
L 260.816327 179.55231 
L 260.816327 182.622512 
L 272.204082 182.622512 
L 272.204082 189.75397 
L 283.591837 189.75397 
L 283.591837 193.951399 
L 294.979592 193.951399 
L 294.979592 196.261492 
L 306.367347 196.261492 
L 306.367347 200.62441 
L 317.755102 200.62441 
L 317.755102 200.515292 
L 329.142857 200.515292 
L 329.142857 209.835965 
L 340.530612 209.835965 
L 340.530612 210.379184 
L 351.918367 210.379184 
L 351.918367 215.75348 
L 363.306122 215.75348 
L 363.306122 212.911091 
L 374.693878 212.911091 
L 374.693878 224.638903 
L 386.081633 224.638903 
L 386.081633 231.390363 
L 397.469388 231.390363 
L 397.469388 230.950028 
L 408.857143 230.950028 
L 408.857143 236.552524 
L 420.244898 236.552524 
L 420.244898 239.382549 
L 431.632653 239.382549 
L 431.632653 240.732279 
L 443.020408 240.732279 
L 443.020408 252.279277 
L 454.408163 252.279277 
L 454.408163 247.224261 
L 465.795918 247.224261 
L 465.795918 257.191016 
L 477.183673 257.191016 
L 477.183673 265.540702 
L 488.571429 265.540702 
L 488.571429 255.619934 
L 499.959184 255.619934 
L 499.959184 268.548295 
L 511.346939 268.548295 
L 511.346939 274.666865 
L 522.734694 274.666865 
L 522.734694 281.089162 
L 534.122449 281.089162 
L 534.122449 284.693925 
L 545.510204 284.693925 
L 545.510204 276.496202 
L 556.897959 276.496202 
L 556.897959 285.45208 
L 568.285714 285.45208 
L 568.285714 300.89142 
L 579.673469 300.89142 
L 579.673469 305.48438 
L 591.061224 305.48438 
L 591.061224 305.48438 
L 602.44898 305.48438 
L 602.44898 291.163968 
L 613.836735 291.163968 
L 613.836735 297.73876 
L 625.22449 297.73876 
L 625.22449 294.798806 
L 636.612245 294.798806 
L 636.612245 296.736583 
L 648 296.736583 
L 648 100414.793506 
z
" style="fill:#ff7f0e;opacity:0.2;"/>
   </g>
   <g id="matplotlib.axis_1">
    <g id="xtick_1">
     <g id="line2d_1">
      <defs>
       <path d="M 0 0 
L 0 3.5 
" id="m2bd0353463" style="stroke:#000000;stroke-width:0.8;"/>
      </defs>
      <g>
       <use style="stroke:#000000;stroke-width:0.8;" x="90" xlink:href="#m2bd0353463" y="480.6"/>
      </g>
     </g>
     <g id="text_1">
      <!-- 0.0 -->
      <defs>
       <path d="M 31.78125 66.40625 
Q 24.171875 66.40625 20.328125 58.90625 
Q 16.5 51.421875 16.5 36.375 
Q 16.5 21.390625 20.328125 13.890625 
Q 24.171875 6.390625 31.78125 6.390625 
Q 39.453125 6.390625 43.28125 13.890625 
Q 47.125 21.390625 47.125 36.375 
Q 47.125 51.421875 43.28125 58.90625 
Q 39.453125 66.40625 31.78125 66.40625 
z
M 31.78125 74.21875 
Q 44.046875 74.21875 50.515625 64.515625 
Q 56.984375 54.828125 56.984375 36.375 
Q 56.984375 17.96875 50.515625 8.265625 
Q 44.046875 -1.421875 31.78125 -1.421875 
Q 19.53125 -1.421875 13.0625 8.265625 
Q 6.59375 17.96875 6.59375 36.375 
Q 6.59375 54.828125 13.0625 64.515625 
Q 19.53125 74.21875 31.78125 74.21875 
z
" id="DejaVuSans-48"/>
       <path d="M 10.6875 12.40625 
L 21 12.40625 
L 21 0 
L 10.6875 0 
z
" id="DejaVuSans-46"/>
      </defs>
      <g transform="translate(69.38955 507.29515)scale(0.2592 -0.2592)">
       <use xlink:href="#DejaVuSans-48"/>
       <use x="63.623047" xlink:href="#DejaVuSans-46"/>
       <use x="95.410156" xlink:href="#DejaVuSans-48"/>
      </g>
     </g>
    </g>
    <g id="xtick_2">
     <g id="line2d_2">
      <g>
       <use style="stroke:#000000;stroke-width:0.8;" x="183" xlink:href="#m2bd0353463" y="480.6"/>
      </g>
     </g>
     <g id="text_2">
      <!-- 0.1 -->
      <defs>
       <path d="M 12.40625 8.296875 
L 28.515625 8.296875 
L 28.515625 63.921875 
L 10.984375 60.40625 
L 10.984375 69.390625 
L 28.421875 72.90625 
L 38.28125 72.90625 
L 38.28125 8.296875 
L 54.390625 8.296875 
L 54.390625 0 
L 12.40625 0 
z
" id="DejaVuSans-49"/>
      </defs>
      <g transform="translate(162.38955 507.29515)scale(0.2592 -0.2592)">
       <use xlink:href="#DejaVuSans-48"/>
       <use x="63.623047" xlink:href="#DejaVuSans-46"/>
       <use x="95.410156" xlink:href="#DejaVuSans-49"/>
      </g>
     </g>
    </g>
    <g id="xtick_3">
     <g id="line2d_3">
      <g>
       <use style="stroke:#000000;stroke-width:0.8;" x="276" xlink:href="#m2bd0353463" y="480.6"/>
      </g>
     </g>
     <g id="text_3">
      <!-- 0.2 -->
      <defs>
       <path d="M 19.1875 8.296875 
L 53.609375 8.296875 
L 53.609375 0 
L 7.328125 0 
L 7.328125 8.296875 
Q 12.9375 14.109375 22.625 23.890625 
Q 32.328125 33.6875 34.8125 36.53125 
Q 39.546875 41.84375 41.421875 45.53125 
Q 43.3125 49.21875 43.3125 52.78125 
Q 43.3125 58.59375 39.234375 62.25 
Q 35.15625 65.921875 28.609375 65.921875 
Q 23.96875 65.921875 18.8125 64.3125 
Q 13.671875 62.703125 7.8125 59.421875 
L 7.8125 69.390625 
Q 13.765625 71.78125 18.9375 73 
Q 24.125 74.21875 28.421875 74.21875 
Q 39.75 74.21875 46.484375 68.546875 
Q 53.21875 62.890625 53.21875 53.421875 
Q 53.21875 48.921875 51.53125 44.890625 
Q 49.859375 40.875 45.40625 35.40625 
Q 44.1875 33.984375 37.640625 27.21875 
Q 31.109375 20.453125 19.1875 8.296875 
z
" id="DejaVuSans-50"/>
      </defs>
      <g transform="translate(255.38955 507.29515)scale(0.2592 -0.2592)">
       <use xlink:href="#DejaVuSans-48"/>
       <use x="63.623047" xlink:href="#DejaVuSans-46"/>
       <use x="95.410156" xlink:href="#DejaVuSans-50"/>
      </g>
     </g>
    </g>
    <g id="xtick_4">
     <g id="line2d_4">
      <g>
       <use style="stroke:#000000;stroke-width:0.8;" x="369" xlink:href="#m2bd0353463" y="480.6"/>
      </g>
     </g>
     <g id="text_4">
      <!-- 0.3 -->
      <defs>
       <path d="M 40.578125 39.3125 
Q 47.65625 37.796875 51.625 33 
Q 55.609375 28.21875 55.609375 21.1875 
Q 55.609375 10.40625 48.1875 4.484375 
Q 40.765625 -1.421875 27.09375 -1.421875 
Q 22.515625 -1.421875 17.65625 -0.515625 
Q 12.796875 0.390625 7.625 2.203125 
L 7.625 11.71875 
Q 11.71875 9.328125 16.59375 8.109375 
Q 21.484375 6.890625 26.8125 6.890625 
Q 36.078125 6.890625 40.9375 10.546875 
Q 45.796875 14.203125 45.796875 21.1875 
Q 45.796875 27.640625 41.28125 31.265625 
Q 36.765625 34.90625 28.71875 34.90625 
L 20.21875 34.90625 
L 20.21875 43.015625 
L 29.109375 43.015625 
Q 36.375 43.015625 40.234375 45.921875 
Q 44.09375 48.828125 44.09375 54.296875 
Q 44.09375 59.90625 40.109375 62.90625 
Q 36.140625 65.921875 28.71875 65.921875 
Q 24.65625 65.921875 20.015625 65.03125 
Q 15.375 64.15625 9.8125 62.3125 
L 9.8125 71.09375 
Q 15.4375 72.65625 20.34375 73.4375 
Q 25.25 74.21875 29.59375 74.21875 
Q 40.828125 74.21875 47.359375 69.109375 
Q 53.90625 64.015625 53.90625 55.328125 
Q 53.90625 49.265625 50.4375 45.09375 
Q 46.96875 40.921875 40.578125 39.3125 
z
" id="DejaVuSans-51"/>
      </defs>
      <g transform="translate(348.38955 507.29515)scale(0.2592 -0.2592)">
       <use xlink:href="#DejaVuSans-48"/>
       <use x="63.623047" xlink:href="#DejaVuSans-46"/>
       <use x="95.410156" xlink:href="#DejaVuSans-51"/>
      </g>
     </g>
    </g>
    <g id="xtick_5">
     <g id="line2d_5">
      <g>
       <use style="stroke:#000000;stroke-width:0.8;" x="462" xlink:href="#m2bd0353463" y="480.6"/>
      </g>
     </g>
     <g id="text_5">
      <!-- 0.4 -->
      <defs>
       <path d="M 37.796875 64.3125 
L 12.890625 25.390625 
L 37.796875 25.390625 
z
M 35.203125 72.90625 
L 47.609375 72.90625 
L 47.609375 25.390625 
L 58.015625 25.390625 
L 58.015625 17.1875 
L 47.609375 17.1875 
L 47.609375 0 
L 37.796875 0 
L 37.796875 17.1875 
L 4.890625 17.1875 
L 4.890625 26.703125 
z
" id="DejaVuSans-52"/>
      </defs>
      <g transform="translate(441.38955 507.29515)scale(0.2592 -0.2592)">
       <use xlink:href="#DejaVuSans-48"/>
       <use x="63.623047" xlink:href="#DejaVuSans-46"/>
       <use x="95.410156" xlink:href="#DejaVuSans-52"/>
      </g>
     </g>
    </g>
    <g id="xtick_6">
     <g id="line2d_6">
      <g>
       <use style="stroke:#000000;stroke-width:0.8;" x="555" xlink:href="#m2bd0353463" y="480.6"/>
      </g>
     </g>
     <g id="text_6">
      <!-- 0.5 -->
      <defs>
       <path d="M 10.796875 72.90625 
L 49.515625 72.90625 
L 49.515625 64.59375 
L 19.828125 64.59375 
L 19.828125 46.734375 
Q 21.96875 47.46875 24.109375 47.828125 
Q 26.265625 48.1875 28.421875 48.1875 
Q 40.625 48.1875 47.75 41.5 
Q 54.890625 34.8125 54.890625 23.390625 
Q 54.890625 11.625 47.5625 5.09375 
Q 40.234375 -1.421875 26.90625 -1.421875 
Q 22.3125 -1.421875 17.546875 -0.640625 
Q 12.796875 0.140625 7.71875 1.703125 
L 7.71875 11.625 
Q 12.109375 9.234375 16.796875 8.0625 
Q 21.484375 6.890625 26.703125 6.890625 
Q 35.15625 6.890625 40.078125 11.328125 
Q 45.015625 15.765625 45.015625 23.390625 
Q 45.015625 31 40.078125 35.4375 
Q 35.15625 39.890625 26.703125 39.890625 
Q 22.75 39.890625 18.8125 39.015625 
Q 14.890625 38.140625 10.796875 36.28125 
z
" id="DejaVuSans-53"/>
      </defs>
      <g transform="translate(534.38955 507.29515)scale(0.2592 -0.2592)">
       <use xlink:href="#DejaVuSans-48"/>
       <use x="63.623047" xlink:href="#DejaVuSans-46"/>
       <use x="95.410156" xlink:href="#DejaVuSans-53"/>
      </g>
     </g>
    </g>
    <g id="xtick_7">
     <g id="line2d_7">
      <g>
       <use style="stroke:#000000;stroke-width:0.8;" x="648" xlink:href="#m2bd0353463" y="480.6"/>
      </g>
     </g>
     <g id="text_7">
      <!-- 0.6 -->
      <defs>
       <path d="M 33.015625 40.375 
Q 26.375 40.375 22.484375 35.828125 
Q 18.609375 31.296875 18.609375 23.390625 
Q 18.609375 15.53125 22.484375 10.953125 
Q 26.375 6.390625 33.015625 6.390625 
Q 39.65625 6.390625 43.53125 10.953125 
Q 47.40625 15.53125 47.40625 23.390625 
Q 47.40625 31.296875 43.53125 35.828125 
Q 39.65625 40.375 33.015625 40.375 
z
M 52.59375 71.296875 
L 52.59375 62.3125 
Q 48.875 64.0625 45.09375 64.984375 
Q 41.3125 65.921875 37.59375 65.921875 
Q 27.828125 65.921875 22.671875 59.328125 
Q 17.53125 52.734375 16.796875 39.40625 
Q 19.671875 43.65625 24.015625 45.921875 
Q 28.375 48.1875 33.59375 48.1875 
Q 44.578125 48.1875 50.953125 41.515625 
Q 57.328125 34.859375 57.328125 23.390625 
Q 57.328125 12.15625 50.6875 5.359375 
Q 44.046875 -1.421875 33.015625 -1.421875 
Q 20.359375 -1.421875 13.671875 8.265625 
Q 6.984375 17.96875 6.984375 36.375 
Q 6.984375 53.65625 15.1875 63.9375 
Q 23.390625 74.21875 37.203125 74.21875 
Q 40.921875 74.21875 44.703125 73.484375 
Q 48.484375 72.75 52.59375 71.296875 
z
" id="DejaVuSans-54"/>
      </defs>
      <g transform="translate(627.38955 507.29515)scale(0.2592 -0.2592)">
       <use xlink:href="#DejaVuSans-48"/>
       <use x="63.623047" xlink:href="#DejaVuSans-46"/>
       <use x="95.410156" xlink:href="#DejaVuSans-54"/>
      </g>
     </g>
    </g>
    <g id="text_8">
     <!-- mcpMomentum -->
     <defs>
      <path d="M 52 44.1875 
Q 55.375 50.25 60.0625 53.125 
Q 64.75 56 71.09375 56 
Q 79.640625 56 84.28125 50.015625 
Q 88.921875 44.046875 88.921875 33.015625 
L 88.921875 0 
L 79.890625 0 
L 79.890625 32.71875 
Q 79.890625 40.578125 77.09375 44.375 
Q 74.3125 48.1875 68.609375 48.1875 
Q 61.625 48.1875 57.5625 43.546875 
Q 53.515625 38.921875 53.515625 30.90625 
L 53.515625 0 
L 44.484375 0 
L 44.484375 32.71875 
Q 44.484375 40.625 41.703125 44.40625 
Q 38.921875 48.1875 33.109375 48.1875 
Q 26.21875 48.1875 22.15625 43.53125 
Q 18.109375 38.875 18.109375 30.90625 
L 18.109375 0 
L 9.078125 0 
L 9.078125 54.6875 
L 18.109375 54.6875 
L 18.109375 46.1875 
Q 21.1875 51.21875 25.484375 53.609375 
Q 29.78125 56 35.6875 56 
Q 41.65625 56 45.828125 52.96875 
Q 50 49.953125 52 44.1875 
z
" id="DejaVuSans-109"/>
      <path d="M 48.78125 52.59375 
L 48.78125 44.1875 
Q 44.96875 46.296875 41.140625 47.34375 
Q 37.3125 48.390625 33.40625 48.390625 
Q 24.65625 48.390625 19.8125 42.84375 
Q 14.984375 37.3125 14.984375 27.296875 
Q 14.984375 17.28125 19.8125 11.734375 
Q 24.65625 6.203125 33.40625 6.203125 
Q 37.3125 6.203125 41.140625 7.25 
Q 44.96875 8.296875 48.78125 10.40625 
L 48.78125 2.09375 
Q 45.015625 0.34375 40.984375 -0.53125 
Q 36.96875 -1.421875 32.421875 -1.421875 
Q 20.0625 -1.421875 12.78125 6.34375 
Q 5.515625 14.109375 5.515625 27.296875 
Q 5.515625 40.671875 12.859375 48.328125 
Q 20.21875 56 33.015625 56 
Q 37.15625 56 41.109375 55.140625 
Q 45.0625 54.296875 48.78125 52.59375 
z
" id="DejaVuSans-99"/>
      <path d="M 18.109375 8.203125 
L 18.109375 -20.796875 
L 9.078125 -20.796875 
L 9.078125 54.6875 
L 18.109375 54.6875 
L 18.109375 46.390625 
Q 20.953125 51.265625 25.265625 53.625 
Q 29.59375 56 35.59375 56 
Q 45.5625 56 51.78125 48.09375 
Q 58.015625 40.1875 58.015625 27.296875 
Q 58.015625 14.40625 51.78125 6.484375 
Q 45.5625 -1.421875 35.59375 -1.421875 
Q 29.59375 -1.421875 25.265625 0.953125 
Q 20.953125 3.328125 18.109375 8.203125 
z
M 48.6875 27.296875 
Q 48.6875 37.203125 44.609375 42.84375 
Q 40.53125 48.484375 33.40625 48.484375 
Q 26.265625 48.484375 22.1875 42.84375 
Q 18.109375 37.203125 18.109375 27.296875 
Q 18.109375 17.390625 22.1875 11.75 
Q 26.265625 6.109375 33.40625 6.109375 
Q 40.53125 6.109375 44.609375 11.75 
Q 48.6875 17.390625 48.6875 27.296875 
z
" id="DejaVuSans-112"/>
      <path d="M 9.8125 72.90625 
L 24.515625 72.90625 
L 43.109375 23.296875 
L 61.8125 72.90625 
L 76.515625 72.90625 
L 76.515625 0 
L 66.890625 0 
L 66.890625 64.015625 
L 48.09375 14.015625 
L 38.1875 14.015625 
L 19.390625 64.015625 
L 19.390625 0 
L 9.8125 0 
z
" id="DejaVuSans-77"/>
      <path d="M 30.609375 48.390625 
Q 23.390625 48.390625 19.1875 42.75 
Q 14.984375 37.109375 14.984375 27.296875 
Q 14.984375 17.484375 19.15625 11.84375 
Q 23.34375 6.203125 30.609375 6.203125 
Q 37.796875 6.203125 41.984375 11.859375 
Q 46.1875 17.53125 46.1875 27.296875 
Q 46.1875 37.015625 41.984375 42.703125 
Q 37.796875 48.390625 30.609375 48.390625 
z
M 30.609375 56 
Q 42.328125 56 49.015625 48.375 
Q 55.71875 40.765625 55.71875 27.296875 
Q 55.71875 13.875 49.015625 6.21875 
Q 42.328125 -1.421875 30.609375 -1.421875 
Q 18.84375 -1.421875 12.171875 6.21875 
Q 5.515625 13.875 5.515625 27.296875 
Q 5.515625 40.765625 12.171875 48.375 
Q 18.84375 56 30.609375 56 
z
" id="DejaVuSans-111"/>
      <path d="M 56.203125 29.59375 
L 56.203125 25.203125 
L 14.890625 25.203125 
Q 15.484375 15.921875 20.484375 11.0625 
Q 25.484375 6.203125 34.421875 6.203125 
Q 39.59375 6.203125 44.453125 7.46875 
Q 49.3125 8.734375 54.109375 11.28125 
L 54.109375 2.78125 
Q 49.265625 0.734375 44.1875 -0.34375 
Q 39.109375 -1.421875 33.890625 -1.421875 
Q 20.796875 -1.421875 13.15625 6.1875 
Q 5.515625 13.8125 5.515625 26.8125 
Q 5.515625 40.234375 12.765625 48.109375 
Q 20.015625 56 32.328125 56 
Q 43.359375 56 49.78125 48.890625 
Q 56.203125 41.796875 56.203125 29.59375 
z
M 47.21875 32.234375 
Q 47.125 39.59375 43.09375 43.984375 
Q 39.0625 48.390625 32.421875 48.390625 
Q 24.90625 48.390625 20.390625 44.140625 
Q 15.875 39.890625 15.1875 32.171875 
z
" id="DejaVuSans-101"/>
      <path d="M 54.890625 33.015625 
L 54.890625 0 
L 45.90625 0 
L 45.90625 32.71875 
Q 45.90625 40.484375 42.875 44.328125 
Q 39.84375 48.1875 33.796875 48.1875 
Q 26.515625 48.1875 22.3125 43.546875 
Q 18.109375 38.921875 18.109375 30.90625 
L 18.109375 0 
L 9.078125 0 
L 9.078125 54.6875 
L 18.109375 54.6875 
L 18.109375 46.1875 
Q 21.34375 51.125 25.703125 53.5625 
Q 30.078125 56 35.796875 56 
Q 45.21875 56 50.046875 50.171875 
Q 54.890625 44.34375 54.890625 33.015625 
z
" id="DejaVuSans-110"/>
      <path d="M 18.3125 70.21875 
L 18.3125 54.6875 
L 36.8125 54.6875 
L 36.8125 47.703125 
L 18.3125 47.703125 
L 18.3125 18.015625 
Q 18.3125 11.328125 20.140625 9.421875 
Q 21.96875 7.515625 27.59375 7.515625 
L 36.8125 7.515625 
L 36.8125 0 
L 27.59375 0 
Q 17.1875 0 13.234375 3.875 
Q 9.28125 7.765625 9.28125 18.015625 
L 9.28125 47.703125 
L 2.6875 47.703125 
L 2.6875 54.6875 
L 9.28125 54.6875 
L 9.28125 70.21875 
z
" id="DejaVuSans-116"/>
      <path d="M 8.5 21.578125 
L 8.5 54.6875 
L 17.484375 54.6875 
L 17.484375 21.921875 
Q 17.484375 14.15625 20.5 10.265625 
Q 23.53125 6.390625 29.59375 6.390625 
Q 36.859375 6.390625 41.078125 11.03125 
Q 45.3125 15.671875 45.3125 23.6875 
L 45.3125 54.6875 
L 54.296875 54.6875 
L 54.296875 0 
L 45.3125 0 
L 45.3125 8.40625 
Q 42.046875 3.421875 37.71875 1 
Q 33.40625 -1.421875 27.6875 -1.421875 
Q 18.265625 -1.421875 13.375 4.4375 
Q 8.5 10.296875 8.5 21.578125 
z
M 31.109375 56 
z
" id="DejaVuSans-117"/>
     </defs>
     <g transform="translate(267.180975 536.38085)scale(0.2592 -0.2592)">
      <use xlink:href="#DejaVuSans-109"/>
      <use x="97.412109" xlink:href="#DejaVuSans-99"/>
      <use x="152.392578" xlink:href="#DejaVuSans-112"/>
      <use x="215.869141" xlink:href="#DejaVuSans-77"/>
      <use x="302.148438" xlink:href="#DejaVuSans-111"/>
      <use x="363.330078" xlink:href="#DejaVuSans-109"/>
      <use x="460.742188" xlink:href="#DejaVuSans-101"/>
      <use x="522.265625" xlink:href="#DejaVuSans-110"/>
      <use x="585.644531" xlink:href="#DejaVuSans-116"/>
      <use x="624.853516" xlink:href="#DejaVuSans-117"/>
      <use x="688.232422" xlink:href="#DejaVuSans-109"/>
     </g>
    </g>
   </g>
   <g id="matplotlib.axis_2">
    <g id="ytick_1">
     <g id="line2d_8">
      <defs>
       <path d="M 0 0 
L -3.5 0 
" id="m6a01d32f73" style="stroke:#000000;stroke-width:0.8;"/>
      </defs>
      <g>
       <use style="stroke:#000000;stroke-width:0.8;" x="90" xlink:href="#m6a01d32f73" y="440.169375"/>
      </g>
     </g>
     <g id="text_9">
      <!-- $\mathdefault{10^{-4}}$ -->
      <defs>
       <path d="M 10.59375 35.5 
L 73.1875 35.5 
L 73.1875 27.203125 
L 10.59375 27.203125 
z
" id="DejaVuSans-8722"/>
      </defs>
      <g transform="translate(22.088 450.01695)scale(0.2592 -0.2592)">
       <use transform="translate(0 0.684375)" xlink:href="#DejaVuSans-49"/>
       <use transform="translate(63.623047 0.684375)" xlink:href="#DejaVuSans-48"/>
       <use transform="translate(128.203125 38.965625)scale(0.7)" xlink:href="#DejaVuSans-8722"/>
       <use transform="translate(186.855469 38.965625)scale(0.7)" xlink:href="#DejaVuSans-52"/>
      </g>
     </g>
    </g>
    <g id="ytick_2">
     <g id="line2d_9">
      <g>
       <use style="stroke:#000000;stroke-width:0.8;" x="90" xlink:href="#m6a01d32f73" y="339.793247"/>
      </g>
     </g>
     <g id="text_10">
      <!-- $\mathdefault{10^{-3}}$ -->
      <g transform="translate(22.088 349.640822)scale(0.2592 -0.2592)">
       <use transform="translate(0 0.765625)" xlink:href="#DejaVuSans-49"/>
       <use transform="translate(63.623047 0.765625)" xlink:href="#DejaVuSans-48"/>
       <use transform="translate(128.203125 39.046875)scale(0.7)" xlink:href="#DejaVuSans-8722"/>
       <use transform="translate(186.855469 39.046875)scale(0.7)" xlink:href="#DejaVuSans-51"/>
      </g>
     </g>
    </g>
    <g id="ytick_3">
     <g id="line2d_10">
      <g>
       <use style="stroke:#000000;stroke-width:0.8;" x="90" xlink:href="#m6a01d32f73" y="239.417118"/>
      </g>
     </g>
     <g id="text_11">
      <!-- $\mathdefault{10^{-2}}$ -->
      <g transform="translate(22.088 249.264693)scale(0.2592 -0.2592)">
       <use transform="translate(0 0.765625)" xlink:href="#DejaVuSans-49"/>
       <use transform="translate(63.623047 0.765625)" xlink:href="#DejaVuSans-48"/>
       <use transform="translate(128.203125 39.046875)scale(0.7)" xlink:href="#DejaVuSans-8722"/>
       <use transform="translate(186.855469 39.046875)scale(0.7)" xlink:href="#DejaVuSans-50"/>
      </g>
     </g>
    </g>
    <g id="ytick_4">
     <g id="line2d_11">
      <g>
       <use style="stroke:#000000;stroke-width:0.8;" x="90" xlink:href="#m6a01d32f73" y="139.040989"/>
      </g>
     </g>
     <g id="text_12">
      <!-- $\mathdefault{10^{-1}}$ -->
      <g transform="translate(22.088 148.888564)scale(0.2592 -0.2592)">
       <use transform="translate(0 0.684375)" xlink:href="#DejaVuSans-49"/>
       <use transform="translate(63.623047 0.684375)" xlink:href="#DejaVuSans-48"/>
       <use transform="translate(128.203125 38.965625)scale(0.7)" xlink:href="#DejaVuSans-8722"/>
       <use transform="translate(186.855469 38.965625)scale(0.7)" xlink:href="#DejaVuSans-49"/>
      </g>
     </g>
    </g>
    <g id="ytick_5">
     <g id="line2d_12">
      <defs>
       <path d="M 0 0 
L -2 0 
" id="m9f39e404e5" style="stroke:#000000;stroke-width:0.6;"/>
      </defs>
      <g>
       <use style="stroke:#000000;stroke-width:0.6;" x="90" xlink:href="#m9f39e404e5" y="480.113053"/>
      </g>
     </g>
    </g>
    <g id="ytick_6">
     <g id="line2d_13">
      <g>
       <use style="stroke:#000000;stroke-width:0.6;" x="90" xlink:href="#m9f39e404e5" y="470.385601"/>
      </g>
     </g>
    </g>
    <g id="ytick_7">
     <g id="line2d_14">
      <g>
       <use style="stroke:#000000;stroke-width:0.6;" x="90" xlink:href="#m9f39e404e5" y="462.437694"/>
      </g>
     </g>
    </g>
    <g id="ytick_8">
     <g id="line2d_15">
      <g>
       <use style="stroke:#000000;stroke-width:0.6;" x="90" xlink:href="#m9f39e404e5" y="455.717834"/>
      </g>
     </g>
    </g>
    <g id="ytick_9">
     <g id="line2d_16">
      <g>
       <use style="stroke:#000000;stroke-width:0.6;" x="90" xlink:href="#m9f39e404e5" y="449.896827"/>
      </g>
     </g>
    </g>
    <g id="ytick_10">
     <g id="line2d_17">
      <g>
       <use style="stroke:#000000;stroke-width:0.6;" x="90" xlink:href="#m9f39e404e5" y="444.762335"/>
      </g>
     </g>
    </g>
    <g id="ytick_11">
     <g id="line2d_18">
      <g>
       <use style="stroke:#000000;stroke-width:0.6;" x="90" xlink:href="#m9f39e404e5" y="409.95315"/>
      </g>
     </g>
    </g>
    <g id="ytick_12">
     <g id="line2d_19">
      <g>
       <use style="stroke:#000000;stroke-width:0.6;" x="90" xlink:href="#m9f39e404e5" y="392.277791"/>
      </g>
     </g>
    </g>
    <g id="ytick_13">
     <g id="line2d_20">
      <g>
       <use style="stroke:#000000;stroke-width:0.6;" x="90" xlink:href="#m9f39e404e5" y="379.736924"/>
      </g>
     </g>
    </g>
    <g id="ytick_14">
     <g id="line2d_21">
      <g>
       <use style="stroke:#000000;stroke-width:0.6;" x="90" xlink:href="#m9f39e404e5" y="370.009472"/>
      </g>
     </g>
    </g>
    <g id="ytick_15">
     <g id="line2d_22">
      <g>
       <use style="stroke:#000000;stroke-width:0.6;" x="90" xlink:href="#m9f39e404e5" y="362.061565"/>
      </g>
     </g>
    </g>
    <g id="ytick_16">
     <g id="line2d_23">
      <g>
       <use style="stroke:#000000;stroke-width:0.6;" x="90" xlink:href="#m9f39e404e5" y="355.341706"/>
      </g>
     </g>
    </g>
    <g id="ytick_17">
     <g id="line2d_24">
      <g>
       <use style="stroke:#000000;stroke-width:0.6;" x="90" xlink:href="#m9f39e404e5" y="349.520699"/>
      </g>
     </g>
    </g>
    <g id="ytick_18">
     <g id="line2d_25">
      <g>
       <use style="stroke:#000000;stroke-width:0.6;" x="90" xlink:href="#m9f39e404e5" y="344.386206"/>
      </g>
     </g>
    </g>
    <g id="ytick_19">
     <g id="line2d_26">
      <g>
       <use style="stroke:#000000;stroke-width:0.6;" x="90" xlink:href="#m9f39e404e5" y="309.577021"/>
      </g>
     </g>
    </g>
    <g id="ytick_20">
     <g id="line2d_27">
      <g>
       <use style="stroke:#000000;stroke-width:0.6;" x="90" xlink:href="#m9f39e404e5" y="291.901662"/>
      </g>
     </g>
    </g>
    <g id="ytick_21">
     <g id="line2d_28">
      <g>
       <use style="stroke:#000000;stroke-width:0.6;" x="90" xlink:href="#m9f39e404e5" y="279.360795"/>
      </g>
     </g>
    </g>
    <g id="ytick_22">
     <g id="line2d_29">
      <g>
       <use style="stroke:#000000;stroke-width:0.6;" x="90" xlink:href="#m9f39e404e5" y="269.633344"/>
      </g>
     </g>
    </g>
    <g id="ytick_23">
     <g id="line2d_30">
      <g>
       <use style="stroke:#000000;stroke-width:0.6;" x="90" xlink:href="#m9f39e404e5" y="261.685437"/>
      </g>
     </g>
    </g>
    <g id="ytick_24">
     <g id="line2d_31">
      <g>
       <use style="stroke:#000000;stroke-width:0.6;" x="90" xlink:href="#m9f39e404e5" y="254.965577"/>
      </g>
     </g>
    </g>
    <g id="ytick_25">
     <g id="line2d_32">
      <g>
       <use style="stroke:#000000;stroke-width:0.6;" x="90" xlink:href="#m9f39e404e5" y="249.14457"/>
      </g>
     </g>
    </g>
    <g id="ytick_26">
     <g id="line2d_33">
      <g>
       <use style="stroke:#000000;stroke-width:0.6;" x="90" xlink:href="#m9f39e404e5" y="244.010078"/>
      </g>
     </g>
    </g>
    <g id="ytick_27">
     <g id="line2d_34">
      <g>
       <use style="stroke:#000000;stroke-width:0.6;" x="90" xlink:href="#m9f39e404e5" y="209.200892"/>
      </g>
     </g>
    </g>
    <g id="ytick_28">
     <g id="line2d_35">
      <g>
       <use style="stroke:#000000;stroke-width:0.6;" x="90" xlink:href="#m9f39e404e5" y="191.525534"/>
      </g>
     </g>
    </g>
    <g id="ytick_29">
     <g id="line2d_36">
      <g>
       <use style="stroke:#000000;stroke-width:0.6;" x="90" xlink:href="#m9f39e404e5" y="178.984667"/>
      </g>
     </g>
    </g>
    <g id="ytick_30">
     <g id="line2d_37">
      <g>
       <use style="stroke:#000000;stroke-width:0.6;" x="90" xlink:href="#m9f39e404e5" y="169.257215"/>
      </g>
     </g>
    </g>
    <g id="ytick_31">
     <g id="line2d_38">
      <g>
       <use style="stroke:#000000;stroke-width:0.6;" x="90" xlink:href="#m9f39e404e5" y="161.309308"/>
      </g>
     </g>
    </g>
    <g id="ytick_32">
     <g id="line2d_39">
      <g>
       <use style="stroke:#000000;stroke-width:0.6;" x="90" xlink:href="#m9f39e404e5" y="154.589448"/>
      </g>
     </g>
    </g>
    <g id="ytick_33">
     <g id="line2d_40">
      <g>
       <use style="stroke:#000000;stroke-width:0.6;" x="90" xlink:href="#m9f39e404e5" y="148.768441"/>
      </g>
     </g>
    </g>
    <g id="ytick_34">
     <g id="line2d_41">
      <g>
       <use style="stroke:#000000;stroke-width:0.6;" x="90" xlink:href="#m9f39e404e5" y="143.633949"/>
      </g>
     </g>
    </g>
    <g id="ytick_35">
     <g id="line2d_42">
      <g>
       <use style="stroke:#000000;stroke-width:0.6;" x="90" xlink:href="#m9f39e404e5" y="108.824764"/>
      </g>
     </g>
    </g>
    <g id="ytick_36">
     <g id="line2d_43">
      <g>
       <use style="stroke:#000000;stroke-width:0.6;" x="90" xlink:href="#m9f39e404e5" y="91.149405"/>
      </g>
     </g>
    </g>
    <g id="ytick_37">
     <g id="line2d_44">
      <g>
       <use style="stroke:#000000;stroke-width:0.6;" x="90" xlink:href="#m9f39e404e5" y="78.608538"/>
      </g>
     </g>
    </g>
    <g id="ytick_38">
     <g id="line2d_45">
      <g>
       <use style="stroke:#000000;stroke-width:0.6;" x="90" xlink:href="#m9f39e404e5" y="68.881086"/>
      </g>
     </g>
    </g>
    <g id="text_13">
     <!-- Probability -->
     <defs>
      <path d="M 19.671875 64.796875 
L 19.671875 37.40625 
L 32.078125 37.40625 
Q 38.96875 37.40625 42.71875 40.96875 
Q 46.484375 44.53125 46.484375 51.125 
Q 46.484375 57.671875 42.71875 61.234375 
Q 38.96875 64.796875 32.078125 64.796875 
z
M 9.8125 72.90625 
L 32.078125 72.90625 
Q 44.34375 72.90625 50.609375 67.359375 
Q 56.890625 61.8125 56.890625 51.125 
Q 56.890625 40.328125 50.609375 34.8125 
Q 44.34375 29.296875 32.078125 29.296875 
L 19.671875 29.296875 
L 19.671875 0 
L 9.8125 0 
z
" id="DejaVuSans-80"/>
      <path d="M 41.109375 46.296875 
Q 39.59375 47.171875 37.8125 47.578125 
Q 36.03125 48 33.890625 48 
Q 26.265625 48 22.1875 43.046875 
Q 18.109375 38.09375 18.109375 28.8125 
L 18.109375 0 
L 9.078125 0 
L 9.078125 54.6875 
L 18.109375 54.6875 
L 18.109375 46.1875 
Q 20.953125 51.171875 25.484375 53.578125 
Q 30.03125 56 36.53125 56 
Q 37.453125 56 38.578125 55.875 
Q 39.703125 55.765625 41.0625 55.515625 
z
" id="DejaVuSans-114"/>
      <path d="M 48.6875 27.296875 
Q 48.6875 37.203125 44.609375 42.84375 
Q 40.53125 48.484375 33.40625 48.484375 
Q 26.265625 48.484375 22.1875 42.84375 
Q 18.109375 37.203125 18.109375 27.296875 
Q 18.109375 17.390625 22.1875 11.75 
Q 26.265625 6.109375 33.40625 6.109375 
Q 40.53125 6.109375 44.609375 11.75 
Q 48.6875 17.390625 48.6875 27.296875 
z
M 18.109375 46.390625 
Q 20.953125 51.265625 25.265625 53.625 
Q 29.59375 56 35.59375 56 
Q 45.5625 56 51.78125 48.09375 
Q 58.015625 40.1875 58.015625 27.296875 
Q 58.015625 14.40625 51.78125 6.484375 
Q 45.5625 -1.421875 35.59375 -1.421875 
Q 29.59375 -1.421875 25.265625 0.953125 
Q 20.953125 3.328125 18.109375 8.203125 
L 18.109375 0 
L 9.078125 0 
L 9.078125 75.984375 
L 18.109375 75.984375 
z
" id="DejaVuSans-98"/>
      <path d="M 34.28125 27.484375 
Q 23.390625 27.484375 19.1875 25 
Q 14.984375 22.515625 14.984375 16.5 
Q 14.984375 11.71875 18.140625 8.90625 
Q 21.296875 6.109375 26.703125 6.109375 
Q 34.1875 6.109375 38.703125 11.40625 
Q 43.21875 16.703125 43.21875 25.484375 
L 43.21875 27.484375 
z
M 52.203125 31.203125 
L 52.203125 0 
L 43.21875 0 
L 43.21875 8.296875 
Q 40.140625 3.328125 35.546875 0.953125 
Q 30.953125 -1.421875 24.3125 -1.421875 
Q 15.921875 -1.421875 10.953125 3.296875 
Q 6 8.015625 6 15.921875 
Q 6 25.140625 12.171875 29.828125 
Q 18.359375 34.515625 30.609375 34.515625 
L 43.21875 34.515625 
L 43.21875 35.40625 
Q 43.21875 41.609375 39.140625 45 
Q 35.0625 48.390625 27.6875 48.390625 
Q 23 48.390625 18.546875 47.265625 
Q 14.109375 46.140625 10.015625 43.890625 
L 10.015625 52.203125 
Q 14.9375 54.109375 19.578125 55.046875 
Q 24.21875 56 28.609375 56 
Q 40.484375 56 46.34375 49.84375 
Q 52.203125 43.703125 52.203125 31.203125 
z
" id="DejaVuSans-97"/>
      <path d="M 9.421875 54.6875 
L 18.40625 54.6875 
L 18.40625 0 
L 9.421875 0 
z
M 9.421875 75.984375 
L 18.40625 75.984375 
L 18.40625 64.59375 
L 9.421875 64.59375 
z
" id="DejaVuSans-105"/>
      <path d="M 9.421875 75.984375 
L 18.40625 75.984375 
L 18.40625 0 
L 9.421875 0 
z
" id="DejaVuSans-108"/>
      <path d="M 32.171875 -5.078125 
Q 28.375 -14.84375 24.75 -17.8125 
Q 21.140625 -20.796875 15.09375 -20.796875 
L 7.90625 -20.796875 
L 7.90625 -13.28125 
L 13.1875 -13.28125 
Q 16.890625 -13.28125 18.9375 -11.515625 
Q 21 -9.765625 23.484375 -3.21875 
L 25.09375 0.875 
L 2.984375 54.6875 
L 12.5 54.6875 
L 29.59375 11.921875 
L 46.6875 54.6875 
L 56.203125 54.6875 
z
" id="DejaVuSans-121"/>
     </defs>
     <g transform="translate(12.69745 341.71605)rotate(-90)scale(0.2592 -0.2592)">
      <use xlink:href="#DejaVuSans-80"/>
      <use x="60.287109" xlink:href="#DejaVuSans-114"/>
      <use x="101.369141" xlink:href="#DejaVuSans-111"/>
      <use x="162.550781" xlink:href="#DejaVuSans-98"/>
      <use x="226.027344" xlink:href="#DejaVuSans-97"/>
      <use x="287.306641" xlink:href="#DejaVuSans-98"/>
      <use x="350.783203" xlink:href="#DejaVuSans-105"/>
      <use x="378.566406" xlink:href="#DejaVuSans-108"/>
      <use x="406.349609" xlink:href="#DejaVuSans-105"/>
      <use x="434.132812" xlink:href="#DejaVuSans-116"/>
      <use x="473.341797" xlink:href="#DejaVuSans-121"/>
     </g>
    </g>
   </g>
   <g id="line2d_46">
    <path clip-path="url(#p190f8fab96)" d="M 101.387755 541 
L 101.387755 321.97598 
L 112.77551 321.97598 
L 112.77551 160.625868 
L 124.163265 160.625868 
L 124.163265 83.7 
L 135.55102 83.7 
L 135.55102 121.006302 
L 146.938776 121.006302 
L 146.938776 205.402356 
L 158.326531 205.402356 
L 158.326531 202.495093 
L 169.714286 202.495093 
L 169.714286 221.599852 
L 181.102041 221.599852 
L 181.102041 205.402356 
L 192.489796 205.402356 
L 192.489796 219.472952 
L 203.877551 219.472952 
L 203.877551 237.148311 
L 215.265306 237.148311 
L 215.265306 219.472952 
L 226.653061 219.472952 
L 226.653061 234.140718 
L 238.040816 234.140718 
L 238.040816 243.86817 
L 249.428571 243.86817 
L 249.428571 267.364536 
L 260.816327 267.364536 
L 260.816327 304.300622 
L 272.204082 304.300622 
L 272.204082 256.409037 
L 283.591837 256.409037 
L 283.591837 261.543529 
L 294.979592 261.543529 
L 294.979592 247.66124 
L 306.367347 247.66124 
L 306.367347 274.084396 
L 317.755102 274.084396 
L 317.755102 267.364536 
L 329.142857 267.364536 
L 329.142857 261.543529 
L 340.530612 261.543529 
L 340.530612 267.364536 
L 351.918367 267.364536 
L 351.918367 291.759755 
L 363.306122 291.759755 
L 363.306122 267.364536 
L 374.693878 267.364536 
L 374.693878 261.543529 
L 386.081633 261.543529 
L 386.081633 256.409037 
L 397.469388 256.409037 
L 397.469388 321.97598 
L 408.857143 321.97598 
L 408.857143 282.032303 
L 420.244898 282.032303 
L 420.244898 282.032303 
L 431.632653 282.032303 
L 431.632653 282.032303 
L 443.020408 282.032303 
L 443.020408 256.409037 
L 454.408163 256.409037 
L 454.408163 256.409037 
L 465.795918 256.409037 
L 465.795918 261.543529 
L 477.183673 261.543529 
L 477.183673 282.032303 
L 488.571429 282.032303 
L 488.571429 304.300622 
L 499.959184 304.300622 
L 499.959184 321.97598 
L 511.346939 321.97598 
L 511.346939 274.084396 
L 522.734694 274.084396 
L 522.734694 291.759755 
L 534.122449 291.759755 
L 534.122449 261.543529 
L 545.510204 261.543529 
L 545.510204 352.192206 
L 556.897959 352.192206 
L 556.897959 274.084396 
L 568.285714 274.084396 
L 568.285714 304.300622 
L 579.673469 304.300622 
L 579.673469 291.759755 
L 591.061224 291.759755 
L 591.061224 321.97598 
L 602.44898 321.97598 
L 602.44898 541 
M 613.836735 541 
L 613.836735 291.759755 
L 625.22449 291.759755 
L 625.22449 321.97598 
L 636.612245 321.97598 
L 636.612245 304.300622 
L 648 304.300622 
" style="fill:none;stroke:#1f77b4;stroke-linecap:square;stroke-width:1.5;"/>
   </g>
   <g id="line2d_47">
    <path clip-path="url(#p190f8fab96)" d="M 158.326531 541 
L 158.326531 352.192206 
L 169.714286 352.192206 
L 169.714286 541 
M 181.102041 541 
L 181.102041 304.300622 
L 192.489796 304.300622 
L 192.489796 352.192206 
L 203.877551 352.192206 
L 203.877551 321.97598 
L 215.265306 321.97598 
L 215.265306 541 
M 238.040816 541 
L 238.040816 291.759755 
L 249.428571 291.759755 
L 249.428571 321.97598 
L 260.816327 321.97598 
L 260.816327 541 
M 272.204082 541 
L 272.204082 321.97598 
L 283.591837 321.97598 
L 283.591837 291.759755 
L 294.979592 291.759755 
L 294.979592 274.084396 
L 306.367347 274.084396 
L 306.367347 304.300622 
L 317.755102 304.300622 
L 317.755102 304.300622 
L 329.142857 304.300622 
L 329.142857 291.759755 
L 340.530612 291.759755 
L 340.530612 274.084396 
L 351.918367 274.084396 
L 351.918367 304.300622 
L 363.306122 304.300622 
L 363.306122 274.084396 
L 374.693878 274.084396 
L 374.693878 267.364536 
L 386.081633 267.364536 
L 386.081633 282.032303 
L 397.469388 282.032303 
L 397.469388 321.97598 
L 408.857143 321.97598 
L 408.857143 291.759755 
L 420.244898 291.759755 
L 420.244898 282.032303 
L 431.632653 282.032303 
L 431.632653 282.032303 
L 443.020408 282.032303 
L 443.020408 274.084396 
L 454.408163 274.084396 
L 454.408163 274.084396 
L 465.795918 274.084396 
L 465.795918 274.084396 
L 477.183673 274.084396 
L 477.183673 282.032303 
L 488.571429 282.032303 
L 488.571429 321.97598 
L 499.959184 321.97598 
L 499.959184 321.97598 
L 511.346939 321.97598 
L 511.346939 282.032303 
L 522.734694 282.032303 
L 522.734694 291.759755 
L 534.122449 291.759755 
L 534.122449 261.543529 
L 545.510204 261.543529 
L 545.510204 352.192206 
L 556.897959 352.192206 
L 556.897959 274.084396 
L 568.285714 274.084396 
L 568.285714 304.300622 
L 579.673469 304.300622 
L 579.673469 291.759755 
L 591.061224 291.759755 
L 591.061224 321.97598 
L 602.44898 321.97598 
L 602.44898 541 
M 613.836735 541 
L 613.836735 304.300622 
L 625.22449 304.300622 
L 625.22449 321.97598 
L 636.612245 321.97598 
L 636.612245 304.300622 
L 648 304.300622 
" style="fill:none;stroke:#ff7f0e;stroke-linecap:square;stroke-width:1.5;"/>
   </g>
   <g id="line2d_48">
    <path clip-path="url(#p190f8fab96)" d="M 101.387755 541 
L 101.387755 321.97598 
L 112.77551 321.97598 
L 112.77551 160.625868 
L 124.163265 160.625868 
L 124.163265 83.7 
L 135.55102 83.7 
L 135.55102 121.006302 
L 146.938776 121.006302 
L 146.938776 205.402356 
L 158.326531 205.402356 
L 158.326531 203.924493 
L 169.714286 203.924493 
L 169.714286 221.599852 
L 181.102041 221.599852 
L 181.102041 210.162659 
L 192.489796 210.162659 
L 192.489796 221.599852 
L 203.877551 221.599852 
L 203.877551 243.86817 
L 215.265306 243.86817 
L 215.265306 219.472952 
L 226.653061 219.472952 
L 226.653061 234.140718 
L 238.040816 234.140718 
L 238.040816 261.543529 
L 249.428571 261.543529 
L 249.428571 282.032303 
L 260.816327 282.032303 
L 260.816327 304.300622 
L 272.204082 304.300622 
L 272.204082 267.364536 
L 283.591837 267.364536 
L 283.591837 291.759755 
L 294.979592 291.759755 
L 294.979592 282.032303 
L 306.367347 282.032303 
L 306.367347 304.300622 
L 317.755102 304.300622 
L 317.755102 291.759755 
L 329.142857 291.759755 
L 329.142857 291.759755 
L 340.530612 291.759755 
L 340.530612 352.192206 
L 351.918367 352.192206 
L 351.918367 352.192206 
L 363.306122 352.192206 
L 363.306122 352.192206 
L 374.693878 352.192206 
L 374.693878 352.192206 
L 386.081633 352.192206 
L 386.081633 291.759755 
L 397.469388 291.759755 
L 397.469388 541 
M 408.857143 541 
L 408.857143 352.192206 
L 420.244898 352.192206 
L 420.244898 541 
M 443.020408 541 
L 443.020408 304.300622 
L 454.408163 304.300622 
L 454.408163 304.300622 
L 465.795918 304.300622 
L 465.795918 321.97598 
L 477.183673 321.97598 
L 477.183673 541 
M 488.571429 541 
L 488.571429 352.192206 
L 499.959184 352.192206 
L 499.959184 541 
M 511.346939 541 
L 511.346939 352.192206 
L 522.734694 352.192206 
L 522.734694 541 
M 613.836735 541 
L 613.836735 352.192206 
L 625.22449 352.192206 
L 625.22449 541 
" style="fill:none;stroke:#2ca02c;stroke-linecap:square;stroke-width:1.5;"/>
   </g>
   <g id="line2d_49">
    <path clip-path="url(#p190f8fab96)" d="M 101.387755 541 
L 101.387755 461.7 
L 112.77551 461.7 
L 112.77551 280.402647 
L 124.163265 280.402647 
L 124.163265 212.192906 
L 135.55102 212.192906 
L 135.55102 183.869153 
L 146.938776 183.869153 
L 146.938776 173.521257 
L 158.326531 173.521257 
L 158.326531 165.504954 
L 169.714286 165.504954 
L 169.714286 166.44247 
L 181.102041 166.44247 
L 181.102041 162.715954 
L 192.489796 162.715954 
L 192.489796 162.761769 
L 203.877551 162.761769 
L 203.877551 164.87492 
L 215.265306 164.87492 
L 215.265306 166.492376 
L 226.653061 166.492376 
L 226.653061 167.247903 
L 238.040816 167.247903 
L 238.040816 176.182393 
L 249.428571 176.182393 
L 249.428571 179.55231 
L 260.816327 179.55231 
L 260.816327 182.622512 
L 272.204082 182.622512 
L 272.204082 189.75397 
L 283.591837 189.75397 
L 283.591837 193.951399 
L 294.979592 193.951399 
L 294.979592 196.261492 
L 306.367347 196.261492 
L 306.367347 200.62441 
L 317.755102 200.62441 
L 317.755102 200.515292 
L 329.142857 200.515292 
L 329.142857 209.835965 
L 340.530612 209.835965 
L 340.530612 210.379184 
L 351.918367 210.379184 
L 351.918367 215.75348 
L 363.306122 215.75348 
L 363.306122 212.911091 
L 374.693878 212.911091 
L 374.693878 224.638903 
L 386.081633 224.638903 
L 386.081633 231.390363 
L 397.469388 231.390363 
L 397.469388 230.950028 
L 408.857143 230.950028 
L 408.857143 236.552524 
L 420.244898 236.552524 
L 420.244898 239.382549 
L 431.632653 239.382549 
L 431.632653 240.732279 
L 443.020408 240.732279 
L 443.020408 252.279277 
L 454.408163 252.279277 
L 454.408163 247.224261 
L 465.795918 247.224261 
L 465.795918 257.191016 
L 477.183673 257.191016 
L 477.183673 265.540702 
L 488.571429 265.540702 
L 488.571429 255.619934 
L 499.959184 255.619934 
L 499.959184 268.548295 
L 511.346939 268.548295 
L 511.346939 274.666865 
L 522.734694 274.666865 
L 522.734694 281.089162 
L 534.122449 281.089162 
L 534.122449 284.693925 
L 545.510204 284.693925 
L 545.510204 276.496202 
L 556.897959 276.496202 
L 556.897959 285.45208 
L 568.285714 285.45208 
L 568.285714 300.89142 
L 579.673469 300.89142 
L 579.673469 305.48438 
L 591.061224 305.48438 
L 591.061224 305.48438 
L 602.44898 305.48438 
L 602.44898 291.163968 
L 613.836735 291.163968 
L 613.836735 297.73876 
L 625.22449 297.73876 
L 625.22449 294.798806 
L 636.612245 294.798806 
L 636.612245 296.736583 
L 648 296.736583 
" style="fill:none;stroke:#d62728;stroke-linecap:square;stroke-width:1.5;"/>
   </g>
   <g id="line2d_50">
    <path clip-path="url(#p190f8fab96)" d="M 112.77551 541 
L 112.77551 461.7 
L 124.163265 461.7 
L 124.163265 401.267549 
L 135.55102 401.267549 
L 135.55102 383.59219 
L 146.938776 383.59219 
L 146.938776 376.87233 
L 158.326531 376.87233 
L 158.326531 361.323871 
L 169.714286 361.323871 
L 169.714286 376.87233 
L 181.102041 376.87233 
L 181.102041 383.59219 
L 192.489796 383.59219 
L 192.489796 357.169034 
L 203.877551 357.169034 
L 203.877551 357.169034 
L 215.265306 357.169034 
L 215.265306 383.59219 
L 226.653061 383.59219 
L 226.653061 383.59219 
L 238.040816 383.59219 
L 238.040816 413.808416 
L 249.428571 413.808416 
L 249.428571 376.87233 
L 260.816327 376.87233 
L 260.816327 361.323871 
L 272.204082 361.323871 
L 272.204082 376.87233 
L 283.591837 376.87233 
L 283.591837 401.267549 
L 294.979592 401.267549 
L 294.979592 391.540097 
L 306.367347 391.540097 
L 306.367347 401.267549 
L 317.755102 401.267549 
L 317.755102 383.59219 
L 329.142857 383.59219 
L 329.142857 541 
M 340.530612 541 
L 340.530612 401.267549 
L 351.918367 401.267549 
L 351.918367 413.808416 
L 363.306122 413.808416 
L 363.306122 413.808416 
L 374.693878 413.808416 
L 374.693878 376.87233 
L 386.081633 376.87233 
L 386.081633 461.7 
L 397.469388 461.7 
L 397.469388 541 
M 408.857143 541 
L 408.857143 401.267549 
L 420.244898 401.267549 
L 420.244898 431.483774 
L 431.632653 431.483774 
L 431.632653 431.483774 
L 443.020408 431.483774 
L 443.020408 461.7 
L 454.408163 461.7 
L 454.408163 541 
M 465.795918 541 
L 465.795918 431.483774 
L 477.183673 431.483774 
L 477.183673 461.7 
L 488.571429 461.7 
L 488.571429 413.808416 
L 499.959184 413.808416 
L 499.959184 461.7 
L 511.346939 461.7 
L 511.346939 431.483774 
L 522.734694 431.483774 
L 522.734694 541 
M 534.122449 541 
L 534.122449 461.7 
L 545.510204 461.7 
L 545.510204 431.483774 
L 556.897959 431.483774 
L 556.897959 413.808416 
L 568.285714 413.808416 
L 568.285714 541 
M 579.673469 541 
L 579.673469 461.7 
L 591.061224 461.7 
L 591.061224 461.7 
L 602.44898 461.7 
L 602.44898 461.7 
L 613.836735 461.7 
L 613.836735 431.483774 
L 625.22449 431.483774 
L 625.22449 541 
" style="fill:none;stroke:#9467bd;stroke-linecap:square;stroke-width:1.5;"/>
   </g>
   <g id="line2d_51">
    <path clip-path="url(#p190f8fab96)" d="M 101.387755 541 
L 101.387755 461.7 
L 112.77551 461.7 
L 112.77551 281.089162 
L 124.163265 281.089162 
L 124.163265 212.766504 
L 135.55102 212.766504 
L 135.55102 184.317796 
L 146.938776 184.317796 
L 146.938776 173.933904 
L 158.326531 173.933904 
L 158.326531 165.995869 
L 169.714286 165.995869 
L 169.714286 166.793017 
L 181.102041 166.793017 
L 181.102041 162.991568 
L 192.489796 162.991568 
L 192.489796 163.268936 
L 203.877551 163.268936 
L 203.877551 165.407431 
L 215.265306 165.407431 
L 215.265306 166.793017 
L 226.653061 166.793017 
L 226.653061 167.553818 
L 238.040816 167.553818 
L 238.040816 176.369889 
L 249.428571 176.369889 
L 249.428571 180.026518 
L 260.816327 180.026518 
L 260.816327 183.351505 
L 272.204082 183.351505 
L 272.204082 190.354077 
L 283.591837 190.354077 
L 283.591837 194.328013 
L 294.979592 194.328013 
L 294.979592 196.758565 
L 306.367347 196.758565 
L 306.367347 201.063636 
L 317.755102 201.063636 
L 317.755102 201.174137 
L 329.142857 201.174137 
L 329.142857 209.835965 
L 340.530612 209.835965 
L 340.530612 210.929258 
L 351.918367 210.929258 
L 351.918367 216.219718 
L 363.306122 216.219718 
L 363.306122 213.34775 
L 374.693878 213.34775 
L 374.693878 225.986249 
L 386.081633 225.986249 
L 386.081633 231.61221 
L 397.469388 231.61221 
L 397.469388 230.950028 
L 408.857143 230.950028 
L 408.857143 237.560495 
L 420.244898 237.560495 
L 420.244898 239.917437 
L 431.632653 239.917437 
L 431.632653 241.284094 
L 443.020408 241.284094 
L 443.020408 252.638068 
L 454.408163 252.638068 
L 454.408163 247.224261 
L 465.795918 247.224261 
L 465.795918 257.998313 
L 477.183673 257.998313 
L 477.183673 266.027778 
L 488.571429 266.027778 
L 488.571429 256.792905 
L 499.959184 256.792905 
L 499.959184 269.070371 
L 511.346939 269.070371 
L 511.346939 275.877854 
L 522.734694 275.877854 
L 522.734694 281.089162 
L 534.122449 281.089162 
L 534.122449 285.45208 
L 545.510204 285.45208 
L 545.510204 277.75985 
L 556.897959 277.75985 
L 556.897959 287.809021 
L 568.285714 287.809021 
L 568.285714 300.89142 
L 579.673469 300.89142 
L 579.673469 306.712427 
L 591.061224 306.712427 
L 591.061224 306.712427 
L 602.44898 306.712427 
L 602.44898 292.044661 
L 613.836735 292.044661 
L 613.836735 299.815 
L 625.22449 299.815 
L 625.22449 294.798806 
L 636.612245 294.798806 
L 636.612245 296.736583 
L 648 296.736583 
" style="fill:none;stroke:#8c564b;stroke-linecap:square;stroke-width:1.5;"/>
   </g>
   <g id="line2d_52">
    <path clip-path="url(#p190f8fab96)" d="M 141.387387 480.6 
L 141.387387 64.8 
" style="fill:none;stroke:#1f77b4;stroke-linecap:square;stroke-width:1.5;"/>
   </g>
   <g id="patch_5">
    <path d="M 90 480.6 
L 90 64.8 
" style="fill:none;stroke:#000000;stroke-linecap:square;stroke-linejoin:miter;stroke-width:0.8;"/>
   </g>
   <g id="patch_6">
    <path d="M 648 480.6 
L 648 64.8 
" style="fill:none;stroke:#000000;stroke-linecap:square;stroke-linejoin:miter;stroke-width:0.8;"/>
   </g>
   <g id="patch_7">
    <path d="M 90 480.6 
L 648 480.6 
" style="fill:none;stroke:#000000;stroke-linecap:square;stroke-linejoin:miter;stroke-width:0.8;"/>
   </g>
   <g id="patch_8">
    <path d="M 90 64.8 
L 648 64.8 
" style="fill:none;stroke:#000000;stroke-linecap:square;stroke-linejoin:miter;stroke-width:0.8;"/>
   </g>
   <g id="text_14">
    <g id="patch_9">
     <path d="M 223.625111 109.584125 
L 153.387387 109.584125 
L 153.387387 78.227875 
L 223.625111 78.227875 
L 223.625111 70.388813 
L 247.142298 93.906 
L 223.625111 117.423188 
L 223.625111 109.584125 
z
" style="fill:#ff7f0e;opacity:0.5;stroke:#ff7f0e;stroke-linejoin:miter;"/>
    </g>
    <!-- photon -->
    <defs>
     <path d="M 54.890625 33.015625 
L 54.890625 0 
L 45.90625 0 
L 45.90625 32.71875 
Q 45.90625 40.484375 42.875 44.328125 
Q 39.84375 48.1875 33.796875 48.1875 
Q 26.515625 48.1875 22.3125 43.546875 
Q 18.109375 38.921875 18.109375 30.90625 
L 18.109375 0 
L 9.078125 0 
L 9.078125 75.984375 
L 18.109375 75.984375 
L 18.109375 46.1875 
Q 21.34375 51.125 25.703125 53.5625 
Q 30.078125 56 35.796875 56 
Q 45.21875 56 50.046875 50.171875 
Q 54.890625 44.34375 54.890625 33.015625 
z
" id="DejaVuSans-104"/>
    </defs>
    <g transform="translate(159.387387 99.42475)scale(0.2 -0.2)">
     <use xlink:href="#DejaVuSans-112"/>
     <use x="63.476562" xlink:href="#DejaVuSans-104"/>
     <use x="126.855469" xlink:href="#DejaVuSans-111"/>
     <use x="188.037109" xlink:href="#DejaVuSans-116"/>
     <use x="227.246094" xlink:href="#DejaVuSans-111"/>
     <use x="288.427734" xlink:href="#DejaVuSans-110"/>
    </g>
   </g>
   <g id="text_15">
    <g id="patch_10">
     <path d="M 47.377789 109.584125 
L 129.387387 109.584125 
L 129.387387 78.227875 
L 47.377789 78.227875 
L 47.377789 70.388813 
L 23.860602 93.906 
L 47.377789 117.423188 
L 47.377789 109.584125 
z
" style="fill:#1f77b4;opacity:0.5;stroke:#1f77b4;stroke-linejoin:miter;"/>
    </g>
    <!-- electron -->
    <g transform="translate(41.253012 99.42475)scale(0.2 -0.2)">
     <use xlink:href="#DejaVuSans-101"/>
     <use x="61.523438" xlink:href="#DejaVuSans-108"/>
     <use x="89.306641" xlink:href="#DejaVuSans-101"/>
     <use x="150.830078" xlink:href="#DejaVuSans-99"/>
     <use x="205.810547" xlink:href="#DejaVuSans-116"/>
     <use x="245.019531" xlink:href="#DejaVuSans-114"/>
     <use x="286.101562" xlink:href="#DejaVuSans-111"/>
     <use x="347.283203" xlink:href="#DejaVuSans-110"/>
    </g>
   </g>
   <g id="legend_1">
    <g id="patch_11">
     <path d="M 411.623438 239.72625 
L 635.4 239.72625 
Q 639 239.72625 639 236.12625 
L 639 77.4 
Q 639 73.8 635.4 73.8 
L 411.623438 73.8 
Q 408.023438 73.8 408.023438 77.4 
L 408.023438 236.12625 
Q 408.023438 239.72625 411.623438 239.72625 
z
" style="fill:#ffffff;opacity:0.5;stroke:#cccccc;stroke-linejoin:miter;"/>
    </g>
    <g id="line2d_53">
     <path d="M 415.223437 88.377188 
L 451.223437 88.377188 
" style="fill:none;stroke:#1f77b4;stroke-linecap:square;stroke-width:1.5;"/>
    </g>
    <g id="line2d_54"/>
    <g id="text_16">
     <!-- Electrons -->
     <defs>
      <path d="M 9.8125 72.90625 
L 55.90625 72.90625 
L 55.90625 64.59375 
L 19.671875 64.59375 
L 19.671875 43.015625 
L 54.390625 43.015625 
L 54.390625 34.71875 
L 19.671875 34.71875 
L 19.671875 8.296875 
L 56.78125 8.296875 
L 56.78125 0 
L 9.8125 0 
z
" id="DejaVuSans-69"/>
      <path d="M 44.28125 53.078125 
L 44.28125 44.578125 
Q 40.484375 46.53125 36.375 47.5 
Q 32.28125 48.484375 27.875 48.484375 
Q 21.1875 48.484375 17.84375 46.4375 
Q 14.5 44.390625 14.5 40.28125 
Q 14.5 37.15625 16.890625 35.375 
Q 19.28125 33.59375 26.515625 31.984375 
L 29.59375 31.296875 
Q 39.15625 29.25 43.1875 25.515625 
Q 47.21875 21.78125 47.21875 15.09375 
Q 47.21875 7.46875 41.1875 3.015625 
Q 35.15625 -1.421875 24.609375 -1.421875 
Q 20.21875 -1.421875 15.453125 -0.5625 
Q 10.6875 0.296875 5.421875 2 
L 5.421875 11.28125 
Q 10.40625 8.6875 15.234375 7.390625 
Q 20.0625 6.109375 24.8125 6.109375 
Q 31.15625 6.109375 34.5625 8.28125 
Q 37.984375 10.453125 37.984375 14.40625 
Q 37.984375 18.0625 35.515625 20.015625 
Q 33.0625 21.96875 24.703125 23.78125 
L 21.578125 24.515625 
Q 13.234375 26.265625 9.515625 29.90625 
Q 5.8125 33.546875 5.8125 39.890625 
Q 5.8125 47.609375 11.28125 51.796875 
Q 16.75 56 26.8125 56 
Q 31.78125 56 36.171875 55.265625 
Q 40.578125 54.546875 44.28125 53.078125 
z
" id="DejaVuSans-115"/>
     </defs>
     <g transform="translate(465.623437 94.677188)scale(0.18 -0.18)">
      <use xlink:href="#DejaVuSans-69"/>
      <use x="63.183594" xlink:href="#DejaVuSans-108"/>
      <use x="90.966797" xlink:href="#DejaVuSans-101"/>
      <use x="152.490234" xlink:href="#DejaVuSans-99"/>
      <use x="207.470703" xlink:href="#DejaVuSans-116"/>
      <use x="246.679688" xlink:href="#DejaVuSans-114"/>
      <use x="287.761719" xlink:href="#DejaVuSans-111"/>
      <use x="348.943359" xlink:href="#DejaVuSans-110"/>
      <use x="412.322266" xlink:href="#DejaVuSans-115"/>
     </g>
    </g>
    <g id="line2d_55">
     <path d="M 415.223437 114.797813 
L 451.223437 114.797813 
" style="fill:none;stroke:#ff7f0e;stroke-linecap:square;stroke-width:1.5;"/>
    </g>
    <g id="line2d_56"/>
    <g id="text_17">
     <!-- Electrons (Nu_e) -->
     <defs>
      <path id="DejaVuSans-32"/>
      <path d="M 31 75.875 
Q 24.46875 64.65625 21.28125 53.65625 
Q 18.109375 42.671875 18.109375 31.390625 
Q 18.109375 20.125 21.3125 9.0625 
Q 24.515625 -2 31 -13.1875 
L 23.1875 -13.1875 
Q 15.875 -1.703125 12.234375 9.375 
Q 8.59375 20.453125 8.59375 31.390625 
Q 8.59375 42.28125 12.203125 53.3125 
Q 15.828125 64.359375 23.1875 75.875 
z
" id="DejaVuSans-40"/>
      <path d="M 9.8125 72.90625 
L 23.09375 72.90625 
L 55.421875 11.921875 
L 55.421875 72.90625 
L 64.984375 72.90625 
L 64.984375 0 
L 51.703125 0 
L 19.390625 60.984375 
L 19.390625 0 
L 9.8125 0 
z
" id="DejaVuSans-78"/>
      <path d="M 50.984375 -16.609375 
L 50.984375 -23.578125 
L -0.984375 -23.578125 
L -0.984375 -16.609375 
z
" id="DejaVuSans-95"/>
      <path d="M 8.015625 75.875 
L 15.828125 75.875 
Q 23.140625 64.359375 26.78125 53.3125 
Q 30.421875 42.28125 30.421875 31.390625 
Q 30.421875 20.453125 26.78125 9.375 
Q 23.140625 -1.703125 15.828125 -13.1875 
L 8.015625 -13.1875 
Q 14.5 -2 17.703125 9.0625 
Q 20.90625 20.125 20.90625 31.390625 
Q 20.90625 42.671875 17.703125 53.65625 
Q 14.5 64.65625 8.015625 75.875 
z
" id="DejaVuSans-41"/>
     </defs>
     <g transform="translate(465.623437 121.097813)scale(0.18 -0.18)">
      <use xlink:href="#DejaVuSans-69"/>
      <use x="63.183594" xlink:href="#DejaVuSans-108"/>
      <use x="90.966797" xlink:href="#DejaVuSans-101"/>
      <use x="152.490234" xlink:href="#DejaVuSans-99"/>
      <use x="207.470703" xlink:href="#DejaVuSans-116"/>
      <use x="246.679688" xlink:href="#DejaVuSans-114"/>
      <use x="287.761719" xlink:href="#DejaVuSans-111"/>
      <use x="348.943359" xlink:href="#DejaVuSans-110"/>
      <use x="412.322266" xlink:href="#DejaVuSans-115"/>
      <use x="464.421875" xlink:href="#DejaVuSans-32"/>
      <use x="496.208984" xlink:href="#DejaVuSans-40"/>
      <use x="535.222656" xlink:href="#DejaVuSans-78"/>
      <use x="610.027344" xlink:href="#DejaVuSans-117"/>
      <use x="673.40625" xlink:href="#DejaVuSans-95"/>
      <use x="723.40625" xlink:href="#DejaVuSans-101"/>
      <use x="784.929688" xlink:href="#DejaVuSans-41"/>
     </g>
    </g>
    <g id="line2d_57">
     <path d="M 415.223437 141.719063 
L 451.223437 141.719063 
" style="fill:none;stroke:#2ca02c;stroke-linecap:square;stroke-width:1.5;"/>
    </g>
    <g id="line2d_58"/>
    <g id="text_18">
     <!-- Electrons (Nu_mu) -->
     <g transform="translate(465.623437 148.019063)scale(0.18 -0.18)">
      <use xlink:href="#DejaVuSans-69"/>
      <use x="63.183594" xlink:href="#DejaVuSans-108"/>
      <use x="90.966797" xlink:href="#DejaVuSans-101"/>
      <use x="152.490234" xlink:href="#DejaVuSans-99"/>
      <use x="207.470703" xlink:href="#DejaVuSans-116"/>
      <use x="246.679688" xlink:href="#DejaVuSans-114"/>
      <use x="287.761719" xlink:href="#DejaVuSans-111"/>
      <use x="348.943359" xlink:href="#DejaVuSans-110"/>
      <use x="412.322266" xlink:href="#DejaVuSans-115"/>
      <use x="464.421875" xlink:href="#DejaVuSans-32"/>
      <use x="496.208984" xlink:href="#DejaVuSans-40"/>
      <use x="535.222656" xlink:href="#DejaVuSans-78"/>
      <use x="610.027344" xlink:href="#DejaVuSans-117"/>
      <use x="673.40625" xlink:href="#DejaVuSans-95"/>
      <use x="723.40625" xlink:href="#DejaVuSans-109"/>
      <use x="820.818359" xlink:href="#DejaVuSans-117"/>
      <use x="884.197266" xlink:href="#DejaVuSans-41"/>
     </g>
    </g>
    <g id="line2d_59">
     <path d="M 415.223437 168.640312 
L 451.223437 168.640312 
" style="fill:none;stroke:#d62728;stroke-linecap:square;stroke-width:1.5;"/>
    </g>
    <g id="line2d_60"/>
    <g id="text_19">
     <!-- Photons -->
     <g transform="translate(465.623437 174.940313)scale(0.18 -0.18)">
      <use xlink:href="#DejaVuSans-80"/>
      <use x="60.302734" xlink:href="#DejaVuSans-104"/>
      <use x="123.681641" xlink:href="#DejaVuSans-111"/>
      <use x="184.863281" xlink:href="#DejaVuSans-116"/>
      <use x="224.072266" xlink:href="#DejaVuSans-111"/>
      <use x="285.253906" xlink:href="#DejaVuSans-110"/>
      <use x="348.632812" xlink:href="#DejaVuSans-115"/>
     </g>
    </g>
    <g id="line2d_61">
     <path d="M 415.223437 195.060937 
L 451.223437 195.060937 
" style="fill:none;stroke:#9467bd;stroke-linecap:square;stroke-width:1.5;"/>
    </g>
    <g id="line2d_62"/>
    <g id="text_20">
     <!-- Photons (Nu_e) -->
     <g transform="translate(465.623437 201.360937)scale(0.18 -0.18)">
      <use xlink:href="#DejaVuSans-80"/>
      <use x="60.302734" xlink:href="#DejaVuSans-104"/>
      <use x="123.681641" xlink:href="#DejaVuSans-111"/>
      <use x="184.863281" xlink:href="#DejaVuSans-116"/>
      <use x="224.072266" xlink:href="#DejaVuSans-111"/>
      <use x="285.253906" xlink:href="#DejaVuSans-110"/>
      <use x="348.632812" xlink:href="#DejaVuSans-115"/>
      <use x="400.732422" xlink:href="#DejaVuSans-32"/>
      <use x="432.519531" xlink:href="#DejaVuSans-40"/>
      <use x="471.533203" xlink:href="#DejaVuSans-78"/>
      <use x="546.337891" xlink:href="#DejaVuSans-117"/>
      <use x="609.716797" xlink:href="#DejaVuSans-95"/>
      <use x="659.716797" xlink:href="#DejaVuSans-101"/>
      <use x="721.240234" xlink:href="#DejaVuSans-41"/>
     </g>
    </g>
    <g id="line2d_63">
     <path d="M 415.223437 221.982188 
L 451.223437 221.982188 
" style="fill:none;stroke:#8c564b;stroke-linecap:square;stroke-width:1.5;"/>
    </g>
    <g id="line2d_64"/>
    <g id="text_21">
     <!-- Photons (Nu_mu) -->
     <g transform="translate(465.623437 228.282188)scale(0.18 -0.18)">
      <use xlink:href="#DejaVuSans-80"/>
      <use x="60.302734" xlink:href="#DejaVuSans-104"/>
      <use x="123.681641" xlink:href="#DejaVuSans-111"/>
      <use x="184.863281" xlink:href="#DejaVuSans-116"/>
      <use x="224.072266" xlink:href="#DejaVuSans-111"/>
      <use x="285.253906" xlink:href="#DejaVuSans-110"/>
      <use x="348.632812" xlink:href="#DejaVuSans-115"/>
      <use x="400.732422" xlink:href="#DejaVuSans-32"/>
      <use x="432.519531" xlink:href="#DejaVuSans-40"/>
      <use x="471.533203" xlink:href="#DejaVuSans-78"/>
      <use x="546.337891" xlink:href="#DejaVuSans-117"/>
      <use x="609.716797" xlink:href="#DejaVuSans-95"/>
      <use x="659.716797" xlink:href="#DejaVuSans-109"/>
      <use x="757.128906" xlink:href="#DejaVuSans-117"/>
      <use x="820.507812" xlink:href="#DejaVuSans-41"/>
     </g>
    </g>
   </g>
  </g>
 </g>
 <defs>
  <clipPath id="p190f8fab96">
   <rect height="415.8" width="558" x="90" y="64.8"/>
  </clipPath>
 </defs>
</svg>
