<?xml version="1.0" encoding="utf-8" standalone="no"?>
<!DOCTYPE svg PUBLIC "-//W3C//DTD SVG 1.1//EN"
  "http://www.w3.org/Graphics/SVG/1.1/DTD/svg11.dtd">
<!-- Created with matplotlib (https://matplotlib.org/) -->
<svg height="540pt" version="1.1" viewBox="0 0 720 540" width="720pt" xmlns="http://www.w3.org/2000/svg" xmlns:xlink="http://www.w3.org/1999/xlink">
 <defs>
  <style type="text/css">
*{stroke-linecap:butt;stroke-linejoin:round;}
  </style>
 </defs>
 <g id="figure_1">
  <g id="patch_1">
   <path d="M 0 540 
L 720 540 
L 720 0 
L 0 0 
z
" style="fill:#ffffff;"/>
  </g>
  <g id="axes_1">
   <g id="patch_2">
    <path d="M 90 480.6 
L 648 480.6 
L 648 64.8 
L 90 64.8 
z
" style="fill:#ffffff;"/>
   </g>
   <g id="patch_3">
    <path clip-path="url(#pc6d385f49a)" d="M 90 94337.638437 
L 90 94337.638437 
L 101.387755 94337.638437 
L 101.387755 94337.638437 
L 112.77551 94337.638437 
L 112.77551 94337.638437 
L 124.163265 94337.638437 
L 124.163265 94337.638437 
L 135.55102 94337.638437 
L 135.55102 94337.638437 
L 146.938776 94337.638437 
L 146.938776 94337.638437 
L 158.326531 94337.638437 
L 158.326531 94337.638437 
L 169.714286 94337.638437 
L 169.714286 94337.638437 
L 181.102041 94337.638437 
L 181.102041 358.850288 
L 192.489796 358.850288 
L 192.489796 94337.638437 
L 203.877551 94337.638437 
L 203.877551 358.850288 
L 215.265306 358.850288 
L 215.265306 94337.638437 
L 226.653061 94337.638437 
L 226.653061 313.870515 
L 238.040816 313.870515 
L 238.040816 94337.638437 
L 249.428571 94337.638437 
L 249.428571 358.850288 
L 260.816327 358.850288 
L 260.816327 94337.638437 
L 272.204082 94337.638437 
L 272.204082 330.471211 
L 283.591837 330.471211 
L 283.591837 330.471211 
L 294.979592 330.471211 
L 294.979592 292.956111 
L 306.367347 292.956111 
L 306.367347 292.956111 
L 317.755102 292.956111 
L 317.755102 273.713057 
L 329.142857 273.713057 
L 329.142857 292.956111 
L 340.530612 292.956111 
L 340.530612 273.713057 
L 351.918367 273.713057 
L 351.918367 257.112361 
L 363.306122 257.112361 
L 363.306122 253.835224 
L 374.693878 253.835224 
L 374.693878 279.180146 
L 386.081633 279.180146 
L 386.081633 257.112361 
L 397.469388 257.112361 
L 397.469388 264.577034 
L 408.857143 264.577034 
L 408.857143 253.835224 
L 420.244898 253.835224 
L 420.244898 250.801069 
L 431.632653 250.801069 
L 431.632653 257.112361 
L 443.020408 257.112361 
L 443.020408 240.511665 
L 454.408163 240.511665 
L 454.408163 279.180146 
L 465.795918 279.180146 
L 465.795918 273.713057 
L 477.183673 273.713057 
L 477.183673 257.112361 
L 488.571429 257.112361 
L 488.571429 236.197958 
L 499.959184 236.197958 
L 499.959184 257.112361 
L 511.346939 257.112361 
L 511.346939 245.33398 
L 522.734694 245.33398 
L 522.734694 247.976339 
L 534.122449 247.976339 
L 534.122449 247.976339 
L 545.510204 247.976339 
L 545.510204 268.890742 
L 556.897959 268.890742 
L 556.897959 245.33398 
L 568.285714 245.33398 
L 568.285714 220.985271 
L 579.673469 220.985271 
L 579.673469 218.254769 
L 591.061224 218.254769 
L 591.061224 203.916658 
L 602.44898 203.916658 
L 602.44898 177.44222 
L 613.836735 177.44222 
L 613.836735 173.717621 
L 625.22449 173.717621 
L 625.22449 167.918115 
L 636.612245 167.918115 
L 636.612245 92.980722 
L 648 92.980722 
L 648 94337.638437 
z
" style="fill:#1f77b4;opacity:0.2;"/>
   </g>
   <g id="patch_4">
    <path clip-path="url(#pc6d385f49a)" d="M 90 94337.638437 
L 90 337.050086 
L 101.387755 337.050086 
L 101.387755 416.720227 
L 112.77551 416.720227 
L 112.77551 461.7 
L 124.163265 461.7 
L 124.163265 461.7 
L 135.55102 461.7 
L 135.55102 461.7 
L 146.938776 461.7 
L 146.938776 382.029859 
L 158.326531 382.029859 
L 158.326531 94337.638437 
L 169.714286 94337.638437 
L 169.714286 395.805824 
L 181.102041 395.805824 
L 181.102041 388.34115 
L 192.489796 388.34115 
L 192.489796 371.740454 
L 203.877551 371.740454 
L 203.877551 371.740454 
L 215.265306 371.740454 
L 215.265306 348.183692 
L 226.653061 348.183692 
L 226.653061 348.183692 
L 238.040816 348.183692 
L 238.040816 356.684937 
L 249.428571 356.684937 
L 249.428571 333.325487 
L 260.816327 333.325487 
L 260.816327 326.760682 
L 272.204082 326.760682 
L 272.204082 337.050086 
L 283.591837 337.050086 
L 283.591837 318.544751 
L 294.979592 318.544751 
L 294.979592 312.768661 
L 306.367347 312.768661 
L 306.367347 300.721805 
L 317.755102 300.721805 
L 317.755102 294.75602 
L 329.142857 294.75602 
L 329.142857 296.167965 
L 340.530612 296.167965 
L 340.530612 290.165674 
L 351.918367 290.165674 
L 351.918367 287.756606 
L 363.306122 287.756606 
L 363.306122 279.328538 
L 374.693878 279.328538 
L 374.693878 272.342728 
L 386.081633 272.342728 
L 386.081633 275.686819 
L 397.469388 275.686819 
L 397.469388 270.002528 
L 408.857143 270.002528 
L 408.857143 271.547706 
L 420.244898 271.547706 
L 420.244898 266.725391 
L 431.632653 266.725391 
L 431.632653 268.880749 
L 443.020408 268.880749 
L 443.020408 268.880749 
L 454.408163 268.880749 
L 454.408163 264.017472 
L 465.795918 264.017472 
L 465.795918 266.725391 
L 477.183673 266.725391 
L 477.183673 264.346328 
L 488.571429 264.346328 
L 488.571429 267.07683 
L 499.959184 267.07683 
L 499.959184 262.411683 
L 511.346939 262.411683 
L 511.346939 262.097947 
L 522.734694 262.097947 
L 522.734694 253.910439 
L 534.122449 253.910439 
L 534.122449 251.669873 
L 545.510204 251.669873 
L 545.510204 251.912855 
L 556.897959 251.912855 
L 556.897959 248.635718 
L 568.285714 248.635718 
L 568.285714 236.29877 
L 579.673469 236.29877 
L 579.673469 236.132675 
L 591.061224 236.132675 
L 591.061224 219.037699 
L 602.44898 219.037699 
L 602.44898 209.187359 
L 613.836735 209.187359 
L 613.836735 192.50092 
L 625.22449 192.50092 
L 625.22449 168.359485 
L 636.612245 168.359485 
L 636.612245 83.7 
L 648 83.7 
L 648 94337.638437 
z
" style="fill:#ff7f0e;opacity:0.2;"/>
   </g>
   <g id="matplotlib.axis_1">
    <g id="xtick_1">
     <g id="line2d_1">
      <defs>
       <path d="M 0 0 
L 0 3.5 
" id="m1e8f171e56" style="stroke:#000000;stroke-width:0.8;"/>
      </defs>
      <g>
       <use style="stroke:#000000;stroke-width:0.8;" x="90" xlink:href="#m1e8f171e56" y="480.6"/>
      </g>
     </g>
     <g id="text_1">
      <!-- 0.0 -->
      <defs>
       <path d="M 31.78125 66.40625 
Q 24.171875 66.40625 20.328125 58.90625 
Q 16.5 51.421875 16.5 36.375 
Q 16.5 21.390625 20.328125 13.890625 
Q 24.171875 6.390625 31.78125 6.390625 
Q 39.453125 6.390625 43.28125 13.890625 
Q 47.125 21.390625 47.125 36.375 
Q 47.125 51.421875 43.28125 58.90625 
Q 39.453125 66.40625 31.78125 66.40625 
z
M 31.78125 74.21875 
Q 44.046875 74.21875 50.515625 64.515625 
Q 56.984375 54.828125 56.984375 36.375 
Q 56.984375 17.96875 50.515625 8.265625 
Q 44.046875 -1.421875 31.78125 -1.421875 
Q 19.53125 -1.421875 13.0625 8.265625 
Q 6.59375 17.96875 6.59375 36.375 
Q 6.59375 54.828125 13.0625 64.515625 
Q 19.53125 74.21875 31.78125 74.21875 
z
" id="DejaVuSans-48"/>
       <path d="M 10.6875 12.40625 
L 21 12.40625 
L 21 0 
L 10.6875 0 
z
" id="DejaVuSans-46"/>
      </defs>
      <g transform="translate(69.38955 507.29515)scale(0.2592 -0.2592)">
       <use xlink:href="#DejaVuSans-48"/>
       <use x="63.623047" xlink:href="#DejaVuSans-46"/>
       <use x="95.410156" xlink:href="#DejaVuSans-48"/>
      </g>
     </g>
    </g>
    <g id="xtick_2">
     <g id="line2d_2">
      <g>
       <use style="stroke:#000000;stroke-width:0.8;" x="201.6" xlink:href="#m1e8f171e56" y="480.6"/>
      </g>
     </g>
     <g id="text_2">
      <!-- 0.2 -->
      <defs>
       <path d="M 19.1875 8.296875 
L 53.609375 8.296875 
L 53.609375 0 
L 7.328125 0 
L 7.328125 8.296875 
Q 12.9375 14.109375 22.625 23.890625 
Q 32.328125 33.6875 34.8125 36.53125 
Q 39.546875 41.84375 41.421875 45.53125 
Q 43.3125 49.21875 43.3125 52.78125 
Q 43.3125 58.59375 39.234375 62.25 
Q 35.15625 65.921875 28.609375 65.921875 
Q 23.96875 65.921875 18.8125 64.3125 
Q 13.671875 62.703125 7.8125 59.421875 
L 7.8125 69.390625 
Q 13.765625 71.78125 18.9375 73 
Q 24.125 74.21875 28.421875 74.21875 
Q 39.75 74.21875 46.484375 68.546875 
Q 53.21875 62.890625 53.21875 53.421875 
Q 53.21875 48.921875 51.53125 44.890625 
Q 49.859375 40.875 45.40625 35.40625 
Q 44.1875 33.984375 37.640625 27.21875 
Q 31.109375 20.453125 19.1875 8.296875 
z
" id="DejaVuSans-50"/>
      </defs>
      <g transform="translate(180.98955 507.29515)scale(0.2592 -0.2592)">
       <use xlink:href="#DejaVuSans-48"/>
       <use x="63.623047" xlink:href="#DejaVuSans-46"/>
       <use x="95.410156" xlink:href="#DejaVuSans-50"/>
      </g>
     </g>
    </g>
    <g id="xtick_3">
     <g id="line2d_3">
      <g>
       <use style="stroke:#000000;stroke-width:0.8;" x="313.2" xlink:href="#m1e8f171e56" y="480.6"/>
      </g>
     </g>
     <g id="text_3">
      <!-- 0.4 -->
      <defs>
       <path d="M 37.796875 64.3125 
L 12.890625 25.390625 
L 37.796875 25.390625 
z
M 35.203125 72.90625 
L 47.609375 72.90625 
L 47.609375 25.390625 
L 58.015625 25.390625 
L 58.015625 17.1875 
L 47.609375 17.1875 
L 47.609375 0 
L 37.796875 0 
L 37.796875 17.1875 
L 4.890625 17.1875 
L 4.890625 26.703125 
z
" id="DejaVuSans-52"/>
      </defs>
      <g transform="translate(292.58955 507.29515)scale(0.2592 -0.2592)">
       <use xlink:href="#DejaVuSans-48"/>
       <use x="63.623047" xlink:href="#DejaVuSans-46"/>
       <use x="95.410156" xlink:href="#DejaVuSans-52"/>
      </g>
     </g>
    </g>
    <g id="xtick_4">
     <g id="line2d_4">
      <g>
       <use style="stroke:#000000;stroke-width:0.8;" x="424.8" xlink:href="#m1e8f171e56" y="480.6"/>
      </g>
     </g>
     <g id="text_4">
      <!-- 0.6 -->
      <defs>
       <path d="M 33.015625 40.375 
Q 26.375 40.375 22.484375 35.828125 
Q 18.609375 31.296875 18.609375 23.390625 
Q 18.609375 15.53125 22.484375 10.953125 
Q 26.375 6.390625 33.015625 6.390625 
Q 39.65625 6.390625 43.53125 10.953125 
Q 47.40625 15.53125 47.40625 23.390625 
Q 47.40625 31.296875 43.53125 35.828125 
Q 39.65625 40.375 33.015625 40.375 
z
M 52.59375 71.296875 
L 52.59375 62.3125 
Q 48.875 64.0625 45.09375 64.984375 
Q 41.3125 65.921875 37.59375 65.921875 
Q 27.828125 65.921875 22.671875 59.328125 
Q 17.53125 52.734375 16.796875 39.40625 
Q 19.671875 43.65625 24.015625 45.921875 
Q 28.375 48.1875 33.59375 48.1875 
Q 44.578125 48.1875 50.953125 41.515625 
Q 57.328125 34.859375 57.328125 23.390625 
Q 57.328125 12.15625 50.6875 5.359375 
Q 44.046875 -1.421875 33.015625 -1.421875 
Q 20.359375 -1.421875 13.671875 8.265625 
Q 6.984375 17.96875 6.984375 36.375 
Q 6.984375 53.65625 15.1875 63.9375 
Q 23.390625 74.21875 37.203125 74.21875 
Q 40.921875 74.21875 44.703125 73.484375 
Q 48.484375 72.75 52.59375 71.296875 
z
" id="DejaVuSans-54"/>
      </defs>
      <g transform="translate(404.18955 507.29515)scale(0.2592 -0.2592)">
       <use xlink:href="#DejaVuSans-48"/>
       <use x="63.623047" xlink:href="#DejaVuSans-46"/>
       <use x="95.410156" xlink:href="#DejaVuSans-54"/>
      </g>
     </g>
    </g>
    <g id="xtick_5">
     <g id="line2d_5">
      <g>
       <use style="stroke:#000000;stroke-width:0.8;" x="536.4" xlink:href="#m1e8f171e56" y="480.6"/>
      </g>
     </g>
     <g id="text_5">
      <!-- 0.8 -->
      <defs>
       <path d="M 31.78125 34.625 
Q 24.75 34.625 20.71875 30.859375 
Q 16.703125 27.09375 16.703125 20.515625 
Q 16.703125 13.921875 20.71875 10.15625 
Q 24.75 6.390625 31.78125 6.390625 
Q 38.8125 6.390625 42.859375 10.171875 
Q 46.921875 13.96875 46.921875 20.515625 
Q 46.921875 27.09375 42.890625 30.859375 
Q 38.875 34.625 31.78125 34.625 
z
M 21.921875 38.8125 
Q 15.578125 40.375 12.03125 44.71875 
Q 8.5 49.078125 8.5 55.328125 
Q 8.5 64.0625 14.71875 69.140625 
Q 20.953125 74.21875 31.78125 74.21875 
Q 42.671875 74.21875 48.875 69.140625 
Q 55.078125 64.0625 55.078125 55.328125 
Q 55.078125 49.078125 51.53125 44.71875 
Q 48 40.375 41.703125 38.8125 
Q 48.828125 37.15625 52.796875 32.3125 
Q 56.78125 27.484375 56.78125 20.515625 
Q 56.78125 9.90625 50.3125 4.234375 
Q 43.84375 -1.421875 31.78125 -1.421875 
Q 19.734375 -1.421875 13.25 4.234375 
Q 6.78125 9.90625 6.78125 20.515625 
Q 6.78125 27.484375 10.78125 32.3125 
Q 14.796875 37.15625 21.921875 38.8125 
z
M 18.3125 54.390625 
Q 18.3125 48.734375 21.84375 45.5625 
Q 25.390625 42.390625 31.78125 42.390625 
Q 38.140625 42.390625 41.71875 45.5625 
Q 45.3125 48.734375 45.3125 54.390625 
Q 45.3125 60.0625 41.71875 63.234375 
Q 38.140625 66.40625 31.78125 66.40625 
Q 25.390625 66.40625 21.84375 63.234375 
Q 18.3125 60.0625 18.3125 54.390625 
z
" id="DejaVuSans-56"/>
      </defs>
      <g transform="translate(515.78955 507.29515)scale(0.2592 -0.2592)">
       <use xlink:href="#DejaVuSans-48"/>
       <use x="63.623047" xlink:href="#DejaVuSans-46"/>
       <use x="95.410156" xlink:href="#DejaVuSans-56"/>
      </g>
     </g>
    </g>
    <g id="xtick_6">
     <g id="line2d_6">
      <g>
       <use style="stroke:#000000;stroke-width:0.8;" x="648" xlink:href="#m1e8f171e56" y="480.6"/>
      </g>
     </g>
     <g id="text_6">
      <!-- 1.0 -->
      <defs>
       <path d="M 12.40625 8.296875 
L 28.515625 8.296875 
L 28.515625 63.921875 
L 10.984375 60.40625 
L 10.984375 69.390625 
L 28.421875 72.90625 
L 38.28125 72.90625 
L 38.28125 8.296875 
L 54.390625 8.296875 
L 54.390625 0 
L 12.40625 0 
z
" id="DejaVuSans-49"/>
      </defs>
      <g transform="translate(627.38955 507.29515)scale(0.2592 -0.2592)">
       <use xlink:href="#DejaVuSans-49"/>
       <use x="63.623047" xlink:href="#DejaVuSans-46"/>
       <use x="95.410156" xlink:href="#DejaVuSans-48"/>
      </g>
     </g>
    </g>
    <g id="text_7">
     <!-- purityW -->
     <defs>
      <path d="M 18.109375 8.203125 
L 18.109375 -20.796875 
L 9.078125 -20.796875 
L 9.078125 54.6875 
L 18.109375 54.6875 
L 18.109375 46.390625 
Q 20.953125 51.265625 25.265625 53.625 
Q 29.59375 56 35.59375 56 
Q 45.5625 56 51.78125 48.09375 
Q 58.015625 40.1875 58.015625 27.296875 
Q 58.015625 14.40625 51.78125 6.484375 
Q 45.5625 -1.421875 35.59375 -1.421875 
Q 29.59375 -1.421875 25.265625 0.953125 
Q 20.953125 3.328125 18.109375 8.203125 
z
M 48.6875 27.296875 
Q 48.6875 37.203125 44.609375 42.84375 
Q 40.53125 48.484375 33.40625 48.484375 
Q 26.265625 48.484375 22.1875 42.84375 
Q 18.109375 37.203125 18.109375 27.296875 
Q 18.109375 17.390625 22.1875 11.75 
Q 26.265625 6.109375 33.40625 6.109375 
Q 40.53125 6.109375 44.609375 11.75 
Q 48.6875 17.390625 48.6875 27.296875 
z
" id="DejaVuSans-112"/>
      <path d="M 8.5 21.578125 
L 8.5 54.6875 
L 17.484375 54.6875 
L 17.484375 21.921875 
Q 17.484375 14.15625 20.5 10.265625 
Q 23.53125 6.390625 29.59375 6.390625 
Q 36.859375 6.390625 41.078125 11.03125 
Q 45.3125 15.671875 45.3125 23.6875 
L 45.3125 54.6875 
L 54.296875 54.6875 
L 54.296875 0 
L 45.3125 0 
L 45.3125 8.40625 
Q 42.046875 3.421875 37.71875 1 
Q 33.40625 -1.421875 27.6875 -1.421875 
Q 18.265625 -1.421875 13.375 4.4375 
Q 8.5 10.296875 8.5 21.578125 
z
M 31.109375 56 
z
" id="DejaVuSans-117"/>
      <path d="M 41.109375 46.296875 
Q 39.59375 47.171875 37.8125 47.578125 
Q 36.03125 48 33.890625 48 
Q 26.265625 48 22.1875 43.046875 
Q 18.109375 38.09375 18.109375 28.8125 
L 18.109375 0 
L 9.078125 0 
L 9.078125 54.6875 
L 18.109375 54.6875 
L 18.109375 46.1875 
Q 20.953125 51.171875 25.484375 53.578125 
Q 30.03125 56 36.53125 56 
Q 37.453125 56 38.578125 55.875 
Q 39.703125 55.765625 41.0625 55.515625 
z
" id="DejaVuSans-114"/>
      <path d="M 9.421875 54.6875 
L 18.40625 54.6875 
L 18.40625 0 
L 9.421875 0 
z
M 9.421875 75.984375 
L 18.40625 75.984375 
L 18.40625 64.59375 
L 9.421875 64.59375 
z
" id="DejaVuSans-105"/>
      <path d="M 18.3125 70.21875 
L 18.3125 54.6875 
L 36.8125 54.6875 
L 36.8125 47.703125 
L 18.3125 47.703125 
L 18.3125 18.015625 
Q 18.3125 11.328125 20.140625 9.421875 
Q 21.96875 7.515625 27.59375 7.515625 
L 36.8125 7.515625 
L 36.8125 0 
L 27.59375 0 
Q 17.1875 0 13.234375 3.875 
Q 9.28125 7.765625 9.28125 18.015625 
L 9.28125 47.703125 
L 2.6875 47.703125 
L 2.6875 54.6875 
L 9.28125 54.6875 
L 9.28125 70.21875 
z
" id="DejaVuSans-116"/>
      <path d="M 32.171875 -5.078125 
Q 28.375 -14.84375 24.75 -17.8125 
Q 21.140625 -20.796875 15.09375 -20.796875 
L 7.90625 -20.796875 
L 7.90625 -13.28125 
L 13.1875 -13.28125 
Q 16.890625 -13.28125 18.9375 -11.515625 
Q 21 -9.765625 23.484375 -3.21875 
L 25.09375 0.875 
L 2.984375 54.6875 
L 12.5 54.6875 
L 29.59375 11.921875 
L 46.6875 54.6875 
L 56.203125 54.6875 
z
" id="DejaVuSans-121"/>
      <path d="M 3.328125 72.90625 
L 13.28125 72.90625 
L 28.609375 11.28125 
L 43.890625 72.90625 
L 54.984375 72.90625 
L 70.3125 11.28125 
L 85.59375 72.90625 
L 95.609375 72.90625 
L 77.296875 0 
L 64.890625 0 
L 49.515625 63.28125 
L 33.984375 0 
L 21.578125 0 
z
" id="DejaVuSans-87"/>
     </defs>
     <g transform="translate(318.065175 536.38085)scale(0.2592 -0.2592)">
      <use xlink:href="#DejaVuSans-112"/>
      <use x="63.476562" xlink:href="#DejaVuSans-117"/>
      <use x="126.855469" xlink:href="#DejaVuSans-114"/>
      <use x="167.96875" xlink:href="#DejaVuSans-105"/>
      <use x="195.751953" xlink:href="#DejaVuSans-116"/>
      <use x="234.960938" xlink:href="#DejaVuSans-121"/>
      <use x="294.140625" xlink:href="#DejaVuSans-87"/>
     </g>
    </g>
   </g>
   <g id="matplotlib.axis_2">
    <g id="ytick_1">
     <g id="line2d_7">
      <defs>
       <path d="M 0 0 
L -3.5 0 
" id="mdf679b2bbc" style="stroke:#000000;stroke-width:0.8;"/>
      </defs>
      <g>
       <use style="stroke:#000000;stroke-width:0.8;" x="90" xlink:href="#mdf679b2bbc" y="441.478439"/>
      </g>
     </g>
     <g id="text_8">
      <!-- $\mathdefault{10^{-4}}$ -->
      <defs>
       <path d="M 10.59375 35.5 
L 73.1875 35.5 
L 73.1875 27.203125 
L 10.59375 27.203125 
z
" id="DejaVuSans-8722"/>
      </defs>
      <g transform="translate(22.088 451.326014)scale(0.2592 -0.2592)">
       <use transform="translate(0 0.684375)" xlink:href="#DejaVuSans-49"/>
       <use transform="translate(63.623047 0.684375)" xlink:href="#DejaVuSans-48"/>
       <use transform="translate(128.203125 38.965625)scale(0.7)" xlink:href="#DejaVuSans-8722"/>
       <use transform="translate(186.855469 38.965625)scale(0.7)" xlink:href="#DejaVuSans-52"/>
      </g>
     </g>
    </g>
    <g id="ytick_2">
     <g id="line2d_8">
      <g>
       <use style="stroke:#000000;stroke-width:0.8;" x="90" xlink:href="#mdf679b2bbc" y="347.205186"/>
      </g>
     </g>
     <g id="text_9">
      <!-- $\mathdefault{10^{-3}}$ -->
      <defs>
       <path d="M 40.578125 39.3125 
Q 47.65625 37.796875 51.625 33 
Q 55.609375 28.21875 55.609375 21.1875 
Q 55.609375 10.40625 48.1875 4.484375 
Q 40.765625 -1.421875 27.09375 -1.421875 
Q 22.515625 -1.421875 17.65625 -0.515625 
Q 12.796875 0.390625 7.625 2.203125 
L 7.625 11.71875 
Q 11.71875 9.328125 16.59375 8.109375 
Q 21.484375 6.890625 26.8125 6.890625 
Q 36.078125 6.890625 40.9375 10.546875 
Q 45.796875 14.203125 45.796875 21.1875 
Q 45.796875 27.640625 41.28125 31.265625 
Q 36.765625 34.90625 28.71875 34.90625 
L 20.21875 34.90625 
L 20.21875 43.015625 
L 29.109375 43.015625 
Q 36.375 43.015625 40.234375 45.921875 
Q 44.09375 48.828125 44.09375 54.296875 
Q 44.09375 59.90625 40.109375 62.90625 
Q 36.140625 65.921875 28.71875 65.921875 
Q 24.65625 65.921875 20.015625 65.03125 
Q 15.375 64.15625 9.8125 62.3125 
L 9.8125 71.09375 
Q 15.4375 72.65625 20.34375 73.4375 
Q 25.25 74.21875 29.59375 74.21875 
Q 40.828125 74.21875 47.359375 69.109375 
Q 53.90625 64.015625 53.90625 55.328125 
Q 53.90625 49.265625 50.4375 45.09375 
Q 46.96875 40.921875 40.578125 39.3125 
z
" id="DejaVuSans-51"/>
      </defs>
      <g transform="translate(22.088 357.052761)scale(0.2592 -0.2592)">
       <use transform="translate(0 0.765625)" xlink:href="#DejaVuSans-49"/>
       <use transform="translate(63.623047 0.765625)" xlink:href="#DejaVuSans-48"/>
       <use transform="translate(128.203125 39.046875)scale(0.7)" xlink:href="#DejaVuSans-8722"/>
       <use transform="translate(186.855469 39.046875)scale(0.7)" xlink:href="#DejaVuSans-51"/>
      </g>
     </g>
    </g>
    <g id="ytick_3">
     <g id="line2d_9">
      <g>
       <use style="stroke:#000000;stroke-width:0.8;" x="90" xlink:href="#mdf679b2bbc" y="252.931933"/>
      </g>
     </g>
     <g id="text_10">
      <!-- $\mathdefault{10^{-2}}$ -->
      <g transform="translate(22.088 262.779508)scale(0.2592 -0.2592)">
       <use transform="translate(0 0.765625)" xlink:href="#DejaVuSans-49"/>
       <use transform="translate(63.623047 0.765625)" xlink:href="#DejaVuSans-48"/>
       <use transform="translate(128.203125 39.046875)scale(0.7)" xlink:href="#DejaVuSans-8722"/>
       <use transform="translate(186.855469 39.046875)scale(0.7)" xlink:href="#DejaVuSans-50"/>
      </g>
     </g>
    </g>
    <g id="ytick_4">
     <g id="line2d_10">
      <g>
       <use style="stroke:#000000;stroke-width:0.8;" x="90" xlink:href="#mdf679b2bbc" y="158.65868"/>
      </g>
     </g>
     <g id="text_11">
      <!-- $\mathdefault{10^{-1}}$ -->
      <g transform="translate(22.088 168.506255)scale(0.2592 -0.2592)">
       <use transform="translate(0 0.684375)" xlink:href="#DejaVuSans-49"/>
       <use transform="translate(63.623047 0.684375)" xlink:href="#DejaVuSans-48"/>
       <use transform="translate(128.203125 38.965625)scale(0.7)" xlink:href="#DejaVuSans-8722"/>
       <use transform="translate(186.855469 38.965625)scale(0.7)" xlink:href="#DejaVuSans-49"/>
      </g>
     </g>
    </g>
    <g id="ytick_5">
     <g id="line2d_11">
      <defs>
       <path d="M 0 0 
L -2 0 
" id="mdc1d28be44" style="stroke:#000000;stroke-width:0.6;"/>
      </defs>
      <g>
       <use style="stroke:#000000;stroke-width:0.6;" x="90" xlink:href="#mdc1d28be44" y="478.993538"/>
      </g>
     </g>
    </g>
    <g id="ytick_6">
     <g id="line2d_12">
      <g>
       <use style="stroke:#000000;stroke-width:0.6;" x="90" xlink:href="#mdc1d28be44" y="469.857516"/>
      </g>
     </g>
    </g>
    <g id="ytick_7">
     <g id="line2d_13">
      <g>
       <use style="stroke:#000000;stroke-width:0.6;" x="90" xlink:href="#mdc1d28be44" y="462.392842"/>
      </g>
     </g>
    </g>
    <g id="ytick_8">
     <g id="line2d_14">
      <g>
       <use style="stroke:#000000;stroke-width:0.6;" x="90" xlink:href="#mdc1d28be44" y="456.08155"/>
      </g>
     </g>
    </g>
    <g id="ytick_9">
     <g id="line2d_15">
      <g>
       <use style="stroke:#000000;stroke-width:0.6;" x="90" xlink:href="#mdc1d28be44" y="450.614461"/>
      </g>
     </g>
    </g>
    <g id="ytick_10">
     <g id="line2d_16">
      <g>
       <use style="stroke:#000000;stroke-width:0.6;" x="90" xlink:href="#mdc1d28be44" y="445.792146"/>
      </g>
     </g>
    </g>
    <g id="ytick_11">
     <g id="line2d_17">
      <g>
       <use style="stroke:#000000;stroke-width:0.6;" x="90" xlink:href="#mdc1d28be44" y="413.099362"/>
      </g>
     </g>
    </g>
    <g id="ytick_12">
     <g id="line2d_18">
      <g>
       <use style="stroke:#000000;stroke-width:0.6;" x="90" xlink:href="#mdc1d28be44" y="396.498666"/>
      </g>
     </g>
    </g>
    <g id="ytick_13">
     <g id="line2d_19">
      <g>
       <use style="stroke:#000000;stroke-width:0.6;" x="90" xlink:href="#mdc1d28be44" y="384.720285"/>
      </g>
     </g>
    </g>
    <g id="ytick_14">
     <g id="line2d_20">
      <g>
       <use style="stroke:#000000;stroke-width:0.6;" x="90" xlink:href="#mdc1d28be44" y="375.584263"/>
      </g>
     </g>
    </g>
    <g id="ytick_15">
     <g id="line2d_21">
      <g>
       <use style="stroke:#000000;stroke-width:0.6;" x="90" xlink:href="#mdc1d28be44" y="368.119589"/>
      </g>
     </g>
    </g>
    <g id="ytick_16">
     <g id="line2d_22">
      <g>
       <use style="stroke:#000000;stroke-width:0.6;" x="90" xlink:href="#mdc1d28be44" y="361.808297"/>
      </g>
     </g>
    </g>
    <g id="ytick_17">
     <g id="line2d_23">
      <g>
       <use style="stroke:#000000;stroke-width:0.6;" x="90" xlink:href="#mdc1d28be44" y="356.341208"/>
      </g>
     </g>
    </g>
    <g id="ytick_18">
     <g id="line2d_24">
      <g>
       <use style="stroke:#000000;stroke-width:0.6;" x="90" xlink:href="#mdc1d28be44" y="351.518893"/>
      </g>
     </g>
    </g>
    <g id="ytick_19">
     <g id="line2d_25">
      <g>
       <use style="stroke:#000000;stroke-width:0.6;" x="90" xlink:href="#mdc1d28be44" y="318.826109"/>
      </g>
     </g>
    </g>
    <g id="ytick_20">
     <g id="line2d_26">
      <g>
       <use style="stroke:#000000;stroke-width:0.6;" x="90" xlink:href="#mdc1d28be44" y="302.225413"/>
      </g>
     </g>
    </g>
    <g id="ytick_21">
     <g id="line2d_27">
      <g>
       <use style="stroke:#000000;stroke-width:0.6;" x="90" xlink:href="#mdc1d28be44" y="290.447032"/>
      </g>
     </g>
    </g>
    <g id="ytick_22">
     <g id="line2d_28">
      <g>
       <use style="stroke:#000000;stroke-width:0.6;" x="90" xlink:href="#mdc1d28be44" y="281.31101"/>
      </g>
     </g>
    </g>
    <g id="ytick_23">
     <g id="line2d_29">
      <g>
       <use style="stroke:#000000;stroke-width:0.6;" x="90" xlink:href="#mdc1d28be44" y="273.846336"/>
      </g>
     </g>
    </g>
    <g id="ytick_24">
     <g id="line2d_30">
      <g>
       <use style="stroke:#000000;stroke-width:0.6;" x="90" xlink:href="#mdc1d28be44" y="267.535044"/>
      </g>
     </g>
    </g>
    <g id="ytick_25">
     <g id="line2d_31">
      <g>
       <use style="stroke:#000000;stroke-width:0.6;" x="90" xlink:href="#mdc1d28be44" y="262.067955"/>
      </g>
     </g>
    </g>
    <g id="ytick_26">
     <g id="line2d_32">
      <g>
       <use style="stroke:#000000;stroke-width:0.6;" x="90" xlink:href="#mdc1d28be44" y="257.24564"/>
      </g>
     </g>
    </g>
    <g id="ytick_27">
     <g id="line2d_33">
      <g>
       <use style="stroke:#000000;stroke-width:0.6;" x="90" xlink:href="#mdc1d28be44" y="224.552856"/>
      </g>
     </g>
    </g>
    <g id="ytick_28">
     <g id="line2d_34">
      <g>
       <use style="stroke:#000000;stroke-width:0.6;" x="90" xlink:href="#mdc1d28be44" y="207.95216"/>
      </g>
     </g>
    </g>
    <g id="ytick_29">
     <g id="line2d_35">
      <g>
       <use style="stroke:#000000;stroke-width:0.6;" x="90" xlink:href="#mdc1d28be44" y="196.173779"/>
      </g>
     </g>
    </g>
    <g id="ytick_30">
     <g id="line2d_36">
      <g>
       <use style="stroke:#000000;stroke-width:0.6;" x="90" xlink:href="#mdc1d28be44" y="187.037757"/>
      </g>
     </g>
    </g>
    <g id="ytick_31">
     <g id="line2d_37">
      <g>
       <use style="stroke:#000000;stroke-width:0.6;" x="90" xlink:href="#mdc1d28be44" y="179.573083"/>
      </g>
     </g>
    </g>
    <g id="ytick_32">
     <g id="line2d_38">
      <g>
       <use style="stroke:#000000;stroke-width:0.6;" x="90" xlink:href="#mdc1d28be44" y="173.261791"/>
      </g>
     </g>
    </g>
    <g id="ytick_33">
     <g id="line2d_39">
      <g>
       <use style="stroke:#000000;stroke-width:0.6;" x="90" xlink:href="#mdc1d28be44" y="167.794702"/>
      </g>
     </g>
    </g>
    <g id="ytick_34">
     <g id="line2d_40">
      <g>
       <use style="stroke:#000000;stroke-width:0.6;" x="90" xlink:href="#mdc1d28be44" y="162.972387"/>
      </g>
     </g>
    </g>
    <g id="ytick_35">
     <g id="line2d_41">
      <g>
       <use style="stroke:#000000;stroke-width:0.6;" x="90" xlink:href="#mdc1d28be44" y="130.279603"/>
      </g>
     </g>
    </g>
    <g id="ytick_36">
     <g id="line2d_42">
      <g>
       <use style="stroke:#000000;stroke-width:0.6;" x="90" xlink:href="#mdc1d28be44" y="113.678907"/>
      </g>
     </g>
    </g>
    <g id="ytick_37">
     <g id="line2d_43">
      <g>
       <use style="stroke:#000000;stroke-width:0.6;" x="90" xlink:href="#mdc1d28be44" y="101.900526"/>
      </g>
     </g>
    </g>
    <g id="ytick_38">
     <g id="line2d_44">
      <g>
       <use style="stroke:#000000;stroke-width:0.6;" x="90" xlink:href="#mdc1d28be44" y="92.764504"/>
      </g>
     </g>
    </g>
    <g id="ytick_39">
     <g id="line2d_45">
      <g>
       <use style="stroke:#000000;stroke-width:0.6;" x="90" xlink:href="#mdc1d28be44" y="85.29983"/>
      </g>
     </g>
    </g>
    <g id="ytick_40">
     <g id="line2d_46">
      <g>
       <use style="stroke:#000000;stroke-width:0.6;" x="90" xlink:href="#mdc1d28be44" y="78.988538"/>
      </g>
     </g>
    </g>
    <g id="ytick_41">
     <g id="line2d_47">
      <g>
       <use style="stroke:#000000;stroke-width:0.6;" x="90" xlink:href="#mdc1d28be44" y="73.521449"/>
      </g>
     </g>
    </g>
    <g id="ytick_42">
     <g id="line2d_48">
      <g>
       <use style="stroke:#000000;stroke-width:0.6;" x="90" xlink:href="#mdc1d28be44" y="68.699134"/>
      </g>
     </g>
    </g>
    <g id="text_12">
     <!-- Probability -->
     <defs>
      <path d="M 19.671875 64.796875 
L 19.671875 37.40625 
L 32.078125 37.40625 
Q 38.96875 37.40625 42.71875 40.96875 
Q 46.484375 44.53125 46.484375 51.125 
Q 46.484375 57.671875 42.71875 61.234375 
Q 38.96875 64.796875 32.078125 64.796875 
z
M 9.8125 72.90625 
L 32.078125 72.90625 
Q 44.34375 72.90625 50.609375 67.359375 
Q 56.890625 61.8125 56.890625 51.125 
Q 56.890625 40.328125 50.609375 34.8125 
Q 44.34375 29.296875 32.078125 29.296875 
L 19.671875 29.296875 
L 19.671875 0 
L 9.8125 0 
z
" id="DejaVuSans-80"/>
      <path d="M 30.609375 48.390625 
Q 23.390625 48.390625 19.1875 42.75 
Q 14.984375 37.109375 14.984375 27.296875 
Q 14.984375 17.484375 19.15625 11.84375 
Q 23.34375 6.203125 30.609375 6.203125 
Q 37.796875 6.203125 41.984375 11.859375 
Q 46.1875 17.53125 46.1875 27.296875 
Q 46.1875 37.015625 41.984375 42.703125 
Q 37.796875 48.390625 30.609375 48.390625 
z
M 30.609375 56 
Q 42.328125 56 49.015625 48.375 
Q 55.71875 40.765625 55.71875 27.296875 
Q 55.71875 13.875 49.015625 6.21875 
Q 42.328125 -1.421875 30.609375 -1.421875 
Q 18.84375 -1.421875 12.171875 6.21875 
Q 5.515625 13.875 5.515625 27.296875 
Q 5.515625 40.765625 12.171875 48.375 
Q 18.84375 56 30.609375 56 
z
" id="DejaVuSans-111"/>
      <path d="M 48.6875 27.296875 
Q 48.6875 37.203125 44.609375 42.84375 
Q 40.53125 48.484375 33.40625 48.484375 
Q 26.265625 48.484375 22.1875 42.84375 
Q 18.109375 37.203125 18.109375 27.296875 
Q 18.109375 17.390625 22.1875 11.75 
Q 26.265625 6.109375 33.40625 6.109375 
Q 40.53125 6.109375 44.609375 11.75 
Q 48.6875 17.390625 48.6875 27.296875 
z
M 18.109375 46.390625 
Q 20.953125 51.265625 25.265625 53.625 
Q 29.59375 56 35.59375 56 
Q 45.5625 56 51.78125 48.09375 
Q 58.015625 40.1875 58.015625 27.296875 
Q 58.015625 14.40625 51.78125 6.484375 
Q 45.5625 -1.421875 35.59375 -1.421875 
Q 29.59375 -1.421875 25.265625 0.953125 
Q 20.953125 3.328125 18.109375 8.203125 
L 18.109375 0 
L 9.078125 0 
L 9.078125 75.984375 
L 18.109375 75.984375 
z
" id="DejaVuSans-98"/>
      <path d="M 34.28125 27.484375 
Q 23.390625 27.484375 19.1875 25 
Q 14.984375 22.515625 14.984375 16.5 
Q 14.984375 11.71875 18.140625 8.90625 
Q 21.296875 6.109375 26.703125 6.109375 
Q 34.1875 6.109375 38.703125 11.40625 
Q 43.21875 16.703125 43.21875 25.484375 
L 43.21875 27.484375 
z
M 52.203125 31.203125 
L 52.203125 0 
L 43.21875 0 
L 43.21875 8.296875 
Q 40.140625 3.328125 35.546875 0.953125 
Q 30.953125 -1.421875 24.3125 -1.421875 
Q 15.921875 -1.421875 10.953125 3.296875 
Q 6 8.015625 6 15.921875 
Q 6 25.140625 12.171875 29.828125 
Q 18.359375 34.515625 30.609375 34.515625 
L 43.21875 34.515625 
L 43.21875 35.40625 
Q 43.21875 41.609375 39.140625 45 
Q 35.0625 48.390625 27.6875 48.390625 
Q 23 48.390625 18.546875 47.265625 
Q 14.109375 46.140625 10.015625 43.890625 
L 10.015625 52.203125 
Q 14.9375 54.109375 19.578125 55.046875 
Q 24.21875 56 28.609375 56 
Q 40.484375 56 46.34375 49.84375 
Q 52.203125 43.703125 52.203125 31.203125 
z
" id="DejaVuSans-97"/>
      <path d="M 9.421875 75.984375 
L 18.40625 75.984375 
L 18.40625 0 
L 9.421875 0 
z
" id="DejaVuSans-108"/>
     </defs>
     <g transform="translate(12.69745 341.71605)rotate(-90)scale(0.2592 -0.2592)">
      <use xlink:href="#DejaVuSans-80"/>
      <use x="60.287109" xlink:href="#DejaVuSans-114"/>
      <use x="101.369141" xlink:href="#DejaVuSans-111"/>
      <use x="162.550781" xlink:href="#DejaVuSans-98"/>
      <use x="226.027344" xlink:href="#DejaVuSans-97"/>
      <use x="287.306641" xlink:href="#DejaVuSans-98"/>
      <use x="350.783203" xlink:href="#DejaVuSans-105"/>
      <use x="378.566406" xlink:href="#DejaVuSans-108"/>
      <use x="406.349609" xlink:href="#DejaVuSans-105"/>
      <use x="434.132812" xlink:href="#DejaVuSans-116"/>
      <use x="473.341797" xlink:href="#DejaVuSans-121"/>
     </g>
    </g>
   </g>
   <g id="line2d_49">
    <path clip-path="url(#pc6d385f49a)" d="M 181.102041 541 
L 181.102041 358.850288 
L 192.489796 358.850288 
L 192.489796 541 
M 203.877551 541 
L 203.877551 358.850288 
L 215.265306 358.850288 
L 215.265306 541 
M 226.653061 541 
L 226.653061 313.870515 
L 238.040816 313.870515 
L 238.040816 541 
M 249.428571 541 
L 249.428571 358.850288 
L 260.816327 358.850288 
L 260.816327 541 
M 272.204082 541 
L 272.204082 330.471211 
L 283.591837 330.471211 
L 283.591837 330.471211 
L 294.979592 330.471211 
L 294.979592 292.956111 
L 306.367347 292.956111 
L 306.367347 292.956111 
L 317.755102 292.956111 
L 317.755102 273.713057 
L 329.142857 273.713057 
L 329.142857 292.956111 
L 340.530612 292.956111 
L 340.530612 273.713057 
L 351.918367 273.713057 
L 351.918367 257.112361 
L 363.306122 257.112361 
L 363.306122 253.835224 
L 374.693878 253.835224 
L 374.693878 279.180146 
L 386.081633 279.180146 
L 386.081633 257.112361 
L 397.469388 257.112361 
L 397.469388 264.577034 
L 408.857143 264.577034 
L 408.857143 253.835224 
L 420.244898 253.835224 
L 420.244898 250.801069 
L 431.632653 250.801069 
L 431.632653 257.112361 
L 443.020408 257.112361 
L 443.020408 240.511665 
L 454.408163 240.511665 
L 454.408163 279.180146 
L 465.795918 279.180146 
L 465.795918 273.713057 
L 477.183673 273.713057 
L 477.183673 257.112361 
L 488.571429 257.112361 
L 488.571429 236.197958 
L 499.959184 236.197958 
L 499.959184 257.112361 
L 511.346939 257.112361 
L 511.346939 245.33398 
L 522.734694 245.33398 
L 522.734694 247.976339 
L 534.122449 247.976339 
L 534.122449 247.976339 
L 545.510204 247.976339 
L 545.510204 268.890742 
L 556.897959 268.890742 
L 556.897959 245.33398 
L 568.285714 245.33398 
L 568.285714 220.985271 
L 579.673469 220.985271 
L 579.673469 218.254769 
L 591.061224 218.254769 
L 591.061224 203.916658 
L 602.44898 203.916658 
L 602.44898 177.44222 
L 613.836735 177.44222 
L 613.836735 173.717621 
L 625.22449 173.717621 
L 625.22449 167.918115 
L 636.612245 167.918115 
L 636.612245 92.980722 
L 648 92.980722 
" style="fill:none;stroke:#1f77b4;stroke-linecap:square;stroke-width:1.5;"/>
   </g>
   <g id="line2d_50">
    <path clip-path="url(#pc6d385f49a)" d="M 226.653061 541 
L 226.653061 358.850288 
L 238.040816 358.850288 
L 238.040816 541 
M 272.204082 541 
L 272.204082 358.850288 
L 283.591837 358.850288 
L 283.591837 541 
M 294.979592 541 
L 294.979592 358.850288 
L 306.367347 358.850288 
L 306.367347 541 
M 329.142857 541 
L 329.142857 358.850288 
L 340.530612 358.850288 
L 340.530612 358.850288 
L 351.918367 358.850288 
L 351.918367 313.870515 
L 363.306122 313.870515 
L 363.306122 358.850288 
L 374.693878 358.850288 
L 374.693878 358.850288 
L 386.081633 358.850288 
L 386.081633 330.471211 
L 397.469388 330.471211 
L 397.469388 541 
M 408.857143 541 
L 408.857143 358.850288 
L 420.244898 358.850288 
L 420.244898 541 
M 431.632653 541 
L 431.632653 302.092134 
L 443.020408 302.092134 
L 443.020408 358.850288 
L 454.408163 358.850288 
L 454.408163 541 
M 477.183673 541 
L 477.183673 358.850288 
L 488.571429 358.850288 
L 488.571429 330.471211 
L 499.959184 330.471211 
L 499.959184 302.092134 
L 511.346939 302.092134 
L 511.346939 302.092134 
L 522.734694 302.092134 
L 522.734694 541 
M 534.122449 541 
L 534.122449 330.471211 
L 545.510204 330.471211 
L 545.510204 541 
M 556.897959 541 
L 556.897959 292.956111 
L 568.285714 292.956111 
L 568.285714 292.956111 
L 579.673469 292.956111 
L 579.673469 292.956111 
L 591.061224 292.956111 
L 591.061224 273.713057 
L 602.44898 273.713057 
L 602.44898 245.33398 
L 613.836735 245.33398 
L 613.836735 260.674811 
L 625.22449 260.674811 
L 625.22449 219.597262 
L 636.612245 219.597262 
L 636.612245 137.836802 
L 648 137.836802 
" style="fill:none;stroke:#ff7f0e;stroke-linecap:square;stroke-width:1.5;"/>
   </g>
   <g id="line2d_51">
    <path clip-path="url(#pc6d385f49a)" d="M 181.102041 541 
L 181.102041 358.850288 
L 192.489796 358.850288 
L 192.489796 541 
M 203.877551 541 
L 203.877551 358.850288 
L 215.265306 358.850288 
L 215.265306 541 
M 226.653061 541 
L 226.653061 330.471211 
L 238.040816 330.471211 
L 238.040816 541 
M 249.428571 541 
L 249.428571 358.850288 
L 260.816327 358.850288 
L 260.816327 541 
M 272.204082 541 
L 272.204082 358.850288 
L 283.591837 358.850288 
L 283.591837 330.471211 
L 294.979592 330.471211 
L 294.979592 302.092134 
L 306.367347 302.092134 
L 306.367347 292.956111 
L 317.755102 292.956111 
L 317.755102 273.713057 
L 329.142857 273.713057 
L 329.142857 302.092134 
L 340.530612 302.092134 
L 340.530612 279.180146 
L 351.918367 279.180146 
L 351.918367 268.890742 
L 363.306122 268.890742 
L 363.306122 257.112361 
L 374.693878 257.112361 
L 374.693878 285.491438 
L 386.081633 285.491438 
L 386.081633 264.577034 
L 397.469388 264.577034 
L 397.469388 264.577034 
L 408.857143 264.577034 
L 408.857143 257.112361 
L 420.244898 257.112361 
L 420.244898 250.801069 
L 431.632653 250.801069 
L 431.632653 273.713057 
L 443.020408 273.713057 
L 443.020408 242.851865 
L 454.408163 242.851865 
L 454.408163 279.180146 
L 465.795918 279.180146 
L 465.795918 273.713057 
L 477.183673 273.713057 
L 477.183673 260.674811 
L 488.571429 260.674811 
L 488.571429 240.511665 
L 499.959184 240.511665 
L 499.959184 273.713057 
L 511.346939 273.713057 
L 511.346939 257.112361 
L 522.734694 257.112361 
L 522.734694 247.976339 
L 534.122449 247.976339 
L 534.122449 253.835224 
L 545.510204 253.835224 
L 545.510204 268.890742 
L 556.897959 268.890742 
L 556.897959 260.674811 
L 568.285714 260.674811 
L 568.285714 228.733284 
L 579.673469 228.733284 
L 579.673469 225.456147 
L 591.061224 225.456147 
L 591.061224 212.132588 
L 602.44898 212.132588 
L 602.44898 186.093711 
L 613.836735 186.093711 
L 613.836735 178.931196 
L 625.22449 178.931196 
L 625.22449 181.539872 
L 636.612245 181.539872 
L 636.612245 109.643405 
L 648 109.643405 
" style="fill:none;stroke:#2ca02c;stroke-linecap:square;stroke-width:1.5;"/>
   </g>
   <g id="line2d_52">
    <path clip-path="url(#pc6d385f49a)" d="M 90 337.050086 
L 101.387755 337.050086 
L 101.387755 416.720227 
L 112.77551 416.720227 
L 112.77551 461.7 
L 124.163265 461.7 
L 124.163265 461.7 
L 135.55102 461.7 
L 135.55102 461.7 
L 146.938776 461.7 
L 146.938776 382.029859 
L 158.326531 382.029859 
L 158.326531 541 
M 169.714286 541 
L 169.714286 395.805824 
L 181.102041 395.805824 
L 181.102041 388.34115 
L 192.489796 388.34115 
L 192.489796 371.740454 
L 203.877551 371.740454 
L 203.877551 371.740454 
L 215.265306 371.740454 
L 215.265306 348.183692 
L 226.653061 348.183692 
L 226.653061 348.183692 
L 238.040816 348.183692 
L 238.040816 356.684937 
L 249.428571 356.684937 
L 249.428571 333.325487 
L 260.816327 333.325487 
L 260.816327 326.760682 
L 272.204082 326.760682 
L 272.204082 337.050086 
L 283.591837 337.050086 
L 283.591837 318.544751 
L 294.979592 318.544751 
L 294.979592 312.768661 
L 306.367347 312.768661 
L 306.367347 300.721805 
L 317.755102 300.721805 
L 317.755102 294.75602 
L 329.142857 294.75602 
L 329.142857 296.167965 
L 340.530612 296.167965 
L 340.530612 290.165674 
L 351.918367 290.165674 
L 351.918367 287.756606 
L 363.306122 287.756606 
L 363.306122 279.328538 
L 374.693878 279.328538 
L 374.693878 272.342728 
L 386.081633 272.342728 
L 386.081633 275.686819 
L 397.469388 275.686819 
L 397.469388 270.002528 
L 408.857143 270.002528 
L 408.857143 271.547706 
L 420.244898 271.547706 
L 420.244898 266.725391 
L 431.632653 266.725391 
L 431.632653 268.880749 
L 443.020408 268.880749 
L 443.020408 268.880749 
L 454.408163 268.880749 
L 454.408163 264.017472 
L 465.795918 264.017472 
L 465.795918 266.725391 
L 477.183673 266.725391 
L 477.183673 264.346328 
L 488.571429 264.346328 
L 488.571429 267.07683 
L 499.959184 267.07683 
L 499.959184 262.411683 
L 511.346939 262.411683 
L 511.346939 262.097947 
L 522.734694 262.097947 
L 522.734694 253.910439 
L 534.122449 253.910439 
L 534.122449 251.669873 
L 545.510204 251.669873 
L 545.510204 251.912855 
L 556.897959 251.912855 
L 556.897959 248.635718 
L 568.285714 248.635718 
L 568.285714 236.29877 
L 579.673469 236.29877 
L 579.673469 236.132675 
L 591.061224 236.132675 
L 591.061224 219.037699 
L 602.44898 219.037699 
L 602.44898 209.187359 
L 613.836735 209.187359 
L 613.836735 192.50092 
L 625.22449 192.50092 
L 625.22449 168.359485 
L 636.612245 168.359485 
L 636.612245 83.7 
L 648 83.7 
" style="fill:none;stroke:#d62728;stroke-linecap:square;stroke-width:1.5;"/>
   </g>
   <g id="line2d_53">
    <path clip-path="url(#pc6d385f49a)" d="M 260.816327 541 
L 260.816327 461.7 
L 272.204082 461.7 
L 272.204082 541 
M 317.755102 541 
L 317.755102 416.720227 
L 329.142857 416.720227 
L 329.142857 461.7 
L 340.530612 461.7 
L 340.530612 433.320923 
L 351.918367 433.320923 
L 351.918367 461.7 
L 363.306122 461.7 
L 363.306122 541 
M 374.693878 541 
L 374.693878 461.7 
L 386.081633 461.7 
L 386.081633 461.7 
L 397.469388 461.7 
L 397.469388 433.320923 
L 408.857143 433.320923 
L 408.857143 541 
M 420.244898 541 
L 420.244898 461.7 
L 431.632653 461.7 
L 431.632653 433.320923 
L 443.020408 433.320923 
L 443.020408 541 
M 454.408163 541 
L 454.408163 404.941846 
L 465.795918 404.941846 
L 465.795918 461.7 
L 477.183673 461.7 
L 477.183673 461.7 
L 488.571429 461.7 
L 488.571429 433.320923 
L 499.959184 433.320923 
L 499.959184 416.720227 
L 511.346939 416.720227 
L 511.346939 416.720227 
L 522.734694 416.720227 
L 522.734694 433.320923 
L 534.122449 433.320923 
L 534.122449 461.7 
L 545.510204 461.7 
L 545.510204 404.941846 
L 556.897959 404.941846 
L 556.897959 416.720227 
L 568.285714 416.720227 
L 568.285714 416.720227 
L 579.673469 416.720227 
L 579.673469 416.720227 
L 591.061224 416.720227 
L 591.061224 388.34115 
L 602.44898 388.34115 
L 602.44898 395.805824 
L 613.836735 395.805824 
L 613.836735 371.740454 
L 625.22449 371.740454 
L 625.22449 333.325487 
L 636.612245 333.325487 
L 636.612245 275.686819 
L 648 275.686819 
" style="fill:none;stroke:#9467bd;stroke-linecap:square;stroke-width:1.5;"/>
   </g>
   <g id="line2d_54">
    <path clip-path="url(#pc6d385f49a)" d="M 90 337.050086 
L 101.387755 337.050086 
L 101.387755 416.720227 
L 112.77551 416.720227 
L 112.77551 461.7 
L 124.163265 461.7 
L 124.163265 461.7 
L 135.55102 461.7 
L 135.55102 461.7 
L 146.938776 461.7 
L 146.938776 382.029859 
L 158.326531 382.029859 
L 158.326531 541 
M 169.714286 541 
L 169.714286 395.805824 
L 181.102041 395.805824 
L 181.102041 388.34115 
L 192.489796 388.34115 
L 192.489796 371.740454 
L 203.877551 371.740454 
L 203.877551 371.740454 
L 215.265306 371.740454 
L 215.265306 348.183692 
L 226.653061 348.183692 
L 226.653061 348.183692 
L 238.040816 348.183692 
L 238.040816 356.684937 
L 249.428571 356.684937 
L 249.428571 333.325487 
L 260.816327 333.325487 
L 260.816327 328.30586 
L 272.204082 328.30586 
L 272.204082 337.050086 
L 283.591837 337.050086 
L 283.591837 318.544751 
L 294.979592 318.544751 
L 294.979592 312.768661 
L 306.367347 312.768661 
L 306.367347 300.721805 
L 317.755102 300.721805 
L 317.755102 296.892628 
L 329.142857 296.892628 
L 329.142857 296.892628 
L 340.530612 296.892628 
L 340.530612 291.425538 
L 351.918367 291.425538 
L 351.918367 288.345714 
L 363.306122 288.345714 
L 363.306122 279.328538 
L 374.693878 279.328538 
L 374.693878 272.746104 
L 386.081633 272.746104 
L 386.081633 276.124709 
L 397.469388 276.124709 
L 397.469388 270.767828 
L 408.857143 270.767828 
L 408.857143 271.547706 
L 420.244898 271.547706 
L 420.244898 267.07683 
L 431.632653 267.07683 
L 431.632653 269.625176 
L 443.020408 269.625176 
L 443.020408 268.880749 
L 454.408163 268.880749 
L 454.408163 265.349048 
L 465.795918 265.349048 
L 465.795918 267.07683 
L 477.183673 267.07683 
L 477.183673 264.677847 
L 488.571429 264.677847 
L 488.571429 267.788889 
L 499.959184 267.788889 
L 499.959184 263.36758 
L 511.346939 263.36758 
L 511.346939 263.046461 
L 522.734694 263.046461 
L 522.734694 254.425444 
L 534.122449 254.425444 
L 534.122449 251.912855 
L 545.510204 251.912855 
L 545.510204 252.899466 
L 556.897959 252.899466 
L 556.897959 249.316216 
L 568.285714 249.316216 
L 568.285714 236.801136 
L 579.673469 236.801136 
L 579.673469 236.632995 
L 591.061224 236.632995 
L 591.061224 219.698074 
L 602.44898 219.698074 
L 602.44898 209.618789 
L 613.836735 209.618789 
L 613.836735 193.018094 
L 625.22449 193.018094 
L 625.22449 169.094327 
L 636.612245 169.094327 
L 636.612245 84.078167 
L 648 84.078167 
" style="fill:none;stroke:#8c564b;stroke-linecap:square;stroke-width:1.5;"/>
   </g>
   <g id="line2d_55">
    <path clip-path="url(#pc6d385f49a)" d="M 647.441441 480.6 
L 647.441441 64.8 
" style="fill:none;stroke:#1f77b4;stroke-linecap:square;stroke-width:1.5;"/>
   </g>
   <g id="patch_5">
    <path d="M 90 480.6 
L 90 64.8 
" style="fill:none;stroke:#000000;stroke-linecap:square;stroke-linejoin:miter;stroke-width:0.8;"/>
   </g>
   <g id="patch_6">
    <path d="M 648 480.6 
L 648 64.8 
" style="fill:none;stroke:#000000;stroke-linecap:square;stroke-linejoin:miter;stroke-width:0.8;"/>
   </g>
   <g id="patch_7">
    <path d="M 90 480.6 
L 648 480.6 
" style="fill:none;stroke:#000000;stroke-linecap:square;stroke-linejoin:miter;stroke-width:0.8;"/>
   </g>
   <g id="patch_8">
    <path d="M 90 64.8 
L 648 64.8 
" style="fill:none;stroke:#000000;stroke-linecap:square;stroke-linejoin:miter;stroke-width:0.8;"/>
   </g>
   <g id="text_13">
    <g id="patch_9">
     <path d="M 729.679165 109.584125 
L 659.441441 109.584125 
L 659.441441 78.227875 
L 729.679165 78.227875 
L 729.679165 70.388813 
L 753.196352 93.906 
L 729.679165 117.423188 
L 729.679165 109.584125 
z
" style="fill:#ff7f0e;opacity:0.5;stroke:#ff7f0e;stroke-linejoin:miter;"/>
    </g>
    <!-- photon -->
    <defs>
     <path d="M 54.890625 33.015625 
L 54.890625 0 
L 45.90625 0 
L 45.90625 32.71875 
Q 45.90625 40.484375 42.875 44.328125 
Q 39.84375 48.1875 33.796875 48.1875 
Q 26.515625 48.1875 22.3125 43.546875 
Q 18.109375 38.921875 18.109375 30.90625 
L 18.109375 0 
L 9.078125 0 
L 9.078125 75.984375 
L 18.109375 75.984375 
L 18.109375 46.1875 
Q 21.34375 51.125 25.703125 53.5625 
Q 30.078125 56 35.796875 56 
Q 45.21875 56 50.046875 50.171875 
Q 54.890625 44.34375 54.890625 33.015625 
z
" id="DejaVuSans-104"/>
     <path d="M 54.890625 33.015625 
L 54.890625 0 
L 45.90625 0 
L 45.90625 32.71875 
Q 45.90625 40.484375 42.875 44.328125 
Q 39.84375 48.1875 33.796875 48.1875 
Q 26.515625 48.1875 22.3125 43.546875 
Q 18.109375 38.921875 18.109375 30.90625 
L 18.109375 0 
L 9.078125 0 
L 9.078125 54.6875 
L 18.109375 54.6875 
L 18.109375 46.1875 
Q 21.34375 51.125 25.703125 53.5625 
Q 30.078125 56 35.796875 56 
Q 45.21875 56 50.046875 50.171875 
Q 54.890625 44.34375 54.890625 33.015625 
z
" id="DejaVuSans-110"/>
    </defs>
    <g transform="translate(665.441441 99.42475)scale(0.2 -0.2)">
     <use xlink:href="#DejaVuSans-112"/>
     <use x="63.476562" xlink:href="#DejaVuSans-104"/>
     <use x="126.855469" xlink:href="#DejaVuSans-111"/>
     <use x="188.037109" xlink:href="#DejaVuSans-116"/>
     <use x="227.246094" xlink:href="#DejaVuSans-111"/>
     <use x="288.427734" xlink:href="#DejaVuSans-110"/>
    </g>
   </g>
   <g id="text_14">
    <g id="patch_10">
     <path d="M 553.431843 109.584125 
L 635.441441 109.584125 
L 635.441441 78.227875 
L 553.431843 78.227875 
L 553.431843 70.388813 
L 529.914656 93.906 
L 553.431843 117.423188 
L 553.431843 109.584125 
z
" style="fill:#1f77b4;opacity:0.5;stroke:#1f77b4;stroke-linejoin:miter;"/>
    </g>
    <!-- electron -->
    <defs>
     <path d="M 56.203125 29.59375 
L 56.203125 25.203125 
L 14.890625 25.203125 
Q 15.484375 15.921875 20.484375 11.0625 
Q 25.484375 6.203125 34.421875 6.203125 
Q 39.59375 6.203125 44.453125 7.46875 
Q 49.3125 8.734375 54.109375 11.28125 
L 54.109375 2.78125 
Q 49.265625 0.734375 44.1875 -0.34375 
Q 39.109375 -1.421875 33.890625 -1.421875 
Q 20.796875 -1.421875 13.15625 6.1875 
Q 5.515625 13.8125 5.515625 26.8125 
Q 5.515625 40.234375 12.765625 48.109375 
Q 20.015625 56 32.328125 56 
Q 43.359375 56 49.78125 48.890625 
Q 56.203125 41.796875 56.203125 29.59375 
z
M 47.21875 32.234375 
Q 47.125 39.59375 43.09375 43.984375 
Q 39.0625 48.390625 32.421875 48.390625 
Q 24.90625 48.390625 20.390625 44.140625 
Q 15.875 39.890625 15.1875 32.171875 
z
" id="DejaVuSans-101"/>
     <path d="M 48.78125 52.59375 
L 48.78125 44.1875 
Q 44.96875 46.296875 41.140625 47.34375 
Q 37.3125 48.390625 33.40625 48.390625 
Q 24.65625 48.390625 19.8125 42.84375 
Q 14.984375 37.3125 14.984375 27.296875 
Q 14.984375 17.28125 19.8125 11.734375 
Q 24.65625 6.203125 33.40625 6.203125 
Q 37.3125 6.203125 41.140625 7.25 
Q 44.96875 8.296875 48.78125 10.40625 
L 48.78125 2.09375 
Q 45.015625 0.34375 40.984375 -0.53125 
Q 36.96875 -1.421875 32.421875 -1.421875 
Q 20.0625 -1.421875 12.78125 6.34375 
Q 5.515625 14.109375 5.515625 27.296875 
Q 5.515625 40.671875 12.859375 48.328125 
Q 20.21875 56 33.015625 56 
Q 37.15625 56 41.109375 55.140625 
Q 45.0625 54.296875 48.78125 52.59375 
z
" id="DejaVuSans-99"/>
    </defs>
    <g transform="translate(547.307066 99.42475)scale(0.2 -0.2)">
     <use xlink:href="#DejaVuSans-101"/>
     <use x="61.523438" xlink:href="#DejaVuSans-108"/>
     <use x="89.306641" xlink:href="#DejaVuSans-101"/>
     <use x="150.830078" xlink:href="#DejaVuSans-99"/>
     <use x="205.810547" xlink:href="#DejaVuSans-116"/>
     <use x="245.019531" xlink:href="#DejaVuSans-114"/>
     <use x="286.101562" xlink:href="#DejaVuSans-111"/>
     <use x="347.283203" xlink:href="#DejaVuSans-110"/>
    </g>
   </g>
   <g id="legend_1">
    <g id="patch_11">
     <path d="M 411.623438 239.72625 
L 635.4 239.72625 
Q 639 239.72625 639 236.12625 
L 639 77.4 
Q 639 73.8 635.4 73.8 
L 411.623438 73.8 
Q 408.023438 73.8 408.023438 77.4 
L 408.023438 236.12625 
Q 408.023438 239.72625 411.623438 239.72625 
z
" style="fill:#ffffff;opacity:0.5;stroke:#cccccc;stroke-linejoin:miter;"/>
    </g>
    <g id="line2d_56">
     <path d="M 415.223437 88.377188 
L 451.223437 88.377188 
" style="fill:none;stroke:#1f77b4;stroke-linecap:square;stroke-width:1.5;"/>
    </g>
    <g id="line2d_57"/>
    <g id="text_15">
     <!-- Electrons -->
     <defs>
      <path d="M 9.8125 72.90625 
L 55.90625 72.90625 
L 55.90625 64.59375 
L 19.671875 64.59375 
L 19.671875 43.015625 
L 54.390625 43.015625 
L 54.390625 34.71875 
L 19.671875 34.71875 
L 19.671875 8.296875 
L 56.78125 8.296875 
L 56.78125 0 
L 9.8125 0 
z
" id="DejaVuSans-69"/>
      <path d="M 44.28125 53.078125 
L 44.28125 44.578125 
Q 40.484375 46.53125 36.375 47.5 
Q 32.28125 48.484375 27.875 48.484375 
Q 21.1875 48.484375 17.84375 46.4375 
Q 14.5 44.390625 14.5 40.28125 
Q 14.5 37.15625 16.890625 35.375 
Q 19.28125 33.59375 26.515625 31.984375 
L 29.59375 31.296875 
Q 39.15625 29.25 43.1875 25.515625 
Q 47.21875 21.78125 47.21875 15.09375 
Q 47.21875 7.46875 41.1875 3.015625 
Q 35.15625 -1.421875 24.609375 -1.421875 
Q 20.21875 -1.421875 15.453125 -0.5625 
Q 10.6875 0.296875 5.421875 2 
L 5.421875 11.28125 
Q 10.40625 8.6875 15.234375 7.390625 
Q 20.0625 6.109375 24.8125 6.109375 
Q 31.15625 6.109375 34.5625 8.28125 
Q 37.984375 10.453125 37.984375 14.40625 
Q 37.984375 18.0625 35.515625 20.015625 
Q 33.0625 21.96875 24.703125 23.78125 
L 21.578125 24.515625 
Q 13.234375 26.265625 9.515625 29.90625 
Q 5.8125 33.546875 5.8125 39.890625 
Q 5.8125 47.609375 11.28125 51.796875 
Q 16.75 56 26.8125 56 
Q 31.78125 56 36.171875 55.265625 
Q 40.578125 54.546875 44.28125 53.078125 
z
" id="DejaVuSans-115"/>
     </defs>
     <g transform="translate(465.623437 94.677188)scale(0.18 -0.18)">
      <use xlink:href="#DejaVuSans-69"/>
      <use x="63.183594" xlink:href="#DejaVuSans-108"/>
      <use x="90.966797" xlink:href="#DejaVuSans-101"/>
      <use x="152.490234" xlink:href="#DejaVuSans-99"/>
      <use x="207.470703" xlink:href="#DejaVuSans-116"/>
      <use x="246.679688" xlink:href="#DejaVuSans-114"/>
      <use x="287.761719" xlink:href="#DejaVuSans-111"/>
      <use x="348.943359" xlink:href="#DejaVuSans-110"/>
      <use x="412.322266" xlink:href="#DejaVuSans-115"/>
     </g>
    </g>
    <g id="line2d_58">
     <path d="M 415.223437 114.797813 
L 451.223437 114.797813 
" style="fill:none;stroke:#ff7f0e;stroke-linecap:square;stroke-width:1.5;"/>
    </g>
    <g id="line2d_59"/>
    <g id="text_16">
     <!-- Electrons (Nu_e) -->
     <defs>
      <path id="DejaVuSans-32"/>
      <path d="M 31 75.875 
Q 24.46875 64.65625 21.28125 53.65625 
Q 18.109375 42.671875 18.109375 31.390625 
Q 18.109375 20.125 21.3125 9.0625 
Q 24.515625 -2 31 -13.1875 
L 23.1875 -13.1875 
Q 15.875 -1.703125 12.234375 9.375 
Q 8.59375 20.453125 8.59375 31.390625 
Q 8.59375 42.28125 12.203125 53.3125 
Q 15.828125 64.359375 23.1875 75.875 
z
" id="DejaVuSans-40"/>
      <path d="M 9.8125 72.90625 
L 23.09375 72.90625 
L 55.421875 11.921875 
L 55.421875 72.90625 
L 64.984375 72.90625 
L 64.984375 0 
L 51.703125 0 
L 19.390625 60.984375 
L 19.390625 0 
L 9.8125 0 
z
" id="DejaVuSans-78"/>
      <path d="M 50.984375 -16.609375 
L 50.984375 -23.578125 
L -0.984375 -23.578125 
L -0.984375 -16.609375 
z
" id="DejaVuSans-95"/>
      <path d="M 8.015625 75.875 
L 15.828125 75.875 
Q 23.140625 64.359375 26.78125 53.3125 
Q 30.421875 42.28125 30.421875 31.390625 
Q 30.421875 20.453125 26.78125 9.375 
Q 23.140625 -1.703125 15.828125 -13.1875 
L 8.015625 -13.1875 
Q 14.5 -2 17.703125 9.0625 
Q 20.90625 20.125 20.90625 31.390625 
Q 20.90625 42.671875 17.703125 53.65625 
Q 14.5 64.65625 8.015625 75.875 
z
" id="DejaVuSans-41"/>
     </defs>
     <g transform="translate(465.623437 121.097813)scale(0.18 -0.18)">
      <use xlink:href="#DejaVuSans-69"/>
      <use x="63.183594" xlink:href="#DejaVuSans-108"/>
      <use x="90.966797" xlink:href="#DejaVuSans-101"/>
      <use x="152.490234" xlink:href="#DejaVuSans-99"/>
      <use x="207.470703" xlink:href="#DejaVuSans-116"/>
      <use x="246.679688" xlink:href="#DejaVuSans-114"/>
      <use x="287.761719" xlink:href="#DejaVuSans-111"/>
      <use x="348.943359" xlink:href="#DejaVuSans-110"/>
      <use x="412.322266" xlink:href="#DejaVuSans-115"/>
      <use x="464.421875" xlink:href="#DejaVuSans-32"/>
      <use x="496.208984" xlink:href="#DejaVuSans-40"/>
      <use x="535.222656" xlink:href="#DejaVuSans-78"/>
      <use x="610.027344" xlink:href="#DejaVuSans-117"/>
      <use x="673.40625" xlink:href="#DejaVuSans-95"/>
      <use x="723.40625" xlink:href="#DejaVuSans-101"/>
      <use x="784.929688" xlink:href="#DejaVuSans-41"/>
     </g>
    </g>
    <g id="line2d_60">
     <path d="M 415.223437 141.719063 
L 451.223437 141.719063 
" style="fill:none;stroke:#2ca02c;stroke-linecap:square;stroke-width:1.5;"/>
    </g>
    <g id="line2d_61"/>
    <g id="text_17">
     <!-- Electrons (Nu_mu) -->
     <defs>
      <path d="M 52 44.1875 
Q 55.375 50.25 60.0625 53.125 
Q 64.75 56 71.09375 56 
Q 79.640625 56 84.28125 50.015625 
Q 88.921875 44.046875 88.921875 33.015625 
L 88.921875 0 
L 79.890625 0 
L 79.890625 32.71875 
Q 79.890625 40.578125 77.09375 44.375 
Q 74.3125 48.1875 68.609375 48.1875 
Q 61.625 48.1875 57.5625 43.546875 
Q 53.515625 38.921875 53.515625 30.90625 
L 53.515625 0 
L 44.484375 0 
L 44.484375 32.71875 
Q 44.484375 40.625 41.703125 44.40625 
Q 38.921875 48.1875 33.109375 48.1875 
Q 26.21875 48.1875 22.15625 43.53125 
Q 18.109375 38.875 18.109375 30.90625 
L 18.109375 0 
L 9.078125 0 
L 9.078125 54.6875 
L 18.109375 54.6875 
L 18.109375 46.1875 
Q 21.1875 51.21875 25.484375 53.609375 
Q 29.78125 56 35.6875 56 
Q 41.65625 56 45.828125 52.96875 
Q 50 49.953125 52 44.1875 
z
" id="DejaVuSans-109"/>
     </defs>
     <g transform="translate(465.623437 148.019063)scale(0.18 -0.18)">
      <use xlink:href="#DejaVuSans-69"/>
      <use x="63.183594" xlink:href="#DejaVuSans-108"/>
      <use x="90.966797" xlink:href="#DejaVuSans-101"/>
      <use x="152.490234" xlink:href="#DejaVuSans-99"/>
      <use x="207.470703" xlink:href="#DejaVuSans-116"/>
      <use x="246.679688" xlink:href="#DejaVuSans-114"/>
      <use x="287.761719" xlink:href="#DejaVuSans-111"/>
      <use x="348.943359" xlink:href="#DejaVuSans-110"/>
      <use x="412.322266" xlink:href="#DejaVuSans-115"/>
      <use x="464.421875" xlink:href="#DejaVuSans-32"/>
      <use x="496.208984" xlink:href="#DejaVuSans-40"/>
      <use x="535.222656" xlink:href="#DejaVuSans-78"/>
      <use x="610.027344" xlink:href="#DejaVuSans-117"/>
      <use x="673.40625" xlink:href="#DejaVuSans-95"/>
      <use x="723.40625" xlink:href="#DejaVuSans-109"/>
      <use x="820.818359" xlink:href="#DejaVuSans-117"/>
      <use x="884.197266" xlink:href="#DejaVuSans-41"/>
     </g>
    </g>
    <g id="line2d_62">
     <path d="M 415.223437 168.640312 
L 451.223437 168.640312 
" style="fill:none;stroke:#d62728;stroke-linecap:square;stroke-width:1.5;"/>
    </g>
    <g id="line2d_63"/>
    <g id="text_18">
     <!-- Photons -->
     <g transform="translate(465.623437 174.940313)scale(0.18 -0.18)">
      <use xlink:href="#DejaVuSans-80"/>
      <use x="60.302734" xlink:href="#DejaVuSans-104"/>
      <use x="123.681641" xlink:href="#DejaVuSans-111"/>
      <use x="184.863281" xlink:href="#DejaVuSans-116"/>
      <use x="224.072266" xlink:href="#DejaVuSans-111"/>
      <use x="285.253906" xlink:href="#DejaVuSans-110"/>
      <use x="348.632812" xlink:href="#DejaVuSans-115"/>
     </g>
    </g>
    <g id="line2d_64">
     <path d="M 415.223437 195.060937 
L 451.223437 195.060937 
" style="fill:none;stroke:#9467bd;stroke-linecap:square;stroke-width:1.5;"/>
    </g>
    <g id="line2d_65"/>
    <g id="text_19">
     <!-- Photons (Nu_e) -->
     <g transform="translate(465.623437 201.360937)scale(0.18 -0.18)">
      <use xlink:href="#DejaVuSans-80"/>
      <use x="60.302734" xlink:href="#DejaVuSans-104"/>
      <use x="123.681641" xlink:href="#DejaVuSans-111"/>
      <use x="184.863281" xlink:href="#DejaVuSans-116"/>
      <use x="224.072266" xlink:href="#DejaVuSans-111"/>
      <use x="285.253906" xlink:href="#DejaVuSans-110"/>
      <use x="348.632812" xlink:href="#DejaVuSans-115"/>
      <use x="400.732422" xlink:href="#DejaVuSans-32"/>
      <use x="432.519531" xlink:href="#DejaVuSans-40"/>
      <use x="471.533203" xlink:href="#DejaVuSans-78"/>
      <use x="546.337891" xlink:href="#DejaVuSans-117"/>
      <use x="609.716797" xlink:href="#DejaVuSans-95"/>
      <use x="659.716797" xlink:href="#DejaVuSans-101"/>
      <use x="721.240234" xlink:href="#DejaVuSans-41"/>
     </g>
    </g>
    <g id="line2d_66">
     <path d="M 415.223437 221.982188 
L 451.223437 221.982188 
" style="fill:none;stroke:#8c564b;stroke-linecap:square;stroke-width:1.5;"/>
    </g>
    <g id="line2d_67"/>
    <g id="text_20">
     <!-- Photons (Nu_mu) -->
     <g transform="translate(465.623437 228.282188)scale(0.18 -0.18)">
      <use xlink:href="#DejaVuSans-80"/>
      <use x="60.302734" xlink:href="#DejaVuSans-104"/>
      <use x="123.681641" xlink:href="#DejaVuSans-111"/>
      <use x="184.863281" xlink:href="#DejaVuSans-116"/>
      <use x="224.072266" xlink:href="#DejaVuSans-111"/>
      <use x="285.253906" xlink:href="#DejaVuSans-110"/>
      <use x="348.632812" xlink:href="#DejaVuSans-115"/>
      <use x="400.732422" xlink:href="#DejaVuSans-32"/>
      <use x="432.519531" xlink:href="#DejaVuSans-40"/>
      <use x="471.533203" xlink:href="#DejaVuSans-78"/>
      <use x="546.337891" xlink:href="#DejaVuSans-117"/>
      <use x="609.716797" xlink:href="#DejaVuSans-95"/>
      <use x="659.716797" xlink:href="#DejaVuSans-109"/>
      <use x="757.128906" xlink:href="#DejaVuSans-117"/>
      <use x="820.507812" xlink:href="#DejaVuSans-41"/>
     </g>
    </g>
   </g>
  </g>
 </g>
 <defs>
  <clipPath id="pc6d385f49a">
   <rect height="415.8" width="558" x="90" y="64.8"/>
  </clipPath>
 </defs>
</svg>
