<?xml version="1.0" encoding="utf-8" standalone="no"?>
<!DOCTYPE svg PUBLIC "-//W3C//DTD SVG 1.1//EN"
  "http://www.w3.org/Graphics/SVG/1.1/DTD/svg11.dtd">
<!-- Created with matplotlib (https://matplotlib.org/) -->
<svg height="540pt" version="1.1" viewBox="0 0 720 540" width="720pt" xmlns="http://www.w3.org/2000/svg" xmlns:xlink="http://www.w3.org/1999/xlink">
 <defs>
  <style type="text/css">
*{stroke-linecap:butt;stroke-linejoin:round;}
  </style>
 </defs>
 <g id="figure_1">
  <g id="patch_1">
   <path d="M 0 540 
L 720 540 
L 720 0 
L 0 0 
z
" style="fill:#ffffff;"/>
  </g>
  <g id="axes_1">
   <g id="patch_2">
    <path d="M 90 480.6 
L 648 480.6 
L 648 64.8 
L 90 64.8 
z
" style="fill:#ffffff;"/>
   </g>
   <g id="patch_3">
    <path clip-path="url(#p077af8d4fe)" d="M 90 110542.993372 
L 90 110542.993372 
L 101.387755 110542.993372 
L 101.387755 110542.993372 
L 112.77551 110542.993372 
L 112.77551 288.351417 
L 124.163265 288.351417 
L 124.163265 188.517352 
L 135.55102 188.517352 
L 135.55102 122.464037 
L 146.938776 122.464037 
L 146.938776 88.683288 
L 158.326531 88.683288 
L 158.326531 83.7 
L 169.714286 83.7 
L 169.714286 98.652061 
L 181.102041 98.652061 
L 181.102041 126.138729 
L 192.489796 126.138729 
L 192.489796 139.950356 
L 203.877551 139.950356 
L 203.877551 155.239331 
L 215.265306 155.239331 
L 215.265306 182.862584 
L 226.653061 182.862584 
L 226.653061 197.270617 
L 238.040816 197.270617 
L 238.040816 205.073157 
L 249.428571 205.073157 
L 249.428571 188.517352 
L 260.816327 188.517352 
L 260.816327 182.862584 
L 272.204082 182.862584 
L 272.204082 230.548638 
L 283.591837 230.548638 
L 283.591837 214.394594 
L 294.979592 214.394594 
L 294.979592 288.351417 
L 306.367347 288.351417 
L 306.367347 214.394594 
L 317.755102 214.394594 
L 317.755102 241.261768 
L 329.142857 241.261768 
L 329.142857 235.607001 
L 340.530612 235.607001 
L 340.530612 221.795374 
L 351.918367 221.795374 
L 351.918367 241.261768 
L 363.306122 241.261768 
L 363.306122 288.351417 
L 374.693878 288.351417 
L 374.693878 288.351417 
L 386.081633 288.351417 
L 386.081633 247.672615 
L 397.469388 247.672615 
L 397.469388 274.53979 
L 408.857143 274.53979 
L 408.857143 307.817811 
L 420.244898 307.817811 
L 420.244898 255.073395 
L 431.632653 255.073395 
L 431.632653 288.351417 
L 443.020408 288.351417 
L 443.020408 288.351417 
L 454.408163 288.351417 
L 454.408163 288.351417 
L 465.795918 288.351417 
L 465.795918 241.261768 
L 477.183673 241.261768 
L 477.183673 307.817811 
L 488.571429 307.817811 
L 488.571429 247.672615 
L 499.959184 247.672615 
L 499.959184 274.53979 
L 511.346939 274.53979 
L 511.346939 274.53979 
L 522.734694 274.53979 
L 522.734694 307.817811 
L 534.122449 307.817811 
L 534.122449 307.817811 
L 545.510204 307.817811 
L 545.510204 288.351417 
L 556.897959 288.351417 
L 556.897959 274.53979 
L 568.285714 274.53979 
L 568.285714 307.817811 
L 579.673469 307.817811 
L 579.673469 288.351417 
L 591.061224 288.351417 
L 591.061224 110542.993372 
L 602.44898 110542.993372 
L 602.44898 307.817811 
L 613.836735 307.817811 
L 613.836735 110542.993372 
L 625.22449 110542.993372 
L 625.22449 110542.993372 
L 636.612245 110542.993372 
L 636.612245 263.82666 
L 648 263.82666 
L 648 110542.993372 
z
" style="fill:#1f77b4;opacity:0.2;"/>
   </g>
   <g id="patch_4">
    <path clip-path="url(#p077af8d4fe)" d="M 90 110542.993372 
L 90 110542.993372 
L 101.387755 110542.993372 
L 101.387755 461.7 
L 112.77551 461.7 
L 112.77551 346.57696 
L 124.163265 346.57696 
L 124.163265 243.068204 
L 135.55102 243.068204 
L 135.55102 196.041768 
L 146.938776 196.041768 
L 146.938776 160.720458 
L 158.326531 160.720458 
L 158.326531 143.487491 
L 169.714286 143.487491 
L 169.714286 139.644638 
L 181.102041 139.644638 
L 181.102041 135.116779 
L 192.489796 135.116779 
L 192.489796 137.523252 
L 203.877551 137.523252 
L 203.877551 135.977968 
L 215.265306 135.977968 
L 215.265306 141.741479 
L 226.653061 141.741479 
L 226.653061 143.044999 
L 238.040816 143.044999 
L 238.040816 146.636819 
L 249.428571 146.636819 
L 249.428571 149.285359 
L 260.816327 149.285359 
L 260.816327 155.06569 
L 272.204082 155.06569 
L 272.204082 160.177966 
L 283.591837 160.177966 
L 283.591837 162.010633 
L 294.979592 162.010633 
L 294.979592 170.913578 
L 306.367347 170.913578 
L 306.367347 170.577451 
L 317.755102 170.577451 
L 317.755102 179.50969 
L 329.142857 179.50969 
L 329.142857 182.277606 
L 340.530612 182.277606 
L 340.530612 179.77941 
L 351.918367 179.77941 
L 351.918367 187.701428 
L 363.306122 187.701428 
L 363.306122 196.422802 
L 374.693878 196.422802 
L 374.693878 198.774785 
L 386.081633 198.774785 
L 386.081633 197.977919 
L 397.469388 197.977919 
L 397.469388 205.90847 
L 408.857143 205.90847 
L 408.857143 210.554284 
L 420.244898 210.554284 
L 420.244898 212.119968 
L 431.632653 212.119968 
L 431.632653 217.444314 
L 443.020408 217.444314 
L 443.020408 213.464874 
L 454.408163 213.464874 
L 454.408163 224.451567 
L 465.795918 224.451567 
L 465.795918 222.766831 
L 477.183673 222.766831 
L 477.183673 230.666853 
L 488.571429 230.666853 
L 488.571429 236.029766 
L 499.959184 236.029766 
L 499.959184 241.575544 
L 511.346939 241.575544 
L 511.346939 242.565477 
L 522.734694 242.565477 
L 522.734694 240.127895 
L 534.122449 240.127895 
L 534.122449 243.576251 
L 545.510204 243.576251 
L 545.510204 253.781334 
L 556.897959 253.781334 
L 556.897959 242.067959 
L 568.285714 242.067959 
L 568.285714 257.048583 
L 579.673469 257.048583 
L 579.673469 257.048583 
L 591.061224 257.048583 
L 591.061224 258.420392 
L 602.44898 258.420392 
L 602.44898 263.556127 
L 613.836735 263.556127 
L 613.836735 262.031871 
L 625.22449 262.031871 
L 625.22449 270.18873 
L 636.612245 270.18873 
L 636.612245 278.941995 
L 648 278.941995 
L 648 110542.993372 
z
" style="fill:#ff7f0e;opacity:0.2;"/>
   </g>
   <g id="matplotlib.axis_1">
    <g id="xtick_1">
     <g id="line2d_1">
      <defs>
       <path d="M 0 0 
L 0 3.5 
" id="m4a5a89d01f" style="stroke:#000000;stroke-width:0.8;"/>
      </defs>
      <g>
       <use style="stroke:#000000;stroke-width:0.8;" x="90" xlink:href="#m4a5a89d01f" y="480.6"/>
      </g>
     </g>
     <g id="text_1">
      <!-- 0 -->
      <defs>
       <path d="M 31.78125 66.40625 
Q 24.171875 66.40625 20.328125 58.90625 
Q 16.5 51.421875 16.5 36.375 
Q 16.5 21.390625 20.328125 13.890625 
Q 24.171875 6.390625 31.78125 6.390625 
Q 39.453125 6.390625 43.28125 13.890625 
Q 47.125 21.390625 47.125 36.375 
Q 47.125 51.421875 43.28125 58.90625 
Q 39.453125 66.40625 31.78125 66.40625 
z
M 31.78125 74.21875 
Q 44.046875 74.21875 50.515625 64.515625 
Q 56.984375 54.828125 56.984375 36.375 
Q 56.984375 17.96875 50.515625 8.265625 
Q 44.046875 -1.421875 31.78125 -1.421875 
Q 19.53125 -1.421875 13.0625 8.265625 
Q 6.59375 17.96875 6.59375 36.375 
Q 6.59375 54.828125 13.0625 64.515625 
Q 19.53125 74.21875 31.78125 74.21875 
z
" id="DejaVuSans-48"/>
      </defs>
      <g transform="translate(81.7542 507.29515)scale(0.2592 -0.2592)">
       <use xlink:href="#DejaVuSans-48"/>
      </g>
     </g>
    </g>
    <g id="xtick_2">
     <g id="line2d_2">
      <g>
       <use style="stroke:#000000;stroke-width:0.8;" x="229.5" xlink:href="#m4a5a89d01f" y="480.6"/>
      </g>
     </g>
     <g id="text_2">
      <!-- 20000 -->
      <defs>
       <path d="M 19.1875 8.296875 
L 53.609375 8.296875 
L 53.609375 0 
L 7.328125 0 
L 7.328125 8.296875 
Q 12.9375 14.109375 22.625 23.890625 
Q 32.328125 33.6875 34.8125 36.53125 
Q 39.546875 41.84375 41.421875 45.53125 
Q 43.3125 49.21875 43.3125 52.78125 
Q 43.3125 58.59375 39.234375 62.25 
Q 35.15625 65.921875 28.609375 65.921875 
Q 23.96875 65.921875 18.8125 64.3125 
Q 13.671875 62.703125 7.8125 59.421875 
L 7.8125 69.390625 
Q 13.765625 71.78125 18.9375 73 
Q 24.125 74.21875 28.421875 74.21875 
Q 39.75 74.21875 46.484375 68.546875 
Q 53.21875 62.890625 53.21875 53.421875 
Q 53.21875 48.921875 51.53125 44.890625 
Q 49.859375 40.875 45.40625 35.40625 
Q 44.1875 33.984375 37.640625 27.21875 
Q 31.109375 20.453125 19.1875 8.296875 
z
" id="DejaVuSans-50"/>
      </defs>
      <g transform="translate(188.271 507.29515)scale(0.2592 -0.2592)">
       <use xlink:href="#DejaVuSans-50"/>
       <use x="63.623047" xlink:href="#DejaVuSans-48"/>
       <use x="127.246094" xlink:href="#DejaVuSans-48"/>
       <use x="190.869141" xlink:href="#DejaVuSans-48"/>
       <use x="254.492188" xlink:href="#DejaVuSans-48"/>
      </g>
     </g>
    </g>
    <g id="xtick_3">
     <g id="line2d_3">
      <g>
       <use style="stroke:#000000;stroke-width:0.8;" x="369" xlink:href="#m4a5a89d01f" y="480.6"/>
      </g>
     </g>
     <g id="text_3">
      <!-- 40000 -->
      <defs>
       <path d="M 37.796875 64.3125 
L 12.890625 25.390625 
L 37.796875 25.390625 
z
M 35.203125 72.90625 
L 47.609375 72.90625 
L 47.609375 25.390625 
L 58.015625 25.390625 
L 58.015625 17.1875 
L 47.609375 17.1875 
L 47.609375 0 
L 37.796875 0 
L 37.796875 17.1875 
L 4.890625 17.1875 
L 4.890625 26.703125 
z
" id="DejaVuSans-52"/>
      </defs>
      <g transform="translate(327.771 507.29515)scale(0.2592 -0.2592)">
       <use xlink:href="#DejaVuSans-52"/>
       <use x="63.623047" xlink:href="#DejaVuSans-48"/>
       <use x="127.246094" xlink:href="#DejaVuSans-48"/>
       <use x="190.869141" xlink:href="#DejaVuSans-48"/>
       <use x="254.492188" xlink:href="#DejaVuSans-48"/>
      </g>
     </g>
    </g>
    <g id="xtick_4">
     <g id="line2d_4">
      <g>
       <use style="stroke:#000000;stroke-width:0.8;" x="508.5" xlink:href="#m4a5a89d01f" y="480.6"/>
      </g>
     </g>
     <g id="text_4">
      <!-- 60000 -->
      <defs>
       <path d="M 33.015625 40.375 
Q 26.375 40.375 22.484375 35.828125 
Q 18.609375 31.296875 18.609375 23.390625 
Q 18.609375 15.53125 22.484375 10.953125 
Q 26.375 6.390625 33.015625 6.390625 
Q 39.65625 6.390625 43.53125 10.953125 
Q 47.40625 15.53125 47.40625 23.390625 
Q 47.40625 31.296875 43.53125 35.828125 
Q 39.65625 40.375 33.015625 40.375 
z
M 52.59375 71.296875 
L 52.59375 62.3125 
Q 48.875 64.0625 45.09375 64.984375 
Q 41.3125 65.921875 37.59375 65.921875 
Q 27.828125 65.921875 22.671875 59.328125 
Q 17.53125 52.734375 16.796875 39.40625 
Q 19.671875 43.65625 24.015625 45.921875 
Q 28.375 48.1875 33.59375 48.1875 
Q 44.578125 48.1875 50.953125 41.515625 
Q 57.328125 34.859375 57.328125 23.390625 
Q 57.328125 12.15625 50.6875 5.359375 
Q 44.046875 -1.421875 33.015625 -1.421875 
Q 20.359375 -1.421875 13.671875 8.265625 
Q 6.984375 17.96875 6.984375 36.375 
Q 6.984375 53.65625 15.1875 63.9375 
Q 23.390625 74.21875 37.203125 74.21875 
Q 40.921875 74.21875 44.703125 73.484375 
Q 48.484375 72.75 52.59375 71.296875 
z
" id="DejaVuSans-54"/>
      </defs>
      <g transform="translate(467.271 507.29515)scale(0.2592 -0.2592)">
       <use xlink:href="#DejaVuSans-54"/>
       <use x="63.623047" xlink:href="#DejaVuSans-48"/>
       <use x="127.246094" xlink:href="#DejaVuSans-48"/>
       <use x="190.869141" xlink:href="#DejaVuSans-48"/>
       <use x="254.492188" xlink:href="#DejaVuSans-48"/>
      </g>
     </g>
    </g>
    <g id="xtick_5">
     <g id="line2d_5">
      <g>
       <use style="stroke:#000000;stroke-width:0.8;" x="648" xlink:href="#m4a5a89d01f" y="480.6"/>
      </g>
     </g>
     <g id="text_5">
      <!-- 80000 -->
      <defs>
       <path d="M 31.78125 34.625 
Q 24.75 34.625 20.71875 30.859375 
Q 16.703125 27.09375 16.703125 20.515625 
Q 16.703125 13.921875 20.71875 10.15625 
Q 24.75 6.390625 31.78125 6.390625 
Q 38.8125 6.390625 42.859375 10.171875 
Q 46.921875 13.96875 46.921875 20.515625 
Q 46.921875 27.09375 42.890625 30.859375 
Q 38.875 34.625 31.78125 34.625 
z
M 21.921875 38.8125 
Q 15.578125 40.375 12.03125 44.71875 
Q 8.5 49.078125 8.5 55.328125 
Q 8.5 64.0625 14.71875 69.140625 
Q 20.953125 74.21875 31.78125 74.21875 
Q 42.671875 74.21875 48.875 69.140625 
Q 55.078125 64.0625 55.078125 55.328125 
Q 55.078125 49.078125 51.53125 44.71875 
Q 48 40.375 41.703125 38.8125 
Q 48.828125 37.15625 52.796875 32.3125 
Q 56.78125 27.484375 56.78125 20.515625 
Q 56.78125 9.90625 50.3125 4.234375 
Q 43.84375 -1.421875 31.78125 -1.421875 
Q 19.734375 -1.421875 13.25 4.234375 
Q 6.78125 9.90625 6.78125 20.515625 
Q 6.78125 27.484375 10.78125 32.3125 
Q 14.796875 37.15625 21.921875 38.8125 
z
M 18.3125 54.390625 
Q 18.3125 48.734375 21.84375 45.5625 
Q 25.390625 42.390625 31.78125 42.390625 
Q 38.140625 42.390625 41.71875 45.5625 
Q 45.3125 48.734375 45.3125 54.390625 
Q 45.3125 60.0625 41.71875 63.234375 
Q 38.140625 66.40625 31.78125 66.40625 
Q 25.390625 66.40625 21.84375 63.234375 
Q 18.3125 60.0625 18.3125 54.390625 
z
" id="DejaVuSans-56"/>
      </defs>
      <g transform="translate(606.771 507.29515)scale(0.2592 -0.2592)">
       <use xlink:href="#DejaVuSans-56"/>
       <use x="63.623047" xlink:href="#DejaVuSans-48"/>
       <use x="127.246094" xlink:href="#DejaVuSans-48"/>
       <use x="190.869141" xlink:href="#DejaVuSans-48"/>
       <use x="254.492188" xlink:href="#DejaVuSans-48"/>
      </g>
     </g>
    </g>
    <g id="text_6">
     <!-- TotalCharge3D -->
     <defs>
      <path d="M -0.296875 72.90625 
L 61.375 72.90625 
L 61.375 64.59375 
L 35.5 64.59375 
L 35.5 0 
L 25.59375 0 
L 25.59375 64.59375 
L -0.296875 64.59375 
z
" id="DejaVuSans-84"/>
      <path d="M 30.609375 48.390625 
Q 23.390625 48.390625 19.1875 42.75 
Q 14.984375 37.109375 14.984375 27.296875 
Q 14.984375 17.484375 19.15625 11.84375 
Q 23.34375 6.203125 30.609375 6.203125 
Q 37.796875 6.203125 41.984375 11.859375 
Q 46.1875 17.53125 46.1875 27.296875 
Q 46.1875 37.015625 41.984375 42.703125 
Q 37.796875 48.390625 30.609375 48.390625 
z
M 30.609375 56 
Q 42.328125 56 49.015625 48.375 
Q 55.71875 40.765625 55.71875 27.296875 
Q 55.71875 13.875 49.015625 6.21875 
Q 42.328125 -1.421875 30.609375 -1.421875 
Q 18.84375 -1.421875 12.171875 6.21875 
Q 5.515625 13.875 5.515625 27.296875 
Q 5.515625 40.765625 12.171875 48.375 
Q 18.84375 56 30.609375 56 
z
" id="DejaVuSans-111"/>
      <path d="M 18.3125 70.21875 
L 18.3125 54.6875 
L 36.8125 54.6875 
L 36.8125 47.703125 
L 18.3125 47.703125 
L 18.3125 18.015625 
Q 18.3125 11.328125 20.140625 9.421875 
Q 21.96875 7.515625 27.59375 7.515625 
L 36.8125 7.515625 
L 36.8125 0 
L 27.59375 0 
Q 17.1875 0 13.234375 3.875 
Q 9.28125 7.765625 9.28125 18.015625 
L 9.28125 47.703125 
L 2.6875 47.703125 
L 2.6875 54.6875 
L 9.28125 54.6875 
L 9.28125 70.21875 
z
" id="DejaVuSans-116"/>
      <path d="M 34.28125 27.484375 
Q 23.390625 27.484375 19.1875 25 
Q 14.984375 22.515625 14.984375 16.5 
Q 14.984375 11.71875 18.140625 8.90625 
Q 21.296875 6.109375 26.703125 6.109375 
Q 34.1875 6.109375 38.703125 11.40625 
Q 43.21875 16.703125 43.21875 25.484375 
L 43.21875 27.484375 
z
M 52.203125 31.203125 
L 52.203125 0 
L 43.21875 0 
L 43.21875 8.296875 
Q 40.140625 3.328125 35.546875 0.953125 
Q 30.953125 -1.421875 24.3125 -1.421875 
Q 15.921875 -1.421875 10.953125 3.296875 
Q 6 8.015625 6 15.921875 
Q 6 25.140625 12.171875 29.828125 
Q 18.359375 34.515625 30.609375 34.515625 
L 43.21875 34.515625 
L 43.21875 35.40625 
Q 43.21875 41.609375 39.140625 45 
Q 35.0625 48.390625 27.6875 48.390625 
Q 23 48.390625 18.546875 47.265625 
Q 14.109375 46.140625 10.015625 43.890625 
L 10.015625 52.203125 
Q 14.9375 54.109375 19.578125 55.046875 
Q 24.21875 56 28.609375 56 
Q 40.484375 56 46.34375 49.84375 
Q 52.203125 43.703125 52.203125 31.203125 
z
" id="DejaVuSans-97"/>
      <path d="M 9.421875 75.984375 
L 18.40625 75.984375 
L 18.40625 0 
L 9.421875 0 
z
" id="DejaVuSans-108"/>
      <path d="M 64.40625 67.28125 
L 64.40625 56.890625 
Q 59.421875 61.53125 53.78125 63.8125 
Q 48.140625 66.109375 41.796875 66.109375 
Q 29.296875 66.109375 22.65625 58.46875 
Q 16.015625 50.828125 16.015625 36.375 
Q 16.015625 21.96875 22.65625 14.328125 
Q 29.296875 6.6875 41.796875 6.6875 
Q 48.140625 6.6875 53.78125 8.984375 
Q 59.421875 11.28125 64.40625 15.921875 
L 64.40625 5.609375 
Q 59.234375 2.09375 53.4375 0.328125 
Q 47.65625 -1.421875 41.21875 -1.421875 
Q 24.65625 -1.421875 15.125 8.703125 
Q 5.609375 18.84375 5.609375 36.375 
Q 5.609375 53.953125 15.125 64.078125 
Q 24.65625 74.21875 41.21875 74.21875 
Q 47.75 74.21875 53.53125 72.484375 
Q 59.328125 70.75 64.40625 67.28125 
z
" id="DejaVuSans-67"/>
      <path d="M 54.890625 33.015625 
L 54.890625 0 
L 45.90625 0 
L 45.90625 32.71875 
Q 45.90625 40.484375 42.875 44.328125 
Q 39.84375 48.1875 33.796875 48.1875 
Q 26.515625 48.1875 22.3125 43.546875 
Q 18.109375 38.921875 18.109375 30.90625 
L 18.109375 0 
L 9.078125 0 
L 9.078125 75.984375 
L 18.109375 75.984375 
L 18.109375 46.1875 
Q 21.34375 51.125 25.703125 53.5625 
Q 30.078125 56 35.796875 56 
Q 45.21875 56 50.046875 50.171875 
Q 54.890625 44.34375 54.890625 33.015625 
z
" id="DejaVuSans-104"/>
      <path d="M 41.109375 46.296875 
Q 39.59375 47.171875 37.8125 47.578125 
Q 36.03125 48 33.890625 48 
Q 26.265625 48 22.1875 43.046875 
Q 18.109375 38.09375 18.109375 28.8125 
L 18.109375 0 
L 9.078125 0 
L 9.078125 54.6875 
L 18.109375 54.6875 
L 18.109375 46.1875 
Q 20.953125 51.171875 25.484375 53.578125 
Q 30.03125 56 36.53125 56 
Q 37.453125 56 38.578125 55.875 
Q 39.703125 55.765625 41.0625 55.515625 
z
" id="DejaVuSans-114"/>
      <path d="M 45.40625 27.984375 
Q 45.40625 37.75 41.375 43.109375 
Q 37.359375 48.484375 30.078125 48.484375 
Q 22.859375 48.484375 18.828125 43.109375 
Q 14.796875 37.75 14.796875 27.984375 
Q 14.796875 18.265625 18.828125 12.890625 
Q 22.859375 7.515625 30.078125 7.515625 
Q 37.359375 7.515625 41.375 12.890625 
Q 45.40625 18.265625 45.40625 27.984375 
z
M 54.390625 6.78125 
Q 54.390625 -7.171875 48.1875 -13.984375 
Q 42 -20.796875 29.203125 -20.796875 
Q 24.46875 -20.796875 20.265625 -20.09375 
Q 16.0625 -19.390625 12.109375 -17.921875 
L 12.109375 -9.1875 
Q 16.0625 -11.328125 19.921875 -12.34375 
Q 23.78125 -13.375 27.78125 -13.375 
Q 36.625 -13.375 41.015625 -8.765625 
Q 45.40625 -4.15625 45.40625 5.171875 
L 45.40625 9.625 
Q 42.625 4.78125 38.28125 2.390625 
Q 33.9375 0 27.875 0 
Q 17.828125 0 11.671875 7.65625 
Q 5.515625 15.328125 5.515625 27.984375 
Q 5.515625 40.671875 11.671875 48.328125 
Q 17.828125 56 27.875 56 
Q 33.9375 56 38.28125 53.609375 
Q 42.625 51.21875 45.40625 46.390625 
L 45.40625 54.6875 
L 54.390625 54.6875 
z
" id="DejaVuSans-103"/>
      <path d="M 56.203125 29.59375 
L 56.203125 25.203125 
L 14.890625 25.203125 
Q 15.484375 15.921875 20.484375 11.0625 
Q 25.484375 6.203125 34.421875 6.203125 
Q 39.59375 6.203125 44.453125 7.46875 
Q 49.3125 8.734375 54.109375 11.28125 
L 54.109375 2.78125 
Q 49.265625 0.734375 44.1875 -0.34375 
Q 39.109375 -1.421875 33.890625 -1.421875 
Q 20.796875 -1.421875 13.15625 6.1875 
Q 5.515625 13.8125 5.515625 26.8125 
Q 5.515625 40.234375 12.765625 48.109375 
Q 20.015625 56 32.328125 56 
Q 43.359375 56 49.78125 48.890625 
Q 56.203125 41.796875 56.203125 29.59375 
z
M 47.21875 32.234375 
Q 47.125 39.59375 43.09375 43.984375 
Q 39.0625 48.390625 32.421875 48.390625 
Q 24.90625 48.390625 20.390625 44.140625 
Q 15.875 39.890625 15.1875 32.171875 
z
" id="DejaVuSans-101"/>
      <path d="M 40.578125 39.3125 
Q 47.65625 37.796875 51.625 33 
Q 55.609375 28.21875 55.609375 21.1875 
Q 55.609375 10.40625 48.1875 4.484375 
Q 40.765625 -1.421875 27.09375 -1.421875 
Q 22.515625 -1.421875 17.65625 -0.515625 
Q 12.796875 0.390625 7.625 2.203125 
L 7.625 11.71875 
Q 11.71875 9.328125 16.59375 8.109375 
Q 21.484375 6.890625 26.8125 6.890625 
Q 36.078125 6.890625 40.9375 10.546875 
Q 45.796875 14.203125 45.796875 21.1875 
Q 45.796875 27.640625 41.28125 31.265625 
Q 36.765625 34.90625 28.71875 34.90625 
L 20.21875 34.90625 
L 20.21875 43.015625 
L 29.109375 43.015625 
Q 36.375 43.015625 40.234375 45.921875 
Q 44.09375 48.828125 44.09375 54.296875 
Q 44.09375 59.90625 40.109375 62.90625 
Q 36.140625 65.921875 28.71875 65.921875 
Q 24.65625 65.921875 20.015625 65.03125 
Q 15.375 64.15625 9.8125 62.3125 
L 9.8125 71.09375 
Q 15.4375 72.65625 20.34375 73.4375 
Q 25.25 74.21875 29.59375 74.21875 
Q 40.828125 74.21875 47.359375 69.109375 
Q 53.90625 64.015625 53.90625 55.328125 
Q 53.90625 49.265625 50.4375 45.09375 
Q 46.96875 40.921875 40.578125 39.3125 
z
" id="DejaVuSans-51"/>
      <path d="M 19.671875 64.796875 
L 19.671875 8.109375 
L 31.59375 8.109375 
Q 46.6875 8.109375 53.6875 14.9375 
Q 60.6875 21.78125 60.6875 36.53125 
Q 60.6875 51.171875 53.6875 57.984375 
Q 46.6875 64.796875 31.59375 64.796875 
z
M 9.8125 72.90625 
L 30.078125 72.90625 
Q 51.265625 72.90625 61.171875 64.09375 
Q 71.09375 55.28125 71.09375 36.53125 
Q 71.09375 17.671875 61.125 8.828125 
Q 51.171875 0 30.078125 0 
L 9.8125 0 
z
" id="DejaVuSans-68"/>
     </defs>
     <g transform="translate(271.607625 536.38085)scale(0.2592 -0.2592)">
      <use xlink:href="#DejaVuSans-84"/>
      <use x="60.818359" xlink:href="#DejaVuSans-111"/>
      <use x="122" xlink:href="#DejaVuSans-116"/>
      <use x="161.208984" xlink:href="#DejaVuSans-97"/>
      <use x="222.488281" xlink:href="#DejaVuSans-108"/>
      <use x="250.271484" xlink:href="#DejaVuSans-67"/>
      <use x="320.095703" xlink:href="#DejaVuSans-104"/>
      <use x="383.474609" xlink:href="#DejaVuSans-97"/>
      <use x="444.753906" xlink:href="#DejaVuSans-114"/>
      <use x="485.851562" xlink:href="#DejaVuSans-103"/>
      <use x="549.328125" xlink:href="#DejaVuSans-101"/>
      <use x="610.851562" xlink:href="#DejaVuSans-51"/>
      <use x="674.474609" xlink:href="#DejaVuSans-68"/>
     </g>
    </g>
   </g>
   <g id="matplotlib.axis_2">
    <g id="ytick_1">
     <g id="line2d_6">
      <defs>
       <path d="M 0 0 
L -3.5 0 
" id="md519dd82f6" style="stroke:#000000;stroke-width:0.8;"/>
      </defs>
      <g>
       <use style="stroke:#000000;stroke-width:0.8;" x="90" xlink:href="#md519dd82f6" y="437.987687"/>
      </g>
     </g>
     <g id="text_7">
      <!-- $\mathdefault{10^{-4}}$ -->
      <defs>
       <path d="M 12.40625 8.296875 
L 28.515625 8.296875 
L 28.515625 63.921875 
L 10.984375 60.40625 
L 10.984375 69.390625 
L 28.421875 72.90625 
L 38.28125 72.90625 
L 38.28125 8.296875 
L 54.390625 8.296875 
L 54.390625 0 
L 12.40625 0 
z
" id="DejaVuSans-49"/>
       <path d="M 10.59375 35.5 
L 73.1875 35.5 
L 73.1875 27.203125 
L 10.59375 27.203125 
z
" id="DejaVuSans-8722"/>
      </defs>
      <g transform="translate(22.088 447.835262)scale(0.2592 -0.2592)">
       <use transform="translate(0 0.684375)" xlink:href="#DejaVuSans-49"/>
       <use transform="translate(63.623047 0.684375)" xlink:href="#DejaVuSans-48"/>
       <use transform="translate(128.203125 38.965625)scale(0.7)" xlink:href="#DejaVuSans-8722"/>
       <use transform="translate(186.855469 38.965625)scale(0.7)" xlink:href="#DejaVuSans-52"/>
      </g>
     </g>
    </g>
    <g id="ytick_2">
     <g id="line2d_7">
      <g>
       <use style="stroke:#000000;stroke-width:0.8;" x="90" xlink:href="#md519dd82f6" y="327.440493"/>
      </g>
     </g>
     <g id="text_8">
      <!-- $\mathdefault{10^{-3}}$ -->
      <g transform="translate(22.088 337.288068)scale(0.2592 -0.2592)">
       <use transform="translate(0 0.765625)" xlink:href="#DejaVuSans-49"/>
       <use transform="translate(63.623047 0.765625)" xlink:href="#DejaVuSans-48"/>
       <use transform="translate(128.203125 39.046875)scale(0.7)" xlink:href="#DejaVuSans-8722"/>
       <use transform="translate(186.855469 39.046875)scale(0.7)" xlink:href="#DejaVuSans-51"/>
      </g>
     </g>
    </g>
    <g id="ytick_3">
     <g id="line2d_8">
      <g>
       <use style="stroke:#000000;stroke-width:0.8;" x="90" xlink:href="#md519dd82f6" y="216.893298"/>
      </g>
     </g>
     <g id="text_9">
      <!-- $\mathdefault{10^{-2}}$ -->
      <g transform="translate(22.088 226.740873)scale(0.2592 -0.2592)">
       <use transform="translate(0 0.765625)" xlink:href="#DejaVuSans-49"/>
       <use transform="translate(63.623047 0.765625)" xlink:href="#DejaVuSans-48"/>
       <use transform="translate(128.203125 39.046875)scale(0.7)" xlink:href="#DejaVuSans-8722"/>
       <use transform="translate(186.855469 39.046875)scale(0.7)" xlink:href="#DejaVuSans-50"/>
      </g>
     </g>
    </g>
    <g id="ytick_4">
     <g id="line2d_9">
      <g>
       <use style="stroke:#000000;stroke-width:0.8;" x="90" xlink:href="#md519dd82f6" y="106.346104"/>
      </g>
     </g>
     <g id="text_10">
      <!-- $\mathdefault{10^{-1}}$ -->
      <g transform="translate(22.088 116.193679)scale(0.2592 -0.2592)">
       <use transform="translate(0 0.684375)" xlink:href="#DejaVuSans-49"/>
       <use transform="translate(63.623047 0.684375)" xlink:href="#DejaVuSans-48"/>
       <use transform="translate(128.203125 38.965625)scale(0.7)" xlink:href="#DejaVuSans-8722"/>
       <use transform="translate(186.855469 38.965625)scale(0.7)" xlink:href="#DejaVuSans-49"/>
      </g>
     </g>
    </g>
    <g id="ytick_5">
     <g id="line2d_10">
      <defs>
       <path d="M 0 0 
L -2 0 
" id="m19eeb9344b" style="stroke:#000000;stroke-width:0.6;"/>
      </defs>
      <g>
       <use style="stroke:#000000;stroke-width:0.6;" x="90" xlink:href="#m19eeb9344b" y="471.265709"/>
      </g>
     </g>
    </g>
    <g id="ytick_6">
     <g id="line2d_11">
      <g>
       <use style="stroke:#000000;stroke-width:0.6;" x="90" xlink:href="#m19eeb9344b" y="462.512444"/>
      </g>
     </g>
    </g>
    <g id="ytick_7">
     <g id="line2d_12">
      <g>
       <use style="stroke:#000000;stroke-width:0.6;" x="90" xlink:href="#m19eeb9344b" y="455.111664"/>
      </g>
     </g>
    </g>
    <g id="ytick_8">
     <g id="line2d_13">
      <g>
       <use style="stroke:#000000;stroke-width:0.6;" x="90" xlink:href="#m19eeb9344b" y="448.700817"/>
      </g>
     </g>
    </g>
    <g id="ytick_9">
     <g id="line2d_14">
      <g>
       <use style="stroke:#000000;stroke-width:0.6;" x="90" xlink:href="#m19eeb9344b" y="443.046049"/>
      </g>
     </g>
    </g>
    <g id="ytick_10">
     <g id="line2d_15">
      <g>
       <use style="stroke:#000000;stroke-width:0.6;" x="90" xlink:href="#m19eeb9344b" y="404.709666"/>
      </g>
     </g>
    </g>
    <g id="ytick_11">
     <g id="line2d_16">
      <g>
       <use style="stroke:#000000;stroke-width:0.6;" x="90" xlink:href="#m19eeb9344b" y="385.243271"/>
      </g>
     </g>
    </g>
    <g id="ytick_12">
     <g id="line2d_17">
      <g>
       <use style="stroke:#000000;stroke-width:0.6;" x="90" xlink:href="#m19eeb9344b" y="371.431644"/>
      </g>
     </g>
    </g>
    <g id="ytick_13">
     <g id="line2d_18">
      <g>
       <use style="stroke:#000000;stroke-width:0.6;" x="90" xlink:href="#m19eeb9344b" y="360.718514"/>
      </g>
     </g>
    </g>
    <g id="ytick_14">
     <g id="line2d_19">
      <g>
       <use style="stroke:#000000;stroke-width:0.6;" x="90" xlink:href="#m19eeb9344b" y="351.96525"/>
      </g>
     </g>
    </g>
    <g id="ytick_15">
     <g id="line2d_20">
      <g>
       <use style="stroke:#000000;stroke-width:0.6;" x="90" xlink:href="#m19eeb9344b" y="344.56447"/>
      </g>
     </g>
    </g>
    <g id="ytick_16">
     <g id="line2d_21">
      <g>
       <use style="stroke:#000000;stroke-width:0.6;" x="90" xlink:href="#m19eeb9344b" y="338.153623"/>
      </g>
     </g>
    </g>
    <g id="ytick_17">
     <g id="line2d_22">
      <g>
       <use style="stroke:#000000;stroke-width:0.6;" x="90" xlink:href="#m19eeb9344b" y="332.498855"/>
      </g>
     </g>
    </g>
    <g id="ytick_18">
     <g id="line2d_23">
      <g>
       <use style="stroke:#000000;stroke-width:0.6;" x="90" xlink:href="#m19eeb9344b" y="294.162471"/>
      </g>
     </g>
    </g>
    <g id="ytick_19">
     <g id="line2d_24">
      <g>
       <use style="stroke:#000000;stroke-width:0.6;" x="90" xlink:href="#m19eeb9344b" y="274.696077"/>
      </g>
     </g>
    </g>
    <g id="ytick_20">
     <g id="line2d_25">
      <g>
       <use style="stroke:#000000;stroke-width:0.6;" x="90" xlink:href="#m19eeb9344b" y="260.88445"/>
      </g>
     </g>
    </g>
    <g id="ytick_21">
     <g id="line2d_26">
      <g>
       <use style="stroke:#000000;stroke-width:0.6;" x="90" xlink:href="#m19eeb9344b" y="250.17132"/>
      </g>
     </g>
    </g>
    <g id="ytick_22">
     <g id="line2d_27">
      <g>
       <use style="stroke:#000000;stroke-width:0.6;" x="90" xlink:href="#m19eeb9344b" y="241.418055"/>
      </g>
     </g>
    </g>
    <g id="ytick_23">
     <g id="line2d_28">
      <g>
       <use style="stroke:#000000;stroke-width:0.6;" x="90" xlink:href="#m19eeb9344b" y="234.017275"/>
      </g>
     </g>
    </g>
    <g id="ytick_24">
     <g id="line2d_29">
      <g>
       <use style="stroke:#000000;stroke-width:0.6;" x="90" xlink:href="#m19eeb9344b" y="227.606428"/>
      </g>
     </g>
    </g>
    <g id="ytick_25">
     <g id="line2d_30">
      <g>
       <use style="stroke:#000000;stroke-width:0.6;" x="90" xlink:href="#m19eeb9344b" y="221.95166"/>
      </g>
     </g>
    </g>
    <g id="ytick_26">
     <g id="line2d_31">
      <g>
       <use style="stroke:#000000;stroke-width:0.6;" x="90" xlink:href="#m19eeb9344b" y="183.615277"/>
      </g>
     </g>
    </g>
    <g id="ytick_27">
     <g id="line2d_32">
      <g>
       <use style="stroke:#000000;stroke-width:0.6;" x="90" xlink:href="#m19eeb9344b" y="164.148882"/>
      </g>
     </g>
    </g>
    <g id="ytick_28">
     <g id="line2d_33">
      <g>
       <use style="stroke:#000000;stroke-width:0.6;" x="90" xlink:href="#m19eeb9344b" y="150.337255"/>
      </g>
     </g>
    </g>
    <g id="ytick_29">
     <g id="line2d_34">
      <g>
       <use style="stroke:#000000;stroke-width:0.6;" x="90" xlink:href="#m19eeb9344b" y="139.624125"/>
      </g>
     </g>
    </g>
    <g id="ytick_30">
     <g id="line2d_35">
      <g>
       <use style="stroke:#000000;stroke-width:0.6;" x="90" xlink:href="#m19eeb9344b" y="130.870861"/>
      </g>
     </g>
    </g>
    <g id="ytick_31">
     <g id="line2d_36">
      <g>
       <use style="stroke:#000000;stroke-width:0.6;" x="90" xlink:href="#m19eeb9344b" y="123.470081"/>
      </g>
     </g>
    </g>
    <g id="ytick_32">
     <g id="line2d_37">
      <g>
       <use style="stroke:#000000;stroke-width:0.6;" x="90" xlink:href="#m19eeb9344b" y="117.059234"/>
      </g>
     </g>
    </g>
    <g id="ytick_33">
     <g id="line2d_38">
      <g>
       <use style="stroke:#000000;stroke-width:0.6;" x="90" xlink:href="#m19eeb9344b" y="111.404466"/>
      </g>
     </g>
    </g>
    <g id="ytick_34">
     <g id="line2d_39">
      <g>
       <use style="stroke:#000000;stroke-width:0.6;" x="90" xlink:href="#m19eeb9344b" y="73.068082"/>
      </g>
     </g>
    </g>
    <g id="text_11">
     <!-- Probability -->
     <defs>
      <path d="M 19.671875 64.796875 
L 19.671875 37.40625 
L 32.078125 37.40625 
Q 38.96875 37.40625 42.71875 40.96875 
Q 46.484375 44.53125 46.484375 51.125 
Q 46.484375 57.671875 42.71875 61.234375 
Q 38.96875 64.796875 32.078125 64.796875 
z
M 9.8125 72.90625 
L 32.078125 72.90625 
Q 44.34375 72.90625 50.609375 67.359375 
Q 56.890625 61.8125 56.890625 51.125 
Q 56.890625 40.328125 50.609375 34.8125 
Q 44.34375 29.296875 32.078125 29.296875 
L 19.671875 29.296875 
L 19.671875 0 
L 9.8125 0 
z
" id="DejaVuSans-80"/>
      <path d="M 48.6875 27.296875 
Q 48.6875 37.203125 44.609375 42.84375 
Q 40.53125 48.484375 33.40625 48.484375 
Q 26.265625 48.484375 22.1875 42.84375 
Q 18.109375 37.203125 18.109375 27.296875 
Q 18.109375 17.390625 22.1875 11.75 
Q 26.265625 6.109375 33.40625 6.109375 
Q 40.53125 6.109375 44.609375 11.75 
Q 48.6875 17.390625 48.6875 27.296875 
z
M 18.109375 46.390625 
Q 20.953125 51.265625 25.265625 53.625 
Q 29.59375 56 35.59375 56 
Q 45.5625 56 51.78125 48.09375 
Q 58.015625 40.1875 58.015625 27.296875 
Q 58.015625 14.40625 51.78125 6.484375 
Q 45.5625 -1.421875 35.59375 -1.421875 
Q 29.59375 -1.421875 25.265625 0.953125 
Q 20.953125 3.328125 18.109375 8.203125 
L 18.109375 0 
L 9.078125 0 
L 9.078125 75.984375 
L 18.109375 75.984375 
z
" id="DejaVuSans-98"/>
      <path d="M 9.421875 54.6875 
L 18.40625 54.6875 
L 18.40625 0 
L 9.421875 0 
z
M 9.421875 75.984375 
L 18.40625 75.984375 
L 18.40625 64.59375 
L 9.421875 64.59375 
z
" id="DejaVuSans-105"/>
      <path d="M 32.171875 -5.078125 
Q 28.375 -14.84375 24.75 -17.8125 
Q 21.140625 -20.796875 15.09375 -20.796875 
L 7.90625 -20.796875 
L 7.90625 -13.28125 
L 13.1875 -13.28125 
Q 16.890625 -13.28125 18.9375 -11.515625 
Q 21 -9.765625 23.484375 -3.21875 
L 25.09375 0.875 
L 2.984375 54.6875 
L 12.5 54.6875 
L 29.59375 11.921875 
L 46.6875 54.6875 
L 56.203125 54.6875 
z
" id="DejaVuSans-121"/>
     </defs>
     <g transform="translate(12.69745 341.71605)rotate(-90)scale(0.2592 -0.2592)">
      <use xlink:href="#DejaVuSans-80"/>
      <use x="60.287109" xlink:href="#DejaVuSans-114"/>
      <use x="101.369141" xlink:href="#DejaVuSans-111"/>
      <use x="162.550781" xlink:href="#DejaVuSans-98"/>
      <use x="226.027344" xlink:href="#DejaVuSans-97"/>
      <use x="287.306641" xlink:href="#DejaVuSans-98"/>
      <use x="350.783203" xlink:href="#DejaVuSans-105"/>
      <use x="378.566406" xlink:href="#DejaVuSans-108"/>
      <use x="406.349609" xlink:href="#DejaVuSans-105"/>
      <use x="434.132812" xlink:href="#DejaVuSans-116"/>
      <use x="473.341797" xlink:href="#DejaVuSans-121"/>
     </g>
    </g>
   </g>
   <g id="line2d_40">
    <path clip-path="url(#p077af8d4fe)" d="M 112.77551 541 
L 112.77551 288.351417 
L 124.163265 288.351417 
L 124.163265 188.517352 
L 135.55102 188.517352 
L 135.55102 122.464037 
L 146.938776 122.464037 
L 146.938776 88.683288 
L 158.326531 88.683288 
L 158.326531 83.7 
L 169.714286 83.7 
L 169.714286 98.652061 
L 181.102041 98.652061 
L 181.102041 126.138729 
L 192.489796 126.138729 
L 192.489796 139.950356 
L 203.877551 139.950356 
L 203.877551 155.239331 
L 215.265306 155.239331 
L 215.265306 182.862584 
L 226.653061 182.862584 
L 226.653061 197.270617 
L 238.040816 197.270617 
L 238.040816 205.073157 
L 249.428571 205.073157 
L 249.428571 188.517352 
L 260.816327 188.517352 
L 260.816327 182.862584 
L 272.204082 182.862584 
L 272.204082 230.548638 
L 283.591837 230.548638 
L 283.591837 214.394594 
L 294.979592 214.394594 
L 294.979592 288.351417 
L 306.367347 288.351417 
L 306.367347 214.394594 
L 317.755102 214.394594 
L 317.755102 241.261768 
L 329.142857 241.261768 
L 329.142857 235.607001 
L 340.530612 235.607001 
L 340.530612 221.795374 
L 351.918367 221.795374 
L 351.918367 241.261768 
L 363.306122 241.261768 
L 363.306122 288.351417 
L 374.693878 288.351417 
L 374.693878 288.351417 
L 386.081633 288.351417 
L 386.081633 247.672615 
L 397.469388 247.672615 
L 397.469388 274.53979 
L 408.857143 274.53979 
L 408.857143 307.817811 
L 420.244898 307.817811 
L 420.244898 255.073395 
L 431.632653 255.073395 
L 431.632653 288.351417 
L 443.020408 288.351417 
L 443.020408 288.351417 
L 454.408163 288.351417 
L 454.408163 288.351417 
L 465.795918 288.351417 
L 465.795918 241.261768 
L 477.183673 241.261768 
L 477.183673 307.817811 
L 488.571429 307.817811 
L 488.571429 247.672615 
L 499.959184 247.672615 
L 499.959184 274.53979 
L 511.346939 274.53979 
L 511.346939 274.53979 
L 522.734694 274.53979 
L 522.734694 307.817811 
L 534.122449 307.817811 
L 534.122449 307.817811 
L 545.510204 307.817811 
L 545.510204 288.351417 
L 556.897959 288.351417 
L 556.897959 274.53979 
L 568.285714 274.53979 
L 568.285714 307.817811 
L 579.673469 307.817811 
L 579.673469 288.351417 
L 591.061224 288.351417 
L 591.061224 541 
M 602.44898 541 
L 602.44898 307.817811 
L 613.836735 307.817811 
L 613.836735 541 
M 636.612245 541 
L 636.612245 263.82666 
L 648 263.82666 
" style="fill:none;stroke:#1f77b4;stroke-linecap:square;stroke-width:1.5;"/>
   </g>
   <g id="line2d_41">
    <path clip-path="url(#p077af8d4fe)" d="M 124.163265 541 
L 124.163265 341.095833 
L 135.55102 341.095833 
L 135.55102 307.817811 
L 146.938776 307.817811 
L 146.938776 255.073395 
L 158.326531 255.073395 
L 158.326531 263.82666 
L 169.714286 263.82666 
L 169.714286 288.351417 
L 181.102041 288.351417 
L 181.102041 288.351417 
L 192.489796 288.351417 
L 192.489796 255.073395 
L 203.877551 255.073395 
L 203.877551 263.82666 
L 215.265306 263.82666 
L 215.265306 274.53979 
L 226.653061 274.53979 
L 226.653061 241.261768 
L 238.040816 241.261768 
L 238.040816 274.53979 
L 249.428571 274.53979 
L 249.428571 255.073395 
L 260.816327 255.073395 
L 260.816327 230.548638 
L 272.204082 230.548638 
L 272.204082 288.351417 
L 283.591837 288.351417 
L 283.591837 263.82666 
L 294.979592 263.82666 
L 294.979592 307.817811 
L 306.367347 307.817811 
L 306.367347 241.261768 
L 317.755102 241.261768 
L 317.755102 274.53979 
L 329.142857 274.53979 
L 329.142857 288.351417 
L 340.530612 288.351417 
L 340.530612 247.672615 
L 351.918367 247.672615 
L 351.918367 263.82666 
L 363.306122 263.82666 
L 363.306122 288.351417 
L 374.693878 288.351417 
L 374.693878 341.095833 
L 386.081633 341.095833 
L 386.081633 288.351417 
L 397.469388 288.351417 
L 397.469388 288.351417 
L 408.857143 288.351417 
L 408.857143 341.095833 
L 420.244898 341.095833 
L 420.244898 255.073395 
L 431.632653 255.073395 
L 431.632653 307.817811 
L 443.020408 307.817811 
L 443.020408 288.351417 
L 454.408163 288.351417 
L 454.408163 307.817811 
L 465.795918 307.817811 
L 465.795918 241.261768 
L 477.183673 241.261768 
L 477.183673 341.095833 
L 488.571429 341.095833 
L 488.571429 255.073395 
L 499.959184 255.073395 
L 499.959184 274.53979 
L 511.346939 274.53979 
L 511.346939 274.53979 
L 522.734694 274.53979 
L 522.734694 307.817811 
L 534.122449 307.817811 
L 534.122449 307.817811 
L 545.510204 307.817811 
L 545.510204 288.351417 
L 556.897959 288.351417 
L 556.897959 274.53979 
L 568.285714 274.53979 
L 568.285714 307.817811 
L 579.673469 307.817811 
L 579.673469 288.351417 
L 591.061224 288.351417 
L 591.061224 541 
M 602.44898 541 
L 602.44898 341.095833 
L 613.836735 341.095833 
L 613.836735 541 
M 636.612245 541 
L 636.612245 274.53979 
L 648 274.53979 
" style="fill:none;stroke:#ff7f0e;stroke-linecap:square;stroke-width:1.5;"/>
   </g>
   <g id="line2d_42">
    <path clip-path="url(#p077af8d4fe)" d="M 112.77551 541 
L 112.77551 288.351417 
L 124.163265 288.351417 
L 124.163265 190.560641 
L 135.55102 190.560641 
L 135.55102 123.485565 
L 146.938776 123.485565 
L 146.938776 90.207544 
L 158.326531 90.207544 
L 158.326531 84.840435 
L 169.714286 84.840435 
L 169.714286 99.584324 
L 181.102041 99.584324 
L 181.102041 127.803984 
L 192.489796 127.803984 
L 192.489796 144.526201 
L 203.877551 144.526201 
L 203.877551 160.520478 
L 215.265306 160.520478 
L 215.265306 190.560641 
L 226.653061 190.560641 
L 226.653061 221.795374 
L 238.040816 221.795374 
L 238.040816 217.95252 
L 249.428571 217.95252 
L 249.428571 202.328979 
L 260.816327 202.328979 
L 260.816327 205.073157 
L 272.204082 205.073157 
L 272.204082 247.672615 
L 283.591837 247.672615 
L 283.591837 235.607001 
L 294.979592 235.607001 
L 294.979592 341.095833 
L 306.367347 341.095833 
L 306.367347 255.073395 
L 317.755102 255.073395 
L 317.755102 274.53979 
L 329.142857 274.53979 
L 329.142857 255.073395 
L 340.530612 255.073395 
L 340.530612 263.82666 
L 351.918367 263.82666 
L 351.918367 288.351417 
L 363.306122 288.351417 
L 363.306122 541 
M 374.693878 541 
L 374.693878 307.817811 
L 386.081633 307.817811 
L 386.081633 274.53979 
L 397.469388 274.53979 
L 397.469388 341.095833 
L 408.857143 341.095833 
L 408.857143 341.095833 
L 420.244898 341.095833 
L 420.244898 541 
M 431.632653 541 
L 431.632653 341.095833 
L 443.020408 341.095833 
L 443.020408 541 
M 454.408163 541 
L 454.408163 341.095833 
L 465.795918 341.095833 
L 465.795918 541 
M 477.183673 541 
L 477.183673 341.095833 
L 488.571429 341.095833 
L 488.571429 341.095833 
L 499.959184 341.095833 
L 499.959184 541 
M 602.44898 541 
L 602.44898 341.095833 
L 613.836735 341.095833 
L 613.836735 541 
M 636.612245 541 
L 636.612245 341.095833 
L 648 341.095833 
" style="fill:none;stroke:#2ca02c;stroke-linecap:square;stroke-width:1.5;"/>
   </g>
   <g id="line2d_43">
    <path clip-path="url(#p077af8d4fe)" d="M 101.387755 541 
L 101.387755 461.7 
L 112.77551 461.7 
L 112.77551 346.57696 
L 124.163265 346.57696 
L 124.163265 243.068204 
L 135.55102 243.068204 
L 135.55102 196.041768 
L 146.938776 196.041768 
L 146.938776 160.720458 
L 158.326531 160.720458 
L 158.326531 143.487491 
L 169.714286 143.487491 
L 169.714286 139.644638 
L 181.102041 139.644638 
L 181.102041 135.116779 
L 192.489796 135.116779 
L 192.489796 137.523252 
L 203.877551 137.523252 
L 203.877551 135.977968 
L 215.265306 135.977968 
L 215.265306 141.741479 
L 226.653061 141.741479 
L 226.653061 143.044999 
L 238.040816 143.044999 
L 238.040816 146.636819 
L 249.428571 146.636819 
L 249.428571 149.285359 
L 260.816327 149.285359 
L 260.816327 155.06569 
L 272.204082 155.06569 
L 272.204082 160.177966 
L 283.591837 160.177966 
L 283.591837 162.010633 
L 294.979592 162.010633 
L 294.979592 170.913578 
L 306.367347 170.913578 
L 306.367347 170.577451 
L 317.755102 170.577451 
L 317.755102 179.50969 
L 329.142857 179.50969 
L 329.142857 182.277606 
L 340.530612 182.277606 
L 340.530612 179.77941 
L 351.918367 179.77941 
L 351.918367 187.701428 
L 363.306122 187.701428 
L 363.306122 196.422802 
L 374.693878 196.422802 
L 374.693878 198.774785 
L 386.081633 198.774785 
L 386.081633 197.977919 
L 397.469388 197.977919 
L 397.469388 205.90847 
L 408.857143 205.90847 
L 408.857143 210.554284 
L 420.244898 210.554284 
L 420.244898 212.119968 
L 431.632653 212.119968 
L 431.632653 217.444314 
L 443.020408 217.444314 
L 443.020408 213.464874 
L 454.408163 213.464874 
L 454.408163 224.451567 
L 465.795918 224.451567 
L 465.795918 222.766831 
L 477.183673 222.766831 
L 477.183673 230.666853 
L 488.571429 230.666853 
L 488.571429 236.029766 
L 499.959184 236.029766 
L 499.959184 241.575544 
L 511.346939 241.575544 
L 511.346939 242.565477 
L 522.734694 242.565477 
L 522.734694 240.127895 
L 534.122449 240.127895 
L 534.122449 243.576251 
L 545.510204 243.576251 
L 545.510204 253.781334 
L 556.897959 253.781334 
L 556.897959 242.067959 
L 568.285714 242.067959 
L 568.285714 257.048583 
L 579.673469 257.048583 
L 579.673469 257.048583 
L 591.061224 257.048583 
L 591.061224 258.420392 
L 602.44898 258.420392 
L 602.44898 263.556127 
L 613.836735 263.556127 
L 613.836735 262.031871 
L 625.22449 262.031871 
L 625.22449 270.18873 
L 636.612245 270.18873 
L 636.612245 278.941995 
L 648 278.941995 
" style="fill:none;stroke:#d62728;stroke-linecap:square;stroke-width:1.5;"/>
   </g>
   <g id="line2d_44">
    <path clip-path="url(#p077af8d4fe)" d="M 124.163265 541 
L 124.163265 428.421979 
L 135.55102 428.421979 
L 135.55102 428.421979 
L 146.938776 428.421979 
L 146.938776 395.143957 
L 158.326531 395.143957 
L 158.326531 395.143957 
L 169.714286 395.143957 
L 169.714286 384.430827 
L 181.102041 384.430827 
L 181.102041 334.998761 
L 192.489796 334.998761 
L 192.489796 356.211168 
L 203.877551 356.211168 
L 203.877551 356.211168 
L 215.265306 356.211168 
L 215.265306 375.677562 
L 226.653061 375.677562 
L 226.653061 342.399541 
L 238.040816 342.399541 
L 238.040816 375.677562 
L 249.428571 375.677562 
L 249.428571 368.276783 
L 260.816327 368.276783 
L 260.816327 384.430827 
L 272.204082 384.430827 
L 272.204082 356.211168 
L 283.591837 356.211168 
L 283.591837 461.7 
L 294.979592 461.7 
L 294.979592 368.276783 
L 306.367347 368.276783 
L 306.367347 384.430827 
L 317.755102 384.430827 
L 317.755102 375.677562 
L 329.142857 375.677562 
L 329.142857 384.430827 
L 340.530612 384.430827 
L 340.530612 384.430827 
L 351.918367 384.430827 
L 351.918367 408.955584 
L 363.306122 408.955584 
L 363.306122 428.421979 
L 374.693878 428.421979 
L 374.693878 428.421979 
L 386.081633 428.421979 
L 386.081633 408.955584 
L 397.469388 408.955584 
L 397.469388 541 
M 408.857143 541 
L 408.857143 461.7 
L 420.244898 461.7 
L 420.244898 541 
M 431.632653 541 
L 431.632653 428.421979 
L 443.020408 428.421979 
L 443.020408 428.421979 
L 454.408163 428.421979 
L 454.408163 428.421979 
L 465.795918 428.421979 
L 465.795918 395.143957 
L 477.183673 395.143957 
L 477.183673 428.421979 
L 488.571429 428.421979 
L 488.571429 461.7 
L 499.959184 461.7 
L 499.959184 541 
M 522.734694 541 
L 522.734694 461.7 
L 534.122449 461.7 
L 534.122449 541 
M 545.510204 541 
L 545.510204 461.7 
L 556.897959 461.7 
L 556.897959 395.143957 
L 568.285714 395.143957 
L 568.285714 461.7 
L 579.673469 461.7 
L 579.673469 428.421979 
L 591.061224 428.421979 
L 591.061224 461.7 
L 602.44898 461.7 
L 602.44898 541 
M 613.836735 541 
L 613.836735 461.7 
L 625.22449 461.7 
L 625.22449 461.7 
L 636.612245 461.7 
L 636.612245 461.7 
L 648 461.7 
" style="fill:none;stroke:#9467bd;stroke-linecap:square;stroke-width:1.5;"/>
   </g>
   <g id="line2d_45">
    <path clip-path="url(#p077af8d4fe)" d="M 101.387755 541 
L 101.387755 461.7 
L 112.77551 461.7 
L 112.77551 346.57696 
L 124.163265 346.57696 
L 124.163265 244.089733 
L 135.55102 244.089733 
L 135.55102 196.422802 
L 146.938776 196.422802 
L 146.938776 161.085555 
L 158.326531 161.085555 
L 158.326531 143.742187 
L 169.714286 143.742187 
L 169.714286 139.938638 
L 181.102041 139.938638 
L 181.102041 135.869471 
L 192.489796 135.869471 
L 192.489796 138.030703 
L 203.877551 138.030703 
L 203.877551 136.469264 
L 215.265306 136.469264 
L 215.265306 142.110316 
L 226.653061 142.110316 
L 226.653061 143.806073 
L 238.040816 143.806073 
L 238.040816 147.045418 
L 249.428571 147.045418 
L 249.428571 149.789595 
L 260.816327 149.789595 
L 260.816327 155.471526 
L 272.204082 155.471526 
L 272.204082 160.994021 
L 283.591837 160.994021 
L 283.591837 162.104129 
L 294.979592 162.104129 
L 294.979592 171.707151 
L 306.367347 171.707151 
L 306.367347 171.138978 
L 317.755102 171.138978 
L 317.755102 180.323439 
L 329.142857 180.323439 
L 329.142857 182.995258 
L 340.530612 182.995258 
L 340.530612 180.460415 
L 351.918367 180.460415 
L 351.918367 188.182334 
L 363.306122 188.182334 
L 363.306122 196.806885 
L 374.693878 196.806885 
L 374.693878 199.178233 
L 386.081633 199.178233 
L 386.081633 198.574325 
L 397.469388 198.574325 
L 397.469388 205.90847 
L 408.857143 205.90847 
L 408.857143 210.811711 
L 420.244898 210.811711 
L 420.244898 212.119968 
L 431.632653 212.119968 
L 431.632653 218.04072 
L 443.020408 218.04072 
L 443.020408 214.013567 
L 454.408163 214.013567 
L 454.408163 225.142371 
L 465.795918 225.142371 
L 465.795918 224.109857 
L 477.183673 224.109857 
L 477.183673 231.453921 
L 488.571429 231.453921 
L 488.571429 236.468217 
L 499.959184 236.468217 
L 499.959184 241.575544 
L 511.346939 241.575544 
L 511.346939 242.565477 
L 522.734694 242.565477 
L 522.734694 240.605611 
L 534.122449 240.605611 
L 534.122449 243.576251 
L 545.510204 243.576251 
L 545.510204 254.417238 
L 556.897959 254.417238 
L 556.897959 244.089733 
L 568.285714 244.089733 
L 568.285714 257.729588 
L 579.673469 257.729588 
L 579.673469 258.420392 
L 591.061224 258.420392 
L 591.061224 259.121281 
L 602.44898 259.121281 
L 602.44898 263.556127 
L 613.836735 263.556127 
L 613.836735 262.78795 
L 625.22449 262.78795 
L 625.22449 271.08614 
L 636.612245 271.08614 
L 636.612245 280.020917 
L 648 280.020917 
" style="fill:none;stroke:#8c564b;stroke-linecap:square;stroke-width:1.5;"/>
   </g>
   <g id="line2d_46">
    <path clip-path="url(#p077af8d4fe)" d="M 197.801802 480.6 
L 197.801802 64.8 
" style="fill:none;stroke:#1f77b4;stroke-linecap:square;stroke-width:1.5;"/>
   </g>
   <g id="patch_5">
    <path d="M 90 480.6 
L 90 64.8 
" style="fill:none;stroke:#000000;stroke-linecap:square;stroke-linejoin:miter;stroke-width:0.8;"/>
   </g>
   <g id="patch_6">
    <path d="M 648 480.6 
L 648 64.8 
" style="fill:none;stroke:#000000;stroke-linecap:square;stroke-linejoin:miter;stroke-width:0.8;"/>
   </g>
   <g id="patch_7">
    <path d="M 90 480.6 
L 648 480.6 
" style="fill:none;stroke:#000000;stroke-linecap:square;stroke-linejoin:miter;stroke-width:0.8;"/>
   </g>
   <g id="patch_8">
    <path d="M 90 64.8 
L 648 64.8 
" style="fill:none;stroke:#000000;stroke-linecap:square;stroke-linejoin:miter;stroke-width:0.8;"/>
   </g>
   <g id="text_12">
    <g id="patch_9">
     <path d="M 280.039525 109.584125 
L 209.801802 109.584125 
L 209.801802 78.227875 
L 280.039525 78.227875 
L 280.039525 70.388813 
L 303.556713 93.906 
L 280.039525 117.423188 
L 280.039525 109.584125 
z
" style="fill:#ff7f0e;opacity:0.5;stroke:#ff7f0e;stroke-linejoin:miter;"/>
    </g>
    <!-- photon -->
    <defs>
     <path d="M 18.109375 8.203125 
L 18.109375 -20.796875 
L 9.078125 -20.796875 
L 9.078125 54.6875 
L 18.109375 54.6875 
L 18.109375 46.390625 
Q 20.953125 51.265625 25.265625 53.625 
Q 29.59375 56 35.59375 56 
Q 45.5625 56 51.78125 48.09375 
Q 58.015625 40.1875 58.015625 27.296875 
Q 58.015625 14.40625 51.78125 6.484375 
Q 45.5625 -1.421875 35.59375 -1.421875 
Q 29.59375 -1.421875 25.265625 0.953125 
Q 20.953125 3.328125 18.109375 8.203125 
z
M 48.6875 27.296875 
Q 48.6875 37.203125 44.609375 42.84375 
Q 40.53125 48.484375 33.40625 48.484375 
Q 26.265625 48.484375 22.1875 42.84375 
Q 18.109375 37.203125 18.109375 27.296875 
Q 18.109375 17.390625 22.1875 11.75 
Q 26.265625 6.109375 33.40625 6.109375 
Q 40.53125 6.109375 44.609375 11.75 
Q 48.6875 17.390625 48.6875 27.296875 
z
" id="DejaVuSans-112"/>
     <path d="M 54.890625 33.015625 
L 54.890625 0 
L 45.90625 0 
L 45.90625 32.71875 
Q 45.90625 40.484375 42.875 44.328125 
Q 39.84375 48.1875 33.796875 48.1875 
Q 26.515625 48.1875 22.3125 43.546875 
Q 18.109375 38.921875 18.109375 30.90625 
L 18.109375 0 
L 9.078125 0 
L 9.078125 54.6875 
L 18.109375 54.6875 
L 18.109375 46.1875 
Q 21.34375 51.125 25.703125 53.5625 
Q 30.078125 56 35.796875 56 
Q 45.21875 56 50.046875 50.171875 
Q 54.890625 44.34375 54.890625 33.015625 
z
" id="DejaVuSans-110"/>
    </defs>
    <g transform="translate(215.801802 99.42475)scale(0.2 -0.2)">
     <use xlink:href="#DejaVuSans-112"/>
     <use x="63.476562" xlink:href="#DejaVuSans-104"/>
     <use x="126.855469" xlink:href="#DejaVuSans-111"/>
     <use x="188.037109" xlink:href="#DejaVuSans-116"/>
     <use x="227.246094" xlink:href="#DejaVuSans-111"/>
     <use x="288.427734" xlink:href="#DejaVuSans-110"/>
    </g>
   </g>
   <g id="text_13">
    <g id="patch_10">
     <path d="M 103.792204 109.584125 
L 185.801802 109.584125 
L 185.801802 78.227875 
L 103.792204 78.227875 
L 103.792204 70.388813 
L 80.275016 93.906 
L 103.792204 117.423188 
L 103.792204 109.584125 
z
" style="fill:#1f77b4;opacity:0.5;stroke:#1f77b4;stroke-linejoin:miter;"/>
    </g>
    <!-- electron -->
    <defs>
     <path d="M 48.78125 52.59375 
L 48.78125 44.1875 
Q 44.96875 46.296875 41.140625 47.34375 
Q 37.3125 48.390625 33.40625 48.390625 
Q 24.65625 48.390625 19.8125 42.84375 
Q 14.984375 37.3125 14.984375 27.296875 
Q 14.984375 17.28125 19.8125 11.734375 
Q 24.65625 6.203125 33.40625 6.203125 
Q 37.3125 6.203125 41.140625 7.25 
Q 44.96875 8.296875 48.78125 10.40625 
L 48.78125 2.09375 
Q 45.015625 0.34375 40.984375 -0.53125 
Q 36.96875 -1.421875 32.421875 -1.421875 
Q 20.0625 -1.421875 12.78125 6.34375 
Q 5.515625 14.109375 5.515625 27.296875 
Q 5.515625 40.671875 12.859375 48.328125 
Q 20.21875 56 33.015625 56 
Q 37.15625 56 41.109375 55.140625 
Q 45.0625 54.296875 48.78125 52.59375 
z
" id="DejaVuSans-99"/>
    </defs>
    <g transform="translate(97.667427 99.42475)scale(0.2 -0.2)">
     <use xlink:href="#DejaVuSans-101"/>
     <use x="61.523438" xlink:href="#DejaVuSans-108"/>
     <use x="89.306641" xlink:href="#DejaVuSans-101"/>
     <use x="150.830078" xlink:href="#DejaVuSans-99"/>
     <use x="205.810547" xlink:href="#DejaVuSans-116"/>
     <use x="245.019531" xlink:href="#DejaVuSans-114"/>
     <use x="286.101562" xlink:href="#DejaVuSans-111"/>
     <use x="347.283203" xlink:href="#DejaVuSans-110"/>
    </g>
   </g>
   <g id="legend_1">
    <g id="patch_11">
     <path d="M 411.623438 239.72625 
L 635.4 239.72625 
Q 639 239.72625 639 236.12625 
L 639 77.4 
Q 639 73.8 635.4 73.8 
L 411.623438 73.8 
Q 408.023438 73.8 408.023438 77.4 
L 408.023438 236.12625 
Q 408.023438 239.72625 411.623438 239.72625 
z
" style="fill:#ffffff;opacity:0.5;stroke:#cccccc;stroke-linejoin:miter;"/>
    </g>
    <g id="line2d_47">
     <path d="M 415.223437 88.377188 
L 451.223437 88.377188 
" style="fill:none;stroke:#1f77b4;stroke-linecap:square;stroke-width:1.5;"/>
    </g>
    <g id="line2d_48"/>
    <g id="text_14">
     <!-- Electrons -->
     <defs>
      <path d="M 9.8125 72.90625 
L 55.90625 72.90625 
L 55.90625 64.59375 
L 19.671875 64.59375 
L 19.671875 43.015625 
L 54.390625 43.015625 
L 54.390625 34.71875 
L 19.671875 34.71875 
L 19.671875 8.296875 
L 56.78125 8.296875 
L 56.78125 0 
L 9.8125 0 
z
" id="DejaVuSans-69"/>
      <path d="M 44.28125 53.078125 
L 44.28125 44.578125 
Q 40.484375 46.53125 36.375 47.5 
Q 32.28125 48.484375 27.875 48.484375 
Q 21.1875 48.484375 17.84375 46.4375 
Q 14.5 44.390625 14.5 40.28125 
Q 14.5 37.15625 16.890625 35.375 
Q 19.28125 33.59375 26.515625 31.984375 
L 29.59375 31.296875 
Q 39.15625 29.25 43.1875 25.515625 
Q 47.21875 21.78125 47.21875 15.09375 
Q 47.21875 7.46875 41.1875 3.015625 
Q 35.15625 -1.421875 24.609375 -1.421875 
Q 20.21875 -1.421875 15.453125 -0.5625 
Q 10.6875 0.296875 5.421875 2 
L 5.421875 11.28125 
Q 10.40625 8.6875 15.234375 7.390625 
Q 20.0625 6.109375 24.8125 6.109375 
Q 31.15625 6.109375 34.5625 8.28125 
Q 37.984375 10.453125 37.984375 14.40625 
Q 37.984375 18.0625 35.515625 20.015625 
Q 33.0625 21.96875 24.703125 23.78125 
L 21.578125 24.515625 
Q 13.234375 26.265625 9.515625 29.90625 
Q 5.8125 33.546875 5.8125 39.890625 
Q 5.8125 47.609375 11.28125 51.796875 
Q 16.75 56 26.8125 56 
Q 31.78125 56 36.171875 55.265625 
Q 40.578125 54.546875 44.28125 53.078125 
z
" id="DejaVuSans-115"/>
     </defs>
     <g transform="translate(465.623437 94.677188)scale(0.18 -0.18)">
      <use xlink:href="#DejaVuSans-69"/>
      <use x="63.183594" xlink:href="#DejaVuSans-108"/>
      <use x="90.966797" xlink:href="#DejaVuSans-101"/>
      <use x="152.490234" xlink:href="#DejaVuSans-99"/>
      <use x="207.470703" xlink:href="#DejaVuSans-116"/>
      <use x="246.679688" xlink:href="#DejaVuSans-114"/>
      <use x="287.761719" xlink:href="#DejaVuSans-111"/>
      <use x="348.943359" xlink:href="#DejaVuSans-110"/>
      <use x="412.322266" xlink:href="#DejaVuSans-115"/>
     </g>
    </g>
    <g id="line2d_49">
     <path d="M 415.223437 114.797813 
L 451.223437 114.797813 
" style="fill:none;stroke:#ff7f0e;stroke-linecap:square;stroke-width:1.5;"/>
    </g>
    <g id="line2d_50"/>
    <g id="text_15">
     <!-- Electrons (Nu_e) -->
     <defs>
      <path id="DejaVuSans-32"/>
      <path d="M 31 75.875 
Q 24.46875 64.65625 21.28125 53.65625 
Q 18.109375 42.671875 18.109375 31.390625 
Q 18.109375 20.125 21.3125 9.0625 
Q 24.515625 -2 31 -13.1875 
L 23.1875 -13.1875 
Q 15.875 -1.703125 12.234375 9.375 
Q 8.59375 20.453125 8.59375 31.390625 
Q 8.59375 42.28125 12.203125 53.3125 
Q 15.828125 64.359375 23.1875 75.875 
z
" id="DejaVuSans-40"/>
      <path d="M 9.8125 72.90625 
L 23.09375 72.90625 
L 55.421875 11.921875 
L 55.421875 72.90625 
L 64.984375 72.90625 
L 64.984375 0 
L 51.703125 0 
L 19.390625 60.984375 
L 19.390625 0 
L 9.8125 0 
z
" id="DejaVuSans-78"/>
      <path d="M 8.5 21.578125 
L 8.5 54.6875 
L 17.484375 54.6875 
L 17.484375 21.921875 
Q 17.484375 14.15625 20.5 10.265625 
Q 23.53125 6.390625 29.59375 6.390625 
Q 36.859375 6.390625 41.078125 11.03125 
Q 45.3125 15.671875 45.3125 23.6875 
L 45.3125 54.6875 
L 54.296875 54.6875 
L 54.296875 0 
L 45.3125 0 
L 45.3125 8.40625 
Q 42.046875 3.421875 37.71875 1 
Q 33.40625 -1.421875 27.6875 -1.421875 
Q 18.265625 -1.421875 13.375 4.4375 
Q 8.5 10.296875 8.5 21.578125 
z
M 31.109375 56 
z
" id="DejaVuSans-117"/>
      <path d="M 50.984375 -16.609375 
L 50.984375 -23.578125 
L -0.984375 -23.578125 
L -0.984375 -16.609375 
z
" id="DejaVuSans-95"/>
      <path d="M 8.015625 75.875 
L 15.828125 75.875 
Q 23.140625 64.359375 26.78125 53.3125 
Q 30.421875 42.28125 30.421875 31.390625 
Q 30.421875 20.453125 26.78125 9.375 
Q 23.140625 -1.703125 15.828125 -13.1875 
L 8.015625 -13.1875 
Q 14.5 -2 17.703125 9.0625 
Q 20.90625 20.125 20.90625 31.390625 
Q 20.90625 42.671875 17.703125 53.65625 
Q 14.5 64.65625 8.015625 75.875 
z
" id="DejaVuSans-41"/>
     </defs>
     <g transform="translate(465.623437 121.097813)scale(0.18 -0.18)">
      <use xlink:href="#DejaVuSans-69"/>
      <use x="63.183594" xlink:href="#DejaVuSans-108"/>
      <use x="90.966797" xlink:href="#DejaVuSans-101"/>
      <use x="152.490234" xlink:href="#DejaVuSans-99"/>
      <use x="207.470703" xlink:href="#DejaVuSans-116"/>
      <use x="246.679688" xlink:href="#DejaVuSans-114"/>
      <use x="287.761719" xlink:href="#DejaVuSans-111"/>
      <use x="348.943359" xlink:href="#DejaVuSans-110"/>
      <use x="412.322266" xlink:href="#DejaVuSans-115"/>
      <use x="464.421875" xlink:href="#DejaVuSans-32"/>
      <use x="496.208984" xlink:href="#DejaVuSans-40"/>
      <use x="535.222656" xlink:href="#DejaVuSans-78"/>
      <use x="610.027344" xlink:href="#DejaVuSans-117"/>
      <use x="673.40625" xlink:href="#DejaVuSans-95"/>
      <use x="723.40625" xlink:href="#DejaVuSans-101"/>
      <use x="784.929688" xlink:href="#DejaVuSans-41"/>
     </g>
    </g>
    <g id="line2d_51">
     <path d="M 415.223437 141.719063 
L 451.223437 141.719063 
" style="fill:none;stroke:#2ca02c;stroke-linecap:square;stroke-width:1.5;"/>
    </g>
    <g id="line2d_52"/>
    <g id="text_16">
     <!-- Electrons (Nu_mu) -->
     <defs>
      <path d="M 52 44.1875 
Q 55.375 50.25 60.0625 53.125 
Q 64.75 56 71.09375 56 
Q 79.640625 56 84.28125 50.015625 
Q 88.921875 44.046875 88.921875 33.015625 
L 88.921875 0 
L 79.890625 0 
L 79.890625 32.71875 
Q 79.890625 40.578125 77.09375 44.375 
Q 74.3125 48.1875 68.609375 48.1875 
Q 61.625 48.1875 57.5625 43.546875 
Q 53.515625 38.921875 53.515625 30.90625 
L 53.515625 0 
L 44.484375 0 
L 44.484375 32.71875 
Q 44.484375 40.625 41.703125 44.40625 
Q 38.921875 48.1875 33.109375 48.1875 
Q 26.21875 48.1875 22.15625 43.53125 
Q 18.109375 38.875 18.109375 30.90625 
L 18.109375 0 
L 9.078125 0 
L 9.078125 54.6875 
L 18.109375 54.6875 
L 18.109375 46.1875 
Q 21.1875 51.21875 25.484375 53.609375 
Q 29.78125 56 35.6875 56 
Q 41.65625 56 45.828125 52.96875 
Q 50 49.953125 52 44.1875 
z
" id="DejaVuSans-109"/>
     </defs>
     <g transform="translate(465.623437 148.019063)scale(0.18 -0.18)">
      <use xlink:href="#DejaVuSans-69"/>
      <use x="63.183594" xlink:href="#DejaVuSans-108"/>
      <use x="90.966797" xlink:href="#DejaVuSans-101"/>
      <use x="152.490234" xlink:href="#DejaVuSans-99"/>
      <use x="207.470703" xlink:href="#DejaVuSans-116"/>
      <use x="246.679688" xlink:href="#DejaVuSans-114"/>
      <use x="287.761719" xlink:href="#DejaVuSans-111"/>
      <use x="348.943359" xlink:href="#DejaVuSans-110"/>
      <use x="412.322266" xlink:href="#DejaVuSans-115"/>
      <use x="464.421875" xlink:href="#DejaVuSans-32"/>
      <use x="496.208984" xlink:href="#DejaVuSans-40"/>
      <use x="535.222656" xlink:href="#DejaVuSans-78"/>
      <use x="610.027344" xlink:href="#DejaVuSans-117"/>
      <use x="673.40625" xlink:href="#DejaVuSans-95"/>
      <use x="723.40625" xlink:href="#DejaVuSans-109"/>
      <use x="820.818359" xlink:href="#DejaVuSans-117"/>
      <use x="884.197266" xlink:href="#DejaVuSans-41"/>
     </g>
    </g>
    <g id="line2d_53">
     <path d="M 415.223437 168.640312 
L 451.223437 168.640312 
" style="fill:none;stroke:#d62728;stroke-linecap:square;stroke-width:1.5;"/>
    </g>
    <g id="line2d_54"/>
    <g id="text_17">
     <!-- Photons -->
     <g transform="translate(465.623437 174.940313)scale(0.18 -0.18)">
      <use xlink:href="#DejaVuSans-80"/>
      <use x="60.302734" xlink:href="#DejaVuSans-104"/>
      <use x="123.681641" xlink:href="#DejaVuSans-111"/>
      <use x="184.863281" xlink:href="#DejaVuSans-116"/>
      <use x="224.072266" xlink:href="#DejaVuSans-111"/>
      <use x="285.253906" xlink:href="#DejaVuSans-110"/>
      <use x="348.632812" xlink:href="#DejaVuSans-115"/>
     </g>
    </g>
    <g id="line2d_55">
     <path d="M 415.223437 195.060937 
L 451.223437 195.060937 
" style="fill:none;stroke:#9467bd;stroke-linecap:square;stroke-width:1.5;"/>
    </g>
    <g id="line2d_56"/>
    <g id="text_18">
     <!-- Photons (Nu_e) -->
     <g transform="translate(465.623437 201.360937)scale(0.18 -0.18)">
      <use xlink:href="#DejaVuSans-80"/>
      <use x="60.302734" xlink:href="#DejaVuSans-104"/>
      <use x="123.681641" xlink:href="#DejaVuSans-111"/>
      <use x="184.863281" xlink:href="#DejaVuSans-116"/>
      <use x="224.072266" xlink:href="#DejaVuSans-111"/>
      <use x="285.253906" xlink:href="#DejaVuSans-110"/>
      <use x="348.632812" xlink:href="#DejaVuSans-115"/>
      <use x="400.732422" xlink:href="#DejaVuSans-32"/>
      <use x="432.519531" xlink:href="#DejaVuSans-40"/>
      <use x="471.533203" xlink:href="#DejaVuSans-78"/>
      <use x="546.337891" xlink:href="#DejaVuSans-117"/>
      <use x="609.716797" xlink:href="#DejaVuSans-95"/>
      <use x="659.716797" xlink:href="#DejaVuSans-101"/>
      <use x="721.240234" xlink:href="#DejaVuSans-41"/>
     </g>
    </g>
    <g id="line2d_57">
     <path d="M 415.223437 221.982188 
L 451.223437 221.982188 
" style="fill:none;stroke:#8c564b;stroke-linecap:square;stroke-width:1.5;"/>
    </g>
    <g id="line2d_58"/>
    <g id="text_19">
     <!-- Photons (Nu_mu) -->
     <g transform="translate(465.623437 228.282188)scale(0.18 -0.18)">
      <use xlink:href="#DejaVuSans-80"/>
      <use x="60.302734" xlink:href="#DejaVuSans-104"/>
      <use x="123.681641" xlink:href="#DejaVuSans-111"/>
      <use x="184.863281" xlink:href="#DejaVuSans-116"/>
      <use x="224.072266" xlink:href="#DejaVuSans-111"/>
      <use x="285.253906" xlink:href="#DejaVuSans-110"/>
      <use x="348.632812" xlink:href="#DejaVuSans-115"/>
      <use x="400.732422" xlink:href="#DejaVuSans-32"/>
      <use x="432.519531" xlink:href="#DejaVuSans-40"/>
      <use x="471.533203" xlink:href="#DejaVuSans-78"/>
      <use x="546.337891" xlink:href="#DejaVuSans-117"/>
      <use x="609.716797" xlink:href="#DejaVuSans-95"/>
      <use x="659.716797" xlink:href="#DejaVuSans-109"/>
      <use x="757.128906" xlink:href="#DejaVuSans-117"/>
      <use x="820.507812" xlink:href="#DejaVuSans-41"/>
     </g>
    </g>
   </g>
  </g>
 </g>
 <defs>
  <clipPath id="p077af8d4fe">
   <rect height="415.8" width="558" x="90" y="64.8"/>
  </clipPath>
 </defs>
</svg>
