<?xml version="1.0" encoding="utf-8" standalone="no"?>
<!DOCTYPE svg PUBLIC "-//W3C//DTD SVG 1.1//EN"
  "http://www.w3.org/Graphics/SVG/1.1/DTD/svg11.dtd">
<!-- Created with matplotlib (https://matplotlib.org/) -->
<svg height="540pt" version="1.1" viewBox="0 0 720 540" width="720pt" xmlns="http://www.w3.org/2000/svg" xmlns:xlink="http://www.w3.org/1999/xlink">
 <defs>
  <style type="text/css">
*{stroke-linecap:butt;stroke-linejoin:round;}
  </style>
 </defs>
 <g id="figure_1">
  <g id="patch_1">
   <path d="M 0 540 
L 720 540 
L 720 0 
L 0 0 
z
" style="fill:#ffffff;"/>
  </g>
  <g id="axes_1">
   <g id="patch_2">
    <path d="M 90 480.6 
L 648 480.6 
L 648 64.8 
L 90 64.8 
z
" style="fill:#ffffff;"/>
   </g>
   <g id="patch_3">
    <path clip-path="url(#p020684ae58)" d="M 90 119750.236117 
L 90 83.7 
L 101.387755 83.7 
L 101.387755 85.525647 
L 112.77551 85.525647 
L 112.77551 107.794662 
L 124.163265 107.794662 
L 124.163265 117.997659 
L 135.55102 117.997659 
L 135.55102 117.137712 
L 146.938776 117.137712 
L 146.938776 118.87206 
L 158.326531 118.87206 
L 158.326531 149.100497 
L 169.714286 149.100497 
L 169.714286 152.353157 
L 181.102041 152.353157 
L 181.102041 157.648464 
L 192.489796 157.648464 
L 192.489796 161.503977 
L 203.877551 161.503977 
L 203.877551 197.565385 
L 215.265306 197.565385 
L 215.265306 172.615301 
L 226.653061 172.615301 
L 226.653061 172.615301 
L 238.040816 172.615301 
L 238.040816 193.709872 
L 249.428571 193.709872 
L 249.428571 177.822204 
L 260.816327 177.822204 
L 260.816327 183.608786 
L 272.204082 183.608786 
L 272.204082 197.565385 
L 283.591837 197.565385 
L 283.591837 186.76282 
L 294.979592 186.76282 
L 294.979592 197.565385 
L 306.367347 197.565385 
L 306.367347 193.709872 
L 317.755102 193.709872 
L 317.755102 211.215047 
L 329.142857 211.215047 
L 329.142857 211.215047 
L 340.530612 211.215047 
L 340.530612 237.791065 
L 351.918367 237.791065 
L 351.918367 193.709872 
L 363.306122 193.709872 
L 363.306122 216.696493 
L 374.693878 216.696493 
L 374.693878 193.709872 
L 386.081633 193.709872 
L 386.081633 247.276456 
L 397.469388 247.276456 
L 397.469388 216.696493 
L 408.857143 216.696493 
L 408.857143 294.947044 
L 420.244898 294.947044 
L 420.244898 229.771281 
L 431.632653 229.771281 
L 431.632653 247.276456 
L 443.020408 247.276456 
L 443.020408 216.696493 
L 454.408163 216.696493 
L 454.408163 258.885636 
L 465.795918 258.885636 
L 465.795918 247.276456 
L 477.183673 247.276456 
L 477.183673 206.256477 
L 488.571429 206.256477 
L 488.571429 273.852473 
L 499.959184 273.852473 
L 499.959184 331.008453 
L 511.346939 331.008453 
L 511.346939 273.852473 
L 522.734694 273.852473 
L 522.734694 237.791065 
L 534.122449 237.791065 
L 534.122449 237.791065 
L 545.510204 237.791065 
L 545.510204 273.852473 
L 556.897959 273.852473 
L 556.897959 331.008453 
L 568.285714 331.008453 
L 568.285714 273.852473 
L 579.673469 273.852473 
L 579.673469 247.276456 
L 591.061224 247.276456 
L 591.061224 258.885636 
L 602.44898 258.885636 
L 602.44898 331.008453 
L 613.836735 331.008453 
L 613.836735 273.852473 
L 625.22449 273.852473 
L 625.22449 258.885636 
L 636.612245 258.885636 
L 636.612245 247.276456 
L 648 247.276456 
L 648 119750.236117 
z
" style="fill:#1f77b4;opacity:0.2;"/>
   </g>
   <g id="patch_4">
    <path clip-path="url(#p020684ae58)" d="M 90 119750.236117 
L 90 126.605796 
L 101.387755 126.605796 
L 101.387755 141.379382 
L 112.77551 141.379382 
L 112.77551 161.114085 
L 124.163265 161.114085 
L 124.163265 173.61678 
L 135.55102 173.61678 
L 135.55102 174.442601 
L 146.938776 174.442601 
L 146.938776 181.807532 
L 158.326531 181.807532 
L 158.326531 188.447245 
L 169.714286 188.447245 
L 169.714286 191.823064 
L 181.102041 191.823064 
L 181.102041 195.122623 
L 192.489796 195.122623 
L 192.489796 199.649444 
L 203.877551 199.649444 
L 203.877551 202.782367 
L 215.265306 202.782367 
L 215.265306 198.645703 
L 226.653061 198.645703 
L 226.653061 192.114524 
L 238.040816 192.114524 
L 238.040816 200.672931 
L 249.428571 200.672931 
L 249.428571 198.31538 
L 260.816327 198.31538 
L 260.816327 196.060047 
L 272.204082 196.060047 
L 272.204082 195.122623 
L 283.591837 195.122623 
L 283.591837 203.87005 
L 294.979592 203.87005 
L 294.979592 202.782367 
L 306.367347 202.782367 
L 306.367347 204.237724 
L 317.755102 204.237724 
L 317.755102 206.500063 
L 329.142857 206.500063 
L 329.142857 208.463527 
L 340.530612 208.463527 
L 340.530612 210.504009 
L 351.918367 210.504009 
L 351.918367 206.116109 
L 363.306122 206.116109 
L 363.306122 211.34315 
L 374.693878 211.34315 
L 374.693878 208.865271 
L 386.081633 208.865271 
L 386.081633 213.944973 
L 397.469388 213.944973 
L 397.469388 207.276579 
L 408.857143 207.276579 
L 408.857143 223.164248 
L 420.244898 223.164248 
L 420.244898 214.391547 
L 431.632653 214.391547 
L 431.632653 211.34315 
L 443.020408 211.34315 
L 443.020408 217.154619 
L 454.408163 217.154619 
L 454.408163 218.593206 
L 465.795918 218.593206 
L 465.795918 213.502199 
L 477.183673 213.502199 
L 477.183673 205.734967 
L 488.571429 205.734967 
L 488.571429 219.081714 
L 499.959184 219.081714 
L 499.959184 212.196048 
L 511.346939 212.196048 
L 511.346939 221.082945 
L 522.734694 221.082945 
L 522.734694 230.568337 
L 534.122449 230.568337 
L 534.122449 221.082945 
L 545.510204 221.082945 
L 545.510204 222.113189 
L 556.897959 222.113189 
L 556.897959 225.888724 
L 568.285714 225.888724 
L 568.285714 224.236979 
L 579.673469 224.236979 
L 579.673469 216.683795 
L 591.061224 216.683795 
L 591.061224 229.358384 
L 602.44898 229.358384 
L 602.44898 228.763799 
L 613.836735 228.763799 
L 613.836735 220.575374 
L 625.22449 220.575374 
L 625.22449 230.568337 
L 636.612245 230.568337 
L 636.612245 231.8071 
L 648 231.8071 
L 648 119750.236117 
z
" style="fill:#ff7f0e;opacity:0.2;"/>
   </g>
   <g id="matplotlib.axis_1">
    <g id="xtick_1">
     <g id="line2d_1">
      <defs>
       <path d="M 0 0 
L 0 3.5 
" id="me578c0bc71" style="stroke:#000000;stroke-width:0.8;"/>
      </defs>
      <g>
       <use style="stroke:#000000;stroke-width:0.8;" x="90" xlink:href="#me578c0bc71" y="480.6"/>
      </g>
     </g>
     <g id="text_1">
      <!-- 0 -->
      <defs>
       <path d="M 31.78125 66.40625 
Q 24.171875 66.40625 20.328125 58.90625 
Q 16.5 51.421875 16.5 36.375 
Q 16.5 21.390625 20.328125 13.890625 
Q 24.171875 6.390625 31.78125 6.390625 
Q 39.453125 6.390625 43.28125 13.890625 
Q 47.125 21.390625 47.125 36.375 
Q 47.125 51.421875 43.28125 58.90625 
Q 39.453125 66.40625 31.78125 66.40625 
z
M 31.78125 74.21875 
Q 44.046875 74.21875 50.515625 64.515625 
Q 56.984375 54.828125 56.984375 36.375 
Q 56.984375 17.96875 50.515625 8.265625 
Q 44.046875 -1.421875 31.78125 -1.421875 
Q 19.53125 -1.421875 13.0625 8.265625 
Q 6.59375 17.96875 6.59375 36.375 
Q 6.59375 54.828125 13.0625 64.515625 
Q 19.53125 74.21875 31.78125 74.21875 
z
" id="DejaVuSans-48"/>
      </defs>
      <g transform="translate(81.7542 507.29515)scale(0.2592 -0.2592)">
       <use xlink:href="#DejaVuSans-48"/>
      </g>
     </g>
    </g>
    <g id="xtick_2">
     <g id="line2d_2">
      <g>
       <use style="stroke:#000000;stroke-width:0.8;" x="201.6" xlink:href="#me578c0bc71" y="480.6"/>
      </g>
     </g>
     <g id="text_2">
      <!-- 2 -->
      <defs>
       <path d="M 19.1875 8.296875 
L 53.609375 8.296875 
L 53.609375 0 
L 7.328125 0 
L 7.328125 8.296875 
Q 12.9375 14.109375 22.625 23.890625 
Q 32.328125 33.6875 34.8125 36.53125 
Q 39.546875 41.84375 41.421875 45.53125 
Q 43.3125 49.21875 43.3125 52.78125 
Q 43.3125 58.59375 39.234375 62.25 
Q 35.15625 65.921875 28.609375 65.921875 
Q 23.96875 65.921875 18.8125 64.3125 
Q 13.671875 62.703125 7.8125 59.421875 
L 7.8125 69.390625 
Q 13.765625 71.78125 18.9375 73 
Q 24.125 74.21875 28.421875 74.21875 
Q 39.75 74.21875 46.484375 68.546875 
Q 53.21875 62.890625 53.21875 53.421875 
Q 53.21875 48.921875 51.53125 44.890625 
Q 49.859375 40.875 45.40625 35.40625 
Q 44.1875 33.984375 37.640625 27.21875 
Q 31.109375 20.453125 19.1875 8.296875 
z
" id="DejaVuSans-50"/>
      </defs>
      <g transform="translate(193.3542 507.29515)scale(0.2592 -0.2592)">
       <use xlink:href="#DejaVuSans-50"/>
      </g>
     </g>
    </g>
    <g id="xtick_3">
     <g id="line2d_3">
      <g>
       <use style="stroke:#000000;stroke-width:0.8;" x="313.2" xlink:href="#me578c0bc71" y="480.6"/>
      </g>
     </g>
     <g id="text_3">
      <!-- 4 -->
      <defs>
       <path d="M 37.796875 64.3125 
L 12.890625 25.390625 
L 37.796875 25.390625 
z
M 35.203125 72.90625 
L 47.609375 72.90625 
L 47.609375 25.390625 
L 58.015625 25.390625 
L 58.015625 17.1875 
L 47.609375 17.1875 
L 47.609375 0 
L 37.796875 0 
L 37.796875 17.1875 
L 4.890625 17.1875 
L 4.890625 26.703125 
z
" id="DejaVuSans-52"/>
      </defs>
      <g transform="translate(304.9542 507.29515)scale(0.2592 -0.2592)">
       <use xlink:href="#DejaVuSans-52"/>
      </g>
     </g>
    </g>
    <g id="xtick_4">
     <g id="line2d_4">
      <g>
       <use style="stroke:#000000;stroke-width:0.8;" x="424.8" xlink:href="#me578c0bc71" y="480.6"/>
      </g>
     </g>
     <g id="text_4">
      <!-- 6 -->
      <defs>
       <path d="M 33.015625 40.375 
Q 26.375 40.375 22.484375 35.828125 
Q 18.609375 31.296875 18.609375 23.390625 
Q 18.609375 15.53125 22.484375 10.953125 
Q 26.375 6.390625 33.015625 6.390625 
Q 39.65625 6.390625 43.53125 10.953125 
Q 47.40625 15.53125 47.40625 23.390625 
Q 47.40625 31.296875 43.53125 35.828125 
Q 39.65625 40.375 33.015625 40.375 
z
M 52.59375 71.296875 
L 52.59375 62.3125 
Q 48.875 64.0625 45.09375 64.984375 
Q 41.3125 65.921875 37.59375 65.921875 
Q 27.828125 65.921875 22.671875 59.328125 
Q 17.53125 52.734375 16.796875 39.40625 
Q 19.671875 43.65625 24.015625 45.921875 
Q 28.375 48.1875 33.59375 48.1875 
Q 44.578125 48.1875 50.953125 41.515625 
Q 57.328125 34.859375 57.328125 23.390625 
Q 57.328125 12.15625 50.6875 5.359375 
Q 44.046875 -1.421875 33.015625 -1.421875 
Q 20.359375 -1.421875 13.671875 8.265625 
Q 6.984375 17.96875 6.984375 36.375 
Q 6.984375 53.65625 15.1875 63.9375 
Q 23.390625 74.21875 37.203125 74.21875 
Q 40.921875 74.21875 44.703125 73.484375 
Q 48.484375 72.75 52.59375 71.296875 
z
" id="DejaVuSans-54"/>
      </defs>
      <g transform="translate(416.5542 507.29515)scale(0.2592 -0.2592)">
       <use xlink:href="#DejaVuSans-54"/>
      </g>
     </g>
    </g>
    <g id="xtick_5">
     <g id="line2d_5">
      <g>
       <use style="stroke:#000000;stroke-width:0.8;" x="536.4" xlink:href="#me578c0bc71" y="480.6"/>
      </g>
     </g>
     <g id="text_5">
      <!-- 8 -->
      <defs>
       <path d="M 31.78125 34.625 
Q 24.75 34.625 20.71875 30.859375 
Q 16.703125 27.09375 16.703125 20.515625 
Q 16.703125 13.921875 20.71875 10.15625 
Q 24.75 6.390625 31.78125 6.390625 
Q 38.8125 6.390625 42.859375 10.171875 
Q 46.921875 13.96875 46.921875 20.515625 
Q 46.921875 27.09375 42.890625 30.859375 
Q 38.875 34.625 31.78125 34.625 
z
M 21.921875 38.8125 
Q 15.578125 40.375 12.03125 44.71875 
Q 8.5 49.078125 8.5 55.328125 
Q 8.5 64.0625 14.71875 69.140625 
Q 20.953125 74.21875 31.78125 74.21875 
Q 42.671875 74.21875 48.875 69.140625 
Q 55.078125 64.0625 55.078125 55.328125 
Q 55.078125 49.078125 51.53125 44.71875 
Q 48 40.375 41.703125 38.8125 
Q 48.828125 37.15625 52.796875 32.3125 
Q 56.78125 27.484375 56.78125 20.515625 
Q 56.78125 9.90625 50.3125 4.234375 
Q 43.84375 -1.421875 31.78125 -1.421875 
Q 19.734375 -1.421875 13.25 4.234375 
Q 6.78125 9.90625 6.78125 20.515625 
Q 6.78125 27.484375 10.78125 32.3125 
Q 14.796875 37.15625 21.921875 38.8125 
z
M 18.3125 54.390625 
Q 18.3125 48.734375 21.84375 45.5625 
Q 25.390625 42.390625 31.78125 42.390625 
Q 38.140625 42.390625 41.71875 45.5625 
Q 45.3125 48.734375 45.3125 54.390625 
Q 45.3125 60.0625 41.71875 63.234375 
Q 38.140625 66.40625 31.78125 66.40625 
Q 25.390625 66.40625 21.84375 63.234375 
Q 18.3125 60.0625 18.3125 54.390625 
z
" id="DejaVuSans-56"/>
      </defs>
      <g transform="translate(528.1542 507.29515)scale(0.2592 -0.2592)">
       <use xlink:href="#DejaVuSans-56"/>
      </g>
     </g>
    </g>
    <g id="xtick_6">
     <g id="line2d_6">
      <g>
       <use style="stroke:#000000;stroke-width:0.8;" x="648" xlink:href="#me578c0bc71" y="480.6"/>
      </g>
     </g>
     <g id="text_6">
      <!-- 10 -->
      <defs>
       <path d="M 12.40625 8.296875 
L 28.515625 8.296875 
L 28.515625 63.921875 
L 10.984375 60.40625 
L 10.984375 69.390625 
L 28.421875 72.90625 
L 38.28125 72.90625 
L 38.28125 8.296875 
L 54.390625 8.296875 
L 54.390625 0 
L 12.40625 0 
z
" id="DejaVuSans-49"/>
      </defs>
      <g transform="translate(631.5084 507.29515)scale(0.2592 -0.2592)">
       <use xlink:href="#DejaVuSans-49"/>
       <use x="63.623047" xlink:href="#DejaVuSans-48"/>
      </g>
     </g>
    </g>
    <g id="text_7">
     <!-- VertexSepV -->
     <defs>
      <path d="M 28.609375 0 
L 0.78125 72.90625 
L 11.078125 72.90625 
L 34.1875 11.53125 
L 57.328125 72.90625 
L 67.578125 72.90625 
L 39.796875 0 
z
" id="DejaVuSans-86"/>
      <path d="M 56.203125 29.59375 
L 56.203125 25.203125 
L 14.890625 25.203125 
Q 15.484375 15.921875 20.484375 11.0625 
Q 25.484375 6.203125 34.421875 6.203125 
Q 39.59375 6.203125 44.453125 7.46875 
Q 49.3125 8.734375 54.109375 11.28125 
L 54.109375 2.78125 
Q 49.265625 0.734375 44.1875 -0.34375 
Q 39.109375 -1.421875 33.890625 -1.421875 
Q 20.796875 -1.421875 13.15625 6.1875 
Q 5.515625 13.8125 5.515625 26.8125 
Q 5.515625 40.234375 12.765625 48.109375 
Q 20.015625 56 32.328125 56 
Q 43.359375 56 49.78125 48.890625 
Q 56.203125 41.796875 56.203125 29.59375 
z
M 47.21875 32.234375 
Q 47.125 39.59375 43.09375 43.984375 
Q 39.0625 48.390625 32.421875 48.390625 
Q 24.90625 48.390625 20.390625 44.140625 
Q 15.875 39.890625 15.1875 32.171875 
z
" id="DejaVuSans-101"/>
      <path d="M 41.109375 46.296875 
Q 39.59375 47.171875 37.8125 47.578125 
Q 36.03125 48 33.890625 48 
Q 26.265625 48 22.1875 43.046875 
Q 18.109375 38.09375 18.109375 28.8125 
L 18.109375 0 
L 9.078125 0 
L 9.078125 54.6875 
L 18.109375 54.6875 
L 18.109375 46.1875 
Q 20.953125 51.171875 25.484375 53.578125 
Q 30.03125 56 36.53125 56 
Q 37.453125 56 38.578125 55.875 
Q 39.703125 55.765625 41.0625 55.515625 
z
" id="DejaVuSans-114"/>
      <path d="M 18.3125 70.21875 
L 18.3125 54.6875 
L 36.8125 54.6875 
L 36.8125 47.703125 
L 18.3125 47.703125 
L 18.3125 18.015625 
Q 18.3125 11.328125 20.140625 9.421875 
Q 21.96875 7.515625 27.59375 7.515625 
L 36.8125 7.515625 
L 36.8125 0 
L 27.59375 0 
Q 17.1875 0 13.234375 3.875 
Q 9.28125 7.765625 9.28125 18.015625 
L 9.28125 47.703125 
L 2.6875 47.703125 
L 2.6875 54.6875 
L 9.28125 54.6875 
L 9.28125 70.21875 
z
" id="DejaVuSans-116"/>
      <path d="M 54.890625 54.6875 
L 35.109375 28.078125 
L 55.90625 0 
L 45.3125 0 
L 29.390625 21.484375 
L 13.484375 0 
L 2.875 0 
L 24.125 28.609375 
L 4.6875 54.6875 
L 15.28125 54.6875 
L 29.78125 35.203125 
L 44.28125 54.6875 
z
" id="DejaVuSans-120"/>
      <path d="M 53.515625 70.515625 
L 53.515625 60.890625 
Q 47.90625 63.578125 42.921875 64.890625 
Q 37.9375 66.21875 33.296875 66.21875 
Q 25.25 66.21875 20.875 63.09375 
Q 16.5 59.96875 16.5 54.203125 
Q 16.5 49.359375 19.40625 46.890625 
Q 22.3125 44.4375 30.421875 42.921875 
L 36.375 41.703125 
Q 47.40625 39.59375 52.65625 34.296875 
Q 57.90625 29 57.90625 20.125 
Q 57.90625 9.515625 50.796875 4.046875 
Q 43.703125 -1.421875 29.984375 -1.421875 
Q 24.8125 -1.421875 18.96875 -0.25 
Q 13.140625 0.921875 6.890625 3.21875 
L 6.890625 13.375 
Q 12.890625 10.015625 18.65625 8.296875 
Q 24.421875 6.59375 29.984375 6.59375 
Q 38.421875 6.59375 43.015625 9.90625 
Q 47.609375 13.234375 47.609375 19.390625 
Q 47.609375 24.75 44.3125 27.78125 
Q 41.015625 30.8125 33.5 32.328125 
L 27.484375 33.5 
Q 16.453125 35.6875 11.515625 40.375 
Q 6.59375 45.0625 6.59375 53.421875 
Q 6.59375 63.09375 13.40625 68.65625 
Q 20.21875 74.21875 32.171875 74.21875 
Q 37.3125 74.21875 42.625 73.28125 
Q 47.953125 72.359375 53.515625 70.515625 
z
" id="DejaVuSans-83"/>
      <path d="M 18.109375 8.203125 
L 18.109375 -20.796875 
L 9.078125 -20.796875 
L 9.078125 54.6875 
L 18.109375 54.6875 
L 18.109375 46.390625 
Q 20.953125 51.265625 25.265625 53.625 
Q 29.59375 56 35.59375 56 
Q 45.5625 56 51.78125 48.09375 
Q 58.015625 40.1875 58.015625 27.296875 
Q 58.015625 14.40625 51.78125 6.484375 
Q 45.5625 -1.421875 35.59375 -1.421875 
Q 29.59375 -1.421875 25.265625 0.953125 
Q 20.953125 3.328125 18.109375 8.203125 
z
M 48.6875 27.296875 
Q 48.6875 37.203125 44.609375 42.84375 
Q 40.53125 48.484375 33.40625 48.484375 
Q 26.265625 48.484375 22.1875 42.84375 
Q 18.109375 37.203125 18.109375 27.296875 
Q 18.109375 17.390625 22.1875 11.75 
Q 26.265625 6.109375 33.40625 6.109375 
Q 40.53125 6.109375 44.609375 11.75 
Q 48.6875 17.390625 48.6875 27.296875 
z
" id="DejaVuSans-112"/>
     </defs>
     <g transform="translate(292.8276 536.38085)scale(0.2592 -0.2592)">
      <use xlink:href="#DejaVuSans-86"/>
      <use x="68.298828" xlink:href="#DejaVuSans-101"/>
      <use x="129.822266" xlink:href="#DejaVuSans-114"/>
      <use x="170.935547" xlink:href="#DejaVuSans-116"/>
      <use x="210.144531" xlink:href="#DejaVuSans-101"/>
      <use x="271.652344" xlink:href="#DejaVuSans-120"/>
      <use x="330.832031" xlink:href="#DejaVuSans-83"/>
      <use x="394.308594" xlink:href="#DejaVuSans-101"/>
      <use x="455.832031" xlink:href="#DejaVuSans-112"/>
      <use x="519.308594" xlink:href="#DejaVuSans-86"/>
     </g>
    </g>
   </g>
   <g id="matplotlib.axis_2">
    <g id="ytick_1">
     <g id="line2d_7">
      <defs>
       <path d="M 0 0 
L -3.5 0 
" id="m0a5cdf18a3" style="stroke:#000000;stroke-width:0.8;"/>
      </defs>
      <g>
       <use style="stroke:#000000;stroke-width:0.8;" x="90" xlink:href="#m0a5cdf18a3" y="436.00438"/>
      </g>
     </g>
     <g id="text_8">
      <!-- $\mathdefault{10^{-4}}$ -->
      <defs>
       <path d="M 10.59375 35.5 
L 73.1875 35.5 
L 73.1875 27.203125 
L 10.59375 27.203125 
z
" id="DejaVuSans-8722"/>
      </defs>
      <g transform="translate(22.088 445.851955)scale(0.2592 -0.2592)">
       <use transform="translate(0 0.684375)" xlink:href="#DejaVuSans-49"/>
       <use transform="translate(63.623047 0.684375)" xlink:href="#DejaVuSans-48"/>
       <use transform="translate(128.203125 38.965625)scale(0.7)" xlink:href="#DejaVuSans-8722"/>
       <use transform="translate(186.855469 38.965625)scale(0.7)" xlink:href="#DejaVuSans-52"/>
      </g>
     </g>
    </g>
    <g id="ytick_2">
     <g id="line2d_8">
      <g>
       <use style="stroke:#000000;stroke-width:0.8;" x="90" xlink:href="#m0a5cdf18a3" y="316.210975"/>
      </g>
     </g>
     <g id="text_9">
      <!-- $\mathdefault{10^{-3}}$ -->
      <defs>
       <path d="M 40.578125 39.3125 
Q 47.65625 37.796875 51.625 33 
Q 55.609375 28.21875 55.609375 21.1875 
Q 55.609375 10.40625 48.1875 4.484375 
Q 40.765625 -1.421875 27.09375 -1.421875 
Q 22.515625 -1.421875 17.65625 -0.515625 
Q 12.796875 0.390625 7.625 2.203125 
L 7.625 11.71875 
Q 11.71875 9.328125 16.59375 8.109375 
Q 21.484375 6.890625 26.8125 6.890625 
Q 36.078125 6.890625 40.9375 10.546875 
Q 45.796875 14.203125 45.796875 21.1875 
Q 45.796875 27.640625 41.28125 31.265625 
Q 36.765625 34.90625 28.71875 34.90625 
L 20.21875 34.90625 
L 20.21875 43.015625 
L 29.109375 43.015625 
Q 36.375 43.015625 40.234375 45.921875 
Q 44.09375 48.828125 44.09375 54.296875 
Q 44.09375 59.90625 40.109375 62.90625 
Q 36.140625 65.921875 28.71875 65.921875 
Q 24.65625 65.921875 20.015625 65.03125 
Q 15.375 64.15625 9.8125 62.3125 
L 9.8125 71.09375 
Q 15.4375 72.65625 20.34375 73.4375 
Q 25.25 74.21875 29.59375 74.21875 
Q 40.828125 74.21875 47.359375 69.109375 
Q 53.90625 64.015625 53.90625 55.328125 
Q 53.90625 49.265625 50.4375 45.09375 
Q 46.96875 40.921875 40.578125 39.3125 
z
" id="DejaVuSans-51"/>
      </defs>
      <g transform="translate(22.088 326.05855)scale(0.2592 -0.2592)">
       <use transform="translate(0 0.765625)" xlink:href="#DejaVuSans-49"/>
       <use transform="translate(63.623047 0.765625)" xlink:href="#DejaVuSans-48"/>
       <use transform="translate(128.203125 39.046875)scale(0.7)" xlink:href="#DejaVuSans-8722"/>
       <use transform="translate(186.855469 39.046875)scale(0.7)" xlink:href="#DejaVuSans-51"/>
      </g>
     </g>
    </g>
    <g id="ytick_3">
     <g id="line2d_9">
      <g>
       <use style="stroke:#000000;stroke-width:0.8;" x="90" xlink:href="#m0a5cdf18a3" y="196.417569"/>
      </g>
     </g>
     <g id="text_10">
      <!-- $\mathdefault{10^{-2}}$ -->
      <g transform="translate(22.088 206.265144)scale(0.2592 -0.2592)">
       <use transform="translate(0 0.765625)" xlink:href="#DejaVuSans-49"/>
       <use transform="translate(63.623047 0.765625)" xlink:href="#DejaVuSans-48"/>
       <use transform="translate(128.203125 39.046875)scale(0.7)" xlink:href="#DejaVuSans-8722"/>
       <use transform="translate(186.855469 39.046875)scale(0.7)" xlink:href="#DejaVuSans-50"/>
      </g>
     </g>
    </g>
    <g id="ytick_4">
     <g id="line2d_10">
      <g>
       <use style="stroke:#000000;stroke-width:0.8;" x="90" xlink:href="#m0a5cdf18a3" y="76.624164"/>
      </g>
     </g>
     <g id="text_11">
      <!-- $\mathdefault{10^{-1}}$ -->
      <g transform="translate(22.088 86.471739)scale(0.2592 -0.2592)">
       <use transform="translate(0 0.684375)" xlink:href="#DejaVuSans-49"/>
       <use transform="translate(63.623047 0.684375)" xlink:href="#DejaVuSans-48"/>
       <use transform="translate(128.203125 38.965625)scale(0.7)" xlink:href="#DejaVuSans-8722"/>
       <use transform="translate(186.855469 38.965625)scale(0.7)" xlink:href="#DejaVuSans-49"/>
      </g>
     </g>
    </g>
    <g id="ytick_5">
     <g id="line2d_11">
      <defs>
       <path d="M 0 0 
L -2 0 
" id="m8f73ffb997" style="stroke:#000000;stroke-width:0.6;"/>
      </defs>
      <g>
       <use style="stroke:#000000;stroke-width:0.6;" x="90" xlink:href="#m8f73ffb997" y="472.065788"/>
      </g>
     </g>
    </g>
    <g id="ytick_6">
     <g id="line2d_12">
      <g>
       <use style="stroke:#000000;stroke-width:0.6;" x="90" xlink:href="#m8f73ffb997" y="462.580397"/>
      </g>
     </g>
    </g>
    <g id="ytick_7">
     <g id="line2d_13">
      <g>
       <use style="stroke:#000000;stroke-width:0.6;" x="90" xlink:href="#m8f73ffb997" y="454.560613"/>
      </g>
     </g>
    </g>
    <g id="ytick_8">
     <g id="line2d_14">
      <g>
       <use style="stroke:#000000;stroke-width:0.6;" x="90" xlink:href="#m8f73ffb997" y="447.61356"/>
      </g>
     </g>
    </g>
    <g id="ytick_9">
     <g id="line2d_15">
      <g>
       <use style="stroke:#000000;stroke-width:0.6;" x="90" xlink:href="#m8f73ffb997" y="441.485826"/>
      </g>
     </g>
    </g>
    <g id="ytick_10">
     <g id="line2d_16">
      <g>
       <use style="stroke:#000000;stroke-width:0.6;" x="90" xlink:href="#m8f73ffb997" y="399.942972"/>
      </g>
     </g>
    </g>
    <g id="ytick_11">
     <g id="line2d_17">
      <g>
       <use style="stroke:#000000;stroke-width:0.6;" x="90" xlink:href="#m8f73ffb997" y="378.8484"/>
      </g>
     </g>
    </g>
    <g id="ytick_12">
     <g id="line2d_18">
      <g>
       <use style="stroke:#000000;stroke-width:0.6;" x="90" xlink:href="#m8f73ffb997" y="363.881563"/>
      </g>
     </g>
    </g>
    <g id="ytick_13">
     <g id="line2d_19">
      <g>
       <use style="stroke:#000000;stroke-width:0.6;" x="90" xlink:href="#m8f73ffb997" y="352.272383"/>
      </g>
     </g>
    </g>
    <g id="ytick_14">
     <g id="line2d_20">
      <g>
       <use style="stroke:#000000;stroke-width:0.6;" x="90" xlink:href="#m8f73ffb997" y="342.786992"/>
      </g>
     </g>
    </g>
    <g id="ytick_15">
     <g id="line2d_21">
      <g>
       <use style="stroke:#000000;stroke-width:0.6;" x="90" xlink:href="#m8f73ffb997" y="334.767208"/>
      </g>
     </g>
    </g>
    <g id="ytick_16">
     <g id="line2d_22">
      <g>
       <use style="stroke:#000000;stroke-width:0.6;" x="90" xlink:href="#m8f73ffb997" y="327.820155"/>
      </g>
     </g>
    </g>
    <g id="ytick_17">
     <g id="line2d_23">
      <g>
       <use style="stroke:#000000;stroke-width:0.6;" x="90" xlink:href="#m8f73ffb997" y="321.69242"/>
      </g>
     </g>
    </g>
    <g id="ytick_18">
     <g id="line2d_24">
      <g>
       <use style="stroke:#000000;stroke-width:0.6;" x="90" xlink:href="#m8f73ffb997" y="280.149566"/>
      </g>
     </g>
    </g>
    <g id="ytick_19">
     <g id="line2d_25">
      <g>
       <use style="stroke:#000000;stroke-width:0.6;" x="90" xlink:href="#m8f73ffb997" y="259.054995"/>
      </g>
     </g>
    </g>
    <g id="ytick_20">
     <g id="line2d_26">
      <g>
       <use style="stroke:#000000;stroke-width:0.6;" x="90" xlink:href="#m8f73ffb997" y="244.088158"/>
      </g>
     </g>
    </g>
    <g id="ytick_21">
     <g id="line2d_27">
      <g>
       <use style="stroke:#000000;stroke-width:0.6;" x="90" xlink:href="#m8f73ffb997" y="232.478978"/>
      </g>
     </g>
    </g>
    <g id="ytick_22">
     <g id="line2d_28">
      <g>
       <use style="stroke:#000000;stroke-width:0.6;" x="90" xlink:href="#m8f73ffb997" y="222.993586"/>
      </g>
     </g>
    </g>
    <g id="ytick_23">
     <g id="line2d_29">
      <g>
       <use style="stroke:#000000;stroke-width:0.6;" x="90" xlink:href="#m8f73ffb997" y="214.973803"/>
      </g>
     </g>
    </g>
    <g id="ytick_24">
     <g id="line2d_30">
      <g>
       <use style="stroke:#000000;stroke-width:0.6;" x="90" xlink:href="#m8f73ffb997" y="208.02675"/>
      </g>
     </g>
    </g>
    <g id="ytick_25">
     <g id="line2d_31">
      <g>
       <use style="stroke:#000000;stroke-width:0.6;" x="90" xlink:href="#m8f73ffb997" y="201.899015"/>
      </g>
     </g>
    </g>
    <g id="ytick_26">
     <g id="line2d_32">
      <g>
       <use style="stroke:#000000;stroke-width:0.6;" x="90" xlink:href="#m8f73ffb997" y="160.356161"/>
      </g>
     </g>
    </g>
    <g id="ytick_27">
     <g id="line2d_33">
      <g>
       <use style="stroke:#000000;stroke-width:0.6;" x="90" xlink:href="#m8f73ffb997" y="139.261589"/>
      </g>
     </g>
    </g>
    <g id="ytick_28">
     <g id="line2d_34">
      <g>
       <use style="stroke:#000000;stroke-width:0.6;" x="90" xlink:href="#m8f73ffb997" y="124.294753"/>
      </g>
     </g>
    </g>
    <g id="ytick_29">
     <g id="line2d_35">
      <g>
       <use style="stroke:#000000;stroke-width:0.6;" x="90" xlink:href="#m8f73ffb997" y="112.685572"/>
      </g>
     </g>
    </g>
    <g id="ytick_30">
     <g id="line2d_36">
      <g>
       <use style="stroke:#000000;stroke-width:0.6;" x="90" xlink:href="#m8f73ffb997" y="103.200181"/>
      </g>
     </g>
    </g>
    <g id="ytick_31">
     <g id="line2d_37">
      <g>
       <use style="stroke:#000000;stroke-width:0.6;" x="90" xlink:href="#m8f73ffb997" y="95.180397"/>
      </g>
     </g>
    </g>
    <g id="ytick_32">
     <g id="line2d_38">
      <g>
       <use style="stroke:#000000;stroke-width:0.6;" x="90" xlink:href="#m8f73ffb997" y="88.233344"/>
      </g>
     </g>
    </g>
    <g id="ytick_33">
     <g id="line2d_39">
      <g>
       <use style="stroke:#000000;stroke-width:0.6;" x="90" xlink:href="#m8f73ffb997" y="82.10561"/>
      </g>
     </g>
    </g>
    <g id="text_12">
     <!-- Probability -->
     <defs>
      <path d="M 19.671875 64.796875 
L 19.671875 37.40625 
L 32.078125 37.40625 
Q 38.96875 37.40625 42.71875 40.96875 
Q 46.484375 44.53125 46.484375 51.125 
Q 46.484375 57.671875 42.71875 61.234375 
Q 38.96875 64.796875 32.078125 64.796875 
z
M 9.8125 72.90625 
L 32.078125 72.90625 
Q 44.34375 72.90625 50.609375 67.359375 
Q 56.890625 61.8125 56.890625 51.125 
Q 56.890625 40.328125 50.609375 34.8125 
Q 44.34375 29.296875 32.078125 29.296875 
L 19.671875 29.296875 
L 19.671875 0 
L 9.8125 0 
z
" id="DejaVuSans-80"/>
      <path d="M 30.609375 48.390625 
Q 23.390625 48.390625 19.1875 42.75 
Q 14.984375 37.109375 14.984375 27.296875 
Q 14.984375 17.484375 19.15625 11.84375 
Q 23.34375 6.203125 30.609375 6.203125 
Q 37.796875 6.203125 41.984375 11.859375 
Q 46.1875 17.53125 46.1875 27.296875 
Q 46.1875 37.015625 41.984375 42.703125 
Q 37.796875 48.390625 30.609375 48.390625 
z
M 30.609375 56 
Q 42.328125 56 49.015625 48.375 
Q 55.71875 40.765625 55.71875 27.296875 
Q 55.71875 13.875 49.015625 6.21875 
Q 42.328125 -1.421875 30.609375 -1.421875 
Q 18.84375 -1.421875 12.171875 6.21875 
Q 5.515625 13.875 5.515625 27.296875 
Q 5.515625 40.765625 12.171875 48.375 
Q 18.84375 56 30.609375 56 
z
" id="DejaVuSans-111"/>
      <path d="M 48.6875 27.296875 
Q 48.6875 37.203125 44.609375 42.84375 
Q 40.53125 48.484375 33.40625 48.484375 
Q 26.265625 48.484375 22.1875 42.84375 
Q 18.109375 37.203125 18.109375 27.296875 
Q 18.109375 17.390625 22.1875 11.75 
Q 26.265625 6.109375 33.40625 6.109375 
Q 40.53125 6.109375 44.609375 11.75 
Q 48.6875 17.390625 48.6875 27.296875 
z
M 18.109375 46.390625 
Q 20.953125 51.265625 25.265625 53.625 
Q 29.59375 56 35.59375 56 
Q 45.5625 56 51.78125 48.09375 
Q 58.015625 40.1875 58.015625 27.296875 
Q 58.015625 14.40625 51.78125 6.484375 
Q 45.5625 -1.421875 35.59375 -1.421875 
Q 29.59375 -1.421875 25.265625 0.953125 
Q 20.953125 3.328125 18.109375 8.203125 
L 18.109375 0 
L 9.078125 0 
L 9.078125 75.984375 
L 18.109375 75.984375 
z
" id="DejaVuSans-98"/>
      <path d="M 34.28125 27.484375 
Q 23.390625 27.484375 19.1875 25 
Q 14.984375 22.515625 14.984375 16.5 
Q 14.984375 11.71875 18.140625 8.90625 
Q 21.296875 6.109375 26.703125 6.109375 
Q 34.1875 6.109375 38.703125 11.40625 
Q 43.21875 16.703125 43.21875 25.484375 
L 43.21875 27.484375 
z
M 52.203125 31.203125 
L 52.203125 0 
L 43.21875 0 
L 43.21875 8.296875 
Q 40.140625 3.328125 35.546875 0.953125 
Q 30.953125 -1.421875 24.3125 -1.421875 
Q 15.921875 -1.421875 10.953125 3.296875 
Q 6 8.015625 6 15.921875 
Q 6 25.140625 12.171875 29.828125 
Q 18.359375 34.515625 30.609375 34.515625 
L 43.21875 34.515625 
L 43.21875 35.40625 
Q 43.21875 41.609375 39.140625 45 
Q 35.0625 48.390625 27.6875 48.390625 
Q 23 48.390625 18.546875 47.265625 
Q 14.109375 46.140625 10.015625 43.890625 
L 10.015625 52.203125 
Q 14.9375 54.109375 19.578125 55.046875 
Q 24.21875 56 28.609375 56 
Q 40.484375 56 46.34375 49.84375 
Q 52.203125 43.703125 52.203125 31.203125 
z
" id="DejaVuSans-97"/>
      <path d="M 9.421875 54.6875 
L 18.40625 54.6875 
L 18.40625 0 
L 9.421875 0 
z
M 9.421875 75.984375 
L 18.40625 75.984375 
L 18.40625 64.59375 
L 9.421875 64.59375 
z
" id="DejaVuSans-105"/>
      <path d="M 9.421875 75.984375 
L 18.40625 75.984375 
L 18.40625 0 
L 9.421875 0 
z
" id="DejaVuSans-108"/>
      <path d="M 32.171875 -5.078125 
Q 28.375 -14.84375 24.75 -17.8125 
Q 21.140625 -20.796875 15.09375 -20.796875 
L 7.90625 -20.796875 
L 7.90625 -13.28125 
L 13.1875 -13.28125 
Q 16.890625 -13.28125 18.9375 -11.515625 
Q 21 -9.765625 23.484375 -3.21875 
L 25.09375 0.875 
L 2.984375 54.6875 
L 12.5 54.6875 
L 29.59375 11.921875 
L 46.6875 54.6875 
L 56.203125 54.6875 
z
" id="DejaVuSans-121"/>
     </defs>
     <g transform="translate(12.69745 341.71605)rotate(-90)scale(0.2592 -0.2592)">
      <use xlink:href="#DejaVuSans-80"/>
      <use x="60.287109" xlink:href="#DejaVuSans-114"/>
      <use x="101.369141" xlink:href="#DejaVuSans-111"/>
      <use x="162.550781" xlink:href="#DejaVuSans-98"/>
      <use x="226.027344" xlink:href="#DejaVuSans-97"/>
      <use x="287.306641" xlink:href="#DejaVuSans-98"/>
      <use x="350.783203" xlink:href="#DejaVuSans-105"/>
      <use x="378.566406" xlink:href="#DejaVuSans-108"/>
      <use x="406.349609" xlink:href="#DejaVuSans-105"/>
      <use x="434.132812" xlink:href="#DejaVuSans-116"/>
      <use x="473.341797" xlink:href="#DejaVuSans-121"/>
     </g>
    </g>
   </g>
   <g id="line2d_40">
    <path clip-path="url(#p020684ae58)" d="M 90 83.7 
L 101.387755 83.7 
L 101.387755 85.525647 
L 112.77551 85.525647 
L 112.77551 107.794662 
L 124.163265 107.794662 
L 124.163265 117.997659 
L 135.55102 117.997659 
L 135.55102 117.137712 
L 146.938776 117.137712 
L 146.938776 118.87206 
L 158.326531 118.87206 
L 158.326531 149.100497 
L 169.714286 149.100497 
L 169.714286 152.353157 
L 181.102041 152.353157 
L 181.102041 157.648464 
L 192.489796 157.648464 
L 192.489796 161.503977 
L 203.877551 161.503977 
L 203.877551 197.565385 
L 215.265306 197.565385 
L 215.265306 172.615301 
L 226.653061 172.615301 
L 226.653061 172.615301 
L 238.040816 172.615301 
L 238.040816 193.709872 
L 249.428571 193.709872 
L 249.428571 177.822204 
L 260.816327 177.822204 
L 260.816327 183.608786 
L 272.204082 183.608786 
L 272.204082 197.565385 
L 283.591837 197.565385 
L 283.591837 186.76282 
L 294.979592 186.76282 
L 294.979592 197.565385 
L 306.367347 197.565385 
L 306.367347 193.709872 
L 317.755102 193.709872 
L 317.755102 211.215047 
L 329.142857 211.215047 
L 329.142857 211.215047 
L 340.530612 211.215047 
L 340.530612 237.791065 
L 351.918367 237.791065 
L 351.918367 193.709872 
L 363.306122 193.709872 
L 363.306122 216.696493 
L 374.693878 216.696493 
L 374.693878 193.709872 
L 386.081633 193.709872 
L 386.081633 247.276456 
L 397.469388 247.276456 
L 397.469388 216.696493 
L 408.857143 216.696493 
L 408.857143 294.947044 
L 420.244898 294.947044 
L 420.244898 229.771281 
L 431.632653 229.771281 
L 431.632653 247.276456 
L 443.020408 247.276456 
L 443.020408 216.696493 
L 454.408163 216.696493 
L 454.408163 258.885636 
L 465.795918 258.885636 
L 465.795918 247.276456 
L 477.183673 247.276456 
L 477.183673 206.256477 
L 488.571429 206.256477 
L 488.571429 273.852473 
L 499.959184 273.852473 
L 499.959184 331.008453 
L 511.346939 331.008453 
L 511.346939 273.852473 
L 522.734694 273.852473 
L 522.734694 237.791065 
L 534.122449 237.791065 
L 534.122449 237.791065 
L 545.510204 237.791065 
L 545.510204 273.852473 
L 556.897959 273.852473 
L 556.897959 331.008453 
L 568.285714 331.008453 
L 568.285714 273.852473 
L 579.673469 273.852473 
L 579.673469 247.276456 
L 591.061224 247.276456 
L 591.061224 258.885636 
L 602.44898 258.885636 
L 602.44898 331.008453 
L 613.836735 331.008453 
L 613.836735 273.852473 
L 625.22449 273.852473 
L 625.22449 258.885636 
L 636.612245 258.885636 
L 636.612245 247.276456 
L 648 247.276456 
" style="fill:none;stroke:#1f77b4;stroke-linecap:square;stroke-width:1.5;"/>
   </g>
   <g id="line2d_41">
    <path clip-path="url(#p020684ae58)" d="M 90 131.82103 
L 101.387755 131.82103 
L 101.387755 127.48305 
L 112.77551 127.48305 
L 112.77551 137.807582 
L 124.163265 137.807582 
L 124.163265 183.608786 
L 135.55102 183.608786 
L 135.55102 177.822204 
L 146.938776 177.822204 
L 146.938776 197.565385 
L 158.326531 197.565385 
L 158.326531 258.885636 
L 169.714286 258.885636 
L 169.714286 211.215047 
L 181.102041 211.215047 
L 181.102041 247.276456 
L 192.489796 247.276456 
L 192.489796 247.276456 
L 203.877551 247.276456 
L 203.877551 541 
M 215.265306 541 
L 215.265306 273.852473 
L 226.653061 273.852473 
L 226.653061 273.852473 
L 238.040816 273.852473 
L 238.040816 294.947044 
L 249.428571 294.947044 
L 249.428571 273.852473 
L 260.816327 273.852473 
L 260.816327 294.947044 
L 272.204082 294.947044 
L 272.204082 294.947044 
L 283.591837 294.947044 
L 283.591837 273.852473 
L 294.979592 273.852473 
L 294.979592 331.008453 
L 306.367347 331.008453 
L 306.367347 294.947044 
L 317.755102 294.947044 
L 317.755102 294.947044 
L 329.142857 294.947044 
L 329.142857 541 
M 340.530612 541 
L 340.530612 273.852473 
L 351.918367 273.852473 
L 351.918367 331.008453 
L 363.306122 331.008453 
L 363.306122 331.008453 
L 374.693878 331.008453 
L 374.693878 294.947044 
L 386.081633 294.947044 
L 386.081633 541 
M 420.244898 541 
L 420.244898 331.008453 
L 431.632653 331.008453 
L 431.632653 541 
M 443.020408 541 
L 443.020408 258.885636 
L 454.408163 258.885636 
L 454.408163 541 
M 477.183673 541 
L 477.183673 294.947044 
L 488.571429 294.947044 
L 488.571429 331.008453 
L 499.959184 331.008453 
L 499.959184 541 
M 545.510204 541 
L 545.510204 331.008453 
L 556.897959 331.008453 
L 556.897959 541 
M 579.673469 541 
L 579.673469 331.008453 
L 591.061224 331.008453 
L 591.061224 541 
M 625.22449 541 
L 625.22449 331.008453 
L 636.612245 331.008453 
L 636.612245 331.008453 
L 648 331.008453 
" style="fill:none;stroke:#ff7f0e;stroke-linecap:square;stroke-width:1.5;"/>
   </g>
   <g id="line2d_42">
    <path clip-path="url(#p020684ae58)" d="M 90 109.977875 
L 101.387755 109.977875 
L 101.387755 116.291749 
L 112.77551 116.291749 
L 112.77551 150.701411 
L 124.163265 150.701411 
L 124.163265 135.329704 
L 135.55102 135.329704 
L 135.55102 136.553893 
L 146.938776 136.553893 
L 146.938776 131.82103 
L 158.326531 131.82103 
L 158.326531 155.822817 
L 169.714286 155.822817 
L 169.714286 172.615301 
L 181.102041 172.615301 
L 181.102041 167.882438 
L 192.489796 167.882438 
L 192.489796 172.615301 
L 203.877551 172.615301 
L 203.877551 197.565385 
L 215.265306 197.565385 
L 215.265306 180.635085 
L 226.653061 180.635085 
L 226.653061 180.635085 
L 238.040816 180.635085 
L 238.040816 201.729656 
L 249.428571 201.729656 
L 249.428571 186.76282 
L 260.816327 186.76282 
L 260.816327 190.120476 
L 272.204082 190.120476 
L 272.204082 206.256477 
L 283.591837 206.256477 
L 283.591837 197.565385 
L 294.979592 197.565385 
L 294.979592 201.729656 
L 306.367347 201.729656 
L 306.367347 201.729656 
L 317.755102 201.729656 
L 317.755102 222.824228 
L 329.142857 222.824228 
L 329.142857 211.215047 
L 340.530612 211.215047 
L 340.530612 273.852473 
L 351.918367 273.852473 
L 351.918367 197.565385 
L 363.306122 197.565385 
L 363.306122 222.824228 
L 374.693878 222.824228 
L 374.693878 201.729656 
L 386.081633 201.729656 
L 386.081633 247.276456 
L 397.469388 247.276456 
L 397.469388 216.696493 
L 408.857143 216.696493 
L 408.857143 294.947044 
L 420.244898 294.947044 
L 420.244898 237.791065 
L 431.632653 237.791065 
L 431.632653 247.276456 
L 443.020408 247.276456 
L 443.020408 247.276456 
L 454.408163 247.276456 
L 454.408163 258.885636 
L 465.795918 258.885636 
L 465.795918 247.276456 
L 477.183673 247.276456 
L 477.183673 216.696493 
L 488.571429 216.696493 
L 488.571429 294.947044 
L 499.959184 294.947044 
L 499.959184 331.008453 
L 511.346939 331.008453 
L 511.346939 273.852473 
L 522.734694 273.852473 
L 522.734694 237.791065 
L 534.122449 237.791065 
L 534.122449 237.791065 
L 545.510204 237.791065 
L 545.510204 294.947044 
L 556.897959 294.947044 
L 556.897959 331.008453 
L 568.285714 331.008453 
L 568.285714 273.852473 
L 579.673469 273.852473 
L 579.673469 258.885636 
L 591.061224 258.885636 
L 591.061224 258.885636 
L 602.44898 258.885636 
L 602.44898 331.008453 
L 613.836735 331.008453 
L 613.836735 273.852473 
L 625.22449 273.852473 
L 625.22449 273.852473 
L 636.612245 273.852473 
L 636.612245 258.885636 
L 648 258.885636 
" style="fill:none;stroke:#2ca02c;stroke-linecap:square;stroke-width:1.5;"/>
   </g>
   <g id="line2d_43">
    <path clip-path="url(#p020684ae58)" d="M 90 126.605796 
L 101.387755 126.605796 
L 101.387755 141.379382 
L 112.77551 141.379382 
L 112.77551 161.114085 
L 124.163265 161.114085 
L 124.163265 173.61678 
L 135.55102 173.61678 
L 135.55102 174.442601 
L 146.938776 174.442601 
L 146.938776 181.807532 
L 158.326531 181.807532 
L 158.326531 188.447245 
L 169.714286 188.447245 
L 169.714286 191.823064 
L 181.102041 191.823064 
L 181.102041 195.122623 
L 192.489796 195.122623 
L 192.489796 199.649444 
L 203.877551 199.649444 
L 203.877551 202.782367 
L 215.265306 202.782367 
L 215.265306 198.645703 
L 226.653061 198.645703 
L 226.653061 192.114524 
L 238.040816 192.114524 
L 238.040816 200.672931 
L 249.428571 200.672931 
L 249.428571 198.31538 
L 260.816327 198.31538 
L 260.816327 196.060047 
L 272.204082 196.060047 
L 272.204082 195.122623 
L 283.591837 195.122623 
L 283.591837 203.87005 
L 294.979592 203.87005 
L 294.979592 202.782367 
L 306.367347 202.782367 
L 306.367347 204.237724 
L 317.755102 204.237724 
L 317.755102 206.500063 
L 329.142857 206.500063 
L 329.142857 208.463527 
L 340.530612 208.463527 
L 340.530612 210.504009 
L 351.918367 210.504009 
L 351.918367 206.116109 
L 363.306122 206.116109 
L 363.306122 211.34315 
L 374.693878 211.34315 
L 374.693878 208.865271 
L 386.081633 208.865271 
L 386.081633 213.944973 
L 397.469388 213.944973 
L 397.469388 207.276579 
L 408.857143 207.276579 
L 408.857143 223.164248 
L 420.244898 223.164248 
L 420.244898 214.391547 
L 431.632653 214.391547 
L 431.632653 211.34315 
L 443.020408 211.34315 
L 443.020408 217.154619 
L 454.408163 217.154619 
L 454.408163 218.593206 
L 465.795918 218.593206 
L 465.795918 213.502199 
L 477.183673 213.502199 
L 477.183673 205.734967 
L 488.571429 205.734967 
L 488.571429 219.081714 
L 499.959184 219.081714 
L 499.959184 212.196048 
L 511.346939 212.196048 
L 511.346939 221.082945 
L 522.734694 221.082945 
L 522.734694 230.568337 
L 534.122449 230.568337 
L 534.122449 221.082945 
L 545.510204 221.082945 
L 545.510204 222.113189 
L 556.897959 222.113189 
L 556.897959 225.888724 
L 568.285714 225.888724 
L 568.285714 224.236979 
L 579.673469 224.236979 
L 579.673469 216.683795 
L 591.061224 216.683795 
L 591.061224 229.358384 
L 602.44898 229.358384 
L 602.44898 228.763799 
L 613.836735 228.763799 
L 613.836735 220.575374 
L 625.22449 220.575374 
L 625.22449 230.568337 
L 636.612245 230.568337 
L 636.612245 231.8071 
L 648 231.8071 
" style="fill:none;stroke:#d62728;stroke-linecap:square;stroke-width:1.5;"/>
   </g>
   <g id="line2d_44">
    <path clip-path="url(#p020684ae58)" d="M 90 404.54402 
L 101.387755 404.54402 
L 101.387755 389.577183 
L 112.77551 389.577183 
L 112.77551 377.968003 
L 124.163265 377.968003 
L 124.163265 425.638592 
L 135.55102 425.638592 
L 135.55102 389.577183 
L 146.938776 389.577183 
L 146.938776 461.7 
L 158.326531 461.7 
L 158.326531 541 
M 169.714286 541 
L 169.714286 461.7 
L 181.102041 461.7 
L 181.102041 425.638592 
L 192.489796 425.638592 
L 192.489796 389.577183 
L 203.877551 389.577183 
L 203.877551 425.638592 
L 215.265306 425.638592 
L 215.265306 425.638592 
L 226.653061 425.638592 
L 226.653061 461.7 
L 238.040816 461.7 
L 238.040816 404.54402 
L 249.428571 404.54402 
L 249.428571 461.7 
L 260.816327 461.7 
L 260.816327 389.577183 
L 272.204082 389.577183 
L 272.204082 425.638592 
L 283.591837 425.638592 
L 283.591837 425.638592 
L 294.979592 425.638592 
L 294.979592 541 
M 329.142857 541 
L 329.142857 389.577183 
L 340.530612 389.577183 
L 340.530612 461.7 
L 351.918367 461.7 
L 351.918367 541 
M 363.306122 541 
L 363.306122 461.7 
L 374.693878 461.7 
L 374.693878 425.638592 
L 386.081633 425.638592 
L 386.081633 541 
M 397.469388 541 
L 397.469388 461.7 
L 408.857143 461.7 
L 408.857143 461.7 
L 420.244898 461.7 
L 420.244898 404.54402 
L 431.632653 404.54402 
L 431.632653 541 
M 443.020408 541 
L 443.020408 461.7 
L 454.408163 461.7 
L 454.408163 461.7 
L 465.795918 461.7 
L 465.795918 461.7 
L 477.183673 461.7 
L 477.183673 425.638592 
L 488.571429 425.638592 
L 488.571429 461.7 
L 499.959184 461.7 
L 499.959184 461.7 
L 511.346939 461.7 
L 511.346939 541 
M 522.734694 541 
L 522.734694 461.7 
L 534.122449 461.7 
L 534.122449 541 
M 545.510204 541 
L 545.510204 461.7 
L 556.897959 461.7 
L 556.897959 425.638592 
L 568.285714 425.638592 
L 568.285714 461.7 
L 579.673469 461.7 
L 579.673469 541 
M 613.836735 541 
L 613.836735 461.7 
L 625.22449 461.7 
L 625.22449 425.638592 
L 636.612245 425.638592 
L 636.612245 541 
" style="fill:none;stroke:#9467bd;stroke-linecap:square;stroke-width:1.5;"/>
   </g>
   <g id="line2d_45">
    <path clip-path="url(#p020684ae58)" d="M 90 126.855319 
L 101.387755 126.855319 
L 101.387755 141.822156 
L 112.77551 141.822156 
L 112.77551 161.925734 
L 124.163265 161.925734 
L 124.163265 174.028052 
L 135.55102 174.028052 
L 135.55102 175.281742 
L 146.938776 175.281742 
L 146.938776 182.047835 
L 158.326531 182.047835 
L 158.326531 188.447245 
L 169.714286 188.447245 
L 169.714286 192.114524 
L 181.102041 192.114524 
L 181.102041 195.745692 
L 192.489796 195.745692 
L 192.489796 201.018618 
L 203.877551 201.018618 
L 203.877551 203.504956 
L 215.265306 203.504956 
L 215.265306 199.312707 
L 226.653061 199.312707 
L 226.653061 192.407627 
L 238.040816 192.407627 
L 238.040816 201.716959 
L 249.428571 201.716959 
L 249.428571 198.645703 
L 260.816327 198.645703 
L 260.816327 197.336813 
L 272.204082 197.336813 
L 272.204082 195.745692 
L 283.591837 195.745692 
L 283.591837 204.608014 
L 294.979592 204.608014 
L 294.979592 202.782367 
L 306.367347 202.782367 
L 306.367347 204.237724 
L 317.755102 204.237724 
L 317.755102 206.500063 
L 329.142857 206.500063 
L 329.142857 210.08946 
L 340.530612 210.08946 
L 340.530612 210.921887 
L 351.918367 210.921887 
L 351.918367 206.116109 
L 363.306122 206.116109 
L 363.306122 211.767851 
L 374.693878 211.767851 
L 374.693878 209.678188 
L 386.081633 209.678188 
L 386.081633 213.944973 
L 397.469388 213.944973 
L 397.469388 207.669227 
L 408.857143 207.669227 
L 408.857143 223.697848 
L 420.244898 223.697848 
L 420.244898 215.754742 
L 431.632653 215.754742 
L 431.632653 211.34315 
L 443.020408 211.34315 
L 443.020408 217.629742 
L 454.408163 217.629742 
L 454.408163 219.081714 
L 465.795918 219.081714 
L 465.795918 213.944973 
L 477.183673 213.944973 
L 477.183673 206.500063 
L 488.571429 206.500063 
L 488.571429 219.574851 
L 499.959184 219.574851 
L 499.959184 212.627798 
L 511.346939 212.627798 
L 511.346939 221.082945 
L 522.734694 221.082945 
L 522.734694 231.184031 
L 534.122449 231.184031 
L 534.122449 221.082945 
L 545.510204 221.082945 
L 545.510204 222.636064 
L 556.897959 222.636064 
L 556.897959 227.01976 
L 568.285714 227.01976 
L 568.285714 224.781754 
L 579.673469 224.781754 
L 579.673469 216.683795 
L 591.061224 216.683795 
L 591.061224 229.358384 
L 602.44898 229.358384 
L 602.44898 228.763799 
L 613.836735 228.763799 
L 613.836735 221.082945 
L 625.22449 221.082945 
L 625.22449 231.8071 
L 636.612245 231.8071 
L 636.612245 231.8071 
L 648 231.8071 
" style="fill:none;stroke:#8c564b;stroke-linecap:square;stroke-width:1.5;"/>
   </g>
   <g id="line2d_46">
    <path clip-path="url(#p020684ae58)" d="M 389.387387 480.6 
L 389.387387 64.8 
" style="fill:none;stroke:#1f77b4;stroke-linecap:square;stroke-width:1.5;"/>
   </g>
   <g id="patch_5">
    <path d="M 90 480.6 
L 90 64.8 
" style="fill:none;stroke:#000000;stroke-linecap:square;stroke-linejoin:miter;stroke-width:0.8;"/>
   </g>
   <g id="patch_6">
    <path d="M 648 480.6 
L 648 64.8 
" style="fill:none;stroke:#000000;stroke-linecap:square;stroke-linejoin:miter;stroke-width:0.8;"/>
   </g>
   <g id="patch_7">
    <path d="M 90 480.6 
L 648 480.6 
" style="fill:none;stroke:#000000;stroke-linecap:square;stroke-linejoin:miter;stroke-width:0.8;"/>
   </g>
   <g id="patch_8">
    <path d="M 90 64.8 
L 648 64.8 
" style="fill:none;stroke:#000000;stroke-linecap:square;stroke-linejoin:miter;stroke-width:0.8;"/>
   </g>
   <g id="text_13">
    <g id="patch_9">
     <path d="M 471.625111 109.584125 
L 401.387387 109.584125 
L 401.387387 78.227875 
L 471.625111 78.227875 
L 471.625111 70.388813 
L 495.142298 93.906 
L 471.625111 117.423188 
L 471.625111 109.584125 
z
" style="fill:#ff7f0e;opacity:0.5;stroke:#ff7f0e;stroke-linejoin:miter;"/>
    </g>
    <!-- photon -->
    <defs>
     <path d="M 54.890625 33.015625 
L 54.890625 0 
L 45.90625 0 
L 45.90625 32.71875 
Q 45.90625 40.484375 42.875 44.328125 
Q 39.84375 48.1875 33.796875 48.1875 
Q 26.515625 48.1875 22.3125 43.546875 
Q 18.109375 38.921875 18.109375 30.90625 
L 18.109375 0 
L 9.078125 0 
L 9.078125 75.984375 
L 18.109375 75.984375 
L 18.109375 46.1875 
Q 21.34375 51.125 25.703125 53.5625 
Q 30.078125 56 35.796875 56 
Q 45.21875 56 50.046875 50.171875 
Q 54.890625 44.34375 54.890625 33.015625 
z
" id="DejaVuSans-104"/>
     <path d="M 54.890625 33.015625 
L 54.890625 0 
L 45.90625 0 
L 45.90625 32.71875 
Q 45.90625 40.484375 42.875 44.328125 
Q 39.84375 48.1875 33.796875 48.1875 
Q 26.515625 48.1875 22.3125 43.546875 
Q 18.109375 38.921875 18.109375 30.90625 
L 18.109375 0 
L 9.078125 0 
L 9.078125 54.6875 
L 18.109375 54.6875 
L 18.109375 46.1875 
Q 21.34375 51.125 25.703125 53.5625 
Q 30.078125 56 35.796875 56 
Q 45.21875 56 50.046875 50.171875 
Q 54.890625 44.34375 54.890625 33.015625 
z
" id="DejaVuSans-110"/>
    </defs>
    <g transform="translate(407.387387 99.42475)scale(0.2 -0.2)">
     <use xlink:href="#DejaVuSans-112"/>
     <use x="63.476562" xlink:href="#DejaVuSans-104"/>
     <use x="126.855469" xlink:href="#DejaVuSans-111"/>
     <use x="188.037109" xlink:href="#DejaVuSans-116"/>
     <use x="227.246094" xlink:href="#DejaVuSans-111"/>
     <use x="288.427734" xlink:href="#DejaVuSans-110"/>
    </g>
   </g>
   <g id="text_14">
    <g id="patch_10">
     <path d="M 295.377789 109.584125 
L 377.387387 109.584125 
L 377.387387 78.227875 
L 295.377789 78.227875 
L 295.377789 70.388813 
L 271.860602 93.906 
L 295.377789 117.423188 
L 295.377789 109.584125 
z
" style="fill:#1f77b4;opacity:0.5;stroke:#1f77b4;stroke-linejoin:miter;"/>
    </g>
    <!-- electron -->
    <defs>
     <path d="M 48.78125 52.59375 
L 48.78125 44.1875 
Q 44.96875 46.296875 41.140625 47.34375 
Q 37.3125 48.390625 33.40625 48.390625 
Q 24.65625 48.390625 19.8125 42.84375 
Q 14.984375 37.3125 14.984375 27.296875 
Q 14.984375 17.28125 19.8125 11.734375 
Q 24.65625 6.203125 33.40625 6.203125 
Q 37.3125 6.203125 41.140625 7.25 
Q 44.96875 8.296875 48.78125 10.40625 
L 48.78125 2.09375 
Q 45.015625 0.34375 40.984375 -0.53125 
Q 36.96875 -1.421875 32.421875 -1.421875 
Q 20.0625 -1.421875 12.78125 6.34375 
Q 5.515625 14.109375 5.515625 27.296875 
Q 5.515625 40.671875 12.859375 48.328125 
Q 20.21875 56 33.015625 56 
Q 37.15625 56 41.109375 55.140625 
Q 45.0625 54.296875 48.78125 52.59375 
z
" id="DejaVuSans-99"/>
    </defs>
    <g transform="translate(289.253012 99.42475)scale(0.2 -0.2)">
     <use xlink:href="#DejaVuSans-101"/>
     <use x="61.523438" xlink:href="#DejaVuSans-108"/>
     <use x="89.306641" xlink:href="#DejaVuSans-101"/>
     <use x="150.830078" xlink:href="#DejaVuSans-99"/>
     <use x="205.810547" xlink:href="#DejaVuSans-116"/>
     <use x="245.019531" xlink:href="#DejaVuSans-114"/>
     <use x="286.101562" xlink:href="#DejaVuSans-111"/>
     <use x="347.283203" xlink:href="#DejaVuSans-110"/>
    </g>
   </g>
   <g id="legend_1">
    <g id="patch_11">
     <path d="M 411.623438 239.72625 
L 635.4 239.72625 
Q 639 239.72625 639 236.12625 
L 639 77.4 
Q 639 73.8 635.4 73.8 
L 411.623438 73.8 
Q 408.023438 73.8 408.023438 77.4 
L 408.023438 236.12625 
Q 408.023438 239.72625 411.623438 239.72625 
z
" style="fill:#ffffff;opacity:0.5;stroke:#cccccc;stroke-linejoin:miter;"/>
    </g>
    <g id="line2d_47">
     <path d="M 415.223437 88.377188 
L 451.223437 88.377188 
" style="fill:none;stroke:#1f77b4;stroke-linecap:square;stroke-width:1.5;"/>
    </g>
    <g id="line2d_48"/>
    <g id="text_15">
     <!-- Electrons -->
     <defs>
      <path d="M 9.8125 72.90625 
L 55.90625 72.90625 
L 55.90625 64.59375 
L 19.671875 64.59375 
L 19.671875 43.015625 
L 54.390625 43.015625 
L 54.390625 34.71875 
L 19.671875 34.71875 
L 19.671875 8.296875 
L 56.78125 8.296875 
L 56.78125 0 
L 9.8125 0 
z
" id="DejaVuSans-69"/>
      <path d="M 44.28125 53.078125 
L 44.28125 44.578125 
Q 40.484375 46.53125 36.375 47.5 
Q 32.28125 48.484375 27.875 48.484375 
Q 21.1875 48.484375 17.84375 46.4375 
Q 14.5 44.390625 14.5 40.28125 
Q 14.5 37.15625 16.890625 35.375 
Q 19.28125 33.59375 26.515625 31.984375 
L 29.59375 31.296875 
Q 39.15625 29.25 43.1875 25.515625 
Q 47.21875 21.78125 47.21875 15.09375 
Q 47.21875 7.46875 41.1875 3.015625 
Q 35.15625 -1.421875 24.609375 -1.421875 
Q 20.21875 -1.421875 15.453125 -0.5625 
Q 10.6875 0.296875 5.421875 2 
L 5.421875 11.28125 
Q 10.40625 8.6875 15.234375 7.390625 
Q 20.0625 6.109375 24.8125 6.109375 
Q 31.15625 6.109375 34.5625 8.28125 
Q 37.984375 10.453125 37.984375 14.40625 
Q 37.984375 18.0625 35.515625 20.015625 
Q 33.0625 21.96875 24.703125 23.78125 
L 21.578125 24.515625 
Q 13.234375 26.265625 9.515625 29.90625 
Q 5.8125 33.546875 5.8125 39.890625 
Q 5.8125 47.609375 11.28125 51.796875 
Q 16.75 56 26.8125 56 
Q 31.78125 56 36.171875 55.265625 
Q 40.578125 54.546875 44.28125 53.078125 
z
" id="DejaVuSans-115"/>
     </defs>
     <g transform="translate(465.623437 94.677188)scale(0.18 -0.18)">
      <use xlink:href="#DejaVuSans-69"/>
      <use x="63.183594" xlink:href="#DejaVuSans-108"/>
      <use x="90.966797" xlink:href="#DejaVuSans-101"/>
      <use x="152.490234" xlink:href="#DejaVuSans-99"/>
      <use x="207.470703" xlink:href="#DejaVuSans-116"/>
      <use x="246.679688" xlink:href="#DejaVuSans-114"/>
      <use x="287.761719" xlink:href="#DejaVuSans-111"/>
      <use x="348.943359" xlink:href="#DejaVuSans-110"/>
      <use x="412.322266" xlink:href="#DejaVuSans-115"/>
     </g>
    </g>
    <g id="line2d_49">
     <path d="M 415.223437 114.797813 
L 451.223437 114.797813 
" style="fill:none;stroke:#ff7f0e;stroke-linecap:square;stroke-width:1.5;"/>
    </g>
    <g id="line2d_50"/>
    <g id="text_16">
     <!-- Electrons (Nu_e) -->
     <defs>
      <path id="DejaVuSans-32"/>
      <path d="M 31 75.875 
Q 24.46875 64.65625 21.28125 53.65625 
Q 18.109375 42.671875 18.109375 31.390625 
Q 18.109375 20.125 21.3125 9.0625 
Q 24.515625 -2 31 -13.1875 
L 23.1875 -13.1875 
Q 15.875 -1.703125 12.234375 9.375 
Q 8.59375 20.453125 8.59375 31.390625 
Q 8.59375 42.28125 12.203125 53.3125 
Q 15.828125 64.359375 23.1875 75.875 
z
" id="DejaVuSans-40"/>
      <path d="M 9.8125 72.90625 
L 23.09375 72.90625 
L 55.421875 11.921875 
L 55.421875 72.90625 
L 64.984375 72.90625 
L 64.984375 0 
L 51.703125 0 
L 19.390625 60.984375 
L 19.390625 0 
L 9.8125 0 
z
" id="DejaVuSans-78"/>
      <path d="M 8.5 21.578125 
L 8.5 54.6875 
L 17.484375 54.6875 
L 17.484375 21.921875 
Q 17.484375 14.15625 20.5 10.265625 
Q 23.53125 6.390625 29.59375 6.390625 
Q 36.859375 6.390625 41.078125 11.03125 
Q 45.3125 15.671875 45.3125 23.6875 
L 45.3125 54.6875 
L 54.296875 54.6875 
L 54.296875 0 
L 45.3125 0 
L 45.3125 8.40625 
Q 42.046875 3.421875 37.71875 1 
Q 33.40625 -1.421875 27.6875 -1.421875 
Q 18.265625 -1.421875 13.375 4.4375 
Q 8.5 10.296875 8.5 21.578125 
z
M 31.109375 56 
z
" id="DejaVuSans-117"/>
      <path d="M 50.984375 -16.609375 
L 50.984375 -23.578125 
L -0.984375 -23.578125 
L -0.984375 -16.609375 
z
" id="DejaVuSans-95"/>
      <path d="M 8.015625 75.875 
L 15.828125 75.875 
Q 23.140625 64.359375 26.78125 53.3125 
Q 30.421875 42.28125 30.421875 31.390625 
Q 30.421875 20.453125 26.78125 9.375 
Q 23.140625 -1.703125 15.828125 -13.1875 
L 8.015625 -13.1875 
Q 14.5 -2 17.703125 9.0625 
Q 20.90625 20.125 20.90625 31.390625 
Q 20.90625 42.671875 17.703125 53.65625 
Q 14.5 64.65625 8.015625 75.875 
z
" id="DejaVuSans-41"/>
     </defs>
     <g transform="translate(465.623437 121.097813)scale(0.18 -0.18)">
      <use xlink:href="#DejaVuSans-69"/>
      <use x="63.183594" xlink:href="#DejaVuSans-108"/>
      <use x="90.966797" xlink:href="#DejaVuSans-101"/>
      <use x="152.490234" xlink:href="#DejaVuSans-99"/>
      <use x="207.470703" xlink:href="#DejaVuSans-116"/>
      <use x="246.679688" xlink:href="#DejaVuSans-114"/>
      <use x="287.761719" xlink:href="#DejaVuSans-111"/>
      <use x="348.943359" xlink:href="#DejaVuSans-110"/>
      <use x="412.322266" xlink:href="#DejaVuSans-115"/>
      <use x="464.421875" xlink:href="#DejaVuSans-32"/>
      <use x="496.208984" xlink:href="#DejaVuSans-40"/>
      <use x="535.222656" xlink:href="#DejaVuSans-78"/>
      <use x="610.027344" xlink:href="#DejaVuSans-117"/>
      <use x="673.40625" xlink:href="#DejaVuSans-95"/>
      <use x="723.40625" xlink:href="#DejaVuSans-101"/>
      <use x="784.929688" xlink:href="#DejaVuSans-41"/>
     </g>
    </g>
    <g id="line2d_51">
     <path d="M 415.223437 141.719063 
L 451.223437 141.719063 
" style="fill:none;stroke:#2ca02c;stroke-linecap:square;stroke-width:1.5;"/>
    </g>
    <g id="line2d_52"/>
    <g id="text_17">
     <!-- Electrons (Nu_mu) -->
     <defs>
      <path d="M 52 44.1875 
Q 55.375 50.25 60.0625 53.125 
Q 64.75 56 71.09375 56 
Q 79.640625 56 84.28125 50.015625 
Q 88.921875 44.046875 88.921875 33.015625 
L 88.921875 0 
L 79.890625 0 
L 79.890625 32.71875 
Q 79.890625 40.578125 77.09375 44.375 
Q 74.3125 48.1875 68.609375 48.1875 
Q 61.625 48.1875 57.5625 43.546875 
Q 53.515625 38.921875 53.515625 30.90625 
L 53.515625 0 
L 44.484375 0 
L 44.484375 32.71875 
Q 44.484375 40.625 41.703125 44.40625 
Q 38.921875 48.1875 33.109375 48.1875 
Q 26.21875 48.1875 22.15625 43.53125 
Q 18.109375 38.875 18.109375 30.90625 
L 18.109375 0 
L 9.078125 0 
L 9.078125 54.6875 
L 18.109375 54.6875 
L 18.109375 46.1875 
Q 21.1875 51.21875 25.484375 53.609375 
Q 29.78125 56 35.6875 56 
Q 41.65625 56 45.828125 52.96875 
Q 50 49.953125 52 44.1875 
z
" id="DejaVuSans-109"/>
     </defs>
     <g transform="translate(465.623437 148.019063)scale(0.18 -0.18)">
      <use xlink:href="#DejaVuSans-69"/>
      <use x="63.183594" xlink:href="#DejaVuSans-108"/>
      <use x="90.966797" xlink:href="#DejaVuSans-101"/>
      <use x="152.490234" xlink:href="#DejaVuSans-99"/>
      <use x="207.470703" xlink:href="#DejaVuSans-116"/>
      <use x="246.679688" xlink:href="#DejaVuSans-114"/>
      <use x="287.761719" xlink:href="#DejaVuSans-111"/>
      <use x="348.943359" xlink:href="#DejaVuSans-110"/>
      <use x="412.322266" xlink:href="#DejaVuSans-115"/>
      <use x="464.421875" xlink:href="#DejaVuSans-32"/>
      <use x="496.208984" xlink:href="#DejaVuSans-40"/>
      <use x="535.222656" xlink:href="#DejaVuSans-78"/>
      <use x="610.027344" xlink:href="#DejaVuSans-117"/>
      <use x="673.40625" xlink:href="#DejaVuSans-95"/>
      <use x="723.40625" xlink:href="#DejaVuSans-109"/>
      <use x="820.818359" xlink:href="#DejaVuSans-117"/>
      <use x="884.197266" xlink:href="#DejaVuSans-41"/>
     </g>
    </g>
    <g id="line2d_53">
     <path d="M 415.223437 168.640312 
L 451.223437 168.640312 
" style="fill:none;stroke:#d62728;stroke-linecap:square;stroke-width:1.5;"/>
    </g>
    <g id="line2d_54"/>
    <g id="text_18">
     <!-- Photons -->
     <g transform="translate(465.623437 174.940313)scale(0.18 -0.18)">
      <use xlink:href="#DejaVuSans-80"/>
      <use x="60.302734" xlink:href="#DejaVuSans-104"/>
      <use x="123.681641" xlink:href="#DejaVuSans-111"/>
      <use x="184.863281" xlink:href="#DejaVuSans-116"/>
      <use x="224.072266" xlink:href="#DejaVuSans-111"/>
      <use x="285.253906" xlink:href="#DejaVuSans-110"/>
      <use x="348.632812" xlink:href="#DejaVuSans-115"/>
     </g>
    </g>
    <g id="line2d_55">
     <path d="M 415.223437 195.060937 
L 451.223437 195.060937 
" style="fill:none;stroke:#9467bd;stroke-linecap:square;stroke-width:1.5;"/>
    </g>
    <g id="line2d_56"/>
    <g id="text_19">
     <!-- Photons (Nu_e) -->
     <g transform="translate(465.623437 201.360937)scale(0.18 -0.18)">
      <use xlink:href="#DejaVuSans-80"/>
      <use x="60.302734" xlink:href="#DejaVuSans-104"/>
      <use x="123.681641" xlink:href="#DejaVuSans-111"/>
      <use x="184.863281" xlink:href="#DejaVuSans-116"/>
      <use x="224.072266" xlink:href="#DejaVuSans-111"/>
      <use x="285.253906" xlink:href="#DejaVuSans-110"/>
      <use x="348.632812" xlink:href="#DejaVuSans-115"/>
      <use x="400.732422" xlink:href="#DejaVuSans-32"/>
      <use x="432.519531" xlink:href="#DejaVuSans-40"/>
      <use x="471.533203" xlink:href="#DejaVuSans-78"/>
      <use x="546.337891" xlink:href="#DejaVuSans-117"/>
      <use x="609.716797" xlink:href="#DejaVuSans-95"/>
      <use x="659.716797" xlink:href="#DejaVuSans-101"/>
      <use x="721.240234" xlink:href="#DejaVuSans-41"/>
     </g>
    </g>
    <g id="line2d_57">
     <path d="M 415.223437 221.982188 
L 451.223437 221.982188 
" style="fill:none;stroke:#8c564b;stroke-linecap:square;stroke-width:1.5;"/>
    </g>
    <g id="line2d_58"/>
    <g id="text_20">
     <!-- Photons (Nu_mu) -->
     <g transform="translate(465.623437 228.282188)scale(0.18 -0.18)">
      <use xlink:href="#DejaVuSans-80"/>
      <use x="60.302734" xlink:href="#DejaVuSans-104"/>
      <use x="123.681641" xlink:href="#DejaVuSans-111"/>
      <use x="184.863281" xlink:href="#DejaVuSans-116"/>
      <use x="224.072266" xlink:href="#DejaVuSans-111"/>
      <use x="285.253906" xlink:href="#DejaVuSans-110"/>
      <use x="348.632812" xlink:href="#DejaVuSans-115"/>
      <use x="400.732422" xlink:href="#DejaVuSans-32"/>
      <use x="432.519531" xlink:href="#DejaVuSans-40"/>
      <use x="471.533203" xlink:href="#DejaVuSans-78"/>
      <use x="546.337891" xlink:href="#DejaVuSans-117"/>
      <use x="609.716797" xlink:href="#DejaVuSans-95"/>
      <use x="659.716797" xlink:href="#DejaVuSans-109"/>
      <use x="757.128906" xlink:href="#DejaVuSans-117"/>
      <use x="820.507812" xlink:href="#DejaVuSans-41"/>
     </g>
    </g>
   </g>
  </g>
 </g>
 <defs>
  <clipPath id="p020684ae58">
   <rect height="415.8" width="558" x="90" y="64.8"/>
  </clipPath>
 </defs>
</svg>
