<?xml version="1.0" encoding="utf-8" standalone="no"?>
<!DOCTYPE svg PUBLIC "-//W3C//DTD SVG 1.1//EN"
  "http://www.w3.org/Graphics/SVG/1.1/DTD/svg11.dtd">
<!-- Created with matplotlib (https://matplotlib.org/) -->
<svg height="540pt" version="1.1" viewBox="0 0 720 540" width="720pt" xmlns="http://www.w3.org/2000/svg" xmlns:xlink="http://www.w3.org/1999/xlink">
 <defs>
  <style type="text/css">
*{stroke-linecap:butt;stroke-linejoin:round;}
  </style>
 </defs>
 <g id="figure_1">
  <g id="patch_1">
   <path d="M 0 540 
L 720 540 
L 720 0 
L 0 0 
z
" style="fill:#ffffff;"/>
  </g>
  <g id="axes_1">
   <g id="patch_2">
    <path d="M 90 480.6 
L 648 480.6 
L 648 64.8 
L 90 64.8 
z
" style="fill:#ffffff;"/>
   </g>
   <g id="patch_3">
    <path clip-path="url(#p6364f5afb9)" d="M 90 124264.922198 
L 90 124.248162 
L 101.387755 124.248162 
L 101.387755 90.135538 
L 112.77551 90.135538 
L 112.77551 83.7 
L 124.163265 83.7 
L 124.163265 95.900434 
L 135.55102 95.900434 
L 135.55102 99.031434 
L 146.938776 99.031434 
L 146.938776 110.678536 
L 158.326531 110.678536 
L 158.326531 124.248162 
L 169.714286 124.248162 
L 169.714286 128.249593 
L 181.102041 128.249593 
L 181.102041 134.092544 
L 192.489796 134.092544 
L 192.489796 140.645377 
L 203.877551 140.645377 
L 203.877551 144.246352 
L 215.265306 144.246352 
L 215.265306 148.104752 
L 226.653061 148.104752 
L 226.653061 176.357335 
L 238.040816 176.357335 
L 238.040816 159.162548 
L 249.428571 159.162548 
L 249.428571 191.890618 
L 260.816327 191.890618 
L 260.816327 173.083931 
L 272.204082 173.083931 
L 272.204082 164.308784 
L 283.591837 164.308784 
L 283.591837 179.842067 
L 294.979592 179.842067 
L 294.979592 183.567311 
L 306.367347 183.567311 
L 306.367347 183.567311 
L 317.755102 183.567311 
L 317.755102 201.735 
L 329.142857 201.735 
L 329.142857 201.735 
L 340.530612 201.735 
L 340.530612 179.842067 
L 351.918367 179.842067 
L 351.918367 183.567311 
L 363.306122 183.567311 
L 363.306122 196.588764 
L 374.693878 196.588764 
L 374.693878 207.423901 
L 386.081633 207.423901 
L 386.081633 196.588764 
L 397.469388 196.588764 
L 397.469388 213.783551 
L 408.857143 213.783551 
L 408.857143 201.735 
L 420.244898 201.735 
L 420.244898 229.316834 
L 431.632653 229.316834 
L 431.632653 213.783551 
L 443.020408 213.783551 
L 443.020408 239.161217 
L 454.408163 239.161217 
L 454.408163 220.993527 
L 465.795918 220.993527 
L 465.795918 239.161217 
L 477.183673 239.161217 
L 477.183673 239.161217 
L 488.571429 239.161217 
L 488.571429 213.783551 
L 499.959184 213.783551 
L 499.959184 229.316834 
L 511.346939 229.316834 
L 511.346939 213.783551 
L 522.734694 213.783551 
L 522.734694 266.74305 
L 534.122449 266.74305 
L 534.122449 251.209767 
L 545.510204 251.209767 
L 545.510204 251.209767 
L 556.897959 251.209767 
L 556.897959 251.209767 
L 568.285714 251.209767 
L 568.285714 266.74305 
L 579.673469 266.74305 
L 579.673469 229.316834 
L 591.061224 229.316834 
L 591.061224 239.161217 
L 602.44898 239.161217 
L 602.44898 251.209767 
L 613.836735 251.209767 
L 613.836735 266.74305 
L 625.22449 266.74305 
L 625.22449 288.635983 
L 636.612245 288.635983 
L 636.612245 266.74305 
L 648 266.74305 
L 648 124264.922198 
z
" style="fill:#1f77b4;opacity:0.2;"/>
   </g>
   <g id="patch_4">
    <path clip-path="url(#p6364f5afb9)" d="M 90 124264.922198 
L 90 140.962731 
L 101.387755 140.962731 
L 101.387755 138.599655 
L 112.77551 138.599655 
L 112.77551 155.371086 
L 124.163265 155.371086 
L 124.163265 165.550493 
L 135.55102 165.550493 
L 135.55102 170.228275 
L 146.938776 170.228275 
L 146.938776 182.521699 
L 158.326531 182.521699 
L 158.326531 191.87744 
L 169.714286 191.87744 
L 169.714286 191.87744 
L 181.102041 191.87744 
L 181.102041 200.566813 
L 192.489796 200.566813 
L 192.489796 199.716487 
L 203.877551 199.716487 
L 203.877551 202.308726 
L 215.265306 202.308726 
L 215.265306 209.392399 
L 226.653061 209.392399 
L 226.653061 206.446508 
L 238.040816 206.446508 
L 238.040816 200.566813 
L 249.428571 200.566813 
L 249.428571 213.045602 
L 260.816327 213.045602 
L 260.816327 213.045602 
L 272.204082 213.045602 
L 272.204082 202.308726 
L 283.591837 202.308726 
L 283.591837 206.926463 
L 294.979592 206.926463 
L 294.979592 210.411196 
L 306.367347 210.411196 
L 306.367347 212.508337 
L 317.755102 212.508337 
L 317.755102 200.566813 
L 329.142857 200.566813 
L 329.142857 201.867951 
L 340.530612 201.867951 
L 340.530612 217.54776 
L 351.918367 217.54776 
L 351.918367 211.976367 
L 363.306122 211.976367 
L 363.306122 214.136439 
L 374.693878 214.136439 
L 374.693878 217.54776 
L 386.081633 217.54776 
L 386.081633 217.54776 
L 397.469388 217.54776 
L 397.469388 215.815164 
L 408.857143 215.815164 
L 408.857143 216.964029 
L 420.244898 216.964029 
L 420.244898 221.820749 
L 431.632653 221.820749 
L 431.632653 211.976367 
L 443.020408 211.976367 
L 443.020408 216.964029 
L 454.408163 216.964029 
L 454.408163 222.459746 
L 465.795918 222.459746 
L 465.795918 213.045602 
L 477.183673 213.045602 
L 477.183673 219.947916 
L 488.571429 219.947916 
L 488.571429 209.392399 
L 499.959184 209.392399 
L 499.959184 210.927894 
L 511.346939 210.927894 
L 511.346939 219.947916 
L 522.734694 219.947916 
L 522.734694 210.927894 
L 534.122449 210.927894 
L 534.122449 224.423403 
L 545.510204 224.423403 
L 545.510204 221.820749 
L 556.897959 221.820749 
L 556.897959 227.157892 
L 568.285714 227.157892 
L 568.285714 219.337801 
L 579.673469 219.337801 
L 579.673469 230.038288 
L 591.061224 230.038288 
L 591.061224 222.459746 
L 602.44898 222.459746 
L 602.44898 236.30556 
L 613.836735 236.30556 
L 613.836735 215.24977 
L 625.22449 215.24977 
L 625.22449 227.863714 
L 636.612245 227.863714 
L 636.612245 230.783053 
L 648 230.783053 
L 648 124264.922198 
z
" style="fill:#ff7f0e;opacity:0.2;"/>
   </g>
   <g id="matplotlib.axis_1">
    <g id="xtick_1">
     <g id="line2d_1">
      <defs>
       <path d="M 0 0 
L 0 3.5 
" id="maca97effa8" style="stroke:#000000;stroke-width:0.8;"/>
      </defs>
      <g>
       <use style="stroke:#000000;stroke-width:0.8;" x="90" xlink:href="#maca97effa8" y="480.6"/>
      </g>
     </g>
     <g id="text_1">
      <!-- 0 -->
      <defs>
       <path d="M 31.78125 66.40625 
Q 24.171875 66.40625 20.328125 58.90625 
Q 16.5 51.421875 16.5 36.375 
Q 16.5 21.390625 20.328125 13.890625 
Q 24.171875 6.390625 31.78125 6.390625 
Q 39.453125 6.390625 43.28125 13.890625 
Q 47.125 21.390625 47.125 36.375 
Q 47.125 51.421875 43.28125 58.90625 
Q 39.453125 66.40625 31.78125 66.40625 
z
M 31.78125 74.21875 
Q 44.046875 74.21875 50.515625 64.515625 
Q 56.984375 54.828125 56.984375 36.375 
Q 56.984375 17.96875 50.515625 8.265625 
Q 44.046875 -1.421875 31.78125 -1.421875 
Q 19.53125 -1.421875 13.0625 8.265625 
Q 6.59375 17.96875 6.59375 36.375 
Q 6.59375 54.828125 13.0625 64.515625 
Q 19.53125 74.21875 31.78125 74.21875 
z
" id="DejaVuSans-48"/>
      </defs>
      <g transform="translate(81.7542 507.29515)scale(0.2592 -0.2592)">
       <use xlink:href="#DejaVuSans-48"/>
      </g>
     </g>
    </g>
    <g id="xtick_2">
     <g id="line2d_2">
      <g>
       <use style="stroke:#000000;stroke-width:0.8;" x="201.6" xlink:href="#maca97effa8" y="480.6"/>
      </g>
     </g>
     <g id="text_2">
      <!-- 2 -->
      <defs>
       <path d="M 19.1875 8.296875 
L 53.609375 8.296875 
L 53.609375 0 
L 7.328125 0 
L 7.328125 8.296875 
Q 12.9375 14.109375 22.625 23.890625 
Q 32.328125 33.6875 34.8125 36.53125 
Q 39.546875 41.84375 41.421875 45.53125 
Q 43.3125 49.21875 43.3125 52.78125 
Q 43.3125 58.59375 39.234375 62.25 
Q 35.15625 65.921875 28.609375 65.921875 
Q 23.96875 65.921875 18.8125 64.3125 
Q 13.671875 62.703125 7.8125 59.421875 
L 7.8125 69.390625 
Q 13.765625 71.78125 18.9375 73 
Q 24.125 74.21875 28.421875 74.21875 
Q 39.75 74.21875 46.484375 68.546875 
Q 53.21875 62.890625 53.21875 53.421875 
Q 53.21875 48.921875 51.53125 44.890625 
Q 49.859375 40.875 45.40625 35.40625 
Q 44.1875 33.984375 37.640625 27.21875 
Q 31.109375 20.453125 19.1875 8.296875 
z
" id="DejaVuSans-50"/>
      </defs>
      <g transform="translate(193.3542 507.29515)scale(0.2592 -0.2592)">
       <use xlink:href="#DejaVuSans-50"/>
      </g>
     </g>
    </g>
    <g id="xtick_3">
     <g id="line2d_3">
      <g>
       <use style="stroke:#000000;stroke-width:0.8;" x="313.2" xlink:href="#maca97effa8" y="480.6"/>
      </g>
     </g>
     <g id="text_3">
      <!-- 4 -->
      <defs>
       <path d="M 37.796875 64.3125 
L 12.890625 25.390625 
L 37.796875 25.390625 
z
M 35.203125 72.90625 
L 47.609375 72.90625 
L 47.609375 25.390625 
L 58.015625 25.390625 
L 58.015625 17.1875 
L 47.609375 17.1875 
L 47.609375 0 
L 37.796875 0 
L 37.796875 17.1875 
L 4.890625 17.1875 
L 4.890625 26.703125 
z
" id="DejaVuSans-52"/>
      </defs>
      <g transform="translate(304.9542 507.29515)scale(0.2592 -0.2592)">
       <use xlink:href="#DejaVuSans-52"/>
      </g>
     </g>
    </g>
    <g id="xtick_4">
     <g id="line2d_4">
      <g>
       <use style="stroke:#000000;stroke-width:0.8;" x="424.8" xlink:href="#maca97effa8" y="480.6"/>
      </g>
     </g>
     <g id="text_4">
      <!-- 6 -->
      <defs>
       <path d="M 33.015625 40.375 
Q 26.375 40.375 22.484375 35.828125 
Q 18.609375 31.296875 18.609375 23.390625 
Q 18.609375 15.53125 22.484375 10.953125 
Q 26.375 6.390625 33.015625 6.390625 
Q 39.65625 6.390625 43.53125 10.953125 
Q 47.40625 15.53125 47.40625 23.390625 
Q 47.40625 31.296875 43.53125 35.828125 
Q 39.65625 40.375 33.015625 40.375 
z
M 52.59375 71.296875 
L 52.59375 62.3125 
Q 48.875 64.0625 45.09375 64.984375 
Q 41.3125 65.921875 37.59375 65.921875 
Q 27.828125 65.921875 22.671875 59.328125 
Q 17.53125 52.734375 16.796875 39.40625 
Q 19.671875 43.65625 24.015625 45.921875 
Q 28.375 48.1875 33.59375 48.1875 
Q 44.578125 48.1875 50.953125 41.515625 
Q 57.328125 34.859375 57.328125 23.390625 
Q 57.328125 12.15625 50.6875 5.359375 
Q 44.046875 -1.421875 33.015625 -1.421875 
Q 20.359375 -1.421875 13.671875 8.265625 
Q 6.984375 17.96875 6.984375 36.375 
Q 6.984375 53.65625 15.1875 63.9375 
Q 23.390625 74.21875 37.203125 74.21875 
Q 40.921875 74.21875 44.703125 73.484375 
Q 48.484375 72.75 52.59375 71.296875 
z
" id="DejaVuSans-54"/>
      </defs>
      <g transform="translate(416.5542 507.29515)scale(0.2592 -0.2592)">
       <use xlink:href="#DejaVuSans-54"/>
      </g>
     </g>
    </g>
    <g id="xtick_5">
     <g id="line2d_5">
      <g>
       <use style="stroke:#000000;stroke-width:0.8;" x="536.4" xlink:href="#maca97effa8" y="480.6"/>
      </g>
     </g>
     <g id="text_5">
      <!-- 8 -->
      <defs>
       <path d="M 31.78125 34.625 
Q 24.75 34.625 20.71875 30.859375 
Q 16.703125 27.09375 16.703125 20.515625 
Q 16.703125 13.921875 20.71875 10.15625 
Q 24.75 6.390625 31.78125 6.390625 
Q 38.8125 6.390625 42.859375 10.171875 
Q 46.921875 13.96875 46.921875 20.515625 
Q 46.921875 27.09375 42.890625 30.859375 
Q 38.875 34.625 31.78125 34.625 
z
M 21.921875 38.8125 
Q 15.578125 40.375 12.03125 44.71875 
Q 8.5 49.078125 8.5 55.328125 
Q 8.5 64.0625 14.71875 69.140625 
Q 20.953125 74.21875 31.78125 74.21875 
Q 42.671875 74.21875 48.875 69.140625 
Q 55.078125 64.0625 55.078125 55.328125 
Q 55.078125 49.078125 51.53125 44.71875 
Q 48 40.375 41.703125 38.8125 
Q 48.828125 37.15625 52.796875 32.3125 
Q 56.78125 27.484375 56.78125 20.515625 
Q 56.78125 9.90625 50.3125 4.234375 
Q 43.84375 -1.421875 31.78125 -1.421875 
Q 19.734375 -1.421875 13.25 4.234375 
Q 6.78125 9.90625 6.78125 20.515625 
Q 6.78125 27.484375 10.78125 32.3125 
Q 14.796875 37.15625 21.921875 38.8125 
z
M 18.3125 54.390625 
Q 18.3125 48.734375 21.84375 45.5625 
Q 25.390625 42.390625 31.78125 42.390625 
Q 38.140625 42.390625 41.71875 45.5625 
Q 45.3125 48.734375 45.3125 54.390625 
Q 45.3125 60.0625 41.71875 63.234375 
Q 38.140625 66.40625 31.78125 66.40625 
Q 25.390625 66.40625 21.84375 63.234375 
Q 18.3125 60.0625 18.3125 54.390625 
z
" id="DejaVuSans-56"/>
      </defs>
      <g transform="translate(528.1542 507.29515)scale(0.2592 -0.2592)">
       <use xlink:href="#DejaVuSans-56"/>
      </g>
     </g>
    </g>
    <g id="xtick_6">
     <g id="line2d_6">
      <g>
       <use style="stroke:#000000;stroke-width:0.8;" x="648" xlink:href="#maca97effa8" y="480.6"/>
      </g>
     </g>
     <g id="text_6">
      <!-- 10 -->
      <defs>
       <path d="M 12.40625 8.296875 
L 28.515625 8.296875 
L 28.515625 63.921875 
L 10.984375 60.40625 
L 10.984375 69.390625 
L 28.421875 72.90625 
L 38.28125 72.90625 
L 38.28125 8.296875 
L 54.390625 8.296875 
L 54.390625 0 
L 12.40625 0 
z
" id="DejaVuSans-49"/>
      </defs>
      <g transform="translate(631.5084 507.29515)scale(0.2592 -0.2592)">
       <use xlink:href="#DejaVuSans-49"/>
       <use x="63.623047" xlink:href="#DejaVuSans-48"/>
      </g>
     </g>
    </g>
    <g id="text_7">
     <!-- VertexSep3D -->
     <defs>
      <path d="M 28.609375 0 
L 0.78125 72.90625 
L 11.078125 72.90625 
L 34.1875 11.53125 
L 57.328125 72.90625 
L 67.578125 72.90625 
L 39.796875 0 
z
" id="DejaVuSans-86"/>
      <path d="M 56.203125 29.59375 
L 56.203125 25.203125 
L 14.890625 25.203125 
Q 15.484375 15.921875 20.484375 11.0625 
Q 25.484375 6.203125 34.421875 6.203125 
Q 39.59375 6.203125 44.453125 7.46875 
Q 49.3125 8.734375 54.109375 11.28125 
L 54.109375 2.78125 
Q 49.265625 0.734375 44.1875 -0.34375 
Q 39.109375 -1.421875 33.890625 -1.421875 
Q 20.796875 -1.421875 13.15625 6.1875 
Q 5.515625 13.8125 5.515625 26.8125 
Q 5.515625 40.234375 12.765625 48.109375 
Q 20.015625 56 32.328125 56 
Q 43.359375 56 49.78125 48.890625 
Q 56.203125 41.796875 56.203125 29.59375 
z
M 47.21875 32.234375 
Q 47.125 39.59375 43.09375 43.984375 
Q 39.0625 48.390625 32.421875 48.390625 
Q 24.90625 48.390625 20.390625 44.140625 
Q 15.875 39.890625 15.1875 32.171875 
z
" id="DejaVuSans-101"/>
      <path d="M 41.109375 46.296875 
Q 39.59375 47.171875 37.8125 47.578125 
Q 36.03125 48 33.890625 48 
Q 26.265625 48 22.1875 43.046875 
Q 18.109375 38.09375 18.109375 28.8125 
L 18.109375 0 
L 9.078125 0 
L 9.078125 54.6875 
L 18.109375 54.6875 
L 18.109375 46.1875 
Q 20.953125 51.171875 25.484375 53.578125 
Q 30.03125 56 36.53125 56 
Q 37.453125 56 38.578125 55.875 
Q 39.703125 55.765625 41.0625 55.515625 
z
" id="DejaVuSans-114"/>
      <path d="M 18.3125 70.21875 
L 18.3125 54.6875 
L 36.8125 54.6875 
L 36.8125 47.703125 
L 18.3125 47.703125 
L 18.3125 18.015625 
Q 18.3125 11.328125 20.140625 9.421875 
Q 21.96875 7.515625 27.59375 7.515625 
L 36.8125 7.515625 
L 36.8125 0 
L 27.59375 0 
Q 17.1875 0 13.234375 3.875 
Q 9.28125 7.765625 9.28125 18.015625 
L 9.28125 47.703125 
L 2.6875 47.703125 
L 2.6875 54.6875 
L 9.28125 54.6875 
L 9.28125 70.21875 
z
" id="DejaVuSans-116"/>
      <path d="M 54.890625 54.6875 
L 35.109375 28.078125 
L 55.90625 0 
L 45.3125 0 
L 29.390625 21.484375 
L 13.484375 0 
L 2.875 0 
L 24.125 28.609375 
L 4.6875 54.6875 
L 15.28125 54.6875 
L 29.78125 35.203125 
L 44.28125 54.6875 
z
" id="DejaVuSans-120"/>
      <path d="M 53.515625 70.515625 
L 53.515625 60.890625 
Q 47.90625 63.578125 42.921875 64.890625 
Q 37.9375 66.21875 33.296875 66.21875 
Q 25.25 66.21875 20.875 63.09375 
Q 16.5 59.96875 16.5 54.203125 
Q 16.5 49.359375 19.40625 46.890625 
Q 22.3125 44.4375 30.421875 42.921875 
L 36.375 41.703125 
Q 47.40625 39.59375 52.65625 34.296875 
Q 57.90625 29 57.90625 20.125 
Q 57.90625 9.515625 50.796875 4.046875 
Q 43.703125 -1.421875 29.984375 -1.421875 
Q 24.8125 -1.421875 18.96875 -0.25 
Q 13.140625 0.921875 6.890625 3.21875 
L 6.890625 13.375 
Q 12.890625 10.015625 18.65625 8.296875 
Q 24.421875 6.59375 29.984375 6.59375 
Q 38.421875 6.59375 43.015625 9.90625 
Q 47.609375 13.234375 47.609375 19.390625 
Q 47.609375 24.75 44.3125 27.78125 
Q 41.015625 30.8125 33.5 32.328125 
L 27.484375 33.5 
Q 16.453125 35.6875 11.515625 40.375 
Q 6.59375 45.0625 6.59375 53.421875 
Q 6.59375 63.09375 13.40625 68.65625 
Q 20.21875 74.21875 32.171875 74.21875 
Q 37.3125 74.21875 42.625 73.28125 
Q 47.953125 72.359375 53.515625 70.515625 
z
" id="DejaVuSans-83"/>
      <path d="M 18.109375 8.203125 
L 18.109375 -20.796875 
L 9.078125 -20.796875 
L 9.078125 54.6875 
L 18.109375 54.6875 
L 18.109375 46.390625 
Q 20.953125 51.265625 25.265625 53.625 
Q 29.59375 56 35.59375 56 
Q 45.5625 56 51.78125 48.09375 
Q 58.015625 40.1875 58.015625 27.296875 
Q 58.015625 14.40625 51.78125 6.484375 
Q 45.5625 -1.421875 35.59375 -1.421875 
Q 29.59375 -1.421875 25.265625 0.953125 
Q 20.953125 3.328125 18.109375 8.203125 
z
M 48.6875 27.296875 
Q 48.6875 37.203125 44.609375 42.84375 
Q 40.53125 48.484375 33.40625 48.484375 
Q 26.265625 48.484375 22.1875 42.84375 
Q 18.109375 37.203125 18.109375 27.296875 
Q 18.109375 17.390625 22.1875 11.75 
Q 26.265625 6.109375 33.40625 6.109375 
Q 40.53125 6.109375 44.609375 11.75 
Q 48.6875 17.390625 48.6875 27.296875 
z
" id="DejaVuSans-112"/>
      <path d="M 40.578125 39.3125 
Q 47.65625 37.796875 51.625 33 
Q 55.609375 28.21875 55.609375 21.1875 
Q 55.609375 10.40625 48.1875 4.484375 
Q 40.765625 -1.421875 27.09375 -1.421875 
Q 22.515625 -1.421875 17.65625 -0.515625 
Q 12.796875 0.390625 7.625 2.203125 
L 7.625 11.71875 
Q 11.71875 9.328125 16.59375 8.109375 
Q 21.484375 6.890625 26.8125 6.890625 
Q 36.078125 6.890625 40.9375 10.546875 
Q 45.796875 14.203125 45.796875 21.1875 
Q 45.796875 27.640625 41.28125 31.265625 
Q 36.765625 34.90625 28.71875 34.90625 
L 20.21875 34.90625 
L 20.21875 43.015625 
L 29.109375 43.015625 
Q 36.375 43.015625 40.234375 45.921875 
Q 44.09375 48.828125 44.09375 54.296875 
Q 44.09375 59.90625 40.109375 62.90625 
Q 36.140625 65.921875 28.71875 65.921875 
Q 24.65625 65.921875 20.015625 65.03125 
Q 15.375 64.15625 9.8125 62.3125 
L 9.8125 71.09375 
Q 15.4375 72.65625 20.34375 73.4375 
Q 25.25 74.21875 29.59375 74.21875 
Q 40.828125 74.21875 47.359375 69.109375 
Q 53.90625 64.015625 53.90625 55.328125 
Q 53.90625 49.265625 50.4375 45.09375 
Q 46.96875 40.921875 40.578125 39.3125 
z
" id="DejaVuSans-51"/>
      <path d="M 19.671875 64.796875 
L 19.671875 8.109375 
L 31.59375 8.109375 
Q 46.6875 8.109375 53.6875 14.9375 
Q 60.6875 21.78125 60.6875 36.53125 
Q 60.6875 51.171875 53.6875 57.984375 
Q 46.6875 64.796875 31.59375 64.796875 
z
M 9.8125 72.90625 
L 30.078125 72.90625 
Q 51.265625 72.90625 61.171875 64.09375 
Q 71.09375 55.28125 71.09375 36.53125 
Q 71.09375 17.671875 61.125 8.828125 
Q 51.171875 0 30.078125 0 
L 9.8125 0 
z
" id="DejaVuSans-68"/>
     </defs>
     <g transform="translate(283.46805 536.38085)scale(0.2592 -0.2592)">
      <use xlink:href="#DejaVuSans-86"/>
      <use x="68.298828" xlink:href="#DejaVuSans-101"/>
      <use x="129.822266" xlink:href="#DejaVuSans-114"/>
      <use x="170.935547" xlink:href="#DejaVuSans-116"/>
      <use x="210.144531" xlink:href="#DejaVuSans-101"/>
      <use x="271.652344" xlink:href="#DejaVuSans-120"/>
      <use x="330.832031" xlink:href="#DejaVuSans-83"/>
      <use x="394.308594" xlink:href="#DejaVuSans-101"/>
      <use x="455.832031" xlink:href="#DejaVuSans-112"/>
      <use x="519.308594" xlink:href="#DejaVuSans-51"/>
      <use x="582.931641" xlink:href="#DejaVuSans-68"/>
     </g>
    </g>
   </g>
   <g id="matplotlib.axis_2">
    <g id="ytick_1">
     <g id="line2d_7">
      <defs>
       <path d="M 0 0 
L -3.5 0 
" id="m51f16cba7e" style="stroke:#000000;stroke-width:0.8;"/>
      </defs>
      <g>
       <use style="stroke:#000000;stroke-width:0.8;" x="90" xlink:href="#m51f16cba7e" y="435.031884"/>
      </g>
     </g>
     <g id="text_8">
      <!-- $\mathdefault{10^{-4}}$ -->
      <defs>
       <path d="M 10.59375 35.5 
L 73.1875 35.5 
L 73.1875 27.203125 
L 10.59375 27.203125 
z
" id="DejaVuSans-8722"/>
      </defs>
      <g transform="translate(22.088 444.879459)scale(0.2592 -0.2592)">
       <use transform="translate(0 0.684375)" xlink:href="#DejaVuSans-49"/>
       <use transform="translate(63.623047 0.684375)" xlink:href="#DejaVuSans-48"/>
       <use transform="translate(128.203125 38.965625)scale(0.7)" xlink:href="#DejaVuSans-8722"/>
       <use transform="translate(186.855469 38.965625)scale(0.7)" xlink:href="#DejaVuSans-52"/>
      </g>
     </g>
    </g>
    <g id="ytick_2">
     <g id="line2d_8">
      <g>
       <use style="stroke:#000000;stroke-width:0.8;" x="90" xlink:href="#m51f16cba7e" y="310.704685"/>
      </g>
     </g>
     <g id="text_9">
      <!-- $\mathdefault{10^{-3}}$ -->
      <g transform="translate(22.088 320.55226)scale(0.2592 -0.2592)">
       <use transform="translate(0 0.765625)" xlink:href="#DejaVuSans-49"/>
       <use transform="translate(63.623047 0.765625)" xlink:href="#DejaVuSans-48"/>
       <use transform="translate(128.203125 39.046875)scale(0.7)" xlink:href="#DejaVuSans-8722"/>
       <use transform="translate(186.855469 39.046875)scale(0.7)" xlink:href="#DejaVuSans-51"/>
      </g>
     </g>
    </g>
    <g id="ytick_3">
     <g id="line2d_9">
      <g>
       <use style="stroke:#000000;stroke-width:0.8;" x="90" xlink:href="#m51f16cba7e" y="186.377485"/>
      </g>
     </g>
     <g id="text_10">
      <!-- $\mathdefault{10^{-2}}$ -->
      <g transform="translate(22.088 196.22506)scale(0.2592 -0.2592)">
       <use transform="translate(0 0.765625)" xlink:href="#DejaVuSans-49"/>
       <use transform="translate(63.623047 0.765625)" xlink:href="#DejaVuSans-48"/>
       <use transform="translate(128.203125 39.046875)scale(0.7)" xlink:href="#DejaVuSans-8722"/>
       <use transform="translate(186.855469 39.046875)scale(0.7)" xlink:href="#DejaVuSans-50"/>
      </g>
     </g>
    </g>
    <g id="ytick_4">
     <g id="line2d_10">
      <defs>
       <path d="M 0 0 
L -2 0 
" id="madcdc22702" style="stroke:#000000;stroke-width:0.6;"/>
      </defs>
      <g>
       <use style="stroke:#000000;stroke-width:0.6;" x="90" xlink:href="#madcdc22702" y="472.4581"/>
      </g>
     </g>
    </g>
    <g id="ytick_5">
     <g id="line2d_11">
      <g>
       <use style="stroke:#000000;stroke-width:0.6;" x="90" xlink:href="#madcdc22702" y="462.613717"/>
      </g>
     </g>
    </g>
    <g id="ytick_6">
     <g id="line2d_12">
      <g>
       <use style="stroke:#000000;stroke-width:0.6;" x="90" xlink:href="#madcdc22702" y="454.290411"/>
      </g>
     </g>
    </g>
    <g id="ytick_7">
     <g id="line2d_13">
      <g>
       <use style="stroke:#000000;stroke-width:0.6;" x="90" xlink:href="#madcdc22702" y="447.080434"/>
      </g>
     </g>
    </g>
    <g id="ytick_8">
     <g id="line2d_14">
      <g>
       <use style="stroke:#000000;stroke-width:0.6;" x="90" xlink:href="#madcdc22702" y="440.720784"/>
      </g>
     </g>
    </g>
    <g id="ytick_9">
     <g id="line2d_15">
      <g>
       <use style="stroke:#000000;stroke-width:0.6;" x="90" xlink:href="#madcdc22702" y="397.605668"/>
      </g>
     </g>
    </g>
    <g id="ytick_10">
     <g id="line2d_16">
      <g>
       <use style="stroke:#000000;stroke-width:0.6;" x="90" xlink:href="#madcdc22702" y="375.712734"/>
      </g>
     </g>
    </g>
    <g id="ytick_11">
     <g id="line2d_17">
      <g>
       <use style="stroke:#000000;stroke-width:0.6;" x="90" xlink:href="#madcdc22702" y="360.179451"/>
      </g>
     </g>
    </g>
    <g id="ytick_12">
     <g id="line2d_18">
      <g>
       <use style="stroke:#000000;stroke-width:0.6;" x="90" xlink:href="#madcdc22702" y="348.130901"/>
      </g>
     </g>
    </g>
    <g id="ytick_13">
     <g id="line2d_19">
      <g>
       <use style="stroke:#000000;stroke-width:0.6;" x="90" xlink:href="#madcdc22702" y="338.286518"/>
      </g>
     </g>
    </g>
    <g id="ytick_14">
     <g id="line2d_20">
      <g>
       <use style="stroke:#000000;stroke-width:0.6;" x="90" xlink:href="#madcdc22702" y="329.963211"/>
      </g>
     </g>
    </g>
    <g id="ytick_15">
     <g id="line2d_21">
      <g>
       <use style="stroke:#000000;stroke-width:0.6;" x="90" xlink:href="#madcdc22702" y="322.753235"/>
      </g>
     </g>
    </g>
    <g id="ytick_16">
     <g id="line2d_22">
      <g>
       <use style="stroke:#000000;stroke-width:0.6;" x="90" xlink:href="#madcdc22702" y="316.393585"/>
      </g>
     </g>
    </g>
    <g id="ytick_17">
     <g id="line2d_23">
      <g>
       <use style="stroke:#000000;stroke-width:0.6;" x="90" xlink:href="#madcdc22702" y="273.278468"/>
      </g>
     </g>
    </g>
    <g id="ytick_18">
     <g id="line2d_24">
      <g>
       <use style="stroke:#000000;stroke-width:0.6;" x="90" xlink:href="#madcdc22702" y="251.385535"/>
      </g>
     </g>
    </g>
    <g id="ytick_19">
     <g id="line2d_25">
      <g>
       <use style="stroke:#000000;stroke-width:0.6;" x="90" xlink:href="#madcdc22702" y="235.852252"/>
      </g>
     </g>
    </g>
    <g id="ytick_20">
     <g id="line2d_26">
      <g>
       <use style="stroke:#000000;stroke-width:0.6;" x="90" xlink:href="#madcdc22702" y="223.803702"/>
      </g>
     </g>
    </g>
    <g id="ytick_21">
     <g id="line2d_27">
      <g>
       <use style="stroke:#000000;stroke-width:0.6;" x="90" xlink:href="#madcdc22702" y="213.959319"/>
      </g>
     </g>
    </g>
    <g id="ytick_22">
     <g id="line2d_28">
      <g>
       <use style="stroke:#000000;stroke-width:0.6;" x="90" xlink:href="#madcdc22702" y="205.636012"/>
      </g>
     </g>
    </g>
    <g id="ytick_23">
     <g id="line2d_29">
      <g>
       <use style="stroke:#000000;stroke-width:0.6;" x="90" xlink:href="#madcdc22702" y="198.426036"/>
      </g>
     </g>
    </g>
    <g id="ytick_24">
     <g id="line2d_30">
      <g>
       <use style="stroke:#000000;stroke-width:0.6;" x="90" xlink:href="#madcdc22702" y="192.066386"/>
      </g>
     </g>
    </g>
    <g id="ytick_25">
     <g id="line2d_31">
      <g>
       <use style="stroke:#000000;stroke-width:0.6;" x="90" xlink:href="#madcdc22702" y="148.951269"/>
      </g>
     </g>
    </g>
    <g id="ytick_26">
     <g id="line2d_32">
      <g>
       <use style="stroke:#000000;stroke-width:0.6;" x="90" xlink:href="#madcdc22702" y="127.058336"/>
      </g>
     </g>
    </g>
    <g id="ytick_27">
     <g id="line2d_33">
      <g>
       <use style="stroke:#000000;stroke-width:0.6;" x="90" xlink:href="#madcdc22702" y="111.525053"/>
      </g>
     </g>
    </g>
    <g id="ytick_28">
     <g id="line2d_34">
      <g>
       <use style="stroke:#000000;stroke-width:0.6;" x="90" xlink:href="#madcdc22702" y="99.476503"/>
      </g>
     </g>
    </g>
    <g id="ytick_29">
     <g id="line2d_35">
      <g>
       <use style="stroke:#000000;stroke-width:0.6;" x="90" xlink:href="#madcdc22702" y="89.63212"/>
      </g>
     </g>
    </g>
    <g id="ytick_30">
     <g id="line2d_36">
      <g>
       <use style="stroke:#000000;stroke-width:0.6;" x="90" xlink:href="#madcdc22702" y="81.308813"/>
      </g>
     </g>
    </g>
    <g id="ytick_31">
     <g id="line2d_37">
      <g>
       <use style="stroke:#000000;stroke-width:0.6;" x="90" xlink:href="#madcdc22702" y="74.098837"/>
      </g>
     </g>
    </g>
    <g id="ytick_32">
     <g id="line2d_38">
      <g>
       <use style="stroke:#000000;stroke-width:0.6;" x="90" xlink:href="#madcdc22702" y="67.739187"/>
      </g>
     </g>
    </g>
    <g id="text_11">
     <!-- Probability -->
     <defs>
      <path d="M 19.671875 64.796875 
L 19.671875 37.40625 
L 32.078125 37.40625 
Q 38.96875 37.40625 42.71875 40.96875 
Q 46.484375 44.53125 46.484375 51.125 
Q 46.484375 57.671875 42.71875 61.234375 
Q 38.96875 64.796875 32.078125 64.796875 
z
M 9.8125 72.90625 
L 32.078125 72.90625 
Q 44.34375 72.90625 50.609375 67.359375 
Q 56.890625 61.8125 56.890625 51.125 
Q 56.890625 40.328125 50.609375 34.8125 
Q 44.34375 29.296875 32.078125 29.296875 
L 19.671875 29.296875 
L 19.671875 0 
L 9.8125 0 
z
" id="DejaVuSans-80"/>
      <path d="M 30.609375 48.390625 
Q 23.390625 48.390625 19.1875 42.75 
Q 14.984375 37.109375 14.984375 27.296875 
Q 14.984375 17.484375 19.15625 11.84375 
Q 23.34375 6.203125 30.609375 6.203125 
Q 37.796875 6.203125 41.984375 11.859375 
Q 46.1875 17.53125 46.1875 27.296875 
Q 46.1875 37.015625 41.984375 42.703125 
Q 37.796875 48.390625 30.609375 48.390625 
z
M 30.609375 56 
Q 42.328125 56 49.015625 48.375 
Q 55.71875 40.765625 55.71875 27.296875 
Q 55.71875 13.875 49.015625 6.21875 
Q 42.328125 -1.421875 30.609375 -1.421875 
Q 18.84375 -1.421875 12.171875 6.21875 
Q 5.515625 13.875 5.515625 27.296875 
Q 5.515625 40.765625 12.171875 48.375 
Q 18.84375 56 30.609375 56 
z
" id="DejaVuSans-111"/>
      <path d="M 48.6875 27.296875 
Q 48.6875 37.203125 44.609375 42.84375 
Q 40.53125 48.484375 33.40625 48.484375 
Q 26.265625 48.484375 22.1875 42.84375 
Q 18.109375 37.203125 18.109375 27.296875 
Q 18.109375 17.390625 22.1875 11.75 
Q 26.265625 6.109375 33.40625 6.109375 
Q 40.53125 6.109375 44.609375 11.75 
Q 48.6875 17.390625 48.6875 27.296875 
z
M 18.109375 46.390625 
Q 20.953125 51.265625 25.265625 53.625 
Q 29.59375 56 35.59375 56 
Q 45.5625 56 51.78125 48.09375 
Q 58.015625 40.1875 58.015625 27.296875 
Q 58.015625 14.40625 51.78125 6.484375 
Q 45.5625 -1.421875 35.59375 -1.421875 
Q 29.59375 -1.421875 25.265625 0.953125 
Q 20.953125 3.328125 18.109375 8.203125 
L 18.109375 0 
L 9.078125 0 
L 9.078125 75.984375 
L 18.109375 75.984375 
z
" id="DejaVuSans-98"/>
      <path d="M 34.28125 27.484375 
Q 23.390625 27.484375 19.1875 25 
Q 14.984375 22.515625 14.984375 16.5 
Q 14.984375 11.71875 18.140625 8.90625 
Q 21.296875 6.109375 26.703125 6.109375 
Q 34.1875 6.109375 38.703125 11.40625 
Q 43.21875 16.703125 43.21875 25.484375 
L 43.21875 27.484375 
z
M 52.203125 31.203125 
L 52.203125 0 
L 43.21875 0 
L 43.21875 8.296875 
Q 40.140625 3.328125 35.546875 0.953125 
Q 30.953125 -1.421875 24.3125 -1.421875 
Q 15.921875 -1.421875 10.953125 3.296875 
Q 6 8.015625 6 15.921875 
Q 6 25.140625 12.171875 29.828125 
Q 18.359375 34.515625 30.609375 34.515625 
L 43.21875 34.515625 
L 43.21875 35.40625 
Q 43.21875 41.609375 39.140625 45 
Q 35.0625 48.390625 27.6875 48.390625 
Q 23 48.390625 18.546875 47.265625 
Q 14.109375 46.140625 10.015625 43.890625 
L 10.015625 52.203125 
Q 14.9375 54.109375 19.578125 55.046875 
Q 24.21875 56 28.609375 56 
Q 40.484375 56 46.34375 49.84375 
Q 52.203125 43.703125 52.203125 31.203125 
z
" id="DejaVuSans-97"/>
      <path d="M 9.421875 54.6875 
L 18.40625 54.6875 
L 18.40625 0 
L 9.421875 0 
z
M 9.421875 75.984375 
L 18.40625 75.984375 
L 18.40625 64.59375 
L 9.421875 64.59375 
z
" id="DejaVuSans-105"/>
      <path d="M 9.421875 75.984375 
L 18.40625 75.984375 
L 18.40625 0 
L 9.421875 0 
z
" id="DejaVuSans-108"/>
      <path d="M 32.171875 -5.078125 
Q 28.375 -14.84375 24.75 -17.8125 
Q 21.140625 -20.796875 15.09375 -20.796875 
L 7.90625 -20.796875 
L 7.90625 -13.28125 
L 13.1875 -13.28125 
Q 16.890625 -13.28125 18.9375 -11.515625 
Q 21 -9.765625 23.484375 -3.21875 
L 25.09375 0.875 
L 2.984375 54.6875 
L 12.5 54.6875 
L 29.59375 11.921875 
L 46.6875 54.6875 
L 56.203125 54.6875 
z
" id="DejaVuSans-121"/>
     </defs>
     <g transform="translate(12.69745 341.71605)rotate(-90)scale(0.2592 -0.2592)">
      <use xlink:href="#DejaVuSans-80"/>
      <use x="60.287109" xlink:href="#DejaVuSans-114"/>
      <use x="101.369141" xlink:href="#DejaVuSans-111"/>
      <use x="162.550781" xlink:href="#DejaVuSans-98"/>
      <use x="226.027344" xlink:href="#DejaVuSans-97"/>
      <use x="287.306641" xlink:href="#DejaVuSans-98"/>
      <use x="350.783203" xlink:href="#DejaVuSans-105"/>
      <use x="378.566406" xlink:href="#DejaVuSans-108"/>
      <use x="406.349609" xlink:href="#DejaVuSans-105"/>
      <use x="434.132812" xlink:href="#DejaVuSans-116"/>
      <use x="473.341797" xlink:href="#DejaVuSans-121"/>
     </g>
    </g>
   </g>
   <g id="line2d_39">
    <path clip-path="url(#p6364f5afb9)" d="M 90 124.248162 
L 101.387755 124.248162 
L 101.387755 90.135538 
L 112.77551 90.135538 
L 112.77551 83.7 
L 124.163265 83.7 
L 124.163265 95.900434 
L 135.55102 95.900434 
L 135.55102 99.031434 
L 146.938776 99.031434 
L 146.938776 110.678536 
L 158.326531 110.678536 
L 158.326531 124.248162 
L 169.714286 124.248162 
L 169.714286 128.249593 
L 181.102041 128.249593 
L 181.102041 134.092544 
L 192.489796 134.092544 
L 192.489796 140.645377 
L 203.877551 140.645377 
L 203.877551 144.246352 
L 215.265306 144.246352 
L 215.265306 148.104752 
L 226.653061 148.104752 
L 226.653061 176.357335 
L 238.040816 176.357335 
L 238.040816 159.162548 
L 249.428571 159.162548 
L 249.428571 191.890618 
L 260.816327 191.890618 
L 260.816327 173.083931 
L 272.204082 173.083931 
L 272.204082 164.308784 
L 283.591837 164.308784 
L 283.591837 179.842067 
L 294.979592 179.842067 
L 294.979592 183.567311 
L 306.367347 183.567311 
L 306.367347 183.567311 
L 317.755102 183.567311 
L 317.755102 201.735 
L 329.142857 201.735 
L 329.142857 201.735 
L 340.530612 201.735 
L 340.530612 179.842067 
L 351.918367 179.842067 
L 351.918367 183.567311 
L 363.306122 183.567311 
L 363.306122 196.588764 
L 374.693878 196.588764 
L 374.693878 207.423901 
L 386.081633 207.423901 
L 386.081633 196.588764 
L 397.469388 196.588764 
L 397.469388 213.783551 
L 408.857143 213.783551 
L 408.857143 201.735 
L 420.244898 201.735 
L 420.244898 229.316834 
L 431.632653 229.316834 
L 431.632653 213.783551 
L 443.020408 213.783551 
L 443.020408 239.161217 
L 454.408163 239.161217 
L 454.408163 220.993527 
L 465.795918 220.993527 
L 465.795918 239.161217 
L 477.183673 239.161217 
L 477.183673 239.161217 
L 488.571429 239.161217 
L 488.571429 213.783551 
L 499.959184 213.783551 
L 499.959184 229.316834 
L 511.346939 229.316834 
L 511.346939 213.783551 
L 522.734694 213.783551 
L 522.734694 266.74305 
L 534.122449 266.74305 
L 534.122449 251.209767 
L 545.510204 251.209767 
L 545.510204 251.209767 
L 556.897959 251.209767 
L 556.897959 251.209767 
L 568.285714 251.209767 
L 568.285714 266.74305 
L 579.673469 266.74305 
L 579.673469 229.316834 
L 591.061224 229.316834 
L 591.061224 239.161217 
L 602.44898 239.161217 
L 602.44898 251.209767 
L 613.836735 251.209767 
L 613.836735 266.74305 
L 625.22449 266.74305 
L 625.22449 288.635983 
L 636.612245 288.635983 
L 636.612245 266.74305 
L 648 266.74305 
" style="fill:none;stroke:#1f77b4;stroke-linecap:square;stroke-width:1.5;"/>
   </g>
   <g id="line2d_40">
    <path clip-path="url(#p6364f5afb9)" d="M 90 156.762392 
L 101.387755 156.762392 
L 101.387755 134.092544 
L 112.77551 134.092544 
L 112.77551 126.882568 
L 124.163265 126.882568 
L 124.163265 146.141095 
L 135.55102 146.141095 
L 135.55102 164.308784 
L 146.938776 164.308784 
L 146.938776 196.588764 
L 158.326531 196.588764 
L 158.326531 196.588764 
L 169.714286 196.588764 
L 169.714286 196.588764 
L 181.102041 196.588764 
L 181.102041 251.209767 
L 192.489796 251.209767 
L 192.489796 220.993527 
L 203.877551 220.993527 
L 203.877551 213.783551 
L 215.265306 213.783551 
L 215.265306 288.635983 
L 226.653061 288.635983 
L 226.653061 288.635983 
L 238.040816 288.635983 
L 238.040816 251.209767 
L 249.428571 251.209767 
L 249.428571 541 
M 260.816327 541 
L 260.816327 229.316834 
L 272.204082 229.316834 
L 272.204082 288.635983 
L 283.591837 288.635983 
L 283.591837 288.635983 
L 294.979592 288.635983 
L 294.979592 288.635983 
L 306.367347 288.635983 
L 306.367347 288.635983 
L 317.755102 288.635983 
L 317.755102 288.635983 
L 329.142857 288.635983 
L 329.142857 288.635983 
L 340.530612 288.635983 
L 340.530612 326.062199 
L 351.918367 326.062199 
L 351.918367 326.062199 
L 363.306122 326.062199 
L 363.306122 288.635983 
L 374.693878 288.635983 
L 374.693878 326.062199 
L 386.081633 326.062199 
L 386.081633 266.74305 
L 397.469388 266.74305 
L 397.469388 326.062199 
L 408.857143 326.062199 
L 408.857143 541 
M 420.244898 541 
L 420.244898 326.062199 
L 431.632653 326.062199 
L 431.632653 541 
M 443.020408 541 
L 443.020408 326.062199 
L 454.408163 326.062199 
L 454.408163 326.062199 
L 465.795918 326.062199 
L 465.795918 541 
M 477.183673 541 
L 477.183673 326.062199 
L 488.571429 326.062199 
L 488.571429 288.635983 
L 499.959184 288.635983 
L 499.959184 288.635983 
L 511.346939 288.635983 
L 511.346939 326.062199 
L 522.734694 326.062199 
L 522.734694 326.062199 
L 534.122449 326.062199 
L 534.122449 541 
M 568.285714 541 
L 568.285714 288.635983 
L 579.673469 288.635983 
L 579.673469 326.062199 
L 591.061224 326.062199 
L 591.061224 326.062199 
L 602.44898 326.062199 
L 602.44898 541 
M 625.22449 541 
L 625.22449 326.062199 
L 636.612245 326.062199 
L 636.612245 541 
" style="fill:none;stroke:#ff7f0e;stroke-linecap:square;stroke-width:1.5;"/>
   </g>
   <g id="line2d_41">
    <path clip-path="url(#p6364f5afb9)" d="M 90 167.078346 
L 101.387755 167.078346 
L 101.387755 121.736331 
L 112.77551 121.736331 
L 112.77551 115.924855 
L 124.163265 115.924855 
L 124.163265 122.977642 
L 135.55102 122.977642 
L 135.55102 118.174956 
L 146.938776 118.174956 
L 146.938776 122.977642 
L 158.326531 122.977642 
L 158.326531 140.645377 
L 169.714286 140.645377 
L 169.714286 146.141095 
L 181.102041 146.141095 
L 181.102041 140.645377 
L 192.489796 140.645377 
L 192.489796 154.464402 
L 203.877551 154.464402 
L 203.877551 161.674378 
L 215.265306 161.674378 
L 215.265306 152.260234 
L 226.653061 152.260234 
L 226.653061 183.567311 
L 238.040816 183.567311 
L 238.040816 169.997685 
L 249.428571 169.997685 
L 249.428571 191.890618 
L 260.816327 191.890618 
L 260.816327 196.588764 
L 272.204082 196.588764 
L 272.204082 169.997685 
L 283.591837 169.997685 
L 283.591837 187.568743 
L 294.979592 187.568743 
L 294.979592 191.890618 
L 306.367347 191.890618 
L 306.367347 191.890618 
L 317.755102 191.890618 
L 317.755102 213.783551 
L 329.142857 213.783551 
L 329.142857 213.783551 
L 340.530612 213.783551 
L 340.530612 183.567311 
L 351.918367 183.567311 
L 351.918367 187.568743 
L 363.306122 187.568743 
L 363.306122 207.423901 
L 374.693878 207.423901 
L 374.693878 213.783551 
L 386.081633 213.783551 
L 386.081633 213.783551 
L 397.469388 213.783551 
L 397.469388 220.993527 
L 408.857143 220.993527 
L 408.857143 201.735 
L 420.244898 201.735 
L 420.244898 239.161217 
L 431.632653 239.161217 
L 431.632653 213.783551 
L 443.020408 213.783551 
L 443.020408 251.209767 
L 454.408163 251.209767 
L 454.408163 229.316834 
L 465.795918 229.316834 
L 465.795918 239.161217 
L 477.183673 239.161217 
L 477.183673 251.209767 
L 488.571429 251.209767 
L 488.571429 229.316834 
L 499.959184 229.316834 
L 499.959184 251.209767 
L 511.346939 251.209767 
L 511.346939 220.993527 
L 522.734694 220.993527 
L 522.734694 288.635983 
L 534.122449 288.635983 
L 534.122449 251.209767 
L 545.510204 251.209767 
L 545.510204 251.209767 
L 556.897959 251.209767 
L 556.897959 251.209767 
L 568.285714 251.209767 
L 568.285714 326.062199 
L 579.673469 326.062199 
L 579.673469 239.161217 
L 591.061224 239.161217 
L 591.061224 251.209767 
L 602.44898 251.209767 
L 602.44898 251.209767 
L 613.836735 251.209767 
L 613.836735 266.74305 
L 625.22449 266.74305 
L 625.22449 326.062199 
L 636.612245 326.062199 
L 636.612245 266.74305 
L 648 266.74305 
" style="fill:none;stroke:#2ca02c;stroke-linecap:square;stroke-width:1.5;"/>
   </g>
   <g id="line2d_42">
    <path clip-path="url(#p6364f5afb9)" d="M 90 140.962731 
L 101.387755 140.962731 
L 101.387755 138.599655 
L 112.77551 138.599655 
L 112.77551 155.371086 
L 124.163265 155.371086 
L 124.163265 165.550493 
L 135.55102 165.550493 
L 135.55102 170.228275 
L 146.938776 170.228275 
L 146.938776 182.521699 
L 158.326531 182.521699 
L 158.326531 191.87744 
L 169.714286 191.87744 
L 169.714286 191.87744 
L 181.102041 191.87744 
L 181.102041 200.566813 
L 192.489796 200.566813 
L 192.489796 199.716487 
L 203.877551 199.716487 
L 203.877551 202.308726 
L 215.265306 202.308726 
L 215.265306 209.392399 
L 226.653061 209.392399 
L 226.653061 206.446508 
L 238.040816 206.446508 
L 238.040816 200.566813 
L 249.428571 200.566813 
L 249.428571 213.045602 
L 260.816327 213.045602 
L 260.816327 213.045602 
L 272.204082 213.045602 
L 272.204082 202.308726 
L 283.591837 202.308726 
L 283.591837 206.926463 
L 294.979592 206.926463 
L 294.979592 210.411196 
L 306.367347 210.411196 
L 306.367347 212.508337 
L 317.755102 212.508337 
L 317.755102 200.566813 
L 329.142857 200.566813 
L 329.142857 201.867951 
L 340.530612 201.867951 
L 340.530612 217.54776 
L 351.918367 217.54776 
L 351.918367 211.976367 
L 363.306122 211.976367 
L 363.306122 214.136439 
L 374.693878 214.136439 
L 374.693878 217.54776 
L 386.081633 217.54776 
L 386.081633 217.54776 
L 397.469388 217.54776 
L 397.469388 215.815164 
L 408.857143 215.815164 
L 408.857143 216.964029 
L 420.244898 216.964029 
L 420.244898 221.820749 
L 431.632653 221.820749 
L 431.632653 211.976367 
L 443.020408 211.976367 
L 443.020408 216.964029 
L 454.408163 216.964029 
L 454.408163 222.459746 
L 465.795918 222.459746 
L 465.795918 213.045602 
L 477.183673 213.045602 
L 477.183673 219.947916 
L 488.571429 219.947916 
L 488.571429 209.392399 
L 499.959184 209.392399 
L 499.959184 210.927894 
L 511.346939 210.927894 
L 511.346939 219.947916 
L 522.734694 219.947916 
L 522.734694 210.927894 
L 534.122449 210.927894 
L 534.122449 224.423403 
L 545.510204 224.423403 
L 545.510204 221.820749 
L 556.897959 221.820749 
L 556.897959 227.157892 
L 568.285714 227.157892 
L 568.285714 219.337801 
L 579.673469 219.337801 
L 579.673469 230.038288 
L 591.061224 230.038288 
L 591.061224 222.459746 
L 602.44898 222.459746 
L 602.44898 236.30556 
L 613.836735 236.30556 
L 613.836735 215.24977 
L 625.22449 215.24977 
L 625.22449 227.863714 
L 636.612245 227.863714 
L 636.612245 230.783053 
L 648 230.783053 
" style="fill:none;stroke:#d62728;stroke-linecap:square;stroke-width:1.5;"/>
   </g>
   <g id="line2d_43">
    <path clip-path="url(#p6364f5afb9)" d="M 90 424.273784 
L 101.387755 424.273784 
L 101.387755 402.380851 
L 112.77551 402.380851 
L 112.77551 424.273784 
L 124.163265 424.273784 
L 124.163265 424.273784 
L 135.55102 424.273784 
L 135.55102 402.380851 
L 146.938776 402.380851 
L 146.938776 461.7 
L 158.326531 461.7 
L 158.326531 541 
M 169.714286 541 
L 169.714286 402.380851 
L 181.102041 402.380851 
L 181.102041 386.847568 
L 192.489796 386.847568 
L 192.489796 424.273784 
L 203.877551 424.273784 
L 203.877551 461.7 
L 215.265306 461.7 
L 215.265306 541 
M 226.653061 541 
L 226.653061 461.7 
L 238.040816 461.7 
L 238.040816 461.7 
L 249.428571 461.7 
L 249.428571 461.7 
L 260.816327 461.7 
L 260.816327 461.7 
L 272.204082 461.7 
L 272.204082 541 
M 283.591837 541 
L 283.591837 461.7 
L 294.979592 461.7 
L 294.979592 461.7 
L 306.367347 461.7 
L 306.367347 541 
M 317.755102 541 
L 317.755102 461.7 
L 329.142857 461.7 
L 329.142857 386.847568 
L 340.530612 386.847568 
L 340.530612 461.7 
L 351.918367 461.7 
L 351.918367 541 
M 397.469388 541 
L 397.469388 424.273784 
L 408.857143 424.273784 
L 408.857143 541 
M 420.244898 541 
L 420.244898 424.273784 
L 431.632653 424.273784 
L 431.632653 461.7 
L 443.020408 461.7 
L 443.020408 461.7 
L 454.408163 461.7 
L 454.408163 461.7 
L 465.795918 461.7 
L 465.795918 402.380851 
L 477.183673 402.380851 
L 477.183673 541 
M 488.571429 541 
L 488.571429 424.273784 
L 499.959184 424.273784 
L 499.959184 541 
M 534.122449 541 
L 534.122449 424.273784 
L 545.510204 424.273784 
L 545.510204 402.380851 
L 556.897959 402.380851 
L 556.897959 424.273784 
L 568.285714 424.273784 
L 568.285714 424.273784 
L 579.673469 424.273784 
L 579.673469 461.7 
L 591.061224 461.7 
L 591.061224 461.7 
L 602.44898 461.7 
L 602.44898 461.7 
L 613.836735 461.7 
L 613.836735 461.7 
L 625.22449 461.7 
L 625.22449 541 
" style="fill:none;stroke:#9467bd;stroke-linecap:square;stroke-width:1.5;"/>
   </g>
   <g id="line2d_44">
    <path clip-path="url(#p6364f5afb9)" d="M 90 141.247664 
L 101.387755 141.247664 
L 101.387755 139.009224 
L 112.77551 139.009224 
L 112.77551 155.743464 
L 124.163265 155.743464 
L 124.163265 166.000451 
L 135.55102 166.000451 
L 135.55102 170.966254 
L 146.938776 170.966254 
L 146.938776 182.829362 
L 158.326531 182.829362 
L 158.326531 191.87744 
L 169.714286 191.87744 
L 169.714286 192.98317 
L 181.102041 192.98317 
L 181.102041 202.308726 
L 192.489796 202.308726 
L 192.489796 200.566813 
L 203.877551 200.566813 
L 203.877551 202.753129 
L 215.265306 202.753129 
L 215.265306 209.392399 
L 226.653061 209.392399 
L 226.653061 206.926463 
L 238.040816 206.926463 
L 238.040816 200.997051 
L 249.428571 200.997051 
L 249.428571 213.588266 
L 260.816327 213.588266 
L 260.816327 213.588266 
L 272.204082 213.588266 
L 272.204082 202.308726 
L 283.591837 202.308726 
L 283.591837 207.410723 
L 294.979592 207.410723 
L 294.979592 210.927894 
L 306.367347 210.927894 
L 306.367347 212.508337 
L 317.755102 212.508337 
L 317.755102 200.997051 
L 329.142857 200.997051 
L 329.142857 203.65306 
L 340.530612 203.65306 
L 340.530612 218.137871 
L 351.918367 218.137871 
L 351.918367 211.976367 
L 363.306122 211.976367 
L 363.306122 214.136439 
L 374.693878 214.136439 
L 374.693878 217.54776 
L 386.081633 217.54776 
L 386.081633 217.54776 
L 397.469388 217.54776 
L 397.469388 216.964029 
L 408.857143 216.964029 
L 408.857143 216.964029 
L 420.244898 216.964029 
L 420.244898 223.106396 
L 431.632653 223.106396 
L 431.632653 212.508337 
L 443.020408 212.508337 
L 443.020408 217.54776 
L 454.408163 217.54776 
L 454.408163 223.106396 
L 465.795918 223.106396 
L 465.795918 214.690235 
L 477.183673 214.690235 
L 477.183673 219.947916 
L 488.571429 219.947916 
L 488.571429 210.411196 
L 499.959184 210.411196 
L 499.959184 210.927894 
L 511.346939 210.927894 
L 511.346939 219.947916 
L 522.734694 219.947916 
L 522.734694 210.927894 
L 534.122449 210.927894 
L 534.122449 225.773339 
L 545.510204 225.773339 
L 545.510204 223.760884 
L 556.897959 223.760884 
L 556.897959 228.578885 
L 568.285714 228.578885 
L 568.285714 220.565004 
L 579.673469 220.565004 
L 579.673469 230.783053 
L 591.061224 230.783053 
L 591.061224 223.106396 
L 602.44898 223.106396 
L 602.44898 237.142703 
L 613.836735 237.142703 
L 613.836735 215.815164 
L 625.22449 215.815164 
L 625.22449 227.863714 
L 636.612245 227.863714 
L 636.612245 230.783053 
L 648 230.783053 
" style="fill:none;stroke:#8c564b;stroke-linecap:square;stroke-width:1.5;"/>
   </g>
   <g id="line2d_45">
    <path clip-path="url(#p6364f5afb9)" d="M 422.900901 480.6 
L 422.900901 64.8 
" style="fill:none;stroke:#1f77b4;stroke-linecap:square;stroke-width:1.5;"/>
   </g>
   <g id="patch_5">
    <path d="M 90 480.6 
L 90 64.8 
" style="fill:none;stroke:#000000;stroke-linecap:square;stroke-linejoin:miter;stroke-width:0.8;"/>
   </g>
   <g id="patch_6">
    <path d="M 648 480.6 
L 648 64.8 
" style="fill:none;stroke:#000000;stroke-linecap:square;stroke-linejoin:miter;stroke-width:0.8;"/>
   </g>
   <g id="patch_7">
    <path d="M 90 480.6 
L 648 480.6 
" style="fill:none;stroke:#000000;stroke-linecap:square;stroke-linejoin:miter;stroke-width:0.8;"/>
   </g>
   <g id="patch_8">
    <path d="M 90 64.8 
L 648 64.8 
" style="fill:none;stroke:#000000;stroke-linecap:square;stroke-linejoin:miter;stroke-width:0.8;"/>
   </g>
   <g id="text_12">
    <g id="patch_9">
     <path d="M 505.138624 109.584125 
L 434.900901 109.584125 
L 434.900901 78.227875 
L 505.138624 78.227875 
L 505.138624 70.388813 
L 528.655812 93.906 
L 505.138624 117.423188 
L 505.138624 109.584125 
z
" style="fill:#ff7f0e;opacity:0.5;stroke:#ff7f0e;stroke-linejoin:miter;"/>
    </g>
    <!-- photon -->
    <defs>
     <path d="M 54.890625 33.015625 
L 54.890625 0 
L 45.90625 0 
L 45.90625 32.71875 
Q 45.90625 40.484375 42.875 44.328125 
Q 39.84375 48.1875 33.796875 48.1875 
Q 26.515625 48.1875 22.3125 43.546875 
Q 18.109375 38.921875 18.109375 30.90625 
L 18.109375 0 
L 9.078125 0 
L 9.078125 75.984375 
L 18.109375 75.984375 
L 18.109375 46.1875 
Q 21.34375 51.125 25.703125 53.5625 
Q 30.078125 56 35.796875 56 
Q 45.21875 56 50.046875 50.171875 
Q 54.890625 44.34375 54.890625 33.015625 
z
" id="DejaVuSans-104"/>
     <path d="M 54.890625 33.015625 
L 54.890625 0 
L 45.90625 0 
L 45.90625 32.71875 
Q 45.90625 40.484375 42.875 44.328125 
Q 39.84375 48.1875 33.796875 48.1875 
Q 26.515625 48.1875 22.3125 43.546875 
Q 18.109375 38.921875 18.109375 30.90625 
L 18.109375 0 
L 9.078125 0 
L 9.078125 54.6875 
L 18.109375 54.6875 
L 18.109375 46.1875 
Q 21.34375 51.125 25.703125 53.5625 
Q 30.078125 56 35.796875 56 
Q 45.21875 56 50.046875 50.171875 
Q 54.890625 44.34375 54.890625 33.015625 
z
" id="DejaVuSans-110"/>
    </defs>
    <g transform="translate(440.900901 99.42475)scale(0.2 -0.2)">
     <use xlink:href="#DejaVuSans-112"/>
     <use x="63.476562" xlink:href="#DejaVuSans-104"/>
     <use x="126.855469" xlink:href="#DejaVuSans-111"/>
     <use x="188.037109" xlink:href="#DejaVuSans-116"/>
     <use x="227.246094" xlink:href="#DejaVuSans-111"/>
     <use x="288.427734" xlink:href="#DejaVuSans-110"/>
    </g>
   </g>
   <g id="text_13">
    <g id="patch_10">
     <path d="M 328.891303 109.584125 
L 410.900901 109.584125 
L 410.900901 78.227875 
L 328.891303 78.227875 
L 328.891303 70.388813 
L 305.374115 93.906 
L 328.891303 117.423188 
L 328.891303 109.584125 
z
" style="fill:#1f77b4;opacity:0.5;stroke:#1f77b4;stroke-linejoin:miter;"/>
    </g>
    <!-- electron -->
    <defs>
     <path d="M 48.78125 52.59375 
L 48.78125 44.1875 
Q 44.96875 46.296875 41.140625 47.34375 
Q 37.3125 48.390625 33.40625 48.390625 
Q 24.65625 48.390625 19.8125 42.84375 
Q 14.984375 37.3125 14.984375 27.296875 
Q 14.984375 17.28125 19.8125 11.734375 
Q 24.65625 6.203125 33.40625 6.203125 
Q 37.3125 6.203125 41.140625 7.25 
Q 44.96875 8.296875 48.78125 10.40625 
L 48.78125 2.09375 
Q 45.015625 0.34375 40.984375 -0.53125 
Q 36.96875 -1.421875 32.421875 -1.421875 
Q 20.0625 -1.421875 12.78125 6.34375 
Q 5.515625 14.109375 5.515625 27.296875 
Q 5.515625 40.671875 12.859375 48.328125 
Q 20.21875 56 33.015625 56 
Q 37.15625 56 41.109375 55.140625 
Q 45.0625 54.296875 48.78125 52.59375 
z
" id="DejaVuSans-99"/>
    </defs>
    <g transform="translate(322.766526 99.42475)scale(0.2 -0.2)">
     <use xlink:href="#DejaVuSans-101"/>
     <use x="61.523438" xlink:href="#DejaVuSans-108"/>
     <use x="89.306641" xlink:href="#DejaVuSans-101"/>
     <use x="150.830078" xlink:href="#DejaVuSans-99"/>
     <use x="205.810547" xlink:href="#DejaVuSans-116"/>
     <use x="245.019531" xlink:href="#DejaVuSans-114"/>
     <use x="286.101562" xlink:href="#DejaVuSans-111"/>
     <use x="347.283203" xlink:href="#DejaVuSans-110"/>
    </g>
   </g>
   <g id="legend_1">
    <g id="patch_11">
     <path d="M 411.623438 239.72625 
L 635.4 239.72625 
Q 639 239.72625 639 236.12625 
L 639 77.4 
Q 639 73.8 635.4 73.8 
L 411.623438 73.8 
Q 408.023438 73.8 408.023438 77.4 
L 408.023438 236.12625 
Q 408.023438 239.72625 411.623438 239.72625 
z
" style="fill:#ffffff;opacity:0.5;stroke:#cccccc;stroke-linejoin:miter;"/>
    </g>
    <g id="line2d_46">
     <path d="M 415.223437 88.377188 
L 451.223437 88.377188 
" style="fill:none;stroke:#1f77b4;stroke-linecap:square;stroke-width:1.5;"/>
    </g>
    <g id="line2d_47"/>
    <g id="text_14">
     <!-- Electrons -->
     <defs>
      <path d="M 9.8125 72.90625 
L 55.90625 72.90625 
L 55.90625 64.59375 
L 19.671875 64.59375 
L 19.671875 43.015625 
L 54.390625 43.015625 
L 54.390625 34.71875 
L 19.671875 34.71875 
L 19.671875 8.296875 
L 56.78125 8.296875 
L 56.78125 0 
L 9.8125 0 
z
" id="DejaVuSans-69"/>
      <path d="M 44.28125 53.078125 
L 44.28125 44.578125 
Q 40.484375 46.53125 36.375 47.5 
Q 32.28125 48.484375 27.875 48.484375 
Q 21.1875 48.484375 17.84375 46.4375 
Q 14.5 44.390625 14.5 40.28125 
Q 14.5 37.15625 16.890625 35.375 
Q 19.28125 33.59375 26.515625 31.984375 
L 29.59375 31.296875 
Q 39.15625 29.25 43.1875 25.515625 
Q 47.21875 21.78125 47.21875 15.09375 
Q 47.21875 7.46875 41.1875 3.015625 
Q 35.15625 -1.421875 24.609375 -1.421875 
Q 20.21875 -1.421875 15.453125 -0.5625 
Q 10.6875 0.296875 5.421875 2 
L 5.421875 11.28125 
Q 10.40625 8.6875 15.234375 7.390625 
Q 20.0625 6.109375 24.8125 6.109375 
Q 31.15625 6.109375 34.5625 8.28125 
Q 37.984375 10.453125 37.984375 14.40625 
Q 37.984375 18.0625 35.515625 20.015625 
Q 33.0625 21.96875 24.703125 23.78125 
L 21.578125 24.515625 
Q 13.234375 26.265625 9.515625 29.90625 
Q 5.8125 33.546875 5.8125 39.890625 
Q 5.8125 47.609375 11.28125 51.796875 
Q 16.75 56 26.8125 56 
Q 31.78125 56 36.171875 55.265625 
Q 40.578125 54.546875 44.28125 53.078125 
z
" id="DejaVuSans-115"/>
     </defs>
     <g transform="translate(465.623437 94.677188)scale(0.18 -0.18)">
      <use xlink:href="#DejaVuSans-69"/>
      <use x="63.183594" xlink:href="#DejaVuSans-108"/>
      <use x="90.966797" xlink:href="#DejaVuSans-101"/>
      <use x="152.490234" xlink:href="#DejaVuSans-99"/>
      <use x="207.470703" xlink:href="#DejaVuSans-116"/>
      <use x="246.679688" xlink:href="#DejaVuSans-114"/>
      <use x="287.761719" xlink:href="#DejaVuSans-111"/>
      <use x="348.943359" xlink:href="#DejaVuSans-110"/>
      <use x="412.322266" xlink:href="#DejaVuSans-115"/>
     </g>
    </g>
    <g id="line2d_48">
     <path d="M 415.223437 114.797813 
L 451.223437 114.797813 
" style="fill:none;stroke:#ff7f0e;stroke-linecap:square;stroke-width:1.5;"/>
    </g>
    <g id="line2d_49"/>
    <g id="text_15">
     <!-- Electrons (Nu_e) -->
     <defs>
      <path id="DejaVuSans-32"/>
      <path d="M 31 75.875 
Q 24.46875 64.65625 21.28125 53.65625 
Q 18.109375 42.671875 18.109375 31.390625 
Q 18.109375 20.125 21.3125 9.0625 
Q 24.515625 -2 31 -13.1875 
L 23.1875 -13.1875 
Q 15.875 -1.703125 12.234375 9.375 
Q 8.59375 20.453125 8.59375 31.390625 
Q 8.59375 42.28125 12.203125 53.3125 
Q 15.828125 64.359375 23.1875 75.875 
z
" id="DejaVuSans-40"/>
      <path d="M 9.8125 72.90625 
L 23.09375 72.90625 
L 55.421875 11.921875 
L 55.421875 72.90625 
L 64.984375 72.90625 
L 64.984375 0 
L 51.703125 0 
L 19.390625 60.984375 
L 19.390625 0 
L 9.8125 0 
z
" id="DejaVuSans-78"/>
      <path d="M 8.5 21.578125 
L 8.5 54.6875 
L 17.484375 54.6875 
L 17.484375 21.921875 
Q 17.484375 14.15625 20.5 10.265625 
Q 23.53125 6.390625 29.59375 6.390625 
Q 36.859375 6.390625 41.078125 11.03125 
Q 45.3125 15.671875 45.3125 23.6875 
L 45.3125 54.6875 
L 54.296875 54.6875 
L 54.296875 0 
L 45.3125 0 
L 45.3125 8.40625 
Q 42.046875 3.421875 37.71875 1 
Q 33.40625 -1.421875 27.6875 -1.421875 
Q 18.265625 -1.421875 13.375 4.4375 
Q 8.5 10.296875 8.5 21.578125 
z
M 31.109375 56 
z
" id="DejaVuSans-117"/>
      <path d="M 50.984375 -16.609375 
L 50.984375 -23.578125 
L -0.984375 -23.578125 
L -0.984375 -16.609375 
z
" id="DejaVuSans-95"/>
      <path d="M 8.015625 75.875 
L 15.828125 75.875 
Q 23.140625 64.359375 26.78125 53.3125 
Q 30.421875 42.28125 30.421875 31.390625 
Q 30.421875 20.453125 26.78125 9.375 
Q 23.140625 -1.703125 15.828125 -13.1875 
L 8.015625 -13.1875 
Q 14.5 -2 17.703125 9.0625 
Q 20.90625 20.125 20.90625 31.390625 
Q 20.90625 42.671875 17.703125 53.65625 
Q 14.5 64.65625 8.015625 75.875 
z
" id="DejaVuSans-41"/>
     </defs>
     <g transform="translate(465.623437 121.097813)scale(0.18 -0.18)">
      <use xlink:href="#DejaVuSans-69"/>
      <use x="63.183594" xlink:href="#DejaVuSans-108"/>
      <use x="90.966797" xlink:href="#DejaVuSans-101"/>
      <use x="152.490234" xlink:href="#DejaVuSans-99"/>
      <use x="207.470703" xlink:href="#DejaVuSans-116"/>
      <use x="246.679688" xlink:href="#DejaVuSans-114"/>
      <use x="287.761719" xlink:href="#DejaVuSans-111"/>
      <use x="348.943359" xlink:href="#DejaVuSans-110"/>
      <use x="412.322266" xlink:href="#DejaVuSans-115"/>
      <use x="464.421875" xlink:href="#DejaVuSans-32"/>
      <use x="496.208984" xlink:href="#DejaVuSans-40"/>
      <use x="535.222656" xlink:href="#DejaVuSans-78"/>
      <use x="610.027344" xlink:href="#DejaVuSans-117"/>
      <use x="673.40625" xlink:href="#DejaVuSans-95"/>
      <use x="723.40625" xlink:href="#DejaVuSans-101"/>
      <use x="784.929688" xlink:href="#DejaVuSans-41"/>
     </g>
    </g>
    <g id="line2d_50">
     <path d="M 415.223437 141.719063 
L 451.223437 141.719063 
" style="fill:none;stroke:#2ca02c;stroke-linecap:square;stroke-width:1.5;"/>
    </g>
    <g id="line2d_51"/>
    <g id="text_16">
     <!-- Electrons (Nu_mu) -->
     <defs>
      <path d="M 52 44.1875 
Q 55.375 50.25 60.0625 53.125 
Q 64.75 56 71.09375 56 
Q 79.640625 56 84.28125 50.015625 
Q 88.921875 44.046875 88.921875 33.015625 
L 88.921875 0 
L 79.890625 0 
L 79.890625 32.71875 
Q 79.890625 40.578125 77.09375 44.375 
Q 74.3125 48.1875 68.609375 48.1875 
Q 61.625 48.1875 57.5625 43.546875 
Q 53.515625 38.921875 53.515625 30.90625 
L 53.515625 0 
L 44.484375 0 
L 44.484375 32.71875 
Q 44.484375 40.625 41.703125 44.40625 
Q 38.921875 48.1875 33.109375 48.1875 
Q 26.21875 48.1875 22.15625 43.53125 
Q 18.109375 38.875 18.109375 30.90625 
L 18.109375 0 
L 9.078125 0 
L 9.078125 54.6875 
L 18.109375 54.6875 
L 18.109375 46.1875 
Q 21.1875 51.21875 25.484375 53.609375 
Q 29.78125 56 35.6875 56 
Q 41.65625 56 45.828125 52.96875 
Q 50 49.953125 52 44.1875 
z
" id="DejaVuSans-109"/>
     </defs>
     <g transform="translate(465.623437 148.019063)scale(0.18 -0.18)">
      <use xlink:href="#DejaVuSans-69"/>
      <use x="63.183594" xlink:href="#DejaVuSans-108"/>
      <use x="90.966797" xlink:href="#DejaVuSans-101"/>
      <use x="152.490234" xlink:href="#DejaVuSans-99"/>
      <use x="207.470703" xlink:href="#DejaVuSans-116"/>
      <use x="246.679688" xlink:href="#DejaVuSans-114"/>
      <use x="287.761719" xlink:href="#DejaVuSans-111"/>
      <use x="348.943359" xlink:href="#DejaVuSans-110"/>
      <use x="412.322266" xlink:href="#DejaVuSans-115"/>
      <use x="464.421875" xlink:href="#DejaVuSans-32"/>
      <use x="496.208984" xlink:href="#DejaVuSans-40"/>
      <use x="535.222656" xlink:href="#DejaVuSans-78"/>
      <use x="610.027344" xlink:href="#DejaVuSans-117"/>
      <use x="673.40625" xlink:href="#DejaVuSans-95"/>
      <use x="723.40625" xlink:href="#DejaVuSans-109"/>
      <use x="820.818359" xlink:href="#DejaVuSans-117"/>
      <use x="884.197266" xlink:href="#DejaVuSans-41"/>
     </g>
    </g>
    <g id="line2d_52">
     <path d="M 415.223437 168.640312 
L 451.223437 168.640312 
" style="fill:none;stroke:#d62728;stroke-linecap:square;stroke-width:1.5;"/>
    </g>
    <g id="line2d_53"/>
    <g id="text_17">
     <!-- Photons -->
     <g transform="translate(465.623437 174.940313)scale(0.18 -0.18)">
      <use xlink:href="#DejaVuSans-80"/>
      <use x="60.302734" xlink:href="#DejaVuSans-104"/>
      <use x="123.681641" xlink:href="#DejaVuSans-111"/>
      <use x="184.863281" xlink:href="#DejaVuSans-116"/>
      <use x="224.072266" xlink:href="#DejaVuSans-111"/>
      <use x="285.253906" xlink:href="#DejaVuSans-110"/>
      <use x="348.632812" xlink:href="#DejaVuSans-115"/>
     </g>
    </g>
    <g id="line2d_54">
     <path d="M 415.223437 195.060937 
L 451.223437 195.060937 
" style="fill:none;stroke:#9467bd;stroke-linecap:square;stroke-width:1.5;"/>
    </g>
    <g id="line2d_55"/>
    <g id="text_18">
     <!-- Photons (Nu_e) -->
     <g transform="translate(465.623437 201.360937)scale(0.18 -0.18)">
      <use xlink:href="#DejaVuSans-80"/>
      <use x="60.302734" xlink:href="#DejaVuSans-104"/>
      <use x="123.681641" xlink:href="#DejaVuSans-111"/>
      <use x="184.863281" xlink:href="#DejaVuSans-116"/>
      <use x="224.072266" xlink:href="#DejaVuSans-111"/>
      <use x="285.253906" xlink:href="#DejaVuSans-110"/>
      <use x="348.632812" xlink:href="#DejaVuSans-115"/>
      <use x="400.732422" xlink:href="#DejaVuSans-32"/>
      <use x="432.519531" xlink:href="#DejaVuSans-40"/>
      <use x="471.533203" xlink:href="#DejaVuSans-78"/>
      <use x="546.337891" xlink:href="#DejaVuSans-117"/>
      <use x="609.716797" xlink:href="#DejaVuSans-95"/>
      <use x="659.716797" xlink:href="#DejaVuSans-101"/>
      <use x="721.240234" xlink:href="#DejaVuSans-41"/>
     </g>
    </g>
    <g id="line2d_56">
     <path d="M 415.223437 221.982188 
L 451.223437 221.982188 
" style="fill:none;stroke:#8c564b;stroke-linecap:square;stroke-width:1.5;"/>
    </g>
    <g id="line2d_57"/>
    <g id="text_19">
     <!-- Photons (Nu_mu) -->
     <g transform="translate(465.623437 228.282188)scale(0.18 -0.18)">
      <use xlink:href="#DejaVuSans-80"/>
      <use x="60.302734" xlink:href="#DejaVuSans-104"/>
      <use x="123.681641" xlink:href="#DejaVuSans-111"/>
      <use x="184.863281" xlink:href="#DejaVuSans-116"/>
      <use x="224.072266" xlink:href="#DejaVuSans-111"/>
      <use x="285.253906" xlink:href="#DejaVuSans-110"/>
      <use x="348.632812" xlink:href="#DejaVuSans-115"/>
      <use x="400.732422" xlink:href="#DejaVuSans-32"/>
      <use x="432.519531" xlink:href="#DejaVuSans-40"/>
      <use x="471.533203" xlink:href="#DejaVuSans-78"/>
      <use x="546.337891" xlink:href="#DejaVuSans-117"/>
      <use x="609.716797" xlink:href="#DejaVuSans-95"/>
      <use x="659.716797" xlink:href="#DejaVuSans-109"/>
      <use x="757.128906" xlink:href="#DejaVuSans-117"/>
      <use x="820.507812" xlink:href="#DejaVuSans-41"/>
     </g>
    </g>
   </g>
  </g>
 </g>
 <defs>
  <clipPath id="p6364f5afb9">
   <rect height="415.8" width="558" x="90" y="64.8"/>
  </clipPath>
 </defs>
</svg>
