<?xml version="1.0" encoding="utf-8" standalone="no"?>
<!DOCTYPE svg PUBLIC "-//W3C//DTD SVG 1.1//EN"
  "http://www.w3.org/Graphics/SVG/1.1/DTD/svg11.dtd">
<!-- Created with matplotlib (https://matplotlib.org/) -->
<svg height="540pt" version="1.1" viewBox="0 0 720 540" width="720pt" xmlns="http://www.w3.org/2000/svg" xmlns:xlink="http://www.w3.org/1999/xlink">
 <defs>
  <style type="text/css">
*{stroke-linecap:butt;stroke-linejoin:round;}
  </style>
 </defs>
 <g id="figure_1">
  <g id="patch_1">
   <path d="M 0 540 
L 720 540 
L 720 0 
L 0 0 
z
" style="fill:#ffffff;"/>
  </g>
  <g id="axes_1">
   <g id="patch_2">
    <path d="M 90 480.6 
L 648 480.6 
L 648 64.8 
L 90 64.8 
z
" style="fill:#ffffff;"/>
   </g>
   <g id="patch_3">
    <path clip-path="url(#pac79943fde)" d="M 90 121734.172654 
L 90 84.737109 
L 101.387755 84.737109 
L 101.387755 83.7 
L 112.77551 83.7 
L 112.77551 93.240545 
L 124.163265 93.240545 
L 124.163265 108.047876 
L 135.55102 108.047876 
L 135.55102 113.170348 
L 146.938776 113.170348 
L 146.938776 137.850263 
L 158.326531 137.850263 
L 158.326531 127.497161 
L 169.714286 127.497161 
L 169.714286 147.208283 
L 181.102041 147.208283 
L 181.102041 142.322577 
L 192.489796 142.322577 
L 192.489796 158.585712 
L 203.877551 158.585712 
L 203.877551 173.100916 
L 215.265306 173.100916 
L 215.265306 173.100916 
L 226.653061 173.100916 
L 226.653061 197.405983 
L 238.040816 197.405983 
L 238.040816 185.603725 
L 249.428571 185.603725 
L 249.428571 167.807415 
L 260.816327 167.807415 
L 260.816327 197.405983 
L 272.204082 197.405983 
L 272.204082 193.172454 
L 283.591837 193.172454 
L 283.591837 185.603725 
L 294.979592 185.603725 
L 294.979592 202.008091 
L 306.367347 202.008091 
L 306.367347 212.621739 
L 317.755102 212.621739 
L 317.755102 212.621739 
L 329.142857 212.621739 
L 329.142857 189.252819 
L 340.530612 189.252819 
L 340.530612 189.252819 
L 351.918367 189.252819 
L 351.918367 218.851387 
L 363.306122 218.851387 
L 363.306122 255.512547 
L 374.693878 255.512547 
L 374.693878 189.252819 
L 386.081633 189.252819 
L 386.081633 212.621739 
L 397.469388 212.621739 
L 397.469388 218.851387 
L 408.857143 218.851387 
L 408.857143 243.71029 
L 420.244898 243.71029 
L 420.244898 225.913979 
L 431.632653 225.913979 
L 431.632653 243.71029 
L 443.020408 243.71029 
L 443.020408 225.913979 
L 454.408163 225.913979 
L 454.408163 270.728304 
L 465.795918 270.728304 
L 465.795918 234.067143 
L 477.183673 234.067143 
L 477.183673 225.913979 
L 488.571429 225.913979 
L 488.571429 255.512547 
L 499.959184 255.512547 
L 499.959184 202.008091 
L 511.346939 202.008091 
L 511.346939 292.173708 
L 522.734694 292.173708 
L 522.734694 255.512547 
L 534.122449 255.512547 
L 534.122449 243.71029 
L 545.510204 243.71029 
L 545.510204 212.621739 
L 556.897959 212.621739 
L 556.897959 255.512547 
L 568.285714 255.512547 
L 568.285714 270.728304 
L 579.673469 270.728304 
L 579.673469 234.067143 
L 591.061224 234.067143 
L 591.061224 234.067143 
L 602.44898 234.067143 
L 602.44898 270.728304 
L 613.836735 270.728304 
L 613.836735 292.173708 
L 625.22449 292.173708 
L 625.22449 243.71029 
L 636.612245 243.71029 
L 636.612245 218.851387 
L 648 218.851387 
L 648 121734.172654 
z
" style="fill:#1f77b4;opacity:0.2;"/>
   </g>
   <g id="patch_4">
    <path clip-path="url(#pac79943fde)" d="M 90 121734.172654 
L 90 123.097003 
L 101.387755 123.097003 
L 101.387755 140.735665 
L 112.77551 140.735665 
L 112.77551 158.458568 
L 124.163265 158.458568 
L 124.163265 173.845769 
L 135.55102 173.845769 
L 135.55102 179.392945 
L 146.938776 179.392945 
L 146.938776 185.590817 
L 158.326531 185.590817 
L 158.326531 183.351715 
L 169.714286 183.351715 
L 169.714286 197.393074 
L 181.102041 197.393074 
L 181.102041 195.982567 
L 192.489796 195.982567 
L 192.489796 189.752919 
L 203.877551 189.752919 
L 203.877551 206.326265 
L 215.265306 206.326265 
L 215.265306 200.332212 
L 226.653061 200.332212 
L 226.653061 193.934923 
L 238.040816 193.934923 
L 238.040816 198.84223 
L 249.428571 198.84223 
L 249.428571 204.251848 
L 260.816327 204.251848 
L 260.816327 208.485376 
L 272.204082 208.485376 
L 272.204082 203.846551 
L 283.591837 203.846551 
L 283.591837 201.093245 
L 294.979592 201.093245 
L 294.979592 202.648971 
L 306.367347 202.648971 
L 306.367347 204.251848 
L 317.755102 204.251848 
L 317.755102 203.846551 
L 329.142857 203.846551 
L 329.142857 205.071877 
L 340.530612 205.071877 
L 340.530612 208.046445 
L 351.918367 208.046445 
L 351.918367 206.751094 
L 363.306122 206.751094 
L 363.306122 215.046629 
L 374.693878 215.046629 
L 374.693878 217.081145 
L 386.081633 217.081145 
L 386.081633 218.660094 
L 397.469388 218.660094 
L 397.469388 213.570509 
L 408.857143 213.570509 
L 408.857143 213.087484 
L 420.244898 213.087484 
L 420.244898 214.057986 
L 431.632653 214.057986 
L 431.632653 203.444338 
L 443.020408 203.444338 
L 443.020408 210.736392 
L 454.408163 210.736392 
L 454.408163 214.057986 
L 465.795918 214.057986 
L 465.795918 208.485376 
L 477.183673 208.485376 
L 477.183673 228.624766 
L 488.571429 228.624766 
L 488.571429 211.198323 
L 499.959184 211.198323 
L 499.959184 212.60883 
L 511.346939 212.60883 
L 511.346939 220.287634 
L 522.734694 220.287634 
L 522.734694 215.547968 
L 534.122449 215.547968 
L 534.122449 221.401167 
L 545.510204 221.401167 
L 545.510204 232.643728 
L 556.897959 232.643728 
L 556.897959 222.538649 
L 568.285714 222.538649 
L 568.285714 220.84147 
L 579.673469 220.84147 
L 579.673469 226.105677 
L 591.061224 226.105677 
L 591.061224 221.401167 
L 602.44898 221.401167 
L 602.44898 227.350226 
L 613.836735 227.350226 
L 613.836735 218.128523 
L 625.22449 218.128523 
L 625.22449 219.739537 
L 636.612245 219.739537 
L 636.612245 226.724291 
L 648 226.724291 
L 648 121734.172654 
z
" style="fill:#ff7f0e;opacity:0.2;"/>
   </g>
   <g id="matplotlib.axis_1">
    <g id="xtick_1">
     <g id="line2d_1">
      <defs>
       <path d="M 0 0 
L 0 3.5 
" id="m3f04c23237" style="stroke:#000000;stroke-width:0.8;"/>
      </defs>
      <g>
       <use style="stroke:#000000;stroke-width:0.8;" x="90" xlink:href="#m3f04c23237" y="480.6"/>
      </g>
     </g>
     <g id="text_1">
      <!-- 0 -->
      <defs>
       <path d="M 31.78125 66.40625 
Q 24.171875 66.40625 20.328125 58.90625 
Q 16.5 51.421875 16.5 36.375 
Q 16.5 21.390625 20.328125 13.890625 
Q 24.171875 6.390625 31.78125 6.390625 
Q 39.453125 6.390625 43.28125 13.890625 
Q 47.125 21.390625 47.125 36.375 
Q 47.125 51.421875 43.28125 58.90625 
Q 39.453125 66.40625 31.78125 66.40625 
z
M 31.78125 74.21875 
Q 44.046875 74.21875 50.515625 64.515625 
Q 56.984375 54.828125 56.984375 36.375 
Q 56.984375 17.96875 50.515625 8.265625 
Q 44.046875 -1.421875 31.78125 -1.421875 
Q 19.53125 -1.421875 13.0625 8.265625 
Q 6.59375 17.96875 6.59375 36.375 
Q 6.59375 54.828125 13.0625 64.515625 
Q 19.53125 74.21875 31.78125 74.21875 
z
" id="DejaVuSans-48"/>
      </defs>
      <g transform="translate(81.7542 507.29515)scale(0.2592 -0.2592)">
       <use xlink:href="#DejaVuSans-48"/>
      </g>
     </g>
    </g>
    <g id="xtick_2">
     <g id="line2d_2">
      <g>
       <use style="stroke:#000000;stroke-width:0.8;" x="201.6" xlink:href="#m3f04c23237" y="480.6"/>
      </g>
     </g>
     <g id="text_2">
      <!-- 2 -->
      <defs>
       <path d="M 19.1875 8.296875 
L 53.609375 8.296875 
L 53.609375 0 
L 7.328125 0 
L 7.328125 8.296875 
Q 12.9375 14.109375 22.625 23.890625 
Q 32.328125 33.6875 34.8125 36.53125 
Q 39.546875 41.84375 41.421875 45.53125 
Q 43.3125 49.21875 43.3125 52.78125 
Q 43.3125 58.59375 39.234375 62.25 
Q 35.15625 65.921875 28.609375 65.921875 
Q 23.96875 65.921875 18.8125 64.3125 
Q 13.671875 62.703125 7.8125 59.421875 
L 7.8125 69.390625 
Q 13.765625 71.78125 18.9375 73 
Q 24.125 74.21875 28.421875 74.21875 
Q 39.75 74.21875 46.484375 68.546875 
Q 53.21875 62.890625 53.21875 53.421875 
Q 53.21875 48.921875 51.53125 44.890625 
Q 49.859375 40.875 45.40625 35.40625 
Q 44.1875 33.984375 37.640625 27.21875 
Q 31.109375 20.453125 19.1875 8.296875 
z
" id="DejaVuSans-50"/>
      </defs>
      <g transform="translate(193.3542 507.29515)scale(0.2592 -0.2592)">
       <use xlink:href="#DejaVuSans-50"/>
      </g>
     </g>
    </g>
    <g id="xtick_3">
     <g id="line2d_3">
      <g>
       <use style="stroke:#000000;stroke-width:0.8;" x="313.2" xlink:href="#m3f04c23237" y="480.6"/>
      </g>
     </g>
     <g id="text_3">
      <!-- 4 -->
      <defs>
       <path d="M 37.796875 64.3125 
L 12.890625 25.390625 
L 37.796875 25.390625 
z
M 35.203125 72.90625 
L 47.609375 72.90625 
L 47.609375 25.390625 
L 58.015625 25.390625 
L 58.015625 17.1875 
L 47.609375 17.1875 
L 47.609375 0 
L 37.796875 0 
L 37.796875 17.1875 
L 4.890625 17.1875 
L 4.890625 26.703125 
z
" id="DejaVuSans-52"/>
      </defs>
      <g transform="translate(304.9542 507.29515)scale(0.2592 -0.2592)">
       <use xlink:href="#DejaVuSans-52"/>
      </g>
     </g>
    </g>
    <g id="xtick_4">
     <g id="line2d_4">
      <g>
       <use style="stroke:#000000;stroke-width:0.8;" x="424.8" xlink:href="#m3f04c23237" y="480.6"/>
      </g>
     </g>
     <g id="text_4">
      <!-- 6 -->
      <defs>
       <path d="M 33.015625 40.375 
Q 26.375 40.375 22.484375 35.828125 
Q 18.609375 31.296875 18.609375 23.390625 
Q 18.609375 15.53125 22.484375 10.953125 
Q 26.375 6.390625 33.015625 6.390625 
Q 39.65625 6.390625 43.53125 10.953125 
Q 47.40625 15.53125 47.40625 23.390625 
Q 47.40625 31.296875 43.53125 35.828125 
Q 39.65625 40.375 33.015625 40.375 
z
M 52.59375 71.296875 
L 52.59375 62.3125 
Q 48.875 64.0625 45.09375 64.984375 
Q 41.3125 65.921875 37.59375 65.921875 
Q 27.828125 65.921875 22.671875 59.328125 
Q 17.53125 52.734375 16.796875 39.40625 
Q 19.671875 43.65625 24.015625 45.921875 
Q 28.375 48.1875 33.59375 48.1875 
Q 44.578125 48.1875 50.953125 41.515625 
Q 57.328125 34.859375 57.328125 23.390625 
Q 57.328125 12.15625 50.6875 5.359375 
Q 44.046875 -1.421875 33.015625 -1.421875 
Q 20.359375 -1.421875 13.671875 8.265625 
Q 6.984375 17.96875 6.984375 36.375 
Q 6.984375 53.65625 15.1875 63.9375 
Q 23.390625 74.21875 37.203125 74.21875 
Q 40.921875 74.21875 44.703125 73.484375 
Q 48.484375 72.75 52.59375 71.296875 
z
" id="DejaVuSans-54"/>
      </defs>
      <g transform="translate(416.5542 507.29515)scale(0.2592 -0.2592)">
       <use xlink:href="#DejaVuSans-54"/>
      </g>
     </g>
    </g>
    <g id="xtick_5">
     <g id="line2d_5">
      <g>
       <use style="stroke:#000000;stroke-width:0.8;" x="536.4" xlink:href="#m3f04c23237" y="480.6"/>
      </g>
     </g>
     <g id="text_5">
      <!-- 8 -->
      <defs>
       <path d="M 31.78125 34.625 
Q 24.75 34.625 20.71875 30.859375 
Q 16.703125 27.09375 16.703125 20.515625 
Q 16.703125 13.921875 20.71875 10.15625 
Q 24.75 6.390625 31.78125 6.390625 
Q 38.8125 6.390625 42.859375 10.171875 
Q 46.921875 13.96875 46.921875 20.515625 
Q 46.921875 27.09375 42.890625 30.859375 
Q 38.875 34.625 31.78125 34.625 
z
M 21.921875 38.8125 
Q 15.578125 40.375 12.03125 44.71875 
Q 8.5 49.078125 8.5 55.328125 
Q 8.5 64.0625 14.71875 69.140625 
Q 20.953125 74.21875 31.78125 74.21875 
Q 42.671875 74.21875 48.875 69.140625 
Q 55.078125 64.0625 55.078125 55.328125 
Q 55.078125 49.078125 51.53125 44.71875 
Q 48 40.375 41.703125 38.8125 
Q 48.828125 37.15625 52.796875 32.3125 
Q 56.78125 27.484375 56.78125 20.515625 
Q 56.78125 9.90625 50.3125 4.234375 
Q 43.84375 -1.421875 31.78125 -1.421875 
Q 19.734375 -1.421875 13.25 4.234375 
Q 6.78125 9.90625 6.78125 20.515625 
Q 6.78125 27.484375 10.78125 32.3125 
Q 14.796875 37.15625 21.921875 38.8125 
z
M 18.3125 54.390625 
Q 18.3125 48.734375 21.84375 45.5625 
Q 25.390625 42.390625 31.78125 42.390625 
Q 38.140625 42.390625 41.71875 45.5625 
Q 45.3125 48.734375 45.3125 54.390625 
Q 45.3125 60.0625 41.71875 63.234375 
Q 38.140625 66.40625 31.78125 66.40625 
Q 25.390625 66.40625 21.84375 63.234375 
Q 18.3125 60.0625 18.3125 54.390625 
z
" id="DejaVuSans-56"/>
      </defs>
      <g transform="translate(528.1542 507.29515)scale(0.2592 -0.2592)">
       <use xlink:href="#DejaVuSans-56"/>
      </g>
     </g>
    </g>
    <g id="xtick_6">
     <g id="line2d_6">
      <g>
       <use style="stroke:#000000;stroke-width:0.8;" x="648" xlink:href="#m3f04c23237" y="480.6"/>
      </g>
     </g>
     <g id="text_6">
      <!-- 10 -->
      <defs>
       <path d="M 12.40625 8.296875 
L 28.515625 8.296875 
L 28.515625 63.921875 
L 10.984375 60.40625 
L 10.984375 69.390625 
L 28.421875 72.90625 
L 38.28125 72.90625 
L 38.28125 8.296875 
L 54.390625 8.296875 
L 54.390625 0 
L 12.40625 0 
z
" id="DejaVuSans-49"/>
      </defs>
      <g transform="translate(631.5084 507.29515)scale(0.2592 -0.2592)">
       <use xlink:href="#DejaVuSans-49"/>
       <use x="63.623047" xlink:href="#DejaVuSans-48"/>
      </g>
     </g>
    </g>
    <g id="text_7">
     <!-- VertexSepW -->
     <defs>
      <path d="M 28.609375 0 
L 0.78125 72.90625 
L 11.078125 72.90625 
L 34.1875 11.53125 
L 57.328125 72.90625 
L 67.578125 72.90625 
L 39.796875 0 
z
" id="DejaVuSans-86"/>
      <path d="M 56.203125 29.59375 
L 56.203125 25.203125 
L 14.890625 25.203125 
Q 15.484375 15.921875 20.484375 11.0625 
Q 25.484375 6.203125 34.421875 6.203125 
Q 39.59375 6.203125 44.453125 7.46875 
Q 49.3125 8.734375 54.109375 11.28125 
L 54.109375 2.78125 
Q 49.265625 0.734375 44.1875 -0.34375 
Q 39.109375 -1.421875 33.890625 -1.421875 
Q 20.796875 -1.421875 13.15625 6.1875 
Q 5.515625 13.8125 5.515625 26.8125 
Q 5.515625 40.234375 12.765625 48.109375 
Q 20.015625 56 32.328125 56 
Q 43.359375 56 49.78125 48.890625 
Q 56.203125 41.796875 56.203125 29.59375 
z
M 47.21875 32.234375 
Q 47.125 39.59375 43.09375 43.984375 
Q 39.0625 48.390625 32.421875 48.390625 
Q 24.90625 48.390625 20.390625 44.140625 
Q 15.875 39.890625 15.1875 32.171875 
z
" id="DejaVuSans-101"/>
      <path d="M 41.109375 46.296875 
Q 39.59375 47.171875 37.8125 47.578125 
Q 36.03125 48 33.890625 48 
Q 26.265625 48 22.1875 43.046875 
Q 18.109375 38.09375 18.109375 28.8125 
L 18.109375 0 
L 9.078125 0 
L 9.078125 54.6875 
L 18.109375 54.6875 
L 18.109375 46.1875 
Q 20.953125 51.171875 25.484375 53.578125 
Q 30.03125 56 36.53125 56 
Q 37.453125 56 38.578125 55.875 
Q 39.703125 55.765625 41.0625 55.515625 
z
" id="DejaVuSans-114"/>
      <path d="M 18.3125 70.21875 
L 18.3125 54.6875 
L 36.8125 54.6875 
L 36.8125 47.703125 
L 18.3125 47.703125 
L 18.3125 18.015625 
Q 18.3125 11.328125 20.140625 9.421875 
Q 21.96875 7.515625 27.59375 7.515625 
L 36.8125 7.515625 
L 36.8125 0 
L 27.59375 0 
Q 17.1875 0 13.234375 3.875 
Q 9.28125 7.765625 9.28125 18.015625 
L 9.28125 47.703125 
L 2.6875 47.703125 
L 2.6875 54.6875 
L 9.28125 54.6875 
L 9.28125 70.21875 
z
" id="DejaVuSans-116"/>
      <path d="M 54.890625 54.6875 
L 35.109375 28.078125 
L 55.90625 0 
L 45.3125 0 
L 29.390625 21.484375 
L 13.484375 0 
L 2.875 0 
L 24.125 28.609375 
L 4.6875 54.6875 
L 15.28125 54.6875 
L 29.78125 35.203125 
L 44.28125 54.6875 
z
" id="DejaVuSans-120"/>
      <path d="M 53.515625 70.515625 
L 53.515625 60.890625 
Q 47.90625 63.578125 42.921875 64.890625 
Q 37.9375 66.21875 33.296875 66.21875 
Q 25.25 66.21875 20.875 63.09375 
Q 16.5 59.96875 16.5 54.203125 
Q 16.5 49.359375 19.40625 46.890625 
Q 22.3125 44.4375 30.421875 42.921875 
L 36.375 41.703125 
Q 47.40625 39.59375 52.65625 34.296875 
Q 57.90625 29 57.90625 20.125 
Q 57.90625 9.515625 50.796875 4.046875 
Q 43.703125 -1.421875 29.984375 -1.421875 
Q 24.8125 -1.421875 18.96875 -0.25 
Q 13.140625 0.921875 6.890625 3.21875 
L 6.890625 13.375 
Q 12.890625 10.015625 18.65625 8.296875 
Q 24.421875 6.59375 29.984375 6.59375 
Q 38.421875 6.59375 43.015625 9.90625 
Q 47.609375 13.234375 47.609375 19.390625 
Q 47.609375 24.75 44.3125 27.78125 
Q 41.015625 30.8125 33.5 32.328125 
L 27.484375 33.5 
Q 16.453125 35.6875 11.515625 40.375 
Q 6.59375 45.0625 6.59375 53.421875 
Q 6.59375 63.09375 13.40625 68.65625 
Q 20.21875 74.21875 32.171875 74.21875 
Q 37.3125 74.21875 42.625 73.28125 
Q 47.953125 72.359375 53.515625 70.515625 
z
" id="DejaVuSans-83"/>
      <path d="M 18.109375 8.203125 
L 18.109375 -20.796875 
L 9.078125 -20.796875 
L 9.078125 54.6875 
L 18.109375 54.6875 
L 18.109375 46.390625 
Q 20.953125 51.265625 25.265625 53.625 
Q 29.59375 56 35.59375 56 
Q 45.5625 56 51.78125 48.09375 
Q 58.015625 40.1875 58.015625 27.296875 
Q 58.015625 14.40625 51.78125 6.484375 
Q 45.5625 -1.421875 35.59375 -1.421875 
Q 29.59375 -1.421875 25.265625 0.953125 
Q 20.953125 3.328125 18.109375 8.203125 
z
M 48.6875 27.296875 
Q 48.6875 37.203125 44.609375 42.84375 
Q 40.53125 48.484375 33.40625 48.484375 
Q 26.265625 48.484375 22.1875 42.84375 
Q 18.109375 37.203125 18.109375 27.296875 
Q 18.109375 17.390625 22.1875 11.75 
Q 26.265625 6.109375 33.40625 6.109375 
Q 40.53125 6.109375 44.609375 11.75 
Q 48.6875 17.390625 48.6875 27.296875 
z
" id="DejaVuSans-112"/>
      <path d="M 3.328125 72.90625 
L 13.28125 72.90625 
L 28.609375 11.28125 
L 43.890625 72.90625 
L 54.984375 72.90625 
L 70.3125 11.28125 
L 85.59375 72.90625 
L 95.609375 72.90625 
L 77.296875 0 
L 64.890625 0 
L 49.515625 63.28125 
L 33.984375 0 
L 21.578125 0 
z
" id="DejaVuSans-87"/>
     </defs>
     <g transform="translate(288.87885 536.38085)scale(0.2592 -0.2592)">
      <use xlink:href="#DejaVuSans-86"/>
      <use x="68.298828" xlink:href="#DejaVuSans-101"/>
      <use x="129.822266" xlink:href="#DejaVuSans-114"/>
      <use x="170.935547" xlink:href="#DejaVuSans-116"/>
      <use x="210.144531" xlink:href="#DejaVuSans-101"/>
      <use x="271.652344" xlink:href="#DejaVuSans-120"/>
      <use x="330.832031" xlink:href="#DejaVuSans-83"/>
      <use x="394.308594" xlink:href="#DejaVuSans-101"/>
      <use x="455.832031" xlink:href="#DejaVuSans-112"/>
      <use x="519.308594" xlink:href="#DejaVuSans-87"/>
     </g>
    </g>
   </g>
   <g id="matplotlib.axis_2">
    <g id="ytick_1">
     <g id="line2d_7">
      <defs>
       <path d="M 0 0 
L -3.5 0 
" id="m43c9acbc0a" style="stroke:#000000;stroke-width:0.8;"/>
      </defs>
      <g>
       <use style="stroke:#000000;stroke-width:0.8;" x="90" xlink:href="#m43c9acbc0a" y="435.577026"/>
      </g>
     </g>
     <g id="text_8">
      <!-- $\mathdefault{10^{-4}}$ -->
      <defs>
       <path d="M 10.59375 35.5 
L 73.1875 35.5 
L 73.1875 27.203125 
L 10.59375 27.203125 
z
" id="DejaVuSans-8722"/>
      </defs>
      <g transform="translate(22.088 445.424601)scale(0.2592 -0.2592)">
       <use transform="translate(0 0.684375)" xlink:href="#DejaVuSans-49"/>
       <use transform="translate(63.623047 0.684375)" xlink:href="#DejaVuSans-48"/>
       <use transform="translate(128.203125 38.965625)scale(0.7)" xlink:href="#DejaVuSans-8722"/>
       <use transform="translate(186.855469 38.965625)scale(0.7)" xlink:href="#DejaVuSans-52"/>
      </g>
     </g>
    </g>
    <g id="ytick_2">
     <g id="line2d_8">
      <g>
       <use style="stroke:#000000;stroke-width:0.8;" x="90" xlink:href="#m43c9acbc0a" y="313.791287"/>
      </g>
     </g>
     <g id="text_9">
      <!-- $\mathdefault{10^{-3}}$ -->
      <defs>
       <path d="M 40.578125 39.3125 
Q 47.65625 37.796875 51.625 33 
Q 55.609375 28.21875 55.609375 21.1875 
Q 55.609375 10.40625 48.1875 4.484375 
Q 40.765625 -1.421875 27.09375 -1.421875 
Q 22.515625 -1.421875 17.65625 -0.515625 
Q 12.796875 0.390625 7.625 2.203125 
L 7.625 11.71875 
Q 11.71875 9.328125 16.59375 8.109375 
Q 21.484375 6.890625 26.8125 6.890625 
Q 36.078125 6.890625 40.9375 10.546875 
Q 45.796875 14.203125 45.796875 21.1875 
Q 45.796875 27.640625 41.28125 31.265625 
Q 36.765625 34.90625 28.71875 34.90625 
L 20.21875 34.90625 
L 20.21875 43.015625 
L 29.109375 43.015625 
Q 36.375 43.015625 40.234375 45.921875 
Q 44.09375 48.828125 44.09375 54.296875 
Q 44.09375 59.90625 40.109375 62.90625 
Q 36.140625 65.921875 28.71875 65.921875 
Q 24.65625 65.921875 20.015625 65.03125 
Q 15.375 64.15625 9.8125 62.3125 
L 9.8125 71.09375 
Q 15.4375 72.65625 20.34375 73.4375 
Q 25.25 74.21875 29.59375 74.21875 
Q 40.828125 74.21875 47.359375 69.109375 
Q 53.90625 64.015625 53.90625 55.328125 
Q 53.90625 49.265625 50.4375 45.09375 
Q 46.96875 40.921875 40.578125 39.3125 
z
" id="DejaVuSans-51"/>
      </defs>
      <g transform="translate(22.088 323.638862)scale(0.2592 -0.2592)">
       <use transform="translate(0 0.765625)" xlink:href="#DejaVuSans-49"/>
       <use transform="translate(63.623047 0.765625)" xlink:href="#DejaVuSans-48"/>
       <use transform="translate(128.203125 39.046875)scale(0.7)" xlink:href="#DejaVuSans-8722"/>
       <use transform="translate(186.855469 39.046875)scale(0.7)" xlink:href="#DejaVuSans-51"/>
      </g>
     </g>
    </g>
    <g id="ytick_3">
     <g id="line2d_9">
      <g>
       <use style="stroke:#000000;stroke-width:0.8;" x="90" xlink:href="#m43c9acbc0a" y="192.005548"/>
      </g>
     </g>
     <g id="text_10">
      <!-- $\mathdefault{10^{-2}}$ -->
      <g transform="translate(22.088 201.853123)scale(0.2592 -0.2592)">
       <use transform="translate(0 0.765625)" xlink:href="#DejaVuSans-49"/>
       <use transform="translate(63.623047 0.765625)" xlink:href="#DejaVuSans-48"/>
       <use transform="translate(128.203125 39.046875)scale(0.7)" xlink:href="#DejaVuSans-8722"/>
       <use transform="translate(186.855469 39.046875)scale(0.7)" xlink:href="#DejaVuSans-50"/>
      </g>
     </g>
    </g>
    <g id="ytick_4">
     <g id="line2d_10">
      <g>
       <use style="stroke:#000000;stroke-width:0.8;" x="90" xlink:href="#m43c9acbc0a" y="70.21981"/>
      </g>
     </g>
     <g id="text_11">
      <!-- $\mathdefault{10^{-1}}$ -->
      <g transform="translate(22.088 80.067385)scale(0.2592 -0.2592)">
       <use transform="translate(0 0.684375)" xlink:href="#DejaVuSans-49"/>
       <use transform="translate(63.623047 0.684375)" xlink:href="#DejaVuSans-48"/>
       <use transform="translate(128.203125 38.965625)scale(0.7)" xlink:href="#DejaVuSans-8722"/>
       <use transform="translate(186.855469 38.965625)scale(0.7)" xlink:href="#DejaVuSans-49"/>
      </g>
     </g>
    </g>
    <g id="ytick_5">
     <g id="line2d_11">
      <defs>
       <path d="M 0 0 
L -2 0 
" id="mfa3944076e" style="stroke:#000000;stroke-width:0.6;"/>
      </defs>
      <g>
       <use style="stroke:#000000;stroke-width:0.6;" x="90" xlink:href="#mfa3944076e" y="472.238186"/>
      </g>
     </g>
    </g>
    <g id="ytick_6">
     <g id="line2d_12">
      <g>
       <use style="stroke:#000000;stroke-width:0.6;" x="90" xlink:href="#mfa3944076e" y="462.595039"/>
      </g>
     </g>
    </g>
    <g id="ytick_7">
     <g id="line2d_13">
      <g>
       <use style="stroke:#000000;stroke-width:0.6;" x="90" xlink:href="#mfa3944076e" y="454.441875"/>
      </g>
     </g>
    </g>
    <g id="ytick_8">
     <g id="line2d_14">
      <g>
       <use style="stroke:#000000;stroke-width:0.6;" x="90" xlink:href="#mfa3944076e" y="447.379283"/>
      </g>
     </g>
    </g>
    <g id="ytick_9">
     <g id="line2d_15">
      <g>
       <use style="stroke:#000000;stroke-width:0.6;" x="90" xlink:href="#mfa3944076e" y="441.149635"/>
      </g>
     </g>
    </g>
    <g id="ytick_10">
     <g id="line2d_16">
      <g>
       <use style="stroke:#000000;stroke-width:0.6;" x="90" xlink:href="#mfa3944076e" y="398.915865"/>
      </g>
     </g>
    </g>
    <g id="ytick_11">
     <g id="line2d_17">
      <g>
       <use style="stroke:#000000;stroke-width:0.6;" x="90" xlink:href="#mfa3944076e" y="377.470461"/>
      </g>
     </g>
    </g>
    <g id="ytick_12">
     <g id="line2d_18">
      <g>
       <use style="stroke:#000000;stroke-width:0.6;" x="90" xlink:href="#mfa3944076e" y="362.254705"/>
      </g>
     </g>
    </g>
    <g id="ytick_13">
     <g id="line2d_19">
      <g>
       <use style="stroke:#000000;stroke-width:0.6;" x="90" xlink:href="#mfa3944076e" y="350.452447"/>
      </g>
     </g>
    </g>
    <g id="ytick_14">
     <g id="line2d_20">
      <g>
       <use style="stroke:#000000;stroke-width:0.6;" x="90" xlink:href="#mfa3944076e" y="340.809301"/>
      </g>
     </g>
    </g>
    <g id="ytick_15">
     <g id="line2d_21">
      <g>
       <use style="stroke:#000000;stroke-width:0.6;" x="90" xlink:href="#mfa3944076e" y="332.656137"/>
      </g>
     </g>
    </g>
    <g id="ytick_16">
     <g id="line2d_22">
      <g>
       <use style="stroke:#000000;stroke-width:0.6;" x="90" xlink:href="#mfa3944076e" y="325.593545"/>
      </g>
     </g>
    </g>
    <g id="ytick_17">
     <g id="line2d_23">
      <g>
       <use style="stroke:#000000;stroke-width:0.6;" x="90" xlink:href="#mfa3944076e" y="319.363897"/>
      </g>
     </g>
    </g>
    <g id="ytick_18">
     <g id="line2d_24">
      <g>
       <use style="stroke:#000000;stroke-width:0.6;" x="90" xlink:href="#mfa3944076e" y="277.130127"/>
      </g>
     </g>
    </g>
    <g id="ytick_19">
     <g id="line2d_25">
      <g>
       <use style="stroke:#000000;stroke-width:0.6;" x="90" xlink:href="#mfa3944076e" y="255.684723"/>
      </g>
     </g>
    </g>
    <g id="ytick_20">
     <g id="line2d_26">
      <g>
       <use style="stroke:#000000;stroke-width:0.6;" x="90" xlink:href="#mfa3944076e" y="240.468966"/>
      </g>
     </g>
    </g>
    <g id="ytick_21">
     <g id="line2d_27">
      <g>
       <use style="stroke:#000000;stroke-width:0.6;" x="90" xlink:href="#mfa3944076e" y="228.666709"/>
      </g>
     </g>
    </g>
    <g id="ytick_22">
     <g id="line2d_28">
      <g>
       <use style="stroke:#000000;stroke-width:0.6;" x="90" xlink:href="#mfa3944076e" y="219.023562"/>
      </g>
     </g>
    </g>
    <g id="ytick_23">
     <g id="line2d_29">
      <g>
       <use style="stroke:#000000;stroke-width:0.6;" x="90" xlink:href="#mfa3944076e" y="210.870398"/>
      </g>
     </g>
    </g>
    <g id="ytick_24">
     <g id="line2d_30">
      <g>
       <use style="stroke:#000000;stroke-width:0.6;" x="90" xlink:href="#mfa3944076e" y="203.807806"/>
      </g>
     </g>
    </g>
    <g id="ytick_25">
     <g id="line2d_31">
      <g>
       <use style="stroke:#000000;stroke-width:0.6;" x="90" xlink:href="#mfa3944076e" y="197.578158"/>
      </g>
     </g>
    </g>
    <g id="ytick_26">
     <g id="line2d_32">
      <g>
       <use style="stroke:#000000;stroke-width:0.6;" x="90" xlink:href="#mfa3944076e" y="155.344388"/>
      </g>
     </g>
    </g>
    <g id="ytick_27">
     <g id="line2d_33">
      <g>
       <use style="stroke:#000000;stroke-width:0.6;" x="90" xlink:href="#mfa3944076e" y="133.898984"/>
      </g>
     </g>
    </g>
    <g id="ytick_28">
     <g id="line2d_34">
      <g>
       <use style="stroke:#000000;stroke-width:0.6;" x="90" xlink:href="#mfa3944076e" y="118.683228"/>
      </g>
     </g>
    </g>
    <g id="ytick_29">
     <g id="line2d_35">
      <g>
       <use style="stroke:#000000;stroke-width:0.6;" x="90" xlink:href="#mfa3944076e" y="106.88097"/>
      </g>
     </g>
    </g>
    <g id="ytick_30">
     <g id="line2d_36">
      <g>
       <use style="stroke:#000000;stroke-width:0.6;" x="90" xlink:href="#mfa3944076e" y="97.237824"/>
      </g>
     </g>
    </g>
    <g id="ytick_31">
     <g id="line2d_37">
      <g>
       <use style="stroke:#000000;stroke-width:0.6;" x="90" xlink:href="#mfa3944076e" y="89.084659"/>
      </g>
     </g>
    </g>
    <g id="ytick_32">
     <g id="line2d_38">
      <g>
       <use style="stroke:#000000;stroke-width:0.6;" x="90" xlink:href="#mfa3944076e" y="82.022067"/>
      </g>
     </g>
    </g>
    <g id="ytick_33">
     <g id="line2d_39">
      <g>
       <use style="stroke:#000000;stroke-width:0.6;" x="90" xlink:href="#mfa3944076e" y="75.79242"/>
      </g>
     </g>
    </g>
    <g id="text_12">
     <!-- Probability -->
     <defs>
      <path d="M 19.671875 64.796875 
L 19.671875 37.40625 
L 32.078125 37.40625 
Q 38.96875 37.40625 42.71875 40.96875 
Q 46.484375 44.53125 46.484375 51.125 
Q 46.484375 57.671875 42.71875 61.234375 
Q 38.96875 64.796875 32.078125 64.796875 
z
M 9.8125 72.90625 
L 32.078125 72.90625 
Q 44.34375 72.90625 50.609375 67.359375 
Q 56.890625 61.8125 56.890625 51.125 
Q 56.890625 40.328125 50.609375 34.8125 
Q 44.34375 29.296875 32.078125 29.296875 
L 19.671875 29.296875 
L 19.671875 0 
L 9.8125 0 
z
" id="DejaVuSans-80"/>
      <path d="M 30.609375 48.390625 
Q 23.390625 48.390625 19.1875 42.75 
Q 14.984375 37.109375 14.984375 27.296875 
Q 14.984375 17.484375 19.15625 11.84375 
Q 23.34375 6.203125 30.609375 6.203125 
Q 37.796875 6.203125 41.984375 11.859375 
Q 46.1875 17.53125 46.1875 27.296875 
Q 46.1875 37.015625 41.984375 42.703125 
Q 37.796875 48.390625 30.609375 48.390625 
z
M 30.609375 56 
Q 42.328125 56 49.015625 48.375 
Q 55.71875 40.765625 55.71875 27.296875 
Q 55.71875 13.875 49.015625 6.21875 
Q 42.328125 -1.421875 30.609375 -1.421875 
Q 18.84375 -1.421875 12.171875 6.21875 
Q 5.515625 13.875 5.515625 27.296875 
Q 5.515625 40.765625 12.171875 48.375 
Q 18.84375 56 30.609375 56 
z
" id="DejaVuSans-111"/>
      <path d="M 48.6875 27.296875 
Q 48.6875 37.203125 44.609375 42.84375 
Q 40.53125 48.484375 33.40625 48.484375 
Q 26.265625 48.484375 22.1875 42.84375 
Q 18.109375 37.203125 18.109375 27.296875 
Q 18.109375 17.390625 22.1875 11.75 
Q 26.265625 6.109375 33.40625 6.109375 
Q 40.53125 6.109375 44.609375 11.75 
Q 48.6875 17.390625 48.6875 27.296875 
z
M 18.109375 46.390625 
Q 20.953125 51.265625 25.265625 53.625 
Q 29.59375 56 35.59375 56 
Q 45.5625 56 51.78125 48.09375 
Q 58.015625 40.1875 58.015625 27.296875 
Q 58.015625 14.40625 51.78125 6.484375 
Q 45.5625 -1.421875 35.59375 -1.421875 
Q 29.59375 -1.421875 25.265625 0.953125 
Q 20.953125 3.328125 18.109375 8.203125 
L 18.109375 0 
L 9.078125 0 
L 9.078125 75.984375 
L 18.109375 75.984375 
z
" id="DejaVuSans-98"/>
      <path d="M 34.28125 27.484375 
Q 23.390625 27.484375 19.1875 25 
Q 14.984375 22.515625 14.984375 16.5 
Q 14.984375 11.71875 18.140625 8.90625 
Q 21.296875 6.109375 26.703125 6.109375 
Q 34.1875 6.109375 38.703125 11.40625 
Q 43.21875 16.703125 43.21875 25.484375 
L 43.21875 27.484375 
z
M 52.203125 31.203125 
L 52.203125 0 
L 43.21875 0 
L 43.21875 8.296875 
Q 40.140625 3.328125 35.546875 0.953125 
Q 30.953125 -1.421875 24.3125 -1.421875 
Q 15.921875 -1.421875 10.953125 3.296875 
Q 6 8.015625 6 15.921875 
Q 6 25.140625 12.171875 29.828125 
Q 18.359375 34.515625 30.609375 34.515625 
L 43.21875 34.515625 
L 43.21875 35.40625 
Q 43.21875 41.609375 39.140625 45 
Q 35.0625 48.390625 27.6875 48.390625 
Q 23 48.390625 18.546875 47.265625 
Q 14.109375 46.140625 10.015625 43.890625 
L 10.015625 52.203125 
Q 14.9375 54.109375 19.578125 55.046875 
Q 24.21875 56 28.609375 56 
Q 40.484375 56 46.34375 49.84375 
Q 52.203125 43.703125 52.203125 31.203125 
z
" id="DejaVuSans-97"/>
      <path d="M 9.421875 54.6875 
L 18.40625 54.6875 
L 18.40625 0 
L 9.421875 0 
z
M 9.421875 75.984375 
L 18.40625 75.984375 
L 18.40625 64.59375 
L 9.421875 64.59375 
z
" id="DejaVuSans-105"/>
      <path d="M 9.421875 75.984375 
L 18.40625 75.984375 
L 18.40625 0 
L 9.421875 0 
z
" id="DejaVuSans-108"/>
      <path d="M 32.171875 -5.078125 
Q 28.375 -14.84375 24.75 -17.8125 
Q 21.140625 -20.796875 15.09375 -20.796875 
L 7.90625 -20.796875 
L 7.90625 -13.28125 
L 13.1875 -13.28125 
Q 16.890625 -13.28125 18.9375 -11.515625 
Q 21 -9.765625 23.484375 -3.21875 
L 25.09375 0.875 
L 2.984375 54.6875 
L 12.5 54.6875 
L 29.59375 11.921875 
L 46.6875 54.6875 
L 56.203125 54.6875 
z
" id="DejaVuSans-121"/>
     </defs>
     <g transform="translate(12.69745 341.71605)rotate(-90)scale(0.2592 -0.2592)">
      <use xlink:href="#DejaVuSans-80"/>
      <use x="60.287109" xlink:href="#DejaVuSans-114"/>
      <use x="101.369141" xlink:href="#DejaVuSans-111"/>
      <use x="162.550781" xlink:href="#DejaVuSans-98"/>
      <use x="226.027344" xlink:href="#DejaVuSans-97"/>
      <use x="287.306641" xlink:href="#DejaVuSans-98"/>
      <use x="350.783203" xlink:href="#DejaVuSans-105"/>
      <use x="378.566406" xlink:href="#DejaVuSans-108"/>
      <use x="406.349609" xlink:href="#DejaVuSans-105"/>
      <use x="434.132812" xlink:href="#DejaVuSans-116"/>
      <use x="473.341797" xlink:href="#DejaVuSans-121"/>
     </g>
    </g>
   </g>
   <g id="line2d_40">
    <path clip-path="url(#pac79943fde)" d="M 90 84.737109 
L 101.387755 84.737109 
L 101.387755 83.7 
L 112.77551 83.7 
L 112.77551 93.240545 
L 124.163265 93.240545 
L 124.163265 108.047876 
L 135.55102 108.047876 
L 135.55102 113.170348 
L 146.938776 113.170348 
L 146.938776 137.850263 
L 158.326531 137.850263 
L 158.326531 127.497161 
L 169.714286 127.497161 
L 169.714286 147.208283 
L 181.102041 147.208283 
L 181.102041 142.322577 
L 192.489796 142.322577 
L 192.489796 158.585712 
L 203.877551 158.585712 
L 203.877551 173.100916 
L 215.265306 173.100916 
L 215.265306 173.100916 
L 226.653061 173.100916 
L 226.653061 197.405983 
L 238.040816 197.405983 
L 238.040816 185.603725 
L 249.428571 185.603725 
L 249.428571 167.807415 
L 260.816327 167.807415 
L 260.816327 197.405983 
L 272.204082 197.405983 
L 272.204082 193.172454 
L 283.591837 193.172454 
L 283.591837 185.603725 
L 294.979592 185.603725 
L 294.979592 202.008091 
L 306.367347 202.008091 
L 306.367347 212.621739 
L 317.755102 212.621739 
L 317.755102 212.621739 
L 329.142857 212.621739 
L 329.142857 189.252819 
L 340.530612 189.252819 
L 340.530612 189.252819 
L 351.918367 189.252819 
L 351.918367 218.851387 
L 363.306122 218.851387 
L 363.306122 255.512547 
L 374.693878 255.512547 
L 374.693878 189.252819 
L 386.081633 189.252819 
L 386.081633 212.621739 
L 397.469388 212.621739 
L 397.469388 218.851387 
L 408.857143 218.851387 
L 408.857143 243.71029 
L 420.244898 243.71029 
L 420.244898 225.913979 
L 431.632653 225.913979 
L 431.632653 243.71029 
L 443.020408 243.71029 
L 443.020408 225.913979 
L 454.408163 225.913979 
L 454.408163 270.728304 
L 465.795918 270.728304 
L 465.795918 234.067143 
L 477.183673 234.067143 
L 477.183673 225.913979 
L 488.571429 225.913979 
L 488.571429 255.512547 
L 499.959184 255.512547 
L 499.959184 202.008091 
L 511.346939 202.008091 
L 511.346939 292.173708 
L 522.734694 292.173708 
L 522.734694 255.512547 
L 534.122449 255.512547 
L 534.122449 243.71029 
L 545.510204 243.71029 
L 545.510204 212.621739 
L 556.897959 212.621739 
L 556.897959 255.512547 
L 568.285714 255.512547 
L 568.285714 270.728304 
L 579.673469 270.728304 
L 579.673469 234.067143 
L 591.061224 234.067143 
L 591.061224 234.067143 
L 602.44898 234.067143 
L 602.44898 270.728304 
L 613.836735 270.728304 
L 613.836735 292.173708 
L 625.22449 292.173708 
L 625.22449 243.71029 
L 636.612245 243.71029 
L 636.612245 218.851387 
L 648 218.851387 
" style="fill:none;stroke:#1f77b4;stroke-linecap:square;stroke-width:1.5;"/>
   </g>
   <g id="line2d_41">
    <path clip-path="url(#pac79943fde)" d="M 90 122.99309 
L 101.387755 122.99309 
L 101.387755 131.146254 
L 112.77551 131.146254 
L 112.77551 148.942565 
L 124.163265 148.942565 
L 124.163265 167.807415 
L 135.55102 167.807415 
L 135.55102 175.960579 
L 146.938776 175.960579 
L 146.938776 218.851387 
L 158.326531 218.851387 
L 158.326531 202.008091 
L 169.714286 202.008091 
L 169.714286 212.621739 
L 181.102041 212.621739 
L 181.102041 234.067143 
L 192.489796 234.067143 
L 192.489796 243.71029 
L 203.877551 243.71029 
L 203.877551 234.067143 
L 215.265306 234.067143 
L 215.265306 243.71029 
L 226.653061 243.71029 
L 226.653061 292.173708 
L 238.040816 292.173708 
L 238.040816 292.173708 
L 249.428571 292.173708 
L 249.428571 328.834868 
L 260.816327 328.834868 
L 260.816327 292.173708 
L 272.204082 292.173708 
L 272.204082 328.834868 
L 283.591837 328.834868 
L 283.591837 270.728304 
L 294.979592 270.728304 
L 294.979592 292.173708 
L 306.367347 292.173708 
L 306.367347 292.173708 
L 317.755102 292.173708 
L 317.755102 292.173708 
L 329.142857 292.173708 
L 329.142857 541 
M 340.530612 541 
L 340.530612 270.728304 
L 351.918367 270.728304 
L 351.918367 541 
M 374.693878 541 
L 374.693878 255.512547 
L 386.081633 255.512547 
L 386.081633 328.834868 
L 397.469388 328.834868 
L 397.469388 328.834868 
L 408.857143 328.834868 
L 408.857143 541 
M 420.244898 541 
L 420.244898 328.834868 
L 431.632653 328.834868 
L 431.632653 541 
M 454.408163 541 
L 454.408163 328.834868 
L 465.795918 328.834868 
L 465.795918 270.728304 
L 477.183673 270.728304 
L 477.183673 328.834868 
L 488.571429 328.834868 
L 488.571429 328.834868 
L 499.959184 328.834868 
L 499.959184 328.834868 
L 511.346939 328.834868 
L 511.346939 541 
M 522.734694 541 
L 522.734694 328.834868 
L 534.122449 328.834868 
L 534.122449 328.834868 
L 545.510204 328.834868 
L 545.510204 292.173708 
L 556.897959 292.173708 
L 556.897959 541 
M 579.673469 541 
L 579.673469 292.173708 
L 591.061224 292.173708 
L 591.061224 541 
M 625.22449 541 
L 625.22449 328.834868 
L 636.612245 328.834868 
L 636.612245 328.834868 
L 648 328.834868 
" style="fill:none;stroke:#ff7f0e;stroke-linecap:square;stroke-width:1.5;"/>
   </g>
   <g id="line2d_42">
    <path clip-path="url(#pac79943fde)" d="M 90 119.850133 
L 101.387755 119.850133 
L 101.387755 111.407155 
L 112.77551 111.407155 
L 112.77551 115.930498 
L 124.163265 115.930498 
L 124.163265 128.68577 
L 135.55102 128.68577 
L 135.55102 132.420795 
L 146.938776 132.420795 
L 146.938776 150.735648 
L 158.326531 150.735648 
L 158.326531 142.322577 
L 169.714286 142.322577 
L 169.714286 165.34693 
L 181.102041 165.34693 
L 181.102041 152.591658 
L 192.489796 152.591658 
L 192.489796 170.387969 
L 203.877551 170.387969 
L 203.877551 193.172454 
L 215.265306 193.172454 
L 215.265306 189.252819 
L 226.653061 189.252819 
L 226.653061 207.049129 
L 238.040816 207.049129 
L 238.040816 193.172454 
L 249.428571 193.172454 
L 249.428571 170.387969 
L 260.816327 170.387969 
L 260.816327 207.049129 
L 272.204082 207.049129 
L 272.204082 197.405983 
L 283.591837 197.405983 
L 283.591837 197.405983 
L 294.979592 197.405983 
L 294.979592 212.621739 
L 306.367347 212.621739 
L 306.367347 225.913979 
L 317.755102 225.913979 
L 317.755102 225.913979 
L 329.142857 225.913979 
L 329.142857 189.252819 
L 340.530612 189.252819 
L 340.530612 202.008091 
L 351.918367 202.008091 
L 351.918367 218.851387 
L 363.306122 218.851387 
L 363.306122 255.512547 
L 374.693878 255.512547 
L 374.693878 207.049129 
L 386.081633 207.049129 
L 386.081633 218.851387 
L 397.469388 218.851387 
L 397.469388 225.913979 
L 408.857143 225.913979 
L 408.857143 243.71029 
L 420.244898 243.71029 
L 420.244898 234.067143 
L 431.632653 234.067143 
L 431.632653 243.71029 
L 443.020408 243.71029 
L 443.020408 225.913979 
L 454.408163 225.913979 
L 454.408163 292.173708 
L 465.795918 292.173708 
L 465.795918 270.728304 
L 477.183673 270.728304 
L 477.183673 234.067143 
L 488.571429 234.067143 
L 488.571429 270.728304 
L 499.959184 270.728304 
L 499.959184 207.049129 
L 511.346939 207.049129 
L 511.346939 292.173708 
L 522.734694 292.173708 
L 522.734694 270.728304 
L 534.122449 270.728304 
L 534.122449 255.512547 
L 545.510204 255.512547 
L 545.510204 225.913979 
L 556.897959 225.913979 
L 556.897959 255.512547 
L 568.285714 255.512547 
L 568.285714 270.728304 
L 579.673469 270.728304 
L 579.673469 255.512547 
L 591.061224 255.512547 
L 591.061224 234.067143 
L 602.44898 234.067143 
L 602.44898 270.728304 
L 613.836735 270.728304 
L 613.836735 292.173708 
L 625.22449 292.173708 
L 625.22449 255.512547 
L 636.612245 255.512547 
L 636.612245 225.913979 
L 648 225.913979 
" style="fill:none;stroke:#2ca02c;stroke-linecap:square;stroke-width:1.5;"/>
   </g>
   <g id="line2d_43">
    <path clip-path="url(#pac79943fde)" d="M 90 123.097003 
L 101.387755 123.097003 
L 101.387755 140.735665 
L 112.77551 140.735665 
L 112.77551 158.458568 
L 124.163265 158.458568 
L 124.163265 173.845769 
L 135.55102 173.845769 
L 135.55102 179.392945 
L 146.938776 179.392945 
L 146.938776 185.590817 
L 158.326531 185.590817 
L 158.326531 183.351715 
L 169.714286 183.351715 
L 169.714286 197.393074 
L 181.102041 197.393074 
L 181.102041 195.982567 
L 192.489796 195.982567 
L 192.489796 189.752919 
L 203.877551 189.752919 
L 203.877551 206.326265 
L 215.265306 206.326265 
L 215.265306 200.332212 
L 226.653061 200.332212 
L 226.653061 193.934923 
L 238.040816 193.934923 
L 238.040816 198.84223 
L 249.428571 198.84223 
L 249.428571 204.251848 
L 260.816327 204.251848 
L 260.816327 208.485376 
L 272.204082 208.485376 
L 272.204082 203.846551 
L 283.591837 203.846551 
L 283.591837 201.093245 
L 294.979592 201.093245 
L 294.979592 202.648971 
L 306.367347 202.648971 
L 306.367347 204.251848 
L 317.755102 204.251848 
L 317.755102 203.846551 
L 329.142857 203.846551 
L 329.142857 205.071877 
L 340.530612 205.071877 
L 340.530612 208.046445 
L 351.918367 208.046445 
L 351.918367 206.751094 
L 363.306122 206.751094 
L 363.306122 215.046629 
L 374.693878 215.046629 
L 374.693878 217.081145 
L 386.081633 217.081145 
L 386.081633 218.660094 
L 397.469388 218.660094 
L 397.469388 213.570509 
L 408.857143 213.570509 
L 408.857143 213.087484 
L 420.244898 213.087484 
L 420.244898 214.057986 
L 431.632653 214.057986 
L 431.632653 203.444338 
L 443.020408 203.444338 
L 443.020408 210.736392 
L 454.408163 210.736392 
L 454.408163 214.057986 
L 465.795918 214.057986 
L 465.795918 208.485376 
L 477.183673 208.485376 
L 477.183673 228.624766 
L 488.571429 228.624766 
L 488.571429 211.198323 
L 499.959184 211.198323 
L 499.959184 212.60883 
L 511.346939 212.60883 
L 511.346939 220.287634 
L 522.734694 220.287634 
L 522.734694 215.547968 
L 534.122449 215.547968 
L 534.122449 221.401167 
L 545.510204 221.401167 
L 545.510204 232.643728 
L 556.897959 232.643728 
L 556.897959 222.538649 
L 568.285714 222.538649 
L 568.285714 220.84147 
L 579.673469 220.84147 
L 579.673469 226.105677 
L 591.061224 226.105677 
L 591.061224 221.401167 
L 602.44898 221.401167 
L 602.44898 227.350226 
L 613.836735 227.350226 
L 613.836735 218.128523 
L 625.22449 218.128523 
L 625.22449 219.739537 
L 636.612245 219.739537 
L 636.612245 226.724291 
L 648 226.724291 
" style="fill:none;stroke:#d62728;stroke-linecap:square;stroke-width:1.5;"/>
   </g>
   <g id="line2d_44">
    <path clip-path="url(#pac79943fde)" d="M 90 403.593436 
L 101.387755 403.593436 
L 101.387755 376.575422 
L 112.77551 376.575422 
L 112.77551 425.03884 
L 124.163265 425.03884 
L 124.163265 403.593436 
L 135.55102 403.593436 
L 135.55102 403.593436 
L 146.938776 403.593436 
L 146.938776 461.7 
L 158.326531 461.7 
L 158.326531 425.03884 
L 169.714286 425.03884 
L 169.714286 461.7 
L 181.102041 461.7 
L 181.102041 403.593436 
L 192.489796 403.593436 
L 192.489796 461.7 
L 203.877551 461.7 
L 203.877551 541 
M 226.653061 541 
L 226.653061 425.03884 
L 238.040816 425.03884 
L 238.040816 425.03884 
L 249.428571 425.03884 
L 249.428571 461.7 
L 260.816327 461.7 
L 260.816327 461.7 
L 272.204082 461.7 
L 272.204082 541 
M 283.591837 541 
L 283.591837 425.03884 
L 294.979592 425.03884 
L 294.979592 461.7 
L 306.367347 461.7 
L 306.367347 541 
M 317.755102 541 
L 317.755102 388.377679 
L 329.142857 388.377679 
L 329.142857 425.03884 
L 340.530612 425.03884 
L 340.530612 461.7 
L 351.918367 461.7 
L 351.918367 541 
M 363.306122 541 
L 363.306122 461.7 
L 374.693878 461.7 
L 374.693878 541 
M 386.081633 541 
L 386.081633 461.7 
L 397.469388 461.7 
L 397.469388 541 
M 408.857143 541 
L 408.857143 461.7 
L 420.244898 461.7 
L 420.244898 461.7 
L 431.632653 461.7 
L 431.632653 425.03884 
L 443.020408 425.03884 
L 443.020408 541 
M 454.408163 541 
L 454.408163 425.03884 
L 465.795918 425.03884 
L 465.795918 425.03884 
L 477.183673 425.03884 
L 477.183673 541 
M 488.571429 541 
L 488.571429 425.03884 
L 499.959184 425.03884 
L 499.959184 403.593436 
L 511.346939 403.593436 
L 511.346939 425.03884 
L 522.734694 425.03884 
L 522.734694 403.593436 
L 534.122449 403.593436 
L 534.122449 541 
M 545.510204 541 
L 545.510204 403.593436 
L 556.897959 403.593436 
L 556.897959 461.7 
L 568.285714 461.7 
L 568.285714 425.03884 
L 579.673469 425.03884 
L 579.673469 425.03884 
L 591.061224 425.03884 
L 591.061224 425.03884 
L 602.44898 425.03884 
L 602.44898 541 
M 613.836735 541 
L 613.836735 461.7 
L 625.22449 461.7 
L 625.22449 541 
M 636.612245 541 
L 636.612245 461.7 
L 648 461.7 
" style="fill:none;stroke:#9467bd;stroke-linecap:square;stroke-width:1.5;"/>
   </g>
   <g id="line2d_45">
    <path clip-path="url(#pac79943fde)" d="M 90 123.360798 
L 101.387755 123.360798 
L 101.387755 141.351398 
L 112.77551 141.351398 
L 112.77551 158.802016 
L 124.163265 158.802016 
L 124.163265 174.537163 
L 135.55102 174.537163 
L 135.55102 180.161349 
L 146.938776 180.161349 
L 146.938776 185.877489 
L 158.326531 185.877489 
L 158.326531 183.902667 
L 169.714286 183.902667 
L 169.714286 197.751658 
L 181.102041 197.751658 
L 181.102041 197.036905 
L 192.489796 197.036905 
L 192.489796 190.063131 
L 203.877551 190.063131 
L 203.877551 206.326265 
L 215.265306 206.326265 
L 215.265306 200.332212 
L 226.653061 200.332212 
L 226.653061 194.608701 
L 238.040816 194.608701 
L 238.040816 199.581974 
L 249.428571 199.581974 
L 249.428571 204.660273 
L 260.816327 204.660273 
L 260.816327 208.92798 
L 272.204082 208.92798 
L 272.204082 203.846551 
L 283.591837 203.846551 
L 283.591837 201.865388 
L 294.979592 201.865388 
L 294.979592 203.045159 
L 306.367347 203.045159 
L 306.367347 204.251848 
L 317.755102 204.251848 
L 317.755102 205.48671 
L 329.142857 205.48671 
L 329.142857 205.904822 
L 340.530612 205.904822 
L 340.530612 208.485376 
L 351.918367 208.485376 
L 351.918367 206.751094 
L 363.306122 206.751094 
L 363.306122 215.547968 
L 374.693878 215.547968 
L 374.693878 217.081145 
L 386.081633 217.081145 
L 386.081633 219.197062 
L 397.469388 219.197062 
L 397.469388 213.570509 
L 408.857143 213.570509 
L 408.857143 213.570509 
L 420.244898 213.570509 
L 420.244898 214.549998 
L 431.632653 214.549998 
L 431.632653 204.251848 
L 443.020408 204.251848 
L 443.020408 210.736392 
L 454.408163 210.736392 
L 454.408163 215.046629 
L 465.795918 215.046629 
L 465.795918 209.374319 
L 477.183673 209.374319 
L 477.183673 228.624766 
L 488.571429 228.624766 
L 488.571429 212.13447 
L 499.959184 212.13447 
L 499.959184 214.057986 
L 511.346939 214.057986 
L 511.346939 221.401167 
L 522.734694 221.401167 
L 522.734694 217.081145 
L 534.122449 217.081145 
L 534.122449 221.401167 
L 545.510204 221.401167 
L 545.510204 234.773849 
L 556.897959 234.773849 
L 556.897959 223.116697 
L 568.285714 223.116697 
L 568.285714 221.96685 
L 579.673469 221.96685 
L 579.673469 227.350226 
L 591.061224 227.350226 
L 591.061224 222.538649 
L 602.44898 222.538649 
L 602.44898 227.350226 
L 613.836735 227.350226 
L 613.836735 218.660094 
L 625.22449 218.660094 
L 625.22449 219.739537 
L 636.612245 219.739537 
L 636.612245 227.350226 
L 648 227.350226 
" style="fill:none;stroke:#8c564b;stroke-linecap:square;stroke-width:1.5;"/>
   </g>
   <g id="line2d_46">
    <path clip-path="url(#pac79943fde)" d="M 400.558559 480.6 
L 400.558559 64.8 
" style="fill:none;stroke:#1f77b4;stroke-linecap:square;stroke-width:1.5;"/>
   </g>
   <g id="patch_5">
    <path d="M 90 480.6 
L 90 64.8 
" style="fill:none;stroke:#000000;stroke-linecap:square;stroke-linejoin:miter;stroke-width:0.8;"/>
   </g>
   <g id="patch_6">
    <path d="M 648 480.6 
L 648 64.8 
" style="fill:none;stroke:#000000;stroke-linecap:square;stroke-linejoin:miter;stroke-width:0.8;"/>
   </g>
   <g id="patch_7">
    <path d="M 90 480.6 
L 648 480.6 
" style="fill:none;stroke:#000000;stroke-linecap:square;stroke-linejoin:miter;stroke-width:0.8;"/>
   </g>
   <g id="patch_8">
    <path d="M 90 64.8 
L 648 64.8 
" style="fill:none;stroke:#000000;stroke-linecap:square;stroke-linejoin:miter;stroke-width:0.8;"/>
   </g>
   <g id="text_13">
    <g id="patch_9">
     <path d="M 482.796282 109.584125 
L 412.558559 109.584125 
L 412.558559 78.227875 
L 482.796282 78.227875 
L 482.796282 70.388813 
L 506.313469 93.906 
L 482.796282 117.423188 
L 482.796282 109.584125 
z
" style="fill:#ff7f0e;opacity:0.5;stroke:#ff7f0e;stroke-linejoin:miter;"/>
    </g>
    <!-- photon -->
    <defs>
     <path d="M 54.890625 33.015625 
L 54.890625 0 
L 45.90625 0 
L 45.90625 32.71875 
Q 45.90625 40.484375 42.875 44.328125 
Q 39.84375 48.1875 33.796875 48.1875 
Q 26.515625 48.1875 22.3125 43.546875 
Q 18.109375 38.921875 18.109375 30.90625 
L 18.109375 0 
L 9.078125 0 
L 9.078125 75.984375 
L 18.109375 75.984375 
L 18.109375 46.1875 
Q 21.34375 51.125 25.703125 53.5625 
Q 30.078125 56 35.796875 56 
Q 45.21875 56 50.046875 50.171875 
Q 54.890625 44.34375 54.890625 33.015625 
z
" id="DejaVuSans-104"/>
     <path d="M 54.890625 33.015625 
L 54.890625 0 
L 45.90625 0 
L 45.90625 32.71875 
Q 45.90625 40.484375 42.875 44.328125 
Q 39.84375 48.1875 33.796875 48.1875 
Q 26.515625 48.1875 22.3125 43.546875 
Q 18.109375 38.921875 18.109375 30.90625 
L 18.109375 0 
L 9.078125 0 
L 9.078125 54.6875 
L 18.109375 54.6875 
L 18.109375 46.1875 
Q 21.34375 51.125 25.703125 53.5625 
Q 30.078125 56 35.796875 56 
Q 45.21875 56 50.046875 50.171875 
Q 54.890625 44.34375 54.890625 33.015625 
z
" id="DejaVuSans-110"/>
    </defs>
    <g transform="translate(418.558559 99.42475)scale(0.2 -0.2)">
     <use xlink:href="#DejaVuSans-112"/>
     <use x="63.476562" xlink:href="#DejaVuSans-104"/>
     <use x="126.855469" xlink:href="#DejaVuSans-111"/>
     <use x="188.037109" xlink:href="#DejaVuSans-116"/>
     <use x="227.246094" xlink:href="#DejaVuSans-111"/>
     <use x="288.427734" xlink:href="#DejaVuSans-110"/>
    </g>
   </g>
   <g id="text_14">
    <g id="patch_10">
     <path d="M 306.54896 109.584125 
L 388.558559 109.584125 
L 388.558559 78.227875 
L 306.54896 78.227875 
L 306.54896 70.388813 
L 283.031773 93.906 
L 306.54896 117.423188 
L 306.54896 109.584125 
z
" style="fill:#1f77b4;opacity:0.5;stroke:#1f77b4;stroke-linejoin:miter;"/>
    </g>
    <!-- electron -->
    <defs>
     <path d="M 48.78125 52.59375 
L 48.78125 44.1875 
Q 44.96875 46.296875 41.140625 47.34375 
Q 37.3125 48.390625 33.40625 48.390625 
Q 24.65625 48.390625 19.8125 42.84375 
Q 14.984375 37.3125 14.984375 27.296875 
Q 14.984375 17.28125 19.8125 11.734375 
Q 24.65625 6.203125 33.40625 6.203125 
Q 37.3125 6.203125 41.140625 7.25 
Q 44.96875 8.296875 48.78125 10.40625 
L 48.78125 2.09375 
Q 45.015625 0.34375 40.984375 -0.53125 
Q 36.96875 -1.421875 32.421875 -1.421875 
Q 20.0625 -1.421875 12.78125 6.34375 
Q 5.515625 14.109375 5.515625 27.296875 
Q 5.515625 40.671875 12.859375 48.328125 
Q 20.21875 56 33.015625 56 
Q 37.15625 56 41.109375 55.140625 
Q 45.0625 54.296875 48.78125 52.59375 
z
" id="DejaVuSans-99"/>
    </defs>
    <g transform="translate(300.424184 99.42475)scale(0.2 -0.2)">
     <use xlink:href="#DejaVuSans-101"/>
     <use x="61.523438" xlink:href="#DejaVuSans-108"/>
     <use x="89.306641" xlink:href="#DejaVuSans-101"/>
     <use x="150.830078" xlink:href="#DejaVuSans-99"/>
     <use x="205.810547" xlink:href="#DejaVuSans-116"/>
     <use x="245.019531" xlink:href="#DejaVuSans-114"/>
     <use x="286.101562" xlink:href="#DejaVuSans-111"/>
     <use x="347.283203" xlink:href="#DejaVuSans-110"/>
    </g>
   </g>
   <g id="legend_1">
    <g id="patch_11">
     <path d="M 411.623438 239.72625 
L 635.4 239.72625 
Q 639 239.72625 639 236.12625 
L 639 77.4 
Q 639 73.8 635.4 73.8 
L 411.623438 73.8 
Q 408.023438 73.8 408.023438 77.4 
L 408.023438 236.12625 
Q 408.023438 239.72625 411.623438 239.72625 
z
" style="fill:#ffffff;opacity:0.5;stroke:#cccccc;stroke-linejoin:miter;"/>
    </g>
    <g id="line2d_47">
     <path d="M 415.223437 88.377188 
L 451.223437 88.377188 
" style="fill:none;stroke:#1f77b4;stroke-linecap:square;stroke-width:1.5;"/>
    </g>
    <g id="line2d_48"/>
    <g id="text_15">
     <!-- Electrons -->
     <defs>
      <path d="M 9.8125 72.90625 
L 55.90625 72.90625 
L 55.90625 64.59375 
L 19.671875 64.59375 
L 19.671875 43.015625 
L 54.390625 43.015625 
L 54.390625 34.71875 
L 19.671875 34.71875 
L 19.671875 8.296875 
L 56.78125 8.296875 
L 56.78125 0 
L 9.8125 0 
z
" id="DejaVuSans-69"/>
      <path d="M 44.28125 53.078125 
L 44.28125 44.578125 
Q 40.484375 46.53125 36.375 47.5 
Q 32.28125 48.484375 27.875 48.484375 
Q 21.1875 48.484375 17.84375 46.4375 
Q 14.5 44.390625 14.5 40.28125 
Q 14.5 37.15625 16.890625 35.375 
Q 19.28125 33.59375 26.515625 31.984375 
L 29.59375 31.296875 
Q 39.15625 29.25 43.1875 25.515625 
Q 47.21875 21.78125 47.21875 15.09375 
Q 47.21875 7.46875 41.1875 3.015625 
Q 35.15625 -1.421875 24.609375 -1.421875 
Q 20.21875 -1.421875 15.453125 -0.5625 
Q 10.6875 0.296875 5.421875 2 
L 5.421875 11.28125 
Q 10.40625 8.6875 15.234375 7.390625 
Q 20.0625 6.109375 24.8125 6.109375 
Q 31.15625 6.109375 34.5625 8.28125 
Q 37.984375 10.453125 37.984375 14.40625 
Q 37.984375 18.0625 35.515625 20.015625 
Q 33.0625 21.96875 24.703125 23.78125 
L 21.578125 24.515625 
Q 13.234375 26.265625 9.515625 29.90625 
Q 5.8125 33.546875 5.8125 39.890625 
Q 5.8125 47.609375 11.28125 51.796875 
Q 16.75 56 26.8125 56 
Q 31.78125 56 36.171875 55.265625 
Q 40.578125 54.546875 44.28125 53.078125 
z
" id="DejaVuSans-115"/>
     </defs>
     <g transform="translate(465.623437 94.677188)scale(0.18 -0.18)">
      <use xlink:href="#DejaVuSans-69"/>
      <use x="63.183594" xlink:href="#DejaVuSans-108"/>
      <use x="90.966797" xlink:href="#DejaVuSans-101"/>
      <use x="152.490234" xlink:href="#DejaVuSans-99"/>
      <use x="207.470703" xlink:href="#DejaVuSans-116"/>
      <use x="246.679688" xlink:href="#DejaVuSans-114"/>
      <use x="287.761719" xlink:href="#DejaVuSans-111"/>
      <use x="348.943359" xlink:href="#DejaVuSans-110"/>
      <use x="412.322266" xlink:href="#DejaVuSans-115"/>
     </g>
    </g>
    <g id="line2d_49">
     <path d="M 415.223437 114.797813 
L 451.223437 114.797813 
" style="fill:none;stroke:#ff7f0e;stroke-linecap:square;stroke-width:1.5;"/>
    </g>
    <g id="line2d_50"/>
    <g id="text_16">
     <!-- Electrons (Nu_e) -->
     <defs>
      <path id="DejaVuSans-32"/>
      <path d="M 31 75.875 
Q 24.46875 64.65625 21.28125 53.65625 
Q 18.109375 42.671875 18.109375 31.390625 
Q 18.109375 20.125 21.3125 9.0625 
Q 24.515625 -2 31 -13.1875 
L 23.1875 -13.1875 
Q 15.875 -1.703125 12.234375 9.375 
Q 8.59375 20.453125 8.59375 31.390625 
Q 8.59375 42.28125 12.203125 53.3125 
Q 15.828125 64.359375 23.1875 75.875 
z
" id="DejaVuSans-40"/>
      <path d="M 9.8125 72.90625 
L 23.09375 72.90625 
L 55.421875 11.921875 
L 55.421875 72.90625 
L 64.984375 72.90625 
L 64.984375 0 
L 51.703125 0 
L 19.390625 60.984375 
L 19.390625 0 
L 9.8125 0 
z
" id="DejaVuSans-78"/>
      <path d="M 8.5 21.578125 
L 8.5 54.6875 
L 17.484375 54.6875 
L 17.484375 21.921875 
Q 17.484375 14.15625 20.5 10.265625 
Q 23.53125 6.390625 29.59375 6.390625 
Q 36.859375 6.390625 41.078125 11.03125 
Q 45.3125 15.671875 45.3125 23.6875 
L 45.3125 54.6875 
L 54.296875 54.6875 
L 54.296875 0 
L 45.3125 0 
L 45.3125 8.40625 
Q 42.046875 3.421875 37.71875 1 
Q 33.40625 -1.421875 27.6875 -1.421875 
Q 18.265625 -1.421875 13.375 4.4375 
Q 8.5 10.296875 8.5 21.578125 
z
M 31.109375 56 
z
" id="DejaVuSans-117"/>
      <path d="M 50.984375 -16.609375 
L 50.984375 -23.578125 
L -0.984375 -23.578125 
L -0.984375 -16.609375 
z
" id="DejaVuSans-95"/>
      <path d="M 8.015625 75.875 
L 15.828125 75.875 
Q 23.140625 64.359375 26.78125 53.3125 
Q 30.421875 42.28125 30.421875 31.390625 
Q 30.421875 20.453125 26.78125 9.375 
Q 23.140625 -1.703125 15.828125 -13.1875 
L 8.015625 -13.1875 
Q 14.5 -2 17.703125 9.0625 
Q 20.90625 20.125 20.90625 31.390625 
Q 20.90625 42.671875 17.703125 53.65625 
Q 14.5 64.65625 8.015625 75.875 
z
" id="DejaVuSans-41"/>
     </defs>
     <g transform="translate(465.623437 121.097813)scale(0.18 -0.18)">
      <use xlink:href="#DejaVuSans-69"/>
      <use x="63.183594" xlink:href="#DejaVuSans-108"/>
      <use x="90.966797" xlink:href="#DejaVuSans-101"/>
      <use x="152.490234" xlink:href="#DejaVuSans-99"/>
      <use x="207.470703" xlink:href="#DejaVuSans-116"/>
      <use x="246.679688" xlink:href="#DejaVuSans-114"/>
      <use x="287.761719" xlink:href="#DejaVuSans-111"/>
      <use x="348.943359" xlink:href="#DejaVuSans-110"/>
      <use x="412.322266" xlink:href="#DejaVuSans-115"/>
      <use x="464.421875" xlink:href="#DejaVuSans-32"/>
      <use x="496.208984" xlink:href="#DejaVuSans-40"/>
      <use x="535.222656" xlink:href="#DejaVuSans-78"/>
      <use x="610.027344" xlink:href="#DejaVuSans-117"/>
      <use x="673.40625" xlink:href="#DejaVuSans-95"/>
      <use x="723.40625" xlink:href="#DejaVuSans-101"/>
      <use x="784.929688" xlink:href="#DejaVuSans-41"/>
     </g>
    </g>
    <g id="line2d_51">
     <path d="M 415.223437 141.719063 
L 451.223437 141.719063 
" style="fill:none;stroke:#2ca02c;stroke-linecap:square;stroke-width:1.5;"/>
    </g>
    <g id="line2d_52"/>
    <g id="text_17">
     <!-- Electrons (Nu_mu) -->
     <defs>
      <path d="M 52 44.1875 
Q 55.375 50.25 60.0625 53.125 
Q 64.75 56 71.09375 56 
Q 79.640625 56 84.28125 50.015625 
Q 88.921875 44.046875 88.921875 33.015625 
L 88.921875 0 
L 79.890625 0 
L 79.890625 32.71875 
Q 79.890625 40.578125 77.09375 44.375 
Q 74.3125 48.1875 68.609375 48.1875 
Q 61.625 48.1875 57.5625 43.546875 
Q 53.515625 38.921875 53.515625 30.90625 
L 53.515625 0 
L 44.484375 0 
L 44.484375 32.71875 
Q 44.484375 40.625 41.703125 44.40625 
Q 38.921875 48.1875 33.109375 48.1875 
Q 26.21875 48.1875 22.15625 43.53125 
Q 18.109375 38.875 18.109375 30.90625 
L 18.109375 0 
L 9.078125 0 
L 9.078125 54.6875 
L 18.109375 54.6875 
L 18.109375 46.1875 
Q 21.1875 51.21875 25.484375 53.609375 
Q 29.78125 56 35.6875 56 
Q 41.65625 56 45.828125 52.96875 
Q 50 49.953125 52 44.1875 
z
" id="DejaVuSans-109"/>
     </defs>
     <g transform="translate(465.623437 148.019063)scale(0.18 -0.18)">
      <use xlink:href="#DejaVuSans-69"/>
      <use x="63.183594" xlink:href="#DejaVuSans-108"/>
      <use x="90.966797" xlink:href="#DejaVuSans-101"/>
      <use x="152.490234" xlink:href="#DejaVuSans-99"/>
      <use x="207.470703" xlink:href="#DejaVuSans-116"/>
      <use x="246.679688" xlink:href="#DejaVuSans-114"/>
      <use x="287.761719" xlink:href="#DejaVuSans-111"/>
      <use x="348.943359" xlink:href="#DejaVuSans-110"/>
      <use x="412.322266" xlink:href="#DejaVuSans-115"/>
      <use x="464.421875" xlink:href="#DejaVuSans-32"/>
      <use x="496.208984" xlink:href="#DejaVuSans-40"/>
      <use x="535.222656" xlink:href="#DejaVuSans-78"/>
      <use x="610.027344" xlink:href="#DejaVuSans-117"/>
      <use x="673.40625" xlink:href="#DejaVuSans-95"/>
      <use x="723.40625" xlink:href="#DejaVuSans-109"/>
      <use x="820.818359" xlink:href="#DejaVuSans-117"/>
      <use x="884.197266" xlink:href="#DejaVuSans-41"/>
     </g>
    </g>
    <g id="line2d_53">
     <path d="M 415.223437 168.640312 
L 451.223437 168.640312 
" style="fill:none;stroke:#d62728;stroke-linecap:square;stroke-width:1.5;"/>
    </g>
    <g id="line2d_54"/>
    <g id="text_18">
     <!-- Photons -->
     <g transform="translate(465.623437 174.940313)scale(0.18 -0.18)">
      <use xlink:href="#DejaVuSans-80"/>
      <use x="60.302734" xlink:href="#DejaVuSans-104"/>
      <use x="123.681641" xlink:href="#DejaVuSans-111"/>
      <use x="184.863281" xlink:href="#DejaVuSans-116"/>
      <use x="224.072266" xlink:href="#DejaVuSans-111"/>
      <use x="285.253906" xlink:href="#DejaVuSans-110"/>
      <use x="348.632812" xlink:href="#DejaVuSans-115"/>
     </g>
    </g>
    <g id="line2d_55">
     <path d="M 415.223437 195.060937 
L 451.223437 195.060937 
" style="fill:none;stroke:#9467bd;stroke-linecap:square;stroke-width:1.5;"/>
    </g>
    <g id="line2d_56"/>
    <g id="text_19">
     <!-- Photons (Nu_e) -->
     <g transform="translate(465.623437 201.360937)scale(0.18 -0.18)">
      <use xlink:href="#DejaVuSans-80"/>
      <use x="60.302734" xlink:href="#DejaVuSans-104"/>
      <use x="123.681641" xlink:href="#DejaVuSans-111"/>
      <use x="184.863281" xlink:href="#DejaVuSans-116"/>
      <use x="224.072266" xlink:href="#DejaVuSans-111"/>
      <use x="285.253906" xlink:href="#DejaVuSans-110"/>
      <use x="348.632812" xlink:href="#DejaVuSans-115"/>
      <use x="400.732422" xlink:href="#DejaVuSans-32"/>
      <use x="432.519531" xlink:href="#DejaVuSans-40"/>
      <use x="471.533203" xlink:href="#DejaVuSans-78"/>
      <use x="546.337891" xlink:href="#DejaVuSans-117"/>
      <use x="609.716797" xlink:href="#DejaVuSans-95"/>
      <use x="659.716797" xlink:href="#DejaVuSans-101"/>
      <use x="721.240234" xlink:href="#DejaVuSans-41"/>
     </g>
    </g>
    <g id="line2d_57">
     <path d="M 415.223437 221.982188 
L 451.223437 221.982188 
" style="fill:none;stroke:#8c564b;stroke-linecap:square;stroke-width:1.5;"/>
    </g>
    <g id="line2d_58"/>
    <g id="text_20">
     <!-- Photons (Nu_mu) -->
     <g transform="translate(465.623437 228.282188)scale(0.18 -0.18)">
      <use xlink:href="#DejaVuSans-80"/>
      <use x="60.302734" xlink:href="#DejaVuSans-104"/>
      <use x="123.681641" xlink:href="#DejaVuSans-111"/>
      <use x="184.863281" xlink:href="#DejaVuSans-116"/>
      <use x="224.072266" xlink:href="#DejaVuSans-111"/>
      <use x="285.253906" xlink:href="#DejaVuSans-110"/>
      <use x="348.632812" xlink:href="#DejaVuSans-115"/>
      <use x="400.732422" xlink:href="#DejaVuSans-32"/>
      <use x="432.519531" xlink:href="#DejaVuSans-40"/>
      <use x="471.533203" xlink:href="#DejaVuSans-78"/>
      <use x="546.337891" xlink:href="#DejaVuSans-117"/>
      <use x="609.716797" xlink:href="#DejaVuSans-95"/>
      <use x="659.716797" xlink:href="#DejaVuSans-109"/>
      <use x="757.128906" xlink:href="#DejaVuSans-117"/>
      <use x="820.507812" xlink:href="#DejaVuSans-41"/>
     </g>
    </g>
   </g>
  </g>
 </g>
 <defs>
  <clipPath id="pac79943fde">
   <rect height="415.8" width="558" x="90" y="64.8"/>
  </clipPath>
 </defs>
</svg>
