<?xml version="1.0" encoding="utf-8" standalone="no"?>
<!DOCTYPE svg PUBLIC "-//W3C//DTD SVG 1.1//EN"
  "http://www.w3.org/Graphics/SVG/1.1/DTD/svg11.dtd">
<!-- Created with matplotlib (https://matplotlib.org/) -->
<svg height="540pt" version="1.1" viewBox="0 0 720 540" width="720pt" xmlns="http://www.w3.org/2000/svg" xmlns:xlink="http://www.w3.org/1999/xlink">
 <defs>
  <style type="text/css">
*{stroke-linecap:butt;stroke-linejoin:round;}
  </style>
 </defs>
 <g id="figure_1">
  <g id="patch_1">
   <path d="M 0 540 
L 720 540 
L 720 0 
L 0 0 
z
" style="fill:#ffffff;"/>
  </g>
  <g id="axes_1">
   <g id="patch_2">
    <path d="M 90 480.6 
L 648 480.6 
L 648 64.8 
L 90 64.8 
z
" style="fill:#ffffff;"/>
   </g>
   <g id="patch_3">
    <path clip-path="url(#pa3c383bd5b)" d="M 90 78938.041565 
L 90 357.937067 
L 101.387755 357.937067 
L 101.387755 414.452534 
L 112.77551 414.452534 
L 112.77551 438.076267 
L 124.163265 438.076267 
L 124.163265 438.076267 
L 135.55102 438.076267 
L 135.55102 78938.041565 
L 146.938776 78938.041565 
L 146.938776 395.379798 
L 158.326531 395.379798 
L 158.326531 438.076267 
L 169.714286 438.076267 
L 169.714286 390.828802 
L 181.102041 390.828802 
L 181.102041 386.814539 
L 192.489796 386.814539 
L 192.489796 379.975312 
L 203.877551 379.975312 
L 203.877551 379.975312 
L 215.265306 379.975312 
L 215.265306 357.937067 
L 226.653061 357.937067 
L 226.653061 353.386071 
L 238.040816 353.386071 
L 238.040816 353.386071 
L 249.428571 353.386071 
L 249.428571 340.527189 
L 260.816327 340.527189 
L 260.816327 328.37105 
L 272.204082 328.37105 
L 272.204082 335.976193 
L 283.591837 335.976193 
L 283.591837 321.039658 
L 294.979592 321.039658 
L 294.979592 327.034335 
L 306.367347 327.034335 
L 306.367347 316.420018 
L 317.755102 316.420018 
L 317.755102 312.35246 
L 329.142857 312.35246 
L 329.142857 314.552052 
L 340.530612 314.552052 
L 340.530612 300.884867 
L 351.918367 300.884867 
L 351.918367 301.190535 
L 363.306122 301.190535 
L 363.306122 299.10628 
L 374.693878 299.10628 
L 374.693878 291.616865 
L 386.081633 291.616865 
L 386.081633 291.849506 
L 397.469388 291.849506 
L 397.469388 294.772597 
L 408.857143 294.772597 
L 408.857143 291.849506 
L 420.244898 291.849506 
L 420.244898 293.279723 
L 431.632653 293.279723 
L 431.632653 293.770118 
L 443.020408 293.770118 
L 443.020408 296.870604 
L 454.408163 296.870604 
L 454.408163 289.591605 
L 465.795918 289.591605 
L 465.795918 290.253409 
L 477.183673 290.253409 
L 477.183673 289.591605 
L 488.571429 289.591605 
L 488.571429 289.591605 
L 499.959184 289.591605 
L 499.959184 293.524039 
L 511.346939 293.524039 
L 511.346939 287.679973 
L 522.734694 287.679973 
L 522.734694 284.151116 
L 534.122449 284.151116 
L 534.122449 284.337866 
L 545.510204 284.337866 
L 545.510204 283.965383 
L 556.897959 283.965383 
L 556.897959 282.16169 
L 568.285714 282.16169 
L 568.285714 266.407644 
L 579.673469 266.407644 
L 579.673469 268.342692 
L 591.061224 268.342692 
L 591.061224 255.114382 
L 602.44898 255.114382 
L 602.44898 246.708385 
L 613.836735 246.708385 
L 613.836735 233.66377 
L 625.22449 233.66377 
L 625.22449 216.731403 
L 636.612245 216.731403 
L 636.612245 147.903871 
L 648 147.903871 
L 648 78938.041565 
z
" style="fill:#1f77b4;opacity:0.2;"/>
   </g>
   <g id="patch_4">
    <path clip-path="url(#pa3c383bd5b)" d="M 90 78938.041565 
L 90 309.887639 
L 101.387755 309.887639 
L 101.387755 379.975312 
L 112.77551 379.975312 
L 112.77551 367.205069 
L 124.163265 367.205069 
L 124.163265 346.936355 
L 135.55102 346.936355 
L 135.55102 359.599926 
L 146.938776 359.599926 
L 146.938776 346.936355 
L 158.326531 346.936355 
L 158.326531 344.66339 
L 169.714286 344.66339 
L 169.714286 331.96193 
L 181.102041 331.96193 
L 181.102041 337.724363 
L 192.489796 337.724363 
L 192.489796 325.122703 
L 203.877551 325.122703 
L 203.877551 314.552052 
L 215.265306 314.552052 
L 215.265306 313.215338 
L 226.653061 313.215338 
L 226.653061 315.943341 
L 238.040816 315.943341 
L 238.040816 309.493625 
L 249.428571 309.493625 
L 249.428571 294.267672 
L 260.816327 294.267672 
L 260.816327 294.772597 
L 272.204082 294.772597 
L 272.204082 291.616865 
L 283.591837 291.616865 
L 283.591837 288.305345 
L 294.979592 288.305345 
L 294.979592 284.714465 
L 306.367347 284.714465 
L 306.367347 279.460725 
L 317.755102 279.460725 
L 317.755102 282.514873 
L 329.142857 282.514873 
L 329.142857 271.02193 
L 340.530612 271.02193 
L 340.530612 263.953118 
L 351.918367 263.953118 
L 351.918367 265.104995 
L 363.306122 265.104995 
L 363.306122 261.471538 
L 374.693878 261.471538 
L 374.693878 255.273644 
L 386.081633 255.273644 
L 386.081633 254.251505 
L 397.469388 254.251505 
L 397.469388 252.662496 
L 408.857143 252.662496 
L 408.857143 249.758653 
L 420.244898 249.758653 
L 420.244898 245.548819 
L 431.632653 245.548819 
L 431.632653 246.522652 
L 443.020408 246.522652 
L 443.020408 247.588777 
L 454.408163 247.588777 
L 454.408163 243.117504 
L 465.795918 243.117504 
L 465.795918 243.680854 
L 477.183673 243.680854 
L 477.183673 240.848144 
L 488.571429 240.848144 
L 488.571429 236.395301 
L 499.959184 236.395301 
L 499.959184 236.671642 
L 511.346939 236.671642 
L 511.346939 230.666523 
L 522.734694 230.666523 
L 522.734694 226.270975 
L 534.122449 226.270975 
L 534.122449 221.241942 
L 545.510204 221.241942 
L 545.510204 217.224412 
L 556.897959 217.224412 
L 556.897959 212.520209 
L 568.285714 212.520209 
L 568.285714 203.967601 
L 579.673469 203.967601 
L 579.673469 195.88401 
L 591.061224 195.88401 
L 591.061224 185.497376 
L 602.44898 185.497376 
L 602.44898 173.694387 
L 613.836735 173.694387 
L 613.836735 158.093715 
L 625.22449 158.093715 
L 625.22449 135.903658 
L 636.612245 135.903658 
L 636.612245 83.7 
L 648 83.7 
L 648 78938.041565 
z
" style="fill:#ff7f0e;opacity:0.2;"/>
   </g>
   <g id="matplotlib.axis_1">
    <g id="xtick_1">
     <g id="line2d_1">
      <defs>
       <path d="M 0 0 
L 0 3.5 
" id="m11b3d5ae51" style="stroke:#000000;stroke-width:0.8;"/>
      </defs>
      <g>
       <use style="stroke:#000000;stroke-width:0.8;" x="90" xlink:href="#m11b3d5ae51" y="480.6"/>
      </g>
     </g>
     <g id="text_1">
      <!-- 0.0 -->
      <defs>
       <path d="M 31.78125 66.40625 
Q 24.171875 66.40625 20.328125 58.90625 
Q 16.5 51.421875 16.5 36.375 
Q 16.5 21.390625 20.328125 13.890625 
Q 24.171875 6.390625 31.78125 6.390625 
Q 39.453125 6.390625 43.28125 13.890625 
Q 47.125 21.390625 47.125 36.375 
Q 47.125 51.421875 43.28125 58.90625 
Q 39.453125 66.40625 31.78125 66.40625 
z
M 31.78125 74.21875 
Q 44.046875 74.21875 50.515625 64.515625 
Q 56.984375 54.828125 56.984375 36.375 
Q 56.984375 17.96875 50.515625 8.265625 
Q 44.046875 -1.421875 31.78125 -1.421875 
Q 19.53125 -1.421875 13.0625 8.265625 
Q 6.59375 17.96875 6.59375 36.375 
Q 6.59375 54.828125 13.0625 64.515625 
Q 19.53125 74.21875 31.78125 74.21875 
z
" id="DejaVuSans-48"/>
       <path d="M 10.6875 12.40625 
L 21 12.40625 
L 21 0 
L 10.6875 0 
z
" id="DejaVuSans-46"/>
      </defs>
      <g transform="translate(69.38955 507.29515)scale(0.2592 -0.2592)">
       <use xlink:href="#DejaVuSans-48"/>
       <use x="63.623047" xlink:href="#DejaVuSans-46"/>
       <use x="95.410156" xlink:href="#DejaVuSans-48"/>
      </g>
     </g>
    </g>
    <g id="xtick_2">
     <g id="line2d_2">
      <g>
       <use style="stroke:#000000;stroke-width:0.8;" x="201.6" xlink:href="#m11b3d5ae51" y="480.6"/>
      </g>
     </g>
     <g id="text_2">
      <!-- 0.2 -->
      <defs>
       <path d="M 19.1875 8.296875 
L 53.609375 8.296875 
L 53.609375 0 
L 7.328125 0 
L 7.328125 8.296875 
Q 12.9375 14.109375 22.625 23.890625 
Q 32.328125 33.6875 34.8125 36.53125 
Q 39.546875 41.84375 41.421875 45.53125 
Q 43.3125 49.21875 43.3125 52.78125 
Q 43.3125 58.59375 39.234375 62.25 
Q 35.15625 65.921875 28.609375 65.921875 
Q 23.96875 65.921875 18.8125 64.3125 
Q 13.671875 62.703125 7.8125 59.421875 
L 7.8125 69.390625 
Q 13.765625 71.78125 18.9375 73 
Q 24.125 74.21875 28.421875 74.21875 
Q 39.75 74.21875 46.484375 68.546875 
Q 53.21875 62.890625 53.21875 53.421875 
Q 53.21875 48.921875 51.53125 44.890625 
Q 49.859375 40.875 45.40625 35.40625 
Q 44.1875 33.984375 37.640625 27.21875 
Q 31.109375 20.453125 19.1875 8.296875 
z
" id="DejaVuSans-50"/>
      </defs>
      <g transform="translate(180.98955 507.29515)scale(0.2592 -0.2592)">
       <use xlink:href="#DejaVuSans-48"/>
       <use x="63.623047" xlink:href="#DejaVuSans-46"/>
       <use x="95.410156" xlink:href="#DejaVuSans-50"/>
      </g>
     </g>
    </g>
    <g id="xtick_3">
     <g id="line2d_3">
      <g>
       <use style="stroke:#000000;stroke-width:0.8;" x="313.2" xlink:href="#m11b3d5ae51" y="480.6"/>
      </g>
     </g>
     <g id="text_3">
      <!-- 0.4 -->
      <defs>
       <path d="M 37.796875 64.3125 
L 12.890625 25.390625 
L 37.796875 25.390625 
z
M 35.203125 72.90625 
L 47.609375 72.90625 
L 47.609375 25.390625 
L 58.015625 25.390625 
L 58.015625 17.1875 
L 47.609375 17.1875 
L 47.609375 0 
L 37.796875 0 
L 37.796875 17.1875 
L 4.890625 17.1875 
L 4.890625 26.703125 
z
" id="DejaVuSans-52"/>
      </defs>
      <g transform="translate(292.58955 507.29515)scale(0.2592 -0.2592)">
       <use xlink:href="#DejaVuSans-48"/>
       <use x="63.623047" xlink:href="#DejaVuSans-46"/>
       <use x="95.410156" xlink:href="#DejaVuSans-52"/>
      </g>
     </g>
    </g>
    <g id="xtick_4">
     <g id="line2d_4">
      <g>
       <use style="stroke:#000000;stroke-width:0.8;" x="424.8" xlink:href="#m11b3d5ae51" y="480.6"/>
      </g>
     </g>
     <g id="text_4">
      <!-- 0.6 -->
      <defs>
       <path d="M 33.015625 40.375 
Q 26.375 40.375 22.484375 35.828125 
Q 18.609375 31.296875 18.609375 23.390625 
Q 18.609375 15.53125 22.484375 10.953125 
Q 26.375 6.390625 33.015625 6.390625 
Q 39.65625 6.390625 43.53125 10.953125 
Q 47.40625 15.53125 47.40625 23.390625 
Q 47.40625 31.296875 43.53125 35.828125 
Q 39.65625 40.375 33.015625 40.375 
z
M 52.59375 71.296875 
L 52.59375 62.3125 
Q 48.875 64.0625 45.09375 64.984375 
Q 41.3125 65.921875 37.59375 65.921875 
Q 27.828125 65.921875 22.671875 59.328125 
Q 17.53125 52.734375 16.796875 39.40625 
Q 19.671875 43.65625 24.015625 45.921875 
Q 28.375 48.1875 33.59375 48.1875 
Q 44.578125 48.1875 50.953125 41.515625 
Q 57.328125 34.859375 57.328125 23.390625 
Q 57.328125 12.15625 50.6875 5.359375 
Q 44.046875 -1.421875 33.015625 -1.421875 
Q 20.359375 -1.421875 13.671875 8.265625 
Q 6.984375 17.96875 6.984375 36.375 
Q 6.984375 53.65625 15.1875 63.9375 
Q 23.390625 74.21875 37.203125 74.21875 
Q 40.921875 74.21875 44.703125 73.484375 
Q 48.484375 72.75 52.59375 71.296875 
z
" id="DejaVuSans-54"/>
      </defs>
      <g transform="translate(404.18955 507.29515)scale(0.2592 -0.2592)">
       <use xlink:href="#DejaVuSans-48"/>
       <use x="63.623047" xlink:href="#DejaVuSans-46"/>
       <use x="95.410156" xlink:href="#DejaVuSans-54"/>
      </g>
     </g>
    </g>
    <g id="xtick_5">
     <g id="line2d_5">
      <g>
       <use style="stroke:#000000;stroke-width:0.8;" x="536.4" xlink:href="#m11b3d5ae51" y="480.6"/>
      </g>
     </g>
     <g id="text_5">
      <!-- 0.8 -->
      <defs>
       <path d="M 31.78125 34.625 
Q 24.75 34.625 20.71875 30.859375 
Q 16.703125 27.09375 16.703125 20.515625 
Q 16.703125 13.921875 20.71875 10.15625 
Q 24.75 6.390625 31.78125 6.390625 
Q 38.8125 6.390625 42.859375 10.171875 
Q 46.921875 13.96875 46.921875 20.515625 
Q 46.921875 27.09375 42.890625 30.859375 
Q 38.875 34.625 31.78125 34.625 
z
M 21.921875 38.8125 
Q 15.578125 40.375 12.03125 44.71875 
Q 8.5 49.078125 8.5 55.328125 
Q 8.5 64.0625 14.71875 69.140625 
Q 20.953125 74.21875 31.78125 74.21875 
Q 42.671875 74.21875 48.875 69.140625 
Q 55.078125 64.0625 55.078125 55.328125 
Q 55.078125 49.078125 51.53125 44.71875 
Q 48 40.375 41.703125 38.8125 
Q 48.828125 37.15625 52.796875 32.3125 
Q 56.78125 27.484375 56.78125 20.515625 
Q 56.78125 9.90625 50.3125 4.234375 
Q 43.84375 -1.421875 31.78125 -1.421875 
Q 19.734375 -1.421875 13.25 4.234375 
Q 6.78125 9.90625 6.78125 20.515625 
Q 6.78125 27.484375 10.78125 32.3125 
Q 14.796875 37.15625 21.921875 38.8125 
z
M 18.3125 54.390625 
Q 18.3125 48.734375 21.84375 45.5625 
Q 25.390625 42.390625 31.78125 42.390625 
Q 38.140625 42.390625 41.71875 45.5625 
Q 45.3125 48.734375 45.3125 54.390625 
Q 45.3125 60.0625 41.71875 63.234375 
Q 38.140625 66.40625 31.78125 66.40625 
Q 25.390625 66.40625 21.84375 63.234375 
Q 18.3125 60.0625 18.3125 54.390625 
z
" id="DejaVuSans-56"/>
      </defs>
      <g transform="translate(515.78955 507.29515)scale(0.2592 -0.2592)">
       <use xlink:href="#DejaVuSans-48"/>
       <use x="63.623047" xlink:href="#DejaVuSans-46"/>
       <use x="95.410156" xlink:href="#DejaVuSans-56"/>
      </g>
     </g>
    </g>
    <g id="xtick_6">
     <g id="line2d_6">
      <g>
       <use style="stroke:#000000;stroke-width:0.8;" x="648" xlink:href="#m11b3d5ae51" y="480.6"/>
      </g>
     </g>
     <g id="text_6">
      <!-- 1.0 -->
      <defs>
       <path d="M 12.40625 8.296875 
L 28.515625 8.296875 
L 28.515625 63.921875 
L 10.984375 60.40625 
L 10.984375 69.390625 
L 28.421875 72.90625 
L 38.28125 72.90625 
L 38.28125 8.296875 
L 54.390625 8.296875 
L 54.390625 0 
L 12.40625 0 
z
" id="DejaVuSans-49"/>
      </defs>
      <g transform="translate(627.38955 507.29515)scale(0.2592 -0.2592)">
       <use xlink:href="#DejaVuSans-49"/>
       <use x="63.623047" xlink:href="#DejaVuSans-46"/>
       <use x="95.410156" xlink:href="#DejaVuSans-48"/>
      </g>
     </g>
    </g>
    <g id="text_7">
     <!-- purityW -->
     <defs>
      <path d="M 18.109375 8.203125 
L 18.109375 -20.796875 
L 9.078125 -20.796875 
L 9.078125 54.6875 
L 18.109375 54.6875 
L 18.109375 46.390625 
Q 20.953125 51.265625 25.265625 53.625 
Q 29.59375 56 35.59375 56 
Q 45.5625 56 51.78125 48.09375 
Q 58.015625 40.1875 58.015625 27.296875 
Q 58.015625 14.40625 51.78125 6.484375 
Q 45.5625 -1.421875 35.59375 -1.421875 
Q 29.59375 -1.421875 25.265625 0.953125 
Q 20.953125 3.328125 18.109375 8.203125 
z
M 48.6875 27.296875 
Q 48.6875 37.203125 44.609375 42.84375 
Q 40.53125 48.484375 33.40625 48.484375 
Q 26.265625 48.484375 22.1875 42.84375 
Q 18.109375 37.203125 18.109375 27.296875 
Q 18.109375 17.390625 22.1875 11.75 
Q 26.265625 6.109375 33.40625 6.109375 
Q 40.53125 6.109375 44.609375 11.75 
Q 48.6875 17.390625 48.6875 27.296875 
z
" id="DejaVuSans-112"/>
      <path d="M 8.5 21.578125 
L 8.5 54.6875 
L 17.484375 54.6875 
L 17.484375 21.921875 
Q 17.484375 14.15625 20.5 10.265625 
Q 23.53125 6.390625 29.59375 6.390625 
Q 36.859375 6.390625 41.078125 11.03125 
Q 45.3125 15.671875 45.3125 23.6875 
L 45.3125 54.6875 
L 54.296875 54.6875 
L 54.296875 0 
L 45.3125 0 
L 45.3125 8.40625 
Q 42.046875 3.421875 37.71875 1 
Q 33.40625 -1.421875 27.6875 -1.421875 
Q 18.265625 -1.421875 13.375 4.4375 
Q 8.5 10.296875 8.5 21.578125 
z
M 31.109375 56 
z
" id="DejaVuSans-117"/>
      <path d="M 41.109375 46.296875 
Q 39.59375 47.171875 37.8125 47.578125 
Q 36.03125 48 33.890625 48 
Q 26.265625 48 22.1875 43.046875 
Q 18.109375 38.09375 18.109375 28.8125 
L 18.109375 0 
L 9.078125 0 
L 9.078125 54.6875 
L 18.109375 54.6875 
L 18.109375 46.1875 
Q 20.953125 51.171875 25.484375 53.578125 
Q 30.03125 56 36.53125 56 
Q 37.453125 56 38.578125 55.875 
Q 39.703125 55.765625 41.0625 55.515625 
z
" id="DejaVuSans-114"/>
      <path d="M 9.421875 54.6875 
L 18.40625 54.6875 
L 18.40625 0 
L 9.421875 0 
z
M 9.421875 75.984375 
L 18.40625 75.984375 
L 18.40625 64.59375 
L 9.421875 64.59375 
z
" id="DejaVuSans-105"/>
      <path d="M 18.3125 70.21875 
L 18.3125 54.6875 
L 36.8125 54.6875 
L 36.8125 47.703125 
L 18.3125 47.703125 
L 18.3125 18.015625 
Q 18.3125 11.328125 20.140625 9.421875 
Q 21.96875 7.515625 27.59375 7.515625 
L 36.8125 7.515625 
L 36.8125 0 
L 27.59375 0 
Q 17.1875 0 13.234375 3.875 
Q 9.28125 7.765625 9.28125 18.015625 
L 9.28125 47.703125 
L 2.6875 47.703125 
L 2.6875 54.6875 
L 9.28125 54.6875 
L 9.28125 70.21875 
z
" id="DejaVuSans-116"/>
      <path d="M 32.171875 -5.078125 
Q 28.375 -14.84375 24.75 -17.8125 
Q 21.140625 -20.796875 15.09375 -20.796875 
L 7.90625 -20.796875 
L 7.90625 -13.28125 
L 13.1875 -13.28125 
Q 16.890625 -13.28125 18.9375 -11.515625 
Q 21 -9.765625 23.484375 -3.21875 
L 25.09375 0.875 
L 2.984375 54.6875 
L 12.5 54.6875 
L 29.59375 11.921875 
L 46.6875 54.6875 
L 56.203125 54.6875 
z
" id="DejaVuSans-121"/>
      <path d="M 3.328125 72.90625 
L 13.28125 72.90625 
L 28.609375 11.28125 
L 43.890625 72.90625 
L 54.984375 72.90625 
L 70.3125 11.28125 
L 85.59375 72.90625 
L 95.609375 72.90625 
L 77.296875 0 
L 64.890625 0 
L 49.515625 63.28125 
L 33.984375 0 
L 21.578125 0 
z
" id="DejaVuSans-87"/>
     </defs>
     <g transform="translate(318.065175 536.38085)scale(0.2592 -0.2592)">
      <use xlink:href="#DejaVuSans-112"/>
      <use x="63.476562" xlink:href="#DejaVuSans-117"/>
      <use x="126.855469" xlink:href="#DejaVuSans-114"/>
      <use x="167.96875" xlink:href="#DejaVuSans-105"/>
      <use x="195.751953" xlink:href="#DejaVuSans-116"/>
      <use x="234.960938" xlink:href="#DejaVuSans-121"/>
      <use x="294.140625" xlink:href="#DejaVuSans-87"/>
     </g>
    </g>
   </g>
   <g id="matplotlib.axis_2">
    <g id="ytick_1">
     <g id="line2d_7">
      <defs>
       <path d="M 0 0 
L -3.5 0 
" id="m82e6b21780" style="stroke:#000000;stroke-width:0.8;"/>
      </defs>
      <g>
       <use style="stroke:#000000;stroke-width:0.8;" x="90" xlink:href="#m82e6b21780" y="461.7"/>
      </g>
     </g>
     <g id="text_8">
      <!-- $\mathdefault{10^{0}}$ -->
      <g transform="translate(37.3808 471.547575)scale(0.2592 -0.2592)">
       <use transform="translate(0 0.765625)" xlink:href="#DejaVuSans-49"/>
       <use transform="translate(63.623047 0.765625)" xlink:href="#DejaVuSans-48"/>
       <use transform="translate(128.203125 39.046875)scale(0.7)" xlink:href="#DejaVuSans-48"/>
      </g>
     </g>
    </g>
    <g id="ytick_2">
     <g id="line2d_8">
      <g>
       <use style="stroke:#000000;stroke-width:0.8;" x="90" xlink:href="#m82e6b21780" y="383.223658"/>
      </g>
     </g>
     <g id="text_9">
      <!-- $\mathdefault{10^{1}}$ -->
      <g transform="translate(37.3808 393.071233)scale(0.2592 -0.2592)">
       <use transform="translate(0 0.684375)" xlink:href="#DejaVuSans-49"/>
       <use transform="translate(63.623047 0.684375)" xlink:href="#DejaVuSans-48"/>
       <use transform="translate(128.203125 38.965625)scale(0.7)" xlink:href="#DejaVuSans-49"/>
      </g>
     </g>
    </g>
    <g id="ytick_3">
     <g id="line2d_9">
      <g>
       <use style="stroke:#000000;stroke-width:0.8;" x="90" xlink:href="#m82e6b21780" y="304.747317"/>
      </g>
     </g>
     <g id="text_10">
      <!-- $\mathdefault{10^{2}}$ -->
      <g transform="translate(37.3808 314.594892)scale(0.2592 -0.2592)">
       <use transform="translate(0 0.765625)" xlink:href="#DejaVuSans-49"/>
       <use transform="translate(63.623047 0.765625)" xlink:href="#DejaVuSans-48"/>
       <use transform="translate(128.203125 39.046875)scale(0.7)" xlink:href="#DejaVuSans-50"/>
      </g>
     </g>
    </g>
    <g id="ytick_4">
     <g id="line2d_10">
      <g>
       <use style="stroke:#000000;stroke-width:0.8;" x="90" xlink:href="#m82e6b21780" y="226.270975"/>
      </g>
     </g>
     <g id="text_11">
      <!-- $\mathdefault{10^{3}}$ -->
      <defs>
       <path d="M 40.578125 39.3125 
Q 47.65625 37.796875 51.625 33 
Q 55.609375 28.21875 55.609375 21.1875 
Q 55.609375 10.40625 48.1875 4.484375 
Q 40.765625 -1.421875 27.09375 -1.421875 
Q 22.515625 -1.421875 17.65625 -0.515625 
Q 12.796875 0.390625 7.625 2.203125 
L 7.625 11.71875 
Q 11.71875 9.328125 16.59375 8.109375 
Q 21.484375 6.890625 26.8125 6.890625 
Q 36.078125 6.890625 40.9375 10.546875 
Q 45.796875 14.203125 45.796875 21.1875 
Q 45.796875 27.640625 41.28125 31.265625 
Q 36.765625 34.90625 28.71875 34.90625 
L 20.21875 34.90625 
L 20.21875 43.015625 
L 29.109375 43.015625 
Q 36.375 43.015625 40.234375 45.921875 
Q 44.09375 48.828125 44.09375 54.296875 
Q 44.09375 59.90625 40.109375 62.90625 
Q 36.140625 65.921875 28.71875 65.921875 
Q 24.65625 65.921875 20.015625 65.03125 
Q 15.375 64.15625 9.8125 62.3125 
L 9.8125 71.09375 
Q 15.4375 72.65625 20.34375 73.4375 
Q 25.25 74.21875 29.59375 74.21875 
Q 40.828125 74.21875 47.359375 69.109375 
Q 53.90625 64.015625 53.90625 55.328125 
Q 53.90625 49.265625 50.4375 45.09375 
Q 46.96875 40.921875 40.578125 39.3125 
z
" id="DejaVuSans-51"/>
      </defs>
      <g transform="translate(37.3808 236.11855)scale(0.2592 -0.2592)">
       <use transform="translate(0 0.765625)" xlink:href="#DejaVuSans-49"/>
       <use transform="translate(63.623047 0.765625)" xlink:href="#DejaVuSans-48"/>
       <use transform="translate(128.203125 39.046875)scale(0.7)" xlink:href="#DejaVuSans-51"/>
      </g>
     </g>
    </g>
    <g id="ytick_5">
     <g id="line2d_11">
      <g>
       <use style="stroke:#000000;stroke-width:0.8;" x="90" xlink:href="#m82e6b21780" y="147.794634"/>
      </g>
     </g>
     <g id="text_12">
      <!-- $\mathdefault{10^{4}}$ -->
      <g transform="translate(37.3808 157.642209)scale(0.2592 -0.2592)">
       <use transform="translate(0 0.684375)" xlink:href="#DejaVuSans-49"/>
       <use transform="translate(63.623047 0.684375)" xlink:href="#DejaVuSans-48"/>
       <use transform="translate(128.203125 38.965625)scale(0.7)" xlink:href="#DejaVuSans-52"/>
      </g>
     </g>
    </g>
    <g id="ytick_6">
     <g id="line2d_12">
      <g>
       <use style="stroke:#000000;stroke-width:0.8;" x="90" xlink:href="#m82e6b21780" y="69.318292"/>
      </g>
     </g>
     <g id="text_13">
      <!-- $\mathdefault{10^{5}}$ -->
      <defs>
       <path d="M 10.796875 72.90625 
L 49.515625 72.90625 
L 49.515625 64.59375 
L 19.828125 64.59375 
L 19.828125 46.734375 
Q 21.96875 47.46875 24.109375 47.828125 
Q 26.265625 48.1875 28.421875 48.1875 
Q 40.625 48.1875 47.75 41.5 
Q 54.890625 34.8125 54.890625 23.390625 
Q 54.890625 11.625 47.5625 5.09375 
Q 40.234375 -1.421875 26.90625 -1.421875 
Q 22.3125 -1.421875 17.546875 -0.640625 
Q 12.796875 0.140625 7.71875 1.703125 
L 7.71875 11.625 
Q 12.109375 9.234375 16.796875 8.0625 
Q 21.484375 6.890625 26.703125 6.890625 
Q 35.15625 6.890625 40.078125 11.328125 
Q 45.015625 15.765625 45.015625 23.390625 
Q 45.015625 31 40.078125 35.4375 
Q 35.15625 39.890625 26.703125 39.890625 
Q 22.75 39.890625 18.8125 39.015625 
Q 14.890625 38.140625 10.796875 36.28125 
z
" id="DejaVuSans-53"/>
      </defs>
      <g transform="translate(37.3808 79.165867)scale(0.2592 -0.2592)">
       <use transform="translate(0 0.684375)" xlink:href="#DejaVuSans-49"/>
       <use transform="translate(63.623047 0.684375)" xlink:href="#DejaVuSans-48"/>
       <use transform="translate(128.203125 38.965625)scale(0.7)" xlink:href="#DejaVuSans-53"/>
      </g>
     </g>
    </g>
    <g id="ytick_7">
     <g id="line2d_13">
      <defs>
       <path d="M 0 0 
L -2 0 
" id="m7225bff272" style="stroke:#000000;stroke-width:0.6;"/>
      </defs>
      <g>
       <use style="stroke:#000000;stroke-width:0.6;" x="90" xlink:href="#m7225bff272" y="479.109878"/>
      </g>
     </g>
    </g>
    <g id="ytick_8">
     <g id="line2d_14">
      <g>
       <use style="stroke:#000000;stroke-width:0.6;" x="90" xlink:href="#m7225bff272" y="473.856139"/>
      </g>
     </g>
    </g>
    <g id="ytick_9">
     <g id="line2d_15">
      <g>
       <use style="stroke:#000000;stroke-width:0.6;" x="90" xlink:href="#m7225bff272" y="469.305143"/>
      </g>
     </g>
    </g>
    <g id="ytick_10">
     <g id="line2d_16">
      <g>
       <use style="stroke:#000000;stroke-width:0.6;" x="90" xlink:href="#m7225bff272" y="465.29088"/>
      </g>
     </g>
    </g>
    <g id="ytick_11">
     <g id="line2d_17">
      <g>
       <use style="stroke:#000000;stroke-width:0.6;" x="90" xlink:href="#m7225bff272" y="438.076267"/>
      </g>
     </g>
    </g>
    <g id="ytick_12">
     <g id="line2d_18">
      <g>
       <use style="stroke:#000000;stroke-width:0.6;" x="90" xlink:href="#m7225bff272" y="424.257269"/>
      </g>
     </g>
    </g>
    <g id="ytick_13">
     <g id="line2d_19">
      <g>
       <use style="stroke:#000000;stroke-width:0.6;" x="90" xlink:href="#m7225bff272" y="414.452534"/>
      </g>
     </g>
    </g>
    <g id="ytick_14">
     <g id="line2d_20">
      <g>
       <use style="stroke:#000000;stroke-width:0.6;" x="90" xlink:href="#m7225bff272" y="406.847391"/>
      </g>
     </g>
    </g>
    <g id="ytick_15">
     <g id="line2d_21">
      <g>
       <use style="stroke:#000000;stroke-width:0.6;" x="90" xlink:href="#m7225bff272" y="400.633537"/>
      </g>
     </g>
    </g>
    <g id="ytick_16">
     <g id="line2d_22">
      <g>
       <use style="stroke:#000000;stroke-width:0.6;" x="90" xlink:href="#m7225bff272" y="395.379798"/>
      </g>
     </g>
    </g>
    <g id="ytick_17">
     <g id="line2d_23">
      <g>
       <use style="stroke:#000000;stroke-width:0.6;" x="90" xlink:href="#m7225bff272" y="390.828802"/>
      </g>
     </g>
    </g>
    <g id="ytick_18">
     <g id="line2d_24">
      <g>
       <use style="stroke:#000000;stroke-width:0.6;" x="90" xlink:href="#m7225bff272" y="386.814539"/>
      </g>
     </g>
    </g>
    <g id="ytick_19">
     <g id="line2d_25">
      <g>
       <use style="stroke:#000000;stroke-width:0.6;" x="90" xlink:href="#m7225bff272" y="359.599926"/>
      </g>
     </g>
    </g>
    <g id="ytick_20">
     <g id="line2d_26">
      <g>
       <use style="stroke:#000000;stroke-width:0.6;" x="90" xlink:href="#m7225bff272" y="345.780928"/>
      </g>
     </g>
    </g>
    <g id="ytick_21">
     <g id="line2d_27">
      <g>
       <use style="stroke:#000000;stroke-width:0.6;" x="90" xlink:href="#m7225bff272" y="335.976193"/>
      </g>
     </g>
    </g>
    <g id="ytick_22">
     <g id="line2d_28">
      <g>
       <use style="stroke:#000000;stroke-width:0.6;" x="90" xlink:href="#m7225bff272" y="328.37105"/>
      </g>
     </g>
    </g>
    <g id="ytick_23">
     <g id="line2d_29">
      <g>
       <use style="stroke:#000000;stroke-width:0.6;" x="90" xlink:href="#m7225bff272" y="322.157195"/>
      </g>
     </g>
    </g>
    <g id="ytick_24">
     <g id="line2d_30">
      <g>
       <use style="stroke:#000000;stroke-width:0.6;" x="90" xlink:href="#m7225bff272" y="316.903456"/>
      </g>
     </g>
    </g>
    <g id="ytick_25">
     <g id="line2d_31">
      <g>
       <use style="stroke:#000000;stroke-width:0.6;" x="90" xlink:href="#m7225bff272" y="312.35246"/>
      </g>
     </g>
    </g>
    <g id="ytick_26">
     <g id="line2d_32">
      <g>
       <use style="stroke:#000000;stroke-width:0.6;" x="90" xlink:href="#m7225bff272" y="308.338197"/>
      </g>
     </g>
    </g>
    <g id="ytick_27">
     <g id="line2d_33">
      <g>
       <use style="stroke:#000000;stroke-width:0.6;" x="90" xlink:href="#m7225bff272" y="281.123584"/>
      </g>
     </g>
    </g>
    <g id="ytick_28">
     <g id="line2d_34">
      <g>
       <use style="stroke:#000000;stroke-width:0.6;" x="90" xlink:href="#m7225bff272" y="267.304586"/>
      </g>
     </g>
    </g>
    <g id="ytick_29">
     <g id="line2d_35">
      <g>
       <use style="stroke:#000000;stroke-width:0.6;" x="90" xlink:href="#m7225bff272" y="257.499851"/>
      </g>
     </g>
    </g>
    <g id="ytick_30">
     <g id="line2d_36">
      <g>
       <use style="stroke:#000000;stroke-width:0.6;" x="90" xlink:href="#m7225bff272" y="249.894708"/>
      </g>
     </g>
    </g>
    <g id="ytick_31">
     <g id="line2d_37">
      <g>
       <use style="stroke:#000000;stroke-width:0.6;" x="90" xlink:href="#m7225bff272" y="243.680854"/>
      </g>
     </g>
    </g>
    <g id="ytick_32">
     <g id="line2d_38">
      <g>
       <use style="stroke:#000000;stroke-width:0.6;" x="90" xlink:href="#m7225bff272" y="238.427114"/>
      </g>
     </g>
    </g>
    <g id="ytick_33">
     <g id="line2d_39">
      <g>
       <use style="stroke:#000000;stroke-width:0.6;" x="90" xlink:href="#m7225bff272" y="233.876119"/>
      </g>
     </g>
    </g>
    <g id="ytick_34">
     <g id="line2d_40">
      <g>
       <use style="stroke:#000000;stroke-width:0.6;" x="90" xlink:href="#m7225bff272" y="229.861856"/>
      </g>
     </g>
    </g>
    <g id="ytick_35">
     <g id="line2d_41">
      <g>
       <use style="stroke:#000000;stroke-width:0.6;" x="90" xlink:href="#m7225bff272" y="202.647243"/>
      </g>
     </g>
    </g>
    <g id="ytick_36">
     <g id="line2d_42">
      <g>
       <use style="stroke:#000000;stroke-width:0.6;" x="90" xlink:href="#m7225bff272" y="188.828245"/>
      </g>
     </g>
    </g>
    <g id="ytick_37">
     <g id="line2d_43">
      <g>
       <use style="stroke:#000000;stroke-width:0.6;" x="90" xlink:href="#m7225bff272" y="179.02351"/>
      </g>
     </g>
    </g>
    <g id="ytick_38">
     <g id="line2d_44">
      <g>
       <use style="stroke:#000000;stroke-width:0.6;" x="90" xlink:href="#m7225bff272" y="171.418367"/>
      </g>
     </g>
    </g>
    <g id="ytick_39">
     <g id="line2d_45">
      <g>
       <use style="stroke:#000000;stroke-width:0.6;" x="90" xlink:href="#m7225bff272" y="165.204512"/>
      </g>
     </g>
    </g>
    <g id="ytick_40">
     <g id="line2d_46">
      <g>
       <use style="stroke:#000000;stroke-width:0.6;" x="90" xlink:href="#m7225bff272" y="159.950773"/>
      </g>
     </g>
    </g>
    <g id="ytick_41">
     <g id="line2d_47">
      <g>
       <use style="stroke:#000000;stroke-width:0.6;" x="90" xlink:href="#m7225bff272" y="155.399777"/>
      </g>
     </g>
    </g>
    <g id="ytick_42">
     <g id="line2d_48">
      <g>
       <use style="stroke:#000000;stroke-width:0.6;" x="90" xlink:href="#m7225bff272" y="151.385514"/>
      </g>
     </g>
    </g>
    <g id="ytick_43">
     <g id="line2d_49">
      <g>
       <use style="stroke:#000000;stroke-width:0.6;" x="90" xlink:href="#m7225bff272" y="124.170901"/>
      </g>
     </g>
    </g>
    <g id="ytick_44">
     <g id="line2d_50">
      <g>
       <use style="stroke:#000000;stroke-width:0.6;" x="90" xlink:href="#m7225bff272" y="110.351903"/>
      </g>
     </g>
    </g>
    <g id="ytick_45">
     <g id="line2d_51">
      <g>
       <use style="stroke:#000000;stroke-width:0.6;" x="90" xlink:href="#m7225bff272" y="100.547168"/>
      </g>
     </g>
    </g>
    <g id="ytick_46">
     <g id="line2d_52">
      <g>
       <use style="stroke:#000000;stroke-width:0.6;" x="90" xlink:href="#m7225bff272" y="92.942025"/>
      </g>
     </g>
    </g>
    <g id="ytick_47">
     <g id="line2d_53">
      <g>
       <use style="stroke:#000000;stroke-width:0.6;" x="90" xlink:href="#m7225bff272" y="86.72817"/>
      </g>
     </g>
    </g>
    <g id="ytick_48">
     <g id="line2d_54">
      <g>
       <use style="stroke:#000000;stroke-width:0.6;" x="90" xlink:href="#m7225bff272" y="81.474431"/>
      </g>
     </g>
    </g>
    <g id="ytick_49">
     <g id="line2d_55">
      <g>
       <use style="stroke:#000000;stroke-width:0.6;" x="90" xlink:href="#m7225bff272" y="76.923435"/>
      </g>
     </g>
    </g>
    <g id="ytick_50">
     <g id="line2d_56">
      <g>
       <use style="stroke:#000000;stroke-width:0.6;" x="90" xlink:href="#m7225bff272" y="72.909173"/>
      </g>
     </g>
    </g>
    <g id="text_14">
     <!-- Count -->
     <defs>
      <path d="M 64.40625 67.28125 
L 64.40625 56.890625 
Q 59.421875 61.53125 53.78125 63.8125 
Q 48.140625 66.109375 41.796875 66.109375 
Q 29.296875 66.109375 22.65625 58.46875 
Q 16.015625 50.828125 16.015625 36.375 
Q 16.015625 21.96875 22.65625 14.328125 
Q 29.296875 6.6875 41.796875 6.6875 
Q 48.140625 6.6875 53.78125 8.984375 
Q 59.421875 11.28125 64.40625 15.921875 
L 64.40625 5.609375 
Q 59.234375 2.09375 53.4375 0.328125 
Q 47.65625 -1.421875 41.21875 -1.421875 
Q 24.65625 -1.421875 15.125 8.703125 
Q 5.609375 18.84375 5.609375 36.375 
Q 5.609375 53.953125 15.125 64.078125 
Q 24.65625 74.21875 41.21875 74.21875 
Q 47.75 74.21875 53.53125 72.484375 
Q 59.328125 70.75 64.40625 67.28125 
z
" id="DejaVuSans-67"/>
      <path d="M 30.609375 48.390625 
Q 23.390625 48.390625 19.1875 42.75 
Q 14.984375 37.109375 14.984375 27.296875 
Q 14.984375 17.484375 19.15625 11.84375 
Q 23.34375 6.203125 30.609375 6.203125 
Q 37.796875 6.203125 41.984375 11.859375 
Q 46.1875 17.53125 46.1875 27.296875 
Q 46.1875 37.015625 41.984375 42.703125 
Q 37.796875 48.390625 30.609375 48.390625 
z
M 30.609375 56 
Q 42.328125 56 49.015625 48.375 
Q 55.71875 40.765625 55.71875 27.296875 
Q 55.71875 13.875 49.015625 6.21875 
Q 42.328125 -1.421875 30.609375 -1.421875 
Q 18.84375 -1.421875 12.171875 6.21875 
Q 5.515625 13.875 5.515625 27.296875 
Q 5.515625 40.765625 12.171875 48.375 
Q 18.84375 56 30.609375 56 
z
" id="DejaVuSans-111"/>
      <path d="M 54.890625 33.015625 
L 54.890625 0 
L 45.90625 0 
L 45.90625 32.71875 
Q 45.90625 40.484375 42.875 44.328125 
Q 39.84375 48.1875 33.796875 48.1875 
Q 26.515625 48.1875 22.3125 43.546875 
Q 18.109375 38.921875 18.109375 30.90625 
L 18.109375 0 
L 9.078125 0 
L 9.078125 54.6875 
L 18.109375 54.6875 
L 18.109375 46.1875 
Q 21.34375 51.125 25.703125 53.5625 
Q 30.078125 56 35.796875 56 
Q 45.21875 56 50.046875 50.171875 
Q 54.890625 44.34375 54.890625 33.015625 
z
" id="DejaVuSans-110"/>
     </defs>
     <g transform="translate(27.99025 311.18715)rotate(-90)scale(0.2592 -0.2592)">
      <use xlink:href="#DejaVuSans-67"/>
      <use x="69.824219" xlink:href="#DejaVuSans-111"/>
      <use x="131.005859" xlink:href="#DejaVuSans-117"/>
      <use x="194.384766" xlink:href="#DejaVuSans-110"/>
      <use x="257.763672" xlink:href="#DejaVuSans-116"/>
     </g>
    </g>
   </g>
   <g id="line2d_57">
    <path clip-path="url(#pa3c383bd5b)" d="M 90 357.937067 
L 101.387755 357.937067 
L 101.387755 414.452534 
L 112.77551 414.452534 
L 112.77551 438.076267 
L 124.163265 438.076267 
L 124.163265 438.076267 
L 135.55102 438.076267 
L 135.55102 541 
M 146.938776 541 
L 146.938776 395.379798 
L 158.326531 395.379798 
L 158.326531 438.076267 
L 169.714286 438.076267 
L 169.714286 390.828802 
L 181.102041 390.828802 
L 181.102041 386.814539 
L 192.489796 386.814539 
L 192.489796 379.975312 
L 203.877551 379.975312 
L 203.877551 379.975312 
L 215.265306 379.975312 
L 215.265306 357.937067 
L 226.653061 357.937067 
L 226.653061 353.386071 
L 238.040816 353.386071 
L 238.040816 353.386071 
L 249.428571 353.386071 
L 249.428571 340.527189 
L 260.816327 340.527189 
L 260.816327 328.37105 
L 272.204082 328.37105 
L 272.204082 335.976193 
L 283.591837 335.976193 
L 283.591837 321.039658 
L 294.979592 321.039658 
L 294.979592 327.034335 
L 306.367347 327.034335 
L 306.367347 316.420018 
L 317.755102 316.420018 
L 317.755102 312.35246 
L 329.142857 312.35246 
L 329.142857 314.552052 
L 340.530612 314.552052 
L 340.530612 300.884867 
L 351.918367 300.884867 
L 351.918367 301.190535 
L 363.306122 301.190535 
L 363.306122 299.10628 
L 374.693878 299.10628 
L 374.693878 291.616865 
L 386.081633 291.616865 
L 386.081633 291.849506 
L 397.469388 291.849506 
L 397.469388 294.772597 
L 408.857143 294.772597 
L 408.857143 291.849506 
L 420.244898 291.849506 
L 420.244898 293.279723 
L 431.632653 293.279723 
L 431.632653 293.770118 
L 443.020408 293.770118 
L 443.020408 296.870604 
L 454.408163 296.870604 
L 454.408163 289.591605 
L 465.795918 289.591605 
L 465.795918 290.253409 
L 477.183673 290.253409 
L 477.183673 289.591605 
L 488.571429 289.591605 
L 488.571429 289.591605 
L 499.959184 289.591605 
L 499.959184 293.524039 
L 511.346939 293.524039 
L 511.346939 287.679973 
L 522.734694 287.679973 
L 522.734694 284.151116 
L 534.122449 284.151116 
L 534.122449 284.337866 
L 545.510204 284.337866 
L 545.510204 283.965383 
L 556.897959 283.965383 
L 556.897959 282.16169 
L 568.285714 282.16169 
L 568.285714 266.407644 
L 579.673469 266.407644 
L 579.673469 268.342692 
L 591.061224 268.342692 
L 591.061224 255.114382 
L 602.44898 255.114382 
L 602.44898 246.708385 
L 613.836735 246.708385 
L 613.836735 233.66377 
L 625.22449 233.66377 
L 625.22449 216.731403 
L 636.612245 216.731403 
L 636.612245 147.903871 
L 648 147.903871 
" style="fill:none;stroke:#1f77b4;stroke-linecap:square;stroke-width:1.5;"/>
   </g>
   <g id="line2d_58">
    <path clip-path="url(#pa3c383bd5b)" d="M 90 309.887639 
L 101.387755 309.887639 
L 101.387755 379.975312 
L 112.77551 379.975312 
L 112.77551 367.205069 
L 124.163265 367.205069 
L 124.163265 346.936355 
L 135.55102 346.936355 
L 135.55102 359.599926 
L 146.938776 359.599926 
L 146.938776 346.936355 
L 158.326531 346.936355 
L 158.326531 344.66339 
L 169.714286 344.66339 
L 169.714286 331.96193 
L 181.102041 331.96193 
L 181.102041 337.724363 
L 192.489796 337.724363 
L 192.489796 325.122703 
L 203.877551 325.122703 
L 203.877551 314.552052 
L 215.265306 314.552052 
L 215.265306 313.215338 
L 226.653061 313.215338 
L 226.653061 315.943341 
L 238.040816 315.943341 
L 238.040816 309.493625 
L 249.428571 309.493625 
L 249.428571 294.267672 
L 260.816327 294.267672 
L 260.816327 294.772597 
L 272.204082 294.772597 
L 272.204082 291.616865 
L 283.591837 291.616865 
L 283.591837 288.305345 
L 294.979592 288.305345 
L 294.979592 284.714465 
L 306.367347 284.714465 
L 306.367347 279.460725 
L 317.755102 279.460725 
L 317.755102 282.514873 
L 329.142857 282.514873 
L 329.142857 271.02193 
L 340.530612 271.02193 
L 340.530612 263.953118 
L 351.918367 263.953118 
L 351.918367 265.104995 
L 363.306122 265.104995 
L 363.306122 261.471538 
L 374.693878 261.471538 
L 374.693878 255.273644 
L 386.081633 255.273644 
L 386.081633 254.251505 
L 397.469388 254.251505 
L 397.469388 252.662496 
L 408.857143 252.662496 
L 408.857143 249.758653 
L 420.244898 249.758653 
L 420.244898 245.548819 
L 431.632653 245.548819 
L 431.632653 246.522652 
L 443.020408 246.522652 
L 443.020408 247.588777 
L 454.408163 247.588777 
L 454.408163 243.117504 
L 465.795918 243.117504 
L 465.795918 243.680854 
L 477.183673 243.680854 
L 477.183673 240.848144 
L 488.571429 240.848144 
L 488.571429 236.395301 
L 499.959184 236.395301 
L 499.959184 236.671642 
L 511.346939 236.671642 
L 511.346939 230.666523 
L 522.734694 230.666523 
L 522.734694 226.270975 
L 534.122449 226.270975 
L 534.122449 221.241942 
L 545.510204 221.241942 
L 545.510204 217.224412 
L 556.897959 217.224412 
L 556.897959 212.520209 
L 568.285714 212.520209 
L 568.285714 203.967601 
L 579.673469 203.967601 
L 579.673469 195.88401 
L 591.061224 195.88401 
L 591.061224 185.497376 
L 602.44898 185.497376 
L 602.44898 173.694387 
L 613.836735 173.694387 
L 613.836735 158.093715 
L 625.22449 158.093715 
L 625.22449 135.903658 
L 636.612245 135.903658 
L 636.612245 83.7 
L 648 83.7 
" style="fill:none;stroke:#ff7f0e;stroke-linecap:square;stroke-width:1.5;"/>
   </g>
   <g id="line2d_59">
    <path clip-path="url(#pa3c383bd5b)" d="M 90 357.937067 
L 101.387755 357.937067 
L 101.387755 424.257269 
L 112.77551 424.257269 
L 112.77551 438.076267 
L 124.163265 438.076267 
L 124.163265 400.633537 
L 135.55102 400.633537 
L 135.55102 438.076267 
L 146.938776 438.076267 
L 146.938776 406.847391 
L 158.326531 406.847391 
L 158.326531 395.379798 
L 169.714286 395.379798 
L 169.714286 379.975312 
L 181.102041 379.975312 
L 181.102041 390.828802 
L 192.489796 390.828802 
L 192.489796 377.009804 
L 203.877551 377.009804 
L 203.877551 369.404661 
L 215.265306 369.404661 
L 215.265306 349.371808 
L 226.653061 349.371808 
L 226.653061 361.348096 
L 238.040816 361.348096 
L 238.040816 340.527189 
L 249.428571 340.527189 
L 249.428571 342.532581 
L 260.816327 342.532581 
L 260.816327 342.532581 
L 272.204082 342.532581 
L 272.204082 336.83907 
L 283.591837 336.83907 
L 283.591837 328.37105 
L 294.979592 328.37105 
L 294.979592 324.508599 
L 306.367347 324.508599 
L 306.367347 322.157195 
L 317.755102 322.157195 
L 317.755102 316.903456 
L 329.142857 316.903456 
L 329.142857 307.961599 
L 340.530612 307.961599 
L 340.530612 300.581915 
L 351.918367 300.581915 
L 351.918367 297.970113 
L 363.306122 297.970113 
L 363.306122 289.810782 
L 374.693878 289.810782 
L 374.693878 294.017987 
L 386.081633 294.017987 
L 386.081633 286.863602 
L 397.469388 286.863602 
L 397.469388 286.863602 
L 408.857143 286.863602 
L 408.857143 284.337866 
L 420.244898 284.337866 
L 420.244898 275.772607 
L 431.632653 275.772607 
L 431.632653 284.904336 
L 443.020408 284.904336 
L 443.020408 282.871754 
L 454.408163 282.871754 
L 454.408163 278.817653 
L 465.795918 278.817653 
L 465.795918 287.269343 
L 477.183673 287.269343 
L 477.183673 278.030508 
L 488.571429 278.030508 
L 488.571429 277.566803 
L 499.959184 277.566803 
L 499.959184 277.875238 
L 511.346939 277.875238 
L 511.346939 272.710138 
L 522.734694 272.710138 
L 522.734694 269.413414 
L 534.122449 269.413414 
L 534.122449 269.052756 
L 545.510204 269.052756 
L 545.510204 264.892646 
L 556.897959 264.892646 
L 556.897959 261.856648 
L 568.285714 261.856648 
L 568.285714 252.810679 
L 579.673469 252.810679 
L 579.673469 250.306164 
L 591.061224 250.306164 
L 591.061224 240.952851 
L 602.44898 240.952851 
L 602.44898 231.37169 
L 613.836735 231.37169 
L 613.836735 218.044426 
L 625.22449 218.044426 
L 625.22449 198.136743 
L 636.612245 198.136743 
L 636.612245 135.611581 
L 648 135.611581 
" style="fill:none;stroke:#2ca02c;stroke-linecap:square;stroke-width:1.5;"/>
   </g>
   <g id="line2d_60">
    <path clip-path="url(#pa3c383bd5b)" d="M 90 335.134623 
L 101.387755 335.134623 
L 101.387755 400.633537 
L 112.77551 400.633537 
L 112.77551 390.828802 
L 124.163265 390.828802 
L 124.163265 379.975312 
L 135.55102 379.975312 
L 135.55102 374.281801 
L 146.938776 374.281801 
L 146.938776 377.009804 
L 158.326531 377.009804 
L 158.326531 379.975312 
L 169.714286 379.975312 
L 169.714286 367.205069 
L 181.102041 367.205069 
L 181.102041 359.599926 
L 192.489796 359.599926 
L 192.489796 348.132332 
L 203.877551 348.132332 
L 203.877551 339.567073 
L 215.265306 339.567073 
L 215.265306 351.994782 
L 226.653061 351.994782 
L 226.653061 354.836581 
L 238.040816 354.836581 
L 238.040816 340.527189 
L 249.428571 340.527189 
L 249.428571 323.312622 
L 260.816327 323.312622 
L 260.816327 329.059595 
L 272.204082 329.059595 
L 272.204082 323.312622 
L 283.591837 323.312622 
L 283.591837 319.957603 
L 294.979592 319.957603 
L 294.979592 319.957603 
L 306.367347 319.957603 
L 306.367347 310.689601 
L 317.755102 310.689601 
L 317.755102 318.908849 
L 329.142857 318.908849 
L 329.142857 303.410603 
L 340.530612 303.410603 
L 340.530612 301.190535 
L 351.918367 301.190535 
L 351.918367 300.884867 
L 363.306122 300.884867 
L 363.306122 299.983972 
L 374.693878 299.983972 
L 374.693878 285.67458 
L 386.081633 285.67458 
L 386.081633 292.319608 
L 397.469388 292.319608 
L 397.469388 283.414182 
L 408.857143 283.414182 
L 408.857143 281.986462 
L 420.244898 281.986462 
L 420.244898 282.337824 
L 431.632653 282.337824 
L 431.632653 279.298816 
L 443.020408 279.298816 
L 443.020408 280.116166 
L 454.408163 280.116166 
L 454.408163 275.627269 
L 465.795918 275.627269 
L 465.795918 271.920562 
L 477.183673 271.920562 
L 477.183673 271.276273 
L 488.571429 271.276273 
L 488.571429 261.567409 
L 499.959184 261.567409 
L 499.959184 261.185535 
L 511.346939 261.185535 
L 511.346939 253.94307 
L 522.734694 253.94307 
L 522.734694 248.689331 
L 534.122449 248.689331 
L 534.122449 241.374922 
L 545.510204 241.374922 
L 545.510204 236.257967 
L 556.897959 236.257967 
L 556.897959 229.635398 
L 568.285714 229.635398 
L 568.285714 219.717995 
L 579.673469 219.717995 
L 579.673469 209.744954 
L 591.061224 209.744954 
L 591.061224 198.784792 
L 602.44898 198.784792 
L 602.44898 184.894864 
L 613.836735 184.894864 
L 613.836735 167.990788 
L 625.22449 167.990788 
L 625.22449 144.667338 
L 636.612245 144.667338 
L 636.612245 94.006141 
L 648 94.006141 
" style="fill:none;stroke:#d62728;stroke-linecap:square;stroke-width:1.5;"/>
   </g>
   <g id="line2d_61">
    <path clip-path="url(#pa3c383bd5b)" d="M 90 438.076267 
L 101.387755 438.076267 
L 101.387755 541 
M 112.77551 541 
L 112.77551 461.7 
L 124.163265 461.7 
L 124.163265 461.7 
L 135.55102 461.7 
L 135.55102 541 
M 146.938776 541 
L 146.938776 438.076267 
L 158.326531 438.076267 
L 158.326531 461.7 
L 169.714286 461.7 
L 169.714286 414.452534 
L 181.102041 414.452534 
L 181.102041 461.7 
L 192.489796 461.7 
L 192.489796 400.633537 
L 203.877551 400.633537 
L 203.877551 414.452534 
L 215.265306 414.452534 
L 215.265306 414.452534 
L 226.653061 414.452534 
L 226.653061 379.975312 
L 238.040816 379.975312 
L 238.040816 371.756065 
L 249.428571 371.756065 
L 249.428571 386.814539 
L 260.816327 386.814539 
L 260.816327 374.281801 
L 272.204082 374.281801 
L 272.204082 374.281801 
L 283.591837 374.281801 
L 283.591837 354.836581 
L 294.979592 354.836581 
L 294.979592 353.386071 
L 306.367347 353.386071 
L 306.367347 345.780928 
L 317.755102 345.780928 
L 317.755102 342.532581 
L 329.142857 342.532581 
L 329.142857 344.66339 
L 340.530612 344.66339 
L 340.530612 335.976193 
L 351.918367 335.976193 
L 351.918367 329.762338 
L 363.306122 329.762338 
L 363.306122 335.976193 
L 374.693878 335.976193 
L 374.693878 332.727846 
L 386.081633 332.727846 
L 386.081633 323.905365 
L 397.469388 323.905365 
L 397.469388 330.479877 
L 408.857143 330.479877 
L 408.857143 330.479877 
L 420.244898 330.479877 
L 420.244898 342.532581 
L 431.632653 342.532581 
L 431.632653 330.479877 
L 443.020408 330.479877 
L 443.020408 339.567073 
L 454.408163 339.567073 
L 454.408163 329.762338 
L 465.795918 329.762338 
L 465.795918 333.511372 
L 477.183673 333.511372 
L 477.183673 332.727846 
L 488.571429 332.727846 
L 488.571429 327.69614 
L 499.959184 327.69614 
L 499.959184 341.515137 
L 511.346939 341.515137 
L 511.346939 327.69614 
L 522.734694 327.69614 
L 522.734694 326.385138 
L 534.122449 326.385138 
L 534.122449 333.511372 
L 545.510204 333.511372 
L 545.510204 333.511372 
L 556.897959 333.511372 
L 556.897959 328.37105 
L 568.285714 328.37105 
L 568.285714 311.929078 
L 579.673469 311.929078 
L 579.673469 309.493625 
L 591.061224 309.493625 
L 591.061224 295.285116 
L 602.44898 295.285116 
L 602.44898 290.928319 
L 613.836735 290.928319 
L 613.836735 279.623408 
L 625.22449 279.623408 
L 625.22449 274.206986 
L 636.612245 274.206986 
L 636.612245 218.693108 
L 648 218.693108 
" style="fill:none;stroke:#9467bd;stroke-linecap:square;stroke-width:1.5;"/>
   </g>
   <g id="line2d_62">
    <path clip-path="url(#pa3c383bd5b)" d="M 90 361.348096 
L 101.387755 361.348096 
L 101.387755 414.452534 
L 112.77551 414.452534 
L 112.77551 461.7 
L 124.163265 461.7 
L 124.163265 461.7 
L 135.55102 461.7 
L 135.55102 541 
M 146.938776 541 
L 146.938776 406.847391 
L 158.326531 406.847391 
L 158.326531 461.7 
L 169.714286 461.7 
L 169.714286 414.452534 
L 181.102041 414.452534 
L 181.102041 390.828802 
L 192.489796 390.828802 
L 192.489796 406.847391 
L 203.877551 406.847391 
L 203.877551 395.379798 
L 215.265306 395.379798 
L 215.265306 365.13887 
L 226.653061 365.13887 
L 226.653061 374.281801 
L 238.040816 374.281801 
L 238.040816 383.223658 
L 249.428571 383.223658 
L 249.428571 350.658068 
L 260.816327 350.658068 
L 260.816327 338.633266 
L 272.204082 338.633266 
L 272.204082 349.371808 
L 283.591837 349.371808 
L 283.591837 336.83907 
L 294.979592 336.83907 
L 294.979592 348.132332 
L 306.367347 348.132332 
L 306.367347 335.134623 
L 317.755102 335.134623 
L 317.755102 330.479877 
L 329.142857 330.479877 
L 329.142857 332.727846 
L 340.530612 332.727846 
L 340.530612 315.943341 
L 351.918367 315.943341 
L 351.918367 320.494336 
L 363.306122 320.494336 
L 363.306122 313.215338 
L 374.693878 313.215338 
L 374.693878 303.739898 
L 386.081633 303.739898 
L 386.081633 308.719004 
L 397.469388 308.719004 
L 397.469388 309.493625 
L 408.857143 309.493625 
L 408.857143 305.089851 
L 420.244898 305.089851 
L 420.244898 302.441385 
L 431.632653 302.441385 
L 431.632653 307.961599 
L 443.020408 307.961599 
L 443.020408 308.338197 
L 454.408163 308.338197 
L 454.408163 302.124343 
L 465.795918 302.124343 
L 465.795918 301.49897 
L 477.183673 301.49897 
L 477.183673 300.884867 
L 488.571429 300.884867 
L 488.571429 303.084458 
L 499.959184 303.084458 
L 499.959184 303.084458 
L 511.346939 303.084458 
L 511.346939 300.281632 
L 522.734694 300.281632 
L 522.734694 295.805459 
L 534.122449 295.805459 
L 534.122449 293.524039 
L 545.510204 293.524039 
L 545.510204 293.037147 
L 556.897959 293.037147 
L 556.897959 292.319608 
L 568.285714 292.319608 
L 568.285714 276.80771 
L 579.673469 276.80771 
L 579.673469 280.448674 
L 591.061224 280.448674 
L 591.061224 267.64712 
L 602.44898 267.64712 
L 602.44898 257.585163 
L 613.836735 257.585163 
L 613.836735 243.908827 
L 625.22449 243.908827 
L 625.22449 223.711174 
L 636.612245 223.711174 
L 636.612245 152.466591 
L 648 152.466591 
" style="fill:none;stroke:#8c564b;stroke-linecap:square;stroke-width:1.5;"/>
   </g>
   <g id="line2d_63">
    <path clip-path="url(#pa3c383bd5b)" d="M 90 354.836581 
L 101.387755 354.836581 
L 101.387755 438.076267 
L 112.77551 438.076267 
L 112.77551 406.847391 
L 124.163265 406.847391 
L 124.163265 377.009804 
L 135.55102 377.009804 
L 135.55102 414.452534 
L 146.938776 414.452534 
L 146.938776 379.975312 
L 158.326531 379.975312 
L 158.326531 377.009804 
L 169.714286 377.009804 
L 169.714286 365.13887 
L 181.102041 365.13887 
L 181.102041 386.814539 
L 192.489796 386.814539 
L 192.489796 369.404661 
L 203.877551 369.404661 
L 203.877551 353.386071 
L 215.265306 353.386071 
L 215.265306 350.658068 
L 226.653061 350.658068 
L 226.653061 348.132332 
L 238.040816 348.132332 
L 238.040816 365.13887 
L 249.428571 365.13887 
L 249.428571 332.727846 
L 260.816327 332.727846 
L 260.816327 328.37105 
L 272.204082 328.37105 
L 272.204082 330.479877 
L 283.591837 330.479877 
L 283.591837 330.479877 
L 294.979592 330.479877 
L 294.979592 323.312622 
L 306.367347 323.312622 
L 306.367347 321.039658 
L 317.755102 321.039658 
L 317.755102 327.034335 
L 329.142857 327.034335 
L 329.142857 315.473239 
L 340.530612 315.473239 
L 340.530612 304.747317 
L 351.918367 304.747317 
L 351.918367 309.887639 
L 363.306122 309.887639 
L 363.306122 311.929078 
L 374.693878 311.929078 
L 374.693878 301.810222 
L 386.081633 301.810222 
L 386.081633 298.818668 
L 397.469388 298.818668 
L 397.469388 304.408191 
L 408.857143 304.408191 
L 408.857143 300.281632 
L 420.244898 300.281632 
L 420.244898 294.5192 
L 431.632653 294.5192 
L 431.632653 291.3858 
L 443.020408 291.3858 
L 443.020408 295.544295 
L 454.408163 295.544295 
L 454.408163 290.031377 
L 465.795918 290.031377 
L 465.795918 288.305345 
L 477.183673 288.305345 
L 477.183673 289.157435 
L 488.571429 289.157435 
L 488.571429 289.157435 
L 499.959184 289.157435 
L 499.959184 291.156292 
L 511.346939 291.156292 
L 511.346939 286.863602 
L 522.734694 286.863602 
L 522.734694 283.965383 
L 534.122449 283.965383 
L 534.122449 277.875238 
L 545.510204 277.875238 
L 545.510204 278.186489 
L 556.897959 278.186489 
L 556.897959 276.508745 
L 568.285714 276.508745 
L 568.285714 274.90973 
L 579.673469 274.90973 
L 579.673469 267.993132 
L 591.061224 267.993132 
L 591.061224 258.537957 
L 602.44898 258.537957 
L 602.44898 256.492433 
L 613.836735 256.492433 
L 613.836735 247.020206 
L 625.22449 247.020206 
L 625.22449 232.539404 
L 636.612245 232.539404 
L 636.612245 194.622083 
L 648 194.622083 
" style="fill:none;stroke:#e377c2;stroke-linecap:square;stroke-width:1.5;"/>
   </g>
   <g id="line2d_64">
    <path clip-path="url(#pa3c383bd5b)" d="M 536.4 480.6 
L 536.4 64.8 
" style="fill:none;stroke:#000000;stroke-linecap:square;stroke-width:1.5;"/>
   </g>
   <g id="patch_5">
    <path d="M 90 480.6 
L 90 64.8 
" style="fill:none;stroke:#000000;stroke-linecap:square;stroke-linejoin:miter;stroke-width:0.8;"/>
   </g>
   <g id="patch_6">
    <path d="M 648 480.6 
L 648 64.8 
" style="fill:none;stroke:#000000;stroke-linecap:square;stroke-linejoin:miter;stroke-width:0.8;"/>
   </g>
   <g id="patch_7">
    <path d="M 90 480.6 
L 648 480.6 
" style="fill:none;stroke:#000000;stroke-linecap:square;stroke-linejoin:miter;stroke-width:0.8;"/>
   </g>
   <g id="patch_8">
    <path d="M 90 64.8 
L 648 64.8 
" style="fill:none;stroke:#000000;stroke-linecap:square;stroke-linejoin:miter;stroke-width:0.8;"/>
   </g>
   <g id="patch_9">
    <path d="M 582.165031 93.906 
Q 561.40106 93.906 538.401022 93.906 
" style="fill:none;stroke:#000000;stroke-linecap:round;stroke-width:2;"/>
    <path d="M 576.165031 90.906 
L 582.165031 93.906 
L 576.165031 96.906 
L 576.165031 90.906 
z
" style="fill:#1f77b4;stroke:#000000;stroke-linecap:round;stroke-width:2;"/>
   </g>
   <g id="legend_1">
    <g id="patch_10">
     <path d="M 102.6 264.144375 
L 352.805625 264.144375 
Q 356.405625 264.144375 356.405625 260.544375 
L 356.405625 77.4 
Q 356.405625 73.8 352.805625 73.8 
L 102.6 73.8 
Q 99 73.8 99 77.4 
L 99 260.544375 
Q 99 264.144375 102.6 264.144375 
z
" style="fill:#ffffff;opacity:0.5;stroke:#cccccc;stroke-linejoin:miter;"/>
    </g>
    <g id="line2d_65">
     <path d="M 106.2 88.377188 
L 142.2 88.377188 
" style="fill:none;stroke:#1f77b4;stroke-linecap:square;stroke-width:1.5;"/>
    </g>
    <g id="line2d_66"/>
    <g id="text_15">
     <!-- Showers -->
     <defs>
      <path d="M 53.515625 70.515625 
L 53.515625 60.890625 
Q 47.90625 63.578125 42.921875 64.890625 
Q 37.9375 66.21875 33.296875 66.21875 
Q 25.25 66.21875 20.875 63.09375 
Q 16.5 59.96875 16.5 54.203125 
Q 16.5 49.359375 19.40625 46.890625 
Q 22.3125 44.4375 30.421875 42.921875 
L 36.375 41.703125 
Q 47.40625 39.59375 52.65625 34.296875 
Q 57.90625 29 57.90625 20.125 
Q 57.90625 9.515625 50.796875 4.046875 
Q 43.703125 -1.421875 29.984375 -1.421875 
Q 24.8125 -1.421875 18.96875 -0.25 
Q 13.140625 0.921875 6.890625 3.21875 
L 6.890625 13.375 
Q 12.890625 10.015625 18.65625 8.296875 
Q 24.421875 6.59375 29.984375 6.59375 
Q 38.421875 6.59375 43.015625 9.90625 
Q 47.609375 13.234375 47.609375 19.390625 
Q 47.609375 24.75 44.3125 27.78125 
Q 41.015625 30.8125 33.5 32.328125 
L 27.484375 33.5 
Q 16.453125 35.6875 11.515625 40.375 
Q 6.59375 45.0625 6.59375 53.421875 
Q 6.59375 63.09375 13.40625 68.65625 
Q 20.21875 74.21875 32.171875 74.21875 
Q 37.3125 74.21875 42.625 73.28125 
Q 47.953125 72.359375 53.515625 70.515625 
z
" id="DejaVuSans-83"/>
      <path d="M 54.890625 33.015625 
L 54.890625 0 
L 45.90625 0 
L 45.90625 32.71875 
Q 45.90625 40.484375 42.875 44.328125 
Q 39.84375 48.1875 33.796875 48.1875 
Q 26.515625 48.1875 22.3125 43.546875 
Q 18.109375 38.921875 18.109375 30.90625 
L 18.109375 0 
L 9.078125 0 
L 9.078125 75.984375 
L 18.109375 75.984375 
L 18.109375 46.1875 
Q 21.34375 51.125 25.703125 53.5625 
Q 30.078125 56 35.796875 56 
Q 45.21875 56 50.046875 50.171875 
Q 54.890625 44.34375 54.890625 33.015625 
z
" id="DejaVuSans-104"/>
      <path d="M 4.203125 54.6875 
L 13.1875 54.6875 
L 24.421875 12.015625 
L 35.59375 54.6875 
L 46.1875 54.6875 
L 57.421875 12.015625 
L 68.609375 54.6875 
L 77.59375 54.6875 
L 63.28125 0 
L 52.6875 0 
L 40.921875 44.828125 
L 29.109375 0 
L 18.5 0 
z
" id="DejaVuSans-119"/>
      <path d="M 56.203125 29.59375 
L 56.203125 25.203125 
L 14.890625 25.203125 
Q 15.484375 15.921875 20.484375 11.0625 
Q 25.484375 6.203125 34.421875 6.203125 
Q 39.59375 6.203125 44.453125 7.46875 
Q 49.3125 8.734375 54.109375 11.28125 
L 54.109375 2.78125 
Q 49.265625 0.734375 44.1875 -0.34375 
Q 39.109375 -1.421875 33.890625 -1.421875 
Q 20.796875 -1.421875 13.15625 6.1875 
Q 5.515625 13.8125 5.515625 26.8125 
Q 5.515625 40.234375 12.765625 48.109375 
Q 20.015625 56 32.328125 56 
Q 43.359375 56 49.78125 48.890625 
Q 56.203125 41.796875 56.203125 29.59375 
z
M 47.21875 32.234375 
Q 47.125 39.59375 43.09375 43.984375 
Q 39.0625 48.390625 32.421875 48.390625 
Q 24.90625 48.390625 20.390625 44.140625 
Q 15.875 39.890625 15.1875 32.171875 
z
" id="DejaVuSans-101"/>
      <path d="M 44.28125 53.078125 
L 44.28125 44.578125 
Q 40.484375 46.53125 36.375 47.5 
Q 32.28125 48.484375 27.875 48.484375 
Q 21.1875 48.484375 17.84375 46.4375 
Q 14.5 44.390625 14.5 40.28125 
Q 14.5 37.15625 16.890625 35.375 
Q 19.28125 33.59375 26.515625 31.984375 
L 29.59375 31.296875 
Q 39.15625 29.25 43.1875 25.515625 
Q 47.21875 21.78125 47.21875 15.09375 
Q 47.21875 7.46875 41.1875 3.015625 
Q 35.15625 -1.421875 24.609375 -1.421875 
Q 20.21875 -1.421875 15.453125 -0.5625 
Q 10.6875 0.296875 5.421875 2 
L 5.421875 11.28125 
Q 10.40625 8.6875 15.234375 7.390625 
Q 20.0625 6.109375 24.8125 6.109375 
Q 31.15625 6.109375 34.5625 8.28125 
Q 37.984375 10.453125 37.984375 14.40625 
Q 37.984375 18.0625 35.515625 20.015625 
Q 33.0625 21.96875 24.703125 23.78125 
L 21.578125 24.515625 
Q 13.234375 26.265625 9.515625 29.90625 
Q 5.8125 33.546875 5.8125 39.890625 
Q 5.8125 47.609375 11.28125 51.796875 
Q 16.75 56 26.8125 56 
Q 31.78125 56 36.171875 55.265625 
Q 40.578125 54.546875 44.28125 53.078125 
z
" id="DejaVuSans-115"/>
     </defs>
     <g transform="translate(156.6 94.677188)scale(0.18 -0.18)">
      <use xlink:href="#DejaVuSans-83"/>
      <use x="63.476562" xlink:href="#DejaVuSans-104"/>
      <use x="126.855469" xlink:href="#DejaVuSans-111"/>
      <use x="188.037109" xlink:href="#DejaVuSans-119"/>
      <use x="269.824219" xlink:href="#DejaVuSans-101"/>
      <use x="331.347656" xlink:href="#DejaVuSans-114"/>
      <use x="372.460938" xlink:href="#DejaVuSans-115"/>
     </g>
    </g>
    <g id="line2d_67">
     <path d="M 106.2 114.797813 
L 142.2 114.797813 
" style="fill:none;stroke:#ff7f0e;stroke-linecap:square;stroke-width:1.5;"/>
    </g>
    <g id="line2d_68"/>
    <g id="text_16">
     <!-- Tracks -->
     <defs>
      <path d="M -0.296875 72.90625 
L 61.375 72.90625 
L 61.375 64.59375 
L 35.5 64.59375 
L 35.5 0 
L 25.59375 0 
L 25.59375 64.59375 
L -0.296875 64.59375 
z
" id="DejaVuSans-84"/>
      <path d="M 34.28125 27.484375 
Q 23.390625 27.484375 19.1875 25 
Q 14.984375 22.515625 14.984375 16.5 
Q 14.984375 11.71875 18.140625 8.90625 
Q 21.296875 6.109375 26.703125 6.109375 
Q 34.1875 6.109375 38.703125 11.40625 
Q 43.21875 16.703125 43.21875 25.484375 
L 43.21875 27.484375 
z
M 52.203125 31.203125 
L 52.203125 0 
L 43.21875 0 
L 43.21875 8.296875 
Q 40.140625 3.328125 35.546875 0.953125 
Q 30.953125 -1.421875 24.3125 -1.421875 
Q 15.921875 -1.421875 10.953125 3.296875 
Q 6 8.015625 6 15.921875 
Q 6 25.140625 12.171875 29.828125 
Q 18.359375 34.515625 30.609375 34.515625 
L 43.21875 34.515625 
L 43.21875 35.40625 
Q 43.21875 41.609375 39.140625 45 
Q 35.0625 48.390625 27.6875 48.390625 
Q 23 48.390625 18.546875 47.265625 
Q 14.109375 46.140625 10.015625 43.890625 
L 10.015625 52.203125 
Q 14.9375 54.109375 19.578125 55.046875 
Q 24.21875 56 28.609375 56 
Q 40.484375 56 46.34375 49.84375 
Q 52.203125 43.703125 52.203125 31.203125 
z
" id="DejaVuSans-97"/>
      <path d="M 48.78125 52.59375 
L 48.78125 44.1875 
Q 44.96875 46.296875 41.140625 47.34375 
Q 37.3125 48.390625 33.40625 48.390625 
Q 24.65625 48.390625 19.8125 42.84375 
Q 14.984375 37.3125 14.984375 27.296875 
Q 14.984375 17.28125 19.8125 11.734375 
Q 24.65625 6.203125 33.40625 6.203125 
Q 37.3125 6.203125 41.140625 7.25 
Q 44.96875 8.296875 48.78125 10.40625 
L 48.78125 2.09375 
Q 45.015625 0.34375 40.984375 -0.53125 
Q 36.96875 -1.421875 32.421875 -1.421875 
Q 20.0625 -1.421875 12.78125 6.34375 
Q 5.515625 14.109375 5.515625 27.296875 
Q 5.515625 40.671875 12.859375 48.328125 
Q 20.21875 56 33.015625 56 
Q 37.15625 56 41.109375 55.140625 
Q 45.0625 54.296875 48.78125 52.59375 
z
" id="DejaVuSans-99"/>
      <path d="M 9.078125 75.984375 
L 18.109375 75.984375 
L 18.109375 31.109375 
L 44.921875 54.6875 
L 56.390625 54.6875 
L 27.390625 29.109375 
L 57.625 0 
L 45.90625 0 
L 18.109375 26.703125 
L 18.109375 0 
L 9.078125 0 
z
" id="DejaVuSans-107"/>
     </defs>
     <g transform="translate(156.6 121.097813)scale(0.18 -0.18)">
      <use xlink:href="#DejaVuSans-84"/>
      <use x="60.865234" xlink:href="#DejaVuSans-114"/>
      <use x="101.978516" xlink:href="#DejaVuSans-97"/>
      <use x="163.257812" xlink:href="#DejaVuSans-99"/>
      <use x="218.238281" xlink:href="#DejaVuSans-107"/>
      <use x="276.148438" xlink:href="#DejaVuSans-115"/>
     </g>
    </g>
    <g id="line2d_69">
     <path d="M 106.2 141.218437 
L 142.2 141.218437 
" style="fill:none;stroke:#2ca02c;stroke-linecap:square;stroke-width:1.5;"/>
    </g>
    <g id="line2d_70"/>
    <g id="text_17">
     <!-- Protons -->
     <defs>
      <path d="M 19.671875 64.796875 
L 19.671875 37.40625 
L 32.078125 37.40625 
Q 38.96875 37.40625 42.71875 40.96875 
Q 46.484375 44.53125 46.484375 51.125 
Q 46.484375 57.671875 42.71875 61.234375 
Q 38.96875 64.796875 32.078125 64.796875 
z
M 9.8125 72.90625 
L 32.078125 72.90625 
Q 44.34375 72.90625 50.609375 67.359375 
Q 56.890625 61.8125 56.890625 51.125 
Q 56.890625 40.328125 50.609375 34.8125 
Q 44.34375 29.296875 32.078125 29.296875 
L 19.671875 29.296875 
L 19.671875 0 
L 9.8125 0 
z
" id="DejaVuSans-80"/>
     </defs>
     <g transform="translate(156.6 147.518438)scale(0.18 -0.18)">
      <use xlink:href="#DejaVuSans-80"/>
      <use x="60.287109" xlink:href="#DejaVuSans-114"/>
      <use x="101.369141" xlink:href="#DejaVuSans-111"/>
      <use x="162.550781" xlink:href="#DejaVuSans-116"/>
      <use x="201.759766" xlink:href="#DejaVuSans-111"/>
      <use x="262.941406" xlink:href="#DejaVuSans-110"/>
      <use x="326.320312" xlink:href="#DejaVuSans-115"/>
     </g>
    </g>
    <g id="line2d_71">
     <path d="M 106.2 167.639062 
L 142.2 167.639062 
" style="fill:none;stroke:#d62728;stroke-linecap:square;stroke-width:1.5;"/>
    </g>
    <g id="line2d_72"/>
    <g id="text_18">
     <!-- Muons -->
     <defs>
      <path d="M 9.8125 72.90625 
L 24.515625 72.90625 
L 43.109375 23.296875 
L 61.8125 72.90625 
L 76.515625 72.90625 
L 76.515625 0 
L 66.890625 0 
L 66.890625 64.015625 
L 48.09375 14.015625 
L 38.1875 14.015625 
L 19.390625 64.015625 
L 19.390625 0 
L 9.8125 0 
z
" id="DejaVuSans-77"/>
     </defs>
     <g transform="translate(156.6 173.939062)scale(0.18 -0.18)">
      <use xlink:href="#DejaVuSans-77"/>
      <use x="86.279297" xlink:href="#DejaVuSans-117"/>
      <use x="149.658203" xlink:href="#DejaVuSans-111"/>
      <use x="210.839844" xlink:href="#DejaVuSans-110"/>
      <use x="274.21875" xlink:href="#DejaVuSans-115"/>
     </g>
    </g>
    <g id="line2d_73">
     <path d="M 106.2 194.059687 
L 142.2 194.059687 
" style="fill:none;stroke:#9467bd;stroke-linecap:square;stroke-width:1.5;"/>
    </g>
    <g id="line2d_74"/>
    <g id="text_19">
     <!-- Electrons + Positrons -->
     <defs>
      <path d="M 9.8125 72.90625 
L 55.90625 72.90625 
L 55.90625 64.59375 
L 19.671875 64.59375 
L 19.671875 43.015625 
L 54.390625 43.015625 
L 54.390625 34.71875 
L 19.671875 34.71875 
L 19.671875 8.296875 
L 56.78125 8.296875 
L 56.78125 0 
L 9.8125 0 
z
" id="DejaVuSans-69"/>
      <path d="M 9.421875 75.984375 
L 18.40625 75.984375 
L 18.40625 0 
L 9.421875 0 
z
" id="DejaVuSans-108"/>
      <path id="DejaVuSans-32"/>
      <path d="M 46 62.703125 
L 46 35.5 
L 73.1875 35.5 
L 73.1875 27.203125 
L 46 27.203125 
L 46 0 
L 37.796875 0 
L 37.796875 27.203125 
L 10.59375 27.203125 
L 10.59375 35.5 
L 37.796875 35.5 
L 37.796875 62.703125 
z
" id="DejaVuSans-43"/>
     </defs>
     <g transform="translate(156.6 200.359688)scale(0.18 -0.18)">
      <use xlink:href="#DejaVuSans-69"/>
      <use x="63.183594" xlink:href="#DejaVuSans-108"/>
      <use x="90.966797" xlink:href="#DejaVuSans-101"/>
      <use x="152.490234" xlink:href="#DejaVuSans-99"/>
      <use x="207.470703" xlink:href="#DejaVuSans-116"/>
      <use x="246.679688" xlink:href="#DejaVuSans-114"/>
      <use x="287.761719" xlink:href="#DejaVuSans-111"/>
      <use x="348.943359" xlink:href="#DejaVuSans-110"/>
      <use x="412.322266" xlink:href="#DejaVuSans-115"/>
      <use x="464.421875" xlink:href="#DejaVuSans-32"/>
      <use x="496.208984" xlink:href="#DejaVuSans-43"/>
      <use x="579.998047" xlink:href="#DejaVuSans-32"/>
      <use x="611.785156" xlink:href="#DejaVuSans-80"/>
      <use x="672.041016" xlink:href="#DejaVuSans-111"/>
      <use x="733.222656" xlink:href="#DejaVuSans-115"/>
      <use x="785.322266" xlink:href="#DejaVuSans-105"/>
      <use x="813.105469" xlink:href="#DejaVuSans-116"/>
      <use x="852.314453" xlink:href="#DejaVuSans-114"/>
      <use x="893.396484" xlink:href="#DejaVuSans-111"/>
      <use x="954.578125" xlink:href="#DejaVuSans-110"/>
      <use x="1017.957031" xlink:href="#DejaVuSans-115"/>
     </g>
    </g>
    <g id="line2d_75">
     <path d="M 106.2 220.480312 
L 142.2 220.480312 
" style="fill:none;stroke:#8c564b;stroke-linecap:square;stroke-width:1.5;"/>
    </g>
    <g id="line2d_76"/>
    <g id="text_20">
     <!-- Photons -->
     <g transform="translate(156.6 226.780312)scale(0.18 -0.18)">
      <use xlink:href="#DejaVuSans-80"/>
      <use x="60.302734" xlink:href="#DejaVuSans-104"/>
      <use x="123.681641" xlink:href="#DejaVuSans-111"/>
      <use x="184.863281" xlink:href="#DejaVuSans-116"/>
      <use x="224.072266" xlink:href="#DejaVuSans-111"/>
      <use x="285.253906" xlink:href="#DejaVuSans-110"/>
      <use x="348.632812" xlink:href="#DejaVuSans-115"/>
     </g>
    </g>
    <g id="line2d_77">
     <path d="M 106.2 246.900937 
L 142.2 246.900937 
" style="fill:none;stroke:#e377c2;stroke-linecap:square;stroke-width:1.5;"/>
    </g>
    <g id="line2d_78"/>
    <g id="text_21">
     <!-- Charged Pions -->
     <defs>
      <path d="M 45.40625 27.984375 
Q 45.40625 37.75 41.375 43.109375 
Q 37.359375 48.484375 30.078125 48.484375 
Q 22.859375 48.484375 18.828125 43.109375 
Q 14.796875 37.75 14.796875 27.984375 
Q 14.796875 18.265625 18.828125 12.890625 
Q 22.859375 7.515625 30.078125 7.515625 
Q 37.359375 7.515625 41.375 12.890625 
Q 45.40625 18.265625 45.40625 27.984375 
z
M 54.390625 6.78125 
Q 54.390625 -7.171875 48.1875 -13.984375 
Q 42 -20.796875 29.203125 -20.796875 
Q 24.46875 -20.796875 20.265625 -20.09375 
Q 16.0625 -19.390625 12.109375 -17.921875 
L 12.109375 -9.1875 
Q 16.0625 -11.328125 19.921875 -12.34375 
Q 23.78125 -13.375 27.78125 -13.375 
Q 36.625 -13.375 41.015625 -8.765625 
Q 45.40625 -4.15625 45.40625 5.171875 
L 45.40625 9.625 
Q 42.625 4.78125 38.28125 2.390625 
Q 33.9375 0 27.875 0 
Q 17.828125 0 11.671875 7.65625 
Q 5.515625 15.328125 5.515625 27.984375 
Q 5.515625 40.671875 11.671875 48.328125 
Q 17.828125 56 27.875 56 
Q 33.9375 56 38.28125 53.609375 
Q 42.625 51.21875 45.40625 46.390625 
L 45.40625 54.6875 
L 54.390625 54.6875 
z
" id="DejaVuSans-103"/>
      <path d="M 45.40625 46.390625 
L 45.40625 75.984375 
L 54.390625 75.984375 
L 54.390625 0 
L 45.40625 0 
L 45.40625 8.203125 
Q 42.578125 3.328125 38.25 0.953125 
Q 33.9375 -1.421875 27.875 -1.421875 
Q 17.96875 -1.421875 11.734375 6.484375 
Q 5.515625 14.40625 5.515625 27.296875 
Q 5.515625 40.1875 11.734375 48.09375 
Q 17.96875 56 27.875 56 
Q 33.9375 56 38.25 53.625 
Q 42.578125 51.265625 45.40625 46.390625 
z
M 14.796875 27.296875 
Q 14.796875 17.390625 18.875 11.75 
Q 22.953125 6.109375 30.078125 6.109375 
Q 37.203125 6.109375 41.296875 11.75 
Q 45.40625 17.390625 45.40625 27.296875 
Q 45.40625 37.203125 41.296875 42.84375 
Q 37.203125 48.484375 30.078125 48.484375 
Q 22.953125 48.484375 18.875 42.84375 
Q 14.796875 37.203125 14.796875 27.296875 
z
" id="DejaVuSans-100"/>
     </defs>
     <g transform="translate(156.6 253.200938)scale(0.18 -0.18)">
      <use xlink:href="#DejaVuSans-67"/>
      <use x="69.824219" xlink:href="#DejaVuSans-104"/>
      <use x="133.203125" xlink:href="#DejaVuSans-97"/>
      <use x="194.482422" xlink:href="#DejaVuSans-114"/>
      <use x="235.580078" xlink:href="#DejaVuSans-103"/>
      <use x="299.056641" xlink:href="#DejaVuSans-101"/>
      <use x="360.580078" xlink:href="#DejaVuSans-100"/>
      <use x="424.056641" xlink:href="#DejaVuSans-32"/>
      <use x="455.84375" xlink:href="#DejaVuSans-80"/>
      <use x="516.115234" xlink:href="#DejaVuSans-105"/>
      <use x="543.898438" xlink:href="#DejaVuSans-111"/>
      <use x="605.080078" xlink:href="#DejaVuSans-110"/>
      <use x="668.458984" xlink:href="#DejaVuSans-115"/>
     </g>
    </g>
   </g>
  </g>
 </g>
 <defs>
  <clipPath id="pa3c383bd5b">
   <rect height="415.8" width="558" x="90" y="64.8"/>
  </clipPath>
 </defs>
</svg>
