<?xml version="1.0" encoding="utf-8" standalone="no"?>
<!DOCTYPE svg PUBLIC "-//W3C//DTD SVG 1.1//EN"
  "http://www.w3.org/Graphics/SVG/1.1/DTD/svg11.dtd">
<!-- Created with matplotlib (https://matplotlib.org/) -->
<svg height="710.64pt" version="1.1" viewBox="0 0 720 710.64" width="720pt" xmlns="http://www.w3.org/2000/svg" xmlns:xlink="http://www.w3.org/1999/xlink">
 <defs>
  <style type="text/css">
*{stroke-linecap:butt;stroke-linejoin:round;}
  </style>
 </defs>
 <g id="figure_1">
  <g id="patch_1">
   <path d="M 0 710.64 
L 720 710.64 
L 720 0 
L 0 0 
z
" style="fill:#ffffff;"/>
  </g>
  <g id="axes_1">
   <g id="patch_2">
    <path d="M 90 334.0008 
L 648 334.0008 
L 648 85.2768 
L 90 85.2768 
z
" style="fill:#ffffff;"/>
   </g>
   <g id="matplotlib.axis_1">
    <g id="xtick_1">
     <g id="line2d_1">
      <defs>
       <path d="M 0 0 
L 0 3.5 
" id="m4dd3cb9e14" style="stroke:#000000;stroke-width:0.8;"/>
      </defs>
      <g>
       <use style="stroke:#000000;stroke-width:0.8;" x="90" xlink:href="#m4dd3cb9e14" y="334.0008"/>
      </g>
     </g>
    </g>
    <g id="xtick_2">
     <g id="line2d_2">
      <g>
       <use style="stroke:#000000;stroke-width:0.8;" x="183" xlink:href="#m4dd3cb9e14" y="334.0008"/>
      </g>
     </g>
    </g>
    <g id="xtick_3">
     <g id="line2d_3">
      <g>
       <use style="stroke:#000000;stroke-width:0.8;" x="276" xlink:href="#m4dd3cb9e14" y="334.0008"/>
      </g>
     </g>
    </g>
    <g id="xtick_4">
     <g id="line2d_4">
      <g>
       <use style="stroke:#000000;stroke-width:0.8;" x="369" xlink:href="#m4dd3cb9e14" y="334.0008"/>
      </g>
     </g>
    </g>
    <g id="xtick_5">
     <g id="line2d_5">
      <g>
       <use style="stroke:#000000;stroke-width:0.8;" x="462" xlink:href="#m4dd3cb9e14" y="334.0008"/>
      </g>
     </g>
    </g>
    <g id="xtick_6">
     <g id="line2d_6">
      <g>
       <use style="stroke:#000000;stroke-width:0.8;" x="555" xlink:href="#m4dd3cb9e14" y="334.0008"/>
      </g>
     </g>
    </g>
    <g id="xtick_7">
     <g id="line2d_7">
      <g>
       <use style="stroke:#000000;stroke-width:0.8;" x="648" xlink:href="#m4dd3cb9e14" y="334.0008"/>
      </g>
     </g>
    </g>
    <g id="text_1">
     <!-- mcpMomentum -->
     <defs>
      <path d="M 52 44.1875 
Q 55.375 50.25 60.0625 53.125 
Q 64.75 56 71.09375 56 
Q 79.640625 56 84.28125 50.015625 
Q 88.921875 44.046875 88.921875 33.015625 
L 88.921875 0 
L 79.890625 0 
L 79.890625 32.71875 
Q 79.890625 40.578125 77.09375 44.375 
Q 74.3125 48.1875 68.609375 48.1875 
Q 61.625 48.1875 57.5625 43.546875 
Q 53.515625 38.921875 53.515625 30.90625 
L 53.515625 0 
L 44.484375 0 
L 44.484375 32.71875 
Q 44.484375 40.625 41.703125 44.40625 
Q 38.921875 48.1875 33.109375 48.1875 
Q 26.21875 48.1875 22.15625 43.53125 
Q 18.109375 38.875 18.109375 30.90625 
L 18.109375 0 
L 9.078125 0 
L 9.078125 54.6875 
L 18.109375 54.6875 
L 18.109375 46.1875 
Q 21.1875 51.21875 25.484375 53.609375 
Q 29.78125 56 35.6875 56 
Q 41.65625 56 45.828125 52.96875 
Q 50 49.953125 52 44.1875 
z
" id="DejaVuSans-109"/>
      <path d="M 48.78125 52.59375 
L 48.78125 44.1875 
Q 44.96875 46.296875 41.140625 47.34375 
Q 37.3125 48.390625 33.40625 48.390625 
Q 24.65625 48.390625 19.8125 42.84375 
Q 14.984375 37.3125 14.984375 27.296875 
Q 14.984375 17.28125 19.8125 11.734375 
Q 24.65625 6.203125 33.40625 6.203125 
Q 37.3125 6.203125 41.140625 7.25 
Q 44.96875 8.296875 48.78125 10.40625 
L 48.78125 2.09375 
Q 45.015625 0.34375 40.984375 -0.53125 
Q 36.96875 -1.421875 32.421875 -1.421875 
Q 20.0625 -1.421875 12.78125 6.34375 
Q 5.515625 14.109375 5.515625 27.296875 
Q 5.515625 40.671875 12.859375 48.328125 
Q 20.21875 56 33.015625 56 
Q 37.15625 56 41.109375 55.140625 
Q 45.0625 54.296875 48.78125 52.59375 
z
" id="DejaVuSans-99"/>
      <path d="M 18.109375 8.203125 
L 18.109375 -20.796875 
L 9.078125 -20.796875 
L 9.078125 54.6875 
L 18.109375 54.6875 
L 18.109375 46.390625 
Q 20.953125 51.265625 25.265625 53.625 
Q 29.59375 56 35.59375 56 
Q 45.5625 56 51.78125 48.09375 
Q 58.015625 40.1875 58.015625 27.296875 
Q 58.015625 14.40625 51.78125 6.484375 
Q 45.5625 -1.421875 35.59375 -1.421875 
Q 29.59375 -1.421875 25.265625 0.953125 
Q 20.953125 3.328125 18.109375 8.203125 
z
M 48.6875 27.296875 
Q 48.6875 37.203125 44.609375 42.84375 
Q 40.53125 48.484375 33.40625 48.484375 
Q 26.265625 48.484375 22.1875 42.84375 
Q 18.109375 37.203125 18.109375 27.296875 
Q 18.109375 17.390625 22.1875 11.75 
Q 26.265625 6.109375 33.40625 6.109375 
Q 40.53125 6.109375 44.609375 11.75 
Q 48.6875 17.390625 48.6875 27.296875 
z
" id="DejaVuSans-112"/>
      <path d="M 9.8125 72.90625 
L 24.515625 72.90625 
L 43.109375 23.296875 
L 61.8125 72.90625 
L 76.515625 72.90625 
L 76.515625 0 
L 66.890625 0 
L 66.890625 64.015625 
L 48.09375 14.015625 
L 38.1875 14.015625 
L 19.390625 64.015625 
L 19.390625 0 
L 9.8125 0 
z
" id="DejaVuSans-77"/>
      <path d="M 30.609375 48.390625 
Q 23.390625 48.390625 19.1875 42.75 
Q 14.984375 37.109375 14.984375 27.296875 
Q 14.984375 17.484375 19.15625 11.84375 
Q 23.34375 6.203125 30.609375 6.203125 
Q 37.796875 6.203125 41.984375 11.859375 
Q 46.1875 17.53125 46.1875 27.296875 
Q 46.1875 37.015625 41.984375 42.703125 
Q 37.796875 48.390625 30.609375 48.390625 
z
M 30.609375 56 
Q 42.328125 56 49.015625 48.375 
Q 55.71875 40.765625 55.71875 27.296875 
Q 55.71875 13.875 49.015625 6.21875 
Q 42.328125 -1.421875 30.609375 -1.421875 
Q 18.84375 -1.421875 12.171875 6.21875 
Q 5.515625 13.875 5.515625 27.296875 
Q 5.515625 40.765625 12.171875 48.375 
Q 18.84375 56 30.609375 56 
z
" id="DejaVuSans-111"/>
      <path d="M 56.203125 29.59375 
L 56.203125 25.203125 
L 14.890625 25.203125 
Q 15.484375 15.921875 20.484375 11.0625 
Q 25.484375 6.203125 34.421875 6.203125 
Q 39.59375 6.203125 44.453125 7.46875 
Q 49.3125 8.734375 54.109375 11.28125 
L 54.109375 2.78125 
Q 49.265625 0.734375 44.1875 -0.34375 
Q 39.109375 -1.421875 33.890625 -1.421875 
Q 20.796875 -1.421875 13.15625 6.1875 
Q 5.515625 13.8125 5.515625 26.8125 
Q 5.515625 40.234375 12.765625 48.109375 
Q 20.015625 56 32.328125 56 
Q 43.359375 56 49.78125 48.890625 
Q 56.203125 41.796875 56.203125 29.59375 
z
M 47.21875 32.234375 
Q 47.125 39.59375 43.09375 43.984375 
Q 39.0625 48.390625 32.421875 48.390625 
Q 24.90625 48.390625 20.390625 44.140625 
Q 15.875 39.890625 15.1875 32.171875 
z
" id="DejaVuSans-101"/>
      <path d="M 54.890625 33.015625 
L 54.890625 0 
L 45.90625 0 
L 45.90625 32.71875 
Q 45.90625 40.484375 42.875 44.328125 
Q 39.84375 48.1875 33.796875 48.1875 
Q 26.515625 48.1875 22.3125 43.546875 
Q 18.109375 38.921875 18.109375 30.90625 
L 18.109375 0 
L 9.078125 0 
L 9.078125 54.6875 
L 18.109375 54.6875 
L 18.109375 46.1875 
Q 21.34375 51.125 25.703125 53.5625 
Q 30.078125 56 35.796875 56 
Q 45.21875 56 50.046875 50.171875 
Q 54.890625 44.34375 54.890625 33.015625 
z
" id="DejaVuSans-110"/>
      <path d="M 18.3125 70.21875 
L 18.3125 54.6875 
L 36.8125 54.6875 
L 36.8125 47.703125 
L 18.3125 47.703125 
L 18.3125 18.015625 
Q 18.3125 11.328125 20.140625 9.421875 
Q 21.96875 7.515625 27.59375 7.515625 
L 36.8125 7.515625 
L 36.8125 0 
L 27.59375 0 
Q 17.1875 0 13.234375 3.875 
Q 9.28125 7.765625 9.28125 18.015625 
L 9.28125 47.703125 
L 2.6875 47.703125 
L 2.6875 54.6875 
L 9.28125 54.6875 
L 9.28125 70.21875 
z
" id="DejaVuSans-116"/>
      <path d="M 8.5 21.578125 
L 8.5 54.6875 
L 17.484375 54.6875 
L 17.484375 21.921875 
Q 17.484375 14.15625 20.5 10.265625 
Q 23.53125 6.390625 29.59375 6.390625 
Q 36.859375 6.390625 41.078125 11.03125 
Q 45.3125 15.671875 45.3125 23.6875 
L 45.3125 54.6875 
L 54.296875 54.6875 
L 54.296875 0 
L 45.3125 0 
L 45.3125 8.40625 
Q 42.046875 3.421875 37.71875 1 
Q 33.40625 -1.421875 27.6875 -1.421875 
Q 18.265625 -1.421875 13.375 4.4375 
Q 8.5 10.296875 8.5 21.578125 
z
M 31.109375 56 
z
" id="DejaVuSans-117"/>
     </defs>
     <g transform="translate(267.180975 357.69595)scale(0.2592 -0.2592)">
      <use xlink:href="#DejaVuSans-109"/>
      <use x="97.412109" xlink:href="#DejaVuSans-99"/>
      <use x="152.392578" xlink:href="#DejaVuSans-112"/>
      <use x="215.869141" xlink:href="#DejaVuSans-77"/>
      <use x="302.148438" xlink:href="#DejaVuSans-111"/>
      <use x="363.330078" xlink:href="#DejaVuSans-109"/>
      <use x="460.742188" xlink:href="#DejaVuSans-101"/>
      <use x="522.265625" xlink:href="#DejaVuSans-110"/>
      <use x="585.644531" xlink:href="#DejaVuSans-116"/>
      <use x="624.853516" xlink:href="#DejaVuSans-117"/>
      <use x="688.232422" xlink:href="#DejaVuSans-109"/>
     </g>
    </g>
   </g>
   <g id="matplotlib.axis_2">
    <g id="ytick_1">
     <g id="line2d_8">
      <defs>
       <path d="M 0 0 
L -3.5 0 
" id="mb5e463d390" style="stroke:#000000;stroke-width:0.8;"/>
      </defs>
      <g>
       <use style="stroke:#000000;stroke-width:0.8;" x="90" xlink:href="#mb5e463d390" y="334.0008"/>
      </g>
     </g>
     <g id="text_2">
      <!-- 0.0 -->
      <defs>
       <path d="M 31.78125 66.40625 
Q 24.171875 66.40625 20.328125 58.90625 
Q 16.5 51.421875 16.5 36.375 
Q 16.5 21.390625 20.328125 13.890625 
Q 24.171875 6.390625 31.78125 6.390625 
Q 39.453125 6.390625 43.28125 13.890625 
Q 47.125 21.390625 47.125 36.375 
Q 47.125 51.421875 43.28125 58.90625 
Q 39.453125 66.40625 31.78125 66.40625 
z
M 31.78125 74.21875 
Q 44.046875 74.21875 50.515625 64.515625 
Q 56.984375 54.828125 56.984375 36.375 
Q 56.984375 17.96875 50.515625 8.265625 
Q 44.046875 -1.421875 31.78125 -1.421875 
Q 19.53125 -1.421875 13.0625 8.265625 
Q 6.59375 17.96875 6.59375 36.375 
Q 6.59375 54.828125 13.0625 64.515625 
Q 19.53125 74.21875 31.78125 74.21875 
z
" id="DejaVuSans-48"/>
       <path d="M 10.6875 12.40625 
L 21 12.40625 
L 21 0 
L 10.6875 0 
z
" id="DejaVuSans-46"/>
      </defs>
      <g transform="translate(41.7791 343.848375)scale(0.2592 -0.2592)">
       <use xlink:href="#DejaVuSans-48"/>
       <use x="63.623047" xlink:href="#DejaVuSans-46"/>
       <use x="95.410156" xlink:href="#DejaVuSans-48"/>
      </g>
     </g>
    </g>
    <g id="ytick_2">
     <g id="line2d_9">
      <g>
       <use style="stroke:#000000;stroke-width:0.8;" x="90" xlink:href="#mb5e463d390" y="210.870107"/>
      </g>
     </g>
     <g id="text_3">
      <!-- 0.5 -->
      <defs>
       <path d="M 10.796875 72.90625 
L 49.515625 72.90625 
L 49.515625 64.59375 
L 19.828125 64.59375 
L 19.828125 46.734375 
Q 21.96875 47.46875 24.109375 47.828125 
Q 26.265625 48.1875 28.421875 48.1875 
Q 40.625 48.1875 47.75 41.5 
Q 54.890625 34.8125 54.890625 23.390625 
Q 54.890625 11.625 47.5625 5.09375 
Q 40.234375 -1.421875 26.90625 -1.421875 
Q 22.3125 -1.421875 17.546875 -0.640625 
Q 12.796875 0.140625 7.71875 1.703125 
L 7.71875 11.625 
Q 12.109375 9.234375 16.796875 8.0625 
Q 21.484375 6.890625 26.703125 6.890625 
Q 35.15625 6.890625 40.078125 11.328125 
Q 45.015625 15.765625 45.015625 23.390625 
Q 45.015625 31 40.078125 35.4375 
Q 35.15625 39.890625 26.703125 39.890625 
Q 22.75 39.890625 18.8125 39.015625 
Q 14.890625 38.140625 10.796875 36.28125 
z
" id="DejaVuSans-53"/>
      </defs>
      <g transform="translate(41.7791 220.717682)scale(0.2592 -0.2592)">
       <use xlink:href="#DejaVuSans-48"/>
       <use x="63.623047" xlink:href="#DejaVuSans-46"/>
       <use x="95.410156" xlink:href="#DejaVuSans-53"/>
      </g>
     </g>
    </g>
    <g id="ytick_3">
     <g id="line2d_10">
      <g>
       <use style="stroke:#000000;stroke-width:0.8;" x="90" xlink:href="#mb5e463d390" y="87.739414"/>
      </g>
     </g>
     <g id="text_4">
      <!-- 1.0 -->
      <defs>
       <path d="M 12.40625 8.296875 
L 28.515625 8.296875 
L 28.515625 63.921875 
L 10.984375 60.40625 
L 10.984375 69.390625 
L 28.421875 72.90625 
L 38.28125 72.90625 
L 38.28125 8.296875 
L 54.390625 8.296875 
L 54.390625 0 
L 12.40625 0 
z
" id="DejaVuSans-49"/>
      </defs>
      <g transform="translate(41.7791 97.586989)scale(0.2592 -0.2592)">
       <use xlink:href="#DejaVuSans-49"/>
       <use x="63.623047" xlink:href="#DejaVuSans-46"/>
       <use x="95.410156" xlink:href="#DejaVuSans-48"/>
      </g>
     </g>
    </g>
    <g id="text_5">
     <!-- Fraction -->
     <defs>
      <path d="M 9.8125 72.90625 
L 51.703125 72.90625 
L 51.703125 64.59375 
L 19.671875 64.59375 
L 19.671875 43.109375 
L 48.578125 43.109375 
L 48.578125 34.8125 
L 19.671875 34.8125 
L 19.671875 0 
L 9.8125 0 
z
" id="DejaVuSans-70"/>
      <path d="M 41.109375 46.296875 
Q 39.59375 47.171875 37.8125 47.578125 
Q 36.03125 48 33.890625 48 
Q 26.265625 48 22.1875 43.046875 
Q 18.109375 38.09375 18.109375 28.8125 
L 18.109375 0 
L 9.078125 0 
L 9.078125 54.6875 
L 18.109375 54.6875 
L 18.109375 46.1875 
Q 20.953125 51.171875 25.484375 53.578125 
Q 30.03125 56 36.53125 56 
Q 37.453125 56 38.578125 55.875 
Q 39.703125 55.765625 41.0625 55.515625 
z
" id="DejaVuSans-114"/>
      <path d="M 34.28125 27.484375 
Q 23.390625 27.484375 19.1875 25 
Q 14.984375 22.515625 14.984375 16.5 
Q 14.984375 11.71875 18.140625 8.90625 
Q 21.296875 6.109375 26.703125 6.109375 
Q 34.1875 6.109375 38.703125 11.40625 
Q 43.21875 16.703125 43.21875 25.484375 
L 43.21875 27.484375 
z
M 52.203125 31.203125 
L 52.203125 0 
L 43.21875 0 
L 43.21875 8.296875 
Q 40.140625 3.328125 35.546875 0.953125 
Q 30.953125 -1.421875 24.3125 -1.421875 
Q 15.921875 -1.421875 10.953125 3.296875 
Q 6 8.015625 6 15.921875 
Q 6 25.140625 12.171875 29.828125 
Q 18.359375 34.515625 30.609375 34.515625 
L 43.21875 34.515625 
L 43.21875 35.40625 
Q 43.21875 41.609375 39.140625 45 
Q 35.0625 48.390625 27.6875 48.390625 
Q 23 48.390625 18.546875 47.265625 
Q 14.109375 46.140625 10.015625 43.890625 
L 10.015625 52.203125 
Q 14.9375 54.109375 19.578125 55.046875 
Q 24.21875 56 28.609375 56 
Q 40.484375 56 46.34375 49.84375 
Q 52.203125 43.703125 52.203125 31.203125 
z
" id="DejaVuSans-97"/>
      <path d="M 9.421875 54.6875 
L 18.40625 54.6875 
L 18.40625 0 
L 9.421875 0 
z
M 9.421875 75.984375 
L 18.40625 75.984375 
L 18.40625 64.59375 
L 9.421875 64.59375 
z
" id="DejaVuSans-105"/>
     </defs>
     <g transform="translate(32.38855 262.298925)rotate(-90)scale(0.2592 -0.2592)">
      <use xlink:href="#DejaVuSans-70"/>
      <use x="57.410156" xlink:href="#DejaVuSans-114"/>
      <use x="98.523438" xlink:href="#DejaVuSans-97"/>
      <use x="159.802734" xlink:href="#DejaVuSans-99"/>
      <use x="214.783203" xlink:href="#DejaVuSans-116"/>
      <use x="253.992188" xlink:href="#DejaVuSans-105"/>
      <use x="281.775391" xlink:href="#DejaVuSans-111"/>
      <use x="342.957031" xlink:href="#DejaVuSans-110"/>
     </g>
    </g>
   </g>
   <g id="LineCollection_1">
    <path clip-path="url(#p089a57d88b)" d="M 97.153846 126.783253 
L 97.153846 116.440343 
" style="fill:none;stroke:#008000;stroke-width:1.5;"/>
    <path clip-path="url(#p089a57d88b)" d="M 111.461538 117.311107 
L 111.461538 113.787308 
" style="fill:none;stroke:#008000;stroke-width:1.5;"/>
    <path clip-path="url(#p089a57d88b)" d="M 125.769231 103.202211 
L 125.769231 100.513865 
" style="fill:none;stroke:#008000;stroke-width:1.5;"/>
    <path clip-path="url(#p089a57d88b)" d="M 140.076923 100.81577 
L 140.076923 98.326163 
" style="fill:none;stroke:#008000;stroke-width:1.5;"/>
    <path clip-path="url(#p089a57d88b)" d="M 154.384615 97.814996 
L 154.384615 95.400109 
" style="fill:none;stroke:#008000;stroke-width:1.5;"/>
    <path clip-path="url(#p089a57d88b)" d="M 168.692308 96.362433 
L 168.692308 93.804865 
" style="fill:none;stroke:#008000;stroke-width:1.5;"/>
    <path clip-path="url(#p089a57d88b)" d="M 183 97.312757 
L 183 94.265483 
" style="fill:none;stroke:#008000;stroke-width:1.5;"/>
    <path clip-path="url(#p089a57d88b)" d="M 197.307692 98.998062 
L 197.307692 95.308089 
" style="fill:none;stroke:#008000;stroke-width:1.5;"/>
    <path clip-path="url(#p089a57d88b)" d="M 211.615385 99.893296 
L 211.615385 95.525725 
" style="fill:none;stroke:#008000;stroke-width:1.5;"/>
    <path clip-path="url(#p089a57d88b)" d="M 225.923077 100.445622 
L 225.923077 95.448658 
" style="fill:none;stroke:#008000;stroke-width:1.5;"/>
    <path clip-path="url(#p089a57d88b)" d="M 240.230769 96.897234 
L 240.230769 92.168429 
" style="fill:none;stroke:#008000;stroke-width:1.5;"/>
    <path clip-path="url(#p089a57d88b)" d="M 254.538462 96.306597 
L 254.538462 91.383539 
" style="fill:none;stroke:#008000;stroke-width:1.5;"/>
    <path clip-path="url(#p089a57d88b)" d="M 268.846154 92.587795 
L 268.846154 88.584937 
" style="fill:none;stroke:#008000;stroke-width:1.5;"/>
    <path clip-path="url(#p089a57d88b)" d="M 283.153846 100.658102 
L 283.153846 92.796009 
" style="fill:none;stroke:#008000;stroke-width:1.5;"/>
    <path clip-path="url(#p089a57d88b)" d="M 297.461538 100.385357 
L 297.461538 92.077014 
" style="fill:none;stroke:#008000;stroke-width:1.5;"/>
    <path clip-path="url(#p089a57d88b)" d="M 311.769231 102.713007 
L 311.769231 92.868791 
" style="fill:none;stroke:#008000;stroke-width:1.5;"/>
    <path clip-path="url(#p089a57d88b)" d="M 326.076923 106.680916 
L 326.076923 94.383511 
" style="fill:none;stroke:#008000;stroke-width:1.5;"/>
    <path clip-path="url(#p089a57d88b)" d="M 340.384615 100.473885 
L 340.384615 90.15949 
" style="fill:none;stroke:#008000;stroke-width:1.5;"/>
    <path clip-path="url(#p089a57d88b)" d="M 354.692308 100.208319 
L 354.692308 87.899298 
" style="fill:none;stroke:#008000;stroke-width:1.5;"/>
    <path clip-path="url(#p089a57d88b)" d="M 369 117.190385 
L 369 96.17481 
" style="fill:none;stroke:#008000;stroke-width:1.5;"/>
    <path clip-path="url(#p089a57d88b)" d="M 383.307692 105.393245 
L 383.307692 91.043999 
" style="fill:none;stroke:#008000;stroke-width:1.5;"/>
    <path clip-path="url(#p089a57d88b)" d="M 397.615385 98.999239 
L 397.615385 87.933607 
" style="fill:none;stroke:#008000;stroke-width:1.5;"/>
    <path clip-path="url(#p089a57d88b)" d="M 411.923077 101.233153 
L 411.923077 87.926863 
" style="fill:none;stroke:#008000;stroke-width:1.5;"/>
    <path clip-path="url(#p089a57d88b)" d="M 426.230769 108.490503 
L 426.230769 88.402359 
" style="fill:none;stroke:#008000;stroke-width:1.5;"/>
    <path clip-path="url(#p089a57d88b)" d="M 440.538462 106.498665 
L 440.538462 87.923346 
" style="fill:none;stroke:#008000;stroke-width:1.5;"/>
    <path clip-path="url(#p089a57d88b)" d="M 454.846154 106.325049 
L 454.846154 88.096962 
" style="fill:none;stroke:#008000;stroke-width:1.5;"/>
    <path clip-path="url(#p089a57d88b)" d="M 469.153846 112.053779 
L 469.153846 88.051188 
" style="fill:none;stroke:#008000;stroke-width:1.5;"/>
    <path clip-path="url(#p089a57d88b)" d="M 483.461538 131.47236 
L 483.461538 88.781265 
" style="fill:none;stroke:#008000;stroke-width:1.5;"/>
    <path clip-path="url(#p089a57d88b)" d="M 497.769231 153.966496 
L 497.769231 108.428115 
" style="fill:none;stroke:#008000;stroke-width:1.5;"/>
    <path clip-path="url(#p089a57d88b)" d="M 512.076923 145.169523 
L 512.076923 100.669701 
" style="fill:none;stroke:#008000;stroke-width:1.5;"/>
    <path clip-path="url(#p089a57d88b)" d="M 526.384615 197.304495 
L 526.384615 125.931164 
" style="fill:none;stroke:#008000;stroke-width:1.5;"/>
    <path clip-path="url(#p089a57d88b)" d="M 540.692308 87.739414 
L 540.692308 87.739414 
" style="fill:none;stroke:#008000;stroke-width:1.5;"/>
    <path clip-path="url(#p089a57d88b)" d="M 555 87.739414 
L 555 87.739414 
" style="fill:none;stroke:#008000;stroke-width:1.5;"/>
    <path clip-path="url(#p089a57d88b)" d="M 569.307692 124.882619 
L 569.307692 88.482575 
" style="fill:none;stroke:#008000;stroke-width:1.5;"/>
    <path clip-path="url(#p089a57d88b)" d="M 583.615385 187.005682 
L 583.615385 111.603839 
" style="fill:none;stroke:#008000;stroke-width:1.5;"/>
    <path clip-path="url(#p089a57d88b)" d="M 597.923077 87.739414 
L 597.923077 87.739414 
" style="fill:none;stroke:#008000;stroke-width:1.5;"/>
    <path clip-path="url(#p089a57d88b)" d="M 612.230769 87.739414 
L 612.230769 87.739414 
" style="fill:none;stroke:#008000;stroke-width:1.5;"/>
    <path clip-path="url(#p089a57d88b)" d="M 626.538462 87.739414 
L 626.538462 87.739414 
" style="fill:none;stroke:#008000;stroke-width:1.5;"/>
    <path clip-path="url(#p089a57d88b)" d="M 640.846154 87.739414 
L 640.846154 87.739414 
" style="fill:none;stroke:#008000;stroke-width:1.5;"/>
   </g>
   <g id="LineCollection_2">
    <path clip-path="url(#p089a57d88b)" d="M 125.769231 89.784646 
L 125.769231 89.410256 
" style="fill:none;stroke:#ff0000;stroke-width:1.5;"/>
    <path clip-path="url(#p089a57d88b)" d="M 140.076923 117.150781 
L 140.076923 114.645619 
" style="fill:none;stroke:#ff0000;stroke-width:1.5;"/>
    <path clip-path="url(#p089a57d88b)" d="M 154.384615 139.090566 
L 154.384615 135.34519 
" style="fill:none;stroke:#ff0000;stroke-width:1.5;"/>
    <path clip-path="url(#p089a57d88b)" d="M 168.692308 133.62708 
L 168.692308 129.065267 
" style="fill:none;stroke:#ff0000;stroke-width:1.5;"/>
    <path clip-path="url(#p089a57d88b)" d="M 183 126.134077 
L 183 120.984426 
" style="fill:none;stroke:#ff0000;stroke-width:1.5;"/>
    <path clip-path="url(#p089a57d88b)" d="M 197.307692 120.152037 
L 197.307692 114.567292 
" style="fill:none;stroke:#ff0000;stroke-width:1.5;"/>
    <path clip-path="url(#p089a57d88b)" d="M 211.615385 123.542802 
L 211.615385 116.884084 
" style="fill:none;stroke:#ff0000;stroke-width:1.5;"/>
    <path clip-path="url(#p089a57d88b)" d="M 225.923077 130.880362 
L 225.923077 122.954361 
" style="fill:none;stroke:#ff0000;stroke-width:1.5;"/>
    <path clip-path="url(#p089a57d88b)" d="M 240.230769 145.321811 
L 240.230769 135.795605 
" style="fill:none;stroke:#ff0000;stroke-width:1.5;"/>
    <path clip-path="url(#p089a57d88b)" d="M 254.538462 156.502805 
L 254.538462 145.97875 
" style="fill:none;stroke:#ff0000;stroke-width:1.5;"/>
    <path clip-path="url(#p089a57d88b)" d="M 268.846154 188.759712 
L 268.846154 177.373092 
" style="fill:none;stroke:#ff0000;stroke-width:1.5;"/>
    <path clip-path="url(#p089a57d88b)" d="M 283.153846 195.922574 
L 283.153846 183.132333 
" style="fill:none;stroke:#ff0000;stroke-width:1.5;"/>
    <path clip-path="url(#p089a57d88b)" d="M 297.461538 201.493006 
L 297.461538 187.909854 
" style="fill:none;stroke:#ff0000;stroke-width:1.5;"/>
    <path clip-path="url(#p089a57d88b)" d="M 311.769231 202.061204 
L 311.769231 187.041958 
" style="fill:none;stroke:#ff0000;stroke-width:1.5;"/>
    <path clip-path="url(#p089a57d88b)" d="M 326.076923 196.752277 
L 326.076923 178.939059 
" style="fill:none;stroke:#ff0000;stroke-width:1.5;"/>
    <path clip-path="url(#p089a57d88b)" d="M 340.384615 209.158799 
L 340.384615 191.351985 
" style="fill:none;stroke:#ff0000;stroke-width:1.5;"/>
    <path clip-path="url(#p089a57d88b)" d="M 354.692308 213.784816 
L 354.692308 190.613047 
" style="fill:none;stroke:#ff0000;stroke-width:1.5;"/>
    <path clip-path="url(#p089a57d88b)" d="M 369 225.338201 
L 369 203.057726 
" style="fill:none;stroke:#ff0000;stroke-width:1.5;"/>
    <path clip-path="url(#p089a57d88b)" d="M 383.307692 203.225678 
L 383.307692 180.628169 
" style="fill:none;stroke:#ff0000;stroke-width:1.5;"/>
    <path clip-path="url(#p089a57d88b)" d="M 397.615385 187.337052 
L 397.615385 162.419065 
" style="fill:none;stroke:#ff0000;stroke-width:1.5;"/>
    <path clip-path="url(#p089a57d88b)" d="M 411.923077 201.053377 
L 411.923077 174.773697 
" style="fill:none;stroke:#ff0000;stroke-width:1.5;"/>
    <path clip-path="url(#p089a57d88b)" d="M 426.230769 236.703291 
L 426.230769 210.165636 
" style="fill:none;stroke:#ff0000;stroke-width:1.5;"/>
    <path clip-path="url(#p089a57d88b)" d="M 440.538462 189.020376 
L 440.538462 154.953085 
" style="fill:none;stroke:#ff0000;stroke-width:1.5;"/>
    <path clip-path="url(#p089a57d88b)" d="M 454.846154 199.935004 
L 454.846154 167.747832 
" style="fill:none;stroke:#ff0000;stroke-width:1.5;"/>
    <path clip-path="url(#p089a57d88b)" d="M 469.153846 187.036642 
L 469.153846 146.753077 
" style="fill:none;stroke:#ff0000;stroke-width:1.5;"/>
    <path clip-path="url(#p089a57d88b)" d="M 483.461538 257.179077 
L 483.461538 221.390688 
" style="fill:none;stroke:#ff0000;stroke-width:1.5;"/>
    <path clip-path="url(#p089a57d88b)" d="M 497.769231 230.800383 
L 497.769231 190.939831 
" style="fill:none;stroke:#ff0000;stroke-width:1.5;"/>
    <path clip-path="url(#p089a57d88b)" d="M 512.076923 232.220833 
L 512.076923 189.519381 
" style="fill:none;stroke:#ff0000;stroke-width:1.5;"/>
    <path clip-path="url(#p089a57d88b)" d="M 526.384615 253.475582 
L 526.384615 199.047305 
" style="fill:none;stroke:#ff0000;stroke-width:1.5;"/>
    <path clip-path="url(#p089a57d88b)" d="M 540.692308 229.920712 
L 540.692308 175.402076 
" style="fill:none;stroke:#ff0000;stroke-width:1.5;"/>
    <path clip-path="url(#p089a57d88b)" d="M 555 214.337027 
L 555 175.282137 
" style="fill:none;stroke:#ff0000;stroke-width:1.5;"/>
    <path clip-path="url(#p089a57d88b)" d="M 569.307692 162.792206 
L 569.307692 111.191176 
" style="fill:none;stroke:#ff0000;stroke-width:1.5;"/>
    <path clip-path="url(#p089a57d88b)" d="M 583.615385 235.472413 
L 583.615385 163.880402 
" style="fill:none;stroke:#ff0000;stroke-width:1.5;"/>
    <path clip-path="url(#p089a57d88b)" d="M 597.923077 174.261289 
L 597.923077 124.348232 
" style="fill:none;stroke:#ff0000;stroke-width:1.5;"/>
    <path clip-path="url(#p089a57d88b)" d="M 612.230769 87.739414 
L 612.230769 87.739414 
" style="fill:none;stroke:#ff0000;stroke-width:1.5;"/>
    <path clip-path="url(#p089a57d88b)" d="M 626.538462 194.442151 
L 626.538462 145.210934 
" style="fill:none;stroke:#ff0000;stroke-width:1.5;"/>
    <path clip-path="url(#p089a57d88b)" d="M 640.846154 277.775287 
L 640.846154 226.052055 
" style="fill:none;stroke:#ff0000;stroke-width:1.5;"/>
   </g>
   <g id="LineCollection_3">
    <path clip-path="url(#p089a57d88b)" d="M 125.769231 104.955202 
L 125.769231 102.263899 
" style="fill:none;stroke:#0000ff;stroke-width:1.5;"/>
    <path clip-path="url(#p089a57d88b)" d="M 140.076923 128.000835 
L 140.076923 124.752911 
" style="fill:none;stroke:#0000ff;stroke-width:1.5;"/>
    <path clip-path="url(#p089a57d88b)" d="M 154.384615 146.351158 
L 154.384615 142.25733 
" style="fill:none;stroke:#0000ff;stroke-width:1.5;"/>
    <path clip-path="url(#p089a57d88b)" d="M 168.692308 139.84029 
L 168.692308 134.939564 
" style="fill:none;stroke:#0000ff;stroke-width:1.5;"/>
    <path clip-path="url(#p089a57d88b)" d="M 183 133.248543 
L 183 127.62764 
" style="fill:none;stroke:#0000ff;stroke-width:1.5;"/>
    <path clip-path="url(#p089a57d88b)" d="M 197.307692 128.779043 
L 197.307692 122.503064 
" style="fill:none;stroke:#0000ff;stroke-width:1.5;"/>
    <path clip-path="url(#p089a57d88b)" d="M 211.615385 132.583552 
L 211.615385 125.154051 
" style="fill:none;stroke:#0000ff;stroke-width:1.5;"/>
    <path clip-path="url(#p089a57d88b)" d="M 225.923077 139.842161 
L 225.923077 131.160101 
" style="fill:none;stroke:#0000ff;stroke-width:1.5;"/>
    <path clip-path="url(#p089a57d88b)" d="M 240.230769 150.88525 
L 240.230769 140.904834 
" style="fill:none;stroke:#0000ff;stroke-width:1.5;"/>
    <path clip-path="url(#p089a57d88b)" d="M 254.538462 161.219047 
L 254.538462 150.324989 
" style="fill:none;stroke:#0000ff;stroke-width:1.5;"/>
    <path clip-path="url(#p089a57d88b)" d="M 268.846154 190.570944 
L 268.846154 179.051672 
" style="fill:none;stroke:#0000ff;stroke-width:1.5;"/>
    <path clip-path="url(#p089a57d88b)" d="M 283.153846 201.379371 
L 283.153846 188.221036 
" style="fill:none;stroke:#0000ff;stroke-width:1.5;"/>
    <path clip-path="url(#p089a57d88b)" d="M 297.461538 206.470559 
L 297.461538 192.539154 
" style="fill:none;stroke:#0000ff;stroke-width:1.5;"/>
    <path clip-path="url(#p089a57d88b)" d="M 311.769231 207.966944 
L 311.769231 192.519829 
" style="fill:none;stroke:#0000ff;stroke-width:1.5;"/>
    <path clip-path="url(#p089a57d88b)" d="M 326.076923 204.636882 
L 326.076923 186.239404 
" style="fill:none;stroke:#0000ff;stroke-width:1.5;"/>
    <path clip-path="url(#p089a57d88b)" d="M 340.384615 213.44326 
L 340.384615 195.298011 
" style="fill:none;stroke:#0000ff;stroke-width:1.5;"/>
    <path clip-path="url(#p089a57d88b)" d="M 354.692308 217.338034 
L 354.692308 193.818899 
" style="fill:none;stroke:#0000ff;stroke-width:1.5;"/>
    <path clip-path="url(#p089a57d88b)" d="M 369 234.897367 
L 369 211.929766 
" style="fill:none;stroke:#0000ff;stroke-width:1.5;"/>
    <path clip-path="url(#p089a57d88b)" d="M 383.307692 209.555418 
L 383.307692 186.389822 
" style="fill:none;stroke:#0000ff;stroke-width:1.5;"/>
    <path clip-path="url(#p089a57d88b)" d="M 397.615385 191.262105 
L 397.615385 165.895069 
" style="fill:none;stroke:#0000ff;stroke-width:1.5;"/>
    <path clip-path="url(#p089a57d88b)" d="M 411.923077 205.342146 
L 411.923077 178.600887 
" style="fill:none;stroke:#0000ff;stroke-width:1.5;"/>
    <path clip-path="url(#p089a57d88b)" d="M 426.230769 241.710965 
L 426.230769 214.772426 
" style="fill:none;stroke:#0000ff;stroke-width:1.5;"/>
    <path clip-path="url(#p089a57d88b)" d="M 440.538462 195.699209 
L 440.538462 160.736873 
" style="fill:none;stroke:#0000ff;stroke-width:1.5;"/>
    <path clip-path="url(#p089a57d88b)" d="M 454.846154 206.059023 
L 454.846154 173.174536 
" style="fill:none;stroke:#0000ff;stroke-width:1.5;"/>
    <path clip-path="url(#p089a57d88b)" d="M 469.153846 196.045755 
L 469.153846 154.454557 
" style="fill:none;stroke:#0000ff;stroke-width:1.5;"/>
    <path clip-path="url(#p089a57d88b)" d="M 483.461538 266.117142 
L 483.461538 229.673698 
" style="fill:none;stroke:#0000ff;stroke-width:1.5;"/>
    <path clip-path="url(#p089a57d88b)" d="M 497.769231 252.574065 
L 497.769231 212.624041 
" style="fill:none;stroke:#0000ff;stroke-width:1.5;"/>
    <path clip-path="url(#p089a57d88b)" d="M 512.076923 249.876961 
L 512.076923 207.043451 
" style="fill:none;stroke:#0000ff;stroke-width:1.5;"/>
    <path clip-path="url(#p089a57d88b)" d="M 526.384615 283.213755 
L 526.384615 233.952746 
" style="fill:none;stroke:#0000ff;stroke-width:1.5;"/>
    <path clip-path="url(#p089a57d88b)" d="M 540.692308 229.920712 
L 540.692308 175.402076 
" style="fill:none;stroke:#0000ff;stroke-width:1.5;"/>
    <path clip-path="url(#p089a57d88b)" d="M 555 214.337027 
L 555 175.282137 
" style="fill:none;stroke:#0000ff;stroke-width:1.5;"/>
    <path clip-path="url(#p089a57d88b)" d="M 569.307692 180.060201 
L 569.307692 124.232275 
" style="fill:none;stroke:#0000ff;stroke-width:1.5;"/>
    <path clip-path="url(#p089a57d88b)" d="M 583.615385 267.075333 
L 583.615385 199.439678 
" style="fill:none;stroke:#0000ff;stroke-width:1.5;"/>
    <path clip-path="url(#p089a57d88b)" d="M 597.923077 174.261289 
L 597.923077 124.348232 
" style="fill:none;stroke:#0000ff;stroke-width:1.5;"/>
    <path clip-path="url(#p089a57d88b)" d="M 612.230769 87.739414 
L 612.230769 87.739414 
" style="fill:none;stroke:#0000ff;stroke-width:1.5;"/>
    <path clip-path="url(#p089a57d88b)" d="M 626.538462 194.442151 
L 626.538462 145.210934 
" style="fill:none;stroke:#0000ff;stroke-width:1.5;"/>
    <path clip-path="url(#p089a57d88b)" d="M 640.846154 277.775287 
L 640.846154 226.052055 
" style="fill:none;stroke:#0000ff;stroke-width:1.5;"/>
   </g>
   <g id="line2d_11">
    <path clip-path="url(#p089a57d88b)" d="M 90 121.611798 
L 104.307692 121.611798 
L 104.307692 115.549208 
L 118.615385 115.549208 
L 118.615385 101.858038 
L 132.923077 101.858038 
L 132.923077 99.570966 
L 147.230769 99.570966 
L 147.230769 96.607552 
L 161.538462 96.607552 
L 161.538462 95.083649 
L 175.846154 95.083649 
L 175.846154 95.78912 
L 190.153846 95.78912 
L 190.153846 97.153075 
L 204.461538 97.153075 
L 204.461538 97.70951 
L 218.769231 97.70951 
L 218.769231 97.94714 
L 233.076923 97.94714 
L 233.076923 94.532831 
L 247.384615 94.532831 
L 247.384615 93.845068 
L 261.692308 93.845068 
L 261.692308 90.586366 
L 276 90.586366 
L 276 96.727056 
L 290.307692 96.727056 
L 290.307692 96.231186 
L 304.615385 96.231186 
L 304.615385 97.790899 
L 318.923077 97.790899 
L 318.923077 100.532213 
L 333.230769 100.532213 
L 333.230769 95.316687 
L 347.538462 95.316687 
L 347.538462 94.053808 
L 361.846154 94.053808 
L 361.846154 106.682597 
L 376.153846 106.682597 
L 376.153846 98.218622 
L 390.461538 98.218622 
L 390.461538 93.466423 
L 404.769231 93.466423 
L 404.769231 94.580008 
L 419.076923 94.580008 
L 419.076923 98.446431 
L 433.384615 98.446431 
L 433.384615 97.211006 
L 447.692308 97.211006 
L 447.692308 97.211006 
L 462 97.211006 
L 462 100.052483 
L 476.307692 100.052483 
L 476.307692 110.126813 
L 490.615385 110.126813 
L 490.615385 131.197306 
L 504.923077 131.197306 
L 504.923077 122.919612 
L 519.230769 122.919612 
L 519.230769 161.61783 
L 533.538462 161.61783 
L 533.538462 87.739414 
L 547.846154 87.739414 
L 547.846154 87.739414 
L 562.153846 87.739414 
L 562.153846 106.682597 
L 576.461538 106.682597 
L 576.461538 149.30476 
L 590.769231 149.30476 
L 590.769231 87.739414 
L 605.076923 87.739414 
L 605.076923 87.739414 
L 619.384615 87.739414 
L 619.384615 87.739414 
L 633.692308 87.739414 
L 633.692308 87.739414 
L 648 87.739414 
" style="fill:none;stroke:#008000;stroke-linecap:square;stroke-width:1.5;"/>
   </g>
   <g id="line2d_12">
    <defs>
     <path d="M 2 0 
L -2 -0 
" id="ma51a1b3b19" style="stroke:#008000;"/>
    </defs>
    <g clip-path="url(#p089a57d88b)">
     <use style="fill:#008000;stroke:#008000;" x="97.153846" xlink:href="#ma51a1b3b19" y="126.783253"/>
     <use style="fill:#008000;stroke:#008000;" x="111.461538" xlink:href="#ma51a1b3b19" y="117.311107"/>
     <use style="fill:#008000;stroke:#008000;" x="125.769231" xlink:href="#ma51a1b3b19" y="103.202211"/>
     <use style="fill:#008000;stroke:#008000;" x="140.076923" xlink:href="#ma51a1b3b19" y="100.81577"/>
     <use style="fill:#008000;stroke:#008000;" x="154.384615" xlink:href="#ma51a1b3b19" y="97.814996"/>
     <use style="fill:#008000;stroke:#008000;" x="168.692308" xlink:href="#ma51a1b3b19" y="96.362433"/>
     <use style="fill:#008000;stroke:#008000;" x="183" xlink:href="#ma51a1b3b19" y="97.312757"/>
     <use style="fill:#008000;stroke:#008000;" x="197.307692" xlink:href="#ma51a1b3b19" y="98.998062"/>
     <use style="fill:#008000;stroke:#008000;" x="211.615385" xlink:href="#ma51a1b3b19" y="99.893296"/>
     <use style="fill:#008000;stroke:#008000;" x="225.923077" xlink:href="#ma51a1b3b19" y="100.445622"/>
     <use style="fill:#008000;stroke:#008000;" x="240.230769" xlink:href="#ma51a1b3b19" y="96.897234"/>
     <use style="fill:#008000;stroke:#008000;" x="254.538462" xlink:href="#ma51a1b3b19" y="96.306597"/>
     <use style="fill:#008000;stroke:#008000;" x="268.846154" xlink:href="#ma51a1b3b19" y="92.587795"/>
     <use style="fill:#008000;stroke:#008000;" x="283.153846" xlink:href="#ma51a1b3b19" y="100.658102"/>
     <use style="fill:#008000;stroke:#008000;" x="297.461538" xlink:href="#ma51a1b3b19" y="100.385357"/>
     <use style="fill:#008000;stroke:#008000;" x="311.769231" xlink:href="#ma51a1b3b19" y="102.713007"/>
     <use style="fill:#008000;stroke:#008000;" x="326.076923" xlink:href="#ma51a1b3b19" y="106.680916"/>
     <use style="fill:#008000;stroke:#008000;" x="340.384615" xlink:href="#ma51a1b3b19" y="100.473885"/>
     <use style="fill:#008000;stroke:#008000;" x="354.692308" xlink:href="#ma51a1b3b19" y="100.208319"/>
     <use style="fill:#008000;stroke:#008000;" x="369" xlink:href="#ma51a1b3b19" y="117.190385"/>
     <use style="fill:#008000;stroke:#008000;" x="383.307692" xlink:href="#ma51a1b3b19" y="105.393245"/>
     <use style="fill:#008000;stroke:#008000;" x="397.615385" xlink:href="#ma51a1b3b19" y="98.999239"/>
     <use style="fill:#008000;stroke:#008000;" x="411.923077" xlink:href="#ma51a1b3b19" y="101.233153"/>
     <use style="fill:#008000;stroke:#008000;" x="426.230769" xlink:href="#ma51a1b3b19" y="108.490503"/>
     <use style="fill:#008000;stroke:#008000;" x="440.538462" xlink:href="#ma51a1b3b19" y="106.498665"/>
     <use style="fill:#008000;stroke:#008000;" x="454.846154" xlink:href="#ma51a1b3b19" y="106.325049"/>
     <use style="fill:#008000;stroke:#008000;" x="469.153846" xlink:href="#ma51a1b3b19" y="112.053779"/>
     <use style="fill:#008000;stroke:#008000;" x="483.461538" xlink:href="#ma51a1b3b19" y="131.47236"/>
     <use style="fill:#008000;stroke:#008000;" x="497.769231" xlink:href="#ma51a1b3b19" y="153.966496"/>
     <use style="fill:#008000;stroke:#008000;" x="512.076923" xlink:href="#ma51a1b3b19" y="145.169523"/>
     <use style="fill:#008000;stroke:#008000;" x="526.384615" xlink:href="#ma51a1b3b19" y="197.304495"/>
     <use style="fill:#008000;stroke:#008000;" x="540.692308" xlink:href="#ma51a1b3b19" y="87.739414"/>
     <use style="fill:#008000;stroke:#008000;" x="555" xlink:href="#ma51a1b3b19" y="87.739414"/>
     <use style="fill:#008000;stroke:#008000;" x="569.307692" xlink:href="#ma51a1b3b19" y="124.882619"/>
     <use style="fill:#008000;stroke:#008000;" x="583.615385" xlink:href="#ma51a1b3b19" y="187.005682"/>
     <use style="fill:#008000;stroke:#008000;" x="597.923077" xlink:href="#ma51a1b3b19" y="87.739414"/>
     <use style="fill:#008000;stroke:#008000;" x="612.230769" xlink:href="#ma51a1b3b19" y="87.739414"/>
     <use style="fill:#008000;stroke:#008000;" x="626.538462" xlink:href="#ma51a1b3b19" y="87.739414"/>
     <use style="fill:#008000;stroke:#008000;" x="640.846154" xlink:href="#ma51a1b3b19" y="87.739414"/>
    </g>
   </g>
   <g id="line2d_13">
    <g clip-path="url(#p089a57d88b)">
     <use style="fill:#008000;stroke:#008000;" x="97.153846" xlink:href="#ma51a1b3b19" y="116.440343"/>
     <use style="fill:#008000;stroke:#008000;" x="111.461538" xlink:href="#ma51a1b3b19" y="113.787308"/>
     <use style="fill:#008000;stroke:#008000;" x="125.769231" xlink:href="#ma51a1b3b19" y="100.513865"/>
     <use style="fill:#008000;stroke:#008000;" x="140.076923" xlink:href="#ma51a1b3b19" y="98.326163"/>
     <use style="fill:#008000;stroke:#008000;" x="154.384615" xlink:href="#ma51a1b3b19" y="95.400109"/>
     <use style="fill:#008000;stroke:#008000;" x="168.692308" xlink:href="#ma51a1b3b19" y="93.804865"/>
     <use style="fill:#008000;stroke:#008000;" x="183" xlink:href="#ma51a1b3b19" y="94.265483"/>
     <use style="fill:#008000;stroke:#008000;" x="197.307692" xlink:href="#ma51a1b3b19" y="95.308089"/>
     <use style="fill:#008000;stroke:#008000;" x="211.615385" xlink:href="#ma51a1b3b19" y="95.525725"/>
     <use style="fill:#008000;stroke:#008000;" x="225.923077" xlink:href="#ma51a1b3b19" y="95.448658"/>
     <use style="fill:#008000;stroke:#008000;" x="240.230769" xlink:href="#ma51a1b3b19" y="92.168429"/>
     <use style="fill:#008000;stroke:#008000;" x="254.538462" xlink:href="#ma51a1b3b19" y="91.383539"/>
     <use style="fill:#008000;stroke:#008000;" x="268.846154" xlink:href="#ma51a1b3b19" y="88.584937"/>
     <use style="fill:#008000;stroke:#008000;" x="283.153846" xlink:href="#ma51a1b3b19" y="92.796009"/>
     <use style="fill:#008000;stroke:#008000;" x="297.461538" xlink:href="#ma51a1b3b19" y="92.077014"/>
     <use style="fill:#008000;stroke:#008000;" x="311.769231" xlink:href="#ma51a1b3b19" y="92.868791"/>
     <use style="fill:#008000;stroke:#008000;" x="326.076923" xlink:href="#ma51a1b3b19" y="94.383511"/>
     <use style="fill:#008000;stroke:#008000;" x="340.384615" xlink:href="#ma51a1b3b19" y="90.15949"/>
     <use style="fill:#008000;stroke:#008000;" x="354.692308" xlink:href="#ma51a1b3b19" y="87.899298"/>
     <use style="fill:#008000;stroke:#008000;" x="369" xlink:href="#ma51a1b3b19" y="96.17481"/>
     <use style="fill:#008000;stroke:#008000;" x="383.307692" xlink:href="#ma51a1b3b19" y="91.043999"/>
     <use style="fill:#008000;stroke:#008000;" x="397.615385" xlink:href="#ma51a1b3b19" y="87.933607"/>
     <use style="fill:#008000;stroke:#008000;" x="411.923077" xlink:href="#ma51a1b3b19" y="87.926863"/>
     <use style="fill:#008000;stroke:#008000;" x="426.230769" xlink:href="#ma51a1b3b19" y="88.402359"/>
     <use style="fill:#008000;stroke:#008000;" x="440.538462" xlink:href="#ma51a1b3b19" y="87.923346"/>
     <use style="fill:#008000;stroke:#008000;" x="454.846154" xlink:href="#ma51a1b3b19" y="88.096962"/>
     <use style="fill:#008000;stroke:#008000;" x="469.153846" xlink:href="#ma51a1b3b19" y="88.051188"/>
     <use style="fill:#008000;stroke:#008000;" x="483.461538" xlink:href="#ma51a1b3b19" y="88.781265"/>
     <use style="fill:#008000;stroke:#008000;" x="497.769231" xlink:href="#ma51a1b3b19" y="108.428115"/>
     <use style="fill:#008000;stroke:#008000;" x="512.076923" xlink:href="#ma51a1b3b19" y="100.669701"/>
     <use style="fill:#008000;stroke:#008000;" x="526.384615" xlink:href="#ma51a1b3b19" y="125.931164"/>
     <use style="fill:#008000;stroke:#008000;" x="540.692308" xlink:href="#ma51a1b3b19" y="87.739414"/>
     <use style="fill:#008000;stroke:#008000;" x="555" xlink:href="#ma51a1b3b19" y="87.739414"/>
     <use style="fill:#008000;stroke:#008000;" x="569.307692" xlink:href="#ma51a1b3b19" y="88.482575"/>
     <use style="fill:#008000;stroke:#008000;" x="583.615385" xlink:href="#ma51a1b3b19" y="111.603839"/>
     <use style="fill:#008000;stroke:#008000;" x="597.923077" xlink:href="#ma51a1b3b19" y="87.739414"/>
     <use style="fill:#008000;stroke:#008000;" x="612.230769" xlink:href="#ma51a1b3b19" y="87.739414"/>
     <use style="fill:#008000;stroke:#008000;" x="626.538462" xlink:href="#ma51a1b3b19" y="87.739414"/>
     <use style="fill:#008000;stroke:#008000;" x="640.846154" xlink:href="#ma51a1b3b19" y="87.739414"/>
    </g>
   </g>
   <g id="line2d_14">
    <path clip-path="url(#p089a57d88b)" d="M 90 87.739414 
L 104.307692 87.739414 
L 104.307692 87.739414 
L 118.615385 87.739414 
L 118.615385 89.597451 
L 132.923077 89.597451 
L 132.923077 115.8982 
L 147.230769 115.8982 
L 147.230769 137.217878 
L 161.538462 137.217878 
L 161.538462 131.346173 
L 175.846154 131.346173 
L 175.846154 123.559252 
L 190.153846 123.559252 
L 190.153846 117.359665 
L 204.461538 117.359665 
L 204.461538 120.213443 
L 218.769231 120.213443 
L 218.769231 126.917362 
L 233.076923 126.917362 
L 233.076923 140.558708 
L 247.384615 140.558708 
L 247.384615 151.240778 
L 261.692308 151.240778 
L 261.692308 183.066402 
L 276 183.066402 
L 276 189.527453 
L 290.307692 189.527453 
L 290.307692 194.70143 
L 304.615385 194.70143 
L 304.615385 194.551581 
L 318.923077 194.551581 
L 318.923077 187.845668 
L 333.230769 187.845668 
L 333.230769 200.255392 
L 347.538462 200.255392 
L 347.538462 202.198931 
L 361.846154 202.198931 
L 361.846154 214.197964 
L 376.153846 214.197964 
L 376.153846 191.926923 
L 390.461538 191.926923 
L 390.461538 174.878058 
L 404.769231 174.878058 
L 404.769231 187.913537 
L 419.076923 187.913537 
L 419.076923 223.434463 
L 433.384615 223.434463 
L 433.384615 171.98673 
L 447.692308 171.98673 
L 447.692308 183.841418 
L 462 183.841418 
L 462 166.894859 
L 476.307692 166.894859 
L 476.307692 239.284882 
L 490.615385 239.284882 
L 490.615385 210.870107 
L 504.923077 210.870107 
L 504.923077 210.870107 
L 519.230769 210.870107 
L 519.230769 226.261444 
L 533.538462 226.261444 
L 533.538462 202.661394 
L 547.846154 202.661394 
L 547.846154 194.809582 
L 562.153846 194.809582 
L 562.153846 136.991691 
L 576.461538 136.991691 
L 576.461538 199.676408 
L 590.769231 199.676408 
L 590.769231 149.30476 
L 605.076923 149.30476 
L 605.076923 87.739414 
L 619.384615 87.739414 
L 619.384615 169.826543 
L 633.692308 169.826543 
L 633.692308 251.913671 
L 648 251.913671 
" style="fill:none;stroke:#ff0000;stroke-linecap:square;stroke-width:1.5;"/>
   </g>
   <g id="line2d_15">
    <defs>
     <path d="M 2 0 
L -2 -0 
" id="m993798186c" style="stroke:#ff0000;"/>
    </defs>
    <g clip-path="url(#p089a57d88b)">
     <use style="fill:#ff0000;stroke:#ff0000;" x="125.769231" xlink:href="#m993798186c" y="89.784646"/>
     <use style="fill:#ff0000;stroke:#ff0000;" x="140.076923" xlink:href="#m993798186c" y="117.150781"/>
     <use style="fill:#ff0000;stroke:#ff0000;" x="154.384615" xlink:href="#m993798186c" y="139.090566"/>
     <use style="fill:#ff0000;stroke:#ff0000;" x="168.692308" xlink:href="#m993798186c" y="133.62708"/>
     <use style="fill:#ff0000;stroke:#ff0000;" x="183" xlink:href="#m993798186c" y="126.134077"/>
     <use style="fill:#ff0000;stroke:#ff0000;" x="197.307692" xlink:href="#m993798186c" y="120.152037"/>
     <use style="fill:#ff0000;stroke:#ff0000;" x="211.615385" xlink:href="#m993798186c" y="123.542802"/>
     <use style="fill:#ff0000;stroke:#ff0000;" x="225.923077" xlink:href="#m993798186c" y="130.880362"/>
     <use style="fill:#ff0000;stroke:#ff0000;" x="240.230769" xlink:href="#m993798186c" y="145.321811"/>
     <use style="fill:#ff0000;stroke:#ff0000;" x="254.538462" xlink:href="#m993798186c" y="156.502805"/>
     <use style="fill:#ff0000;stroke:#ff0000;" x="268.846154" xlink:href="#m993798186c" y="188.759712"/>
     <use style="fill:#ff0000;stroke:#ff0000;" x="283.153846" xlink:href="#m993798186c" y="195.922574"/>
     <use style="fill:#ff0000;stroke:#ff0000;" x="297.461538" xlink:href="#m993798186c" y="201.493006"/>
     <use style="fill:#ff0000;stroke:#ff0000;" x="311.769231" xlink:href="#m993798186c" y="202.061204"/>
     <use style="fill:#ff0000;stroke:#ff0000;" x="326.076923" xlink:href="#m993798186c" y="196.752277"/>
     <use style="fill:#ff0000;stroke:#ff0000;" x="340.384615" xlink:href="#m993798186c" y="209.158799"/>
     <use style="fill:#ff0000;stroke:#ff0000;" x="354.692308" xlink:href="#m993798186c" y="213.784816"/>
     <use style="fill:#ff0000;stroke:#ff0000;" x="369" xlink:href="#m993798186c" y="225.338201"/>
     <use style="fill:#ff0000;stroke:#ff0000;" x="383.307692" xlink:href="#m993798186c" y="203.225678"/>
     <use style="fill:#ff0000;stroke:#ff0000;" x="397.615385" xlink:href="#m993798186c" y="187.337052"/>
     <use style="fill:#ff0000;stroke:#ff0000;" x="411.923077" xlink:href="#m993798186c" y="201.053377"/>
     <use style="fill:#ff0000;stroke:#ff0000;" x="426.230769" xlink:href="#m993798186c" y="236.703291"/>
     <use style="fill:#ff0000;stroke:#ff0000;" x="440.538462" xlink:href="#m993798186c" y="189.020376"/>
     <use style="fill:#ff0000;stroke:#ff0000;" x="454.846154" xlink:href="#m993798186c" y="199.935004"/>
     <use style="fill:#ff0000;stroke:#ff0000;" x="469.153846" xlink:href="#m993798186c" y="187.036642"/>
     <use style="fill:#ff0000;stroke:#ff0000;" x="483.461538" xlink:href="#m993798186c" y="257.179077"/>
     <use style="fill:#ff0000;stroke:#ff0000;" x="497.769231" xlink:href="#m993798186c" y="230.800383"/>
     <use style="fill:#ff0000;stroke:#ff0000;" x="512.076923" xlink:href="#m993798186c" y="232.220833"/>
     <use style="fill:#ff0000;stroke:#ff0000;" x="526.384615" xlink:href="#m993798186c" y="253.475582"/>
     <use style="fill:#ff0000;stroke:#ff0000;" x="540.692308" xlink:href="#m993798186c" y="229.920712"/>
     <use style="fill:#ff0000;stroke:#ff0000;" x="555" xlink:href="#m993798186c" y="214.337027"/>
     <use style="fill:#ff0000;stroke:#ff0000;" x="569.307692" xlink:href="#m993798186c" y="162.792206"/>
     <use style="fill:#ff0000;stroke:#ff0000;" x="583.615385" xlink:href="#m993798186c" y="235.472413"/>
     <use style="fill:#ff0000;stroke:#ff0000;" x="597.923077" xlink:href="#m993798186c" y="174.261289"/>
     <use style="fill:#ff0000;stroke:#ff0000;" x="612.230769" xlink:href="#m993798186c" y="87.739414"/>
     <use style="fill:#ff0000;stroke:#ff0000;" x="626.538462" xlink:href="#m993798186c" y="194.442151"/>
     <use style="fill:#ff0000;stroke:#ff0000;" x="640.846154" xlink:href="#m993798186c" y="277.775287"/>
    </g>
   </g>
   <g id="line2d_16">
    <g clip-path="url(#p089a57d88b)">
     <use style="fill:#ff0000;stroke:#ff0000;" x="125.769231" xlink:href="#m993798186c" y="89.410256"/>
     <use style="fill:#ff0000;stroke:#ff0000;" x="140.076923" xlink:href="#m993798186c" y="114.645619"/>
     <use style="fill:#ff0000;stroke:#ff0000;" x="154.384615" xlink:href="#m993798186c" y="135.34519"/>
     <use style="fill:#ff0000;stroke:#ff0000;" x="168.692308" xlink:href="#m993798186c" y="129.065267"/>
     <use style="fill:#ff0000;stroke:#ff0000;" x="183" xlink:href="#m993798186c" y="120.984426"/>
     <use style="fill:#ff0000;stroke:#ff0000;" x="197.307692" xlink:href="#m993798186c" y="114.567292"/>
     <use style="fill:#ff0000;stroke:#ff0000;" x="211.615385" xlink:href="#m993798186c" y="116.884084"/>
     <use style="fill:#ff0000;stroke:#ff0000;" x="225.923077" xlink:href="#m993798186c" y="122.954361"/>
     <use style="fill:#ff0000;stroke:#ff0000;" x="240.230769" xlink:href="#m993798186c" y="135.795605"/>
     <use style="fill:#ff0000;stroke:#ff0000;" x="254.538462" xlink:href="#m993798186c" y="145.97875"/>
     <use style="fill:#ff0000;stroke:#ff0000;" x="268.846154" xlink:href="#m993798186c" y="177.373092"/>
     <use style="fill:#ff0000;stroke:#ff0000;" x="283.153846" xlink:href="#m993798186c" y="183.132333"/>
     <use style="fill:#ff0000;stroke:#ff0000;" x="297.461538" xlink:href="#m993798186c" y="187.909854"/>
     <use style="fill:#ff0000;stroke:#ff0000;" x="311.769231" xlink:href="#m993798186c" y="187.041958"/>
     <use style="fill:#ff0000;stroke:#ff0000;" x="326.076923" xlink:href="#m993798186c" y="178.939059"/>
     <use style="fill:#ff0000;stroke:#ff0000;" x="340.384615" xlink:href="#m993798186c" y="191.351985"/>
     <use style="fill:#ff0000;stroke:#ff0000;" x="354.692308" xlink:href="#m993798186c" y="190.613047"/>
     <use style="fill:#ff0000;stroke:#ff0000;" x="369" xlink:href="#m993798186c" y="203.057726"/>
     <use style="fill:#ff0000;stroke:#ff0000;" x="383.307692" xlink:href="#m993798186c" y="180.628169"/>
     <use style="fill:#ff0000;stroke:#ff0000;" x="397.615385" xlink:href="#m993798186c" y="162.419065"/>
     <use style="fill:#ff0000;stroke:#ff0000;" x="411.923077" xlink:href="#m993798186c" y="174.773697"/>
     <use style="fill:#ff0000;stroke:#ff0000;" x="426.230769" xlink:href="#m993798186c" y="210.165636"/>
     <use style="fill:#ff0000;stroke:#ff0000;" x="440.538462" xlink:href="#m993798186c" y="154.953085"/>
     <use style="fill:#ff0000;stroke:#ff0000;" x="454.846154" xlink:href="#m993798186c" y="167.747832"/>
     <use style="fill:#ff0000;stroke:#ff0000;" x="469.153846" xlink:href="#m993798186c" y="146.753077"/>
     <use style="fill:#ff0000;stroke:#ff0000;" x="483.461538" xlink:href="#m993798186c" y="221.390688"/>
     <use style="fill:#ff0000;stroke:#ff0000;" x="497.769231" xlink:href="#m993798186c" y="190.939831"/>
     <use style="fill:#ff0000;stroke:#ff0000;" x="512.076923" xlink:href="#m993798186c" y="189.519381"/>
     <use style="fill:#ff0000;stroke:#ff0000;" x="526.384615" xlink:href="#m993798186c" y="199.047305"/>
     <use style="fill:#ff0000;stroke:#ff0000;" x="540.692308" xlink:href="#m993798186c" y="175.402076"/>
     <use style="fill:#ff0000;stroke:#ff0000;" x="555" xlink:href="#m993798186c" y="175.282137"/>
     <use style="fill:#ff0000;stroke:#ff0000;" x="569.307692" xlink:href="#m993798186c" y="111.191176"/>
     <use style="fill:#ff0000;stroke:#ff0000;" x="583.615385" xlink:href="#m993798186c" y="163.880402"/>
     <use style="fill:#ff0000;stroke:#ff0000;" x="597.923077" xlink:href="#m993798186c" y="124.348232"/>
     <use style="fill:#ff0000;stroke:#ff0000;" x="612.230769" xlink:href="#m993798186c" y="87.739414"/>
     <use style="fill:#ff0000;stroke:#ff0000;" x="626.538462" xlink:href="#m993798186c" y="145.210934"/>
     <use style="fill:#ff0000;stroke:#ff0000;" x="640.846154" xlink:href="#m993798186c" y="226.052055"/>
    </g>
   </g>
   <g id="line2d_17">
    <path clip-path="url(#p089a57d88b)" d="M 90 121.611798 
L 104.307692 121.611798 
L 104.307692 115.549208 
L 118.615385 115.549208 
L 118.615385 103.60955 
L 132.923077 103.60955 
L 132.923077 126.376873 
L 147.230769 126.376873 
L 147.230769 144.304244 
L 161.538462 144.304244 
L 161.538462 137.389927 
L 175.846154 137.389927 
L 175.846154 130.438092 
L 190.153846 130.438092 
L 190.153846 125.641053 
L 204.461538 125.641053 
L 204.461538 128.868801 
L 218.769231 128.868801 
L 218.769231 135.501131 
L 233.076923 135.501131 
L 233.076923 145.895042 
L 247.384615 145.895042 
L 247.384615 155.772018 
L 261.692308 155.772018 
L 261.692308 184.811308 
L 276 184.811308 
L 276 194.800203 
L 290.307692 194.800203 
L 290.307692 199.504857 
L 304.615385 199.504857 
L 304.615385 200.243386 
L 318.923077 200.243386 
L 318.923077 195.438143 
L 333.230769 195.438143 
L 333.230769 204.370635 
L 347.538462 204.370635 
L 347.538462 205.578466 
L 361.846154 205.578466 
L 361.846154 223.413566 
L 376.153846 223.413566 
L 376.153846 197.97262 
L 390.461538 197.97262 
L 390.461538 178.578587 
L 404.769231 178.578587 
L 404.769231 191.971517 
L 419.076923 191.971517 
L 419.076923 228.241695 
L 433.384615 228.241695 
L 433.384615 178.218041 
L 447.692308 178.218041 
L 447.692308 189.616779 
L 462 189.616779 
L 462 175.250156 
L 476.307692 175.250156 
L 476.307692 247.89542 
L 490.615385 247.89542 
L 490.615385 232.599053 
L 504.923077 232.599053 
L 504.923077 228.460206 
L 519.230769 228.460206 
L 519.230769 258.58325 
L 533.538462 258.58325 
L 533.538462 202.661394 
L 547.846154 202.661394 
L 547.846154 194.809582 
L 562.153846 194.809582 
L 562.153846 152.146238 
L 576.461538 152.146238 
L 576.461538 233.257506 
L 590.769231 233.257506 
L 590.769231 149.30476 
L 605.076923 149.30476 
L 605.076923 87.739414 
L 619.384615 87.739414 
L 619.384615 169.826543 
L 633.692308 169.826543 
L 633.692308 251.913671 
L 648 251.913671 
" style="fill:none;stroke:#0000ff;stroke-linecap:square;stroke-width:1.5;"/>
   </g>
   <g id="line2d_18">
    <defs>
     <path d="M 2 0 
L -2 -0 
" id="m4d0db56c6c" style="stroke:#0000ff;"/>
    </defs>
    <g clip-path="url(#p089a57d88b)">
     <use style="fill:#0000ff;stroke:#0000ff;" x="125.769231" xlink:href="#m4d0db56c6c" y="104.955202"/>
     <use style="fill:#0000ff;stroke:#0000ff;" x="140.076923" xlink:href="#m4d0db56c6c" y="128.000835"/>
     <use style="fill:#0000ff;stroke:#0000ff;" x="154.384615" xlink:href="#m4d0db56c6c" y="146.351158"/>
     <use style="fill:#0000ff;stroke:#0000ff;" x="168.692308" xlink:href="#m4d0db56c6c" y="139.84029"/>
     <use style="fill:#0000ff;stroke:#0000ff;" x="183" xlink:href="#m4d0db56c6c" y="133.248543"/>
     <use style="fill:#0000ff;stroke:#0000ff;" x="197.307692" xlink:href="#m4d0db56c6c" y="128.779043"/>
     <use style="fill:#0000ff;stroke:#0000ff;" x="211.615385" xlink:href="#m4d0db56c6c" y="132.583552"/>
     <use style="fill:#0000ff;stroke:#0000ff;" x="225.923077" xlink:href="#m4d0db56c6c" y="139.842161"/>
     <use style="fill:#0000ff;stroke:#0000ff;" x="240.230769" xlink:href="#m4d0db56c6c" y="150.88525"/>
     <use style="fill:#0000ff;stroke:#0000ff;" x="254.538462" xlink:href="#m4d0db56c6c" y="161.219047"/>
     <use style="fill:#0000ff;stroke:#0000ff;" x="268.846154" xlink:href="#m4d0db56c6c" y="190.570944"/>
     <use style="fill:#0000ff;stroke:#0000ff;" x="283.153846" xlink:href="#m4d0db56c6c" y="201.379371"/>
     <use style="fill:#0000ff;stroke:#0000ff;" x="297.461538" xlink:href="#m4d0db56c6c" y="206.470559"/>
     <use style="fill:#0000ff;stroke:#0000ff;" x="311.769231" xlink:href="#m4d0db56c6c" y="207.966944"/>
     <use style="fill:#0000ff;stroke:#0000ff;" x="326.076923" xlink:href="#m4d0db56c6c" y="204.636882"/>
     <use style="fill:#0000ff;stroke:#0000ff;" x="340.384615" xlink:href="#m4d0db56c6c" y="213.44326"/>
     <use style="fill:#0000ff;stroke:#0000ff;" x="354.692308" xlink:href="#m4d0db56c6c" y="217.338034"/>
     <use style="fill:#0000ff;stroke:#0000ff;" x="369" xlink:href="#m4d0db56c6c" y="234.897367"/>
     <use style="fill:#0000ff;stroke:#0000ff;" x="383.307692" xlink:href="#m4d0db56c6c" y="209.555418"/>
     <use style="fill:#0000ff;stroke:#0000ff;" x="397.615385" xlink:href="#m4d0db56c6c" y="191.262105"/>
     <use style="fill:#0000ff;stroke:#0000ff;" x="411.923077" xlink:href="#m4d0db56c6c" y="205.342146"/>
     <use style="fill:#0000ff;stroke:#0000ff;" x="426.230769" xlink:href="#m4d0db56c6c" y="241.710965"/>
     <use style="fill:#0000ff;stroke:#0000ff;" x="440.538462" xlink:href="#m4d0db56c6c" y="195.699209"/>
     <use style="fill:#0000ff;stroke:#0000ff;" x="454.846154" xlink:href="#m4d0db56c6c" y="206.059023"/>
     <use style="fill:#0000ff;stroke:#0000ff;" x="469.153846" xlink:href="#m4d0db56c6c" y="196.045755"/>
     <use style="fill:#0000ff;stroke:#0000ff;" x="483.461538" xlink:href="#m4d0db56c6c" y="266.117142"/>
     <use style="fill:#0000ff;stroke:#0000ff;" x="497.769231" xlink:href="#m4d0db56c6c" y="252.574065"/>
     <use style="fill:#0000ff;stroke:#0000ff;" x="512.076923" xlink:href="#m4d0db56c6c" y="249.876961"/>
     <use style="fill:#0000ff;stroke:#0000ff;" x="526.384615" xlink:href="#m4d0db56c6c" y="283.213755"/>
     <use style="fill:#0000ff;stroke:#0000ff;" x="540.692308" xlink:href="#m4d0db56c6c" y="229.920712"/>
     <use style="fill:#0000ff;stroke:#0000ff;" x="555" xlink:href="#m4d0db56c6c" y="214.337027"/>
     <use style="fill:#0000ff;stroke:#0000ff;" x="569.307692" xlink:href="#m4d0db56c6c" y="180.060201"/>
     <use style="fill:#0000ff;stroke:#0000ff;" x="583.615385" xlink:href="#m4d0db56c6c" y="267.075333"/>
     <use style="fill:#0000ff;stroke:#0000ff;" x="597.923077" xlink:href="#m4d0db56c6c" y="174.261289"/>
     <use style="fill:#0000ff;stroke:#0000ff;" x="612.230769" xlink:href="#m4d0db56c6c" y="87.739414"/>
     <use style="fill:#0000ff;stroke:#0000ff;" x="626.538462" xlink:href="#m4d0db56c6c" y="194.442151"/>
     <use style="fill:#0000ff;stroke:#0000ff;" x="640.846154" xlink:href="#m4d0db56c6c" y="277.775287"/>
    </g>
   </g>
   <g id="line2d_19">
    <g clip-path="url(#p089a57d88b)">
     <use style="fill:#0000ff;stroke:#0000ff;" x="125.769231" xlink:href="#m4d0db56c6c" y="102.263899"/>
     <use style="fill:#0000ff;stroke:#0000ff;" x="140.076923" xlink:href="#m4d0db56c6c" y="124.752911"/>
     <use style="fill:#0000ff;stroke:#0000ff;" x="154.384615" xlink:href="#m4d0db56c6c" y="142.25733"/>
     <use style="fill:#0000ff;stroke:#0000ff;" x="168.692308" xlink:href="#m4d0db56c6c" y="134.939564"/>
     <use style="fill:#0000ff;stroke:#0000ff;" x="183" xlink:href="#m4d0db56c6c" y="127.62764"/>
     <use style="fill:#0000ff;stroke:#0000ff;" x="197.307692" xlink:href="#m4d0db56c6c" y="122.503064"/>
     <use style="fill:#0000ff;stroke:#0000ff;" x="211.615385" xlink:href="#m4d0db56c6c" y="125.154051"/>
     <use style="fill:#0000ff;stroke:#0000ff;" x="225.923077" xlink:href="#m4d0db56c6c" y="131.160101"/>
     <use style="fill:#0000ff;stroke:#0000ff;" x="240.230769" xlink:href="#m4d0db56c6c" y="140.904834"/>
     <use style="fill:#0000ff;stroke:#0000ff;" x="254.538462" xlink:href="#m4d0db56c6c" y="150.324989"/>
     <use style="fill:#0000ff;stroke:#0000ff;" x="268.846154" xlink:href="#m4d0db56c6c" y="179.051672"/>
     <use style="fill:#0000ff;stroke:#0000ff;" x="283.153846" xlink:href="#m4d0db56c6c" y="188.221036"/>
     <use style="fill:#0000ff;stroke:#0000ff;" x="297.461538" xlink:href="#m4d0db56c6c" y="192.539154"/>
     <use style="fill:#0000ff;stroke:#0000ff;" x="311.769231" xlink:href="#m4d0db56c6c" y="192.519829"/>
     <use style="fill:#0000ff;stroke:#0000ff;" x="326.076923" xlink:href="#m4d0db56c6c" y="186.239404"/>
     <use style="fill:#0000ff;stroke:#0000ff;" x="340.384615" xlink:href="#m4d0db56c6c" y="195.298011"/>
     <use style="fill:#0000ff;stroke:#0000ff;" x="354.692308" xlink:href="#m4d0db56c6c" y="193.818899"/>
     <use style="fill:#0000ff;stroke:#0000ff;" x="369" xlink:href="#m4d0db56c6c" y="211.929766"/>
     <use style="fill:#0000ff;stroke:#0000ff;" x="383.307692" xlink:href="#m4d0db56c6c" y="186.389822"/>
     <use style="fill:#0000ff;stroke:#0000ff;" x="397.615385" xlink:href="#m4d0db56c6c" y="165.895069"/>
     <use style="fill:#0000ff;stroke:#0000ff;" x="411.923077" xlink:href="#m4d0db56c6c" y="178.600887"/>
     <use style="fill:#0000ff;stroke:#0000ff;" x="426.230769" xlink:href="#m4d0db56c6c" y="214.772426"/>
     <use style="fill:#0000ff;stroke:#0000ff;" x="440.538462" xlink:href="#m4d0db56c6c" y="160.736873"/>
     <use style="fill:#0000ff;stroke:#0000ff;" x="454.846154" xlink:href="#m4d0db56c6c" y="173.174536"/>
     <use style="fill:#0000ff;stroke:#0000ff;" x="469.153846" xlink:href="#m4d0db56c6c" y="154.454557"/>
     <use style="fill:#0000ff;stroke:#0000ff;" x="483.461538" xlink:href="#m4d0db56c6c" y="229.673698"/>
     <use style="fill:#0000ff;stroke:#0000ff;" x="497.769231" xlink:href="#m4d0db56c6c" y="212.624041"/>
     <use style="fill:#0000ff;stroke:#0000ff;" x="512.076923" xlink:href="#m4d0db56c6c" y="207.043451"/>
     <use style="fill:#0000ff;stroke:#0000ff;" x="526.384615" xlink:href="#m4d0db56c6c" y="233.952746"/>
     <use style="fill:#0000ff;stroke:#0000ff;" x="540.692308" xlink:href="#m4d0db56c6c" y="175.402076"/>
     <use style="fill:#0000ff;stroke:#0000ff;" x="555" xlink:href="#m4d0db56c6c" y="175.282137"/>
     <use style="fill:#0000ff;stroke:#0000ff;" x="569.307692" xlink:href="#m4d0db56c6c" y="124.232275"/>
     <use style="fill:#0000ff;stroke:#0000ff;" x="583.615385" xlink:href="#m4d0db56c6c" y="199.439678"/>
     <use style="fill:#0000ff;stroke:#0000ff;" x="597.923077" xlink:href="#m4d0db56c6c" y="124.348232"/>
     <use style="fill:#0000ff;stroke:#0000ff;" x="612.230769" xlink:href="#m4d0db56c6c" y="87.739414"/>
     <use style="fill:#0000ff;stroke:#0000ff;" x="626.538462" xlink:href="#m4d0db56c6c" y="145.210934"/>
     <use style="fill:#0000ff;stroke:#0000ff;" x="640.846154" xlink:href="#m4d0db56c6c" y="226.052055"/>
    </g>
   </g>
   <g id="patch_3">
    <path d="M 90 334.0008 
L 90 85.2768 
" style="fill:none;stroke:#000000;stroke-linecap:square;stroke-linejoin:miter;stroke-width:0.8;"/>
   </g>
   <g id="patch_4">
    <path d="M 648 334.0008 
L 648 85.2768 
" style="fill:none;stroke:#000000;stroke-linecap:square;stroke-linejoin:miter;stroke-width:0.8;"/>
   </g>
   <g id="patch_5">
    <path d="M 90 334.0008 
L 648 334.0008 
" style="fill:none;stroke:#000000;stroke-linecap:square;stroke-linejoin:miter;stroke-width:0.8;"/>
   </g>
   <g id="patch_6">
    <path d="M 90 85.2768 
L 648 85.2768 
" style="fill:none;stroke:#000000;stroke-linecap:square;stroke-linejoin:miter;stroke-width:0.8;"/>
   </g>
   <g id="legend_1">
    <g id="patch_7">
     <path d="M 266.025938 325.0008 
L 471.974063 325.0008 
Q 475.574063 325.0008 475.574063 321.4008 
L 475.574063 243.938925 
Q 475.574063 240.338925 471.974063 240.338925 
L 266.025938 240.338925 
Q 262.425938 240.338925 262.425938 243.938925 
L 262.425938 321.4008 
Q 262.425938 325.0008 266.025938 325.0008 
z
" style="fill:#ffffff;opacity:0.5;stroke:#cccccc;stroke-linejoin:miter;"/>
    </g>
    <g id="line2d_20">
     <path d="M 269.625938 254.916112 
L 305.625938 254.916112 
" style="fill:none;stroke:#008000;stroke-linecap:square;stroke-width:1.5;"/>
    </g>
    <g id="line2d_21"/>
    <g id="text_6">
     <!-- Efficiency -->
     <defs>
      <path d="M 9.8125 72.90625 
L 55.90625 72.90625 
L 55.90625 64.59375 
L 19.671875 64.59375 
L 19.671875 43.015625 
L 54.390625 43.015625 
L 54.390625 34.71875 
L 19.671875 34.71875 
L 19.671875 8.296875 
L 56.78125 8.296875 
L 56.78125 0 
L 9.8125 0 
z
" id="DejaVuSans-69"/>
      <path d="M 37.109375 75.984375 
L 37.109375 68.5 
L 28.515625 68.5 
Q 23.6875 68.5 21.796875 66.546875 
Q 19.921875 64.59375 19.921875 59.515625 
L 19.921875 54.6875 
L 34.71875 54.6875 
L 34.71875 47.703125 
L 19.921875 47.703125 
L 19.921875 0 
L 10.890625 0 
L 10.890625 47.703125 
L 2.296875 47.703125 
L 2.296875 54.6875 
L 10.890625 54.6875 
L 10.890625 58.5 
Q 10.890625 67.625 15.140625 71.796875 
Q 19.390625 75.984375 28.609375 75.984375 
z
" id="DejaVuSans-102"/>
      <path d="M 32.171875 -5.078125 
Q 28.375 -14.84375 24.75 -17.8125 
Q 21.140625 -20.796875 15.09375 -20.796875 
L 7.90625 -20.796875 
L 7.90625 -13.28125 
L 13.1875 -13.28125 
Q 16.890625 -13.28125 18.9375 -11.515625 
Q 21 -9.765625 23.484375 -3.21875 
L 25.09375 0.875 
L 2.984375 54.6875 
L 12.5 54.6875 
L 29.59375 11.921875 
L 46.6875 54.6875 
L 56.203125 54.6875 
z
" id="DejaVuSans-121"/>
     </defs>
     <g transform="translate(320.025937 261.216113)scale(0.18 -0.18)">
      <use xlink:href="#DejaVuSans-69"/>
      <use x="63.183594" xlink:href="#DejaVuSans-102"/>
      <use x="98.388672" xlink:href="#DejaVuSans-102"/>
      <use x="133.59375" xlink:href="#DejaVuSans-105"/>
      <use x="161.376953" xlink:href="#DejaVuSans-99"/>
      <use x="216.357422" xlink:href="#DejaVuSans-105"/>
      <use x="244.140625" xlink:href="#DejaVuSans-101"/>
      <use x="305.664062" xlink:href="#DejaVuSans-110"/>
      <use x="369.042969" xlink:href="#DejaVuSans-99"/>
      <use x="424.023438" xlink:href="#DejaVuSans-121"/>
     </g>
    </g>
    <g id="line2d_22">
     <path d="M 269.625938 281.336737 
L 305.625938 281.336737 
" style="fill:none;stroke:#ff0000;stroke-linecap:square;stroke-width:1.5;"/>
    </g>
    <g id="line2d_23"/>
    <g id="text_7">
     <!-- Purity -->
     <defs>
      <path d="M 19.671875 64.796875 
L 19.671875 37.40625 
L 32.078125 37.40625 
Q 38.96875 37.40625 42.71875 40.96875 
Q 46.484375 44.53125 46.484375 51.125 
Q 46.484375 57.671875 42.71875 61.234375 
Q 38.96875 64.796875 32.078125 64.796875 
z
M 9.8125 72.90625 
L 32.078125 72.90625 
Q 44.34375 72.90625 50.609375 67.359375 
Q 56.890625 61.8125 56.890625 51.125 
Q 56.890625 40.328125 50.609375 34.8125 
Q 44.34375 29.296875 32.078125 29.296875 
L 19.671875 29.296875 
L 19.671875 0 
L 9.8125 0 
z
" id="DejaVuSans-80"/>
     </defs>
     <g transform="translate(320.025937 287.636737)scale(0.18 -0.18)">
      <use xlink:href="#DejaVuSans-80"/>
      <use x="60.287109" xlink:href="#DejaVuSans-117"/>
      <use x="123.666016" xlink:href="#DejaVuSans-114"/>
      <use x="164.779297" xlink:href="#DejaVuSans-105"/>
      <use x="192.5625" xlink:href="#DejaVuSans-116"/>
      <use x="231.771484" xlink:href="#DejaVuSans-121"/>
     </g>
    </g>
    <g id="line2d_24">
     <path d="M 269.625938 307.757362 
L 305.625938 307.757362 
" style="fill:none;stroke:#0000ff;stroke-linecap:square;stroke-width:1.5;"/>
    </g>
    <g id="line2d_25"/>
    <g id="text_8">
     <!-- Purity*Efficiency -->
     <defs>
      <path d="M 47.015625 60.890625 
L 29.5 51.421875 
L 47.015625 41.890625 
L 44.1875 37.109375 
L 27.78125 47.015625 
L 27.78125 28.609375 
L 22.21875 28.609375 
L 22.21875 47.015625 
L 5.8125 37.109375 
L 2.984375 41.890625 
L 20.515625 51.421875 
L 2.984375 60.890625 
L 5.8125 65.71875 
L 22.21875 55.8125 
L 22.21875 74.21875 
L 27.78125 74.21875 
L 27.78125 55.8125 
L 44.1875 65.71875 
z
" id="DejaVuSans-42"/>
     </defs>
     <g transform="translate(320.025937 314.057363)scale(0.18 -0.18)">
      <use xlink:href="#DejaVuSans-80"/>
      <use x="60.287109" xlink:href="#DejaVuSans-117"/>
      <use x="123.666016" xlink:href="#DejaVuSans-114"/>
      <use x="164.779297" xlink:href="#DejaVuSans-105"/>
      <use x="192.5625" xlink:href="#DejaVuSans-116"/>
      <use x="231.771484" xlink:href="#DejaVuSans-121"/>
      <use x="290.951172" xlink:href="#DejaVuSans-42"/>
      <use x="340.951172" xlink:href="#DejaVuSans-69"/>
      <use x="404.134766" xlink:href="#DejaVuSans-102"/>
      <use x="439.339844" xlink:href="#DejaVuSans-102"/>
      <use x="474.544922" xlink:href="#DejaVuSans-105"/>
      <use x="502.328125" xlink:href="#DejaVuSans-99"/>
      <use x="557.308594" xlink:href="#DejaVuSans-105"/>
      <use x="585.091797" xlink:href="#DejaVuSans-101"/>
      <use x="646.615234" xlink:href="#DejaVuSans-110"/>
      <use x="709.994141" xlink:href="#DejaVuSans-99"/>
      <use x="764.974609" xlink:href="#DejaVuSans-121"/>
     </g>
    </g>
   </g>
  </g>
  <g id="axes_2">
   <g id="patch_8">
    <path d="M 90 632.4696 
L 648 632.4696 
L 648 383.7456 
L 90 383.7456 
z
" style="fill:#ffffff;"/>
   </g>
   <g id="patch_9">
    <path clip-path="url(#p05f05c9634)" d="M 90 80998.870938 
L 90 464.290807 
L 104.307692 464.290807 
L 104.307692 395.051236 
L 118.615385 395.051236 
L 118.615385 397.698703 
L 132.923077 397.698703 
L 132.923077 398.163407 
L 147.230769 398.163407 
L 147.230769 405.657933 
L 161.538462 405.657933 
L 161.538462 416.019099 
L 175.846154 416.019099 
L 175.846154 425.147232 
L 190.153846 425.147232 
L 190.153846 433.24052 
L 204.461538 433.24052 
L 204.461538 443.083247 
L 218.769231 443.083247 
L 218.769231 451.690779 
L 233.076923 451.690779 
L 233.076923 461.547964 
L 247.384615 461.547964 
L 247.384615 467.98135 
L 261.692308 467.98135 
L 261.692308 479.692361 
L 276 479.692361 
L 276 487.579038 
L 290.307692 487.579038 
L 290.307692 493.338827 
L 304.615385 493.338827 
L 304.615385 499.521728 
L 318.923077 499.521728 
L 318.923077 507.041412 
L 333.230769 507.041412 
L 333.230769 512.272966 
L 347.538462 512.272966 
L 347.538462 530.787088 
L 361.846154 530.787088 
L 361.846154 531.670451 
L 376.153846 531.670451 
L 376.153846 524.425716 
L 390.461538 524.425716 
L 390.461538 526.677527 
L 404.769231 526.677527 
L 404.769231 533.50724 
L 419.076923 533.50724 
L 419.076923 547.18596 
L 433.384615 547.18596 
L 433.384615 545.817512 
L 447.692308 545.817512 
L 447.692308 544.500716 
L 462 544.500716 
L 462 554.97165 
L 476.307692 554.97165 
L 476.307692 575.830749 
L 490.615385 575.830749 
L 490.615385 560.642089 
L 504.923077 560.642089 
L 504.923077 565.00915 
L 519.230769 565.00915 
L 519.230769 579.156212 
L 533.538462 579.156212 
L 533.538462 582.83234 
L 547.846154 582.83234 
L 547.846154 556.761322 
L 562.153846 556.761322 
L 562.153846 570.002074 
L 576.461538 570.002074 
L 576.461538 586.941902 
L 590.769231 586.941902 
L 590.769231 570.002074 
L 605.076923 570.002074 
L 605.076923 603.340774 
L 619.384615 603.340774 
L 619.384615 570.002074 
L 633.692308 570.002074 
L 633.692308 586.941902 
L 648 586.941902 
L 648 80998.870938 
z
" style="fill:#1f77b4;opacity:0.2;"/>
   </g>
   <g id="matplotlib.axis_3">
    <g id="xtick_8">
     <g id="line2d_26">
      <g>
       <use style="stroke:#000000;stroke-width:0.8;" x="90" xlink:href="#m4dd3cb9e14" y="632.4696"/>
      </g>
     </g>
     <g id="text_9">
      <!-- 0.00 -->
      <g transform="translate(61.14375 659.16475)scale(0.2592 -0.2592)">
       <use xlink:href="#DejaVuSans-48"/>
       <use x="63.623047" xlink:href="#DejaVuSans-46"/>
       <use x="95.410156" xlink:href="#DejaVuSans-48"/>
       <use x="159.033203" xlink:href="#DejaVuSans-48"/>
      </g>
     </g>
    </g>
    <g id="xtick_9">
     <g id="line2d_27">
      <g>
       <use style="stroke:#000000;stroke-width:0.8;" x="183" xlink:href="#m4dd3cb9e14" y="632.4696"/>
      </g>
     </g>
     <g id="text_10">
      <!-- 0.25 -->
      <defs>
       <path d="M 19.1875 8.296875 
L 53.609375 8.296875 
L 53.609375 0 
L 7.328125 0 
L 7.328125 8.296875 
Q 12.9375 14.109375 22.625 23.890625 
Q 32.328125 33.6875 34.8125 36.53125 
Q 39.546875 41.84375 41.421875 45.53125 
Q 43.3125 49.21875 43.3125 52.78125 
Q 43.3125 58.59375 39.234375 62.25 
Q 35.15625 65.921875 28.609375 65.921875 
Q 23.96875 65.921875 18.8125 64.3125 
Q 13.671875 62.703125 7.8125 59.421875 
L 7.8125 69.390625 
Q 13.765625 71.78125 18.9375 73 
Q 24.125 74.21875 28.421875 74.21875 
Q 39.75 74.21875 46.484375 68.546875 
Q 53.21875 62.890625 53.21875 53.421875 
Q 53.21875 48.921875 51.53125 44.890625 
Q 49.859375 40.875 45.40625 35.40625 
Q 44.1875 33.984375 37.640625 27.21875 
Q 31.109375 20.453125 19.1875 8.296875 
z
" id="DejaVuSans-50"/>
      </defs>
      <g transform="translate(154.14375 659.16475)scale(0.2592 -0.2592)">
       <use xlink:href="#DejaVuSans-48"/>
       <use x="63.623047" xlink:href="#DejaVuSans-46"/>
       <use x="95.410156" xlink:href="#DejaVuSans-50"/>
       <use x="159.033203" xlink:href="#DejaVuSans-53"/>
      </g>
     </g>
    </g>
    <g id="xtick_10">
     <g id="line2d_28">
      <g>
       <use style="stroke:#000000;stroke-width:0.8;" x="276" xlink:href="#m4dd3cb9e14" y="632.4696"/>
      </g>
     </g>
     <g id="text_11">
      <!-- 0.50 -->
      <g transform="translate(247.14375 659.16475)scale(0.2592 -0.2592)">
       <use xlink:href="#DejaVuSans-48"/>
       <use x="63.623047" xlink:href="#DejaVuSans-46"/>
       <use x="95.410156" xlink:href="#DejaVuSans-53"/>
       <use x="159.033203" xlink:href="#DejaVuSans-48"/>
      </g>
     </g>
    </g>
    <g id="xtick_11">
     <g id="line2d_29">
      <g>
       <use style="stroke:#000000;stroke-width:0.8;" x="369" xlink:href="#m4dd3cb9e14" y="632.4696"/>
      </g>
     </g>
     <g id="text_12">
      <!-- 0.75 -->
      <defs>
       <path d="M 8.203125 72.90625 
L 55.078125 72.90625 
L 55.078125 68.703125 
L 28.609375 0 
L 18.3125 0 
L 43.21875 64.59375 
L 8.203125 64.59375 
z
" id="DejaVuSans-55"/>
      </defs>
      <g transform="translate(340.14375 659.16475)scale(0.2592 -0.2592)">
       <use xlink:href="#DejaVuSans-48"/>
       <use x="63.623047" xlink:href="#DejaVuSans-46"/>
       <use x="95.410156" xlink:href="#DejaVuSans-55"/>
       <use x="159.033203" xlink:href="#DejaVuSans-53"/>
      </g>
     </g>
    </g>
    <g id="xtick_12">
     <g id="line2d_30">
      <g>
       <use style="stroke:#000000;stroke-width:0.8;" x="462" xlink:href="#m4dd3cb9e14" y="632.4696"/>
      </g>
     </g>
     <g id="text_13">
      <!-- 1.00 -->
      <g transform="translate(433.14375 659.16475)scale(0.2592 -0.2592)">
       <use xlink:href="#DejaVuSans-49"/>
       <use x="63.623047" xlink:href="#DejaVuSans-46"/>
       <use x="95.410156" xlink:href="#DejaVuSans-48"/>
       <use x="159.033203" xlink:href="#DejaVuSans-48"/>
      </g>
     </g>
    </g>
    <g id="xtick_13">
     <g id="line2d_31">
      <g>
       <use style="stroke:#000000;stroke-width:0.8;" x="555" xlink:href="#m4dd3cb9e14" y="632.4696"/>
      </g>
     </g>
     <g id="text_14">
      <!-- 1.25 -->
      <g transform="translate(526.14375 659.16475)scale(0.2592 -0.2592)">
       <use xlink:href="#DejaVuSans-49"/>
       <use x="63.623047" xlink:href="#DejaVuSans-46"/>
       <use x="95.410156" xlink:href="#DejaVuSans-50"/>
       <use x="159.033203" xlink:href="#DejaVuSans-53"/>
      </g>
     </g>
    </g>
    <g id="xtick_14">
     <g id="line2d_32">
      <g>
       <use style="stroke:#000000;stroke-width:0.8;" x="648" xlink:href="#m4dd3cb9e14" y="632.4696"/>
      </g>
     </g>
     <g id="text_15">
      <!-- 1.50 -->
      <g transform="translate(619.14375 659.16475)scale(0.2592 -0.2592)">
       <use xlink:href="#DejaVuSans-49"/>
       <use x="63.623047" xlink:href="#DejaVuSans-46"/>
       <use x="95.410156" xlink:href="#DejaVuSans-53"/>
       <use x="159.033203" xlink:href="#DejaVuSans-48"/>
      </g>
     </g>
    </g>
    <g id="text_16">
     <!-- mcpMomentum -->
     <g transform="translate(267.180975 688.25045)scale(0.2592 -0.2592)">
      <use xlink:href="#DejaVuSans-109"/>
      <use x="97.412109" xlink:href="#DejaVuSans-99"/>
      <use x="152.392578" xlink:href="#DejaVuSans-112"/>
      <use x="215.869141" xlink:href="#DejaVuSans-77"/>
      <use x="302.148438" xlink:href="#DejaVuSans-111"/>
      <use x="363.330078" xlink:href="#DejaVuSans-109"/>
      <use x="460.742188" xlink:href="#DejaVuSans-101"/>
      <use x="522.265625" xlink:href="#DejaVuSans-110"/>
      <use x="585.644531" xlink:href="#DejaVuSans-116"/>
      <use x="624.853516" xlink:href="#DejaVuSans-117"/>
      <use x="688.232422" xlink:href="#DejaVuSans-109"/>
     </g>
    </g>
   </g>
   <g id="matplotlib.axis_4">
    <g id="ytick_4">
     <g id="line2d_33">
      <g>
       <use style="stroke:#000000;stroke-width:0.8;" x="90" xlink:href="#mb5e463d390" y="579.156212"/>
      </g>
     </g>
     <g id="text_17">
      <!-- $\mathdefault{10^{1}}$ -->
      <g transform="translate(37.3808 589.003787)scale(0.2592 -0.2592)">
       <use transform="translate(0 0.684375)" xlink:href="#DejaVuSans-49"/>
       <use transform="translate(63.623047 0.684375)" xlink:href="#DejaVuSans-48"/>
       <use transform="translate(128.203125 38.965625)scale(0.7)" xlink:href="#DejaVuSans-49"/>
      </g>
     </g>
    </g>
    <g id="ytick_5">
     <g id="line2d_34">
      <g>
       <use style="stroke:#000000;stroke-width:0.8;" x="90" xlink:href="#mb5e463d390" y="498.816837"/>
      </g>
     </g>
     <g id="text_18">
      <!-- $\mathdefault{10^{2}}$ -->
      <g transform="translate(37.3808 508.664412)scale(0.2592 -0.2592)">
       <use transform="translate(0 0.765625)" xlink:href="#DejaVuSans-49"/>
       <use transform="translate(63.623047 0.765625)" xlink:href="#DejaVuSans-48"/>
       <use transform="translate(128.203125 39.046875)scale(0.7)" xlink:href="#DejaVuSans-50"/>
      </g>
     </g>
    </g>
    <g id="ytick_6">
     <g id="line2d_35">
      <g>
       <use style="stroke:#000000;stroke-width:0.8;" x="90" xlink:href="#mb5e463d390" y="418.477461"/>
      </g>
     </g>
     <g id="text_19">
      <!-- $\mathdefault{10^{3}}$ -->
      <defs>
       <path d="M 40.578125 39.3125 
Q 47.65625 37.796875 51.625 33 
Q 55.609375 28.21875 55.609375 21.1875 
Q 55.609375 10.40625 48.1875 4.484375 
Q 40.765625 -1.421875 27.09375 -1.421875 
Q 22.515625 -1.421875 17.65625 -0.515625 
Q 12.796875 0.390625 7.625 2.203125 
L 7.625 11.71875 
Q 11.71875 9.328125 16.59375 8.109375 
Q 21.484375 6.890625 26.8125 6.890625 
Q 36.078125 6.890625 40.9375 10.546875 
Q 45.796875 14.203125 45.796875 21.1875 
Q 45.796875 27.640625 41.28125 31.265625 
Q 36.765625 34.90625 28.71875 34.90625 
L 20.21875 34.90625 
L 20.21875 43.015625 
L 29.109375 43.015625 
Q 36.375 43.015625 40.234375 45.921875 
Q 44.09375 48.828125 44.09375 54.296875 
Q 44.09375 59.90625 40.109375 62.90625 
Q 36.140625 65.921875 28.71875 65.921875 
Q 24.65625 65.921875 20.015625 65.03125 
Q 15.375 64.15625 9.8125 62.3125 
L 9.8125 71.09375 
Q 15.4375 72.65625 20.34375 73.4375 
Q 25.25 74.21875 29.59375 74.21875 
Q 40.828125 74.21875 47.359375 69.109375 
Q 53.90625 64.015625 53.90625 55.328125 
Q 53.90625 49.265625 50.4375 45.09375 
Q 46.96875 40.921875 40.578125 39.3125 
z
" id="DejaVuSans-51"/>
      </defs>
      <g transform="translate(37.3808 428.325036)scale(0.2592 -0.2592)">
       <use transform="translate(0 0.765625)" xlink:href="#DejaVuSans-49"/>
       <use transform="translate(63.623047 0.765625)" xlink:href="#DejaVuSans-48"/>
       <use transform="translate(128.203125 39.046875)scale(0.7)" xlink:href="#DejaVuSans-51"/>
      </g>
     </g>
    </g>
    <g id="ytick_7">
     <g id="line2d_36">
      <defs>
       <path d="M 0 0 
L -2 0 
" id="md42ef53910" style="stroke:#000000;stroke-width:0.6;"/>
      </defs>
      <g>
       <use style="stroke:#000000;stroke-width:0.6;" x="90" xlink:href="#md42ef53910" y="621.163964"/>
      </g>
     </g>
    </g>
    <g id="ytick_8">
     <g id="line2d_37">
      <g>
       <use style="stroke:#000000;stroke-width:0.6;" x="90" xlink:href="#md42ef53910" y="611.126464"/>
      </g>
     </g>
    </g>
    <g id="ytick_9">
     <g id="line2d_38">
      <g>
       <use style="stroke:#000000;stroke-width:0.6;" x="90" xlink:href="#md42ef53910" y="603.340774"/>
      </g>
     </g>
    </g>
    <g id="ytick_10">
     <g id="line2d_39">
      <g>
       <use style="stroke:#000000;stroke-width:0.6;" x="90" xlink:href="#md42ef53910" y="596.979402"/>
      </g>
     </g>
    </g>
    <g id="ytick_11">
     <g id="line2d_40">
      <g>
       <use style="stroke:#000000;stroke-width:0.6;" x="90" xlink:href="#md42ef53910" y="591.600939"/>
      </g>
     </g>
    </g>
    <g id="ytick_12">
     <g id="line2d_41">
      <g>
       <use style="stroke:#000000;stroke-width:0.6;" x="90" xlink:href="#md42ef53910" y="586.941902"/>
      </g>
     </g>
    </g>
    <g id="ytick_13">
     <g id="line2d_42">
      <g>
       <use style="stroke:#000000;stroke-width:0.6;" x="90" xlink:href="#md42ef53910" y="582.83234"/>
      </g>
     </g>
    </g>
    <g id="ytick_14">
     <g id="line2d_43">
      <g>
       <use style="stroke:#000000;stroke-width:0.6;" x="90" xlink:href="#md42ef53910" y="554.97165"/>
      </g>
     </g>
    </g>
    <g id="ytick_15">
     <g id="line2d_44">
      <g>
       <use style="stroke:#000000;stroke-width:0.6;" x="90" xlink:href="#md42ef53910" y="540.824588"/>
      </g>
     </g>
    </g>
    <g id="ytick_16">
     <g id="line2d_45">
      <g>
       <use style="stroke:#000000;stroke-width:0.6;" x="90" xlink:href="#md42ef53910" y="530.787088"/>
      </g>
     </g>
    </g>
    <g id="ytick_17">
     <g id="line2d_46">
      <g>
       <use style="stroke:#000000;stroke-width:0.6;" x="90" xlink:href="#md42ef53910" y="523.001398"/>
      </g>
     </g>
    </g>
    <g id="ytick_18">
     <g id="line2d_47">
      <g>
       <use style="stroke:#000000;stroke-width:0.6;" x="90" xlink:href="#md42ef53910" y="516.640026"/>
      </g>
     </g>
    </g>
    <g id="ytick_19">
     <g id="line2d_48">
      <g>
       <use style="stroke:#000000;stroke-width:0.6;" x="90" xlink:href="#md42ef53910" y="511.261563"/>
      </g>
     </g>
    </g>
    <g id="ytick_20">
     <g id="line2d_49">
      <g>
       <use style="stroke:#000000;stroke-width:0.6;" x="90" xlink:href="#md42ef53910" y="506.602526"/>
      </g>
     </g>
    </g>
    <g id="ytick_21">
     <g id="line2d_50">
      <g>
       <use style="stroke:#000000;stroke-width:0.6;" x="90" xlink:href="#md42ef53910" y="502.492965"/>
      </g>
     </g>
    </g>
    <g id="ytick_22">
     <g id="line2d_51">
      <g>
       <use style="stroke:#000000;stroke-width:0.6;" x="90" xlink:href="#md42ef53910" y="474.632275"/>
      </g>
     </g>
    </g>
    <g id="ytick_23">
     <g id="line2d_52">
      <g>
       <use style="stroke:#000000;stroke-width:0.6;" x="90" xlink:href="#md42ef53910" y="460.485213"/>
      </g>
     </g>
    </g>
    <g id="ytick_24">
     <g id="line2d_53">
      <g>
       <use style="stroke:#000000;stroke-width:0.6;" x="90" xlink:href="#md42ef53910" y="450.447713"/>
      </g>
     </g>
    </g>
    <g id="ytick_25">
     <g id="line2d_54">
      <g>
       <use style="stroke:#000000;stroke-width:0.6;" x="90" xlink:href="#md42ef53910" y="442.662023"/>
      </g>
     </g>
    </g>
    <g id="ytick_26">
     <g id="line2d_55">
      <g>
       <use style="stroke:#000000;stroke-width:0.6;" x="90" xlink:href="#md42ef53910" y="436.300651"/>
      </g>
     </g>
    </g>
    <g id="ytick_27">
     <g id="line2d_56">
      <g>
       <use style="stroke:#000000;stroke-width:0.6;" x="90" xlink:href="#md42ef53910" y="430.922188"/>
      </g>
     </g>
    </g>
    <g id="ytick_28">
     <g id="line2d_57">
      <g>
       <use style="stroke:#000000;stroke-width:0.6;" x="90" xlink:href="#md42ef53910" y="426.263151"/>
      </g>
     </g>
    </g>
    <g id="ytick_29">
     <g id="line2d_58">
      <g>
       <use style="stroke:#000000;stroke-width:0.6;" x="90" xlink:href="#md42ef53910" y="422.153589"/>
      </g>
     </g>
    </g>
    <g id="ytick_30">
     <g id="line2d_59">
      <g>
       <use style="stroke:#000000;stroke-width:0.6;" x="90" xlink:href="#md42ef53910" y="394.292899"/>
      </g>
     </g>
    </g>
    <g id="text_20">
     <!-- Count -->
     <defs>
      <path d="M 64.40625 67.28125 
L 64.40625 56.890625 
Q 59.421875 61.53125 53.78125 63.8125 
Q 48.140625 66.109375 41.796875 66.109375 
Q 29.296875 66.109375 22.65625 58.46875 
Q 16.015625 50.828125 16.015625 36.375 
Q 16.015625 21.96875 22.65625 14.328125 
Q 29.296875 6.6875 41.796875 6.6875 
Q 48.140625 6.6875 53.78125 8.984375 
Q 59.421875 11.28125 64.40625 15.921875 
L 64.40625 5.609375 
Q 59.234375 2.09375 53.4375 0.328125 
Q 47.65625 -1.421875 41.21875 -1.421875 
Q 24.65625 -1.421875 15.125 8.703125 
Q 5.609375 18.84375 5.609375 36.375 
Q 5.609375 53.953125 15.125 64.078125 
Q 24.65625 74.21875 41.21875 74.21875 
Q 47.75 74.21875 53.53125 72.484375 
Q 59.328125 70.75 64.40625 67.28125 
z
" id="DejaVuSans-67"/>
     </defs>
     <g transform="translate(27.99025 546.59475)rotate(-90)scale(0.2592 -0.2592)">
      <use xlink:href="#DejaVuSans-67"/>
      <use x="69.824219" xlink:href="#DejaVuSans-111"/>
      <use x="131.005859" xlink:href="#DejaVuSans-117"/>
      <use x="194.384766" xlink:href="#DejaVuSans-110"/>
      <use x="257.763672" xlink:href="#DejaVuSans-116"/>
     </g>
    </g>
   </g>
   <g id="line2d_60">
    <path clip-path="url(#p05f05c9634)" d="M 90 464.290807 
L 104.307692 464.290807 
L 104.307692 395.051236 
L 118.615385 395.051236 
L 118.615385 397.698703 
L 132.923077 397.698703 
L 132.923077 398.163407 
L 147.230769 398.163407 
L 147.230769 405.657933 
L 161.538462 405.657933 
L 161.538462 416.019099 
L 175.846154 416.019099 
L 175.846154 425.147232 
L 190.153846 425.147232 
L 190.153846 433.24052 
L 204.461538 433.24052 
L 204.461538 443.083247 
L 218.769231 443.083247 
L 218.769231 451.690779 
L 233.076923 451.690779 
L 233.076923 461.547964 
L 247.384615 461.547964 
L 247.384615 467.98135 
L 261.692308 467.98135 
L 261.692308 479.692361 
L 276 479.692361 
L 276 487.579038 
L 290.307692 487.579038 
L 290.307692 493.338827 
L 304.615385 493.338827 
L 304.615385 499.521728 
L 318.923077 499.521728 
L 318.923077 507.041412 
L 333.230769 507.041412 
L 333.230769 512.272966 
L 347.538462 512.272966 
L 347.538462 530.787088 
L 361.846154 530.787088 
L 361.846154 531.670451 
L 376.153846 531.670451 
L 376.153846 524.425716 
L 390.461538 524.425716 
L 390.461538 526.677527 
L 404.769231 526.677527 
L 404.769231 533.50724 
L 419.076923 533.50724 
L 419.076923 547.18596 
L 433.384615 547.18596 
L 433.384615 545.817512 
L 447.692308 545.817512 
L 447.692308 544.500716 
L 462 544.500716 
L 462 554.97165 
L 476.307692 554.97165 
L 476.307692 575.830749 
L 490.615385 575.830749 
L 490.615385 560.642089 
L 504.923077 560.642089 
L 504.923077 565.00915 
L 519.230769 565.00915 
L 519.230769 579.156212 
L 533.538462 579.156212 
L 533.538462 582.83234 
L 547.846154 582.83234 
L 547.846154 556.761322 
L 562.153846 556.761322 
L 562.153846 570.002074 
L 576.461538 570.002074 
L 576.461538 586.941902 
L 590.769231 586.941902 
L 590.769231 570.002074 
L 605.076923 570.002074 
L 605.076923 603.340774 
L 619.384615 603.340774 
L 619.384615 570.002074 
L 633.692308 570.002074 
L 633.692308 586.941902 
L 648 586.941902 
" style="fill:none;stroke:#1f77b4;stroke-linecap:square;stroke-width:1.5;"/>
   </g>
   <g id="line2d_61">
    <path clip-path="url(#p05f05c9634)" d="M 90 469.45376 
L 104.307692 469.45376 
L 104.307692 399.232186 
L 118.615385 399.232186 
L 118.615385 399.758699 
L 132.923077 399.758699 
L 132.923077 399.881339 
L 147.230769 399.881339 
L 147.230769 406.937575 
L 161.538462 406.937575 
L 161.538462 417.07548 
L 175.846154 417.07548 
L 175.846154 426.306792 
L 190.153846 426.306792 
L 190.153846 434.653743 
L 204.461538 434.653743 
L 204.461538 444.525227 
L 218.769231 444.525227 
L 218.769231 453.167865 
L 233.076923 453.167865 
L 233.076923 462.644104 
L 247.384615 462.644104 
L 247.384615 468.857319 
L 261.692308 468.857319 
L 261.692308 480.098075 
L 276 480.098075 
L 276 489.130002 
L 290.307692 489.130002 
L 290.307692 494.862691 
L 304.615385 494.862691 
L 304.615385 500.975728 
L 318.923077 500.975728 
L 318.923077 509.797393 
L 333.230769 509.797393 
L 333.230769 514.937691 
L 347.538462 514.937691 
L 347.538462 532.57676 
L 361.846154 532.57676 
L 361.846154 534.463216 
L 376.153846 534.463216 
L 376.153846 526.677527 
L 390.461538 526.677527 
L 390.461538 529.084753 
L 404.769231 529.084753 
L 404.769231 535.446125 
L 419.076923 535.446125 
L 419.076923 551.646188 
L 433.384615 551.646188 
L 433.384615 547.18596 
L 447.692308 547.18596 
L 447.692308 547.18596 
L 462 547.18596 
L 462 556.761322 
L 476.307692 556.761322 
L 476.307692 579.156212 
L 490.615385 579.156212 
L 490.615385 567.416377 
L 504.923077 567.416377 
L 504.923077 572.79484 
L 519.230769 572.79484 
L 519.230769 591.600939 
L 533.538462 591.600939 
L 533.538462 586.941902 
L 547.846154 586.941902 
L 547.846154 570.002074 
L 562.153846 570.002074 
L 562.153846 572.79484 
L 576.461538 572.79484 
L 576.461538 596.979402 
L 590.769231 596.979402 
L 590.769231 572.79484 
L 605.076923 572.79484 
L 605.076923 603.340774 
L 619.384615 603.340774 
L 619.384615 572.79484 
L 633.692308 572.79484 
L 633.692308 611.126464 
L 648 611.126464 
" style="fill:none;stroke:#ff7f0e;stroke-linecap:square;stroke-width:1.5;"/>
   </g>
   <g id="line2d_62">
    <path clip-path="url(#p05f05c9634)" d="M 118.615385 711.64 
L 118.615385 570.002074 
L 132.923077 570.002074 
L 132.923077 471.306812 
L 147.230769 471.306812 
L 147.230769 455.10675 
L 161.538462 455.10675 
L 161.538462 470.678129 
L 175.846154 470.678129 
L 175.846154 488.088404 
L 190.153846 488.088404 
L 190.153846 504.07919 
L 204.461538 504.07919 
L 204.461538 510.278655 
L 218.769231 510.278655 
L 218.769231 511.261563 
L 233.076923 511.261563 
L 233.076923 507.936101 
L 247.384615 507.936101 
L 247.384615 505.740978 
L 261.692308 505.740978 
L 261.692308 496.131593 
L 276 496.131593 
L 276 501.348897 
L 290.307692 501.348897 
L 290.307692 504.07919 
L 304.615385 504.07919 
L 304.615385 510.278655 
L 318.923077 510.278655 
L 318.923077 523.001398 
L 333.230769 523.001398 
L 333.230769 520.968341 
L 347.538462 520.968341 
L 347.538462 537.499126 
L 361.846154 537.499126 
L 361.846154 532.57676 
L 376.153846 532.57676 
L 376.153846 537.499126 
L 390.461538 537.499126 
L 390.461538 550.095223 
L 404.769231 550.095223 
L 404.769231 548.610278 
L 419.076923 548.610278 
L 419.076923 544.500716 
L 433.384615 544.500716 
L 433.384615 570.002074 
L 447.692308 570.002074 
L 447.692308 562.75734 
L 462 562.75734 
L 462 582.83234 
L 476.307692 582.83234 
L 476.307692 562.75734 
L 490.615385 562.75734 
L 490.615385 567.416377 
L 504.923077 567.416377 
L 504.923077 572.79484 
L 519.230769 572.79484 
L 519.230769 582.83234 
L 533.538462 582.83234 
L 533.538462 591.600939 
L 547.846154 591.600939 
L 547.846154 579.156212 
L 562.153846 579.156212 
L 562.153846 621.163964 
L 576.461538 621.163964 
L 576.461538 603.340774 
L 590.769231 603.340774 
L 590.769231 611.126464 
L 605.076923 611.126464 
L 605.076923 711.64 
M 619.384615 711.64 
L 619.384615 596.979402 
L 633.692308 596.979402 
L 633.692308 586.941902 
L 648 586.941902 
" style="fill:none;stroke:#2ca02c;stroke-linecap:square;stroke-width:1.5;"/>
   </g>
   <g id="patch_10">
    <path d="M 90 632.4696 
L 90 383.7456 
" style="fill:none;stroke:#000000;stroke-linecap:square;stroke-linejoin:miter;stroke-width:0.8;"/>
   </g>
   <g id="patch_11">
    <path d="M 648 632.4696 
L 648 383.7456 
" style="fill:none;stroke:#000000;stroke-linecap:square;stroke-linejoin:miter;stroke-width:0.8;"/>
   </g>
   <g id="patch_12">
    <path d="M 90 632.4696 
L 648 632.4696 
" style="fill:none;stroke:#000000;stroke-linecap:square;stroke-linejoin:miter;stroke-width:0.8;"/>
   </g>
   <g id="patch_13">
    <path d="M 90 383.7456 
L 648 383.7456 
" style="fill:none;stroke:#000000;stroke-linecap:square;stroke-linejoin:miter;stroke-width:0.8;"/>
   </g>
   <g id="legend_2">
    <g id="patch_14">
     <path d="M 437.633438 477.407475 
L 635.4 477.407475 
Q 639 477.407475 639 473.807475 
L 639 396.3456 
Q 639 392.7456 635.4 392.7456 
L 437.633438 392.7456 
Q 434.033437 392.7456 434.033437 396.3456 
L 434.033437 473.807475 
Q 434.033437 477.407475 437.633438 477.407475 
z
" style="fill:#ffffff;opacity:0.5;stroke:#cccccc;stroke-linejoin:miter;"/>
    </g>
    <g id="line2d_63">
     <path d="M 441.233437 407.322787 
L 477.233437 407.322787 
" style="fill:none;stroke:#1f77b4;stroke-linecap:square;stroke-width:1.5;"/>
    </g>
    <g id="line2d_64"/>
    <g id="text_21">
     <!--  shower -->
     <defs>
      <path id="DejaVuSans-32"/>
      <path d="M 44.28125 53.078125 
L 44.28125 44.578125 
Q 40.484375 46.53125 36.375 47.5 
Q 32.28125 48.484375 27.875 48.484375 
Q 21.1875 48.484375 17.84375 46.4375 
Q 14.5 44.390625 14.5 40.28125 
Q 14.5 37.15625 16.890625 35.375 
Q 19.28125 33.59375 26.515625 31.984375 
L 29.59375 31.296875 
Q 39.15625 29.25 43.1875 25.515625 
Q 47.21875 21.78125 47.21875 15.09375 
Q 47.21875 7.46875 41.1875 3.015625 
Q 35.15625 -1.421875 24.609375 -1.421875 
Q 20.21875 -1.421875 15.453125 -0.5625 
Q 10.6875 0.296875 5.421875 2 
L 5.421875 11.28125 
Q 10.40625 8.6875 15.234375 7.390625 
Q 20.0625 6.109375 24.8125 6.109375 
Q 31.15625 6.109375 34.5625 8.28125 
Q 37.984375 10.453125 37.984375 14.40625 
Q 37.984375 18.0625 35.515625 20.015625 
Q 33.0625 21.96875 24.703125 23.78125 
L 21.578125 24.515625 
Q 13.234375 26.265625 9.515625 29.90625 
Q 5.8125 33.546875 5.8125 39.890625 
Q 5.8125 47.609375 11.28125 51.796875 
Q 16.75 56 26.8125 56 
Q 31.78125 56 36.171875 55.265625 
Q 40.578125 54.546875 44.28125 53.078125 
z
" id="DejaVuSans-115"/>
      <path d="M 54.890625 33.015625 
L 54.890625 0 
L 45.90625 0 
L 45.90625 32.71875 
Q 45.90625 40.484375 42.875 44.328125 
Q 39.84375 48.1875 33.796875 48.1875 
Q 26.515625 48.1875 22.3125 43.546875 
Q 18.109375 38.921875 18.109375 30.90625 
L 18.109375 0 
L 9.078125 0 
L 9.078125 75.984375 
L 18.109375 75.984375 
L 18.109375 46.1875 
Q 21.34375 51.125 25.703125 53.5625 
Q 30.078125 56 35.796875 56 
Q 45.21875 56 50.046875 50.171875 
Q 54.890625 44.34375 54.890625 33.015625 
z
" id="DejaVuSans-104"/>
      <path d="M 4.203125 54.6875 
L 13.1875 54.6875 
L 24.421875 12.015625 
L 35.59375 54.6875 
L 46.1875 54.6875 
L 57.421875 12.015625 
L 68.609375 54.6875 
L 77.59375 54.6875 
L 63.28125 0 
L 52.6875 0 
L 40.921875 44.828125 
L 29.109375 0 
L 18.5 0 
z
" id="DejaVuSans-119"/>
     </defs>
     <g transform="translate(491.633437 413.622787)scale(0.18 -0.18)">
      <use xlink:href="#DejaVuSans-32"/>
      <use x="31.787109" xlink:href="#DejaVuSans-115"/>
      <use x="83.886719" xlink:href="#DejaVuSans-104"/>
      <use x="147.265625" xlink:href="#DejaVuSans-111"/>
      <use x="208.447266" xlink:href="#DejaVuSans-119"/>
      <use x="290.234375" xlink:href="#DejaVuSans-101"/>
      <use x="351.757812" xlink:href="#DejaVuSans-114"/>
     </g>
    </g>
    <g id="line2d_65">
     <path d="M 441.233437 433.743412 
L 477.233437 433.743412 
" style="fill:none;stroke:#ff7f0e;stroke-linecap:square;stroke-width:1.5;"/>
    </g>
    <g id="line2d_66"/>
    <g id="text_22">
     <!-- correct  shower -->
     <g transform="translate(491.633437 440.043412)scale(0.18 -0.18)">
      <use xlink:href="#DejaVuSans-99"/>
      <use x="54.980469" xlink:href="#DejaVuSans-111"/>
      <use x="116.162109" xlink:href="#DejaVuSans-114"/>
      <use x="157.259766" xlink:href="#DejaVuSans-114"/>
      <use x="198.341797" xlink:href="#DejaVuSans-101"/>
      <use x="259.865234" xlink:href="#DejaVuSans-99"/>
      <use x="314.845703" xlink:href="#DejaVuSans-116"/>
      <use x="354.054688" xlink:href="#DejaVuSans-32"/>
      <use x="385.841797" xlink:href="#DejaVuSans-32"/>
      <use x="417.628906" xlink:href="#DejaVuSans-115"/>
      <use x="469.728516" xlink:href="#DejaVuSans-104"/>
      <use x="533.107422" xlink:href="#DejaVuSans-111"/>
      <use x="594.289062" xlink:href="#DejaVuSans-119"/>
      <use x="676.076172" xlink:href="#DejaVuSans-101"/>
      <use x="737.599609" xlink:href="#DejaVuSans-114"/>
     </g>
    </g>
    <g id="line2d_67">
     <path d="M 441.233437 460.164037 
L 477.233437 460.164037 
" style="fill:none;stroke:#2ca02c;stroke-linecap:square;stroke-width:1.5;"/>
    </g>
    <g id="line2d_68"/>
    <g id="text_23">
     <!-- incorrect  track -->
     <defs>
      <path d="M 9.078125 75.984375 
L 18.109375 75.984375 
L 18.109375 31.109375 
L 44.921875 54.6875 
L 56.390625 54.6875 
L 27.390625 29.109375 
L 57.625 0 
L 45.90625 0 
L 18.109375 26.703125 
L 18.109375 0 
L 9.078125 0 
z
" id="DejaVuSans-107"/>
     </defs>
     <g transform="translate(491.633437 466.464037)scale(0.18 -0.18)">
      <use xlink:href="#DejaVuSans-105"/>
      <use x="27.783203" xlink:href="#DejaVuSans-110"/>
      <use x="91.162109" xlink:href="#DejaVuSans-99"/>
      <use x="146.142578" xlink:href="#DejaVuSans-111"/>
      <use x="207.324219" xlink:href="#DejaVuSans-114"/>
      <use x="248.421875" xlink:href="#DejaVuSans-114"/>
      <use x="289.503906" xlink:href="#DejaVuSans-101"/>
      <use x="351.027344" xlink:href="#DejaVuSans-99"/>
      <use x="406.007812" xlink:href="#DejaVuSans-116"/>
      <use x="445.216797" xlink:href="#DejaVuSans-32"/>
      <use x="477.003906" xlink:href="#DejaVuSans-32"/>
      <use x="508.791016" xlink:href="#DejaVuSans-116"/>
      <use x="548" xlink:href="#DejaVuSans-114"/>
      <use x="589.113281" xlink:href="#DejaVuSans-97"/>
      <use x="650.392578" xlink:href="#DejaVuSans-99"/>
      <use x="705.373047" xlink:href="#DejaVuSans-107"/>
     </g>
    </g>
   </g>
  </g>
 </g>
 <defs>
  <clipPath id="p089a57d88b">
   <rect height="248.724" width="558" x="90" y="85.2768"/>
  </clipPath>
  <clipPath id="p05f05c9634">
   <rect height="248.724" width="558" x="90" y="383.7456"/>
  </clipPath>
 </defs>
</svg>
