<?xml version="1.0" encoding="utf-8" standalone="no"?>
<!DOCTYPE svg PUBLIC "-//W3C//DTD SVG 1.1//EN"
  "http://www.w3.org/Graphics/SVG/1.1/DTD/svg11.dtd">
<!-- Created with matplotlib (https://matplotlib.org/) -->
<svg height="710.64pt" version="1.1" viewBox="0 0 720 710.64" width="720pt" xmlns="http://www.w3.org/2000/svg" xmlns:xlink="http://www.w3.org/1999/xlink">
 <defs>
  <style type="text/css">
*{stroke-linecap:butt;stroke-linejoin:round;}
  </style>
 </defs>
 <g id="figure_1">
  <g id="patch_1">
   <path d="M 0 710.64 
L 720 710.64 
L 720 0 
L 0 0 
z
" style="fill:#ffffff;"/>
  </g>
  <g id="axes_1">
   <g id="patch_2">
    <path d="M 90 334.0008 
L 648 334.0008 
L 648 85.2768 
L 90 85.2768 
z
" style="fill:#ffffff;"/>
   </g>
   <g id="matplotlib.axis_1">
    <g id="xtick_1">
     <g id="line2d_1">
      <defs>
       <path d="M 0 0 
L 0 3.5 
" id="mb5ff1846e5" style="stroke:#000000;stroke-width:0.8;"/>
      </defs>
      <g>
       <use style="stroke:#000000;stroke-width:0.8;" x="90" xlink:href="#mb5ff1846e5" y="334.0008"/>
      </g>
     </g>
    </g>
    <g id="xtick_2">
     <g id="line2d_2">
      <g>
       <use style="stroke:#000000;stroke-width:0.8;" x="201.6" xlink:href="#mb5ff1846e5" y="334.0008"/>
      </g>
     </g>
    </g>
    <g id="xtick_3">
     <g id="line2d_3">
      <g>
       <use style="stroke:#000000;stroke-width:0.8;" x="313.2" xlink:href="#mb5ff1846e5" y="334.0008"/>
      </g>
     </g>
    </g>
    <g id="xtick_4">
     <g id="line2d_4">
      <g>
       <use style="stroke:#000000;stroke-width:0.8;" x="424.8" xlink:href="#mb5ff1846e5" y="334.0008"/>
      </g>
     </g>
    </g>
    <g id="xtick_5">
     <g id="line2d_5">
      <g>
       <use style="stroke:#000000;stroke-width:0.8;" x="536.4" xlink:href="#mb5ff1846e5" y="334.0008"/>
      </g>
     </g>
    </g>
    <g id="xtick_6">
     <g id="line2d_6">
      <g>
       <use style="stroke:#000000;stroke-width:0.8;" x="648" xlink:href="#mb5ff1846e5" y="334.0008"/>
      </g>
     </g>
    </g>
    <g id="text_1">
     <!-- completenessW -->
     <defs>
      <path d="M 48.78125 52.59375 
L 48.78125 44.1875 
Q 44.96875 46.296875 41.140625 47.34375 
Q 37.3125 48.390625 33.40625 48.390625 
Q 24.65625 48.390625 19.8125 42.84375 
Q 14.984375 37.3125 14.984375 27.296875 
Q 14.984375 17.28125 19.8125 11.734375 
Q 24.65625 6.203125 33.40625 6.203125 
Q 37.3125 6.203125 41.140625 7.25 
Q 44.96875 8.296875 48.78125 10.40625 
L 48.78125 2.09375 
Q 45.015625 0.34375 40.984375 -0.53125 
Q 36.96875 -1.421875 32.421875 -1.421875 
Q 20.0625 -1.421875 12.78125 6.34375 
Q 5.515625 14.109375 5.515625 27.296875 
Q 5.515625 40.671875 12.859375 48.328125 
Q 20.21875 56 33.015625 56 
Q 37.15625 56 41.109375 55.140625 
Q 45.0625 54.296875 48.78125 52.59375 
z
" id="DejaVuSans-99"/>
      <path d="M 30.609375 48.390625 
Q 23.390625 48.390625 19.1875 42.75 
Q 14.984375 37.109375 14.984375 27.296875 
Q 14.984375 17.484375 19.15625 11.84375 
Q 23.34375 6.203125 30.609375 6.203125 
Q 37.796875 6.203125 41.984375 11.859375 
Q 46.1875 17.53125 46.1875 27.296875 
Q 46.1875 37.015625 41.984375 42.703125 
Q 37.796875 48.390625 30.609375 48.390625 
z
M 30.609375 56 
Q 42.328125 56 49.015625 48.375 
Q 55.71875 40.765625 55.71875 27.296875 
Q 55.71875 13.875 49.015625 6.21875 
Q 42.328125 -1.421875 30.609375 -1.421875 
Q 18.84375 -1.421875 12.171875 6.21875 
Q 5.515625 13.875 5.515625 27.296875 
Q 5.515625 40.765625 12.171875 48.375 
Q 18.84375 56 30.609375 56 
z
" id="DejaVuSans-111"/>
      <path d="M 52 44.1875 
Q 55.375 50.25 60.0625 53.125 
Q 64.75 56 71.09375 56 
Q 79.640625 56 84.28125 50.015625 
Q 88.921875 44.046875 88.921875 33.015625 
L 88.921875 0 
L 79.890625 0 
L 79.890625 32.71875 
Q 79.890625 40.578125 77.09375 44.375 
Q 74.3125 48.1875 68.609375 48.1875 
Q 61.625 48.1875 57.5625 43.546875 
Q 53.515625 38.921875 53.515625 30.90625 
L 53.515625 0 
L 44.484375 0 
L 44.484375 32.71875 
Q 44.484375 40.625 41.703125 44.40625 
Q 38.921875 48.1875 33.109375 48.1875 
Q 26.21875 48.1875 22.15625 43.53125 
Q 18.109375 38.875 18.109375 30.90625 
L 18.109375 0 
L 9.078125 0 
L 9.078125 54.6875 
L 18.109375 54.6875 
L 18.109375 46.1875 
Q 21.1875 51.21875 25.484375 53.609375 
Q 29.78125 56 35.6875 56 
Q 41.65625 56 45.828125 52.96875 
Q 50 49.953125 52 44.1875 
z
" id="DejaVuSans-109"/>
      <path d="M 18.109375 8.203125 
L 18.109375 -20.796875 
L 9.078125 -20.796875 
L 9.078125 54.6875 
L 18.109375 54.6875 
L 18.109375 46.390625 
Q 20.953125 51.265625 25.265625 53.625 
Q 29.59375 56 35.59375 56 
Q 45.5625 56 51.78125 48.09375 
Q 58.015625 40.1875 58.015625 27.296875 
Q 58.015625 14.40625 51.78125 6.484375 
Q 45.5625 -1.421875 35.59375 -1.421875 
Q 29.59375 -1.421875 25.265625 0.953125 
Q 20.953125 3.328125 18.109375 8.203125 
z
M 48.6875 27.296875 
Q 48.6875 37.203125 44.609375 42.84375 
Q 40.53125 48.484375 33.40625 48.484375 
Q 26.265625 48.484375 22.1875 42.84375 
Q 18.109375 37.203125 18.109375 27.296875 
Q 18.109375 17.390625 22.1875 11.75 
Q 26.265625 6.109375 33.40625 6.109375 
Q 40.53125 6.109375 44.609375 11.75 
Q 48.6875 17.390625 48.6875 27.296875 
z
" id="DejaVuSans-112"/>
      <path d="M 9.421875 75.984375 
L 18.40625 75.984375 
L 18.40625 0 
L 9.421875 0 
z
" id="DejaVuSans-108"/>
      <path d="M 56.203125 29.59375 
L 56.203125 25.203125 
L 14.890625 25.203125 
Q 15.484375 15.921875 20.484375 11.0625 
Q 25.484375 6.203125 34.421875 6.203125 
Q 39.59375 6.203125 44.453125 7.46875 
Q 49.3125 8.734375 54.109375 11.28125 
L 54.109375 2.78125 
Q 49.265625 0.734375 44.1875 -0.34375 
Q 39.109375 -1.421875 33.890625 -1.421875 
Q 20.796875 -1.421875 13.15625 6.1875 
Q 5.515625 13.8125 5.515625 26.8125 
Q 5.515625 40.234375 12.765625 48.109375 
Q 20.015625 56 32.328125 56 
Q 43.359375 56 49.78125 48.890625 
Q 56.203125 41.796875 56.203125 29.59375 
z
M 47.21875 32.234375 
Q 47.125 39.59375 43.09375 43.984375 
Q 39.0625 48.390625 32.421875 48.390625 
Q 24.90625 48.390625 20.390625 44.140625 
Q 15.875 39.890625 15.1875 32.171875 
z
" id="DejaVuSans-101"/>
      <path d="M 18.3125 70.21875 
L 18.3125 54.6875 
L 36.8125 54.6875 
L 36.8125 47.703125 
L 18.3125 47.703125 
L 18.3125 18.015625 
Q 18.3125 11.328125 20.140625 9.421875 
Q 21.96875 7.515625 27.59375 7.515625 
L 36.8125 7.515625 
L 36.8125 0 
L 27.59375 0 
Q 17.1875 0 13.234375 3.875 
Q 9.28125 7.765625 9.28125 18.015625 
L 9.28125 47.703125 
L 2.6875 47.703125 
L 2.6875 54.6875 
L 9.28125 54.6875 
L 9.28125 70.21875 
z
" id="DejaVuSans-116"/>
      <path d="M 54.890625 33.015625 
L 54.890625 0 
L 45.90625 0 
L 45.90625 32.71875 
Q 45.90625 40.484375 42.875 44.328125 
Q 39.84375 48.1875 33.796875 48.1875 
Q 26.515625 48.1875 22.3125 43.546875 
Q 18.109375 38.921875 18.109375 30.90625 
L 18.109375 0 
L 9.078125 0 
L 9.078125 54.6875 
L 18.109375 54.6875 
L 18.109375 46.1875 
Q 21.34375 51.125 25.703125 53.5625 
Q 30.078125 56 35.796875 56 
Q 45.21875 56 50.046875 50.171875 
Q 54.890625 44.34375 54.890625 33.015625 
z
" id="DejaVuSans-110"/>
      <path d="M 44.28125 53.078125 
L 44.28125 44.578125 
Q 40.484375 46.53125 36.375 47.5 
Q 32.28125 48.484375 27.875 48.484375 
Q 21.1875 48.484375 17.84375 46.4375 
Q 14.5 44.390625 14.5 40.28125 
Q 14.5 37.15625 16.890625 35.375 
Q 19.28125 33.59375 26.515625 31.984375 
L 29.59375 31.296875 
Q 39.15625 29.25 43.1875 25.515625 
Q 47.21875 21.78125 47.21875 15.09375 
Q 47.21875 7.46875 41.1875 3.015625 
Q 35.15625 -1.421875 24.609375 -1.421875 
Q 20.21875 -1.421875 15.453125 -0.5625 
Q 10.6875 0.296875 5.421875 2 
L 5.421875 11.28125 
Q 10.40625 8.6875 15.234375 7.390625 
Q 20.0625 6.109375 24.8125 6.109375 
Q 31.15625 6.109375 34.5625 8.28125 
Q 37.984375 10.453125 37.984375 14.40625 
Q 37.984375 18.0625 35.515625 20.015625 
Q 33.0625 21.96875 24.703125 23.78125 
L 21.578125 24.515625 
Q 13.234375 26.265625 9.515625 29.90625 
Q 5.8125 33.546875 5.8125 39.890625 
Q 5.8125 47.609375 11.28125 51.796875 
Q 16.75 56 26.8125 56 
Q 31.78125 56 36.171875 55.265625 
Q 40.578125 54.546875 44.28125 53.078125 
z
" id="DejaVuSans-115"/>
      <path d="M 3.328125 72.90625 
L 13.28125 72.90625 
L 28.609375 11.28125 
L 43.890625 72.90625 
L 54.984375 72.90625 
L 70.3125 11.28125 
L 85.59375 72.90625 
L 95.609375 72.90625 
L 77.296875 0 
L 64.890625 0 
L 49.515625 63.28125 
L 33.984375 0 
L 21.578125 0 
z
" id="DejaVuSans-87"/>
     </defs>
     <g transform="translate(265.957875 357.69595)scale(0.2592 -0.2592)">
      <use xlink:href="#DejaVuSans-99"/>
      <use x="54.980469" xlink:href="#DejaVuSans-111"/>
      <use x="116.162109" xlink:href="#DejaVuSans-109"/>
      <use x="213.574219" xlink:href="#DejaVuSans-112"/>
      <use x="277.050781" xlink:href="#DejaVuSans-108"/>
      <use x="304.833984" xlink:href="#DejaVuSans-101"/>
      <use x="366.357422" xlink:href="#DejaVuSans-116"/>
      <use x="405.566406" xlink:href="#DejaVuSans-101"/>
      <use x="467.089844" xlink:href="#DejaVuSans-110"/>
      <use x="530.46875" xlink:href="#DejaVuSans-101"/>
      <use x="591.992188" xlink:href="#DejaVuSans-115"/>
      <use x="644.091797" xlink:href="#DejaVuSans-115"/>
      <use x="696.191406" xlink:href="#DejaVuSans-87"/>
     </g>
    </g>
   </g>
   <g id="matplotlib.axis_2">
    <g id="ytick_1">
     <g id="line2d_7">
      <defs>
       <path d="M 0 0 
L -3.5 0 
" id="m3aaa70606a" style="stroke:#000000;stroke-width:0.8;"/>
      </defs>
      <g>
       <use style="stroke:#000000;stroke-width:0.8;" x="90" xlink:href="#m3aaa70606a" y="334.0008"/>
      </g>
     </g>
     <g id="text_2">
      <!-- 0.0 -->
      <defs>
       <path d="M 31.78125 66.40625 
Q 24.171875 66.40625 20.328125 58.90625 
Q 16.5 51.421875 16.5 36.375 
Q 16.5 21.390625 20.328125 13.890625 
Q 24.171875 6.390625 31.78125 6.390625 
Q 39.453125 6.390625 43.28125 13.890625 
Q 47.125 21.390625 47.125 36.375 
Q 47.125 51.421875 43.28125 58.90625 
Q 39.453125 66.40625 31.78125 66.40625 
z
M 31.78125 74.21875 
Q 44.046875 74.21875 50.515625 64.515625 
Q 56.984375 54.828125 56.984375 36.375 
Q 56.984375 17.96875 50.515625 8.265625 
Q 44.046875 -1.421875 31.78125 -1.421875 
Q 19.53125 -1.421875 13.0625 8.265625 
Q 6.59375 17.96875 6.59375 36.375 
Q 6.59375 54.828125 13.0625 64.515625 
Q 19.53125 74.21875 31.78125 74.21875 
z
" id="DejaVuSans-48"/>
       <path d="M 10.6875 12.40625 
L 21 12.40625 
L 21 0 
L 10.6875 0 
z
" id="DejaVuSans-46"/>
      </defs>
      <g transform="translate(41.7791 343.848375)scale(0.2592 -0.2592)">
       <use xlink:href="#DejaVuSans-48"/>
       <use x="63.623047" xlink:href="#DejaVuSans-46"/>
       <use x="95.410156" xlink:href="#DejaVuSans-48"/>
      </g>
     </g>
    </g>
    <g id="ytick_2">
     <g id="line2d_8">
      <g>
       <use style="stroke:#000000;stroke-width:0.8;" x="90" xlink:href="#m3aaa70606a" y="210.870107"/>
      </g>
     </g>
     <g id="text_3">
      <!-- 0.5 -->
      <defs>
       <path d="M 10.796875 72.90625 
L 49.515625 72.90625 
L 49.515625 64.59375 
L 19.828125 64.59375 
L 19.828125 46.734375 
Q 21.96875 47.46875 24.109375 47.828125 
Q 26.265625 48.1875 28.421875 48.1875 
Q 40.625 48.1875 47.75 41.5 
Q 54.890625 34.8125 54.890625 23.390625 
Q 54.890625 11.625 47.5625 5.09375 
Q 40.234375 -1.421875 26.90625 -1.421875 
Q 22.3125 -1.421875 17.546875 -0.640625 
Q 12.796875 0.140625 7.71875 1.703125 
L 7.71875 11.625 
Q 12.109375 9.234375 16.796875 8.0625 
Q 21.484375 6.890625 26.703125 6.890625 
Q 35.15625 6.890625 40.078125 11.328125 
Q 45.015625 15.765625 45.015625 23.390625 
Q 45.015625 31 40.078125 35.4375 
Q 35.15625 39.890625 26.703125 39.890625 
Q 22.75 39.890625 18.8125 39.015625 
Q 14.890625 38.140625 10.796875 36.28125 
z
" id="DejaVuSans-53"/>
      </defs>
      <g transform="translate(41.7791 220.717682)scale(0.2592 -0.2592)">
       <use xlink:href="#DejaVuSans-48"/>
       <use x="63.623047" xlink:href="#DejaVuSans-46"/>
       <use x="95.410156" xlink:href="#DejaVuSans-53"/>
      </g>
     </g>
    </g>
    <g id="ytick_3">
     <g id="line2d_9">
      <g>
       <use style="stroke:#000000;stroke-width:0.8;" x="90" xlink:href="#m3aaa70606a" y="87.739414"/>
      </g>
     </g>
     <g id="text_4">
      <!-- 1.0 -->
      <defs>
       <path d="M 12.40625 8.296875 
L 28.515625 8.296875 
L 28.515625 63.921875 
L 10.984375 60.40625 
L 10.984375 69.390625 
L 28.421875 72.90625 
L 38.28125 72.90625 
L 38.28125 8.296875 
L 54.390625 8.296875 
L 54.390625 0 
L 12.40625 0 
z
" id="DejaVuSans-49"/>
      </defs>
      <g transform="translate(41.7791 97.586989)scale(0.2592 -0.2592)">
       <use xlink:href="#DejaVuSans-49"/>
       <use x="63.623047" xlink:href="#DejaVuSans-46"/>
       <use x="95.410156" xlink:href="#DejaVuSans-48"/>
      </g>
     </g>
    </g>
    <g id="text_5">
     <!-- Fraction -->
     <defs>
      <path d="M 9.8125 72.90625 
L 51.703125 72.90625 
L 51.703125 64.59375 
L 19.671875 64.59375 
L 19.671875 43.109375 
L 48.578125 43.109375 
L 48.578125 34.8125 
L 19.671875 34.8125 
L 19.671875 0 
L 9.8125 0 
z
" id="DejaVuSans-70"/>
      <path d="M 41.109375 46.296875 
Q 39.59375 47.171875 37.8125 47.578125 
Q 36.03125 48 33.890625 48 
Q 26.265625 48 22.1875 43.046875 
Q 18.109375 38.09375 18.109375 28.8125 
L 18.109375 0 
L 9.078125 0 
L 9.078125 54.6875 
L 18.109375 54.6875 
L 18.109375 46.1875 
Q 20.953125 51.171875 25.484375 53.578125 
Q 30.03125 56 36.53125 56 
Q 37.453125 56 38.578125 55.875 
Q 39.703125 55.765625 41.0625 55.515625 
z
" id="DejaVuSans-114"/>
      <path d="M 34.28125 27.484375 
Q 23.390625 27.484375 19.1875 25 
Q 14.984375 22.515625 14.984375 16.5 
Q 14.984375 11.71875 18.140625 8.90625 
Q 21.296875 6.109375 26.703125 6.109375 
Q 34.1875 6.109375 38.703125 11.40625 
Q 43.21875 16.703125 43.21875 25.484375 
L 43.21875 27.484375 
z
M 52.203125 31.203125 
L 52.203125 0 
L 43.21875 0 
L 43.21875 8.296875 
Q 40.140625 3.328125 35.546875 0.953125 
Q 30.953125 -1.421875 24.3125 -1.421875 
Q 15.921875 -1.421875 10.953125 3.296875 
Q 6 8.015625 6 15.921875 
Q 6 25.140625 12.171875 29.828125 
Q 18.359375 34.515625 30.609375 34.515625 
L 43.21875 34.515625 
L 43.21875 35.40625 
Q 43.21875 41.609375 39.140625 45 
Q 35.0625 48.390625 27.6875 48.390625 
Q 23 48.390625 18.546875 47.265625 
Q 14.109375 46.140625 10.015625 43.890625 
L 10.015625 52.203125 
Q 14.9375 54.109375 19.578125 55.046875 
Q 24.21875 56 28.609375 56 
Q 40.484375 56 46.34375 49.84375 
Q 52.203125 43.703125 52.203125 31.203125 
z
" id="DejaVuSans-97"/>
      <path d="M 9.421875 54.6875 
L 18.40625 54.6875 
L 18.40625 0 
L 9.421875 0 
z
M 9.421875 75.984375 
L 18.40625 75.984375 
L 18.40625 64.59375 
L 9.421875 64.59375 
z
" id="DejaVuSans-105"/>
     </defs>
     <g transform="translate(32.38855 262.298925)rotate(-90)scale(0.2592 -0.2592)">
      <use xlink:href="#DejaVuSans-70"/>
      <use x="57.410156" xlink:href="#DejaVuSans-114"/>
      <use x="98.523438" xlink:href="#DejaVuSans-97"/>
      <use x="159.802734" xlink:href="#DejaVuSans-99"/>
      <use x="214.783203" xlink:href="#DejaVuSans-116"/>
      <use x="253.992188" xlink:href="#DejaVuSans-105"/>
      <use x="281.775391" xlink:href="#DejaVuSans-111"/>
      <use x="342.957031" xlink:href="#DejaVuSans-110"/>
     </g>
    </g>
   </g>
   <g id="LineCollection_1">
    <path clip-path="url(#pb12e04d64c)" d="M 97.153846 191.458051 
L 97.153846 159.921767 
" style="fill:none;stroke:#008000;stroke-width:1.5;"/>
    <path clip-path="url(#pb12e04d64c)" d="M 111.461538 203.337608 
L 111.461538 158.960202 
" style="fill:none;stroke:#008000;stroke-width:1.5;"/>
    <path clip-path="url(#pb12e04d64c)" d="M 125.769231 183.387179 
L 125.769231 148.80344 
" style="fill:none;stroke:#008000;stroke-width:1.5;"/>
    <path clip-path="url(#pb12e04d64c)" d="M 140.076923 154.560067 
L 140.076923 124.004922 
" style="fill:none;stroke:#008000;stroke-width:1.5;"/>
    <path clip-path="url(#pb12e04d64c)" d="M 154.384615 209.926493 
L 154.384615 168.355829 
" style="fill:none;stroke:#008000;stroke-width:1.5;"/>
    <path clip-path="url(#pb12e04d64c)" d="M 168.692308 150.904999 
L 168.692308 116.921848 
" style="fill:none;stroke:#008000;stroke-width:1.5;"/>
    <path clip-path="url(#pb12e04d64c)" d="M 183 138.909308 
L 183 113.827994 
" style="fill:none;stroke:#008000;stroke-width:1.5;"/>
    <path clip-path="url(#pb12e04d64c)" d="M 197.307692 105.851019 
L 197.307692 91.041842 
" style="fill:none;stroke:#008000;stroke-width:1.5;"/>
    <path clip-path="url(#pb12e04d64c)" d="M 211.615385 97.739352 
L 211.615385 87.790961 
" style="fill:none;stroke:#008000;stroke-width:1.5;"/>
    <path clip-path="url(#pb12e04d64c)" d="M 225.923077 132.088739 
L 225.923077 107.632189 
" style="fill:none;stroke:#008000;stroke-width:1.5;"/>
    <path clip-path="url(#pb12e04d64c)" d="M 240.230769 151.675883 
L 240.230769 122.307499 
" style="fill:none;stroke:#008000;stroke-width:1.5;"/>
    <path clip-path="url(#pb12e04d64c)" d="M 254.538462 135.230117 
L 254.538462 110.609107 
" style="fill:none;stroke:#008000;stroke-width:1.5;"/>
    <path clip-path="url(#pb12e04d64c)" d="M 268.846154 150.274043 
L 268.846154 123.70934 
" style="fill:none;stroke:#008000;stroke-width:1.5;"/>
    <path clip-path="url(#pb12e04d64c)" d="M 283.153846 154.334607 
L 283.153846 128.883577 
" style="fill:none;stroke:#008000;stroke-width:1.5;"/>
    <path clip-path="url(#pb12e04d64c)" d="M 297.461538 162.115814 
L 297.461538 131.140199 
" style="fill:none;stroke:#008000;stroke-width:1.5;"/>
    <path clip-path="url(#pb12e04d64c)" d="M 311.769231 113.352967 
L 311.769231 96.688863 
" style="fill:none;stroke:#008000;stroke-width:1.5;"/>
    <path clip-path="url(#pb12e04d64c)" d="M 326.076923 127.064719 
L 326.076923 105.243659 
" style="fill:none;stroke:#008000;stroke-width:1.5;"/>
    <path clip-path="url(#pb12e04d64c)" d="M 340.384615 148.301078 
L 340.384615 124.189811 
" style="fill:none;stroke:#008000;stroke-width:1.5;"/>
    <path clip-path="url(#pb12e04d64c)" d="M 354.692308 112.218582 
L 354.692308 97.463216 
" style="fill:none;stroke:#008000;stroke-width:1.5;"/>
    <path clip-path="url(#pb12e04d64c)" d="M 369 128.120272 
L 369 108.923902 
" style="fill:none;stroke:#008000;stroke-width:1.5;"/>
    <path clip-path="url(#pb12e04d64c)" d="M 383.307692 131.953053 
L 383.307692 113.886171 
" style="fill:none;stroke:#008000;stroke-width:1.5;"/>
    <path clip-path="url(#pb12e04d64c)" d="M 397.615385 129.691008 
L 397.615385 110.593448 
" style="fill:none;stroke:#008000;stroke-width:1.5;"/>
    <path clip-path="url(#pb12e04d64c)" d="M 411.923077 122.548886 
L 411.923077 107.654695 
" style="fill:none;stroke:#008000;stroke-width:1.5;"/>
    <path clip-path="url(#pb12e04d64c)" d="M 426.230769 117.400111 
L 426.230769 104.616302 
" style="fill:none;stroke:#008000;stroke-width:1.5;"/>
    <path clip-path="url(#pb12e04d64c)" d="M 440.538462 118.151417 
L 440.538462 105.468734 
" style="fill:none;stroke:#008000;stroke-width:1.5;"/>
    <path clip-path="url(#pb12e04d64c)" d="M 454.846154 122.752376 
L 454.846154 109.41972 
" style="fill:none;stroke:#008000;stroke-width:1.5;"/>
    <path clip-path="url(#pb12e04d64c)" d="M 469.153846 115.915389 
L 469.153846 106.027851 
" style="fill:none;stroke:#008000;stroke-width:1.5;"/>
    <path clip-path="url(#pb12e04d64c)" d="M 483.461538 112.768782 
L 483.461538 103.75361 
" style="fill:none;stroke:#008000;stroke-width:1.5;"/>
    <path clip-path="url(#pb12e04d64c)" d="M 497.769231 112.90096 
L 497.769231 104.533511 
" style="fill:none;stroke:#008000;stroke-width:1.5;"/>
    <path clip-path="url(#pb12e04d64c)" d="M 512.076923 115.970372 
L 512.076923 107.85425 
" style="fill:none;stroke:#008000;stroke-width:1.5;"/>
    <path clip-path="url(#pb12e04d64c)" d="M 526.384615 112.854023 
L 526.384615 105.784017 
" style="fill:none;stroke:#008000;stroke-width:1.5;"/>
    <path clip-path="url(#pb12e04d64c)" d="M 540.692308 107.340962 
L 540.692308 101.547507 
" style="fill:none;stroke:#008000;stroke-width:1.5;"/>
    <path clip-path="url(#pb12e04d64c)" d="M 555 106.317328 
L 555 101.336354 
" style="fill:none;stroke:#008000;stroke-width:1.5;"/>
    <path clip-path="url(#pb12e04d64c)" d="M 569.307692 105.090458 
L 569.307692 100.946352 
" style="fill:none;stroke:#008000;stroke-width:1.5;"/>
    <path clip-path="url(#pb12e04d64c)" d="M 583.615385 103.417222 
L 583.615385 99.97423 
" style="fill:none;stroke:#008000;stroke-width:1.5;"/>
    <path clip-path="url(#pb12e04d64c)" d="M 597.923077 102.148692 
L 597.923077 99.426044 
" style="fill:none;stroke:#008000;stroke-width:1.5;"/>
    <path clip-path="url(#pb12e04d64c)" d="M 612.230769 99.176908 
L 612.230769 97.264214 
" style="fill:none;stroke:#008000;stroke-width:1.5;"/>
    <path clip-path="url(#pb12e04d64c)" d="M 626.538462 95.913968 
L 626.538462 94.708747 
" style="fill:none;stroke:#008000;stroke-width:1.5;"/>
    <path clip-path="url(#pb12e04d64c)" d="M 640.846154 90.251264 
L 640.846154 89.845077 
" style="fill:none;stroke:#008000;stroke-width:1.5;"/>
   </g>
   <g id="LineCollection_2">
    <path clip-path="url(#pb12e04d64c)" d="M 97.153846 123.000631 
L 97.153846 101.730474 
" style="fill:none;stroke:#ff0000;stroke-width:1.5;"/>
    <path clip-path="url(#pb12e04d64c)" d="M 111.461538 139.357596 
L 111.461538 106.481628 
" style="fill:none;stroke:#ff0000;stroke-width:1.5;"/>
    <path clip-path="url(#pb12e04d64c)" d="M 125.769231 120.790722 
L 125.769231 99.462904 
" style="fill:none;stroke:#ff0000;stroke-width:1.5;"/>
    <path clip-path="url(#pb12e04d64c)" d="M 140.076923 130.492264 
L 140.076923 108.130509 
" style="fill:none;stroke:#ff0000;stroke-width:1.5;"/>
    <path clip-path="url(#pb12e04d64c)" d="M 154.384615 154.142358 
L 154.384615 119.841024 
" style="fill:none;stroke:#ff0000;stroke-width:1.5;"/>
    <path clip-path="url(#pb12e04d64c)" d="M 168.692308 142.202317 
L 168.692308 112.715667 
" style="fill:none;stroke:#ff0000;stroke-width:1.5;"/>
    <path clip-path="url(#pb12e04d64c)" d="M 183 133.099399 
L 183 111.332616 
" style="fill:none;stroke:#ff0000;stroke-width:1.5;"/>
    <path clip-path="url(#pb12e04d64c)" d="M 197.307692 122.692902 
L 197.307692 103.043352 
" style="fill:none;stroke:#ff0000;stroke-width:1.5;"/>
    <path clip-path="url(#pb12e04d64c)" d="M 211.615385 132.987095 
L 211.615385 112.852129 
" style="fill:none;stroke:#ff0000;stroke-width:1.5;"/>
    <path clip-path="url(#pb12e04d64c)" d="M 225.923077 145.200598 
L 225.923077 120.741596 
" style="fill:none;stroke:#ff0000;stroke-width:1.5;"/>
    <path clip-path="url(#pb12e04d64c)" d="M 240.230769 140.71443 
L 240.230769 114.942524 
" style="fill:none;stroke:#ff0000;stroke-width:1.5;"/>
    <path clip-path="url(#pb12e04d64c)" d="M 254.538462 134.314586 
L 254.538462 111.524637 
" style="fill:none;stroke:#ff0000;stroke-width:1.5;"/>
    <path clip-path="url(#pb12e04d64c)" d="M 268.846154 141.16354 
L 268.846154 117.95123 
" style="fill:none;stroke:#ff0000;stroke-width:1.5;"/>
    <path clip-path="url(#pb12e04d64c)" d="M 283.153846 143.132918 
L 283.153846 121.161492 
" style="fill:none;stroke:#ff0000;stroke-width:1.5;"/>
    <path clip-path="url(#pb12e04d64c)" d="M 297.461538 168.314039 
L 297.461538 140.556373 
" style="fill:none;stroke:#ff0000;stroke-width:1.5;"/>
    <path clip-path="url(#pb12e04d64c)" d="M 311.769231 155.537871 
L 311.769231 134.149136 
" style="fill:none;stroke:#ff0000;stroke-width:1.5;"/>
    <path clip-path="url(#pb12e04d64c)" d="M 326.076923 150.481849 
L 326.076923 126.898242 
" style="fill:none;stroke:#ff0000;stroke-width:1.5;"/>
    <path clip-path="url(#pb12e04d64c)" d="M 340.384615 133.875325 
L 340.384615 113.098744 
" style="fill:none;stroke:#ff0000;stroke-width:1.5;"/>
    <path clip-path="url(#pb12e04d64c)" d="M 354.692308 128.456967 
L 354.692308 110.985857 
" style="fill:none;stroke:#ff0000;stroke-width:1.5;"/>
    <path clip-path="url(#pb12e04d64c)" d="M 369 149.954638 
L 369 130.185279 
" style="fill:none;stroke:#ff0000;stroke-width:1.5;"/>
    <path clip-path="url(#pb12e04d64c)" d="M 383.307692 120.861419 
L 383.307692 105.56804 
" style="fill:none;stroke:#ff0000;stroke-width:1.5;"/>
    <path clip-path="url(#pb12e04d64c)" d="M 397.615385 132.097373 
L 397.615385 113.74185 
" style="fill:none;stroke:#ff0000;stroke-width:1.5;"/>
    <path clip-path="url(#pb12e04d64c)" d="M 411.923077 136.076529 
L 411.923077 120.775627 
" style="fill:none;stroke:#ff0000;stroke-width:1.5;"/>
    <path clip-path="url(#pb12e04d64c)" d="M 426.230769 113.146758 
L 426.230769 101.733891 
" style="fill:none;stroke:#ff0000;stroke-width:1.5;"/>
    <path clip-path="url(#pb12e04d64c)" d="M 440.538462 110.250373 
L 440.538462 99.590509 
" style="fill:none;stroke:#ff0000;stroke-width:1.5;"/>
    <path clip-path="url(#pb12e04d64c)" d="M 454.846154 122.302355 
L 454.846154 109.869741 
" style="fill:none;stroke:#ff0000;stroke-width:1.5;"/>
    <path clip-path="url(#pb12e04d64c)" d="M 469.153846 118.863444 
L 469.153846 109.303866 
" style="fill:none;stroke:#ff0000;stroke-width:1.5;"/>
    <path clip-path="url(#pb12e04d64c)" d="M 483.461538 108.15034 
L 483.461538 100.309923 
" style="fill:none;stroke:#ff0000;stroke-width:1.5;"/>
    <path clip-path="url(#pb12e04d64c)" d="M 497.769231 104.261994 
L 497.769231 97.63568 
" style="fill:none;stroke:#ff0000;stroke-width:1.5;"/>
    <path clip-path="url(#pb12e04d64c)" d="M 512.076923 105.035829 
L 512.076923 98.857774 
" style="fill:none;stroke:#ff0000;stroke-width:1.5;"/>
    <path clip-path="url(#pb12e04d64c)" d="M 526.384615 100.911954 
L 526.384615 95.865156 
" style="fill:none;stroke:#ff0000;stroke-width:1.5;"/>
    <path clip-path="url(#pb12e04d64c)" d="M 540.692308 101.104854 
L 540.692308 96.460197 
" style="fill:none;stroke:#ff0000;stroke-width:1.5;"/>
    <path clip-path="url(#pb12e04d64c)" d="M 555 98.967585 
L 555 95.193141 
" style="fill:none;stroke:#ff0000;stroke-width:1.5;"/>
    <path clip-path="url(#pb12e04d64c)" d="M 569.307692 95.309513 
L 569.307692 92.622482 
" style="fill:none;stroke:#ff0000;stroke-width:1.5;"/>
    <path clip-path="url(#pb12e04d64c)" d="M 583.615385 94.686213 
L 583.615385 92.441686 
" style="fill:none;stroke:#ff0000;stroke-width:1.5;"/>
    <path clip-path="url(#pb12e04d64c)" d="M 597.923077 92.393572 
L 597.923077 90.878337 
" style="fill:none;stroke:#ff0000;stroke-width:1.5;"/>
    <path clip-path="url(#pb12e04d64c)" d="M 612.230769 91.669162 
L 612.230769 90.569414 
" style="fill:none;stroke:#ff0000;stroke-width:1.5;"/>
    <path clip-path="url(#pb12e04d64c)" d="M 626.538462 90.456084 
L 626.538462 89.776044 
" style="fill:none;stroke:#ff0000;stroke-width:1.5;"/>
    <path clip-path="url(#pb12e04d64c)" d="M 640.846154 88.363297 
L 640.846154 88.169328 
" style="fill:none;stroke:#ff0000;stroke-width:1.5;"/>
   </g>
   <g id="LineCollection_3">
    <path clip-path="url(#pb12e04d64c)" d="M 97.153846 207.273335 
L 97.153846 175.768661 
" style="fill:none;stroke:#0000ff;stroke-width:1.5;"/>
    <path clip-path="url(#pb12e04d64c)" d="M 111.461538 224.567684 
L 111.461538 181.402096 
" style="fill:none;stroke:#0000ff;stroke-width:1.5;"/>
    <path clip-path="url(#pb12e04d64c)" d="M 125.769231 198.679372 
L 125.769231 164.039517 
" style="fill:none;stroke:#0000ff;stroke-width:1.5;"/>
    <path clip-path="url(#pb12e04d64c)" d="M 140.076923 180.232349 
L 140.076923 148.260411 
" style="fill:none;stroke:#0000ff;stroke-width:1.5;"/>
    <path clip-path="url(#pb12e04d64c)" d="M 154.384615 237.562501 
L 154.384615 198.663677 
" style="fill:none;stroke:#0000ff;stroke-width:1.5;"/>
    <path clip-path="url(#pb12e04d64c)" d="M 168.692308 184.802408 
L 168.692308 147.568754 
" style="fill:none;stroke:#0000ff;stroke-width:1.5;"/>
    <path clip-path="url(#pb12e04d64c)" d="M 183 169.597589 
L 183 141.276715 
" style="fill:none;stroke:#0000ff;stroke-width:1.5;"/>
    <path clip-path="url(#pb12e04d64c)" d="M 197.307692 133.994521 
L 197.307692 110.970661 
" style="fill:none;stroke:#0000ff;stroke-width:1.5;"/>
    <path clip-path="url(#pb12e04d64c)" d="M 211.615385 137.971588 
L 211.615385 116.483194 
" style="fill:none;stroke:#0000ff;stroke-width:1.5;"/>
    <path clip-path="url(#pb12e04d64c)" d="M 225.923077 173.7778 
L 225.923077 144.606925 
" style="fill:none;stroke:#0000ff;stroke-width:1.5;"/>
    <path clip-path="url(#pb12e04d64c)" d="M 240.230769 185.10684 
L 240.230769 153.019043 
" style="fill:none;stroke:#0000ff;stroke-width:1.5;"/>
    <path clip-path="url(#pb12e04d64c)" d="M 254.538462 167.452469 
L 254.538462 138.695666 
" style="fill:none;stroke:#0000ff;stroke-width:1.5;"/>
    <path clip-path="url(#pb12e04d64c)" d="M 268.846154 184.861387 
L 268.846154 156.030749 
" style="fill:none;stroke:#0000ff;stroke-width:1.5;"/>
    <path clip-path="url(#pb12e04d64c)" d="M 283.153846 189.810505 
L 283.153846 162.794852 
" style="fill:none;stroke:#0000ff;stroke-width:1.5;"/>
    <path clip-path="url(#pb12e04d64c)" d="M 297.461538 212.836028 
L 297.461538 181.913581 
" style="fill:none;stroke:#0000ff;stroke-width:1.5;"/>
    <path clip-path="url(#pb12e04d64c)" d="M 311.769231 169.943123 
L 311.769231 146.292277 
" style="fill:none;stroke:#0000ff;stroke-width:1.5;"/>
    <path clip-path="url(#pb12e04d64c)" d="M 326.076923 174.779044 
L 326.076923 147.672759 
" style="fill:none;stroke:#0000ff;stroke-width:1.5;"/>
    <path clip-path="url(#pb12e04d64c)" d="M 340.384615 178.210701 
L 340.384615 151.693033 
" style="fill:none;stroke:#0000ff;stroke-width:1.5;"/>
    <path clip-path="url(#pb12e04d64c)" d="M 354.692308 144.960007 
L 354.692308 124.243844 
" style="fill:none;stroke:#0000ff;stroke-width:1.5;"/>
    <path clip-path="url(#pb12e04d64c)" d="M 369 175.797776 
L 369 152.824851 
" style="fill:none;stroke:#0000ff;stroke-width:1.5;"/>
    <path clip-path="url(#pb12e04d64c)" d="M 383.307692 155.174419 
L 383.307692 134.336775 
" style="fill:none;stroke:#0000ff;stroke-width:1.5;"/>
    <path clip-path="url(#pb12e04d64c)" d="M 397.615385 162.117649 
L 397.615385 139.269256 
" style="fill:none;stroke:#0000ff;stroke-width:1.5;"/>
    <path clip-path="url(#pb12e04d64c)" d="M 411.923077 160.481447 
L 411.923077 142.05398 
" style="fill:none;stroke:#0000ff;stroke-width:1.5;"/>
    <path clip-path="url(#pb12e04d64c)" d="M 426.230769 136.675851 
L 426.230769 121.019377 
" style="fill:none;stroke:#0000ff;stroke-width:1.5;"/>
    <path clip-path="url(#pb12e04d64c)" d="M 440.538462 134.922496 
L 440.538462 119.701012 
" style="fill:none;stroke:#0000ff;stroke-width:1.5;"/>
    <path clip-path="url(#pb12e04d64c)" d="M 454.846154 149.235512 
L 454.846154 133.104009 
" style="fill:none;stroke:#0000ff;stroke-width:1.5;"/>
    <path clip-path="url(#pb12e04d64c)" d="M 469.153846 141.013631 
L 469.153846 128.64748 
" style="fill:none;stroke:#0000ff;stroke-width:1.5;"/>
    <path clip-path="url(#pb12e04d64c)" d="M 483.461538 128.909563 
L 483.461538 117.845811 
" style="fill:none;stroke:#0000ff;stroke-width:1.5;"/>
    <path clip-path="url(#pb12e04d64c)" d="M 497.769231 125.787657 
L 497.769231 115.815166 
" style="fill:none;stroke:#0000ff;stroke-width:1.5;"/>
    <path clip-path="url(#pb12e04d64c)" d="M 512.076923 129.456204 
L 512.076923 119.994012 
" style="fill:none;stroke:#0000ff;stroke-width:1.5;"/>
    <path clip-path="url(#pb12e04d64c)" d="M 526.384615 123.126362 
L 526.384615 114.943615 
" style="fill:none;stroke:#0000ff;stroke-width:1.5;"/>
    <path clip-path="url(#pb12e04d64c)" d="M 540.692308 118.251325 
L 540.692308 111.225177 
" style="fill:none;stroke:#0000ff;stroke-width:1.5;"/>
    <path clip-path="url(#pb12e04d64c)" d="M 555 115.532873 
L 555 109.582282 
" style="fill:none;stroke:#0000ff;stroke-width:1.5;"/>
    <path clip-path="url(#pb12e04d64c)" d="M 569.307692 111.239222 
L 569.307692 106.478114 
" style="fill:none;stroke:#0000ff;stroke-width:1.5;"/>
    <path clip-path="url(#pb12e04d64c)" d="M 583.615385 109.17657 
L 583.615385 105.20377 
" style="fill:none;stroke:#0000ff;stroke-width:1.5;"/>
    <path clip-path="url(#pb12e04d64c)" d="M 597.923077 105.997254 
L 597.923077 102.957654 
" style="fill:none;stroke:#0000ff;stroke-width:1.5;"/>
    <path clip-path="url(#pb12e04d64c)" d="M 612.230769 102.536787 
L 612.230769 100.376381 
" style="fill:none;stroke:#0000ff;stroke-width:1.5;"/>
    <path clip-path="url(#pb12e04d64c)" d="M 626.538462 98.296677 
L 626.538462 96.933186 
" style="fill:none;stroke:#0000ff;stroke-width:1.5;"/>
    <path clip-path="url(#pb12e04d64c)" d="M 640.846154 90.794408 
L 640.846154 90.34585 
" style="fill:none;stroke:#0000ff;stroke-width:1.5;"/>
   </g>
   <g id="line2d_10">
    <path clip-path="url(#pb12e04d64c)" d="M 90 175.689909 
L 104.307692 175.689909 
L 104.307692 181.148905 
L 118.615385 181.148905 
L 118.615385 166.095309 
L 132.923077 166.095309 
L 132.923077 139.282495 
L 147.230769 139.282495 
L 147.230769 189.141161 
L 161.538462 189.141161 
L 161.538462 133.913424 
L 175.846154 133.913424 
L 175.846154 126.368651 
L 190.153846 126.368651 
L 190.153846 98.446431 
L 204.461538 98.446431 
L 204.461538 92.765156 
L 218.769231 92.765156 
L 218.769231 119.860464 
L 233.076923 119.860464 
L 233.076923 136.991691 
L 247.384615 136.991691 
L 247.384615 122.919612 
L 261.692308 122.919612 
L 261.692308 136.991691 
L 276 136.991691 
L 276 141.609092 
L 290.307692 141.609092 
L 290.307692 146.628006 
L 304.615385 146.628006 
L 304.615385 105.020915 
L 318.923077 105.020915 
L 318.923077 116.154189 
L 333.230769 116.154189 
L 333.230769 136.245444 
L 347.538462 136.245444 
L 347.538462 104.840899 
L 361.846154 104.840899 
L 361.846154 118.522087 
L 376.153846 118.522087 
L 376.153846 122.919612 
L 390.461538 122.919612 
L 390.461538 120.142228 
L 404.769231 120.142228 
L 404.769231 115.10179 
L 419.076923 115.10179 
L 419.076923 111.008206 
L 433.384615 111.008206 
L 433.384615 111.810076 
L 447.692308 111.810076 
L 447.692308 116.086048 
L 462 116.086048 
L 462 110.97162 
L 476.307692 110.97162 
L 476.307692 108.261196 
L 490.615385 108.261196 
L 490.615385 108.717236 
L 504.923077 108.717236 
L 504.923077 111.912311 
L 519.230769 111.912311 
L 519.230769 109.31902 
L 533.538462 109.31902 
L 533.538462 104.444234 
L 547.846154 104.444234 
L 547.846154 103.826841 
L 562.153846 103.826841 
L 562.153846 103.018405 
L 576.461538 103.018405 
L 576.461538 101.695726 
L 590.769231 101.695726 
L 590.769231 100.787368 
L 605.076923 100.787368 
L 605.076923 98.220561 
L 619.384615 98.220561 
L 619.384615 95.311358 
L 633.692308 95.311358 
L 633.692308 90.048171 
L 648 90.048171 
" style="fill:none;stroke:#008000;stroke-linecap:square;stroke-width:1.5;"/>
   </g>
   <g id="line2d_11">
    <defs>
     <path d="M 2 0 
L -2 -0 
" id="m0a30135504" style="stroke:#008000;"/>
    </defs>
    <g clip-path="url(#pb12e04d64c)">
     <use style="fill:#008000;stroke:#008000;" x="97.153846" xlink:href="#m0a30135504" y="191.458051"/>
     <use style="fill:#008000;stroke:#008000;" x="111.461538" xlink:href="#m0a30135504" y="203.337608"/>
     <use style="fill:#008000;stroke:#008000;" x="125.769231" xlink:href="#m0a30135504" y="183.387179"/>
     <use style="fill:#008000;stroke:#008000;" x="140.076923" xlink:href="#m0a30135504" y="154.560067"/>
     <use style="fill:#008000;stroke:#008000;" x="154.384615" xlink:href="#m0a30135504" y="209.926493"/>
     <use style="fill:#008000;stroke:#008000;" x="168.692308" xlink:href="#m0a30135504" y="150.904999"/>
     <use style="fill:#008000;stroke:#008000;" x="183" xlink:href="#m0a30135504" y="138.909308"/>
     <use style="fill:#008000;stroke:#008000;" x="197.307692" xlink:href="#m0a30135504" y="105.851019"/>
     <use style="fill:#008000;stroke:#008000;" x="211.615385" xlink:href="#m0a30135504" y="97.739352"/>
     <use style="fill:#008000;stroke:#008000;" x="225.923077" xlink:href="#m0a30135504" y="132.088739"/>
     <use style="fill:#008000;stroke:#008000;" x="240.230769" xlink:href="#m0a30135504" y="151.675883"/>
     <use style="fill:#008000;stroke:#008000;" x="254.538462" xlink:href="#m0a30135504" y="135.230117"/>
     <use style="fill:#008000;stroke:#008000;" x="268.846154" xlink:href="#m0a30135504" y="150.274043"/>
     <use style="fill:#008000;stroke:#008000;" x="283.153846" xlink:href="#m0a30135504" y="154.334607"/>
     <use style="fill:#008000;stroke:#008000;" x="297.461538" xlink:href="#m0a30135504" y="162.115814"/>
     <use style="fill:#008000;stroke:#008000;" x="311.769231" xlink:href="#m0a30135504" y="113.352967"/>
     <use style="fill:#008000;stroke:#008000;" x="326.076923" xlink:href="#m0a30135504" y="127.064719"/>
     <use style="fill:#008000;stroke:#008000;" x="340.384615" xlink:href="#m0a30135504" y="148.301078"/>
     <use style="fill:#008000;stroke:#008000;" x="354.692308" xlink:href="#m0a30135504" y="112.218582"/>
     <use style="fill:#008000;stroke:#008000;" x="369" xlink:href="#m0a30135504" y="128.120272"/>
     <use style="fill:#008000;stroke:#008000;" x="383.307692" xlink:href="#m0a30135504" y="131.953053"/>
     <use style="fill:#008000;stroke:#008000;" x="397.615385" xlink:href="#m0a30135504" y="129.691008"/>
     <use style="fill:#008000;stroke:#008000;" x="411.923077" xlink:href="#m0a30135504" y="122.548886"/>
     <use style="fill:#008000;stroke:#008000;" x="426.230769" xlink:href="#m0a30135504" y="117.400111"/>
     <use style="fill:#008000;stroke:#008000;" x="440.538462" xlink:href="#m0a30135504" y="118.151417"/>
     <use style="fill:#008000;stroke:#008000;" x="454.846154" xlink:href="#m0a30135504" y="122.752376"/>
     <use style="fill:#008000;stroke:#008000;" x="469.153846" xlink:href="#m0a30135504" y="115.915389"/>
     <use style="fill:#008000;stroke:#008000;" x="483.461538" xlink:href="#m0a30135504" y="112.768782"/>
     <use style="fill:#008000;stroke:#008000;" x="497.769231" xlink:href="#m0a30135504" y="112.90096"/>
     <use style="fill:#008000;stroke:#008000;" x="512.076923" xlink:href="#m0a30135504" y="115.970372"/>
     <use style="fill:#008000;stroke:#008000;" x="526.384615" xlink:href="#m0a30135504" y="112.854023"/>
     <use style="fill:#008000;stroke:#008000;" x="540.692308" xlink:href="#m0a30135504" y="107.340962"/>
     <use style="fill:#008000;stroke:#008000;" x="555" xlink:href="#m0a30135504" y="106.317328"/>
     <use style="fill:#008000;stroke:#008000;" x="569.307692" xlink:href="#m0a30135504" y="105.090458"/>
     <use style="fill:#008000;stroke:#008000;" x="583.615385" xlink:href="#m0a30135504" y="103.417222"/>
     <use style="fill:#008000;stroke:#008000;" x="597.923077" xlink:href="#m0a30135504" y="102.148692"/>
     <use style="fill:#008000;stroke:#008000;" x="612.230769" xlink:href="#m0a30135504" y="99.176908"/>
     <use style="fill:#008000;stroke:#008000;" x="626.538462" xlink:href="#m0a30135504" y="95.913968"/>
     <use style="fill:#008000;stroke:#008000;" x="640.846154" xlink:href="#m0a30135504" y="90.251264"/>
    </g>
   </g>
   <g id="line2d_12">
    <g clip-path="url(#pb12e04d64c)">
     <use style="fill:#008000;stroke:#008000;" x="97.153846" xlink:href="#m0a30135504" y="159.921767"/>
     <use style="fill:#008000;stroke:#008000;" x="111.461538" xlink:href="#m0a30135504" y="158.960202"/>
     <use style="fill:#008000;stroke:#008000;" x="125.769231" xlink:href="#m0a30135504" y="148.80344"/>
     <use style="fill:#008000;stroke:#008000;" x="140.076923" xlink:href="#m0a30135504" y="124.004922"/>
     <use style="fill:#008000;stroke:#008000;" x="154.384615" xlink:href="#m0a30135504" y="168.355829"/>
     <use style="fill:#008000;stroke:#008000;" x="168.692308" xlink:href="#m0a30135504" y="116.921848"/>
     <use style="fill:#008000;stroke:#008000;" x="183" xlink:href="#m0a30135504" y="113.827994"/>
     <use style="fill:#008000;stroke:#008000;" x="197.307692" xlink:href="#m0a30135504" y="91.041842"/>
     <use style="fill:#008000;stroke:#008000;" x="211.615385" xlink:href="#m0a30135504" y="87.790961"/>
     <use style="fill:#008000;stroke:#008000;" x="225.923077" xlink:href="#m0a30135504" y="107.632189"/>
     <use style="fill:#008000;stroke:#008000;" x="240.230769" xlink:href="#m0a30135504" y="122.307499"/>
     <use style="fill:#008000;stroke:#008000;" x="254.538462" xlink:href="#m0a30135504" y="110.609107"/>
     <use style="fill:#008000;stroke:#008000;" x="268.846154" xlink:href="#m0a30135504" y="123.70934"/>
     <use style="fill:#008000;stroke:#008000;" x="283.153846" xlink:href="#m0a30135504" y="128.883577"/>
     <use style="fill:#008000;stroke:#008000;" x="297.461538" xlink:href="#m0a30135504" y="131.140199"/>
     <use style="fill:#008000;stroke:#008000;" x="311.769231" xlink:href="#m0a30135504" y="96.688863"/>
     <use style="fill:#008000;stroke:#008000;" x="326.076923" xlink:href="#m0a30135504" y="105.243659"/>
     <use style="fill:#008000;stroke:#008000;" x="340.384615" xlink:href="#m0a30135504" y="124.189811"/>
     <use style="fill:#008000;stroke:#008000;" x="354.692308" xlink:href="#m0a30135504" y="97.463216"/>
     <use style="fill:#008000;stroke:#008000;" x="369" xlink:href="#m0a30135504" y="108.923902"/>
     <use style="fill:#008000;stroke:#008000;" x="383.307692" xlink:href="#m0a30135504" y="113.886171"/>
     <use style="fill:#008000;stroke:#008000;" x="397.615385" xlink:href="#m0a30135504" y="110.593448"/>
     <use style="fill:#008000;stroke:#008000;" x="411.923077" xlink:href="#m0a30135504" y="107.654695"/>
     <use style="fill:#008000;stroke:#008000;" x="426.230769" xlink:href="#m0a30135504" y="104.616302"/>
     <use style="fill:#008000;stroke:#008000;" x="440.538462" xlink:href="#m0a30135504" y="105.468734"/>
     <use style="fill:#008000;stroke:#008000;" x="454.846154" xlink:href="#m0a30135504" y="109.41972"/>
     <use style="fill:#008000;stroke:#008000;" x="469.153846" xlink:href="#m0a30135504" y="106.027851"/>
     <use style="fill:#008000;stroke:#008000;" x="483.461538" xlink:href="#m0a30135504" y="103.75361"/>
     <use style="fill:#008000;stroke:#008000;" x="497.769231" xlink:href="#m0a30135504" y="104.533511"/>
     <use style="fill:#008000;stroke:#008000;" x="512.076923" xlink:href="#m0a30135504" y="107.85425"/>
     <use style="fill:#008000;stroke:#008000;" x="526.384615" xlink:href="#m0a30135504" y="105.784017"/>
     <use style="fill:#008000;stroke:#008000;" x="540.692308" xlink:href="#m0a30135504" y="101.547507"/>
     <use style="fill:#008000;stroke:#008000;" x="555" xlink:href="#m0a30135504" y="101.336354"/>
     <use style="fill:#008000;stroke:#008000;" x="569.307692" xlink:href="#m0a30135504" y="100.946352"/>
     <use style="fill:#008000;stroke:#008000;" x="583.615385" xlink:href="#m0a30135504" y="99.97423"/>
     <use style="fill:#008000;stroke:#008000;" x="597.923077" xlink:href="#m0a30135504" y="99.426044"/>
     <use style="fill:#008000;stroke:#008000;" x="612.230769" xlink:href="#m0a30135504" y="97.264214"/>
     <use style="fill:#008000;stroke:#008000;" x="626.538462" xlink:href="#m0a30135504" y="94.708747"/>
     <use style="fill:#008000;stroke:#008000;" x="640.846154" xlink:href="#m0a30135504" y="89.845077"/>
    </g>
   </g>
   <g id="line2d_13">
    <path clip-path="url(#pb12e04d64c)" d="M 90 112.365552 
L 104.307692 112.365552 
L 104.307692 122.919612 
L 118.615385 122.919612 
L 118.615385 110.126813 
L 132.923077 110.126813 
L 132.923077 119.311386 
L 147.230769 119.311386 
L 147.230769 136.991691 
L 161.538462 136.991691 
L 161.538462 127.458992 
L 175.846154 127.458992 
L 175.846154 122.216008 
L 190.153846 122.216008 
L 190.153846 112.868127 
L 204.461538 112.868127 
L 204.461538 122.919612 
L 218.769231 122.919612 
L 218.769231 132.971097 
L 233.076923 132.971097 
L 233.076923 127.828477 
L 247.384615 127.828477 
L 247.384615 122.919612 
L 261.692308 122.919612 
L 261.692308 129.557385 
L 276 129.557385 
L 276 132.147205 
L 290.307692 132.147205 
L 290.307692 154.435206 
L 304.615385 154.435206 
L 304.615385 144.843503 
L 318.923077 144.843503 
L 318.923077 138.690045 
L 333.230769 138.690045 
L 333.230769 123.487034 
L 347.538462 123.487034 
L 347.538462 119.721412 
L 361.846154 119.721412 
L 361.846154 140.069958 
L 376.153846 140.069958 
L 376.153846 113.21473 
L 390.461538 113.21473 
L 390.461538 122.919612 
L 404.769231 122.919612 
L 404.769231 128.426078 
L 419.076923 128.426078 
L 419.076923 107.440325 
L 433.384615 107.440325 
L 433.384615 104.920441 
L 447.692308 104.920441 
L 447.692308 116.086048 
L 462 116.086048 
L 462 114.083655 
L 476.307692 114.083655 
L 476.307692 104.230132 
L 490.615385 104.230132 
L 490.615385 100.948837 
L 504.923077 100.948837 
L 504.923077 101.946802 
L 519.230769 101.946802 
L 519.230769 98.388555 
L 533.538462 98.388555 
L 533.538462 98.782525 
L 547.846154 98.782525 
L 547.846154 97.080363 
L 562.153846 97.080363 
L 562.153846 93.965998 
L 576.461538 93.965998 
L 576.461538 93.56395 
L 590.769231 93.56395 
L 590.769231 91.635955 
L 605.076923 91.635955 
L 605.076923 91.119288 
L 619.384615 91.119288 
L 619.384615 90.116064 
L 633.692308 90.116064 
L 633.692308 88.266312 
L 648 88.266312 
" style="fill:none;stroke:#ff0000;stroke-linecap:square;stroke-width:1.5;"/>
   </g>
   <g id="line2d_14">
    <defs>
     <path d="M 2 0 
L -2 -0 
" id="md3c8acb61c" style="stroke:#ff0000;"/>
    </defs>
    <g clip-path="url(#pb12e04d64c)">
     <use style="fill:#ff0000;stroke:#ff0000;" x="97.153846" xlink:href="#md3c8acb61c" y="123.000631"/>
     <use style="fill:#ff0000;stroke:#ff0000;" x="111.461538" xlink:href="#md3c8acb61c" y="139.357596"/>
     <use style="fill:#ff0000;stroke:#ff0000;" x="125.769231" xlink:href="#md3c8acb61c" y="120.790722"/>
     <use style="fill:#ff0000;stroke:#ff0000;" x="140.076923" xlink:href="#md3c8acb61c" y="130.492264"/>
     <use style="fill:#ff0000;stroke:#ff0000;" x="154.384615" xlink:href="#md3c8acb61c" y="154.142358"/>
     <use style="fill:#ff0000;stroke:#ff0000;" x="168.692308" xlink:href="#md3c8acb61c" y="142.202317"/>
     <use style="fill:#ff0000;stroke:#ff0000;" x="183" xlink:href="#md3c8acb61c" y="133.099399"/>
     <use style="fill:#ff0000;stroke:#ff0000;" x="197.307692" xlink:href="#md3c8acb61c" y="122.692902"/>
     <use style="fill:#ff0000;stroke:#ff0000;" x="211.615385" xlink:href="#md3c8acb61c" y="132.987095"/>
     <use style="fill:#ff0000;stroke:#ff0000;" x="225.923077" xlink:href="#md3c8acb61c" y="145.200598"/>
     <use style="fill:#ff0000;stroke:#ff0000;" x="240.230769" xlink:href="#md3c8acb61c" y="140.71443"/>
     <use style="fill:#ff0000;stroke:#ff0000;" x="254.538462" xlink:href="#md3c8acb61c" y="134.314586"/>
     <use style="fill:#ff0000;stroke:#ff0000;" x="268.846154" xlink:href="#md3c8acb61c" y="141.16354"/>
     <use style="fill:#ff0000;stroke:#ff0000;" x="283.153846" xlink:href="#md3c8acb61c" y="143.132918"/>
     <use style="fill:#ff0000;stroke:#ff0000;" x="297.461538" xlink:href="#md3c8acb61c" y="168.314039"/>
     <use style="fill:#ff0000;stroke:#ff0000;" x="311.769231" xlink:href="#md3c8acb61c" y="155.537871"/>
     <use style="fill:#ff0000;stroke:#ff0000;" x="326.076923" xlink:href="#md3c8acb61c" y="150.481849"/>
     <use style="fill:#ff0000;stroke:#ff0000;" x="340.384615" xlink:href="#md3c8acb61c" y="133.875325"/>
     <use style="fill:#ff0000;stroke:#ff0000;" x="354.692308" xlink:href="#md3c8acb61c" y="128.456967"/>
     <use style="fill:#ff0000;stroke:#ff0000;" x="369" xlink:href="#md3c8acb61c" y="149.954638"/>
     <use style="fill:#ff0000;stroke:#ff0000;" x="383.307692" xlink:href="#md3c8acb61c" y="120.861419"/>
     <use style="fill:#ff0000;stroke:#ff0000;" x="397.615385" xlink:href="#md3c8acb61c" y="132.097373"/>
     <use style="fill:#ff0000;stroke:#ff0000;" x="411.923077" xlink:href="#md3c8acb61c" y="136.076529"/>
     <use style="fill:#ff0000;stroke:#ff0000;" x="426.230769" xlink:href="#md3c8acb61c" y="113.146758"/>
     <use style="fill:#ff0000;stroke:#ff0000;" x="440.538462" xlink:href="#md3c8acb61c" y="110.250373"/>
     <use style="fill:#ff0000;stroke:#ff0000;" x="454.846154" xlink:href="#md3c8acb61c" y="122.302355"/>
     <use style="fill:#ff0000;stroke:#ff0000;" x="469.153846" xlink:href="#md3c8acb61c" y="118.863444"/>
     <use style="fill:#ff0000;stroke:#ff0000;" x="483.461538" xlink:href="#md3c8acb61c" y="108.15034"/>
     <use style="fill:#ff0000;stroke:#ff0000;" x="497.769231" xlink:href="#md3c8acb61c" y="104.261994"/>
     <use style="fill:#ff0000;stroke:#ff0000;" x="512.076923" xlink:href="#md3c8acb61c" y="105.035829"/>
     <use style="fill:#ff0000;stroke:#ff0000;" x="526.384615" xlink:href="#md3c8acb61c" y="100.911954"/>
     <use style="fill:#ff0000;stroke:#ff0000;" x="540.692308" xlink:href="#md3c8acb61c" y="101.104854"/>
     <use style="fill:#ff0000;stroke:#ff0000;" x="555" xlink:href="#md3c8acb61c" y="98.967585"/>
     <use style="fill:#ff0000;stroke:#ff0000;" x="569.307692" xlink:href="#md3c8acb61c" y="95.309513"/>
     <use style="fill:#ff0000;stroke:#ff0000;" x="583.615385" xlink:href="#md3c8acb61c" y="94.686213"/>
     <use style="fill:#ff0000;stroke:#ff0000;" x="597.923077" xlink:href="#md3c8acb61c" y="92.393572"/>
     <use style="fill:#ff0000;stroke:#ff0000;" x="612.230769" xlink:href="#md3c8acb61c" y="91.669162"/>
     <use style="fill:#ff0000;stroke:#ff0000;" x="626.538462" xlink:href="#md3c8acb61c" y="90.456084"/>
     <use style="fill:#ff0000;stroke:#ff0000;" x="640.846154" xlink:href="#md3c8acb61c" y="88.363297"/>
    </g>
   </g>
   <g id="line2d_15">
    <g clip-path="url(#pb12e04d64c)">
     <use style="fill:#ff0000;stroke:#ff0000;" x="97.153846" xlink:href="#md3c8acb61c" y="101.730474"/>
     <use style="fill:#ff0000;stroke:#ff0000;" x="111.461538" xlink:href="#md3c8acb61c" y="106.481628"/>
     <use style="fill:#ff0000;stroke:#ff0000;" x="125.769231" xlink:href="#md3c8acb61c" y="99.462904"/>
     <use style="fill:#ff0000;stroke:#ff0000;" x="140.076923" xlink:href="#md3c8acb61c" y="108.130509"/>
     <use style="fill:#ff0000;stroke:#ff0000;" x="154.384615" xlink:href="#md3c8acb61c" y="119.841024"/>
     <use style="fill:#ff0000;stroke:#ff0000;" x="168.692308" xlink:href="#md3c8acb61c" y="112.715667"/>
     <use style="fill:#ff0000;stroke:#ff0000;" x="183" xlink:href="#md3c8acb61c" y="111.332616"/>
     <use style="fill:#ff0000;stroke:#ff0000;" x="197.307692" xlink:href="#md3c8acb61c" y="103.043352"/>
     <use style="fill:#ff0000;stroke:#ff0000;" x="211.615385" xlink:href="#md3c8acb61c" y="112.852129"/>
     <use style="fill:#ff0000;stroke:#ff0000;" x="225.923077" xlink:href="#md3c8acb61c" y="120.741596"/>
     <use style="fill:#ff0000;stroke:#ff0000;" x="240.230769" xlink:href="#md3c8acb61c" y="114.942524"/>
     <use style="fill:#ff0000;stroke:#ff0000;" x="254.538462" xlink:href="#md3c8acb61c" y="111.524637"/>
     <use style="fill:#ff0000;stroke:#ff0000;" x="268.846154" xlink:href="#md3c8acb61c" y="117.95123"/>
     <use style="fill:#ff0000;stroke:#ff0000;" x="283.153846" xlink:href="#md3c8acb61c" y="121.161492"/>
     <use style="fill:#ff0000;stroke:#ff0000;" x="297.461538" xlink:href="#md3c8acb61c" y="140.556373"/>
     <use style="fill:#ff0000;stroke:#ff0000;" x="311.769231" xlink:href="#md3c8acb61c" y="134.149136"/>
     <use style="fill:#ff0000;stroke:#ff0000;" x="326.076923" xlink:href="#md3c8acb61c" y="126.898242"/>
     <use style="fill:#ff0000;stroke:#ff0000;" x="340.384615" xlink:href="#md3c8acb61c" y="113.098744"/>
     <use style="fill:#ff0000;stroke:#ff0000;" x="354.692308" xlink:href="#md3c8acb61c" y="110.985857"/>
     <use style="fill:#ff0000;stroke:#ff0000;" x="369" xlink:href="#md3c8acb61c" y="130.185279"/>
     <use style="fill:#ff0000;stroke:#ff0000;" x="383.307692" xlink:href="#md3c8acb61c" y="105.56804"/>
     <use style="fill:#ff0000;stroke:#ff0000;" x="397.615385" xlink:href="#md3c8acb61c" y="113.74185"/>
     <use style="fill:#ff0000;stroke:#ff0000;" x="411.923077" xlink:href="#md3c8acb61c" y="120.775627"/>
     <use style="fill:#ff0000;stroke:#ff0000;" x="426.230769" xlink:href="#md3c8acb61c" y="101.733891"/>
     <use style="fill:#ff0000;stroke:#ff0000;" x="440.538462" xlink:href="#md3c8acb61c" y="99.590509"/>
     <use style="fill:#ff0000;stroke:#ff0000;" x="454.846154" xlink:href="#md3c8acb61c" y="109.869741"/>
     <use style="fill:#ff0000;stroke:#ff0000;" x="469.153846" xlink:href="#md3c8acb61c" y="109.303866"/>
     <use style="fill:#ff0000;stroke:#ff0000;" x="483.461538" xlink:href="#md3c8acb61c" y="100.309923"/>
     <use style="fill:#ff0000;stroke:#ff0000;" x="497.769231" xlink:href="#md3c8acb61c" y="97.63568"/>
     <use style="fill:#ff0000;stroke:#ff0000;" x="512.076923" xlink:href="#md3c8acb61c" y="98.857774"/>
     <use style="fill:#ff0000;stroke:#ff0000;" x="526.384615" xlink:href="#md3c8acb61c" y="95.865156"/>
     <use style="fill:#ff0000;stroke:#ff0000;" x="540.692308" xlink:href="#md3c8acb61c" y="96.460197"/>
     <use style="fill:#ff0000;stroke:#ff0000;" x="555" xlink:href="#md3c8acb61c" y="95.193141"/>
     <use style="fill:#ff0000;stroke:#ff0000;" x="569.307692" xlink:href="#md3c8acb61c" y="92.622482"/>
     <use style="fill:#ff0000;stroke:#ff0000;" x="583.615385" xlink:href="#md3c8acb61c" y="92.441686"/>
     <use style="fill:#ff0000;stroke:#ff0000;" x="597.923077" xlink:href="#md3c8acb61c" y="90.878337"/>
     <use style="fill:#ff0000;stroke:#ff0000;" x="612.230769" xlink:href="#md3c8acb61c" y="90.569414"/>
     <use style="fill:#ff0000;stroke:#ff0000;" x="626.538462" xlink:href="#md3c8acb61c" y="89.776044"/>
     <use style="fill:#ff0000;stroke:#ff0000;" x="640.846154" xlink:href="#md3c8acb61c" y="88.169328"/>
    </g>
   </g>
   <g id="line2d_16">
    <path clip-path="url(#pb12e04d64c)" d="M 90 191.520998 
L 104.307692 191.520998 
L 104.307692 202.98489 
L 118.615385 202.98489 
L 118.615385 181.359445 
L 132.923077 181.359445 
L 132.923077 164.24638 
L 147.230769 164.24638 
L 147.230769 218.113089 
L 161.538462 218.113089 
L 161.538462 166.185581 
L 175.846154 166.185581 
L 175.846154 155.437152 
L 190.153846 155.437152 
L 190.153846 122.482591 
L 204.461538 122.482591 
L 204.461538 127.227391 
L 218.769231 127.227391 
L 218.769231 159.192363 
L 233.076923 159.192363 
L 233.076923 169.062941 
L 247.384615 169.062941 
L 247.384615 153.074067 
L 261.692308 153.074067 
L 261.692308 170.446068 
L 276 170.446068 
L 276 176.302679 
L 290.307692 176.302679 
L 290.307692 197.374805 
L 304.615385 197.374805 
L 304.615385 158.1177 
L 318.923077 158.1177 
L 318.923077 161.225902 
L 333.230769 161.225902 
L 333.230769 164.951867 
L 347.538462 164.951867 
L 347.538462 134.601925 
L 361.846154 134.601925 
L 361.846154 164.311314 
L 376.153846 164.311314 
L 376.153846 144.755597 
L 390.461538 144.755597 
L 390.461538 150.693452 
L 404.769231 150.693452 
L 404.769231 151.267713 
L 419.076923 151.267713 
L 419.076923 128.847614 
L 433.384615 128.847614 
L 433.384615 127.311754 
L 447.692308 127.311754 
L 447.692308 141.169761 
L 462 141.169761 
L 462 134.830556 
L 476.307692 134.830556 
L 476.307692 123.377687 
L 490.615385 123.377687 
L 490.615385 120.801412 
L 504.923077 120.801412 
L 504.923077 124.725108 
L 519.230769 124.725108 
L 519.230769 119.034989 
L 533.538462 119.034989 
L 533.538462 114.738251 
L 547.846154 114.738251 
L 547.846154 112.557577 
L 562.153846 112.557577 
L 562.153846 108.858668 
L 576.461538 108.858668 
L 576.461538 107.19017 
L 590.769231 107.19017 
L 590.769231 104.477454 
L 605.076923 104.477454 
L 605.076923 101.456584 
L 619.384615 101.456584 
L 619.384615 97.614931 
L 633.692308 97.614931 
L 633.692308 90.570129 
L 648 90.570129 
" style="fill:none;stroke:#0000ff;stroke-linecap:square;stroke-width:1.5;"/>
   </g>
   <g id="line2d_17">
    <defs>
     <path d="M 2 0 
L -2 -0 
" id="mf79635553f" style="stroke:#0000ff;"/>
    </defs>
    <g clip-path="url(#pb12e04d64c)">
     <use style="fill:#0000ff;stroke:#0000ff;" x="97.153846" xlink:href="#mf79635553f" y="207.273335"/>
     <use style="fill:#0000ff;stroke:#0000ff;" x="111.461538" xlink:href="#mf79635553f" y="224.567684"/>
     <use style="fill:#0000ff;stroke:#0000ff;" x="125.769231" xlink:href="#mf79635553f" y="198.679372"/>
     <use style="fill:#0000ff;stroke:#0000ff;" x="140.076923" xlink:href="#mf79635553f" y="180.232349"/>
     <use style="fill:#0000ff;stroke:#0000ff;" x="154.384615" xlink:href="#mf79635553f" y="237.562501"/>
     <use style="fill:#0000ff;stroke:#0000ff;" x="168.692308" xlink:href="#mf79635553f" y="184.802408"/>
     <use style="fill:#0000ff;stroke:#0000ff;" x="183" xlink:href="#mf79635553f" y="169.597589"/>
     <use style="fill:#0000ff;stroke:#0000ff;" x="197.307692" xlink:href="#mf79635553f" y="133.994521"/>
     <use style="fill:#0000ff;stroke:#0000ff;" x="211.615385" xlink:href="#mf79635553f" y="137.971588"/>
     <use style="fill:#0000ff;stroke:#0000ff;" x="225.923077" xlink:href="#mf79635553f" y="173.7778"/>
     <use style="fill:#0000ff;stroke:#0000ff;" x="240.230769" xlink:href="#mf79635553f" y="185.10684"/>
     <use style="fill:#0000ff;stroke:#0000ff;" x="254.538462" xlink:href="#mf79635553f" y="167.452469"/>
     <use style="fill:#0000ff;stroke:#0000ff;" x="268.846154" xlink:href="#mf79635553f" y="184.861387"/>
     <use style="fill:#0000ff;stroke:#0000ff;" x="283.153846" xlink:href="#mf79635553f" y="189.810505"/>
     <use style="fill:#0000ff;stroke:#0000ff;" x="297.461538" xlink:href="#mf79635553f" y="212.836028"/>
     <use style="fill:#0000ff;stroke:#0000ff;" x="311.769231" xlink:href="#mf79635553f" y="169.943123"/>
     <use style="fill:#0000ff;stroke:#0000ff;" x="326.076923" xlink:href="#mf79635553f" y="174.779044"/>
     <use style="fill:#0000ff;stroke:#0000ff;" x="340.384615" xlink:href="#mf79635553f" y="178.210701"/>
     <use style="fill:#0000ff;stroke:#0000ff;" x="354.692308" xlink:href="#mf79635553f" y="144.960007"/>
     <use style="fill:#0000ff;stroke:#0000ff;" x="369" xlink:href="#mf79635553f" y="175.797776"/>
     <use style="fill:#0000ff;stroke:#0000ff;" x="383.307692" xlink:href="#mf79635553f" y="155.174419"/>
     <use style="fill:#0000ff;stroke:#0000ff;" x="397.615385" xlink:href="#mf79635553f" y="162.117649"/>
     <use style="fill:#0000ff;stroke:#0000ff;" x="411.923077" xlink:href="#mf79635553f" y="160.481447"/>
     <use style="fill:#0000ff;stroke:#0000ff;" x="426.230769" xlink:href="#mf79635553f" y="136.675851"/>
     <use style="fill:#0000ff;stroke:#0000ff;" x="440.538462" xlink:href="#mf79635553f" y="134.922496"/>
     <use style="fill:#0000ff;stroke:#0000ff;" x="454.846154" xlink:href="#mf79635553f" y="149.235512"/>
     <use style="fill:#0000ff;stroke:#0000ff;" x="469.153846" xlink:href="#mf79635553f" y="141.013631"/>
     <use style="fill:#0000ff;stroke:#0000ff;" x="483.461538" xlink:href="#mf79635553f" y="128.909563"/>
     <use style="fill:#0000ff;stroke:#0000ff;" x="497.769231" xlink:href="#mf79635553f" y="125.787657"/>
     <use style="fill:#0000ff;stroke:#0000ff;" x="512.076923" xlink:href="#mf79635553f" y="129.456204"/>
     <use style="fill:#0000ff;stroke:#0000ff;" x="526.384615" xlink:href="#mf79635553f" y="123.126362"/>
     <use style="fill:#0000ff;stroke:#0000ff;" x="540.692308" xlink:href="#mf79635553f" y="118.251325"/>
     <use style="fill:#0000ff;stroke:#0000ff;" x="555" xlink:href="#mf79635553f" y="115.532873"/>
     <use style="fill:#0000ff;stroke:#0000ff;" x="569.307692" xlink:href="#mf79635553f" y="111.239222"/>
     <use style="fill:#0000ff;stroke:#0000ff;" x="583.615385" xlink:href="#mf79635553f" y="109.17657"/>
     <use style="fill:#0000ff;stroke:#0000ff;" x="597.923077" xlink:href="#mf79635553f" y="105.997254"/>
     <use style="fill:#0000ff;stroke:#0000ff;" x="612.230769" xlink:href="#mf79635553f" y="102.536787"/>
     <use style="fill:#0000ff;stroke:#0000ff;" x="626.538462" xlink:href="#mf79635553f" y="98.296677"/>
     <use style="fill:#0000ff;stroke:#0000ff;" x="640.846154" xlink:href="#mf79635553f" y="90.794408"/>
    </g>
   </g>
   <g id="line2d_18">
    <g clip-path="url(#pb12e04d64c)">
     <use style="fill:#0000ff;stroke:#0000ff;" x="97.153846" xlink:href="#mf79635553f" y="175.768661"/>
     <use style="fill:#0000ff;stroke:#0000ff;" x="111.461538" xlink:href="#mf79635553f" y="181.402096"/>
     <use style="fill:#0000ff;stroke:#0000ff;" x="125.769231" xlink:href="#mf79635553f" y="164.039517"/>
     <use style="fill:#0000ff;stroke:#0000ff;" x="140.076923" xlink:href="#mf79635553f" y="148.260411"/>
     <use style="fill:#0000ff;stroke:#0000ff;" x="154.384615" xlink:href="#mf79635553f" y="198.663677"/>
     <use style="fill:#0000ff;stroke:#0000ff;" x="168.692308" xlink:href="#mf79635553f" y="147.568754"/>
     <use style="fill:#0000ff;stroke:#0000ff;" x="183" xlink:href="#mf79635553f" y="141.276715"/>
     <use style="fill:#0000ff;stroke:#0000ff;" x="197.307692" xlink:href="#mf79635553f" y="110.970661"/>
     <use style="fill:#0000ff;stroke:#0000ff;" x="211.615385" xlink:href="#mf79635553f" y="116.483194"/>
     <use style="fill:#0000ff;stroke:#0000ff;" x="225.923077" xlink:href="#mf79635553f" y="144.606925"/>
     <use style="fill:#0000ff;stroke:#0000ff;" x="240.230769" xlink:href="#mf79635553f" y="153.019043"/>
     <use style="fill:#0000ff;stroke:#0000ff;" x="254.538462" xlink:href="#mf79635553f" y="138.695666"/>
     <use style="fill:#0000ff;stroke:#0000ff;" x="268.846154" xlink:href="#mf79635553f" y="156.030749"/>
     <use style="fill:#0000ff;stroke:#0000ff;" x="283.153846" xlink:href="#mf79635553f" y="162.794852"/>
     <use style="fill:#0000ff;stroke:#0000ff;" x="297.461538" xlink:href="#mf79635553f" y="181.913581"/>
     <use style="fill:#0000ff;stroke:#0000ff;" x="311.769231" xlink:href="#mf79635553f" y="146.292277"/>
     <use style="fill:#0000ff;stroke:#0000ff;" x="326.076923" xlink:href="#mf79635553f" y="147.672759"/>
     <use style="fill:#0000ff;stroke:#0000ff;" x="340.384615" xlink:href="#mf79635553f" y="151.693033"/>
     <use style="fill:#0000ff;stroke:#0000ff;" x="354.692308" xlink:href="#mf79635553f" y="124.243844"/>
     <use style="fill:#0000ff;stroke:#0000ff;" x="369" xlink:href="#mf79635553f" y="152.824851"/>
     <use style="fill:#0000ff;stroke:#0000ff;" x="383.307692" xlink:href="#mf79635553f" y="134.336775"/>
     <use style="fill:#0000ff;stroke:#0000ff;" x="397.615385" xlink:href="#mf79635553f" y="139.269256"/>
     <use style="fill:#0000ff;stroke:#0000ff;" x="411.923077" xlink:href="#mf79635553f" y="142.05398"/>
     <use style="fill:#0000ff;stroke:#0000ff;" x="426.230769" xlink:href="#mf79635553f" y="121.019377"/>
     <use style="fill:#0000ff;stroke:#0000ff;" x="440.538462" xlink:href="#mf79635553f" y="119.701012"/>
     <use style="fill:#0000ff;stroke:#0000ff;" x="454.846154" xlink:href="#mf79635553f" y="133.104009"/>
     <use style="fill:#0000ff;stroke:#0000ff;" x="469.153846" xlink:href="#mf79635553f" y="128.64748"/>
     <use style="fill:#0000ff;stroke:#0000ff;" x="483.461538" xlink:href="#mf79635553f" y="117.845811"/>
     <use style="fill:#0000ff;stroke:#0000ff;" x="497.769231" xlink:href="#mf79635553f" y="115.815166"/>
     <use style="fill:#0000ff;stroke:#0000ff;" x="512.076923" xlink:href="#mf79635553f" y="119.994012"/>
     <use style="fill:#0000ff;stroke:#0000ff;" x="526.384615" xlink:href="#mf79635553f" y="114.943615"/>
     <use style="fill:#0000ff;stroke:#0000ff;" x="540.692308" xlink:href="#mf79635553f" y="111.225177"/>
     <use style="fill:#0000ff;stroke:#0000ff;" x="555" xlink:href="#mf79635553f" y="109.582282"/>
     <use style="fill:#0000ff;stroke:#0000ff;" x="569.307692" xlink:href="#mf79635553f" y="106.478114"/>
     <use style="fill:#0000ff;stroke:#0000ff;" x="583.615385" xlink:href="#mf79635553f" y="105.20377"/>
     <use style="fill:#0000ff;stroke:#0000ff;" x="597.923077" xlink:href="#mf79635553f" y="102.957654"/>
     <use style="fill:#0000ff;stroke:#0000ff;" x="612.230769" xlink:href="#mf79635553f" y="100.376381"/>
     <use style="fill:#0000ff;stroke:#0000ff;" x="626.538462" xlink:href="#mf79635553f" y="96.933186"/>
     <use style="fill:#0000ff;stroke:#0000ff;" x="640.846154" xlink:href="#mf79635553f" y="90.34585"/>
    </g>
   </g>
   <g id="patch_3">
    <path d="M 90 334.0008 
L 90 85.2768 
" style="fill:none;stroke:#000000;stroke-linecap:square;stroke-linejoin:miter;stroke-width:0.8;"/>
   </g>
   <g id="patch_4">
    <path d="M 648 334.0008 
L 648 85.2768 
" style="fill:none;stroke:#000000;stroke-linecap:square;stroke-linejoin:miter;stroke-width:0.8;"/>
   </g>
   <g id="patch_5">
    <path d="M 90 334.0008 
L 648 334.0008 
" style="fill:none;stroke:#000000;stroke-linecap:square;stroke-linejoin:miter;stroke-width:0.8;"/>
   </g>
   <g id="patch_6">
    <path d="M 90 85.2768 
L 648 85.2768 
" style="fill:none;stroke:#000000;stroke-linecap:square;stroke-linejoin:miter;stroke-width:0.8;"/>
   </g>
   <g id="legend_1">
    <g id="patch_7">
     <path d="M 266.025938 325.0008 
L 471.974063 325.0008 
Q 475.574063 325.0008 475.574063 321.4008 
L 475.574063 243.938925 
Q 475.574063 240.338925 471.974063 240.338925 
L 266.025938 240.338925 
Q 262.425938 240.338925 262.425938 243.938925 
L 262.425938 321.4008 
Q 262.425938 325.0008 266.025938 325.0008 
z
" style="fill:#ffffff;opacity:0.5;stroke:#cccccc;stroke-linejoin:miter;"/>
    </g>
    <g id="line2d_19">
     <path d="M 269.625938 254.916112 
L 305.625938 254.916112 
" style="fill:none;stroke:#008000;stroke-linecap:square;stroke-width:1.5;"/>
    </g>
    <g id="line2d_20"/>
    <g id="text_6">
     <!-- Efficiency -->
     <defs>
      <path d="M 9.8125 72.90625 
L 55.90625 72.90625 
L 55.90625 64.59375 
L 19.671875 64.59375 
L 19.671875 43.015625 
L 54.390625 43.015625 
L 54.390625 34.71875 
L 19.671875 34.71875 
L 19.671875 8.296875 
L 56.78125 8.296875 
L 56.78125 0 
L 9.8125 0 
z
" id="DejaVuSans-69"/>
      <path d="M 37.109375 75.984375 
L 37.109375 68.5 
L 28.515625 68.5 
Q 23.6875 68.5 21.796875 66.546875 
Q 19.921875 64.59375 19.921875 59.515625 
L 19.921875 54.6875 
L 34.71875 54.6875 
L 34.71875 47.703125 
L 19.921875 47.703125 
L 19.921875 0 
L 10.890625 0 
L 10.890625 47.703125 
L 2.296875 47.703125 
L 2.296875 54.6875 
L 10.890625 54.6875 
L 10.890625 58.5 
Q 10.890625 67.625 15.140625 71.796875 
Q 19.390625 75.984375 28.609375 75.984375 
z
" id="DejaVuSans-102"/>
      <path d="M 32.171875 -5.078125 
Q 28.375 -14.84375 24.75 -17.8125 
Q 21.140625 -20.796875 15.09375 -20.796875 
L 7.90625 -20.796875 
L 7.90625 -13.28125 
L 13.1875 -13.28125 
Q 16.890625 -13.28125 18.9375 -11.515625 
Q 21 -9.765625 23.484375 -3.21875 
L 25.09375 0.875 
L 2.984375 54.6875 
L 12.5 54.6875 
L 29.59375 11.921875 
L 46.6875 54.6875 
L 56.203125 54.6875 
z
" id="DejaVuSans-121"/>
     </defs>
     <g transform="translate(320.025937 261.216113)scale(0.18 -0.18)">
      <use xlink:href="#DejaVuSans-69"/>
      <use x="63.183594" xlink:href="#DejaVuSans-102"/>
      <use x="98.388672" xlink:href="#DejaVuSans-102"/>
      <use x="133.59375" xlink:href="#DejaVuSans-105"/>
      <use x="161.376953" xlink:href="#DejaVuSans-99"/>
      <use x="216.357422" xlink:href="#DejaVuSans-105"/>
      <use x="244.140625" xlink:href="#DejaVuSans-101"/>
      <use x="305.664062" xlink:href="#DejaVuSans-110"/>
      <use x="369.042969" xlink:href="#DejaVuSans-99"/>
      <use x="424.023438" xlink:href="#DejaVuSans-121"/>
     </g>
    </g>
    <g id="line2d_21">
     <path d="M 269.625938 281.336737 
L 305.625938 281.336737 
" style="fill:none;stroke:#ff0000;stroke-linecap:square;stroke-width:1.5;"/>
    </g>
    <g id="line2d_22"/>
    <g id="text_7">
     <!-- Purity -->
     <defs>
      <path d="M 19.671875 64.796875 
L 19.671875 37.40625 
L 32.078125 37.40625 
Q 38.96875 37.40625 42.71875 40.96875 
Q 46.484375 44.53125 46.484375 51.125 
Q 46.484375 57.671875 42.71875 61.234375 
Q 38.96875 64.796875 32.078125 64.796875 
z
M 9.8125 72.90625 
L 32.078125 72.90625 
Q 44.34375 72.90625 50.609375 67.359375 
Q 56.890625 61.8125 56.890625 51.125 
Q 56.890625 40.328125 50.609375 34.8125 
Q 44.34375 29.296875 32.078125 29.296875 
L 19.671875 29.296875 
L 19.671875 0 
L 9.8125 0 
z
" id="DejaVuSans-80"/>
      <path d="M 8.5 21.578125 
L 8.5 54.6875 
L 17.484375 54.6875 
L 17.484375 21.921875 
Q 17.484375 14.15625 20.5 10.265625 
Q 23.53125 6.390625 29.59375 6.390625 
Q 36.859375 6.390625 41.078125 11.03125 
Q 45.3125 15.671875 45.3125 23.6875 
L 45.3125 54.6875 
L 54.296875 54.6875 
L 54.296875 0 
L 45.3125 0 
L 45.3125 8.40625 
Q 42.046875 3.421875 37.71875 1 
Q 33.40625 -1.421875 27.6875 -1.421875 
Q 18.265625 -1.421875 13.375 4.4375 
Q 8.5 10.296875 8.5 21.578125 
z
M 31.109375 56 
z
" id="DejaVuSans-117"/>
     </defs>
     <g transform="translate(320.025937 287.636737)scale(0.18 -0.18)">
      <use xlink:href="#DejaVuSans-80"/>
      <use x="60.287109" xlink:href="#DejaVuSans-117"/>
      <use x="123.666016" xlink:href="#DejaVuSans-114"/>
      <use x="164.779297" xlink:href="#DejaVuSans-105"/>
      <use x="192.5625" xlink:href="#DejaVuSans-116"/>
      <use x="231.771484" xlink:href="#DejaVuSans-121"/>
     </g>
    </g>
    <g id="line2d_23">
     <path d="M 269.625938 307.757362 
L 305.625938 307.757362 
" style="fill:none;stroke:#0000ff;stroke-linecap:square;stroke-width:1.5;"/>
    </g>
    <g id="line2d_24"/>
    <g id="text_8">
     <!-- Purity*Efficiency -->
     <defs>
      <path d="M 47.015625 60.890625 
L 29.5 51.421875 
L 47.015625 41.890625 
L 44.1875 37.109375 
L 27.78125 47.015625 
L 27.78125 28.609375 
L 22.21875 28.609375 
L 22.21875 47.015625 
L 5.8125 37.109375 
L 2.984375 41.890625 
L 20.515625 51.421875 
L 2.984375 60.890625 
L 5.8125 65.71875 
L 22.21875 55.8125 
L 22.21875 74.21875 
L 27.78125 74.21875 
L 27.78125 55.8125 
L 44.1875 65.71875 
z
" id="DejaVuSans-42"/>
     </defs>
     <g transform="translate(320.025937 314.057363)scale(0.18 -0.18)">
      <use xlink:href="#DejaVuSans-80"/>
      <use x="60.287109" xlink:href="#DejaVuSans-117"/>
      <use x="123.666016" xlink:href="#DejaVuSans-114"/>
      <use x="164.779297" xlink:href="#DejaVuSans-105"/>
      <use x="192.5625" xlink:href="#DejaVuSans-116"/>
      <use x="231.771484" xlink:href="#DejaVuSans-121"/>
      <use x="290.951172" xlink:href="#DejaVuSans-42"/>
      <use x="340.951172" xlink:href="#DejaVuSans-69"/>
      <use x="404.134766" xlink:href="#DejaVuSans-102"/>
      <use x="439.339844" xlink:href="#DejaVuSans-102"/>
      <use x="474.544922" xlink:href="#DejaVuSans-105"/>
      <use x="502.328125" xlink:href="#DejaVuSans-99"/>
      <use x="557.308594" xlink:href="#DejaVuSans-105"/>
      <use x="585.091797" xlink:href="#DejaVuSans-101"/>
      <use x="646.615234" xlink:href="#DejaVuSans-110"/>
      <use x="709.994141" xlink:href="#DejaVuSans-99"/>
      <use x="764.974609" xlink:href="#DejaVuSans-121"/>
     </g>
    </g>
   </g>
  </g>
  <g id="axes_2">
   <g id="patch_8">
    <path d="M 90 632.4696 
L 648 632.4696 
L 648 383.7456 
L 90 383.7456 
z
" style="fill:#ffffff;"/>
   </g>
   <g id="patch_9">
    <path clip-path="url(#pce7d37eaa7)" d="M 90 55271.793132 
L 90 551.732492 
L 104.307692 551.732492 
L 104.307692 567.343649 
L 118.615385 567.343649 
L 118.615385 557.453615 
L 132.923077 557.453615 
L 132.923077 557.998999 
L 147.230769 557.998999 
L 147.230769 563.570133 
L 161.538462 563.570133 
L 161.538462 565.00834 
L 175.846154 565.00834 
L 175.846154 553.951225 
L 190.153846 553.951225 
L 190.153846 556.399079 
L 204.461538 556.399079 
L 204.461538 554.900277 
L 218.769231 554.900277 
L 218.769231 556.399079 
L 233.076923 556.399079 
L 233.076923 556.920488 
L 247.384615 556.920488 
L 247.384615 554.900277 
L 261.692308 554.900277 
L 261.692308 552.159948 
L 276 552.159948 
L 276 548.564707 
L 290.307692 548.564707 
L 290.307692 556.399079 
L 304.615385 556.399079 
L 304.615385 551.312602 
L 318.923077 551.312602 
L 318.923077 553.490566 
L 333.230769 553.490566 
L 333.230769 547.834706 
L 347.538462 547.834706 
L 347.538462 545.770523 
L 361.846154 545.770523 
L 361.846154 545.770523 
L 376.153846 545.770523 
L 376.153846 540.214718 
L 390.461538 540.214718 
L 390.461538 544.487878 
L 404.769231 544.487878 
L 404.769231 536.151614 
L 419.076923 536.151614 
L 419.076923 532.307139 
L 433.384615 532.307139 
L 433.384615 531.21203 
L 447.692308 531.21203 
L 447.692308 530.165251 
L 462 530.165251 
L 462 520.151417 
L 476.307692 520.151417 
L 476.307692 518.425336 
L 490.615385 518.425336 
L 490.615385 514.414313 
L 504.923077 514.414313 
L 504.923077 509.943083 
L 519.230769 509.943083 
L 519.230769 505.812694 
L 533.538462 505.812694 
L 533.538462 501.929736 
L 547.846154 501.929736 
L 547.846154 495.590111 
L 562.153846 495.590111 
L 562.153846 488.002896 
L 576.461538 488.002896 
L 576.461538 481.221501 
L 590.769231 481.221501 
L 590.769231 471.58814 
L 605.076923 471.58814 
L 605.076923 459.772181 
L 619.384615 459.772181 
L 619.384615 445.28125 
L 633.692308 445.28125 
L 633.692308 395.051236 
L 648 395.051236 
L 648 55271.793132 
z
" style="fill:#1f77b4;opacity:0.2;"/>
   </g>
   <g id="matplotlib.axis_3">
    <g id="xtick_7">
     <g id="line2d_25">
      <g>
       <use style="stroke:#000000;stroke-width:0.8;" x="90" xlink:href="#mb5ff1846e5" y="632.4696"/>
      </g>
     </g>
     <g id="text_9">
      <!-- 0.0 -->
      <g transform="translate(69.38955 659.16475)scale(0.2592 -0.2592)">
       <use xlink:href="#DejaVuSans-48"/>
       <use x="63.623047" xlink:href="#DejaVuSans-46"/>
       <use x="95.410156" xlink:href="#DejaVuSans-48"/>
      </g>
     </g>
    </g>
    <g id="xtick_8">
     <g id="line2d_26">
      <g>
       <use style="stroke:#000000;stroke-width:0.8;" x="201.6" xlink:href="#mb5ff1846e5" y="632.4696"/>
      </g>
     </g>
     <g id="text_10">
      <!-- 0.2 -->
      <defs>
       <path d="M 19.1875 8.296875 
L 53.609375 8.296875 
L 53.609375 0 
L 7.328125 0 
L 7.328125 8.296875 
Q 12.9375 14.109375 22.625 23.890625 
Q 32.328125 33.6875 34.8125 36.53125 
Q 39.546875 41.84375 41.421875 45.53125 
Q 43.3125 49.21875 43.3125 52.78125 
Q 43.3125 58.59375 39.234375 62.25 
Q 35.15625 65.921875 28.609375 65.921875 
Q 23.96875 65.921875 18.8125 64.3125 
Q 13.671875 62.703125 7.8125 59.421875 
L 7.8125 69.390625 
Q 13.765625 71.78125 18.9375 73 
Q 24.125 74.21875 28.421875 74.21875 
Q 39.75 74.21875 46.484375 68.546875 
Q 53.21875 62.890625 53.21875 53.421875 
Q 53.21875 48.921875 51.53125 44.890625 
Q 49.859375 40.875 45.40625 35.40625 
Q 44.1875 33.984375 37.640625 27.21875 
Q 31.109375 20.453125 19.1875 8.296875 
z
" id="DejaVuSans-50"/>
      </defs>
      <g transform="translate(180.98955 659.16475)scale(0.2592 -0.2592)">
       <use xlink:href="#DejaVuSans-48"/>
       <use x="63.623047" xlink:href="#DejaVuSans-46"/>
       <use x="95.410156" xlink:href="#DejaVuSans-50"/>
      </g>
     </g>
    </g>
    <g id="xtick_9">
     <g id="line2d_27">
      <g>
       <use style="stroke:#000000;stroke-width:0.8;" x="313.2" xlink:href="#mb5ff1846e5" y="632.4696"/>
      </g>
     </g>
     <g id="text_11">
      <!-- 0.4 -->
      <defs>
       <path d="M 37.796875 64.3125 
L 12.890625 25.390625 
L 37.796875 25.390625 
z
M 35.203125 72.90625 
L 47.609375 72.90625 
L 47.609375 25.390625 
L 58.015625 25.390625 
L 58.015625 17.1875 
L 47.609375 17.1875 
L 47.609375 0 
L 37.796875 0 
L 37.796875 17.1875 
L 4.890625 17.1875 
L 4.890625 26.703125 
z
" id="DejaVuSans-52"/>
      </defs>
      <g transform="translate(292.58955 659.16475)scale(0.2592 -0.2592)">
       <use xlink:href="#DejaVuSans-48"/>
       <use x="63.623047" xlink:href="#DejaVuSans-46"/>
       <use x="95.410156" xlink:href="#DejaVuSans-52"/>
      </g>
     </g>
    </g>
    <g id="xtick_10">
     <g id="line2d_28">
      <g>
       <use style="stroke:#000000;stroke-width:0.8;" x="424.8" xlink:href="#mb5ff1846e5" y="632.4696"/>
      </g>
     </g>
     <g id="text_12">
      <!-- 0.6 -->
      <defs>
       <path d="M 33.015625 40.375 
Q 26.375 40.375 22.484375 35.828125 
Q 18.609375 31.296875 18.609375 23.390625 
Q 18.609375 15.53125 22.484375 10.953125 
Q 26.375 6.390625 33.015625 6.390625 
Q 39.65625 6.390625 43.53125 10.953125 
Q 47.40625 15.53125 47.40625 23.390625 
Q 47.40625 31.296875 43.53125 35.828125 
Q 39.65625 40.375 33.015625 40.375 
z
M 52.59375 71.296875 
L 52.59375 62.3125 
Q 48.875 64.0625 45.09375 64.984375 
Q 41.3125 65.921875 37.59375 65.921875 
Q 27.828125 65.921875 22.671875 59.328125 
Q 17.53125 52.734375 16.796875 39.40625 
Q 19.671875 43.65625 24.015625 45.921875 
Q 28.375 48.1875 33.59375 48.1875 
Q 44.578125 48.1875 50.953125 41.515625 
Q 57.328125 34.859375 57.328125 23.390625 
Q 57.328125 12.15625 50.6875 5.359375 
Q 44.046875 -1.421875 33.015625 -1.421875 
Q 20.359375 -1.421875 13.671875 8.265625 
Q 6.984375 17.96875 6.984375 36.375 
Q 6.984375 53.65625 15.1875 63.9375 
Q 23.390625 74.21875 37.203125 74.21875 
Q 40.921875 74.21875 44.703125 73.484375 
Q 48.484375 72.75 52.59375 71.296875 
z
" id="DejaVuSans-54"/>
      </defs>
      <g transform="translate(404.18955 659.16475)scale(0.2592 -0.2592)">
       <use xlink:href="#DejaVuSans-48"/>
       <use x="63.623047" xlink:href="#DejaVuSans-46"/>
       <use x="95.410156" xlink:href="#DejaVuSans-54"/>
      </g>
     </g>
    </g>
    <g id="xtick_11">
     <g id="line2d_29">
      <g>
       <use style="stroke:#000000;stroke-width:0.8;" x="536.4" xlink:href="#mb5ff1846e5" y="632.4696"/>
      </g>
     </g>
     <g id="text_13">
      <!-- 0.8 -->
      <defs>
       <path d="M 31.78125 34.625 
Q 24.75 34.625 20.71875 30.859375 
Q 16.703125 27.09375 16.703125 20.515625 
Q 16.703125 13.921875 20.71875 10.15625 
Q 24.75 6.390625 31.78125 6.390625 
Q 38.8125 6.390625 42.859375 10.171875 
Q 46.921875 13.96875 46.921875 20.515625 
Q 46.921875 27.09375 42.890625 30.859375 
Q 38.875 34.625 31.78125 34.625 
z
M 21.921875 38.8125 
Q 15.578125 40.375 12.03125 44.71875 
Q 8.5 49.078125 8.5 55.328125 
Q 8.5 64.0625 14.71875 69.140625 
Q 20.953125 74.21875 31.78125 74.21875 
Q 42.671875 74.21875 48.875 69.140625 
Q 55.078125 64.0625 55.078125 55.328125 
Q 55.078125 49.078125 51.53125 44.71875 
Q 48 40.375 41.703125 38.8125 
Q 48.828125 37.15625 52.796875 32.3125 
Q 56.78125 27.484375 56.78125 20.515625 
Q 56.78125 9.90625 50.3125 4.234375 
Q 43.84375 -1.421875 31.78125 -1.421875 
Q 19.734375 -1.421875 13.25 4.234375 
Q 6.78125 9.90625 6.78125 20.515625 
Q 6.78125 27.484375 10.78125 32.3125 
Q 14.796875 37.15625 21.921875 38.8125 
z
M 18.3125 54.390625 
Q 18.3125 48.734375 21.84375 45.5625 
Q 25.390625 42.390625 31.78125 42.390625 
Q 38.140625 42.390625 41.71875 45.5625 
Q 45.3125 48.734375 45.3125 54.390625 
Q 45.3125 60.0625 41.71875 63.234375 
Q 38.140625 66.40625 31.78125 66.40625 
Q 25.390625 66.40625 21.84375 63.234375 
Q 18.3125 60.0625 18.3125 54.390625 
z
" id="DejaVuSans-56"/>
      </defs>
      <g transform="translate(515.78955 659.16475)scale(0.2592 -0.2592)">
       <use xlink:href="#DejaVuSans-48"/>
       <use x="63.623047" xlink:href="#DejaVuSans-46"/>
       <use x="95.410156" xlink:href="#DejaVuSans-56"/>
      </g>
     </g>
    </g>
    <g id="xtick_12">
     <g id="line2d_30">
      <g>
       <use style="stroke:#000000;stroke-width:0.8;" x="648" xlink:href="#mb5ff1846e5" y="632.4696"/>
      </g>
     </g>
     <g id="text_14">
      <!-- 1.0 -->
      <g transform="translate(627.38955 659.16475)scale(0.2592 -0.2592)">
       <use xlink:href="#DejaVuSans-49"/>
       <use x="63.623047" xlink:href="#DejaVuSans-46"/>
       <use x="95.410156" xlink:href="#DejaVuSans-48"/>
      </g>
     </g>
    </g>
    <g id="text_15">
     <!-- completenessW -->
     <g transform="translate(265.957875 688.25045)scale(0.2592 -0.2592)">
      <use xlink:href="#DejaVuSans-99"/>
      <use x="54.980469" xlink:href="#DejaVuSans-111"/>
      <use x="116.162109" xlink:href="#DejaVuSans-109"/>
      <use x="213.574219" xlink:href="#DejaVuSans-112"/>
      <use x="277.050781" xlink:href="#DejaVuSans-108"/>
      <use x="304.833984" xlink:href="#DejaVuSans-101"/>
      <use x="366.357422" xlink:href="#DejaVuSans-116"/>
      <use x="405.566406" xlink:href="#DejaVuSans-101"/>
      <use x="467.089844" xlink:href="#DejaVuSans-110"/>
      <use x="530.46875" xlink:href="#DejaVuSans-101"/>
      <use x="591.992188" xlink:href="#DejaVuSans-115"/>
      <use x="644.091797" xlink:href="#DejaVuSans-115"/>
      <use x="696.191406" xlink:href="#DejaVuSans-87"/>
     </g>
    </g>
   </g>
   <g id="matplotlib.axis_4">
    <g id="ytick_4">
     <g id="line2d_31">
      <g>
       <use style="stroke:#000000;stroke-width:0.8;" x="90" xlink:href="#m3aaa70606a" y="537.977372"/>
      </g>
     </g>
     <g id="text_16">
      <!-- $\mathdefault{10^{2}}$ -->
      <g transform="translate(37.3808 547.824947)scale(0.2592 -0.2592)">
       <use transform="translate(0 0.765625)" xlink:href="#DejaVuSans-49"/>
       <use transform="translate(63.623047 0.765625)" xlink:href="#DejaVuSans-48"/>
       <use transform="translate(128.203125 39.046875)scale(0.7)" xlink:href="#DejaVuSans-50"/>
      </g>
     </g>
    </g>
    <g id="ytick_5">
     <g id="line2d_32">
      <g>
       <use style="stroke:#000000;stroke-width:0.8;" x="90" xlink:href="#m3aaa70606a" y="428.728239"/>
      </g>
     </g>
     <g id="text_17">
      <!-- $\mathdefault{10^{4}}$ -->
      <g transform="translate(37.3808 438.575814)scale(0.2592 -0.2592)">
       <use transform="translate(0 0.684375)" xlink:href="#DejaVuSans-49"/>
       <use transform="translate(63.623047 0.684375)" xlink:href="#DejaVuSans-48"/>
       <use transform="translate(128.203125 38.965625)scale(0.7)" xlink:href="#DejaVuSans-52"/>
      </g>
     </g>
    </g>
    <g id="text_18">
     <!-- Count -->
     <defs>
      <path d="M 64.40625 67.28125 
L 64.40625 56.890625 
Q 59.421875 61.53125 53.78125 63.8125 
Q 48.140625 66.109375 41.796875 66.109375 
Q 29.296875 66.109375 22.65625 58.46875 
Q 16.015625 50.828125 16.015625 36.375 
Q 16.015625 21.96875 22.65625 14.328125 
Q 29.296875 6.6875 41.796875 6.6875 
Q 48.140625 6.6875 53.78125 8.984375 
Q 59.421875 11.28125 64.40625 15.921875 
L 64.40625 5.609375 
Q 59.234375 2.09375 53.4375 0.328125 
Q 47.65625 -1.421875 41.21875 -1.421875 
Q 24.65625 -1.421875 15.125 8.703125 
Q 5.609375 18.84375 5.609375 36.375 
Q 5.609375 53.953125 15.125 64.078125 
Q 24.65625 74.21875 41.21875 74.21875 
Q 47.75 74.21875 53.53125 72.484375 
Q 59.328125 70.75 64.40625 67.28125 
z
" id="DejaVuSans-67"/>
     </defs>
     <g transform="translate(27.99025 546.59475)rotate(-90)scale(0.2592 -0.2592)">
      <use xlink:href="#DejaVuSans-67"/>
      <use x="69.824219" xlink:href="#DejaVuSans-111"/>
      <use x="131.005859" xlink:href="#DejaVuSans-117"/>
      <use x="194.384766" xlink:href="#DejaVuSans-110"/>
      <use x="257.763672" xlink:href="#DejaVuSans-116"/>
     </g>
    </g>
   </g>
   <g id="line2d_33">
    <path clip-path="url(#pce7d37eaa7)" d="M 90 551.732492 
L 104.307692 551.732492 
L 104.307692 567.343649 
L 118.615385 567.343649 
L 118.615385 557.453615 
L 132.923077 557.453615 
L 132.923077 557.998999 
L 147.230769 557.998999 
L 147.230769 563.570133 
L 161.538462 563.570133 
L 161.538462 565.00834 
L 175.846154 565.00834 
L 175.846154 553.951225 
L 190.153846 553.951225 
L 190.153846 556.399079 
L 204.461538 556.399079 
L 204.461538 554.900277 
L 218.769231 554.900277 
L 218.769231 556.399079 
L 233.076923 556.399079 
L 233.076923 556.920488 
L 247.384615 556.920488 
L 247.384615 554.900277 
L 261.692308 554.900277 
L 261.692308 552.159948 
L 276 552.159948 
L 276 548.564707 
L 290.307692 548.564707 
L 290.307692 556.399079 
L 304.615385 556.399079 
L 304.615385 551.312602 
L 318.923077 551.312602 
L 318.923077 553.490566 
L 333.230769 553.490566 
L 333.230769 547.834706 
L 347.538462 547.834706 
L 347.538462 545.770523 
L 361.846154 545.770523 
L 361.846154 545.770523 
L 376.153846 545.770523 
L 376.153846 540.214718 
L 390.461538 540.214718 
L 390.461538 544.487878 
L 404.769231 544.487878 
L 404.769231 536.151614 
L 419.076923 536.151614 
L 419.076923 532.307139 
L 433.384615 532.307139 
L 433.384615 531.21203 
L 447.692308 531.21203 
L 447.692308 530.165251 
L 462 530.165251 
L 462 520.151417 
L 476.307692 520.151417 
L 476.307692 518.425336 
L 490.615385 518.425336 
L 490.615385 514.414313 
L 504.923077 514.414313 
L 504.923077 509.943083 
L 519.230769 509.943083 
L 519.230769 505.812694 
L 533.538462 505.812694 
L 533.538462 501.929736 
L 547.846154 501.929736 
L 547.846154 495.590111 
L 562.153846 495.590111 
L 562.153846 488.002896 
L 576.461538 488.002896 
L 576.461538 481.221501 
L 590.769231 481.221501 
L 590.769231 471.58814 
L 605.076923 471.58814 
L 605.076923 459.772181 
L 619.384615 459.772181 
L 619.384615 445.28125 
L 633.692308 445.28125 
L 633.692308 395.051236 
L 648 395.051236 
" style="fill:none;stroke:#1f77b4;stroke-linecap:square;stroke-width:1.5;"/>
   </g>
   <g id="line2d_34">
    <path clip-path="url(#pce7d37eaa7)" d="M 90 562.214156 
L 104.307692 562.214156 
L 104.307692 578.657789 
L 118.615385 578.657789 
L 118.615385 566.539397 
L 132.923077 566.539397 
L 132.923077 563.570133 
L 147.230769 563.570133 
L 147.230769 576.158306 
L 161.538462 576.158306 
L 161.538462 569.934199 
L 175.846154 569.934199 
L 175.846154 557.998999 
L 190.153846 557.998999 
L 190.153846 557.453615 
L 204.461538 557.453615 
L 204.461538 555.389431 
L 218.769231 555.389431 
L 218.769231 559.714673 
L 233.076923 559.714673 
L 233.076923 562.214156 
L 247.384615 562.214156 
L 247.384615 558.557216 
L 261.692308 558.557216 
L 261.692308 557.453615 
L 276 557.453615 
L 276 554.421005 
L 290.307692 554.421005 
L 290.307692 562.882458 
L 304.615385 562.882458 
L 304.615385 553.038683 
L 318.923077 553.038683 
L 318.923077 556.399079 
L 333.230769 556.399079 
L 333.230769 553.038683 
L 347.538462 553.038683 
L 347.538462 547.477961 
L 361.846154 547.477961 
L 361.846154 548.938308 
L 376.153846 548.938308 
L 376.153846 543.871658 
L 390.461538 543.871658 
L 390.461538 547.834706 
L 404.769231 547.834706 
L 404.769231 538.945798 
L 419.076923 538.945798 
L 419.076923 534.661779 
L 433.384615 534.661779 
L 433.384615 533.652131 
L 447.692308 533.652131 
L 447.692308 533.066344 
L 462 533.066344 
L 462 522.502165 
L 476.307692 522.502165 
L 476.307692 520.48952 
L 490.615385 520.48952 
L 490.615385 516.526471 
L 504.923077 516.526471 
L 504.923077 512.394102 
L 519.230769 512.394102 
L 519.230769 507.988307 
L 533.538462 507.988307 
L 533.538462 503.596146 
L 547.846154 503.596146 
L 547.846154 497.192803 
L 562.153846 497.192803 
L 562.153846 489.522411 
L 576.461538 489.522411 
L 576.461538 482.605558 
L 590.769231 482.605558 
L 590.769231 472.879616 
L 605.076923 472.879616 
L 605.076923 460.80398 
L 619.384615 460.80398 
L 619.384615 446.026896 
L 633.692308 446.026896 
L 633.692308 395.757496 
L 648 395.757496 
" style="fill:none;stroke:#ff7f0e;stroke-linecap:square;stroke-width:1.5;"/>
   </g>
   <g id="line2d_35">
    <path clip-path="url(#pce7d37eaa7)" d="M 90 614.339239 
L 104.307692 614.339239 
L 104.307692 621.163964 
L 118.615385 621.163964 
L 118.615385 621.163964 
L 132.923077 621.163964 
L 132.923077 609.045572 
L 147.230769 609.045572 
L 147.230769 609.045572 
L 161.538462 609.045572 
L 161.538462 609.045572 
L 175.846154 609.045572 
L 175.846154 601.063391 
L 190.153846 601.063391 
L 190.153846 609.045572 
L 204.461538 609.045572 
L 204.461538 597.895606 
L 218.769231 597.895606 
L 218.769231 595.101422 
L 233.076923 595.101422 
L 233.076923 601.063391 
L 247.384615 601.063391 
L 247.384615 601.063391 
L 261.692308 601.063391 
L 261.692308 595.101422 
L 276 595.101422 
L 276 590.340881 
L 290.307692 590.340881 
L 290.307692 586.377833 
L 304.615385 586.377833 
L 304.615385 581.451973 
L 318.923077 581.451973 
L 318.923077 588.276698 
L 333.230769 588.276698 
L 333.230769 595.101422 
L 347.538462 595.101422 
L 347.538462 592.601939 
L 361.846154 592.601939 
L 361.846154 580.013766 
L 376.153846 580.013766 
L 376.153846 595.101422 
L 390.461538 595.101422 
L 390.461538 590.340881 
L 404.769231 590.340881 
L 404.769231 577.375144 
L 419.076923 577.375144 
L 419.076923 592.601939 
L 433.384615 592.601939 
L 433.384615 595.101422 
L 447.692308 595.101422 
L 447.692308 581.451973 
L 462 581.451973 
L 462 572.842712 
L 476.307692 572.842712 
L 476.307692 582.98303 
L 490.615385 582.98303 
L 490.615385 584.619758 
L 504.923077 584.619758 
L 504.923077 578.657789 
L 519.230769 578.657789 
L 519.230769 581.451973 
L 533.538462 581.451973 
L 533.538462 576.158306 
L 547.846154 576.158306 
L 547.846154 573.897248 
L 562.153846 573.897248 
L 562.153846 576.158306 
L 576.461538 576.158306 
L 576.461538 570.864638 
L 590.769231 570.864638 
L 590.769231 570.864638 
L 605.076923 570.864638 
L 605.076923 562.214156 
L 619.384615 562.214156 
L 619.384615 555.888885 
L 633.692308 555.888885 
L 633.692308 525.954063 
L 648 525.954063 
" style="fill:none;stroke:#2ca02c;stroke-linecap:square;stroke-width:1.5;"/>
   </g>
   <g id="patch_10">
    <path d="M 90 632.4696 
L 90 383.7456 
" style="fill:none;stroke:#000000;stroke-linecap:square;stroke-linejoin:miter;stroke-width:0.8;"/>
   </g>
   <g id="patch_11">
    <path d="M 648 632.4696 
L 648 383.7456 
" style="fill:none;stroke:#000000;stroke-linecap:square;stroke-linejoin:miter;stroke-width:0.8;"/>
   </g>
   <g id="patch_12">
    <path d="M 90 632.4696 
L 648 632.4696 
" style="fill:none;stroke:#000000;stroke-linecap:square;stroke-linejoin:miter;stroke-width:0.8;"/>
   </g>
   <g id="patch_13">
    <path d="M 90 383.7456 
L 648 383.7456 
" style="fill:none;stroke:#000000;stroke-linecap:square;stroke-linejoin:miter;stroke-width:0.8;"/>
   </g>
   <g id="legend_2">
    <g id="patch_14">
     <path d="M 421.225313 477.407475 
L 635.4 477.407475 
Q 639 477.407475 639 473.807475 
L 639 396.3456 
Q 639 392.7456 635.4 392.7456 
L 421.225313 392.7456 
Q 417.625313 392.7456 417.625313 396.3456 
L 417.625313 473.807475 
Q 417.625313 477.407475 421.225313 477.407475 
z
" style="fill:#ffffff;opacity:0.5;stroke:#cccccc;stroke-linejoin:miter;"/>
    </g>
    <g id="line2d_36">
     <path d="M 424.825312 407.322787 
L 460.825312 407.322787 
" style="fill:none;stroke:#1f77b4;stroke-linecap:square;stroke-width:1.5;"/>
    </g>
    <g id="line2d_37"/>
    <g id="text_19">
     <!--  track -->
     <defs>
      <path id="DejaVuSans-32"/>
      <path d="M 9.078125 75.984375 
L 18.109375 75.984375 
L 18.109375 31.109375 
L 44.921875 54.6875 
L 56.390625 54.6875 
L 27.390625 29.109375 
L 57.625 0 
L 45.90625 0 
L 18.109375 26.703125 
L 18.109375 0 
L 9.078125 0 
z
" id="DejaVuSans-107"/>
     </defs>
     <g transform="translate(475.225312 413.622787)scale(0.18 -0.18)">
      <use xlink:href="#DejaVuSans-32"/>
      <use x="31.787109" xlink:href="#DejaVuSans-116"/>
      <use x="70.996094" xlink:href="#DejaVuSans-114"/>
      <use x="112.109375" xlink:href="#DejaVuSans-97"/>
      <use x="173.388672" xlink:href="#DejaVuSans-99"/>
      <use x="228.369141" xlink:href="#DejaVuSans-107"/>
     </g>
    </g>
    <g id="line2d_38">
     <path d="M 424.825312 433.743412 
L 460.825312 433.743412 
" style="fill:none;stroke:#ff7f0e;stroke-linecap:square;stroke-width:1.5;"/>
    </g>
    <g id="line2d_39"/>
    <g id="text_20">
     <!-- correct  track -->
     <g transform="translate(475.225312 440.043412)scale(0.18 -0.18)">
      <use xlink:href="#DejaVuSans-99"/>
      <use x="54.980469" xlink:href="#DejaVuSans-111"/>
      <use x="116.162109" xlink:href="#DejaVuSans-114"/>
      <use x="157.259766" xlink:href="#DejaVuSans-114"/>
      <use x="198.341797" xlink:href="#DejaVuSans-101"/>
      <use x="259.865234" xlink:href="#DejaVuSans-99"/>
      <use x="314.845703" xlink:href="#DejaVuSans-116"/>
      <use x="354.054688" xlink:href="#DejaVuSans-32"/>
      <use x="385.841797" xlink:href="#DejaVuSans-32"/>
      <use x="417.628906" xlink:href="#DejaVuSans-116"/>
      <use x="456.837891" xlink:href="#DejaVuSans-114"/>
      <use x="497.951172" xlink:href="#DejaVuSans-97"/>
      <use x="559.230469" xlink:href="#DejaVuSans-99"/>
      <use x="614.210938" xlink:href="#DejaVuSans-107"/>
     </g>
    </g>
    <g id="line2d_40">
     <path d="M 424.825312 460.164037 
L 460.825312 460.164037 
" style="fill:none;stroke:#2ca02c;stroke-linecap:square;stroke-width:1.5;"/>
    </g>
    <g id="line2d_41"/>
    <g id="text_21">
     <!-- incorrect  shower -->
     <defs>
      <path d="M 54.890625 33.015625 
L 54.890625 0 
L 45.90625 0 
L 45.90625 32.71875 
Q 45.90625 40.484375 42.875 44.328125 
Q 39.84375 48.1875 33.796875 48.1875 
Q 26.515625 48.1875 22.3125 43.546875 
Q 18.109375 38.921875 18.109375 30.90625 
L 18.109375 0 
L 9.078125 0 
L 9.078125 75.984375 
L 18.109375 75.984375 
L 18.109375 46.1875 
Q 21.34375 51.125 25.703125 53.5625 
Q 30.078125 56 35.796875 56 
Q 45.21875 56 50.046875 50.171875 
Q 54.890625 44.34375 54.890625 33.015625 
z
" id="DejaVuSans-104"/>
      <path d="M 4.203125 54.6875 
L 13.1875 54.6875 
L 24.421875 12.015625 
L 35.59375 54.6875 
L 46.1875 54.6875 
L 57.421875 12.015625 
L 68.609375 54.6875 
L 77.59375 54.6875 
L 63.28125 0 
L 52.6875 0 
L 40.921875 44.828125 
L 29.109375 0 
L 18.5 0 
z
" id="DejaVuSans-119"/>
     </defs>
     <g transform="translate(475.225312 466.464037)scale(0.18 -0.18)">
      <use xlink:href="#DejaVuSans-105"/>
      <use x="27.783203" xlink:href="#DejaVuSans-110"/>
      <use x="91.162109" xlink:href="#DejaVuSans-99"/>
      <use x="146.142578" xlink:href="#DejaVuSans-111"/>
      <use x="207.324219" xlink:href="#DejaVuSans-114"/>
      <use x="248.421875" xlink:href="#DejaVuSans-114"/>
      <use x="289.503906" xlink:href="#DejaVuSans-101"/>
      <use x="351.027344" xlink:href="#DejaVuSans-99"/>
      <use x="406.007812" xlink:href="#DejaVuSans-116"/>
      <use x="445.216797" xlink:href="#DejaVuSans-32"/>
      <use x="477.003906" xlink:href="#DejaVuSans-32"/>
      <use x="508.791016" xlink:href="#DejaVuSans-115"/>
      <use x="560.890625" xlink:href="#DejaVuSans-104"/>
      <use x="624.269531" xlink:href="#DejaVuSans-111"/>
      <use x="685.451172" xlink:href="#DejaVuSans-119"/>
      <use x="767.238281" xlink:href="#DejaVuSans-101"/>
      <use x="828.761719" xlink:href="#DejaVuSans-114"/>
     </g>
    </g>
   </g>
  </g>
 </g>
 <defs>
  <clipPath id="pb12e04d64c">
   <rect height="248.724" width="558" x="90" y="85.2768"/>
  </clipPath>
  <clipPath id="pce7d37eaa7">
   <rect height="248.724" width="558" x="90" y="383.7456"/>
  </clipPath>
 </defs>
</svg>
