<?xml version="1.0" encoding="utf-8" standalone="no"?>
<!DOCTYPE svg PUBLIC "-//W3C//DTD SVG 1.1//EN"
  "http://www.w3.org/Graphics/SVG/1.1/DTD/svg11.dtd">
<!-- Created with matplotlib (https://matplotlib.org/) -->
<svg height="710.64pt" version="1.1" viewBox="0 0 720 710.64" width="720pt" xmlns="http://www.w3.org/2000/svg" xmlns:xlink="http://www.w3.org/1999/xlink">
 <defs>
  <style type="text/css">
*{stroke-linecap:butt;stroke-linejoin:round;}
  </style>
 </defs>
 <g id="figure_1">
  <g id="patch_1">
   <path d="M 0 710.64 
L 720 710.64 
L 720 0 
L 0 0 
z
" style="fill:#ffffff;"/>
  </g>
  <g id="axes_1">
   <g id="patch_2">
    <path d="M 90 334.0008 
L 648 334.0008 
L 648 85.2768 
L 90 85.2768 
z
" style="fill:#ffffff;"/>
   </g>
   <g id="matplotlib.axis_1">
    <g id="xtick_1">
     <g id="line2d_1">
      <defs>
       <path d="M 0 0 
L 0 3.5 
" id="m25336bcb8e" style="stroke:#000000;stroke-width:0.8;"/>
      </defs>
      <g>
       <use style="stroke:#000000;stroke-width:0.8;" x="90" xlink:href="#m25336bcb8e" y="334.0008"/>
      </g>
     </g>
    </g>
    <g id="xtick_2">
     <g id="line2d_2">
      <g>
       <use style="stroke:#000000;stroke-width:0.8;" x="229.5" xlink:href="#m25336bcb8e" y="334.0008"/>
      </g>
     </g>
    </g>
    <g id="xtick_3">
     <g id="line2d_3">
      <g>
       <use style="stroke:#000000;stroke-width:0.8;" x="369" xlink:href="#m25336bcb8e" y="334.0008"/>
      </g>
     </g>
    </g>
    <g id="xtick_4">
     <g id="line2d_4">
      <g>
       <use style="stroke:#000000;stroke-width:0.8;" x="508.5" xlink:href="#m25336bcb8e" y="334.0008"/>
      </g>
     </g>
    </g>
    <g id="xtick_5">
     <g id="line2d_5">
      <g>
       <use style="stroke:#000000;stroke-width:0.8;" x="648" xlink:href="#m25336bcb8e" y="334.0008"/>
      </g>
     </g>
    </g>
    <g id="text_1">
     <!-- nHitsW -->
     <defs>
      <path d="M 54.890625 33.015625 
L 54.890625 0 
L 45.90625 0 
L 45.90625 32.71875 
Q 45.90625 40.484375 42.875 44.328125 
Q 39.84375 48.1875 33.796875 48.1875 
Q 26.515625 48.1875 22.3125 43.546875 
Q 18.109375 38.921875 18.109375 30.90625 
L 18.109375 0 
L 9.078125 0 
L 9.078125 54.6875 
L 18.109375 54.6875 
L 18.109375 46.1875 
Q 21.34375 51.125 25.703125 53.5625 
Q 30.078125 56 35.796875 56 
Q 45.21875 56 50.046875 50.171875 
Q 54.890625 44.34375 54.890625 33.015625 
z
" id="DejaVuSans-110"/>
      <path d="M 9.8125 72.90625 
L 19.671875 72.90625 
L 19.671875 43.015625 
L 55.515625 43.015625 
L 55.515625 72.90625 
L 65.375 72.90625 
L 65.375 0 
L 55.515625 0 
L 55.515625 34.71875 
L 19.671875 34.71875 
L 19.671875 0 
L 9.8125 0 
z
" id="DejaVuSans-72"/>
      <path d="M 9.421875 54.6875 
L 18.40625 54.6875 
L 18.40625 0 
L 9.421875 0 
z
M 9.421875 75.984375 
L 18.40625 75.984375 
L 18.40625 64.59375 
L 9.421875 64.59375 
z
" id="DejaVuSans-105"/>
      <path d="M 18.3125 70.21875 
L 18.3125 54.6875 
L 36.8125 54.6875 
L 36.8125 47.703125 
L 18.3125 47.703125 
L 18.3125 18.015625 
Q 18.3125 11.328125 20.140625 9.421875 
Q 21.96875 7.515625 27.59375 7.515625 
L 36.8125 7.515625 
L 36.8125 0 
L 27.59375 0 
Q 17.1875 0 13.234375 3.875 
Q 9.28125 7.765625 9.28125 18.015625 
L 9.28125 47.703125 
L 2.6875 47.703125 
L 2.6875 54.6875 
L 9.28125 54.6875 
L 9.28125 70.21875 
z
" id="DejaVuSans-116"/>
      <path d="M 44.28125 53.078125 
L 44.28125 44.578125 
Q 40.484375 46.53125 36.375 47.5 
Q 32.28125 48.484375 27.875 48.484375 
Q 21.1875 48.484375 17.84375 46.4375 
Q 14.5 44.390625 14.5 40.28125 
Q 14.5 37.15625 16.890625 35.375 
Q 19.28125 33.59375 26.515625 31.984375 
L 29.59375 31.296875 
Q 39.15625 29.25 43.1875 25.515625 
Q 47.21875 21.78125 47.21875 15.09375 
Q 47.21875 7.46875 41.1875 3.015625 
Q 35.15625 -1.421875 24.609375 -1.421875 
Q 20.21875 -1.421875 15.453125 -0.5625 
Q 10.6875 0.296875 5.421875 2 
L 5.421875 11.28125 
Q 10.40625 8.6875 15.234375 7.390625 
Q 20.0625 6.109375 24.8125 6.109375 
Q 31.15625 6.109375 34.5625 8.28125 
Q 37.984375 10.453125 37.984375 14.40625 
Q 37.984375 18.0625 35.515625 20.015625 
Q 33.0625 21.96875 24.703125 23.78125 
L 21.578125 24.515625 
Q 13.234375 26.265625 9.515625 29.90625 
Q 5.8125 33.546875 5.8125 39.890625 
Q 5.8125 47.609375 11.28125 51.796875 
Q 16.75 56 26.8125 56 
Q 31.78125 56 36.171875 55.265625 
Q 40.578125 54.546875 44.28125 53.078125 
z
" id="DejaVuSans-115"/>
      <path d="M 3.328125 72.90625 
L 13.28125 72.90625 
L 28.609375 11.28125 
L 43.890625 72.90625 
L 54.984375 72.90625 
L 70.3125 11.28125 
L 85.59375 72.90625 
L 95.609375 72.90625 
L 77.296875 0 
L 64.890625 0 
L 49.515625 63.28125 
L 33.984375 0 
L 21.578125 0 
z
" id="DejaVuSans-87"/>
     </defs>
     <g transform="translate(322.79355 357.69595)scale(0.2592 -0.2592)">
      <use xlink:href="#DejaVuSans-110"/>
      <use x="63.378906" xlink:href="#DejaVuSans-72"/>
      <use x="138.574219" xlink:href="#DejaVuSans-105"/>
      <use x="166.357422" xlink:href="#DejaVuSans-116"/>
      <use x="205.566406" xlink:href="#DejaVuSans-115"/>
      <use x="257.666016" xlink:href="#DejaVuSans-87"/>
     </g>
    </g>
   </g>
   <g id="matplotlib.axis_2">
    <g id="ytick_1">
     <g id="line2d_6">
      <defs>
       <path d="M 0 0 
L -3.5 0 
" id="m670cb76da5" style="stroke:#000000;stroke-width:0.8;"/>
      </defs>
      <g>
       <use style="stroke:#000000;stroke-width:0.8;" x="90" xlink:href="#m670cb76da5" y="334.0008"/>
      </g>
     </g>
     <g id="text_2">
      <!-- 0.0 -->
      <defs>
       <path d="M 31.78125 66.40625 
Q 24.171875 66.40625 20.328125 58.90625 
Q 16.5 51.421875 16.5 36.375 
Q 16.5 21.390625 20.328125 13.890625 
Q 24.171875 6.390625 31.78125 6.390625 
Q 39.453125 6.390625 43.28125 13.890625 
Q 47.125 21.390625 47.125 36.375 
Q 47.125 51.421875 43.28125 58.90625 
Q 39.453125 66.40625 31.78125 66.40625 
z
M 31.78125 74.21875 
Q 44.046875 74.21875 50.515625 64.515625 
Q 56.984375 54.828125 56.984375 36.375 
Q 56.984375 17.96875 50.515625 8.265625 
Q 44.046875 -1.421875 31.78125 -1.421875 
Q 19.53125 -1.421875 13.0625 8.265625 
Q 6.59375 17.96875 6.59375 36.375 
Q 6.59375 54.828125 13.0625 64.515625 
Q 19.53125 74.21875 31.78125 74.21875 
z
" id="DejaVuSans-48"/>
       <path d="M 10.6875 12.40625 
L 21 12.40625 
L 21 0 
L 10.6875 0 
z
" id="DejaVuSans-46"/>
      </defs>
      <g transform="translate(41.7791 343.848375)scale(0.2592 -0.2592)">
       <use xlink:href="#DejaVuSans-48"/>
       <use x="63.623047" xlink:href="#DejaVuSans-46"/>
       <use x="95.410156" xlink:href="#DejaVuSans-48"/>
      </g>
     </g>
    </g>
    <g id="ytick_2">
     <g id="line2d_7">
      <g>
       <use style="stroke:#000000;stroke-width:0.8;" x="90" xlink:href="#m670cb76da5" y="210.870107"/>
      </g>
     </g>
     <g id="text_3">
      <!-- 0.5 -->
      <defs>
       <path d="M 10.796875 72.90625 
L 49.515625 72.90625 
L 49.515625 64.59375 
L 19.828125 64.59375 
L 19.828125 46.734375 
Q 21.96875 47.46875 24.109375 47.828125 
Q 26.265625 48.1875 28.421875 48.1875 
Q 40.625 48.1875 47.75 41.5 
Q 54.890625 34.8125 54.890625 23.390625 
Q 54.890625 11.625 47.5625 5.09375 
Q 40.234375 -1.421875 26.90625 -1.421875 
Q 22.3125 -1.421875 17.546875 -0.640625 
Q 12.796875 0.140625 7.71875 1.703125 
L 7.71875 11.625 
Q 12.109375 9.234375 16.796875 8.0625 
Q 21.484375 6.890625 26.703125 6.890625 
Q 35.15625 6.890625 40.078125 11.328125 
Q 45.015625 15.765625 45.015625 23.390625 
Q 45.015625 31 40.078125 35.4375 
Q 35.15625 39.890625 26.703125 39.890625 
Q 22.75 39.890625 18.8125 39.015625 
Q 14.890625 38.140625 10.796875 36.28125 
z
" id="DejaVuSans-53"/>
      </defs>
      <g transform="translate(41.7791 220.717682)scale(0.2592 -0.2592)">
       <use xlink:href="#DejaVuSans-48"/>
       <use x="63.623047" xlink:href="#DejaVuSans-46"/>
       <use x="95.410156" xlink:href="#DejaVuSans-53"/>
      </g>
     </g>
    </g>
    <g id="ytick_3">
     <g id="line2d_8">
      <g>
       <use style="stroke:#000000;stroke-width:0.8;" x="90" xlink:href="#m670cb76da5" y="87.739414"/>
      </g>
     </g>
     <g id="text_4">
      <!-- 1.0 -->
      <defs>
       <path d="M 12.40625 8.296875 
L 28.515625 8.296875 
L 28.515625 63.921875 
L 10.984375 60.40625 
L 10.984375 69.390625 
L 28.421875 72.90625 
L 38.28125 72.90625 
L 38.28125 8.296875 
L 54.390625 8.296875 
L 54.390625 0 
L 12.40625 0 
z
" id="DejaVuSans-49"/>
      </defs>
      <g transform="translate(41.7791 97.586989)scale(0.2592 -0.2592)">
       <use xlink:href="#DejaVuSans-49"/>
       <use x="63.623047" xlink:href="#DejaVuSans-46"/>
       <use x="95.410156" xlink:href="#DejaVuSans-48"/>
      </g>
     </g>
    </g>
    <g id="text_5">
     <!-- Fraction -->
     <defs>
      <path d="M 9.8125 72.90625 
L 51.703125 72.90625 
L 51.703125 64.59375 
L 19.671875 64.59375 
L 19.671875 43.109375 
L 48.578125 43.109375 
L 48.578125 34.8125 
L 19.671875 34.8125 
L 19.671875 0 
L 9.8125 0 
z
" id="DejaVuSans-70"/>
      <path d="M 41.109375 46.296875 
Q 39.59375 47.171875 37.8125 47.578125 
Q 36.03125 48 33.890625 48 
Q 26.265625 48 22.1875 43.046875 
Q 18.109375 38.09375 18.109375 28.8125 
L 18.109375 0 
L 9.078125 0 
L 9.078125 54.6875 
L 18.109375 54.6875 
L 18.109375 46.1875 
Q 20.953125 51.171875 25.484375 53.578125 
Q 30.03125 56 36.53125 56 
Q 37.453125 56 38.578125 55.875 
Q 39.703125 55.765625 41.0625 55.515625 
z
" id="DejaVuSans-114"/>
      <path d="M 34.28125 27.484375 
Q 23.390625 27.484375 19.1875 25 
Q 14.984375 22.515625 14.984375 16.5 
Q 14.984375 11.71875 18.140625 8.90625 
Q 21.296875 6.109375 26.703125 6.109375 
Q 34.1875 6.109375 38.703125 11.40625 
Q 43.21875 16.703125 43.21875 25.484375 
L 43.21875 27.484375 
z
M 52.203125 31.203125 
L 52.203125 0 
L 43.21875 0 
L 43.21875 8.296875 
Q 40.140625 3.328125 35.546875 0.953125 
Q 30.953125 -1.421875 24.3125 -1.421875 
Q 15.921875 -1.421875 10.953125 3.296875 
Q 6 8.015625 6 15.921875 
Q 6 25.140625 12.171875 29.828125 
Q 18.359375 34.515625 30.609375 34.515625 
L 43.21875 34.515625 
L 43.21875 35.40625 
Q 43.21875 41.609375 39.140625 45 
Q 35.0625 48.390625 27.6875 48.390625 
Q 23 48.390625 18.546875 47.265625 
Q 14.109375 46.140625 10.015625 43.890625 
L 10.015625 52.203125 
Q 14.9375 54.109375 19.578125 55.046875 
Q 24.21875 56 28.609375 56 
Q 40.484375 56 46.34375 49.84375 
Q 52.203125 43.703125 52.203125 31.203125 
z
" id="DejaVuSans-97"/>
      <path d="M 48.78125 52.59375 
L 48.78125 44.1875 
Q 44.96875 46.296875 41.140625 47.34375 
Q 37.3125 48.390625 33.40625 48.390625 
Q 24.65625 48.390625 19.8125 42.84375 
Q 14.984375 37.3125 14.984375 27.296875 
Q 14.984375 17.28125 19.8125 11.734375 
Q 24.65625 6.203125 33.40625 6.203125 
Q 37.3125 6.203125 41.140625 7.25 
Q 44.96875 8.296875 48.78125 10.40625 
L 48.78125 2.09375 
Q 45.015625 0.34375 40.984375 -0.53125 
Q 36.96875 -1.421875 32.421875 -1.421875 
Q 20.0625 -1.421875 12.78125 6.34375 
Q 5.515625 14.109375 5.515625 27.296875 
Q 5.515625 40.671875 12.859375 48.328125 
Q 20.21875 56 33.015625 56 
Q 37.15625 56 41.109375 55.140625 
Q 45.0625 54.296875 48.78125 52.59375 
z
" id="DejaVuSans-99"/>
      <path d="M 30.609375 48.390625 
Q 23.390625 48.390625 19.1875 42.75 
Q 14.984375 37.109375 14.984375 27.296875 
Q 14.984375 17.484375 19.15625 11.84375 
Q 23.34375 6.203125 30.609375 6.203125 
Q 37.796875 6.203125 41.984375 11.859375 
Q 46.1875 17.53125 46.1875 27.296875 
Q 46.1875 37.015625 41.984375 42.703125 
Q 37.796875 48.390625 30.609375 48.390625 
z
M 30.609375 56 
Q 42.328125 56 49.015625 48.375 
Q 55.71875 40.765625 55.71875 27.296875 
Q 55.71875 13.875 49.015625 6.21875 
Q 42.328125 -1.421875 30.609375 -1.421875 
Q 18.84375 -1.421875 12.171875 6.21875 
Q 5.515625 13.875 5.515625 27.296875 
Q 5.515625 40.765625 12.171875 48.375 
Q 18.84375 56 30.609375 56 
z
" id="DejaVuSans-111"/>
     </defs>
     <g transform="translate(32.38855 262.298925)rotate(-90)scale(0.2592 -0.2592)">
      <use xlink:href="#DejaVuSans-70"/>
      <use x="57.410156" xlink:href="#DejaVuSans-114"/>
      <use x="98.523438" xlink:href="#DejaVuSans-97"/>
      <use x="159.802734" xlink:href="#DejaVuSans-99"/>
      <use x="214.783203" xlink:href="#DejaVuSans-116"/>
      <use x="253.992188" xlink:href="#DejaVuSans-105"/>
      <use x="281.775391" xlink:href="#DejaVuSans-111"/>
      <use x="342.957031" xlink:href="#DejaVuSans-110"/>
     </g>
    </g>
   </g>
   <g id="LineCollection_1">
    <path clip-path="url(#p33a9a29022)" d="M 111.461538 112.862326 
L 111.461538 104.00497 
" style="fill:none;stroke:#008000;stroke-width:1.5;"/>
    <path clip-path="url(#p33a9a29022)" d="M 125.769231 112.940651 
L 125.769231 109.936647 
" style="fill:none;stroke:#008000;stroke-width:1.5;"/>
    <path clip-path="url(#p33a9a29022)" d="M 140.076923 111.466151 
L 140.076923 108.787474 
" style="fill:none;stroke:#008000;stroke-width:1.5;"/>
    <path clip-path="url(#p33a9a29022)" d="M 154.384615 110.756024 
L 154.384615 108.06187 
" style="fill:none;stroke:#008000;stroke-width:1.5;"/>
    <path clip-path="url(#p33a9a29022)" d="M 168.692308 109.13813 
L 168.692308 106.4592 
" style="fill:none;stroke:#008000;stroke-width:1.5;"/>
    <path clip-path="url(#p33a9a29022)" d="M 183 104.79425 
L 183 102.342408 
" style="fill:none;stroke:#008000;stroke-width:1.5;"/>
    <path clip-path="url(#p33a9a29022)" d="M 197.307692 102.964001 
L 197.307692 100.713423 
" style="fill:none;stroke:#008000;stroke-width:1.5;"/>
    <path clip-path="url(#p33a9a29022)" d="M 211.615385 99.701778 
L 211.615385 97.488643 
" style="fill:none;stroke:#008000;stroke-width:1.5;"/>
    <path clip-path="url(#p33a9a29022)" d="M 225.923077 100.783809 
L 225.923077 98.410003 
" style="fill:none;stroke:#008000;stroke-width:1.5;"/>
    <path clip-path="url(#p33a9a29022)" d="M 240.230769 99.20694 
L 240.230769 96.905323 
" style="fill:none;stroke:#008000;stroke-width:1.5;"/>
    <path clip-path="url(#p33a9a29022)" d="M 254.538462 97.808759 
L 254.538462 95.666602 
" style="fill:none;stroke:#008000;stroke-width:1.5;"/>
    <path clip-path="url(#p33a9a29022)" d="M 268.846154 96.891696 
L 268.846154 94.694795 
" style="fill:none;stroke:#008000;stroke-width:1.5;"/>
    <path clip-path="url(#p33a9a29022)" d="M 283.153846 98.965295 
L 283.153846 96.406513 
" style="fill:none;stroke:#008000;stroke-width:1.5;"/>
    <path clip-path="url(#p33a9a29022)" d="M 297.461538 96.699794 
L 297.461538 94.312444 
" style="fill:none;stroke:#008000;stroke-width:1.5;"/>
    <path clip-path="url(#p33a9a29022)" d="M 311.769231 95.957104 
L 311.769231 93.787901 
" style="fill:none;stroke:#008000;stroke-width:1.5;"/>
    <path clip-path="url(#p33a9a29022)" d="M 326.076923 96.564159 
L 326.076923 94.014555 
" style="fill:none;stroke:#008000;stroke-width:1.5;"/>
    <path clip-path="url(#p33a9a29022)" d="M 340.384615 96.005776 
L 340.384615 93.51924 
" style="fill:none;stroke:#008000;stroke-width:1.5;"/>
    <path clip-path="url(#p33a9a29022)" d="M 354.692308 95.167722 
L 354.692308 92.675694 
" style="fill:none;stroke:#008000;stroke-width:1.5;"/>
    <path clip-path="url(#p33a9a29022)" d="M 369 95.148735 
L 369 92.705037 
" style="fill:none;stroke:#008000;stroke-width:1.5;"/>
    <path clip-path="url(#p33a9a29022)" d="M 383.307692 95.143367 
L 383.307692 92.518003 
" style="fill:none;stroke:#008000;stroke-width:1.5;"/>
    <path clip-path="url(#p33a9a29022)" d="M 397.615385 94.612423 
L 397.615385 92.124068 
" style="fill:none;stroke:#008000;stroke-width:1.5;"/>
    <path clip-path="url(#p33a9a29022)" d="M 411.923077 92.926126 
L 411.923077 90.688402 
" style="fill:none;stroke:#008000;stroke-width:1.5;"/>
    <path clip-path="url(#p33a9a29022)" d="M 426.230769 93.794639 
L 426.230769 91.328891 
" style="fill:none;stroke:#008000;stroke-width:1.5;"/>
    <path clip-path="url(#p33a9a29022)" d="M 440.538462 90.73821 
L 440.538462 89.004884 
" style="fill:none;stroke:#008000;stroke-width:1.5;"/>
    <path clip-path="url(#p33a9a29022)" d="M 454.846154 92.778778 
L 454.846154 90.371744 
" style="fill:none;stroke:#008000;stroke-width:1.5;"/>
    <path clip-path="url(#p33a9a29022)" d="M 469.153846 94.870809 
L 469.153846 91.801718 
" style="fill:none;stroke:#008000;stroke-width:1.5;"/>
    <path clip-path="url(#p33a9a29022)" d="M 483.461538 93.819385 
L 483.461538 91.11588 
" style="fill:none;stroke:#008000;stroke-width:1.5;"/>
    <path clip-path="url(#p33a9a29022)" d="M 497.769231 90.37009 
L 497.769231 88.620487 
" style="fill:none;stroke:#008000;stroke-width:1.5;"/>
    <path clip-path="url(#p33a9a29022)" d="M 512.076923 91.78076 
L 512.076923 89.447361 
" style="fill:none;stroke:#008000;stroke-width:1.5;"/>
    <path clip-path="url(#p33a9a29022)" d="M 526.384615 93.555094 
L 526.384615 90.666741 
" style="fill:none;stroke:#008000;stroke-width:1.5;"/>
    <path clip-path="url(#p33a9a29022)" d="M 540.692308 94.419732 
L 540.692308 91.235186 
" style="fill:none;stroke:#008000;stroke-width:1.5;"/>
    <path clip-path="url(#p33a9a29022)" d="M 555 89.6974 
L 555 88.077571 
" style="fill:none;stroke:#008000;stroke-width:1.5;"/>
    <path clip-path="url(#p33a9a29022)" d="M 569.307692 92.535232 
L 569.307692 89.768392 
" style="fill:none;stroke:#008000;stroke-width:1.5;"/>
    <path clip-path="url(#p33a9a29022)" d="M 583.615385 93.382089 
L 583.615385 90.305451 
" style="fill:none;stroke:#008000;stroke-width:1.5;"/>
    <path clip-path="url(#p33a9a29022)" d="M 597.923077 92.791394 
L 597.923077 89.877547 
" style="fill:none;stroke:#008000;stroke-width:1.5;"/>
    <path clip-path="url(#p33a9a29022)" d="M 612.230769 93.489412 
L 612.230769 90.17539 
" style="fill:none;stroke:#008000;stroke-width:1.5;"/>
    <path clip-path="url(#p33a9a29022)" d="M 626.538462 92.026322 
L 626.538462 89.179515 
" style="fill:none;stroke:#008000;stroke-width:1.5;"/>
    <path clip-path="url(#p33a9a29022)" d="M 640.846154 93.206716 
L 640.846154 89.849385 
" style="fill:none;stroke:#008000;stroke-width:1.5;"/>
   </g>
   <g id="LineCollection_2">
    <path clip-path="url(#p33a9a29022)" d="M 111.461538 96.90157 
L 111.461538 91.769832 
" style="fill:none;stroke:#ff0000;stroke-width:1.5;"/>
    <path clip-path="url(#p33a9a29022)" d="M 125.769231 106.073456 
L 125.769231 103.671597 
" style="fill:none;stroke:#ff0000;stroke-width:1.5;"/>
    <path clip-path="url(#p33a9a29022)" d="M 140.076923 100.869642 
L 140.076923 98.9404 
" style="fill:none;stroke:#ff0000;stroke-width:1.5;"/>
    <path clip-path="url(#p33a9a29022)" d="M 154.384615 97.624925 
L 154.384615 95.89432 
" style="fill:none;stroke:#ff0000;stroke-width:1.5;"/>
    <path clip-path="url(#p33a9a29022)" d="M 168.692308 95.223606 
L 168.692308 93.661411 
" style="fill:none;stroke:#ff0000;stroke-width:1.5;"/>
    <path clip-path="url(#p33a9a29022)" d="M 183 94.632598 
L 183 93.111717 
" style="fill:none;stroke:#ff0000;stroke-width:1.5;"/>
    <path clip-path="url(#p33a9a29022)" d="M 197.307692 92.840517 
L 197.307692 91.568015 
" style="fill:none;stroke:#ff0000;stroke-width:1.5;"/>
    <path clip-path="url(#p33a9a29022)" d="M 211.615385 92.028842 
L 211.615385 90.746619 
" style="fill:none;stroke:#ff0000;stroke-width:1.5;"/>
    <path clip-path="url(#p33a9a29022)" d="M 225.923077 90.472192 
L 225.923077 89.425046 
" style="fill:none;stroke:#ff0000;stroke-width:1.5;"/>
    <path clip-path="url(#p33a9a29022)" d="M 240.230769 91.103922 
L 240.230769 89.905762 
" style="fill:none;stroke:#ff0000;stroke-width:1.5;"/>
    <path clip-path="url(#p33a9a29022)" d="M 254.538462 89.373806 
L 254.538462 88.564902 
" style="fill:none;stroke:#ff0000;stroke-width:1.5;"/>
    <path clip-path="url(#p33a9a29022)" d="M 268.846154 90.005217 
L 268.846154 88.97119 
" style="fill:none;stroke:#ff0000;stroke-width:1.5;"/>
    <path clip-path="url(#p33a9a29022)" d="M 283.153846 89.023972 
L 283.153846 88.235488 
" style="fill:none;stroke:#ff0000;stroke-width:1.5;"/>
    <path clip-path="url(#p33a9a29022)" d="M 297.461538 88.129942 
L 297.461538 87.739777 
" style="fill:none;stroke:#ff0000;stroke-width:1.5;"/>
    <path clip-path="url(#p33a9a29022)" d="M 311.769231 88.334723 
L 311.769231 87.842718 
" style="fill:none;stroke:#ff0000;stroke-width:1.5;"/>
    <path clip-path="url(#p33a9a29022)" d="M 326.076923 87.739414 
L 326.076923 87.739414 
" style="fill:none;stroke:#ff0000;stroke-width:1.5;"/>
    <path clip-path="url(#p33a9a29022)" d="M 340.384615 88.532495 
L 340.384615 87.877378 
" style="fill:none;stroke:#ff0000;stroke-width:1.5;"/>
    <path clip-path="url(#p33a9a29022)" d="M 354.692308 88.981409 
L 354.692308 88.077705 
" style="fill:none;stroke:#ff0000;stroke-width:1.5;"/>
    <path clip-path="url(#p33a9a29022)" d="M 369 89.249089 
L 369 88.252419 
" style="fill:none;stroke:#ff0000;stroke-width:1.5;"/>
    <path clip-path="url(#p33a9a29022)" d="M 383.307692 87.739414 
L 383.307692 87.739414 
" style="fill:none;stroke:#ff0000;stroke-width:1.5;"/>
    <path clip-path="url(#p33a9a29022)" d="M 397.615385 87.739414 
L 397.615385 87.739414 
" style="fill:none;stroke:#ff0000;stroke-width:1.5;"/>
    <path clip-path="url(#p33a9a29022)" d="M 411.923077 88.373426 
L 411.923077 87.740915 
" style="fill:none;stroke:#ff0000;stroke-width:1.5;"/>
    <path clip-path="url(#p33a9a29022)" d="M 426.230769 87.739414 
L 426.230769 87.739414 
" style="fill:none;stroke:#ff0000;stroke-width:1.5;"/>
    <path clip-path="url(#p33a9a29022)" d="M 440.538462 87.739414 
L 440.538462 87.739414 
" style="fill:none;stroke:#ff0000;stroke-width:1.5;"/>
    <path clip-path="url(#p33a9a29022)" d="M 454.846154 87.739414 
L 454.846154 87.739414 
" style="fill:none;stroke:#ff0000;stroke-width:1.5;"/>
    <path clip-path="url(#p33a9a29022)" d="M 469.153846 88.615814 
L 469.153846 87.742518 
" style="fill:none;stroke:#ff0000;stroke-width:1.5;"/>
    <path clip-path="url(#p33a9a29022)" d="M 483.461538 87.739414 
L 483.461538 87.739414 
" style="fill:none;stroke:#ff0000;stroke-width:1.5;"/>
    <path clip-path="url(#p33a9a29022)" d="M 497.769231 87.739414 
L 497.769231 87.739414 
" style="fill:none;stroke:#ff0000;stroke-width:1.5;"/>
    <path clip-path="url(#p33a9a29022)" d="M 512.076923 88.706872 
L 512.076923 87.739583 
" style="fill:none;stroke:#ff0000;stroke-width:1.5;"/>
    <path clip-path="url(#p33a9a29022)" d="M 526.384615 89.409035 
L 526.384615 88.039884 
" style="fill:none;stroke:#ff0000;stroke-width:1.5;"/>
    <path clip-path="url(#p33a9a29022)" d="M 540.692308 88.772108 
L 540.692308 87.743609 
" style="fill:none;stroke:#ff0000;stroke-width:1.5;"/>
    <path clip-path="url(#p33a9a29022)" d="M 555 88.884705 
L 555 87.744877 
" style="fill:none;stroke:#ff0000;stroke-width:1.5;"/>
    <path clip-path="url(#p33a9a29022)" d="M 569.307692 88.882538 
L 569.307692 87.747043 
" style="fill:none;stroke:#ff0000;stroke-width:1.5;"/>
    <path clip-path="url(#p33a9a29022)" d="M 583.615385 88.924343 
L 583.615385 87.744153 
" style="fill:none;stroke:#ff0000;stroke-width:1.5;"/>
    <path clip-path="url(#p33a9a29022)" d="M 597.923077 87.739414 
L 597.923077 87.739414 
" style="fill:none;stroke:#ff0000;stroke-width:1.5;"/>
    <path clip-path="url(#p33a9a29022)" d="M 612.230769 87.739414 
L 612.230769 87.739414 
" style="fill:none;stroke:#ff0000;stroke-width:1.5;"/>
    <path clip-path="url(#p33a9a29022)" d="M 626.538462 89.176346 
L 626.538462 87.74683 
" style="fill:none;stroke:#ff0000;stroke-width:1.5;"/>
    <path clip-path="url(#p33a9a29022)" d="M 640.846154 89.252001 
L 640.846154 87.761166 
" style="fill:none;stroke:#ff0000;stroke-width:1.5;"/>
   </g>
   <g id="LineCollection_3">
    <path clip-path="url(#p33a9a29022)" d="M 111.461538 119.384824 
L 111.461538 109.566427 
" style="fill:none;stroke:#0000ff;stroke-width:1.5;"/>
    <path clip-path="url(#p33a9a29022)" d="M 125.769231 128.692406 
L 125.769231 125.15347 
" style="fill:none;stroke:#0000ff;stroke-width:1.5;"/>
    <path clip-path="url(#p33a9a29022)" d="M 140.076923 122.73241 
L 140.076923 119.640501 
" style="fill:none;stroke:#0000ff;stroke-width:1.5;"/>
    <path clip-path="url(#p33a9a29022)" d="M 154.384615 119.154276 
L 154.384615 116.116585 
" style="fill:none;stroke:#0000ff;stroke-width:1.5;"/>
    <path clip-path="url(#p33a9a29022)" d="M 168.692308 115.443236 
L 168.692308 112.46828 
" style="fill:none;stroke:#0000ff;stroke-width:1.5;"/>
    <path clip-path="url(#p33a9a29022)" d="M 183 110.698023 
L 183 107.915735 
" style="fill:none;stroke:#0000ff;stroke-width:1.5;"/>
    <path clip-path="url(#p33a9a29022)" d="M 197.307692 107.30514 
L 197.307692 104.790731 
" style="fill:none;stroke:#0000ff;stroke-width:1.5;"/>
    <path clip-path="url(#p33a9a29022)" d="M 211.615385 103.333326 
L 211.615385 100.832075 
" style="fill:none;stroke:#0000ff;stroke-width:1.5;"/>
    <path clip-path="url(#p33a9a29022)" d="M 225.923077 102.977213 
L 225.923077 100.422263 
" style="fill:none;stroke:#0000ff;stroke-width:1.5;"/>
    <path clip-path="url(#p33a9a29022)" d="M 240.230769 101.980163 
L 240.230769 99.43125 
" style="fill:none;stroke:#0000ff;stroke-width:1.5;"/>
    <path clip-path="url(#p33a9a29022)" d="M 254.538462 99.057415 
L 254.538462 96.787944 
" style="fill:none;stroke:#0000ff;stroke-width:1.5;"/>
    <path clip-path="url(#p33a9a29022)" d="M 268.846154 98.684685 
L 268.846154 96.284999 
" style="fill:none;stroke:#0000ff;stroke-width:1.5;"/>
    <path clip-path="url(#p33a9a29022)" d="M 283.153846 99.869979 
L 283.153846 97.210542 
" style="fill:none;stroke:#0000ff;stroke-width:1.5;"/>
    <path clip-path="url(#p33a9a29022)" d="M 297.461538 96.902999 
L 297.461538 94.487802 
" style="fill:none;stroke:#0000ff;stroke-width:1.5;"/>
    <path clip-path="url(#p33a9a29022)" d="M 311.769231 96.320785 
L 311.769231 94.102598 
" style="fill:none;stroke:#0000ff;stroke-width:1.5;"/>
    <path clip-path="url(#p33a9a29022)" d="M 326.076923 96.564159 
L 326.076923 94.014555 
" style="fill:none;stroke:#0000ff;stroke-width:1.5;"/>
    <path clip-path="url(#p33a9a29022)" d="M 340.384615 96.495824 
L 340.384615 93.933684 
" style="fill:none;stroke:#0000ff;stroke-width:1.5;"/>
    <path clip-path="url(#p33a9a29022)" d="M 354.692308 96.009837 
L 354.692308 93.374194 
" style="fill:none;stroke:#0000ff;stroke-width:1.5;"/>
    <path clip-path="url(#p33a9a29022)" d="M 369 96.223042 
L 369 93.602589 
" style="fill:none;stroke:#0000ff;stroke-width:1.5;"/>
    <path clip-path="url(#p33a9a29022)" d="M 383.307692 95.143367 
L 383.307692 92.518003 
" style="fill:none;stroke:#0000ff;stroke-width:1.5;"/>
    <path clip-path="url(#p33a9a29022)" d="M 397.615385 94.612423 
L 397.615385 92.124068 
" style="fill:none;stroke:#0000ff;stroke-width:1.5;"/>
    <path clip-path="url(#p33a9a29022)" d="M 411.923077 93.27967 
L 411.923077 90.959874 
" style="fill:none;stroke:#0000ff;stroke-width:1.5;"/>
    <path clip-path="url(#p33a9a29022)" d="M 426.230769 93.794639 
L 426.230769 91.328891 
" style="fill:none;stroke:#0000ff;stroke-width:1.5;"/>
    <path clip-path="url(#p33a9a29022)" d="M 440.538462 90.73821 
L 440.538462 89.004884 
" style="fill:none;stroke:#0000ff;stroke-width:1.5;"/>
    <path clip-path="url(#p33a9a29022)" d="M 454.846154 92.778778 
L 454.846154 90.371744 
" style="fill:none;stroke:#0000ff;stroke-width:1.5;"/>
    <path clip-path="url(#p33a9a29022)" d="M 469.153846 95.356154 
L 469.153846 92.175889 
" style="fill:none;stroke:#0000ff;stroke-width:1.5;"/>
    <path clip-path="url(#p33a9a29022)" d="M 483.461538 93.819385 
L 483.461538 91.11588 
" style="fill:none;stroke:#0000ff;stroke-width:1.5;"/>
    <path clip-path="url(#p33a9a29022)" d="M 497.769231 90.37009 
L 497.769231 88.620487 
" style="fill:none;stroke:#0000ff;stroke-width:1.5;"/>
    <path clip-path="url(#p33a9a29022)" d="M 512.076923 92.350928 
L 512.076923 89.833526 
" style="fill:none;stroke:#0000ff;stroke-width:1.5;"/>
    <path clip-path="url(#p33a9a29022)" d="M 526.384615 94.666289 
L 526.384615 91.490665 
" style="fill:none;stroke:#0000ff;stroke-width:1.5;"/>
    <path clip-path="url(#p33a9a29022)" d="M 540.692308 95.002018 
L 540.692308 91.668367 
" style="fill:none;stroke:#0000ff;stroke-width:1.5;"/>
    <path clip-path="url(#p33a9a29022)" d="M 555 90.447439 
L 555 88.472921 
" style="fill:none;stroke:#0000ff;stroke-width:1.5;"/>
    <path clip-path="url(#p33a9a29022)" d="M 569.307692 93.20864 
L 569.307692 90.229792 
" style="fill:none;stroke:#0000ff;stroke-width:1.5;"/>
    <path clip-path="url(#p33a9a29022)" d="M 583.615385 94.069334 
L 583.615385 90.788048 
" style="fill:none;stroke:#0000ff;stroke-width:1.5;"/>
    <path clip-path="url(#p33a9a29022)" d="M 597.923077 92.791394 
L 597.923077 89.877547 
" style="fill:none;stroke:#0000ff;stroke-width:1.5;"/>
    <path clip-path="url(#p33a9a29022)" d="M 612.230769 93.489412 
L 612.230769 90.17539 
" style="fill:none;stroke:#0000ff;stroke-width:1.5;"/>
    <path clip-path="url(#p33a9a29022)" d="M 626.538462 92.902028 
L 626.538462 89.731363 
" style="fill:none;stroke:#0000ff;stroke-width:1.5;"/>
    <path clip-path="url(#p33a9a29022)" d="M 640.846154 94.11073 
L 640.846154 90.456105 
" style="fill:none;stroke:#0000ff;stroke-width:1.5;"/>
   </g>
   <g id="line2d_9">
    <path clip-path="url(#p33a9a29022)" d="M 104.307692 108.433648 
L 118.615385 108.433648 
L 118.615385 111.438649 
L 132.923077 111.438649 
L 132.923077 110.126813 
L 147.230769 110.126813 
L 147.230769 109.408947 
L 161.538462 109.408947 
L 161.538462 107.798665 
L 175.846154 107.798665 
L 175.846154 103.568329 
L 190.153846 103.568329 
L 190.153846 101.838712 
L 204.461538 101.838712 
L 204.461538 98.59521 
L 218.769231 98.59521 
L 218.769231 99.596906 
L 233.076923 99.596906 
L 233.076923 98.056131 
L 247.384615 98.056131 
L 247.384615 96.737681 
L 261.692308 96.737681 
L 261.692308 95.793245 
L 276 95.793245 
L 276 97.685904 
L 290.307692 97.685904 
L 290.307692 95.506119 
L 304.615385 95.506119 
L 304.615385 94.872502 
L 318.923077 94.872502 
L 318.923077 95.289357 
L 333.230769 95.289357 
L 333.230769 94.762508 
L 347.538462 94.762508 
L 347.538462 93.921708 
L 361.846154 93.921708 
L 361.846154 93.926886 
L 376.153846 93.926886 
L 376.153846 93.830685 
L 390.461538 93.830685 
L 390.461538 93.368246 
L 404.769231 93.368246 
L 404.769231 91.807264 
L 419.076923 91.807264 
L 419.076923 92.561765 
L 433.384615 92.561765 
L 433.384615 89.871547 
L 447.692308 89.871547 
L 447.692308 91.575261 
L 462 91.575261 
L 462 93.336264 
L 476.307692 93.336264 
L 476.307692 92.467632 
L 490.615385 92.467632 
L 490.615385 89.495288 
L 504.923077 89.495288 
L 504.923077 90.61406 
L 519.230769 90.61406 
L 519.230769 92.110918 
L 533.538462 92.110918 
L 533.538462 92.827459 
L 547.846154 92.827459 
L 547.846154 88.887486 
L 562.153846 88.887486 
L 562.153846 91.151812 
L 576.461538 91.151812 
L 576.461538 91.84377 
L 590.769231 91.84377 
L 590.769231 91.334471 
L 605.076923 91.334471 
L 605.076923 91.832401 
L 619.384615 91.832401 
L 619.384615 90.602918 
L 633.692308 90.602918 
L 633.692308 91.528051 
L 648 91.528051 
" style="fill:none;stroke:#008000;stroke-linecap:square;stroke-width:1.5;"/>
   </g>
   <g id="line2d_10">
    <defs>
     <path d="M 2 0 
L -2 -0 
" id="m4e2a69269d" style="stroke:#008000;"/>
    </defs>
    <g clip-path="url(#p33a9a29022)">
     <use style="fill:#008000;stroke:#008000;" x="111.461538" xlink:href="#m4e2a69269d" y="112.862326"/>
     <use style="fill:#008000;stroke:#008000;" x="125.769231" xlink:href="#m4e2a69269d" y="112.940651"/>
     <use style="fill:#008000;stroke:#008000;" x="140.076923" xlink:href="#m4e2a69269d" y="111.466151"/>
     <use style="fill:#008000;stroke:#008000;" x="154.384615" xlink:href="#m4e2a69269d" y="110.756024"/>
     <use style="fill:#008000;stroke:#008000;" x="168.692308" xlink:href="#m4e2a69269d" y="109.13813"/>
     <use style="fill:#008000;stroke:#008000;" x="183" xlink:href="#m4e2a69269d" y="104.79425"/>
     <use style="fill:#008000;stroke:#008000;" x="197.307692" xlink:href="#m4e2a69269d" y="102.964001"/>
     <use style="fill:#008000;stroke:#008000;" x="211.615385" xlink:href="#m4e2a69269d" y="99.701778"/>
     <use style="fill:#008000;stroke:#008000;" x="225.923077" xlink:href="#m4e2a69269d" y="100.783809"/>
     <use style="fill:#008000;stroke:#008000;" x="240.230769" xlink:href="#m4e2a69269d" y="99.20694"/>
     <use style="fill:#008000;stroke:#008000;" x="254.538462" xlink:href="#m4e2a69269d" y="97.808759"/>
     <use style="fill:#008000;stroke:#008000;" x="268.846154" xlink:href="#m4e2a69269d" y="96.891696"/>
     <use style="fill:#008000;stroke:#008000;" x="283.153846" xlink:href="#m4e2a69269d" y="98.965295"/>
     <use style="fill:#008000;stroke:#008000;" x="297.461538" xlink:href="#m4e2a69269d" y="96.699794"/>
     <use style="fill:#008000;stroke:#008000;" x="311.769231" xlink:href="#m4e2a69269d" y="95.957104"/>
     <use style="fill:#008000;stroke:#008000;" x="326.076923" xlink:href="#m4e2a69269d" y="96.564159"/>
     <use style="fill:#008000;stroke:#008000;" x="340.384615" xlink:href="#m4e2a69269d" y="96.005776"/>
     <use style="fill:#008000;stroke:#008000;" x="354.692308" xlink:href="#m4e2a69269d" y="95.167722"/>
     <use style="fill:#008000;stroke:#008000;" x="369" xlink:href="#m4e2a69269d" y="95.148735"/>
     <use style="fill:#008000;stroke:#008000;" x="383.307692" xlink:href="#m4e2a69269d" y="95.143367"/>
     <use style="fill:#008000;stroke:#008000;" x="397.615385" xlink:href="#m4e2a69269d" y="94.612423"/>
     <use style="fill:#008000;stroke:#008000;" x="411.923077" xlink:href="#m4e2a69269d" y="92.926126"/>
     <use style="fill:#008000;stroke:#008000;" x="426.230769" xlink:href="#m4e2a69269d" y="93.794639"/>
     <use style="fill:#008000;stroke:#008000;" x="440.538462" xlink:href="#m4e2a69269d" y="90.73821"/>
     <use style="fill:#008000;stroke:#008000;" x="454.846154" xlink:href="#m4e2a69269d" y="92.778778"/>
     <use style="fill:#008000;stroke:#008000;" x="469.153846" xlink:href="#m4e2a69269d" y="94.870809"/>
     <use style="fill:#008000;stroke:#008000;" x="483.461538" xlink:href="#m4e2a69269d" y="93.819385"/>
     <use style="fill:#008000;stroke:#008000;" x="497.769231" xlink:href="#m4e2a69269d" y="90.37009"/>
     <use style="fill:#008000;stroke:#008000;" x="512.076923" xlink:href="#m4e2a69269d" y="91.78076"/>
     <use style="fill:#008000;stroke:#008000;" x="526.384615" xlink:href="#m4e2a69269d" y="93.555094"/>
     <use style="fill:#008000;stroke:#008000;" x="540.692308" xlink:href="#m4e2a69269d" y="94.419732"/>
     <use style="fill:#008000;stroke:#008000;" x="555" xlink:href="#m4e2a69269d" y="89.6974"/>
     <use style="fill:#008000;stroke:#008000;" x="569.307692" xlink:href="#m4e2a69269d" y="92.535232"/>
     <use style="fill:#008000;stroke:#008000;" x="583.615385" xlink:href="#m4e2a69269d" y="93.382089"/>
     <use style="fill:#008000;stroke:#008000;" x="597.923077" xlink:href="#m4e2a69269d" y="92.791394"/>
     <use style="fill:#008000;stroke:#008000;" x="612.230769" xlink:href="#m4e2a69269d" y="93.489412"/>
     <use style="fill:#008000;stroke:#008000;" x="626.538462" xlink:href="#m4e2a69269d" y="92.026322"/>
     <use style="fill:#008000;stroke:#008000;" x="640.846154" xlink:href="#m4e2a69269d" y="93.206716"/>
    </g>
   </g>
   <g id="line2d_11">
    <g clip-path="url(#p33a9a29022)">
     <use style="fill:#008000;stroke:#008000;" x="111.461538" xlink:href="#m4e2a69269d" y="104.00497"/>
     <use style="fill:#008000;stroke:#008000;" x="125.769231" xlink:href="#m4e2a69269d" y="109.936647"/>
     <use style="fill:#008000;stroke:#008000;" x="140.076923" xlink:href="#m4e2a69269d" y="108.787474"/>
     <use style="fill:#008000;stroke:#008000;" x="154.384615" xlink:href="#m4e2a69269d" y="108.06187"/>
     <use style="fill:#008000;stroke:#008000;" x="168.692308" xlink:href="#m4e2a69269d" y="106.4592"/>
     <use style="fill:#008000;stroke:#008000;" x="183" xlink:href="#m4e2a69269d" y="102.342408"/>
     <use style="fill:#008000;stroke:#008000;" x="197.307692" xlink:href="#m4e2a69269d" y="100.713423"/>
     <use style="fill:#008000;stroke:#008000;" x="211.615385" xlink:href="#m4e2a69269d" y="97.488643"/>
     <use style="fill:#008000;stroke:#008000;" x="225.923077" xlink:href="#m4e2a69269d" y="98.410003"/>
     <use style="fill:#008000;stroke:#008000;" x="240.230769" xlink:href="#m4e2a69269d" y="96.905323"/>
     <use style="fill:#008000;stroke:#008000;" x="254.538462" xlink:href="#m4e2a69269d" y="95.666602"/>
     <use style="fill:#008000;stroke:#008000;" x="268.846154" xlink:href="#m4e2a69269d" y="94.694795"/>
     <use style="fill:#008000;stroke:#008000;" x="283.153846" xlink:href="#m4e2a69269d" y="96.406513"/>
     <use style="fill:#008000;stroke:#008000;" x="297.461538" xlink:href="#m4e2a69269d" y="94.312444"/>
     <use style="fill:#008000;stroke:#008000;" x="311.769231" xlink:href="#m4e2a69269d" y="93.787901"/>
     <use style="fill:#008000;stroke:#008000;" x="326.076923" xlink:href="#m4e2a69269d" y="94.014555"/>
     <use style="fill:#008000;stroke:#008000;" x="340.384615" xlink:href="#m4e2a69269d" y="93.51924"/>
     <use style="fill:#008000;stroke:#008000;" x="354.692308" xlink:href="#m4e2a69269d" y="92.675694"/>
     <use style="fill:#008000;stroke:#008000;" x="369" xlink:href="#m4e2a69269d" y="92.705037"/>
     <use style="fill:#008000;stroke:#008000;" x="383.307692" xlink:href="#m4e2a69269d" y="92.518003"/>
     <use style="fill:#008000;stroke:#008000;" x="397.615385" xlink:href="#m4e2a69269d" y="92.124068"/>
     <use style="fill:#008000;stroke:#008000;" x="411.923077" xlink:href="#m4e2a69269d" y="90.688402"/>
     <use style="fill:#008000;stroke:#008000;" x="426.230769" xlink:href="#m4e2a69269d" y="91.328891"/>
     <use style="fill:#008000;stroke:#008000;" x="440.538462" xlink:href="#m4e2a69269d" y="89.004884"/>
     <use style="fill:#008000;stroke:#008000;" x="454.846154" xlink:href="#m4e2a69269d" y="90.371744"/>
     <use style="fill:#008000;stroke:#008000;" x="469.153846" xlink:href="#m4e2a69269d" y="91.801718"/>
     <use style="fill:#008000;stroke:#008000;" x="483.461538" xlink:href="#m4e2a69269d" y="91.11588"/>
     <use style="fill:#008000;stroke:#008000;" x="497.769231" xlink:href="#m4e2a69269d" y="88.620487"/>
     <use style="fill:#008000;stroke:#008000;" x="512.076923" xlink:href="#m4e2a69269d" y="89.447361"/>
     <use style="fill:#008000;stroke:#008000;" x="526.384615" xlink:href="#m4e2a69269d" y="90.666741"/>
     <use style="fill:#008000;stroke:#008000;" x="540.692308" xlink:href="#m4e2a69269d" y="91.235186"/>
     <use style="fill:#008000;stroke:#008000;" x="555" xlink:href="#m4e2a69269d" y="88.077571"/>
     <use style="fill:#008000;stroke:#008000;" x="569.307692" xlink:href="#m4e2a69269d" y="89.768392"/>
     <use style="fill:#008000;stroke:#008000;" x="583.615385" xlink:href="#m4e2a69269d" y="90.305451"/>
     <use style="fill:#008000;stroke:#008000;" x="597.923077" xlink:href="#m4e2a69269d" y="89.877547"/>
     <use style="fill:#008000;stroke:#008000;" x="612.230769" xlink:href="#m4e2a69269d" y="90.17539"/>
     <use style="fill:#008000;stroke:#008000;" x="626.538462" xlink:href="#m4e2a69269d" y="89.179515"/>
     <use style="fill:#008000;stroke:#008000;" x="640.846154" xlink:href="#m4e2a69269d" y="89.849385"/>
    </g>
   </g>
   <g id="line2d_12">
    <path clip-path="url(#p33a9a29022)" d="M 104.307692 94.335701 
L 118.615385 94.335701 
L 118.615385 104.872527 
L 132.923077 104.872527 
L 132.923077 99.905021 
L 147.230769 99.905021 
L 147.230769 96.759622 
L 161.538462 96.759622 
L 161.538462 94.442509 
L 175.846154 94.442509 
L 175.846154 93.872158 
L 190.153846 93.872158 
L 190.153846 92.204266 
L 204.461538 92.204266 
L 204.461538 91.387731 
L 218.769231 91.387731 
L 218.769231 89.948619 
L 233.076923 89.948619 
L 233.076923 90.504842 
L 247.384615 90.504842 
L 247.384615 88.969354 
L 261.692308 88.969354 
L 261.692308 89.488204 
L 276 89.488204 
L 276 88.62973 
L 290.307692 88.62973 
L 290.307692 87.934859 
L 304.615385 87.934859 
L 304.615385 88.088721 
L 318.923077 88.088721 
L 318.923077 87.739414 
L 333.230769 87.739414 
L 333.230769 88.204936 
L 347.538462 88.204936 
L 347.538462 88.529557 
L 361.846154 88.529557 
L 361.846154 88.750754 
L 376.153846 88.750754 
L 376.153846 87.739414 
L 390.461538 87.739414 
L 390.461538 87.739414 
L 404.769231 87.739414 
L 404.769231 88.05717 
L 419.076923 88.05717 
L 419.076923 87.739414 
L 433.384615 87.739414 
L 433.384615 87.739414 
L 447.692308 87.739414 
L 447.692308 87.739414 
L 462 87.739414 
L 462 88.179166 
L 476.307692 88.179166 
L 476.307692 87.739414 
L 490.615385 87.739414 
L 490.615385 87.739414 
L 504.923077 87.739414 
L 504.923077 88.223228 
L 519.230769 88.223228 
L 519.230769 88.724459 
L 533.538462 88.724459 
L 533.538462 88.257859 
L 547.846154 88.257859 
L 547.846154 88.314791 
L 562.153846 88.314791 
L 562.153846 88.314791 
L 576.461538 88.314791 
L 576.461538 88.334248 
L 590.769231 88.334248 
L 590.769231 87.739414 
L 605.076923 87.739414 
L 605.076923 87.739414 
L 619.384615 87.739414 
L 619.384615 88.461588 
L 633.692308 88.461588 
L 633.692308 88.506583 
L 648 88.506583 
" style="fill:none;stroke:#ff0000;stroke-linecap:square;stroke-width:1.5;"/>
   </g>
   <g id="line2d_13">
    <defs>
     <path d="M 2 0 
L -2 -0 
" id="m8fc16abbd1" style="stroke:#ff0000;"/>
    </defs>
    <g clip-path="url(#p33a9a29022)">
     <use style="fill:#ff0000;stroke:#ff0000;" x="111.461538" xlink:href="#m8fc16abbd1" y="96.90157"/>
     <use style="fill:#ff0000;stroke:#ff0000;" x="125.769231" xlink:href="#m8fc16abbd1" y="106.073456"/>
     <use style="fill:#ff0000;stroke:#ff0000;" x="140.076923" xlink:href="#m8fc16abbd1" y="100.869642"/>
     <use style="fill:#ff0000;stroke:#ff0000;" x="154.384615" xlink:href="#m8fc16abbd1" y="97.624925"/>
     <use style="fill:#ff0000;stroke:#ff0000;" x="168.692308" xlink:href="#m8fc16abbd1" y="95.223606"/>
     <use style="fill:#ff0000;stroke:#ff0000;" x="183" xlink:href="#m8fc16abbd1" y="94.632598"/>
     <use style="fill:#ff0000;stroke:#ff0000;" x="197.307692" xlink:href="#m8fc16abbd1" y="92.840517"/>
     <use style="fill:#ff0000;stroke:#ff0000;" x="211.615385" xlink:href="#m8fc16abbd1" y="92.028842"/>
     <use style="fill:#ff0000;stroke:#ff0000;" x="225.923077" xlink:href="#m8fc16abbd1" y="90.472192"/>
     <use style="fill:#ff0000;stroke:#ff0000;" x="240.230769" xlink:href="#m8fc16abbd1" y="91.103922"/>
     <use style="fill:#ff0000;stroke:#ff0000;" x="254.538462" xlink:href="#m8fc16abbd1" y="89.373806"/>
     <use style="fill:#ff0000;stroke:#ff0000;" x="268.846154" xlink:href="#m8fc16abbd1" y="90.005217"/>
     <use style="fill:#ff0000;stroke:#ff0000;" x="283.153846" xlink:href="#m8fc16abbd1" y="89.023972"/>
     <use style="fill:#ff0000;stroke:#ff0000;" x="297.461538" xlink:href="#m8fc16abbd1" y="88.129942"/>
     <use style="fill:#ff0000;stroke:#ff0000;" x="311.769231" xlink:href="#m8fc16abbd1" y="88.334723"/>
     <use style="fill:#ff0000;stroke:#ff0000;" x="326.076923" xlink:href="#m8fc16abbd1" y="87.739414"/>
     <use style="fill:#ff0000;stroke:#ff0000;" x="340.384615" xlink:href="#m8fc16abbd1" y="88.532495"/>
     <use style="fill:#ff0000;stroke:#ff0000;" x="354.692308" xlink:href="#m8fc16abbd1" y="88.981409"/>
     <use style="fill:#ff0000;stroke:#ff0000;" x="369" xlink:href="#m8fc16abbd1" y="89.249089"/>
     <use style="fill:#ff0000;stroke:#ff0000;" x="383.307692" xlink:href="#m8fc16abbd1" y="87.739414"/>
     <use style="fill:#ff0000;stroke:#ff0000;" x="397.615385" xlink:href="#m8fc16abbd1" y="87.739414"/>
     <use style="fill:#ff0000;stroke:#ff0000;" x="411.923077" xlink:href="#m8fc16abbd1" y="88.373426"/>
     <use style="fill:#ff0000;stroke:#ff0000;" x="426.230769" xlink:href="#m8fc16abbd1" y="87.739414"/>
     <use style="fill:#ff0000;stroke:#ff0000;" x="440.538462" xlink:href="#m8fc16abbd1" y="87.739414"/>
     <use style="fill:#ff0000;stroke:#ff0000;" x="454.846154" xlink:href="#m8fc16abbd1" y="87.739414"/>
     <use style="fill:#ff0000;stroke:#ff0000;" x="469.153846" xlink:href="#m8fc16abbd1" y="88.615814"/>
     <use style="fill:#ff0000;stroke:#ff0000;" x="483.461538" xlink:href="#m8fc16abbd1" y="87.739414"/>
     <use style="fill:#ff0000;stroke:#ff0000;" x="497.769231" xlink:href="#m8fc16abbd1" y="87.739414"/>
     <use style="fill:#ff0000;stroke:#ff0000;" x="512.076923" xlink:href="#m8fc16abbd1" y="88.706872"/>
     <use style="fill:#ff0000;stroke:#ff0000;" x="526.384615" xlink:href="#m8fc16abbd1" y="89.409035"/>
     <use style="fill:#ff0000;stroke:#ff0000;" x="540.692308" xlink:href="#m8fc16abbd1" y="88.772108"/>
     <use style="fill:#ff0000;stroke:#ff0000;" x="555" xlink:href="#m8fc16abbd1" y="88.884705"/>
     <use style="fill:#ff0000;stroke:#ff0000;" x="569.307692" xlink:href="#m8fc16abbd1" y="88.882538"/>
     <use style="fill:#ff0000;stroke:#ff0000;" x="583.615385" xlink:href="#m8fc16abbd1" y="88.924343"/>
     <use style="fill:#ff0000;stroke:#ff0000;" x="597.923077" xlink:href="#m8fc16abbd1" y="87.739414"/>
     <use style="fill:#ff0000;stroke:#ff0000;" x="612.230769" xlink:href="#m8fc16abbd1" y="87.739414"/>
     <use style="fill:#ff0000;stroke:#ff0000;" x="626.538462" xlink:href="#m8fc16abbd1" y="89.176346"/>
     <use style="fill:#ff0000;stroke:#ff0000;" x="640.846154" xlink:href="#m8fc16abbd1" y="89.252001"/>
    </g>
   </g>
   <g id="line2d_14">
    <g clip-path="url(#p33a9a29022)">
     <use style="fill:#ff0000;stroke:#ff0000;" x="111.461538" xlink:href="#m8fc16abbd1" y="91.769832"/>
     <use style="fill:#ff0000;stroke:#ff0000;" x="125.769231" xlink:href="#m8fc16abbd1" y="103.671597"/>
     <use style="fill:#ff0000;stroke:#ff0000;" x="140.076923" xlink:href="#m8fc16abbd1" y="98.9404"/>
     <use style="fill:#ff0000;stroke:#ff0000;" x="154.384615" xlink:href="#m8fc16abbd1" y="95.89432"/>
     <use style="fill:#ff0000;stroke:#ff0000;" x="168.692308" xlink:href="#m8fc16abbd1" y="93.661411"/>
     <use style="fill:#ff0000;stroke:#ff0000;" x="183" xlink:href="#m8fc16abbd1" y="93.111717"/>
     <use style="fill:#ff0000;stroke:#ff0000;" x="197.307692" xlink:href="#m8fc16abbd1" y="91.568015"/>
     <use style="fill:#ff0000;stroke:#ff0000;" x="211.615385" xlink:href="#m8fc16abbd1" y="90.746619"/>
     <use style="fill:#ff0000;stroke:#ff0000;" x="225.923077" xlink:href="#m8fc16abbd1" y="89.425046"/>
     <use style="fill:#ff0000;stroke:#ff0000;" x="240.230769" xlink:href="#m8fc16abbd1" y="89.905762"/>
     <use style="fill:#ff0000;stroke:#ff0000;" x="254.538462" xlink:href="#m8fc16abbd1" y="88.564902"/>
     <use style="fill:#ff0000;stroke:#ff0000;" x="268.846154" xlink:href="#m8fc16abbd1" y="88.97119"/>
     <use style="fill:#ff0000;stroke:#ff0000;" x="283.153846" xlink:href="#m8fc16abbd1" y="88.235488"/>
     <use style="fill:#ff0000;stroke:#ff0000;" x="297.461538" xlink:href="#m8fc16abbd1" y="87.739777"/>
     <use style="fill:#ff0000;stroke:#ff0000;" x="311.769231" xlink:href="#m8fc16abbd1" y="87.842718"/>
     <use style="fill:#ff0000;stroke:#ff0000;" x="326.076923" xlink:href="#m8fc16abbd1" y="87.739414"/>
     <use style="fill:#ff0000;stroke:#ff0000;" x="340.384615" xlink:href="#m8fc16abbd1" y="87.877378"/>
     <use style="fill:#ff0000;stroke:#ff0000;" x="354.692308" xlink:href="#m8fc16abbd1" y="88.077705"/>
     <use style="fill:#ff0000;stroke:#ff0000;" x="369" xlink:href="#m8fc16abbd1" y="88.252419"/>
     <use style="fill:#ff0000;stroke:#ff0000;" x="383.307692" xlink:href="#m8fc16abbd1" y="87.739414"/>
     <use style="fill:#ff0000;stroke:#ff0000;" x="397.615385" xlink:href="#m8fc16abbd1" y="87.739414"/>
     <use style="fill:#ff0000;stroke:#ff0000;" x="411.923077" xlink:href="#m8fc16abbd1" y="87.740915"/>
     <use style="fill:#ff0000;stroke:#ff0000;" x="426.230769" xlink:href="#m8fc16abbd1" y="87.739414"/>
     <use style="fill:#ff0000;stroke:#ff0000;" x="440.538462" xlink:href="#m8fc16abbd1" y="87.739414"/>
     <use style="fill:#ff0000;stroke:#ff0000;" x="454.846154" xlink:href="#m8fc16abbd1" y="87.739414"/>
     <use style="fill:#ff0000;stroke:#ff0000;" x="469.153846" xlink:href="#m8fc16abbd1" y="87.742518"/>
     <use style="fill:#ff0000;stroke:#ff0000;" x="483.461538" xlink:href="#m8fc16abbd1" y="87.739414"/>
     <use style="fill:#ff0000;stroke:#ff0000;" x="497.769231" xlink:href="#m8fc16abbd1" y="87.739414"/>
     <use style="fill:#ff0000;stroke:#ff0000;" x="512.076923" xlink:href="#m8fc16abbd1" y="87.739583"/>
     <use style="fill:#ff0000;stroke:#ff0000;" x="526.384615" xlink:href="#m8fc16abbd1" y="88.039884"/>
     <use style="fill:#ff0000;stroke:#ff0000;" x="540.692308" xlink:href="#m8fc16abbd1" y="87.743609"/>
     <use style="fill:#ff0000;stroke:#ff0000;" x="555" xlink:href="#m8fc16abbd1" y="87.744877"/>
     <use style="fill:#ff0000;stroke:#ff0000;" x="569.307692" xlink:href="#m8fc16abbd1" y="87.747043"/>
     <use style="fill:#ff0000;stroke:#ff0000;" x="583.615385" xlink:href="#m8fc16abbd1" y="87.744153"/>
     <use style="fill:#ff0000;stroke:#ff0000;" x="597.923077" xlink:href="#m8fc16abbd1" y="87.739414"/>
     <use style="fill:#ff0000;stroke:#ff0000;" x="612.230769" xlink:href="#m8fc16abbd1" y="87.739414"/>
     <use style="fill:#ff0000;stroke:#ff0000;" x="626.538462" xlink:href="#m8fc16abbd1" y="87.74683"/>
     <use style="fill:#ff0000;stroke:#ff0000;" x="640.846154" xlink:href="#m8fc16abbd1" y="87.761166"/>
    </g>
   </g>
   <g id="line2d_15">
    <path clip-path="url(#p33a9a29022)" d="M 104.307692 114.475625 
L 118.615385 114.475625 
L 118.615385 126.922938 
L 132.923077 126.922938 
L 132.923077 121.186456 
L 147.230769 121.186456 
L 147.230769 117.635431 
L 161.538462 117.635431 
L 161.538462 113.955758 
L 175.846154 113.955758 
L 175.846154 109.306879 
L 190.153846 109.306879 
L 190.153846 106.047936 
L 204.461538 106.047936 
L 204.461538 102.082701 
L 218.769231 102.082701 
L 218.769231 101.699738 
L 233.076923 101.699738 
L 233.076923 100.705707 
L 247.384615 100.705707 
L 247.384615 97.922679 
L 261.692308 97.922679 
L 261.692308 97.484842 
L 276 97.484842 
L 276 98.54026 
L 290.307692 98.54026 
L 290.307692 95.695401 
L 304.615385 95.695401 
L 304.615385 95.211691 
L 318.923077 95.211691 
L 318.923077 95.289357 
L 333.230769 95.289357 
L 333.230769 95.214754 
L 347.538462 95.214754 
L 347.538462 94.692015 
L 361.846154 94.692015 
L 361.846154 94.912816 
L 376.153846 94.912816 
L 376.153846 93.830685 
L 390.461538 93.830685 
L 390.461538 93.368246 
L 404.769231 93.368246 
L 404.769231 92.119772 
L 419.076923 92.119772 
L 419.076923 92.561765 
L 433.384615 92.561765 
L 433.384615 89.871547 
L 447.692308 89.871547 
L 447.692308 91.575261 
L 462 91.575261 
L 462 93.766022 
L 476.307692 93.766022 
L 476.307692 92.467632 
L 490.615385 92.467632 
L 490.615385 89.495288 
L 504.923077 89.495288 
L 504.923077 91.092227 
L 519.230769 91.092227 
L 519.230769 93.078477 
L 533.538462 93.078477 
L 533.538462 93.335192 
L 547.846154 93.335192 
L 547.846154 89.46018 
L 562.153846 89.46018 
L 562.153846 91.719216 
L 576.461538 91.719216 
L 576.461538 92.428691 
L 590.769231 92.428691 
L 590.769231 91.334471 
L 605.076923 91.334471 
L 605.076923 91.832401 
L 619.384615 91.832401 
L 619.384615 91.316695 
L 633.692308 91.316695 
L 633.692308 92.283417 
L 648 92.283417 
" style="fill:none;stroke:#0000ff;stroke-linecap:square;stroke-width:1.5;"/>
   </g>
   <g id="line2d_16">
    <defs>
     <path d="M 2 0 
L -2 -0 
" id="m017c87c4e8" style="stroke:#0000ff;"/>
    </defs>
    <g clip-path="url(#p33a9a29022)">
     <use style="fill:#0000ff;stroke:#0000ff;" x="111.461538" xlink:href="#m017c87c4e8" y="119.384824"/>
     <use style="fill:#0000ff;stroke:#0000ff;" x="125.769231" xlink:href="#m017c87c4e8" y="128.692406"/>
     <use style="fill:#0000ff;stroke:#0000ff;" x="140.076923" xlink:href="#m017c87c4e8" y="122.73241"/>
     <use style="fill:#0000ff;stroke:#0000ff;" x="154.384615" xlink:href="#m017c87c4e8" y="119.154276"/>
     <use style="fill:#0000ff;stroke:#0000ff;" x="168.692308" xlink:href="#m017c87c4e8" y="115.443236"/>
     <use style="fill:#0000ff;stroke:#0000ff;" x="183" xlink:href="#m017c87c4e8" y="110.698023"/>
     <use style="fill:#0000ff;stroke:#0000ff;" x="197.307692" xlink:href="#m017c87c4e8" y="107.30514"/>
     <use style="fill:#0000ff;stroke:#0000ff;" x="211.615385" xlink:href="#m017c87c4e8" y="103.333326"/>
     <use style="fill:#0000ff;stroke:#0000ff;" x="225.923077" xlink:href="#m017c87c4e8" y="102.977213"/>
     <use style="fill:#0000ff;stroke:#0000ff;" x="240.230769" xlink:href="#m017c87c4e8" y="101.980163"/>
     <use style="fill:#0000ff;stroke:#0000ff;" x="254.538462" xlink:href="#m017c87c4e8" y="99.057415"/>
     <use style="fill:#0000ff;stroke:#0000ff;" x="268.846154" xlink:href="#m017c87c4e8" y="98.684685"/>
     <use style="fill:#0000ff;stroke:#0000ff;" x="283.153846" xlink:href="#m017c87c4e8" y="99.869979"/>
     <use style="fill:#0000ff;stroke:#0000ff;" x="297.461538" xlink:href="#m017c87c4e8" y="96.902999"/>
     <use style="fill:#0000ff;stroke:#0000ff;" x="311.769231" xlink:href="#m017c87c4e8" y="96.320785"/>
     <use style="fill:#0000ff;stroke:#0000ff;" x="326.076923" xlink:href="#m017c87c4e8" y="96.564159"/>
     <use style="fill:#0000ff;stroke:#0000ff;" x="340.384615" xlink:href="#m017c87c4e8" y="96.495824"/>
     <use style="fill:#0000ff;stroke:#0000ff;" x="354.692308" xlink:href="#m017c87c4e8" y="96.009837"/>
     <use style="fill:#0000ff;stroke:#0000ff;" x="369" xlink:href="#m017c87c4e8" y="96.223042"/>
     <use style="fill:#0000ff;stroke:#0000ff;" x="383.307692" xlink:href="#m017c87c4e8" y="95.143367"/>
     <use style="fill:#0000ff;stroke:#0000ff;" x="397.615385" xlink:href="#m017c87c4e8" y="94.612423"/>
     <use style="fill:#0000ff;stroke:#0000ff;" x="411.923077" xlink:href="#m017c87c4e8" y="93.27967"/>
     <use style="fill:#0000ff;stroke:#0000ff;" x="426.230769" xlink:href="#m017c87c4e8" y="93.794639"/>
     <use style="fill:#0000ff;stroke:#0000ff;" x="440.538462" xlink:href="#m017c87c4e8" y="90.73821"/>
     <use style="fill:#0000ff;stroke:#0000ff;" x="454.846154" xlink:href="#m017c87c4e8" y="92.778778"/>
     <use style="fill:#0000ff;stroke:#0000ff;" x="469.153846" xlink:href="#m017c87c4e8" y="95.356154"/>
     <use style="fill:#0000ff;stroke:#0000ff;" x="483.461538" xlink:href="#m017c87c4e8" y="93.819385"/>
     <use style="fill:#0000ff;stroke:#0000ff;" x="497.769231" xlink:href="#m017c87c4e8" y="90.37009"/>
     <use style="fill:#0000ff;stroke:#0000ff;" x="512.076923" xlink:href="#m017c87c4e8" y="92.350928"/>
     <use style="fill:#0000ff;stroke:#0000ff;" x="526.384615" xlink:href="#m017c87c4e8" y="94.666289"/>
     <use style="fill:#0000ff;stroke:#0000ff;" x="540.692308" xlink:href="#m017c87c4e8" y="95.002018"/>
     <use style="fill:#0000ff;stroke:#0000ff;" x="555" xlink:href="#m017c87c4e8" y="90.447439"/>
     <use style="fill:#0000ff;stroke:#0000ff;" x="569.307692" xlink:href="#m017c87c4e8" y="93.20864"/>
     <use style="fill:#0000ff;stroke:#0000ff;" x="583.615385" xlink:href="#m017c87c4e8" y="94.069334"/>
     <use style="fill:#0000ff;stroke:#0000ff;" x="597.923077" xlink:href="#m017c87c4e8" y="92.791394"/>
     <use style="fill:#0000ff;stroke:#0000ff;" x="612.230769" xlink:href="#m017c87c4e8" y="93.489412"/>
     <use style="fill:#0000ff;stroke:#0000ff;" x="626.538462" xlink:href="#m017c87c4e8" y="92.902028"/>
     <use style="fill:#0000ff;stroke:#0000ff;" x="640.846154" xlink:href="#m017c87c4e8" y="94.11073"/>
    </g>
   </g>
   <g id="line2d_17">
    <g clip-path="url(#p33a9a29022)">
     <use style="fill:#0000ff;stroke:#0000ff;" x="111.461538" xlink:href="#m017c87c4e8" y="109.566427"/>
     <use style="fill:#0000ff;stroke:#0000ff;" x="125.769231" xlink:href="#m017c87c4e8" y="125.15347"/>
     <use style="fill:#0000ff;stroke:#0000ff;" x="140.076923" xlink:href="#m017c87c4e8" y="119.640501"/>
     <use style="fill:#0000ff;stroke:#0000ff;" x="154.384615" xlink:href="#m017c87c4e8" y="116.116585"/>
     <use style="fill:#0000ff;stroke:#0000ff;" x="168.692308" xlink:href="#m017c87c4e8" y="112.46828"/>
     <use style="fill:#0000ff;stroke:#0000ff;" x="183" xlink:href="#m017c87c4e8" y="107.915735"/>
     <use style="fill:#0000ff;stroke:#0000ff;" x="197.307692" xlink:href="#m017c87c4e8" y="104.790731"/>
     <use style="fill:#0000ff;stroke:#0000ff;" x="211.615385" xlink:href="#m017c87c4e8" y="100.832075"/>
     <use style="fill:#0000ff;stroke:#0000ff;" x="225.923077" xlink:href="#m017c87c4e8" y="100.422263"/>
     <use style="fill:#0000ff;stroke:#0000ff;" x="240.230769" xlink:href="#m017c87c4e8" y="99.43125"/>
     <use style="fill:#0000ff;stroke:#0000ff;" x="254.538462" xlink:href="#m017c87c4e8" y="96.787944"/>
     <use style="fill:#0000ff;stroke:#0000ff;" x="268.846154" xlink:href="#m017c87c4e8" y="96.284999"/>
     <use style="fill:#0000ff;stroke:#0000ff;" x="283.153846" xlink:href="#m017c87c4e8" y="97.210542"/>
     <use style="fill:#0000ff;stroke:#0000ff;" x="297.461538" xlink:href="#m017c87c4e8" y="94.487802"/>
     <use style="fill:#0000ff;stroke:#0000ff;" x="311.769231" xlink:href="#m017c87c4e8" y="94.102598"/>
     <use style="fill:#0000ff;stroke:#0000ff;" x="326.076923" xlink:href="#m017c87c4e8" y="94.014555"/>
     <use style="fill:#0000ff;stroke:#0000ff;" x="340.384615" xlink:href="#m017c87c4e8" y="93.933684"/>
     <use style="fill:#0000ff;stroke:#0000ff;" x="354.692308" xlink:href="#m017c87c4e8" y="93.374194"/>
     <use style="fill:#0000ff;stroke:#0000ff;" x="369" xlink:href="#m017c87c4e8" y="93.602589"/>
     <use style="fill:#0000ff;stroke:#0000ff;" x="383.307692" xlink:href="#m017c87c4e8" y="92.518003"/>
     <use style="fill:#0000ff;stroke:#0000ff;" x="397.615385" xlink:href="#m017c87c4e8" y="92.124068"/>
     <use style="fill:#0000ff;stroke:#0000ff;" x="411.923077" xlink:href="#m017c87c4e8" y="90.959874"/>
     <use style="fill:#0000ff;stroke:#0000ff;" x="426.230769" xlink:href="#m017c87c4e8" y="91.328891"/>
     <use style="fill:#0000ff;stroke:#0000ff;" x="440.538462" xlink:href="#m017c87c4e8" y="89.004884"/>
     <use style="fill:#0000ff;stroke:#0000ff;" x="454.846154" xlink:href="#m017c87c4e8" y="90.371744"/>
     <use style="fill:#0000ff;stroke:#0000ff;" x="469.153846" xlink:href="#m017c87c4e8" y="92.175889"/>
     <use style="fill:#0000ff;stroke:#0000ff;" x="483.461538" xlink:href="#m017c87c4e8" y="91.11588"/>
     <use style="fill:#0000ff;stroke:#0000ff;" x="497.769231" xlink:href="#m017c87c4e8" y="88.620487"/>
     <use style="fill:#0000ff;stroke:#0000ff;" x="512.076923" xlink:href="#m017c87c4e8" y="89.833526"/>
     <use style="fill:#0000ff;stroke:#0000ff;" x="526.384615" xlink:href="#m017c87c4e8" y="91.490665"/>
     <use style="fill:#0000ff;stroke:#0000ff;" x="540.692308" xlink:href="#m017c87c4e8" y="91.668367"/>
     <use style="fill:#0000ff;stroke:#0000ff;" x="555" xlink:href="#m017c87c4e8" y="88.472921"/>
     <use style="fill:#0000ff;stroke:#0000ff;" x="569.307692" xlink:href="#m017c87c4e8" y="90.229792"/>
     <use style="fill:#0000ff;stroke:#0000ff;" x="583.615385" xlink:href="#m017c87c4e8" y="90.788048"/>
     <use style="fill:#0000ff;stroke:#0000ff;" x="597.923077" xlink:href="#m017c87c4e8" y="89.877547"/>
     <use style="fill:#0000ff;stroke:#0000ff;" x="612.230769" xlink:href="#m017c87c4e8" y="90.17539"/>
     <use style="fill:#0000ff;stroke:#0000ff;" x="626.538462" xlink:href="#m017c87c4e8" y="89.731363"/>
     <use style="fill:#0000ff;stroke:#0000ff;" x="640.846154" xlink:href="#m017c87c4e8" y="90.456105"/>
    </g>
   </g>
   <g id="patch_3">
    <path d="M 90 334.0008 
L 90 85.2768 
" style="fill:none;stroke:#000000;stroke-linecap:square;stroke-linejoin:miter;stroke-width:0.8;"/>
   </g>
   <g id="patch_4">
    <path d="M 648 334.0008 
L 648 85.2768 
" style="fill:none;stroke:#000000;stroke-linecap:square;stroke-linejoin:miter;stroke-width:0.8;"/>
   </g>
   <g id="patch_5">
    <path d="M 90 334.0008 
L 648 334.0008 
" style="fill:none;stroke:#000000;stroke-linecap:square;stroke-linejoin:miter;stroke-width:0.8;"/>
   </g>
   <g id="patch_6">
    <path d="M 90 85.2768 
L 648 85.2768 
" style="fill:none;stroke:#000000;stroke-linecap:square;stroke-linejoin:miter;stroke-width:0.8;"/>
   </g>
   <g id="legend_1">
    <g id="patch_7">
     <path d="M 266.025938 325.0008 
L 471.974063 325.0008 
Q 475.574063 325.0008 475.574063 321.4008 
L 475.574063 243.938925 
Q 475.574063 240.338925 471.974063 240.338925 
L 266.025938 240.338925 
Q 262.425938 240.338925 262.425938 243.938925 
L 262.425938 321.4008 
Q 262.425938 325.0008 266.025938 325.0008 
z
" style="fill:#ffffff;opacity:0.5;stroke:#cccccc;stroke-linejoin:miter;"/>
    </g>
    <g id="line2d_18">
     <path d="M 269.625938 254.916112 
L 305.625938 254.916112 
" style="fill:none;stroke:#008000;stroke-linecap:square;stroke-width:1.5;"/>
    </g>
    <g id="line2d_19"/>
    <g id="text_6">
     <!-- Efficiency -->
     <defs>
      <path d="M 9.8125 72.90625 
L 55.90625 72.90625 
L 55.90625 64.59375 
L 19.671875 64.59375 
L 19.671875 43.015625 
L 54.390625 43.015625 
L 54.390625 34.71875 
L 19.671875 34.71875 
L 19.671875 8.296875 
L 56.78125 8.296875 
L 56.78125 0 
L 9.8125 0 
z
" id="DejaVuSans-69"/>
      <path d="M 37.109375 75.984375 
L 37.109375 68.5 
L 28.515625 68.5 
Q 23.6875 68.5 21.796875 66.546875 
Q 19.921875 64.59375 19.921875 59.515625 
L 19.921875 54.6875 
L 34.71875 54.6875 
L 34.71875 47.703125 
L 19.921875 47.703125 
L 19.921875 0 
L 10.890625 0 
L 10.890625 47.703125 
L 2.296875 47.703125 
L 2.296875 54.6875 
L 10.890625 54.6875 
L 10.890625 58.5 
Q 10.890625 67.625 15.140625 71.796875 
Q 19.390625 75.984375 28.609375 75.984375 
z
" id="DejaVuSans-102"/>
      <path d="M 56.203125 29.59375 
L 56.203125 25.203125 
L 14.890625 25.203125 
Q 15.484375 15.921875 20.484375 11.0625 
Q 25.484375 6.203125 34.421875 6.203125 
Q 39.59375 6.203125 44.453125 7.46875 
Q 49.3125 8.734375 54.109375 11.28125 
L 54.109375 2.78125 
Q 49.265625 0.734375 44.1875 -0.34375 
Q 39.109375 -1.421875 33.890625 -1.421875 
Q 20.796875 -1.421875 13.15625 6.1875 
Q 5.515625 13.8125 5.515625 26.8125 
Q 5.515625 40.234375 12.765625 48.109375 
Q 20.015625 56 32.328125 56 
Q 43.359375 56 49.78125 48.890625 
Q 56.203125 41.796875 56.203125 29.59375 
z
M 47.21875 32.234375 
Q 47.125 39.59375 43.09375 43.984375 
Q 39.0625 48.390625 32.421875 48.390625 
Q 24.90625 48.390625 20.390625 44.140625 
Q 15.875 39.890625 15.1875 32.171875 
z
" id="DejaVuSans-101"/>
      <path d="M 32.171875 -5.078125 
Q 28.375 -14.84375 24.75 -17.8125 
Q 21.140625 -20.796875 15.09375 -20.796875 
L 7.90625 -20.796875 
L 7.90625 -13.28125 
L 13.1875 -13.28125 
Q 16.890625 -13.28125 18.9375 -11.515625 
Q 21 -9.765625 23.484375 -3.21875 
L 25.09375 0.875 
L 2.984375 54.6875 
L 12.5 54.6875 
L 29.59375 11.921875 
L 46.6875 54.6875 
L 56.203125 54.6875 
z
" id="DejaVuSans-121"/>
     </defs>
     <g transform="translate(320.025937 261.216113)scale(0.18 -0.18)">
      <use xlink:href="#DejaVuSans-69"/>
      <use x="63.183594" xlink:href="#DejaVuSans-102"/>
      <use x="98.388672" xlink:href="#DejaVuSans-102"/>
      <use x="133.59375" xlink:href="#DejaVuSans-105"/>
      <use x="161.376953" xlink:href="#DejaVuSans-99"/>
      <use x="216.357422" xlink:href="#DejaVuSans-105"/>
      <use x="244.140625" xlink:href="#DejaVuSans-101"/>
      <use x="305.664062" xlink:href="#DejaVuSans-110"/>
      <use x="369.042969" xlink:href="#DejaVuSans-99"/>
      <use x="424.023438" xlink:href="#DejaVuSans-121"/>
     </g>
    </g>
    <g id="line2d_20">
     <path d="M 269.625938 281.336737 
L 305.625938 281.336737 
" style="fill:none;stroke:#ff0000;stroke-linecap:square;stroke-width:1.5;"/>
    </g>
    <g id="line2d_21"/>
    <g id="text_7">
     <!-- Purity -->
     <defs>
      <path d="M 19.671875 64.796875 
L 19.671875 37.40625 
L 32.078125 37.40625 
Q 38.96875 37.40625 42.71875 40.96875 
Q 46.484375 44.53125 46.484375 51.125 
Q 46.484375 57.671875 42.71875 61.234375 
Q 38.96875 64.796875 32.078125 64.796875 
z
M 9.8125 72.90625 
L 32.078125 72.90625 
Q 44.34375 72.90625 50.609375 67.359375 
Q 56.890625 61.8125 56.890625 51.125 
Q 56.890625 40.328125 50.609375 34.8125 
Q 44.34375 29.296875 32.078125 29.296875 
L 19.671875 29.296875 
L 19.671875 0 
L 9.8125 0 
z
" id="DejaVuSans-80"/>
      <path d="M 8.5 21.578125 
L 8.5 54.6875 
L 17.484375 54.6875 
L 17.484375 21.921875 
Q 17.484375 14.15625 20.5 10.265625 
Q 23.53125 6.390625 29.59375 6.390625 
Q 36.859375 6.390625 41.078125 11.03125 
Q 45.3125 15.671875 45.3125 23.6875 
L 45.3125 54.6875 
L 54.296875 54.6875 
L 54.296875 0 
L 45.3125 0 
L 45.3125 8.40625 
Q 42.046875 3.421875 37.71875 1 
Q 33.40625 -1.421875 27.6875 -1.421875 
Q 18.265625 -1.421875 13.375 4.4375 
Q 8.5 10.296875 8.5 21.578125 
z
M 31.109375 56 
z
" id="DejaVuSans-117"/>
     </defs>
     <g transform="translate(320.025937 287.636737)scale(0.18 -0.18)">
      <use xlink:href="#DejaVuSans-80"/>
      <use x="60.287109" xlink:href="#DejaVuSans-117"/>
      <use x="123.666016" xlink:href="#DejaVuSans-114"/>
      <use x="164.779297" xlink:href="#DejaVuSans-105"/>
      <use x="192.5625" xlink:href="#DejaVuSans-116"/>
      <use x="231.771484" xlink:href="#DejaVuSans-121"/>
     </g>
    </g>
    <g id="line2d_22">
     <path d="M 269.625938 307.757362 
L 305.625938 307.757362 
" style="fill:none;stroke:#0000ff;stroke-linecap:square;stroke-width:1.5;"/>
    </g>
    <g id="line2d_23"/>
    <g id="text_8">
     <!-- Purity*Efficiency -->
     <defs>
      <path d="M 47.015625 60.890625 
L 29.5 51.421875 
L 47.015625 41.890625 
L 44.1875 37.109375 
L 27.78125 47.015625 
L 27.78125 28.609375 
L 22.21875 28.609375 
L 22.21875 47.015625 
L 5.8125 37.109375 
L 2.984375 41.890625 
L 20.515625 51.421875 
L 2.984375 60.890625 
L 5.8125 65.71875 
L 22.21875 55.8125 
L 22.21875 74.21875 
L 27.78125 74.21875 
L 27.78125 55.8125 
L 44.1875 65.71875 
z
" id="DejaVuSans-42"/>
     </defs>
     <g transform="translate(320.025937 314.057363)scale(0.18 -0.18)">
      <use xlink:href="#DejaVuSans-80"/>
      <use x="60.287109" xlink:href="#DejaVuSans-117"/>
      <use x="123.666016" xlink:href="#DejaVuSans-114"/>
      <use x="164.779297" xlink:href="#DejaVuSans-105"/>
      <use x="192.5625" xlink:href="#DejaVuSans-116"/>
      <use x="231.771484" xlink:href="#DejaVuSans-121"/>
      <use x="290.951172" xlink:href="#DejaVuSans-42"/>
      <use x="340.951172" xlink:href="#DejaVuSans-69"/>
      <use x="404.134766" xlink:href="#DejaVuSans-102"/>
      <use x="439.339844" xlink:href="#DejaVuSans-102"/>
      <use x="474.544922" xlink:href="#DejaVuSans-105"/>
      <use x="502.328125" xlink:href="#DejaVuSans-99"/>
      <use x="557.308594" xlink:href="#DejaVuSans-105"/>
      <use x="585.091797" xlink:href="#DejaVuSans-101"/>
      <use x="646.615234" xlink:href="#DejaVuSans-110"/>
      <use x="709.994141" xlink:href="#DejaVuSans-99"/>
      <use x="764.974609" xlink:href="#DejaVuSans-121"/>
     </g>
    </g>
   </g>
  </g>
  <g id="axes_2">
   <g id="patch_8">
    <path d="M 90 632.4696 
L 648 632.4696 
L 648 383.7456 
L 90 383.7456 
z
" style="fill:#ffffff;"/>
   </g>
   <g id="patch_9">
    <path clip-path="url(#p312f157264)" d="M 90 66232.850751 
L 90 66232.850751 
L 104.307692 66232.850751 
L 104.307692 465.232741 
L 118.615385 465.232741 
L 118.615385 400.128393 
L 132.923077 400.128393 
L 132.923077 395.051236 
L 147.230769 395.051236 
L 147.230769 396.217 
L 161.538462 396.217 
L 161.538462 397.890751 
L 175.846154 397.890751 
L 175.846154 399.063826 
L 190.153846 399.063826 
L 190.153846 397.266671 
L 204.461538 397.266671 
L 204.461538 403.364496 
L 218.769231 403.364496 
L 218.769231 404.965117 
L 233.076923 404.965117 
L 233.076923 406.984749 
L 247.384615 406.984749 
L 247.384615 406.630389 
L 261.692308 406.630389 
L 261.692308 411.114898 
L 276 411.114898 
L 276 414.017735 
L 290.307692 414.017735 
L 290.307692 416.852888 
L 304.615385 416.852888 
L 304.615385 413.741276 
L 318.923077 413.741276 
L 318.923077 421.380869 
L 333.230769 421.380869 
L 333.230769 421.951822 
L 347.538462 421.951822 
L 347.538462 425.611094 
L 361.846154 425.611094 
L 361.846154 424.471735 
L 376.153846 424.471735 
L 376.153846 428.99339 
L 390.461538 428.99339 
L 390.461538 428.133853 
L 404.769231 428.133853 
L 404.769231 431.154177 
L 419.076923 431.154177 
L 419.076923 431.924849 
L 433.384615 431.924849 
L 433.384615 434.778664 
L 447.692308 434.778664 
L 447.692308 436.956855 
L 462 436.956855 
L 462 440.246559 
L 476.307692 440.246559 
L 476.307692 437.72156 
L 490.615385 437.72156 
L 490.615385 440.799873 
L 504.923077 440.799873 
L 504.923077 443.293101 
L 519.230769 443.293101 
L 519.230769 443.683829 
L 533.538462 443.683829 
L 533.538462 445.006731 
L 547.846154 445.006731 
L 547.846154 448.444 
L 562.153846 448.444 
L 562.153846 448.179546 
L 576.461538 448.179546 
L 576.461538 449.048153 
L 590.769231 449.048153 
L 590.769231 449.665393 
L 605.076923 449.665393 
L 605.076923 453.361602 
L 619.384615 453.361602 
L 619.384615 454.736086 
L 633.692308 454.736086 
L 633.692308 453.125782 
L 648 453.125782 
L 648 66232.850751 
z
" style="fill:#1f77b4;opacity:0.2;"/>
   </g>
   <g id="matplotlib.axis_3">
    <g id="xtick_6">
     <g id="line2d_24">
      <g>
       <use style="stroke:#000000;stroke-width:0.8;" x="90" xlink:href="#m25336bcb8e" y="632.4696"/>
      </g>
     </g>
     <g id="text_9">
      <!-- 0 -->
      <g transform="translate(81.7542 659.16475)scale(0.2592 -0.2592)">
       <use xlink:href="#DejaVuSans-48"/>
      </g>
     </g>
    </g>
    <g id="xtick_7">
     <g id="line2d_25">
      <g>
       <use style="stroke:#000000;stroke-width:0.8;" x="229.5" xlink:href="#m25336bcb8e" y="632.4696"/>
      </g>
     </g>
     <g id="text_10">
      <!-- 100 -->
      <g transform="translate(204.7626 659.16475)scale(0.2592 -0.2592)">
       <use xlink:href="#DejaVuSans-49"/>
       <use x="63.623047" xlink:href="#DejaVuSans-48"/>
       <use x="127.246094" xlink:href="#DejaVuSans-48"/>
      </g>
     </g>
    </g>
    <g id="xtick_8">
     <g id="line2d_26">
      <g>
       <use style="stroke:#000000;stroke-width:0.8;" x="369" xlink:href="#m25336bcb8e" y="632.4696"/>
      </g>
     </g>
     <g id="text_11">
      <!-- 200 -->
      <defs>
       <path d="M 19.1875 8.296875 
L 53.609375 8.296875 
L 53.609375 0 
L 7.328125 0 
L 7.328125 8.296875 
Q 12.9375 14.109375 22.625 23.890625 
Q 32.328125 33.6875 34.8125 36.53125 
Q 39.546875 41.84375 41.421875 45.53125 
Q 43.3125 49.21875 43.3125 52.78125 
Q 43.3125 58.59375 39.234375 62.25 
Q 35.15625 65.921875 28.609375 65.921875 
Q 23.96875 65.921875 18.8125 64.3125 
Q 13.671875 62.703125 7.8125 59.421875 
L 7.8125 69.390625 
Q 13.765625 71.78125 18.9375 73 
Q 24.125 74.21875 28.421875 74.21875 
Q 39.75 74.21875 46.484375 68.546875 
Q 53.21875 62.890625 53.21875 53.421875 
Q 53.21875 48.921875 51.53125 44.890625 
Q 49.859375 40.875 45.40625 35.40625 
Q 44.1875 33.984375 37.640625 27.21875 
Q 31.109375 20.453125 19.1875 8.296875 
z
" id="DejaVuSans-50"/>
      </defs>
      <g transform="translate(344.2626 659.16475)scale(0.2592 -0.2592)">
       <use xlink:href="#DejaVuSans-50"/>
       <use x="63.623047" xlink:href="#DejaVuSans-48"/>
       <use x="127.246094" xlink:href="#DejaVuSans-48"/>
      </g>
     </g>
    </g>
    <g id="xtick_9">
     <g id="line2d_27">
      <g>
       <use style="stroke:#000000;stroke-width:0.8;" x="508.5" xlink:href="#m25336bcb8e" y="632.4696"/>
      </g>
     </g>
     <g id="text_12">
      <!-- 300 -->
      <defs>
       <path d="M 40.578125 39.3125 
Q 47.65625 37.796875 51.625 33 
Q 55.609375 28.21875 55.609375 21.1875 
Q 55.609375 10.40625 48.1875 4.484375 
Q 40.765625 -1.421875 27.09375 -1.421875 
Q 22.515625 -1.421875 17.65625 -0.515625 
Q 12.796875 0.390625 7.625 2.203125 
L 7.625 11.71875 
Q 11.71875 9.328125 16.59375 8.109375 
Q 21.484375 6.890625 26.8125 6.890625 
Q 36.078125 6.890625 40.9375 10.546875 
Q 45.796875 14.203125 45.796875 21.1875 
Q 45.796875 27.640625 41.28125 31.265625 
Q 36.765625 34.90625 28.71875 34.90625 
L 20.21875 34.90625 
L 20.21875 43.015625 
L 29.109375 43.015625 
Q 36.375 43.015625 40.234375 45.921875 
Q 44.09375 48.828125 44.09375 54.296875 
Q 44.09375 59.90625 40.109375 62.90625 
Q 36.140625 65.921875 28.71875 65.921875 
Q 24.65625 65.921875 20.015625 65.03125 
Q 15.375 64.15625 9.8125 62.3125 
L 9.8125 71.09375 
Q 15.4375 72.65625 20.34375 73.4375 
Q 25.25 74.21875 29.59375 74.21875 
Q 40.828125 74.21875 47.359375 69.109375 
Q 53.90625 64.015625 53.90625 55.328125 
Q 53.90625 49.265625 50.4375 45.09375 
Q 46.96875 40.921875 40.578125 39.3125 
z
" id="DejaVuSans-51"/>
      </defs>
      <g transform="translate(483.7626 659.16475)scale(0.2592 -0.2592)">
       <use xlink:href="#DejaVuSans-51"/>
       <use x="63.623047" xlink:href="#DejaVuSans-48"/>
       <use x="127.246094" xlink:href="#DejaVuSans-48"/>
      </g>
     </g>
    </g>
    <g id="xtick_10">
     <g id="line2d_28">
      <g>
       <use style="stroke:#000000;stroke-width:0.8;" x="648" xlink:href="#m25336bcb8e" y="632.4696"/>
      </g>
     </g>
     <g id="text_13">
      <!-- 400 -->
      <defs>
       <path d="M 37.796875 64.3125 
L 12.890625 25.390625 
L 37.796875 25.390625 
z
M 35.203125 72.90625 
L 47.609375 72.90625 
L 47.609375 25.390625 
L 58.015625 25.390625 
L 58.015625 17.1875 
L 47.609375 17.1875 
L 47.609375 0 
L 37.796875 0 
L 37.796875 17.1875 
L 4.890625 17.1875 
L 4.890625 26.703125 
z
" id="DejaVuSans-52"/>
      </defs>
      <g transform="translate(623.2626 659.16475)scale(0.2592 -0.2592)">
       <use xlink:href="#DejaVuSans-52"/>
       <use x="63.623047" xlink:href="#DejaVuSans-48"/>
       <use x="127.246094" xlink:href="#DejaVuSans-48"/>
      </g>
     </g>
    </g>
    <g id="text_14">
     <!-- nHitsW -->
     <g transform="translate(322.79355 688.25045)scale(0.2592 -0.2592)">
      <use xlink:href="#DejaVuSans-110"/>
      <use x="63.378906" xlink:href="#DejaVuSans-72"/>
      <use x="138.574219" xlink:href="#DejaVuSans-105"/>
      <use x="166.357422" xlink:href="#DejaVuSans-116"/>
      <use x="205.566406" xlink:href="#DejaVuSans-115"/>
      <use x="257.666016" xlink:href="#DejaVuSans-87"/>
     </g>
    </g>
   </g>
   <g id="matplotlib.axis_4">
    <g id="ytick_4">
     <g id="line2d_29">
      <g>
       <use style="stroke:#000000;stroke-width:0.8;" x="90" xlink:href="#m670cb76da5" y="555.552277"/>
      </g>
     </g>
     <g id="text_15">
      <!-- $\mathdefault{10^{1}}$ -->
      <g transform="translate(37.3808 565.399852)scale(0.2592 -0.2592)">
       <use transform="translate(0 0.684375)" xlink:href="#DejaVuSans-49"/>
       <use transform="translate(63.623047 0.684375)" xlink:href="#DejaVuSans-48"/>
       <use transform="translate(128.203125 38.965625)scale(0.7)" xlink:href="#DejaVuSans-49"/>
      </g>
     </g>
    </g>
    <g id="ytick_5">
     <g id="line2d_30">
      <g>
       <use style="stroke:#000000;stroke-width:0.8;" x="90" xlink:href="#m670cb76da5" y="424.328903"/>
      </g>
     </g>
     <g id="text_16">
      <!-- $\mathdefault{10^{3}}$ -->
      <g transform="translate(37.3808 434.176478)scale(0.2592 -0.2592)">
       <use transform="translate(0 0.765625)" xlink:href="#DejaVuSans-49"/>
       <use transform="translate(63.623047 0.765625)" xlink:href="#DejaVuSans-48"/>
       <use transform="translate(128.203125 39.046875)scale(0.7)" xlink:href="#DejaVuSans-51"/>
      </g>
     </g>
    </g>
    <g id="text_17">
     <!-- Count -->
     <defs>
      <path d="M 64.40625 67.28125 
L 64.40625 56.890625 
Q 59.421875 61.53125 53.78125 63.8125 
Q 48.140625 66.109375 41.796875 66.109375 
Q 29.296875 66.109375 22.65625 58.46875 
Q 16.015625 50.828125 16.015625 36.375 
Q 16.015625 21.96875 22.65625 14.328125 
Q 29.296875 6.6875 41.796875 6.6875 
Q 48.140625 6.6875 53.78125 8.984375 
Q 59.421875 11.28125 64.40625 15.921875 
L 64.40625 5.609375 
Q 59.234375 2.09375 53.4375 0.328125 
Q 47.65625 -1.421875 41.21875 -1.421875 
Q 24.65625 -1.421875 15.125 8.703125 
Q 5.609375 18.84375 5.609375 36.375 
Q 5.609375 53.953125 15.125 64.078125 
Q 24.65625 74.21875 41.21875 74.21875 
Q 47.75 74.21875 53.53125 72.484375 
Q 59.328125 70.75 64.40625 67.28125 
z
" id="DejaVuSans-67"/>
     </defs>
     <g transform="translate(27.99025 546.59475)rotate(-90)scale(0.2592 -0.2592)">
      <use xlink:href="#DejaVuSans-67"/>
      <use x="69.824219" xlink:href="#DejaVuSans-111"/>
      <use x="131.005859" xlink:href="#DejaVuSans-117"/>
      <use x="194.384766" xlink:href="#DejaVuSans-110"/>
      <use x="257.763672" xlink:href="#DejaVuSans-116"/>
     </g>
    </g>
   </g>
   <g id="line2d_31">
    <path clip-path="url(#p312f157264)" d="M 104.307692 711.64 
L 104.307692 465.232741 
L 118.615385 465.232741 
L 118.615385 400.128393 
L 132.923077 400.128393 
L 132.923077 395.051236 
L 147.230769 395.051236 
L 147.230769 396.217 
L 161.538462 396.217 
L 161.538462 397.890751 
L 175.846154 397.890751 
L 175.846154 399.063826 
L 190.153846 399.063826 
L 190.153846 397.266671 
L 204.461538 397.266671 
L 204.461538 403.364496 
L 218.769231 403.364496 
L 218.769231 404.965117 
L 233.076923 404.965117 
L 233.076923 406.984749 
L 247.384615 406.984749 
L 247.384615 406.630389 
L 261.692308 406.630389 
L 261.692308 411.114898 
L 276 411.114898 
L 276 414.017735 
L 290.307692 414.017735 
L 290.307692 416.852888 
L 304.615385 416.852888 
L 304.615385 413.741276 
L 318.923077 413.741276 
L 318.923077 421.380869 
L 333.230769 421.380869 
L 333.230769 421.951822 
L 347.538462 421.951822 
L 347.538462 425.611094 
L 361.846154 425.611094 
L 361.846154 424.471735 
L 376.153846 424.471735 
L 376.153846 428.99339 
L 390.461538 428.99339 
L 390.461538 428.133853 
L 404.769231 428.133853 
L 404.769231 431.154177 
L 419.076923 431.154177 
L 419.076923 431.924849 
L 433.384615 431.924849 
L 433.384615 434.778664 
L 447.692308 434.778664 
L 447.692308 436.956855 
L 462 436.956855 
L 462 440.246559 
L 476.307692 440.246559 
L 476.307692 437.72156 
L 490.615385 437.72156 
L 490.615385 440.799873 
L 504.923077 440.799873 
L 504.923077 443.293101 
L 519.230769 443.293101 
L 519.230769 443.683829 
L 533.538462 443.683829 
L 533.538462 445.006731 
L 547.846154 445.006731 
L 547.846154 448.444 
L 562.153846 448.444 
L 562.153846 448.179546 
L 576.461538 448.179546 
L 576.461538 449.048153 
L 590.769231 449.048153 
L 590.769231 449.665393 
L 605.076923 449.665393 
L 605.076923 453.361602 
L 619.384615 453.361602 
L 619.384615 454.736086 
L 633.692308 454.736086 
L 633.692308 453.125782 
L 648 453.125782 
" style="fill:none;stroke:#1f77b4;stroke-linecap:square;stroke-width:1.5;"/>
   </g>
   <g id="line2d_32">
    <path clip-path="url(#p312f157264)" d="M 104.307692 711.64 
L 104.307692 467.733889 
L 118.615385 467.733889 
L 118.615385 403.011699 
L 132.923077 403.011699 
L 132.923077 397.76708 
L 147.230769 397.76708 
L 147.230769 398.84162 
L 161.538462 398.84162 
L 161.538462 400.311797 
L 175.846154 400.311797 
L 175.846154 400.956896 
L 190.153846 400.956896 
L 190.153846 398.946659 
L 204.461538 398.946659 
L 204.461538 404.649144 
L 218.769231 404.649144 
L 218.769231 406.371274 
L 233.076923 406.371274 
L 233.076923 408.204217 
L 247.384615 408.204217 
L 247.384615 407.691073 
L 261.692308 407.691073 
L 261.692308 412.062383 
L 276 412.062383 
L 276 415.192527 
L 290.307692 415.192527 
L 290.307692 417.766046 
L 304.615385 417.766046 
L 304.615385 414.578832 
L 318.923077 414.578832 
L 318.923077 422.268141 
L 333.230769 422.268141 
L 333.230769 422.776274 
L 347.538462 422.776274 
L 347.538462 426.335577 
L 361.846154 426.335577 
L 361.846154 425.196832 
L 376.153846 425.196832 
L 376.153846 429.707071 
L 390.461538 429.707071 
L 390.461538 428.792721 
L 404.769231 428.792721 
L 404.769231 431.628797 
L 419.076923 431.628797 
L 419.076923 432.488377 
L 433.384615 432.488377 
L 433.384615 435.026447 
L 447.692308 435.026447 
L 447.692308 437.404192 
L 462 437.404192 
L 462 440.901641 
L 476.307692 440.901641 
L 476.307692 438.27398 
L 490.615385 438.27398 
L 490.615385 441.003773 
L 504.923077 441.003773 
L 504.923077 443.627681 
L 519.230769 443.627681 
L 519.230769 444.194197 
L 533.538462 444.194197 
L 533.538462 445.601633 
L 547.846154 445.601633 
L 547.846154 448.577154 
L 562.153846 448.577154 
L 562.153846 448.577154 
L 576.461538 448.577154 
L 576.461538 449.527068 
L 590.769231 449.527068 
L 590.769231 450.084441 
L 605.076923 450.084441 
L 605.076923 453.83918 
L 619.384615 453.83918 
L 619.384615 455.069362 
L 633.692308 455.069362 
L 633.692308 453.59939 
L 648 453.59939 
" style="fill:none;stroke:#ff7f0e;stroke-linecap:square;stroke-width:1.5;"/>
   </g>
   <g id="line2d_33">
    <path clip-path="url(#p312f157264)" d="M 104.307692 711.64 
L 104.307692 570.108148 
L 118.615385 570.108148 
L 118.615385 476.906363 
L 132.923077 476.906363 
L 132.923077 482.029531 
L 147.230769 482.029531 
L 147.230769 492.008477 
L 161.538462 492.008477 
L 161.538462 502.21566 
L 175.846154 502.21566 
L 175.846154 505.462478 
L 190.153846 505.462478 
L 190.153846 512.693902 
L 204.461538 512.693902 
L 204.461538 524.247547 
L 218.769231 524.247547 
L 218.769231 540.432134 
L 233.076923 540.432134 
L 233.076923 535.801191 
L 247.384615 535.801191 
L 247.384615 558.554503 
L 261.692308 558.554503 
L 261.692308 552.836433 
L 276 552.836433 
L 276 575.303363 
L 290.307692 575.303363 
L 290.307692 621.163964 
L 304.615385 621.163964 
L 304.615385 601.412878 
L 318.923077 601.412878 
L 318.923077 711.64 
M 333.230769 711.64 
L 333.230769 601.412878 
L 347.538462 601.412878 
L 347.538462 589.859233 
L 361.846154 589.859233 
L 361.846154 581.661792 
L 376.153846 581.661792 
L 376.153846 711.64 
M 404.769231 711.64 
L 404.769231 621.163964 
L 419.076923 621.163964 
L 419.076923 711.64 
M 462 711.64 
L 462 621.163964 
L 476.307692 621.163964 
L 476.307692 711.64 
M 504.923077 711.64 
L 504.923077 621.163964 
L 519.230769 621.163964 
L 519.230769 601.412878 
L 533.538462 601.412878 
L 533.538462 621.163964 
L 547.846154 621.163964 
L 547.846154 621.163964 
L 562.153846 621.163964 
L 562.153846 621.163964 
L 576.461538 621.163964 
L 576.461538 621.163964 
L 590.769231 621.163964 
L 590.769231 711.64 
M 619.384615 711.64 
L 619.384615 621.163964 
L 633.692308 621.163964 
L 633.692308 621.163964 
L 648 621.163964 
" style="fill:none;stroke:#2ca02c;stroke-linecap:square;stroke-width:1.5;"/>
   </g>
   <g id="patch_10">
    <path d="M 90 632.4696 
L 90 383.7456 
" style="fill:none;stroke:#000000;stroke-linecap:square;stroke-linejoin:miter;stroke-width:0.8;"/>
   </g>
   <g id="patch_11">
    <path d="M 648 632.4696 
L 648 383.7456 
" style="fill:none;stroke:#000000;stroke-linecap:square;stroke-linejoin:miter;stroke-width:0.8;"/>
   </g>
   <g id="patch_12">
    <path d="M 90 632.4696 
L 648 632.4696 
" style="fill:none;stroke:#000000;stroke-linecap:square;stroke-linejoin:miter;stroke-width:0.8;"/>
   </g>
   <g id="patch_13">
    <path d="M 90 383.7456 
L 648 383.7456 
" style="fill:none;stroke:#000000;stroke-linecap:square;stroke-linejoin:miter;stroke-width:0.8;"/>
   </g>
   <g id="legend_2">
    <g id="patch_14">
     <path d="M 421.225313 477.407475 
L 635.4 477.407475 
Q 639 477.407475 639 473.807475 
L 639 396.3456 
Q 639 392.7456 635.4 392.7456 
L 421.225313 392.7456 
Q 417.625313 392.7456 417.625313 396.3456 
L 417.625313 473.807475 
Q 417.625313 477.407475 421.225313 477.407475 
z
" style="fill:#ffffff;opacity:0.5;stroke:#cccccc;stroke-linejoin:miter;"/>
    </g>
    <g id="line2d_34">
     <path d="M 424.825312 407.322787 
L 460.825312 407.322787 
" style="fill:none;stroke:#1f77b4;stroke-linecap:square;stroke-width:1.5;"/>
    </g>
    <g id="line2d_35"/>
    <g id="text_18">
     <!--  track -->
     <defs>
      <path id="DejaVuSans-32"/>
      <path d="M 9.078125 75.984375 
L 18.109375 75.984375 
L 18.109375 31.109375 
L 44.921875 54.6875 
L 56.390625 54.6875 
L 27.390625 29.109375 
L 57.625 0 
L 45.90625 0 
L 18.109375 26.703125 
L 18.109375 0 
L 9.078125 0 
z
" id="DejaVuSans-107"/>
     </defs>
     <g transform="translate(475.225312 413.622787)scale(0.18 -0.18)">
      <use xlink:href="#DejaVuSans-32"/>
      <use x="31.787109" xlink:href="#DejaVuSans-116"/>
      <use x="70.996094" xlink:href="#DejaVuSans-114"/>
      <use x="112.109375" xlink:href="#DejaVuSans-97"/>
      <use x="173.388672" xlink:href="#DejaVuSans-99"/>
      <use x="228.369141" xlink:href="#DejaVuSans-107"/>
     </g>
    </g>
    <g id="line2d_36">
     <path d="M 424.825312 433.743412 
L 460.825312 433.743412 
" style="fill:none;stroke:#ff7f0e;stroke-linecap:square;stroke-width:1.5;"/>
    </g>
    <g id="line2d_37"/>
    <g id="text_19">
     <!-- correct  track -->
     <g transform="translate(475.225312 440.043412)scale(0.18 -0.18)">
      <use xlink:href="#DejaVuSans-99"/>
      <use x="54.980469" xlink:href="#DejaVuSans-111"/>
      <use x="116.162109" xlink:href="#DejaVuSans-114"/>
      <use x="157.259766" xlink:href="#DejaVuSans-114"/>
      <use x="198.341797" xlink:href="#DejaVuSans-101"/>
      <use x="259.865234" xlink:href="#DejaVuSans-99"/>
      <use x="314.845703" xlink:href="#DejaVuSans-116"/>
      <use x="354.054688" xlink:href="#DejaVuSans-32"/>
      <use x="385.841797" xlink:href="#DejaVuSans-32"/>
      <use x="417.628906" xlink:href="#DejaVuSans-116"/>
      <use x="456.837891" xlink:href="#DejaVuSans-114"/>
      <use x="497.951172" xlink:href="#DejaVuSans-97"/>
      <use x="559.230469" xlink:href="#DejaVuSans-99"/>
      <use x="614.210938" xlink:href="#DejaVuSans-107"/>
     </g>
    </g>
    <g id="line2d_38">
     <path d="M 424.825312 460.164037 
L 460.825312 460.164037 
" style="fill:none;stroke:#2ca02c;stroke-linecap:square;stroke-width:1.5;"/>
    </g>
    <g id="line2d_39"/>
    <g id="text_20">
     <!-- incorrect  shower -->
     <defs>
      <path d="M 54.890625 33.015625 
L 54.890625 0 
L 45.90625 0 
L 45.90625 32.71875 
Q 45.90625 40.484375 42.875 44.328125 
Q 39.84375 48.1875 33.796875 48.1875 
Q 26.515625 48.1875 22.3125 43.546875 
Q 18.109375 38.921875 18.109375 30.90625 
L 18.109375 0 
L 9.078125 0 
L 9.078125 75.984375 
L 18.109375 75.984375 
L 18.109375 46.1875 
Q 21.34375 51.125 25.703125 53.5625 
Q 30.078125 56 35.796875 56 
Q 45.21875 56 50.046875 50.171875 
Q 54.890625 44.34375 54.890625 33.015625 
z
" id="DejaVuSans-104"/>
      <path d="M 4.203125 54.6875 
L 13.1875 54.6875 
L 24.421875 12.015625 
L 35.59375 54.6875 
L 46.1875 54.6875 
L 57.421875 12.015625 
L 68.609375 54.6875 
L 77.59375 54.6875 
L 63.28125 0 
L 52.6875 0 
L 40.921875 44.828125 
L 29.109375 0 
L 18.5 0 
z
" id="DejaVuSans-119"/>
     </defs>
     <g transform="translate(475.225312 466.464037)scale(0.18 -0.18)">
      <use xlink:href="#DejaVuSans-105"/>
      <use x="27.783203" xlink:href="#DejaVuSans-110"/>
      <use x="91.162109" xlink:href="#DejaVuSans-99"/>
      <use x="146.142578" xlink:href="#DejaVuSans-111"/>
      <use x="207.324219" xlink:href="#DejaVuSans-114"/>
      <use x="248.421875" xlink:href="#DejaVuSans-114"/>
      <use x="289.503906" xlink:href="#DejaVuSans-101"/>
      <use x="351.027344" xlink:href="#DejaVuSans-99"/>
      <use x="406.007812" xlink:href="#DejaVuSans-116"/>
      <use x="445.216797" xlink:href="#DejaVuSans-32"/>
      <use x="477.003906" xlink:href="#DejaVuSans-32"/>
      <use x="508.791016" xlink:href="#DejaVuSans-115"/>
      <use x="560.890625" xlink:href="#DejaVuSans-104"/>
      <use x="624.269531" xlink:href="#DejaVuSans-111"/>
      <use x="685.451172" xlink:href="#DejaVuSans-119"/>
      <use x="767.238281" xlink:href="#DejaVuSans-101"/>
      <use x="828.761719" xlink:href="#DejaVuSans-114"/>
     </g>
    </g>
   </g>
  </g>
 </g>
 <defs>
  <clipPath id="p33a9a29022">
   <rect height="248.724" width="558" x="90" y="85.2768"/>
  </clipPath>
  <clipPath id="p312f157264">
   <rect height="248.724" width="558" x="90" y="383.7456"/>
  </clipPath>
 </defs>
</svg>
