<?xml version="1.0" encoding="utf-8" standalone="no"?>
<!DOCTYPE svg PUBLIC "-//W3C//DTD SVG 1.1//EN"
  "http://www.w3.org/Graphics/SVG/1.1/DTD/svg11.dtd">
<!-- Created with matplotlib (https://matplotlib.org/) -->
<svg height="710.64pt" version="1.1" viewBox="0 0 720 710.64" width="720pt" xmlns="http://www.w3.org/2000/svg" xmlns:xlink="http://www.w3.org/1999/xlink">
 <defs>
  <style type="text/css">
*{stroke-linecap:butt;stroke-linejoin:round;}
  </style>
 </defs>
 <g id="figure_1">
  <g id="patch_1">
   <path d="M 0 710.64 
L 720 710.64 
L 720 0 
L 0 0 
z
" style="fill:#ffffff;"/>
  </g>
  <g id="axes_1">
   <g id="patch_2">
    <path d="M 90 334.0008 
L 648 334.0008 
L 648 85.2768 
L 90 85.2768 
z
" style="fill:#ffffff;"/>
   </g>
   <g id="matplotlib.axis_1">
    <g id="xtick_1">
     <g id="line2d_1">
      <defs>
       <path d="M 0 0 
L 0 3.5 
" id="m6b4fcf29e5" style="stroke:#000000;stroke-width:0.8;"/>
      </defs>
      <g>
       <use style="stroke:#000000;stroke-width:0.8;" x="90" xlink:href="#m6b4fcf29e5" y="334.0008"/>
      </g>
     </g>
    </g>
    <g id="xtick_2">
     <g id="line2d_2">
      <g>
       <use style="stroke:#000000;stroke-width:0.8;" x="229.5" xlink:href="#m6b4fcf29e5" y="334.0008"/>
      </g>
     </g>
    </g>
    <g id="xtick_3">
     <g id="line2d_3">
      <g>
       <use style="stroke:#000000;stroke-width:0.8;" x="369" xlink:href="#m6b4fcf29e5" y="334.0008"/>
      </g>
     </g>
    </g>
    <g id="xtick_4">
     <g id="line2d_4">
      <g>
       <use style="stroke:#000000;stroke-width:0.8;" x="508.5" xlink:href="#m6b4fcf29e5" y="334.0008"/>
      </g>
     </g>
    </g>
    <g id="xtick_5">
     <g id="line2d_5">
      <g>
       <use style="stroke:#000000;stroke-width:0.8;" x="648" xlink:href="#m6b4fcf29e5" y="334.0008"/>
      </g>
     </g>
    </g>
    <g id="text_1">
     <!-- nHitsW -->
     <defs>
      <path d="M 54.890625 33.015625 
L 54.890625 0 
L 45.90625 0 
L 45.90625 32.71875 
Q 45.90625 40.484375 42.875 44.328125 
Q 39.84375 48.1875 33.796875 48.1875 
Q 26.515625 48.1875 22.3125 43.546875 
Q 18.109375 38.921875 18.109375 30.90625 
L 18.109375 0 
L 9.078125 0 
L 9.078125 54.6875 
L 18.109375 54.6875 
L 18.109375 46.1875 
Q 21.34375 51.125 25.703125 53.5625 
Q 30.078125 56 35.796875 56 
Q 45.21875 56 50.046875 50.171875 
Q 54.890625 44.34375 54.890625 33.015625 
z
" id="DejaVuSans-110"/>
      <path d="M 9.8125 72.90625 
L 19.671875 72.90625 
L 19.671875 43.015625 
L 55.515625 43.015625 
L 55.515625 72.90625 
L 65.375 72.90625 
L 65.375 0 
L 55.515625 0 
L 55.515625 34.71875 
L 19.671875 34.71875 
L 19.671875 0 
L 9.8125 0 
z
" id="DejaVuSans-72"/>
      <path d="M 9.421875 54.6875 
L 18.40625 54.6875 
L 18.40625 0 
L 9.421875 0 
z
M 9.421875 75.984375 
L 18.40625 75.984375 
L 18.40625 64.59375 
L 9.421875 64.59375 
z
" id="DejaVuSans-105"/>
      <path d="M 18.3125 70.21875 
L 18.3125 54.6875 
L 36.8125 54.6875 
L 36.8125 47.703125 
L 18.3125 47.703125 
L 18.3125 18.015625 
Q 18.3125 11.328125 20.140625 9.421875 
Q 21.96875 7.515625 27.59375 7.515625 
L 36.8125 7.515625 
L 36.8125 0 
L 27.59375 0 
Q 17.1875 0 13.234375 3.875 
Q 9.28125 7.765625 9.28125 18.015625 
L 9.28125 47.703125 
L 2.6875 47.703125 
L 2.6875 54.6875 
L 9.28125 54.6875 
L 9.28125 70.21875 
z
" id="DejaVuSans-116"/>
      <path d="M 44.28125 53.078125 
L 44.28125 44.578125 
Q 40.484375 46.53125 36.375 47.5 
Q 32.28125 48.484375 27.875 48.484375 
Q 21.1875 48.484375 17.84375 46.4375 
Q 14.5 44.390625 14.5 40.28125 
Q 14.5 37.15625 16.890625 35.375 
Q 19.28125 33.59375 26.515625 31.984375 
L 29.59375 31.296875 
Q 39.15625 29.25 43.1875 25.515625 
Q 47.21875 21.78125 47.21875 15.09375 
Q 47.21875 7.46875 41.1875 3.015625 
Q 35.15625 -1.421875 24.609375 -1.421875 
Q 20.21875 -1.421875 15.453125 -0.5625 
Q 10.6875 0.296875 5.421875 2 
L 5.421875 11.28125 
Q 10.40625 8.6875 15.234375 7.390625 
Q 20.0625 6.109375 24.8125 6.109375 
Q 31.15625 6.109375 34.5625 8.28125 
Q 37.984375 10.453125 37.984375 14.40625 
Q 37.984375 18.0625 35.515625 20.015625 
Q 33.0625 21.96875 24.703125 23.78125 
L 21.578125 24.515625 
Q 13.234375 26.265625 9.515625 29.90625 
Q 5.8125 33.546875 5.8125 39.890625 
Q 5.8125 47.609375 11.28125 51.796875 
Q 16.75 56 26.8125 56 
Q 31.78125 56 36.171875 55.265625 
Q 40.578125 54.546875 44.28125 53.078125 
z
" id="DejaVuSans-115"/>
      <path d="M 3.328125 72.90625 
L 13.28125 72.90625 
L 28.609375 11.28125 
L 43.890625 72.90625 
L 54.984375 72.90625 
L 70.3125 11.28125 
L 85.59375 72.90625 
L 95.609375 72.90625 
L 77.296875 0 
L 64.890625 0 
L 49.515625 63.28125 
L 33.984375 0 
L 21.578125 0 
z
" id="DejaVuSans-87"/>
     </defs>
     <g transform="translate(322.79355 357.69595)scale(0.2592 -0.2592)">
      <use xlink:href="#DejaVuSans-110"/>
      <use x="63.378906" xlink:href="#DejaVuSans-72"/>
      <use x="138.574219" xlink:href="#DejaVuSans-105"/>
      <use x="166.357422" xlink:href="#DejaVuSans-116"/>
      <use x="205.566406" xlink:href="#DejaVuSans-115"/>
      <use x="257.666016" xlink:href="#DejaVuSans-87"/>
     </g>
    </g>
   </g>
   <g id="matplotlib.axis_2">
    <g id="ytick_1">
     <g id="line2d_6">
      <defs>
       <path d="M 0 0 
L -3.5 0 
" id="ma035a38087" style="stroke:#000000;stroke-width:0.8;"/>
      </defs>
      <g>
       <use style="stroke:#000000;stroke-width:0.8;" x="90" xlink:href="#ma035a38087" y="334.0008"/>
      </g>
     </g>
     <g id="text_2">
      <!-- 0.0 -->
      <defs>
       <path d="M 31.78125 66.40625 
Q 24.171875 66.40625 20.328125 58.90625 
Q 16.5 51.421875 16.5 36.375 
Q 16.5 21.390625 20.328125 13.890625 
Q 24.171875 6.390625 31.78125 6.390625 
Q 39.453125 6.390625 43.28125 13.890625 
Q 47.125 21.390625 47.125 36.375 
Q 47.125 51.421875 43.28125 58.90625 
Q 39.453125 66.40625 31.78125 66.40625 
z
M 31.78125 74.21875 
Q 44.046875 74.21875 50.515625 64.515625 
Q 56.984375 54.828125 56.984375 36.375 
Q 56.984375 17.96875 50.515625 8.265625 
Q 44.046875 -1.421875 31.78125 -1.421875 
Q 19.53125 -1.421875 13.0625 8.265625 
Q 6.59375 17.96875 6.59375 36.375 
Q 6.59375 54.828125 13.0625 64.515625 
Q 19.53125 74.21875 31.78125 74.21875 
z
" id="DejaVuSans-48"/>
       <path d="M 10.6875 12.40625 
L 21 12.40625 
L 21 0 
L 10.6875 0 
z
" id="DejaVuSans-46"/>
      </defs>
      <g transform="translate(41.7791 343.848375)scale(0.2592 -0.2592)">
       <use xlink:href="#DejaVuSans-48"/>
       <use x="63.623047" xlink:href="#DejaVuSans-46"/>
       <use x="95.410156" xlink:href="#DejaVuSans-48"/>
      </g>
     </g>
    </g>
    <g id="ytick_2">
     <g id="line2d_7">
      <g>
       <use style="stroke:#000000;stroke-width:0.8;" x="90" xlink:href="#ma035a38087" y="210.870107"/>
      </g>
     </g>
     <g id="text_3">
      <!-- 0.5 -->
      <defs>
       <path d="M 10.796875 72.90625 
L 49.515625 72.90625 
L 49.515625 64.59375 
L 19.828125 64.59375 
L 19.828125 46.734375 
Q 21.96875 47.46875 24.109375 47.828125 
Q 26.265625 48.1875 28.421875 48.1875 
Q 40.625 48.1875 47.75 41.5 
Q 54.890625 34.8125 54.890625 23.390625 
Q 54.890625 11.625 47.5625 5.09375 
Q 40.234375 -1.421875 26.90625 -1.421875 
Q 22.3125 -1.421875 17.546875 -0.640625 
Q 12.796875 0.140625 7.71875 1.703125 
L 7.71875 11.625 
Q 12.109375 9.234375 16.796875 8.0625 
Q 21.484375 6.890625 26.703125 6.890625 
Q 35.15625 6.890625 40.078125 11.328125 
Q 45.015625 15.765625 45.015625 23.390625 
Q 45.015625 31 40.078125 35.4375 
Q 35.15625 39.890625 26.703125 39.890625 
Q 22.75 39.890625 18.8125 39.015625 
Q 14.890625 38.140625 10.796875 36.28125 
z
" id="DejaVuSans-53"/>
      </defs>
      <g transform="translate(41.7791 220.717682)scale(0.2592 -0.2592)">
       <use xlink:href="#DejaVuSans-48"/>
       <use x="63.623047" xlink:href="#DejaVuSans-46"/>
       <use x="95.410156" xlink:href="#DejaVuSans-53"/>
      </g>
     </g>
    </g>
    <g id="ytick_3">
     <g id="line2d_8">
      <g>
       <use style="stroke:#000000;stroke-width:0.8;" x="90" xlink:href="#ma035a38087" y="87.739414"/>
      </g>
     </g>
     <g id="text_4">
      <!-- 1.0 -->
      <defs>
       <path d="M 12.40625 8.296875 
L 28.515625 8.296875 
L 28.515625 63.921875 
L 10.984375 60.40625 
L 10.984375 69.390625 
L 28.421875 72.90625 
L 38.28125 72.90625 
L 38.28125 8.296875 
L 54.390625 8.296875 
L 54.390625 0 
L 12.40625 0 
z
" id="DejaVuSans-49"/>
      </defs>
      <g transform="translate(41.7791 97.586989)scale(0.2592 -0.2592)">
       <use xlink:href="#DejaVuSans-49"/>
       <use x="63.623047" xlink:href="#DejaVuSans-46"/>
       <use x="95.410156" xlink:href="#DejaVuSans-48"/>
      </g>
     </g>
    </g>
    <g id="text_5">
     <!-- Fraction -->
     <defs>
      <path d="M 9.8125 72.90625 
L 51.703125 72.90625 
L 51.703125 64.59375 
L 19.671875 64.59375 
L 19.671875 43.109375 
L 48.578125 43.109375 
L 48.578125 34.8125 
L 19.671875 34.8125 
L 19.671875 0 
L 9.8125 0 
z
" id="DejaVuSans-70"/>
      <path d="M 41.109375 46.296875 
Q 39.59375 47.171875 37.8125 47.578125 
Q 36.03125 48 33.890625 48 
Q 26.265625 48 22.1875 43.046875 
Q 18.109375 38.09375 18.109375 28.8125 
L 18.109375 0 
L 9.078125 0 
L 9.078125 54.6875 
L 18.109375 54.6875 
L 18.109375 46.1875 
Q 20.953125 51.171875 25.484375 53.578125 
Q 30.03125 56 36.53125 56 
Q 37.453125 56 38.578125 55.875 
Q 39.703125 55.765625 41.0625 55.515625 
z
" id="DejaVuSans-114"/>
      <path d="M 34.28125 27.484375 
Q 23.390625 27.484375 19.1875 25 
Q 14.984375 22.515625 14.984375 16.5 
Q 14.984375 11.71875 18.140625 8.90625 
Q 21.296875 6.109375 26.703125 6.109375 
Q 34.1875 6.109375 38.703125 11.40625 
Q 43.21875 16.703125 43.21875 25.484375 
L 43.21875 27.484375 
z
M 52.203125 31.203125 
L 52.203125 0 
L 43.21875 0 
L 43.21875 8.296875 
Q 40.140625 3.328125 35.546875 0.953125 
Q 30.953125 -1.421875 24.3125 -1.421875 
Q 15.921875 -1.421875 10.953125 3.296875 
Q 6 8.015625 6 15.921875 
Q 6 25.140625 12.171875 29.828125 
Q 18.359375 34.515625 30.609375 34.515625 
L 43.21875 34.515625 
L 43.21875 35.40625 
Q 43.21875 41.609375 39.140625 45 
Q 35.0625 48.390625 27.6875 48.390625 
Q 23 48.390625 18.546875 47.265625 
Q 14.109375 46.140625 10.015625 43.890625 
L 10.015625 52.203125 
Q 14.9375 54.109375 19.578125 55.046875 
Q 24.21875 56 28.609375 56 
Q 40.484375 56 46.34375 49.84375 
Q 52.203125 43.703125 52.203125 31.203125 
z
" id="DejaVuSans-97"/>
      <path d="M 48.78125 52.59375 
L 48.78125 44.1875 
Q 44.96875 46.296875 41.140625 47.34375 
Q 37.3125 48.390625 33.40625 48.390625 
Q 24.65625 48.390625 19.8125 42.84375 
Q 14.984375 37.3125 14.984375 27.296875 
Q 14.984375 17.28125 19.8125 11.734375 
Q 24.65625 6.203125 33.40625 6.203125 
Q 37.3125 6.203125 41.140625 7.25 
Q 44.96875 8.296875 48.78125 10.40625 
L 48.78125 2.09375 
Q 45.015625 0.34375 40.984375 -0.53125 
Q 36.96875 -1.421875 32.421875 -1.421875 
Q 20.0625 -1.421875 12.78125 6.34375 
Q 5.515625 14.109375 5.515625 27.296875 
Q 5.515625 40.671875 12.859375 48.328125 
Q 20.21875 56 33.015625 56 
Q 37.15625 56 41.109375 55.140625 
Q 45.0625 54.296875 48.78125 52.59375 
z
" id="DejaVuSans-99"/>
      <path d="M 30.609375 48.390625 
Q 23.390625 48.390625 19.1875 42.75 
Q 14.984375 37.109375 14.984375 27.296875 
Q 14.984375 17.484375 19.15625 11.84375 
Q 23.34375 6.203125 30.609375 6.203125 
Q 37.796875 6.203125 41.984375 11.859375 
Q 46.1875 17.53125 46.1875 27.296875 
Q 46.1875 37.015625 41.984375 42.703125 
Q 37.796875 48.390625 30.609375 48.390625 
z
M 30.609375 56 
Q 42.328125 56 49.015625 48.375 
Q 55.71875 40.765625 55.71875 27.296875 
Q 55.71875 13.875 49.015625 6.21875 
Q 42.328125 -1.421875 30.609375 -1.421875 
Q 18.84375 -1.421875 12.171875 6.21875 
Q 5.515625 13.875 5.515625 27.296875 
Q 5.515625 40.765625 12.171875 48.375 
Q 18.84375 56 30.609375 56 
z
" id="DejaVuSans-111"/>
     </defs>
     <g transform="translate(32.38855 262.298925)rotate(-90)scale(0.2592 -0.2592)">
      <use xlink:href="#DejaVuSans-70"/>
      <use x="57.410156" xlink:href="#DejaVuSans-114"/>
      <use x="98.523438" xlink:href="#DejaVuSans-97"/>
      <use x="159.802734" xlink:href="#DejaVuSans-99"/>
      <use x="214.783203" xlink:href="#DejaVuSans-116"/>
      <use x="253.992188" xlink:href="#DejaVuSans-105"/>
      <use x="281.775391" xlink:href="#DejaVuSans-111"/>
      <use x="342.957031" xlink:href="#DejaVuSans-110"/>
     </g>
    </g>
   </g>
   <g id="LineCollection_1">
    <path clip-path="url(#pef223c6eb5)" d="M 97.153846 228.211467 
L 97.153846 224.011323 
" style="fill:none;stroke:#008000;stroke-width:1.5;"/>
    <path clip-path="url(#pef223c6eb5)" d="M 111.461538 164.102481 
L 111.461538 160.163936 
" style="fill:none;stroke:#008000;stroke-width:1.5;"/>
    <path clip-path="url(#pef223c6eb5)" d="M 125.769231 143.710765 
L 125.769231 140.193307 
" style="fill:none;stroke:#008000;stroke-width:1.5;"/>
    <path clip-path="url(#pef223c6eb5)" d="M 140.076923 130.320704 
L 140.076923 126.699076 
" style="fill:none;stroke:#008000;stroke-width:1.5;"/>
    <path clip-path="url(#pef223c6eb5)" d="M 154.384615 121.587308 
L 154.384615 117.314975 
" style="fill:none;stroke:#008000;stroke-width:1.5;"/>
    <path clip-path="url(#pef223c6eb5)" d="M 168.692308 114.205553 
L 168.692308 109.755277 
" style="fill:none;stroke:#008000;stroke-width:1.5;"/>
    <path clip-path="url(#pef223c6eb5)" d="M 183 112.239968 
L 183 107.740917 
" style="fill:none;stroke:#008000;stroke-width:1.5;"/>
    <path clip-path="url(#pef223c6eb5)" d="M 197.307692 112.160686 
L 197.307692 107.505086 
" style="fill:none;stroke:#008000;stroke-width:1.5;"/>
    <path clip-path="url(#pef223c6eb5)" d="M 211.615385 104.627926 
L 211.615385 100.087414 
" style="fill:none;stroke:#008000;stroke-width:1.5;"/>
    <path clip-path="url(#pef223c6eb5)" d="M 225.923077 103.471826 
L 225.923077 98.856625 
" style="fill:none;stroke:#008000;stroke-width:1.5;"/>
    <path clip-path="url(#pef223c6eb5)" d="M 240.230769 103.354527 
L 240.230769 98.266699 
" style="fill:none;stroke:#008000;stroke-width:1.5;"/>
    <path clip-path="url(#pef223c6eb5)" d="M 254.538462 97.987089 
L 254.538462 93.943439 
" style="fill:none;stroke:#008000;stroke-width:1.5;"/>
    <path clip-path="url(#pef223c6eb5)" d="M 268.846154 96.481652 
L 268.846154 92.474167 
" style="fill:none;stroke:#008000;stroke-width:1.5;"/>
    <path clip-path="url(#pef223c6eb5)" d="M 283.153846 95.650966 
L 283.153846 91.554595 
" style="fill:none;stroke:#008000;stroke-width:1.5;"/>
    <path clip-path="url(#pef223c6eb5)" d="M 297.461538 93.974896 
L 297.461538 90.144682 
" style="fill:none;stroke:#008000;stroke-width:1.5;"/>
    <path clip-path="url(#pef223c6eb5)" d="M 311.769231 92.736762 
L 311.769231 89.42034 
" style="fill:none;stroke:#008000;stroke-width:1.5;"/>
    <path clip-path="url(#pef223c6eb5)" d="M 326.076923 90.115874 
L 326.076923 87.742291 
" style="fill:none;stroke:#008000;stroke-width:1.5;"/>
    <path clip-path="url(#pef223c6eb5)" d="M 340.384615 92.707697 
L 340.384615 89.085525 
" style="fill:none;stroke:#008000;stroke-width:1.5;"/>
    <path clip-path="url(#pef223c6eb5)" d="M 354.692308 93.854891 
L 354.692308 89.400612 
" style="fill:none;stroke:#008000;stroke-width:1.5;"/>
    <path clip-path="url(#pef223c6eb5)" d="M 369 96.551594 
L 369 90.724186 
" style="fill:none;stroke:#008000;stroke-width:1.5;"/>
    <path clip-path="url(#pef223c6eb5)" d="M 383.307692 87.739414 
L 383.307692 87.739414 
" style="fill:none;stroke:#008000;stroke-width:1.5;"/>
    <path clip-path="url(#pef223c6eb5)" d="M 397.615385 87.739414 
L 397.615385 87.739414 
" style="fill:none;stroke:#008000;stroke-width:1.5;"/>
    <path clip-path="url(#pef223c6eb5)" d="M 411.923077 98.280003 
L 411.923077 90.631264 
" style="fill:none;stroke:#008000;stroke-width:1.5;"/>
    <path clip-path="url(#pef223c6eb5)" d="M 426.230769 92.803848 
L 426.230769 87.752534 
" style="fill:none;stroke:#008000;stroke-width:1.5;"/>
    <path clip-path="url(#pef223c6eb5)" d="M 440.538462 87.739414 
L 440.538462 87.739414 
" style="fill:none;stroke:#008000;stroke-width:1.5;"/>
    <path clip-path="url(#pef223c6eb5)" d="M 454.846154 87.739414 
L 454.846154 87.739414 
" style="fill:none;stroke:#008000;stroke-width:1.5;"/>
    <path clip-path="url(#pef223c6eb5)" d="M 469.153846 94.651842 
L 469.153846 87.763926 
" style="fill:none;stroke:#008000;stroke-width:1.5;"/>
    <path clip-path="url(#pef223c6eb5)" d="M 483.461538 93.954087 
L 483.461538 87.759206 
" style="fill:none;stroke:#008000;stroke-width:1.5;"/>
    <path clip-path="url(#pef223c6eb5)" d="M 497.769231 87.739414 
L 497.769231 87.739414 
" style="fill:none;stroke:#008000;stroke-width:1.5;"/>
    <path clip-path="url(#pef223c6eb5)" d="M 512.076923 98.807325 
L 512.076923 87.865202 
" style="fill:none;stroke:#008000;stroke-width:1.5;"/>
    <path clip-path="url(#pef223c6eb5)" d="M 526.384615 100.996816 
L 526.384615 90.117655 
" style="fill:none;stroke:#008000;stroke-width:1.5;"/>
    <path clip-path="url(#pef223c6eb5)" d="M 540.692308 95.651167 
L 540.692308 87.771576 
" style="fill:none;stroke:#008000;stroke-width:1.5;"/>
    <path clip-path="url(#pef223c6eb5)" d="M 555 96.988253 
L 555 87.783457 
" style="fill:none;stroke:#008000;stroke-width:1.5;"/>
    <path clip-path="url(#pef223c6eb5)" d="M 569.307692 100.6147 
L 569.307692 87.825253 
" style="fill:none;stroke:#008000;stroke-width:1.5;"/>
    <path clip-path="url(#pef223c6eb5)" d="M 583.615385 95.526088 
L 583.615385 87.770561 
" style="fill:none;stroke:#008000;stroke-width:1.5;"/>
    <path clip-path="url(#pef223c6eb5)" d="M 597.923077 87.739414 
L 597.923077 87.739414 
" style="fill:none;stroke:#008000;stroke-width:1.5;"/>
    <path clip-path="url(#pef223c6eb5)" d="M 612.230769 100.286723 
L 612.230769 87.820893 
" style="fill:none;stroke:#008000;stroke-width:1.5;"/>
    <path clip-path="url(#pef223c6eb5)" d="M 626.538462 97.349149 
L 626.538462 87.786988 
" style="fill:none;stroke:#008000;stroke-width:1.5;"/>
    <path clip-path="url(#pef223c6eb5)" d="M 640.846154 112.053779 
L 640.846154 88.051188 
" style="fill:none;stroke:#008000;stroke-width:1.5;"/>
   </g>
   <g id="LineCollection_2">
    <path clip-path="url(#pef223c6eb5)" d="M 97.153846 237.96987 
L 97.153846 234.682366 
" style="fill:none;stroke:#ff0000;stroke-width:1.5;"/>
    <path clip-path="url(#pef223c6eb5)" d="M 111.461538 184.528833 
L 111.461538 181.341362 
" style="fill:none;stroke:#ff0000;stroke-width:1.5;"/>
    <path clip-path="url(#pef223c6eb5)" d="M 125.769231 143.832133 
L 125.769231 140.755387 
" style="fill:none;stroke:#ff0000;stroke-width:1.5;"/>
    <path clip-path="url(#pef223c6eb5)" d="M 140.076923 136.272845 
L 140.076923 132.921861 
" style="fill:none;stroke:#ff0000;stroke-width:1.5;"/>
    <path clip-path="url(#pef223c6eb5)" d="M 154.384615 141.480507 
L 154.384615 137.119339 
" style="fill:none;stroke:#ff0000;stroke-width:1.5;"/>
    <path clip-path="url(#pef223c6eb5)" d="M 168.692308 143.139418 
L 168.692308 138.105518 
" style="fill:none;stroke:#ff0000;stroke-width:1.5;"/>
    <path clip-path="url(#pef223c6eb5)" d="M 183 135.075419 
L 183 129.912113 
" style="fill:none;stroke:#ff0000;stroke-width:1.5;"/>
    <path clip-path="url(#pef223c6eb5)" d="M 197.307692 133.811337 
L 197.307692 128.468533 
" style="fill:none;stroke:#ff0000;stroke-width:1.5;"/>
    <path clip-path="url(#pef223c6eb5)" d="M 211.615385 129.69625 
L 211.615385 123.619964 
" style="fill:none;stroke:#ff0000;stroke-width:1.5;"/>
    <path clip-path="url(#pef223c6eb5)" d="M 225.923077 130.764829 
L 225.923077 124.321154 
" style="fill:none;stroke:#ff0000;stroke-width:1.5;"/>
    <path clip-path="url(#pef223c6eb5)" d="M 240.230769 129.963862 
L 240.230769 122.791695 
" style="fill:none;stroke:#ff0000;stroke-width:1.5;"/>
    <path clip-path="url(#pef223c6eb5)" d="M 254.538462 126.28961 
L 254.538462 119.419317 
" style="fill:none;stroke:#ff0000;stroke-width:1.5;"/>
    <path clip-path="url(#pef223c6eb5)" d="M 268.846154 124.664114 
L 268.846154 117.283495 
" style="fill:none;stroke:#ff0000;stroke-width:1.5;"/>
    <path clip-path="url(#pef223c6eb5)" d="M 283.153846 128.886609 
L 283.153846 120.598231 
" style="fill:none;stroke:#ff0000;stroke-width:1.5;"/>
    <path clip-path="url(#pef223c6eb5)" d="M 297.461538 124.884822 
L 297.461538 116.162053 
" style="fill:none;stroke:#ff0000;stroke-width:1.5;"/>
    <path clip-path="url(#pef223c6eb5)" d="M 311.769231 124.349651 
L 311.769231 115.818735 
" style="fill:none;stroke:#ff0000;stroke-width:1.5;"/>
    <path clip-path="url(#pef223c6eb5)" d="M 326.076923 131.39821 
L 326.076923 120.784984 
" style="fill:none;stroke:#ff0000;stroke-width:1.5;"/>
    <path clip-path="url(#pef223c6eb5)" d="M 340.384615 122.396004 
L 340.384615 113.009548 
" style="fill:none;stroke:#ff0000;stroke-width:1.5;"/>
    <path clip-path="url(#pef223c6eb5)" d="M 354.692308 123.039816 
L 354.692308 112.559162 
" style="fill:none;stroke:#ff0000;stroke-width:1.5;"/>
    <path clip-path="url(#pef223c6eb5)" d="M 369 126.261916 
L 369 114.711962 
" style="fill:none;stroke:#ff0000;stroke-width:1.5;"/>
    <path clip-path="url(#pef223c6eb5)" d="M 383.307692 126.709614 
L 383.307692 114.438917 
" style="fill:none;stroke:#ff0000;stroke-width:1.5;"/>
    <path clip-path="url(#pef223c6eb5)" d="M 397.615385 132.298581 
L 397.615385 117.804909 
" style="fill:none;stroke:#ff0000;stroke-width:1.5;"/>
    <path clip-path="url(#pef223c6eb5)" d="M 411.923077 123.132841 
L 411.923077 109.332092 
" style="fill:none;stroke:#ff0000;stroke-width:1.5;"/>
    <path clip-path="url(#pef223c6eb5)" d="M 426.230769 128.651227 
L 426.230769 113.384732 
" style="fill:none;stroke:#ff0000;stroke-width:1.5;"/>
    <path clip-path="url(#pef223c6eb5)" d="M 440.538462 112.303381 
L 440.538462 99.999579 
" style="fill:none;stroke:#ff0000;stroke-width:1.5;"/>
    <path clip-path="url(#pef223c6eb5)" d="M 454.846154 125.922681 
L 454.846154 108.896239 
" style="fill:none;stroke:#ff0000;stroke-width:1.5;"/>
    <path clip-path="url(#pef223c6eb5)" d="M 469.153846 135.647202 
L 469.153846 116.973746 
" style="fill:none;stroke:#ff0000;stroke-width:1.5;"/>
    <path clip-path="url(#pef223c6eb5)" d="M 483.461538 129.043376 
L 483.461538 112.105155 
" style="fill:none;stroke:#ff0000;stroke-width:1.5;"/>
    <path clip-path="url(#pef223c6eb5)" d="M 497.769231 101.79491 
L 497.769231 92.627101 
" style="fill:none;stroke:#ff0000;stroke-width:1.5;"/>
    <path clip-path="url(#pef223c6eb5)" d="M 512.076923 133.783324 
L 512.076923 110.648692 
" style="fill:none;stroke:#ff0000;stroke-width:1.5;"/>
    <path clip-path="url(#pef223c6eb5)" d="M 526.384615 128.94635 
L 526.384615 109.856834 
" style="fill:none;stroke:#ff0000;stroke-width:1.5;"/>
    <path clip-path="url(#pef223c6eb5)" d="M 540.692308 132.197465 
L 540.692308 112.650767 
" style="fill:none;stroke:#ff0000;stroke-width:1.5;"/>
    <path clip-path="url(#pef223c6eb5)" d="M 555 103.22499 
L 555 90.495421 
" style="fill:none;stroke:#ff0000;stroke-width:1.5;"/>
    <path clip-path="url(#pef223c6eb5)" d="M 569.307692 134.834638 
L 569.307692 109.368297 
" style="fill:none;stroke:#ff0000;stroke-width:1.5;"/>
    <path clip-path="url(#pef223c6eb5)" d="M 583.615385 121.479088 
L 583.615385 103.965818 
" style="fill:none;stroke:#ff0000;stroke-width:1.5;"/>
    <path clip-path="url(#pef223c6eb5)" d="M 597.923077 121.729404 
L 597.923077 103.001701 
" style="fill:none;stroke:#ff0000;stroke-width:1.5;"/>
    <path clip-path="url(#pef223c6eb5)" d="M 612.230769 133.772533 
L 612.230769 108.868491 
" style="fill:none;stroke:#ff0000;stroke-width:1.5;"/>
    <path clip-path="url(#pef223c6eb5)" d="M 626.538462 114.706307 
L 626.538462 97.255689 
" style="fill:none;stroke:#ff0000;stroke-width:1.5;"/>
    <path clip-path="url(#pef223c6eb5)" d="M 640.846154 159.017827 
L 640.846154 119.069911 
" style="fill:none;stroke:#ff0000;stroke-width:1.5;"/>
   </g>
   <g id="LineCollection_3">
    <path clip-path="url(#pef223c6eb5)" d="M 97.153846 292.30971 
L 97.153846 290.107516 
" style="fill:none;stroke:#0000ff;stroke-width:1.5;"/>
    <path clip-path="url(#pef223c6eb5)" d="M 111.461538 230.213059 
L 111.461538 226.928862 
" style="fill:none;stroke:#0000ff;stroke-width:1.5;"/>
    <path clip-path="url(#pef223c6eb5)" d="M 125.769231 186.317028 
L 125.769231 182.676265 
" style="fill:none;stroke:#0000ff;stroke-width:1.5;"/>
    <path clip-path="url(#pef223c6eb5)" d="M 140.076923 169.636116 
L 140.076923 165.584155 
" style="fill:none;stroke:#0000ff;stroke-width:1.5;"/>
    <path clip-path="url(#pef223c6eb5)" d="M 154.384615 166.914036 
L 154.384615 161.830101 
" style="fill:none;stroke:#0000ff;stroke-width:1.5;"/>
    <path clip-path="url(#pef223c6eb5)" d="M 168.692308 162.521836 
L 168.692308 156.793903 
" style="fill:none;stroke:#0000ff;stroke-width:1.5;"/>
    <path clip-path="url(#pef223c6eb5)" d="M 183 153.684812 
L 183 147.71719 
" style="fill:none;stroke:#0000ff;stroke-width:1.5;"/>
    <path clip-path="url(#pef223c6eb5)" d="M 197.307692 152.436536 
L 197.307692 146.242877 
" style="fill:none;stroke:#0000ff;stroke-width:1.5;"/>
    <path clip-path="url(#pef223c6eb5)" d="M 211.615385 142.404248 
L 211.615385 135.527994 
" style="fill:none;stroke:#0000ff;stroke-width:1.5;"/>
    <path clip-path="url(#pef223c6eb5)" d="M 225.923077 142.406545 
L 225.923077 135.189318 
" style="fill:none;stroke:#0000ff;stroke-width:1.5;"/>
    <path clip-path="url(#pef223c6eb5)" d="M 240.230769 141.414463 
L 240.230769 133.381755 
" style="fill:none;stroke:#0000ff;stroke-width:1.5;"/>
    <path clip-path="url(#pef223c6eb5)" d="M 254.538462 133.653058 
L 254.538462 126.161678 
" style="fill:none;stroke:#0000ff;stroke-width:1.5;"/>
    <path clip-path="url(#pef223c6eb5)" d="M 268.846154 130.788841 
L 268.846154 122.816962 
" style="fill:none;stroke:#0000ff;stroke-width:1.5;"/>
    <path clip-path="url(#pef223c6eb5)" d="M 283.153846 134.128772 
L 283.153846 125.320753 
" style="fill:none;stroke:#0000ff;stroke-width:1.5;"/>
    <path clip-path="url(#pef223c6eb5)" d="M 297.461538 128.863893 
L 297.461538 119.673416 
" style="fill:none;stroke:#0000ff;stroke-width:1.5;"/>
    <path clip-path="url(#pef223c6eb5)" d="M 311.769231 127.432101 
L 311.769231 118.537413 
" style="fill:none;stroke:#0000ff;stroke-width:1.5;"/>
    <path clip-path="url(#pef223c6eb5)" d="M 326.076923 132.471178 
L 326.076923 121.720801 
" style="fill:none;stroke:#0000ff;stroke-width:1.5;"/>
    <path clip-path="url(#pef223c6eb5)" d="M 340.384615 125.374362 
L 340.384615 115.577294 
" style="fill:none;stroke:#0000ff;stroke-width:1.5;"/>
    <path clip-path="url(#pef223c6eb5)" d="M 354.692308 126.728973 
L 354.692308 115.697416 
" style="fill:none;stroke:#0000ff;stroke-width:1.5;"/>
    <path clip-path="url(#pef223c6eb5)" d="M 369 131.777917 
L 369 119.424169 
" style="fill:none;stroke:#0000ff;stroke-width:1.5;"/>
    <path clip-path="url(#pef223c6eb5)" d="M 383.307692 126.709614 
L 383.307692 114.438917 
" style="fill:none;stroke:#0000ff;stroke-width:1.5;"/>
    <path clip-path="url(#pef223c6eb5)" d="M 397.615385 132.298581 
L 397.615385 117.804909 
" style="fill:none;stroke:#0000ff;stroke-width:1.5;"/>
    <path clip-path="url(#pef223c6eb5)" d="M 411.923077 129.68762 
L 411.923077 114.655586 
" style="fill:none;stroke:#0000ff;stroke-width:1.5;"/>
    <path clip-path="url(#pef223c6eb5)" d="M 426.230769 131.077691 
L 426.230769 115.349667 
" style="fill:none;stroke:#0000ff;stroke-width:1.5;"/>
    <path clip-path="url(#pef223c6eb5)" d="M 440.538462 112.303381 
L 440.538462 99.999579 
" style="fill:none;stroke:#0000ff;stroke-width:1.5;"/>
    <path clip-path="url(#pef223c6eb5)" d="M 454.846154 125.922681 
L 454.846154 108.896239 
" style="fill:none;stroke:#0000ff;stroke-width:1.5;"/>
    <path clip-path="url(#pef223c6eb5)" d="M 469.153846 138.888282 
L 469.153846 119.583098 
" style="fill:none;stroke:#0000ff;stroke-width:1.5;"/>
    <path clip-path="url(#pef223c6eb5)" d="M 483.461538 132.058107 
L 483.461538 114.493627 
" style="fill:none;stroke:#0000ff;stroke-width:1.5;"/>
    <path clip-path="url(#pef223c6eb5)" d="M 497.769231 101.79491 
L 497.769231 92.627101 
" style="fill:none;stroke:#0000ff;stroke-width:1.5;"/>
    <path clip-path="url(#pef223c6eb5)" d="M 512.076923 139.27381 
L 512.076923 114.784788 
" style="fill:none;stroke:#0000ff;stroke-width:1.5;"/>
    <path clip-path="url(#pef223c6eb5)" d="M 526.384615 136.60077 
L 526.384615 115.82776 
" style="fill:none;stroke:#0000ff;stroke-width:1.5;"/>
    <path clip-path="url(#pef223c6eb5)" d="M 540.692308 136.030734 
L 540.692308 115.642553 
" style="fill:none;stroke:#0000ff;stroke-width:1.5;"/>
    <path clip-path="url(#pef223c6eb5)" d="M 555 108.992121 
L 555 93.676993 
" style="fill:none;stroke:#0000ff;stroke-width:1.5;"/>
    <path clip-path="url(#pef223c6eb5)" d="M 569.307692 141.242034 
L 569.307692 114.113498 
" style="fill:none;stroke:#0000ff;stroke-width:1.5;"/>
    <path clip-path="url(#pef223c6eb5)" d="M 583.615385 125.530212 
L 583.615385 106.939403 
" style="fill:none;stroke:#0000ff;stroke-width:1.5;"/>
    <path clip-path="url(#pef223c6eb5)" d="M 597.923077 121.729404 
L 597.923077 103.001701 
" style="fill:none;stroke:#0000ff;stroke-width:1.5;"/>
    <path clip-path="url(#pef223c6eb5)" d="M 612.230769 140.047124 
L 612.230769 113.500582 
" style="fill:none;stroke:#0000ff;stroke-width:1.5;"/>
    <path clip-path="url(#pef223c6eb5)" d="M 626.538462 120.083819 
L 626.538462 100.82013 
" style="fill:none;stroke:#0000ff;stroke-width:1.5;"/>
    <path clip-path="url(#pef223c6eb5)" d="M 640.846154 170.012696 
L 640.846154 127.570736 
" style="fill:none;stroke:#0000ff;stroke-width:1.5;"/>
   </g>
   <g id="line2d_9">
    <path clip-path="url(#pef223c6eb5)" d="M 90 226.111395 
L 104.307692 226.111395 
L 104.307692 162.133208 
L 118.615385 162.133208 
L 118.615385 141.952036 
L 132.923077 141.952036 
L 132.923077 128.50989 
L 147.230769 128.50989 
L 147.230769 119.451142 
L 161.538462 119.451142 
L 161.538462 111.980415 
L 175.846154 111.980415 
L 175.846154 109.990443 
L 190.153846 109.990443 
L 190.153846 109.832886 
L 204.461538 109.832886 
L 204.461538 102.35767 
L 218.769231 102.35767 
L 218.769231 101.164225 
L 233.076923 101.164225 
L 233.076923 100.810613 
L 247.384615 100.810613 
L 247.384615 95.965264 
L 261.692308 95.965264 
L 261.692308 94.47791 
L 276 94.47791 
L 276 93.60278 
L 290.307692 93.60278 
L 290.307692 92.059789 
L 304.615385 92.059789 
L 304.615385 91.078551 
L 318.923077 91.078551 
L 318.923077 88.929082 
L 333.230769 88.929082 
L 333.230769 90.896611 
L 347.538462 90.896611 
L 347.538462 91.627752 
L 361.846154 91.627752 
L 361.846154 93.63789 
L 376.153846 93.63789 
L 376.153846 87.739414 
L 390.461538 87.739414 
L 390.461538 87.739414 
L 404.769231 87.739414 
L 404.769231 94.455633 
L 419.076923 94.455633 
L 419.076923 90.278191 
L 433.384615 90.278191 
L 433.384615 87.739414 
L 447.692308 87.739414 
L 447.692308 87.739414 
L 462 87.739414 
L 462 91.207884 
L 476.307692 91.207884 
L 476.307692 90.856647 
L 490.615385 90.856647 
L 490.615385 87.739414 
L 504.923077 87.739414 
L 504.923077 93.336264 
L 519.230769 93.336264 
L 519.230769 95.557236 
L 533.538462 95.557236 
L 533.538462 91.711372 
L 547.846154 91.711372 
L 547.846154 92.385855 
L 562.153846 92.385855 
L 562.153846 94.219977 
L 576.461538 94.219977 
L 576.461538 91.648325 
L 590.769231 91.648325 
L 590.769231 87.739414 
L 605.076923 87.739414 
L 605.076923 94.053808 
L 619.384615 94.053808 
L 619.384615 92.568068 
L 633.692308 92.568068 
L 633.692308 100.052483 
L 648 100.052483 
" style="fill:none;stroke:#008000;stroke-linecap:square;stroke-width:1.5;"/>
   </g>
   <g id="line2d_10">
    <defs>
     <path d="M 2 0 
L -2 -0 
" id="mcbab1bbbb0" style="stroke:#008000;"/>
    </defs>
    <g clip-path="url(#pef223c6eb5)">
     <use style="fill:#008000;stroke:#008000;" x="97.153846" xlink:href="#mcbab1bbbb0" y="228.211467"/>
     <use style="fill:#008000;stroke:#008000;" x="111.461538" xlink:href="#mcbab1bbbb0" y="164.102481"/>
     <use style="fill:#008000;stroke:#008000;" x="125.769231" xlink:href="#mcbab1bbbb0" y="143.710765"/>
     <use style="fill:#008000;stroke:#008000;" x="140.076923" xlink:href="#mcbab1bbbb0" y="130.320704"/>
     <use style="fill:#008000;stroke:#008000;" x="154.384615" xlink:href="#mcbab1bbbb0" y="121.587308"/>
     <use style="fill:#008000;stroke:#008000;" x="168.692308" xlink:href="#mcbab1bbbb0" y="114.205553"/>
     <use style="fill:#008000;stroke:#008000;" x="183" xlink:href="#mcbab1bbbb0" y="112.239968"/>
     <use style="fill:#008000;stroke:#008000;" x="197.307692" xlink:href="#mcbab1bbbb0" y="112.160686"/>
     <use style="fill:#008000;stroke:#008000;" x="211.615385" xlink:href="#mcbab1bbbb0" y="104.627926"/>
     <use style="fill:#008000;stroke:#008000;" x="225.923077" xlink:href="#mcbab1bbbb0" y="103.471826"/>
     <use style="fill:#008000;stroke:#008000;" x="240.230769" xlink:href="#mcbab1bbbb0" y="103.354527"/>
     <use style="fill:#008000;stroke:#008000;" x="254.538462" xlink:href="#mcbab1bbbb0" y="97.987089"/>
     <use style="fill:#008000;stroke:#008000;" x="268.846154" xlink:href="#mcbab1bbbb0" y="96.481652"/>
     <use style="fill:#008000;stroke:#008000;" x="283.153846" xlink:href="#mcbab1bbbb0" y="95.650966"/>
     <use style="fill:#008000;stroke:#008000;" x="297.461538" xlink:href="#mcbab1bbbb0" y="93.974896"/>
     <use style="fill:#008000;stroke:#008000;" x="311.769231" xlink:href="#mcbab1bbbb0" y="92.736762"/>
     <use style="fill:#008000;stroke:#008000;" x="326.076923" xlink:href="#mcbab1bbbb0" y="90.115874"/>
     <use style="fill:#008000;stroke:#008000;" x="340.384615" xlink:href="#mcbab1bbbb0" y="92.707697"/>
     <use style="fill:#008000;stroke:#008000;" x="354.692308" xlink:href="#mcbab1bbbb0" y="93.854891"/>
     <use style="fill:#008000;stroke:#008000;" x="369" xlink:href="#mcbab1bbbb0" y="96.551594"/>
     <use style="fill:#008000;stroke:#008000;" x="383.307692" xlink:href="#mcbab1bbbb0" y="87.739414"/>
     <use style="fill:#008000;stroke:#008000;" x="397.615385" xlink:href="#mcbab1bbbb0" y="87.739414"/>
     <use style="fill:#008000;stroke:#008000;" x="411.923077" xlink:href="#mcbab1bbbb0" y="98.280003"/>
     <use style="fill:#008000;stroke:#008000;" x="426.230769" xlink:href="#mcbab1bbbb0" y="92.803848"/>
     <use style="fill:#008000;stroke:#008000;" x="440.538462" xlink:href="#mcbab1bbbb0" y="87.739414"/>
     <use style="fill:#008000;stroke:#008000;" x="454.846154" xlink:href="#mcbab1bbbb0" y="87.739414"/>
     <use style="fill:#008000;stroke:#008000;" x="469.153846" xlink:href="#mcbab1bbbb0" y="94.651842"/>
     <use style="fill:#008000;stroke:#008000;" x="483.461538" xlink:href="#mcbab1bbbb0" y="93.954087"/>
     <use style="fill:#008000;stroke:#008000;" x="497.769231" xlink:href="#mcbab1bbbb0" y="87.739414"/>
     <use style="fill:#008000;stroke:#008000;" x="512.076923" xlink:href="#mcbab1bbbb0" y="98.807325"/>
     <use style="fill:#008000;stroke:#008000;" x="526.384615" xlink:href="#mcbab1bbbb0" y="100.996816"/>
     <use style="fill:#008000;stroke:#008000;" x="540.692308" xlink:href="#mcbab1bbbb0" y="95.651167"/>
     <use style="fill:#008000;stroke:#008000;" x="555" xlink:href="#mcbab1bbbb0" y="96.988253"/>
     <use style="fill:#008000;stroke:#008000;" x="569.307692" xlink:href="#mcbab1bbbb0" y="100.6147"/>
     <use style="fill:#008000;stroke:#008000;" x="583.615385" xlink:href="#mcbab1bbbb0" y="95.526088"/>
     <use style="fill:#008000;stroke:#008000;" x="597.923077" xlink:href="#mcbab1bbbb0" y="87.739414"/>
     <use style="fill:#008000;stroke:#008000;" x="612.230769" xlink:href="#mcbab1bbbb0" y="100.286723"/>
     <use style="fill:#008000;stroke:#008000;" x="626.538462" xlink:href="#mcbab1bbbb0" y="97.349149"/>
     <use style="fill:#008000;stroke:#008000;" x="640.846154" xlink:href="#mcbab1bbbb0" y="112.053779"/>
    </g>
   </g>
   <g id="line2d_11">
    <g clip-path="url(#pef223c6eb5)">
     <use style="fill:#008000;stroke:#008000;" x="97.153846" xlink:href="#mcbab1bbbb0" y="224.011323"/>
     <use style="fill:#008000;stroke:#008000;" x="111.461538" xlink:href="#mcbab1bbbb0" y="160.163936"/>
     <use style="fill:#008000;stroke:#008000;" x="125.769231" xlink:href="#mcbab1bbbb0" y="140.193307"/>
     <use style="fill:#008000;stroke:#008000;" x="140.076923" xlink:href="#mcbab1bbbb0" y="126.699076"/>
     <use style="fill:#008000;stroke:#008000;" x="154.384615" xlink:href="#mcbab1bbbb0" y="117.314975"/>
     <use style="fill:#008000;stroke:#008000;" x="168.692308" xlink:href="#mcbab1bbbb0" y="109.755277"/>
     <use style="fill:#008000;stroke:#008000;" x="183" xlink:href="#mcbab1bbbb0" y="107.740917"/>
     <use style="fill:#008000;stroke:#008000;" x="197.307692" xlink:href="#mcbab1bbbb0" y="107.505086"/>
     <use style="fill:#008000;stroke:#008000;" x="211.615385" xlink:href="#mcbab1bbbb0" y="100.087414"/>
     <use style="fill:#008000;stroke:#008000;" x="225.923077" xlink:href="#mcbab1bbbb0" y="98.856625"/>
     <use style="fill:#008000;stroke:#008000;" x="240.230769" xlink:href="#mcbab1bbbb0" y="98.266699"/>
     <use style="fill:#008000;stroke:#008000;" x="254.538462" xlink:href="#mcbab1bbbb0" y="93.943439"/>
     <use style="fill:#008000;stroke:#008000;" x="268.846154" xlink:href="#mcbab1bbbb0" y="92.474167"/>
     <use style="fill:#008000;stroke:#008000;" x="283.153846" xlink:href="#mcbab1bbbb0" y="91.554595"/>
     <use style="fill:#008000;stroke:#008000;" x="297.461538" xlink:href="#mcbab1bbbb0" y="90.144682"/>
     <use style="fill:#008000;stroke:#008000;" x="311.769231" xlink:href="#mcbab1bbbb0" y="89.42034"/>
     <use style="fill:#008000;stroke:#008000;" x="326.076923" xlink:href="#mcbab1bbbb0" y="87.742291"/>
     <use style="fill:#008000;stroke:#008000;" x="340.384615" xlink:href="#mcbab1bbbb0" y="89.085525"/>
     <use style="fill:#008000;stroke:#008000;" x="354.692308" xlink:href="#mcbab1bbbb0" y="89.400612"/>
     <use style="fill:#008000;stroke:#008000;" x="369" xlink:href="#mcbab1bbbb0" y="90.724186"/>
     <use style="fill:#008000;stroke:#008000;" x="383.307692" xlink:href="#mcbab1bbbb0" y="87.739414"/>
     <use style="fill:#008000;stroke:#008000;" x="397.615385" xlink:href="#mcbab1bbbb0" y="87.739414"/>
     <use style="fill:#008000;stroke:#008000;" x="411.923077" xlink:href="#mcbab1bbbb0" y="90.631264"/>
     <use style="fill:#008000;stroke:#008000;" x="426.230769" xlink:href="#mcbab1bbbb0" y="87.752534"/>
     <use style="fill:#008000;stroke:#008000;" x="440.538462" xlink:href="#mcbab1bbbb0" y="87.739414"/>
     <use style="fill:#008000;stroke:#008000;" x="454.846154" xlink:href="#mcbab1bbbb0" y="87.739414"/>
     <use style="fill:#008000;stroke:#008000;" x="469.153846" xlink:href="#mcbab1bbbb0" y="87.763926"/>
     <use style="fill:#008000;stroke:#008000;" x="483.461538" xlink:href="#mcbab1bbbb0" y="87.759206"/>
     <use style="fill:#008000;stroke:#008000;" x="497.769231" xlink:href="#mcbab1bbbb0" y="87.739414"/>
     <use style="fill:#008000;stroke:#008000;" x="512.076923" xlink:href="#mcbab1bbbb0" y="87.865202"/>
     <use style="fill:#008000;stroke:#008000;" x="526.384615" xlink:href="#mcbab1bbbb0" y="90.117655"/>
     <use style="fill:#008000;stroke:#008000;" x="540.692308" xlink:href="#mcbab1bbbb0" y="87.771576"/>
     <use style="fill:#008000;stroke:#008000;" x="555" xlink:href="#mcbab1bbbb0" y="87.783457"/>
     <use style="fill:#008000;stroke:#008000;" x="569.307692" xlink:href="#mcbab1bbbb0" y="87.825253"/>
     <use style="fill:#008000;stroke:#008000;" x="583.615385" xlink:href="#mcbab1bbbb0" y="87.770561"/>
     <use style="fill:#008000;stroke:#008000;" x="597.923077" xlink:href="#mcbab1bbbb0" y="87.739414"/>
     <use style="fill:#008000;stroke:#008000;" x="612.230769" xlink:href="#mcbab1bbbb0" y="87.820893"/>
     <use style="fill:#008000;stroke:#008000;" x="626.538462" xlink:href="#mcbab1bbbb0" y="87.786988"/>
     <use style="fill:#008000;stroke:#008000;" x="640.846154" xlink:href="#mcbab1bbbb0" y="88.051188"/>
    </g>
   </g>
   <g id="line2d_12">
    <path clip-path="url(#pef223c6eb5)" d="M 90 236.326118 
L 104.307692 236.326118 
L 104.307692 182.935098 
L 118.615385 182.935098 
L 118.615385 142.29376 
L 132.923077 142.29376 
L 132.923077 134.597353 
L 147.230769 134.597353 
L 147.230769 139.299923 
L 161.538462 139.299923 
L 161.538462 140.622468 
L 175.846154 140.622468 
L 175.846154 132.493766 
L 190.153846 132.493766 
L 190.153846 131.139935 
L 204.461538 131.139935 
L 204.461538 126.658107 
L 218.769231 126.658107 
L 218.769231 127.542991 
L 233.076923 127.542991 
L 233.076923 126.377779 
L 247.384615 126.377779 
L 247.384615 122.854463 
L 261.692308 122.854463 
L 261.692308 120.973804 
L 276 120.973804 
L 276 124.74242 
L 290.307692 124.74242 
L 290.307692 120.523437 
L 304.615385 120.523437 
L 304.615385 120.084193 
L 318.923077 120.084193 
L 318.923077 126.091597 
L 333.230769 126.091597 
L 333.230769 117.702776 
L 347.538462 117.702776 
L 347.538462 117.799489 
L 361.846154 117.799489 
L 361.846154 120.486939 
L 376.153846 120.486939 
L 376.153846 120.574265 
L 390.461538 120.574265 
L 390.461538 125.051745 
L 404.769231 125.051745 
L 404.769231 116.232467 
L 419.076923 116.232467 
L 419.076923 121.01798 
L 433.384615 121.01798 
L 433.384615 106.15148 
L 447.692308 106.15148 
L 447.692308 117.40946 
L 462 117.40946 
L 462 126.310474 
L 476.307692 126.310474 
L 476.307692 120.574265 
L 490.615385 120.574265 
L 490.615385 97.211006 
L 504.923077 97.211006 
L 504.923077 122.216008 
L 519.230769 122.216008 
L 519.230769 119.401592 
L 533.538462 119.401592 
L 533.538462 122.424116 
L 547.846154 122.424116 
L 547.846154 96.860206 
L 562.153846 96.860206 
L 562.153846 122.101468 
L 576.461538 122.101468 
L 576.461538 112.722453 
L 590.769231 112.722453 
L 590.769231 112.365552 
L 605.076923 112.365552 
L 605.076923 121.320512 
L 619.384615 121.320512 
L 619.384615 105.980998 
L 633.692308 105.980998 
L 633.692308 139.043869 
L 648 139.043869 
" style="fill:none;stroke:#ff0000;stroke-linecap:square;stroke-width:1.5;"/>
   </g>
   <g id="line2d_13">
    <defs>
     <path d="M 2 0 
L -2 -0 
" id="m289f750ca6" style="stroke:#ff0000;"/>
    </defs>
    <g clip-path="url(#pef223c6eb5)">
     <use style="fill:#ff0000;stroke:#ff0000;" x="97.153846" xlink:href="#m289f750ca6" y="237.96987"/>
     <use style="fill:#ff0000;stroke:#ff0000;" x="111.461538" xlink:href="#m289f750ca6" y="184.528833"/>
     <use style="fill:#ff0000;stroke:#ff0000;" x="125.769231" xlink:href="#m289f750ca6" y="143.832133"/>
     <use style="fill:#ff0000;stroke:#ff0000;" x="140.076923" xlink:href="#m289f750ca6" y="136.272845"/>
     <use style="fill:#ff0000;stroke:#ff0000;" x="154.384615" xlink:href="#m289f750ca6" y="141.480507"/>
     <use style="fill:#ff0000;stroke:#ff0000;" x="168.692308" xlink:href="#m289f750ca6" y="143.139418"/>
     <use style="fill:#ff0000;stroke:#ff0000;" x="183" xlink:href="#m289f750ca6" y="135.075419"/>
     <use style="fill:#ff0000;stroke:#ff0000;" x="197.307692" xlink:href="#m289f750ca6" y="133.811337"/>
     <use style="fill:#ff0000;stroke:#ff0000;" x="211.615385" xlink:href="#m289f750ca6" y="129.69625"/>
     <use style="fill:#ff0000;stroke:#ff0000;" x="225.923077" xlink:href="#m289f750ca6" y="130.764829"/>
     <use style="fill:#ff0000;stroke:#ff0000;" x="240.230769" xlink:href="#m289f750ca6" y="129.963862"/>
     <use style="fill:#ff0000;stroke:#ff0000;" x="254.538462" xlink:href="#m289f750ca6" y="126.28961"/>
     <use style="fill:#ff0000;stroke:#ff0000;" x="268.846154" xlink:href="#m289f750ca6" y="124.664114"/>
     <use style="fill:#ff0000;stroke:#ff0000;" x="283.153846" xlink:href="#m289f750ca6" y="128.886609"/>
     <use style="fill:#ff0000;stroke:#ff0000;" x="297.461538" xlink:href="#m289f750ca6" y="124.884822"/>
     <use style="fill:#ff0000;stroke:#ff0000;" x="311.769231" xlink:href="#m289f750ca6" y="124.349651"/>
     <use style="fill:#ff0000;stroke:#ff0000;" x="326.076923" xlink:href="#m289f750ca6" y="131.39821"/>
     <use style="fill:#ff0000;stroke:#ff0000;" x="340.384615" xlink:href="#m289f750ca6" y="122.396004"/>
     <use style="fill:#ff0000;stroke:#ff0000;" x="354.692308" xlink:href="#m289f750ca6" y="123.039816"/>
     <use style="fill:#ff0000;stroke:#ff0000;" x="369" xlink:href="#m289f750ca6" y="126.261916"/>
     <use style="fill:#ff0000;stroke:#ff0000;" x="383.307692" xlink:href="#m289f750ca6" y="126.709614"/>
     <use style="fill:#ff0000;stroke:#ff0000;" x="397.615385" xlink:href="#m289f750ca6" y="132.298581"/>
     <use style="fill:#ff0000;stroke:#ff0000;" x="411.923077" xlink:href="#m289f750ca6" y="123.132841"/>
     <use style="fill:#ff0000;stroke:#ff0000;" x="426.230769" xlink:href="#m289f750ca6" y="128.651227"/>
     <use style="fill:#ff0000;stroke:#ff0000;" x="440.538462" xlink:href="#m289f750ca6" y="112.303381"/>
     <use style="fill:#ff0000;stroke:#ff0000;" x="454.846154" xlink:href="#m289f750ca6" y="125.922681"/>
     <use style="fill:#ff0000;stroke:#ff0000;" x="469.153846" xlink:href="#m289f750ca6" y="135.647202"/>
     <use style="fill:#ff0000;stroke:#ff0000;" x="483.461538" xlink:href="#m289f750ca6" y="129.043376"/>
     <use style="fill:#ff0000;stroke:#ff0000;" x="497.769231" xlink:href="#m289f750ca6" y="101.79491"/>
     <use style="fill:#ff0000;stroke:#ff0000;" x="512.076923" xlink:href="#m289f750ca6" y="133.783324"/>
     <use style="fill:#ff0000;stroke:#ff0000;" x="526.384615" xlink:href="#m289f750ca6" y="128.94635"/>
     <use style="fill:#ff0000;stroke:#ff0000;" x="540.692308" xlink:href="#m289f750ca6" y="132.197465"/>
     <use style="fill:#ff0000;stroke:#ff0000;" x="555" xlink:href="#m289f750ca6" y="103.22499"/>
     <use style="fill:#ff0000;stroke:#ff0000;" x="569.307692" xlink:href="#m289f750ca6" y="134.834638"/>
     <use style="fill:#ff0000;stroke:#ff0000;" x="583.615385" xlink:href="#m289f750ca6" y="121.479088"/>
     <use style="fill:#ff0000;stroke:#ff0000;" x="597.923077" xlink:href="#m289f750ca6" y="121.729404"/>
     <use style="fill:#ff0000;stroke:#ff0000;" x="612.230769" xlink:href="#m289f750ca6" y="133.772533"/>
     <use style="fill:#ff0000;stroke:#ff0000;" x="626.538462" xlink:href="#m289f750ca6" y="114.706307"/>
     <use style="fill:#ff0000;stroke:#ff0000;" x="640.846154" xlink:href="#m289f750ca6" y="159.017827"/>
    </g>
   </g>
   <g id="line2d_14">
    <g clip-path="url(#pef223c6eb5)">
     <use style="fill:#ff0000;stroke:#ff0000;" x="97.153846" xlink:href="#m289f750ca6" y="234.682366"/>
     <use style="fill:#ff0000;stroke:#ff0000;" x="111.461538" xlink:href="#m289f750ca6" y="181.341362"/>
     <use style="fill:#ff0000;stroke:#ff0000;" x="125.769231" xlink:href="#m289f750ca6" y="140.755387"/>
     <use style="fill:#ff0000;stroke:#ff0000;" x="140.076923" xlink:href="#m289f750ca6" y="132.921861"/>
     <use style="fill:#ff0000;stroke:#ff0000;" x="154.384615" xlink:href="#m289f750ca6" y="137.119339"/>
     <use style="fill:#ff0000;stroke:#ff0000;" x="168.692308" xlink:href="#m289f750ca6" y="138.105518"/>
     <use style="fill:#ff0000;stroke:#ff0000;" x="183" xlink:href="#m289f750ca6" y="129.912113"/>
     <use style="fill:#ff0000;stroke:#ff0000;" x="197.307692" xlink:href="#m289f750ca6" y="128.468533"/>
     <use style="fill:#ff0000;stroke:#ff0000;" x="211.615385" xlink:href="#m289f750ca6" y="123.619964"/>
     <use style="fill:#ff0000;stroke:#ff0000;" x="225.923077" xlink:href="#m289f750ca6" y="124.321154"/>
     <use style="fill:#ff0000;stroke:#ff0000;" x="240.230769" xlink:href="#m289f750ca6" y="122.791695"/>
     <use style="fill:#ff0000;stroke:#ff0000;" x="254.538462" xlink:href="#m289f750ca6" y="119.419317"/>
     <use style="fill:#ff0000;stroke:#ff0000;" x="268.846154" xlink:href="#m289f750ca6" y="117.283495"/>
     <use style="fill:#ff0000;stroke:#ff0000;" x="283.153846" xlink:href="#m289f750ca6" y="120.598231"/>
     <use style="fill:#ff0000;stroke:#ff0000;" x="297.461538" xlink:href="#m289f750ca6" y="116.162053"/>
     <use style="fill:#ff0000;stroke:#ff0000;" x="311.769231" xlink:href="#m289f750ca6" y="115.818735"/>
     <use style="fill:#ff0000;stroke:#ff0000;" x="326.076923" xlink:href="#m289f750ca6" y="120.784984"/>
     <use style="fill:#ff0000;stroke:#ff0000;" x="340.384615" xlink:href="#m289f750ca6" y="113.009548"/>
     <use style="fill:#ff0000;stroke:#ff0000;" x="354.692308" xlink:href="#m289f750ca6" y="112.559162"/>
     <use style="fill:#ff0000;stroke:#ff0000;" x="369" xlink:href="#m289f750ca6" y="114.711962"/>
     <use style="fill:#ff0000;stroke:#ff0000;" x="383.307692" xlink:href="#m289f750ca6" y="114.438917"/>
     <use style="fill:#ff0000;stroke:#ff0000;" x="397.615385" xlink:href="#m289f750ca6" y="117.804909"/>
     <use style="fill:#ff0000;stroke:#ff0000;" x="411.923077" xlink:href="#m289f750ca6" y="109.332092"/>
     <use style="fill:#ff0000;stroke:#ff0000;" x="426.230769" xlink:href="#m289f750ca6" y="113.384732"/>
     <use style="fill:#ff0000;stroke:#ff0000;" x="440.538462" xlink:href="#m289f750ca6" y="99.999579"/>
     <use style="fill:#ff0000;stroke:#ff0000;" x="454.846154" xlink:href="#m289f750ca6" y="108.896239"/>
     <use style="fill:#ff0000;stroke:#ff0000;" x="469.153846" xlink:href="#m289f750ca6" y="116.973746"/>
     <use style="fill:#ff0000;stroke:#ff0000;" x="483.461538" xlink:href="#m289f750ca6" y="112.105155"/>
     <use style="fill:#ff0000;stroke:#ff0000;" x="497.769231" xlink:href="#m289f750ca6" y="92.627101"/>
     <use style="fill:#ff0000;stroke:#ff0000;" x="512.076923" xlink:href="#m289f750ca6" y="110.648692"/>
     <use style="fill:#ff0000;stroke:#ff0000;" x="526.384615" xlink:href="#m289f750ca6" y="109.856834"/>
     <use style="fill:#ff0000;stroke:#ff0000;" x="540.692308" xlink:href="#m289f750ca6" y="112.650767"/>
     <use style="fill:#ff0000;stroke:#ff0000;" x="555" xlink:href="#m289f750ca6" y="90.495421"/>
     <use style="fill:#ff0000;stroke:#ff0000;" x="569.307692" xlink:href="#m289f750ca6" y="109.368297"/>
     <use style="fill:#ff0000;stroke:#ff0000;" x="583.615385" xlink:href="#m289f750ca6" y="103.965818"/>
     <use style="fill:#ff0000;stroke:#ff0000;" x="597.923077" xlink:href="#m289f750ca6" y="103.001701"/>
     <use style="fill:#ff0000;stroke:#ff0000;" x="612.230769" xlink:href="#m289f750ca6" y="108.868491"/>
     <use style="fill:#ff0000;stroke:#ff0000;" x="626.538462" xlink:href="#m289f750ca6" y="97.255689"/>
     <use style="fill:#ff0000;stroke:#ff0000;" x="640.846154" xlink:href="#m289f750ca6" y="119.069911"/>
    </g>
   </g>
   <g id="line2d_15">
    <path clip-path="url(#pef223c6eb5)" d="M 90 291.208613 
L 104.307692 291.208613 
L 104.307692 228.57096 
L 118.615385 228.57096 
L 118.615385 184.496647 
L 132.923077 184.496647 
L 132.923077 167.610135 
L 147.230769 167.610135 
L 147.230769 164.372068 
L 161.538462 164.372068 
L 161.538462 159.65787 
L 175.846154 159.65787 
L 175.846154 150.701001 
L 190.153846 150.701001 
L 190.153846 149.339707 
L 204.461538 149.339707 
L 204.461538 138.966121 
L 218.769231 138.966121 
L 218.769231 138.797932 
L 233.076923 138.797932 
L 233.076923 137.398109 
L 247.384615 137.398109 
L 247.384615 129.907368 
L 261.692308 129.907368 
L 261.692308 126.802901 
L 276 126.802901 
L 276 129.724762 
L 290.307692 129.724762 
L 290.307692 124.268654 
L 304.615385 124.268654 
L 304.615385 122.984757 
L 318.923077 122.984757 
L 318.923077 127.095989 
L 333.230769 127.095989 
L 333.230769 120.475828 
L 347.538462 120.475828 
L 347.538462 121.213194 
L 361.846154 121.213194 
L 361.846154 125.601043 
L 376.153846 125.601043 
L 376.153846 120.574265 
L 390.461538 120.574265 
L 390.461538 125.051745 
L 404.769231 125.051745 
L 404.769231 122.171603 
L 419.076923 122.171603 
L 419.076923 123.213679 
L 433.384615 123.213679 
L 433.384615 106.15148 
L 447.692308 106.15148 
L 447.692308 117.40946 
L 462 117.40946 
L 462 129.23569 
L 476.307692 129.23569 
L 476.307692 123.275867 
L 490.615385 123.275867 
L 490.615385 97.211006 
L 504.923077 97.211006 
L 504.923077 127.029299 
L 519.230769 127.029299 
L 519.230769 126.214265 
L 533.538462 126.214265 
L 533.538462 125.836643 
L 547.846154 125.836643 
L 547.846154 101.334557 
L 562.153846 101.334557 
L 562.153846 127.677766 
L 576.461538 127.677766 
L 576.461538 116.234808 
L 590.769231 116.234808 
L 590.769231 112.365552 
L 605.076923 112.365552 
L 605.076923 126.773853 
L 619.384615 126.773853 
L 619.384615 110.451975 
L 633.692308 110.451975 
L 633.692308 148.791716 
L 648 148.791716 
" style="fill:none;stroke:#0000ff;stroke-linecap:square;stroke-width:1.5;"/>
   </g>
   <g id="line2d_16">
    <defs>
     <path d="M 2 0 
L -2 -0 
" id="m517216d7ac" style="stroke:#0000ff;"/>
    </defs>
    <g clip-path="url(#pef223c6eb5)">
     <use style="fill:#0000ff;stroke:#0000ff;" x="97.153846" xlink:href="#m517216d7ac" y="292.30971"/>
     <use style="fill:#0000ff;stroke:#0000ff;" x="111.461538" xlink:href="#m517216d7ac" y="230.213059"/>
     <use style="fill:#0000ff;stroke:#0000ff;" x="125.769231" xlink:href="#m517216d7ac" y="186.317028"/>
     <use style="fill:#0000ff;stroke:#0000ff;" x="140.076923" xlink:href="#m517216d7ac" y="169.636116"/>
     <use style="fill:#0000ff;stroke:#0000ff;" x="154.384615" xlink:href="#m517216d7ac" y="166.914036"/>
     <use style="fill:#0000ff;stroke:#0000ff;" x="168.692308" xlink:href="#m517216d7ac" y="162.521836"/>
     <use style="fill:#0000ff;stroke:#0000ff;" x="183" xlink:href="#m517216d7ac" y="153.684812"/>
     <use style="fill:#0000ff;stroke:#0000ff;" x="197.307692" xlink:href="#m517216d7ac" y="152.436536"/>
     <use style="fill:#0000ff;stroke:#0000ff;" x="211.615385" xlink:href="#m517216d7ac" y="142.404248"/>
     <use style="fill:#0000ff;stroke:#0000ff;" x="225.923077" xlink:href="#m517216d7ac" y="142.406545"/>
     <use style="fill:#0000ff;stroke:#0000ff;" x="240.230769" xlink:href="#m517216d7ac" y="141.414463"/>
     <use style="fill:#0000ff;stroke:#0000ff;" x="254.538462" xlink:href="#m517216d7ac" y="133.653058"/>
     <use style="fill:#0000ff;stroke:#0000ff;" x="268.846154" xlink:href="#m517216d7ac" y="130.788841"/>
     <use style="fill:#0000ff;stroke:#0000ff;" x="283.153846" xlink:href="#m517216d7ac" y="134.128772"/>
     <use style="fill:#0000ff;stroke:#0000ff;" x="297.461538" xlink:href="#m517216d7ac" y="128.863893"/>
     <use style="fill:#0000ff;stroke:#0000ff;" x="311.769231" xlink:href="#m517216d7ac" y="127.432101"/>
     <use style="fill:#0000ff;stroke:#0000ff;" x="326.076923" xlink:href="#m517216d7ac" y="132.471178"/>
     <use style="fill:#0000ff;stroke:#0000ff;" x="340.384615" xlink:href="#m517216d7ac" y="125.374362"/>
     <use style="fill:#0000ff;stroke:#0000ff;" x="354.692308" xlink:href="#m517216d7ac" y="126.728973"/>
     <use style="fill:#0000ff;stroke:#0000ff;" x="369" xlink:href="#m517216d7ac" y="131.777917"/>
     <use style="fill:#0000ff;stroke:#0000ff;" x="383.307692" xlink:href="#m517216d7ac" y="126.709614"/>
     <use style="fill:#0000ff;stroke:#0000ff;" x="397.615385" xlink:href="#m517216d7ac" y="132.298581"/>
     <use style="fill:#0000ff;stroke:#0000ff;" x="411.923077" xlink:href="#m517216d7ac" y="129.68762"/>
     <use style="fill:#0000ff;stroke:#0000ff;" x="426.230769" xlink:href="#m517216d7ac" y="131.077691"/>
     <use style="fill:#0000ff;stroke:#0000ff;" x="440.538462" xlink:href="#m517216d7ac" y="112.303381"/>
     <use style="fill:#0000ff;stroke:#0000ff;" x="454.846154" xlink:href="#m517216d7ac" y="125.922681"/>
     <use style="fill:#0000ff;stroke:#0000ff;" x="469.153846" xlink:href="#m517216d7ac" y="138.888282"/>
     <use style="fill:#0000ff;stroke:#0000ff;" x="483.461538" xlink:href="#m517216d7ac" y="132.058107"/>
     <use style="fill:#0000ff;stroke:#0000ff;" x="497.769231" xlink:href="#m517216d7ac" y="101.79491"/>
     <use style="fill:#0000ff;stroke:#0000ff;" x="512.076923" xlink:href="#m517216d7ac" y="139.27381"/>
     <use style="fill:#0000ff;stroke:#0000ff;" x="526.384615" xlink:href="#m517216d7ac" y="136.60077"/>
     <use style="fill:#0000ff;stroke:#0000ff;" x="540.692308" xlink:href="#m517216d7ac" y="136.030734"/>
     <use style="fill:#0000ff;stroke:#0000ff;" x="555" xlink:href="#m517216d7ac" y="108.992121"/>
     <use style="fill:#0000ff;stroke:#0000ff;" x="569.307692" xlink:href="#m517216d7ac" y="141.242034"/>
     <use style="fill:#0000ff;stroke:#0000ff;" x="583.615385" xlink:href="#m517216d7ac" y="125.530212"/>
     <use style="fill:#0000ff;stroke:#0000ff;" x="597.923077" xlink:href="#m517216d7ac" y="121.729404"/>
     <use style="fill:#0000ff;stroke:#0000ff;" x="612.230769" xlink:href="#m517216d7ac" y="140.047124"/>
     <use style="fill:#0000ff;stroke:#0000ff;" x="626.538462" xlink:href="#m517216d7ac" y="120.083819"/>
     <use style="fill:#0000ff;stroke:#0000ff;" x="640.846154" xlink:href="#m517216d7ac" y="170.012696"/>
    </g>
   </g>
   <g id="line2d_17">
    <g clip-path="url(#pef223c6eb5)">
     <use style="fill:#0000ff;stroke:#0000ff;" x="97.153846" xlink:href="#m517216d7ac" y="290.107516"/>
     <use style="fill:#0000ff;stroke:#0000ff;" x="111.461538" xlink:href="#m517216d7ac" y="226.928862"/>
     <use style="fill:#0000ff;stroke:#0000ff;" x="125.769231" xlink:href="#m517216d7ac" y="182.676265"/>
     <use style="fill:#0000ff;stroke:#0000ff;" x="140.076923" xlink:href="#m517216d7ac" y="165.584155"/>
     <use style="fill:#0000ff;stroke:#0000ff;" x="154.384615" xlink:href="#m517216d7ac" y="161.830101"/>
     <use style="fill:#0000ff;stroke:#0000ff;" x="168.692308" xlink:href="#m517216d7ac" y="156.793903"/>
     <use style="fill:#0000ff;stroke:#0000ff;" x="183" xlink:href="#m517216d7ac" y="147.71719"/>
     <use style="fill:#0000ff;stroke:#0000ff;" x="197.307692" xlink:href="#m517216d7ac" y="146.242877"/>
     <use style="fill:#0000ff;stroke:#0000ff;" x="211.615385" xlink:href="#m517216d7ac" y="135.527994"/>
     <use style="fill:#0000ff;stroke:#0000ff;" x="225.923077" xlink:href="#m517216d7ac" y="135.189318"/>
     <use style="fill:#0000ff;stroke:#0000ff;" x="240.230769" xlink:href="#m517216d7ac" y="133.381755"/>
     <use style="fill:#0000ff;stroke:#0000ff;" x="254.538462" xlink:href="#m517216d7ac" y="126.161678"/>
     <use style="fill:#0000ff;stroke:#0000ff;" x="268.846154" xlink:href="#m517216d7ac" y="122.816962"/>
     <use style="fill:#0000ff;stroke:#0000ff;" x="283.153846" xlink:href="#m517216d7ac" y="125.320753"/>
     <use style="fill:#0000ff;stroke:#0000ff;" x="297.461538" xlink:href="#m517216d7ac" y="119.673416"/>
     <use style="fill:#0000ff;stroke:#0000ff;" x="311.769231" xlink:href="#m517216d7ac" y="118.537413"/>
     <use style="fill:#0000ff;stroke:#0000ff;" x="326.076923" xlink:href="#m517216d7ac" y="121.720801"/>
     <use style="fill:#0000ff;stroke:#0000ff;" x="340.384615" xlink:href="#m517216d7ac" y="115.577294"/>
     <use style="fill:#0000ff;stroke:#0000ff;" x="354.692308" xlink:href="#m517216d7ac" y="115.697416"/>
     <use style="fill:#0000ff;stroke:#0000ff;" x="369" xlink:href="#m517216d7ac" y="119.424169"/>
     <use style="fill:#0000ff;stroke:#0000ff;" x="383.307692" xlink:href="#m517216d7ac" y="114.438917"/>
     <use style="fill:#0000ff;stroke:#0000ff;" x="397.615385" xlink:href="#m517216d7ac" y="117.804909"/>
     <use style="fill:#0000ff;stroke:#0000ff;" x="411.923077" xlink:href="#m517216d7ac" y="114.655586"/>
     <use style="fill:#0000ff;stroke:#0000ff;" x="426.230769" xlink:href="#m517216d7ac" y="115.349667"/>
     <use style="fill:#0000ff;stroke:#0000ff;" x="440.538462" xlink:href="#m517216d7ac" y="99.999579"/>
     <use style="fill:#0000ff;stroke:#0000ff;" x="454.846154" xlink:href="#m517216d7ac" y="108.896239"/>
     <use style="fill:#0000ff;stroke:#0000ff;" x="469.153846" xlink:href="#m517216d7ac" y="119.583098"/>
     <use style="fill:#0000ff;stroke:#0000ff;" x="483.461538" xlink:href="#m517216d7ac" y="114.493627"/>
     <use style="fill:#0000ff;stroke:#0000ff;" x="497.769231" xlink:href="#m517216d7ac" y="92.627101"/>
     <use style="fill:#0000ff;stroke:#0000ff;" x="512.076923" xlink:href="#m517216d7ac" y="114.784788"/>
     <use style="fill:#0000ff;stroke:#0000ff;" x="526.384615" xlink:href="#m517216d7ac" y="115.82776"/>
     <use style="fill:#0000ff;stroke:#0000ff;" x="540.692308" xlink:href="#m517216d7ac" y="115.642553"/>
     <use style="fill:#0000ff;stroke:#0000ff;" x="555" xlink:href="#m517216d7ac" y="93.676993"/>
     <use style="fill:#0000ff;stroke:#0000ff;" x="569.307692" xlink:href="#m517216d7ac" y="114.113498"/>
     <use style="fill:#0000ff;stroke:#0000ff;" x="583.615385" xlink:href="#m517216d7ac" y="106.939403"/>
     <use style="fill:#0000ff;stroke:#0000ff;" x="597.923077" xlink:href="#m517216d7ac" y="103.001701"/>
     <use style="fill:#0000ff;stroke:#0000ff;" x="612.230769" xlink:href="#m517216d7ac" y="113.500582"/>
     <use style="fill:#0000ff;stroke:#0000ff;" x="626.538462" xlink:href="#m517216d7ac" y="100.82013"/>
     <use style="fill:#0000ff;stroke:#0000ff;" x="640.846154" xlink:href="#m517216d7ac" y="127.570736"/>
    </g>
   </g>
   <g id="patch_3">
    <path d="M 90 334.0008 
L 90 85.2768 
" style="fill:none;stroke:#000000;stroke-linecap:square;stroke-linejoin:miter;stroke-width:0.8;"/>
   </g>
   <g id="patch_4">
    <path d="M 648 334.0008 
L 648 85.2768 
" style="fill:none;stroke:#000000;stroke-linecap:square;stroke-linejoin:miter;stroke-width:0.8;"/>
   </g>
   <g id="patch_5">
    <path d="M 90 334.0008 
L 648 334.0008 
" style="fill:none;stroke:#000000;stroke-linecap:square;stroke-linejoin:miter;stroke-width:0.8;"/>
   </g>
   <g id="patch_6">
    <path d="M 90 85.2768 
L 648 85.2768 
" style="fill:none;stroke:#000000;stroke-linecap:square;stroke-linejoin:miter;stroke-width:0.8;"/>
   </g>
   <g id="legend_1">
    <g id="patch_7">
     <path d="M 266.025938 325.0008 
L 471.974063 325.0008 
Q 475.574063 325.0008 475.574063 321.4008 
L 475.574063 243.938925 
Q 475.574063 240.338925 471.974063 240.338925 
L 266.025938 240.338925 
Q 262.425938 240.338925 262.425938 243.938925 
L 262.425938 321.4008 
Q 262.425938 325.0008 266.025938 325.0008 
z
" style="fill:#ffffff;opacity:0.5;stroke:#cccccc;stroke-linejoin:miter;"/>
    </g>
    <g id="line2d_18">
     <path d="M 269.625938 254.916112 
L 305.625938 254.916112 
" style="fill:none;stroke:#008000;stroke-linecap:square;stroke-width:1.5;"/>
    </g>
    <g id="line2d_19"/>
    <g id="text_6">
     <!-- Efficiency -->
     <defs>
      <path d="M 9.8125 72.90625 
L 55.90625 72.90625 
L 55.90625 64.59375 
L 19.671875 64.59375 
L 19.671875 43.015625 
L 54.390625 43.015625 
L 54.390625 34.71875 
L 19.671875 34.71875 
L 19.671875 8.296875 
L 56.78125 8.296875 
L 56.78125 0 
L 9.8125 0 
z
" id="DejaVuSans-69"/>
      <path d="M 37.109375 75.984375 
L 37.109375 68.5 
L 28.515625 68.5 
Q 23.6875 68.5 21.796875 66.546875 
Q 19.921875 64.59375 19.921875 59.515625 
L 19.921875 54.6875 
L 34.71875 54.6875 
L 34.71875 47.703125 
L 19.921875 47.703125 
L 19.921875 0 
L 10.890625 0 
L 10.890625 47.703125 
L 2.296875 47.703125 
L 2.296875 54.6875 
L 10.890625 54.6875 
L 10.890625 58.5 
Q 10.890625 67.625 15.140625 71.796875 
Q 19.390625 75.984375 28.609375 75.984375 
z
" id="DejaVuSans-102"/>
      <path d="M 56.203125 29.59375 
L 56.203125 25.203125 
L 14.890625 25.203125 
Q 15.484375 15.921875 20.484375 11.0625 
Q 25.484375 6.203125 34.421875 6.203125 
Q 39.59375 6.203125 44.453125 7.46875 
Q 49.3125 8.734375 54.109375 11.28125 
L 54.109375 2.78125 
Q 49.265625 0.734375 44.1875 -0.34375 
Q 39.109375 -1.421875 33.890625 -1.421875 
Q 20.796875 -1.421875 13.15625 6.1875 
Q 5.515625 13.8125 5.515625 26.8125 
Q 5.515625 40.234375 12.765625 48.109375 
Q 20.015625 56 32.328125 56 
Q 43.359375 56 49.78125 48.890625 
Q 56.203125 41.796875 56.203125 29.59375 
z
M 47.21875 32.234375 
Q 47.125 39.59375 43.09375 43.984375 
Q 39.0625 48.390625 32.421875 48.390625 
Q 24.90625 48.390625 20.390625 44.140625 
Q 15.875 39.890625 15.1875 32.171875 
z
" id="DejaVuSans-101"/>
      <path d="M 32.171875 -5.078125 
Q 28.375 -14.84375 24.75 -17.8125 
Q 21.140625 -20.796875 15.09375 -20.796875 
L 7.90625 -20.796875 
L 7.90625 -13.28125 
L 13.1875 -13.28125 
Q 16.890625 -13.28125 18.9375 -11.515625 
Q 21 -9.765625 23.484375 -3.21875 
L 25.09375 0.875 
L 2.984375 54.6875 
L 12.5 54.6875 
L 29.59375 11.921875 
L 46.6875 54.6875 
L 56.203125 54.6875 
z
" id="DejaVuSans-121"/>
     </defs>
     <g transform="translate(320.025937 261.216113)scale(0.18 -0.18)">
      <use xlink:href="#DejaVuSans-69"/>
      <use x="63.183594" xlink:href="#DejaVuSans-102"/>
      <use x="98.388672" xlink:href="#DejaVuSans-102"/>
      <use x="133.59375" xlink:href="#DejaVuSans-105"/>
      <use x="161.376953" xlink:href="#DejaVuSans-99"/>
      <use x="216.357422" xlink:href="#DejaVuSans-105"/>
      <use x="244.140625" xlink:href="#DejaVuSans-101"/>
      <use x="305.664062" xlink:href="#DejaVuSans-110"/>
      <use x="369.042969" xlink:href="#DejaVuSans-99"/>
      <use x="424.023438" xlink:href="#DejaVuSans-121"/>
     </g>
    </g>
    <g id="line2d_20">
     <path d="M 269.625938 281.336737 
L 305.625938 281.336737 
" style="fill:none;stroke:#ff0000;stroke-linecap:square;stroke-width:1.5;"/>
    </g>
    <g id="line2d_21"/>
    <g id="text_7">
     <!-- Purity -->
     <defs>
      <path d="M 19.671875 64.796875 
L 19.671875 37.40625 
L 32.078125 37.40625 
Q 38.96875 37.40625 42.71875 40.96875 
Q 46.484375 44.53125 46.484375 51.125 
Q 46.484375 57.671875 42.71875 61.234375 
Q 38.96875 64.796875 32.078125 64.796875 
z
M 9.8125 72.90625 
L 32.078125 72.90625 
Q 44.34375 72.90625 50.609375 67.359375 
Q 56.890625 61.8125 56.890625 51.125 
Q 56.890625 40.328125 50.609375 34.8125 
Q 44.34375 29.296875 32.078125 29.296875 
L 19.671875 29.296875 
L 19.671875 0 
L 9.8125 0 
z
" id="DejaVuSans-80"/>
      <path d="M 8.5 21.578125 
L 8.5 54.6875 
L 17.484375 54.6875 
L 17.484375 21.921875 
Q 17.484375 14.15625 20.5 10.265625 
Q 23.53125 6.390625 29.59375 6.390625 
Q 36.859375 6.390625 41.078125 11.03125 
Q 45.3125 15.671875 45.3125 23.6875 
L 45.3125 54.6875 
L 54.296875 54.6875 
L 54.296875 0 
L 45.3125 0 
L 45.3125 8.40625 
Q 42.046875 3.421875 37.71875 1 
Q 33.40625 -1.421875 27.6875 -1.421875 
Q 18.265625 -1.421875 13.375 4.4375 
Q 8.5 10.296875 8.5 21.578125 
z
M 31.109375 56 
z
" id="DejaVuSans-117"/>
     </defs>
     <g transform="translate(320.025937 287.636737)scale(0.18 -0.18)">
      <use xlink:href="#DejaVuSans-80"/>
      <use x="60.287109" xlink:href="#DejaVuSans-117"/>
      <use x="123.666016" xlink:href="#DejaVuSans-114"/>
      <use x="164.779297" xlink:href="#DejaVuSans-105"/>
      <use x="192.5625" xlink:href="#DejaVuSans-116"/>
      <use x="231.771484" xlink:href="#DejaVuSans-121"/>
     </g>
    </g>
    <g id="line2d_22">
     <path d="M 269.625938 307.757362 
L 305.625938 307.757362 
" style="fill:none;stroke:#0000ff;stroke-linecap:square;stroke-width:1.5;"/>
    </g>
    <g id="line2d_23"/>
    <g id="text_8">
     <!-- Purity*Efficiency -->
     <defs>
      <path d="M 47.015625 60.890625 
L 29.5 51.421875 
L 47.015625 41.890625 
L 44.1875 37.109375 
L 27.78125 47.015625 
L 27.78125 28.609375 
L 22.21875 28.609375 
L 22.21875 47.015625 
L 5.8125 37.109375 
L 2.984375 41.890625 
L 20.515625 51.421875 
L 2.984375 60.890625 
L 5.8125 65.71875 
L 22.21875 55.8125 
L 22.21875 74.21875 
L 27.78125 74.21875 
L 27.78125 55.8125 
L 44.1875 65.71875 
z
" id="DejaVuSans-42"/>
     </defs>
     <g transform="translate(320.025937 314.057363)scale(0.18 -0.18)">
      <use xlink:href="#DejaVuSans-80"/>
      <use x="60.287109" xlink:href="#DejaVuSans-117"/>
      <use x="123.666016" xlink:href="#DejaVuSans-114"/>
      <use x="164.779297" xlink:href="#DejaVuSans-105"/>
      <use x="192.5625" xlink:href="#DejaVuSans-116"/>
      <use x="231.771484" xlink:href="#DejaVuSans-121"/>
      <use x="290.951172" xlink:href="#DejaVuSans-42"/>
      <use x="340.951172" xlink:href="#DejaVuSans-69"/>
      <use x="404.134766" xlink:href="#DejaVuSans-102"/>
      <use x="439.339844" xlink:href="#DejaVuSans-102"/>
      <use x="474.544922" xlink:href="#DejaVuSans-105"/>
      <use x="502.328125" xlink:href="#DejaVuSans-99"/>
      <use x="557.308594" xlink:href="#DejaVuSans-105"/>
      <use x="585.091797" xlink:href="#DejaVuSans-101"/>
      <use x="646.615234" xlink:href="#DejaVuSans-110"/>
      <use x="709.994141" xlink:href="#DejaVuSans-99"/>
      <use x="764.974609" xlink:href="#DejaVuSans-121"/>
     </g>
    </g>
   </g>
  </g>
  <g id="axes_2">
   <g id="patch_8">
    <path d="M 90 632.4696 
L 648 632.4696 
L 648 383.7456 
L 90 383.7456 
z
" style="fill:#ffffff;"/>
   </g>
   <g id="patch_9">
    <path clip-path="url(#pf8049fd381)" d="M 90 70678.089762 
L 90 395.051236 
L 104.307692 395.051236 
L 104.307692 395.852427 
L 118.615385 395.852427 
L 118.615385 395.222443 
L 132.923077 395.222443 
L 132.923077 403.607359 
L 147.230769 403.607359 
L 147.230769 419.989671 
L 161.538462 419.989671 
L 161.538462 429.601958 
L 175.846154 429.601958 
L 175.846154 432.599024 
L 190.153846 432.599024 
L 190.153846 434.87449 
L 204.461538 434.87449 
L 204.461538 444.916288 
L 218.769231 444.916288 
L 218.769231 448.34295 
L 233.076923 448.34295 
L 233.076923 455.039581 
L 247.384615 455.039581 
L 247.384615 454.527296 
L 261.692308 454.527296 
L 261.692308 459.857686 
L 276 459.857686 
L 276 465.312552 
L 290.307692 465.312552 
L 290.307692 470.319724 
L 304.615385 470.319724 
L 304.615385 469.270786 
L 318.923077 469.270786 
L 318.923077 480.045918 
L 333.230769 480.045918 
L 333.230769 476.316824 
L 347.538462 476.316824 
L 347.538462 482.652424 
L 361.846154 482.652424 
L 361.846154 486.577032 
L 376.153846 486.577032 
L 376.153846 491.084117 
L 390.461538 491.084117 
L 390.461538 498.728142 
L 404.769231 498.728142 
L 404.769231 499.276196 
L 419.076923 499.276196 
L 419.076923 503.10162 
L 433.384615 503.10162 
L 433.384615 502.48086 
L 447.692308 502.48086 
L 447.692308 511.747466 
L 462 511.747466 
L 462 512.592414 
L 476.307692 512.592414 
L 476.307692 509.34494 
L 490.615385 509.34494 
L 490.615385 501.872516 
L 504.923077 501.872516 
L 504.923077 526.462721 
L 519.230769 526.462721 
L 519.230769 516.228521 
L 533.538462 516.228521 
L 533.538462 516.71519 
L 547.846154 516.71519 
L 547.846154 521.485739 
L 562.153846 521.485739 
L 562.153846 531.605377 
L 576.461538 531.605377 
L 576.461538 516.228521 
L 590.769231 516.228521 
L 590.769231 520.917196 
L 605.076923 520.917196 
L 605.076923 530.815302 
L 619.384615 530.815302 
L 619.384615 522.655737 
L 633.692308 522.655737 
L 633.692308 548.229149 
L 648 548.229149 
L 648 70678.089762 
z
" style="fill:#1f77b4;opacity:0.2;"/>
   </g>
   <g id="matplotlib.axis_3">
    <g id="xtick_6">
     <g id="line2d_24">
      <g>
       <use style="stroke:#000000;stroke-width:0.8;" x="90" xlink:href="#m6b4fcf29e5" y="632.4696"/>
      </g>
     </g>
     <g id="text_9">
      <!-- 0 -->
      <g transform="translate(81.7542 659.16475)scale(0.2592 -0.2592)">
       <use xlink:href="#DejaVuSans-48"/>
      </g>
     </g>
    </g>
    <g id="xtick_7">
     <g id="line2d_25">
      <g>
       <use style="stroke:#000000;stroke-width:0.8;" x="229.5" xlink:href="#m6b4fcf29e5" y="632.4696"/>
      </g>
     </g>
     <g id="text_10">
      <!-- 100 -->
      <g transform="translate(204.7626 659.16475)scale(0.2592 -0.2592)">
       <use xlink:href="#DejaVuSans-49"/>
       <use x="63.623047" xlink:href="#DejaVuSans-48"/>
       <use x="127.246094" xlink:href="#DejaVuSans-48"/>
      </g>
     </g>
    </g>
    <g id="xtick_8">
     <g id="line2d_26">
      <g>
       <use style="stroke:#000000;stroke-width:0.8;" x="369" xlink:href="#m6b4fcf29e5" y="632.4696"/>
      </g>
     </g>
     <g id="text_11">
      <!-- 200 -->
      <defs>
       <path d="M 19.1875 8.296875 
L 53.609375 8.296875 
L 53.609375 0 
L 7.328125 0 
L 7.328125 8.296875 
Q 12.9375 14.109375 22.625 23.890625 
Q 32.328125 33.6875 34.8125 36.53125 
Q 39.546875 41.84375 41.421875 45.53125 
Q 43.3125 49.21875 43.3125 52.78125 
Q 43.3125 58.59375 39.234375 62.25 
Q 35.15625 65.921875 28.609375 65.921875 
Q 23.96875 65.921875 18.8125 64.3125 
Q 13.671875 62.703125 7.8125 59.421875 
L 7.8125 69.390625 
Q 13.765625 71.78125 18.9375 73 
Q 24.125 74.21875 28.421875 74.21875 
Q 39.75 74.21875 46.484375 68.546875 
Q 53.21875 62.890625 53.21875 53.421875 
Q 53.21875 48.921875 51.53125 44.890625 
Q 49.859375 40.875 45.40625 35.40625 
Q 44.1875 33.984375 37.640625 27.21875 
Q 31.109375 20.453125 19.1875 8.296875 
z
" id="DejaVuSans-50"/>
      </defs>
      <g transform="translate(344.2626 659.16475)scale(0.2592 -0.2592)">
       <use xlink:href="#DejaVuSans-50"/>
       <use x="63.623047" xlink:href="#DejaVuSans-48"/>
       <use x="127.246094" xlink:href="#DejaVuSans-48"/>
      </g>
     </g>
    </g>
    <g id="xtick_9">
     <g id="line2d_27">
      <g>
       <use style="stroke:#000000;stroke-width:0.8;" x="508.5" xlink:href="#m6b4fcf29e5" y="632.4696"/>
      </g>
     </g>
     <g id="text_12">
      <!-- 300 -->
      <defs>
       <path d="M 40.578125 39.3125 
Q 47.65625 37.796875 51.625 33 
Q 55.609375 28.21875 55.609375 21.1875 
Q 55.609375 10.40625 48.1875 4.484375 
Q 40.765625 -1.421875 27.09375 -1.421875 
Q 22.515625 -1.421875 17.65625 -0.515625 
Q 12.796875 0.390625 7.625 2.203125 
L 7.625 11.71875 
Q 11.71875 9.328125 16.59375 8.109375 
Q 21.484375 6.890625 26.8125 6.890625 
Q 36.078125 6.890625 40.9375 10.546875 
Q 45.796875 14.203125 45.796875 21.1875 
Q 45.796875 27.640625 41.28125 31.265625 
Q 36.765625 34.90625 28.71875 34.90625 
L 20.21875 34.90625 
L 20.21875 43.015625 
L 29.109375 43.015625 
Q 36.375 43.015625 40.234375 45.921875 
Q 44.09375 48.828125 44.09375 54.296875 
Q 44.09375 59.90625 40.109375 62.90625 
Q 36.140625 65.921875 28.71875 65.921875 
Q 24.65625 65.921875 20.015625 65.03125 
Q 15.375 64.15625 9.8125 62.3125 
L 9.8125 71.09375 
Q 15.4375 72.65625 20.34375 73.4375 
Q 25.25 74.21875 29.59375 74.21875 
Q 40.828125 74.21875 47.359375 69.109375 
Q 53.90625 64.015625 53.90625 55.328125 
Q 53.90625 49.265625 50.4375 45.09375 
Q 46.96875 40.921875 40.578125 39.3125 
z
" id="DejaVuSans-51"/>
      </defs>
      <g transform="translate(483.7626 659.16475)scale(0.2592 -0.2592)">
       <use xlink:href="#DejaVuSans-51"/>
       <use x="63.623047" xlink:href="#DejaVuSans-48"/>
       <use x="127.246094" xlink:href="#DejaVuSans-48"/>
      </g>
     </g>
    </g>
    <g id="xtick_10">
     <g id="line2d_28">
      <g>
       <use style="stroke:#000000;stroke-width:0.8;" x="648" xlink:href="#m6b4fcf29e5" y="632.4696"/>
      </g>
     </g>
     <g id="text_13">
      <!-- 400 -->
      <defs>
       <path d="M 37.796875 64.3125 
L 12.890625 25.390625 
L 37.796875 25.390625 
z
M 35.203125 72.90625 
L 47.609375 72.90625 
L 47.609375 25.390625 
L 58.015625 25.390625 
L 58.015625 17.1875 
L 47.609375 17.1875 
L 47.609375 0 
L 37.796875 0 
L 37.796875 17.1875 
L 4.890625 17.1875 
L 4.890625 26.703125 
z
" id="DejaVuSans-52"/>
      </defs>
      <g transform="translate(623.2626 659.16475)scale(0.2592 -0.2592)">
       <use xlink:href="#DejaVuSans-52"/>
       <use x="63.623047" xlink:href="#DejaVuSans-48"/>
       <use x="127.246094" xlink:href="#DejaVuSans-48"/>
      </g>
     </g>
    </g>
    <g id="text_14">
     <!-- nHitsW -->
     <g transform="translate(322.79355 688.25045)scale(0.2592 -0.2592)">
      <use xlink:href="#DejaVuSans-110"/>
      <use x="63.378906" xlink:href="#DejaVuSans-72"/>
      <use x="138.574219" xlink:href="#DejaVuSans-105"/>
      <use x="166.357422" xlink:href="#DejaVuSans-116"/>
      <use x="205.566406" xlink:href="#DejaVuSans-115"/>
      <use x="257.666016" xlink:href="#DejaVuSans-87"/>
     </g>
    </g>
   </g>
   <g id="matplotlib.axis_4">
    <g id="ytick_4">
     <g id="line2d_29">
      <g>
       <use style="stroke:#000000;stroke-width:0.8;" x="90" xlink:href="#ma035a38087" y="572.21101"/>
      </g>
     </g>
     <g id="text_15">
      <!-- $\mathdefault{10^{1}}$ -->
      <g transform="translate(37.3808 582.058585)scale(0.2592 -0.2592)">
       <use transform="translate(0 0.684375)" xlink:href="#DejaVuSans-49"/>
       <use transform="translate(63.623047 0.684375)" xlink:href="#DejaVuSans-48"/>
       <use transform="translate(128.203125 38.965625)scale(0.7)" xlink:href="#DejaVuSans-49"/>
      </g>
     </g>
    </g>
    <g id="ytick_5">
     <g id="line2d_30">
      <g>
       <use style="stroke:#000000;stroke-width:0.8;" x="90" xlink:href="#ma035a38087" y="502.175167"/>
      </g>
     </g>
     <g id="text_16">
      <!-- $\mathdefault{10^{2}}$ -->
      <g transform="translate(37.3808 512.022742)scale(0.2592 -0.2592)">
       <use transform="translate(0 0.765625)" xlink:href="#DejaVuSans-49"/>
       <use transform="translate(63.623047 0.765625)" xlink:href="#DejaVuSans-48"/>
       <use transform="translate(128.203125 39.046875)scale(0.7)" xlink:href="#DejaVuSans-50"/>
      </g>
     </g>
    </g>
    <g id="ytick_6">
     <g id="line2d_31">
      <g>
       <use style="stroke:#000000;stroke-width:0.8;" x="90" xlink:href="#ma035a38087" y="432.139324"/>
      </g>
     </g>
     <g id="text_17">
      <!-- $\mathdefault{10^{3}}$ -->
      <g transform="translate(37.3808 441.986899)scale(0.2592 -0.2592)">
       <use transform="translate(0 0.765625)" xlink:href="#DejaVuSans-49"/>
       <use transform="translate(63.623047 0.765625)" xlink:href="#DejaVuSans-48"/>
       <use transform="translate(128.203125 39.046875)scale(0.7)" xlink:href="#DejaVuSans-51"/>
      </g>
     </g>
    </g>
    <g id="ytick_7">
     <g id="line2d_32">
      <defs>
       <path d="M 0 0 
L -2 0 
" id="m669de5f2c0" style="stroke:#000000;stroke-width:0.6;"/>
      </defs>
      <g>
       <use style="stroke:#000000;stroke-width:0.6;" x="90" xlink:href="#m669de5f2c0" y="621.163964"/>
      </g>
     </g>
    </g>
    <g id="ytick_8">
     <g id="line2d_33">
      <g>
       <use style="stroke:#000000;stroke-width:0.6;" x="90" xlink:href="#m669de5f2c0" y="608.831264"/>
      </g>
     </g>
    </g>
    <g id="ytick_9">
     <g id="line2d_34">
      <g>
       <use style="stroke:#000000;stroke-width:0.6;" x="90" xlink:href="#m669de5f2c0" y="600.081074"/>
      </g>
     </g>
    </g>
    <g id="ytick_10">
     <g id="line2d_35">
      <g>
       <use style="stroke:#000000;stroke-width:0.6;" x="90" xlink:href="#m669de5f2c0" y="593.2939"/>
      </g>
     </g>
    </g>
    <g id="ytick_11">
     <g id="line2d_36">
      <g>
       <use style="stroke:#000000;stroke-width:0.6;" x="90" xlink:href="#m669de5f2c0" y="587.748374"/>
      </g>
     </g>
    </g>
    <g id="ytick_12">
     <g id="line2d_37">
      <g>
       <use style="stroke:#000000;stroke-width:0.6;" x="90" xlink:href="#m669de5f2c0" y="583.0597"/>
      </g>
     </g>
    </g>
    <g id="ytick_13">
     <g id="line2d_38">
      <g>
       <use style="stroke:#000000;stroke-width:0.6;" x="90" xlink:href="#m669de5f2c0" y="578.998185"/>
      </g>
     </g>
    </g>
    <g id="ytick_14">
     <g id="line2d_39">
      <g>
       <use style="stroke:#000000;stroke-width:0.6;" x="90" xlink:href="#m669de5f2c0" y="575.415675"/>
      </g>
     </g>
    </g>
    <g id="ytick_15">
     <g id="line2d_40">
      <g>
       <use style="stroke:#000000;stroke-width:0.6;" x="90" xlink:href="#m669de5f2c0" y="551.128121"/>
      </g>
     </g>
    </g>
    <g id="ytick_16">
     <g id="line2d_41">
      <g>
       <use style="stroke:#000000;stroke-width:0.6;" x="90" xlink:href="#m669de5f2c0" y="538.795421"/>
      </g>
     </g>
    </g>
    <g id="ytick_17">
     <g id="line2d_42">
      <g>
       <use style="stroke:#000000;stroke-width:0.6;" x="90" xlink:href="#m669de5f2c0" y="530.045231"/>
      </g>
     </g>
    </g>
    <g id="ytick_18">
     <g id="line2d_43">
      <g>
       <use style="stroke:#000000;stroke-width:0.6;" x="90" xlink:href="#m669de5f2c0" y="523.258057"/>
      </g>
     </g>
    </g>
    <g id="ytick_19">
     <g id="line2d_44">
      <g>
       <use style="stroke:#000000;stroke-width:0.6;" x="90" xlink:href="#m669de5f2c0" y="517.712531"/>
      </g>
     </g>
    </g>
    <g id="ytick_20">
     <g id="line2d_45">
      <g>
       <use style="stroke:#000000;stroke-width:0.6;" x="90" xlink:href="#m669de5f2c0" y="513.023857"/>
      </g>
     </g>
    </g>
    <g id="ytick_21">
     <g id="line2d_46">
      <g>
       <use style="stroke:#000000;stroke-width:0.6;" x="90" xlink:href="#m669de5f2c0" y="508.962342"/>
      </g>
     </g>
    </g>
    <g id="ytick_22">
     <g id="line2d_47">
      <g>
       <use style="stroke:#000000;stroke-width:0.6;" x="90" xlink:href="#m669de5f2c0" y="505.379832"/>
      </g>
     </g>
    </g>
    <g id="ytick_23">
     <g id="line2d_48">
      <g>
       <use style="stroke:#000000;stroke-width:0.6;" x="90" xlink:href="#m669de5f2c0" y="481.092278"/>
      </g>
     </g>
    </g>
    <g id="ytick_24">
     <g id="line2d_49">
      <g>
       <use style="stroke:#000000;stroke-width:0.6;" x="90" xlink:href="#m669de5f2c0" y="468.759578"/>
      </g>
     </g>
    </g>
    <g id="ytick_25">
     <g id="line2d_50">
      <g>
       <use style="stroke:#000000;stroke-width:0.6;" x="90" xlink:href="#m669de5f2c0" y="460.009388"/>
      </g>
     </g>
    </g>
    <g id="ytick_26">
     <g id="line2d_51">
      <g>
       <use style="stroke:#000000;stroke-width:0.6;" x="90" xlink:href="#m669de5f2c0" y="453.222214"/>
      </g>
     </g>
    </g>
    <g id="ytick_27">
     <g id="line2d_52">
      <g>
       <use style="stroke:#000000;stroke-width:0.6;" x="90" xlink:href="#m669de5f2c0" y="447.676689"/>
      </g>
     </g>
    </g>
    <g id="ytick_28">
     <g id="line2d_53">
      <g>
       <use style="stroke:#000000;stroke-width:0.6;" x="90" xlink:href="#m669de5f2c0" y="442.988014"/>
      </g>
     </g>
    </g>
    <g id="ytick_29">
     <g id="line2d_54">
      <g>
       <use style="stroke:#000000;stroke-width:0.6;" x="90" xlink:href="#m669de5f2c0" y="438.926499"/>
      </g>
     </g>
    </g>
    <g id="ytick_30">
     <g id="line2d_55">
      <g>
       <use style="stroke:#000000;stroke-width:0.6;" x="90" xlink:href="#m669de5f2c0" y="435.343989"/>
      </g>
     </g>
    </g>
    <g id="ytick_31">
     <g id="line2d_56">
      <g>
       <use style="stroke:#000000;stroke-width:0.6;" x="90" xlink:href="#m669de5f2c0" y="411.056435"/>
      </g>
     </g>
    </g>
    <g id="ytick_32">
     <g id="line2d_57">
      <g>
       <use style="stroke:#000000;stroke-width:0.6;" x="90" xlink:href="#m669de5f2c0" y="398.723735"/>
      </g>
     </g>
    </g>
    <g id="ytick_33">
     <g id="line2d_58">
      <g>
       <use style="stroke:#000000;stroke-width:0.6;" x="90" xlink:href="#m669de5f2c0" y="389.973545"/>
      </g>
     </g>
    </g>
    <g id="text_18">
     <!-- Count -->
     <defs>
      <path d="M 64.40625 67.28125 
L 64.40625 56.890625 
Q 59.421875 61.53125 53.78125 63.8125 
Q 48.140625 66.109375 41.796875 66.109375 
Q 29.296875 66.109375 22.65625 58.46875 
Q 16.015625 50.828125 16.015625 36.375 
Q 16.015625 21.96875 22.65625 14.328125 
Q 29.296875 6.6875 41.796875 6.6875 
Q 48.140625 6.6875 53.78125 8.984375 
Q 59.421875 11.28125 64.40625 15.921875 
L 64.40625 5.609375 
Q 59.234375 2.09375 53.4375 0.328125 
Q 47.65625 -1.421875 41.21875 -1.421875 
Q 24.65625 -1.421875 15.125 8.703125 
Q 5.609375 18.84375 5.609375 36.375 
Q 5.609375 53.953125 15.125 64.078125 
Q 24.65625 74.21875 41.21875 74.21875 
Q 47.75 74.21875 53.53125 72.484375 
Q 59.328125 70.75 64.40625 67.28125 
z
" id="DejaVuSans-67"/>
     </defs>
     <g transform="translate(27.99025 546.59475)rotate(-90)scale(0.2592 -0.2592)">
      <use xlink:href="#DejaVuSans-67"/>
      <use x="69.824219" xlink:href="#DejaVuSans-111"/>
      <use x="131.005859" xlink:href="#DejaVuSans-117"/>
      <use x="194.384766" xlink:href="#DejaVuSans-110"/>
      <use x="257.763672" xlink:href="#DejaVuSans-116"/>
     </g>
    </g>
   </g>
   <g id="line2d_59">
    <path clip-path="url(#pf8049fd381)" d="M 90 395.051236 
L 104.307692 395.051236 
L 104.307692 395.852427 
L 118.615385 395.852427 
L 118.615385 395.222443 
L 132.923077 395.222443 
L 132.923077 403.607359 
L 147.230769 403.607359 
L 147.230769 419.989671 
L 161.538462 419.989671 
L 161.538462 429.601958 
L 175.846154 429.601958 
L 175.846154 432.599024 
L 190.153846 432.599024 
L 190.153846 434.87449 
L 204.461538 434.87449 
L 204.461538 444.916288 
L 218.769231 444.916288 
L 218.769231 448.34295 
L 233.076923 448.34295 
L 233.076923 455.039581 
L 247.384615 455.039581 
L 247.384615 454.527296 
L 261.692308 454.527296 
L 261.692308 459.857686 
L 276 459.857686 
L 276 465.312552 
L 290.307692 465.312552 
L 290.307692 470.319724 
L 304.615385 470.319724 
L 304.615385 469.270786 
L 318.923077 469.270786 
L 318.923077 480.045918 
L 333.230769 480.045918 
L 333.230769 476.316824 
L 347.538462 476.316824 
L 347.538462 482.652424 
L 361.846154 482.652424 
L 361.846154 486.577032 
L 376.153846 486.577032 
L 376.153846 491.084117 
L 390.461538 491.084117 
L 390.461538 498.728142 
L 404.769231 498.728142 
L 404.769231 499.276196 
L 419.076923 499.276196 
L 419.076923 503.10162 
L 433.384615 503.10162 
L 433.384615 502.48086 
L 447.692308 502.48086 
L 447.692308 511.747466 
L 462 511.747466 
L 462 512.592414 
L 476.307692 512.592414 
L 476.307692 509.34494 
L 490.615385 509.34494 
L 490.615385 501.872516 
L 504.923077 501.872516 
L 504.923077 526.462721 
L 519.230769 526.462721 
L 519.230769 516.228521 
L 533.538462 516.228521 
L 533.538462 516.71519 
L 547.846154 516.71519 
L 547.846154 521.485739 
L 562.153846 521.485739 
L 562.153846 531.605377 
L 576.461538 531.605377 
L 576.461538 516.228521 
L 590.769231 516.228521 
L 590.769231 520.917196 
L 605.076923 520.917196 
L 605.076923 530.815302 
L 619.384615 530.815302 
L 619.384615 522.655737 
L 633.692308 522.655737 
L 633.692308 548.229149 
L 648 548.229149 
" style="fill:none;stroke:#1f77b4;stroke-linecap:square;stroke-width:1.5;"/>
   </g>
   <g id="line2d_60">
    <path clip-path="url(#pf8049fd381)" d="M 90 420.15331 
L 104.307692 420.15331 
L 104.307692 406.792189 
L 118.615385 406.792189 
L 118.615385 402.78525 
L 132.923077 402.78525 
L 132.923077 409.112436 
L 147.230769 409.112436 
L 147.230769 424.182612 
L 161.538462 424.182612 
L 161.538462 432.753814 
L 175.846154 432.753814 
L 175.846154 435.479473 
L 190.153846 435.479473 
L 190.153846 437.733555 
L 204.461538 437.733555 
L 204.461538 446.777623 
L 218.769231 446.777623 
L 218.769231 450.047981 
L 233.076923 450.047981 
L 233.076923 456.698453 
L 247.384615 456.698453 
L 247.384615 455.560642 
L 261.692308 455.560642 
L 261.692308 460.701569 
L 276 460.701569 
L 276 466.045508 
L 290.307692 466.045508 
L 290.307692 470.858078 
L 304.615385 470.858078 
L 304.615385 469.686031 
L 318.923077 469.686031 
L 318.923077 480.193212 
L 333.230769 480.193212 
L 333.230769 476.709296 
L 347.538462 476.709296 
L 347.538462 483.136511 
L 361.846154 483.136511 
L 361.846154 487.31443 
L 376.153846 487.31443 
L 376.153846 491.296077 
L 390.461538 491.296077 
L 390.461538 498.728142 
L 404.769231 498.728142 
L 404.769231 500.11725 
L 419.076923 500.11725 
L 419.076923 503.416816 
L 433.384615 503.416816 
L 433.384615 502.48086 
L 447.692308 502.48086 
L 447.692308 511.747466 
L 462 511.747466 
L 462 513.023857 
L 476.307692 513.023857 
L 476.307692 509.732413 
L 490.615385 509.732413 
L 490.615385 502.175167 
L 504.923077 502.175167 
L 504.923077 527.845513 
L 519.230769 527.845513 
L 519.230769 517.209773 
L 533.538462 517.209773 
L 533.538462 517.209773 
L 547.846154 517.209773 
L 547.846154 522.065113 
L 562.153846 522.065113 
L 562.153846 532.416524 
L 576.461538 532.416524 
L 576.461538 516.71519 
L 590.769231 516.71519 
L 590.769231 520.917196 
L 605.076923 520.917196 
L 605.076923 531.605377 
L 619.384615 531.605377 
L 619.384615 523.258057 
L 633.692308 523.258057 
L 633.692308 549.64411 
L 648 549.64411 
" style="fill:none;stroke:#ff7f0e;stroke-linecap:square;stroke-width:1.5;"/>
   </g>
   <g id="line2d_61">
    <path clip-path="url(#pf8049fd381)" d="M 90 407.392923 
L 104.307692 407.392923 
L 104.307692 420.83778 
L 118.615385 420.83778 
L 118.615385 441.011423 
L 132.923077 441.011423 
L 132.923077 453.161442 
L 147.230769 453.161442 
L 147.230769 464.596845 
L 161.538462 464.596845 
L 161.538462 472.190386 
L 175.846154 472.190386 
L 175.846154 481.24474 
L 190.153846 481.24474 
L 190.153846 484.636791 
L 204.461538 484.636791 
L 204.461538 497.660798 
L 218.769231 497.660798 
L 218.769231 500.11725 
L 233.076923 500.11725 
L 233.076923 507.842601 
L 247.384615 507.842601 
L 247.384615 510.124885 
L 261.692308 510.124885 
L 261.692308 517.209773 
L 276 517.209773 
L 276 518.743687 
L 290.307692 518.743687 
L 290.307692 527.845513 
L 304.615385 527.845513 
L 304.615385 527.14626 
L 318.923077 527.14626 
L 318.923077 531.605377 
L 333.230769 531.605377 
L 333.230769 536.832406 
L 347.538462 536.832406 
L 347.538462 543.148002 
L 361.846154 543.148002 
L 361.846154 544.340946 
L 376.153846 544.340946 
L 376.153846 548.229149 
L 390.461538 548.229149 
L 390.461538 551.128121 
L 404.769231 551.128121 
L 404.769231 561.97681 
L 419.076923 561.97681 
L 419.076923 559.87831 
L 433.384615 559.87831 
L 433.384615 578.998185 
L 447.692308 578.998185 
L 447.692308 572.21101 
L 462 572.21101 
L 462 564.230891 
L 476.307692 564.230891 
L 476.307692 566.665485 
L 490.615385 566.665485 
L 490.615385 600.081074 
L 504.923077 600.081074 
L 504.923077 583.0597 
L 519.230769 583.0597 
L 519.230769 575.415675 
L 533.538462 575.415675 
L 533.538462 572.21101 
L 547.846154 572.21101 
L 547.846154 621.163964 
L 562.153846 621.163964 
L 562.153846 587.748374 
L 576.461538 587.748374 
L 576.461538 583.0597 
L 590.769231 583.0597 
L 590.769231 587.748374 
L 605.076923 587.748374 
L 605.076923 587.748374 
L 619.384615 587.748374 
L 619.384615 600.081074 
L 633.692308 600.081074 
L 633.692308 593.2939 
L 648 593.2939 
" style="fill:none;stroke:#2ca02c;stroke-linecap:square;stroke-width:1.5;"/>
   </g>
   <g id="patch_10">
    <path d="M 90 632.4696 
L 90 383.7456 
" style="fill:none;stroke:#000000;stroke-linecap:square;stroke-linejoin:miter;stroke-width:0.8;"/>
   </g>
   <g id="patch_11">
    <path d="M 648 632.4696 
L 648 383.7456 
" style="fill:none;stroke:#000000;stroke-linecap:square;stroke-linejoin:miter;stroke-width:0.8;"/>
   </g>
   <g id="patch_12">
    <path d="M 90 632.4696 
L 648 632.4696 
" style="fill:none;stroke:#000000;stroke-linecap:square;stroke-linejoin:miter;stroke-width:0.8;"/>
   </g>
   <g id="patch_13">
    <path d="M 90 383.7456 
L 648 383.7456 
" style="fill:none;stroke:#000000;stroke-linecap:square;stroke-linejoin:miter;stroke-width:0.8;"/>
   </g>
   <g id="legend_2">
    <g id="patch_14">
     <path d="M 437.633438 477.407475 
L 635.4 477.407475 
Q 639 477.407475 639 473.807475 
L 639 396.3456 
Q 639 392.7456 635.4 392.7456 
L 437.633438 392.7456 
Q 434.033437 392.7456 434.033437 396.3456 
L 434.033437 473.807475 
Q 434.033437 477.407475 437.633438 477.407475 
z
" style="fill:#ffffff;opacity:0.5;stroke:#cccccc;stroke-linejoin:miter;"/>
    </g>
    <g id="line2d_62">
     <path d="M 441.233437 407.322787 
L 477.233437 407.322787 
" style="fill:none;stroke:#1f77b4;stroke-linecap:square;stroke-width:1.5;"/>
    </g>
    <g id="line2d_63"/>
    <g id="text_19">
     <!--  shower -->
     <defs>
      <path id="DejaVuSans-32"/>
      <path d="M 54.890625 33.015625 
L 54.890625 0 
L 45.90625 0 
L 45.90625 32.71875 
Q 45.90625 40.484375 42.875 44.328125 
Q 39.84375 48.1875 33.796875 48.1875 
Q 26.515625 48.1875 22.3125 43.546875 
Q 18.109375 38.921875 18.109375 30.90625 
L 18.109375 0 
L 9.078125 0 
L 9.078125 75.984375 
L 18.109375 75.984375 
L 18.109375 46.1875 
Q 21.34375 51.125 25.703125 53.5625 
Q 30.078125 56 35.796875 56 
Q 45.21875 56 50.046875 50.171875 
Q 54.890625 44.34375 54.890625 33.015625 
z
" id="DejaVuSans-104"/>
      <path d="M 4.203125 54.6875 
L 13.1875 54.6875 
L 24.421875 12.015625 
L 35.59375 54.6875 
L 46.1875 54.6875 
L 57.421875 12.015625 
L 68.609375 54.6875 
L 77.59375 54.6875 
L 63.28125 0 
L 52.6875 0 
L 40.921875 44.828125 
L 29.109375 0 
L 18.5 0 
z
" id="DejaVuSans-119"/>
     </defs>
     <g transform="translate(491.633437 413.622787)scale(0.18 -0.18)">
      <use xlink:href="#DejaVuSans-32"/>
      <use x="31.787109" xlink:href="#DejaVuSans-115"/>
      <use x="83.886719" xlink:href="#DejaVuSans-104"/>
      <use x="147.265625" xlink:href="#DejaVuSans-111"/>
      <use x="208.447266" xlink:href="#DejaVuSans-119"/>
      <use x="290.234375" xlink:href="#DejaVuSans-101"/>
      <use x="351.757812" xlink:href="#DejaVuSans-114"/>
     </g>
    </g>
    <g id="line2d_64">
     <path d="M 441.233437 433.743412 
L 477.233437 433.743412 
" style="fill:none;stroke:#ff7f0e;stroke-linecap:square;stroke-width:1.5;"/>
    </g>
    <g id="line2d_65"/>
    <g id="text_20">
     <!-- correct  shower -->
     <g transform="translate(491.633437 440.043412)scale(0.18 -0.18)">
      <use xlink:href="#DejaVuSans-99"/>
      <use x="54.980469" xlink:href="#DejaVuSans-111"/>
      <use x="116.162109" xlink:href="#DejaVuSans-114"/>
      <use x="157.259766" xlink:href="#DejaVuSans-114"/>
      <use x="198.341797" xlink:href="#DejaVuSans-101"/>
      <use x="259.865234" xlink:href="#DejaVuSans-99"/>
      <use x="314.845703" xlink:href="#DejaVuSans-116"/>
      <use x="354.054688" xlink:href="#DejaVuSans-32"/>
      <use x="385.841797" xlink:href="#DejaVuSans-32"/>
      <use x="417.628906" xlink:href="#DejaVuSans-115"/>
      <use x="469.728516" xlink:href="#DejaVuSans-104"/>
      <use x="533.107422" xlink:href="#DejaVuSans-111"/>
      <use x="594.289062" xlink:href="#DejaVuSans-119"/>
      <use x="676.076172" xlink:href="#DejaVuSans-101"/>
      <use x="737.599609" xlink:href="#DejaVuSans-114"/>
     </g>
    </g>
    <g id="line2d_66">
     <path d="M 441.233437 460.164037 
L 477.233437 460.164037 
" style="fill:none;stroke:#2ca02c;stroke-linecap:square;stroke-width:1.5;"/>
    </g>
    <g id="line2d_67"/>
    <g id="text_21">
     <!-- incorrect  track -->
     <defs>
      <path d="M 9.078125 75.984375 
L 18.109375 75.984375 
L 18.109375 31.109375 
L 44.921875 54.6875 
L 56.390625 54.6875 
L 27.390625 29.109375 
L 57.625 0 
L 45.90625 0 
L 18.109375 26.703125 
L 18.109375 0 
L 9.078125 0 
z
" id="DejaVuSans-107"/>
     </defs>
     <g transform="translate(491.633437 466.464037)scale(0.18 -0.18)">
      <use xlink:href="#DejaVuSans-105"/>
      <use x="27.783203" xlink:href="#DejaVuSans-110"/>
      <use x="91.162109" xlink:href="#DejaVuSans-99"/>
      <use x="146.142578" xlink:href="#DejaVuSans-111"/>
      <use x="207.324219" xlink:href="#DejaVuSans-114"/>
      <use x="248.421875" xlink:href="#DejaVuSans-114"/>
      <use x="289.503906" xlink:href="#DejaVuSans-101"/>
      <use x="351.027344" xlink:href="#DejaVuSans-99"/>
      <use x="406.007812" xlink:href="#DejaVuSans-116"/>
      <use x="445.216797" xlink:href="#DejaVuSans-32"/>
      <use x="477.003906" xlink:href="#DejaVuSans-32"/>
      <use x="508.791016" xlink:href="#DejaVuSans-116"/>
      <use x="548" xlink:href="#DejaVuSans-114"/>
      <use x="589.113281" xlink:href="#DejaVuSans-97"/>
      <use x="650.392578" xlink:href="#DejaVuSans-99"/>
      <use x="705.373047" xlink:href="#DejaVuSans-107"/>
     </g>
    </g>
   </g>
  </g>
 </g>
 <defs>
  <clipPath id="pef223c6eb5">
   <rect height="248.724" width="558" x="90" y="85.2768"/>
  </clipPath>
  <clipPath id="pf8049fd381">
   <rect height="248.724" width="558" x="90" y="383.7456"/>
  </clipPath>
 </defs>
</svg>
