<?xml version="1.0" encoding="utf-8" standalone="no"?>
<!DOCTYPE svg PUBLIC "-//W3C//DTD SVG 1.1//EN"
  "http://www.w3.org/Graphics/SVG/1.1/DTD/svg11.dtd">
<!-- Created with matplotlib (https://matplotlib.org/) -->
<svg height="710.64pt" version="1.1" viewBox="0 0 720 710.64" width="720pt" xmlns="http://www.w3.org/2000/svg" xmlns:xlink="http://www.w3.org/1999/xlink">
 <defs>
  <style type="text/css">
*{stroke-linecap:butt;stroke-linejoin:round;}
  </style>
 </defs>
 <g id="figure_1">
  <g id="patch_1">
   <path d="M 0 710.64 
L 720 710.64 
L 720 0 
L 0 0 
z
" style="fill:#ffffff;"/>
  </g>
  <g id="axes_1">
   <g id="patch_2">
    <path d="M 90 334.0008 
L 648 334.0008 
L 648 85.2768 
L 90 85.2768 
z
" style="fill:#ffffff;"/>
   </g>
   <g id="matplotlib.axis_1">
    <g id="xtick_1">
     <g id="line2d_1">
      <defs>
       <path d="M 0 0 
L 0 3.5 
" id="m3f1416d9e4" style="stroke:#000000;stroke-width:0.8;"/>
      </defs>
      <g>
       <use style="stroke:#000000;stroke-width:0.8;" x="90" xlink:href="#m3f1416d9e4" y="334.0008"/>
      </g>
     </g>
    </g>
    <g id="xtick_2">
     <g id="line2d_2">
      <g>
       <use style="stroke:#000000;stroke-width:0.8;" x="201.6" xlink:href="#m3f1416d9e4" y="334.0008"/>
      </g>
     </g>
    </g>
    <g id="xtick_3">
     <g id="line2d_3">
      <g>
       <use style="stroke:#000000;stroke-width:0.8;" x="313.2" xlink:href="#m3f1416d9e4" y="334.0008"/>
      </g>
     </g>
    </g>
    <g id="xtick_4">
     <g id="line2d_4">
      <g>
       <use style="stroke:#000000;stroke-width:0.8;" x="424.8" xlink:href="#m3f1416d9e4" y="334.0008"/>
      </g>
     </g>
    </g>
    <g id="xtick_5">
     <g id="line2d_5">
      <g>
       <use style="stroke:#000000;stroke-width:0.8;" x="536.4" xlink:href="#m3f1416d9e4" y="334.0008"/>
      </g>
     </g>
    </g>
    <g id="xtick_6">
     <g id="line2d_6">
      <g>
       <use style="stroke:#000000;stroke-width:0.8;" x="648" xlink:href="#m3f1416d9e4" y="334.0008"/>
      </g>
     </g>
    </g>
    <g id="text_1">
     <!-- completenessW -->
     <defs>
      <path d="M 48.78125 52.59375 
L 48.78125 44.1875 
Q 44.96875 46.296875 41.140625 47.34375 
Q 37.3125 48.390625 33.40625 48.390625 
Q 24.65625 48.390625 19.8125 42.84375 
Q 14.984375 37.3125 14.984375 27.296875 
Q 14.984375 17.28125 19.8125 11.734375 
Q 24.65625 6.203125 33.40625 6.203125 
Q 37.3125 6.203125 41.140625 7.25 
Q 44.96875 8.296875 48.78125 10.40625 
L 48.78125 2.09375 
Q 45.015625 0.34375 40.984375 -0.53125 
Q 36.96875 -1.421875 32.421875 -1.421875 
Q 20.0625 -1.421875 12.78125 6.34375 
Q 5.515625 14.109375 5.515625 27.296875 
Q 5.515625 40.671875 12.859375 48.328125 
Q 20.21875 56 33.015625 56 
Q 37.15625 56 41.109375 55.140625 
Q 45.0625 54.296875 48.78125 52.59375 
z
" id="DejaVuSans-99"/>
      <path d="M 30.609375 48.390625 
Q 23.390625 48.390625 19.1875 42.75 
Q 14.984375 37.109375 14.984375 27.296875 
Q 14.984375 17.484375 19.15625 11.84375 
Q 23.34375 6.203125 30.609375 6.203125 
Q 37.796875 6.203125 41.984375 11.859375 
Q 46.1875 17.53125 46.1875 27.296875 
Q 46.1875 37.015625 41.984375 42.703125 
Q 37.796875 48.390625 30.609375 48.390625 
z
M 30.609375 56 
Q 42.328125 56 49.015625 48.375 
Q 55.71875 40.765625 55.71875 27.296875 
Q 55.71875 13.875 49.015625 6.21875 
Q 42.328125 -1.421875 30.609375 -1.421875 
Q 18.84375 -1.421875 12.171875 6.21875 
Q 5.515625 13.875 5.515625 27.296875 
Q 5.515625 40.765625 12.171875 48.375 
Q 18.84375 56 30.609375 56 
z
" id="DejaVuSans-111"/>
      <path d="M 52 44.1875 
Q 55.375 50.25 60.0625 53.125 
Q 64.75 56 71.09375 56 
Q 79.640625 56 84.28125 50.015625 
Q 88.921875 44.046875 88.921875 33.015625 
L 88.921875 0 
L 79.890625 0 
L 79.890625 32.71875 
Q 79.890625 40.578125 77.09375 44.375 
Q 74.3125 48.1875 68.609375 48.1875 
Q 61.625 48.1875 57.5625 43.546875 
Q 53.515625 38.921875 53.515625 30.90625 
L 53.515625 0 
L 44.484375 0 
L 44.484375 32.71875 
Q 44.484375 40.625 41.703125 44.40625 
Q 38.921875 48.1875 33.109375 48.1875 
Q 26.21875 48.1875 22.15625 43.53125 
Q 18.109375 38.875 18.109375 30.90625 
L 18.109375 0 
L 9.078125 0 
L 9.078125 54.6875 
L 18.109375 54.6875 
L 18.109375 46.1875 
Q 21.1875 51.21875 25.484375 53.609375 
Q 29.78125 56 35.6875 56 
Q 41.65625 56 45.828125 52.96875 
Q 50 49.953125 52 44.1875 
z
" id="DejaVuSans-109"/>
      <path d="M 18.109375 8.203125 
L 18.109375 -20.796875 
L 9.078125 -20.796875 
L 9.078125 54.6875 
L 18.109375 54.6875 
L 18.109375 46.390625 
Q 20.953125 51.265625 25.265625 53.625 
Q 29.59375 56 35.59375 56 
Q 45.5625 56 51.78125 48.09375 
Q 58.015625 40.1875 58.015625 27.296875 
Q 58.015625 14.40625 51.78125 6.484375 
Q 45.5625 -1.421875 35.59375 -1.421875 
Q 29.59375 -1.421875 25.265625 0.953125 
Q 20.953125 3.328125 18.109375 8.203125 
z
M 48.6875 27.296875 
Q 48.6875 37.203125 44.609375 42.84375 
Q 40.53125 48.484375 33.40625 48.484375 
Q 26.265625 48.484375 22.1875 42.84375 
Q 18.109375 37.203125 18.109375 27.296875 
Q 18.109375 17.390625 22.1875 11.75 
Q 26.265625 6.109375 33.40625 6.109375 
Q 40.53125 6.109375 44.609375 11.75 
Q 48.6875 17.390625 48.6875 27.296875 
z
" id="DejaVuSans-112"/>
      <path d="M 9.421875 75.984375 
L 18.40625 75.984375 
L 18.40625 0 
L 9.421875 0 
z
" id="DejaVuSans-108"/>
      <path d="M 56.203125 29.59375 
L 56.203125 25.203125 
L 14.890625 25.203125 
Q 15.484375 15.921875 20.484375 11.0625 
Q 25.484375 6.203125 34.421875 6.203125 
Q 39.59375 6.203125 44.453125 7.46875 
Q 49.3125 8.734375 54.109375 11.28125 
L 54.109375 2.78125 
Q 49.265625 0.734375 44.1875 -0.34375 
Q 39.109375 -1.421875 33.890625 -1.421875 
Q 20.796875 -1.421875 13.15625 6.1875 
Q 5.515625 13.8125 5.515625 26.8125 
Q 5.515625 40.234375 12.765625 48.109375 
Q 20.015625 56 32.328125 56 
Q 43.359375 56 49.78125 48.890625 
Q 56.203125 41.796875 56.203125 29.59375 
z
M 47.21875 32.234375 
Q 47.125 39.59375 43.09375 43.984375 
Q 39.0625 48.390625 32.421875 48.390625 
Q 24.90625 48.390625 20.390625 44.140625 
Q 15.875 39.890625 15.1875 32.171875 
z
" id="DejaVuSans-101"/>
      <path d="M 18.3125 70.21875 
L 18.3125 54.6875 
L 36.8125 54.6875 
L 36.8125 47.703125 
L 18.3125 47.703125 
L 18.3125 18.015625 
Q 18.3125 11.328125 20.140625 9.421875 
Q 21.96875 7.515625 27.59375 7.515625 
L 36.8125 7.515625 
L 36.8125 0 
L 27.59375 0 
Q 17.1875 0 13.234375 3.875 
Q 9.28125 7.765625 9.28125 18.015625 
L 9.28125 47.703125 
L 2.6875 47.703125 
L 2.6875 54.6875 
L 9.28125 54.6875 
L 9.28125 70.21875 
z
" id="DejaVuSans-116"/>
      <path d="M 54.890625 33.015625 
L 54.890625 0 
L 45.90625 0 
L 45.90625 32.71875 
Q 45.90625 40.484375 42.875 44.328125 
Q 39.84375 48.1875 33.796875 48.1875 
Q 26.515625 48.1875 22.3125 43.546875 
Q 18.109375 38.921875 18.109375 30.90625 
L 18.109375 0 
L 9.078125 0 
L 9.078125 54.6875 
L 18.109375 54.6875 
L 18.109375 46.1875 
Q 21.34375 51.125 25.703125 53.5625 
Q 30.078125 56 35.796875 56 
Q 45.21875 56 50.046875 50.171875 
Q 54.890625 44.34375 54.890625 33.015625 
z
" id="DejaVuSans-110"/>
      <path d="M 44.28125 53.078125 
L 44.28125 44.578125 
Q 40.484375 46.53125 36.375 47.5 
Q 32.28125 48.484375 27.875 48.484375 
Q 21.1875 48.484375 17.84375 46.4375 
Q 14.5 44.390625 14.5 40.28125 
Q 14.5 37.15625 16.890625 35.375 
Q 19.28125 33.59375 26.515625 31.984375 
L 29.59375 31.296875 
Q 39.15625 29.25 43.1875 25.515625 
Q 47.21875 21.78125 47.21875 15.09375 
Q 47.21875 7.46875 41.1875 3.015625 
Q 35.15625 -1.421875 24.609375 -1.421875 
Q 20.21875 -1.421875 15.453125 -0.5625 
Q 10.6875 0.296875 5.421875 2 
L 5.421875 11.28125 
Q 10.40625 8.6875 15.234375 7.390625 
Q 20.0625 6.109375 24.8125 6.109375 
Q 31.15625 6.109375 34.5625 8.28125 
Q 37.984375 10.453125 37.984375 14.40625 
Q 37.984375 18.0625 35.515625 20.015625 
Q 33.0625 21.96875 24.703125 23.78125 
L 21.578125 24.515625 
Q 13.234375 26.265625 9.515625 29.90625 
Q 5.8125 33.546875 5.8125 39.890625 
Q 5.8125 47.609375 11.28125 51.796875 
Q 16.75 56 26.8125 56 
Q 31.78125 56 36.171875 55.265625 
Q 40.578125 54.546875 44.28125 53.078125 
z
" id="DejaVuSans-115"/>
      <path d="M 3.328125 72.90625 
L 13.28125 72.90625 
L 28.609375 11.28125 
L 43.890625 72.90625 
L 54.984375 72.90625 
L 70.3125 11.28125 
L 85.59375 72.90625 
L 95.609375 72.90625 
L 77.296875 0 
L 64.890625 0 
L 49.515625 63.28125 
L 33.984375 0 
L 21.578125 0 
z
" id="DejaVuSans-87"/>
     </defs>
     <g transform="translate(265.957875 357.69595)scale(0.2592 -0.2592)">
      <use xlink:href="#DejaVuSans-99"/>
      <use x="54.980469" xlink:href="#DejaVuSans-111"/>
      <use x="116.162109" xlink:href="#DejaVuSans-109"/>
      <use x="213.574219" xlink:href="#DejaVuSans-112"/>
      <use x="277.050781" xlink:href="#DejaVuSans-108"/>
      <use x="304.833984" xlink:href="#DejaVuSans-101"/>
      <use x="366.357422" xlink:href="#DejaVuSans-116"/>
      <use x="405.566406" xlink:href="#DejaVuSans-101"/>
      <use x="467.089844" xlink:href="#DejaVuSans-110"/>
      <use x="530.46875" xlink:href="#DejaVuSans-101"/>
      <use x="591.992188" xlink:href="#DejaVuSans-115"/>
      <use x="644.091797" xlink:href="#DejaVuSans-115"/>
      <use x="696.191406" xlink:href="#DejaVuSans-87"/>
     </g>
    </g>
   </g>
   <g id="matplotlib.axis_2">
    <g id="ytick_1">
     <g id="line2d_7">
      <defs>
       <path d="M 0 0 
L -3.5 0 
" id="ma747f713aa" style="stroke:#000000;stroke-width:0.8;"/>
      </defs>
      <g>
       <use style="stroke:#000000;stroke-width:0.8;" x="90" xlink:href="#ma747f713aa" y="334.0008"/>
      </g>
     </g>
     <g id="text_2">
      <!-- 0.0 -->
      <defs>
       <path d="M 31.78125 66.40625 
Q 24.171875 66.40625 20.328125 58.90625 
Q 16.5 51.421875 16.5 36.375 
Q 16.5 21.390625 20.328125 13.890625 
Q 24.171875 6.390625 31.78125 6.390625 
Q 39.453125 6.390625 43.28125 13.890625 
Q 47.125 21.390625 47.125 36.375 
Q 47.125 51.421875 43.28125 58.90625 
Q 39.453125 66.40625 31.78125 66.40625 
z
M 31.78125 74.21875 
Q 44.046875 74.21875 50.515625 64.515625 
Q 56.984375 54.828125 56.984375 36.375 
Q 56.984375 17.96875 50.515625 8.265625 
Q 44.046875 -1.421875 31.78125 -1.421875 
Q 19.53125 -1.421875 13.0625 8.265625 
Q 6.59375 17.96875 6.59375 36.375 
Q 6.59375 54.828125 13.0625 64.515625 
Q 19.53125 74.21875 31.78125 74.21875 
z
" id="DejaVuSans-48"/>
       <path d="M 10.6875 12.40625 
L 21 12.40625 
L 21 0 
L 10.6875 0 
z
" id="DejaVuSans-46"/>
      </defs>
      <g transform="translate(41.7791 343.848375)scale(0.2592 -0.2592)">
       <use xlink:href="#DejaVuSans-48"/>
       <use x="63.623047" xlink:href="#DejaVuSans-46"/>
       <use x="95.410156" xlink:href="#DejaVuSans-48"/>
      </g>
     </g>
    </g>
    <g id="ytick_2">
     <g id="line2d_8">
      <g>
       <use style="stroke:#000000;stroke-width:0.8;" x="90" xlink:href="#ma747f713aa" y="210.870107"/>
      </g>
     </g>
     <g id="text_3">
      <!-- 0.5 -->
      <defs>
       <path d="M 10.796875 72.90625 
L 49.515625 72.90625 
L 49.515625 64.59375 
L 19.828125 64.59375 
L 19.828125 46.734375 
Q 21.96875 47.46875 24.109375 47.828125 
Q 26.265625 48.1875 28.421875 48.1875 
Q 40.625 48.1875 47.75 41.5 
Q 54.890625 34.8125 54.890625 23.390625 
Q 54.890625 11.625 47.5625 5.09375 
Q 40.234375 -1.421875 26.90625 -1.421875 
Q 22.3125 -1.421875 17.546875 -0.640625 
Q 12.796875 0.140625 7.71875 1.703125 
L 7.71875 11.625 
Q 12.109375 9.234375 16.796875 8.0625 
Q 21.484375 6.890625 26.703125 6.890625 
Q 35.15625 6.890625 40.078125 11.328125 
Q 45.015625 15.765625 45.015625 23.390625 
Q 45.015625 31 40.078125 35.4375 
Q 35.15625 39.890625 26.703125 39.890625 
Q 22.75 39.890625 18.8125 39.015625 
Q 14.890625 38.140625 10.796875 36.28125 
z
" id="DejaVuSans-53"/>
      </defs>
      <g transform="translate(41.7791 220.717682)scale(0.2592 -0.2592)">
       <use xlink:href="#DejaVuSans-48"/>
       <use x="63.623047" xlink:href="#DejaVuSans-46"/>
       <use x="95.410156" xlink:href="#DejaVuSans-53"/>
      </g>
     </g>
    </g>
    <g id="ytick_3">
     <g id="line2d_9">
      <g>
       <use style="stroke:#000000;stroke-width:0.8;" x="90" xlink:href="#ma747f713aa" y="87.739414"/>
      </g>
     </g>
     <g id="text_4">
      <!-- 1.0 -->
      <defs>
       <path d="M 12.40625 8.296875 
L 28.515625 8.296875 
L 28.515625 63.921875 
L 10.984375 60.40625 
L 10.984375 69.390625 
L 28.421875 72.90625 
L 38.28125 72.90625 
L 38.28125 8.296875 
L 54.390625 8.296875 
L 54.390625 0 
L 12.40625 0 
z
" id="DejaVuSans-49"/>
      </defs>
      <g transform="translate(41.7791 97.586989)scale(0.2592 -0.2592)">
       <use xlink:href="#DejaVuSans-49"/>
       <use x="63.623047" xlink:href="#DejaVuSans-46"/>
       <use x="95.410156" xlink:href="#DejaVuSans-48"/>
      </g>
     </g>
    </g>
    <g id="text_5">
     <!-- Fraction -->
     <defs>
      <path d="M 9.8125 72.90625 
L 51.703125 72.90625 
L 51.703125 64.59375 
L 19.671875 64.59375 
L 19.671875 43.109375 
L 48.578125 43.109375 
L 48.578125 34.8125 
L 19.671875 34.8125 
L 19.671875 0 
L 9.8125 0 
z
" id="DejaVuSans-70"/>
      <path d="M 41.109375 46.296875 
Q 39.59375 47.171875 37.8125 47.578125 
Q 36.03125 48 33.890625 48 
Q 26.265625 48 22.1875 43.046875 
Q 18.109375 38.09375 18.109375 28.8125 
L 18.109375 0 
L 9.078125 0 
L 9.078125 54.6875 
L 18.109375 54.6875 
L 18.109375 46.1875 
Q 20.953125 51.171875 25.484375 53.578125 
Q 30.03125 56 36.53125 56 
Q 37.453125 56 38.578125 55.875 
Q 39.703125 55.765625 41.0625 55.515625 
z
" id="DejaVuSans-114"/>
      <path d="M 34.28125 27.484375 
Q 23.390625 27.484375 19.1875 25 
Q 14.984375 22.515625 14.984375 16.5 
Q 14.984375 11.71875 18.140625 8.90625 
Q 21.296875 6.109375 26.703125 6.109375 
Q 34.1875 6.109375 38.703125 11.40625 
Q 43.21875 16.703125 43.21875 25.484375 
L 43.21875 27.484375 
z
M 52.203125 31.203125 
L 52.203125 0 
L 43.21875 0 
L 43.21875 8.296875 
Q 40.140625 3.328125 35.546875 0.953125 
Q 30.953125 -1.421875 24.3125 -1.421875 
Q 15.921875 -1.421875 10.953125 3.296875 
Q 6 8.015625 6 15.921875 
Q 6 25.140625 12.171875 29.828125 
Q 18.359375 34.515625 30.609375 34.515625 
L 43.21875 34.515625 
L 43.21875 35.40625 
Q 43.21875 41.609375 39.140625 45 
Q 35.0625 48.390625 27.6875 48.390625 
Q 23 48.390625 18.546875 47.265625 
Q 14.109375 46.140625 10.015625 43.890625 
L 10.015625 52.203125 
Q 14.9375 54.109375 19.578125 55.046875 
Q 24.21875 56 28.609375 56 
Q 40.484375 56 46.34375 49.84375 
Q 52.203125 43.703125 52.203125 31.203125 
z
" id="DejaVuSans-97"/>
      <path d="M 9.421875 54.6875 
L 18.40625 54.6875 
L 18.40625 0 
L 9.421875 0 
z
M 9.421875 75.984375 
L 18.40625 75.984375 
L 18.40625 64.59375 
L 9.421875 64.59375 
z
" id="DejaVuSans-105"/>
     </defs>
     <g transform="translate(32.38855 262.298925)rotate(-90)scale(0.2592 -0.2592)">
      <use xlink:href="#DejaVuSans-70"/>
      <use x="57.410156" xlink:href="#DejaVuSans-114"/>
      <use x="98.523438" xlink:href="#DejaVuSans-97"/>
      <use x="159.802734" xlink:href="#DejaVuSans-99"/>
      <use x="214.783203" xlink:href="#DejaVuSans-116"/>
      <use x="253.992188" xlink:href="#DejaVuSans-105"/>
      <use x="281.775391" xlink:href="#DejaVuSans-111"/>
      <use x="342.957031" xlink:href="#DejaVuSans-110"/>
     </g>
    </g>
   </g>
   <g id="LineCollection_1">
    <path clip-path="url(#p696eab6038)" d="M 97.153846 129.405406 
L 97.153846 107.638769 
" style="fill:none;stroke:#008000;stroke-width:1.5;"/>
    <path clip-path="url(#p696eab6038)" d="M 111.461538 176.112322 
L 111.461538 135.234857 
" style="fill:none;stroke:#008000;stroke-width:1.5;"/>
    <path clip-path="url(#p696eab6038)" d="M 125.769231 120.799586 
L 125.769231 99.454039 
" style="fill:none;stroke:#008000;stroke-width:1.5;"/>
    <path clip-path="url(#p696eab6038)" d="M 140.076923 121.555721 
L 140.076923 99.739178 
" style="fill:none;stroke:#008000;stroke-width:1.5;"/>
    <path clip-path="url(#p696eab6038)" d="M 154.384615 112.162667 
L 154.384615 92.288089 
" style="fill:none;stroke:#008000;stroke-width:1.5;"/>
    <path clip-path="url(#p696eab6038)" d="M 168.692308 132.919364 
L 168.692308 104.12481 
" style="fill:none;stroke:#008000;stroke-width:1.5;"/>
    <path clip-path="url(#p696eab6038)" d="M 183 97.349149 
L 183 87.786988 
" style="fill:none;stroke:#008000;stroke-width:1.5;"/>
    <path clip-path="url(#p696eab6038)" d="M 197.307692 87.739414 
L 197.307692 87.739414 
" style="fill:none;stroke:#008000;stroke-width:1.5;"/>
    <path clip-path="url(#p696eab6038)" d="M 211.615385 97.739352 
L 211.615385 87.790961 
" style="fill:none;stroke:#008000;stroke-width:1.5;"/>
    <path clip-path="url(#p696eab6038)" d="M 225.923077 105.851019 
L 225.923077 91.041842 
" style="fill:none;stroke:#008000;stroke-width:1.5;"/>
    <path clip-path="url(#p696eab6038)" d="M 240.230769 98.623217 
L 240.230769 87.800561 
" style="fill:none;stroke:#008000;stroke-width:1.5;"/>
    <path clip-path="url(#p696eab6038)" d="M 254.538462 87.739414 
L 254.538462 87.739414 
" style="fill:none;stroke:#008000;stroke-width:1.5;"/>
    <path clip-path="url(#p696eab6038)" d="M 268.846154 135.266268 
L 268.846154 111.852236 
" style="fill:none;stroke:#008000;stroke-width:1.5;"/>
    <path clip-path="url(#p696eab6038)" d="M 283.153846 119.798971 
L 283.153846 101.853867 
" style="fill:none;stroke:#008000;stroke-width:1.5;"/>
    <path clip-path="url(#p696eab6038)" d="M 297.461538 87.739414 
L 297.461538 87.739414 
" style="fill:none;stroke:#008000;stroke-width:1.5;"/>
    <path clip-path="url(#p696eab6038)" d="M 311.769231 87.739414 
L 311.769231 87.739414 
" style="fill:none;stroke:#008000;stroke-width:1.5;"/>
    <path clip-path="url(#p696eab6038)" d="M 326.076923 97.165248 
L 326.076923 87.785171 
" style="fill:none;stroke:#008000;stroke-width:1.5;"/>
    <path clip-path="url(#p696eab6038)" d="M 340.384615 109.897143 
L 340.384615 95.43155 
" style="fill:none;stroke:#008000;stroke-width:1.5;"/>
    <path clip-path="url(#p696eab6038)" d="M 354.692308 103.799701 
L 354.692308 92.200909 
" style="fill:none;stroke:#008000;stroke-width:1.5;"/>
    <path clip-path="url(#p696eab6038)" d="M 369 108.068464 
L 369 94.772739 
" style="fill:none;stroke:#008000;stroke-width:1.5;"/>
    <path clip-path="url(#p696eab6038)" d="M 383.307692 110.382906 
L 383.307692 97.569951 
" style="fill:none;stroke:#008000;stroke-width:1.5;"/>
    <path clip-path="url(#p696eab6038)" d="M 397.615385 98.741729 
L 397.615385 89.698224 
" style="fill:none;stroke:#008000;stroke-width:1.5;"/>
    <path clip-path="url(#p696eab6038)" d="M 411.923077 104.119658 
L 411.923077 94.16115 
" style="fill:none;stroke:#008000;stroke-width:1.5;"/>
    <path clip-path="url(#p696eab6038)" d="M 426.230769 110.798298 
L 426.230769 99.583718 
" style="fill:none;stroke:#008000;stroke-width:1.5;"/>
    <path clip-path="url(#p696eab6038)" d="M 440.538462 98.792838 
L 440.538462 91.498705 
" style="fill:none;stroke:#008000;stroke-width:1.5;"/>
    <path clip-path="url(#p696eab6038)" d="M 454.846154 108.824442 
L 454.846154 98.544349 
" style="fill:none;stroke:#008000;stroke-width:1.5;"/>
    <path clip-path="url(#p696eab6038)" d="M 469.153846 109.500387 
L 469.153846 100.82675 
" style="fill:none;stroke:#008000;stroke-width:1.5;"/>
    <path clip-path="url(#p696eab6038)" d="M 483.461538 101.880166 
L 483.461538 95.200538 
" style="fill:none;stroke:#008000;stroke-width:1.5;"/>
    <path clip-path="url(#p696eab6038)" d="M 497.769231 94.320309 
L 497.769231 90.279311 
" style="fill:none;stroke:#008000;stroke-width:1.5;"/>
    <path clip-path="url(#p696eab6038)" d="M 512.076923 103.613575 
L 512.076923 97.548955 
" style="fill:none;stroke:#008000;stroke-width:1.5;"/>
    <path clip-path="url(#p696eab6038)" d="M 526.384615 99.670004 
L 526.384615 94.849652 
" style="fill:none;stroke:#008000;stroke-width:1.5;"/>
    <path clip-path="url(#p696eab6038)" d="M 540.692308 94.189799 
L 540.692308 90.988602 
" style="fill:none;stroke:#008000;stroke-width:1.5;"/>
    <path clip-path="url(#p696eab6038)" d="M 555 96.887877 
L 555 93.440884 
" style="fill:none;stroke:#008000;stroke-width:1.5;"/>
    <path clip-path="url(#p696eab6038)" d="M 569.307692 98.337745 
L 569.307692 95.116366 
" style="fill:none;stroke:#008000;stroke-width:1.5;"/>
    <path clip-path="url(#p696eab6038)" d="M 583.615385 93.984898 
L 583.615385 91.848614 
" style="fill:none;stroke:#008000;stroke-width:1.5;"/>
    <path clip-path="url(#p696eab6038)" d="M 597.923077 92.397457 
L 597.923077 90.880148 
" style="fill:none;stroke:#008000;stroke-width:1.5;"/>
    <path clip-path="url(#p696eab6038)" d="M 612.230769 92.447008 
L 612.230769 91.234456 
" style="fill:none;stroke:#008000;stroke-width:1.5;"/>
    <path clip-path="url(#p696eab6038)" d="M 626.538462 90.825727 
L 626.538462 90.095888 
" style="fill:none;stroke:#008000;stroke-width:1.5;"/>
    <path clip-path="url(#p696eab6038)" d="M 640.846154 88.671747 
L 640.846154 88.430188 
" style="fill:none;stroke:#008000;stroke-width:1.5;"/>
   </g>
   <g id="LineCollection_2">
    <path clip-path="url(#p696eab6038)" d="M 97.153846 123.262977 
L 97.153846 105.945608 
" style="fill:none;stroke:#ff0000;stroke-width:1.5;"/>
    <path clip-path="url(#p696eab6038)" d="M 111.461538 109.639347 
L 111.461538 88.22688 
" style="fill:none;stroke:#ff0000;stroke-width:1.5;"/>
    <path clip-path="url(#p696eab6038)" d="M 125.769231 113.10213 
L 125.769231 96.738751 
" style="fill:none;stroke:#ff0000;stroke-width:1.5;"/>
    <path clip-path="url(#p696eab6038)" d="M 140.076923 125.644419 
L 140.076923 105.802906 
" style="fill:none;stroke:#ff0000;stroke-width:1.5;"/>
    <path clip-path="url(#p696eab6038)" d="M 154.384615 138.381211 
L 154.384615 114.86437 
" style="fill:none;stroke:#ff0000;stroke-width:1.5;"/>
    <path clip-path="url(#p696eab6038)" d="M 168.692308 151.100194 
L 168.692308 122.883189 
" style="fill:none;stroke:#ff0000;stroke-width:1.5;"/>
    <path clip-path="url(#p696eab6038)" d="M 183 138.70157 
L 183 118.864387 
" style="fill:none;stroke:#ff0000;stroke-width:1.5;"/>
    <path clip-path="url(#p696eab6038)" d="M 197.307692 125.970412 
L 197.307692 106.337966 
" style="fill:none;stroke:#ff0000;stroke-width:1.5;"/>
    <path clip-path="url(#p696eab6038)" d="M 211.615385 136.792699 
L 211.615385 116.452882 
" style="fill:none;stroke:#ff0000;stroke-width:1.5;"/>
    <path clip-path="url(#p696eab6038)" d="M 225.923077 155.309017 
L 225.923077 132.499565 
" style="fill:none;stroke:#ff0000;stroke-width:1.5;"/>
    <path clip-path="url(#p696eab6038)" d="M 240.230769 136.777242 
L 240.230769 114.47432 
" style="fill:none;stroke:#ff0000;stroke-width:1.5;"/>
    <path clip-path="url(#p696eab6038)" d="M 254.538462 132.541468 
L 254.538462 112.063363 
" style="fill:none;stroke:#ff0000;stroke-width:1.5;"/>
    <path clip-path="url(#p696eab6038)" d="M 268.846154 138.327522 
L 268.846154 116.306751 
" style="fill:none;stroke:#ff0000;stroke-width:1.5;"/>
    <path clip-path="url(#p696eab6038)" d="M 283.153846 130.281132 
L 283.153846 111.357471 
" style="fill:none;stroke:#ff0000;stroke-width:1.5;"/>
    <path clip-path="url(#p696eab6038)" d="M 297.461538 153.455565 
L 297.461538 130.545229 
" style="fill:none;stroke:#ff0000;stroke-width:1.5;"/>
    <path clip-path="url(#p696eab6038)" d="M 311.769231 149.187687 
L 311.769231 128.900052 
" style="fill:none;stroke:#ff0000;stroke-width:1.5;"/>
    <path clip-path="url(#p696eab6038)" d="M 326.076923 165.325292 
L 326.076923 143.838288 
" style="fill:none;stroke:#ff0000;stroke-width:1.5;"/>
    <path clip-path="url(#p696eab6038)" d="M 340.384615 134.296452 
L 340.384615 115.398136 
" style="fill:none;stroke:#ff0000;stroke-width:1.5;"/>
    <path clip-path="url(#p696eab6038)" d="M 354.692308 133.02836 
L 354.692308 115.416804 
" style="fill:none;stroke:#ff0000;stroke-width:1.5;"/>
    <path clip-path="url(#p696eab6038)" d="M 369 155.160495 
L 369 136.531571 
" style="fill:none;stroke:#ff0000;stroke-width:1.5;"/>
    <path clip-path="url(#p696eab6038)" d="M 383.307692 125.82757 
L 383.307692 110.58191 
" style="fill:none;stroke:#ff0000;stroke-width:1.5;"/>
    <path clip-path="url(#p696eab6038)" d="M 397.615385 142.62466 
L 397.615385 124.863916 
" style="fill:none;stroke:#ff0000;stroke-width:1.5;"/>
    <path clip-path="url(#p696eab6038)" d="M 411.923077 124.048521 
L 411.923077 110.364656 
" style="fill:none;stroke:#ff0000;stroke-width:1.5;"/>
    <path clip-path="url(#p696eab6038)" d="M 426.230769 125.17288 
L 426.230769 112.327334 
" style="fill:none;stroke:#ff0000;stroke-width:1.5;"/>
    <path clip-path="url(#p696eab6038)" d="M 440.538462 106.898802 
L 440.538462 97.34048 
" style="fill:none;stroke:#ff0000;stroke-width:1.5;"/>
    <path clip-path="url(#p696eab6038)" d="M 454.846154 126.789039 
L 454.846154 114.359491 
" style="fill:none;stroke:#ff0000;stroke-width:1.5;"/>
    <path clip-path="url(#p696eab6038)" d="M 469.153846 114.937852 
L 469.153846 105.93478 
" style="fill:none;stroke:#ff0000;stroke-width:1.5;"/>
    <path clip-path="url(#p696eab6038)" d="M 483.461538 107.358686 
L 483.461538 99.827616 
" style="fill:none;stroke:#ff0000;stroke-width:1.5;"/>
    <path clip-path="url(#p696eab6038)" d="M 497.769231 104.10572 
L 497.769231 97.758256 
" style="fill:none;stroke:#ff0000;stroke-width:1.5;"/>
    <path clip-path="url(#p696eab6038)" d="M 512.076923 102.684414 
L 512.076923 97.041688 
" style="fill:none;stroke:#ff0000;stroke-width:1.5;"/>
    <path clip-path="url(#p696eab6038)" d="M 526.384615 101.581386 
L 526.384615 96.571124 
" style="fill:none;stroke:#ff0000;stroke-width:1.5;"/>
    <path clip-path="url(#p696eab6038)" d="M 540.692308 103.15813 
L 540.692308 98.352557 
" style="fill:none;stroke:#ff0000;stroke-width:1.5;"/>
    <path clip-path="url(#p696eab6038)" d="M 555 103.543331 
L 555 99.253236 
" style="fill:none;stroke:#ff0000;stroke-width:1.5;"/>
    <path clip-path="url(#p696eab6038)" d="M 569.307692 97.651329 
L 569.307692 94.645349 
" style="fill:none;stroke:#ff0000;stroke-width:1.5;"/>
    <path clip-path="url(#p696eab6038)" d="M 583.615385 97.239754 
L 583.615385 94.686134 
" style="fill:none;stroke:#ff0000;stroke-width:1.5;"/>
    <path clip-path="url(#p696eab6038)" d="M 597.923077 94.584122 
L 597.923077 92.791391 
" style="fill:none;stroke:#ff0000;stroke-width:1.5;"/>
    <path clip-path="url(#p696eab6038)" d="M 612.230769 93.001708 
L 612.230769 91.752844 
" style="fill:none;stroke:#ff0000;stroke-width:1.5;"/>
    <path clip-path="url(#p696eab6038)" d="M 626.538462 91.128819 
L 626.538462 90.379286 
" style="fill:none;stroke:#ff0000;stroke-width:1.5;"/>
    <path clip-path="url(#p696eab6038)" d="M 640.846154 88.650735 
L 640.846154 88.415247 
" style="fill:none;stroke:#ff0000;stroke-width:1.5;"/>
   </g>
   <g id="LineCollection_3">
    <path clip-path="url(#p696eab6038)" d="M 97.153846 154.333912 
L 97.153846 129.7238 
" style="fill:none;stroke:#0000ff;stroke-width:1.5;"/>
    <path clip-path="url(#p696eab6038)" d="M 111.461538 184.77304 
L 111.461538 142.785703 
" style="fill:none;stroke:#0000ff;stroke-width:1.5;"/>
    <path clip-path="url(#p696eab6038)" d="M 125.769231 138.151199 
L 125.769231 113.340657 
" style="fill:none;stroke:#0000ff;stroke-width:1.5;"/>
    <path clip-path="url(#p696eab6038)" d="M 140.076923 149.236305 
L 140.076923 122.82072 
" style="fill:none;stroke:#0000ff;stroke-width:1.5;"/>
    <path clip-path="url(#p696eab6038)" d="M 154.384615 152.695949 
L 154.384615 124.947045 
" style="fill:none;stroke:#0000ff;stroke-width:1.5;"/>
    <path clip-path="url(#p696eab6038)" d="M 168.692308 178.501483 
L 168.692308 144.734176 
" style="fill:none;stroke:#0000ff;stroke-width:1.5;"/>
    <path clip-path="url(#p696eab6038)" d="M 183 143.31554 
L 183 122.298174 
" style="fill:none;stroke:#0000ff;stroke-width:1.5;"/>
    <path clip-path="url(#p696eab6038)" d="M 197.307692 125.970412 
L 197.307692 106.337966 
" style="fill:none;stroke:#0000ff;stroke-width:1.5;"/>
    <path clip-path="url(#p696eab6038)" d="M 211.615385 141.66215 
L 211.615385 120.047839 
" style="fill:none;stroke:#0000ff;stroke-width:1.5;"/>
    <path clip-path="url(#p696eab6038)" d="M 225.923077 164.484958 
L 225.923077 139.853756 
" style="fill:none;stroke:#0000ff;stroke-width:1.5;"/>
    <path clip-path="url(#p696eab6038)" d="M 240.230769 142.082375 
L 240.230769 118.430299 
" style="fill:none;stroke:#0000ff;stroke-width:1.5;"/>
    <path clip-path="url(#p696eab6038)" d="M 254.538462 132.541468 
L 254.538462 112.063363 
" style="fill:none;stroke:#0000ff;stroke-width:1.5;"/>
    <path clip-path="url(#p696eab6038)" d="M 268.846154 170.984185 
L 268.846154 143.776245 
" style="fill:none;stroke:#0000ff;stroke-width:1.5;"/>
    <path clip-path="url(#p696eab6038)" d="M 283.153846 152.374752 
L 283.153846 129.235382 
" style="fill:none;stroke:#0000ff;stroke-width:1.5;"/>
    <path clip-path="url(#p696eab6038)" d="M 297.461538 153.455565 
L 297.461538 130.545229 
" style="fill:none;stroke:#0000ff;stroke-width:1.5;"/>
    <path clip-path="url(#p696eab6038)" d="M 311.769231 149.187687 
L 311.769231 128.900052 
" style="fill:none;stroke:#0000ff;stroke-width:1.5;"/>
    <path clip-path="url(#p696eab6038)" d="M 326.076923 169.109261 
L 326.076923 146.95505 
" style="fill:none;stroke:#0000ff;stroke-width:1.5;"/>
    <path clip-path="url(#p696eab6038)" d="M 340.384615 148.318051 
L 340.384615 126.728477 
" style="fill:none;stroke:#0000ff;stroke-width:1.5;"/>
    <path clip-path="url(#p696eab6038)" d="M 354.692308 142.741908 
L 354.692308 123.184774 
" style="fill:none;stroke:#0000ff;stroke-width:1.5;"/>
    <path clip-path="url(#p696eab6038)" d="M 369 166.457127 
L 369 146.141024 
" style="fill:none;stroke:#0000ff;stroke-width:1.5;"/>
    <path clip-path="url(#p696eab6038)" d="M 383.307692 141.500232 
L 383.307692 123.365871 
" style="fill:none;stroke:#0000ff;stroke-width:1.5;"/>
    <path clip-path="url(#p696eab6038)" d="M 397.615385 148.410237 
L 397.615385 129.618156 
" style="fill:none;stroke:#0000ff;stroke-width:1.5;"/>
    <path clip-path="url(#p696eab6038)" d="M 411.923077 135.10418 
L 411.923077 119.382535 
" style="fill:none;stroke:#0000ff;stroke-width:1.5;"/>
    <path clip-path="url(#p696eab6038)" d="M 426.230769 141.726403 
L 426.230769 126.281783 
" style="fill:none;stroke:#0000ff;stroke-width:1.5;"/>
    <path clip-path="url(#p696eab6038)" d="M 440.538462 114.862411 
L 440.538462 103.324609 
" style="fill:none;stroke:#0000ff;stroke-width:1.5;"/>
    <path clip-path="url(#p696eab6038)" d="M 454.846154 141.716375 
L 454.846154 127.070125 
" style="fill:none;stroke:#0000ff;stroke-width:1.5;"/>
    <path clip-path="url(#p696eab6038)" d="M 469.153846 131.998998 
L 469.153846 120.510117 
" style="fill:none;stroke:#0000ff;stroke-width:1.5;"/>
    <path clip-path="url(#p696eab6038)" d="M 483.461538 118.466049 
L 483.461538 108.931451 
" style="fill:none;stroke:#0000ff;stroke-width:1.5;"/>
    <path clip-path="url(#p696eab6038)" d="M 497.769231 108.90317 
L 497.769231 101.592985 
" style="fill:none;stroke:#0000ff;stroke-width:1.5;"/>
    <path clip-path="url(#p696eab6038)" d="M 512.076923 116.00504 
L 512.076923 108.140337 
" style="fill:none;stroke:#0000ff;stroke-width:1.5;"/>
    <path clip-path="url(#p696eab6038)" d="M 526.384615 111.487991 
L 526.384615 104.828788 
" style="fill:none;stroke:#0000ff;stroke-width:1.5;"/>
    <path clip-path="url(#p696eab6038)" d="M 540.692308 108.149955 
L 540.692308 102.547642 
" style="fill:none;stroke:#0000ff;stroke-width:1.5;"/>
    <path clip-path="url(#p696eab6038)" d="M 555 111.053019 
L 555 105.769831 
" style="fill:none;stroke:#0000ff;stroke-width:1.5;"/>
    <path clip-path="url(#p696eab6038)" d="M 569.307692 106.954473 
L 569.307692 102.703699 
" style="fill:none;stroke:#0000ff;stroke-width:1.5;"/>
    <path clip-path="url(#p696eab6038)" d="M 583.615385 102.588635 
L 583.615385 99.346157 
" style="fill:none;stroke:#0000ff;stroke-width:1.5;"/>
    <path clip-path="url(#p696eab6038)" d="M 597.923077 98.644615 
L 597.923077 96.341299 
" style="fill:none;stroke:#0000ff;stroke-width:1.5;"/>
    <path clip-path="url(#p696eab6038)" d="M 612.230769 97.256276 
L 612.230769 95.546432 
" style="fill:none;stroke:#0000ff;stroke-width:1.5;"/>
    <path clip-path="url(#p696eab6038)" d="M 626.538462 93.959131 
L 626.538462 92.925132 
" style="fill:none;stroke:#0000ff;stroke-width:1.5;"/>
    <path clip-path="url(#p696eab6038)" d="M 640.846154 89.510055 
L 640.846154 89.173803 
" style="fill:none;stroke:#0000ff;stroke-width:1.5;"/>
   </g>
   <g id="line2d_10">
    <path clip-path="url(#p696eab6038)" d="M 90 118.522087 
L 104.307692 118.522087 
L 104.307692 155.673589 
L 118.615385 155.673589 
L 118.615385 110.126813 
L 132.923077 110.126813 
L 132.923077 110.64745 
L 147.230769 110.64745 
L 147.230769 102.225378 
L 161.538462 102.225378 
L 161.538462 118.522087 
L 175.846154 118.522087 
L 175.846154 92.568068 
L 190.153846 92.568068 
L 190.153846 87.739414 
L 204.461538 87.739414 
L 204.461538 92.765156 
L 218.769231 92.765156 
L 218.769231 98.446431 
L 233.076923 98.446431 
L 233.076923 93.211889 
L 247.384615 93.211889 
L 247.384615 87.739414 
L 261.692308 87.739414 
L 261.692308 123.559252 
L 276 123.559252 
L 276 110.826419 
L 290.307692 110.826419 
L 290.307692 87.739414 
L 304.615385 87.739414 
L 304.615385 87.739414 
L 318.923077 87.739414 
L 318.923077 92.47521 
L 333.230769 92.47521 
L 333.230769 102.664346 
L 347.538462 102.664346 
L 347.538462 98.000305 
L 361.846154 98.000305 
L 361.846154 101.420602 
L 376.153846 101.420602 
L 376.153846 103.976428 
L 390.461538 103.976428 
L 390.461538 94.219977 
L 404.769231 94.219977 
L 404.769231 99.140404 
L 419.076923 99.140404 
L 419.076923 105.191008 
L 433.384615 105.191008 
L 433.384615 95.145771 
L 447.692308 95.145771 
L 447.692308 103.684396 
L 462 103.684396 
L 462 105.163569 
L 476.307692 105.163569 
L 476.307692 98.540352 
L 490.615385 98.540352 
L 490.615385 92.29981 
L 504.923077 92.29981 
L 504.923077 100.581265 
L 519.230769 100.581265 
L 519.230769 97.259828 
L 533.538462 97.259828 
L 533.538462 92.5892 
L 547.846154 92.5892 
L 547.846154 95.16438 
L 562.153846 95.16438 
L 562.153846 96.727056 
L 576.461538 96.727056 
L 576.461538 92.916756 
L 590.769231 92.916756 
L 590.769231 91.638802 
L 605.076923 91.638802 
L 605.076923 91.840732 
L 619.384615 91.840732 
L 619.384615 90.460808 
L 633.692308 90.460808 
L 633.692308 88.550967 
L 648 88.550967 
" style="fill:none;stroke:#008000;stroke-linecap:square;stroke-width:1.5;"/>
   </g>
   <g id="line2d_11">
    <defs>
     <path d="M 2 0 
L -2 -0 
" id="mfd49ec93ad" style="stroke:#008000;"/>
    </defs>
    <g clip-path="url(#p696eab6038)">
     <use style="fill:#008000;stroke:#008000;" x="97.153846" xlink:href="#mfd49ec93ad" y="129.405406"/>
     <use style="fill:#008000;stroke:#008000;" x="111.461538" xlink:href="#mfd49ec93ad" y="176.112322"/>
     <use style="fill:#008000;stroke:#008000;" x="125.769231" xlink:href="#mfd49ec93ad" y="120.799586"/>
     <use style="fill:#008000;stroke:#008000;" x="140.076923" xlink:href="#mfd49ec93ad" y="121.555721"/>
     <use style="fill:#008000;stroke:#008000;" x="154.384615" xlink:href="#mfd49ec93ad" y="112.162667"/>
     <use style="fill:#008000;stroke:#008000;" x="168.692308" xlink:href="#mfd49ec93ad" y="132.919364"/>
     <use style="fill:#008000;stroke:#008000;" x="183" xlink:href="#mfd49ec93ad" y="97.349149"/>
     <use style="fill:#008000;stroke:#008000;" x="197.307692" xlink:href="#mfd49ec93ad" y="87.739414"/>
     <use style="fill:#008000;stroke:#008000;" x="211.615385" xlink:href="#mfd49ec93ad" y="97.739352"/>
     <use style="fill:#008000;stroke:#008000;" x="225.923077" xlink:href="#mfd49ec93ad" y="105.851019"/>
     <use style="fill:#008000;stroke:#008000;" x="240.230769" xlink:href="#mfd49ec93ad" y="98.623217"/>
     <use style="fill:#008000;stroke:#008000;" x="254.538462" xlink:href="#mfd49ec93ad" y="87.739414"/>
     <use style="fill:#008000;stroke:#008000;" x="268.846154" xlink:href="#mfd49ec93ad" y="135.266268"/>
     <use style="fill:#008000;stroke:#008000;" x="283.153846" xlink:href="#mfd49ec93ad" y="119.798971"/>
     <use style="fill:#008000;stroke:#008000;" x="297.461538" xlink:href="#mfd49ec93ad" y="87.739414"/>
     <use style="fill:#008000;stroke:#008000;" x="311.769231" xlink:href="#mfd49ec93ad" y="87.739414"/>
     <use style="fill:#008000;stroke:#008000;" x="326.076923" xlink:href="#mfd49ec93ad" y="97.165248"/>
     <use style="fill:#008000;stroke:#008000;" x="340.384615" xlink:href="#mfd49ec93ad" y="109.897143"/>
     <use style="fill:#008000;stroke:#008000;" x="354.692308" xlink:href="#mfd49ec93ad" y="103.799701"/>
     <use style="fill:#008000;stroke:#008000;" x="369" xlink:href="#mfd49ec93ad" y="108.068464"/>
     <use style="fill:#008000;stroke:#008000;" x="383.307692" xlink:href="#mfd49ec93ad" y="110.382906"/>
     <use style="fill:#008000;stroke:#008000;" x="397.615385" xlink:href="#mfd49ec93ad" y="98.741729"/>
     <use style="fill:#008000;stroke:#008000;" x="411.923077" xlink:href="#mfd49ec93ad" y="104.119658"/>
     <use style="fill:#008000;stroke:#008000;" x="426.230769" xlink:href="#mfd49ec93ad" y="110.798298"/>
     <use style="fill:#008000;stroke:#008000;" x="440.538462" xlink:href="#mfd49ec93ad" y="98.792838"/>
     <use style="fill:#008000;stroke:#008000;" x="454.846154" xlink:href="#mfd49ec93ad" y="108.824442"/>
     <use style="fill:#008000;stroke:#008000;" x="469.153846" xlink:href="#mfd49ec93ad" y="109.500387"/>
     <use style="fill:#008000;stroke:#008000;" x="483.461538" xlink:href="#mfd49ec93ad" y="101.880166"/>
     <use style="fill:#008000;stroke:#008000;" x="497.769231" xlink:href="#mfd49ec93ad" y="94.320309"/>
     <use style="fill:#008000;stroke:#008000;" x="512.076923" xlink:href="#mfd49ec93ad" y="103.613575"/>
     <use style="fill:#008000;stroke:#008000;" x="526.384615" xlink:href="#mfd49ec93ad" y="99.670004"/>
     <use style="fill:#008000;stroke:#008000;" x="540.692308" xlink:href="#mfd49ec93ad" y="94.189799"/>
     <use style="fill:#008000;stroke:#008000;" x="555" xlink:href="#mfd49ec93ad" y="96.887877"/>
     <use style="fill:#008000;stroke:#008000;" x="569.307692" xlink:href="#mfd49ec93ad" y="98.337745"/>
     <use style="fill:#008000;stroke:#008000;" x="583.615385" xlink:href="#mfd49ec93ad" y="93.984898"/>
     <use style="fill:#008000;stroke:#008000;" x="597.923077" xlink:href="#mfd49ec93ad" y="92.397457"/>
     <use style="fill:#008000;stroke:#008000;" x="612.230769" xlink:href="#mfd49ec93ad" y="92.447008"/>
     <use style="fill:#008000;stroke:#008000;" x="626.538462" xlink:href="#mfd49ec93ad" y="90.825727"/>
     <use style="fill:#008000;stroke:#008000;" x="640.846154" xlink:href="#mfd49ec93ad" y="88.671747"/>
    </g>
   </g>
   <g id="line2d_12">
    <g clip-path="url(#p696eab6038)">
     <use style="fill:#008000;stroke:#008000;" x="97.153846" xlink:href="#mfd49ec93ad" y="107.638769"/>
     <use style="fill:#008000;stroke:#008000;" x="111.461538" xlink:href="#mfd49ec93ad" y="135.234857"/>
     <use style="fill:#008000;stroke:#008000;" x="125.769231" xlink:href="#mfd49ec93ad" y="99.454039"/>
     <use style="fill:#008000;stroke:#008000;" x="140.076923" xlink:href="#mfd49ec93ad" y="99.739178"/>
     <use style="fill:#008000;stroke:#008000;" x="154.384615" xlink:href="#mfd49ec93ad" y="92.288089"/>
     <use style="fill:#008000;stroke:#008000;" x="168.692308" xlink:href="#mfd49ec93ad" y="104.12481"/>
     <use style="fill:#008000;stroke:#008000;" x="183" xlink:href="#mfd49ec93ad" y="87.786988"/>
     <use style="fill:#008000;stroke:#008000;" x="197.307692" xlink:href="#mfd49ec93ad" y="87.739414"/>
     <use style="fill:#008000;stroke:#008000;" x="211.615385" xlink:href="#mfd49ec93ad" y="87.790961"/>
     <use style="fill:#008000;stroke:#008000;" x="225.923077" xlink:href="#mfd49ec93ad" y="91.041842"/>
     <use style="fill:#008000;stroke:#008000;" x="240.230769" xlink:href="#mfd49ec93ad" y="87.800561"/>
     <use style="fill:#008000;stroke:#008000;" x="254.538462" xlink:href="#mfd49ec93ad" y="87.739414"/>
     <use style="fill:#008000;stroke:#008000;" x="268.846154" xlink:href="#mfd49ec93ad" y="111.852236"/>
     <use style="fill:#008000;stroke:#008000;" x="283.153846" xlink:href="#mfd49ec93ad" y="101.853867"/>
     <use style="fill:#008000;stroke:#008000;" x="297.461538" xlink:href="#mfd49ec93ad" y="87.739414"/>
     <use style="fill:#008000;stroke:#008000;" x="311.769231" xlink:href="#mfd49ec93ad" y="87.739414"/>
     <use style="fill:#008000;stroke:#008000;" x="326.076923" xlink:href="#mfd49ec93ad" y="87.785171"/>
     <use style="fill:#008000;stroke:#008000;" x="340.384615" xlink:href="#mfd49ec93ad" y="95.43155"/>
     <use style="fill:#008000;stroke:#008000;" x="354.692308" xlink:href="#mfd49ec93ad" y="92.200909"/>
     <use style="fill:#008000;stroke:#008000;" x="369" xlink:href="#mfd49ec93ad" y="94.772739"/>
     <use style="fill:#008000;stroke:#008000;" x="383.307692" xlink:href="#mfd49ec93ad" y="97.569951"/>
     <use style="fill:#008000;stroke:#008000;" x="397.615385" xlink:href="#mfd49ec93ad" y="89.698224"/>
     <use style="fill:#008000;stroke:#008000;" x="411.923077" xlink:href="#mfd49ec93ad" y="94.16115"/>
     <use style="fill:#008000;stroke:#008000;" x="426.230769" xlink:href="#mfd49ec93ad" y="99.583718"/>
     <use style="fill:#008000;stroke:#008000;" x="440.538462" xlink:href="#mfd49ec93ad" y="91.498705"/>
     <use style="fill:#008000;stroke:#008000;" x="454.846154" xlink:href="#mfd49ec93ad" y="98.544349"/>
     <use style="fill:#008000;stroke:#008000;" x="469.153846" xlink:href="#mfd49ec93ad" y="100.82675"/>
     <use style="fill:#008000;stroke:#008000;" x="483.461538" xlink:href="#mfd49ec93ad" y="95.200538"/>
     <use style="fill:#008000;stroke:#008000;" x="497.769231" xlink:href="#mfd49ec93ad" y="90.279311"/>
     <use style="fill:#008000;stroke:#008000;" x="512.076923" xlink:href="#mfd49ec93ad" y="97.548955"/>
     <use style="fill:#008000;stroke:#008000;" x="526.384615" xlink:href="#mfd49ec93ad" y="94.849652"/>
     <use style="fill:#008000;stroke:#008000;" x="540.692308" xlink:href="#mfd49ec93ad" y="90.988602"/>
     <use style="fill:#008000;stroke:#008000;" x="555" xlink:href="#mfd49ec93ad" y="93.440884"/>
     <use style="fill:#008000;stroke:#008000;" x="569.307692" xlink:href="#mfd49ec93ad" y="95.116366"/>
     <use style="fill:#008000;stroke:#008000;" x="583.615385" xlink:href="#mfd49ec93ad" y="91.848614"/>
     <use style="fill:#008000;stroke:#008000;" x="597.923077" xlink:href="#mfd49ec93ad" y="90.880148"/>
     <use style="fill:#008000;stroke:#008000;" x="612.230769" xlink:href="#mfd49ec93ad" y="91.234456"/>
     <use style="fill:#008000;stroke:#008000;" x="626.538462" xlink:href="#mfd49ec93ad" y="90.095888"/>
     <use style="fill:#008000;stroke:#008000;" x="640.846154" xlink:href="#mfd49ec93ad" y="88.430188"/>
    </g>
   </g>
   <g id="line2d_13">
    <path clip-path="url(#p696eab6038)" d="M 90 114.604292 
L 104.307692 114.604292 
L 104.307692 98.933113 
L 118.615385 98.933113 
L 118.615385 104.920441 
L 132.923077 104.920441 
L 132.923077 115.723662 
L 147.230769 115.723662 
L 147.230769 126.622791 
L 161.538462 126.622791 
L 161.538462 136.991691 
L 175.846154 136.991691 
L 175.846154 128.782978 
L 190.153846 128.782978 
L 190.153846 116.154189 
L 204.461538 116.154189 
L 204.461538 126.622791 
L 218.769231 126.622791 
L 218.769231 143.904291 
L 233.076923 143.904291 
L 233.076923 125.625781 
L 247.384615 125.625781 
L 247.384615 122.302415 
L 261.692308 122.302415 
L 261.692308 127.317137 
L 276 127.317137 
L 276 120.819302 
L 290.307692 120.819302 
L 290.307692 142.000397 
L 304.615385 142.000397 
L 304.615385 139.043869 
L 318.923077 139.043869 
L 318.923077 154.58179 
L 333.230769 154.58179 
L 333.230769 124.847294 
L 347.538462 124.847294 
L 347.538462 124.222582 
L 361.846154 124.222582 
L 361.846154 145.846033 
L 376.153846 145.846033 
L 376.153846 118.20474 
L 390.461538 118.20474 
L 390.461538 133.744288 
L 404.769231 133.744288 
L 404.769231 117.206588 
L 419.076923 117.206588 
L 419.076923 118.750107 
L 433.384615 118.750107 
L 433.384615 102.119641 
L 447.692308 102.119641 
L 447.692308 120.574265 
L 462 120.574265 
L 462 110.436316 
L 476.307692 110.436316 
L 476.307692 103.593151 
L 490.615385 103.593151 
L 490.615385 100.931988 
L 504.923077 100.931988 
L 504.923077 99.863051 
L 519.230769 99.863051 
L 519.230769 99.076255 
L 533.538462 99.076255 
L 533.538462 100.755343 
L 547.846154 100.755343 
L 547.846154 101.398284 
L 562.153846 101.398284 
L 562.153846 96.148339 
L 576.461538 96.148339 
L 576.461538 95.962944 
L 590.769231 95.962944 
L 590.769231 93.687757 
L 605.076923 93.687757 
L 605.076923 92.377276 
L 619.384615 92.377276 
L 619.384615 90.754053 
L 633.692308 90.754053 
L 633.692308 88.532991 
L 648 88.532991 
" style="fill:none;stroke:#ff0000;stroke-linecap:square;stroke-width:1.5;"/>
   </g>
   <g id="line2d_14">
    <defs>
     <path d="M 2 0 
L -2 -0 
" id="m0b8d1bb446" style="stroke:#ff0000;"/>
    </defs>
    <g clip-path="url(#p696eab6038)">
     <use style="fill:#ff0000;stroke:#ff0000;" x="97.153846" xlink:href="#m0b8d1bb446" y="123.262977"/>
     <use style="fill:#ff0000;stroke:#ff0000;" x="111.461538" xlink:href="#m0b8d1bb446" y="109.639347"/>
     <use style="fill:#ff0000;stroke:#ff0000;" x="125.769231" xlink:href="#m0b8d1bb446" y="113.10213"/>
     <use style="fill:#ff0000;stroke:#ff0000;" x="140.076923" xlink:href="#m0b8d1bb446" y="125.644419"/>
     <use style="fill:#ff0000;stroke:#ff0000;" x="154.384615" xlink:href="#m0b8d1bb446" y="138.381211"/>
     <use style="fill:#ff0000;stroke:#ff0000;" x="168.692308" xlink:href="#m0b8d1bb446" y="151.100194"/>
     <use style="fill:#ff0000;stroke:#ff0000;" x="183" xlink:href="#m0b8d1bb446" y="138.70157"/>
     <use style="fill:#ff0000;stroke:#ff0000;" x="197.307692" xlink:href="#m0b8d1bb446" y="125.970412"/>
     <use style="fill:#ff0000;stroke:#ff0000;" x="211.615385" xlink:href="#m0b8d1bb446" y="136.792699"/>
     <use style="fill:#ff0000;stroke:#ff0000;" x="225.923077" xlink:href="#m0b8d1bb446" y="155.309017"/>
     <use style="fill:#ff0000;stroke:#ff0000;" x="240.230769" xlink:href="#m0b8d1bb446" y="136.777242"/>
     <use style="fill:#ff0000;stroke:#ff0000;" x="254.538462" xlink:href="#m0b8d1bb446" y="132.541468"/>
     <use style="fill:#ff0000;stroke:#ff0000;" x="268.846154" xlink:href="#m0b8d1bb446" y="138.327522"/>
     <use style="fill:#ff0000;stroke:#ff0000;" x="283.153846" xlink:href="#m0b8d1bb446" y="130.281132"/>
     <use style="fill:#ff0000;stroke:#ff0000;" x="297.461538" xlink:href="#m0b8d1bb446" y="153.455565"/>
     <use style="fill:#ff0000;stroke:#ff0000;" x="311.769231" xlink:href="#m0b8d1bb446" y="149.187687"/>
     <use style="fill:#ff0000;stroke:#ff0000;" x="326.076923" xlink:href="#m0b8d1bb446" y="165.325292"/>
     <use style="fill:#ff0000;stroke:#ff0000;" x="340.384615" xlink:href="#m0b8d1bb446" y="134.296452"/>
     <use style="fill:#ff0000;stroke:#ff0000;" x="354.692308" xlink:href="#m0b8d1bb446" y="133.02836"/>
     <use style="fill:#ff0000;stroke:#ff0000;" x="369" xlink:href="#m0b8d1bb446" y="155.160495"/>
     <use style="fill:#ff0000;stroke:#ff0000;" x="383.307692" xlink:href="#m0b8d1bb446" y="125.82757"/>
     <use style="fill:#ff0000;stroke:#ff0000;" x="397.615385" xlink:href="#m0b8d1bb446" y="142.62466"/>
     <use style="fill:#ff0000;stroke:#ff0000;" x="411.923077" xlink:href="#m0b8d1bb446" y="124.048521"/>
     <use style="fill:#ff0000;stroke:#ff0000;" x="426.230769" xlink:href="#m0b8d1bb446" y="125.17288"/>
     <use style="fill:#ff0000;stroke:#ff0000;" x="440.538462" xlink:href="#m0b8d1bb446" y="106.898802"/>
     <use style="fill:#ff0000;stroke:#ff0000;" x="454.846154" xlink:href="#m0b8d1bb446" y="126.789039"/>
     <use style="fill:#ff0000;stroke:#ff0000;" x="469.153846" xlink:href="#m0b8d1bb446" y="114.937852"/>
     <use style="fill:#ff0000;stroke:#ff0000;" x="483.461538" xlink:href="#m0b8d1bb446" y="107.358686"/>
     <use style="fill:#ff0000;stroke:#ff0000;" x="497.769231" xlink:href="#m0b8d1bb446" y="104.10572"/>
     <use style="fill:#ff0000;stroke:#ff0000;" x="512.076923" xlink:href="#m0b8d1bb446" y="102.684414"/>
     <use style="fill:#ff0000;stroke:#ff0000;" x="526.384615" xlink:href="#m0b8d1bb446" y="101.581386"/>
     <use style="fill:#ff0000;stroke:#ff0000;" x="540.692308" xlink:href="#m0b8d1bb446" y="103.15813"/>
     <use style="fill:#ff0000;stroke:#ff0000;" x="555" xlink:href="#m0b8d1bb446" y="103.543331"/>
     <use style="fill:#ff0000;stroke:#ff0000;" x="569.307692" xlink:href="#m0b8d1bb446" y="97.651329"/>
     <use style="fill:#ff0000;stroke:#ff0000;" x="583.615385" xlink:href="#m0b8d1bb446" y="97.239754"/>
     <use style="fill:#ff0000;stroke:#ff0000;" x="597.923077" xlink:href="#m0b8d1bb446" y="94.584122"/>
     <use style="fill:#ff0000;stroke:#ff0000;" x="612.230769" xlink:href="#m0b8d1bb446" y="93.001708"/>
     <use style="fill:#ff0000;stroke:#ff0000;" x="626.538462" xlink:href="#m0b8d1bb446" y="91.128819"/>
     <use style="fill:#ff0000;stroke:#ff0000;" x="640.846154" xlink:href="#m0b8d1bb446" y="88.650735"/>
    </g>
   </g>
   <g id="line2d_15">
    <g clip-path="url(#p696eab6038)">
     <use style="fill:#ff0000;stroke:#ff0000;" x="97.153846" xlink:href="#m0b8d1bb446" y="105.945608"/>
     <use style="fill:#ff0000;stroke:#ff0000;" x="111.461538" xlink:href="#m0b8d1bb446" y="88.22688"/>
     <use style="fill:#ff0000;stroke:#ff0000;" x="125.769231" xlink:href="#m0b8d1bb446" y="96.738751"/>
     <use style="fill:#ff0000;stroke:#ff0000;" x="140.076923" xlink:href="#m0b8d1bb446" y="105.802906"/>
     <use style="fill:#ff0000;stroke:#ff0000;" x="154.384615" xlink:href="#m0b8d1bb446" y="114.86437"/>
     <use style="fill:#ff0000;stroke:#ff0000;" x="168.692308" xlink:href="#m0b8d1bb446" y="122.883189"/>
     <use style="fill:#ff0000;stroke:#ff0000;" x="183" xlink:href="#m0b8d1bb446" y="118.864387"/>
     <use style="fill:#ff0000;stroke:#ff0000;" x="197.307692" xlink:href="#m0b8d1bb446" y="106.337966"/>
     <use style="fill:#ff0000;stroke:#ff0000;" x="211.615385" xlink:href="#m0b8d1bb446" y="116.452882"/>
     <use style="fill:#ff0000;stroke:#ff0000;" x="225.923077" xlink:href="#m0b8d1bb446" y="132.499565"/>
     <use style="fill:#ff0000;stroke:#ff0000;" x="240.230769" xlink:href="#m0b8d1bb446" y="114.47432"/>
     <use style="fill:#ff0000;stroke:#ff0000;" x="254.538462" xlink:href="#m0b8d1bb446" y="112.063363"/>
     <use style="fill:#ff0000;stroke:#ff0000;" x="268.846154" xlink:href="#m0b8d1bb446" y="116.306751"/>
     <use style="fill:#ff0000;stroke:#ff0000;" x="283.153846" xlink:href="#m0b8d1bb446" y="111.357471"/>
     <use style="fill:#ff0000;stroke:#ff0000;" x="297.461538" xlink:href="#m0b8d1bb446" y="130.545229"/>
     <use style="fill:#ff0000;stroke:#ff0000;" x="311.769231" xlink:href="#m0b8d1bb446" y="128.900052"/>
     <use style="fill:#ff0000;stroke:#ff0000;" x="326.076923" xlink:href="#m0b8d1bb446" y="143.838288"/>
     <use style="fill:#ff0000;stroke:#ff0000;" x="340.384615" xlink:href="#m0b8d1bb446" y="115.398136"/>
     <use style="fill:#ff0000;stroke:#ff0000;" x="354.692308" xlink:href="#m0b8d1bb446" y="115.416804"/>
     <use style="fill:#ff0000;stroke:#ff0000;" x="369" xlink:href="#m0b8d1bb446" y="136.531571"/>
     <use style="fill:#ff0000;stroke:#ff0000;" x="383.307692" xlink:href="#m0b8d1bb446" y="110.58191"/>
     <use style="fill:#ff0000;stroke:#ff0000;" x="397.615385" xlink:href="#m0b8d1bb446" y="124.863916"/>
     <use style="fill:#ff0000;stroke:#ff0000;" x="411.923077" xlink:href="#m0b8d1bb446" y="110.364656"/>
     <use style="fill:#ff0000;stroke:#ff0000;" x="426.230769" xlink:href="#m0b8d1bb446" y="112.327334"/>
     <use style="fill:#ff0000;stroke:#ff0000;" x="440.538462" xlink:href="#m0b8d1bb446" y="97.34048"/>
     <use style="fill:#ff0000;stroke:#ff0000;" x="454.846154" xlink:href="#m0b8d1bb446" y="114.359491"/>
     <use style="fill:#ff0000;stroke:#ff0000;" x="469.153846" xlink:href="#m0b8d1bb446" y="105.93478"/>
     <use style="fill:#ff0000;stroke:#ff0000;" x="483.461538" xlink:href="#m0b8d1bb446" y="99.827616"/>
     <use style="fill:#ff0000;stroke:#ff0000;" x="497.769231" xlink:href="#m0b8d1bb446" y="97.758256"/>
     <use style="fill:#ff0000;stroke:#ff0000;" x="512.076923" xlink:href="#m0b8d1bb446" y="97.041688"/>
     <use style="fill:#ff0000;stroke:#ff0000;" x="526.384615" xlink:href="#m0b8d1bb446" y="96.571124"/>
     <use style="fill:#ff0000;stroke:#ff0000;" x="540.692308" xlink:href="#m0b8d1bb446" y="98.352557"/>
     <use style="fill:#ff0000;stroke:#ff0000;" x="555" xlink:href="#m0b8d1bb446" y="99.253236"/>
     <use style="fill:#ff0000;stroke:#ff0000;" x="569.307692" xlink:href="#m0b8d1bb446" y="94.645349"/>
     <use style="fill:#ff0000;stroke:#ff0000;" x="583.615385" xlink:href="#m0b8d1bb446" y="94.686134"/>
     <use style="fill:#ff0000;stroke:#ff0000;" x="597.923077" xlink:href="#m0b8d1bb446" y="92.791391"/>
     <use style="fill:#ff0000;stroke:#ff0000;" x="612.230769" xlink:href="#m0b8d1bb446" y="91.752844"/>
     <use style="fill:#ff0000;stroke:#ff0000;" x="626.538462" xlink:href="#m0b8d1bb446" y="90.379286"/>
     <use style="fill:#ff0000;stroke:#ff0000;" x="640.846154" xlink:href="#m0b8d1bb446" y="88.415247"/>
    </g>
   </g>
   <g id="line2d_16">
    <path clip-path="url(#p696eab6038)" d="M 90 142.028856 
L 104.307692 142.028856 
L 104.307692 163.779372 
L 118.615385 163.779372 
L 118.615385 125.745928 
L 132.923077 125.745928 
L 132.923077 136.028512 
L 147.230769 136.028512 
L 147.230769 138.821497 
L 161.538462 138.821497 
L 161.538462 161.61783 
L 175.846154 161.61783 
L 175.846154 132.806857 
L 190.153846 132.806857 
L 190.153846 116.154189 
L 204.461538 116.154189 
L 204.461538 130.854995 
L 218.769231 130.854995 
L 218.769231 152.169357 
L 233.076923 152.169357 
L 233.076923 130.256337 
L 247.384615 130.256337 
L 247.384615 122.302415 
L 261.692308 122.302415 
L 261.692308 157.380215 
L 276 157.380215 
L 276 140.805067 
L 290.307692 140.805067 
L 290.307692 142.000397 
L 304.615385 142.000397 
L 304.615385 139.043869 
L 318.923077 139.043869 
L 318.923077 158.032156 
L 333.230769 158.032156 
L 333.230769 137.523264 
L 347.538462 137.523264 
L 347.538462 132.963341 
L 361.846154 132.963341 
L 361.846154 156.299076 
L 376.153846 156.299076 
L 376.153846 132.433052 
L 390.461538 132.433052 
L 390.461538 139.014196 
L 404.769231 139.014196 
L 404.769231 127.243357 
L 419.076923 127.243357 
L 419.076923 134.004093 
L 433.384615 134.004093 
L 433.384615 109.09351 
L 447.692308 109.09351 
L 447.692308 134.39325 
L 462 134.39325 
L 462 126.254558 
L 476.307692 126.254558 
L 476.307692 113.69875 
L 490.615385 113.69875 
L 490.615385 105.248077 
L 504.923077 105.248077 
L 504.923077 112.072689 
L 519.230769 112.072689 
L 519.230769 108.15839 
L 533.538462 108.15839 
L 533.538462 105.348799 
L 547.846154 105.348799 
L 547.846154 108.411425 
L 562.153846 108.411425 
L 562.153846 104.829086 
L 576.461538 104.829086 
L 576.461538 100.967396 
L 590.769231 100.967396 
L 590.769231 97.492957 
L 605.076923 97.492957 
L 605.076923 96.401354 
L 619.384615 96.401354 
L 619.384615 93.442132 
L 633.692308 93.442132 
L 633.692308 89.341929 
L 648 89.341929 
" style="fill:none;stroke:#0000ff;stroke-linecap:square;stroke-width:1.5;"/>
   </g>
   <g id="line2d_17">
    <defs>
     <path d="M 2 0 
L -2 -0 
" id="mf7c55f6a44" style="stroke:#0000ff;"/>
    </defs>
    <g clip-path="url(#p696eab6038)">
     <use style="fill:#0000ff;stroke:#0000ff;" x="97.153846" xlink:href="#mf7c55f6a44" y="154.333912"/>
     <use style="fill:#0000ff;stroke:#0000ff;" x="111.461538" xlink:href="#mf7c55f6a44" y="184.77304"/>
     <use style="fill:#0000ff;stroke:#0000ff;" x="125.769231" xlink:href="#mf7c55f6a44" y="138.151199"/>
     <use style="fill:#0000ff;stroke:#0000ff;" x="140.076923" xlink:href="#mf7c55f6a44" y="149.236305"/>
     <use style="fill:#0000ff;stroke:#0000ff;" x="154.384615" xlink:href="#mf7c55f6a44" y="152.695949"/>
     <use style="fill:#0000ff;stroke:#0000ff;" x="168.692308" xlink:href="#mf7c55f6a44" y="178.501483"/>
     <use style="fill:#0000ff;stroke:#0000ff;" x="183" xlink:href="#mf7c55f6a44" y="143.31554"/>
     <use style="fill:#0000ff;stroke:#0000ff;" x="197.307692" xlink:href="#mf7c55f6a44" y="125.970412"/>
     <use style="fill:#0000ff;stroke:#0000ff;" x="211.615385" xlink:href="#mf7c55f6a44" y="141.66215"/>
     <use style="fill:#0000ff;stroke:#0000ff;" x="225.923077" xlink:href="#mf7c55f6a44" y="164.484958"/>
     <use style="fill:#0000ff;stroke:#0000ff;" x="240.230769" xlink:href="#mf7c55f6a44" y="142.082375"/>
     <use style="fill:#0000ff;stroke:#0000ff;" x="254.538462" xlink:href="#mf7c55f6a44" y="132.541468"/>
     <use style="fill:#0000ff;stroke:#0000ff;" x="268.846154" xlink:href="#mf7c55f6a44" y="170.984185"/>
     <use style="fill:#0000ff;stroke:#0000ff;" x="283.153846" xlink:href="#mf7c55f6a44" y="152.374752"/>
     <use style="fill:#0000ff;stroke:#0000ff;" x="297.461538" xlink:href="#mf7c55f6a44" y="153.455565"/>
     <use style="fill:#0000ff;stroke:#0000ff;" x="311.769231" xlink:href="#mf7c55f6a44" y="149.187687"/>
     <use style="fill:#0000ff;stroke:#0000ff;" x="326.076923" xlink:href="#mf7c55f6a44" y="169.109261"/>
     <use style="fill:#0000ff;stroke:#0000ff;" x="340.384615" xlink:href="#mf7c55f6a44" y="148.318051"/>
     <use style="fill:#0000ff;stroke:#0000ff;" x="354.692308" xlink:href="#mf7c55f6a44" y="142.741908"/>
     <use style="fill:#0000ff;stroke:#0000ff;" x="369" xlink:href="#mf7c55f6a44" y="166.457127"/>
     <use style="fill:#0000ff;stroke:#0000ff;" x="383.307692" xlink:href="#mf7c55f6a44" y="141.500232"/>
     <use style="fill:#0000ff;stroke:#0000ff;" x="397.615385" xlink:href="#mf7c55f6a44" y="148.410237"/>
     <use style="fill:#0000ff;stroke:#0000ff;" x="411.923077" xlink:href="#mf7c55f6a44" y="135.10418"/>
     <use style="fill:#0000ff;stroke:#0000ff;" x="426.230769" xlink:href="#mf7c55f6a44" y="141.726403"/>
     <use style="fill:#0000ff;stroke:#0000ff;" x="440.538462" xlink:href="#mf7c55f6a44" y="114.862411"/>
     <use style="fill:#0000ff;stroke:#0000ff;" x="454.846154" xlink:href="#mf7c55f6a44" y="141.716375"/>
     <use style="fill:#0000ff;stroke:#0000ff;" x="469.153846" xlink:href="#mf7c55f6a44" y="131.998998"/>
     <use style="fill:#0000ff;stroke:#0000ff;" x="483.461538" xlink:href="#mf7c55f6a44" y="118.466049"/>
     <use style="fill:#0000ff;stroke:#0000ff;" x="497.769231" xlink:href="#mf7c55f6a44" y="108.90317"/>
     <use style="fill:#0000ff;stroke:#0000ff;" x="512.076923" xlink:href="#mf7c55f6a44" y="116.00504"/>
     <use style="fill:#0000ff;stroke:#0000ff;" x="526.384615" xlink:href="#mf7c55f6a44" y="111.487991"/>
     <use style="fill:#0000ff;stroke:#0000ff;" x="540.692308" xlink:href="#mf7c55f6a44" y="108.149955"/>
     <use style="fill:#0000ff;stroke:#0000ff;" x="555" xlink:href="#mf7c55f6a44" y="111.053019"/>
     <use style="fill:#0000ff;stroke:#0000ff;" x="569.307692" xlink:href="#mf7c55f6a44" y="106.954473"/>
     <use style="fill:#0000ff;stroke:#0000ff;" x="583.615385" xlink:href="#mf7c55f6a44" y="102.588635"/>
     <use style="fill:#0000ff;stroke:#0000ff;" x="597.923077" xlink:href="#mf7c55f6a44" y="98.644615"/>
     <use style="fill:#0000ff;stroke:#0000ff;" x="612.230769" xlink:href="#mf7c55f6a44" y="97.256276"/>
     <use style="fill:#0000ff;stroke:#0000ff;" x="626.538462" xlink:href="#mf7c55f6a44" y="93.959131"/>
     <use style="fill:#0000ff;stroke:#0000ff;" x="640.846154" xlink:href="#mf7c55f6a44" y="89.510055"/>
    </g>
   </g>
   <g id="line2d_18">
    <g clip-path="url(#p696eab6038)">
     <use style="fill:#0000ff;stroke:#0000ff;" x="97.153846" xlink:href="#mf7c55f6a44" y="129.7238"/>
     <use style="fill:#0000ff;stroke:#0000ff;" x="111.461538" xlink:href="#mf7c55f6a44" y="142.785703"/>
     <use style="fill:#0000ff;stroke:#0000ff;" x="125.769231" xlink:href="#mf7c55f6a44" y="113.340657"/>
     <use style="fill:#0000ff;stroke:#0000ff;" x="140.076923" xlink:href="#mf7c55f6a44" y="122.82072"/>
     <use style="fill:#0000ff;stroke:#0000ff;" x="154.384615" xlink:href="#mf7c55f6a44" y="124.947045"/>
     <use style="fill:#0000ff;stroke:#0000ff;" x="168.692308" xlink:href="#mf7c55f6a44" y="144.734176"/>
     <use style="fill:#0000ff;stroke:#0000ff;" x="183" xlink:href="#mf7c55f6a44" y="122.298174"/>
     <use style="fill:#0000ff;stroke:#0000ff;" x="197.307692" xlink:href="#mf7c55f6a44" y="106.337966"/>
     <use style="fill:#0000ff;stroke:#0000ff;" x="211.615385" xlink:href="#mf7c55f6a44" y="120.047839"/>
     <use style="fill:#0000ff;stroke:#0000ff;" x="225.923077" xlink:href="#mf7c55f6a44" y="139.853756"/>
     <use style="fill:#0000ff;stroke:#0000ff;" x="240.230769" xlink:href="#mf7c55f6a44" y="118.430299"/>
     <use style="fill:#0000ff;stroke:#0000ff;" x="254.538462" xlink:href="#mf7c55f6a44" y="112.063363"/>
     <use style="fill:#0000ff;stroke:#0000ff;" x="268.846154" xlink:href="#mf7c55f6a44" y="143.776245"/>
     <use style="fill:#0000ff;stroke:#0000ff;" x="283.153846" xlink:href="#mf7c55f6a44" y="129.235382"/>
     <use style="fill:#0000ff;stroke:#0000ff;" x="297.461538" xlink:href="#mf7c55f6a44" y="130.545229"/>
     <use style="fill:#0000ff;stroke:#0000ff;" x="311.769231" xlink:href="#mf7c55f6a44" y="128.900052"/>
     <use style="fill:#0000ff;stroke:#0000ff;" x="326.076923" xlink:href="#mf7c55f6a44" y="146.95505"/>
     <use style="fill:#0000ff;stroke:#0000ff;" x="340.384615" xlink:href="#mf7c55f6a44" y="126.728477"/>
     <use style="fill:#0000ff;stroke:#0000ff;" x="354.692308" xlink:href="#mf7c55f6a44" y="123.184774"/>
     <use style="fill:#0000ff;stroke:#0000ff;" x="369" xlink:href="#mf7c55f6a44" y="146.141024"/>
     <use style="fill:#0000ff;stroke:#0000ff;" x="383.307692" xlink:href="#mf7c55f6a44" y="123.365871"/>
     <use style="fill:#0000ff;stroke:#0000ff;" x="397.615385" xlink:href="#mf7c55f6a44" y="129.618156"/>
     <use style="fill:#0000ff;stroke:#0000ff;" x="411.923077" xlink:href="#mf7c55f6a44" y="119.382535"/>
     <use style="fill:#0000ff;stroke:#0000ff;" x="426.230769" xlink:href="#mf7c55f6a44" y="126.281783"/>
     <use style="fill:#0000ff;stroke:#0000ff;" x="440.538462" xlink:href="#mf7c55f6a44" y="103.324609"/>
     <use style="fill:#0000ff;stroke:#0000ff;" x="454.846154" xlink:href="#mf7c55f6a44" y="127.070125"/>
     <use style="fill:#0000ff;stroke:#0000ff;" x="469.153846" xlink:href="#mf7c55f6a44" y="120.510117"/>
     <use style="fill:#0000ff;stroke:#0000ff;" x="483.461538" xlink:href="#mf7c55f6a44" y="108.931451"/>
     <use style="fill:#0000ff;stroke:#0000ff;" x="497.769231" xlink:href="#mf7c55f6a44" y="101.592985"/>
     <use style="fill:#0000ff;stroke:#0000ff;" x="512.076923" xlink:href="#mf7c55f6a44" y="108.140337"/>
     <use style="fill:#0000ff;stroke:#0000ff;" x="526.384615" xlink:href="#mf7c55f6a44" y="104.828788"/>
     <use style="fill:#0000ff;stroke:#0000ff;" x="540.692308" xlink:href="#mf7c55f6a44" y="102.547642"/>
     <use style="fill:#0000ff;stroke:#0000ff;" x="555" xlink:href="#mf7c55f6a44" y="105.769831"/>
     <use style="fill:#0000ff;stroke:#0000ff;" x="569.307692" xlink:href="#mf7c55f6a44" y="102.703699"/>
     <use style="fill:#0000ff;stroke:#0000ff;" x="583.615385" xlink:href="#mf7c55f6a44" y="99.346157"/>
     <use style="fill:#0000ff;stroke:#0000ff;" x="597.923077" xlink:href="#mf7c55f6a44" y="96.341299"/>
     <use style="fill:#0000ff;stroke:#0000ff;" x="612.230769" xlink:href="#mf7c55f6a44" y="95.546432"/>
     <use style="fill:#0000ff;stroke:#0000ff;" x="626.538462" xlink:href="#mf7c55f6a44" y="92.925132"/>
     <use style="fill:#0000ff;stroke:#0000ff;" x="640.846154" xlink:href="#mf7c55f6a44" y="89.173803"/>
    </g>
   </g>
   <g id="patch_3">
    <path d="M 90 334.0008 
L 90 85.2768 
" style="fill:none;stroke:#000000;stroke-linecap:square;stroke-linejoin:miter;stroke-width:0.8;"/>
   </g>
   <g id="patch_4">
    <path d="M 648 334.0008 
L 648 85.2768 
" style="fill:none;stroke:#000000;stroke-linecap:square;stroke-linejoin:miter;stroke-width:0.8;"/>
   </g>
   <g id="patch_5">
    <path d="M 90 334.0008 
L 648 334.0008 
" style="fill:none;stroke:#000000;stroke-linecap:square;stroke-linejoin:miter;stroke-width:0.8;"/>
   </g>
   <g id="patch_6">
    <path d="M 90 85.2768 
L 648 85.2768 
" style="fill:none;stroke:#000000;stroke-linecap:square;stroke-linejoin:miter;stroke-width:0.8;"/>
   </g>
   <g id="legend_1">
    <g id="patch_7">
     <path d="M 266.025938 325.0008 
L 471.974063 325.0008 
Q 475.574063 325.0008 475.574063 321.4008 
L 475.574063 243.938925 
Q 475.574063 240.338925 471.974063 240.338925 
L 266.025938 240.338925 
Q 262.425938 240.338925 262.425938 243.938925 
L 262.425938 321.4008 
Q 262.425938 325.0008 266.025938 325.0008 
z
" style="fill:#ffffff;opacity:0.5;stroke:#cccccc;stroke-linejoin:miter;"/>
    </g>
    <g id="line2d_19">
     <path d="M 269.625938 254.916112 
L 305.625938 254.916112 
" style="fill:none;stroke:#008000;stroke-linecap:square;stroke-width:1.5;"/>
    </g>
    <g id="line2d_20"/>
    <g id="text_6">
     <!-- Efficiency -->
     <defs>
      <path d="M 9.8125 72.90625 
L 55.90625 72.90625 
L 55.90625 64.59375 
L 19.671875 64.59375 
L 19.671875 43.015625 
L 54.390625 43.015625 
L 54.390625 34.71875 
L 19.671875 34.71875 
L 19.671875 8.296875 
L 56.78125 8.296875 
L 56.78125 0 
L 9.8125 0 
z
" id="DejaVuSans-69"/>
      <path d="M 37.109375 75.984375 
L 37.109375 68.5 
L 28.515625 68.5 
Q 23.6875 68.5 21.796875 66.546875 
Q 19.921875 64.59375 19.921875 59.515625 
L 19.921875 54.6875 
L 34.71875 54.6875 
L 34.71875 47.703125 
L 19.921875 47.703125 
L 19.921875 0 
L 10.890625 0 
L 10.890625 47.703125 
L 2.296875 47.703125 
L 2.296875 54.6875 
L 10.890625 54.6875 
L 10.890625 58.5 
Q 10.890625 67.625 15.140625 71.796875 
Q 19.390625 75.984375 28.609375 75.984375 
z
" id="DejaVuSans-102"/>
      <path d="M 32.171875 -5.078125 
Q 28.375 -14.84375 24.75 -17.8125 
Q 21.140625 -20.796875 15.09375 -20.796875 
L 7.90625 -20.796875 
L 7.90625 -13.28125 
L 13.1875 -13.28125 
Q 16.890625 -13.28125 18.9375 -11.515625 
Q 21 -9.765625 23.484375 -3.21875 
L 25.09375 0.875 
L 2.984375 54.6875 
L 12.5 54.6875 
L 29.59375 11.921875 
L 46.6875 54.6875 
L 56.203125 54.6875 
z
" id="DejaVuSans-121"/>
     </defs>
     <g transform="translate(320.025937 261.216113)scale(0.18 -0.18)">
      <use xlink:href="#DejaVuSans-69"/>
      <use x="63.183594" xlink:href="#DejaVuSans-102"/>
      <use x="98.388672" xlink:href="#DejaVuSans-102"/>
      <use x="133.59375" xlink:href="#DejaVuSans-105"/>
      <use x="161.376953" xlink:href="#DejaVuSans-99"/>
      <use x="216.357422" xlink:href="#DejaVuSans-105"/>
      <use x="244.140625" xlink:href="#DejaVuSans-101"/>
      <use x="305.664062" xlink:href="#DejaVuSans-110"/>
      <use x="369.042969" xlink:href="#DejaVuSans-99"/>
      <use x="424.023438" xlink:href="#DejaVuSans-121"/>
     </g>
    </g>
    <g id="line2d_21">
     <path d="M 269.625938 281.336737 
L 305.625938 281.336737 
" style="fill:none;stroke:#ff0000;stroke-linecap:square;stroke-width:1.5;"/>
    </g>
    <g id="line2d_22"/>
    <g id="text_7">
     <!-- Purity -->
     <defs>
      <path d="M 19.671875 64.796875 
L 19.671875 37.40625 
L 32.078125 37.40625 
Q 38.96875 37.40625 42.71875 40.96875 
Q 46.484375 44.53125 46.484375 51.125 
Q 46.484375 57.671875 42.71875 61.234375 
Q 38.96875 64.796875 32.078125 64.796875 
z
M 9.8125 72.90625 
L 32.078125 72.90625 
Q 44.34375 72.90625 50.609375 67.359375 
Q 56.890625 61.8125 56.890625 51.125 
Q 56.890625 40.328125 50.609375 34.8125 
Q 44.34375 29.296875 32.078125 29.296875 
L 19.671875 29.296875 
L 19.671875 0 
L 9.8125 0 
z
" id="DejaVuSans-80"/>
      <path d="M 8.5 21.578125 
L 8.5 54.6875 
L 17.484375 54.6875 
L 17.484375 21.921875 
Q 17.484375 14.15625 20.5 10.265625 
Q 23.53125 6.390625 29.59375 6.390625 
Q 36.859375 6.390625 41.078125 11.03125 
Q 45.3125 15.671875 45.3125 23.6875 
L 45.3125 54.6875 
L 54.296875 54.6875 
L 54.296875 0 
L 45.3125 0 
L 45.3125 8.40625 
Q 42.046875 3.421875 37.71875 1 
Q 33.40625 -1.421875 27.6875 -1.421875 
Q 18.265625 -1.421875 13.375 4.4375 
Q 8.5 10.296875 8.5 21.578125 
z
M 31.109375 56 
z
" id="DejaVuSans-117"/>
     </defs>
     <g transform="translate(320.025937 287.636737)scale(0.18 -0.18)">
      <use xlink:href="#DejaVuSans-80"/>
      <use x="60.287109" xlink:href="#DejaVuSans-117"/>
      <use x="123.666016" xlink:href="#DejaVuSans-114"/>
      <use x="164.779297" xlink:href="#DejaVuSans-105"/>
      <use x="192.5625" xlink:href="#DejaVuSans-116"/>
      <use x="231.771484" xlink:href="#DejaVuSans-121"/>
     </g>
    </g>
    <g id="line2d_23">
     <path d="M 269.625938 307.757362 
L 305.625938 307.757362 
" style="fill:none;stroke:#0000ff;stroke-linecap:square;stroke-width:1.5;"/>
    </g>
    <g id="line2d_24"/>
    <g id="text_8">
     <!-- Purity*Efficiency -->
     <defs>
      <path d="M 47.015625 60.890625 
L 29.5 51.421875 
L 47.015625 41.890625 
L 44.1875 37.109375 
L 27.78125 47.015625 
L 27.78125 28.609375 
L 22.21875 28.609375 
L 22.21875 47.015625 
L 5.8125 37.109375 
L 2.984375 41.890625 
L 20.515625 51.421875 
L 2.984375 60.890625 
L 5.8125 65.71875 
L 22.21875 55.8125 
L 22.21875 74.21875 
L 27.78125 74.21875 
L 27.78125 55.8125 
L 44.1875 65.71875 
z
" id="DejaVuSans-42"/>
     </defs>
     <g transform="translate(320.025937 314.057363)scale(0.18 -0.18)">
      <use xlink:href="#DejaVuSans-80"/>
      <use x="60.287109" xlink:href="#DejaVuSans-117"/>
      <use x="123.666016" xlink:href="#DejaVuSans-114"/>
      <use x="164.779297" xlink:href="#DejaVuSans-105"/>
      <use x="192.5625" xlink:href="#DejaVuSans-116"/>
      <use x="231.771484" xlink:href="#DejaVuSans-121"/>
      <use x="290.951172" xlink:href="#DejaVuSans-42"/>
      <use x="340.951172" xlink:href="#DejaVuSans-69"/>
      <use x="404.134766" xlink:href="#DejaVuSans-102"/>
      <use x="439.339844" xlink:href="#DejaVuSans-102"/>
      <use x="474.544922" xlink:href="#DejaVuSans-105"/>
      <use x="502.328125" xlink:href="#DejaVuSans-99"/>
      <use x="557.308594" xlink:href="#DejaVuSans-105"/>
      <use x="585.091797" xlink:href="#DejaVuSans-101"/>
      <use x="646.615234" xlink:href="#DejaVuSans-110"/>
      <use x="709.994141" xlink:href="#DejaVuSans-99"/>
      <use x="764.974609" xlink:href="#DejaVuSans-121"/>
     </g>
    </g>
   </g>
  </g>
  <g id="axes_2">
   <g id="patch_8">
    <path d="M 90 632.4696 
L 648 632.4696 
L 648 383.7456 
L 90 383.7456 
z
" style="fill:#ffffff;"/>
   </g>
   <g id="patch_9">
    <path clip-path="url(#p2a8061eb5a)" d="M 90 49600.232304 
L 90 535.539343 
L 104.307692 535.539343 
L 104.307692 549.537072 
L 118.615385 549.537072 
L 118.615385 540.669183 
L 132.923077 540.669183 
L 132.923077 541.158201 
L 147.230769 541.158201 
L 147.230769 546.153553 
L 161.538462 546.153553 
L 161.538462 547.44312 
L 175.846154 547.44312 
L 175.846154 537.528767 
L 190.153846 537.528767 
L 190.153846 539.723634 
L 204.461538 539.723634 
L 204.461538 538.379734 
L 218.769231 538.379734 
L 218.769231 539.723634 
L 233.076923 539.723634 
L 233.076923 540.191155 
L 247.384615 540.191155 
L 247.384615 538.379734 
L 261.692308 538.379734 
L 261.692308 535.922621 
L 276 535.922621 
L 276 532.698951 
L 290.307692 532.698951 
L 290.307692 539.723634 
L 304.615385 539.723634 
L 304.615385 535.162849 
L 318.923077 535.162849 
L 318.923077 537.115719 
L 333.230769 537.115719 
L 333.230769 532.044397 
L 347.538462 532.044397 
L 347.538462 530.193548 
L 361.846154 530.193548 
L 361.846154 530.193548 
L 376.153846 530.193548 
L 376.153846 525.211941 
L 390.461538 525.211941 
L 390.461538 529.043466 
L 404.769231 529.043466 
L 404.769231 521.568763 
L 419.076923 521.568763 
L 419.076923 518.121617 
L 433.384615 518.121617 
L 433.384615 517.139689 
L 447.692308 517.139689 
L 447.692308 516.201095 
L 462 516.201095 
L 462 507.222201 
L 476.307692 507.222201 
L 476.307692 505.674512 
L 490.615385 505.674512 
L 490.615385 502.078032 
L 504.923077 502.078032 
L 504.923077 498.068907 
L 519.230769 498.068907 
L 519.230769 494.365398 
L 533.538462 494.365398 
L 533.538462 490.883746 
L 547.846154 490.883746 
L 547.846154 485.199327 
L 562.153846 485.199327 
L 562.153846 478.396258 
L 576.461538 478.396258 
L 576.461538 472.315727 
L 590.769231 472.315727 
L 590.769231 463.677982 
L 605.076923 463.677982 
L 605.076923 453.083213 
L 619.384615 453.083213 
L 619.384615 440.089933 
L 633.692308 440.089933 
L 633.692308 395.051236 
L 648 395.051236 
L 648 49600.232304 
z
" style="fill:#1f77b4;opacity:0.2;"/>
   </g>
   <g id="matplotlib.axis_3">
    <g id="xtick_7">
     <g id="line2d_25">
      <g>
       <use style="stroke:#000000;stroke-width:0.8;" x="90" xlink:href="#m3f1416d9e4" y="632.4696"/>
      </g>
     </g>
     <g id="text_9">
      <!-- 0.0 -->
      <g transform="translate(69.38955 659.16475)scale(0.2592 -0.2592)">
       <use xlink:href="#DejaVuSans-48"/>
       <use x="63.623047" xlink:href="#DejaVuSans-46"/>
       <use x="95.410156" xlink:href="#DejaVuSans-48"/>
      </g>
     </g>
    </g>
    <g id="xtick_8">
     <g id="line2d_26">
      <g>
       <use style="stroke:#000000;stroke-width:0.8;" x="201.6" xlink:href="#m3f1416d9e4" y="632.4696"/>
      </g>
     </g>
     <g id="text_10">
      <!-- 0.2 -->
      <defs>
       <path d="M 19.1875 8.296875 
L 53.609375 8.296875 
L 53.609375 0 
L 7.328125 0 
L 7.328125 8.296875 
Q 12.9375 14.109375 22.625 23.890625 
Q 32.328125 33.6875 34.8125 36.53125 
Q 39.546875 41.84375 41.421875 45.53125 
Q 43.3125 49.21875 43.3125 52.78125 
Q 43.3125 58.59375 39.234375 62.25 
Q 35.15625 65.921875 28.609375 65.921875 
Q 23.96875 65.921875 18.8125 64.3125 
Q 13.671875 62.703125 7.8125 59.421875 
L 7.8125 69.390625 
Q 13.765625 71.78125 18.9375 73 
Q 24.125 74.21875 28.421875 74.21875 
Q 39.75 74.21875 46.484375 68.546875 
Q 53.21875 62.890625 53.21875 53.421875 
Q 53.21875 48.921875 51.53125 44.890625 
Q 49.859375 40.875 45.40625 35.40625 
Q 44.1875 33.984375 37.640625 27.21875 
Q 31.109375 20.453125 19.1875 8.296875 
z
" id="DejaVuSans-50"/>
      </defs>
      <g transform="translate(180.98955 659.16475)scale(0.2592 -0.2592)">
       <use xlink:href="#DejaVuSans-48"/>
       <use x="63.623047" xlink:href="#DejaVuSans-46"/>
       <use x="95.410156" xlink:href="#DejaVuSans-50"/>
      </g>
     </g>
    </g>
    <g id="xtick_9">
     <g id="line2d_27">
      <g>
       <use style="stroke:#000000;stroke-width:0.8;" x="313.2" xlink:href="#m3f1416d9e4" y="632.4696"/>
      </g>
     </g>
     <g id="text_11">
      <!-- 0.4 -->
      <defs>
       <path d="M 37.796875 64.3125 
L 12.890625 25.390625 
L 37.796875 25.390625 
z
M 35.203125 72.90625 
L 47.609375 72.90625 
L 47.609375 25.390625 
L 58.015625 25.390625 
L 58.015625 17.1875 
L 47.609375 17.1875 
L 47.609375 0 
L 37.796875 0 
L 37.796875 17.1875 
L 4.890625 17.1875 
L 4.890625 26.703125 
z
" id="DejaVuSans-52"/>
      </defs>
      <g transform="translate(292.58955 659.16475)scale(0.2592 -0.2592)">
       <use xlink:href="#DejaVuSans-48"/>
       <use x="63.623047" xlink:href="#DejaVuSans-46"/>
       <use x="95.410156" xlink:href="#DejaVuSans-52"/>
      </g>
     </g>
    </g>
    <g id="xtick_10">
     <g id="line2d_28">
      <g>
       <use style="stroke:#000000;stroke-width:0.8;" x="424.8" xlink:href="#m3f1416d9e4" y="632.4696"/>
      </g>
     </g>
     <g id="text_12">
      <!-- 0.6 -->
      <defs>
       <path d="M 33.015625 40.375 
Q 26.375 40.375 22.484375 35.828125 
Q 18.609375 31.296875 18.609375 23.390625 
Q 18.609375 15.53125 22.484375 10.953125 
Q 26.375 6.390625 33.015625 6.390625 
Q 39.65625 6.390625 43.53125 10.953125 
Q 47.40625 15.53125 47.40625 23.390625 
Q 47.40625 31.296875 43.53125 35.828125 
Q 39.65625 40.375 33.015625 40.375 
z
M 52.59375 71.296875 
L 52.59375 62.3125 
Q 48.875 64.0625 45.09375 64.984375 
Q 41.3125 65.921875 37.59375 65.921875 
Q 27.828125 65.921875 22.671875 59.328125 
Q 17.53125 52.734375 16.796875 39.40625 
Q 19.671875 43.65625 24.015625 45.921875 
Q 28.375 48.1875 33.59375 48.1875 
Q 44.578125 48.1875 50.953125 41.515625 
Q 57.328125 34.859375 57.328125 23.390625 
Q 57.328125 12.15625 50.6875 5.359375 
Q 44.046875 -1.421875 33.015625 -1.421875 
Q 20.359375 -1.421875 13.671875 8.265625 
Q 6.984375 17.96875 6.984375 36.375 
Q 6.984375 53.65625 15.1875 63.9375 
Q 23.390625 74.21875 37.203125 74.21875 
Q 40.921875 74.21875 44.703125 73.484375 
Q 48.484375 72.75 52.59375 71.296875 
z
" id="DejaVuSans-54"/>
      </defs>
      <g transform="translate(404.18955 659.16475)scale(0.2592 -0.2592)">
       <use xlink:href="#DejaVuSans-48"/>
       <use x="63.623047" xlink:href="#DejaVuSans-46"/>
       <use x="95.410156" xlink:href="#DejaVuSans-54"/>
      </g>
     </g>
    </g>
    <g id="xtick_11">
     <g id="line2d_29">
      <g>
       <use style="stroke:#000000;stroke-width:0.8;" x="536.4" xlink:href="#m3f1416d9e4" y="632.4696"/>
      </g>
     </g>
     <g id="text_13">
      <!-- 0.8 -->
      <defs>
       <path d="M 31.78125 34.625 
Q 24.75 34.625 20.71875 30.859375 
Q 16.703125 27.09375 16.703125 20.515625 
Q 16.703125 13.921875 20.71875 10.15625 
Q 24.75 6.390625 31.78125 6.390625 
Q 38.8125 6.390625 42.859375 10.171875 
Q 46.921875 13.96875 46.921875 20.515625 
Q 46.921875 27.09375 42.890625 30.859375 
Q 38.875 34.625 31.78125 34.625 
z
M 21.921875 38.8125 
Q 15.578125 40.375 12.03125 44.71875 
Q 8.5 49.078125 8.5 55.328125 
Q 8.5 64.0625 14.71875 69.140625 
Q 20.953125 74.21875 31.78125 74.21875 
Q 42.671875 74.21875 48.875 69.140625 
Q 55.078125 64.0625 55.078125 55.328125 
Q 55.078125 49.078125 51.53125 44.71875 
Q 48 40.375 41.703125 38.8125 
Q 48.828125 37.15625 52.796875 32.3125 
Q 56.78125 27.484375 56.78125 20.515625 
Q 56.78125 9.90625 50.3125 4.234375 
Q 43.84375 -1.421875 31.78125 -1.421875 
Q 19.734375 -1.421875 13.25 4.234375 
Q 6.78125 9.90625 6.78125 20.515625 
Q 6.78125 27.484375 10.78125 32.3125 
Q 14.796875 37.15625 21.921875 38.8125 
z
M 18.3125 54.390625 
Q 18.3125 48.734375 21.84375 45.5625 
Q 25.390625 42.390625 31.78125 42.390625 
Q 38.140625 42.390625 41.71875 45.5625 
Q 45.3125 48.734375 45.3125 54.390625 
Q 45.3125 60.0625 41.71875 63.234375 
Q 38.140625 66.40625 31.78125 66.40625 
Q 25.390625 66.40625 21.84375 63.234375 
Q 18.3125 60.0625 18.3125 54.390625 
z
" id="DejaVuSans-56"/>
      </defs>
      <g transform="translate(515.78955 659.16475)scale(0.2592 -0.2592)">
       <use xlink:href="#DejaVuSans-48"/>
       <use x="63.623047" xlink:href="#DejaVuSans-46"/>
       <use x="95.410156" xlink:href="#DejaVuSans-56"/>
      </g>
     </g>
    </g>
    <g id="xtick_12">
     <g id="line2d_30">
      <g>
       <use style="stroke:#000000;stroke-width:0.8;" x="648" xlink:href="#m3f1416d9e4" y="632.4696"/>
      </g>
     </g>
     <g id="text_14">
      <!-- 1.0 -->
      <g transform="translate(627.38955 659.16475)scale(0.2592 -0.2592)">
       <use xlink:href="#DejaVuSans-49"/>
       <use x="63.623047" xlink:href="#DejaVuSans-46"/>
       <use x="95.410156" xlink:href="#DejaVuSans-48"/>
      </g>
     </g>
    </g>
    <g id="text_15">
     <!-- completenessW -->
     <g transform="translate(265.957875 688.25045)scale(0.2592 -0.2592)">
      <use xlink:href="#DejaVuSans-99"/>
      <use x="54.980469" xlink:href="#DejaVuSans-111"/>
      <use x="116.162109" xlink:href="#DejaVuSans-109"/>
      <use x="213.574219" xlink:href="#DejaVuSans-112"/>
      <use x="277.050781" xlink:href="#DejaVuSans-108"/>
      <use x="304.833984" xlink:href="#DejaVuSans-101"/>
      <use x="366.357422" xlink:href="#DejaVuSans-116"/>
      <use x="405.566406" xlink:href="#DejaVuSans-101"/>
      <use x="467.089844" xlink:href="#DejaVuSans-110"/>
      <use x="530.46875" xlink:href="#DejaVuSans-101"/>
      <use x="591.992188" xlink:href="#DejaVuSans-115"/>
      <use x="644.091797" xlink:href="#DejaVuSans-115"/>
      <use x="696.191406" xlink:href="#DejaVuSans-87"/>
     </g>
    </g>
   </g>
   <g id="matplotlib.axis_4">
    <g id="ytick_4">
     <g id="line2d_31">
      <g>
       <use style="stroke:#000000;stroke-width:0.8;" x="90" xlink:href="#ma747f713aa" y="572.184895"/>
      </g>
     </g>
     <g id="text_16">
      <!-- $\mathdefault{10^{1}}$ -->
      <g transform="translate(37.3808 582.03247)scale(0.2592 -0.2592)">
       <use transform="translate(0 0.684375)" xlink:href="#DejaVuSans-49"/>
       <use transform="translate(63.623047 0.684375)" xlink:href="#DejaVuSans-48"/>
       <use transform="translate(128.203125 38.965625)scale(0.7)" xlink:href="#DejaVuSans-49"/>
      </g>
     </g>
    </g>
    <g id="ytick_5">
     <g id="line2d_32">
      <g>
       <use style="stroke:#000000;stroke-width:0.8;" x="90" xlink:href="#ma747f713aa" y="474.226759"/>
      </g>
     </g>
     <g id="text_17">
      <!-- $\mathdefault{10^{3}}$ -->
      <defs>
       <path d="M 40.578125 39.3125 
Q 47.65625 37.796875 51.625 33 
Q 55.609375 28.21875 55.609375 21.1875 
Q 55.609375 10.40625 48.1875 4.484375 
Q 40.765625 -1.421875 27.09375 -1.421875 
Q 22.515625 -1.421875 17.65625 -0.515625 
Q 12.796875 0.390625 7.625 2.203125 
L 7.625 11.71875 
Q 11.71875 9.328125 16.59375 8.109375 
Q 21.484375 6.890625 26.8125 6.890625 
Q 36.078125 6.890625 40.9375 10.546875 
Q 45.796875 14.203125 45.796875 21.1875 
Q 45.796875 27.640625 41.28125 31.265625 
Q 36.765625 34.90625 28.71875 34.90625 
L 20.21875 34.90625 
L 20.21875 43.015625 
L 29.109375 43.015625 
Q 36.375 43.015625 40.234375 45.921875 
Q 44.09375 48.828125 44.09375 54.296875 
Q 44.09375 59.90625 40.109375 62.90625 
Q 36.140625 65.921875 28.71875 65.921875 
Q 24.65625 65.921875 20.015625 65.03125 
Q 15.375 64.15625 9.8125 62.3125 
L 9.8125 71.09375 
Q 15.4375 72.65625 20.34375 73.4375 
Q 25.25 74.21875 29.59375 74.21875 
Q 40.828125 74.21875 47.359375 69.109375 
Q 53.90625 64.015625 53.90625 55.328125 
Q 53.90625 49.265625 50.4375 45.09375 
Q 46.96875 40.921875 40.578125 39.3125 
z
" id="DejaVuSans-51"/>
      </defs>
      <g transform="translate(37.3808 484.074334)scale(0.2592 -0.2592)">
       <use transform="translate(0 0.765625)" xlink:href="#DejaVuSans-49"/>
       <use transform="translate(63.623047 0.765625)" xlink:href="#DejaVuSans-48"/>
       <use transform="translate(128.203125 39.046875)scale(0.7)" xlink:href="#DejaVuSans-51"/>
      </g>
     </g>
    </g>
    <g id="text_18">
     <!-- Count -->
     <defs>
      <path d="M 64.40625 67.28125 
L 64.40625 56.890625 
Q 59.421875 61.53125 53.78125 63.8125 
Q 48.140625 66.109375 41.796875 66.109375 
Q 29.296875 66.109375 22.65625 58.46875 
Q 16.015625 50.828125 16.015625 36.375 
Q 16.015625 21.96875 22.65625 14.328125 
Q 29.296875 6.6875 41.796875 6.6875 
Q 48.140625 6.6875 53.78125 8.984375 
Q 59.421875 11.28125 64.40625 15.921875 
L 64.40625 5.609375 
Q 59.234375 2.09375 53.4375 0.328125 
Q 47.65625 -1.421875 41.21875 -1.421875 
Q 24.65625 -1.421875 15.125 8.703125 
Q 5.609375 18.84375 5.609375 36.375 
Q 5.609375 53.953125 15.125 64.078125 
Q 24.65625 74.21875 41.21875 74.21875 
Q 47.75 74.21875 53.53125 72.484375 
Q 59.328125 70.75 64.40625 67.28125 
z
" id="DejaVuSans-67"/>
     </defs>
     <g transform="translate(27.99025 546.59475)rotate(-90)scale(0.2592 -0.2592)">
      <use xlink:href="#DejaVuSans-67"/>
      <use x="69.824219" xlink:href="#DejaVuSans-111"/>
      <use x="131.005859" xlink:href="#DejaVuSans-117"/>
      <use x="194.384766" xlink:href="#DejaVuSans-110"/>
      <use x="257.763672" xlink:href="#DejaVuSans-116"/>
     </g>
    </g>
   </g>
   <g id="line2d_33">
    <path clip-path="url(#p2a8061eb5a)" d="M 90 535.539343 
L 104.307692 535.539343 
L 104.307692 549.537072 
L 118.615385 549.537072 
L 118.615385 540.669183 
L 132.923077 540.669183 
L 132.923077 541.158201 
L 147.230769 541.158201 
L 147.230769 546.153553 
L 161.538462 546.153553 
L 161.538462 547.44312 
L 175.846154 547.44312 
L 175.846154 537.528767 
L 190.153846 537.528767 
L 190.153846 539.723634 
L 204.461538 539.723634 
L 204.461538 538.379734 
L 218.769231 538.379734 
L 218.769231 539.723634 
L 233.076923 539.723634 
L 233.076923 540.191155 
L 247.384615 540.191155 
L 247.384615 538.379734 
L 261.692308 538.379734 
L 261.692308 535.922621 
L 276 535.922621 
L 276 532.698951 
L 290.307692 532.698951 
L 290.307692 539.723634 
L 304.615385 539.723634 
L 304.615385 535.162849 
L 318.923077 535.162849 
L 318.923077 537.115719 
L 333.230769 537.115719 
L 333.230769 532.044397 
L 347.538462 532.044397 
L 347.538462 530.193548 
L 361.846154 530.193548 
L 361.846154 530.193548 
L 376.153846 530.193548 
L 376.153846 525.211941 
L 390.461538 525.211941 
L 390.461538 529.043466 
L 404.769231 529.043466 
L 404.769231 521.568763 
L 419.076923 521.568763 
L 419.076923 518.121617 
L 433.384615 518.121617 
L 433.384615 517.139689 
L 447.692308 517.139689 
L 447.692308 516.201095 
L 462 516.201095 
L 462 507.222201 
L 476.307692 507.222201 
L 476.307692 505.674512 
L 490.615385 505.674512 
L 490.615385 502.078032 
L 504.923077 502.078032 
L 504.923077 498.068907 
L 519.230769 498.068907 
L 519.230769 494.365398 
L 533.538462 494.365398 
L 533.538462 490.883746 
L 547.846154 490.883746 
L 547.846154 485.199327 
L 562.153846 485.199327 
L 562.153846 478.396258 
L 576.461538 478.396258 
L 576.461538 472.315727 
L 590.769231 472.315727 
L 590.769231 463.677982 
L 605.076923 463.677982 
L 605.076923 453.083213 
L 619.384615 453.083213 
L 619.384615 440.089933 
L 633.692308 440.089933 
L 633.692308 395.051236 
L 648 395.051236 
" style="fill:none;stroke:#1f77b4;stroke-linecap:square;stroke-width:1.5;"/>
   </g>
   <g id="line2d_34">
    <path clip-path="url(#p2a8061eb5a)" d="M 90 538.379734 
L 104.307692 538.379734 
L 104.307692 556.402894 
L 118.615385 556.402894 
L 118.615385 542.696558 
L 132.923077 542.696558 
L 132.923077 543.235102 
L 147.230769 543.235102 
L 147.230769 547.44312 
L 161.538462 547.44312 
L 161.538462 550.283512 
L 175.846154 550.283512 
L 175.846154 537.949996 
L 190.153846 537.949996 
L 190.153846 539.723634 
L 204.461538 539.723634 
L 204.461538 538.818334 
L 218.769231 538.818334 
L 218.769231 540.669183 
L 233.076923 540.669183 
L 233.076923 540.669183 
L 247.384615 540.669183 
L 247.384615 538.379734 
L 261.692308 538.379734 
L 261.692308 539.266168 
L 276 539.266168 
L 276 534.792903 
L 290.307692 534.792903 
L 290.307692 539.723634 
L 304.615385 539.723634 
L 304.615385 535.162849 
L 318.923077 535.162849 
L 318.923077 537.528767 
L 333.230769 537.528767 
L 333.230769 533.374289 
L 347.538462 533.374289 
L 347.538462 531.098848 
L 361.846154 531.098848 
L 361.846154 531.409384 
L 376.153846 531.409384 
L 376.153846 526.662822 
L 390.461538 526.662822 
L 390.461538 529.610735 
L 404.769231 529.610735 
L 404.769231 522.577072 
L 419.076923 522.577072 
L 419.076923 519.685113 
L 433.384615 519.685113 
L 433.384615 517.789246 
L 447.692308 517.789246 
L 447.692308 517.624988 
L 462 517.624988 
L 462 508.783146 
L 476.307692 508.783146 
L 476.307692 506.628543 
L 490.615385 506.628543 
L 490.615385 502.475638 
L 504.923077 502.475638 
L 504.923077 499.208117 
L 519.230769 499.208117 
L 519.230769 495.204061 
L 533.538462 495.204061 
L 533.538462 491.306837 
L 547.846154 491.306837 
L 547.846154 485.850541 
L 562.153846 485.850541 
L 562.153846 479.187105 
L 576.461538 479.187105 
L 576.461538 472.767698 
L 590.769231 472.767698 
L 590.769231 464.017495 
L 605.076923 464.017495 
L 605.076923 453.440456 
L 619.384615 453.440456 
L 619.384615 440.326307 
L 633.692308 440.326307 
L 633.692308 395.304784 
L 648 395.304784 
" style="fill:none;stroke:#ff7f0e;stroke-linecap:square;stroke-width:1.5;"/>
   </g>
   <g id="line2d_35">
    <path clip-path="url(#p2a8061eb5a)" d="M 90 583.05084 
L 104.307692 583.05084 
L 104.307692 621.163964 
L 118.615385 621.163964 
L 118.615385 597.795009 
L 132.923077 597.795009 
L 132.923077 586.929064 
L 147.230769 586.929064 
L 147.230769 583.05084 
L 161.538462 583.05084 
L 161.538462 579.771849 
L 175.846154 579.771849 
L 175.846154 572.184895 
L 190.153846 572.184895 
L 190.153846 583.05084 
L 204.461538 583.05084 
L 204.461538 574.426055 
L 218.769231 574.426055 
L 218.769231 566.604056 
L 233.076923 566.604056 
L 233.076923 576.931457 
L 247.384615 576.931457 
L 247.384615 576.931457 
L 261.692308 576.931457 
L 261.692308 574.426055 
L 276 574.426055 
L 276 574.426055 
L 290.307692 574.426055 
L 290.307692 566.604056 
L 304.615385 566.604056 
L 304.615385 563.560109 
L 318.923077 563.560109 
L 318.923077 558.531804 
L 333.230769 558.531804 
L 333.230769 570.15752 
L 347.538462 570.15752 
L 347.538462 568.306672 
L 361.846154 568.306672 
L 361.846154 556.402894 
L 376.153846 556.402894 
L 376.153846 568.306672 
L 390.461538 568.306672 
L 390.461538 560.897722 
L 404.769231 560.897722 
L 404.769231 565.02768 
L 419.076923 565.02768 
L 419.076923 560.897722 
L 433.384615 560.897722 
L 433.384615 576.931457 
L 447.692308 576.931457 
L 447.692308 557.440727 
L 462 557.440727 
L 462 557.440727 
L 476.307692 557.440727 
L 476.307692 563.560109 
L 490.615385 563.560109 
L 490.615385 563.560109 
L 504.923077 563.560109 
L 504.923077 562.187289 
L 519.230769 562.187289 
L 519.230769 559.681886 
L 533.538462 559.681886 
L 533.538462 552.694164 
L 547.846154 552.694164 
L 547.846154 546.153553 
L 562.153846 546.153553 
L 562.153846 550.283512 
L 576.461538 550.283512 
L 576.461538 544.354904 
L 590.769231 544.354904 
L 590.769231 542.696558 
L 605.076923 542.696558 
L 605.076923 537.528767 
L 619.384615 537.528767 
L 619.384615 533.720172 
L 633.692308 533.720172 
L 633.692308 505.488735 
L 648 505.488735 
" style="fill:none;stroke:#2ca02c;stroke-linecap:square;stroke-width:1.5;"/>
   </g>
   <g id="patch_10">
    <path d="M 90 632.4696 
L 90 383.7456 
" style="fill:none;stroke:#000000;stroke-linecap:square;stroke-linejoin:miter;stroke-width:0.8;"/>
   </g>
   <g id="patch_11">
    <path d="M 648 632.4696 
L 648 383.7456 
" style="fill:none;stroke:#000000;stroke-linecap:square;stroke-linejoin:miter;stroke-width:0.8;"/>
   </g>
   <g id="patch_12">
    <path d="M 90 632.4696 
L 648 632.4696 
" style="fill:none;stroke:#000000;stroke-linecap:square;stroke-linejoin:miter;stroke-width:0.8;"/>
   </g>
   <g id="patch_13">
    <path d="M 90 383.7456 
L 648 383.7456 
" style="fill:none;stroke:#000000;stroke-linecap:square;stroke-linejoin:miter;stroke-width:0.8;"/>
   </g>
   <g id="legend_2">
    <g id="patch_14">
     <path d="M 421.225313 477.407475 
L 635.4 477.407475 
Q 639 477.407475 639 473.807475 
L 639 396.3456 
Q 639 392.7456 635.4 392.7456 
L 421.225313 392.7456 
Q 417.625313 392.7456 417.625313 396.3456 
L 417.625313 473.807475 
Q 417.625313 477.407475 421.225313 477.407475 
z
" style="fill:#ffffff;opacity:0.5;stroke:#cccccc;stroke-linejoin:miter;"/>
    </g>
    <g id="line2d_36">
     <path d="M 424.825312 407.322787 
L 460.825312 407.322787 
" style="fill:none;stroke:#1f77b4;stroke-linecap:square;stroke-width:1.5;"/>
    </g>
    <g id="line2d_37"/>
    <g id="text_19">
     <!--  track -->
     <defs>
      <path id="DejaVuSans-32"/>
      <path d="M 9.078125 75.984375 
L 18.109375 75.984375 
L 18.109375 31.109375 
L 44.921875 54.6875 
L 56.390625 54.6875 
L 27.390625 29.109375 
L 57.625 0 
L 45.90625 0 
L 18.109375 26.703125 
L 18.109375 0 
L 9.078125 0 
z
" id="DejaVuSans-107"/>
     </defs>
     <g transform="translate(475.225312 413.622787)scale(0.18 -0.18)">
      <use xlink:href="#DejaVuSans-32"/>
      <use x="31.787109" xlink:href="#DejaVuSans-116"/>
      <use x="70.996094" xlink:href="#DejaVuSans-114"/>
      <use x="112.109375" xlink:href="#DejaVuSans-97"/>
      <use x="173.388672" xlink:href="#DejaVuSans-99"/>
      <use x="228.369141" xlink:href="#DejaVuSans-107"/>
     </g>
    </g>
    <g id="line2d_38">
     <path d="M 424.825312 433.743412 
L 460.825312 433.743412 
" style="fill:none;stroke:#ff7f0e;stroke-linecap:square;stroke-width:1.5;"/>
    </g>
    <g id="line2d_39"/>
    <g id="text_20">
     <!-- correct  track -->
     <g transform="translate(475.225312 440.043412)scale(0.18 -0.18)">
      <use xlink:href="#DejaVuSans-99"/>
      <use x="54.980469" xlink:href="#DejaVuSans-111"/>
      <use x="116.162109" xlink:href="#DejaVuSans-114"/>
      <use x="157.259766" xlink:href="#DejaVuSans-114"/>
      <use x="198.341797" xlink:href="#DejaVuSans-101"/>
      <use x="259.865234" xlink:href="#DejaVuSans-99"/>
      <use x="314.845703" xlink:href="#DejaVuSans-116"/>
      <use x="354.054688" xlink:href="#DejaVuSans-32"/>
      <use x="385.841797" xlink:href="#DejaVuSans-32"/>
      <use x="417.628906" xlink:href="#DejaVuSans-116"/>
      <use x="456.837891" xlink:href="#DejaVuSans-114"/>
      <use x="497.951172" xlink:href="#DejaVuSans-97"/>
      <use x="559.230469" xlink:href="#DejaVuSans-99"/>
      <use x="614.210938" xlink:href="#DejaVuSans-107"/>
     </g>
    </g>
    <g id="line2d_40">
     <path d="M 424.825312 460.164037 
L 460.825312 460.164037 
" style="fill:none;stroke:#2ca02c;stroke-linecap:square;stroke-width:1.5;"/>
    </g>
    <g id="line2d_41"/>
    <g id="text_21">
     <!-- incorrect  shower -->
     <defs>
      <path d="M 54.890625 33.015625 
L 54.890625 0 
L 45.90625 0 
L 45.90625 32.71875 
Q 45.90625 40.484375 42.875 44.328125 
Q 39.84375 48.1875 33.796875 48.1875 
Q 26.515625 48.1875 22.3125 43.546875 
Q 18.109375 38.921875 18.109375 30.90625 
L 18.109375 0 
L 9.078125 0 
L 9.078125 75.984375 
L 18.109375 75.984375 
L 18.109375 46.1875 
Q 21.34375 51.125 25.703125 53.5625 
Q 30.078125 56 35.796875 56 
Q 45.21875 56 50.046875 50.171875 
Q 54.890625 44.34375 54.890625 33.015625 
z
" id="DejaVuSans-104"/>
      <path d="M 4.203125 54.6875 
L 13.1875 54.6875 
L 24.421875 12.015625 
L 35.59375 54.6875 
L 46.1875 54.6875 
L 57.421875 12.015625 
L 68.609375 54.6875 
L 77.59375 54.6875 
L 63.28125 0 
L 52.6875 0 
L 40.921875 44.828125 
L 29.109375 0 
L 18.5 0 
z
" id="DejaVuSans-119"/>
     </defs>
     <g transform="translate(475.225312 466.464037)scale(0.18 -0.18)">
      <use xlink:href="#DejaVuSans-105"/>
      <use x="27.783203" xlink:href="#DejaVuSans-110"/>
      <use x="91.162109" xlink:href="#DejaVuSans-99"/>
      <use x="146.142578" xlink:href="#DejaVuSans-111"/>
      <use x="207.324219" xlink:href="#DejaVuSans-114"/>
      <use x="248.421875" xlink:href="#DejaVuSans-114"/>
      <use x="289.503906" xlink:href="#DejaVuSans-101"/>
      <use x="351.027344" xlink:href="#DejaVuSans-99"/>
      <use x="406.007812" xlink:href="#DejaVuSans-116"/>
      <use x="445.216797" xlink:href="#DejaVuSans-32"/>
      <use x="477.003906" xlink:href="#DejaVuSans-32"/>
      <use x="508.791016" xlink:href="#DejaVuSans-115"/>
      <use x="560.890625" xlink:href="#DejaVuSans-104"/>
      <use x="624.269531" xlink:href="#DejaVuSans-111"/>
      <use x="685.451172" xlink:href="#DejaVuSans-119"/>
      <use x="767.238281" xlink:href="#DejaVuSans-101"/>
      <use x="828.761719" xlink:href="#DejaVuSans-114"/>
     </g>
    </g>
   </g>
  </g>
 </g>
 <defs>
  <clipPath id="p696eab6038">
   <rect height="248.724" width="558" x="90" y="85.2768"/>
  </clipPath>
  <clipPath id="p2a8061eb5a">
   <rect height="248.724" width="558" x="90" y="383.7456"/>
  </clipPath>
 </defs>
</svg>
