<?xml version="1.0" encoding="utf-8" standalone="no"?>
<!DOCTYPE svg PUBLIC "-//W3C//DTD SVG 1.1//EN"
  "http://www.w3.org/Graphics/SVG/1.1/DTD/svg11.dtd">
<!-- Created with matplotlib (https://matplotlib.org/) -->
<svg height="710.64pt" version="1.1" viewBox="0 0 720 710.64" width="720pt" xmlns="http://www.w3.org/2000/svg" xmlns:xlink="http://www.w3.org/1999/xlink">
 <defs>
  <style type="text/css">
*{stroke-linecap:butt;stroke-linejoin:round;}
  </style>
 </defs>
 <g id="figure_1">
  <g id="patch_1">
   <path d="M 0 710.64 
L 720 710.64 
L 720 0 
L 0 0 
z
" style="fill:#ffffff;"/>
  </g>
  <g id="axes_1">
   <g id="patch_2">
    <path d="M 90 334.0008 
L 648 334.0008 
L 648 85.2768 
L 90 85.2768 
z
" style="fill:#ffffff;"/>
   </g>
   <g id="matplotlib.axis_1">
    <g id="xtick_1">
     <g id="line2d_1">
      <defs>
       <path d="M 0 0 
L 0 3.5 
" id="m50ecc82a60" style="stroke:#000000;stroke-width:0.8;"/>
      </defs>
      <g>
       <use style="stroke:#000000;stroke-width:0.8;" x="90" xlink:href="#m50ecc82a60" y="334.0008"/>
      </g>
     </g>
    </g>
    <g id="xtick_2">
     <g id="line2d_2">
      <g>
       <use style="stroke:#000000;stroke-width:0.8;" x="201.6" xlink:href="#m50ecc82a60" y="334.0008"/>
      </g>
     </g>
    </g>
    <g id="xtick_3">
     <g id="line2d_3">
      <g>
       <use style="stroke:#000000;stroke-width:0.8;" x="313.2" xlink:href="#m50ecc82a60" y="334.0008"/>
      </g>
     </g>
    </g>
    <g id="xtick_4">
     <g id="line2d_4">
      <g>
       <use style="stroke:#000000;stroke-width:0.8;" x="424.8" xlink:href="#m50ecc82a60" y="334.0008"/>
      </g>
     </g>
    </g>
    <g id="xtick_5">
     <g id="line2d_5">
      <g>
       <use style="stroke:#000000;stroke-width:0.8;" x="536.4" xlink:href="#m50ecc82a60" y="334.0008"/>
      </g>
     </g>
    </g>
    <g id="xtick_6">
     <g id="line2d_6">
      <g>
       <use style="stroke:#000000;stroke-width:0.8;" x="648" xlink:href="#m50ecc82a60" y="334.0008"/>
      </g>
     </g>
    </g>
    <g id="text_1">
     <!-- completenessW -->
     <defs>
      <path d="M 48.78125 52.59375 
L 48.78125 44.1875 
Q 44.96875 46.296875 41.140625 47.34375 
Q 37.3125 48.390625 33.40625 48.390625 
Q 24.65625 48.390625 19.8125 42.84375 
Q 14.984375 37.3125 14.984375 27.296875 
Q 14.984375 17.28125 19.8125 11.734375 
Q 24.65625 6.203125 33.40625 6.203125 
Q 37.3125 6.203125 41.140625 7.25 
Q 44.96875 8.296875 48.78125 10.40625 
L 48.78125 2.09375 
Q 45.015625 0.34375 40.984375 -0.53125 
Q 36.96875 -1.421875 32.421875 -1.421875 
Q 20.0625 -1.421875 12.78125 6.34375 
Q 5.515625 14.109375 5.515625 27.296875 
Q 5.515625 40.671875 12.859375 48.328125 
Q 20.21875 56 33.015625 56 
Q 37.15625 56 41.109375 55.140625 
Q 45.0625 54.296875 48.78125 52.59375 
z
" id="DejaVuSans-99"/>
      <path d="M 30.609375 48.390625 
Q 23.390625 48.390625 19.1875 42.75 
Q 14.984375 37.109375 14.984375 27.296875 
Q 14.984375 17.484375 19.15625 11.84375 
Q 23.34375 6.203125 30.609375 6.203125 
Q 37.796875 6.203125 41.984375 11.859375 
Q 46.1875 17.53125 46.1875 27.296875 
Q 46.1875 37.015625 41.984375 42.703125 
Q 37.796875 48.390625 30.609375 48.390625 
z
M 30.609375 56 
Q 42.328125 56 49.015625 48.375 
Q 55.71875 40.765625 55.71875 27.296875 
Q 55.71875 13.875 49.015625 6.21875 
Q 42.328125 -1.421875 30.609375 -1.421875 
Q 18.84375 -1.421875 12.171875 6.21875 
Q 5.515625 13.875 5.515625 27.296875 
Q 5.515625 40.765625 12.171875 48.375 
Q 18.84375 56 30.609375 56 
z
" id="DejaVuSans-111"/>
      <path d="M 52 44.1875 
Q 55.375 50.25 60.0625 53.125 
Q 64.75 56 71.09375 56 
Q 79.640625 56 84.28125 50.015625 
Q 88.921875 44.046875 88.921875 33.015625 
L 88.921875 0 
L 79.890625 0 
L 79.890625 32.71875 
Q 79.890625 40.578125 77.09375 44.375 
Q 74.3125 48.1875 68.609375 48.1875 
Q 61.625 48.1875 57.5625 43.546875 
Q 53.515625 38.921875 53.515625 30.90625 
L 53.515625 0 
L 44.484375 0 
L 44.484375 32.71875 
Q 44.484375 40.625 41.703125 44.40625 
Q 38.921875 48.1875 33.109375 48.1875 
Q 26.21875 48.1875 22.15625 43.53125 
Q 18.109375 38.875 18.109375 30.90625 
L 18.109375 0 
L 9.078125 0 
L 9.078125 54.6875 
L 18.109375 54.6875 
L 18.109375 46.1875 
Q 21.1875 51.21875 25.484375 53.609375 
Q 29.78125 56 35.6875 56 
Q 41.65625 56 45.828125 52.96875 
Q 50 49.953125 52 44.1875 
z
" id="DejaVuSans-109"/>
      <path d="M 18.109375 8.203125 
L 18.109375 -20.796875 
L 9.078125 -20.796875 
L 9.078125 54.6875 
L 18.109375 54.6875 
L 18.109375 46.390625 
Q 20.953125 51.265625 25.265625 53.625 
Q 29.59375 56 35.59375 56 
Q 45.5625 56 51.78125 48.09375 
Q 58.015625 40.1875 58.015625 27.296875 
Q 58.015625 14.40625 51.78125 6.484375 
Q 45.5625 -1.421875 35.59375 -1.421875 
Q 29.59375 -1.421875 25.265625 0.953125 
Q 20.953125 3.328125 18.109375 8.203125 
z
M 48.6875 27.296875 
Q 48.6875 37.203125 44.609375 42.84375 
Q 40.53125 48.484375 33.40625 48.484375 
Q 26.265625 48.484375 22.1875 42.84375 
Q 18.109375 37.203125 18.109375 27.296875 
Q 18.109375 17.390625 22.1875 11.75 
Q 26.265625 6.109375 33.40625 6.109375 
Q 40.53125 6.109375 44.609375 11.75 
Q 48.6875 17.390625 48.6875 27.296875 
z
" id="DejaVuSans-112"/>
      <path d="M 9.421875 75.984375 
L 18.40625 75.984375 
L 18.40625 0 
L 9.421875 0 
z
" id="DejaVuSans-108"/>
      <path d="M 56.203125 29.59375 
L 56.203125 25.203125 
L 14.890625 25.203125 
Q 15.484375 15.921875 20.484375 11.0625 
Q 25.484375 6.203125 34.421875 6.203125 
Q 39.59375 6.203125 44.453125 7.46875 
Q 49.3125 8.734375 54.109375 11.28125 
L 54.109375 2.78125 
Q 49.265625 0.734375 44.1875 -0.34375 
Q 39.109375 -1.421875 33.890625 -1.421875 
Q 20.796875 -1.421875 13.15625 6.1875 
Q 5.515625 13.8125 5.515625 26.8125 
Q 5.515625 40.234375 12.765625 48.109375 
Q 20.015625 56 32.328125 56 
Q 43.359375 56 49.78125 48.890625 
Q 56.203125 41.796875 56.203125 29.59375 
z
M 47.21875 32.234375 
Q 47.125 39.59375 43.09375 43.984375 
Q 39.0625 48.390625 32.421875 48.390625 
Q 24.90625 48.390625 20.390625 44.140625 
Q 15.875 39.890625 15.1875 32.171875 
z
" id="DejaVuSans-101"/>
      <path d="M 18.3125 70.21875 
L 18.3125 54.6875 
L 36.8125 54.6875 
L 36.8125 47.703125 
L 18.3125 47.703125 
L 18.3125 18.015625 
Q 18.3125 11.328125 20.140625 9.421875 
Q 21.96875 7.515625 27.59375 7.515625 
L 36.8125 7.515625 
L 36.8125 0 
L 27.59375 0 
Q 17.1875 0 13.234375 3.875 
Q 9.28125 7.765625 9.28125 18.015625 
L 9.28125 47.703125 
L 2.6875 47.703125 
L 2.6875 54.6875 
L 9.28125 54.6875 
L 9.28125 70.21875 
z
" id="DejaVuSans-116"/>
      <path d="M 54.890625 33.015625 
L 54.890625 0 
L 45.90625 0 
L 45.90625 32.71875 
Q 45.90625 40.484375 42.875 44.328125 
Q 39.84375 48.1875 33.796875 48.1875 
Q 26.515625 48.1875 22.3125 43.546875 
Q 18.109375 38.921875 18.109375 30.90625 
L 18.109375 0 
L 9.078125 0 
L 9.078125 54.6875 
L 18.109375 54.6875 
L 18.109375 46.1875 
Q 21.34375 51.125 25.703125 53.5625 
Q 30.078125 56 35.796875 56 
Q 45.21875 56 50.046875 50.171875 
Q 54.890625 44.34375 54.890625 33.015625 
z
" id="DejaVuSans-110"/>
      <path d="M 44.28125 53.078125 
L 44.28125 44.578125 
Q 40.484375 46.53125 36.375 47.5 
Q 32.28125 48.484375 27.875 48.484375 
Q 21.1875 48.484375 17.84375 46.4375 
Q 14.5 44.390625 14.5 40.28125 
Q 14.5 37.15625 16.890625 35.375 
Q 19.28125 33.59375 26.515625 31.984375 
L 29.59375 31.296875 
Q 39.15625 29.25 43.1875 25.515625 
Q 47.21875 21.78125 47.21875 15.09375 
Q 47.21875 7.46875 41.1875 3.015625 
Q 35.15625 -1.421875 24.609375 -1.421875 
Q 20.21875 -1.421875 15.453125 -0.5625 
Q 10.6875 0.296875 5.421875 2 
L 5.421875 11.28125 
Q 10.40625 8.6875 15.234375 7.390625 
Q 20.0625 6.109375 24.8125 6.109375 
Q 31.15625 6.109375 34.5625 8.28125 
Q 37.984375 10.453125 37.984375 14.40625 
Q 37.984375 18.0625 35.515625 20.015625 
Q 33.0625 21.96875 24.703125 23.78125 
L 21.578125 24.515625 
Q 13.234375 26.265625 9.515625 29.90625 
Q 5.8125 33.546875 5.8125 39.890625 
Q 5.8125 47.609375 11.28125 51.796875 
Q 16.75 56 26.8125 56 
Q 31.78125 56 36.171875 55.265625 
Q 40.578125 54.546875 44.28125 53.078125 
z
" id="DejaVuSans-115"/>
      <path d="M 3.328125 72.90625 
L 13.28125 72.90625 
L 28.609375 11.28125 
L 43.890625 72.90625 
L 54.984375 72.90625 
L 70.3125 11.28125 
L 85.59375 72.90625 
L 95.609375 72.90625 
L 77.296875 0 
L 64.890625 0 
L 49.515625 63.28125 
L 33.984375 0 
L 21.578125 0 
z
" id="DejaVuSans-87"/>
     </defs>
     <g transform="translate(265.957875 357.69595)scale(0.2592 -0.2592)">
      <use xlink:href="#DejaVuSans-99"/>
      <use x="54.980469" xlink:href="#DejaVuSans-111"/>
      <use x="116.162109" xlink:href="#DejaVuSans-109"/>
      <use x="213.574219" xlink:href="#DejaVuSans-112"/>
      <use x="277.050781" xlink:href="#DejaVuSans-108"/>
      <use x="304.833984" xlink:href="#DejaVuSans-101"/>
      <use x="366.357422" xlink:href="#DejaVuSans-116"/>
      <use x="405.566406" xlink:href="#DejaVuSans-101"/>
      <use x="467.089844" xlink:href="#DejaVuSans-110"/>
      <use x="530.46875" xlink:href="#DejaVuSans-101"/>
      <use x="591.992188" xlink:href="#DejaVuSans-115"/>
      <use x="644.091797" xlink:href="#DejaVuSans-115"/>
      <use x="696.191406" xlink:href="#DejaVuSans-87"/>
     </g>
    </g>
   </g>
   <g id="matplotlib.axis_2">
    <g id="ytick_1">
     <g id="line2d_7">
      <defs>
       <path d="M 0 0 
L -3.5 0 
" id="m9dd2e14af1" style="stroke:#000000;stroke-width:0.8;"/>
      </defs>
      <g>
       <use style="stroke:#000000;stroke-width:0.8;" x="90" xlink:href="#m9dd2e14af1" y="334.0008"/>
      </g>
     </g>
     <g id="text_2">
      <!-- 0.0 -->
      <defs>
       <path d="M 31.78125 66.40625 
Q 24.171875 66.40625 20.328125 58.90625 
Q 16.5 51.421875 16.5 36.375 
Q 16.5 21.390625 20.328125 13.890625 
Q 24.171875 6.390625 31.78125 6.390625 
Q 39.453125 6.390625 43.28125 13.890625 
Q 47.125 21.390625 47.125 36.375 
Q 47.125 51.421875 43.28125 58.90625 
Q 39.453125 66.40625 31.78125 66.40625 
z
M 31.78125 74.21875 
Q 44.046875 74.21875 50.515625 64.515625 
Q 56.984375 54.828125 56.984375 36.375 
Q 56.984375 17.96875 50.515625 8.265625 
Q 44.046875 -1.421875 31.78125 -1.421875 
Q 19.53125 -1.421875 13.0625 8.265625 
Q 6.59375 17.96875 6.59375 36.375 
Q 6.59375 54.828125 13.0625 64.515625 
Q 19.53125 74.21875 31.78125 74.21875 
z
" id="DejaVuSans-48"/>
       <path d="M 10.6875 12.40625 
L 21 12.40625 
L 21 0 
L 10.6875 0 
z
" id="DejaVuSans-46"/>
      </defs>
      <g transform="translate(41.7791 343.848375)scale(0.2592 -0.2592)">
       <use xlink:href="#DejaVuSans-48"/>
       <use x="63.623047" xlink:href="#DejaVuSans-46"/>
       <use x="95.410156" xlink:href="#DejaVuSans-48"/>
      </g>
     </g>
    </g>
    <g id="ytick_2">
     <g id="line2d_8">
      <g>
       <use style="stroke:#000000;stroke-width:0.8;" x="90" xlink:href="#m9dd2e14af1" y="210.870107"/>
      </g>
     </g>
     <g id="text_3">
      <!-- 0.5 -->
      <defs>
       <path d="M 10.796875 72.90625 
L 49.515625 72.90625 
L 49.515625 64.59375 
L 19.828125 64.59375 
L 19.828125 46.734375 
Q 21.96875 47.46875 24.109375 47.828125 
Q 26.265625 48.1875 28.421875 48.1875 
Q 40.625 48.1875 47.75 41.5 
Q 54.890625 34.8125 54.890625 23.390625 
Q 54.890625 11.625 47.5625 5.09375 
Q 40.234375 -1.421875 26.90625 -1.421875 
Q 22.3125 -1.421875 17.546875 -0.640625 
Q 12.796875 0.140625 7.71875 1.703125 
L 7.71875 11.625 
Q 12.109375 9.234375 16.796875 8.0625 
Q 21.484375 6.890625 26.703125 6.890625 
Q 35.15625 6.890625 40.078125 11.328125 
Q 45.015625 15.765625 45.015625 23.390625 
Q 45.015625 31 40.078125 35.4375 
Q 35.15625 39.890625 26.703125 39.890625 
Q 22.75 39.890625 18.8125 39.015625 
Q 14.890625 38.140625 10.796875 36.28125 
z
" id="DejaVuSans-53"/>
      </defs>
      <g transform="translate(41.7791 220.717682)scale(0.2592 -0.2592)">
       <use xlink:href="#DejaVuSans-48"/>
       <use x="63.623047" xlink:href="#DejaVuSans-46"/>
       <use x="95.410156" xlink:href="#DejaVuSans-53"/>
      </g>
     </g>
    </g>
    <g id="ytick_3">
     <g id="line2d_9">
      <g>
       <use style="stroke:#000000;stroke-width:0.8;" x="90" xlink:href="#m9dd2e14af1" y="87.739414"/>
      </g>
     </g>
     <g id="text_4">
      <!-- 1.0 -->
      <defs>
       <path d="M 12.40625 8.296875 
L 28.515625 8.296875 
L 28.515625 63.921875 
L 10.984375 60.40625 
L 10.984375 69.390625 
L 28.421875 72.90625 
L 38.28125 72.90625 
L 38.28125 8.296875 
L 54.390625 8.296875 
L 54.390625 0 
L 12.40625 0 
z
" id="DejaVuSans-49"/>
      </defs>
      <g transform="translate(41.7791 97.586989)scale(0.2592 -0.2592)">
       <use xlink:href="#DejaVuSans-49"/>
       <use x="63.623047" xlink:href="#DejaVuSans-46"/>
       <use x="95.410156" xlink:href="#DejaVuSans-48"/>
      </g>
     </g>
    </g>
    <g id="text_5">
     <!-- Fraction -->
     <defs>
      <path d="M 9.8125 72.90625 
L 51.703125 72.90625 
L 51.703125 64.59375 
L 19.671875 64.59375 
L 19.671875 43.109375 
L 48.578125 43.109375 
L 48.578125 34.8125 
L 19.671875 34.8125 
L 19.671875 0 
L 9.8125 0 
z
" id="DejaVuSans-70"/>
      <path d="M 41.109375 46.296875 
Q 39.59375 47.171875 37.8125 47.578125 
Q 36.03125 48 33.890625 48 
Q 26.265625 48 22.1875 43.046875 
Q 18.109375 38.09375 18.109375 28.8125 
L 18.109375 0 
L 9.078125 0 
L 9.078125 54.6875 
L 18.109375 54.6875 
L 18.109375 46.1875 
Q 20.953125 51.171875 25.484375 53.578125 
Q 30.03125 56 36.53125 56 
Q 37.453125 56 38.578125 55.875 
Q 39.703125 55.765625 41.0625 55.515625 
z
" id="DejaVuSans-114"/>
      <path d="M 34.28125 27.484375 
Q 23.390625 27.484375 19.1875 25 
Q 14.984375 22.515625 14.984375 16.5 
Q 14.984375 11.71875 18.140625 8.90625 
Q 21.296875 6.109375 26.703125 6.109375 
Q 34.1875 6.109375 38.703125 11.40625 
Q 43.21875 16.703125 43.21875 25.484375 
L 43.21875 27.484375 
z
M 52.203125 31.203125 
L 52.203125 0 
L 43.21875 0 
L 43.21875 8.296875 
Q 40.140625 3.328125 35.546875 0.953125 
Q 30.953125 -1.421875 24.3125 -1.421875 
Q 15.921875 -1.421875 10.953125 3.296875 
Q 6 8.015625 6 15.921875 
Q 6 25.140625 12.171875 29.828125 
Q 18.359375 34.515625 30.609375 34.515625 
L 43.21875 34.515625 
L 43.21875 35.40625 
Q 43.21875 41.609375 39.140625 45 
Q 35.0625 48.390625 27.6875 48.390625 
Q 23 48.390625 18.546875 47.265625 
Q 14.109375 46.140625 10.015625 43.890625 
L 10.015625 52.203125 
Q 14.9375 54.109375 19.578125 55.046875 
Q 24.21875 56 28.609375 56 
Q 40.484375 56 46.34375 49.84375 
Q 52.203125 43.703125 52.203125 31.203125 
z
" id="DejaVuSans-97"/>
      <path d="M 9.421875 54.6875 
L 18.40625 54.6875 
L 18.40625 0 
L 9.421875 0 
z
M 9.421875 75.984375 
L 18.40625 75.984375 
L 18.40625 64.59375 
L 9.421875 64.59375 
z
" id="DejaVuSans-105"/>
     </defs>
     <g transform="translate(32.38855 262.298925)rotate(-90)scale(0.2592 -0.2592)">
      <use xlink:href="#DejaVuSans-70"/>
      <use x="57.410156" xlink:href="#DejaVuSans-114"/>
      <use x="98.523438" xlink:href="#DejaVuSans-97"/>
      <use x="159.802734" xlink:href="#DejaVuSans-99"/>
      <use x="214.783203" xlink:href="#DejaVuSans-116"/>
      <use x="253.992188" xlink:href="#DejaVuSans-105"/>
      <use x="281.775391" xlink:href="#DejaVuSans-111"/>
      <use x="342.957031" xlink:href="#DejaVuSans-110"/>
     </g>
    </g>
   </g>
   <g id="LineCollection_1">
    <path clip-path="url(#p603030b723)" d="M 97.153846 182.376453 
L 97.153846 133.823167 
" style="fill:none;stroke:#008000;stroke-width:1.5;"/>
    <path clip-path="url(#p603030b723)" d="M 111.461538 131.47236 
L 111.461538 88.781265 
" style="fill:none;stroke:#008000;stroke-width:1.5;"/>
    <path clip-path="url(#p603030b723)" d="M 125.769231 187.96999 
L 125.769231 121.833231 
" style="fill:none;stroke:#008000;stroke-width:1.5;"/>
    <path clip-path="url(#p603030b723)" d="M 140.076923 182.143612 
L 140.076923 130.147097 
" style="fill:none;stroke:#008000;stroke-width:1.5;"/>
    <path clip-path="url(#p603030b723)" d="M 154.384615 191.767286 
L 154.384615 139.245049 
" style="fill:none;stroke:#008000;stroke-width:1.5;"/>
    <path clip-path="url(#p603030b723)" d="M 168.692308 166.750414 
L 168.692308 127.613221 
" style="fill:none;stroke:#008000;stroke-width:1.5;"/>
    <path clip-path="url(#p603030b723)" d="M 183 162.557506 
L 183 130.188649 
" style="fill:none;stroke:#008000;stroke-width:1.5;"/>
    <path clip-path="url(#p603030b723)" d="M 197.307692 142.596489 
L 197.307692 112.750897 
" style="fill:none;stroke:#008000;stroke-width:1.5;"/>
    <path clip-path="url(#p603030b723)" d="M 211.615385 156.101667 
L 211.615385 124.917755 
" style="fill:none;stroke:#008000;stroke-width:1.5;"/>
    <path clip-path="url(#p603030b723)" d="M 225.923077 152.106334 
L 225.923077 126.643397 
" style="fill:none;stroke:#008000;stroke-width:1.5;"/>
    <path clip-path="url(#p603030b723)" d="M 240.230769 130.67949 
L 240.230769 109.392488 
" style="fill:none;stroke:#008000;stroke-width:1.5;"/>
    <path clip-path="url(#p603030b723)" d="M 254.538462 132.106897 
L 254.538462 110.15468 
" style="fill:none;stroke:#008000;stroke-width:1.5;"/>
    <path clip-path="url(#p603030b723)" d="M 268.846154 129.844809 
L 268.846154 109.87612 
" style="fill:none;stroke:#008000;stroke-width:1.5;"/>
    <path clip-path="url(#p603030b723)" d="M 283.153846 123.700955 
L 283.153846 106.502625 
" style="fill:none;stroke:#008000;stroke-width:1.5;"/>
    <path clip-path="url(#p603030b723)" d="M 297.461538 134.477189 
L 297.461538 115.452755 
" style="fill:none;stroke:#008000;stroke-width:1.5;"/>
    <path clip-path="url(#p603030b723)" d="M 311.769231 134.861547 
L 311.769231 116.780596 
" style="fill:none;stroke:#008000;stroke-width:1.5;"/>
    <path clip-path="url(#p603030b723)" d="M 326.076923 142.060569 
L 326.076923 123.398381 
" style="fill:none;stroke:#008000;stroke-width:1.5;"/>
    <path clip-path="url(#p603030b723)" d="M 340.384615 120.589343 
L 340.384615 106.000338 
" style="fill:none;stroke:#008000;stroke-width:1.5;"/>
    <path clip-path="url(#p603030b723)" d="M 354.692308 124.926854 
L 354.692308 109.069531 
" style="fill:none;stroke:#008000;stroke-width:1.5;"/>
    <path clip-path="url(#p603030b723)" d="M 369 139.377002 
L 369 122.293311 
" style="fill:none;stroke:#008000;stroke-width:1.5;"/>
    <path clip-path="url(#p603030b723)" d="M 383.307692 117.632845 
L 383.307692 104.752914 
" style="fill:none;stroke:#008000;stroke-width:1.5;"/>
    <path clip-path="url(#p603030b723)" d="M 397.615385 126.061909 
L 397.615385 111.901151 
" style="fill:none;stroke:#008000;stroke-width:1.5;"/>
    <path clip-path="url(#p603030b723)" d="M 411.923077 115.652238 
L 411.923077 104.312518 
" style="fill:none;stroke:#008000;stroke-width:1.5;"/>
    <path clip-path="url(#p603030b723)" d="M 426.230769 120.71945 
L 426.230769 108.431731 
" style="fill:none;stroke:#008000;stroke-width:1.5;"/>
    <path clip-path="url(#p603030b723)" d="M 440.538462 102.631499 
L 440.538462 94.983184 
" style="fill:none;stroke:#008000;stroke-width:1.5;"/>
    <path clip-path="url(#p603030b723)" d="M 454.846154 119.984329 
L 454.846154 108.740204 
" style="fill:none;stroke:#008000;stroke-width:1.5;"/>
    <path clip-path="url(#p603030b723)" d="M 469.153846 114.418998 
L 469.153846 105.035077 
" style="fill:none;stroke:#008000;stroke-width:1.5;"/>
    <path clip-path="url(#p603030b723)" d="M 483.461538 108.342984 
L 483.461538 100.11728 
" style="fill:none;stroke:#008000;stroke-width:1.5;"/>
    <path clip-path="url(#p603030b723)" d="M 497.769231 105.507744 
L 497.769231 98.385859 
" style="fill:none;stroke:#008000;stroke-width:1.5;"/>
    <path clip-path="url(#p603030b723)" d="M 512.076923 108.122025 
L 512.076923 100.191655 
" style="fill:none;stroke:#008000;stroke-width:1.5;"/>
    <path clip-path="url(#p603030b723)" d="M 526.384615 104.763455 
L 526.384615 98.419778 
" style="fill:none;stroke:#008000;stroke-width:1.5;"/>
    <path clip-path="url(#p603030b723)" d="M 540.692308 108.483954 
L 540.692308 101.777555 
" style="fill:none;stroke:#008000;stroke-width:1.5;"/>
    <path clip-path="url(#p603030b723)" d="M 555 110.3636 
L 555 103.968532 
" style="fill:none;stroke:#008000;stroke-width:1.5;"/>
    <path clip-path="url(#p603030b723)" d="M 569.307692 103.588914 
L 569.307692 98.667851 
" style="fill:none;stroke:#008000;stroke-width:1.5;"/>
    <path clip-path="url(#p603030b723)" d="M 583.615385 103.798526 
L 583.615385 99.375351 
" style="fill:none;stroke:#008000;stroke-width:1.5;"/>
    <path clip-path="url(#p603030b723)" d="M 597.923077 102.974827 
L 597.923077 98.912729 
" style="fill:none;stroke:#008000;stroke-width:1.5;"/>
    <path clip-path="url(#p603030b723)" d="M 612.230769 100.31917 
L 612.230769 97.290637 
" style="fill:none;stroke:#008000;stroke-width:1.5;"/>
    <path clip-path="url(#p603030b723)" d="M 626.538462 97.962816 
L 626.538462 95.680394 
" style="fill:none;stroke:#008000;stroke-width:1.5;"/>
    <path clip-path="url(#p603030b723)" d="M 640.846154 95.109216 
L 640.846154 93.200281 
" style="fill:none;stroke:#008000;stroke-width:1.5;"/>
   </g>
   <g id="LineCollection_2">
    <path clip-path="url(#p603030b723)" d="M 97.153846 188.41937 
L 97.153846 143.771249 
" style="fill:none;stroke:#ff0000;stroke-width:1.5;"/>
    <path clip-path="url(#p603030b723)" d="M 111.461538 219.012582 
L 111.461538 175.365256 
" style="fill:none;stroke:#ff0000;stroke-width:1.5;"/>
    <path clip-path="url(#p603030b723)" d="M 125.769231 202.12306 
L 125.769231 137.530025 
" style="fill:none;stroke:#ff0000;stroke-width:1.5;"/>
    <path clip-path="url(#p603030b723)" d="M 140.076923 170.14872 
L 140.076923 121.217819 
" style="fill:none;stroke:#ff0000;stroke-width:1.5;"/>
    <path clip-path="url(#p603030b723)" d="M 154.384615 142.413203 
L 154.384615 98.735327 
" style="fill:none;stroke:#ff0000;stroke-width:1.5;"/>
    <path clip-path="url(#p603030b723)" d="M 168.692308 142.073724 
L 168.692308 109.177838 
" style="fill:none;stroke:#ff0000;stroke-width:1.5;"/>
    <path clip-path="url(#p603030b723)" d="M 183 102.610973 
L 183 87.792787 
" style="fill:none;stroke:#ff0000;stroke-width:1.5;"/>
    <path clip-path="url(#p603030b723)" d="M 197.307692 87.739414 
L 197.307692 87.739414 
" style="fill:none;stroke:#ff0000;stroke-width:1.5;"/>
    <path clip-path="url(#p603030b723)" d="M 211.615385 102.168095 
L 211.615385 87.796697 
" style="fill:none;stroke:#ff0000;stroke-width:1.5;"/>
    <path clip-path="url(#p603030b723)" d="M 225.923077 104.017014 
L 225.923077 90.776432 
" style="fill:none;stroke:#ff0000;stroke-width:1.5;"/>
    <path clip-path="url(#p603030b723)" d="M 240.230769 96.813295 
L 240.230769 87.786325 
" style="fill:none;stroke:#ff0000;stroke-width:1.5;"/>
    <path clip-path="url(#p603030b723)" d="M 254.538462 87.739414 
L 254.538462 87.739414 
" style="fill:none;stroke:#ff0000;stroke-width:1.5;"/>
    <path clip-path="url(#p603030b723)" d="M 268.846154 125.475452 
L 268.846154 107.947231 
" style="fill:none;stroke:#ff0000;stroke-width:1.5;"/>
    <path clip-path="url(#p603030b723)" d="M 283.153846 113.719093 
L 283.153846 99.646102 
" style="fill:none;stroke:#ff0000;stroke-width:1.5;"/>
    <path clip-path="url(#p603030b723)" d="M 297.461538 87.739414 
L 297.461538 87.739414 
" style="fill:none;stroke:#ff0000;stroke-width:1.5;"/>
    <path clip-path="url(#p603030b723)" d="M 311.769231 87.739414 
L 311.769231 87.739414 
" style="fill:none;stroke:#ff0000;stroke-width:1.5;"/>
    <path clip-path="url(#p603030b723)" d="M 326.076923 93.441207 
L 326.076923 87.764629 
" style="fill:none;stroke:#ff0000;stroke-width:1.5;"/>
    <path clip-path="url(#p603030b723)" d="M 340.384615 102.41872 
L 340.384615 92.960018 
" style="fill:none;stroke:#ff0000;stroke-width:1.5;"/>
    <path clip-path="url(#p603030b723)" d="M 354.692308 100.251168 
L 354.692308 91.288185 
" style="fill:none;stroke:#ff0000;stroke-width:1.5;"/>
    <path clip-path="url(#p603030b723)" d="M 369 101.870581 
L 369 92.735344 
" style="fill:none;stroke:#ff0000;stroke-width:1.5;"/>
    <path clip-path="url(#p603030b723)" d="M 383.307692 104.772185 
L 383.307692 95.332781 
" style="fill:none;stroke:#ff0000;stroke-width:1.5;"/>
    <path clip-path="url(#p603030b723)" d="M 397.615385 94.754189 
L 397.615385 89.002333 
" style="fill:none;stroke:#ff0000;stroke-width:1.5;"/>
    <path clip-path="url(#p603030b723)" d="M 411.923077 99.78978 
L 411.923077 92.556265 
" style="fill:none;stroke:#ff0000;stroke-width:1.5;"/>
    <path clip-path="url(#p603030b723)" d="M 426.230769 107.33983 
L 426.230769 98.089707 
" style="fill:none;stroke:#ff0000;stroke-width:1.5;"/>
    <path clip-path="url(#p603030b723)" d="M 440.538462 96.156817 
L 440.538462 90.644373 
" style="fill:none;stroke:#ff0000;stroke-width:1.5;"/>
    <path clip-path="url(#p603030b723)" d="M 454.846154 104.448328 
L 454.846154 96.505816 
" style="fill:none;stroke:#ff0000;stroke-width:1.5;"/>
    <path clip-path="url(#p603030b723)" d="M 469.153846 108.598151 
L 469.153846 100.615114 
" style="fill:none;stroke:#ff0000;stroke-width:1.5;"/>
    <path clip-path="url(#p603030b723)" d="M 483.461538 102.355341 
L 483.461538 95.613111 
" style="fill:none;stroke:#ff0000;stroke-width:1.5;"/>
    <path clip-path="url(#p603030b723)" d="M 497.769231 94.82349 
L 497.769231 90.505793 
" style="fill:none;stroke:#ff0000;stroke-width:1.5;"/>
    <path clip-path="url(#p603030b723)" d="M 512.076923 108.997265 
L 512.076923 101.223833 
" style="fill:none;stroke:#ff0000;stroke-width:1.5;"/>
    <path clip-path="url(#p603030b723)" d="M 526.384615 102.24057 
L 526.384615 96.543752 
" style="fill:none;stroke:#ff0000;stroke-width:1.5;"/>
    <path clip-path="url(#p603030b723)" d="M 540.692308 96.423842 
L 540.692308 92.169497 
" style="fill:none;stroke:#ff0000;stroke-width:1.5;"/>
    <path clip-path="url(#p603030b723)" d="M 555 100.820769 
L 555 96.020492 
" style="fill:none;stroke:#ff0000;stroke-width:1.5;"/>
    <path clip-path="url(#p603030b723)" d="M 569.307692 104.470958 
L 569.307692 99.587528 
" style="fill:none;stroke:#ff0000;stroke-width:1.5;"/>
    <path clip-path="url(#p603030b723)" d="M 583.615385 98.298975 
L 583.615385 94.769952 
" style="fill:none;stroke:#ff0000;stroke-width:1.5;"/>
    <path clip-path="url(#p603030b723)" d="M 597.923077 98.140776 
L 597.923077 94.83203 
" style="fill:none;stroke:#ff0000;stroke-width:1.5;"/>
    <path clip-path="url(#p603030b723)" d="M 612.230769 98.957671 
L 612.230769 96.152268 
" style="fill:none;stroke:#ff0000;stroke-width:1.5;"/>
    <path clip-path="url(#p603030b723)" d="M 626.538462 97.028839 
L 626.538462 94.887338 
" style="fill:none;stroke:#ff0000;stroke-width:1.5;"/>
    <path clip-path="url(#p603030b723)" d="M 640.846154 95.250685 
L 640.846154 93.342654 
" style="fill:none;stroke:#ff0000;stroke-width:1.5;"/>
   </g>
   <g id="LineCollection_3">
    <path clip-path="url(#p603030b723)" d="M 97.153846 237.051874 
L 97.153846 191.084739 
" style="fill:none;stroke:#0000ff;stroke-width:1.5;"/>
    <path clip-path="url(#p603030b723)" d="M 111.461538 232.740011 
L 111.461538 186.512714 
" style="fill:none;stroke:#0000ff;stroke-width:1.5;"/>
    <path clip-path="url(#p603030b723)" d="M 125.769231 246.814873 
L 125.769231 182.387807 
" style="fill:none;stroke:#0000ff;stroke-width:1.5;"/>
    <path clip-path="url(#p603030b723)" d="M 140.076923 224.591926 
L 140.076923 171.395463 
" style="fill:none;stroke:#0000ff;stroke-width:1.5;"/>
    <path clip-path="url(#p603030b723)" d="M 154.384615 215.198526 
L 154.384615 160.745711 
" style="fill:none;stroke:#0000ff;stroke-width:1.5;"/>
    <path clip-path="url(#p603030b723)" d="M 168.692308 196.656338 
L 168.692308 155.190061 
" style="fill:none;stroke:#0000ff;stroke-width:1.5;"/>
    <path clip-path="url(#p603030b723)" d="M 183 168.737125 
L 183 135.380407 
" style="fill:none;stroke:#0000ff;stroke-width:1.5;"/>
    <path clip-path="url(#p603030b723)" d="M 197.307692 142.596489 
L 197.307692 112.750897 
" style="fill:none;stroke:#0000ff;stroke-width:1.5;"/>
    <path clip-path="url(#p603030b723)" d="M 211.615385 162.352874 
L 211.615385 130.048377 
" style="fill:none;stroke:#0000ff;stroke-width:1.5;"/>
    <path clip-path="url(#p603030b723)" d="M 225.923077 160.311471 
L 225.923077 133.70304 
" style="fill:none;stroke:#0000ff;stroke-width:1.5;"/>
    <path clip-path="url(#p603030b723)" d="M 240.230769 135.156518 
L 240.230769 112.840083 
" style="fill:none;stroke:#0000ff;stroke-width:1.5;"/>
    <path clip-path="url(#p603030b723)" d="M 254.538462 132.106897 
L 254.538462 110.15468 
" style="fill:none;stroke:#0000ff;stroke-width:1.5;"/>
    <path clip-path="url(#p603030b723)" d="M 268.846154 156.702059 
L 268.846154 133.404831 
" style="fill:none;stroke:#0000ff;stroke-width:1.5;"/>
    <path clip-path="url(#p603030b723)" d="M 283.153846 142.046003 
L 283.153846 121.834348 
" style="fill:none;stroke:#0000ff;stroke-width:1.5;"/>
    <path clip-path="url(#p603030b723)" d="M 297.461538 134.477189 
L 297.461538 115.452755 
" style="fill:none;stroke:#0000ff;stroke-width:1.5;"/>
    <path clip-path="url(#p603030b723)" d="M 311.769231 134.861547 
L 311.769231 116.780596 
" style="fill:none;stroke:#0000ff;stroke-width:1.5;"/>
    <path clip-path="url(#p603030b723)" d="M 326.076923 144.579702 
L 326.076923 125.559976 
" style="fill:none;stroke:#0000ff;stroke-width:1.5;"/>
    <path clip-path="url(#p603030b723)" d="M 340.384615 130.395304 
L 340.384615 114.029203 
" style="fill:none;stroke:#0000ff;stroke-width:1.5;"/>
    <path clip-path="url(#p603030b723)" d="M 354.692308 132.701392 
L 354.692308 115.447337 
" style="fill:none;stroke:#0000ff;stroke-width:1.5;"/>
    <path clip-path="url(#p603030b723)" d="M 369 147.758693 
L 369 129.691475 
" style="fill:none;stroke:#0000ff;stroke-width:1.5;"/>
    <path clip-path="url(#p603030b723)" d="M 383.307692 129.794119 
L 383.307692 114.872431 
" style="fill:none;stroke:#0000ff;stroke-width:1.5;"/>
    <path clip-path="url(#p603030b723)" d="M 397.615385 129.995725 
L 397.615385 115.194873 
" style="fill:none;stroke:#0000ff;stroke-width:1.5;"/>
    <path clip-path="url(#p603030b723)" d="M 411.923077 124.042339 
L 411.923077 111.266144 
" style="fill:none;stroke:#0000ff;stroke-width:1.5;"/>
    <path clip-path="url(#p603030b723)" d="M 426.230769 135.009769 
L 426.230769 120.828262 
" style="fill:none;stroke:#0000ff;stroke-width:1.5;"/>
    <path clip-path="url(#p603030b723)" d="M 440.538462 108.784512 
L 440.538462 99.643663 
" style="fill:none;stroke:#0000ff;stroke-width:1.5;"/>
    <path clip-path="url(#p603030b723)" d="M 454.846154 132.12348 
L 454.846154 119.32228 
" style="fill:none;stroke:#0000ff;stroke-width:1.5;"/>
    <path clip-path="url(#p603030b723)" d="M 469.153846 130.772995 
L 469.153846 119.403513 
" style="fill:none;stroke:#0000ff;stroke-width:1.5;"/>
    <path clip-path="url(#p603030b723)" d="M 483.461538 119.751791 
L 483.461538 109.692095 
" style="fill:none;stroke:#0000ff;stroke-width:1.5;"/>
    <path clip-path="url(#p603030b723)" d="M 497.769231 110.627256 
L 497.769231 102.548507 
" style="fill:none;stroke:#0000ff;stroke-width:1.5;"/>
    <path clip-path="url(#p603030b723)" d="M 512.076923 125.541193 
L 512.076923 115.198605 
" style="fill:none;stroke:#0000ff;stroke-width:1.5;"/>
    <path clip-path="url(#p603030b723)" d="M 526.384615 116.633316 
L 526.384615 108.544478 
" style="fill:none;stroke:#0000ff;stroke-width:1.5;"/>
    <path clip-path="url(#p603030b723)" d="M 540.692308 115.040875 
L 540.692308 107.40898 
" style="fill:none;stroke:#0000ff;stroke-width:1.5;"/>
    <path clip-path="url(#p603030b723)" d="M 555 120.778827 
L 555 113.230536 
" style="fill:none;stroke:#0000ff;stroke-width:1.5;"/>
    <path clip-path="url(#p603030b723)" d="M 569.307692 117.912877 
L 569.307692 111.369701 
" style="fill:none;stroke:#0000ff;stroke-width:1.5;"/>
    <path clip-path="url(#p603030b723)" d="M 583.615385 112.593203 
L 583.615385 107.181664 
" style="fill:none;stroke:#0000ff;stroke-width:1.5;"/>
    <path clip-path="url(#p603030b723)" d="M 597.923077 111.729474 
L 597.923077 106.714045 
" style="fill:none;stroke:#0000ff;stroke-width:1.5;"/>
    <path clip-path="url(#p603030b723)" d="M 612.230769 110.15642 
L 612.230769 106.202395 
" style="fill:none;stroke:#0000ff;stroke-width:1.5;"/>
    <path clip-path="url(#p603030b723)" d="M 626.538462 106.247266 
L 626.538462 103.22708 
" style="fill:none;stroke:#0000ff;stroke-width:1.5;"/>
    <path clip-path="url(#p603030b723)" d="M 640.846154 101.855139 
L 640.846154 99.227226 
" style="fill:none;stroke:#0000ff;stroke-width:1.5;"/>
   </g>
   <g id="line2d_10">
    <path clip-path="url(#p603030b723)" d="M 90 158.09981 
L 104.307692 158.09981 
L 104.307692 110.126813 
L 118.615385 110.126813 
L 118.615385 154.90161 
L 132.923077 154.90161 
L 132.923077 156.145354 
L 147.230769 156.145354 
L 147.230769 165.506167 
L 161.538462 165.506167 
L 161.538462 147.181817 
L 175.846154 147.181817 
L 175.846154 146.373077 
L 190.153846 146.373077 
L 190.153846 127.673693 
L 204.461538 127.673693 
L 204.461538 140.509711 
L 218.769231 140.509711 
L 218.769231 139.374866 
L 233.076923 139.374866 
L 233.076923 120.035989 
L 247.384615 120.035989 
L 247.384615 121.130788 
L 261.692308 121.130788 
L 261.692308 119.860464 
L 276 119.860464 
L 276 115.10179 
L 290.307692 115.10179 
L 290.307692 124.964972 
L 304.615385 124.964972 
L 304.615385 125.821072 
L 318.923077 125.821072 
L 318.923077 132.729475 
L 333.230769 132.729475 
L 333.230769 113.294841 
L 347.538462 113.294841 
L 347.538462 116.998192 
L 361.846154 116.998192 
L 361.846154 130.835156 
L 376.153846 130.835156 
L 376.153846 111.192879 
L 390.461538 111.192879 
L 390.461538 118.98153 
L 404.769231 118.98153 
L 404.769231 109.982378 
L 419.076923 109.982378 
L 419.076923 114.575591 
L 433.384615 114.575591 
L 433.384615 98.807341 
L 447.692308 98.807341 
L 447.692308 114.362266 
L 462 114.362266 
L 462 109.727038 
L 476.307692 109.727038 
L 476.307692 104.230132 
L 490.615385 104.230132 
L 490.615385 101.946802 
L 504.923077 101.946802 
L 504.923077 104.15684 
L 519.230769 104.15684 
L 519.230769 101.591617 
L 533.538462 101.591617 
L 533.538462 105.130755 
L 547.846154 105.130755 
L 547.846154 107.166066 
L 562.153846 107.166066 
L 562.153846 101.128382 
L 576.461538 101.128382 
L 576.461538 101.586939 
L 590.769231 101.586939 
L 590.769231 100.943778 
L 605.076923 100.943778 
L 605.076923 98.804903 
L 619.384615 98.804903 
L 619.384615 96.821605 
L 633.692308 96.821605 
L 633.692308 94.154749 
L 648 94.154749 
" style="fill:none;stroke:#008000;stroke-linecap:square;stroke-width:1.5;"/>
   </g>
   <g id="line2d_11">
    <defs>
     <path d="M 2 0 
L -2 -0 
" id="mc45b9cb7f7" style="stroke:#008000;"/>
    </defs>
    <g clip-path="url(#p603030b723)">
     <use style="fill:#008000;stroke:#008000;" x="97.153846" xlink:href="#mc45b9cb7f7" y="182.376453"/>
     <use style="fill:#008000;stroke:#008000;" x="111.461538" xlink:href="#mc45b9cb7f7" y="131.47236"/>
     <use style="fill:#008000;stroke:#008000;" x="125.769231" xlink:href="#mc45b9cb7f7" y="187.96999"/>
     <use style="fill:#008000;stroke:#008000;" x="140.076923" xlink:href="#mc45b9cb7f7" y="182.143612"/>
     <use style="fill:#008000;stroke:#008000;" x="154.384615" xlink:href="#mc45b9cb7f7" y="191.767286"/>
     <use style="fill:#008000;stroke:#008000;" x="168.692308" xlink:href="#mc45b9cb7f7" y="166.750414"/>
     <use style="fill:#008000;stroke:#008000;" x="183" xlink:href="#mc45b9cb7f7" y="162.557506"/>
     <use style="fill:#008000;stroke:#008000;" x="197.307692" xlink:href="#mc45b9cb7f7" y="142.596489"/>
     <use style="fill:#008000;stroke:#008000;" x="211.615385" xlink:href="#mc45b9cb7f7" y="156.101667"/>
     <use style="fill:#008000;stroke:#008000;" x="225.923077" xlink:href="#mc45b9cb7f7" y="152.106334"/>
     <use style="fill:#008000;stroke:#008000;" x="240.230769" xlink:href="#mc45b9cb7f7" y="130.67949"/>
     <use style="fill:#008000;stroke:#008000;" x="254.538462" xlink:href="#mc45b9cb7f7" y="132.106897"/>
     <use style="fill:#008000;stroke:#008000;" x="268.846154" xlink:href="#mc45b9cb7f7" y="129.844809"/>
     <use style="fill:#008000;stroke:#008000;" x="283.153846" xlink:href="#mc45b9cb7f7" y="123.700955"/>
     <use style="fill:#008000;stroke:#008000;" x="297.461538" xlink:href="#mc45b9cb7f7" y="134.477189"/>
     <use style="fill:#008000;stroke:#008000;" x="311.769231" xlink:href="#mc45b9cb7f7" y="134.861547"/>
     <use style="fill:#008000;stroke:#008000;" x="326.076923" xlink:href="#mc45b9cb7f7" y="142.060569"/>
     <use style="fill:#008000;stroke:#008000;" x="340.384615" xlink:href="#mc45b9cb7f7" y="120.589343"/>
     <use style="fill:#008000;stroke:#008000;" x="354.692308" xlink:href="#mc45b9cb7f7" y="124.926854"/>
     <use style="fill:#008000;stroke:#008000;" x="369" xlink:href="#mc45b9cb7f7" y="139.377002"/>
     <use style="fill:#008000;stroke:#008000;" x="383.307692" xlink:href="#mc45b9cb7f7" y="117.632845"/>
     <use style="fill:#008000;stroke:#008000;" x="397.615385" xlink:href="#mc45b9cb7f7" y="126.061909"/>
     <use style="fill:#008000;stroke:#008000;" x="411.923077" xlink:href="#mc45b9cb7f7" y="115.652238"/>
     <use style="fill:#008000;stroke:#008000;" x="426.230769" xlink:href="#mc45b9cb7f7" y="120.71945"/>
     <use style="fill:#008000;stroke:#008000;" x="440.538462" xlink:href="#mc45b9cb7f7" y="102.631499"/>
     <use style="fill:#008000;stroke:#008000;" x="454.846154" xlink:href="#mc45b9cb7f7" y="119.984329"/>
     <use style="fill:#008000;stroke:#008000;" x="469.153846" xlink:href="#mc45b9cb7f7" y="114.418998"/>
     <use style="fill:#008000;stroke:#008000;" x="483.461538" xlink:href="#mc45b9cb7f7" y="108.342984"/>
     <use style="fill:#008000;stroke:#008000;" x="497.769231" xlink:href="#mc45b9cb7f7" y="105.507744"/>
     <use style="fill:#008000;stroke:#008000;" x="512.076923" xlink:href="#mc45b9cb7f7" y="108.122025"/>
     <use style="fill:#008000;stroke:#008000;" x="526.384615" xlink:href="#mc45b9cb7f7" y="104.763455"/>
     <use style="fill:#008000;stroke:#008000;" x="540.692308" xlink:href="#mc45b9cb7f7" y="108.483954"/>
     <use style="fill:#008000;stroke:#008000;" x="555" xlink:href="#mc45b9cb7f7" y="110.3636"/>
     <use style="fill:#008000;stroke:#008000;" x="569.307692" xlink:href="#mc45b9cb7f7" y="103.588914"/>
     <use style="fill:#008000;stroke:#008000;" x="583.615385" xlink:href="#mc45b9cb7f7" y="103.798526"/>
     <use style="fill:#008000;stroke:#008000;" x="597.923077" xlink:href="#mc45b9cb7f7" y="102.974827"/>
     <use style="fill:#008000;stroke:#008000;" x="612.230769" xlink:href="#mc45b9cb7f7" y="100.31917"/>
     <use style="fill:#008000;stroke:#008000;" x="626.538462" xlink:href="#mc45b9cb7f7" y="97.962816"/>
     <use style="fill:#008000;stroke:#008000;" x="640.846154" xlink:href="#mc45b9cb7f7" y="95.109216"/>
    </g>
   </g>
   <g id="line2d_12">
    <g clip-path="url(#p603030b723)">
     <use style="fill:#008000;stroke:#008000;" x="97.153846" xlink:href="#mc45b9cb7f7" y="133.823167"/>
     <use style="fill:#008000;stroke:#008000;" x="111.461538" xlink:href="#mc45b9cb7f7" y="88.781265"/>
     <use style="fill:#008000;stroke:#008000;" x="125.769231" xlink:href="#mc45b9cb7f7" y="121.833231"/>
     <use style="fill:#008000;stroke:#008000;" x="140.076923" xlink:href="#mc45b9cb7f7" y="130.147097"/>
     <use style="fill:#008000;stroke:#008000;" x="154.384615" xlink:href="#mc45b9cb7f7" y="139.245049"/>
     <use style="fill:#008000;stroke:#008000;" x="168.692308" xlink:href="#mc45b9cb7f7" y="127.613221"/>
     <use style="fill:#008000;stroke:#008000;" x="183" xlink:href="#mc45b9cb7f7" y="130.188649"/>
     <use style="fill:#008000;stroke:#008000;" x="197.307692" xlink:href="#mc45b9cb7f7" y="112.750897"/>
     <use style="fill:#008000;stroke:#008000;" x="211.615385" xlink:href="#mc45b9cb7f7" y="124.917755"/>
     <use style="fill:#008000;stroke:#008000;" x="225.923077" xlink:href="#mc45b9cb7f7" y="126.643397"/>
     <use style="fill:#008000;stroke:#008000;" x="240.230769" xlink:href="#mc45b9cb7f7" y="109.392488"/>
     <use style="fill:#008000;stroke:#008000;" x="254.538462" xlink:href="#mc45b9cb7f7" y="110.15468"/>
     <use style="fill:#008000;stroke:#008000;" x="268.846154" xlink:href="#mc45b9cb7f7" y="109.87612"/>
     <use style="fill:#008000;stroke:#008000;" x="283.153846" xlink:href="#mc45b9cb7f7" y="106.502625"/>
     <use style="fill:#008000;stroke:#008000;" x="297.461538" xlink:href="#mc45b9cb7f7" y="115.452755"/>
     <use style="fill:#008000;stroke:#008000;" x="311.769231" xlink:href="#mc45b9cb7f7" y="116.780596"/>
     <use style="fill:#008000;stroke:#008000;" x="326.076923" xlink:href="#mc45b9cb7f7" y="123.398381"/>
     <use style="fill:#008000;stroke:#008000;" x="340.384615" xlink:href="#mc45b9cb7f7" y="106.000338"/>
     <use style="fill:#008000;stroke:#008000;" x="354.692308" xlink:href="#mc45b9cb7f7" y="109.069531"/>
     <use style="fill:#008000;stroke:#008000;" x="369" xlink:href="#mc45b9cb7f7" y="122.293311"/>
     <use style="fill:#008000;stroke:#008000;" x="383.307692" xlink:href="#mc45b9cb7f7" y="104.752914"/>
     <use style="fill:#008000;stroke:#008000;" x="397.615385" xlink:href="#mc45b9cb7f7" y="111.901151"/>
     <use style="fill:#008000;stroke:#008000;" x="411.923077" xlink:href="#mc45b9cb7f7" y="104.312518"/>
     <use style="fill:#008000;stroke:#008000;" x="426.230769" xlink:href="#mc45b9cb7f7" y="108.431731"/>
     <use style="fill:#008000;stroke:#008000;" x="440.538462" xlink:href="#mc45b9cb7f7" y="94.983184"/>
     <use style="fill:#008000;stroke:#008000;" x="454.846154" xlink:href="#mc45b9cb7f7" y="108.740204"/>
     <use style="fill:#008000;stroke:#008000;" x="469.153846" xlink:href="#mc45b9cb7f7" y="105.035077"/>
     <use style="fill:#008000;stroke:#008000;" x="483.461538" xlink:href="#mc45b9cb7f7" y="100.11728"/>
     <use style="fill:#008000;stroke:#008000;" x="497.769231" xlink:href="#mc45b9cb7f7" y="98.385859"/>
     <use style="fill:#008000;stroke:#008000;" x="512.076923" xlink:href="#mc45b9cb7f7" y="100.191655"/>
     <use style="fill:#008000;stroke:#008000;" x="526.384615" xlink:href="#mc45b9cb7f7" y="98.419778"/>
     <use style="fill:#008000;stroke:#008000;" x="540.692308" xlink:href="#mc45b9cb7f7" y="101.777555"/>
     <use style="fill:#008000;stroke:#008000;" x="555" xlink:href="#mc45b9cb7f7" y="103.968532"/>
     <use style="fill:#008000;stroke:#008000;" x="569.307692" xlink:href="#mc45b9cb7f7" y="98.667851"/>
     <use style="fill:#008000;stroke:#008000;" x="583.615385" xlink:href="#mc45b9cb7f7" y="99.375351"/>
     <use style="fill:#008000;stroke:#008000;" x="597.923077" xlink:href="#mc45b9cb7f7" y="98.912729"/>
     <use style="fill:#008000;stroke:#008000;" x="612.230769" xlink:href="#mc45b9cb7f7" y="97.290637"/>
     <use style="fill:#008000;stroke:#008000;" x="626.538462" xlink:href="#mc45b9cb7f7" y="95.680394"/>
     <use style="fill:#008000;stroke:#008000;" x="640.846154" xlink:href="#mc45b9cb7f7" y="93.200281"/>
    </g>
   </g>
   <g id="line2d_13">
    <path clip-path="url(#p603030b723)" d="M 90 166.095309 
L 104.307692 166.095309 
L 104.307692 197.188919 
L 118.615385 197.188919 
L 118.615385 169.826543 
L 132.923077 169.826543 
L 132.923077 145.683269 
L 147.230769 145.683269 
L 147.230769 120.574265 
L 161.538462 120.574265 
L 161.538462 125.625781 
L 175.846154 125.625781 
L 175.846154 95.20188 
L 190.153846 95.20188 
L 190.153846 87.739414 
L 204.461538 87.739414 
L 204.461538 94.982396 
L 218.769231 94.982396 
L 218.769231 97.396723 
L 233.076923 97.396723 
L 233.076923 92.29981 
L 247.384615 92.29981 
L 247.384615 87.739414 
L 261.692308 87.739414 
L 261.692308 116.711342 
L 276 116.711342 
L 276 106.682597 
L 290.307692 106.682597 
L 290.307692 87.739414 
L 304.615385 87.739414 
L 304.615385 87.739414 
L 318.923077 87.739414 
L 318.923077 90.602918 
L 333.230769 90.602918 
L 333.230769 97.689369 
L 347.538462 97.689369 
L 347.538462 95.769676 
L 361.846154 95.769676 
L 361.846154 97.302963 
L 376.153846 97.302963 
L 376.153846 100.052483 
L 390.461538 100.052483 
L 390.461538 91.878261 
L 404.769231 91.878261 
L 404.769231 96.173023 
L 419.076923 96.173023 
L 419.076923 102.714768 
L 433.384615 102.714768 
L 433.384615 93.400595 
L 447.692308 93.400595 
L 447.692308 100.477072 
L 462 100.477072 
L 462 104.606632 
L 476.307692 104.606632 
L 476.307692 98.984226 
L 490.615385 98.984226 
L 490.615385 92.664642 
L 504.923077 92.664642 
L 504.923077 105.110549 
L 519.230769 105.110549 
L 519.230769 99.392161 
L 533.538462 99.392161 
L 533.538462 94.29667 
L 547.846154 94.29667 
L 547.846154 98.420631 
L 562.153846 98.420631 
L 562.153846 102.029243 
L 576.461538 102.029243 
L 576.461538 96.534463 
L 590.769231 96.534463 
L 590.769231 96.486403 
L 605.076923 96.486403 
L 605.076923 97.55497 
L 619.384615 97.55497 
L 619.384615 95.958089 
L 633.692308 95.958089 
L 633.692308 94.29667 
L 648 94.29667 
" style="fill:none;stroke:#ff0000;stroke-linecap:square;stroke-width:1.5;"/>
   </g>
   <g id="line2d_14">
    <defs>
     <path d="M 2 0 
L -2 -0 
" id="mcd1c7b49e0" style="stroke:#ff0000;"/>
    </defs>
    <g clip-path="url(#p603030b723)">
     <use style="fill:#ff0000;stroke:#ff0000;" x="97.153846" xlink:href="#mcd1c7b49e0" y="188.41937"/>
     <use style="fill:#ff0000;stroke:#ff0000;" x="111.461538" xlink:href="#mcd1c7b49e0" y="219.012582"/>
     <use style="fill:#ff0000;stroke:#ff0000;" x="125.769231" xlink:href="#mcd1c7b49e0" y="202.12306"/>
     <use style="fill:#ff0000;stroke:#ff0000;" x="140.076923" xlink:href="#mcd1c7b49e0" y="170.14872"/>
     <use style="fill:#ff0000;stroke:#ff0000;" x="154.384615" xlink:href="#mcd1c7b49e0" y="142.413203"/>
     <use style="fill:#ff0000;stroke:#ff0000;" x="168.692308" xlink:href="#mcd1c7b49e0" y="142.073724"/>
     <use style="fill:#ff0000;stroke:#ff0000;" x="183" xlink:href="#mcd1c7b49e0" y="102.610973"/>
     <use style="fill:#ff0000;stroke:#ff0000;" x="197.307692" xlink:href="#mcd1c7b49e0" y="87.739414"/>
     <use style="fill:#ff0000;stroke:#ff0000;" x="211.615385" xlink:href="#mcd1c7b49e0" y="102.168095"/>
     <use style="fill:#ff0000;stroke:#ff0000;" x="225.923077" xlink:href="#mcd1c7b49e0" y="104.017014"/>
     <use style="fill:#ff0000;stroke:#ff0000;" x="240.230769" xlink:href="#mcd1c7b49e0" y="96.813295"/>
     <use style="fill:#ff0000;stroke:#ff0000;" x="254.538462" xlink:href="#mcd1c7b49e0" y="87.739414"/>
     <use style="fill:#ff0000;stroke:#ff0000;" x="268.846154" xlink:href="#mcd1c7b49e0" y="125.475452"/>
     <use style="fill:#ff0000;stroke:#ff0000;" x="283.153846" xlink:href="#mcd1c7b49e0" y="113.719093"/>
     <use style="fill:#ff0000;stroke:#ff0000;" x="297.461538" xlink:href="#mcd1c7b49e0" y="87.739414"/>
     <use style="fill:#ff0000;stroke:#ff0000;" x="311.769231" xlink:href="#mcd1c7b49e0" y="87.739414"/>
     <use style="fill:#ff0000;stroke:#ff0000;" x="326.076923" xlink:href="#mcd1c7b49e0" y="93.441207"/>
     <use style="fill:#ff0000;stroke:#ff0000;" x="340.384615" xlink:href="#mcd1c7b49e0" y="102.41872"/>
     <use style="fill:#ff0000;stroke:#ff0000;" x="354.692308" xlink:href="#mcd1c7b49e0" y="100.251168"/>
     <use style="fill:#ff0000;stroke:#ff0000;" x="369" xlink:href="#mcd1c7b49e0" y="101.870581"/>
     <use style="fill:#ff0000;stroke:#ff0000;" x="383.307692" xlink:href="#mcd1c7b49e0" y="104.772185"/>
     <use style="fill:#ff0000;stroke:#ff0000;" x="397.615385" xlink:href="#mcd1c7b49e0" y="94.754189"/>
     <use style="fill:#ff0000;stroke:#ff0000;" x="411.923077" xlink:href="#mcd1c7b49e0" y="99.78978"/>
     <use style="fill:#ff0000;stroke:#ff0000;" x="426.230769" xlink:href="#mcd1c7b49e0" y="107.33983"/>
     <use style="fill:#ff0000;stroke:#ff0000;" x="440.538462" xlink:href="#mcd1c7b49e0" y="96.156817"/>
     <use style="fill:#ff0000;stroke:#ff0000;" x="454.846154" xlink:href="#mcd1c7b49e0" y="104.448328"/>
     <use style="fill:#ff0000;stroke:#ff0000;" x="469.153846" xlink:href="#mcd1c7b49e0" y="108.598151"/>
     <use style="fill:#ff0000;stroke:#ff0000;" x="483.461538" xlink:href="#mcd1c7b49e0" y="102.355341"/>
     <use style="fill:#ff0000;stroke:#ff0000;" x="497.769231" xlink:href="#mcd1c7b49e0" y="94.82349"/>
     <use style="fill:#ff0000;stroke:#ff0000;" x="512.076923" xlink:href="#mcd1c7b49e0" y="108.997265"/>
     <use style="fill:#ff0000;stroke:#ff0000;" x="526.384615" xlink:href="#mcd1c7b49e0" y="102.24057"/>
     <use style="fill:#ff0000;stroke:#ff0000;" x="540.692308" xlink:href="#mcd1c7b49e0" y="96.423842"/>
     <use style="fill:#ff0000;stroke:#ff0000;" x="555" xlink:href="#mcd1c7b49e0" y="100.820769"/>
     <use style="fill:#ff0000;stroke:#ff0000;" x="569.307692" xlink:href="#mcd1c7b49e0" y="104.470958"/>
     <use style="fill:#ff0000;stroke:#ff0000;" x="583.615385" xlink:href="#mcd1c7b49e0" y="98.298975"/>
     <use style="fill:#ff0000;stroke:#ff0000;" x="597.923077" xlink:href="#mcd1c7b49e0" y="98.140776"/>
     <use style="fill:#ff0000;stroke:#ff0000;" x="612.230769" xlink:href="#mcd1c7b49e0" y="98.957671"/>
     <use style="fill:#ff0000;stroke:#ff0000;" x="626.538462" xlink:href="#mcd1c7b49e0" y="97.028839"/>
     <use style="fill:#ff0000;stroke:#ff0000;" x="640.846154" xlink:href="#mcd1c7b49e0" y="95.250685"/>
    </g>
   </g>
   <g id="line2d_15">
    <g clip-path="url(#p603030b723)">
     <use style="fill:#ff0000;stroke:#ff0000;" x="97.153846" xlink:href="#mcd1c7b49e0" y="143.771249"/>
     <use style="fill:#ff0000;stroke:#ff0000;" x="111.461538" xlink:href="#mcd1c7b49e0" y="175.365256"/>
     <use style="fill:#ff0000;stroke:#ff0000;" x="125.769231" xlink:href="#mcd1c7b49e0" y="137.530025"/>
     <use style="fill:#ff0000;stroke:#ff0000;" x="140.076923" xlink:href="#mcd1c7b49e0" y="121.217819"/>
     <use style="fill:#ff0000;stroke:#ff0000;" x="154.384615" xlink:href="#mcd1c7b49e0" y="98.735327"/>
     <use style="fill:#ff0000;stroke:#ff0000;" x="168.692308" xlink:href="#mcd1c7b49e0" y="109.177838"/>
     <use style="fill:#ff0000;stroke:#ff0000;" x="183" xlink:href="#mcd1c7b49e0" y="87.792787"/>
     <use style="fill:#ff0000;stroke:#ff0000;" x="197.307692" xlink:href="#mcd1c7b49e0" y="87.739414"/>
     <use style="fill:#ff0000;stroke:#ff0000;" x="211.615385" xlink:href="#mcd1c7b49e0" y="87.796697"/>
     <use style="fill:#ff0000;stroke:#ff0000;" x="225.923077" xlink:href="#mcd1c7b49e0" y="90.776432"/>
     <use style="fill:#ff0000;stroke:#ff0000;" x="240.230769" xlink:href="#mcd1c7b49e0" y="87.786325"/>
     <use style="fill:#ff0000;stroke:#ff0000;" x="254.538462" xlink:href="#mcd1c7b49e0" y="87.739414"/>
     <use style="fill:#ff0000;stroke:#ff0000;" x="268.846154" xlink:href="#mcd1c7b49e0" y="107.947231"/>
     <use style="fill:#ff0000;stroke:#ff0000;" x="283.153846" xlink:href="#mcd1c7b49e0" y="99.646102"/>
     <use style="fill:#ff0000;stroke:#ff0000;" x="297.461538" xlink:href="#mcd1c7b49e0" y="87.739414"/>
     <use style="fill:#ff0000;stroke:#ff0000;" x="311.769231" xlink:href="#mcd1c7b49e0" y="87.739414"/>
     <use style="fill:#ff0000;stroke:#ff0000;" x="326.076923" xlink:href="#mcd1c7b49e0" y="87.764629"/>
     <use style="fill:#ff0000;stroke:#ff0000;" x="340.384615" xlink:href="#mcd1c7b49e0" y="92.960018"/>
     <use style="fill:#ff0000;stroke:#ff0000;" x="354.692308" xlink:href="#mcd1c7b49e0" y="91.288185"/>
     <use style="fill:#ff0000;stroke:#ff0000;" x="369" xlink:href="#mcd1c7b49e0" y="92.735344"/>
     <use style="fill:#ff0000;stroke:#ff0000;" x="383.307692" xlink:href="#mcd1c7b49e0" y="95.332781"/>
     <use style="fill:#ff0000;stroke:#ff0000;" x="397.615385" xlink:href="#mcd1c7b49e0" y="89.002333"/>
     <use style="fill:#ff0000;stroke:#ff0000;" x="411.923077" xlink:href="#mcd1c7b49e0" y="92.556265"/>
     <use style="fill:#ff0000;stroke:#ff0000;" x="426.230769" xlink:href="#mcd1c7b49e0" y="98.089707"/>
     <use style="fill:#ff0000;stroke:#ff0000;" x="440.538462" xlink:href="#mcd1c7b49e0" y="90.644373"/>
     <use style="fill:#ff0000;stroke:#ff0000;" x="454.846154" xlink:href="#mcd1c7b49e0" y="96.505816"/>
     <use style="fill:#ff0000;stroke:#ff0000;" x="469.153846" xlink:href="#mcd1c7b49e0" y="100.615114"/>
     <use style="fill:#ff0000;stroke:#ff0000;" x="483.461538" xlink:href="#mcd1c7b49e0" y="95.613111"/>
     <use style="fill:#ff0000;stroke:#ff0000;" x="497.769231" xlink:href="#mcd1c7b49e0" y="90.505793"/>
     <use style="fill:#ff0000;stroke:#ff0000;" x="512.076923" xlink:href="#mcd1c7b49e0" y="101.223833"/>
     <use style="fill:#ff0000;stroke:#ff0000;" x="526.384615" xlink:href="#mcd1c7b49e0" y="96.543752"/>
     <use style="fill:#ff0000;stroke:#ff0000;" x="540.692308" xlink:href="#mcd1c7b49e0" y="92.169497"/>
     <use style="fill:#ff0000;stroke:#ff0000;" x="555" xlink:href="#mcd1c7b49e0" y="96.020492"/>
     <use style="fill:#ff0000;stroke:#ff0000;" x="569.307692" xlink:href="#mcd1c7b49e0" y="99.587528"/>
     <use style="fill:#ff0000;stroke:#ff0000;" x="583.615385" xlink:href="#mcd1c7b49e0" y="94.769952"/>
     <use style="fill:#ff0000;stroke:#ff0000;" x="597.923077" xlink:href="#mcd1c7b49e0" y="94.83203"/>
     <use style="fill:#ff0000;stroke:#ff0000;" x="612.230769" xlink:href="#mcd1c7b49e0" y="96.152268"/>
     <use style="fill:#ff0000;stroke:#ff0000;" x="626.538462" xlink:href="#mcd1c7b49e0" y="94.887338"/>
     <use style="fill:#ff0000;stroke:#ff0000;" x="640.846154" xlink:href="#mcd1c7b49e0" y="93.342654"/>
    </g>
   </g>
   <g id="line2d_16">
    <path clip-path="url(#p603030b723)" d="M 90 214.068307 
L 104.307692 214.068307 
L 104.307692 209.626363 
L 118.615385 209.626363 
L 118.615385 214.60134 
L 132.923077 214.60134 
L 132.923077 197.993695 
L 147.230769 197.993695 
L 147.230769 187.972118 
L 161.538462 187.972118 
L 161.538462 175.923199 
L 175.846154 175.923199 
L 175.846154 152.058766 
L 190.153846 152.058766 
L 190.153846 127.673693 
L 204.461538 127.673693 
L 204.461538 146.200625 
L 218.769231 146.200625 
L 218.769231 147.007255 
L 233.076923 147.007255 
L 233.076923 123.9983 
L 247.384615 123.9983 
L 247.384615 121.130788 
L 261.692308 121.130788 
L 261.692308 145.053445 
L 276 145.053445 
L 276 131.940175 
L 290.307692 131.940175 
L 290.307692 124.964972 
L 304.615385 124.964972 
L 304.615385 125.821072 
L 318.923077 125.821072 
L 318.923077 135.069839 
L 333.230769 135.069839 
L 333.230769 122.212253 
L 347.538462 122.212253 
L 347.538462 124.074364 
L 361.846154 124.074364 
L 361.846154 138.725084 
L 376.153846 138.725084 
L 376.153846 122.333275 
L 390.461538 122.333275 
L 390.461538 122.595299 
L 404.769231 122.595299 
L 404.769231 117.654242 
L 419.076923 117.654242 
L 419.076923 127.919015 
L 433.384615 127.919015 
L 433.384615 104.214088 
L 447.692308 104.214088 
L 447.692308 125.72288 
L 462 125.72288 
L 462 125.088254 
L 476.307692 125.088254 
L 476.307692 114.721943 
L 490.615385 114.721943 
L 490.615385 106.587881 
L 504.923077 106.587881 
L 504.923077 120.369899 
L 519.230769 120.369899 
L 519.230769 112.588897 
L 533.538462 112.588897 
L 533.538462 111.224927 
L 547.846154 111.224927 
L 547.846154 117.004681 
L 562.153846 117.004681 
L 562.153846 114.641289 
L 576.461538 114.641289 
L 576.461538 109.887434 
L 590.769231 109.887434 
L 590.769231 109.221759 
L 605.076923 109.221759 
L 605.076923 108.179408 
L 619.384615 108.179408 
L 619.384615 104.737173 
L 633.692308 104.737173 
L 633.692308 100.541182 
L 648 100.541182 
" style="fill:none;stroke:#0000ff;stroke-linecap:square;stroke-width:1.5;"/>
   </g>
   <g id="line2d_17">
    <defs>
     <path d="M 2 0 
L -2 -0 
" id="m0737be443c" style="stroke:#0000ff;"/>
    </defs>
    <g clip-path="url(#p603030b723)">
     <use style="fill:#0000ff;stroke:#0000ff;" x="97.153846" xlink:href="#m0737be443c" y="237.051874"/>
     <use style="fill:#0000ff;stroke:#0000ff;" x="111.461538" xlink:href="#m0737be443c" y="232.740011"/>
     <use style="fill:#0000ff;stroke:#0000ff;" x="125.769231" xlink:href="#m0737be443c" y="246.814873"/>
     <use style="fill:#0000ff;stroke:#0000ff;" x="140.076923" xlink:href="#m0737be443c" y="224.591926"/>
     <use style="fill:#0000ff;stroke:#0000ff;" x="154.384615" xlink:href="#m0737be443c" y="215.198526"/>
     <use style="fill:#0000ff;stroke:#0000ff;" x="168.692308" xlink:href="#m0737be443c" y="196.656338"/>
     <use style="fill:#0000ff;stroke:#0000ff;" x="183" xlink:href="#m0737be443c" y="168.737125"/>
     <use style="fill:#0000ff;stroke:#0000ff;" x="197.307692" xlink:href="#m0737be443c" y="142.596489"/>
     <use style="fill:#0000ff;stroke:#0000ff;" x="211.615385" xlink:href="#m0737be443c" y="162.352874"/>
     <use style="fill:#0000ff;stroke:#0000ff;" x="225.923077" xlink:href="#m0737be443c" y="160.311471"/>
     <use style="fill:#0000ff;stroke:#0000ff;" x="240.230769" xlink:href="#m0737be443c" y="135.156518"/>
     <use style="fill:#0000ff;stroke:#0000ff;" x="254.538462" xlink:href="#m0737be443c" y="132.106897"/>
     <use style="fill:#0000ff;stroke:#0000ff;" x="268.846154" xlink:href="#m0737be443c" y="156.702059"/>
     <use style="fill:#0000ff;stroke:#0000ff;" x="283.153846" xlink:href="#m0737be443c" y="142.046003"/>
     <use style="fill:#0000ff;stroke:#0000ff;" x="297.461538" xlink:href="#m0737be443c" y="134.477189"/>
     <use style="fill:#0000ff;stroke:#0000ff;" x="311.769231" xlink:href="#m0737be443c" y="134.861547"/>
     <use style="fill:#0000ff;stroke:#0000ff;" x="326.076923" xlink:href="#m0737be443c" y="144.579702"/>
     <use style="fill:#0000ff;stroke:#0000ff;" x="340.384615" xlink:href="#m0737be443c" y="130.395304"/>
     <use style="fill:#0000ff;stroke:#0000ff;" x="354.692308" xlink:href="#m0737be443c" y="132.701392"/>
     <use style="fill:#0000ff;stroke:#0000ff;" x="369" xlink:href="#m0737be443c" y="147.758693"/>
     <use style="fill:#0000ff;stroke:#0000ff;" x="383.307692" xlink:href="#m0737be443c" y="129.794119"/>
     <use style="fill:#0000ff;stroke:#0000ff;" x="397.615385" xlink:href="#m0737be443c" y="129.995725"/>
     <use style="fill:#0000ff;stroke:#0000ff;" x="411.923077" xlink:href="#m0737be443c" y="124.042339"/>
     <use style="fill:#0000ff;stroke:#0000ff;" x="426.230769" xlink:href="#m0737be443c" y="135.009769"/>
     <use style="fill:#0000ff;stroke:#0000ff;" x="440.538462" xlink:href="#m0737be443c" y="108.784512"/>
     <use style="fill:#0000ff;stroke:#0000ff;" x="454.846154" xlink:href="#m0737be443c" y="132.12348"/>
     <use style="fill:#0000ff;stroke:#0000ff;" x="469.153846" xlink:href="#m0737be443c" y="130.772995"/>
     <use style="fill:#0000ff;stroke:#0000ff;" x="483.461538" xlink:href="#m0737be443c" y="119.751791"/>
     <use style="fill:#0000ff;stroke:#0000ff;" x="497.769231" xlink:href="#m0737be443c" y="110.627256"/>
     <use style="fill:#0000ff;stroke:#0000ff;" x="512.076923" xlink:href="#m0737be443c" y="125.541193"/>
     <use style="fill:#0000ff;stroke:#0000ff;" x="526.384615" xlink:href="#m0737be443c" y="116.633316"/>
     <use style="fill:#0000ff;stroke:#0000ff;" x="540.692308" xlink:href="#m0737be443c" y="115.040875"/>
     <use style="fill:#0000ff;stroke:#0000ff;" x="555" xlink:href="#m0737be443c" y="120.778827"/>
     <use style="fill:#0000ff;stroke:#0000ff;" x="569.307692" xlink:href="#m0737be443c" y="117.912877"/>
     <use style="fill:#0000ff;stroke:#0000ff;" x="583.615385" xlink:href="#m0737be443c" y="112.593203"/>
     <use style="fill:#0000ff;stroke:#0000ff;" x="597.923077" xlink:href="#m0737be443c" y="111.729474"/>
     <use style="fill:#0000ff;stroke:#0000ff;" x="612.230769" xlink:href="#m0737be443c" y="110.15642"/>
     <use style="fill:#0000ff;stroke:#0000ff;" x="626.538462" xlink:href="#m0737be443c" y="106.247266"/>
     <use style="fill:#0000ff;stroke:#0000ff;" x="640.846154" xlink:href="#m0737be443c" y="101.855139"/>
    </g>
   </g>
   <g id="line2d_18">
    <g clip-path="url(#p603030b723)">
     <use style="fill:#0000ff;stroke:#0000ff;" x="97.153846" xlink:href="#m0737be443c" y="191.084739"/>
     <use style="fill:#0000ff;stroke:#0000ff;" x="111.461538" xlink:href="#m0737be443c" y="186.512714"/>
     <use style="fill:#0000ff;stroke:#0000ff;" x="125.769231" xlink:href="#m0737be443c" y="182.387807"/>
     <use style="fill:#0000ff;stroke:#0000ff;" x="140.076923" xlink:href="#m0737be443c" y="171.395463"/>
     <use style="fill:#0000ff;stroke:#0000ff;" x="154.384615" xlink:href="#m0737be443c" y="160.745711"/>
     <use style="fill:#0000ff;stroke:#0000ff;" x="168.692308" xlink:href="#m0737be443c" y="155.190061"/>
     <use style="fill:#0000ff;stroke:#0000ff;" x="183" xlink:href="#m0737be443c" y="135.380407"/>
     <use style="fill:#0000ff;stroke:#0000ff;" x="197.307692" xlink:href="#m0737be443c" y="112.750897"/>
     <use style="fill:#0000ff;stroke:#0000ff;" x="211.615385" xlink:href="#m0737be443c" y="130.048377"/>
     <use style="fill:#0000ff;stroke:#0000ff;" x="225.923077" xlink:href="#m0737be443c" y="133.70304"/>
     <use style="fill:#0000ff;stroke:#0000ff;" x="240.230769" xlink:href="#m0737be443c" y="112.840083"/>
     <use style="fill:#0000ff;stroke:#0000ff;" x="254.538462" xlink:href="#m0737be443c" y="110.15468"/>
     <use style="fill:#0000ff;stroke:#0000ff;" x="268.846154" xlink:href="#m0737be443c" y="133.404831"/>
     <use style="fill:#0000ff;stroke:#0000ff;" x="283.153846" xlink:href="#m0737be443c" y="121.834348"/>
     <use style="fill:#0000ff;stroke:#0000ff;" x="297.461538" xlink:href="#m0737be443c" y="115.452755"/>
     <use style="fill:#0000ff;stroke:#0000ff;" x="311.769231" xlink:href="#m0737be443c" y="116.780596"/>
     <use style="fill:#0000ff;stroke:#0000ff;" x="326.076923" xlink:href="#m0737be443c" y="125.559976"/>
     <use style="fill:#0000ff;stroke:#0000ff;" x="340.384615" xlink:href="#m0737be443c" y="114.029203"/>
     <use style="fill:#0000ff;stroke:#0000ff;" x="354.692308" xlink:href="#m0737be443c" y="115.447337"/>
     <use style="fill:#0000ff;stroke:#0000ff;" x="369" xlink:href="#m0737be443c" y="129.691475"/>
     <use style="fill:#0000ff;stroke:#0000ff;" x="383.307692" xlink:href="#m0737be443c" y="114.872431"/>
     <use style="fill:#0000ff;stroke:#0000ff;" x="397.615385" xlink:href="#m0737be443c" y="115.194873"/>
     <use style="fill:#0000ff;stroke:#0000ff;" x="411.923077" xlink:href="#m0737be443c" y="111.266144"/>
     <use style="fill:#0000ff;stroke:#0000ff;" x="426.230769" xlink:href="#m0737be443c" y="120.828262"/>
     <use style="fill:#0000ff;stroke:#0000ff;" x="440.538462" xlink:href="#m0737be443c" y="99.643663"/>
     <use style="fill:#0000ff;stroke:#0000ff;" x="454.846154" xlink:href="#m0737be443c" y="119.32228"/>
     <use style="fill:#0000ff;stroke:#0000ff;" x="469.153846" xlink:href="#m0737be443c" y="119.403513"/>
     <use style="fill:#0000ff;stroke:#0000ff;" x="483.461538" xlink:href="#m0737be443c" y="109.692095"/>
     <use style="fill:#0000ff;stroke:#0000ff;" x="497.769231" xlink:href="#m0737be443c" y="102.548507"/>
     <use style="fill:#0000ff;stroke:#0000ff;" x="512.076923" xlink:href="#m0737be443c" y="115.198605"/>
     <use style="fill:#0000ff;stroke:#0000ff;" x="526.384615" xlink:href="#m0737be443c" y="108.544478"/>
     <use style="fill:#0000ff;stroke:#0000ff;" x="540.692308" xlink:href="#m0737be443c" y="107.40898"/>
     <use style="fill:#0000ff;stroke:#0000ff;" x="555" xlink:href="#m0737be443c" y="113.230536"/>
     <use style="fill:#0000ff;stroke:#0000ff;" x="569.307692" xlink:href="#m0737be443c" y="111.369701"/>
     <use style="fill:#0000ff;stroke:#0000ff;" x="583.615385" xlink:href="#m0737be443c" y="107.181664"/>
     <use style="fill:#0000ff;stroke:#0000ff;" x="597.923077" xlink:href="#m0737be443c" y="106.714045"/>
     <use style="fill:#0000ff;stroke:#0000ff;" x="612.230769" xlink:href="#m0737be443c" y="106.202395"/>
     <use style="fill:#0000ff;stroke:#0000ff;" x="626.538462" xlink:href="#m0737be443c" y="103.22708"/>
     <use style="fill:#0000ff;stroke:#0000ff;" x="640.846154" xlink:href="#m0737be443c" y="99.227226"/>
    </g>
   </g>
   <g id="patch_3">
    <path d="M 90 334.0008 
L 90 85.2768 
" style="fill:none;stroke:#000000;stroke-linecap:square;stroke-linejoin:miter;stroke-width:0.8;"/>
   </g>
   <g id="patch_4">
    <path d="M 648 334.0008 
L 648 85.2768 
" style="fill:none;stroke:#000000;stroke-linecap:square;stroke-linejoin:miter;stroke-width:0.8;"/>
   </g>
   <g id="patch_5">
    <path d="M 90 334.0008 
L 648 334.0008 
" style="fill:none;stroke:#000000;stroke-linecap:square;stroke-linejoin:miter;stroke-width:0.8;"/>
   </g>
   <g id="patch_6">
    <path d="M 90 85.2768 
L 648 85.2768 
" style="fill:none;stroke:#000000;stroke-linecap:square;stroke-linejoin:miter;stroke-width:0.8;"/>
   </g>
   <g id="legend_1">
    <g id="patch_7">
     <path d="M 266.025938 325.0008 
L 471.974063 325.0008 
Q 475.574063 325.0008 475.574063 321.4008 
L 475.574063 243.938925 
Q 475.574063 240.338925 471.974063 240.338925 
L 266.025938 240.338925 
Q 262.425938 240.338925 262.425938 243.938925 
L 262.425938 321.4008 
Q 262.425938 325.0008 266.025938 325.0008 
z
" style="fill:#ffffff;opacity:0.5;stroke:#cccccc;stroke-linejoin:miter;"/>
    </g>
    <g id="line2d_19">
     <path d="M 269.625938 254.916112 
L 305.625938 254.916112 
" style="fill:none;stroke:#008000;stroke-linecap:square;stroke-width:1.5;"/>
    </g>
    <g id="line2d_20"/>
    <g id="text_6">
     <!-- Efficiency -->
     <defs>
      <path d="M 9.8125 72.90625 
L 55.90625 72.90625 
L 55.90625 64.59375 
L 19.671875 64.59375 
L 19.671875 43.015625 
L 54.390625 43.015625 
L 54.390625 34.71875 
L 19.671875 34.71875 
L 19.671875 8.296875 
L 56.78125 8.296875 
L 56.78125 0 
L 9.8125 0 
z
" id="DejaVuSans-69"/>
      <path d="M 37.109375 75.984375 
L 37.109375 68.5 
L 28.515625 68.5 
Q 23.6875 68.5 21.796875 66.546875 
Q 19.921875 64.59375 19.921875 59.515625 
L 19.921875 54.6875 
L 34.71875 54.6875 
L 34.71875 47.703125 
L 19.921875 47.703125 
L 19.921875 0 
L 10.890625 0 
L 10.890625 47.703125 
L 2.296875 47.703125 
L 2.296875 54.6875 
L 10.890625 54.6875 
L 10.890625 58.5 
Q 10.890625 67.625 15.140625 71.796875 
Q 19.390625 75.984375 28.609375 75.984375 
z
" id="DejaVuSans-102"/>
      <path d="M 32.171875 -5.078125 
Q 28.375 -14.84375 24.75 -17.8125 
Q 21.140625 -20.796875 15.09375 -20.796875 
L 7.90625 -20.796875 
L 7.90625 -13.28125 
L 13.1875 -13.28125 
Q 16.890625 -13.28125 18.9375 -11.515625 
Q 21 -9.765625 23.484375 -3.21875 
L 25.09375 0.875 
L 2.984375 54.6875 
L 12.5 54.6875 
L 29.59375 11.921875 
L 46.6875 54.6875 
L 56.203125 54.6875 
z
" id="DejaVuSans-121"/>
     </defs>
     <g transform="translate(320.025937 261.216113)scale(0.18 -0.18)">
      <use xlink:href="#DejaVuSans-69"/>
      <use x="63.183594" xlink:href="#DejaVuSans-102"/>
      <use x="98.388672" xlink:href="#DejaVuSans-102"/>
      <use x="133.59375" xlink:href="#DejaVuSans-105"/>
      <use x="161.376953" xlink:href="#DejaVuSans-99"/>
      <use x="216.357422" xlink:href="#DejaVuSans-105"/>
      <use x="244.140625" xlink:href="#DejaVuSans-101"/>
      <use x="305.664062" xlink:href="#DejaVuSans-110"/>
      <use x="369.042969" xlink:href="#DejaVuSans-99"/>
      <use x="424.023438" xlink:href="#DejaVuSans-121"/>
     </g>
    </g>
    <g id="line2d_21">
     <path d="M 269.625938 281.336737 
L 305.625938 281.336737 
" style="fill:none;stroke:#ff0000;stroke-linecap:square;stroke-width:1.5;"/>
    </g>
    <g id="line2d_22"/>
    <g id="text_7">
     <!-- Purity -->
     <defs>
      <path d="M 19.671875 64.796875 
L 19.671875 37.40625 
L 32.078125 37.40625 
Q 38.96875 37.40625 42.71875 40.96875 
Q 46.484375 44.53125 46.484375 51.125 
Q 46.484375 57.671875 42.71875 61.234375 
Q 38.96875 64.796875 32.078125 64.796875 
z
M 9.8125 72.90625 
L 32.078125 72.90625 
Q 44.34375 72.90625 50.609375 67.359375 
Q 56.890625 61.8125 56.890625 51.125 
Q 56.890625 40.328125 50.609375 34.8125 
Q 44.34375 29.296875 32.078125 29.296875 
L 19.671875 29.296875 
L 19.671875 0 
L 9.8125 0 
z
" id="DejaVuSans-80"/>
      <path d="M 8.5 21.578125 
L 8.5 54.6875 
L 17.484375 54.6875 
L 17.484375 21.921875 
Q 17.484375 14.15625 20.5 10.265625 
Q 23.53125 6.390625 29.59375 6.390625 
Q 36.859375 6.390625 41.078125 11.03125 
Q 45.3125 15.671875 45.3125 23.6875 
L 45.3125 54.6875 
L 54.296875 54.6875 
L 54.296875 0 
L 45.3125 0 
L 45.3125 8.40625 
Q 42.046875 3.421875 37.71875 1 
Q 33.40625 -1.421875 27.6875 -1.421875 
Q 18.265625 -1.421875 13.375 4.4375 
Q 8.5 10.296875 8.5 21.578125 
z
M 31.109375 56 
z
" id="DejaVuSans-117"/>
     </defs>
     <g transform="translate(320.025937 287.636737)scale(0.18 -0.18)">
      <use xlink:href="#DejaVuSans-80"/>
      <use x="60.287109" xlink:href="#DejaVuSans-117"/>
      <use x="123.666016" xlink:href="#DejaVuSans-114"/>
      <use x="164.779297" xlink:href="#DejaVuSans-105"/>
      <use x="192.5625" xlink:href="#DejaVuSans-116"/>
      <use x="231.771484" xlink:href="#DejaVuSans-121"/>
     </g>
    </g>
    <g id="line2d_23">
     <path d="M 269.625938 307.757362 
L 305.625938 307.757362 
" style="fill:none;stroke:#0000ff;stroke-linecap:square;stroke-width:1.5;"/>
    </g>
    <g id="line2d_24"/>
    <g id="text_8">
     <!-- Purity*Efficiency -->
     <defs>
      <path d="M 47.015625 60.890625 
L 29.5 51.421875 
L 47.015625 41.890625 
L 44.1875 37.109375 
L 27.78125 47.015625 
L 27.78125 28.609375 
L 22.21875 28.609375 
L 22.21875 47.015625 
L 5.8125 37.109375 
L 2.984375 41.890625 
L 20.515625 51.421875 
L 2.984375 60.890625 
L 5.8125 65.71875 
L 22.21875 55.8125 
L 22.21875 74.21875 
L 27.78125 74.21875 
L 27.78125 55.8125 
L 44.1875 65.71875 
z
" id="DejaVuSans-42"/>
     </defs>
     <g transform="translate(320.025937 314.057363)scale(0.18 -0.18)">
      <use xlink:href="#DejaVuSans-80"/>
      <use x="60.287109" xlink:href="#DejaVuSans-117"/>
      <use x="123.666016" xlink:href="#DejaVuSans-114"/>
      <use x="164.779297" xlink:href="#DejaVuSans-105"/>
      <use x="192.5625" xlink:href="#DejaVuSans-116"/>
      <use x="231.771484" xlink:href="#DejaVuSans-121"/>
      <use x="290.951172" xlink:href="#DejaVuSans-42"/>
      <use x="340.951172" xlink:href="#DejaVuSans-69"/>
      <use x="404.134766" xlink:href="#DejaVuSans-102"/>
      <use x="439.339844" xlink:href="#DejaVuSans-102"/>
      <use x="474.544922" xlink:href="#DejaVuSans-105"/>
      <use x="502.328125" xlink:href="#DejaVuSans-99"/>
      <use x="557.308594" xlink:href="#DejaVuSans-105"/>
      <use x="585.091797" xlink:href="#DejaVuSans-101"/>
      <use x="646.615234" xlink:href="#DejaVuSans-110"/>
      <use x="709.994141" xlink:href="#DejaVuSans-99"/>
      <use x="764.974609" xlink:href="#DejaVuSans-121"/>
     </g>
    </g>
   </g>
  </g>
  <g id="axes_2">
   <g id="patch_8">
    <path d="M 90 632.4696 
L 648 632.4696 
L 648 383.7456 
L 90 383.7456 
z
" style="fill:#ffffff;"/>
   </g>
   <g id="patch_9">
    <path clip-path="url(#p308e1bb606)" d="M 90 64199.855125 
L 90 537.098991 
L 104.307692 537.098991 
L 104.307692 554.95358 
L 118.615385 554.95358 
L 118.615385 554.95358 
L 132.923077 554.95358 
L 132.923077 541.355381 
L 147.230769 541.355381 
L 147.230769 539.862483 
L 161.538462 539.862483 
L 161.538462 528.186613 
L 175.846154 528.186613 
L 175.846154 517.959898 
L 190.153846 517.959898 
L 190.153846 521.459751 
L 204.461538 521.459751 
L 204.461538 517.959898 
L 218.769231 517.959898 
L 218.769231 507.206046 
L 233.076923 507.206046 
L 233.076923 507.655029 
L 247.384615 507.655029 
L 247.384615 508.57551 
L 261.692308 508.57551 
L 261.692308 504.252345 
L 276 504.252345 
L 276 499.824984 
L 290.307692 499.824984 
L 290.307692 498.171084 
L 304.615385 498.171084 
L 304.615385 494.847617 
L 318.923077 494.847617 
L 318.923077 492.923624 
L 333.230769 492.923624 
L 333.230769 492.397668 
L 347.538462 492.397668 
L 347.538462 493.731834 
L 361.846154 493.731834 
L 361.846154 488.972341 
L 376.153846 488.972341 
L 376.153846 487.625153 
L 390.461538 487.625153 
L 390.461538 485.925425 
L 404.769231 485.925425 
L 404.769231 481.905541 
L 419.076923 481.905541 
L 419.076923 481.727972 
L 433.384615 481.727972 
L 433.384615 478.085205 
L 447.692308 478.085205 
L 447.692308 477.020153 
L 462 477.020153 
L 462 471.738271 
L 476.307692 471.738271 
L 476.307692 471.738271 
L 490.615385 471.738271 
L 490.615385 467.623119 
L 504.923077 467.623119 
L 504.923077 469.833248 
L 519.230769 469.833248 
L 519.230769 461.889807 
L 533.538462 461.889807 
L 533.538462 459.101672 
L 547.846154 459.101672 
L 547.846154 453.667347 
L 562.153846 453.667347 
L 562.153846 448.750809 
L 576.461538 448.750809 
L 576.461538 441.98485 
L 590.769231 441.98485 
L 590.769231 438.518989 
L 605.076923 438.518989 
L 605.076923 426.931325 
L 619.384615 426.931325 
L 619.384615 416.533689 
L 633.692308 416.533689 
L 633.692308 395.051236 
L 648 395.051236 
L 648 64199.855125 
z
" style="fill:#1f77b4;opacity:0.2;"/>
   </g>
   <g id="matplotlib.axis_3">
    <g id="xtick_7">
     <g id="line2d_25">
      <g>
       <use style="stroke:#000000;stroke-width:0.8;" x="90" xlink:href="#m50ecc82a60" y="632.4696"/>
      </g>
     </g>
     <g id="text_9">
      <!-- 0.0 -->
      <g transform="translate(69.38955 659.16475)scale(0.2592 -0.2592)">
       <use xlink:href="#DejaVuSans-48"/>
       <use x="63.623047" xlink:href="#DejaVuSans-46"/>
       <use x="95.410156" xlink:href="#DejaVuSans-48"/>
      </g>
     </g>
    </g>
    <g id="xtick_8">
     <g id="line2d_26">
      <g>
       <use style="stroke:#000000;stroke-width:0.8;" x="201.6" xlink:href="#m50ecc82a60" y="632.4696"/>
      </g>
     </g>
     <g id="text_10">
      <!-- 0.2 -->
      <defs>
       <path d="M 19.1875 8.296875 
L 53.609375 8.296875 
L 53.609375 0 
L 7.328125 0 
L 7.328125 8.296875 
Q 12.9375 14.109375 22.625 23.890625 
Q 32.328125 33.6875 34.8125 36.53125 
Q 39.546875 41.84375 41.421875 45.53125 
Q 43.3125 49.21875 43.3125 52.78125 
Q 43.3125 58.59375 39.234375 62.25 
Q 35.15625 65.921875 28.609375 65.921875 
Q 23.96875 65.921875 18.8125 64.3125 
Q 13.671875 62.703125 7.8125 59.421875 
L 7.8125 69.390625 
Q 13.765625 71.78125 18.9375 73 
Q 24.125 74.21875 28.421875 74.21875 
Q 39.75 74.21875 46.484375 68.546875 
Q 53.21875 62.890625 53.21875 53.421875 
Q 53.21875 48.921875 51.53125 44.890625 
Q 49.859375 40.875 45.40625 35.40625 
Q 44.1875 33.984375 37.640625 27.21875 
Q 31.109375 20.453125 19.1875 8.296875 
z
" id="DejaVuSans-50"/>
      </defs>
      <g transform="translate(180.98955 659.16475)scale(0.2592 -0.2592)">
       <use xlink:href="#DejaVuSans-48"/>
       <use x="63.623047" xlink:href="#DejaVuSans-46"/>
       <use x="95.410156" xlink:href="#DejaVuSans-50"/>
      </g>
     </g>
    </g>
    <g id="xtick_9">
     <g id="line2d_27">
      <g>
       <use style="stroke:#000000;stroke-width:0.8;" x="313.2" xlink:href="#m50ecc82a60" y="632.4696"/>
      </g>
     </g>
     <g id="text_11">
      <!-- 0.4 -->
      <defs>
       <path d="M 37.796875 64.3125 
L 12.890625 25.390625 
L 37.796875 25.390625 
z
M 35.203125 72.90625 
L 47.609375 72.90625 
L 47.609375 25.390625 
L 58.015625 25.390625 
L 58.015625 17.1875 
L 47.609375 17.1875 
L 47.609375 0 
L 37.796875 0 
L 37.796875 17.1875 
L 4.890625 17.1875 
L 4.890625 26.703125 
z
" id="DejaVuSans-52"/>
      </defs>
      <g transform="translate(292.58955 659.16475)scale(0.2592 -0.2592)">
       <use xlink:href="#DejaVuSans-48"/>
       <use x="63.623047" xlink:href="#DejaVuSans-46"/>
       <use x="95.410156" xlink:href="#DejaVuSans-52"/>
      </g>
     </g>
    </g>
    <g id="xtick_10">
     <g id="line2d_28">
      <g>
       <use style="stroke:#000000;stroke-width:0.8;" x="424.8" xlink:href="#m50ecc82a60" y="632.4696"/>
      </g>
     </g>
     <g id="text_12">
      <!-- 0.6 -->
      <defs>
       <path d="M 33.015625 40.375 
Q 26.375 40.375 22.484375 35.828125 
Q 18.609375 31.296875 18.609375 23.390625 
Q 18.609375 15.53125 22.484375 10.953125 
Q 26.375 6.390625 33.015625 6.390625 
Q 39.65625 6.390625 43.53125 10.953125 
Q 47.40625 15.53125 47.40625 23.390625 
Q 47.40625 31.296875 43.53125 35.828125 
Q 39.65625 40.375 33.015625 40.375 
z
M 52.59375 71.296875 
L 52.59375 62.3125 
Q 48.875 64.0625 45.09375 64.984375 
Q 41.3125 65.921875 37.59375 65.921875 
Q 27.828125 65.921875 22.671875 59.328125 
Q 17.53125 52.734375 16.796875 39.40625 
Q 19.671875 43.65625 24.015625 45.921875 
Q 28.375 48.1875 33.59375 48.1875 
Q 44.578125 48.1875 50.953125 41.515625 
Q 57.328125 34.859375 57.328125 23.390625 
Q 57.328125 12.15625 50.6875 5.359375 
Q 44.046875 -1.421875 33.015625 -1.421875 
Q 20.359375 -1.421875 13.671875 8.265625 
Q 6.984375 17.96875 6.984375 36.375 
Q 6.984375 53.65625 15.1875 63.9375 
Q 23.390625 74.21875 37.203125 74.21875 
Q 40.921875 74.21875 44.703125 73.484375 
Q 48.484375 72.75 52.59375 71.296875 
z
" id="DejaVuSans-54"/>
      </defs>
      <g transform="translate(404.18955 659.16475)scale(0.2592 -0.2592)">
       <use xlink:href="#DejaVuSans-48"/>
       <use x="63.623047" xlink:href="#DejaVuSans-46"/>
       <use x="95.410156" xlink:href="#DejaVuSans-54"/>
      </g>
     </g>
    </g>
    <g id="xtick_11">
     <g id="line2d_29">
      <g>
       <use style="stroke:#000000;stroke-width:0.8;" x="536.4" xlink:href="#m50ecc82a60" y="632.4696"/>
      </g>
     </g>
     <g id="text_13">
      <!-- 0.8 -->
      <defs>
       <path d="M 31.78125 34.625 
Q 24.75 34.625 20.71875 30.859375 
Q 16.703125 27.09375 16.703125 20.515625 
Q 16.703125 13.921875 20.71875 10.15625 
Q 24.75 6.390625 31.78125 6.390625 
Q 38.8125 6.390625 42.859375 10.171875 
Q 46.921875 13.96875 46.921875 20.515625 
Q 46.921875 27.09375 42.890625 30.859375 
Q 38.875 34.625 31.78125 34.625 
z
M 21.921875 38.8125 
Q 15.578125 40.375 12.03125 44.71875 
Q 8.5 49.078125 8.5 55.328125 
Q 8.5 64.0625 14.71875 69.140625 
Q 20.953125 74.21875 31.78125 74.21875 
Q 42.671875 74.21875 48.875 69.140625 
Q 55.078125 64.0625 55.078125 55.328125 
Q 55.078125 49.078125 51.53125 44.71875 
Q 48 40.375 41.703125 38.8125 
Q 48.828125 37.15625 52.796875 32.3125 
Q 56.78125 27.484375 56.78125 20.515625 
Q 56.78125 9.90625 50.3125 4.234375 
Q 43.84375 -1.421875 31.78125 -1.421875 
Q 19.734375 -1.421875 13.25 4.234375 
Q 6.78125 9.90625 6.78125 20.515625 
Q 6.78125 27.484375 10.78125 32.3125 
Q 14.796875 37.15625 21.921875 38.8125 
z
M 18.3125 54.390625 
Q 18.3125 48.734375 21.84375 45.5625 
Q 25.390625 42.390625 31.78125 42.390625 
Q 38.140625 42.390625 41.71875 45.5625 
Q 45.3125 48.734375 45.3125 54.390625 
Q 45.3125 60.0625 41.71875 63.234375 
Q 38.140625 66.40625 31.78125 66.40625 
Q 25.390625 66.40625 21.84375 63.234375 
Q 18.3125 60.0625 18.3125 54.390625 
z
" id="DejaVuSans-56"/>
      </defs>
      <g transform="translate(515.78955 659.16475)scale(0.2592 -0.2592)">
       <use xlink:href="#DejaVuSans-48"/>
       <use x="63.623047" xlink:href="#DejaVuSans-46"/>
       <use x="95.410156" xlink:href="#DejaVuSans-56"/>
      </g>
     </g>
    </g>
    <g id="xtick_12">
     <g id="line2d_30">
      <g>
       <use style="stroke:#000000;stroke-width:0.8;" x="648" xlink:href="#m50ecc82a60" y="632.4696"/>
      </g>
     </g>
     <g id="text_14">
      <!-- 1.0 -->
      <g transform="translate(627.38955 659.16475)scale(0.2592 -0.2592)">
       <use xlink:href="#DejaVuSans-49"/>
       <use x="63.623047" xlink:href="#DejaVuSans-46"/>
       <use x="95.410156" xlink:href="#DejaVuSans-48"/>
      </g>
     </g>
    </g>
    <g id="text_15">
     <!-- completenessW -->
     <g transform="translate(265.957875 688.25045)scale(0.2592 -0.2592)">
      <use xlink:href="#DejaVuSans-99"/>
      <use x="54.980469" xlink:href="#DejaVuSans-111"/>
      <use x="116.162109" xlink:href="#DejaVuSans-109"/>
      <use x="213.574219" xlink:href="#DejaVuSans-112"/>
      <use x="277.050781" xlink:href="#DejaVuSans-108"/>
      <use x="304.833984" xlink:href="#DejaVuSans-101"/>
      <use x="366.357422" xlink:href="#DejaVuSans-116"/>
      <use x="405.566406" xlink:href="#DejaVuSans-101"/>
      <use x="467.089844" xlink:href="#DejaVuSans-110"/>
      <use x="530.46875" xlink:href="#DejaVuSans-101"/>
      <use x="591.992188" xlink:href="#DejaVuSans-115"/>
      <use x="644.091797" xlink:href="#DejaVuSans-115"/>
      <use x="696.191406" xlink:href="#DejaVuSans-87"/>
     </g>
    </g>
   </g>
   <g id="matplotlib.axis_4">
    <g id="ytick_4">
     <g id="line2d_31">
      <g>
       <use style="stroke:#000000;stroke-width:0.8;" x="90" xlink:href="#m9dd2e14af1" y="557.585272"/>
      </g>
     </g>
     <g id="text_16">
      <!-- $\mathdefault{10^{1}}$ -->
      <g transform="translate(37.3808 567.432847)scale(0.2592 -0.2592)">
       <use transform="translate(0 0.684375)" xlink:href="#DejaVuSans-49"/>
       <use transform="translate(63.623047 0.684375)" xlink:href="#DejaVuSans-48"/>
       <use transform="translate(128.203125 38.965625)scale(0.7)" xlink:href="#DejaVuSans-49"/>
      </g>
     </g>
    </g>
    <g id="ytick_5">
     <g id="line2d_32">
      <g>
       <use style="stroke:#000000;stroke-width:0.8;" x="90" xlink:href="#m9dd2e14af1" y="430.42789"/>
      </g>
     </g>
     <g id="text_17">
      <!-- $\mathdefault{10^{3}}$ -->
      <defs>
       <path d="M 40.578125 39.3125 
Q 47.65625 37.796875 51.625 33 
Q 55.609375 28.21875 55.609375 21.1875 
Q 55.609375 10.40625 48.1875 4.484375 
Q 40.765625 -1.421875 27.09375 -1.421875 
Q 22.515625 -1.421875 17.65625 -0.515625 
Q 12.796875 0.390625 7.625 2.203125 
L 7.625 11.71875 
Q 11.71875 9.328125 16.59375 8.109375 
Q 21.484375 6.890625 26.8125 6.890625 
Q 36.078125 6.890625 40.9375 10.546875 
Q 45.796875 14.203125 45.796875 21.1875 
Q 45.796875 27.640625 41.28125 31.265625 
Q 36.765625 34.90625 28.71875 34.90625 
L 20.21875 34.90625 
L 20.21875 43.015625 
L 29.109375 43.015625 
Q 36.375 43.015625 40.234375 45.921875 
Q 44.09375 48.828125 44.09375 54.296875 
Q 44.09375 59.90625 40.109375 62.90625 
Q 36.140625 65.921875 28.71875 65.921875 
Q 24.65625 65.921875 20.015625 65.03125 
Q 15.375 64.15625 9.8125 62.3125 
L 9.8125 71.09375 
Q 15.4375 72.65625 20.34375 73.4375 
Q 25.25 74.21875 29.59375 74.21875 
Q 40.828125 74.21875 47.359375 69.109375 
Q 53.90625 64.015625 53.90625 55.328125 
Q 53.90625 49.265625 50.4375 45.09375 
Q 46.96875 40.921875 40.578125 39.3125 
z
" id="DejaVuSans-51"/>
      </defs>
      <g transform="translate(37.3808 440.275465)scale(0.2592 -0.2592)">
       <use transform="translate(0 0.765625)" xlink:href="#DejaVuSans-49"/>
       <use transform="translate(63.623047 0.765625)" xlink:href="#DejaVuSans-48"/>
       <use transform="translate(128.203125 39.046875)scale(0.7)" xlink:href="#DejaVuSans-51"/>
      </g>
     </g>
    </g>
    <g id="text_18">
     <!-- Count -->
     <defs>
      <path d="M 64.40625 67.28125 
L 64.40625 56.890625 
Q 59.421875 61.53125 53.78125 63.8125 
Q 48.140625 66.109375 41.796875 66.109375 
Q 29.296875 66.109375 22.65625 58.46875 
Q 16.015625 50.828125 16.015625 36.375 
Q 16.015625 21.96875 22.65625 14.328125 
Q 29.296875 6.6875 41.796875 6.6875 
Q 48.140625 6.6875 53.78125 8.984375 
Q 59.421875 11.28125 64.40625 15.921875 
L 64.40625 5.609375 
Q 59.234375 2.09375 53.4375 0.328125 
Q 47.65625 -1.421875 41.21875 -1.421875 
Q 24.65625 -1.421875 15.125 8.703125 
Q 5.609375 18.84375 5.609375 36.375 
Q 5.609375 53.953125 15.125 64.078125 
Q 24.65625 74.21875 41.21875 74.21875 
Q 47.75 74.21875 53.53125 72.484375 
Q 59.328125 70.75 64.40625 67.28125 
z
" id="DejaVuSans-67"/>
     </defs>
     <g transform="translate(27.99025 546.59475)rotate(-90)scale(0.2592 -0.2592)">
      <use xlink:href="#DejaVuSans-67"/>
      <use x="69.824219" xlink:href="#DejaVuSans-111"/>
      <use x="131.005859" xlink:href="#DejaVuSans-117"/>
      <use x="194.384766" xlink:href="#DejaVuSans-110"/>
      <use x="257.763672" xlink:href="#DejaVuSans-116"/>
     </g>
    </g>
   </g>
   <g id="line2d_33">
    <path clip-path="url(#p308e1bb606)" d="M 90 537.098991 
L 104.307692 537.098991 
L 104.307692 554.95358 
L 118.615385 554.95358 
L 118.615385 554.95358 
L 132.923077 554.95358 
L 132.923077 541.355381 
L 147.230769 541.355381 
L 147.230769 539.862483 
L 161.538462 539.862483 
L 161.538462 528.186613 
L 175.846154 528.186613 
L 175.846154 517.959898 
L 190.153846 517.959898 
L 190.153846 521.459751 
L 204.461538 521.459751 
L 204.461538 517.959898 
L 218.769231 517.959898 
L 218.769231 507.206046 
L 233.076923 507.206046 
L 233.076923 507.655029 
L 247.384615 507.655029 
L 247.384615 508.57551 
L 261.692308 508.57551 
L 261.692308 504.252345 
L 276 504.252345 
L 276 499.824984 
L 290.307692 499.824984 
L 290.307692 498.171084 
L 304.615385 498.171084 
L 304.615385 494.847617 
L 318.923077 494.847617 
L 318.923077 492.923624 
L 333.230769 492.923624 
L 333.230769 492.397668 
L 347.538462 492.397668 
L 347.538462 493.731834 
L 361.846154 493.731834 
L 361.846154 488.972341 
L 376.153846 488.972341 
L 376.153846 487.625153 
L 390.461538 487.625153 
L 390.461538 485.925425 
L 404.769231 485.925425 
L 404.769231 481.905541 
L 419.076923 481.905541 
L 419.076923 481.727972 
L 433.384615 481.727972 
L 433.384615 478.085205 
L 447.692308 478.085205 
L 447.692308 477.020153 
L 462 477.020153 
L 462 471.738271 
L 476.307692 471.738271 
L 476.307692 471.738271 
L 490.615385 471.738271 
L 490.615385 467.623119 
L 504.923077 467.623119 
L 504.923077 469.833248 
L 519.230769 469.833248 
L 519.230769 461.889807 
L 533.538462 461.889807 
L 533.538462 459.101672 
L 547.846154 459.101672 
L 547.846154 453.667347 
L 562.153846 453.667347 
L 562.153846 448.750809 
L 576.461538 448.750809 
L 576.461538 441.98485 
L 590.769231 441.98485 
L 590.769231 438.518989 
L 605.076923 438.518989 
L 605.076923 426.931325 
L 619.384615 426.931325 
L 619.384615 416.533689 
L 633.692308 416.533689 
L 633.692308 395.051236 
L 648 395.051236 
" style="fill:none;stroke:#1f77b4;stroke-linecap:square;stroke-width:1.5;"/>
   </g>
   <g id="line2d_34">
    <path clip-path="url(#p308e1bb606)" d="M 90 546.389621 
L 104.307692 546.389621 
L 104.307692 557.585272 
L 118.615385 557.585272 
L 118.615385 563.746684 
L 132.923077 563.746684 
L 132.923077 550.340903 
L 147.230769 550.340903 
L 147.230769 550.340903 
L 161.538462 550.340903 
L 161.538462 535.814487 
L 175.846154 535.814487 
L 175.846154 525.468498 
L 190.153846 525.468498 
L 190.153846 526.345139 
L 204.461538 526.345139 
L 204.461538 524.618835 
L 218.769231 524.618835 
L 218.769231 513.703509 
L 233.076923 513.703509 
L 233.076923 511.536761 
L 247.384615 511.536761 
L 247.384615 512.598887 
L 261.692308 512.598887 
L 261.692308 508.111434 
L 276 508.111434 
L 276 503.077194 
L 290.307692 503.077194 
L 290.307692 502.696335 
L 304.615385 502.696335 
L 304.615385 499.486184 
L 318.923077 499.486184 
L 318.923077 498.494034 
L 333.230769 498.494034 
L 333.230769 495.422885 
L 347.538462 495.422885 
L 347.538462 497.224298 
L 361.846154 497.224298 
L 361.846154 494.28409 
L 376.153846 494.28409 
L 376.153846 490.388645 
L 390.461538 490.388645 
L 390.461538 489.671413 
L 404.769231 489.671413 
L 404.769231 484.519425 
L 419.076923 484.519425 
L 419.076923 484.913887 
L 433.384615 484.913887 
L 433.384615 479.354941 
L 447.692308 479.354941 
L 447.692308 480.179237 
L 462 480.179237 
L 462 474.320701 
L 476.307692 474.320701 
L 476.307692 473.652099 
L 490.615385 473.652099 
L 490.615385 469.263911 
L 504.923077 469.263911 
L 504.923077 471.738271 
L 519.230769 471.738271 
L 519.230769 463.488368 
L 533.538462 463.488368 
L 533.538462 461.123943 
L 547.846154 461.123943 
L 547.846154 455.936265 
L 562.153846 455.936265 
L 562.153846 450.29439 
L 576.461538 450.29439 
L 576.461538 443.582855 
L 590.769231 443.582855 
L 590.769231 440.040689 
L 605.076923 440.040689 
L 605.076923 428.200774 
L 619.384615 428.200774 
L 619.384615 417.571276 
L 633.692308 417.571276 
L 633.692308 396.873679 
L 648 396.873679 
" style="fill:none;stroke:#ff7f0e;stroke-linecap:square;stroke-width:1.5;"/>
   </g>
   <g id="line2d_35">
    <path clip-path="url(#p308e1bb606)" d="M 90 567.433736 
L 104.307692 567.433736 
L 104.307692 563.746684 
L 118.615385 563.746684 
L 118.615385 582.885777 
L 132.923077 582.885777 
L 132.923077 582.885777 
L 147.230769 582.885777 
L 147.230769 602.024871 
L 161.538462 602.024871 
L 161.538462 582.885777 
L 175.846154 582.885777 
L 175.846154 621.163964 
L 190.153846 621.163964 
L 190.153846 711.64 
M 204.461538 711.64 
L 204.461538 621.163964 
L 218.769231 621.163964 
L 218.769231 602.024871 
L 233.076923 602.024871 
L 233.076923 621.163964 
L 247.384615 621.163964 
L 247.384615 711.64 
M 261.692308 711.64 
L 261.692308 563.746684 
L 276 563.746684 
L 276 571.690126 
L 290.307692 571.690126 
L 290.307692 711.64 
M 318.923077 711.64 
L 318.923077 621.163964 
L 333.230769 621.163964 
L 333.230769 582.885777 
L 347.538462 582.885777 
L 347.538462 590.829219 
L 361.846154 590.829219 
L 361.846154 582.885777 
L 376.153846 582.885777 
L 376.153846 571.690126 
L 390.461538 571.690126 
L 390.461538 602.024871 
L 404.769231 602.024871 
L 404.769231 576.724366 
L 419.076923 576.724366 
L 419.076923 560.494474 
L 433.384615 560.494474 
L 433.384615 582.885777 
L 447.692308 582.885777 
L 447.692308 560.494474 
L 462 560.494474 
L 462 546.389621 
L 476.307692 546.389621 
L 476.307692 557.585272 
L 490.615385 557.585272 
L 490.615385 576.724366 
L 504.923077 576.724366 
L 504.923077 542.933632 
L 519.230769 542.933632 
L 519.230769 546.389621 
L 533.538462 546.389621 
L 533.538462 560.494474 
L 547.846154 560.494474 
L 547.846154 541.355381 
L 562.153846 541.355381 
L 562.153846 527.250528 
L 576.461538 527.250528 
L 576.461538 534.58709 
L 590.769231 534.58709 
L 590.769231 531.20181 
L 605.076923 531.20181 
L 605.076923 516.054876 
L 619.384615 516.054876 
L 619.384615 510.513982 
L 633.692308 510.513982 
L 633.692308 450.124818 
L 648 450.124818 
" style="fill:none;stroke:#2ca02c;stroke-linecap:square;stroke-width:1.5;"/>
   </g>
   <g id="patch_10">
    <path d="M 90 632.4696 
L 90 383.7456 
" style="fill:none;stroke:#000000;stroke-linecap:square;stroke-linejoin:miter;stroke-width:0.8;"/>
   </g>
   <g id="patch_11">
    <path d="M 648 632.4696 
L 648 383.7456 
" style="fill:none;stroke:#000000;stroke-linecap:square;stroke-linejoin:miter;stroke-width:0.8;"/>
   </g>
   <g id="patch_12">
    <path d="M 90 632.4696 
L 648 632.4696 
" style="fill:none;stroke:#000000;stroke-linecap:square;stroke-linejoin:miter;stroke-width:0.8;"/>
   </g>
   <g id="patch_13">
    <path d="M 90 383.7456 
L 648 383.7456 
" style="fill:none;stroke:#000000;stroke-linecap:square;stroke-linejoin:miter;stroke-width:0.8;"/>
   </g>
   <g id="legend_2">
    <g id="patch_14">
     <path d="M 437.633438 477.407475 
L 635.4 477.407475 
Q 639 477.407475 639 473.807475 
L 639 396.3456 
Q 639 392.7456 635.4 392.7456 
L 437.633438 392.7456 
Q 434.033437 392.7456 434.033437 396.3456 
L 434.033437 473.807475 
Q 434.033437 477.407475 437.633438 477.407475 
z
" style="fill:#ffffff;opacity:0.5;stroke:#cccccc;stroke-linejoin:miter;"/>
    </g>
    <g id="line2d_36">
     <path d="M 441.233437 407.322787 
L 477.233437 407.322787 
" style="fill:none;stroke:#1f77b4;stroke-linecap:square;stroke-width:1.5;"/>
    </g>
    <g id="line2d_37"/>
    <g id="text_19">
     <!--  shower -->
     <defs>
      <path id="DejaVuSans-32"/>
      <path d="M 54.890625 33.015625 
L 54.890625 0 
L 45.90625 0 
L 45.90625 32.71875 
Q 45.90625 40.484375 42.875 44.328125 
Q 39.84375 48.1875 33.796875 48.1875 
Q 26.515625 48.1875 22.3125 43.546875 
Q 18.109375 38.921875 18.109375 30.90625 
L 18.109375 0 
L 9.078125 0 
L 9.078125 75.984375 
L 18.109375 75.984375 
L 18.109375 46.1875 
Q 21.34375 51.125 25.703125 53.5625 
Q 30.078125 56 35.796875 56 
Q 45.21875 56 50.046875 50.171875 
Q 54.890625 44.34375 54.890625 33.015625 
z
" id="DejaVuSans-104"/>
      <path d="M 4.203125 54.6875 
L 13.1875 54.6875 
L 24.421875 12.015625 
L 35.59375 54.6875 
L 46.1875 54.6875 
L 57.421875 12.015625 
L 68.609375 54.6875 
L 77.59375 54.6875 
L 63.28125 0 
L 52.6875 0 
L 40.921875 44.828125 
L 29.109375 0 
L 18.5 0 
z
" id="DejaVuSans-119"/>
     </defs>
     <g transform="translate(491.633437 413.622787)scale(0.18 -0.18)">
      <use xlink:href="#DejaVuSans-32"/>
      <use x="31.787109" xlink:href="#DejaVuSans-115"/>
      <use x="83.886719" xlink:href="#DejaVuSans-104"/>
      <use x="147.265625" xlink:href="#DejaVuSans-111"/>
      <use x="208.447266" xlink:href="#DejaVuSans-119"/>
      <use x="290.234375" xlink:href="#DejaVuSans-101"/>
      <use x="351.757812" xlink:href="#DejaVuSans-114"/>
     </g>
    </g>
    <g id="line2d_38">
     <path d="M 441.233437 433.743412 
L 477.233437 433.743412 
" style="fill:none;stroke:#ff7f0e;stroke-linecap:square;stroke-width:1.5;"/>
    </g>
    <g id="line2d_39"/>
    <g id="text_20">
     <!-- correct  shower -->
     <g transform="translate(491.633437 440.043412)scale(0.18 -0.18)">
      <use xlink:href="#DejaVuSans-99"/>
      <use x="54.980469" xlink:href="#DejaVuSans-111"/>
      <use x="116.162109" xlink:href="#DejaVuSans-114"/>
      <use x="157.259766" xlink:href="#DejaVuSans-114"/>
      <use x="198.341797" xlink:href="#DejaVuSans-101"/>
      <use x="259.865234" xlink:href="#DejaVuSans-99"/>
      <use x="314.845703" xlink:href="#DejaVuSans-116"/>
      <use x="354.054688" xlink:href="#DejaVuSans-32"/>
      <use x="385.841797" xlink:href="#DejaVuSans-32"/>
      <use x="417.628906" xlink:href="#DejaVuSans-115"/>
      <use x="469.728516" xlink:href="#DejaVuSans-104"/>
      <use x="533.107422" xlink:href="#DejaVuSans-111"/>
      <use x="594.289062" xlink:href="#DejaVuSans-119"/>
      <use x="676.076172" xlink:href="#DejaVuSans-101"/>
      <use x="737.599609" xlink:href="#DejaVuSans-114"/>
     </g>
    </g>
    <g id="line2d_40">
     <path d="M 441.233437 460.164037 
L 477.233437 460.164037 
" style="fill:none;stroke:#2ca02c;stroke-linecap:square;stroke-width:1.5;"/>
    </g>
    <g id="line2d_41"/>
    <g id="text_21">
     <!-- incorrect  track -->
     <defs>
      <path d="M 9.078125 75.984375 
L 18.109375 75.984375 
L 18.109375 31.109375 
L 44.921875 54.6875 
L 56.390625 54.6875 
L 27.390625 29.109375 
L 57.625 0 
L 45.90625 0 
L 18.109375 26.703125 
L 18.109375 0 
L 9.078125 0 
z
" id="DejaVuSans-107"/>
     </defs>
     <g transform="translate(491.633437 466.464037)scale(0.18 -0.18)">
      <use xlink:href="#DejaVuSans-105"/>
      <use x="27.783203" xlink:href="#DejaVuSans-110"/>
      <use x="91.162109" xlink:href="#DejaVuSans-99"/>
      <use x="146.142578" xlink:href="#DejaVuSans-111"/>
      <use x="207.324219" xlink:href="#DejaVuSans-114"/>
      <use x="248.421875" xlink:href="#DejaVuSans-114"/>
      <use x="289.503906" xlink:href="#DejaVuSans-101"/>
      <use x="351.027344" xlink:href="#DejaVuSans-99"/>
      <use x="406.007812" xlink:href="#DejaVuSans-116"/>
      <use x="445.216797" xlink:href="#DejaVuSans-32"/>
      <use x="477.003906" xlink:href="#DejaVuSans-32"/>
      <use x="508.791016" xlink:href="#DejaVuSans-116"/>
      <use x="548" xlink:href="#DejaVuSans-114"/>
      <use x="589.113281" xlink:href="#DejaVuSans-97"/>
      <use x="650.392578" xlink:href="#DejaVuSans-99"/>
      <use x="705.373047" xlink:href="#DejaVuSans-107"/>
     </g>
    </g>
   </g>
  </g>
 </g>
 <defs>
  <clipPath id="p603030b723">
   <rect height="248.724" width="558" x="90" y="85.2768"/>
  </clipPath>
  <clipPath id="p308e1bb606">
   <rect height="248.724" width="558" x="90" y="383.7456"/>
  </clipPath>
 </defs>
</svg>
