<?xml version="1.0" encoding="utf-8" standalone="no"?>
<!DOCTYPE svg PUBLIC "-//W3C//DTD SVG 1.1//EN"
  "http://www.w3.org/Graphics/SVG/1.1/DTD/svg11.dtd">
<!-- Created with matplotlib (https://matplotlib.org/) -->
<svg height="710.64pt" version="1.1" viewBox="0 0 720 710.64" width="720pt" xmlns="http://www.w3.org/2000/svg" xmlns:xlink="http://www.w3.org/1999/xlink">
 <defs>
  <style type="text/css">
*{stroke-linecap:butt;stroke-linejoin:round;}
  </style>
 </defs>
 <g id="figure_1">
  <g id="patch_1">
   <path d="M 0 710.64 
L 720 710.64 
L 720 0 
L 0 0 
z
" style="fill:#ffffff;"/>
  </g>
  <g id="axes_1">
   <g id="patch_2">
    <path d="M 90 334.0008 
L 648 334.0008 
L 648 85.2768 
L 90 85.2768 
z
" style="fill:#ffffff;"/>
   </g>
   <g id="matplotlib.axis_1">
    <g id="xtick_1">
     <g id="line2d_1">
      <defs>
       <path d="M 0 0 
L 0 3.5 
" id="medaca8cea9" style="stroke:#000000;stroke-width:0.8;"/>
      </defs>
      <g>
       <use style="stroke:#000000;stroke-width:0.8;" x="90" xlink:href="#medaca8cea9" y="334.0008"/>
      </g>
     </g>
    </g>
    <g id="xtick_2">
     <g id="line2d_2">
      <g>
       <use style="stroke:#000000;stroke-width:0.8;" x="201.6" xlink:href="#medaca8cea9" y="334.0008"/>
      </g>
     </g>
    </g>
    <g id="xtick_3">
     <g id="line2d_3">
      <g>
       <use style="stroke:#000000;stroke-width:0.8;" x="313.2" xlink:href="#medaca8cea9" y="334.0008"/>
      </g>
     </g>
    </g>
    <g id="xtick_4">
     <g id="line2d_4">
      <g>
       <use style="stroke:#000000;stroke-width:0.8;" x="424.8" xlink:href="#medaca8cea9" y="334.0008"/>
      </g>
     </g>
    </g>
    <g id="xtick_5">
     <g id="line2d_5">
      <g>
       <use style="stroke:#000000;stroke-width:0.8;" x="536.4" xlink:href="#medaca8cea9" y="334.0008"/>
      </g>
     </g>
    </g>
    <g id="xtick_6">
     <g id="line2d_6">
      <g>
       <use style="stroke:#000000;stroke-width:0.8;" x="648" xlink:href="#medaca8cea9" y="334.0008"/>
      </g>
     </g>
    </g>
    <g id="text_1">
     <!-- purityW -->
     <defs>
      <path d="M 18.109375 8.203125 
L 18.109375 -20.796875 
L 9.078125 -20.796875 
L 9.078125 54.6875 
L 18.109375 54.6875 
L 18.109375 46.390625 
Q 20.953125 51.265625 25.265625 53.625 
Q 29.59375 56 35.59375 56 
Q 45.5625 56 51.78125 48.09375 
Q 58.015625 40.1875 58.015625 27.296875 
Q 58.015625 14.40625 51.78125 6.484375 
Q 45.5625 -1.421875 35.59375 -1.421875 
Q 29.59375 -1.421875 25.265625 0.953125 
Q 20.953125 3.328125 18.109375 8.203125 
z
M 48.6875 27.296875 
Q 48.6875 37.203125 44.609375 42.84375 
Q 40.53125 48.484375 33.40625 48.484375 
Q 26.265625 48.484375 22.1875 42.84375 
Q 18.109375 37.203125 18.109375 27.296875 
Q 18.109375 17.390625 22.1875 11.75 
Q 26.265625 6.109375 33.40625 6.109375 
Q 40.53125 6.109375 44.609375 11.75 
Q 48.6875 17.390625 48.6875 27.296875 
z
" id="DejaVuSans-112"/>
      <path d="M 8.5 21.578125 
L 8.5 54.6875 
L 17.484375 54.6875 
L 17.484375 21.921875 
Q 17.484375 14.15625 20.5 10.265625 
Q 23.53125 6.390625 29.59375 6.390625 
Q 36.859375 6.390625 41.078125 11.03125 
Q 45.3125 15.671875 45.3125 23.6875 
L 45.3125 54.6875 
L 54.296875 54.6875 
L 54.296875 0 
L 45.3125 0 
L 45.3125 8.40625 
Q 42.046875 3.421875 37.71875 1 
Q 33.40625 -1.421875 27.6875 -1.421875 
Q 18.265625 -1.421875 13.375 4.4375 
Q 8.5 10.296875 8.5 21.578125 
z
M 31.109375 56 
z
" id="DejaVuSans-117"/>
      <path d="M 41.109375 46.296875 
Q 39.59375 47.171875 37.8125 47.578125 
Q 36.03125 48 33.890625 48 
Q 26.265625 48 22.1875 43.046875 
Q 18.109375 38.09375 18.109375 28.8125 
L 18.109375 0 
L 9.078125 0 
L 9.078125 54.6875 
L 18.109375 54.6875 
L 18.109375 46.1875 
Q 20.953125 51.171875 25.484375 53.578125 
Q 30.03125 56 36.53125 56 
Q 37.453125 56 38.578125 55.875 
Q 39.703125 55.765625 41.0625 55.515625 
z
" id="DejaVuSans-114"/>
      <path d="M 9.421875 54.6875 
L 18.40625 54.6875 
L 18.40625 0 
L 9.421875 0 
z
M 9.421875 75.984375 
L 18.40625 75.984375 
L 18.40625 64.59375 
L 9.421875 64.59375 
z
" id="DejaVuSans-105"/>
      <path d="M 18.3125 70.21875 
L 18.3125 54.6875 
L 36.8125 54.6875 
L 36.8125 47.703125 
L 18.3125 47.703125 
L 18.3125 18.015625 
Q 18.3125 11.328125 20.140625 9.421875 
Q 21.96875 7.515625 27.59375 7.515625 
L 36.8125 7.515625 
L 36.8125 0 
L 27.59375 0 
Q 17.1875 0 13.234375 3.875 
Q 9.28125 7.765625 9.28125 18.015625 
L 9.28125 47.703125 
L 2.6875 47.703125 
L 2.6875 54.6875 
L 9.28125 54.6875 
L 9.28125 70.21875 
z
" id="DejaVuSans-116"/>
      <path d="M 32.171875 -5.078125 
Q 28.375 -14.84375 24.75 -17.8125 
Q 21.140625 -20.796875 15.09375 -20.796875 
L 7.90625 -20.796875 
L 7.90625 -13.28125 
L 13.1875 -13.28125 
Q 16.890625 -13.28125 18.9375 -11.515625 
Q 21 -9.765625 23.484375 -3.21875 
L 25.09375 0.875 
L 2.984375 54.6875 
L 12.5 54.6875 
L 29.59375 11.921875 
L 46.6875 54.6875 
L 56.203125 54.6875 
z
" id="DejaVuSans-121"/>
      <path d="M 3.328125 72.90625 
L 13.28125 72.90625 
L 28.609375 11.28125 
L 43.890625 72.90625 
L 54.984375 72.90625 
L 70.3125 11.28125 
L 85.59375 72.90625 
L 95.609375 72.90625 
L 77.296875 0 
L 64.890625 0 
L 49.515625 63.28125 
L 33.984375 0 
L 21.578125 0 
z
" id="DejaVuSans-87"/>
     </defs>
     <g transform="translate(318.065175 357.69595)scale(0.2592 -0.2592)">
      <use xlink:href="#DejaVuSans-112"/>
      <use x="63.476562" xlink:href="#DejaVuSans-117"/>
      <use x="126.855469" xlink:href="#DejaVuSans-114"/>
      <use x="167.96875" xlink:href="#DejaVuSans-105"/>
      <use x="195.751953" xlink:href="#DejaVuSans-116"/>
      <use x="234.960938" xlink:href="#DejaVuSans-121"/>
      <use x="294.140625" xlink:href="#DejaVuSans-87"/>
     </g>
    </g>
   </g>
   <g id="matplotlib.axis_2">
    <g id="ytick_1">
     <g id="line2d_7">
      <defs>
       <path d="M 0 0 
L -3.5 0 
" id="m5654f26b13" style="stroke:#000000;stroke-width:0.8;"/>
      </defs>
      <g>
       <use style="stroke:#000000;stroke-width:0.8;" x="90" xlink:href="#m5654f26b13" y="334.0008"/>
      </g>
     </g>
     <g id="text_2">
      <!-- 0.0 -->
      <defs>
       <path d="M 31.78125 66.40625 
Q 24.171875 66.40625 20.328125 58.90625 
Q 16.5 51.421875 16.5 36.375 
Q 16.5 21.390625 20.328125 13.890625 
Q 24.171875 6.390625 31.78125 6.390625 
Q 39.453125 6.390625 43.28125 13.890625 
Q 47.125 21.390625 47.125 36.375 
Q 47.125 51.421875 43.28125 58.90625 
Q 39.453125 66.40625 31.78125 66.40625 
z
M 31.78125 74.21875 
Q 44.046875 74.21875 50.515625 64.515625 
Q 56.984375 54.828125 56.984375 36.375 
Q 56.984375 17.96875 50.515625 8.265625 
Q 44.046875 -1.421875 31.78125 -1.421875 
Q 19.53125 -1.421875 13.0625 8.265625 
Q 6.59375 17.96875 6.59375 36.375 
Q 6.59375 54.828125 13.0625 64.515625 
Q 19.53125 74.21875 31.78125 74.21875 
z
" id="DejaVuSans-48"/>
       <path d="M 10.6875 12.40625 
L 21 12.40625 
L 21 0 
L 10.6875 0 
z
" id="DejaVuSans-46"/>
      </defs>
      <g transform="translate(41.7791 343.848375)scale(0.2592 -0.2592)">
       <use xlink:href="#DejaVuSans-48"/>
       <use x="63.623047" xlink:href="#DejaVuSans-46"/>
       <use x="95.410156" xlink:href="#DejaVuSans-48"/>
      </g>
     </g>
    </g>
    <g id="ytick_2">
     <g id="line2d_8">
      <g>
       <use style="stroke:#000000;stroke-width:0.8;" x="90" xlink:href="#m5654f26b13" y="210.870107"/>
      </g>
     </g>
     <g id="text_3">
      <!-- 0.5 -->
      <defs>
       <path d="M 10.796875 72.90625 
L 49.515625 72.90625 
L 49.515625 64.59375 
L 19.828125 64.59375 
L 19.828125 46.734375 
Q 21.96875 47.46875 24.109375 47.828125 
Q 26.265625 48.1875 28.421875 48.1875 
Q 40.625 48.1875 47.75 41.5 
Q 54.890625 34.8125 54.890625 23.390625 
Q 54.890625 11.625 47.5625 5.09375 
Q 40.234375 -1.421875 26.90625 -1.421875 
Q 22.3125 -1.421875 17.546875 -0.640625 
Q 12.796875 0.140625 7.71875 1.703125 
L 7.71875 11.625 
Q 12.109375 9.234375 16.796875 8.0625 
Q 21.484375 6.890625 26.703125 6.890625 
Q 35.15625 6.890625 40.078125 11.328125 
Q 45.015625 15.765625 45.015625 23.390625 
Q 45.015625 31 40.078125 35.4375 
Q 35.15625 39.890625 26.703125 39.890625 
Q 22.75 39.890625 18.8125 39.015625 
Q 14.890625 38.140625 10.796875 36.28125 
z
" id="DejaVuSans-53"/>
      </defs>
      <g transform="translate(41.7791 220.717682)scale(0.2592 -0.2592)">
       <use xlink:href="#DejaVuSans-48"/>
       <use x="63.623047" xlink:href="#DejaVuSans-46"/>
       <use x="95.410156" xlink:href="#DejaVuSans-53"/>
      </g>
     </g>
    </g>
    <g id="ytick_3">
     <g id="line2d_9">
      <g>
       <use style="stroke:#000000;stroke-width:0.8;" x="90" xlink:href="#m5654f26b13" y="87.739414"/>
      </g>
     </g>
     <g id="text_4">
      <!-- 1.0 -->
      <defs>
       <path d="M 12.40625 8.296875 
L 28.515625 8.296875 
L 28.515625 63.921875 
L 10.984375 60.40625 
L 10.984375 69.390625 
L 28.421875 72.90625 
L 38.28125 72.90625 
L 38.28125 8.296875 
L 54.390625 8.296875 
L 54.390625 0 
L 12.40625 0 
z
" id="DejaVuSans-49"/>
      </defs>
      <g transform="translate(41.7791 97.586989)scale(0.2592 -0.2592)">
       <use xlink:href="#DejaVuSans-49"/>
       <use x="63.623047" xlink:href="#DejaVuSans-46"/>
       <use x="95.410156" xlink:href="#DejaVuSans-48"/>
      </g>
     </g>
    </g>
    <g id="text_5">
     <!-- Fraction -->
     <defs>
      <path d="M 9.8125 72.90625 
L 51.703125 72.90625 
L 51.703125 64.59375 
L 19.671875 64.59375 
L 19.671875 43.109375 
L 48.578125 43.109375 
L 48.578125 34.8125 
L 19.671875 34.8125 
L 19.671875 0 
L 9.8125 0 
z
" id="DejaVuSans-70"/>
      <path d="M 34.28125 27.484375 
Q 23.390625 27.484375 19.1875 25 
Q 14.984375 22.515625 14.984375 16.5 
Q 14.984375 11.71875 18.140625 8.90625 
Q 21.296875 6.109375 26.703125 6.109375 
Q 34.1875 6.109375 38.703125 11.40625 
Q 43.21875 16.703125 43.21875 25.484375 
L 43.21875 27.484375 
z
M 52.203125 31.203125 
L 52.203125 0 
L 43.21875 0 
L 43.21875 8.296875 
Q 40.140625 3.328125 35.546875 0.953125 
Q 30.953125 -1.421875 24.3125 -1.421875 
Q 15.921875 -1.421875 10.953125 3.296875 
Q 6 8.015625 6 15.921875 
Q 6 25.140625 12.171875 29.828125 
Q 18.359375 34.515625 30.609375 34.515625 
L 43.21875 34.515625 
L 43.21875 35.40625 
Q 43.21875 41.609375 39.140625 45 
Q 35.0625 48.390625 27.6875 48.390625 
Q 23 48.390625 18.546875 47.265625 
Q 14.109375 46.140625 10.015625 43.890625 
L 10.015625 52.203125 
Q 14.9375 54.109375 19.578125 55.046875 
Q 24.21875 56 28.609375 56 
Q 40.484375 56 46.34375 49.84375 
Q 52.203125 43.703125 52.203125 31.203125 
z
" id="DejaVuSans-97"/>
      <path d="M 48.78125 52.59375 
L 48.78125 44.1875 
Q 44.96875 46.296875 41.140625 47.34375 
Q 37.3125 48.390625 33.40625 48.390625 
Q 24.65625 48.390625 19.8125 42.84375 
Q 14.984375 37.3125 14.984375 27.296875 
Q 14.984375 17.28125 19.8125 11.734375 
Q 24.65625 6.203125 33.40625 6.203125 
Q 37.3125 6.203125 41.140625 7.25 
Q 44.96875 8.296875 48.78125 10.40625 
L 48.78125 2.09375 
Q 45.015625 0.34375 40.984375 -0.53125 
Q 36.96875 -1.421875 32.421875 -1.421875 
Q 20.0625 -1.421875 12.78125 6.34375 
Q 5.515625 14.109375 5.515625 27.296875 
Q 5.515625 40.671875 12.859375 48.328125 
Q 20.21875 56 33.015625 56 
Q 37.15625 56 41.109375 55.140625 
Q 45.0625 54.296875 48.78125 52.59375 
z
" id="DejaVuSans-99"/>
      <path d="M 30.609375 48.390625 
Q 23.390625 48.390625 19.1875 42.75 
Q 14.984375 37.109375 14.984375 27.296875 
Q 14.984375 17.484375 19.15625 11.84375 
Q 23.34375 6.203125 30.609375 6.203125 
Q 37.796875 6.203125 41.984375 11.859375 
Q 46.1875 17.53125 46.1875 27.296875 
Q 46.1875 37.015625 41.984375 42.703125 
Q 37.796875 48.390625 30.609375 48.390625 
z
M 30.609375 56 
Q 42.328125 56 49.015625 48.375 
Q 55.71875 40.765625 55.71875 27.296875 
Q 55.71875 13.875 49.015625 6.21875 
Q 42.328125 -1.421875 30.609375 -1.421875 
Q 18.84375 -1.421875 12.171875 6.21875 
Q 5.515625 13.875 5.515625 27.296875 
Q 5.515625 40.765625 12.171875 48.375 
Q 18.84375 56 30.609375 56 
z
" id="DejaVuSans-111"/>
      <path d="M 54.890625 33.015625 
L 54.890625 0 
L 45.90625 0 
L 45.90625 32.71875 
Q 45.90625 40.484375 42.875 44.328125 
Q 39.84375 48.1875 33.796875 48.1875 
Q 26.515625 48.1875 22.3125 43.546875 
Q 18.109375 38.921875 18.109375 30.90625 
L 18.109375 0 
L 9.078125 0 
L 9.078125 54.6875 
L 18.109375 54.6875 
L 18.109375 46.1875 
Q 21.34375 51.125 25.703125 53.5625 
Q 30.078125 56 35.796875 56 
Q 45.21875 56 50.046875 50.171875 
Q 54.890625 44.34375 54.890625 33.015625 
z
" id="DejaVuSans-110"/>
     </defs>
     <g transform="translate(32.38855 262.298925)rotate(-90)scale(0.2592 -0.2592)">
      <use xlink:href="#DejaVuSans-70"/>
      <use x="57.410156" xlink:href="#DejaVuSans-114"/>
      <use x="98.523438" xlink:href="#DejaVuSans-97"/>
      <use x="159.802734" xlink:href="#DejaVuSans-99"/>
      <use x="214.783203" xlink:href="#DejaVuSans-116"/>
      <use x="253.992188" xlink:href="#DejaVuSans-105"/>
      <use x="281.775391" xlink:href="#DejaVuSans-111"/>
      <use x="342.957031" xlink:href="#DejaVuSans-110"/>
     </g>
    </g>
   </g>
   <g id="LineCollection_1">
    <path clip-path="url(#p1b7ad5cae8)" d="M 97.153846 140.948221 
L 97.153846 114.942487 
" style="fill:none;stroke:#008000;stroke-width:1.5;"/>
    <path clip-path="url(#p1b7ad5cae8)" d="M 111.461538 131.47236 
L 111.461538 88.781265 
" style="fill:none;stroke:#008000;stroke-width:1.5;"/>
    <path clip-path="url(#p1b7ad5cae8)" d="M 125.769231 173.148917 
L 125.769231 125.460604 
" style="fill:none;stroke:#008000;stroke-width:1.5;"/>
    <path clip-path="url(#p1b7ad5cae8)" d="M 140.076923 209.892629 
L 140.076923 150.282238 
" style="fill:none;stroke:#008000;stroke-width:1.5;"/>
    <path clip-path="url(#p1b7ad5cae8)" d="M 154.384615 197.852098 
L 154.384615 148.938998 
" style="fill:none;stroke:#008000;stroke-width:1.5;"/>
    <path clip-path="url(#p1b7ad5cae8)" d="M 168.692308 166.750414 
L 168.692308 127.613221 
" style="fill:none;stroke:#008000;stroke-width:1.5;"/>
    <path clip-path="url(#p1b7ad5cae8)" d="M 183 153.642 
L 183 120.341382 
" style="fill:none;stroke:#008000;stroke-width:1.5;"/>
    <path clip-path="url(#p1b7ad5cae8)" d="M 197.307692 129.127143 
L 197.307692 102.640002 
" style="fill:none;stroke:#008000;stroke-width:1.5;"/>
    <path clip-path="url(#p1b7ad5cae8)" d="M 211.615385 177.577392 
L 211.615385 145.658268 
" style="fill:none;stroke:#008000;stroke-width:1.5;"/>
    <path clip-path="url(#p1b7ad5cae8)" d="M 225.923077 160.16727 
L 225.923077 134.924231 
" style="fill:none;stroke:#008000;stroke-width:1.5;"/>
    <path clip-path="url(#p1b7ad5cae8)" d="M 240.230769 181.798606 
L 240.230769 152.558535 
" style="fill:none;stroke:#008000;stroke-width:1.5;"/>
    <path clip-path="url(#p1b7ad5cae8)" d="M 254.538462 166.795658 
L 254.538462 142.454786 
" style="fill:none;stroke:#008000;stroke-width:1.5;"/>
    <path clip-path="url(#p1b7ad5cae8)" d="M 268.846154 190.654959 
L 268.846154 166.279627 
" style="fill:none;stroke:#008000;stroke-width:1.5;"/>
    <path clip-path="url(#p1b7ad5cae8)" d="M 283.153846 152.470856 
L 283.153846 133.401007 
" style="fill:none;stroke:#008000;stroke-width:1.5;"/>
    <path clip-path="url(#p1b7ad5cae8)" d="M 297.461538 158.191751 
L 297.461538 139.463268 
" style="fill:none;stroke:#008000;stroke-width:1.5;"/>
    <path clip-path="url(#p1b7ad5cae8)" d="M 311.769231 142.928878 
L 311.769231 127.140416 
" style="fill:none;stroke:#008000;stroke-width:1.5;"/>
    <path clip-path="url(#p1b7ad5cae8)" d="M 326.076923 137.722086 
L 326.076923 123.284648 
" style="fill:none;stroke:#008000;stroke-width:1.5;"/>
    <path clip-path="url(#p1b7ad5cae8)" d="M 340.384615 134.212897 
L 340.384615 121.269629 
" style="fill:none;stroke:#008000;stroke-width:1.5;"/>
    <path clip-path="url(#p1b7ad5cae8)" d="M 354.692308 134.141403 
L 354.692308 122.793114 
" style="fill:none;stroke:#008000;stroke-width:1.5;"/>
    <path clip-path="url(#p1b7ad5cae8)" d="M 369 139.741486 
L 369 128.085361 
" style="fill:none;stroke:#008000;stroke-width:1.5;"/>
    <path clip-path="url(#p1b7ad5cae8)" d="M 383.307692 129.032843 
L 383.307692 118.387513 
" style="fill:none;stroke:#008000;stroke-width:1.5;"/>
    <path clip-path="url(#p1b7ad5cae8)" d="M 397.615385 124.628859 
L 397.615385 115.539527 
" style="fill:none;stroke:#008000;stroke-width:1.5;"/>
    <path clip-path="url(#p1b7ad5cae8)" d="M 411.923077 121.219303 
L 411.923077 112.466761 
" style="fill:none;stroke:#008000;stroke-width:1.5;"/>
    <path clip-path="url(#p1b7ad5cae8)" d="M 426.230769 125.387327 
L 426.230769 116.787293 
" style="fill:none;stroke:#008000;stroke-width:1.5;"/>
    <path clip-path="url(#p1b7ad5cae8)" d="M 440.538462 118.676457 
L 440.538462 110.812701 
" style="fill:none;stroke:#008000;stroke-width:1.5;"/>
    <path clip-path="url(#p1b7ad5cae8)" d="M 454.846154 108.789467 
L 454.846154 101.869559 
" style="fill:none;stroke:#008000;stroke-width:1.5;"/>
    <path clip-path="url(#p1b7ad5cae8)" d="M 469.153846 107.578817 
L 469.153846 101.634447 
" style="fill:none;stroke:#008000;stroke-width:1.5;"/>
    <path clip-path="url(#p1b7ad5cae8)" d="M 483.461538 106.562583 
L 483.461538 100.992307 
" style="fill:none;stroke:#008000;stroke-width:1.5;"/>
    <path clip-path="url(#p1b7ad5cae8)" d="M 497.769231 106.758335 
L 497.769231 101.052403 
" style="fill:none;stroke:#008000;stroke-width:1.5;"/>
    <path clip-path="url(#p1b7ad5cae8)" d="M 512.076923 100.892545 
L 512.076923 96.516796 
" style="fill:none;stroke:#008000;stroke-width:1.5;"/>
    <path clip-path="url(#p1b7ad5cae8)" d="M 526.384615 93.577067 
L 526.384615 90.980522 
" style="fill:none;stroke:#008000;stroke-width:1.5;"/>
    <path clip-path="url(#p1b7ad5cae8)" d="M 540.692308 95.300513 
L 540.692308 92.507607 
" style="fill:none;stroke:#008000;stroke-width:1.5;"/>
    <path clip-path="url(#p1b7ad5cae8)" d="M 555 93.396626 
L 555 91.150515 
" style="fill:none;stroke:#008000;stroke-width:1.5;"/>
    <path clip-path="url(#p1b7ad5cae8)" d="M 569.307692 90.70171 
L 569.307692 89.283273 
" style="fill:none;stroke:#008000;stroke-width:1.5;"/>
    <path clip-path="url(#p1b7ad5cae8)" d="M 583.615385 89.131362 
L 583.615385 88.325469 
" style="fill:none;stroke:#008000;stroke-width:1.5;"/>
    <path clip-path="url(#p1b7ad5cae8)" d="M 597.923077 89.357956 
L 597.923077 88.609503 
" style="fill:none;stroke:#008000;stroke-width:1.5;"/>
    <path clip-path="url(#p1b7ad5cae8)" d="M 612.230769 88.385079 
L 612.230769 88.031122 
" style="fill:none;stroke:#008000;stroke-width:1.5;"/>
    <path clip-path="url(#p1b7ad5cae8)" d="M 626.538462 88.093357 
L 626.538462 87.908527 
" style="fill:none;stroke:#008000;stroke-width:1.5;"/>
    <path clip-path="url(#p1b7ad5cae8)" d="M 640.846154 87.836855 
L 640.846154 87.7719 
" style="fill:none;stroke:#008000;stroke-width:1.5;"/>
   </g>
   <g id="LineCollection_2">
    <path clip-path="url(#p1b7ad5cae8)" d="M 97.153846 128.864635 
L 97.153846 109.489441 
" style="fill:none;stroke:#ff0000;stroke-width:1.5;"/>
    <path clip-path="url(#p1b7ad5cae8)" d="M 111.461538 87.739414 
L 111.461538 87.739414 
" style="fill:none;stroke:#ff0000;stroke-width:1.5;"/>
    <path clip-path="url(#p1b7ad5cae8)" d="M 125.769231 119.674081 
L 125.769231 113.748602 
" style="fill:none;stroke:#ff0000;stroke-width:1.5;"/>
    <path clip-path="url(#p1b7ad5cae8)" d="M 154.384615 132.913544 
L 154.384615 100.50914 
" style="fill:none;stroke:#ff0000;stroke-width:1.5;"/>
    <path clip-path="url(#p1b7ad5cae8)" d="M 168.692308 87.739414 
L 168.692308 87.739414 
" style="fill:none;stroke:#ff0000;stroke-width:1.5;"/>
    <path clip-path="url(#p1b7ad5cae8)" d="M 183 104.182084 
L 183 88.280287 
" style="fill:none;stroke:#ff0000;stroke-width:1.5;"/>
    <path clip-path="url(#p1b7ad5cae8)" d="M 197.307692 102.774078 
L 197.307692 88.096087 
" style="fill:none;stroke:#ff0000;stroke-width:1.5;"/>
    <path clip-path="url(#p1b7ad5cae8)" d="M 211.615385 109.663535 
L 211.615385 92.438145 
" style="fill:none;stroke:#ff0000;stroke-width:1.5;"/>
    <path clip-path="url(#p1b7ad5cae8)" d="M 225.923077 128.644247 
L 225.923077 111.427732 
" style="fill:none;stroke:#ff0000;stroke-width:1.5;"/>
    <path clip-path="url(#p1b7ad5cae8)" d="M 240.230769 112.740178 
L 240.230769 95.573501 
" style="fill:none;stroke:#ff0000;stroke-width:1.5;"/>
    <path clip-path="url(#p1b7ad5cae8)" d="M 254.538462 95.883717 
L 254.538462 87.803824 
" style="fill:none;stroke:#ff0000;stroke-width:1.5;"/>
    <path clip-path="url(#p1b7ad5cae8)" d="M 268.846154 110.281527 
L 268.846154 95.979974 
" style="fill:none;stroke:#ff0000;stroke-width:1.5;"/>
    <path clip-path="url(#p1b7ad5cae8)" d="M 283.153846 121.312711 
L 283.153846 107.807211 
" style="fill:none;stroke:#ff0000;stroke-width:1.5;"/>
    <path clip-path="url(#p1b7ad5cae8)" d="M 297.461538 123.328076 
L 297.461538 110.357989 
" style="fill:none;stroke:#ff0000;stroke-width:1.5;"/>
    <path clip-path="url(#p1b7ad5cae8)" d="M 311.769231 121.899484 
L 311.769231 110.683433 
" style="fill:none;stroke:#ff0000;stroke-width:1.5;"/>
    <path clip-path="url(#p1b7ad5cae8)" d="M 326.076923 112.30555 
L 326.076923 102.5751 
" style="fill:none;stroke:#ff0000;stroke-width:1.5;"/>
    <path clip-path="url(#p1b7ad5cae8)" d="M 340.384615 114.115301 
L 340.384615 104.901451 
" style="fill:none;stroke:#ff0000;stroke-width:1.5;"/>
    <path clip-path="url(#p1b7ad5cae8)" d="M 354.692308 113.429331 
L 354.692308 105.507388 
" style="fill:none;stroke:#ff0000;stroke-width:1.5;"/>
    <path clip-path="url(#p1b7ad5cae8)" d="M 369 106.973648 
L 369 99.809593 
" style="fill:none;stroke:#ff0000;stroke-width:1.5;"/>
    <path clip-path="url(#p1b7ad5cae8)" d="M 383.307692 109.541284 
L 383.307692 101.975796 
" style="fill:none;stroke:#ff0000;stroke-width:1.5;"/>
    <path clip-path="url(#p1b7ad5cae8)" d="M 397.615385 107.442422 
L 397.615385 101.186977 
" style="fill:none;stroke:#ff0000;stroke-width:1.5;"/>
    <path clip-path="url(#p1b7ad5cae8)" d="M 411.923077 102.638702 
L 411.923077 96.983399 
" style="fill:none;stroke:#ff0000;stroke-width:1.5;"/>
    <path clip-path="url(#p1b7ad5cae8)" d="M 426.230769 101.627049 
L 426.230769 96.496504 
" style="fill:none;stroke:#ff0000;stroke-width:1.5;"/>
    <path clip-path="url(#p1b7ad5cae8)" d="M 440.538462 99.109093 
L 440.538462 94.456729 
" style="fill:none;stroke:#ff0000;stroke-width:1.5;"/>
    <path clip-path="url(#p1b7ad5cae8)" d="M 454.846154 95.096988 
L 454.846154 91.18955 
" style="fill:none;stroke:#ff0000;stroke-width:1.5;"/>
    <path clip-path="url(#p1b7ad5cae8)" d="M 469.153846 102.135399 
L 469.153846 97.452935 
" style="fill:none;stroke:#ff0000;stroke-width:1.5;"/>
    <path clip-path="url(#p1b7ad5cae8)" d="M 483.461538 92.947062 
L 483.461538 90.159331 
" style="fill:none;stroke:#ff0000;stroke-width:1.5;"/>
    <path clip-path="url(#p1b7ad5cae8)" d="M 497.769231 96.288509 
L 497.769231 92.653356 
" style="fill:none;stroke:#ff0000;stroke-width:1.5;"/>
    <path clip-path="url(#p1b7ad5cae8)" d="M 512.076923 97.364089 
L 512.076923 93.853248 
" style="fill:none;stroke:#ff0000;stroke-width:1.5;"/>
    <path clip-path="url(#p1b7ad5cae8)" d="M 526.384615 95.162774 
L 526.384615 92.347145 
" style="fill:none;stroke:#ff0000;stroke-width:1.5;"/>
    <path clip-path="url(#p1b7ad5cae8)" d="M 540.692308 92.387677 
L 540.692308 90.305199 
" style="fill:none;stroke:#ff0000;stroke-width:1.5;"/>
    <path clip-path="url(#p1b7ad5cae8)" d="M 555 93.343783 
L 555 91.203358 
" style="fill:none;stroke:#ff0000;stroke-width:1.5;"/>
    <path clip-path="url(#p1b7ad5cae8)" d="M 569.307692 93.14636 
L 569.307692 91.263071 
" style="fill:none;stroke:#ff0000;stroke-width:1.5;"/>
    <path clip-path="url(#p1b7ad5cae8)" d="M 583.615385 90.98897 
L 583.615385 89.729461 
" style="fill:none;stroke:#ff0000;stroke-width:1.5;"/>
    <path clip-path="url(#p1b7ad5cae8)" d="M 597.923077 91.08685 
L 597.923077 90.011818 
" style="fill:none;stroke:#ff0000;stroke-width:1.5;"/>
    <path clip-path="url(#p1b7ad5cae8)" d="M 612.230769 90.301527 
L 612.230769 89.565327 
" style="fill:none;stroke:#ff0000;stroke-width:1.5;"/>
    <path clip-path="url(#p1b7ad5cae8)" d="M 626.538462 90.065675 
L 626.538462 89.566725 
" style="fill:none;stroke:#ff0000;stroke-width:1.5;"/>
    <path clip-path="url(#p1b7ad5cae8)" d="M 640.846154 88.557584 
L 640.846154 88.346686 
" style="fill:none;stroke:#ff0000;stroke-width:1.5;"/>
   </g>
   <g id="LineCollection_3">
    <path clip-path="url(#p1b7ad5cae8)" d="M 97.153846 168.191911 
L 97.153846 140.308699 
" style="fill:none;stroke:#0000ff;stroke-width:1.5;"/>
    <path clip-path="url(#p1b7ad5cae8)" d="M 111.461538 131.47236 
L 111.461538 88.781265 
" style="fill:none;stroke:#0000ff;stroke-width:1.5;"/>
    <path clip-path="url(#p1b7ad5cae8)" d="M 125.769231 192.189685 
L 125.769231 149.877728 
" style="fill:none;stroke:#0000ff;stroke-width:1.5;"/>
    <path clip-path="url(#p1b7ad5cae8)" d="M 154.384615 216.317783 
L 154.384615 168.262784 
" style="fill:none;stroke:#0000ff;stroke-width:1.5;"/>
    <path clip-path="url(#p1b7ad5cae8)" d="M 168.692308 166.750414 
L 168.692308 127.613221 
" style="fill:none;stroke:#0000ff;stroke-width:1.5;"/>
    <path clip-path="url(#p1b7ad5cae8)" d="M 183 161.073881 
L 183 126.496336 
" style="fill:none;stroke:#0000ff;stroke-width:1.5;"/>
    <path clip-path="url(#p1b7ad5cae8)" d="M 197.307692 137.082181 
L 197.307692 108.31729 
" style="fill:none;stroke:#0000ff;stroke-width:1.5;"/>
    <path clip-path="url(#p1b7ad5cae8)" d="M 211.615385 187.192007 
L 211.615385 154.679649 
" style="fill:none;stroke:#0000ff;stroke-width:1.5;"/>
    <path clip-path="url(#p1b7ad5cae8)" d="M 225.923077 184.755774 
L 225.923077 159.24197 
" style="fill:none;stroke:#0000ff;stroke-width:1.5;"/>
    <path clip-path="url(#p1b7ad5cae8)" d="M 240.230769 193.132607 
L 240.230769 163.467498 
" style="fill:none;stroke:#0000ff;stroke-width:1.5;"/>
    <path clip-path="url(#p1b7ad5cae8)" d="M 254.538462 169.938885 
L 254.538462 145.290746 
" style="fill:none;stroke:#0000ff;stroke-width:1.5;"/>
    <path clip-path="url(#p1b7ad5cae8)" d="M 268.846154 200.47426 
L 268.846154 175.902014 
" style="fill:none;stroke:#0000ff;stroke-width:1.5;"/>
    <path clip-path="url(#p1b7ad5cae8)" d="M 283.153846 173.726921 
L 283.153846 153.763033 
" style="fill:none;stroke:#0000ff;stroke-width:1.5;"/>
    <path clip-path="url(#p1b7ad5cae8)" d="M 297.461538 180.30152 
L 297.461538 161.121732 
" style="fill:none;stroke:#0000ff;stroke-width:1.5;"/>
    <path clip-path="url(#p1b7ad5cae8)" d="M 311.769231 166.423986 
L 311.769231 149.782387 
" style="fill:none;stroke:#0000ff;stroke-width:1.5;"/>
    <path clip-path="url(#p1b7ad5cae8)" d="M 326.076923 154.546484 
L 326.076923 139.01984 
" style="fill:none;stroke:#0000ff;stroke-width:1.5;"/>
    <path clip-path="url(#p1b7ad5cae8)" d="M 340.384615 153.023512 
L 340.384615 138.92479 
" style="fill:none;stroke:#0000ff;stroke-width:1.5;"/>
    <path clip-path="url(#p1b7ad5cae8)" d="M 354.692308 152.742102 
L 354.692308 140.46304 
" style="fill:none;stroke:#0000ff;stroke-width:1.5;"/>
    <path clip-path="url(#p1b7ad5cae8)" d="M 369 152.816 
L 369 140.445683 
" style="fill:none;stroke:#0000ff;stroke-width:1.5;"/>
    <path clip-path="url(#p1b7ad5cae8)" d="M 383.307692 144.993968 
L 383.307692 133.200626 
" style="fill:none;stroke:#0000ff;stroke-width:1.5;"/>
    <path clip-path="url(#p1b7ad5cae8)" d="M 397.615385 139.51719 
L 397.615385 129.447662 
" style="fill:none;stroke:#0000ff;stroke-width:1.5;"/>
    <path clip-path="url(#p1b7ad5cae8)" d="M 411.923077 132.339573 
L 411.923077 122.636468 
" style="fill:none;stroke:#0000ff;stroke-width:1.5;"/>
    <path clip-path="url(#p1b7ad5cae8)" d="M 426.230769 135.539915 
L 426.230769 126.212957 
" style="fill:none;stroke:#0000ff;stroke-width:1.5;"/>
    <path clip-path="url(#p1b7ad5cae8)" d="M 440.538462 127.113128 
L 440.538462 118.479594 
" style="fill:none;stroke:#0000ff;stroke-width:1.5;"/>
    <path clip-path="url(#p1b7ad5cae8)" d="M 454.846154 114.187022 
L 454.846154 106.507734 
" style="fill:none;stroke:#0000ff;stroke-width:1.5;"/>
    <path clip-path="url(#p1b7ad5cae8)" d="M 469.153846 119.405928 
L 469.153846 112.265506 
" style="fill:none;stroke:#0000ff;stroke-width:1.5;"/>
    <path clip-path="url(#p1b7ad5cae8)" d="M 483.461538 110.378742 
L 483.461538 104.30696 
" style="fill:none;stroke:#0000ff;stroke-width:1.5;"/>
    <path clip-path="url(#p1b7ad5cae8)" d="M 497.769231 113.448393 
L 497.769231 106.941595 
" style="fill:none;stroke:#0000ff;stroke-width:1.5;"/>
    <path clip-path="url(#p1b7ad5cae8)" d="M 512.076923 108.925189 
L 512.076923 103.521875 
" style="fill:none;stroke:#0000ff;stroke-width:1.5;"/>
    <path clip-path="url(#p1b7ad5cae8)" d="M 526.384615 100.057946 
L 526.384615 96.308962 
" style="fill:none;stroke:#0000ff;stroke-width:1.5;"/>
    <path clip-path="url(#p1b7ad5cae8)" d="M 540.692308 99.130746 
L 540.692308 95.710834 
" style="fill:none;stroke:#0000ff;stroke-width:1.5;"/>
    <path clip-path="url(#p1b7ad5cae8)" d="M 555 98.247006 
L 555 95.201483 
" style="fill:none;stroke:#0000ff;stroke-width:1.5;"/>
    <path clip-path="url(#p1b7ad5cae8)" d="M 569.307692 95.581182 
L 569.307692 93.252697 
" style="fill:none;stroke:#0000ff;stroke-width:1.5;"/>
    <path clip-path="url(#p1b7ad5cae8)" d="M 583.615385 92.080893 
L 583.615385 90.594499 
" style="fill:none;stroke:#0000ff;stroke-width:1.5;"/>
    <path clip-path="url(#p1b7ad5cae8)" d="M 597.923077 92.429743 
L 597.923077 91.12916 
" style="fill:none;stroke:#0000ff;stroke-width:1.5;"/>
    <path clip-path="url(#p1b7ad5cae8)" d="M 612.230769 90.80506 
L 612.230769 89.990817 
" style="fill:none;stroke:#0000ff;stroke-width:1.5;"/>
    <path clip-path="url(#p1b7ad5cae8)" d="M 626.538462 90.341046 
L 626.538462 89.809999 
" style="fill:none;stroke:#0000ff;stroke-width:1.5;"/>
    <path clip-path="url(#p1b7ad5cae8)" d="M 640.846154 88.627194 
L 640.846154 88.406628 
" style="fill:none;stroke:#0000ff;stroke-width:1.5;"/>
   </g>
   <g id="line2d_10">
    <path clip-path="url(#p1b7ad5cae8)" d="M 90 127.945354 
L 104.307692 127.945354 
L 104.307692 110.126813 
L 118.615385 110.126813 
L 118.615385 149.30476 
L 132.923077 149.30476 
L 132.923077 180.087434 
L 147.230769 180.087434 
L 147.230769 173.395548 
L 161.538462 173.395548 
L 161.538462 147.181817 
L 175.846154 147.181817 
L 175.846154 136.991691 
L 190.153846 136.991691 
L 190.153846 115.883572 
L 204.461538 115.883572 
L 204.461538 161.61783 
L 218.769231 161.61783 
L 218.769231 147.54575 
L 233.076923 147.54575 
L 233.076923 167.178571 
L 247.384615 167.178571 
L 247.384615 154.625222 
L 261.692308 154.625222 
L 261.692308 178.467293 
L 276 178.467293 
L 276 142.935931 
L 290.307692 142.935931 
L 290.307692 148.82751 
L 304.615385 148.82751 
L 304.615385 135.034647 
L 318.923077 135.034647 
L 318.923077 130.503367 
L 333.230769 130.503367 
L 333.230769 127.741263 
L 347.538462 127.741263 
L 347.538462 128.467258 
L 361.846154 128.467258 
L 361.846154 133.913424 
L 376.153846 133.913424 
L 376.153846 123.710178 
L 390.461538 123.710178 
L 390.461538 120.084193 
L 404.769231 120.084193 
L 404.769231 116.843032 
L 419.076923 116.843032 
L 419.076923 121.08731 
L 433.384615 121.08731 
L 433.384615 114.744579 
L 447.692308 114.744579 
L 447.692308 105.329513 
L 462 105.329513 
L 462 104.606632 
L 476.307692 104.606632 
L 476.307692 103.777445 
L 490.615385 103.777445 
L 490.615385 103.905369 
L 504.923077 103.905369 
L 504.923077 98.70467 
L 519.230769 98.70467 
L 519.230769 92.278794 
L 533.538462 92.278794 
L 533.538462 93.90406 
L 547.846154 93.90406 
L 547.846154 92.273571 
L 562.153846 92.273571 
L 562.153846 89.992492 
L 576.461538 89.992492 
L 576.461538 88.728415 
L 590.769231 88.728415 
L 590.769231 88.98373 
L 605.076923 88.98373 
L 605.076923 88.208101 
L 619.384615 88.208101 
L 619.384615 88.000942 
L 633.692308 88.000942 
L 633.692308 87.804378 
L 648 87.804378 
" style="fill:none;stroke:#008000;stroke-linecap:square;stroke-width:1.5;"/>
   </g>
   <g id="line2d_11">
    <defs>
     <path d="M 2 0 
L -2 -0 
" id="m63b4b34781" style="stroke:#008000;"/>
    </defs>
    <g clip-path="url(#p1b7ad5cae8)">
     <use style="fill:#008000;stroke:#008000;" x="97.153846" xlink:href="#m63b4b34781" y="140.948221"/>
     <use style="fill:#008000;stroke:#008000;" x="111.461538" xlink:href="#m63b4b34781" y="131.47236"/>
     <use style="fill:#008000;stroke:#008000;" x="125.769231" xlink:href="#m63b4b34781" y="173.148917"/>
     <use style="fill:#008000;stroke:#008000;" x="140.076923" xlink:href="#m63b4b34781" y="209.892629"/>
     <use style="fill:#008000;stroke:#008000;" x="154.384615" xlink:href="#m63b4b34781" y="197.852098"/>
     <use style="fill:#008000;stroke:#008000;" x="168.692308" xlink:href="#m63b4b34781" y="166.750414"/>
     <use style="fill:#008000;stroke:#008000;" x="183" xlink:href="#m63b4b34781" y="153.642"/>
     <use style="fill:#008000;stroke:#008000;" x="197.307692" xlink:href="#m63b4b34781" y="129.127143"/>
     <use style="fill:#008000;stroke:#008000;" x="211.615385" xlink:href="#m63b4b34781" y="177.577392"/>
     <use style="fill:#008000;stroke:#008000;" x="225.923077" xlink:href="#m63b4b34781" y="160.16727"/>
     <use style="fill:#008000;stroke:#008000;" x="240.230769" xlink:href="#m63b4b34781" y="181.798606"/>
     <use style="fill:#008000;stroke:#008000;" x="254.538462" xlink:href="#m63b4b34781" y="166.795658"/>
     <use style="fill:#008000;stroke:#008000;" x="268.846154" xlink:href="#m63b4b34781" y="190.654959"/>
     <use style="fill:#008000;stroke:#008000;" x="283.153846" xlink:href="#m63b4b34781" y="152.470856"/>
     <use style="fill:#008000;stroke:#008000;" x="297.461538" xlink:href="#m63b4b34781" y="158.191751"/>
     <use style="fill:#008000;stroke:#008000;" x="311.769231" xlink:href="#m63b4b34781" y="142.928878"/>
     <use style="fill:#008000;stroke:#008000;" x="326.076923" xlink:href="#m63b4b34781" y="137.722086"/>
     <use style="fill:#008000;stroke:#008000;" x="340.384615" xlink:href="#m63b4b34781" y="134.212897"/>
     <use style="fill:#008000;stroke:#008000;" x="354.692308" xlink:href="#m63b4b34781" y="134.141403"/>
     <use style="fill:#008000;stroke:#008000;" x="369" xlink:href="#m63b4b34781" y="139.741486"/>
     <use style="fill:#008000;stroke:#008000;" x="383.307692" xlink:href="#m63b4b34781" y="129.032843"/>
     <use style="fill:#008000;stroke:#008000;" x="397.615385" xlink:href="#m63b4b34781" y="124.628859"/>
     <use style="fill:#008000;stroke:#008000;" x="411.923077" xlink:href="#m63b4b34781" y="121.219303"/>
     <use style="fill:#008000;stroke:#008000;" x="426.230769" xlink:href="#m63b4b34781" y="125.387327"/>
     <use style="fill:#008000;stroke:#008000;" x="440.538462" xlink:href="#m63b4b34781" y="118.676457"/>
     <use style="fill:#008000;stroke:#008000;" x="454.846154" xlink:href="#m63b4b34781" y="108.789467"/>
     <use style="fill:#008000;stroke:#008000;" x="469.153846" xlink:href="#m63b4b34781" y="107.578817"/>
     <use style="fill:#008000;stroke:#008000;" x="483.461538" xlink:href="#m63b4b34781" y="106.562583"/>
     <use style="fill:#008000;stroke:#008000;" x="497.769231" xlink:href="#m63b4b34781" y="106.758335"/>
     <use style="fill:#008000;stroke:#008000;" x="512.076923" xlink:href="#m63b4b34781" y="100.892545"/>
     <use style="fill:#008000;stroke:#008000;" x="526.384615" xlink:href="#m63b4b34781" y="93.577067"/>
     <use style="fill:#008000;stroke:#008000;" x="540.692308" xlink:href="#m63b4b34781" y="95.300513"/>
     <use style="fill:#008000;stroke:#008000;" x="555" xlink:href="#m63b4b34781" y="93.396626"/>
     <use style="fill:#008000;stroke:#008000;" x="569.307692" xlink:href="#m63b4b34781" y="90.70171"/>
     <use style="fill:#008000;stroke:#008000;" x="583.615385" xlink:href="#m63b4b34781" y="89.131362"/>
     <use style="fill:#008000;stroke:#008000;" x="597.923077" xlink:href="#m63b4b34781" y="89.357956"/>
     <use style="fill:#008000;stroke:#008000;" x="612.230769" xlink:href="#m63b4b34781" y="88.385079"/>
     <use style="fill:#008000;stroke:#008000;" x="626.538462" xlink:href="#m63b4b34781" y="88.093357"/>
     <use style="fill:#008000;stroke:#008000;" x="640.846154" xlink:href="#m63b4b34781" y="87.836855"/>
    </g>
   </g>
   <g id="line2d_12">
    <g clip-path="url(#p1b7ad5cae8)">
     <use style="fill:#008000;stroke:#008000;" x="97.153846" xlink:href="#m63b4b34781" y="114.942487"/>
     <use style="fill:#008000;stroke:#008000;" x="111.461538" xlink:href="#m63b4b34781" y="88.781265"/>
     <use style="fill:#008000;stroke:#008000;" x="125.769231" xlink:href="#m63b4b34781" y="125.460604"/>
     <use style="fill:#008000;stroke:#008000;" x="140.076923" xlink:href="#m63b4b34781" y="150.282238"/>
     <use style="fill:#008000;stroke:#008000;" x="154.384615" xlink:href="#m63b4b34781" y="148.938998"/>
     <use style="fill:#008000;stroke:#008000;" x="168.692308" xlink:href="#m63b4b34781" y="127.613221"/>
     <use style="fill:#008000;stroke:#008000;" x="183" xlink:href="#m63b4b34781" y="120.341382"/>
     <use style="fill:#008000;stroke:#008000;" x="197.307692" xlink:href="#m63b4b34781" y="102.640002"/>
     <use style="fill:#008000;stroke:#008000;" x="211.615385" xlink:href="#m63b4b34781" y="145.658268"/>
     <use style="fill:#008000;stroke:#008000;" x="225.923077" xlink:href="#m63b4b34781" y="134.924231"/>
     <use style="fill:#008000;stroke:#008000;" x="240.230769" xlink:href="#m63b4b34781" y="152.558535"/>
     <use style="fill:#008000;stroke:#008000;" x="254.538462" xlink:href="#m63b4b34781" y="142.454786"/>
     <use style="fill:#008000;stroke:#008000;" x="268.846154" xlink:href="#m63b4b34781" y="166.279627"/>
     <use style="fill:#008000;stroke:#008000;" x="283.153846" xlink:href="#m63b4b34781" y="133.401007"/>
     <use style="fill:#008000;stroke:#008000;" x="297.461538" xlink:href="#m63b4b34781" y="139.463268"/>
     <use style="fill:#008000;stroke:#008000;" x="311.769231" xlink:href="#m63b4b34781" y="127.140416"/>
     <use style="fill:#008000;stroke:#008000;" x="326.076923" xlink:href="#m63b4b34781" y="123.284648"/>
     <use style="fill:#008000;stroke:#008000;" x="340.384615" xlink:href="#m63b4b34781" y="121.269629"/>
     <use style="fill:#008000;stroke:#008000;" x="354.692308" xlink:href="#m63b4b34781" y="122.793114"/>
     <use style="fill:#008000;stroke:#008000;" x="369" xlink:href="#m63b4b34781" y="128.085361"/>
     <use style="fill:#008000;stroke:#008000;" x="383.307692" xlink:href="#m63b4b34781" y="118.387513"/>
     <use style="fill:#008000;stroke:#008000;" x="397.615385" xlink:href="#m63b4b34781" y="115.539527"/>
     <use style="fill:#008000;stroke:#008000;" x="411.923077" xlink:href="#m63b4b34781" y="112.466761"/>
     <use style="fill:#008000;stroke:#008000;" x="426.230769" xlink:href="#m63b4b34781" y="116.787293"/>
     <use style="fill:#008000;stroke:#008000;" x="440.538462" xlink:href="#m63b4b34781" y="110.812701"/>
     <use style="fill:#008000;stroke:#008000;" x="454.846154" xlink:href="#m63b4b34781" y="101.869559"/>
     <use style="fill:#008000;stroke:#008000;" x="469.153846" xlink:href="#m63b4b34781" y="101.634447"/>
     <use style="fill:#008000;stroke:#008000;" x="483.461538" xlink:href="#m63b4b34781" y="100.992307"/>
     <use style="fill:#008000;stroke:#008000;" x="497.769231" xlink:href="#m63b4b34781" y="101.052403"/>
     <use style="fill:#008000;stroke:#008000;" x="512.076923" xlink:href="#m63b4b34781" y="96.516796"/>
     <use style="fill:#008000;stroke:#008000;" x="526.384615" xlink:href="#m63b4b34781" y="90.980522"/>
     <use style="fill:#008000;stroke:#008000;" x="540.692308" xlink:href="#m63b4b34781" y="92.507607"/>
     <use style="fill:#008000;stroke:#008000;" x="555" xlink:href="#m63b4b34781" y="91.150515"/>
     <use style="fill:#008000;stroke:#008000;" x="569.307692" xlink:href="#m63b4b34781" y="89.283273"/>
     <use style="fill:#008000;stroke:#008000;" x="583.615385" xlink:href="#m63b4b34781" y="88.325469"/>
     <use style="fill:#008000;stroke:#008000;" x="597.923077" xlink:href="#m63b4b34781" y="88.609503"/>
     <use style="fill:#008000;stroke:#008000;" x="612.230769" xlink:href="#m63b4b34781" y="88.031122"/>
     <use style="fill:#008000;stroke:#008000;" x="626.538462" xlink:href="#m63b4b34781" y="87.908527"/>
     <use style="fill:#008000;stroke:#008000;" x="640.846154" xlink:href="#m63b4b34781" y="87.7719"/>
    </g>
   </g>
   <g id="line2d_13">
    <path clip-path="url(#p1b7ad5cae8)" d="M 90 119.177038 
L 104.307692 119.177038 
L 104.307692 87.739414 
L 118.615385 87.739414 
L 118.615385 116.711342 
L 132.923077 116.711342 
L 132.923077 87.739414 
L 147.230769 87.739414 
L 147.230769 116.711342 
L 161.538462 116.711342 
L 161.538462 87.739414 
L 175.846154 87.739414 
L 175.846154 96.231186 
L 190.153846 96.231186 
L 190.153846 95.435082 
L 204.461538 95.435082 
L 204.461538 101.05084 
L 218.769231 101.05084 
L 218.769231 120.035989 
L 233.076923 120.035989 
L 233.076923 104.15684 
L 247.384615 104.15684 
L 247.384615 91.84377 
L 261.692308 91.84377 
L 261.692308 103.13075 
L 276 103.13075 
L 276 114.559961 
L 290.307692 114.559961 
L 290.307692 116.843032 
L 304.615385 116.843032 
L 304.615385 116.291459 
L 318.923077 116.291459 
L 318.923077 107.440325 
L 333.230769 107.440325 
L 333.230769 109.508376 
L 347.538462 109.508376 
L 347.538462 109.46836 
L 361.846154 109.46836 
L 361.846154 103.391621 
L 376.153846 103.391621 
L 376.153846 105.75854 
L 390.461538 105.75854 
L 390.461538 104.314699 
L 404.769231 104.314699 
L 404.769231 99.81105 
L 419.076923 99.81105 
L 419.076923 99.061776 
L 433.384615 99.061776 
L 433.384615 96.782911 
L 447.692308 96.782911 
L 447.692308 93.143269 
L 462 93.143269 
L 462 99.794167 
L 476.307692 99.794167 
L 476.307692 91.553196 
L 490.615385 91.553196 
L 490.615385 94.470932 
L 504.923077 94.470932 
L 504.923077 95.608669 
L 519.230769 95.608669 
L 519.230769 93.754959 
L 533.538462 93.754959 
L 533.538462 91.346438 
L 547.846154 91.346438 
L 547.846154 92.273571 
L 562.153846 92.273571 
L 562.153846 92.204716 
L 576.461538 92.204716 
L 576.461538 90.359216 
L 590.769231 90.359216 
L 590.769231 90.549334 
L 605.076923 90.549334 
L 605.076923 89.933427 
L 619.384615 89.933427 
L 619.384615 89.8162 
L 633.692308 89.8162 
L 633.692308 88.452135 
L 648 88.452135 
" style="fill:none;stroke:#ff0000;stroke-linecap:square;stroke-width:1.5;"/>
   </g>
   <g id="line2d_14">
    <defs>
     <path d="M 2 0 
L -2 -0 
" id="m7ea80555c4" style="stroke:#ff0000;"/>
    </defs>
    <g clip-path="url(#p1b7ad5cae8)">
     <use style="fill:#ff0000;stroke:#ff0000;" x="97.153846" xlink:href="#m7ea80555c4" y="128.864635"/>
     <use style="fill:#ff0000;stroke:#ff0000;" x="111.461538" xlink:href="#m7ea80555c4" y="87.739414"/>
     <use style="fill:#ff0000;stroke:#ff0000;" x="125.769231" xlink:href="#m7ea80555c4" y="119.674081"/>
     <use style="fill:#ff0000;stroke:#ff0000;" x="154.384615" xlink:href="#m7ea80555c4" y="132.913544"/>
     <use style="fill:#ff0000;stroke:#ff0000;" x="168.692308" xlink:href="#m7ea80555c4" y="87.739414"/>
     <use style="fill:#ff0000;stroke:#ff0000;" x="183" xlink:href="#m7ea80555c4" y="104.182084"/>
     <use style="fill:#ff0000;stroke:#ff0000;" x="197.307692" xlink:href="#m7ea80555c4" y="102.774078"/>
     <use style="fill:#ff0000;stroke:#ff0000;" x="211.615385" xlink:href="#m7ea80555c4" y="109.663535"/>
     <use style="fill:#ff0000;stroke:#ff0000;" x="225.923077" xlink:href="#m7ea80555c4" y="128.644247"/>
     <use style="fill:#ff0000;stroke:#ff0000;" x="240.230769" xlink:href="#m7ea80555c4" y="112.740178"/>
     <use style="fill:#ff0000;stroke:#ff0000;" x="254.538462" xlink:href="#m7ea80555c4" y="95.883717"/>
     <use style="fill:#ff0000;stroke:#ff0000;" x="268.846154" xlink:href="#m7ea80555c4" y="110.281527"/>
     <use style="fill:#ff0000;stroke:#ff0000;" x="283.153846" xlink:href="#m7ea80555c4" y="121.312711"/>
     <use style="fill:#ff0000;stroke:#ff0000;" x="297.461538" xlink:href="#m7ea80555c4" y="123.328076"/>
     <use style="fill:#ff0000;stroke:#ff0000;" x="311.769231" xlink:href="#m7ea80555c4" y="121.899484"/>
     <use style="fill:#ff0000;stroke:#ff0000;" x="326.076923" xlink:href="#m7ea80555c4" y="112.30555"/>
     <use style="fill:#ff0000;stroke:#ff0000;" x="340.384615" xlink:href="#m7ea80555c4" y="114.115301"/>
     <use style="fill:#ff0000;stroke:#ff0000;" x="354.692308" xlink:href="#m7ea80555c4" y="113.429331"/>
     <use style="fill:#ff0000;stroke:#ff0000;" x="369" xlink:href="#m7ea80555c4" y="106.973648"/>
     <use style="fill:#ff0000;stroke:#ff0000;" x="383.307692" xlink:href="#m7ea80555c4" y="109.541284"/>
     <use style="fill:#ff0000;stroke:#ff0000;" x="397.615385" xlink:href="#m7ea80555c4" y="107.442422"/>
     <use style="fill:#ff0000;stroke:#ff0000;" x="411.923077" xlink:href="#m7ea80555c4" y="102.638702"/>
     <use style="fill:#ff0000;stroke:#ff0000;" x="426.230769" xlink:href="#m7ea80555c4" y="101.627049"/>
     <use style="fill:#ff0000;stroke:#ff0000;" x="440.538462" xlink:href="#m7ea80555c4" y="99.109093"/>
     <use style="fill:#ff0000;stroke:#ff0000;" x="454.846154" xlink:href="#m7ea80555c4" y="95.096988"/>
     <use style="fill:#ff0000;stroke:#ff0000;" x="469.153846" xlink:href="#m7ea80555c4" y="102.135399"/>
     <use style="fill:#ff0000;stroke:#ff0000;" x="483.461538" xlink:href="#m7ea80555c4" y="92.947062"/>
     <use style="fill:#ff0000;stroke:#ff0000;" x="497.769231" xlink:href="#m7ea80555c4" y="96.288509"/>
     <use style="fill:#ff0000;stroke:#ff0000;" x="512.076923" xlink:href="#m7ea80555c4" y="97.364089"/>
     <use style="fill:#ff0000;stroke:#ff0000;" x="526.384615" xlink:href="#m7ea80555c4" y="95.162774"/>
     <use style="fill:#ff0000;stroke:#ff0000;" x="540.692308" xlink:href="#m7ea80555c4" y="92.387677"/>
     <use style="fill:#ff0000;stroke:#ff0000;" x="555" xlink:href="#m7ea80555c4" y="93.343783"/>
     <use style="fill:#ff0000;stroke:#ff0000;" x="569.307692" xlink:href="#m7ea80555c4" y="93.14636"/>
     <use style="fill:#ff0000;stroke:#ff0000;" x="583.615385" xlink:href="#m7ea80555c4" y="90.98897"/>
     <use style="fill:#ff0000;stroke:#ff0000;" x="597.923077" xlink:href="#m7ea80555c4" y="91.08685"/>
     <use style="fill:#ff0000;stroke:#ff0000;" x="612.230769" xlink:href="#m7ea80555c4" y="90.301527"/>
     <use style="fill:#ff0000;stroke:#ff0000;" x="626.538462" xlink:href="#m7ea80555c4" y="90.065675"/>
     <use style="fill:#ff0000;stroke:#ff0000;" x="640.846154" xlink:href="#m7ea80555c4" y="88.557584"/>
    </g>
   </g>
   <g id="line2d_15">
    <g clip-path="url(#p1b7ad5cae8)">
     <use style="fill:#ff0000;stroke:#ff0000;" x="97.153846" xlink:href="#m7ea80555c4" y="109.489441"/>
     <use style="fill:#ff0000;stroke:#ff0000;" x="111.461538" xlink:href="#m7ea80555c4" y="87.739414"/>
     <use style="fill:#ff0000;stroke:#ff0000;" x="125.769231" xlink:href="#m7ea80555c4" y="113.748602"/>
     <use style="fill:#ff0000;stroke:#ff0000;" x="154.384615" xlink:href="#m7ea80555c4" y="100.50914"/>
     <use style="fill:#ff0000;stroke:#ff0000;" x="168.692308" xlink:href="#m7ea80555c4" y="87.739414"/>
     <use style="fill:#ff0000;stroke:#ff0000;" x="183" xlink:href="#m7ea80555c4" y="88.280287"/>
     <use style="fill:#ff0000;stroke:#ff0000;" x="197.307692" xlink:href="#m7ea80555c4" y="88.096087"/>
     <use style="fill:#ff0000;stroke:#ff0000;" x="211.615385" xlink:href="#m7ea80555c4" y="92.438145"/>
     <use style="fill:#ff0000;stroke:#ff0000;" x="225.923077" xlink:href="#m7ea80555c4" y="111.427732"/>
     <use style="fill:#ff0000;stroke:#ff0000;" x="240.230769" xlink:href="#m7ea80555c4" y="95.573501"/>
     <use style="fill:#ff0000;stroke:#ff0000;" x="254.538462" xlink:href="#m7ea80555c4" y="87.803824"/>
     <use style="fill:#ff0000;stroke:#ff0000;" x="268.846154" xlink:href="#m7ea80555c4" y="95.979974"/>
     <use style="fill:#ff0000;stroke:#ff0000;" x="283.153846" xlink:href="#m7ea80555c4" y="107.807211"/>
     <use style="fill:#ff0000;stroke:#ff0000;" x="297.461538" xlink:href="#m7ea80555c4" y="110.357989"/>
     <use style="fill:#ff0000;stroke:#ff0000;" x="311.769231" xlink:href="#m7ea80555c4" y="110.683433"/>
     <use style="fill:#ff0000;stroke:#ff0000;" x="326.076923" xlink:href="#m7ea80555c4" y="102.5751"/>
     <use style="fill:#ff0000;stroke:#ff0000;" x="340.384615" xlink:href="#m7ea80555c4" y="104.901451"/>
     <use style="fill:#ff0000;stroke:#ff0000;" x="354.692308" xlink:href="#m7ea80555c4" y="105.507388"/>
     <use style="fill:#ff0000;stroke:#ff0000;" x="369" xlink:href="#m7ea80555c4" y="99.809593"/>
     <use style="fill:#ff0000;stroke:#ff0000;" x="383.307692" xlink:href="#m7ea80555c4" y="101.975796"/>
     <use style="fill:#ff0000;stroke:#ff0000;" x="397.615385" xlink:href="#m7ea80555c4" y="101.186977"/>
     <use style="fill:#ff0000;stroke:#ff0000;" x="411.923077" xlink:href="#m7ea80555c4" y="96.983399"/>
     <use style="fill:#ff0000;stroke:#ff0000;" x="426.230769" xlink:href="#m7ea80555c4" y="96.496504"/>
     <use style="fill:#ff0000;stroke:#ff0000;" x="440.538462" xlink:href="#m7ea80555c4" y="94.456729"/>
     <use style="fill:#ff0000;stroke:#ff0000;" x="454.846154" xlink:href="#m7ea80555c4" y="91.18955"/>
     <use style="fill:#ff0000;stroke:#ff0000;" x="469.153846" xlink:href="#m7ea80555c4" y="97.452935"/>
     <use style="fill:#ff0000;stroke:#ff0000;" x="483.461538" xlink:href="#m7ea80555c4" y="90.159331"/>
     <use style="fill:#ff0000;stroke:#ff0000;" x="497.769231" xlink:href="#m7ea80555c4" y="92.653356"/>
     <use style="fill:#ff0000;stroke:#ff0000;" x="512.076923" xlink:href="#m7ea80555c4" y="93.853248"/>
     <use style="fill:#ff0000;stroke:#ff0000;" x="526.384615" xlink:href="#m7ea80555c4" y="92.347145"/>
     <use style="fill:#ff0000;stroke:#ff0000;" x="540.692308" xlink:href="#m7ea80555c4" y="90.305199"/>
     <use style="fill:#ff0000;stroke:#ff0000;" x="555" xlink:href="#m7ea80555c4" y="91.203358"/>
     <use style="fill:#ff0000;stroke:#ff0000;" x="569.307692" xlink:href="#m7ea80555c4" y="91.263071"/>
     <use style="fill:#ff0000;stroke:#ff0000;" x="583.615385" xlink:href="#m7ea80555c4" y="89.729461"/>
     <use style="fill:#ff0000;stroke:#ff0000;" x="597.923077" xlink:href="#m7ea80555c4" y="90.011818"/>
     <use style="fill:#ff0000;stroke:#ff0000;" x="612.230769" xlink:href="#m7ea80555c4" y="89.565327"/>
     <use style="fill:#ff0000;stroke:#ff0000;" x="626.538462" xlink:href="#m7ea80555c4" y="89.566725"/>
     <use style="fill:#ff0000;stroke:#ff0000;" x="640.846154" xlink:href="#m7ea80555c4" y="88.346686"/>
    </g>
   </g>
   <g id="line2d_16">
    <path clip-path="url(#p1b7ad5cae8)" d="M 90 154.250305 
L 104.307692 154.250305 
L 104.307692 110.126813 
L 118.615385 110.126813 
L 118.615385 171.033706 
L 132.923077 171.033706 
L 132.923077 180.087434 
L 147.230769 180.087434 
L 147.230769 192.290284 
L 161.538462 192.290284 
L 161.538462 147.181817 
L 175.846154 147.181817 
L 175.846154 143.785109 
L 190.153846 143.785109 
L 190.153846 122.699736 
L 204.461538 122.699736 
L 204.461538 170.935828 
L 218.769231 170.935828 
L 218.769231 171.998872 
L 233.076923 171.998872 
L 233.076923 178.300053 
L 247.384615 178.300053 
L 247.384615 157.614815 
L 261.692308 157.614815 
L 261.692308 188.188137 
L 276 188.188137 
L 276 163.744977 
L 290.307692 163.744977 
L 290.307692 170.711626 
L 304.615385 170.711626 
L 304.615385 158.103186 
L 318.923077 158.103186 
L 318.923077 146.783162 
L 333.230769 146.783162 
L 333.230769 145.974151 
L 347.538462 145.974151 
L 347.538462 146.602571 
L 361.846154 146.602571 
L 361.846154 146.630842 
L 376.153846 146.630842 
L 376.153846 139.097297 
L 390.461538 139.097297 
L 390.461538 134.482426 
L 404.769231 134.482426 
L 404.769231 127.488021 
L 419.076923 127.488021 
L 419.076923 130.876436 
L 433.384615 130.876436 
L 433.384615 122.796361 
L 447.692308 122.796361 
L 447.692308 110.347378 
L 462 110.347378 
L 462 115.835717 
L 476.307692 115.835717 
L 476.307692 107.342851 
L 490.615385 107.342851 
L 490.615385 110.194994 
L 504.923077 110.194994 
L 504.923077 106.223532 
L 519.230769 106.223532 
L 519.230769 98.183454 
L 533.538462 98.183454 
L 533.538462 97.42079 
L 547.846154 97.42079 
L 547.846154 96.724245 
L 562.153846 96.724245 
L 562.153846 94.41694 
L 576.461538 94.41694 
L 576.461538 91.337696 
L 590.769231 91.337696 
L 590.769231 91.779451 
L 605.076923 91.779451 
L 605.076923 90.397938 
L 619.384615 90.397938 
L 619.384615 90.075522 
L 633.692308 90.075522 
L 633.692308 88.516911 
L 648 88.516911 
" style="fill:none;stroke:#0000ff;stroke-linecap:square;stroke-width:1.5;"/>
   </g>
   <g id="line2d_17">
    <defs>
     <path d="M 2 0 
L -2 -0 
" id="m86cbd986e3" style="stroke:#0000ff;"/>
    </defs>
    <g clip-path="url(#p1b7ad5cae8)">
     <use style="fill:#0000ff;stroke:#0000ff;" x="97.153846" xlink:href="#m86cbd986e3" y="168.191911"/>
     <use style="fill:#0000ff;stroke:#0000ff;" x="111.461538" xlink:href="#m86cbd986e3" y="131.47236"/>
     <use style="fill:#0000ff;stroke:#0000ff;" x="125.769231" xlink:href="#m86cbd986e3" y="192.189685"/>
     <use style="fill:#0000ff;stroke:#0000ff;" x="154.384615" xlink:href="#m86cbd986e3" y="216.317783"/>
     <use style="fill:#0000ff;stroke:#0000ff;" x="168.692308" xlink:href="#m86cbd986e3" y="166.750414"/>
     <use style="fill:#0000ff;stroke:#0000ff;" x="183" xlink:href="#m86cbd986e3" y="161.073881"/>
     <use style="fill:#0000ff;stroke:#0000ff;" x="197.307692" xlink:href="#m86cbd986e3" y="137.082181"/>
     <use style="fill:#0000ff;stroke:#0000ff;" x="211.615385" xlink:href="#m86cbd986e3" y="187.192007"/>
     <use style="fill:#0000ff;stroke:#0000ff;" x="225.923077" xlink:href="#m86cbd986e3" y="184.755774"/>
     <use style="fill:#0000ff;stroke:#0000ff;" x="240.230769" xlink:href="#m86cbd986e3" y="193.132607"/>
     <use style="fill:#0000ff;stroke:#0000ff;" x="254.538462" xlink:href="#m86cbd986e3" y="169.938885"/>
     <use style="fill:#0000ff;stroke:#0000ff;" x="268.846154" xlink:href="#m86cbd986e3" y="200.47426"/>
     <use style="fill:#0000ff;stroke:#0000ff;" x="283.153846" xlink:href="#m86cbd986e3" y="173.726921"/>
     <use style="fill:#0000ff;stroke:#0000ff;" x="297.461538" xlink:href="#m86cbd986e3" y="180.30152"/>
     <use style="fill:#0000ff;stroke:#0000ff;" x="311.769231" xlink:href="#m86cbd986e3" y="166.423986"/>
     <use style="fill:#0000ff;stroke:#0000ff;" x="326.076923" xlink:href="#m86cbd986e3" y="154.546484"/>
     <use style="fill:#0000ff;stroke:#0000ff;" x="340.384615" xlink:href="#m86cbd986e3" y="153.023512"/>
     <use style="fill:#0000ff;stroke:#0000ff;" x="354.692308" xlink:href="#m86cbd986e3" y="152.742102"/>
     <use style="fill:#0000ff;stroke:#0000ff;" x="369" xlink:href="#m86cbd986e3" y="152.816"/>
     <use style="fill:#0000ff;stroke:#0000ff;" x="383.307692" xlink:href="#m86cbd986e3" y="144.993968"/>
     <use style="fill:#0000ff;stroke:#0000ff;" x="397.615385" xlink:href="#m86cbd986e3" y="139.51719"/>
     <use style="fill:#0000ff;stroke:#0000ff;" x="411.923077" xlink:href="#m86cbd986e3" y="132.339573"/>
     <use style="fill:#0000ff;stroke:#0000ff;" x="426.230769" xlink:href="#m86cbd986e3" y="135.539915"/>
     <use style="fill:#0000ff;stroke:#0000ff;" x="440.538462" xlink:href="#m86cbd986e3" y="127.113128"/>
     <use style="fill:#0000ff;stroke:#0000ff;" x="454.846154" xlink:href="#m86cbd986e3" y="114.187022"/>
     <use style="fill:#0000ff;stroke:#0000ff;" x="469.153846" xlink:href="#m86cbd986e3" y="119.405928"/>
     <use style="fill:#0000ff;stroke:#0000ff;" x="483.461538" xlink:href="#m86cbd986e3" y="110.378742"/>
     <use style="fill:#0000ff;stroke:#0000ff;" x="497.769231" xlink:href="#m86cbd986e3" y="113.448393"/>
     <use style="fill:#0000ff;stroke:#0000ff;" x="512.076923" xlink:href="#m86cbd986e3" y="108.925189"/>
     <use style="fill:#0000ff;stroke:#0000ff;" x="526.384615" xlink:href="#m86cbd986e3" y="100.057946"/>
     <use style="fill:#0000ff;stroke:#0000ff;" x="540.692308" xlink:href="#m86cbd986e3" y="99.130746"/>
     <use style="fill:#0000ff;stroke:#0000ff;" x="555" xlink:href="#m86cbd986e3" y="98.247006"/>
     <use style="fill:#0000ff;stroke:#0000ff;" x="569.307692" xlink:href="#m86cbd986e3" y="95.581182"/>
     <use style="fill:#0000ff;stroke:#0000ff;" x="583.615385" xlink:href="#m86cbd986e3" y="92.080893"/>
     <use style="fill:#0000ff;stroke:#0000ff;" x="597.923077" xlink:href="#m86cbd986e3" y="92.429743"/>
     <use style="fill:#0000ff;stroke:#0000ff;" x="612.230769" xlink:href="#m86cbd986e3" y="90.80506"/>
     <use style="fill:#0000ff;stroke:#0000ff;" x="626.538462" xlink:href="#m86cbd986e3" y="90.341046"/>
     <use style="fill:#0000ff;stroke:#0000ff;" x="640.846154" xlink:href="#m86cbd986e3" y="88.627194"/>
    </g>
   </g>
   <g id="line2d_18">
    <g clip-path="url(#p1b7ad5cae8)">
     <use style="fill:#0000ff;stroke:#0000ff;" x="97.153846" xlink:href="#m86cbd986e3" y="140.308699"/>
     <use style="fill:#0000ff;stroke:#0000ff;" x="111.461538" xlink:href="#m86cbd986e3" y="88.781265"/>
     <use style="fill:#0000ff;stroke:#0000ff;" x="125.769231" xlink:href="#m86cbd986e3" y="149.877728"/>
     <use style="fill:#0000ff;stroke:#0000ff;" x="154.384615" xlink:href="#m86cbd986e3" y="168.262784"/>
     <use style="fill:#0000ff;stroke:#0000ff;" x="168.692308" xlink:href="#m86cbd986e3" y="127.613221"/>
     <use style="fill:#0000ff;stroke:#0000ff;" x="183" xlink:href="#m86cbd986e3" y="126.496336"/>
     <use style="fill:#0000ff;stroke:#0000ff;" x="197.307692" xlink:href="#m86cbd986e3" y="108.31729"/>
     <use style="fill:#0000ff;stroke:#0000ff;" x="211.615385" xlink:href="#m86cbd986e3" y="154.679649"/>
     <use style="fill:#0000ff;stroke:#0000ff;" x="225.923077" xlink:href="#m86cbd986e3" y="159.24197"/>
     <use style="fill:#0000ff;stroke:#0000ff;" x="240.230769" xlink:href="#m86cbd986e3" y="163.467498"/>
     <use style="fill:#0000ff;stroke:#0000ff;" x="254.538462" xlink:href="#m86cbd986e3" y="145.290746"/>
     <use style="fill:#0000ff;stroke:#0000ff;" x="268.846154" xlink:href="#m86cbd986e3" y="175.902014"/>
     <use style="fill:#0000ff;stroke:#0000ff;" x="283.153846" xlink:href="#m86cbd986e3" y="153.763033"/>
     <use style="fill:#0000ff;stroke:#0000ff;" x="297.461538" xlink:href="#m86cbd986e3" y="161.121732"/>
     <use style="fill:#0000ff;stroke:#0000ff;" x="311.769231" xlink:href="#m86cbd986e3" y="149.782387"/>
     <use style="fill:#0000ff;stroke:#0000ff;" x="326.076923" xlink:href="#m86cbd986e3" y="139.01984"/>
     <use style="fill:#0000ff;stroke:#0000ff;" x="340.384615" xlink:href="#m86cbd986e3" y="138.92479"/>
     <use style="fill:#0000ff;stroke:#0000ff;" x="354.692308" xlink:href="#m86cbd986e3" y="140.46304"/>
     <use style="fill:#0000ff;stroke:#0000ff;" x="369" xlink:href="#m86cbd986e3" y="140.445683"/>
     <use style="fill:#0000ff;stroke:#0000ff;" x="383.307692" xlink:href="#m86cbd986e3" y="133.200626"/>
     <use style="fill:#0000ff;stroke:#0000ff;" x="397.615385" xlink:href="#m86cbd986e3" y="129.447662"/>
     <use style="fill:#0000ff;stroke:#0000ff;" x="411.923077" xlink:href="#m86cbd986e3" y="122.636468"/>
     <use style="fill:#0000ff;stroke:#0000ff;" x="426.230769" xlink:href="#m86cbd986e3" y="126.212957"/>
     <use style="fill:#0000ff;stroke:#0000ff;" x="440.538462" xlink:href="#m86cbd986e3" y="118.479594"/>
     <use style="fill:#0000ff;stroke:#0000ff;" x="454.846154" xlink:href="#m86cbd986e3" y="106.507734"/>
     <use style="fill:#0000ff;stroke:#0000ff;" x="469.153846" xlink:href="#m86cbd986e3" y="112.265506"/>
     <use style="fill:#0000ff;stroke:#0000ff;" x="483.461538" xlink:href="#m86cbd986e3" y="104.30696"/>
     <use style="fill:#0000ff;stroke:#0000ff;" x="497.769231" xlink:href="#m86cbd986e3" y="106.941595"/>
     <use style="fill:#0000ff;stroke:#0000ff;" x="512.076923" xlink:href="#m86cbd986e3" y="103.521875"/>
     <use style="fill:#0000ff;stroke:#0000ff;" x="526.384615" xlink:href="#m86cbd986e3" y="96.308962"/>
     <use style="fill:#0000ff;stroke:#0000ff;" x="540.692308" xlink:href="#m86cbd986e3" y="95.710834"/>
     <use style="fill:#0000ff;stroke:#0000ff;" x="555" xlink:href="#m86cbd986e3" y="95.201483"/>
     <use style="fill:#0000ff;stroke:#0000ff;" x="569.307692" xlink:href="#m86cbd986e3" y="93.252697"/>
     <use style="fill:#0000ff;stroke:#0000ff;" x="583.615385" xlink:href="#m86cbd986e3" y="90.594499"/>
     <use style="fill:#0000ff;stroke:#0000ff;" x="597.923077" xlink:href="#m86cbd986e3" y="91.12916"/>
     <use style="fill:#0000ff;stroke:#0000ff;" x="612.230769" xlink:href="#m86cbd986e3" y="89.990817"/>
     <use style="fill:#0000ff;stroke:#0000ff;" x="626.538462" xlink:href="#m86cbd986e3" y="89.809999"/>
     <use style="fill:#0000ff;stroke:#0000ff;" x="640.846154" xlink:href="#m86cbd986e3" y="88.406628"/>
    </g>
   </g>
   <g id="patch_3">
    <path d="M 90 334.0008 
L 90 85.2768 
" style="fill:none;stroke:#000000;stroke-linecap:square;stroke-linejoin:miter;stroke-width:0.8;"/>
   </g>
   <g id="patch_4">
    <path d="M 648 334.0008 
L 648 85.2768 
" style="fill:none;stroke:#000000;stroke-linecap:square;stroke-linejoin:miter;stroke-width:0.8;"/>
   </g>
   <g id="patch_5">
    <path d="M 90 334.0008 
L 648 334.0008 
" style="fill:none;stroke:#000000;stroke-linecap:square;stroke-linejoin:miter;stroke-width:0.8;"/>
   </g>
   <g id="patch_6">
    <path d="M 90 85.2768 
L 648 85.2768 
" style="fill:none;stroke:#000000;stroke-linecap:square;stroke-linejoin:miter;stroke-width:0.8;"/>
   </g>
   <g id="legend_1">
    <g id="patch_7">
     <path d="M 266.025938 325.0008 
L 471.974063 325.0008 
Q 475.574063 325.0008 475.574063 321.4008 
L 475.574063 243.938925 
Q 475.574063 240.338925 471.974063 240.338925 
L 266.025938 240.338925 
Q 262.425938 240.338925 262.425938 243.938925 
L 262.425938 321.4008 
Q 262.425938 325.0008 266.025938 325.0008 
z
" style="fill:#ffffff;opacity:0.5;stroke:#cccccc;stroke-linejoin:miter;"/>
    </g>
    <g id="line2d_19">
     <path d="M 269.625938 254.916112 
L 305.625938 254.916112 
" style="fill:none;stroke:#008000;stroke-linecap:square;stroke-width:1.5;"/>
    </g>
    <g id="line2d_20"/>
    <g id="text_6">
     <!-- Efficiency -->
     <defs>
      <path d="M 9.8125 72.90625 
L 55.90625 72.90625 
L 55.90625 64.59375 
L 19.671875 64.59375 
L 19.671875 43.015625 
L 54.390625 43.015625 
L 54.390625 34.71875 
L 19.671875 34.71875 
L 19.671875 8.296875 
L 56.78125 8.296875 
L 56.78125 0 
L 9.8125 0 
z
" id="DejaVuSans-69"/>
      <path d="M 37.109375 75.984375 
L 37.109375 68.5 
L 28.515625 68.5 
Q 23.6875 68.5 21.796875 66.546875 
Q 19.921875 64.59375 19.921875 59.515625 
L 19.921875 54.6875 
L 34.71875 54.6875 
L 34.71875 47.703125 
L 19.921875 47.703125 
L 19.921875 0 
L 10.890625 0 
L 10.890625 47.703125 
L 2.296875 47.703125 
L 2.296875 54.6875 
L 10.890625 54.6875 
L 10.890625 58.5 
Q 10.890625 67.625 15.140625 71.796875 
Q 19.390625 75.984375 28.609375 75.984375 
z
" id="DejaVuSans-102"/>
      <path d="M 56.203125 29.59375 
L 56.203125 25.203125 
L 14.890625 25.203125 
Q 15.484375 15.921875 20.484375 11.0625 
Q 25.484375 6.203125 34.421875 6.203125 
Q 39.59375 6.203125 44.453125 7.46875 
Q 49.3125 8.734375 54.109375 11.28125 
L 54.109375 2.78125 
Q 49.265625 0.734375 44.1875 -0.34375 
Q 39.109375 -1.421875 33.890625 -1.421875 
Q 20.796875 -1.421875 13.15625 6.1875 
Q 5.515625 13.8125 5.515625 26.8125 
Q 5.515625 40.234375 12.765625 48.109375 
Q 20.015625 56 32.328125 56 
Q 43.359375 56 49.78125 48.890625 
Q 56.203125 41.796875 56.203125 29.59375 
z
M 47.21875 32.234375 
Q 47.125 39.59375 43.09375 43.984375 
Q 39.0625 48.390625 32.421875 48.390625 
Q 24.90625 48.390625 20.390625 44.140625 
Q 15.875 39.890625 15.1875 32.171875 
z
" id="DejaVuSans-101"/>
     </defs>
     <g transform="translate(320.025937 261.216113)scale(0.18 -0.18)">
      <use xlink:href="#DejaVuSans-69"/>
      <use x="63.183594" xlink:href="#DejaVuSans-102"/>
      <use x="98.388672" xlink:href="#DejaVuSans-102"/>
      <use x="133.59375" xlink:href="#DejaVuSans-105"/>
      <use x="161.376953" xlink:href="#DejaVuSans-99"/>
      <use x="216.357422" xlink:href="#DejaVuSans-105"/>
      <use x="244.140625" xlink:href="#DejaVuSans-101"/>
      <use x="305.664062" xlink:href="#DejaVuSans-110"/>
      <use x="369.042969" xlink:href="#DejaVuSans-99"/>
      <use x="424.023438" xlink:href="#DejaVuSans-121"/>
     </g>
    </g>
    <g id="line2d_21">
     <path d="M 269.625938 281.336737 
L 305.625938 281.336737 
" style="fill:none;stroke:#ff0000;stroke-linecap:square;stroke-width:1.5;"/>
    </g>
    <g id="line2d_22"/>
    <g id="text_7">
     <!-- Purity -->
     <defs>
      <path d="M 19.671875 64.796875 
L 19.671875 37.40625 
L 32.078125 37.40625 
Q 38.96875 37.40625 42.71875 40.96875 
Q 46.484375 44.53125 46.484375 51.125 
Q 46.484375 57.671875 42.71875 61.234375 
Q 38.96875 64.796875 32.078125 64.796875 
z
M 9.8125 72.90625 
L 32.078125 72.90625 
Q 44.34375 72.90625 50.609375 67.359375 
Q 56.890625 61.8125 56.890625 51.125 
Q 56.890625 40.328125 50.609375 34.8125 
Q 44.34375 29.296875 32.078125 29.296875 
L 19.671875 29.296875 
L 19.671875 0 
L 9.8125 0 
z
" id="DejaVuSans-80"/>
     </defs>
     <g transform="translate(320.025937 287.636737)scale(0.18 -0.18)">
      <use xlink:href="#DejaVuSans-80"/>
      <use x="60.287109" xlink:href="#DejaVuSans-117"/>
      <use x="123.666016" xlink:href="#DejaVuSans-114"/>
      <use x="164.779297" xlink:href="#DejaVuSans-105"/>
      <use x="192.5625" xlink:href="#DejaVuSans-116"/>
      <use x="231.771484" xlink:href="#DejaVuSans-121"/>
     </g>
    </g>
    <g id="line2d_23">
     <path d="M 269.625938 307.757362 
L 305.625938 307.757362 
" style="fill:none;stroke:#0000ff;stroke-linecap:square;stroke-width:1.5;"/>
    </g>
    <g id="line2d_24"/>
    <g id="text_8">
     <!-- Purity*Efficiency -->
     <defs>
      <path d="M 47.015625 60.890625 
L 29.5 51.421875 
L 47.015625 41.890625 
L 44.1875 37.109375 
L 27.78125 47.015625 
L 27.78125 28.609375 
L 22.21875 28.609375 
L 22.21875 47.015625 
L 5.8125 37.109375 
L 2.984375 41.890625 
L 20.515625 51.421875 
L 2.984375 60.890625 
L 5.8125 65.71875 
L 22.21875 55.8125 
L 22.21875 74.21875 
L 27.78125 74.21875 
L 27.78125 55.8125 
L 44.1875 65.71875 
z
" id="DejaVuSans-42"/>
     </defs>
     <g transform="translate(320.025937 314.057363)scale(0.18 -0.18)">
      <use xlink:href="#DejaVuSans-80"/>
      <use x="60.287109" xlink:href="#DejaVuSans-117"/>
      <use x="123.666016" xlink:href="#DejaVuSans-114"/>
      <use x="164.779297" xlink:href="#DejaVuSans-105"/>
      <use x="192.5625" xlink:href="#DejaVuSans-116"/>
      <use x="231.771484" xlink:href="#DejaVuSans-121"/>
      <use x="290.951172" xlink:href="#DejaVuSans-42"/>
      <use x="340.951172" xlink:href="#DejaVuSans-69"/>
      <use x="404.134766" xlink:href="#DejaVuSans-102"/>
      <use x="439.339844" xlink:href="#DejaVuSans-102"/>
      <use x="474.544922" xlink:href="#DejaVuSans-105"/>
      <use x="502.328125" xlink:href="#DejaVuSans-99"/>
      <use x="557.308594" xlink:href="#DejaVuSans-105"/>
      <use x="585.091797" xlink:href="#DejaVuSans-101"/>
      <use x="646.615234" xlink:href="#DejaVuSans-110"/>
      <use x="709.994141" xlink:href="#DejaVuSans-99"/>
      <use x="764.974609" xlink:href="#DejaVuSans-121"/>
     </g>
    </g>
   </g>
  </g>
  <g id="axes_2">
   <g id="patch_8">
    <path d="M 90 632.4696 
L 648 632.4696 
L 648 383.7456 
L 90 383.7456 
z
" style="fill:#ffffff;"/>
   </g>
   <g id="patch_9">
    <path clip-path="url(#pb4615c1c26)" d="M 90 50708.140167 
L 90 536.507153 
L 104.307692 536.507153 
L 104.307692 569.003753 
L 118.615385 569.003753 
L 118.615385 555.999305 
L 132.923077 555.999305 
L 132.923077 560.853235 
L 147.230769 560.853235 
L 147.230769 552.959134 
L 161.538462 552.959134 
L 161.538462 547.91687 
L 175.846154 547.91687 
L 175.846154 543.826264 
L 190.153846 543.826264 
L 190.153846 543.826264 
L 204.461538 543.826264 
L 204.461538 536.067693 
L 218.769231 536.067693 
L 218.769231 528.748582 
L 233.076923 528.748582 
L 233.076923 531.388484 
L 247.384615 531.388484 
L 247.384615 525.57372 
L 261.692308 525.57372 
L 261.692308 522.105768 
L 276 522.105768 
L 276 517.761505 
L 290.307692 517.761505 
L 290.307692 515.450907 
L 304.615385 515.450907 
L 304.615385 512.025597 
L 318.923077 512.025597 
L 318.923077 509.834817 
L 333.230769 509.834817 
L 333.230769 506.241088 
L 347.538462 506.241088 
L 347.538462 500.205251 
L 361.846154 500.205251 
L 361.846154 499.223769 
L 376.153846 499.223769 
L 376.153846 499.627352 
L 390.461538 499.627352 
L 390.461538 494.692104 
L 404.769231 494.692104 
L 404.769231 495.019216 
L 419.076923 495.019216 
L 419.076923 491.722627 
L 433.384615 491.722627 
L 433.384615 491.779348 
L 447.692308 491.779348 
L 447.692308 494.627268 
L 462 494.627268 
L 462 488.860513 
L 476.307692 488.860513 
L 476.307692 487.050728 
L 490.615385 487.050728 
L 490.615385 487.936804 
L 504.923077 487.936804 
L 504.923077 484.346942 
L 519.230769 484.346942 
L 519.230769 480.2402 
L 533.538462 480.2402 
L 533.538462 476.901362 
L 547.846154 476.901362 
L 547.846154 473.95735 
L 562.153846 473.95735 
L 562.153846 468.968668 
L 576.461538 468.968668 
L 576.461538 462.170341 
L 590.769231 462.170341 
L 590.769231 453.980728 
L 605.076923 453.980728 
L 605.076923 442.573254 
L 619.384615 442.573254 
L 619.384615 426.978361 
L 633.692308 426.978361 
L 633.692308 395.051236 
L 648 395.051236 
L 648 50708.140167 
z
" style="fill:#1f77b4;opacity:0.2;"/>
   </g>
   <g id="matplotlib.axis_3">
    <g id="xtick_7">
     <g id="line2d_25">
      <g>
       <use style="stroke:#000000;stroke-width:0.8;" x="90" xlink:href="#medaca8cea9" y="632.4696"/>
      </g>
     </g>
     <g id="text_9">
      <!-- 0.0 -->
      <g transform="translate(69.38955 659.16475)scale(0.2592 -0.2592)">
       <use xlink:href="#DejaVuSans-48"/>
       <use x="63.623047" xlink:href="#DejaVuSans-46"/>
       <use x="95.410156" xlink:href="#DejaVuSans-48"/>
      </g>
     </g>
    </g>
    <g id="xtick_8">
     <g id="line2d_26">
      <g>
       <use style="stroke:#000000;stroke-width:0.8;" x="201.6" xlink:href="#medaca8cea9" y="632.4696"/>
      </g>
     </g>
     <g id="text_10">
      <!-- 0.2 -->
      <defs>
       <path d="M 19.1875 8.296875 
L 53.609375 8.296875 
L 53.609375 0 
L 7.328125 0 
L 7.328125 8.296875 
Q 12.9375 14.109375 22.625 23.890625 
Q 32.328125 33.6875 34.8125 36.53125 
Q 39.546875 41.84375 41.421875 45.53125 
Q 43.3125 49.21875 43.3125 52.78125 
Q 43.3125 58.59375 39.234375 62.25 
Q 35.15625 65.921875 28.609375 65.921875 
Q 23.96875 65.921875 18.8125 64.3125 
Q 13.671875 62.703125 7.8125 59.421875 
L 7.8125 69.390625 
Q 13.765625 71.78125 18.9375 73 
Q 24.125 74.21875 28.421875 74.21875 
Q 39.75 74.21875 46.484375 68.546875 
Q 53.21875 62.890625 53.21875 53.421875 
Q 53.21875 48.921875 51.53125 44.890625 
Q 49.859375 40.875 45.40625 35.40625 
Q 44.1875 33.984375 37.640625 27.21875 
Q 31.109375 20.453125 19.1875 8.296875 
z
" id="DejaVuSans-50"/>
      </defs>
      <g transform="translate(180.98955 659.16475)scale(0.2592 -0.2592)">
       <use xlink:href="#DejaVuSans-48"/>
       <use x="63.623047" xlink:href="#DejaVuSans-46"/>
       <use x="95.410156" xlink:href="#DejaVuSans-50"/>
      </g>
     </g>
    </g>
    <g id="xtick_9">
     <g id="line2d_27">
      <g>
       <use style="stroke:#000000;stroke-width:0.8;" x="313.2" xlink:href="#medaca8cea9" y="632.4696"/>
      </g>
     </g>
     <g id="text_11">
      <!-- 0.4 -->
      <defs>
       <path d="M 37.796875 64.3125 
L 12.890625 25.390625 
L 37.796875 25.390625 
z
M 35.203125 72.90625 
L 47.609375 72.90625 
L 47.609375 25.390625 
L 58.015625 25.390625 
L 58.015625 17.1875 
L 47.609375 17.1875 
L 47.609375 0 
L 37.796875 0 
L 37.796875 17.1875 
L 4.890625 17.1875 
L 4.890625 26.703125 
z
" id="DejaVuSans-52"/>
      </defs>
      <g transform="translate(292.58955 659.16475)scale(0.2592 -0.2592)">
       <use xlink:href="#DejaVuSans-48"/>
       <use x="63.623047" xlink:href="#DejaVuSans-46"/>
       <use x="95.410156" xlink:href="#DejaVuSans-52"/>
      </g>
     </g>
    </g>
    <g id="xtick_10">
     <g id="line2d_28">
      <g>
       <use style="stroke:#000000;stroke-width:0.8;" x="424.8" xlink:href="#medaca8cea9" y="632.4696"/>
      </g>
     </g>
     <g id="text_12">
      <!-- 0.6 -->
      <defs>
       <path d="M 33.015625 40.375 
Q 26.375 40.375 22.484375 35.828125 
Q 18.609375 31.296875 18.609375 23.390625 
Q 18.609375 15.53125 22.484375 10.953125 
Q 26.375 6.390625 33.015625 6.390625 
Q 39.65625 6.390625 43.53125 10.953125 
Q 47.40625 15.53125 47.40625 23.390625 
Q 47.40625 31.296875 43.53125 35.828125 
Q 39.65625 40.375 33.015625 40.375 
z
M 52.59375 71.296875 
L 52.59375 62.3125 
Q 48.875 64.0625 45.09375 64.984375 
Q 41.3125 65.921875 37.59375 65.921875 
Q 27.828125 65.921875 22.671875 59.328125 
Q 17.53125 52.734375 16.796875 39.40625 
Q 19.671875 43.65625 24.015625 45.921875 
Q 28.375 48.1875 33.59375 48.1875 
Q 44.578125 48.1875 50.953125 41.515625 
Q 57.328125 34.859375 57.328125 23.390625 
Q 57.328125 12.15625 50.6875 5.359375 
Q 44.046875 -1.421875 33.015625 -1.421875 
Q 20.359375 -1.421875 13.671875 8.265625 
Q 6.984375 17.96875 6.984375 36.375 
Q 6.984375 53.65625 15.1875 63.9375 
Q 23.390625 74.21875 37.203125 74.21875 
Q 40.921875 74.21875 44.703125 73.484375 
Q 48.484375 72.75 52.59375 71.296875 
z
" id="DejaVuSans-54"/>
      </defs>
      <g transform="translate(404.18955 659.16475)scale(0.2592 -0.2592)">
       <use xlink:href="#DejaVuSans-48"/>
       <use x="63.623047" xlink:href="#DejaVuSans-46"/>
       <use x="95.410156" xlink:href="#DejaVuSans-54"/>
      </g>
     </g>
    </g>
    <g id="xtick_11">
     <g id="line2d_29">
      <g>
       <use style="stroke:#000000;stroke-width:0.8;" x="536.4" xlink:href="#medaca8cea9" y="632.4696"/>
      </g>
     </g>
     <g id="text_13">
      <!-- 0.8 -->
      <defs>
       <path d="M 31.78125 34.625 
Q 24.75 34.625 20.71875 30.859375 
Q 16.703125 27.09375 16.703125 20.515625 
Q 16.703125 13.921875 20.71875 10.15625 
Q 24.75 6.390625 31.78125 6.390625 
Q 38.8125 6.390625 42.859375 10.171875 
Q 46.921875 13.96875 46.921875 20.515625 
Q 46.921875 27.09375 42.890625 30.859375 
Q 38.875 34.625 31.78125 34.625 
z
M 21.921875 38.8125 
Q 15.578125 40.375 12.03125 44.71875 
Q 8.5 49.078125 8.5 55.328125 
Q 8.5 64.0625 14.71875 69.140625 
Q 20.953125 74.21875 31.78125 74.21875 
Q 42.671875 74.21875 48.875 69.140625 
Q 55.078125 64.0625 55.078125 55.328125 
Q 55.078125 49.078125 51.53125 44.71875 
Q 48 40.375 41.703125 38.8125 
Q 48.828125 37.15625 52.796875 32.3125 
Q 56.78125 27.484375 56.78125 20.515625 
Q 56.78125 9.90625 50.3125 4.234375 
Q 43.84375 -1.421875 31.78125 -1.421875 
Q 19.734375 -1.421875 13.25 4.234375 
Q 6.78125 9.90625 6.78125 20.515625 
Q 6.78125 27.484375 10.78125 32.3125 
Q 14.796875 37.15625 21.921875 38.8125 
z
M 18.3125 54.390625 
Q 18.3125 48.734375 21.84375 45.5625 
Q 25.390625 42.390625 31.78125 42.390625 
Q 38.140625 42.390625 41.71875 45.5625 
Q 45.3125 48.734375 45.3125 54.390625 
Q 45.3125 60.0625 41.71875 63.234375 
Q 38.140625 66.40625 31.78125 66.40625 
Q 25.390625 66.40625 21.84375 63.234375 
Q 18.3125 60.0625 18.3125 54.390625 
z
" id="DejaVuSans-56"/>
      </defs>
      <g transform="translate(515.78955 659.16475)scale(0.2592 -0.2592)">
       <use xlink:href="#DejaVuSans-48"/>
       <use x="63.623047" xlink:href="#DejaVuSans-46"/>
       <use x="95.410156" xlink:href="#DejaVuSans-56"/>
      </g>
     </g>
    </g>
    <g id="xtick_12">
     <g id="line2d_30">
      <g>
       <use style="stroke:#000000;stroke-width:0.8;" x="648" xlink:href="#medaca8cea9" y="632.4696"/>
      </g>
     </g>
     <g id="text_14">
      <!-- 1.0 -->
      <g transform="translate(627.38955 659.16475)scale(0.2592 -0.2592)">
       <use xlink:href="#DejaVuSans-49"/>
       <use x="63.623047" xlink:href="#DejaVuSans-46"/>
       <use x="95.410156" xlink:href="#DejaVuSans-48"/>
      </g>
     </g>
    </g>
    <g id="text_15">
     <!-- purityW -->
     <g transform="translate(318.065175 688.25045)scale(0.2592 -0.2592)">
      <use xlink:href="#DejaVuSans-112"/>
      <use x="63.476562" xlink:href="#DejaVuSans-117"/>
      <use x="126.855469" xlink:href="#DejaVuSans-114"/>
      <use x="167.96875" xlink:href="#DejaVuSans-105"/>
      <use x="195.751953" xlink:href="#DejaVuSans-116"/>
      <use x="234.960938" xlink:href="#DejaVuSans-121"/>
      <use x="294.140625" xlink:href="#DejaVuSans-87"/>
     </g>
    </g>
   </g>
   <g id="matplotlib.axis_4">
    <g id="ytick_4">
     <g id="line2d_31">
      <g>
       <use style="stroke:#000000;stroke-width:0.8;" x="90" xlink:href="#m5654f26b13" y="571.076987"/>
      </g>
     </g>
     <g id="text_16">
      <!-- $\mathdefault{10^{1}}$ -->
      <g transform="translate(37.3808 580.924562)scale(0.2592 -0.2592)">
       <use transform="translate(0 0.684375)" xlink:href="#DejaVuSans-49"/>
       <use transform="translate(63.623047 0.684375)" xlink:href="#DejaVuSans-48"/>
       <use transform="translate(128.203125 38.965625)scale(0.7)" xlink:href="#DejaVuSans-49"/>
      </g>
     </g>
    </g>
    <g id="ytick_5">
     <g id="line2d_32">
      <g>
       <use style="stroke:#000000;stroke-width:0.8;" x="90" xlink:href="#m5654f26b13" y="470.903035"/>
      </g>
     </g>
     <g id="text_17">
      <!-- $\mathdefault{10^{3}}$ -->
      <defs>
       <path d="M 40.578125 39.3125 
Q 47.65625 37.796875 51.625 33 
Q 55.609375 28.21875 55.609375 21.1875 
Q 55.609375 10.40625 48.1875 4.484375 
Q 40.765625 -1.421875 27.09375 -1.421875 
Q 22.515625 -1.421875 17.65625 -0.515625 
Q 12.796875 0.390625 7.625 2.203125 
L 7.625 11.71875 
Q 11.71875 9.328125 16.59375 8.109375 
Q 21.484375 6.890625 26.8125 6.890625 
Q 36.078125 6.890625 40.9375 10.546875 
Q 45.796875 14.203125 45.796875 21.1875 
Q 45.796875 27.640625 41.28125 31.265625 
Q 36.765625 34.90625 28.71875 34.90625 
L 20.21875 34.90625 
L 20.21875 43.015625 
L 29.109375 43.015625 
Q 36.375 43.015625 40.234375 45.921875 
Q 44.09375 48.828125 44.09375 54.296875 
Q 44.09375 59.90625 40.109375 62.90625 
Q 36.140625 65.921875 28.71875 65.921875 
Q 24.65625 65.921875 20.015625 65.03125 
Q 15.375 64.15625 9.8125 62.3125 
L 9.8125 71.09375 
Q 15.4375 72.65625 20.34375 73.4375 
Q 25.25 74.21875 29.59375 74.21875 
Q 40.828125 74.21875 47.359375 69.109375 
Q 53.90625 64.015625 53.90625 55.328125 
Q 53.90625 49.265625 50.4375 45.09375 
Q 46.96875 40.921875 40.578125 39.3125 
z
" id="DejaVuSans-51"/>
      </defs>
      <g transform="translate(37.3808 480.75061)scale(0.2592 -0.2592)">
       <use transform="translate(0 0.765625)" xlink:href="#DejaVuSans-49"/>
       <use transform="translate(63.623047 0.765625)" xlink:href="#DejaVuSans-48"/>
       <use transform="translate(128.203125 39.046875)scale(0.7)" xlink:href="#DejaVuSans-51"/>
      </g>
     </g>
    </g>
    <g id="text_18">
     <!-- Count -->
     <defs>
      <path d="M 64.40625 67.28125 
L 64.40625 56.890625 
Q 59.421875 61.53125 53.78125 63.8125 
Q 48.140625 66.109375 41.796875 66.109375 
Q 29.296875 66.109375 22.65625 58.46875 
Q 16.015625 50.828125 16.015625 36.375 
Q 16.015625 21.96875 22.65625 14.328125 
Q 29.296875 6.6875 41.796875 6.6875 
Q 48.140625 6.6875 53.78125 8.984375 
Q 59.421875 11.28125 64.40625 15.921875 
L 64.40625 5.609375 
Q 59.234375 2.09375 53.4375 0.328125 
Q 47.65625 -1.421875 41.21875 -1.421875 
Q 24.65625 -1.421875 15.125 8.703125 
Q 5.609375 18.84375 5.609375 36.375 
Q 5.609375 53.953125 15.125 64.078125 
Q 24.65625 74.21875 41.21875 74.21875 
Q 47.75 74.21875 53.53125 72.484375 
Q 59.328125 70.75 64.40625 67.28125 
z
" id="DejaVuSans-67"/>
     </defs>
     <g transform="translate(27.99025 546.59475)rotate(-90)scale(0.2592 -0.2592)">
      <use xlink:href="#DejaVuSans-67"/>
      <use x="69.824219" xlink:href="#DejaVuSans-111"/>
      <use x="131.005859" xlink:href="#DejaVuSans-117"/>
      <use x="194.384766" xlink:href="#DejaVuSans-110"/>
      <use x="257.763672" xlink:href="#DejaVuSans-116"/>
     </g>
    </g>
   </g>
   <g id="line2d_33">
    <path clip-path="url(#pb4615c1c26)" d="M 90 536.507153 
L 104.307692 536.507153 
L 104.307692 569.003753 
L 118.615385 569.003753 
L 118.615385 555.999305 
L 132.923077 555.999305 
L 132.923077 560.853235 
L 147.230769 560.853235 
L 147.230769 552.959134 
L 161.538462 552.959134 
L 161.538462 547.91687 
L 175.846154 547.91687 
L 175.846154 543.826264 
L 190.153846 543.826264 
L 190.153846 543.826264 
L 204.461538 543.826264 
L 204.461538 536.067693 
L 218.769231 536.067693 
L 218.769231 528.748582 
L 233.076923 528.748582 
L 233.076923 531.388484 
L 247.384615 531.388484 
L 247.384615 525.57372 
L 261.692308 525.57372 
L 261.692308 522.105768 
L 276 522.105768 
L 276 517.761505 
L 290.307692 517.761505 
L 290.307692 515.450907 
L 304.615385 515.450907 
L 304.615385 512.025597 
L 318.923077 512.025597 
L 318.923077 509.834817 
L 333.230769 509.834817 
L 333.230769 506.241088 
L 347.538462 506.241088 
L 347.538462 500.205251 
L 361.846154 500.205251 
L 361.846154 499.223769 
L 376.153846 499.223769 
L 376.153846 499.627352 
L 390.461538 499.627352 
L 390.461538 494.692104 
L 404.769231 494.692104 
L 404.769231 495.019216 
L 419.076923 495.019216 
L 419.076923 491.722627 
L 433.384615 491.722627 
L 433.384615 491.779348 
L 447.692308 491.779348 
L 447.692308 494.627268 
L 462 494.627268 
L 462 488.860513 
L 476.307692 488.860513 
L 476.307692 487.050728 
L 490.615385 487.050728 
L 490.615385 487.936804 
L 504.923077 487.936804 
L 504.923077 484.346942 
L 519.230769 484.346942 
L 519.230769 480.2402 
L 533.538462 480.2402 
L 533.538462 476.901362 
L 547.846154 476.901362 
L 547.846154 473.95735 
L 562.153846 473.95735 
L 562.153846 468.968668 
L 576.461538 468.968668 
L 576.461538 462.170341 
L 590.769231 462.170341 
L 590.769231 453.980728 
L 605.076923 453.980728 
L 605.076923 442.573254 
L 619.384615 442.573254 
L 619.384615 426.978361 
L 633.692308 426.978361 
L 633.692308 395.051236 
L 648 395.051236 
" style="fill:none;stroke:#1f77b4;stroke-linecap:square;stroke-width:1.5;"/>
   </g>
   <g id="line2d_34">
    <path clip-path="url(#pb4615c1c26)" d="M 90 540.384497 
L 104.307692 540.384497 
L 104.307692 571.076987 
L 118.615385 571.076987 
L 118.615385 562.257109 
L 132.923077 562.257109 
L 132.923077 571.076987 
L 147.230769 571.076987 
L 147.230769 562.257109 
L 161.538462 562.257109 
L 161.538462 553.926071 
L 175.846154 553.926071 
L 175.846154 548.680194 
L 190.153846 548.680194 
L 190.153846 546.466166 
L 204.461538 546.466166 
L 204.461538 543.826264 
L 218.769231 543.826264 
L 218.769231 534.800199 
L 233.076923 534.800199 
L 233.076923 539.860315 
L 247.384615 539.860315 
L 247.384615 532.467341 
L 261.692308 532.467341 
L 261.692308 532.101744 
L 276 532.101744 
L 276 523.281866 
L 290.307692 523.281866 
L 290.307692 521.652575 
L 304.615385 521.652575 
L 304.615385 516.664508 
L 318.923077 516.664508 
L 318.923077 513.983891 
L 333.230769 513.983891 
L 333.230769 510.096898 
L 347.538462 510.096898 
L 347.538462 504.137761 
L 361.846154 504.137761 
L 361.846154 503.740444 
L 376.153846 503.740444 
L 376.153846 503.062137 
L 390.461538 503.062137 
L 390.461538 497.755014 
L 404.769231 497.755014 
L 404.769231 497.755014 
L 419.076923 497.755014 
L 419.076923 494.88778 
L 433.384615 494.88778 
L 433.384615 494.305955 
L 447.692308 494.305955 
L 447.692308 496.239302 
L 462 496.239302 
L 462 490.40389 
L 476.307692 490.40389 
L 476.307692 488.515619 
L 490.615385 488.515619 
L 490.615385 489.413785 
L 504.923077 489.413785 
L 504.923077 485.337739 
L 519.230769 485.337739 
L 519.230769 480.644909 
L 533.538462 480.644909 
L 533.538462 477.452823 
L 547.846154 477.452823 
L 547.846154 474.361589 
L 562.153846 474.361589 
L 562.153846 469.1686 
L 576.461538 469.1686 
L 576.461538 462.257876 
L 590.769231 462.257876 
L 590.769231 454.090918 
L 605.076923 454.090918 
L 605.076923 442.614693 
L 619.384615 442.614693 
L 619.384615 427.001475 
L 633.692308 427.001475 
L 633.692308 395.060554 
L 648 395.060554 
" style="fill:none;stroke:#ff7f0e;stroke-linecap:square;stroke-width:1.5;"/>
   </g>
   <g id="line2d_35">
    <path clip-path="url(#pb4615c1c26)" d="M 90 582.18872 
L 104.307692 582.18872 
L 104.307692 711.64 
M 118.615385 711.64 
L 118.615385 606.086281 
L 132.923077 606.086281 
L 132.923077 711.64 
M 147.230769 711.64 
L 147.230769 606.086281 
L 161.538462 606.086281 
L 161.538462 711.64 
M 175.846154 711.64 
L 175.846154 621.163964 
L 190.153846 621.163964 
L 190.153846 621.163964 
L 204.461538 621.163964 
L 204.461538 606.086281 
L 218.769231 606.086281 
L 218.769231 575.930917 
L 233.076923 575.930917 
L 233.076923 597.266403 
L 247.384615 597.266403 
L 247.384615 621.163964 
L 261.692308 621.163964 
L 261.692308 591.008599 
L 276 591.008599 
L 276 569.003753 
L 290.307692 569.003753 
L 290.307692 565.369909 
L 304.615385 565.369909 
L 304.615385 560.853235 
L 318.923077 560.853235 
L 318.923077 567.111038 
L 333.230769 567.111038 
L 333.230769 560.853235 
L 347.538462 560.853235 
L 347.538462 554.937997 
L 361.846154 554.937997 
L 361.846154 562.257109 
L 376.153846 562.257109 
L 376.153846 558.29116 
L 390.461538 558.29116 
L 390.461538 554.937997 
L 404.769231 554.937997 
L 404.769231 562.257109 
L 419.076923 562.257109 
L 419.076923 560.853235 
L 433.384615 560.853235 
L 433.384615 565.369909 
L 447.692308 565.369909 
L 447.692308 578.835558 
L 462 578.835558 
L 462 554.937997 
L 476.307692 554.937997 
L 476.307692 578.835558 
L 490.615385 578.835558 
L 490.615385 567.111038 
L 504.923077 567.111038 
L 504.923077 559.534498 
L 519.230769 559.534498 
L 519.230769 560.853235 
L 533.538462 560.853235 
L 533.538462 569.003753 
L 547.846154 569.003753 
L 547.846154 560.853235 
L 562.153846 560.853235 
L 562.153846 555.999305 
L 576.461538 555.999305 
L 576.461538 560.853235 
L 590.769231 560.853235 
L 590.769231 551.145376 
L 605.076923 551.145376 
L 605.076923 545.106192 
L 619.384615 545.106192 
L 619.384615 530.69787 
L 633.692308 530.69787 
L 633.692308 491.553346 
L 648 491.553346 
" style="fill:none;stroke:#2ca02c;stroke-linecap:square;stroke-width:1.5;"/>
   </g>
   <g id="patch_10">
    <path d="M 90 632.4696 
L 90 383.7456 
" style="fill:none;stroke:#000000;stroke-linecap:square;stroke-linejoin:miter;stroke-width:0.8;"/>
   </g>
   <g id="patch_11">
    <path d="M 648 632.4696 
L 648 383.7456 
" style="fill:none;stroke:#000000;stroke-linecap:square;stroke-linejoin:miter;stroke-width:0.8;"/>
   </g>
   <g id="patch_12">
    <path d="M 90 632.4696 
L 648 632.4696 
" style="fill:none;stroke:#000000;stroke-linecap:square;stroke-linejoin:miter;stroke-width:0.8;"/>
   </g>
   <g id="patch_13">
    <path d="M 90 383.7456 
L 648 383.7456 
" style="fill:none;stroke:#000000;stroke-linecap:square;stroke-linejoin:miter;stroke-width:0.8;"/>
   </g>
   <g id="legend_2">
    <g id="patch_14">
     <path d="M 421.225313 477.407475 
L 635.4 477.407475 
Q 639 477.407475 639 473.807475 
L 639 396.3456 
Q 639 392.7456 635.4 392.7456 
L 421.225313 392.7456 
Q 417.625313 392.7456 417.625313 396.3456 
L 417.625313 473.807475 
Q 417.625313 477.407475 421.225313 477.407475 
z
" style="fill:#ffffff;opacity:0.5;stroke:#cccccc;stroke-linejoin:miter;"/>
    </g>
    <g id="line2d_36">
     <path d="M 424.825312 407.322787 
L 460.825312 407.322787 
" style="fill:none;stroke:#1f77b4;stroke-linecap:square;stroke-width:1.5;"/>
    </g>
    <g id="line2d_37"/>
    <g id="text_19">
     <!--  track -->
     <defs>
      <path id="DejaVuSans-32"/>
      <path d="M 9.078125 75.984375 
L 18.109375 75.984375 
L 18.109375 31.109375 
L 44.921875 54.6875 
L 56.390625 54.6875 
L 27.390625 29.109375 
L 57.625 0 
L 45.90625 0 
L 18.109375 26.703125 
L 18.109375 0 
L 9.078125 0 
z
" id="DejaVuSans-107"/>
     </defs>
     <g transform="translate(475.225312 413.622787)scale(0.18 -0.18)">
      <use xlink:href="#DejaVuSans-32"/>
      <use x="31.787109" xlink:href="#DejaVuSans-116"/>
      <use x="70.996094" xlink:href="#DejaVuSans-114"/>
      <use x="112.109375" xlink:href="#DejaVuSans-97"/>
      <use x="173.388672" xlink:href="#DejaVuSans-99"/>
      <use x="228.369141" xlink:href="#DejaVuSans-107"/>
     </g>
    </g>
    <g id="line2d_38">
     <path d="M 424.825312 433.743412 
L 460.825312 433.743412 
" style="fill:none;stroke:#ff7f0e;stroke-linecap:square;stroke-width:1.5;"/>
    </g>
    <g id="line2d_39"/>
    <g id="text_20">
     <!-- correct  track -->
     <g transform="translate(475.225312 440.043412)scale(0.18 -0.18)">
      <use xlink:href="#DejaVuSans-99"/>
      <use x="54.980469" xlink:href="#DejaVuSans-111"/>
      <use x="116.162109" xlink:href="#DejaVuSans-114"/>
      <use x="157.259766" xlink:href="#DejaVuSans-114"/>
      <use x="198.341797" xlink:href="#DejaVuSans-101"/>
      <use x="259.865234" xlink:href="#DejaVuSans-99"/>
      <use x="314.845703" xlink:href="#DejaVuSans-116"/>
      <use x="354.054688" xlink:href="#DejaVuSans-32"/>
      <use x="385.841797" xlink:href="#DejaVuSans-32"/>
      <use x="417.628906" xlink:href="#DejaVuSans-116"/>
      <use x="456.837891" xlink:href="#DejaVuSans-114"/>
      <use x="497.951172" xlink:href="#DejaVuSans-97"/>
      <use x="559.230469" xlink:href="#DejaVuSans-99"/>
      <use x="614.210938" xlink:href="#DejaVuSans-107"/>
     </g>
    </g>
    <g id="line2d_40">
     <path d="M 424.825312 460.164037 
L 460.825312 460.164037 
" style="fill:none;stroke:#2ca02c;stroke-linecap:square;stroke-width:1.5;"/>
    </g>
    <g id="line2d_41"/>
    <g id="text_21">
     <!-- incorrect  shower -->
     <defs>
      <path d="M 44.28125 53.078125 
L 44.28125 44.578125 
Q 40.484375 46.53125 36.375 47.5 
Q 32.28125 48.484375 27.875 48.484375 
Q 21.1875 48.484375 17.84375 46.4375 
Q 14.5 44.390625 14.5 40.28125 
Q 14.5 37.15625 16.890625 35.375 
Q 19.28125 33.59375 26.515625 31.984375 
L 29.59375 31.296875 
Q 39.15625 29.25 43.1875 25.515625 
Q 47.21875 21.78125 47.21875 15.09375 
Q 47.21875 7.46875 41.1875 3.015625 
Q 35.15625 -1.421875 24.609375 -1.421875 
Q 20.21875 -1.421875 15.453125 -0.5625 
Q 10.6875 0.296875 5.421875 2 
L 5.421875 11.28125 
Q 10.40625 8.6875 15.234375 7.390625 
Q 20.0625 6.109375 24.8125 6.109375 
Q 31.15625 6.109375 34.5625 8.28125 
Q 37.984375 10.453125 37.984375 14.40625 
Q 37.984375 18.0625 35.515625 20.015625 
Q 33.0625 21.96875 24.703125 23.78125 
L 21.578125 24.515625 
Q 13.234375 26.265625 9.515625 29.90625 
Q 5.8125 33.546875 5.8125 39.890625 
Q 5.8125 47.609375 11.28125 51.796875 
Q 16.75 56 26.8125 56 
Q 31.78125 56 36.171875 55.265625 
Q 40.578125 54.546875 44.28125 53.078125 
z
" id="DejaVuSans-115"/>
      <path d="M 54.890625 33.015625 
L 54.890625 0 
L 45.90625 0 
L 45.90625 32.71875 
Q 45.90625 40.484375 42.875 44.328125 
Q 39.84375 48.1875 33.796875 48.1875 
Q 26.515625 48.1875 22.3125 43.546875 
Q 18.109375 38.921875 18.109375 30.90625 
L 18.109375 0 
L 9.078125 0 
L 9.078125 75.984375 
L 18.109375 75.984375 
L 18.109375 46.1875 
Q 21.34375 51.125 25.703125 53.5625 
Q 30.078125 56 35.796875 56 
Q 45.21875 56 50.046875 50.171875 
Q 54.890625 44.34375 54.890625 33.015625 
z
" id="DejaVuSans-104"/>
      <path d="M 4.203125 54.6875 
L 13.1875 54.6875 
L 24.421875 12.015625 
L 35.59375 54.6875 
L 46.1875 54.6875 
L 57.421875 12.015625 
L 68.609375 54.6875 
L 77.59375 54.6875 
L 63.28125 0 
L 52.6875 0 
L 40.921875 44.828125 
L 29.109375 0 
L 18.5 0 
z
" id="DejaVuSans-119"/>
     </defs>
     <g transform="translate(475.225312 466.464037)scale(0.18 -0.18)">
      <use xlink:href="#DejaVuSans-105"/>
      <use x="27.783203" xlink:href="#DejaVuSans-110"/>
      <use x="91.162109" xlink:href="#DejaVuSans-99"/>
      <use x="146.142578" xlink:href="#DejaVuSans-111"/>
      <use x="207.324219" xlink:href="#DejaVuSans-114"/>
      <use x="248.421875" xlink:href="#DejaVuSans-114"/>
      <use x="289.503906" xlink:href="#DejaVuSans-101"/>
      <use x="351.027344" xlink:href="#DejaVuSans-99"/>
      <use x="406.007812" xlink:href="#DejaVuSans-116"/>
      <use x="445.216797" xlink:href="#DejaVuSans-32"/>
      <use x="477.003906" xlink:href="#DejaVuSans-32"/>
      <use x="508.791016" xlink:href="#DejaVuSans-115"/>
      <use x="560.890625" xlink:href="#DejaVuSans-104"/>
      <use x="624.269531" xlink:href="#DejaVuSans-111"/>
      <use x="685.451172" xlink:href="#DejaVuSans-119"/>
      <use x="767.238281" xlink:href="#DejaVuSans-101"/>
      <use x="828.761719" xlink:href="#DejaVuSans-114"/>
     </g>
    </g>
   </g>
  </g>
 </g>
 <defs>
  <clipPath id="p1b7ad5cae8">
   <rect height="248.724" width="558" x="90" y="85.2768"/>
  </clipPath>
  <clipPath id="pb4615c1c26">
   <rect height="248.724" width="558" x="90" y="383.7456"/>
  </clipPath>
 </defs>
</svg>
