<?xml version="1.0" encoding="utf-8" standalone="no"?>
<!DOCTYPE svg PUBLIC "-//W3C//DTD SVG 1.1//EN"
  "http://www.w3.org/Graphics/SVG/1.1/DTD/svg11.dtd">
<!-- Created with matplotlib (https://matplotlib.org/) -->
<svg height="710.64pt" version="1.1" viewBox="0 0 720 710.64" width="720pt" xmlns="http://www.w3.org/2000/svg" xmlns:xlink="http://www.w3.org/1999/xlink">
 <defs>
  <style type="text/css">
*{stroke-linecap:butt;stroke-linejoin:round;}
  </style>
 </defs>
 <g id="figure_1">
  <g id="patch_1">
   <path d="M 0 710.64 
L 720 710.64 
L 720 0 
L 0 0 
z
" style="fill:#ffffff;"/>
  </g>
  <g id="axes_1">
   <g id="patch_2">
    <path d="M 90 334.0008 
L 648 334.0008 
L 648 85.2768 
L 90 85.2768 
z
" style="fill:#ffffff;"/>
   </g>
   <g id="matplotlib.axis_1">
    <g id="xtick_1">
     <g id="line2d_1">
      <defs>
       <path d="M 0 0 
L 0 3.5 
" id="m5e38df597a" style="stroke:#000000;stroke-width:0.8;"/>
      </defs>
      <g>
       <use style="stroke:#000000;stroke-width:0.8;" x="90" xlink:href="#m5e38df597a" y="334.0008"/>
      </g>
     </g>
    </g>
    <g id="xtick_2">
     <g id="line2d_2">
      <g>
       <use style="stroke:#000000;stroke-width:0.8;" x="201.6" xlink:href="#m5e38df597a" y="334.0008"/>
      </g>
     </g>
    </g>
    <g id="xtick_3">
     <g id="line2d_3">
      <g>
       <use style="stroke:#000000;stroke-width:0.8;" x="313.2" xlink:href="#m5e38df597a" y="334.0008"/>
      </g>
     </g>
    </g>
    <g id="xtick_4">
     <g id="line2d_4">
      <g>
       <use style="stroke:#000000;stroke-width:0.8;" x="424.8" xlink:href="#m5e38df597a" y="334.0008"/>
      </g>
     </g>
    </g>
    <g id="xtick_5">
     <g id="line2d_5">
      <g>
       <use style="stroke:#000000;stroke-width:0.8;" x="536.4" xlink:href="#m5e38df597a" y="334.0008"/>
      </g>
     </g>
    </g>
    <g id="xtick_6">
     <g id="line2d_6">
      <g>
       <use style="stroke:#000000;stroke-width:0.8;" x="648" xlink:href="#m5e38df597a" y="334.0008"/>
      </g>
     </g>
    </g>
    <g id="text_1">
     <!-- purityW -->
     <defs>
      <path d="M 18.109375 8.203125 
L 18.109375 -20.796875 
L 9.078125 -20.796875 
L 9.078125 54.6875 
L 18.109375 54.6875 
L 18.109375 46.390625 
Q 20.953125 51.265625 25.265625 53.625 
Q 29.59375 56 35.59375 56 
Q 45.5625 56 51.78125 48.09375 
Q 58.015625 40.1875 58.015625 27.296875 
Q 58.015625 14.40625 51.78125 6.484375 
Q 45.5625 -1.421875 35.59375 -1.421875 
Q 29.59375 -1.421875 25.265625 0.953125 
Q 20.953125 3.328125 18.109375 8.203125 
z
M 48.6875 27.296875 
Q 48.6875 37.203125 44.609375 42.84375 
Q 40.53125 48.484375 33.40625 48.484375 
Q 26.265625 48.484375 22.1875 42.84375 
Q 18.109375 37.203125 18.109375 27.296875 
Q 18.109375 17.390625 22.1875 11.75 
Q 26.265625 6.109375 33.40625 6.109375 
Q 40.53125 6.109375 44.609375 11.75 
Q 48.6875 17.390625 48.6875 27.296875 
z
" id="DejaVuSans-112"/>
      <path d="M 8.5 21.578125 
L 8.5 54.6875 
L 17.484375 54.6875 
L 17.484375 21.921875 
Q 17.484375 14.15625 20.5 10.265625 
Q 23.53125 6.390625 29.59375 6.390625 
Q 36.859375 6.390625 41.078125 11.03125 
Q 45.3125 15.671875 45.3125 23.6875 
L 45.3125 54.6875 
L 54.296875 54.6875 
L 54.296875 0 
L 45.3125 0 
L 45.3125 8.40625 
Q 42.046875 3.421875 37.71875 1 
Q 33.40625 -1.421875 27.6875 -1.421875 
Q 18.265625 -1.421875 13.375 4.4375 
Q 8.5 10.296875 8.5 21.578125 
z
M 31.109375 56 
z
" id="DejaVuSans-117"/>
      <path d="M 41.109375 46.296875 
Q 39.59375 47.171875 37.8125 47.578125 
Q 36.03125 48 33.890625 48 
Q 26.265625 48 22.1875 43.046875 
Q 18.109375 38.09375 18.109375 28.8125 
L 18.109375 0 
L 9.078125 0 
L 9.078125 54.6875 
L 18.109375 54.6875 
L 18.109375 46.1875 
Q 20.953125 51.171875 25.484375 53.578125 
Q 30.03125 56 36.53125 56 
Q 37.453125 56 38.578125 55.875 
Q 39.703125 55.765625 41.0625 55.515625 
z
" id="DejaVuSans-114"/>
      <path d="M 9.421875 54.6875 
L 18.40625 54.6875 
L 18.40625 0 
L 9.421875 0 
z
M 9.421875 75.984375 
L 18.40625 75.984375 
L 18.40625 64.59375 
L 9.421875 64.59375 
z
" id="DejaVuSans-105"/>
      <path d="M 18.3125 70.21875 
L 18.3125 54.6875 
L 36.8125 54.6875 
L 36.8125 47.703125 
L 18.3125 47.703125 
L 18.3125 18.015625 
Q 18.3125 11.328125 20.140625 9.421875 
Q 21.96875 7.515625 27.59375 7.515625 
L 36.8125 7.515625 
L 36.8125 0 
L 27.59375 0 
Q 17.1875 0 13.234375 3.875 
Q 9.28125 7.765625 9.28125 18.015625 
L 9.28125 47.703125 
L 2.6875 47.703125 
L 2.6875 54.6875 
L 9.28125 54.6875 
L 9.28125 70.21875 
z
" id="DejaVuSans-116"/>
      <path d="M 32.171875 -5.078125 
Q 28.375 -14.84375 24.75 -17.8125 
Q 21.140625 -20.796875 15.09375 -20.796875 
L 7.90625 -20.796875 
L 7.90625 -13.28125 
L 13.1875 -13.28125 
Q 16.890625 -13.28125 18.9375 -11.515625 
Q 21 -9.765625 23.484375 -3.21875 
L 25.09375 0.875 
L 2.984375 54.6875 
L 12.5 54.6875 
L 29.59375 11.921875 
L 46.6875 54.6875 
L 56.203125 54.6875 
z
" id="DejaVuSans-121"/>
      <path d="M 3.328125 72.90625 
L 13.28125 72.90625 
L 28.609375 11.28125 
L 43.890625 72.90625 
L 54.984375 72.90625 
L 70.3125 11.28125 
L 85.59375 72.90625 
L 95.609375 72.90625 
L 77.296875 0 
L 64.890625 0 
L 49.515625 63.28125 
L 33.984375 0 
L 21.578125 0 
z
" id="DejaVuSans-87"/>
     </defs>
     <g transform="translate(318.065175 357.69595)scale(0.2592 -0.2592)">
      <use xlink:href="#DejaVuSans-112"/>
      <use x="63.476562" xlink:href="#DejaVuSans-117"/>
      <use x="126.855469" xlink:href="#DejaVuSans-114"/>
      <use x="167.96875" xlink:href="#DejaVuSans-105"/>
      <use x="195.751953" xlink:href="#DejaVuSans-116"/>
      <use x="234.960938" xlink:href="#DejaVuSans-121"/>
      <use x="294.140625" xlink:href="#DejaVuSans-87"/>
     </g>
    </g>
   </g>
   <g id="matplotlib.axis_2">
    <g id="ytick_1">
     <g id="line2d_7">
      <defs>
       <path d="M 0 0 
L -3.5 0 
" id="mbde4532d15" style="stroke:#000000;stroke-width:0.8;"/>
      </defs>
      <g>
       <use style="stroke:#000000;stroke-width:0.8;" x="90" xlink:href="#mbde4532d15" y="334.0008"/>
      </g>
     </g>
     <g id="text_2">
      <!-- 0.0 -->
      <defs>
       <path d="M 31.78125 66.40625 
Q 24.171875 66.40625 20.328125 58.90625 
Q 16.5 51.421875 16.5 36.375 
Q 16.5 21.390625 20.328125 13.890625 
Q 24.171875 6.390625 31.78125 6.390625 
Q 39.453125 6.390625 43.28125 13.890625 
Q 47.125 21.390625 47.125 36.375 
Q 47.125 51.421875 43.28125 58.90625 
Q 39.453125 66.40625 31.78125 66.40625 
z
M 31.78125 74.21875 
Q 44.046875 74.21875 50.515625 64.515625 
Q 56.984375 54.828125 56.984375 36.375 
Q 56.984375 17.96875 50.515625 8.265625 
Q 44.046875 -1.421875 31.78125 -1.421875 
Q 19.53125 -1.421875 13.0625 8.265625 
Q 6.59375 17.96875 6.59375 36.375 
Q 6.59375 54.828125 13.0625 64.515625 
Q 19.53125 74.21875 31.78125 74.21875 
z
" id="DejaVuSans-48"/>
       <path d="M 10.6875 12.40625 
L 21 12.40625 
L 21 0 
L 10.6875 0 
z
" id="DejaVuSans-46"/>
      </defs>
      <g transform="translate(41.7791 343.848375)scale(0.2592 -0.2592)">
       <use xlink:href="#DejaVuSans-48"/>
       <use x="63.623047" xlink:href="#DejaVuSans-46"/>
       <use x="95.410156" xlink:href="#DejaVuSans-48"/>
      </g>
     </g>
    </g>
    <g id="ytick_2">
     <g id="line2d_8">
      <g>
       <use style="stroke:#000000;stroke-width:0.8;" x="90" xlink:href="#mbde4532d15" y="210.870107"/>
      </g>
     </g>
     <g id="text_3">
      <!-- 0.5 -->
      <defs>
       <path d="M 10.796875 72.90625 
L 49.515625 72.90625 
L 49.515625 64.59375 
L 19.828125 64.59375 
L 19.828125 46.734375 
Q 21.96875 47.46875 24.109375 47.828125 
Q 26.265625 48.1875 28.421875 48.1875 
Q 40.625 48.1875 47.75 41.5 
Q 54.890625 34.8125 54.890625 23.390625 
Q 54.890625 11.625 47.5625 5.09375 
Q 40.234375 -1.421875 26.90625 -1.421875 
Q 22.3125 -1.421875 17.546875 -0.640625 
Q 12.796875 0.140625 7.71875 1.703125 
L 7.71875 11.625 
Q 12.109375 9.234375 16.796875 8.0625 
Q 21.484375 6.890625 26.703125 6.890625 
Q 35.15625 6.890625 40.078125 11.328125 
Q 45.015625 15.765625 45.015625 23.390625 
Q 45.015625 31 40.078125 35.4375 
Q 35.15625 39.890625 26.703125 39.890625 
Q 22.75 39.890625 18.8125 39.015625 
Q 14.890625 38.140625 10.796875 36.28125 
z
" id="DejaVuSans-53"/>
      </defs>
      <g transform="translate(41.7791 220.717682)scale(0.2592 -0.2592)">
       <use xlink:href="#DejaVuSans-48"/>
       <use x="63.623047" xlink:href="#DejaVuSans-46"/>
       <use x="95.410156" xlink:href="#DejaVuSans-53"/>
      </g>
     </g>
    </g>
    <g id="ytick_3">
     <g id="line2d_9">
      <g>
       <use style="stroke:#000000;stroke-width:0.8;" x="90" xlink:href="#mbde4532d15" y="87.739414"/>
      </g>
     </g>
     <g id="text_4">
      <!-- 1.0 -->
      <defs>
       <path d="M 12.40625 8.296875 
L 28.515625 8.296875 
L 28.515625 63.921875 
L 10.984375 60.40625 
L 10.984375 69.390625 
L 28.421875 72.90625 
L 38.28125 72.90625 
L 38.28125 8.296875 
L 54.390625 8.296875 
L 54.390625 0 
L 12.40625 0 
z
" id="DejaVuSans-49"/>
      </defs>
      <g transform="translate(41.7791 97.586989)scale(0.2592 -0.2592)">
       <use xlink:href="#DejaVuSans-49"/>
       <use x="63.623047" xlink:href="#DejaVuSans-46"/>
       <use x="95.410156" xlink:href="#DejaVuSans-48"/>
      </g>
     </g>
    </g>
    <g id="text_5">
     <!-- Fraction -->
     <defs>
      <path d="M 9.8125 72.90625 
L 51.703125 72.90625 
L 51.703125 64.59375 
L 19.671875 64.59375 
L 19.671875 43.109375 
L 48.578125 43.109375 
L 48.578125 34.8125 
L 19.671875 34.8125 
L 19.671875 0 
L 9.8125 0 
z
" id="DejaVuSans-70"/>
      <path d="M 34.28125 27.484375 
Q 23.390625 27.484375 19.1875 25 
Q 14.984375 22.515625 14.984375 16.5 
Q 14.984375 11.71875 18.140625 8.90625 
Q 21.296875 6.109375 26.703125 6.109375 
Q 34.1875 6.109375 38.703125 11.40625 
Q 43.21875 16.703125 43.21875 25.484375 
L 43.21875 27.484375 
z
M 52.203125 31.203125 
L 52.203125 0 
L 43.21875 0 
L 43.21875 8.296875 
Q 40.140625 3.328125 35.546875 0.953125 
Q 30.953125 -1.421875 24.3125 -1.421875 
Q 15.921875 -1.421875 10.953125 3.296875 
Q 6 8.015625 6 15.921875 
Q 6 25.140625 12.171875 29.828125 
Q 18.359375 34.515625 30.609375 34.515625 
L 43.21875 34.515625 
L 43.21875 35.40625 
Q 43.21875 41.609375 39.140625 45 
Q 35.0625 48.390625 27.6875 48.390625 
Q 23 48.390625 18.546875 47.265625 
Q 14.109375 46.140625 10.015625 43.890625 
L 10.015625 52.203125 
Q 14.9375 54.109375 19.578125 55.046875 
Q 24.21875 56 28.609375 56 
Q 40.484375 56 46.34375 49.84375 
Q 52.203125 43.703125 52.203125 31.203125 
z
" id="DejaVuSans-97"/>
      <path d="M 48.78125 52.59375 
L 48.78125 44.1875 
Q 44.96875 46.296875 41.140625 47.34375 
Q 37.3125 48.390625 33.40625 48.390625 
Q 24.65625 48.390625 19.8125 42.84375 
Q 14.984375 37.3125 14.984375 27.296875 
Q 14.984375 17.28125 19.8125 11.734375 
Q 24.65625 6.203125 33.40625 6.203125 
Q 37.3125 6.203125 41.140625 7.25 
Q 44.96875 8.296875 48.78125 10.40625 
L 48.78125 2.09375 
Q 45.015625 0.34375 40.984375 -0.53125 
Q 36.96875 -1.421875 32.421875 -1.421875 
Q 20.0625 -1.421875 12.78125 6.34375 
Q 5.515625 14.109375 5.515625 27.296875 
Q 5.515625 40.671875 12.859375 48.328125 
Q 20.21875 56 33.015625 56 
Q 37.15625 56 41.109375 55.140625 
Q 45.0625 54.296875 48.78125 52.59375 
z
" id="DejaVuSans-99"/>
      <path d="M 30.609375 48.390625 
Q 23.390625 48.390625 19.1875 42.75 
Q 14.984375 37.109375 14.984375 27.296875 
Q 14.984375 17.484375 19.15625 11.84375 
Q 23.34375 6.203125 30.609375 6.203125 
Q 37.796875 6.203125 41.984375 11.859375 
Q 46.1875 17.53125 46.1875 27.296875 
Q 46.1875 37.015625 41.984375 42.703125 
Q 37.796875 48.390625 30.609375 48.390625 
z
M 30.609375 56 
Q 42.328125 56 49.015625 48.375 
Q 55.71875 40.765625 55.71875 27.296875 
Q 55.71875 13.875 49.015625 6.21875 
Q 42.328125 -1.421875 30.609375 -1.421875 
Q 18.84375 -1.421875 12.171875 6.21875 
Q 5.515625 13.875 5.515625 27.296875 
Q 5.515625 40.765625 12.171875 48.375 
Q 18.84375 56 30.609375 56 
z
" id="DejaVuSans-111"/>
      <path d="M 54.890625 33.015625 
L 54.890625 0 
L 45.90625 0 
L 45.90625 32.71875 
Q 45.90625 40.484375 42.875 44.328125 
Q 39.84375 48.1875 33.796875 48.1875 
Q 26.515625 48.1875 22.3125 43.546875 
Q 18.109375 38.921875 18.109375 30.90625 
L 18.109375 0 
L 9.078125 0 
L 9.078125 54.6875 
L 18.109375 54.6875 
L 18.109375 46.1875 
Q 21.34375 51.125 25.703125 53.5625 
Q 30.078125 56 35.796875 56 
Q 45.21875 56 50.046875 50.171875 
Q 54.890625 44.34375 54.890625 33.015625 
z
" id="DejaVuSans-110"/>
     </defs>
     <g transform="translate(32.38855 262.298925)rotate(-90)scale(0.2592 -0.2592)">
      <use xlink:href="#DejaVuSans-70"/>
      <use x="57.410156" xlink:href="#DejaVuSans-114"/>
      <use x="98.523438" xlink:href="#DejaVuSans-97"/>
      <use x="159.802734" xlink:href="#DejaVuSans-99"/>
      <use x="214.783203" xlink:href="#DejaVuSans-116"/>
      <use x="253.992188" xlink:href="#DejaVuSans-105"/>
      <use x="281.775391" xlink:href="#DejaVuSans-111"/>
      <use x="342.957031" xlink:href="#DejaVuSans-110"/>
     </g>
    </g>
   </g>
   <g id="LineCollection_1">
    <path clip-path="url(#p181ad29a73)" d="M 97.153846 197.188919 
L 97.153846 142.464166 
" style="fill:none;stroke:#008000;stroke-width:1.5;"/>
    <path clip-path="url(#p181ad29a73)" d="M 111.461538 87.739414 
L 111.461538 87.739414 
" style="fill:none;stroke:#008000;stroke-width:1.5;"/>
    <path clip-path="url(#p181ad29a73)" d="M 125.769231 334.0008 
L 125.769231 334.0008 
" style="fill:none;stroke:#008000;stroke-width:1.5;"/>
    <path clip-path="url(#p181ad29a73)" d="M 154.384615 217.219568 
L 154.384615 122.433517 
" style="fill:none;stroke:#008000;stroke-width:1.5;"/>
    <path clip-path="url(#p181ad29a73)" d="M 168.692308 87.739414 
L 168.692308 87.739414 
" style="fill:none;stroke:#008000;stroke-width:1.5;"/>
    <path clip-path="url(#p181ad29a73)" d="M 183 147.316641 
L 183 89.727533 
" style="fill:none;stroke:#008000;stroke-width:1.5;"/>
    <path clip-path="url(#p181ad29a73)" d="M 197.307692 131.47236 
L 197.307692 88.781265 
" style="fill:none;stroke:#008000;stroke-width:1.5;"/>
    <path clip-path="url(#p181ad29a73)" d="M 211.615385 145.950458 
L 211.615385 99.888766 
" style="fill:none;stroke:#008000;stroke-width:1.5;"/>
    <path clip-path="url(#p181ad29a73)" d="M 225.923077 193.523056 
L 225.923077 146.13003 
" style="fill:none;stroke:#008000;stroke-width:1.5;"/>
    <path clip-path="url(#p181ad29a73)" d="M 240.230769 141.724219 
L 240.230769 104.115005 
" style="fill:none;stroke:#008000;stroke-width:1.5;"/>
    <path clip-path="url(#p181ad29a73)" d="M 254.538462 104.575263 
L 254.538462 87.887108 
" style="fill:none;stroke:#008000;stroke-width:1.5;"/>
    <path clip-path="url(#p181ad29a73)" d="M 268.846154 122.347227 
L 268.846154 100.038532 
" style="fill:none;stroke:#008000;stroke-width:1.5;"/>
    <path clip-path="url(#p181ad29a73)" d="M 283.153846 149.186439 
L 283.153846 123.037933 
" style="fill:none;stroke:#008000;stroke-width:1.5;"/>
    <path clip-path="url(#p181ad29a73)" d="M 297.461538 162.697211 
L 297.461538 133.589089 
" style="fill:none;stroke:#008000;stroke-width:1.5;"/>
    <path clip-path="url(#p181ad29a73)" d="M 311.769231 168.775367 
L 311.769231 140.268958 
" style="fill:none;stroke:#008000;stroke-width:1.5;"/>
    <path clip-path="url(#p181ad29a73)" d="M 326.076923 145.05405 
L 326.076923 121.352059 
" style="fill:none;stroke:#008000;stroke-width:1.5;"/>
    <path clip-path="url(#p181ad29a73)" d="M 340.384615 143.889229 
L 340.384615 123.221743 
" style="fill:none;stroke:#008000;stroke-width:1.5;"/>
    <path clip-path="url(#p181ad29a73)" d="M 354.692308 147.723953 
L 354.692308 128.172139 
" style="fill:none;stroke:#008000;stroke-width:1.5;"/>
    <path clip-path="url(#p181ad29a73)" d="M 369 131.329288 
L 369 114.509936 
" style="fill:none;stroke:#008000;stroke-width:1.5;"/>
    <path clip-path="url(#p181ad29a73)" d="M 383.307692 122.898811 
L 383.307692 110.147614 
" style="fill:none;stroke:#008000;stroke-width:1.5;"/>
    <path clip-path="url(#p181ad29a73)" d="M 397.615385 138.545079 
L 397.615385 121.712258 
" style="fill:none;stroke:#008000;stroke-width:1.5;"/>
    <path clip-path="url(#p181ad29a73)" d="M 411.923077 123.599269 
L 411.923077 109.597071 
" style="fill:none;stroke:#008000;stroke-width:1.5;"/>
    <path clip-path="url(#p181ad29a73)" d="M 426.230769 125.144182 
L 426.230769 110.952833 
" style="fill:none;stroke:#008000;stroke-width:1.5;"/>
    <path clip-path="url(#p181ad29a73)" d="M 440.538462 117.273204 
L 440.538462 104.941361 
" style="fill:none;stroke:#008000;stroke-width:1.5;"/>
    <path clip-path="url(#p181ad29a73)" d="M 454.846154 108.044685 
L 454.846154 97.155344 
" style="fill:none;stroke:#008000;stroke-width:1.5;"/>
    <path clip-path="url(#p181ad29a73)" d="M 469.153846 130.602076 
L 469.153846 116.207636 
" style="fill:none;stroke:#008000;stroke-width:1.5;"/>
    <path clip-path="url(#p181ad29a73)" d="M 483.461538 103.683882 
L 483.461538 95.089942 
" style="fill:none;stroke:#008000;stroke-width:1.5;"/>
    <path clip-path="url(#p181ad29a73)" d="M 497.769231 116.288741 
L 497.769231 103.964884 
" style="fill:none;stroke:#008000;stroke-width:1.5;"/>
    <path clip-path="url(#p181ad29a73)" d="M 512.076923 121.577191 
L 512.076923 108.986421 
" style="fill:none;stroke:#008000;stroke-width:1.5;"/>
    <path clip-path="url(#p181ad29a73)" d="M 526.384615 115.308067 
L 526.384615 104.692594 
" style="fill:none;stroke:#008000;stroke-width:1.5;"/>
    <path clip-path="url(#p181ad29a73)" d="M 540.692308 108.200965 
L 540.692308 98.960614 
" style="fill:none;stroke:#008000;stroke-width:1.5;"/>
    <path clip-path="url(#p181ad29a73)" d="M 555 113.173224 
L 555 103.349168 
" style="fill:none;stroke:#008000;stroke-width:1.5;"/>
    <path clip-path="url(#p181ad29a73)" d="M 569.307692 113.073496 
L 569.307692 104.14455 
" style="fill:none;stroke:#008000;stroke-width:1.5;"/>
    <path clip-path="url(#p181ad29a73)" d="M 583.615385 106.211216 
L 583.615385 99.004836 
" style="fill:none;stroke:#008000;stroke-width:1.5;"/>
    <path clip-path="url(#p181ad29a73)" d="M 597.923077 107.753484 
L 597.923077 101.275941 
" style="fill:none;stroke:#008000;stroke-width:1.5;"/>
    <path clip-path="url(#p181ad29a73)" d="M 612.230769 104.204301 
L 612.230769 99.443073 
" style="fill:none;stroke:#008000;stroke-width:1.5;"/>
    <path clip-path="url(#p181ad29a73)" d="M 626.538462 105.027219 
L 626.538462 101.294522 
" style="fill:none;stroke:#008000;stroke-width:1.5;"/>
    <path clip-path="url(#p181ad29a73)" d="M 640.846154 96.80837 
L 640.846154 94.465649 
" style="fill:none;stroke:#008000;stroke-width:1.5;"/>
   </g>
   <g id="LineCollection_2">
    <path clip-path="url(#p181ad29a73)" d="M 97.153846 209.954338 
L 97.153846 162.533599 
" style="fill:none;stroke:#ff0000;stroke-width:1.5;"/>
    <path clip-path="url(#p181ad29a73)" d="M 111.461538 183.411827 
L 111.461538 90.571556 
" style="fill:none;stroke:#ff0000;stroke-width:1.5;"/>
    <path clip-path="url(#p181ad29a73)" d="M 125.769231 334.0008 
L 125.769231 334.0008 
" style="fill:none;stroke:#ff0000;stroke-width:1.5;"/>
    <path clip-path="url(#p181ad29a73)" d="M 154.384615 275.999036 
L 154.384615 227.828306 
" style="fill:none;stroke:#ff0000;stroke-width:1.5;"/>
    <path clip-path="url(#p181ad29a73)" d="M 168.692308 315.672722 
L 168.692308 290.763531 
" style="fill:none;stroke:#ff0000;stroke-width:1.5;"/>
    <path clip-path="url(#p181ad29a73)" d="M 183 237.076963 
L 183 184.663251 
" style="fill:none;stroke:#ff0000;stroke-width:1.5;"/>
    <path clip-path="url(#p181ad29a73)" d="M 197.307692 185.788346 
L 197.307692 130.411274 
" style="fill:none;stroke:#ff0000;stroke-width:1.5;"/>
    <path clip-path="url(#p181ad29a73)" d="M 211.615385 240.763928 
L 211.615385 208.338662 
" style="fill:none;stroke:#ff0000;stroke-width:1.5;"/>
    <path clip-path="url(#p181ad29a73)" d="M 225.923077 231.363262 
L 225.923077 197.839419 
" style="fill:none;stroke:#ff0000;stroke-width:1.5;"/>
    <path clip-path="url(#p181ad29a73)" d="M 240.230769 230.917794 
L 240.230769 203.783545 
" style="fill:none;stroke:#ff0000;stroke-width:1.5;"/>
    <path clip-path="url(#p181ad29a73)" d="M 254.538462 208.276673 
L 254.538462 183.912174 
" style="fill:none;stroke:#ff0000;stroke-width:1.5;"/>
    <path clip-path="url(#p181ad29a73)" d="M 268.846154 215.130135 
L 268.846154 196.489748 
" style="fill:none;stroke:#ff0000;stroke-width:1.5;"/>
    <path clip-path="url(#p181ad29a73)" d="M 283.153846 189.065671 
L 283.153846 166.773609 
" style="fill:none;stroke:#ff0000;stroke-width:1.5;"/>
    <path clip-path="url(#p181ad29a73)" d="M 297.461538 208.182909 
L 297.461538 186.194929 
" style="fill:none;stroke:#ff0000;stroke-width:1.5;"/>
    <path clip-path="url(#p181ad29a73)" d="M 311.769231 198.440489 
L 311.769231 175.415566 
" style="fill:none;stroke:#ff0000;stroke-width:1.5;"/>
    <path clip-path="url(#p181ad29a73)" d="M 326.076923 185.431976 
L 326.076923 164.231735 
" style="fill:none;stroke:#ff0000;stroke-width:1.5;"/>
    <path clip-path="url(#p181ad29a73)" d="M 340.384615 174.412123 
L 340.384615 155.583653 
" style="fill:none;stroke:#ff0000;stroke-width:1.5;"/>
    <path clip-path="url(#p181ad29a73)" d="M 354.692308 181.016574 
L 354.692308 163.890087 
" style="fill:none;stroke:#ff0000;stroke-width:1.5;"/>
    <path clip-path="url(#p181ad29a73)" d="M 369 184.649975 
L 369 168.975387 
" style="fill:none;stroke:#ff0000;stroke-width:1.5;"/>
    <path clip-path="url(#p181ad29a73)" d="M 383.307692 149.260322 
L 383.307692 135.980724 
" style="fill:none;stroke:#ff0000;stroke-width:1.5;"/>
    <path clip-path="url(#p181ad29a73)" d="M 397.615385 170.386751 
L 397.615385 154.547263 
" style="fill:none;stroke:#ff0000;stroke-width:1.5;"/>
    <path clip-path="url(#p181ad29a73)" d="M 411.923077 158.418743 
L 411.923077 143.43106 
" style="fill:none;stroke:#ff0000;stroke-width:1.5;"/>
    <path clip-path="url(#p181ad29a73)" d="M 426.230769 172.200869 
L 426.230769 157.5622 
" style="fill:none;stroke:#ff0000;stroke-width:1.5;"/>
    <path clip-path="url(#p181ad29a73)" d="M 440.538462 157.194362 
L 440.538462 142.898661 
" style="fill:none;stroke:#ff0000;stroke-width:1.5;"/>
    <path clip-path="url(#p181ad29a73)" d="M 454.846154 139.652239 
L 454.846154 124.702878 
" style="fill:none;stroke:#ff0000;stroke-width:1.5;"/>
    <path clip-path="url(#p181ad29a73)" d="M 469.153846 142.877097 
L 469.153846 128.547725 
" style="fill:none;stroke:#ff0000;stroke-width:1.5;"/>
    <path clip-path="url(#p181ad29a73)" d="M 483.461538 138.679372 
L 483.461538 125.568095 
" style="fill:none;stroke:#ff0000;stroke-width:1.5;"/>
    <path clip-path="url(#p181ad29a73)" d="M 497.769231 144.277424 
L 497.769231 129.705958 
" style="fill:none;stroke:#ff0000;stroke-width:1.5;"/>
    <path clip-path="url(#p181ad29a73)" d="M 512.076923 131.464009 
L 512.076923 118.357878 
" style="fill:none;stroke:#ff0000;stroke-width:1.5;"/>
    <path clip-path="url(#p181ad29a73)" d="M 526.384615 109.474303 
L 526.384615 100.167954 
" style="fill:none;stroke:#ff0000;stroke-width:1.5;"/>
    <path clip-path="url(#p181ad29a73)" d="M 540.692308 119.321541 
L 540.692308 108.43624 
" style="fill:none;stroke:#ff0000;stroke-width:1.5;"/>
    <path clip-path="url(#p181ad29a73)" d="M 555 113.035706 
L 555 103.486686 
" style="fill:none;stroke:#ff0000;stroke-width:1.5;"/>
    <path clip-path="url(#p181ad29a73)" d="M 569.307692 101.966613 
L 569.307692 95.305258 
" style="fill:none;stroke:#ff0000;stroke-width:1.5;"/>
    <path clip-path="url(#p181ad29a73)" d="M 583.615385 95.862975 
L 583.615385 91.204624 
" style="fill:none;stroke:#ff0000;stroke-width:1.5;"/>
    <path clip-path="url(#p181ad29a73)" d="M 597.923077 97.672795 
L 597.923077 93.153768 
" style="fill:none;stroke:#ff0000;stroke-width:1.5;"/>
    <path clip-path="url(#p181ad29a73)" d="M 612.230769 92.040349 
L 612.230769 89.695574 
" style="fill:none;stroke:#ff0000;stroke-width:1.5;"/>
    <path clip-path="url(#p181ad29a73)" d="M 626.538462 90.495824 
L 626.538462 89.061868 
" style="fill:none;stroke:#ff0000;stroke-width:1.5;"/>
    <path clip-path="url(#p181ad29a73)" d="M 640.846154 88.848112 
L 640.846154 88.109763 
" style="fill:none;stroke:#ff0000;stroke-width:1.5;"/>
   </g>
   <g id="LineCollection_3">
    <path clip-path="url(#p181ad29a73)" d="M 97.153846 258.286383 
L 97.153846 212.706108 
" style="fill:none;stroke:#0000ff;stroke-width:1.5;"/>
    <path clip-path="url(#p181ad29a73)" d="M 111.461538 183.411827 
L 111.461538 90.571556 
" style="fill:none;stroke:#0000ff;stroke-width:1.5;"/>
    <path clip-path="url(#p181ad29a73)" d="M 125.769231 334.0008 
L 125.769231 334.0008 
" style="fill:none;stroke:#0000ff;stroke-width:1.5;"/>
    <path clip-path="url(#p181ad29a73)" d="M 154.384615 301.801387 
L 154.384615 256.750708 
" style="fill:none;stroke:#0000ff;stroke-width:1.5;"/>
    <path clip-path="url(#p181ad29a73)" d="M 168.692308 315.672722 
L 168.692308 290.763531 
" style="fill:none;stroke:#0000ff;stroke-width:1.5;"/>
    <path clip-path="url(#p181ad29a73)" d="M 183 253.33749 
L 183 199.185397 
" style="fill:none;stroke:#0000ff;stroke-width:1.5;"/>
    <path clip-path="url(#p181ad29a73)" d="M 197.307692 203.519786 
L 197.307692 144.661832 
" style="fill:none;stroke:#0000ff;stroke-width:1.5;"/>
    <path clip-path="url(#p181ad29a73)" d="M 211.615385 257.446377 
L 211.615385 222.927501 
" style="fill:none;stroke:#0000ff;stroke-width:1.5;"/>
    <path clip-path="url(#p181ad29a73)" d="M 225.923077 270.428454 
L 225.923077 238.373866 
" style="fill:none;stroke:#0000ff;stroke-width:1.5;"/>
    <path clip-path="url(#p181ad29a73)" d="M 240.230769 248.663366 
L 240.230769 219.366582 
" style="fill:none;stroke:#0000ff;stroke-width:1.5;"/>
    <path clip-path="url(#p181ad29a73)" d="M 254.538462 213.506145 
L 254.538462 188.193487 
" style="fill:none;stroke:#0000ff;stroke-width:1.5;"/>
    <path clip-path="url(#p181ad29a73)" d="M 268.846154 228.256854 
L 268.846154 207.780335 
" style="fill:none;stroke:#0000ff;stroke-width:1.5;"/>
    <path clip-path="url(#p181ad29a73)" d="M 283.153846 220.780378 
L 283.153846 196.3765 
" style="fill:none;stroke:#0000ff;stroke-width:1.5;"/>
    <path clip-path="url(#p181ad29a73)" d="M 297.461538 242.332006 
L 297.461538 219.161094 
" style="fill:none;stroke:#0000ff;stroke-width:1.5;"/>
    <path clip-path="url(#p181ad29a73)" d="M 311.769231 238.764542 
L 311.769231 214.859796 
" style="fill:none;stroke:#0000ff;stroke-width:1.5;"/>
    <path clip-path="url(#p181ad29a73)" d="M 326.076923 215.765781 
L 326.076923 192.668001 
" style="fill:none;stroke:#0000ff;stroke-width:1.5;"/>
    <path clip-path="url(#p181ad29a73)" d="M 340.384615 206.88113 
L 340.384615 185.99945 
" style="fill:none;stroke:#0000ff;stroke-width:1.5;"/>
    <path clip-path="url(#p181ad29a73)" d="M 354.692308 214.749821 
L 354.692308 196.030566 
" style="fill:none;stroke:#0000ff;stroke-width:1.5;"/>
    <path clip-path="url(#p181ad29a73)" d="M 369 207.867042 
L 369 190.669211 
" style="fill:none;stroke:#0000ff;stroke-width:1.5;"/>
    <path clip-path="url(#p181ad29a73)" d="M 383.307692 172.666413 
L 383.307692 157.312879 
" style="fill:none;stroke:#0000ff;stroke-width:1.5;"/>
    <path clip-path="url(#p181ad29a73)" d="M 397.615385 200.788559 
L 397.615385 183.198072 
" style="fill:none;stroke:#0000ff;stroke-width:1.5;"/>
    <path clip-path="url(#p181ad29a73)" d="M 411.923077 180.796738 
L 411.923077 163.961478 
" style="fill:none;stroke:#0000ff;stroke-width:1.5;"/>
    <path clip-path="url(#p181ad29a73)" d="M 426.230769 193.754907 
L 426.230769 177.637521 
" style="fill:none;stroke:#0000ff;stroke-width:1.5;"/>
    <path clip-path="url(#p181ad29a73)" d="M 440.538462 175.443664 
L 440.538462 159.560392 
" style="fill:none;stroke:#0000ff;stroke-width:1.5;"/>
    <path clip-path="url(#p181ad29a73)" d="M 454.846154 152.677741 
L 454.846154 136.035354 
" style="fill:none;stroke:#0000ff;stroke-width:1.5;"/>
    <path clip-path="url(#p181ad29a73)" d="M 469.153846 172.863579 
L 469.153846 155.996501 
" style="fill:none;stroke:#0000ff;stroke-width:1.5;"/>
    <path clip-path="url(#p181ad29a73)" d="M 483.461538 148.842421 
L 483.461538 134.501525 
" style="fill:none;stroke:#0000ff;stroke-width:1.5;"/>
    <path clip-path="url(#p181ad29a73)" d="M 497.769231 163.158107 
L 497.769231 146.645114 
" style="fill:none;stroke:#0000ff;stroke-width:1.5;"/>
    <path clip-path="url(#p181ad29a73)" d="M 512.076923 156.198191 
L 512.076923 140.393796 
" style="fill:none;stroke:#0000ff;stroke-width:1.5;"/>
    <path clip-path="url(#p181ad29a73)" d="M 526.384615 132.042842 
L 526.384615 119.033028 
" style="fill:none;stroke:#0000ff;stroke-width:1.5;"/>
    <path clip-path="url(#p181ad29a73)" d="M 540.692308 134.595373 
L 540.692308 121.482186 
" style="fill:none;stroke:#0000ff;stroke-width:1.5;"/>
    <path clip-path="url(#p181ad29a73)" d="M 555 133.352094 
L 555 120.793565 
" style="fill:none;stroke:#0000ff;stroke-width:1.5;"/>
    <path clip-path="url(#p181ad29a73)" d="M 569.307692 123.82611 
L 569.307692 113.33811 
" style="fill:none;stroke:#0000ff;stroke-width:1.5;"/>
    <path clip-path="url(#p181ad29a73)" d="M 583.615385 112.196103 
L 583.615385 103.90902 
" style="fill:none;stroke:#0000ff;stroke-width:1.5;"/>
    <path clip-path="url(#p181ad29a73)" d="M 597.923077 115.444675 
L 597.923077 107.887 
" style="fill:none;stroke:#0000ff;stroke-width:1.5;"/>
    <path clip-path="url(#p181ad29a73)" d="M 612.230769 107.370614 
L 612.230769 102.175998 
" style="fill:none;stroke:#0000ff;stroke-width:1.5;"/>
    <path clip-path="url(#p181ad29a73)" d="M 626.538462 107.041723 
L 626.538462 103.103454 
" style="fill:none;stroke:#0000ff;stroke-width:1.5;"/>
    <path clip-path="url(#p181ad29a73)" d="M 640.846154 97.574105 
L 640.846154 95.131528 
" style="fill:none;stroke:#0000ff;stroke-width:1.5;"/>
   </g>
   <g id="line2d_10">
    <path clip-path="url(#p181ad29a73)" d="M 90 169.826543 
L 104.307692 169.826543 
L 104.307692 87.739414 
L 118.615385 87.739414 
L 118.615385 334.0008 
L 132.923077 334.0008 
M 147.230769 169.826543 
L 161.538462 169.826543 
L 161.538462 87.739414 
L 175.846154 87.739414 
L 175.846154 118.522087 
L 190.153846 118.522087 
L 190.153846 110.126813 
L 204.461538 110.126813 
L 204.461538 122.919612 
L 218.769231 122.919612 
L 218.769231 169.826543 
L 233.076923 169.826543 
L 233.076923 122.919612 
L 247.384615 122.919612 
L 247.384615 96.231186 
L 261.692308 96.231186 
L 261.692308 111.192879 
L 276 111.192879 
L 276 136.112186 
L 290.307692 136.112186 
L 290.307692 148.14315 
L 304.615385 148.14315 
L 304.615385 154.522163 
L 318.923077 154.522163 
L 318.923077 133.203054 
L 333.230769 133.203054 
L 333.230769 133.555486 
L 347.538462 133.555486 
L 347.538462 137.948046 
L 361.846154 137.948046 
L 361.846154 122.919612 
L 376.153846 122.919612 
L 376.153846 116.523212 
L 390.461538 116.523212 
L 390.461538 130.128669 
L 404.769231 130.128669 
L 404.769231 116.59817 
L 419.076923 116.59817 
L 419.076923 118.048508 
L 433.384615 118.048508 
L 433.384615 111.107283 
L 447.692308 111.107283 
L 447.692308 102.600015 
L 462 102.600015 
L 462 123.404856 
L 476.307692 123.404856 
L 476.307692 99.386912 
L 490.615385 99.386912 
L 490.615385 110.126813 
L 504.923077 110.126813 
L 504.923077 115.281806 
L 519.230769 115.281806 
L 519.230769 110.00033 
L 533.538462 110.00033 
L 533.538462 103.58079 
L 547.846154 103.58079 
L 547.846154 108.261196 
L 562.153846 108.261196 
L 562.153846 108.609023 
L 576.461538 108.609023 
L 576.461538 102.608026 
L 590.769231 102.608026 
L 590.769231 104.514713 
L 605.076923 104.514713 
L 605.076923 101.823687 
L 619.384615 101.823687 
L 619.384615 103.160871 
L 633.692308 103.160871 
L 633.692308 95.637009 
L 648 95.637009 
" style="fill:none;stroke:#008000;stroke-linecap:square;stroke-width:1.5;"/>
   </g>
   <g id="line2d_11">
    <defs>
     <path d="M 2 0 
L -2 -0 
" id="mf4a02ca91c" style="stroke:#008000;"/>
    </defs>
    <g clip-path="url(#p181ad29a73)">
     <use style="fill:#008000;stroke:#008000;" x="97.153846" xlink:href="#mf4a02ca91c" y="197.188919"/>
     <use style="fill:#008000;stroke:#008000;" x="111.461538" xlink:href="#mf4a02ca91c" y="87.739414"/>
     <use style="fill:#008000;stroke:#008000;" x="125.769231" xlink:href="#mf4a02ca91c" y="334.0008"/>
     <use style="fill:#008000;stroke:#008000;" x="154.384615" xlink:href="#mf4a02ca91c" y="217.219568"/>
     <use style="fill:#008000;stroke:#008000;" x="168.692308" xlink:href="#mf4a02ca91c" y="87.739414"/>
     <use style="fill:#008000;stroke:#008000;" x="183" xlink:href="#mf4a02ca91c" y="147.316641"/>
     <use style="fill:#008000;stroke:#008000;" x="197.307692" xlink:href="#mf4a02ca91c" y="131.47236"/>
     <use style="fill:#008000;stroke:#008000;" x="211.615385" xlink:href="#mf4a02ca91c" y="145.950458"/>
     <use style="fill:#008000;stroke:#008000;" x="225.923077" xlink:href="#mf4a02ca91c" y="193.523056"/>
     <use style="fill:#008000;stroke:#008000;" x="240.230769" xlink:href="#mf4a02ca91c" y="141.724219"/>
     <use style="fill:#008000;stroke:#008000;" x="254.538462" xlink:href="#mf4a02ca91c" y="104.575263"/>
     <use style="fill:#008000;stroke:#008000;" x="268.846154" xlink:href="#mf4a02ca91c" y="122.347227"/>
     <use style="fill:#008000;stroke:#008000;" x="283.153846" xlink:href="#mf4a02ca91c" y="149.186439"/>
     <use style="fill:#008000;stroke:#008000;" x="297.461538" xlink:href="#mf4a02ca91c" y="162.697211"/>
     <use style="fill:#008000;stroke:#008000;" x="311.769231" xlink:href="#mf4a02ca91c" y="168.775367"/>
     <use style="fill:#008000;stroke:#008000;" x="326.076923" xlink:href="#mf4a02ca91c" y="145.05405"/>
     <use style="fill:#008000;stroke:#008000;" x="340.384615" xlink:href="#mf4a02ca91c" y="143.889229"/>
     <use style="fill:#008000;stroke:#008000;" x="354.692308" xlink:href="#mf4a02ca91c" y="147.723953"/>
     <use style="fill:#008000;stroke:#008000;" x="369" xlink:href="#mf4a02ca91c" y="131.329288"/>
     <use style="fill:#008000;stroke:#008000;" x="383.307692" xlink:href="#mf4a02ca91c" y="122.898811"/>
     <use style="fill:#008000;stroke:#008000;" x="397.615385" xlink:href="#mf4a02ca91c" y="138.545079"/>
     <use style="fill:#008000;stroke:#008000;" x="411.923077" xlink:href="#mf4a02ca91c" y="123.599269"/>
     <use style="fill:#008000;stroke:#008000;" x="426.230769" xlink:href="#mf4a02ca91c" y="125.144182"/>
     <use style="fill:#008000;stroke:#008000;" x="440.538462" xlink:href="#mf4a02ca91c" y="117.273204"/>
     <use style="fill:#008000;stroke:#008000;" x="454.846154" xlink:href="#mf4a02ca91c" y="108.044685"/>
     <use style="fill:#008000;stroke:#008000;" x="469.153846" xlink:href="#mf4a02ca91c" y="130.602076"/>
     <use style="fill:#008000;stroke:#008000;" x="483.461538" xlink:href="#mf4a02ca91c" y="103.683882"/>
     <use style="fill:#008000;stroke:#008000;" x="497.769231" xlink:href="#mf4a02ca91c" y="116.288741"/>
     <use style="fill:#008000;stroke:#008000;" x="512.076923" xlink:href="#mf4a02ca91c" y="121.577191"/>
     <use style="fill:#008000;stroke:#008000;" x="526.384615" xlink:href="#mf4a02ca91c" y="115.308067"/>
     <use style="fill:#008000;stroke:#008000;" x="540.692308" xlink:href="#mf4a02ca91c" y="108.200965"/>
     <use style="fill:#008000;stroke:#008000;" x="555" xlink:href="#mf4a02ca91c" y="113.173224"/>
     <use style="fill:#008000;stroke:#008000;" x="569.307692" xlink:href="#mf4a02ca91c" y="113.073496"/>
     <use style="fill:#008000;stroke:#008000;" x="583.615385" xlink:href="#mf4a02ca91c" y="106.211216"/>
     <use style="fill:#008000;stroke:#008000;" x="597.923077" xlink:href="#mf4a02ca91c" y="107.753484"/>
     <use style="fill:#008000;stroke:#008000;" x="612.230769" xlink:href="#mf4a02ca91c" y="104.204301"/>
     <use style="fill:#008000;stroke:#008000;" x="626.538462" xlink:href="#mf4a02ca91c" y="105.027219"/>
     <use style="fill:#008000;stroke:#008000;" x="640.846154" xlink:href="#mf4a02ca91c" y="96.80837"/>
    </g>
   </g>
   <g id="line2d_12">
    <g clip-path="url(#p181ad29a73)">
     <use style="fill:#008000;stroke:#008000;" x="97.153846" xlink:href="#mf4a02ca91c" y="142.464166"/>
     <use style="fill:#008000;stroke:#008000;" x="111.461538" xlink:href="#mf4a02ca91c" y="87.739414"/>
     <use style="fill:#008000;stroke:#008000;" x="125.769231" xlink:href="#mf4a02ca91c" y="334.0008"/>
     <use style="fill:#008000;stroke:#008000;" x="154.384615" xlink:href="#mf4a02ca91c" y="122.433517"/>
     <use style="fill:#008000;stroke:#008000;" x="168.692308" xlink:href="#mf4a02ca91c" y="87.739414"/>
     <use style="fill:#008000;stroke:#008000;" x="183" xlink:href="#mf4a02ca91c" y="89.727533"/>
     <use style="fill:#008000;stroke:#008000;" x="197.307692" xlink:href="#mf4a02ca91c" y="88.781265"/>
     <use style="fill:#008000;stroke:#008000;" x="211.615385" xlink:href="#mf4a02ca91c" y="99.888766"/>
     <use style="fill:#008000;stroke:#008000;" x="225.923077" xlink:href="#mf4a02ca91c" y="146.13003"/>
     <use style="fill:#008000;stroke:#008000;" x="240.230769" xlink:href="#mf4a02ca91c" y="104.115005"/>
     <use style="fill:#008000;stroke:#008000;" x="254.538462" xlink:href="#mf4a02ca91c" y="87.887108"/>
     <use style="fill:#008000;stroke:#008000;" x="268.846154" xlink:href="#mf4a02ca91c" y="100.038532"/>
     <use style="fill:#008000;stroke:#008000;" x="283.153846" xlink:href="#mf4a02ca91c" y="123.037933"/>
     <use style="fill:#008000;stroke:#008000;" x="297.461538" xlink:href="#mf4a02ca91c" y="133.589089"/>
     <use style="fill:#008000;stroke:#008000;" x="311.769231" xlink:href="#mf4a02ca91c" y="140.268958"/>
     <use style="fill:#008000;stroke:#008000;" x="326.076923" xlink:href="#mf4a02ca91c" y="121.352059"/>
     <use style="fill:#008000;stroke:#008000;" x="340.384615" xlink:href="#mf4a02ca91c" y="123.221743"/>
     <use style="fill:#008000;stroke:#008000;" x="354.692308" xlink:href="#mf4a02ca91c" y="128.172139"/>
     <use style="fill:#008000;stroke:#008000;" x="369" xlink:href="#mf4a02ca91c" y="114.509936"/>
     <use style="fill:#008000;stroke:#008000;" x="383.307692" xlink:href="#mf4a02ca91c" y="110.147614"/>
     <use style="fill:#008000;stroke:#008000;" x="397.615385" xlink:href="#mf4a02ca91c" y="121.712258"/>
     <use style="fill:#008000;stroke:#008000;" x="411.923077" xlink:href="#mf4a02ca91c" y="109.597071"/>
     <use style="fill:#008000;stroke:#008000;" x="426.230769" xlink:href="#mf4a02ca91c" y="110.952833"/>
     <use style="fill:#008000;stroke:#008000;" x="440.538462" xlink:href="#mf4a02ca91c" y="104.941361"/>
     <use style="fill:#008000;stroke:#008000;" x="454.846154" xlink:href="#mf4a02ca91c" y="97.155344"/>
     <use style="fill:#008000;stroke:#008000;" x="469.153846" xlink:href="#mf4a02ca91c" y="116.207636"/>
     <use style="fill:#008000;stroke:#008000;" x="483.461538" xlink:href="#mf4a02ca91c" y="95.089942"/>
     <use style="fill:#008000;stroke:#008000;" x="497.769231" xlink:href="#mf4a02ca91c" y="103.964884"/>
     <use style="fill:#008000;stroke:#008000;" x="512.076923" xlink:href="#mf4a02ca91c" y="108.986421"/>
     <use style="fill:#008000;stroke:#008000;" x="526.384615" xlink:href="#mf4a02ca91c" y="104.692594"/>
     <use style="fill:#008000;stroke:#008000;" x="540.692308" xlink:href="#mf4a02ca91c" y="98.960614"/>
     <use style="fill:#008000;stroke:#008000;" x="555" xlink:href="#mf4a02ca91c" y="103.349168"/>
     <use style="fill:#008000;stroke:#008000;" x="569.307692" xlink:href="#mf4a02ca91c" y="104.14455"/>
     <use style="fill:#008000;stroke:#008000;" x="583.615385" xlink:href="#mf4a02ca91c" y="99.004836"/>
     <use style="fill:#008000;stroke:#008000;" x="597.923077" xlink:href="#mf4a02ca91c" y="101.275941"/>
     <use style="fill:#008000;stroke:#008000;" x="612.230769" xlink:href="#mf4a02ca91c" y="99.443073"/>
     <use style="fill:#008000;stroke:#008000;" x="626.538462" xlink:href="#mf4a02ca91c" y="101.294522"/>
     <use style="fill:#008000;stroke:#008000;" x="640.846154" xlink:href="#mf4a02ca91c" y="94.465649"/>
    </g>
   </g>
   <g id="line2d_13">
    <path clip-path="url(#p181ad29a73)" d="M 90 186.243968 
L 104.307692 186.243968 
L 104.307692 136.991691 
L 118.615385 136.991691 
L 118.615385 334.0008 
L 132.923077 334.0008 
L 132.923077 334.0008 
L 147.230769 334.0008 
L 147.230769 251.913671 
L 161.538462 251.913671 
L 161.538462 303.218127 
L 175.846154 303.218127 
L 175.846154 210.870107 
L 190.153846 210.870107 
L 190.153846 158.09981 
L 204.461538 158.09981 
L 204.461538 224.551295 
L 218.769231 224.551295 
L 218.769231 214.60134 
L 233.076923 214.60134 
L 233.076923 217.35067 
L 247.384615 217.35067 
L 247.384615 196.094424 
L 261.692308 196.094424 
L 261.692308 205.809941 
L 276 205.809941 
L 276 177.91964 
L 290.307692 177.91964 
L 290.307692 197.188919 
L 304.615385 197.188919 
L 304.615385 186.928028 
L 318.923077 186.928028 
L 318.923077 174.831855 
L 333.230769 174.831855 
L 333.230769 164.997888 
L 347.538462 164.997888 
L 347.538462 172.453331 
L 361.846154 172.453331 
L 361.846154 176.812681 
L 376.153846 176.812681 
L 376.153846 142.620523 
L 390.461538 142.620523 
L 390.461538 162.467007 
L 404.769231 162.467007 
L 404.769231 150.924901 
L 419.076923 150.924901 
L 419.076923 164.881535 
L 433.384615 164.881535 
L 433.384615 150.046512 
L 447.692308 150.046512 
L 447.692308 132.177559 
L 462 132.177559 
L 462 135.712411 
L 476.307692 135.712411 
L 476.307692 132.123733 
L 490.615385 132.123733 
L 490.615385 136.991691 
L 504.923077 136.991691 
L 504.923077 124.910944 
L 519.230769 124.910944 
L 519.230769 104.821129 
L 533.538462 104.821129 
L 533.538462 113.878891 
L 547.846154 113.878891 
L 547.846154 108.261196 
L 562.153846 108.261196 
L 562.153846 98.635935 
L 576.461538 98.635935 
L 576.461538 93.533799 
L 590.769231 93.533799 
L 590.769231 95.413281 
L 605.076923 95.413281 
L 605.076923 90.867961 
L 619.384615 90.867961 
L 619.384615 89.778846 
L 633.692308 89.778846 
L 633.692308 88.478938 
L 648 88.478938 
" style="fill:none;stroke:#ff0000;stroke-linecap:square;stroke-width:1.5;"/>
   </g>
   <g id="line2d_14">
    <defs>
     <path d="M 2 0 
L -2 -0 
" id="ma2455a288f" style="stroke:#ff0000;"/>
    </defs>
    <g clip-path="url(#p181ad29a73)">
     <use style="fill:#ff0000;stroke:#ff0000;" x="97.153846" xlink:href="#ma2455a288f" y="209.954338"/>
     <use style="fill:#ff0000;stroke:#ff0000;" x="111.461538" xlink:href="#ma2455a288f" y="183.411827"/>
     <use style="fill:#ff0000;stroke:#ff0000;" x="125.769231" xlink:href="#ma2455a288f" y="334.0008"/>
     <use style="fill:#ff0000;stroke:#ff0000;" x="154.384615" xlink:href="#ma2455a288f" y="275.999036"/>
     <use style="fill:#ff0000;stroke:#ff0000;" x="168.692308" xlink:href="#ma2455a288f" y="315.672722"/>
     <use style="fill:#ff0000;stroke:#ff0000;" x="183" xlink:href="#ma2455a288f" y="237.076963"/>
     <use style="fill:#ff0000;stroke:#ff0000;" x="197.307692" xlink:href="#ma2455a288f" y="185.788346"/>
     <use style="fill:#ff0000;stroke:#ff0000;" x="211.615385" xlink:href="#ma2455a288f" y="240.763928"/>
     <use style="fill:#ff0000;stroke:#ff0000;" x="225.923077" xlink:href="#ma2455a288f" y="231.363262"/>
     <use style="fill:#ff0000;stroke:#ff0000;" x="240.230769" xlink:href="#ma2455a288f" y="230.917794"/>
     <use style="fill:#ff0000;stroke:#ff0000;" x="254.538462" xlink:href="#ma2455a288f" y="208.276673"/>
     <use style="fill:#ff0000;stroke:#ff0000;" x="268.846154" xlink:href="#ma2455a288f" y="215.130135"/>
     <use style="fill:#ff0000;stroke:#ff0000;" x="283.153846" xlink:href="#ma2455a288f" y="189.065671"/>
     <use style="fill:#ff0000;stroke:#ff0000;" x="297.461538" xlink:href="#ma2455a288f" y="208.182909"/>
     <use style="fill:#ff0000;stroke:#ff0000;" x="311.769231" xlink:href="#ma2455a288f" y="198.440489"/>
     <use style="fill:#ff0000;stroke:#ff0000;" x="326.076923" xlink:href="#ma2455a288f" y="185.431976"/>
     <use style="fill:#ff0000;stroke:#ff0000;" x="340.384615" xlink:href="#ma2455a288f" y="174.412123"/>
     <use style="fill:#ff0000;stroke:#ff0000;" x="354.692308" xlink:href="#ma2455a288f" y="181.016574"/>
     <use style="fill:#ff0000;stroke:#ff0000;" x="369" xlink:href="#ma2455a288f" y="184.649975"/>
     <use style="fill:#ff0000;stroke:#ff0000;" x="383.307692" xlink:href="#ma2455a288f" y="149.260322"/>
     <use style="fill:#ff0000;stroke:#ff0000;" x="397.615385" xlink:href="#ma2455a288f" y="170.386751"/>
     <use style="fill:#ff0000;stroke:#ff0000;" x="411.923077" xlink:href="#ma2455a288f" y="158.418743"/>
     <use style="fill:#ff0000;stroke:#ff0000;" x="426.230769" xlink:href="#ma2455a288f" y="172.200869"/>
     <use style="fill:#ff0000;stroke:#ff0000;" x="440.538462" xlink:href="#ma2455a288f" y="157.194362"/>
     <use style="fill:#ff0000;stroke:#ff0000;" x="454.846154" xlink:href="#ma2455a288f" y="139.652239"/>
     <use style="fill:#ff0000;stroke:#ff0000;" x="469.153846" xlink:href="#ma2455a288f" y="142.877097"/>
     <use style="fill:#ff0000;stroke:#ff0000;" x="483.461538" xlink:href="#ma2455a288f" y="138.679372"/>
     <use style="fill:#ff0000;stroke:#ff0000;" x="497.769231" xlink:href="#ma2455a288f" y="144.277424"/>
     <use style="fill:#ff0000;stroke:#ff0000;" x="512.076923" xlink:href="#ma2455a288f" y="131.464009"/>
     <use style="fill:#ff0000;stroke:#ff0000;" x="526.384615" xlink:href="#ma2455a288f" y="109.474303"/>
     <use style="fill:#ff0000;stroke:#ff0000;" x="540.692308" xlink:href="#ma2455a288f" y="119.321541"/>
     <use style="fill:#ff0000;stroke:#ff0000;" x="555" xlink:href="#ma2455a288f" y="113.035706"/>
     <use style="fill:#ff0000;stroke:#ff0000;" x="569.307692" xlink:href="#ma2455a288f" y="101.966613"/>
     <use style="fill:#ff0000;stroke:#ff0000;" x="583.615385" xlink:href="#ma2455a288f" y="95.862975"/>
     <use style="fill:#ff0000;stroke:#ff0000;" x="597.923077" xlink:href="#ma2455a288f" y="97.672795"/>
     <use style="fill:#ff0000;stroke:#ff0000;" x="612.230769" xlink:href="#ma2455a288f" y="92.040349"/>
     <use style="fill:#ff0000;stroke:#ff0000;" x="626.538462" xlink:href="#ma2455a288f" y="90.495824"/>
     <use style="fill:#ff0000;stroke:#ff0000;" x="640.846154" xlink:href="#ma2455a288f" y="88.848112"/>
    </g>
   </g>
   <g id="line2d_15">
    <g clip-path="url(#p181ad29a73)">
     <use style="fill:#ff0000;stroke:#ff0000;" x="97.153846" xlink:href="#ma2455a288f" y="162.533599"/>
     <use style="fill:#ff0000;stroke:#ff0000;" x="111.461538" xlink:href="#ma2455a288f" y="90.571556"/>
     <use style="fill:#ff0000;stroke:#ff0000;" x="125.769231" xlink:href="#ma2455a288f" y="334.0008"/>
     <use style="fill:#ff0000;stroke:#ff0000;" x="154.384615" xlink:href="#ma2455a288f" y="227.828306"/>
     <use style="fill:#ff0000;stroke:#ff0000;" x="168.692308" xlink:href="#ma2455a288f" y="290.763531"/>
     <use style="fill:#ff0000;stroke:#ff0000;" x="183" xlink:href="#ma2455a288f" y="184.663251"/>
     <use style="fill:#ff0000;stroke:#ff0000;" x="197.307692" xlink:href="#ma2455a288f" y="130.411274"/>
     <use style="fill:#ff0000;stroke:#ff0000;" x="211.615385" xlink:href="#ma2455a288f" y="208.338662"/>
     <use style="fill:#ff0000;stroke:#ff0000;" x="225.923077" xlink:href="#ma2455a288f" y="197.839419"/>
     <use style="fill:#ff0000;stroke:#ff0000;" x="240.230769" xlink:href="#ma2455a288f" y="203.783545"/>
     <use style="fill:#ff0000;stroke:#ff0000;" x="254.538462" xlink:href="#ma2455a288f" y="183.912174"/>
     <use style="fill:#ff0000;stroke:#ff0000;" x="268.846154" xlink:href="#ma2455a288f" y="196.489748"/>
     <use style="fill:#ff0000;stroke:#ff0000;" x="283.153846" xlink:href="#ma2455a288f" y="166.773609"/>
     <use style="fill:#ff0000;stroke:#ff0000;" x="297.461538" xlink:href="#ma2455a288f" y="186.194929"/>
     <use style="fill:#ff0000;stroke:#ff0000;" x="311.769231" xlink:href="#ma2455a288f" y="175.415566"/>
     <use style="fill:#ff0000;stroke:#ff0000;" x="326.076923" xlink:href="#ma2455a288f" y="164.231735"/>
     <use style="fill:#ff0000;stroke:#ff0000;" x="340.384615" xlink:href="#ma2455a288f" y="155.583653"/>
     <use style="fill:#ff0000;stroke:#ff0000;" x="354.692308" xlink:href="#ma2455a288f" y="163.890087"/>
     <use style="fill:#ff0000;stroke:#ff0000;" x="369" xlink:href="#ma2455a288f" y="168.975387"/>
     <use style="fill:#ff0000;stroke:#ff0000;" x="383.307692" xlink:href="#ma2455a288f" y="135.980724"/>
     <use style="fill:#ff0000;stroke:#ff0000;" x="397.615385" xlink:href="#ma2455a288f" y="154.547263"/>
     <use style="fill:#ff0000;stroke:#ff0000;" x="411.923077" xlink:href="#ma2455a288f" y="143.43106"/>
     <use style="fill:#ff0000;stroke:#ff0000;" x="426.230769" xlink:href="#ma2455a288f" y="157.5622"/>
     <use style="fill:#ff0000;stroke:#ff0000;" x="440.538462" xlink:href="#ma2455a288f" y="142.898661"/>
     <use style="fill:#ff0000;stroke:#ff0000;" x="454.846154" xlink:href="#ma2455a288f" y="124.702878"/>
     <use style="fill:#ff0000;stroke:#ff0000;" x="469.153846" xlink:href="#ma2455a288f" y="128.547725"/>
     <use style="fill:#ff0000;stroke:#ff0000;" x="483.461538" xlink:href="#ma2455a288f" y="125.568095"/>
     <use style="fill:#ff0000;stroke:#ff0000;" x="497.769231" xlink:href="#ma2455a288f" y="129.705958"/>
     <use style="fill:#ff0000;stroke:#ff0000;" x="512.076923" xlink:href="#ma2455a288f" y="118.357878"/>
     <use style="fill:#ff0000;stroke:#ff0000;" x="526.384615" xlink:href="#ma2455a288f" y="100.167954"/>
     <use style="fill:#ff0000;stroke:#ff0000;" x="540.692308" xlink:href="#ma2455a288f" y="108.43624"/>
     <use style="fill:#ff0000;stroke:#ff0000;" x="555" xlink:href="#ma2455a288f" y="103.486686"/>
     <use style="fill:#ff0000;stroke:#ff0000;" x="569.307692" xlink:href="#ma2455a288f" y="95.305258"/>
     <use style="fill:#ff0000;stroke:#ff0000;" x="583.615385" xlink:href="#ma2455a288f" y="91.204624"/>
     <use style="fill:#ff0000;stroke:#ff0000;" x="597.923077" xlink:href="#ma2455a288f" y="93.153768"/>
     <use style="fill:#ff0000;stroke:#ff0000;" x="612.230769" xlink:href="#ma2455a288f" y="89.695574"/>
     <use style="fill:#ff0000;stroke:#ff0000;" x="626.538462" xlink:href="#ma2455a288f" y="89.061868"/>
     <use style="fill:#ff0000;stroke:#ff0000;" x="640.846154" xlink:href="#ma2455a288f" y="88.109763"/>
    </g>
   </g>
   <g id="line2d_16">
    <path clip-path="url(#p181ad29a73)" d="M 90 235.496246 
L 104.307692 235.496246 
L 104.307692 136.991691 
L 118.615385 136.991691 
L 118.615385 334.0008 
L 132.923077 334.0008 
M 147.230769 279.276048 
L 161.538462 279.276048 
L 161.538462 303.218127 
L 175.846154 303.218127 
L 175.846154 226.261444 
L 190.153846 226.261444 
L 190.153846 174.090809 
L 204.461538 174.090809 
L 204.461538 240.186939 
L 218.769231 240.186939 
L 218.769231 254.40116 
L 233.076923 254.40116 
L 233.076923 234.014974 
L 247.384615 234.014974 
L 247.384615 200.849816 
L 261.692308 200.849816 
L 261.692308 218.018595 
L 276 218.018595 
L 276 208.578439 
L 290.307692 208.578439 
L 290.307692 230.74655 
L 304.615385 230.74655 
L 304.615385 226.812169 
L 318.923077 226.812169 
L 318.923077 204.216891 
L 333.230769 204.216891 
L 333.230769 196.44029 
L 347.538462 196.44029 
L 347.538462 205.390193 
L 361.846154 205.390193 
L 361.846154 199.268127 
L 376.153846 199.268127 
L 376.153846 164.989646 
L 390.461538 164.989646 
L 390.461538 191.993316 
L 404.769231 191.993316 
L 404.769231 172.379108 
L 419.076923 172.379108 
L 419.076923 185.696214 
L 433.384615 185.696214 
L 433.384615 167.502028 
L 447.692308 167.502028 
L 447.692308 144.356547 
L 462 144.356547 
L 462 164.43004 
L 476.307692 164.43004 
L 476.307692 141.671973 
L 490.615385 141.671973 
L 490.615385 154.90161 
L 504.923077 154.90161 
L 504.923077 148.295994 
L 519.230769 148.295994 
L 519.230769 125.537935 
L 533.538462 125.537935 
L 533.538462 128.03878 
L 547.846154 128.03878 
L 547.846154 127.07283 
L 562.153846 127.07283 
L 562.153846 118.58211 
L 576.461538 118.58211 
L 576.461538 108.052562 
L 590.769231 108.052562 
L 590.769231 111.665837 
L 605.076923 111.665837 
L 605.076923 104.773306 
L 619.384615 104.773306 
L 619.384615 105.072588 
L 633.692308 105.072588 
L 633.692308 96.352817 
L 648 96.352817 
" style="fill:none;stroke:#0000ff;stroke-linecap:square;stroke-width:1.5;"/>
   </g>
   <g id="line2d_17">
    <defs>
     <path d="M 2 0 
L -2 -0 
" id="m7ea46acc80" style="stroke:#0000ff;"/>
    </defs>
    <g clip-path="url(#p181ad29a73)">
     <use style="fill:#0000ff;stroke:#0000ff;" x="97.153846" xlink:href="#m7ea46acc80" y="258.286383"/>
     <use style="fill:#0000ff;stroke:#0000ff;" x="111.461538" xlink:href="#m7ea46acc80" y="183.411827"/>
     <use style="fill:#0000ff;stroke:#0000ff;" x="125.769231" xlink:href="#m7ea46acc80" y="334.0008"/>
     <use style="fill:#0000ff;stroke:#0000ff;" x="154.384615" xlink:href="#m7ea46acc80" y="301.801387"/>
     <use style="fill:#0000ff;stroke:#0000ff;" x="168.692308" xlink:href="#m7ea46acc80" y="315.672722"/>
     <use style="fill:#0000ff;stroke:#0000ff;" x="183" xlink:href="#m7ea46acc80" y="253.33749"/>
     <use style="fill:#0000ff;stroke:#0000ff;" x="197.307692" xlink:href="#m7ea46acc80" y="203.519786"/>
     <use style="fill:#0000ff;stroke:#0000ff;" x="211.615385" xlink:href="#m7ea46acc80" y="257.446377"/>
     <use style="fill:#0000ff;stroke:#0000ff;" x="225.923077" xlink:href="#m7ea46acc80" y="270.428454"/>
     <use style="fill:#0000ff;stroke:#0000ff;" x="240.230769" xlink:href="#m7ea46acc80" y="248.663366"/>
     <use style="fill:#0000ff;stroke:#0000ff;" x="254.538462" xlink:href="#m7ea46acc80" y="213.506145"/>
     <use style="fill:#0000ff;stroke:#0000ff;" x="268.846154" xlink:href="#m7ea46acc80" y="228.256854"/>
     <use style="fill:#0000ff;stroke:#0000ff;" x="283.153846" xlink:href="#m7ea46acc80" y="220.780378"/>
     <use style="fill:#0000ff;stroke:#0000ff;" x="297.461538" xlink:href="#m7ea46acc80" y="242.332006"/>
     <use style="fill:#0000ff;stroke:#0000ff;" x="311.769231" xlink:href="#m7ea46acc80" y="238.764542"/>
     <use style="fill:#0000ff;stroke:#0000ff;" x="326.076923" xlink:href="#m7ea46acc80" y="215.765781"/>
     <use style="fill:#0000ff;stroke:#0000ff;" x="340.384615" xlink:href="#m7ea46acc80" y="206.88113"/>
     <use style="fill:#0000ff;stroke:#0000ff;" x="354.692308" xlink:href="#m7ea46acc80" y="214.749821"/>
     <use style="fill:#0000ff;stroke:#0000ff;" x="369" xlink:href="#m7ea46acc80" y="207.867042"/>
     <use style="fill:#0000ff;stroke:#0000ff;" x="383.307692" xlink:href="#m7ea46acc80" y="172.666413"/>
     <use style="fill:#0000ff;stroke:#0000ff;" x="397.615385" xlink:href="#m7ea46acc80" y="200.788559"/>
     <use style="fill:#0000ff;stroke:#0000ff;" x="411.923077" xlink:href="#m7ea46acc80" y="180.796738"/>
     <use style="fill:#0000ff;stroke:#0000ff;" x="426.230769" xlink:href="#m7ea46acc80" y="193.754907"/>
     <use style="fill:#0000ff;stroke:#0000ff;" x="440.538462" xlink:href="#m7ea46acc80" y="175.443664"/>
     <use style="fill:#0000ff;stroke:#0000ff;" x="454.846154" xlink:href="#m7ea46acc80" y="152.677741"/>
     <use style="fill:#0000ff;stroke:#0000ff;" x="469.153846" xlink:href="#m7ea46acc80" y="172.863579"/>
     <use style="fill:#0000ff;stroke:#0000ff;" x="483.461538" xlink:href="#m7ea46acc80" y="148.842421"/>
     <use style="fill:#0000ff;stroke:#0000ff;" x="497.769231" xlink:href="#m7ea46acc80" y="163.158107"/>
     <use style="fill:#0000ff;stroke:#0000ff;" x="512.076923" xlink:href="#m7ea46acc80" y="156.198191"/>
     <use style="fill:#0000ff;stroke:#0000ff;" x="526.384615" xlink:href="#m7ea46acc80" y="132.042842"/>
     <use style="fill:#0000ff;stroke:#0000ff;" x="540.692308" xlink:href="#m7ea46acc80" y="134.595373"/>
     <use style="fill:#0000ff;stroke:#0000ff;" x="555" xlink:href="#m7ea46acc80" y="133.352094"/>
     <use style="fill:#0000ff;stroke:#0000ff;" x="569.307692" xlink:href="#m7ea46acc80" y="123.82611"/>
     <use style="fill:#0000ff;stroke:#0000ff;" x="583.615385" xlink:href="#m7ea46acc80" y="112.196103"/>
     <use style="fill:#0000ff;stroke:#0000ff;" x="597.923077" xlink:href="#m7ea46acc80" y="115.444675"/>
     <use style="fill:#0000ff;stroke:#0000ff;" x="612.230769" xlink:href="#m7ea46acc80" y="107.370614"/>
     <use style="fill:#0000ff;stroke:#0000ff;" x="626.538462" xlink:href="#m7ea46acc80" y="107.041723"/>
     <use style="fill:#0000ff;stroke:#0000ff;" x="640.846154" xlink:href="#m7ea46acc80" y="97.574105"/>
    </g>
   </g>
   <g id="line2d_18">
    <g clip-path="url(#p181ad29a73)">
     <use style="fill:#0000ff;stroke:#0000ff;" x="97.153846" xlink:href="#m7ea46acc80" y="212.706108"/>
     <use style="fill:#0000ff;stroke:#0000ff;" x="111.461538" xlink:href="#m7ea46acc80" y="90.571556"/>
     <use style="fill:#0000ff;stroke:#0000ff;" x="125.769231" xlink:href="#m7ea46acc80" y="334.0008"/>
     <use style="fill:#0000ff;stroke:#0000ff;" x="154.384615" xlink:href="#m7ea46acc80" y="256.750708"/>
     <use style="fill:#0000ff;stroke:#0000ff;" x="168.692308" xlink:href="#m7ea46acc80" y="290.763531"/>
     <use style="fill:#0000ff;stroke:#0000ff;" x="183" xlink:href="#m7ea46acc80" y="199.185397"/>
     <use style="fill:#0000ff;stroke:#0000ff;" x="197.307692" xlink:href="#m7ea46acc80" y="144.661832"/>
     <use style="fill:#0000ff;stroke:#0000ff;" x="211.615385" xlink:href="#m7ea46acc80" y="222.927501"/>
     <use style="fill:#0000ff;stroke:#0000ff;" x="225.923077" xlink:href="#m7ea46acc80" y="238.373866"/>
     <use style="fill:#0000ff;stroke:#0000ff;" x="240.230769" xlink:href="#m7ea46acc80" y="219.366582"/>
     <use style="fill:#0000ff;stroke:#0000ff;" x="254.538462" xlink:href="#m7ea46acc80" y="188.193487"/>
     <use style="fill:#0000ff;stroke:#0000ff;" x="268.846154" xlink:href="#m7ea46acc80" y="207.780335"/>
     <use style="fill:#0000ff;stroke:#0000ff;" x="283.153846" xlink:href="#m7ea46acc80" y="196.3765"/>
     <use style="fill:#0000ff;stroke:#0000ff;" x="297.461538" xlink:href="#m7ea46acc80" y="219.161094"/>
     <use style="fill:#0000ff;stroke:#0000ff;" x="311.769231" xlink:href="#m7ea46acc80" y="214.859796"/>
     <use style="fill:#0000ff;stroke:#0000ff;" x="326.076923" xlink:href="#m7ea46acc80" y="192.668001"/>
     <use style="fill:#0000ff;stroke:#0000ff;" x="340.384615" xlink:href="#m7ea46acc80" y="185.99945"/>
     <use style="fill:#0000ff;stroke:#0000ff;" x="354.692308" xlink:href="#m7ea46acc80" y="196.030566"/>
     <use style="fill:#0000ff;stroke:#0000ff;" x="369" xlink:href="#m7ea46acc80" y="190.669211"/>
     <use style="fill:#0000ff;stroke:#0000ff;" x="383.307692" xlink:href="#m7ea46acc80" y="157.312879"/>
     <use style="fill:#0000ff;stroke:#0000ff;" x="397.615385" xlink:href="#m7ea46acc80" y="183.198072"/>
     <use style="fill:#0000ff;stroke:#0000ff;" x="411.923077" xlink:href="#m7ea46acc80" y="163.961478"/>
     <use style="fill:#0000ff;stroke:#0000ff;" x="426.230769" xlink:href="#m7ea46acc80" y="177.637521"/>
     <use style="fill:#0000ff;stroke:#0000ff;" x="440.538462" xlink:href="#m7ea46acc80" y="159.560392"/>
     <use style="fill:#0000ff;stroke:#0000ff;" x="454.846154" xlink:href="#m7ea46acc80" y="136.035354"/>
     <use style="fill:#0000ff;stroke:#0000ff;" x="469.153846" xlink:href="#m7ea46acc80" y="155.996501"/>
     <use style="fill:#0000ff;stroke:#0000ff;" x="483.461538" xlink:href="#m7ea46acc80" y="134.501525"/>
     <use style="fill:#0000ff;stroke:#0000ff;" x="497.769231" xlink:href="#m7ea46acc80" y="146.645114"/>
     <use style="fill:#0000ff;stroke:#0000ff;" x="512.076923" xlink:href="#m7ea46acc80" y="140.393796"/>
     <use style="fill:#0000ff;stroke:#0000ff;" x="526.384615" xlink:href="#m7ea46acc80" y="119.033028"/>
     <use style="fill:#0000ff;stroke:#0000ff;" x="540.692308" xlink:href="#m7ea46acc80" y="121.482186"/>
     <use style="fill:#0000ff;stroke:#0000ff;" x="555" xlink:href="#m7ea46acc80" y="120.793565"/>
     <use style="fill:#0000ff;stroke:#0000ff;" x="569.307692" xlink:href="#m7ea46acc80" y="113.33811"/>
     <use style="fill:#0000ff;stroke:#0000ff;" x="583.615385" xlink:href="#m7ea46acc80" y="103.90902"/>
     <use style="fill:#0000ff;stroke:#0000ff;" x="597.923077" xlink:href="#m7ea46acc80" y="107.887"/>
     <use style="fill:#0000ff;stroke:#0000ff;" x="612.230769" xlink:href="#m7ea46acc80" y="102.175998"/>
     <use style="fill:#0000ff;stroke:#0000ff;" x="626.538462" xlink:href="#m7ea46acc80" y="103.103454"/>
     <use style="fill:#0000ff;stroke:#0000ff;" x="640.846154" xlink:href="#m7ea46acc80" y="95.131528"/>
    </g>
   </g>
   <g id="patch_3">
    <path d="M 90 334.0008 
L 90 85.2768 
" style="fill:none;stroke:#000000;stroke-linecap:square;stroke-linejoin:miter;stroke-width:0.8;"/>
   </g>
   <g id="patch_4">
    <path d="M 648 334.0008 
L 648 85.2768 
" style="fill:none;stroke:#000000;stroke-linecap:square;stroke-linejoin:miter;stroke-width:0.8;"/>
   </g>
   <g id="patch_5">
    <path d="M 90 334.0008 
L 648 334.0008 
" style="fill:none;stroke:#000000;stroke-linecap:square;stroke-linejoin:miter;stroke-width:0.8;"/>
   </g>
   <g id="patch_6">
    <path d="M 90 85.2768 
L 648 85.2768 
" style="fill:none;stroke:#000000;stroke-linecap:square;stroke-linejoin:miter;stroke-width:0.8;"/>
   </g>
   <g id="legend_1">
    <g id="patch_7">
     <path d="M 266.025938 325.0008 
L 471.974063 325.0008 
Q 475.574063 325.0008 475.574063 321.4008 
L 475.574063 243.938925 
Q 475.574063 240.338925 471.974063 240.338925 
L 266.025938 240.338925 
Q 262.425938 240.338925 262.425938 243.938925 
L 262.425938 321.4008 
Q 262.425938 325.0008 266.025938 325.0008 
z
" style="fill:#ffffff;opacity:0.5;stroke:#cccccc;stroke-linejoin:miter;"/>
    </g>
    <g id="line2d_19">
     <path d="M 269.625938 254.916112 
L 305.625938 254.916112 
" style="fill:none;stroke:#008000;stroke-linecap:square;stroke-width:1.5;"/>
    </g>
    <g id="line2d_20"/>
    <g id="text_6">
     <!-- Efficiency -->
     <defs>
      <path d="M 9.8125 72.90625 
L 55.90625 72.90625 
L 55.90625 64.59375 
L 19.671875 64.59375 
L 19.671875 43.015625 
L 54.390625 43.015625 
L 54.390625 34.71875 
L 19.671875 34.71875 
L 19.671875 8.296875 
L 56.78125 8.296875 
L 56.78125 0 
L 9.8125 0 
z
" id="DejaVuSans-69"/>
      <path d="M 37.109375 75.984375 
L 37.109375 68.5 
L 28.515625 68.5 
Q 23.6875 68.5 21.796875 66.546875 
Q 19.921875 64.59375 19.921875 59.515625 
L 19.921875 54.6875 
L 34.71875 54.6875 
L 34.71875 47.703125 
L 19.921875 47.703125 
L 19.921875 0 
L 10.890625 0 
L 10.890625 47.703125 
L 2.296875 47.703125 
L 2.296875 54.6875 
L 10.890625 54.6875 
L 10.890625 58.5 
Q 10.890625 67.625 15.140625 71.796875 
Q 19.390625 75.984375 28.609375 75.984375 
z
" id="DejaVuSans-102"/>
      <path d="M 56.203125 29.59375 
L 56.203125 25.203125 
L 14.890625 25.203125 
Q 15.484375 15.921875 20.484375 11.0625 
Q 25.484375 6.203125 34.421875 6.203125 
Q 39.59375 6.203125 44.453125 7.46875 
Q 49.3125 8.734375 54.109375 11.28125 
L 54.109375 2.78125 
Q 49.265625 0.734375 44.1875 -0.34375 
Q 39.109375 -1.421875 33.890625 -1.421875 
Q 20.796875 -1.421875 13.15625 6.1875 
Q 5.515625 13.8125 5.515625 26.8125 
Q 5.515625 40.234375 12.765625 48.109375 
Q 20.015625 56 32.328125 56 
Q 43.359375 56 49.78125 48.890625 
Q 56.203125 41.796875 56.203125 29.59375 
z
M 47.21875 32.234375 
Q 47.125 39.59375 43.09375 43.984375 
Q 39.0625 48.390625 32.421875 48.390625 
Q 24.90625 48.390625 20.390625 44.140625 
Q 15.875 39.890625 15.1875 32.171875 
z
" id="DejaVuSans-101"/>
     </defs>
     <g transform="translate(320.025937 261.216113)scale(0.18 -0.18)">
      <use xlink:href="#DejaVuSans-69"/>
      <use x="63.183594" xlink:href="#DejaVuSans-102"/>
      <use x="98.388672" xlink:href="#DejaVuSans-102"/>
      <use x="133.59375" xlink:href="#DejaVuSans-105"/>
      <use x="161.376953" xlink:href="#DejaVuSans-99"/>
      <use x="216.357422" xlink:href="#DejaVuSans-105"/>
      <use x="244.140625" xlink:href="#DejaVuSans-101"/>
      <use x="305.664062" xlink:href="#DejaVuSans-110"/>
      <use x="369.042969" xlink:href="#DejaVuSans-99"/>
      <use x="424.023438" xlink:href="#DejaVuSans-121"/>
     </g>
    </g>
    <g id="line2d_21">
     <path d="M 269.625938 281.336737 
L 305.625938 281.336737 
" style="fill:none;stroke:#ff0000;stroke-linecap:square;stroke-width:1.5;"/>
    </g>
    <g id="line2d_22"/>
    <g id="text_7">
     <!-- Purity -->
     <defs>
      <path d="M 19.671875 64.796875 
L 19.671875 37.40625 
L 32.078125 37.40625 
Q 38.96875 37.40625 42.71875 40.96875 
Q 46.484375 44.53125 46.484375 51.125 
Q 46.484375 57.671875 42.71875 61.234375 
Q 38.96875 64.796875 32.078125 64.796875 
z
M 9.8125 72.90625 
L 32.078125 72.90625 
Q 44.34375 72.90625 50.609375 67.359375 
Q 56.890625 61.8125 56.890625 51.125 
Q 56.890625 40.328125 50.609375 34.8125 
Q 44.34375 29.296875 32.078125 29.296875 
L 19.671875 29.296875 
L 19.671875 0 
L 9.8125 0 
z
" id="DejaVuSans-80"/>
     </defs>
     <g transform="translate(320.025937 287.636737)scale(0.18 -0.18)">
      <use xlink:href="#DejaVuSans-80"/>
      <use x="60.287109" xlink:href="#DejaVuSans-117"/>
      <use x="123.666016" xlink:href="#DejaVuSans-114"/>
      <use x="164.779297" xlink:href="#DejaVuSans-105"/>
      <use x="192.5625" xlink:href="#DejaVuSans-116"/>
      <use x="231.771484" xlink:href="#DejaVuSans-121"/>
     </g>
    </g>
    <g id="line2d_23">
     <path d="M 269.625938 307.757362 
L 305.625938 307.757362 
" style="fill:none;stroke:#0000ff;stroke-linecap:square;stroke-width:1.5;"/>
    </g>
    <g id="line2d_24"/>
    <g id="text_8">
     <!-- Purity*Efficiency -->
     <defs>
      <path d="M 47.015625 60.890625 
L 29.5 51.421875 
L 47.015625 41.890625 
L 44.1875 37.109375 
L 27.78125 47.015625 
L 27.78125 28.609375 
L 22.21875 28.609375 
L 22.21875 47.015625 
L 5.8125 37.109375 
L 2.984375 41.890625 
L 20.515625 51.421875 
L 2.984375 60.890625 
L 5.8125 65.71875 
L 22.21875 55.8125 
L 22.21875 74.21875 
L 27.78125 74.21875 
L 27.78125 55.8125 
L 44.1875 65.71875 
z
" id="DejaVuSans-42"/>
     </defs>
     <g transform="translate(320.025937 314.057363)scale(0.18 -0.18)">
      <use xlink:href="#DejaVuSans-80"/>
      <use x="60.287109" xlink:href="#DejaVuSans-117"/>
      <use x="123.666016" xlink:href="#DejaVuSans-114"/>
      <use x="164.779297" xlink:href="#DejaVuSans-105"/>
      <use x="192.5625" xlink:href="#DejaVuSans-116"/>
      <use x="231.771484" xlink:href="#DejaVuSans-121"/>
      <use x="290.951172" xlink:href="#DejaVuSans-42"/>
      <use x="340.951172" xlink:href="#DejaVuSans-69"/>
      <use x="404.134766" xlink:href="#DejaVuSans-102"/>
      <use x="439.339844" xlink:href="#DejaVuSans-102"/>
      <use x="474.544922" xlink:href="#DejaVuSans-105"/>
      <use x="502.328125" xlink:href="#DejaVuSans-99"/>
      <use x="557.308594" xlink:href="#DejaVuSans-105"/>
      <use x="585.091797" xlink:href="#DejaVuSans-101"/>
      <use x="646.615234" xlink:href="#DejaVuSans-110"/>
      <use x="709.994141" xlink:href="#DejaVuSans-99"/>
      <use x="764.974609" xlink:href="#DejaVuSans-121"/>
     </g>
    </g>
   </g>
  </g>
  <g id="axes_2">
   <g id="patch_8">
    <path d="M 90 632.4696 
L 648 632.4696 
L 648 383.7456 
L 90 383.7456 
z
" style="fill:#ffffff;"/>
   </g>
   <g id="patch_9">
    <path clip-path="url(#pe18ab808ce)" d="M 90 59065.147658 
L 90 547.800838 
L 104.307692 547.800838 
L 104.307692 585.977179 
L 118.615385 585.977179 
L 118.615385 603.570571 
L 132.923077 603.570571 
L 132.923077 59065.147658 
L 147.230769 59065.147658 
L 147.230769 575.685705 
L 161.538462 575.685705 
L 161.538462 621.163964 
L 175.846154 621.163964 
L 175.846154 568.383787 
L 190.153846 568.383787 
L 190.153846 560.300827 
L 204.461538 560.300827 
L 204.461538 554.179675 
L 218.769231 554.179675 
L 218.769231 540.49892 
L 233.076923 540.49892 
L 233.076923 543.888201 
L 247.384615 543.888201 
L 247.384615 535.695599 
L 261.692308 535.695599 
L 261.692308 526.294809 
L 276 526.294809 
L 276 518.992891 
L 290.307692 518.992891 
L 290.307692 520.390413 
L 304.615385 520.390413 
L 304.615385 517.668318 
L 318.923077 517.668318 
L 318.923077 515.210085 
L 333.230769 515.210085 
L 333.230769 508.104168 
L 347.538462 508.104168 
L 347.538462 503.525738 
L 361.846154 503.525738 
L 361.846154 503.037609 
L 376.153846 503.037609 
L 376.153846 493.316538 
L 390.461538 493.316538 
L 390.461538 499.228784 
L 404.769231 499.228784 
L 404.769231 498.010219 
L 419.076923 498.010219 
L 419.076923 497.616693 
L 433.384615 497.616693 
L 433.384615 496.285502 
L 447.692308 496.285502 
L 447.692308 500.508815 
L 462 500.508815 
L 462 494.845007 
L 476.307692 494.845007 
L 476.307692 494.325223 
L 490.615385 494.325223 
L 490.615385 497.229175 
L 504.923077 497.229175 
L 504.923077 493.648333 
L 519.230769 493.648333 
L 519.230769 489.783451 
L 533.538462 489.783451 
L 533.538462 490.658775 
L 547.846154 490.658775 
L 547.846154 487.718744 
L 562.153846 487.718744 
L 562.153846 482.481533 
L 576.461538 482.481533 
L 576.461538 479.539821 
L 590.769231 479.539821 
L 590.769231 471.274662 
L 605.076923 471.274662 
L 605.076923 459.789849 
L 619.384615 459.789849 
L 619.384615 445.279665 
L 633.692308 445.279665 
L 633.692308 395.051236 
L 648 395.051236 
L 648 59065.147658 
z
" style="fill:#1f77b4;opacity:0.2;"/>
   </g>
   <g id="matplotlib.axis_3">
    <g id="xtick_7">
     <g id="line2d_25">
      <g>
       <use style="stroke:#000000;stroke-width:0.8;" x="90" xlink:href="#m5e38df597a" y="632.4696"/>
      </g>
     </g>
     <g id="text_9">
      <!-- 0.0 -->
      <g transform="translate(69.38955 659.16475)scale(0.2592 -0.2592)">
       <use xlink:href="#DejaVuSans-48"/>
       <use x="63.623047" xlink:href="#DejaVuSans-46"/>
       <use x="95.410156" xlink:href="#DejaVuSans-48"/>
      </g>
     </g>
    </g>
    <g id="xtick_8">
     <g id="line2d_26">
      <g>
       <use style="stroke:#000000;stroke-width:0.8;" x="201.6" xlink:href="#m5e38df597a" y="632.4696"/>
      </g>
     </g>
     <g id="text_10">
      <!-- 0.2 -->
      <defs>
       <path d="M 19.1875 8.296875 
L 53.609375 8.296875 
L 53.609375 0 
L 7.328125 0 
L 7.328125 8.296875 
Q 12.9375 14.109375 22.625 23.890625 
Q 32.328125 33.6875 34.8125 36.53125 
Q 39.546875 41.84375 41.421875 45.53125 
Q 43.3125 49.21875 43.3125 52.78125 
Q 43.3125 58.59375 39.234375 62.25 
Q 35.15625 65.921875 28.609375 65.921875 
Q 23.96875 65.921875 18.8125 64.3125 
Q 13.671875 62.703125 7.8125 59.421875 
L 7.8125 69.390625 
Q 13.765625 71.78125 18.9375 73 
Q 24.125 74.21875 28.421875 74.21875 
Q 39.75 74.21875 46.484375 68.546875 
Q 53.21875 62.890625 53.21875 53.421875 
Q 53.21875 48.921875 51.53125 44.890625 
Q 49.859375 40.875 45.40625 35.40625 
Q 44.1875 33.984375 37.640625 27.21875 
Q 31.109375 20.453125 19.1875 8.296875 
z
" id="DejaVuSans-50"/>
      </defs>
      <g transform="translate(180.98955 659.16475)scale(0.2592 -0.2592)">
       <use xlink:href="#DejaVuSans-48"/>
       <use x="63.623047" xlink:href="#DejaVuSans-46"/>
       <use x="95.410156" xlink:href="#DejaVuSans-50"/>
      </g>
     </g>
    </g>
    <g id="xtick_9">
     <g id="line2d_27">
      <g>
       <use style="stroke:#000000;stroke-width:0.8;" x="313.2" xlink:href="#m5e38df597a" y="632.4696"/>
      </g>
     </g>
     <g id="text_11">
      <!-- 0.4 -->
      <defs>
       <path d="M 37.796875 64.3125 
L 12.890625 25.390625 
L 37.796875 25.390625 
z
M 35.203125 72.90625 
L 47.609375 72.90625 
L 47.609375 25.390625 
L 58.015625 25.390625 
L 58.015625 17.1875 
L 47.609375 17.1875 
L 47.609375 0 
L 37.796875 0 
L 37.796875 17.1875 
L 4.890625 17.1875 
L 4.890625 26.703125 
z
" id="DejaVuSans-52"/>
      </defs>
      <g transform="translate(292.58955 659.16475)scale(0.2592 -0.2592)">
       <use xlink:href="#DejaVuSans-48"/>
       <use x="63.623047" xlink:href="#DejaVuSans-46"/>
       <use x="95.410156" xlink:href="#DejaVuSans-52"/>
      </g>
     </g>
    </g>
    <g id="xtick_10">
     <g id="line2d_28">
      <g>
       <use style="stroke:#000000;stroke-width:0.8;" x="424.8" xlink:href="#m5e38df597a" y="632.4696"/>
      </g>
     </g>
     <g id="text_12">
      <!-- 0.6 -->
      <defs>
       <path d="M 33.015625 40.375 
Q 26.375 40.375 22.484375 35.828125 
Q 18.609375 31.296875 18.609375 23.390625 
Q 18.609375 15.53125 22.484375 10.953125 
Q 26.375 6.390625 33.015625 6.390625 
Q 39.65625 6.390625 43.53125 10.953125 
Q 47.40625 15.53125 47.40625 23.390625 
Q 47.40625 31.296875 43.53125 35.828125 
Q 39.65625 40.375 33.015625 40.375 
z
M 52.59375 71.296875 
L 52.59375 62.3125 
Q 48.875 64.0625 45.09375 64.984375 
Q 41.3125 65.921875 37.59375 65.921875 
Q 27.828125 65.921875 22.671875 59.328125 
Q 17.53125 52.734375 16.796875 39.40625 
Q 19.671875 43.65625 24.015625 45.921875 
Q 28.375 48.1875 33.59375 48.1875 
Q 44.578125 48.1875 50.953125 41.515625 
Q 57.328125 34.859375 57.328125 23.390625 
Q 57.328125 12.15625 50.6875 5.359375 
Q 44.046875 -1.421875 33.015625 -1.421875 
Q 20.359375 -1.421875 13.671875 8.265625 
Q 6.984375 17.96875 6.984375 36.375 
Q 6.984375 53.65625 15.1875 63.9375 
Q 23.390625 74.21875 37.203125 74.21875 
Q 40.921875 74.21875 44.703125 73.484375 
Q 48.484375 72.75 52.59375 71.296875 
z
" id="DejaVuSans-54"/>
      </defs>
      <g transform="translate(404.18955 659.16475)scale(0.2592 -0.2592)">
       <use xlink:href="#DejaVuSans-48"/>
       <use x="63.623047" xlink:href="#DejaVuSans-46"/>
       <use x="95.410156" xlink:href="#DejaVuSans-54"/>
      </g>
     </g>
    </g>
    <g id="xtick_11">
     <g id="line2d_29">
      <g>
       <use style="stroke:#000000;stroke-width:0.8;" x="536.4" xlink:href="#m5e38df597a" y="632.4696"/>
      </g>
     </g>
     <g id="text_13">
      <!-- 0.8 -->
      <defs>
       <path d="M 31.78125 34.625 
Q 24.75 34.625 20.71875 30.859375 
Q 16.703125 27.09375 16.703125 20.515625 
Q 16.703125 13.921875 20.71875 10.15625 
Q 24.75 6.390625 31.78125 6.390625 
Q 38.8125 6.390625 42.859375 10.171875 
Q 46.921875 13.96875 46.921875 20.515625 
Q 46.921875 27.09375 42.890625 30.859375 
Q 38.875 34.625 31.78125 34.625 
z
M 21.921875 38.8125 
Q 15.578125 40.375 12.03125 44.71875 
Q 8.5 49.078125 8.5 55.328125 
Q 8.5 64.0625 14.71875 69.140625 
Q 20.953125 74.21875 31.78125 74.21875 
Q 42.671875 74.21875 48.875 69.140625 
Q 55.078125 64.0625 55.078125 55.328125 
Q 55.078125 49.078125 51.53125 44.71875 
Q 48 40.375 41.703125 38.8125 
Q 48.828125 37.15625 52.796875 32.3125 
Q 56.78125 27.484375 56.78125 20.515625 
Q 56.78125 9.90625 50.3125 4.234375 
Q 43.84375 -1.421875 31.78125 -1.421875 
Q 19.734375 -1.421875 13.25 4.234375 
Q 6.78125 9.90625 6.78125 20.515625 
Q 6.78125 27.484375 10.78125 32.3125 
Q 14.796875 37.15625 21.921875 38.8125 
z
M 18.3125 54.390625 
Q 18.3125 48.734375 21.84375 45.5625 
Q 25.390625 42.390625 31.78125 42.390625 
Q 38.140625 42.390625 41.71875 45.5625 
Q 45.3125 48.734375 45.3125 54.390625 
Q 45.3125 60.0625 41.71875 63.234375 
Q 38.140625 66.40625 31.78125 66.40625 
Q 25.390625 66.40625 21.84375 63.234375 
Q 18.3125 60.0625 18.3125 54.390625 
z
" id="DejaVuSans-56"/>
      </defs>
      <g transform="translate(515.78955 659.16475)scale(0.2592 -0.2592)">
       <use xlink:href="#DejaVuSans-48"/>
       <use x="63.623047" xlink:href="#DejaVuSans-46"/>
       <use x="95.410156" xlink:href="#DejaVuSans-56"/>
      </g>
     </g>
    </g>
    <g id="xtick_12">
     <g id="line2d_30">
      <g>
       <use style="stroke:#000000;stroke-width:0.8;" x="648" xlink:href="#m5e38df597a" y="632.4696"/>
      </g>
     </g>
     <g id="text_14">
      <!-- 1.0 -->
      <g transform="translate(627.38955 659.16475)scale(0.2592 -0.2592)">
       <use xlink:href="#DejaVuSans-49"/>
       <use x="63.623047" xlink:href="#DejaVuSans-46"/>
       <use x="95.410156" xlink:href="#DejaVuSans-48"/>
      </g>
     </g>
    </g>
    <g id="text_15">
     <!-- purityW -->
     <g transform="translate(318.065175 688.25045)scale(0.2592 -0.2592)">
      <use xlink:href="#DejaVuSans-112"/>
      <use x="63.476562" xlink:href="#DejaVuSans-117"/>
      <use x="126.855469" xlink:href="#DejaVuSans-114"/>
      <use x="167.96875" xlink:href="#DejaVuSans-105"/>
      <use x="195.751953" xlink:href="#DejaVuSans-116"/>
      <use x="234.960938" xlink:href="#DejaVuSans-121"/>
      <use x="294.140625" xlink:href="#DejaVuSans-87"/>
     </g>
    </g>
   </g>
   <g id="matplotlib.axis_4">
    <g id="ytick_4">
     <g id="line2d_31">
      <g>
       <use style="stroke:#000000;stroke-width:0.8;" x="90" xlink:href="#mbde4532d15" y="562.71998"/>
      </g>
     </g>
     <g id="text_16">
      <!-- $\mathdefault{10^{1}}$ -->
      <g transform="translate(37.3808 572.567555)scale(0.2592 -0.2592)">
       <use transform="translate(0 0.684375)" xlink:href="#DejaVuSans-49"/>
       <use transform="translate(63.623047 0.684375)" xlink:href="#DejaVuSans-48"/>
       <use transform="translate(128.203125 38.965625)scale(0.7)" xlink:href="#DejaVuSans-49"/>
      </g>
     </g>
    </g>
    <g id="ytick_5">
     <g id="line2d_32">
      <g>
       <use style="stroke:#000000;stroke-width:0.8;" x="90" xlink:href="#mbde4532d15" y="445.832013"/>
      </g>
     </g>
     <g id="text_17">
      <!-- $\mathdefault{10^{3}}$ -->
      <defs>
       <path d="M 40.578125 39.3125 
Q 47.65625 37.796875 51.625 33 
Q 55.609375 28.21875 55.609375 21.1875 
Q 55.609375 10.40625 48.1875 4.484375 
Q 40.765625 -1.421875 27.09375 -1.421875 
Q 22.515625 -1.421875 17.65625 -0.515625 
Q 12.796875 0.390625 7.625 2.203125 
L 7.625 11.71875 
Q 11.71875 9.328125 16.59375 8.109375 
Q 21.484375 6.890625 26.8125 6.890625 
Q 36.078125 6.890625 40.9375 10.546875 
Q 45.796875 14.203125 45.796875 21.1875 
Q 45.796875 27.640625 41.28125 31.265625 
Q 36.765625 34.90625 28.71875 34.90625 
L 20.21875 34.90625 
L 20.21875 43.015625 
L 29.109375 43.015625 
Q 36.375 43.015625 40.234375 45.921875 
Q 44.09375 48.828125 44.09375 54.296875 
Q 44.09375 59.90625 40.109375 62.90625 
Q 36.140625 65.921875 28.71875 65.921875 
Q 24.65625 65.921875 20.015625 65.03125 
Q 15.375 64.15625 9.8125 62.3125 
L 9.8125 71.09375 
Q 15.4375 72.65625 20.34375 73.4375 
Q 25.25 74.21875 29.59375 74.21875 
Q 40.828125 74.21875 47.359375 69.109375 
Q 53.90625 64.015625 53.90625 55.328125 
Q 53.90625 49.265625 50.4375 45.09375 
Q 46.96875 40.921875 40.578125 39.3125 
z
" id="DejaVuSans-51"/>
      </defs>
      <g transform="translate(37.3808 455.679588)scale(0.2592 -0.2592)">
       <use transform="translate(0 0.765625)" xlink:href="#DejaVuSans-49"/>
       <use transform="translate(63.623047 0.765625)" xlink:href="#DejaVuSans-48"/>
       <use transform="translate(128.203125 39.046875)scale(0.7)" xlink:href="#DejaVuSans-51"/>
      </g>
     </g>
    </g>
    <g id="text_18">
     <!-- Count -->
     <defs>
      <path d="M 64.40625 67.28125 
L 64.40625 56.890625 
Q 59.421875 61.53125 53.78125 63.8125 
Q 48.140625 66.109375 41.796875 66.109375 
Q 29.296875 66.109375 22.65625 58.46875 
Q 16.015625 50.828125 16.015625 36.375 
Q 16.015625 21.96875 22.65625 14.328125 
Q 29.296875 6.6875 41.796875 6.6875 
Q 48.140625 6.6875 53.78125 8.984375 
Q 59.421875 11.28125 64.40625 15.921875 
L 64.40625 5.609375 
Q 59.234375 2.09375 53.4375 0.328125 
Q 47.65625 -1.421875 41.21875 -1.421875 
Q 24.65625 -1.421875 15.125 8.703125 
Q 5.609375 18.84375 5.609375 36.375 
Q 5.609375 53.953125 15.125 64.078125 
Q 24.65625 74.21875 41.21875 74.21875 
Q 47.75 74.21875 53.53125 72.484375 
Q 59.328125 70.75 64.40625 67.28125 
z
" id="DejaVuSans-67"/>
     </defs>
     <g transform="translate(27.99025 546.59475)rotate(-90)scale(0.2592 -0.2592)">
      <use xlink:href="#DejaVuSans-67"/>
      <use x="69.824219" xlink:href="#DejaVuSans-111"/>
      <use x="131.005859" xlink:href="#DejaVuSans-117"/>
      <use x="194.384766" xlink:href="#DejaVuSans-110"/>
      <use x="257.763672" xlink:href="#DejaVuSans-116"/>
     </g>
    </g>
   </g>
   <g id="line2d_33">
    <path clip-path="url(#pe18ab808ce)" d="M 90 547.800838 
L 104.307692 547.800838 
L 104.307692 585.977179 
L 118.615385 585.977179 
L 118.615385 603.570571 
L 132.923077 603.570571 
L 132.923077 711.64 
M 147.230769 711.64 
L 147.230769 575.685705 
L 161.538462 575.685705 
L 161.538462 621.163964 
L 175.846154 621.163964 
L 175.846154 568.383787 
L 190.153846 568.383787 
L 190.153846 560.300827 
L 204.461538 560.300827 
L 204.461538 554.179675 
L 218.769231 554.179675 
L 218.769231 540.49892 
L 233.076923 540.49892 
L 233.076923 543.888201 
L 247.384615 543.888201 
L 247.384615 535.695599 
L 261.692308 535.695599 
L 261.692308 526.294809 
L 276 526.294809 
L 276 518.992891 
L 290.307692 518.992891 
L 290.307692 520.390413 
L 304.615385 520.390413 
L 304.615385 517.668318 
L 318.923077 517.668318 
L 318.923077 515.210085 
L 333.230769 515.210085 
L 333.230769 508.104168 
L 347.538462 508.104168 
L 347.538462 503.525738 
L 361.846154 503.525738 
L 361.846154 503.037609 
L 376.153846 503.037609 
L 376.153846 493.316538 
L 390.461538 493.316538 
L 390.461538 499.228784 
L 404.769231 499.228784 
L 404.769231 498.010219 
L 419.076923 498.010219 
L 419.076923 497.616693 
L 433.384615 497.616693 
L 433.384615 496.285502 
L 447.692308 496.285502 
L 447.692308 500.508815 
L 462 500.508815 
L 462 494.845007 
L 476.307692 494.845007 
L 476.307692 494.325223 
L 490.615385 494.325223 
L 490.615385 497.229175 
L 504.923077 497.229175 
L 504.923077 493.648333 
L 519.230769 493.648333 
L 519.230769 489.783451 
L 533.538462 489.783451 
L 533.538462 490.658775 
L 547.846154 490.658775 
L 547.846154 487.718744 
L 562.153846 487.718744 
L 562.153846 482.481533 
L 576.461538 482.481533 
L 576.461538 479.539821 
L 590.769231 479.539821 
L 590.769231 471.274662 
L 605.076923 471.274662 
L 605.076923 459.789849 
L 619.384615 459.789849 
L 619.384615 445.279665 
L 633.692308 445.279665 
L 633.692308 395.051236 
L 648 395.051236 
" style="fill:none;stroke:#1f77b4;stroke-linecap:square;stroke-width:1.5;"/>
   </g>
   <g id="line2d_34">
    <path clip-path="url(#pe18ab808ce)" d="M 90 558.092312 
L 104.307692 558.092312 
L 104.307692 585.977179 
L 118.615385 585.977179 
L 118.615385 711.64 
M 147.230769 711.64 
L 147.230769 585.977179 
L 161.538462 585.977179 
L 161.538462 621.163964 
L 175.846154 621.163964 
L 175.846154 571.773068 
L 190.153846 571.773068 
L 190.153846 562.71998 
L 204.461538 562.71998 
L 204.461538 558.092312 
L 218.769231 558.092312 
L 218.769231 550.790395 
L 233.076923 550.790395 
L 233.076923 547.800838 
L 247.384615 547.800838 
L 247.384615 536.586283 
L 261.692308 536.586283 
L 261.692308 528.835117 
L 276 528.835117 
L 276 524.543638 
L 290.307692 524.543638 
L 290.307692 527.533196 
L 304.615385 527.533196 
L 304.615385 525.69756 
L 318.923077 525.69756 
L 318.923077 520.390413 
L 333.230769 520.390413 
L 333.230769 513.329084 
L 347.538462 513.329084 
L 347.538462 509.313058 
L 361.846154 509.313058 
L 361.846154 506.950246 
L 376.153846 506.950246 
L 376.153846 496.47145 
L 390.461538 496.47145 
L 390.461538 504.023438 
L 404.769231 504.023438 
L 404.769231 501.173881 
L 419.076923 501.173881 
L 419.076923 500.95025 
L 433.384615 500.95025 
L 433.384615 498.816061 
L 447.692308 498.816061 
L 447.692308 502.088643 
L 462 502.088643 
L 462 498.816061 
L 476.307692 498.816061 
L 476.307692 495.555037 
L 490.615385 495.555037 
L 490.615385 499.648329 
L 504.923077 499.648329 
L 504.923077 496.658772 
L 519.230769 496.658772 
L 519.230769 492.188268 
L 533.538462 492.188268 
L 533.538462 492.346411 
L 547.846154 492.346411 
L 547.846154 489.927258 
L 562.153846 489.927258 
L 562.153846 484.729187 
L 576.461538 484.729187 
L 576.461538 481.120528 
L 590.769231 481.120528 
L 590.769231 473.065383 
L 605.076923 473.065383 
L 605.076923 461.284666 
L 619.384615 461.284666 
L 619.384615 446.921086 
L 633.692308 446.921086 
L 633.692308 396.415747 
L 648 396.415747 
" style="fill:none;stroke:#ff7f0e;stroke-linecap:square;stroke-width:1.5;"/>
   </g>
   <g id="line2d_35">
    <path clip-path="url(#pe18ab808ce)" d="M 90 568.383787 
L 104.307692 568.383787 
L 104.307692 621.163964 
L 118.615385 621.163964 
L 118.615385 580.313372 
L 132.923077 580.313372 
L 132.923077 575.685705 
L 147.230769 575.685705 
L 147.230769 568.383787 
L 161.538462 568.383787 
L 161.538462 571.773068 
L 175.846154 571.773068 
L 175.846154 571.773068 
L 190.153846 571.773068 
L 190.153846 585.977179 
L 204.461538 585.977179 
L 204.461538 552.428505 
L 218.769231 552.428505 
L 218.769231 549.251627 
L 233.076923 549.251627 
L 233.076923 545.126588 
L 247.384615 545.126588 
L 247.384615 542.707434 
L 261.692308 542.707434 
L 261.692308 530.922476 
L 276 530.922476 
L 276 538.467284 
L 290.307692 538.467284 
L 290.307692 533.197003 
L 304.615385 533.197003 
L 304.615385 535.695599 
L 318.923077 535.695599 
L 318.923077 535.695599 
L 333.230769 535.695599 
L 333.230769 533.197003 
L 347.538462 533.197003 
L 347.538462 525.69756 
L 361.846154 525.69756 
L 361.846154 521.36676 
L 376.153846 521.36676 
L 376.153846 528.17581 
L 390.461538 528.17581 
L 390.461538 525.114042 
L 404.769231 525.114042 
L 404.769231 528.17581 
L 419.076923 528.17581 
L 419.076923 520.873892 
L 433.384615 520.873892 
L 433.384615 526.294809 
L 447.692308 526.294809 
L 447.692308 540.49892 
L 462 540.49892 
L 462 534.835113 
L 476.307692 534.835113 
L 476.307692 534.002845 
L 490.615385 534.002845 
L 490.615385 534.835113 
L 504.923077 534.835113 
L 504.923077 540.49892 
L 519.230769 540.49892 
L 519.230769 558.092312 
L 533.538462 558.092312 
L 533.538462 546.428509 
L 547.846154 546.428509 
L 547.846154 550.790395 
L 562.153846 550.790395 
L 562.153846 562.71998 
L 576.461538 562.71998 
L 576.461538 575.685705 
L 590.769231 575.685705 
L 590.769231 560.300827 
L 605.076923 560.300827 
L 605.076923 571.773068 
L 619.384615 571.773068 
L 619.384615 568.383787 
L 633.692308 568.383787 
L 633.692308 554.179675 
L 648 554.179675 
" style="fill:none;stroke:#2ca02c;stroke-linecap:square;stroke-width:1.5;"/>
   </g>
   <g id="patch_10">
    <path d="M 90 632.4696 
L 90 383.7456 
" style="fill:none;stroke:#000000;stroke-linecap:square;stroke-linejoin:miter;stroke-width:0.8;"/>
   </g>
   <g id="patch_11">
    <path d="M 648 632.4696 
L 648 383.7456 
" style="fill:none;stroke:#000000;stroke-linecap:square;stroke-linejoin:miter;stroke-width:0.8;"/>
   </g>
   <g id="patch_12">
    <path d="M 90 632.4696 
L 648 632.4696 
" style="fill:none;stroke:#000000;stroke-linecap:square;stroke-linejoin:miter;stroke-width:0.8;"/>
   </g>
   <g id="patch_13">
    <path d="M 90 383.7456 
L 648 383.7456 
" style="fill:none;stroke:#000000;stroke-linecap:square;stroke-linejoin:miter;stroke-width:0.8;"/>
   </g>
   <g id="legend_2">
    <g id="patch_14">
     <path d="M 437.633438 477.407475 
L 635.4 477.407475 
Q 639 477.407475 639 473.807475 
L 639 396.3456 
Q 639 392.7456 635.4 392.7456 
L 437.633438 392.7456 
Q 434.033437 392.7456 434.033437 396.3456 
L 434.033437 473.807475 
Q 434.033437 477.407475 437.633438 477.407475 
z
" style="fill:#ffffff;opacity:0.5;stroke:#cccccc;stroke-linejoin:miter;"/>
    </g>
    <g id="line2d_36">
     <path d="M 441.233437 407.322787 
L 477.233437 407.322787 
" style="fill:none;stroke:#1f77b4;stroke-linecap:square;stroke-width:1.5;"/>
    </g>
    <g id="line2d_37"/>
    <g id="text_19">
     <!--  shower -->
     <defs>
      <path id="DejaVuSans-32"/>
      <path d="M 44.28125 53.078125 
L 44.28125 44.578125 
Q 40.484375 46.53125 36.375 47.5 
Q 32.28125 48.484375 27.875 48.484375 
Q 21.1875 48.484375 17.84375 46.4375 
Q 14.5 44.390625 14.5 40.28125 
Q 14.5 37.15625 16.890625 35.375 
Q 19.28125 33.59375 26.515625 31.984375 
L 29.59375 31.296875 
Q 39.15625 29.25 43.1875 25.515625 
Q 47.21875 21.78125 47.21875 15.09375 
Q 47.21875 7.46875 41.1875 3.015625 
Q 35.15625 -1.421875 24.609375 -1.421875 
Q 20.21875 -1.421875 15.453125 -0.5625 
Q 10.6875 0.296875 5.421875 2 
L 5.421875 11.28125 
Q 10.40625 8.6875 15.234375 7.390625 
Q 20.0625 6.109375 24.8125 6.109375 
Q 31.15625 6.109375 34.5625 8.28125 
Q 37.984375 10.453125 37.984375 14.40625 
Q 37.984375 18.0625 35.515625 20.015625 
Q 33.0625 21.96875 24.703125 23.78125 
L 21.578125 24.515625 
Q 13.234375 26.265625 9.515625 29.90625 
Q 5.8125 33.546875 5.8125 39.890625 
Q 5.8125 47.609375 11.28125 51.796875 
Q 16.75 56 26.8125 56 
Q 31.78125 56 36.171875 55.265625 
Q 40.578125 54.546875 44.28125 53.078125 
z
" id="DejaVuSans-115"/>
      <path d="M 54.890625 33.015625 
L 54.890625 0 
L 45.90625 0 
L 45.90625 32.71875 
Q 45.90625 40.484375 42.875 44.328125 
Q 39.84375 48.1875 33.796875 48.1875 
Q 26.515625 48.1875 22.3125 43.546875 
Q 18.109375 38.921875 18.109375 30.90625 
L 18.109375 0 
L 9.078125 0 
L 9.078125 75.984375 
L 18.109375 75.984375 
L 18.109375 46.1875 
Q 21.34375 51.125 25.703125 53.5625 
Q 30.078125 56 35.796875 56 
Q 45.21875 56 50.046875 50.171875 
Q 54.890625 44.34375 54.890625 33.015625 
z
" id="DejaVuSans-104"/>
      <path d="M 4.203125 54.6875 
L 13.1875 54.6875 
L 24.421875 12.015625 
L 35.59375 54.6875 
L 46.1875 54.6875 
L 57.421875 12.015625 
L 68.609375 54.6875 
L 77.59375 54.6875 
L 63.28125 0 
L 52.6875 0 
L 40.921875 44.828125 
L 29.109375 0 
L 18.5 0 
z
" id="DejaVuSans-119"/>
     </defs>
     <g transform="translate(491.633437 413.622787)scale(0.18 -0.18)">
      <use xlink:href="#DejaVuSans-32"/>
      <use x="31.787109" xlink:href="#DejaVuSans-115"/>
      <use x="83.886719" xlink:href="#DejaVuSans-104"/>
      <use x="147.265625" xlink:href="#DejaVuSans-111"/>
      <use x="208.447266" xlink:href="#DejaVuSans-119"/>
      <use x="290.234375" xlink:href="#DejaVuSans-101"/>
      <use x="351.757812" xlink:href="#DejaVuSans-114"/>
     </g>
    </g>
    <g id="line2d_38">
     <path d="M 441.233437 433.743412 
L 477.233437 433.743412 
" style="fill:none;stroke:#ff7f0e;stroke-linecap:square;stroke-width:1.5;"/>
    </g>
    <g id="line2d_39"/>
    <g id="text_20">
     <!-- correct  shower -->
     <g transform="translate(491.633437 440.043412)scale(0.18 -0.18)">
      <use xlink:href="#DejaVuSans-99"/>
      <use x="54.980469" xlink:href="#DejaVuSans-111"/>
      <use x="116.162109" xlink:href="#DejaVuSans-114"/>
      <use x="157.259766" xlink:href="#DejaVuSans-114"/>
      <use x="198.341797" xlink:href="#DejaVuSans-101"/>
      <use x="259.865234" xlink:href="#DejaVuSans-99"/>
      <use x="314.845703" xlink:href="#DejaVuSans-116"/>
      <use x="354.054688" xlink:href="#DejaVuSans-32"/>
      <use x="385.841797" xlink:href="#DejaVuSans-32"/>
      <use x="417.628906" xlink:href="#DejaVuSans-115"/>
      <use x="469.728516" xlink:href="#DejaVuSans-104"/>
      <use x="533.107422" xlink:href="#DejaVuSans-111"/>
      <use x="594.289062" xlink:href="#DejaVuSans-119"/>
      <use x="676.076172" xlink:href="#DejaVuSans-101"/>
      <use x="737.599609" xlink:href="#DejaVuSans-114"/>
     </g>
    </g>
    <g id="line2d_40">
     <path d="M 441.233437 460.164037 
L 477.233437 460.164037 
" style="fill:none;stroke:#2ca02c;stroke-linecap:square;stroke-width:1.5;"/>
    </g>
    <g id="line2d_41"/>
    <g id="text_21">
     <!-- incorrect  track -->
     <defs>
      <path d="M 9.078125 75.984375 
L 18.109375 75.984375 
L 18.109375 31.109375 
L 44.921875 54.6875 
L 56.390625 54.6875 
L 27.390625 29.109375 
L 57.625 0 
L 45.90625 0 
L 18.109375 26.703125 
L 18.109375 0 
L 9.078125 0 
z
" id="DejaVuSans-107"/>
     </defs>
     <g transform="translate(491.633437 466.464037)scale(0.18 -0.18)">
      <use xlink:href="#DejaVuSans-105"/>
      <use x="27.783203" xlink:href="#DejaVuSans-110"/>
      <use x="91.162109" xlink:href="#DejaVuSans-99"/>
      <use x="146.142578" xlink:href="#DejaVuSans-111"/>
      <use x="207.324219" xlink:href="#DejaVuSans-114"/>
      <use x="248.421875" xlink:href="#DejaVuSans-114"/>
      <use x="289.503906" xlink:href="#DejaVuSans-101"/>
      <use x="351.027344" xlink:href="#DejaVuSans-99"/>
      <use x="406.007812" xlink:href="#DejaVuSans-116"/>
      <use x="445.216797" xlink:href="#DejaVuSans-32"/>
      <use x="477.003906" xlink:href="#DejaVuSans-32"/>
      <use x="508.791016" xlink:href="#DejaVuSans-116"/>
      <use x="548" xlink:href="#DejaVuSans-114"/>
      <use x="589.113281" xlink:href="#DejaVuSans-97"/>
      <use x="650.392578" xlink:href="#DejaVuSans-99"/>
      <use x="705.373047" xlink:href="#DejaVuSans-107"/>
     </g>
    </g>
   </g>
  </g>
 </g>
 <defs>
  <clipPath id="p181ad29a73">
   <rect height="248.724" width="558" x="90" y="85.2768"/>
  </clipPath>
  <clipPath id="pe18ab808ce">
   <rect height="248.724" width="558" x="90" y="383.7456"/>
  </clipPath>
 </defs>
</svg>
