<?xml version="1.0" encoding="utf-8" standalone="no"?>
<!DOCTYPE svg PUBLIC "-//W3C//DTD SVG 1.1//EN"
  "http://www.w3.org/Graphics/SVG/1.1/DTD/svg11.dtd">
<!-- Created with matplotlib (https://matplotlib.org/) -->
<svg height="710.64pt" version="1.1" viewBox="0 0 720 710.64" width="720pt" xmlns="http://www.w3.org/2000/svg" xmlns:xlink="http://www.w3.org/1999/xlink">
 <defs>
  <style type="text/css">
*{stroke-linecap:butt;stroke-linejoin:round;}
  </style>
 </defs>
 <g id="figure_1">
  <g id="patch_1">
   <path d="M 0 710.64 
L 720 710.64 
L 720 0 
L 0 0 
z
" style="fill:#ffffff;"/>
  </g>
  <g id="axes_1">
   <g id="patch_2">
    <path d="M 90 334.0008 
L 648 334.0008 
L 648 85.2768 
L 90 85.2768 
z
" style="fill:#ffffff;"/>
   </g>
   <g id="matplotlib.axis_1">
    <g id="xtick_1">
     <g id="line2d_1">
      <defs>
       <path d="M 0 0 
L 0 3.5 
" id="m20c2e23f86" style="stroke:#000000;stroke-width:0.8;"/>
      </defs>
      <g>
       <use style="stroke:#000000;stroke-width:0.8;" x="90" xlink:href="#m20c2e23f86" y="334.0008"/>
      </g>
     </g>
    </g>
    <g id="xtick_2">
     <g id="line2d_2">
      <g>
       <use style="stroke:#000000;stroke-width:0.8;" x="229.5" xlink:href="#m20c2e23f86" y="334.0008"/>
      </g>
     </g>
    </g>
    <g id="xtick_3">
     <g id="line2d_3">
      <g>
       <use style="stroke:#000000;stroke-width:0.8;" x="369" xlink:href="#m20c2e23f86" y="334.0008"/>
      </g>
     </g>
    </g>
    <g id="xtick_4">
     <g id="line2d_4">
      <g>
       <use style="stroke:#000000;stroke-width:0.8;" x="508.5" xlink:href="#m20c2e23f86" y="334.0008"/>
      </g>
     </g>
    </g>
    <g id="xtick_5">
     <g id="line2d_5">
      <g>
       <use style="stroke:#000000;stroke-width:0.8;" x="648" xlink:href="#m20c2e23f86" y="334.0008"/>
      </g>
     </g>
    </g>
    <g id="text_1">
     <!-- nHitsW -->
     <defs>
      <path d="M 54.890625 33.015625 
L 54.890625 0 
L 45.90625 0 
L 45.90625 32.71875 
Q 45.90625 40.484375 42.875 44.328125 
Q 39.84375 48.1875 33.796875 48.1875 
Q 26.515625 48.1875 22.3125 43.546875 
Q 18.109375 38.921875 18.109375 30.90625 
L 18.109375 0 
L 9.078125 0 
L 9.078125 54.6875 
L 18.109375 54.6875 
L 18.109375 46.1875 
Q 21.34375 51.125 25.703125 53.5625 
Q 30.078125 56 35.796875 56 
Q 45.21875 56 50.046875 50.171875 
Q 54.890625 44.34375 54.890625 33.015625 
z
" id="DejaVuSans-110"/>
      <path d="M 9.8125 72.90625 
L 19.671875 72.90625 
L 19.671875 43.015625 
L 55.515625 43.015625 
L 55.515625 72.90625 
L 65.375 72.90625 
L 65.375 0 
L 55.515625 0 
L 55.515625 34.71875 
L 19.671875 34.71875 
L 19.671875 0 
L 9.8125 0 
z
" id="DejaVuSans-72"/>
      <path d="M 9.421875 54.6875 
L 18.40625 54.6875 
L 18.40625 0 
L 9.421875 0 
z
M 9.421875 75.984375 
L 18.40625 75.984375 
L 18.40625 64.59375 
L 9.421875 64.59375 
z
" id="DejaVuSans-105"/>
      <path d="M 18.3125 70.21875 
L 18.3125 54.6875 
L 36.8125 54.6875 
L 36.8125 47.703125 
L 18.3125 47.703125 
L 18.3125 18.015625 
Q 18.3125 11.328125 20.140625 9.421875 
Q 21.96875 7.515625 27.59375 7.515625 
L 36.8125 7.515625 
L 36.8125 0 
L 27.59375 0 
Q 17.1875 0 13.234375 3.875 
Q 9.28125 7.765625 9.28125 18.015625 
L 9.28125 47.703125 
L 2.6875 47.703125 
L 2.6875 54.6875 
L 9.28125 54.6875 
L 9.28125 70.21875 
z
" id="DejaVuSans-116"/>
      <path d="M 44.28125 53.078125 
L 44.28125 44.578125 
Q 40.484375 46.53125 36.375 47.5 
Q 32.28125 48.484375 27.875 48.484375 
Q 21.1875 48.484375 17.84375 46.4375 
Q 14.5 44.390625 14.5 40.28125 
Q 14.5 37.15625 16.890625 35.375 
Q 19.28125 33.59375 26.515625 31.984375 
L 29.59375 31.296875 
Q 39.15625 29.25 43.1875 25.515625 
Q 47.21875 21.78125 47.21875 15.09375 
Q 47.21875 7.46875 41.1875 3.015625 
Q 35.15625 -1.421875 24.609375 -1.421875 
Q 20.21875 -1.421875 15.453125 -0.5625 
Q 10.6875 0.296875 5.421875 2 
L 5.421875 11.28125 
Q 10.40625 8.6875 15.234375 7.390625 
Q 20.0625 6.109375 24.8125 6.109375 
Q 31.15625 6.109375 34.5625 8.28125 
Q 37.984375 10.453125 37.984375 14.40625 
Q 37.984375 18.0625 35.515625 20.015625 
Q 33.0625 21.96875 24.703125 23.78125 
L 21.578125 24.515625 
Q 13.234375 26.265625 9.515625 29.90625 
Q 5.8125 33.546875 5.8125 39.890625 
Q 5.8125 47.609375 11.28125 51.796875 
Q 16.75 56 26.8125 56 
Q 31.78125 56 36.171875 55.265625 
Q 40.578125 54.546875 44.28125 53.078125 
z
" id="DejaVuSans-115"/>
      <path d="M 3.328125 72.90625 
L 13.28125 72.90625 
L 28.609375 11.28125 
L 43.890625 72.90625 
L 54.984375 72.90625 
L 70.3125 11.28125 
L 85.59375 72.90625 
L 95.609375 72.90625 
L 77.296875 0 
L 64.890625 0 
L 49.515625 63.28125 
L 33.984375 0 
L 21.578125 0 
z
" id="DejaVuSans-87"/>
     </defs>
     <g transform="translate(322.79355 357.69595)scale(0.2592 -0.2592)">
      <use xlink:href="#DejaVuSans-110"/>
      <use x="63.378906" xlink:href="#DejaVuSans-72"/>
      <use x="138.574219" xlink:href="#DejaVuSans-105"/>
      <use x="166.357422" xlink:href="#DejaVuSans-116"/>
      <use x="205.566406" xlink:href="#DejaVuSans-115"/>
      <use x="257.666016" xlink:href="#DejaVuSans-87"/>
     </g>
    </g>
   </g>
   <g id="matplotlib.axis_2">
    <g id="ytick_1">
     <g id="line2d_6">
      <defs>
       <path d="M 0 0 
L -3.5 0 
" id="m3b3a5234ee" style="stroke:#000000;stroke-width:0.8;"/>
      </defs>
      <g>
       <use style="stroke:#000000;stroke-width:0.8;" x="90" xlink:href="#m3b3a5234ee" y="334.0008"/>
      </g>
     </g>
     <g id="text_2">
      <!-- 0.0 -->
      <defs>
       <path d="M 31.78125 66.40625 
Q 24.171875 66.40625 20.328125 58.90625 
Q 16.5 51.421875 16.5 36.375 
Q 16.5 21.390625 20.328125 13.890625 
Q 24.171875 6.390625 31.78125 6.390625 
Q 39.453125 6.390625 43.28125 13.890625 
Q 47.125 21.390625 47.125 36.375 
Q 47.125 51.421875 43.28125 58.90625 
Q 39.453125 66.40625 31.78125 66.40625 
z
M 31.78125 74.21875 
Q 44.046875 74.21875 50.515625 64.515625 
Q 56.984375 54.828125 56.984375 36.375 
Q 56.984375 17.96875 50.515625 8.265625 
Q 44.046875 -1.421875 31.78125 -1.421875 
Q 19.53125 -1.421875 13.0625 8.265625 
Q 6.59375 17.96875 6.59375 36.375 
Q 6.59375 54.828125 13.0625 64.515625 
Q 19.53125 74.21875 31.78125 74.21875 
z
" id="DejaVuSans-48"/>
       <path d="M 10.6875 12.40625 
L 21 12.40625 
L 21 0 
L 10.6875 0 
z
" id="DejaVuSans-46"/>
      </defs>
      <g transform="translate(41.7791 343.848375)scale(0.2592 -0.2592)">
       <use xlink:href="#DejaVuSans-48"/>
       <use x="63.623047" xlink:href="#DejaVuSans-46"/>
       <use x="95.410156" xlink:href="#DejaVuSans-48"/>
      </g>
     </g>
    </g>
    <g id="ytick_2">
     <g id="line2d_7">
      <g>
       <use style="stroke:#000000;stroke-width:0.8;" x="90" xlink:href="#m3b3a5234ee" y="210.870107"/>
      </g>
     </g>
     <g id="text_3">
      <!-- 0.5 -->
      <defs>
       <path d="M 10.796875 72.90625 
L 49.515625 72.90625 
L 49.515625 64.59375 
L 19.828125 64.59375 
L 19.828125 46.734375 
Q 21.96875 47.46875 24.109375 47.828125 
Q 26.265625 48.1875 28.421875 48.1875 
Q 40.625 48.1875 47.75 41.5 
Q 54.890625 34.8125 54.890625 23.390625 
Q 54.890625 11.625 47.5625 5.09375 
Q 40.234375 -1.421875 26.90625 -1.421875 
Q 22.3125 -1.421875 17.546875 -0.640625 
Q 12.796875 0.140625 7.71875 1.703125 
L 7.71875 11.625 
Q 12.109375 9.234375 16.796875 8.0625 
Q 21.484375 6.890625 26.703125 6.890625 
Q 35.15625 6.890625 40.078125 11.328125 
Q 45.015625 15.765625 45.015625 23.390625 
Q 45.015625 31 40.078125 35.4375 
Q 35.15625 39.890625 26.703125 39.890625 
Q 22.75 39.890625 18.8125 39.015625 
Q 14.890625 38.140625 10.796875 36.28125 
z
" id="DejaVuSans-53"/>
      </defs>
      <g transform="translate(41.7791 220.717682)scale(0.2592 -0.2592)">
       <use xlink:href="#DejaVuSans-48"/>
       <use x="63.623047" xlink:href="#DejaVuSans-46"/>
       <use x="95.410156" xlink:href="#DejaVuSans-53"/>
      </g>
     </g>
    </g>
    <g id="ytick_3">
     <g id="line2d_8">
      <g>
       <use style="stroke:#000000;stroke-width:0.8;" x="90" xlink:href="#m3b3a5234ee" y="87.739414"/>
      </g>
     </g>
     <g id="text_4">
      <!-- 1.0 -->
      <defs>
       <path d="M 12.40625 8.296875 
L 28.515625 8.296875 
L 28.515625 63.921875 
L 10.984375 60.40625 
L 10.984375 69.390625 
L 28.421875 72.90625 
L 38.28125 72.90625 
L 38.28125 8.296875 
L 54.390625 8.296875 
L 54.390625 0 
L 12.40625 0 
z
" id="DejaVuSans-49"/>
      </defs>
      <g transform="translate(41.7791 97.586989)scale(0.2592 -0.2592)">
       <use xlink:href="#DejaVuSans-49"/>
       <use x="63.623047" xlink:href="#DejaVuSans-46"/>
       <use x="95.410156" xlink:href="#DejaVuSans-48"/>
      </g>
     </g>
    </g>
    <g id="text_5">
     <!-- Fraction -->
     <defs>
      <path d="M 9.8125 72.90625 
L 51.703125 72.90625 
L 51.703125 64.59375 
L 19.671875 64.59375 
L 19.671875 43.109375 
L 48.578125 43.109375 
L 48.578125 34.8125 
L 19.671875 34.8125 
L 19.671875 0 
L 9.8125 0 
z
" id="DejaVuSans-70"/>
      <path d="M 41.109375 46.296875 
Q 39.59375 47.171875 37.8125 47.578125 
Q 36.03125 48 33.890625 48 
Q 26.265625 48 22.1875 43.046875 
Q 18.109375 38.09375 18.109375 28.8125 
L 18.109375 0 
L 9.078125 0 
L 9.078125 54.6875 
L 18.109375 54.6875 
L 18.109375 46.1875 
Q 20.953125 51.171875 25.484375 53.578125 
Q 30.03125 56 36.53125 56 
Q 37.453125 56 38.578125 55.875 
Q 39.703125 55.765625 41.0625 55.515625 
z
" id="DejaVuSans-114"/>
      <path d="M 34.28125 27.484375 
Q 23.390625 27.484375 19.1875 25 
Q 14.984375 22.515625 14.984375 16.5 
Q 14.984375 11.71875 18.140625 8.90625 
Q 21.296875 6.109375 26.703125 6.109375 
Q 34.1875 6.109375 38.703125 11.40625 
Q 43.21875 16.703125 43.21875 25.484375 
L 43.21875 27.484375 
z
M 52.203125 31.203125 
L 52.203125 0 
L 43.21875 0 
L 43.21875 8.296875 
Q 40.140625 3.328125 35.546875 0.953125 
Q 30.953125 -1.421875 24.3125 -1.421875 
Q 15.921875 -1.421875 10.953125 3.296875 
Q 6 8.015625 6 15.921875 
Q 6 25.140625 12.171875 29.828125 
Q 18.359375 34.515625 30.609375 34.515625 
L 43.21875 34.515625 
L 43.21875 35.40625 
Q 43.21875 41.609375 39.140625 45 
Q 35.0625 48.390625 27.6875 48.390625 
Q 23 48.390625 18.546875 47.265625 
Q 14.109375 46.140625 10.015625 43.890625 
L 10.015625 52.203125 
Q 14.9375 54.109375 19.578125 55.046875 
Q 24.21875 56 28.609375 56 
Q 40.484375 56 46.34375 49.84375 
Q 52.203125 43.703125 52.203125 31.203125 
z
" id="DejaVuSans-97"/>
      <path d="M 48.78125 52.59375 
L 48.78125 44.1875 
Q 44.96875 46.296875 41.140625 47.34375 
Q 37.3125 48.390625 33.40625 48.390625 
Q 24.65625 48.390625 19.8125 42.84375 
Q 14.984375 37.3125 14.984375 27.296875 
Q 14.984375 17.28125 19.8125 11.734375 
Q 24.65625 6.203125 33.40625 6.203125 
Q 37.3125 6.203125 41.140625 7.25 
Q 44.96875 8.296875 48.78125 10.40625 
L 48.78125 2.09375 
Q 45.015625 0.34375 40.984375 -0.53125 
Q 36.96875 -1.421875 32.421875 -1.421875 
Q 20.0625 -1.421875 12.78125 6.34375 
Q 5.515625 14.109375 5.515625 27.296875 
Q 5.515625 40.671875 12.859375 48.328125 
Q 20.21875 56 33.015625 56 
Q 37.15625 56 41.109375 55.140625 
Q 45.0625 54.296875 48.78125 52.59375 
z
" id="DejaVuSans-99"/>
      <path d="M 30.609375 48.390625 
Q 23.390625 48.390625 19.1875 42.75 
Q 14.984375 37.109375 14.984375 27.296875 
Q 14.984375 17.484375 19.15625 11.84375 
Q 23.34375 6.203125 30.609375 6.203125 
Q 37.796875 6.203125 41.984375 11.859375 
Q 46.1875 17.53125 46.1875 27.296875 
Q 46.1875 37.015625 41.984375 42.703125 
Q 37.796875 48.390625 30.609375 48.390625 
z
M 30.609375 56 
Q 42.328125 56 49.015625 48.375 
Q 55.71875 40.765625 55.71875 27.296875 
Q 55.71875 13.875 49.015625 6.21875 
Q 42.328125 -1.421875 30.609375 -1.421875 
Q 18.84375 -1.421875 12.171875 6.21875 
Q 5.515625 13.875 5.515625 27.296875 
Q 5.515625 40.765625 12.171875 48.375 
Q 18.84375 56 30.609375 56 
z
" id="DejaVuSans-111"/>
     </defs>
     <g transform="translate(32.38855 262.298925)rotate(-90)scale(0.2592 -0.2592)">
      <use xlink:href="#DejaVuSans-70"/>
      <use x="57.410156" xlink:href="#DejaVuSans-114"/>
      <use x="98.523438" xlink:href="#DejaVuSans-97"/>
      <use x="159.802734" xlink:href="#DejaVuSans-99"/>
      <use x="214.783203" xlink:href="#DejaVuSans-116"/>
      <use x="253.992188" xlink:href="#DejaVuSans-105"/>
      <use x="281.775391" xlink:href="#DejaVuSans-111"/>
      <use x="342.957031" xlink:href="#DejaVuSans-110"/>
     </g>
    </g>
   </g>
   <g id="LineCollection_1">
    <path clip-path="url(#pc640076a84)" d="M 111.461538 109.667223 
L 111.461538 97.249228 
" style="fill:none;stroke:#008000;stroke-width:1.5;"/>
    <path clip-path="url(#pc640076a84)" d="M 125.769231 107.199802 
L 125.769231 103.698907 
" style="fill:none;stroke:#008000;stroke-width:1.5;"/>
    <path clip-path="url(#pc640076a84)" d="M 140.076923 112.01351 
L 140.076923 108.240115 
" style="fill:none;stroke:#008000;stroke-width:1.5;"/>
    <path clip-path="url(#pc640076a84)" d="M 154.384615 116.594559 
L 154.384615 111.903718 
" style="fill:none;stroke:#008000;stroke-width:1.5;"/>
    <path clip-path="url(#pc640076a84)" d="M 168.692308 123.527804 
L 168.692308 117.811627 
" style="fill:none;stroke:#008000;stroke-width:1.5;"/>
    <path clip-path="url(#pc640076a84)" d="M 183 119.152576 
L 183 113.678843 
" style="fill:none;stroke:#008000;stroke-width:1.5;"/>
    <path clip-path="url(#pc640076a84)" d="M 197.307692 116.220485 
L 197.307692 110.801424 
" style="fill:none;stroke:#008000;stroke-width:1.5;"/>
    <path clip-path="url(#pc640076a84)" d="M 211.615385 108.462464 
L 211.615385 103.157114 
" style="fill:none;stroke:#008000;stroke-width:1.5;"/>
    <path clip-path="url(#pc640076a84)" d="M 225.923077 106.837794 
L 225.923077 101.475885 
" style="fill:none;stroke:#008000;stroke-width:1.5;"/>
    <path clip-path="url(#pc640076a84)" d="M 240.230769 110.9486 
L 240.230769 104.554651 
" style="fill:none;stroke:#008000;stroke-width:1.5;"/>
    <path clip-path="url(#pc640076a84)" d="M 254.538462 98.241287 
L 254.538462 93.990016 
" style="fill:none;stroke:#008000;stroke-width:1.5;"/>
    <path clip-path="url(#pc640076a84)" d="M 268.846154 98.516938 
L 268.846154 93.900503 
" style="fill:none;stroke:#008000;stroke-width:1.5;"/>
    <path clip-path="url(#pc640076a84)" d="M 283.153846 98.816183 
L 283.153846 93.75334 
" style="fill:none;stroke:#008000;stroke-width:1.5;"/>
    <path clip-path="url(#pc640076a84)" d="M 297.461538 93.238962 
L 297.461538 89.590952 
" style="fill:none;stroke:#008000;stroke-width:1.5;"/>
    <path clip-path="url(#pc640076a84)" d="M 311.769231 97.364249 
L 311.769231 92.390601 
" style="fill:none;stroke:#008000;stroke-width:1.5;"/>
    <path clip-path="url(#pc640076a84)" d="M 326.076923 93.822966 
L 326.076923 89.391822 
" style="fill:none;stroke:#008000;stroke-width:1.5;"/>
    <path clip-path="url(#pc640076a84)" d="M 340.384615 99.330457 
L 340.384615 93.354407 
" style="fill:none;stroke:#008000;stroke-width:1.5;"/>
    <path clip-path="url(#pc640076a84)" d="M 354.692308 98.994123 
L 354.692308 92.54523 
" style="fill:none;stroke:#008000;stroke-width:1.5;"/>
    <path clip-path="url(#pc640076a84)" d="M 369 104.193438 
L 369 95.758571 
" style="fill:none;stroke:#008000;stroke-width:1.5;"/>
    <path clip-path="url(#pc640076a84)" d="M 383.307692 87.739414 
L 383.307692 87.739414 
" style="fill:none;stroke:#008000;stroke-width:1.5;"/>
    <path clip-path="url(#pc640076a84)" d="M 397.615385 95.423626 
L 397.615385 89.092317 
" style="fill:none;stroke:#008000;stroke-width:1.5;"/>
    <path clip-path="url(#pc640076a84)" d="M 411.923077 92.374871 
L 411.923077 87.750398 
" style="fill:none;stroke:#008000;stroke-width:1.5;"/>
    <path clip-path="url(#pc640076a84)" d="M 426.230769 104.033847 
L 426.230769 93.334882 
" style="fill:none;stroke:#008000;stroke-width:1.5;"/>
    <path clip-path="url(#pc640076a84)" d="M 440.538462 92.752303 
L 440.538462 87.752268 
" style="fill:none;stroke:#008000;stroke-width:1.5;"/>
    <path clip-path="url(#pc640076a84)" d="M 454.846154 94.556173 
L 454.846154 87.763249 
" style="fill:none;stroke:#008000;stroke-width:1.5;"/>
    <path clip-path="url(#pc640076a84)" d="M 469.153846 99.511932 
L 469.153846 89.840777 
" style="fill:none;stroke:#008000;stroke-width:1.5;"/>
    <path clip-path="url(#pc640076a84)" d="M 483.461538 94.198588 
L 483.461538 87.760802 
" style="fill:none;stroke:#008000;stroke-width:1.5;"/>
    <path clip-path="url(#pc640076a84)" d="M 497.769231 96.282444 
L 497.769231 89.247869 
" style="fill:none;stroke:#008000;stroke-width:1.5;"/>
    <path clip-path="url(#pc640076a84)" d="M 512.076923 87.739414 
L 512.076923 87.739414 
" style="fill:none;stroke:#008000;stroke-width:1.5;"/>
    <path clip-path="url(#pc640076a84)" d="M 526.384615 106.073412 
L 526.384615 92.858881 
" style="fill:none;stroke:#008000;stroke-width:1.5;"/>
    <path clip-path="url(#pc640076a84)" d="M 540.692308 95.651167 
L 540.692308 87.771576 
" style="fill:none;stroke:#008000;stroke-width:1.5;"/>
    <path clip-path="url(#pc640076a84)" d="M 555 103.478182 
L 555 90.586411 
" style="fill:none;stroke:#008000;stroke-width:1.5;"/>
    <path clip-path="url(#pc640076a84)" d="M 569.307692 109.620998 
L 569.307692 91.780081 
" style="fill:none;stroke:#008000;stroke-width:1.5;"/>
    <path clip-path="url(#pc640076a84)" d="M 583.615385 95.526088 
L 583.615385 87.770561 
" style="fill:none;stroke:#008000;stroke-width:1.5;"/>
    <path clip-path="url(#pc640076a84)" d="M 597.923077 96.988253 
L 597.923077 87.783457 
" style="fill:none;stroke:#008000;stroke-width:1.5;"/>
    <path clip-path="url(#pc640076a84)" d="M 612.230769 87.739414 
L 612.230769 87.739414 
" style="fill:none;stroke:#008000;stroke-width:1.5;"/>
    <path clip-path="url(#pc640076a84)" d="M 626.538462 97.739352 
L 626.538462 87.790961 
" style="fill:none;stroke:#008000;stroke-width:1.5;"/>
    <path clip-path="url(#pc640076a84)" d="M 640.846154 112.053779 
L 640.846154 88.051188 
" style="fill:none;stroke:#008000;stroke-width:1.5;"/>
   </g>
   <g id="LineCollection_2">
    <path clip-path="url(#pc640076a84)" d="M 111.461538 135.774679 
L 111.461538 119.445931 
" style="fill:none;stroke:#ff0000;stroke-width:1.5;"/>
    <path clip-path="url(#pc640076a84)" d="M 125.769231 115.023706 
L 125.769231 111.256666 
" style="fill:none;stroke:#ff0000;stroke-width:1.5;"/>
    <path clip-path="url(#pc640076a84)" d="M 140.076923 114.483502 
L 140.076923 110.800999 
" style="fill:none;stroke:#ff0000;stroke-width:1.5;"/>
    <path clip-path="url(#pc640076a84)" d="M 154.384615 117.300436 
L 154.384615 112.851663 
" style="fill:none;stroke:#ff0000;stroke-width:1.5;"/>
    <path clip-path="url(#pc640076a84)" d="M 168.692308 110.919532 
L 168.692308 106.308769 
" style="fill:none;stroke:#ff0000;stroke-width:1.5;"/>
    <path clip-path="url(#pc640076a84)" d="M 183 106.406023 
L 183 102.157351 
" style="fill:none;stroke:#ff0000;stroke-width:1.5;"/>
    <path clip-path="url(#pc640076a84)" d="M 197.307692 107.796076 
L 197.307692 103.286808 
" style="fill:none;stroke:#ff0000;stroke-width:1.5;"/>
    <path clip-path="url(#pc640076a84)" d="M 211.615385 102.435094 
L 211.615385 98.014294 
" style="fill:none;stroke:#ff0000;stroke-width:1.5;"/>
    <path clip-path="url(#pc640076a84)" d="M 225.923077 98.458876 
L 225.923077 94.471546 
" style="fill:none;stroke:#ff0000;stroke-width:1.5;"/>
    <path clip-path="url(#pc640076a84)" d="M 240.230769 99.927291 
L 240.230769 95.298912 
" style="fill:none;stroke:#ff0000;stroke-width:1.5;"/>
    <path clip-path="url(#pc640076a84)" d="M 254.538462 101.153874 
L 254.538462 96.411176 
" style="fill:none;stroke:#ff0000;stroke-width:1.5;"/>
    <path clip-path="url(#pc640076a84)" d="M 268.846154 99.191852 
L 268.846154 94.48043 
" style="fill:none;stroke:#ff0000;stroke-width:1.5;"/>
    <path clip-path="url(#pc640076a84)" d="M 283.153846 102.905628 
L 283.153846 97.046381 
" style="fill:none;stroke:#ff0000;stroke-width:1.5;"/>
    <path clip-path="url(#pc640076a84)" d="M 297.461538 99.4874 
L 297.461538 93.966711 
" style="fill:none;stroke:#ff0000;stroke-width:1.5;"/>
    <path clip-path="url(#pc640076a84)" d="M 311.769231 95.300867 
L 311.769231 90.963131 
" style="fill:none;stroke:#ff0000;stroke-width:1.5;"/>
    <path clip-path="url(#pc640076a84)" d="M 326.076923 103.955983 
L 326.076923 96.397732 
" style="fill:none;stroke:#ff0000;stroke-width:1.5;"/>
    <path clip-path="url(#pc640076a84)" d="M 340.384615 100.491912 
L 340.384615 94.259546 
" style="fill:none;stroke:#ff0000;stroke-width:1.5;"/>
    <path clip-path="url(#pc640076a84)" d="M 354.692308 98.975347 
L 354.692308 92.564006 
" style="fill:none;stroke:#ff0000;stroke-width:1.5;"/>
    <path clip-path="url(#pc640076a84)" d="M 369 97.105784 
L 369 90.921394 
" style="fill:none;stroke:#ff0000;stroke-width:1.5;"/>
    <path clip-path="url(#pc640076a84)" d="M 383.307692 112.757327 
L 383.307692 102.123323 
" style="fill:none;stroke:#ff0000;stroke-width:1.5;"/>
    <path clip-path="url(#pc640076a84)" d="M 397.615385 108.33311 
L 397.615385 97.388344 
" style="fill:none;stroke:#ff0000;stroke-width:1.5;"/>
    <path clip-path="url(#pc640076a84)" d="M 411.923077 98.475239 
L 411.923077 90.684777 
" style="fill:none;stroke:#ff0000;stroke-width:1.5;"/>
    <path clip-path="url(#pc640076a84)" d="M 426.230769 107.120295 
L 426.230769 95.420224 
" style="fill:none;stroke:#ff0000;stroke-width:1.5;"/>
    <path clip-path="url(#pc640076a84)" d="M 440.538462 96.206343 
L 440.538462 89.22244 
" style="fill:none;stroke:#ff0000;stroke-width:1.5;"/>
    <path clip-path="url(#pc640076a84)" d="M 454.846154 107.242248 
L 454.846154 94.504461 
" style="fill:none;stroke:#ff0000;stroke-width:1.5;"/>
    <path clip-path="url(#pc640076a84)" d="M 469.153846 99.533374 
L 469.153846 89.819335 
" style="fill:none;stroke:#ff0000;stroke-width:1.5;"/>
    <path clip-path="url(#pc640076a84)" d="M 483.461538 116.232095 
L 483.461538 101.291359 
" style="fill:none;stroke:#ff0000;stroke-width:1.5;"/>
    <path clip-path="url(#pc640076a84)" d="M 497.769231 96.291656 
L 497.769231 89.238657 
" style="fill:none;stroke:#ff0000;stroke-width:1.5;"/>
    <path clip-path="url(#pc640076a84)" d="M 512.076923 105.902953 
L 512.076923 90.989908 
" style="fill:none;stroke:#ff0000;stroke-width:1.5;"/>
    <path clip-path="url(#pc640076a84)" d="M 526.384615 122.491685 
L 526.384615 104.444745 
" style="fill:none;stroke:#ff0000;stroke-width:1.5;"/>
    <path clip-path="url(#pc640076a84)" d="M 540.692308 105.793406 
L 540.692308 92.772426 
" style="fill:none;stroke:#ff0000;stroke-width:1.5;"/>
    <path clip-path="url(#pc640076a84)" d="M 555 87.739414 
L 555 87.739414 
" style="fill:none;stroke:#ff0000;stroke-width:1.5;"/>
    <path clip-path="url(#pc640076a84)" d="M 569.307692 101.047222 
L 569.307692 87.743032 
" style="fill:none;stroke:#ff0000;stroke-width:1.5;"/>
    <path clip-path="url(#pc640076a84)" d="M 583.615385 105.514567 
L 583.615385 92.696081 
" style="fill:none;stroke:#ff0000;stroke-width:1.5;"/>
    <path clip-path="url(#pc640076a84)" d="M 597.923077 108.717642 
L 597.923077 93.626065 
" style="fill:none;stroke:#ff0000;stroke-width:1.5;"/>
    <path clip-path="url(#pc640076a84)" d="M 612.230769 116.474269 
L 612.230769 95.943767 
" style="fill:none;stroke:#ff0000;stroke-width:1.5;"/>
    <path clip-path="url(#pc640076a84)" d="M 626.538462 110.341445 
L 626.538462 94.109311 
" style="fill:none;stroke:#ff0000;stroke-width:1.5;"/>
    <path clip-path="url(#pc640076a84)" d="M 640.846154 87.739414 
L 640.846154 87.739414 
" style="fill:none;stroke:#ff0000;stroke-width:1.5;"/>
   </g>
   <g id="LineCollection_3">
    <path clip-path="url(#pc640076a84)" d="M 111.461538 150.030679 
L 111.461538 131.537653 
" style="fill:none;stroke:#0000ff;stroke-width:1.5;"/>
    <path clip-path="url(#pc640076a84)" d="M 125.769231 131.372959 
L 125.769231 126.67389 
" style="fill:none;stroke:#0000ff;stroke-width:1.5;"/>
    <path clip-path="url(#pc640076a84)" d="M 140.076923 135.148596 
L 140.076923 130.382915 
" style="fill:none;stroke:#0000ff;stroke-width:1.5;"/>
    <path clip-path="url(#pc640076a84)" d="M 154.384615 141.521813 
L 154.384615 135.764226 
" style="fill:none;stroke:#0000ff;stroke-width:1.5;"/>
    <path clip-path="url(#pc640076a84)" d="M 168.692308 142.0441 
L 168.692308 135.462025 
" style="fill:none;stroke:#0000ff;stroke-width:1.5;"/>
    <path clip-path="url(#pc640076a84)" d="M 183 134.200432 
L 183 127.862952 
" style="fill:none;stroke:#0000ff;stroke-width:1.5;"/>
    <path clip-path="url(#pc640076a84)" d="M 197.307692 132.673886 
L 197.307692 126.226073 
" style="fill:none;stroke:#0000ff;stroke-width:1.5;"/>
    <path clip-path="url(#pc640076a84)" d="M 211.615385 120.624895 
L 211.615385 114.132932 
" style="fill:none;stroke:#0000ff;stroke-width:1.5;"/>
    <path clip-path="url(#pc640076a84)" d="M 225.923077 115.48676 
L 225.923077 109.115074 
" style="fill:none;stroke:#0000ff;stroke-width:1.5;"/>
    <path clip-path="url(#pc640076a84)" d="M 240.230769 120.556289 
L 240.230769 113.089585 
" style="fill:none;stroke:#0000ff;stroke-width:1.5;"/>
    <path clip-path="url(#pc640076a84)" d="M 254.538462 109.844102 
L 254.538462 103.722192 
" style="fill:none;stroke:#0000ff;stroke-width:1.5;"/>
    <path clip-path="url(#pc640076a84)" d="M 268.846154 108.173125 
L 268.846154 101.812069 
" style="fill:none;stroke:#0000ff;stroke-width:1.5;"/>
    <path clip-path="url(#pc640076a84)" d="M 283.153846 111.809483 
L 283.153846 104.383995 
" style="fill:none;stroke:#0000ff;stroke-width:1.5;"/>
    <path clip-path="url(#pc640076a84)" d="M 297.461538 103.506098 
L 297.461538 97.030812 
" style="fill:none;stroke:#0000ff;stroke-width:1.5;"/>
    <path clip-path="url(#pc640076a84)" d="M 311.769231 103.331103 
L 311.769231 96.896303 
" style="fill:none;stroke:#0000ff;stroke-width:1.5;"/>
    <path clip-path="url(#pc640076a84)" d="M 326.076923 108.122905 
L 326.076923 99.576065 
" style="fill:none;stroke:#0000ff;stroke-width:1.5;"/>
    <path clip-path="url(#pc640076a84)" d="M 340.384615 109.799896 
L 340.384615 101.484318 
" style="fill:none;stroke:#0000ff;stroke-width:1.5;"/>
    <path clip-path="url(#pc640076a84)" d="M 354.692308 107.936616 
L 354.692308 99.139549 
" style="fill:none;stroke:#0000ff;stroke-width:1.5;"/>
    <path clip-path="url(#pc640076a84)" d="M 369 110.990846 
L 369 100.885994 
" style="fill:none;stroke:#0000ff;stroke-width:1.5;"/>
    <path clip-path="url(#pc640076a84)" d="M 383.307692 112.757327 
L 383.307692 102.123323 
" style="fill:none;stroke:#0000ff;stroke-width:1.5;"/>
    <path clip-path="url(#pc640076a84)" d="M 397.615385 113.240766 
L 397.615385 100.962892 
" style="fill:none;stroke:#0000ff;stroke-width:1.5;"/>
    <path clip-path="url(#pc640076a84)" d="M 411.923077 101.304278 
L 411.923077 92.373112 
" style="fill:none;stroke:#0000ff;stroke-width:1.5;"/>
    <path clip-path="url(#pc640076a84)" d="M 426.230769 119.150888 
L 426.230769 104.076789 
" style="fill:none;stroke:#0000ff;stroke-width:1.5;"/>
    <path clip-path="url(#pc640076a84)" d="M 440.538462 99.4128 
L 440.538462 90.940195 
" style="fill:none;stroke:#0000ff;stroke-width:1.5;"/>
    <path clip-path="url(#pc640076a84)" d="M 454.846154 111.166882 
L 454.846154 97.055589 
" style="fill:none;stroke:#0000ff;stroke-width:1.5;"/>
    <path clip-path="url(#pc640076a84)" d="M 469.153846 108.078543 
L 469.153846 94.757233 
" style="fill:none;stroke:#0000ff;stroke-width:1.5;"/>
    <path clip-path="url(#pc640076a84)" d="M 483.461538 119.663614 
L 483.461538 103.787185 
" style="fill:none;stroke:#0000ff;stroke-width:1.5;"/>
    <path clip-path="url(#pc640076a84)" d="M 497.769231 102.567399 
L 497.769231 92.809266 
" style="fill:none;stroke:#0000ff;stroke-width:1.5;"/>
    <path clip-path="url(#pc640076a84)" d="M 512.076923 105.902953 
L 512.076923 90.989908 
" style="fill:none;stroke:#0000ff;stroke-width:1.5;"/>
    <path clip-path="url(#pc640076a84)" d="M 526.384615 134.40353 
L 526.384615 113.536004 
" style="fill:none;stroke:#0000ff;stroke-width:1.5;"/>
    <path clip-path="url(#pc640076a84)" d="M 540.692308 110.493721 
L 540.692308 95.643656 
" style="fill:none;stroke:#0000ff;stroke-width:1.5;"/>
    <path clip-path="url(#pc640076a84)" d="M 555 103.478182 
L 555 90.586411 
" style="fill:none;stroke:#0000ff;stroke-width:1.5;"/>
    <path clip-path="url(#pc640076a84)" d="M 569.307692 117.73192 
L 569.307692 96.279984 
" style="fill:none;stroke:#0000ff;stroke-width:1.5;"/>
    <path clip-path="url(#pc640076a84)" d="M 583.615385 110.145849 
L 583.615385 95.521798 
" style="fill:none;stroke:#0000ff;stroke-width:1.5;"/>
    <path clip-path="url(#pc640076a84)" d="M 597.923077 114.152336 
L 597.923077 96.977369 
" style="fill:none;stroke:#0000ff;stroke-width:1.5;"/>
    <path clip-path="url(#pc640076a84)" d="M 612.230769 116.474269 
L 612.230769 95.943767 
" style="fill:none;stroke:#0000ff;stroke-width:1.5;"/>
    <path clip-path="url(#pc640076a84)" d="M 626.538462 116.181903 
L 626.538462 97.729074 
" style="fill:none;stroke:#0000ff;stroke-width:1.5;"/>
    <path clip-path="url(#pc640076a84)" d="M 640.846154 112.053779 
L 640.846154 88.051188 
" style="fill:none;stroke:#0000ff;stroke-width:1.5;"/>
   </g>
   <g id="line2d_9">
    <path clip-path="url(#pc640076a84)" d="M 104.307692 103.458226 
L 118.615385 103.458226 
L 118.615385 105.449355 
L 132.923077 105.449355 
L 132.923077 110.126813 
L 147.230769 110.126813 
L 147.230769 114.249138 
L 161.538462 114.249138 
L 161.538462 120.669715 
L 175.846154 120.669715 
L 175.846154 116.41571 
L 190.153846 116.41571 
L 190.153846 113.510954 
L 204.461538 113.510954 
L 204.461538 105.809789 
L 218.769231 105.809789 
L 218.769231 104.15684 
L 233.076923 104.15684 
L 233.076923 107.751626 
L 247.384615 107.751626 
L 247.384615 96.115651 
L 261.692308 96.115651 
L 261.692308 96.208721 
L 276 96.208721 
L 276 96.284762 
L 290.307692 96.284762 
L 290.307692 91.414957 
L 304.615385 91.414957 
L 304.615385 94.877425 
L 318.923077 94.877425 
L 318.923077 91.607394 
L 333.230769 91.607394 
L 333.230769 96.342432 
L 347.538462 96.342432 
L 347.538462 95.769676 
L 361.846154 95.769676 
L 361.846154 99.976004 
L 376.153846 99.976004 
L 376.153846 87.739414 
L 390.461538 87.739414 
L 390.461538 92.257971 
L 404.769231 92.257971 
L 404.769231 90.062634 
L 419.076923 90.062634 
L 419.076923 98.684364 
L 433.384615 98.684364 
L 433.384615 90.252285 
L 447.692308 90.252285 
L 447.692308 91.159711 
L 462 91.159711 
L 462 94.676354 
L 476.307692 94.676354 
L 476.307692 90.979695 
L 490.615385 90.979695 
L 490.615385 92.765156 
L 504.923077 92.765156 
L 504.923077 87.739414 
L 519.230769 87.739414 
L 519.230769 99.466147 
L 533.538462 99.466147 
L 533.538462 91.711372 
L 547.846154 91.711372 
L 547.846154 97.032296 
L 562.153846 97.032296 
L 562.153846 100.700539 
L 576.461538 100.700539 
L 576.461538 91.648325 
L 590.769231 91.648325 
L 590.769231 92.385855 
L 605.076923 92.385855 
L 605.076923 87.739414 
L 619.384615 87.739414 
L 619.384615 92.765156 
L 633.692308 92.765156 
L 633.692308 100.052483 
L 648 100.052483 
" style="fill:none;stroke:#008000;stroke-linecap:square;stroke-width:1.5;"/>
   </g>
   <g id="line2d_10">
    <defs>
     <path d="M 2 0 
L -2 -0 
" id="mf7fae4fef5" style="stroke:#008000;"/>
    </defs>
    <g clip-path="url(#pc640076a84)">
     <use style="fill:#008000;stroke:#008000;" x="111.461538" xlink:href="#mf7fae4fef5" y="109.667223"/>
     <use style="fill:#008000;stroke:#008000;" x="125.769231" xlink:href="#mf7fae4fef5" y="107.199802"/>
     <use style="fill:#008000;stroke:#008000;" x="140.076923" xlink:href="#mf7fae4fef5" y="112.01351"/>
     <use style="fill:#008000;stroke:#008000;" x="154.384615" xlink:href="#mf7fae4fef5" y="116.594559"/>
     <use style="fill:#008000;stroke:#008000;" x="168.692308" xlink:href="#mf7fae4fef5" y="123.527804"/>
     <use style="fill:#008000;stroke:#008000;" x="183" xlink:href="#mf7fae4fef5" y="119.152576"/>
     <use style="fill:#008000;stroke:#008000;" x="197.307692" xlink:href="#mf7fae4fef5" y="116.220485"/>
     <use style="fill:#008000;stroke:#008000;" x="211.615385" xlink:href="#mf7fae4fef5" y="108.462464"/>
     <use style="fill:#008000;stroke:#008000;" x="225.923077" xlink:href="#mf7fae4fef5" y="106.837794"/>
     <use style="fill:#008000;stroke:#008000;" x="240.230769" xlink:href="#mf7fae4fef5" y="110.9486"/>
     <use style="fill:#008000;stroke:#008000;" x="254.538462" xlink:href="#mf7fae4fef5" y="98.241287"/>
     <use style="fill:#008000;stroke:#008000;" x="268.846154" xlink:href="#mf7fae4fef5" y="98.516938"/>
     <use style="fill:#008000;stroke:#008000;" x="283.153846" xlink:href="#mf7fae4fef5" y="98.816183"/>
     <use style="fill:#008000;stroke:#008000;" x="297.461538" xlink:href="#mf7fae4fef5" y="93.238962"/>
     <use style="fill:#008000;stroke:#008000;" x="311.769231" xlink:href="#mf7fae4fef5" y="97.364249"/>
     <use style="fill:#008000;stroke:#008000;" x="326.076923" xlink:href="#mf7fae4fef5" y="93.822966"/>
     <use style="fill:#008000;stroke:#008000;" x="340.384615" xlink:href="#mf7fae4fef5" y="99.330457"/>
     <use style="fill:#008000;stroke:#008000;" x="354.692308" xlink:href="#mf7fae4fef5" y="98.994123"/>
     <use style="fill:#008000;stroke:#008000;" x="369" xlink:href="#mf7fae4fef5" y="104.193438"/>
     <use style="fill:#008000;stroke:#008000;" x="383.307692" xlink:href="#mf7fae4fef5" y="87.739414"/>
     <use style="fill:#008000;stroke:#008000;" x="397.615385" xlink:href="#mf7fae4fef5" y="95.423626"/>
     <use style="fill:#008000;stroke:#008000;" x="411.923077" xlink:href="#mf7fae4fef5" y="92.374871"/>
     <use style="fill:#008000;stroke:#008000;" x="426.230769" xlink:href="#mf7fae4fef5" y="104.033847"/>
     <use style="fill:#008000;stroke:#008000;" x="440.538462" xlink:href="#mf7fae4fef5" y="92.752303"/>
     <use style="fill:#008000;stroke:#008000;" x="454.846154" xlink:href="#mf7fae4fef5" y="94.556173"/>
     <use style="fill:#008000;stroke:#008000;" x="469.153846" xlink:href="#mf7fae4fef5" y="99.511932"/>
     <use style="fill:#008000;stroke:#008000;" x="483.461538" xlink:href="#mf7fae4fef5" y="94.198588"/>
     <use style="fill:#008000;stroke:#008000;" x="497.769231" xlink:href="#mf7fae4fef5" y="96.282444"/>
     <use style="fill:#008000;stroke:#008000;" x="512.076923" xlink:href="#mf7fae4fef5" y="87.739414"/>
     <use style="fill:#008000;stroke:#008000;" x="526.384615" xlink:href="#mf7fae4fef5" y="106.073412"/>
     <use style="fill:#008000;stroke:#008000;" x="540.692308" xlink:href="#mf7fae4fef5" y="95.651167"/>
     <use style="fill:#008000;stroke:#008000;" x="555" xlink:href="#mf7fae4fef5" y="103.478182"/>
     <use style="fill:#008000;stroke:#008000;" x="569.307692" xlink:href="#mf7fae4fef5" y="109.620998"/>
     <use style="fill:#008000;stroke:#008000;" x="583.615385" xlink:href="#mf7fae4fef5" y="95.526088"/>
     <use style="fill:#008000;stroke:#008000;" x="597.923077" xlink:href="#mf7fae4fef5" y="96.988253"/>
     <use style="fill:#008000;stroke:#008000;" x="612.230769" xlink:href="#mf7fae4fef5" y="87.739414"/>
     <use style="fill:#008000;stroke:#008000;" x="626.538462" xlink:href="#mf7fae4fef5" y="97.739352"/>
     <use style="fill:#008000;stroke:#008000;" x="640.846154" xlink:href="#mf7fae4fef5" y="112.053779"/>
    </g>
   </g>
   <g id="line2d_11">
    <g clip-path="url(#pc640076a84)">
     <use style="fill:#008000;stroke:#008000;" x="111.461538" xlink:href="#mf7fae4fef5" y="97.249228"/>
     <use style="fill:#008000;stroke:#008000;" x="125.769231" xlink:href="#mf7fae4fef5" y="103.698907"/>
     <use style="fill:#008000;stroke:#008000;" x="140.076923" xlink:href="#mf7fae4fef5" y="108.240115"/>
     <use style="fill:#008000;stroke:#008000;" x="154.384615" xlink:href="#mf7fae4fef5" y="111.903718"/>
     <use style="fill:#008000;stroke:#008000;" x="168.692308" xlink:href="#mf7fae4fef5" y="117.811627"/>
     <use style="fill:#008000;stroke:#008000;" x="183" xlink:href="#mf7fae4fef5" y="113.678843"/>
     <use style="fill:#008000;stroke:#008000;" x="197.307692" xlink:href="#mf7fae4fef5" y="110.801424"/>
     <use style="fill:#008000;stroke:#008000;" x="211.615385" xlink:href="#mf7fae4fef5" y="103.157114"/>
     <use style="fill:#008000;stroke:#008000;" x="225.923077" xlink:href="#mf7fae4fef5" y="101.475885"/>
     <use style="fill:#008000;stroke:#008000;" x="240.230769" xlink:href="#mf7fae4fef5" y="104.554651"/>
     <use style="fill:#008000;stroke:#008000;" x="254.538462" xlink:href="#mf7fae4fef5" y="93.990016"/>
     <use style="fill:#008000;stroke:#008000;" x="268.846154" xlink:href="#mf7fae4fef5" y="93.900503"/>
     <use style="fill:#008000;stroke:#008000;" x="283.153846" xlink:href="#mf7fae4fef5" y="93.75334"/>
     <use style="fill:#008000;stroke:#008000;" x="297.461538" xlink:href="#mf7fae4fef5" y="89.590952"/>
     <use style="fill:#008000;stroke:#008000;" x="311.769231" xlink:href="#mf7fae4fef5" y="92.390601"/>
     <use style="fill:#008000;stroke:#008000;" x="326.076923" xlink:href="#mf7fae4fef5" y="89.391822"/>
     <use style="fill:#008000;stroke:#008000;" x="340.384615" xlink:href="#mf7fae4fef5" y="93.354407"/>
     <use style="fill:#008000;stroke:#008000;" x="354.692308" xlink:href="#mf7fae4fef5" y="92.54523"/>
     <use style="fill:#008000;stroke:#008000;" x="369" xlink:href="#mf7fae4fef5" y="95.758571"/>
     <use style="fill:#008000;stroke:#008000;" x="383.307692" xlink:href="#mf7fae4fef5" y="87.739414"/>
     <use style="fill:#008000;stroke:#008000;" x="397.615385" xlink:href="#mf7fae4fef5" y="89.092317"/>
     <use style="fill:#008000;stroke:#008000;" x="411.923077" xlink:href="#mf7fae4fef5" y="87.750398"/>
     <use style="fill:#008000;stroke:#008000;" x="426.230769" xlink:href="#mf7fae4fef5" y="93.334882"/>
     <use style="fill:#008000;stroke:#008000;" x="440.538462" xlink:href="#mf7fae4fef5" y="87.752268"/>
     <use style="fill:#008000;stroke:#008000;" x="454.846154" xlink:href="#mf7fae4fef5" y="87.763249"/>
     <use style="fill:#008000;stroke:#008000;" x="469.153846" xlink:href="#mf7fae4fef5" y="89.840777"/>
     <use style="fill:#008000;stroke:#008000;" x="483.461538" xlink:href="#mf7fae4fef5" y="87.760802"/>
     <use style="fill:#008000;stroke:#008000;" x="497.769231" xlink:href="#mf7fae4fef5" y="89.247869"/>
     <use style="fill:#008000;stroke:#008000;" x="512.076923" xlink:href="#mf7fae4fef5" y="87.739414"/>
     <use style="fill:#008000;stroke:#008000;" x="526.384615" xlink:href="#mf7fae4fef5" y="92.858881"/>
     <use style="fill:#008000;stroke:#008000;" x="540.692308" xlink:href="#mf7fae4fef5" y="87.771576"/>
     <use style="fill:#008000;stroke:#008000;" x="555" xlink:href="#mf7fae4fef5" y="90.586411"/>
     <use style="fill:#008000;stroke:#008000;" x="569.307692" xlink:href="#mf7fae4fef5" y="91.780081"/>
     <use style="fill:#008000;stroke:#008000;" x="583.615385" xlink:href="#mf7fae4fef5" y="87.770561"/>
     <use style="fill:#008000;stroke:#008000;" x="597.923077" xlink:href="#mf7fae4fef5" y="87.783457"/>
     <use style="fill:#008000;stroke:#008000;" x="612.230769" xlink:href="#mf7fae4fef5" y="87.739414"/>
     <use style="fill:#008000;stroke:#008000;" x="626.538462" xlink:href="#mf7fae4fef5" y="87.790961"/>
     <use style="fill:#008000;stroke:#008000;" x="640.846154" xlink:href="#mf7fae4fef5" y="88.051188"/>
    </g>
   </g>
   <g id="line2d_12">
    <path clip-path="url(#pc640076a84)" d="M 104.307692 127.610305 
L 118.615385 127.610305 
L 118.615385 113.140186 
L 132.923077 113.140186 
L 132.923077 112.642251 
L 147.230769 112.642251 
L 147.230769 115.076049 
L 161.538462 115.076049 
L 161.538462 108.614151 
L 175.846154 108.614151 
L 175.846154 104.281687 
L 190.153846 104.281687 
L 190.153846 105.541442 
L 204.461538 105.541442 
L 204.461538 100.224694 
L 218.769231 100.224694 
L 218.769231 96.465211 
L 233.076923 96.465211 
L 233.076923 97.613102 
L 247.384615 97.613102 
L 247.384615 98.782525 
L 261.692308 98.782525 
L 261.692308 96.836141 
L 276 96.836141 
L 276 99.976004 
L 290.307692 99.976004 
L 290.307692 96.727056 
L 304.615385 96.727056 
L 304.615385 93.131999 
L 318.923077 93.131999 
L 318.923077 100.176858 
L 333.230769 100.176858 
L 333.230769 97.375729 
L 347.538462 97.375729 
L 347.538462 95.769676 
L 361.846154 95.769676 
L 361.846154 94.013589 
L 376.153846 94.013589 
L 376.153846 107.440325 
L 390.461538 107.440325 
L 390.461538 102.860727 
L 404.769231 102.860727 
L 404.769231 94.580008 
L 419.076923 94.580008 
L 419.076923 101.270259 
L 433.384615 101.270259 
L 433.384615 92.714391 
L 447.692308 92.714391 
L 447.692308 100.873354 
L 462 100.873354 
L 462 94.676354 
L 476.307692 94.676354 
L 476.307692 108.761727 
L 490.615385 108.761727 
L 490.615385 92.765156 
L 504.923077 92.765156 
L 504.923077 98.446431 
L 519.230769 98.446431 
L 519.230769 113.468215 
L 533.538462 113.468215 
L 533.538462 99.282916 
L 547.846154 99.282916 
L 547.846154 87.739414 
L 562.153846 87.739414 
L 562.153846 94.395127 
L 576.461538 94.395127 
L 576.461538 99.105324 
L 590.769231 99.105324 
L 590.769231 101.171853 
L 605.076923 101.171853 
L 605.076923 106.209018 
L 619.384615 106.209018 
L 619.384615 102.225378 
L 633.692308 102.225378 
L 633.692308 87.739414 
L 648 87.739414 
" style="fill:none;stroke:#ff0000;stroke-linecap:square;stroke-width:1.5;"/>
   </g>
   <g id="line2d_13">
    <defs>
     <path d="M 2 0 
L -2 -0 
" id="m02901ea32a" style="stroke:#ff0000;"/>
    </defs>
    <g clip-path="url(#pc640076a84)">
     <use style="fill:#ff0000;stroke:#ff0000;" x="111.461538" xlink:href="#m02901ea32a" y="135.774679"/>
     <use style="fill:#ff0000;stroke:#ff0000;" x="125.769231" xlink:href="#m02901ea32a" y="115.023706"/>
     <use style="fill:#ff0000;stroke:#ff0000;" x="140.076923" xlink:href="#m02901ea32a" y="114.483502"/>
     <use style="fill:#ff0000;stroke:#ff0000;" x="154.384615" xlink:href="#m02901ea32a" y="117.300436"/>
     <use style="fill:#ff0000;stroke:#ff0000;" x="168.692308" xlink:href="#m02901ea32a" y="110.919532"/>
     <use style="fill:#ff0000;stroke:#ff0000;" x="183" xlink:href="#m02901ea32a" y="106.406023"/>
     <use style="fill:#ff0000;stroke:#ff0000;" x="197.307692" xlink:href="#m02901ea32a" y="107.796076"/>
     <use style="fill:#ff0000;stroke:#ff0000;" x="211.615385" xlink:href="#m02901ea32a" y="102.435094"/>
     <use style="fill:#ff0000;stroke:#ff0000;" x="225.923077" xlink:href="#m02901ea32a" y="98.458876"/>
     <use style="fill:#ff0000;stroke:#ff0000;" x="240.230769" xlink:href="#m02901ea32a" y="99.927291"/>
     <use style="fill:#ff0000;stroke:#ff0000;" x="254.538462" xlink:href="#m02901ea32a" y="101.153874"/>
     <use style="fill:#ff0000;stroke:#ff0000;" x="268.846154" xlink:href="#m02901ea32a" y="99.191852"/>
     <use style="fill:#ff0000;stroke:#ff0000;" x="283.153846" xlink:href="#m02901ea32a" y="102.905628"/>
     <use style="fill:#ff0000;stroke:#ff0000;" x="297.461538" xlink:href="#m02901ea32a" y="99.4874"/>
     <use style="fill:#ff0000;stroke:#ff0000;" x="311.769231" xlink:href="#m02901ea32a" y="95.300867"/>
     <use style="fill:#ff0000;stroke:#ff0000;" x="326.076923" xlink:href="#m02901ea32a" y="103.955983"/>
     <use style="fill:#ff0000;stroke:#ff0000;" x="340.384615" xlink:href="#m02901ea32a" y="100.491912"/>
     <use style="fill:#ff0000;stroke:#ff0000;" x="354.692308" xlink:href="#m02901ea32a" y="98.975347"/>
     <use style="fill:#ff0000;stroke:#ff0000;" x="369" xlink:href="#m02901ea32a" y="97.105784"/>
     <use style="fill:#ff0000;stroke:#ff0000;" x="383.307692" xlink:href="#m02901ea32a" y="112.757327"/>
     <use style="fill:#ff0000;stroke:#ff0000;" x="397.615385" xlink:href="#m02901ea32a" y="108.33311"/>
     <use style="fill:#ff0000;stroke:#ff0000;" x="411.923077" xlink:href="#m02901ea32a" y="98.475239"/>
     <use style="fill:#ff0000;stroke:#ff0000;" x="426.230769" xlink:href="#m02901ea32a" y="107.120295"/>
     <use style="fill:#ff0000;stroke:#ff0000;" x="440.538462" xlink:href="#m02901ea32a" y="96.206343"/>
     <use style="fill:#ff0000;stroke:#ff0000;" x="454.846154" xlink:href="#m02901ea32a" y="107.242248"/>
     <use style="fill:#ff0000;stroke:#ff0000;" x="469.153846" xlink:href="#m02901ea32a" y="99.533374"/>
     <use style="fill:#ff0000;stroke:#ff0000;" x="483.461538" xlink:href="#m02901ea32a" y="116.232095"/>
     <use style="fill:#ff0000;stroke:#ff0000;" x="497.769231" xlink:href="#m02901ea32a" y="96.291656"/>
     <use style="fill:#ff0000;stroke:#ff0000;" x="512.076923" xlink:href="#m02901ea32a" y="105.902953"/>
     <use style="fill:#ff0000;stroke:#ff0000;" x="526.384615" xlink:href="#m02901ea32a" y="122.491685"/>
     <use style="fill:#ff0000;stroke:#ff0000;" x="540.692308" xlink:href="#m02901ea32a" y="105.793406"/>
     <use style="fill:#ff0000;stroke:#ff0000;" x="555" xlink:href="#m02901ea32a" y="87.739414"/>
     <use style="fill:#ff0000;stroke:#ff0000;" x="569.307692" xlink:href="#m02901ea32a" y="101.047222"/>
     <use style="fill:#ff0000;stroke:#ff0000;" x="583.615385" xlink:href="#m02901ea32a" y="105.514567"/>
     <use style="fill:#ff0000;stroke:#ff0000;" x="597.923077" xlink:href="#m02901ea32a" y="108.717642"/>
     <use style="fill:#ff0000;stroke:#ff0000;" x="612.230769" xlink:href="#m02901ea32a" y="116.474269"/>
     <use style="fill:#ff0000;stroke:#ff0000;" x="626.538462" xlink:href="#m02901ea32a" y="110.341445"/>
     <use style="fill:#ff0000;stroke:#ff0000;" x="640.846154" xlink:href="#m02901ea32a" y="87.739414"/>
    </g>
   </g>
   <g id="line2d_14">
    <g clip-path="url(#pc640076a84)">
     <use style="fill:#ff0000;stroke:#ff0000;" x="111.461538" xlink:href="#m02901ea32a" y="119.445931"/>
     <use style="fill:#ff0000;stroke:#ff0000;" x="125.769231" xlink:href="#m02901ea32a" y="111.256666"/>
     <use style="fill:#ff0000;stroke:#ff0000;" x="140.076923" xlink:href="#m02901ea32a" y="110.800999"/>
     <use style="fill:#ff0000;stroke:#ff0000;" x="154.384615" xlink:href="#m02901ea32a" y="112.851663"/>
     <use style="fill:#ff0000;stroke:#ff0000;" x="168.692308" xlink:href="#m02901ea32a" y="106.308769"/>
     <use style="fill:#ff0000;stroke:#ff0000;" x="183" xlink:href="#m02901ea32a" y="102.157351"/>
     <use style="fill:#ff0000;stroke:#ff0000;" x="197.307692" xlink:href="#m02901ea32a" y="103.286808"/>
     <use style="fill:#ff0000;stroke:#ff0000;" x="211.615385" xlink:href="#m02901ea32a" y="98.014294"/>
     <use style="fill:#ff0000;stroke:#ff0000;" x="225.923077" xlink:href="#m02901ea32a" y="94.471546"/>
     <use style="fill:#ff0000;stroke:#ff0000;" x="240.230769" xlink:href="#m02901ea32a" y="95.298912"/>
     <use style="fill:#ff0000;stroke:#ff0000;" x="254.538462" xlink:href="#m02901ea32a" y="96.411176"/>
     <use style="fill:#ff0000;stroke:#ff0000;" x="268.846154" xlink:href="#m02901ea32a" y="94.48043"/>
     <use style="fill:#ff0000;stroke:#ff0000;" x="283.153846" xlink:href="#m02901ea32a" y="97.046381"/>
     <use style="fill:#ff0000;stroke:#ff0000;" x="297.461538" xlink:href="#m02901ea32a" y="93.966711"/>
     <use style="fill:#ff0000;stroke:#ff0000;" x="311.769231" xlink:href="#m02901ea32a" y="90.963131"/>
     <use style="fill:#ff0000;stroke:#ff0000;" x="326.076923" xlink:href="#m02901ea32a" y="96.397732"/>
     <use style="fill:#ff0000;stroke:#ff0000;" x="340.384615" xlink:href="#m02901ea32a" y="94.259546"/>
     <use style="fill:#ff0000;stroke:#ff0000;" x="354.692308" xlink:href="#m02901ea32a" y="92.564006"/>
     <use style="fill:#ff0000;stroke:#ff0000;" x="369" xlink:href="#m02901ea32a" y="90.921394"/>
     <use style="fill:#ff0000;stroke:#ff0000;" x="383.307692" xlink:href="#m02901ea32a" y="102.123323"/>
     <use style="fill:#ff0000;stroke:#ff0000;" x="397.615385" xlink:href="#m02901ea32a" y="97.388344"/>
     <use style="fill:#ff0000;stroke:#ff0000;" x="411.923077" xlink:href="#m02901ea32a" y="90.684777"/>
     <use style="fill:#ff0000;stroke:#ff0000;" x="426.230769" xlink:href="#m02901ea32a" y="95.420224"/>
     <use style="fill:#ff0000;stroke:#ff0000;" x="440.538462" xlink:href="#m02901ea32a" y="89.22244"/>
     <use style="fill:#ff0000;stroke:#ff0000;" x="454.846154" xlink:href="#m02901ea32a" y="94.504461"/>
     <use style="fill:#ff0000;stroke:#ff0000;" x="469.153846" xlink:href="#m02901ea32a" y="89.819335"/>
     <use style="fill:#ff0000;stroke:#ff0000;" x="483.461538" xlink:href="#m02901ea32a" y="101.291359"/>
     <use style="fill:#ff0000;stroke:#ff0000;" x="497.769231" xlink:href="#m02901ea32a" y="89.238657"/>
     <use style="fill:#ff0000;stroke:#ff0000;" x="512.076923" xlink:href="#m02901ea32a" y="90.989908"/>
     <use style="fill:#ff0000;stroke:#ff0000;" x="526.384615" xlink:href="#m02901ea32a" y="104.444745"/>
     <use style="fill:#ff0000;stroke:#ff0000;" x="540.692308" xlink:href="#m02901ea32a" y="92.772426"/>
     <use style="fill:#ff0000;stroke:#ff0000;" x="555" xlink:href="#m02901ea32a" y="87.739414"/>
     <use style="fill:#ff0000;stroke:#ff0000;" x="569.307692" xlink:href="#m02901ea32a" y="87.743032"/>
     <use style="fill:#ff0000;stroke:#ff0000;" x="583.615385" xlink:href="#m02901ea32a" y="92.696081"/>
     <use style="fill:#ff0000;stroke:#ff0000;" x="597.923077" xlink:href="#m02901ea32a" y="93.626065"/>
     <use style="fill:#ff0000;stroke:#ff0000;" x="612.230769" xlink:href="#m02901ea32a" y="95.943767"/>
     <use style="fill:#ff0000;stroke:#ff0000;" x="626.538462" xlink:href="#m02901ea32a" y="94.109311"/>
     <use style="fill:#ff0000;stroke:#ff0000;" x="640.846154" xlink:href="#m02901ea32a" y="87.739414"/>
    </g>
   </g>
   <g id="line2d_15">
    <path clip-path="url(#pc640076a84)" d="M 104.307692 140.784166 
L 118.615385 140.784166 
L 118.615385 129.023425 
L 132.923077 129.023425 
L 132.923077 132.765755 
L 147.230769 132.765755 
L 147.230769 138.64302 
L 161.538462 138.64302 
L 161.538462 138.753063 
L 175.846154 138.753063 
L 175.846154 131.031692 
L 190.153846 131.031692 
L 190.153846 129.449979 
L 204.461538 129.449979 
L 204.461538 117.378913 
L 218.769231 117.378913 
L 218.769231 112.300917 
L 233.076923 112.300917 
L 233.076923 116.822937 
L 247.384615 116.822937 
L 247.384615 106.783147 
L 261.692308 106.783147 
L 261.692308 104.992597 
L 276 104.992597 
L 276 108.096739 
L 290.307692 108.096739 
L 290.307692 100.268455 
L 304.615385 100.268455 
L 304.615385 100.113703 
L 318.923077 100.113703 
L 318.923077 103.849485 
L 333.230769 103.849485 
L 333.230769 105.642107 
L 347.538462 105.642107 
L 347.538462 103.538083 
L 361.846154 103.538083 
L 361.846154 105.93842 
L 376.153846 105.93842 
L 376.153846 107.440325 
L 390.461538 107.440325 
L 390.461538 107.101829 
L 404.769231 107.101829 
L 404.769231 96.838695 
L 419.076923 96.838695 
L 419.076923 111.613839 
L 433.384615 111.613839 
L 433.384615 95.176498 
L 447.692308 95.176498 
L 447.692308 104.111236 
L 462 104.111236 
L 462 101.417888 
L 476.307692 101.417888 
L 476.307692 111.725399 
L 490.615385 111.725399 
L 490.615385 97.688333 
L 504.923077 97.688333 
L 504.923077 98.446431 
L 519.230769 98.446431 
L 519.230769 123.969767 
L 533.538462 123.969767 
L 533.538462 103.068689 
L 547.846154 103.068689 
L 547.846154 97.032296 
L 562.153846 97.032296 
L 562.153846 107.005952 
L 576.461538 107.005952 
L 576.461538 102.833824 
L 590.769231 102.833824 
L 590.769231 105.564852 
L 605.076923 105.564852 
L 605.076923 106.209018 
L 619.384615 106.209018 
L 619.384615 106.955488 
L 633.692308 106.955488 
L 633.692308 100.052483 
L 648 100.052483 
" style="fill:none;stroke:#0000ff;stroke-linecap:square;stroke-width:1.5;"/>
   </g>
   <g id="line2d_16">
    <defs>
     <path d="M 2 0 
L -2 -0 
" id="m04ac947af0" style="stroke:#0000ff;"/>
    </defs>
    <g clip-path="url(#pc640076a84)">
     <use style="fill:#0000ff;stroke:#0000ff;" x="111.461538" xlink:href="#m04ac947af0" y="150.030679"/>
     <use style="fill:#0000ff;stroke:#0000ff;" x="125.769231" xlink:href="#m04ac947af0" y="131.372959"/>
     <use style="fill:#0000ff;stroke:#0000ff;" x="140.076923" xlink:href="#m04ac947af0" y="135.148596"/>
     <use style="fill:#0000ff;stroke:#0000ff;" x="154.384615" xlink:href="#m04ac947af0" y="141.521813"/>
     <use style="fill:#0000ff;stroke:#0000ff;" x="168.692308" xlink:href="#m04ac947af0" y="142.0441"/>
     <use style="fill:#0000ff;stroke:#0000ff;" x="183" xlink:href="#m04ac947af0" y="134.200432"/>
     <use style="fill:#0000ff;stroke:#0000ff;" x="197.307692" xlink:href="#m04ac947af0" y="132.673886"/>
     <use style="fill:#0000ff;stroke:#0000ff;" x="211.615385" xlink:href="#m04ac947af0" y="120.624895"/>
     <use style="fill:#0000ff;stroke:#0000ff;" x="225.923077" xlink:href="#m04ac947af0" y="115.48676"/>
     <use style="fill:#0000ff;stroke:#0000ff;" x="240.230769" xlink:href="#m04ac947af0" y="120.556289"/>
     <use style="fill:#0000ff;stroke:#0000ff;" x="254.538462" xlink:href="#m04ac947af0" y="109.844102"/>
     <use style="fill:#0000ff;stroke:#0000ff;" x="268.846154" xlink:href="#m04ac947af0" y="108.173125"/>
     <use style="fill:#0000ff;stroke:#0000ff;" x="283.153846" xlink:href="#m04ac947af0" y="111.809483"/>
     <use style="fill:#0000ff;stroke:#0000ff;" x="297.461538" xlink:href="#m04ac947af0" y="103.506098"/>
     <use style="fill:#0000ff;stroke:#0000ff;" x="311.769231" xlink:href="#m04ac947af0" y="103.331103"/>
     <use style="fill:#0000ff;stroke:#0000ff;" x="326.076923" xlink:href="#m04ac947af0" y="108.122905"/>
     <use style="fill:#0000ff;stroke:#0000ff;" x="340.384615" xlink:href="#m04ac947af0" y="109.799896"/>
     <use style="fill:#0000ff;stroke:#0000ff;" x="354.692308" xlink:href="#m04ac947af0" y="107.936616"/>
     <use style="fill:#0000ff;stroke:#0000ff;" x="369" xlink:href="#m04ac947af0" y="110.990846"/>
     <use style="fill:#0000ff;stroke:#0000ff;" x="383.307692" xlink:href="#m04ac947af0" y="112.757327"/>
     <use style="fill:#0000ff;stroke:#0000ff;" x="397.615385" xlink:href="#m04ac947af0" y="113.240766"/>
     <use style="fill:#0000ff;stroke:#0000ff;" x="411.923077" xlink:href="#m04ac947af0" y="101.304278"/>
     <use style="fill:#0000ff;stroke:#0000ff;" x="426.230769" xlink:href="#m04ac947af0" y="119.150888"/>
     <use style="fill:#0000ff;stroke:#0000ff;" x="440.538462" xlink:href="#m04ac947af0" y="99.4128"/>
     <use style="fill:#0000ff;stroke:#0000ff;" x="454.846154" xlink:href="#m04ac947af0" y="111.166882"/>
     <use style="fill:#0000ff;stroke:#0000ff;" x="469.153846" xlink:href="#m04ac947af0" y="108.078543"/>
     <use style="fill:#0000ff;stroke:#0000ff;" x="483.461538" xlink:href="#m04ac947af0" y="119.663614"/>
     <use style="fill:#0000ff;stroke:#0000ff;" x="497.769231" xlink:href="#m04ac947af0" y="102.567399"/>
     <use style="fill:#0000ff;stroke:#0000ff;" x="512.076923" xlink:href="#m04ac947af0" y="105.902953"/>
     <use style="fill:#0000ff;stroke:#0000ff;" x="526.384615" xlink:href="#m04ac947af0" y="134.40353"/>
     <use style="fill:#0000ff;stroke:#0000ff;" x="540.692308" xlink:href="#m04ac947af0" y="110.493721"/>
     <use style="fill:#0000ff;stroke:#0000ff;" x="555" xlink:href="#m04ac947af0" y="103.478182"/>
     <use style="fill:#0000ff;stroke:#0000ff;" x="569.307692" xlink:href="#m04ac947af0" y="117.73192"/>
     <use style="fill:#0000ff;stroke:#0000ff;" x="583.615385" xlink:href="#m04ac947af0" y="110.145849"/>
     <use style="fill:#0000ff;stroke:#0000ff;" x="597.923077" xlink:href="#m04ac947af0" y="114.152336"/>
     <use style="fill:#0000ff;stroke:#0000ff;" x="612.230769" xlink:href="#m04ac947af0" y="116.474269"/>
     <use style="fill:#0000ff;stroke:#0000ff;" x="626.538462" xlink:href="#m04ac947af0" y="116.181903"/>
     <use style="fill:#0000ff;stroke:#0000ff;" x="640.846154" xlink:href="#m04ac947af0" y="112.053779"/>
    </g>
   </g>
   <g id="line2d_17">
    <g clip-path="url(#pc640076a84)">
     <use style="fill:#0000ff;stroke:#0000ff;" x="111.461538" xlink:href="#m04ac947af0" y="131.537653"/>
     <use style="fill:#0000ff;stroke:#0000ff;" x="125.769231" xlink:href="#m04ac947af0" y="126.67389"/>
     <use style="fill:#0000ff;stroke:#0000ff;" x="140.076923" xlink:href="#m04ac947af0" y="130.382915"/>
     <use style="fill:#0000ff;stroke:#0000ff;" x="154.384615" xlink:href="#m04ac947af0" y="135.764226"/>
     <use style="fill:#0000ff;stroke:#0000ff;" x="168.692308" xlink:href="#m04ac947af0" y="135.462025"/>
     <use style="fill:#0000ff;stroke:#0000ff;" x="183" xlink:href="#m04ac947af0" y="127.862952"/>
     <use style="fill:#0000ff;stroke:#0000ff;" x="197.307692" xlink:href="#m04ac947af0" y="126.226073"/>
     <use style="fill:#0000ff;stroke:#0000ff;" x="211.615385" xlink:href="#m04ac947af0" y="114.132932"/>
     <use style="fill:#0000ff;stroke:#0000ff;" x="225.923077" xlink:href="#m04ac947af0" y="109.115074"/>
     <use style="fill:#0000ff;stroke:#0000ff;" x="240.230769" xlink:href="#m04ac947af0" y="113.089585"/>
     <use style="fill:#0000ff;stroke:#0000ff;" x="254.538462" xlink:href="#m04ac947af0" y="103.722192"/>
     <use style="fill:#0000ff;stroke:#0000ff;" x="268.846154" xlink:href="#m04ac947af0" y="101.812069"/>
     <use style="fill:#0000ff;stroke:#0000ff;" x="283.153846" xlink:href="#m04ac947af0" y="104.383995"/>
     <use style="fill:#0000ff;stroke:#0000ff;" x="297.461538" xlink:href="#m04ac947af0" y="97.030812"/>
     <use style="fill:#0000ff;stroke:#0000ff;" x="311.769231" xlink:href="#m04ac947af0" y="96.896303"/>
     <use style="fill:#0000ff;stroke:#0000ff;" x="326.076923" xlink:href="#m04ac947af0" y="99.576065"/>
     <use style="fill:#0000ff;stroke:#0000ff;" x="340.384615" xlink:href="#m04ac947af0" y="101.484318"/>
     <use style="fill:#0000ff;stroke:#0000ff;" x="354.692308" xlink:href="#m04ac947af0" y="99.139549"/>
     <use style="fill:#0000ff;stroke:#0000ff;" x="369" xlink:href="#m04ac947af0" y="100.885994"/>
     <use style="fill:#0000ff;stroke:#0000ff;" x="383.307692" xlink:href="#m04ac947af0" y="102.123323"/>
     <use style="fill:#0000ff;stroke:#0000ff;" x="397.615385" xlink:href="#m04ac947af0" y="100.962892"/>
     <use style="fill:#0000ff;stroke:#0000ff;" x="411.923077" xlink:href="#m04ac947af0" y="92.373112"/>
     <use style="fill:#0000ff;stroke:#0000ff;" x="426.230769" xlink:href="#m04ac947af0" y="104.076789"/>
     <use style="fill:#0000ff;stroke:#0000ff;" x="440.538462" xlink:href="#m04ac947af0" y="90.940195"/>
     <use style="fill:#0000ff;stroke:#0000ff;" x="454.846154" xlink:href="#m04ac947af0" y="97.055589"/>
     <use style="fill:#0000ff;stroke:#0000ff;" x="469.153846" xlink:href="#m04ac947af0" y="94.757233"/>
     <use style="fill:#0000ff;stroke:#0000ff;" x="483.461538" xlink:href="#m04ac947af0" y="103.787185"/>
     <use style="fill:#0000ff;stroke:#0000ff;" x="497.769231" xlink:href="#m04ac947af0" y="92.809266"/>
     <use style="fill:#0000ff;stroke:#0000ff;" x="512.076923" xlink:href="#m04ac947af0" y="90.989908"/>
     <use style="fill:#0000ff;stroke:#0000ff;" x="526.384615" xlink:href="#m04ac947af0" y="113.536004"/>
     <use style="fill:#0000ff;stroke:#0000ff;" x="540.692308" xlink:href="#m04ac947af0" y="95.643656"/>
     <use style="fill:#0000ff;stroke:#0000ff;" x="555" xlink:href="#m04ac947af0" y="90.586411"/>
     <use style="fill:#0000ff;stroke:#0000ff;" x="569.307692" xlink:href="#m04ac947af0" y="96.279984"/>
     <use style="fill:#0000ff;stroke:#0000ff;" x="583.615385" xlink:href="#m04ac947af0" y="95.521798"/>
     <use style="fill:#0000ff;stroke:#0000ff;" x="597.923077" xlink:href="#m04ac947af0" y="96.977369"/>
     <use style="fill:#0000ff;stroke:#0000ff;" x="612.230769" xlink:href="#m04ac947af0" y="95.943767"/>
     <use style="fill:#0000ff;stroke:#0000ff;" x="626.538462" xlink:href="#m04ac947af0" y="97.729074"/>
     <use style="fill:#0000ff;stroke:#0000ff;" x="640.846154" xlink:href="#m04ac947af0" y="88.051188"/>
    </g>
   </g>
   <g id="patch_3">
    <path d="M 90 334.0008 
L 90 85.2768 
" style="fill:none;stroke:#000000;stroke-linecap:square;stroke-linejoin:miter;stroke-width:0.8;"/>
   </g>
   <g id="patch_4">
    <path d="M 648 334.0008 
L 648 85.2768 
" style="fill:none;stroke:#000000;stroke-linecap:square;stroke-linejoin:miter;stroke-width:0.8;"/>
   </g>
   <g id="patch_5">
    <path d="M 90 334.0008 
L 648 334.0008 
" style="fill:none;stroke:#000000;stroke-linecap:square;stroke-linejoin:miter;stroke-width:0.8;"/>
   </g>
   <g id="patch_6">
    <path d="M 90 85.2768 
L 648 85.2768 
" style="fill:none;stroke:#000000;stroke-linecap:square;stroke-linejoin:miter;stroke-width:0.8;"/>
   </g>
   <g id="legend_1">
    <g id="patch_7">
     <path d="M 266.025938 325.0008 
L 471.974063 325.0008 
Q 475.574063 325.0008 475.574063 321.4008 
L 475.574063 243.938925 
Q 475.574063 240.338925 471.974063 240.338925 
L 266.025938 240.338925 
Q 262.425938 240.338925 262.425938 243.938925 
L 262.425938 321.4008 
Q 262.425938 325.0008 266.025938 325.0008 
z
" style="fill:#ffffff;opacity:0.5;stroke:#cccccc;stroke-linejoin:miter;"/>
    </g>
    <g id="line2d_18">
     <path d="M 269.625938 254.916112 
L 305.625938 254.916112 
" style="fill:none;stroke:#008000;stroke-linecap:square;stroke-width:1.5;"/>
    </g>
    <g id="line2d_19"/>
    <g id="text_6">
     <!-- Efficiency -->
     <defs>
      <path d="M 9.8125 72.90625 
L 55.90625 72.90625 
L 55.90625 64.59375 
L 19.671875 64.59375 
L 19.671875 43.015625 
L 54.390625 43.015625 
L 54.390625 34.71875 
L 19.671875 34.71875 
L 19.671875 8.296875 
L 56.78125 8.296875 
L 56.78125 0 
L 9.8125 0 
z
" id="DejaVuSans-69"/>
      <path d="M 37.109375 75.984375 
L 37.109375 68.5 
L 28.515625 68.5 
Q 23.6875 68.5 21.796875 66.546875 
Q 19.921875 64.59375 19.921875 59.515625 
L 19.921875 54.6875 
L 34.71875 54.6875 
L 34.71875 47.703125 
L 19.921875 47.703125 
L 19.921875 0 
L 10.890625 0 
L 10.890625 47.703125 
L 2.296875 47.703125 
L 2.296875 54.6875 
L 10.890625 54.6875 
L 10.890625 58.5 
Q 10.890625 67.625 15.140625 71.796875 
Q 19.390625 75.984375 28.609375 75.984375 
z
" id="DejaVuSans-102"/>
      <path d="M 56.203125 29.59375 
L 56.203125 25.203125 
L 14.890625 25.203125 
Q 15.484375 15.921875 20.484375 11.0625 
Q 25.484375 6.203125 34.421875 6.203125 
Q 39.59375 6.203125 44.453125 7.46875 
Q 49.3125 8.734375 54.109375 11.28125 
L 54.109375 2.78125 
Q 49.265625 0.734375 44.1875 -0.34375 
Q 39.109375 -1.421875 33.890625 -1.421875 
Q 20.796875 -1.421875 13.15625 6.1875 
Q 5.515625 13.8125 5.515625 26.8125 
Q 5.515625 40.234375 12.765625 48.109375 
Q 20.015625 56 32.328125 56 
Q 43.359375 56 49.78125 48.890625 
Q 56.203125 41.796875 56.203125 29.59375 
z
M 47.21875 32.234375 
Q 47.125 39.59375 43.09375 43.984375 
Q 39.0625 48.390625 32.421875 48.390625 
Q 24.90625 48.390625 20.390625 44.140625 
Q 15.875 39.890625 15.1875 32.171875 
z
" id="DejaVuSans-101"/>
      <path d="M 32.171875 -5.078125 
Q 28.375 -14.84375 24.75 -17.8125 
Q 21.140625 -20.796875 15.09375 -20.796875 
L 7.90625 -20.796875 
L 7.90625 -13.28125 
L 13.1875 -13.28125 
Q 16.890625 -13.28125 18.9375 -11.515625 
Q 21 -9.765625 23.484375 -3.21875 
L 25.09375 0.875 
L 2.984375 54.6875 
L 12.5 54.6875 
L 29.59375 11.921875 
L 46.6875 54.6875 
L 56.203125 54.6875 
z
" id="DejaVuSans-121"/>
     </defs>
     <g transform="translate(320.025937 261.216113)scale(0.18 -0.18)">
      <use xlink:href="#DejaVuSans-69"/>
      <use x="63.183594" xlink:href="#DejaVuSans-102"/>
      <use x="98.388672" xlink:href="#DejaVuSans-102"/>
      <use x="133.59375" xlink:href="#DejaVuSans-105"/>
      <use x="161.376953" xlink:href="#DejaVuSans-99"/>
      <use x="216.357422" xlink:href="#DejaVuSans-105"/>
      <use x="244.140625" xlink:href="#DejaVuSans-101"/>
      <use x="305.664062" xlink:href="#DejaVuSans-110"/>
      <use x="369.042969" xlink:href="#DejaVuSans-99"/>
      <use x="424.023438" xlink:href="#DejaVuSans-121"/>
     </g>
    </g>
    <g id="line2d_20">
     <path d="M 269.625938 281.336737 
L 305.625938 281.336737 
" style="fill:none;stroke:#ff0000;stroke-linecap:square;stroke-width:1.5;"/>
    </g>
    <g id="line2d_21"/>
    <g id="text_7">
     <!-- Purity -->
     <defs>
      <path d="M 19.671875 64.796875 
L 19.671875 37.40625 
L 32.078125 37.40625 
Q 38.96875 37.40625 42.71875 40.96875 
Q 46.484375 44.53125 46.484375 51.125 
Q 46.484375 57.671875 42.71875 61.234375 
Q 38.96875 64.796875 32.078125 64.796875 
z
M 9.8125 72.90625 
L 32.078125 72.90625 
Q 44.34375 72.90625 50.609375 67.359375 
Q 56.890625 61.8125 56.890625 51.125 
Q 56.890625 40.328125 50.609375 34.8125 
Q 44.34375 29.296875 32.078125 29.296875 
L 19.671875 29.296875 
L 19.671875 0 
L 9.8125 0 
z
" id="DejaVuSans-80"/>
      <path d="M 8.5 21.578125 
L 8.5 54.6875 
L 17.484375 54.6875 
L 17.484375 21.921875 
Q 17.484375 14.15625 20.5 10.265625 
Q 23.53125 6.390625 29.59375 6.390625 
Q 36.859375 6.390625 41.078125 11.03125 
Q 45.3125 15.671875 45.3125 23.6875 
L 45.3125 54.6875 
L 54.296875 54.6875 
L 54.296875 0 
L 45.3125 0 
L 45.3125 8.40625 
Q 42.046875 3.421875 37.71875 1 
Q 33.40625 -1.421875 27.6875 -1.421875 
Q 18.265625 -1.421875 13.375 4.4375 
Q 8.5 10.296875 8.5 21.578125 
z
M 31.109375 56 
z
" id="DejaVuSans-117"/>
     </defs>
     <g transform="translate(320.025937 287.636737)scale(0.18 -0.18)">
      <use xlink:href="#DejaVuSans-80"/>
      <use x="60.287109" xlink:href="#DejaVuSans-117"/>
      <use x="123.666016" xlink:href="#DejaVuSans-114"/>
      <use x="164.779297" xlink:href="#DejaVuSans-105"/>
      <use x="192.5625" xlink:href="#DejaVuSans-116"/>
      <use x="231.771484" xlink:href="#DejaVuSans-121"/>
     </g>
    </g>
    <g id="line2d_22">
     <path d="M 269.625938 307.757362 
L 305.625938 307.757362 
" style="fill:none;stroke:#0000ff;stroke-linecap:square;stroke-width:1.5;"/>
    </g>
    <g id="line2d_23"/>
    <g id="text_8">
     <!-- Purity*Efficiency -->
     <defs>
      <path d="M 47.015625 60.890625 
L 29.5 51.421875 
L 47.015625 41.890625 
L 44.1875 37.109375 
L 27.78125 47.015625 
L 27.78125 28.609375 
L 22.21875 28.609375 
L 22.21875 47.015625 
L 5.8125 37.109375 
L 2.984375 41.890625 
L 20.515625 51.421875 
L 2.984375 60.890625 
L 5.8125 65.71875 
L 22.21875 55.8125 
L 22.21875 74.21875 
L 27.78125 74.21875 
L 27.78125 55.8125 
L 44.1875 65.71875 
z
" id="DejaVuSans-42"/>
     </defs>
     <g transform="translate(320.025937 314.057363)scale(0.18 -0.18)">
      <use xlink:href="#DejaVuSans-80"/>
      <use x="60.287109" xlink:href="#DejaVuSans-117"/>
      <use x="123.666016" xlink:href="#DejaVuSans-114"/>
      <use x="164.779297" xlink:href="#DejaVuSans-105"/>
      <use x="192.5625" xlink:href="#DejaVuSans-116"/>
      <use x="231.771484" xlink:href="#DejaVuSans-121"/>
      <use x="290.951172" xlink:href="#DejaVuSans-42"/>
      <use x="340.951172" xlink:href="#DejaVuSans-69"/>
      <use x="404.134766" xlink:href="#DejaVuSans-102"/>
      <use x="439.339844" xlink:href="#DejaVuSans-102"/>
      <use x="474.544922" xlink:href="#DejaVuSans-105"/>
      <use x="502.328125" xlink:href="#DejaVuSans-99"/>
      <use x="557.308594" xlink:href="#DejaVuSans-105"/>
      <use x="585.091797" xlink:href="#DejaVuSans-101"/>
      <use x="646.615234" xlink:href="#DejaVuSans-110"/>
      <use x="709.994141" xlink:href="#DejaVuSans-99"/>
      <use x="764.974609" xlink:href="#DejaVuSans-121"/>
     </g>
    </g>
   </g>
  </g>
  <g id="axes_2">
   <g id="patch_8">
    <path d="M 90 632.4696 
L 648 632.4696 
L 648 383.7456 
L 90 383.7456 
z
" style="fill:#ffffff;"/>
   </g>
   <g id="patch_9">
    <path clip-path="url(#paa30bc77ea)" d="M 90 72434.83881 
L 90 72434.83881 
L 104.307692 72434.83881 
L 104.307692 479.466402 
L 118.615385 479.466402 
L 118.615385 397.040463 
L 132.923077 397.040463 
L 132.923077 395.051236 
L 147.230769 395.051236 
L 147.230769 403.935069 
L 161.538462 403.935069 
L 161.538462 410.426846 
L 175.846154 410.426846 
L 175.846154 411.421713 
L 190.153846 411.421713 
L 190.153846 413.71286 
L 204.461538 413.71286 
L 204.461538 422.391064 
L 218.769231 422.391064 
L 218.769231 425.819328 
L 233.076923 425.819328 
L 233.076923 431.115987 
L 247.384615 431.115987 
L 247.384615 431.257111 
L 261.692308 431.257111 
L 261.692308 436.064806 
L 276 436.064806 
L 276 441.553707 
L 290.307692 441.553707 
L 290.307692 446.790681 
L 304.615385 446.790681 
L 304.615385 445.873312 
L 318.923077 445.873312 
L 318.923077 457.354575 
L 333.230769 457.354575 
L 333.230769 451.695506 
L 347.538462 451.695506 
L 347.538462 458.519073 
L 361.846154 458.519073 
L 361.846154 462.683688 
L 376.153846 462.683688 
L 376.153846 467.491383 
L 390.461538 467.491383 
L 390.461538 474.84888 
L 404.769231 474.84888 
L 404.769231 475.719307 
L 419.076923 475.719307 
L 419.076923 480.822627 
L 433.384615 480.822627 
L 433.384615 478.166702 
L 447.692308 478.166702 
L 447.692308 487.782092 
L 462 487.782092 
L 462 488.218299 
L 476.307692 488.218299 
L 476.307692 486.095828 
L 490.615385 486.095828 
L 490.615385 478.166702 
L 504.923077 478.166702 
L 504.923077 503.141588 
L 519.230769 503.141588 
L 519.230769 491.946706 
L 533.538462 491.946706 
L 533.538462 492.44573 
L 547.846154 492.44573 
L 547.846154 497.337377 
L 562.153846 497.337377 
L 562.153846 507.713898 
L 576.461538 507.713898 
L 576.461538 491.946706 
L 590.769231 491.946706 
L 590.769231 497.337377 
L 605.076923 497.337377 
L 605.076923 508.545635 
L 619.384615 508.545635 
L 619.384615 499.784772 
L 633.692308 499.784772 
L 633.692308 524.759658 
L 648 524.759658 
L 648 72434.83881 
z
" style="fill:#1f77b4;opacity:0.2;"/>
   </g>
   <g id="matplotlib.axis_3">
    <g id="xtick_6">
     <g id="line2d_24">
      <g>
       <use style="stroke:#000000;stroke-width:0.8;" x="90" xlink:href="#m20c2e23f86" y="632.4696"/>
      </g>
     </g>
     <g id="text_9">
      <!-- 0 -->
      <g transform="translate(81.7542 659.16475)scale(0.2592 -0.2592)">
       <use xlink:href="#DejaVuSans-48"/>
      </g>
     </g>
    </g>
    <g id="xtick_7">
     <g id="line2d_25">
      <g>
       <use style="stroke:#000000;stroke-width:0.8;" x="229.5" xlink:href="#m20c2e23f86" y="632.4696"/>
      </g>
     </g>
     <g id="text_10">
      <!-- 100 -->
      <g transform="translate(204.7626 659.16475)scale(0.2592 -0.2592)">
       <use xlink:href="#DejaVuSans-49"/>
       <use x="63.623047" xlink:href="#DejaVuSans-48"/>
       <use x="127.246094" xlink:href="#DejaVuSans-48"/>
      </g>
     </g>
    </g>
    <g id="xtick_8">
     <g id="line2d_26">
      <g>
       <use style="stroke:#000000;stroke-width:0.8;" x="369" xlink:href="#m20c2e23f86" y="632.4696"/>
      </g>
     </g>
     <g id="text_11">
      <!-- 200 -->
      <defs>
       <path d="M 19.1875 8.296875 
L 53.609375 8.296875 
L 53.609375 0 
L 7.328125 0 
L 7.328125 8.296875 
Q 12.9375 14.109375 22.625 23.890625 
Q 32.328125 33.6875 34.8125 36.53125 
Q 39.546875 41.84375 41.421875 45.53125 
Q 43.3125 49.21875 43.3125 52.78125 
Q 43.3125 58.59375 39.234375 62.25 
Q 35.15625 65.921875 28.609375 65.921875 
Q 23.96875 65.921875 18.8125 64.3125 
Q 13.671875 62.703125 7.8125 59.421875 
L 7.8125 69.390625 
Q 13.765625 71.78125 18.9375 73 
Q 24.125 74.21875 28.421875 74.21875 
Q 39.75 74.21875 46.484375 68.546875 
Q 53.21875 62.890625 53.21875 53.421875 
Q 53.21875 48.921875 51.53125 44.890625 
Q 49.859375 40.875 45.40625 35.40625 
Q 44.1875 33.984375 37.640625 27.21875 
Q 31.109375 20.453125 19.1875 8.296875 
z
" id="DejaVuSans-50"/>
      </defs>
      <g transform="translate(344.2626 659.16475)scale(0.2592 -0.2592)">
       <use xlink:href="#DejaVuSans-50"/>
       <use x="63.623047" xlink:href="#DejaVuSans-48"/>
       <use x="127.246094" xlink:href="#DejaVuSans-48"/>
      </g>
     </g>
    </g>
    <g id="xtick_9">
     <g id="line2d_27">
      <g>
       <use style="stroke:#000000;stroke-width:0.8;" x="508.5" xlink:href="#m20c2e23f86" y="632.4696"/>
      </g>
     </g>
     <g id="text_12">
      <!-- 300 -->
      <defs>
       <path d="M 40.578125 39.3125 
Q 47.65625 37.796875 51.625 33 
Q 55.609375 28.21875 55.609375 21.1875 
Q 55.609375 10.40625 48.1875 4.484375 
Q 40.765625 -1.421875 27.09375 -1.421875 
Q 22.515625 -1.421875 17.65625 -0.515625 
Q 12.796875 0.390625 7.625 2.203125 
L 7.625 11.71875 
Q 11.71875 9.328125 16.59375 8.109375 
Q 21.484375 6.890625 26.8125 6.890625 
Q 36.078125 6.890625 40.9375 10.546875 
Q 45.796875 14.203125 45.796875 21.1875 
Q 45.796875 27.640625 41.28125 31.265625 
Q 36.765625 34.90625 28.71875 34.90625 
L 20.21875 34.90625 
L 20.21875 43.015625 
L 29.109375 43.015625 
Q 36.375 43.015625 40.234375 45.921875 
Q 44.09375 48.828125 44.09375 54.296875 
Q 44.09375 59.90625 40.109375 62.90625 
Q 36.140625 65.921875 28.71875 65.921875 
Q 24.65625 65.921875 20.015625 65.03125 
Q 15.375 64.15625 9.8125 62.3125 
L 9.8125 71.09375 
Q 15.4375 72.65625 20.34375 73.4375 
Q 25.25 74.21875 29.59375 74.21875 
Q 40.828125 74.21875 47.359375 69.109375 
Q 53.90625 64.015625 53.90625 55.328125 
Q 53.90625 49.265625 50.4375 45.09375 
Q 46.96875 40.921875 40.578125 39.3125 
z
" id="DejaVuSans-51"/>
      </defs>
      <g transform="translate(483.7626 659.16475)scale(0.2592 -0.2592)">
       <use xlink:href="#DejaVuSans-51"/>
       <use x="63.623047" xlink:href="#DejaVuSans-48"/>
       <use x="127.246094" xlink:href="#DejaVuSans-48"/>
      </g>
     </g>
    </g>
    <g id="xtick_10">
     <g id="line2d_28">
      <g>
       <use style="stroke:#000000;stroke-width:0.8;" x="648" xlink:href="#m20c2e23f86" y="632.4696"/>
      </g>
     </g>
     <g id="text_13">
      <!-- 400 -->
      <defs>
       <path d="M 37.796875 64.3125 
L 12.890625 25.390625 
L 37.796875 25.390625 
z
M 35.203125 72.90625 
L 47.609375 72.90625 
L 47.609375 25.390625 
L 58.015625 25.390625 
L 58.015625 17.1875 
L 47.609375 17.1875 
L 47.609375 0 
L 37.796875 0 
L 37.796875 17.1875 
L 4.890625 17.1875 
L 4.890625 26.703125 
z
" id="DejaVuSans-52"/>
      </defs>
      <g transform="translate(623.2626 659.16475)scale(0.2592 -0.2592)">
       <use xlink:href="#DejaVuSans-52"/>
       <use x="63.623047" xlink:href="#DejaVuSans-48"/>
       <use x="127.246094" xlink:href="#DejaVuSans-48"/>
      </g>
     </g>
    </g>
    <g id="text_14">
     <!-- nHitsW -->
     <g transform="translate(322.79355 688.25045)scale(0.2592 -0.2592)">
      <use xlink:href="#DejaVuSans-110"/>
      <use x="63.378906" xlink:href="#DejaVuSans-72"/>
      <use x="138.574219" xlink:href="#DejaVuSans-105"/>
      <use x="166.357422" xlink:href="#DejaVuSans-116"/>
      <use x="205.566406" xlink:href="#DejaVuSans-115"/>
      <use x="257.666016" xlink:href="#DejaVuSans-87"/>
     </g>
    </g>
   </g>
   <g id="matplotlib.axis_4">
    <g id="ytick_4">
     <g id="line2d_29">
      <g>
       <use style="stroke:#000000;stroke-width:0.8;" x="90" xlink:href="#m3b3a5234ee" y="549.350289"/>
      </g>
     </g>
     <g id="text_15">
      <!-- $\mathdefault{10^{1}}$ -->
      <g transform="translate(37.3808 559.197864)scale(0.2592 -0.2592)">
       <use transform="translate(0 0.684375)" xlink:href="#DejaVuSans-49"/>
       <use transform="translate(63.623047 0.684375)" xlink:href="#DejaVuSans-48"/>
       <use transform="translate(128.203125 38.965625)scale(0.7)" xlink:href="#DejaVuSans-49"/>
      </g>
     </g>
    </g>
    <g id="ytick_5">
     <g id="line2d_30">
      <g>
       <use style="stroke:#000000;stroke-width:0.8;" x="90" xlink:href="#m3b3a5234ee" y="405.722939"/>
      </g>
     </g>
     <g id="text_16">
      <!-- $\mathdefault{10^{3}}$ -->
      <g transform="translate(37.3808 415.570514)scale(0.2592 -0.2592)">
       <use transform="translate(0 0.765625)" xlink:href="#DejaVuSans-49"/>
       <use transform="translate(63.623047 0.765625)" xlink:href="#DejaVuSans-48"/>
       <use transform="translate(128.203125 39.046875)scale(0.7)" xlink:href="#DejaVuSans-51"/>
      </g>
     </g>
    </g>
    <g id="text_17">
     <!-- Count -->
     <defs>
      <path d="M 64.40625 67.28125 
L 64.40625 56.890625 
Q 59.421875 61.53125 53.78125 63.8125 
Q 48.140625 66.109375 41.796875 66.109375 
Q 29.296875 66.109375 22.65625 58.46875 
Q 16.015625 50.828125 16.015625 36.375 
Q 16.015625 21.96875 22.65625 14.328125 
Q 29.296875 6.6875 41.796875 6.6875 
Q 48.140625 6.6875 53.78125 8.984375 
Q 59.421875 11.28125 64.40625 15.921875 
L 64.40625 5.609375 
Q 59.234375 2.09375 53.4375 0.328125 
Q 47.65625 -1.421875 41.21875 -1.421875 
Q 24.65625 -1.421875 15.125 8.703125 
Q 5.609375 18.84375 5.609375 36.375 
Q 5.609375 53.953125 15.125 64.078125 
Q 24.65625 74.21875 41.21875 74.21875 
Q 47.75 74.21875 53.53125 72.484375 
Q 59.328125 70.75 64.40625 67.28125 
z
" id="DejaVuSans-67"/>
     </defs>
     <g transform="translate(27.99025 546.59475)rotate(-90)scale(0.2592 -0.2592)">
      <use xlink:href="#DejaVuSans-67"/>
      <use x="69.824219" xlink:href="#DejaVuSans-111"/>
      <use x="131.005859" xlink:href="#DejaVuSans-117"/>
      <use x="194.384766" xlink:href="#DejaVuSans-110"/>
      <use x="257.763672" xlink:href="#DejaVuSans-116"/>
     </g>
    </g>
   </g>
   <g id="line2d_31">
    <path clip-path="url(#paa30bc77ea)" d="M 104.307692 711.64 
L 104.307692 479.466402 
L 118.615385 479.466402 
L 118.615385 397.040463 
L 132.923077 397.040463 
L 132.923077 395.051236 
L 147.230769 395.051236 
L 147.230769 403.935069 
L 161.538462 403.935069 
L 161.538462 410.426846 
L 175.846154 410.426846 
L 175.846154 411.421713 
L 190.153846 411.421713 
L 190.153846 413.71286 
L 204.461538 413.71286 
L 204.461538 422.391064 
L 218.769231 422.391064 
L 218.769231 425.819328 
L 233.076923 425.819328 
L 233.076923 431.115987 
L 247.384615 431.115987 
L 247.384615 431.257111 
L 261.692308 431.257111 
L 261.692308 436.064806 
L 276 436.064806 
L 276 441.553707 
L 290.307692 441.553707 
L 290.307692 446.790681 
L 304.615385 446.790681 
L 304.615385 445.873312 
L 318.923077 445.873312 
L 318.923077 457.354575 
L 333.230769 457.354575 
L 333.230769 451.695506 
L 347.538462 451.695506 
L 347.538462 458.519073 
L 361.846154 458.519073 
L 361.846154 462.683688 
L 376.153846 462.683688 
L 376.153846 467.491383 
L 390.461538 467.491383 
L 390.461538 474.84888 
L 404.769231 474.84888 
L 404.769231 475.719307 
L 419.076923 475.719307 
L 419.076923 480.822627 
L 433.384615 480.822627 
L 433.384615 478.166702 
L 447.692308 478.166702 
L 447.692308 487.782092 
L 462 487.782092 
L 462 488.218299 
L 476.307692 488.218299 
L 476.307692 486.095828 
L 490.615385 486.095828 
L 490.615385 478.166702 
L 504.923077 478.166702 
L 504.923077 503.141588 
L 519.230769 503.141588 
L 519.230769 491.946706 
L 533.538462 491.946706 
L 533.538462 492.44573 
L 547.846154 492.44573 
L 547.846154 497.337377 
L 562.153846 497.337377 
L 562.153846 507.713898 
L 576.461538 507.713898 
L 576.461538 491.946706 
L 590.769231 491.946706 
L 590.769231 497.337377 
L 605.076923 497.337377 
L 605.076923 508.545635 
L 619.384615 508.545635 
L 619.384615 499.784772 
L 633.692308 499.784772 
L 633.692308 524.759658 
L 648 524.759658 
" style="fill:none;stroke:#1f77b4;stroke-linecap:square;stroke-width:1.5;"/>
   </g>
   <g id="line2d_32">
    <path clip-path="url(#paa30bc77ea)" d="M 104.307692 711.64 
L 104.307692 481.523517 
L 118.615385 481.523517 
L 118.615385 399.368113 
L 132.923077 399.368113 
L 132.923077 398.023797 
L 147.230769 398.023797 
L 147.230769 407.487271 
L 161.538462 407.487271 
L 161.538462 414.903867 
L 175.846154 414.903867 
L 175.846154 415.282932 
L 190.153846 415.282932 
L 190.153846 417.160471 
L 204.461538 417.160471 
L 204.461538 424.767938 
L 218.769231 424.767938 
L 218.769231 427.971097 
L 233.076923 427.971097 
L 233.076923 433.759399 
L 247.384615 433.759399 
L 247.384615 432.336398 
L 261.692308 432.336398 
L 261.692308 437.156297 
L 276 437.156297 
L 276 442.655173 
L 290.307692 442.655173 
L 290.307692 447.259687 
L 304.615385 447.259687 
L 304.615385 446.790681 
L 318.923077 446.790681 
L 318.923077 457.848331 
L 333.230769 457.848331 
L 333.230769 452.804539 
L 347.538462 452.804539 
L 347.538462 459.553033 
L 361.846154 459.553033 
L 361.846154 464.273244 
L 376.153846 464.273244 
L 376.153846 467.491383 
L 390.461538 467.491383 
L 390.461538 475.426457 
L 404.769231 475.426457 
L 404.769231 476.014933 
L 419.076923 476.014933 
L 419.076923 482.240521 
L 433.384615 482.240521 
L 433.384615 478.486584 
L 447.692308 478.486584 
L 447.692308 488.218299 
L 462 488.218299 
L 462 489.109453 
L 476.307692 489.109453 
L 476.307692 486.508924 
L 490.615385 486.508924 
L 490.615385 478.809782 
L 504.923077 478.809782 
L 504.923077 503.141588 
L 519.230769 503.141588 
L 519.230769 493.468388 
L 533.538462 493.468388 
L 533.538462 492.952867 
L 547.846154 492.952867 
L 547.846154 498.537074 
L 562.153846 498.537074 
L 562.153846 509.400162 
L 576.461538 509.400162 
L 576.461538 492.44573 
L 590.769231 492.44573 
L 590.769231 497.931457 
L 605.076923 497.931457 
L 605.076923 508.545635 
L 619.384615 508.545635 
L 619.384615 500.427852 
L 633.692308 500.427852 
L 633.692308 526.210537 
L 648 526.210537 
" style="fill:none;stroke:#ff7f0e;stroke-linecap:square;stroke-width:1.5;"/>
   </g>
   <g id="line2d_33">
    <path clip-path="url(#paa30bc77ea)" d="M 104.307692 711.64 
L 104.307692 532.800905 
L 118.615385 532.800905 
L 118.615385 466.820641 
L 132.923077 466.820641 
L 132.923077 466.164021 
L 147.230769 466.164021 
L 147.230769 472.374503 
L 161.538462 472.374503 
L 161.538462 489.109453 
L 175.846154 489.109453 
L 175.846154 497.337377 
L 190.153846 497.337377 
L 190.153846 496.754401 
L 204.461538 496.754401 
L 204.461538 516.143789 
L 218.769231 516.143789 
L 218.769231 531.018232 
L 233.076923 531.018232 
L 233.076923 532.800905 
L 247.384615 532.800905 
L 247.384615 527.732219 
L 261.692308 527.732219 
L 261.692308 538.856298 
L 276 538.856298 
L 276 534.691683 
L 290.307692 534.691683 
L 290.307692 549.350289 
L 304.615385 549.350289 
L 304.615385 565.282063 
L 318.923077 565.282063 
L 318.923077 549.350289 
L 333.230769 549.350289 
L 333.230769 552.636302 
L 347.538462 552.636302 
L 347.538462 565.282063 
L 361.846154 565.282063 
L 361.846154 577.927823 
L 376.153846 577.927823 
L 376.153846 543.663993 
L 390.461538 543.663993 
L 390.461538 560.474368 
L 404.769231 560.474368 
L 404.769231 586.900133 
L 419.076923 586.900133 
L 419.076923 570.968359 
L 433.384615 570.968359 
L 433.384615 599.545893 
L 447.692308 599.545893 
L 447.692308 577.927823 
L 462 577.927823 
L 462 599.545893 
L 476.307692 599.545893 
L 476.307692 560.474368 
L 490.615385 560.474368 
L 490.615385 599.545893 
L 504.923077 599.545893 
L 504.923077 599.545893 
L 519.230769 599.545893 
L 519.230769 560.474368 
L 533.538462 560.474368 
L 533.538462 586.900133 
L 547.846154 586.900133 
L 547.846154 711.64 
M 562.153846 711.64 
L 562.153846 621.163964 
L 576.461538 621.163964 
L 576.461538 586.900133 
L 590.769231 586.900133 
L 590.769231 586.900133 
L 605.076923 586.900133 
L 605.076923 586.900133 
L 619.384615 586.900133 
L 619.384615 586.900133 
L 633.692308 586.900133 
L 633.692308 711.64 
" style="fill:none;stroke:#2ca02c;stroke-linecap:square;stroke-width:1.5;"/>
   </g>
   <g id="patch_10">
    <path d="M 90 632.4696 
L 90 383.7456 
" style="fill:none;stroke:#000000;stroke-linecap:square;stroke-linejoin:miter;stroke-width:0.8;"/>
   </g>
   <g id="patch_11">
    <path d="M 648 632.4696 
L 648 383.7456 
" style="fill:none;stroke:#000000;stroke-linecap:square;stroke-linejoin:miter;stroke-width:0.8;"/>
   </g>
   <g id="patch_12">
    <path d="M 90 632.4696 
L 648 632.4696 
" style="fill:none;stroke:#000000;stroke-linecap:square;stroke-linejoin:miter;stroke-width:0.8;"/>
   </g>
   <g id="patch_13">
    <path d="M 90 383.7456 
L 648 383.7456 
" style="fill:none;stroke:#000000;stroke-linecap:square;stroke-linejoin:miter;stroke-width:0.8;"/>
   </g>
   <g id="legend_2">
    <g id="patch_14">
     <path d="M 437.633438 477.407475 
L 635.4 477.407475 
Q 639 477.407475 639 473.807475 
L 639 396.3456 
Q 639 392.7456 635.4 392.7456 
L 437.633438 392.7456 
Q 434.033437 392.7456 434.033437 396.3456 
L 434.033437 473.807475 
Q 434.033437 477.407475 437.633438 477.407475 
z
" style="fill:#ffffff;opacity:0.5;stroke:#cccccc;stroke-linejoin:miter;"/>
    </g>
    <g id="line2d_34">
     <path d="M 441.233437 407.322787 
L 477.233437 407.322787 
" style="fill:none;stroke:#1f77b4;stroke-linecap:square;stroke-width:1.5;"/>
    </g>
    <g id="line2d_35"/>
    <g id="text_18">
     <!--  shower -->
     <defs>
      <path id="DejaVuSans-32"/>
      <path d="M 54.890625 33.015625 
L 54.890625 0 
L 45.90625 0 
L 45.90625 32.71875 
Q 45.90625 40.484375 42.875 44.328125 
Q 39.84375 48.1875 33.796875 48.1875 
Q 26.515625 48.1875 22.3125 43.546875 
Q 18.109375 38.921875 18.109375 30.90625 
L 18.109375 0 
L 9.078125 0 
L 9.078125 75.984375 
L 18.109375 75.984375 
L 18.109375 46.1875 
Q 21.34375 51.125 25.703125 53.5625 
Q 30.078125 56 35.796875 56 
Q 45.21875 56 50.046875 50.171875 
Q 54.890625 44.34375 54.890625 33.015625 
z
" id="DejaVuSans-104"/>
      <path d="M 4.203125 54.6875 
L 13.1875 54.6875 
L 24.421875 12.015625 
L 35.59375 54.6875 
L 46.1875 54.6875 
L 57.421875 12.015625 
L 68.609375 54.6875 
L 77.59375 54.6875 
L 63.28125 0 
L 52.6875 0 
L 40.921875 44.828125 
L 29.109375 0 
L 18.5 0 
z
" id="DejaVuSans-119"/>
     </defs>
     <g transform="translate(491.633437 413.622787)scale(0.18 -0.18)">
      <use xlink:href="#DejaVuSans-32"/>
      <use x="31.787109" xlink:href="#DejaVuSans-115"/>
      <use x="83.886719" xlink:href="#DejaVuSans-104"/>
      <use x="147.265625" xlink:href="#DejaVuSans-111"/>
      <use x="208.447266" xlink:href="#DejaVuSans-119"/>
      <use x="290.234375" xlink:href="#DejaVuSans-101"/>
      <use x="351.757812" xlink:href="#DejaVuSans-114"/>
     </g>
    </g>
    <g id="line2d_36">
     <path d="M 441.233437 433.743412 
L 477.233437 433.743412 
" style="fill:none;stroke:#ff7f0e;stroke-linecap:square;stroke-width:1.5;"/>
    </g>
    <g id="line2d_37"/>
    <g id="text_19">
     <!-- correct  shower -->
     <g transform="translate(491.633437 440.043412)scale(0.18 -0.18)">
      <use xlink:href="#DejaVuSans-99"/>
      <use x="54.980469" xlink:href="#DejaVuSans-111"/>
      <use x="116.162109" xlink:href="#DejaVuSans-114"/>
      <use x="157.259766" xlink:href="#DejaVuSans-114"/>
      <use x="198.341797" xlink:href="#DejaVuSans-101"/>
      <use x="259.865234" xlink:href="#DejaVuSans-99"/>
      <use x="314.845703" xlink:href="#DejaVuSans-116"/>
      <use x="354.054688" xlink:href="#DejaVuSans-32"/>
      <use x="385.841797" xlink:href="#DejaVuSans-32"/>
      <use x="417.628906" xlink:href="#DejaVuSans-115"/>
      <use x="469.728516" xlink:href="#DejaVuSans-104"/>
      <use x="533.107422" xlink:href="#DejaVuSans-111"/>
      <use x="594.289062" xlink:href="#DejaVuSans-119"/>
      <use x="676.076172" xlink:href="#DejaVuSans-101"/>
      <use x="737.599609" xlink:href="#DejaVuSans-114"/>
     </g>
    </g>
    <g id="line2d_38">
     <path d="M 441.233437 460.164037 
L 477.233437 460.164037 
" style="fill:none;stroke:#2ca02c;stroke-linecap:square;stroke-width:1.5;"/>
    </g>
    <g id="line2d_39"/>
    <g id="text_20">
     <!-- incorrect  track -->
     <defs>
      <path d="M 9.078125 75.984375 
L 18.109375 75.984375 
L 18.109375 31.109375 
L 44.921875 54.6875 
L 56.390625 54.6875 
L 27.390625 29.109375 
L 57.625 0 
L 45.90625 0 
L 18.109375 26.703125 
L 18.109375 0 
L 9.078125 0 
z
" id="DejaVuSans-107"/>
     </defs>
     <g transform="translate(491.633437 466.464037)scale(0.18 -0.18)">
      <use xlink:href="#DejaVuSans-105"/>
      <use x="27.783203" xlink:href="#DejaVuSans-110"/>
      <use x="91.162109" xlink:href="#DejaVuSans-99"/>
      <use x="146.142578" xlink:href="#DejaVuSans-111"/>
      <use x="207.324219" xlink:href="#DejaVuSans-114"/>
      <use x="248.421875" xlink:href="#DejaVuSans-114"/>
      <use x="289.503906" xlink:href="#DejaVuSans-101"/>
      <use x="351.027344" xlink:href="#DejaVuSans-99"/>
      <use x="406.007812" xlink:href="#DejaVuSans-116"/>
      <use x="445.216797" xlink:href="#DejaVuSans-32"/>
      <use x="477.003906" xlink:href="#DejaVuSans-32"/>
      <use x="508.791016" xlink:href="#DejaVuSans-116"/>
      <use x="548" xlink:href="#DejaVuSans-114"/>
      <use x="589.113281" xlink:href="#DejaVuSans-97"/>
      <use x="650.392578" xlink:href="#DejaVuSans-99"/>
      <use x="705.373047" xlink:href="#DejaVuSans-107"/>
     </g>
    </g>
   </g>
  </g>
 </g>
 <defs>
  <clipPath id="pc640076a84">
   <rect height="248.724" width="558" x="90" y="85.2768"/>
  </clipPath>
  <clipPath id="paa30bc77ea">
   <rect height="248.724" width="558" x="90" y="383.7456"/>
  </clipPath>
 </defs>
</svg>
