<?xml version="1.0" encoding="utf-8" standalone="no"?>
<!DOCTYPE svg PUBLIC "-//W3C//DTD SVG 1.1//EN"
  "http://www.w3.org/Graphics/SVG/1.1/DTD/svg11.dtd">
<!-- Created with matplotlib (https://matplotlib.org/) -->
<svg height="576pt" version="1.1" viewBox="0 0 864 576" width="864pt" xmlns="http://www.w3.org/2000/svg" xmlns:xlink="http://www.w3.org/1999/xlink">
 <defs>
  <style type="text/css">
*{stroke-linecap:butt;stroke-linejoin:round;}
  </style>
 </defs>
 <g id="figure_1">
  <g id="patch_1">
   <path d="M 0 576 
L 864 576 
L 864 0 
L 0 0 
z
" style="fill:#ffffff;"/>
  </g>
  <g id="axes_1">
   <g id="patch_2">
    <path d="M 137.59 548.12 
L 853.2 548.12 
L 853.2 10.8 
L 137.59 10.8 
z
" style="fill:#ffffff;"/>
   </g>
   <g id="matplotlib.axis_1">
    <g id="xtick_1">
     <g id="line2d_1">
      <defs>
       <path d="M 0 0 
L 0 3.5 
" id="mf06bc35cd4" style="stroke:#000000;stroke-width:0.8;"/>
      </defs>
      <g>
       <use style="stroke:#000000;stroke-width:0.8;" x="216.960764" xlink:href="#mf06bc35cd4" y="548.12"/>
      </g>
     </g>
     <g id="text_1">
      <!-- 0.00 -->
      <defs>
       <path d="M 31.78125 66.40625 
Q 24.171875 66.40625 20.328125 58.90625 
Q 16.5 51.421875 16.5 36.375 
Q 16.5 21.390625 20.328125 13.890625 
Q 24.171875 6.390625 31.78125 6.390625 
Q 39.453125 6.390625 43.28125 13.890625 
Q 47.125 21.390625 47.125 36.375 
Q 47.125 51.421875 43.28125 58.90625 
Q 39.453125 66.40625 31.78125 66.40625 
z
M 31.78125 74.21875 
Q 44.046875 74.21875 50.515625 64.515625 
Q 56.984375 54.828125 56.984375 36.375 
Q 56.984375 17.96875 50.515625 8.265625 
Q 44.046875 -1.421875 31.78125 -1.421875 
Q 19.53125 -1.421875 13.0625 8.265625 
Q 6.59375 17.96875 6.59375 36.375 
Q 6.59375 54.828125 13.0625 64.515625 
Q 19.53125 74.21875 31.78125 74.21875 
z
" id="DejaVuSans-48"/>
       <path d="M 10.6875 12.40625 
L 21 12.40625 
L 21 0 
L 10.6875 0 
z
" id="DejaVuSans-46"/>
      </defs>
      <g transform="translate(205.827952 562.718437)scale(0.1 -0.1)">
       <use xlink:href="#DejaVuSans-48"/>
       <use x="63.623047" xlink:href="#DejaVuSans-46"/>
       <use x="95.410156" xlink:href="#DejaVuSans-48"/>
       <use x="159.033203" xlink:href="#DejaVuSans-48"/>
      </g>
     </g>
    </g>
    <g id="xtick_2">
     <g id="line2d_2">
      <g>
       <use style="stroke:#000000;stroke-width:0.8;" x="351.518847" xlink:href="#mf06bc35cd4" y="548.12"/>
      </g>
     </g>
     <g id="text_2">
      <!-- 0.01 -->
      <defs>
       <path d="M 12.40625 8.296875 
L 28.515625 8.296875 
L 28.515625 63.921875 
L 10.984375 60.40625 
L 10.984375 69.390625 
L 28.421875 72.90625 
L 38.28125 72.90625 
L 38.28125 8.296875 
L 54.390625 8.296875 
L 54.390625 0 
L 12.40625 0 
z
" id="DejaVuSans-49"/>
      </defs>
      <g transform="translate(340.386034 562.718437)scale(0.1 -0.1)">
       <use xlink:href="#DejaVuSans-48"/>
       <use x="63.623047" xlink:href="#DejaVuSans-46"/>
       <use x="95.410156" xlink:href="#DejaVuSans-48"/>
       <use x="159.033203" xlink:href="#DejaVuSans-49"/>
      </g>
     </g>
    </g>
    <g id="xtick_3">
     <g id="line2d_3">
      <g>
       <use style="stroke:#000000;stroke-width:0.8;" x="486.076929" xlink:href="#mf06bc35cd4" y="548.12"/>
      </g>
     </g>
     <g id="text_3">
      <!-- 0.02 -->
      <defs>
       <path d="M 19.1875 8.296875 
L 53.609375 8.296875 
L 53.609375 0 
L 7.328125 0 
L 7.328125 8.296875 
Q 12.9375 14.109375 22.625 23.890625 
Q 32.328125 33.6875 34.8125 36.53125 
Q 39.546875 41.84375 41.421875 45.53125 
Q 43.3125 49.21875 43.3125 52.78125 
Q 43.3125 58.59375 39.234375 62.25 
Q 35.15625 65.921875 28.609375 65.921875 
Q 23.96875 65.921875 18.8125 64.3125 
Q 13.671875 62.703125 7.8125 59.421875 
L 7.8125 69.390625 
Q 13.765625 71.78125 18.9375 73 
Q 24.125 74.21875 28.421875 74.21875 
Q 39.75 74.21875 46.484375 68.546875 
Q 53.21875 62.890625 53.21875 53.421875 
Q 53.21875 48.921875 51.53125 44.890625 
Q 49.859375 40.875 45.40625 35.40625 
Q 44.1875 33.984375 37.640625 27.21875 
Q 31.109375 20.453125 19.1875 8.296875 
z
" id="DejaVuSans-50"/>
      </defs>
      <g transform="translate(474.944116 562.718437)scale(0.1 -0.1)">
       <use xlink:href="#DejaVuSans-48"/>
       <use x="63.623047" xlink:href="#DejaVuSans-46"/>
       <use x="95.410156" xlink:href="#DejaVuSans-48"/>
       <use x="159.033203" xlink:href="#DejaVuSans-50"/>
      </g>
     </g>
    </g>
    <g id="xtick_4">
     <g id="line2d_4">
      <g>
       <use style="stroke:#000000;stroke-width:0.8;" x="620.635011" xlink:href="#mf06bc35cd4" y="548.12"/>
      </g>
     </g>
     <g id="text_4">
      <!-- 0.03 -->
      <defs>
       <path d="M 40.578125 39.3125 
Q 47.65625 37.796875 51.625 33 
Q 55.609375 28.21875 55.609375 21.1875 
Q 55.609375 10.40625 48.1875 4.484375 
Q 40.765625 -1.421875 27.09375 -1.421875 
Q 22.515625 -1.421875 17.65625 -0.515625 
Q 12.796875 0.390625 7.625 2.203125 
L 7.625 11.71875 
Q 11.71875 9.328125 16.59375 8.109375 
Q 21.484375 6.890625 26.8125 6.890625 
Q 36.078125 6.890625 40.9375 10.546875 
Q 45.796875 14.203125 45.796875 21.1875 
Q 45.796875 27.640625 41.28125 31.265625 
Q 36.765625 34.90625 28.71875 34.90625 
L 20.21875 34.90625 
L 20.21875 43.015625 
L 29.109375 43.015625 
Q 36.375 43.015625 40.234375 45.921875 
Q 44.09375 48.828125 44.09375 54.296875 
Q 44.09375 59.90625 40.109375 62.90625 
Q 36.140625 65.921875 28.71875 65.921875 
Q 24.65625 65.921875 20.015625 65.03125 
Q 15.375 64.15625 9.8125 62.3125 
L 9.8125 71.09375 
Q 15.4375 72.65625 20.34375 73.4375 
Q 25.25 74.21875 29.59375 74.21875 
Q 40.828125 74.21875 47.359375 69.109375 
Q 53.90625 64.015625 53.90625 55.328125 
Q 53.90625 49.265625 50.4375 45.09375 
Q 46.96875 40.921875 40.578125 39.3125 
z
" id="DejaVuSans-51"/>
      </defs>
      <g transform="translate(609.502198 562.718437)scale(0.1 -0.1)">
       <use xlink:href="#DejaVuSans-48"/>
       <use x="63.623047" xlink:href="#DejaVuSans-46"/>
       <use x="95.410156" xlink:href="#DejaVuSans-48"/>
       <use x="159.033203" xlink:href="#DejaVuSans-51"/>
      </g>
     </g>
    </g>
    <g id="xtick_5">
     <g id="line2d_5">
      <g>
       <use style="stroke:#000000;stroke-width:0.8;" x="755.193093" xlink:href="#mf06bc35cd4" y="548.12"/>
      </g>
     </g>
     <g id="text_5">
      <!-- 0.04 -->
      <defs>
       <path d="M 37.796875 64.3125 
L 12.890625 25.390625 
L 37.796875 25.390625 
z
M 35.203125 72.90625 
L 47.609375 72.90625 
L 47.609375 25.390625 
L 58.015625 25.390625 
L 58.015625 17.1875 
L 47.609375 17.1875 
L 47.609375 0 
L 37.796875 0 
L 37.796875 17.1875 
L 4.890625 17.1875 
L 4.890625 26.703125 
z
" id="DejaVuSans-52"/>
      </defs>
      <g transform="translate(744.06028 562.718437)scale(0.1 -0.1)">
       <use xlink:href="#DejaVuSans-48"/>
       <use x="63.623047" xlink:href="#DejaVuSans-46"/>
       <use x="95.410156" xlink:href="#DejaVuSans-48"/>
       <use x="159.033203" xlink:href="#DejaVuSans-52"/>
      </g>
     </g>
    </g>
   </g>
   <g id="matplotlib.axis_2">
    <g id="ytick_1">
     <g id="line2d_6">
      <defs>
       <path d="M 0 0 
L -3.5 0 
" id="md87a80e28e" style="stroke:#000000;stroke-width:0.8;"/>
      </defs>
      <g>
       <use style="stroke:#000000;stroke-width:0.8;" x="137.59" xlink:href="#md87a80e28e" y="530.209333"/>
      </g>
     </g>
     <g id="text_6">
      <!-- RSquaredU -->
      <defs>
       <path d="M 44.390625 34.1875 
Q 47.5625 33.109375 50.5625 29.59375 
Q 53.5625 26.078125 56.59375 19.921875 
L 66.609375 0 
L 56 0 
L 46.6875 18.703125 
Q 43.0625 26.03125 39.671875 28.421875 
Q 36.28125 30.8125 30.421875 30.8125 
L 19.671875 30.8125 
L 19.671875 0 
L 9.8125 0 
L 9.8125 72.90625 
L 32.078125 72.90625 
Q 44.578125 72.90625 50.734375 67.671875 
Q 56.890625 62.453125 56.890625 51.90625 
Q 56.890625 45.015625 53.6875 40.46875 
Q 50.484375 35.9375 44.390625 34.1875 
z
M 19.671875 64.796875 
L 19.671875 38.921875 
L 32.078125 38.921875 
Q 39.203125 38.921875 42.84375 42.21875 
Q 46.484375 45.515625 46.484375 51.90625 
Q 46.484375 58.296875 42.84375 61.546875 
Q 39.203125 64.796875 32.078125 64.796875 
z
" id="DejaVuSans-82"/>
       <path d="M 53.515625 70.515625 
L 53.515625 60.890625 
Q 47.90625 63.578125 42.921875 64.890625 
Q 37.9375 66.21875 33.296875 66.21875 
Q 25.25 66.21875 20.875 63.09375 
Q 16.5 59.96875 16.5 54.203125 
Q 16.5 49.359375 19.40625 46.890625 
Q 22.3125 44.4375 30.421875 42.921875 
L 36.375 41.703125 
Q 47.40625 39.59375 52.65625 34.296875 
Q 57.90625 29 57.90625 20.125 
Q 57.90625 9.515625 50.796875 4.046875 
Q 43.703125 -1.421875 29.984375 -1.421875 
Q 24.8125 -1.421875 18.96875 -0.25 
Q 13.140625 0.921875 6.890625 3.21875 
L 6.890625 13.375 
Q 12.890625 10.015625 18.65625 8.296875 
Q 24.421875 6.59375 29.984375 6.59375 
Q 38.421875 6.59375 43.015625 9.90625 
Q 47.609375 13.234375 47.609375 19.390625 
Q 47.609375 24.75 44.3125 27.78125 
Q 41.015625 30.8125 33.5 32.328125 
L 27.484375 33.5 
Q 16.453125 35.6875 11.515625 40.375 
Q 6.59375 45.0625 6.59375 53.421875 
Q 6.59375 63.09375 13.40625 68.65625 
Q 20.21875 74.21875 32.171875 74.21875 
Q 37.3125 74.21875 42.625 73.28125 
Q 47.953125 72.359375 53.515625 70.515625 
z
" id="DejaVuSans-83"/>
       <path d="M 14.796875 27.296875 
Q 14.796875 17.390625 18.875 11.75 
Q 22.953125 6.109375 30.078125 6.109375 
Q 37.203125 6.109375 41.296875 11.75 
Q 45.40625 17.390625 45.40625 27.296875 
Q 45.40625 37.203125 41.296875 42.84375 
Q 37.203125 48.484375 30.078125 48.484375 
Q 22.953125 48.484375 18.875 42.84375 
Q 14.796875 37.203125 14.796875 27.296875 
z
M 45.40625 8.203125 
Q 42.578125 3.328125 38.25 0.953125 
Q 33.9375 -1.421875 27.875 -1.421875 
Q 17.96875 -1.421875 11.734375 6.484375 
Q 5.515625 14.40625 5.515625 27.296875 
Q 5.515625 40.1875 11.734375 48.09375 
Q 17.96875 56 27.875 56 
Q 33.9375 56 38.25 53.625 
Q 42.578125 51.265625 45.40625 46.390625 
L 45.40625 54.6875 
L 54.390625 54.6875 
L 54.390625 -20.796875 
L 45.40625 -20.796875 
z
" id="DejaVuSans-113"/>
       <path d="M 8.5 21.578125 
L 8.5 54.6875 
L 17.484375 54.6875 
L 17.484375 21.921875 
Q 17.484375 14.15625 20.5 10.265625 
Q 23.53125 6.390625 29.59375 6.390625 
Q 36.859375 6.390625 41.078125 11.03125 
Q 45.3125 15.671875 45.3125 23.6875 
L 45.3125 54.6875 
L 54.296875 54.6875 
L 54.296875 0 
L 45.3125 0 
L 45.3125 8.40625 
Q 42.046875 3.421875 37.71875 1 
Q 33.40625 -1.421875 27.6875 -1.421875 
Q 18.265625 -1.421875 13.375 4.4375 
Q 8.5 10.296875 8.5 21.578125 
z
M 31.109375 56 
z
" id="DejaVuSans-117"/>
       <path d="M 34.28125 27.484375 
Q 23.390625 27.484375 19.1875 25 
Q 14.984375 22.515625 14.984375 16.5 
Q 14.984375 11.71875 18.140625 8.90625 
Q 21.296875 6.109375 26.703125 6.109375 
Q 34.1875 6.109375 38.703125 11.40625 
Q 43.21875 16.703125 43.21875 25.484375 
L 43.21875 27.484375 
z
M 52.203125 31.203125 
L 52.203125 0 
L 43.21875 0 
L 43.21875 8.296875 
Q 40.140625 3.328125 35.546875 0.953125 
Q 30.953125 -1.421875 24.3125 -1.421875 
Q 15.921875 -1.421875 10.953125 3.296875 
Q 6 8.015625 6 15.921875 
Q 6 25.140625 12.171875 29.828125 
Q 18.359375 34.515625 30.609375 34.515625 
L 43.21875 34.515625 
L 43.21875 35.40625 
Q 43.21875 41.609375 39.140625 45 
Q 35.0625 48.390625 27.6875 48.390625 
Q 23 48.390625 18.546875 47.265625 
Q 14.109375 46.140625 10.015625 43.890625 
L 10.015625 52.203125 
Q 14.9375 54.109375 19.578125 55.046875 
Q 24.21875 56 28.609375 56 
Q 40.484375 56 46.34375 49.84375 
Q 52.203125 43.703125 52.203125 31.203125 
z
" id="DejaVuSans-97"/>
       <path d="M 41.109375 46.296875 
Q 39.59375 47.171875 37.8125 47.578125 
Q 36.03125 48 33.890625 48 
Q 26.265625 48 22.1875 43.046875 
Q 18.109375 38.09375 18.109375 28.8125 
L 18.109375 0 
L 9.078125 0 
L 9.078125 54.6875 
L 18.109375 54.6875 
L 18.109375 46.1875 
Q 20.953125 51.171875 25.484375 53.578125 
Q 30.03125 56 36.53125 56 
Q 37.453125 56 38.578125 55.875 
Q 39.703125 55.765625 41.0625 55.515625 
z
" id="DejaVuSans-114"/>
       <path d="M 56.203125 29.59375 
L 56.203125 25.203125 
L 14.890625 25.203125 
Q 15.484375 15.921875 20.484375 11.0625 
Q 25.484375 6.203125 34.421875 6.203125 
Q 39.59375 6.203125 44.453125 7.46875 
Q 49.3125 8.734375 54.109375 11.28125 
L 54.109375 2.78125 
Q 49.265625 0.734375 44.1875 -0.34375 
Q 39.109375 -1.421875 33.890625 -1.421875 
Q 20.796875 -1.421875 13.15625 6.1875 
Q 5.515625 13.8125 5.515625 26.8125 
Q 5.515625 40.234375 12.765625 48.109375 
Q 20.015625 56 32.328125 56 
Q 43.359375 56 49.78125 48.890625 
Q 56.203125 41.796875 56.203125 29.59375 
z
M 47.21875 32.234375 
Q 47.125 39.59375 43.09375 43.984375 
Q 39.0625 48.390625 32.421875 48.390625 
Q 24.90625 48.390625 20.390625 44.140625 
Q 15.875 39.890625 15.1875 32.171875 
z
" id="DejaVuSans-101"/>
       <path d="M 45.40625 46.390625 
L 45.40625 75.984375 
L 54.390625 75.984375 
L 54.390625 0 
L 45.40625 0 
L 45.40625 8.203125 
Q 42.578125 3.328125 38.25 0.953125 
Q 33.9375 -1.421875 27.875 -1.421875 
Q 17.96875 -1.421875 11.734375 6.484375 
Q 5.515625 14.40625 5.515625 27.296875 
Q 5.515625 40.1875 11.734375 48.09375 
Q 17.96875 56 27.875 56 
Q 33.9375 56 38.25 53.625 
Q 42.578125 51.265625 45.40625 46.390625 
z
M 14.796875 27.296875 
Q 14.796875 17.390625 18.875 11.75 
Q 22.953125 6.109375 30.078125 6.109375 
Q 37.203125 6.109375 41.296875 11.75 
Q 45.40625 17.390625 45.40625 27.296875 
Q 45.40625 37.203125 41.296875 42.84375 
Q 37.203125 48.484375 30.078125 48.484375 
Q 22.953125 48.484375 18.875 42.84375 
Q 14.796875 37.203125 14.796875 27.296875 
z
" id="DejaVuSans-100"/>
       <path d="M 8.6875 72.90625 
L 18.609375 72.90625 
L 18.609375 28.609375 
Q 18.609375 16.890625 22.84375 11.734375 
Q 27.09375 6.59375 36.625 6.59375 
Q 46.09375 6.59375 50.34375 11.734375 
Q 54.59375 16.890625 54.59375 28.609375 
L 54.59375 72.90625 
L 64.5 72.90625 
L 64.5 27.390625 
Q 64.5 13.140625 57.4375 5.859375 
Q 50.390625 -1.421875 36.625 -1.421875 
Q 22.796875 -1.421875 15.734375 5.859375 
Q 8.6875 13.140625 8.6875 27.390625 
z
" id="DejaVuSans-85"/>
      </defs>
      <g transform="translate(74.550938 534.008552)scale(0.1 -0.1)">
       <use xlink:href="#DejaVuSans-82"/>
       <use x="69.482422" xlink:href="#DejaVuSans-83"/>
       <use x="132.958984" xlink:href="#DejaVuSans-113"/>
       <use x="196.435547" xlink:href="#DejaVuSans-117"/>
       <use x="259.814453" xlink:href="#DejaVuSans-97"/>
       <use x="321.09375" xlink:href="#DejaVuSans-114"/>
       <use x="362.175781" xlink:href="#DejaVuSans-101"/>
       <use x="423.699219" xlink:href="#DejaVuSans-100"/>
       <use x="487.175781" xlink:href="#DejaVuSans-85"/>
      </g>
     </g>
    </g>
    <g id="ytick_2">
     <g id="line2d_7">
      <g>
       <use style="stroke:#000000;stroke-width:0.8;" x="137.59" xlink:href="#md87a80e28e" y="494.388"/>
      </g>
     </g>
     <g id="text_7">
      <!-- BinnedHitStdU -->
      <defs>
       <path d="M 19.671875 34.8125 
L 19.671875 8.109375 
L 35.5 8.109375 
Q 43.453125 8.109375 47.28125 11.40625 
Q 51.125 14.703125 51.125 21.484375 
Q 51.125 28.328125 47.28125 31.5625 
Q 43.453125 34.8125 35.5 34.8125 
z
M 19.671875 64.796875 
L 19.671875 42.828125 
L 34.28125 42.828125 
Q 41.5 42.828125 45.03125 45.53125 
Q 48.578125 48.25 48.578125 53.8125 
Q 48.578125 59.328125 45.03125 62.0625 
Q 41.5 64.796875 34.28125 64.796875 
z
M 9.8125 72.90625 
L 35.015625 72.90625 
Q 46.296875 72.90625 52.390625 68.21875 
Q 58.5 63.53125 58.5 54.890625 
Q 58.5 48.1875 55.375 44.234375 
Q 52.25 40.28125 46.1875 39.3125 
Q 53.46875 37.75 57.5 32.78125 
Q 61.53125 27.828125 61.53125 20.40625 
Q 61.53125 10.640625 54.890625 5.3125 
Q 48.25 0 35.984375 0 
L 9.8125 0 
z
" id="DejaVuSans-66"/>
       <path d="M 9.421875 54.6875 
L 18.40625 54.6875 
L 18.40625 0 
L 9.421875 0 
z
M 9.421875 75.984375 
L 18.40625 75.984375 
L 18.40625 64.59375 
L 9.421875 64.59375 
z
" id="DejaVuSans-105"/>
       <path d="M 54.890625 33.015625 
L 54.890625 0 
L 45.90625 0 
L 45.90625 32.71875 
Q 45.90625 40.484375 42.875 44.328125 
Q 39.84375 48.1875 33.796875 48.1875 
Q 26.515625 48.1875 22.3125 43.546875 
Q 18.109375 38.921875 18.109375 30.90625 
L 18.109375 0 
L 9.078125 0 
L 9.078125 54.6875 
L 18.109375 54.6875 
L 18.109375 46.1875 
Q 21.34375 51.125 25.703125 53.5625 
Q 30.078125 56 35.796875 56 
Q 45.21875 56 50.046875 50.171875 
Q 54.890625 44.34375 54.890625 33.015625 
z
" id="DejaVuSans-110"/>
       <path d="M 9.8125 72.90625 
L 19.671875 72.90625 
L 19.671875 43.015625 
L 55.515625 43.015625 
L 55.515625 72.90625 
L 65.375 72.90625 
L 65.375 0 
L 55.515625 0 
L 55.515625 34.71875 
L 19.671875 34.71875 
L 19.671875 0 
L 9.8125 0 
z
" id="DejaVuSans-72"/>
       <path d="M 18.3125 70.21875 
L 18.3125 54.6875 
L 36.8125 54.6875 
L 36.8125 47.703125 
L 18.3125 47.703125 
L 18.3125 18.015625 
Q 18.3125 11.328125 20.140625 9.421875 
Q 21.96875 7.515625 27.59375 7.515625 
L 36.8125 7.515625 
L 36.8125 0 
L 27.59375 0 
Q 17.1875 0 13.234375 3.875 
Q 9.28125 7.765625 9.28125 18.015625 
L 9.28125 47.703125 
L 2.6875 47.703125 
L 2.6875 54.6875 
L 9.28125 54.6875 
L 9.28125 70.21875 
z
" id="DejaVuSans-116"/>
      </defs>
      <g transform="translate(57.619687 498.187219)scale(0.1 -0.1)">
       <use xlink:href="#DejaVuSans-66"/>
       <use x="68.603516" xlink:href="#DejaVuSans-105"/>
       <use x="96.386719" xlink:href="#DejaVuSans-110"/>
       <use x="159.765625" xlink:href="#DejaVuSans-110"/>
       <use x="223.144531" xlink:href="#DejaVuSans-101"/>
       <use x="284.667969" xlink:href="#DejaVuSans-100"/>
       <use x="348.144531" xlink:href="#DejaVuSans-72"/>
       <use x="423.339844" xlink:href="#DejaVuSans-105"/>
       <use x="451.123047" xlink:href="#DejaVuSans-116"/>
       <use x="490.332031" xlink:href="#DejaVuSans-83"/>
       <use x="553.808594" xlink:href="#DejaVuSans-116"/>
       <use x="593.017578" xlink:href="#DejaVuSans-100"/>
       <use x="656.494141" xlink:href="#DejaVuSans-85"/>
      </g>
     </g>
    </g>
    <g id="ytick_3">
     <g id="line2d_8">
      <g>
       <use style="stroke:#000000;stroke-width:0.8;" x="137.59" xlink:href="#md87a80e28e" y="458.566667"/>
      </g>
     </g>
     <g id="text_8">
      <!-- RadialBinStdU -->
      <defs>
       <path d="M 9.421875 75.984375 
L 18.40625 75.984375 
L 18.40625 0 
L 9.421875 0 
z
" id="DejaVuSans-108"/>
      </defs>
      <g transform="translate(59.57125 462.365885)scale(0.1 -0.1)">
       <use xlink:href="#DejaVuSans-82"/>
       <use x="69.451172" xlink:href="#DejaVuSans-97"/>
       <use x="130.730469" xlink:href="#DejaVuSans-100"/>
       <use x="194.207031" xlink:href="#DejaVuSans-105"/>
       <use x="221.990234" xlink:href="#DejaVuSans-97"/>
       <use x="283.269531" xlink:href="#DejaVuSans-108"/>
       <use x="311.052734" xlink:href="#DejaVuSans-66"/>
       <use x="379.65625" xlink:href="#DejaVuSans-105"/>
       <use x="407.439453" xlink:href="#DejaVuSans-110"/>
       <use x="470.818359" xlink:href="#DejaVuSans-83"/>
       <use x="534.294922" xlink:href="#DejaVuSans-116"/>
       <use x="573.503906" xlink:href="#DejaVuSans-100"/>
       <use x="636.980469" xlink:href="#DejaVuSans-85"/>
      </g>
     </g>
    </g>
    <g id="ytick_4">
     <g id="line2d_9">
      <g>
       <use style="stroke:#000000;stroke-width:0.8;" x="137.59" xlink:href="#md87a80e28e" y="422.745333"/>
      </g>
     </g>
     <g id="text_9">
      <!-- ChainCountU -->
      <defs>
       <path d="M 64.40625 67.28125 
L 64.40625 56.890625 
Q 59.421875 61.53125 53.78125 63.8125 
Q 48.140625 66.109375 41.796875 66.109375 
Q 29.296875 66.109375 22.65625 58.46875 
Q 16.015625 50.828125 16.015625 36.375 
Q 16.015625 21.96875 22.65625 14.328125 
Q 29.296875 6.6875 41.796875 6.6875 
Q 48.140625 6.6875 53.78125 8.984375 
Q 59.421875 11.28125 64.40625 15.921875 
L 64.40625 5.609375 
Q 59.234375 2.09375 53.4375 0.328125 
Q 47.65625 -1.421875 41.21875 -1.421875 
Q 24.65625 -1.421875 15.125 8.703125 
Q 5.609375 18.84375 5.609375 36.375 
Q 5.609375 53.953125 15.125 64.078125 
Q 24.65625 74.21875 41.21875 74.21875 
Q 47.75 74.21875 53.53125 72.484375 
Q 59.328125 70.75 64.40625 67.28125 
z
" id="DejaVuSans-67"/>
       <path d="M 54.890625 33.015625 
L 54.890625 0 
L 45.90625 0 
L 45.90625 32.71875 
Q 45.90625 40.484375 42.875 44.328125 
Q 39.84375 48.1875 33.796875 48.1875 
Q 26.515625 48.1875 22.3125 43.546875 
Q 18.109375 38.921875 18.109375 30.90625 
L 18.109375 0 
L 9.078125 0 
L 9.078125 75.984375 
L 18.109375 75.984375 
L 18.109375 46.1875 
Q 21.34375 51.125 25.703125 53.5625 
Q 30.078125 56 35.796875 56 
Q 45.21875 56 50.046875 50.171875 
Q 54.890625 44.34375 54.890625 33.015625 
z
" id="DejaVuSans-104"/>
       <path d="M 30.609375 48.390625 
Q 23.390625 48.390625 19.1875 42.75 
Q 14.984375 37.109375 14.984375 27.296875 
Q 14.984375 17.484375 19.15625 11.84375 
Q 23.34375 6.203125 30.609375 6.203125 
Q 37.796875 6.203125 41.984375 11.859375 
Q 46.1875 17.53125 46.1875 27.296875 
Q 46.1875 37.015625 41.984375 42.703125 
Q 37.796875 48.390625 30.609375 48.390625 
z
M 30.609375 56 
Q 42.328125 56 49.015625 48.375 
Q 55.71875 40.765625 55.71875 27.296875 
Q 55.71875 13.875 49.015625 6.21875 
Q 42.328125 -1.421875 30.609375 -1.421875 
Q 18.84375 -1.421875 12.171875 6.21875 
Q 5.515625 13.875 5.515625 27.296875 
Q 5.515625 40.765625 12.171875 48.375 
Q 18.84375 56 30.609375 56 
z
" id="DejaVuSans-111"/>
      </defs>
      <g transform="translate(65.010312 426.544552)scale(0.1 -0.1)">
       <use xlink:href="#DejaVuSans-67"/>
       <use x="69.824219" xlink:href="#DejaVuSans-104"/>
       <use x="133.203125" xlink:href="#DejaVuSans-97"/>
       <use x="194.482422" xlink:href="#DejaVuSans-105"/>
       <use x="222.265625" xlink:href="#DejaVuSans-110"/>
       <use x="285.644531" xlink:href="#DejaVuSans-67"/>
       <use x="355.46875" xlink:href="#DejaVuSans-111"/>
       <use x="416.650391" xlink:href="#DejaVuSans-117"/>
       <use x="480.029297" xlink:href="#DejaVuSans-110"/>
       <use x="543.408203" xlink:href="#DejaVuSans-116"/>
       <use x="582.617188" xlink:href="#DejaVuSans-85"/>
      </g>
     </g>
    </g>
    <g id="ytick_5">
     <g id="line2d_10">
      <g>
       <use style="stroke:#000000;stroke-width:0.8;" x="137.59" xlink:href="#md87a80e28e" y="386.924"/>
      </g>
     </g>
     <g id="text_10">
      <!-- ChainRatioAvgU -->
      <defs>
       <path d="M 34.1875 63.1875 
L 20.796875 26.90625 
L 47.609375 26.90625 
z
M 28.609375 72.90625 
L 39.796875 72.90625 
L 67.578125 0 
L 57.328125 0 
L 50.6875 18.703125 
L 17.828125 18.703125 
L 11.1875 0 
L 0.78125 0 
z
" id="DejaVuSans-65"/>
       <path d="M 2.984375 54.6875 
L 12.5 54.6875 
L 29.59375 8.796875 
L 46.6875 54.6875 
L 56.203125 54.6875 
L 35.6875 0 
L 23.484375 0 
z
" id="DejaVuSans-118"/>
       <path d="M 45.40625 27.984375 
Q 45.40625 37.75 41.375 43.109375 
Q 37.359375 48.484375 30.078125 48.484375 
Q 22.859375 48.484375 18.828125 43.109375 
Q 14.796875 37.75 14.796875 27.984375 
Q 14.796875 18.265625 18.828125 12.890625 
Q 22.859375 7.515625 30.078125 7.515625 
Q 37.359375 7.515625 41.375 12.890625 
Q 45.40625 18.265625 45.40625 27.984375 
z
M 54.390625 6.78125 
Q 54.390625 -7.171875 48.1875 -13.984375 
Q 42 -20.796875 29.203125 -20.796875 
Q 24.46875 -20.796875 20.265625 -20.09375 
Q 16.0625 -19.390625 12.109375 -17.921875 
L 12.109375 -9.1875 
Q 16.0625 -11.328125 19.921875 -12.34375 
Q 23.78125 -13.375 27.78125 -13.375 
Q 36.625 -13.375 41.015625 -8.765625 
Q 45.40625 -4.15625 45.40625 5.171875 
L 45.40625 9.625 
Q 42.625 4.78125 38.28125 2.390625 
Q 33.9375 0 27.875 0 
Q 17.828125 0 11.671875 7.65625 
Q 5.515625 15.328125 5.515625 27.984375 
Q 5.515625 40.671875 11.671875 48.328125 
Q 17.828125 56 27.875 56 
Q 33.9375 56 38.28125 53.609375 
Q 42.625 51.21875 45.40625 46.390625 
L 45.40625 54.6875 
L 54.390625 54.6875 
z
" id="DejaVuSans-103"/>
      </defs>
      <g transform="translate(49.716562 390.723219)scale(0.1 -0.1)">
       <use xlink:href="#DejaVuSans-67"/>
       <use x="69.824219" xlink:href="#DejaVuSans-104"/>
       <use x="133.203125" xlink:href="#DejaVuSans-97"/>
       <use x="194.482422" xlink:href="#DejaVuSans-105"/>
       <use x="222.265625" xlink:href="#DejaVuSans-110"/>
       <use x="285.644531" xlink:href="#DejaVuSans-82"/>
       <use x="355.095703" xlink:href="#DejaVuSans-97"/>
       <use x="416.375" xlink:href="#DejaVuSans-116"/>
       <use x="455.583984" xlink:href="#DejaVuSans-105"/>
       <use x="483.367188" xlink:href="#DejaVuSans-111"/>
       <use x="544.548828" xlink:href="#DejaVuSans-65"/>
       <use x="612.878906" xlink:href="#DejaVuSans-118"/>
       <use x="672.058594" xlink:href="#DejaVuSans-103"/>
       <use x="735.535156" xlink:href="#DejaVuSans-85"/>
      </g>
     </g>
    </g>
    <g id="ytick_6">
     <g id="line2d_11">
      <g>
       <use style="stroke:#000000;stroke-width:0.8;" x="137.59" xlink:href="#md87a80e28e" y="351.102667"/>
      </g>
     </g>
     <g id="text_11">
      <!-- ChainRSquaredAvgU -->
      <g transform="translate(26.886875 354.901885)scale(0.1 -0.1)">
       <use xlink:href="#DejaVuSans-67"/>
       <use x="69.824219" xlink:href="#DejaVuSans-104"/>
       <use x="133.203125" xlink:href="#DejaVuSans-97"/>
       <use x="194.482422" xlink:href="#DejaVuSans-105"/>
       <use x="222.265625" xlink:href="#DejaVuSans-110"/>
       <use x="285.644531" xlink:href="#DejaVuSans-82"/>
       <use x="355.126953" xlink:href="#DejaVuSans-83"/>
       <use x="418.603516" xlink:href="#DejaVuSans-113"/>
       <use x="482.080078" xlink:href="#DejaVuSans-117"/>
       <use x="545.458984" xlink:href="#DejaVuSans-97"/>
       <use x="606.738281" xlink:href="#DejaVuSans-114"/>
       <use x="647.820312" xlink:href="#DejaVuSans-101"/>
       <use x="709.34375" xlink:href="#DejaVuSans-100"/>
       <use x="772.820312" xlink:href="#DejaVuSans-65"/>
       <use x="841.150391" xlink:href="#DejaVuSans-118"/>
       <use x="900.330078" xlink:href="#DejaVuSans-103"/>
       <use x="963.806641" xlink:href="#DejaVuSans-85"/>
      </g>
     </g>
    </g>
    <g id="ytick_7">
     <g id="line2d_12">
      <g>
       <use style="stroke:#000000;stroke-width:0.8;" x="137.59" xlink:href="#md87a80e28e" y="315.281333"/>
      </g>
     </g>
     <g id="text_12">
      <!-- ChainRatioStdU -->
      <g transform="translate(52.199375 319.080552)scale(0.1 -0.1)">
       <use xlink:href="#DejaVuSans-67"/>
       <use x="69.824219" xlink:href="#DejaVuSans-104"/>
       <use x="133.203125" xlink:href="#DejaVuSans-97"/>
       <use x="194.482422" xlink:href="#DejaVuSans-105"/>
       <use x="222.265625" xlink:href="#DejaVuSans-110"/>
       <use x="285.644531" xlink:href="#DejaVuSans-82"/>
       <use x="355.095703" xlink:href="#DejaVuSans-97"/>
       <use x="416.375" xlink:href="#DejaVuSans-116"/>
       <use x="455.583984" xlink:href="#DejaVuSans-105"/>
       <use x="483.367188" xlink:href="#DejaVuSans-111"/>
       <use x="544.548828" xlink:href="#DejaVuSans-83"/>
       <use x="608.025391" xlink:href="#DejaVuSans-116"/>
       <use x="647.234375" xlink:href="#DejaVuSans-100"/>
       <use x="710.710938" xlink:href="#DejaVuSans-85"/>
      </g>
     </g>
    </g>
    <g id="ytick_8">
     <g id="line2d_13">
      <g>
       <use style="stroke:#000000;stroke-width:0.8;" x="137.59" xlink:href="#md87a80e28e" y="279.46"/>
      </g>
     </g>
     <g id="text_13">
      <!-- ChainRSquaredStdU -->
      <g transform="translate(29.369687 283.259219)scale(0.1 -0.1)">
       <use xlink:href="#DejaVuSans-67"/>
       <use x="69.824219" xlink:href="#DejaVuSans-104"/>
       <use x="133.203125" xlink:href="#DejaVuSans-97"/>
       <use x="194.482422" xlink:href="#DejaVuSans-105"/>
       <use x="222.265625" xlink:href="#DejaVuSans-110"/>
       <use x="285.644531" xlink:href="#DejaVuSans-82"/>
       <use x="355.126953" xlink:href="#DejaVuSans-83"/>
       <use x="418.603516" xlink:href="#DejaVuSans-113"/>
       <use x="482.080078" xlink:href="#DejaVuSans-117"/>
       <use x="545.458984" xlink:href="#DejaVuSans-97"/>
       <use x="606.738281" xlink:href="#DejaVuSans-114"/>
       <use x="647.820312" xlink:href="#DejaVuSans-101"/>
       <use x="709.34375" xlink:href="#DejaVuSans-100"/>
       <use x="772.820312" xlink:href="#DejaVuSans-83"/>
       <use x="836.296875" xlink:href="#DejaVuSans-116"/>
       <use x="875.505859" xlink:href="#DejaVuSans-100"/>
       <use x="938.982422" xlink:href="#DejaVuSans-85"/>
      </g>
     </g>
    </g>
    <g id="ytick_9">
     <g id="line2d_14">
      <g>
       <use style="stroke:#000000;stroke-width:0.8;" x="137.59" xlink:href="#md87a80e28e" y="243.638667"/>
      </g>
     </g>
     <g id="text_14">
      <!-- AngularSpanU -->
      <defs>
       <path d="M 18.109375 8.203125 
L 18.109375 -20.796875 
L 9.078125 -20.796875 
L 9.078125 54.6875 
L 18.109375 54.6875 
L 18.109375 46.390625 
Q 20.953125 51.265625 25.265625 53.625 
Q 29.59375 56 35.59375 56 
Q 45.5625 56 51.78125 48.09375 
Q 58.015625 40.1875 58.015625 27.296875 
Q 58.015625 14.40625 51.78125 6.484375 
Q 45.5625 -1.421875 35.59375 -1.421875 
Q 29.59375 -1.421875 25.265625 0.953125 
Q 20.953125 3.328125 18.109375 8.203125 
z
M 48.6875 27.296875 
Q 48.6875 37.203125 44.609375 42.84375 
Q 40.53125 48.484375 33.40625 48.484375 
Q 26.265625 48.484375 22.1875 42.84375 
Q 18.109375 37.203125 18.109375 27.296875 
Q 18.109375 17.390625 22.1875 11.75 
Q 26.265625 6.109375 33.40625 6.109375 
Q 40.53125 6.109375 44.609375 11.75 
Q 48.6875 17.390625 48.6875 27.296875 
z
" id="DejaVuSans-112"/>
      </defs>
      <g transform="translate(59.2275 247.437885)scale(0.1 -0.1)">
       <use xlink:href="#DejaVuSans-65"/>
       <use x="68.408203" xlink:href="#DejaVuSans-110"/>
       <use x="131.787109" xlink:href="#DejaVuSans-103"/>
       <use x="195.263672" xlink:href="#DejaVuSans-117"/>
       <use x="258.642578" xlink:href="#DejaVuSans-108"/>
       <use x="286.425781" xlink:href="#DejaVuSans-97"/>
       <use x="347.705078" xlink:href="#DejaVuSans-114"/>
       <use x="388.818359" xlink:href="#DejaVuSans-83"/>
       <use x="452.294922" xlink:href="#DejaVuSans-112"/>
       <use x="515.771484" xlink:href="#DejaVuSans-97"/>
       <use x="577.050781" xlink:href="#DejaVuSans-110"/>
       <use x="640.429688" xlink:href="#DejaVuSans-85"/>
      </g>
     </g>
    </g>
    <g id="ytick_10">
     <g id="line2d_15">
      <g>
       <use style="stroke:#000000;stroke-width:0.8;" x="137.59" xlink:href="#md87a80e28e" y="207.817333"/>
      </g>
     </g>
     <g id="text_15">
      <!-- LongitudinalSpanU -->
      <defs>
       <path d="M 9.8125 72.90625 
L 19.671875 72.90625 
L 19.671875 8.296875 
L 55.171875 8.296875 
L 55.171875 0 
L 9.8125 0 
z
" id="DejaVuSans-76"/>
      </defs>
      <g transform="translate(36.3275 211.616552)scale(0.1 -0.1)">
       <use xlink:href="#DejaVuSans-76"/>
       <use x="55.697266" xlink:href="#DejaVuSans-111"/>
       <use x="116.878906" xlink:href="#DejaVuSans-110"/>
       <use x="180.257812" xlink:href="#DejaVuSans-103"/>
       <use x="243.734375" xlink:href="#DejaVuSans-105"/>
       <use x="271.517578" xlink:href="#DejaVuSans-116"/>
       <use x="310.726562" xlink:href="#DejaVuSans-117"/>
       <use x="374.105469" xlink:href="#DejaVuSans-100"/>
       <use x="437.582031" xlink:href="#DejaVuSans-105"/>
       <use x="465.365234" xlink:href="#DejaVuSans-110"/>
       <use x="528.744141" xlink:href="#DejaVuSans-97"/>
       <use x="590.023438" xlink:href="#DejaVuSans-108"/>
       <use x="617.806641" xlink:href="#DejaVuSans-83"/>
       <use x="681.283203" xlink:href="#DejaVuSans-112"/>
       <use x="744.759766" xlink:href="#DejaVuSans-97"/>
       <use x="806.039062" xlink:href="#DejaVuSans-110"/>
       <use x="869.417969" xlink:href="#DejaVuSans-85"/>
      </g>
     </g>
    </g>
    <g id="ytick_11">
     <g id="line2d_16">
      <g>
       <use style="stroke:#000000;stroke-width:0.8;" x="137.59" xlink:href="#md87a80e28e" y="171.996"/>
      </g>
     </g>
     <g id="text_16">
      <!-- PcaVarU -->
      <defs>
       <path d="M 19.671875 64.796875 
L 19.671875 37.40625 
L 32.078125 37.40625 
Q 38.96875 37.40625 42.71875 40.96875 
Q 46.484375 44.53125 46.484375 51.125 
Q 46.484375 57.671875 42.71875 61.234375 
Q 38.96875 64.796875 32.078125 64.796875 
z
M 9.8125 72.90625 
L 32.078125 72.90625 
Q 44.34375 72.90625 50.609375 67.359375 
Q 56.890625 61.8125 56.890625 51.125 
Q 56.890625 40.328125 50.609375 34.8125 
Q 44.34375 29.296875 32.078125 29.296875 
L 19.671875 29.296875 
L 19.671875 0 
L 9.8125 0 
z
" id="DejaVuSans-80"/>
       <path d="M 48.78125 52.59375 
L 48.78125 44.1875 
Q 44.96875 46.296875 41.140625 47.34375 
Q 37.3125 48.390625 33.40625 48.390625 
Q 24.65625 48.390625 19.8125 42.84375 
Q 14.984375 37.3125 14.984375 27.296875 
Q 14.984375 17.28125 19.8125 11.734375 
Q 24.65625 6.203125 33.40625 6.203125 
Q 37.3125 6.203125 41.140625 7.25 
Q 44.96875 8.296875 48.78125 10.40625 
L 48.78125 2.09375 
Q 45.015625 0.34375 40.984375 -0.53125 
Q 36.96875 -1.421875 32.421875 -1.421875 
Q 20.0625 -1.421875 12.78125 6.34375 
Q 5.515625 14.109375 5.515625 27.296875 
Q 5.515625 40.671875 12.859375 48.328125 
Q 20.21875 56 33.015625 56 
Q 37.15625 56 41.109375 55.140625 
Q 45.0625 54.296875 48.78125 52.59375 
z
" id="DejaVuSans-99"/>
       <path d="M 28.609375 0 
L 0.78125 72.90625 
L 11.078125 72.90625 
L 34.1875 11.53125 
L 57.328125 72.90625 
L 67.578125 72.90625 
L 39.796875 0 
z
" id="DejaVuSans-86"/>
      </defs>
      <g transform="translate(88.54625 175.795219)scale(0.1 -0.1)">
       <use xlink:href="#DejaVuSans-80"/>
       <use x="60.302734" xlink:href="#DejaVuSans-99"/>
       <use x="115.283203" xlink:href="#DejaVuSans-97"/>
       <use x="176.5625" xlink:href="#DejaVuSans-86"/>
       <use x="244.861328" xlink:href="#DejaVuSans-97"/>
       <use x="306.140625" xlink:href="#DejaVuSans-114"/>
       <use x="347.253906" xlink:href="#DejaVuSans-85"/>
      </g>
     </g>
    </g>
    <g id="ytick_12">
     <g id="line2d_17">
      <g>
       <use style="stroke:#000000;stroke-width:0.8;" x="137.59" xlink:href="#md87a80e28e" y="136.174667"/>
      </g>
     </g>
     <g id="text_17">
      <!-- PcaRatioU -->
      <g transform="translate(79.724375 139.973885)scale(0.1 -0.1)">
       <use xlink:href="#DejaVuSans-80"/>
       <use x="60.302734" xlink:href="#DejaVuSans-99"/>
       <use x="115.283203" xlink:href="#DejaVuSans-97"/>
       <use x="176.5625" xlink:href="#DejaVuSans-82"/>
       <use x="246.013672" xlink:href="#DejaVuSans-97"/>
       <use x="307.292969" xlink:href="#DejaVuSans-116"/>
       <use x="346.501953" xlink:href="#DejaVuSans-105"/>
       <use x="374.285156" xlink:href="#DejaVuSans-111"/>
       <use x="435.466797" xlink:href="#DejaVuSans-85"/>
      </g>
     </g>
    </g>
    <g id="ytick_13">
     <g id="line2d_18">
      <g>
       <use style="stroke:#000000;stroke-width:0.8;" x="137.59" xlink:href="#md87a80e28e" y="100.353333"/>
      </g>
     </g>
     <g id="text_18">
      <!-- ChargedBinnedHitStdU -->
      <g transform="translate(15.211875 104.152552)scale(0.1 -0.1)">
       <use xlink:href="#DejaVuSans-67"/>
       <use x="69.824219" xlink:href="#DejaVuSans-104"/>
       <use x="133.203125" xlink:href="#DejaVuSans-97"/>
       <use x="194.482422" xlink:href="#DejaVuSans-114"/>
       <use x="235.580078" xlink:href="#DejaVuSans-103"/>
       <use x="299.056641" xlink:href="#DejaVuSans-101"/>
       <use x="360.580078" xlink:href="#DejaVuSans-100"/>
       <use x="424.056641" xlink:href="#DejaVuSans-66"/>
       <use x="492.660156" xlink:href="#DejaVuSans-105"/>
       <use x="520.443359" xlink:href="#DejaVuSans-110"/>
       <use x="583.822266" xlink:href="#DejaVuSans-110"/>
       <use x="647.201172" xlink:href="#DejaVuSans-101"/>
       <use x="708.724609" xlink:href="#DejaVuSans-100"/>
       <use x="772.201172" xlink:href="#DejaVuSans-72"/>
       <use x="847.396484" xlink:href="#DejaVuSans-105"/>
       <use x="875.179688" xlink:href="#DejaVuSans-116"/>
       <use x="914.388672" xlink:href="#DejaVuSans-83"/>
       <use x="977.865234" xlink:href="#DejaVuSans-116"/>
       <use x="1017.074219" xlink:href="#DejaVuSans-100"/>
       <use x="1080.550781" xlink:href="#DejaVuSans-85"/>
      </g>
     </g>
    </g>
    <g id="ytick_14">
     <g id="line2d_19">
      <g>
       <use style="stroke:#000000;stroke-width:0.8;" x="137.59" xlink:href="#md87a80e28e" y="64.532"/>
      </g>
     </g>
     <g id="text_19">
      <!-- ChargedStdMeanRatioU -->
      <defs>
       <path d="M 9.8125 72.90625 
L 24.515625 72.90625 
L 43.109375 23.296875 
L 61.8125 72.90625 
L 76.515625 72.90625 
L 76.515625 0 
L 66.890625 0 
L 66.890625 64.015625 
L 48.09375 14.015625 
L 38.1875 14.015625 
L 19.390625 64.015625 
L 19.390625 0 
L 9.8125 0 
z
" id="DejaVuSans-77"/>
      </defs>
      <g transform="translate(11.10875 68.331219)scale(0.1 -0.1)">
       <use xlink:href="#DejaVuSans-67"/>
       <use x="69.824219" xlink:href="#DejaVuSans-104"/>
       <use x="133.203125" xlink:href="#DejaVuSans-97"/>
       <use x="194.482422" xlink:href="#DejaVuSans-114"/>
       <use x="235.580078" xlink:href="#DejaVuSans-103"/>
       <use x="299.056641" xlink:href="#DejaVuSans-101"/>
       <use x="360.580078" xlink:href="#DejaVuSans-100"/>
       <use x="424.056641" xlink:href="#DejaVuSans-83"/>
       <use x="487.533203" xlink:href="#DejaVuSans-116"/>
       <use x="526.742188" xlink:href="#DejaVuSans-100"/>
       <use x="590.21875" xlink:href="#DejaVuSans-77"/>
       <use x="676.498047" xlink:href="#DejaVuSans-101"/>
       <use x="738.021484" xlink:href="#DejaVuSans-97"/>
       <use x="799.300781" xlink:href="#DejaVuSans-110"/>
       <use x="862.679688" xlink:href="#DejaVuSans-82"/>
       <use x="932.130859" xlink:href="#DejaVuSans-97"/>
       <use x="993.410156" xlink:href="#DejaVuSans-116"/>
       <use x="1032.619141" xlink:href="#DejaVuSans-105"/>
       <use x="1060.402344" xlink:href="#DejaVuSans-111"/>
       <use x="1121.583984" xlink:href="#DejaVuSans-85"/>
      </g>
     </g>
    </g>
    <g id="ytick_15">
     <g id="line2d_20">
      <g>
       <use style="stroke:#000000;stroke-width:0.8;" x="137.59" xlink:href="#md87a80e28e" y="28.710667"/>
      </g>
     </g>
     <g id="text_20">
      <!-- BraggPeakU -->
      <defs>
       <path d="M 9.078125 75.984375 
L 18.109375 75.984375 
L 18.109375 31.109375 
L 44.921875 54.6875 
L 56.390625 54.6875 
L 27.390625 29.109375 
L 57.625 0 
L 45.90625 0 
L 18.109375 26.703125 
L 18.109375 0 
L 9.078125 0 
z
" id="DejaVuSans-107"/>
      </defs>
      <g transform="translate(69.3775 32.509885)scale(0.1 -0.1)">
       <use xlink:href="#DejaVuSans-66"/>
       <use x="68.603516" xlink:href="#DejaVuSans-114"/>
       <use x="109.716797" xlink:href="#DejaVuSans-97"/>
       <use x="170.996094" xlink:href="#DejaVuSans-103"/>
       <use x="234.472656" xlink:href="#DejaVuSans-103"/>
       <use x="297.949219" xlink:href="#DejaVuSans-80"/>
       <use x="358.205078" xlink:href="#DejaVuSans-101"/>
       <use x="419.728516" xlink:href="#DejaVuSans-97"/>
       <use x="481.007812" xlink:href="#DejaVuSans-107"/>
       <use x="538.917969" xlink:href="#DejaVuSans-85"/>
      </g>
     </g>
    </g>
   </g>
   <g id="line2d_21">
    <path clip-path="url(#p5d9e27473b)" d="M 184.501066 539.164667 
L 184.501066 521.254 
L 192.664583 521.254 
L 192.664583 539.164667 
L 184.501066 539.164667 
" style="fill:none;stroke:#000000;stroke-linecap:square;"/>
   </g>
   <g id="line2d_22">
    <path clip-path="url(#p5d9e27473b)" d="M 184.501066 530.209333 
L 177.115027 530.209333 
" style="fill:none;stroke:#000000;stroke-linecap:square;"/>
   </g>
   <g id="line2d_23">
    <path clip-path="url(#p5d9e27473b)" d="M 192.664583 530.209333 
L 201.994317 530.209333 
" style="fill:none;stroke:#000000;stroke-linecap:square;"/>
   </g>
   <g id="line2d_24">
    <path clip-path="url(#p5d9e27473b)" d="M 177.115027 534.687 
L 177.115027 525.731667 
" style="fill:none;stroke:#000000;stroke-linecap:square;"/>
   </g>
   <g id="line2d_25">
    <path clip-path="url(#p5d9e27473b)" d="M 201.994317 534.687 
L 201.994317 525.731667 
" style="fill:none;stroke:#000000;stroke-linecap:square;"/>
   </g>
   <g id="line2d_26">
    <defs>
     <path d="M 0 3 
C 0.795609 3 1.55874 2.683901 2.12132 2.12132 
C 2.683901 1.55874 3 0.795609 3 0 
C 3 -0.795609 2.683901 -1.55874 2.12132 -2.12132 
C 1.55874 -2.683901 0.795609 -3 0 -3 
C -0.795609 -3 -1.55874 -2.683901 -2.12132 -2.12132 
C -2.683901 -1.55874 -3 -0.795609 -3 0 
C -3 0.795609 -2.683901 1.55874 -2.12132 2.12132 
C -1.55874 2.683901 -0.795609 3 0 3 
z
" id="m43737e9fdf" style="stroke:#000000;"/>
    </defs>
    <g clip-path="url(#p5d9e27473b)">
     <use style="fill-opacity:0;stroke:#000000;" x="170.117727" xlink:href="#m43737e9fdf" y="530.209333"/>
    </g>
   </g>
   <g id="line2d_27">
    <path clip-path="url(#p5d9e27473b)" d="M 193.247692 503.343333 
L 193.247692 485.432667 
L 199.467514 485.432667 
L 199.467514 503.343333 
L 193.247692 503.343333 
" style="fill:none;stroke:#000000;stroke-linecap:square;"/>
   </g>
   <g id="line2d_28">
    <path clip-path="url(#p5d9e27473b)" d="M 193.247692 494.388 
L 187.027869 494.388 
" style="fill:none;stroke:#000000;stroke-linecap:square;"/>
   </g>
   <g id="line2d_29">
    <path clip-path="url(#p5d9e27473b)" d="M 199.467514 494.388 
L 202.383056 494.388 
" style="fill:none;stroke:#000000;stroke-linecap:square;"/>
   </g>
   <g id="line2d_30">
    <path clip-path="url(#p5d9e27473b)" d="M 187.027869 498.865667 
L 187.027869 489.910333 
" style="fill:none;stroke:#000000;stroke-linecap:square;"/>
   </g>
   <g id="line2d_31">
    <path clip-path="url(#p5d9e27473b)" d="M 202.383056 498.865667 
L 202.383056 489.910333 
" style="fill:none;stroke:#000000;stroke-linecap:square;"/>
   </g>
   <g id="line2d_32"/>
   <g id="line2d_33">
    <path clip-path="url(#p5d9e27473b)" d="M 194.997017 467.522 
L 194.997017 449.611333 
L 201.02247 449.611333 
L 201.02247 467.522 
L 194.997017 467.522 
" style="fill:none;stroke:#000000;stroke-linecap:square;"/>
   </g>
   <g id="line2d_34">
    <path clip-path="url(#p5d9e27473b)" d="M 194.997017 458.566667 
L 190.33215 458.566667 
" style="fill:none;stroke:#000000;stroke-linecap:square;"/>
   </g>
   <g id="line2d_35">
    <path clip-path="url(#p5d9e27473b)" d="M 201.02247 458.566667 
L 205.492967 458.566667 
" style="fill:none;stroke:#000000;stroke-linecap:square;"/>
   </g>
   <g id="line2d_36">
    <path clip-path="url(#p5d9e27473b)" d="M 190.33215 463.044333 
L 190.33215 454.089 
" style="fill:none;stroke:#000000;stroke-linecap:square;"/>
   </g>
   <g id="line2d_37">
    <path clip-path="url(#p5d9e27473b)" d="M 205.492967 463.044333 
L 205.492967 454.089 
" style="fill:none;stroke:#000000;stroke-linecap:square;"/>
   </g>
   <g id="line2d_38">
    <g clip-path="url(#p5d9e27473b)">
     <use style="fill-opacity:0;stroke:#000000;" x="184.501066" xlink:href="#m43737e9fdf" y="458.566667"/>
    </g>
   </g>
   <g id="line2d_39">
    <path clip-path="url(#p5d9e27473b)" d="M 198.690036 431.700667 
L 198.690036 413.79 
L 204.715489 413.79 
L 204.715489 431.700667 
L 198.690036 431.700667 
" style="fill:none;stroke:#000000;stroke-linecap:square;"/>
   </g>
   <g id="line2d_40">
    <path clip-path="url(#p5d9e27473b)" d="M 198.690036 422.745333 
L 193.053322 422.745333 
" style="fill:none;stroke:#000000;stroke-linecap:square;"/>
   </g>
   <g id="line2d_41">
    <path clip-path="url(#p5d9e27473b)" d="M 204.715489 422.745333 
L 210.157834 422.745333 
" style="fill:none;stroke:#000000;stroke-linecap:square;"/>
   </g>
   <g id="line2d_42">
    <path clip-path="url(#p5d9e27473b)" d="M 193.053322 427.223 
L 193.053322 418.267667 
" style="fill:none;stroke:#000000;stroke-linecap:square;"/>
   </g>
   <g id="line2d_43">
    <path clip-path="url(#p5d9e27473b)" d="M 210.157834 427.223 
L 210.157834 418.267667 
" style="fill:none;stroke:#000000;stroke-linecap:square;"/>
   </g>
   <g id="line2d_44">
    <g clip-path="url(#p5d9e27473b)">
     <use style="fill-opacity:0;stroke:#000000;" x="214.433962" xlink:href="#m43737e9fdf" y="422.745333"/>
    </g>
   </g>
   <g id="line2d_45">
    <path clip-path="url(#p5d9e27473b)" d="M 242.228793 395.879333 
L 242.228793 377.968667 
L 250.781049 377.968667 
L 250.781049 395.879333 
L 242.228793 395.879333 
" style="fill:none;stroke:#000000;stroke-linecap:square;"/>
   </g>
   <g id="line2d_46">
    <path clip-path="url(#p5d9e27473b)" d="M 242.228793 386.924 
L 231.927212 386.924 
" style="fill:none;stroke:#000000;stroke-linecap:square;"/>
   </g>
   <g id="line2d_47">
    <path clip-path="url(#p5d9e27473b)" d="M 250.781049 386.924 
L 261.082629 386.924 
" style="fill:none;stroke:#000000;stroke-linecap:square;"/>
   </g>
   <g id="line2d_48">
    <path clip-path="url(#p5d9e27473b)" d="M 231.927212 391.401667 
L 231.927212 382.446333 
" style="fill:none;stroke:#000000;stroke-linecap:square;"/>
   </g>
   <g id="line2d_49">
    <path clip-path="url(#p5d9e27473b)" d="M 261.082629 391.401667 
L 261.082629 382.446333 
" style="fill:none;stroke:#000000;stroke-linecap:square;"/>
   </g>
   <g id="line2d_50"/>
   <g id="line2d_51">
    <path clip-path="url(#p5d9e27473b)" d="M 243.783748 360.058 
L 243.783748 342.147333 
L 249.420462 342.147333 
L 249.420462 360.058 
L 243.783748 360.058 
" style="fill:none;stroke:#000000;stroke-linecap:square;"/>
   </g>
   <g id="line2d_52">
    <path clip-path="url(#p5d9e27473b)" d="M 243.783748 351.102667 
L 240.285098 351.102667 
" style="fill:none;stroke:#000000;stroke-linecap:square;"/>
   </g>
   <g id="line2d_53">
    <path clip-path="url(#p5d9e27473b)" d="M 249.420462 351.102667 
L 255.640285 351.102667 
" style="fill:none;stroke:#000000;stroke-linecap:square;"/>
   </g>
   <g id="line2d_54">
    <path clip-path="url(#p5d9e27473b)" d="M 240.285098 355.580333 
L 240.285098 346.625 
" style="fill:none;stroke:#000000;stroke-linecap:square;"/>
   </g>
   <g id="line2d_55">
    <path clip-path="url(#p5d9e27473b)" d="M 255.640285 355.580333 
L 255.640285 346.625 
" style="fill:none;stroke:#000000;stroke-linecap:square;"/>
   </g>
   <g id="line2d_56"/>
   <g id="line2d_57">
    <path clip-path="url(#p5d9e27473b)" d="M 243.20064 324.236667 
L 243.20064 306.326 
L 249.614832 306.326 
L 249.614832 324.236667 
L 243.20064 324.236667 
" style="fill:none;stroke:#000000;stroke-linecap:square;"/>
   </g>
   <g id="line2d_58">
    <path clip-path="url(#p5d9e27473b)" d="M 243.20064 315.281333 
L 236.397709 315.281333 
" style="fill:none;stroke:#000000;stroke-linecap:square;"/>
   </g>
   <g id="line2d_59">
    <path clip-path="url(#p5d9e27473b)" d="M 249.614832 315.281333 
L 257.583979 315.281333 
" style="fill:none;stroke:#000000;stroke-linecap:square;"/>
   </g>
   <g id="line2d_60">
    <path clip-path="url(#p5d9e27473b)" d="M 236.397709 319.759 
L 236.397709 310.803667 
" style="fill:none;stroke:#000000;stroke-linecap:square;"/>
   </g>
   <g id="line2d_61">
    <path clip-path="url(#p5d9e27473b)" d="M 257.583979 319.759 
L 257.583979 310.803667 
" style="fill:none;stroke:#000000;stroke-linecap:square;"/>
   </g>
   <g id="line2d_62">
    <g clip-path="url(#p5d9e27473b)">
     <use style="fill-opacity:0;stroke:#000000;" x="229.594779" xlink:href="#m43737e9fdf" y="315.281333"/>
     <use style="fill-opacity:0;stroke:#000000;" x="263.415063" xlink:href="#m43737e9fdf" y="315.281333"/>
    </g>
   </g>
   <g id="line2d_63">
    <path clip-path="url(#p5d9e27473b)" d="M 245.144335 288.415333 
L 245.144335 270.504667 
L 252.336004 270.504667 
L 252.336004 288.415333 
L 245.144335 288.415333 
" style="fill:none;stroke:#000000;stroke-linecap:square;"/>
   </g>
   <g id="line2d_64">
    <path clip-path="url(#p5d9e27473b)" d="M 245.144335 279.46 
L 241.645684 279.46 
" style="fill:none;stroke:#000000;stroke-linecap:square;"/>
   </g>
   <g id="line2d_65">
    <path clip-path="url(#p5d9e27473b)" d="M 252.336004 279.46 
L 258.944565 279.46 
" style="fill:none;stroke:#000000;stroke-linecap:square;"/>
   </g>
   <g id="line2d_66">
    <path clip-path="url(#p5d9e27473b)" d="M 241.645684 283.937667 
L 241.645684 274.982333 
" style="fill:none;stroke:#000000;stroke-linecap:square;"/>
   </g>
   <g id="line2d_67">
    <path clip-path="url(#p5d9e27473b)" d="M 258.944565 283.937667 
L 258.944565 274.982333 
" style="fill:none;stroke:#000000;stroke-linecap:square;"/>
   </g>
   <g id="line2d_68">
    <g clip-path="url(#p5d9e27473b)">
     <use style="fill-opacity:0;stroke:#000000;" x="226.873606" xlink:href="#m43737e9fdf" y="279.46"/>
    </g>
   </g>
   <g id="line2d_69">
    <path clip-path="url(#p5d9e27473b)" d="M 272.161688 252.594 
L 272.161688 234.683333 
L 280.713944 234.683333 
L 280.713944 252.594 
L 272.161688 252.594 
" style="fill:none;stroke:#000000;stroke-linecap:square;"/>
   </g>
   <g id="line2d_70">
    <path clip-path="url(#p5d9e27473b)" d="M 272.161688 243.638667 
L 263.415063 243.638667 
" style="fill:none;stroke:#000000;stroke-linecap:square;"/>
   </g>
   <g id="line2d_71">
    <path clip-path="url(#p5d9e27473b)" d="M 280.713944 243.638667 
L 287.516874 243.638667 
" style="fill:none;stroke:#000000;stroke-linecap:square;"/>
   </g>
   <g id="line2d_72">
    <path clip-path="url(#p5d9e27473b)" d="M 263.415063 248.116333 
L 263.415063 239.161 
" style="fill:none;stroke:#000000;stroke-linecap:square;"/>
   </g>
   <g id="line2d_73">
    <path clip-path="url(#p5d9e27473b)" d="M 287.516874 248.116333 
L 287.516874 239.161 
" style="fill:none;stroke:#000000;stroke-linecap:square;"/>
   </g>
   <g id="line2d_74"/>
   <g id="line2d_75">
    <path clip-path="url(#p5d9e27473b)" d="M 345.63334 216.772667 
L 345.63334 198.862 
L 358.461723 198.862 
L 358.461723 216.772667 
L 345.63334 216.772667 
" style="fill:none;stroke:#000000;stroke-linecap:square;"/>
   </g>
   <g id="line2d_76">
    <path clip-path="url(#p5d9e27473b)" d="M 345.63334 207.817333 
L 335.331759 207.817333 
" style="fill:none;stroke:#000000;stroke-linecap:square;"/>
   </g>
   <g id="line2d_77">
    <path clip-path="url(#p5d9e27473b)" d="M 358.461723 207.817333 
L 366.81961 207.817333 
" style="fill:none;stroke:#000000;stroke-linecap:square;"/>
   </g>
   <g id="line2d_78">
    <path clip-path="url(#p5d9e27473b)" d="M 335.331759 212.295 
L 335.331759 203.339667 
" style="fill:none;stroke:#000000;stroke-linecap:square;"/>
   </g>
   <g id="line2d_79">
    <path clip-path="url(#p5d9e27473b)" d="M 366.81961 212.295 
L 366.81961 203.339667 
" style="fill:none;stroke:#000000;stroke-linecap:square;"/>
   </g>
   <g id="line2d_80"/>
   <g id="line2d_81">
    <path clip-path="url(#p5d9e27473b)" d="M 363.515329 180.951333 
L 363.515329 163.040667 
L 374.594388 163.040667 
L 374.594388 180.951333 
L 363.515329 180.951333 
" style="fill:none;stroke:#000000;stroke-linecap:square;"/>
   </g>
   <g id="line2d_82">
    <path clip-path="url(#p5d9e27473b)" d="M 363.515329 171.996 
L 355.351812 171.996 
" style="fill:none;stroke:#000000;stroke-linecap:square;"/>
   </g>
   <g id="line2d_83">
    <path clip-path="url(#p5d9e27473b)" d="M 374.594388 171.996 
L 380.036732 171.996 
" style="fill:none;stroke:#000000;stroke-linecap:square;"/>
   </g>
   <g id="line2d_84">
    <path clip-path="url(#p5d9e27473b)" d="M 355.351812 176.473667 
L 355.351812 167.518333 
" style="fill:none;stroke:#000000;stroke-linecap:square;"/>
   </g>
   <g id="line2d_85">
    <path clip-path="url(#p5d9e27473b)" d="M 380.036732 176.473667 
L 380.036732 167.518333 
" style="fill:none;stroke:#000000;stroke-linecap:square;"/>
   </g>
   <g id="line2d_86"/>
   <g id="line2d_87">
    <path clip-path="url(#p5d9e27473b)" d="M 371.484476 145.13 
L 371.484476 127.219333 
L 388.005879 127.219333 
L 388.005879 145.13 
L 371.484476 145.13 
" style="fill:none;stroke:#000000;stroke-linecap:square;"/>
   </g>
   <g id="line2d_88">
    <path clip-path="url(#p5d9e27473b)" d="M 371.484476 136.174667 
L 358.461723 136.174667 
" style="fill:none;stroke:#000000;stroke-linecap:square;"/>
   </g>
   <g id="line2d_89">
    <path clip-path="url(#p5d9e27473b)" d="M 388.005879 136.174667 
L 396.169396 136.174667 
" style="fill:none;stroke:#000000;stroke-linecap:square;"/>
   </g>
   <g id="line2d_90">
    <path clip-path="url(#p5d9e27473b)" d="M 358.461723 140.652333 
L 358.461723 131.697 
" style="fill:none;stroke:#000000;stroke-linecap:square;"/>
   </g>
   <g id="line2d_91">
    <path clip-path="url(#p5d9e27473b)" d="M 396.169396 140.652333 
L 396.169396 131.697 
" style="fill:none;stroke:#000000;stroke-linecap:square;"/>
   </g>
   <g id="line2d_92"/>
   <g id="line2d_93">
    <path clip-path="url(#p5d9e27473b)" d="M 398.113091 109.308667 
L 398.113091 91.398 
L 404.721652 91.398 
L 404.721652 109.308667 
L 398.113091 109.308667 
" style="fill:none;stroke:#000000;stroke-linecap:square;"/>
   </g>
   <g id="line2d_94">
    <path clip-path="url(#p5d9e27473b)" d="M 398.113091 100.353333 
L 389.949574 100.353333 
" style="fill:none;stroke:#000000;stroke-linecap:square;"/>
   </g>
   <g id="line2d_95">
    <path clip-path="url(#p5d9e27473b)" d="M 404.721652 100.353333 
L 413.662647 100.353333 
" style="fill:none;stroke:#000000;stroke-linecap:square;"/>
   </g>
   <g id="line2d_96">
    <path clip-path="url(#p5d9e27473b)" d="M 389.949574 104.831 
L 389.949574 95.875667 
" style="fill:none;stroke:#000000;stroke-linecap:square;"/>
   </g>
   <g id="line2d_97">
    <path clip-path="url(#p5d9e27473b)" d="M 413.662647 104.831 
L 413.662647 95.875667 
" style="fill:none;stroke:#000000;stroke-linecap:square;"/>
   </g>
   <g id="line2d_98">
    <g clip-path="url(#p5d9e27473b)">
     <use style="fill-opacity:0;stroke:#000000;" x="384.118491" xlink:href="#m43737e9fdf" y="100.353333"/>
     <use style="fill-opacity:0;stroke:#000000;" x="385.284707" xlink:href="#m43737e9fdf" y="100.353333"/>
     <use style="fill-opacity:0;stroke:#000000;" x="435.626394" xlink:href="#m43737e9fdf" y="100.353333"/>
     <use style="fill-opacity:0;stroke:#000000;" x="419.299361" xlink:href="#m43737e9fdf" y="100.353333"/>
     <use style="fill-opacity:0;stroke:#000000;" x="415.411972" xlink:href="#m43737e9fdf" y="100.353333"/>
    </g>
   </g>
   <g id="line2d_99">
    <path clip-path="url(#p5d9e27473b)" d="M 700.163214 73.487333 
L 700.163214 55.576667 
L 713.574706 55.576667 
L 713.574706 73.487333 
L 700.163214 73.487333 
" style="fill:none;stroke:#000000;stroke-linecap:square;"/>
   </g>
   <g id="line2d_100">
    <path clip-path="url(#p5d9e27473b)" d="M 700.163214 64.532 
L 695.303978 64.532 
" style="fill:none;stroke:#000000;stroke-linecap:square;"/>
   </g>
   <g id="line2d_101">
    <path clip-path="url(#p5d9e27473b)" d="M 713.574706 64.532 
L 726.014351 64.532 
" style="fill:none;stroke:#000000;stroke-linecap:square;"/>
   </g>
   <g id="line2d_102">
    <path clip-path="url(#p5d9e27473b)" d="M 695.303978 69.009667 
L 695.303978 60.054333 
" style="fill:none;stroke:#000000;stroke-linecap:square;"/>
   </g>
   <g id="line2d_103">
    <path clip-path="url(#p5d9e27473b)" d="M 726.014351 69.009667 
L 726.014351 60.054333 
" style="fill:none;stroke:#000000;stroke-linecap:square;"/>
   </g>
   <g id="line2d_104"/>
   <g id="line2d_105">
    <path clip-path="url(#p5d9e27473b)" d="M 806.483303 37.666 
L 806.483303 19.755333 
L 816.007406 19.755333 
L 816.007406 37.666 
L 806.483303 37.666 
" style="fill:none;stroke:#000000;stroke-linecap:square;"/>
   </g>
   <g id="line2d_106">
    <path clip-path="url(#p5d9e27473b)" d="M 806.483303 28.710667 
L 793.46055 28.710667 
" style="fill:none;stroke:#000000;stroke-linecap:square;"/>
   </g>
   <g id="line2d_107">
    <path clip-path="url(#p5d9e27473b)" d="M 816.007406 28.710667 
L 820.672273 28.710667 
" style="fill:none;stroke:#000000;stroke-linecap:square;"/>
   </g>
   <g id="line2d_108">
    <path clip-path="url(#p5d9e27473b)" d="M 793.46055 33.188333 
L 793.46055 24.233 
" style="fill:none;stroke:#000000;stroke-linecap:square;"/>
   </g>
   <g id="line2d_109">
    <path clip-path="url(#p5d9e27473b)" d="M 820.672273 33.188333 
L 820.672273 24.233 
" style="fill:none;stroke:#000000;stroke-linecap:square;"/>
   </g>
   <g id="line2d_110"/>
   <g id="line2d_111">
    <path clip-path="url(#p5d9e27473b)" d="M 187.999717 539.164667 
L 187.999717 521.254 
" style="fill:none;stroke:#ff7f0e;stroke-linecap:square;"/>
   </g>
   <g id="line2d_112">
    <path clip-path="url(#p5d9e27473b)" d="M 196.357603 503.343333 
L 196.357603 485.432667 
" style="fill:none;stroke:#ff7f0e;stroke-linecap:square;"/>
   </g>
   <g id="line2d_113">
    <path clip-path="url(#p5d9e27473b)" d="M 197.32945 467.522 
L 197.32945 449.611333 
" style="fill:none;stroke:#ff7f0e;stroke-linecap:square;"/>
   </g>
   <g id="line2d_114">
    <path clip-path="url(#p5d9e27473b)" d="M 201.605578 431.700667 
L 201.605578 413.79 
" style="fill:none;stroke:#ff7f0e;stroke-linecap:square;"/>
   </g>
   <g id="line2d_115">
    <path clip-path="url(#p5d9e27473b)" d="M 245.533073 395.879333 
L 245.533073 377.968667 
" style="fill:none;stroke:#ff7f0e;stroke-linecap:square;"/>
   </g>
   <g id="line2d_116">
    <path clip-path="url(#p5d9e27473b)" d="M 246.310551 360.058 
L 246.310551 342.147333 
" style="fill:none;stroke:#ff7f0e;stroke-linecap:square;"/>
   </g>
   <g id="line2d_117">
    <path clip-path="url(#p5d9e27473b)" d="M 246.89366 324.236667 
L 246.89366 306.326 
" style="fill:none;stroke:#ff7f0e;stroke-linecap:square;"/>
   </g>
   <g id="line2d_118">
    <path clip-path="url(#p5d9e27473b)" d="M 248.059876 288.415333 
L 248.059876 270.504667 
" style="fill:none;stroke:#ff7f0e;stroke-linecap:square;"/>
   </g>
   <g id="line2d_119">
    <path clip-path="url(#p5d9e27473b)" d="M 275.660338 252.594 
L 275.660338 234.683333 
" style="fill:none;stroke:#ff7f0e;stroke-linecap:square;"/>
   </g>
   <g id="line2d_120">
    <path clip-path="url(#p5d9e27473b)" d="M 353.796856 216.772667 
L 353.796856 198.862 
" style="fill:none;stroke:#ff7f0e;stroke-linecap:square;"/>
   </g>
   <g id="line2d_121">
    <path clip-path="url(#p5d9e27473b)" d="M 368.374565 180.951333 
L 368.374565 163.040667 
" style="fill:none;stroke:#ff7f0e;stroke-linecap:square;"/>
   </g>
   <g id="line2d_122">
    <path clip-path="url(#p5d9e27473b)" d="M 381.591688 145.13 
L 381.591688 127.219333 
" style="fill:none;stroke:#ff7f0e;stroke-linecap:square;"/>
   </g>
   <g id="line2d_123">
    <path clip-path="url(#p5d9e27473b)" d="M 401.223002 109.308667 
L 401.223002 91.398 
" style="fill:none;stroke:#ff7f0e;stroke-linecap:square;"/>
   </g>
   <g id="line2d_124">
    <path clip-path="url(#p5d9e27473b)" d="M 703.661864 73.487333 
L 703.661864 55.576667 
" style="fill:none;stroke:#ff7f0e;stroke-linecap:square;"/>
   </g>
   <g id="line2d_125">
    <path clip-path="url(#p5d9e27473b)" d="M 810.9538 37.666 
L 810.9538 19.755333 
" style="fill:none;stroke:#ff7f0e;stroke-linecap:square;"/>
   </g>
   <g id="patch_3">
    <path d="M 137.59 548.12 
L 137.59 10.8 
" style="fill:none;stroke:#000000;stroke-linecap:square;stroke-linejoin:miter;stroke-width:0.8;"/>
   </g>
   <g id="patch_4">
    <path d="M 853.2 548.12 
L 853.2 10.8 
" style="fill:none;stroke:#000000;stroke-linecap:square;stroke-linejoin:miter;stroke-width:0.8;"/>
   </g>
   <g id="patch_5">
    <path d="M 137.59 548.12 
L 853.2 548.12 
" style="fill:none;stroke:#000000;stroke-linecap:square;stroke-linejoin:miter;stroke-width:0.8;"/>
   </g>
   <g id="patch_6">
    <path d="M 137.59 10.8 
L 853.2 10.8 
" style="fill:none;stroke:#000000;stroke-linecap:square;stroke-linejoin:miter;stroke-width:0.8;"/>
   </g>
  </g>
 </g>
 <defs>
  <clipPath id="p5d9e27473b">
   <rect height="537.32" width="715.61" x="137.59" y="10.8"/>
  </clipPath>
 </defs>
</svg>
