<?xml version="1.0" encoding="utf-8" standalone="no"?>
<!DOCTYPE svg PUBLIC "-//W3C//DTD SVG 1.1//EN"
  "http://www.w3.org/Graphics/SVG/1.1/DTD/svg11.dtd">
<!-- Created with matplotlib (https://matplotlib.org/) -->
<svg height="540pt" version="1.1" viewBox="0 0 720 540" width="720pt" xmlns="http://www.w3.org/2000/svg" xmlns:xlink="http://www.w3.org/1999/xlink">
 <defs>
  <style type="text/css">
*{stroke-linecap:butt;stroke-linejoin:round;}
  </style>
 </defs>
 <g id="figure_1">
  <g id="patch_1">
   <path d="M 0 540 
L 720 540 
L 720 0 
L 0 0 
z
" style="fill:#ffffff;"/>
  </g>
  <g id="axes_1">
   <g id="patch_2">
    <path d="M 90 480.6 
L 648 480.6 
L 648 64.8 
L 90 64.8 
z
" style="fill:#ffffff;"/>
   </g>
   <g id="patch_3">
    <path clip-path="url(#p48e5246a07)" d="M 90 192774.280035 
L 90 192774.280035 
L 101.387755 192774.280035 
L 101.387755 403.825567 
L 112.77551 403.825567 
L 112.77551 385.194161 
L 124.163265 385.194161 
L 124.163265 312.09676 
L 135.55102 312.09676 
L 135.55102 293.465354 
L 146.938776 293.465354 
L 146.938776 232.85313 
L 158.326531 232.85313 
L 158.326531 209.509148 
L 169.714286 209.509148 
L 169.714286 160.205839 
L 181.102041 160.205839 
L 181.102041 132.597005 
L 192.489796 132.597005 
L 192.489796 107.569754 
L 203.877551 107.569754 
L 203.877551 108.77985 
L 215.265306 108.77985 
L 215.265306 104.041264 
L 226.653061 104.041264 
L 226.653061 83.7 
L 238.040816 83.7 
L 238.040816 99.557225 
L 249.428571 99.557225 
L 249.428571 89.78357 
L 260.816327 89.78357 
L 260.816327 117.780341 
L 272.204082 117.780341 
L 272.204082 105.786871 
L 283.591837 105.786871 
L 283.591837 103.467412 
L 294.979592 103.467412 
L 294.979592 124.124797 
L 306.367347 124.124797 
L 306.367347 140.231319 
L 317.755102 140.231319 
L 317.755102 157.97917 
L 329.142857 157.97917 
L 329.142857 164.845653 
L 340.530612 164.845653 
L 340.530612 163.661304 
L 351.918367 163.661304 
L 351.918367 166.047043 
L 363.306122 166.047043 
L 363.306122 181.99923 
L 374.693878 181.99923 
L 374.693878 198.105752 
L 386.081633 198.105752 
L 386.081633 227.632983 
L 397.469388 227.632983 
L 397.469388 225.140405 
L 408.857143 225.140405 
L 408.857143 269.445294 
L 420.244898 269.445294 
L 420.244898 261.487356 
L 431.632653 261.487356 
L 431.632653 336.11682 
L 443.020408 336.11682 
L 443.020408 336.11682 
L 454.408163 336.11682 
L 454.408163 269.445294 
L 465.795918 269.445294 
L 465.795918 293.465354 
L 477.183673 293.465354 
L 477.183673 345.951134 
L 488.571429 345.951134 
L 488.571429 345.951134 
L 499.959184 345.951134 
L 499.959184 385.194161 
L 511.346939 385.194161 
L 511.346939 345.951134 
L 522.734694 345.951134 
L 522.734694 403.825567 
L 534.122449 403.825567 
L 534.122449 319.361789 
L 545.510204 319.361789 
L 545.510204 461.7 
L 556.897959 461.7 
L 556.897959 345.951134 
L 568.285714 345.951134 
L 568.285714 357.100358 
L 579.673469 357.100358 
L 579.673469 427.845627 
L 591.061224 427.845627 
L 591.061224 461.7 
L 602.44898 461.7 
L 602.44898 461.7 
L 613.836735 461.7 
L 613.836735 385.194161 
L 625.22449 385.194161 
L 625.22449 403.825567 
L 636.612245 403.825567 
L 636.612245 192774.280035 
L 648 192774.280035 
L 648 192774.280035 
z
" style="fill:#1f77b4;opacity:0.2;"/>
   </g>
   <g id="patch_4">
    <path clip-path="url(#p48e5246a07)" d="M 90 192774.280035 
L 90 192774.280035 
L 101.387755 192774.280035 
L 101.387755 192774.280035 
L 112.77551 192774.280035 
L 112.77551 192774.280035 
L 124.163265 192774.280035 
L 124.163265 192774.280035 
L 135.55102 192774.280035 
L 135.55102 461.7 
L 146.938776 461.7 
L 146.938776 461.7 
L 158.326531 461.7 
L 158.326531 385.194161 
L 169.714286 385.194161 
L 169.714286 385.194161 
L 181.102041 385.194161 
L 181.102041 283.014838 
L 192.489796 283.014838 
L 192.489796 273.728036 
L 203.877551 273.728036 
L 203.877551 265.371552 
L 215.265306 265.371552 
L 215.265306 254.222327 
L 226.653061 254.222327 
L 226.653061 247.539149 
L 238.040816 247.539149 
L 238.040816 194.626283 
L 249.428571 194.626283 
L 249.428571 167.265972 
L 260.816327 167.265972 
L 260.816327 174.978697 
L 272.204082 174.978697 
L 272.204082 166.047043 
L 283.591837 166.047043 
L 283.591837 132.597005 
L 294.979592 132.597005 
L 294.979592 130.19985 
L 306.367347 130.19985 
L 306.367347 135.904176 
L 317.755102 135.904176 
L 317.755102 121.245368 
L 329.142857 121.245368 
L 329.142857 110.007742 
L 340.530612 110.007742 
L 340.530612 113.80363 
L 351.918367 113.80363 
L 351.918367 108.77985 
L 363.306122 108.77985 
L 363.306122 115.768312 
L 374.693878 115.768312 
L 374.693878 127.107083 
L 386.081633 127.107083 
L 386.081633 142.026983 
L 397.469388 142.026983 
L 397.469388 151.634714 
L 408.857143 151.634714 
L 408.857143 152.659208 
L 420.244898 152.659208 
L 420.244898 161.341845 
L 431.632653 161.341845 
L 431.632653 189.664716 
L 443.020408 189.664716 
L 443.020408 153.696428 
L 454.408163 153.696428 
L 454.408163 192.939455 
L 465.795918 192.939455 
L 465.795918 167.265972 
L 477.183673 167.265972 
L 477.183673 179.119801 
L 488.571429 179.119801 
L 488.571429 194.626283 
L 499.959184 194.626283 
L 499.959184 230.202267 
L 511.346939 230.202267 
L 511.346939 220.367954 
L 522.734694 220.367954 
L 522.734694 244.388014 
L 534.122449 244.388014 
L 534.122449 173.642746 
L 545.510204 173.642746 
L 545.510204 199.901416 
L 556.897959 199.901416 
L 556.897959 227.632983 
L 568.285714 227.632983 
L 568.285714 199.901416 
L 579.673469 199.901416 
L 579.673469 218.080272 
L 591.061224 218.080272 
L 591.061224 250.813888 
L 602.44898 250.813888 
L 602.44898 273.728036 
L 613.836735 273.728036 
L 613.836735 241.351492 
L 625.22449 241.351492 
L 625.22449 209.509148 
L 636.612245 209.509148 
L 636.612245 327.319728 
L 648 327.319728 
L 648 192774.280035 
z
" style="fill:#ff7f0e;opacity:0.2;"/>
   </g>
   <g id="matplotlib.axis_1">
    <g id="xtick_1">
     <g id="line2d_1">
      <defs>
       <path d="M 0 0 
L 0 3.5 
" id="mbc4dbae2e0" style="stroke:#000000;stroke-width:0.8;"/>
      </defs>
      <g>
       <use style="stroke:#000000;stroke-width:0.8;" x="132.923077" xlink:href="#mbc4dbae2e0" y="480.6"/>
      </g>
     </g>
     <g id="text_1">
      <!-- −4 -->
      <defs>
       <path d="M 10.59375 35.5 
L 73.1875 35.5 
L 73.1875 27.203125 
L 10.59375 27.203125 
z
" id="DejaVuSans-8722"/>
       <path d="M 37.796875 64.3125 
L 12.890625 25.390625 
L 37.796875 25.390625 
z
M 35.203125 72.90625 
L 47.609375 72.90625 
L 47.609375 25.390625 
L 58.015625 25.390625 
L 58.015625 17.1875 
L 47.609375 17.1875 
L 47.609375 0 
L 37.796875 0 
L 37.796875 17.1875 
L 4.890625 17.1875 
L 4.890625 26.703125 
z
" id="DejaVuSans-52"/>
      </defs>
      <g transform="translate(113.817202 507.29515)scale(0.2592 -0.2592)">
       <use xlink:href="#DejaVuSans-8722"/>
       <use x="83.789062" xlink:href="#DejaVuSans-52"/>
      </g>
     </g>
    </g>
    <g id="xtick_2">
     <g id="line2d_2">
      <g>
       <use style="stroke:#000000;stroke-width:0.8;" x="218.769231" xlink:href="#mbc4dbae2e0" y="480.6"/>
      </g>
     </g>
     <g id="text_2">
      <!-- −2 -->
      <defs>
       <path d="M 19.1875 8.296875 
L 53.609375 8.296875 
L 53.609375 0 
L 7.328125 0 
L 7.328125 8.296875 
Q 12.9375 14.109375 22.625 23.890625 
Q 32.328125 33.6875 34.8125 36.53125 
Q 39.546875 41.84375 41.421875 45.53125 
Q 43.3125 49.21875 43.3125 52.78125 
Q 43.3125 58.59375 39.234375 62.25 
Q 35.15625 65.921875 28.609375 65.921875 
Q 23.96875 65.921875 18.8125 64.3125 
Q 13.671875 62.703125 7.8125 59.421875 
L 7.8125 69.390625 
Q 13.765625 71.78125 18.9375 73 
Q 24.125 74.21875 28.421875 74.21875 
Q 39.75 74.21875 46.484375 68.546875 
Q 53.21875 62.890625 53.21875 53.421875 
Q 53.21875 48.921875 51.53125 44.890625 
Q 49.859375 40.875 45.40625 35.40625 
Q 44.1875 33.984375 37.640625 27.21875 
Q 31.109375 20.453125 19.1875 8.296875 
z
" id="DejaVuSans-50"/>
      </defs>
      <g transform="translate(199.663356 507.29515)scale(0.2592 -0.2592)">
       <use xlink:href="#DejaVuSans-8722"/>
       <use x="83.789062" xlink:href="#DejaVuSans-50"/>
      </g>
     </g>
    </g>
    <g id="xtick_3">
     <g id="line2d_3">
      <g>
       <use style="stroke:#000000;stroke-width:0.8;" x="304.615385" xlink:href="#mbc4dbae2e0" y="480.6"/>
      </g>
     </g>
     <g id="text_3">
      <!-- 0 -->
      <defs>
       <path d="M 31.78125 66.40625 
Q 24.171875 66.40625 20.328125 58.90625 
Q 16.5 51.421875 16.5 36.375 
Q 16.5 21.390625 20.328125 13.890625 
Q 24.171875 6.390625 31.78125 6.390625 
Q 39.453125 6.390625 43.28125 13.890625 
Q 47.125 21.390625 47.125 36.375 
Q 47.125 51.421875 43.28125 58.90625 
Q 39.453125 66.40625 31.78125 66.40625 
z
M 31.78125 74.21875 
Q 44.046875 74.21875 50.515625 64.515625 
Q 56.984375 54.828125 56.984375 36.375 
Q 56.984375 17.96875 50.515625 8.265625 
Q 44.046875 -1.421875 31.78125 -1.421875 
Q 19.53125 -1.421875 13.0625 8.265625 
Q 6.59375 17.96875 6.59375 36.375 
Q 6.59375 54.828125 13.0625 64.515625 
Q 19.53125 74.21875 31.78125 74.21875 
z
" id="DejaVuSans-48"/>
      </defs>
      <g transform="translate(296.369585 507.29515)scale(0.2592 -0.2592)">
       <use xlink:href="#DejaVuSans-48"/>
      </g>
     </g>
    </g>
    <g id="xtick_4">
     <g id="line2d_4">
      <g>
       <use style="stroke:#000000;stroke-width:0.8;" x="390.461538" xlink:href="#mbc4dbae2e0" y="480.6"/>
      </g>
     </g>
     <g id="text_4">
      <!-- 2 -->
      <g transform="translate(382.215738 507.29515)scale(0.2592 -0.2592)">
       <use xlink:href="#DejaVuSans-50"/>
      </g>
     </g>
    </g>
    <g id="xtick_5">
     <g id="line2d_5">
      <g>
       <use style="stroke:#000000;stroke-width:0.8;" x="476.307692" xlink:href="#mbc4dbae2e0" y="480.6"/>
      </g>
     </g>
     <g id="text_5">
      <!-- 4 -->
      <g transform="translate(468.061892 507.29515)scale(0.2592 -0.2592)">
       <use xlink:href="#DejaVuSans-52"/>
      </g>
     </g>
    </g>
    <g id="xtick_6">
     <g id="line2d_6">
      <g>
       <use style="stroke:#000000;stroke-width:0.8;" x="562.153846" xlink:href="#mbc4dbae2e0" y="480.6"/>
      </g>
     </g>
     <g id="text_6">
      <!-- 6 -->
      <defs>
       <path d="M 33.015625 40.375 
Q 26.375 40.375 22.484375 35.828125 
Q 18.609375 31.296875 18.609375 23.390625 
Q 18.609375 15.53125 22.484375 10.953125 
Q 26.375 6.390625 33.015625 6.390625 
Q 39.65625 6.390625 43.53125 10.953125 
Q 47.40625 15.53125 47.40625 23.390625 
Q 47.40625 31.296875 43.53125 35.828125 
Q 39.65625 40.375 33.015625 40.375 
z
M 52.59375 71.296875 
L 52.59375 62.3125 
Q 48.875 64.0625 45.09375 64.984375 
Q 41.3125 65.921875 37.59375 65.921875 
Q 27.828125 65.921875 22.671875 59.328125 
Q 17.53125 52.734375 16.796875 39.40625 
Q 19.671875 43.65625 24.015625 45.921875 
Q 28.375 48.1875 33.59375 48.1875 
Q 44.578125 48.1875 50.953125 41.515625 
Q 57.328125 34.859375 57.328125 23.390625 
Q 57.328125 12.15625 50.6875 5.359375 
Q 44.046875 -1.421875 33.015625 -1.421875 
Q 20.359375 -1.421875 13.671875 8.265625 
Q 6.984375 17.96875 6.984375 36.375 
Q 6.984375 53.65625 15.1875 63.9375 
Q 23.390625 74.21875 37.203125 74.21875 
Q 40.921875 74.21875 44.703125 73.484375 
Q 48.484375 72.75 52.59375 71.296875 
z
" id="DejaVuSans-54"/>
      </defs>
      <g transform="translate(553.908046 507.29515)scale(0.2592 -0.2592)">
       <use xlink:href="#DejaVuSans-54"/>
      </g>
     </g>
    </g>
    <g id="xtick_7">
     <g id="line2d_7">
      <g>
       <use style="stroke:#000000;stroke-width:0.8;" x="648" xlink:href="#mbc4dbae2e0" y="480.6"/>
      </g>
     </g>
     <g id="text_7">
      <!-- 8 -->
      <defs>
       <path d="M 31.78125 34.625 
Q 24.75 34.625 20.71875 30.859375 
Q 16.703125 27.09375 16.703125 20.515625 
Q 16.703125 13.921875 20.71875 10.15625 
Q 24.75 6.390625 31.78125 6.390625 
Q 38.8125 6.390625 42.859375 10.171875 
Q 46.921875 13.96875 46.921875 20.515625 
Q 46.921875 27.09375 42.890625 30.859375 
Q 38.875 34.625 31.78125 34.625 
z
M 21.921875 38.8125 
Q 15.578125 40.375 12.03125 44.71875 
Q 8.5 49.078125 8.5 55.328125 
Q 8.5 64.0625 14.71875 69.140625 
Q 20.953125 74.21875 31.78125 74.21875 
Q 42.671875 74.21875 48.875 69.140625 
Q 55.078125 64.0625 55.078125 55.328125 
Q 55.078125 49.078125 51.53125 44.71875 
Q 48 40.375 41.703125 38.8125 
Q 48.828125 37.15625 52.796875 32.3125 
Q 56.78125 27.484375 56.78125 20.515625 
Q 56.78125 9.90625 50.3125 4.234375 
Q 43.84375 -1.421875 31.78125 -1.421875 
Q 19.734375 -1.421875 13.25 4.234375 
Q 6.78125 9.90625 6.78125 20.515625 
Q 6.78125 27.484375 10.78125 32.3125 
Q 14.796875 37.15625 21.921875 38.8125 
z
M 18.3125 54.390625 
Q 18.3125 48.734375 21.84375 45.5625 
Q 25.390625 42.390625 31.78125 42.390625 
Q 38.140625 42.390625 41.71875 45.5625 
Q 45.3125 48.734375 45.3125 54.390625 
Q 45.3125 60.0625 41.71875 63.234375 
Q 38.140625 66.40625 31.78125 66.40625 
Q 25.390625 66.40625 21.84375 63.234375 
Q 18.3125 60.0625 18.3125 54.390625 
z
" id="DejaVuSans-56"/>
      </defs>
      <g transform="translate(639.7542 507.29515)scale(0.2592 -0.2592)">
       <use xlink:href="#DejaVuSans-56"/>
      </g>
     </g>
    </g>
    <g id="text_8">
     <!-- BDTMulti -->
     <defs>
      <path d="M 19.671875 34.8125 
L 19.671875 8.109375 
L 35.5 8.109375 
Q 43.453125 8.109375 47.28125 11.40625 
Q 51.125 14.703125 51.125 21.484375 
Q 51.125 28.328125 47.28125 31.5625 
Q 43.453125 34.8125 35.5 34.8125 
z
M 19.671875 64.796875 
L 19.671875 42.828125 
L 34.28125 42.828125 
Q 41.5 42.828125 45.03125 45.53125 
Q 48.578125 48.25 48.578125 53.8125 
Q 48.578125 59.328125 45.03125 62.0625 
Q 41.5 64.796875 34.28125 64.796875 
z
M 9.8125 72.90625 
L 35.015625 72.90625 
Q 46.296875 72.90625 52.390625 68.21875 
Q 58.5 63.53125 58.5 54.890625 
Q 58.5 48.1875 55.375 44.234375 
Q 52.25 40.28125 46.1875 39.3125 
Q 53.46875 37.75 57.5 32.78125 
Q 61.53125 27.828125 61.53125 20.40625 
Q 61.53125 10.640625 54.890625 5.3125 
Q 48.25 0 35.984375 0 
L 9.8125 0 
z
" id="DejaVuSans-66"/>
      <path d="M 19.671875 64.796875 
L 19.671875 8.109375 
L 31.59375 8.109375 
Q 46.6875 8.109375 53.6875 14.9375 
Q 60.6875 21.78125 60.6875 36.53125 
Q 60.6875 51.171875 53.6875 57.984375 
Q 46.6875 64.796875 31.59375 64.796875 
z
M 9.8125 72.90625 
L 30.078125 72.90625 
Q 51.265625 72.90625 61.171875 64.09375 
Q 71.09375 55.28125 71.09375 36.53125 
Q 71.09375 17.671875 61.125 8.828125 
Q 51.171875 0 30.078125 0 
L 9.8125 0 
z
" id="DejaVuSans-68"/>
      <path d="M -0.296875 72.90625 
L 61.375 72.90625 
L 61.375 64.59375 
L 35.5 64.59375 
L 35.5 0 
L 25.59375 0 
L 25.59375 64.59375 
L -0.296875 64.59375 
z
" id="DejaVuSans-84"/>
      <path d="M 9.8125 72.90625 
L 24.515625 72.90625 
L 43.109375 23.296875 
L 61.8125 72.90625 
L 76.515625 72.90625 
L 76.515625 0 
L 66.890625 0 
L 66.890625 64.015625 
L 48.09375 14.015625 
L 38.1875 14.015625 
L 19.390625 64.015625 
L 19.390625 0 
L 9.8125 0 
z
" id="DejaVuSans-77"/>
      <path d="M 8.5 21.578125 
L 8.5 54.6875 
L 17.484375 54.6875 
L 17.484375 21.921875 
Q 17.484375 14.15625 20.5 10.265625 
Q 23.53125 6.390625 29.59375 6.390625 
Q 36.859375 6.390625 41.078125 11.03125 
Q 45.3125 15.671875 45.3125 23.6875 
L 45.3125 54.6875 
L 54.296875 54.6875 
L 54.296875 0 
L 45.3125 0 
L 45.3125 8.40625 
Q 42.046875 3.421875 37.71875 1 
Q 33.40625 -1.421875 27.6875 -1.421875 
Q 18.265625 -1.421875 13.375 4.4375 
Q 8.5 10.296875 8.5 21.578125 
z
M 31.109375 56 
z
" id="DejaVuSans-117"/>
      <path d="M 9.421875 75.984375 
L 18.40625 75.984375 
L 18.40625 0 
L 9.421875 0 
z
" id="DejaVuSans-108"/>
      <path d="M 18.3125 70.21875 
L 18.3125 54.6875 
L 36.8125 54.6875 
L 36.8125 47.703125 
L 18.3125 47.703125 
L 18.3125 18.015625 
Q 18.3125 11.328125 20.140625 9.421875 
Q 21.96875 7.515625 27.59375 7.515625 
L 36.8125 7.515625 
L 36.8125 0 
L 27.59375 0 
Q 17.1875 0 13.234375 3.875 
Q 9.28125 7.765625 9.28125 18.015625 
L 9.28125 47.703125 
L 2.6875 47.703125 
L 2.6875 54.6875 
L 9.28125 54.6875 
L 9.28125 70.21875 
z
" id="DejaVuSans-116"/>
      <path d="M 9.421875 54.6875 
L 18.40625 54.6875 
L 18.40625 0 
L 9.421875 0 
z
M 9.421875 75.984375 
L 18.40625 75.984375 
L 18.40625 64.59375 
L 9.421875 64.59375 
z
" id="DejaVuSans-105"/>
     </defs>
     <g transform="translate(310.536225 536.38085)scale(0.2592 -0.2592)">
      <use xlink:href="#DejaVuSans-66"/>
      <use x="68.603516" xlink:href="#DejaVuSans-68"/>
      <use x="145.605469" xlink:href="#DejaVuSans-84"/>
      <use x="206.689453" xlink:href="#DejaVuSans-77"/>
      <use x="292.96875" xlink:href="#DejaVuSans-117"/>
      <use x="356.347656" xlink:href="#DejaVuSans-108"/>
      <use x="384.130859" xlink:href="#DejaVuSans-116"/>
      <use x="423.339844" xlink:href="#DejaVuSans-105"/>
     </g>
    </g>
   </g>
   <g id="matplotlib.axis_2">
    <g id="ytick_1">
     <g id="line2d_8">
      <defs>
       <path d="M 0 0 
L -3.5 0 
" id="ma4a8967ae9" style="stroke:#000000;stroke-width:0.8;"/>
      </defs>
      <g>
       <use style="stroke:#000000;stroke-width:0.8;" x="90" xlink:href="#ma4a8967ae9" y="327.319728"/>
      </g>
     </g>
     <g id="text_9">
      <!-- $\mathdefault{10^{1}}$ -->
      <defs>
       <path d="M 12.40625 8.296875 
L 28.515625 8.296875 
L 28.515625 63.921875 
L 10.984375 60.40625 
L 10.984375 69.390625 
L 28.421875 72.90625 
L 38.28125 72.90625 
L 38.28125 8.296875 
L 54.390625 8.296875 
L 54.390625 0 
L 12.40625 0 
z
" id="DejaVuSans-49"/>
      </defs>
      <g transform="translate(37.3808 337.167303)scale(0.2592 -0.2592)">
       <use transform="translate(0 0.684375)" xlink:href="#DejaVuSans-49"/>
       <use transform="translate(63.623047 0.684375)" xlink:href="#DejaVuSans-48"/>
       <use transform="translate(128.203125 38.965625)scale(0.7)" xlink:href="#DejaVuSans-49"/>
      </g>
     </g>
    </g>
    <g id="ytick_2">
     <g id="line2d_9">
      <g>
       <use style="stroke:#000000;stroke-width:0.8;" x="90" xlink:href="#ma4a8967ae9" y="135.065022"/>
      </g>
     </g>
     <g id="text_10">
      <!-- $\mathdefault{10^{2}}$ -->
      <g transform="translate(37.3808 144.912597)scale(0.2592 -0.2592)">
       <use transform="translate(0 0.765625)" xlink:href="#DejaVuSans-49"/>
       <use transform="translate(63.623047 0.765625)" xlink:href="#DejaVuSans-48"/>
       <use transform="translate(128.203125 39.046875)scale(0.7)" xlink:href="#DejaVuSans-50"/>
      </g>
     </g>
    </g>
    <g id="ytick_3">
     <g id="line2d_10">
      <defs>
       <path d="M 0 0 
L -2 0 
" id="m193b7daf3d" style="stroke:#000000;stroke-width:0.6;"/>
      </defs>
      <g>
       <use style="stroke:#000000;stroke-width:0.6;" x="90" xlink:href="#m193b7daf3d" y="461.7"/>
      </g>
     </g>
    </g>
    <g id="ytick_4">
     <g id="line2d_11">
      <g>
       <use style="stroke:#000000;stroke-width:0.6;" x="90" xlink:href="#m193b7daf3d" y="427.845627"/>
      </g>
     </g>
    </g>
    <g id="ytick_5">
     <g id="line2d_12">
      <g>
       <use style="stroke:#000000;stroke-width:0.6;" x="90" xlink:href="#m193b7daf3d" y="403.825567"/>
      </g>
     </g>
    </g>
    <g id="ytick_6">
     <g id="line2d_13">
      <g>
       <use style="stroke:#000000;stroke-width:0.6;" x="90" xlink:href="#m193b7daf3d" y="385.194161"/>
      </g>
     </g>
    </g>
    <g id="ytick_7">
     <g id="line2d_14">
      <g>
       <use style="stroke:#000000;stroke-width:0.6;" x="90" xlink:href="#m193b7daf3d" y="369.971194"/>
      </g>
     </g>
    </g>
    <g id="ytick_8">
     <g id="line2d_15">
      <g>
       <use style="stroke:#000000;stroke-width:0.6;" x="90" xlink:href="#m193b7daf3d" y="357.100358"/>
      </g>
     </g>
    </g>
    <g id="ytick_9">
     <g id="line2d_16">
      <g>
       <use style="stroke:#000000;stroke-width:0.6;" x="90" xlink:href="#m193b7daf3d" y="345.951134"/>
      </g>
     </g>
    </g>
    <g id="ytick_10">
     <g id="line2d_17">
      <g>
       <use style="stroke:#000000;stroke-width:0.6;" x="90" xlink:href="#m193b7daf3d" y="336.11682"/>
      </g>
     </g>
    </g>
    <g id="ytick_11">
     <g id="line2d_18">
      <g>
       <use style="stroke:#000000;stroke-width:0.6;" x="90" xlink:href="#m193b7daf3d" y="269.445294"/>
      </g>
     </g>
    </g>
    <g id="ytick_12">
     <g id="line2d_19">
      <g>
       <use style="stroke:#000000;stroke-width:0.6;" x="90" xlink:href="#m193b7daf3d" y="235.590921"/>
      </g>
     </g>
    </g>
    <g id="ytick_13">
     <g id="line2d_20">
      <g>
       <use style="stroke:#000000;stroke-width:0.6;" x="90" xlink:href="#m193b7daf3d" y="211.570861"/>
      </g>
     </g>
    </g>
    <g id="ytick_14">
     <g id="line2d_21">
      <g>
       <use style="stroke:#000000;stroke-width:0.6;" x="90" xlink:href="#m193b7daf3d" y="192.939455"/>
      </g>
     </g>
    </g>
    <g id="ytick_15">
     <g id="line2d_22">
      <g>
       <use style="stroke:#000000;stroke-width:0.6;" x="90" xlink:href="#m193b7daf3d" y="177.716488"/>
      </g>
     </g>
    </g>
    <g id="ytick_16">
     <g id="line2d_23">
      <g>
       <use style="stroke:#000000;stroke-width:0.6;" x="90" xlink:href="#m193b7daf3d" y="164.845653"/>
      </g>
     </g>
    </g>
    <g id="ytick_17">
     <g id="line2d_24">
      <g>
       <use style="stroke:#000000;stroke-width:0.6;" x="90" xlink:href="#m193b7daf3d" y="153.696428"/>
      </g>
     </g>
    </g>
    <g id="ytick_18">
     <g id="line2d_25">
      <g>
       <use style="stroke:#000000;stroke-width:0.6;" x="90" xlink:href="#m193b7daf3d" y="143.862115"/>
      </g>
     </g>
    </g>
    <g id="ytick_19">
     <g id="line2d_26">
      <g>
       <use style="stroke:#000000;stroke-width:0.6;" x="90" xlink:href="#m193b7daf3d" y="77.190589"/>
      </g>
     </g>
    </g>
    <g id="text_11">
     <!-- Count -->
     <defs>
      <path d="M 64.40625 67.28125 
L 64.40625 56.890625 
Q 59.421875 61.53125 53.78125 63.8125 
Q 48.140625 66.109375 41.796875 66.109375 
Q 29.296875 66.109375 22.65625 58.46875 
Q 16.015625 50.828125 16.015625 36.375 
Q 16.015625 21.96875 22.65625 14.328125 
Q 29.296875 6.6875 41.796875 6.6875 
Q 48.140625 6.6875 53.78125 8.984375 
Q 59.421875 11.28125 64.40625 15.921875 
L 64.40625 5.609375 
Q 59.234375 2.09375 53.4375 0.328125 
Q 47.65625 -1.421875 41.21875 -1.421875 
Q 24.65625 -1.421875 15.125 8.703125 
Q 5.609375 18.84375 5.609375 36.375 
Q 5.609375 53.953125 15.125 64.078125 
Q 24.65625 74.21875 41.21875 74.21875 
Q 47.75 74.21875 53.53125 72.484375 
Q 59.328125 70.75 64.40625 67.28125 
z
" id="DejaVuSans-67"/>
      <path d="M 30.609375 48.390625 
Q 23.390625 48.390625 19.1875 42.75 
Q 14.984375 37.109375 14.984375 27.296875 
Q 14.984375 17.484375 19.15625 11.84375 
Q 23.34375 6.203125 30.609375 6.203125 
Q 37.796875 6.203125 41.984375 11.859375 
Q 46.1875 17.53125 46.1875 27.296875 
Q 46.1875 37.015625 41.984375 42.703125 
Q 37.796875 48.390625 30.609375 48.390625 
z
M 30.609375 56 
Q 42.328125 56 49.015625 48.375 
Q 55.71875 40.765625 55.71875 27.296875 
Q 55.71875 13.875 49.015625 6.21875 
Q 42.328125 -1.421875 30.609375 -1.421875 
Q 18.84375 -1.421875 12.171875 6.21875 
Q 5.515625 13.875 5.515625 27.296875 
Q 5.515625 40.765625 12.171875 48.375 
Q 18.84375 56 30.609375 56 
z
" id="DejaVuSans-111"/>
      <path d="M 54.890625 33.015625 
L 54.890625 0 
L 45.90625 0 
L 45.90625 32.71875 
Q 45.90625 40.484375 42.875 44.328125 
Q 39.84375 48.1875 33.796875 48.1875 
Q 26.515625 48.1875 22.3125 43.546875 
Q 18.109375 38.921875 18.109375 30.90625 
L 18.109375 0 
L 9.078125 0 
L 9.078125 54.6875 
L 18.109375 54.6875 
L 18.109375 46.1875 
Q 21.34375 51.125 25.703125 53.5625 
Q 30.078125 56 35.796875 56 
Q 45.21875 56 50.046875 50.171875 
Q 54.890625 44.34375 54.890625 33.015625 
z
" id="DejaVuSans-110"/>
     </defs>
     <g transform="translate(27.99025 311.18715)rotate(-90)scale(0.2592 -0.2592)">
      <use xlink:href="#DejaVuSans-67"/>
      <use x="69.824219" xlink:href="#DejaVuSans-111"/>
      <use x="131.005859" xlink:href="#DejaVuSans-117"/>
      <use x="194.384766" xlink:href="#DejaVuSans-110"/>
      <use x="257.763672" xlink:href="#DejaVuSans-116"/>
     </g>
    </g>
   </g>
   <g id="line2d_27">
    <path clip-path="url(#p48e5246a07)" d="M 101.387755 541 
L 101.387755 403.825567 
L 112.77551 403.825567 
L 112.77551 385.194161 
L 124.163265 385.194161 
L 124.163265 312.09676 
L 135.55102 312.09676 
L 135.55102 293.465354 
L 146.938776 293.465354 
L 146.938776 232.85313 
L 158.326531 232.85313 
L 158.326531 209.509148 
L 169.714286 209.509148 
L 169.714286 160.205839 
L 181.102041 160.205839 
L 181.102041 132.597005 
L 192.489796 132.597005 
L 192.489796 107.569754 
L 203.877551 107.569754 
L 203.877551 108.77985 
L 215.265306 108.77985 
L 215.265306 104.041264 
L 226.653061 104.041264 
L 226.653061 83.7 
L 238.040816 83.7 
L 238.040816 99.557225 
L 249.428571 99.557225 
L 249.428571 89.78357 
L 260.816327 89.78357 
L 260.816327 117.780341 
L 272.204082 117.780341 
L 272.204082 105.786871 
L 283.591837 105.786871 
L 283.591837 103.467412 
L 294.979592 103.467412 
L 294.979592 124.124797 
L 306.367347 124.124797 
L 306.367347 140.231319 
L 317.755102 140.231319 
L 317.755102 157.97917 
L 329.142857 157.97917 
L 329.142857 164.845653 
L 340.530612 164.845653 
L 340.530612 163.661304 
L 351.918367 163.661304 
L 351.918367 166.047043 
L 363.306122 166.047043 
L 363.306122 181.99923 
L 374.693878 181.99923 
L 374.693878 198.105752 
L 386.081633 198.105752 
L 386.081633 227.632983 
L 397.469388 227.632983 
L 397.469388 225.140405 
L 408.857143 225.140405 
L 408.857143 269.445294 
L 420.244898 269.445294 
L 420.244898 261.487356 
L 431.632653 261.487356 
L 431.632653 336.11682 
L 443.020408 336.11682 
L 443.020408 336.11682 
L 454.408163 336.11682 
L 454.408163 269.445294 
L 465.795918 269.445294 
L 465.795918 293.465354 
L 477.183673 293.465354 
L 477.183673 345.951134 
L 488.571429 345.951134 
L 488.571429 345.951134 
L 499.959184 345.951134 
L 499.959184 385.194161 
L 511.346939 385.194161 
L 511.346939 345.951134 
L 522.734694 345.951134 
L 522.734694 403.825567 
L 534.122449 403.825567 
L 534.122449 319.361789 
L 545.510204 319.361789 
L 545.510204 461.7 
L 556.897959 461.7 
L 556.897959 345.951134 
L 568.285714 345.951134 
L 568.285714 357.100358 
L 579.673469 357.100358 
L 579.673469 427.845627 
L 591.061224 427.845627 
L 591.061224 461.7 
L 602.44898 461.7 
L 602.44898 461.7 
L 613.836735 461.7 
L 613.836735 385.194161 
L 625.22449 385.194161 
L 625.22449 403.825567 
L 636.612245 403.825567 
L 636.612245 541 
" style="fill:none;stroke:#1f77b4;stroke-linecap:square;stroke-width:1.5;"/>
   </g>
   <g id="line2d_28">
    <path clip-path="url(#p48e5246a07)" d="M 135.55102 541 
L 135.55102 461.7 
L 146.938776 461.7 
L 146.938776 461.7 
L 158.326531 461.7 
L 158.326531 385.194161 
L 169.714286 385.194161 
L 169.714286 385.194161 
L 181.102041 385.194161 
L 181.102041 283.014838 
L 192.489796 283.014838 
L 192.489796 273.728036 
L 203.877551 273.728036 
L 203.877551 265.371552 
L 215.265306 265.371552 
L 215.265306 254.222327 
L 226.653061 254.222327 
L 226.653061 247.539149 
L 238.040816 247.539149 
L 238.040816 194.626283 
L 249.428571 194.626283 
L 249.428571 167.265972 
L 260.816327 167.265972 
L 260.816327 174.978697 
L 272.204082 174.978697 
L 272.204082 166.047043 
L 283.591837 166.047043 
L 283.591837 132.597005 
L 294.979592 132.597005 
L 294.979592 130.19985 
L 306.367347 130.19985 
L 306.367347 135.904176 
L 317.755102 135.904176 
L 317.755102 121.245368 
L 329.142857 121.245368 
L 329.142857 110.007742 
L 340.530612 110.007742 
L 340.530612 113.80363 
L 351.918367 113.80363 
L 351.918367 108.77985 
L 363.306122 108.77985 
L 363.306122 115.768312 
L 374.693878 115.768312 
L 374.693878 127.107083 
L 386.081633 127.107083 
L 386.081633 142.026983 
L 397.469388 142.026983 
L 397.469388 151.634714 
L 408.857143 151.634714 
L 408.857143 152.659208 
L 420.244898 152.659208 
L 420.244898 161.341845 
L 431.632653 161.341845 
L 431.632653 189.664716 
L 443.020408 189.664716 
L 443.020408 153.696428 
L 454.408163 153.696428 
L 454.408163 192.939455 
L 465.795918 192.939455 
L 465.795918 167.265972 
L 477.183673 167.265972 
L 477.183673 179.119801 
L 488.571429 179.119801 
L 488.571429 194.626283 
L 499.959184 194.626283 
L 499.959184 230.202267 
L 511.346939 230.202267 
L 511.346939 220.367954 
L 522.734694 220.367954 
L 522.734694 244.388014 
L 534.122449 244.388014 
L 534.122449 173.642746 
L 545.510204 173.642746 
L 545.510204 199.901416 
L 556.897959 199.901416 
L 556.897959 227.632983 
L 568.285714 227.632983 
L 568.285714 199.901416 
L 579.673469 199.901416 
L 579.673469 218.080272 
L 591.061224 218.080272 
L 591.061224 250.813888 
L 602.44898 250.813888 
L 602.44898 273.728036 
L 613.836735 273.728036 
L 613.836735 241.351492 
L 625.22449 241.351492 
L 625.22449 209.509148 
L 636.612245 209.509148 
L 636.612245 327.319728 
L 648 327.319728 
" style="fill:none;stroke:#ff7f0e;stroke-linecap:square;stroke-width:1.5;"/>
   </g>
   <g id="line2d_29">
    <path clip-path="url(#p48e5246a07)" d="M 375.696 480.6 
L 375.696 64.8 
" style="fill:none;stroke:#000000;stroke-linecap:square;stroke-width:1.5;"/>
   </g>
   <g id="patch_5">
    <path d="M 90 480.6 
L 90 64.8 
" style="fill:none;stroke:#000000;stroke-linecap:square;stroke-linejoin:miter;stroke-width:0.8;"/>
   </g>
   <g id="patch_6">
    <path d="M 648 480.6 
L 648 64.8 
" style="fill:none;stroke:#000000;stroke-linecap:square;stroke-linejoin:miter;stroke-width:0.8;"/>
   </g>
   <g id="patch_7">
    <path d="M 90 480.6 
L 648 480.6 
" style="fill:none;stroke:#000000;stroke-linecap:square;stroke-linejoin:miter;stroke-width:0.8;"/>
   </g>
   <g id="patch_8">
    <path d="M 90 64.8 
L 648 64.8 
" style="fill:none;stroke:#000000;stroke-linecap:square;stroke-linejoin:miter;stroke-width:0.8;"/>
   </g>
   <g id="patch_9">
    <path d="M 329.930969 93.906 
Q 350.69494 93.906 373.694978 93.906 
" style="fill:none;stroke:#000000;stroke-linecap:round;stroke-width:2;"/>
    <path d="M 335.930969 96.906 
L 329.930969 93.906 
L 335.930969 90.906 
L 335.930969 96.906 
z
" style="fill:#1f77b4;stroke:#000000;stroke-linecap:round;stroke-width:2;"/>
   </g>
   <g id="legend_1">
    <g id="patch_10">
     <path d="M 494.204063 132.04125 
L 635.4 132.04125 
Q 639 132.04125 639 128.44125 
L 639 77.4 
Q 639 73.8 635.4 73.8 
L 494.204063 73.8 
Q 490.604062 73.8 490.604062 77.4 
L 490.604062 128.44125 
Q 490.604062 132.04125 494.204063 132.04125 
z
" style="fill:#ffffff;opacity:0.5;stroke:#cccccc;stroke-linejoin:miter;"/>
    </g>
    <g id="line2d_30">
     <path d="M 497.804062 88.377188 
L 533.804062 88.377188 
" style="fill:none;stroke:#1f77b4;stroke-linecap:square;stroke-width:1.5;"/>
    </g>
    <g id="line2d_31"/>
    <g id="text_12">
     <!-- Electrons -->
     <defs>
      <path d="M 9.8125 72.90625 
L 55.90625 72.90625 
L 55.90625 64.59375 
L 19.671875 64.59375 
L 19.671875 43.015625 
L 54.390625 43.015625 
L 54.390625 34.71875 
L 19.671875 34.71875 
L 19.671875 8.296875 
L 56.78125 8.296875 
L 56.78125 0 
L 9.8125 0 
z
" id="DejaVuSans-69"/>
      <path d="M 56.203125 29.59375 
L 56.203125 25.203125 
L 14.890625 25.203125 
Q 15.484375 15.921875 20.484375 11.0625 
Q 25.484375 6.203125 34.421875 6.203125 
Q 39.59375 6.203125 44.453125 7.46875 
Q 49.3125 8.734375 54.109375 11.28125 
L 54.109375 2.78125 
Q 49.265625 0.734375 44.1875 -0.34375 
Q 39.109375 -1.421875 33.890625 -1.421875 
Q 20.796875 -1.421875 13.15625 6.1875 
Q 5.515625 13.8125 5.515625 26.8125 
Q 5.515625 40.234375 12.765625 48.109375 
Q 20.015625 56 32.328125 56 
Q 43.359375 56 49.78125 48.890625 
Q 56.203125 41.796875 56.203125 29.59375 
z
M 47.21875 32.234375 
Q 47.125 39.59375 43.09375 43.984375 
Q 39.0625 48.390625 32.421875 48.390625 
Q 24.90625 48.390625 20.390625 44.140625 
Q 15.875 39.890625 15.1875 32.171875 
z
" id="DejaVuSans-101"/>
      <path d="M 48.78125 52.59375 
L 48.78125 44.1875 
Q 44.96875 46.296875 41.140625 47.34375 
Q 37.3125 48.390625 33.40625 48.390625 
Q 24.65625 48.390625 19.8125 42.84375 
Q 14.984375 37.3125 14.984375 27.296875 
Q 14.984375 17.28125 19.8125 11.734375 
Q 24.65625 6.203125 33.40625 6.203125 
Q 37.3125 6.203125 41.140625 7.25 
Q 44.96875 8.296875 48.78125 10.40625 
L 48.78125 2.09375 
Q 45.015625 0.34375 40.984375 -0.53125 
Q 36.96875 -1.421875 32.421875 -1.421875 
Q 20.0625 -1.421875 12.78125 6.34375 
Q 5.515625 14.109375 5.515625 27.296875 
Q 5.515625 40.671875 12.859375 48.328125 
Q 20.21875 56 33.015625 56 
Q 37.15625 56 41.109375 55.140625 
Q 45.0625 54.296875 48.78125 52.59375 
z
" id="DejaVuSans-99"/>
      <path d="M 41.109375 46.296875 
Q 39.59375 47.171875 37.8125 47.578125 
Q 36.03125 48 33.890625 48 
Q 26.265625 48 22.1875 43.046875 
Q 18.109375 38.09375 18.109375 28.8125 
L 18.109375 0 
L 9.078125 0 
L 9.078125 54.6875 
L 18.109375 54.6875 
L 18.109375 46.1875 
Q 20.953125 51.171875 25.484375 53.578125 
Q 30.03125 56 36.53125 56 
Q 37.453125 56 38.578125 55.875 
Q 39.703125 55.765625 41.0625 55.515625 
z
" id="DejaVuSans-114"/>
      <path d="M 44.28125 53.078125 
L 44.28125 44.578125 
Q 40.484375 46.53125 36.375 47.5 
Q 32.28125 48.484375 27.875 48.484375 
Q 21.1875 48.484375 17.84375 46.4375 
Q 14.5 44.390625 14.5 40.28125 
Q 14.5 37.15625 16.890625 35.375 
Q 19.28125 33.59375 26.515625 31.984375 
L 29.59375 31.296875 
Q 39.15625 29.25 43.1875 25.515625 
Q 47.21875 21.78125 47.21875 15.09375 
Q 47.21875 7.46875 41.1875 3.015625 
Q 35.15625 -1.421875 24.609375 -1.421875 
Q 20.21875 -1.421875 15.453125 -0.5625 
Q 10.6875 0.296875 5.421875 2 
L 5.421875 11.28125 
Q 10.40625 8.6875 15.234375 7.390625 
Q 20.0625 6.109375 24.8125 6.109375 
Q 31.15625 6.109375 34.5625 8.28125 
Q 37.984375 10.453125 37.984375 14.40625 
Q 37.984375 18.0625 35.515625 20.015625 
Q 33.0625 21.96875 24.703125 23.78125 
L 21.578125 24.515625 
Q 13.234375 26.265625 9.515625 29.90625 
Q 5.8125 33.546875 5.8125 39.890625 
Q 5.8125 47.609375 11.28125 51.796875 
Q 16.75 56 26.8125 56 
Q 31.78125 56 36.171875 55.265625 
Q 40.578125 54.546875 44.28125 53.078125 
z
" id="DejaVuSans-115"/>
     </defs>
     <g transform="translate(548.204062 94.677188)scale(0.18 -0.18)">
      <use xlink:href="#DejaVuSans-69"/>
      <use x="63.183594" xlink:href="#DejaVuSans-108"/>
      <use x="90.966797" xlink:href="#DejaVuSans-101"/>
      <use x="152.490234" xlink:href="#DejaVuSans-99"/>
      <use x="207.470703" xlink:href="#DejaVuSans-116"/>
      <use x="246.679688" xlink:href="#DejaVuSans-114"/>
      <use x="287.761719" xlink:href="#DejaVuSans-111"/>
      <use x="348.943359" xlink:href="#DejaVuSans-110"/>
      <use x="412.322266" xlink:href="#DejaVuSans-115"/>
     </g>
    </g>
    <g id="line2d_32">
     <path d="M 497.804062 114.797812 
L 533.804062 114.797812 
" style="fill:none;stroke:#ff7f0e;stroke-linecap:square;stroke-width:1.5;"/>
    </g>
    <g id="line2d_33"/>
    <g id="text_13">
     <!-- Photons -->
     <defs>
      <path d="M 19.671875 64.796875 
L 19.671875 37.40625 
L 32.078125 37.40625 
Q 38.96875 37.40625 42.71875 40.96875 
Q 46.484375 44.53125 46.484375 51.125 
Q 46.484375 57.671875 42.71875 61.234375 
Q 38.96875 64.796875 32.078125 64.796875 
z
M 9.8125 72.90625 
L 32.078125 72.90625 
Q 44.34375 72.90625 50.609375 67.359375 
Q 56.890625 61.8125 56.890625 51.125 
Q 56.890625 40.328125 50.609375 34.8125 
Q 44.34375 29.296875 32.078125 29.296875 
L 19.671875 29.296875 
L 19.671875 0 
L 9.8125 0 
z
" id="DejaVuSans-80"/>
      <path d="M 54.890625 33.015625 
L 54.890625 0 
L 45.90625 0 
L 45.90625 32.71875 
Q 45.90625 40.484375 42.875 44.328125 
Q 39.84375 48.1875 33.796875 48.1875 
Q 26.515625 48.1875 22.3125 43.546875 
Q 18.109375 38.921875 18.109375 30.90625 
L 18.109375 0 
L 9.078125 0 
L 9.078125 75.984375 
L 18.109375 75.984375 
L 18.109375 46.1875 
Q 21.34375 51.125 25.703125 53.5625 
Q 30.078125 56 35.796875 56 
Q 45.21875 56 50.046875 50.171875 
Q 54.890625 44.34375 54.890625 33.015625 
z
" id="DejaVuSans-104"/>
     </defs>
     <g transform="translate(548.204062 121.097812)scale(0.18 -0.18)">
      <use xlink:href="#DejaVuSans-80"/>
      <use x="60.302734" xlink:href="#DejaVuSans-104"/>
      <use x="123.681641" xlink:href="#DejaVuSans-111"/>
      <use x="184.863281" xlink:href="#DejaVuSans-116"/>
      <use x="224.072266" xlink:href="#DejaVuSans-111"/>
      <use x="285.253906" xlink:href="#DejaVuSans-110"/>
      <use x="348.632812" xlink:href="#DejaVuSans-115"/>
     </g>
    </g>
   </g>
  </g>
 </g>
 <defs>
  <clipPath id="p48e5246a07">
   <rect height="415.8" width="558" x="90" y="64.8"/>
  </clipPath>
 </defs>
</svg>
