<?xml version="1.0" encoding="utf-8" standalone="no"?>
<!DOCTYPE svg PUBLIC "-//W3C//DTD SVG 1.1//EN"
  "http://www.w3.org/Graphics/SVG/1.1/DTD/svg11.dtd">
<!-- Created with matplotlib (https://matplotlib.org/) -->
<svg height="710.64pt" version="1.1" viewBox="0 0 720 710.64" width="720pt" xmlns="http://www.w3.org/2000/svg" xmlns:xlink="http://www.w3.org/1999/xlink">
 <defs>
  <style type="text/css">
*{stroke-linecap:butt;stroke-linejoin:round;}
  </style>
 </defs>
 <g id="figure_1">
  <g id="patch_1">
   <path d="M 0 710.64 
L 720 710.64 
L 720 0 
L 0 0 
z
" style="fill:#ffffff;"/>
  </g>
  <g id="axes_1">
   <g id="patch_2">
    <path d="M 90 334.0008 
L 648 334.0008 
L 648 85.2768 
L 90 85.2768 
z
" style="fill:#ffffff;"/>
   </g>
   <g id="matplotlib.axis_1">
    <g id="xtick_1">
     <g id="line2d_1">
      <defs>
       <path d="M 0 0 
L 0 3.5 
" id="m077618c1f8" style="stroke:#000000;stroke-width:0.8;"/>
      </defs>
      <g>
       <use style="stroke:#000000;stroke-width:0.8;" x="90" xlink:href="#m077618c1f8" y="334.0008"/>
      </g>
     </g>
    </g>
    <g id="xtick_2">
     <g id="line2d_2">
      <g>
       <use style="stroke:#000000;stroke-width:0.8;" x="169.714286" xlink:href="#m077618c1f8" y="334.0008"/>
      </g>
     </g>
    </g>
    <g id="xtick_3">
     <g id="line2d_3">
      <g>
       <use style="stroke:#000000;stroke-width:0.8;" x="249.428571" xlink:href="#m077618c1f8" y="334.0008"/>
      </g>
     </g>
    </g>
    <g id="xtick_4">
     <g id="line2d_4">
      <g>
       <use style="stroke:#000000;stroke-width:0.8;" x="329.142857" xlink:href="#m077618c1f8" y="334.0008"/>
      </g>
     </g>
    </g>
    <g id="xtick_5">
     <g id="line2d_5">
      <g>
       <use style="stroke:#000000;stroke-width:0.8;" x="408.857143" xlink:href="#m077618c1f8" y="334.0008"/>
      </g>
     </g>
    </g>
    <g id="xtick_6">
     <g id="line2d_6">
      <g>
       <use style="stroke:#000000;stroke-width:0.8;" x="488.571429" xlink:href="#m077618c1f8" y="334.0008"/>
      </g>
     </g>
    </g>
    <g id="xtick_7">
     <g id="line2d_7">
      <g>
       <use style="stroke:#000000;stroke-width:0.8;" x="568.285714" xlink:href="#m077618c1f8" y="334.0008"/>
      </g>
     </g>
    </g>
    <g id="xtick_8">
     <g id="line2d_8">
      <g>
       <use style="stroke:#000000;stroke-width:0.8;" x="648" xlink:href="#m077618c1f8" y="334.0008"/>
      </g>
     </g>
    </g>
    <g id="text_1">
     <!-- nHitsW -->
     <defs>
      <path d="M 54.890625 33.015625 
L 54.890625 0 
L 45.90625 0 
L 45.90625 32.71875 
Q 45.90625 40.484375 42.875 44.328125 
Q 39.84375 48.1875 33.796875 48.1875 
Q 26.515625 48.1875 22.3125 43.546875 
Q 18.109375 38.921875 18.109375 30.90625 
L 18.109375 0 
L 9.078125 0 
L 9.078125 54.6875 
L 18.109375 54.6875 
L 18.109375 46.1875 
Q 21.34375 51.125 25.703125 53.5625 
Q 30.078125 56 35.796875 56 
Q 45.21875 56 50.046875 50.171875 
Q 54.890625 44.34375 54.890625 33.015625 
z
" id="DejaVuSans-110"/>
      <path d="M 9.8125 72.90625 
L 19.671875 72.90625 
L 19.671875 43.015625 
L 55.515625 43.015625 
L 55.515625 72.90625 
L 65.375 72.90625 
L 65.375 0 
L 55.515625 0 
L 55.515625 34.71875 
L 19.671875 34.71875 
L 19.671875 0 
L 9.8125 0 
z
" id="DejaVuSans-72"/>
      <path d="M 9.421875 54.6875 
L 18.40625 54.6875 
L 18.40625 0 
L 9.421875 0 
z
M 9.421875 75.984375 
L 18.40625 75.984375 
L 18.40625 64.59375 
L 9.421875 64.59375 
z
" id="DejaVuSans-105"/>
      <path d="M 18.3125 70.21875 
L 18.3125 54.6875 
L 36.8125 54.6875 
L 36.8125 47.703125 
L 18.3125 47.703125 
L 18.3125 18.015625 
Q 18.3125 11.328125 20.140625 9.421875 
Q 21.96875 7.515625 27.59375 7.515625 
L 36.8125 7.515625 
L 36.8125 0 
L 27.59375 0 
Q 17.1875 0 13.234375 3.875 
Q 9.28125 7.765625 9.28125 18.015625 
L 9.28125 47.703125 
L 2.6875 47.703125 
L 2.6875 54.6875 
L 9.28125 54.6875 
L 9.28125 70.21875 
z
" id="DejaVuSans-116"/>
      <path d="M 44.28125 53.078125 
L 44.28125 44.578125 
Q 40.484375 46.53125 36.375 47.5 
Q 32.28125 48.484375 27.875 48.484375 
Q 21.1875 48.484375 17.84375 46.4375 
Q 14.5 44.390625 14.5 40.28125 
Q 14.5 37.15625 16.890625 35.375 
Q 19.28125 33.59375 26.515625 31.984375 
L 29.59375 31.296875 
Q 39.15625 29.25 43.1875 25.515625 
Q 47.21875 21.78125 47.21875 15.09375 
Q 47.21875 7.46875 41.1875 3.015625 
Q 35.15625 -1.421875 24.609375 -1.421875 
Q 20.21875 -1.421875 15.453125 -0.5625 
Q 10.6875 0.296875 5.421875 2 
L 5.421875 11.28125 
Q 10.40625 8.6875 15.234375 7.390625 
Q 20.0625 6.109375 24.8125 6.109375 
Q 31.15625 6.109375 34.5625 8.28125 
Q 37.984375 10.453125 37.984375 14.40625 
Q 37.984375 18.0625 35.515625 20.015625 
Q 33.0625 21.96875 24.703125 23.78125 
L 21.578125 24.515625 
Q 13.234375 26.265625 9.515625 29.90625 
Q 5.8125 33.546875 5.8125 39.890625 
Q 5.8125 47.609375 11.28125 51.796875 
Q 16.75 56 26.8125 56 
Q 31.78125 56 36.171875 55.265625 
Q 40.578125 54.546875 44.28125 53.078125 
z
" id="DejaVuSans-115"/>
      <path d="M 3.328125 72.90625 
L 13.28125 72.90625 
L 28.609375 11.28125 
L 43.890625 72.90625 
L 54.984375 72.90625 
L 70.3125 11.28125 
L 85.59375 72.90625 
L 95.609375 72.90625 
L 77.296875 0 
L 64.890625 0 
L 49.515625 63.28125 
L 33.984375 0 
L 21.578125 0 
z
" id="DejaVuSans-87"/>
     </defs>
     <g transform="translate(322.79355 357.69595)scale(0.2592 -0.2592)">
      <use xlink:href="#DejaVuSans-110"/>
      <use x="63.378906" xlink:href="#DejaVuSans-72"/>
      <use x="138.574219" xlink:href="#DejaVuSans-105"/>
      <use x="166.357422" xlink:href="#DejaVuSans-116"/>
      <use x="205.566406" xlink:href="#DejaVuSans-115"/>
      <use x="257.666016" xlink:href="#DejaVuSans-87"/>
     </g>
    </g>
   </g>
   <g id="matplotlib.axis_2">
    <g id="ytick_1">
     <g id="line2d_9">
      <defs>
       <path d="M 0 0 
L -3.5 0 
" id="m0504a24df2" style="stroke:#000000;stroke-width:0.8;"/>
      </defs>
      <g>
       <use style="stroke:#000000;stroke-width:0.8;" x="90" xlink:href="#m0504a24df2" y="334.0008"/>
      </g>
     </g>
     <g id="text_2">
      <!-- 0.0 -->
      <defs>
       <path d="M 31.78125 66.40625 
Q 24.171875 66.40625 20.328125 58.90625 
Q 16.5 51.421875 16.5 36.375 
Q 16.5 21.390625 20.328125 13.890625 
Q 24.171875 6.390625 31.78125 6.390625 
Q 39.453125 6.390625 43.28125 13.890625 
Q 47.125 21.390625 47.125 36.375 
Q 47.125 51.421875 43.28125 58.90625 
Q 39.453125 66.40625 31.78125 66.40625 
z
M 31.78125 74.21875 
Q 44.046875 74.21875 50.515625 64.515625 
Q 56.984375 54.828125 56.984375 36.375 
Q 56.984375 17.96875 50.515625 8.265625 
Q 44.046875 -1.421875 31.78125 -1.421875 
Q 19.53125 -1.421875 13.0625 8.265625 
Q 6.59375 17.96875 6.59375 36.375 
Q 6.59375 54.828125 13.0625 64.515625 
Q 19.53125 74.21875 31.78125 74.21875 
z
" id="DejaVuSans-48"/>
       <path d="M 10.6875 12.40625 
L 21 12.40625 
L 21 0 
L 10.6875 0 
z
" id="DejaVuSans-46"/>
      </defs>
      <g transform="translate(41.7791 343.848375)scale(0.2592 -0.2592)">
       <use xlink:href="#DejaVuSans-48"/>
       <use x="63.623047" xlink:href="#DejaVuSans-46"/>
       <use x="95.410156" xlink:href="#DejaVuSans-48"/>
      </g>
     </g>
    </g>
    <g id="ytick_2">
     <g id="line2d_10">
      <g>
       <use style="stroke:#000000;stroke-width:0.8;" x="90" xlink:href="#m0504a24df2" y="210.870107"/>
      </g>
     </g>
     <g id="text_3">
      <!-- 0.5 -->
      <defs>
       <path d="M 10.796875 72.90625 
L 49.515625 72.90625 
L 49.515625 64.59375 
L 19.828125 64.59375 
L 19.828125 46.734375 
Q 21.96875 47.46875 24.109375 47.828125 
Q 26.265625 48.1875 28.421875 48.1875 
Q 40.625 48.1875 47.75 41.5 
Q 54.890625 34.8125 54.890625 23.390625 
Q 54.890625 11.625 47.5625 5.09375 
Q 40.234375 -1.421875 26.90625 -1.421875 
Q 22.3125 -1.421875 17.546875 -0.640625 
Q 12.796875 0.140625 7.71875 1.703125 
L 7.71875 11.625 
Q 12.109375 9.234375 16.796875 8.0625 
Q 21.484375 6.890625 26.703125 6.890625 
Q 35.15625 6.890625 40.078125 11.328125 
Q 45.015625 15.765625 45.015625 23.390625 
Q 45.015625 31 40.078125 35.4375 
Q 35.15625 39.890625 26.703125 39.890625 
Q 22.75 39.890625 18.8125 39.015625 
Q 14.890625 38.140625 10.796875 36.28125 
z
" id="DejaVuSans-53"/>
      </defs>
      <g transform="translate(41.7791 220.717682)scale(0.2592 -0.2592)">
       <use xlink:href="#DejaVuSans-48"/>
       <use x="63.623047" xlink:href="#DejaVuSans-46"/>
       <use x="95.410156" xlink:href="#DejaVuSans-53"/>
      </g>
     </g>
    </g>
    <g id="ytick_3">
     <g id="line2d_11">
      <g>
       <use style="stroke:#000000;stroke-width:0.8;" x="90" xlink:href="#m0504a24df2" y="87.739414"/>
      </g>
     </g>
     <g id="text_4">
      <!-- 1.0 -->
      <defs>
       <path d="M 12.40625 8.296875 
L 28.515625 8.296875 
L 28.515625 63.921875 
L 10.984375 60.40625 
L 10.984375 69.390625 
L 28.421875 72.90625 
L 38.28125 72.90625 
L 38.28125 8.296875 
L 54.390625 8.296875 
L 54.390625 0 
L 12.40625 0 
z
" id="DejaVuSans-49"/>
      </defs>
      <g transform="translate(41.7791 97.586989)scale(0.2592 -0.2592)">
       <use xlink:href="#DejaVuSans-49"/>
       <use x="63.623047" xlink:href="#DejaVuSans-46"/>
       <use x="95.410156" xlink:href="#DejaVuSans-48"/>
      </g>
     </g>
    </g>
    <g id="text_5">
     <!-- Fraction -->
     <defs>
      <path d="M 9.8125 72.90625 
L 51.703125 72.90625 
L 51.703125 64.59375 
L 19.671875 64.59375 
L 19.671875 43.109375 
L 48.578125 43.109375 
L 48.578125 34.8125 
L 19.671875 34.8125 
L 19.671875 0 
L 9.8125 0 
z
" id="DejaVuSans-70"/>
      <path d="M 41.109375 46.296875 
Q 39.59375 47.171875 37.8125 47.578125 
Q 36.03125 48 33.890625 48 
Q 26.265625 48 22.1875 43.046875 
Q 18.109375 38.09375 18.109375 28.8125 
L 18.109375 0 
L 9.078125 0 
L 9.078125 54.6875 
L 18.109375 54.6875 
L 18.109375 46.1875 
Q 20.953125 51.171875 25.484375 53.578125 
Q 30.03125 56 36.53125 56 
Q 37.453125 56 38.578125 55.875 
Q 39.703125 55.765625 41.0625 55.515625 
z
" id="DejaVuSans-114"/>
      <path d="M 34.28125 27.484375 
Q 23.390625 27.484375 19.1875 25 
Q 14.984375 22.515625 14.984375 16.5 
Q 14.984375 11.71875 18.140625 8.90625 
Q 21.296875 6.109375 26.703125 6.109375 
Q 34.1875 6.109375 38.703125 11.40625 
Q 43.21875 16.703125 43.21875 25.484375 
L 43.21875 27.484375 
z
M 52.203125 31.203125 
L 52.203125 0 
L 43.21875 0 
L 43.21875 8.296875 
Q 40.140625 3.328125 35.546875 0.953125 
Q 30.953125 -1.421875 24.3125 -1.421875 
Q 15.921875 -1.421875 10.953125 3.296875 
Q 6 8.015625 6 15.921875 
Q 6 25.140625 12.171875 29.828125 
Q 18.359375 34.515625 30.609375 34.515625 
L 43.21875 34.515625 
L 43.21875 35.40625 
Q 43.21875 41.609375 39.140625 45 
Q 35.0625 48.390625 27.6875 48.390625 
Q 23 48.390625 18.546875 47.265625 
Q 14.109375 46.140625 10.015625 43.890625 
L 10.015625 52.203125 
Q 14.9375 54.109375 19.578125 55.046875 
Q 24.21875 56 28.609375 56 
Q 40.484375 56 46.34375 49.84375 
Q 52.203125 43.703125 52.203125 31.203125 
z
" id="DejaVuSans-97"/>
      <path d="M 48.78125 52.59375 
L 48.78125 44.1875 
Q 44.96875 46.296875 41.140625 47.34375 
Q 37.3125 48.390625 33.40625 48.390625 
Q 24.65625 48.390625 19.8125 42.84375 
Q 14.984375 37.3125 14.984375 27.296875 
Q 14.984375 17.28125 19.8125 11.734375 
Q 24.65625 6.203125 33.40625 6.203125 
Q 37.3125 6.203125 41.140625 7.25 
Q 44.96875 8.296875 48.78125 10.40625 
L 48.78125 2.09375 
Q 45.015625 0.34375 40.984375 -0.53125 
Q 36.96875 -1.421875 32.421875 -1.421875 
Q 20.0625 -1.421875 12.78125 6.34375 
Q 5.515625 14.109375 5.515625 27.296875 
Q 5.515625 40.671875 12.859375 48.328125 
Q 20.21875 56 33.015625 56 
Q 37.15625 56 41.109375 55.140625 
Q 45.0625 54.296875 48.78125 52.59375 
z
" id="DejaVuSans-99"/>
      <path d="M 30.609375 48.390625 
Q 23.390625 48.390625 19.1875 42.75 
Q 14.984375 37.109375 14.984375 27.296875 
Q 14.984375 17.484375 19.15625 11.84375 
Q 23.34375 6.203125 30.609375 6.203125 
Q 37.796875 6.203125 41.984375 11.859375 
Q 46.1875 17.53125 46.1875 27.296875 
Q 46.1875 37.015625 41.984375 42.703125 
Q 37.796875 48.390625 30.609375 48.390625 
z
M 30.609375 56 
Q 42.328125 56 49.015625 48.375 
Q 55.71875 40.765625 55.71875 27.296875 
Q 55.71875 13.875 49.015625 6.21875 
Q 42.328125 -1.421875 30.609375 -1.421875 
Q 18.84375 -1.421875 12.171875 6.21875 
Q 5.515625 13.875 5.515625 27.296875 
Q 5.515625 40.765625 12.171875 48.375 
Q 18.84375 56 30.609375 56 
z
" id="DejaVuSans-111"/>
     </defs>
     <g transform="translate(32.38855 262.298925)rotate(-90)scale(0.2592 -0.2592)">
      <use xlink:href="#DejaVuSans-70"/>
      <use x="57.410156" xlink:href="#DejaVuSans-114"/>
      <use x="98.523438" xlink:href="#DejaVuSans-97"/>
      <use x="159.802734" xlink:href="#DejaVuSans-99"/>
      <use x="214.783203" xlink:href="#DejaVuSans-116"/>
      <use x="253.992188" xlink:href="#DejaVuSans-105"/>
      <use x="281.775391" xlink:href="#DejaVuSans-111"/>
      <use x="342.957031" xlink:href="#DejaVuSans-110"/>
     </g>
    </g>
   </g>
   <g id="LineCollection_1">
    <path clip-path="url(#p3ff480711a)" d="M 125.769231 236.675007 
L 125.769231 205.250567 
" style="fill:none;stroke:#008000;stroke-width:1.5;"/>
    <path clip-path="url(#p3ff480711a)" d="M 140.076923 222.718363 
L 140.076923 199.02185 
" style="fill:none;stroke:#008000;stroke-width:1.5;"/>
    <path clip-path="url(#p3ff480711a)" d="M 154.384615 214.071642 
L 154.384615 192.514025 
" style="fill:none;stroke:#008000;stroke-width:1.5;"/>
    <path clip-path="url(#p3ff480711a)" d="M 168.692308 202.818981 
L 168.692308 180.880856 
" style="fill:none;stroke:#008000;stroke-width:1.5;"/>
    <path clip-path="url(#p3ff480711a)" d="M 183 223.96898 
L 183 203.086228 
" style="fill:none;stroke:#008000;stroke-width:1.5;"/>
    <path clip-path="url(#p3ff480711a)" d="M 197.307692 238.046702 
L 197.307692 217.35514 
" style="fill:none;stroke:#008000;stroke-width:1.5;"/>
    <path clip-path="url(#p3ff480711a)" d="M 211.615385 216.899843 
L 211.615385 195.719579 
" style="fill:none;stroke:#008000;stroke-width:1.5;"/>
    <path clip-path="url(#p3ff480711a)" d="M 225.923077 200.524146 
L 225.923077 178.476489 
" style="fill:none;stroke:#008000;stroke-width:1.5;"/>
    <path clip-path="url(#p3ff480711a)" d="M 240.230769 216.987737 
L 240.230769 194.04546 
" style="fill:none;stroke:#008000;stroke-width:1.5;"/>
    <path clip-path="url(#p3ff480711a)" d="M 254.538462 218.099917 
L 254.538462 194.845248 
" style="fill:none;stroke:#008000;stroke-width:1.5;"/>
    <path clip-path="url(#p3ff480711a)" d="M 268.846154 226.221183 
L 268.846154 202.423556 
" style="fill:none;stroke:#008000;stroke-width:1.5;"/>
    <path clip-path="url(#p3ff480711a)" d="M 283.153846 216.957938 
L 283.153846 194.77165 
" style="fill:none;stroke:#008000;stroke-width:1.5;"/>
    <path clip-path="url(#p3ff480711a)" d="M 297.461538 214.558797 
L 297.461538 190.113796 
" style="fill:none;stroke:#008000;stroke-width:1.5;"/>
    <path clip-path="url(#p3ff480711a)" d="M 311.769231 206.462303 
L 311.769231 182.752822 
" style="fill:none;stroke:#008000;stroke-width:1.5;"/>
    <path clip-path="url(#p3ff480711a)" d="M 326.076923 216.814012 
L 326.076923 188.058984 
" style="fill:none;stroke:#008000;stroke-width:1.5;"/>
    <path clip-path="url(#p3ff480711a)" d="M 340.384615 229.579166 
L 340.384615 203.354747 
" style="fill:none;stroke:#008000;stroke-width:1.5;"/>
    <path clip-path="url(#p3ff480711a)" d="M 354.692308 226.500068 
L 354.692308 198.438345 
" style="fill:none;stroke:#008000;stroke-width:1.5;"/>
    <path clip-path="url(#p3ff480711a)" d="M 369 216.877037 
L 369 188.872177 
" style="fill:none;stroke:#008000;stroke-width:1.5;"/>
    <path clip-path="url(#p3ff480711a)" d="M 383.307692 257.584327 
L 383.307692 225.721233 
" style="fill:none;stroke:#008000;stroke-width:1.5;"/>
    <path clip-path="url(#p3ff480711a)" d="M 397.615385 235.56893 
L 397.615385 205.114468 
" style="fill:none;stroke:#008000;stroke-width:1.5;"/>
    <path clip-path="url(#p3ff480711a)" d="M 411.923077 250.776793 
L 411.923077 216.195104 
" style="fill:none;stroke:#008000;stroke-width:1.5;"/>
    <path clip-path="url(#p3ff480711a)" d="M 426.230769 231.446301 
L 426.230769 195.533517 
" style="fill:none;stroke:#008000;stroke-width:1.5;"/>
    <path clip-path="url(#p3ff480711a)" d="M 440.538462 256.281091 
L 440.538462 224.901526 
" style="fill:none;stroke:#008000;stroke-width:1.5;"/>
    <path clip-path="url(#p3ff480711a)" d="M 454.846154 264.515456 
L 454.846154 226.683097 
" style="fill:none;stroke:#008000;stroke-width:1.5;"/>
    <path clip-path="url(#p3ff480711a)" d="M 469.153846 266.381244 
L 469.153846 229.237385 
" style="fill:none;stroke:#008000;stroke-width:1.5;"/>
    <path clip-path="url(#p3ff480711a)" d="M 483.461538 260.365905 
L 483.461538 219.318164 
" style="fill:none;stroke:#008000;stroke-width:1.5;"/>
    <path clip-path="url(#p3ff480711a)" d="M 497.769231 268.705813 
L 497.769231 230.801154 
" style="fill:none;stroke:#008000;stroke-width:1.5;"/>
    <path clip-path="url(#p3ff480711a)" d="M 512.076923 273.084212 
L 512.076923 235.180272 
" style="fill:none;stroke:#008000;stroke-width:1.5;"/>
    <path clip-path="url(#p3ff480711a)" d="M 526.384615 268.349825 
L 526.384615 223.750784 
" style="fill:none;stroke:#008000;stroke-width:1.5;"/>
    <path clip-path="url(#p3ff480711a)" d="M 540.692308 280.099301 
L 540.692308 231.190508 
" style="fill:none;stroke:#008000;stroke-width:1.5;"/>
    <path clip-path="url(#p3ff480711a)" d="M 555 268.987794 
L 555 221.705608 
" style="fill:none;stroke:#008000;stroke-width:1.5;"/>
    <path clip-path="url(#p3ff480711a)" d="M 569.307692 299.906983 
L 569.307692 233.770224 
" style="fill:none;stroke:#008000;stroke-width:1.5;"/>
    <path clip-path="url(#p3ff480711a)" d="M 583.615385 253.393772 
L 583.615385 195.708818 
" style="fill:none;stroke:#008000;stroke-width:1.5;"/>
    <path clip-path="url(#p3ff480711a)" d="M 597.923077 272.513424 
L 597.923077 206.05634 
" style="fill:none;stroke:#008000;stroke-width:1.5;"/>
    <path clip-path="url(#p3ff480711a)" d="M 612.230769 293.373098 
L 612.230769 233.90771 
" style="fill:none;stroke:#008000;stroke-width:1.5;"/>
    <path clip-path="url(#p3ff480711a)" d="M 626.538462 303.218127 
L 626.538462 241.65278 
" style="fill:none;stroke:#008000;stroke-width:1.5;"/>
    <path clip-path="url(#p3ff480711a)" d="M 640.846154 334.0008 
L 640.846154 334.0008 
" style="fill:none;stroke:#008000;stroke-width:1.5;"/>
   </g>
   <g id="LineCollection_2">
    <path clip-path="url(#p3ff480711a)" d="M 125.769231 163.437013 
L 125.769231 131.844651 
" style="fill:none;stroke:#ff0000;stroke-width:1.5;"/>
    <path clip-path="url(#p3ff480711a)" d="M 140.076923 140.087524 
L 140.076923 118.741312 
" style="fill:none;stroke:#ff0000;stroke-width:1.5;"/>
    <path clip-path="url(#p3ff480711a)" d="M 154.384615 145.876749 
L 154.384615 126.961231 
" style="fill:none;stroke:#ff0000;stroke-width:1.5;"/>
    <path clip-path="url(#p3ff480711a)" d="M 168.692308 142.242212 
L 168.692308 123.815516 
" style="fill:none;stroke:#ff0000;stroke-width:1.5;"/>
    <path clip-path="url(#p3ff480711a)" d="M 183 141.854311 
L 183 122.634656 
" style="fill:none;stroke:#ff0000;stroke-width:1.5;"/>
    <path clip-path="url(#p3ff480711a)" d="M 197.307692 157.497402 
L 197.307692 136.43627 
" style="fill:none;stroke:#ff0000;stroke-width:1.5;"/>
    <path clip-path="url(#p3ff480711a)" d="M 211.615385 140.529575 
L 211.615385 121.865036 
" style="fill:none;stroke:#ff0000;stroke-width:1.5;"/>
    <path clip-path="url(#p3ff480711a)" d="M 225.923077 123.644575 
L 225.923077 107.243065 
" style="fill:none;stroke:#ff0000;stroke-width:1.5;"/>
    <path clip-path="url(#p3ff480711a)" d="M 240.230769 122.379159 
L 240.230769 104.557272 
" style="fill:none;stroke:#ff0000;stroke-width:1.5;"/>
    <path clip-path="url(#p3ff480711a)" d="M 254.538462 161.630941 
L 254.538462 140.135777 
" style="fill:none;stroke:#ff0000;stroke-width:1.5;"/>
    <path clip-path="url(#p3ff480711a)" d="M 268.846154 141.828915 
L 268.846154 119.645953 
" style="fill:none;stroke:#ff0000;stroke-width:1.5;"/>
    <path clip-path="url(#p3ff480711a)" d="M 283.153846 149.493608 
L 283.153846 129.354197 
" style="fill:none;stroke:#ff0000;stroke-width:1.5;"/>
    <path clip-path="url(#p3ff480711a)" d="M 297.461538 146.540696 
L 297.461538 124.502252 
" style="fill:none;stroke:#ff0000;stroke-width:1.5;"/>
    <path clip-path="url(#p3ff480711a)" d="M 311.769231 132.581658 
L 311.769231 113.257566 
" style="fill:none;stroke:#ff0000;stroke-width:1.5;"/>
    <path clip-path="url(#p3ff480711a)" d="M 326.076923 147.033026 
L 326.076923 120.793822 
" style="fill:none;stroke:#ff0000;stroke-width:1.5;"/>
    <path clip-path="url(#p3ff480711a)" d="M 340.384615 130.022114 
L 340.384615 107.022061 
" style="fill:none;stroke:#ff0000;stroke-width:1.5;"/>
    <path clip-path="url(#p3ff480711a)" d="M 354.692308 152.710094 
L 354.692308 125.377644 
" style="fill:none;stroke:#ff0000;stroke-width:1.5;"/>
    <path clip-path="url(#p3ff480711a)" d="M 369 140.39133 
L 369 115.499378 
" style="fill:none;stroke:#ff0000;stroke-width:1.5;"/>
    <path clip-path="url(#p3ff480711a)" d="M 383.307692 175.080265 
L 383.307692 136.266914 
" style="fill:none;stroke:#ff0000;stroke-width:1.5;"/>
    <path clip-path="url(#p3ff480711a)" d="M 397.615385 122.52122 
L 397.615385 97.732405 
" style="fill:none;stroke:#ff0000;stroke-width:1.5;"/>
    <path clip-path="url(#p3ff480711a)" d="M 411.923077 171.6095 
L 411.923077 131.560417 
" style="fill:none;stroke:#ff0000;stroke-width:1.5;"/>
    <path clip-path="url(#p3ff480711a)" d="M 426.230769 120.975803 
L 426.230769 93.904846 
" style="fill:none;stroke:#ff0000;stroke-width:1.5;"/>
    <path clip-path="url(#p3ff480711a)" d="M 440.538462 188.305467 
L 440.538462 151.347618 
" style="fill:none;stroke:#ff0000;stroke-width:1.5;"/>
    <path clip-path="url(#p3ff480711a)" d="M 454.846154 120.62595 
L 454.846154 87.687729 
" style="fill:none;stroke:#ff0000;stroke-width:1.5;"/>
    <path clip-path="url(#p3ff480711a)" d="M 469.153846 186.192896 
L 469.153846 137.042763 
" style="fill:none;stroke:#ff0000;stroke-width:1.5;"/>
    <path clip-path="url(#p3ff480711a)" d="M 483.461538 170.903295 
L 483.461538 120.463244 
" style="fill:none;stroke:#ff0000;stroke-width:1.5;"/>
    <path clip-path="url(#p3ff480711a)" d="M 497.769231 142.868319 
L 497.769231 98.280212 
" style="fill:none;stroke:#ff0000;stroke-width:1.5;"/>
    <path clip-path="url(#p3ff480711a)" d="M 512.076923 125.687527 
L 512.076923 87.677668 
" style="fill:none;stroke:#ff0000;stroke-width:1.5;"/>
    <path clip-path="url(#p3ff480711a)" d="M 526.384615 132.395234 
L 526.384615 87.858391 
" style="fill:none;stroke:#ff0000;stroke-width:1.5;"/>
    <path clip-path="url(#p3ff480711a)" d="M 540.692308 149.583783 
L 540.692308 87.460392 
" style="fill:none;stroke:#ff0000;stroke-width:1.5;"/>
    <path clip-path="url(#p3ff480711a)" d="M 555 87.739414 
L 555 87.739414 
" style="fill:none;stroke:#ff0000;stroke-width:1.5;"/>
    <path clip-path="url(#p3ff480711a)" d="M 569.307692 87.739414 
L 569.307692 87.739414 
" style="fill:none;stroke:#ff0000;stroke-width:1.5;"/>
    <path clip-path="url(#p3ff480711a)" d="M 583.615385 87.739414 
L 583.615385 87.739414 
" style="fill:none;stroke:#ff0000;stroke-width:1.5;"/>
    <path clip-path="url(#p3ff480711a)" d="M 597.923077 221.910391 
L 597.923077 138.264476 
" style="fill:none;stroke:#ff0000;stroke-width:1.5;"/>
    <path clip-path="url(#p3ff480711a)" d="M 612.230769 219.379028 
L 612.230769 120.274057 
" style="fill:none;stroke:#ff0000;stroke-width:1.5;"/>
    <path clip-path="url(#p3ff480711a)" d="M 626.538462 242.473457 
L 626.538462 130.014479 
" style="fill:none;stroke:#ff0000;stroke-width:1.5;"/>
   </g>
   <g id="LineCollection_3">
    <path clip-path="url(#p3ff480711a)" d="M 125.769231 262.385208 
L 125.769231 234.531831 
" style="fill:none;stroke:#0000ff;stroke-width:1.5;"/>
    <path clip-path="url(#p3ff480711a)" d="M 140.076923 242.904337 
L 140.076923 220.51088 
" style="fill:none;stroke:#0000ff;stroke-width:1.5;"/>
    <path clip-path="url(#p3ff480711a)" d="M 154.384615 239.129912 
L 154.384615 219.130998 
" style="fill:none;stroke:#0000ff;stroke-width:1.5;"/>
    <path clip-path="url(#p3ff480711a)" d="M 168.692308 228.405011 
L 168.692308 207.580208 
" style="fill:none;stroke:#0000ff;stroke-width:1.5;"/>
    <path clip-path="url(#p3ff480711a)" d="M 183 245.060955 
L 183 225.538782 
" style="fill:none;stroke:#0000ff;stroke-width:1.5;"/>
    <path clip-path="url(#p3ff480711a)" d="M 197.307692 262.344345 
L 197.307692 244.189085 
" style="fill:none;stroke:#0000ff;stroke-width:1.5;"/>
    <path clip-path="url(#p3ff480711a)" d="M 211.615385 238.817213 
L 211.615385 218.869652 
" style="fill:none;stroke:#0000ff;stroke-width:1.5;"/>
    <path clip-path="url(#p3ff480711a)" d="M 225.923077 216.659613 
L 225.923077 194.85363 
" style="fill:none;stroke:#0000ff;stroke-width:1.5;"/>
    <path clip-path="url(#p3ff480711a)" d="M 240.230769 230.21607 
L 240.230769 207.664572 
" style="fill:none;stroke:#0000ff;stroke-width:1.5;"/>
    <path clip-path="url(#p3ff480711a)" d="M 254.538462 249.454629 
L 254.538462 228.889621 
" style="fill:none;stroke:#0000ff;stroke-width:1.5;"/>
    <path clip-path="url(#p3ff480711a)" d="M 268.846154 246.421801 
L 268.846154 224.015406 
" style="fill:none;stroke:#0000ff;stroke-width:1.5;"/>
    <path clip-path="url(#p3ff480711a)" d="M 283.153846 242.969147 
L 283.153846 222.545926 
" style="fill:none;stroke:#0000ff;stroke-width:1.5;"/>
    <path clip-path="url(#p3ff480711a)" d="M 297.461538 239.361424 
L 297.461538 216.404857 
" style="fill:none;stroke:#0000ff;stroke-width:1.5;"/>
    <path clip-path="url(#p3ff480711a)" d="M 311.769231 226.060422 
L 311.769231 202.981342 
" style="fill:none;stroke:#0000ff;stroke-width:1.5;"/>
    <path clip-path="url(#p3ff480711a)" d="M 326.076923 240.727959 
L 326.076923 213.48165 
" style="fill:none;stroke:#0000ff;stroke-width:1.5;"/>
    <path clip-path="url(#p3ff480711a)" d="M 340.384615 243.877146 
L 340.384615 218.440228 
" style="fill:none;stroke:#0000ff;stroke-width:1.5;"/>
    <path clip-path="url(#p3ff480711a)" d="M 354.692308 250.783249 
L 354.692308 224.793329 
" style="fill:none;stroke:#0000ff;stroke-width:1.5;"/>
    <path clip-path="url(#p3ff480711a)" d="M 369 237.74366 
L 369 210.822271 
" style="fill:none;stroke:#0000ff;stroke-width:1.5;"/>
    <path clip-path="url(#p3ff480711a)" d="M 383.307692 280.768333 
L 383.307692 253.487859 
" style="fill:none;stroke:#0000ff;stroke-width:1.5;"/>
    <path clip-path="url(#p3ff480711a)" d="M 397.615385 245.652695 
L 397.615385 215.695994 
" style="fill:none;stroke:#0000ff;stroke-width:1.5;"/>
    <path clip-path="url(#p3ff480711a)" d="M 411.923077 274.739045 
L 411.923077 244.351663 
" style="fill:none;stroke:#0000ff;stroke-width:1.5;"/>
    <path clip-path="url(#p3ff480711a)" d="M 426.230769 240.929107 
L 426.230769 205.332453 
" style="fill:none;stroke:#0000ff;stroke-width:1.5;"/>
    <path clip-path="url(#p3ff480711a)" d="M 440.538462 284.318998 
L 440.538462 259.136614 
" style="fill:none;stroke:#0000ff;stroke-width:1.5;"/>
    <path clip-path="url(#p3ff480711a)" d="M 454.846154 270.111364 
L 454.846154 232.87406 
" style="fill:none;stroke:#0000ff;stroke-width:1.5;"/>
    <path clip-path="url(#p3ff480711a)" d="M 469.153846 289.25493 
L 469.153846 258.078591 
" style="fill:none;stroke:#0000ff;stroke-width:1.5;"/>
    <path clip-path="url(#p3ff480711a)" d="M 483.461538 280.417431 
L 483.461538 243.576645 
" style="fill:none;stroke:#0000ff;stroke-width:1.5;"/>
    <path clip-path="url(#p3ff480711a)" d="M 497.769231 279.096181 
L 497.769231 242.876738 
" style="fill:none;stroke:#0000ff;stroke-width:1.5;"/>
    <path clip-path="url(#p3ff480711a)" d="M 512.076923 278.824196 
L 512.076923 241.727759 
" style="fill:none;stroke:#0000ff;stroke-width:1.5;"/>
    <path clip-path="url(#p3ff480711a)" d="M 526.384615 275.822309 
L 526.384615 232.2693 
" style="fill:none;stroke:#0000ff;stroke-width:1.5;"/>
    <path clip-path="url(#p3ff480711a)" d="M 540.692308 289.009205 
L 540.692308 241.869578 
" style="fill:none;stroke:#0000ff;stroke-width:1.5;"/>
    <path clip-path="url(#p3ff480711a)" d="M 555 268.987794 
L 555 221.705608 
" style="fill:none;stroke:#0000ff;stroke-width:1.5;"/>
    <path clip-path="url(#p3ff480711a)" d="M 569.307692 299.906983 
L 569.307692 233.770224 
" style="fill:none;stroke:#0000ff;stroke-width:1.5;"/>
    <path clip-path="url(#p3ff480711a)" d="M 583.615385 253.393772 
L 583.615385 195.708818 
" style="fill:none;stroke:#0000ff;stroke-width:1.5;"/>
    <path clip-path="url(#p3ff480711a)" d="M 597.923077 301.072241 
L 597.923077 248.534462 
" style="fill:none;stroke:#0000ff;stroke-width:1.5;"/>
    <path clip-path="url(#p3ff480711a)" d="M 612.230769 311.452613 
L 612.230769 262.735126 
" style="fill:none;stroke:#0000ff;stroke-width:1.5;"/>
    <path clip-path="url(#p3ff480711a)" d="M 626.538462 320.272279 
L 626.538462 273.850905 
" style="fill:none;stroke:#0000ff;stroke-width:1.5;"/>
   </g>
   <g id="line2d_12">
    <path clip-path="url(#p3ff480711a)" d="M 118.615385 220.962787 
L 132.923077 220.962787 
L 132.923077 210.870107 
L 147.230769 210.870107 
L 147.230769 203.292834 
L 161.538462 203.292834 
L 161.538462 191.849919 
L 175.846154 191.849919 
L 175.846154 213.527604 
L 190.153846 213.527604 
L 190.153846 227.700921 
L 204.461538 227.700921 
L 204.461538 206.309711 
L 218.769231 206.309711 
L 218.769231 189.500317 
L 233.076923 189.500317 
L 233.076923 205.516599 
L 247.384615 205.516599 
L 247.384615 206.472582 
L 261.692308 206.472582 
L 261.692308 214.322369 
L 276 214.322369 
L 276 205.864794 
L 290.307692 205.864794 
L 290.307692 202.336297 
L 304.615385 202.336297 
L 304.615385 194.607563 
L 318.923077 194.607563 
L 318.923077 202.436498 
L 333.230769 202.436498 
L 333.230769 216.466957 
L 347.538462 216.466957 
L 347.538462 212.469207 
L 361.846154 212.469207 
L 361.846154 202.874607 
L 376.153846 202.874607 
L 376.153846 241.65278 
L 390.461538 241.65278 
L 390.461538 220.341699 
L 404.769231 220.341699 
L 404.769231 233.485949 
L 419.076923 233.485949 
L 419.076923 213.489909 
L 433.384615 213.489909 
L 433.384615 240.591309 
L 447.692308 240.591309 
L 447.692308 245.599277 
L 462 245.599277 
L 462 247.809315 
L 476.307692 247.809315 
L 476.307692 239.842035 
L 490.615385 239.842035 
L 490.615385 249.753484 
L 504.923077 249.753484 
L 504.923077 254.132242 
L 519.230769 254.132242 
L 519.230769 246.050305 
L 533.538462 246.050305 
L 533.538462 255.644904 
L 547.846154 255.644904 
L 547.846154 245.346701 
L 562.153846 245.346701 
L 562.153846 266.838604 
L 576.461538 266.838604 
L 576.461538 224.551295 
L 590.769231 224.551295 
L 590.769231 239.284882 
L 605.076923 239.284882 
L 605.076923 263.640404 
L 619.384615 263.640404 
L 619.384615 272.435453 
L 633.692308 272.435453 
L 633.692308 334.0008 
L 648 334.0008 
" style="fill:none;stroke:#008000;stroke-linecap:square;stroke-width:1.5;"/>
   </g>
   <g id="line2d_13">
    <defs>
     <path d="M 2 0 
L -2 -0 
" id="m11fe7e695a" style="stroke:#008000;"/>
    </defs>
    <g clip-path="url(#p3ff480711a)">
     <use style="fill:#008000;stroke:#008000;" x="125.769231" xlink:href="#m11fe7e695a" y="236.675007"/>
     <use style="fill:#008000;stroke:#008000;" x="140.076923" xlink:href="#m11fe7e695a" y="222.718363"/>
     <use style="fill:#008000;stroke:#008000;" x="154.384615" xlink:href="#m11fe7e695a" y="214.071642"/>
     <use style="fill:#008000;stroke:#008000;" x="168.692308" xlink:href="#m11fe7e695a" y="202.818981"/>
     <use style="fill:#008000;stroke:#008000;" x="183" xlink:href="#m11fe7e695a" y="223.96898"/>
     <use style="fill:#008000;stroke:#008000;" x="197.307692" xlink:href="#m11fe7e695a" y="238.046702"/>
     <use style="fill:#008000;stroke:#008000;" x="211.615385" xlink:href="#m11fe7e695a" y="216.899843"/>
     <use style="fill:#008000;stroke:#008000;" x="225.923077" xlink:href="#m11fe7e695a" y="200.524146"/>
     <use style="fill:#008000;stroke:#008000;" x="240.230769" xlink:href="#m11fe7e695a" y="216.987737"/>
     <use style="fill:#008000;stroke:#008000;" x="254.538462" xlink:href="#m11fe7e695a" y="218.099917"/>
     <use style="fill:#008000;stroke:#008000;" x="268.846154" xlink:href="#m11fe7e695a" y="226.221183"/>
     <use style="fill:#008000;stroke:#008000;" x="283.153846" xlink:href="#m11fe7e695a" y="216.957938"/>
     <use style="fill:#008000;stroke:#008000;" x="297.461538" xlink:href="#m11fe7e695a" y="214.558797"/>
     <use style="fill:#008000;stroke:#008000;" x="311.769231" xlink:href="#m11fe7e695a" y="206.462303"/>
     <use style="fill:#008000;stroke:#008000;" x="326.076923" xlink:href="#m11fe7e695a" y="216.814012"/>
     <use style="fill:#008000;stroke:#008000;" x="340.384615" xlink:href="#m11fe7e695a" y="229.579166"/>
     <use style="fill:#008000;stroke:#008000;" x="354.692308" xlink:href="#m11fe7e695a" y="226.500068"/>
     <use style="fill:#008000;stroke:#008000;" x="369" xlink:href="#m11fe7e695a" y="216.877037"/>
     <use style="fill:#008000;stroke:#008000;" x="383.307692" xlink:href="#m11fe7e695a" y="257.584327"/>
     <use style="fill:#008000;stroke:#008000;" x="397.615385" xlink:href="#m11fe7e695a" y="235.56893"/>
     <use style="fill:#008000;stroke:#008000;" x="411.923077" xlink:href="#m11fe7e695a" y="250.776793"/>
     <use style="fill:#008000;stroke:#008000;" x="426.230769" xlink:href="#m11fe7e695a" y="231.446301"/>
     <use style="fill:#008000;stroke:#008000;" x="440.538462" xlink:href="#m11fe7e695a" y="256.281091"/>
     <use style="fill:#008000;stroke:#008000;" x="454.846154" xlink:href="#m11fe7e695a" y="264.515456"/>
     <use style="fill:#008000;stroke:#008000;" x="469.153846" xlink:href="#m11fe7e695a" y="266.381244"/>
     <use style="fill:#008000;stroke:#008000;" x="483.461538" xlink:href="#m11fe7e695a" y="260.365905"/>
     <use style="fill:#008000;stroke:#008000;" x="497.769231" xlink:href="#m11fe7e695a" y="268.705813"/>
     <use style="fill:#008000;stroke:#008000;" x="512.076923" xlink:href="#m11fe7e695a" y="273.084212"/>
     <use style="fill:#008000;stroke:#008000;" x="526.384615" xlink:href="#m11fe7e695a" y="268.349825"/>
     <use style="fill:#008000;stroke:#008000;" x="540.692308" xlink:href="#m11fe7e695a" y="280.099301"/>
     <use style="fill:#008000;stroke:#008000;" x="555" xlink:href="#m11fe7e695a" y="268.987794"/>
     <use style="fill:#008000;stroke:#008000;" x="569.307692" xlink:href="#m11fe7e695a" y="299.906983"/>
     <use style="fill:#008000;stroke:#008000;" x="583.615385" xlink:href="#m11fe7e695a" y="253.393772"/>
     <use style="fill:#008000;stroke:#008000;" x="597.923077" xlink:href="#m11fe7e695a" y="272.513424"/>
     <use style="fill:#008000;stroke:#008000;" x="612.230769" xlink:href="#m11fe7e695a" y="293.373098"/>
     <use style="fill:#008000;stroke:#008000;" x="626.538462" xlink:href="#m11fe7e695a" y="303.218127"/>
     <use style="fill:#008000;stroke:#008000;" x="640.846154" xlink:href="#m11fe7e695a" y="334.0008"/>
    </g>
   </g>
   <g id="line2d_14">
    <g clip-path="url(#p3ff480711a)">
     <use style="fill:#008000;stroke:#008000;" x="125.769231" xlink:href="#m11fe7e695a" y="205.250567"/>
     <use style="fill:#008000;stroke:#008000;" x="140.076923" xlink:href="#m11fe7e695a" y="199.02185"/>
     <use style="fill:#008000;stroke:#008000;" x="154.384615" xlink:href="#m11fe7e695a" y="192.514025"/>
     <use style="fill:#008000;stroke:#008000;" x="168.692308" xlink:href="#m11fe7e695a" y="180.880856"/>
     <use style="fill:#008000;stroke:#008000;" x="183" xlink:href="#m11fe7e695a" y="203.086228"/>
     <use style="fill:#008000;stroke:#008000;" x="197.307692" xlink:href="#m11fe7e695a" y="217.35514"/>
     <use style="fill:#008000;stroke:#008000;" x="211.615385" xlink:href="#m11fe7e695a" y="195.719579"/>
     <use style="fill:#008000;stroke:#008000;" x="225.923077" xlink:href="#m11fe7e695a" y="178.476489"/>
     <use style="fill:#008000;stroke:#008000;" x="240.230769" xlink:href="#m11fe7e695a" y="194.04546"/>
     <use style="fill:#008000;stroke:#008000;" x="254.538462" xlink:href="#m11fe7e695a" y="194.845248"/>
     <use style="fill:#008000;stroke:#008000;" x="268.846154" xlink:href="#m11fe7e695a" y="202.423556"/>
     <use style="fill:#008000;stroke:#008000;" x="283.153846" xlink:href="#m11fe7e695a" y="194.77165"/>
     <use style="fill:#008000;stroke:#008000;" x="297.461538" xlink:href="#m11fe7e695a" y="190.113796"/>
     <use style="fill:#008000;stroke:#008000;" x="311.769231" xlink:href="#m11fe7e695a" y="182.752822"/>
     <use style="fill:#008000;stroke:#008000;" x="326.076923" xlink:href="#m11fe7e695a" y="188.058984"/>
     <use style="fill:#008000;stroke:#008000;" x="340.384615" xlink:href="#m11fe7e695a" y="203.354747"/>
     <use style="fill:#008000;stroke:#008000;" x="354.692308" xlink:href="#m11fe7e695a" y="198.438345"/>
     <use style="fill:#008000;stroke:#008000;" x="369" xlink:href="#m11fe7e695a" y="188.872177"/>
     <use style="fill:#008000;stroke:#008000;" x="383.307692" xlink:href="#m11fe7e695a" y="225.721233"/>
     <use style="fill:#008000;stroke:#008000;" x="397.615385" xlink:href="#m11fe7e695a" y="205.114468"/>
     <use style="fill:#008000;stroke:#008000;" x="411.923077" xlink:href="#m11fe7e695a" y="216.195104"/>
     <use style="fill:#008000;stroke:#008000;" x="426.230769" xlink:href="#m11fe7e695a" y="195.533517"/>
     <use style="fill:#008000;stroke:#008000;" x="440.538462" xlink:href="#m11fe7e695a" y="224.901526"/>
     <use style="fill:#008000;stroke:#008000;" x="454.846154" xlink:href="#m11fe7e695a" y="226.683097"/>
     <use style="fill:#008000;stroke:#008000;" x="469.153846" xlink:href="#m11fe7e695a" y="229.237385"/>
     <use style="fill:#008000;stroke:#008000;" x="483.461538" xlink:href="#m11fe7e695a" y="219.318164"/>
     <use style="fill:#008000;stroke:#008000;" x="497.769231" xlink:href="#m11fe7e695a" y="230.801154"/>
     <use style="fill:#008000;stroke:#008000;" x="512.076923" xlink:href="#m11fe7e695a" y="235.180272"/>
     <use style="fill:#008000;stroke:#008000;" x="526.384615" xlink:href="#m11fe7e695a" y="223.750784"/>
     <use style="fill:#008000;stroke:#008000;" x="540.692308" xlink:href="#m11fe7e695a" y="231.190508"/>
     <use style="fill:#008000;stroke:#008000;" x="555" xlink:href="#m11fe7e695a" y="221.705608"/>
     <use style="fill:#008000;stroke:#008000;" x="569.307692" xlink:href="#m11fe7e695a" y="233.770224"/>
     <use style="fill:#008000;stroke:#008000;" x="583.615385" xlink:href="#m11fe7e695a" y="195.708818"/>
     <use style="fill:#008000;stroke:#008000;" x="597.923077" xlink:href="#m11fe7e695a" y="206.05634"/>
     <use style="fill:#008000;stroke:#008000;" x="612.230769" xlink:href="#m11fe7e695a" y="233.90771"/>
     <use style="fill:#008000;stroke:#008000;" x="626.538462" xlink:href="#m11fe7e695a" y="241.65278"/>
     <use style="fill:#008000;stroke:#008000;" x="640.846154" xlink:href="#m11fe7e695a" y="334.0008"/>
    </g>
   </g>
   <g id="line2d_15">
    <path clip-path="url(#p3ff480711a)" d="M 118.615385 147.640832 
L 132.923077 147.640832 
L 132.923077 129.414418 
L 147.230769 129.414418 
L 147.230769 136.41899 
L 161.538462 136.41899 
L 161.538462 133.028864 
L 175.846154 133.028864 
L 175.846154 132.244484 
L 190.153846 132.244484 
L 190.153846 146.966836 
L 204.461538 146.966836 
L 204.461538 131.197306 
L 218.769231 131.197306 
L 218.769231 115.44382 
L 233.076923 115.44382 
L 233.076923 113.468215 
L 247.384615 113.468215 
L 247.384615 150.883359 
L 261.692308 150.883359 
L 261.692308 130.737434 
L 276 130.737434 
L 276 139.423902 
L 290.307692 139.423902 
L 290.307692 135.521474 
L 304.615385 135.521474 
L 304.615385 122.919612 
L 318.923077 122.919612 
L 318.923077 133.913424 
L 333.230769 133.913424 
L 333.230769 118.522087 
L 347.538462 118.522087 
L 347.538462 139.043869 
L 361.846154 139.043869 
L 361.846154 127.945354 
L 376.153846 127.945354 
L 376.153846 155.673589 
L 390.461538 155.673589 
L 390.461538 110.126813 
L 404.769231 110.126813 
L 404.769231 151.584958 
L 419.076923 151.584958 
L 419.076923 107.440325 
L 433.384615 107.440325 
L 433.384615 169.826543 
L 447.692308 169.826543 
L 447.692308 104.15684 
L 462 104.15684 
L 462 161.61783 
L 476.307692 161.61783 
L 476.307692 145.683269 
L 490.615385 145.683269 
L 490.615385 120.574265 
L 504.923077 120.574265 
L 504.923077 106.682597 
L 519.230769 106.682597 
L 519.230769 110.126813 
L 533.538462 110.126813 
L 533.538462 118.522087 
L 547.846154 118.522087 
L 547.846154 87.739414 
L 562.153846 87.739414 
L 562.153846 87.739414 
L 576.461538 87.739414 
L 576.461538 87.739414 
L 590.769231 87.739414 
L 590.769231 180.087434 
L 605.076923 180.087434 
L 605.076923 169.826543 
L 619.384615 169.826543 
L 619.384615 186.243968 
L 633.692308 186.243968 
" style="fill:none;stroke:#ff0000;stroke-linecap:square;stroke-width:1.5;"/>
   </g>
   <g id="line2d_16">
    <defs>
     <path d="M 2 0 
L -2 -0 
" id="me50cb59417" style="stroke:#ff0000;"/>
    </defs>
    <g clip-path="url(#p3ff480711a)">
     <use style="fill:#ff0000;stroke:#ff0000;" x="125.769231" xlink:href="#me50cb59417" y="163.437013"/>
     <use style="fill:#ff0000;stroke:#ff0000;" x="140.076923" xlink:href="#me50cb59417" y="140.087524"/>
     <use style="fill:#ff0000;stroke:#ff0000;" x="154.384615" xlink:href="#me50cb59417" y="145.876749"/>
     <use style="fill:#ff0000;stroke:#ff0000;" x="168.692308" xlink:href="#me50cb59417" y="142.242212"/>
     <use style="fill:#ff0000;stroke:#ff0000;" x="183" xlink:href="#me50cb59417" y="141.854311"/>
     <use style="fill:#ff0000;stroke:#ff0000;" x="197.307692" xlink:href="#me50cb59417" y="157.497402"/>
     <use style="fill:#ff0000;stroke:#ff0000;" x="211.615385" xlink:href="#me50cb59417" y="140.529575"/>
     <use style="fill:#ff0000;stroke:#ff0000;" x="225.923077" xlink:href="#me50cb59417" y="123.644575"/>
     <use style="fill:#ff0000;stroke:#ff0000;" x="240.230769" xlink:href="#me50cb59417" y="122.379159"/>
     <use style="fill:#ff0000;stroke:#ff0000;" x="254.538462" xlink:href="#me50cb59417" y="161.630941"/>
     <use style="fill:#ff0000;stroke:#ff0000;" x="268.846154" xlink:href="#me50cb59417" y="141.828915"/>
     <use style="fill:#ff0000;stroke:#ff0000;" x="283.153846" xlink:href="#me50cb59417" y="149.493608"/>
     <use style="fill:#ff0000;stroke:#ff0000;" x="297.461538" xlink:href="#me50cb59417" y="146.540696"/>
     <use style="fill:#ff0000;stroke:#ff0000;" x="311.769231" xlink:href="#me50cb59417" y="132.581658"/>
     <use style="fill:#ff0000;stroke:#ff0000;" x="326.076923" xlink:href="#me50cb59417" y="147.033026"/>
     <use style="fill:#ff0000;stroke:#ff0000;" x="340.384615" xlink:href="#me50cb59417" y="130.022114"/>
     <use style="fill:#ff0000;stroke:#ff0000;" x="354.692308" xlink:href="#me50cb59417" y="152.710094"/>
     <use style="fill:#ff0000;stroke:#ff0000;" x="369" xlink:href="#me50cb59417" y="140.39133"/>
     <use style="fill:#ff0000;stroke:#ff0000;" x="383.307692" xlink:href="#me50cb59417" y="175.080265"/>
     <use style="fill:#ff0000;stroke:#ff0000;" x="397.615385" xlink:href="#me50cb59417" y="122.52122"/>
     <use style="fill:#ff0000;stroke:#ff0000;" x="411.923077" xlink:href="#me50cb59417" y="171.6095"/>
     <use style="fill:#ff0000;stroke:#ff0000;" x="426.230769" xlink:href="#me50cb59417" y="120.975803"/>
     <use style="fill:#ff0000;stroke:#ff0000;" x="440.538462" xlink:href="#me50cb59417" y="188.305467"/>
     <use style="fill:#ff0000;stroke:#ff0000;" x="454.846154" xlink:href="#me50cb59417" y="120.62595"/>
     <use style="fill:#ff0000;stroke:#ff0000;" x="469.153846" xlink:href="#me50cb59417" y="186.192896"/>
     <use style="fill:#ff0000;stroke:#ff0000;" x="483.461538" xlink:href="#me50cb59417" y="170.903295"/>
     <use style="fill:#ff0000;stroke:#ff0000;" x="497.769231" xlink:href="#me50cb59417" y="142.868319"/>
     <use style="fill:#ff0000;stroke:#ff0000;" x="512.076923" xlink:href="#me50cb59417" y="125.687527"/>
     <use style="fill:#ff0000;stroke:#ff0000;" x="526.384615" xlink:href="#me50cb59417" y="132.395234"/>
     <use style="fill:#ff0000;stroke:#ff0000;" x="540.692308" xlink:href="#me50cb59417" y="149.583783"/>
     <use style="fill:#ff0000;stroke:#ff0000;" x="555" xlink:href="#me50cb59417" y="87.739414"/>
     <use style="fill:#ff0000;stroke:#ff0000;" x="569.307692" xlink:href="#me50cb59417" y="87.739414"/>
     <use style="fill:#ff0000;stroke:#ff0000;" x="583.615385" xlink:href="#me50cb59417" y="87.739414"/>
     <use style="fill:#ff0000;stroke:#ff0000;" x="597.923077" xlink:href="#me50cb59417" y="221.910391"/>
     <use style="fill:#ff0000;stroke:#ff0000;" x="612.230769" xlink:href="#me50cb59417" y="219.379028"/>
     <use style="fill:#ff0000;stroke:#ff0000;" x="626.538462" xlink:href="#me50cb59417" y="242.473457"/>
    </g>
   </g>
   <g id="line2d_17">
    <g clip-path="url(#p3ff480711a)">
     <use style="fill:#ff0000;stroke:#ff0000;" x="125.769231" xlink:href="#me50cb59417" y="131.844651"/>
     <use style="fill:#ff0000;stroke:#ff0000;" x="140.076923" xlink:href="#me50cb59417" y="118.741312"/>
     <use style="fill:#ff0000;stroke:#ff0000;" x="154.384615" xlink:href="#me50cb59417" y="126.961231"/>
     <use style="fill:#ff0000;stroke:#ff0000;" x="168.692308" xlink:href="#me50cb59417" y="123.815516"/>
     <use style="fill:#ff0000;stroke:#ff0000;" x="183" xlink:href="#me50cb59417" y="122.634656"/>
     <use style="fill:#ff0000;stroke:#ff0000;" x="197.307692" xlink:href="#me50cb59417" y="136.43627"/>
     <use style="fill:#ff0000;stroke:#ff0000;" x="211.615385" xlink:href="#me50cb59417" y="121.865036"/>
     <use style="fill:#ff0000;stroke:#ff0000;" x="225.923077" xlink:href="#me50cb59417" y="107.243065"/>
     <use style="fill:#ff0000;stroke:#ff0000;" x="240.230769" xlink:href="#me50cb59417" y="104.557272"/>
     <use style="fill:#ff0000;stroke:#ff0000;" x="254.538462" xlink:href="#me50cb59417" y="140.135777"/>
     <use style="fill:#ff0000;stroke:#ff0000;" x="268.846154" xlink:href="#me50cb59417" y="119.645953"/>
     <use style="fill:#ff0000;stroke:#ff0000;" x="283.153846" xlink:href="#me50cb59417" y="129.354197"/>
     <use style="fill:#ff0000;stroke:#ff0000;" x="297.461538" xlink:href="#me50cb59417" y="124.502252"/>
     <use style="fill:#ff0000;stroke:#ff0000;" x="311.769231" xlink:href="#me50cb59417" y="113.257566"/>
     <use style="fill:#ff0000;stroke:#ff0000;" x="326.076923" xlink:href="#me50cb59417" y="120.793822"/>
     <use style="fill:#ff0000;stroke:#ff0000;" x="340.384615" xlink:href="#me50cb59417" y="107.022061"/>
     <use style="fill:#ff0000;stroke:#ff0000;" x="354.692308" xlink:href="#me50cb59417" y="125.377644"/>
     <use style="fill:#ff0000;stroke:#ff0000;" x="369" xlink:href="#me50cb59417" y="115.499378"/>
     <use style="fill:#ff0000;stroke:#ff0000;" x="383.307692" xlink:href="#me50cb59417" y="136.266914"/>
     <use style="fill:#ff0000;stroke:#ff0000;" x="397.615385" xlink:href="#me50cb59417" y="97.732405"/>
     <use style="fill:#ff0000;stroke:#ff0000;" x="411.923077" xlink:href="#me50cb59417" y="131.560417"/>
     <use style="fill:#ff0000;stroke:#ff0000;" x="426.230769" xlink:href="#me50cb59417" y="93.904846"/>
     <use style="fill:#ff0000;stroke:#ff0000;" x="440.538462" xlink:href="#me50cb59417" y="151.347618"/>
     <use style="fill:#ff0000;stroke:#ff0000;" x="454.846154" xlink:href="#me50cb59417" y="87.687729"/>
     <use style="fill:#ff0000;stroke:#ff0000;" x="469.153846" xlink:href="#me50cb59417" y="137.042763"/>
     <use style="fill:#ff0000;stroke:#ff0000;" x="483.461538" xlink:href="#me50cb59417" y="120.463244"/>
     <use style="fill:#ff0000;stroke:#ff0000;" x="497.769231" xlink:href="#me50cb59417" y="98.280212"/>
     <use style="fill:#ff0000;stroke:#ff0000;" x="512.076923" xlink:href="#me50cb59417" y="87.677668"/>
     <use style="fill:#ff0000;stroke:#ff0000;" x="526.384615" xlink:href="#me50cb59417" y="87.858391"/>
     <use style="fill:#ff0000;stroke:#ff0000;" x="540.692308" xlink:href="#me50cb59417" y="87.460392"/>
     <use style="fill:#ff0000;stroke:#ff0000;" x="555" xlink:href="#me50cb59417" y="87.739414"/>
     <use style="fill:#ff0000;stroke:#ff0000;" x="569.307692" xlink:href="#me50cb59417" y="87.739414"/>
     <use style="fill:#ff0000;stroke:#ff0000;" x="583.615385" xlink:href="#me50cb59417" y="87.739414"/>
     <use style="fill:#ff0000;stroke:#ff0000;" x="597.923077" xlink:href="#me50cb59417" y="138.264476"/>
     <use style="fill:#ff0000;stroke:#ff0000;" x="612.230769" xlink:href="#me50cb59417" y="120.274057"/>
     <use style="fill:#ff0000;stroke:#ff0000;" x="626.538462" xlink:href="#me50cb59417" y="130.014479"/>
    </g>
   </g>
   <g id="line2d_18">
    <path clip-path="url(#p3ff480711a)" d="M 118.615385 248.45852 
L 132.923077 248.45852 
L 132.923077 231.707609 
L 147.230769 231.707609 
L 147.230769 229.130455 
L 161.538462 229.130455 
L 161.538462 217.992609 
L 175.846154 217.992609 
L 175.846154 235.299868 
L 190.153846 235.299868 
L 190.153846 253.266715 
L 204.461538 253.266715 
L 204.461538 228.843432 
L 218.769231 228.843432 
L 218.769231 205.756622 
L 233.076923 205.756622 
L 233.076923 218.940321 
L 247.384615 218.940321 
L 247.384615 239.172125 
L 261.692308 239.172125 
L 261.692308 235.218603 
L 276 235.218603 
L 276 232.757536 
L 290.307692 232.757536 
L 290.307692 227.88314 
L 304.615385 227.88314 
L 304.615385 214.520882 
L 318.923077 214.520882 
L 318.923077 227.104804 
L 333.230769 227.104804 
L 333.230769 231.158687 
L 347.538462 231.158687 
L 347.538462 237.788289 
L 361.846154 237.788289 
L 361.846154 224.282965 
L 376.153846 224.282965 
L 376.153846 267.128096 
L 390.461538 267.128096 
L 390.461538 230.674344 
L 404.769231 230.674344 
L 404.769231 259.545354 
L 419.076923 259.545354 
L 419.076923 223.13078 
L 433.384615 223.13078 
L 433.384615 271.727806 
L 447.692308 271.727806 
L 447.692308 251.492712 
L 462 251.492712 
L 462 273.66676 
L 476.307692 273.66676 
L 476.307692 261.997038 
L 490.615385 261.997038 
L 490.615385 260.986459 
L 504.923077 260.986459 
L 504.923077 260.275978 
L 519.230769 260.275978 
L 519.230769 254.045805 
L 533.538462 254.045805 
L 533.538462 265.439391 
L 547.846154 265.439391 
L 547.846154 245.346701 
L 562.153846 245.346701 
L 562.153846 266.838604 
L 576.461538 266.838604 
L 576.461538 224.551295 
L 590.769231 224.551295 
L 590.769231 274.803351 
L 605.076923 274.803351 
L 605.076923 287.093869 
L 619.384615 287.093869 
L 619.384615 297.061592 
L 633.692308 297.061592 
" style="fill:none;stroke:#0000ff;stroke-linecap:square;stroke-width:1.5;"/>
   </g>
   <g id="line2d_19">
    <defs>
     <path d="M 2 0 
L -2 -0 
" id="mb283203fef" style="stroke:#0000ff;"/>
    </defs>
    <g clip-path="url(#p3ff480711a)">
     <use style="fill:#0000ff;stroke:#0000ff;" x="125.769231" xlink:href="#mb283203fef" y="262.385208"/>
     <use style="fill:#0000ff;stroke:#0000ff;" x="140.076923" xlink:href="#mb283203fef" y="242.904337"/>
     <use style="fill:#0000ff;stroke:#0000ff;" x="154.384615" xlink:href="#mb283203fef" y="239.129912"/>
     <use style="fill:#0000ff;stroke:#0000ff;" x="168.692308" xlink:href="#mb283203fef" y="228.405011"/>
     <use style="fill:#0000ff;stroke:#0000ff;" x="183" xlink:href="#mb283203fef" y="245.060955"/>
     <use style="fill:#0000ff;stroke:#0000ff;" x="197.307692" xlink:href="#mb283203fef" y="262.344345"/>
     <use style="fill:#0000ff;stroke:#0000ff;" x="211.615385" xlink:href="#mb283203fef" y="238.817213"/>
     <use style="fill:#0000ff;stroke:#0000ff;" x="225.923077" xlink:href="#mb283203fef" y="216.659613"/>
     <use style="fill:#0000ff;stroke:#0000ff;" x="240.230769" xlink:href="#mb283203fef" y="230.21607"/>
     <use style="fill:#0000ff;stroke:#0000ff;" x="254.538462" xlink:href="#mb283203fef" y="249.454629"/>
     <use style="fill:#0000ff;stroke:#0000ff;" x="268.846154" xlink:href="#mb283203fef" y="246.421801"/>
     <use style="fill:#0000ff;stroke:#0000ff;" x="283.153846" xlink:href="#mb283203fef" y="242.969147"/>
     <use style="fill:#0000ff;stroke:#0000ff;" x="297.461538" xlink:href="#mb283203fef" y="239.361424"/>
     <use style="fill:#0000ff;stroke:#0000ff;" x="311.769231" xlink:href="#mb283203fef" y="226.060422"/>
     <use style="fill:#0000ff;stroke:#0000ff;" x="326.076923" xlink:href="#mb283203fef" y="240.727959"/>
     <use style="fill:#0000ff;stroke:#0000ff;" x="340.384615" xlink:href="#mb283203fef" y="243.877146"/>
     <use style="fill:#0000ff;stroke:#0000ff;" x="354.692308" xlink:href="#mb283203fef" y="250.783249"/>
     <use style="fill:#0000ff;stroke:#0000ff;" x="369" xlink:href="#mb283203fef" y="237.74366"/>
     <use style="fill:#0000ff;stroke:#0000ff;" x="383.307692" xlink:href="#mb283203fef" y="280.768333"/>
     <use style="fill:#0000ff;stroke:#0000ff;" x="397.615385" xlink:href="#mb283203fef" y="245.652695"/>
     <use style="fill:#0000ff;stroke:#0000ff;" x="411.923077" xlink:href="#mb283203fef" y="274.739045"/>
     <use style="fill:#0000ff;stroke:#0000ff;" x="426.230769" xlink:href="#mb283203fef" y="240.929107"/>
     <use style="fill:#0000ff;stroke:#0000ff;" x="440.538462" xlink:href="#mb283203fef" y="284.318998"/>
     <use style="fill:#0000ff;stroke:#0000ff;" x="454.846154" xlink:href="#mb283203fef" y="270.111364"/>
     <use style="fill:#0000ff;stroke:#0000ff;" x="469.153846" xlink:href="#mb283203fef" y="289.25493"/>
     <use style="fill:#0000ff;stroke:#0000ff;" x="483.461538" xlink:href="#mb283203fef" y="280.417431"/>
     <use style="fill:#0000ff;stroke:#0000ff;" x="497.769231" xlink:href="#mb283203fef" y="279.096181"/>
     <use style="fill:#0000ff;stroke:#0000ff;" x="512.076923" xlink:href="#mb283203fef" y="278.824196"/>
     <use style="fill:#0000ff;stroke:#0000ff;" x="526.384615" xlink:href="#mb283203fef" y="275.822309"/>
     <use style="fill:#0000ff;stroke:#0000ff;" x="540.692308" xlink:href="#mb283203fef" y="289.009205"/>
     <use style="fill:#0000ff;stroke:#0000ff;" x="555" xlink:href="#mb283203fef" y="268.987794"/>
     <use style="fill:#0000ff;stroke:#0000ff;" x="569.307692" xlink:href="#mb283203fef" y="299.906983"/>
     <use style="fill:#0000ff;stroke:#0000ff;" x="583.615385" xlink:href="#mb283203fef" y="253.393772"/>
     <use style="fill:#0000ff;stroke:#0000ff;" x="597.923077" xlink:href="#mb283203fef" y="301.072241"/>
     <use style="fill:#0000ff;stroke:#0000ff;" x="612.230769" xlink:href="#mb283203fef" y="311.452613"/>
     <use style="fill:#0000ff;stroke:#0000ff;" x="626.538462" xlink:href="#mb283203fef" y="320.272279"/>
    </g>
   </g>
   <g id="line2d_20">
    <g clip-path="url(#p3ff480711a)">
     <use style="fill:#0000ff;stroke:#0000ff;" x="125.769231" xlink:href="#mb283203fef" y="234.531831"/>
     <use style="fill:#0000ff;stroke:#0000ff;" x="140.076923" xlink:href="#mb283203fef" y="220.51088"/>
     <use style="fill:#0000ff;stroke:#0000ff;" x="154.384615" xlink:href="#mb283203fef" y="219.130998"/>
     <use style="fill:#0000ff;stroke:#0000ff;" x="168.692308" xlink:href="#mb283203fef" y="207.580208"/>
     <use style="fill:#0000ff;stroke:#0000ff;" x="183" xlink:href="#mb283203fef" y="225.538782"/>
     <use style="fill:#0000ff;stroke:#0000ff;" x="197.307692" xlink:href="#mb283203fef" y="244.189085"/>
     <use style="fill:#0000ff;stroke:#0000ff;" x="211.615385" xlink:href="#mb283203fef" y="218.869652"/>
     <use style="fill:#0000ff;stroke:#0000ff;" x="225.923077" xlink:href="#mb283203fef" y="194.85363"/>
     <use style="fill:#0000ff;stroke:#0000ff;" x="240.230769" xlink:href="#mb283203fef" y="207.664572"/>
     <use style="fill:#0000ff;stroke:#0000ff;" x="254.538462" xlink:href="#mb283203fef" y="228.889621"/>
     <use style="fill:#0000ff;stroke:#0000ff;" x="268.846154" xlink:href="#mb283203fef" y="224.015406"/>
     <use style="fill:#0000ff;stroke:#0000ff;" x="283.153846" xlink:href="#mb283203fef" y="222.545926"/>
     <use style="fill:#0000ff;stroke:#0000ff;" x="297.461538" xlink:href="#mb283203fef" y="216.404857"/>
     <use style="fill:#0000ff;stroke:#0000ff;" x="311.769231" xlink:href="#mb283203fef" y="202.981342"/>
     <use style="fill:#0000ff;stroke:#0000ff;" x="326.076923" xlink:href="#mb283203fef" y="213.48165"/>
     <use style="fill:#0000ff;stroke:#0000ff;" x="340.384615" xlink:href="#mb283203fef" y="218.440228"/>
     <use style="fill:#0000ff;stroke:#0000ff;" x="354.692308" xlink:href="#mb283203fef" y="224.793329"/>
     <use style="fill:#0000ff;stroke:#0000ff;" x="369" xlink:href="#mb283203fef" y="210.822271"/>
     <use style="fill:#0000ff;stroke:#0000ff;" x="383.307692" xlink:href="#mb283203fef" y="253.487859"/>
     <use style="fill:#0000ff;stroke:#0000ff;" x="397.615385" xlink:href="#mb283203fef" y="215.695994"/>
     <use style="fill:#0000ff;stroke:#0000ff;" x="411.923077" xlink:href="#mb283203fef" y="244.351663"/>
     <use style="fill:#0000ff;stroke:#0000ff;" x="426.230769" xlink:href="#mb283203fef" y="205.332453"/>
     <use style="fill:#0000ff;stroke:#0000ff;" x="440.538462" xlink:href="#mb283203fef" y="259.136614"/>
     <use style="fill:#0000ff;stroke:#0000ff;" x="454.846154" xlink:href="#mb283203fef" y="232.87406"/>
     <use style="fill:#0000ff;stroke:#0000ff;" x="469.153846" xlink:href="#mb283203fef" y="258.078591"/>
     <use style="fill:#0000ff;stroke:#0000ff;" x="483.461538" xlink:href="#mb283203fef" y="243.576645"/>
     <use style="fill:#0000ff;stroke:#0000ff;" x="497.769231" xlink:href="#mb283203fef" y="242.876738"/>
     <use style="fill:#0000ff;stroke:#0000ff;" x="512.076923" xlink:href="#mb283203fef" y="241.727759"/>
     <use style="fill:#0000ff;stroke:#0000ff;" x="526.384615" xlink:href="#mb283203fef" y="232.2693"/>
     <use style="fill:#0000ff;stroke:#0000ff;" x="540.692308" xlink:href="#mb283203fef" y="241.869578"/>
     <use style="fill:#0000ff;stroke:#0000ff;" x="555" xlink:href="#mb283203fef" y="221.705608"/>
     <use style="fill:#0000ff;stroke:#0000ff;" x="569.307692" xlink:href="#mb283203fef" y="233.770224"/>
     <use style="fill:#0000ff;stroke:#0000ff;" x="583.615385" xlink:href="#mb283203fef" y="195.708818"/>
     <use style="fill:#0000ff;stroke:#0000ff;" x="597.923077" xlink:href="#mb283203fef" y="248.534462"/>
     <use style="fill:#0000ff;stroke:#0000ff;" x="612.230769" xlink:href="#mb283203fef" y="262.735126"/>
     <use style="fill:#0000ff;stroke:#0000ff;" x="626.538462" xlink:href="#mb283203fef" y="273.850905"/>
    </g>
   </g>
   <g id="patch_3">
    <path d="M 90 334.0008 
L 90 85.2768 
" style="fill:none;stroke:#000000;stroke-linecap:square;stroke-linejoin:miter;stroke-width:0.8;"/>
   </g>
   <g id="patch_4">
    <path d="M 648 334.0008 
L 648 85.2768 
" style="fill:none;stroke:#000000;stroke-linecap:square;stroke-linejoin:miter;stroke-width:0.8;"/>
   </g>
   <g id="patch_5">
    <path d="M 90 334.0008 
L 648 334.0008 
" style="fill:none;stroke:#000000;stroke-linecap:square;stroke-linejoin:miter;stroke-width:0.8;"/>
   </g>
   <g id="patch_6">
    <path d="M 90 85.2768 
L 648 85.2768 
" style="fill:none;stroke:#000000;stroke-linecap:square;stroke-linejoin:miter;stroke-width:0.8;"/>
   </g>
   <g id="legend_1">
    <g id="patch_7">
     <path d="M 266.025938 325.0008 
L 471.974063 325.0008 
Q 475.574063 325.0008 475.574063 321.4008 
L 475.574063 243.938925 
Q 475.574063 240.338925 471.974063 240.338925 
L 266.025938 240.338925 
Q 262.425938 240.338925 262.425938 243.938925 
L 262.425938 321.4008 
Q 262.425938 325.0008 266.025938 325.0008 
z
" style="fill:#ffffff;opacity:0.5;stroke:#cccccc;stroke-linejoin:miter;"/>
    </g>
    <g id="line2d_21">
     <path d="M 269.625938 254.916112 
L 305.625938 254.916112 
" style="fill:none;stroke:#008000;stroke-linecap:square;stroke-width:1.5;"/>
    </g>
    <g id="line2d_22"/>
    <g id="text_6">
     <!-- Efficiency -->
     <defs>
      <path d="M 9.8125 72.90625 
L 55.90625 72.90625 
L 55.90625 64.59375 
L 19.671875 64.59375 
L 19.671875 43.015625 
L 54.390625 43.015625 
L 54.390625 34.71875 
L 19.671875 34.71875 
L 19.671875 8.296875 
L 56.78125 8.296875 
L 56.78125 0 
L 9.8125 0 
z
" id="DejaVuSans-69"/>
      <path d="M 37.109375 75.984375 
L 37.109375 68.5 
L 28.515625 68.5 
Q 23.6875 68.5 21.796875 66.546875 
Q 19.921875 64.59375 19.921875 59.515625 
L 19.921875 54.6875 
L 34.71875 54.6875 
L 34.71875 47.703125 
L 19.921875 47.703125 
L 19.921875 0 
L 10.890625 0 
L 10.890625 47.703125 
L 2.296875 47.703125 
L 2.296875 54.6875 
L 10.890625 54.6875 
L 10.890625 58.5 
Q 10.890625 67.625 15.140625 71.796875 
Q 19.390625 75.984375 28.609375 75.984375 
z
" id="DejaVuSans-102"/>
      <path d="M 56.203125 29.59375 
L 56.203125 25.203125 
L 14.890625 25.203125 
Q 15.484375 15.921875 20.484375 11.0625 
Q 25.484375 6.203125 34.421875 6.203125 
Q 39.59375 6.203125 44.453125 7.46875 
Q 49.3125 8.734375 54.109375 11.28125 
L 54.109375 2.78125 
Q 49.265625 0.734375 44.1875 -0.34375 
Q 39.109375 -1.421875 33.890625 -1.421875 
Q 20.796875 -1.421875 13.15625 6.1875 
Q 5.515625 13.8125 5.515625 26.8125 
Q 5.515625 40.234375 12.765625 48.109375 
Q 20.015625 56 32.328125 56 
Q 43.359375 56 49.78125 48.890625 
Q 56.203125 41.796875 56.203125 29.59375 
z
M 47.21875 32.234375 
Q 47.125 39.59375 43.09375 43.984375 
Q 39.0625 48.390625 32.421875 48.390625 
Q 24.90625 48.390625 20.390625 44.140625 
Q 15.875 39.890625 15.1875 32.171875 
z
" id="DejaVuSans-101"/>
      <path d="M 32.171875 -5.078125 
Q 28.375 -14.84375 24.75 -17.8125 
Q 21.140625 -20.796875 15.09375 -20.796875 
L 7.90625 -20.796875 
L 7.90625 -13.28125 
L 13.1875 -13.28125 
Q 16.890625 -13.28125 18.9375 -11.515625 
Q 21 -9.765625 23.484375 -3.21875 
L 25.09375 0.875 
L 2.984375 54.6875 
L 12.5 54.6875 
L 29.59375 11.921875 
L 46.6875 54.6875 
L 56.203125 54.6875 
z
" id="DejaVuSans-121"/>
     </defs>
     <g transform="translate(320.025937 261.216113)scale(0.18 -0.18)">
      <use xlink:href="#DejaVuSans-69"/>
      <use x="63.183594" xlink:href="#DejaVuSans-102"/>
      <use x="98.388672" xlink:href="#DejaVuSans-102"/>
      <use x="133.59375" xlink:href="#DejaVuSans-105"/>
      <use x="161.376953" xlink:href="#DejaVuSans-99"/>
      <use x="216.357422" xlink:href="#DejaVuSans-105"/>
      <use x="244.140625" xlink:href="#DejaVuSans-101"/>
      <use x="305.664062" xlink:href="#DejaVuSans-110"/>
      <use x="369.042969" xlink:href="#DejaVuSans-99"/>
      <use x="424.023438" xlink:href="#DejaVuSans-121"/>
     </g>
    </g>
    <g id="line2d_23">
     <path d="M 269.625938 281.336737 
L 305.625938 281.336737 
" style="fill:none;stroke:#ff0000;stroke-linecap:square;stroke-width:1.5;"/>
    </g>
    <g id="line2d_24"/>
    <g id="text_7">
     <!-- Purity -->
     <defs>
      <path d="M 19.671875 64.796875 
L 19.671875 37.40625 
L 32.078125 37.40625 
Q 38.96875 37.40625 42.71875 40.96875 
Q 46.484375 44.53125 46.484375 51.125 
Q 46.484375 57.671875 42.71875 61.234375 
Q 38.96875 64.796875 32.078125 64.796875 
z
M 9.8125 72.90625 
L 32.078125 72.90625 
Q 44.34375 72.90625 50.609375 67.359375 
Q 56.890625 61.8125 56.890625 51.125 
Q 56.890625 40.328125 50.609375 34.8125 
Q 44.34375 29.296875 32.078125 29.296875 
L 19.671875 29.296875 
L 19.671875 0 
L 9.8125 0 
z
" id="DejaVuSans-80"/>
      <path d="M 8.5 21.578125 
L 8.5 54.6875 
L 17.484375 54.6875 
L 17.484375 21.921875 
Q 17.484375 14.15625 20.5 10.265625 
Q 23.53125 6.390625 29.59375 6.390625 
Q 36.859375 6.390625 41.078125 11.03125 
Q 45.3125 15.671875 45.3125 23.6875 
L 45.3125 54.6875 
L 54.296875 54.6875 
L 54.296875 0 
L 45.3125 0 
L 45.3125 8.40625 
Q 42.046875 3.421875 37.71875 1 
Q 33.40625 -1.421875 27.6875 -1.421875 
Q 18.265625 -1.421875 13.375 4.4375 
Q 8.5 10.296875 8.5 21.578125 
z
M 31.109375 56 
z
" id="DejaVuSans-117"/>
     </defs>
     <g transform="translate(320.025937 287.636737)scale(0.18 -0.18)">
      <use xlink:href="#DejaVuSans-80"/>
      <use x="60.287109" xlink:href="#DejaVuSans-117"/>
      <use x="123.666016" xlink:href="#DejaVuSans-114"/>
      <use x="164.779297" xlink:href="#DejaVuSans-105"/>
      <use x="192.5625" xlink:href="#DejaVuSans-116"/>
      <use x="231.771484" xlink:href="#DejaVuSans-121"/>
     </g>
    </g>
    <g id="line2d_25">
     <path d="M 269.625938 307.757362 
L 305.625938 307.757362 
" style="fill:none;stroke:#0000ff;stroke-linecap:square;stroke-width:1.5;"/>
    </g>
    <g id="line2d_26"/>
    <g id="text_8">
     <!-- Purity*Efficiency -->
     <defs>
      <path d="M 47.015625 60.890625 
L 29.5 51.421875 
L 47.015625 41.890625 
L 44.1875 37.109375 
L 27.78125 47.015625 
L 27.78125 28.609375 
L 22.21875 28.609375 
L 22.21875 47.015625 
L 5.8125 37.109375 
L 2.984375 41.890625 
L 20.515625 51.421875 
L 2.984375 60.890625 
L 5.8125 65.71875 
L 22.21875 55.8125 
L 22.21875 74.21875 
L 27.78125 74.21875 
L 27.78125 55.8125 
L 44.1875 65.71875 
z
" id="DejaVuSans-42"/>
     </defs>
     <g transform="translate(320.025937 314.057363)scale(0.18 -0.18)">
      <use xlink:href="#DejaVuSans-80"/>
      <use x="60.287109" xlink:href="#DejaVuSans-117"/>
      <use x="123.666016" xlink:href="#DejaVuSans-114"/>
      <use x="164.779297" xlink:href="#DejaVuSans-105"/>
      <use x="192.5625" xlink:href="#DejaVuSans-116"/>
      <use x="231.771484" xlink:href="#DejaVuSans-121"/>
      <use x="290.951172" xlink:href="#DejaVuSans-42"/>
      <use x="340.951172" xlink:href="#DejaVuSans-69"/>
      <use x="404.134766" xlink:href="#DejaVuSans-102"/>
      <use x="439.339844" xlink:href="#DejaVuSans-102"/>
      <use x="474.544922" xlink:href="#DejaVuSans-105"/>
      <use x="502.328125" xlink:href="#DejaVuSans-99"/>
      <use x="557.308594" xlink:href="#DejaVuSans-105"/>
      <use x="585.091797" xlink:href="#DejaVuSans-101"/>
      <use x="646.615234" xlink:href="#DejaVuSans-110"/>
      <use x="709.994141" xlink:href="#DejaVuSans-99"/>
      <use x="764.974609" xlink:href="#DejaVuSans-121"/>
     </g>
    </g>
   </g>
  </g>
  <g id="axes_2">
   <g id="patch_8">
    <path d="M 90 632.4696 
L 648 632.4696 
L 648 383.7456 
L 90 383.7456 
z
" style="fill:#ffffff;"/>
   </g>
   <g id="patch_9">
    <path clip-path="url(#p20919f40db)" d="M 90 106132.673845 
L 90 106132.673845 
L 104.307692 106132.673845 
L 104.307692 106132.673845 
L 118.615385 106132.673845 
L 118.615385 432.791117 
L 132.923077 432.791117 
L 132.923077 406.614353 
L 147.230769 406.614353 
L 147.230769 398.118609 
L 161.538462 398.118609 
L 161.538462 400.65492 
L 175.846154 400.65492 
L 175.846154 395.051236 
L 190.153846 395.051236 
L 190.153846 395.051236 
L 204.461538 395.051236 
L 204.461538 396.389231 
L 218.769231 396.389231 
L 218.769231 401.406134 
L 233.076923 401.406134 
L 233.076923 403.736623 
L 247.384615 403.736623 
L 247.384615 404.947876 
L 261.692308 404.947876 
L 261.692308 407.040617 
L 276 407.040617 
L 276 400.65492 
L 290.307692 400.65492 
L 290.307692 409.684989 
L 304.615385 409.684989 
L 304.615385 407.470884 
L 318.923077 407.470884 
L 318.923077 424.561955 
L 333.230769 424.561955 
L 333.230769 415.998661 
L 347.538462 415.998661 
L 347.538462 422.117479 
L 361.846154 422.117479 
L 361.846154 422.117479 
L 376.153846 422.117479 
L 376.153846 436.710005 
L 390.461538 436.710005 
L 390.461538 429.880738 
L 404.769231 429.880738 
L 404.769231 442.828823 
L 419.076923 442.828823 
L 419.076923 444.738394 
L 433.384615 444.738394 
L 433.384615 435.102013 
L 447.692308 435.102013 
L 447.692308 453.288335 
L 462 453.288335 
L 462 452.128195 
L 476.307692 452.128195 
L 476.307692 459.575311 
L 490.615385 459.575311 
L 490.615385 454.478611 
L 504.923077 454.478611 
L 504.923077 455.700632 
L 519.230769 455.700632 
L 519.230769 468.472135 
L 533.538462 468.472135 
L 533.538462 479.52292 
L 547.846154 479.52292 
L 547.846154 473.665203 
L 562.153846 473.665203 
L 562.153846 511.285049 
L 576.461538 511.285049 
L 576.461538 488.718266 
L 590.769231 488.718266 
L 590.769231 503.630119 
L 605.076923 503.630119 
L 605.076923 500.234264 
L 619.384615 500.234264 
L 619.384615 507.297921 
L 633.692308 507.297921 
L 633.692308 547.414583 
L 648 547.414583 
L 648 106132.673845 
z
" style="fill:#1f77b4;opacity:0.2;"/>
   </g>
   <g id="matplotlib.axis_3">
    <g id="xtick_9">
     <g id="line2d_27">
      <g>
       <use style="stroke:#000000;stroke-width:0.8;" x="90" xlink:href="#m077618c1f8" y="632.4696"/>
      </g>
     </g>
     <g id="text_9">
      <!-- 0 -->
      <g transform="translate(81.7542 659.16475)scale(0.2592 -0.2592)">
       <use xlink:href="#DejaVuSans-48"/>
      </g>
     </g>
    </g>
    <g id="xtick_10">
     <g id="line2d_28">
      <g>
       <use style="stroke:#000000;stroke-width:0.8;" x="169.714286" xlink:href="#m077618c1f8" y="632.4696"/>
      </g>
     </g>
     <g id="text_10">
      <!-- 50 -->
      <g transform="translate(153.222686 659.16475)scale(0.2592 -0.2592)">
       <use xlink:href="#DejaVuSans-53"/>
       <use x="63.623047" xlink:href="#DejaVuSans-48"/>
      </g>
     </g>
    </g>
    <g id="xtick_11">
     <g id="line2d_29">
      <g>
       <use style="stroke:#000000;stroke-width:0.8;" x="249.428571" xlink:href="#m077618c1f8" y="632.4696"/>
      </g>
     </g>
     <g id="text_11">
      <!-- 100 -->
      <g transform="translate(224.691171 659.16475)scale(0.2592 -0.2592)">
       <use xlink:href="#DejaVuSans-49"/>
       <use x="63.623047" xlink:href="#DejaVuSans-48"/>
       <use x="127.246094" xlink:href="#DejaVuSans-48"/>
      </g>
     </g>
    </g>
    <g id="xtick_12">
     <g id="line2d_30">
      <g>
       <use style="stroke:#000000;stroke-width:0.8;" x="329.142857" xlink:href="#m077618c1f8" y="632.4696"/>
      </g>
     </g>
     <g id="text_12">
      <!-- 150 -->
      <g transform="translate(304.405457 659.16475)scale(0.2592 -0.2592)">
       <use xlink:href="#DejaVuSans-49"/>
       <use x="63.623047" xlink:href="#DejaVuSans-53"/>
       <use x="127.246094" xlink:href="#DejaVuSans-48"/>
      </g>
     </g>
    </g>
    <g id="xtick_13">
     <g id="line2d_31">
      <g>
       <use style="stroke:#000000;stroke-width:0.8;" x="408.857143" xlink:href="#m077618c1f8" y="632.4696"/>
      </g>
     </g>
     <g id="text_13">
      <!-- 200 -->
      <defs>
       <path d="M 19.1875 8.296875 
L 53.609375 8.296875 
L 53.609375 0 
L 7.328125 0 
L 7.328125 8.296875 
Q 12.9375 14.109375 22.625 23.890625 
Q 32.328125 33.6875 34.8125 36.53125 
Q 39.546875 41.84375 41.421875 45.53125 
Q 43.3125 49.21875 43.3125 52.78125 
Q 43.3125 58.59375 39.234375 62.25 
Q 35.15625 65.921875 28.609375 65.921875 
Q 23.96875 65.921875 18.8125 64.3125 
Q 13.671875 62.703125 7.8125 59.421875 
L 7.8125 69.390625 
Q 13.765625 71.78125 18.9375 73 
Q 24.125 74.21875 28.421875 74.21875 
Q 39.75 74.21875 46.484375 68.546875 
Q 53.21875 62.890625 53.21875 53.421875 
Q 53.21875 48.921875 51.53125 44.890625 
Q 49.859375 40.875 45.40625 35.40625 
Q 44.1875 33.984375 37.640625 27.21875 
Q 31.109375 20.453125 19.1875 8.296875 
z
" id="DejaVuSans-50"/>
      </defs>
      <g transform="translate(384.119743 659.16475)scale(0.2592 -0.2592)">
       <use xlink:href="#DejaVuSans-50"/>
       <use x="63.623047" xlink:href="#DejaVuSans-48"/>
       <use x="127.246094" xlink:href="#DejaVuSans-48"/>
      </g>
     </g>
    </g>
    <g id="xtick_14">
     <g id="line2d_32">
      <g>
       <use style="stroke:#000000;stroke-width:0.8;" x="488.571429" xlink:href="#m077618c1f8" y="632.4696"/>
      </g>
     </g>
     <g id="text_14">
      <!-- 250 -->
      <g transform="translate(463.834029 659.16475)scale(0.2592 -0.2592)">
       <use xlink:href="#DejaVuSans-50"/>
       <use x="63.623047" xlink:href="#DejaVuSans-53"/>
       <use x="127.246094" xlink:href="#DejaVuSans-48"/>
      </g>
     </g>
    </g>
    <g id="xtick_15">
     <g id="line2d_33">
      <g>
       <use style="stroke:#000000;stroke-width:0.8;" x="568.285714" xlink:href="#m077618c1f8" y="632.4696"/>
      </g>
     </g>
     <g id="text_15">
      <!-- 300 -->
      <defs>
       <path d="M 40.578125 39.3125 
Q 47.65625 37.796875 51.625 33 
Q 55.609375 28.21875 55.609375 21.1875 
Q 55.609375 10.40625 48.1875 4.484375 
Q 40.765625 -1.421875 27.09375 -1.421875 
Q 22.515625 -1.421875 17.65625 -0.515625 
Q 12.796875 0.390625 7.625 2.203125 
L 7.625 11.71875 
Q 11.71875 9.328125 16.59375 8.109375 
Q 21.484375 6.890625 26.8125 6.890625 
Q 36.078125 6.890625 40.9375 10.546875 
Q 45.796875 14.203125 45.796875 21.1875 
Q 45.796875 27.640625 41.28125 31.265625 
Q 36.765625 34.90625 28.71875 34.90625 
L 20.21875 34.90625 
L 20.21875 43.015625 
L 29.109375 43.015625 
Q 36.375 43.015625 40.234375 45.921875 
Q 44.09375 48.828125 44.09375 54.296875 
Q 44.09375 59.90625 40.109375 62.90625 
Q 36.140625 65.921875 28.71875 65.921875 
Q 24.65625 65.921875 20.015625 65.03125 
Q 15.375 64.15625 9.8125 62.3125 
L 9.8125 71.09375 
Q 15.4375 72.65625 20.34375 73.4375 
Q 25.25 74.21875 29.59375 74.21875 
Q 40.828125 74.21875 47.359375 69.109375 
Q 53.90625 64.015625 53.90625 55.328125 
Q 53.90625 49.265625 50.4375 45.09375 
Q 46.96875 40.921875 40.578125 39.3125 
z
" id="DejaVuSans-51"/>
      </defs>
      <g transform="translate(543.548314 659.16475)scale(0.2592 -0.2592)">
       <use xlink:href="#DejaVuSans-51"/>
       <use x="63.623047" xlink:href="#DejaVuSans-48"/>
       <use x="127.246094" xlink:href="#DejaVuSans-48"/>
      </g>
     </g>
    </g>
    <g id="xtick_16">
     <g id="line2d_34">
      <g>
       <use style="stroke:#000000;stroke-width:0.8;" x="648" xlink:href="#m077618c1f8" y="632.4696"/>
      </g>
     </g>
     <g id="text_16">
      <!-- 350 -->
      <g transform="translate(623.2626 659.16475)scale(0.2592 -0.2592)">
       <use xlink:href="#DejaVuSans-51"/>
       <use x="63.623047" xlink:href="#DejaVuSans-53"/>
       <use x="127.246094" xlink:href="#DejaVuSans-48"/>
      </g>
     </g>
    </g>
    <g id="text_17">
     <!-- nHitsW -->
     <g transform="translate(322.79355 688.25045)scale(0.2592 -0.2592)">
      <use xlink:href="#DejaVuSans-110"/>
      <use x="63.378906" xlink:href="#DejaVuSans-72"/>
      <use x="138.574219" xlink:href="#DejaVuSans-105"/>
      <use x="166.357422" xlink:href="#DejaVuSans-116"/>
      <use x="205.566406" xlink:href="#DejaVuSans-115"/>
      <use x="257.666016" xlink:href="#DejaVuSans-87"/>
     </g>
    </g>
   </g>
   <g id="matplotlib.axis_4">
    <g id="ytick_4">
     <g id="line2d_35">
      <g>
       <use style="stroke:#000000;stroke-width:0.8;" x="90" xlink:href="#m0504a24df2" y="621.163964"/>
      </g>
     </g>
     <g id="text_18">
      <!-- $\mathdefault{10^{0}}$ -->
      <g transform="translate(37.3808 631.011539)scale(0.2592 -0.2592)">
       <use transform="translate(0 0.765625)" xlink:href="#DejaVuSans-49"/>
       <use transform="translate(63.623047 0.765625)" xlink:href="#DejaVuSans-48"/>
       <use transform="translate(128.203125 39.046875)scale(0.7)" xlink:href="#DejaVuSans-48"/>
      </g>
     </g>
    </g>
    <g id="ytick_5">
     <g id="line2d_36">
      <g>
       <use style="stroke:#000000;stroke-width:0.8;" x="90" xlink:href="#m0504a24df2" y="515.652454"/>
      </g>
     </g>
     <g id="text_19">
      <!-- $\mathdefault{10^{1}}$ -->
      <g transform="translate(37.3808 525.500029)scale(0.2592 -0.2592)">
       <use transform="translate(0 0.684375)" xlink:href="#DejaVuSans-49"/>
       <use transform="translate(63.623047 0.684375)" xlink:href="#DejaVuSans-48"/>
       <use transform="translate(128.203125 38.965625)scale(0.7)" xlink:href="#DejaVuSans-49"/>
      </g>
     </g>
    </g>
    <g id="ytick_6">
     <g id="line2d_37">
      <g>
       <use style="stroke:#000000;stroke-width:0.8;" x="90" xlink:href="#m0504a24df2" y="410.140944"/>
      </g>
     </g>
     <g id="text_20">
      <!-- $\mathdefault{10^{2}}$ -->
      <g transform="translate(37.3808 419.988519)scale(0.2592 -0.2592)">
       <use transform="translate(0 0.765625)" xlink:href="#DejaVuSans-49"/>
       <use transform="translate(63.623047 0.765625)" xlink:href="#DejaVuSans-48"/>
       <use transform="translate(128.203125 39.046875)scale(0.7)" xlink:href="#DejaVuSans-50"/>
      </g>
     </g>
    </g>
    <g id="ytick_7">
     <g id="line2d_38">
      <defs>
       <path d="M 0 0 
L -2 0 
" id="md54d78e8b1" style="stroke:#000000;stroke-width:0.6;"/>
      </defs>
      <g>
       <use style="stroke:#000000;stroke-width:0.6;" x="90" xlink:href="#md54d78e8b1" y="631.389085"/>
      </g>
     </g>
    </g>
    <g id="ytick_8">
     <g id="line2d_39">
      <g>
       <use style="stroke:#000000;stroke-width:0.6;" x="90" xlink:href="#md54d78e8b1" y="625.991906"/>
      </g>
     </g>
    </g>
    <g id="ytick_9">
     <g id="line2d_40">
      <g>
       <use style="stroke:#000000;stroke-width:0.6;" x="90" xlink:href="#md54d78e8b1" y="589.401834"/>
      </g>
     </g>
    </g>
    <g id="ytick_10">
     <g id="line2d_41">
      <g>
       <use style="stroke:#000000;stroke-width:0.6;" x="90" xlink:href="#md54d78e8b1" y="570.82218"/>
      </g>
     </g>
    </g>
    <g id="ytick_11">
     <g id="line2d_42">
      <g>
       <use style="stroke:#000000;stroke-width:0.6;" x="90" xlink:href="#md54d78e8b1" y="557.639705"/>
      </g>
     </g>
    </g>
    <g id="ytick_12">
     <g id="line2d_43">
      <g>
       <use style="stroke:#000000;stroke-width:0.6;" x="90" xlink:href="#md54d78e8b1" y="547.414583"/>
      </g>
     </g>
    </g>
    <g id="ytick_13">
     <g id="line2d_44">
      <g>
       <use style="stroke:#000000;stroke-width:0.6;" x="90" xlink:href="#md54d78e8b1" y="539.06005"/>
      </g>
     </g>
    </g>
    <g id="ytick_14">
     <g id="line2d_45">
      <g>
       <use style="stroke:#000000;stroke-width:0.6;" x="90" xlink:href="#md54d78e8b1" y="531.996393"/>
      </g>
     </g>
    </g>
    <g id="ytick_15">
     <g id="line2d_46">
      <g>
       <use style="stroke:#000000;stroke-width:0.6;" x="90" xlink:href="#md54d78e8b1" y="525.877576"/>
      </g>
     </g>
    </g>
    <g id="ytick_16">
     <g id="line2d_47">
      <g>
       <use style="stroke:#000000;stroke-width:0.6;" x="90" xlink:href="#md54d78e8b1" y="520.480396"/>
      </g>
     </g>
    </g>
    <g id="ytick_17">
     <g id="line2d_48">
      <g>
       <use style="stroke:#000000;stroke-width:0.6;" x="90" xlink:href="#md54d78e8b1" y="483.890324"/>
      </g>
     </g>
    </g>
    <g id="ytick_18">
     <g id="line2d_49">
      <g>
       <use style="stroke:#000000;stroke-width:0.6;" x="90" xlink:href="#md54d78e8b1" y="465.31067"/>
      </g>
     </g>
    </g>
    <g id="ytick_19">
     <g id="line2d_50">
      <g>
       <use style="stroke:#000000;stroke-width:0.6;" x="90" xlink:href="#md54d78e8b1" y="452.128195"/>
      </g>
     </g>
    </g>
    <g id="ytick_20">
     <g id="line2d_51">
      <g>
       <use style="stroke:#000000;stroke-width:0.6;" x="90" xlink:href="#md54d78e8b1" y="441.903073"/>
      </g>
     </g>
    </g>
    <g id="ytick_21">
     <g id="line2d_52">
      <g>
       <use style="stroke:#000000;stroke-width:0.6;" x="90" xlink:href="#md54d78e8b1" y="433.54854"/>
      </g>
     </g>
    </g>
    <g id="ytick_22">
     <g id="line2d_53">
      <g>
       <use style="stroke:#000000;stroke-width:0.6;" x="90" xlink:href="#md54d78e8b1" y="426.484884"/>
      </g>
     </g>
    </g>
    <g id="ytick_23">
     <g id="line2d_54">
      <g>
       <use style="stroke:#000000;stroke-width:0.6;" x="90" xlink:href="#md54d78e8b1" y="420.366066"/>
      </g>
     </g>
    </g>
    <g id="ytick_24">
     <g id="line2d_55">
      <g>
       <use style="stroke:#000000;stroke-width:0.6;" x="90" xlink:href="#md54d78e8b1" y="414.968886"/>
      </g>
     </g>
    </g>
    <g id="text_21">
     <!-- Count -->
     <defs>
      <path d="M 64.40625 67.28125 
L 64.40625 56.890625 
Q 59.421875 61.53125 53.78125 63.8125 
Q 48.140625 66.109375 41.796875 66.109375 
Q 29.296875 66.109375 22.65625 58.46875 
Q 16.015625 50.828125 16.015625 36.375 
Q 16.015625 21.96875 22.65625 14.328125 
Q 29.296875 6.6875 41.796875 6.6875 
Q 48.140625 6.6875 53.78125 8.984375 
Q 59.421875 11.28125 64.40625 15.921875 
L 64.40625 5.609375 
Q 59.234375 2.09375 53.4375 0.328125 
Q 47.65625 -1.421875 41.21875 -1.421875 
Q 24.65625 -1.421875 15.125 8.703125 
Q 5.609375 18.84375 5.609375 36.375 
Q 5.609375 53.953125 15.125 64.078125 
Q 24.65625 74.21875 41.21875 74.21875 
Q 47.75 74.21875 53.53125 72.484375 
Q 59.328125 70.75 64.40625 67.28125 
z
" id="DejaVuSans-67"/>
     </defs>
     <g transform="translate(27.99025 546.59475)rotate(-90)scale(0.2592 -0.2592)">
      <use xlink:href="#DejaVuSans-67"/>
      <use x="69.824219" xlink:href="#DejaVuSans-111"/>
      <use x="131.005859" xlink:href="#DejaVuSans-117"/>
      <use x="194.384766" xlink:href="#DejaVuSans-110"/>
      <use x="257.763672" xlink:href="#DejaVuSans-116"/>
     </g>
    </g>
   </g>
   <g id="line2d_56">
    <path clip-path="url(#p20919f40db)" d="M 118.615385 711.64 
L 118.615385 432.791117 
L 132.923077 432.791117 
L 132.923077 406.614353 
L 147.230769 406.614353 
L 147.230769 398.118609 
L 161.538462 398.118609 
L 161.538462 400.65492 
L 175.846154 400.65492 
L 175.846154 395.051236 
L 190.153846 395.051236 
L 190.153846 395.051236 
L 204.461538 395.051236 
L 204.461538 396.389231 
L 218.769231 396.389231 
L 218.769231 401.406134 
L 233.076923 401.406134 
L 233.076923 403.736623 
L 247.384615 403.736623 
L 247.384615 404.947876 
L 261.692308 404.947876 
L 261.692308 407.040617 
L 276 407.040617 
L 276 400.65492 
L 290.307692 400.65492 
L 290.307692 409.684989 
L 304.615385 409.684989 
L 304.615385 407.470884 
L 318.923077 407.470884 
L 318.923077 424.561955 
L 333.230769 424.561955 
L 333.230769 415.998661 
L 347.538462 415.998661 
L 347.538462 422.117479 
L 361.846154 422.117479 
L 361.846154 422.117479 
L 376.153846 422.117479 
L 376.153846 436.710005 
L 390.461538 436.710005 
L 390.461538 429.880738 
L 404.769231 429.880738 
L 404.769231 442.828823 
L 419.076923 442.828823 
L 419.076923 444.738394 
L 433.384615 444.738394 
L 433.384615 435.102013 
L 447.692308 435.102013 
L 447.692308 453.288335 
L 462 453.288335 
L 462 452.128195 
L 476.307692 452.128195 
L 476.307692 459.575311 
L 490.615385 459.575311 
L 490.615385 454.478611 
L 504.923077 454.478611 
L 504.923077 455.700632 
L 519.230769 455.700632 
L 519.230769 468.472135 
L 533.538462 468.472135 
L 533.538462 479.52292 
L 547.846154 479.52292 
L 547.846154 473.665203 
L 562.153846 473.665203 
L 562.153846 511.285049 
L 576.461538 511.285049 
L 576.461538 488.718266 
L 590.769231 488.718266 
L 590.769231 503.630119 
L 605.076923 503.630119 
L 605.076923 500.234264 
L 619.384615 500.234264 
L 619.384615 507.297921 
L 633.692308 507.297921 
L 633.692308 547.414583 
L 648 547.414583 
" style="fill:none;stroke:#1f77b4;stroke-linecap:square;stroke-width:1.5;"/>
   </g>
   <g id="line2d_57">
    <path clip-path="url(#p20919f40db)" d="M 118.615385 711.64 
L 118.615385 468.472135 
L 132.923077 468.472135 
L 132.923077 438.376482 
L 147.230769 438.376482 
L 147.230769 427.14422 
L 161.538462 427.14422 
L 161.538462 425.8349 
L 175.846154 425.8349 
L 175.846154 427.813181 
L 190.153846 427.813181 
L 190.153846 433.54854 
L 204.461538 433.54854 
L 204.461538 426.484884 
L 218.769231 426.484884 
L 218.769231 425.8349 
L 233.076923 425.8349 
L 233.076923 433.54854 
L 247.384615 433.54854 
L 247.384615 435.102013 
L 261.692308 435.102013 
L 261.692308 440.10586 
L 276 440.10586 
L 276 430.591187 
L 290.307692 430.591187 
L 290.307692 438.376482 
L 304.615385 438.376482 
L 304.615385 433.54854 
L 318.923077 433.54854 
L 318.923077 453.288335 
L 333.230769 453.288335 
L 333.230769 449.89248 
L 347.538462 449.89248 
L 347.538462 454.478611 
L 361.846154 454.478611 
L 361.846154 450.996704 
L 376.153846 450.996704 
L 376.153846 481.654609 
L 390.461538 481.654609 
L 390.461538 465.31067 
L 404.769231 465.31067 
L 404.769231 483.890324 
L 419.076923 483.890324 
L 419.076923 477.486004 
L 433.384615 477.486004 
L 433.384615 479.52292 
L 447.692308 479.52292 
L 447.692308 500.234264 
L 462 500.234264 
L 462 500.234264 
L 476.307692 500.234264 
L 476.307692 503.630119 
L 490.615385 503.630119 
L 490.615385 503.630119 
L 504.923077 503.630119 
L 504.923077 507.297921 
L 519.230769 507.297921 
L 519.230769 515.652454 
L 533.538462 515.652454 
L 533.538462 531.996393 
L 547.846154 531.996393 
L 547.846154 520.480396 
L 562.153846 520.480396 
L 562.153846 570.82218 
L 576.461538 570.82218 
L 576.461538 525.877576 
L 590.769231 525.877576 
L 590.769231 547.414583 
L 605.076923 547.414583 
L 605.076923 557.639705 
L 619.384615 557.639705 
L 619.384615 570.82218 
L 633.692308 570.82218 
L 633.692308 711.64 
" style="fill:none;stroke:#ff7f0e;stroke-linecap:square;stroke-width:1.5;"/>
   </g>
   <g id="line2d_58">
    <path clip-path="url(#p20919f40db)" d="M 118.615385 711.64 
L 118.615385 520.480396 
L 132.923077 520.480396 
L 132.923077 511.285049 
L 147.230769 511.285049 
L 147.230769 491.33744 
L 161.538462 491.33744 
L 161.538462 494.115446 
L 175.846154 494.115446 
L 175.846154 497.072799 
L 190.153846 497.072799 
L 190.153846 486.24074 
L 204.461538 486.24074 
L 204.461538 497.072799 
L 218.769231 497.072799 
L 218.769231 520.480396 
L 233.076923 520.480396 
L 233.076923 531.996393 
L 247.384615 531.996393 
L 247.384615 483.890324 
L 261.692308 483.890324 
L 261.692308 511.285049 
L 276 511.285049 
L 276 491.33744 
L 290.307692 491.33744 
L 290.307692 503.630119 
L 304.615385 503.630119 
L 304.615385 515.652454 
L 318.923077 515.652454 
L 318.923077 520.480396 
L 333.230769 520.480396 
L 333.230769 539.06005 
L 347.538462 539.06005 
L 347.538462 515.652454 
L 361.846154 515.652454 
L 361.846154 525.877576 
L 376.153846 525.877576 
L 376.153846 525.877576 
L 390.461538 525.877576 
L 390.461538 570.82218 
L 404.769231 570.82218 
L 404.769231 531.996393 
L 419.076923 531.996393 
L 419.076923 589.401834 
L 433.384615 589.401834 
L 433.384615 511.285049 
L 447.692308 511.285049 
L 447.692308 621.163964 
L 462 621.163964 
L 462 539.06005 
L 476.307692 539.06005 
L 476.307692 557.639705 
L 490.615385 557.639705 
L 490.615385 589.401834 
L 504.923077 589.401834 
L 504.923077 621.163964 
L 519.230769 621.163964 
L 519.230769 621.163964 
L 533.538462 621.163964 
L 533.538462 621.163964 
L 547.846154 621.163964 
L 547.846154 711.64 
M 590.769231 711.64 
L 590.769231 570.82218 
L 605.076923 570.82218 
L 605.076923 589.401834 
L 619.384615 589.401834 
L 619.384615 589.401834 
L 633.692308 589.401834 
L 633.692308 711.64 
" style="fill:none;stroke:#2ca02c;stroke-linecap:square;stroke-width:1.5;"/>
   </g>
   <g id="patch_10">
    <path d="M 90 632.4696 
L 90 383.7456 
" style="fill:none;stroke:#000000;stroke-linecap:square;stroke-linejoin:miter;stroke-width:0.8;"/>
   </g>
   <g id="patch_11">
    <path d="M 648 632.4696 
L 648 383.7456 
" style="fill:none;stroke:#000000;stroke-linecap:square;stroke-linejoin:miter;stroke-width:0.8;"/>
   </g>
   <g id="patch_12">
    <path d="M 90 632.4696 
L 648 632.4696 
" style="fill:none;stroke:#000000;stroke-linecap:square;stroke-linejoin:miter;stroke-width:0.8;"/>
   </g>
   <g id="patch_13">
    <path d="M 90 383.7456 
L 648 383.7456 
" style="fill:none;stroke:#000000;stroke-linecap:square;stroke-linejoin:miter;stroke-width:0.8;"/>
   </g>
   <g id="legend_2">
    <g id="patch_14">
     <path d="M 102.6 623.4696 
L 325.999687 623.4696 
Q 329.599688 623.4696 329.599688 619.8696 
L 329.599688 542.407725 
Q 329.599688 538.807725 325.999687 538.807725 
L 102.6 538.807725 
Q 99 538.807725 99 542.407725 
L 99 619.8696 
Q 99 623.4696 102.6 623.4696 
z
" style="fill:#ffffff;opacity:0.5;stroke:#cccccc;stroke-linejoin:miter;"/>
    </g>
    <g id="line2d_59">
     <path d="M 106.2 553.384913 
L 142.2 553.384913 
" style="fill:none;stroke:#1f77b4;stroke-linecap:square;stroke-width:1.5;"/>
    </g>
    <g id="line2d_60"/>
    <g id="text_22">
     <!--  Photon -->
     <defs>
      <path id="DejaVuSans-32"/>
      <path d="M 54.890625 33.015625 
L 54.890625 0 
L 45.90625 0 
L 45.90625 32.71875 
Q 45.90625 40.484375 42.875 44.328125 
Q 39.84375 48.1875 33.796875 48.1875 
Q 26.515625 48.1875 22.3125 43.546875 
Q 18.109375 38.921875 18.109375 30.90625 
L 18.109375 0 
L 9.078125 0 
L 9.078125 75.984375 
L 18.109375 75.984375 
L 18.109375 46.1875 
Q 21.34375 51.125 25.703125 53.5625 
Q 30.078125 56 35.796875 56 
Q 45.21875 56 50.046875 50.171875 
Q 54.890625 44.34375 54.890625 33.015625 
z
" id="DejaVuSans-104"/>
     </defs>
     <g transform="translate(156.6 559.684912)scale(0.18 -0.18)">
      <use xlink:href="#DejaVuSans-32"/>
      <use x="31.787109" xlink:href="#DejaVuSans-80"/>
      <use x="92.089844" xlink:href="#DejaVuSans-104"/>
      <use x="155.46875" xlink:href="#DejaVuSans-111"/>
      <use x="216.650391" xlink:href="#DejaVuSans-116"/>
      <use x="255.859375" xlink:href="#DejaVuSans-111"/>
      <use x="317.041016" xlink:href="#DejaVuSans-110"/>
     </g>
    </g>
    <g id="line2d_61">
     <path d="M 106.2 579.805538 
L 142.2 579.805538 
" style="fill:none;stroke:#ff7f0e;stroke-linecap:square;stroke-width:1.5;"/>
    </g>
    <g id="line2d_62"/>
    <g id="text_23">
     <!-- correct  Photon -->
     <g transform="translate(156.6 586.105537)scale(0.18 -0.18)">
      <use xlink:href="#DejaVuSans-99"/>
      <use x="54.980469" xlink:href="#DejaVuSans-111"/>
      <use x="116.162109" xlink:href="#DejaVuSans-114"/>
      <use x="157.259766" xlink:href="#DejaVuSans-114"/>
      <use x="198.341797" xlink:href="#DejaVuSans-101"/>
      <use x="259.865234" xlink:href="#DejaVuSans-99"/>
      <use x="314.845703" xlink:href="#DejaVuSans-116"/>
      <use x="354.054688" xlink:href="#DejaVuSans-32"/>
      <use x="385.841797" xlink:href="#DejaVuSans-32"/>
      <use x="417.628906" xlink:href="#DejaVuSans-80"/>
      <use x="477.931641" xlink:href="#DejaVuSans-104"/>
      <use x="541.310547" xlink:href="#DejaVuSans-111"/>
      <use x="602.492188" xlink:href="#DejaVuSans-116"/>
      <use x="641.701172" xlink:href="#DejaVuSans-111"/>
      <use x="702.882812" xlink:href="#DejaVuSans-110"/>
     </g>
    </g>
    <g id="line2d_63">
     <path d="M 106.2 606.226162 
L 142.2 606.226162 
" style="fill:none;stroke:#2ca02c;stroke-linecap:square;stroke-width:1.5;"/>
    </g>
    <g id="line2d_64"/>
    <g id="text_24">
     <!-- incorrect  Electron -->
     <defs>
      <path d="M 9.421875 75.984375 
L 18.40625 75.984375 
L 18.40625 0 
L 9.421875 0 
z
" id="DejaVuSans-108"/>
     </defs>
     <g transform="translate(156.6 612.526162)scale(0.18 -0.18)">
      <use xlink:href="#DejaVuSans-105"/>
      <use x="27.783203" xlink:href="#DejaVuSans-110"/>
      <use x="91.162109" xlink:href="#DejaVuSans-99"/>
      <use x="146.142578" xlink:href="#DejaVuSans-111"/>
      <use x="207.324219" xlink:href="#DejaVuSans-114"/>
      <use x="248.421875" xlink:href="#DejaVuSans-114"/>
      <use x="289.503906" xlink:href="#DejaVuSans-101"/>
      <use x="351.027344" xlink:href="#DejaVuSans-99"/>
      <use x="406.007812" xlink:href="#DejaVuSans-116"/>
      <use x="445.216797" xlink:href="#DejaVuSans-32"/>
      <use x="477.003906" xlink:href="#DejaVuSans-32"/>
      <use x="508.791016" xlink:href="#DejaVuSans-69"/>
      <use x="571.974609" xlink:href="#DejaVuSans-108"/>
      <use x="599.757812" xlink:href="#DejaVuSans-101"/>
      <use x="661.28125" xlink:href="#DejaVuSans-99"/>
      <use x="716.261719" xlink:href="#DejaVuSans-116"/>
      <use x="755.470703" xlink:href="#DejaVuSans-114"/>
      <use x="796.552734" xlink:href="#DejaVuSans-111"/>
      <use x="857.734375" xlink:href="#DejaVuSans-110"/>
     </g>
    </g>
   </g>
  </g>
 </g>
 <defs>
  <clipPath id="p3ff480711a">
   <rect height="248.724" width="558" x="90" y="85.2768"/>
  </clipPath>
  <clipPath id="p20919f40db">
   <rect height="248.724" width="558" x="90" y="383.7456"/>
  </clipPath>
 </defs>
</svg>
