<?xml version="1.0" encoding="utf-8" standalone="no"?>
<!DOCTYPE svg PUBLIC "-//W3C//DTD SVG 1.1//EN"
  "http://www.w3.org/Graphics/SVG/1.1/DTD/svg11.dtd">
<!-- Created with matplotlib (https://matplotlib.org/) -->
<svg height="540pt" version="1.1" viewBox="0 0 720 540" width="720pt" xmlns="http://www.w3.org/2000/svg" xmlns:xlink="http://www.w3.org/1999/xlink">
 <defs>
  <style type="text/css">
*{stroke-linecap:butt;stroke-linejoin:round;}
  </style>
 </defs>
 <g id="figure_1">
  <g id="patch_1">
   <path d="M 0 540 
L 720 540 
L 720 0 
L 0 0 
z
" style="fill:#ffffff;"/>
  </g>
  <g id="axes_1">
   <g id="patch_2">
    <path d="M 90 480.6 
L 648 480.6 
L 648 64.8 
L 90 64.8 
z
" style="fill:#ffffff;"/>
   </g>
   <g id="patch_3">
    <path clip-path="url(#pdba88c9baf)" d="M 90 159344.483383 
L 90 373.983094 
L 101.387755 373.983094 
L 101.387755 303.922945 
L 112.77551 303.922945 
L 112.77551 288.63582 
L 124.163265 288.63582 
L 124.163265 287.013231 
L 135.55102 287.013231 
L 135.55102 282.738692 
L 146.938776 282.738692 
L 146.938776 284.959446 
L 158.326531 284.959446 
L 158.326531 279.141807 
L 169.714286 279.141807 
L 169.714286 277.098286 
L 181.102041 277.098286 
L 181.102041 274.978866 
L 192.489796 274.978866 
L 192.489796 272.72696 
L 203.877551 272.72696 
L 203.877551 269.917923 
L 215.265306 269.917923 
L 215.265306 268.616589 
L 226.653061 268.616589 
L 226.653061 271.499888 
L 238.040816 271.499888 
L 238.040816 273.315925 
L 249.428571 273.315925 
L 249.428571 268.432675 
L 260.816327 268.432675 
L 260.816327 268.188218 
L 272.204082 268.188218 
L 272.204082 269.792922 
L 283.591837 269.792922 
L 283.591837 268.493925 
L 294.979592 268.493925 
L 294.979592 271.116889 
L 306.367347 271.116889 
L 306.367347 268.678003 
L 317.755102 268.678003 
L 317.755102 269.605844 
L 329.142857 269.605844 
L 329.142857 267.339387 
L 340.530612 267.339387 
L 340.530612 265.672478 
L 351.918367 265.672478 
L 351.918367 268.55523 
L 363.306122 268.55523 
L 363.306122 268.005443 
L 374.693878 268.005443 
L 374.693878 269.233207 
L 386.081633 269.233207 
L 386.081633 267.641342 
L 397.469388 267.641342 
L 397.469388 269.917923 
L 408.857143 269.917923 
L 408.857143 271.116889 
L 420.244898 271.116889 
L 420.244898 263.302204 
L 431.632653 263.302204 
L 431.632653 267.218975 
L 443.020408 267.218975 
L 443.020408 267.823152 
L 454.408163 267.823152 
L 454.408163 273.909969 
L 465.795918 273.909969 
L 465.795918 266.203884 
L 477.183673 266.203884 
L 477.183673 273.053541 
L 488.571429 273.053541 
L 488.571429 267.46001 
L 499.959184 267.46001 
L 499.959184 268.37148 
L 511.346939 268.37148 
L 511.346939 268.432675 
L 522.734694 268.432675 
L 522.734694 271.499888 
L 534.122449 271.499888 
L 534.122449 269.605844 
L 545.510204 269.605844 
L 545.510204 269.605844 
L 556.897959 269.605844 
L 556.897959 271.949428 
L 568.285714 271.949428 
L 568.285714 269.109441 
L 579.673469 269.109441 
L 579.673469 271.949428 
L 591.061224 271.949428 
L 591.061224 277.796121 
L 602.44898 277.796121 
L 602.44898 277.306895 
L 613.836735 277.306895 
L 613.836735 275.248703 
L 625.22449 275.248703 
L 625.22449 279.716373 
L 636.612245 279.716373 
L 636.612245 246.182434 
L 648 246.182434 
L 648 159344.483383 
z
" style="fill:#1f77b4;opacity:0.2;"/>
   </g>
   <g id="patch_4">
    <path clip-path="url(#pdba88c9baf)" d="M 90 159344.483383 
L 90 233.212479 
L 101.387755 233.212479 
L 101.387755 189.205598 
L 112.77551 189.205598 
L 112.77551 183.785089 
L 124.163265 183.785089 
L 124.163265 185.876525 
L 135.55102 185.876525 
L 135.55102 179.783607 
L 146.938776 179.783607 
L 146.938776 177.066003 
L 158.326531 177.066003 
L 158.326531 175.491817 
L 169.714286 175.491817 
L 169.714286 176.049905 
L 181.102041 176.049905 
L 181.102041 176.162067 
L 192.489796 176.162067 
L 192.489796 174.655227 
L 203.877551 174.655227 
L 203.877551 171.242493 
L 215.265306 171.242493 
L 215.265306 171.272361 
L 226.653061 171.272361 
L 226.653061 171.872458 
L 238.040816 171.872458 
L 238.040816 171.526764 
L 249.428571 171.526764 
L 249.428571 168.749912 
L 260.816327 168.749912 
L 260.816327 169.067445 
L 272.204082 169.067445 
L 272.204082 169.92631 
L 283.591837 169.92631 
L 283.591837 171.391963 
L 294.979592 171.391963 
L 294.979592 169.342861 
L 306.367347 169.342861 
L 306.367347 169.038518 
L 317.755102 169.038518 
L 317.755102 167.00109 
L 329.142857 167.00109 
L 329.142857 169.299301 
L 340.530612 169.299301 
L 340.530612 166.609114 
L 351.918367 166.609114 
L 351.918367 164.641299 
L 363.306122 164.641299 
L 363.306122 168.119204 
L 374.693878 168.119204 
L 374.693878 167.976663 
L 386.081633 167.976663 
L 386.081633 167.536652 
L 397.469388 167.536652 
L 397.469388 167.848628 
L 408.857143 167.848628 
L 408.857143 169.400984 
L 420.244898 169.400984 
L 420.244898 168.749912 
L 431.632653 168.749912 
L 431.632653 166.219355 
L 443.020408 166.219355 
L 443.020408 165.556287 
L 454.408163 165.556287 
L 454.408163 165.721456 
L 465.795918 165.721456 
L 465.795918 166.26101 
L 477.183673 166.26101 
L 477.183673 167.029174 
L 488.571429 167.029174 
L 488.571429 164.940404 
L 499.959184 164.940404 
L 499.959184 167.085376 
L 511.346939 167.085376 
L 511.346939 163.88575 
L 522.734694 163.88575 
L 522.734694 162.91312 
L 534.122449 162.91312 
L 534.122449 166.973018 
L 545.510204 166.973018 
L 545.510204 163.698151 
L 556.897959 163.698151 
L 556.897959 166.136122 
L 568.285714 166.136122 
L 568.285714 165.022205 
L 579.673469 165.022205 
L 579.673469 164.222025 
L 591.061224 164.222025 
L 591.061224 164.478697 
L 602.44898 164.478697 
L 602.44898 163.765092 
L 613.836735 163.765092 
L 613.836735 163.297865 
L 625.22449 163.297865 
L 625.22449 164.397539 
L 636.612245 164.397539 
L 636.612245 83.7 
L 648 83.7 
L 648 159344.483383 
z
" style="fill:#ff7f0e;opacity:0.2;"/>
   </g>
   <g id="matplotlib.axis_1">
    <g id="xtick_1">
     <g id="line2d_1">
      <defs>
       <path d="M 0 0 
L 0 3.5 
" id="m178ffa4207" style="stroke:#000000;stroke-width:0.8;"/>
      </defs>
      <g>
       <use style="stroke:#000000;stroke-width:0.8;" x="90" xlink:href="#m178ffa4207" y="480.6"/>
      </g>
     </g>
     <g id="text_1">
      <!-- 0 -->
      <defs>
       <path d="M 31.78125 66.40625 
Q 24.171875 66.40625 20.328125 58.90625 
Q 16.5 51.421875 16.5 36.375 
Q 16.5 21.390625 20.328125 13.890625 
Q 24.171875 6.390625 31.78125 6.390625 
Q 39.453125 6.390625 43.28125 13.890625 
Q 47.125 21.390625 47.125 36.375 
Q 47.125 51.421875 43.28125 58.90625 
Q 39.453125 66.40625 31.78125 66.40625 
z
M 31.78125 74.21875 
Q 44.046875 74.21875 50.515625 64.515625 
Q 56.984375 54.828125 56.984375 36.375 
Q 56.984375 17.96875 50.515625 8.265625 
Q 44.046875 -1.421875 31.78125 -1.421875 
Q 19.53125 -1.421875 13.0625 8.265625 
Q 6.59375 17.96875 6.59375 36.375 
Q 6.59375 54.828125 13.0625 64.515625 
Q 19.53125 74.21875 31.78125 74.21875 
z
" id="DejaVuSans-48"/>
      </defs>
      <g transform="translate(81.7542 507.29515)scale(0.2592 -0.2592)">
       <use xlink:href="#DejaVuSans-48"/>
      </g>
     </g>
    </g>
    <g id="xtick_2">
     <g id="line2d_2">
      <g>
       <use style="stroke:#000000;stroke-width:0.8;" x="198.835576" xlink:href="#m178ffa4207" y="480.6"/>
      </g>
     </g>
     <g id="text_2">
      <!-- 50 -->
      <defs>
       <path d="M 10.796875 72.90625 
L 49.515625 72.90625 
L 49.515625 64.59375 
L 19.828125 64.59375 
L 19.828125 46.734375 
Q 21.96875 47.46875 24.109375 47.828125 
Q 26.265625 48.1875 28.421875 48.1875 
Q 40.625 48.1875 47.75 41.5 
Q 54.890625 34.8125 54.890625 23.390625 
Q 54.890625 11.625 47.5625 5.09375 
Q 40.234375 -1.421875 26.90625 -1.421875 
Q 22.3125 -1.421875 17.546875 -0.640625 
Q 12.796875 0.140625 7.71875 1.703125 
L 7.71875 11.625 
Q 12.109375 9.234375 16.796875 8.0625 
Q 21.484375 6.890625 26.703125 6.890625 
Q 35.15625 6.890625 40.078125 11.328125 
Q 45.015625 15.765625 45.015625 23.390625 
Q 45.015625 31 40.078125 35.4375 
Q 35.15625 39.890625 26.703125 39.890625 
Q 22.75 39.890625 18.8125 39.015625 
Q 14.890625 38.140625 10.796875 36.28125 
z
" id="DejaVuSans-53"/>
      </defs>
      <g transform="translate(182.343976 507.29515)scale(0.2592 -0.2592)">
       <use xlink:href="#DejaVuSans-53"/>
       <use x="63.623047" xlink:href="#DejaVuSans-48"/>
      </g>
     </g>
    </g>
    <g id="xtick_3">
     <g id="line2d_3">
      <g>
       <use style="stroke:#000000;stroke-width:0.8;" x="307.671153" xlink:href="#m178ffa4207" y="480.6"/>
      </g>
     </g>
     <g id="text_3">
      <!-- 100 -->
      <defs>
       <path d="M 12.40625 8.296875 
L 28.515625 8.296875 
L 28.515625 63.921875 
L 10.984375 60.40625 
L 10.984375 69.390625 
L 28.421875 72.90625 
L 38.28125 72.90625 
L 38.28125 8.296875 
L 54.390625 8.296875 
L 54.390625 0 
L 12.40625 0 
z
" id="DejaVuSans-49"/>
      </defs>
      <g transform="translate(282.933753 507.29515)scale(0.2592 -0.2592)">
       <use xlink:href="#DejaVuSans-49"/>
       <use x="63.623047" xlink:href="#DejaVuSans-48"/>
       <use x="127.246094" xlink:href="#DejaVuSans-48"/>
      </g>
     </g>
    </g>
    <g id="xtick_4">
     <g id="line2d_4">
      <g>
       <use style="stroke:#000000;stroke-width:0.8;" x="416.506729" xlink:href="#m178ffa4207" y="480.6"/>
      </g>
     </g>
     <g id="text_4">
      <!-- 150 -->
      <g transform="translate(391.769329 507.29515)scale(0.2592 -0.2592)">
       <use xlink:href="#DejaVuSans-49"/>
       <use x="63.623047" xlink:href="#DejaVuSans-53"/>
       <use x="127.246094" xlink:href="#DejaVuSans-48"/>
      </g>
     </g>
    </g>
    <g id="xtick_5">
     <g id="line2d_5">
      <g>
       <use style="stroke:#000000;stroke-width:0.8;" x="525.342305" xlink:href="#m178ffa4207" y="480.6"/>
      </g>
     </g>
     <g id="text_5">
      <!-- 200 -->
      <defs>
       <path d="M 19.1875 8.296875 
L 53.609375 8.296875 
L 53.609375 0 
L 7.328125 0 
L 7.328125 8.296875 
Q 12.9375 14.109375 22.625 23.890625 
Q 32.328125 33.6875 34.8125 36.53125 
Q 39.546875 41.84375 41.421875 45.53125 
Q 43.3125 49.21875 43.3125 52.78125 
Q 43.3125 58.59375 39.234375 62.25 
Q 35.15625 65.921875 28.609375 65.921875 
Q 23.96875 65.921875 18.8125 64.3125 
Q 13.671875 62.703125 7.8125 59.421875 
L 7.8125 69.390625 
Q 13.765625 71.78125 18.9375 73 
Q 24.125 74.21875 28.421875 74.21875 
Q 39.75 74.21875 46.484375 68.546875 
Q 53.21875 62.890625 53.21875 53.421875 
Q 53.21875 48.921875 51.53125 44.890625 
Q 49.859375 40.875 45.40625 35.40625 
Q 44.1875 33.984375 37.640625 27.21875 
Q 31.109375 20.453125 19.1875 8.296875 
z
" id="DejaVuSans-50"/>
      </defs>
      <g transform="translate(500.604905 507.29515)scale(0.2592 -0.2592)">
       <use xlink:href="#DejaVuSans-50"/>
       <use x="63.623047" xlink:href="#DejaVuSans-48"/>
       <use x="127.246094" xlink:href="#DejaVuSans-48"/>
      </g>
     </g>
    </g>
    <g id="xtick_6">
     <g id="line2d_6">
      <g>
       <use style="stroke:#000000;stroke-width:0.8;" x="634.177882" xlink:href="#m178ffa4207" y="480.6"/>
      </g>
     </g>
     <g id="text_6">
      <!-- 250 -->
      <g transform="translate(609.440482 507.29515)scale(0.2592 -0.2592)">
       <use xlink:href="#DejaVuSans-50"/>
       <use x="63.623047" xlink:href="#DejaVuSans-53"/>
       <use x="127.246094" xlink:href="#DejaVuSans-48"/>
      </g>
     </g>
    </g>
    <g id="text_7">
     <!-- maxCoordX3D -->
     <defs>
      <path d="M 52 44.1875 
Q 55.375 50.25 60.0625 53.125 
Q 64.75 56 71.09375 56 
Q 79.640625 56 84.28125 50.015625 
Q 88.921875 44.046875 88.921875 33.015625 
L 88.921875 0 
L 79.890625 0 
L 79.890625 32.71875 
Q 79.890625 40.578125 77.09375 44.375 
Q 74.3125 48.1875 68.609375 48.1875 
Q 61.625 48.1875 57.5625 43.546875 
Q 53.515625 38.921875 53.515625 30.90625 
L 53.515625 0 
L 44.484375 0 
L 44.484375 32.71875 
Q 44.484375 40.625 41.703125 44.40625 
Q 38.921875 48.1875 33.109375 48.1875 
Q 26.21875 48.1875 22.15625 43.53125 
Q 18.109375 38.875 18.109375 30.90625 
L 18.109375 0 
L 9.078125 0 
L 9.078125 54.6875 
L 18.109375 54.6875 
L 18.109375 46.1875 
Q 21.1875 51.21875 25.484375 53.609375 
Q 29.78125 56 35.6875 56 
Q 41.65625 56 45.828125 52.96875 
Q 50 49.953125 52 44.1875 
z
" id="DejaVuSans-109"/>
      <path d="M 34.28125 27.484375 
Q 23.390625 27.484375 19.1875 25 
Q 14.984375 22.515625 14.984375 16.5 
Q 14.984375 11.71875 18.140625 8.90625 
Q 21.296875 6.109375 26.703125 6.109375 
Q 34.1875 6.109375 38.703125 11.40625 
Q 43.21875 16.703125 43.21875 25.484375 
L 43.21875 27.484375 
z
M 52.203125 31.203125 
L 52.203125 0 
L 43.21875 0 
L 43.21875 8.296875 
Q 40.140625 3.328125 35.546875 0.953125 
Q 30.953125 -1.421875 24.3125 -1.421875 
Q 15.921875 -1.421875 10.953125 3.296875 
Q 6 8.015625 6 15.921875 
Q 6 25.140625 12.171875 29.828125 
Q 18.359375 34.515625 30.609375 34.515625 
L 43.21875 34.515625 
L 43.21875 35.40625 
Q 43.21875 41.609375 39.140625 45 
Q 35.0625 48.390625 27.6875 48.390625 
Q 23 48.390625 18.546875 47.265625 
Q 14.109375 46.140625 10.015625 43.890625 
L 10.015625 52.203125 
Q 14.9375 54.109375 19.578125 55.046875 
Q 24.21875 56 28.609375 56 
Q 40.484375 56 46.34375 49.84375 
Q 52.203125 43.703125 52.203125 31.203125 
z
" id="DejaVuSans-97"/>
      <path d="M 54.890625 54.6875 
L 35.109375 28.078125 
L 55.90625 0 
L 45.3125 0 
L 29.390625 21.484375 
L 13.484375 0 
L 2.875 0 
L 24.125 28.609375 
L 4.6875 54.6875 
L 15.28125 54.6875 
L 29.78125 35.203125 
L 44.28125 54.6875 
z
" id="DejaVuSans-120"/>
      <path d="M 64.40625 67.28125 
L 64.40625 56.890625 
Q 59.421875 61.53125 53.78125 63.8125 
Q 48.140625 66.109375 41.796875 66.109375 
Q 29.296875 66.109375 22.65625 58.46875 
Q 16.015625 50.828125 16.015625 36.375 
Q 16.015625 21.96875 22.65625 14.328125 
Q 29.296875 6.6875 41.796875 6.6875 
Q 48.140625 6.6875 53.78125 8.984375 
Q 59.421875 11.28125 64.40625 15.921875 
L 64.40625 5.609375 
Q 59.234375 2.09375 53.4375 0.328125 
Q 47.65625 -1.421875 41.21875 -1.421875 
Q 24.65625 -1.421875 15.125 8.703125 
Q 5.609375 18.84375 5.609375 36.375 
Q 5.609375 53.953125 15.125 64.078125 
Q 24.65625 74.21875 41.21875 74.21875 
Q 47.75 74.21875 53.53125 72.484375 
Q 59.328125 70.75 64.40625 67.28125 
z
" id="DejaVuSans-67"/>
      <path d="M 30.609375 48.390625 
Q 23.390625 48.390625 19.1875 42.75 
Q 14.984375 37.109375 14.984375 27.296875 
Q 14.984375 17.484375 19.15625 11.84375 
Q 23.34375 6.203125 30.609375 6.203125 
Q 37.796875 6.203125 41.984375 11.859375 
Q 46.1875 17.53125 46.1875 27.296875 
Q 46.1875 37.015625 41.984375 42.703125 
Q 37.796875 48.390625 30.609375 48.390625 
z
M 30.609375 56 
Q 42.328125 56 49.015625 48.375 
Q 55.71875 40.765625 55.71875 27.296875 
Q 55.71875 13.875 49.015625 6.21875 
Q 42.328125 -1.421875 30.609375 -1.421875 
Q 18.84375 -1.421875 12.171875 6.21875 
Q 5.515625 13.875 5.515625 27.296875 
Q 5.515625 40.765625 12.171875 48.375 
Q 18.84375 56 30.609375 56 
z
" id="DejaVuSans-111"/>
      <path d="M 41.109375 46.296875 
Q 39.59375 47.171875 37.8125 47.578125 
Q 36.03125 48 33.890625 48 
Q 26.265625 48 22.1875 43.046875 
Q 18.109375 38.09375 18.109375 28.8125 
L 18.109375 0 
L 9.078125 0 
L 9.078125 54.6875 
L 18.109375 54.6875 
L 18.109375 46.1875 
Q 20.953125 51.171875 25.484375 53.578125 
Q 30.03125 56 36.53125 56 
Q 37.453125 56 38.578125 55.875 
Q 39.703125 55.765625 41.0625 55.515625 
z
" id="DejaVuSans-114"/>
      <path d="M 45.40625 46.390625 
L 45.40625 75.984375 
L 54.390625 75.984375 
L 54.390625 0 
L 45.40625 0 
L 45.40625 8.203125 
Q 42.578125 3.328125 38.25 0.953125 
Q 33.9375 -1.421875 27.875 -1.421875 
Q 17.96875 -1.421875 11.734375 6.484375 
Q 5.515625 14.40625 5.515625 27.296875 
Q 5.515625 40.1875 11.734375 48.09375 
Q 17.96875 56 27.875 56 
Q 33.9375 56 38.25 53.625 
Q 42.578125 51.265625 45.40625 46.390625 
z
M 14.796875 27.296875 
Q 14.796875 17.390625 18.875 11.75 
Q 22.953125 6.109375 30.078125 6.109375 
Q 37.203125 6.109375 41.296875 11.75 
Q 45.40625 17.390625 45.40625 27.296875 
Q 45.40625 37.203125 41.296875 42.84375 
Q 37.203125 48.484375 30.078125 48.484375 
Q 22.953125 48.484375 18.875 42.84375 
Q 14.796875 37.203125 14.796875 27.296875 
z
" id="DejaVuSans-100"/>
      <path d="M 6.296875 72.90625 
L 16.890625 72.90625 
L 35.015625 45.796875 
L 53.21875 72.90625 
L 63.8125 72.90625 
L 40.375 37.890625 
L 65.375 0 
L 54.78125 0 
L 34.28125 31 
L 13.625 0 
L 2.984375 0 
L 29 38.921875 
z
" id="DejaVuSans-88"/>
      <path d="M 40.578125 39.3125 
Q 47.65625 37.796875 51.625 33 
Q 55.609375 28.21875 55.609375 21.1875 
Q 55.609375 10.40625 48.1875 4.484375 
Q 40.765625 -1.421875 27.09375 -1.421875 
Q 22.515625 -1.421875 17.65625 -0.515625 
Q 12.796875 0.390625 7.625 2.203125 
L 7.625 11.71875 
Q 11.71875 9.328125 16.59375 8.109375 
Q 21.484375 6.890625 26.8125 6.890625 
Q 36.078125 6.890625 40.9375 10.546875 
Q 45.796875 14.203125 45.796875 21.1875 
Q 45.796875 27.640625 41.28125 31.265625 
Q 36.765625 34.90625 28.71875 34.90625 
L 20.21875 34.90625 
L 20.21875 43.015625 
L 29.109375 43.015625 
Q 36.375 43.015625 40.234375 45.921875 
Q 44.09375 48.828125 44.09375 54.296875 
Q 44.09375 59.90625 40.109375 62.90625 
Q 36.140625 65.921875 28.71875 65.921875 
Q 24.65625 65.921875 20.015625 65.03125 
Q 15.375 64.15625 9.8125 62.3125 
L 9.8125 71.09375 
Q 15.4375 72.65625 20.34375 73.4375 
Q 25.25 74.21875 29.59375 74.21875 
Q 40.828125 74.21875 47.359375 69.109375 
Q 53.90625 64.015625 53.90625 55.328125 
Q 53.90625 49.265625 50.4375 45.09375 
Q 46.96875 40.921875 40.578125 39.3125 
z
" id="DejaVuSans-51"/>
      <path d="M 19.671875 64.796875 
L 19.671875 8.109375 
L 31.59375 8.109375 
Q 46.6875 8.109375 53.6875 14.9375 
Q 60.6875 21.78125 60.6875 36.53125 
Q 60.6875 51.171875 53.6875 57.984375 
Q 46.6875 64.796875 31.59375 64.796875 
z
M 9.8125 72.90625 
L 30.078125 72.90625 
Q 51.265625 72.90625 61.171875 64.09375 
Q 71.09375 55.28125 71.09375 36.53125 
Q 71.09375 17.671875 61.125 8.828125 
Q 51.171875 0 30.078125 0 
L 9.8125 0 
z
" id="DejaVuSans-68"/>
     </defs>
     <g transform="translate(275.19795 536.38085)scale(0.2592 -0.2592)">
      <use xlink:href="#DejaVuSans-109"/>
      <use x="97.412109" xlink:href="#DejaVuSans-97"/>
      <use x="158.691406" xlink:href="#DejaVuSans-120"/>
      <use x="217.871094" xlink:href="#DejaVuSans-67"/>
      <use x="287.695312" xlink:href="#DejaVuSans-111"/>
      <use x="348.876953" xlink:href="#DejaVuSans-111"/>
      <use x="410.058594" xlink:href="#DejaVuSans-114"/>
      <use x="451.15625" xlink:href="#DejaVuSans-100"/>
      <use x="514.632812" xlink:href="#DejaVuSans-88"/>
      <use x="583.138672" xlink:href="#DejaVuSans-51"/>
      <use x="646.761719" xlink:href="#DejaVuSans-68"/>
     </g>
    </g>
   </g>
   <g id="matplotlib.axis_2">
    <g id="ytick_1">
     <g id="line2d_7">
      <defs>
       <path d="M 0 0 
L -3.5 0 
" id="m2cff7f17c4" style="stroke:#000000;stroke-width:0.8;"/>
      </defs>
      <g>
       <use style="stroke:#000000;stroke-width:0.8;" x="90" xlink:href="#m2cff7f17c4" y="435.137226"/>
      </g>
     </g>
     <g id="text_8">
      <!-- $\mathdefault{10^{2}}$ -->
      <g transform="translate(37.3808 444.984801)scale(0.2592 -0.2592)">
       <use transform="translate(0 0.765625)" xlink:href="#DejaVuSans-49"/>
       <use transform="translate(63.623047 0.765625)" xlink:href="#DejaVuSans-48"/>
       <use transform="translate(128.203125 39.046875)scale(0.7)" xlink:href="#DejaVuSans-50"/>
      </g>
     </g>
    </g>
    <g id="ytick_2">
     <g id="line2d_8">
      <g>
       <use style="stroke:#000000;stroke-width:0.8;" x="90" xlink:href="#m2cff7f17c4" y="276.545065"/>
      </g>
     </g>
     <g id="text_9">
      <!-- $\mathdefault{10^{3}}$ -->
      <g transform="translate(37.3808 286.39264)scale(0.2592 -0.2592)">
       <use transform="translate(0 0.765625)" xlink:href="#DejaVuSans-49"/>
       <use transform="translate(63.623047 0.765625)" xlink:href="#DejaVuSans-48"/>
       <use transform="translate(128.203125 39.046875)scale(0.7)" xlink:href="#DejaVuSans-51"/>
      </g>
     </g>
    </g>
    <g id="ytick_3">
     <g id="line2d_9">
      <g>
       <use style="stroke:#000000;stroke-width:0.8;" x="90" xlink:href="#m2cff7f17c4" y="117.952903"/>
      </g>
     </g>
     <g id="text_10">
      <!-- $\mathdefault{10^{4}}$ -->
      <defs>
       <path d="M 37.796875 64.3125 
L 12.890625 25.390625 
L 37.796875 25.390625 
z
M 35.203125 72.90625 
L 47.609375 72.90625 
L 47.609375 25.390625 
L 58.015625 25.390625 
L 58.015625 17.1875 
L 47.609375 17.1875 
L 47.609375 0 
L 37.796875 0 
L 37.796875 17.1875 
L 4.890625 17.1875 
L 4.890625 26.703125 
z
" id="DejaVuSans-52"/>
      </defs>
      <g transform="translate(37.3808 127.800478)scale(0.2592 -0.2592)">
       <use transform="translate(0 0.684375)" xlink:href="#DejaVuSans-49"/>
       <use transform="translate(63.623047 0.684375)" xlink:href="#DejaVuSans-48"/>
       <use transform="translate(128.203125 38.965625)scale(0.7)" xlink:href="#DejaVuSans-52"/>
      </g>
     </g>
    </g>
    <g id="ytick_4">
     <g id="line2d_10">
      <defs>
       <path d="M 0 0 
L -2 0 
" id="m368512bffc" style="stroke:#000000;stroke-width:0.6;"/>
      </defs>
      <g>
       <use style="stroke:#000000;stroke-width:0.6;" x="90" xlink:href="#m368512bffc" y="470.320699"/>
      </g>
     </g>
    </g>
    <g id="ytick_5">
     <g id="line2d_11">
      <g>
       <use style="stroke:#000000;stroke-width:0.6;" x="90" xlink:href="#m368512bffc" y="459.703463"/>
      </g>
     </g>
    </g>
    <g id="ytick_6">
     <g id="line2d_12">
      <g>
       <use style="stroke:#000000;stroke-width:0.6;" x="90" xlink:href="#m368512bffc" y="450.506395"/>
      </g>
     </g>
    </g>
    <g id="ytick_7">
     <g id="line2d_13">
      <g>
       <use style="stroke:#000000;stroke-width:0.6;" x="90" xlink:href="#m368512bffc" y="442.394006"/>
      </g>
     </g>
    </g>
    <g id="ytick_8">
     <g id="line2d_14">
      <g>
       <use style="stroke:#000000;stroke-width:0.6;" x="90" xlink:href="#m368512bffc" y="387.396229"/>
      </g>
     </g>
    </g>
    <g id="ytick_9">
     <g id="line2d_15">
      <g>
       <use style="stroke:#000000;stroke-width:0.6;" x="90" xlink:href="#m368512bffc" y="359.469535"/>
      </g>
     </g>
    </g>
    <g id="ytick_10">
     <g id="line2d_16">
      <g>
       <use style="stroke:#000000;stroke-width:0.6;" x="90" xlink:href="#m368512bffc" y="339.655231"/>
      </g>
     </g>
    </g>
    <g id="ytick_11">
     <g id="line2d_17">
      <g>
       <use style="stroke:#000000;stroke-width:0.6;" x="90" xlink:href="#m368512bffc" y="324.286062"/>
      </g>
     </g>
    </g>
    <g id="ytick_12">
     <g id="line2d_18">
      <g>
       <use style="stroke:#000000;stroke-width:0.6;" x="90" xlink:href="#m368512bffc" y="311.728537"/>
      </g>
     </g>
    </g>
    <g id="ytick_13">
     <g id="line2d_19">
      <g>
       <use style="stroke:#000000;stroke-width:0.6;" x="90" xlink:href="#m368512bffc" y="301.111301"/>
      </g>
     </g>
    </g>
    <g id="ytick_14">
     <g id="line2d_20">
      <g>
       <use style="stroke:#000000;stroke-width:0.6;" x="90" xlink:href="#m368512bffc" y="291.914233"/>
      </g>
     </g>
    </g>
    <g id="ytick_15">
     <g id="line2d_21">
      <g>
       <use style="stroke:#000000;stroke-width:0.6;" x="90" xlink:href="#m368512bffc" y="283.801844"/>
      </g>
     </g>
    </g>
    <g id="ytick_16">
     <g id="line2d_22">
      <g>
       <use style="stroke:#000000;stroke-width:0.6;" x="90" xlink:href="#m368512bffc" y="228.804067"/>
      </g>
     </g>
    </g>
    <g id="ytick_17">
     <g id="line2d_23">
      <g>
       <use style="stroke:#000000;stroke-width:0.6;" x="90" xlink:href="#m368512bffc" y="200.877373"/>
      </g>
     </g>
    </g>
    <g id="ytick_18">
     <g id="line2d_24">
      <g>
       <use style="stroke:#000000;stroke-width:0.6;" x="90" xlink:href="#m368512bffc" y="181.063069"/>
      </g>
     </g>
    </g>
    <g id="ytick_19">
     <g id="line2d_25">
      <g>
       <use style="stroke:#000000;stroke-width:0.6;" x="90" xlink:href="#m368512bffc" y="165.693901"/>
      </g>
     </g>
    </g>
    <g id="ytick_20">
     <g id="line2d_26">
      <g>
       <use style="stroke:#000000;stroke-width:0.6;" x="90" xlink:href="#m368512bffc" y="153.136376"/>
      </g>
     </g>
    </g>
    <g id="ytick_21">
     <g id="line2d_27">
      <g>
       <use style="stroke:#000000;stroke-width:0.6;" x="90" xlink:href="#m368512bffc" y="142.519139"/>
      </g>
     </g>
    </g>
    <g id="ytick_22">
     <g id="line2d_28">
      <g>
       <use style="stroke:#000000;stroke-width:0.6;" x="90" xlink:href="#m368512bffc" y="133.322071"/>
      </g>
     </g>
    </g>
    <g id="ytick_23">
     <g id="line2d_29">
      <g>
       <use style="stroke:#000000;stroke-width:0.6;" x="90" xlink:href="#m368512bffc" y="125.209682"/>
      </g>
     </g>
    </g>
    <g id="ytick_24">
     <g id="line2d_30">
      <g>
       <use style="stroke:#000000;stroke-width:0.6;" x="90" xlink:href="#m368512bffc" y="70.211905"/>
      </g>
     </g>
    </g>
    <g id="text_11">
     <!-- Count -->
     <defs>
      <path d="M 8.5 21.578125 
L 8.5 54.6875 
L 17.484375 54.6875 
L 17.484375 21.921875 
Q 17.484375 14.15625 20.5 10.265625 
Q 23.53125 6.390625 29.59375 6.390625 
Q 36.859375 6.390625 41.078125 11.03125 
Q 45.3125 15.671875 45.3125 23.6875 
L 45.3125 54.6875 
L 54.296875 54.6875 
L 54.296875 0 
L 45.3125 0 
L 45.3125 8.40625 
Q 42.046875 3.421875 37.71875 1 
Q 33.40625 -1.421875 27.6875 -1.421875 
Q 18.265625 -1.421875 13.375 4.4375 
Q 8.5 10.296875 8.5 21.578125 
z
M 31.109375 56 
z
" id="DejaVuSans-117"/>
      <path d="M 54.890625 33.015625 
L 54.890625 0 
L 45.90625 0 
L 45.90625 32.71875 
Q 45.90625 40.484375 42.875 44.328125 
Q 39.84375 48.1875 33.796875 48.1875 
Q 26.515625 48.1875 22.3125 43.546875 
Q 18.109375 38.921875 18.109375 30.90625 
L 18.109375 0 
L 9.078125 0 
L 9.078125 54.6875 
L 18.109375 54.6875 
L 18.109375 46.1875 
Q 21.34375 51.125 25.703125 53.5625 
Q 30.078125 56 35.796875 56 
Q 45.21875 56 50.046875 50.171875 
Q 54.890625 44.34375 54.890625 33.015625 
z
" id="DejaVuSans-110"/>
      <path d="M 18.3125 70.21875 
L 18.3125 54.6875 
L 36.8125 54.6875 
L 36.8125 47.703125 
L 18.3125 47.703125 
L 18.3125 18.015625 
Q 18.3125 11.328125 20.140625 9.421875 
Q 21.96875 7.515625 27.59375 7.515625 
L 36.8125 7.515625 
L 36.8125 0 
L 27.59375 0 
Q 17.1875 0 13.234375 3.875 
Q 9.28125 7.765625 9.28125 18.015625 
L 9.28125 47.703125 
L 2.6875 47.703125 
L 2.6875 54.6875 
L 9.28125 54.6875 
L 9.28125 70.21875 
z
" id="DejaVuSans-116"/>
     </defs>
     <g transform="translate(27.99025 311.18715)rotate(-90)scale(0.2592 -0.2592)">
      <use xlink:href="#DejaVuSans-67"/>
      <use x="69.824219" xlink:href="#DejaVuSans-111"/>
      <use x="131.005859" xlink:href="#DejaVuSans-117"/>
      <use x="194.384766" xlink:href="#DejaVuSans-110"/>
      <use x="257.763672" xlink:href="#DejaVuSans-116"/>
     </g>
    </g>
   </g>
   <g id="line2d_31">
    <path clip-path="url(#pdba88c9baf)" d="M 90 373.983094 
L 101.387755 373.983094 
L 101.387755 303.922945 
L 112.77551 303.922945 
L 112.77551 288.63582 
L 124.163265 288.63582 
L 124.163265 287.013231 
L 135.55102 287.013231 
L 135.55102 282.738692 
L 146.938776 282.738692 
L 146.938776 284.959446 
L 158.326531 284.959446 
L 158.326531 279.141807 
L 169.714286 279.141807 
L 169.714286 277.098286 
L 181.102041 277.098286 
L 181.102041 274.978866 
L 192.489796 274.978866 
L 192.489796 272.72696 
L 203.877551 272.72696 
L 203.877551 269.917923 
L 215.265306 269.917923 
L 215.265306 268.616589 
L 226.653061 268.616589 
L 226.653061 271.499888 
L 238.040816 271.499888 
L 238.040816 273.315925 
L 249.428571 273.315925 
L 249.428571 268.432675 
L 260.816327 268.432675 
L 260.816327 268.188218 
L 272.204082 268.188218 
L 272.204082 269.792922 
L 283.591837 269.792922 
L 283.591837 268.493925 
L 294.979592 268.493925 
L 294.979592 271.116889 
L 306.367347 271.116889 
L 306.367347 268.678003 
L 317.755102 268.678003 
L 317.755102 269.605844 
L 329.142857 269.605844 
L 329.142857 267.339387 
L 340.530612 267.339387 
L 340.530612 265.672478 
L 351.918367 265.672478 
L 351.918367 268.55523 
L 363.306122 268.55523 
L 363.306122 268.005443 
L 374.693878 268.005443 
L 374.693878 269.233207 
L 386.081633 269.233207 
L 386.081633 267.641342 
L 397.469388 267.641342 
L 397.469388 269.917923 
L 408.857143 269.917923 
L 408.857143 271.116889 
L 420.244898 271.116889 
L 420.244898 263.302204 
L 431.632653 263.302204 
L 431.632653 267.218975 
L 443.020408 267.218975 
L 443.020408 267.823152 
L 454.408163 267.823152 
L 454.408163 273.909969 
L 465.795918 273.909969 
L 465.795918 266.203884 
L 477.183673 266.203884 
L 477.183673 273.053541 
L 488.571429 273.053541 
L 488.571429 267.46001 
L 499.959184 267.46001 
L 499.959184 268.37148 
L 511.346939 268.37148 
L 511.346939 268.432675 
L 522.734694 268.432675 
L 522.734694 271.499888 
L 534.122449 271.499888 
L 534.122449 269.605844 
L 545.510204 269.605844 
L 545.510204 269.605844 
L 556.897959 269.605844 
L 556.897959 271.949428 
L 568.285714 271.949428 
L 568.285714 269.109441 
L 579.673469 269.109441 
L 579.673469 271.949428 
L 591.061224 271.949428 
L 591.061224 277.796121 
L 602.44898 277.796121 
L 602.44898 277.306895 
L 613.836735 277.306895 
L 613.836735 275.248703 
L 625.22449 275.248703 
L 625.22449 279.716373 
L 636.612245 279.716373 
L 636.612245 246.182434 
L 648 246.182434 
" style="fill:none;stroke:#1f77b4;stroke-linecap:square;stroke-width:1.5;"/>
   </g>
   <g id="line2d_32">
    <path clip-path="url(#pdba88c9baf)" d="M 90 233.212479 
L 101.387755 233.212479 
L 101.387755 189.205598 
L 112.77551 189.205598 
L 112.77551 183.785089 
L 124.163265 183.785089 
L 124.163265 185.876525 
L 135.55102 185.876525 
L 135.55102 179.783607 
L 146.938776 179.783607 
L 146.938776 177.066003 
L 158.326531 177.066003 
L 158.326531 175.491817 
L 169.714286 175.491817 
L 169.714286 176.049905 
L 181.102041 176.049905 
L 181.102041 176.162067 
L 192.489796 176.162067 
L 192.489796 174.655227 
L 203.877551 174.655227 
L 203.877551 171.242493 
L 215.265306 171.242493 
L 215.265306 171.272361 
L 226.653061 171.272361 
L 226.653061 171.872458 
L 238.040816 171.872458 
L 238.040816 171.526764 
L 249.428571 171.526764 
L 249.428571 168.749912 
L 260.816327 168.749912 
L 260.816327 169.067445 
L 272.204082 169.067445 
L 272.204082 169.92631 
L 283.591837 169.92631 
L 283.591837 171.391963 
L 294.979592 171.391963 
L 294.979592 169.342861 
L 306.367347 169.342861 
L 306.367347 169.038518 
L 317.755102 169.038518 
L 317.755102 167.00109 
L 329.142857 167.00109 
L 329.142857 169.299301 
L 340.530612 169.299301 
L 340.530612 166.609114 
L 351.918367 166.609114 
L 351.918367 164.641299 
L 363.306122 164.641299 
L 363.306122 168.119204 
L 374.693878 168.119204 
L 374.693878 167.976663 
L 386.081633 167.976663 
L 386.081633 167.536652 
L 397.469388 167.536652 
L 397.469388 167.848628 
L 408.857143 167.848628 
L 408.857143 169.400984 
L 420.244898 169.400984 
L 420.244898 168.749912 
L 431.632653 168.749912 
L 431.632653 166.219355 
L 443.020408 166.219355 
L 443.020408 165.556287 
L 454.408163 165.556287 
L 454.408163 165.721456 
L 465.795918 165.721456 
L 465.795918 166.26101 
L 477.183673 166.26101 
L 477.183673 167.029174 
L 488.571429 167.029174 
L 488.571429 164.940404 
L 499.959184 164.940404 
L 499.959184 167.085376 
L 511.346939 167.085376 
L 511.346939 163.88575 
L 522.734694 163.88575 
L 522.734694 162.91312 
L 534.122449 162.91312 
L 534.122449 166.973018 
L 545.510204 166.973018 
L 545.510204 163.698151 
L 556.897959 163.698151 
L 556.897959 166.136122 
L 568.285714 166.136122 
L 568.285714 165.022205 
L 579.673469 165.022205 
L 579.673469 164.222025 
L 591.061224 164.222025 
L 591.061224 164.478697 
L 602.44898 164.478697 
L 602.44898 163.765092 
L 613.836735 163.765092 
L 613.836735 163.297865 
L 625.22449 163.297865 
L 625.22449 164.397539 
L 636.612245 164.397539 
L 636.612245 83.7 
L 648 83.7 
" style="fill:none;stroke:#ff7f0e;stroke-linecap:square;stroke-width:1.5;"/>
   </g>
   <g id="line2d_33">
    <path clip-path="url(#pdba88c9baf)" d="M 90 277.726018 
L 101.387755 277.726018 
L 101.387755 230.230692 
L 112.77551 230.230692 
L 112.77551 224.27289 
L 124.163265 224.27289 
L 124.163265 227.778603 
L 135.55102 227.778603 
L 135.55102 222.051924 
L 146.938776 222.051924 
L 146.938776 217.725925 
L 158.326531 217.725925 
L 158.326531 217.667308 
L 169.714286 217.667308 
L 169.714286 217.433335 
L 181.102041 217.433335 
L 181.102041 219.297753 
L 192.489796 219.297753 
L 192.489796 217.931481 
L 203.877551 217.931481 
L 203.877551 215.646501 
L 215.265306 215.646501 
L 215.265306 216.591784 
L 226.653061 216.591784 
L 226.653061 217.141982 
L 238.040816 217.141982 
L 238.040816 216.96776 
L 249.428571 216.96776 
L 249.428571 213.98812 
L 260.816327 213.98812 
L 260.816327 215.136308 
L 272.204082 215.136308 
L 272.204082 215.988741 
L 283.591837 215.988741 
L 283.591837 216.96776 
L 294.979592 216.96776 
L 294.979592 215.960156 
L 306.367347 215.960156 
L 306.367347 217.84331 
L 317.755102 217.84331 
L 317.755102 211.425768 
L 329.142857 211.425768 
L 329.142857 215.874472 
L 340.530612 215.874472 
L 340.530612 215.108075 
L 351.918367 215.108075 
L 351.918367 210.521944 
L 363.306122 210.521944 
L 363.306122 216.938766 
L 374.693878 216.938766 
L 374.693878 215.27765 
L 386.081633 215.27765 
L 386.081633 214.015898 
L 397.469388 214.015898 
L 397.469388 217.054816 
L 408.857143 217.054816 
L 408.857143 218.314862 
L 420.244898 218.314862 
L 420.244898 216.591784 
L 431.632653 216.591784 
L 431.632653 214.405972 
L 443.020408 214.405972 
L 443.020408 213.242316 
L 454.408163 213.242316 
L 454.408163 213.462454 
L 465.795918 213.462454 
L 465.795918 214.995256 
L 477.183673 214.995256 
L 477.183673 215.334267 
L 488.571429 215.334267 
L 488.571429 214.043687 
L 499.959184 214.043687 
L 499.959184 214.629867 
L 511.346939 214.629867 
L 511.346939 212.179104 
L 522.734694 212.179104 
L 522.734694 210.866125 
L 534.122449 210.866125 
L 534.122449 216.246542 
L 545.510204 216.246542 
L 545.510204 211.828316 
L 556.897959 211.828316 
L 556.897959 215.136308 
L 568.285714 215.136308 
L 568.285714 212.586091 
L 579.673469 212.586091 
L 579.673469 212.640539 
L 591.061224 212.640539 
L 591.061224 215.164553 
L 602.44898 215.164553 
L 602.44898 212.206161 
L 613.836735 212.206161 
L 613.836735 213.407354 
L 625.22449 213.407354 
L 625.22449 216.649493 
L 636.612245 216.649493 
L 636.612245 186.302542 
L 648 186.302542 
" style="fill:none;stroke:#2ca02c;stroke-linecap:square;stroke-width:1.5;"/>
   </g>
   <g id="line2d_34">
    <path clip-path="url(#pdba88c9baf)" d="M 90 311.843426 
L 101.387755 311.843426 
L 101.387755 271.244319 
L 112.77551 271.244319 
L 112.77551 264.506054 
L 124.163265 264.506054 
L 124.163265 267.520401 
L 135.55102 267.520401 
L 135.55102 259.811976 
L 146.938776 259.811976 
L 146.938776 258.580586 
L 158.326531 258.580586 
L 158.326531 254.211771 
L 169.714286 254.211771 
L 169.714286 256.954971 
L 181.102041 256.954971 
L 181.102041 253.963211 
L 192.489796 253.963211 
L 192.489796 252.393327 
L 203.877551 252.393327 
L 203.877551 246.671705 
L 215.265306 246.671705 
L 215.265306 247.029734 
L 226.653061 247.029734 
L 226.653061 246.448878 
L 238.040816 246.448878 
L 238.040816 244.087194 
L 249.428571 244.087194 
L 249.428571 242.053816 
L 260.816327 242.053816 
L 260.816327 241.596168 
L 272.204082 241.596168 
L 272.204082 243.701335 
L 283.591837 243.701335 
L 283.591837 244.432005 
L 294.979592 244.432005 
L 294.979592 241.430502 
L 306.367347 241.430502 
L 306.367347 237.686992 
L 317.755102 237.686992 
L 317.755102 239.472979 
L 329.142857 239.472979 
L 329.142857 239.112057 
L 340.530612 239.112057 
L 340.530612 235.186343 
L 351.918367 235.186343 
L 351.918367 236.214074 
L 363.306122 236.214074 
L 363.306122 235.907959 
L 374.693878 235.907959 
L 374.693878 237.843884 
L 386.081633 237.843884 
L 386.081633 237.922465 
L 397.469388 237.922465 
L 397.469388 235.565198 
L 408.857143 235.565198 
L 408.857143 236.214074 
L 420.244898 236.214074 
L 420.244898 238.316717 
L 431.632653 238.316717 
L 431.632653 233.433116 
L 443.020408 233.433116 
L 443.020408 234.997694 
L 454.408163 234.997694 
L 454.408163 233.249203 
L 465.795918 233.249203 
L 465.795918 234.621939 
L 477.183673 234.621939 
L 477.183673 235.527219 
L 488.571429 235.527219 
L 488.571429 230.901966 
L 499.959184 230.901966 
L 499.959184 236.791732 
L 511.346939 236.791732 
L 511.346939 232.336928 
L 522.734694 232.336928 
L 522.734694 232.482083 
L 534.122449 232.482083 
L 534.122449 233.617523 
L 545.510204 233.617523 
L 545.510204 230.653893 
L 556.897959 230.653893 
L 556.897959 232.773312 
L 568.285714 232.773312 
L 568.285714 232.59115 
L 579.673469 232.59115 
L 579.673469 232.011445 
L 591.061224 232.011445 
L 591.061224 229.183929 
L 602.44898 229.183929 
L 602.44898 231.43658 
L 613.836735 231.43658 
L 613.836735 228.872977 
L 625.22449 228.872977 
L 625.22449 226.902053 
L 636.612245 226.902053 
L 636.612245 109.085504 
L 648 109.085504 
" style="fill:none;stroke:#d62728;stroke-linecap:square;stroke-width:1.5;"/>
   </g>
   <g id="line2d_35">
    <path clip-path="url(#pdba88c9baf)" d="M 90 461.7 
L 101.387755 461.7 
L 101.387755 385.695508 
L 112.77551 385.695508 
L 112.77551 373.700236 
L 124.163265 373.700236 
L 124.163265 375.126285 
L 135.55102 375.126285 
L 135.55102 365.462505 
L 146.938776 365.462505 
L 146.938776 368.79792 
L 158.326531 368.79792 
L 158.326531 365.462505 
L 169.714286 365.462505 
L 169.714286 356.547779 
L 181.102041 356.547779 
L 181.102041 361.331154 
L 192.489796 361.331154 
L 192.489796 360.161759 
L 203.877551 360.161759 
L 203.877551 362.042441 
L 215.265306 362.042441 
L 215.265306 348.264452 
L 226.653061 348.264452 
L 226.653061 352.90498 
L 238.040816 352.90498 
L 238.040816 359.011888 
L 249.428571 359.011888 
L 249.428571 348.459844 
L 260.816327 348.459844 
L 260.816327 352.075142 
L 272.204082 352.075142 
L 272.204082 354.381698 
L 283.591837 354.381698 
L 283.591837 357.433652 
L 294.979592 357.433652 
L 294.979592 360.627137 
L 306.367347 360.627137 
L 306.367347 355.456223 
L 317.755102 355.456223 
L 317.755102 356.547779 
L 329.142857 356.547779 
L 329.142857 352.075142 
L 340.530612 352.075142 
L 340.530612 357.656912 
L 351.918367 357.656912 
L 351.918367 354.809498 
L 363.306122 354.809498 
L 363.306122 351.869235 
L 374.693878 351.869235 
L 374.693878 359.930244 
L 386.081633 359.930244 
L 386.081633 358.105615 
L 397.469388 358.105615 
L 397.469388 356.328079 
L 408.857143 356.328079 
L 408.857143 357.656912 
L 420.244898 357.656912 
L 420.244898 349.049368 
L 431.632653 349.049368 
L 431.632653 350.444872 
L 443.020408 350.444872 
L 443.020408 351.255183 
L 454.408163 351.255183 
L 454.408163 360.861011 
L 465.795918 360.861011 
L 465.795918 348.069612 
L 477.183673 348.069612 
L 477.183673 363.244491 
L 488.571429 363.244491 
L 488.571429 357.656912 
L 499.959184 357.656912 
L 499.959184 354.168789 
L 511.346939 354.168789 
L 511.346939 357.433652 
L 522.734694 357.433652 
L 522.734694 362.520747 
L 534.122449 362.520747 
L 534.122449 362.281179 
L 545.510204 362.281179 
L 545.510204 357.880898 
L 556.897959 357.880898 
L 556.897959 367.495883 
L 568.285714 367.495883 
L 568.285714 363.244491 
L 579.673469 363.244491 
L 579.673469 363.244491 
L 591.061224 363.244491 
L 591.061224 372.303115 
L 602.44898 372.303115 
L 602.44898 372.303115 
L 613.836735 372.303115 
L 613.836735 364.715202 
L 625.22449 364.715202 
L 625.22449 373.418536 
L 636.612245 373.418536 
L 636.612245 353.533986 
L 648 353.533986 
" style="fill:none;stroke:#9467bd;stroke-linecap:square;stroke-width:1.5;"/>
   </g>
   <g id="line2d_36">
    <path clip-path="url(#pdba88c9baf)" d="M 90 396.593297 
L 101.387755 396.593297 
L 101.387755 328.988815 
L 112.77551 328.988815 
L 112.77551 312.304906 
L 124.163265 312.304906 
L 124.163265 309.470115 
L 135.55102 309.470115 
L 135.55102 307.391104 
L 146.938776 307.391104 
L 146.938776 309.13765 
L 158.326531 309.13765 
L 158.326531 302.302265 
L 169.714286 302.302265 
L 169.714286 303.209201 
L 181.102041 303.209201 
L 181.102041 298.126702 
L 192.489796 298.126702 
L 192.489796 295.447095 
L 203.877551 295.447095 
L 203.877551 290.888769 
L 215.265306 290.888769 
L 215.265306 294.636253 
L 226.653061 294.636253 
L 226.653061 296.727689 
L 238.040816 296.727689 
L 238.040816 296.727689 
L 249.428571 296.727689 
L 249.428571 294.27892 
L 260.816327 294.27892 
L 260.816327 292.346057 
L 272.204082 292.346057 
L 272.204082 293.658015 
L 283.591837 293.658015 
L 283.591837 290.634771 
L 294.979592 290.634771 
L 294.979592 293.042657 
L 306.367347 293.042657 
L 306.367347 291.656432 
L 317.755102 291.656432 
L 317.755102 292.519548 
L 329.142857 292.519548 
L 329.142857 291.143708 
L 340.530612 291.143708 
L 340.530612 286.693251 
L 351.918367 286.693251 
L 351.918367 291.742259 
L 363.306122 291.742259 
L 363.306122 292.173002 
L 374.693878 292.173002 
L 374.693878 290.719333 
L 386.081633 290.719333 
L 386.081633 289.212879 
L 397.469388 289.212879 
L 397.469388 293.042657 
L 408.857143 293.042657 
L 408.857143 294.189876 
L 420.244898 294.189876 
L 420.244898 286.693251 
L 431.632653 286.693251 
L 431.632653 291.656432 
L 443.020408 291.656432 
L 443.020408 292.173002 
L 454.408163 292.173002 
L 454.408163 296.820078 
L 465.795918 296.820078 
L 465.795918 291.228897 
L 477.183673 291.228897 
L 477.183673 294.725876 
L 488.571429 294.725876 
L 488.571429 289.130145 
L 499.959184 289.130145 
L 499.959184 291.742259 
L 511.346939 291.742259 
L 511.346939 290.550313 
L 522.734694 290.550313 
L 522.734694 292.867845 
L 534.122449 292.867845 
L 534.122449 290.381707 
L 545.510204 290.381707 
L 545.510204 292.000381 
L 556.897959 292.000381 
L 556.897959 291.742259 
L 568.285714 291.742259 
L 568.285714 289.378645 
L 579.673469 289.378645 
L 579.673469 293.217913 
L 591.061224 293.217913 
L 591.061224 297.938517 
L 602.44898 297.938517 
L 602.44898 297.283889 
L 613.836735 297.283889 
L 613.836735 297.190876 
L 625.22449 297.190876 
L 625.22449 300.134325 
L 636.612245 300.134325 
L 636.612245 262.455013 
L 648 262.455013 
" style="fill:none;stroke:#8c564b;stroke-linecap:square;stroke-width:1.5;"/>
   </g>
   <g id="line2d_37">
    <path clip-path="url(#pdba88c9baf)" d="M 90 368.535536 
L 101.387755 368.535536 
L 101.387755 329.730219 
L 112.77551 329.730219 
L 112.77551 329.730219 
L 124.163265 329.730219 
L 124.163265 322.518178 
L 135.55102 322.518178 
L 135.55102 318.857887 
L 146.938776 318.857887 
L 146.938776 320.013331 
L 158.326531 320.013331 
L 158.326531 317.97242 
L 169.714286 317.97242 
L 169.714286 316.850439 
L 181.102041 316.850439 
L 181.102041 317.222405 
L 192.489796 317.222405 
L 192.489796 313.002977 
L 203.877551 313.002977 
L 203.877551 312.7695 
L 215.265306 312.7695 
L 215.265306 308.696844 
L 226.653061 308.696844 
L 226.653061 311.385017 
L 238.040816 311.385017 
L 238.040816 318.098221 
L 249.428571 318.098221 
L 249.428571 312.886139 
L 260.816327 312.886139 
L 260.816327 313.237248 
L 272.204082 313.237248 
L 272.204082 309.581295 
L 283.591837 309.581295 
L 283.591837 314.659861 
L 294.979592 314.659861 
L 294.979592 311.843426 
L 306.367347 311.843426 
L 306.367347 312.304906 
L 317.755102 312.304906 
L 317.755102 316.48047 
L 329.142857 316.48047 
L 329.142857 318.098221 
L 340.530612 318.098221 
L 340.530612 310.59007 
L 351.918367 310.59007 
L 351.918367 311.728537 
L 363.306122 311.728537 
L 363.306122 314.182384 
L 374.693878 314.182384 
L 374.693878 310.929639 
L 386.081633 310.929639 
L 386.081633 315.38234 
L 397.469388 315.38234 
L 397.469388 312.536811 
L 408.857143 312.536811 
L 408.857143 315.990249 
L 420.244898 315.990249 
L 420.244898 313.354683 
L 431.632653 313.354683 
L 431.632653 315.746441 
L 443.020408 315.746441 
L 443.020408 310.477252 
L 454.408163 310.477252 
L 454.408163 316.48047 
L 465.795918 316.48047 
L 465.795918 310.364618 
L 477.183673 310.364618 
L 477.183673 310.816263 
L 488.571429 310.816263 
L 488.571429 317.222405 
L 499.959184 317.222405 
L 499.959184 311.958507 
L 511.346939 311.958507 
L 511.346939 310.027816 
L 522.734694 310.027816 
L 522.734694 307.498975 
L 534.122449 307.498975 
L 534.122449 313.354683 
L 545.510204 313.354683 
L 545.510204 315.746441 
L 556.897959 315.746441 
L 556.897959 315.868237 
L 568.285714 315.868237 
L 568.285714 314.779749 
L 579.673469 314.779749 
L 579.673469 309.027183 
L 591.061224 309.027183 
L 591.061224 313.002977 
L 602.44898 313.002977 
L 602.44898 309.804194 
L 613.836735 309.804194 
L 613.836735 309.470115 
L 625.22449 309.470115 
L 625.22449 314.182384 
L 636.612245 314.182384 
L 636.612245 262.007404 
L 648 262.007404 
" style="fill:none;stroke:#e377c2;stroke-linecap:square;stroke-width:1.5;"/>
   </g>
   <g id="line2d_38">
    <path clip-path="url(#pdba88c9baf)" d="M 122.650673 480.6 
L 122.650673 64.8 
" style="fill:none;stroke:#000000;stroke-linecap:square;stroke-width:1.5;"/>
   </g>
   <g id="patch_5">
    <path d="M 90 480.6 
L 90 64.8 
" style="fill:none;stroke:#000000;stroke-linecap:square;stroke-linejoin:miter;stroke-width:0.8;"/>
   </g>
   <g id="patch_6">
    <path d="M 648 480.6 
L 648 64.8 
" style="fill:none;stroke:#000000;stroke-linecap:square;stroke-linejoin:miter;stroke-width:0.8;"/>
   </g>
   <g id="patch_7">
    <path d="M 90 480.6 
L 648 480.6 
" style="fill:none;stroke:#000000;stroke-linecap:square;stroke-linejoin:miter;stroke-width:0.8;"/>
   </g>
   <g id="patch_8">
    <path d="M 90 64.8 
L 648 64.8 
" style="fill:none;stroke:#000000;stroke-linecap:square;stroke-linejoin:miter;stroke-width:0.8;"/>
   </g>
   <g id="patch_9">
    <path d="M 168.415704 93.906 
Q 147.651733 93.906 124.651695 93.906 
" style="fill:none;stroke:#000000;stroke-linecap:round;stroke-width:2;"/>
    <path d="M 162.415704 90.906 
L 168.415704 93.906 
L 162.415704 96.906 
L 162.415704 90.906 
z
" style="fill:#1f77b4;stroke:#000000;stroke-linecap:round;stroke-width:2;"/>
   </g>
   <g id="legend_1">
    <g id="patch_10">
     <path d="M 385.194375 264.144375 
L 635.4 264.144375 
Q 639 264.144375 639 260.544375 
L 639 77.4 
Q 639 73.8 635.4 73.8 
L 385.194375 73.8 
Q 381.594375 73.8 381.594375 77.4 
L 381.594375 260.544375 
Q 381.594375 264.144375 385.194375 264.144375 
z
" style="fill:#ffffff;opacity:0.5;stroke:#cccccc;stroke-linejoin:miter;"/>
    </g>
    <g id="line2d_39">
     <path d="M 388.794375 88.377188 
L 424.794375 88.377188 
" style="fill:none;stroke:#1f77b4;stroke-linecap:square;stroke-width:1.5;"/>
    </g>
    <g id="line2d_40"/>
    <g id="text_12">
     <!-- Showers -->
     <defs>
      <path d="M 53.515625 70.515625 
L 53.515625 60.890625 
Q 47.90625 63.578125 42.921875 64.890625 
Q 37.9375 66.21875 33.296875 66.21875 
Q 25.25 66.21875 20.875 63.09375 
Q 16.5 59.96875 16.5 54.203125 
Q 16.5 49.359375 19.40625 46.890625 
Q 22.3125 44.4375 30.421875 42.921875 
L 36.375 41.703125 
Q 47.40625 39.59375 52.65625 34.296875 
Q 57.90625 29 57.90625 20.125 
Q 57.90625 9.515625 50.796875 4.046875 
Q 43.703125 -1.421875 29.984375 -1.421875 
Q 24.8125 -1.421875 18.96875 -0.25 
Q 13.140625 0.921875 6.890625 3.21875 
L 6.890625 13.375 
Q 12.890625 10.015625 18.65625 8.296875 
Q 24.421875 6.59375 29.984375 6.59375 
Q 38.421875 6.59375 43.015625 9.90625 
Q 47.609375 13.234375 47.609375 19.390625 
Q 47.609375 24.75 44.3125 27.78125 
Q 41.015625 30.8125 33.5 32.328125 
L 27.484375 33.5 
Q 16.453125 35.6875 11.515625 40.375 
Q 6.59375 45.0625 6.59375 53.421875 
Q 6.59375 63.09375 13.40625 68.65625 
Q 20.21875 74.21875 32.171875 74.21875 
Q 37.3125 74.21875 42.625 73.28125 
Q 47.953125 72.359375 53.515625 70.515625 
z
" id="DejaVuSans-83"/>
      <path d="M 54.890625 33.015625 
L 54.890625 0 
L 45.90625 0 
L 45.90625 32.71875 
Q 45.90625 40.484375 42.875 44.328125 
Q 39.84375 48.1875 33.796875 48.1875 
Q 26.515625 48.1875 22.3125 43.546875 
Q 18.109375 38.921875 18.109375 30.90625 
L 18.109375 0 
L 9.078125 0 
L 9.078125 75.984375 
L 18.109375 75.984375 
L 18.109375 46.1875 
Q 21.34375 51.125 25.703125 53.5625 
Q 30.078125 56 35.796875 56 
Q 45.21875 56 50.046875 50.171875 
Q 54.890625 44.34375 54.890625 33.015625 
z
" id="DejaVuSans-104"/>
      <path d="M 4.203125 54.6875 
L 13.1875 54.6875 
L 24.421875 12.015625 
L 35.59375 54.6875 
L 46.1875 54.6875 
L 57.421875 12.015625 
L 68.609375 54.6875 
L 77.59375 54.6875 
L 63.28125 0 
L 52.6875 0 
L 40.921875 44.828125 
L 29.109375 0 
L 18.5 0 
z
" id="DejaVuSans-119"/>
      <path d="M 56.203125 29.59375 
L 56.203125 25.203125 
L 14.890625 25.203125 
Q 15.484375 15.921875 20.484375 11.0625 
Q 25.484375 6.203125 34.421875 6.203125 
Q 39.59375 6.203125 44.453125 7.46875 
Q 49.3125 8.734375 54.109375 11.28125 
L 54.109375 2.78125 
Q 49.265625 0.734375 44.1875 -0.34375 
Q 39.109375 -1.421875 33.890625 -1.421875 
Q 20.796875 -1.421875 13.15625 6.1875 
Q 5.515625 13.8125 5.515625 26.8125 
Q 5.515625 40.234375 12.765625 48.109375 
Q 20.015625 56 32.328125 56 
Q 43.359375 56 49.78125 48.890625 
Q 56.203125 41.796875 56.203125 29.59375 
z
M 47.21875 32.234375 
Q 47.125 39.59375 43.09375 43.984375 
Q 39.0625 48.390625 32.421875 48.390625 
Q 24.90625 48.390625 20.390625 44.140625 
Q 15.875 39.890625 15.1875 32.171875 
z
" id="DejaVuSans-101"/>
      <path d="M 44.28125 53.078125 
L 44.28125 44.578125 
Q 40.484375 46.53125 36.375 47.5 
Q 32.28125 48.484375 27.875 48.484375 
Q 21.1875 48.484375 17.84375 46.4375 
Q 14.5 44.390625 14.5 40.28125 
Q 14.5 37.15625 16.890625 35.375 
Q 19.28125 33.59375 26.515625 31.984375 
L 29.59375 31.296875 
Q 39.15625 29.25 43.1875 25.515625 
Q 47.21875 21.78125 47.21875 15.09375 
Q 47.21875 7.46875 41.1875 3.015625 
Q 35.15625 -1.421875 24.609375 -1.421875 
Q 20.21875 -1.421875 15.453125 -0.5625 
Q 10.6875 0.296875 5.421875 2 
L 5.421875 11.28125 
Q 10.40625 8.6875 15.234375 7.390625 
Q 20.0625 6.109375 24.8125 6.109375 
Q 31.15625 6.109375 34.5625 8.28125 
Q 37.984375 10.453125 37.984375 14.40625 
Q 37.984375 18.0625 35.515625 20.015625 
Q 33.0625 21.96875 24.703125 23.78125 
L 21.578125 24.515625 
Q 13.234375 26.265625 9.515625 29.90625 
Q 5.8125 33.546875 5.8125 39.890625 
Q 5.8125 47.609375 11.28125 51.796875 
Q 16.75 56 26.8125 56 
Q 31.78125 56 36.171875 55.265625 
Q 40.578125 54.546875 44.28125 53.078125 
z
" id="DejaVuSans-115"/>
     </defs>
     <g transform="translate(439.194375 94.677188)scale(0.18 -0.18)">
      <use xlink:href="#DejaVuSans-83"/>
      <use x="63.476562" xlink:href="#DejaVuSans-104"/>
      <use x="126.855469" xlink:href="#DejaVuSans-111"/>
      <use x="188.037109" xlink:href="#DejaVuSans-119"/>
      <use x="269.824219" xlink:href="#DejaVuSans-101"/>
      <use x="331.347656" xlink:href="#DejaVuSans-114"/>
      <use x="372.460938" xlink:href="#DejaVuSans-115"/>
     </g>
    </g>
    <g id="line2d_41">
     <path d="M 388.794375 114.797813 
L 424.794375 114.797813 
" style="fill:none;stroke:#ff7f0e;stroke-linecap:square;stroke-width:1.5;"/>
    </g>
    <g id="line2d_42"/>
    <g id="text_13">
     <!-- Tracks -->
     <defs>
      <path d="M -0.296875 72.90625 
L 61.375 72.90625 
L 61.375 64.59375 
L 35.5 64.59375 
L 35.5 0 
L 25.59375 0 
L 25.59375 64.59375 
L -0.296875 64.59375 
z
" id="DejaVuSans-84"/>
      <path d="M 48.78125 52.59375 
L 48.78125 44.1875 
Q 44.96875 46.296875 41.140625 47.34375 
Q 37.3125 48.390625 33.40625 48.390625 
Q 24.65625 48.390625 19.8125 42.84375 
Q 14.984375 37.3125 14.984375 27.296875 
Q 14.984375 17.28125 19.8125 11.734375 
Q 24.65625 6.203125 33.40625 6.203125 
Q 37.3125 6.203125 41.140625 7.25 
Q 44.96875 8.296875 48.78125 10.40625 
L 48.78125 2.09375 
Q 45.015625 0.34375 40.984375 -0.53125 
Q 36.96875 -1.421875 32.421875 -1.421875 
Q 20.0625 -1.421875 12.78125 6.34375 
Q 5.515625 14.109375 5.515625 27.296875 
Q 5.515625 40.671875 12.859375 48.328125 
Q 20.21875 56 33.015625 56 
Q 37.15625 56 41.109375 55.140625 
Q 45.0625 54.296875 48.78125 52.59375 
z
" id="DejaVuSans-99"/>
      <path d="M 9.078125 75.984375 
L 18.109375 75.984375 
L 18.109375 31.109375 
L 44.921875 54.6875 
L 56.390625 54.6875 
L 27.390625 29.109375 
L 57.625 0 
L 45.90625 0 
L 18.109375 26.703125 
L 18.109375 0 
L 9.078125 0 
z
" id="DejaVuSans-107"/>
     </defs>
     <g transform="translate(439.194375 121.097813)scale(0.18 -0.18)">
      <use xlink:href="#DejaVuSans-84"/>
      <use x="60.865234" xlink:href="#DejaVuSans-114"/>
      <use x="101.978516" xlink:href="#DejaVuSans-97"/>
      <use x="163.257812" xlink:href="#DejaVuSans-99"/>
      <use x="218.238281" xlink:href="#DejaVuSans-107"/>
      <use x="276.148438" xlink:href="#DejaVuSans-115"/>
     </g>
    </g>
    <g id="line2d_43">
     <path d="M 388.794375 141.218437 
L 424.794375 141.218437 
" style="fill:none;stroke:#2ca02c;stroke-linecap:square;stroke-width:1.5;"/>
    </g>
    <g id="line2d_44"/>
    <g id="text_14">
     <!-- Protons -->
     <defs>
      <path d="M 19.671875 64.796875 
L 19.671875 37.40625 
L 32.078125 37.40625 
Q 38.96875 37.40625 42.71875 40.96875 
Q 46.484375 44.53125 46.484375 51.125 
Q 46.484375 57.671875 42.71875 61.234375 
Q 38.96875 64.796875 32.078125 64.796875 
z
M 9.8125 72.90625 
L 32.078125 72.90625 
Q 44.34375 72.90625 50.609375 67.359375 
Q 56.890625 61.8125 56.890625 51.125 
Q 56.890625 40.328125 50.609375 34.8125 
Q 44.34375 29.296875 32.078125 29.296875 
L 19.671875 29.296875 
L 19.671875 0 
L 9.8125 0 
z
" id="DejaVuSans-80"/>
     </defs>
     <g transform="translate(439.194375 147.518438)scale(0.18 -0.18)">
      <use xlink:href="#DejaVuSans-80"/>
      <use x="60.287109" xlink:href="#DejaVuSans-114"/>
      <use x="101.369141" xlink:href="#DejaVuSans-111"/>
      <use x="162.550781" xlink:href="#DejaVuSans-116"/>
      <use x="201.759766" xlink:href="#DejaVuSans-111"/>
      <use x="262.941406" xlink:href="#DejaVuSans-110"/>
      <use x="326.320312" xlink:href="#DejaVuSans-115"/>
     </g>
    </g>
    <g id="line2d_45">
     <path d="M 388.794375 167.639062 
L 424.794375 167.639062 
" style="fill:none;stroke:#d62728;stroke-linecap:square;stroke-width:1.5;"/>
    </g>
    <g id="line2d_46"/>
    <g id="text_15">
     <!-- Muons -->
     <defs>
      <path d="M 9.8125 72.90625 
L 24.515625 72.90625 
L 43.109375 23.296875 
L 61.8125 72.90625 
L 76.515625 72.90625 
L 76.515625 0 
L 66.890625 0 
L 66.890625 64.015625 
L 48.09375 14.015625 
L 38.1875 14.015625 
L 19.390625 64.015625 
L 19.390625 0 
L 9.8125 0 
z
" id="DejaVuSans-77"/>
     </defs>
     <g transform="translate(439.194375 173.939062)scale(0.18 -0.18)">
      <use xlink:href="#DejaVuSans-77"/>
      <use x="86.279297" xlink:href="#DejaVuSans-117"/>
      <use x="149.658203" xlink:href="#DejaVuSans-111"/>
      <use x="210.839844" xlink:href="#DejaVuSans-110"/>
      <use x="274.21875" xlink:href="#DejaVuSans-115"/>
     </g>
    </g>
    <g id="line2d_47">
     <path d="M 388.794375 194.059687 
L 424.794375 194.059687 
" style="fill:none;stroke:#9467bd;stroke-linecap:square;stroke-width:1.5;"/>
    </g>
    <g id="line2d_48"/>
    <g id="text_16">
     <!-- Electrons + Positrons -->
     <defs>
      <path d="M 9.8125 72.90625 
L 55.90625 72.90625 
L 55.90625 64.59375 
L 19.671875 64.59375 
L 19.671875 43.015625 
L 54.390625 43.015625 
L 54.390625 34.71875 
L 19.671875 34.71875 
L 19.671875 8.296875 
L 56.78125 8.296875 
L 56.78125 0 
L 9.8125 0 
z
" id="DejaVuSans-69"/>
      <path d="M 9.421875 75.984375 
L 18.40625 75.984375 
L 18.40625 0 
L 9.421875 0 
z
" id="DejaVuSans-108"/>
      <path id="DejaVuSans-32"/>
      <path d="M 46 62.703125 
L 46 35.5 
L 73.1875 35.5 
L 73.1875 27.203125 
L 46 27.203125 
L 46 0 
L 37.796875 0 
L 37.796875 27.203125 
L 10.59375 27.203125 
L 10.59375 35.5 
L 37.796875 35.5 
L 37.796875 62.703125 
z
" id="DejaVuSans-43"/>
      <path d="M 9.421875 54.6875 
L 18.40625 54.6875 
L 18.40625 0 
L 9.421875 0 
z
M 9.421875 75.984375 
L 18.40625 75.984375 
L 18.40625 64.59375 
L 9.421875 64.59375 
z
" id="DejaVuSans-105"/>
     </defs>
     <g transform="translate(439.194375 200.359688)scale(0.18 -0.18)">
      <use xlink:href="#DejaVuSans-69"/>
      <use x="63.183594" xlink:href="#DejaVuSans-108"/>
      <use x="90.966797" xlink:href="#DejaVuSans-101"/>
      <use x="152.490234" xlink:href="#DejaVuSans-99"/>
      <use x="207.470703" xlink:href="#DejaVuSans-116"/>
      <use x="246.679688" xlink:href="#DejaVuSans-114"/>
      <use x="287.761719" xlink:href="#DejaVuSans-111"/>
      <use x="348.943359" xlink:href="#DejaVuSans-110"/>
      <use x="412.322266" xlink:href="#DejaVuSans-115"/>
      <use x="464.421875" xlink:href="#DejaVuSans-32"/>
      <use x="496.208984" xlink:href="#DejaVuSans-43"/>
      <use x="579.998047" xlink:href="#DejaVuSans-32"/>
      <use x="611.785156" xlink:href="#DejaVuSans-80"/>
      <use x="672.041016" xlink:href="#DejaVuSans-111"/>
      <use x="733.222656" xlink:href="#DejaVuSans-115"/>
      <use x="785.322266" xlink:href="#DejaVuSans-105"/>
      <use x="813.105469" xlink:href="#DejaVuSans-116"/>
      <use x="852.314453" xlink:href="#DejaVuSans-114"/>
      <use x="893.396484" xlink:href="#DejaVuSans-111"/>
      <use x="954.578125" xlink:href="#DejaVuSans-110"/>
      <use x="1017.957031" xlink:href="#DejaVuSans-115"/>
     </g>
    </g>
    <g id="line2d_49">
     <path d="M 388.794375 220.480312 
L 424.794375 220.480312 
" style="fill:none;stroke:#8c564b;stroke-linecap:square;stroke-width:1.5;"/>
    </g>
    <g id="line2d_50"/>
    <g id="text_17">
     <!-- Photons -->
     <g transform="translate(439.194375 226.780312)scale(0.18 -0.18)">
      <use xlink:href="#DejaVuSans-80"/>
      <use x="60.302734" xlink:href="#DejaVuSans-104"/>
      <use x="123.681641" xlink:href="#DejaVuSans-111"/>
      <use x="184.863281" xlink:href="#DejaVuSans-116"/>
      <use x="224.072266" xlink:href="#DejaVuSans-111"/>
      <use x="285.253906" xlink:href="#DejaVuSans-110"/>
      <use x="348.632812" xlink:href="#DejaVuSans-115"/>
     </g>
    </g>
    <g id="line2d_51">
     <path d="M 388.794375 246.900937 
L 424.794375 246.900937 
" style="fill:none;stroke:#e377c2;stroke-linecap:square;stroke-width:1.5;"/>
    </g>
    <g id="line2d_52"/>
    <g id="text_18">
     <!-- Charged Pions -->
     <defs>
      <path d="M 45.40625 27.984375 
Q 45.40625 37.75 41.375 43.109375 
Q 37.359375 48.484375 30.078125 48.484375 
Q 22.859375 48.484375 18.828125 43.109375 
Q 14.796875 37.75 14.796875 27.984375 
Q 14.796875 18.265625 18.828125 12.890625 
Q 22.859375 7.515625 30.078125 7.515625 
Q 37.359375 7.515625 41.375 12.890625 
Q 45.40625 18.265625 45.40625 27.984375 
z
M 54.390625 6.78125 
Q 54.390625 -7.171875 48.1875 -13.984375 
Q 42 -20.796875 29.203125 -20.796875 
Q 24.46875 -20.796875 20.265625 -20.09375 
Q 16.0625 -19.390625 12.109375 -17.921875 
L 12.109375 -9.1875 
Q 16.0625 -11.328125 19.921875 -12.34375 
Q 23.78125 -13.375 27.78125 -13.375 
Q 36.625 -13.375 41.015625 -8.765625 
Q 45.40625 -4.15625 45.40625 5.171875 
L 45.40625 9.625 
Q 42.625 4.78125 38.28125 2.390625 
Q 33.9375 0 27.875 0 
Q 17.828125 0 11.671875 7.65625 
Q 5.515625 15.328125 5.515625 27.984375 
Q 5.515625 40.671875 11.671875 48.328125 
Q 17.828125 56 27.875 56 
Q 33.9375 56 38.28125 53.609375 
Q 42.625 51.21875 45.40625 46.390625 
L 45.40625 54.6875 
L 54.390625 54.6875 
z
" id="DejaVuSans-103"/>
     </defs>
     <g transform="translate(439.194375 253.200938)scale(0.18 -0.18)">
      <use xlink:href="#DejaVuSans-67"/>
      <use x="69.824219" xlink:href="#DejaVuSans-104"/>
      <use x="133.203125" xlink:href="#DejaVuSans-97"/>
      <use x="194.482422" xlink:href="#DejaVuSans-114"/>
      <use x="235.580078" xlink:href="#DejaVuSans-103"/>
      <use x="299.056641" xlink:href="#DejaVuSans-101"/>
      <use x="360.580078" xlink:href="#DejaVuSans-100"/>
      <use x="424.056641" xlink:href="#DejaVuSans-32"/>
      <use x="455.84375" xlink:href="#DejaVuSans-80"/>
      <use x="516.115234" xlink:href="#DejaVuSans-105"/>
      <use x="543.898438" xlink:href="#DejaVuSans-111"/>
      <use x="605.080078" xlink:href="#DejaVuSans-110"/>
      <use x="668.458984" xlink:href="#DejaVuSans-115"/>
     </g>
    </g>
   </g>
  </g>
 </g>
 <defs>
  <clipPath id="pdba88c9baf">
   <rect height="415.8" width="558" x="90" y="64.8"/>
  </clipPath>
 </defs>
</svg>
