<?xml version="1.0" encoding="utf-8" standalone="no"?>
<!DOCTYPE svg PUBLIC "-//W3C//DTD SVG 1.1//EN"
  "http://www.w3.org/Graphics/SVG/1.1/DTD/svg11.dtd">
<!-- Created with matplotlib (https://matplotlib.org/) -->
<svg height="540pt" version="1.1" viewBox="0 0 720 540" width="720pt" xmlns="http://www.w3.org/2000/svg" xmlns:xlink="http://www.w3.org/1999/xlink">
 <defs>
  <style type="text/css">
*{stroke-linecap:butt;stroke-linejoin:round;}
  </style>
 </defs>
 <g id="figure_1">
  <g id="patch_1">
   <path d="M 0 540 
L 720 540 
L 720 0 
L 0 0 
z
" style="fill:#ffffff;"/>
  </g>
  <g id="axes_1">
   <g id="patch_2">
    <path d="M 90 480.6 
L 648 480.6 
L 648 64.8 
L 90 64.8 
z
" style="fill:#ffffff;"/>
   </g>
   <g id="patch_3">
    <path clip-path="url(#p68411feb8c)" d="M 90 173151.170716 
L 90 268.648021 
L 101.387755 268.648021 
L 101.387755 255.473034 
L 112.77551 255.473034 
L 112.77551 240.07136 
L 124.163265 240.07136 
L 124.163265 237.551717 
L 135.55102 237.551717 
L 135.55102 234.404471 
L 146.938776 234.404471 
L 146.938776 236.620024 
L 158.326531 236.620024 
L 158.326531 240.002135 
L 169.714286 240.002135 
L 169.714286 235.699784 
L 181.102041 235.699784 
L 181.102041 233.384118 
L 192.489796 233.384118 
L 192.489796 231.941304 
L 203.877551 231.941304 
L 203.877551 233.510905 
L 215.265306 233.510905 
L 215.265306 230.892467 
L 226.653061 230.892467 
L 226.653061 236.68619 
L 238.040816 236.68619 
L 238.040816 227.949054 
L 249.428571 227.949054 
L 249.428571 234.34029 
L 260.816327 234.34029 
L 260.816327 236.818699 
L 272.204082 236.818699 
L 272.204082 232.065668 
L 283.591837 232.065668 
L 283.591837 237.284334 
L 294.979592 237.284334 
L 294.979592 238.766901 
L 306.367347 238.766901 
L 306.367347 238.021948 
L 317.755102 238.021948 
L 317.755102 235.765141 
L 329.142857 235.765141 
L 329.142857 239.381971 
L 340.530612 239.381971 
L 340.530612 237.618712 
L 351.918367 237.618712 
L 351.918367 236.027144 
L 363.306122 236.027144 
L 363.306122 230.953759 
L 374.693878 230.953759 
L 374.693878 234.212093 
L 386.081633 234.212093 
L 386.081633 235.896028 
L 397.469388 235.896028 
L 397.469388 238.156843 
L 408.857143 238.156843 
L 408.857143 239.932974 
L 420.244898 239.932974 
L 420.244898 235.049326 
L 431.632653 235.049326 
L 431.632653 237.954591 
L 443.020408 237.954591 
L 443.020408 235.634483 
L 454.408163 235.634483 
L 454.408163 240.002135 
L 465.795918 240.002135 
L 465.795918 241.117496 
L 477.183673 241.117496 
L 477.183673 242.75051 
L 488.571429 242.75051 
L 488.571429 240.07136 
L 499.959184 240.07136 
L 499.959184 241.328488 
L 511.346939 241.328488 
L 511.346939 243.47178 
L 522.734694 243.47178 
L 522.734694 240.14065 
L 534.122449 240.14065 
L 534.122449 244.493375 
L 545.510204 244.493375 
L 545.510204 243.110276 
L 556.897959 243.110276 
L 556.897959 243.47178 
L 568.285714 243.47178 
L 568.285714 248.337428 
L 579.673469 248.337428 
L 579.673469 253.541412 
L 591.061224 253.541412 
L 591.061224 250.934239 
L 602.44898 250.934239 
L 602.44898 263.45567 
L 613.836735 263.45567 
L 613.836735 269.156978 
L 625.22449 269.156978 
L 625.22449 296.903439 
L 636.612245 296.903439 
L 636.612245 374.701757 
L 648 374.701757 
L 648 173151.170716 
z
" style="fill:#1f77b4;opacity:0.2;"/>
   </g>
   <g id="patch_4">
    <path clip-path="url(#p68411feb8c)" d="M 90 173151.170716 
L 90 83.7 
L 101.387755 83.7 
L 101.387755 103.463524 
L 112.77551 103.463524 
L 112.77551 94.793265 
L 124.163265 94.793265 
L 124.163265 124.737603 
L 135.55102 124.737603 
L 135.55102 124.205264 
L 146.938776 124.205264 
L 146.938776 119.521861 
L 158.326531 119.521861 
L 158.326531 119.025228 
L 169.714286 119.025228 
L 169.714286 122.112973 
L 181.102041 122.112973 
L 181.102041 123.224489 
L 192.489796 123.224489 
L 192.489796 120.203172 
L 203.877551 120.203172 
L 203.877551 120.763978 
L 215.265306 120.763978 
L 215.265306 120.567217 
L 226.653061 120.567217 
L 226.653061 119.107772 
L 238.040816 119.107772 
L 238.040816 121.998431 
L 249.428571 121.998431 
L 249.428571 126.585528 
L 260.816327 126.585528 
L 260.816327 122.313843 
L 272.204082 122.313843 
L 272.204082 124.411835 
L 283.591837 124.411835 
L 283.591837 123.384633 
L 294.979592 123.384633 
L 294.979592 125.199059 
L 306.367347 125.199059 
L 306.367347 125.020093 
L 317.755102 125.020093 
L 317.755102 123.268131 
L 329.142857 123.268131 
L 329.142857 126.646396 
L 340.530612 126.646396 
L 340.530612 125.843888 
L 351.918367 125.843888 
L 351.918367 126.130591 
L 363.306122 126.130591 
L 363.306122 125.603302 
L 374.693878 125.603302 
L 374.693878 127.104487 
L 386.081633 127.104487 
L 386.081633 127.349954 
L 397.469388 127.349954 
L 397.469388 126.982055 
L 408.857143 126.982055 
L 408.857143 127.303867 
L 420.244898 127.303867 
L 420.244898 128.277688 
L 431.632653 128.277688 
L 431.632653 128.433434 
L 443.020408 128.433434 
L 443.020408 130.793273 
L 454.408163 130.793273 
L 454.408163 129.406361 
L 465.795918 129.406361 
L 465.795918 130.745018 
L 477.183673 130.745018 
L 477.183673 130.632544 
L 488.571429 130.632544 
L 488.571429 128.620758 
L 499.959184 128.620758 
L 499.959184 130.488183 
L 511.346939 130.488183 
L 511.346939 131.846503 
L 522.734694 131.846503 
L 522.734694 132.765936 
L 534.122449 132.765936 
L 534.122449 132.239164 
L 545.510204 132.239164 
L 545.510204 132.452718 
L 556.897959 132.452718 
L 556.897959 131.277538 
L 568.285714 131.277538 
L 568.285714 136.647867 
L 579.673469 136.647867 
L 579.673469 136.578304 
L 591.061224 136.578304 
L 591.061224 141.666666 
L 602.44898 141.666666 
L 602.44898 144.433524 
L 613.836735 144.433524 
L 613.836735 152.454684 
L 625.22449 152.454684 
L 625.22449 167.96701 
L 636.612245 167.96701 
L 636.612245 212.514202 
L 648 212.514202 
L 648 173151.170716 
z
" style="fill:#ff7f0e;opacity:0.2;"/>
   </g>
   <g id="matplotlib.axis_1">
    <g id="xtick_1">
     <g id="line2d_1">
      <defs>
       <path d="M 0 0 
L 0 3.5 
" id="m345a791099" style="stroke:#000000;stroke-width:0.8;"/>
      </defs>
      <g>
       <use style="stroke:#000000;stroke-width:0.8;" x="129.515021" xlink:href="#m345a791099" y="480.6"/>
      </g>
     </g>
     <g id="text_1">
      <!-- −100 -->
      <defs>
       <path d="M 10.59375 35.5 
L 73.1875 35.5 
L 73.1875 27.203125 
L 10.59375 27.203125 
z
" id="DejaVuSans-8722"/>
       <path d="M 12.40625 8.296875 
L 28.515625 8.296875 
L 28.515625 63.921875 
L 10.984375 60.40625 
L 10.984375 69.390625 
L 28.421875 72.90625 
L 38.28125 72.90625 
L 38.28125 8.296875 
L 54.390625 8.296875 
L 54.390625 0 
L 12.40625 0 
z
" id="DejaVuSans-49"/>
       <path d="M 31.78125 66.40625 
Q 24.171875 66.40625 20.328125 58.90625 
Q 16.5 51.421875 16.5 36.375 
Q 16.5 21.390625 20.328125 13.890625 
Q 24.171875 6.390625 31.78125 6.390625 
Q 39.453125 6.390625 43.28125 13.890625 
Q 47.125 21.390625 47.125 36.375 
Q 47.125 51.421875 43.28125 58.90625 
Q 39.453125 66.40625 31.78125 66.40625 
z
M 31.78125 74.21875 
Q 44.046875 74.21875 50.515625 64.515625 
Q 56.984375 54.828125 56.984375 36.375 
Q 56.984375 17.96875 50.515625 8.265625 
Q 44.046875 -1.421875 31.78125 -1.421875 
Q 19.53125 -1.421875 13.0625 8.265625 
Q 6.59375 17.96875 6.59375 36.375 
Q 6.59375 54.828125 13.0625 64.515625 
Q 19.53125 74.21875 31.78125 74.21875 
z
" id="DejaVuSans-48"/>
      </defs>
      <g transform="translate(93.917546 507.29515)scale(0.2592 -0.2592)">
       <use xlink:href="#DejaVuSans-8722"/>
       <use x="83.789062" xlink:href="#DejaVuSans-49"/>
       <use x="147.412109" xlink:href="#DejaVuSans-48"/>
       <use x="211.035156" xlink:href="#DejaVuSans-48"/>
      </g>
     </g>
    </g>
    <g id="xtick_2">
     <g id="line2d_2">
      <g>
       <use style="stroke:#000000;stroke-width:0.8;" x="249.257511" xlink:href="#m345a791099" y="480.6"/>
      </g>
     </g>
     <g id="text_2">
      <!-- −50 -->
      <defs>
       <path d="M 10.796875 72.90625 
L 49.515625 72.90625 
L 49.515625 64.59375 
L 19.828125 64.59375 
L 19.828125 46.734375 
Q 21.96875 47.46875 24.109375 47.828125 
Q 26.265625 48.1875 28.421875 48.1875 
Q 40.625 48.1875 47.75 41.5 
Q 54.890625 34.8125 54.890625 23.390625 
Q 54.890625 11.625 47.5625 5.09375 
Q 40.234375 -1.421875 26.90625 -1.421875 
Q 22.3125 -1.421875 17.546875 -0.640625 
Q 12.796875 0.140625 7.71875 1.703125 
L 7.71875 11.625 
Q 12.109375 9.234375 16.796875 8.0625 
Q 21.484375 6.890625 26.703125 6.890625 
Q 35.15625 6.890625 40.078125 11.328125 
Q 45.015625 15.765625 45.015625 23.390625 
Q 45.015625 31 40.078125 35.4375 
Q 35.15625 39.890625 26.703125 39.890625 
Q 22.75 39.890625 18.8125 39.015625 
Q 14.890625 38.140625 10.796875 36.28125 
z
" id="DejaVuSans-53"/>
      </defs>
      <g transform="translate(221.905836 507.29515)scale(0.2592 -0.2592)">
       <use xlink:href="#DejaVuSans-8722"/>
       <use x="83.789062" xlink:href="#DejaVuSans-53"/>
       <use x="147.412109" xlink:href="#DejaVuSans-48"/>
      </g>
     </g>
    </g>
    <g id="xtick_3">
     <g id="line2d_3">
      <g>
       <use style="stroke:#000000;stroke-width:0.8;" x="369" xlink:href="#m345a791099" y="480.6"/>
      </g>
     </g>
     <g id="text_3">
      <!-- 0 -->
      <g transform="translate(360.7542 507.29515)scale(0.2592 -0.2592)">
       <use xlink:href="#DejaVuSans-48"/>
      </g>
     </g>
    </g>
    <g id="xtick_4">
     <g id="line2d_4">
      <g>
       <use style="stroke:#000000;stroke-width:0.8;" x="488.742489" xlink:href="#m345a791099" y="480.6"/>
      </g>
     </g>
     <g id="text_4">
      <!-- 50 -->
      <g transform="translate(472.250889 507.29515)scale(0.2592 -0.2592)">
       <use xlink:href="#DejaVuSans-53"/>
       <use x="63.623047" xlink:href="#DejaVuSans-48"/>
      </g>
     </g>
    </g>
    <g id="xtick_5">
     <g id="line2d_5">
      <g>
       <use style="stroke:#000000;stroke-width:0.8;" x="608.484979" xlink:href="#m345a791099" y="480.6"/>
      </g>
     </g>
     <g id="text_5">
      <!-- 100 -->
      <g transform="translate(583.747579 507.29515)scale(0.2592 -0.2592)">
       <use xlink:href="#DejaVuSans-49"/>
       <use x="63.623047" xlink:href="#DejaVuSans-48"/>
       <use x="127.246094" xlink:href="#DejaVuSans-48"/>
      </g>
     </g>
    </g>
    <g id="text_6">
     <!-- minCoordY3D -->
     <defs>
      <path d="M 52 44.1875 
Q 55.375 50.25 60.0625 53.125 
Q 64.75 56 71.09375 56 
Q 79.640625 56 84.28125 50.015625 
Q 88.921875 44.046875 88.921875 33.015625 
L 88.921875 0 
L 79.890625 0 
L 79.890625 32.71875 
Q 79.890625 40.578125 77.09375 44.375 
Q 74.3125 48.1875 68.609375 48.1875 
Q 61.625 48.1875 57.5625 43.546875 
Q 53.515625 38.921875 53.515625 30.90625 
L 53.515625 0 
L 44.484375 0 
L 44.484375 32.71875 
Q 44.484375 40.625 41.703125 44.40625 
Q 38.921875 48.1875 33.109375 48.1875 
Q 26.21875 48.1875 22.15625 43.53125 
Q 18.109375 38.875 18.109375 30.90625 
L 18.109375 0 
L 9.078125 0 
L 9.078125 54.6875 
L 18.109375 54.6875 
L 18.109375 46.1875 
Q 21.1875 51.21875 25.484375 53.609375 
Q 29.78125 56 35.6875 56 
Q 41.65625 56 45.828125 52.96875 
Q 50 49.953125 52 44.1875 
z
" id="DejaVuSans-109"/>
      <path d="M 9.421875 54.6875 
L 18.40625 54.6875 
L 18.40625 0 
L 9.421875 0 
z
M 9.421875 75.984375 
L 18.40625 75.984375 
L 18.40625 64.59375 
L 9.421875 64.59375 
z
" id="DejaVuSans-105"/>
      <path d="M 54.890625 33.015625 
L 54.890625 0 
L 45.90625 0 
L 45.90625 32.71875 
Q 45.90625 40.484375 42.875 44.328125 
Q 39.84375 48.1875 33.796875 48.1875 
Q 26.515625 48.1875 22.3125 43.546875 
Q 18.109375 38.921875 18.109375 30.90625 
L 18.109375 0 
L 9.078125 0 
L 9.078125 54.6875 
L 18.109375 54.6875 
L 18.109375 46.1875 
Q 21.34375 51.125 25.703125 53.5625 
Q 30.078125 56 35.796875 56 
Q 45.21875 56 50.046875 50.171875 
Q 54.890625 44.34375 54.890625 33.015625 
z
" id="DejaVuSans-110"/>
      <path d="M 64.40625 67.28125 
L 64.40625 56.890625 
Q 59.421875 61.53125 53.78125 63.8125 
Q 48.140625 66.109375 41.796875 66.109375 
Q 29.296875 66.109375 22.65625 58.46875 
Q 16.015625 50.828125 16.015625 36.375 
Q 16.015625 21.96875 22.65625 14.328125 
Q 29.296875 6.6875 41.796875 6.6875 
Q 48.140625 6.6875 53.78125 8.984375 
Q 59.421875 11.28125 64.40625 15.921875 
L 64.40625 5.609375 
Q 59.234375 2.09375 53.4375 0.328125 
Q 47.65625 -1.421875 41.21875 -1.421875 
Q 24.65625 -1.421875 15.125 8.703125 
Q 5.609375 18.84375 5.609375 36.375 
Q 5.609375 53.953125 15.125 64.078125 
Q 24.65625 74.21875 41.21875 74.21875 
Q 47.75 74.21875 53.53125 72.484375 
Q 59.328125 70.75 64.40625 67.28125 
z
" id="DejaVuSans-67"/>
      <path d="M 30.609375 48.390625 
Q 23.390625 48.390625 19.1875 42.75 
Q 14.984375 37.109375 14.984375 27.296875 
Q 14.984375 17.484375 19.15625 11.84375 
Q 23.34375 6.203125 30.609375 6.203125 
Q 37.796875 6.203125 41.984375 11.859375 
Q 46.1875 17.53125 46.1875 27.296875 
Q 46.1875 37.015625 41.984375 42.703125 
Q 37.796875 48.390625 30.609375 48.390625 
z
M 30.609375 56 
Q 42.328125 56 49.015625 48.375 
Q 55.71875 40.765625 55.71875 27.296875 
Q 55.71875 13.875 49.015625 6.21875 
Q 42.328125 -1.421875 30.609375 -1.421875 
Q 18.84375 -1.421875 12.171875 6.21875 
Q 5.515625 13.875 5.515625 27.296875 
Q 5.515625 40.765625 12.171875 48.375 
Q 18.84375 56 30.609375 56 
z
" id="DejaVuSans-111"/>
      <path d="M 41.109375 46.296875 
Q 39.59375 47.171875 37.8125 47.578125 
Q 36.03125 48 33.890625 48 
Q 26.265625 48 22.1875 43.046875 
Q 18.109375 38.09375 18.109375 28.8125 
L 18.109375 0 
L 9.078125 0 
L 9.078125 54.6875 
L 18.109375 54.6875 
L 18.109375 46.1875 
Q 20.953125 51.171875 25.484375 53.578125 
Q 30.03125 56 36.53125 56 
Q 37.453125 56 38.578125 55.875 
Q 39.703125 55.765625 41.0625 55.515625 
z
" id="DejaVuSans-114"/>
      <path d="M 45.40625 46.390625 
L 45.40625 75.984375 
L 54.390625 75.984375 
L 54.390625 0 
L 45.40625 0 
L 45.40625 8.203125 
Q 42.578125 3.328125 38.25 0.953125 
Q 33.9375 -1.421875 27.875 -1.421875 
Q 17.96875 -1.421875 11.734375 6.484375 
Q 5.515625 14.40625 5.515625 27.296875 
Q 5.515625 40.1875 11.734375 48.09375 
Q 17.96875 56 27.875 56 
Q 33.9375 56 38.25 53.625 
Q 42.578125 51.265625 45.40625 46.390625 
z
M 14.796875 27.296875 
Q 14.796875 17.390625 18.875 11.75 
Q 22.953125 6.109375 30.078125 6.109375 
Q 37.203125 6.109375 41.296875 11.75 
Q 45.40625 17.390625 45.40625 27.296875 
Q 45.40625 37.203125 41.296875 42.84375 
Q 37.203125 48.484375 30.078125 48.484375 
Q 22.953125 48.484375 18.875 42.84375 
Q 14.796875 37.203125 14.796875 27.296875 
z
" id="DejaVuSans-100"/>
      <path d="M -0.203125 72.90625 
L 10.40625 72.90625 
L 30.609375 42.921875 
L 50.6875 72.90625 
L 61.28125 72.90625 
L 35.5 34.71875 
L 35.5 0 
L 25.59375 0 
L 25.59375 34.71875 
z
" id="DejaVuSans-89"/>
      <path d="M 40.578125 39.3125 
Q 47.65625 37.796875 51.625 33 
Q 55.609375 28.21875 55.609375 21.1875 
Q 55.609375 10.40625 48.1875 4.484375 
Q 40.765625 -1.421875 27.09375 -1.421875 
Q 22.515625 -1.421875 17.65625 -0.515625 
Q 12.796875 0.390625 7.625 2.203125 
L 7.625 11.71875 
Q 11.71875 9.328125 16.59375 8.109375 
Q 21.484375 6.890625 26.8125 6.890625 
Q 36.078125 6.890625 40.9375 10.546875 
Q 45.796875 14.203125 45.796875 21.1875 
Q 45.796875 27.640625 41.28125 31.265625 
Q 36.765625 34.90625 28.71875 34.90625 
L 20.21875 34.90625 
L 20.21875 43.015625 
L 29.109375 43.015625 
Q 36.375 43.015625 40.234375 45.921875 
Q 44.09375 48.828125 44.09375 54.296875 
Q 44.09375 59.90625 40.109375 62.90625 
Q 36.140625 65.921875 28.71875 65.921875 
Q 24.65625 65.921875 20.015625 65.03125 
Q 15.375 64.15625 9.8125 62.3125 
L 9.8125 71.09375 
Q 15.4375 72.65625 20.34375 73.4375 
Q 25.25 74.21875 29.59375 74.21875 
Q 40.828125 74.21875 47.359375 69.109375 
Q 53.90625 64.015625 53.90625 55.328125 
Q 53.90625 49.265625 50.4375 45.09375 
Q 46.96875 40.921875 40.578125 39.3125 
z
" id="DejaVuSans-51"/>
      <path d="M 19.671875 64.796875 
L 19.671875 8.109375 
L 31.59375 8.109375 
Q 46.6875 8.109375 53.6875 14.9375 
Q 60.6875 21.78125 60.6875 36.53125 
Q 60.6875 51.171875 53.6875 57.984375 
Q 46.6875 64.796875 31.59375 64.796875 
z
M 9.8125 72.90625 
L 30.078125 72.90625 
Q 51.265625 72.90625 61.171875 64.09375 
Q 71.09375 55.28125 71.09375 36.53125 
Q 71.09375 17.671875 61.125 8.828125 
Q 51.171875 0 30.078125 0 
L 9.8125 0 
z
" id="DejaVuSans-68"/>
     </defs>
     <g transform="translate(279.958725 536.38085)scale(0.2592 -0.2592)">
      <use xlink:href="#DejaVuSans-109"/>
      <use x="97.412109" xlink:href="#DejaVuSans-105"/>
      <use x="125.195312" xlink:href="#DejaVuSans-110"/>
      <use x="188.574219" xlink:href="#DejaVuSans-67"/>
      <use x="258.398438" xlink:href="#DejaVuSans-111"/>
      <use x="319.580078" xlink:href="#DejaVuSans-111"/>
      <use x="380.761719" xlink:href="#DejaVuSans-114"/>
      <use x="421.859375" xlink:href="#DejaVuSans-100"/>
      <use x="485.335938" xlink:href="#DejaVuSans-89"/>
      <use x="546.419922" xlink:href="#DejaVuSans-51"/>
      <use x="610.042969" xlink:href="#DejaVuSans-68"/>
     </g>
    </g>
   </g>
   <g id="matplotlib.axis_2">
    <g id="ytick_1">
     <g id="line2d_6">
      <defs>
       <path d="M 0 0 
L -3.5 0 
" id="m4a912f48ad" style="stroke:#000000;stroke-width:0.8;"/>
      </defs>
      <g>
       <use style="stroke:#000000;stroke-width:0.8;" x="90" xlink:href="#m4a912f48ad" y="418.290611"/>
      </g>
     </g>
     <g id="text_7">
      <!-- $\mathdefault{10^{2}}$ -->
      <defs>
       <path d="M 19.1875 8.296875 
L 53.609375 8.296875 
L 53.609375 0 
L 7.328125 0 
L 7.328125 8.296875 
Q 12.9375 14.109375 22.625 23.890625 
Q 32.328125 33.6875 34.8125 36.53125 
Q 39.546875 41.84375 41.421875 45.53125 
Q 43.3125 49.21875 43.3125 52.78125 
Q 43.3125 58.59375 39.234375 62.25 
Q 35.15625 65.921875 28.609375 65.921875 
Q 23.96875 65.921875 18.8125 64.3125 
Q 13.671875 62.703125 7.8125 59.421875 
L 7.8125 69.390625 
Q 13.765625 71.78125 18.9375 73 
Q 24.125 74.21875 28.421875 74.21875 
Q 39.75 74.21875 46.484375 68.546875 
Q 53.21875 62.890625 53.21875 53.421875 
Q 53.21875 48.921875 51.53125 44.890625 
Q 49.859375 40.875 45.40625 35.40625 
Q 44.1875 33.984375 37.640625 27.21875 
Q 31.109375 20.453125 19.1875 8.296875 
z
" id="DejaVuSans-50"/>
      </defs>
      <g transform="translate(37.3808 428.138186)scale(0.2592 -0.2592)">
       <use transform="translate(0 0.765625)" xlink:href="#DejaVuSans-49"/>
       <use transform="translate(63.623047 0.765625)" xlink:href="#DejaVuSans-48"/>
       <use transform="translate(128.203125 39.046875)scale(0.7)" xlink:href="#DejaVuSans-50"/>
      </g>
     </g>
    </g>
    <g id="ytick_2">
     <g id="line2d_7">
      <g>
       <use style="stroke:#000000;stroke-width:0.8;" x="90" xlink:href="#m4a912f48ad" y="245.902508"/>
      </g>
     </g>
     <g id="text_8">
      <!-- $\mathdefault{10^{3}}$ -->
      <g transform="translate(37.3808 255.750083)scale(0.2592 -0.2592)">
       <use transform="translate(0 0.765625)" xlink:href="#DejaVuSans-49"/>
       <use transform="translate(63.623047 0.765625)" xlink:href="#DejaVuSans-48"/>
       <use transform="translate(128.203125 39.046875)scale(0.7)" xlink:href="#DejaVuSans-51"/>
      </g>
     </g>
    </g>
    <g id="ytick_3">
     <g id="line2d_8">
      <g>
       <use style="stroke:#000000;stroke-width:0.8;" x="90" xlink:href="#m4a912f48ad" y="73.514404"/>
      </g>
     </g>
     <g id="text_9">
      <!-- $\mathdefault{10^{4}}$ -->
      <defs>
       <path d="M 37.796875 64.3125 
L 12.890625 25.390625 
L 37.796875 25.390625 
z
M 35.203125 72.90625 
L 47.609375 72.90625 
L 47.609375 25.390625 
L 58.015625 25.390625 
L 58.015625 17.1875 
L 47.609375 17.1875 
L 47.609375 0 
L 37.796875 0 
L 37.796875 17.1875 
L 4.890625 17.1875 
L 4.890625 26.703125 
z
" id="DejaVuSans-52"/>
      </defs>
      <g transform="translate(37.3808 83.361979)scale(0.2592 -0.2592)">
       <use transform="translate(0 0.684375)" xlink:href="#DejaVuSans-49"/>
       <use transform="translate(63.623047 0.684375)" xlink:href="#DejaVuSans-48"/>
       <use transform="translate(128.203125 38.965625)scale(0.7)" xlink:href="#DejaVuSans-52"/>
      </g>
     </g>
    </g>
    <g id="ytick_4">
     <g id="line2d_9">
      <defs>
       <path d="M 0 0 
L -2 0 
" id="m2d9fe0a62b" style="stroke:#000000;stroke-width:0.6;"/>
      </defs>
      <g>
       <use style="stroke:#000000;stroke-width:0.6;" x="90" xlink:href="#m2d9fe0a62b" y="470.184602"/>
      </g>
     </g>
    </g>
    <g id="ytick_5">
     <g id="line2d_10">
      <g>
       <use style="stroke:#000000;stroke-width:0.6;" x="90" xlink:href="#m2d9fe0a62b" y="456.534697"/>
      </g>
     </g>
    </g>
    <g id="ytick_6">
     <g id="line2d_11">
      <g>
       <use style="stroke:#000000;stroke-width:0.6;" x="90" xlink:href="#m2d9fe0a62b" y="444.993867"/>
      </g>
     </g>
    </g>
    <g id="ytick_7">
     <g id="line2d_12">
      <g>
       <use style="stroke:#000000;stroke-width:0.6;" x="90" xlink:href="#m2d9fe0a62b" y="434.996745"/>
      </g>
     </g>
    </g>
    <g id="ytick_8">
     <g id="line2d_13">
      <g>
       <use style="stroke:#000000;stroke-width:0.6;" x="90" xlink:href="#m2d9fe0a62b" y="426.178658"/>
      </g>
     </g>
    </g>
    <g id="ytick_9">
     <g id="line2d_14">
      <g>
       <use style="stroke:#000000;stroke-width:0.6;" x="90" xlink:href="#m2d9fe0a62b" y="366.396621"/>
      </g>
     </g>
    </g>
    <g id="ytick_10">
     <g id="line2d_15">
      <g>
       <use style="stroke:#000000;stroke-width:0.6;" x="90" xlink:href="#m2d9fe0a62b" y="336.040583"/>
      </g>
     </g>
    </g>
    <g id="ytick_11">
     <g id="line2d_16">
      <g>
       <use style="stroke:#000000;stroke-width:0.6;" x="90" xlink:href="#m2d9fe0a62b" y="314.502631"/>
      </g>
     </g>
    </g>
    <g id="ytick_12">
     <g id="line2d_17">
      <g>
       <use style="stroke:#000000;stroke-width:0.6;" x="90" xlink:href="#m2d9fe0a62b" y="297.796498"/>
      </g>
     </g>
    </g>
    <g id="ytick_13">
     <g id="line2d_18">
      <g>
       <use style="stroke:#000000;stroke-width:0.6;" x="90" xlink:href="#m2d9fe0a62b" y="284.146593"/>
      </g>
     </g>
    </g>
    <g id="ytick_14">
     <g id="line2d_19">
      <g>
       <use style="stroke:#000000;stroke-width:0.6;" x="90" xlink:href="#m2d9fe0a62b" y="272.605763"/>
      </g>
     </g>
    </g>
    <g id="ytick_15">
     <g id="line2d_20">
      <g>
       <use style="stroke:#000000;stroke-width:0.6;" x="90" xlink:href="#m2d9fe0a62b" y="262.608641"/>
      </g>
     </g>
    </g>
    <g id="ytick_16">
     <g id="line2d_21">
      <g>
       <use style="stroke:#000000;stroke-width:0.6;" x="90" xlink:href="#m2d9fe0a62b" y="253.790555"/>
      </g>
     </g>
    </g>
    <g id="ytick_17">
     <g id="line2d_22">
      <g>
       <use style="stroke:#000000;stroke-width:0.6;" x="90" xlink:href="#m2d9fe0a62b" y="194.008517"/>
      </g>
     </g>
    </g>
    <g id="ytick_18">
     <g id="line2d_23">
      <g>
       <use style="stroke:#000000;stroke-width:0.6;" x="90" xlink:href="#m2d9fe0a62b" y="163.652479"/>
      </g>
     </g>
    </g>
    <g id="ytick_19">
     <g id="line2d_24">
      <g>
       <use style="stroke:#000000;stroke-width:0.6;" x="90" xlink:href="#m2d9fe0a62b" y="142.114527"/>
      </g>
     </g>
    </g>
    <g id="ytick_20">
     <g id="line2d_25">
      <g>
       <use style="stroke:#000000;stroke-width:0.6;" x="90" xlink:href="#m2d9fe0a62b" y="125.408394"/>
      </g>
     </g>
    </g>
    <g id="ytick_21">
     <g id="line2d_26">
      <g>
       <use style="stroke:#000000;stroke-width:0.6;" x="90" xlink:href="#m2d9fe0a62b" y="111.758489"/>
      </g>
     </g>
    </g>
    <g id="ytick_22">
     <g id="line2d_27">
      <g>
       <use style="stroke:#000000;stroke-width:0.6;" x="90" xlink:href="#m2d9fe0a62b" y="100.217659"/>
      </g>
     </g>
    </g>
    <g id="ytick_23">
     <g id="line2d_28">
      <g>
       <use style="stroke:#000000;stroke-width:0.6;" x="90" xlink:href="#m2d9fe0a62b" y="90.220537"/>
      </g>
     </g>
    </g>
    <g id="ytick_24">
     <g id="line2d_29">
      <g>
       <use style="stroke:#000000;stroke-width:0.6;" x="90" xlink:href="#m2d9fe0a62b" y="81.402451"/>
      </g>
     </g>
    </g>
    <g id="text_10">
     <!-- Count -->
     <defs>
      <path d="M 8.5 21.578125 
L 8.5 54.6875 
L 17.484375 54.6875 
L 17.484375 21.921875 
Q 17.484375 14.15625 20.5 10.265625 
Q 23.53125 6.390625 29.59375 6.390625 
Q 36.859375 6.390625 41.078125 11.03125 
Q 45.3125 15.671875 45.3125 23.6875 
L 45.3125 54.6875 
L 54.296875 54.6875 
L 54.296875 0 
L 45.3125 0 
L 45.3125 8.40625 
Q 42.046875 3.421875 37.71875 1 
Q 33.40625 -1.421875 27.6875 -1.421875 
Q 18.265625 -1.421875 13.375 4.4375 
Q 8.5 10.296875 8.5 21.578125 
z
M 31.109375 56 
z
" id="DejaVuSans-117"/>
      <path d="M 18.3125 70.21875 
L 18.3125 54.6875 
L 36.8125 54.6875 
L 36.8125 47.703125 
L 18.3125 47.703125 
L 18.3125 18.015625 
Q 18.3125 11.328125 20.140625 9.421875 
Q 21.96875 7.515625 27.59375 7.515625 
L 36.8125 7.515625 
L 36.8125 0 
L 27.59375 0 
Q 17.1875 0 13.234375 3.875 
Q 9.28125 7.765625 9.28125 18.015625 
L 9.28125 47.703125 
L 2.6875 47.703125 
L 2.6875 54.6875 
L 9.28125 54.6875 
L 9.28125 70.21875 
z
" id="DejaVuSans-116"/>
     </defs>
     <g transform="translate(27.99025 311.18715)rotate(-90)scale(0.2592 -0.2592)">
      <use xlink:href="#DejaVuSans-67"/>
      <use x="69.824219" xlink:href="#DejaVuSans-111"/>
      <use x="131.005859" xlink:href="#DejaVuSans-117"/>
      <use x="194.384766" xlink:href="#DejaVuSans-110"/>
      <use x="257.763672" xlink:href="#DejaVuSans-116"/>
     </g>
    </g>
   </g>
   <g id="line2d_30">
    <path clip-path="url(#p68411feb8c)" d="M 90 268.648021 
L 101.387755 268.648021 
L 101.387755 255.473034 
L 112.77551 255.473034 
L 112.77551 240.07136 
L 124.163265 240.07136 
L 124.163265 237.551717 
L 135.55102 237.551717 
L 135.55102 234.404471 
L 146.938776 234.404471 
L 146.938776 236.620024 
L 158.326531 236.620024 
L 158.326531 240.002135 
L 169.714286 240.002135 
L 169.714286 235.699784 
L 181.102041 235.699784 
L 181.102041 233.384118 
L 192.489796 233.384118 
L 192.489796 231.941304 
L 203.877551 231.941304 
L 203.877551 233.510905 
L 215.265306 233.510905 
L 215.265306 230.892467 
L 226.653061 230.892467 
L 226.653061 236.68619 
L 238.040816 236.68619 
L 238.040816 227.949054 
L 249.428571 227.949054 
L 249.428571 234.34029 
L 260.816327 234.34029 
L 260.816327 236.818699 
L 272.204082 236.818699 
L 272.204082 232.065668 
L 283.591837 232.065668 
L 283.591837 237.284334 
L 294.979592 237.284334 
L 294.979592 238.766901 
L 306.367347 238.766901 
L 306.367347 238.021948 
L 317.755102 238.021948 
L 317.755102 235.765141 
L 329.142857 235.765141 
L 329.142857 239.381971 
L 340.530612 239.381971 
L 340.530612 237.618712 
L 351.918367 237.618712 
L 351.918367 236.027144 
L 363.306122 236.027144 
L 363.306122 230.953759 
L 374.693878 230.953759 
L 374.693878 234.212093 
L 386.081633 234.212093 
L 386.081633 235.896028 
L 397.469388 235.896028 
L 397.469388 238.156843 
L 408.857143 238.156843 
L 408.857143 239.932974 
L 420.244898 239.932974 
L 420.244898 235.049326 
L 431.632653 235.049326 
L 431.632653 237.954591 
L 443.020408 237.954591 
L 443.020408 235.634483 
L 454.408163 235.634483 
L 454.408163 240.002135 
L 465.795918 240.002135 
L 465.795918 241.117496 
L 477.183673 241.117496 
L 477.183673 242.75051 
L 488.571429 242.75051 
L 488.571429 240.07136 
L 499.959184 240.07136 
L 499.959184 241.328488 
L 511.346939 241.328488 
L 511.346939 243.47178 
L 522.734694 243.47178 
L 522.734694 240.14065 
L 534.122449 240.14065 
L 534.122449 244.493375 
L 545.510204 244.493375 
L 545.510204 243.110276 
L 556.897959 243.110276 
L 556.897959 243.47178 
L 568.285714 243.47178 
L 568.285714 248.337428 
L 579.673469 248.337428 
L 579.673469 253.541412 
L 591.061224 253.541412 
L 591.061224 250.934239 
L 602.44898 250.934239 
L 602.44898 263.45567 
L 613.836735 263.45567 
L 613.836735 269.156978 
L 625.22449 269.156978 
L 625.22449 296.903439 
L 636.612245 296.903439 
L 636.612245 374.701757 
L 648 374.701757 
" style="fill:none;stroke:#1f77b4;stroke-linecap:square;stroke-width:1.5;"/>
   </g>
   <g id="line2d_31">
    <path clip-path="url(#p68411feb8c)" d="M 90 83.7 
L 101.387755 83.7 
L 101.387755 103.463524 
L 112.77551 103.463524 
L 112.77551 94.793265 
L 124.163265 94.793265 
L 124.163265 124.737603 
L 135.55102 124.737603 
L 135.55102 124.205264 
L 146.938776 124.205264 
L 146.938776 119.521861 
L 158.326531 119.521861 
L 158.326531 119.025228 
L 169.714286 119.025228 
L 169.714286 122.112973 
L 181.102041 122.112973 
L 181.102041 123.224489 
L 192.489796 123.224489 
L 192.489796 120.203172 
L 203.877551 120.203172 
L 203.877551 120.763978 
L 215.265306 120.763978 
L 215.265306 120.567217 
L 226.653061 120.567217 
L 226.653061 119.107772 
L 238.040816 119.107772 
L 238.040816 121.998431 
L 249.428571 121.998431 
L 249.428571 126.585528 
L 260.816327 126.585528 
L 260.816327 122.313843 
L 272.204082 122.313843 
L 272.204082 124.411835 
L 283.591837 124.411835 
L 283.591837 123.384633 
L 294.979592 123.384633 
L 294.979592 125.199059 
L 306.367347 125.199059 
L 306.367347 125.020093 
L 317.755102 125.020093 
L 317.755102 123.268131 
L 329.142857 123.268131 
L 329.142857 126.646396 
L 340.530612 126.646396 
L 340.530612 125.843888 
L 351.918367 125.843888 
L 351.918367 126.130591 
L 363.306122 126.130591 
L 363.306122 125.603302 
L 374.693878 125.603302 
L 374.693878 127.104487 
L 386.081633 127.104487 
L 386.081633 127.349954 
L 397.469388 127.349954 
L 397.469388 126.982055 
L 408.857143 126.982055 
L 408.857143 127.303867 
L 420.244898 127.303867 
L 420.244898 128.277688 
L 431.632653 128.277688 
L 431.632653 128.433434 
L 443.020408 128.433434 
L 443.020408 130.793273 
L 454.408163 130.793273 
L 454.408163 129.406361 
L 465.795918 129.406361 
L 465.795918 130.745018 
L 477.183673 130.745018 
L 477.183673 130.632544 
L 488.571429 130.632544 
L 488.571429 128.620758 
L 499.959184 128.620758 
L 499.959184 130.488183 
L 511.346939 130.488183 
L 511.346939 131.846503 
L 522.734694 131.846503 
L 522.734694 132.765936 
L 534.122449 132.765936 
L 534.122449 132.239164 
L 545.510204 132.239164 
L 545.510204 132.452718 
L 556.897959 132.452718 
L 556.897959 131.277538 
L 568.285714 131.277538 
L 568.285714 136.647867 
L 579.673469 136.647867 
L 579.673469 136.578304 
L 591.061224 136.578304 
L 591.061224 141.666666 
L 602.44898 141.666666 
L 602.44898 144.433524 
L 613.836735 144.433524 
L 613.836735 152.454684 
L 625.22449 152.454684 
L 625.22449 167.96701 
L 636.612245 167.96701 
L 636.612245 212.514202 
L 648 212.514202 
" style="fill:none;stroke:#ff7f0e;stroke-linecap:square;stroke-width:1.5;"/>
   </g>
   <g id="line2d_32">
    <path clip-path="url(#p68411feb8c)" d="M 90 206.706203 
L 101.387755 206.706203 
L 101.387755 195.102039 
L 112.77551 195.102039 
L 112.77551 173.507132 
L 124.163265 173.507132 
L 124.163265 177.362302 
L 135.55102 177.362302 
L 135.55102 176.884297 
L 146.938776 176.884297 
L 146.938776 173.592581 
L 158.326531 173.592581 
L 158.326531 172.320981 
L 169.714286 172.320981 
L 169.714286 174.337249 
L 181.102041 174.337249 
L 181.102041 175.907948 
L 192.489796 175.907948 
L 192.489796 172.041312 
L 203.877551 172.041312 
L 203.877551 174.683457 
L 215.265306 174.683457 
L 215.265306 173.678127 
L 226.653061 173.678127 
L 226.653061 171.596004 
L 238.040816 171.596004 
L 238.040816 172.37704 
L 249.428571 172.37704 
L 249.428571 178.17592 
L 260.816327 178.17592 
L 260.816327 174.770259 
L 272.204082 174.770259 
L 272.204082 176.973691 
L 283.591837 176.973691 
L 283.591837 173.649601 
L 294.979592 173.649601 
L 294.979592 175.585307 
L 306.367347 175.585307 
L 306.367347 175.76112 
L 317.755102 175.76112 
L 317.755102 176.705829 
L 329.142857 176.705829 
L 329.142857 178.570838 
L 340.530612 178.570838 
L 340.530612 178.297211 
L 351.918367 178.297211 
L 351.918367 178.054825 
L 363.306122 178.054825 
L 363.306122 176.765271 
L 374.693878 176.765271 
L 374.693878 178.327565 
L 386.081633 178.327565 
L 386.081633 180.639892 
L 397.469388 180.639892 
L 397.469388 177.873548 
L 408.857143 177.873548 
L 408.857143 177.90373 
L 420.244898 177.90373 
L 420.244898 178.024581 
L 431.632653 178.024581 
L 431.632653 181.426816 
L 443.020408 181.426816 
L 443.020408 180.859398 
L 454.408163 180.859398 
L 454.408163 179.768248 
L 465.795918 179.768248 
L 465.795918 180.452255 
L 477.183673 180.452255 
L 477.183673 181.07955 
L 488.571429 181.07955 
L 488.571429 177.692709 
L 499.959184 177.692709 
L 499.959184 177.033346 
L 511.346939 177.033346 
L 511.346939 179.892149 
L 522.734694 179.892149 
L 522.734694 179.490218 
L 534.122449 179.490218 
L 534.122449 178.845468 
L 545.510204 178.845468 
L 545.510204 177.182692 
L 556.897959 177.182692 
L 556.897959 177.003513 
L 568.285714 177.003513 
L 568.285714 183.447343 
L 579.673469 183.447343 
L 579.673469 181.426816 
L 591.061224 181.426816 
L 591.061224 184.330259 
L 602.44898 184.330259 
L 602.44898 187.179814 
L 613.836735 187.179814 
L 613.836735 197.534134 
L 625.22449 197.534134 
L 625.22449 211.136968 
L 636.612245 211.136968 
L 636.612245 254.29134 
L 648 254.29134 
" style="fill:none;stroke:#2ca02c;stroke-linecap:square;stroke-width:1.5;"/>
   </g>
   <g id="line2d_33">
    <path clip-path="url(#p68411feb8c)" d="M 90 108.343758 
L 101.387755 108.343758 
L 101.387755 140.83408 
L 112.77551 140.83408 
L 112.77551 140.284123 
L 124.163265 140.284123 
L 124.163265 198.0855 
L 135.55102 198.0855 
L 135.55102 198.442105 
L 146.938776 198.442105 
L 146.938776 191.39682 
L 158.326531 191.39682 
L 158.326531 193.374836 
L 169.714286 193.374836 
L 169.714286 196.52082 
L 181.102041 196.52082 
L 181.102041 195.903991 
L 192.489796 195.903991 
L 192.489796 195.368403 
L 203.877551 195.368403 
L 203.877551 192.709673 
L 215.265306 192.709673 
L 215.265306 193.821583 
L 226.653061 193.821583 
L 226.653061 193.004572 
L 238.040816 193.004572 
L 238.040816 198.720644 
L 249.428571 198.720644 
L 249.428571 200.699984 
L 260.816327 200.699984 
L 260.816327 197.494906 
L 272.204082 197.494906 
L 272.204082 199.040248 
L 283.591837 199.040248 
L 283.591837 199.723972 
L 294.979592 199.723972 
L 294.979592 201.192803 
L 306.367347 201.192803 
L 306.367347 200.699984 
L 317.755102 200.699984 
L 317.755102 196.792289 
L 329.142857 196.792289 
L 329.142857 201.3578 
L 340.530612 201.3578 
L 340.530612 200.822885 
L 351.918367 200.822885 
L 351.918367 201.481787 
L 363.306122 201.481787 
L 363.306122 201.564559 
L 374.693878 201.564559 
L 374.693878 201.151611 
L 386.081633 201.151611 
L 386.081633 202.565026 
L 397.469388 202.565026 
L 397.469388 203.324249 
L 408.857143 203.324249 
L 408.857143 204.434679 
L 420.244898 204.434679 
L 420.244898 205.649237 
L 431.632653 205.649237 
L 431.632653 203.070318 
L 443.020408 203.070318 
L 443.020408 210.294703 
L 454.408163 210.294703 
L 454.408163 208.003606 
L 465.795918 208.003606 
L 465.795918 210.948977 
L 477.183673 210.948977 
L 477.183673 211.325431 
L 488.571429 211.325431 
L 488.571429 210.2017 
L 499.959184 210.2017 
L 499.959184 215.446713 
L 511.346939 215.446713 
L 511.346939 215.846539 
L 522.734694 215.846539 
L 522.734694 217.262987 
L 534.122449 217.262987 
L 534.122449 216.703325 
L 545.510204 216.703325 
L 545.510204 219.334135 
L 556.897959 219.334135 
L 556.897959 217.008077 
L 568.285714 217.008077 
L 568.285714 221.951949 
L 579.673469 221.951949 
L 579.673469 223.545513 
L 591.061224 223.545513 
L 591.061224 231.137934 
L 602.44898 231.137934 
L 602.44898 234.34029 
L 613.836735 234.34029 
L 613.836735 240.210003 
L 625.22449 240.210003 
L 625.22449 257.718355 
L 636.612245 257.718355 
L 636.612245 302.111028 
L 648 302.111028 
" style="fill:none;stroke:#d62728;stroke-linecap:square;stroke-width:1.5;"/>
   </g>
   <g id="line2d_34">
    <path clip-path="url(#p68411feb8c)" d="M 90 382.172715 
L 101.387755 382.172715 
L 101.387755 362.034191 
L 112.77551 362.034191 
L 112.77551 345.046072 
L 124.163265 345.046072 
L 124.163265 340.673021 
L 135.55102 340.673021 
L 135.55102 332.625852 
L 146.938776 332.625852 
L 146.938776 337.553103 
L 158.326531 337.553103 
L 158.326531 332.3878 
L 169.714286 332.3878 
L 169.714286 337.298885 
L 181.102041 337.298885 
L 181.102041 330.048009 
L 192.489796 330.048009 
L 192.489796 330.742301 
L 203.877551 330.742301 
L 203.877551 326.450094 
L 215.265306 326.450094 
L 215.265306 323.64898 
L 226.653061 323.64898 
L 226.653061 333.585701 
L 238.040816 333.585701 
L 238.040816 326.450094 
L 249.428571 326.450094 
L 249.428571 330.742301 
L 260.816327 330.742301 
L 260.816327 333.104238 
L 272.204082 333.104238 
L 272.204082 325.144238 
L 283.591837 325.144238 
L 283.591837 334.07028 
L 294.979592 334.07028 
L 294.979592 336.793024 
L 306.367347 336.793024 
L 306.367347 332.3878 
L 317.755102 332.3878 
L 317.755102 330.742301 
L 329.142857 330.742301 
L 329.142857 329.132191 
L 340.530612 329.132191 
L 340.530612 325.576997 
L 351.918367 325.576997 
L 351.918367 326.012273 
L 363.306122 326.012273 
L 363.306122 326.012273 
L 374.693878 326.012273 
L 374.693878 324.286152 
L 386.081633 324.286152 
L 386.081633 332.3878 
L 397.469388 332.3878 
L 397.469388 332.3878 
L 408.857143 332.3878 
L 408.857143 332.150503 
L 420.244898 332.150503 
L 420.244898 328.678449 
L 431.632653 328.678449 
L 431.632653 331.678153 
L 443.020408 331.678153 
L 443.020408 331.208764 
L 454.408163 331.208764 
L 454.408163 332.150503 
L 465.795918 332.150503 
L 465.795918 331.443091 
L 477.183673 331.443091 
L 477.183673 337.045527 
L 488.571429 337.045527 
L 488.571429 334.313751 
L 499.959184 334.313751 
L 499.959184 336.040583 
L 511.346939 336.040583 
L 511.346939 343.376102 
L 522.734694 343.376102 
L 522.734694 338.320979 
L 534.122449 338.320979 
L 534.122449 339.357219 
L 545.510204 339.357219 
L 545.510204 334.558016 
L 556.897959 334.558016 
L 556.897959 341.742571 
L 568.285714 341.742571 
L 568.285714 337.553103 
L 579.673469 337.553103 
L 579.673469 350.291834 
L 591.061224 350.291834 
L 591.061224 342.554881 
L 602.44898 342.554881 
L 602.44898 352.125408 
L 613.836735 352.125408 
L 613.836735 357.246529 
L 625.22449 357.246529 
L 625.22449 383.572143 
L 636.612245 383.572143 
L 636.612245 461.7 
L 648 461.7 
" style="fill:none;stroke:#9467bd;stroke-linecap:square;stroke-width:1.5;"/>
   </g>
   <g id="line2d_35">
    <path clip-path="url(#p68411feb8c)" d="M 90 287.202821 
L 101.387755 287.202821 
L 101.387755 276.108961 
L 112.77551 276.108961 
L 112.77551 261.217879 
L 124.163265 261.217879 
L 124.163265 259.31322 
L 135.55102 259.31322 
L 135.55102 257.893894 
L 146.938776 257.893894 
L 146.938776 259.134326 
L 158.326531 259.134326 
L 158.326531 265.762416 
L 169.714286 265.762416 
L 169.714286 257.981818 
L 181.102041 257.981818 
L 181.102041 257.455817 
L 192.489796 257.455817 
L 192.489796 255.218239 
L 203.877551 255.218239 
L 203.877551 259.045039 
L 215.265306 259.045039 
L 215.265306 256.500976 
L 226.653061 256.500976 
L 226.653061 260.668728 
L 238.040816 260.668728 
L 238.040816 251.335672 
L 249.428571 251.335672 
L 249.428571 258.511541 
L 260.816327 258.511541 
L 260.816327 261.034381 
L 272.204082 261.034381 
L 272.204082 257.543227 
L 283.591837 257.543227 
L 283.591837 261.309797 
L 294.979592 261.309797 
L 294.979592 262.328414 
L 306.367347 262.328414 
L 306.367347 262.983916 
L 317.755102 262.983916 
L 317.755102 260.48657 
L 329.142857 260.48657 
L 329.142857 266.252066 
L 340.530612 266.252066 
L 340.530612 265.275948 
L 351.918367 265.275948 
L 351.918367 262.796043 
L 363.306122 262.796043 
L 363.306122 255.643381 
L 374.693878 255.643381 
L 374.693878 260.9428 
L 386.081633 260.9428 
L 386.081633 260.033102 
L 397.469388 260.033102 
L 397.469388 263.172261 
L 408.857143 263.172261 
L 408.857143 265.762416 
L 420.244898 265.762416 
L 420.244898 260.304853 
L 431.632653 260.304853 
L 431.632653 263.172261 
L 443.020408 263.172261 
L 443.020408 260.123576 
L 454.408163 260.123576 
L 454.408163 265.86009 
L 465.795918 265.86009 
L 465.795918 267.740529 
L 477.183673 267.740529 
L 477.183673 267.740529 
L 488.571429 267.740529 
L 488.571429 265.082242 
L 499.959184 265.082242 
L 499.959184 266.15388 
L 511.346939 266.15388 
L 511.346939 266.350382 
L 522.734694 266.350382 
L 522.734694 263.645208 
L 534.122449 263.645208 
L 534.122449 269.259185 
L 545.510204 269.259185 
L 545.510204 269.259185 
L 556.897959 269.259185 
L 556.897959 266.943001 
L 568.285714 266.943001 
L 568.285714 275.439503 
L 579.673469 275.439503 
L 579.673469 277.580321 
L 591.061224 277.580321 
L 591.061224 277.010986 
L 602.44898 277.010986 
L 602.44898 290.797137 
L 613.836735 290.797137 
L 613.836735 296.755626 
L 625.22449 296.755626 
L 625.22449 325.144238 
L 636.612245 325.144238 
L 636.612245 402.79204 
L 648 402.79204 
" style="fill:none;stroke:#8c564b;stroke-linecap:square;stroke-width:1.5;"/>
   </g>
   <g id="line2d_36">
    <path clip-path="url(#p68411feb8c)" d="M 90 274.775978 
L 101.387755 274.775978 
L 101.387755 282.41976 
L 112.77551 282.41976 
L 112.77551 270.496688 
L 124.163265 270.496688 
L 124.163265 284.647379 
L 135.55102 284.647379 
L 135.55102 282.664026 
L 146.938776 282.664026 
L 146.938776 278.964654 
L 158.326531 278.964654 
L 158.326531 275.107006 
L 169.714286 275.107006 
L 169.714286 280.851172 
L 181.102041 280.851172 
L 181.102041 285.786547 
L 192.489796 285.786547 
L 192.489796 280.138145 
L 203.877551 280.138145 
L 203.877551 279.549101 
L 215.265306 279.549101 
L 215.265306 280.138145 
L 226.653061 280.138145 
L 226.653061 280.019965 
L 238.040816 280.019965 
L 238.040816 281.090364 
L 249.428571 281.090364 
L 249.428571 289.579758 
L 260.816327 289.579758 
L 260.816327 278.964654 
L 272.204082 278.964654 
L 272.204082 281.330324 
L 283.591837 281.330324 
L 283.591837 285.151537 
L 294.979592 285.151537 
L 294.979592 288.249932 
L 306.367347 288.249932 
L 306.367347 285.786547 
L 317.755102 285.786547 
L 317.755102 281.691711 
L 329.142857 281.691711 
L 329.142857 286.555737 
L 340.530612 286.555737 
L 340.530612 282.664026 
L 351.918367 282.664026 
L 351.918367 282.541793 
L 363.306122 282.541793 
L 363.306122 283.897451 
L 374.693878 283.897451 
L 374.693878 292.731084 
L 386.081633 292.731084 
L 386.081633 281.812562 
L 397.469388 281.812562 
L 397.469388 287.072956 
L 408.857143 287.072956 
L 408.857143 283.15496 
L 420.244898 283.15496 
L 420.244898 288.646405 
L 431.632653 288.646405 
L 431.632653 284.521868 
L 443.020408 284.521868 
L 443.020408 283.649135 
L 454.408163 283.649135 
L 454.408163 284.146593 
L 465.795918 284.146593 
L 465.795918 283.15496 
L 477.183673 283.15496 
L 477.183673 279.197886 
L 488.571429 279.197886 
L 488.571429 280.851172 
L 499.959184 280.851172 
L 499.959184 283.897451 
L 511.346939 283.897451 
L 511.346939 281.812562 
L 522.734694 281.812562 
L 522.734694 286.298461 
L 534.122449 286.298461 
L 534.122449 286.426988 
L 545.510204 286.426988 
L 545.510204 289.178324 
L 556.897959 289.178324 
L 556.897959 285.786547 
L 568.285714 285.786547 
L 568.285714 289.579758 
L 579.673469 289.579758 
L 579.673469 293.011486 
L 591.061224 293.011486 
L 591.061224 300.386262 
L 602.44898 300.386262 
L 602.44898 302.588398 
L 613.836735 302.588398 
L 613.836735 306.018029 
L 625.22449 306.018029 
L 625.22449 324.286152 
L 636.612245 324.286152 
L 636.612245 379.005655 
L 648 379.005655 
" style="fill:none;stroke:#e377c2;stroke-linecap:square;stroke-width:1.5;"/>
   </g>
   <g id="line2d_37">
    <path clip-path="url(#p68411feb8c)" d="M 600.103004 480.6 
L 600.103004 64.8 
" style="fill:none;stroke:#000000;stroke-linecap:square;stroke-width:1.5;"/>
   </g>
   <g id="patch_5">
    <path d="M 90 480.6 
L 90 64.8 
" style="fill:none;stroke:#000000;stroke-linecap:square;stroke-linejoin:miter;stroke-width:0.8;"/>
   </g>
   <g id="patch_6">
    <path d="M 648 480.6 
L 648 64.8 
" style="fill:none;stroke:#000000;stroke-linecap:square;stroke-linejoin:miter;stroke-width:0.8;"/>
   </g>
   <g id="patch_7">
    <path d="M 90 480.6 
L 648 480.6 
" style="fill:none;stroke:#000000;stroke-linecap:square;stroke-linejoin:miter;stroke-width:0.8;"/>
   </g>
   <g id="patch_8">
    <path d="M 90 64.8 
L 648 64.8 
" style="fill:none;stroke:#000000;stroke-linecap:square;stroke-linejoin:miter;stroke-width:0.8;"/>
   </g>
   <g id="patch_9">
    <path d="M 554.337974 93.906 
Q 575.101944 93.906 598.101982 93.906 
" style="fill:none;stroke:#000000;stroke-linecap:round;stroke-width:2;"/>
    <path d="M 560.337974 96.906 
L 554.337974 93.906 
L 560.337974 90.906 
L 560.337974 96.906 
z
" style="fill:#1f77b4;stroke:#000000;stroke-linecap:round;stroke-width:2;"/>
   </g>
   <g id="legend_1">
    <g id="patch_10">
     <path d="M 385.194375 264.144375 
L 635.4 264.144375 
Q 639 264.144375 639 260.544375 
L 639 77.4 
Q 639 73.8 635.4 73.8 
L 385.194375 73.8 
Q 381.594375 73.8 381.594375 77.4 
L 381.594375 260.544375 
Q 381.594375 264.144375 385.194375 264.144375 
z
" style="fill:#ffffff;opacity:0.5;stroke:#cccccc;stroke-linejoin:miter;"/>
    </g>
    <g id="line2d_38">
     <path d="M 388.794375 88.377188 
L 424.794375 88.377188 
" style="fill:none;stroke:#1f77b4;stroke-linecap:square;stroke-width:1.5;"/>
    </g>
    <g id="line2d_39"/>
    <g id="text_11">
     <!-- Showers -->
     <defs>
      <path d="M 53.515625 70.515625 
L 53.515625 60.890625 
Q 47.90625 63.578125 42.921875 64.890625 
Q 37.9375 66.21875 33.296875 66.21875 
Q 25.25 66.21875 20.875 63.09375 
Q 16.5 59.96875 16.5 54.203125 
Q 16.5 49.359375 19.40625 46.890625 
Q 22.3125 44.4375 30.421875 42.921875 
L 36.375 41.703125 
Q 47.40625 39.59375 52.65625 34.296875 
Q 57.90625 29 57.90625 20.125 
Q 57.90625 9.515625 50.796875 4.046875 
Q 43.703125 -1.421875 29.984375 -1.421875 
Q 24.8125 -1.421875 18.96875 -0.25 
Q 13.140625 0.921875 6.890625 3.21875 
L 6.890625 13.375 
Q 12.890625 10.015625 18.65625 8.296875 
Q 24.421875 6.59375 29.984375 6.59375 
Q 38.421875 6.59375 43.015625 9.90625 
Q 47.609375 13.234375 47.609375 19.390625 
Q 47.609375 24.75 44.3125 27.78125 
Q 41.015625 30.8125 33.5 32.328125 
L 27.484375 33.5 
Q 16.453125 35.6875 11.515625 40.375 
Q 6.59375 45.0625 6.59375 53.421875 
Q 6.59375 63.09375 13.40625 68.65625 
Q 20.21875 74.21875 32.171875 74.21875 
Q 37.3125 74.21875 42.625 73.28125 
Q 47.953125 72.359375 53.515625 70.515625 
z
" id="DejaVuSans-83"/>
      <path d="M 54.890625 33.015625 
L 54.890625 0 
L 45.90625 0 
L 45.90625 32.71875 
Q 45.90625 40.484375 42.875 44.328125 
Q 39.84375 48.1875 33.796875 48.1875 
Q 26.515625 48.1875 22.3125 43.546875 
Q 18.109375 38.921875 18.109375 30.90625 
L 18.109375 0 
L 9.078125 0 
L 9.078125 75.984375 
L 18.109375 75.984375 
L 18.109375 46.1875 
Q 21.34375 51.125 25.703125 53.5625 
Q 30.078125 56 35.796875 56 
Q 45.21875 56 50.046875 50.171875 
Q 54.890625 44.34375 54.890625 33.015625 
z
" id="DejaVuSans-104"/>
      <path d="M 4.203125 54.6875 
L 13.1875 54.6875 
L 24.421875 12.015625 
L 35.59375 54.6875 
L 46.1875 54.6875 
L 57.421875 12.015625 
L 68.609375 54.6875 
L 77.59375 54.6875 
L 63.28125 0 
L 52.6875 0 
L 40.921875 44.828125 
L 29.109375 0 
L 18.5 0 
z
" id="DejaVuSans-119"/>
      <path d="M 56.203125 29.59375 
L 56.203125 25.203125 
L 14.890625 25.203125 
Q 15.484375 15.921875 20.484375 11.0625 
Q 25.484375 6.203125 34.421875 6.203125 
Q 39.59375 6.203125 44.453125 7.46875 
Q 49.3125 8.734375 54.109375 11.28125 
L 54.109375 2.78125 
Q 49.265625 0.734375 44.1875 -0.34375 
Q 39.109375 -1.421875 33.890625 -1.421875 
Q 20.796875 -1.421875 13.15625 6.1875 
Q 5.515625 13.8125 5.515625 26.8125 
Q 5.515625 40.234375 12.765625 48.109375 
Q 20.015625 56 32.328125 56 
Q 43.359375 56 49.78125 48.890625 
Q 56.203125 41.796875 56.203125 29.59375 
z
M 47.21875 32.234375 
Q 47.125 39.59375 43.09375 43.984375 
Q 39.0625 48.390625 32.421875 48.390625 
Q 24.90625 48.390625 20.390625 44.140625 
Q 15.875 39.890625 15.1875 32.171875 
z
" id="DejaVuSans-101"/>
      <path d="M 44.28125 53.078125 
L 44.28125 44.578125 
Q 40.484375 46.53125 36.375 47.5 
Q 32.28125 48.484375 27.875 48.484375 
Q 21.1875 48.484375 17.84375 46.4375 
Q 14.5 44.390625 14.5 40.28125 
Q 14.5 37.15625 16.890625 35.375 
Q 19.28125 33.59375 26.515625 31.984375 
L 29.59375 31.296875 
Q 39.15625 29.25 43.1875 25.515625 
Q 47.21875 21.78125 47.21875 15.09375 
Q 47.21875 7.46875 41.1875 3.015625 
Q 35.15625 -1.421875 24.609375 -1.421875 
Q 20.21875 -1.421875 15.453125 -0.5625 
Q 10.6875 0.296875 5.421875 2 
L 5.421875 11.28125 
Q 10.40625 8.6875 15.234375 7.390625 
Q 20.0625 6.109375 24.8125 6.109375 
Q 31.15625 6.109375 34.5625 8.28125 
Q 37.984375 10.453125 37.984375 14.40625 
Q 37.984375 18.0625 35.515625 20.015625 
Q 33.0625 21.96875 24.703125 23.78125 
L 21.578125 24.515625 
Q 13.234375 26.265625 9.515625 29.90625 
Q 5.8125 33.546875 5.8125 39.890625 
Q 5.8125 47.609375 11.28125 51.796875 
Q 16.75 56 26.8125 56 
Q 31.78125 56 36.171875 55.265625 
Q 40.578125 54.546875 44.28125 53.078125 
z
" id="DejaVuSans-115"/>
     </defs>
     <g transform="translate(439.194375 94.677188)scale(0.18 -0.18)">
      <use xlink:href="#DejaVuSans-83"/>
      <use x="63.476562" xlink:href="#DejaVuSans-104"/>
      <use x="126.855469" xlink:href="#DejaVuSans-111"/>
      <use x="188.037109" xlink:href="#DejaVuSans-119"/>
      <use x="269.824219" xlink:href="#DejaVuSans-101"/>
      <use x="331.347656" xlink:href="#DejaVuSans-114"/>
      <use x="372.460938" xlink:href="#DejaVuSans-115"/>
     </g>
    </g>
    <g id="line2d_40">
     <path d="M 388.794375 114.797813 
L 424.794375 114.797813 
" style="fill:none;stroke:#ff7f0e;stroke-linecap:square;stroke-width:1.5;"/>
    </g>
    <g id="line2d_41"/>
    <g id="text_12">
     <!-- Tracks -->
     <defs>
      <path d="M -0.296875 72.90625 
L 61.375 72.90625 
L 61.375 64.59375 
L 35.5 64.59375 
L 35.5 0 
L 25.59375 0 
L 25.59375 64.59375 
L -0.296875 64.59375 
z
" id="DejaVuSans-84"/>
      <path d="M 34.28125 27.484375 
Q 23.390625 27.484375 19.1875 25 
Q 14.984375 22.515625 14.984375 16.5 
Q 14.984375 11.71875 18.140625 8.90625 
Q 21.296875 6.109375 26.703125 6.109375 
Q 34.1875 6.109375 38.703125 11.40625 
Q 43.21875 16.703125 43.21875 25.484375 
L 43.21875 27.484375 
z
M 52.203125 31.203125 
L 52.203125 0 
L 43.21875 0 
L 43.21875 8.296875 
Q 40.140625 3.328125 35.546875 0.953125 
Q 30.953125 -1.421875 24.3125 -1.421875 
Q 15.921875 -1.421875 10.953125 3.296875 
Q 6 8.015625 6 15.921875 
Q 6 25.140625 12.171875 29.828125 
Q 18.359375 34.515625 30.609375 34.515625 
L 43.21875 34.515625 
L 43.21875 35.40625 
Q 43.21875 41.609375 39.140625 45 
Q 35.0625 48.390625 27.6875 48.390625 
Q 23 48.390625 18.546875 47.265625 
Q 14.109375 46.140625 10.015625 43.890625 
L 10.015625 52.203125 
Q 14.9375 54.109375 19.578125 55.046875 
Q 24.21875 56 28.609375 56 
Q 40.484375 56 46.34375 49.84375 
Q 52.203125 43.703125 52.203125 31.203125 
z
" id="DejaVuSans-97"/>
      <path d="M 48.78125 52.59375 
L 48.78125 44.1875 
Q 44.96875 46.296875 41.140625 47.34375 
Q 37.3125 48.390625 33.40625 48.390625 
Q 24.65625 48.390625 19.8125 42.84375 
Q 14.984375 37.3125 14.984375 27.296875 
Q 14.984375 17.28125 19.8125 11.734375 
Q 24.65625 6.203125 33.40625 6.203125 
Q 37.3125 6.203125 41.140625 7.25 
Q 44.96875 8.296875 48.78125 10.40625 
L 48.78125 2.09375 
Q 45.015625 0.34375 40.984375 -0.53125 
Q 36.96875 -1.421875 32.421875 -1.421875 
Q 20.0625 -1.421875 12.78125 6.34375 
Q 5.515625 14.109375 5.515625 27.296875 
Q 5.515625 40.671875 12.859375 48.328125 
Q 20.21875 56 33.015625 56 
Q 37.15625 56 41.109375 55.140625 
Q 45.0625 54.296875 48.78125 52.59375 
z
" id="DejaVuSans-99"/>
      <path d="M 9.078125 75.984375 
L 18.109375 75.984375 
L 18.109375 31.109375 
L 44.921875 54.6875 
L 56.390625 54.6875 
L 27.390625 29.109375 
L 57.625 0 
L 45.90625 0 
L 18.109375 26.703125 
L 18.109375 0 
L 9.078125 0 
z
" id="DejaVuSans-107"/>
     </defs>
     <g transform="translate(439.194375 121.097813)scale(0.18 -0.18)">
      <use xlink:href="#DejaVuSans-84"/>
      <use x="60.865234" xlink:href="#DejaVuSans-114"/>
      <use x="101.978516" xlink:href="#DejaVuSans-97"/>
      <use x="163.257812" xlink:href="#DejaVuSans-99"/>
      <use x="218.238281" xlink:href="#DejaVuSans-107"/>
      <use x="276.148438" xlink:href="#DejaVuSans-115"/>
     </g>
    </g>
    <g id="line2d_42">
     <path d="M 388.794375 141.218437 
L 424.794375 141.218437 
" style="fill:none;stroke:#2ca02c;stroke-linecap:square;stroke-width:1.5;"/>
    </g>
    <g id="line2d_43"/>
    <g id="text_13">
     <!-- Protons -->
     <defs>
      <path d="M 19.671875 64.796875 
L 19.671875 37.40625 
L 32.078125 37.40625 
Q 38.96875 37.40625 42.71875 40.96875 
Q 46.484375 44.53125 46.484375 51.125 
Q 46.484375 57.671875 42.71875 61.234375 
Q 38.96875 64.796875 32.078125 64.796875 
z
M 9.8125 72.90625 
L 32.078125 72.90625 
Q 44.34375 72.90625 50.609375 67.359375 
Q 56.890625 61.8125 56.890625 51.125 
Q 56.890625 40.328125 50.609375 34.8125 
Q 44.34375 29.296875 32.078125 29.296875 
L 19.671875 29.296875 
L 19.671875 0 
L 9.8125 0 
z
" id="DejaVuSans-80"/>
     </defs>
     <g transform="translate(439.194375 147.518438)scale(0.18 -0.18)">
      <use xlink:href="#DejaVuSans-80"/>
      <use x="60.287109" xlink:href="#DejaVuSans-114"/>
      <use x="101.369141" xlink:href="#DejaVuSans-111"/>
      <use x="162.550781" xlink:href="#DejaVuSans-116"/>
      <use x="201.759766" xlink:href="#DejaVuSans-111"/>
      <use x="262.941406" xlink:href="#DejaVuSans-110"/>
      <use x="326.320312" xlink:href="#DejaVuSans-115"/>
     </g>
    </g>
    <g id="line2d_44">
     <path d="M 388.794375 167.639062 
L 424.794375 167.639062 
" style="fill:none;stroke:#d62728;stroke-linecap:square;stroke-width:1.5;"/>
    </g>
    <g id="line2d_45"/>
    <g id="text_14">
     <!-- Muons -->
     <defs>
      <path d="M 9.8125 72.90625 
L 24.515625 72.90625 
L 43.109375 23.296875 
L 61.8125 72.90625 
L 76.515625 72.90625 
L 76.515625 0 
L 66.890625 0 
L 66.890625 64.015625 
L 48.09375 14.015625 
L 38.1875 14.015625 
L 19.390625 64.015625 
L 19.390625 0 
L 9.8125 0 
z
" id="DejaVuSans-77"/>
     </defs>
     <g transform="translate(439.194375 173.939062)scale(0.18 -0.18)">
      <use xlink:href="#DejaVuSans-77"/>
      <use x="86.279297" xlink:href="#DejaVuSans-117"/>
      <use x="149.658203" xlink:href="#DejaVuSans-111"/>
      <use x="210.839844" xlink:href="#DejaVuSans-110"/>
      <use x="274.21875" xlink:href="#DejaVuSans-115"/>
     </g>
    </g>
    <g id="line2d_46">
     <path d="M 388.794375 194.059687 
L 424.794375 194.059687 
" style="fill:none;stroke:#9467bd;stroke-linecap:square;stroke-width:1.5;"/>
    </g>
    <g id="line2d_47"/>
    <g id="text_15">
     <!-- Electrons + Positrons -->
     <defs>
      <path d="M 9.8125 72.90625 
L 55.90625 72.90625 
L 55.90625 64.59375 
L 19.671875 64.59375 
L 19.671875 43.015625 
L 54.390625 43.015625 
L 54.390625 34.71875 
L 19.671875 34.71875 
L 19.671875 8.296875 
L 56.78125 8.296875 
L 56.78125 0 
L 9.8125 0 
z
" id="DejaVuSans-69"/>
      <path d="M 9.421875 75.984375 
L 18.40625 75.984375 
L 18.40625 0 
L 9.421875 0 
z
" id="DejaVuSans-108"/>
      <path id="DejaVuSans-32"/>
      <path d="M 46 62.703125 
L 46 35.5 
L 73.1875 35.5 
L 73.1875 27.203125 
L 46 27.203125 
L 46 0 
L 37.796875 0 
L 37.796875 27.203125 
L 10.59375 27.203125 
L 10.59375 35.5 
L 37.796875 35.5 
L 37.796875 62.703125 
z
" id="DejaVuSans-43"/>
     </defs>
     <g transform="translate(439.194375 200.359688)scale(0.18 -0.18)">
      <use xlink:href="#DejaVuSans-69"/>
      <use x="63.183594" xlink:href="#DejaVuSans-108"/>
      <use x="90.966797" xlink:href="#DejaVuSans-101"/>
      <use x="152.490234" xlink:href="#DejaVuSans-99"/>
      <use x="207.470703" xlink:href="#DejaVuSans-116"/>
      <use x="246.679688" xlink:href="#DejaVuSans-114"/>
      <use x="287.761719" xlink:href="#DejaVuSans-111"/>
      <use x="348.943359" xlink:href="#DejaVuSans-110"/>
      <use x="412.322266" xlink:href="#DejaVuSans-115"/>
      <use x="464.421875" xlink:href="#DejaVuSans-32"/>
      <use x="496.208984" xlink:href="#DejaVuSans-43"/>
      <use x="579.998047" xlink:href="#DejaVuSans-32"/>
      <use x="611.785156" xlink:href="#DejaVuSans-80"/>
      <use x="672.041016" xlink:href="#DejaVuSans-111"/>
      <use x="733.222656" xlink:href="#DejaVuSans-115"/>
      <use x="785.322266" xlink:href="#DejaVuSans-105"/>
      <use x="813.105469" xlink:href="#DejaVuSans-116"/>
      <use x="852.314453" xlink:href="#DejaVuSans-114"/>
      <use x="893.396484" xlink:href="#DejaVuSans-111"/>
      <use x="954.578125" xlink:href="#DejaVuSans-110"/>
      <use x="1017.957031" xlink:href="#DejaVuSans-115"/>
     </g>
    </g>
    <g id="line2d_48">
     <path d="M 388.794375 220.480312 
L 424.794375 220.480312 
" style="fill:none;stroke:#8c564b;stroke-linecap:square;stroke-width:1.5;"/>
    </g>
    <g id="line2d_49"/>
    <g id="text_16">
     <!-- Photons -->
     <g transform="translate(439.194375 226.780312)scale(0.18 -0.18)">
      <use xlink:href="#DejaVuSans-80"/>
      <use x="60.302734" xlink:href="#DejaVuSans-104"/>
      <use x="123.681641" xlink:href="#DejaVuSans-111"/>
      <use x="184.863281" xlink:href="#DejaVuSans-116"/>
      <use x="224.072266" xlink:href="#DejaVuSans-111"/>
      <use x="285.253906" xlink:href="#DejaVuSans-110"/>
      <use x="348.632812" xlink:href="#DejaVuSans-115"/>
     </g>
    </g>
    <g id="line2d_50">
     <path d="M 388.794375 246.900937 
L 424.794375 246.900937 
" style="fill:none;stroke:#e377c2;stroke-linecap:square;stroke-width:1.5;"/>
    </g>
    <g id="line2d_51"/>
    <g id="text_17">
     <!-- Charged Pions -->
     <defs>
      <path d="M 45.40625 27.984375 
Q 45.40625 37.75 41.375 43.109375 
Q 37.359375 48.484375 30.078125 48.484375 
Q 22.859375 48.484375 18.828125 43.109375 
Q 14.796875 37.75 14.796875 27.984375 
Q 14.796875 18.265625 18.828125 12.890625 
Q 22.859375 7.515625 30.078125 7.515625 
Q 37.359375 7.515625 41.375 12.890625 
Q 45.40625 18.265625 45.40625 27.984375 
z
M 54.390625 6.78125 
Q 54.390625 -7.171875 48.1875 -13.984375 
Q 42 -20.796875 29.203125 -20.796875 
Q 24.46875 -20.796875 20.265625 -20.09375 
Q 16.0625 -19.390625 12.109375 -17.921875 
L 12.109375 -9.1875 
Q 16.0625 -11.328125 19.921875 -12.34375 
Q 23.78125 -13.375 27.78125 -13.375 
Q 36.625 -13.375 41.015625 -8.765625 
Q 45.40625 -4.15625 45.40625 5.171875 
L 45.40625 9.625 
Q 42.625 4.78125 38.28125 2.390625 
Q 33.9375 0 27.875 0 
Q 17.828125 0 11.671875 7.65625 
Q 5.515625 15.328125 5.515625 27.984375 
Q 5.515625 40.671875 11.671875 48.328125 
Q 17.828125 56 27.875 56 
Q 33.9375 56 38.28125 53.609375 
Q 42.625 51.21875 45.40625 46.390625 
L 45.40625 54.6875 
L 54.390625 54.6875 
z
" id="DejaVuSans-103"/>
     </defs>
     <g transform="translate(439.194375 253.200938)scale(0.18 -0.18)">
      <use xlink:href="#DejaVuSans-67"/>
      <use x="69.824219" xlink:href="#DejaVuSans-104"/>
      <use x="133.203125" xlink:href="#DejaVuSans-97"/>
      <use x="194.482422" xlink:href="#DejaVuSans-114"/>
      <use x="235.580078" xlink:href="#DejaVuSans-103"/>
      <use x="299.056641" xlink:href="#DejaVuSans-101"/>
      <use x="360.580078" xlink:href="#DejaVuSans-100"/>
      <use x="424.056641" xlink:href="#DejaVuSans-32"/>
      <use x="455.84375" xlink:href="#DejaVuSans-80"/>
      <use x="516.115234" xlink:href="#DejaVuSans-105"/>
      <use x="543.898438" xlink:href="#DejaVuSans-111"/>
      <use x="605.080078" xlink:href="#DejaVuSans-110"/>
      <use x="668.458984" xlink:href="#DejaVuSans-115"/>
     </g>
    </g>
   </g>
  </g>
 </g>
 <defs>
  <clipPath id="p68411feb8c">
   <rect height="415.8" width="558" x="90" y="64.8"/>
  </clipPath>
 </defs>
</svg>
