<?xml version="1.0" encoding="utf-8" standalone="no"?>
<!DOCTYPE svg PUBLIC "-//W3C//DTD SVG 1.1//EN"
  "http://www.w3.org/Graphics/SVG/1.1/DTD/svg11.dtd">
<!-- Created with matplotlib (https://matplotlib.org/) -->
<svg height="540pt" version="1.1" viewBox="0 0 720 540" width="720pt" xmlns="http://www.w3.org/2000/svg" xmlns:xlink="http://www.w3.org/1999/xlink">
 <defs>
  <style type="text/css">
*{stroke-linecap:butt;stroke-linejoin:round;}
  </style>
 </defs>
 <g id="figure_1">
  <g id="patch_1">
   <path d="M 0 540 
L 720 540 
L 720 0 
L 0 0 
z
" style="fill:#ffffff;"/>
  </g>
  <g id="axes_1">
   <g id="patch_2">
    <path d="M 90 480.6 
L 648 480.6 
L 648 64.8 
L 90 64.8 
z
" style="fill:#ffffff;"/>
   </g>
   <g id="patch_3">
    <path clip-path="url(#paf11ffad0c)" d="M 90 231972.380051 
L 90 307.980792 
L 101.387755 307.980792 
L 101.387755 271.008674 
L 112.77551 271.008674 
L 112.77551 275.770282 
L 124.163265 275.770282 
L 124.163265 259.800239 
L 135.55102 259.800239 
L 135.55102 293.01999 
L 146.938776 293.01999 
L 146.938776 247.4873 
L 158.326531 247.4873 
L 158.326531 264.809889 
L 169.714286 264.809889 
L 169.714286 271.591663 
L 181.102041 271.591663 
L 181.102041 261.477721 
L 192.489796 261.477721 
L 192.489796 249.43736 
L 203.877551 249.43736 
L 203.877551 263.831032 
L 215.265306 263.831032 
L 215.265306 264.047732 
L 226.653061 264.047732 
L 226.653061 258.048119 
L 238.040816 258.048119 
L 238.040816 260.530689 
L 249.428571 260.530689 
L 249.428571 247.028534 
L 260.816327 247.028534 
L 260.816327 248.876322 
L 272.204082 248.876322 
L 272.204082 249.249998 
L 283.591837 249.249998 
L 283.591837 238.351919 
L 294.979592 238.351919 
L 294.979592 258.355102 
L 306.367347 258.355102 
L 306.367347 235.618809 
L 317.755102 235.618809 
L 317.755102 235.292526 
L 329.142857 235.292526 
L 329.142857 235.21112 
L 340.530612 235.21112 
L 340.530612 234.886158 
L 351.918367 234.886158 
L 351.918367 230.676915 
L 363.306122 230.676915 
L 363.306122 237.100359 
L 374.693878 237.100359 
L 374.693878 235.129781 
L 386.081633 235.129781 
L 386.081633 235.86422 
L 397.469388 235.86422 
L 397.469388 245.124299 
L 408.857143 245.124299 
L 408.857143 241.507543 
L 420.244898 241.507543 
L 420.244898 248.318404 
L 431.632653 248.318404 
L 431.632653 240.21625 
L 443.020408 240.21625 
L 443.020408 240.558973 
L 454.408163 240.558973 
L 454.408163 245.845467 
L 465.795918 245.845467 
L 465.795918 313.330802 
L 477.183673 313.330802 
L 477.183673 274.79971 
L 488.571429 274.79971 
L 488.571429 242.640266 
L 499.959184 242.640266 
L 499.959184 244.586804 
L 511.346939 244.586804 
L 511.346939 241.680978 
L 522.734694 241.680978 
L 522.734694 267.131726 
L 534.122449 267.131726 
L 534.122449 224.34757 
L 545.510204 224.34757 
L 545.510204 241.941694 
L 556.897959 241.941694 
L 556.897959 252.968191 
L 568.285714 252.968191 
L 568.285714 237.017474 
L 579.673469 237.017474 
L 579.673469 238.941366 
L 591.061224 238.941366 
L 591.061224 237.932995 
L 602.44898 237.932995 
L 602.44898 238.604115 
L 613.836735 238.604115 
L 613.836735 245.574421 
L 625.22449 245.574421 
L 625.22449 249.813136 
L 636.612245 249.813136 
L 636.612245 281.411921 
L 648 281.411921 
L 648 231972.380051 
z
" style="fill:#1f77b4;opacity:0.2;"/>
   </g>
   <g id="patch_4">
    <path clip-path="url(#paf11ffad0c)" d="M 90 231972.380051 
L 90 108.558609 
L 101.387755 108.558609 
L 101.387755 98.135058 
L 112.77551 98.135058 
L 112.77551 98.613574 
L 124.163265 98.613574 
L 124.163265 92.054908 
L 135.55102 92.054908 
L 135.55102 113.587476 
L 146.938776 113.587476 
L 146.938776 92.309185 
L 158.326531 92.309185 
L 158.326531 99.094383 
L 169.714286 99.094383 
L 169.714286 100.614594 
L 181.102041 100.614594 
L 181.102041 96.28424 
L 192.489796 96.28424 
L 192.489796 96.631234 
L 203.877551 96.631234 
L 203.877551 100.934225 
L 215.265306 100.934225 
L 215.265306 102.136593 
L 226.653061 102.136593 
L 226.653061 101.040996 
L 238.040816 101.040996 
L 238.040816 100.317188 
L 249.428571 100.317188 
L 249.428571 96.386173 
L 260.816327 96.386173 
L 260.816327 92.407156 
L 272.204082 92.407156 
L 272.204082 91.044193 
L 283.591837 91.044193 
L 283.591837 92.367956 
L 294.979592 92.367956 
L 294.979592 98.488524 
L 306.367347 98.488524 
L 306.367347 90.350384 
L 317.755102 90.350384 
L 317.755102 90.235214 
L 329.142857 90.235214 
L 329.142857 93.13513 
L 340.530612 93.13513 
L 340.530612 92.603386 
L 351.918367 92.603386 
L 351.918367 88.410253 
L 363.306122 88.410253 
L 363.306122 95.250403 
L 374.693878 95.250403 
L 374.693878 90.024412 
L 386.081633 90.024412 
L 386.081633 92.172186 
L 397.469388 92.172186 
L 397.469388 93.868424 
L 408.857143 93.868424 
L 408.857143 88.920177 
L 420.244898 88.920177 
L 420.244898 96.54948 
L 431.632653 96.54948 
L 431.632653 89.833158 
L 443.020408 89.833158 
L 443.020408 97.617508 
L 454.408163 97.617508 
L 454.408163 95.472488 
L 465.795918 95.472488 
L 465.795918 121.624378 
L 477.183673 121.624378 
L 477.183673 99.999514 
L 488.571429 99.999514 
L 488.571429 93.451573 
L 499.959184 93.451573 
L 499.959184 93.273451 
L 511.346939 93.273451 
L 511.346939 97.411233 
L 522.734694 97.411233 
L 522.734694 107.527673 
L 534.122449 107.527673 
L 534.122449 83.7 
L 545.510204 83.7 
L 545.510204 94.567049 
L 556.897959 94.567049 
L 556.897959 92.8 
L 568.285714 92.8 
L 568.285714 92.250449 
L 579.673469 92.250449 
L 579.673469 93.036446 
L 591.061224 93.036446 
L 591.061224 89.947867 
L 602.44898 89.947867 
L 602.44898 91.684426 
L 613.836735 91.684426 
L 613.836735 98.592721 
L 625.22449 98.592721 
L 625.22449 94.567049 
L 636.612245 94.567049 
L 636.612245 123.34402 
L 648 123.34402 
L 648 231972.380051 
z
" style="fill:#ff7f0e;opacity:0.2;"/>
   </g>
   <g id="matplotlib.axis_1">
    <g id="xtick_1">
     <g id="line2d_1">
      <defs>
       <path d="M 0 0 
L 0 3.5 
" id="md4930260c7" style="stroke:#000000;stroke-width:0.8;"/>
      </defs>
      <g>
       <use style="stroke:#000000;stroke-width:0.8;" x="90" xlink:href="#md4930260c7" y="480.6"/>
      </g>
     </g>
     <g id="text_1">
      <!-- 0 -->
      <defs>
       <path d="M 31.78125 66.40625 
Q 24.171875 66.40625 20.328125 58.90625 
Q 16.5 51.421875 16.5 36.375 
Q 16.5 21.390625 20.328125 13.890625 
Q 24.171875 6.390625 31.78125 6.390625 
Q 39.453125 6.390625 43.28125 13.890625 
Q 47.125 21.390625 47.125 36.375 
Q 47.125 51.421875 43.28125 58.90625 
Q 39.453125 66.40625 31.78125 66.40625 
z
M 31.78125 74.21875 
Q 44.046875 74.21875 50.515625 64.515625 
Q 56.984375 54.828125 56.984375 36.375 
Q 56.984375 17.96875 50.515625 8.265625 
Q 44.046875 -1.421875 31.78125 -1.421875 
Q 19.53125 -1.421875 13.0625 8.265625 
Q 6.59375 17.96875 6.59375 36.375 
Q 6.59375 54.828125 13.0625 64.515625 
Q 19.53125 74.21875 31.78125 74.21875 
z
" id="DejaVuSans-48"/>
      </defs>
      <g transform="translate(81.7542 507.29515)scale(0.2592 -0.2592)">
       <use xlink:href="#DejaVuSans-48"/>
      </g>
     </g>
    </g>
    <g id="xtick_2">
     <g id="line2d_2">
      <g>
       <use style="stroke:#000000;stroke-width:0.8;" x="197.638889" xlink:href="#md4930260c7" y="480.6"/>
      </g>
     </g>
     <g id="text_2">
      <!-- 200 -->
      <defs>
       <path d="M 19.1875 8.296875 
L 53.609375 8.296875 
L 53.609375 0 
L 7.328125 0 
L 7.328125 8.296875 
Q 12.9375 14.109375 22.625 23.890625 
Q 32.328125 33.6875 34.8125 36.53125 
Q 39.546875 41.84375 41.421875 45.53125 
Q 43.3125 49.21875 43.3125 52.78125 
Q 43.3125 58.59375 39.234375 62.25 
Q 35.15625 65.921875 28.609375 65.921875 
Q 23.96875 65.921875 18.8125 64.3125 
Q 13.671875 62.703125 7.8125 59.421875 
L 7.8125 69.390625 
Q 13.765625 71.78125 18.9375 73 
Q 24.125 74.21875 28.421875 74.21875 
Q 39.75 74.21875 46.484375 68.546875 
Q 53.21875 62.890625 53.21875 53.421875 
Q 53.21875 48.921875 51.53125 44.890625 
Q 49.859375 40.875 45.40625 35.40625 
Q 44.1875 33.984375 37.640625 27.21875 
Q 31.109375 20.453125 19.1875 8.296875 
z
" id="DejaVuSans-50"/>
      </defs>
      <g transform="translate(172.901489 507.29515)scale(0.2592 -0.2592)">
       <use xlink:href="#DejaVuSans-50"/>
       <use x="63.623047" xlink:href="#DejaVuSans-48"/>
       <use x="127.246094" xlink:href="#DejaVuSans-48"/>
      </g>
     </g>
    </g>
    <g id="xtick_3">
     <g id="line2d_3">
      <g>
       <use style="stroke:#000000;stroke-width:0.8;" x="305.277778" xlink:href="#md4930260c7" y="480.6"/>
      </g>
     </g>
     <g id="text_3">
      <!-- 400 -->
      <defs>
       <path d="M 37.796875 64.3125 
L 12.890625 25.390625 
L 37.796875 25.390625 
z
M 35.203125 72.90625 
L 47.609375 72.90625 
L 47.609375 25.390625 
L 58.015625 25.390625 
L 58.015625 17.1875 
L 47.609375 17.1875 
L 47.609375 0 
L 37.796875 0 
L 37.796875 17.1875 
L 4.890625 17.1875 
L 4.890625 26.703125 
z
" id="DejaVuSans-52"/>
      </defs>
      <g transform="translate(280.540378 507.29515)scale(0.2592 -0.2592)">
       <use xlink:href="#DejaVuSans-52"/>
       <use x="63.623047" xlink:href="#DejaVuSans-48"/>
       <use x="127.246094" xlink:href="#DejaVuSans-48"/>
      </g>
     </g>
    </g>
    <g id="xtick_4">
     <g id="line2d_4">
      <g>
       <use style="stroke:#000000;stroke-width:0.8;" x="412.916667" xlink:href="#md4930260c7" y="480.6"/>
      </g>
     </g>
     <g id="text_4">
      <!-- 600 -->
      <defs>
       <path d="M 33.015625 40.375 
Q 26.375 40.375 22.484375 35.828125 
Q 18.609375 31.296875 18.609375 23.390625 
Q 18.609375 15.53125 22.484375 10.953125 
Q 26.375 6.390625 33.015625 6.390625 
Q 39.65625 6.390625 43.53125 10.953125 
Q 47.40625 15.53125 47.40625 23.390625 
Q 47.40625 31.296875 43.53125 35.828125 
Q 39.65625 40.375 33.015625 40.375 
z
M 52.59375 71.296875 
L 52.59375 62.3125 
Q 48.875 64.0625 45.09375 64.984375 
Q 41.3125 65.921875 37.59375 65.921875 
Q 27.828125 65.921875 22.671875 59.328125 
Q 17.53125 52.734375 16.796875 39.40625 
Q 19.671875 43.65625 24.015625 45.921875 
Q 28.375 48.1875 33.59375 48.1875 
Q 44.578125 48.1875 50.953125 41.515625 
Q 57.328125 34.859375 57.328125 23.390625 
Q 57.328125 12.15625 50.6875 5.359375 
Q 44.046875 -1.421875 33.015625 -1.421875 
Q 20.359375 -1.421875 13.671875 8.265625 
Q 6.984375 17.96875 6.984375 36.375 
Q 6.984375 53.65625 15.1875 63.9375 
Q 23.390625 74.21875 37.203125 74.21875 
Q 40.921875 74.21875 44.703125 73.484375 
Q 48.484375 72.75 52.59375 71.296875 
z
" id="DejaVuSans-54"/>
      </defs>
      <g transform="translate(388.179267 507.29515)scale(0.2592 -0.2592)">
       <use xlink:href="#DejaVuSans-54"/>
       <use x="63.623047" xlink:href="#DejaVuSans-48"/>
       <use x="127.246094" xlink:href="#DejaVuSans-48"/>
      </g>
     </g>
    </g>
    <g id="xtick_5">
     <g id="line2d_5">
      <g>
       <use style="stroke:#000000;stroke-width:0.8;" x="520.555556" xlink:href="#md4930260c7" y="480.6"/>
      </g>
     </g>
     <g id="text_5">
      <!-- 800 -->
      <defs>
       <path d="M 31.78125 34.625 
Q 24.75 34.625 20.71875 30.859375 
Q 16.703125 27.09375 16.703125 20.515625 
Q 16.703125 13.921875 20.71875 10.15625 
Q 24.75 6.390625 31.78125 6.390625 
Q 38.8125 6.390625 42.859375 10.171875 
Q 46.921875 13.96875 46.921875 20.515625 
Q 46.921875 27.09375 42.890625 30.859375 
Q 38.875 34.625 31.78125 34.625 
z
M 21.921875 38.8125 
Q 15.578125 40.375 12.03125 44.71875 
Q 8.5 49.078125 8.5 55.328125 
Q 8.5 64.0625 14.71875 69.140625 
Q 20.953125 74.21875 31.78125 74.21875 
Q 42.671875 74.21875 48.875 69.140625 
Q 55.078125 64.0625 55.078125 55.328125 
Q 55.078125 49.078125 51.53125 44.71875 
Q 48 40.375 41.703125 38.8125 
Q 48.828125 37.15625 52.796875 32.3125 
Q 56.78125 27.484375 56.78125 20.515625 
Q 56.78125 9.90625 50.3125 4.234375 
Q 43.84375 -1.421875 31.78125 -1.421875 
Q 19.734375 -1.421875 13.25 4.234375 
Q 6.78125 9.90625 6.78125 20.515625 
Q 6.78125 27.484375 10.78125 32.3125 
Q 14.796875 37.15625 21.921875 38.8125 
z
M 18.3125 54.390625 
Q 18.3125 48.734375 21.84375 45.5625 
Q 25.390625 42.390625 31.78125 42.390625 
Q 38.140625 42.390625 41.71875 45.5625 
Q 45.3125 48.734375 45.3125 54.390625 
Q 45.3125 60.0625 41.71875 63.234375 
Q 38.140625 66.40625 31.78125 66.40625 
Q 25.390625 66.40625 21.84375 63.234375 
Q 18.3125 60.0625 18.3125 54.390625 
z
" id="DejaVuSans-56"/>
      </defs>
      <g transform="translate(495.818156 507.29515)scale(0.2592 -0.2592)">
       <use xlink:href="#DejaVuSans-56"/>
       <use x="63.623047" xlink:href="#DejaVuSans-48"/>
       <use x="127.246094" xlink:href="#DejaVuSans-48"/>
      </g>
     </g>
    </g>
    <g id="xtick_6">
     <g id="line2d_6">
      <g>
       <use style="stroke:#000000;stroke-width:0.8;" x="628.194444" xlink:href="#md4930260c7" y="480.6"/>
      </g>
     </g>
     <g id="text_6">
      <!-- 1000 -->
      <defs>
       <path d="M 12.40625 8.296875 
L 28.515625 8.296875 
L 28.515625 63.921875 
L 10.984375 60.40625 
L 10.984375 69.390625 
L 28.421875 72.90625 
L 38.28125 72.90625 
L 38.28125 8.296875 
L 54.390625 8.296875 
L 54.390625 0 
L 12.40625 0 
z
" id="DejaVuSans-49"/>
      </defs>
      <g transform="translate(595.211244 507.29515)scale(0.2592 -0.2592)">
       <use xlink:href="#DejaVuSans-49"/>
       <use x="63.623047" xlink:href="#DejaVuSans-48"/>
       <use x="127.246094" xlink:href="#DejaVuSans-48"/>
       <use x="190.869141" xlink:href="#DejaVuSans-48"/>
      </g>
     </g>
    </g>
    <g id="text_7">
     <!-- minCoordZ3D -->
     <defs>
      <path d="M 52 44.1875 
Q 55.375 50.25 60.0625 53.125 
Q 64.75 56 71.09375 56 
Q 79.640625 56 84.28125 50.015625 
Q 88.921875 44.046875 88.921875 33.015625 
L 88.921875 0 
L 79.890625 0 
L 79.890625 32.71875 
Q 79.890625 40.578125 77.09375 44.375 
Q 74.3125 48.1875 68.609375 48.1875 
Q 61.625 48.1875 57.5625 43.546875 
Q 53.515625 38.921875 53.515625 30.90625 
L 53.515625 0 
L 44.484375 0 
L 44.484375 32.71875 
Q 44.484375 40.625 41.703125 44.40625 
Q 38.921875 48.1875 33.109375 48.1875 
Q 26.21875 48.1875 22.15625 43.53125 
Q 18.109375 38.875 18.109375 30.90625 
L 18.109375 0 
L 9.078125 0 
L 9.078125 54.6875 
L 18.109375 54.6875 
L 18.109375 46.1875 
Q 21.1875 51.21875 25.484375 53.609375 
Q 29.78125 56 35.6875 56 
Q 41.65625 56 45.828125 52.96875 
Q 50 49.953125 52 44.1875 
z
" id="DejaVuSans-109"/>
      <path d="M 9.421875 54.6875 
L 18.40625 54.6875 
L 18.40625 0 
L 9.421875 0 
z
M 9.421875 75.984375 
L 18.40625 75.984375 
L 18.40625 64.59375 
L 9.421875 64.59375 
z
" id="DejaVuSans-105"/>
      <path d="M 54.890625 33.015625 
L 54.890625 0 
L 45.90625 0 
L 45.90625 32.71875 
Q 45.90625 40.484375 42.875 44.328125 
Q 39.84375 48.1875 33.796875 48.1875 
Q 26.515625 48.1875 22.3125 43.546875 
Q 18.109375 38.921875 18.109375 30.90625 
L 18.109375 0 
L 9.078125 0 
L 9.078125 54.6875 
L 18.109375 54.6875 
L 18.109375 46.1875 
Q 21.34375 51.125 25.703125 53.5625 
Q 30.078125 56 35.796875 56 
Q 45.21875 56 50.046875 50.171875 
Q 54.890625 44.34375 54.890625 33.015625 
z
" id="DejaVuSans-110"/>
      <path d="M 64.40625 67.28125 
L 64.40625 56.890625 
Q 59.421875 61.53125 53.78125 63.8125 
Q 48.140625 66.109375 41.796875 66.109375 
Q 29.296875 66.109375 22.65625 58.46875 
Q 16.015625 50.828125 16.015625 36.375 
Q 16.015625 21.96875 22.65625 14.328125 
Q 29.296875 6.6875 41.796875 6.6875 
Q 48.140625 6.6875 53.78125 8.984375 
Q 59.421875 11.28125 64.40625 15.921875 
L 64.40625 5.609375 
Q 59.234375 2.09375 53.4375 0.328125 
Q 47.65625 -1.421875 41.21875 -1.421875 
Q 24.65625 -1.421875 15.125 8.703125 
Q 5.609375 18.84375 5.609375 36.375 
Q 5.609375 53.953125 15.125 64.078125 
Q 24.65625 74.21875 41.21875 74.21875 
Q 47.75 74.21875 53.53125 72.484375 
Q 59.328125 70.75 64.40625 67.28125 
z
" id="DejaVuSans-67"/>
      <path d="M 30.609375 48.390625 
Q 23.390625 48.390625 19.1875 42.75 
Q 14.984375 37.109375 14.984375 27.296875 
Q 14.984375 17.484375 19.15625 11.84375 
Q 23.34375 6.203125 30.609375 6.203125 
Q 37.796875 6.203125 41.984375 11.859375 
Q 46.1875 17.53125 46.1875 27.296875 
Q 46.1875 37.015625 41.984375 42.703125 
Q 37.796875 48.390625 30.609375 48.390625 
z
M 30.609375 56 
Q 42.328125 56 49.015625 48.375 
Q 55.71875 40.765625 55.71875 27.296875 
Q 55.71875 13.875 49.015625 6.21875 
Q 42.328125 -1.421875 30.609375 -1.421875 
Q 18.84375 -1.421875 12.171875 6.21875 
Q 5.515625 13.875 5.515625 27.296875 
Q 5.515625 40.765625 12.171875 48.375 
Q 18.84375 56 30.609375 56 
z
" id="DejaVuSans-111"/>
      <path d="M 41.109375 46.296875 
Q 39.59375 47.171875 37.8125 47.578125 
Q 36.03125 48 33.890625 48 
Q 26.265625 48 22.1875 43.046875 
Q 18.109375 38.09375 18.109375 28.8125 
L 18.109375 0 
L 9.078125 0 
L 9.078125 54.6875 
L 18.109375 54.6875 
L 18.109375 46.1875 
Q 20.953125 51.171875 25.484375 53.578125 
Q 30.03125 56 36.53125 56 
Q 37.453125 56 38.578125 55.875 
Q 39.703125 55.765625 41.0625 55.515625 
z
" id="DejaVuSans-114"/>
      <path d="M 45.40625 46.390625 
L 45.40625 75.984375 
L 54.390625 75.984375 
L 54.390625 0 
L 45.40625 0 
L 45.40625 8.203125 
Q 42.578125 3.328125 38.25 0.953125 
Q 33.9375 -1.421875 27.875 -1.421875 
Q 17.96875 -1.421875 11.734375 6.484375 
Q 5.515625 14.40625 5.515625 27.296875 
Q 5.515625 40.1875 11.734375 48.09375 
Q 17.96875 56 27.875 56 
Q 33.9375 56 38.25 53.625 
Q 42.578125 51.265625 45.40625 46.390625 
z
M 14.796875 27.296875 
Q 14.796875 17.390625 18.875 11.75 
Q 22.953125 6.109375 30.078125 6.109375 
Q 37.203125 6.109375 41.296875 11.75 
Q 45.40625 17.390625 45.40625 27.296875 
Q 45.40625 37.203125 41.296875 42.84375 
Q 37.203125 48.484375 30.078125 48.484375 
Q 22.953125 48.484375 18.875 42.84375 
Q 14.796875 37.203125 14.796875 27.296875 
z
" id="DejaVuSans-100"/>
      <path d="M 5.609375 72.90625 
L 62.890625 72.90625 
L 62.890625 65.375 
L 16.796875 8.296875 
L 64.015625 8.296875 
L 64.015625 0 
L 4.5 0 
L 4.5 7.515625 
L 50.59375 64.59375 
L 5.609375 64.59375 
z
" id="DejaVuSans-90"/>
      <path d="M 40.578125 39.3125 
Q 47.65625 37.796875 51.625 33 
Q 55.609375 28.21875 55.609375 21.1875 
Q 55.609375 10.40625 48.1875 4.484375 
Q 40.765625 -1.421875 27.09375 -1.421875 
Q 22.515625 -1.421875 17.65625 -0.515625 
Q 12.796875 0.390625 7.625 2.203125 
L 7.625 11.71875 
Q 11.71875 9.328125 16.59375 8.109375 
Q 21.484375 6.890625 26.8125 6.890625 
Q 36.078125 6.890625 40.9375 10.546875 
Q 45.796875 14.203125 45.796875 21.1875 
Q 45.796875 27.640625 41.28125 31.265625 
Q 36.765625 34.90625 28.71875 34.90625 
L 20.21875 34.90625 
L 20.21875 43.015625 
L 29.109375 43.015625 
Q 36.375 43.015625 40.234375 45.921875 
Q 44.09375 48.828125 44.09375 54.296875 
Q 44.09375 59.90625 40.109375 62.90625 
Q 36.140625 65.921875 28.71875 65.921875 
Q 24.65625 65.921875 20.015625 65.03125 
Q 15.375 64.15625 9.8125 62.3125 
L 9.8125 71.09375 
Q 15.4375 72.65625 20.34375 73.4375 
Q 25.25 74.21875 29.59375 74.21875 
Q 40.828125 74.21875 47.359375 69.109375 
Q 53.90625 64.015625 53.90625 55.328125 
Q 53.90625 49.265625 50.4375 45.09375 
Q 46.96875 40.921875 40.578125 39.3125 
z
" id="DejaVuSans-51"/>
      <path d="M 19.671875 64.796875 
L 19.671875 8.109375 
L 31.59375 8.109375 
Q 46.6875 8.109375 53.6875 14.9375 
Q 60.6875 21.78125 60.6875 36.53125 
Q 60.6875 51.171875 53.6875 57.984375 
Q 46.6875 64.796875 31.59375 64.796875 
z
M 9.8125 72.90625 
L 30.078125 72.90625 
Q 51.265625 72.90625 61.171875 64.09375 
Q 71.09375 55.28125 71.09375 36.53125 
Q 71.09375 17.671875 61.125 8.828125 
Q 51.171875 0 30.078125 0 
L 9.8125 0 
z
" id="DejaVuSans-68"/>
     </defs>
     <g transform="translate(278.99685 536.38085)scale(0.2592 -0.2592)">
      <use xlink:href="#DejaVuSans-109"/>
      <use x="97.412109" xlink:href="#DejaVuSans-105"/>
      <use x="125.195312" xlink:href="#DejaVuSans-110"/>
      <use x="188.574219" xlink:href="#DejaVuSans-67"/>
      <use x="258.398438" xlink:href="#DejaVuSans-111"/>
      <use x="319.580078" xlink:href="#DejaVuSans-111"/>
      <use x="380.761719" xlink:href="#DejaVuSans-114"/>
      <use x="421.859375" xlink:href="#DejaVuSans-100"/>
      <use x="485.335938" xlink:href="#DejaVuSans-90"/>
      <use x="553.841797" xlink:href="#DejaVuSans-51"/>
      <use x="617.464844" xlink:href="#DejaVuSans-68"/>
     </g>
    </g>
   </g>
   <g id="matplotlib.axis_2">
    <g id="ytick_1">
     <g id="line2d_7">
      <defs>
       <path d="M 0 0 
L -3.5 0 
" id="maca1a2c88f" style="stroke:#000000;stroke-width:0.8;"/>
      </defs>
      <g>
       <use style="stroke:#000000;stroke-width:0.8;" x="90" xlink:href="#maca1a2c88f" y="256.225691"/>
      </g>
     </g>
     <g id="text_8">
      <!-- $\mathdefault{10^{3}}$ -->
      <g transform="translate(37.3808 266.073266)scale(0.2592 -0.2592)">
       <use transform="translate(0 0.765625)" xlink:href="#DejaVuSans-49"/>
       <use transform="translate(63.623047 0.765625)" xlink:href="#DejaVuSans-48"/>
       <use transform="translate(128.203125 39.046875)scale(0.7)" xlink:href="#DejaVuSans-51"/>
      </g>
     </g>
    </g>
    <g id="ytick_2">
     <g id="line2d_8">
      <defs>
       <path d="M 0 0 
L -2 0 
" id="mbb3d2676f9" style="stroke:#000000;stroke-width:0.6;"/>
      </defs>
      <g>
       <use style="stroke:#000000;stroke-width:0.6;" x="90" xlink:href="#mbb3d2676f9" y="417.703898"/>
      </g>
     </g>
    </g>
    <g id="ytick_3">
     <g id="line2d_9">
      <g>
       <use style="stroke:#000000;stroke-width:0.6;" x="90" xlink:href="#mbb3d2676f9" y="377.022752"/>
      </g>
     </g>
    </g>
    <g id="ytick_4">
     <g id="line2d_10">
      <g>
       <use style="stroke:#000000;stroke-width:0.6;" x="90" xlink:href="#mbb3d2676f9" y="348.159019"/>
      </g>
     </g>
    </g>
    <g id="ytick_5">
     <g id="line2d_11">
      <g>
       <use style="stroke:#000000;stroke-width:0.6;" x="90" xlink:href="#mbb3d2676f9" y="325.770569"/>
      </g>
     </g>
    </g>
    <g id="ytick_6">
     <g id="line2d_12">
      <g>
       <use style="stroke:#000000;stroke-width:0.6;" x="90" xlink:href="#mbb3d2676f9" y="307.477874"/>
      </g>
     </g>
    </g>
    <g id="ytick_7">
     <g id="line2d_13">
      <g>
       <use style="stroke:#000000;stroke-width:0.6;" x="90" xlink:href="#mbb3d2676f9" y="292.01162"/>
      </g>
     </g>
    </g>
    <g id="ytick_8">
     <g id="line2d_14">
      <g>
       <use style="stroke:#000000;stroke-width:0.6;" x="90" xlink:href="#mbb3d2676f9" y="278.614141"/>
      </g>
     </g>
    </g>
    <g id="ytick_9">
     <g id="line2d_15">
      <g>
       <use style="stroke:#000000;stroke-width:0.6;" x="90" xlink:href="#mbb3d2676f9" y="266.796728"/>
      </g>
     </g>
    </g>
    <g id="ytick_10">
     <g id="line2d_16">
      <g>
       <use style="stroke:#000000;stroke-width:0.6;" x="90" xlink:href="#mbb3d2676f9" y="186.680813"/>
      </g>
     </g>
    </g>
    <g id="ytick_11">
     <g id="line2d_17">
      <g>
       <use style="stroke:#000000;stroke-width:0.6;" x="90" xlink:href="#mbb3d2676f9" y="145.999667"/>
      </g>
     </g>
    </g>
    <g id="ytick_12">
     <g id="line2d_18">
      <g>
       <use style="stroke:#000000;stroke-width:0.6;" x="90" xlink:href="#mbb3d2676f9" y="117.135934"/>
      </g>
     </g>
    </g>
    <g id="ytick_13">
     <g id="line2d_19">
      <g>
       <use style="stroke:#000000;stroke-width:0.6;" x="90" xlink:href="#mbb3d2676f9" y="94.747484"/>
      </g>
     </g>
    </g>
    <g id="ytick_14">
     <g id="line2d_20">
      <g>
       <use style="stroke:#000000;stroke-width:0.6;" x="90" xlink:href="#mbb3d2676f9" y="76.454788"/>
      </g>
     </g>
    </g>
    <g id="text_9">
     <!-- Count -->
     <defs>
      <path d="M 8.5 21.578125 
L 8.5 54.6875 
L 17.484375 54.6875 
L 17.484375 21.921875 
Q 17.484375 14.15625 20.5 10.265625 
Q 23.53125 6.390625 29.59375 6.390625 
Q 36.859375 6.390625 41.078125 11.03125 
Q 45.3125 15.671875 45.3125 23.6875 
L 45.3125 54.6875 
L 54.296875 54.6875 
L 54.296875 0 
L 45.3125 0 
L 45.3125 8.40625 
Q 42.046875 3.421875 37.71875 1 
Q 33.40625 -1.421875 27.6875 -1.421875 
Q 18.265625 -1.421875 13.375 4.4375 
Q 8.5 10.296875 8.5 21.578125 
z
M 31.109375 56 
z
" id="DejaVuSans-117"/>
      <path d="M 18.3125 70.21875 
L 18.3125 54.6875 
L 36.8125 54.6875 
L 36.8125 47.703125 
L 18.3125 47.703125 
L 18.3125 18.015625 
Q 18.3125 11.328125 20.140625 9.421875 
Q 21.96875 7.515625 27.59375 7.515625 
L 36.8125 7.515625 
L 36.8125 0 
L 27.59375 0 
Q 17.1875 0 13.234375 3.875 
Q 9.28125 7.765625 9.28125 18.015625 
L 9.28125 47.703125 
L 2.6875 47.703125 
L 2.6875 54.6875 
L 9.28125 54.6875 
L 9.28125 70.21875 
z
" id="DejaVuSans-116"/>
     </defs>
     <g transform="translate(27.99025 311.18715)rotate(-90)scale(0.2592 -0.2592)">
      <use xlink:href="#DejaVuSans-67"/>
      <use x="69.824219" xlink:href="#DejaVuSans-111"/>
      <use x="131.005859" xlink:href="#DejaVuSans-117"/>
      <use x="194.384766" xlink:href="#DejaVuSans-110"/>
      <use x="257.763672" xlink:href="#DejaVuSans-116"/>
     </g>
    </g>
   </g>
   <g id="line2d_21">
    <path clip-path="url(#paf11ffad0c)" d="M 90 307.980792 
L 101.387755 307.980792 
L 101.387755 271.008674 
L 112.77551 271.008674 
L 112.77551 275.770282 
L 124.163265 275.770282 
L 124.163265 259.800239 
L 135.55102 259.800239 
L 135.55102 293.01999 
L 146.938776 293.01999 
L 146.938776 247.4873 
L 158.326531 247.4873 
L 158.326531 264.809889 
L 169.714286 264.809889 
L 169.714286 271.591663 
L 181.102041 271.591663 
L 181.102041 261.477721 
L 192.489796 261.477721 
L 192.489796 249.43736 
L 203.877551 249.43736 
L 203.877551 263.831032 
L 215.265306 263.831032 
L 215.265306 264.047732 
L 226.653061 264.047732 
L 226.653061 258.048119 
L 238.040816 258.048119 
L 238.040816 260.530689 
L 249.428571 260.530689 
L 249.428571 247.028534 
L 260.816327 247.028534 
L 260.816327 248.876322 
L 272.204082 248.876322 
L 272.204082 249.249998 
L 283.591837 249.249998 
L 283.591837 238.351919 
L 294.979592 238.351919 
L 294.979592 258.355102 
L 306.367347 258.355102 
L 306.367347 235.618809 
L 317.755102 235.618809 
L 317.755102 235.292526 
L 329.142857 235.292526 
L 329.142857 235.21112 
L 340.530612 235.21112 
L 340.530612 234.886158 
L 351.918367 234.886158 
L 351.918367 230.676915 
L 363.306122 230.676915 
L 363.306122 237.100359 
L 374.693878 237.100359 
L 374.693878 235.129781 
L 386.081633 235.129781 
L 386.081633 235.86422 
L 397.469388 235.86422 
L 397.469388 245.124299 
L 408.857143 245.124299 
L 408.857143 241.507543 
L 420.244898 241.507543 
L 420.244898 248.318404 
L 431.632653 248.318404 
L 431.632653 240.21625 
L 443.020408 240.21625 
L 443.020408 240.558973 
L 454.408163 240.558973 
L 454.408163 245.845467 
L 465.795918 245.845467 
L 465.795918 313.330802 
L 477.183673 313.330802 
L 477.183673 274.79971 
L 488.571429 274.79971 
L 488.571429 242.640266 
L 499.959184 242.640266 
L 499.959184 244.586804 
L 511.346939 244.586804 
L 511.346939 241.680978 
L 522.734694 241.680978 
L 522.734694 267.131726 
L 534.122449 267.131726 
L 534.122449 224.34757 
L 545.510204 224.34757 
L 545.510204 241.941694 
L 556.897959 241.941694 
L 556.897959 252.968191 
L 568.285714 252.968191 
L 568.285714 237.017474 
L 579.673469 237.017474 
L 579.673469 238.941366 
L 591.061224 238.941366 
L 591.061224 237.932995 
L 602.44898 237.932995 
L 602.44898 238.604115 
L 613.836735 238.604115 
L 613.836735 245.574421 
L 625.22449 245.574421 
L 625.22449 249.813136 
L 636.612245 249.813136 
L 636.612245 281.411921 
L 648 281.411921 
" style="fill:none;stroke:#1f77b4;stroke-linecap:square;stroke-width:1.5;"/>
   </g>
   <g id="line2d_22">
    <path clip-path="url(#paf11ffad0c)" d="M 90 108.558609 
L 101.387755 108.558609 
L 101.387755 98.135058 
L 112.77551 98.135058 
L 112.77551 98.613574 
L 124.163265 98.613574 
L 124.163265 92.054908 
L 135.55102 92.054908 
L 135.55102 113.587476 
L 146.938776 113.587476 
L 146.938776 92.309185 
L 158.326531 92.309185 
L 158.326531 99.094383 
L 169.714286 99.094383 
L 169.714286 100.614594 
L 181.102041 100.614594 
L 181.102041 96.28424 
L 192.489796 96.28424 
L 192.489796 96.631234 
L 203.877551 96.631234 
L 203.877551 100.934225 
L 215.265306 100.934225 
L 215.265306 102.136593 
L 226.653061 102.136593 
L 226.653061 101.040996 
L 238.040816 101.040996 
L 238.040816 100.317188 
L 249.428571 100.317188 
L 249.428571 96.386173 
L 260.816327 96.386173 
L 260.816327 92.407156 
L 272.204082 92.407156 
L 272.204082 91.044193 
L 283.591837 91.044193 
L 283.591837 92.367956 
L 294.979592 92.367956 
L 294.979592 98.488524 
L 306.367347 98.488524 
L 306.367347 90.350384 
L 317.755102 90.350384 
L 317.755102 90.235214 
L 329.142857 90.235214 
L 329.142857 93.13513 
L 340.530612 93.13513 
L 340.530612 92.603386 
L 351.918367 92.603386 
L 351.918367 88.410253 
L 363.306122 88.410253 
L 363.306122 95.250403 
L 374.693878 95.250403 
L 374.693878 90.024412 
L 386.081633 90.024412 
L 386.081633 92.172186 
L 397.469388 92.172186 
L 397.469388 93.868424 
L 408.857143 93.868424 
L 408.857143 88.920177 
L 420.244898 88.920177 
L 420.244898 96.54948 
L 431.632653 96.54948 
L 431.632653 89.833158 
L 443.020408 89.833158 
L 443.020408 97.617508 
L 454.408163 97.617508 
L 454.408163 95.472488 
L 465.795918 95.472488 
L 465.795918 121.624378 
L 477.183673 121.624378 
L 477.183673 99.999514 
L 488.571429 99.999514 
L 488.571429 93.451573 
L 499.959184 93.451573 
L 499.959184 93.273451 
L 511.346939 93.273451 
L 511.346939 97.411233 
L 522.734694 97.411233 
L 522.734694 107.527673 
L 534.122449 107.527673 
L 534.122449 83.7 
L 545.510204 83.7 
L 545.510204 94.567049 
L 556.897959 94.567049 
L 556.897959 92.8 
L 568.285714 92.8 
L 568.285714 92.250449 
L 579.673469 92.250449 
L 579.673469 93.036446 
L 591.061224 93.036446 
L 591.061224 89.947867 
L 602.44898 89.947867 
L 602.44898 91.684426 
L 613.836735 91.684426 
L 613.836735 98.592721 
L 625.22449 98.592721 
L 625.22449 94.567049 
L 636.612245 94.567049 
L 636.612245 123.34402 
L 648 123.34402 
" style="fill:none;stroke:#ff7f0e;stroke-linecap:square;stroke-width:1.5;"/>
   </g>
   <g id="line2d_23">
    <path clip-path="url(#paf11ffad0c)" d="M 90 187.739869 
L 101.387755 187.739869 
L 101.387755 170.799756 
L 112.77551 170.799756 
L 112.77551 175.849251 
L 124.163265 175.849251 
L 124.163265 164.453022 
L 135.55102 164.453022 
L 135.55102 193.316755 
L 146.938776 193.316755 
L 146.938776 171.487259 
L 158.326531 171.487259 
L 158.326531 171.659873 
L 169.714286 171.659873 
L 169.714286 173.183052 
L 181.102041 173.183052 
L 181.102041 169.396488 
L 192.489796 169.396488 
L 192.489796 167.059196 
L 203.877551 167.059196 
L 203.877551 174.908001 
L 215.265306 174.908001 
L 215.265306 178.357113 
L 226.653061 178.357113 
L 226.653061 172.1361 
L 238.040816 172.1361 
L 238.040816 175.984439 
L 249.428571 175.984439 
L 249.428571 167.804547 
L 260.816327 167.804547 
L 260.816327 164.212129 
L 272.204082 164.212129 
L 272.204082 166.647492 
L 283.591837 166.647492 
L 283.591837 162.502447 
L 294.979592 162.502447 
L 294.979592 169.059237 
L 306.367347 169.059237 
L 306.367347 164.172036 
L 317.755102 164.172036 
L 317.755102 160.357268 
L 329.142857 160.357268 
L 329.142857 163.85187 
L 340.530612 163.85187 
L 340.530612 164.65421 
L 351.918367 164.65421 
L 351.918367 157.691744 
L 363.306122 157.691744 
L 363.306122 167.14174 
L 374.693878 167.14174 
L 374.693878 158.14369 
L 386.081633 158.14369 
L 386.081633 161.834481 
L 397.469388 161.834481 
L 397.469388 162.226863 
L 408.857143 162.226863 
L 408.857143 158.711502 
L 420.244898 158.711502 
L 420.244898 165.544258 
L 431.632653 165.544258 
L 431.632653 158.901489 
L 443.020408 158.901489 
L 443.020408 168.095908 
L 454.408163 168.095908 
L 454.408163 165.057798 
L 465.795918 165.057798 
L 465.795918 197.363391 
L 477.183673 197.363391 
L 477.183673 187.689183 
L 488.571429 187.689183 
L 488.571429 163.373528 
L 499.959184 163.373528 
L 499.959184 162.818329 
L 511.346939 162.818329 
L 511.346939 167.10046 
L 522.734694 167.10046 
L 522.734694 180.174182 
L 534.122449 180.174182 
L 534.122449 156.422173 
L 545.510204 156.422173 
L 545.510204 163.652283 
L 556.897959 163.652283 
L 556.897959 164.011825 
L 568.285714 164.011825 
L 568.285714 161.326667 
L 579.673469 161.326667 
L 579.673469 162.148264 
L 591.061224 162.148264 
L 591.061224 157.504031 
L 602.44898 157.504031 
L 602.44898 161.560723 
L 613.836735 161.560723 
L 613.836735 168.59736 
L 625.22449 168.59736 
L 625.22449 162.581324 
L 636.612245 162.581324 
L 636.612245 190.724324 
L 648 190.724324 
" style="fill:none;stroke:#2ca02c;stroke-linecap:square;stroke-width:1.5;"/>
   </g>
   <g id="line2d_24">
    <path clip-path="url(#paf11ffad0c)" d="M 90 194.883209 
L 101.387755 194.883209 
L 101.387755 192.622412 
L 112.77551 192.622412 
L 112.77551 189.478592 
L 124.163265 189.478592 
L 124.163265 187.892079 
L 135.55102 187.892079 
L 135.55102 200.768652 
L 146.938776 200.768652 
L 146.938776 179.238241 
L 158.326531 179.238241 
L 158.326531 194.502854 
L 169.714286 194.502854 
L 169.714286 196.033002 
L 181.102041 196.033002 
L 181.102041 189.89212 
L 192.489796 189.89212 
L 192.489796 191.721617 
L 203.877551 191.721617 
L 203.877551 194.61138 
L 215.265306 194.61138 
L 215.265306 194.448635 
L 226.653061 194.448635 
L 226.653061 197.029137 
L 238.040816 197.029137 
L 238.040816 193.102599 
L 249.428571 193.102599 
L 249.428571 194.502854 
L 260.816327 194.502854 
L 260.816327 190.359385 
L 272.204082 190.359385 
L 272.204082 184.252307 
L 283.591837 184.252307 
L 283.591837 192.197501 
L 294.979592 192.197501 
L 294.979592 196.695992 
L 306.367347 196.695992 
L 306.367347 187.436139 
L 317.755102 187.436139 
L 317.755102 189.943931 
L 329.142857 189.943931 
L 329.142857 191.300495 
L 340.530612 191.300495 
L 340.530612 190.619921 
L 351.918367 190.619921 
L 351.918367 189.375476 
L 363.306122 189.375476 
L 363.306122 193.20962 
L 374.693878 193.20962 
L 374.693878 192.835545 
L 386.081633 192.835545 
L 386.081633 193.263173 
L 397.469388 193.263173 
L 397.469388 193.692631 
L 408.857143 193.692631 
L 408.857143 191.458209 
L 420.244898 191.458209 
L 420.244898 198.994843 
L 431.632653 198.994843 
L 431.632653 191.827174 
L 443.020408 191.827174 
L 443.020408 198.938142 
L 454.408163 198.938142 
L 454.408163 195.374365 
L 465.795918 195.374365 
L 465.795918 213.230359 
L 477.183673 213.230359 
L 477.183673 180.692695 
L 488.571429 180.692695 
L 488.571429 191.616171 
L 499.959184 191.616171 
L 499.959184 193.585094 
L 511.346939 193.585094 
L 511.346939 196.419213 
L 522.734694 196.419213 
L 522.734694 203.459935 
L 534.122449 203.459935 
L 534.122449 180.834574 
L 545.510204 180.834574 
L 545.510204 194.015936 
L 556.897959 194.015936 
L 556.897959 189.221 
L 568.285714 189.221 
L 568.285714 195.04666 
L 579.673469 195.04666 
L 579.673469 194.557102 
L 591.061224 194.557102 
L 591.061224 191.66888 
L 602.44898 191.66888 
L 602.44898 194.015936 
L 613.836735 194.015936 
L 613.836735 198.938142 
L 625.22449 198.938142 
L 625.22449 197.586848 
L 636.612245 197.586848 
L 636.612245 226.637175 
L 648 226.637175 
" style="fill:none;stroke:#d62728;stroke-linecap:square;stroke-width:1.5;"/>
   </g>
   <g id="line2d_25">
    <path clip-path="url(#paf11ffad0c)" d="M 90 457.138667 
L 101.387755 457.138667 
L 101.387755 420.759933 
L 112.77551 420.759933 
L 112.77551 433.421296 
L 124.163265 433.421296 
L 124.163265 409.982239 
L 135.55102 409.982239 
L 135.55102 461.7 
L 146.938776 461.7 
L 146.938776 407.233243 
L 158.326531 407.233243 
L 158.326531 403.681295 
L 169.714286 403.681295 
L 169.714286 423.911984 
L 181.102041 423.911984 
L 181.102041 413.287593 
L 192.489796 413.287593 
L 192.489796 392.544761 
L 203.877551 392.544761 
L 203.877551 404.118473 
L 215.265306 404.118473 
L 215.265306 400.250806 
L 226.653061 400.250806 
L 226.653061 392.544761 
L 238.040816 392.544761 
L 238.040816 393.722842 
L 249.428571 393.722842 
L 249.428571 374.057057 
L 260.816327 374.057057 
L 260.816327 374.057057 
L 272.204082 374.057057 
L 272.204082 379.391578 
L 283.591837 379.391578 
L 283.591837 362.420194 
L 294.979592 362.420194 
L 294.979592 382.521775 
L 306.367347 382.521775 
L 306.367347 371.809525 
L 317.755102 371.809525 
L 317.755102 368.376367 
L 329.142857 368.376367 
L 329.142857 367.156509 
L 340.530612 367.156509 
L 340.530612 359.009144 
L 351.918367 359.009144 
L 351.918367 358.451742 
L 363.306122 358.451742 
L 363.306122 360.416349 
L 374.693878 360.416349 
L 374.693878 357.346144 
L 386.081633 357.346144 
L 386.081633 350.185999 
L 397.469388 350.185999 
L 397.469388 365.056808 
L 408.857143 365.056808 
L 408.857143 360.984804 
L 420.244898 360.984804 
L 420.244898 361.270244 
L 431.632653 361.270244 
L 431.632653 361.843571 
L 443.020408 361.843571 
L 443.020408 357.621403 
L 454.408163 357.621403 
L 454.408163 359.009144 
L 465.795918 359.009144 
L 465.795918 441.991434 
L 477.183673 441.991434 
L 477.183673 419.22028 
L 488.571429 419.22028 
L 488.571429 375.364333 
L 499.959184 375.364333 
L 499.959184 383.230838 
L 511.346939 383.230838 
L 511.346939 359.56966 
L 522.734694 359.56966 
L 522.734694 394.11863 
L 534.122449 394.11863 
L 534.122449 341.605383 
L 545.510204 341.605383 
L 545.510204 364.170216 
L 556.897959 364.170216 
L 556.897959 367.460086 
L 568.285714 367.460086 
L 568.285714 357.89742 
L 579.673469 357.89742 
L 579.673469 361.270244 
L 591.061224 361.270244 
L 591.061224 360.133324 
L 602.44898 360.133324 
L 602.44898 350.442275 
L 613.836735 350.442275 
L 613.836735 356.252596 
L 625.22449 356.252596 
L 625.22449 364.464877 
L 636.612245 364.464877 
L 636.612245 387.222875 
L 648 387.222875 
" style="fill:none;stroke:#9467bd;stroke-linecap:square;stroke-width:1.5;"/>
   </g>
   <g id="line2d_26">
    <path clip-path="url(#paf11ffad0c)" d="M 90 333.701136 
L 101.387755 333.701136 
L 101.387755 296.556288 
L 112.77551 296.556288 
L 112.77551 299.138784 
L 124.163265 299.138784 
L 124.163265 285.223289 
L 135.55102 285.223289 
L 135.55102 313.68596 
L 146.938776 313.68596 
L 146.938776 270.31353 
L 158.326531 270.31353 
L 158.326531 293.746511 
L 169.714286 293.746511 
L 169.714286 296.406427 
L 181.102041 296.406427 
L 181.102041 286.436182 
L 192.489796 286.436182 
L 192.489796 276.99685 
L 203.877551 276.99685 
L 203.877551 292.298693 
L 215.265306 292.298693 
L 215.265306 293.892449 
L 226.653061 293.892449 
L 226.653061 288.490836 
L 238.040816 288.490836 
L 238.040816 291.439925 
L 249.428571 291.439925 
L 249.428571 280.257929 
L 260.816327 280.257929 
L 260.816327 282.840621 
L 272.204082 282.840621 
L 272.204082 281.283042 
L 283.591837 281.283042 
L 283.591837 272.767902 
L 294.979592 272.767902 
L 294.979592 292.730849 
L 306.367347 292.730849 
L 306.367347 265.467807 
L 317.755102 265.467807 
L 317.755102 266.24087 
L 329.142857 266.24087 
L 329.142857 266.574015 
L 340.530612 266.574015 
L 340.530612 269.279762 
L 351.918367 269.279762 
L 351.918367 263.614799 
L 363.306122 263.614799 
L 363.306122 271.82581 
L 374.693878 271.82581 
L 374.693878 270.31353 
L 386.081633 270.31353 
L 386.081633 274.558528 
L 397.469388 274.558528 
L 397.469388 281.283042 
L 408.857143 281.283042 
L 408.857143 277.864459 
L 420.244898 277.864459 
L 420.244898 287.663918 
L 431.632653 287.663918 
L 431.632653 275.648446 
L 443.020408 275.648446 
L 443.020408 277.989017 
L 454.408163 277.989017 
L 454.408163 285.089423 
L 465.795918 285.089423 
L 465.795918 345.92657 
L 477.183673 345.92657 
L 477.183673 301.947641 
L 488.571429 301.947641 
L 488.571429 273.718924 
L 499.959184 273.718924 
L 499.959184 273.599552 
L 511.346939 273.599552 
L 511.346939 278.739635 
L 522.734694 278.739635 
L 522.734694 300.377467 
L 534.122449 300.377467 
L 534.122449 261.689392 
L 545.510204 261.689392 
L 545.510204 277.120336 
L 556.897959 277.120336 
L 556.897959 291.582544 
L 568.285714 291.582544 
L 568.285714 272.767902 
L 579.673469 272.767902 
L 579.673469 274.077894 
L 591.061224 274.077894 
L 591.061224 273.12348 
L 602.44898 273.12348 
L 602.44898 278.488804 
L 613.836735 278.488804 
L 613.836735 286.030253 
L 625.22449 286.030253 
L 625.22449 288.352542 
L 636.612245 288.352542 
L 636.612245 324.375662 
L 648 324.375662 
" style="fill:none;stroke:#8c564b;stroke-linecap:square;stroke-width:1.5;"/>
   </g>
   <g id="line2d_27">
    <path clip-path="url(#paf11ffad0c)" d="M 90 326.374375 
L 101.387755 326.374375 
L 101.387755 315.662125 
L 112.77551 315.662125 
L 112.77551 306.811213 
L 124.163265 306.811213 
L 124.163265 306.645238 
L 135.55102 306.645238 
L 135.55102 327.797548 
L 146.938776 327.797548 
L 146.938776 309.504853 
L 158.326531 309.504853 
L 158.326531 315.119299 
L 169.714286 315.119299 
L 169.714286 316.573412 
L 181.102041 316.573412 
L 181.102041 316.756667 
L 192.489796 316.756667 
L 192.489796 322.028607 
L 203.877551 322.028607 
L 203.877551 316.390491 
L 215.265306 316.390491 
L 215.265306 314.042379 
L 226.653061 314.042379 
L 226.653061 321.642714 
L 238.040816 321.642714 
L 238.040816 314.042379 
L 249.428571 314.042379 
L 249.428571 306.977463 
L 260.816327 306.977463 
L 260.816327 305.163687 
L 272.204082 305.163687 
L 272.204082 301.159483 
L 283.591837 301.159483 
L 283.591837 306.148953 
L 294.979592 306.148953 
L 294.979592 314.75904 
L 306.367347 314.75904 
L 306.367347 294.77256 
L 317.755102 294.77256 
L 317.755102 305.819455 
L 329.142857 305.819455 
L 329.142857 307.980792 
L 340.530612 307.980792 
L 340.530612 303.061569 
L 351.918367 303.061569 
L 351.918367 301.947641 
L 363.306122 301.947641 
L 363.306122 305.655111 
L 374.693878 305.655111 
L 374.693878 303.061569 
L 386.081633 303.061569 
L 386.081633 303.382119 
L 397.469388 303.382119 
L 397.469388 312.097556 
L 408.857143 312.097556 
L 408.857143 295.067654 
L 420.244898 295.067654 
L 420.244898 306.645238 
L 431.632653 306.645238 
L 431.632653 300.377467 
L 443.020408 300.377467 
L 443.020408 305.163687 
L 454.408163 305.163687 
L 454.408163 309.8467 
L 465.795918 309.8467 
L 465.795918 338.368585 
L 477.183673 338.368585 
L 477.183673 310.533908 
L 488.571429 310.533908 
L 488.571429 308.824633 
L 499.959184 308.824633 
L 499.959184 305.655111 
L 511.346939 305.655111 
L 511.346939 316.207903 
L 522.734694 316.207903 
L 522.734694 322.610243 
L 534.122449 322.610243 
L 534.122449 295.80921 
L 545.510204 295.80921 
L 545.510204 311.399591 
L 556.897959 311.399591 
L 556.897959 311.052421 
L 568.285714 311.052421 
L 568.285714 300.377467 
L 579.673469 300.377467 
L 579.673469 305.655111 
L 591.061224 305.655111 
L 591.061224 310.189716 
L 602.44898 310.189716 
L 602.44898 299.138784 
L 613.836735 299.138784 
L 613.836735 312.097556 
L 625.22449 312.097556 
L 625.22449 304.34996 
L 636.612245 304.34996 
L 636.612245 337.914593 
L 648 337.914593 
" style="fill:none;stroke:#e377c2;stroke-linecap:square;stroke-width:1.5;"/>
   </g>
   <g id="line2d_28">
    <path clip-path="url(#paf11ffad0c)" d="M 637.236111 480.6 
L 637.236111 64.8 
" style="fill:none;stroke:#000000;stroke-linecap:square;stroke-width:1.5;"/>
   </g>
   <g id="patch_5">
    <path d="M 90 480.6 
L 90 64.8 
" style="fill:none;stroke:#000000;stroke-linecap:square;stroke-linejoin:miter;stroke-width:0.8;"/>
   </g>
   <g id="patch_6">
    <path d="M 648 480.6 
L 648 64.8 
" style="fill:none;stroke:#000000;stroke-linecap:square;stroke-linejoin:miter;stroke-width:0.8;"/>
   </g>
   <g id="patch_7">
    <path d="M 90 480.6 
L 648 480.6 
" style="fill:none;stroke:#000000;stroke-linecap:square;stroke-linejoin:miter;stroke-width:0.8;"/>
   </g>
   <g id="patch_8">
    <path d="M 90 64.8 
L 648 64.8 
" style="fill:none;stroke:#000000;stroke-linecap:square;stroke-linejoin:miter;stroke-width:0.8;"/>
   </g>
   <g id="patch_9">
    <path d="M 591.47108 93.906 
Q 612.235051 93.906 635.235089 93.906 
" style="fill:none;stroke:#000000;stroke-linecap:round;stroke-width:2;"/>
    <path d="M 597.47108 96.906 
L 591.47108 93.906 
L 597.47108 90.906 
L 597.47108 96.906 
z
" style="fill:#1f77b4;stroke:#000000;stroke-linecap:round;stroke-width:2;"/>
   </g>
   <g id="legend_1">
    <g id="patch_10">
     <path d="M 385.194375 264.144375 
L 635.4 264.144375 
Q 639 264.144375 639 260.544375 
L 639 77.4 
Q 639 73.8 635.4 73.8 
L 385.194375 73.8 
Q 381.594375 73.8 381.594375 77.4 
L 381.594375 260.544375 
Q 381.594375 264.144375 385.194375 264.144375 
z
" style="fill:#ffffff;opacity:0.5;stroke:#cccccc;stroke-linejoin:miter;"/>
    </g>
    <g id="line2d_29">
     <path d="M 388.794375 88.377188 
L 424.794375 88.377188 
" style="fill:none;stroke:#1f77b4;stroke-linecap:square;stroke-width:1.5;"/>
    </g>
    <g id="line2d_30"/>
    <g id="text_10">
     <!-- Showers -->
     <defs>
      <path d="M 53.515625 70.515625 
L 53.515625 60.890625 
Q 47.90625 63.578125 42.921875 64.890625 
Q 37.9375 66.21875 33.296875 66.21875 
Q 25.25 66.21875 20.875 63.09375 
Q 16.5 59.96875 16.5 54.203125 
Q 16.5 49.359375 19.40625 46.890625 
Q 22.3125 44.4375 30.421875 42.921875 
L 36.375 41.703125 
Q 47.40625 39.59375 52.65625 34.296875 
Q 57.90625 29 57.90625 20.125 
Q 57.90625 9.515625 50.796875 4.046875 
Q 43.703125 -1.421875 29.984375 -1.421875 
Q 24.8125 -1.421875 18.96875 -0.25 
Q 13.140625 0.921875 6.890625 3.21875 
L 6.890625 13.375 
Q 12.890625 10.015625 18.65625 8.296875 
Q 24.421875 6.59375 29.984375 6.59375 
Q 38.421875 6.59375 43.015625 9.90625 
Q 47.609375 13.234375 47.609375 19.390625 
Q 47.609375 24.75 44.3125 27.78125 
Q 41.015625 30.8125 33.5 32.328125 
L 27.484375 33.5 
Q 16.453125 35.6875 11.515625 40.375 
Q 6.59375 45.0625 6.59375 53.421875 
Q 6.59375 63.09375 13.40625 68.65625 
Q 20.21875 74.21875 32.171875 74.21875 
Q 37.3125 74.21875 42.625 73.28125 
Q 47.953125 72.359375 53.515625 70.515625 
z
" id="DejaVuSans-83"/>
      <path d="M 54.890625 33.015625 
L 54.890625 0 
L 45.90625 0 
L 45.90625 32.71875 
Q 45.90625 40.484375 42.875 44.328125 
Q 39.84375 48.1875 33.796875 48.1875 
Q 26.515625 48.1875 22.3125 43.546875 
Q 18.109375 38.921875 18.109375 30.90625 
L 18.109375 0 
L 9.078125 0 
L 9.078125 75.984375 
L 18.109375 75.984375 
L 18.109375 46.1875 
Q 21.34375 51.125 25.703125 53.5625 
Q 30.078125 56 35.796875 56 
Q 45.21875 56 50.046875 50.171875 
Q 54.890625 44.34375 54.890625 33.015625 
z
" id="DejaVuSans-104"/>
      <path d="M 4.203125 54.6875 
L 13.1875 54.6875 
L 24.421875 12.015625 
L 35.59375 54.6875 
L 46.1875 54.6875 
L 57.421875 12.015625 
L 68.609375 54.6875 
L 77.59375 54.6875 
L 63.28125 0 
L 52.6875 0 
L 40.921875 44.828125 
L 29.109375 0 
L 18.5 0 
z
" id="DejaVuSans-119"/>
      <path d="M 56.203125 29.59375 
L 56.203125 25.203125 
L 14.890625 25.203125 
Q 15.484375 15.921875 20.484375 11.0625 
Q 25.484375 6.203125 34.421875 6.203125 
Q 39.59375 6.203125 44.453125 7.46875 
Q 49.3125 8.734375 54.109375 11.28125 
L 54.109375 2.78125 
Q 49.265625 0.734375 44.1875 -0.34375 
Q 39.109375 -1.421875 33.890625 -1.421875 
Q 20.796875 -1.421875 13.15625 6.1875 
Q 5.515625 13.8125 5.515625 26.8125 
Q 5.515625 40.234375 12.765625 48.109375 
Q 20.015625 56 32.328125 56 
Q 43.359375 56 49.78125 48.890625 
Q 56.203125 41.796875 56.203125 29.59375 
z
M 47.21875 32.234375 
Q 47.125 39.59375 43.09375 43.984375 
Q 39.0625 48.390625 32.421875 48.390625 
Q 24.90625 48.390625 20.390625 44.140625 
Q 15.875 39.890625 15.1875 32.171875 
z
" id="DejaVuSans-101"/>
      <path d="M 44.28125 53.078125 
L 44.28125 44.578125 
Q 40.484375 46.53125 36.375 47.5 
Q 32.28125 48.484375 27.875 48.484375 
Q 21.1875 48.484375 17.84375 46.4375 
Q 14.5 44.390625 14.5 40.28125 
Q 14.5 37.15625 16.890625 35.375 
Q 19.28125 33.59375 26.515625 31.984375 
L 29.59375 31.296875 
Q 39.15625 29.25 43.1875 25.515625 
Q 47.21875 21.78125 47.21875 15.09375 
Q 47.21875 7.46875 41.1875 3.015625 
Q 35.15625 -1.421875 24.609375 -1.421875 
Q 20.21875 -1.421875 15.453125 -0.5625 
Q 10.6875 0.296875 5.421875 2 
L 5.421875 11.28125 
Q 10.40625 8.6875 15.234375 7.390625 
Q 20.0625 6.109375 24.8125 6.109375 
Q 31.15625 6.109375 34.5625 8.28125 
Q 37.984375 10.453125 37.984375 14.40625 
Q 37.984375 18.0625 35.515625 20.015625 
Q 33.0625 21.96875 24.703125 23.78125 
L 21.578125 24.515625 
Q 13.234375 26.265625 9.515625 29.90625 
Q 5.8125 33.546875 5.8125 39.890625 
Q 5.8125 47.609375 11.28125 51.796875 
Q 16.75 56 26.8125 56 
Q 31.78125 56 36.171875 55.265625 
Q 40.578125 54.546875 44.28125 53.078125 
z
" id="DejaVuSans-115"/>
     </defs>
     <g transform="translate(439.194375 94.677188)scale(0.18 -0.18)">
      <use xlink:href="#DejaVuSans-83"/>
      <use x="63.476562" xlink:href="#DejaVuSans-104"/>
      <use x="126.855469" xlink:href="#DejaVuSans-111"/>
      <use x="188.037109" xlink:href="#DejaVuSans-119"/>
      <use x="269.824219" xlink:href="#DejaVuSans-101"/>
      <use x="331.347656" xlink:href="#DejaVuSans-114"/>
      <use x="372.460938" xlink:href="#DejaVuSans-115"/>
     </g>
    </g>
    <g id="line2d_31">
     <path d="M 388.794375 114.797813 
L 424.794375 114.797813 
" style="fill:none;stroke:#ff7f0e;stroke-linecap:square;stroke-width:1.5;"/>
    </g>
    <g id="line2d_32"/>
    <g id="text_11">
     <!-- Tracks -->
     <defs>
      <path d="M -0.296875 72.90625 
L 61.375 72.90625 
L 61.375 64.59375 
L 35.5 64.59375 
L 35.5 0 
L 25.59375 0 
L 25.59375 64.59375 
L -0.296875 64.59375 
z
" id="DejaVuSans-84"/>
      <path d="M 34.28125 27.484375 
Q 23.390625 27.484375 19.1875 25 
Q 14.984375 22.515625 14.984375 16.5 
Q 14.984375 11.71875 18.140625 8.90625 
Q 21.296875 6.109375 26.703125 6.109375 
Q 34.1875 6.109375 38.703125 11.40625 
Q 43.21875 16.703125 43.21875 25.484375 
L 43.21875 27.484375 
z
M 52.203125 31.203125 
L 52.203125 0 
L 43.21875 0 
L 43.21875 8.296875 
Q 40.140625 3.328125 35.546875 0.953125 
Q 30.953125 -1.421875 24.3125 -1.421875 
Q 15.921875 -1.421875 10.953125 3.296875 
Q 6 8.015625 6 15.921875 
Q 6 25.140625 12.171875 29.828125 
Q 18.359375 34.515625 30.609375 34.515625 
L 43.21875 34.515625 
L 43.21875 35.40625 
Q 43.21875 41.609375 39.140625 45 
Q 35.0625 48.390625 27.6875 48.390625 
Q 23 48.390625 18.546875 47.265625 
Q 14.109375 46.140625 10.015625 43.890625 
L 10.015625 52.203125 
Q 14.9375 54.109375 19.578125 55.046875 
Q 24.21875 56 28.609375 56 
Q 40.484375 56 46.34375 49.84375 
Q 52.203125 43.703125 52.203125 31.203125 
z
" id="DejaVuSans-97"/>
      <path d="M 48.78125 52.59375 
L 48.78125 44.1875 
Q 44.96875 46.296875 41.140625 47.34375 
Q 37.3125 48.390625 33.40625 48.390625 
Q 24.65625 48.390625 19.8125 42.84375 
Q 14.984375 37.3125 14.984375 27.296875 
Q 14.984375 17.28125 19.8125 11.734375 
Q 24.65625 6.203125 33.40625 6.203125 
Q 37.3125 6.203125 41.140625 7.25 
Q 44.96875 8.296875 48.78125 10.40625 
L 48.78125 2.09375 
Q 45.015625 0.34375 40.984375 -0.53125 
Q 36.96875 -1.421875 32.421875 -1.421875 
Q 20.0625 -1.421875 12.78125 6.34375 
Q 5.515625 14.109375 5.515625 27.296875 
Q 5.515625 40.671875 12.859375 48.328125 
Q 20.21875 56 33.015625 56 
Q 37.15625 56 41.109375 55.140625 
Q 45.0625 54.296875 48.78125 52.59375 
z
" id="DejaVuSans-99"/>
      <path d="M 9.078125 75.984375 
L 18.109375 75.984375 
L 18.109375 31.109375 
L 44.921875 54.6875 
L 56.390625 54.6875 
L 27.390625 29.109375 
L 57.625 0 
L 45.90625 0 
L 18.109375 26.703125 
L 18.109375 0 
L 9.078125 0 
z
" id="DejaVuSans-107"/>
     </defs>
     <g transform="translate(439.194375 121.097813)scale(0.18 -0.18)">
      <use xlink:href="#DejaVuSans-84"/>
      <use x="60.865234" xlink:href="#DejaVuSans-114"/>
      <use x="101.978516" xlink:href="#DejaVuSans-97"/>
      <use x="163.257812" xlink:href="#DejaVuSans-99"/>
      <use x="218.238281" xlink:href="#DejaVuSans-107"/>
      <use x="276.148438" xlink:href="#DejaVuSans-115"/>
     </g>
    </g>
    <g id="line2d_33">
     <path d="M 388.794375 141.218437 
L 424.794375 141.218437 
" style="fill:none;stroke:#2ca02c;stroke-linecap:square;stroke-width:1.5;"/>
    </g>
    <g id="line2d_34"/>
    <g id="text_12">
     <!-- Protons -->
     <defs>
      <path d="M 19.671875 64.796875 
L 19.671875 37.40625 
L 32.078125 37.40625 
Q 38.96875 37.40625 42.71875 40.96875 
Q 46.484375 44.53125 46.484375 51.125 
Q 46.484375 57.671875 42.71875 61.234375 
Q 38.96875 64.796875 32.078125 64.796875 
z
M 9.8125 72.90625 
L 32.078125 72.90625 
Q 44.34375 72.90625 50.609375 67.359375 
Q 56.890625 61.8125 56.890625 51.125 
Q 56.890625 40.328125 50.609375 34.8125 
Q 44.34375 29.296875 32.078125 29.296875 
L 19.671875 29.296875 
L 19.671875 0 
L 9.8125 0 
z
" id="DejaVuSans-80"/>
     </defs>
     <g transform="translate(439.194375 147.518438)scale(0.18 -0.18)">
      <use xlink:href="#DejaVuSans-80"/>
      <use x="60.287109" xlink:href="#DejaVuSans-114"/>
      <use x="101.369141" xlink:href="#DejaVuSans-111"/>
      <use x="162.550781" xlink:href="#DejaVuSans-116"/>
      <use x="201.759766" xlink:href="#DejaVuSans-111"/>
      <use x="262.941406" xlink:href="#DejaVuSans-110"/>
      <use x="326.320312" xlink:href="#DejaVuSans-115"/>
     </g>
    </g>
    <g id="line2d_35">
     <path d="M 388.794375 167.639062 
L 424.794375 167.639062 
" style="fill:none;stroke:#d62728;stroke-linecap:square;stroke-width:1.5;"/>
    </g>
    <g id="line2d_36"/>
    <g id="text_13">
     <!-- Muons -->
     <defs>
      <path d="M 9.8125 72.90625 
L 24.515625 72.90625 
L 43.109375 23.296875 
L 61.8125 72.90625 
L 76.515625 72.90625 
L 76.515625 0 
L 66.890625 0 
L 66.890625 64.015625 
L 48.09375 14.015625 
L 38.1875 14.015625 
L 19.390625 64.015625 
L 19.390625 0 
L 9.8125 0 
z
" id="DejaVuSans-77"/>
     </defs>
     <g transform="translate(439.194375 173.939062)scale(0.18 -0.18)">
      <use xlink:href="#DejaVuSans-77"/>
      <use x="86.279297" xlink:href="#DejaVuSans-117"/>
      <use x="149.658203" xlink:href="#DejaVuSans-111"/>
      <use x="210.839844" xlink:href="#DejaVuSans-110"/>
      <use x="274.21875" xlink:href="#DejaVuSans-115"/>
     </g>
    </g>
    <g id="line2d_37">
     <path d="M 388.794375 194.059687 
L 424.794375 194.059687 
" style="fill:none;stroke:#9467bd;stroke-linecap:square;stroke-width:1.5;"/>
    </g>
    <g id="line2d_38"/>
    <g id="text_14">
     <!-- Electrons + Positrons -->
     <defs>
      <path d="M 9.8125 72.90625 
L 55.90625 72.90625 
L 55.90625 64.59375 
L 19.671875 64.59375 
L 19.671875 43.015625 
L 54.390625 43.015625 
L 54.390625 34.71875 
L 19.671875 34.71875 
L 19.671875 8.296875 
L 56.78125 8.296875 
L 56.78125 0 
L 9.8125 0 
z
" id="DejaVuSans-69"/>
      <path d="M 9.421875 75.984375 
L 18.40625 75.984375 
L 18.40625 0 
L 9.421875 0 
z
" id="DejaVuSans-108"/>
      <path id="DejaVuSans-32"/>
      <path d="M 46 62.703125 
L 46 35.5 
L 73.1875 35.5 
L 73.1875 27.203125 
L 46 27.203125 
L 46 0 
L 37.796875 0 
L 37.796875 27.203125 
L 10.59375 27.203125 
L 10.59375 35.5 
L 37.796875 35.5 
L 37.796875 62.703125 
z
" id="DejaVuSans-43"/>
     </defs>
     <g transform="translate(439.194375 200.359688)scale(0.18 -0.18)">
      <use xlink:href="#DejaVuSans-69"/>
      <use x="63.183594" xlink:href="#DejaVuSans-108"/>
      <use x="90.966797" xlink:href="#DejaVuSans-101"/>
      <use x="152.490234" xlink:href="#DejaVuSans-99"/>
      <use x="207.470703" xlink:href="#DejaVuSans-116"/>
      <use x="246.679688" xlink:href="#DejaVuSans-114"/>
      <use x="287.761719" xlink:href="#DejaVuSans-111"/>
      <use x="348.943359" xlink:href="#DejaVuSans-110"/>
      <use x="412.322266" xlink:href="#DejaVuSans-115"/>
      <use x="464.421875" xlink:href="#DejaVuSans-32"/>
      <use x="496.208984" xlink:href="#DejaVuSans-43"/>
      <use x="579.998047" xlink:href="#DejaVuSans-32"/>
      <use x="611.785156" xlink:href="#DejaVuSans-80"/>
      <use x="672.041016" xlink:href="#DejaVuSans-111"/>
      <use x="733.222656" xlink:href="#DejaVuSans-115"/>
      <use x="785.322266" xlink:href="#DejaVuSans-105"/>
      <use x="813.105469" xlink:href="#DejaVuSans-116"/>
      <use x="852.314453" xlink:href="#DejaVuSans-114"/>
      <use x="893.396484" xlink:href="#DejaVuSans-111"/>
      <use x="954.578125" xlink:href="#DejaVuSans-110"/>
      <use x="1017.957031" xlink:href="#DejaVuSans-115"/>
     </g>
    </g>
    <g id="line2d_39">
     <path d="M 388.794375 220.480312 
L 424.794375 220.480312 
" style="fill:none;stroke:#8c564b;stroke-linecap:square;stroke-width:1.5;"/>
    </g>
    <g id="line2d_40"/>
    <g id="text_15">
     <!-- Photons -->
     <g transform="translate(439.194375 226.780312)scale(0.18 -0.18)">
      <use xlink:href="#DejaVuSans-80"/>
      <use x="60.302734" xlink:href="#DejaVuSans-104"/>
      <use x="123.681641" xlink:href="#DejaVuSans-111"/>
      <use x="184.863281" xlink:href="#DejaVuSans-116"/>
      <use x="224.072266" xlink:href="#DejaVuSans-111"/>
      <use x="285.253906" xlink:href="#DejaVuSans-110"/>
      <use x="348.632812" xlink:href="#DejaVuSans-115"/>
     </g>
    </g>
    <g id="line2d_41">
     <path d="M 388.794375 246.900937 
L 424.794375 246.900937 
" style="fill:none;stroke:#e377c2;stroke-linecap:square;stroke-width:1.5;"/>
    </g>
    <g id="line2d_42"/>
    <g id="text_16">
     <!-- Charged Pions -->
     <defs>
      <path d="M 45.40625 27.984375 
Q 45.40625 37.75 41.375 43.109375 
Q 37.359375 48.484375 30.078125 48.484375 
Q 22.859375 48.484375 18.828125 43.109375 
Q 14.796875 37.75 14.796875 27.984375 
Q 14.796875 18.265625 18.828125 12.890625 
Q 22.859375 7.515625 30.078125 7.515625 
Q 37.359375 7.515625 41.375 12.890625 
Q 45.40625 18.265625 45.40625 27.984375 
z
M 54.390625 6.78125 
Q 54.390625 -7.171875 48.1875 -13.984375 
Q 42 -20.796875 29.203125 -20.796875 
Q 24.46875 -20.796875 20.265625 -20.09375 
Q 16.0625 -19.390625 12.109375 -17.921875 
L 12.109375 -9.1875 
Q 16.0625 -11.328125 19.921875 -12.34375 
Q 23.78125 -13.375 27.78125 -13.375 
Q 36.625 -13.375 41.015625 -8.765625 
Q 45.40625 -4.15625 45.40625 5.171875 
L 45.40625 9.625 
Q 42.625 4.78125 38.28125 2.390625 
Q 33.9375 0 27.875 0 
Q 17.828125 0 11.671875 7.65625 
Q 5.515625 15.328125 5.515625 27.984375 
Q 5.515625 40.671875 11.671875 48.328125 
Q 17.828125 56 27.875 56 
Q 33.9375 56 38.28125 53.609375 
Q 42.625 51.21875 45.40625 46.390625 
L 45.40625 54.6875 
L 54.390625 54.6875 
z
" id="DejaVuSans-103"/>
     </defs>
     <g transform="translate(439.194375 253.200938)scale(0.18 -0.18)">
      <use xlink:href="#DejaVuSans-67"/>
      <use x="69.824219" xlink:href="#DejaVuSans-104"/>
      <use x="133.203125" xlink:href="#DejaVuSans-97"/>
      <use x="194.482422" xlink:href="#DejaVuSans-114"/>
      <use x="235.580078" xlink:href="#DejaVuSans-103"/>
      <use x="299.056641" xlink:href="#DejaVuSans-101"/>
      <use x="360.580078" xlink:href="#DejaVuSans-100"/>
      <use x="424.056641" xlink:href="#DejaVuSans-32"/>
      <use x="455.84375" xlink:href="#DejaVuSans-80"/>
      <use x="516.115234" xlink:href="#DejaVuSans-105"/>
      <use x="543.898438" xlink:href="#DejaVuSans-111"/>
      <use x="605.080078" xlink:href="#DejaVuSans-110"/>
      <use x="668.458984" xlink:href="#DejaVuSans-115"/>
     </g>
    </g>
   </g>
  </g>
 </g>
 <defs>
  <clipPath id="paf11ffad0c">
   <rect height="415.8" width="558" x="90" y="64.8"/>
  </clipPath>
 </defs>
</svg>
