<?xml version="1.0" encoding="utf-8" standalone="no"?>
<!DOCTYPE svg PUBLIC "-//W3C//DTD SVG 1.1//EN"
  "http://www.w3.org/Graphics/SVG/1.1/DTD/svg11.dtd">
<!-- Created with matplotlib (https://matplotlib.org/) -->
<svg height="540pt" version="1.1" viewBox="0 0 720 540" width="720pt" xmlns="http://www.w3.org/2000/svg" xmlns:xlink="http://www.w3.org/1999/xlink">
 <defs>
  <style type="text/css">
*{stroke-linecap:butt;stroke-linejoin:round;}
  </style>
 </defs>
 <g id="figure_1">
  <g id="patch_1">
   <path d="M 0 540 
L 720 540 
L 720 0 
L 0 0 
z
" style="fill:#ffffff;"/>
  </g>
  <g id="axes_1">
   <g id="patch_2">
    <path d="M 90 480.6 
L 648 480.6 
L 648 64.8 
L 90 64.8 
z
" style="fill:#ffffff;"/>
   </g>
   <g id="patch_3">
    <path clip-path="url(#p8739f2531f)" d="M 90 78947.760668 
L 90 414.446683 
L 101.387755 414.446683 
L 101.387755 379.965191 
L 112.77551 379.965191 
L 112.77551 359.587281 
L 124.163265 359.587281 
L 124.163265 351.981196 
L 135.55102 351.981196 
L 135.55102 353.372657 
L 146.938776 353.372657 
L 146.938776 361.335667 
L 158.326531 361.335667 
L 158.326531 363.178606 
L 169.714286 363.178606 
L 169.714286 351.981196 
L 181.102041 351.981196 
L 181.102041 350.644316 
L 192.489796 350.644316 
L 192.489796 345.766572 
L 203.877551 345.766572 
L 203.877551 340.512182 
L 215.265306 340.512182 
L 215.265306 337.709009 
L 226.653061 337.709009 
L 226.653061 337.709009 
L 238.040816 337.709009 
L 238.040816 338.618024 
L 249.428571 338.618024 
L 249.428571 329.745998 
L 260.816327 329.745998 
L 260.816327 322.712802 
L 272.204082 322.712802 
L 272.204082 321.576494 
L 283.591837 321.576494 
L 283.591837 322.712802 
L 294.979592 322.712802 
L 294.979592 317.375979 
L 306.367347 317.375979 
L 306.367347 308.700058 
L 317.755102 308.700058 
L 317.755102 306.836968 
L 329.142857 306.836968 
L 329.142857 309.085215 
L 340.530612 309.085215 
L 340.530612 295.523717 
L 351.918367 295.523717 
L 351.918367 286.044578 
L 363.306122 286.044578 
L 363.306122 285.265434 
L 374.693878 285.265434 
L 374.693878 278.32048 
L 386.081633 278.32048 
L 386.081633 273.631753 
L 397.469388 273.631753 
L 397.469388 273.223531 
L 408.857143 273.223531 
L 408.857143 264.343053 
L 420.244898 264.343053 
L 420.244898 256.384386 
L 431.632653 256.384386 
L 431.632653 252.415508 
L 443.020408 252.415508 
L 443.020408 247.435073 
L 454.408163 247.435073 
L 454.408163 242.207897 
L 465.795918 242.207897 
L 465.795918 233.550947 
L 477.183673 233.550947 
L 477.183673 230.290681 
L 488.571429 230.290681 
L 488.571429 224.287832 
L 499.959184 224.287832 
L 499.959184 216.495572 
L 511.346939 216.495572 
L 511.346939 214.26531 
L 522.734694 214.26531 
L 522.734694 207.97481 
L 534.122449 207.97481 
L 534.122449 207.186202 
L 545.510204 207.186202 
L 545.510204 205.364811 
L 556.897959 205.364811 
L 556.897959 205.792403 
L 568.285714 205.792403 
L 568.285714 206.568194 
L 579.673469 206.568194 
L 579.673469 211.040557 
L 591.061224 211.040557 
L 591.061224 218.283068 
L 602.44898 218.283068 
L 602.44898 225.566824 
L 613.836735 225.566824 
L 613.836735 229.75748 
L 625.22449 229.75748 
L 625.22449 237.015794 
L 636.612245 237.015794 
L 636.612245 256.055843 
L 648 256.055843 
L 648 78947.760668 
z
" style="fill:#1f77b4;opacity:0.2;"/>
   </g>
   <g id="patch_4">
    <path clip-path="url(#p8739f2531f)" d="M 90 78947.760668 
L 90 78947.760668 
L 101.387755 78947.760668 
L 101.387755 461.7 
L 112.77551 461.7 
L 112.77551 369.39323 
L 124.163265 369.39323 
L 124.163265 400.625974 
L 135.55102 400.625974 
L 135.55102 379.965191 
L 146.938776 379.965191 
L 146.938776 379.965191 
L 158.326531 379.965191 
L 158.326531 424.252632 
L 169.714286 424.252632 
L 169.714286 406.840598 
L 181.102041 406.840598 
L 181.102041 390.820024 
L 192.489796 390.820024 
L 192.489796 395.371584 
L 203.877551 395.371584 
L 203.877551 374.270974 
L 215.265306 374.270974 
L 215.265306 383.213939 
L 226.653061 383.213939 
L 226.653061 390.820024 
L 238.040816 390.820024 
L 238.040816 359.587281 
L 249.428571 359.587281 
L 249.428571 354.823346 
L 260.816327 354.823346 
L 260.816327 363.178606 
L 272.204082 363.178606 
L 272.204082 386.805265 
L 283.591837 386.805265 
L 283.591837 354.823346 
L 294.979592 354.823346 
L 294.979592 359.587281 
L 306.367347 359.587281 
L 306.367347 339.551948 
L 317.755102 339.551948 
L 317.755102 340.512182 
L 329.142857 340.512182 
L 329.142857 327.679544 
L 340.530612 327.679544 
L 340.530612 334.297558 
L 351.918367 334.297558 
L 351.918367 330.463626 
L 363.306122 330.463626 
L 363.306122 309.868837 
L 374.693878 309.868837 
L 374.693878 298.230381 
L 386.081633 298.230381 
L 386.081633 290.232176 
L 397.469388 290.232176 
L 397.469388 290.455692 
L 408.857143 290.455692 
L 408.857143 281.964205 
L 420.244898 281.964205 
L 420.244898 275.89556 
L 431.632653 275.89556 
L 431.632653 276.935302 
L 443.020408 276.935302 
L 443.020408 266.941343 
L 454.408163 266.941343 
L 454.408163 262.221457 
L 465.795918 262.221457 
L 465.795918 253.233315 
L 477.183673 253.233315 
L 477.183673 244.342483 
L 488.571429 244.342483 
L 488.571429 241.40077 
L 499.959184 241.40077 
L 499.959184 235.328246 
L 511.346939 235.328246 
L 511.346939 228.496263 
L 522.734694 228.496263 
L 522.734694 222.378889 
L 534.122449 222.378889 
L 534.122449 217.063686 
L 545.510204 217.063686 
L 545.510204 210.349308 
L 556.897959 210.349308 
L 556.897959 202.80315 
L 568.285714 202.80315 
L 568.285714 196.457393 
L 579.673469 196.457393 
L 579.673469 187.196373 
L 591.061224 187.196373 
L 591.061224 178.523011 
L 602.44898 178.523011 
L 602.44898 168.664565 
L 613.836735 168.664565 
L 613.836735 156.011366 
L 625.22449 156.011366 
L 625.22449 136.796965 
L 636.612245 136.796965 
L 636.612245 83.7 
L 648 83.7 
L 648 78947.760668 
z
" style="fill:#ff7f0e;opacity:0.2;"/>
   </g>
   <g id="matplotlib.axis_1">
    <g id="xtick_1">
     <g id="line2d_1">
      <defs>
       <path d="M 0 0 
L 0 3.5 
" id="ma3069cb031" style="stroke:#000000;stroke-width:0.8;"/>
      </defs>
      <g>
       <use style="stroke:#000000;stroke-width:0.8;" x="90" xlink:href="#ma3069cb031" y="480.6"/>
      </g>
     </g>
     <g id="text_1">
      <!-- 0.0 -->
      <defs>
       <path d="M 31.78125 66.40625 
Q 24.171875 66.40625 20.328125 58.90625 
Q 16.5 51.421875 16.5 36.375 
Q 16.5 21.390625 20.328125 13.890625 
Q 24.171875 6.390625 31.78125 6.390625 
Q 39.453125 6.390625 43.28125 13.890625 
Q 47.125 21.390625 47.125 36.375 
Q 47.125 51.421875 43.28125 58.90625 
Q 39.453125 66.40625 31.78125 66.40625 
z
M 31.78125 74.21875 
Q 44.046875 74.21875 50.515625 64.515625 
Q 56.984375 54.828125 56.984375 36.375 
Q 56.984375 17.96875 50.515625 8.265625 
Q 44.046875 -1.421875 31.78125 -1.421875 
Q 19.53125 -1.421875 13.0625 8.265625 
Q 6.59375 17.96875 6.59375 36.375 
Q 6.59375 54.828125 13.0625 64.515625 
Q 19.53125 74.21875 31.78125 74.21875 
z
" id="DejaVuSans-48"/>
       <path d="M 10.6875 12.40625 
L 21 12.40625 
L 21 0 
L 10.6875 0 
z
" id="DejaVuSans-46"/>
      </defs>
      <g transform="translate(69.38955 507.29515)scale(0.2592 -0.2592)">
       <use xlink:href="#DejaVuSans-48"/>
       <use x="63.623047" xlink:href="#DejaVuSans-46"/>
       <use x="95.410156" xlink:href="#DejaVuSans-48"/>
      </g>
     </g>
    </g>
    <g id="xtick_2">
     <g id="line2d_2">
      <g>
       <use style="stroke:#000000;stroke-width:0.8;" x="201.6" xlink:href="#ma3069cb031" y="480.6"/>
      </g>
     </g>
     <g id="text_2">
      <!-- 0.2 -->
      <defs>
       <path d="M 19.1875 8.296875 
L 53.609375 8.296875 
L 53.609375 0 
L 7.328125 0 
L 7.328125 8.296875 
Q 12.9375 14.109375 22.625 23.890625 
Q 32.328125 33.6875 34.8125 36.53125 
Q 39.546875 41.84375 41.421875 45.53125 
Q 43.3125 49.21875 43.3125 52.78125 
Q 43.3125 58.59375 39.234375 62.25 
Q 35.15625 65.921875 28.609375 65.921875 
Q 23.96875 65.921875 18.8125 64.3125 
Q 13.671875 62.703125 7.8125 59.421875 
L 7.8125 69.390625 
Q 13.765625 71.78125 18.9375 73 
Q 24.125 74.21875 28.421875 74.21875 
Q 39.75 74.21875 46.484375 68.546875 
Q 53.21875 62.890625 53.21875 53.421875 
Q 53.21875 48.921875 51.53125 44.890625 
Q 49.859375 40.875 45.40625 35.40625 
Q 44.1875 33.984375 37.640625 27.21875 
Q 31.109375 20.453125 19.1875 8.296875 
z
" id="DejaVuSans-50"/>
      </defs>
      <g transform="translate(180.98955 507.29515)scale(0.2592 -0.2592)">
       <use xlink:href="#DejaVuSans-48"/>
       <use x="63.623047" xlink:href="#DejaVuSans-46"/>
       <use x="95.410156" xlink:href="#DejaVuSans-50"/>
      </g>
     </g>
    </g>
    <g id="xtick_3">
     <g id="line2d_3">
      <g>
       <use style="stroke:#000000;stroke-width:0.8;" x="313.2" xlink:href="#ma3069cb031" y="480.6"/>
      </g>
     </g>
     <g id="text_3">
      <!-- 0.4 -->
      <defs>
       <path d="M 37.796875 64.3125 
L 12.890625 25.390625 
L 37.796875 25.390625 
z
M 35.203125 72.90625 
L 47.609375 72.90625 
L 47.609375 25.390625 
L 58.015625 25.390625 
L 58.015625 17.1875 
L 47.609375 17.1875 
L 47.609375 0 
L 37.796875 0 
L 37.796875 17.1875 
L 4.890625 17.1875 
L 4.890625 26.703125 
z
" id="DejaVuSans-52"/>
      </defs>
      <g transform="translate(292.58955 507.29515)scale(0.2592 -0.2592)">
       <use xlink:href="#DejaVuSans-48"/>
       <use x="63.623047" xlink:href="#DejaVuSans-46"/>
       <use x="95.410156" xlink:href="#DejaVuSans-52"/>
      </g>
     </g>
    </g>
    <g id="xtick_4">
     <g id="line2d_4">
      <g>
       <use style="stroke:#000000;stroke-width:0.8;" x="424.8" xlink:href="#ma3069cb031" y="480.6"/>
      </g>
     </g>
     <g id="text_4">
      <!-- 0.6 -->
      <defs>
       <path d="M 33.015625 40.375 
Q 26.375 40.375 22.484375 35.828125 
Q 18.609375 31.296875 18.609375 23.390625 
Q 18.609375 15.53125 22.484375 10.953125 
Q 26.375 6.390625 33.015625 6.390625 
Q 39.65625 6.390625 43.53125 10.953125 
Q 47.40625 15.53125 47.40625 23.390625 
Q 47.40625 31.296875 43.53125 35.828125 
Q 39.65625 40.375 33.015625 40.375 
z
M 52.59375 71.296875 
L 52.59375 62.3125 
Q 48.875 64.0625 45.09375 64.984375 
Q 41.3125 65.921875 37.59375 65.921875 
Q 27.828125 65.921875 22.671875 59.328125 
Q 17.53125 52.734375 16.796875 39.40625 
Q 19.671875 43.65625 24.015625 45.921875 
Q 28.375 48.1875 33.59375 48.1875 
Q 44.578125 48.1875 50.953125 41.515625 
Q 57.328125 34.859375 57.328125 23.390625 
Q 57.328125 12.15625 50.6875 5.359375 
Q 44.046875 -1.421875 33.015625 -1.421875 
Q 20.359375 -1.421875 13.671875 8.265625 
Q 6.984375 17.96875 6.984375 36.375 
Q 6.984375 53.65625 15.1875 63.9375 
Q 23.390625 74.21875 37.203125 74.21875 
Q 40.921875 74.21875 44.703125 73.484375 
Q 48.484375 72.75 52.59375 71.296875 
z
" id="DejaVuSans-54"/>
      </defs>
      <g transform="translate(404.18955 507.29515)scale(0.2592 -0.2592)">
       <use xlink:href="#DejaVuSans-48"/>
       <use x="63.623047" xlink:href="#DejaVuSans-46"/>
       <use x="95.410156" xlink:href="#DejaVuSans-54"/>
      </g>
     </g>
    </g>
    <g id="xtick_5">
     <g id="line2d_5">
      <g>
       <use style="stroke:#000000;stroke-width:0.8;" x="536.4" xlink:href="#ma3069cb031" y="480.6"/>
      </g>
     </g>
     <g id="text_5">
      <!-- 0.8 -->
      <defs>
       <path d="M 31.78125 34.625 
Q 24.75 34.625 20.71875 30.859375 
Q 16.703125 27.09375 16.703125 20.515625 
Q 16.703125 13.921875 20.71875 10.15625 
Q 24.75 6.390625 31.78125 6.390625 
Q 38.8125 6.390625 42.859375 10.171875 
Q 46.921875 13.96875 46.921875 20.515625 
Q 46.921875 27.09375 42.890625 30.859375 
Q 38.875 34.625 31.78125 34.625 
z
M 21.921875 38.8125 
Q 15.578125 40.375 12.03125 44.71875 
Q 8.5 49.078125 8.5 55.328125 
Q 8.5 64.0625 14.71875 69.140625 
Q 20.953125 74.21875 31.78125 74.21875 
Q 42.671875 74.21875 48.875 69.140625 
Q 55.078125 64.0625 55.078125 55.328125 
Q 55.078125 49.078125 51.53125 44.71875 
Q 48 40.375 41.703125 38.8125 
Q 48.828125 37.15625 52.796875 32.3125 
Q 56.78125 27.484375 56.78125 20.515625 
Q 56.78125 9.90625 50.3125 4.234375 
Q 43.84375 -1.421875 31.78125 -1.421875 
Q 19.734375 -1.421875 13.25 4.234375 
Q 6.78125 9.90625 6.78125 20.515625 
Q 6.78125 27.484375 10.78125 32.3125 
Q 14.796875 37.15625 21.921875 38.8125 
z
M 18.3125 54.390625 
Q 18.3125 48.734375 21.84375 45.5625 
Q 25.390625 42.390625 31.78125 42.390625 
Q 38.140625 42.390625 41.71875 45.5625 
Q 45.3125 48.734375 45.3125 54.390625 
Q 45.3125 60.0625 41.71875 63.234375 
Q 38.140625 66.40625 31.78125 66.40625 
Q 25.390625 66.40625 21.84375 63.234375 
Q 18.3125 60.0625 18.3125 54.390625 
z
" id="DejaVuSans-56"/>
      </defs>
      <g transform="translate(515.78955 507.29515)scale(0.2592 -0.2592)">
       <use xlink:href="#DejaVuSans-48"/>
       <use x="63.623047" xlink:href="#DejaVuSans-46"/>
       <use x="95.410156" xlink:href="#DejaVuSans-56"/>
      </g>
     </g>
    </g>
    <g id="xtick_6">
     <g id="line2d_6">
      <g>
       <use style="stroke:#000000;stroke-width:0.8;" x="648" xlink:href="#ma3069cb031" y="480.6"/>
      </g>
     </g>
     <g id="text_6">
      <!-- 1.0 -->
      <defs>
       <path d="M 12.40625 8.296875 
L 28.515625 8.296875 
L 28.515625 63.921875 
L 10.984375 60.40625 
L 10.984375 69.390625 
L 28.421875 72.90625 
L 38.28125 72.90625 
L 38.28125 8.296875 
L 54.390625 8.296875 
L 54.390625 0 
L 12.40625 0 
z
" id="DejaVuSans-49"/>
      </defs>
      <g transform="translate(627.38955 507.29515)scale(0.2592 -0.2592)">
       <use xlink:href="#DejaVuSans-49"/>
       <use x="63.623047" xlink:href="#DejaVuSans-46"/>
       <use x="95.410156" xlink:href="#DejaVuSans-48"/>
      </g>
     </g>
    </g>
    <g id="text_7">
     <!-- ChainRatioAvgW -->
     <defs>
      <path d="M 64.40625 67.28125 
L 64.40625 56.890625 
Q 59.421875 61.53125 53.78125 63.8125 
Q 48.140625 66.109375 41.796875 66.109375 
Q 29.296875 66.109375 22.65625 58.46875 
Q 16.015625 50.828125 16.015625 36.375 
Q 16.015625 21.96875 22.65625 14.328125 
Q 29.296875 6.6875 41.796875 6.6875 
Q 48.140625 6.6875 53.78125 8.984375 
Q 59.421875 11.28125 64.40625 15.921875 
L 64.40625 5.609375 
Q 59.234375 2.09375 53.4375 0.328125 
Q 47.65625 -1.421875 41.21875 -1.421875 
Q 24.65625 -1.421875 15.125 8.703125 
Q 5.609375 18.84375 5.609375 36.375 
Q 5.609375 53.953125 15.125 64.078125 
Q 24.65625 74.21875 41.21875 74.21875 
Q 47.75 74.21875 53.53125 72.484375 
Q 59.328125 70.75 64.40625 67.28125 
z
" id="DejaVuSans-67"/>
      <path d="M 54.890625 33.015625 
L 54.890625 0 
L 45.90625 0 
L 45.90625 32.71875 
Q 45.90625 40.484375 42.875 44.328125 
Q 39.84375 48.1875 33.796875 48.1875 
Q 26.515625 48.1875 22.3125 43.546875 
Q 18.109375 38.921875 18.109375 30.90625 
L 18.109375 0 
L 9.078125 0 
L 9.078125 75.984375 
L 18.109375 75.984375 
L 18.109375 46.1875 
Q 21.34375 51.125 25.703125 53.5625 
Q 30.078125 56 35.796875 56 
Q 45.21875 56 50.046875 50.171875 
Q 54.890625 44.34375 54.890625 33.015625 
z
" id="DejaVuSans-104"/>
      <path d="M 34.28125 27.484375 
Q 23.390625 27.484375 19.1875 25 
Q 14.984375 22.515625 14.984375 16.5 
Q 14.984375 11.71875 18.140625 8.90625 
Q 21.296875 6.109375 26.703125 6.109375 
Q 34.1875 6.109375 38.703125 11.40625 
Q 43.21875 16.703125 43.21875 25.484375 
L 43.21875 27.484375 
z
M 52.203125 31.203125 
L 52.203125 0 
L 43.21875 0 
L 43.21875 8.296875 
Q 40.140625 3.328125 35.546875 0.953125 
Q 30.953125 -1.421875 24.3125 -1.421875 
Q 15.921875 -1.421875 10.953125 3.296875 
Q 6 8.015625 6 15.921875 
Q 6 25.140625 12.171875 29.828125 
Q 18.359375 34.515625 30.609375 34.515625 
L 43.21875 34.515625 
L 43.21875 35.40625 
Q 43.21875 41.609375 39.140625 45 
Q 35.0625 48.390625 27.6875 48.390625 
Q 23 48.390625 18.546875 47.265625 
Q 14.109375 46.140625 10.015625 43.890625 
L 10.015625 52.203125 
Q 14.9375 54.109375 19.578125 55.046875 
Q 24.21875 56 28.609375 56 
Q 40.484375 56 46.34375 49.84375 
Q 52.203125 43.703125 52.203125 31.203125 
z
" id="DejaVuSans-97"/>
      <path d="M 9.421875 54.6875 
L 18.40625 54.6875 
L 18.40625 0 
L 9.421875 0 
z
M 9.421875 75.984375 
L 18.40625 75.984375 
L 18.40625 64.59375 
L 9.421875 64.59375 
z
" id="DejaVuSans-105"/>
      <path d="M 54.890625 33.015625 
L 54.890625 0 
L 45.90625 0 
L 45.90625 32.71875 
Q 45.90625 40.484375 42.875 44.328125 
Q 39.84375 48.1875 33.796875 48.1875 
Q 26.515625 48.1875 22.3125 43.546875 
Q 18.109375 38.921875 18.109375 30.90625 
L 18.109375 0 
L 9.078125 0 
L 9.078125 54.6875 
L 18.109375 54.6875 
L 18.109375 46.1875 
Q 21.34375 51.125 25.703125 53.5625 
Q 30.078125 56 35.796875 56 
Q 45.21875 56 50.046875 50.171875 
Q 54.890625 44.34375 54.890625 33.015625 
z
" id="DejaVuSans-110"/>
      <path d="M 44.390625 34.1875 
Q 47.5625 33.109375 50.5625 29.59375 
Q 53.5625 26.078125 56.59375 19.921875 
L 66.609375 0 
L 56 0 
L 46.6875 18.703125 
Q 43.0625 26.03125 39.671875 28.421875 
Q 36.28125 30.8125 30.421875 30.8125 
L 19.671875 30.8125 
L 19.671875 0 
L 9.8125 0 
L 9.8125 72.90625 
L 32.078125 72.90625 
Q 44.578125 72.90625 50.734375 67.671875 
Q 56.890625 62.453125 56.890625 51.90625 
Q 56.890625 45.015625 53.6875 40.46875 
Q 50.484375 35.9375 44.390625 34.1875 
z
M 19.671875 64.796875 
L 19.671875 38.921875 
L 32.078125 38.921875 
Q 39.203125 38.921875 42.84375 42.21875 
Q 46.484375 45.515625 46.484375 51.90625 
Q 46.484375 58.296875 42.84375 61.546875 
Q 39.203125 64.796875 32.078125 64.796875 
z
" id="DejaVuSans-82"/>
      <path d="M 18.3125 70.21875 
L 18.3125 54.6875 
L 36.8125 54.6875 
L 36.8125 47.703125 
L 18.3125 47.703125 
L 18.3125 18.015625 
Q 18.3125 11.328125 20.140625 9.421875 
Q 21.96875 7.515625 27.59375 7.515625 
L 36.8125 7.515625 
L 36.8125 0 
L 27.59375 0 
Q 17.1875 0 13.234375 3.875 
Q 9.28125 7.765625 9.28125 18.015625 
L 9.28125 47.703125 
L 2.6875 47.703125 
L 2.6875 54.6875 
L 9.28125 54.6875 
L 9.28125 70.21875 
z
" id="DejaVuSans-116"/>
      <path d="M 30.609375 48.390625 
Q 23.390625 48.390625 19.1875 42.75 
Q 14.984375 37.109375 14.984375 27.296875 
Q 14.984375 17.484375 19.15625 11.84375 
Q 23.34375 6.203125 30.609375 6.203125 
Q 37.796875 6.203125 41.984375 11.859375 
Q 46.1875 17.53125 46.1875 27.296875 
Q 46.1875 37.015625 41.984375 42.703125 
Q 37.796875 48.390625 30.609375 48.390625 
z
M 30.609375 56 
Q 42.328125 56 49.015625 48.375 
Q 55.71875 40.765625 55.71875 27.296875 
Q 55.71875 13.875 49.015625 6.21875 
Q 42.328125 -1.421875 30.609375 -1.421875 
Q 18.84375 -1.421875 12.171875 6.21875 
Q 5.515625 13.875 5.515625 27.296875 
Q 5.515625 40.765625 12.171875 48.375 
Q 18.84375 56 30.609375 56 
z
" id="DejaVuSans-111"/>
      <path d="M 34.1875 63.1875 
L 20.796875 26.90625 
L 47.609375 26.90625 
z
M 28.609375 72.90625 
L 39.796875 72.90625 
L 67.578125 0 
L 57.328125 0 
L 50.6875 18.703125 
L 17.828125 18.703125 
L 11.1875 0 
L 0.78125 0 
z
" id="DejaVuSans-65"/>
      <path d="M 2.984375 54.6875 
L 12.5 54.6875 
L 29.59375 8.796875 
L 46.6875 54.6875 
L 56.203125 54.6875 
L 35.6875 0 
L 23.484375 0 
z
" id="DejaVuSans-118"/>
      <path d="M 45.40625 27.984375 
Q 45.40625 37.75 41.375 43.109375 
Q 37.359375 48.484375 30.078125 48.484375 
Q 22.859375 48.484375 18.828125 43.109375 
Q 14.796875 37.75 14.796875 27.984375 
Q 14.796875 18.265625 18.828125 12.890625 
Q 22.859375 7.515625 30.078125 7.515625 
Q 37.359375 7.515625 41.375 12.890625 
Q 45.40625 18.265625 45.40625 27.984375 
z
M 54.390625 6.78125 
Q 54.390625 -7.171875 48.1875 -13.984375 
Q 42 -20.796875 29.203125 -20.796875 
Q 24.46875 -20.796875 20.265625 -20.09375 
Q 16.0625 -19.390625 12.109375 -17.921875 
L 12.109375 -9.1875 
Q 16.0625 -11.328125 19.921875 -12.34375 
Q 23.78125 -13.375 27.78125 -13.375 
Q 36.625 -13.375 41.015625 -8.765625 
Q 45.40625 -4.15625 45.40625 5.171875 
L 45.40625 9.625 
Q 42.625 4.78125 38.28125 2.390625 
Q 33.9375 0 27.875 0 
Q 17.828125 0 11.671875 7.65625 
Q 5.515625 15.328125 5.515625 27.984375 
Q 5.515625 40.671875 11.671875 48.328125 
Q 17.828125 56 27.875 56 
Q 33.9375 56 38.28125 53.609375 
Q 42.625 51.21875 45.40625 46.390625 
L 45.40625 54.6875 
L 54.390625 54.6875 
z
" id="DejaVuSans-103"/>
      <path d="M 3.328125 72.90625 
L 13.28125 72.90625 
L 28.609375 11.28125 
L 43.890625 72.90625 
L 54.984375 72.90625 
L 70.3125 11.28125 
L 85.59375 72.90625 
L 95.609375 72.90625 
L 77.296875 0 
L 64.890625 0 
L 49.515625 63.28125 
L 33.984375 0 
L 21.578125 0 
z
" id="DejaVuSans-87"/>
     </defs>
     <g transform="translate(260.858925 536.38085)scale(0.2592 -0.2592)">
      <use xlink:href="#DejaVuSans-67"/>
      <use x="69.824219" xlink:href="#DejaVuSans-104"/>
      <use x="133.203125" xlink:href="#DejaVuSans-97"/>
      <use x="194.482422" xlink:href="#DejaVuSans-105"/>
      <use x="222.265625" xlink:href="#DejaVuSans-110"/>
      <use x="285.644531" xlink:href="#DejaVuSans-82"/>
      <use x="355.095703" xlink:href="#DejaVuSans-97"/>
      <use x="416.375" xlink:href="#DejaVuSans-116"/>
      <use x="455.583984" xlink:href="#DejaVuSans-105"/>
      <use x="483.367188" xlink:href="#DejaVuSans-111"/>
      <use x="544.548828" xlink:href="#DejaVuSans-65"/>
      <use x="612.878906" xlink:href="#DejaVuSans-118"/>
      <use x="672.058594" xlink:href="#DejaVuSans-103"/>
      <use x="735.535156" xlink:href="#DejaVuSans-87"/>
     </g>
    </g>
   </g>
   <g id="matplotlib.axis_2">
    <g id="ytick_1">
     <g id="line2d_7">
      <defs>
       <path d="M 0 0 
L -3.5 0 
" id="m9fbb65eee2" style="stroke:#000000;stroke-width:0.8;"/>
      </defs>
      <g>
       <use style="stroke:#000000;stroke-width:0.8;" x="90" xlink:href="#m9fbb65eee2" y="461.7"/>
      </g>
     </g>
     <g id="text_8">
      <!-- $\mathdefault{10^{0}}$ -->
      <g transform="translate(37.3808 471.547575)scale(0.2592 -0.2592)">
       <use transform="translate(0 0.765625)" xlink:href="#DejaVuSans-49"/>
       <use transform="translate(63.623047 0.765625)" xlink:href="#DejaVuSans-48"/>
       <use transform="translate(128.203125 39.046875)scale(0.7)" xlink:href="#DejaVuSans-48"/>
      </g>
     </g>
    </g>
    <g id="ytick_2">
     <g id="line2d_8">
      <g>
       <use style="stroke:#000000;stroke-width:0.8;" x="90" xlink:href="#m9fbb65eee2" y="383.213939"/>
      </g>
     </g>
     <g id="text_9">
      <!-- $\mathdefault{10^{1}}$ -->
      <g transform="translate(37.3808 393.061514)scale(0.2592 -0.2592)">
       <use transform="translate(0 0.684375)" xlink:href="#DejaVuSans-49"/>
       <use transform="translate(63.623047 0.684375)" xlink:href="#DejaVuSans-48"/>
       <use transform="translate(128.203125 38.965625)scale(0.7)" xlink:href="#DejaVuSans-49"/>
      </g>
     </g>
    </g>
    <g id="ytick_3">
     <g id="line2d_9">
      <g>
       <use style="stroke:#000000;stroke-width:0.8;" x="90" xlink:href="#m9fbb65eee2" y="304.727879"/>
      </g>
     </g>
     <g id="text_10">
      <!-- $\mathdefault{10^{2}}$ -->
      <g transform="translate(37.3808 314.575454)scale(0.2592 -0.2592)">
       <use transform="translate(0 0.765625)" xlink:href="#DejaVuSans-49"/>
       <use transform="translate(63.623047 0.765625)" xlink:href="#DejaVuSans-48"/>
       <use transform="translate(128.203125 39.046875)scale(0.7)" xlink:href="#DejaVuSans-50"/>
      </g>
     </g>
    </g>
    <g id="ytick_4">
     <g id="line2d_10">
      <g>
       <use style="stroke:#000000;stroke-width:0.8;" x="90" xlink:href="#m9fbb65eee2" y="226.241818"/>
      </g>
     </g>
     <g id="text_11">
      <!-- $\mathdefault{10^{3}}$ -->
      <defs>
       <path d="M 40.578125 39.3125 
Q 47.65625 37.796875 51.625 33 
Q 55.609375 28.21875 55.609375 21.1875 
Q 55.609375 10.40625 48.1875 4.484375 
Q 40.765625 -1.421875 27.09375 -1.421875 
Q 22.515625 -1.421875 17.65625 -0.515625 
Q 12.796875 0.390625 7.625 2.203125 
L 7.625 11.71875 
Q 11.71875 9.328125 16.59375 8.109375 
Q 21.484375 6.890625 26.8125 6.890625 
Q 36.078125 6.890625 40.9375 10.546875 
Q 45.796875 14.203125 45.796875 21.1875 
Q 45.796875 27.640625 41.28125 31.265625 
Q 36.765625 34.90625 28.71875 34.90625 
L 20.21875 34.90625 
L 20.21875 43.015625 
L 29.109375 43.015625 
Q 36.375 43.015625 40.234375 45.921875 
Q 44.09375 48.828125 44.09375 54.296875 
Q 44.09375 59.90625 40.109375 62.90625 
Q 36.140625 65.921875 28.71875 65.921875 
Q 24.65625 65.921875 20.015625 65.03125 
Q 15.375 64.15625 9.8125 62.3125 
L 9.8125 71.09375 
Q 15.4375 72.65625 20.34375 73.4375 
Q 25.25 74.21875 29.59375 74.21875 
Q 40.828125 74.21875 47.359375 69.109375 
Q 53.90625 64.015625 53.90625 55.328125 
Q 53.90625 49.265625 50.4375 45.09375 
Q 46.96875 40.921875 40.578125 39.3125 
z
" id="DejaVuSans-51"/>
      </defs>
      <g transform="translate(37.3808 236.089393)scale(0.2592 -0.2592)">
       <use transform="translate(0 0.765625)" xlink:href="#DejaVuSans-49"/>
       <use transform="translate(63.623047 0.765625)" xlink:href="#DejaVuSans-48"/>
       <use transform="translate(128.203125 39.046875)scale(0.7)" xlink:href="#DejaVuSans-51"/>
      </g>
     </g>
    </g>
    <g id="ytick_5">
     <g id="line2d_11">
      <g>
       <use style="stroke:#000000;stroke-width:0.8;" x="90" xlink:href="#m9fbb65eee2" y="147.755757"/>
      </g>
     </g>
     <g id="text_12">
      <!-- $\mathdefault{10^{4}}$ -->
      <g transform="translate(37.3808 157.603332)scale(0.2592 -0.2592)">
       <use transform="translate(0 0.684375)" xlink:href="#DejaVuSans-49"/>
       <use transform="translate(63.623047 0.684375)" xlink:href="#DejaVuSans-48"/>
       <use transform="translate(128.203125 38.965625)scale(0.7)" xlink:href="#DejaVuSans-52"/>
      </g>
     </g>
    </g>
    <g id="ytick_6">
     <g id="line2d_12">
      <g>
       <use style="stroke:#000000;stroke-width:0.8;" x="90" xlink:href="#m9fbb65eee2" y="69.269697"/>
      </g>
     </g>
     <g id="text_13">
      <!-- $\mathdefault{10^{5}}$ -->
      <defs>
       <path d="M 10.796875 72.90625 
L 49.515625 72.90625 
L 49.515625 64.59375 
L 19.828125 64.59375 
L 19.828125 46.734375 
Q 21.96875 47.46875 24.109375 47.828125 
Q 26.265625 48.1875 28.421875 48.1875 
Q 40.625 48.1875 47.75 41.5 
Q 54.890625 34.8125 54.890625 23.390625 
Q 54.890625 11.625 47.5625 5.09375 
Q 40.234375 -1.421875 26.90625 -1.421875 
Q 22.3125 -1.421875 17.546875 -0.640625 
Q 12.796875 0.140625 7.71875 1.703125 
L 7.71875 11.625 
Q 12.109375 9.234375 16.796875 8.0625 
Q 21.484375 6.890625 26.703125 6.890625 
Q 35.15625 6.890625 40.078125 11.328125 
Q 45.015625 15.765625 45.015625 23.390625 
Q 45.015625 31 40.078125 35.4375 
Q 35.15625 39.890625 26.703125 39.890625 
Q 22.75 39.890625 18.8125 39.015625 
Q 14.890625 38.140625 10.796875 36.28125 
z
" id="DejaVuSans-53"/>
      </defs>
      <g transform="translate(37.3808 79.117272)scale(0.2592 -0.2592)">
       <use transform="translate(0 0.684375)" xlink:href="#DejaVuSans-49"/>
       <use transform="translate(63.623047 0.684375)" xlink:href="#DejaVuSans-48"/>
       <use transform="translate(128.203125 38.965625)scale(0.7)" xlink:href="#DejaVuSans-53"/>
      </g>
     </g>
    </g>
    <g id="ytick_7">
     <g id="line2d_13">
      <defs>
       <path d="M 0 0 
L -2 0 
" id="m4fa353e003" style="stroke:#000000;stroke-width:0.6;"/>
      </defs>
      <g>
       <use style="stroke:#000000;stroke-width:0.6;" x="90" xlink:href="#m4fa353e003" y="479.112034"/>
      </g>
     </g>
    </g>
    <g id="ytick_8">
     <g id="line2d_14">
      <g>
       <use style="stroke:#000000;stroke-width:0.6;" x="90" xlink:href="#m4fa353e003" y="473.857645"/>
      </g>
     </g>
    </g>
    <g id="ytick_9">
     <g id="line2d_15">
      <g>
       <use style="stroke:#000000;stroke-width:0.6;" x="90" xlink:href="#m4fa353e003" y="469.306085"/>
      </g>
     </g>
    </g>
    <g id="ytick_10">
     <g id="line2d_16">
      <g>
       <use style="stroke:#000000;stroke-width:0.6;" x="90" xlink:href="#m4fa353e003" y="465.291325"/>
      </g>
     </g>
    </g>
    <g id="ytick_11">
     <g id="line2d_17">
      <g>
       <use style="stroke:#000000;stroke-width:0.6;" x="90" xlink:href="#m4fa353e003" y="438.073341"/>
      </g>
     </g>
    </g>
    <g id="ytick_12">
     <g id="line2d_18">
      <g>
       <use style="stroke:#000000;stroke-width:0.6;" x="90" xlink:href="#m4fa353e003" y="424.252632"/>
      </g>
     </g>
    </g>
    <g id="ytick_13">
     <g id="line2d_19">
      <g>
       <use style="stroke:#000000;stroke-width:0.6;" x="90" xlink:href="#m4fa353e003" y="414.446683"/>
      </g>
     </g>
    </g>
    <g id="ytick_14">
     <g id="line2d_20">
      <g>
       <use style="stroke:#000000;stroke-width:0.6;" x="90" xlink:href="#m4fa353e003" y="406.840598"/>
      </g>
     </g>
    </g>
    <g id="ytick_15">
     <g id="line2d_21">
      <g>
       <use style="stroke:#000000;stroke-width:0.6;" x="90" xlink:href="#m4fa353e003" y="400.625974"/>
      </g>
     </g>
    </g>
    <g id="ytick_16">
     <g id="line2d_22">
      <g>
       <use style="stroke:#000000;stroke-width:0.6;" x="90" xlink:href="#m4fa353e003" y="395.371584"/>
      </g>
     </g>
    </g>
    <g id="ytick_17">
     <g id="line2d_23">
      <g>
       <use style="stroke:#000000;stroke-width:0.6;" x="90" xlink:href="#m4fa353e003" y="390.820024"/>
      </g>
     </g>
    </g>
    <g id="ytick_18">
     <g id="line2d_24">
      <g>
       <use style="stroke:#000000;stroke-width:0.6;" x="90" xlink:href="#m4fa353e003" y="386.805265"/>
      </g>
     </g>
    </g>
    <g id="ytick_19">
     <g id="line2d_25">
      <g>
       <use style="stroke:#000000;stroke-width:0.6;" x="90" xlink:href="#m4fa353e003" y="359.587281"/>
      </g>
     </g>
    </g>
    <g id="ytick_20">
     <g id="line2d_26">
      <g>
       <use style="stroke:#000000;stroke-width:0.6;" x="90" xlink:href="#m4fa353e003" y="345.766572"/>
      </g>
     </g>
    </g>
    <g id="ytick_21">
     <g id="line2d_27">
      <g>
       <use style="stroke:#000000;stroke-width:0.6;" x="90" xlink:href="#m4fa353e003" y="335.960622"/>
      </g>
     </g>
    </g>
    <g id="ytick_22">
     <g id="line2d_28">
      <g>
       <use style="stroke:#000000;stroke-width:0.6;" x="90" xlink:href="#m4fa353e003" y="328.354537"/>
      </g>
     </g>
    </g>
    <g id="ytick_23">
     <g id="line2d_29">
      <g>
       <use style="stroke:#000000;stroke-width:0.6;" x="90" xlink:href="#m4fa353e003" y="322.139913"/>
      </g>
     </g>
    </g>
    <g id="ytick_24">
     <g id="line2d_30">
      <g>
       <use style="stroke:#000000;stroke-width:0.6;" x="90" xlink:href="#m4fa353e003" y="316.885523"/>
      </g>
     </g>
    </g>
    <g id="ytick_25">
     <g id="line2d_31">
      <g>
       <use style="stroke:#000000;stroke-width:0.6;" x="90" xlink:href="#m4fa353e003" y="312.333964"/>
      </g>
     </g>
    </g>
    <g id="ytick_26">
     <g id="line2d_32">
      <g>
       <use style="stroke:#000000;stroke-width:0.6;" x="90" xlink:href="#m4fa353e003" y="308.319204"/>
      </g>
     </g>
    </g>
    <g id="ytick_27">
     <g id="line2d_33">
      <g>
       <use style="stroke:#000000;stroke-width:0.6;" x="90" xlink:href="#m4fa353e003" y="281.10122"/>
      </g>
     </g>
    </g>
    <g id="ytick_28">
     <g id="line2d_34">
      <g>
       <use style="stroke:#000000;stroke-width:0.6;" x="90" xlink:href="#m4fa353e003" y="267.280511"/>
      </g>
     </g>
    </g>
    <g id="ytick_29">
     <g id="line2d_35">
      <g>
       <use style="stroke:#000000;stroke-width:0.6;" x="90" xlink:href="#m4fa353e003" y="257.474562"/>
      </g>
     </g>
    </g>
    <g id="ytick_30">
     <g id="line2d_36">
      <g>
       <use style="stroke:#000000;stroke-width:0.6;" x="90" xlink:href="#m4fa353e003" y="249.868476"/>
      </g>
     </g>
    </g>
    <g id="ytick_31">
     <g id="line2d_37">
      <g>
       <use style="stroke:#000000;stroke-width:0.6;" x="90" xlink:href="#m4fa353e003" y="243.653852"/>
      </g>
     </g>
    </g>
    <g id="ytick_32">
     <g id="line2d_38">
      <g>
       <use style="stroke:#000000;stroke-width:0.6;" x="90" xlink:href="#m4fa353e003" y="238.399463"/>
      </g>
     </g>
    </g>
    <g id="ytick_33">
     <g id="line2d_39">
      <g>
       <use style="stroke:#000000;stroke-width:0.6;" x="90" xlink:href="#m4fa353e003" y="233.847903"/>
      </g>
     </g>
    </g>
    <g id="ytick_34">
     <g id="line2d_40">
      <g>
       <use style="stroke:#000000;stroke-width:0.6;" x="90" xlink:href="#m4fa353e003" y="229.833143"/>
      </g>
     </g>
    </g>
    <g id="ytick_35">
     <g id="line2d_41">
      <g>
       <use style="stroke:#000000;stroke-width:0.6;" x="90" xlink:href="#m4fa353e003" y="202.615159"/>
      </g>
     </g>
    </g>
    <g id="ytick_36">
     <g id="line2d_42">
      <g>
       <use style="stroke:#000000;stroke-width:0.6;" x="90" xlink:href="#m4fa353e003" y="188.79445"/>
      </g>
     </g>
    </g>
    <g id="ytick_37">
     <g id="line2d_43">
      <g>
       <use style="stroke:#000000;stroke-width:0.6;" x="90" xlink:href="#m4fa353e003" y="178.988501"/>
      </g>
     </g>
    </g>
    <g id="ytick_38">
     <g id="line2d_44">
      <g>
       <use style="stroke:#000000;stroke-width:0.6;" x="90" xlink:href="#m4fa353e003" y="171.382416"/>
      </g>
     </g>
    </g>
    <g id="ytick_39">
     <g id="line2d_45">
      <g>
       <use style="stroke:#000000;stroke-width:0.6;" x="90" xlink:href="#m4fa353e003" y="165.167792"/>
      </g>
     </g>
    </g>
    <g id="ytick_40">
     <g id="line2d_46">
      <g>
       <use style="stroke:#000000;stroke-width:0.6;" x="90" xlink:href="#m4fa353e003" y="159.913402"/>
      </g>
     </g>
    </g>
    <g id="ytick_41">
     <g id="line2d_47">
      <g>
       <use style="stroke:#000000;stroke-width:0.6;" x="90" xlink:href="#m4fa353e003" y="155.361842"/>
      </g>
     </g>
    </g>
    <g id="ytick_42">
     <g id="line2d_48">
      <g>
       <use style="stroke:#000000;stroke-width:0.6;" x="90" xlink:href="#m4fa353e003" y="151.347083"/>
      </g>
     </g>
    </g>
    <g id="ytick_43">
     <g id="line2d_49">
      <g>
       <use style="stroke:#000000;stroke-width:0.6;" x="90" xlink:href="#m4fa353e003" y="124.129099"/>
      </g>
     </g>
    </g>
    <g id="ytick_44">
     <g id="line2d_50">
      <g>
       <use style="stroke:#000000;stroke-width:0.6;" x="90" xlink:href="#m4fa353e003" y="110.30839"/>
      </g>
     </g>
    </g>
    <g id="ytick_45">
     <g id="line2d_51">
      <g>
       <use style="stroke:#000000;stroke-width:0.6;" x="90" xlink:href="#m4fa353e003" y="100.50244"/>
      </g>
     </g>
    </g>
    <g id="ytick_46">
     <g id="line2d_52">
      <g>
       <use style="stroke:#000000;stroke-width:0.6;" x="90" xlink:href="#m4fa353e003" y="92.896355"/>
      </g>
     </g>
    </g>
    <g id="ytick_47">
     <g id="line2d_53">
      <g>
       <use style="stroke:#000000;stroke-width:0.6;" x="90" xlink:href="#m4fa353e003" y="86.681731"/>
      </g>
     </g>
    </g>
    <g id="ytick_48">
     <g id="line2d_54">
      <g>
       <use style="stroke:#000000;stroke-width:0.6;" x="90" xlink:href="#m4fa353e003" y="81.427341"/>
      </g>
     </g>
    </g>
    <g id="ytick_49">
     <g id="line2d_55">
      <g>
       <use style="stroke:#000000;stroke-width:0.6;" x="90" xlink:href="#m4fa353e003" y="76.875782"/>
      </g>
     </g>
    </g>
    <g id="ytick_50">
     <g id="line2d_56">
      <g>
       <use style="stroke:#000000;stroke-width:0.6;" x="90" xlink:href="#m4fa353e003" y="72.861022"/>
      </g>
     </g>
    </g>
    <g id="text_14">
     <!-- Count -->
     <defs>
      <path d="M 8.5 21.578125 
L 8.5 54.6875 
L 17.484375 54.6875 
L 17.484375 21.921875 
Q 17.484375 14.15625 20.5 10.265625 
Q 23.53125 6.390625 29.59375 6.390625 
Q 36.859375 6.390625 41.078125 11.03125 
Q 45.3125 15.671875 45.3125 23.6875 
L 45.3125 54.6875 
L 54.296875 54.6875 
L 54.296875 0 
L 45.3125 0 
L 45.3125 8.40625 
Q 42.046875 3.421875 37.71875 1 
Q 33.40625 -1.421875 27.6875 -1.421875 
Q 18.265625 -1.421875 13.375 4.4375 
Q 8.5 10.296875 8.5 21.578125 
z
M 31.109375 56 
z
" id="DejaVuSans-117"/>
     </defs>
     <g transform="translate(27.99025 311.18715)rotate(-90)scale(0.2592 -0.2592)">
      <use xlink:href="#DejaVuSans-67"/>
      <use x="69.824219" xlink:href="#DejaVuSans-111"/>
      <use x="131.005859" xlink:href="#DejaVuSans-117"/>
      <use x="194.384766" xlink:href="#DejaVuSans-110"/>
      <use x="257.763672" xlink:href="#DejaVuSans-116"/>
     </g>
    </g>
   </g>
   <g id="line2d_57">
    <path clip-path="url(#p8739f2531f)" d="M 90 414.446683 
L 101.387755 414.446683 
L 101.387755 379.965191 
L 112.77551 379.965191 
L 112.77551 359.587281 
L 124.163265 359.587281 
L 124.163265 351.981196 
L 135.55102 351.981196 
L 135.55102 353.372657 
L 146.938776 353.372657 
L 146.938776 361.335667 
L 158.326531 361.335667 
L 158.326531 363.178606 
L 169.714286 363.178606 
L 169.714286 351.981196 
L 181.102041 351.981196 
L 181.102041 350.644316 
L 192.489796 350.644316 
L 192.489796 345.766572 
L 203.877551 345.766572 
L 203.877551 340.512182 
L 215.265306 340.512182 
L 215.265306 337.709009 
L 226.653061 337.709009 
L 226.653061 337.709009 
L 238.040816 337.709009 
L 238.040816 338.618024 
L 249.428571 338.618024 
L 249.428571 329.745998 
L 260.816327 329.745998 
L 260.816327 322.712802 
L 272.204082 322.712802 
L 272.204082 321.576494 
L 283.591837 321.576494 
L 283.591837 322.712802 
L 294.979592 322.712802 
L 294.979592 317.375979 
L 306.367347 317.375979 
L 306.367347 308.700058 
L 317.755102 308.700058 
L 317.755102 306.836968 
L 329.142857 306.836968 
L 329.142857 309.085215 
L 340.530612 309.085215 
L 340.530612 295.523717 
L 351.918367 295.523717 
L 351.918367 286.044578 
L 363.306122 286.044578 
L 363.306122 285.265434 
L 374.693878 285.265434 
L 374.693878 278.32048 
L 386.081633 278.32048 
L 386.081633 273.631753 
L 397.469388 273.631753 
L 397.469388 273.223531 
L 408.857143 273.223531 
L 408.857143 264.343053 
L 420.244898 264.343053 
L 420.244898 256.384386 
L 431.632653 256.384386 
L 431.632653 252.415508 
L 443.020408 252.415508 
L 443.020408 247.435073 
L 454.408163 247.435073 
L 454.408163 242.207897 
L 465.795918 242.207897 
L 465.795918 233.550947 
L 477.183673 233.550947 
L 477.183673 230.290681 
L 488.571429 230.290681 
L 488.571429 224.287832 
L 499.959184 224.287832 
L 499.959184 216.495572 
L 511.346939 216.495572 
L 511.346939 214.26531 
L 522.734694 214.26531 
L 522.734694 207.97481 
L 534.122449 207.97481 
L 534.122449 207.186202 
L 545.510204 207.186202 
L 545.510204 205.364811 
L 556.897959 205.364811 
L 556.897959 205.792403 
L 568.285714 205.792403 
L 568.285714 206.568194 
L 579.673469 206.568194 
L 579.673469 211.040557 
L 591.061224 211.040557 
L 591.061224 218.283068 
L 602.44898 218.283068 
L 602.44898 225.566824 
L 613.836735 225.566824 
L 613.836735 229.75748 
L 625.22449 229.75748 
L 625.22449 237.015794 
L 636.612245 237.015794 
L 636.612245 256.055843 
L 648 256.055843 
" style="fill:none;stroke:#1f77b4;stroke-linecap:square;stroke-width:1.5;"/>
   </g>
   <g id="line2d_58">
    <path clip-path="url(#p8739f2531f)" d="M 101.387755 541 
L 101.387755 461.7 
L 112.77551 461.7 
L 112.77551 369.39323 
L 124.163265 369.39323 
L 124.163265 400.625974 
L 135.55102 400.625974 
L 135.55102 379.965191 
L 146.938776 379.965191 
L 146.938776 379.965191 
L 158.326531 379.965191 
L 158.326531 424.252632 
L 169.714286 424.252632 
L 169.714286 406.840598 
L 181.102041 406.840598 
L 181.102041 390.820024 
L 192.489796 390.820024 
L 192.489796 395.371584 
L 203.877551 395.371584 
L 203.877551 374.270974 
L 215.265306 374.270974 
L 215.265306 383.213939 
L 226.653061 383.213939 
L 226.653061 390.820024 
L 238.040816 390.820024 
L 238.040816 359.587281 
L 249.428571 359.587281 
L 249.428571 354.823346 
L 260.816327 354.823346 
L 260.816327 363.178606 
L 272.204082 363.178606 
L 272.204082 386.805265 
L 283.591837 386.805265 
L 283.591837 354.823346 
L 294.979592 354.823346 
L 294.979592 359.587281 
L 306.367347 359.587281 
L 306.367347 339.551948 
L 317.755102 339.551948 
L 317.755102 340.512182 
L 329.142857 340.512182 
L 329.142857 327.679544 
L 340.530612 327.679544 
L 340.530612 334.297558 
L 351.918367 334.297558 
L 351.918367 330.463626 
L 363.306122 330.463626 
L 363.306122 309.868837 
L 374.693878 309.868837 
L 374.693878 298.230381 
L 386.081633 298.230381 
L 386.081633 290.232176 
L 397.469388 290.232176 
L 397.469388 290.455692 
L 408.857143 290.455692 
L 408.857143 281.964205 
L 420.244898 281.964205 
L 420.244898 275.89556 
L 431.632653 275.89556 
L 431.632653 276.935302 
L 443.020408 276.935302 
L 443.020408 266.941343 
L 454.408163 266.941343 
L 454.408163 262.221457 
L 465.795918 262.221457 
L 465.795918 253.233315 
L 477.183673 253.233315 
L 477.183673 244.342483 
L 488.571429 244.342483 
L 488.571429 241.40077 
L 499.959184 241.40077 
L 499.959184 235.328246 
L 511.346939 235.328246 
L 511.346939 228.496263 
L 522.734694 228.496263 
L 522.734694 222.378889 
L 534.122449 222.378889 
L 534.122449 217.063686 
L 545.510204 217.063686 
L 545.510204 210.349308 
L 556.897959 210.349308 
L 556.897959 202.80315 
L 568.285714 202.80315 
L 568.285714 196.457393 
L 579.673469 196.457393 
L 579.673469 187.196373 
L 591.061224 187.196373 
L 591.061224 178.523011 
L 602.44898 178.523011 
L 602.44898 168.664565 
L 613.836735 168.664565 
L 613.836735 156.011366 
L 625.22449 156.011366 
L 625.22449 136.796965 
L 636.612245 136.796965 
L 636.612245 83.7 
L 648 83.7 
" style="fill:none;stroke:#ff7f0e;stroke-linecap:square;stroke-width:1.5;"/>
   </g>
   <g id="line2d_59">
    <path clip-path="url(#p8739f2531f)" d="M 101.387755 541 
L 101.387755 461.7 
L 112.77551 461.7 
L 112.77551 406.840598 
L 124.163265 406.840598 
L 124.163265 424.252632 
L 135.55102 424.252632 
L 135.55102 414.446683 
L 146.938776 414.446683 
L 146.938776 438.073341 
L 158.326531 438.073341 
L 158.326531 541 
M 169.714286 541 
L 169.714286 461.7 
L 181.102041 461.7 
L 181.102041 438.073341 
L 192.489796 438.073341 
L 192.489796 541 
M 203.877551 541 
L 203.877551 406.840598 
L 215.265306 406.840598 
L 215.265306 424.252632 
L 226.653061 424.252632 
L 226.653061 541 
M 238.040816 541 
L 238.040816 400.625974 
L 249.428571 400.625974 
L 249.428571 400.625974 
L 260.816327 400.625974 
L 260.816327 414.446683 
L 272.204082 414.446683 
L 272.204082 424.252632 
L 283.591837 424.252632 
L 283.591837 406.840598 
L 294.979592 406.840598 
L 294.979592 390.820024 
L 306.367347 390.820024 
L 306.367347 376.999315 
L 317.755102 376.999315 
L 317.755102 395.371584 
L 329.142857 395.371584 
L 329.142857 369.39323 
L 340.530612 369.39323 
L 340.530612 376.999315 
L 351.918367 376.999315 
L 351.918367 363.178606 
L 363.306122 363.178606 
L 363.306122 353.372657 
L 374.693878 353.372657 
L 374.693878 342.517823 
L 386.081633 342.517823 
L 386.081633 335.118948 
L 397.469388 335.118948 
L 397.469388 334.297558 
L 408.857143 334.297558 
L 408.857143 318.378582 
L 420.244898 318.378582 
L 420.244898 317.873594 
L 431.632653 317.873594 
L 431.632653 329.745998 
L 443.020408 329.745998 
L 443.020408 314.991366 
L 454.408163 314.991366 
L 454.408163 310.670899 
L 465.795918 310.670899 
L 465.795918 301.170657 
L 477.183673 301.170657 
L 477.183673 293.016258 
L 488.571429 293.016258 
L 488.571429 294.498495 
L 499.959184 294.498495 
L 499.959184 289.789493 
L 511.346939 289.789493 
L 511.346939 281.272078 
L 522.734694 281.272078 
L 522.734694 281.10122 
L 534.122449 281.10122 
L 534.122449 274.463161 
L 545.510204 274.463161 
L 545.510204 266.605517 
L 556.897959 266.605517 
L 556.897959 262.61552 
L 568.285714 262.61552 
L 568.285714 257.304556 
L 579.673469 257.304556 
L 579.673469 249.868476 
L 591.061224 249.868476 
L 591.061224 243.483847 
L 602.44898 243.483847 
L 602.44898 235.41736 
L 613.836735 235.41736 
L 613.836735 224.25566 
L 625.22449 224.25566 
L 625.22449 204.760529 
L 636.612245 204.760529 
L 636.612245 119.595652 
L 648 119.595652 
" style="fill:none;stroke:#2ca02c;stroke-linecap:square;stroke-width:1.5;"/>
   </g>
   <g id="line2d_60">
    <path clip-path="url(#p8739f2531f)" d="M 112.77551 541 
L 112.77551 395.371584 
L 124.163265 395.371584 
L 124.163265 461.7 
L 135.55102 461.7 
L 135.55102 461.7 
L 146.938776 461.7 
L 146.938776 424.252632 
L 158.326531 424.252632 
L 158.326531 461.7 
L 169.714286 461.7 
L 169.714286 424.252632 
L 181.102041 424.252632 
L 181.102041 438.073341 
L 192.489796 438.073341 
L 192.489796 424.252632 
L 203.877551 424.252632 
L 203.877551 424.252632 
L 215.265306 424.252632 
L 215.265306 414.446683 
L 226.653061 414.446683 
L 226.653061 414.446683 
L 238.040816 414.446683 
L 238.040816 395.371584 
L 249.428571 395.371584 
L 249.428571 400.625974 
L 260.816327 400.625974 
L 260.816327 406.840598 
L 272.204082 406.840598 
L 272.204082 424.252632 
L 283.591837 424.252632 
L 283.591837 390.820024 
L 294.979592 390.820024 
L 294.979592 406.840598 
L 306.367347 406.840598 
L 306.367347 390.820024 
L 317.755102 390.820024 
L 317.755102 367.193366 
L 329.142857 367.193366 
L 329.142857 376.999315 
L 340.530612 376.999315 
L 340.530612 379.965191 
L 351.918367 379.965191 
L 351.918367 369.39323 
L 363.306122 369.39323 
L 363.306122 344.648896 
L 374.693878 344.648896 
L 374.693878 333.495496 
L 386.081633 333.495496 
L 386.081633 323.295484 
L 397.469388 323.295484 
L 397.469388 326.368379 
L 408.857143 326.368379 
L 408.857143 312.762725 
L 420.244898 312.762725 
L 420.244898 305.070455 
L 431.632653 305.070455 
L 431.632653 299.963944 
L 443.020408 299.963944 
L 443.020408 290.907169 
L 454.408163 290.907169 
L 454.408163 289.136066 
L 465.795918 289.136066 
L 465.795918 277.852471 
L 477.183673 277.852471 
L 477.183673 269.148708 
L 488.571429 269.148708 
L 488.571429 262.714752 
L 499.959184 262.714752 
L 499.959184 256.384386 
L 511.346939 256.384386 
L 511.346939 249.800372 
L 522.734694 249.800372 
L 522.734694 242.262391 
L 534.122449 242.262391 
L 534.122449 235.106475 
L 545.510204 235.106475 
L 545.510204 229.719712 
L 556.897959 229.719712 
L 556.897959 219.407942 
L 568.285714 219.407942 
L 568.285714 213.017114 
L 579.673469 213.017114 
L 579.673469 201.591074 
L 591.061224 201.591074 
L 591.061224 191.32924 
L 602.44898 191.32924 
L 602.44898 180.745859 
L 613.836735 180.745859 
L 613.836735 166.874344 
L 625.22449 166.874344 
L 625.22449 146.980658 
L 636.612245 146.980658 
L 636.612245 103.66285 
L 648 103.66285 
" style="fill:none;stroke:#d62728;stroke-linecap:square;stroke-width:1.5;"/>
   </g>
   <g id="line2d_61">
    <path clip-path="url(#p8739f2531f)" d="M 90 461.7 
L 101.387755 461.7 
L 101.387755 424.252632 
L 112.77551 424.252632 
L 112.77551 414.446683 
L 124.163265 414.446683 
L 124.163265 406.840598 
L 135.55102 406.840598 
L 135.55102 406.840598 
L 146.938776 406.840598 
L 146.938776 438.073341 
L 158.326531 438.073341 
L 158.326531 438.073341 
L 169.714286 438.073341 
L 169.714286 406.840598 
L 181.102041 406.840598 
L 181.102041 438.073341 
L 192.489796 438.073341 
L 192.489796 438.073341 
L 203.877551 438.073341 
L 203.877551 395.371584 
L 215.265306 395.371584 
L 215.265306 406.840598 
L 226.653061 406.840598 
L 226.653061 400.625974 
L 238.040816 400.625974 
L 238.040816 395.371584 
L 249.428571 395.371584 
L 249.428571 424.252632 
L 260.816327 424.252632 
L 260.816327 386.805265 
L 272.204082 386.805265 
L 272.204082 395.371584 
L 283.591837 395.371584 
L 283.591837 386.805265 
L 294.979592 386.805265 
L 294.979592 386.805265 
L 306.367347 386.805265 
L 306.367347 369.39323 
L 317.755102 369.39323 
L 317.755102 374.270974 
L 329.142857 374.270974 
L 329.142857 369.39323 
L 340.530612 369.39323 
L 340.530612 365.126911 
L 351.918367 365.126911 
L 351.918367 353.372657 
L 363.306122 353.372657 
L 363.306122 356.338532 
L 374.693878 356.338532 
L 374.693878 337.709009 
L 386.081633 337.709009 
L 386.081633 335.960622 
L 397.469388 335.960622 
L 397.469388 342.517823 
L 408.857143 342.517823 
L 408.857143 336.823607 
L 420.244898 336.823607 
L 420.244898 333.495496 
L 431.632653 333.495496 
L 431.632653 323.295484 
L 443.020408 323.295484 
L 443.020408 316.885523 
L 454.408163 316.885523 
L 454.408163 318.378582 
L 465.795918 318.378582 
L 465.795918 311.910529 
L 477.183673 311.910529 
L 477.183673 301.170657 
L 488.571429 301.170657 
L 488.571429 299.376239 
L 499.959184 299.376239 
L 499.959184 292.298631 
L 511.346939 292.298631 
L 511.346939 293.50321 
L 522.734694 293.50321 
L 522.734694 283.574869 
L 534.122449 283.574869 
L 534.122449 284.88244 
L 545.510204 284.88244 
L 545.510204 281.616385 
L 556.897959 281.616385 
L 556.897959 285.073399 
L 568.285714 285.073399 
L 568.285714 283.210309 
L 579.673469 283.210309 
L 579.673469 283.574869 
L 591.061224 283.574869 
L 591.061224 284.88244 
L 602.44898 284.88244 
L 602.44898 284.129127 
L 613.836735 284.129127 
L 613.836735 282.670677 
L 625.22449 282.670677 
L 625.22449 279.600858 
L 636.612245 279.600858 
L 636.612245 299.086143 
L 648 299.086143 
" style="fill:none;stroke:#9467bd;stroke-linecap:square;stroke-width:1.5;"/>
   </g>
   <g id="line2d_62">
    <path clip-path="url(#p8739f2531f)" d="M 90 424.252632 
L 101.387755 424.252632 
L 101.387755 390.820024 
L 112.77551 390.820024 
L 112.77551 367.193366 
L 124.163265 367.193366 
L 124.163265 359.587281 
L 135.55102 359.587281 
L 135.55102 361.335667 
L 146.938776 361.335667 
L 146.938776 365.126911 
L 158.326531 365.126911 
L 158.326531 367.193366 
L 169.714286 367.193366 
L 169.714286 359.587281 
L 181.102041 359.587281 
L 181.102041 353.372657 
L 192.489796 353.372657 
L 192.489796 348.118267 
L 203.877551 348.118267 
L 203.877551 348.118267 
L 215.265306 348.118267 
L 215.265306 342.517823 
L 226.653061 342.517823 
L 226.653061 343.566707 
L 238.040816 343.566707 
L 238.040816 345.766572 
L 249.428571 345.766572 
L 249.428571 331.945862 
L 260.816327 331.945862 
L 260.816327 328.354537 
L 272.204082 328.354537 
L 272.204082 325.731238 
L 283.591837 325.731238 
L 283.591837 328.354537 
L 294.979592 328.354537 
L 294.979592 322.139913 
L 306.367347 322.139913 
L 306.367347 314.991366 
L 317.755102 314.991366 
L 317.755102 311.910529 
L 329.142857 311.910529 
L 329.142857 315.455129 
L 340.530612 315.455129 
L 340.530612 300.261641 
L 351.918367 300.261641 
L 351.918367 291.135171 
L 363.306122 291.135171 
L 363.306122 289.789493 
L 374.693878 289.789493 
L 374.693878 284.88244 
L 386.081633 284.88244 
L 386.081633 279.600858 
L 397.469388 279.600858 
L 397.469388 278.007761 
L 408.857143 278.007761 
L 408.857143 268.671972 
L 420.244898 268.671972 
L 420.244898 260.131964 
L 431.632653 260.131964 
L 431.632653 256.967067 
L 443.020408 256.967067 
L 443.020408 252.195833 
L 454.408163 252.195833 
L 454.408163 246.06647 
L 465.795918 246.06647 
L 465.795918 237.156355 
L 477.183673 237.156355 
L 477.183673 234.842241 
L 488.571429 234.842241 
L 488.571429 228.27846 
L 499.959184 228.27846 
L 499.959184 220.398474 
L 511.346939 220.398474 
L 511.346939 217.774112 
L 522.734694 217.774112 
L 522.734694 211.902422 
L 534.122449 211.902422 
L 534.122449 210.866426 
L 545.510204 210.866426 
L 545.510204 209.213701 
L 556.897959 209.213701 
L 556.897959 209.296535 
L 568.285714 209.296535 
L 568.285714 210.370698 
L 579.673469 210.370698 
L 579.673469 215.362203 
L 591.061224 215.362203 
L 591.061224 223.492508 
L 602.44898 223.492508 
L 602.44898 232.306792 
L 613.836735 232.306792 
L 613.836735 237.86799 
L 625.22449 237.86799 
L 625.22449 248.531597 
L 636.612245 248.531597 
L 636.612245 267.394321 
L 648 267.394321 
" style="fill:none;stroke:#8c564b;stroke-linecap:square;stroke-width:1.5;"/>
   </g>
   <g id="line2d_63">
    <path clip-path="url(#p8739f2531f)" d="M 112.77551 541 
L 112.77551 424.252632 
L 124.163265 424.252632 
L 124.163265 438.073341 
L 135.55102 438.073341 
L 135.55102 400.625974 
L 146.938776 400.625974 
L 146.938776 400.625974 
L 158.326531 400.625974 
L 158.326531 438.073341 
L 169.714286 438.073341 
L 169.714286 461.7 
L 181.102041 461.7 
L 181.102041 414.446683 
L 192.489796 414.446683 
L 192.489796 424.252632 
L 203.877551 424.252632 
L 203.877551 406.840598 
L 215.265306 406.840598 
L 215.265306 424.252632 
L 226.653061 424.252632 
L 226.653061 414.446683 
L 238.040816 414.446683 
L 238.040816 395.371584 
L 249.428571 395.371584 
L 249.428571 379.965191 
L 260.816327 379.965191 
L 260.816327 386.805265 
L 272.204082 386.805265 
L 272.204082 424.252632 
L 283.591837 424.252632 
L 283.591837 383.213939 
L 294.979592 383.213939 
L 294.979592 395.371584 
L 306.367347 395.371584 
L 306.367347 367.193366 
L 317.755102 367.193366 
L 317.755102 383.213939 
L 329.142857 383.213939 
L 329.142857 354.823346 
L 340.530612 354.823346 
L 340.530612 363.178606 
L 351.918367 363.178606 
L 351.918367 371.744925 
L 363.306122 371.744925 
L 363.306122 346.922142 
L 374.693878 346.922142 
L 374.693878 332.711874 
L 386.081633 332.711874 
L 386.081633 326.368379 
L 397.469388 326.368379 
L 397.469388 324.491608 
L 408.857143 324.491608 
L 408.857143 329.745998 
L 420.244898 329.745998 
L 420.244898 319.940049 
L 431.632653 319.940049 
L 431.632653 322.712802 
L 443.020408 322.712802 
L 443.020408 313.196948 
L 454.408163 313.196948 
L 454.408163 304.388711 
L 465.795918 304.388711 
L 465.795918 298.513255 
L 477.183673 298.513255 
L 477.183673 288.921012 
L 488.571429 288.921012 
L 488.571429 289.57029 
L 499.959184 289.57029 
L 499.959184 282.849607 
L 511.346939 282.849607 
L 511.346939 276.634983 
L 522.734694 276.634983 
L 522.734694 269.510687 
L 534.122449 269.510687 
L 534.122449 270.620277 
L 545.510204 270.620277 
L 545.510204 260.502468 
L 556.897959 260.502468 
L 556.897959 257.21987 
L 568.285714 257.21987 
L 568.285714 249.664571 
L 579.673469 249.664571 
L 579.673469 246.496003 
L 591.061224 246.496003 
L 591.061224 241.990788 
L 602.44898 241.990788 
L 602.44898 233.256556 
L 613.836735 233.256556 
L 613.836735 226.004047 
L 625.22449 226.004047 
L 625.22449 211.084229 
L 636.612245 211.084229 
L 636.612245 166.482409 
L 648 166.482409 
" style="fill:none;stroke:#e377c2;stroke-linecap:square;stroke-width:1.5;"/>
   </g>
   <g id="line2d_64">
    <path clip-path="url(#p8739f2531f)" d="M 589.90991 480.6 
L 589.90991 64.8 
" style="fill:none;stroke:#000000;stroke-linecap:square;stroke-width:1.5;"/>
   </g>
   <g id="patch_5">
    <path d="M 90 480.6 
L 90 64.8 
" style="fill:none;stroke:#000000;stroke-linecap:square;stroke-linejoin:miter;stroke-width:0.8;"/>
   </g>
   <g id="patch_6">
    <path d="M 648 480.6 
L 648 64.8 
" style="fill:none;stroke:#000000;stroke-linecap:square;stroke-linejoin:miter;stroke-width:0.8;"/>
   </g>
   <g id="patch_7">
    <path d="M 90 480.6 
L 648 480.6 
" style="fill:none;stroke:#000000;stroke-linecap:square;stroke-linejoin:miter;stroke-width:0.8;"/>
   </g>
   <g id="patch_8">
    <path d="M 90 64.8 
L 648 64.8 
" style="fill:none;stroke:#000000;stroke-linecap:square;stroke-linejoin:miter;stroke-width:0.8;"/>
   </g>
   <g id="patch_9">
    <path d="M 544.144879 93.906 
Q 564.908849 93.906 587.908888 93.906 
" style="fill:none;stroke:#000000;stroke-linecap:round;stroke-width:2;"/>
    <path d="M 550.144879 96.906 
L 544.144879 93.906 
L 550.144879 90.906 
L 550.144879 96.906 
z
" style="fill:#1f77b4;stroke:#000000;stroke-linecap:round;stroke-width:2;"/>
   </g>
   <g id="legend_1">
    <g id="patch_10">
     <path d="M 385.194375 264.144375 
L 635.4 264.144375 
Q 639 264.144375 639 260.544375 
L 639 77.4 
Q 639 73.8 635.4 73.8 
L 385.194375 73.8 
Q 381.594375 73.8 381.594375 77.4 
L 381.594375 260.544375 
Q 381.594375 264.144375 385.194375 264.144375 
z
" style="fill:#ffffff;opacity:0.5;stroke:#cccccc;stroke-linejoin:miter;"/>
    </g>
    <g id="line2d_65">
     <path d="M 388.794375 88.377188 
L 424.794375 88.377188 
" style="fill:none;stroke:#1f77b4;stroke-linecap:square;stroke-width:1.5;"/>
    </g>
    <g id="line2d_66"/>
    <g id="text_15">
     <!-- Showers -->
     <defs>
      <path d="M 53.515625 70.515625 
L 53.515625 60.890625 
Q 47.90625 63.578125 42.921875 64.890625 
Q 37.9375 66.21875 33.296875 66.21875 
Q 25.25 66.21875 20.875 63.09375 
Q 16.5 59.96875 16.5 54.203125 
Q 16.5 49.359375 19.40625 46.890625 
Q 22.3125 44.4375 30.421875 42.921875 
L 36.375 41.703125 
Q 47.40625 39.59375 52.65625 34.296875 
Q 57.90625 29 57.90625 20.125 
Q 57.90625 9.515625 50.796875 4.046875 
Q 43.703125 -1.421875 29.984375 -1.421875 
Q 24.8125 -1.421875 18.96875 -0.25 
Q 13.140625 0.921875 6.890625 3.21875 
L 6.890625 13.375 
Q 12.890625 10.015625 18.65625 8.296875 
Q 24.421875 6.59375 29.984375 6.59375 
Q 38.421875 6.59375 43.015625 9.90625 
Q 47.609375 13.234375 47.609375 19.390625 
Q 47.609375 24.75 44.3125 27.78125 
Q 41.015625 30.8125 33.5 32.328125 
L 27.484375 33.5 
Q 16.453125 35.6875 11.515625 40.375 
Q 6.59375 45.0625 6.59375 53.421875 
Q 6.59375 63.09375 13.40625 68.65625 
Q 20.21875 74.21875 32.171875 74.21875 
Q 37.3125 74.21875 42.625 73.28125 
Q 47.953125 72.359375 53.515625 70.515625 
z
" id="DejaVuSans-83"/>
      <path d="M 4.203125 54.6875 
L 13.1875 54.6875 
L 24.421875 12.015625 
L 35.59375 54.6875 
L 46.1875 54.6875 
L 57.421875 12.015625 
L 68.609375 54.6875 
L 77.59375 54.6875 
L 63.28125 0 
L 52.6875 0 
L 40.921875 44.828125 
L 29.109375 0 
L 18.5 0 
z
" id="DejaVuSans-119"/>
      <path d="M 56.203125 29.59375 
L 56.203125 25.203125 
L 14.890625 25.203125 
Q 15.484375 15.921875 20.484375 11.0625 
Q 25.484375 6.203125 34.421875 6.203125 
Q 39.59375 6.203125 44.453125 7.46875 
Q 49.3125 8.734375 54.109375 11.28125 
L 54.109375 2.78125 
Q 49.265625 0.734375 44.1875 -0.34375 
Q 39.109375 -1.421875 33.890625 -1.421875 
Q 20.796875 -1.421875 13.15625 6.1875 
Q 5.515625 13.8125 5.515625 26.8125 
Q 5.515625 40.234375 12.765625 48.109375 
Q 20.015625 56 32.328125 56 
Q 43.359375 56 49.78125 48.890625 
Q 56.203125 41.796875 56.203125 29.59375 
z
M 47.21875 32.234375 
Q 47.125 39.59375 43.09375 43.984375 
Q 39.0625 48.390625 32.421875 48.390625 
Q 24.90625 48.390625 20.390625 44.140625 
Q 15.875 39.890625 15.1875 32.171875 
z
" id="DejaVuSans-101"/>
      <path d="M 41.109375 46.296875 
Q 39.59375 47.171875 37.8125 47.578125 
Q 36.03125 48 33.890625 48 
Q 26.265625 48 22.1875 43.046875 
Q 18.109375 38.09375 18.109375 28.8125 
L 18.109375 0 
L 9.078125 0 
L 9.078125 54.6875 
L 18.109375 54.6875 
L 18.109375 46.1875 
Q 20.953125 51.171875 25.484375 53.578125 
Q 30.03125 56 36.53125 56 
Q 37.453125 56 38.578125 55.875 
Q 39.703125 55.765625 41.0625 55.515625 
z
" id="DejaVuSans-114"/>
      <path d="M 44.28125 53.078125 
L 44.28125 44.578125 
Q 40.484375 46.53125 36.375 47.5 
Q 32.28125 48.484375 27.875 48.484375 
Q 21.1875 48.484375 17.84375 46.4375 
Q 14.5 44.390625 14.5 40.28125 
Q 14.5 37.15625 16.890625 35.375 
Q 19.28125 33.59375 26.515625 31.984375 
L 29.59375 31.296875 
Q 39.15625 29.25 43.1875 25.515625 
Q 47.21875 21.78125 47.21875 15.09375 
Q 47.21875 7.46875 41.1875 3.015625 
Q 35.15625 -1.421875 24.609375 -1.421875 
Q 20.21875 -1.421875 15.453125 -0.5625 
Q 10.6875 0.296875 5.421875 2 
L 5.421875 11.28125 
Q 10.40625 8.6875 15.234375 7.390625 
Q 20.0625 6.109375 24.8125 6.109375 
Q 31.15625 6.109375 34.5625 8.28125 
Q 37.984375 10.453125 37.984375 14.40625 
Q 37.984375 18.0625 35.515625 20.015625 
Q 33.0625 21.96875 24.703125 23.78125 
L 21.578125 24.515625 
Q 13.234375 26.265625 9.515625 29.90625 
Q 5.8125 33.546875 5.8125 39.890625 
Q 5.8125 47.609375 11.28125 51.796875 
Q 16.75 56 26.8125 56 
Q 31.78125 56 36.171875 55.265625 
Q 40.578125 54.546875 44.28125 53.078125 
z
" id="DejaVuSans-115"/>
     </defs>
     <g transform="translate(439.194375 94.677188)scale(0.18 -0.18)">
      <use xlink:href="#DejaVuSans-83"/>
      <use x="63.476562" xlink:href="#DejaVuSans-104"/>
      <use x="126.855469" xlink:href="#DejaVuSans-111"/>
      <use x="188.037109" xlink:href="#DejaVuSans-119"/>
      <use x="269.824219" xlink:href="#DejaVuSans-101"/>
      <use x="331.347656" xlink:href="#DejaVuSans-114"/>
      <use x="372.460938" xlink:href="#DejaVuSans-115"/>
     </g>
    </g>
    <g id="line2d_67">
     <path d="M 388.794375 114.797813 
L 424.794375 114.797813 
" style="fill:none;stroke:#ff7f0e;stroke-linecap:square;stroke-width:1.5;"/>
    </g>
    <g id="line2d_68"/>
    <g id="text_16">
     <!-- Tracks -->
     <defs>
      <path d="M -0.296875 72.90625 
L 61.375 72.90625 
L 61.375 64.59375 
L 35.5 64.59375 
L 35.5 0 
L 25.59375 0 
L 25.59375 64.59375 
L -0.296875 64.59375 
z
" id="DejaVuSans-84"/>
      <path d="M 48.78125 52.59375 
L 48.78125 44.1875 
Q 44.96875 46.296875 41.140625 47.34375 
Q 37.3125 48.390625 33.40625 48.390625 
Q 24.65625 48.390625 19.8125 42.84375 
Q 14.984375 37.3125 14.984375 27.296875 
Q 14.984375 17.28125 19.8125 11.734375 
Q 24.65625 6.203125 33.40625 6.203125 
Q 37.3125 6.203125 41.140625 7.25 
Q 44.96875 8.296875 48.78125 10.40625 
L 48.78125 2.09375 
Q 45.015625 0.34375 40.984375 -0.53125 
Q 36.96875 -1.421875 32.421875 -1.421875 
Q 20.0625 -1.421875 12.78125 6.34375 
Q 5.515625 14.109375 5.515625 27.296875 
Q 5.515625 40.671875 12.859375 48.328125 
Q 20.21875 56 33.015625 56 
Q 37.15625 56 41.109375 55.140625 
Q 45.0625 54.296875 48.78125 52.59375 
z
" id="DejaVuSans-99"/>
      <path d="M 9.078125 75.984375 
L 18.109375 75.984375 
L 18.109375 31.109375 
L 44.921875 54.6875 
L 56.390625 54.6875 
L 27.390625 29.109375 
L 57.625 0 
L 45.90625 0 
L 18.109375 26.703125 
L 18.109375 0 
L 9.078125 0 
z
" id="DejaVuSans-107"/>
     </defs>
     <g transform="translate(439.194375 121.097813)scale(0.18 -0.18)">
      <use xlink:href="#DejaVuSans-84"/>
      <use x="60.865234" xlink:href="#DejaVuSans-114"/>
      <use x="101.978516" xlink:href="#DejaVuSans-97"/>
      <use x="163.257812" xlink:href="#DejaVuSans-99"/>
      <use x="218.238281" xlink:href="#DejaVuSans-107"/>
      <use x="276.148438" xlink:href="#DejaVuSans-115"/>
     </g>
    </g>
    <g id="line2d_69">
     <path d="M 388.794375 141.218437 
L 424.794375 141.218437 
" style="fill:none;stroke:#2ca02c;stroke-linecap:square;stroke-width:1.5;"/>
    </g>
    <g id="line2d_70"/>
    <g id="text_17">
     <!-- Protons -->
     <defs>
      <path d="M 19.671875 64.796875 
L 19.671875 37.40625 
L 32.078125 37.40625 
Q 38.96875 37.40625 42.71875 40.96875 
Q 46.484375 44.53125 46.484375 51.125 
Q 46.484375 57.671875 42.71875 61.234375 
Q 38.96875 64.796875 32.078125 64.796875 
z
M 9.8125 72.90625 
L 32.078125 72.90625 
Q 44.34375 72.90625 50.609375 67.359375 
Q 56.890625 61.8125 56.890625 51.125 
Q 56.890625 40.328125 50.609375 34.8125 
Q 44.34375 29.296875 32.078125 29.296875 
L 19.671875 29.296875 
L 19.671875 0 
L 9.8125 0 
z
" id="DejaVuSans-80"/>
     </defs>
     <g transform="translate(439.194375 147.518438)scale(0.18 -0.18)">
      <use xlink:href="#DejaVuSans-80"/>
      <use x="60.287109" xlink:href="#DejaVuSans-114"/>
      <use x="101.369141" xlink:href="#DejaVuSans-111"/>
      <use x="162.550781" xlink:href="#DejaVuSans-116"/>
      <use x="201.759766" xlink:href="#DejaVuSans-111"/>
      <use x="262.941406" xlink:href="#DejaVuSans-110"/>
      <use x="326.320312" xlink:href="#DejaVuSans-115"/>
     </g>
    </g>
    <g id="line2d_71">
     <path d="M 388.794375 167.639062 
L 424.794375 167.639062 
" style="fill:none;stroke:#d62728;stroke-linecap:square;stroke-width:1.5;"/>
    </g>
    <g id="line2d_72"/>
    <g id="text_18">
     <!-- Muons -->
     <defs>
      <path d="M 9.8125 72.90625 
L 24.515625 72.90625 
L 43.109375 23.296875 
L 61.8125 72.90625 
L 76.515625 72.90625 
L 76.515625 0 
L 66.890625 0 
L 66.890625 64.015625 
L 48.09375 14.015625 
L 38.1875 14.015625 
L 19.390625 64.015625 
L 19.390625 0 
L 9.8125 0 
z
" id="DejaVuSans-77"/>
     </defs>
     <g transform="translate(439.194375 173.939062)scale(0.18 -0.18)">
      <use xlink:href="#DejaVuSans-77"/>
      <use x="86.279297" xlink:href="#DejaVuSans-117"/>
      <use x="149.658203" xlink:href="#DejaVuSans-111"/>
      <use x="210.839844" xlink:href="#DejaVuSans-110"/>
      <use x="274.21875" xlink:href="#DejaVuSans-115"/>
     </g>
    </g>
    <g id="line2d_73">
     <path d="M 388.794375 194.059687 
L 424.794375 194.059687 
" style="fill:none;stroke:#9467bd;stroke-linecap:square;stroke-width:1.5;"/>
    </g>
    <g id="line2d_74"/>
    <g id="text_19">
     <!-- Electrons + Positrons -->
     <defs>
      <path d="M 9.8125 72.90625 
L 55.90625 72.90625 
L 55.90625 64.59375 
L 19.671875 64.59375 
L 19.671875 43.015625 
L 54.390625 43.015625 
L 54.390625 34.71875 
L 19.671875 34.71875 
L 19.671875 8.296875 
L 56.78125 8.296875 
L 56.78125 0 
L 9.8125 0 
z
" id="DejaVuSans-69"/>
      <path d="M 9.421875 75.984375 
L 18.40625 75.984375 
L 18.40625 0 
L 9.421875 0 
z
" id="DejaVuSans-108"/>
      <path id="DejaVuSans-32"/>
      <path d="M 46 62.703125 
L 46 35.5 
L 73.1875 35.5 
L 73.1875 27.203125 
L 46 27.203125 
L 46 0 
L 37.796875 0 
L 37.796875 27.203125 
L 10.59375 27.203125 
L 10.59375 35.5 
L 37.796875 35.5 
L 37.796875 62.703125 
z
" id="DejaVuSans-43"/>
     </defs>
     <g transform="translate(439.194375 200.359688)scale(0.18 -0.18)">
      <use xlink:href="#DejaVuSans-69"/>
      <use x="63.183594" xlink:href="#DejaVuSans-108"/>
      <use x="90.966797" xlink:href="#DejaVuSans-101"/>
      <use x="152.490234" xlink:href="#DejaVuSans-99"/>
      <use x="207.470703" xlink:href="#DejaVuSans-116"/>
      <use x="246.679688" xlink:href="#DejaVuSans-114"/>
      <use x="287.761719" xlink:href="#DejaVuSans-111"/>
      <use x="348.943359" xlink:href="#DejaVuSans-110"/>
      <use x="412.322266" xlink:href="#DejaVuSans-115"/>
      <use x="464.421875" xlink:href="#DejaVuSans-32"/>
      <use x="496.208984" xlink:href="#DejaVuSans-43"/>
      <use x="579.998047" xlink:href="#DejaVuSans-32"/>
      <use x="611.785156" xlink:href="#DejaVuSans-80"/>
      <use x="672.041016" xlink:href="#DejaVuSans-111"/>
      <use x="733.222656" xlink:href="#DejaVuSans-115"/>
      <use x="785.322266" xlink:href="#DejaVuSans-105"/>
      <use x="813.105469" xlink:href="#DejaVuSans-116"/>
      <use x="852.314453" xlink:href="#DejaVuSans-114"/>
      <use x="893.396484" xlink:href="#DejaVuSans-111"/>
      <use x="954.578125" xlink:href="#DejaVuSans-110"/>
      <use x="1017.957031" xlink:href="#DejaVuSans-115"/>
     </g>
    </g>
    <g id="line2d_75">
     <path d="M 388.794375 220.480312 
L 424.794375 220.480312 
" style="fill:none;stroke:#8c564b;stroke-linecap:square;stroke-width:1.5;"/>
    </g>
    <g id="line2d_76"/>
    <g id="text_20">
     <!-- Photons -->
     <g transform="translate(439.194375 226.780312)scale(0.18 -0.18)">
      <use xlink:href="#DejaVuSans-80"/>
      <use x="60.302734" xlink:href="#DejaVuSans-104"/>
      <use x="123.681641" xlink:href="#DejaVuSans-111"/>
      <use x="184.863281" xlink:href="#DejaVuSans-116"/>
      <use x="224.072266" xlink:href="#DejaVuSans-111"/>
      <use x="285.253906" xlink:href="#DejaVuSans-110"/>
      <use x="348.632812" xlink:href="#DejaVuSans-115"/>
     </g>
    </g>
    <g id="line2d_77">
     <path d="M 388.794375 246.900937 
L 424.794375 246.900937 
" style="fill:none;stroke:#e377c2;stroke-linecap:square;stroke-width:1.5;"/>
    </g>
    <g id="line2d_78"/>
    <g id="text_21">
     <!-- Charged Pions -->
     <defs>
      <path d="M 45.40625 46.390625 
L 45.40625 75.984375 
L 54.390625 75.984375 
L 54.390625 0 
L 45.40625 0 
L 45.40625 8.203125 
Q 42.578125 3.328125 38.25 0.953125 
Q 33.9375 -1.421875 27.875 -1.421875 
Q 17.96875 -1.421875 11.734375 6.484375 
Q 5.515625 14.40625 5.515625 27.296875 
Q 5.515625 40.1875 11.734375 48.09375 
Q 17.96875 56 27.875 56 
Q 33.9375 56 38.25 53.625 
Q 42.578125 51.265625 45.40625 46.390625 
z
M 14.796875 27.296875 
Q 14.796875 17.390625 18.875 11.75 
Q 22.953125 6.109375 30.078125 6.109375 
Q 37.203125 6.109375 41.296875 11.75 
Q 45.40625 17.390625 45.40625 27.296875 
Q 45.40625 37.203125 41.296875 42.84375 
Q 37.203125 48.484375 30.078125 48.484375 
Q 22.953125 48.484375 18.875 42.84375 
Q 14.796875 37.203125 14.796875 27.296875 
z
" id="DejaVuSans-100"/>
     </defs>
     <g transform="translate(439.194375 253.200938)scale(0.18 -0.18)">
      <use xlink:href="#DejaVuSans-67"/>
      <use x="69.824219" xlink:href="#DejaVuSans-104"/>
      <use x="133.203125" xlink:href="#DejaVuSans-97"/>
      <use x="194.482422" xlink:href="#DejaVuSans-114"/>
      <use x="235.580078" xlink:href="#DejaVuSans-103"/>
      <use x="299.056641" xlink:href="#DejaVuSans-101"/>
      <use x="360.580078" xlink:href="#DejaVuSans-100"/>
      <use x="424.056641" xlink:href="#DejaVuSans-32"/>
      <use x="455.84375" xlink:href="#DejaVuSans-80"/>
      <use x="516.115234" xlink:href="#DejaVuSans-105"/>
      <use x="543.898438" xlink:href="#DejaVuSans-111"/>
      <use x="605.080078" xlink:href="#DejaVuSans-110"/>
      <use x="668.458984" xlink:href="#DejaVuSans-115"/>
     </g>
    </g>
   </g>
  </g>
 </g>
 <defs>
  <clipPath id="p8739f2531f">
   <rect height="415.8" width="558" x="90" y="64.8"/>
  </clipPath>
 </defs>
</svg>
